<svg width="323" height="158" viewBox="0 0 323 158" fill="none" xmlns="http://www.w3.org/2000/svg">
<g filter="url(#filter0_dddddddi_5_63)">
<path d="M31 66C31 49.1984 31 40.7976 34.2698 34.3803C37.146 28.7354 41.7354 24.146 47.3803 21.2698C53.7976 18 62.1984 18 79 18H244C260.802 18 269.202 18 275.62 21.2698C281.265 24.146 285.854 28.7354 288.73 34.3803C292 40.7976 292 49.1984 292 66C292 82.8016 292 91.2024 288.73 97.6197C285.854 103.265 281.265 107.854 275.62 110.73C269.202 114 260.802 114 244 114H79C62.1984 114 53.7976 114 47.3803 110.73C41.7354 107.854 37.146 103.265 34.2698 97.6197C31 91.2024 31 82.8016 31 66Z" fill="#F9F9FA"/>
<path d="M55 66C55 56.6444 55 51.9667 57.1459 48.5516C58.2648 46.7707 59.7707 45.2648 61.5516 44.1459C64.9667 42 69.6444 42 79 42H127C136.356 42 141.033 42 144.448 44.1459C146.229 45.2648 147.735 46.7707 148.854 48.5516C151 51.9667 151 56.6444 151 66C151 75.3556 151 80.0333 148.854 83.4484C147.735 85.2293 146.229 86.7352 144.448 87.8541C141.033 90 136.356 90 127 90H79C69.6444 90 64.9667 90 61.5516 87.8541C59.7707 86.7352 58.2648 85.2293 57.1459 83.4484C55 80.0333 55 75.3556 55 66Z" fill="#CFF1D6"/>
<g filter="url(#filter1_d_5_63)">
<path d="M169.741 58.6816C169.892 61.4854 172.212 63.2578 175.649 63.2578C179.323 63.2578 181.633 61.4424 181.633 58.542C181.633 56.2754 180.312 54.9971 177.132 54.2451L175.424 53.8262C173.426 53.332 172.609 52.6875 172.609 51.5918C172.609 50.2168 173.888 49.2715 175.757 49.2715C177.626 49.2715 178.904 50.2061 179.044 51.7529H181.386C181.311 49.0781 179.065 47.2412 175.789 47.2412C172.48 47.2412 170.149 49.0781 170.149 51.7529C170.149 53.9121 171.471 55.2441 174.317 55.9316L176.326 56.415C178.335 56.9092 179.184 57.6289 179.184 58.832C179.184 60.2178 177.776 61.2275 175.821 61.2275C173.78 61.2275 172.287 60.2178 172.115 58.6816H169.741ZM188.411 53.085C190.108 53.085 191.258 54.2881 191.312 56.1035H185.393C185.521 54.3096 186.735 53.085 188.411 53.085ZM191.301 59.584C190.979 60.6045 189.915 61.249 188.562 61.249C186.649 61.249 185.382 59.917 185.382 57.8975V57.7578H193.643V56.9414C193.643 53.4072 191.623 51.1836 188.422 51.1836C185.156 51.1836 183.029 53.5576 183.029 57.21C183.029 60.8623 185.135 63.1396 188.519 63.1396C191.14 63.1396 193.191 61.6787 193.524 59.584H191.301ZM199.572 61.2598C198.229 61.2598 197.359 60.6152 197.359 59.6162C197.359 58.585 198.187 57.9941 199.776 57.8975L202.612 57.7041V58.6172C202.612 60.1533 201.302 61.2598 199.572 61.2598ZM198.949 63.1182C200.539 63.1182 201.989 62.3232 202.634 61.0557H202.688V63H204.911V54.9971C204.911 52.6875 203.074 51.1836 200.228 51.1836C197.606 51.1836 195.651 52.709 195.587 54.7715H197.768C197.972 53.7617 198.896 53.1064 200.163 53.1064C201.721 53.1064 202.612 53.8369 202.612 55.1689V56.0713L199.465 56.2539C196.586 56.4365 195.007 57.6182 195.007 59.6592C195.007 61.7432 196.618 63.1182 198.949 63.1182ZM214.966 63V56.5117H221.626V54.4814H214.966V49.5723H222.238V47.499H212.56V63H214.966ZM228.877 63.1396C232.25 63.1396 234.388 60.8408 234.388 57.167C234.388 53.4932 232.239 51.1836 228.877 51.1836C225.515 51.1836 223.355 53.5039 223.355 57.167C223.355 60.8408 225.504 63.1396 228.877 63.1396ZM228.877 61.2061C226.9 61.2061 225.719 59.7129 225.719 57.167C225.719 54.6318 226.9 53.1172 228.877 53.1172C230.854 53.1172 232.024 54.6211 232.024 57.167C232.024 59.7129 230.854 61.2061 228.877 61.2061ZM240.307 61.2598C238.964 61.2598 238.094 60.6152 238.094 59.6162C238.094 58.585 238.921 57.9941 240.511 57.8975L243.347 57.7041V58.6172C243.347 60.1533 242.036 61.2598 240.307 61.2598ZM239.684 63.1182C241.273 63.1182 242.724 62.3232 243.368 61.0557H243.422V63H245.646V54.9971C245.646 52.6875 243.809 51.1836 240.962 51.1836C238.341 51.1836 236.386 52.709 236.321 54.7715H238.502C238.706 53.7617 239.63 53.1064 240.897 53.1064C242.455 53.1064 243.347 53.8369 243.347 55.1689V56.0713L240.199 56.2539C237.32 56.4365 235.741 57.6182 235.741 59.6592C235.741 61.7432 237.353 63.1182 239.684 63.1182ZM247.987 63H250.318V55.8457C250.318 54.3203 251.35 53.2031 252.789 53.2031C254.153 53.2031 255.023 54.0625 255.023 55.416V63H257.312V55.7598C257.312 54.2666 258.321 53.2031 259.75 53.2031C261.2 53.2031 262.027 54.084 262.027 55.6094V63H264.348V55.0508C264.348 52.7197 262.844 51.2051 260.545 51.2051C258.88 51.2051 257.505 52.0645 256.893 53.4717H256.839C256.366 52.0215 255.195 51.2051 253.573 51.2051C252.048 51.2051 250.791 52 250.254 53.3105H250.211V51.334H247.987V63Z" fill="#3D3D3D"/>
<path d="M178.102 78.9766L178.336 77.8281H176.695L177.32 74.7266H176.203L175.578 77.8281H173.273L173.891 74.7266H172.773L172.156 77.8281H170.516L170.289 78.9766H171.93L171.414 81.625H169.773L169.531 82.7891H171.172L170.531 86H171.648L172.281 82.7891H174.594L173.953 86H175.07L175.711 82.7891H177.352L177.578 81.625H175.938L176.461 78.9766H178.102ZM173.023 78.9531H175.367L174.836 81.6562H172.5L173.023 78.9531ZM184.094 84.9297C182.266 84.9297 181.312 83.7031 181.312 81.3672V79.3594C181.312 77.0234 182.266 75.7969 184.086 75.7969C185.531 75.7969 186.539 76.8203 186.586 78.3438H187.984C187.938 75.9375 186.469 74.4922 184.094 74.4922C181.445 74.4922 179.906 76.2812 179.906 79.3594V81.3672C179.906 84.4453 181.445 86.2344 184.094 86.2344C186.398 86.2344 187.977 84.7578 187.977 82.5781H186.586C186.547 84.0312 185.594 84.9297 184.094 84.9297ZM192.148 86V81.0859H196.961V79.8594H192.148V75.9922H197.414V74.7266H190.766V86H192.148ZM202.039 86V81.0859H206.852V79.8594H202.039V75.9922H207.305V74.7266H200.656V86H202.039ZM217.766 86V84.7891H214.594V74.7266H213.242L209.883 76.9062V78.375L213.109 76.2891H213.234V84.7891H209.906V86H217.766ZM219.703 74.7266V86H222.859C226.055 86 227.664 84.1094 227.664 80.3438C227.664 76.6094 226.055 74.7266 222.859 74.7266H219.703ZM221.086 75.9922H222.734C225.117 75.9922 226.258 77.3984 226.258 80.3516C226.258 83.3359 225.125 84.7344 222.734 84.7344H221.086V75.9922ZM237.156 82.3828C237.156 80.3281 235.672 78.8047 233.664 78.8047C232.945 78.8047 232.133 79.1406 231.797 79.5938L231.68 79.5312C231.734 79.4062 231.703 79.4375 232.047 78.9531L235.125 74.7266H233.539C233.461 74.8438 231.117 78.125 231.016 78.2969C229.938 79.8672 229.492 81.0625 229.492 82.3828C229.492 84.625 231.094 86.2344 233.312 86.2344C235.547 86.2344 237.156 84.6172 237.156 82.3828ZM233.32 85.0078C231.906 85.0078 230.828 83.8984 230.828 82.4531C230.828 81 231.906 79.8906 233.32 79.8906C234.742 79.8906 235.82 81 235.82 82.4531C235.82 83.8984 234.742 85.0078 233.32 85.0078Z" fill="#727272"/>
</g>
</g>
<defs>
<filter id="filter0_dddddddi_5_63" x="0" y="0" width="323" height="158" filterUnits="userSpaceOnUse" color-interpolation-filters="sRGB">
<feFlood flood-opacity="0" result="BackgroundImageFix"/>
<feColorMatrix in="SourceAlpha" type="matrix" values="0 0 0 0 0 0 0 0 0 0 0 0 0 0 0 0 0 0 127 0" result="hardAlpha"/>
<feOffset dy="0.56875"/>
<feGaussianBlur stdDeviation="0.896094"/>
<feColorMatrix type="matrix" values="0 0 0 0 0.0470588 0 0 0 0 0.0784314 0 0 0 0 0.129412 0 0 0 0.013 0"/>
<feBlend mode="normal" in2="BackgroundImageFix" result="effect1_dropShadow_5_63"/>
<feColorMatrix in="SourceAlpha" type="matrix" values="0 0 0 0 0 0 0 0 0 0 0 0 0 0 0 0 0 0 127 0" result="hardAlpha"/>
<feOffset dy="1.37109"/>
<feGaussianBlur stdDeviation="1.49854"/>
<feColorMatrix type="matrix" values="0 0 0 0 0.0470588 0 0 0 0 0.0784314 0 0 0 0 0.129412 0 0 0 0.016875 0"/>
<feBlend mode="normal" in2="effect1_dropShadow_5_63" result="effect2_dropShadow_5_63"/>
<feColorMatrix in="SourceAlpha" type="matrix" values="0 0 0 0 0 0 0 0 0 0 0 0 0 0 0 0 0 0 127 0" result="hardAlpha"/>
<feOffset dy="2.6"/>
<feGaussianBlur stdDeviation="2.51875"/>
<feColorMatrix type="matrix" values="0 0 0 0 0.0470588 0 0 0 0 0.0784314 0 0 0 0 0.129412 0 0 0 0.02 0"/>
<feBlend mode="normal" in2="effect2_dropShadow_5_63" result="effect3_dropShadow_5_63"/>
<feColorMatrix in="SourceAlpha" type="matrix" values="0 0 0 0 0 0 0 0 0 0 0 0 0 0 0 0 0 0 127 0" result="hardAlpha"/>
<feOffset dy="4.31641"/>
<feGaussianBlur stdDeviation="4.19287"/>
<feColorMatrix type="matrix" values="0 0 0 0 0.0470588 0 0 0 0 0.0784314 0 0 0 0 0.129412 0 0 0 0.023125 0"/>
<feBlend mode="normal" in2="effect3_dropShadow_5_63" result="effect4_dropShadow_5_63"/>
<feColorMatrix in="SourceAlpha" type="matrix" values="0 0 0 0 0 0 0 0 0 0 0 0 0 0 0 0 0 0 127 0" result="hardAlpha"/>
<feOffset dy="6.58125"/>
<feGaussianBlur stdDeviation="6.75703"/>
<feColorMatrix type="matrix" values="0 0 0 0 0.0470588 0 0 0 0 0.0784314 0 0 0 0 0.129412 0 0 0 0.027 0"/>
<feBlend mode="normal" in2="effect4_dropShadow_5_63" result="effect5_dropShadow_5_63"/>
<feColorMatrix in="SourceAlpha" type="matrix" values="0 0 0 0 0 0 0 0 0 0 0 0 0 0 0 0 0 0 127 0" result="hardAlpha"/>
<feOffset dy="9.45547"/>
<feGaussianBlur stdDeviation="10.4474"/>
<feColorMatrix type="matrix" values="0 0 0 0 0.0470588 0 0 0 0 0.0784314 0 0 0 0 0.129412 0 0 0 0.032375 0"/>
<feBlend mode="normal" in2="effect5_dropShadow_5_63" result="effect6_dropShadow_5_63"/>
<feColorMatrix in="SourceAlpha" type="matrix" values="0 0 0 0 0 0 0 0 0 0 0 0 0 0 0 0 0 0 127 0" result="hardAlpha"/>
<feOffset dy="13"/>
<feGaussianBlur stdDeviation="15.5"/>
<feColorMatrix type="matrix" values="0 0 0 0 0.0468229 0 0 0 0 0.0797604 0 0 0 0 0.129167 0 0 0 0.04 0"/>
<feBlend mode="normal" in2="effect6_dropShadow_5_63" result="effect7_dropShadow_5_63"/>
<feBlend mode="normal" in="SourceGraphic" in2="effect7_dropShadow_5_63" result="shape"/>
<feColorMatrix in="SourceAlpha" type="matrix" values="0 0 0 0 0 0 0 0 0 0 0 0 0 0 0 0 0 0 127 0" result="hardAlpha"/>
<feOffset dy="2"/>
<feGaussianBlur stdDeviation="0.5"/>
<feComposite in2="hardAlpha" operator="arithmetic" k2="-1" k3="1"/>
<feColorMatrix type="matrix" values="0 0 0 0 1 0 0 0 0 1 0 0 0 0 1 0 0 0 1 0"/>
<feBlend mode="normal" in2="shape" result="effect8_innerShadow_5_63"/>
</filter>
<filter id="filter1_d_5_63" x="164" y="39" width="107" height="54" filterUnits="userSpaceOnUse" color-interpolation-filters="sRGB">
<feFlood flood-opacity="0" result="BackgroundImageFix"/>
<feColorMatrix in="SourceAlpha" type="matrix" values="0 0 0 0 0 0 0 0 0 0 0 0 0 0 0 0 0 0 127 0" result="hardAlpha"/>
<feOffset/>
<feGaussianBlur stdDeviation="1.5"/>
<feColorMatrix type="matrix" values="0 0 0 0 1 0 0 0 0 1 0 0 0 0 1 0 0 0 1 0"/>
<feBlend mode="normal" in2="BackgroundImageFix" result="effect1_dropShadow_5_63"/>
<feBlend mode="normal" in="SourceGraphic" in2="effect1_dropShadow_5_63" result="shape"/>
</filter>
</defs>
</svg>
