<svg width="356" height="158" viewBox="0 0 356 158" fill="none" xmlns="http://www.w3.org/2000/svg">
<g filter="url(#filter0_dddddddi_5_30)">
<path d="M31 66C31 49.1984 31 40.7976 34.2698 34.3803C37.146 28.7354 41.7354 24.146 47.3803 21.2698C53.7976 18 62.1984 18 79 18H277C293.802 18 302.202 18 308.62 21.2698C314.265 24.146 318.854 28.7354 321.73 34.3803C325 40.7976 325 49.1984 325 66C325 82.8016 325 91.2024 321.73 97.6197C318.854 103.265 314.265 107.854 308.62 110.73C302.202 114 293.802 114 277 114H79C62.1984 114 53.7976 114 47.3803 110.73C41.7354 107.854 37.146 103.265 34.2698 97.6197C31 91.2024 31 82.8016 31 66Z" fill="#F9F9FA"/>
<path d="M55 66C55 56.6444 55 51.9667 57.1459 48.5516C58.2648 46.7707 59.7707 45.2648 61.5516 44.1459C64.9667 42 69.6444 42 79 42H127C136.356 42 141.033 42 144.448 44.1459C146.229 45.2648 147.735 46.7707 148.854 48.5516C151 51.9667 151 56.6444 151 66C151 75.3556 151 80.0333 148.854 83.4484C147.735 85.2293 146.229 86.7352 144.448 87.8541C141.033 90 136.356 90 127 90H79C69.6444 90 64.9667 90 61.5516 87.8541C59.7707 86.7352 58.2648 85.2293 57.1459 83.4484C55 80.0333 55 75.3556 55 66Z" fill="#F29C98"/>
<g filter="url(#filter1_d_5_30)">
<path d="M177.443 63L182.976 47.499H180.408L176.176 60.293H176.111L171.89 47.499H169.279L174.812 63H177.443ZM184.544 63H186.875V51.334H184.544V63ZM185.715 49.6689C186.467 49.6689 187.079 49.0674 187.079 48.3262C187.079 47.5635 186.467 46.9834 185.715 46.9834C184.963 46.9834 184.351 47.5635 184.351 48.3262C184.351 49.0674 184.963 49.6689 185.715 49.6689ZM189.356 63H191.688V56.2646C191.688 54.4277 192.74 53.2031 194.502 53.2031C196.21 53.2031 197.026 54.1914 197.026 55.9639V63H199.357V55.5234C199.357 52.8379 197.886 51.2051 195.308 51.2051C193.503 51.2051 192.332 51.9248 191.623 53.2998H191.58V51.334H189.356V63ZM202.387 48.7129V51.334H200.775V53.1709H202.387V59.9277C202.387 62.1836 203.289 63.0752 205.62 63.0752C206.125 63.0752 206.673 63.0215 206.931 62.957V61.1201C206.78 61.1416 206.383 61.1738 206.136 61.1738C205.158 61.1738 204.707 60.7012 204.707 59.6914V53.1709H206.941V51.334H204.707V48.7129H202.387ZM212.871 61.2598C211.528 61.2598 210.658 60.6152 210.658 59.6162C210.658 58.585 211.485 57.9941 213.075 57.8975L215.911 57.7041V58.6172C215.911 60.1533 214.601 61.2598 212.871 61.2598ZM212.248 63.1182C213.838 63.1182 215.288 62.3232 215.933 61.0557H215.986V63H218.21V54.9971C218.21 52.6875 216.373 51.1836 213.526 51.1836C210.905 51.1836 208.95 52.709 208.886 54.7715H211.066C211.271 53.7617 212.194 53.1064 213.462 53.1064C215.02 53.1064 215.911 53.8369 215.911 55.1689V56.0713L212.764 56.2539C209.885 56.4365 208.306 57.6182 208.306 59.6592C208.306 61.7432 209.917 63.1182 212.248 63.1182ZM225.504 61.0342C223.624 61.0342 222.41 59.5195 222.41 57.1348C222.41 54.7393 223.624 53.1924 225.504 53.1924C227.395 53.1924 228.651 54.7715 228.651 57.1348C228.651 59.4873 227.395 61.0342 225.504 61.0342ZM225.515 67.2002C228.877 67.2002 230.972 65.4814 230.972 62.6992V51.334H228.716V53.2676H228.673C227.953 51.9785 226.6 51.2158 224.945 51.2158C221.959 51.2158 220.025 53.5254 220.025 57.124C220.025 60.6797 221.98 62.9678 224.892 62.9678C226.546 62.9678 227.921 62.2158 228.598 60.959H228.651V62.8818C228.651 64.4072 227.459 65.374 225.611 65.374C224.183 65.374 223.098 64.8047 222.84 63.9023H220.487C220.713 65.9004 222.711 67.2002 225.515 67.2002ZM238.212 53.085C239.909 53.085 241.059 54.2881 241.112 56.1035H235.193C235.322 54.3096 236.536 53.085 238.212 53.085ZM241.102 59.584C240.779 60.6045 239.716 61.249 238.362 61.249C236.45 61.249 235.183 59.917 235.183 57.8975V57.7578H243.443V56.9414C243.443 53.4072 241.424 51.1836 238.223 51.1836C234.957 51.1836 232.83 53.5576 232.83 57.21C232.83 60.8623 234.936 63.1396 238.319 63.1396C240.94 63.1396 242.992 61.6787 243.325 59.584H241.102ZM253.036 49.5186H256.431C258.289 49.5186 259.428 50.5713 259.428 52.3008C259.428 54.0732 258.354 55.0938 256.495 55.0938H253.036V49.5186ZM253.036 57.0381H256.431L259.589 63H262.371L258.891 56.6621C260.781 56.0283 261.898 54.3311 261.898 52.2363C261.898 49.3467 259.911 47.499 256.721 47.499H250.63V63H253.036V57.0381ZM268.945 63.1396C272.318 63.1396 274.456 60.8408 274.456 57.167C274.456 53.4932 272.308 51.1836 268.945 51.1836C265.583 51.1836 263.424 53.5039 263.424 57.167C263.424 60.8408 265.572 63.1396 268.945 63.1396ZM268.945 61.2061C266.969 61.2061 265.787 59.7129 265.787 57.167C265.787 54.6318 266.969 53.1172 268.945 53.1172C270.922 53.1172 272.093 54.6211 272.093 57.167C272.093 59.7129 270.922 61.2061 268.945 61.2061ZM276.132 54.6533C276.132 56.2646 277.174 57.3389 279.279 57.8545L281.363 58.3701C282.588 58.6816 283.05 59.0684 283.05 59.8096C283.05 60.7549 282.137 61.3564 280.687 61.3564C279.204 61.3564 278.302 60.7441 278.119 59.627H275.82C275.992 61.7324 277.851 63.1396 280.568 63.1396C283.394 63.1396 285.37 61.7002 285.37 59.6162C285.37 57.8975 284.5 57.0488 282.147 56.4795L280.214 56.0176C278.979 55.7168 278.398 55.2334 278.398 54.5244C278.398 53.6006 279.279 52.9883 280.601 52.9883C281.933 52.9883 282.824 53.6328 282.921 54.6641H285.112C285.059 52.6338 283.211 51.1943 280.654 51.1943C277.969 51.1943 276.132 52.6016 276.132 54.6533ZM292.116 53.085C293.813 53.085 294.963 54.2881 295.017 56.1035H289.098C289.227 54.3096 290.44 53.085 292.116 53.085ZM295.006 59.584C294.684 60.6045 293.62 61.249 292.267 61.249C290.354 61.249 289.087 59.917 289.087 57.8975V57.7578H297.348V56.9414C297.348 53.4072 295.328 51.1836 292.127 51.1836C288.861 51.1836 286.734 53.5576 286.734 57.21C286.734 60.8623 288.84 63.1396 292.224 63.1396C294.845 63.1396 296.896 61.6787 297.229 59.584H295.006Z" fill="#3D3D3D"/>
<path d="M178.102 78.9766L178.336 77.8281H176.695L177.32 74.7266H176.203L175.578 77.8281H173.273L173.891 74.7266H172.773L172.156 77.8281H170.516L170.289 78.9766H171.93L171.414 81.625H169.773L169.531 82.7891H171.172L170.531 86H171.648L172.281 82.7891H174.594L173.953 86H175.07L175.711 82.7891H177.352L177.578 81.625H175.938L176.461 78.9766H178.102ZM173.023 78.9531H175.367L174.836 81.6562H172.5L173.023 78.9531ZM182.258 86V81.0859H187.07V79.8594H182.258V75.9922H187.523V74.7266H180.875V86H182.258ZM190.133 77.8984V77.9453H191.461V77.8984C191.461 76.5703 192.32 75.7031 193.617 75.7031C194.93 75.7031 195.781 76.5 195.781 77.7109C195.781 78.6016 195.438 79.2031 194.008 80.8047L190.195 85.0469V86H197.328V84.75H192.164V84.6172L194.82 81.7266C196.617 79.7656 197.148 78.8281 197.148 77.6562C197.148 75.7734 195.727 74.4922 193.656 74.4922C191.602 74.4922 190.133 75.9141 190.133 77.8984ZM199.766 78.3438C199.766 80.4062 201.242 81.9219 203.258 81.9219C203.969 81.9219 204.766 81.5859 205.102 81.1328L205.219 81.1953C205.148 81.3203 205.094 81.4219 204.836 81.7734L201.766 86H203.344C203.43 85.8828 205.766 82.6016 205.867 82.4297C206.977 80.8203 207.43 79.625 207.43 78.3438C207.43 76.0938 205.828 74.4922 203.602 74.4922C201.375 74.4922 199.766 76.1094 199.766 78.3438ZM203.594 75.7188C205.016 75.7188 206.094 76.8281 206.094 78.2734C206.094 79.7266 205.016 80.8359 203.594 80.8359C202.18 80.8359 201.102 79.7266 201.102 78.2734C201.102 76.8281 202.18 75.7188 203.594 75.7188ZM213.766 84.9297C211.938 84.9297 210.984 83.7031 210.984 81.3672V79.3594C210.984 77.0234 211.938 75.7969 213.758 75.7969C215.203 75.7969 216.211 76.8203 216.258 78.3438H217.656C217.609 75.9375 216.141 74.4922 213.766 74.4922C211.117 74.4922 209.578 76.2812 209.578 79.3594V81.3672C209.578 84.4453 211.117 86.2344 213.766 86.2344C216.07 86.2344 217.648 84.7578 217.648 82.5781H216.258C216.219 84.0312 215.266 84.9297 213.766 84.9297ZM219.547 78.3438C219.547 80.4062 221.023 81.9219 223.039 81.9219C223.75 81.9219 224.547 81.5859 224.883 81.1328L225 81.1953C224.93 81.3203 224.875 81.4219 224.617 81.7734L221.547 86H223.125C223.211 85.8828 225.547 82.6016 225.648 82.4297C226.758 80.8203 227.211 79.625 227.211 78.3438C227.211 76.0938 225.609 74.4922 223.383 74.4922C221.156 74.4922 219.547 76.1094 219.547 78.3438ZM223.375 75.7188C224.797 75.7188 225.875 76.8281 225.875 78.2734C225.875 79.7266 224.797 80.8359 223.375 80.8359C221.961 80.8359 220.883 79.7266 220.883 78.2734C220.883 76.8281 221.961 75.7188 223.375 75.7188ZM233.328 86.25C235.672 86.25 237.297 84.9062 237.297 82.9844C237.297 81.5625 236.367 80.3984 235 80.1094V79.9844C236.148 79.6641 236.844 78.7031 236.844 77.4766C236.844 75.7188 235.383 74.4766 233.328 74.4766C231.273 74.4766 229.805 75.7188 229.805 77.4766C229.805 78.7031 230.516 79.6719 231.648 79.9844V80.1094C230.258 80.4453 229.352 81.5859 229.352 82.9844C229.352 84.9062 230.984 86.25 233.328 86.25ZM233.328 79.5156C232.023 79.5156 231.156 78.75 231.156 77.5938C231.156 76.4453 232.023 75.6797 233.328 75.6797C234.633 75.6797 235.492 76.4453 235.492 77.5938C235.492 78.75 234.633 79.5156 233.328 79.5156ZM233.328 85.0547C231.797 85.0547 230.742 84.1641 230.742 82.875C230.742 81.5859 231.797 80.6953 233.328 80.6953C234.859 80.6953 235.914 81.5859 235.914 82.875C235.914 84.1641 234.859 85.0547 233.328 85.0547Z" fill="#727272"/>
</g>
</g>
<defs>
<filter id="filter0_dddddddi_5_30" x="0" y="0" width="356" height="158" filterUnits="userSpaceOnUse" color-interpolation-filters="sRGB">
<feFlood flood-opacity="0" result="BackgroundImageFix"/>
<feColorMatrix in="SourceAlpha" type="matrix" values="0 0 0 0 0 0 0 0 0 0 0 0 0 0 0 0 0 0 127 0" result="hardAlpha"/>
<feOffset dy="0.56875"/>
<feGaussianBlur stdDeviation="0.896094"/>
<feColorMatrix type="matrix" values="0 0 0 0 0.0470588 0 0 0 0 0.0784314 0 0 0 0 0.129412 0 0 0 0.013 0"/>
<feBlend mode="normal" in2="BackgroundImageFix" result="effect1_dropShadow_5_30"/>
<feColorMatrix in="SourceAlpha" type="matrix" values="0 0 0 0 0 0 0 0 0 0 0 0 0 0 0 0 0 0 127 0" result="hardAlpha"/>
<feOffset dy="1.37109"/>
<feGaussianBlur stdDeviation="1.49854"/>
<feColorMatrix type="matrix" values="0 0 0 0 0.0470588 0 0 0 0 0.0784314 0 0 0 0 0.129412 0 0 0 0.016875 0"/>
<feBlend mode="normal" in2="effect1_dropShadow_5_30" result="effect2_dropShadow_5_30"/>
<feColorMatrix in="SourceAlpha" type="matrix" values="0 0 0 0 0 0 0 0 0 0 0 0 0 0 0 0 0 0 127 0" result="hardAlpha"/>
<feOffset dy="2.6"/>
<feGaussianBlur stdDeviation="2.51875"/>
<feColorMatrix type="matrix" values="0 0 0 0 0.0470588 0 0 0 0 0.0784314 0 0 0 0 0.129412 0 0 0 0.02 0"/>
<feBlend mode="normal" in2="effect2_dropShadow_5_30" result="effect3_dropShadow_5_30"/>
<feColorMatrix in="SourceAlpha" type="matrix" values="0 0 0 0 0 0 0 0 0 0 0 0 0 0 0 0 0 0 127 0" result="hardAlpha"/>
<feOffset dy="4.31641"/>
<feGaussianBlur stdDeviation="4.19287"/>
<feColorMatrix type="matrix" values="0 0 0 0 0.0470588 0 0 0 0 0.0784314 0 0 0 0 0.129412 0 0 0 0.023125 0"/>
<feBlend mode="normal" in2="effect3_dropShadow_5_30" result="effect4_dropShadow_5_30"/>
<feColorMatrix in="SourceAlpha" type="matrix" values="0 0 0 0 0 0 0 0 0 0 0 0 0 0 0 0 0 0 127 0" result="hardAlpha"/>
<feOffset dy="6.58125"/>
<feGaussianBlur stdDeviation="6.75703"/>
<feColorMatrix type="matrix" values="0 0 0 0 0.0470588 0 0 0 0 0.0784314 0 0 0 0 0.129412 0 0 0 0.027 0"/>
<feBlend mode="normal" in2="effect4_dropShadow_5_30" result="effect5_dropShadow_5_30"/>
<feColorMatrix in="SourceAlpha" type="matrix" values="0 0 0 0 0 0 0 0 0 0 0 0 0 0 0 0 0 0 127 0" result="hardAlpha"/>
<feOffset dy="9.45547"/>
<feGaussianBlur stdDeviation="10.4474"/>
<feColorMatrix type="matrix" values="0 0 0 0 0.0470588 0 0 0 0 0.0784314 0 0 0 0 0.129412 0 0 0 0.032375 0"/>
<feBlend mode="normal" in2="effect5_dropShadow_5_30" result="effect6_dropShadow_5_30"/>
<feColorMatrix in="SourceAlpha" type="matrix" values="0 0 0 0 0 0 0 0 0 0 0 0 0 0 0 0 0 0 127 0" result="hardAlpha"/>
<feOffset dy="13"/>
<feGaussianBlur stdDeviation="15.5"/>
<feColorMatrix type="matrix" values="0 0 0 0 0.0468229 0 0 0 0 0.0797604 0 0 0 0 0.129167 0 0 0 0.04 0"/>
<feBlend mode="normal" in2="effect6_dropShadow_5_30" result="effect7_dropShadow_5_30"/>
<feBlend mode="normal" in="SourceGraphic" in2="effect7_dropShadow_5_30" result="shape"/>
<feColorMatrix in="SourceAlpha" type="matrix" values="0 0 0 0 0 0 0 0 0 0 0 0 0 0 0 0 0 0 127 0" result="hardAlpha"/>
<feOffset dy="2"/>
<feGaussianBlur stdDeviation="0.5"/>
<feComposite in2="hardAlpha" operator="arithmetic" k2="-1" k3="1"/>
<feColorMatrix type="matrix" values="0 0 0 0 1 0 0 0 0 1 0 0 0 0 1 0 0 0 1 0"/>
<feBlend mode="normal" in2="shape" result="effect8_innerShadow_5_30"/>
</filter>
<filter id="filter1_d_5_30" x="164" y="39" width="140" height="54" filterUnits="userSpaceOnUse" color-interpolation-filters="sRGB">
<feFlood flood-opacity="0" result="BackgroundImageFix"/>
<feColorMatrix in="SourceAlpha" type="matrix" values="0 0 0 0 0 0 0 0 0 0 0 0 0 0 0 0 0 0 127 0" result="hardAlpha"/>
<feOffset/>
<feGaussianBlur stdDeviation="1.5"/>
<feColorMatrix type="matrix" values="0 0 0 0 1 0 0 0 0 1 0 0 0 0 1 0 0 0 1 0"/>
<feBlend mode="normal" in2="BackgroundImageFix" result="effect1_dropShadow_5_30"/>
<feBlend mode="normal" in="SourceGraphic" in2="effect1_dropShadow_5_30" result="shape"/>
</filter>
</defs>
</svg>
