<svg width="340" height="158" viewBox="0 0 340 158" fill="none" xmlns="http://www.w3.org/2000/svg">
<g filter="url(#filter0_dddddddi_7_4)">
<path d="M31 66C31 49.1984 31 40.7976 34.2698 34.3803C37.146 28.7354 41.7354 24.146 47.3803 21.2698C53.7976 18 62.1984 18 79 18H261C277.802 18 286.202 18 292.62 21.2698C298.265 24.146 302.854 28.7354 305.73 34.3803C309 40.7976 309 49.1984 309 66C309 82.8016 309 91.2024 305.73 97.6197C302.854 103.265 298.265 107.854 292.62 110.73C286.202 114 277.802 114 261 114H79C62.1984 114 53.7976 114 47.3803 110.73C41.7354 107.854 37.146 103.265 34.2698 97.6197C31 91.2024 31 82.8016 31 66Z" fill="#F9F9FA"/>
<path d="M55 66C55 56.6444 55 51.9667 57.1459 48.5516C58.2648 46.7707 59.7707 45.2648 61.5516 44.1459C64.9667 42 69.6444 42 79 42H127C136.356 42 141.033 42 144.448 44.1459C146.229 45.2648 147.735 46.7707 148.854 48.5516C151 51.9667 151 56.6444 151 66C151 75.3556 151 80.0333 148.854 83.4484C147.735 85.2293 146.229 86.7352 144.448 87.8541C141.033 90 136.356 90 127 90H79C69.6444 90 64.9667 90 61.5516 87.8541C59.7707 86.7352 58.2648 85.2293 57.1459 83.4484C55 80.0333 55 75.3556 55 66Z" fill="#CC996D"/>
<g filter="url(#filter1_d_7_4)">
<path d="M177.143 63V56.6514L182.61 47.499H179.946L175.993 54.3418H175.918L171.965 47.499H169.279L174.736 56.6514V63H177.143ZM186.864 53.085C188.562 53.085 189.711 54.2881 189.765 56.1035H183.846C183.975 54.3096 185.188 53.085 186.864 53.085ZM189.754 59.584C189.432 60.6045 188.368 61.249 187.015 61.249C185.103 61.249 183.835 59.917 183.835 57.8975V57.7578H192.096V56.9414C192.096 53.4072 190.076 51.1836 186.875 51.1836C183.609 51.1836 181.482 53.5576 181.482 57.21C181.482 60.8623 183.588 63.1396 186.972 63.1396C189.593 63.1396 191.645 61.6787 191.978 59.584H189.754ZM194.072 63H196.403V46.8008H194.072V63ZM198.992 63H201.323V46.8008H198.992V63ZM208.811 63.1396C212.184 63.1396 214.321 60.8408 214.321 57.167C214.321 53.4932 212.173 51.1836 208.811 51.1836C205.448 51.1836 203.289 53.5039 203.289 57.167C203.289 60.8408 205.438 63.1396 208.811 63.1396ZM208.811 61.2061C206.834 61.2061 205.652 59.7129 205.652 57.167C205.652 54.6318 206.834 53.1172 208.811 53.1172C210.787 53.1172 211.958 54.6211 211.958 57.167C211.958 59.7129 210.787 61.2061 208.811 61.2061ZM231.466 51.334H229.167L226.997 60.5723H226.954L224.473 51.334H222.238L219.768 60.5723H219.725L217.555 51.334H215.234L218.457 63H220.853L223.312 54.2129H223.366L225.848 63H228.254L231.466 51.334ZM251.607 56.5547V54.9756H245.227V56.9199H249.233V57.1885C249.201 59.541 247.461 61.1523 244.947 61.1523C241.993 61.1523 240.156 58.8643 240.156 55.1582C240.156 51.5166 241.939 49.3467 244.904 49.3467C246.924 49.3467 248.438 50.4531 249.019 52.376H251.489C250.952 49.2822 248.342 47.2412 244.894 47.2412C240.479 47.2412 237.696 50.292 237.696 55.1797C237.696 60.1533 240.489 63.2578 244.926 63.2578C249.126 63.2578 251.607 60.7549 251.607 56.5547ZM258.719 63.1396C262.092 63.1396 264.229 60.8408 264.229 57.167C264.229 53.4932 262.081 51.1836 258.719 51.1836C255.356 51.1836 253.197 53.5039 253.197 57.167C253.197 60.8408 255.346 63.1396 258.719 63.1396ZM258.719 61.2061C256.742 61.2061 255.561 59.7129 255.561 57.167C255.561 54.6318 256.742 53.1172 258.719 53.1172C260.695 53.1172 261.866 54.6211 261.866 57.167C261.866 59.7129 260.695 61.2061 258.719 61.2061ZM266.195 63H268.526V46.8008H266.195V63ZM275.412 63.1182C277.12 63.1182 278.452 62.3447 279.14 61.0234H279.183V63H281.438V46.8008H279.118V53.2676H279.064C278.398 51.9785 277.066 51.2158 275.391 51.2158C272.49 51.2158 270.492 53.5684 270.492 57.1562C270.492 60.7656 272.49 63.1182 275.412 63.1182ZM276.003 53.1924C277.872 53.1924 279.129 54.793 279.129 57.167C279.129 59.5518 277.872 61.1416 276.003 61.1416C274.112 61.1416 272.877 59.584 272.877 57.167C272.877 54.7607 274.123 53.1924 276.003 53.1924Z" fill="#3D3D3D"/>
<path d="M178.102 78.9766L178.336 77.8281H176.695L177.32 74.7266H176.203L175.578 77.8281H173.273L173.891 74.7266H172.773L172.156 77.8281H170.516L170.289 78.9766H171.93L171.414 81.625H169.773L169.531 82.7891H171.172L170.531 86H171.648L172.281 82.7891H174.594L173.953 86H175.07L175.711 82.7891H177.352L177.578 81.625H175.938L176.461 78.9766H178.102ZM173.023 78.9531H175.367L174.836 81.6562H172.5L173.023 78.9531ZM184.094 84.9297C182.266 84.9297 181.312 83.7031 181.312 81.3672V79.3594C181.312 77.0234 182.266 75.7969 184.086 75.7969C185.531 75.7969 186.539 76.8203 186.586 78.3438H187.984C187.938 75.9375 186.469 74.4922 184.094 74.4922C181.445 74.4922 179.906 76.2812 179.906 79.3594V81.3672C179.906 84.4453 181.445 86.2344 184.094 86.2344C186.398 86.2344 187.977 84.7578 187.977 82.5781H186.586C186.547 84.0312 185.594 84.9297 184.094 84.9297ZM193.984 84.9297C192.156 84.9297 191.203 83.7031 191.203 81.3672V79.3594C191.203 77.0234 192.156 75.7969 193.977 75.7969C195.422 75.7969 196.43 76.8203 196.477 78.3438H197.875C197.828 75.9375 196.359 74.4922 193.984 74.4922C191.336 74.4922 189.797 76.2812 189.797 79.3594V81.3672C189.797 84.4453 191.336 86.2344 193.984 86.2344C196.289 86.2344 197.867 84.7578 197.867 82.5781H196.477C196.438 84.0312 195.484 84.9297 193.984 84.9297ZM199.766 78.3438C199.766 80.4062 201.242 81.9219 203.258 81.9219C203.969 81.9219 204.766 81.5859 205.102 81.1328L205.219 81.1953C205.148 81.3203 205.094 81.4219 204.836 81.7734L201.766 86H203.344C203.43 85.8828 205.766 82.6016 205.867 82.4297C206.977 80.8203 207.43 79.625 207.43 78.3438C207.43 76.0938 205.828 74.4922 203.602 74.4922C201.375 74.4922 199.766 76.1094 199.766 78.3438ZM203.594 75.7188C205.016 75.7188 206.094 76.8281 206.094 78.2734C206.094 79.7266 205.016 80.8359 203.594 80.8359C202.18 80.8359 201.102 79.7266 201.102 78.2734C201.102 76.8281 202.18 75.7188 203.594 75.7188ZM209.656 78.3438C209.656 80.4062 211.133 81.9219 213.148 81.9219C213.859 81.9219 214.656 81.5859 214.992 81.1328L215.109 81.1953C215.039 81.3203 214.984 81.4219 214.727 81.7734L211.656 86H213.234C213.32 85.8828 215.656 82.6016 215.758 82.4297C216.867 80.8203 217.32 79.625 217.32 78.3438C217.32 76.0938 215.719 74.4922 213.492 74.4922C211.266 74.4922 209.656 76.1094 209.656 78.3438ZM213.484 75.7188C214.906 75.7188 215.984 76.8281 215.984 78.2734C215.984 79.7266 214.906 80.8359 213.484 80.8359C212.07 80.8359 210.992 79.7266 210.992 78.2734C210.992 76.8281 212.07 75.7188 213.484 75.7188ZM227.266 82.3828C227.266 80.3281 225.781 78.8047 223.773 78.8047C223.055 78.8047 222.242 79.1406 221.906 79.5938L221.789 79.5312C221.844 79.4062 221.812 79.4375 222.156 78.9531L225.234 74.7266H223.648C223.57 74.8438 221.227 78.125 221.125 78.2969C220.047 79.8672 219.602 81.0625 219.602 82.3828C219.602 84.625 221.203 86.2344 223.422 86.2344C225.656 86.2344 227.266 84.6172 227.266 82.3828ZM223.43 85.0078C222.016 85.0078 220.938 83.8984 220.938 82.4531C220.938 81 222.016 79.8906 223.43 79.8906C224.852 79.8906 225.93 81 225.93 82.4531C225.93 83.8984 224.852 85.0078 223.43 85.0078ZM229.594 74.7266V86H232.75C235.945 86 237.555 84.1094 237.555 80.3438C237.555 76.6094 235.945 74.7266 232.75 74.7266H229.594ZM230.977 75.9922H232.625C235.008 75.9922 236.148 77.3984 236.148 80.3516C236.148 83.3359 235.016 84.7344 232.625 84.7344H230.977V75.9922Z" fill="#727272"/>
</g>
</g>
<defs>
<filter id="filter0_dddddddi_7_4" x="0" y="0" width="340" height="158" filterUnits="userSpaceOnUse" color-interpolation-filters="sRGB">
<feFlood flood-opacity="0" result="BackgroundImageFix"/>
<feColorMatrix in="SourceAlpha" type="matrix" values="0 0 0 0 0 0 0 0 0 0 0 0 0 0 0 0 0 0 127 0" result="hardAlpha"/>
<feOffset dy="0.56875"/>
<feGaussianBlur stdDeviation="0.896094"/>
<feColorMatrix type="matrix" values="0 0 0 0 0.0470588 0 0 0 0 0.0784314 0 0 0 0 0.129412 0 0 0 0.013 0"/>
<feBlend mode="normal" in2="BackgroundImageFix" result="effect1_dropShadow_7_4"/>
<feColorMatrix in="SourceAlpha" type="matrix" values="0 0 0 0 0 0 0 0 0 0 0 0 0 0 0 0 0 0 127 0" result="hardAlpha"/>
<feOffset dy="1.37109"/>
<feGaussianBlur stdDeviation="1.49854"/>
<feColorMatrix type="matrix" values="0 0 0 0 0.0470588 0 0 0 0 0.0784314 0 0 0 0 0.129412 0 0 0 0.016875 0"/>
<feBlend mode="normal" in2="effect1_dropShadow_7_4" result="effect2_dropShadow_7_4"/>
<feColorMatrix in="SourceAlpha" type="matrix" values="0 0 0 0 0 0 0 0 0 0 0 0 0 0 0 0 0 0 127 0" result="hardAlpha"/>
<feOffset dy="2.6"/>
<feGaussianBlur stdDeviation="2.51875"/>
<feColorMatrix type="matrix" values="0 0 0 0 0.0470588 0 0 0 0 0.0784314 0 0 0 0 0.129412 0 0 0 0.02 0"/>
<feBlend mode="normal" in2="effect2_dropShadow_7_4" result="effect3_dropShadow_7_4"/>
<feColorMatrix in="SourceAlpha" type="matrix" values="0 0 0 0 0 0 0 0 0 0 0 0 0 0 0 0 0 0 127 0" result="hardAlpha"/>
<feOffset dy="4.31641"/>
<feGaussianBlur stdDeviation="4.19287"/>
<feColorMatrix type="matrix" values="0 0 0 0 0.0470588 0 0 0 0 0.0784314 0 0 0 0 0.129412 0 0 0 0.023125 0"/>
<feBlend mode="normal" in2="effect3_dropShadow_7_4" result="effect4_dropShadow_7_4"/>
<feColorMatrix in="SourceAlpha" type="matrix" values="0 0 0 0 0 0 0 0 0 0 0 0 0 0 0 0 0 0 127 0" result="hardAlpha"/>
<feOffset dy="6.58125"/>
<feGaussianBlur stdDeviation="6.75703"/>
<feColorMatrix type="matrix" values="0 0 0 0 0.0470588 0 0 0 0 0.0784314 0 0 0 0 0.129412 0 0 0 0.027 0"/>
<feBlend mode="normal" in2="effect4_dropShadow_7_4" result="effect5_dropShadow_7_4"/>
<feColorMatrix in="SourceAlpha" type="matrix" values="0 0 0 0 0 0 0 0 0 0 0 0 0 0 0 0 0 0 127 0" result="hardAlpha"/>
<feOffset dy="9.45547"/>
<feGaussianBlur stdDeviation="10.4474"/>
<feColorMatrix type="matrix" values="0 0 0 0 0.0470588 0 0 0 0 0.0784314 0 0 0 0 0.129412 0 0 0 0.032375 0"/>
<feBlend mode="normal" in2="effect5_dropShadow_7_4" result="effect6_dropShadow_7_4"/>
<feColorMatrix in="SourceAlpha" type="matrix" values="0 0 0 0 0 0 0 0 0 0 0 0 0 0 0 0 0 0 127 0" result="hardAlpha"/>
<feOffset dy="13"/>
<feGaussianBlur stdDeviation="15.5"/>
<feColorMatrix type="matrix" values="0 0 0 0 0.0468229 0 0 0 0 0.0797604 0 0 0 0 0.129167 0 0 0 0.04 0"/>
<feBlend mode="normal" in2="effect6_dropShadow_7_4" result="effect7_dropShadow_7_4"/>
<feBlend mode="normal" in="SourceGraphic" in2="effect7_dropShadow_7_4" result="shape"/>
<feColorMatrix in="SourceAlpha" type="matrix" values="0 0 0 0 0 0 0 0 0 0 0 0 0 0 0 0 0 0 127 0" result="hardAlpha"/>
<feOffset dy="2"/>
<feGaussianBlur stdDeviation="0.5"/>
<feComposite in2="hardAlpha" operator="arithmetic" k2="-1" k3="1"/>
<feColorMatrix type="matrix" values="0 0 0 0 1 0 0 0 0 1 0 0 0 0 1 0 0 0 1 0"/>
<feBlend mode="normal" in2="shape" result="effect8_innerShadow_7_4"/>
</filter>
<filter id="filter1_d_7_4" x="164" y="39" width="124" height="54" filterUnits="userSpaceOnUse" color-interpolation-filters="sRGB">
<feFlood flood-opacity="0" result="BackgroundImageFix"/>
<feColorMatrix in="SourceAlpha" type="matrix" values="0 0 0 0 0 0 0 0 0 0 0 0 0 0 0 0 0 0 127 0" result="hardAlpha"/>
<feOffset/>
<feGaussianBlur stdDeviation="1.5"/>
<feColorMatrix type="matrix" values="0 0 0 0 1 0 0 0 0 1 0 0 0 0 1 0 0 0 1 0"/>
<feBlend mode="normal" in2="BackgroundImageFix" result="effect1_dropShadow_7_4"/>
<feBlend mode="normal" in="SourceGraphic" in2="effect1_dropShadow_7_4" result="shape"/>
</filter>
</defs>
</svg>
