<svg width="321" height="158" viewBox="0 0 321 158" fill="none" xmlns="http://www.w3.org/2000/svg">
<g filter="url(#filter0_dddddddi_5_21)">
<path d="M31 66C31 49.1984 31 40.7976 34.2698 34.3803C37.146 28.7354 41.7354 24.146 47.3803 21.2698C53.7976 18 62.1984 18 79 18H242C258.802 18 267.202 18 273.62 21.2698C279.265 24.146 283.854 28.7354 286.73 34.3803C290 40.7976 290 49.1984 290 66C290 82.8016 290 91.2024 286.73 97.6197C283.854 103.265 279.265 107.854 273.62 110.73C267.202 114 258.802 114 242 114H79C62.1984 114 53.7976 114 47.3803 110.73C41.7354 107.854 37.146 103.265 34.2698 97.6197C31 91.2024 31 82.8016 31 66Z" fill="#F9F9FA"/>
<path d="M55 66C55 56.6444 55 51.9667 57.1459 48.5516C58.2648 46.7707 59.7707 45.2648 61.5516 44.1459C64.9667 42 69.6444 42 79 42H127C136.356 42 141.033 42 144.448 44.1459C146.229 45.2648 147.735 46.7707 148.854 48.5516C151 51.9667 151 56.6444 151 66C151 75.3556 151 80.0333 148.854 83.4484C147.735 85.2293 146.229 86.7352 144.448 87.8541C141.033 90 136.356 90 127 90H79C69.6444 90 64.9667 90 61.5516 87.8541C59.7707 86.7352 58.2648 85.2293 57.1459 83.4484C55 80.0333 55 75.3556 55 66Z" fill="#4662B2"/>
<g filter="url(#filter1_d_5_21)">
<path d="M170.429 47.499V63H175.982C180.602 63 183.319 60.1211 183.319 55.2227C183.319 50.335 180.602 47.499 175.982 47.499H170.429ZM172.835 49.5723H175.757C179.044 49.5723 180.87 51.5918 180.87 55.2441C180.87 58.9072 179.044 60.916 175.757 60.916H172.835V49.5723ZM190.237 53.085C191.935 53.085 193.084 54.2881 193.138 56.1035H187.219C187.348 54.3096 188.562 53.085 190.237 53.085ZM193.127 59.584C192.805 60.6045 191.741 61.249 190.388 61.249C188.476 61.249 187.208 59.917 187.208 57.8975V57.7578H195.469V56.9414C195.469 53.4072 193.449 51.1836 190.248 51.1836C186.982 51.1836 184.855 53.5576 184.855 57.21C184.855 60.8623 186.961 63.1396 190.345 63.1396C192.966 63.1396 195.018 61.6787 195.351 59.584H193.127ZM197.445 63H199.776V46.8008H197.445V63ZM202.967 63H205.287V53.1709H207.511V51.334H205.266V50.335C205.276 49.3359 205.674 48.917 206.63 48.917C206.941 48.917 207.264 48.9492 207.5 49.0029V47.2305C207.124 47.166 206.737 47.123 206.318 47.123C203.955 47.123 202.967 48.0791 202.967 50.2598V51.334H201.355V53.1709H202.967V63ZM210.143 48.7129V51.334H208.531V53.1709H210.143V59.9277C210.143 62.1836 211.045 63.0752 213.376 63.0752C213.881 63.0752 214.429 63.0215 214.687 62.957V61.1201C214.536 61.1416 214.139 61.1738 213.892 61.1738C212.914 61.1738 212.463 60.7012 212.463 59.6914V53.1709H214.697V51.334H212.463V48.7129H210.143ZM228.34 63C231.648 63 233.636 61.3457 233.636 58.6172C233.636 56.5547 232.207 55.0615 230.112 54.8252V54.7393C231.659 54.4814 232.862 53.0098 232.862 51.3662C232.862 49.0244 231.058 47.499 228.318 47.499H221.97V63H228.34ZM224.376 49.4648H227.728C229.479 49.4648 230.467 50.2598 230.467 51.6992C230.467 53.2354 229.317 54.0947 227.223 54.0947H224.376V49.4648ZM224.376 61.0342V55.9316H227.717C229.983 55.9316 231.176 56.791 231.176 58.4668C231.176 60.1426 230.026 61.0342 227.856 61.0342H224.376ZM235.58 63H237.911V46.8008H235.58V63ZM250.351 51.334H248.02V58.0586C248.02 59.9062 246.956 61.1201 245.216 61.1201C243.529 61.1201 242.681 60.1641 242.681 58.3701V51.334H240.35V58.8105C240.35 61.4854 241.896 63.1289 244.442 63.1289C246.226 63.1289 247.407 62.3877 248.084 61.002H248.127V63H250.351V51.334ZM257.591 53.085C259.288 53.085 260.438 54.2881 260.491 56.1035H254.572C254.701 54.3096 255.915 53.085 257.591 53.085ZM260.48 59.584C260.158 60.6045 259.095 61.249 257.741 61.249C255.829 61.249 254.562 59.917 254.562 57.8975V57.7578H262.822V56.9414C262.822 53.4072 260.803 51.1836 257.602 51.1836C254.336 51.1836 252.209 53.5576 252.209 57.21C252.209 60.8623 254.314 63.1396 257.698 63.1396C260.319 63.1396 262.371 61.6787 262.704 59.584H260.48Z" fill="#3D3D3D"/>
<path d="M178.102 78.9766L178.336 77.8281H176.695L177.32 74.7266H176.203L175.578 77.8281H173.273L173.891 74.7266H172.773L172.156 77.8281H170.516L170.289 78.9766H171.93L171.414 81.625H169.773L169.531 82.7891H171.172L170.531 86H171.648L172.281 82.7891H174.594L173.953 86H175.07L175.711 82.7891H177.352L177.578 81.625H175.938L176.461 78.9766H178.102ZM173.023 78.9531H175.367L174.836 81.6562H172.5L173.023 78.9531ZM185.156 86H186.414V83.6172H188.141V82.4062H186.422V79.2031H185.172V82.4219H181.477V82.3203L185.25 74.7266H183.844L180.016 82.5V83.6172H185.156V86ZM197.594 82.3828C197.594 80.3281 196.109 78.8047 194.102 78.8047C193.383 78.8047 192.57 79.1406 192.234 79.5938L192.117 79.5312C192.172 79.4062 192.141 79.4375 192.484 78.9531L195.562 74.7266H193.977C193.898 74.8438 191.555 78.125 191.453 78.2969C190.375 79.8672 189.93 81.0625 189.93 82.3828C189.93 84.625 191.531 86.2344 193.75 86.2344C195.984 86.2344 197.594 84.6172 197.594 82.3828ZM193.758 85.0078C192.344 85.0078 191.266 83.8984 191.266 82.4531C191.266 81 192.344 79.8906 193.758 79.8906C195.18 79.8906 196.258 81 196.258 82.4531C196.258 83.8984 195.18 85.0078 193.758 85.0078ZM207.484 82.3828C207.484 80.3281 206 78.8047 203.992 78.8047C203.273 78.8047 202.461 79.1406 202.125 79.5938L202.008 79.5312C202.062 79.4062 202.031 79.4375 202.375 78.9531L205.453 74.7266H203.867C203.789 74.8438 201.445 78.125 201.344 78.2969C200.266 79.8672 199.82 81.0625 199.82 82.3828C199.82 84.625 201.422 86.2344 203.641 86.2344C205.875 86.2344 207.484 84.6172 207.484 82.3828ZM203.648 85.0078C202.234 85.0078 201.156 83.8984 201.156 82.4531C201.156 81 202.234 79.8906 203.648 79.8906C205.07 79.8906 206.148 81 206.148 82.4531C206.148 83.8984 205.07 85.0078 203.648 85.0078ZM209.914 77.8984V77.9453H211.242V77.8984C211.242 76.5703 212.102 75.7031 213.398 75.7031C214.711 75.7031 215.562 76.5 215.562 77.7109C215.562 78.6016 215.219 79.2031 213.789 80.8047L209.977 85.0469V86H217.109V84.75H211.945V84.6172L214.602 81.7266C216.398 79.7656 216.93 78.8281 216.93 77.6562C216.93 75.7734 215.508 74.4922 213.438 74.4922C211.383 74.4922 209.914 75.9141 209.914 77.8984ZM223.609 86C226.031 86 227.469 84.8281 227.469 82.8516C227.469 81.3438 226.477 80.2422 224.961 80.0938V79.9766C226.094 79.7812 226.898 78.7578 226.898 77.5156C226.898 75.7656 225.648 74.7266 223.57 74.7266H219.922V86H223.609ZM221.289 75.9141H223.258C224.695 75.9141 225.508 76.5781 225.508 77.7578C225.508 78.9453 224.648 79.5938 223.047 79.5938H221.289V75.9141ZM221.289 84.8047V80.7422H223.266C225.094 80.7422 226.039 81.4297 226.039 82.7578C226.039 84.1016 225.102 84.8047 223.312 84.8047H221.289ZM229.695 77.8984V77.9453H231.023V77.8984C231.023 76.5703 231.883 75.7031 233.18 75.7031C234.492 75.7031 235.344 76.5 235.344 77.7109C235.344 78.6016 235 79.2031 233.57 80.8047L229.758 85.0469V86H236.891V84.75H231.727V84.6172L234.383 81.7266C236.18 79.7656 236.711 78.8281 236.711 77.6562C236.711 75.7734 235.289 74.4922 233.219 74.4922C231.164 74.4922 229.695 75.9141 229.695 77.8984Z" fill="#727272"/>
</g>
</g>
<defs>
<filter id="filter0_dddddddi_5_21" x="0" y="0" width="321" height="158" filterUnits="userSpaceOnUse" color-interpolation-filters="sRGB">
<feFlood flood-opacity="0" result="BackgroundImageFix"/>
<feColorMatrix in="SourceAlpha" type="matrix" values="0 0 0 0 0 0 0 0 0 0 0 0 0 0 0 0 0 0 127 0" result="hardAlpha"/>
<feOffset dy="0.56875"/>
<feGaussianBlur stdDeviation="0.896094"/>
<feColorMatrix type="matrix" values="0 0 0 0 0.0470588 0 0 0 0 0.0784314 0 0 0 0 0.129412 0 0 0 0.013 0"/>
<feBlend mode="normal" in2="BackgroundImageFix" result="effect1_dropShadow_5_21"/>
<feColorMatrix in="SourceAlpha" type="matrix" values="0 0 0 0 0 0 0 0 0 0 0 0 0 0 0 0 0 0 127 0" result="hardAlpha"/>
<feOffset dy="1.37109"/>
<feGaussianBlur stdDeviation="1.49854"/>
<feColorMatrix type="matrix" values="0 0 0 0 0.0470588 0 0 0 0 0.0784314 0 0 0 0 0.129412 0 0 0 0.016875 0"/>
<feBlend mode="normal" in2="effect1_dropShadow_5_21" result="effect2_dropShadow_5_21"/>
<feColorMatrix in="SourceAlpha" type="matrix" values="0 0 0 0 0 0 0 0 0 0 0 0 0 0 0 0 0 0 127 0" result="hardAlpha"/>
<feOffset dy="2.6"/>
<feGaussianBlur stdDeviation="2.51875"/>
<feColorMatrix type="matrix" values="0 0 0 0 0.0470588 0 0 0 0 0.0784314 0 0 0 0 0.129412 0 0 0 0.02 0"/>
<feBlend mode="normal" in2="effect2_dropShadow_5_21" result="effect3_dropShadow_5_21"/>
<feColorMatrix in="SourceAlpha" type="matrix" values="0 0 0 0 0 0 0 0 0 0 0 0 0 0 0 0 0 0 127 0" result="hardAlpha"/>
<feOffset dy="4.31641"/>
<feGaussianBlur stdDeviation="4.19287"/>
<feColorMatrix type="matrix" values="0 0 0 0 0.0470588 0 0 0 0 0.0784314 0 0 0 0 0.129412 0 0 0 0.023125 0"/>
<feBlend mode="normal" in2="effect3_dropShadow_5_21" result="effect4_dropShadow_5_21"/>
<feColorMatrix in="SourceAlpha" type="matrix" values="0 0 0 0 0 0 0 0 0 0 0 0 0 0 0 0 0 0 127 0" result="hardAlpha"/>
<feOffset dy="6.58125"/>
<feGaussianBlur stdDeviation="6.75703"/>
<feColorMatrix type="matrix" values="0 0 0 0 0.0470588 0 0 0 0 0.0784314 0 0 0 0 0.129412 0 0 0 0.027 0"/>
<feBlend mode="normal" in2="effect4_dropShadow_5_21" result="effect5_dropShadow_5_21"/>
<feColorMatrix in="SourceAlpha" type="matrix" values="0 0 0 0 0 0 0 0 0 0 0 0 0 0 0 0 0 0 127 0" result="hardAlpha"/>
<feOffset dy="9.45547"/>
<feGaussianBlur stdDeviation="10.4474"/>
<feColorMatrix type="matrix" values="0 0 0 0 0.0470588 0 0 0 0 0.0784314 0 0 0 0 0.129412 0 0 0 0.032375 0"/>
<feBlend mode="normal" in2="effect5_dropShadow_5_21" result="effect6_dropShadow_5_21"/>
<feColorMatrix in="SourceAlpha" type="matrix" values="0 0 0 0 0 0 0 0 0 0 0 0 0 0 0 0 0 0 127 0" result="hardAlpha"/>
<feOffset dy="13"/>
<feGaussianBlur stdDeviation="15.5"/>
<feColorMatrix type="matrix" values="0 0 0 0 0.0468229 0 0 0 0 0.0797604 0 0 0 0 0.129167 0 0 0 0.04 0"/>
<feBlend mode="normal" in2="effect6_dropShadow_5_21" result="effect7_dropShadow_5_21"/>
<feBlend mode="normal" in="SourceGraphic" in2="effect7_dropShadow_5_21" result="shape"/>
<feColorMatrix in="SourceAlpha" type="matrix" values="0 0 0 0 0 0 0 0 0 0 0 0 0 0 0 0 0 0 127 0" result="hardAlpha"/>
<feOffset dy="2"/>
<feGaussianBlur stdDeviation="0.5"/>
<feComposite in2="hardAlpha" operator="arithmetic" k2="-1" k3="1"/>
<feColorMatrix type="matrix" values="0 0 0 0 1 0 0 0 0 1 0 0 0 0 1 0 0 0 1 0"/>
<feBlend mode="normal" in2="shape" result="effect8_innerShadow_5_21"/>
</filter>
<filter id="filter1_d_5_21" x="164" y="39" width="105" height="54" filterUnits="userSpaceOnUse" color-interpolation-filters="sRGB">
<feFlood flood-opacity="0" result="BackgroundImageFix"/>
<feColorMatrix in="SourceAlpha" type="matrix" values="0 0 0 0 0 0 0 0 0 0 0 0 0 0 0 0 0 0 127 0" result="hardAlpha"/>
<feOffset/>
<feGaussianBlur stdDeviation="1.5"/>
<feColorMatrix type="matrix" values="0 0 0 0 1 0 0 0 0 1 0 0 0 0 1 0 0 0 1 0"/>
<feBlend mode="normal" in2="BackgroundImageFix" result="effect1_dropShadow_5_21"/>
<feBlend mode="normal" in="SourceGraphic" in2="effect1_dropShadow_5_21" result="shape"/>
</filter>
</defs>
</svg>
