<svg width="309" height="169" viewBox="0 0 309 169" fill="none" xmlns="http://www.w3.org/2000/svg">
<g filter="url(#filter0_dddddddi_5_62)">
<path d="M31 71.1765C31 49.4646 31 38.6087 36.355 30.8938C38.3977 27.9509 40.9509 25.3977 43.8938 23.355C51.6087 18 62.4646 18 84.1765 18H224.462C246.174 18 257.03 18 264.745 23.355C267.688 25.3977 270.241 27.9509 272.284 30.8938C277.639 38.6087 277.639 49.4646 277.639 71.1765C277.639 92.8883 277.639 103.744 272.284 111.459C270.241 114.402 267.688 116.955 264.745 118.998C257.03 124.353 246.174 124.353 224.462 124.353H84.1765C62.4646 124.353 51.6087 124.353 43.8938 118.998C40.9509 116.955 38.3977 114.402 36.355 111.459C31 103.744 31 92.8883 31 71.1765Z" fill="#F9F9FA"/>
<path d="M55 71.1765C55 61.8209 55 57.1431 57.1459 53.728C58.2648 51.9472 59.7707 50.4413 61.5516 49.3223C64.9667 47.1765 69.6444 47.1765 79 47.1765H127C136.356 47.1765 141.033 47.1765 144.448 49.3223C146.229 50.4413 147.735 51.9472 148.854 53.728C151 57.1431 151 61.8209 151 71.1765C151 80.532 151 85.2098 148.854 88.6249C147.735 90.4058 146.229 91.9116 144.448 93.0306C141.033 95.1765 136.356 95.1765 127 95.1765H79C69.6444 95.1765 64.9667 95.1765 61.5516 93.0306C59.7707 91.9116 58.2648 90.4058 57.1459 88.6249C55 85.2098 55 80.532 55 71.1765Z" fill="#87B9E7"/>
<g filter="url(#filter1_d_5_62)">
<path d="M176.971 68.4343C180.537 68.4343 182.965 66.5544 183.556 63.3532H181.16C180.677 65.2224 179.141 66.3288 176.981 66.3288C174.135 66.3288 172.33 64.0407 172.33 60.4206C172.33 56.8327 174.156 54.5231 176.971 54.5231C179.076 54.5231 180.73 55.823 181.16 57.8103H183.545C183.137 54.5769 180.483 52.4177 176.971 52.4177C172.642 52.4177 169.87 55.5114 169.87 60.4206C169.87 65.362 172.62 68.4343 176.971 68.4343ZM190.345 58.2614C192.042 58.2614 193.191 59.4646 193.245 61.28H187.326C187.455 59.486 188.669 58.2614 190.345 58.2614ZM193.234 64.7605C192.912 65.781 191.849 66.4255 190.495 66.4255C188.583 66.4255 187.315 65.0935 187.315 63.0739V62.9343H195.576V62.1179C195.576 58.5837 193.557 56.3601 190.355 56.3601C187.09 56.3601 184.963 58.7341 184.963 62.3864C184.963 66.0388 187.068 68.3161 190.452 68.3161C193.073 68.3161 195.125 66.8552 195.458 64.7605H193.234ZM197.456 68.1765H199.787V61.2155C199.787 59.572 200.754 58.5085 202.29 58.5085C202.752 58.5085 203.16 58.573 203.354 58.6481V56.4675C203.171 56.4245 202.881 56.3923 202.537 56.3923C201.162 56.3923 200.088 57.1765 199.723 58.4763H199.68V56.5105H197.456V68.1765ZM214.794 56.5105H212.463V63.2351C212.463 65.0827 211.399 66.2966 209.659 66.2966C207.973 66.2966 207.124 65.3405 207.124 63.5466V56.5105H204.793V63.987C204.793 66.6618 206.34 68.3054 208.886 68.3054C210.669 68.3054 211.851 67.5642 212.527 66.1784H212.57V68.1765H214.794V56.5105ZM217.275 68.1765H219.606V51.9772H217.275V68.1765ZM222.185 68.1765H224.516V56.5105H222.185V68.1765ZM223.355 54.8454C224.107 54.8454 224.72 54.2439 224.72 53.5026C224.72 52.7399 224.107 52.1599 223.355 52.1599C222.604 52.1599 221.991 52.7399 221.991 53.5026C221.991 54.2439 222.604 54.8454 223.355 54.8454ZM231.047 66.4362C229.704 66.4362 228.834 65.7917 228.834 64.7927C228.834 63.7614 229.661 63.1706 231.251 63.0739L234.087 62.8806V63.7937C234.087 65.3298 232.776 66.4362 231.047 66.4362ZM230.424 68.2946C232.014 68.2946 233.464 67.4997 234.108 66.2321H234.162V68.1765H236.386V60.1735C236.386 57.864 234.549 56.3601 231.702 56.3601C229.081 56.3601 227.126 57.8855 227.062 59.948H229.242C229.446 58.9382 230.37 58.2829 231.638 58.2829C233.195 58.2829 234.087 59.0134 234.087 60.3454V61.2478L230.939 61.4304C228.061 61.613 226.481 62.7946 226.481 64.8356C226.481 66.9196 228.093 68.2946 230.424 68.2946ZM238.728 68.1765H241.059V61.4411C241.059 59.6042 242.111 58.3796 243.873 58.3796C245.581 58.3796 246.397 59.3679 246.397 61.1403V68.1765H248.729V60.6999C248.729 58.0144 247.257 56.3815 244.679 56.3815C242.874 56.3815 241.703 57.1013 240.994 58.4763H240.951V56.5105H238.728V68.1765Z" fill="#3D3D3D"/>
<path d="M178.102 84.153L178.336 83.0046H176.695L177.32 79.903H176.203L175.578 83.0046H173.273L173.891 79.903H172.773L172.156 83.0046H170.516L170.289 84.153H171.93L171.414 86.8015H169.773L169.531 87.9655H171.172L170.531 91.1765H171.648L172.281 87.9655H174.594L173.953 91.1765H175.07L175.711 87.9655H177.352L177.578 86.8015H175.938L176.461 84.153H178.102ZM173.023 84.1296H175.367L174.836 86.8327H172.5L173.023 84.1296ZM183.875 91.4265C186.219 91.4265 187.844 90.0827 187.844 88.1608C187.844 86.739 186.914 85.5749 185.547 85.2858V85.1608C186.695 84.8405 187.391 83.8796 187.391 82.653C187.391 80.8952 185.93 79.653 183.875 79.653C181.82 79.653 180.352 80.8952 180.352 82.653C180.352 83.8796 181.062 84.8483 182.195 85.1608V85.2858C180.805 85.6218 179.898 86.7624 179.898 88.1608C179.898 90.0827 181.531 91.4265 183.875 91.4265ZM183.875 84.6921C182.57 84.6921 181.703 83.9265 181.703 82.7702C181.703 81.6218 182.57 80.8562 183.875 80.8562C185.18 80.8562 186.039 81.6218 186.039 82.7702C186.039 83.9265 185.18 84.6921 183.875 84.6921ZM183.875 90.2312C182.344 90.2312 181.289 89.3405 181.289 88.0515C181.289 86.7624 182.344 85.8718 183.875 85.8718C185.406 85.8718 186.461 86.7624 186.461 88.0515C186.461 89.3405 185.406 90.2312 183.875 90.2312ZM191.023 91.1765H192.492L197.547 81.1765V79.903H190.023V81.1374H196.141V81.239L191.023 91.1765ZM203.828 91.1765C206.25 91.1765 207.688 90.0046 207.688 88.028C207.688 86.5202 206.695 85.4187 205.18 85.2702V85.153C206.312 84.9577 207.117 83.9343 207.117 82.6921C207.117 80.9421 205.867 79.903 203.789 79.903H200.141V91.1765H203.828ZM201.508 81.0905H203.477C204.914 81.0905 205.727 81.7546 205.727 82.9343C205.727 84.1218 204.867 84.7702 203.266 84.7702H201.508V81.0905ZM201.508 89.9812V85.9187H203.484C205.312 85.9187 206.258 86.6062 206.258 87.9343C206.258 89.278 205.32 89.9812 203.531 89.9812H201.508ZM209.656 83.5202C209.656 85.5827 211.133 87.0983 213.148 87.0983C213.859 87.0983 214.656 86.7624 214.992 86.3093L215.109 86.3718C215.039 86.4968 214.984 86.5983 214.727 86.9499L211.656 91.1765H213.234C213.32 91.0593 215.656 87.778 215.758 87.6062C216.867 85.9968 217.32 84.8015 217.32 83.5202C217.32 81.2702 215.719 79.6687 213.492 79.6687C211.266 79.6687 209.656 81.2858 209.656 83.5202ZM213.484 80.8952C214.906 80.8952 215.984 82.0046 215.984 83.4499C215.984 84.903 214.906 86.0124 213.484 86.0124C212.07 86.0124 210.992 84.903 210.992 83.4499C210.992 82.0046 212.07 80.8952 213.484 80.8952ZM226.906 89.9108H221.633V86.0358H226.617V84.8249H221.633V81.1687H226.906V79.903H220.25V91.1765H226.906V89.9108ZM230.586 91.1765H232.055L237.109 81.1765V79.903H229.586V81.1374H235.703V81.239L230.586 91.1765Z" fill="#727272"/>
</g>
</g>
<defs>
<filter id="filter0_dddddddi_5_62" x="0" y="0" width="308.639" height="168.353" filterUnits="userSpaceOnUse" color-interpolation-filters="sRGB">
<feFlood flood-opacity="0" result="BackgroundImageFix"/>
<feColorMatrix in="SourceAlpha" type="matrix" values="0 0 0 0 0 0 0 0 0 0 0 0 0 0 0 0 0 0 127 0" result="hardAlpha"/>
<feOffset dy="0.56875"/>
<feGaussianBlur stdDeviation="0.896094"/>
<feColorMatrix type="matrix" values="0 0 0 0 0.0470588 0 0 0 0 0.0784314 0 0 0 0 0.129412 0 0 0 0.013 0"/>
<feBlend mode="normal" in2="BackgroundImageFix" result="effect1_dropShadow_5_62"/>
<feColorMatrix in="SourceAlpha" type="matrix" values="0 0 0 0 0 0 0 0 0 0 0 0 0 0 0 0 0 0 127 0" result="hardAlpha"/>
<feOffset dy="1.37109"/>
<feGaussianBlur stdDeviation="1.49854"/>
<feColorMatrix type="matrix" values="0 0 0 0 0.0470588 0 0 0 0 0.0784314 0 0 0 0 0.129412 0 0 0 0.016875 0"/>
<feBlend mode="normal" in2="effect1_dropShadow_5_62" result="effect2_dropShadow_5_62"/>
<feColorMatrix in="SourceAlpha" type="matrix" values="0 0 0 0 0 0 0 0 0 0 0 0 0 0 0 0 0 0 127 0" result="hardAlpha"/>
<feOffset dy="2.6"/>
<feGaussianBlur stdDeviation="2.51875"/>
<feColorMatrix type="matrix" values="0 0 0 0 0.0470588 0 0 0 0 0.0784314 0 0 0 0 0.129412 0 0 0 0.02 0"/>
<feBlend mode="normal" in2="effect2_dropShadow_5_62" result="effect3_dropShadow_5_62"/>
<feColorMatrix in="SourceAlpha" type="matrix" values="0 0 0 0 0 0 0 0 0 0 0 0 0 0 0 0 0 0 127 0" result="hardAlpha"/>
<feOffset dy="4.31641"/>
<feGaussianBlur stdDeviation="4.19287"/>
<feColorMatrix type="matrix" values="0 0 0 0 0.0470588 0 0 0 0 0.0784314 0 0 0 0 0.129412 0 0 0 0.023125 0"/>
<feBlend mode="normal" in2="effect3_dropShadow_5_62" result="effect4_dropShadow_5_62"/>
<feColorMatrix in="SourceAlpha" type="matrix" values="0 0 0 0 0 0 0 0 0 0 0 0 0 0 0 0 0 0 127 0" result="hardAlpha"/>
<feOffset dy="6.58125"/>
<feGaussianBlur stdDeviation="6.75703"/>
<feColorMatrix type="matrix" values="0 0 0 0 0.0470588 0 0 0 0 0.0784314 0 0 0 0 0.129412 0 0 0 0.027 0"/>
<feBlend mode="normal" in2="effect4_dropShadow_5_62" result="effect5_dropShadow_5_62"/>
<feColorMatrix in="SourceAlpha" type="matrix" values="0 0 0 0 0 0 0 0 0 0 0 0 0 0 0 0 0 0 127 0" result="hardAlpha"/>
<feOffset dy="9.45547"/>
<feGaussianBlur stdDeviation="10.4474"/>
<feColorMatrix type="matrix" values="0 0 0 0 0.0470588 0 0 0 0 0.0784314 0 0 0 0 0.129412 0 0 0 0.032375 0"/>
<feBlend mode="normal" in2="effect5_dropShadow_5_62" result="effect6_dropShadow_5_62"/>
<feColorMatrix in="SourceAlpha" type="matrix" values="0 0 0 0 0 0 0 0 0 0 0 0 0 0 0 0 0 0 127 0" result="hardAlpha"/>
<feOffset dy="13"/>
<feGaussianBlur stdDeviation="15.5"/>
<feColorMatrix type="matrix" values="0 0 0 0 0.0468229 0 0 0 0 0.0797604 0 0 0 0 0.129167 0 0 0 0.04 0"/>
<feBlend mode="normal" in2="effect6_dropShadow_5_62" result="effect7_dropShadow_5_62"/>
<feBlend mode="normal" in="SourceGraphic" in2="effect7_dropShadow_5_62" result="shape"/>
<feColorMatrix in="SourceAlpha" type="matrix" values="0 0 0 0 0 0 0 0 0 0 0 0 0 0 0 0 0 0 127 0" result="hardAlpha"/>
<feOffset dy="2"/>
<feGaussianBlur stdDeviation="0.5"/>
<feComposite in2="hardAlpha" operator="arithmetic" k2="-1" k3="1"/>
<feColorMatrix type="matrix" values="0 0 0 0 1 0 0 0 0 1 0 0 0 0 1 0 0 0 1 0"/>
<feBlend mode="normal" in2="shape" result="effect8_innerShadow_5_62"/>
</filter>
<filter id="filter1_d_5_62" x="164" y="44.1765" width="91" height="54" filterUnits="userSpaceOnUse" color-interpolation-filters="sRGB">
<feFlood flood-opacity="0" result="BackgroundImageFix"/>
<feColorMatrix in="SourceAlpha" type="matrix" values="0 0 0 0 0 0 0 0 0 0 0 0 0 0 0 0 0 0 127 0" result="hardAlpha"/>
<feOffset/>
<feGaussianBlur stdDeviation="1.5"/>
<feColorMatrix type="matrix" values="0 0 0 0 1 0 0 0 0 1 0 0 0 0 1 0 0 0 1 0"/>
<feBlend mode="normal" in2="BackgroundImageFix" result="effect1_dropShadow_5_62"/>
<feBlend mode="normal" in="SourceGraphic" in2="effect1_dropShadow_5_62" result="shape"/>
</filter>
</defs>
</svg>
