<svg width="336" height="169" viewBox="0 0 336 169" fill="none" xmlns="http://www.w3.org/2000/svg">
<g filter="url(#filter0_dddddddi_5_24)">
<path d="M31 71.1765C31 49.4646 31 38.6087 36.355 30.8938C38.3977 27.9509 40.9509 25.3977 43.8938 23.355C51.6087 18 62.4646 18 84.1765 18H251.643C273.355 18 284.211 18 291.926 23.355C294.868 25.3977 297.422 27.9509 299.464 30.8938C304.819 38.6087 304.819 49.4646 304.819 71.1765C304.819 92.8883 304.819 103.744 299.464 111.459C297.422 114.402 294.868 116.955 291.926 118.998C284.211 124.353 273.355 124.353 251.643 124.353H84.1765C62.4646 124.353 51.6087 124.353 43.8938 118.998C40.9509 116.955 38.3977 114.402 36.355 111.459C31 103.744 31 92.8883 31 71.1765Z" fill="#F9F9FA"/>
<path d="M55 71.1765C55 61.821 55 57.1432 57.1459 53.7281C58.2648 51.9472 59.7707 50.4414 61.5516 49.3224C64.9667 47.1765 69.6444 47.1765 79 47.1765H127C136.356 47.1765 141.033 47.1765 144.448 49.3224C146.229 50.4414 147.735 51.9472 148.854 53.7281C151 57.1432 151 61.821 151 71.1765C151 80.5321 151 85.2098 148.854 88.625C147.735 90.4058 146.229 91.9117 144.448 93.0307C141.033 95.1765 136.356 95.1765 127 95.1765H79C69.6444 95.1765 64.9667 95.1765 61.5516 93.0307C59.7707 91.9117 58.2648 90.4058 57.1459 88.625C55 85.2098 55 80.5321 55 71.1765Z" fill="#3A4565"/>
<g filter="url(#filter1_d_5_24)">
<path d="M170.429 52.6755V68.1765H175.982C180.602 68.1765 183.319 65.2976 183.319 60.3992C183.319 55.5115 180.602 52.6755 175.982 52.6755H170.429ZM172.835 54.7488H175.757C179.044 54.7488 180.87 56.7683 180.87 60.4207C180.87 64.0837 179.044 66.0925 175.757 66.0925H172.835V54.7488ZM190.237 58.2615C191.935 58.2615 193.084 59.4646 193.138 61.28H187.219C187.348 59.4861 188.562 58.2615 190.237 58.2615ZM193.127 64.7605C192.805 65.781 191.741 66.4255 190.388 66.4255C188.476 66.4255 187.208 65.0935 187.208 63.074V62.9343H195.469V62.1179C195.469 58.5837 193.449 56.3601 190.248 56.3601C186.982 56.3601 184.855 58.7341 184.855 62.3865C184.855 66.0388 186.961 68.3162 190.345 68.3162C192.966 68.3162 195.018 66.8552 195.351 64.7605H193.127ZM202.204 58.2615C203.901 58.2615 205.051 59.4646 205.104 61.28H199.186C199.314 59.4861 200.528 58.2615 202.204 58.2615ZM205.094 64.7605C204.771 65.781 203.708 66.4255 202.354 66.4255C200.442 66.4255 199.175 65.0935 199.175 63.074V62.9343H207.436V62.1179C207.436 58.5837 205.416 56.3601 202.215 56.3601C198.949 56.3601 196.822 58.7341 196.822 62.3865C196.822 66.0388 198.928 68.3162 202.312 68.3162C204.933 68.3162 206.984 66.8552 207.317 64.7605H205.094ZM215.331 56.3923C213.709 56.3923 212.27 57.1873 211.614 58.4441H211.561V56.5105H209.315V72.0437H211.646V66.2644H211.689C212.388 67.5535 213.709 68.2947 215.385 68.2947C218.317 68.2947 220.262 65.9529 220.262 62.3435C220.262 58.7234 218.307 56.3923 215.331 56.3923ZM214.74 66.3181C212.882 66.3181 211.636 64.7283 211.625 62.3435C211.636 59.9695 212.893 58.3689 214.74 58.3689C216.631 58.3689 217.877 59.9373 217.877 62.3435C217.877 64.7605 216.631 66.3181 214.74 66.3181ZM229.769 68.1765V56.7576H229.865L237.9 68.1765H240.07V52.6755H237.729V64.1052H237.643L229.607 52.6755H227.427V68.1765H229.769ZM246.752 66.4363C245.409 66.4363 244.539 65.7917 244.539 64.7927C244.539 63.7615 245.366 63.1707 246.956 63.074L249.792 62.8806V63.7937C249.792 65.3298 248.481 66.4363 246.752 66.4363ZM246.129 68.2947C247.719 68.2947 249.169 67.4998 249.813 66.2322H249.867V68.1765H252.091V60.1736C252.091 57.864 250.254 56.3601 247.407 56.3601C244.786 56.3601 242.831 57.8855 242.767 59.948H244.947C245.151 58.9382 246.075 58.283 247.343 58.283C248.9 58.283 249.792 59.0134 249.792 60.3455V61.2478L246.645 61.4304C243.766 61.613 242.187 62.7947 242.187 64.8357C242.187 66.9197 243.798 68.2947 246.129 68.2947ZM264.337 56.5105H261.92L258.934 65.8777H258.88L255.904 56.5105H253.444L257.655 68.1765H260.137L264.337 56.5105ZM266.969 72.4197C269.354 72.4197 270.46 71.5173 271.459 68.7136L275.831 56.5105H273.382L270.385 66.0496H270.331L267.334 56.5105H264.831L269.063 68.2087L268.881 68.8103C268.483 70.0457 267.871 70.5183 266.765 70.5183C266.561 70.5183 266.195 70.5076 266.023 70.4646V72.3552C266.206 72.3875 266.775 72.4197 266.969 72.4197Z" fill="#3D3D3D"/>
<path d="M178.102 84.1531L178.336 83.0046H176.695L177.32 79.9031H176.203L175.578 83.0046H173.273L173.891 79.9031H172.773L172.156 83.0046H170.516L170.289 84.1531H171.93L171.414 86.8015H169.773L169.531 87.9656H171.172L170.531 91.1765H171.648L172.281 87.9656H174.594L173.953 91.1765H175.07L175.711 87.9656H177.352L177.578 86.8015H175.938L176.461 84.1531H178.102ZM173.023 84.1296H175.367L174.836 86.8328H172.5L173.023 84.1296ZM182.461 85.95H183.75C185.312 85.95 186.305 86.7859 186.305 88.0984C186.305 89.3718 185.344 90.1687 183.797 90.1687C182.391 90.1687 181.391 89.3875 181.266 88.1843H179.961C180.062 90.1296 181.609 91.4109 183.836 91.4109C186.086 91.4109 187.695 90.0437 187.695 88.1296C187.695 86.5906 186.805 85.5359 185.305 85.3406V85.2156C186.516 84.9187 187.227 83.95 187.227 82.5906C187.227 80.8796 185.789 79.6687 183.773 79.6687C181.688 79.6687 180.312 80.8796 180.18 82.8328H181.5C181.609 81.6218 182.453 80.8796 183.719 80.8796C184.992 80.8796 185.836 81.6375 185.836 82.7859C185.836 83.9656 184.953 84.7937 183.688 84.7937H182.461V85.95ZM196.641 91.1765H198.094L194.461 79.9031H192.992L189.359 91.1765H190.758L191.742 87.9421H195.664L196.641 91.1765ZM193.688 81.5593H193.727L195.305 86.7625H192.102L193.688 81.5593ZM204.938 91.1765H206.195V88.7937H207.922V87.5828H206.203V84.3796H204.953V87.5984H201.258V87.4968L205.031 79.9031H203.625L199.797 87.6765V88.7937H204.938V91.1765ZM213.414 91.4031C215.703 91.4031 217.258 89.8562 217.258 87.575C217.258 85.3562 215.805 83.8015 213.719 83.8015C212.727 83.8015 211.922 84.1531 211.367 84.825H211.242L211.555 81.1453H216.633V79.9031H210.469L209.898 86.2703H211.203C211.648 85.4734 212.484 85.0125 213.492 85.0125C214.938 85.0125 215.914 86.0593 215.914 87.6062C215.914 89.1375 214.945 90.1609 213.492 90.1609C212.172 90.1609 211.164 89.3484 211.039 88.1687H209.711C209.828 90.1062 211.312 91.4031 213.414 91.4031ZM227.266 87.5593C227.266 85.5046 225.781 83.9812 223.773 83.9812C223.055 83.9812 222.242 84.3171 221.906 84.7703L221.789 84.7078C221.844 84.5828 221.812 84.614 222.156 84.1296L225.234 79.9031H223.648C223.57 80.0203 221.227 83.3015 221.125 83.4734C220.047 85.0437 219.602 86.239 219.602 87.5593C219.602 89.8015 221.203 91.4109 223.422 91.4109C225.656 91.4109 227.266 89.7937 227.266 87.5593ZM223.43 90.1843C222.016 90.1843 220.938 89.075 220.938 87.6296C220.938 86.1765 222.016 85.0671 223.43 85.0671C224.852 85.0671 225.93 86.1765 225.93 87.6296C225.93 89.075 224.852 90.1843 223.43 90.1843ZM233.195 91.4031C235.484 91.4031 237.039 89.8562 237.039 87.575C237.039 85.3562 235.586 83.8015 233.5 83.8015C232.508 83.8015 231.703 84.1531 231.148 84.825H231.023L231.336 81.1453H236.414V79.9031H230.25L229.68 86.2703H230.984C231.43 85.4734 232.266 85.0125 233.273 85.0125C234.719 85.0125 235.695 86.0593 235.695 87.6062C235.695 89.1375 234.727 90.1609 233.273 90.1609C231.953 90.1609 230.945 89.3484 230.82 88.1687H229.492C229.609 90.1062 231.094 91.4031 233.195 91.4031Z" fill="#727272"/>
</g>
</g>
<defs>
<filter id="filter0_dddddddi_5_24" x="0" y="0" width="335.819" height="168.353" filterUnits="userSpaceOnUse" color-interpolation-filters="sRGB">
<feFlood flood-opacity="0" result="BackgroundImageFix"/>
<feColorMatrix in="SourceAlpha" type="matrix" values="0 0 0 0 0 0 0 0 0 0 0 0 0 0 0 0 0 0 127 0" result="hardAlpha"/>
<feOffset dy="0.56875"/>
<feGaussianBlur stdDeviation="0.896094"/>
<feColorMatrix type="matrix" values="0 0 0 0 0.0470588 0 0 0 0 0.0784314 0 0 0 0 0.129412 0 0 0 0.013 0"/>
<feBlend mode="normal" in2="BackgroundImageFix" result="effect1_dropShadow_5_24"/>
<feColorMatrix in="SourceAlpha" type="matrix" values="0 0 0 0 0 0 0 0 0 0 0 0 0 0 0 0 0 0 127 0" result="hardAlpha"/>
<feOffset dy="1.37109"/>
<feGaussianBlur stdDeviation="1.49854"/>
<feColorMatrix type="matrix" values="0 0 0 0 0.0470588 0 0 0 0 0.0784314 0 0 0 0 0.129412 0 0 0 0.016875 0"/>
<feBlend mode="normal" in2="effect1_dropShadow_5_24" result="effect2_dropShadow_5_24"/>
<feColorMatrix in="SourceAlpha" type="matrix" values="0 0 0 0 0 0 0 0 0 0 0 0 0 0 0 0 0 0 127 0" result="hardAlpha"/>
<feOffset dy="2.6"/>
<feGaussianBlur stdDeviation="2.51875"/>
<feColorMatrix type="matrix" values="0 0 0 0 0.0470588 0 0 0 0 0.0784314 0 0 0 0 0.129412 0 0 0 0.02 0"/>
<feBlend mode="normal" in2="effect2_dropShadow_5_24" result="effect3_dropShadow_5_24"/>
<feColorMatrix in="SourceAlpha" type="matrix" values="0 0 0 0 0 0 0 0 0 0 0 0 0 0 0 0 0 0 127 0" result="hardAlpha"/>
<feOffset dy="4.31641"/>
<feGaussianBlur stdDeviation="4.19287"/>
<feColorMatrix type="matrix" values="0 0 0 0 0.0470588 0 0 0 0 0.0784314 0 0 0 0 0.129412 0 0 0 0.023125 0"/>
<feBlend mode="normal" in2="effect3_dropShadow_5_24" result="effect4_dropShadow_5_24"/>
<feColorMatrix in="SourceAlpha" type="matrix" values="0 0 0 0 0 0 0 0 0 0 0 0 0 0 0 0 0 0 127 0" result="hardAlpha"/>
<feOffset dy="6.58125"/>
<feGaussianBlur stdDeviation="6.75703"/>
<feColorMatrix type="matrix" values="0 0 0 0 0.0470588 0 0 0 0 0.0784314 0 0 0 0 0.129412 0 0 0 0.027 0"/>
<feBlend mode="normal" in2="effect4_dropShadow_5_24" result="effect5_dropShadow_5_24"/>
<feColorMatrix in="SourceAlpha" type="matrix" values="0 0 0 0 0 0 0 0 0 0 0 0 0 0 0 0 0 0 127 0" result="hardAlpha"/>
<feOffset dy="9.45547"/>
<feGaussianBlur stdDeviation="10.4474"/>
<feColorMatrix type="matrix" values="0 0 0 0 0.0470588 0 0 0 0 0.0784314 0 0 0 0 0.129412 0 0 0 0.032375 0"/>
<feBlend mode="normal" in2="effect5_dropShadow_5_24" result="effect6_dropShadow_5_24"/>
<feColorMatrix in="SourceAlpha" type="matrix" values="0 0 0 0 0 0 0 0 0 0 0 0 0 0 0 0 0 0 127 0" result="hardAlpha"/>
<feOffset dy="13"/>
<feGaussianBlur stdDeviation="15.5"/>
<feColorMatrix type="matrix" values="0 0 0 0 0.0468229 0 0 0 0 0.0797604 0 0 0 0 0.129167 0 0 0 0.04 0"/>
<feBlend mode="normal" in2="effect6_dropShadow_5_24" result="effect7_dropShadow_5_24"/>
<feBlend mode="normal" in="SourceGraphic" in2="effect7_dropShadow_5_24" result="shape"/>
<feColorMatrix in="SourceAlpha" type="matrix" values="0 0 0 0 0 0 0 0 0 0 0 0 0 0 0 0 0 0 127 0" result="hardAlpha"/>
<feOffset dy="2"/>
<feGaussianBlur stdDeviation="0.5"/>
<feComposite in2="hardAlpha" operator="arithmetic" k2="-1" k3="1"/>
<feColorMatrix type="matrix" values="0 0 0 0 1 0 0 0 0 1 0 0 0 0 1 0 0 0 1 0"/>
<feBlend mode="normal" in2="shape" result="effect8_innerShadow_5_24"/>
</filter>
<filter id="filter1_d_5_24" x="164" y="44.1765" width="118" height="54" filterUnits="userSpaceOnUse" color-interpolation-filters="sRGB">
<feFlood flood-opacity="0" result="BackgroundImageFix"/>
<feColorMatrix in="SourceAlpha" type="matrix" values="0 0 0 0 0 0 0 0 0 0 0 0 0 0 0 0 0 0 127 0" result="hardAlpha"/>
<feOffset/>
<feGaussianBlur stdDeviation="1.5"/>
<feColorMatrix type="matrix" values="0 0 0 0 1 0 0 0 0 1 0 0 0 0 1 0 0 0 1 0"/>
<feBlend mode="normal" in2="BackgroundImageFix" result="effect1_dropShadow_5_24"/>
<feBlend mode="normal" in="SourceGraphic" in2="effect1_dropShadow_5_24" result="shape"/>
</filter>
</defs>
</svg>
