<svg width="330" height="169" viewBox="0 0 330 169" fill="none" xmlns="http://www.w3.org/2000/svg">
<g filter="url(#filter0_dddddddi_5_23)">
<path d="M31 71.1765C31 49.4646 31 38.6087 36.355 30.8938C38.3977 27.9509 40.9509 25.3977 43.8938 23.355C51.6087 18 62.4646 18 84.1765 18H245.603C267.315 18 278.171 18 285.885 23.355C288.828 25.3977 291.382 27.9509 293.424 30.8938C298.779 38.6087 298.779 49.4646 298.779 71.1765C298.779 92.8883 298.779 103.744 293.424 111.459C291.382 114.402 288.828 116.955 285.885 118.998C278.171 124.353 267.315 124.353 245.603 124.353H84.1765C62.4646 124.353 51.6087 124.353 43.8938 118.998C40.9509 116.955 38.3977 114.402 36.355 111.459C31 103.744 31 92.8883 31 71.1765Z" fill="#F9F9FA"/>
<path d="M55 71.1765C55 61.821 55 57.1432 57.1459 53.7281C58.2648 51.9472 59.7707 50.4414 61.5516 49.3224C64.9667 47.1765 69.6444 47.1765 79 47.1765H127C136.356 47.1765 141.033 47.1765 144.448 49.3224C146.229 50.4414 147.735 51.9472 148.854 53.7281C151 57.1432 151 61.821 151 71.1765C151 80.5321 151 85.2098 148.854 88.625C147.735 90.4058 146.229 91.9117 144.448 93.0307C141.033 95.1765 136.356 95.1765 127 95.1765H79C69.6444 95.1765 64.9667 95.1765 61.5516 93.0307C59.7707 91.9117 58.2648 90.4058 57.1459 88.625C55 85.2098 55 80.5321 55 71.1765Z" fill="#455785"/>
<g filter="url(#filter1_d_5_23)">
<path d="M180.054 66.0925H172.835V52.6755H170.429V68.1765H180.054V66.0925ZM181.966 68.1765H184.297V56.5105H181.966V68.1765ZM183.137 54.8455C183.889 54.8455 184.501 54.2439 184.501 53.5027C184.501 52.74 183.889 52.1599 183.137 52.1599C182.385 52.1599 181.772 52.74 181.772 53.5027C181.772 54.2439 182.385 54.8455 183.137 54.8455ZM186.778 68.1765H189.109V61.4412C189.109 59.6042 190.162 58.3796 191.924 58.3796C193.632 58.3796 194.448 59.3679 194.448 61.1404V68.1765H196.779V60.7C196.779 58.0144 195.308 56.3816 192.729 56.3816C190.925 56.3816 189.754 57.1013 189.045 58.4763H189.002V56.5105H186.778V68.1765ZM203.966 58.2615C205.663 58.2615 206.812 59.4646 206.866 61.28H200.947C201.076 59.4861 202.29 58.2615 203.966 58.2615ZM206.855 64.7605C206.533 65.781 205.47 66.4255 204.116 66.4255C202.204 66.4255 200.937 65.0935 200.937 63.074V62.9343H209.197V62.1179C209.197 58.5837 207.178 56.3601 203.977 56.3601C200.711 56.3601 198.584 58.7341 198.584 62.3865C198.584 66.0388 200.689 68.3162 204.073 68.3162C206.694 68.3162 208.746 66.8552 209.079 64.7605H206.855ZM211.077 68.1765H213.408V61.4412C213.408 59.6042 214.461 58.3796 216.223 58.3796C217.931 58.3796 218.747 59.3679 218.747 61.1404V68.1765H221.078V60.7C221.078 58.0144 219.606 56.3816 217.028 56.3816C215.224 56.3816 214.053 57.1013 213.344 58.4763H213.301V56.5105H211.077V68.1765ZM235.086 68.1765C238.395 68.1765 240.382 66.5222 240.382 63.7937C240.382 61.7312 238.953 60.238 236.858 60.0017V59.9158C238.405 59.658 239.608 58.1863 239.608 56.5427C239.608 54.2009 237.804 52.6755 235.064 52.6755H228.716V68.1765H235.086ZM231.122 54.6414H234.474C236.225 54.6414 237.213 55.4363 237.213 56.8757C237.213 58.4119 236.063 59.2712 233.969 59.2712H231.122V54.6414ZM231.122 66.2107V61.1082H234.463C236.729 61.1082 237.922 61.9675 237.922 63.6433C237.922 65.3191 236.772 66.2107 234.603 66.2107H231.122ZM242.326 68.1765H244.657V51.9773H242.326V68.1765ZM257.097 56.5105H254.766V63.2351C254.766 65.0828 253.702 66.2966 251.962 66.2966C250.275 66.2966 249.427 65.3406 249.427 63.5466V56.5105H247.096V63.9871C247.096 66.6619 248.643 68.3054 251.188 68.3054C252.972 68.3054 254.153 67.5642 254.83 66.1785H254.873V68.1765H257.097V56.5105ZM264.337 58.2615C266.034 58.2615 267.184 59.4646 267.237 61.28H261.318C261.447 59.4861 262.661 58.2615 264.337 58.2615ZM267.227 64.7605C266.904 65.781 265.841 66.4255 264.487 66.4255C262.575 66.4255 261.308 65.0935 261.308 63.074V62.9343H269.568V62.1179C269.568 58.5837 267.549 56.3601 264.348 56.3601C261.082 56.3601 258.955 58.7341 258.955 62.3865C258.955 66.0388 261.061 68.3162 264.444 68.3162C267.065 68.3162 269.117 66.8552 269.45 64.7605H267.227Z" fill="#3D3D3D"/>
<path d="M178.102 84.1531L178.336 83.0046H176.695L177.32 79.9031H176.203L175.578 83.0046H173.273L173.891 79.9031H172.773L172.156 83.0046H170.516L170.289 84.1531H171.93L171.414 86.8015H169.773L169.531 87.9656H171.172L170.531 91.1765H171.648L172.281 87.9656H174.594L173.953 91.1765H175.07L175.711 87.9656H177.352L177.578 86.8015H175.938L176.461 84.1531H178.102ZM173.023 84.1296H175.367L174.836 86.8328H172.5L173.023 84.1296ZM185.156 91.1765H186.414V88.7937H188.141V87.5828H186.422V84.3796H185.172V87.5984H181.477V87.4968L185.25 79.9031H183.844L180.016 87.6765V88.7937H185.156V91.1765ZM193.633 91.4031C195.922 91.4031 197.477 89.8562 197.477 87.575C197.477 85.3562 196.023 83.8015 193.938 83.8015C192.945 83.8015 192.141 84.1531 191.586 84.825H191.461L191.773 81.1453H196.852V79.9031H190.688L190.117 86.2703H191.422C191.867 85.4734 192.703 85.0125 193.711 85.0125C195.156 85.0125 196.133 86.0593 196.133 87.6062C196.133 89.1375 195.164 90.1609 193.711 90.1609C192.391 90.1609 191.383 89.3484 191.258 88.1687H189.93C190.047 90.1062 191.531 91.4031 193.633 91.4031ZM203.523 91.4031C205.812 91.4031 207.367 89.8562 207.367 87.575C207.367 85.3562 205.914 83.8015 203.828 83.8015C202.836 83.8015 202.031 84.1531 201.477 84.825H201.352L201.664 81.1453H206.742V79.9031H200.578L200.008 86.2703H201.312C201.758 85.4734 202.594 85.0125 203.602 85.0125C205.047 85.0125 206.023 86.0593 206.023 87.6062C206.023 89.1375 205.055 90.1609 203.602 90.1609C202.281 90.1609 201.273 89.3484 201.148 88.1687H199.82C199.938 90.1062 201.422 91.4031 203.523 91.4031ZM210.805 91.1765H212.273L217.328 81.1765V79.9031H209.805V81.1375H215.922V81.239L210.805 91.1765ZM223.438 91.4265C225.781 91.4265 227.406 90.0828 227.406 88.1609C227.406 86.739 226.477 85.575 225.109 85.2859V85.1609C226.258 84.8406 226.953 83.8796 226.953 82.6531C226.953 80.8953 225.492 79.6531 223.438 79.6531C221.383 79.6531 219.914 80.8953 219.914 82.6531C219.914 83.8796 220.625 84.8484 221.758 85.1609V85.2859C220.367 85.6218 219.461 86.7625 219.461 88.1609C219.461 90.0828 221.094 91.4265 223.438 91.4265ZM223.438 84.6921C222.133 84.6921 221.266 83.9265 221.266 82.7703C221.266 81.6218 222.133 80.8562 223.438 80.8562C224.742 80.8562 225.602 81.6218 225.602 82.7703C225.602 83.9265 224.742 84.6921 223.438 84.6921ZM223.438 90.2312C221.906 90.2312 220.852 89.3406 220.852 88.0515C220.852 86.7625 221.906 85.8718 223.438 85.8718C224.969 85.8718 226.023 86.7625 226.023 88.0515C226.023 89.3406 224.969 90.2312 223.438 90.2312ZM233.195 91.4031C235.484 91.4031 237.039 89.8562 237.039 87.575C237.039 85.3562 235.586 83.8015 233.5 83.8015C232.508 83.8015 231.703 84.1531 231.148 84.825H231.023L231.336 81.1453H236.414V79.9031H230.25L229.68 86.2703H230.984C231.43 85.4734 232.266 85.0125 233.273 85.0125C234.719 85.0125 235.695 86.0593 235.695 87.6062C235.695 89.1375 234.727 90.1609 233.273 90.1609C231.953 90.1609 230.945 89.3484 230.82 88.1687H229.492C229.609 90.1062 231.094 91.4031 233.195 91.4031Z" fill="#727272"/>
</g>
</g>
<defs>
<filter id="filter0_dddddddi_5_23" x="0" y="0" width="329.779" height="168.353" filterUnits="userSpaceOnUse" color-interpolation-filters="sRGB">
<feFlood flood-opacity="0" result="BackgroundImageFix"/>
<feColorMatrix in="SourceAlpha" type="matrix" values="0 0 0 0 0 0 0 0 0 0 0 0 0 0 0 0 0 0 127 0" result="hardAlpha"/>
<feOffset dy="0.56875"/>
<feGaussianBlur stdDeviation="0.896094"/>
<feColorMatrix type="matrix" values="0 0 0 0 0.0470588 0 0 0 0 0.0784314 0 0 0 0 0.129412 0 0 0 0.013 0"/>
<feBlend mode="normal" in2="BackgroundImageFix" result="effect1_dropShadow_5_23"/>
<feColorMatrix in="SourceAlpha" type="matrix" values="0 0 0 0 0 0 0 0 0 0 0 0 0 0 0 0 0 0 127 0" result="hardAlpha"/>
<feOffset dy="1.37109"/>
<feGaussianBlur stdDeviation="1.49854"/>
<feColorMatrix type="matrix" values="0 0 0 0 0.0470588 0 0 0 0 0.0784314 0 0 0 0 0.129412 0 0 0 0.016875 0"/>
<feBlend mode="normal" in2="effect1_dropShadow_5_23" result="effect2_dropShadow_5_23"/>
<feColorMatrix in="SourceAlpha" type="matrix" values="0 0 0 0 0 0 0 0 0 0 0 0 0 0 0 0 0 0 127 0" result="hardAlpha"/>
<feOffset dy="2.6"/>
<feGaussianBlur stdDeviation="2.51875"/>
<feColorMatrix type="matrix" values="0 0 0 0 0.0470588 0 0 0 0 0.0784314 0 0 0 0 0.129412 0 0 0 0.02 0"/>
<feBlend mode="normal" in2="effect2_dropShadow_5_23" result="effect3_dropShadow_5_23"/>
<feColorMatrix in="SourceAlpha" type="matrix" values="0 0 0 0 0 0 0 0 0 0 0 0 0 0 0 0 0 0 127 0" result="hardAlpha"/>
<feOffset dy="4.31641"/>
<feGaussianBlur stdDeviation="4.19287"/>
<feColorMatrix type="matrix" values="0 0 0 0 0.0470588 0 0 0 0 0.0784314 0 0 0 0 0.129412 0 0 0 0.023125 0"/>
<feBlend mode="normal" in2="effect3_dropShadow_5_23" result="effect4_dropShadow_5_23"/>
<feColorMatrix in="SourceAlpha" type="matrix" values="0 0 0 0 0 0 0 0 0 0 0 0 0 0 0 0 0 0 127 0" result="hardAlpha"/>
<feOffset dy="6.58125"/>
<feGaussianBlur stdDeviation="6.75703"/>
<feColorMatrix type="matrix" values="0 0 0 0 0.0470588 0 0 0 0 0.0784314 0 0 0 0 0.129412 0 0 0 0.027 0"/>
<feBlend mode="normal" in2="effect4_dropShadow_5_23" result="effect5_dropShadow_5_23"/>
<feColorMatrix in="SourceAlpha" type="matrix" values="0 0 0 0 0 0 0 0 0 0 0 0 0 0 0 0 0 0 127 0" result="hardAlpha"/>
<feOffset dy="9.45547"/>
<feGaussianBlur stdDeviation="10.4474"/>
<feColorMatrix type="matrix" values="0 0 0 0 0.0470588 0 0 0 0 0.0784314 0 0 0 0 0.129412 0 0 0 0.032375 0"/>
<feBlend mode="normal" in2="effect5_dropShadow_5_23" result="effect6_dropShadow_5_23"/>
<feColorMatrix in="SourceAlpha" type="matrix" values="0 0 0 0 0 0 0 0 0 0 0 0 0 0 0 0 0 0 127 0" result="hardAlpha"/>
<feOffset dy="13"/>
<feGaussianBlur stdDeviation="15.5"/>
<feColorMatrix type="matrix" values="0 0 0 0 0.0468229 0 0 0 0 0.0797604 0 0 0 0 0.129167 0 0 0 0.04 0"/>
<feBlend mode="normal" in2="effect6_dropShadow_5_23" result="effect7_dropShadow_5_23"/>
<feBlend mode="normal" in="SourceGraphic" in2="effect7_dropShadow_5_23" result="shape"/>
<feColorMatrix in="SourceAlpha" type="matrix" values="0 0 0 0 0 0 0 0 0 0 0 0 0 0 0 0 0 0 127 0" result="hardAlpha"/>
<feOffset dy="2"/>
<feGaussianBlur stdDeviation="0.5"/>
<feComposite in2="hardAlpha" operator="arithmetic" k2="-1" k3="1"/>
<feColorMatrix type="matrix" values="0 0 0 0 1 0 0 0 0 1 0 0 0 0 1 0 0 0 1 0"/>
<feBlend mode="normal" in2="shape" result="effect8_innerShadow_5_23"/>
</filter>
<filter id="filter1_d_5_23" x="164" y="44.1765" width="112" height="54" filterUnits="userSpaceOnUse" color-interpolation-filters="sRGB">
<feFlood flood-opacity="0" result="BackgroundImageFix"/>
<feColorMatrix in="SourceAlpha" type="matrix" values="0 0 0 0 0 0 0 0 0 0 0 0 0 0 0 0 0 0 127 0" result="hardAlpha"/>
<feOffset/>
<feGaussianBlur stdDeviation="1.5"/>
<feColorMatrix type="matrix" values="0 0 0 0 1 0 0 0 0 1 0 0 0 0 1 0 0 0 1 0"/>
<feBlend mode="normal" in2="BackgroundImageFix" result="effect1_dropShadow_5_23"/>
<feBlend mode="normal" in="SourceGraphic" in2="effect1_dropShadow_5_23" result="shape"/>
</filter>
</defs>
</svg>
