<svg width="329" height="158" viewBox="0 0 329 158" fill="none" xmlns="http://www.w3.org/2000/svg">
<g filter="url(#filter0_dddddddi_5_50)">
<path d="M31 66C31 49.1984 31 40.7976 34.2698 34.3803C37.146 28.7354 41.7354 24.146 47.3803 21.2698C53.7976 18 62.1984 18 79 18H250C266.802 18 275.202 18 281.62 21.2698C287.265 24.146 291.854 28.7354 294.73 34.3803C298 40.7976 298 49.1984 298 66C298 82.8016 298 91.2024 294.73 97.6197C291.854 103.265 287.265 107.854 281.62 110.73C275.202 114 266.802 114 250 114H79C62.1984 114 53.7976 114 47.3803 110.73C41.7354 107.854 37.146 103.265 34.2698 97.6197C31 91.2024 31 82.8016 31 66Z" fill="#F9F9FA"/>
<path d="M55 66C55 56.6444 55 51.9667 57.1459 48.5516C58.2648 46.7707 59.7707 45.2648 61.5516 44.1459C64.9667 42 69.6444 42 79 42H127C136.356 42 141.033 42 144.448 44.1459C146.229 45.2648 147.735 46.7707 148.854 48.5516C151 51.9667 151 56.6444 151 66C151 75.3556 151 80.0333 148.854 83.4484C147.735 85.2293 146.229 86.7352 144.448 87.8541C141.033 90 136.356 90 127 90H79C69.6444 90 64.9667 90 61.5516 87.8541C59.7707 86.7352 58.2648 85.2293 57.1459 83.4484C55 80.0333 55 75.3556 55 66Z" fill="#D8C9AF"/>
<g filter="url(#filter1_d_5_50)">
<path d="M169.741 58.6816C169.892 61.4854 172.212 63.2578 175.649 63.2578C179.323 63.2578 181.633 61.4424 181.633 58.542C181.633 56.2754 180.312 54.9971 177.132 54.2451L175.424 53.8262C173.426 53.332 172.609 52.6875 172.609 51.5918C172.609 50.2168 173.888 49.2715 175.757 49.2715C177.626 49.2715 178.904 50.2061 179.044 51.7529H181.386C181.311 49.0781 179.065 47.2412 175.789 47.2412C172.48 47.2412 170.149 49.0781 170.149 51.7529C170.149 53.9121 171.471 55.2441 174.317 55.9316L176.326 56.415C178.335 56.9092 179.184 57.6289 179.184 58.832C179.184 60.2178 177.776 61.2275 175.821 61.2275C173.78 61.2275 172.287 60.2178 172.115 58.6816H169.741ZM188.551 63.1396C191.924 63.1396 194.062 60.8408 194.062 57.167C194.062 53.4932 191.913 51.1836 188.551 51.1836C185.188 51.1836 183.029 53.5039 183.029 57.167C183.029 60.8408 185.178 63.1396 188.551 63.1396ZM188.551 61.2061C186.574 61.2061 185.393 59.7129 185.393 57.167C185.393 54.6318 186.574 53.1172 188.551 53.1172C190.527 53.1172 191.698 54.6211 191.698 57.167C191.698 59.7129 190.527 61.2061 188.551 61.2061ZM196.629 63H198.949V53.1709H201.173V51.334H198.928V50.335C198.938 49.3359 199.336 48.917 200.292 48.917C200.604 48.917 200.926 48.9492 201.162 49.0029V47.2305C200.786 47.166 200.399 47.123 199.98 47.123C197.617 47.123 196.629 48.0791 196.629 50.2598V51.334H195.018V53.1709H196.629V63ZM203.805 48.7129V51.334H202.193V53.1709H203.805V59.9277C203.805 62.1836 204.707 63.0752 207.038 63.0752C207.543 63.0752 208.091 63.0215 208.349 62.957V61.1201C208.198 61.1416 207.801 61.1738 207.554 61.1738C206.576 61.1738 206.125 60.7012 206.125 59.6914V53.1709H208.359V51.334H206.125V48.7129H203.805ZM224.473 51.3125H224.58L227.932 63H230.198L234.388 47.499H231.885L229.017 59.6377H228.931L225.644 47.499H223.409L220.133 59.6377H220.047L217.179 47.499H214.676L218.854 63H221.132L224.473 51.3125ZM236.16 63H238.491V56.3184C238.491 54.4492 239.587 53.2031 241.402 53.2031C243.11 53.2031 243.98 54.2559 243.98 55.9961V63H246.312V55.5449C246.312 52.9131 244.775 51.2051 242.208 51.2051C240.425 51.2051 239.222 51.9248 238.523 53.2998H238.47V46.8008H236.16V63ZM248.739 63H251.07V51.334H248.739V63ZM249.91 49.6689C250.662 49.6689 251.274 49.0674 251.274 48.3262C251.274 47.5635 250.662 46.9834 249.91 46.9834C249.158 46.9834 248.546 47.5635 248.546 48.3262C248.546 49.0674 249.158 49.6689 249.91 49.6689ZM254.25 48.7129V51.334H252.639V53.1709H254.25V59.9277C254.25 62.1836 255.152 63.0752 257.483 63.0752C257.988 63.0752 258.536 63.0215 258.794 62.957V61.1201C258.644 61.1416 258.246 61.1738 257.999 61.1738C257.021 61.1738 256.57 60.7012 256.57 59.6914V53.1709H258.805V51.334H256.57V48.7129H254.25ZM265.347 53.085C267.044 53.085 268.193 54.2881 268.247 56.1035H262.328C262.457 54.3096 263.671 53.085 265.347 53.085ZM268.236 59.584C267.914 60.6045 266.851 61.249 265.497 61.249C263.585 61.249 262.317 59.917 262.317 57.8975V57.7578H270.578V56.9414C270.578 53.4072 268.559 51.1836 265.357 51.1836C262.092 51.1836 259.965 53.5576 259.965 57.21C259.965 60.8623 262.07 63.1396 265.454 63.1396C268.075 63.1396 270.127 61.6787 270.46 59.584H268.236Z" fill="#3D3D3D"/>
<path d="M178.102 78.9766L178.336 77.8281H176.695L177.32 74.7266H176.203L175.578 77.8281H173.273L173.891 74.7266H172.773L172.156 77.8281H170.516L170.289 78.9766H171.93L171.414 81.625H169.773L169.531 82.7891H171.172L170.531 86H171.648L172.281 82.7891H174.594L173.953 86H175.07L175.711 82.7891H177.352L177.578 81.625H175.938L176.461 78.9766H178.102ZM173.023 78.9531H175.367L174.836 81.6562H172.5L173.023 78.9531ZM180.141 74.7266V86H183.297C186.492 86 188.102 84.1094 188.102 80.3438C188.102 76.6094 186.492 74.7266 183.297 74.7266H180.141ZM181.523 75.9922H183.172C185.555 75.9922 186.695 77.3984 186.695 80.3516C186.695 83.3359 185.562 84.7344 183.172 84.7344H181.523V75.9922ZM193.766 86.25C196.109 86.25 197.734 84.9062 197.734 82.9844C197.734 81.5625 196.805 80.3984 195.438 80.1094V79.9844C196.586 79.6641 197.281 78.7031 197.281 77.4766C197.281 75.7188 195.82 74.4766 193.766 74.4766C191.711 74.4766 190.242 75.7188 190.242 77.4766C190.242 78.7031 190.953 79.6719 192.086 79.9844V80.1094C190.695 80.4453 189.789 81.5859 189.789 82.9844C189.789 84.9062 191.422 86.25 193.766 86.25ZM193.766 79.5156C192.461 79.5156 191.594 78.75 191.594 77.5938C191.594 76.4453 192.461 75.6797 193.766 75.6797C195.07 75.6797 195.93 76.4453 195.93 77.5938C195.93 78.75 195.07 79.5156 193.766 79.5156ZM193.766 85.0547C192.234 85.0547 191.18 84.1641 191.18 82.875C191.18 81.5859 192.234 80.6953 193.766 80.6953C195.297 80.6953 196.352 81.5859 196.352 82.875C196.352 84.1641 195.297 85.0547 193.766 85.0547ZM203.875 84.9297C202.047 84.9297 201.094 83.7031 201.094 81.3672V79.3594C201.094 77.0234 202.047 75.7969 203.867 75.7969C205.312 75.7969 206.32 76.8203 206.367 78.3438H207.766C207.719 75.9375 206.25 74.4922 203.875 74.4922C201.227 74.4922 199.688 76.2812 199.688 79.3594V81.3672C199.688 84.4453 201.227 86.2344 203.875 86.2344C206.18 86.2344 207.758 84.7578 207.758 82.5781H206.367C206.328 84.0312 205.375 84.9297 203.875 84.9297ZM209.656 78.3438C209.656 80.4062 211.133 81.9219 213.148 81.9219C213.859 81.9219 214.656 81.5859 214.992 81.1328L215.109 81.1953C215.039 81.3203 214.984 81.4219 214.727 81.7734L211.656 86H213.234C213.32 85.8828 215.656 82.6016 215.758 82.4297C216.867 80.8203 217.32 79.625 217.32 78.3438C217.32 76.0938 215.719 74.4922 213.492 74.4922C211.266 74.4922 209.656 76.1094 209.656 78.3438ZM213.484 75.7188C214.906 75.7188 215.984 76.8281 215.984 78.2734C215.984 79.7266 214.906 80.8359 213.484 80.8359C212.07 80.8359 210.992 79.7266 210.992 78.2734C210.992 76.8281 212.07 75.7188 213.484 75.7188ZM226.312 86H227.766L224.133 74.7266H222.664L219.031 86H220.43L221.414 82.7656H225.336L226.312 86ZM223.359 76.3828H223.398L224.977 81.5859H221.773L223.359 76.3828ZM231.711 86V81.0859H236.523V79.8594H231.711V75.9922H236.977V74.7266H230.328V86H231.711Z" fill="#727272"/>
</g>
</g>
<defs>
<filter id="filter0_dddddddi_5_50" x="0" y="0" width="329" height="158" filterUnits="userSpaceOnUse" color-interpolation-filters="sRGB">
<feFlood flood-opacity="0" result="BackgroundImageFix"/>
<feColorMatrix in="SourceAlpha" type="matrix" values="0 0 0 0 0 0 0 0 0 0 0 0 0 0 0 0 0 0 127 0" result="hardAlpha"/>
<feOffset dy="0.56875"/>
<feGaussianBlur stdDeviation="0.896094"/>
<feColorMatrix type="matrix" values="0 0 0 0 0.0470588 0 0 0 0 0.0784314 0 0 0 0 0.129412 0 0 0 0.013 0"/>
<feBlend mode="normal" in2="BackgroundImageFix" result="effect1_dropShadow_5_50"/>
<feColorMatrix in="SourceAlpha" type="matrix" values="0 0 0 0 0 0 0 0 0 0 0 0 0 0 0 0 0 0 127 0" result="hardAlpha"/>
<feOffset dy="1.37109"/>
<feGaussianBlur stdDeviation="1.49854"/>
<feColorMatrix type="matrix" values="0 0 0 0 0.0470588 0 0 0 0 0.0784314 0 0 0 0 0.129412 0 0 0 0.016875 0"/>
<feBlend mode="normal" in2="effect1_dropShadow_5_50" result="effect2_dropShadow_5_50"/>
<feColorMatrix in="SourceAlpha" type="matrix" values="0 0 0 0 0 0 0 0 0 0 0 0 0 0 0 0 0 0 127 0" result="hardAlpha"/>
<feOffset dy="2.6"/>
<feGaussianBlur stdDeviation="2.51875"/>
<feColorMatrix type="matrix" values="0 0 0 0 0.0470588 0 0 0 0 0.0784314 0 0 0 0 0.129412 0 0 0 0.02 0"/>
<feBlend mode="normal" in2="effect2_dropShadow_5_50" result="effect3_dropShadow_5_50"/>
<feColorMatrix in="SourceAlpha" type="matrix" values="0 0 0 0 0 0 0 0 0 0 0 0 0 0 0 0 0 0 127 0" result="hardAlpha"/>
<feOffset dy="4.31641"/>
<feGaussianBlur stdDeviation="4.19287"/>
<feColorMatrix type="matrix" values="0 0 0 0 0.0470588 0 0 0 0 0.0784314 0 0 0 0 0.129412 0 0 0 0.023125 0"/>
<feBlend mode="normal" in2="effect3_dropShadow_5_50" result="effect4_dropShadow_5_50"/>
<feColorMatrix in="SourceAlpha" type="matrix" values="0 0 0 0 0 0 0 0 0 0 0 0 0 0 0 0 0 0 127 0" result="hardAlpha"/>
<feOffset dy="6.58125"/>
<feGaussianBlur stdDeviation="6.75703"/>
<feColorMatrix type="matrix" values="0 0 0 0 0.0470588 0 0 0 0 0.0784314 0 0 0 0 0.129412 0 0 0 0.027 0"/>
<feBlend mode="normal" in2="effect4_dropShadow_5_50" result="effect5_dropShadow_5_50"/>
<feColorMatrix in="SourceAlpha" type="matrix" values="0 0 0 0 0 0 0 0 0 0 0 0 0 0 0 0 0 0 127 0" result="hardAlpha"/>
<feOffset dy="9.45547"/>
<feGaussianBlur stdDeviation="10.4474"/>
<feColorMatrix type="matrix" values="0 0 0 0 0.0470588 0 0 0 0 0.0784314 0 0 0 0 0.129412 0 0 0 0.032375 0"/>
<feBlend mode="normal" in2="effect5_dropShadow_5_50" result="effect6_dropShadow_5_50"/>
<feColorMatrix in="SourceAlpha" type="matrix" values="0 0 0 0 0 0 0 0 0 0 0 0 0 0 0 0 0 0 127 0" result="hardAlpha"/>
<feOffset dy="13"/>
<feGaussianBlur stdDeviation="15.5"/>
<feColorMatrix type="matrix" values="0 0 0 0 0.0468229 0 0 0 0 0.0797604 0 0 0 0 0.129167 0 0 0 0.04 0"/>
<feBlend mode="normal" in2="effect6_dropShadow_5_50" result="effect7_dropShadow_5_50"/>
<feBlend mode="normal" in="SourceGraphic" in2="effect7_dropShadow_5_50" result="shape"/>
<feColorMatrix in="SourceAlpha" type="matrix" values="0 0 0 0 0 0 0 0 0 0 0 0 0 0 0 0 0 0 127 0" result="hardAlpha"/>
<feOffset dy="2"/>
<feGaussianBlur stdDeviation="0.5"/>
<feComposite in2="hardAlpha" operator="arithmetic" k2="-1" k3="1"/>
<feColorMatrix type="matrix" values="0 0 0 0 1 0 0 0 0 1 0 0 0 0 1 0 0 0 1 0"/>
<feBlend mode="normal" in2="shape" result="effect8_innerShadow_5_50"/>
</filter>
<filter id="filter1_d_5_50" x="164" y="39" width="113" height="54" filterUnits="userSpaceOnUse" color-interpolation-filters="sRGB">
<feFlood flood-opacity="0" result="BackgroundImageFix"/>
<feColorMatrix in="SourceAlpha" type="matrix" values="0 0 0 0 0 0 0 0 0 0 0 0 0 0 0 0 0 0 127 0" result="hardAlpha"/>
<feOffset/>
<feGaussianBlur stdDeviation="1.5"/>
<feColorMatrix type="matrix" values="0 0 0 0 1 0 0 0 0 1 0 0 0 0 1 0 0 0 1 0"/>
<feBlend mode="normal" in2="BackgroundImageFix" result="effect1_dropShadow_5_50"/>
<feBlend mode="normal" in="SourceGraphic" in2="effect1_dropShadow_5_50" result="shape"/>
</filter>
</defs>
</svg>
