<svg width="323" height="158" viewBox="0 0 323 158" fill="none" xmlns="http://www.w3.org/2000/svg">
<g filter="url(#filter0_dddddddi_5_58)">
<path d="M31 66C31 49.1984 31 40.7976 34.2698 34.3803C37.146 28.7354 41.7354 24.146 47.3803 21.2698C53.7976 18 62.1984 18 79 18H244C260.802 18 269.202 18 275.62 21.2698C281.265 24.146 285.854 28.7354 288.73 34.3803C292 40.7976 292 49.1984 292 66C292 82.8016 292 91.2024 288.73 97.6197C285.854 103.265 281.265 107.854 275.62 110.73C269.202 114 260.802 114 244 114H79C62.1984 114 53.7976 114 47.3803 110.73C41.7354 107.854 37.146 103.265 34.2698 97.6197C31 91.2024 31 82.8016 31 66Z" fill="#F9F9FA"/>
<path d="M55 66C55 56.6444 55 51.9667 57.1459 48.5516C58.2648 46.7707 59.7707 45.2648 61.5516 44.1459C64.9667 42 69.6444 42 79 42H127C136.356 42 141.033 42 144.448 44.1459C146.229 45.2648 147.735 46.7707 148.854 48.5516C151 51.9667 151 56.6444 151 66C151 75.3556 151 80.0333 148.854 83.4484C147.735 85.2293 146.229 86.7352 144.448 87.8541C141.033 90 136.356 90 127 90H79C69.6444 90 64.9667 90 61.5516 87.8541C59.7707 86.7352 58.2648 85.2293 57.1459 83.4484C55 80.0333 55 75.3556 55 66Z" fill="#91CEC2"/>
<g filter="url(#filter1_d_5_58)">
<path d="M176.767 63V49.5723H181.59V47.499H169.526V49.5723H174.36V63H176.767ZM191.849 51.334H189.518V58.0586C189.518 59.9062 188.454 61.1201 186.714 61.1201C185.027 61.1201 184.179 60.1641 184.179 58.3701V51.334H181.848V58.8105C181.848 61.4854 183.395 63.1289 185.94 63.1289C187.724 63.1289 188.905 62.3877 189.582 61.002H189.625V63H191.849V51.334ZM194.233 63H196.564V56.0391C196.564 54.3955 197.531 53.332 199.067 53.332C199.529 53.332 199.938 53.3965 200.131 53.4717V51.291C199.948 51.248 199.658 51.2158 199.314 51.2158C197.939 51.2158 196.865 52 196.5 53.2998H196.457V51.334H194.233V63ZM205.523 51.2158C202.559 51.2158 200.604 53.5576 200.604 57.1562C200.604 60.7656 202.548 63.1182 205.47 63.1182C207.135 63.1182 208.499 62.3555 209.176 61.0879H209.229V66.8672H211.55V51.334H209.294V53.2676H209.251C208.563 51.9678 207.21 51.2158 205.523 51.2158ZM206.082 61.1416C204.202 61.1416 202.988 59.5947 202.988 57.167C202.988 54.75 204.202 53.1924 206.082 53.1924C207.962 53.1924 209.229 54.8037 209.229 57.167C209.229 59.541 207.962 61.1416 206.082 61.1416ZM223.882 51.334H221.551V58.0586C221.551 59.9062 220.487 61.1201 218.747 61.1201C217.061 61.1201 216.212 60.1641 216.212 58.3701V51.334H213.881V58.8105C213.881 61.4854 215.428 63.1289 217.974 63.1289C219.757 63.1289 220.938 62.3877 221.615 61.002H221.658V63H223.882V51.334ZM231.262 63.1396C234.635 63.1396 236.772 60.8408 236.772 57.167C236.772 53.4932 234.624 51.1836 231.262 51.1836C227.899 51.1836 225.74 53.5039 225.74 57.167C225.74 60.8408 227.889 63.1396 231.262 63.1396ZM231.262 61.2061C229.285 61.2061 228.104 59.7129 228.104 57.167C228.104 54.6318 229.285 53.1172 231.262 53.1172C233.238 53.1172 234.409 54.6211 234.409 57.167C234.409 59.7129 233.238 61.2061 231.262 61.2061ZM238.728 63H241.059V51.334H238.728V63ZM239.898 49.6689C240.65 49.6689 241.263 49.0674 241.263 48.3262C241.263 47.5635 240.65 46.9834 239.898 46.9834C239.146 46.9834 238.534 47.5635 238.534 48.3262C238.534 49.0674 239.146 49.6689 239.898 49.6689ZM243.347 54.6533C243.347 56.2646 244.389 57.3389 246.494 57.8545L248.578 58.3701C249.803 58.6816 250.265 59.0684 250.265 59.8096C250.265 60.7549 249.352 61.3564 247.901 61.3564C246.419 61.3564 245.517 60.7441 245.334 59.627H243.035C243.207 61.7324 245.065 63.1396 247.783 63.1396C250.608 63.1396 252.585 61.7002 252.585 59.6162C252.585 57.8975 251.715 57.0488 249.362 56.4795L247.429 56.0176C246.193 55.7168 245.613 55.2334 245.613 54.5244C245.613 53.6006 246.494 52.9883 247.815 52.9883C249.147 52.9883 250.039 53.6328 250.136 54.6641H252.327C252.273 52.6338 250.426 51.1943 247.869 51.1943C245.184 51.1943 243.347 52.6016 243.347 54.6533ZM259.331 53.085C261.028 53.085 262.178 54.2881 262.231 56.1035H256.312C256.441 54.3096 257.655 53.085 259.331 53.085ZM262.221 59.584C261.898 60.6045 260.835 61.249 259.481 61.249C257.569 61.249 256.302 59.917 256.302 57.8975V57.7578H264.562V56.9414C264.562 53.4072 262.543 51.1836 259.342 51.1836C256.076 51.1836 253.949 53.5576 253.949 57.21C253.949 60.8623 256.055 63.1396 259.438 63.1396C262.06 63.1396 264.111 61.6787 264.444 59.584H262.221Z" fill="#3D3D3D"/>
<path d="M178.102 78.9766L178.336 77.8281H176.695L177.32 74.7266H176.203L175.578 77.8281H173.273L173.891 74.7266H172.773L172.156 77.8281H170.516L170.289 78.9766H171.93L171.414 81.625H169.773L169.531 82.7891H171.172L170.531 86H171.648L172.281 82.7891H174.594L173.953 86H175.07L175.711 82.7891H177.352L177.578 81.625H175.938L176.461 78.9766H178.102ZM173.023 78.9531H175.367L174.836 81.6562H172.5L173.023 78.9531ZM179.984 78.3438C179.984 80.4062 181.461 81.9219 183.477 81.9219C184.188 81.9219 184.984 81.5859 185.32 81.1328L185.438 81.1953C185.367 81.3203 185.312 81.4219 185.055 81.7734L181.984 86H183.562C183.648 85.8828 185.984 82.6016 186.086 82.4297C187.195 80.8203 187.648 79.625 187.648 78.3438C187.648 76.0938 186.047 74.4922 183.82 74.4922C181.594 74.4922 179.984 76.1094 179.984 78.3438ZM183.812 75.7188C185.234 75.7188 186.312 76.8281 186.312 78.2734C186.312 79.7266 185.234 80.8359 183.812 80.8359C182.398 80.8359 181.32 79.7266 181.32 78.2734C181.32 76.8281 182.398 75.7188 183.812 75.7188ZM197.984 86V84.7891H194.812V74.7266H193.461L190.102 76.9062V78.375L193.328 76.2891H193.453V84.7891H190.125V86H197.984ZM203.875 84.9297C202.047 84.9297 201.094 83.7031 201.094 81.3672V79.3594C201.094 77.0234 202.047 75.7969 203.867 75.7969C205.312 75.7969 206.32 76.8203 206.367 78.3438H207.766C207.719 75.9375 206.25 74.4922 203.875 74.4922C201.227 74.4922 199.688 76.2812 199.688 79.3594V81.3672C199.688 84.4453 201.227 86.2344 203.875 86.2344C206.18 86.2344 207.758 84.7578 207.758 82.5781H206.367C206.328 84.0312 205.375 84.9297 203.875 84.9297ZM217.016 84.7344H211.742V80.8594H216.727V79.6484H211.742V75.9922H217.016V74.7266H210.359V86H217.016V84.7344ZM223.656 84.9297C221.828 84.9297 220.875 83.7031 220.875 81.3672V79.3594C220.875 77.0234 221.828 75.7969 223.648 75.7969C225.094 75.7969 226.102 76.8203 226.148 78.3438H227.547C227.5 75.9375 226.031 74.4922 223.656 74.4922C221.008 74.4922 219.469 76.2812 219.469 79.3594V81.3672C219.469 84.4453 221.008 86.2344 223.656 86.2344C225.961 86.2344 227.539 84.7578 227.539 82.5781H226.148C226.109 84.0312 225.156 84.9297 223.656 84.9297ZM229.695 77.8984V77.9453H231.023V77.8984C231.023 76.5703 231.883 75.7031 233.18 75.7031C234.492 75.7031 235.344 76.5 235.344 77.7109C235.344 78.6016 235 79.2031 233.57 80.8047L229.758 85.0469V86H236.891V84.75H231.727V84.6172L234.383 81.7266C236.18 79.7656 236.711 78.8281 236.711 77.6562C236.711 75.7734 235.289 74.4922 233.219 74.4922C231.164 74.4922 229.695 75.9141 229.695 77.8984Z" fill="#727272"/>
</g>
</g>
<defs>
<filter id="filter0_dddddddi_5_58" x="0" y="0" width="323" height="158" filterUnits="userSpaceOnUse" color-interpolation-filters="sRGB">
<feFlood flood-opacity="0" result="BackgroundImageFix"/>
<feColorMatrix in="SourceAlpha" type="matrix" values="0 0 0 0 0 0 0 0 0 0 0 0 0 0 0 0 0 0 127 0" result="hardAlpha"/>
<feOffset dy="0.56875"/>
<feGaussianBlur stdDeviation="0.896094"/>
<feColorMatrix type="matrix" values="0 0 0 0 0.0470588 0 0 0 0 0.0784314 0 0 0 0 0.129412 0 0 0 0.013 0"/>
<feBlend mode="normal" in2="BackgroundImageFix" result="effect1_dropShadow_5_58"/>
<feColorMatrix in="SourceAlpha" type="matrix" values="0 0 0 0 0 0 0 0 0 0 0 0 0 0 0 0 0 0 127 0" result="hardAlpha"/>
<feOffset dy="1.37109"/>
<feGaussianBlur stdDeviation="1.49854"/>
<feColorMatrix type="matrix" values="0 0 0 0 0.0470588 0 0 0 0 0.0784314 0 0 0 0 0.129412 0 0 0 0.016875 0"/>
<feBlend mode="normal" in2="effect1_dropShadow_5_58" result="effect2_dropShadow_5_58"/>
<feColorMatrix in="SourceAlpha" type="matrix" values="0 0 0 0 0 0 0 0 0 0 0 0 0 0 0 0 0 0 127 0" result="hardAlpha"/>
<feOffset dy="2.6"/>
<feGaussianBlur stdDeviation="2.51875"/>
<feColorMatrix type="matrix" values="0 0 0 0 0.0470588 0 0 0 0 0.0784314 0 0 0 0 0.129412 0 0 0 0.02 0"/>
<feBlend mode="normal" in2="effect2_dropShadow_5_58" result="effect3_dropShadow_5_58"/>
<feColorMatrix in="SourceAlpha" type="matrix" values="0 0 0 0 0 0 0 0 0 0 0 0 0 0 0 0 0 0 127 0" result="hardAlpha"/>
<feOffset dy="4.31641"/>
<feGaussianBlur stdDeviation="4.19287"/>
<feColorMatrix type="matrix" values="0 0 0 0 0.0470588 0 0 0 0 0.0784314 0 0 0 0 0.129412 0 0 0 0.023125 0"/>
<feBlend mode="normal" in2="effect3_dropShadow_5_58" result="effect4_dropShadow_5_58"/>
<feColorMatrix in="SourceAlpha" type="matrix" values="0 0 0 0 0 0 0 0 0 0 0 0 0 0 0 0 0 0 127 0" result="hardAlpha"/>
<feOffset dy="6.58125"/>
<feGaussianBlur stdDeviation="6.75703"/>
<feColorMatrix type="matrix" values="0 0 0 0 0.0470588 0 0 0 0 0.0784314 0 0 0 0 0.129412 0 0 0 0.027 0"/>
<feBlend mode="normal" in2="effect4_dropShadow_5_58" result="effect5_dropShadow_5_58"/>
<feColorMatrix in="SourceAlpha" type="matrix" values="0 0 0 0 0 0 0 0 0 0 0 0 0 0 0 0 0 0 127 0" result="hardAlpha"/>
<feOffset dy="9.45547"/>
<feGaussianBlur stdDeviation="10.4474"/>
<feColorMatrix type="matrix" values="0 0 0 0 0.0470588 0 0 0 0 0.0784314 0 0 0 0 0.129412 0 0 0 0.032375 0"/>
<feBlend mode="normal" in2="effect5_dropShadow_5_58" result="effect6_dropShadow_5_58"/>
<feColorMatrix in="SourceAlpha" type="matrix" values="0 0 0 0 0 0 0 0 0 0 0 0 0 0 0 0 0 0 127 0" result="hardAlpha"/>
<feOffset dy="13"/>
<feGaussianBlur stdDeviation="15.5"/>
<feColorMatrix type="matrix" values="0 0 0 0 0.0468229 0 0 0 0 0.0797604 0 0 0 0 0.129167 0 0 0 0.04 0"/>
<feBlend mode="normal" in2="effect6_dropShadow_5_58" result="effect7_dropShadow_5_58"/>
<feBlend mode="normal" in="SourceGraphic" in2="effect7_dropShadow_5_58" result="shape"/>
<feColorMatrix in="SourceAlpha" type="matrix" values="0 0 0 0 0 0 0 0 0 0 0 0 0 0 0 0 0 0 127 0" result="hardAlpha"/>
<feOffset dy="2"/>
<feGaussianBlur stdDeviation="0.5"/>
<feComposite in2="hardAlpha" operator="arithmetic" k2="-1" k3="1"/>
<feColorMatrix type="matrix" values="0 0 0 0 1 0 0 0 0 1 0 0 0 0 1 0 0 0 1 0"/>
<feBlend mode="normal" in2="shape" result="effect8_innerShadow_5_58"/>
</filter>
<filter id="filter1_d_5_58" x="164" y="39" width="107" height="54" filterUnits="userSpaceOnUse" color-interpolation-filters="sRGB">
<feFlood flood-opacity="0" result="BackgroundImageFix"/>
<feColorMatrix in="SourceAlpha" type="matrix" values="0 0 0 0 0 0 0 0 0 0 0 0 0 0 0 0 0 0 127 0" result="hardAlpha"/>
<feOffset/>
<feGaussianBlur stdDeviation="1.5"/>
<feColorMatrix type="matrix" values="0 0 0 0 1 0 0 0 0 1 0 0 0 0 1 0 0 0 1 0"/>
<feBlend mode="normal" in2="BackgroundImageFix" result="effect1_dropShadow_5_58"/>
<feBlend mode="normal" in="SourceGraphic" in2="effect1_dropShadow_5_58" result="shape"/>
</filter>
</defs>
</svg>
