<svg width="361" height="158" viewBox="0 0 361 158" fill="none" xmlns="http://www.w3.org/2000/svg">
<g filter="url(#filter0_dddddddi_7_1)">
<path d="M31 66C31 49.1984 31 40.7976 34.2698 34.3803C37.146 28.7354 41.7354 24.146 47.3803 21.2698C53.7976 18 62.1984 18 79 18H282C298.802 18 307.202 18 313.62 21.2698C319.265 24.146 323.854 28.7354 326.73 34.3803C330 40.7976 330 49.1984 330 66C330 82.8016 330 91.2024 326.73 97.6197C323.854 103.265 319.265 107.854 313.62 110.73C307.202 114 298.802 114 282 114H79C62.1984 114 53.7976 114 47.3803 110.73C41.7354 107.854 37.146 103.265 34.2698 97.6197C31 91.2024 31 82.8016 31 66Z" fill="#F9F9FA"/>
<path d="M55 66C55 56.6444 55 51.9667 57.1459 48.5516C58.2648 46.7707 59.7707 45.2648 61.5516 44.1459C64.9667 42 69.6444 42 79 42H127C136.356 42 141.033 42 144.448 44.1459C146.229 45.2648 147.735 46.7707 148.854 48.5516C151 51.9667 151 56.6444 151 66C151 75.3556 151 80.0333 148.854 83.4484C147.735 85.2293 146.229 86.7352 144.448 87.8541C141.033 90 136.356 90 127 90H79C69.6444 90 64.9667 90 61.5516 87.8541C59.7707 86.7352 58.2648 85.2293 57.1459 83.4484C55 80.0333 55 75.3556 55 66Z" fill="#525D49"/>
<g filter="url(#filter1_d_7_1)">
<path d="M176.971 63.2578C180.537 63.2578 182.965 61.3779 183.556 58.1768H181.16C180.677 60.0459 179.141 61.1523 176.981 61.1523C174.135 61.1523 172.33 58.8643 172.33 55.2441C172.33 51.6562 174.156 49.3467 176.971 49.3467C179.076 49.3467 180.73 50.6465 181.16 52.6338H183.545C183.137 49.4004 180.483 47.2412 176.971 47.2412C172.642 47.2412 169.87 50.335 169.87 55.2441C169.87 60.1855 172.62 63.2578 176.971 63.2578ZM186.725 67.2432C189.109 67.2432 190.216 66.3408 191.215 63.5371L195.587 51.334H193.138L190.141 60.873H190.087L187.09 51.334H184.587L188.819 63.0322L188.637 63.6338C188.239 64.8691 187.627 65.3418 186.521 65.3418C186.316 65.3418 185.951 65.3311 185.779 65.2881V67.1787C185.962 67.2109 186.531 67.2432 186.725 67.2432ZM203.021 51.2158C201.398 51.2158 199.959 52.0107 199.304 53.2676H199.25V51.334H197.005V66.8672H199.336V61.0879H199.379C200.077 62.377 201.398 63.1182 203.074 63.1182C206.007 63.1182 207.951 60.7764 207.951 57.167C207.951 53.5469 205.996 51.2158 203.021 51.2158ZM202.43 61.1416C200.571 61.1416 199.325 59.5518 199.314 57.167C199.325 54.793 200.582 53.1924 202.43 53.1924C204.32 53.1924 205.566 54.7607 205.566 57.167C205.566 59.584 204.32 61.1416 202.43 61.1416ZM209.81 63H212.141V56.0391C212.141 54.3955 213.107 53.332 214.644 53.332C215.105 53.332 215.514 53.3965 215.707 53.4717V51.291C215.524 51.248 215.234 51.2158 214.891 51.2158C213.516 51.2158 212.441 52 212.076 53.2998H212.033V51.334H209.81V63ZM227.147 51.334H224.816V58.0586C224.816 59.9062 223.753 61.1201 222.013 61.1201C220.326 61.1201 219.478 60.1641 219.478 58.3701V51.334H217.146V58.8105C217.146 61.4854 218.693 63.1289 221.239 63.1289C223.022 63.1289 224.204 62.3877 224.881 61.002H224.924V63H227.147V51.334ZM229.339 54.6533C229.339 56.2646 230.381 57.3389 232.486 57.8545L234.57 58.3701C235.795 58.6816 236.257 59.0684 236.257 59.8096C236.257 60.7549 235.344 61.3564 233.894 61.3564C232.411 61.3564 231.509 60.7441 231.326 59.627H229.027C229.199 61.7324 231.058 63.1396 233.775 63.1396C236.601 63.1396 238.577 61.7002 238.577 59.6162C238.577 57.8975 237.707 57.0488 235.354 56.4795L233.421 56.0176C232.186 55.7168 231.605 55.2334 231.605 54.5244C231.605 53.6006 232.486 52.9883 233.808 52.9883C235.14 52.9883 236.031 53.6328 236.128 54.6641H238.319C238.266 52.6338 236.418 51.1943 233.861 51.1943C231.176 51.1943 229.339 52.6016 229.339 54.6533ZM259.127 56.5547V54.9756H252.746V56.9199H256.753V57.1885C256.721 59.541 254.98 61.1523 252.467 61.1523C249.513 61.1523 247.676 58.8643 247.676 55.1582C247.676 51.5166 249.459 49.3467 252.424 49.3467C254.443 49.3467 255.958 50.4531 256.538 52.376H259.009C258.472 49.2822 255.861 47.2412 252.413 47.2412C247.998 47.2412 245.216 50.292 245.216 55.1797C245.216 60.1533 248.009 63.2578 252.445 63.2578C256.646 63.2578 259.127 60.7549 259.127 56.5547ZM261.243 63H263.574V56.0391C263.574 54.3955 264.541 53.332 266.077 53.332C266.539 53.332 266.947 53.3965 267.141 53.4717V51.291C266.958 51.248 266.668 51.2158 266.324 51.2158C264.949 51.2158 263.875 52 263.51 53.2998H263.467V51.334H261.243V63ZM272.995 53.085C274.692 53.085 275.842 54.2881 275.896 56.1035H269.977C270.105 54.3096 271.319 53.085 272.995 53.085ZM275.885 59.584C275.562 60.6045 274.499 61.249 273.146 61.249C271.233 61.249 269.966 59.917 269.966 57.8975V57.7578H278.227V56.9414C278.227 53.4072 276.207 51.1836 273.006 51.1836C269.74 51.1836 267.613 53.5576 267.613 57.21C267.613 60.8623 269.719 63.1396 273.103 63.1396C275.724 63.1396 277.775 61.6787 278.108 59.584H275.885ZM284.962 53.085C286.659 53.085 287.809 54.2881 287.862 56.1035H281.943C282.072 54.3096 283.286 53.085 284.962 53.085ZM287.852 59.584C287.529 60.6045 286.466 61.249 285.112 61.249C283.2 61.249 281.933 59.917 281.933 57.8975V57.7578H290.193V56.9414C290.193 53.4072 288.174 51.1836 284.973 51.1836C281.707 51.1836 279.58 53.5576 279.58 57.21C279.58 60.8623 281.686 63.1396 285.069 63.1396C287.69 63.1396 289.742 61.6787 290.075 59.584H287.852ZM292.073 63H294.404V56.2646C294.404 54.4277 295.457 53.2031 297.219 53.2031C298.927 53.2031 299.743 54.1914 299.743 55.9639V63H302.074V55.5234C302.074 52.8379 300.603 51.2051 298.024 51.2051C296.22 51.2051 295.049 51.9248 294.34 53.2998H294.297V51.334H292.073V63Z" fill="#3D3D3D"/>
<path d="M178.102 78.9766L178.336 77.8281H176.695L177.32 74.7266H176.203L175.578 77.8281H173.273L173.891 74.7266H172.773L172.156 77.8281H170.516L170.289 78.9766H171.93L171.414 81.625H169.773L169.531 82.7891H171.172L170.531 86H171.648L172.281 82.7891H174.594L173.953 86H175.07L175.711 82.7891H177.352L177.578 81.625H175.938L176.461 78.9766H178.102ZM173.023 78.9531H175.367L174.836 81.6562H172.5L173.023 78.9531ZM184.094 84.9297C182.266 84.9297 181.312 83.7031 181.312 81.3672V79.3594C181.312 77.0234 182.266 75.7969 184.086 75.7969C185.531 75.7969 186.539 76.8203 186.586 78.3438H187.984C187.938 75.9375 186.469 74.4922 184.094 74.4922C181.445 74.4922 179.906 76.2812 179.906 79.3594V81.3672C179.906 84.4453 181.445 86.2344 184.094 86.2344C186.398 86.2344 187.977 84.7578 187.977 82.5781H186.586C186.547 84.0312 185.594 84.9297 184.094 84.9297ZM190.031 74.7266V86H193.188C196.383 86 197.992 84.1094 197.992 80.3438C197.992 76.6094 196.383 74.7266 193.188 74.7266H190.031ZM191.414 75.9922H193.062C195.445 75.9922 196.586 77.3984 196.586 80.3516C196.586 83.3359 195.453 84.7344 193.062 84.7344H191.414V75.9922ZM206.531 86H207.984L204.352 74.7266H202.883L199.25 86H200.648L201.633 82.7656H205.555L206.531 86ZM203.578 76.3828H203.617L205.195 81.5859H201.992L203.578 76.3828ZM209.656 78.3438C209.656 80.4062 211.133 81.9219 213.148 81.9219C213.859 81.9219 214.656 81.5859 214.992 81.1328L215.109 81.1953C215.039 81.3203 214.984 81.4219 214.727 81.7734L211.656 86H213.234C213.32 85.8828 215.656 82.6016 215.758 82.4297C216.867 80.8203 217.32 79.625 217.32 78.3438C217.32 76.0938 215.719 74.4922 213.492 74.4922C211.266 74.4922 209.656 76.1094 209.656 78.3438ZM213.484 75.7188C214.906 75.7188 215.984 76.8281 215.984 78.2734C215.984 79.7266 214.906 80.8359 213.484 80.8359C212.07 80.8359 210.992 79.7266 210.992 78.2734C210.992 76.8281 212.07 75.7188 213.484 75.7188ZM223.438 86.25C225.781 86.25 227.406 84.9062 227.406 82.9844C227.406 81.5625 226.477 80.3984 225.109 80.1094V79.9844C226.258 79.6641 226.953 78.7031 226.953 77.4766C226.953 75.7188 225.492 74.4766 223.438 74.4766C221.383 74.4766 219.914 75.7188 219.914 77.4766C219.914 78.7031 220.625 79.6719 221.758 79.9844V80.1094C220.367 80.4453 219.461 81.5859 219.461 82.9844C219.461 84.9062 221.094 86.25 223.438 86.25ZM223.438 79.5156C222.133 79.5156 221.266 78.75 221.266 77.5938C221.266 76.4453 222.133 75.6797 223.438 75.6797C224.742 75.6797 225.602 76.4453 225.602 77.5938C225.602 78.75 224.742 79.5156 223.438 79.5156ZM223.438 85.0547C221.906 85.0547 220.852 84.1641 220.852 82.875C220.852 81.5859 221.906 80.6953 223.438 80.6953C224.969 80.6953 226.023 81.5859 226.023 82.875C226.023 84.1641 224.969 85.0547 223.438 85.0547ZM237.156 82.3828C237.156 80.3281 235.672 78.8047 233.664 78.8047C232.945 78.8047 232.133 79.1406 231.797 79.5938L231.68 79.5312C231.734 79.4062 231.703 79.4375 232.047 78.9531L235.125 74.7266H233.539C233.461 74.8438 231.117 78.125 231.016 78.2969C229.938 79.8672 229.492 81.0625 229.492 82.3828C229.492 84.625 231.094 86.2344 233.312 86.2344C235.547 86.2344 237.156 84.6172 237.156 82.3828ZM233.32 85.0078C231.906 85.0078 230.828 83.8984 230.828 82.4531C230.828 81 231.906 79.8906 233.32 79.8906C234.742 79.8906 235.82 81 235.82 82.4531C235.82 83.8984 234.742 85.0078 233.32 85.0078Z" fill="#727272"/>
</g>
</g>
<defs>
<filter id="filter0_dddddddi_7_1" x="0" y="0" width="361" height="158" filterUnits="userSpaceOnUse" color-interpolation-filters="sRGB">
<feFlood flood-opacity="0" result="BackgroundImageFix"/>
<feColorMatrix in="SourceAlpha" type="matrix" values="0 0 0 0 0 0 0 0 0 0 0 0 0 0 0 0 0 0 127 0" result="hardAlpha"/>
<feOffset dy="0.56875"/>
<feGaussianBlur stdDeviation="0.896094"/>
<feColorMatrix type="matrix" values="0 0 0 0 0.0470588 0 0 0 0 0.0784314 0 0 0 0 0.129412 0 0 0 0.013 0"/>
<feBlend mode="normal" in2="BackgroundImageFix" result="effect1_dropShadow_7_1"/>
<feColorMatrix in="SourceAlpha" type="matrix" values="0 0 0 0 0 0 0 0 0 0 0 0 0 0 0 0 0 0 127 0" result="hardAlpha"/>
<feOffset dy="1.37109"/>
<feGaussianBlur stdDeviation="1.49854"/>
<feColorMatrix type="matrix" values="0 0 0 0 0.0470588 0 0 0 0 0.0784314 0 0 0 0 0.129412 0 0 0 0.016875 0"/>
<feBlend mode="normal" in2="effect1_dropShadow_7_1" result="effect2_dropShadow_7_1"/>
<feColorMatrix in="SourceAlpha" type="matrix" values="0 0 0 0 0 0 0 0 0 0 0 0 0 0 0 0 0 0 127 0" result="hardAlpha"/>
<feOffset dy="2.6"/>
<feGaussianBlur stdDeviation="2.51875"/>
<feColorMatrix type="matrix" values="0 0 0 0 0.0470588 0 0 0 0 0.0784314 0 0 0 0 0.129412 0 0 0 0.02 0"/>
<feBlend mode="normal" in2="effect2_dropShadow_7_1" result="effect3_dropShadow_7_1"/>
<feColorMatrix in="SourceAlpha" type="matrix" values="0 0 0 0 0 0 0 0 0 0 0 0 0 0 0 0 0 0 127 0" result="hardAlpha"/>
<feOffset dy="4.31641"/>
<feGaussianBlur stdDeviation="4.19287"/>
<feColorMatrix type="matrix" values="0 0 0 0 0.0470588 0 0 0 0 0.0784314 0 0 0 0 0.129412 0 0 0 0.023125 0"/>
<feBlend mode="normal" in2="effect3_dropShadow_7_1" result="effect4_dropShadow_7_1"/>
<feColorMatrix in="SourceAlpha" type="matrix" values="0 0 0 0 0 0 0 0 0 0 0 0 0 0 0 0 0 0 127 0" result="hardAlpha"/>
<feOffset dy="6.58125"/>
<feGaussianBlur stdDeviation="6.75703"/>
<feColorMatrix type="matrix" values="0 0 0 0 0.0470588 0 0 0 0 0.0784314 0 0 0 0 0.129412 0 0 0 0.027 0"/>
<feBlend mode="normal" in2="effect4_dropShadow_7_1" result="effect5_dropShadow_7_1"/>
<feColorMatrix in="SourceAlpha" type="matrix" values="0 0 0 0 0 0 0 0 0 0 0 0 0 0 0 0 0 0 127 0" result="hardAlpha"/>
<feOffset dy="9.45547"/>
<feGaussianBlur stdDeviation="10.4474"/>
<feColorMatrix type="matrix" values="0 0 0 0 0.0470588 0 0 0 0 0.0784314 0 0 0 0 0.129412 0 0 0 0.032375 0"/>
<feBlend mode="normal" in2="effect5_dropShadow_7_1" result="effect6_dropShadow_7_1"/>
<feColorMatrix in="SourceAlpha" type="matrix" values="0 0 0 0 0 0 0 0 0 0 0 0 0 0 0 0 0 0 127 0" result="hardAlpha"/>
<feOffset dy="13"/>
<feGaussianBlur stdDeviation="15.5"/>
<feColorMatrix type="matrix" values="0 0 0 0 0.0468229 0 0 0 0 0.0797604 0 0 0 0 0.129167 0 0 0 0.04 0"/>
<feBlend mode="normal" in2="effect6_dropShadow_7_1" result="effect7_dropShadow_7_1"/>
<feBlend mode="normal" in="SourceGraphic" in2="effect7_dropShadow_7_1" result="shape"/>
<feColorMatrix in="SourceAlpha" type="matrix" values="0 0 0 0 0 0 0 0 0 0 0 0 0 0 0 0 0 0 127 0" result="hardAlpha"/>
<feOffset dy="2"/>
<feGaussianBlur stdDeviation="0.5"/>
<feComposite in2="hardAlpha" operator="arithmetic" k2="-1" k3="1"/>
<feColorMatrix type="matrix" values="0 0 0 0 1 0 0 0 0 1 0 0 0 0 1 0 0 0 1 0"/>
<feBlend mode="normal" in2="shape" result="effect8_innerShadow_7_1"/>
</filter>
<filter id="filter1_d_7_1" x="164" y="39" width="145" height="54" filterUnits="userSpaceOnUse" color-interpolation-filters="sRGB">
<feFlood flood-opacity="0" result="BackgroundImageFix"/>
<feColorMatrix in="SourceAlpha" type="matrix" values="0 0 0 0 0 0 0 0 0 0 0 0 0 0 0 0 0 0 127 0" result="hardAlpha"/>
<feOffset/>
<feGaussianBlur stdDeviation="1.5"/>
<feColorMatrix type="matrix" values="0 0 0 0 1 0 0 0 0 1 0 0 0 0 1 0 0 0 1 0"/>
<feBlend mode="normal" in2="BackgroundImageFix" result="effect1_dropShadow_7_1"/>
<feBlend mode="normal" in="SourceGraphic" in2="effect1_dropShadow_7_1" result="shape"/>
</filter>
</defs>
</svg>
