<svg width="361" height="158" viewBox="0 0 361 158" fill="none" xmlns="http://www.w3.org/2000/svg">
<g filter="url(#filter0_dddddddi_5_13)">
<path d="M31 66C31 49.1984 31 40.7976 34.2698 34.3803C37.146 28.7354 41.7354 24.146 47.3803 21.2698C53.7976 18 62.1984 18 79 18H282C298.802 18 307.202 18 313.62 21.2698C319.265 24.146 323.854 28.7354 326.73 34.3803C330 40.7976 330 49.1984 330 66C330 82.8016 330 91.2024 326.73 97.6197C323.854 103.265 319.265 107.854 313.62 110.73C307.202 114 298.802 114 282 114H79C62.1984 114 53.7976 114 47.3803 110.73C41.7354 107.854 37.146 103.265 34.2698 97.6197C31 91.2024 31 82.8016 31 66Z" fill="#F9F9FA"/>
<path d="M55 66C55 56.6444 55 51.9667 57.1459 48.5516C58.2648 46.7707 59.7707 45.2648 61.5516 44.1459C64.9667 42 69.6444 42 79 42H127C136.356 42 141.033 42 144.448 44.1459C146.229 45.2648 147.735 46.7707 148.854 48.5516C151 51.9667 151 56.6444 151 66C151 75.3556 151 80.0333 148.854 83.4484C147.735 85.2293 146.229 86.7352 144.448 87.8541C141.033 90 136.356 90 127 90H79C69.6444 90 64.9667 90 61.5516 87.8541C59.7707 86.7352 58.2648 85.2293 57.1459 83.4484C55 80.0333 55 75.3556 55 66Z" fill="#638A8D"/>
<g filter="url(#filter1_d_5_13)">
<path d="M172.771 63V51.5811H172.867L180.902 63H183.072V47.499H180.73V58.9287H180.645L172.609 47.499H170.429V63H172.771ZM190.699 63.1396C194.072 63.1396 196.21 60.8408 196.21 57.167C196.21 53.4932 194.062 51.1836 190.699 51.1836C187.337 51.1836 185.178 53.5039 185.178 57.167C185.178 60.8408 187.326 63.1396 190.699 63.1396ZM190.699 61.2061C188.723 61.2061 187.541 59.7129 187.541 57.167C187.541 54.6318 188.723 53.1172 190.699 53.1172C192.676 53.1172 193.847 54.6211 193.847 57.167C193.847 59.7129 192.676 61.2061 190.699 61.2061ZM198.079 63H200.41V56.0391C200.41 54.3955 201.377 53.332 202.913 53.332C203.375 53.332 203.783 53.3965 203.977 53.4717V51.291C203.794 51.248 203.504 51.2158 203.16 51.2158C201.785 51.2158 200.711 52 200.346 53.2998H200.303V51.334H198.079V63ZM206.168 48.7129V51.334H204.557V53.1709H206.168V59.9277C206.168 62.1836 207.07 63.0752 209.401 63.0752C209.906 63.0752 210.454 63.0215 210.712 62.957V61.1201C210.562 61.1416 210.164 61.1738 209.917 61.1738C208.939 61.1738 208.488 60.7012 208.488 59.6914V53.1709H210.723V51.334H208.488V48.7129H206.168ZM212.785 63H215.116V56.3184C215.116 54.4492 216.212 53.2031 218.027 53.2031C219.735 53.2031 220.605 54.2559 220.605 55.9961V63H222.937V55.5449C222.937 52.9131 221.4 51.2051 218.833 51.2051C217.05 51.2051 215.847 51.9248 215.148 53.2998H215.095V46.8008H212.785V63ZM230.134 53.085C231.831 53.085 232.98 54.2881 233.034 56.1035H227.115C227.244 54.3096 228.458 53.085 230.134 53.085ZM233.023 59.584C232.701 60.6045 231.638 61.249 230.284 61.249C228.372 61.249 227.104 59.917 227.104 57.8975V57.7578H235.365V56.9414C235.365 53.4072 233.346 51.1836 230.145 51.1836C226.879 51.1836 224.752 53.5576 224.752 57.21C224.752 60.8623 226.857 63.1396 230.241 63.1396C232.862 63.1396 234.914 61.6787 235.247 59.584H233.023ZM237.245 63H239.576V56.0391C239.576 54.3955 240.543 53.332 242.079 53.332C242.541 53.332 242.949 53.3965 243.143 53.4717V51.291C242.96 51.248 242.67 51.2158 242.326 51.2158C240.951 51.2158 239.877 52 239.512 53.2998H239.469V51.334H237.245V63ZM244.636 63H246.967V56.2646C246.967 54.4277 248.02 53.2031 249.781 53.2031C251.489 53.2031 252.306 54.1914 252.306 55.9639V63H254.637V55.5234C254.637 52.8379 253.165 51.2051 250.587 51.2051C248.782 51.2051 247.611 51.9248 246.902 53.2998H246.859V51.334H244.636V63ZM268.645 63C271.953 63 273.94 61.3457 273.94 58.6172C273.94 56.5547 272.512 55.0615 270.417 54.8252V54.7393C271.964 54.4814 273.167 53.0098 273.167 51.3662C273.167 49.0244 271.362 47.499 268.623 47.499H262.274V63H268.645ZM264.681 49.4648H268.032C269.783 49.4648 270.771 50.2598 270.771 51.6992C270.771 53.2354 269.622 54.0947 267.527 54.0947H264.681V49.4648ZM264.681 61.0342V55.9316H268.021C270.288 55.9316 271.48 56.791 271.48 58.4668C271.48 60.1426 270.331 61.0342 268.161 61.0342H264.681ZM275.885 63H278.216V46.8008H275.885V63ZM290.655 51.334H288.324V58.0586C288.324 59.9062 287.261 61.1201 285.521 61.1201C283.834 61.1201 282.985 60.1641 282.985 58.3701V51.334H280.654V58.8105C280.654 61.4854 282.201 63.1289 284.747 63.1289C286.53 63.1289 287.712 62.3877 288.389 61.002H288.432V63H290.655V51.334ZM297.896 53.085C299.593 53.085 300.742 54.2881 300.796 56.1035H294.877C295.006 54.3096 296.22 53.085 297.896 53.085ZM300.785 59.584C300.463 60.6045 299.399 61.249 298.046 61.249C296.134 61.249 294.866 59.917 294.866 57.8975V57.7578H303.127V56.9414C303.127 53.4072 301.107 51.1836 297.906 51.1836C294.641 51.1836 292.514 53.5576 292.514 57.21C292.514 60.8623 294.619 63.1396 298.003 63.1396C300.624 63.1396 302.676 61.6787 303.009 59.584H300.785Z" fill="#3D3D3D"/>
<path d="M178.102 78.9766L178.336 77.8281H176.695L177.32 74.7266H176.203L175.578 77.8281H173.273L173.891 74.7266H172.773L172.156 77.8281H170.516L170.289 78.9766H171.93L171.414 81.625H169.773L169.531 82.7891H171.172L170.531 86H171.648L172.281 82.7891H174.594L173.953 86H175.07L175.711 82.7891H177.352L177.578 81.625H175.938L176.461 78.9766H178.102ZM173.023 78.9531H175.367L174.836 81.6562H172.5L173.023 78.9531ZM187.703 82.3828C187.703 80.3281 186.219 78.8047 184.211 78.8047C183.492 78.8047 182.68 79.1406 182.344 79.5938L182.227 79.5312C182.281 79.4062 182.25 79.4375 182.594 78.9531L185.672 74.7266H184.086C184.008 74.8438 181.664 78.125 181.562 78.2969C180.484 79.8672 180.039 81.0625 180.039 82.3828C180.039 84.625 181.641 86.2344 183.859 86.2344C186.094 86.2344 187.703 84.6172 187.703 82.3828ZM183.867 85.0078C182.453 85.0078 181.375 83.8984 181.375 82.4531C181.375 81 182.453 79.8906 183.867 79.8906C185.289 79.8906 186.367 81 186.367 82.4531C186.367 83.8984 185.289 85.0078 183.867 85.0078ZM192.352 80.7734H193.641C195.203 80.7734 196.195 81.6094 196.195 82.9219C196.195 84.1953 195.234 84.9922 193.688 84.9922C192.281 84.9922 191.281 84.2109 191.156 83.0078H189.852C189.953 84.9531 191.5 86.2344 193.727 86.2344C195.977 86.2344 197.586 84.8672 197.586 82.9531C197.586 81.4141 196.695 80.3594 195.195 80.1641V80.0391C196.406 79.7422 197.117 78.7734 197.117 77.4141C197.117 75.7031 195.68 74.4922 193.664 74.4922C191.578 74.4922 190.203 75.7031 190.07 77.6562H191.391C191.5 76.4453 192.344 75.7031 193.609 75.7031C194.883 75.7031 195.727 76.4609 195.727 77.6094C195.727 78.7891 194.844 79.6172 193.578 79.6172H192.352V80.7734ZM203.656 86.25C206 86.25 207.625 84.9062 207.625 82.9844C207.625 81.5625 206.695 80.3984 205.328 80.1094V79.9844C206.477 79.6641 207.172 78.7031 207.172 77.4766C207.172 75.7188 205.711 74.4766 203.656 74.4766C201.602 74.4766 200.133 75.7188 200.133 77.4766C200.133 78.7031 200.844 79.6719 201.977 79.9844V80.1094C200.586 80.4453 199.68 81.5859 199.68 82.9844C199.68 84.9062 201.312 86.25 203.656 86.25ZM203.656 79.5156C202.352 79.5156 201.484 78.75 201.484 77.5938C201.484 76.4453 202.352 75.6797 203.656 75.6797C204.961 75.6797 205.82 76.4453 205.82 77.5938C205.82 78.75 204.961 79.5156 203.656 79.5156ZM203.656 85.0547C202.125 85.0547 201.07 84.1641 201.07 82.875C201.07 81.5859 202.125 80.6953 203.656 80.6953C205.188 80.6953 206.242 81.5859 206.242 82.875C206.242 84.1641 205.188 85.0547 203.656 85.0547ZM216.422 86H217.875L214.242 74.7266H212.773L209.141 86H210.539L211.523 82.7656H215.445L216.422 86ZM213.469 76.3828H213.508L215.086 81.5859H211.883L213.469 76.3828ZM223.438 86.25C225.781 86.25 227.406 84.9062 227.406 82.9844C227.406 81.5625 226.477 80.3984 225.109 80.1094V79.9844C226.258 79.6641 226.953 78.7031 226.953 77.4766C226.953 75.7188 225.492 74.4766 223.438 74.4766C221.383 74.4766 219.914 75.7188 219.914 77.4766C219.914 78.7031 220.625 79.6719 221.758 79.9844V80.1094C220.367 80.4453 219.461 81.5859 219.461 82.9844C219.461 84.9062 221.094 86.25 223.438 86.25ZM223.438 79.5156C222.133 79.5156 221.266 78.75 221.266 77.5938C221.266 76.4453 222.133 75.6797 223.438 75.6797C224.742 75.6797 225.602 76.4453 225.602 77.5938C225.602 78.75 224.742 79.5156 223.438 79.5156ZM223.438 85.0547C221.906 85.0547 220.852 84.1641 220.852 82.875C220.852 81.5859 221.906 80.6953 223.438 80.6953C224.969 80.6953 226.023 81.5859 226.023 82.875C226.023 84.1641 224.969 85.0547 223.438 85.0547ZM229.594 74.7266V86H232.75C235.945 86 237.555 84.1094 237.555 80.3438C237.555 76.6094 235.945 74.7266 232.75 74.7266H229.594ZM230.977 75.9922H232.625C235.008 75.9922 236.148 77.3984 236.148 80.3516C236.148 83.3359 235.016 84.7344 232.625 84.7344H230.977V75.9922Z" fill="#727272"/>
</g>
</g>
<defs>
<filter id="filter0_dddddddi_5_13" x="0" y="0" width="361" height="158" filterUnits="userSpaceOnUse" color-interpolation-filters="sRGB">
<feFlood flood-opacity="0" result="BackgroundImageFix"/>
<feColorMatrix in="SourceAlpha" type="matrix" values="0 0 0 0 0 0 0 0 0 0 0 0 0 0 0 0 0 0 127 0" result="hardAlpha"/>
<feOffset dy="0.56875"/>
<feGaussianBlur stdDeviation="0.896094"/>
<feColorMatrix type="matrix" values="0 0 0 0 0.0470588 0 0 0 0 0.0784314 0 0 0 0 0.129412 0 0 0 0.013 0"/>
<feBlend mode="normal" in2="BackgroundImageFix" result="effect1_dropShadow_5_13"/>
<feColorMatrix in="SourceAlpha" type="matrix" values="0 0 0 0 0 0 0 0 0 0 0 0 0 0 0 0 0 0 127 0" result="hardAlpha"/>
<feOffset dy="1.37109"/>
<feGaussianBlur stdDeviation="1.49854"/>
<feColorMatrix type="matrix" values="0 0 0 0 0.0470588 0 0 0 0 0.0784314 0 0 0 0 0.129412 0 0 0 0.016875 0"/>
<feBlend mode="normal" in2="effect1_dropShadow_5_13" result="effect2_dropShadow_5_13"/>
<feColorMatrix in="SourceAlpha" type="matrix" values="0 0 0 0 0 0 0 0 0 0 0 0 0 0 0 0 0 0 127 0" result="hardAlpha"/>
<feOffset dy="2.6"/>
<feGaussianBlur stdDeviation="2.51875"/>
<feColorMatrix type="matrix" values="0 0 0 0 0.0470588 0 0 0 0 0.0784314 0 0 0 0 0.129412 0 0 0 0.02 0"/>
<feBlend mode="normal" in2="effect2_dropShadow_5_13" result="effect3_dropShadow_5_13"/>
<feColorMatrix in="SourceAlpha" type="matrix" values="0 0 0 0 0 0 0 0 0 0 0 0 0 0 0 0 0 0 127 0" result="hardAlpha"/>
<feOffset dy="4.31641"/>
<feGaussianBlur stdDeviation="4.19287"/>
<feColorMatrix type="matrix" values="0 0 0 0 0.0470588 0 0 0 0 0.0784314 0 0 0 0 0.129412 0 0 0 0.023125 0"/>
<feBlend mode="normal" in2="effect3_dropShadow_5_13" result="effect4_dropShadow_5_13"/>
<feColorMatrix in="SourceAlpha" type="matrix" values="0 0 0 0 0 0 0 0 0 0 0 0 0 0 0 0 0 0 127 0" result="hardAlpha"/>
<feOffset dy="6.58125"/>
<feGaussianBlur stdDeviation="6.75703"/>
<feColorMatrix type="matrix" values="0 0 0 0 0.0470588 0 0 0 0 0.0784314 0 0 0 0 0.129412 0 0 0 0.027 0"/>
<feBlend mode="normal" in2="effect4_dropShadow_5_13" result="effect5_dropShadow_5_13"/>
<feColorMatrix in="SourceAlpha" type="matrix" values="0 0 0 0 0 0 0 0 0 0 0 0 0 0 0 0 0 0 127 0" result="hardAlpha"/>
<feOffset dy="9.45547"/>
<feGaussianBlur stdDeviation="10.4474"/>
<feColorMatrix type="matrix" values="0 0 0 0 0.0470588 0 0 0 0 0.0784314 0 0 0 0 0.129412 0 0 0 0.032375 0"/>
<feBlend mode="normal" in2="effect5_dropShadow_5_13" result="effect6_dropShadow_5_13"/>
<feColorMatrix in="SourceAlpha" type="matrix" values="0 0 0 0 0 0 0 0 0 0 0 0 0 0 0 0 0 0 127 0" result="hardAlpha"/>
<feOffset dy="13"/>
<feGaussianBlur stdDeviation="15.5"/>
<feColorMatrix type="matrix" values="0 0 0 0 0.0468229 0 0 0 0 0.0797604 0 0 0 0 0.129167 0 0 0 0.04 0"/>
<feBlend mode="normal" in2="effect6_dropShadow_5_13" result="effect7_dropShadow_5_13"/>
<feBlend mode="normal" in="SourceGraphic" in2="effect7_dropShadow_5_13" result="shape"/>
<feColorMatrix in="SourceAlpha" type="matrix" values="0 0 0 0 0 0 0 0 0 0 0 0 0 0 0 0 0 0 127 0" result="hardAlpha"/>
<feOffset dy="2"/>
<feGaussianBlur stdDeviation="0.5"/>
<feComposite in2="hardAlpha" operator="arithmetic" k2="-1" k3="1"/>
<feColorMatrix type="matrix" values="0 0 0 0 1 0 0 0 0 1 0 0 0 0 1 0 0 0 1 0"/>
<feBlend mode="normal" in2="shape" result="effect8_innerShadow_5_13"/>
</filter>
<filter id="filter1_d_5_13" x="164" y="39" width="145" height="54" filterUnits="userSpaceOnUse" color-interpolation-filters="sRGB">
<feFlood flood-opacity="0" result="BackgroundImageFix"/>
<feColorMatrix in="SourceAlpha" type="matrix" values="0 0 0 0 0 0 0 0 0 0 0 0 0 0 0 0 0 0 127 0" result="hardAlpha"/>
<feOffset/>
<feGaussianBlur stdDeviation="1.5"/>
<feColorMatrix type="matrix" values="0 0 0 0 1 0 0 0 0 1 0 0 0 0 1 0 0 0 1 0"/>
<feBlend mode="normal" in2="BackgroundImageFix" result="effect1_dropShadow_5_13"/>
<feBlend mode="normal" in="SourceGraphic" in2="effect1_dropShadow_5_13" result="shape"/>
</filter>
</defs>
</svg>
