<svg width="317" height="169" viewBox="0 0 317 169" fill="none" xmlns="http://www.w3.org/2000/svg">
<g filter="url(#filter0_dddddddi_5_60)">
<path d="M31 71.1765C31 49.4646 31 38.6087 36.355 30.8938C38.3977 27.9509 40.9509 25.3977 43.8938 23.355C51.6087 18 62.4646 18 84.1765 18H232.516C254.228 18 265.084 18 272.799 23.355C275.741 25.3977 278.295 27.9509 280.337 30.8938C285.692 38.6087 285.692 49.4646 285.692 71.1765C285.692 92.8883 285.692 103.744 280.337 111.459C278.295 114.402 275.741 116.955 272.799 118.998C265.084 124.353 254.228 124.353 232.516 124.353H84.1765C62.4646 124.353 51.6087 124.353 43.8938 118.998C40.9509 116.955 38.3977 114.402 36.355 111.459C31 103.744 31 92.8883 31 71.1765Z" fill="#F9F9FA"/>
<path d="M55 71.1765C55 61.8209 55 57.1432 57.1459 53.728C58.2648 51.9472 59.7707 50.4413 61.5516 49.3223C64.9667 47.1765 69.6444 47.1765 79 47.1765H127C136.356 47.1765 141.033 47.1765 144.448 49.3223C146.229 50.4413 147.735 51.9472 148.854 53.728C151 57.1432 151 61.8209 151 71.1765C151 80.532 151 85.2098 148.854 88.6249C147.735 90.4058 146.229 91.9116 144.448 93.0306C141.033 95.1765 136.356 95.1765 127 95.1765H79C69.6444 95.1765 64.9667 95.1765 61.5516 93.0306C59.7707 91.9116 58.2648 90.4058 57.1459 88.6249C55 85.2098 55 80.532 55 71.1765Z" fill="#1871AC"/>
<g filter="url(#filter1_d_5_60)">
<path d="M169.741 63.8581C169.892 66.6618 172.212 68.4343 175.649 68.4343C179.323 68.4343 181.633 66.6189 181.633 63.7185C181.633 61.4519 180.312 60.1736 177.132 59.4216L175.424 59.0027C173.426 58.5085 172.609 57.864 172.609 56.7683C172.609 55.3933 173.888 54.448 175.757 54.448C177.626 54.448 178.904 55.3825 179.044 56.9294H181.386C181.311 54.2546 179.065 52.4177 175.789 52.4177C172.48 52.4177 170.149 54.2546 170.149 56.9294C170.149 59.0886 171.471 60.4206 174.317 61.1081L176.326 61.5915C178.335 62.0857 179.184 62.8054 179.184 64.0085C179.184 65.3943 177.776 66.404 175.821 66.404C173.78 66.404 172.287 65.3943 172.115 63.8581H169.741ZM193.503 56.5105H191.172V63.2351C191.172 65.0827 190.108 66.2966 188.368 66.2966C186.682 66.2966 185.833 65.3405 185.833 63.5466V56.5105H183.502V63.987C183.502 66.6618 185.049 68.3054 187.595 68.3054C189.378 68.3054 190.56 67.5642 191.236 66.1784H191.279V68.1765H193.503V56.5105ZM195.888 68.1765H198.219V61.2155C198.219 59.572 199.186 58.5085 200.722 58.5085C201.184 58.5085 201.592 58.573 201.785 58.6482V56.4675C201.603 56.4245 201.312 56.3923 200.969 56.3923C199.594 56.3923 198.52 57.1765 198.154 58.4763H198.111V56.5105H195.888V68.1765ZM203.977 68.1765H206.297V58.3474H208.521V56.5105H206.275V55.5114C206.286 54.5124 206.684 54.0935 207.64 54.0935C207.951 54.0935 208.273 54.1257 208.51 54.1794V52.407C208.134 52.3425 207.747 52.2995 207.328 52.2995C204.965 52.2995 203.977 53.2556 203.977 55.4362V56.5105H202.365V58.3474H203.977V68.1765ZM222.131 68.1765C225.439 68.1765 227.427 66.5222 227.427 63.7937C227.427 61.7312 225.998 60.238 223.903 60.0017V59.9157C225.45 59.6579 226.653 58.1862 226.653 56.5427C226.653 54.2009 224.849 52.6755 222.109 52.6755H215.761V68.1765H222.131ZM218.167 54.6413H221.519C223.27 54.6413 224.258 55.4362 224.258 56.8757C224.258 58.4118 223.108 59.2712 221.014 59.2712H218.167V54.6413ZM218.167 66.2107V61.1081H221.508C223.774 61.1081 224.967 61.9675 224.967 63.6433C224.967 65.3191 223.817 66.2107 221.647 66.2107H218.167ZM229.371 68.1765H231.702V51.9773H229.371V68.1765ZM244.142 56.5105H241.811V63.2351C241.811 65.0827 240.747 66.2966 239.007 66.2966C237.32 66.2966 236.472 65.3405 236.472 63.5466V56.5105H234.141V63.987C234.141 66.6618 235.688 68.3054 238.233 68.3054C240.017 68.3054 241.198 67.5642 241.875 66.1784H241.918V68.1765H244.142V56.5105ZM251.382 58.2614C253.079 58.2614 254.229 59.4646 254.282 61.28H248.363C248.492 59.4861 249.706 58.2614 251.382 58.2614ZM254.271 64.7605C253.949 65.781 252.886 66.4255 251.532 66.4255C249.62 66.4255 248.353 65.0935 248.353 63.0739V62.9343H256.613V62.1179C256.613 58.5837 254.594 56.3601 251.393 56.3601C248.127 56.3601 246 58.7341 246 62.3864C246 66.0388 248.105 68.3161 251.489 68.3161C254.11 68.3161 256.162 66.8552 256.495 64.7605H254.271Z" fill="#3D3D3D"/>
<path d="M178.102 84.153L178.336 83.0046H176.695L177.32 79.903H176.203L175.578 83.0046H173.273L173.891 79.903H172.773L172.156 83.0046H170.516L170.289 84.153H171.93L171.414 86.8015H169.773L169.531 87.9655H171.172L170.531 91.1765H171.648L172.281 87.9655H174.594L173.953 91.1765H175.07L175.711 87.9655H177.352L177.578 86.8015H175.938L176.461 84.153H178.102ZM173.023 84.1296H175.367L174.836 86.8327H172.5L173.023 84.1296ZM188.094 91.1765V89.9655H184.922V79.903H183.57L180.211 82.0827V83.5515L183.438 81.4655H183.562V89.9655H180.234V91.1765H188.094ZM193.766 91.4265C196.109 91.4265 197.734 90.0827 197.734 88.1609C197.734 86.739 196.805 85.5749 195.438 85.2859V85.1609C196.586 84.8405 197.281 83.8796 197.281 82.653C197.281 80.8952 195.82 79.653 193.766 79.653C191.711 79.653 190.242 80.8952 190.242 82.653C190.242 83.8796 190.953 84.8484 192.086 85.1609V85.2859C190.695 85.6218 189.789 86.7624 189.789 88.1609C189.789 90.0827 191.422 91.4265 193.766 91.4265ZM193.766 84.6921C192.461 84.6921 191.594 83.9265 191.594 82.7702C191.594 81.6218 192.461 80.8562 193.766 80.8562C195.07 80.8562 195.93 81.6218 195.93 82.7702C195.93 83.9265 195.07 84.6921 193.766 84.6921ZM193.766 90.2312C192.234 90.2312 191.18 89.3405 191.18 88.0515C191.18 86.7624 192.234 85.8718 193.766 85.8718C195.297 85.8718 196.352 86.7624 196.352 88.0515C196.352 89.3405 195.297 90.2312 193.766 90.2312ZM200.914 91.1765H202.383L207.438 81.1765V79.903H199.914V81.1374H206.031V81.239L200.914 91.1765ZM217.766 91.1765V89.9655H214.594V79.903H213.242L209.883 82.0827V83.5515L213.109 81.4655H213.234V89.9655H209.906V91.1765H217.766ZM226.312 91.1765H227.766L224.133 79.903H222.664L219.031 91.1765H220.43L221.414 87.9421H225.336L226.312 91.1765ZM223.359 81.5593H223.398L224.977 86.7624H221.773L223.359 81.5593ZM233.547 90.1062C231.719 90.1062 230.766 88.8796 230.766 86.5437V84.5359C230.766 82.1999 231.719 80.9734 233.539 80.9734C234.984 80.9734 235.992 81.9968 236.039 83.5202H237.438C237.391 81.114 235.922 79.6687 233.547 79.6687C230.898 79.6687 229.359 81.4577 229.359 84.5359V86.5437C229.359 89.6218 230.898 91.4109 233.547 91.4109C235.852 91.4109 237.43 89.9343 237.43 87.7546H236.039C236 89.2077 235.047 90.1062 233.547 90.1062Z" fill="#727272"/>
</g>
</g>
<defs>
<filter id="filter0_dddddddi_5_60" x="0" y="0" width="316.692" height="168.353" filterUnits="userSpaceOnUse" color-interpolation-filters="sRGB">
<feFlood flood-opacity="0" result="BackgroundImageFix"/>
<feColorMatrix in="SourceAlpha" type="matrix" values="0 0 0 0 0 0 0 0 0 0 0 0 0 0 0 0 0 0 127 0" result="hardAlpha"/>
<feOffset dy="0.56875"/>
<feGaussianBlur stdDeviation="0.896094"/>
<feColorMatrix type="matrix" values="0 0 0 0 0.0470588 0 0 0 0 0.0784314 0 0 0 0 0.129412 0 0 0 0.013 0"/>
<feBlend mode="normal" in2="BackgroundImageFix" result="effect1_dropShadow_5_60"/>
<feColorMatrix in="SourceAlpha" type="matrix" values="0 0 0 0 0 0 0 0 0 0 0 0 0 0 0 0 0 0 127 0" result="hardAlpha"/>
<feOffset dy="1.37109"/>
<feGaussianBlur stdDeviation="1.49854"/>
<feColorMatrix type="matrix" values="0 0 0 0 0.0470588 0 0 0 0 0.0784314 0 0 0 0 0.129412 0 0 0 0.016875 0"/>
<feBlend mode="normal" in2="effect1_dropShadow_5_60" result="effect2_dropShadow_5_60"/>
<feColorMatrix in="SourceAlpha" type="matrix" values="0 0 0 0 0 0 0 0 0 0 0 0 0 0 0 0 0 0 127 0" result="hardAlpha"/>
<feOffset dy="2.6"/>
<feGaussianBlur stdDeviation="2.51875"/>
<feColorMatrix type="matrix" values="0 0 0 0 0.0470588 0 0 0 0 0.0784314 0 0 0 0 0.129412 0 0 0 0.02 0"/>
<feBlend mode="normal" in2="effect2_dropShadow_5_60" result="effect3_dropShadow_5_60"/>
<feColorMatrix in="SourceAlpha" type="matrix" values="0 0 0 0 0 0 0 0 0 0 0 0 0 0 0 0 0 0 127 0" result="hardAlpha"/>
<feOffset dy="4.31641"/>
<feGaussianBlur stdDeviation="4.19287"/>
<feColorMatrix type="matrix" values="0 0 0 0 0.0470588 0 0 0 0 0.0784314 0 0 0 0 0.129412 0 0 0 0.023125 0"/>
<feBlend mode="normal" in2="effect3_dropShadow_5_60" result="effect4_dropShadow_5_60"/>
<feColorMatrix in="SourceAlpha" type="matrix" values="0 0 0 0 0 0 0 0 0 0 0 0 0 0 0 0 0 0 127 0" result="hardAlpha"/>
<feOffset dy="6.58125"/>
<feGaussianBlur stdDeviation="6.75703"/>
<feColorMatrix type="matrix" values="0 0 0 0 0.0470588 0 0 0 0 0.0784314 0 0 0 0 0.129412 0 0 0 0.027 0"/>
<feBlend mode="normal" in2="effect4_dropShadow_5_60" result="effect5_dropShadow_5_60"/>
<feColorMatrix in="SourceAlpha" type="matrix" values="0 0 0 0 0 0 0 0 0 0 0 0 0 0 0 0 0 0 127 0" result="hardAlpha"/>
<feOffset dy="9.45547"/>
<feGaussianBlur stdDeviation="10.4474"/>
<feColorMatrix type="matrix" values="0 0 0 0 0.0470588 0 0 0 0 0.0784314 0 0 0 0 0.129412 0 0 0 0.032375 0"/>
<feBlend mode="normal" in2="effect5_dropShadow_5_60" result="effect6_dropShadow_5_60"/>
<feColorMatrix in="SourceAlpha" type="matrix" values="0 0 0 0 0 0 0 0 0 0 0 0 0 0 0 0 0 0 127 0" result="hardAlpha"/>
<feOffset dy="13"/>
<feGaussianBlur stdDeviation="15.5"/>
<feColorMatrix type="matrix" values="0 0 0 0 0.0468229 0 0 0 0 0.0797604 0 0 0 0 0.129167 0 0 0 0.04 0"/>
<feBlend mode="normal" in2="effect6_dropShadow_5_60" result="effect7_dropShadow_5_60"/>
<feBlend mode="normal" in="SourceGraphic" in2="effect7_dropShadow_5_60" result="shape"/>
<feColorMatrix in="SourceAlpha" type="matrix" values="0 0 0 0 0 0 0 0 0 0 0 0 0 0 0 0 0 0 127 0" result="hardAlpha"/>
<feOffset dy="2"/>
<feGaussianBlur stdDeviation="0.5"/>
<feComposite in2="hardAlpha" operator="arithmetic" k2="-1" k3="1"/>
<feColorMatrix type="matrix" values="0 0 0 0 1 0 0 0 0 1 0 0 0 0 1 0 0 0 1 0"/>
<feBlend mode="normal" in2="shape" result="effect8_innerShadow_5_60"/>
</filter>
<filter id="filter1_d_5_60" x="164" y="44.1765" width="99" height="54" filterUnits="userSpaceOnUse" color-interpolation-filters="sRGB">
<feFlood flood-opacity="0" result="BackgroundImageFix"/>
<feColorMatrix in="SourceAlpha" type="matrix" values="0 0 0 0 0 0 0 0 0 0 0 0 0 0 0 0 0 0 127 0" result="hardAlpha"/>
<feOffset/>
<feGaussianBlur stdDeviation="1.5"/>
<feColorMatrix type="matrix" values="0 0 0 0 1 0 0 0 0 1 0 0 0 0 1 0 0 0 1 0"/>
<feBlend mode="normal" in2="BackgroundImageFix" result="effect1_dropShadow_5_60"/>
<feBlend mode="normal" in="SourceGraphic" in2="effect1_dropShadow_5_60" result="shape"/>
</filter>
</defs>
</svg>
