<svg width="319" height="158" viewBox="0 0 319 158" fill="none" xmlns="http://www.w3.org/2000/svg">
<g filter="url(#filter0_dddddddi_5_41)">
<path d="M31 66C31 49.1984 31 40.7976 34.2698 34.3803C37.146 28.7354 41.7354 24.146 47.3803 21.2698C53.7976 18 62.1984 18 79 18H240C256.802 18 265.202 18 271.62 21.2698C277.265 24.146 281.854 28.7354 284.73 34.3803C288 40.7976 288 49.1984 288 66C288 82.8016 288 91.2024 284.73 97.6197C281.854 103.265 277.265 107.854 271.62 110.73C265.202 114 256.802 114 240 114H79C62.1984 114 53.7976 114 47.3803 110.73C41.7354 107.854 37.146 103.265 34.2698 97.6197C31 91.2024 31 82.8016 31 66Z" fill="#F9F9FA"/>
<path d="M55 66C55 56.6444 55 51.9667 57.1459 48.5516C58.2648 46.7707 59.7707 45.2648 61.5516 44.1459C64.9667 42 69.6444 42 79 42H127C136.356 42 141.033 42 144.448 44.1459C146.229 45.2648 147.735 46.7707 148.854 48.5516C151 51.9667 151 56.6444 151 66C151 75.3556 151 80.0333 148.854 83.4484C147.735 85.2293 146.229 86.7352 144.448 87.8541C141.033 90 136.356 90 127 90H79C69.6444 90 64.9667 90 61.5516 87.8541C59.7707 86.7352 58.2648 85.2293 57.1459 83.4484C55 80.0333 55 75.3556 55 66Z" fill="#AB1438"/>
<g filter="url(#filter1_d_5_41)">
<path d="M172.835 49.5186H176.229C178.088 49.5186 179.227 50.5713 179.227 52.3008C179.227 54.0732 178.152 55.0938 176.294 55.0938H172.835V49.5186ZM172.835 57.0381H176.229L179.388 63H182.17L178.689 56.6621C180.58 56.0283 181.697 54.3311 181.697 52.2363C181.697 49.3467 179.71 47.499 176.52 47.499H170.429V63H172.835V57.0381ZM188.604 53.085C190.302 53.085 191.451 54.2881 191.505 56.1035H185.586C185.715 54.3096 186.929 53.085 188.604 53.085ZM191.494 59.584C191.172 60.6045 190.108 61.249 188.755 61.249C186.843 61.249 185.575 59.917 185.575 57.8975V57.7578H193.836V56.9414C193.836 53.4072 191.816 51.1836 188.615 51.1836C185.35 51.1836 183.223 53.5576 183.223 57.21C183.223 60.8623 185.328 63.1396 188.712 63.1396C191.333 63.1396 193.385 61.6787 193.718 59.584H191.494ZM200.109 63.1182C201.817 63.1182 203.149 62.3447 203.837 61.0234H203.88V63H206.136V46.8008H203.815V53.2676H203.762C203.096 51.9785 201.764 51.2158 200.088 51.2158C197.188 51.2158 195.189 53.5684 195.189 57.1562C195.189 60.7656 197.188 63.1182 200.109 63.1182ZM200.7 53.1924C202.569 53.1924 203.826 54.793 203.826 57.167C203.826 59.5518 202.569 61.1416 200.7 61.1416C198.81 61.1416 197.574 59.584 197.574 57.167C197.574 54.7607 198.82 53.1924 200.7 53.1924ZM216.319 49.5186H219.714C221.572 49.5186 222.711 50.5713 222.711 52.3008C222.711 54.0732 221.637 55.0938 219.778 55.0938H216.319V49.5186ZM216.319 57.0381H219.714L222.872 63H225.654L222.174 56.6621C224.064 56.0283 225.182 54.3311 225.182 52.2363C225.182 49.3467 223.194 47.499 220.004 47.499H213.913V63H216.319V57.0381ZM232.229 63.1396C235.602 63.1396 237.739 60.8408 237.739 57.167C237.739 53.4932 235.591 51.1836 232.229 51.1836C228.866 51.1836 226.707 53.5039 226.707 57.167C226.707 60.8408 228.855 63.1396 232.229 63.1396ZM232.229 61.2061C230.252 61.2061 229.07 59.7129 229.07 57.167C229.07 54.6318 230.252 53.1172 232.229 53.1172C234.205 53.1172 235.376 54.6211 235.376 57.167C235.376 59.7129 234.205 61.2061 232.229 61.2061ZM239.415 54.6533C239.415 56.2646 240.457 57.3389 242.562 57.8545L244.646 58.3701C245.871 58.6816 246.333 59.0684 246.333 59.8096C246.333 60.7549 245.42 61.3564 243.97 61.3564C242.487 61.3564 241.585 60.7441 241.402 59.627H239.104C239.275 61.7324 241.134 63.1396 243.852 63.1396C246.677 63.1396 248.653 61.7002 248.653 59.6162C248.653 57.8975 247.783 57.0488 245.431 56.4795L243.497 56.0176C242.262 55.7168 241.682 55.2334 241.682 54.5244C241.682 53.6006 242.562 52.9883 243.884 52.9883C245.216 52.9883 246.107 53.6328 246.204 54.6641H248.396C248.342 52.6338 246.494 51.1943 243.938 51.1943C241.252 51.1943 239.415 52.6016 239.415 54.6533ZM255.399 53.085C257.097 53.085 258.246 54.2881 258.3 56.1035H252.381C252.51 54.3096 253.724 53.085 255.399 53.085ZM258.289 59.584C257.967 60.6045 256.903 61.249 255.55 61.249C253.638 61.249 252.37 59.917 252.37 57.8975V57.7578H260.631V56.9414C260.631 53.4072 258.611 51.1836 255.41 51.1836C252.145 51.1836 250.018 53.5576 250.018 57.21C250.018 60.8623 252.123 63.1396 255.507 63.1396C258.128 63.1396 260.18 61.6787 260.513 59.584H258.289Z" fill="#3D3D3D"/>
<path d="M178.102 78.9766L178.336 77.8281H176.695L177.32 74.7266H176.203L175.578 77.8281H173.273L173.891 74.7266H172.773L172.156 77.8281H170.516L170.289 78.9766H171.93L171.414 81.625H169.773L169.531 82.7891H171.172L170.531 86H171.648L172.281 82.7891H174.594L173.953 86H175.07L175.711 82.7891H177.352L177.578 81.625H175.938L176.461 78.9766H178.102ZM173.023 78.9531H175.367L174.836 81.6562H172.5L173.023 78.9531ZM186.75 86H188.203L184.57 74.7266H183.102L179.469 86H180.867L181.852 82.7656H185.773L186.75 86ZM183.797 76.3828H183.836L185.414 81.5859H182.211L183.797 76.3828ZM193.938 86C196.359 86 197.797 84.8281 197.797 82.8516C197.797 81.3438 196.805 80.2422 195.289 80.0938V79.9766C196.422 79.7812 197.227 78.7578 197.227 77.5156C197.227 75.7656 195.977 74.7266 193.898 74.7266H190.25V86H193.938ZM191.617 75.9141H193.586C195.023 75.9141 195.836 76.5781 195.836 77.7578C195.836 78.9453 194.977 79.5938 193.375 79.5938H191.617V75.9141ZM191.617 84.8047V80.7422H193.594C195.422 80.7422 196.367 81.4297 196.367 82.7578C196.367 84.1016 195.43 84.8047 193.641 84.8047H191.617ZM207.875 86V84.7891H204.703V74.7266H203.352L199.992 76.9062V78.375L203.219 76.2891H203.344V84.7891H200.016V86H207.875ZM214.828 86H216.086V83.6172H217.812V82.4062H216.094V79.2031H214.844V82.4219H211.148V82.3203L214.922 74.7266H213.516L209.688 82.5V83.6172H214.828V86ZM222.023 80.7734H223.312C224.875 80.7734 225.867 81.6094 225.867 82.9219C225.867 84.1953 224.906 84.9922 223.359 84.9922C221.953 84.9922 220.953 84.2109 220.828 83.0078H219.523C219.625 84.9531 221.172 86.2344 223.398 86.2344C225.648 86.2344 227.258 84.8672 227.258 82.9531C227.258 81.4141 226.367 80.3594 224.867 80.1641V80.0391C226.078 79.7422 226.789 78.7734 226.789 77.4141C226.789 75.7031 225.352 74.4922 223.336 74.4922C221.25 74.4922 219.875 75.7031 219.742 77.6562H221.062C221.172 76.4453 222.016 75.7031 223.281 75.7031C224.555 75.7031 225.398 76.4609 225.398 77.6094C225.398 78.7891 224.516 79.6172 223.25 79.6172H222.023V80.7734ZM233.328 86.25C235.672 86.25 237.297 84.9062 237.297 82.9844C237.297 81.5625 236.367 80.3984 235 80.1094V79.9844C236.148 79.6641 236.844 78.7031 236.844 77.4766C236.844 75.7188 235.383 74.4766 233.328 74.4766C231.273 74.4766 229.805 75.7188 229.805 77.4766C229.805 78.7031 230.516 79.6719 231.648 79.9844V80.1094C230.258 80.4453 229.352 81.5859 229.352 82.9844C229.352 84.9062 230.984 86.25 233.328 86.25ZM233.328 79.5156C232.023 79.5156 231.156 78.75 231.156 77.5938C231.156 76.4453 232.023 75.6797 233.328 75.6797C234.633 75.6797 235.492 76.4453 235.492 77.5938C235.492 78.75 234.633 79.5156 233.328 79.5156ZM233.328 85.0547C231.797 85.0547 230.742 84.1641 230.742 82.875C230.742 81.5859 231.797 80.6953 233.328 80.6953C234.859 80.6953 235.914 81.5859 235.914 82.875C235.914 84.1641 234.859 85.0547 233.328 85.0547Z" fill="#727272"/>
</g>
</g>
<defs>
<filter id="filter0_dddddddi_5_41" x="0" y="0" width="319" height="158" filterUnits="userSpaceOnUse" color-interpolation-filters="sRGB">
<feFlood flood-opacity="0" result="BackgroundImageFix"/>
<feColorMatrix in="SourceAlpha" type="matrix" values="0 0 0 0 0 0 0 0 0 0 0 0 0 0 0 0 0 0 127 0" result="hardAlpha"/>
<feOffset dy="0.56875"/>
<feGaussianBlur stdDeviation="0.896094"/>
<feColorMatrix type="matrix" values="0 0 0 0 0.0470588 0 0 0 0 0.0784314 0 0 0 0 0.129412 0 0 0 0.013 0"/>
<feBlend mode="normal" in2="BackgroundImageFix" result="effect1_dropShadow_5_41"/>
<feColorMatrix in="SourceAlpha" type="matrix" values="0 0 0 0 0 0 0 0 0 0 0 0 0 0 0 0 0 0 127 0" result="hardAlpha"/>
<feOffset dy="1.37109"/>
<feGaussianBlur stdDeviation="1.49854"/>
<feColorMatrix type="matrix" values="0 0 0 0 0.0470588 0 0 0 0 0.0784314 0 0 0 0 0.129412 0 0 0 0.016875 0"/>
<feBlend mode="normal" in2="effect1_dropShadow_5_41" result="effect2_dropShadow_5_41"/>
<feColorMatrix in="SourceAlpha" type="matrix" values="0 0 0 0 0 0 0 0 0 0 0 0 0 0 0 0 0 0 127 0" result="hardAlpha"/>
<feOffset dy="2.6"/>
<feGaussianBlur stdDeviation="2.51875"/>
<feColorMatrix type="matrix" values="0 0 0 0 0.0470588 0 0 0 0 0.0784314 0 0 0 0 0.129412 0 0 0 0.02 0"/>
<feBlend mode="normal" in2="effect2_dropShadow_5_41" result="effect3_dropShadow_5_41"/>
<feColorMatrix in="SourceAlpha" type="matrix" values="0 0 0 0 0 0 0 0 0 0 0 0 0 0 0 0 0 0 127 0" result="hardAlpha"/>
<feOffset dy="4.31641"/>
<feGaussianBlur stdDeviation="4.19287"/>
<feColorMatrix type="matrix" values="0 0 0 0 0.0470588 0 0 0 0 0.0784314 0 0 0 0 0.129412 0 0 0 0.023125 0"/>
<feBlend mode="normal" in2="effect3_dropShadow_5_41" result="effect4_dropShadow_5_41"/>
<feColorMatrix in="SourceAlpha" type="matrix" values="0 0 0 0 0 0 0 0 0 0 0 0 0 0 0 0 0 0 127 0" result="hardAlpha"/>
<feOffset dy="6.58125"/>
<feGaussianBlur stdDeviation="6.75703"/>
<feColorMatrix type="matrix" values="0 0 0 0 0.0470588 0 0 0 0 0.0784314 0 0 0 0 0.129412 0 0 0 0.027 0"/>
<feBlend mode="normal" in2="effect4_dropShadow_5_41" result="effect5_dropShadow_5_41"/>
<feColorMatrix in="SourceAlpha" type="matrix" values="0 0 0 0 0 0 0 0 0 0 0 0 0 0 0 0 0 0 127 0" result="hardAlpha"/>
<feOffset dy="9.45547"/>
<feGaussianBlur stdDeviation="10.4474"/>
<feColorMatrix type="matrix" values="0 0 0 0 0.0470588 0 0 0 0 0.0784314 0 0 0 0 0.129412 0 0 0 0.032375 0"/>
<feBlend mode="normal" in2="effect5_dropShadow_5_41" result="effect6_dropShadow_5_41"/>
<feColorMatrix in="SourceAlpha" type="matrix" values="0 0 0 0 0 0 0 0 0 0 0 0 0 0 0 0 0 0 127 0" result="hardAlpha"/>
<feOffset dy="13"/>
<feGaussianBlur stdDeviation="15.5"/>
<feColorMatrix type="matrix" values="0 0 0 0 0.0468229 0 0 0 0 0.0797604 0 0 0 0 0.129167 0 0 0 0.04 0"/>
<feBlend mode="normal" in2="effect6_dropShadow_5_41" result="effect7_dropShadow_5_41"/>
<feBlend mode="normal" in="SourceGraphic" in2="effect7_dropShadow_5_41" result="shape"/>
<feColorMatrix in="SourceAlpha" type="matrix" values="0 0 0 0 0 0 0 0 0 0 0 0 0 0 0 0 0 0 127 0" result="hardAlpha"/>
<feOffset dy="2"/>
<feGaussianBlur stdDeviation="0.5"/>
<feComposite in2="hardAlpha" operator="arithmetic" k2="-1" k3="1"/>
<feColorMatrix type="matrix" values="0 0 0 0 1 0 0 0 0 1 0 0 0 0 1 0 0 0 1 0"/>
<feBlend mode="normal" in2="shape" result="effect8_innerShadow_5_41"/>
</filter>
<filter id="filter1_d_5_41" x="164" y="39" width="103" height="54" filterUnits="userSpaceOnUse" color-interpolation-filters="sRGB">
<feFlood flood-opacity="0" result="BackgroundImageFix"/>
<feColorMatrix in="SourceAlpha" type="matrix" values="0 0 0 0 0 0 0 0 0 0 0 0 0 0 0 0 0 0 127 0" result="hardAlpha"/>
<feOffset/>
<feGaussianBlur stdDeviation="1.5"/>
<feColorMatrix type="matrix" values="0 0 0 0 1 0 0 0 0 1 0 0 0 0 1 0 0 0 1 0"/>
<feBlend mode="normal" in2="BackgroundImageFix" result="effect1_dropShadow_5_41"/>
<feBlend mode="normal" in="SourceGraphic" in2="effect1_dropShadow_5_41" result="shape"/>
</filter>
</defs>
</svg>
