<svg width="326" height="158" viewBox="0 0 326 158" fill="none" xmlns="http://www.w3.org/2000/svg">
<g filter="url(#filter0_dddddddi_7_8)">
<path d="M31 66C31 49.1984 31 40.7976 34.2698 34.3803C37.146 28.7354 41.7354 24.146 47.3803 21.2698C53.7976 18 62.1984 18 79 18H247C263.802 18 272.202 18 278.62 21.2698C284.265 24.146 288.854 28.7354 291.73 34.3803C295 40.7976 295 49.1984 295 66C295 82.8016 295 91.2024 291.73 97.6197C288.854 103.265 284.265 107.854 278.62 110.73C272.202 114 263.802 114 247 114H79C62.1984 114 53.7976 114 47.3803 110.73C41.7354 107.854 37.146 103.265 34.2698 97.6197C31 91.2024 31 82.8016 31 66Z" fill="#F9F9FA"/>
<rect x="55" y="42" width="96" height="48" rx="14" fill="#7C7A66"/>
<g filter="url(#filter1_d_7_8)">
<path d="M170.429 47.499V63H175.982C180.602 63 183.319 60.1211 183.319 55.2227C183.319 50.335 180.602 47.499 175.982 47.499H170.429ZM172.835 49.5723H175.757C179.044 49.5723 180.87 51.5918 180.87 55.2441C180.87 58.9072 179.044 60.916 175.757 60.916H172.835V49.5723ZM189.432 61.2598C188.089 61.2598 187.219 60.6152 187.219 59.6162C187.219 58.585 188.046 57.9941 189.636 57.8975L192.472 57.7041V58.6172C192.472 60.1533 191.161 61.2598 189.432 61.2598ZM188.809 63.1182C190.398 63.1182 191.849 62.3232 192.493 61.0557H192.547V63H194.771V54.9971C194.771 52.6875 192.934 51.1836 190.087 51.1836C187.466 51.1836 185.511 52.709 185.446 54.7715H187.627C187.831 53.7617 188.755 53.1064 190.022 53.1064C191.58 53.1064 192.472 53.8369 192.472 55.1689V56.0713L189.324 56.2539C186.445 56.4365 184.866 57.6182 184.866 59.6592C184.866 61.7432 186.478 63.1182 188.809 63.1182ZM197.112 63H199.443V56.0391C199.443 54.3955 200.41 53.332 201.946 53.332C202.408 53.332 202.816 53.3965 203.01 53.4717V51.291C202.827 51.248 202.537 51.2158 202.193 51.2158C200.818 51.2158 199.744 52 199.379 53.2998H199.336V51.334H197.112V63ZM206.941 56.3721H206.931V46.8008H204.6V63H206.931V58.7676L207.94 57.7793L211.969 63H214.654L209.605 56.3613L214.482 51.334H211.743L206.941 56.3721ZM227.921 47.2412C223.452 47.2412 220.659 50.3242 220.659 55.2549C220.659 60.1855 223.452 63.2578 227.921 63.2578C232.379 63.2578 235.183 60.1855 235.183 55.2549C235.183 50.3242 232.379 47.2412 227.921 47.2412ZM227.921 49.3574C230.864 49.3574 232.712 51.6348 232.712 55.2549C232.712 58.8643 230.864 61.1416 227.921 61.1416C224.978 61.1416 223.119 58.8643 223.119 55.2549C223.119 51.6348 224.978 49.3574 227.921 49.3574ZM237.342 63H239.673V46.8008H237.342V63ZM242.251 63H244.582V51.334H242.251V63ZM243.422 49.6689C244.174 49.6689 244.786 49.0674 244.786 48.3262C244.786 47.5635 244.174 46.9834 243.422 46.9834C242.67 46.9834 242.058 47.5635 242.058 48.3262C242.058 49.0674 242.67 49.6689 243.422 49.6689ZM256.968 51.334H254.551L251.564 60.7012H251.511L248.535 51.334H246.075L250.286 63H252.768L256.968 51.334ZM262.897 53.085C264.595 53.085 265.744 54.2881 265.798 56.1035H259.879C260.008 54.3096 261.222 53.085 262.897 53.085ZM265.787 59.584C265.465 60.6045 264.401 61.249 263.048 61.249C261.136 61.249 259.868 59.917 259.868 57.8975V57.7578H268.129V56.9414C268.129 53.4072 266.109 51.1836 262.908 51.1836C259.643 51.1836 257.516 53.5576 257.516 57.21C257.516 60.8623 259.621 63.1396 263.005 63.1396C265.626 63.1396 267.678 61.6787 268.011 59.584H265.787Z" fill="#3D3D3D"/>
<path d="M178.102 78.9766L178.336 77.8281H176.695L177.32 74.7266H176.203L175.578 77.8281H173.273L173.891 74.7266H172.773L172.156 77.8281H170.516L170.289 78.9766H171.93L171.414 81.625H169.773L169.531 82.7891H171.172L170.531 86H171.648L172.281 82.7891H174.594L173.953 86H175.07L175.711 82.7891H177.352L177.578 81.625H175.938L176.461 78.9766H178.102ZM173.023 78.9531H175.367L174.836 81.6562H172.5L173.023 78.9531ZM181.133 86H182.602L187.656 76V74.7266H180.133V75.9609H186.25V76.0625L181.133 86ZM193.984 84.9297C192.156 84.9297 191.203 83.7031 191.203 81.3672V79.3594C191.203 77.0234 192.156 75.7969 193.977 75.7969C195.422 75.7969 196.43 76.8203 196.477 78.3438H197.875C197.828 75.9375 196.359 74.4922 193.984 74.4922C191.336 74.4922 189.797 76.2812 189.797 79.3594V81.3672C189.797 84.4453 191.336 86.2344 193.984 86.2344C196.289 86.2344 197.867 84.7578 197.867 82.5781H196.477C196.438 84.0312 195.484 84.9297 193.984 84.9297ZM200.914 86H202.383L207.438 76V74.7266H199.914V75.9609H206.031V76.0625L200.914 86ZM216.422 86H217.875L214.242 74.7266H212.773L209.141 86H210.539L211.523 82.7656H215.445L216.422 86ZM213.469 76.3828H213.508L215.086 81.5859H211.883L213.469 76.3828ZM227.266 82.3828C227.266 80.3281 225.781 78.8047 223.773 78.8047C223.055 78.8047 222.242 79.1406 221.906 79.5938L221.789 79.5312C221.844 79.4062 221.812 79.4375 222.156 78.9531L225.234 74.7266H223.648C223.57 74.8438 221.227 78.125 221.125 78.2969C220.047 79.8672 219.602 81.0625 219.602 82.3828C219.602 84.625 221.203 86.2344 223.422 86.2344C225.656 86.2344 227.266 84.6172 227.266 82.3828ZM223.43 85.0078C222.016 85.0078 220.938 83.8984 220.938 82.4531C220.938 81 222.016 79.8906 223.43 79.8906C224.852 79.8906 225.93 81 225.93 82.4531C225.93 83.8984 224.852 85.0078 223.43 85.0078ZM237.156 82.3828C237.156 80.3281 235.672 78.8047 233.664 78.8047C232.945 78.8047 232.133 79.1406 231.797 79.5938L231.68 79.5312C231.734 79.4062 231.703 79.4375 232.047 78.9531L235.125 74.7266H233.539C233.461 74.8438 231.117 78.125 231.016 78.2969C229.938 79.8672 229.492 81.0625 229.492 82.3828C229.492 84.625 231.094 86.2344 233.312 86.2344C235.547 86.2344 237.156 84.6172 237.156 82.3828ZM233.32 85.0078C231.906 85.0078 230.828 83.8984 230.828 82.4531C230.828 81 231.906 79.8906 233.32 79.8906C234.742 79.8906 235.82 81 235.82 82.4531C235.82 83.8984 234.742 85.0078 233.32 85.0078Z" fill="#727272"/>
</g>
</g>
<defs>
<filter id="filter0_dddddddi_7_8" x="0" y="0" width="326" height="158" filterUnits="userSpaceOnUse" color-interpolation-filters="sRGB">
<feFlood flood-opacity="0" result="BackgroundImageFix"/>
<feColorMatrix in="SourceAlpha" type="matrix" values="0 0 0 0 0 0 0 0 0 0 0 0 0 0 0 0 0 0 127 0" result="hardAlpha"/>
<feOffset dy="0.56875"/>
<feGaussianBlur stdDeviation="0.896094"/>
<feColorMatrix type="matrix" values="0 0 0 0 0.0470588 0 0 0 0 0.0784314 0 0 0 0 0.129412 0 0 0 0.013 0"/>
<feBlend mode="normal" in2="BackgroundImageFix" result="effect1_dropShadow_7_8"/>
<feColorMatrix in="SourceAlpha" type="matrix" values="0 0 0 0 0 0 0 0 0 0 0 0 0 0 0 0 0 0 127 0" result="hardAlpha"/>
<feOffset dy="1.37109"/>
<feGaussianBlur stdDeviation="1.49854"/>
<feColorMatrix type="matrix" values="0 0 0 0 0.0470588 0 0 0 0 0.0784314 0 0 0 0 0.129412 0 0 0 0.016875 0"/>
<feBlend mode="normal" in2="effect1_dropShadow_7_8" result="effect2_dropShadow_7_8"/>
<feColorMatrix in="SourceAlpha" type="matrix" values="0 0 0 0 0 0 0 0 0 0 0 0 0 0 0 0 0 0 127 0" result="hardAlpha"/>
<feOffset dy="2.6"/>
<feGaussianBlur stdDeviation="2.51875"/>
<feColorMatrix type="matrix" values="0 0 0 0 0.0470588 0 0 0 0 0.0784314 0 0 0 0 0.129412 0 0 0 0.02 0"/>
<feBlend mode="normal" in2="effect2_dropShadow_7_8" result="effect3_dropShadow_7_8"/>
<feColorMatrix in="SourceAlpha" type="matrix" values="0 0 0 0 0 0 0 0 0 0 0 0 0 0 0 0 0 0 127 0" result="hardAlpha"/>
<feOffset dy="4.31641"/>
<feGaussianBlur stdDeviation="4.19287"/>
<feColorMatrix type="matrix" values="0 0 0 0 0.0470588 0 0 0 0 0.0784314 0 0 0 0 0.129412 0 0 0 0.023125 0"/>
<feBlend mode="normal" in2="effect3_dropShadow_7_8" result="effect4_dropShadow_7_8"/>
<feColorMatrix in="SourceAlpha" type="matrix" values="0 0 0 0 0 0 0 0 0 0 0 0 0 0 0 0 0 0 127 0" result="hardAlpha"/>
<feOffset dy="6.58125"/>
<feGaussianBlur stdDeviation="6.75703"/>
<feColorMatrix type="matrix" values="0 0 0 0 0.0470588 0 0 0 0 0.0784314 0 0 0 0 0.129412 0 0 0 0.027 0"/>
<feBlend mode="normal" in2="effect4_dropShadow_7_8" result="effect5_dropShadow_7_8"/>
<feColorMatrix in="SourceAlpha" type="matrix" values="0 0 0 0 0 0 0 0 0 0 0 0 0 0 0 0 0 0 127 0" result="hardAlpha"/>
<feOffset dy="9.45547"/>
<feGaussianBlur stdDeviation="10.4474"/>
<feColorMatrix type="matrix" values="0 0 0 0 0.0470588 0 0 0 0 0.0784314 0 0 0 0 0.129412 0 0 0 0.032375 0"/>
<feBlend mode="normal" in2="effect5_dropShadow_7_8" result="effect6_dropShadow_7_8"/>
<feColorMatrix in="SourceAlpha" type="matrix" values="0 0 0 0 0 0 0 0 0 0 0 0 0 0 0 0 0 0 127 0" result="hardAlpha"/>
<feOffset dy="13"/>
<feGaussianBlur stdDeviation="15.5"/>
<feColorMatrix type="matrix" values="0 0 0 0 0.0468229 0 0 0 0 0.0797604 0 0 0 0 0.129167 0 0 0 0.04 0"/>
<feBlend mode="normal" in2="effect6_dropShadow_7_8" result="effect7_dropShadow_7_8"/>
<feBlend mode="normal" in="SourceGraphic" in2="effect7_dropShadow_7_8" result="shape"/>
<feColorMatrix in="SourceAlpha" type="matrix" values="0 0 0 0 0 0 0 0 0 0 0 0 0 0 0 0 0 0 127 0" result="hardAlpha"/>
<feOffset dy="2"/>
<feGaussianBlur stdDeviation="0.5"/>
<feComposite in2="hardAlpha" operator="arithmetic" k2="-1" k3="1"/>
<feColorMatrix type="matrix" values="0 0 0 0 1 0 0 0 0 1 0 0 0 0 1 0 0 0 1 0"/>
<feBlend mode="normal" in2="shape" result="effect8_innerShadow_7_8"/>
</filter>
<filter id="filter1_d_7_8" x="164" y="39" width="110" height="54" filterUnits="userSpaceOnUse" color-interpolation-filters="sRGB">
<feFlood flood-opacity="0" result="BackgroundImageFix"/>
<feColorMatrix in="SourceAlpha" type="matrix" values="0 0 0 0 0 0 0 0 0 0 0 0 0 0 0 0 0 0 127 0" result="hardAlpha"/>
<feOffset/>
<feGaussianBlur stdDeviation="1.5"/>
<feColorMatrix type="matrix" values="0 0 0 0 1 0 0 0 0 1 0 0 0 0 1 0 0 0 1 0"/>
<feBlend mode="normal" in2="BackgroundImageFix" result="effect1_dropShadow_7_8"/>
<feBlend mode="normal" in="SourceGraphic" in2="effect1_dropShadow_7_8" result="shape"/>
</filter>
</defs>
</svg>
