<svg width="156" height="16" viewBox="0 0 156 16" fill="none" xmlns="http://www.w3.org/2000/svg">
<path d="M8.35942 5.01425C8.3026 4.44133 8.05876 3.99626 7.62789 3.67902C7.19701 3.36179 6.61226 3.20317 5.87362 3.20317C5.37173 3.20317 4.94796 3.27419 4.60232 3.41624C4.25667 3.55355 3.99152 3.74531 3.80686 3.99152C3.62694 4.23773 3.53698 4.51709 3.53698 4.82959C3.52751 5.09001 3.58196 5.31728 3.70033 5.51141C3.82343 5.70554 3.99152 5.87362 4.20459 6.01567C4.41766 6.15298 4.66387 6.27372 4.94323 6.37788C5.22258 6.47732 5.52088 6.56254 5.83811 6.63357L7.14493 6.94607C7.7794 7.08811 8.36179 7.27751 8.89209 7.51425C9.42239 7.75099 9.88167 8.04218 10.2699 8.38783C10.6582 8.73347 10.9589 9.14067 11.1719 9.60942C11.3897 10.0782 11.501 10.6156 11.5057 11.2216C11.501 12.1118 11.2737 12.8836 10.8239 13.537C10.3788 14.1857 9.73489 14.6899 8.89209 15.0498C8.05402 15.4049 7.04313 15.5824 5.85942 15.5824C4.68518 15.5824 3.66245 15.4025 2.79124 15.0427C1.92476 14.6828 1.24768 14.1501 0.759988 13.4446C0.277033 12.7344 0.0237186 11.8561 4.43757e-05 10.8097H2.9759C3.00904 11.2974 3.14872 11.7046 3.39493 12.0313C3.64588 12.3533 3.97968 12.5971 4.39635 12.7628C4.81775 12.9238 5.29361 13.0043 5.82391 13.0043C6.34474 13.0043 6.79692 12.9285 7.18044 12.777C7.5687 12.6255 7.86936 12.4148 8.08243 12.1449C8.2955 11.875 8.40203 11.5649 8.40203 11.2145C8.40203 10.8878 8.30497 10.6132 8.11084 10.3907C7.92145 10.1681 7.64209 9.97874 7.27277 9.82249C6.90819 9.66624 6.46075 9.52419 5.93044 9.39635L4.34664 8.99862C3.12031 8.70033 2.15203 8.23395 1.44181 7.59948C0.731578 6.96501 0.378832 6.11037 0.383567 5.03555C0.378832 4.15487 0.613207 3.38546 1.08669 2.72732C1.56491 2.06917 2.22069 1.55544 3.05402 1.18612C3.88736 0.816805 4.83432 0.632146 5.89493 0.632146C6.97448 0.632146 7.91671 0.816805 8.72164 1.18612C9.5313 1.55544 10.161 2.06917 10.6108 2.72732C11.0607 3.38546 11.2927 4.14777 11.3069 5.01425H8.35942ZM18.489 15.5895C17.3669 15.5895 16.401 15.3623 15.5913 14.9077C14.7864 14.4484 14.1661 13.7998 13.7305 12.9617C13.2949 12.1189 13.0771 11.1222 13.0771 9.97163C13.0771 8.84948 13.2949 7.86463 13.7305 7.01709C14.1661 6.16955 14.7793 5.50904 15.57 5.03555C16.3655 4.56207 17.2982 4.32533 18.3683 4.32533C19.088 4.32533 19.758 4.44133 20.3782 4.67334C21.0032 4.90061 21.5477 5.24389 22.0118 5.70317C22.4805 6.16245 22.8451 6.7401 23.1055 7.43612C23.3659 8.12741 23.4961 8.93707 23.4961 9.8651V10.6961H14.2845V8.82107H20.6481C20.6481 8.38546 20.5534 7.99957 20.364 7.6634C20.1746 7.32722 19.9119 7.06444 19.5757 6.87504C19.2442 6.68092 18.8584 6.58385 18.418 6.58385C17.9587 6.58385 17.5515 6.69039 17.1964 6.90345C16.846 7.11179 16.5714 7.39351 16.3726 7.74862C16.1737 8.099 16.0719 8.48963 16.0672 8.9205V10.7032C16.0672 11.2429 16.1666 11.7093 16.3655 12.1023C16.5691 12.4953 16.8555 12.7983 17.2248 13.0114C17.5941 13.2245 18.0321 13.331 18.5388 13.331C18.8749 13.331 19.1827 13.2837 19.462 13.189C19.7414 13.0943 19.9805 12.9522 20.1794 12.7628C20.3782 12.5734 20.5298 12.3414 20.6339 12.0668L23.4322 12.2515C23.2902 12.9238 22.999 13.5109 22.5586 14.0128C22.123 14.51 21.5596 14.8982 20.8683 15.1776C20.1817 15.4522 19.3887 15.5895 18.489 15.5895ZM28.4961 9.06965V15.3765H25.4706V4.46737H28.3541V6.39209H28.4819C28.7234 5.75762 29.1282 5.25573 29.6964 4.88641C30.2646 4.51235 30.9535 4.32533 31.7632 4.32533C32.5208 4.32533 33.1813 4.49105 33.7447 4.82249C34.3082 5.15393 34.7461 5.62741 35.0586 6.24294C35.3711 6.85374 35.5274 7.5829 35.5274 8.43044V15.3765H32.5018V8.97021C32.5066 8.3026 32.3361 7.78177 31.9905 7.40771C31.6448 7.02893 31.169 6.83953 30.5629 6.83953C30.1557 6.83953 29.7959 6.92713 29.4834 7.10232C29.1756 7.27751 28.9341 7.53319 28.7589 7.86936C28.5885 8.2008 28.5009 8.6009 28.4961 9.06965ZM41.9319 15.554C41.1033 15.554 40.3528 15.341 39.6804 14.9148C39.0128 14.4839 38.4825 13.8518 38.0895 13.0185C37.7013 12.1804 37.5071 11.153 37.5071 9.93612C37.5071 8.68612 37.7084 7.64682 38.1108 6.81823C38.5133 5.98489 39.0483 5.36226 39.716 4.95033C40.3883 4.53366 41.1246 4.32533 41.9248 4.32533C42.5356 4.32533 43.0446 4.4295 43.4517 4.63783C43.8637 4.84143 44.1951 5.09711 44.4461 5.40487C44.7017 5.7079 44.8959 6.0062 45.0285 6.29976H45.1208V0.83101H48.1392V15.3765H45.1563V13.6293H45.0285C44.8864 13.9323 44.6852 14.233 44.4248 14.5313C44.1691 14.8249 43.8353 15.0687 43.4233 15.2628C43.0161 15.457 42.519 15.554 41.9319 15.554ZM42.8907 13.1464C43.3784 13.1464 43.7903 13.0138 44.1265 12.7486C44.4674 12.4787 44.7278 12.1023 44.9077 11.6194C45.0924 11.1364 45.1847 10.5706 45.1847 9.92192C45.1847 9.27325 45.0947 8.7098 44.9148 8.23158C44.7349 7.75336 44.4745 7.38404 44.1336 7.12362C43.7927 6.86321 43.3784 6.733 42.8907 6.733C42.3935 6.733 41.9745 6.86794 41.6336 7.13783C41.2927 7.40771 41.0346 7.78177 40.8594 8.25999C40.6842 8.73821 40.5966 9.29218 40.5966 9.92192C40.5966 10.5564 40.6842 11.1175 40.8594 11.6052C41.0393 12.0881 41.2974 12.4669 41.6336 12.7415C41.9745 13.0114 42.3935 13.1464 42.8907 13.1464ZM55.3125 15.3765V0.83101H61.0512C62.1497 0.83101 63.0872 1.02751 63.8637 1.4205C64.6449 1.80876 65.2392 2.36037 65.6464 3.07533C66.0583 3.78556 66.2642 4.62126 66.2642 5.58243C66.2642 6.54834 66.0559 7.37931 65.6392 8.07533C65.2226 8.76662 64.6189 9.29692 63.8282 9.66624C63.0422 10.0356 62.0905 10.2202 60.9731 10.2202H57.1307V7.74862H60.4759C61.063 7.74862 61.5507 7.66813 61.939 7.50715C62.3272 7.34616 62.616 7.10468 62.8054 6.78271C62.9996 6.46074 63.0966 6.06065 63.0966 5.58243C63.0966 5.09948 62.9996 4.69228 62.8054 4.36084C62.616 4.0294 62.3249 3.77845 61.9319 3.608C61.5436 3.43281 61.0535 3.34521 60.4617 3.34521H58.3878V15.3765H55.3125ZM63.1677 8.75715L66.7827 15.3765H63.3878L59.8509 8.75715H63.1677ZM73.1765 15.5895C72.0544 15.5895 71.0885 15.3623 70.2788 14.9077C69.4739 14.4484 68.8536 13.7998 68.418 12.9617C67.9824 12.1189 67.7646 11.1222 67.7646 9.97163C67.7646 8.84948 67.9824 7.86463 68.418 7.01709C68.8536 6.16955 69.4668 5.50904 70.2575 5.03555C71.053 4.56207 71.9857 4.32533 73.0558 4.32533C73.7755 4.32533 74.4455 4.44133 75.0657 4.67334C75.6907 4.90061 76.2352 5.24389 76.6993 5.70317C77.168 6.16245 77.5326 6.7401 77.793 7.43612C78.0534 8.12741 78.1836 8.93707 78.1836 9.8651V10.6961H68.972V8.82107H75.3356C75.3356 8.38546 75.2409 7.99957 75.0515 7.6634C74.8621 7.32722 74.5994 7.06444 74.2632 6.87504C73.9317 6.68092 73.5459 6.58385 73.1055 6.58385C72.6462 6.58385 72.239 6.69039 71.8839 6.90345C71.5335 7.11179 71.2589 7.39351 71.0601 7.74862C70.8612 8.099 70.7594 8.48963 70.7547 8.9205V10.7032C70.7547 11.2429 70.8541 11.7093 71.053 12.1023C71.2566 12.4953 71.543 12.7983 71.9123 13.0114C72.2816 13.2245 72.7196 13.331 73.2263 13.331C73.5624 13.331 73.8702 13.2837 74.1495 13.189C74.4289 13.0943 74.668 12.9522 74.8669 12.7628C75.0657 12.5734 75.2173 12.3414 75.3214 12.0668L78.1197 12.2515C77.9777 12.9238 77.6865 13.5109 77.2461 14.0128C76.8105 14.51 76.2471 14.8982 75.5558 15.1776C74.8692 15.4522 74.0762 15.5895 73.1765 15.5895ZM89.2348 7.57817L86.4649 7.74862C86.4175 7.51188 86.3157 7.29881 86.1595 7.10942C86.0032 6.91529 85.7973 6.76141 85.5416 6.64777C85.2906 6.5294 84.99 6.47021 84.6396 6.47021C84.1709 6.47021 83.7755 6.56965 83.4535 6.76851C83.1316 6.96264 82.9706 7.22306 82.9706 7.54976C82.9706 7.81018 83.0747 8.03035 83.2831 8.21027C83.4914 8.3902 83.8489 8.53461 84.3555 8.64351L86.3299 9.04124C87.3906 9.25904 88.1813 9.60942 88.7021 10.0924C89.2229 10.5753 89.4834 11.2098 89.4834 11.9958C89.4834 12.7107 89.2727 13.3381 88.8513 13.8779C88.4346 14.4177 87.8617 14.8391 87.1325 15.1421C86.4081 15.4404 85.5724 15.5895 84.6254 15.5895C83.1813 15.5895 82.0307 15.2889 81.1737 14.6875C80.3214 14.0815 79.8219 13.2576 79.6751 12.216L82.651 12.0597C82.7409 12.5 82.9587 12.8362 83.3044 13.0682C83.65 13.2955 84.0927 13.4091 84.6325 13.4091C85.1628 13.4091 85.5889 13.3073 85.9109 13.1037C86.2376 12.8954 86.4033 12.6279 86.4081 12.3012C86.4033 12.0266 86.2873 11.8017 86.0601 11.6265C85.8328 11.4465 85.4824 11.3092 85.0089 11.2145L83.1197 10.8381C82.0544 10.625 81.2613 10.2557 80.7405 9.73016C80.2244 9.20459 79.9663 8.53461 79.9663 7.72021C79.9663 7.01946 80.1557 6.41576 80.5345 5.90913C80.918 5.40251 81.4554 5.01188 82.1467 4.73726C82.8427 4.46264 83.6571 4.32533 84.5899 4.32533C85.9677 4.32533 87.052 4.61652 87.8427 5.19891C88.6382 5.78129 89.1022 6.57438 89.2348 7.57817ZM96.3601 15.5895C95.238 15.5895 94.2721 15.3623 93.4624 14.9077C92.6575 14.4484 92.0372 13.7998 91.6016 12.9617C91.166 12.1189 90.9482 11.1222 90.9482 9.97163C90.9482 8.84948 91.166 7.86463 91.6016 7.01709C92.0372 6.16955 92.6504 5.50904 93.4411 5.03555C94.2366 4.56207 95.1693 4.32533 96.2394 4.32533C96.9591 4.32533 97.6291 4.44133 98.2493 4.67334C98.8743 4.90061 99.4188 5.24389 99.8829 5.70317C100.352 6.16245 100.716 6.7401 100.977 7.43612C101.237 8.12741 101.367 8.93707 101.367 9.8651V10.6961H92.1556V8.82107H98.5192C98.5192 8.38546 98.4245 7.99957 98.2351 7.6634C98.0457 7.32722 97.783 7.06444 97.4468 6.87504C97.1153 6.68092 96.7294 6.58385 96.2891 6.58385C95.8298 6.58385 95.4226 6.69039 95.0675 6.90345C94.7171 7.11179 94.4425 7.39351 94.2437 7.74862C94.0448 8.099 93.943 8.48963 93.9383 8.9205V10.7032C93.9383 11.2429 94.0377 11.7093 94.2366 12.1023C94.4401 12.4953 94.7266 12.7983 95.0959 13.0114C95.4652 13.2245 95.9032 13.331 96.4098 13.331C96.746 13.331 97.0538 13.2837 97.3331 13.189C97.6125 13.0943 97.8516 12.9522 98.0505 12.7628C98.2493 12.5734 98.4008 12.3414 98.505 12.0668L101.303 12.2515C101.161 12.9238 100.87 13.5109 100.43 14.0128C99.9941 14.51 99.4307 14.8982 98.7394 15.1776C98.0528 15.4522 97.2598 15.5895 96.3601 15.5895ZM109.144 4.46737V6.7401H102.575V4.46737H109.144ZM104.066 1.85374H107.092V12.0242C107.092 12.3035 107.134 12.5214 107.22 12.6776C107.305 12.8291 107.423 12.9357 107.575 12.9972C107.731 13.0588 107.911 13.0895 108.114 13.0895C108.256 13.0895 108.398 13.0777 108.541 13.054C108.683 13.0256 108.791 13.0043 108.867 12.9901L109.343 15.2415C109.192 15.2889 108.979 15.3433 108.704 15.4049C108.429 15.4712 108.095 15.5114 107.702 15.5256C106.973 15.554 106.334 15.457 105.785 15.2344C105.24 15.0119 104.817 14.6662 104.514 14.1975C104.211 13.7287 104.061 13.1369 104.066 12.4219V1.85374ZM115.801 15.3765V0.83101H118.876V12.841H125.112V15.3765H115.801ZM127.092 15.3765V4.46737H130.117V15.3765H127.092ZM128.612 3.06112C128.162 3.06112 127.776 2.91198 127.454 2.61368C127.137 2.31065 126.978 1.94843 126.978 1.52703C126.978 1.11037 127.137 0.752885 127.454 0.45459C127.776 0.151559 128.162 4.36306e-05 128.612 4.36306e-05C129.061 4.36306e-05 129.445 0.151559 129.762 0.45459C130.084 0.752885 130.245 1.11037 130.245 1.52703C130.245 1.94843 130.084 2.31065 129.762 2.61368C129.445 2.91198 129.061 3.06112 128.612 3.06112ZM135.566 9.06965V15.3765H132.541V4.46737H135.424V6.39209H135.552C135.794 5.75762 136.199 5.25573 136.767 4.88641C137.335 4.51235 138.024 4.32533 138.833 4.32533C139.591 4.32533 140.252 4.49105 140.815 4.82249C141.378 5.15393 141.816 5.62741 142.129 6.24294C142.441 6.85374 142.598 7.5829 142.598 8.43044V15.3765H139.572V8.97021C139.577 8.3026 139.406 7.78177 139.061 7.40771C138.715 7.02893 138.239 6.83953 137.633 6.83953C137.226 6.83953 136.866 6.92713 136.554 7.10232C136.246 7.27751 136.004 7.53319 135.829 7.86936C135.659 8.2008 135.571 8.6009 135.566 9.06965ZM147.724 12.2373L147.731 8.608H148.171L151.666 4.46737H155.139L150.444 9.95033H149.727L147.724 12.2373ZM144.982 15.3765V0.83101H148.008V15.3765H144.982ZM151.8 15.3765L148.59 10.625L150.607 8.48726L155.345 15.3765H151.8Z" fill="white"/>
</svg>
