<svg width="74" height="20" viewBox="0 0 74 20" fill="none" xmlns="http://www.w3.org/2000/svg">
<path d="M8.35942 5.01425C8.3026 4.44133 8.05876 3.99626 7.62789 3.67902C7.19701 3.36179 6.61226 3.20317 5.87362 3.20317C5.37173 3.20317 4.94796 3.27419 4.60232 3.41624C4.25667 3.55355 3.99152 3.74531 3.80686 3.99152C3.62694 4.23773 3.53698 4.51709 3.53698 4.82959C3.52751 5.09001 3.58196 5.31728 3.70033 5.51141C3.82343 5.70554 3.99152 5.87362 4.20459 6.01567C4.41766 6.15298 4.66387 6.27372 4.94323 6.37788C5.22258 6.47732 5.52088 6.56254 5.83811 6.63357L7.14493 6.94607C7.7794 7.08811 8.36179 7.27751 8.89209 7.51425C9.42239 7.75099 9.88167 8.04218 10.2699 8.38783C10.6582 8.73347 10.9589 9.14067 11.1719 9.60942C11.3897 10.0782 11.501 10.6156 11.5057 11.2216C11.501 12.1118 11.2737 12.8836 10.8239 13.537C10.3788 14.1857 9.73489 14.6899 8.89209 15.0498C8.05402 15.4049 7.04313 15.5824 5.85942 15.5824C4.68518 15.5824 3.66245 15.4025 2.79124 15.0427C1.92476 14.6828 1.24768 14.1501 0.759988 13.4446C0.277033 12.7344 0.0237186 11.8561 4.43757e-05 10.8097H2.9759C3.00904 11.2974 3.14872 11.7046 3.39493 12.0313C3.64588 12.3533 3.97968 12.5971 4.39635 12.7628C4.81775 12.9238 5.29361 13.0043 5.82391 13.0043C6.34474 13.0043 6.79692 12.9285 7.18044 12.777C7.5687 12.6255 7.86936 12.4148 8.08243 12.1449C8.2955 11.875 8.40203 11.5649 8.40203 11.2145C8.40203 10.8878 8.30497 10.6132 8.11084 10.3907C7.92145 10.1681 7.64209 9.97874 7.27277 9.82249C6.90819 9.66624 6.46075 9.52419 5.93044 9.39635L4.34664 8.99862C3.12031 8.70033 2.15203 8.23395 1.44181 7.59948C0.731578 6.96501 0.378832 6.11037 0.383567 5.03555C0.378832 4.15487 0.613207 3.38546 1.08669 2.72732C1.56491 2.06917 2.22069 1.55544 3.05402 1.18612C3.88736 0.816805 4.83432 0.632146 5.89493 0.632146C6.97448 0.632146 7.91671 0.816805 8.72164 1.18612C9.5313 1.55544 10.161 2.06917 10.6108 2.72732C11.0607 3.38546 11.2927 4.14777 11.3069 5.01425H8.35942ZM13.5174 15.3765V4.46737H16.543V15.3765H13.5174ZM15.0373 3.06112C14.5875 3.06112 14.2016 2.91198 13.8797 2.61368C13.5624 2.31065 13.4038 1.94843 13.4038 1.52703C13.4038 1.11037 13.5624 0.752885 13.8797 0.45459C14.2016 0.151559 14.5875 4.36306e-05 15.0373 4.36306e-05C15.4871 4.36306e-05 15.8707 0.151559 16.1879 0.45459C16.5099 0.752885 16.6709 1.11037 16.6709 1.52703C16.6709 1.94843 16.5099 2.31065 16.1879 2.61368C15.8707 2.91198 15.4871 3.06112 15.0373 3.06112ZM23.8814 19.6946C22.9013 19.6946 22.0609 19.5597 21.3601 19.2898C20.6641 19.0247 20.1101 18.6624 19.6982 18.2032C19.2863 17.7439 19.0187 17.2278 18.8956 16.6549L21.6939 16.2785C21.7792 16.4963 21.9141 16.6999 22.0988 16.8892C22.2834 17.0786 22.5273 17.2302 22.8303 17.3438C23.1381 17.4622 23.5121 17.5214 23.9525 17.5214C24.6106 17.5214 25.1527 17.3604 25.5789 17.0384C26.0098 16.7212 26.2252 16.1885 26.2252 15.4404V13.4446H26.0973C25.9648 13.7477 25.7659 14.0341 25.5008 14.304C25.2356 14.5739 24.8947 14.7941 24.478 14.9645C24.0614 15.135 23.5642 15.2202 22.9866 15.2202C22.1674 15.2202 21.4217 15.0308 20.7493 14.652C20.0817 14.2685 19.5491 13.6838 19.1513 12.8978C18.7583 12.1071 18.5618 11.108 18.5618 9.90061C18.5618 8.66482 18.7631 7.63262 19.1655 6.80402C19.568 5.97542 20.103 5.35516 20.7706 4.94323C21.443 4.53129 22.1793 4.32533 22.9794 4.32533C23.5902 4.32533 24.1016 4.4295 24.5135 4.63783C24.9255 4.84143 25.2569 5.09711 25.5079 5.40487C25.7635 5.7079 25.96 6.0062 26.0973 6.29976H26.211V4.46737H29.2152V15.483C29.2152 16.411 28.988 17.1875 28.5334 17.8125C28.0789 18.4375 27.4491 18.9063 26.6442 19.2188C25.844 19.536 24.9231 19.6946 23.8814 19.6946ZM23.9454 12.9475C24.433 12.9475 24.845 12.8267 25.1812 12.5853C25.5221 12.3391 25.7825 11.9887 25.9624 11.5341C26.1471 11.0749 26.2394 10.5256 26.2394 9.88641C26.2394 9.2472 26.1494 8.69323 25.9695 8.22448C25.7896 7.75099 25.5292 7.38404 25.1883 7.12362C24.8473 6.86321 24.433 6.733 23.9454 6.733C23.4482 6.733 23.0292 6.86794 22.6883 7.13783C22.3473 7.40298 22.0893 7.7723 21.9141 8.24578C21.7389 8.71927 21.6513 9.26614 21.6513 9.88641C21.6513 10.5161 21.7389 11.0607 21.9141 11.5199C22.094 11.9745 22.3521 12.3272 22.6883 12.5782C23.0292 12.8244 23.4482 12.9475 23.9454 12.9475ZM34.6485 9.06965V15.3765H31.6229V4.46737H34.5064V6.39209H34.6343C34.8758 5.75762 35.2806 5.25573 35.8488 4.88641C36.4169 4.51235 37.1059 4.32533 37.9155 4.32533C38.6731 4.32533 39.3336 4.49105 39.8971 4.82249C40.4605 5.15393 40.8985 5.62741 41.211 6.24294C41.5235 6.85374 41.6797 7.5829 41.6797 8.43044V15.3765H38.6542V8.97021C38.6589 8.3026 38.4884 7.78177 38.1428 7.40771C37.7972 7.02893 37.3213 6.83953 36.7152 6.83953C36.308 6.83953 35.9482 6.92713 35.6357 7.10232C35.3279 7.27751 35.0865 7.53319 34.9113 7.86936C34.7408 8.2008 34.6532 8.6009 34.6485 9.06965ZM57.7344 0.83101H60.8097V10.277C60.8097 11.3376 60.5564 12.2657 60.0498 13.0611C59.5479 13.8566 58.8447 14.4768 57.9404 14.9219C57.036 15.3623 55.9825 15.5824 54.7799 15.5824C53.5725 15.5824 52.5166 15.3623 51.6123 14.9219C50.7079 14.4768 50.0048 13.8566 49.5029 13.0611C49.001 12.2657 48.75 11.3376 48.75 10.277V0.83101H51.8253V10.0142C51.8253 10.5682 51.9461 11.0607 52.1875 11.4915C52.4338 11.9224 52.7794 12.2609 53.2245 12.5071C53.6696 12.7534 54.188 12.8765 54.7799 12.8765C55.3765 12.8765 55.8949 12.7534 56.3353 12.5071C56.7803 12.2609 57.1236 11.9224 57.3651 11.4915C57.6113 11.0607 57.7344 10.5682 57.7344 10.0142V0.83101ZM63.2831 19.4674V4.46737H66.266V6.29976H66.401C66.5335 6.0062 66.7253 5.7079 66.9763 5.40487C67.2319 5.09711 67.5634 4.84143 67.9706 4.63783C68.3825 4.4295 68.8939 4.32533 69.5047 4.32533C70.3001 4.32533 71.034 4.53366 71.7064 4.95033C72.3787 5.36226 72.9161 5.98489 73.3186 6.81823C73.721 7.64682 73.9223 8.68612 73.9223 9.93612C73.9223 11.153 73.7258 12.1804 73.3328 13.0185C72.9445 13.8518 72.4142 14.4839 71.7419 14.9148C71.0743 15.341 70.3262 15.554 69.4976 15.554C68.9104 15.554 68.4109 15.457 67.999 15.2628C67.5918 15.0687 67.258 14.8249 66.9976 14.5313C66.7371 14.233 66.5383 13.9323 66.401 13.6293H66.3086V19.4674H63.2831ZM66.2447 9.92192C66.2447 10.5706 66.3347 11.1364 66.5146 11.6194C66.6945 12.1023 66.9549 12.4787 67.2959 12.7486C67.6368 13.0138 68.0511 13.1464 68.5388 13.1464C69.0312 13.1464 69.4478 13.0114 69.7888 12.7415C70.1297 12.4669 70.3877 12.0881 70.5629 11.6052C70.7428 11.1175 70.8328 10.5564 70.8328 9.92192C70.8328 9.29218 70.7452 8.73821 70.57 8.25999C70.3948 7.78177 70.1368 7.40771 69.7959 7.13783C69.4549 6.86794 69.0359 6.733 68.5388 6.733C68.0463 6.733 67.6297 6.86321 67.2888 7.12362C66.9526 7.38404 66.6945 7.75336 66.5146 8.23158C66.3347 8.7098 66.2447 9.27325 66.2447 9.92192Z" fill="white"/>
</svg>
