<svg width="53" height="53" viewBox="0 0 53 53" fill="none" xmlns="http://www.w3.org/2000/svg">
<g clip-path="url(#clip0_201_1449)">
<path d="M26.3825 52.765C40.9531 52.765 52.765 40.9531 52.765 26.3825C52.765 11.8118 40.9531 0 26.3825 0C11.8118 0 0 11.8118 0 26.3825C0 40.9531 11.8118 52.765 26.3825 52.765Z" fill="#FF4500"/>
<path d="M44.3226 26.6629C44.3226 24.5129 42.5569 22.7679 40.3814 22.7679C39.3094 22.7679 38.3636 23.173 37.6699 23.8585C34.9899 21.9577 31.2695 20.7113 27.1707 20.5555L28.9679 12.2357L34.8008 13.4509C34.8638 14.9155 36.0935 16.0996 37.6069 16.0996C39.1518 16.0996 40.413 14.8531 40.413 13.3263C40.413 11.7994 39.1518 10.553 37.6069 10.553C36.5033 10.553 35.5575 11.1762 35.1161 12.111L28.5895 10.74C28.4003 10.7088 28.2112 10.74 28.0535 10.8335C27.8959 10.9269 27.8013 11.0827 27.7382 11.2697L25.7519 20.5555C21.5585 20.6801 17.8065 21.8954 15.095 23.8585C14.4014 23.2041 13.424 22.7679 12.3835 22.7679C10.208 22.7679 8.44238 24.5129 8.44238 26.6629C8.44238 28.2521 9.38826 29.592 10.7755 30.2152C10.7125 30.5892 10.681 30.9942 10.681 31.3993C10.681 37.3821 17.712 42.212 26.414 42.212C35.1161 42.212 42.1471 37.3821 42.1471 31.3993C42.1471 30.9942 42.1155 30.6203 42.0525 30.2464C43.3452 29.6232 44.3226 28.2521 44.3226 26.6629ZM17.3651 29.4362C17.3651 27.9094 18.6263 26.6629 20.1712 26.6629C21.7162 26.6629 22.9773 27.9094 22.9773 29.4362C22.9773 30.9631 21.7162 32.2095 20.1712 32.2095C18.6263 32.2095 17.3651 30.9631 17.3651 29.4362ZM33.0351 36.7589C31.1119 38.6597 27.4545 38.7843 26.3825 38.7843C25.3105 38.7843 21.6216 38.6285 19.7298 36.7589C19.4461 36.4785 19.4461 36.0111 19.7298 35.7306C20.0136 35.4502 20.4865 35.4502 20.7703 35.7306C21.9684 36.9147 24.5538 37.351 26.414 37.351C28.2742 37.351 30.8281 36.9147 32.0577 35.7306C32.3415 35.4502 32.8144 35.4502 33.0982 35.7306C33.3189 36.0422 33.3189 36.4785 33.0351 36.7589ZM32.5307 32.2095C30.9857 32.2095 29.7246 30.9631 29.7246 29.4362C29.7246 27.9094 30.9857 26.6629 32.5307 26.6629C34.0756 26.6629 35.3368 27.9094 35.3368 29.4362C35.3368 30.9631 34.0756 32.2095 32.5307 32.2095Z" fill="white"/>
</g>
<defs>
<clipPath id="clip0_201_1449">
<rect width="52.765" height="52.765" rx="11" fill="white"/>
</clipPath>
</defs>
</svg>
