<svg width="300" height="65" viewBox="0 0 300 65" fill="none" xmlns="http://www.w3.org/2000/svg">
<path d="M10.8158 48.2559H-0.00017184L16.8958 0.895859H27.0078L43.8398 48.2559H32.8318L29.5038 38.2719H14.2078L10.8158 48.2559ZM20.6078 19.4559L17.2158 29.5679H26.5598L23.1678 19.4559C22.6558 17.8559 22.0798 15.9999 21.8878 14.8479C21.6958 15.9359 21.1838 17.7279 20.6078 19.4559ZM46.1518 38.1439H55.4958C55.6238 40.3839 57.2878 41.7279 60.2958 41.7279C63.3678 41.7279 64.7758 40.6399 64.7758 38.9759C64.7758 38.0159 64.2638 36.9919 61.8958 36.4799L56.0078 35.1999C50.1198 33.9199 47.2398 31.3599 47.2398 25.7279C47.2398 19.0719 52.9358 15.2319 60.6158 15.2319C68.0398 15.2319 73.2238 19.5839 73.2238 26.0479H63.8798C63.8798 23.8719 62.5358 22.3999 60.1678 22.3999C57.9278 22.3999 56.5198 23.5519 56.5198 25.2799C56.5198 26.7519 57.7358 27.5839 59.9758 28.0959L65.9278 29.3759C71.1758 30.5279 74.0558 32.9599 74.0558 38.0799C74.0558 44.9279 68.2318 49.0879 59.9118 49.0879C51.4638 49.0879 46.1518 44.6079 46.1518 38.1439ZM92.4538 48.2559H82.5978V24.4479H76.5178V16.2559H82.5978V6.33586H92.4538V16.2559H98.5338V24.4479H92.4538V48.2559ZM125.299 16.2559V25.5359H122.163C116.531 25.5359 113.139 28.0319 113.139 34.3679V48.2559H103.283V16.3199H112.563L113.075 21.0559C114.419 17.9199 117.235 15.8079 121.523 15.8079C122.675 15.8079 123.955 15.9359 125.299 16.2559ZM127.938 32.1919C127.938 22.0799 135.362 15.2959 145.602 15.2959C155.778 15.2959 163.202 22.0799 163.202 32.1919C163.202 42.3039 155.778 49.0239 145.602 49.0239C135.362 49.0239 127.938 42.3039 127.938 32.1919ZM137.858 32.1279C137.858 36.9919 140.994 40.1919 145.602 40.1919C150.146 40.1919 153.282 36.9919 153.282 32.1279C153.282 27.3279 150.146 24.1279 145.602 24.1279C140.994 24.1279 137.858 27.3279 137.858 32.1279ZM179.092 48.2559H169.236V-0.000141144H179.092V48.2559ZM185.078 32.1919C185.078 22.0799 192.502 15.2959 202.742 15.2959C212.918 15.2959 220.342 22.0799 220.342 32.1919C220.342 42.3039 212.918 49.0239 202.742 49.0239C192.502 49.0239 185.078 42.3039 185.078 32.1919ZM194.998 32.1279C194.998 36.9919 198.134 40.1919 202.742 40.1919C207.286 40.1919 210.422 36.9919 210.422 32.1279C210.422 27.3279 207.286 24.1279 202.742 24.1279C198.134 24.1279 194.998 27.3279 194.998 32.1279ZM224.776 31.6799C224.776 21.9519 231.112 15.1679 240.136 15.1679C244.488 15.1679 247.944 16.8319 249.672 19.4559L250.184 16.2559H259.464V46.2079C259.464 57.6639 252.872 64.5759 241.928 64.5759C232.136 64.5759 225.544 59.0079 224.648 49.9199H234.632C234.824 53.5039 237.512 55.6159 241.864 55.6159C246.6 55.6159 249.608 52.7999 249.608 48.2559V44.0959C247.688 46.3999 244.104 47.8719 239.944 47.8719C230.984 47.8719 224.776 41.2799 224.776 31.6799ZM234.696 31.4239C234.696 36.0319 237.768 39.2959 242.12 39.2959C246.6 39.2959 249.608 36.1599 249.608 31.4239C249.608 26.7519 246.6 23.7439 242.056 23.7439C237.704 23.7439 234.696 26.8799 234.696 31.4239ZM264.636 63.6159V55.3599H270.076C273.404 55.3599 274.812 54.3359 276.092 50.8799L276.668 49.3439L263.804 16.2559H274.364L281.34 36.7999L289.084 16.2559H299.324L283.068 55.2319C280.38 61.7599 276.796 64.5119 271.164 64.5119C268.796 64.5119 266.556 64.1919 264.636 63.6159Z" fill="black"/>
</svg>
