<svg width="406" height="57" viewBox="0 0 406 57" fill="none" xmlns="http://www.w3.org/2000/svg">
<path d="M23.1038 49.024C8.8958 49.024 -0.00019908 39.616 -0.00019908 24.64C-0.00019908 9.85598 9.4078 0.127979 23.5518 0.127979C35.3918 0.127979 43.9038 6.91198 45.3758 17.536H34.4318C33.0238 12.8 28.9918 10.112 23.2958 10.112C15.6158 10.112 10.9438 15.552 10.9438 24.576C10.9438 33.472 15.6798 39.04 23.2958 39.04C29.1198 39.04 33.4078 36.16 34.6878 31.488H45.4398C43.7758 42.048 34.9438 49.024 23.1038 49.024ZM49.7498 32.192C49.7498 22.08 57.1738 15.296 67.4138 15.296C77.5898 15.296 85.0138 22.08 85.0138 32.192C85.0138 42.304 77.5898 49.024 67.4138 49.024C57.1738 49.024 49.7498 42.304 49.7498 32.192ZM59.6698 32.128C59.6698 36.992 62.8058 40.192 67.4138 40.192C71.9578 40.192 75.0938 36.992 75.0938 32.128C75.0938 27.328 71.9578 24.128 67.4138 24.128C62.8058 24.128 59.6698 27.328 59.6698 32.128ZM100.904 48.256H91.0478V16.256H100.328L100.968 19.584C102.952 16.832 106.6 15.232 110.76 15.232C118.376 15.232 122.792 20.096 122.792 28.48V48.256H112.936V30.848C112.936 26.816 110.696 24.192 107.304 24.192C103.4 24.192 100.904 26.752 100.904 30.72V48.256ZM143.108 48.256H133.252V24.448H127.172V16.256H133.252V6.33598H143.108V16.256H149.188V24.448H143.108V48.256ZM168.473 49.088C158.809 49.088 151.897 42.048 151.897 32.192C151.897 22.208 158.617 15.232 168.281 15.232C178.329 15.232 184.601 21.824 184.601 32.256V34.752L161.369 34.88C161.945 39.104 164.313 41.088 168.665 41.088C172.377 41.088 175.001 39.744 175.705 37.44H184.729C183.577 44.544 177.241 49.088 168.473 49.088ZM168.345 23.232C164.441 23.232 162.265 24.96 161.497 28.8H174.809C174.809 25.408 172.313 23.232 168.345 23.232ZM200.614 48.256H190.758V16.256H200.038L200.678 19.584C202.662 16.832 206.31 15.232 210.47 15.232C218.086 15.232 222.502 20.096 222.502 28.48V48.256H212.646V30.848C212.646 26.816 210.406 24.192 207.014 24.192C203.11 24.192 200.614 26.752 200.614 30.72V48.256ZM242.818 48.256H232.962V24.448H226.882V16.256H232.962V6.33598H242.818V16.256H248.898V24.448H242.818V48.256ZM263.742 44.992C263.742 51.136 259.454 55.872 253.438 56.512V52.992C256.638 52.416 258.942 50.688 259.134 48.064C258.622 48.32 257.982 48.448 257.278 48.448C254.27 48.448 251.966 46.208 251.966 43.392C251.966 39.872 254.142 37.504 257.47 37.504C261.182 37.504 263.742 40.576 263.742 44.992ZM320.271 48.256H290.191V0.895981H320.271V10.496H300.559V19.776H318.031V28.864H300.559V38.656H320.271V48.256ZM341.298 49.088C332.082 49.088 326.13 42.56 326.13 32.448C326.13 22.272 332.21 15.232 341.938 15.232C345.906 15.232 349.682 16.832 351.538 19.2V-1.90735e-05H361.394V48.256H352.114L351.602 44.16C349.874 47.104 345.906 49.088 341.298 49.088ZM343.666 40.064C348.274 40.064 351.474 36.864 351.474 32.064C351.474 27.264 348.274 24.064 343.666 24.064C338.994 24.064 336.05 27.328 336.05 32.064C336.05 36.8 338.994 40.064 343.666 40.064ZM373.979 11.264C370.843 11.264 368.347 8.76798 368.347 5.63198C368.347 2.49598 370.843 0.0639801 373.979 0.0639801C377.051 0.0639801 379.547 2.49598 379.547 5.63198C379.547 8.76798 377.051 11.264 373.979 11.264ZM369.115 48.256V16.256H378.971V48.256H369.115ZM399.613 48.256H389.757V24.448H383.677V16.256H389.757V6.33598H399.613V16.256H405.693V24.448H399.613V48.256Z" fill="black"/>
</svg>
