<svg width="388" height="65" viewBox="0 0 388 65" fill="none" xmlns="http://www.w3.org/2000/svg">
<path d="M18.5603 48.256H0.000266075V0.895981H17.9203C31.8083 0.895981 41.4723 10.624 41.4723 24.704C41.4723 38.528 32.0643 48.256 18.5603 48.256ZM16.8963 10.496H10.3683V38.656H17.5363C25.7283 38.656 30.5283 33.472 30.5283 24.704C30.5283 15.744 25.4723 10.496 16.8963 10.496ZM62.6398 49.088C52.9758 49.088 46.0638 42.048 46.0638 32.192C46.0638 22.208 52.7838 15.232 62.4478 15.232C72.4958 15.232 78.7678 21.824 78.7678 32.256V34.752L55.5358 34.88C56.1118 39.104 58.4798 41.088 62.8318 41.088C66.5438 41.088 69.1678 39.744 69.8718 37.44H78.8958C77.7438 44.544 71.4078 49.088 62.6398 49.088ZM62.5118 23.232C58.6078 23.232 56.4318 24.96 55.6638 28.8H68.9758C68.9758 25.408 66.4798 23.232 62.5118 23.232ZM82.6203 38.144H91.9643C92.0923 40.384 93.7563 41.728 96.7643 41.728C99.8363 41.728 101.244 40.64 101.244 38.976C101.244 38.016 100.732 36.992 98.3643 36.48L92.4763 35.2C86.5883 33.92 83.7083 31.36 83.7083 25.728C83.7083 19.072 89.4043 15.232 97.0843 15.232C104.508 15.232 109.692 19.584 109.692 26.048H100.348C100.348 23.872 99.0043 22.4 96.6363 22.4C94.3963 22.4 92.9883 23.552 92.9883 25.28C92.9883 26.752 94.2043 27.584 96.4443 28.096L102.396 29.376C107.644 30.528 110.524 32.96 110.524 38.08C110.524 44.928 104.7 49.088 96.3803 49.088C87.9323 49.088 82.6203 44.608 82.6203 38.144ZM120.858 11.264C117.722 11.264 115.226 8.76798 115.226 5.63198C115.226 2.49598 117.722 0.0639801 120.858 0.0639801C123.93 0.0639801 126.426 2.49598 126.426 5.63198C126.426 8.76798 123.93 11.264 120.858 11.264ZM115.994 48.256V16.256H125.85V48.256H115.994ZM131.964 31.68C131.964 21.952 138.3 15.168 147.324 15.168C151.676 15.168 155.132 16.832 156.86 19.456L157.372 16.256H166.652V46.208C166.652 57.664 160.06 64.576 149.116 64.576C139.324 64.576 132.732 59.008 131.836 49.92H141.82C142.012 53.504 144.7 55.616 149.052 55.616C153.788 55.616 156.796 52.8 156.796 48.256V44.096C154.876 46.4 151.292 47.872 147.132 47.872C138.172 47.872 131.964 41.28 131.964 31.68ZM141.884 31.424C141.884 36.032 144.956 39.296 149.308 39.296C153.788 39.296 156.796 36.16 156.796 31.424C156.796 26.752 153.788 23.744 149.244 23.744C144.892 23.744 141.884 26.88 141.884 31.424ZM184.24 48.256H174.384V16.256H183.664L184.304 19.584C186.288 16.832 189.936 15.232 194.096 15.232C201.712 15.232 206.128 20.096 206.128 28.48V48.256H196.272V30.848C196.272 26.816 194.032 24.192 190.64 24.192C186.736 24.192 184.24 26.752 184.24 30.72V48.256ZM228.342 10.496V0.895981H265.59V10.496H252.15V48.256H241.782V10.496H228.342ZM263.429 32.192C263.429 22.08 270.853 15.296 281.093 15.296C291.269 15.296 298.693 22.08 298.693 32.192C298.693 42.304 291.269 49.024 281.093 49.024C270.853 49.024 263.429 42.304 263.429 32.192ZM273.349 32.128C273.349 36.992 276.485 40.192 281.093 40.192C285.637 40.192 288.773 36.992 288.773 32.128C288.773 27.328 285.637 24.128 281.093 24.128C276.485 24.128 273.349 27.328 273.349 32.128ZM302.999 32.192C302.999 22.08 310.423 15.296 320.663 15.296C330.839 15.296 338.263 22.08 338.263 32.192C338.263 42.304 330.839 49.024 320.663 49.024C310.423 49.024 302.999 42.304 302.999 32.192ZM312.919 32.128C312.919 36.992 316.055 40.192 320.663 40.192C325.207 40.192 328.343 36.992 328.343 32.128C328.343 27.328 325.207 24.128 320.663 24.128C316.055 24.128 312.919 27.328 312.919 32.128ZM354.153 48.256H344.297V-1.90735e-05H354.153V48.256ZM359.563 38.144H368.907C369.035 40.384 370.699 41.728 373.707 41.728C376.779 41.728 378.187 40.64 378.187 38.976C378.187 38.016 377.675 36.992 375.307 36.48L369.419 35.2C363.531 33.92 360.651 31.36 360.651 25.728C360.651 19.072 366.347 15.232 374.027 15.232C381.451 15.232 386.635 19.584 386.635 26.048H377.291C377.291 23.872 375.947 22.4 373.579 22.4C371.339 22.4 369.931 23.552 369.931 25.28C369.931 26.752 371.147 27.584 373.387 28.096L379.339 29.376C384.587 30.528 387.467 32.96 387.467 38.08C387.467 44.928 381.643 49.088 373.323 49.088C364.875 49.088 359.563 44.608 359.563 38.144Z" fill="black"/>
</svg>
