<svg width="535" height="65" viewBox="0 0 535 65" fill="none" xmlns="http://www.w3.org/2000/svg">
<path d="M30.0803 48.256H0.000266075V0.895981H30.0803V10.496H10.3683V19.776H27.8403V28.864H10.3683V38.656H30.0803V48.256ZM47.5228 48.256H37.6668V16.256H46.8828L47.5228 19.584C49.1228 17.344 52.2588 15.232 56.8668 15.232C61.6668 15.232 64.7388 17.472 66.5948 20.864C68.2588 17.472 72.0348 15.232 76.6428 15.232C84.8988 15.232 88.9948 20.032 88.9948 27.328V48.256H79.1388V30.08C79.1388 26.048 77.0268 24.128 73.8908 24.128C71.0748 24.128 68.2588 25.664 68.2588 31.104V48.256H58.4028V30.08C58.4028 26.112 56.3548 24.192 53.2188 24.192C50.4028 24.192 47.5228 25.728 47.5228 31.104V48.256ZM106.026 49.088C99.2418 49.088 95.0178 45.12 95.0178 38.848C95.0178 32.96 99.1778 29.312 106.858 28.736L115.818 28.032V27.52C115.818 24.384 113.898 22.72 110.378 22.72C106.218 22.72 103.978 24.32 103.978 27.2H95.7858C95.7858 19.968 101.738 15.232 110.89 15.232C120.17 15.232 125.418 20.416 125.418 29.568V48.256H116.714L116.074 44.032C115.05 46.976 110.826 49.088 106.026 49.088ZM109.482 41.792C113.258 41.792 115.882 39.936 115.882 36.288V34.56L110.89 35.008C106.602 35.392 105.066 36.352 105.066 38.4C105.066 40.704 106.474 41.792 109.482 41.792ZM137.671 11.264C134.535 11.264 132.039 8.76798 132.039 5.63198C132.039 2.49598 134.535 0.0639801 137.671 0.0639801C140.743 0.0639801 143.239 2.49598 143.239 5.63198C143.239 8.76798 140.743 11.264 137.671 11.264ZM132.807 48.256V16.256H142.663V48.256H132.807ZM160.233 48.256H150.377V-1.90735e-05H160.233V48.256ZM165.643 38.144H174.987C175.115 40.384 176.779 41.728 179.787 41.728C182.859 41.728 184.267 40.64 184.267 38.976C184.267 38.016 183.755 36.992 181.387 36.48L175.499 35.2C169.611 33.92 166.731 31.36 166.731 25.728C166.731 19.072 172.427 15.232 180.107 15.232C187.531 15.232 192.715 19.584 192.715 26.048H183.371C183.371 23.872 182.027 22.4 179.659 22.4C177.419 22.4 176.011 23.552 176.011 25.28C176.011 26.752 177.227 27.584 179.467 28.096L185.419 29.376C190.667 30.528 193.547 32.96 193.547 38.08C193.547 44.928 187.723 49.088 179.403 49.088C170.955 49.088 165.643 44.608 165.643 38.144ZM211.049 44.992C211.049 51.136 206.761 55.872 200.745 56.512V52.992C203.945 52.416 206.249 50.688 206.441 48.064C205.929 48.32 205.289 48.448 204.585 48.448C201.577 48.448 199.273 46.208 199.273 43.392C199.273 39.872 201.449 37.504 204.777 37.504C208.489 37.504 211.049 40.576 211.049 44.992ZM247.546 48.256H237.498V0.895981H247.546L261.626 36.224L275.77 0.895981H285.946V48.256H275.898V38.336C275.898 28.096 275.898 25.856 276.41 22.336L266.362 48.256H256.89L246.906 22.336C247.482 25.856 247.546 29.824 247.546 35.008V48.256ZM309.762 49.088C300.098 49.088 293.186 42.048 293.186 32.192C293.186 22.208 299.906 15.232 309.57 15.232C319.618 15.232 325.89 21.824 325.89 32.256V34.752L302.658 34.88C303.234 39.104 305.602 41.088 309.954 41.088C313.666 41.088 316.29 39.744 316.994 37.44H326.018C324.866 44.544 318.53 49.088 309.762 49.088ZM309.634 23.232C305.73 23.232 303.554 24.96 302.786 28.8H316.098C316.098 25.408 313.602 23.232 309.634 23.232ZM329.743 38.144H339.087C339.215 40.384 340.879 41.728 343.887 41.728C346.959 41.728 348.367 40.64 348.367 38.976C348.367 38.016 347.855 36.992 345.487 36.48L339.599 35.2C333.711 33.92 330.831 31.36 330.831 25.728C330.831 19.072 336.527 15.232 344.207 15.232C351.631 15.232 356.815 19.584 356.815 26.048H347.471C347.471 23.872 346.127 22.4 343.759 22.4C341.519 22.4 340.111 23.552 340.111 25.28C340.111 26.752 341.327 27.584 343.567 28.096L349.519 29.376C354.767 30.528 357.647 32.96 357.647 38.08C357.647 44.928 351.823 49.088 343.503 49.088C335.055 49.088 329.743 44.608 329.743 38.144ZM360.813 38.144H370.157C370.285 40.384 371.949 41.728 374.957 41.728C378.029 41.728 379.437 40.64 379.437 38.976C379.437 38.016 378.925 36.992 376.557 36.48L370.669 35.2C364.781 33.92 361.901 31.36 361.901 25.728C361.901 19.072 367.597 15.232 375.277 15.232C382.701 15.232 387.885 19.584 387.885 26.048H378.541C378.541 23.872 377.197 22.4 374.829 22.4C372.589 22.4 371.181 23.552 371.181 25.28C371.181 26.752 372.397 27.584 374.637 28.096L380.589 29.376C385.837 30.528 388.717 32.96 388.717 38.08C388.717 44.928 382.893 49.088 374.573 49.088C366.125 49.088 360.813 44.608 360.813 38.144ZM403.851 49.088C397.067 49.088 392.843 45.12 392.843 38.848C392.843 32.96 397.003 29.312 404.683 28.736L413.643 28.032V27.52C413.643 24.384 411.723 22.72 408.203 22.72C404.043 22.72 401.803 24.32 401.803 27.2H393.611C393.611 19.968 399.563 15.232 408.715 15.232C417.995 15.232 423.243 20.416 423.243 29.568V48.256H414.539L413.899 44.032C412.875 46.976 408.651 49.088 403.851 49.088ZM407.307 41.792C411.083 41.792 413.707 39.936 413.707 36.288V34.56L408.715 35.008C404.427 35.392 402.891 36.352 402.891 38.4C402.891 40.704 404.299 41.792 407.307 41.792ZM429.032 31.68C429.032 21.952 435.368 15.168 444.392 15.168C448.744 15.168 452.2 16.832 453.928 19.456L454.44 16.256H463.72V46.208C463.72 57.664 457.128 64.576 446.184 64.576C436.392 64.576 429.8 59.008 428.904 49.92H438.888C439.08 53.504 441.768 55.616 446.12 55.616C450.856 55.616 453.864 52.8 453.864 48.256V44.096C451.944 46.4 448.36 47.872 444.2 47.872C435.24 47.872 429.032 41.28 429.032 31.68ZM438.952 31.424C438.952 36.032 442.024 39.296 446.376 39.296C450.856 39.296 453.864 36.16 453.864 31.424C453.864 26.752 450.856 23.744 446.312 23.744C441.96 23.744 438.952 26.88 438.952 31.424ZM486.3 49.088C476.636 49.088 469.724 42.048 469.724 32.192C469.724 22.208 476.444 15.232 486.108 15.232C496.156 15.232 502.428 21.824 502.428 32.256V34.752L479.196 34.88C479.772 39.104 482.14 41.088 486.492 41.088C490.204 41.088 492.828 39.744 493.532 37.44H502.556C501.404 44.544 495.068 49.088 486.3 49.088ZM486.172 23.232C482.268 23.232 480.092 24.96 479.324 28.8H492.636C492.636 25.408 490.14 23.232 486.172 23.232ZM506.28 38.144H515.624C515.752 40.384 517.416 41.728 520.424 41.728C523.496 41.728 524.904 40.64 524.904 38.976C524.904 38.016 524.392 36.992 522.024 36.48L516.136 35.2C510.248 33.92 507.368 31.36 507.368 25.728C507.368 19.072 513.064 15.232 520.744 15.232C528.168 15.232 533.352 19.584 533.352 26.048H524.008C524.008 23.872 522.664 22.4 520.296 22.4C518.056 22.4 516.648 23.552 516.648 25.28C516.648 26.752 517.864 27.584 520.104 28.096L526.056 29.376C531.304 30.528 534.184 32.96 534.184 38.08C534.184 44.928 528.36 49.088 520.04 49.088C511.592 49.088 506.28 44.608 506.28 38.144Z" fill="black"/>
</svg>
