<svg width="101" height="24" viewBox="0 0 101 24" fill="none" xmlns="http://www.w3.org/2000/svg">
<path d="M20.24 7.22005V16.7901C20.24 18.7501 18.11 19.98 16.41 19L12.26 16.61L8.10996 14.21C6.40996 13.23 6.40996 10.78 8.10996 9.80004L12.26 7.40004L16.41 5.01006C18.11 4.03006 20.24 5.25005 20.24 7.22005Z" stroke="#1A1A1A" stroke-width="1.5" stroke-linecap="round" stroke-linejoin="round"/>
<path d="M3.75977 18.1801V5.82007" stroke="#1A1A1A" stroke-width="1.5" stroke-linecap="round" stroke-linejoin="round"/>
<path d="M38.44 12.976H36.508V16H34.972V7.228H38.44C40.204 7.228 41.344 8.38 41.344 10.096C41.344 11.788 40.192 12.976 38.44 12.976ZM38.14 8.596H36.508V11.608H38.116C39.172 11.608 39.736 11.044 39.736 10.084C39.736 9.124 39.16 8.596 38.14 8.596ZM46.1401 10.048V11.404H45.6001C44.5441 11.404 43.8841 11.968 43.8841 13.12V16H42.4201V10.084H43.8001L43.8841 10.948C44.1361 10.36 44.7001 9.964 45.4921 9.964C45.6961 9.964 45.9001 9.988 46.1401 10.048ZM49.5838 16.156C47.8198 16.156 46.5838 14.872 46.5838 13.036C46.5838 11.176 47.7958 9.892 49.5358 9.892C51.3118 9.892 52.4398 11.08 52.4398 12.928V13.372L47.9758 13.384C48.0838 14.428 48.6358 14.956 49.6078 14.956C50.4118 14.956 50.9398 14.644 51.1078 14.08H52.4638C52.2118 15.376 51.1318 16.156 49.5838 16.156ZM49.5478 11.092C48.6838 11.092 48.1558 11.56 48.0118 12.448H50.9878C50.9878 11.632 50.4238 11.092 49.5478 11.092ZM55.0337 16L52.6817 10.072H54.2417L55.2737 12.796C55.5257 13.504 55.7297 14.116 55.8017 14.44C55.8857 14.068 56.1017 13.444 56.3537 12.796L57.4337 10.072H58.9457L56.4737 16H55.0337ZM60.5193 8.884C60.0153 8.884 59.6193 8.488 59.6193 7.996C59.6193 7.504 60.0153 7.12 60.5193 7.12C60.9993 7.12 61.3953 7.504 61.3953 7.996C61.3953 8.488 60.9993 8.884 60.5193 8.884ZM59.7873 16V10.072H61.2513V16H59.7873ZM62.4158 13.024C62.4158 11.176 63.7478 9.904 65.5838 9.904C67.4198 9.904 68.7518 11.176 68.7518 13.024C68.7518 14.872 67.4198 16.144 65.5838 16.144C63.7478 16.144 62.4158 14.872 62.4158 13.024ZM63.8798 13.024C63.8798 14.104 64.5758 14.836 65.5838 14.836C66.5918 14.836 67.2878 14.104 67.2878 13.024C67.2878 11.944 66.5918 11.212 65.5838 11.212C64.5758 11.212 63.8798 11.944 63.8798 13.024ZM73.7916 10.072H75.2556V16H73.8996L73.7916 15.208C73.4316 15.772 72.6636 16.156 71.8716 16.156C70.5036 16.156 69.6996 15.232 69.6996 13.78V10.072H71.1636V13.264C71.1636 14.392 71.6076 14.848 72.4236 14.848C73.3476 14.848 73.7916 14.308 73.7916 13.18V10.072ZM76.1945 14.2H77.5865C77.5985 14.716 77.9825 15.04 78.6545 15.04C79.3385 15.04 79.7105 14.764 79.7105 14.332C79.7105 14.032 79.5545 13.816 79.0265 13.696L77.9585 13.444C76.8905 13.204 76.3745 12.7 76.3745 11.752C76.3745 10.588 77.3585 9.892 78.7265 9.892C80.0585 9.892 80.9585 10.66 80.9705 11.812H79.5785C79.5665 11.308 79.2305 10.984 78.6665 10.984C78.0905 10.984 77.7545 11.248 77.7545 11.692C77.7545 12.028 78.0185 12.244 78.5225 12.364L79.5905 12.616C80.5865 12.844 81.0905 13.3 81.0905 14.212C81.0905 15.412 80.0705 16.156 78.6065 16.156C77.1305 16.156 76.1945 15.364 76.1945 14.2Z" fill="black"/>
</svg>
