<svg width="119" height="24" viewBox="0 0 119 24" fill="none" xmlns="http://www.w3.org/2000/svg">
<path d="M20 6.95V17.05C19.84 17.02 19.67 17 19.5 17C18.12 17 17 18.12 17 19.5C17 19.67 17.02 19.84 17.05 20H6.95C6.98 19.84 7 19.67 7 19.5C7 18.12 5.88 17 4.5 17C4.33 17 4.16 17.02 4 17.05V6.95C4.16 6.98 4.33 7 4.5 7C5.88 7 7 5.88 7 4.5C7 4.33 6.98 4.16 6.95 4H17.05C17.02 4.16 17 4.33 17 4.5C17 5.88 18.12 7 19.5 7C19.67 7 19.84 6.98 20 6.95Z" stroke="#1A1A1A" stroke-width="1.5" stroke-linecap="round" stroke-linejoin="round"/>
<path d="M7 4.5C7 5.88 5.88 7 4.5 7C4.33 7 4.16 6.98 4 6.95C2.86 6.72 2 5.71 2 4.5C2 3.12 3.12 2 4.5 2C5.71 2 6.72 2.86 6.95 4C6.98 4.16 7 4.33 7 4.5Z" stroke="#1A1A1A" stroke-width="1.5" stroke-linecap="round" stroke-linejoin="round"/>
<path d="M22 4.5C22 5.71 21.14 6.72 20 6.95C19.84 6.98 19.67 7 19.5 7C18.12 7 17 5.88 17 4.5C17 4.33 17.02 4.16 17.05 4C17.28 2.86 18.29 2 19.5 2C20.88 2 22 3.12 22 4.5Z" stroke="#1A1A1A" stroke-width="1.5" stroke-linecap="round" stroke-linejoin="round"/>
<path d="M7 19.5C7 19.67 6.98 19.84 6.95 20C6.72 21.14 5.71 22 4.5 22C3.12 22 2 20.88 2 19.5C2 18.29 2.86 17.28 4 17.05C4.16 17.02 4.33 17 4.5 17C5.88 17 7 18.12 7 19.5Z" stroke="#1A1A1A" stroke-width="1.5" stroke-linecap="round" stroke-linejoin="round"/>
<path d="M22 19.5C22 20.88 20.88 22 19.5 22C18.29 22 17.28 21.14 17.05 20C17.02 19.84 17 19.67 17 19.5C17 18.12 18.12 17 19.5 17C19.67 17 19.84 17.02 20 17.05C21.14 17.28 22 18.29 22 19.5Z" stroke="#1A1A1A" stroke-width="1.5" stroke-linecap="round" stroke-linejoin="round"/>
<path d="M42.772 13.412H39.508V17H37.972V8.228H43.396V9.644H39.508V12.032H42.772V13.412ZM43.7596 14.024C43.7596 12.176 45.0916 10.904 46.9276 10.904C48.7636 10.904 50.0956 12.176 50.0956 14.024C50.0956 15.872 48.7636 17.144 46.9276 17.144C45.0916 17.144 43.7596 15.872 43.7596 14.024ZM45.2236 14.024C45.2236 15.104 45.9196 15.836 46.9276 15.836C47.9356 15.836 48.6316 15.104 48.6316 14.024C48.6316 12.944 47.9356 12.212 46.9276 12.212C45.9196 12.212 45.2236 12.944 45.2236 14.024ZM54.976 11.048V12.404H54.436C53.38 12.404 52.72 12.968 52.72 14.12V17H51.256V11.084H52.636L52.72 11.948C52.972 11.36 53.536 10.964 54.328 10.964C54.532 10.964 54.736 10.988 54.976 11.048ZM57.4309 17H55.9669V11.072H57.3109L57.4309 11.768C57.7309 11.276 58.3309 10.892 59.1829 10.892C60.0829 10.892 60.7069 11.336 61.0189 12.02C61.3189 11.336 62.0149 10.892 62.9149 10.892C64.3549 10.892 65.1469 11.756 65.1469 13.124V17H63.6949V13.508C63.6949 12.656 63.2389 12.212 62.5429 12.212C61.8349 12.212 61.2949 12.668 61.2949 13.64V17H59.8309V13.496C59.8309 12.668 59.3869 12.224 58.6909 12.224C57.9949 12.224 57.4309 12.68 57.4309 13.64V17ZM68.3481 17.156C67.0881 17.156 66.3201 16.424 66.3201 15.308C66.3201 14.216 67.1121 13.532 68.5161 13.424L70.2921 13.292V13.16C70.2921 12.356 69.8121 12.032 69.0681 12.032C68.2041 12.032 67.7241 12.392 67.7241 13.016H66.4761C66.4761 11.732 67.5321 10.892 69.1401 10.892C70.7361 10.892 71.7201 11.756 71.7201 13.4V17H70.4361L70.3281 16.124C70.0761 16.736 69.2721 17.156 68.3481 17.156ZM68.8281 16.052C69.7281 16.052 70.3041 15.512 70.3041 14.6V14.288L69.0681 14.384C68.1561 14.468 67.8081 14.768 67.8081 15.248C67.8081 15.788 68.1681 16.052 68.8281 16.052ZM75.0923 17H73.6283V12.296H72.4883V11.072H73.6283V9.224H75.0923V11.072H76.2443V12.296H75.0923V17ZM76.9081 14.444V13.148H80.7721V14.444H76.9081ZM81.7258 15.2H83.1178C83.1298 15.716 83.5138 16.04 84.1858 16.04C84.8698 16.04 85.2418 15.764 85.2418 15.332C85.2418 15.032 85.0858 14.816 84.5578 14.696L83.4898 14.444C82.4218 14.204 81.9058 13.7 81.9058 12.752C81.9058 11.588 82.8898 10.892 84.2578 10.892C85.5898 10.892 86.4898 11.66 86.5018 12.812H85.1098C85.0978 12.308 84.7618 11.984 84.1978 11.984C83.6218 11.984 83.2858 12.248 83.2858 12.692C83.2858 13.028 83.5498 13.244 84.0538 13.364L85.1218 13.616C86.1178 13.844 86.6218 14.3 86.6218 15.212C86.6218 16.412 85.6018 17.156 84.1378 17.156C82.6618 17.156 81.7258 16.364 81.7258 15.2ZM87.3885 13.964C87.3885 12.104 88.4925 10.892 90.1605 10.892C91.0605 10.892 91.8405 11.288 92.2005 11.972L92.2965 11.072H93.6405V19.748H92.1885V16.208C91.8165 16.808 91.0365 17.156 90.1605 17.156C88.3965 17.156 87.3885 15.812 87.3885 13.964ZM88.8525 14.036C88.8525 15.092 89.4765 15.836 90.4965 15.836C91.5165 15.836 92.1765 15.104 92.1765 14.036C92.1765 12.968 91.5165 12.224 90.4965 12.224C89.4765 12.224 88.8525 12.98 88.8525 14.036ZM99.1862 11.072H100.65V17H99.2942L99.1862 16.208C98.8262 16.772 98.0582 17.156 97.2662 17.156C95.8982 17.156 95.0942 16.232 95.0942 14.78V11.072H96.5582V14.264C96.5582 15.392 97.0022 15.848 97.8182 15.848C98.7422 15.848 99.1862 15.308 99.1862 14.18V11.072ZM103.926 17.156C102.666 17.156 101.898 16.424 101.898 15.308C101.898 14.216 102.69 13.532 104.094 13.424L105.87 13.292V13.16C105.87 12.356 105.39 12.032 104.646 12.032C103.782 12.032 103.302 12.392 103.302 13.016H102.054C102.054 11.732 103.11 10.892 104.718 10.892C106.314 10.892 107.298 11.756 107.298 13.4V17H106.014L105.906 16.124C105.654 16.736 104.85 17.156 103.926 17.156ZM104.406 16.052C105.306 16.052 105.882 15.512 105.882 14.6V14.288L104.646 14.384C103.734 14.468 103.386 14.768 103.386 15.248C103.386 15.788 103.746 16.052 104.406 16.052ZM112.456 11.048V12.404H111.916C110.86 12.404 110.2 12.968 110.2 14.12V17H108.736V11.084H110.116L110.2 11.948C110.452 11.36 111.016 10.964 111.808 10.964C112.012 10.964 112.216 10.988 112.456 11.048ZM115.9 17.156C114.136 17.156 112.9 15.872 112.9 14.036C112.9 12.176 114.112 10.892 115.852 10.892C117.628 10.892 118.756 12.08 118.756 13.928V14.372L114.292 14.384C114.4 15.428 114.952 15.956 115.924 15.956C116.728 15.956 117.256 15.644 117.424 15.08H118.78C118.528 16.376 117.448 17.156 115.9 17.156ZM115.864 12.092C115 12.092 114.472 12.56 114.328 13.448H117.304C117.304 12.632 116.74 12.092 115.864 12.092Z" fill="black"/>
</svg>
