<svg width="149" height="24" viewBox="0 0 149 24" fill="none" xmlns="http://www.w3.org/2000/svg">
<path d="M21.9702 15V9C21.9702 4 19.9702 2 14.9702 2H8.97021C3.97021 2 1.97021 4 1.97021 9V15C1.97021 20 3.97021 22 8.97021 22H14.9702C19.9702 22 21.9702 20 21.9702 15Z" stroke="#1A1A1A" stroke-width="1.5" stroke-linecap="round" stroke-linejoin="round"/>
<path d="M22 8.5H2" stroke="#1A1A1A" stroke-width="1.5" stroke-linecap="round" stroke-linejoin="round"/>
<path d="M14.5599 15.4999L11.9999 12.9399L9.43994 15.4999" stroke="#1A1A1A" stroke-width="1.5" stroke-linecap="round" stroke-linejoin="round"/>
<path d="M34.468 9.676C34.468 8.14 35.74 7.072 37.588 7.072C39.364 7.072 40.492 8.056 40.54 9.64H39.004C38.968 8.884 38.428 8.44 37.564 8.44C36.616 8.44 36.004 8.896 36.004 9.628C36.004 10.252 36.34 10.6 37.072 10.768L38.452 11.068C39.952 11.392 40.684 12.16 40.684 13.468C40.684 15.1 39.412 16.156 37.48 16.156C35.608 16.156 34.384 15.16 34.348 13.588H35.884C35.896 14.332 36.496 14.776 37.48 14.776C38.5 14.776 39.148 14.332 39.148 13.6C39.148 13.012 38.848 12.664 38.128 12.508L36.736 12.196C35.248 11.872 34.468 11.02 34.468 9.676ZM42.5896 8.884C42.0856 8.884 41.6896 8.488 41.6896 7.996C41.6896 7.504 42.0856 7.12 42.5896 7.12C43.0696 7.12 43.4656 7.504 43.4656 7.996C43.4656 8.488 43.0696 8.884 42.5896 8.884ZM41.8576 16V10.072H43.3216V16H41.8576ZM47.2701 16.156C45.5541 16.156 44.4861 14.896 44.4861 13.06C44.4861 11.212 45.5661 9.892 47.3541 9.892C48.1821 9.892 48.9141 10.24 49.2861 10.828V7.072H50.7381V16H49.3941L49.2981 15.076C48.9381 15.76 48.1701 16.156 47.2701 16.156ZM47.5941 14.812C48.6141 14.812 49.2741 14.08 49.2741 13.012C49.2741 11.944 48.6141 11.2 47.5941 11.2C46.5741 11.2 45.9501 11.956 45.9501 13.012C45.9501 14.068 46.5741 14.812 47.5941 14.812ZM54.9158 16.156C53.1518 16.156 51.9158 14.872 51.9158 13.036C51.9158 11.176 53.1278 9.892 54.8678 9.892C56.6438 9.892 57.7718 11.08 57.7718 12.928V13.372L53.3078 13.384C53.4158 14.428 53.9678 14.956 54.9398 14.956C55.7438 14.956 56.2718 14.644 56.4398 14.08H57.7958C57.5438 15.376 56.4638 16.156 54.9158 16.156ZM54.8798 11.092C54.0158 11.092 53.4878 11.56 53.3438 12.448H56.3198C56.3198 11.632 55.7558 11.092 54.8798 11.092ZM60.2995 16H58.9435V7.072H60.4075V10.936C60.7915 10.276 61.5835 9.88 62.4835 9.88C64.1755 9.88 65.2075 11.2 65.2075 13.072C65.2075 14.896 64.0915 16.156 62.3875 16.156C61.4995 16.156 60.7435 15.76 60.3955 15.076L60.2995 16ZM60.4195 13.012C60.4195 14.08 61.0795 14.812 62.0875 14.812C63.1195 14.812 63.7315 14.068 63.7315 13.012C63.7315 11.956 63.1195 11.2 62.0875 11.2C61.0795 11.2 60.4195 11.944 60.4195 13.012ZM68.1372 16.156C66.8772 16.156 66.1092 15.424 66.1092 14.308C66.1092 13.216 66.9012 12.532 68.3052 12.424L70.0812 12.292V12.16C70.0812 11.356 69.6012 11.032 68.8572 11.032C67.9932 11.032 67.5132 11.392 67.5132 12.016H66.2652C66.2652 10.732 67.3212 9.892 68.9292 9.892C70.5252 9.892 71.5092 10.756 71.5092 12.4V16H70.2252L70.1172 15.124C69.8652 15.736 69.0612 16.156 68.1372 16.156ZM68.6172 15.052C69.5172 15.052 70.0932 14.512 70.0932 13.6V13.288L68.8572 13.384C67.9452 13.468 67.5972 13.768 67.5972 14.248C67.5972 14.788 67.9572 15.052 68.6172 15.052ZM76.6674 10.048V11.404H76.1274C75.0714 11.404 74.4114 11.968 74.4114 13.12V16H72.9474V10.084H74.3274L74.4114 10.948C74.6634 10.36 75.2274 9.964 76.0194 9.964C76.2234 9.964 76.4274 9.988 76.6674 10.048ZM77.2128 13.444V12.148H81.0768V13.444H77.2128ZM84.3501 16H82.8861V11.296H81.7461V10.072H82.8861V8.224H84.3501V10.072H85.5021V11.296H84.3501V16ZM86.0057 13.024C86.0057 11.176 87.3377 9.904 89.1737 9.904C91.0097 9.904 92.3417 11.176 92.3417 13.024C92.3417 14.872 91.0097 16.144 89.1737 16.144C87.3377 16.144 86.0057 14.872 86.0057 13.024ZM87.4697 13.024C87.4697 14.104 88.1657 14.836 89.1737 14.836C90.1817 14.836 90.8777 14.104 90.8777 13.024C90.8777 11.944 90.1817 11.212 89.1737 11.212C88.1657 11.212 87.4697 11.944 87.4697 13.024ZM93.5021 18.748V10.072H94.8581L94.9541 10.972C95.3141 10.288 96.0941 9.892 96.9941 9.892C98.6621 9.892 99.7661 11.104 99.7661 12.964C99.7661 14.812 98.7581 16.156 96.9941 16.156C96.1061 16.156 95.3381 15.808 94.9661 15.208V18.748H93.5021ZM94.9781 13.036C94.9781 14.104 95.6381 14.836 96.6461 14.836C97.6781 14.836 98.2901 14.092 98.2901 13.036C98.2901 11.98 97.6781 11.224 96.6461 11.224C95.6381 11.224 94.9781 11.968 94.9781 13.036Z" fill="black"/>
</svg>
