<svg width="101" height="24" viewBox="0 0 101 24" fill="none" xmlns="http://www.w3.org/2000/svg">
<path d="M17.2004 22.0004C19.8513 22.0004 22.0004 19.8513 22.0004 17.2004C22.0004 14.5494 19.8513 12.4004 17.2004 12.4004C14.5494 12.4004 12.4004 14.5494 12.4004 17.2004C12.4004 19.8513 14.5494 22.0004 17.2004 22.0004Z" stroke="#1A1A1A" stroke-width="1.5" stroke-miterlimit="10" stroke-linecap="round" stroke-linejoin="round"/>
<path d="M18.9902 17.2607H15.4102" stroke="#1A1A1A" stroke-width="1.5" stroke-miterlimit="10" stroke-linecap="round" stroke-linejoin="round"/>
<path d="M17.2002 15.5107V19.1007" stroke="#1A1A1A" stroke-width="1.5" stroke-miterlimit="10" stroke-linecap="round" stroke-linejoin="round"/>
<path d="M22 8.68964C22 10.6596 21.49 12.3996 20.69 13.9096C19.81 12.9796 18.57 12.3997 17.2 12.3997C14.55 12.3997 12.4 14.5496 12.4 17.1996C12.4 18.4296 12.87 19.5497 13.63 20.3997C13.26 20.5697 12.92 20.7096 12.62 20.8096C12.28 20.9296 11.72 20.9296 11.38 20.8096C8.48 19.8196 2 15.6896 2 8.68964C2 5.59964 4.49 3.09961 7.56 3.09961C9.37 3.09961 10.99 3.97965 12 5.32965C13.01 3.97965 14.63 3.09961 16.44 3.09961C19.51 3.09961 22 5.59964 22 8.68964Z" stroke="#1A1A1A" stroke-width="1.5" stroke-linecap="round" stroke-linejoin="round"/>
<path d="M36.508 16H34.972V7.228H36.508V10.852H40.396V7.228H41.932V16H40.396V12.28H36.508V16ZM46.3143 16.156C44.5503 16.156 43.3143 14.872 43.3143 13.036C43.3143 11.176 44.5263 9.892 46.2663 9.892C48.0423 9.892 49.1703 11.08 49.1703 12.928V13.372L44.7063 13.384C44.8143 14.428 45.3663 14.956 46.3383 14.956C47.1423 14.956 47.6703 14.644 47.8383 14.08H49.1943C48.9423 15.376 47.8623 16.156 46.3143 16.156ZM46.2783 11.092C45.4143 11.092 44.8863 11.56 44.7423 12.448H47.7183C47.7183 11.632 47.1543 11.092 46.2783 11.092ZM52.0473 16.156C50.7873 16.156 50.0193 15.424 50.0193 14.308C50.0193 13.216 50.8113 12.532 52.2153 12.424L53.9913 12.292V12.16C53.9913 11.356 53.5113 11.032 52.7673 11.032C51.9033 11.032 51.4233 11.392 51.4233 12.016H50.1753C50.1753 10.732 51.2313 9.892 52.8393 9.892C54.4353 9.892 55.4193 10.756 55.4193 12.4V16H54.1353L54.0273 15.124C53.7753 15.736 52.9713 16.156 52.0473 16.156ZM52.5273 15.052C53.4273 15.052 54.0033 14.512 54.0033 13.6V13.288L52.7673 13.384C51.8553 13.468 51.5073 13.768 51.5073 14.248C51.5073 14.788 51.8673 15.052 52.5273 15.052ZM60.5776 10.048V11.404H60.0376C58.9816 11.404 58.3216 11.968 58.3216 13.12V16H56.8576V10.084H58.2376L58.3216 10.948C58.5736 10.36 59.1376 9.964 59.9296 9.964C60.1336 9.964 60.3376 9.988 60.5776 10.048ZM63.8189 16H62.3549V11.296H61.2149V10.072H62.3549V8.224H63.8189V10.072H64.9709V11.296H63.8189V16ZM65.6346 13.444V12.148H69.4986V13.444H65.6346ZM72.5552 16.156C71.2952 16.156 70.5272 15.424 70.5272 14.308C70.5272 13.216 71.3192 12.532 72.7232 12.424L74.4992 12.292V12.16C74.4992 11.356 74.0192 11.032 73.2752 11.032C72.4112 11.032 71.9312 11.392 71.9312 12.016H70.6832C70.6832 10.732 71.7392 9.892 73.3472 9.892C74.9432 9.892 75.9272 10.756 75.9272 12.4V16H74.6432L74.5352 15.124C74.2832 15.736 73.4792 16.156 72.5552 16.156ZM73.0352 15.052C73.9352 15.052 74.5112 14.512 74.5112 13.6V13.288L73.2752 13.384C72.3632 13.468 72.0152 13.768 72.0152 14.248C72.0152 14.788 72.3752 15.052 73.0352 15.052ZM79.8014 16.156C78.0854 16.156 77.0174 14.896 77.0174 13.06C77.0174 11.212 78.0974 9.892 79.8854 9.892C80.7134 9.892 81.4454 10.24 81.8174 10.828V7.072H83.2694V16H81.9254L81.8294 15.076C81.4694 15.76 80.7014 16.156 79.8014 16.156ZM80.1254 14.812C81.1454 14.812 81.8054 14.08 81.8054 13.012C81.8054 11.944 81.1454 11.2 80.1254 11.2C79.1054 11.2 78.4814 11.956 78.4814 13.012C78.4814 14.068 79.1054 14.812 80.1254 14.812ZM87.2311 16.156C85.5151 16.156 84.4471 14.896 84.4471 13.06C84.4471 11.212 85.5271 9.892 87.3151 9.892C88.1431 9.892 88.8751 10.24 89.2471 10.828V7.072H90.6991V16H89.3551L89.2591 15.076C88.8991 15.76 88.1311 16.156 87.2311 16.156ZM87.5551 14.812C88.5751 14.812 89.2351 14.08 89.2351 13.012C89.2351 11.944 88.5751 11.2 87.5551 11.2C86.5351 11.2 85.9111 11.956 85.9111 13.012C85.9111 14.068 86.5351 14.812 87.5551 14.812Z" fill="black"/>
</svg>
