<svg width="132" height="24" viewBox="0 0 132 24" fill="none" xmlns="http://www.w3.org/2000/svg">
<path d="M22 12V17C22 20 20 22 17 22H7.63C7.94 21.74 8.20998 21.42 8.41998 21.06C8.78998 20.46 9 19.75 9 19C9 16.79 7.21 15 5 15C3.8 15 2.73 15.53 2 16.36V12C2 9.28 3.64 7.38 6.19 7.06C6.45 7.02 6.72 7 7 7H17C17.26 7 17.51 7.00999 17.75 7.04999C20.33 7.34999 22 9.26 22 12Z" stroke="#1A1A1A" stroke-width="1.5" stroke-linecap="round" stroke-linejoin="round"/>
<path d="M17.7514 7.04997C17.5114 7.00997 17.2614 6.99998 17.0014 6.99998H7.0014C6.7214 6.99998 6.45141 7.01998 6.19141 7.05998C6.33141 6.77998 6.53142 6.52001 6.77142 6.28001L10.0214 3.02C11.3914 1.66 13.6114 1.66 14.9814 3.02L16.7314 4.78996C17.3714 5.41996 17.7114 6.21997 17.7514 7.04997Z" stroke="#1A1A1A" stroke-width="1.5" stroke-linecap="round" stroke-linejoin="round"/>
<path d="M22 12.5H19C17.9 12.5 17 13.4 17 14.5C17 15.6 17.9 16.5 19 16.5H22" stroke="#1A1A1A" stroke-width="1.5" stroke-linecap="round" stroke-linejoin="round"/>
<path d="M9 19C9 19.75 8.78998 20.46 8.41998 21.06C8.20998 21.42 7.94 21.74 7.63 22C6.93 22.63 6.01 23 5 23C3.54 23 2.27002 22.22 1.58002 21.06C1.21002 20.46 1 19.75 1 19C1 17.99 1.38 17.07 2 16.36C2.73 15.53 3.8 15 5 15C7.21 15 9 16.79 9 19Z" stroke="#1A1A1A" stroke-width="1.5" stroke-miterlimit="10" stroke-linecap="round" stroke-linejoin="round"/>
<path d="M6.07092 20.0399L3.96094 17.9299" stroke="#1A1A1A" stroke-width="1.5" stroke-miterlimit="10" stroke-linecap="round" stroke-linejoin="round"/>
<path d="M6.03967 17.96L3.92969 20.0699" stroke="#1A1A1A" stroke-width="1.5" stroke-miterlimit="10" stroke-linecap="round" stroke-linejoin="round"/>
<path d="M36.796 17L34.18 8.228H35.776L37.168 12.86C37.3 13.34 37.432 13.832 37.564 14.6C37.708 13.82 37.84 13.364 37.996 12.86L39.376 8.228H41.068L42.424 12.86C42.568 13.352 42.7 13.856 42.844 14.6C43.012 13.784 43.132 13.316 43.264 12.872L44.68 8.228H46.24L43.576 17H42.088L40.216 10.616L38.308 17H36.796ZM48.0513 17.156C46.7913 17.156 46.0233 16.424 46.0233 15.308C46.0233 14.216 46.8153 13.532 48.2193 13.424L49.9953 13.292V13.16C49.9953 12.356 49.5153 12.032 48.7713 12.032C47.9073 12.032 47.4273 12.392 47.4273 13.016H46.1793C46.1793 11.732 47.2353 10.892 48.8433 10.892C50.4393 10.892 51.4233 11.756 51.4233 13.4V17H50.1393L50.0313 16.124C49.7793 16.736 48.9753 17.156 48.0513 17.156ZM48.5312 16.052C49.4313 16.052 50.0073 15.512 50.0073 14.6V14.288L48.7713 14.384C47.8593 14.468 47.5113 14.768 47.5113 15.248C47.5113 15.788 47.8713 16.052 48.5312 16.052ZM54.3375 17H52.8855V8.072H54.3375V17ZM57.3492 17H55.8972V8.072H57.3492V17ZM61.5369 17.156C59.7729 17.156 58.5369 15.872 58.5369 14.036C58.5369 12.176 59.7489 10.892 61.4889 10.892C63.2649 10.892 64.3929 12.08 64.3929 13.928V14.372L59.9289 14.384C60.0369 15.428 60.5889 15.956 61.5609 15.956C62.3649 15.956 62.8929 15.644 63.0609 15.08H64.4169C64.1649 16.376 63.0849 17.156 61.5369 17.156ZM61.5009 12.092C60.6369 12.092 60.1089 12.56 59.9649 13.448H62.9409C62.9409 12.632 62.3769 12.092 61.5009 12.092ZM67.522 17H66.058V12.296H64.918V11.072H66.058V9.224H67.522V11.072H68.674V12.296H67.522V17ZM69.3378 14.444V13.148H73.2018V14.444H69.3378ZM78.4135 11.048V12.404H77.8735C76.8175 12.404 76.1575 12.968 76.1575 14.12V17H74.6935V11.084H76.0735L76.1575 11.948C76.4095 11.36 76.9735 10.964 77.7655 10.964C77.9695 10.964 78.1735 10.988 78.4135 11.048ZM81.8572 17.156C80.0932 17.156 78.8572 15.872 78.8572 14.036C78.8572 12.176 80.0692 10.892 81.8092 10.892C83.5852 10.892 84.7132 12.08 84.7132 13.928V14.372L80.2492 14.384C80.3572 15.428 80.9092 15.956 81.8812 15.956C82.6852 15.956 83.2132 15.644 83.3812 15.08H84.7372C84.4852 16.376 83.4052 17.156 81.8572 17.156ZM81.8212 12.092C80.9572 12.092 80.4292 12.56 80.2852 13.448H83.2612C83.2612 12.632 82.6972 12.092 81.8212 12.092ZM87.3489 17H85.8849V11.072H87.2289L87.3489 11.768C87.6489 11.276 88.2489 10.892 89.1009 10.892C90.0009 10.892 90.6249 11.336 90.9369 12.02C91.2369 11.336 91.9329 10.892 92.8329 10.892C94.2729 10.892 95.0649 11.756 95.0649 13.124V17H93.6129V13.508C93.6129 12.656 93.1569 12.212 92.4609 12.212C91.7529 12.212 91.2129 12.668 91.2129 13.64V17H89.7489V13.496C89.7489 12.668 89.3049 12.224 88.6089 12.224C87.9129 12.224 87.3489 12.68 87.3489 13.64V17ZM96.1541 14.024C96.1541 12.176 97.4861 10.904 99.3221 10.904C101.158 10.904 102.49 12.176 102.49 14.024C102.49 15.872 101.158 17.144 99.3221 17.144C97.4861 17.144 96.1541 15.872 96.1541 14.024ZM97.6181 14.024C97.6181 15.104 98.3141 15.836 99.3221 15.836C100.33 15.836 101.026 15.104 101.026 14.024C101.026 12.944 100.33 12.212 99.3221 12.212C98.3141 12.212 97.6181 12.944 97.6181 14.024ZM105.038 17L102.686 11.072H104.246L105.278 13.796C105.53 14.504 105.734 15.116 105.806 15.44C105.89 15.068 106.106 14.444 106.358 13.796L107.438 11.072H108.95L106.478 17H105.038ZM112.15 17.156C110.386 17.156 109.15 15.872 109.15 14.036C109.15 12.176 110.362 10.892 112.102 10.892C113.878 10.892 115.006 12.08 115.006 13.928V14.372L110.542 14.384C110.65 15.428 111.202 15.956 112.174 15.956C112.978 15.956 113.506 15.644 113.674 15.08H115.03C114.778 16.376 113.698 17.156 112.15 17.156ZM112.114 12.092C111.25 12.092 110.722 12.56 110.578 13.448H113.554C113.554 12.632 112.99 12.092 112.114 12.092Z" fill="black"/>
</svg>
