<svg width="131" height="24" viewBox="0 0 131 24" fill="none" xmlns="http://www.w3.org/2000/svg">
<path d="M10 4.5V18C10 19.08 9.55999 20.07 8.85999 20.79L8.82001 20.83C8.73001 20.92 8.63001 21.01 8.54001 21.08C8.24001 21.34 7.89999 21.54 7.54999 21.68C7.43999 21.73 7.33 21.77 7.22 21.81C6.83 21.94 6.41 22 6 22C5.73 22 5.46001 21.97 5.20001 21.92C5.07001 21.89 4.94 21.86 4.81 21.82C4.65 21.77 4.50001 21.72 4.35001 21.65C4.35001 21.64 4.35 21.64 4.34 21.65C4.06 21.51 3.79001 21.35 3.54001 21.16L3.53 21.15C3.4 21.05 3.28001 20.95 3.17001 20.83C3.06001 20.71 2.95 20.59 2.84 20.46C2.65 20.21 2.49001 19.94 2.35001 19.66C2.36001 19.65 2.36001 19.65 2.35001 19.65C2.35001 19.65 2.35 19.64 2.34 19.63C2.28 19.49 2.22999 19.34 2.17999 19.19C2.13999 19.06 2.10999 18.93 2.07999 18.8C2.02999 18.54 2 18.27 2 18V4.5C2 3 3 2 4.5 2H7.5C9 2 10 3 10 4.5Z" stroke="#1A1A1A" stroke-width="1.5" stroke-linecap="round" stroke-linejoin="round"/>
<path d="M22 16.5V19.5C22 21 21 22 19.5 22H6C6.41 22 6.83 21.94 7.22 21.81C7.33 21.77 7.43999 21.73 7.54999 21.68C7.89999 21.54 8.24001 21.34 8.54001 21.08C8.63001 21.01 8.73001 20.92 8.82001 20.83L8.85999 20.79L15.66 14H19.5C21 14 22 15 22 16.5Z" stroke="#1A1A1A" stroke-width="1.5" stroke-linecap="round" stroke-linejoin="round"/>
<path d="M4.80969 21.8199C4.20969 21.6399 3.63971 21.3099 3.16971 20.8299C2.68971 20.3599 2.35969 19.7899 2.17969 19.1899C2.56969 20.4399 3.55969 21.4299 4.80969 21.8199Z" stroke="#1A1A1A" stroke-width="1.5" stroke-linecap="round" stroke-linejoin="round"/>
<path d="M18.3704 11.2899L15.6604 14L8.86035 20.7899C9.56035 20.0699 10.0004 19.08 10.0004 18V8.33995L12.7104 5.62996C13.7704 4.56996 15.1904 4.56996 16.2504 5.62996L18.3704 7.74996C19.4304 8.80996 19.4304 10.2299 18.3704 11.2899Z" stroke="#1A1A1A" stroke-width="1.5" stroke-linecap="round" stroke-linejoin="round"/>
<path d="M6 19C6.55228 19 7 18.5523 7 18C7 17.4477 6.55228 17 6 17C5.44772 17 5 17.4477 5 18C5 18.5523 5.44772 19 6 19Z" stroke="#1A1A1A" stroke-width="1.5" stroke-linecap="round" stroke-linejoin="round"/>
<path d="M38.68 17.144C36.124 17.144 34.468 15.368 34.468 12.62C34.468 9.896 36.184 8.084 38.752 8.084C40.828 8.084 42.376 9.296 42.676 11.18H41.056C40.756 10.16 39.88 9.56 38.716 9.56C37.096 9.56 36.076 10.736 36.076 12.608C36.076 14.468 37.108 15.668 38.716 15.668C39.904 15.668 40.816 15.044 41.104 14.072H42.7C42.364 15.92 40.756 17.144 38.68 17.144ZM43.5135 14.024C43.5135 12.176 44.8455 10.904 46.6815 10.904C48.5175 10.904 49.8495 12.176 49.8495 14.024C49.8495 15.872 48.5175 17.144 46.6815 17.144C44.8455 17.144 43.5135 15.872 43.5135 14.024ZM44.9775 14.024C44.9775 15.104 45.6735 15.836 46.6815 15.836C47.6895 15.836 48.3855 15.104 48.3855 14.024C48.3855 12.944 47.6895 12.212 46.6815 12.212C45.6735 12.212 44.9775 12.944 44.9775 14.024ZM52.4859 17H51.0339V8.072H52.4859V17ZM53.6736 14.024C53.6736 12.176 55.0056 10.904 56.8416 10.904C58.6776 10.904 60.0096 12.176 60.0096 14.024C60.0096 15.872 58.6776 17.144 56.8416 17.144C55.0056 17.144 53.6736 15.872 53.6736 14.024ZM55.1376 14.024C55.1376 15.104 55.8336 15.836 56.8416 15.836C57.8496 15.836 58.5456 15.104 58.5456 14.024C58.5456 12.944 57.8496 12.212 56.8416 12.212C55.8336 12.212 55.1376 12.944 55.1376 14.024ZM64.8901 11.048V12.404H64.3501C63.2941 12.404 62.6341 12.968 62.6341 14.12V17H61.1701V11.084H62.5501L62.6341 11.948C62.8861 11.36 63.4501 10.964 64.2421 10.964C64.4461 10.964 64.6501 10.988 64.8901 11.048ZM65.4354 14.444V13.148H69.2994V14.444H65.4354ZM70.2531 15.2H71.6451C71.6571 15.716 72.0411 16.04 72.7131 16.04C73.3971 16.04 73.7691 15.764 73.7691 15.332C73.7691 15.032 73.6131 14.816 73.0851 14.696L72.0171 14.444C70.9491 14.204 70.4331 13.7 70.4331 12.752C70.4331 11.588 71.4171 10.892 72.7851 10.892C74.1171 10.892 75.0171 11.66 75.0291 12.812H73.6371C73.6251 12.308 73.2891 11.984 72.7251 11.984C72.1491 11.984 71.8131 12.248 71.8131 12.692C71.8131 13.028 72.0771 13.244 72.5811 13.364L73.6491 13.616C74.6451 13.844 75.1491 14.3 75.1491 15.212C75.1491 16.412 74.1291 17.156 72.6651 17.156C71.1891 17.156 70.2531 16.364 70.2531 15.2ZM77.4078 17L75.4878 11.072H77.0118L77.7918 13.616C77.9238 14.084 78.0438 14.6 78.1518 15.152C78.2598 14.576 78.3678 14.204 78.5598 13.616L79.3758 11.072H80.8638L81.6558 13.616C81.7278 13.856 81.9678 14.744 82.0398 15.14C82.1358 14.696 82.3278 13.988 82.4358 13.616L83.2278 11.072H84.7758L82.7238 17H81.3558L80.5398 14.432C80.2998 13.652 80.1678 13.088 80.1198 12.788C80.0598 13.064 79.9518 13.484 79.6518 14.456L78.8358 17H77.4078ZM87.1333 17.156C85.8733 17.156 85.1053 16.424 85.1053 15.308C85.1053 14.216 85.8973 13.532 87.3013 13.424L89.0773 13.292V13.16C89.0773 12.356 88.5973 12.032 87.8533 12.032C86.9893 12.032 86.5093 12.392 86.5093 13.016H85.2613C85.2613 11.732 86.3173 10.892 87.9253 10.892C89.5213 10.892 90.5053 11.756 90.5053 13.4V17H89.2213L89.1133 16.124C88.8613 16.736 88.0573 17.156 87.1333 17.156ZM87.6133 16.052C88.5133 16.052 89.0893 15.512 89.0893 14.6V14.288L87.8533 14.384C86.9413 14.468 86.5933 14.768 86.5933 15.248C86.5933 15.788 86.9533 16.052 87.6133 16.052ZM93.8775 17H92.4135V12.296H91.2735V11.072H92.4135V9.224H93.8775V11.072H95.0295V12.296H93.8775V17ZM95.533 14.024C95.533 12.188 96.745 10.892 98.497 10.892C100.117 10.892 101.221 11.792 101.377 13.22H99.913C99.745 12.548 99.253 12.2 98.557 12.2C97.621 12.2 96.997 12.908 96.997 14.024C96.997 15.14 97.573 15.836 98.509 15.836C99.241 15.836 99.757 15.476 99.913 14.828H101.389C101.209 16.208 100.057 17.156 98.509 17.156C96.709 17.156 95.533 15.908 95.533 14.024ZM103.943 17H102.479V8.072H103.955V11.84C104.327 11.264 105.023 10.892 105.875 10.892C107.339 10.892 108.107 11.816 108.107 13.352V17H106.643V13.7C106.643 12.704 106.151 12.224 105.407 12.224C104.483 12.224 103.943 12.872 103.943 13.76V17Z" fill="black"/>
</svg>
