<svg width="125" height="24" viewBox="0 0 125 24" fill="none" xmlns="http://www.w3.org/2000/svg">
<path d="M18 7V17C18 17.62 17.98 18.17 17.91 18.66C17.62 21.29 16.38 22 13 22H11C7.62 22 6.38 21.29 6.09 18.66C6.02 18.17 6 17.62 6 17V7C6 6.38 6.02 5.83 6.09 5.34C6.38 2.71 7.62 2 11 2H13C16.38 2 17.62 2.71 17.91 5.34C17.98 5.83 18 6.38 18 7Z" stroke="#1A1A1A" stroke-width="1.5" stroke-linecap="round" stroke-linejoin="round"/>
<path d="M6 17.0001C6 17.6201 6.02 18.1701 6.09 18.6601C5.95 18.6701 5.82 18.6701 5.67 18.6701H5.33C2.67 18.6701 2 18.0001 2 15.3301V8.67008C2 6.00008 2.67 5.33008 5.33 5.33008H5.67C5.82 5.33008 5.95 5.33008 6.09 5.34008C6.02 5.83008 6 6.38008 6 7.00008V17.0001Z" stroke="#1A1A1A" stroke-width="1.5" stroke-linecap="round" stroke-linejoin="round"/>
<path d="M22.0002 8.67008V15.3301C22.0002 18.0001 21.3302 18.6701 18.6702 18.6701H18.3302C18.1802 18.6701 18.0502 18.6701 17.9102 18.6601C17.9802 18.1701 18.0002 17.6201 18.0002 17.0001V7.00008C18.0002 6.38008 17.9802 5.83008 17.9102 5.34008C18.0502 5.33008 18.1802 5.33008 18.3302 5.33008H18.6702C21.3302 5.33008 22.0002 6.00008 22.0002 8.67008Z" stroke="#1A1A1A" stroke-width="1.5" stroke-linecap="round" stroke-linejoin="round"/>
<path d="M33.468 10.676C33.468 9.14 34.74 8.072 36.588 8.072C38.364 8.072 39.492 9.056 39.54 10.64H38.004C37.968 9.884 37.428 9.44 36.564 9.44C35.616 9.44 35.004 9.896 35.004 10.628C35.004 11.252 35.34 11.6 36.072 11.768L37.452 12.068C38.952 12.392 39.684 13.16 39.684 14.468C39.684 16.1 38.412 17.156 36.48 17.156C34.608 17.156 33.384 16.16 33.348 14.588H34.884C34.896 15.332 35.496 15.776 36.48 15.776C37.5 15.776 38.148 15.332 38.148 14.6C38.148 14.012 37.848 13.664 37.128 13.508L35.736 13.196C34.248 12.872 33.468 12.02 33.468 10.676ZM42.3336 17H40.8816V8.072H42.3336V17ZM44.6013 9.884C44.0973 9.884 43.7013 9.488 43.7013 8.996C43.7013 8.504 44.0973 8.12 44.6013 8.12C45.0813 8.12 45.4773 8.504 45.4773 8.996C45.4773 9.488 45.0813 9.884 44.6013 9.884ZM43.8693 17V11.072H45.3333V17H43.8693ZM49.2818 17.156C47.5658 17.156 46.4978 15.896 46.4978 14.06C46.4978 12.212 47.5778 10.892 49.3658 10.892C50.1938 10.892 50.9258 11.24 51.2978 11.828V8.072H52.7498V17H51.4058L51.3098 16.076C50.9498 16.76 50.1818 17.156 49.2818 17.156ZM49.6058 15.812C50.6258 15.812 51.2858 15.08 51.2858 14.012C51.2858 12.944 50.6258 12.2 49.6058 12.2C48.5858 12.2 47.9618 12.956 47.9618 14.012C47.9618 15.068 48.5858 15.812 49.6058 15.812ZM56.9275 17.156C55.1635 17.156 53.9275 15.872 53.9275 14.036C53.9275 12.176 55.1395 10.892 56.8795 10.892C58.6555 10.892 59.7835 12.08 59.7835 13.928V14.372L55.3195 14.384C55.4275 15.428 55.9795 15.956 56.9515 15.956C57.7555 15.956 58.2835 15.644 58.4515 15.08H59.8075C59.5555 16.376 58.4755 17.156 56.9275 17.156ZM56.8915 12.092C56.0275 12.092 55.4995 12.56 55.3555 13.448H58.3315C58.3315 12.632 57.7675 12.092 56.8915 12.092ZM64.6752 11.048V12.404H64.1352C63.0792 12.404 62.4192 12.968 62.4192 14.12V17H60.9552V11.084H62.3352L62.4192 11.948C62.6712 11.36 63.2352 10.964 64.0272 10.964C64.2312 10.964 64.4352 10.988 64.6752 11.048ZM65.2206 14.444V13.148H69.0846V14.444H65.2206ZM72.0403 17H70.5763V8.072H72.0523V11.84C72.4243 11.264 73.1203 10.892 73.9723 10.892C75.4363 10.892 76.2043 11.816 76.2043 13.352V17H74.7403V13.7C74.7403 12.704 74.2483 12.224 73.5043 12.224C72.5803 12.224 72.0403 12.872 72.0403 13.76V17ZM77.2947 14.024C77.2947 12.176 78.6267 10.904 80.4627 10.904C82.2987 10.904 83.6307 12.176 83.6307 14.024C83.6307 15.872 82.2987 17.144 80.4627 17.144C78.6267 17.144 77.2947 15.872 77.2947 14.024ZM78.7587 14.024C78.7587 15.104 79.4547 15.836 80.4627 15.836C81.4707 15.836 82.1667 15.104 82.1667 14.024C82.1667 12.944 81.4707 12.212 80.4627 12.212C79.4547 12.212 78.7587 12.944 78.7587 14.024ZM88.5112 11.048V12.404H87.9712C86.9152 12.404 86.2552 12.968 86.2552 14.12V17H84.7912V11.084H86.1712L86.2552 11.948C86.5072 11.36 87.0712 10.964 87.8632 10.964C88.0672 10.964 88.2712 10.988 88.5112 11.048ZM90.2341 9.884C89.7301 9.884 89.3341 9.488 89.3341 8.996C89.3341 8.504 89.7301 8.12 90.2341 8.12C90.7141 8.12 91.1101 8.504 91.1101 8.996C91.1101 9.488 90.7141 9.884 90.2341 9.884ZM89.5021 17V11.072H90.9661V17H89.5021ZM96.9547 17H92.1667V15.8L95.1187 12.296H92.1667V11.072H96.9547V12.284L93.9547 15.776H96.9547V17ZM97.7322 14.024C97.7322 12.176 99.0642 10.904 100.9 10.904C102.736 10.904 104.068 12.176 104.068 14.024C104.068 15.872 102.736 17.144 100.9 17.144C99.0642 17.144 97.7322 15.872 97.7322 14.024ZM99.1962 14.024C99.1962 15.104 99.8922 15.836 100.9 15.836C101.908 15.836 102.604 15.104 102.604 14.024C102.604 12.944 101.908 12.212 100.9 12.212C99.8922 12.212 99.1962 12.944 99.1962 14.024ZM106.693 17H105.229V11.072H106.585L106.705 11.84C107.077 11.24 107.797 10.892 108.601 10.892C110.089 10.892 110.857 11.816 110.857 13.352V17H109.393V13.7C109.393 12.704 108.901 12.224 108.145 12.224C107.245 12.224 106.693 12.848 106.693 13.808V17ZM114.311 17H112.847V12.296H111.707V11.072H112.847V9.224H114.311V11.072H115.463V12.296H114.311V17ZM118.102 17.156C116.842 17.156 116.074 16.424 116.074 15.308C116.074 14.216 116.866 13.532 118.27 13.424L120.046 13.292V13.16C120.046 12.356 119.566 12.032 118.822 12.032C117.958 12.032 117.478 12.392 117.478 13.016H116.23C116.23 11.732 117.286 10.892 118.894 10.892C120.49 10.892 121.474 11.756 121.474 13.4V17H120.19L120.082 16.124C119.83 16.736 119.026 17.156 118.102 17.156ZM118.582 16.052C119.482 16.052 120.058 15.512 120.058 14.6V14.288L118.822 14.384C117.91 14.468 117.562 14.768 117.562 15.248C117.562 15.788 117.922 16.052 118.582 16.052ZM124.388 17H122.936V8.072H124.388V17Z" fill="black"/>
</svg>
