<svg width="117" height="24" viewBox="0 0 117 24" fill="none" xmlns="http://www.w3.org/2000/svg">
<path d="M7 6H17C17.62 6 18.17 6.02 18.66 6.09C21.29 6.38 22 7.62 22 11V13C22 16.38 21.29 17.62 18.66 17.91C18.17 17.98 17.62 18 17 18H7C6.38 18 5.83 17.98 5.34 17.91C2.71 17.62 2 16.38 2 13V11C2 7.62 2.71 6.38 5.34 6.09C5.83 6.02 6.38 6 7 6Z" stroke="#1A1A1A" stroke-width="1.5" stroke-linecap="round" stroke-linejoin="round"/>
<path d="M17.0001 17.9999C17.6201 17.9999 18.1701 17.9799 18.6601 17.9099C18.6701 18.0499 18.6701 18.1799 18.6701 18.3299V18.6699C18.6701 21.3299 18.0001 21.9999 15.3301 21.9999H8.67008C6.00008 21.9999 5.33008 21.3299 5.33008 18.6699V18.3299C5.33008 18.1799 5.33008 18.0499 5.34008 17.9099C5.83008 17.9799 6.38008 17.9999 7.00008 17.9999H17.0001Z" stroke="#1A1A1A" stroke-width="1.5" stroke-linecap="round" stroke-linejoin="round"/>
<path d="M8.67008 2H15.3301C18.0001 2 18.6701 2.67 18.6701 5.33V5.67C18.6701 5.82 18.6701 5.95 18.6601 6.09C18.1701 6.02 17.6201 6 17.0001 6H7.00008C6.38008 6 5.83008 6.02 5.34008 6.09C5.33008 5.95 5.33008 5.82 5.33008 5.67V5.33C5.33008 2.67 6.00008 2 8.67008 2Z" stroke="#1A1A1A" stroke-width="1.5" stroke-linecap="round" stroke-linejoin="round"/>
<path d="M39.468 10.676C39.468 9.14 40.74 8.072 42.588 8.072C44.364 8.072 45.492 9.056 45.54 10.64H44.004C43.968 9.884 43.428 9.44 42.564 9.44C41.616 9.44 41.004 9.896 41.004 10.628C41.004 11.252 41.34 11.6 42.072 11.768L43.452 12.068C44.952 12.392 45.684 13.16 45.684 14.468C45.684 16.1 44.412 17.156 42.48 17.156C40.608 17.156 39.384 16.16 39.348 14.588H40.884C40.896 15.332 41.496 15.776 42.48 15.776C43.5 15.776 44.148 15.332 44.148 14.6C44.148 14.012 43.848 13.664 43.128 13.508L41.736 13.196C40.248 12.872 39.468 12.02 39.468 10.676ZM48.3336 17H46.8816V8.072H48.3336V17ZM50.6013 9.884C50.0973 9.884 49.7013 9.488 49.7013 8.996C49.7013 8.504 50.0973 8.12 50.6013 8.12C51.0813 8.12 51.4773 8.504 51.4773 8.996C51.4773 9.488 51.0813 9.884 50.6013 9.884ZM49.8693 17V11.072H51.3333V17H49.8693ZM55.2818 17.156C53.5658 17.156 52.4978 15.896 52.4978 14.06C52.4978 12.212 53.5778 10.892 55.3658 10.892C56.1938 10.892 56.9258 11.24 57.2978 11.828V8.072H58.7498V17H57.4058L57.3098 16.076C56.9498 16.76 56.1818 17.156 55.2818 17.156ZM55.6058 15.812C56.6258 15.812 57.2858 15.08 57.2858 14.012C57.2858 12.944 56.6258 12.2 55.6058 12.2C54.5858 12.2 53.9618 12.956 53.9618 14.012C53.9618 15.068 54.5858 15.812 55.6058 15.812ZM62.9275 17.156C61.1635 17.156 59.9275 15.872 59.9275 14.036C59.9275 12.176 61.1395 10.892 62.8795 10.892C64.6555 10.892 65.7835 12.08 65.7835 13.928V14.372L61.3195 14.384C61.4275 15.428 61.9795 15.956 62.9515 15.956C63.7555 15.956 64.2835 15.644 64.4515 15.08H65.8075C65.5555 16.376 64.4755 17.156 62.9275 17.156ZM62.8915 12.092C62.0275 12.092 61.4995 12.56 61.3555 13.448H64.3315C64.3315 12.632 63.7675 12.092 62.8915 12.092ZM70.6752 11.048V12.404H70.1352C69.0792 12.404 68.4192 12.968 68.4192 14.12V17H66.9552V11.084H68.3352L68.4192 11.948C68.6712 11.36 69.2352 10.964 70.0272 10.964C70.2312 10.964 70.4352 10.988 70.6752 11.048ZM71.2206 14.444V13.148H75.0846V14.444H71.2206ZM77.811 17L75.459 11.072H77.019L78.051 13.796C78.303 14.504 78.507 15.116 78.579 15.44C78.663 15.068 78.879 14.444 79.131 13.796L80.211 11.072H81.723L79.251 17H77.811ZM84.9236 17.156C83.1596 17.156 81.9236 15.872 81.9236 14.036C81.9236 12.176 83.1356 10.892 84.8756 10.892C86.6516 10.892 87.7796 12.08 87.7796 13.928V14.372L83.3156 14.384C83.4236 15.428 83.9756 15.956 84.9476 15.956C85.7516 15.956 86.2796 15.644 86.4476 15.08H87.8036C87.5516 16.376 86.4716 17.156 84.9236 17.156ZM84.8876 12.092C84.0236 12.092 83.4956 12.56 83.3516 13.448H86.3276C86.3276 12.632 85.7636 12.092 84.8876 12.092ZM92.6713 11.048V12.404H92.1313C91.0753 12.404 90.4153 12.968 90.4153 14.12V17H88.9513V11.084H90.3313L90.4153 11.948C90.6673 11.36 91.2313 10.964 92.0233 10.964C92.2273 10.964 92.4313 10.988 92.6713 11.048ZM95.9126 17H94.4486V12.296H93.3086V11.072H94.4486V9.224H95.9126V11.072H97.0646V12.296H95.9126V17ZM98.7068 9.884C98.2028 9.884 97.8068 9.488 97.8068 8.996C97.8068 8.504 98.2028 8.12 98.7068 8.12C99.1868 8.12 99.5828 8.504 99.5828 8.996C99.5828 9.488 99.1868 9.884 98.7068 9.884ZM97.9748 17V11.072H99.4388V17H97.9748ZM100.603 14.024C100.603 12.188 101.815 10.892 103.567 10.892C105.187 10.892 106.291 11.792 106.447 13.22H104.983C104.815 12.548 104.323 12.2 103.627 12.2C102.691 12.2 102.067 12.908 102.067 14.024C102.067 15.14 102.643 15.836 103.579 15.836C104.311 15.836 104.827 15.476 104.983 14.828H106.459C106.279 16.208 105.127 17.156 103.579 17.156C101.779 17.156 100.603 15.908 100.603 14.024ZM109.313 17.156C108.053 17.156 107.285 16.424 107.285 15.308C107.285 14.216 108.077 13.532 109.481 13.424L111.257 13.292V13.16C111.257 12.356 110.777 12.032 110.033 12.032C109.169 12.032 108.689 12.392 108.689 13.016H107.441C107.441 11.732 108.497 10.892 110.105 10.892C111.701 10.892 112.685 11.756 112.685 13.4V17H111.401L111.293 16.124C111.041 16.736 110.237 17.156 109.313 17.156ZM109.793 16.052C110.693 16.052 111.269 15.512 111.269 14.6V14.288L110.033 14.384C109.121 14.468 108.773 14.768 108.773 15.248C108.773 15.788 109.133 16.052 109.793 16.052ZM115.599 17H114.147V8.072H115.599V17Z" fill="black"/>
</svg>
