<svg width="101" height="24" viewBox="0 0 101 24" fill="none" xmlns="http://www.w3.org/2000/svg">
<path d="M2 9.95997V14.04C2 16.08 3.02 17.1 5.06 17.1H6.52C6.9 17.1 7.28 17.21 7.6 17.41L10.58 19.27C13.16 20.88 15.26 19.71 15.26 16.67V7.31997C15.26 4.27997 13.15 3.10997 10.58 4.71997L7.6 6.58997C7.27 6.78997 6.9 6.89997 6.52 6.89997H5.06C3.02 6.89997 2 7.91997 2 9.95997Z" stroke="#1A1A1A" stroke-width="1.5"/>
<path d="M18 12H22" stroke="#1A1A1A" stroke-width="1.5" stroke-linecap="round" stroke-linejoin="round"/>
<path d="M20 14V10" stroke="#1A1A1A" stroke-width="1.5" stroke-linecap="round" stroke-linejoin="round"/>
<path d="M37.432 16L34.12 7.228H35.752L37.672 12.28C37.864 12.808 38.032 13.324 38.224 14.032C38.44 13.264 38.62 12.724 38.788 12.28L40.684 7.228H42.28L39.016 16H37.432ZM41.8025 13.024C41.8025 11.176 43.1345 9.904 44.9705 9.904C46.8065 9.904 48.1385 11.176 48.1385 13.024C48.1385 14.872 46.8065 16.144 44.9705 16.144C43.1345 16.144 41.8025 14.872 41.8025 13.024ZM43.2665 13.024C43.2665 14.104 43.9625 14.836 44.9705 14.836C45.9785 14.836 46.6745 14.104 46.6745 13.024C46.6745 11.944 45.9785 11.212 44.9705 11.212C43.9625 11.212 43.2665 11.944 43.2665 13.024ZM50.775 16H49.323V7.072H50.775V16ZM56.3307 10.072H57.7947V16H56.4387L56.3307 15.208C55.9707 15.772 55.2027 16.156 54.4107 16.156C53.0427 16.156 52.2387 15.232 52.2387 13.78V10.072H53.7027V13.264C53.7027 14.392 54.1467 14.848 54.9627 14.848C55.8867 14.848 56.3307 14.308 56.3307 13.18V10.072ZM60.7708 16H59.3068V10.072H60.6508L60.7708 10.768C61.0708 10.276 61.6708 9.892 62.5228 9.892C63.4228 9.892 64.0468 10.336 64.3588 11.02C64.6588 10.336 65.3548 9.892 66.2548 9.892C67.6948 9.892 68.4868 10.756 68.4868 12.124V16H67.0348V12.508C67.0348 11.656 66.5788 11.212 65.8828 11.212C65.1748 11.212 64.6348 11.668 64.6348 12.64V16H63.1708V12.496C63.1708 11.668 62.7268 11.224 62.0308 11.224C61.3348 11.224 60.7708 11.68 60.7708 12.64V16ZM72.576 16.156C70.812 16.156 69.576 14.872 69.576 13.036C69.576 11.176 70.788 9.892 72.528 9.892C74.304 9.892 75.432 11.08 75.432 12.928V13.372L70.968 13.384C71.076 14.428 71.628 14.956 72.6 14.956C73.404 14.956 73.932 14.644 74.1 14.08H75.456C75.204 15.376 74.124 16.156 72.576 16.156ZM72.54 11.092C71.676 11.092 71.148 11.56 71.004 12.448H73.98C73.98 11.632 73.416 11.092 72.54 11.092ZM76.5917 13.444V12.148H80.4557V13.444H76.5917ZM85.9674 10.072H87.4314V16H86.0754L85.9674 15.208C85.6074 15.772 84.8394 16.156 84.0474 16.156C82.6794 16.156 81.8754 15.232 81.8754 13.78V10.072H83.3394V13.264C83.3394 14.392 83.7834 14.848 84.5994 14.848C85.5234 14.848 85.9674 14.308 85.9674 13.18V10.072ZM88.9435 18.748V10.072H90.2995L90.3955 10.972C90.7555 10.288 91.5355 9.892 92.4355 9.892C94.1035 9.892 95.2075 11.104 95.2075 12.964C95.2075 14.812 94.1995 16.156 92.4355 16.156C91.5475 16.156 90.7795 15.808 90.4075 15.208V18.748H88.9435ZM90.4195 13.036C90.4195 14.104 91.0795 14.836 92.0875 14.836C93.1195 14.836 93.7315 14.092 93.7315 13.036C93.7315 11.98 93.1195 11.224 92.0875 11.224C91.0795 11.224 90.4195 11.968 90.4195 13.036Z" fill="black"/>
</svg>
