<svg width="101" height="24" viewBox="0 0 101 24" fill="none" xmlns="http://www.w3.org/2000/svg">
<path d="M5.27991 18.6496L5.84991 16.1796C5.97991 15.5996 5.74991 14.7896 5.32991 14.3696L2.84991 11.8896C1.38991 10.4296 1.85991 8.94965 3.89991 8.60965L7.08991 8.07965C7.61991 7.98965 8.25991 7.51965 8.49991 7.02965L10.2599 3.50965C11.2099 1.59965 12.7699 1.59965 13.7299 3.50965L15.4899 7.02965C15.5999 7.25965 15.8099 7.47965 16.0399 7.66965" stroke="#1A1A1A" stroke-width="1.5" stroke-linecap="round" stroke-linejoin="round"/>
<path d="M20.0995 8.61035C22.1395 8.95035 22.6195 10.4304 21.1495 11.8904L18.6695 14.3704C18.2495 14.7904 18.0195 15.6004 18.1495 16.1804L18.8595 19.2504C19.4195 21.6804 18.1295 22.6204 15.9795 21.3504L12.9895 19.5804C12.4495 19.2604 11.5595 19.2604 11.0095 19.5804L8.01953 21.3504" stroke="#1A1A1A" stroke-width="1.5" stroke-linecap="round" stroke-linejoin="round"/>
<path d="M22 2L2 22" stroke="#1A1A1A" stroke-width="1.5" stroke-linecap="round" stroke-linejoin="round"/>
<path d="M34.468 9.676C34.468 8.14 35.74 7.072 37.588 7.072C39.364 7.072 40.492 8.056 40.54 9.64H39.004C38.968 8.884 38.428 8.44 37.564 8.44C36.616 8.44 36.004 8.896 36.004 9.628C36.004 10.252 36.34 10.6 37.072 10.768L38.452 11.068C39.952 11.392 40.684 12.16 40.684 13.468C40.684 15.1 39.412 16.156 37.48 16.156C35.608 16.156 34.384 15.16 34.348 13.588H35.884C35.896 14.332 36.496 14.776 37.48 14.776C38.5 14.776 39.148 14.332 39.148 13.6C39.148 13.012 38.848 12.664 38.128 12.508L36.736 12.196C35.248 11.872 34.468 11.02 34.468 9.676ZM43.8736 16H42.4096V11.296H41.2696V10.072H42.4096V8.224H43.8736V10.072H45.0256V11.296H43.8736V16ZM47.6645 16.156C46.4045 16.156 45.6365 15.424 45.6365 14.308C45.6365 13.216 46.4285 12.532 47.8325 12.424L49.6085 12.292V12.16C49.6085 11.356 49.1285 11.032 48.3845 11.032C47.5205 11.032 47.0405 11.392 47.0405 12.016H45.7925C45.7925 10.732 46.8485 9.892 48.4565 9.892C50.0525 9.892 51.0365 10.756 51.0365 12.4V16H49.7525L49.6445 15.124C49.3925 15.736 48.5885 16.156 47.6645 16.156ZM48.1445 15.052C49.0445 15.052 49.6205 14.512 49.6205 13.6V13.288L48.3845 13.384C47.4725 13.468 47.1245 13.768 47.1245 14.248C47.1245 14.788 47.4845 15.052 48.1445 15.052ZM56.1948 10.048V11.404H55.6548C54.5988 11.404 53.9388 11.968 53.9388 13.12V16H52.4748V10.084H53.8548L53.9388 10.948C54.1908 10.36 54.7548 9.964 55.5468 9.964C55.7508 9.964 55.9548 9.988 56.1948 10.048ZM56.7401 13.444V12.148H60.6041V13.444H56.7401ZM61.5578 14.2H62.9498C62.9618 14.716 63.3458 15.04 64.0178 15.04C64.7018 15.04 65.0738 14.764 65.0738 14.332C65.0738 14.032 64.9178 13.816 64.3898 13.696L63.3218 13.444C62.2538 13.204 61.7378 12.7 61.7378 11.752C61.7378 10.588 62.7218 9.892 64.0898 9.892C65.4218 9.892 66.3218 10.66 66.3338 11.812H64.9418C64.9298 11.308 64.5938 10.984 64.0298 10.984C63.4538 10.984 63.1178 11.248 63.1178 11.692C63.1178 12.028 63.3818 12.244 63.8858 12.364L64.9538 12.616C65.9498 12.844 66.4538 13.3 66.4538 14.212C66.4538 15.412 65.4338 16.156 63.9698 16.156C62.4938 16.156 61.5578 15.364 61.5578 14.2ZM69.0445 16H67.5925V7.072H69.0445V16ZM72.3442 16.156C71.0842 16.156 70.3162 15.424 70.3162 14.308C70.3162 13.216 71.1082 12.532 72.5122 12.424L74.2882 12.292V12.16C74.2882 11.356 73.8082 11.032 73.0642 11.032C72.2002 11.032 71.7202 11.392 71.7202 12.016H70.4722C70.4722 10.732 71.5282 9.892 73.1362 9.892C74.7322 9.892 75.7162 10.756 75.7162 12.4V16H74.4322L74.3242 15.124C74.0722 15.736 73.2682 16.156 72.3442 16.156ZM72.8242 15.052C73.7242 15.052 74.3002 14.512 74.3002 13.6V13.288L73.0642 13.384C72.1522 13.468 71.8042 13.768 71.8042 14.248C71.8042 14.788 72.1642 15.052 72.8242 15.052ZM76.6984 14.2H78.0904C78.1024 14.716 78.4864 15.04 79.1584 15.04C79.8424 15.04 80.2144 14.764 80.2144 14.332C80.2144 14.032 80.0584 13.816 79.5304 13.696L78.4624 13.444C77.3944 13.204 76.8784 12.7 76.8784 11.752C76.8784 10.588 77.8624 9.892 79.2304 9.892C80.5624 9.892 81.4624 10.66 81.4744 11.812H80.0824C80.0704 11.308 79.7344 10.984 79.1704 10.984C78.5944 10.984 78.2584 11.248 78.2584 11.692C78.2584 12.028 78.5224 12.244 79.0264 12.364L80.0944 12.616C81.0904 12.844 81.5944 13.3 81.5944 14.212C81.5944 15.412 80.5744 16.156 79.1104 16.156C77.6344 16.156 76.6984 15.364 76.6984 14.2ZM84.1731 16H82.7091V7.072H84.1851V10.84C84.5571 10.264 85.2531 9.892 86.1051 9.892C87.5691 9.892 88.3371 10.816 88.3371 12.352V16H86.8731V12.7C86.8731 11.704 86.3811 11.224 85.6371 11.224C84.7131 11.224 84.1731 11.872 84.1731 12.76V16Z" fill="black"/>
</svg>
