<svg width="103" height="24" viewBox="0 0 103 24" fill="none" xmlns="http://www.w3.org/2000/svg">
<path d="M21.6698 14.3L21.2698 19.3C21.1198 20.83 20.9998 22 18.2898 22H5.70977C2.99977 22 2.87977 20.83 2.72977 19.3L2.32977 14.3C2.24977 13.47 2.50977 12.7 2.97977 12.11C2.98977 12.1 2.98977 12.1 2.99977 12.09C3.54977 11.42 4.37977 11 5.30977 11H18.6898C19.6198 11 20.4398 11.42 20.9798 12.07C20.9898 12.08 20.9998 12.09 20.9998 12.1C21.4898 12.69 21.7598 13.46 21.6698 14.3Z" stroke="#1A1A1A" stroke-width="1.5" stroke-miterlimit="10"/>
<path d="M3.5 11.4303V6.28027C3.5 2.88027 4.35 2.03027 7.75 2.03027H9.02C10.29 2.03027 10.58 2.41027 11.06 3.05027L12.33 4.75027C12.65 5.17027 12.84 5.43027 13.69 5.43027H16.24C19.64 5.43027 20.49 6.28027 20.49 9.68027V11.4703" stroke="#1A1A1A" stroke-width="1.5" stroke-miterlimit="10" stroke-linecap="round" stroke-linejoin="round"/>
<path d="M9.42969 17H14.5697" stroke="#1A1A1A" stroke-width="1.5" stroke-miterlimit="10" stroke-linecap="round" stroke-linejoin="round"/>
<path d="M39.772 13.412H36.508V17H34.972V8.228H40.396V9.644H36.508V12.032H39.772V13.412ZM40.7596 14.024C40.7596 12.176 42.0916 10.904 43.9276 10.904C45.7636 10.904 47.0956 12.176 47.0956 14.024C47.0956 15.872 45.7636 17.144 43.9276 17.144C42.0916 17.144 40.7596 15.872 40.7596 14.024ZM42.2236 14.024C42.2236 15.104 42.9196 15.836 43.9276 15.836C44.9356 15.836 45.6316 15.104 45.6316 14.024C45.6316 12.944 44.9356 12.212 43.9276 12.212C42.9196 12.212 42.2236 12.944 42.2236 14.024ZM49.732 17H48.28V8.072H49.732V17ZM53.7037 17.156C51.9877 17.156 50.9197 15.896 50.9197 14.06C50.9197 12.212 51.9997 10.892 53.7877 10.892C54.6157 10.892 55.3477 11.24 55.7197 11.828V8.072H57.1717V17H55.8277L55.7317 16.076C55.3717 16.76 54.6037 17.156 53.7037 17.156ZM54.0277 15.812C55.0477 15.812 55.7077 15.08 55.7077 14.012C55.7077 12.944 55.0477 12.2 54.0277 12.2C53.0077 12.2 52.3837 12.956 52.3837 14.012C52.3837 15.068 53.0077 15.812 54.0277 15.812ZM61.3494 17.156C59.5854 17.156 58.3494 15.872 58.3494 14.036C58.3494 12.176 59.5614 10.892 61.3014 10.892C63.0774 10.892 64.2054 12.08 64.2054 13.928V14.372L59.7414 14.384C59.8494 15.428 60.4014 15.956 61.3734 15.956C62.1774 15.956 62.7054 15.644 62.8734 15.08H64.2294C63.9774 16.376 62.8974 17.156 61.3494 17.156ZM61.3134 12.092C60.4494 12.092 59.9214 12.56 59.7774 13.448H62.7534C62.7534 12.632 62.1894 12.092 61.3134 12.092ZM69.0971 11.048V12.404H68.5571C67.5011 12.404 66.8411 12.968 66.8411 14.12V17H65.3771V11.084H66.7571L66.8411 11.948C67.0931 11.36 67.6571 10.964 68.4491 10.964C68.6531 10.964 68.8571 10.988 69.0971 11.048ZM69.6424 14.444V13.148H73.5064V14.444H69.6424ZM74.6502 14.024C74.6502 12.176 75.9822 10.904 77.8182 10.904C79.6542 10.904 80.9862 12.176 80.9862 14.024C80.9862 15.872 79.6542 17.144 77.8182 17.144C75.9822 17.144 74.6502 15.872 74.6502 14.024ZM76.1142 14.024C76.1142 15.104 76.8102 15.836 77.8182 15.836C78.8262 15.836 79.5222 15.104 79.5222 14.024C79.5222 12.944 78.8262 12.212 77.8182 12.212C76.8102 12.212 76.1142 12.944 76.1142 14.024ZM82.1466 19.748V11.072H83.5026L83.5986 11.972C83.9586 11.288 84.7386 10.892 85.6386 10.892C87.3066 10.892 88.4106 12.104 88.4106 13.964C88.4106 15.812 87.4026 17.156 85.6386 17.156C84.7506 17.156 83.9826 16.808 83.6106 16.208V19.748H82.1466ZM83.6226 14.036C83.6226 15.104 84.2826 15.836 85.2906 15.836C86.3226 15.836 86.9346 15.092 86.9346 14.036C86.9346 12.98 86.3226 12.224 85.2906 12.224C84.2826 12.224 83.6226 12.968 83.6226 14.036ZM92.2283 17.156C90.4643 17.156 89.2283 15.872 89.2283 14.036C89.2283 12.176 90.4403 10.892 92.1803 10.892C93.9563 10.892 95.0843 12.08 95.0843 13.928V14.372L90.6203 14.384C90.7283 15.428 91.2803 15.956 92.2523 15.956C93.0563 15.956 93.5843 15.644 93.7523 15.08H95.1083C94.8563 16.376 93.7763 17.156 92.2283 17.156ZM92.1923 12.092C91.3283 12.092 90.8003 12.56 90.6563 13.448H93.6323C93.6323 12.632 93.0683 12.092 92.1923 12.092ZM97.72 17H96.256V11.072H97.612L97.732 11.84C98.104 11.24 98.824 10.892 99.628 10.892C101.116 10.892 101.884 11.816 101.884 13.352V17H100.42V13.7C100.42 12.704 99.928 12.224 99.172 12.224C98.272 12.224 97.72 12.848 97.72 13.808V17Z" fill="black"/>
</svg>
