<svg width="110" height="24" viewBox="0 0 110 24" fill="none" xmlns="http://www.w3.org/2000/svg">
<path d="M22 8.27V4.23C22 2.64 21.36 2 19.77 2H15.73C14.14 2 13.5 2.64 13.5 4.23V8.27C13.5 9.86 14.14 10.5 15.73 10.5H19.77C21.36 10.5 22 9.86 22 8.27Z" stroke="#1A1A1A" stroke-width="1.5" stroke-linecap="round" stroke-linejoin="round"/>
<path d="M10.5 8.52V3.98C10.5 2.57 9.86 2 8.27 2H4.23C2.64 2 2 2.57 2 3.98V8.51C2 9.93 2.64 10.49 4.23 10.49H8.27C9.86 10.5 10.5 9.93 10.5 8.52Z" stroke="#1A1A1A" stroke-width="1.5" stroke-linecap="round" stroke-linejoin="round"/>
<path d="M10.5 19.77V15.73C10.5 14.14 9.86 13.5 8.27 13.5H4.23C2.64 13.5 2 14.14 2 15.73V19.77C2 21.36 2.64 22 4.23 22H8.27C9.86 22 10.5 21.36 10.5 19.77Z" stroke="#1A1A1A" stroke-width="1.5" stroke-linecap="round" stroke-linejoin="round"/>
<path d="M14.5 17.5H20.5" stroke="#1A1A1A" stroke-width="1.5" stroke-linecap="round"/>
<path d="M17.5 20.5V14.5" stroke="#1A1A1A" stroke-width="1.5" stroke-linecap="round"/>
<path d="M43.42 17H37.972V8.228H43.42V9.644H39.508V11.9H43.012V13.256H39.508V15.584H43.42V17ZM46.3453 17H44.8933V8.072H46.3453V17ZM50.533 17.156C48.769 17.156 47.533 15.872 47.533 14.036C47.533 12.176 48.745 10.892 50.485 10.892C52.261 10.892 53.389 12.08 53.389 13.928V14.372L48.925 14.384C49.033 15.428 49.585 15.956 50.557 15.956C51.361 15.956 51.889 15.644 52.057 15.08H53.413C53.161 16.376 52.081 17.156 50.533 17.156ZM50.497 12.092C49.633 12.092 49.105 12.56 48.961 13.448H51.937C51.937 12.632 51.373 12.092 50.497 12.092ZM56.0247 17H54.5607V11.072H55.9047L56.0247 11.768C56.3247 11.276 56.9247 10.892 57.7767 10.892C58.6767 10.892 59.3007 11.336 59.6127 12.02C59.9127 11.336 60.6087 10.892 61.5087 10.892C62.9487 10.892 63.7407 11.756 63.7407 13.124V17H62.2887V13.508C62.2887 12.656 61.8327 12.212 61.1367 12.212C60.4287 12.212 59.8887 12.668 59.8887 13.64V17H58.4247V13.496C58.4247 12.668 57.9807 12.224 57.2847 12.224C56.5887 12.224 56.0247 12.68 56.0247 13.64V17ZM67.8299 17.156C66.0659 17.156 64.8299 15.872 64.8299 14.036C64.8299 12.176 66.0419 10.892 67.7819 10.892C69.5579 10.892 70.6859 12.08 70.6859 13.928V14.372L66.2219 14.384C66.3299 15.428 66.8819 15.956 67.8539 15.956C68.6579 15.956 69.1859 15.644 69.3539 15.08H70.7099C70.4579 16.376 69.3779 17.156 67.8299 17.156ZM67.7939 12.092C66.9299 12.092 66.4019 12.56 66.2579 13.448H69.2339C69.2339 12.632 68.6699 12.092 67.7939 12.092ZM73.3216 17H71.8576V11.072H73.2136L73.3336 11.84C73.7056 11.24 74.4256 10.892 75.2296 10.892C76.7176 10.892 77.4856 11.816 77.4856 13.352V17H76.0216V13.7C76.0216 12.704 75.5296 12.224 74.7736 12.224C73.8736 12.224 73.3216 12.848 73.3216 13.808V17ZM80.94 17H79.476V12.296H78.336V11.072H79.476V9.224H80.94V11.072H82.092V12.296H80.94V17ZM82.7557 14.444V13.148H86.6197V14.444H82.7557ZM88.1115 19.748V11.072H89.4675L89.5635 11.972C89.9235 11.288 90.7035 10.892 91.6035 10.892C93.2715 10.892 94.3755 12.104 94.3755 13.964C94.3755 15.812 93.3675 17.156 91.6035 17.156C90.7155 17.156 89.9475 16.808 89.5755 16.208V19.748H88.1115ZM89.5875 14.036C89.5875 15.104 90.2475 15.836 91.2555 15.836C92.2875 15.836 92.8995 15.092 92.8995 14.036C92.8995 12.98 92.2875 12.224 91.2555 12.224C90.2475 12.224 89.5875 12.968 89.5875 14.036ZM97.0172 17H95.5652V8.072H97.0172V17ZM102.573 11.072H104.037V17H102.681L102.573 16.208C102.213 16.772 101.445 17.156 100.653 17.156C99.2849 17.156 98.4809 16.232 98.4809 14.78V11.072H99.9449V14.264C99.9449 15.392 100.389 15.848 101.205 15.848C102.129 15.848 102.573 15.308 102.573 14.18V11.072ZM104.976 15.2H106.368C106.38 15.716 106.764 16.04 107.436 16.04C108.12 16.04 108.492 15.764 108.492 15.332C108.492 15.032 108.336 14.816 107.808 14.696L106.74 14.444C105.672 14.204 105.156 13.7 105.156 12.752C105.156 11.588 106.14 10.892 107.508 10.892C108.84 10.892 109.74 11.66 109.752 12.812H108.36C108.348 12.308 108.012 11.984 107.448 11.984C106.872 11.984 106.536 12.248 106.536 12.692C106.536 13.028 106.8 13.244 107.304 13.364L108.372 13.616C109.368 13.844 109.872 14.3 109.872 15.212C109.872 16.412 108.852 17.156 107.388 17.156C105.912 17.156 104.976 16.364 104.976 15.2Z" fill="black"/>
</svg>
