<svg width="101" height="24" viewBox="0 0 101 24" fill="none" xmlns="http://www.w3.org/2000/svg">
<path d="M10.0195 17.5205C10.4795 18.1105 11.1995 18.5005 11.9995 18.5005C13.3795 18.5005 14.4995 17.3805 14.4995 16.0005C14.4995 15.4305 14.3095 14.9005 13.9895 14.4805" stroke="#1A1A1A" stroke-width="1.5" stroke-linecap="round" stroke-linejoin="round"/>
<path d="M2.82 20.8C2.21 20.04 2 18.83 2 17V15C2 11 3 10 7 10H17C17.36 10 17.69 10.01 18 10.03C21.17 10.21 22 11.36 22 15V17C22 21 21 22 17 22H7C6.64 22 6.31 21.99 6 21.97" stroke="#1A1A1A" stroke-width="1.5" stroke-linecap="round" stroke-linejoin="round"/>
<path d="M6 10V8C6 4.69 7 2 12 2C16.15 2 17.54 3.38 17.9 5.56" stroke="#1A1A1A" stroke-width="1.5" stroke-linecap="round" stroke-linejoin="round"/>
<path d="M22 2L2 22" stroke="#1A1A1A" stroke-width="1.5" stroke-linecap="round" stroke-linejoin="round"/>
<path d="M36.508 7.228V14.584H40.18V16H34.972V7.228H36.508ZM40.7478 13.024C40.7478 11.176 42.0798 9.904 43.9158 9.904C45.7518 9.904 47.0838 11.176 47.0838 13.024C47.0838 14.872 45.7518 16.144 43.9158 16.144C42.0798 16.144 40.7478 14.872 40.7478 13.024ZM42.2118 13.024C42.2118 14.104 42.9078 14.836 43.9158 14.836C44.9238 14.836 45.6198 14.104 45.6198 13.024C45.6198 11.944 44.9238 11.212 43.9158 11.212C42.9078 11.212 42.2118 11.944 42.2118 13.024ZM47.8963 13.024C47.8963 11.188 49.1083 9.892 50.8603 9.892C52.4803 9.892 53.5843 10.792 53.7403 12.22H52.2763C52.1083 11.548 51.6163 11.2 50.9203 11.2C49.9843 11.2 49.3603 11.908 49.3603 13.024C49.3603 14.14 49.9363 14.836 50.8723 14.836C51.6043 14.836 52.1203 14.476 52.2763 13.828H53.7523C53.5723 15.208 52.4203 16.156 50.8723 16.156C49.0723 16.156 47.8963 14.908 47.8963 13.024ZM56.3179 16H54.8659V7.072H56.3179V12.556L58.6219 10.072H60.4579L58.2019 12.424L60.4099 16H58.7299L57.1819 13.504L56.3179 14.404V16ZM60.5135 13.444V12.148H64.3775V13.444H60.5135ZM65.3313 14.2H66.7233C66.7353 14.716 67.1193 15.04 67.7913 15.04C68.4753 15.04 68.8473 14.764 68.8473 14.332C68.8473 14.032 68.6913 13.816 68.1633 13.696L67.0953 13.444C66.0273 13.204 65.5113 12.7 65.5113 11.752C65.5113 10.588 66.4953 9.892 67.8633 9.892C69.1953 9.892 70.0953 10.66 70.1073 11.812H68.7153C68.7033 11.308 68.3673 10.984 67.8033 10.984C67.2273 10.984 66.8913 11.248 66.8913 11.692C66.8913 12.028 67.1553 12.244 67.6593 12.364L68.7273 12.616C69.7233 12.844 70.2273 13.3 70.2273 14.212C70.2273 15.412 69.2073 16.156 67.7433 16.156C66.2673 16.156 65.3313 15.364 65.3313 14.2ZM72.8179 16H71.3659V7.072H72.8179V16ZM76.1177 16.156C74.8577 16.156 74.0897 15.424 74.0897 14.308C74.0897 13.216 74.8817 12.532 76.2857 12.424L78.0617 12.292V12.16C78.0617 11.356 77.5817 11.032 76.8377 11.032C75.9737 11.032 75.4937 11.392 75.4937 12.016H74.2457C74.2457 10.732 75.3017 9.892 76.9097 9.892C78.5057 9.892 79.4897 10.756 79.4897 12.4V16H78.2057L78.0977 15.124C77.8457 15.736 77.0417 16.156 76.1177 16.156ZM76.5977 15.052C77.4977 15.052 78.0737 14.512 78.0737 13.6V13.288L76.8377 13.384C75.9257 13.468 75.5777 13.768 75.5777 14.248C75.5777 14.788 75.9377 15.052 76.5977 15.052ZM80.4719 14.2H81.8639C81.8759 14.716 82.2599 15.04 82.9319 15.04C83.6159 15.04 83.9879 14.764 83.9879 14.332C83.9879 14.032 83.8319 13.816 83.3039 13.696L82.2359 13.444C81.1679 13.204 80.6519 12.7 80.6519 11.752C80.6519 10.588 81.6359 9.892 83.0039 9.892C84.3359 9.892 85.2359 10.66 85.2479 11.812H83.8559C83.8439 11.308 83.5079 10.984 82.9439 10.984C82.3679 10.984 82.0319 11.248 82.0319 11.692C82.0319 12.028 82.2959 12.244 82.7999 12.364L83.8679 12.616C84.8639 12.844 85.3679 13.3 85.3679 14.212C85.3679 15.412 84.3479 16.156 82.8839 16.156C81.4079 16.156 80.4719 15.364 80.4719 14.2ZM87.9466 16H86.4826V7.072H87.9586V10.84C88.3306 10.264 89.0266 9.892 89.8786 9.892C91.3426 9.892 92.1106 10.816 92.1106 12.352V16H90.6466V12.7C90.6466 11.704 90.1546 11.224 89.4106 11.224C88.4866 11.224 87.9466 11.872 87.9466 12.76V16Z" fill="black"/>
</svg>
