<svg width="142" height="24" viewBox="0 0 142 24" fill="none" xmlns="http://www.w3.org/2000/svg">
<path d="M12 22C17.5228 22 22 17.5228 22 12C22 6.47715 17.5228 2 12 2C6.47715 2 2 6.47715 2 12C2 17.5228 6.47715 22 12 22Z" stroke="#1A1A1A" stroke-width="1.5" stroke-miterlimit="10" stroke-linecap="round" stroke-linejoin="round"/>
<path d="M10.7402 15.53L14.2602 12L10.7402 8.47" stroke="#1A1A1A" stroke-width="1.5" stroke-linecap="round" stroke-linejoin="round"/>
<path d="M35.728 17H34.132L37.3 8.228H38.872L42.04 17H40.42L39.712 14.972H36.436L35.728 17ZM37.888 10.844L36.892 13.676H39.268L38.26 10.844C38.188 10.616 38.104 10.352 38.08 10.172C38.044 10.34 37.972 10.604 37.888 10.844ZM46.644 11.048V12.404H46.104C45.048 12.404 44.388 12.968 44.388 14.12V17H42.924V11.084H44.304L44.388 11.948C44.64 11.36 45.204 10.964 45.996 10.964C46.2 10.964 46.404 10.988 46.644 11.048ZM51.3549 11.048V12.404H50.8149C49.7589 12.404 49.0989 12.968 49.0989 14.12V17H47.6349V11.084H49.0149L49.0989 11.948C49.3509 11.36 49.9149 10.964 50.7069 10.964C50.9109 10.964 51.1149 10.988 51.3549 11.048ZM51.7986 14.024C51.7986 12.176 53.1306 10.904 54.9666 10.904C56.8026 10.904 58.1346 12.176 58.1346 14.024C58.1346 15.872 56.8026 17.144 54.9666 17.144C53.1306 17.144 51.7986 15.872 51.7986 14.024ZM53.2626 14.024C53.2626 15.104 53.9586 15.836 54.9666 15.836C55.9746 15.836 56.6706 15.104 56.6706 14.024C56.6706 12.944 55.9746 12.212 54.9666 12.212C53.9586 12.212 53.2626 12.944 53.2626 14.024ZM60.3101 17L58.3901 11.072H59.9141L60.6941 13.616C60.8261 14.084 60.9461 14.6 61.0541 15.152C61.1621 14.576 61.2701 14.204 61.4621 13.616L62.2781 11.072H63.7661L64.5581 13.616C64.6301 13.856 64.8701 14.744 64.9421 15.14C65.0381 14.696 65.2301 13.988 65.3381 13.616L66.1301 11.072H67.6781L65.6261 17H64.2581L63.4421 14.432C63.2021 13.652 63.0701 13.088 63.0221 12.788C62.9621 13.064 62.8541 13.484 62.5541 14.456L61.7381 17H60.3101ZM68.1424 14.444V13.148H72.0064V14.444H68.1424ZM73.1502 14.024C73.1502 12.188 74.3622 10.892 76.1142 10.892C77.7342 10.892 78.8382 11.792 78.9942 13.22H77.5302C77.3622 12.548 76.8702 12.2 76.1742 12.2C75.2382 12.2 74.6142 12.908 74.6142 14.024C74.6142 15.14 75.1902 15.836 76.1262 15.836C76.8582 15.836 77.3742 15.476 77.5302 14.828H79.0062C78.8262 16.208 77.6742 17.156 76.1262 17.156C74.3262 17.156 73.1502 15.908 73.1502 14.024ZM80.8278 9.884C80.3238 9.884 79.9278 9.488 79.9278 8.996C79.9278 8.504 80.3238 8.12 80.8278 8.12C81.3078 8.12 81.7038 8.504 81.7038 8.996C81.7038 9.488 81.3078 9.884 80.8278 9.884ZM80.0958 17V11.072H81.5598V17H80.0958ZM86.7924 11.048V12.404H86.2524C85.1964 12.404 84.5364 12.968 84.5364 14.12V17H83.0724V11.084H84.4524L84.5364 11.948C84.7884 11.36 85.3524 10.964 86.1444 10.964C86.3484 10.964 86.5524 10.988 86.7924 11.048ZM87.2361 14.024C87.2361 12.188 88.4481 10.892 90.2001 10.892C91.8201 10.892 92.9241 11.792 93.0801 13.22H91.6161C91.4481 12.548 90.9561 12.2 90.2601 12.2C89.3241 12.2 88.7001 12.908 88.7001 14.024C88.7001 15.14 89.2761 15.836 90.2121 15.836C90.9441 15.836 91.4601 15.476 91.6161 14.828H93.0921C92.9121 16.208 91.7601 17.156 90.2121 17.156C88.4121 17.156 87.2361 15.908 87.2361 14.024ZM95.6578 17H94.2058V8.072H95.6578V17ZM99.8455 17.156C98.0815 17.156 96.8455 15.872 96.8455 14.036C96.8455 12.176 98.0575 10.892 99.7975 10.892C101.574 10.892 102.702 12.08 102.702 13.928V14.372L98.2375 14.384C98.3455 15.428 98.8975 15.956 99.8695 15.956C100.674 15.956 101.202 15.644 101.37 15.08H102.726C102.474 16.376 101.394 17.156 99.8455 17.156ZM99.8095 12.092C98.9455 12.092 98.4175 12.56 98.2735 13.448H101.25C101.25 12.632 100.686 12.092 99.8095 12.092ZM103.861 14.444V13.148H107.725V14.444H103.861ZM112.937 11.048V12.404H112.397C111.341 12.404 110.681 12.968 110.681 14.12V17H109.217V11.084H110.597L110.681 11.948C110.933 11.36 111.497 10.964 112.289 10.964C112.493 10.964 112.697 10.988 112.937 11.048ZM114.66 9.884C114.156 9.884 113.76 9.488 113.76 8.996C113.76 8.504 114.156 8.12 114.66 8.12C115.14 8.12 115.536 8.504 115.536 8.996C115.536 9.488 115.14 9.884 114.66 9.884ZM113.928 17V11.072H115.392V17H113.928ZM116.568 13.904C116.568 12.176 117.696 10.88 119.388 10.88C120.276 10.88 120.972 11.252 121.32 11.888L121.404 11.072H122.76V16.7C122.76 18.68 121.572 19.916 119.652 19.916C117.948 19.916 116.784 18.944 116.604 17.36H118.068C118.164 18.128 118.752 18.584 119.652 18.584C120.66 18.584 121.308 17.948 121.308 16.964V15.98C120.936 16.532 120.204 16.88 119.352 16.88C117.672 16.88 116.568 15.62 116.568 13.904ZM118.044 13.868C118.044 14.864 118.68 15.608 119.64 15.608C120.648 15.608 121.272 14.9 121.272 13.868C121.272 12.86 120.66 12.164 119.64 12.164C118.668 12.164 118.044 12.896 118.044 13.868ZM125.74 17H124.276V8.072H125.752V11.84C126.124 11.264 126.82 10.892 127.672 10.892C129.136 10.892 129.904 11.816 129.904 13.352V17H128.44V13.7C128.44 12.704 127.948 12.224 127.204 12.224C126.28 12.224 125.74 12.872 125.74 13.76V17ZM133.358 17H131.894V12.296H130.754V11.072H131.894V9.224H133.358V11.072H134.51V12.296H133.358V17Z" fill="black"/>
</svg>
