<svg width="102" height="24" viewBox="0 0 102 24" fill="none" xmlns="http://www.w3.org/2000/svg">
<path d="M16.3998 5.00005C15.0998 4.20005 13.5998 3.80005 11.9998 3.80005C7.3998 3.80005 3.7998 7.50005 3.7998 12C3.7998 12.8 3.8998 13.5 4.0998 14.2" stroke="#1A1A1A" stroke-width="1.5" stroke-miterlimit="10" stroke-linecap="round" stroke-linejoin="round"/>
<path d="M7.59961 19.0002C8.89961 19.8002 10.3996 20.3002 11.9996 20.3002C16.5996 20.3002 20.1996 16.6002 20.1996 12.1002C20.1996 11.3002 20.0996 10.5002 19.8996 9.7002" stroke="#1A1A1A" stroke-width="1.5" stroke-miterlimit="10" stroke-linecap="round" stroke-linejoin="round"/>
<path d="M2 16L22 5" stroke="#1A1A1A" stroke-width="1.5" stroke-miterlimit="10" stroke-linecap="round" stroke-linejoin="round"/>
<path d="M22 8.5L2 19.5" stroke="#1A1A1A" stroke-width="1.5" stroke-miterlimit="10" stroke-linecap="round" stroke-linejoin="round"/>
<path d="M34.468 10.676C34.468 9.14 35.74 8.072 37.588 8.072C39.364 8.072 40.492 9.056 40.54 10.64H39.004C38.968 9.884 38.428 9.44 37.564 9.44C36.616 9.44 36.004 9.896 36.004 10.628C36.004 11.252 36.34 11.6 37.072 11.768L38.452 12.068C39.952 12.392 40.684 13.16 40.684 14.468C40.684 16.1 39.412 17.156 37.48 17.156C35.608 17.156 34.384 16.16 34.348 14.588H35.884C35.896 15.332 36.496 15.776 37.48 15.776C38.5 15.776 39.148 15.332 39.148 14.6C39.148 14.012 38.848 13.664 38.128 13.508L36.736 13.196C35.248 12.872 34.468 12.02 34.468 10.676ZM43.8736 17H42.4096V12.296H41.2696V11.072H42.4096V9.224H43.8736V11.072H45.0256V12.296H43.8736V17ZM48.5291 17.156C46.7651 17.156 45.5291 15.872 45.5291 14.036C45.5291 12.176 46.7411 10.892 48.4811 10.892C50.2571 10.892 51.3851 12.08 51.3851 13.928V14.372L46.9211 14.384C47.0291 15.428 47.5811 15.956 48.5531 15.956C49.3571 15.956 49.8851 15.644 50.0531 15.08H51.4091C51.1571 16.376 50.0771 17.156 48.5291 17.156ZM48.4931 12.092C47.6291 12.092 47.1011 12.56 46.9571 13.448H49.9331C49.9331 12.632 49.3691 12.092 48.4931 12.092ZM54.0328 17H52.5808V8.072H54.0328V17ZM57.0445 17H55.5925V8.072H57.0445V17ZM60.3442 17.156C59.0842 17.156 58.3162 16.424 58.3162 15.308C58.3162 14.216 59.1082 13.532 60.5122 13.424L62.2882 13.292V13.16C62.2882 12.356 61.8082 12.032 61.0642 12.032C60.2002 12.032 59.7202 12.392 59.7202 13.016H58.4722C58.4722 11.732 59.5282 10.892 61.1362 10.892C62.7322 10.892 63.7162 11.756 63.7162 13.4V17H62.4322L62.3242 16.124C62.0722 16.736 61.2682 17.156 60.3442 17.156ZM60.8242 16.052C61.7242 16.052 62.3002 15.512 62.3002 14.6V14.288L61.0642 14.384C60.1522 14.468 59.8042 14.768 59.8042 15.248C59.8042 15.788 60.1642 16.052 60.8242 16.052ZM68.8744 11.048V12.404H68.3344C67.2784 12.404 66.6184 12.968 66.6184 14.12V17H65.1544V11.084H66.5344L66.6184 11.948C66.8704 11.36 67.4344 10.964 68.2264 10.964C68.4304 10.964 68.6344 10.988 68.8744 11.048ZM69.4198 14.444V13.148H73.2838V14.444H69.4198ZM77.7155 19.292H76.5515C75.3515 17.924 74.5595 15.776 74.5595 13.472C74.5595 11.372 75.2315 9.164 76.5515 7.664H77.7155C76.7195 9.02 76.0355 11.144 76.0355 13.472C76.0355 15.596 76.6235 17.804 77.7155 19.292ZM79.4989 17H77.8309L79.8709 14.096L77.8309 11.072H79.5349L80.8429 13.088L82.1029 11.072H83.7469L81.7309 14.072L83.6869 17H82.0069L80.7469 15.044L79.4989 17ZM86.0953 17H84.6433V8.072H86.0953V17ZM89.095 17H87.631V11.072H88.975L89.095 11.768C89.395 11.276 89.995 10.892 90.847 10.892C91.747 10.892 92.371 11.336 92.683 12.02C92.983 11.336 93.679 10.892 94.579 10.892C96.019 10.892 96.811 11.756 96.811 13.124V17H95.359V13.508C95.359 12.656 94.903 12.212 94.207 12.212C93.499 12.212 92.959 12.668 92.959 13.64V17H91.495V13.496C91.495 12.668 91.051 12.224 90.355 12.224C89.659 12.224 89.095 12.68 89.095 13.64V17ZM98.6562 19.292H97.4922C98.5962 17.804 99.1722 15.596 99.1722 13.472C99.1722 11.144 98.4882 9.02 97.4922 7.664H98.6562C99.9762 9.164 100.66 11.372 100.66 13.472C100.66 15.776 99.8562 17.924 98.6562 19.292Z" fill="black"/>
</svg>
