<svg width="100" height="24" viewBox="0 0 100 24" fill="none" xmlns="http://www.w3.org/2000/svg">
<path d="M10 22H14C19 22 21 20 21 15V9C21 4 19 2 14 2H10C5 2 3 4 3 9V15C3 20 5 22 10 22Z" stroke="#1A1A1A" stroke-width="1.5" stroke-linecap="round" stroke-linejoin="round"/>
<path d="M16.5 7.58008V8.58008C16.5 9.40008 15.83 10.0801 15 10.0801H9C8.18 10.0801 7.5 9.41008 7.5 8.58008V7.58008C7.5 6.76008 8.17 6.08008 9 6.08008H15C15.83 6.08008 16.5 6.75008 16.5 7.58008Z" stroke="#1A1A1A" stroke-width="1.5" stroke-linecap="round" stroke-linejoin="round"/>
<path d="M8.13612 14H8.14767" stroke="#1A1A1A" stroke-width="1.5" stroke-linecap="round" stroke-linejoin="round"/>
<path d="M11.9955 14H12.007" stroke="#1A1A1A" stroke-width="1.5" stroke-linecap="round" stroke-linejoin="round"/>
<path d="M15.8539 14H15.8654" stroke="#1A1A1A" stroke-width="1.5" stroke-linecap="round" stroke-linejoin="round"/>
<path d="M8.13612 17.5H8.14767" stroke="#1A1A1A" stroke-width="1.5" stroke-linecap="round" stroke-linejoin="round"/>
<path d="M11.9955 17.5H12.007" stroke="#1A1A1A" stroke-width="1.5" stroke-linecap="round" stroke-linejoin="round"/>
<path d="M15.8539 17.5H15.8654" stroke="#1A1A1A" stroke-width="1.5" stroke-linecap="round" stroke-linejoin="round"/>
<path d="M38.68 16.144C36.124 16.144 34.468 14.368 34.468 11.62C34.468 8.896 36.184 7.084 38.752 7.084C40.828 7.084 42.376 8.296 42.676 10.18H41.056C40.756 9.16 39.88 8.56 38.716 8.56C37.096 8.56 36.076 9.736 36.076 11.608C36.076 13.468 37.108 14.668 38.716 14.668C39.904 14.668 40.816 14.044 41.104 13.072H42.7C42.364 14.92 40.756 16.144 38.68 16.144ZM45.5083 16.156C44.2483 16.156 43.4803 15.424 43.4803 14.308C43.4803 13.216 44.2723 12.532 45.6763 12.424L47.4523 12.292V12.16C47.4523 11.356 46.9723 11.032 46.2283 11.032C45.3643 11.032 44.8843 11.392 44.8843 12.016H43.6363C43.6363 10.732 44.6923 9.892 46.3003 9.892C47.8963 9.892 48.8803 10.756 48.8803 12.4V16H47.5963L47.4883 15.124C47.2363 15.736 46.4323 16.156 45.5083 16.156ZM45.9883 15.052C46.8883 15.052 47.4643 14.512 47.4643 13.6V13.288L46.2283 13.384C45.3163 13.468 44.9683 13.768 44.9683 14.248C44.9683 14.788 45.3283 15.052 45.9883 15.052ZM51.7945 16H50.3425V7.072H51.7945V16ZM52.9822 13.024C52.9822 11.188 54.1942 9.892 55.9462 9.892C57.5662 9.892 58.6702 10.792 58.8262 12.22H57.3622C57.1942 11.548 56.7022 11.2 56.0062 11.2C55.0702 11.2 54.4462 11.908 54.4462 13.024C54.4462 14.14 55.0222 14.836 55.9582 14.836C56.6902 14.836 57.2062 14.476 57.3622 13.828H58.8382C58.6582 15.208 57.5062 16.156 55.9582 16.156C54.1582 16.156 52.9822 14.908 52.9822 13.024ZM63.9479 10.072H65.4119V16H64.0559L63.9479 15.208C63.5879 15.772 62.8199 16.156 62.0279 16.156C60.6599 16.156 59.8559 15.232 59.8559 13.78V10.072H61.3199V13.264C61.3199 14.392 61.7639 14.848 62.5799 14.848C63.5039 14.848 63.9479 14.308 63.9479 13.18V10.072ZM68.4 16H66.948V7.072H68.4V16ZM71.6997 16.156C70.4397 16.156 69.6717 15.424 69.6717 14.308C69.6717 13.216 70.4637 12.532 71.8677 12.424L73.6437 12.292V12.16C73.6437 11.356 73.1637 11.032 72.4197 11.032C71.5557 11.032 71.0757 11.392 71.0757 12.016H69.8277C69.8277 10.732 70.8837 9.892 72.4917 9.892C74.0877 9.892 75.0717 10.756 75.0717 12.4V16H73.7877L73.6797 15.124C73.4277 15.736 72.6237 16.156 71.6997 16.156ZM72.1797 15.052C73.0797 15.052 73.6557 14.512 73.6557 13.6V13.288L72.4197 13.384C71.5077 13.468 71.1597 13.768 71.1597 14.248C71.1597 14.788 71.5197 15.052 72.1797 15.052ZM78.4439 16H76.9799V11.296H75.8399V10.072H76.9799V8.224H78.4439V10.072H79.5959V11.296H78.4439V16ZM80.0994 13.024C80.0994 11.176 81.4314 9.904 83.2674 9.904C85.1034 9.904 86.4354 11.176 86.4354 13.024C86.4354 14.872 85.1034 16.144 83.2674 16.144C81.4314 16.144 80.0994 14.872 80.0994 13.024ZM81.5634 13.024C81.5634 14.104 82.2594 14.836 83.2674 14.836C84.2754 14.836 84.9714 14.104 84.9714 13.024C84.9714 11.944 84.2754 11.212 83.2674 11.212C82.2594 11.212 81.5634 11.944 81.5634 13.024ZM91.3158 10.048V11.404H90.7758C89.7198 11.404 89.0598 11.968 89.0598 13.12V16H87.5958V10.084H88.9758L89.0598 10.948C89.3118 10.36 89.8758 9.964 90.6678 9.964C90.8718 9.964 91.0758 9.988 91.3158 10.048Z" fill="black"/>
</svg>
