<svg width="101" height="24" viewBox="0 0 101 24" fill="none" xmlns="http://www.w3.org/2000/svg">
<path d="M21.01 11.2197V15.7097C21.01 20.1997 19.22 21.9998 14.72 21.9998H9.33002C8.75002 21.9998 8.21998 21.9698 7.72998 21.8998" stroke="#1A1A1A" stroke-width="1.5" stroke-linecap="round" stroke-linejoin="round"/>
<path d="M3.04004 15.5198V11.2197" stroke="#1A1A1A" stroke-width="1.5" stroke-linecap="round" stroke-linejoin="round"/>
<path d="M12.0299 12C13.8599 12 15.2099 10.5101 15.0299 8.68005L14.3599 2H9.68989L9.01991 8.68005C8.83991 10.5101 10.1999 12 12.0299 12Z" stroke="#1A1A1A" stroke-width="1.5" stroke-linecap="round" stroke-linejoin="round"/>
<path d="M18.3298 12C20.3498 12 21.8298 10.36 21.6298 8.34998L21.3498 5.59998C20.9898 2.99998 19.9898 2 17.3698 2H14.3198L15.0198 9.01001C15.1998 10.66 16.6798 12 18.3298 12Z" stroke="#1A1A1A" stroke-width="1.5" stroke-linecap="round" stroke-linejoin="round"/>
<path d="M5.66979 12C7.31979 12 8.80978 10.66 8.96978 9.01001L9.18981 6.80005L9.66979 2H6.61981C3.99981 2 2.99983 2.99998 2.63983 5.59998L2.3598 8.34998C2.1598 10.36 3.64979 12 5.66979 12Z" stroke="#1A1A1A" stroke-width="1.5" stroke-linecap="round" stroke-linejoin="round"/>
<path d="M9 19C9 19.75 8.78998 20.4601 8.41998 21.0601C8.22998 21.3801 7.99998 21.67 7.72998 21.9C7.69998 21.94 7.67 21.97 7.63 22C6.93 22.63 6.01 23 5 23C3.78 23 2.68997 22.45 1.96997 21.59C1.94997 21.56 1.92002 21.54 1.90002 21.51C1.78002 21.37 1.67002 21.2201 1.58002 21.0601C1.21002 20.4601 1 19.75 1 19C1 17.74 1.58 16.61 2.5 15.88C2.67 15.74 2.84998 15.62 3.03998 15.52C3.61998 15.19 4.29 15 5 15C6 15 6.89998 15.36 7.59998 15.97C7.71998 16.06 7.82999 16.17 7.92999 16.28C8.58999 17 9 17.95 9 19Z" stroke="#1A1A1A" stroke-width="1.5" stroke-miterlimit="10" stroke-linecap="round" stroke-linejoin="round"/>
<path d="M6.48975 18.98H3.50977" stroke="#1A1A1A" stroke-width="1.5" stroke-miterlimit="10" stroke-linecap="round" stroke-linejoin="round"/>
<path d="M5 17.52V20.51" stroke="#1A1A1A" stroke-width="1.5" stroke-miterlimit="10" stroke-linecap="round" stroke-linejoin="round"/>
<path d="M34.468 9.676C34.468 8.14 35.74 7.072 37.588 7.072C39.364 7.072 40.492 8.056 40.54 9.64H39.004C38.968 8.884 38.428 8.44 37.564 8.44C36.616 8.44 36.004 8.896 36.004 9.628C36.004 10.252 36.34 10.6 37.072 10.768L38.452 11.068C39.952 11.392 40.684 12.16 40.684 13.468C40.684 15.1 39.412 16.156 37.48 16.156C35.608 16.156 34.384 15.16 34.348 13.588H35.884C35.896 14.332 36.496 14.776 37.48 14.776C38.5 14.776 39.148 14.332 39.148 13.6C39.148 13.012 38.848 12.664 38.128 12.508L36.736 12.196C35.248 11.872 34.468 11.02 34.468 9.676ZM43.3216 16H41.8576V7.072H43.3336V10.84C43.7056 10.264 44.4016 9.892 45.2536 9.892C46.7176 9.892 47.4856 10.816 47.4856 12.352V16H46.0216V12.7C46.0216 11.704 45.5296 11.224 44.7856 11.224C43.8616 11.224 43.3216 11.872 43.3216 12.76V16ZM48.576 13.024C48.576 11.176 49.908 9.904 51.744 9.904C53.58 9.904 54.912 11.176 54.912 13.024C54.912 14.872 53.58 16.144 51.744 16.144C49.908 16.144 48.576 14.872 48.576 13.024ZM50.04 13.024C50.04 14.104 50.736 14.836 51.744 14.836C52.752 14.836 53.448 14.104 53.448 13.024C53.448 11.944 52.752 11.212 51.744 11.212C50.736 11.212 50.04 11.944 50.04 13.024ZM56.0724 18.748V10.072H57.4284L57.5244 10.972C57.8844 10.288 58.6644 9.892 59.5644 9.892C61.2324 9.892 62.3364 11.104 62.3364 12.964C62.3364 14.812 61.3284 16.156 59.5644 16.156C58.6764 16.156 57.9084 15.808 57.5364 15.208V18.748H56.0724ZM57.5484 13.036C57.5484 14.104 58.2084 14.836 59.2164 14.836C60.2484 14.836 60.8604 14.092 60.8604 13.036C60.8604 11.98 60.2484 11.224 59.2164 11.224C58.2084 11.224 57.5484 11.968 57.5484 13.036ZM63.4901 13.444V12.148H67.3541V13.444H63.4901ZM70.4106 16.156C69.1506 16.156 68.3826 15.424 68.3826 14.308C68.3826 13.216 69.1746 12.532 70.5786 12.424L72.3546 12.292V12.16C72.3546 11.356 71.8746 11.032 71.1306 11.032C70.2666 11.032 69.7866 11.392 69.7866 12.016H68.5386C68.5386 10.732 69.5946 9.892 71.2026 9.892C72.7986 9.892 73.7826 10.756 73.7826 12.4V16H72.4986L72.3906 15.124C72.1386 15.736 71.3346 16.156 70.4106 16.156ZM70.8906 15.052C71.7906 15.052 72.3666 14.512 72.3666 13.6V13.288L71.1306 13.384C70.2186 13.468 69.8706 13.768 69.8706 14.248C69.8706 14.788 70.2306 15.052 70.8906 15.052ZM77.6568 16.156C75.9408 16.156 74.8728 14.896 74.8728 13.06C74.8728 11.212 75.9528 9.892 77.7408 9.892C78.5688 9.892 79.3008 10.24 79.6728 10.828V7.072H81.1248V16H79.7808L79.6848 15.076C79.3248 15.76 78.5568 16.156 77.6568 16.156ZM77.9808 14.812C79.0008 14.812 79.6608 14.08 79.6608 13.012C79.6608 11.944 79.0008 11.2 77.9808 11.2C76.9608 11.2 76.3368 11.956 76.3368 13.012C76.3368 14.068 76.9608 14.812 77.9808 14.812ZM85.0865 16.156C83.3705 16.156 82.3025 14.896 82.3025 13.06C82.3025 11.212 83.3825 9.892 85.1705 9.892C85.9985 9.892 86.7305 10.24 87.1025 10.828V7.072H88.5545V16H87.2105L87.1145 15.076C86.7545 15.76 85.9865 16.156 85.0865 16.156ZM85.4105 14.812C86.4305 14.812 87.0905 14.08 87.0905 13.012C87.0905 11.944 86.4305 11.2 85.4105 11.2C84.3905 11.2 83.7665 11.956 83.7665 13.012C83.7665 14.068 84.3905 14.812 85.4105 14.812Z" fill="black"/>
</svg>
