<svg width="200" height="24" viewBox="0 0 200 24" fill="none" xmlns="http://www.w3.org/2000/svg">
<path d="M6 9.96004C9.63 7.15004 14.37 7.15004 18 9.96004" stroke="#1A1A1A" stroke-width="1.5" stroke-linecap="round" stroke-linejoin="round"/>
<path d="M7.6001 13.0501C10.2701 10.9901 13.7401 10.9901 16.4101 13.0501" stroke="#1A1A1A" stroke-width="1.5" stroke-linecap="round" stroke-linejoin="round"/>
<path d="M9.7998 16.1399C11.1298 15.1099 12.8698 15.1099 14.1998 16.1399" stroke="#1A1A1A" stroke-width="1.5" stroke-linecap="round" stroke-linejoin="round"/>
<path d="M9 22H15C20 22 22 20 22 15V9C22 4 20 2 15 2H9C4 2 2 4 2 9V15C2 20 4 22 9 22Z" stroke="#1A1A1A" stroke-width="1.5" stroke-linecap="round" stroke-linejoin="round"/>
<path d="M36.796 16L34.18 7.228H35.776L37.168 11.86C37.3 12.34 37.432 12.832 37.564 13.6C37.708 12.82 37.84 12.364 37.996 11.86L39.376 7.228H41.068L42.424 11.86C42.568 12.352 42.7 12.856 42.844 13.6C43.012 12.784 43.132 12.316 43.264 11.872L44.68 7.228H46.24L43.576 16H42.088L40.216 9.616L38.308 16H36.796ZM47.9099 8.884C47.4059 8.884 47.0099 8.488 47.0099 7.996C47.0099 7.504 47.4059 7.12 47.9099 7.12C48.3899 7.12 48.7859 7.504 48.7859 7.996C48.7859 8.488 48.3899 8.884 47.9099 8.884ZM47.1779 16V10.072H48.6419V16H47.1779ZM54.2944 16V11.296H51.8704V16H50.4184V11.296H49.5664V10.072H50.4184V9.352C50.4184 7.744 51.2584 7.072 52.4584 7.072C52.6864 7.072 52.9624 7.084 53.2144 7.132V8.38H52.6984C52.0384 8.38 51.8704 8.764 51.8704 9.352V10.072H55.7584V16H54.2944ZM55.0264 8.86C54.5344 8.86 54.1504 8.476 54.1504 7.984C54.1504 7.504 54.5344 7.12 55.0264 7.12C55.5064 7.12 55.8904 7.504 55.8904 7.984C55.8904 8.476 55.5064 8.86 55.0264 8.86ZM57.2557 13.444V12.148H61.1197V13.444H57.2557ZM62.0734 14.2H63.4654C63.4774 14.716 63.8614 15.04 64.5334 15.04C65.2174 15.04 65.5894 14.764 65.5894 14.332C65.5894 14.032 65.4334 13.816 64.9054 13.696L63.8374 13.444C62.7694 13.204 62.2534 12.7 62.2534 11.752C62.2534 10.588 63.2374 9.892 64.6054 9.892C65.9374 9.892 66.8374 10.66 66.8494 11.812H65.4574C65.4454 11.308 65.1094 10.984 64.5454 10.984C63.9694 10.984 63.6334 11.248 63.6334 11.692C63.6334 12.028 63.8974 12.244 64.4014 12.364L65.4694 12.616C66.4654 12.844 66.9694 13.3 66.9694 14.212C66.9694 15.412 65.9494 16.156 64.4854 16.156C63.0094 16.156 62.0734 15.364 62.0734 14.2ZM67.7361 12.964C67.7361 11.104 68.8401 9.892 70.5081 9.892C71.4081 9.892 72.1881 10.288 72.5481 10.972L72.6441 10.072H73.9881V18.748H72.5361V15.208C72.1641 15.808 71.3841 16.156 70.5081 16.156C68.7441 16.156 67.7361 14.812 67.7361 12.964ZM69.2001 13.036C69.2001 14.092 69.8241 14.836 70.8441 14.836C71.8641 14.836 72.5241 14.104 72.5241 13.036C72.5241 11.968 71.8641 11.224 70.8441 11.224C69.8241 11.224 69.2001 11.98 69.2001 13.036ZM79.5338 10.072H80.9978V16H79.6418L79.5338 15.208C79.1738 15.772 78.4058 16.156 77.6138 16.156C76.2458 16.156 75.4418 15.232 75.4418 13.78V10.072H76.9058V13.264C76.9058 14.392 77.3498 14.848 78.1658 14.848C79.0898 14.848 79.5338 14.308 79.5338 13.18V10.072ZM84.2739 16.156C83.0139 16.156 82.2459 15.424 82.2459 14.308C82.2459 13.216 83.0379 12.532 84.4419 12.424L86.2179 12.292V12.16C86.2179 11.356 85.7379 11.032 84.9939 11.032C84.1299 11.032 83.6499 11.392 83.6499 12.016H82.4019C82.4019 10.732 83.4579 9.892 85.0659 9.892C86.6619 9.892 87.6459 10.756 87.6459 12.4V16H86.3619L86.2539 15.124C86.0019 15.736 85.1979 16.156 84.2739 16.156ZM84.7539 15.052C85.6539 15.052 86.2299 14.512 86.2299 13.6V13.288L84.9939 13.384C84.0819 13.468 83.7339 13.768 83.7339 14.248C83.7339 14.788 84.0939 15.052 84.7539 15.052ZM92.8041 10.048V11.404H92.2641C91.2081 11.404 90.5481 11.968 90.5481 13.12V16H89.0841V10.084H90.4641L90.5481 10.948C90.8001 10.36 91.3641 9.964 92.1561 9.964C92.3601 9.964 92.5641 9.988 92.8041 10.048ZM96.2478 16.156C94.4838 16.156 93.2478 14.872 93.2478 13.036C93.2478 11.176 94.4598 9.892 96.1998 9.892C97.9758 9.892 99.1038 11.08 99.1038 12.928V13.372L94.6398 13.384C94.7478 14.428 95.2998 14.956 96.2718 14.956C97.0758 14.956 97.6038 14.644 97.7718 14.08H99.1278C98.8758 15.376 97.7958 16.156 96.2478 16.156ZM96.2118 11.092C95.3478 11.092 94.8198 11.56 94.6758 12.448H97.6518C97.6518 11.632 97.0878 11.092 96.2118 11.092Z" fill="black"/>
</svg>
