<svg width="101" height="24" viewBox="0 0 101 24" fill="none" xmlns="http://www.w3.org/2000/svg">
<path d="M4.25977 11.0199V15.9899C4.25977 17.8099 4.25977 17.8099 5.97977 18.9699L10.7098 21.6999C11.4198 22.1099 12.5798 22.1099 13.2898 21.6999L18.0198 18.9699C19.7398 17.8099 19.7398 17.8099 19.7398 15.9899V11.0199C19.7398 9.19994 19.7398 9.19994 18.0198 8.03994L13.2898 5.30994C12.5798 4.89994 11.4198 4.89994 10.7098 5.30994L5.97977 8.03994C4.25977 9.19994 4.25977 9.19994 4.25977 11.0199Z" stroke="#1A1A1A" stroke-width="1.5" stroke-linecap="round" stroke-linejoin="round"/>
<path d="M17.5 7.63V5C17.5 3 16.5 2 14.5 2H9.5C7.5 2 6.5 3 6.5 5V7.56" stroke="#1A1A1A" stroke-width="1.5" stroke-linecap="round" stroke-linejoin="round"/>
<path d="M12.6298 10.99L13.1998 11.88C13.2898 12.02 13.4898 12.16 13.6398 12.2L14.6598 12.46C15.2898 12.62 15.4598 13.16 15.0498 13.66L14.3798 14.47C14.2798 14.6 14.1998 14.83 14.2098 14.99L14.2698 16.04C14.3098 16.69 13.8498 17.02 13.2498 16.78L12.2698 16.39C12.1198 16.33 11.8698 16.33 11.7198 16.39L10.7398 16.78C10.1398 17.02 9.67978 16.68 9.71978 16.04L9.77978 14.99C9.78978 14.83 9.70978 14.59 9.60978 14.47L8.93978 13.66C8.52978 13.16 8.69978 12.62 9.32978 12.46L10.3498 12.2C10.5098 12.16 10.7098 12.01 10.7898 11.88L11.3598 10.99C11.7198 10.45 12.2798 10.45 12.6298 10.99Z" stroke="#1A1A1A" stroke-width="1.5" stroke-linecap="round" stroke-linejoin="round"/>
<path d="M35.728 16H34.132L37.3 7.228H38.872L42.04 16H40.42L39.712 13.972H36.436L35.728 16ZM37.888 9.844L36.892 12.676H39.268L38.26 9.844C38.188 9.616 38.104 9.352 38.08 9.172C38.044 9.34 37.972 9.604 37.888 9.844ZM43.9038 16L41.9838 10.072H43.5078L44.2878 12.616C44.4198 13.084 44.5398 13.6 44.6478 14.152C44.7558 13.576 44.8638 13.204 45.0558 12.616L45.8718 10.072H47.3598L48.1518 12.616C48.2238 12.856 48.4638 13.744 48.5358 14.14C48.6318 13.696 48.8238 12.988 48.9318 12.616L49.7238 10.072H51.2718L49.2198 16H47.8518L47.0358 13.432C46.7958 12.652 46.6638 12.088 46.6158 11.788C46.5558 12.064 46.4478 12.484 46.1478 13.456L45.3318 16H43.9038ZM53.6294 16.156C52.3694 16.156 51.6014 15.424 51.6014 14.308C51.6014 13.216 52.3934 12.532 53.7974 12.424L55.5734 12.292V12.16C55.5734 11.356 55.0934 11.032 54.3494 11.032C53.4854 11.032 53.0054 11.392 53.0054 12.016H51.7574C51.7574 10.732 52.8134 9.892 54.4214 9.892C56.0174 9.892 57.0014 10.756 57.0014 12.4V16H55.7174L55.6094 15.124C55.3574 15.736 54.5534 16.156 53.6294 16.156ZM54.1094 15.052C55.0094 15.052 55.5854 14.512 55.5854 13.6V13.288L54.3494 13.384C53.4374 13.468 53.0894 13.768 53.0894 14.248C53.0894 14.788 53.4494 15.052 54.1094 15.052ZM62.1596 10.048V11.404H61.6196C60.5636 11.404 59.9036 11.968 59.9036 13.12V16H58.4396V10.084H59.8196L59.9036 10.948C60.1556 10.36 60.7196 9.964 61.5116 9.964C61.7156 9.964 61.9196 9.988 62.1596 10.048ZM65.3873 16.156C63.6713 16.156 62.6033 14.896 62.6033 13.06C62.6033 11.212 63.6833 9.892 65.4713 9.892C66.2993 9.892 67.0313 10.24 67.4033 10.828V7.072H68.8553V16H67.5113L67.4153 15.076C67.0553 15.76 66.2873 16.156 65.3873 16.156ZM65.7113 14.812C66.7313 14.812 67.3913 14.08 67.3913 13.012C67.3913 11.944 66.7313 11.2 65.7113 11.2C64.6913 11.2 64.0673 11.956 64.0673 13.012C64.0673 14.068 64.6913 14.812 65.7113 14.812Z" fill="black"/>
</svg>
