<svg width="101" height="24" viewBox="0 0 101 24" fill="none" xmlns="http://www.w3.org/2000/svg">
<path d="M14.1297 11.3401C14.5197 9.70008 13.0897 8.27003 11.4497 8.66003C10.6797 8.85003 10.0497 9.48005 9.85974 10.2501C9.46974 11.8901 10.8997 13.32 12.5397 12.93C13.3197 12.74 13.9497 12.1101 14.1297 11.3401Z" stroke="#1A1A1A" stroke-width="1.5" stroke-linecap="round" stroke-linejoin="round"/>
<path d="M18.0109 17.19C19.7209 15.59 20.7909 13.32 20.7909 10.79C20.7909 5.92998 16.8509 2 12.0009 2C7.15093 2 3.21094 5.93998 3.21094 10.79C3.21094 13.33 4.29094 15.62 6.02094 17.22" stroke="#1A1A1A" stroke-width="1.5" stroke-linecap="round" stroke-linejoin="round"/>
<path d="M7.99977 14.55C7.07977 13.57 6.50977 12.25 6.50977 10.79C6.50977 7.75998 8.96977 5.29999 11.9998 5.29999C15.0298 5.29999 17.4898 7.75998 17.4898 10.79C17.4898 12.25 16.9198 13.56 15.9998 14.55" stroke="#1A1A1A" stroke-width="1.5" stroke-linecap="round" stroke-linejoin="round"/>
<path d="M10.2988 16.66L8.85876 18.4501C7.71876 19.8801 8.72875 21.99 10.5588 21.99H13.4287C15.2587 21.99 16.2788 19.8701 15.1288 18.4501L13.6888 16.66C12.8288 15.57 11.1688 15.57 10.2988 16.66Z" stroke="#1A1A1A" stroke-width="1.5" stroke-linecap="round" stroke-linejoin="round"/>
<path d="M35.728 16H34.132L37.3 7.228H38.872L42.04 16H40.42L39.712 13.972H36.436L35.728 16ZM37.888 9.844L36.892 12.676H39.268L38.26 9.844C38.188 9.616 38.104 9.352 38.08 9.172C38.044 9.34 37.972 9.604 37.888 9.844ZM43.656 8.884C43.152 8.884 42.756 8.488 42.756 7.996C42.756 7.504 43.152 7.12 43.656 7.12C44.136 7.12 44.532 7.504 44.532 7.996C44.532 8.488 44.136 8.884 43.656 8.884ZM42.924 16V10.072H44.388V16H42.924ZM49.6205 10.048V11.404H49.0805C48.0245 11.404 47.3645 11.968 47.3645 13.12V16H45.9005V10.084H47.2805L47.3645 10.948C47.6165 10.36 48.1805 9.964 48.9725 9.964C49.1765 9.964 49.3805 9.988 49.6205 10.048ZM52.8483 16.156C51.1323 16.156 50.0643 14.896 50.0643 13.06C50.0643 11.212 51.1443 9.892 52.9323 9.892C53.7603 9.892 54.4923 10.24 54.8643 10.828V7.072H56.3163V16H54.9723L54.8763 15.076C54.5163 15.76 53.7483 16.156 52.8483 16.156ZM53.1723 14.812C54.1923 14.812 54.8523 14.08 54.8523 13.012C54.8523 11.944 54.1923 11.2 53.1723 11.2C52.1523 11.2 51.5283 11.956 51.5283 13.012C51.5283 14.068 52.1523 14.812 53.1723 14.812ZM61.5619 10.048V11.404H61.0219C59.9659 11.404 59.3059 11.968 59.3059 13.12V16H57.8419V10.084H59.2219L59.3059 10.948C59.5579 10.36 60.1219 9.964 60.9139 9.964C61.1179 9.964 61.3219 9.988 61.5619 10.048ZM62.0057 13.024C62.0057 11.176 63.3377 9.904 65.1737 9.904C67.0097 9.904 68.3417 11.176 68.3417 13.024C68.3417 14.872 67.0097 16.144 65.1737 16.144C63.3377 16.144 62.0057 14.872 62.0057 13.024ZM63.4697 13.024C63.4697 14.104 64.1657 14.836 65.1737 14.836C66.1817 14.836 66.8777 14.104 66.8777 13.024C66.8777 11.944 66.1817 11.212 65.1737 11.212C64.1657 11.212 63.4697 11.944 63.4697 13.024ZM69.5021 18.748V10.072H70.8581L70.9541 10.972C71.3141 10.288 72.0941 9.892 72.9941 9.892C74.6621 9.892 75.7661 11.104 75.7661 12.964C75.7661 14.812 74.7581 16.156 72.9941 16.156C72.1061 16.156 71.3381 15.808 70.9661 15.208V18.748H69.5021ZM70.9781 13.036C70.9781 14.104 71.6381 14.836 72.6461 14.836C73.6781 14.836 74.2901 14.092 74.2901 13.036C74.2901 11.98 73.6781 11.224 72.6461 11.224C71.6381 11.224 70.9781 11.968 70.9781 13.036Z" fill="black"/>
</svg>
