<svg width="200" height="24" viewBox="0 0 200 24" fill="none" xmlns="http://www.w3.org/2000/svg">
<path d="M4.91016 11.8401C9.21016 8.5201 14.8002 8.5201 19.1002 11.8401" stroke="#1A1A1A" stroke-width="1.5" stroke-linecap="round" stroke-linejoin="round"/>
<path d="M2 8.3601C8.06 3.6801 15.94 3.6801 22 8.3601" stroke="#1A1A1A" stroke-width="1.5" stroke-linecap="round" stroke-linejoin="round"/>
<path d="M6.79004 15.4902C9.94004 13.0502 14.05 13.0502 17.2 15.4902" stroke="#1A1A1A" stroke-width="1.5" stroke-linecap="round" stroke-linejoin="round"/>
<path d="M9.3999 19.1501C10.9799 17.9301 13.0299 17.9301 14.6099 19.1501" stroke="#1A1A1A" stroke-width="1.5" stroke-linecap="round" stroke-linejoin="round"/>
<path d="M36.796 16L34.18 7.228H35.776L37.168 11.86C37.3 12.34 37.432 12.832 37.564 13.6C37.708 12.82 37.84 12.364 37.996 11.86L39.376 7.228H41.068L42.424 11.86C42.568 12.352 42.7 12.856 42.844 13.6C43.012 12.784 43.132 12.316 43.264 11.872L44.68 7.228H46.24L43.576 16H42.088L40.216 9.616L38.308 16H36.796ZM47.9099 8.884C47.4059 8.884 47.0099 8.488 47.0099 7.996C47.0099 7.504 47.4059 7.12 47.9099 7.12C48.3899 7.12 48.7859 7.504 48.7859 7.996C48.7859 8.488 48.3899 8.884 47.9099 8.884ZM47.1779 16V10.072H48.6419V16H47.1779ZM54.2944 16V11.296H51.8704V16H50.4184V11.296H49.5664V10.072H50.4184V9.352C50.4184 7.744 51.2584 7.072 52.4584 7.072C52.6864 7.072 52.9624 7.084 53.2144 7.132V8.38H52.6984C52.0384 8.38 51.8704 8.764 51.8704 9.352V10.072H55.7584V16H54.2944ZM55.0264 8.86C54.5344 8.86 54.1504 8.476 54.1504 7.984C54.1504 7.504 54.5344 7.12 55.0264 7.12C55.5064 7.12 55.8904 7.504 55.8904 7.984C55.8904 8.476 55.5064 8.86 55.0264 8.86Z" fill="black"/>
</svg>
