<svg width="129" height="24" viewBox="0 0 129 24" fill="none" xmlns="http://www.w3.org/2000/svg">
<path d="M12 6.44043V9.77043" stroke="#1A1A1A" stroke-width="1.5" stroke-miterlimit="10" stroke-linecap="round"/>
<path d="M12.0199 2C8.3399 2 5.3599 4.98 5.3599 8.66V10.76C5.3599 11.44 5.0799 12.46 4.7299 13.04L3.4599 15.16C2.6799 16.47 3.2199 17.93 4.6599 18.41C9.4399 20 14.6099 20 19.3899 18.41C20.7399 17.96 21.3199 16.38 20.5899 15.16L19.3199 13.04C18.9699 12.46 18.6899 11.43 18.6899 10.76V8.66C18.6799 5 15.6799 2 12.0199 2Z" stroke="#1A1A1A" stroke-width="1.5" stroke-miterlimit="10" stroke-linecap="round"/>
<path d="M15.3299 18.8203C15.3299 20.6503 13.8299 22.1503 11.9999 22.1503C11.0899 22.1503 10.2499 21.7703 9.64992 21.1703C9.04992 20.5703 8.66992 19.7303 8.66992 18.8203" stroke="#1A1A1A" stroke-width="1.5" stroke-miterlimit="10"/>
<path d="M36.484 17H34.972V8.228H36.496L40.612 14.444V8.228H42.124V17H40.612L36.484 10.784V17ZM43.5018 14.024C43.5018 12.176 44.8338 10.904 46.6698 10.904C48.5058 10.904 49.8378 12.176 49.8378 14.024C49.8378 15.872 48.5058 17.144 46.6698 17.144C44.8338 17.144 43.5018 15.872 43.5018 14.024ZM44.9658 14.024C44.9658 15.104 45.6618 15.836 46.6698 15.836C47.6778 15.836 48.3738 15.104 48.3738 14.024C48.3738 12.944 47.6778 12.212 46.6698 12.212C45.6618 12.212 44.9658 12.944 44.9658 14.024ZM52.9556 17H51.4916V12.296H50.3516V11.072H51.4916V9.224H52.9556V11.072H54.1076V12.296H52.9556V17ZM55.7497 9.884C55.2457 9.884 54.8497 9.488 54.8497 8.996C54.8497 8.504 55.2457 8.12 55.7497 8.12C56.2297 8.12 56.6257 8.504 56.6257 8.996C56.6257 9.488 56.2297 9.884 55.7497 9.884ZM55.0177 17V11.072H56.4817V17H55.0177ZM62.1343 17V12.296H59.7103V17H58.2583V12.296H57.4063V11.072H58.2583V10.352C58.2583 8.744 59.0983 8.072 60.2983 8.072C60.5263 8.072 60.8023 8.084 61.0543 8.132V9.38H60.5383C59.8783 9.38 59.7103 9.764 59.7103 10.352V11.072H63.5983V17H62.1343ZM62.8663 9.86C62.3743 9.86 61.9903 9.476 61.9903 8.984C61.9903 8.504 62.3743 8.12 62.8663 8.12C63.3463 8.12 63.7303 8.504 63.7303 8.984C63.7303 9.476 63.3463 9.86 62.8663 9.86ZM64.7596 14.024C64.7596 12.188 65.9716 10.892 67.7236 10.892C69.3436 10.892 70.4476 11.792 70.6036 13.22H69.1396C68.9716 12.548 68.4796 12.2 67.7836 12.2C66.8476 12.2 66.2236 12.908 66.2236 14.024C66.2236 15.14 66.7996 15.836 67.7356 15.836C68.4676 15.836 68.9836 15.476 69.1396 14.828H70.6156C70.4356 16.208 69.2836 17.156 67.7356 17.156C65.9356 17.156 64.7596 15.908 64.7596 14.024ZM73.4692 17.156C72.2092 17.156 71.4412 16.424 71.4412 15.308C71.4412 14.216 72.2332 13.532 73.6372 13.424L75.4132 13.292V13.16C75.4132 12.356 74.9332 12.032 74.1892 12.032C73.3252 12.032 72.8452 12.392 72.8452 13.016H71.5972C71.5972 11.732 72.6532 10.892 74.2612 10.892C75.8572 10.892 76.8412 11.756 76.8412 13.4V17H75.5572L75.4492 16.124C75.1972 16.736 74.3932 17.156 73.4692 17.156ZM73.9492 16.052C74.8492 16.052 75.4252 15.512 75.4252 14.6V14.288L74.1892 14.384C73.2772 14.468 72.9292 14.768 72.9292 15.248C72.9292 15.788 73.2892 16.052 73.9492 16.052ZM80.2134 17H78.7494V12.296H77.6094V11.072H78.7494V9.224H80.2134V11.072H81.3654V12.296H80.2134V17ZM83.0075 9.884C82.5035 9.884 82.1075 9.488 82.1075 8.996C82.1075 8.504 82.5035 8.12 83.0075 8.12C83.4875 8.12 83.8835 8.504 83.8835 8.996C83.8835 9.488 83.4875 9.884 83.0075 9.884ZM82.2755 17V11.072H83.7395V17H82.2755ZM84.9041 14.024C84.9041 12.176 86.2361 10.904 88.0721 10.904C89.9081 10.904 91.2401 12.176 91.2401 14.024C91.2401 15.872 89.9081 17.144 88.0721 17.144C86.2361 17.144 84.9041 15.872 84.9041 14.024ZM86.3681 14.024C86.3681 15.104 87.0641 15.836 88.0721 15.836C89.0801 15.836 89.7761 15.104 89.7761 14.024C89.7761 12.944 89.0801 12.212 88.0721 12.212C87.0641 12.212 86.3681 12.944 86.3681 14.024ZM93.8645 17H92.4005V11.072H93.7565L93.8765 11.84C94.2485 11.24 94.9685 10.892 95.7725 10.892C97.2605 10.892 98.0285 11.816 98.0285 13.352V17H96.5645V13.7C96.5645 12.704 96.0725 12.224 95.3165 12.224C94.4165 12.224 93.8645 12.848 93.8645 13.808V17ZM99.4549 14.444V13.148H103.319V14.444H99.4549ZM106.167 17H104.811V8.072H106.275V11.936C106.659 11.276 107.451 10.88 108.351 10.88C110.043 10.88 111.075 12.2 111.075 14.072C111.075 15.896 109.959 17.156 108.255 17.156C107.367 17.156 106.611 16.76 106.263 16.076L106.167 17ZM106.287 14.012C106.287 15.08 106.947 15.812 107.955 15.812C108.987 15.812 109.599 15.068 109.599 14.012C109.599 12.956 108.987 12.2 107.955 12.2C106.947 12.2 106.287 12.944 106.287 14.012ZM112.972 9.884C112.468 9.884 112.072 9.488 112.072 8.996C112.072 8.504 112.468 8.12 112.972 8.12C113.452 8.12 113.848 8.504 113.848 8.996C113.848 9.488 113.452 9.884 112.972 9.884ZM112.24 17V11.072H113.704V17H112.24ZM116.681 17H115.217V11.072H116.573L116.693 11.84C117.065 11.24 117.785 10.892 118.589 10.892C120.077 10.892 120.845 11.816 120.845 13.352V17H119.381V13.7C119.381 12.704 118.889 12.224 118.133 12.224C117.233 12.224 116.681 12.848 116.681 13.808V17ZM121.947 13.904C121.947 12.176 123.075 10.88 124.767 10.88C125.655 10.88 126.351 11.252 126.699 11.888L126.783 11.072H128.139V16.7C128.139 18.68 126.951 19.916 125.031 19.916C123.327 19.916 122.163 18.944 121.983 17.36H123.447C123.543 18.128 124.131 18.584 125.031 18.584C126.039 18.584 126.687 17.948 126.687 16.964V15.98C126.315 16.532 125.583 16.88 124.731 16.88C123.051 16.88 121.947 15.62 121.947 13.904ZM123.423 13.868C123.423 14.864 124.059 15.608 125.019 15.608C126.027 15.608 126.651 14.9 126.651 13.868C126.651 12.86 126.039 12.164 125.019 12.164C124.047 12.164 123.423 12.896 123.423 13.868Z" fill="black"/>
</svg>
