<svg width="140" height="24" viewBox="0 0 140 24" fill="none" xmlns="http://www.w3.org/2000/svg">
<path d="M1.99023 5.93007V4.42007C1.99023 3.40007 2.82023 2.57007 3.84023 2.57007H16.7602C17.7802 2.57007 18.6102 3.40007 18.6102 4.42007V5.93007" stroke="#1A1A1A" stroke-width="1.5" stroke-linecap="round" stroke-linejoin="round"/>
<path d="M10.3008 18.1001V3.32007" stroke="#1A1A1A" stroke-width="1.5" stroke-linecap="round" stroke-linejoin="round"/>
<path d="M6.90039 18.1001H12.4804" stroke="#1A1A1A" stroke-width="1.5" stroke-linecap="round" stroke-linejoin="round"/>
<path d="M13.6797 10.3401H20.6897C21.4197 10.3401 22.0097 10.9301 22.0097 11.6601V12.4601" stroke="#1A1A1A" stroke-width="1.5" stroke-linecap="round" stroke-linejoin="round"/>
<path d="M16.0801 21.4301V10.8701" stroke="#1A1A1A" stroke-width="1.5" stroke-linecap="round" stroke-linejoin="round"/>
<path d="M13.9395 21.4299H18.2195" stroke="#1A1A1A" stroke-width="1.5" stroke-linecap="round" stroke-linejoin="round"/>
<path d="M34.468 9.676C34.468 8.14 35.74 7.072 37.588 7.072C39.364 7.072 40.492 8.056 40.54 9.64H39.004C38.968 8.884 38.428 8.44 37.564 8.44C36.616 8.44 36.004 8.896 36.004 9.628C36.004 10.252 36.34 10.6 37.072 10.768L38.452 11.068C39.952 11.392 40.684 12.16 40.684 13.468C40.684 15.1 39.412 16.156 37.48 16.156C35.608 16.156 34.384 15.16 34.348 13.588H35.884C35.896 14.332 36.496 14.776 37.48 14.776C38.5 14.776 39.148 14.332 39.148 13.6C39.148 13.012 38.848 12.664 38.128 12.508L36.736 12.196C35.248 11.872 34.468 11.02 34.468 9.676ZM43.3216 16H41.8576V10.072H43.2016L43.3216 10.768C43.6216 10.276 44.2216 9.892 45.0736 9.892C45.9736 9.892 46.5976 10.336 46.9096 11.02C47.2096 10.336 47.9056 9.892 48.8056 9.892C50.2456 9.892 51.0376 10.756 51.0376 12.124V16H49.5856V12.508C49.5856 11.656 49.1296 11.212 48.4336 11.212C47.7256 11.212 47.1856 11.668 47.1856 12.64V16H45.7216V12.496C45.7216 11.668 45.2776 11.224 44.5816 11.224C43.8856 11.224 43.3216 11.68 43.3216 12.64V16ZM54.2388 16.156C52.9788 16.156 52.2108 15.424 52.2108 14.308C52.2108 13.216 53.0028 12.532 54.4068 12.424L56.1828 12.292V12.16C56.1828 11.356 55.7028 11.032 54.9588 11.032C54.0948 11.032 53.6148 11.392 53.6148 12.016H52.3668C52.3668 10.732 53.4228 9.892 55.0308 9.892C56.6268 9.892 57.6108 10.756 57.6108 12.4V16H56.3268L56.2188 15.124C55.9668 15.736 55.1628 16.156 54.2388 16.156ZM54.7188 15.052C55.6188 15.052 56.1948 14.512 56.1948 13.6V13.288L54.9588 13.384C54.0468 13.468 53.6988 13.768 53.6988 14.248C53.6988 14.788 54.0588 15.052 54.7188 15.052ZM60.525 16H59.073V7.072H60.525V16ZM63.5367 16H62.0847V7.072H63.5367V16ZM64.7244 13.024C64.7244 11.188 65.9364 9.892 67.6884 9.892C69.3084 9.892 70.4124 10.792 70.5684 12.22H69.1044C68.9364 11.548 68.4444 11.2 67.7484 11.2C66.8124 11.2 66.1884 11.908 66.1884 13.024C66.1884 14.14 66.7644 14.836 67.7004 14.836C68.4324 14.836 68.9484 14.476 69.1044 13.828H70.5804C70.4004 15.208 69.2484 16.156 67.7004 16.156C65.9004 16.156 64.7244 14.908 64.7244 13.024ZM73.4341 16.156C72.1741 16.156 71.4061 15.424 71.4061 14.308C71.4061 13.216 72.1981 12.532 73.6021 12.424L75.3781 12.292V12.16C75.3781 11.356 74.8981 11.032 74.1541 11.032C73.2901 11.032 72.8101 11.392 72.8101 12.016H71.5621C71.5621 10.732 72.6181 9.892 74.2261 9.892C75.8221 9.892 76.8061 10.756 76.8061 12.4V16H75.5221L75.4141 15.124C75.1621 15.736 74.3581 16.156 73.4341 16.156ZM73.9141 15.052C74.8141 15.052 75.3901 14.512 75.3901 13.6V13.288L74.1541 13.384C73.2421 13.468 72.8941 13.768 72.8941 14.248C72.8941 14.788 73.2541 15.052 73.9141 15.052ZM78.2443 18.748V10.072H79.6003L79.6963 10.972C80.0563 10.288 80.8363 9.892 81.7363 9.892C83.4043 9.892 84.5083 11.104 84.5083 12.964C84.5083 14.812 83.5003 16.156 81.7363 16.156C80.8483 16.156 80.0803 15.808 79.7083 15.208V18.748H78.2443ZM79.7203 13.036C79.7203 14.104 80.3803 14.836 81.3883 14.836C82.4203 14.836 83.0323 14.092 83.0323 13.036C83.0323 11.98 82.4203 11.224 81.3883 11.224C80.3803 11.224 79.7203 11.968 79.7203 13.036ZM85.218 14.2H86.61C86.622 14.716 87.006 15.04 87.678 15.04C88.362 15.04 88.734 14.764 88.734 14.332C88.734 14.032 88.578 13.816 88.05 13.696L86.982 13.444C85.914 13.204 85.398 12.7 85.398 11.752C85.398 10.588 86.382 9.892 87.75 9.892C89.082 9.892 89.982 10.66 89.994 11.812H88.602C88.59 11.308 88.254 10.984 87.69 10.984C87.114 10.984 86.778 11.248 86.778 11.692C86.778 12.028 87.042 12.244 87.546 12.364L88.614 12.616C89.61 12.844 90.114 13.3 90.114 14.212C90.114 15.412 89.094 16.156 87.63 16.156C86.154 16.156 85.218 15.364 85.218 14.2Z" fill="black"/>
</svg>
