<svg width="101" height="24" viewBox="0 0 101 24" fill="none" xmlns="http://www.w3.org/2000/svg">
<path d="M12 12C14.7614 12 17 9.76142 17 7C17 4.23858 14.7614 2 12 2C9.23858 2 7 4.23858 7 7C7 9.76142 9.23858 12 12 12Z" stroke="#1A1A1A" stroke-width="1.5" stroke-linecap="round" stroke-linejoin="round"/>
<path d="M20.5901 22C20.5901 18.13 16.7402 15 12.0002 15C7.26015 15 3.41016 18.13 3.41016 22" stroke="#1A1A1A" stroke-width="1.5" stroke-linecap="round" stroke-linejoin="round"/>
<path d="M34.912 12.796V7.228H36.448V12.7C36.448 13.96 37.132 14.656 38.38 14.656C39.628 14.656 40.324 13.948 40.324 12.7V7.228H41.86V12.796C41.86 14.848 40.516 16.144 38.38 16.144C36.256 16.144 34.912 14.86 34.912 12.796ZM42.9953 14.2H44.3873C44.3993 14.716 44.7833 15.04 45.4553 15.04C46.1393 15.04 46.5113 14.764 46.5113 14.332C46.5113 14.032 46.3553 13.816 45.8273 13.696L44.7593 13.444C43.6913 13.204 43.1753 12.7 43.1753 11.752C43.1753 10.588 44.1593 9.892 45.5273 9.892C46.8593 9.892 47.7593 10.66 47.7713 11.812H46.3793C46.3673 11.308 46.0313 10.984 45.4673 10.984C44.8913 10.984 44.5553 11.248 44.5553 11.692C44.5553 12.028 44.8193 12.244 45.3233 12.364L46.3913 12.616C47.3873 12.844 47.8913 13.3 47.8913 14.212C47.8913 15.412 46.8713 16.156 45.4073 16.156C43.9313 16.156 42.9953 15.364 42.9953 14.2ZM51.658 16.156C49.894 16.156 48.658 14.872 48.658 13.036C48.658 11.176 49.87 9.892 51.61 9.892C53.386 9.892 54.514 11.08 54.514 12.928V13.372L50.05 13.384C50.158 14.428 50.71 14.956 51.682 14.956C52.486 14.956 53.014 14.644 53.182 14.08H54.538C54.286 15.376 53.206 16.156 51.658 16.156ZM51.622 11.092C50.758 11.092 50.23 11.56 50.086 12.448H53.062C53.062 11.632 52.498 11.092 51.622 11.092ZM59.4057 10.048V11.404H58.8657C57.8097 11.404 57.1497 11.968 57.1497 13.12V16H55.6857V10.084H57.0657L57.1497 10.948C57.4017 10.36 57.9657 9.964 58.7577 9.964C58.9617 9.964 59.1657 9.988 59.4057 10.048Z" fill="black"/>
</svg>
