<svg width="101" height="24" viewBox="0 0 101 24" fill="none" xmlns="http://www.w3.org/2000/svg">
<path d="M3.16992 7.43994L11.9999 12.5499L20.7699 7.46994" stroke="#1A1A1A" stroke-width="1.5" stroke-linecap="round" stroke-linejoin="round"/>
<path d="M12 21.61V12.54" stroke="#1A1A1A" stroke-width="1.5" stroke-linecap="round" stroke-linejoin="round"/>
<path d="M9.93062 2.47979L4.59063 5.43979C3.38063 6.10979 2.39062 7.78979 2.39062 9.16979V14.8198C2.39062 16.1998 3.38063 17.8798 4.59063 18.5498L9.93062 21.5198C11.0706 22.1498 12.9406 22.1498 14.0806 21.5198L19.4206 18.5498C20.6306 17.8798 21.6206 16.1998 21.6206 14.8198V9.16979C21.6206 7.78979 20.6306 6.10979 19.4206 5.43979L14.0806 2.46979C12.9306 1.83979 11.0706 1.83979 9.93062 2.47979Z" stroke="#1A1A1A" stroke-width="1.5" stroke-linecap="round" stroke-linejoin="round"/>
<path d="M34.972 16V7.228H38.464C40.192 7.228 41.248 8.128 41.248 9.592C41.248 10.564 40.816 11.26 39.988 11.608C40.912 11.908 41.38 12.604 41.38 13.624C41.38 15.124 40.336 16 38.524 16H34.972ZM38.332 8.584H36.508V10.972H38.368C39.208 10.972 39.676 10.528 39.676 9.748C39.676 8.992 39.196 8.584 38.332 8.584ZM38.464 12.268H36.508V14.644H38.464C39.328 14.644 39.808 14.224 39.808 13.432C39.808 12.688 39.316 12.268 38.464 12.268ZM42.2244 13.024C42.2244 11.176 43.5564 9.904 45.3924 9.904C47.2284 9.904 48.5604 11.176 48.5604 13.024C48.5604 14.872 47.2284 16.144 45.3924 16.144C43.5564 16.144 42.2244 14.872 42.2244 13.024ZM43.6884 13.024C43.6884 14.104 44.3844 14.836 45.3924 14.836C46.4004 14.836 47.0964 14.104 47.0964 13.024C47.0964 11.944 46.4004 11.212 45.3924 11.212C44.3844 11.212 43.6884 11.944 43.6884 13.024ZM50.4833 16H48.8153L50.8553 13.096L48.8153 10.072H50.5193L51.8273 12.088L53.0873 10.072H54.7313L52.7153 13.072L54.6713 16H52.9913L51.7313 14.044L50.4833 16Z" fill="black"/>
</svg>
