<svg width="154" height="24" viewBox="0 0 154 24" fill="none" xmlns="http://www.w3.org/2000/svg">
<path d="M2 15.2V9C2 5.5 4 4 7 4H17C20 4 22 5.5 22 9V15C22 18.5 20 20 17 20H8.5" stroke="#1A1A1A" stroke-width="1.5" stroke-miterlimit="10" stroke-linecap="round" stroke-linejoin="round"/>
<path d="M12 14.5C13.3807 14.5 14.5 13.3807 14.5 12C14.5 10.6193 13.3807 9.5 12 9.5C10.6193 9.5 9.5 10.6193 9.5 12C9.5 13.3807 10.6193 14.5 12 14.5Z" stroke="#1A1A1A" stroke-width="1.5" stroke-miterlimit="10" stroke-linecap="round" stroke-linejoin="round"/>
<path d="M18.5 9.5V14.5" stroke="#1A1A1A" stroke-width="1.5" stroke-miterlimit="10" stroke-linecap="round" stroke-linejoin="round"/>
<path d="M9 18C9 18.75 8.78998 19.46 8.41998 20.06C7.72998 21.22 6.46 22 5 22C3.54 22 2.27002 21.22 1.58002 20.06C1.21002 19.46 1 18.75 1 18C1 15.79 2.79 14 5 14C7.21 14 9 15.79 9 18Z" stroke="#1A1A1A" stroke-width="1.5" stroke-miterlimit="10" stroke-linecap="round" stroke-linejoin="round"/>
<path d="M7.75 15.25L2.25 20.75" stroke="#1A1A1A" stroke-width="1.5" stroke-miterlimit="10" stroke-linecap="round" stroke-linejoin="round"/>
<path d="M36.46 17H34.972V8.228H36.46L39.292 15.212L42.124 8.228H43.636V17H42.148V14.3C42.148 12.536 42.148 12.02 42.232 11.396L40 17H38.584L36.364 11.408C36.448 11.936 36.46 12.764 36.46 13.856V17ZM45.0135 14.024C45.0135 12.176 46.3455 10.904 48.1815 10.904C50.0175 10.904 51.3495 12.176 51.3495 14.024C51.3495 15.872 50.0175 17.144 48.1815 17.144C46.3455 17.144 45.0135 15.872 45.0135 14.024ZM46.4775 14.024C46.4775 15.104 47.1735 15.836 48.1815 15.836C49.1895 15.836 49.8855 15.104 49.8855 14.024C49.8855 12.944 49.1895 12.212 48.1815 12.212C47.1735 12.212 46.4775 12.944 46.4775 14.024ZM53.9739 17H52.5099V11.072H53.8659L53.9859 11.84C54.3579 11.24 55.0779 10.892 55.8819 10.892C57.3699 10.892 58.1379 11.816 58.1379 13.352V17H56.6739V13.7C56.6739 12.704 56.1819 12.224 55.4259 12.224C54.5259 12.224 53.9739 12.848 53.9739 13.808V17ZM62.2283 17.156C60.4643 17.156 59.2283 15.872 59.2283 14.036C59.2283 12.176 60.4403 10.892 62.1803 10.892C63.9563 10.892 65.0843 12.08 65.0843 13.928V14.372L60.6203 14.384C60.7283 15.428 61.2803 15.956 62.2523 15.956C63.0563 15.956 63.5843 15.644 63.7523 15.08H65.1083C64.8563 16.376 63.7763 17.156 62.2283 17.156ZM62.1923 12.092C61.3283 12.092 60.8003 12.56 60.6563 13.448H63.6323C63.6323 12.632 63.0683 12.092 62.1923 12.092ZM65.5408 19.748V18.524H66.4168C66.9928 18.524 67.3528 18.392 67.6048 17.696L67.7728 17.252L65.3848 11.072H66.9328L68.4568 15.392L70.0648 11.072H71.5768L68.6728 18.32C68.2288 19.424 67.6048 19.88 66.6328 19.88C66.2248 19.88 65.8648 19.832 65.5408 19.748ZM71.9862 14.444V13.148H75.8502V14.444H71.9862ZM76.5196 11.072H77.3716V10.352C77.3716 8.744 78.2236 8.072 79.5076 8.072C79.7356 8.072 80.0116 8.084 80.2636 8.132V9.38H79.7476C79.0036 9.38 78.8236 9.764 78.8236 10.352V11.072H80.2396V12.296H78.8236V17H77.3716V12.296H76.5196V11.072ZM80.6502 14.024C80.6502 12.176 81.9822 10.904 83.8182 10.904C85.6542 10.904 86.9862 12.176 86.9862 14.024C86.9862 15.872 85.6542 17.144 83.8182 17.144C81.9822 17.144 80.6502 15.872 80.6502 14.024ZM82.1142 14.024C82.1142 15.104 82.8102 15.836 83.8182 15.836C84.8262 15.836 85.5222 15.104 85.5222 14.024C85.5222 12.944 84.8262 12.212 83.8182 12.212C82.8102 12.212 82.1142 12.944 82.1142 14.024ZM91.8666 11.048V12.404H91.3266C90.2706 12.404 89.6106 12.968 89.6106 14.12V17H88.1466V11.084H89.5266L89.6106 11.948C89.8626 11.36 90.4266 10.964 91.2186 10.964C91.4226 10.964 91.6266 10.988 91.8666 11.048ZM94.2136 17H92.8576V8.072H94.3216V11.936C94.7056 11.276 95.4976 10.88 96.3976 10.88C98.0896 10.88 99.1216 12.2 99.1216 14.072C99.1216 15.896 98.0056 17.156 96.3016 17.156C95.4136 17.156 94.6576 16.76 94.3096 16.076L94.2136 17ZM94.3336 14.012C94.3336 15.08 94.9936 15.812 96.0016 15.812C97.0336 15.812 97.6456 15.068 97.6456 14.012C97.6456 12.956 97.0336 12.2 96.0016 12.2C94.9936 12.2 94.3336 12.944 94.3336 14.012ZM101.019 9.884C100.515 9.884 100.119 9.488 100.119 8.996C100.119 8.504 100.515 8.12 101.019 8.12C101.499 8.12 101.895 8.504 101.895 8.996C101.895 9.488 101.499 9.884 101.019 9.884ZM100.287 17V11.072H101.751V17H100.287ZM105.7 17.156C103.984 17.156 102.916 15.896 102.916 14.06C102.916 12.212 103.996 10.892 105.784 10.892C106.612 10.892 107.344 11.24 107.716 11.828V8.072H109.168V17H107.824L107.728 16.076C107.368 16.76 106.6 17.156 105.7 17.156ZM106.024 15.812C107.044 15.812 107.704 15.08 107.704 14.012C107.704 12.944 107.044 12.2 106.024 12.2C105.004 12.2 104.38 12.956 104.38 14.012C104.38 15.068 105.004 15.812 106.024 15.812ZM113.13 17.156C111.414 17.156 110.346 15.896 110.346 14.06C110.346 12.212 111.426 10.892 113.214 10.892C114.042 10.892 114.774 11.24 115.146 11.828V8.072H116.598V17H115.254L115.158 16.076C114.798 16.76 114.03 17.156 113.13 17.156ZM113.454 15.812C114.474 15.812 115.134 15.08 115.134 14.012C115.134 12.944 114.474 12.2 113.454 12.2C112.434 12.2 111.81 12.956 111.81 14.012C111.81 15.068 112.434 15.812 113.454 15.812ZM120.775 17.156C119.011 17.156 117.775 15.872 117.775 14.036C117.775 12.176 118.987 10.892 120.727 10.892C122.503 10.892 123.631 12.08 123.631 13.928V14.372L119.167 14.384C119.275 15.428 119.827 15.956 120.799 15.956C121.603 15.956 122.131 15.644 122.299 15.08H123.655C123.403 16.376 122.323 17.156 120.775 17.156ZM120.739 12.092C119.875 12.092 119.347 12.56 119.203 13.448H122.179C122.179 12.632 121.615 12.092 120.739 12.092ZM126.267 17H124.803V11.072H126.159L126.279 11.84C126.651 11.24 127.371 10.892 128.175 10.892C129.663 10.892 130.431 11.816 130.431 13.352V17H128.967V13.7C128.967 12.704 128.475 12.224 127.719 12.224C126.819 12.224 126.267 12.848 126.267 13.808V17Z" fill="black"/>
</svg>
