<svg width="129" height="24" viewBox="0 0 129 24" fill="none" xmlns="http://www.w3.org/2000/svg">
<path d="M2 8.5H13.5" stroke="#1A1A1A" stroke-width="1.5" stroke-miterlimit="10" stroke-linecap="round" stroke-linejoin="round"/>
<path d="M6 16.5H8" stroke="#1A1A1A" stroke-width="1.5" stroke-miterlimit="10" stroke-linecap="round" stroke-linejoin="round"/>
<path d="M10.5 16.5H14.5" stroke="#1A1A1A" stroke-width="1.5" stroke-miterlimit="10" stroke-linecap="round" stroke-linejoin="round"/>
<path d="M22 12.03V16.11C22 19.62 21.11 20.5 17.56 20.5H6.44C2.89 20.5 2 19.62 2 16.11V7.89C2 4.38 2.89 3.5 6.44 3.5H13.5" stroke="#1A1A1A" stroke-width="1.5" stroke-linecap="round" stroke-linejoin="round"/>
<path d="M17.3086 8.18957L21.1886 4.30957" stroke="#1A1A1A" stroke-width="1.5" stroke-linecap="round"/>
<path d="M21.1886 8.18957L17.3086 4.30957" stroke="#1A1A1A" stroke-width="1.5" stroke-linecap="round"/>
<path d="M38.68 17.144C36.124 17.144 34.468 15.368 34.468 12.62C34.468 9.896 36.184 8.084 38.752 8.084C40.828 8.084 42.376 9.296 42.676 11.18H41.056C40.756 10.16 39.88 9.56 38.716 9.56C37.096 9.56 36.076 10.736 36.076 12.608C36.076 14.468 37.108 15.668 38.716 15.668C39.904 15.668 40.816 15.044 41.104 14.072H42.7C42.364 15.92 40.756 17.144 38.68 17.144ZM45.5083 17.156C44.2483 17.156 43.4803 16.424 43.4803 15.308C43.4803 14.216 44.2723 13.532 45.6763 13.424L47.4523 13.292V13.16C47.4523 12.356 46.9723 12.032 46.2283 12.032C45.3643 12.032 44.8843 12.392 44.8843 13.016H43.6363C43.6363 11.732 44.6923 10.892 46.3003 10.892C47.8963 10.892 48.8803 11.756 48.8803 13.4V17H47.5963L47.4883 16.124C47.2363 16.736 46.4323 17.156 45.5083 17.156ZM45.9883 16.052C46.8883 16.052 47.4643 15.512 47.4643 14.6V14.288L46.2283 14.384C45.3163 14.468 44.9683 14.768 44.9683 15.248C44.9683 15.788 45.3283 16.052 45.9883 16.052ZM54.0385 11.048V12.404H53.4985C52.4425 12.404 51.7825 12.968 51.7825 14.12V17H50.3185V11.084H51.6985L51.7825 11.948C52.0345 11.36 52.5985 10.964 53.3905 10.964C53.5945 10.964 53.7985 10.988 54.0385 11.048ZM57.2662 17.156C55.5502 17.156 54.4822 15.896 54.4822 14.06C54.4822 12.212 55.5622 10.892 57.3502 10.892C58.1782 10.892 58.9102 11.24 59.2822 11.828V8.072H60.7342V17H59.3902L59.2942 16.076C58.9342 16.76 58.1662 17.156 57.2662 17.156ZM57.5902 15.812C58.6102 15.812 59.2702 15.08 59.2702 14.012C59.2702 12.944 58.6102 12.2 57.5902 12.2C56.5702 12.2 55.9462 12.956 55.9462 14.012C55.9462 15.068 56.5702 15.812 57.5902 15.812ZM62.2479 14.444V13.148H66.1119V14.444H62.2479ZM71.3237 11.048V12.404H70.7837C69.7277 12.404 69.0677 12.968 69.0677 14.12V17H67.6037V11.084H68.9837L69.0677 11.948C69.3197 11.36 69.8837 10.964 70.6757 10.964C70.8797 10.964 71.0837 10.988 71.3237 11.048ZM74.7674 17.156C73.0034 17.156 71.7674 15.872 71.7674 14.036C71.7674 12.176 72.9794 10.892 74.7194 10.892C76.4954 10.892 77.6234 12.08 77.6234 13.928V14.372L73.1594 14.384C73.2674 15.428 73.8194 15.956 74.7914 15.956C75.5954 15.956 76.1234 15.644 76.2914 15.08H77.6474C77.3954 16.376 76.3154 17.156 74.7674 17.156ZM74.7314 12.092C73.8674 12.092 73.3394 12.56 73.1954 13.448H76.1714C76.1714 12.632 75.6074 12.092 74.7314 12.092ZM80.2591 17H78.7951V11.072H80.1391L80.2591 11.768C80.5591 11.276 81.1591 10.892 82.0111 10.892C82.9111 10.892 83.5351 11.336 83.8471 12.02C84.1471 11.336 84.8431 10.892 85.7431 10.892C87.1831 10.892 87.9751 11.756 87.9751 13.124V17H86.5231V13.508C86.5231 12.656 86.0671 12.212 85.3711 12.212C84.6631 12.212 84.1231 12.668 84.1231 13.64V17H82.6591V13.496C82.6591 12.668 82.2151 12.224 81.5191 12.224C80.8231 12.224 80.2591 12.68 80.2591 13.64V17ZM89.0643 14.024C89.0643 12.176 90.3963 10.904 92.2323 10.904C94.0683 10.904 95.4003 12.176 95.4003 14.024C95.4003 15.872 94.0683 17.144 92.2323 17.144C90.3963 17.144 89.0643 15.872 89.0643 14.024ZM90.5283 14.024C90.5283 15.104 91.2243 15.836 92.2323 15.836C93.2403 15.836 93.9363 15.104 93.9363 14.024C93.9363 12.944 93.2403 12.212 92.2323 12.212C91.2243 12.212 90.5283 12.944 90.5283 14.024ZM97.9477 17L95.5957 11.072H97.1557L98.1877 13.796C98.4397 14.504 98.6437 15.116 98.7157 15.44C98.7997 15.068 99.0157 14.444 99.2677 13.796L100.348 11.072H101.86L99.3877 17H97.9477ZM105.06 17.156C103.296 17.156 102.06 15.872 102.06 14.036C102.06 12.176 103.272 10.892 105.012 10.892C106.788 10.892 107.916 12.08 107.916 13.928V14.372L103.452 14.384C103.56 15.428 104.112 15.956 105.084 15.956C105.888 15.956 106.416 15.644 106.584 15.08H107.94C107.688 16.376 106.608 17.156 105.06 17.156ZM105.024 12.092C104.16 12.092 103.632 12.56 103.488 13.448H106.464C106.464 12.632 105.9 12.092 105.024 12.092ZM109.076 14.444V13.148H112.94V14.444H109.076ZM119.538 16.988L113.454 17V15.848L116.322 13.424C117.51 12.416 117.906 11.84 117.906 11C117.906 10.004 117.366 9.44 116.442 9.44C115.482 9.44 114.882 10.112 114.87 11.24H113.346C113.358 9.32 114.582 8.072 116.442 8.072C118.314 8.072 119.478 9.14 119.478 10.916C119.478 12.14 118.806 13.064 117.474 14.204L115.89 15.56H119.538V16.988Z" fill="black"/>
</svg>
