<svg width="117" height="24" viewBox="0 0 117 24" fill="none" xmlns="http://www.w3.org/2000/svg">
<path d="M11 20C15.9706 20 20 15.9706 20 11C20 6.02944 15.9706 2 11 2C6.02944 2 2 6.02944 2 11C2 15.9706 6.02944 20 11 20Z" stroke="#1A1A1A" stroke-width="1.5" stroke-linecap="round" stroke-linejoin="round"/>
<path d="M18.9304 20.6898C19.4604 22.2898 20.6704 22.4498 21.6004 21.0498C22.4504 19.7698 21.8904 18.7198 20.3504 18.7198C19.2104 18.7098 18.5704 19.5998 18.9304 20.6898Z" stroke="#1A1A1A" stroke-width="1.5" stroke-linecap="round" stroke-linejoin="round"/>
<path d="M34.468 10.676C34.468 9.14 35.74 8.072 37.588 8.072C39.364 8.072 40.492 9.056 40.54 10.64H39.004C38.968 9.884 38.428 9.44 37.564 9.44C36.616 9.44 36.004 9.896 36.004 10.628C36.004 11.252 36.34 11.6 37.072 11.768L38.452 12.068C39.952 12.392 40.684 13.16 40.684 14.468C40.684 16.1 39.412 17.156 37.48 17.156C35.608 17.156 34.384 16.16 34.348 14.588H35.884C35.896 15.332 36.496 15.776 37.48 15.776C38.5 15.776 39.148 15.332 39.148 14.6C39.148 14.012 38.848 13.664 38.128 13.508L36.736 13.196C35.248 12.872 34.468 12.02 34.468 10.676ZM44.5096 17.156C42.7456 17.156 41.5096 15.872 41.5096 14.036C41.5096 12.176 42.7216 10.892 44.4616 10.892C46.2376 10.892 47.3656 12.08 47.3656 13.928V14.372L42.9016 14.384C43.0096 15.428 43.5616 15.956 44.5336 15.956C45.3376 15.956 45.8656 15.644 46.0336 15.08H47.3896C47.1376 16.376 46.0576 17.156 44.5096 17.156ZM44.4736 12.092C43.6096 12.092 43.0816 12.56 42.9376 13.448H45.9136C45.9136 12.632 45.3496 12.092 44.4736 12.092ZM50.2427 17.156C48.9827 17.156 48.2147 16.424 48.2147 15.308C48.2147 14.216 49.0067 13.532 50.4107 13.424L52.1867 13.292V13.16C52.1867 12.356 51.7067 12.032 50.9627 12.032C50.0987 12.032 49.6187 12.392 49.6187 13.016H48.3707C48.3707 11.732 49.4267 10.892 51.0347 10.892C52.6307 10.892 53.6147 11.756 53.6147 13.4V17H52.3307L52.2227 16.124C51.9707 16.736 51.1667 17.156 50.2427 17.156ZM50.7227 16.052C51.6227 16.052 52.1987 15.512 52.1987 14.6V14.288L50.9627 14.384C50.0507 14.468 49.7027 14.768 49.7027 15.248C49.7027 15.788 50.0627 16.052 50.7227 16.052ZM58.7729 11.048V12.404H58.2329C57.1769 12.404 56.5169 12.968 56.5169 14.12V17H55.0529V11.084H56.4329L56.5169 11.948C56.7689 11.36 57.3329 10.964 58.1249 10.964C58.3289 10.964 58.5329 10.988 58.7729 11.048ZM59.2166 14.024C59.2166 12.188 60.4286 10.892 62.1806 10.892C63.8006 10.892 64.9046 11.792 65.0606 13.22H63.5966C63.4286 12.548 62.9366 12.2 62.2406 12.2C61.3046 12.2 60.6806 12.908 60.6806 14.024C60.6806 15.14 61.2566 15.836 62.1926 15.836C62.9246 15.836 63.4406 15.476 63.5966 14.828H65.0726C64.8926 16.208 63.7406 17.156 62.1926 17.156C60.3926 17.156 59.2166 15.908 59.2166 14.024ZM67.6263 17H66.1623V8.072H67.6383V11.84C68.0103 11.264 68.7063 10.892 69.5583 10.892C71.0223 10.892 71.7903 11.816 71.7903 13.352V17H70.3263V13.7C70.3263 12.704 69.8343 12.224 69.0903 12.224C68.1663 12.224 67.6263 12.872 67.6263 13.76V17ZM73.2167 14.444V13.148H77.0807V14.444H73.2167ZM80.0364 17H78.5724V11.072H79.9284L80.0484 11.84C80.4204 11.24 81.1404 10.892 81.9444 10.892C83.4324 10.892 84.2004 11.816 84.2004 13.352V17H82.7364V13.7C82.7364 12.704 82.2444 12.224 81.4884 12.224C80.5884 12.224 80.0364 12.848 80.0364 13.808V17ZM85.2908 14.024C85.2908 12.176 86.6228 10.904 88.4588 10.904C90.2948 10.904 91.6268 12.176 91.6268 14.024C91.6268 15.872 90.2948 17.144 88.4588 17.144C86.6228 17.144 85.2908 15.872 85.2908 14.024ZM86.7548 14.024C86.7548 15.104 87.4508 15.836 88.4588 15.836C89.4668 15.836 90.1628 15.104 90.1628 14.024C90.1628 12.944 89.4668 12.212 88.4588 12.212C87.4508 12.212 86.7548 12.944 86.7548 14.024ZM96.5073 11.048V12.404H95.9673C94.9113 12.404 94.2513 12.968 94.2513 14.12V17H92.7873V11.084H94.1673L94.2513 11.948C94.5033 11.36 95.0673 10.964 95.8593 10.964C96.0633 10.964 96.2673 10.988 96.5073 11.048ZM98.9622 17H97.4982V11.072H98.8422L98.9622 11.768C99.2622 11.276 99.8622 10.892 100.714 10.892C101.614 10.892 102.238 11.336 102.55 12.02C102.85 11.336 103.546 10.892 104.446 10.892C105.886 10.892 106.678 11.756 106.678 13.124V17H105.226V13.508C105.226 12.656 104.77 12.212 104.074 12.212C103.366 12.212 102.826 12.668 102.826 13.64V17H101.362V13.496C101.362 12.668 100.918 12.224 100.222 12.224C99.5262 12.224 98.9622 12.68 98.9622 13.64V17ZM109.879 17.156C108.619 17.156 107.851 16.424 107.851 15.308C107.851 14.216 108.643 13.532 110.047 13.424L111.823 13.292V13.16C111.823 12.356 111.343 12.032 110.599 12.032C109.735 12.032 109.255 12.392 109.255 13.016H108.007C108.007 11.732 109.063 10.892 110.671 10.892C112.267 10.892 113.251 11.756 113.251 13.4V17H111.967L111.859 16.124C111.607 16.736 110.803 17.156 109.879 17.156ZM110.359 16.052C111.259 16.052 111.835 15.512 111.835 14.6V14.288L110.599 14.384C109.687 14.468 109.339 14.768 109.339 15.248C109.339 15.788 109.699 16.052 110.359 16.052ZM116.166 17H114.714V8.072H116.166V17Z" fill="black"/>
</svg>
