<svg width="113" height="24" viewBox="0 0 113 24" fill="none" xmlns="http://www.w3.org/2000/svg">
<path d="M21.8095 3.94012C20.2695 7.78012 16.4095 13.0001 13.1795 15.5901L11.2095 17.1701C10.9595 17.3501 10.7095 17.5101 10.4295 17.6201C10.4295 17.4401 10.4195 17.2401 10.3895 17.0501C10.2795 16.2101 9.89953 15.4301 9.22953 14.7601C8.54953 14.0801 7.71953 13.6801 6.86953 13.5701C6.66953 13.5601 6.46953 13.5401 6.26953 13.5601C6.37953 13.2501 6.54953 12.9601 6.75953 12.7201L8.31953 10.7501C10.8995 7.52012 16.1395 3.64012 19.9695 2.11012C20.5595 1.89012 21.1295 2.05012 21.4895 2.42012C21.8695 2.79012 22.0495 3.36012 21.8095 3.94012Z" stroke="#1A1A1A" stroke-width="1.5" stroke-linecap="round" stroke-linejoin="round"/>
<path d="M10.4303 17.6201C10.4303 18.7201 10.0103 19.77 9.22027 20.57C8.61027 21.18 7.78027 21.6001 6.79027 21.7301L4.33027 22.0001C2.99027 22.1501 1.84027 21.01 2.00027 19.65L2.27027 17.1901C2.51027 15.0001 4.34027 13.6001 6.28027 13.5601C6.48027 13.5501 6.69027 13.56 6.88027 13.57C7.73027 13.68 8.56027 14.0701 9.24027 14.7601C9.91027 15.4301 10.2903 16.21 10.4003 17.05C10.4103 17.24 10.4303 17.4301 10.4303 17.6201Z" stroke="#1A1A1A" stroke-width="1.5" stroke-linecap="round" stroke-linejoin="round"/>
<path d="M14.2398 14.47C14.2398 11.86 12.1198 9.74 9.50977 9.74" stroke="#1A1A1A" stroke-width="1.5" stroke-linecap="round" stroke-linejoin="round"/>
<path d="M34.972 16V7.228H38.464C40.192 7.228 41.248 8.128 41.248 9.592C41.248 10.564 40.816 11.26 39.988 11.608C40.912 11.908 41.38 12.604 41.38 13.624C41.38 15.124 40.336 16 38.524 16H34.972ZM38.332 8.584H36.508V10.972H38.368C39.208 10.972 39.676 10.528 39.676 9.748C39.676 8.992 39.196 8.584 38.332 8.584ZM38.464 12.268H36.508V14.644H38.464C39.328 14.644 39.808 14.224 39.808 13.432C39.808 12.688 39.316 12.268 38.464 12.268ZM46.2924 10.048V11.404H45.7524C44.6964 11.404 44.0364 11.968 44.0364 13.12V16H42.5724V10.084H43.9524L44.0364 10.948C44.2884 10.36 44.8524 9.964 45.6444 9.964C45.8484 9.964 46.0524 9.988 46.2924 10.048ZM51.3033 10.072H52.7673V16H51.4113L51.3033 15.208C50.9433 15.772 50.1753 16.156 49.3833 16.156C48.0153 16.156 47.2113 15.232 47.2113 13.78V10.072H48.6753V13.264C48.6753 14.392 49.1193 14.848 49.9353 14.848C50.8593 14.848 51.3033 14.308 51.3033 13.18V10.072ZM53.7063 14.2H55.0983C55.1103 14.716 55.4943 15.04 56.1663 15.04C56.8503 15.04 57.2223 14.764 57.2223 14.332C57.2223 14.032 57.0663 13.816 56.5383 13.696L55.4703 13.444C54.4023 13.204 53.8863 12.7 53.8863 11.752C53.8863 10.588 54.8703 9.892 56.2383 9.892C57.5703 9.892 58.4703 10.66 58.4823 11.812H57.0903C57.0783 11.308 56.7423 10.984 56.1783 10.984C55.6023 10.984 55.2663 11.248 55.2663 11.692C55.2663 12.028 55.5303 12.244 56.0343 12.364L57.1023 12.616C58.0983 12.844 58.6023 13.3 58.6023 14.212C58.6023 15.412 57.5823 16.156 56.1183 16.156C54.6423 16.156 53.7063 15.364 53.7063 14.2ZM59.5526 13.444V12.148H63.4166V13.444H59.5526ZM70.0149 15.988L63.9309 16V14.848L66.7989 12.424C67.9869 11.416 68.3829 10.84 68.3829 10C68.3829 9.004 67.8429 8.44 66.9189 8.44C65.9589 8.44 65.3589 9.112 65.3469 10.24H63.8229C63.8349 8.32 65.0589 7.072 66.9189 7.072C68.7909 7.072 69.9549 8.14 69.9549 9.916C69.9549 11.14 69.2829 12.064 67.9509 13.204L66.3669 14.56H70.0149V15.988Z" fill="black"/>
</svg>
