<svg width="142" height="24" viewBox="0 0 142 24" fill="none" xmlns="http://www.w3.org/2000/svg">
<path d="M21.9998 2L13.7998 10.2" stroke="#1A1A1A" stroke-width="1.5" stroke-linecap="round" stroke-linejoin="round"/>
<path d="M13 6.17001V11H17.83" stroke="#1A1A1A" stroke-width="1.5" stroke-linecap="round" stroke-linejoin="round"/>
<path d="M11 2H9C4 2 2 4 2 9V15C2 20 4 22 9 22H15C20 22 22 20 22 15V13" stroke="#1A1A1A" stroke-width="1.5" stroke-linecap="round" stroke-linejoin="round"/>
<path d="M35.488 8.884C34.984 8.884 34.588 8.488 34.588 7.996C34.588 7.504 34.984 7.12 35.488 7.12C35.968 7.12 36.364 7.504 36.364 7.996C36.364 8.488 35.968 8.884 35.488 8.884ZM34.756 16V10.072H36.22V16H34.756ZM39.1966 16H37.7326V10.072H39.0766L39.1966 10.768C39.4966 10.276 40.0966 9.892 40.9486 9.892C41.8486 9.892 42.4726 10.336 42.7846 11.02C43.0846 10.336 43.7806 9.892 44.6806 9.892C46.1206 9.892 46.9126 10.756 46.9126 12.124V16H45.4606V12.508C45.4606 11.656 45.0046 11.212 44.3086 11.212C43.6006 11.212 43.0606 11.668 43.0606 12.64V16H41.5966V12.496C41.5966 11.668 41.1526 11.224 40.4566 11.224C39.7606 11.224 39.1966 11.68 39.1966 12.64V16ZM48.3498 18.748V10.072H49.7058L49.8018 10.972C50.1618 10.288 50.9418 9.892 51.8418 9.892C53.5098 9.892 54.6138 11.104 54.6138 12.964C54.6138 14.812 53.6058 16.156 51.8418 16.156C50.9538 16.156 50.1858 15.808 49.8138 15.208V18.748H48.3498ZM49.8258 13.036C49.8258 14.104 50.4858 14.836 51.4938 14.836C52.5258 14.836 53.1378 14.092 53.1378 13.036C53.1378 11.98 52.5258 11.224 51.4938 11.224C50.4858 11.224 49.8258 11.968 49.8258 13.036ZM55.4314 13.024C55.4314 11.176 56.7634 9.904 58.5994 9.904C60.4354 9.904 61.7674 11.176 61.7674 13.024C61.7674 14.872 60.4354 16.144 58.5994 16.144C56.7634 16.144 55.4314 14.872 55.4314 13.024ZM56.8954 13.024C56.8954 14.104 57.5914 14.836 58.5994 14.836C59.6074 14.836 60.3034 14.104 60.3034 13.024C60.3034 11.944 59.6074 11.212 58.5994 11.212C57.5914 11.212 56.8954 11.944 56.8954 13.024ZM66.6479 10.048V11.404H66.1079C65.0519 11.404 64.3919 11.968 64.3919 13.12V16H62.9279V10.084H64.3079L64.3919 10.948C64.6439 10.36 65.2079 9.964 65.9999 9.964C66.2039 9.964 66.4079 9.988 66.6479 10.048ZM69.8892 16H68.4252V11.296H67.2852V10.072H68.4252V8.224H69.8892V10.072H71.0412V11.296H69.8892V16ZM71.7049 13.444V12.148H75.5689V13.444H71.7049ZM79.4947 11.656H78.4267V10.66L80.6827 8.584H77.0347V7.228H82.6027V8.452L80.4667 10.42C81.8107 10.684 82.8547 11.668 82.8547 13.216C82.8547 15.016 81.4507 16.156 79.6747 16.156C77.9587 16.156 76.6267 15.1 76.6267 13.204H78.1387C78.1387 14.212 78.7627 14.788 79.6987 14.788C80.6587 14.788 81.2947 14.164 81.2947 13.192C81.2947 12.304 80.7187 11.656 79.4947 11.656Z" fill="black"/>
</svg>
