<svg width="200" height="24" viewBox="0 0 200 24" fill="none" xmlns="http://www.w3.org/2000/svg">
<path d="M12.1499 16.5V18.6" stroke="#1A1A1A" stroke-width="1.5" stroke-linecap="round" stroke-linejoin="round"/>
<path d="M7.1499 22H17.1499V21C17.1499 19.9 16.2499 19 15.1499 19H9.1499C8.0499 19 7.1499 19.9 7.1499 21V22V22Z" stroke="#1A1A1A" stroke-width="1.5" stroke-miterlimit="10"/>
<path d="M6.1499 22H18.1499" stroke="#1A1A1A" stroke-width="1.5" stroke-linecap="round" stroke-linejoin="round"/>
<path d="M12 16C8.13 16 5 12.87 5 9V6C5 3.79 6.79 2 9 2H15C17.21 2 19 3.79 19 6V9C19 12.87 15.87 16 12 16Z" stroke="#1A1A1A" stroke-width="1.5" stroke-linecap="round" stroke-linejoin="round"/>
<path d="M5.47004 11.6501C4.72004 11.4101 4.06004 10.9701 3.54004 10.4501C2.64004 9.4501 2.04004 8.2501 2.04004 6.8501C2.04004 5.4501 3.14004 4.3501 4.54004 4.3501H5.19004C4.99004 4.8101 4.89004 5.3201 4.89004 5.8501V8.8501C4.89004 9.8501 5.10004 10.7901 5.47004 11.6501Z" stroke="#1A1A1A" stroke-width="1.5" stroke-linecap="round" stroke-linejoin="round"/>
<path d="M18.5298 11.6501C19.2798 11.4101 19.9398 10.9701 20.4598 10.4501C21.3598 9.4501 21.9598 8.2501 21.9598 6.8501C21.9598 5.4501 20.8598 4.3501 19.4598 4.3501H18.8098C19.0098 4.8101 19.1098 5.3201 19.1098 5.8501V8.8501C19.1098 9.8501 18.8998 10.7901 18.5298 11.6501Z" stroke="#1A1A1A" stroke-width="1.5" stroke-linecap="round" stroke-linejoin="round"/>
<path d="M38.68 16.144C36.124 16.144 34.468 14.368 34.468 11.62C34.468 8.896 36.184 7.084 38.752 7.084C40.828 7.084 42.376 8.296 42.676 10.18H41.056C40.756 9.16 39.88 8.56 38.716 8.56C37.096 8.56 36.076 9.736 36.076 11.608C36.076 13.468 37.108 14.668 38.716 14.668C39.904 14.668 40.816 14.044 41.104 13.072H42.7C42.364 14.92 40.756 16.144 38.68 16.144ZM47.8815 10.072H49.3455V16H47.9895L47.8815 15.208C47.5215 15.772 46.7535 16.156 45.9615 16.156C44.5935 16.156 43.7895 15.232 43.7895 13.78V10.072H45.2535V13.264C45.2535 14.392 45.6975 14.848 46.5135 14.848C47.4375 14.848 47.8815 14.308 47.8815 13.18V10.072ZM50.8576 18.748V10.072H52.2136L52.3096 10.972C52.6696 10.288 53.4496 9.892 54.3496 9.892C56.0176 9.892 57.1216 11.104 57.1216 12.964C57.1216 14.812 56.1136 16.156 54.3496 16.156C53.4616 16.156 52.6936 15.808 52.3216 15.208V18.748H50.8576ZM52.3336 13.036C52.3336 14.104 52.9936 14.836 54.0016 14.836C55.0336 14.836 55.6456 14.092 55.6456 13.036C55.6456 11.98 55.0336 11.224 54.0016 11.224C52.9936 11.224 52.3336 11.968 52.3336 13.036Z" fill="black"/>
</svg>
