<svg width="141" height="24" viewBox="0 0 141 24" fill="none" xmlns="http://www.w3.org/2000/svg">
<path d="M8 2V5" stroke="#1A1A1A" stroke-width="1.5" stroke-miterlimit="10" stroke-linecap="round" stroke-linejoin="round"/>
<path d="M16 2V5" stroke="#1A1A1A" stroke-width="1.5" stroke-miterlimit="10" stroke-linecap="round" stroke-linejoin="round"/>
<path d="M7 11H15" stroke="#1A1A1A" stroke-width="1.5" stroke-miterlimit="10" stroke-linecap="round" stroke-linejoin="round"/>
<path d="M7 15H12" stroke="#1A1A1A" stroke-width="1.5" stroke-miterlimit="10" stroke-linecap="round" stroke-linejoin="round"/>
<path d="M15 22H9C4 22 3 19.94 3 15.82V9.65C3 4.95 4.67 3.69 8 3.5H16C19.33 3.68 21 4.95 21 9.65V16" stroke="#1A1A1A" stroke-width="1.5" stroke-miterlimit="10" stroke-linecap="round" stroke-linejoin="round"/>
<path d="M21 16L15 22V19C15 17 16 16 18 16H21Z" stroke="#1A1A1A" stroke-width="1.5" stroke-linecap="round" stroke-linejoin="round"/>
<path d="M34.468 9.676C34.468 8.14 35.74 7.072 37.588 7.072C39.364 7.072 40.492 8.056 40.54 9.64H39.004C38.968 8.884 38.428 8.44 37.564 8.44C36.616 8.44 36.004 8.896 36.004 9.628C36.004 10.252 36.34 10.6 37.072 10.768L38.452 11.068C39.952 11.392 40.684 12.16 40.684 13.468C40.684 15.1 39.412 16.156 37.48 16.156C35.608 16.156 34.384 15.16 34.348 13.588H35.884C35.896 14.332 36.496 14.776 37.48 14.776C38.5 14.776 39.148 14.332 39.148 13.6C39.148 13.012 38.848 12.664 38.128 12.508L36.736 12.196C35.248 11.872 34.468 11.02 34.468 9.676ZM43.8736 16H42.4096V11.296H41.2696V10.072H42.4096V8.224H43.8736V10.072H45.0256V11.296H43.8736V16ZM46.6677 8.884C46.1637 8.884 45.7677 8.488 45.7677 7.996C45.7677 7.504 46.1637 7.12 46.6677 7.12C47.1477 7.12 47.5437 7.504 47.5437 7.996C47.5437 8.488 47.1477 8.884 46.6677 8.884ZM45.9357 16V10.072H47.3997V16H45.9357ZM48.5643 13.024C48.5643 11.188 49.7763 9.892 51.5283 9.892C53.1483 9.892 54.2523 10.792 54.4083 12.22H52.9443C52.7763 11.548 52.2843 11.2 51.5883 11.2C50.6523 11.2 50.0283 11.908 50.0283 13.024C50.0283 14.14 50.6043 14.836 51.5403 14.836C52.2723 14.836 52.7883 14.476 52.9443 13.828H54.4203C54.2403 15.208 53.0883 16.156 51.5403 16.156C49.7402 16.156 48.5643 14.908 48.5643 13.024ZM56.9859 16H55.5339V7.072H56.9859V12.556L59.2899 10.072H61.1259L58.8699 12.424L61.0779 16H59.3979L57.8499 13.504L56.9859 14.404V16ZM61.4509 18.748V17.524H62.3269C62.9029 17.524 63.2629 17.392 63.5149 16.696L63.6829 16.252L61.2949 10.072H62.8429L64.3669 14.392L65.9749 10.072H67.4869L64.5829 17.32C64.1389 18.424 63.5149 18.88 62.5429 18.88C62.1349 18.88 61.7749 18.832 61.4509 18.748ZM69.7825 16H68.3185V10.072H69.6745L69.7945 10.84C70.1665 10.24 70.8865 9.892 71.6905 9.892C73.1785 9.892 73.9465 10.816 73.9465 12.352V16H72.4825V12.7C72.4825 11.704 71.9905 11.224 71.2345 11.224C70.3345 11.224 69.7825 11.848 69.7825 12.808V16ZM75.0369 13.024C75.0369 11.176 76.3689 9.904 78.2049 9.904C80.0409 9.904 81.3729 11.176 81.3729 13.024C81.3729 14.872 80.0409 16.144 78.2049 16.144C76.3689 16.144 75.0369 14.872 75.0369 13.024ZM76.5009 13.024C76.5009 14.104 77.1969 14.836 78.2049 14.836C79.2129 14.836 79.9089 14.104 79.9089 13.024C79.9089 11.944 79.2129 11.212 78.2049 11.212C77.1969 11.212 76.5009 11.944 76.5009 13.024ZM84.4908 16H83.0268V11.296H81.8868V10.072H83.0268V8.224H84.4908V10.072H85.6428V11.296H84.4908V16ZM89.1463 16.156C87.3823 16.156 86.1463 14.872 86.1463 13.036C86.1463 11.176 87.3583 9.892 89.0983 9.892C90.8743 9.892 92.0023 11.08 92.0023 12.928V13.372L87.5383 13.384C87.6463 14.428 88.1983 14.956 89.1703 14.956C89.9743 14.956 90.5023 14.644 90.6703 14.08H92.0263C91.7743 15.376 90.6943 16.156 89.1463 16.156ZM89.1103 11.092C88.2463 11.092 87.7183 11.56 87.5743 12.448H90.5503C90.5503 11.632 89.9863 11.092 89.1103 11.092Z" fill="black"/>
</svg>
