<svg width="148" height="24" viewBox="0 0 148 24" fill="none" xmlns="http://www.w3.org/2000/svg">
<path d="M15.9597 10.8301H12.8997L12.1396 13.1201H14.4296C15.2696 13.1201 15.9597 13.8001 15.9597 14.6501C15.9597 15.4901 15.2796 16.1801 14.4296 16.1801H12.1396" stroke="#1A1A1A" stroke-width="1.5" stroke-linecap="round" stroke-linejoin="round"/>
<path d="M9.54004 16.17V10.8301L8.04004 12.5001" stroke="#1A1A1A" stroke-width="1.5" stroke-linecap="round" stroke-linejoin="round"/>
<path d="M13.98 4.46997L12 2" stroke="#1A1A1A" stroke-width="1.5" stroke-linecap="round" stroke-linejoin="round"/>
<path d="M19.0904 7.79999C20.2004 9.27999 20.8904 11.11 20.8904 13.11C20.8904 18.02 16.9104 22 12.0004 22C7.09037 22 3.11035 18.02 3.11035 13.11C3.11035 8.19999 7.09037 4.21997 12.0004 4.21997C12.6804 4.21997 13.3403 4.31002 13.9803 4.46002" stroke="#1A1A1A" stroke-width="1.5" stroke-linecap="round" stroke-linejoin="round"/>
<path d="M39.772 13.412H36.508V17H34.972V8.228H40.396V9.644H36.508V12.032H39.772V13.412ZM40.7596 14.024C40.7596 12.176 42.0916 10.904 43.9276 10.904C45.7636 10.904 47.0956 12.176 47.0956 14.024C47.0956 15.872 45.7636 17.144 43.9276 17.144C42.0916 17.144 40.7596 15.872 40.7596 14.024ZM42.2236 14.024C42.2236 15.104 42.9196 15.836 43.9276 15.836C44.9356 15.836 45.6316 15.104 45.6316 14.024C45.6316 12.944 44.9356 12.212 43.9276 12.212C42.9196 12.212 42.2236 12.944 42.2236 14.024ZM51.976 11.048V12.404H51.436C50.38 12.404 49.72 12.968 49.72 14.12V17H48.256V11.084H49.636L49.72 11.948C49.972 11.36 50.536 10.964 51.328 10.964C51.532 10.964 51.736 10.988 51.976 11.048ZM54.4507 17L52.5307 11.072H54.0547L54.8347 13.616C54.9667 14.084 55.0867 14.6 55.1947 15.152C55.3027 14.576 55.4107 14.204 55.6027 13.616L56.4187 11.072H57.9067L58.6987 13.616C58.7707 13.856 59.0107 14.744 59.0827 15.14C59.1787 14.696 59.3707 13.988 59.4787 13.616L60.2707 11.072H61.8187L59.7667 17H58.3987L57.5827 14.432C57.3427 13.652 57.2107 13.088 57.1627 12.788C57.1027 13.064 56.9947 13.484 56.6947 14.456L55.8787 17H54.4507ZM64.1763 17.156C62.9163 17.156 62.1483 16.424 62.1483 15.308C62.1483 14.216 62.9403 13.532 64.3443 13.424L66.1203 13.292V13.16C66.1203 12.356 65.6403 12.032 64.8963 12.032C64.0323 12.032 63.5523 12.392 63.5523 13.016H62.3043C62.3043 11.732 63.3603 10.892 64.9683 10.892C66.5643 10.892 67.5483 11.756 67.5483 13.4V17H66.2643L66.1563 16.124C65.9043 16.736 65.1003 17.156 64.1763 17.156ZM64.6562 16.052C65.5563 16.052 66.1323 15.512 66.1323 14.6V14.288L64.8963 14.384C63.9843 14.468 63.6363 14.768 63.6363 15.248C63.6363 15.788 63.9963 16.052 64.6562 16.052ZM72.7065 11.048V12.404H72.1665C71.1105 12.404 70.4505 12.968 70.4505 14.12V17H68.9865V11.084H70.3665L70.4505 11.948C70.7025 11.36 71.2665 10.964 72.0585 10.964C72.2625 10.964 72.4665 10.988 72.7065 11.048ZM75.9342 17.156C74.2182 17.156 73.1502 15.896 73.1502 14.06C73.1502 12.212 74.2302 10.892 76.0182 10.892C76.8462 10.892 77.5782 11.24 77.9502 11.828V8.072H79.4022V17H78.0582L77.9622 16.076C77.6022 16.76 76.8342 17.156 75.9342 17.156ZM76.2582 15.812C77.2782 15.812 77.9382 15.08 77.9382 14.012C77.9382 12.944 77.2782 12.2 76.2582 12.2C75.2382 12.2 74.6142 12.956 74.6142 14.012C74.6142 15.068 75.2382 15.812 76.2582 15.812ZM80.9159 14.444V13.148H84.7799V14.444H80.9159ZM86.9882 9.608H85.0682V8.228H88.4642V17H86.9882V9.608ZM92.8994 17.144C91.0634 17.144 89.8514 15.968 89.8514 14.192H91.3754C91.3754 15.188 91.9634 15.776 92.9354 15.776C93.9674 15.776 94.6274 15.104 94.6274 14.036C94.6274 13.016 94.0154 12.32 92.9594 12.32C92.2874 12.32 91.6754 12.656 91.3634 13.112L90.0074 12.824L91.0874 8.228H95.6594V9.644H92.1914L91.7234 11.468C92.1434 11.192 92.6714 11.036 93.2714 11.036C95.0234 11.036 96.1874 12.224 96.1874 13.952C96.1874 15.848 94.8554 17.144 92.8994 17.144ZM97.2987 14.444V13.148H101.163V14.444H97.2987ZM102.116 15.2H103.508C103.52 15.716 103.904 16.04 104.576 16.04C105.26 16.04 105.632 15.764 105.632 15.332C105.632 15.032 105.476 14.816 104.948 14.696L103.88 14.444C102.812 14.204 102.296 13.7 102.296 12.752C102.296 11.588 103.28 10.892 104.648 10.892C105.98 10.892 106.88 11.66 106.892 12.812H105.5C105.488 12.308 105.152 11.984 104.588 11.984C104.012 11.984 103.676 12.248 103.676 12.692C103.676 13.028 103.94 13.244 104.444 13.364L105.512 13.616C106.508 13.844 107.012 14.3 107.012 15.212C107.012 16.412 105.992 17.156 104.528 17.156C103.052 17.156 102.116 16.364 102.116 15.2ZM110.779 17.156C109.015 17.156 107.779 15.872 107.779 14.036C107.779 12.176 108.991 10.892 110.731 10.892C112.507 10.892 113.635 12.08 113.635 13.928V14.372L109.171 14.384C109.279 15.428 109.831 15.956 110.803 15.956C111.607 15.956 112.135 15.644 112.303 15.08H113.659C113.407 16.376 112.327 17.156 110.779 17.156ZM110.743 12.092C109.879 12.092 109.351 12.56 109.207 13.448H112.183C112.183 12.632 111.619 12.092 110.743 12.092ZM114.459 14.024C114.459 12.188 115.671 10.892 117.423 10.892C119.043 10.892 120.147 11.792 120.303 13.22H118.839C118.671 12.548 118.179 12.2 117.483 12.2C116.547 12.2 115.923 12.908 115.923 14.024C115.923 15.14 116.499 15.836 117.435 15.836C118.167 15.836 118.683 15.476 118.839 14.828H120.315C120.135 16.208 118.983 17.156 117.435 17.156C115.635 17.156 114.459 15.908 114.459 14.024ZM121.056 14.024C121.056 12.176 122.388 10.904 124.224 10.904C126.06 10.904 127.392 12.176 127.392 14.024C127.392 15.872 126.06 17.144 124.224 17.144C122.388 17.144 121.056 15.872 121.056 14.024ZM122.52 14.024C122.52 15.104 123.216 15.836 124.224 15.836C125.232 15.836 125.928 15.104 125.928 14.024C125.928 12.944 125.232 12.212 124.224 12.212C123.216 12.212 122.52 12.944 122.52 14.024ZM130.017 17H128.553V11.072H129.909L130.029 11.84C130.401 11.24 131.121 10.892 131.925 10.892C133.413 10.892 134.181 11.816 134.181 13.352V17H132.717V13.7C132.717 12.704 132.225 12.224 131.469 12.224C130.569 12.224 130.017 12.848 130.017 13.808V17ZM138.055 17.156C136.339 17.156 135.271 15.896 135.271 14.06C135.271 12.212 136.351 10.892 138.139 10.892C138.967 10.892 139.699 11.24 140.071 11.828V8.072H141.523V17H140.179L140.083 16.076C139.723 16.76 138.955 17.156 138.055 17.156ZM138.379 15.812C139.399 15.812 140.059 15.08 140.059 14.012C140.059 12.944 139.399 12.2 138.379 12.2C137.359 12.2 136.735 12.956 136.735 14.012C136.735 15.068 137.359 15.812 138.379 15.812ZM142.593 15.2H143.985C143.997 15.716 144.381 16.04 145.053 16.04C145.737 16.04 146.109 15.764 146.109 15.332C146.109 15.032 145.953 14.816 145.425 14.696L144.357 14.444C143.289 14.204 142.773 13.7 142.773 12.752C142.773 11.588 143.757 10.892 145.125 10.892C146.457 10.892 147.357 11.66 147.369 12.812H145.977C145.965 12.308 145.629 11.984 145.065 11.984C144.489 11.984 144.153 12.248 144.153 12.692C144.153 13.028 144.417 13.244 144.921 13.364L145.989 13.616C146.985 13.844 147.489 14.3 147.489 15.212C147.489 16.412 146.469 17.156 145.005 17.156C143.529 17.156 142.593 16.364 142.593 15.2Z" fill="black"/>
</svg>
