<svg width="145" height="24" viewBox="0 0 145 24" fill="none" xmlns="http://www.w3.org/2000/svg">
<path d="M20 8.25V18C20 21 18.21 22 16 22H8C5.79 22 4 21 4 18V8.25C4 5 5.79 4.25 8 4.25C8 4.87 8.24997 5.43 8.65997 5.84C9.06997 6.25 9.63 6.5 10.25 6.5H13.75C14.99 6.5 16 5.49 16 4.25C18.21 4.25 20 5 20 8.25Z" stroke="#1A1A1A" stroke-width="1.5" stroke-linecap="round" stroke-linejoin="round"/>
<path d="M16 4.25C16 5.49 14.99 6.5 13.75 6.5H10.25C9.63 6.5 9.06997 6.25 8.65997 5.84C8.24997 5.43 8 4.87 8 4.25C8 3.01 9.01 2 10.25 2H13.75C14.37 2 14.93 2.25 15.34 2.66C15.75 3.07 16 3.63 16 4.25Z" stroke="#1A1A1A" stroke-width="1.5" stroke-linecap="round" stroke-linejoin="round"/>
<path d="M8 13H12" stroke="#1A1A1A" stroke-width="1.5" stroke-linecap="round" stroke-linejoin="round"/>
<path d="M8 17H16" stroke="#1A1A1A" stroke-width="1.5" stroke-linecap="round" stroke-linejoin="round"/>
<path d="M36.484 16H34.972V7.228H36.496L40.612 13.444V7.228H42.124V16H40.612L36.484 9.784V16ZM43.5018 13.024C43.5018 11.176 44.8338 9.904 46.6698 9.904C48.5058 9.904 49.8378 11.176 49.8378 13.024C49.8378 14.872 48.5058 16.144 46.6698 16.144C44.8338 16.144 43.5018 14.872 43.5018 13.024ZM44.9658 13.024C44.9658 14.104 45.6618 14.836 46.6698 14.836C47.6778 14.836 48.3738 14.104 48.3738 13.024C48.3738 11.944 47.6778 11.212 46.6698 11.212C45.6618 11.212 44.9658 11.944 44.9658 13.024ZM52.9556 16H51.4916V11.296H50.3516V10.072H51.4916V8.224H52.9556V10.072H54.1076V11.296H52.9556V16ZM57.6111 16.156C55.8471 16.156 54.6111 14.872 54.6111 13.036C54.6111 11.176 55.8231 9.892 57.5631 9.892C59.3391 9.892 60.4671 11.08 60.4671 12.928V13.372L56.0031 13.384C56.1111 14.428 56.6631 14.956 57.6351 14.956C58.4391 14.956 58.9671 14.644 59.1351 14.08H60.4911C60.2391 15.376 59.1591 16.156 57.6111 16.156ZM57.5751 11.092C56.7111 11.092 56.1831 11.56 56.0391 12.448H59.0151C59.0151 11.632 58.4511 11.092 57.5751 11.092Z" fill="black"/>
</svg>
