<svg width="108" height="24" viewBox="0 0 108 24" fill="none" xmlns="http://www.w3.org/2000/svg">
<path d="M16.2996 15.3001C15.2996 16.6001 13.6996 17.5001 11.9996 17.5001C8.99961 17.5001 6.59961 15.1001 6.59961 12.1001C6.59961 9.1001 8.99961 6.6001 11.9996 6.6001C13.1996 6.6001 14.3996 7.0001 15.2996 7.7001" stroke="#1A1A1A" stroke-width="1.5" stroke-miterlimit="10" stroke-linecap="round" stroke-linejoin="round"/>
<path d="M17.4002 11.4C18.0629 11.4 18.6002 10.8627 18.6002 10.2C18.6002 9.53726 18.0629 9 17.4002 9C16.7375 9 16.2002 9.53726 16.2002 10.2C16.2002 10.8627 16.7375 11.4 17.4002 11.4Z" stroke="#1A1A1A" stroke-width="1.5" stroke-miterlimit="10" stroke-linecap="round" stroke-linejoin="round"/>
<path d="M12 22C17.5228 22 22 17.5228 22 12C22 6.47715 17.5228 2 12 2C6.47715 2 2 6.47715 2 12C2 17.5228 6.47715 22 12 22Z" stroke="#1A1A1A" stroke-width="1.5" stroke-miterlimit="10" stroke-linecap="round" stroke-linejoin="round"/>
<path d="M38.68 17.144C36.124 17.144 34.468 15.368 34.468 12.62C34.468 9.896 36.184 8.084 38.752 8.084C40.828 8.084 42.376 9.296 42.676 11.18H41.056C40.756 10.16 39.88 9.56 38.716 9.56C37.096 9.56 36.076 10.736 36.076 12.608C36.076 14.468 37.108 15.668 38.716 15.668C39.904 15.668 40.816 15.044 41.104 14.072H42.7C42.364 15.92 40.756 17.144 38.68 17.144ZM46.5135 17.156C44.7495 17.156 43.5135 15.872 43.5135 14.036C43.5135 12.176 44.7255 10.892 46.4655 10.892C48.2415 10.892 49.3695 12.08 49.3695 13.928V14.372L44.9055 14.384C45.0135 15.428 45.5655 15.956 46.5375 15.956C47.3415 15.956 47.8695 15.644 48.0375 15.08H49.3935C49.1415 16.376 48.0615 17.156 46.5135 17.156ZM46.4775 12.092C45.6135 12.092 45.0855 12.56 44.9415 13.448H47.9175C47.9175 12.632 47.3535 12.092 46.4775 12.092ZM52.0172 17H50.5652V8.072H52.0172V17ZM53.0969 15.2H54.4889C54.5009 15.716 54.8849 16.04 55.5569 16.04C56.2409 16.04 56.6129 15.764 56.6129 15.332C56.6129 15.032 56.4569 14.816 55.9289 14.696L54.8609 14.444C53.7929 14.204 53.2769 13.7 53.2769 12.752C53.2769 11.588 54.2609 10.892 55.6289 10.892C56.9609 10.892 57.8609 11.66 57.8729 12.812H56.4809C56.4689 12.308 56.1329 11.984 55.5689 11.984C54.9929 11.984 54.6569 12.248 54.6569 12.692C54.6569 13.028 54.9209 13.244 55.4249 13.364L56.4929 13.616C57.4889 13.844 57.9929 14.3 57.9929 15.212C57.9929 16.412 56.9729 17.156 55.5089 17.156C54.0329 17.156 53.0969 16.364 53.0969 15.2ZM59.8396 9.884C59.3356 9.884 58.9396 9.488 58.9396 8.996C58.9396 8.504 59.3356 8.12 59.8396 8.12C60.3196 8.12 60.7156 8.504 60.7156 8.996C60.7156 9.488 60.3196 9.884 59.8396 9.884ZM59.1076 17V11.072H60.5716V17H59.1076ZM65.7408 11.072H67.2048V17H65.8488L65.7408 16.208C65.3808 16.772 64.6128 17.156 63.8208 17.156C62.4528 17.156 61.6488 16.232 61.6488 14.78V11.072H63.1128V14.264C63.1128 15.392 63.5568 15.848 64.3728 15.848C65.2968 15.848 65.7408 15.308 65.7408 14.18V11.072ZM68.1438 15.2H69.5358C69.5478 15.716 69.9318 16.04 70.6038 16.04C71.2878 16.04 71.6598 15.764 71.6598 15.332C71.6598 15.032 71.5038 14.816 70.9758 14.696L69.9078 14.444C68.8398 14.204 68.3238 13.7 68.3238 12.752C68.3238 11.588 69.3078 10.892 70.6758 10.892C72.0078 10.892 72.9078 11.66 72.9198 12.812H71.5278C71.5158 12.308 71.1798 11.984 70.6158 11.984C70.0398 11.984 69.7038 12.248 69.7038 12.692C69.7038 13.028 69.9678 13.244 70.4718 13.364L71.5398 13.616C72.5358 13.844 73.0398 14.3 73.0398 15.212C73.0398 16.412 72.0198 17.156 70.5558 17.156C69.0798 17.156 68.1438 16.364 68.1438 15.2ZM73.9901 14.444V13.148H77.8541V14.444H73.9901ZM82.2858 19.292H81.1218C79.9218 17.924 79.1298 15.776 79.1298 13.472C79.1298 11.372 79.8018 9.164 81.1218 7.664H82.2858C81.2898 9.02 80.6058 11.144 80.6058 13.472C80.6058 15.596 81.1938 17.804 82.2858 19.292ZM82.6893 14.024C82.6893 12.188 83.9013 10.892 85.6533 10.892C87.2733 10.892 88.3773 11.792 88.5333 13.22H87.0693C86.9013 12.548 86.4093 12.2 85.7133 12.2C84.7773 12.2 84.1533 12.908 84.1533 14.024C84.1533 15.14 84.7293 15.836 85.6653 15.836C86.3973 15.836 86.9133 15.476 87.0693 14.828H88.5453C88.3653 16.208 87.2133 17.156 85.6653 17.156C83.8652 17.156 82.6893 15.908 82.6893 14.024ZM92.2869 17.156C90.5229 17.156 89.2869 15.872 89.2869 14.036C89.2869 12.176 90.4989 10.892 92.2389 10.892C94.0149 10.892 95.1429 12.08 95.1429 13.928V14.372L90.6789 14.384C90.7869 15.428 91.3389 15.956 92.3109 15.956C93.1149 15.956 93.6429 15.644 93.8109 15.08H95.1669C94.9149 16.376 93.8349 17.156 92.2869 17.156ZM92.2509 12.092C91.3869 12.092 90.8589 12.56 90.7149 13.448H93.6909C93.6909 12.632 93.1269 12.092 92.2509 12.092ZM97.7906 17H96.3386V8.072H97.7906V17ZM99.7343 19.292H98.5703C99.6743 17.804 100.25 15.596 100.25 13.472C100.25 11.144 99.5663 9.02 98.5703 7.664H99.7343C101.054 9.164 101.738 11.372 101.738 13.472C101.738 15.776 100.934 17.924 99.7343 19.292ZM103.006 14.444V13.148H106.87V14.444H103.006Z" fill="black"/>
</svg>
