<svg width="101" height="24" viewBox="0 0 101 24" fill="none" xmlns="http://www.w3.org/2000/svg">
<path d="M8.96973 22H14.9697C19.9697 22 21.9697 20 21.9697 15V9C21.9697 4 19.9697 2 14.9697 2H8.96973C3.96973 2 1.96973 4 1.96973 9V15C1.96973 20 3.96973 22 8.96973 22Z" stroke="#1A1A1A" stroke-width="1.5" stroke-linecap="round" stroke-linejoin="round"/>
<path d="M1.96973 12.7001L7.96973 12.6801C8.71973 12.6801 9.55973 13.2501 9.83973 13.9501L10.9797 16.8301C11.2397 17.4801 11.6497 17.4801 11.9097 16.8301L14.1997 11.0201C14.4197 10.4601 14.8297 10.4401 15.1097 10.9701L16.1497 12.9401C16.4597 13.5301 17.2597 14.0101 17.9197 14.0101H21.9797" stroke="#1A1A1A" stroke-width="1.5" stroke-linecap="round" stroke-linejoin="round"/>
<path d="M36.508 16H34.972V7.228H36.508V10.852H40.396V7.228H41.932V16H40.396V12.28H36.508V16ZM46.3143 16.156C44.5503 16.156 43.3143 14.872 43.3143 13.036C43.3143 11.176 44.5263 9.892 46.2663 9.892C48.0423 9.892 49.1703 11.08 49.1703 12.928V13.372L44.7063 13.384C44.8143 14.428 45.3663 14.956 46.3383 14.956C47.1423 14.956 47.6703 14.644 47.8383 14.08H49.1943C48.9423 15.376 47.8623 16.156 46.3143 16.156ZM46.2783 11.092C45.4143 11.092 44.8863 11.56 44.7423 12.448H47.7183C47.7183 11.632 47.1543 11.092 46.2783 11.092ZM52.0473 16.156C50.7873 16.156 50.0193 15.424 50.0193 14.308C50.0193 13.216 50.8113 12.532 52.2153 12.424L53.9913 12.292V12.16C53.9913 11.356 53.5113 11.032 52.7673 11.032C51.9033 11.032 51.4233 11.392 51.4233 12.016H50.1753C50.1753 10.732 51.2313 9.892 52.8393 9.892C54.4353 9.892 55.4193 10.756 55.4193 12.4V16H54.1353L54.0273 15.124C53.7753 15.736 52.9713 16.156 52.0473 16.156ZM52.5273 15.052C53.4273 15.052 54.0033 14.512 54.0033 13.6V13.288L52.7673 13.384C51.8553 13.468 51.5073 13.768 51.5073 14.248C51.5073 14.788 51.8673 15.052 52.5273 15.052ZM58.3336 16H56.8816V7.072H58.3336V16ZM61.8853 16H60.4213V11.296H59.2813V10.072H60.4213V8.224H61.8853V10.072H63.0373V11.296H61.8853V16ZM65.4114 16H63.9474V7.072H65.4234V10.84C65.7954 10.264 66.4914 9.892 67.3434 9.892C68.8074 9.892 69.5754 10.816 69.5754 12.352V16H68.1114V12.7C68.1114 11.704 67.6194 11.224 66.8754 11.224C65.9514 11.224 65.4114 11.872 65.4114 12.76V16Z" fill="black"/>
</svg>
