<svg width="101" height="24" viewBox="0 0 101 24" fill="none" xmlns="http://www.w3.org/2000/svg">
<path d="M9 10C10.1046 10 11 9.10457 11 8C11 6.89543 10.1046 6 9 6C7.89543 6 7 6.89543 7 8C7 9.10457 7.89543 10 9 10Z" stroke="#1A1A1A" stroke-width="1.5" stroke-linecap="round" stroke-linejoin="round"/>
<path d="M13 2H9C4 2 2 4 2 9V15C2 20 4 22 9 22H15C20 22 22 20 22 15V10" stroke="#1A1A1A" stroke-width="1.5" stroke-linecap="round" stroke-linejoin="round"/>
<path d="M19.1399 2.58991L15.5099 6.21991C15.3699 6.35991 15.2299 6.62991 15.2099 6.82991L15.0099 8.21991C14.9399 8.71991 15.2899 9.06991 15.7899 8.99991L17.1799 8.79991C17.3699 8.76991 17.6499 8.63991 17.7899 8.49991L21.4199 4.86991C22.0499 4.23991 22.3399 3.51991 21.4199 2.59991C20.4899 1.65991 19.7699 1.95991 19.1399 2.58991Z" stroke="#1A1A1A" stroke-width="1.5" stroke-miterlimit="10" stroke-linecap="round" stroke-linejoin="round"/>
<path d="M18.6201 3.11011C18.9301 4.21011 19.7901 5.07011 20.8901 5.38011" stroke="#1A1A1A" stroke-width="1.5" stroke-miterlimit="10" stroke-linecap="round" stroke-linejoin="round"/>
<path d="M2.66992 18.9501L7.59992 15.6401C8.38992 15.1101 9.52992 15.1701 10.2399 15.7801L10.5699 16.0701C11.3499 16.7401 12.6099 16.7401 13.3899 16.0701L17.5499 12.5001C18.3299 11.8301 19.5899 11.8301 20.3699 12.5001L21.9999 13.9001" stroke="#1A1A1A" stroke-width="1.5" stroke-linecap="round" stroke-linejoin="round"/>
<path d="M38.812 8.524C37.072 8.524 36.076 9.784 36.076 11.68C36.076 13.636 37.204 14.704 38.824 14.704C40.348 14.704 41.272 13.864 41.272 12.46V12.424H38.62V11.068H42.7V16H41.404L41.308 14.992C40.828 15.664 39.832 16.132 38.644 16.132C36.184 16.132 34.468 14.344 34.468 11.644C34.468 8.98 36.208 7.084 38.848 7.084C40.852 7.084 42.4 8.248 42.652 10.036H41.032C40.756 9.004 39.868 8.524 38.812 8.524ZM45.9067 16.156C44.6467 16.156 43.8787 15.424 43.8787 14.308C43.8787 13.216 44.6707 12.532 46.0747 12.424L47.8507 12.292V12.16C47.8507 11.356 47.3707 11.032 46.6267 11.032C45.7627 11.032 45.2827 11.392 45.2827 12.016H44.0347C44.0347 10.732 45.0907 9.892 46.6987 9.892C48.2947 9.892 49.2787 10.756 49.2787 12.4V16H47.9947L47.8867 15.124C47.6347 15.736 46.8307 16.156 45.9067 16.156ZM46.3867 15.052C47.2867 15.052 47.8627 14.512 47.8627 13.6V13.288L46.6267 13.384C45.7147 13.468 45.3667 13.768 45.3667 14.248C45.3667 14.788 45.7267 15.052 46.3867 15.052ZM52.1929 16H50.7409V7.072H52.1929V16ZM55.2047 16H53.7527V7.072H55.2047V16ZM59.3924 16.156C57.6284 16.156 56.3924 14.872 56.3924 13.036C56.3924 11.176 57.6044 9.892 59.3444 9.892C61.1204 9.892 62.2484 11.08 62.2484 12.928V13.372L57.7844 13.384C57.8924 14.428 58.4444 14.956 59.4164 14.956C60.2204 14.956 60.7484 14.644 60.9164 14.08H62.2724C62.0204 15.376 60.9404 16.156 59.3924 16.156ZM59.3564 11.092C58.4924 11.092 57.9644 11.56 57.8204 12.448H60.7964C60.7964 11.632 60.2324 11.092 59.3564 11.092ZM67.1401 10.048V11.404H66.6001C65.5441 11.404 64.8841 11.968 64.8841 13.12V16H63.4201V10.084H64.8001L64.8841 10.948C65.1361 10.36 65.7001 9.964 66.4921 9.964C66.6961 9.964 66.9001 9.988 67.1401 10.048ZM67.7908 18.748V17.524H68.6668C69.2428 17.524 69.6028 17.392 69.8548 16.696L70.0228 16.252L67.6348 10.072H69.1828L70.7068 14.392L72.3148 10.072H73.8268L70.9228 17.32C70.4788 18.424 69.8548 18.88 68.8828 18.88C68.4748 18.88 68.1148 18.832 67.7908 18.748ZM74.2362 13.444V12.148H78.1002V13.444H74.2362ZM82.2439 16.156C80.4799 16.156 79.2439 14.872 79.2439 13.036C79.2439 11.176 80.4559 9.892 82.1959 9.892C83.9719 9.892 85.0999 11.08 85.0999 12.928V13.372L80.6359 13.384C80.7439 14.428 81.2959 14.956 82.2679 14.956C83.0719 14.956 83.5999 14.644 83.7679 14.08H85.1239C84.8719 15.376 83.7919 16.156 82.2439 16.156ZM82.2079 11.092C81.3439 11.092 80.8159 11.56 80.6719 12.448H83.6479C83.6479 11.632 83.0839 11.092 82.2079 11.092ZM88.7076 16.156C86.9916 16.156 85.9236 14.896 85.9236 13.06C85.9236 11.212 87.0036 9.892 88.7916 9.892C89.6196 9.892 90.3516 10.24 90.7236 10.828V7.072H92.1756V16H90.8316L90.7356 15.076C90.3756 15.76 89.6076 16.156 88.7076 16.156ZM89.0316 14.812C90.0516 14.812 90.7116 14.08 90.7116 13.012C90.7116 11.944 90.0516 11.2 89.0316 11.2C88.0116 11.2 87.3876 11.956 87.3876 13.012C87.3876 14.068 88.0116 14.812 89.0316 14.812ZM94.4333 8.884C93.9293 8.884 93.5333 8.488 93.5333 7.996C93.5333 7.504 93.9293 7.12 94.4333 7.12C94.9133 7.12 95.3093 7.504 95.3093 7.996C95.3093 8.488 94.9133 8.884 94.4333 8.884ZM93.7013 16V10.072H95.1653V16H93.7013ZM98.6939 16H97.2299V11.296H96.0899V10.072H97.2299V8.224H98.6939V10.072H99.8459V11.296H98.6939V16Z" fill="black"/>
</svg>
