<svg width="122" height="24" viewBox="0 0 122 24" fill="none" xmlns="http://www.w3.org/2000/svg">
<path d="M5.4796 18.4901V15.5701C5.4796 14.6001 6.2396 13.73 7.3196 13.73C8.2896 13.73 9.15959 14.4901 9.15959 15.5701V18.3801C9.15959 20.3301 7.53959 21.9501 5.58959 21.9501C3.63959 21.9501 2.01958 20.3201 2.01958 18.3801V12.22C1.90958 6.60003 6.34959 2.05005 11.9696 2.05005C17.5896 2.05005 22.0196 6.60005 22.0196 12.11V18.2701C22.0196 20.2201 20.3996 21.8401 18.4496 21.8401C16.4996 21.8401 14.8796 20.2201 14.8796 18.2701V15.4601C14.8796 14.4901 15.6396 13.6201 16.7196 13.6201C17.6896 13.6201 18.5596 14.3801 18.5596 15.4601V18.4901" stroke="#1A1A1A" stroke-width="1.5" stroke-linecap="round" stroke-linejoin="round"/>
<path d="M15.5309 9.11999H14.7209C14.5009 9.11999 14.2909 9.25 14.1909 9.44L13.4409 10.94C13.3309 11.16 13.0209 11.16 12.9109 10.94L11.071 7.27002C10.961 7.06002 10.6609 7.05001 10.5509 7.26001L9.71094 8.80999C9.61094 8.99999 9.41095 9.11999 9.19095 9.11999H8.46094" stroke="#1A1A1A" stroke-width="1.5" stroke-linecap="round" stroke-linejoin="round"/>
<path d="M36.46 16H34.972V7.228H36.46L39.292 14.212L42.124 7.228H43.636V16H42.148V13.3C42.148 11.536 42.148 11.02 42.232 10.396L40 16H38.584L36.364 10.408C36.448 10.936 36.46 11.764 36.46 12.856V16ZM49.3815 10.072H50.8455V16H49.4895L49.3815 15.208C49.0215 15.772 48.2535 16.156 47.4615 16.156C46.0935 16.156 45.2895 15.232 45.2895 13.78V10.072H46.7535V13.264C46.7535 14.392 47.1975 14.848 48.0135 14.848C48.9375 14.848 49.3815 14.308 49.3815 13.18V10.072ZM51.7844 14.2H53.1764C53.1884 14.716 53.5724 15.04 54.2444 15.04C54.9284 15.04 55.3004 14.764 55.3004 14.332C55.3004 14.032 55.1444 13.816 54.6164 13.696L53.5484 13.444C52.4804 13.204 51.9644 12.7 51.9644 11.752C51.9644 10.588 52.9484 9.892 54.3164 9.892C55.6484 9.892 56.5484 10.66 56.5604 11.812H55.1684C55.1564 11.308 54.8204 10.984 54.2564 10.984C53.6804 10.984 53.3444 11.248 53.3444 11.692C53.3444 12.028 53.6084 12.244 54.1124 12.364L55.1804 12.616C56.1764 12.844 56.6804 13.3 56.6804 14.212C56.6804 15.412 55.6604 16.156 54.1964 16.156C52.7204 16.156 51.7844 15.364 51.7844 14.2ZM58.5271 8.884C58.0231 8.884 57.6271 8.488 57.6271 7.996C57.6271 7.504 58.0231 7.12 58.5271 7.12C59.0071 7.12 59.4031 7.504 59.4031 7.996C59.4031 8.488 59.0071 8.884 58.5271 8.884ZM57.7951 16V10.072H59.2591V16H57.7951ZM60.4236 13.024C60.4236 11.188 61.6356 9.892 63.3876 9.892C65.0076 9.892 66.1116 10.792 66.2676 12.22H64.8036C64.6356 11.548 64.1436 11.2 63.4476 11.2C62.5116 11.2 61.8876 11.908 61.8876 13.024C61.8876 14.14 62.4636 14.836 63.3996 14.836C64.1316 14.836 64.6476 14.476 64.8036 13.828H66.2796C66.0996 15.208 64.9476 16.156 63.3996 16.156C61.5996 16.156 60.4236 14.908 60.4236 13.024ZM67.287 13.444V12.148H71.151V13.444H67.287ZM72.6427 18.748V10.072H73.9987L74.0947 10.972C74.4547 10.288 75.2347 9.892 76.1347 9.892C77.8027 9.892 78.9067 11.104 78.9067 12.964C78.9067 14.812 77.8987 16.156 76.1347 16.156C75.2467 16.156 74.4787 15.808 74.1067 15.208V18.748H72.6427ZM74.1187 13.036C74.1187 14.104 74.7787 14.836 75.7867 14.836C76.8187 14.836 77.4307 14.092 77.4307 13.036C77.4307 11.98 76.8187 11.224 75.7867 11.224C74.7787 11.224 74.1187 11.968 74.1187 13.036ZM81.5484 16H80.0964V7.072H81.5484V16ZM84.8481 16.156C83.5881 16.156 82.8201 15.424 82.8201 14.308C82.8201 13.216 83.6121 12.532 85.0161 12.424L86.7921 12.292V12.16C86.7921 11.356 86.3121 11.032 85.5681 11.032C84.7041 11.032 84.2241 11.392 84.2241 12.016H82.9761C82.9761 10.732 84.0321 9.892 85.6401 9.892C87.2361 9.892 88.2201 10.756 88.2201 12.4V16H86.9361L86.8281 15.124C86.5761 15.736 85.7721 16.156 84.8481 16.156ZM85.3281 15.052C86.2281 15.052 86.8041 14.512 86.8041 13.6V13.288L85.5681 13.384C84.6561 13.468 84.3081 13.768 84.3081 14.248C84.3081 14.788 84.6681 15.052 85.3281 15.052ZM88.9783 18.748V17.524H89.8543C90.4303 17.524 90.7903 17.392 91.0423 16.696L91.2103 16.252L88.8223 10.072H90.3703L91.8943 14.392L93.5023 10.072H95.0143L92.1103 17.32C91.6663 18.424 91.0423 18.88 90.0703 18.88C89.6623 18.88 89.3023 18.832 88.9783 18.748Z" fill="black"/>
</svg>
