<svg width="101" height="24" viewBox="0 0 101 24" fill="none" xmlns="http://www.w3.org/2000/svg">
<path d="M14.5299 9.46992L9.46992 14.5299C8.81992 13.8799 8.41992 12.9899 8.41992 11.9999C8.41992 10.0199 10.0199 8.41992 11.9999 8.41992C12.9899 8.41992 13.8799 8.81992 14.5299 9.46992Z" stroke="#1A1A1A" stroke-width="1.5" stroke-linecap="round" stroke-linejoin="round"/>
<path d="M17.8198 5.77047C16.0698 4.45047 14.0698 3.73047 11.9998 3.73047C8.46984 3.73047 5.17984 5.81047 2.88984 9.41047C1.98984 10.8205 1.98984 13.1905 2.88984 14.6005C3.67984 15.8405 4.59984 16.9105 5.59984 17.7705" stroke="#1A1A1A" stroke-width="1.5" stroke-linecap="round" stroke-linejoin="round"/>
<path d="M8.41992 19.5297C9.55992 20.0097 10.7699 20.2697 11.9999 20.2697C15.5299 20.2697 18.8199 18.1897 21.1099 14.5897C22.0099 13.1797 22.0099 10.8097 21.1099 9.39969C20.7799 8.87969 20.4199 8.38969 20.0499 7.92969" stroke="#1A1A1A" stroke-width="1.5" stroke-linecap="round" stroke-linejoin="round"/>
<path d="M15.5104 12.7002C15.2504 14.1102 14.1004 15.2602 12.6904 15.5202" stroke="#1A1A1A" stroke-width="1.5" stroke-linecap="round" stroke-linejoin="round"/>
<path d="M9.47 14.5303L2 22.0003" stroke="#1A1A1A" stroke-width="1.5" stroke-linecap="round" stroke-linejoin="round"/>
<path d="M22.0003 2L14.5303 9.47" stroke="#1A1A1A" stroke-width="1.5" stroke-linecap="round" stroke-linejoin="round"/>
<path d="M40.42 16H34.972V7.228H40.42V8.644H36.508V10.9H40.012V12.256H36.508V14.584H40.42V16ZM41.1892 18.748V17.524H42.0652C42.6412 17.524 43.0012 17.392 43.2532 16.696L43.4212 16.252L41.0332 10.072H42.5812L44.1052 14.392L45.7132 10.072H47.2252L44.3212 17.32C43.8772 18.424 43.2532 18.88 42.2812 18.88C41.8732 18.88 41.5132 18.832 41.1892 18.748ZM50.4393 16.156C48.6753 16.156 47.4393 14.872 47.4393 13.036C47.4393 11.176 48.6513 9.892 50.3913 9.892C52.1673 9.892 53.2953 11.08 53.2953 12.928V13.372L48.8313 13.384C48.9393 14.428 49.4913 14.956 50.4633 14.956C51.2673 14.956 51.7953 14.644 51.9633 14.08H53.3193C53.0673 15.376 51.9873 16.156 50.4393 16.156ZM50.4033 11.092C49.5393 11.092 49.0113 11.56 48.8673 12.448H51.8433C51.8433 11.632 51.2793 11.092 50.4033 11.092ZM54.4549 13.444V12.148H58.3189V13.444H54.4549ZM59.2727 14.2H60.6647C60.6767 14.716 61.0607 15.04 61.7327 15.04C62.4167 15.04 62.7887 14.764 62.7887 14.332C62.7887 14.032 62.6327 13.816 62.1047 13.696L61.0367 13.444C59.9687 13.204 59.4527 12.7 59.4527 11.752C59.4527 10.588 60.4367 9.892 61.8047 9.892C63.1367 9.892 64.0367 10.66 64.0487 11.812H62.6567C62.6447 11.308 62.3087 10.984 61.7447 10.984C61.1687 10.984 60.8327 11.248 60.8327 11.692C60.8327 12.028 61.0967 12.244 61.6007 12.364L62.6687 12.616C63.6647 12.844 64.1687 13.3 64.1687 14.212C64.1687 15.412 63.1487 16.156 61.6847 16.156C60.2087 16.156 59.2727 15.364 59.2727 14.2ZM66.7593 16H65.3073V7.072H66.7593V16ZM70.0591 16.156C68.7991 16.156 68.0311 15.424 68.0311 14.308C68.0311 13.216 68.8231 12.532 70.2271 12.424L72.0031 12.292V12.16C72.0031 11.356 71.5231 11.032 70.7791 11.032C69.9151 11.032 69.4351 11.392 69.4351 12.016H68.1871C68.1871 10.732 69.2431 9.892 70.8511 9.892C72.4471 9.892 73.4311 10.756 73.4311 12.4V16H72.1471L72.0391 15.124C71.7871 15.736 70.9831 16.156 70.0591 16.156ZM70.5391 15.052C71.4391 15.052 72.0151 14.512 72.0151 13.6V13.288L70.7791 13.384C69.8671 13.468 69.5191 13.768 69.5191 14.248C69.5191 14.788 69.8791 15.052 70.5391 15.052ZM74.4133 14.2H75.8053C75.8173 14.716 76.2013 15.04 76.8733 15.04C77.5573 15.04 77.9293 14.764 77.9293 14.332C77.9293 14.032 77.7733 13.816 77.2453 13.696L76.1773 13.444C75.1093 13.204 74.5933 12.7 74.5933 11.752C74.5933 10.588 75.5773 9.892 76.9453 9.892C78.2773 9.892 79.1773 10.66 79.1893 11.812H77.7973C77.7853 11.308 77.4493 10.984 76.8853 10.984C76.3093 10.984 75.9733 11.248 75.9733 11.692C75.9733 12.028 76.2373 12.244 76.7413 12.364L77.8093 12.616C78.8053 12.844 79.3093 13.3 79.3093 14.212C79.3093 15.412 78.2893 16.156 76.8253 16.156C75.3493 16.156 74.4133 15.364 74.4133 14.2ZM81.888 16H80.424V7.072H81.9V10.84C82.272 10.264 82.968 9.892 83.82 9.892C85.284 9.892 86.052 10.816 86.052 12.352V16H84.588V12.7C84.588 11.704 84.096 11.224 83.352 11.224C82.428 11.224 81.888 11.872 81.888 12.76V16Z" fill="black"/>
</svg>
