<svg width="121" height="24" viewBox="0 0 121 24" fill="none" xmlns="http://www.w3.org/2000/svg">
<path d="M22 6V8.42C22 10 21 11 19.42 11H16V4.01C16 2.9 16.91 2 18.02 2C19.11 2.01 20.11 2.45 20.83 3.17C21.55 3.9 22 4.9 22 6Z" stroke="#1A1A1A" stroke-width="1.5" stroke-miterlimit="10" stroke-linecap="round" stroke-linejoin="round"/>
<path d="M2 7V21C2 21.83 2.94 22.3 3.6 21.8L5.31 20.52C5.71 20.22 6.27 20.26 6.63 20.62L8.29 22.29C8.68 22.68 9.32 22.68 9.71 22.29L11.39 20.61C11.74 20.26 12.3 20.22 12.69 20.52L14.4 21.8C15.06 22.29 16 21.82 16 21V4C16 2.9 16.9 2 18 2H7H6C3 2 2 3.79 2 6V7Z" stroke="#1A1A1A" stroke-width="1.5" stroke-miterlimit="10" stroke-linecap="round" stroke-linejoin="round"/>
<path d="M9 13.01H12" stroke="#1A1A1A" stroke-width="1.5" stroke-linecap="round" stroke-linejoin="round"/>
<path d="M9 9.01001H12" stroke="#1A1A1A" stroke-width="1.5" stroke-linecap="round" stroke-linejoin="round"/>
<path d="M5.99609 13H6.00508" stroke="#1A1A1A" stroke-width="1.5" stroke-linecap="round" stroke-linejoin="round"/>
<path d="M5.99609 9H6.00508" stroke="#1A1A1A" stroke-width="1.5" stroke-linecap="round" stroke-linejoin="round"/>
<path d="M36.508 17H34.972V8.228H38.32C40.312 8.228 41.476 9.236 41.476 10.964C41.476 12.14 40.924 12.98 39.892 13.4L41.56 17H39.88L38.392 13.724H36.508V17ZM36.508 9.596V12.368H38.32C39.292 12.368 39.868 11.852 39.868 10.964C39.868 10.088 39.292 9.596 38.32 9.596H36.508ZM45.0252 17.156C43.2612 17.156 42.0252 15.872 42.0252 14.036C42.0252 12.176 43.2372 10.892 44.9772 10.892C46.7532 10.892 47.8812 12.08 47.8812 13.928V14.372L43.4172 14.384C43.5252 15.428 44.0772 15.956 45.0492 15.956C45.8532 15.956 46.3812 15.644 46.5492 15.08H47.9052C47.6532 16.376 46.5732 17.156 45.0252 17.156ZM44.9892 12.092C44.1252 12.092 43.5972 12.56 43.4532 13.448H46.4292C46.4292 12.632 45.8652 12.092 44.9892 12.092ZM48.7049 14.024C48.7049 12.188 49.9169 10.892 51.6689 10.892C53.2889 10.892 54.3929 11.792 54.5489 13.22H53.0849C52.9169 12.548 52.4249 12.2 51.7289 12.2C50.7929 12.2 50.1689 12.908 50.1689 14.024C50.1689 15.14 50.7449 15.836 51.6809 15.836C52.4129 15.836 52.9289 15.476 53.0849 14.828H54.5609C54.3809 16.208 53.2289 17.156 51.6809 17.156C49.8809 17.156 48.7049 15.908 48.7049 14.024ZM58.3025 17.156C56.5385 17.156 55.3025 15.872 55.3025 14.036C55.3025 12.176 56.5145 10.892 58.2545 10.892C60.0305 10.892 61.1585 12.08 61.1585 13.928V14.372L56.6945 14.384C56.8025 15.428 57.3545 15.956 58.3265 15.956C59.1305 15.956 59.6585 15.644 59.8265 15.08H61.1825C60.9305 16.376 59.8505 17.156 58.3025 17.156ZM58.2665 12.092C57.4025 12.092 56.8745 12.56 56.7305 13.448H59.7065C59.7065 12.632 59.1425 12.092 58.2665 12.092ZM63.0622 9.884C62.5582 9.884 62.1622 9.488 62.1622 8.996C62.1622 8.504 62.5582 8.12 63.0622 8.12C63.5422 8.12 63.9382 8.504 63.9382 8.996C63.9382 9.488 63.5422 9.884 63.0622 9.884ZM62.3302 17V11.072H63.7942V17H62.3302ZM65.3068 19.748V11.072H66.6628L66.7588 11.972C67.1188 11.288 67.8988 10.892 68.7988 10.892C70.4668 10.892 71.5708 12.104 71.5708 13.964C71.5708 15.812 70.5628 17.156 68.7988 17.156C67.9108 17.156 67.1428 16.808 66.7708 16.208V19.748H65.3068ZM66.7828 14.036C66.7828 15.104 67.4428 15.836 68.4508 15.836C69.4828 15.836 70.0948 15.092 70.0948 14.036C70.0948 12.98 69.4828 12.224 68.4508 12.224C67.4428 12.224 66.7828 12.968 66.7828 14.036ZM74.6939 17H73.2299V12.296H72.0899V11.072H73.2299V9.224H74.6939V11.072H75.8459V12.296H74.6939V17ZM76.5096 14.444V13.148H80.3736V14.444H76.5096ZM82.5974 9.884C82.0934 9.884 81.6974 9.488 81.6974 8.996C81.6974 8.504 82.0934 8.12 82.5974 8.12C83.0774 8.12 83.4734 8.504 83.4734 8.996C83.4734 9.488 83.0774 9.884 82.5974 9.884ZM81.8654 17V11.072H83.3294V17H81.8654ZM86.8579 17H85.3939V12.296H84.2539V11.072H85.3939V9.224H86.8579V11.072H88.0099V12.296H86.8579V17ZM91.5135 17.156C89.7495 17.156 88.5135 15.872 88.5135 14.036C88.5135 12.176 89.7255 10.892 91.4655 10.892C93.2415 10.892 94.3695 12.08 94.3695 13.928V14.372L89.9055 14.384C90.0135 15.428 90.5655 15.956 91.5375 15.956C92.3415 15.956 92.8695 15.644 93.0375 15.08H94.3935C94.1415 16.376 93.0615 17.156 91.5135 17.156ZM91.4775 12.092C90.6135 12.092 90.0855 12.56 89.9415 13.448H92.9175C92.9175 12.632 92.3535 12.092 91.4775 12.092ZM97.0052 17H95.5412V11.072H96.8852L97.0052 11.768C97.3052 11.276 97.9052 10.892 98.7572 10.892C99.6572 10.892 100.281 11.336 100.593 12.02C100.893 11.336 101.589 10.892 102.489 10.892C103.929 10.892 104.721 11.756 104.721 13.124V17H103.269V13.508C103.269 12.656 102.813 12.212 102.117 12.212C101.409 12.212 100.869 12.668 100.869 13.64V17H99.4052V13.496C99.4052 12.668 98.9612 12.224 98.2652 12.224C97.5692 12.224 97.0052 12.68 97.0052 13.64V17Z" fill="black"/>
</svg>
