<svg width="101" height="24" viewBox="0 0 101 24" fill="none" xmlns="http://www.w3.org/2000/svg">
<path d="M12 12C14.7614 12 17 9.76142 17 7C17 4.23858 14.7614 2 12 2C9.23858 2 7 4.23858 7 7C7 9.76142 9.23858 12 12 12Z" stroke="#1A1A1A" stroke-width="1.5" stroke-linecap="round" stroke-linejoin="round"/>
<path d="M3.41016 22C3.41016 18.13 7.26015 15 12.0002 15C12.9602 15 13.8902 15.13 14.7602 15.37" stroke="#1A1A1A" stroke-width="1.5" stroke-linecap="round" stroke-linejoin="round"/>
<path d="M22 18C22 18.75 21.79 19.46 21.42 20.06C21.21 20.42 20.94 20.74 20.63 21C19.93 21.63 19.01 22 18 22C16.54 22 15.27 21.22 14.58 20.06C14.21 19.46 14 18.75 14 18C14 16.74 14.58 15.61 15.5 14.88C16.19 14.33 17.06 14 18 14C20.21 14 22 15.79 22 18Z" stroke="#1A1A1A" stroke-width="1.5" stroke-miterlimit="10" stroke-linecap="round" stroke-linejoin="round"/>
<path d="M16.4404 18L17.4304 18.99L19.5604 17.02" stroke="#1A1A1A" stroke-width="1.5" stroke-linecap="round" stroke-linejoin="round"/>
<path d="M34.912 12.796V7.228H36.448V12.7C36.448 13.96 37.132 14.656 38.38 14.656C39.628 14.656 40.324 13.948 40.324 12.7V7.228H41.86V12.796C41.86 14.848 40.516 16.144 38.38 16.144C36.256 16.144 34.912 14.86 34.912 12.796ZM42.9953 14.2H44.3873C44.3993 14.716 44.7833 15.04 45.4553 15.04C46.1393 15.04 46.5113 14.764 46.5113 14.332C46.5113 14.032 46.3553 13.816 45.8273 13.696L44.7593 13.444C43.6913 13.204 43.1753 12.7 43.1753 11.752C43.1753 10.588 44.1593 9.892 45.5273 9.892C46.8593 9.892 47.7593 10.66 47.7713 11.812H46.3793C46.3673 11.308 46.0313 10.984 45.4673 10.984C44.8913 10.984 44.5553 11.248 44.5553 11.692C44.5553 12.028 44.8193 12.244 45.3233 12.364L46.3913 12.616C47.3873 12.844 47.8913 13.3 47.8913 14.212C47.8913 15.412 46.8713 16.156 45.4073 16.156C43.9313 16.156 42.9953 15.364 42.9953 14.2ZM51.658 16.156C49.894 16.156 48.658 14.872 48.658 13.036C48.658 11.176 49.87 9.892 51.61 9.892C53.386 9.892 54.514 11.08 54.514 12.928V13.372L50.05 13.384C50.158 14.428 50.71 14.956 51.682 14.956C52.486 14.956 53.014 14.644 53.182 14.08H54.538C54.286 15.376 53.206 16.156 51.658 16.156ZM51.622 11.092C50.758 11.092 50.23 11.56 50.086 12.448H53.062C53.062 11.632 52.498 11.092 51.622 11.092ZM59.4057 10.048V11.404H58.8657C57.8097 11.404 57.1497 11.968 57.1497 13.12V16H55.6857V10.084H57.0657L57.1497 10.948C57.4017 10.36 57.9657 9.964 58.7577 9.964C58.9617 9.964 59.1657 9.988 59.4057 10.048ZM59.951 13.444V12.148H63.815V13.444H59.951ZM67.0884 16H65.6244V11.296H64.4844V10.072H65.6244V8.224H67.0884V10.072H68.2404V11.296H67.0884V16ZM69.8825 8.884C69.3785 8.884 68.9825 8.488 68.9825 7.996C68.9825 7.504 69.3785 7.12 69.8825 7.12C70.3625 7.12 70.7585 7.504 70.7585 7.996C70.7585 8.488 70.3625 8.884 69.8825 8.884ZM69.1505 16V10.072H70.6145V16H69.1505ZM71.7791 13.024C71.7791 11.188 72.9911 9.892 74.7431 9.892C76.3631 9.892 77.4671 10.792 77.6231 12.22H76.1591C75.9911 11.548 75.4991 11.2 74.8031 11.2C73.8671 11.2 73.2431 11.908 73.2431 13.024C73.2431 14.14 73.8191 14.836 74.7551 14.836C75.4871 14.836 76.0031 14.476 76.1591 13.828H77.6351C77.4551 15.208 76.3031 16.156 74.7551 16.156C72.9551 16.156 71.7791 14.908 71.7791 13.024ZM80.2008 16H78.7488V7.072H80.2008V12.556L82.5048 10.072H84.3408L82.0848 12.424L84.2928 16H82.6128L81.0648 13.504L80.2008 14.404V16Z" fill="black"/>
</svg>
