<svg width="101" height="24" viewBox="0 0 101 24" fill="none" xmlns="http://www.w3.org/2000/svg">
<path d="M21.6799 16.9599L18.5499 9.64988C17.4899 7.16988 15.5399 7.06988 14.2299 9.42988L12.3399 12.8399C11.3799 14.5699 9.58993 14.7199 8.34993 13.1699L8.12993 12.8899C6.83993 11.2699 5.01993 11.4699 4.08993 13.3199L2.36993 16.7699C1.15993 19.1699 2.90993 21.9999 5.58993 21.9999H18.3499C20.9499 21.9999 22.6999 19.3499 21.6799 16.9599Z" stroke="#1A1A1A" stroke-width="1.5" stroke-linecap="round" stroke-linejoin="round"/>
<path d="M6.96973 8C8.62658 8 9.96973 6.65685 9.96973 5C9.96973 3.34315 8.62658 2 6.96973 2C5.31287 2 3.96973 3.34315 3.96973 5C3.96973 6.65685 5.31287 8 6.96973 8Z" stroke="#1A1A1A" stroke-width="1.5" stroke-linecap="round" stroke-linejoin="round"/>
<path d="M36.508 7.228V16H34.972V7.228H36.508ZM39.7005 16H38.2365V10.072H39.5805L39.7005 10.768C40.0005 10.276 40.6005 9.892 41.4525 9.892C42.3525 9.892 42.9765 10.336 43.2885 11.02C43.5885 10.336 44.2845 9.892 45.1845 9.892C46.6245 9.892 47.4165 10.756 47.4165 12.124V16H45.9645V12.508C45.9645 11.656 45.5085 11.212 44.8125 11.212C44.1045 11.212 43.5645 11.668 43.5645 12.64V16H42.1005V12.496C42.1005 11.668 41.6565 11.224 40.9605 11.224C40.2645 11.224 39.7005 11.68 39.7005 12.64V16ZM50.6177 16.156C49.3577 16.156 48.5897 15.424 48.5897 14.308C48.5897 13.216 49.3817 12.532 50.7857 12.424L52.5617 12.292V12.16C52.5617 11.356 52.0817 11.032 51.3377 11.032C50.4737 11.032 49.9937 11.392 49.9937 12.016H48.7457C48.7457 10.732 49.8017 9.892 51.4097 9.892C53.0057 9.892 53.9897 10.756 53.9897 12.4V16H52.7057L52.5977 15.124C52.3457 15.736 51.5417 16.156 50.6177 16.156ZM51.0977 15.052C51.9977 15.052 52.5737 14.512 52.5737 13.6V13.288L51.3377 13.384C50.4257 13.468 50.0777 13.768 50.0777 14.248C50.0777 14.788 50.4377 15.052 51.0977 15.052ZM55.0919 12.904C55.0919 11.176 56.2199 9.88 57.9119 9.88C58.7999 9.88 59.4959 10.252 59.8439 10.888L59.9279 10.072H61.2839V15.7C61.2839 17.68 60.0959 18.916 58.1759 18.916C56.4719 18.916 55.3079 17.944 55.1279 16.36H56.5919C56.6879 17.128 57.2759 17.584 58.1759 17.584C59.1839 17.584 59.8319 16.948 59.8319 15.964V14.98C59.4599 15.532 58.7279 15.88 57.8759 15.88C56.1959 15.88 55.0919 14.62 55.0919 12.904ZM56.5679 12.868C56.5679 13.864 57.2039 14.608 58.1639 14.608C59.1719 14.608 59.7959 13.9 59.7959 12.868C59.7959 11.86 59.1839 11.164 58.1639 11.164C57.1919 11.164 56.5679 11.896 56.5679 12.868ZM65.451 16.156C63.687 16.156 62.451 14.872 62.451 13.036C62.451 11.176 63.663 9.892 65.403 9.892C67.179 9.892 68.307 11.08 68.307 12.928V13.372L63.843 13.384C63.951 14.428 64.503 14.956 65.475 14.956C66.279 14.956 66.807 14.644 66.975 14.08H68.331C68.079 15.376 66.999 16.156 65.451 16.156ZM65.415 11.092C64.551 11.092 64.023 11.56 63.879 12.448H66.855C66.855 11.632 66.291 11.092 65.415 11.092Z" fill="black"/>
</svg>
