<svg width="105" height="24" viewBox="0 0 105 24" fill="none" xmlns="http://www.w3.org/2000/svg">
<path d="M8.5 12V7.21997" stroke="#1A1A1A" stroke-width="1.5" stroke-miterlimit="10" stroke-linecap="round" stroke-linejoin="round"/>
<path d="M8.5 22V19" stroke="#1A1A1A" stroke-width="1.5" stroke-miterlimit="10" stroke-linecap="round" stroke-linejoin="round"/>
<path d="M15.5 22V7.21997" stroke="#1A1A1A" stroke-width="1.5" stroke-miterlimit="10" stroke-linecap="round" stroke-linejoin="round"/>
<path d="M10.1008 5.29999C10.1008 5.78999 9.9008 6.25001 9.5708 6.57001C9.2508 6.90001 8.80078 7.09998 8.30078 7.09998H6.05078C6.33078 6.72998 6.50079 6.25 6.50079 5.75V4.84998C6.50079 4.34998 6.33078 3.87 6.05078 3.5H8.30078C9.29078 3.5 10.1008 4.30999 10.1008 5.29999Z" stroke="#1A1A1A" stroke-width="1.5" stroke-miterlimit="10" stroke-linecap="round" stroke-linejoin="round"/>
<path d="M6.5 4.84996V5.74999C6.5 6.24999 6.32999 6.72996 6.04999 7.09996C5.28999 8.10996 3.73 8.44996 2.28 7.15996C2.12 7.01996 2 6.71999 2 6.49999V4.15996C2 3.96996 2.10001 3.68997 2.23001 3.54997C3.49001 2.22997 5.01 2.41999 5.84 3.24999C5.91 3.31999 5.97999 3.39998 6.04999 3.48998C6.32999 3.86998 6.5 4.34996 6.5 4.84996Z" stroke="#1A1A1A" stroke-width="1.5" stroke-miterlimit="10" stroke-linecap="round" stroke-linejoin="round"/>
<path d="M13.9004 5.29999C13.9004 5.78999 14.1004 6.25001 14.4304 6.57001C14.7504 6.90001 15.2004 7.09998 15.7004 7.09998H17.9504C17.6704 6.72998 17.5004 6.25 17.5004 5.75V4.84998C17.5004 4.34998 17.6704 3.87 17.9504 3.5H15.7004C14.7104 3.5 13.9004 4.30999 13.9004 5.29999Z" stroke="#1A1A1A" stroke-width="1.5" stroke-miterlimit="10" stroke-linecap="round" stroke-linejoin="round"/>
<path d="M17.5 4.84996V5.74999C17.5 6.24999 17.67 6.72996 17.95 7.09996C18.71 8.10996 20.27 8.44996 21.72 7.15996C21.88 7.01996 22 6.71999 22 6.49999V4.15996C22 3.96996 21.9 3.68997 21.77 3.54997C20.51 2.22997 18.99 2.41999 18.16 3.24999C18.09 3.31999 18.02 3.39998 17.95 3.48998C17.67 3.86998 17.5 4.34996 17.5 4.84996Z" stroke="#1A1A1A" stroke-width="1.5" stroke-miterlimit="10" stroke-linecap="round" stroke-linejoin="round"/>
<path d="M10 13.5V17.5C10 18.33 9.33 19 8.5 19C7.67 19 7 18.33 7 17.5V13.5C7 12.67 7.67 12 8.5 12C9.33 12 10 12.67 10 13.5Z" stroke="#1A1A1A" stroke-width="1.5" stroke-miterlimit="10" stroke-linecap="round" stroke-linejoin="round"/>
<path d="M36.508 17H34.972V8.228H36.508V11.852H40.396V8.228H41.932V17H40.396V13.28H36.508V17ZM46.3143 17.156C44.5503 17.156 43.3143 15.872 43.3143 14.036C43.3143 12.176 44.5263 10.892 46.2663 10.892C48.0423 10.892 49.1703 12.08 49.1703 13.928V14.372L44.7063 14.384C44.8143 15.428 45.3663 15.956 46.3383 15.956C47.1423 15.956 47.6703 15.644 47.8383 15.08H49.1943C48.9423 16.376 47.8623 17.156 46.3143 17.156ZM46.2783 12.092C45.4143 12.092 44.8863 12.56 44.7423 13.448H47.7183C47.7183 12.632 47.1543 12.092 46.2783 12.092ZM52.0473 17.156C50.7873 17.156 50.0193 16.424 50.0193 15.308C50.0193 14.216 50.8113 13.532 52.2153 13.424L53.9913 13.292V13.16C53.9913 12.356 53.5113 12.032 52.7673 12.032C51.9033 12.032 51.4233 12.392 51.4233 13.016H50.1753C50.1753 11.732 51.2313 10.892 52.8393 10.892C54.4353 10.892 55.4193 11.756 55.4193 13.4V17H54.1353L54.0273 16.124C53.7753 16.736 52.9713 17.156 52.0473 17.156ZM52.5273 16.052C53.4273 16.052 54.0033 15.512 54.0033 14.6V14.288L52.7673 14.384C51.8553 14.468 51.5073 14.768 51.5073 15.248C51.5073 15.788 51.8673 16.052 52.5273 16.052ZM59.2936 17.156C57.5776 17.156 56.5096 15.896 56.5096 14.06C56.5096 12.212 57.5896 10.892 59.3776 10.892C60.2056 10.892 60.9376 11.24 61.3096 11.828V8.072H62.7616V17H61.4176L61.3216 16.076C60.9616 16.76 60.1936 17.156 59.2936 17.156ZM59.6176 15.812C60.6376 15.812 61.2976 15.08 61.2976 14.012C61.2976 12.944 60.6376 12.2 59.6176 12.2C58.5976 12.2 57.9736 12.956 57.9736 14.012C57.9736 15.068 58.5976 15.812 59.6176 15.812ZM64.2873 19.748V11.072H65.6433L65.7393 11.972C66.0993 11.288 66.8793 10.892 67.7793 10.892C69.4473 10.892 70.5513 12.104 70.5513 13.964C70.5513 15.812 69.5433 17.156 67.7793 17.156C66.8913 17.156 66.1233 16.808 65.7513 16.208V19.748H64.2873ZM65.7633 14.036C65.7633 15.104 66.4233 15.836 67.4313 15.836C68.4633 15.836 69.0753 15.092 69.0753 14.036C69.0753 12.98 68.4633 12.224 67.4313 12.224C66.4233 12.224 65.7633 12.968 65.7633 14.036ZM73.1809 17H71.7169V8.072H73.1929V11.84C73.5649 11.264 74.2609 10.892 75.1129 10.892C76.5769 10.892 77.3449 11.816 77.3449 13.352V17H75.8809V13.7C75.8809 12.704 75.3889 12.224 74.6449 12.224C73.7209 12.224 73.1809 12.872 73.1809 13.76V17ZM78.4353 14.024C78.4353 12.176 79.7673 10.904 81.6033 10.904C83.4393 10.904 84.7713 12.176 84.7713 14.024C84.7713 15.872 83.4393 17.144 81.6033 17.144C79.7673 17.144 78.4353 15.872 78.4353 14.024ZM79.8993 14.024C79.8993 15.104 80.5953 15.836 81.6033 15.836C82.6113 15.836 83.3073 15.104 83.3073 14.024C83.3073 12.944 82.6113 12.212 81.6033 12.212C80.5953 12.212 79.8993 12.944 79.8993 14.024ZM87.3958 17H85.9318V11.072H87.2878L87.4078 11.84C87.7798 11.24 88.4998 10.892 89.3038 10.892C90.7918 10.892 91.5598 11.816 91.5598 13.352V17H90.0958V13.7C90.0958 12.704 89.6038 12.224 88.8478 12.224C87.9478 12.224 87.3958 12.848 87.3958 13.808V17ZM95.6502 17.156C93.8862 17.156 92.6502 15.872 92.6502 14.036C92.6502 12.176 93.8622 10.892 95.6022 10.892C97.3782 10.892 98.5062 12.08 98.5062 13.928V14.372L94.0422 14.384C94.1502 15.428 94.7022 15.956 95.6742 15.956C96.4782 15.956 97.0062 15.644 97.1742 15.08H98.5302C98.2782 16.376 97.1982 17.156 95.6502 17.156ZM95.6142 12.092C94.7502 12.092 94.2222 12.56 94.0782 13.448H97.0542C97.0542 12.632 96.4902 12.092 95.6142 12.092ZM99.2219 15.2H100.614C100.626 15.716 101.01 16.04 101.682 16.04C102.366 16.04 102.738 15.764 102.738 15.332C102.738 15.032 102.582 14.816 102.054 14.696L100.986 14.444C99.9179 14.204 99.4019 13.7 99.4019 12.752C99.4019 11.588 100.386 10.892 101.754 10.892C103.086 10.892 103.986 11.66 103.998 12.812H102.606C102.594 12.308 102.258 11.984 101.694 11.984C101.118 11.984 100.782 12.248 100.782 12.692C100.782 13.028 101.046 13.244 101.55 13.364L102.618 13.616C103.614 13.844 104.118 14.3 104.118 15.212C104.118 16.412 103.098 17.156 101.634 17.156C100.158 17.156 99.2219 16.364 99.2219 15.2Z" fill="black"/>
</svg>
