<svg width="200" height="24" viewBox="0 0 200 24" fill="none" xmlns="http://www.w3.org/2000/svg">
<path d="M21 5.97998C17.67 5.64998 14.32 5.47998 10.98 5.47998C9 5.47998 7.02 5.57998 5.04 5.77998L3 5.97998" stroke="#1A1A1A" stroke-width="1.5" stroke-linecap="round" stroke-linejoin="round"/>
<path d="M8.5 4.97L8.72 3.66C8.88 2.71 9 2 10.69 2H13.31C15 2 15.13 2.75 15.28 3.67L15.5 4.97" stroke="#1A1A1A" stroke-width="1.5" stroke-linecap="round" stroke-linejoin="round"/>
<path d="M18.8499 9.13989L18.1999 19.2099C18.0899 20.7799 17.9999 21.9999 15.2099 21.9999H8.7899C5.9999 21.9999 5.9099 20.7799 5.7999 19.2099L5.1499 9.13989" stroke="#1A1A1A" stroke-width="1.5" stroke-linecap="round" stroke-linejoin="round"/>
<path d="M10.3301 16.5H13.6601" stroke="#1A1A1A" stroke-width="1.5" stroke-linecap="round" stroke-linejoin="round"/>
<path d="M9.5 12.5H14.5" stroke="#1A1A1A" stroke-width="1.5" stroke-linecap="round" stroke-linejoin="round"/>
<path d="M34.204 8.644V7.228H40.876V8.644H38.308V16H36.772V8.644H34.204ZM44.8393 10.048V11.404H44.2993C43.2433 11.404 42.5833 11.968 42.5833 13.12V16H41.1193V10.084H42.4993L42.5833 10.948C42.8353 10.36 43.3993 9.964 44.1913 9.964C44.3953 9.964 44.5993 9.988 44.8393 10.048ZM47.3598 16.156C46.0998 16.156 45.3318 15.424 45.3318 14.308C45.3318 13.216 46.1238 12.532 47.5278 12.424L49.3038 12.292V12.16C49.3038 11.356 48.8238 11.032 48.0798 11.032C47.2158 11.032 46.7358 11.392 46.7358 12.016H45.4878C45.4878 10.732 46.5438 9.892 48.1518 9.892C49.7478 9.892 50.7318 10.756 50.7318 12.4V16H49.4478L49.3398 15.124C49.0878 15.736 48.2838 16.156 47.3598 16.156ZM47.8398 15.052C48.7398 15.052 49.3158 14.512 49.3158 13.6V13.288L48.0798 13.384C47.1678 13.468 46.8198 13.768 46.8198 14.248C46.8198 14.788 47.1798 15.052 47.8398 15.052ZM51.7141 14.2H53.1061C53.1181 14.716 53.5021 15.04 54.1741 15.04C54.8581 15.04 55.2301 14.764 55.2301 14.332C55.2301 14.032 55.0741 13.816 54.5461 13.696L53.4781 13.444C52.4101 13.204 51.8941 12.7 51.8941 11.752C51.8941 10.588 52.8781 9.892 54.2461 9.892C55.5781 9.892 56.4781 10.66 56.4901 11.812H55.0981C55.0861 11.308 54.7501 10.984 54.1861 10.984C53.6101 10.984 53.2741 11.248 53.2741 11.692C53.2741 12.028 53.5381 12.244 54.0421 12.364L55.1101 12.616C56.1061 12.844 56.6101 13.3 56.6101 14.212C56.6101 15.412 55.5901 16.156 54.1261 16.156C52.6501 16.156 51.7141 15.364 51.7141 14.2ZM59.1888 16H57.7248V7.072H59.2008V10.84C59.5728 10.264 60.2688 9.892 61.1208 9.892C62.5848 9.892 63.3528 10.816 63.3528 12.352V16H61.8888V12.7C61.8888 11.704 61.3968 11.224 60.6528 11.224C59.7288 11.224 59.1888 11.872 59.1888 12.76V16Z" fill="black"/>
</svg>
