<svg width="101" height="24" viewBox="0 0 101 24" fill="none" xmlns="http://www.w3.org/2000/svg">
<path d="M15 2V12C15 13.1 14.1 14 13 14H2V7.62C2.73 8.49 3.85003 9.03 5.09003 9C6.10003 8.98 7.01 8.59 7.69 7.94C8 7.68 8.26002 7.34999 8.46002 6.98999C8.82002 6.37999 9.02 5.65997 9 4.90997C8.97 3.73997 8.45001 2.71 7.64001 2H15Z" stroke="#1A1A1A" stroke-width="1.5" stroke-linecap="round" stroke-linejoin="round"/>
<path d="M22 14V17C22 18.66 20.66 20 19 20H18C18 18.9 17.1 18 16 18C14.9 18 14 18.9 14 20H10C10 18.9 9.1 18 8 18C6.9 18 6 18.9 6 20H5C3.34 20 2 18.66 2 17V14H13C14.1 14 15 13.1 15 12V5H16.84C17.56 5 18.22 5.39001 18.58 6.01001L20.29 9H19C18.45 9 18 9.45 18 10V13C18 13.55 18.45 14 19 14H22Z" stroke="#1A1A1A" stroke-width="1.5" stroke-linecap="round" stroke-linejoin="round"/>
<path d="M8 22C9.10457 22 10 21.1046 10 20C10 18.8954 9.10457 18 8 18C6.89543 18 6 18.8954 6 20C6 21.1046 6.89543 22 8 22Z" stroke="#1A1A1A" stroke-width="1.5" stroke-linecap="round" stroke-linejoin="round"/>
<path d="M16 22C17.1046 22 18 21.1046 18 20C18 18.8954 17.1046 18 16 18C14.8954 18 14 18.8954 14 20C14 21.1046 14.8954 22 16 22Z" stroke="#1A1A1A" stroke-width="1.5" stroke-linecap="round" stroke-linejoin="round"/>
<path d="M22 12V14H19C18.45 14 18 13.55 18 13V10C18 9.45 18.45 9 19 9H20.29L22 12Z" stroke="#1A1A1A" stroke-width="1.5" stroke-linecap="round" stroke-linejoin="round"/>
<path d="M8.9992 4.90975C9.0192 5.65975 8.81922 6.37977 8.45922 6.98977C8.25922 7.34977 7.9992 7.67978 7.6892 7.93978C7.0092 8.58978 6.09922 8.97978 5.08922 8.99978C3.84922 9.02978 2.7292 8.48977 1.9992 7.61977C1.8592 7.46977 1.7392 7.29978 1.6292 7.12978C1.2392 6.53978 1.0192 5.8398 0.999195 5.0898C0.969195 3.8298 1.52919 2.67977 2.42919 1.92977C3.10919 1.36977 3.96917 1.01978 4.90917 0.999776C5.95917 0.979776 6.91921 1.35978 7.63921 1.99978C8.44921 2.70978 8.9692 3.73975 8.9992 4.90975Z" stroke="#1A1A1A" stroke-width="1.5" stroke-miterlimit="10" stroke-linecap="round" stroke-linejoin="round"/>
<path d="M3.43945 5.02979L4.44946 5.98975L6.53943 3.96973" stroke="#1A1A1A" stroke-width="1.5" stroke-linecap="round" stroke-linejoin="round"/>
<path d="M34.204 8.644V7.228H40.876V8.644H38.308V16H36.772V8.644H34.204ZM44.8393 10.048V11.404H44.2993C43.2433 11.404 42.5833 11.968 42.5833 13.12V16H41.1193V10.084H42.4993L42.5833 10.948C42.8353 10.36 43.3993 9.964 44.1913 9.964C44.3953 9.964 44.5993 9.988 44.8393 10.048ZM49.8502 10.072H51.3142V16H49.9582L49.8502 15.208C49.4902 15.772 48.7222 16.156 47.9302 16.156C46.5622 16.156 45.7582 15.232 45.7582 13.78V10.072H47.2222V13.264C47.2222 14.392 47.6662 14.848 48.4822 14.848C49.4062 14.848 49.8502 14.308 49.8502 13.18V10.072ZM52.3611 13.024C52.3611 11.188 53.5731 9.892 55.3251 9.892C56.9451 9.892 58.0491 10.792 58.2051 12.22H56.7411C56.5731 11.548 56.0811 11.2 55.3851 11.2C54.4491 11.2 53.8251 11.908 53.8251 13.024C53.8251 14.14 54.4011 14.836 55.3371 14.836C56.0691 14.836 56.5851 14.476 56.7411 13.828H58.2171C58.0371 15.208 56.8851 16.156 55.3371 16.156C53.5371 16.156 52.3611 14.908 52.3611 13.024ZM60.7828 16H59.3308V7.072H60.7828V12.556L63.0868 10.072H64.9228L62.6668 12.424L64.8748 16H63.1948L61.6468 13.504L60.7828 14.404V16ZM64.9784 13.444V12.148H68.8424V13.444H64.9784ZM72.1158 16H70.6518V11.296H69.5118V10.072H70.6518V8.224H72.1158V10.072H73.2678V11.296H72.1158V16ZM74.9099 8.884C74.4059 8.884 74.0099 8.488 74.0099 7.996C74.0099 7.504 74.4059 7.12 74.9099 7.12C75.3899 7.12 75.7859 7.504 75.7859 7.996C75.7859 8.488 75.3899 8.884 74.9099 8.884ZM74.1779 16V10.072H75.6419V16H74.1779ZM76.8064 13.024C76.8064 11.188 78.0184 9.892 79.7704 9.892C81.3904 9.892 82.4944 10.792 82.6504 12.22H81.1864C81.0184 11.548 80.5264 11.2 79.8304 11.2C78.8944 11.2 78.2704 11.908 78.2704 13.024C78.2704 14.14 78.8464 14.836 79.7824 14.836C80.5144 14.836 81.0304 14.476 81.1864 13.828H82.6624C82.4824 15.208 81.3304 16.156 79.7824 16.156C77.9824 16.156 76.8064 14.908 76.8064 13.024ZM85.2281 16H83.7761V7.072H85.2281V12.556L87.5321 10.072H89.3681L87.1121 12.424L89.3201 16H87.6401L86.0921 13.504L85.2281 14.404V16Z" fill="black"/>
</svg>
