<svg width="101" height="24" viewBox="0 0 101 24" fill="none" xmlns="http://www.w3.org/2000/svg">
<path d="M9.1698 4.71L3.0698 16.3C1.6198 19.05 4.5498 22.04 7.3298 20.65L10.5698 19.03C11.4698 18.58 12.5298 18.58 13.4298 19.03L16.6698 20.65C19.4498 22.04 22.3698 19.05 20.9298 16.3L14.8298 4.71C13.6298 2.43 10.3698 2.43 9.1698 4.71Z" stroke="#1A1A1A" stroke-width="1.5" stroke-linecap="round" stroke-linejoin="round"/>
<path d="M38.128 16H34.972V7.228H38.044C40.636 7.228 42.424 9.016 42.424 11.632C42.424 14.212 40.672 16 38.128 16ZM37.9 8.644H36.508V14.584H37.984C39.736 14.584 40.804 13.456 40.804 11.632C40.804 9.772 39.712 8.644 37.9 8.644ZM44.3708 8.884C43.8668 8.884 43.4708 8.488 43.4708 7.996C43.4708 7.504 43.8668 7.12 44.3708 7.12C44.8508 7.12 45.2468 7.504 45.2468 7.996C45.2468 8.488 44.8508 8.884 44.3708 8.884ZM43.6388 16V10.072H45.1028V16H43.6388ZM50.3354 10.048V11.404H49.7954C48.7394 11.404 48.0794 11.968 48.0794 13.12V16H46.6154V10.084H47.9954L48.0794 10.948C48.3314 10.36 48.8954 9.964 49.6874 9.964C49.8914 9.964 50.0954 9.988 50.3354 10.048ZM53.7791 16.156C52.0151 16.156 50.7791 14.872 50.7791 13.036C50.7791 11.176 51.9911 9.892 53.7311 9.892C55.5071 9.892 56.6351 11.08 56.6351 12.928V13.372L52.1711 13.384C52.2791 14.428 52.8311 14.956 53.8031 14.956C54.6071 14.956 55.1351 14.644 55.3031 14.08H56.6591C56.4071 15.376 55.3271 16.156 53.7791 16.156ZM53.7431 11.092C52.8791 11.092 52.3511 11.56 52.2071 12.448H55.1831C55.1831 11.632 54.6191 11.092 53.7431 11.092ZM57.4588 13.024C57.4588 11.188 58.6708 9.892 60.4228 9.892C62.0428 9.892 63.1468 10.792 63.3028 12.22H61.8388C61.6708 11.548 61.1788 11.2 60.4828 11.2C59.5468 11.2 58.9228 11.908 58.9228 13.024C58.9228 14.14 59.4988 14.836 60.4348 14.836C61.1668 14.836 61.6828 14.476 61.8388 13.828H63.3148C63.1348 15.208 61.9828 16.156 60.4348 16.156C58.6348 16.156 57.4588 14.908 57.4588 13.024ZM66.4204 16H64.9564V11.296H63.8164V10.072H64.9564V8.224H66.4204V10.072H67.5724V11.296H66.4204V16ZM68.2362 13.444V12.148H72.1002V13.444H68.2362ZM77.6119 10.072H79.0759V16H77.7199L77.6119 15.208C77.2519 15.772 76.4839 16.156 75.6919 16.156C74.3239 16.156 73.5199 15.232 73.5199 13.78V10.072H74.9839V13.264C74.9839 14.392 75.4279 14.848 76.2439 14.848C77.1679 14.848 77.6119 14.308 77.6119 13.18V10.072ZM80.588 18.748V10.072H81.944L82.04 10.972C82.4 10.288 83.18 9.892 84.08 9.892C85.748 9.892 86.852 11.104 86.852 12.964C86.852 14.812 85.844 16.156 84.08 16.156C83.192 16.156 82.424 15.808 82.052 15.208V18.748H80.588ZM82.064 13.036C82.064 14.104 82.724 14.836 83.732 14.836C84.764 14.836 85.376 14.092 85.376 13.036C85.376 11.98 84.764 11.224 83.732 11.224C82.724 11.224 82.064 11.968 82.064 13.036Z" fill="black"/>
</svg>
