<svg width="200" height="24" viewBox="0 0 200 24" fill="none" xmlns="http://www.w3.org/2000/svg">
<path d="M12 7.75V13" stroke="#1A1A1A" stroke-width="1.5" stroke-linecap="round" stroke-linejoin="round"/>
<path d="M21.0802 8.58003V15.42C21.0802 16.54 20.4802 17.58 19.5102 18.15L13.5702 21.58C12.6002 22.14 11.4002 22.14 10.4202 21.58L4.48016 18.15C3.51016 17.59 2.91016 16.55 2.91016 15.42V8.58003C2.91016 7.46003 3.51016 6.41999 4.48016 5.84999L10.4202 2.42C11.3902 1.86 12.5902 1.86 13.5702 2.42L19.5102 5.84999C20.4802 6.41999 21.0802 7.45003 21.0802 8.58003Z" stroke="#1A1A1A" stroke-width="1.5" stroke-linecap="round" stroke-linejoin="round"/>
<path d="M12 16.2V16.2999" stroke="#1A1A1A" stroke-width="1.5" stroke-linecap="round" stroke-linejoin="round"/>
<path d="M36.796 16L34.18 7.228H35.776L37.168 11.86C37.3 12.34 37.432 12.832 37.564 13.6C37.708 12.82 37.84 12.364 37.996 11.86L39.376 7.228H41.068L42.424 11.86C42.568 12.352 42.7 12.856 42.844 13.6C43.012 12.784 43.132 12.316 43.264 11.872L44.68 7.228H46.24L43.576 16H42.088L40.216 9.616L38.308 16H36.796ZM48.0513 16.156C46.7913 16.156 46.0233 15.424 46.0233 14.308C46.0233 13.216 46.8153 12.532 48.2193 12.424L49.9953 12.292V12.16C49.9953 11.356 49.5153 11.032 48.7713 11.032C47.9073 11.032 47.4273 11.392 47.4273 12.016H46.1793C46.1793 10.732 47.2353 9.892 48.8433 9.892C50.4393 9.892 51.4233 10.756 51.4233 12.4V16H50.1393L50.0313 15.124C49.7793 15.736 48.9753 16.156 48.0513 16.156ZM48.5312 15.052C49.4313 15.052 50.0073 14.512 50.0073 13.6V13.288L48.7713 13.384C47.8593 13.468 47.5113 13.768 47.5113 14.248C47.5113 14.788 47.8713 15.052 48.5312 15.052ZM56.5815 10.048V11.404H56.0415C54.9855 11.404 54.3255 11.968 54.3255 13.12V16H52.8615V10.084H54.2415L54.3255 10.948C54.5775 10.36 55.1415 9.964 55.9335 9.964C56.1375 9.964 56.3415 9.988 56.5815 10.048ZM59.0364 16H57.5724V10.072H58.9284L59.0484 10.84C59.4204 10.24 60.1404 9.892 60.9444 9.892C62.4324 9.892 63.2004 10.816 63.2004 12.352V16H61.7364V12.7C61.7364 11.704 61.2444 11.224 60.4884 11.224C59.5884 11.224 59.0364 11.848 59.0364 12.808V16ZM65.3708 8.884C64.8668 8.884 64.4708 8.488 64.4708 7.996C64.4708 7.504 64.8668 7.12 65.3708 7.12C65.8508 7.12 66.2468 7.504 66.2468 7.996C66.2468 8.488 65.8508 8.884 65.3708 8.884ZM64.6388 16V10.072H66.1028V16H64.6388ZM69.0794 16H67.6154V10.072H68.9714L69.0914 10.84C69.4634 10.24 70.1834 9.892 70.9874 9.892C72.4754 9.892 73.2434 10.816 73.2434 12.352V16H71.7794V12.7C71.7794 11.704 71.2874 11.224 70.5314 11.224C69.6314 11.224 69.0794 11.848 69.0794 12.808V16ZM74.3458 12.904C74.3458 11.176 75.4738 9.88 77.1658 9.88C78.0538 9.88 78.7498 10.252 79.0978 10.888L79.1818 10.072H80.5378V15.7C80.5378 17.68 79.3498 18.916 77.4298 18.916C75.7258 18.916 74.5618 17.944 74.3818 16.36H75.8458C75.9418 17.128 76.5298 17.584 77.4298 17.584C78.4378 17.584 79.0858 16.948 79.0858 15.964V14.98C78.7138 15.532 77.9818 15.88 77.1298 15.88C75.4498 15.88 74.3458 14.62 74.3458 12.904ZM75.8218 12.868C75.8218 13.864 76.4578 14.608 77.4178 14.608C78.4258 14.608 79.0498 13.9 79.0498 12.868C79.0498 11.86 78.4378 11.164 77.4178 11.164C76.4458 11.164 75.8218 11.896 75.8218 12.868ZM82.0409 13.444V12.148H85.9049V13.444H82.0409ZM92.5032 15.988L86.4192 16V14.848L89.2872 12.424C90.4752 11.416 90.8712 10.84 90.8712 10C90.8712 9.004 90.3312 8.44 89.4072 8.44C88.4472 8.44 87.8472 9.112 87.8352 10.24H86.3112C86.3232 8.32 87.5472 7.072 89.4072 7.072C91.2792 7.072 92.4432 8.14 92.4432 9.916C92.4432 11.14 91.7712 12.064 90.4392 13.204L88.8552 14.56H92.5032V15.988Z" fill="black"/>
</svg>
