<svg width="205" height="24" viewBox="0 0 205 24" fill="none" xmlns="http://www.w3.org/2000/svg">
<path d="M22 15V9C22 4 20 2 15 2H9C4 2 2 4 2 9V15C2 20 4 22 9 22H15C20 22 22 20 22 15Z" stroke="#1A1A1A" stroke-width="1.5" stroke-linecap="round" stroke-linejoin="round"/>
<path d="M2.51953 17.1101H21.4795" stroke="#1A1A1A" stroke-width="1.5" stroke-linecap="round" stroke-linejoin="round"/>
<path d="M2.51953 7.11011H21.4795" stroke="#1A1A1A" stroke-width="1.5" stroke-linecap="round" stroke-linejoin="round"/>
<path d="M6.96973 17.1101V21.4601" stroke="#1A1A1A" stroke-width="1.5" stroke-linecap="round" stroke-linejoin="round"/>
<path d="M12 17.1101V21.9701" stroke="#1A1A1A" stroke-width="1.5" stroke-linecap="round" stroke-linejoin="round"/>
<path d="M16.9697 17.1101V21.5201" stroke="#1A1A1A" stroke-width="1.5" stroke-linecap="round" stroke-linejoin="round"/>
<path d="M6.96973 2.11011V6.46011" stroke="#1A1A1A" stroke-width="1.5" stroke-linecap="round" stroke-linejoin="round"/>
<path d="M12 2.11011V6.97011" stroke="#1A1A1A" stroke-width="1.5" stroke-linecap="round" stroke-linejoin="round"/>
<path d="M12 7.03003V18.03" stroke="#1A1A1A" stroke-width="1.5" stroke-linecap="round" stroke-linejoin="round"/>
<path d="M16.9697 2.11011V6.52011" stroke="#1A1A1A" stroke-width="1.5" stroke-linecap="round" stroke-linejoin="round"/>
<path d="M37.432 17L34.12 8.228H35.752L37.672 13.28C37.864 13.808 38.032 14.324 38.224 15.032C38.44 14.264 38.62 13.724 38.788 13.28L40.684 8.228H42.28L39.016 17H37.432ZM46.5338 11.072H47.9978V17H46.6418L46.5338 16.208C46.1738 16.772 45.4058 17.156 44.6138 17.156C43.2458 17.156 42.4418 16.232 42.4418 14.78V11.072H43.9058V14.264C43.9058 15.392 44.3498 15.848 45.1658 15.848C46.0898 15.848 46.5338 15.308 46.5338 14.18V11.072ZM52.0447 17.156C50.2807 17.156 49.0447 15.872 49.0447 14.036C49.0447 12.176 50.2567 10.892 51.9967 10.892C53.7727 10.892 54.9007 12.08 54.9007 13.928V14.372L50.4367 14.384C50.5447 15.428 51.0967 15.956 52.0687 15.956C52.8727 15.956 53.4007 15.644 53.5687 15.08H54.9247C54.6727 16.376 53.5927 17.156 52.0447 17.156ZM52.0087 12.092C51.1447 12.092 50.6167 12.56 50.4727 13.448H53.4487C53.4487 12.632 52.8847 12.092 52.0087 12.092ZM55.6164 15.2H57.0084C57.0204 15.716 57.4044 16.04 58.0764 16.04C58.7604 16.04 59.1324 15.764 59.1324 15.332C59.1324 15.032 58.9764 14.816 58.4484 14.696L57.3804 14.444C56.3124 14.204 55.7964 13.7 55.7964 12.752C55.7964 11.588 56.7804 10.892 58.1484 10.892C59.4804 10.892 60.3804 11.66 60.3924 12.812H59.0004C58.9884 12.308 58.6524 11.984 58.0884 11.984C57.5124 11.984 57.1764 12.248 57.1764 12.692C57.1764 13.028 57.4404 13.244 57.9444 13.364L59.0124 13.616C60.0084 13.844 60.5124 14.3 60.5124 15.212C60.5124 16.412 59.4924 17.156 58.0284 17.156C56.5524 17.156 55.6164 16.364 55.6164 15.2ZM63.3911 17.156C62.1311 17.156 61.3631 16.424 61.3631 15.308C61.3631 14.216 62.1551 13.532 63.5591 13.424L65.3351 13.292V13.16C65.3351 12.356 64.8551 12.032 64.1111 12.032C63.2471 12.032 62.7671 12.392 62.7671 13.016H61.5191C61.5191 11.732 62.5751 10.892 64.1831 10.892C65.7791 10.892 66.7631 11.756 66.7631 13.4V17H65.4791L65.3711 16.124C65.1191 16.736 64.3151 17.156 63.3911 17.156ZM63.8711 16.052C64.7711 16.052 65.3471 15.512 65.3471 14.6V14.288L64.1111 14.384C63.1991 14.468 62.8511 14.768 62.8511 15.248C62.8511 15.788 63.2111 16.052 63.8711 16.052ZM69.2333 17H67.5653L69.6053 14.096L67.5653 11.072H69.2693L70.5773 13.088L71.8373 11.072H73.4813L71.4653 14.072L73.4213 17H71.7413L70.4813 15.044L69.2333 17ZM75.0497 17H73.5977L77.0177 8.24H78.4817L75.0497 17ZM80.7164 17H79.2644V8.072H80.7164V17ZM82.9841 9.884C82.4801 9.884 82.0841 9.488 82.0841 8.996C82.0841 8.504 82.4801 8.12 82.9841 8.12C83.4641 8.12 83.8601 8.504 83.8601 8.996C83.8601 9.488 83.4641 9.884 82.9841 9.884ZM82.2521 17V11.072H83.7161V17H82.2521ZM86.6927 17H85.2287V11.072H86.5847L86.7047 11.84C87.0767 11.24 87.7967 10.892 88.6007 10.892C90.0887 10.892 90.8567 11.816 90.8567 13.352V17H89.3927V13.7C89.3927 12.704 88.9007 12.224 88.1447 12.224C87.2447 12.224 86.6927 12.848 86.6927 13.808V17ZM94.9471 17.156C93.1831 17.156 91.9471 15.872 91.9471 14.036C91.9471 12.176 93.1591 10.892 94.8991 10.892C96.6751 10.892 97.8031 12.08 97.8031 13.928V14.372L93.3391 14.384C93.4471 15.428 93.9991 15.956 94.9711 15.956C95.7751 15.956 96.3031 15.644 96.4711 15.08H97.8271C97.5751 16.376 96.4951 17.156 94.9471 17.156ZM94.9111 12.092C94.0471 12.092 93.5191 12.56 93.3751 13.448H96.3511C96.3511 12.632 95.7871 12.092 94.9111 12.092ZM100.68 17.156C99.4202 17.156 98.6522 16.424 98.6522 15.308C98.6522 14.216 99.4442 13.532 100.848 13.424L102.624 13.292V13.16C102.624 12.356 102.144 12.032 101.4 12.032C100.536 12.032 100.056 12.392 100.056 13.016H98.8082C98.8082 11.732 99.8642 10.892 101.472 10.892C103.068 10.892 104.052 11.756 104.052 13.4V17H102.768L102.66 16.124C102.408 16.736 101.604 17.156 100.68 17.156ZM101.16 16.052C102.06 16.052 102.636 15.512 102.636 14.6V14.288L101.4 14.384C100.488 14.468 100.14 14.768 100.14 15.248C100.14 15.788 100.5 16.052 101.16 16.052ZM109.21 11.048V12.404H108.67C107.614 12.404 106.954 12.968 106.954 14.12V17H105.49V11.084H106.87L106.954 11.948C107.206 11.36 107.77 10.964 108.562 10.964C108.766 10.964 108.97 10.988 109.21 11.048ZM110.557 17H109.105L112.525 8.24H113.989L110.557 17ZM116.018 17L113.666 11.072H115.226L116.258 13.796C116.51 14.504 116.714 15.116 116.786 15.44C116.87 15.068 117.086 14.444 117.338 13.796L118.418 11.072H119.93L117.458 17H116.018ZM121.504 9.884C121 9.884 120.604 9.488 120.604 8.996C120.604 8.504 121 8.12 121.504 8.12C121.984 8.12 122.38 8.504 122.38 8.996C122.38 9.488 121.984 9.884 121.504 9.884ZM120.772 17V11.072H122.236V17H120.772ZM126.184 17.156C124.468 17.156 123.4 15.896 123.4 14.06C123.4 12.212 124.48 10.892 126.268 10.892C127.096 10.892 127.828 11.24 128.2 11.828V8.072H129.652V17H128.308L128.212 16.076C127.852 16.76 127.084 17.156 126.184 17.156ZM126.508 15.812C127.528 15.812 128.188 15.08 128.188 14.012C128.188 12.944 127.528 12.2 126.508 12.2C125.488 12.2 124.864 12.956 124.864 14.012C124.864 15.068 125.488 15.812 126.508 15.812ZM133.83 17.156C132.066 17.156 130.83 15.872 130.83 14.036C130.83 12.176 132.042 10.892 133.782 10.892C135.558 10.892 136.686 12.08 136.686 13.928V14.372L132.222 14.384C132.33 15.428 132.882 15.956 133.854 15.956C134.658 15.956 135.186 15.644 135.354 15.08H136.71C136.458 16.376 135.378 17.156 133.83 17.156ZM133.794 12.092C132.93 12.092 132.402 12.56 132.258 13.448H135.234C135.234 12.632 134.67 12.092 133.794 12.092ZM137.51 14.024C137.51 12.176 138.842 10.904 140.678 10.904C142.514 10.904 143.846 12.176 143.846 14.024C143.846 15.872 142.514 17.144 140.678 17.144C138.842 17.144 137.51 15.872 137.51 14.024ZM138.974 14.024C138.974 15.104 139.67 15.836 140.678 15.836C141.686 15.836 142.382 15.104 142.382 14.024C142.382 12.944 141.686 12.212 140.678 12.212C139.67 12.212 138.974 12.944 138.974 14.024ZM144.994 14.444V13.148H148.858V14.444H144.994ZM151.814 17H150.35V8.072H151.826V11.84C152.198 11.264 152.894 10.892 153.746 10.892C155.21 10.892 155.978 11.816 155.978 13.352V17H154.514V13.7C154.514 12.704 154.022 12.224 153.278 12.224C152.354 12.224 151.814 12.872 151.814 13.76V17ZM157.068 14.024C157.068 12.176 158.4 10.904 160.236 10.904C162.072 10.904 163.404 12.176 163.404 14.024C163.404 15.872 162.072 17.144 160.236 17.144C158.4 17.144 157.068 15.872 157.068 14.024ZM158.532 14.024C158.532 15.104 159.228 15.836 160.236 15.836C161.244 15.836 161.94 15.104 161.94 14.024C161.94 12.944 161.244 12.212 160.236 12.212C159.228 12.212 158.532 12.944 158.532 14.024ZM168.285 11.048V12.404H167.745C166.689 12.404 166.029 12.968 166.029 14.12V17H164.565V11.084H165.945L166.029 11.948C166.281 11.36 166.845 10.964 167.637 10.964C167.841 10.964 168.045 10.988 168.285 11.048ZM170.008 9.884C169.504 9.884 169.108 9.488 169.108 8.996C169.108 8.504 169.504 8.12 170.008 8.12C170.488 8.12 170.884 8.504 170.884 8.996C170.884 9.488 170.488 9.884 170.008 9.884ZM169.276 17V11.072H170.74V17H169.276ZM176.728 17H171.94V15.8L174.892 12.296H171.94V11.072H176.728V12.284L173.728 15.776H176.728V17ZM177.506 14.024C177.506 12.176 178.838 10.904 180.674 10.904C182.51 10.904 183.842 12.176 183.842 14.024C183.842 15.872 182.51 17.144 180.674 17.144C178.838 17.144 177.506 15.872 177.506 14.024ZM178.97 14.024C178.97 15.104 179.666 15.836 180.674 15.836C181.682 15.836 182.378 15.104 182.378 14.024C182.378 12.944 181.682 12.212 180.674 12.212C179.666 12.212 178.97 12.944 178.97 14.024ZM186.466 17H185.002V11.072H186.358L186.478 11.84C186.85 11.24 187.57 10.892 188.374 10.892C189.862 10.892 190.63 11.816 190.63 13.352V17H189.166V13.7C189.166 12.704 188.674 12.224 187.918 12.224C187.018 12.224 186.466 12.848 186.466 13.808V17ZM194.085 17H192.621V12.296H191.481V11.072H192.621V9.224H194.085V11.072H195.237V12.296H194.085V17ZM197.875 17.156C196.615 17.156 195.847 16.424 195.847 15.308C195.847 14.216 196.639 13.532 198.043 13.424L199.819 13.292V13.16C199.819 12.356 199.339 12.032 198.595 12.032C197.731 12.032 197.251 12.392 197.251 13.016H196.003C196.003 11.732 197.059 10.892 198.667 10.892C200.263 10.892 201.247 11.756 201.247 13.4V17H199.963L199.855 16.124C199.603 16.736 198.799 17.156 197.875 17.156ZM198.355 16.052C199.255 16.052 199.831 15.512 199.831 14.6V14.288L198.595 14.384C197.683 14.468 197.335 14.768 197.335 15.248C197.335 15.788 197.695 16.052 198.355 16.052ZM204.162 17H202.71V8.072H204.162V17Z" fill="black"/>
</svg>
