<svg width="113" height="24" viewBox="0 0 113 24" fill="none" xmlns="http://www.w3.org/2000/svg">
<path d="M21.97 18.33C21.97 18.69 21.89 19.06 21.72 19.42C21.55 19.78 21.33 20.12 21.04 20.44C20.55 20.98 20.01 21.37 19.4 21.62C18.8 21.87 18.15 22 17.45 22C16.43 22 15.34 21.76 14.19 21.27C13.04 20.78 11.89 20.12 10.75 19.29C9.6 18.45 8.51 17.52 7.47 16.49C6.44 15.45 5.51 14.36 4.68 13.22C3.86 12.08 3.2 10.94 2.72 9.81C2.24 8.67 2 7.58 2 6.54C2 5.86 2.12 5.21 2.36 4.61C2.6 4 2.98 3.44 3.51 2.94C4.15 2.31 4.85 2 5.59 2C5.87 2 6.15 2.06 6.4 2.18C6.66 2.3 6.89 2.48 7.07 2.74L9.39 6.01C9.57 6.26 9.7 6.49 9.79 6.71C9.88 6.92 9.93 7.13 9.93 7.32C9.93 7.56 9.86 7.8 9.72 8.03C9.59 8.26 9.4 8.5 9.16 8.74L8.4 9.53C8.29 9.64 8.24 9.77 8.24 9.93C8.24 10.01 8.25 10.08 8.27 10.16C8.3 10.24 8.33 10.3 8.35 10.36C8.53 10.69 8.84 11.12 9.28 11.64C9.73 12.16 10.21 12.69 10.73 13.22C11.27 13.75 11.79 14.24 12.32 14.69C12.84 15.13 13.27 15.43 13.61 15.61C13.66 15.63 13.72 15.66 13.79 15.69C13.87 15.72 13.95 15.73 14.04 15.73C14.21 15.73 14.34 15.67 14.45 15.56L15.21 14.81C15.46 14.56 15.7 14.37 15.93 14.25C16.16 14.11 16.39 14.04 16.64 14.04C16.83 14.04 17.03 14.08 17.25 14.17C17.47 14.26 17.7 14.39 17.95 14.56L21.26 16.91C21.52 17.09 21.7 17.3 21.81 17.55C21.91 17.8 21.97 18.05 21.97 18.33Z" stroke="#1A1A1A" stroke-width="1.5" stroke-miterlimit="10"/>
<path d="M16.1992 7.8H20.9992M16.1992 7.8V3V7.8Z" stroke="#1A1A1A" stroke-width="1.5" stroke-linecap="round" stroke-linejoin="round"/>
<path d="M38.68 17.144C36.124 17.144 34.468 15.368 34.468 12.62C34.468 9.896 36.184 8.084 38.752 8.084C40.828 8.084 42.376 9.296 42.676 11.18H41.056C40.756 10.16 39.88 9.56 38.716 9.56C37.096 9.56 36.076 10.736 36.076 12.608C36.076 14.468 37.108 15.668 38.716 15.668C39.904 15.668 40.816 15.044 41.104 14.072H42.7C42.364 15.92 40.756 17.144 38.68 17.144ZM45.5083 17.156C44.2483 17.156 43.4803 16.424 43.4803 15.308C43.4803 14.216 44.2723 13.532 45.6763 13.424L47.4523 13.292V13.16C47.4523 12.356 46.9723 12.032 46.2283 12.032C45.3643 12.032 44.8843 12.392 44.8843 13.016H43.6363C43.6363 11.732 44.6923 10.892 46.3003 10.892C47.8963 10.892 48.8803 11.756 48.8803 13.4V17H47.5963L47.4883 16.124C47.2363 16.736 46.4323 17.156 45.5083 17.156ZM45.9883 16.052C46.8883 16.052 47.4643 15.512 47.4643 14.6V14.288L46.2283 14.384C45.3163 14.468 44.9683 14.768 44.9683 15.248C44.9683 15.788 45.3283 16.052 45.9883 16.052ZM51.7945 17H50.3425V8.072H51.7945V17ZM54.8062 17H53.3542V8.072H54.8062V17ZM56.3299 14.444V13.148H60.1939V14.444H56.3299ZM62.4177 9.884C61.9137 9.884 61.5177 9.488 61.5177 8.996C61.5177 8.504 61.9137 8.12 62.4177 8.12C62.8977 8.12 63.2937 8.504 63.2937 8.996C63.2937 9.488 62.8977 9.884 62.4177 9.884ZM61.6857 17V11.072H63.1497V17H61.6857ZM66.1263 17H64.6623V11.072H66.0183L66.1383 11.84C66.5103 11.24 67.2303 10.892 68.0343 10.892C69.5223 10.892 70.2903 11.816 70.2903 13.352V17H68.8263V13.7C68.8263 12.704 68.3343 12.224 67.5783 12.224C66.6783 12.224 66.1263 12.848 66.1263 13.808V17ZM71.3807 14.024C71.3807 12.188 72.5927 10.892 74.3447 10.892C75.9647 10.892 77.0687 11.792 77.2247 13.22H75.7607C75.5927 12.548 75.1007 12.2 74.4047 12.2C73.4687 12.2 72.8447 12.908 72.8447 14.024C72.8447 15.14 73.4207 15.836 74.3567 15.836C75.0887 15.836 75.6047 15.476 75.7607 14.828H77.2367C77.0567 16.208 75.9047 17.156 74.3567 17.156C72.5567 17.156 71.3807 15.908 71.3807 14.024ZM77.9783 14.024C77.9783 12.176 79.3103 10.904 81.1463 10.904C82.9823 10.904 84.3143 12.176 84.3143 14.024C84.3143 15.872 82.9823 17.144 81.1463 17.144C79.3103 17.144 77.9783 15.872 77.9783 14.024ZM79.4423 14.024C79.4423 15.104 80.1383 15.836 81.1463 15.836C82.1543 15.836 82.8503 15.104 82.8503 14.024C82.8503 12.944 82.1543 12.212 81.1463 12.212C80.1383 12.212 79.4423 12.944 79.4423 14.024ZM86.9388 17H85.4748V11.072H86.8188L86.9388 11.768C87.2388 11.276 87.8388 10.892 88.6908 10.892C89.5908 10.892 90.2148 11.336 90.5268 12.02C90.8268 11.336 91.5228 10.892 92.4228 10.892C93.8628 10.892 94.6548 11.756 94.6548 13.124V17H93.2028V13.508C93.2028 12.656 92.7468 12.212 92.0508 12.212C91.3428 12.212 90.8028 12.668 90.8028 13.64V17H89.3388V13.496C89.3388 12.668 88.8948 12.224 88.1988 12.224C87.5028 12.224 86.9388 12.68 86.9388 13.64V17ZM96.8239 9.884C96.3199 9.884 95.9239 9.488 95.9239 8.996C95.9239 8.504 96.3199 8.12 96.8239 8.12C97.3039 8.12 97.6999 8.504 97.6999 8.996C97.6999 9.488 97.3039 9.884 96.8239 9.884ZM96.0919 17V11.072H97.5559V17H96.0919ZM100.533 17H99.0685V11.072H100.425L100.545 11.84C100.917 11.24 101.637 10.892 102.441 10.892C103.929 10.892 104.697 11.816 104.697 13.352V17H103.233V13.7C103.233 12.704 102.741 12.224 101.985 12.224C101.085 12.224 100.533 12.848 100.533 13.808V17ZM105.799 13.904C105.799 12.176 106.927 10.88 108.619 10.88C109.507 10.88 110.203 11.252 110.551 11.888L110.635 11.072H111.991V16.7C111.991 18.68 110.803 19.916 108.883 19.916C107.179 19.916 106.015 18.944 105.835 17.36H107.299C107.395 18.128 107.983 18.584 108.883 18.584C109.891 18.584 110.539 17.948 110.539 16.964V15.98C110.167 16.532 109.435 16.88 108.583 16.88C106.903 16.88 105.799 15.62 105.799 13.904ZM107.275 13.868C107.275 14.864 107.911 15.608 108.871 15.608C109.879 15.608 110.503 14.9 110.503 13.868C110.503 12.86 109.891 12.164 108.871 12.164C107.899 12.164 107.275 12.896 107.275 13.868Z" fill="black"/>
</svg>
