<svg width="101" height="24" viewBox="0 0 101 24" fill="none" xmlns="http://www.w3.org/2000/svg">
<path d="M6 10V8C6 4.69 7 2 12 2C17 2 18 4.69 18 8V10" stroke="#1A1A1A" stroke-width="1.5" stroke-linecap="round" stroke-linejoin="round"/>
<path d="M12 18.5C13.3807 18.5 14.5 17.3807 14.5 16C14.5 14.6193 13.3807 13.5 12 13.5C10.6193 13.5 9.5 14.6193 9.5 16C9.5 17.3807 10.6193 18.5 12 18.5Z" stroke="#1A1A1A" stroke-width="1.5" stroke-linecap="round" stroke-linejoin="round"/>
<path d="M17 22H7C3 22 2 21 2 17V15C2 11 3 10 7 10H17C21 10 22 11 22 15V17C22 21 21 22 17 22Z" stroke="#1A1A1A" stroke-width="1.5" stroke-linecap="round" stroke-linejoin="round"/>
<path d="M36.508 7.228V14.584H40.18V16H34.972V7.228H36.508ZM40.7478 13.024C40.7478 11.176 42.0798 9.904 43.9158 9.904C45.7518 9.904 47.0838 11.176 47.0838 13.024C47.0838 14.872 45.7518 16.144 43.9158 16.144C42.0798 16.144 40.7478 14.872 40.7478 13.024ZM42.2118 13.024C42.2118 14.104 42.9078 14.836 43.9158 14.836C44.9238 14.836 45.6198 14.104 45.6198 13.024C45.6198 11.944 44.9238 11.212 43.9158 11.212C42.9078 11.212 42.2118 11.944 42.2118 13.024ZM47.8963 13.024C47.8963 11.188 49.1083 9.892 50.8603 9.892C52.4803 9.892 53.5843 10.792 53.7403 12.22H52.2763C52.1083 11.548 51.6163 11.2 50.9203 11.2C49.9843 11.2 49.3603 11.908 49.3603 13.024C49.3603 14.14 49.9363 14.836 50.8723 14.836C51.6043 14.836 52.1203 14.476 52.2763 13.828H53.7523C53.5723 15.208 52.4203 16.156 50.8723 16.156C49.0723 16.156 47.8963 14.908 47.8963 13.024ZM56.3179 16H54.8659V7.072H56.3179V12.556L58.6219 10.072H60.4579L58.2019 12.424L60.4099 16H58.7299L57.1819 13.504L56.3179 14.404V16Z" fill="black"/>
</svg>
