<svg width="113" height="24" viewBox="0 0 113 24" fill="none" xmlns="http://www.w3.org/2000/svg">
<path d="M7.25 7H16.75V5C16.75 3 16 2 13.75 2H10.25C8 2 7.25 3 7.25 5V7Z" stroke="#1A1A1A" stroke-width="1.5" stroke-miterlimit="10" stroke-linecap="round" stroke-linejoin="round"/>
<path d="M16 15V19C16 21 15 22 13 22H11C9 22 8 21 8 19V15H16Z" stroke="#1A1A1A" stroke-width="1.5" stroke-miterlimit="10" stroke-linecap="round" stroke-linejoin="round"/>
<path d="M21 10V15C21 17 20 18 18 18H16V15H8V18H6C4 18 3 17 3 15V10C3 8 4 7 6 7H18C20 7 21 8 21 10Z" stroke="#1A1A1A" stroke-width="1.5" stroke-miterlimit="10" stroke-linecap="round" stroke-linejoin="round"/>
<path d="M17 15H15.79H7" stroke="#1A1A1A" stroke-width="1.5" stroke-miterlimit="10" stroke-linecap="round" stroke-linejoin="round"/>
<path d="M7 11H10" stroke="#1A1A1A" stroke-width="1.5" stroke-miterlimit="10" stroke-linecap="round" stroke-linejoin="round"/>
<path d="M38.44 12.976H36.508V16H34.972V7.228H38.44C40.204 7.228 41.344 8.38 41.344 10.096C41.344 11.788 40.192 12.976 38.44 12.976ZM38.14 8.596H36.508V11.608H38.116C39.172 11.608 39.736 11.044 39.736 10.084C39.736 9.124 39.16 8.596 38.14 8.596ZM46.1401 10.048V11.404H45.6001C44.5441 11.404 43.8841 11.968 43.8841 13.12V16H42.4201V10.084H43.8001L43.8841 10.948C44.1361 10.36 44.7001 9.964 45.4921 9.964C45.6961 9.964 45.9001 9.988 46.1401 10.048ZM47.863 8.884C47.359 8.884 46.963 8.488 46.963 7.996C46.963 7.504 47.359 7.12 47.863 7.12C48.343 7.12 48.739 7.504 48.739 7.996C48.739 8.488 48.343 8.884 47.863 8.884ZM47.131 16V10.072H48.595V16H47.131ZM51.5716 16H50.1076V10.072H51.4636L51.5836 10.84C51.9556 10.24 52.6756 9.892 53.4796 9.892C54.9676 9.892 55.7356 10.816 55.7356 12.352V16H54.2716V12.7C54.2716 11.704 53.7796 11.224 53.0236 11.224C52.1236 11.224 51.5716 11.848 51.5716 12.808V16ZM59.19 16H57.726V11.296H56.586V10.072H57.726V8.224H59.19V10.072H60.342V11.296H59.19V16ZM63.8455 16.156C62.0815 16.156 60.8455 14.872 60.8455 13.036C60.8455 11.176 62.0575 9.892 63.7975 9.892C65.5735 9.892 66.7015 11.08 66.7015 12.928V13.372L62.2375 13.384C62.3455 14.428 62.8975 14.956 63.8695 14.956C64.6735 14.956 65.2015 14.644 65.3695 14.08H66.7255C66.4735 15.376 65.3935 16.156 63.8455 16.156ZM63.8095 11.092C62.9455 11.092 62.4175 11.56 62.2735 12.448H65.2495C65.2495 11.632 64.6855 11.092 63.8095 11.092ZM71.5932 10.048V11.404H71.0532C69.9972 11.404 69.3372 11.968 69.3372 13.12V16H67.8732V10.084H69.2532L69.3372 10.948C69.5892 10.36 70.1532 9.964 70.9452 9.964C71.1492 9.964 71.3532 9.988 71.5932 10.048Z" fill="black"/>
</svg>
