<svg width="137" height="24" viewBox="0 0 137 24" fill="none" xmlns="http://www.w3.org/2000/svg">
<path d="M9.5 13.75C9.5 14.72 10.25 15.5 11.17 15.5H13.05C13.85 15.5 14.5 14.82 14.5 13.97C14.5 13.06 14.1 12.73 13.51 12.52L10.5 11.47C9.91 11.26 9.51001 10.94 9.51001 10.02C9.51001 9.17999 10.16 8.48999 10.96 8.48999H12.84C13.76 8.48999 14.51 9.26999 14.51 10.24" stroke="#1A1A1A" stroke-width="1.5" stroke-linecap="round" stroke-linejoin="round"/>
<path d="M12 7.5V16.5" stroke="#1A1A1A" stroke-width="1.5" stroke-linecap="round" stroke-linejoin="round"/>
<path d="M22 12C22 17.52 17.52 22 12 22C6.48 22 2 17.52 2 12C2 6.48 6.48 2 12 2" stroke="#1A1A1A" stroke-width="1.5" stroke-linecap="round" stroke-linejoin="round"/>
<path d="M22 6V2H18" stroke="#1A1A1A" stroke-width="1.5" stroke-linecap="round" stroke-linejoin="round"/>
<path d="M17 7L22 2" stroke="#1A1A1A" stroke-width="1.5" stroke-linecap="round" stroke-linejoin="round"/>
<path d="M36.46 17H34.972V8.228H36.46L39.292 15.212L42.124 8.228H43.636V17H42.148V14.3C42.148 12.536 42.148 12.02 42.232 11.396L40 17H38.584L36.364 11.408C36.448 11.936 36.46 12.764 36.46 13.856V17ZM45.0135 14.024C45.0135 12.176 46.3455 10.904 48.1815 10.904C50.0175 10.904 51.3495 12.176 51.3495 14.024C51.3495 15.872 50.0175 17.144 48.1815 17.144C46.3455 17.144 45.0135 15.872 45.0135 14.024ZM46.4775 14.024C46.4775 15.104 47.1735 15.836 48.1815 15.836C49.1895 15.836 49.8855 15.104 49.8855 14.024C49.8855 12.944 49.1895 12.212 48.1815 12.212C47.1735 12.212 46.4775 12.944 46.4775 14.024ZM53.9739 17H52.5099V11.072H53.8659L53.9859 11.84C54.3579 11.24 55.0779 10.892 55.8819 10.892C57.3699 10.892 58.1379 11.816 58.1379 13.352V17H56.6739V13.7C56.6739 12.704 56.1819 12.224 55.4259 12.224C54.5259 12.224 53.9739 12.848 53.9739 13.808V17ZM62.2283 17.156C60.4643 17.156 59.2283 15.872 59.2283 14.036C59.2283 12.176 60.4403 10.892 62.1803 10.892C63.9563 10.892 65.0843 12.08 65.0843 13.928V14.372L60.6203 14.384C60.7283 15.428 61.2803 15.956 62.2523 15.956C63.0563 15.956 63.5843 15.644 63.7523 15.08H65.1083C64.8563 16.376 63.7763 17.156 62.2283 17.156ZM62.1923 12.092C61.3283 12.092 60.8003 12.56 60.6563 13.448H63.6323C63.6323 12.632 63.0683 12.092 62.1923 12.092ZM65.5408 19.748V18.524H66.4168C66.9928 18.524 67.3528 18.392 67.6048 17.696L67.7728 17.252L65.3848 11.072H66.9328L68.4568 15.392L70.0648 11.072H71.5768L68.6728 18.32C68.2288 19.424 67.6048 19.88 66.6328 19.88C66.2248 19.88 65.8648 19.832 65.5408 19.748ZM71.9862 14.444V13.148H75.8502V14.444H71.9862ZM76.8039 15.2H78.1959C78.2079 15.716 78.5919 16.04 79.2639 16.04C79.9479 16.04 80.3199 15.764 80.3199 15.332C80.3199 15.032 80.1639 14.816 79.6359 14.696L78.5679 14.444C77.4999 14.204 76.9839 13.7 76.9839 12.752C76.9839 11.588 77.9679 10.892 79.3359 10.892C80.6679 10.892 81.5679 11.66 81.5799 12.812H80.1879C80.1759 12.308 79.8399 11.984 79.2759 11.984C78.6999 11.984 78.3639 12.248 78.3639 12.692C78.3639 13.028 78.6279 13.244 79.1319 13.364L80.1999 13.616C81.1959 13.844 81.6999 14.3 81.6999 15.212C81.6999 16.412 80.6799 17.156 79.2159 17.156C77.7399 17.156 76.8039 16.364 76.8039 15.2ZM85.4666 17.156C83.7026 17.156 82.4666 15.872 82.4666 14.036C82.4666 12.176 83.6786 10.892 85.4186 10.892C87.1946 10.892 88.3226 12.08 88.3226 13.928V14.372L83.8586 14.384C83.9666 15.428 84.5186 15.956 85.4906 15.956C86.2946 15.956 86.8226 15.644 86.9906 15.08H88.3466C88.0946 16.376 87.0146 17.156 85.4666 17.156ZM85.4306 12.092C84.5666 12.092 84.0386 12.56 83.8946 13.448H86.8706C86.8706 12.632 86.3066 12.092 85.4306 12.092ZM90.9583 17H89.4943V11.072H90.8503L90.9703 11.84C91.3423 11.24 92.0623 10.892 92.8663 10.892C94.3543 10.892 95.1223 11.816 95.1223 13.352V17H93.6583V13.7C93.6583 12.704 93.1663 12.224 92.4103 12.224C91.5103 12.224 90.9583 12.848 90.9583 13.808V17ZM98.9967 17.156C97.2807 17.156 96.2127 15.896 96.2127 14.06C96.2127 12.212 97.2927 10.892 99.0807 10.892C99.9087 10.892 100.641 11.24 101.013 11.828V8.072H102.465V17H101.121L101.025 16.076C100.665 16.76 99.8967 17.156 98.9967 17.156ZM99.3207 15.812C100.341 15.812 101.001 15.08 101.001 14.012C101.001 12.944 100.341 12.2 99.3207 12.2C98.3007 12.2 97.6767 12.956 97.6767 14.012C97.6767 15.068 98.3007 15.812 99.3207 15.812Z" fill="black"/>
</svg>
