<svg width="125" height="24" viewBox="0 0 125 24" fill="none" xmlns="http://www.w3.org/2000/svg">
<path d="M3.09961 9.8V6.4L11.9996 2L20.8996 6.4V9.8" stroke="#1A1A1A" stroke-width="1.5" stroke-miterlimit="10" stroke-linecap="round" stroke-linejoin="round"/>
<path d="M3.09961 14.2V17.6L11.9996 22L20.8996 17.6V14.2" stroke="#1A1A1A" stroke-width="1.5" stroke-miterlimit="10" stroke-linecap="round" stroke-linejoin="round"/>
<path d="M12 21.9999V16.3999" stroke="#1A1A1A" stroke-width="1.5" stroke-miterlimit="10" stroke-linecap="round" stroke-linejoin="round"/>
<path d="M11.9996 16.4001C14.4297 16.4001 16.3996 14.4302 16.3996 12.0001C16.3996 9.57004 14.4297 7.6001 11.9996 7.6001C9.56956 7.6001 7.59961 9.57004 7.59961 12.0001C7.59961 14.4302 9.56956 16.4001 11.9996 16.4001Z" stroke="#1A1A1A" stroke-width="1.5" stroke-miterlimit="10"/>
<path d="M35.728 16H34.132L37.3 7.228H38.872L42.04 16H40.42L39.712 13.972H36.436L35.728 16ZM37.888 9.844L36.892 12.676H39.268L38.26 9.844C38.188 9.616 38.104 9.352 38.08 9.172C38.044 9.34 37.972 9.604 37.888 9.844ZM44.388 16H42.924V10.072H44.28L44.4 10.84C44.772 10.24 45.492 9.892 46.296 9.892C47.784 9.892 48.552 10.816 48.552 12.352V16H47.088V12.7C47.088 11.704 46.596 11.224 45.84 11.224C44.94 11.224 44.388 11.848 44.388 12.808V16ZM51.4664 16H50.0144V7.072H51.4664V12.556L53.7704 10.072H55.6064L53.3504 12.424L55.5584 16H53.8784L52.3304 13.504L51.4664 14.404V16ZM60.1674 10.048V11.404H59.6274C58.5714 11.404 57.9114 11.968 57.9114 13.12V16H56.4474V10.084H57.8274L57.9114 10.948C58.1634 10.36 58.7274 9.964 59.5194 9.964C59.7234 9.964 59.9274 9.988 60.1674 10.048ZM60.7128 13.444V12.148H64.5768V13.444H60.7128ZM69.0085 18.292H67.8445C66.6445 16.924 65.8525 14.776 65.8525 12.472C65.8525 10.372 66.5245 8.164 67.8445 6.664H69.0085C68.0125 8.02 67.3285 10.144 67.3285 12.472C67.3285 14.596 67.9165 16.804 69.0085 18.292ZM71.5239 16.156C70.2639 16.156 69.4959 15.424 69.4959 14.308C69.4959 13.216 70.2879 12.532 71.6919 12.424L73.4679 12.292V12.16C73.4679 11.356 72.9879 11.032 72.2439 11.032C71.3799 11.032 70.8999 11.392 70.8999 12.016H69.6519C69.6519 10.732 70.7079 9.892 72.3159 9.892C73.9119 9.892 74.8959 10.756 74.8959 12.4V16H73.6119L73.5039 15.124C73.2519 15.736 72.4479 16.156 71.5239 16.156ZM72.0039 15.052C72.9039 15.052 73.4799 14.512 73.4799 13.6V13.288L72.2439 13.384C71.3319 13.468 70.9839 13.768 70.9839 14.248C70.9839 14.788 71.3439 15.052 72.0039 15.052ZM77.7981 16H76.3341V10.072H77.6901L77.8101 10.84C78.1821 10.24 78.9021 9.892 79.7061 9.892C81.1941 9.892 81.9621 10.816 81.9621 12.352V16H80.4981V12.7C80.4981 11.704 80.0061 11.224 79.2501 11.224C78.3501 11.224 77.7981 11.848 77.7981 12.808V16ZM84.8765 16H83.4245V7.072H84.8765V12.556L87.1805 10.072H89.0165L86.7605 12.424L88.9685 16H87.2885L85.7405 13.504L84.8765 14.404V16ZM93.5776 10.048V11.404H93.0376C91.9816 11.404 91.3216 11.968 91.3216 13.12V16H89.8576V10.084H91.2376L91.3216 10.948C91.5736 10.36 92.1376 9.964 92.9296 9.964C93.1336 9.964 93.3376 9.988 93.5776 10.048ZM94.9765 18.292H93.8125C94.9165 16.804 95.4925 14.596 95.4925 12.472C95.4925 10.144 94.8085 8.02 93.8125 6.664H94.9765C96.2965 8.164 96.9805 10.372 96.9805 12.472C96.9805 14.776 96.1765 16.924 94.9765 18.292Z" fill="black"/>
</svg>
