<svg width="109" height="24" viewBox="0 0 109 24" fill="none" xmlns="http://www.w3.org/2000/svg">
<path d="M10.4901 2.23006L5.50015 4.10006C4.35015 4.53006 3.41016 5.89006 3.41016 7.12006V14.5501C3.41016 15.7301 4.19017 17.2801 5.14017 17.9901L9.44016 21.2001C10.8502 22.2601 13.1701 22.2601 14.5801 21.2001L18.8802 17.9901C19.8302 17.2801 20.6101 15.7301 20.6101 14.5501V7.12006C20.6101 5.89006 19.6701 4.53006 18.5201 4.10006L13.5302 2.23006C12.6802 1.92006 11.3201 1.92006 10.4901 2.23006Z" stroke="#1A1A1A" stroke-width="1.5" stroke-linecap="round" stroke-linejoin="round"/>
<path d="M12 15.5C14.2091 15.5 16 13.7091 16 11.5C16 9.29086 14.2091 7.5 12 7.5C9.79086 7.5 8 9.29086 8 11.5C8 13.7091 9.79086 15.5 12 15.5Z" stroke="#1A1A1A" stroke-width="1.5" stroke-miterlimit="10" stroke-linecap="round" stroke-linejoin="round"/>
<path d="M12.25 10.25V11.18C12.25 11.53 12.07 11.86 11.76 12.04L11 12.5" stroke="#1A1A1A" stroke-width="1.5" stroke-miterlimit="10" stroke-linecap="round" stroke-linejoin="round"/>
<path d="M34.468 10.676C34.468 9.14 35.74 8.072 37.588 8.072C39.364 8.072 40.492 9.056 40.54 10.64H39.004C38.968 9.884 38.428 9.44 37.564 9.44C36.616 9.44 36.004 9.896 36.004 10.628C36.004 11.252 36.34 11.6 37.072 11.768L38.452 12.068C39.952 12.392 40.684 13.16 40.684 14.468C40.684 16.1 39.412 17.156 37.48 17.156C35.608 17.156 34.384 16.16 34.348 14.588H35.884C35.896 15.332 36.496 15.776 37.48 15.776C38.5 15.776 39.148 15.332 39.148 14.6C39.148 14.012 38.848 13.664 38.128 13.508L36.736 13.196C35.248 12.872 34.468 12.02 34.468 10.676ZM44.5096 17.156C42.7456 17.156 41.5096 15.872 41.5096 14.036C41.5096 12.176 42.7216 10.892 44.4616 10.892C46.2376 10.892 47.3656 12.08 47.3656 13.928V14.372L42.9016 14.384C43.0096 15.428 43.5616 15.956 44.5336 15.956C45.3376 15.956 45.8656 15.644 46.0336 15.08H47.3896C47.1376 16.376 46.0576 17.156 44.5096 17.156ZM44.4736 12.092C43.6096 12.092 43.0816 12.56 42.9376 13.448H45.9136C45.9136 12.632 45.3496 12.092 44.4736 12.092ZM48.1893 14.024C48.1893 12.188 49.4013 10.892 51.1533 10.892C52.7733 10.892 53.8773 11.792 54.0333 13.22H52.5693C52.4013 12.548 51.9093 12.2 51.2133 12.2C50.2773 12.2 49.6533 12.908 49.6533 14.024C49.6533 15.14 50.2293 15.836 51.1653 15.836C51.8973 15.836 52.4133 15.476 52.5693 14.828H54.0453C53.8653 16.208 52.7133 17.156 51.1653 17.156C49.3652 17.156 48.1893 15.908 48.1893 14.024ZM59.1549 11.072H60.6189V17H59.2629L59.1549 16.208C58.7949 16.772 58.0269 17.156 57.2349 17.156C55.8669 17.156 55.0629 16.232 55.0629 14.78V11.072H56.5269V14.264C56.5269 15.392 56.9709 15.848 57.7869 15.848C58.7109 15.848 59.1549 15.308 59.1549 14.18V11.072ZM65.851 11.048V12.404H65.311C64.255 12.404 63.595 12.968 63.595 14.12V17H62.131V11.084H63.511L63.595 11.948C63.847 11.36 64.411 10.964 65.203 10.964C65.407 10.964 65.611 10.988 65.851 11.048ZM67.5739 9.884C67.0699 9.884 66.6739 9.488 66.6739 8.996C66.6739 8.504 67.0699 8.12 67.5739 8.12C68.0539 8.12 68.4499 8.504 68.4499 8.996C68.4499 9.488 68.0539 9.884 67.5739 9.884ZM66.8419 17V11.072H68.3059V17H66.8419ZM71.8345 17H70.3705V12.296H69.2305V11.072H70.3705V9.224H71.8345V11.072H72.9865V12.296H71.8345V17ZM73.3806 19.748V18.524H74.2566C74.8326 18.524 75.1926 18.392 75.4446 17.696L75.6126 17.252L73.2246 11.072H74.7726L76.2966 15.392L77.9046 11.072H79.4166L76.5126 18.32C76.0686 19.424 75.4446 19.88 74.4726 19.88C74.0646 19.88 73.7046 19.832 73.3806 19.748ZM79.826 14.444V13.148H83.69V14.444H79.826ZM86.9634 17H85.4994V12.296H84.3594V11.072H85.4994V9.224H86.9634V11.072H88.1154V12.296H86.9634V17ZM89.7575 9.884C89.2535 9.884 88.8575 9.488 88.8575 8.996C88.8575 8.504 89.2535 8.12 89.7575 8.12C90.2375 8.12 90.6335 8.504 90.6335 8.996C90.6335 9.488 90.2375 9.884 89.7575 9.884ZM89.0255 17V11.072H90.4895V17H89.0255ZM93.4661 17H92.0021V11.072H93.3461L93.4661 11.768C93.7661 11.276 94.3661 10.892 95.2181 10.892C96.1181 10.892 96.7421 11.336 97.0541 12.02C97.3541 11.336 98.0501 10.892 98.9501 10.892C100.39 10.892 101.182 11.756 101.182 13.124V17H99.7301V13.508C99.7301 12.656 99.2741 12.212 98.5781 12.212C97.8701 12.212 97.3301 12.668 97.3301 13.64V17H95.8661V13.496C95.8661 12.668 95.4221 12.224 94.7261 12.224C94.0301 12.224 93.4661 12.68 93.4661 13.64V17ZM105.271 17.156C103.507 17.156 102.271 15.872 102.271 14.036C102.271 12.176 103.483 10.892 105.223 10.892C106.999 10.892 108.127 12.08 108.127 13.928V14.372L103.663 14.384C103.771 15.428 104.323 15.956 105.295 15.956C106.099 15.956 106.627 15.644 106.795 15.08H108.151C107.899 16.376 106.819 17.156 105.271 17.156ZM105.235 12.092C104.371 12.092 103.843 12.56 103.699 13.448H106.675C106.675 12.632 106.111 12.092 105.235 12.092Z" fill="black"/>
</svg>
