<svg width="107" height="24" viewBox="0 0 107 24" fill="none" xmlns="http://www.w3.org/2000/svg">
<path d="M9 22H15C20 22 22 20 22 15V9C22 4 20 2 15 2H9C4 2 2 4 2 9V15C2 20 4 22 9 22Z" stroke="#1A1A1A" stroke-width="1.5" stroke-linecap="round" stroke-linejoin="round"/>
<path d="M18 6L6 18" stroke="#1A1A1A" stroke-width="1.5" stroke-linecap="round" stroke-linejoin="round"/>
<path d="M18 10V6H14" stroke="#1A1A1A" stroke-width="1.5" stroke-linecap="round" stroke-linejoin="round"/>
<path d="M6 14V18H10" stroke="#1A1A1A" stroke-width="1.5" stroke-linecap="round" stroke-linejoin="round"/>
<path d="M6 6L18 18" stroke="#1A1A1A" stroke-width="1.5" stroke-linecap="round" stroke-linejoin="round"/>
<path d="M6 10V6H10" stroke="#1A1A1A" stroke-width="1.5" stroke-linecap="round" stroke-linejoin="round"/>
<path d="M18 14V18H14" stroke="#1A1A1A" stroke-width="1.5" stroke-linecap="round" stroke-linejoin="round"/>
<path d="M36.46 16H34.972V7.228H36.46L39.292 14.212L42.124 7.228H43.636V16H42.148V13.3C42.148 11.536 42.148 11.02 42.232 10.396L40 16H38.584L36.364 10.408C36.448 10.936 36.46 11.764 36.46 12.856V16ZM47.1255 16.156C45.8655 16.156 45.0975 15.424 45.0975 14.308C45.0975 13.216 45.8895 12.532 47.2935 12.424L49.0695 12.292V12.16C49.0695 11.356 48.5895 11.032 47.8455 11.032C46.9815 11.032 46.5015 11.392 46.5015 12.016H45.2535C45.2535 10.732 46.3095 9.892 47.9175 9.892C49.5135 9.892 50.4975 10.756 50.4975 12.4V16H49.2135L49.1055 15.124C48.8535 15.736 48.0495 16.156 47.1255 16.156ZM47.6055 15.052C48.5055 15.052 49.0815 14.512 49.0815 13.6V13.288L47.8455 13.384C46.9335 13.468 46.5855 13.768 46.5855 14.248C46.5855 14.788 46.9455 15.052 47.6055 15.052ZM52.9677 16H51.2997L53.3397 13.096L51.2997 10.072H53.0037L54.3117 12.088L55.5717 10.072H57.2157L55.1997 13.072L57.1557 16H55.4757L54.2157 14.044L52.9677 16ZM58.82 8.884C58.316 8.884 57.92 8.488 57.92 7.996C57.92 7.504 58.316 7.12 58.82 7.12C59.3 7.12 59.696 7.504 59.696 7.996C59.696 8.488 59.3 8.884 58.82 8.884ZM58.088 16V10.072H59.552V16H58.088ZM62.5286 16H61.0646V10.072H62.4086L62.5286 10.768C62.8286 10.276 63.4286 9.892 64.2806 9.892C65.1806 9.892 65.8046 10.336 66.1166 11.02C66.4166 10.336 67.1126 9.892 68.0126 9.892C69.4526 9.892 70.2446 10.756 70.2446 12.124V16H68.7926V12.508C68.7926 11.656 68.3366 11.212 67.6406 11.212C66.9326 11.212 66.3926 11.668 66.3926 12.64V16H64.9286V12.496C64.9286 11.668 64.4846 11.224 63.7886 11.224C63.0926 11.224 62.5286 11.68 62.5286 12.64V16ZM72.4138 8.884C71.9098 8.884 71.5138 8.488 71.5138 7.996C71.5138 7.504 71.9098 7.12 72.4138 7.12C72.8938 7.12 73.2898 7.504 73.2898 7.996C73.2898 8.488 72.8938 8.884 72.4138 8.884ZM71.6818 16V10.072H73.1458V16H71.6818ZM79.1343 16H74.3463V14.8L77.2983 11.296H74.3463V10.072H79.1343V11.284L76.1343 14.776H79.1343V16ZM82.9119 16.156C81.1479 16.156 79.9119 14.872 79.9119 13.036C79.9119 11.176 81.1239 9.892 82.8639 9.892C84.6399 9.892 85.7679 11.08 85.7679 12.928V13.372L81.3039 13.384C81.4119 14.428 81.9639 14.956 82.9359 14.956C83.7399 14.956 84.2679 14.644 84.4359 14.08H85.7919C85.5399 15.376 84.4599 16.156 82.9119 16.156ZM82.8759 11.092C82.0119 11.092 81.4839 11.56 81.3399 12.448H84.3159C84.3159 11.632 83.7519 11.092 82.8759 11.092Z" fill="black"/>
</svg>
