<svg width="113" height="24" viewBox="0 0 113 24" fill="none" xmlns="http://www.w3.org/2000/svg">
<path d="M12 2V9L14 7" stroke="#1A1A1A" stroke-width="1.5" stroke-linecap="round" stroke-linejoin="round"/>
<path d="M12 9L10 7" stroke="#1A1A1A" stroke-width="1.5" stroke-linecap="round" stroke-linejoin="round"/>
<path d="M1.98047 13H6.39047C6.77047 13 7.11047 13.21 7.28047 13.55L8.45047 15.89C8.79047 16.57 9.48047 17 10.2405 17H13.7705C14.5305 17 15.2205 16.57 15.5605 15.89L16.7305 13.55C16.9005 13.21 17.2505 13 17.6205 13H21.9805" stroke="#1A1A1A" stroke-width="1.5" stroke-linecap="round" stroke-linejoin="round"/>
<path d="M7 4.13C3.46 4.65 2 6.73 2 11V15C2 20 4 22 9 22H15C20 22 22 20 22 15V11C22 6.73 20.54 4.65 17 4.13" stroke="#1A1A1A" stroke-width="1.5" stroke-linecap="round" stroke-linejoin="round"/>
<path d="M38.128 17H34.972V8.228H38.044C40.636 8.228 42.424 10.016 42.424 12.632C42.424 15.212 40.672 17 38.128 17ZM37.9 9.644H36.508V15.584H37.984C39.736 15.584 40.804 14.456 40.804 12.632C40.804 10.772 39.712 9.644 37.9 9.644ZM44.3708 9.884C43.8668 9.884 43.4708 9.488 43.4708 8.996C43.4708 8.504 43.8668 8.12 44.3708 8.12C44.8508 8.12 45.2468 8.504 45.2468 8.996C45.2468 9.488 44.8508 9.884 44.3708 9.884ZM43.6388 17V11.072H45.1028V17H43.6388ZM50.3354 11.048V12.404H49.7954C48.7394 12.404 48.0794 12.968 48.0794 14.12V17H46.6154V11.084H47.9954L48.0794 11.948C48.3314 11.36 48.8954 10.964 49.6874 10.964C49.8914 10.964 50.0954 10.988 50.3354 11.048ZM53.7791 17.156C52.0151 17.156 50.7791 15.872 50.7791 14.036C50.7791 12.176 51.9911 10.892 53.7311 10.892C55.5071 10.892 56.6351 12.08 56.6351 13.928V14.372L52.1711 14.384C52.2791 15.428 52.8311 15.956 53.8031 15.956C54.6071 15.956 55.1351 15.644 55.3031 15.08H56.6591C56.4071 16.376 55.3271 17.156 53.7791 17.156ZM53.7431 12.092C52.8791 12.092 52.3511 12.56 52.2071 13.448H55.1831C55.1831 12.632 54.6191 12.092 53.7431 12.092ZM57.4588 14.024C57.4588 12.188 58.6708 10.892 60.4228 10.892C62.0428 10.892 63.1468 11.792 63.3028 13.22H61.8388C61.6708 12.548 61.1788 12.2 60.4828 12.2C59.5468 12.2 58.9228 12.908 58.9228 14.024C58.9228 15.14 59.4988 15.836 60.4348 15.836C61.1668 15.836 61.6828 15.476 61.8388 14.828H63.3148C63.1348 16.208 61.9828 17.156 60.4348 17.156C58.6348 17.156 57.4588 15.908 57.4588 14.024ZM66.4204 17H64.9564V12.296H63.8164V11.072H64.9564V9.224H66.4204V11.072H67.5724V12.296H66.4204V17ZM68.2362 14.444V13.148H72.1002V14.444H68.2362ZM74.3239 9.884C73.8199 9.884 73.4239 9.488 73.4239 8.996C73.4239 8.504 73.8199 8.12 74.3239 8.12C74.8039 8.12 75.1999 8.504 75.1999 8.996C75.1999 9.488 74.8039 9.884 74.3239 9.884ZM73.5919 17V11.072H75.0559V17H73.5919ZM78.0325 17H76.5685V11.072H77.9245L78.0445 11.84C78.4165 11.24 79.1365 10.892 79.9405 10.892C81.4285 10.892 82.1965 11.816 82.1965 13.352V17H80.7325V13.7C80.7325 12.704 80.2405 12.224 79.4845 12.224C78.5845 12.224 78.0325 12.848 78.0325 13.808V17ZM84.9909 17H83.6349V8.072H85.0989V11.936C85.4829 11.276 86.2749 10.88 87.1749 10.88C88.8669 10.88 89.8989 12.2 89.8989 14.072C89.8989 15.896 88.7829 17.156 87.0789 17.156C86.1909 17.156 85.4349 16.76 85.0869 16.076L84.9909 17ZM85.1109 14.012C85.1109 15.08 85.7709 15.812 86.7789 15.812C87.8109 15.812 88.4229 15.068 88.4229 14.012C88.4229 12.956 87.8109 12.2 86.7789 12.2C85.7709 12.2 85.1109 12.944 85.1109 14.012ZM90.7166 14.024C90.7166 12.176 92.0486 10.904 93.8846 10.904C95.7206 10.904 97.0526 12.176 97.0526 14.024C97.0526 15.872 95.7206 17.144 93.8846 17.144C92.0486 17.144 90.7166 15.872 90.7166 14.024ZM92.1806 14.024C92.1806 15.104 92.8766 15.836 93.8846 15.836C94.8926 15.836 95.5886 15.104 95.5886 14.024C95.5886 12.944 94.8926 12.212 93.8846 12.212C92.8766 12.212 92.1806 12.944 92.1806 14.024ZM98.9755 17H97.3075L99.3475 14.096L97.3075 11.072H99.0115L100.32 13.088L101.58 11.072H103.224L101.208 14.072L103.164 17H101.484L100.224 15.044L98.9755 17Z" fill="black"/>
</svg>
