<svg width="129" height="24" viewBox="0 0 129 24" fill="none" xmlns="http://www.w3.org/2000/svg">
<path d="M2 12.6101H19" stroke="#1A1A1A" stroke-width="1.5" stroke-miterlimit="10" stroke-linecap="round" stroke-linejoin="round"/>
<path d="M19 10.28V17.43C18.97 20.28 18.19 21 15.22 21H5.78003C2.76003 21 2 20.2501 2 17.2701V10.28C2 7.58005 2.63 6.71005 5 6.57005C5.24 6.56005 5.50003 6.55005 5.78003 6.55005H15.22C18.24 6.55005 19 7.30005 19 10.28Z" stroke="#1A1A1A" stroke-width="1.5" stroke-linecap="round" stroke-linejoin="round"/>
<path d="M22 6.73V13.72C22 16.42 21.37 17.29 19 17.43V10.28C19 7.3 18.24 6.55 15.22 6.55H5.78003C5.50003 6.55 5.24 6.56 5 6.57C5.03 3.72 5.81003 3 8.78003 3H18.22C21.24 3 22 3.75 22 6.73Z" stroke="#1A1A1A" stroke-width="1.5" stroke-linecap="round" stroke-linejoin="round"/>
<path d="M5.25 17.8101H6.96997" stroke="#1A1A1A" stroke-width="1.5" stroke-miterlimit="10" stroke-linecap="round" stroke-linejoin="round"/>
<path d="M9.10938 17.8101H12.5494" stroke="#1A1A1A" stroke-width="1.5" stroke-miterlimit="10" stroke-linecap="round" stroke-linejoin="round"/>
<path d="M38.68 16.144C36.124 16.144 34.468 14.368 34.468 11.62C34.468 8.896 36.184 7.084 38.752 7.084C40.828 7.084 42.376 8.296 42.676 10.18H41.056C40.756 9.16 39.88 8.56 38.716 8.56C37.096 8.56 36.076 9.736 36.076 11.608C36.076 13.468 37.108 14.668 38.716 14.668C39.904 14.668 40.816 14.044 41.104 13.072H42.7C42.364 14.92 40.756 16.144 38.68 16.144ZM45.5083 16.156C44.2483 16.156 43.4803 15.424 43.4803 14.308C43.4803 13.216 44.2723 12.532 45.6763 12.424L47.4523 12.292V12.16C47.4523 11.356 46.9723 11.032 46.2283 11.032C45.3643 11.032 44.8843 11.392 44.8843 12.016H43.6363C43.6363 10.732 44.6923 9.892 46.3003 9.892C47.8963 9.892 48.8803 10.756 48.8803 12.4V16H47.5963L47.4883 15.124C47.2363 15.736 46.4323 16.156 45.5083 16.156ZM45.9883 15.052C46.8883 15.052 47.4643 14.512 47.4643 13.6V13.288L46.2283 13.384C45.3163 13.468 44.9683 13.768 44.9683 14.248C44.9683 14.788 45.3283 15.052 45.9883 15.052ZM54.0385 10.048V11.404H53.4985C52.4425 11.404 51.7825 11.968 51.7825 13.12V16H50.3185V10.084H51.6985L51.7825 10.948C52.0345 10.36 52.5985 9.964 53.3905 9.964C53.5945 9.964 53.7985 9.988 54.0385 10.048ZM57.2662 16.156C55.5502 16.156 54.4822 14.896 54.4822 13.06C54.4822 11.212 55.5622 9.892 57.3502 9.892C58.1782 9.892 58.9102 10.24 59.2822 10.828V7.072H60.7342V16H59.3902L59.2942 15.076C58.9342 15.76 58.1662 16.156 57.2662 16.156ZM57.5902 14.812C58.6102 14.812 59.2702 14.08 59.2702 13.012C59.2702 11.944 58.6102 11.2 57.5902 11.2C56.5702 11.2 55.9462 11.956 55.9462 13.012C55.9462 14.068 56.5702 14.812 57.5902 14.812ZM61.8039 14.2H63.1959C63.2079 14.716 63.5919 15.04 64.2639 15.04C64.9479 15.04 65.3199 14.764 65.3199 14.332C65.3199 14.032 65.1639 13.816 64.6359 13.696L63.5679 13.444C62.4999 13.204 61.9839 12.7 61.9839 11.752C61.9839 10.588 62.9679 9.892 64.3359 9.892C65.6679 9.892 66.5679 10.66 66.5799 11.812H65.1879C65.1759 11.308 64.8399 10.984 64.2759 10.984C63.6999 10.984 63.3639 11.248 63.3639 11.692C63.3639 12.028 63.6279 12.244 64.1319 12.364L65.1999 12.616C66.1959 12.844 66.6999 13.3 66.6999 14.212C66.6999 15.412 65.6799 16.156 64.2159 16.156C62.7399 16.156 61.8039 15.364 61.8039 14.2Z" fill="black"/>
</svg>
