<svg width="101" height="24" viewBox="0 0 101 24" fill="none" xmlns="http://www.w3.org/2000/svg">
<path d="M22 4.6697V16.7397C22 17.6997 21.22 18.5997 20.26 18.7197L19.93 18.7597C17.75 19.0497 14.39 20.1597 12.47 21.2197C12.21 21.3697 11.78 21.3697 11.51 21.2197L11.47 21.1997C9.54997 20.1497 6.20003 19.0497 4.03003 18.7597L3.73999 18.7197C2.77999 18.5997 2 17.6997 2 16.7397V4.65969C2 3.46969 2.96997 2.5697 4.15997 2.6697C6.25997 2.8397 9.43997 3.89973 11.22 5.00973L11.47 5.15969C11.76 5.33969 12.24 5.33969 12.53 5.15969L12.7 5.04971C13.33 4.65971 14.13 4.2697 15 3.9197V7.99972L17 6.6697L19 7.99972V2.77975C19.27 2.72975 19.53 2.69971 19.77 2.67971H19.83C21.02 2.57971 22 3.4697 22 4.6697Z" stroke="#1A1A1A" stroke-width="1.5" stroke-linecap="round" stroke-linejoin="round"/>
<path d="M12 5.49023V20.4902" stroke="#1A1A1A" stroke-width="1.5" stroke-linecap="round" stroke-linejoin="round"/>
<path d="M19 2.78027V8.00024L17 6.67023L15 8.00024V3.92023C16.31 3.40023 17.77 2.98027 19 2.78027Z" stroke="#1A1A1A" stroke-width="1.5" stroke-linecap="round" stroke-linejoin="round"/>
<path d="M34.972 16V7.228H38.464C40.192 7.228 41.248 8.128 41.248 9.592C41.248 10.564 40.816 11.26 39.988 11.608C40.912 11.908 41.38 12.604 41.38 13.624C41.38 15.124 40.336 16 38.524 16H34.972ZM38.332 8.584H36.508V10.972H38.368C39.208 10.972 39.676 10.528 39.676 9.748C39.676 8.992 39.196 8.584 38.332 8.584ZM38.464 12.268H36.508V14.644H38.464C39.328 14.644 39.808 14.224 39.808 13.432C39.808 12.688 39.316 12.268 38.464 12.268ZM42.2244 13.024C42.2244 11.176 43.5564 9.904 45.3924 9.904C47.2284 9.904 48.5604 11.176 48.5604 13.024C48.5604 14.872 47.2284 16.144 45.3924 16.144C43.5564 16.144 42.2244 14.872 42.2244 13.024ZM43.6884 13.024C43.6884 14.104 44.3844 14.836 45.3924 14.836C46.4004 14.836 47.0964 14.104 47.0964 13.024C47.0964 11.944 46.4004 11.212 45.3924 11.212C44.3844 11.212 43.6884 11.944 43.6884 13.024ZM49.3728 13.024C49.3728 11.176 50.7048 9.904 52.5408 9.904C54.3768 9.904 55.7088 11.176 55.7088 13.024C55.7088 14.872 54.3768 16.144 52.5408 16.144C50.7048 16.144 49.3728 14.872 49.3728 13.024ZM50.8368 13.024C50.8368 14.104 51.5328 14.836 52.5408 14.836C53.5488 14.836 54.2448 14.104 54.2448 13.024C54.2448 11.944 53.5488 11.212 52.5408 11.212C51.5328 11.212 50.8368 11.944 50.8368 13.024ZM58.3453 16H56.8933V7.072H58.3453V12.556L60.6493 10.072H62.4853L60.2293 12.424L62.4373 16H60.7573L59.2093 13.504L58.3453 14.404V16ZM62.5409 13.444V12.148H66.4049V13.444H62.5409ZM67.3586 14.2H68.7506C68.7626 14.716 69.1466 15.04 69.8186 15.04C70.5026 15.04 70.8746 14.764 70.8746 14.332C70.8746 14.032 70.7186 13.816 70.1906 13.696L69.1226 13.444C68.0546 13.204 67.5386 12.7 67.5386 11.752C67.5386 10.588 68.5226 9.892 69.8906 9.892C71.2226 9.892 72.1226 10.66 72.1346 11.812H70.7426C70.7306 11.308 70.3946 10.984 69.8306 10.984C69.2546 10.984 68.9186 11.248 68.9186 11.692C68.9186 12.028 69.1826 12.244 69.6866 12.364L70.7546 12.616C71.7506 12.844 72.2546 13.3 72.2546 14.212C72.2546 15.412 71.2346 16.156 69.7706 16.156C68.2946 16.156 67.3586 15.364 67.3586 14.2ZM75.1333 16.156C73.8733 16.156 73.1053 15.424 73.1053 14.308C73.1053 13.216 73.8973 12.532 75.3013 12.424L77.0773 12.292V12.16C77.0773 11.356 76.5973 11.032 75.8533 11.032C74.9893 11.032 74.5093 11.392 74.5093 12.016H73.2613C73.2613 10.732 74.3173 9.892 75.9253 9.892C77.5213 9.892 78.5053 10.756 78.5053 12.4V16H77.2213L77.1133 15.124C76.8613 15.736 76.0573 16.156 75.1333 16.156ZM75.6133 15.052C76.5133 15.052 77.0893 14.512 77.0893 13.6V13.288L75.8533 13.384C74.9413 13.468 74.5933 13.768 74.5933 14.248C74.5933 14.788 74.9533 15.052 75.6133 15.052ZM81.3891 16L79.0371 10.072H80.5971L81.6291 12.796C81.8811 13.504 82.0851 14.116 82.1571 14.44C82.2411 14.068 82.4571 13.444 82.7091 12.796L83.7891 10.072H85.3011L82.8291 16H81.3891ZM88.5018 16.156C86.7378 16.156 85.5018 14.872 85.5018 13.036C85.5018 11.176 86.7138 9.892 88.4538 9.892C90.2298 9.892 91.3578 11.08 91.3578 12.928V13.372L86.8938 13.384C87.0018 14.428 87.5538 14.956 88.5258 14.956C89.3298 14.956 89.8578 14.644 90.0258 14.08H91.3818C91.1298 15.376 90.0498 16.156 88.5018 16.156ZM88.4658 11.092C87.6018 11.092 87.0738 11.56 86.9298 12.448H89.9058C89.9058 11.632 89.3418 11.092 88.4658 11.092ZM94.9654 16.156C93.2494 16.156 92.1814 14.896 92.1814 13.06C92.1814 11.212 93.2614 9.892 95.0494 9.892C95.8774 9.892 96.6094 10.24 96.9814 10.828V7.072H98.4334V16H97.0894L96.9934 15.076C96.6334 15.76 95.8654 16.156 94.9654 16.156ZM95.2894 14.812C96.3094 14.812 96.9694 14.08 96.9694 13.012C96.9694 11.944 96.3094 11.2 95.2894 11.2C94.2694 11.2 93.6454 11.956 93.6454 13.012C93.6454 14.068 94.2694 14.812 95.2894 14.812Z" fill="black"/>
</svg>
