<svg width="158" height="24" viewBox="0 0 158 24" fill="none" xmlns="http://www.w3.org/2000/svg">
<path d="M3 4.5H21" stroke="#1A1A1A" stroke-width="1.5" stroke-linecap="round" stroke-linejoin="round"/>
<path d="M3 9.5H21" stroke="#1A1A1A" stroke-width="1.5" stroke-linecap="round" stroke-linejoin="round"/>
<path d="M3 14.5H21" stroke="#1A1A1A" stroke-width="1.5" stroke-linecap="round" stroke-linejoin="round"/>
<path d="M3 19.5H21" stroke="#1A1A1A" stroke-width="1.5" stroke-linecap="round" stroke-linejoin="round"/>
<path d="M34.204 9.644V8.228H40.876V9.644H38.308V17H36.772V9.644H34.204ZM43.4783 17.156C41.7143 17.156 40.4783 15.872 40.4783 14.036C40.4783 12.176 41.6903 10.892 43.4303 10.892C45.2063 10.892 46.3343 12.08 46.3343 13.928V14.372L41.8703 14.384C41.9783 15.428 42.5303 15.956 43.5023 15.956C44.3063 15.956 44.8343 15.644 45.0023 15.08H46.3583C46.1063 16.376 45.0263 17.156 43.4783 17.156ZM43.4423 12.092C42.5783 12.092 42.0503 12.56 41.9063 13.448H44.8823C44.8823 12.632 44.3183 12.092 43.4423 12.092ZM48.2685 17H46.6005L48.6405 14.096L46.6005 11.072H48.3045L49.6125 13.088L50.8725 11.072H52.5165L50.5005 14.072L52.4565 17H50.7765L49.5165 15.044L48.2685 17ZM55.6392 17H54.1752V12.296H53.0352V11.072H54.1752V9.224H55.6392V11.072H56.7912V12.296H55.6392V17ZM59.4302 17.156C58.1702 17.156 57.4022 16.424 57.4022 15.308C57.4022 14.216 58.1942 13.532 59.5982 13.424L61.3742 13.292V13.16C61.3742 12.356 60.8942 12.032 60.1502 12.032C59.2862 12.032 58.8062 12.392 58.8062 13.016H57.5582C57.5582 11.732 58.6142 10.892 60.2222 10.892C61.8182 10.892 62.8022 11.756 62.8022 13.4V17H61.5182L61.4102 16.124C61.1582 16.736 60.3542 17.156 59.4302 17.156ZM59.9102 16.052C60.8102 16.052 61.3862 15.512 61.3862 14.6V14.288L60.1502 14.384C59.2382 14.468 58.8902 14.768 58.8902 15.248C58.8902 15.788 59.2502 16.052 59.9102 16.052ZM65.7164 17H64.2644V8.072H65.7164V17ZM67.9841 9.884C67.4801 9.884 67.0841 9.488 67.0841 8.996C67.0841 8.504 67.4801 8.12 67.9841 8.12C68.4641 8.12 68.8601 8.504 68.8601 8.996C68.8601 9.488 68.4641 9.884 67.9841 9.884ZM67.2521 17V11.072H68.7161V17H67.2521ZM69.8927 13.904C69.8927 12.176 71.0207 10.88 72.7127 10.88C73.6007 10.88 74.2967 11.252 74.6447 11.888L74.7287 11.072H76.0847V16.7C76.0847 18.68 74.8967 19.916 72.9767 19.916C71.2727 19.916 70.1087 18.944 69.9287 17.36H71.3927C71.4887 18.128 72.0767 18.584 72.9767 18.584C73.9847 18.584 74.6327 17.948 74.6327 16.964V15.98C74.2607 16.532 73.5287 16.88 72.6767 16.88C70.9967 16.88 69.8927 15.62 69.8927 13.904ZM71.3687 13.868C71.3687 14.864 72.0047 15.608 72.9647 15.608C73.9727 15.608 74.5967 14.9 74.5967 13.868C74.5967 12.86 73.9847 12.164 72.9647 12.164C71.9927 12.164 71.3687 12.896 71.3687 13.868ZM79.0638 17H77.5998V11.072H78.9558L79.0758 11.84C79.4478 11.24 80.1678 10.892 80.9718 10.892C82.4598 10.892 83.2278 11.816 83.2278 13.352V17H81.7638V13.7C81.7638 12.704 81.2718 12.224 80.5158 12.224C79.6158 12.224 79.0638 12.848 79.0638 13.808V17ZM84.6542 14.444V13.148H88.5182V14.444H84.6542ZM90.7419 9.884C90.2499 9.884 89.8539 9.488 89.8539 8.996C89.8539 8.504 90.2499 8.12 90.7419 8.12C91.2219 8.12 91.6299 8.504 91.6299 8.996C91.6299 9.488 91.2219 9.884 90.7419 9.884ZM88.5939 19.784L88.8339 18.488C89.0379 18.548 89.1579 18.56 89.3379 18.56C89.8419 18.56 90.0099 18.272 90.0099 17.672V11.072H91.4739V17.84C91.4739 19.1 90.7539 19.916 89.4699 19.916C89.1939 19.916 88.9779 19.892 88.5939 19.784ZM97.0065 11.072H98.4705V17H97.1145L97.0065 16.208C96.6465 16.772 95.8785 17.156 95.0865 17.156C93.7185 17.156 92.9145 16.232 92.9145 14.78V11.072H94.3785V14.264C94.3785 15.392 94.8225 15.848 95.6385 15.848C96.5625 15.848 97.0065 15.308 97.0065 14.18V11.072ZM99.4094 15.2H100.801C100.813 15.716 101.197 16.04 101.869 16.04C102.553 16.04 102.925 15.764 102.925 15.332C102.925 15.032 102.769 14.816 102.241 14.696L101.173 14.444C100.105 14.204 99.5894 13.7 99.5894 12.752C99.5894 11.588 100.573 10.892 101.941 10.892C103.273 10.892 104.173 11.66 104.185 12.812H102.793C102.781 12.308 102.445 11.984 101.881 11.984C101.305 11.984 100.969 12.248 100.969 12.692C100.969 13.028 101.233 13.244 101.737 13.364L102.805 13.616C103.801 13.844 104.305 14.3 104.305 15.212C104.305 16.412 103.285 17.156 101.821 17.156C100.345 17.156 99.4094 16.364 99.4094 15.2ZM107.436 17H105.972V12.296H104.832V11.072H105.972V9.224H107.436V11.072H108.588V12.296H107.436V17ZM110.23 9.884C109.726 9.884 109.33 9.488 109.33 8.996C109.33 8.504 109.726 8.12 110.23 8.12C110.71 8.12 111.106 8.504 111.106 8.996C111.106 9.488 110.71 9.884 110.23 9.884ZM109.498 17V11.072H110.962V17H109.498ZM111.887 11.072H112.739V10.352C112.739 8.744 113.591 8.072 114.875 8.072C115.103 8.072 115.379 8.084 115.631 8.132V9.38H115.115C114.371 9.38 114.191 9.764 114.191 10.352V11.072H115.607V12.296H114.191V17H112.739V12.296H111.887V11.072ZM116.025 19.748V18.524H116.901C117.477 18.524 117.837 18.392 118.089 17.696L118.257 17.252L115.869 11.072H117.417L118.941 15.392L120.549 11.072H122.061L119.157 18.32C118.713 19.424 118.089 19.88 117.117 19.88C116.709 19.88 116.349 19.832 116.025 19.748ZM122.275 14.024C122.275 12.188 123.487 10.892 125.239 10.892C126.859 10.892 127.963 11.792 128.119 13.22H126.655C126.487 12.548 125.995 12.2 125.299 12.2C124.363 12.2 123.739 12.908 123.739 14.024C123.739 15.14 124.315 15.836 125.251 15.836C125.983 15.836 126.499 15.476 126.655 14.828H128.131C127.951 16.208 126.799 17.156 125.251 17.156C123.451 17.156 122.275 15.908 122.275 14.024ZM131.873 17.156C130.109 17.156 128.873 15.872 128.873 14.036C128.873 12.176 130.085 10.892 131.825 10.892C133.601 10.892 134.729 12.08 134.729 13.928V14.372L130.265 14.384C130.373 15.428 130.925 15.956 131.897 15.956C132.701 15.956 133.229 15.644 133.397 15.08H134.753C134.501 16.376 133.421 17.156 131.873 17.156ZM131.837 12.092C130.973 12.092 130.445 12.56 130.301 13.448H133.277C133.277 12.632 132.713 12.092 131.837 12.092ZM137.365 17H135.901V11.072H137.257L137.377 11.84C137.749 11.24 138.469 10.892 139.273 10.892C140.761 10.892 141.529 11.816 141.529 13.352V17H140.065V13.7C140.065 12.704 139.573 12.224 138.817 12.224C137.917 12.224 137.365 12.848 137.365 13.808V17ZM144.983 17H143.519V12.296H142.379V11.072H143.519V9.224H144.983V11.072H146.135V12.296H144.983V17ZM149.638 17.156C147.874 17.156 146.638 15.872 146.638 14.036C146.638 12.176 147.85 10.892 149.59 10.892C151.366 10.892 152.494 12.08 152.494 13.928V14.372L148.03 14.384C148.138 15.428 148.69 15.956 149.662 15.956C150.466 15.956 150.994 15.644 151.162 15.08H152.518C152.266 16.376 151.186 17.156 149.638 17.156ZM149.602 12.092C148.738 12.092 148.21 12.56 148.066 13.448H151.042C151.042 12.632 150.478 12.092 149.602 12.092ZM157.386 11.048V12.404H156.846C155.79 12.404 155.13 12.968 155.13 14.12V17H153.666V11.084H155.046L155.13 11.948C155.382 11.36 155.946 10.964 156.738 10.964C156.942 10.964 157.146 10.988 157.386 11.048Z" fill="black"/>
</svg>
