<svg width="121" height="24" viewBox="0 0 121 24" fill="none" xmlns="http://www.w3.org/2000/svg">
<path d="M22 12V17C22 20 20 22 17 22H7C4 22 2 20 2 17V12C2 9.28 3.64 7.38 6.19 7.06C6.45 7.02 6.72 7 7 7H17C17.26 7 17.51 7.00999 17.75 7.04999C20.33 7.34999 22 9.26 22 12Z" stroke="#1A1A1A" stroke-width="1.5" stroke-linecap="round" stroke-linejoin="round"/>
<path d="M17.7514 7.05C17.5114 7.01 17.2614 7.00001 17.0014 7.00001H7.00141C6.72141 7.00001 6.45141 7.02001 6.19141 7.06001C6.33141 6.78001 6.53141 6.52001 6.77141 6.28001L10.0214 3.02C11.3914 1.66 13.6114 1.66 14.9814 3.02L16.7314 4.79002C17.3714 5.42002 17.7114 6.22 17.7514 7.05Z" stroke="#1A1A1A" stroke-width="1.5" stroke-linecap="round" stroke-linejoin="round"/>
<path d="M22 12.5H19C17.9 12.5 17 13.4 17 14.5C17 15.6 17.9 16.5 19 16.5H22" stroke="#1A1A1A" stroke-width="1.5" stroke-linecap="round" stroke-linejoin="round"/>
<path d="M36.796 16L34.18 7.228H35.776L37.168 11.86C37.3 12.34 37.432 12.832 37.564 13.6C37.708 12.82 37.84 12.364 37.996 11.86L39.376 7.228H41.068L42.424 11.86C42.568 12.352 42.7 12.856 42.844 13.6C43.012 12.784 43.132 12.316 43.264 11.872L44.68 7.228H46.24L43.576 16H42.088L40.216 9.616L38.308 16H36.796ZM48.0513 16.156C46.7913 16.156 46.0233 15.424 46.0233 14.308C46.0233 13.216 46.8153 12.532 48.2193 12.424L49.9953 12.292V12.16C49.9953 11.356 49.5153 11.032 48.7713 11.032C47.9073 11.032 47.4273 11.392 47.4273 12.016H46.1793C46.1793 10.732 47.2353 9.892 48.8433 9.892C50.4393 9.892 51.4233 10.756 51.4233 12.4V16H50.1393L50.0313 15.124C49.7793 15.736 48.9753 16.156 48.0513 16.156ZM48.5312 15.052C49.4313 15.052 50.0073 14.512 50.0073 13.6V13.288L48.7713 13.384C47.8593 13.468 47.5113 13.768 47.5113 14.248C47.5113 14.788 47.8713 15.052 48.5312 15.052ZM54.3375 16H52.8855V7.072H54.3375V16ZM57.3492 16H55.8972V7.072H57.3492V16ZM61.5369 16.156C59.7729 16.156 58.5369 14.872 58.5369 13.036C58.5369 11.176 59.7489 9.892 61.4889 9.892C63.2649 9.892 64.3929 11.08 64.3929 12.928V13.372L59.9289 13.384C60.0369 14.428 60.5889 14.956 61.5609 14.956C62.3649 14.956 62.8929 14.644 63.0609 14.08H64.4169C64.1649 15.376 63.0849 16.156 61.5369 16.156ZM61.5009 11.092C60.6369 11.092 60.1089 11.56 59.9649 12.448H62.9409C62.9409 11.632 62.3769 11.092 61.5009 11.092ZM67.522 16H66.058V11.296H64.918V10.072H66.058V8.224H67.522V10.072H68.674V11.296H67.522V16Z" fill="black"/>
</svg>
