<svg width="124" height="24" viewBox="0 0 124 24" fill="none" xmlns="http://www.w3.org/2000/svg">
<path d="M14.55 21.67C18.84 20.54 22 16.64 22 12C22 6.48 17.56 2 12 2C5.33 2 2 7.56 2 7.56M2 7.56V3M2 7.56H4.01H6.44" stroke="#1A1A1A" stroke-width="1.5" stroke-linecap="round" stroke-linejoin="round"/>
<path d="M2 12C2 17.52 6.48 22 12 22" stroke="#1A1A1A" stroke-width="1.5" stroke-linecap="round" stroke-linejoin="round" stroke-dasharray="3 3"/>
<path d="M36.508 16H34.972V7.228H38.32C40.312 7.228 41.476 8.236 41.476 9.964C41.476 11.14 40.924 11.98 39.892 12.4L41.56 16H39.88L38.392 12.724H36.508V16ZM36.508 8.596V11.368H38.32C39.292 11.368 39.868 10.852 39.868 9.964C39.868 9.088 39.292 8.596 38.32 8.596H36.508ZM45.0252 16.156C43.2612 16.156 42.0252 14.872 42.0252 13.036C42.0252 11.176 43.2372 9.892 44.9772 9.892C46.7532 9.892 47.8812 11.08 47.8812 12.928V13.372L43.4172 13.384C43.5252 14.428 44.0772 14.956 45.0492 14.956C45.8532 14.956 46.3812 14.644 46.5492 14.08H47.9052C47.6532 15.376 46.5732 16.156 45.0252 16.156ZM44.9892 11.092C44.1252 11.092 43.5972 11.56 43.4532 12.448H46.4292C46.4292 11.632 45.8652 11.092 44.9892 11.092ZM48.4649 10.072H49.3169V9.352C49.3169 7.744 50.1689 7.072 51.4529 7.072C51.6809 7.072 51.9569 7.084 52.2089 7.132V8.38H51.6929C50.9489 8.38 50.7689 8.764 50.7689 9.352V10.072H52.1849V11.296H50.7689V16H49.3169V11.296H48.4649V10.072ZM56.8393 10.048V11.404H56.2993C55.2433 11.404 54.5833 11.968 54.5833 13.12V16H53.1193V10.084H54.4993L54.5833 10.948C54.8353 10.36 55.3993 9.964 56.1913 9.964C56.3953 9.964 56.5993 9.988 56.8393 10.048ZM60.283 16.156C58.519 16.156 57.283 14.872 57.283 13.036C57.283 11.176 58.495 9.892 60.235 9.892C62.011 9.892 63.139 11.08 63.139 12.928V13.372L58.675 13.384C58.783 14.428 59.335 14.956 60.307 14.956C61.111 14.956 61.639 14.644 61.807 14.08H63.163C62.911 15.376 61.831 16.156 60.283 16.156ZM60.247 11.092C59.383 11.092 58.855 11.56 58.711 12.448H61.687C61.687 11.632 61.123 11.092 60.247 11.092ZM63.8547 14.2H65.2467C65.2587 14.716 65.6427 15.04 66.3147 15.04C66.9987 15.04 67.3707 14.764 67.3707 14.332C67.3707 14.032 67.2147 13.816 66.6867 13.696L65.6187 13.444C64.5507 13.204 64.0347 12.7 64.0347 11.752C64.0347 10.588 65.0187 9.892 66.3867 9.892C67.7187 9.892 68.6187 10.66 68.6307 11.812H67.2387C67.2267 11.308 66.8907 10.984 66.3267 10.984C65.7507 10.984 65.4147 11.248 65.4147 11.692C65.4147 12.028 65.6787 12.244 66.1827 12.364L67.2507 12.616C68.2467 12.844 68.7507 13.3 68.7507 14.212C68.7507 15.412 67.7307 16.156 66.2667 16.156C64.7907 16.156 63.8547 15.364 63.8547 14.2ZM71.3294 16H69.8654V7.072H71.3414V10.84C71.7134 10.264 72.4094 9.892 73.2614 9.892C74.7254 9.892 75.4934 10.816 75.4934 12.352V16H74.0294V12.7C74.0294 11.704 73.5374 11.224 72.7934 11.224C71.8694 11.224 71.3294 11.872 71.3294 12.76V16Z" fill="black"/>
</svg>
