<svg width="106" height="24" viewBox="0 0 106 24" fill="none" xmlns="http://www.w3.org/2000/svg">
<path d="M20.2704 18.6801C19.2804 19.5901 17.9804 20.0901 16.6304 20.0801H5.54043C0.87043 19.7401 0.860431 12.9401 5.54043 12.6001H5.59043C2.89043 5.06014 12.1204 1.34014 16.0004 6.03014V6.04014C16.7004 6.90014 17.2304 8.04014 17.4704 9.49014C18.8004 9.66014 19.8804 10.3101 20.6504 11.2301C22.4004 13.3001 22.5504 16.6801 20.2704 18.6801Z" stroke="#1A1A1A" stroke-width="1.5" stroke-miterlimit="10" stroke-linecap="round" stroke-linejoin="round"/>
<path d="M7.25984 13.0101C6.73984 12.7501 6.16984 12.6101 5.58984 12.6001" stroke="#1A1A1A" stroke-width="1.5" stroke-miterlimit="10" stroke-linecap="round" stroke-linejoin="round"/>
<path d="M15.8496 9.91977C16.3696 9.65977 16.9396 9.51977 17.5196 9.50977" stroke="#1A1A1A" stroke-width="1.5" stroke-miterlimit="10" stroke-linecap="round" stroke-linejoin="round"/>
<path d="M21.97 8.5C21.97 9.6 21.46 10.59 20.65 11.23C19.88 10.31 18.8 9.66 17.47 9.49C17.23 8.04 16.7 6.9 16 6.04V6.03C16.63 5.39 17.51 5 18.47 5C20.4 5 21.97 6.57 21.97 8.5Z" stroke="#1A1A1A" stroke-width="1.5" stroke-miterlimit="10" stroke-linecap="round" stroke-linejoin="round"/>
<path d="M38.68 17.144C36.124 17.144 34.468 15.368 34.468 12.62C34.468 9.896 36.184 8.084 38.752 8.084C40.828 8.084 42.376 9.296 42.676 11.18H41.056C40.756 10.16 39.88 9.56 38.716 9.56C37.096 9.56 36.076 10.736 36.076 12.608C36.076 14.468 37.108 15.668 38.716 15.668C39.904 15.668 40.816 15.044 41.104 14.072H42.7C42.364 15.92 40.756 17.144 38.68 17.144ZM45.2789 17H43.8269V8.072H45.2789V17ZM46.4666 14.024C46.4666 12.176 47.7986 10.904 49.6346 10.904C51.4706 10.904 52.8026 12.176 52.8026 14.024C52.8026 15.872 51.4706 17.144 49.6346 17.144C47.7986 17.144 46.4666 15.872 46.4666 14.024ZM47.9306 14.024C47.9306 15.104 48.6266 15.836 49.6346 15.836C50.6426 15.836 51.3386 15.104 51.3386 14.024C51.3386 12.944 50.6426 12.212 49.6346 12.212C48.6266 12.212 47.9306 12.944 47.9306 14.024ZM57.8424 11.072H59.3064V17H57.9504L57.8424 16.208C57.4824 16.772 56.7144 17.156 55.9224 17.156C54.5544 17.156 53.7504 16.232 53.7504 14.78V11.072H55.2144V14.264C55.2144 15.392 55.6584 15.848 56.4744 15.848C57.3984 15.848 57.8424 15.308 57.8424 14.18V11.072ZM63.1373 17.156C61.4213 17.156 60.3533 15.896 60.3533 14.06C60.3533 12.212 61.4333 10.892 63.2213 10.892C64.0493 10.892 64.7813 11.24 65.1533 11.828V8.072H66.6053V17H65.2613L65.1653 16.076C64.8053 16.76 64.0373 17.156 63.1373 17.156ZM63.4613 15.812C64.4813 15.812 65.1413 15.08 65.1413 14.012C65.1413 12.944 64.4813 12.2 63.4613 12.2C62.4413 12.2 61.8173 12.956 61.8173 14.012C61.8173 15.068 62.4413 15.812 63.4613 15.812ZM68.119 14.444V13.148H71.983V14.444H68.119ZM72.9367 15.2H74.3287C74.3407 15.716 74.7247 16.04 75.3967 16.04C76.0807 16.04 76.4527 15.764 76.4527 15.332C76.4527 15.032 76.2967 14.816 75.7687 14.696L74.7007 14.444C73.6327 14.204 73.1167 13.7 73.1167 12.752C73.1167 11.588 74.1007 10.892 75.4687 10.892C76.8007 10.892 77.7007 11.66 77.7127 12.812H76.3207C76.3087 12.308 75.9727 11.984 75.4087 11.984C74.8327 11.984 74.4967 12.248 74.4967 12.692C74.4967 13.028 74.7607 13.244 75.2647 13.364L76.3327 13.616C77.3287 13.844 77.8327 14.3 77.8327 15.212C77.8327 16.412 76.8127 17.156 75.3487 17.156C73.8727 17.156 72.9367 16.364 72.9367 15.2ZM82.9674 11.072H84.4314V17H83.0754L82.9674 16.208C82.6074 16.772 81.8394 17.156 81.0474 17.156C79.6794 17.156 78.8754 16.232 78.8754 14.78V11.072H80.3394V14.264C80.3394 15.392 80.7834 15.848 81.5994 15.848C82.5234 15.848 82.9674 15.308 82.9674 14.18V11.072ZM87.4075 17H85.9435V11.072H87.2995L87.4195 11.84C87.7915 11.24 88.5115 10.892 89.3155 10.892C90.8035 10.892 91.5715 11.816 91.5715 13.352V17H90.1075V13.7C90.1075 12.704 89.6155 12.224 88.8595 12.224C87.9595 12.224 87.4075 12.848 87.4075 13.808V17ZM94.4739 17H93.0099V11.072H94.3659L94.4859 11.84C94.8579 11.24 95.5779 10.892 96.3819 10.892C97.8699 10.892 98.6379 11.816 98.6379 13.352V17H97.1739V13.7C97.1739 12.704 96.6819 12.224 95.9259 12.224C95.0259 12.224 94.4739 12.848 94.4739 13.808V17ZM99.4431 19.748V18.524H100.319C100.895 18.524 101.255 18.392 101.507 17.696L101.675 17.252L99.2871 11.072H100.835L102.359 15.392L103.967 11.072H105.479L102.575 18.32C102.131 19.424 101.507 19.88 100.535 19.88C100.127 19.88 99.7671 19.832 99.4431 19.748Z" fill="black"/>
</svg>
