<svg width="109" height="24" viewBox="0 0 109 24" fill="none" xmlns="http://www.w3.org/2000/svg">
<path d="M8 11.4C8 12.17 8.6 12.8 9.33 12.8H10.83C11.47 12.8 11.99 12.25 11.99 11.58C11.99 10.85 11.67 10.59 11.2 10.42L8.8 9.57995C8.32 9.40995 8 9.14995 8 8.41995C8 7.74995 8.52 7.19995 9.16 7.19995H10.66C11.4 7.20995 12 7.82995 12 8.59995" stroke="#1A1A1A" stroke-width="1.5" stroke-linecap="round" stroke-linejoin="round"/>
<path d="M10 12.8501V13.5901" stroke="#1A1A1A" stroke-width="1.5" stroke-linecap="round" stroke-linejoin="round"/>
<path d="M10 6.40991V7.18991" stroke="#1A1A1A" stroke-width="1.5" stroke-linecap="round" stroke-linejoin="round"/>
<path d="M9.99 17.98C14.4028 17.98 17.98 14.4028 17.98 9.99C17.98 5.57724 14.4028 2 9.99 2C5.57724 2 2 5.57724 2 9.99C2 14.4028 5.57724 17.98 9.99 17.98Z" stroke="#1A1A1A" stroke-width="1.5" stroke-linecap="round" stroke-linejoin="round"/>
<path d="M12.9805 19.88C13.8805 21.15 15.3505 21.98 17.0305 21.98C19.7605 21.98 21.9805 19.76 21.9805 17.03C21.9805 15.37 21.1605 13.9 19.9105 13" stroke="#1A1A1A" stroke-width="1.5" stroke-linecap="round" stroke-linejoin="round"/>
<path d="M38.68 16.144C36.124 16.144 34.468 14.368 34.468 11.62C34.468 8.896 36.184 7.084 38.752 7.084C40.828 7.084 42.376 8.296 42.676 10.18H41.056C40.756 9.16 39.88 8.56 38.716 8.56C37.096 8.56 36.076 9.736 36.076 11.608C36.076 13.468 37.108 14.668 38.716 14.668C39.904 14.668 40.816 14.044 41.104 13.072H42.7C42.364 14.92 40.756 16.144 38.68 16.144ZM43.5135 13.024C43.5135 11.176 44.8455 9.904 46.6815 9.904C48.5175 9.904 49.8495 11.176 49.8495 13.024C49.8495 14.872 48.5175 16.144 46.6815 16.144C44.8455 16.144 43.5135 14.872 43.5135 13.024ZM44.9775 13.024C44.9775 14.104 45.6735 14.836 46.6815 14.836C47.6895 14.836 48.3855 14.104 48.3855 13.024C48.3855 11.944 47.6895 11.212 46.6815 11.212C45.6735 11.212 44.9775 11.944 44.9775 13.024ZM51.7419 8.884C51.2379 8.884 50.8419 8.488 50.8419 7.996C50.8419 7.504 51.2379 7.12 51.7419 7.12C52.2219 7.12 52.6179 7.504 52.6179 7.996C52.6179 8.488 52.2219 8.884 51.7419 8.884ZM51.0099 16V10.072H52.4739V16H51.0099ZM55.4505 16H53.9865V10.072H55.3425L55.4625 10.84C55.8345 10.24 56.5545 9.892 57.3585 9.892C58.8465 9.892 59.6145 10.816 59.6145 12.352V16H58.1505V12.7C58.1505 11.704 57.6585 11.224 56.9025 11.224C56.0025 11.224 55.4505 11.848 55.4505 12.808V16Z" fill="black"/>
</svg>
