<svg width="101" height="24" viewBox="0 0 101 24" fill="none" xmlns="http://www.w3.org/2000/svg">
<path d="M2 22H22" stroke="#1A1A1A" stroke-width="1.5" stroke-miterlimit="10" stroke-linecap="round" stroke-linejoin="round"/>
<path d="M17 2H7C4 2 3 3.79 3 6V22H21V6C21 3.79 20 2 17 2Z" stroke="#1A1A1A" stroke-width="1.5" stroke-miterlimit="10" stroke-linecap="round" stroke-linejoin="round"/>
<path d="M14.0602 15H9.93022C9.42022 15 8.99023 15.42 8.99023 15.94V22H14.9902V15.94C15.0002 15.42 14.5802 15 14.0602 15Z" stroke="#1A1A1A" stroke-width="1.5" stroke-miterlimit="10" stroke-linecap="round" stroke-linejoin="round"/>
<path d="M12 6V11" stroke="#1A1A1A" stroke-width="1.5" stroke-miterlimit="10" stroke-linecap="round" stroke-linejoin="round"/>
<path d="M9.5 8.5H14.5" stroke="#1A1A1A" stroke-width="1.5" stroke-miterlimit="10" stroke-linecap="round" stroke-linejoin="round"/>
<path d="M36.508 16H34.972V7.228H36.508V10.852H40.396V7.228H41.932V16H40.396V12.28H36.508V16ZM43.3143 13.024C43.3143 11.176 44.6463 9.904 46.4823 9.904C48.3183 9.904 49.6503 11.176 49.6503 13.024C49.6503 14.872 48.3183 16.144 46.4823 16.144C44.6463 16.144 43.3143 14.872 43.3143 13.024ZM44.7783 13.024C44.7783 14.104 45.4743 14.836 46.4823 14.836C47.4903 14.836 48.1863 14.104 48.1863 13.024C48.1863 11.944 47.4903 11.212 46.4823 11.212C45.4743 11.212 44.7783 11.944 44.7783 13.024ZM50.3547 14.2H51.7467C51.7587 14.716 52.1427 15.04 52.8147 15.04C53.4987 15.04 53.8707 14.764 53.8707 14.332C53.8707 14.032 53.7147 13.816 53.1867 13.696L52.1187 13.444C51.0507 13.204 50.5347 12.7 50.5347 11.752C50.5347 10.588 51.5187 9.892 52.8867 9.892C54.2187 9.892 55.1187 10.66 55.1307 11.812H53.7387C53.7267 11.308 53.3907 10.984 52.8267 10.984C52.2507 10.984 51.9147 11.248 51.9147 11.692C51.9147 12.028 52.1787 12.244 52.6827 12.364L53.7507 12.616C54.7467 12.844 55.2507 13.3 55.2507 14.212C55.2507 15.412 54.2307 16.156 52.7667 16.156C51.2907 16.156 50.3547 15.364 50.3547 14.2ZM56.3654 18.748V10.072H57.7214L57.8174 10.972C58.1774 10.288 58.9574 9.892 59.8574 9.892C61.5254 9.892 62.6294 11.104 62.6294 12.964C62.6294 14.812 61.6214 16.156 59.8574 16.156C58.9694 16.156 58.2014 15.808 57.8294 15.208V18.748H56.3654ZM57.8414 13.036C57.8414 14.104 58.5014 14.836 59.5094 14.836C60.5414 14.836 61.1534 14.092 61.1534 13.036C61.1534 11.98 60.5414 11.224 59.5094 11.224C58.5014 11.224 57.8414 11.968 57.8414 13.036ZM64.5271 8.884C64.0231 8.884 63.6271 8.488 63.6271 7.996C63.6271 7.504 64.0231 7.12 64.5271 7.12C65.0071 7.12 65.4031 7.504 65.4031 7.996C65.4031 8.488 65.0071 8.884 64.5271 8.884ZM63.7951 16V10.072H65.2591V16H63.7951ZM68.7876 16H67.3236V11.296H66.1836V10.072H67.3236V8.224H68.7876V10.072H69.9396V11.296H68.7876V16ZM72.5786 16.156C71.3186 16.156 70.5506 15.424 70.5506 14.308C70.5506 13.216 71.3426 12.532 72.7466 12.424L74.5226 12.292V12.16C74.5226 11.356 74.0426 11.032 73.2986 11.032C72.4346 11.032 71.9546 11.392 71.9546 12.016H70.7066C70.7066 10.732 71.7626 9.892 73.3706 9.892C74.9666 9.892 75.9506 10.756 75.9506 12.4V16H74.6666L74.5586 15.124C74.3066 15.736 73.5026 16.156 72.5786 16.156ZM73.0586 15.052C73.9586 15.052 74.5346 14.512 74.5346 13.6V13.288L73.2986 13.384C72.3866 13.468 72.0386 13.768 72.0386 14.248C72.0386 14.788 72.3986 15.052 73.0586 15.052ZM78.8648 16H77.4128V7.072H78.8648V16Z" fill="black"/>
</svg>
