<svg width="200" height="24" viewBox="0 0 200 24" fill="none" xmlns="http://www.w3.org/2000/svg">
<path d="M9.02 2.83992L3.63 7.03992C2.73 7.73992 2 9.22992 2 10.3599V17.7699C2 20.0899 3.89 21.9899 6.21 21.9899H17.79C20.11 21.9899 22 20.0899 22 17.7799V10.4999C22 9.28992 21.19 7.73992 20.2 7.04992L14.02 2.71992C12.62 1.73992 10.37 1.78992 9.02 2.83992Z" stroke="#1A1A1A" stroke-width="1.5" stroke-linecap="round" stroke-linejoin="round"/>
<path d="M12 17.99V14.99" stroke="#1A1A1A" stroke-width="1.5" stroke-linecap="round" stroke-linejoin="round"/>
<path d="M36.508 16H34.972V7.228H36.508V10.852H40.396V7.228H41.932V16H40.396V12.28H36.508V16ZM43.3143 13.024C43.3143 11.176 44.6463 9.904 46.4823 9.904C48.3183 9.904 49.6503 11.176 49.6503 13.024C49.6503 14.872 48.3183 16.144 46.4823 16.144C44.6463 16.144 43.3143 14.872 43.3143 13.024ZM44.7783 13.024C44.7783 14.104 45.4743 14.836 46.4823 14.836C47.4903 14.836 48.1863 14.104 48.1863 13.024C48.1863 11.944 47.4903 11.212 46.4823 11.212C45.4743 11.212 44.7783 11.944 44.7783 13.024ZM52.2747 16H50.8107V10.072H52.1547L52.2747 10.768C52.5747 10.276 53.1747 9.892 54.0267 9.892C54.9267 9.892 55.5507 10.336 55.8627 11.02C56.1627 10.336 56.8587 9.892 57.7587 9.892C59.1987 9.892 59.9907 10.756 59.9907 12.124V16H58.5387V12.508C58.5387 11.656 58.0827 11.212 57.3867 11.212C56.6787 11.212 56.1387 11.668 56.1387 12.64V16H54.6747V12.496C54.6747 11.668 54.2307 11.224 53.5347 11.224C52.8387 11.224 52.2747 11.68 52.2747 12.64V16ZM64.0799 16.156C62.3159 16.156 61.0799 14.872 61.0799 13.036C61.0799 11.176 62.2919 9.892 64.0319 9.892C65.8079 9.892 66.9359 11.08 66.9359 12.928V13.372L62.4719 13.384C62.5799 14.428 63.1319 14.956 64.1039 14.956C64.9079 14.956 65.4359 14.644 65.6039 14.08H66.9599C66.7079 15.376 65.6279 16.156 64.0799 16.156ZM64.0439 11.092C63.1799 11.092 62.6519 11.56 62.5079 12.448H65.4839C65.4839 11.632 64.9199 11.092 64.0439 11.092ZM68.0956 13.444V12.148H71.9596V13.444H68.0956ZM78.5579 15.988L72.4739 16V14.848L75.3419 12.424C76.5299 11.416 76.9259 10.84 76.9259 10C76.9259 9.004 76.3859 8.44 75.4619 8.44C74.5019 8.44 73.9019 9.112 73.8899 10.24H72.3659C72.3779 8.32 73.6019 7.072 75.4619 7.072C77.3339 7.072 78.4979 8.14 78.4979 9.916C78.4979 11.14 77.8259 12.064 76.4939 13.204L74.9099 14.56H78.5579V15.988Z" fill="black"/>
</svg>
