<svg width="200" height="24" viewBox="0 0 200 24" fill="none" xmlns="http://www.w3.org/2000/svg">
<path d="M12 22C17.5 22 22 17.5 22 12C22 6.5 17.5 2 12 2C6.5 2 2 6.5 2 12C2 17.5 6.5 22 12 22Z" stroke="#1A1A1A" stroke-width="1.5" stroke-linecap="round" stroke-linejoin="round"/>
<path d="M7.75 11.9999L10.58 14.8299L16.25 9.16992" stroke="#1A1A1A" stroke-width="1.5" stroke-linecap="round" stroke-linejoin="round"/>
<path d="M34.204 8.644V7.228H40.876V8.644H38.308V16H36.772V8.644H34.204ZM42.5661 8.884C42.0621 8.884 41.6661 8.488 41.6661 7.996C41.6661 7.504 42.0621 7.12 42.5661 7.12C43.0461 7.12 43.4421 7.504 43.4421 7.996C43.4421 8.488 43.0461 8.884 42.5661 8.884ZM41.8341 16V10.072H43.2981V16H41.8341ZM44.4627 13.024C44.4627 11.188 45.6747 9.892 47.4267 9.892C49.0467 9.892 50.1507 10.792 50.3067 12.22H48.8427C48.6747 11.548 48.1827 11.2 47.4867 11.2C46.5507 11.2 45.9267 11.908 45.9267 13.024C45.9267 14.14 46.5027 14.836 47.4387 14.836C48.1707 14.836 48.6867 14.476 48.8427 13.828H50.3187C50.1387 15.208 48.9867 16.156 47.4387 16.156C45.6387 16.156 44.4627 14.908 44.4627 13.024ZM52.8843 16H51.4323V7.072H52.8843V12.556L55.1883 10.072H57.0243L54.7683 12.424L56.9763 16H55.2963L53.7483 13.504L52.8843 14.404V16ZM57.0799 13.444V12.148H60.9439V13.444H57.0799ZM62.0877 13.024C62.0877 11.188 63.2997 9.892 65.0517 9.892C66.6717 9.892 67.7757 10.792 67.9317 12.22H66.4677C66.2997 11.548 65.8077 11.2 65.1117 11.2C64.1757 11.2 63.5517 11.908 63.5517 13.024C63.5517 14.14 64.1277 14.836 65.0637 14.836C65.7957 14.836 66.3117 14.476 66.4677 13.828H67.9437C67.7637 15.208 66.6117 16.156 65.0637 16.156C63.2637 16.156 62.0877 14.908 62.0877 13.024ZM69.7653 8.884C69.2613 8.884 68.8653 8.488 68.8653 7.996C68.8653 7.504 69.2613 7.12 69.7653 7.12C70.2453 7.12 70.6413 7.504 70.6413 7.996C70.6413 8.488 70.2453 8.884 69.7653 8.884ZM69.0333 16V10.072H70.4973V16H69.0333ZM75.7299 10.048V11.404H75.1899C74.1339 11.404 73.4739 11.968 73.4739 13.12V16H72.0099V10.084H73.3899L73.4739 10.948C73.7259 10.36 74.2899 9.964 75.0819 9.964C75.2859 9.964 75.4899 9.988 75.7299 10.048ZM76.1736 13.024C76.1736 11.188 77.3856 9.892 79.1376 9.892C80.7576 9.892 81.8616 10.792 82.0176 12.22H80.5536C80.3856 11.548 79.8936 11.2 79.1976 11.2C78.2616 11.2 77.6376 11.908 77.6376 13.024C77.6376 14.14 78.2136 14.836 79.1496 14.836C79.8816 14.836 80.3976 14.476 80.5536 13.828H82.0296C81.8496 15.208 80.6976 16.156 79.1496 16.156C77.3496 16.156 76.1736 14.908 76.1736 13.024ZM84.5953 16H83.1433V7.072H84.5953V16ZM88.783 16.156C87.019 16.156 85.783 14.872 85.783 13.036C85.783 11.176 86.995 9.892 88.735 9.892C90.511 9.892 91.639 11.08 91.639 12.928V13.372L87.175 13.384C87.283 14.428 87.835 14.956 88.807 14.956C89.611 14.956 90.139 14.644 90.307 14.08H91.663C91.411 15.376 90.331 16.156 88.783 16.156ZM88.747 11.092C87.883 11.092 87.355 11.56 87.211 12.448H90.187C90.187 11.632 89.623 11.092 88.747 11.092Z" fill="black"/>
</svg>
