<svg width="105" height="24" viewBox="0 0 105 24" fill="none" xmlns="http://www.w3.org/2000/svg">
<path d="M11.9697 22C17.4926 22 21.9697 17.5228 21.9697 12C21.9697 6.47715 17.4926 2 11.9697 2C6.44688 2 1.96973 6.47715 1.96973 12C1.96973 17.5228 6.44688 22 11.9697 22Z" stroke="#1A1A1A" stroke-width="1.5" stroke-linecap="round" stroke-linejoin="round"/>
<path d="M8.74023 12.2299V10.5599C8.74023 8.47988 10.2102 7.62988 12.0102 8.66988L13.4602 9.50988L14.9102 10.3499C16.7102 11.3899 16.7102 13.0899 14.9102 14.1299L13.4602 14.9699L12.0102 15.8099C10.2102 16.8499 8.74023 15.9999 8.74023 13.9199V12.2299Z" stroke="#1A1A1A" stroke-width="1.5" stroke-miterlimit="10" stroke-linecap="round" stroke-linejoin="round"/>
<path d="M38.44 13.976H36.508V17H34.972V8.228H38.44C40.204 8.228 41.344 9.38 41.344 11.096C41.344 12.788 40.192 13.976 38.44 13.976ZM38.14 9.596H36.508V12.608H38.116C39.172 12.608 39.736 12.044 39.736 11.084C39.736 10.124 39.16 9.596 38.14 9.596ZM43.8961 17H42.4441V8.072H43.8961V17ZM47.1958 17.156C45.9358 17.156 45.1678 16.424 45.1678 15.308C45.1678 14.216 45.9598 13.532 47.3638 13.424L49.1398 13.292V13.16C49.1398 12.356 48.6598 12.032 47.9158 12.032C47.0518 12.032 46.5718 12.392 46.5718 13.016H45.3238C45.3238 11.732 46.3798 10.892 47.9878 10.892C49.5838 10.892 50.5678 11.756 50.5678 13.4V17H49.2838L49.1758 16.124C48.9238 16.736 48.1198 17.156 47.1958 17.156ZM47.6758 16.052C48.5758 16.052 49.1518 15.512 49.1518 14.6V14.288L47.9158 14.384C47.0038 14.468 46.6558 14.768 46.6558 15.248C46.6558 15.788 47.0158 16.052 47.6758 16.052ZM51.3259 19.748V18.524H52.2019C52.7779 18.524 53.1379 18.392 53.3899 17.696L53.5579 17.252L51.1699 11.072H52.7179L54.2419 15.392L55.8499 11.072H57.3619L54.4579 18.32C54.0139 19.424 53.3899 19.88 52.4179 19.88C52.0099 19.88 51.6499 19.832 51.3259 19.748ZM57.7713 14.444V13.148H61.6353V14.444H57.7713ZM62.7791 14.024C62.7791 12.188 63.9911 10.892 65.7431 10.892C67.3631 10.892 68.4671 11.792 68.6231 13.22H67.1591C66.9911 12.548 66.4991 12.2 65.8031 12.2C64.8671 12.2 64.2431 12.908 64.2431 14.024C64.2431 15.14 64.8191 15.836 65.7551 15.836C66.4871 15.836 67.0031 15.476 67.1591 14.828H68.6351C68.4551 16.208 67.3031 17.156 65.7551 17.156C63.9551 17.156 62.7791 15.908 62.7791 14.024ZM70.4568 9.884C69.9528 9.884 69.5568 9.488 69.5568 8.996C69.5568 8.504 69.9528 8.12 70.4568 8.12C70.9368 8.12 71.3328 8.504 71.3328 8.996C71.3328 9.488 70.9368 9.884 70.4568 9.884ZM69.7248 17V11.072H71.1888V17H69.7248ZM76.4213 11.048V12.404H75.8813C74.8253 12.404 74.1653 12.968 74.1653 14.12V17H72.7013V11.084H74.0813L74.1653 11.948C74.4173 11.36 74.9813 10.964 75.7733 10.964C75.9773 10.964 76.1813 10.988 76.4213 11.048ZM76.865 14.024C76.865 12.188 78.077 10.892 79.829 10.892C81.449 10.892 82.553 11.792 82.709 13.22H81.245C81.077 12.548 80.585 12.2 79.889 12.2C78.953 12.2 78.329 12.908 78.329 14.024C78.329 15.14 78.905 15.836 79.841 15.836C80.573 15.836 81.089 15.476 81.245 14.828H82.721C82.541 16.208 81.389 17.156 79.841 17.156C78.041 17.156 76.865 15.908 76.865 14.024ZM85.2867 17H83.8347V8.072H85.2867V17ZM89.4744 17.156C87.7104 17.156 86.4744 15.872 86.4744 14.036C86.4744 12.176 87.6864 10.892 89.4264 10.892C91.2024 10.892 92.3304 12.08 92.3304 13.928V14.372L87.8664 14.384C87.9744 15.428 88.5264 15.956 89.4984 15.956C90.3024 15.956 90.8304 15.644 90.9984 15.08H92.3544C92.1024 16.376 91.0224 17.156 89.4744 17.156ZM89.4384 12.092C88.5744 12.092 88.0464 12.56 87.9024 13.448H90.8784C90.8784 12.632 90.3144 12.092 89.4384 12.092ZM93.4901 14.444V13.148H97.3541V14.444H93.4901ZM103.952 16.988L97.8684 17V15.848L100.736 13.424C101.924 12.416 102.32 11.84 102.32 11C102.32 10.004 101.78 9.44 100.856 9.44C99.8964 9.44 99.2964 10.112 99.2844 11.24H97.7604C97.7724 9.32 98.9964 8.072 100.856 8.072C102.728 8.072 103.892 9.14 103.892 10.916C103.892 12.14 103.22 13.064 101.888 14.204L100.304 15.56H103.952V16.988Z" fill="black"/>
</svg>
