<svg width="106" height="24" viewBox="0 0 106 24" fill="none" xmlns="http://www.w3.org/2000/svg">
<path d="M14.0002 3L16.4402 5.34003L8.49023 5.32001C4.92023 5.32001 1.99023 8.25003 1.99023 11.84C1.99023 13.63 2.72024 15.26 3.90024 16.44" stroke="#1A1A1A" stroke-width="1.5" stroke-linecap="round" stroke-linejoin="round"/>
<path d="M9.99957 21.0001L7.55957 18.66L15.5096 18.6801C19.0796 18.6801 22.0096 15.75 22.0096 12.16C22.0096 10.37 21.2796 8.74006 20.0996 7.56006" stroke="#1A1A1A" stroke-width="1.5" stroke-linecap="round" stroke-linejoin="round"/>
<path d="M12.25 14.67V9.33008L10.75 11.0001" stroke="#1A1A1A" stroke-width="1.5" stroke-linecap="round" stroke-linejoin="round"/>
<path d="M36.508 17H34.972V8.228H38.32C40.312 8.228 41.476 9.236 41.476 10.964C41.476 12.14 40.924 12.98 39.892 13.4L41.56 17H39.88L38.392 13.724H36.508V17ZM36.508 9.596V12.368H38.32C39.292 12.368 39.868 11.852 39.868 10.964C39.868 10.088 39.292 9.596 38.32 9.596H36.508ZM45.0252 17.156C43.2612 17.156 42.0252 15.872 42.0252 14.036C42.0252 12.176 43.2372 10.892 44.9772 10.892C46.7532 10.892 47.8812 12.08 47.8812 13.928V14.372L43.4172 14.384C43.5252 15.428 44.0772 15.956 45.0492 15.956C45.8532 15.956 46.3812 15.644 46.5492 15.08H47.9052C47.6532 16.376 46.5732 17.156 45.0252 17.156ZM44.9892 12.092C44.1252 12.092 43.5972 12.56 43.4532 13.448H46.4292C46.4292 12.632 45.8652 12.092 44.9892 12.092ZM49.0529 19.748V11.072H50.4089L50.5049 11.972C50.8649 11.288 51.6449 10.892 52.5449 10.892C54.2129 10.892 55.3169 12.104 55.3169 13.964C55.3169 15.812 54.3089 17.156 52.5449 17.156C51.6569 17.156 50.8889 16.808 50.5169 16.208V19.748H49.0529ZM50.5289 14.036C50.5289 15.104 51.1889 15.836 52.1969 15.836C53.2289 15.836 53.8409 15.092 53.8409 14.036C53.8409 12.98 53.2289 12.224 52.1969 12.224C51.1889 12.224 50.5289 12.968 50.5289 14.036ZM59.1346 17.156C57.3706 17.156 56.1346 15.872 56.1346 14.036C56.1346 12.176 57.3466 10.892 59.0866 10.892C60.8626 10.892 61.9906 12.08 61.9906 13.928V14.372L57.5266 14.384C57.6346 15.428 58.1866 15.956 59.1586 15.956C59.9626 15.956 60.4906 15.644 60.6586 15.08H62.0146C61.7626 16.376 60.6826 17.156 59.1346 17.156ZM59.0986 12.092C58.2346 12.092 57.7066 12.56 57.5626 13.448H60.5386C60.5386 12.632 59.9746 12.092 59.0986 12.092ZM64.8677 17.156C63.6077 17.156 62.8397 16.424 62.8397 15.308C62.8397 14.216 63.6317 13.532 65.0357 13.424L66.8117 13.292V13.16C66.8117 12.356 66.3317 12.032 65.5877 12.032C64.7237 12.032 64.2437 12.392 64.2437 13.016H62.9957C62.9957 11.732 64.0517 10.892 65.6597 10.892C67.2557 10.892 68.2397 11.756 68.2397 13.4V17H66.9557L66.8477 16.124C66.5957 16.736 65.7917 17.156 64.8677 17.156ZM65.3477 16.052C66.2477 16.052 66.8237 15.512 66.8237 14.6V14.288L65.5877 14.384C64.6757 14.468 64.3277 14.768 64.3277 15.248C64.3277 15.788 64.6877 16.052 65.3477 16.052ZM71.6118 17H70.1478V12.296H69.0078V11.072H70.1478V9.224H71.6118V11.072H72.7638V12.296H71.6118V17ZM76.2674 17.156C74.5034 17.156 73.2674 15.872 73.2674 14.036C73.2674 12.176 74.4794 10.892 76.2194 10.892C77.9954 10.892 79.1234 12.08 79.1234 13.928V14.372L74.6594 14.384C74.7674 15.428 75.3194 15.956 76.2914 15.956C77.0954 15.956 77.6234 15.644 77.7914 15.08H79.1474C78.8954 16.376 77.8154 17.156 76.2674 17.156ZM76.2314 12.092C75.3674 12.092 74.8394 12.56 74.6954 13.448H77.6714C77.6714 12.632 77.1074 12.092 76.2314 12.092ZM80.2831 14.444V13.148H84.1471V14.444H80.2831ZM85.2908 14.024C85.2908 12.176 86.6228 10.904 88.4588 10.904C90.2948 10.904 91.6268 12.176 91.6268 14.024C91.6268 15.872 90.2948 17.144 88.4588 17.144C86.6228 17.144 85.2908 15.872 85.2908 14.024ZM86.7548 14.024C86.7548 15.104 87.4508 15.836 88.4588 15.836C89.4668 15.836 90.1628 15.104 90.1628 14.024C90.1628 12.944 89.4668 12.212 88.4588 12.212C87.4508 12.212 86.7548 12.944 86.7548 14.024ZM94.2513 17H92.7873V11.072H94.1433L94.2633 11.84C94.6353 11.24 95.3553 10.892 96.1593 10.892C97.6473 10.892 98.4153 11.816 98.4153 13.352V17H96.9513V13.7C96.9513 12.704 96.4593 12.224 95.7033 12.224C94.8033 12.224 94.2513 12.848 94.2513 13.808V17ZM102.506 17.156C100.742 17.156 99.5057 15.872 99.5057 14.036C99.5057 12.176 100.718 10.892 102.458 10.892C104.234 10.892 105.362 12.08 105.362 13.928V14.372L100.898 14.384C101.006 15.428 101.558 15.956 102.53 15.956C103.334 15.956 103.862 15.644 104.03 15.08H105.386C105.134 16.376 104.054 17.156 102.506 17.156ZM102.47 12.092C101.606 12.092 101.078 12.56 100.934 13.448H103.91C103.91 12.632 103.346 12.092 102.47 12.092Z" fill="black"/>
</svg>
