<svg width="134" height="24" viewBox="0 0 134 24" fill="none" xmlns="http://www.w3.org/2000/svg">
<path d="M11 19.5H21" stroke="#1A1A1A" stroke-width="1.5" stroke-linecap="round" stroke-linejoin="round"/>
<path d="M11 12.5H21" stroke="#1A1A1A" stroke-width="1.5" stroke-linecap="round" stroke-linejoin="round"/>
<path d="M11 5.5H21" stroke="#1A1A1A" stroke-width="1.5" stroke-linecap="round" stroke-linejoin="round"/>
<path d="M3 5.5L4 6.5L7 3.5" stroke="#1A1A1A" stroke-width="1.5" stroke-linecap="round" stroke-linejoin="round"/>
<path d="M3 12.5L4 13.5L7 10.5" stroke="#1A1A1A" stroke-width="1.5" stroke-linecap="round" stroke-linejoin="round"/>
<path d="M3 19.5L4 20.5L7 17.5" stroke="#1A1A1A" stroke-width="1.5" stroke-linecap="round" stroke-linejoin="round"/>
<path d="M34.204 8.644V7.228H40.876V8.644H38.308V16H36.772V8.644H34.204ZM42.5903 16.156C41.3303 16.156 40.5623 15.424 40.5623 14.308C40.5623 13.216 41.3543 12.532 42.7583 12.424L44.5343 12.292V12.16C44.5343 11.356 44.0543 11.032 43.3103 11.032C42.4463 11.032 41.9663 11.392 41.9663 12.016H40.7183C40.7183 10.732 41.7743 9.892 43.3823 9.892C44.9783 9.892 45.9623 10.756 45.9623 12.4V16H44.6783L44.5703 15.124C44.3183 15.736 43.5143 16.156 42.5903 16.156ZM43.0703 15.052C43.9703 15.052 44.5463 14.512 44.5463 13.6V13.288L43.3103 13.384C42.3983 13.468 42.0503 13.768 42.0503 14.248C42.0503 14.788 42.4103 15.052 43.0703 15.052ZM46.9445 14.2H48.3365C48.3485 14.716 48.7325 15.04 49.4045 15.04C50.0885 15.04 50.4605 14.764 50.4605 14.332C50.4605 14.032 50.3045 13.816 49.7765 13.696L48.7085 13.444C47.6405 13.204 47.1245 12.7 47.1245 11.752C47.1245 10.588 48.1085 9.892 49.4765 9.892C50.8085 9.892 51.7085 10.66 51.7205 11.812H50.3285C50.3165 11.308 49.9805 10.984 49.4165 10.984C48.8405 10.984 48.5045 11.248 48.5045 11.692C48.5045 12.028 48.7685 12.244 49.2725 12.364L50.3405 12.616C51.3365 12.844 51.8405 13.3 51.8405 14.212C51.8405 15.412 50.8205 16.156 49.3565 16.156C47.8805 16.156 46.9445 15.364 46.9445 14.2ZM54.4312 16H52.9792V7.072H54.4312V12.556L56.7352 10.072H58.5712L56.3152 12.424L58.5232 16H56.8432L55.2952 13.504L54.4312 14.404V16Z" fill="black"/>
</svg>
