<svg width="101" height="24" viewBox="0 0 101 24" fill="none" xmlns="http://www.w3.org/2000/svg">
<path d="M12 22V3" stroke="#1A1A1A" stroke-width="1.5" stroke-linecap="round" stroke-linejoin="round"/>
<path d="M15.3002 5.29999L12.0002 2L8.7002 5.29999" stroke="#1A1A1A" stroke-width="1.5" stroke-linecap="round" stroke-linejoin="round"/>
<path d="M5 7L3 5L1 7" stroke="#1A1A1A" stroke-width="1.5" stroke-linecap="round" stroke-linejoin="round"/>
<path d="M23 7L21 5L19 7" stroke="#1A1A1A" stroke-width="1.5" stroke-linecap="round" stroke-linejoin="round"/>
<path d="M3 6.04004V11.0001C3 15.0001 5 17.0001 9 17.0001H15C19 17.0001 21 15.0001 21 11.0001V6.04004" stroke="#1A1A1A" stroke-width="1.5" stroke-linecap="round" stroke-linejoin="round"/>
<path d="M9 20H15" stroke="#1A1A1A" stroke-width="1.5" stroke-linecap="round" stroke-linejoin="round"/>
<path d="M38.812 8.524C37.072 8.524 36.076 9.784 36.076 11.68C36.076 13.636 37.204 14.704 38.824 14.704C40.348 14.704 41.272 13.864 41.272 12.46V12.424H38.62V11.068H42.7V16H41.404L41.308 14.992C40.828 15.664 39.832 16.132 38.644 16.132C36.184 16.132 34.468 14.344 34.468 11.644C34.468 8.98 36.208 7.084 38.848 7.084C40.852 7.084 42.4 8.248 42.652 10.036H41.032C40.756 9.004 39.868 8.524 38.812 8.524ZM46.7947 16.156C45.0307 16.156 43.7947 14.872 43.7947 13.036C43.7947 11.176 45.0067 9.892 46.7467 9.892C48.5227 9.892 49.6507 11.08 49.6507 12.928V13.372L45.1867 13.384C45.2947 14.428 45.8467 14.956 46.8187 14.956C47.6227 14.956 48.1507 14.644 48.3187 14.08H49.6747C49.4227 15.376 48.3427 16.156 46.7947 16.156ZM46.7587 11.092C45.8947 11.092 45.3667 11.56 45.2227 12.448H48.1987C48.1987 11.632 47.6347 11.092 46.7587 11.092ZM52.2864 16H50.8224V10.072H52.1664L52.2864 10.768C52.5864 10.276 53.1864 9.892 54.0384 9.892C54.9384 9.892 55.5624 10.336 55.8744 11.02C56.1744 10.336 56.8704 9.892 57.7704 9.892C59.2104 9.892 60.0024 10.756 60.0024 12.124V16H58.5504V12.508C58.5504 11.656 58.0944 11.212 57.3984 11.212C56.6904 11.212 56.1504 11.668 56.1504 12.64V16H54.6864V12.496C54.6864 11.668 54.2424 11.224 53.5464 11.224C52.8504 11.224 52.2864 11.68 52.2864 12.64V16ZM62.1716 8.884C61.6676 8.884 61.2716 8.488 61.2716 7.996C61.2716 7.504 61.6676 7.12 62.1716 7.12C62.6516 7.12 63.0476 7.504 63.0476 7.996C63.0476 8.488 62.6516 8.884 62.1716 8.884ZM61.4396 16V10.072H62.9036V16H61.4396ZM65.8802 16H64.4162V10.072H65.7722L65.8922 10.84C66.2642 10.24 66.9842 9.892 67.7882 9.892C69.2762 9.892 70.0442 10.816 70.0442 12.352V16H68.5802V12.7C68.5802 11.704 68.0882 11.224 67.3322 11.224C66.4322 11.224 65.8802 11.848 65.8802 12.808V16ZM72.2146 8.884C71.7106 8.884 71.3146 8.488 71.3146 7.996C71.3146 7.504 71.7106 7.12 72.2146 7.12C72.6946 7.12 73.0906 7.504 73.0906 7.996C73.0906 8.488 72.6946 8.884 72.2146 8.884ZM71.4826 16V10.072H72.9466V16H71.4826ZM74.4471 13.444V12.148H78.3111V13.444H74.4471ZM84.9094 15.988L78.8254 16V14.848L81.6934 12.424C82.8814 11.416 83.2774 10.84 83.2774 10C83.2774 9.004 82.7374 8.44 81.8134 8.44C80.8534 8.44 80.2534 9.112 80.2414 10.24H78.7174C78.7294 8.32 79.9534 7.072 81.8134 7.072C83.6854 7.072 84.8494 8.14 84.8494 9.916C84.8494 11.14 84.1774 12.064 82.8454 13.204L81.2614 14.56H84.9094V15.988Z" fill="black"/>
</svg>
