<svg width="101" height="24" viewBox="0 0 101 24" fill="none" xmlns="http://www.w3.org/2000/svg">
<path d="M1 22H23" stroke="#1A1A1A" stroke-width="1.5" stroke-miterlimit="10" stroke-linecap="round" stroke-linejoin="round"/>
<path d="M19.7803 22.0098V17.5498" stroke="#1A1A1A" stroke-width="1.5" stroke-miterlimit="10" stroke-linecap="round" stroke-linejoin="round"/>
<path d="M19.7996 10.8901C18.5796 10.8901 17.5996 11.8701 17.5996 13.0901V15.3601C17.5996 16.5801 18.5796 17.5601 19.7996 17.5601C21.0196 17.5601 21.9996 16.5801 21.9996 15.3601V13.0901C21.9996 11.8701 21.0196 10.8901 19.7996 10.8901Z" stroke="#1A1A1A" stroke-width="1.5" stroke-miterlimit="10" stroke-linecap="round" stroke-linejoin="round"/>
<path d="M2.09961 21.9998V6.02979C2.09961 4.01979 3.09966 3.00977 5.08966 3.00977H11.3196C13.3096 3.00977 14.2996 4.01979 14.2996 6.02979V21.9998" stroke="#1A1A1A" stroke-width="1.5" stroke-miterlimit="10" stroke-linecap="round" stroke-linejoin="round"/>
<path d="M5.7998 8.25H10.7498" stroke="#1A1A1A" stroke-width="1.5" stroke-miterlimit="10" stroke-linecap="round" stroke-linejoin="round"/>
<path d="M5.7998 12H10.7498" stroke="#1A1A1A" stroke-width="1.5" stroke-miterlimit="10" stroke-linecap="round" stroke-linejoin="round"/>
<path d="M8.25 22V18.25" stroke="#1A1A1A" stroke-width="1.5" stroke-miterlimit="10" stroke-linecap="round" stroke-linejoin="round"/>
<path d="M34.972 16V7.228H38.464C40.192 7.228 41.248 8.128 41.248 9.592C41.248 10.564 40.816 11.26 39.988 11.608C40.912 11.908 41.38 12.604 41.38 13.624C41.38 15.124 40.336 16 38.524 16H34.972ZM38.332 8.584H36.508V10.972H38.368C39.208 10.972 39.676 10.528 39.676 9.748C39.676 8.992 39.196 8.584 38.332 8.584ZM38.464 12.268H36.508V14.644H38.464C39.328 14.644 39.808 14.224 39.808 13.432C39.808 12.688 39.316 12.268 38.464 12.268ZM46.5924 10.072H48.0564V16H46.7004L46.5924 15.208C46.2324 15.772 45.4644 16.156 44.6724 16.156C43.3044 16.156 42.5004 15.232 42.5004 13.78V10.072H43.9644V13.264C43.9644 14.392 44.4084 14.848 45.2244 14.848C46.1484 14.848 46.5924 14.308 46.5924 13.18V10.072ZM50.3005 8.884C49.7965 8.884 49.4005 8.488 49.4005 7.996C49.4005 7.504 49.7965 7.12 50.3005 7.12C50.7805 7.12 51.1765 7.504 51.1765 7.996C51.1765 8.488 50.7805 8.884 50.3005 8.884ZM49.5685 16V10.072H51.0325V16H49.5685ZM54.0211 16H52.5691V7.072H54.0211V16ZM57.9928 16.156C56.2768 16.156 55.2088 14.896 55.2088 13.06C55.2088 11.212 56.2888 9.892 58.0768 9.892C58.9048 9.892 59.6368 10.24 60.0088 10.828V7.072H61.4608V16H60.1168L60.0208 15.076C59.6608 15.76 58.8928 16.156 57.9928 16.156ZM58.3168 14.812C59.3368 14.812 59.9968 14.08 59.9968 13.012C59.9968 11.944 59.3368 11.2 58.3168 11.2C57.2968 11.2 56.6728 11.956 56.6728 13.012C56.6728 14.068 57.2968 14.812 58.3168 14.812ZM63.7185 8.884C63.2145 8.884 62.8185 8.488 62.8185 7.996C62.8185 7.504 63.2145 7.12 63.7185 7.12C64.1985 7.12 64.5945 7.504 64.5945 7.996C64.5945 8.488 64.1985 8.884 63.7185 8.884ZM62.9865 16V10.072H64.4505V16H62.9865ZM67.427 16H65.963V10.072H67.319L67.439 10.84C67.811 10.24 68.531 9.892 69.335 9.892C70.823 9.892 71.591 10.816 71.591 12.352V16H70.127V12.7C70.127 11.704 69.635 11.224 68.879 11.224C67.979 11.224 67.427 11.848 67.427 12.808V16ZM72.6934 12.904C72.6934 11.176 73.8214 9.88 75.5134 9.88C76.4014 9.88 77.0974 10.252 77.4454 10.888L77.5294 10.072H78.8854V15.7C78.8854 17.68 77.6974 18.916 75.7774 18.916C74.0734 18.916 72.9094 17.944 72.7294 16.36H74.1934C74.2894 17.128 74.8774 17.584 75.7774 17.584C76.7854 17.584 77.4334 16.948 77.4334 15.964V14.98C77.0614 15.532 76.3294 15.88 75.4774 15.88C73.7974 15.88 72.6934 14.62 72.6934 12.904ZM74.1694 12.868C74.1694 13.864 74.8054 14.608 75.7654 14.608C76.7734 14.608 77.3974 13.9 77.3974 12.868C77.3974 11.86 76.7854 11.164 75.7654 11.164C74.7934 11.164 74.1694 11.896 74.1694 12.868ZM80.3885 13.444V12.148H84.2525V13.444H80.3885ZM92.2963 14.332H91.2283V16H89.7763V14.332H85.3243V12.988L89.2963 7.228H91.2283V12.988H92.2963V14.332ZM86.9563 12.988H89.7763V8.884L86.9563 12.988Z" fill="black"/>
</svg>
