<svg width="200" height="24" viewBox="0 0 200 24" fill="none" xmlns="http://www.w3.org/2000/svg">
<path d="M4.41015 16.75C4.17015 19.64 6.35015 22 9.25015 22H14.0402C17.3002 22 19.5402 19.37 19.0002 16.15C18.4302 12.77 15.1702 10 11.7402 10C8.02015 10 4.72015 13.04 4.41015 16.75Z" stroke="#1A1A1A" stroke-width="1.5" stroke-linecap="round" stroke-linejoin="round"/>
<path d="M10.4702 7.5C11.8509 7.5 12.9702 6.38071 12.9702 5C12.9702 3.61929 11.8509 2.5 10.4702 2.5C9.0895 2.5 7.97021 3.61929 7.97021 5C7.97021 6.38071 9.0895 7.5 10.4702 7.5Z" stroke="#1A1A1A" stroke-width="1.5" stroke-linecap="round" stroke-linejoin="round"/>
<path d="M17.2998 8.69995C18.4044 8.69995 19.2998 7.80452 19.2998 6.69995C19.2998 5.59538 18.4044 4.69995 17.2998 4.69995C16.1952 4.69995 15.2998 5.59538 15.2998 6.69995C15.2998 7.80452 16.1952 8.69995 17.2998 8.69995Z" stroke="#1A1A1A" stroke-width="1.5" stroke-linecap="round" stroke-linejoin="round"/>
<path d="M21 12.7C21.8284 12.7 22.5 12.0284 22.5 11.2C22.5 10.3715 21.8284 9.69995 21 9.69995C20.1716 9.69995 19.5 10.3715 19.5 11.2C19.5 12.0284 20.1716 12.7 21 12.7Z" stroke="#1A1A1A" stroke-width="1.5" stroke-linecap="round" stroke-linejoin="round"/>
<path d="M3.97021 10.7C5.07478 10.7 5.97021 9.80452 5.97021 8.69995C5.97021 7.59538 5.07478 6.69995 3.97021 6.69995C2.86565 6.69995 1.97021 7.59538 1.97021 8.69995C1.97021 9.80452 2.86565 10.7 3.97021 10.7Z" stroke="#1A1A1A" stroke-width="1.5" stroke-linecap="round" stroke-linejoin="round"/>
<path d="M38.44 12.976H36.508V16H34.972V7.228H38.44C40.204 7.228 41.344 8.38 41.344 10.096C41.344 11.788 40.192 12.976 38.44 12.976ZM38.14 8.596H36.508V11.608H38.116C39.172 11.608 39.736 11.044 39.736 10.084C39.736 9.124 39.16 8.596 38.14 8.596ZM44.7791 16.156C43.0151 16.156 41.7791 14.872 41.7791 13.036C41.7791 11.176 42.9911 9.892 44.7311 9.892C46.5071 9.892 47.6351 11.08 47.6351 12.928V13.372L43.1711 13.384C43.2791 14.428 43.8311 14.956 44.8031 14.956C45.6071 14.956 46.1351 14.644 46.3031 14.08H47.6591C47.4071 15.376 46.3271 16.156 44.7791 16.156ZM44.7431 11.092C43.8791 11.092 43.3511 11.56 43.2071 12.448H46.1831C46.1831 11.632 45.6191 11.092 44.7431 11.092ZM50.7642 16H49.3002V11.296H48.1602V10.072H49.3002V8.224H50.7642V10.072H51.9162V11.296H50.7642V16Z" fill="black"/>
</svg>
