<svg width="141" height="24" viewBox="0 0 141 24" fill="none" xmlns="http://www.w3.org/2000/svg">
<path d="M12 5.56006H22" stroke="#1A1A1A" stroke-width="1.5" stroke-miterlimit="10" stroke-linecap="round" stroke-linejoin="round"/>
<path d="M14.22 2H19.78C21.56 2 22 2.44 22 4.2V8.31C22 10.07 21.56 10.51 19.78 10.51H14.22C12.44 10.51 12 10.07 12 8.31V4.2C12 2.44 12.44 2 14.22 2Z" stroke="#1A1A1A" stroke-width="1.5" stroke-linecap="round" stroke-linejoin="round"/>
<path d="M2 17.0601H12" stroke="#1A1A1A" stroke-width="1.5" stroke-miterlimit="10" stroke-linecap="round" stroke-linejoin="round"/>
<path d="M4.22 13.5H9.78C11.56 13.5 12 13.94 12 15.7V19.81C12 21.57 11.56 22.01 9.78 22.01H4.22C2.44 22.01 2 21.57 2 19.81V15.7C2 13.94 2.44 13.5 4.22 13.5Z" stroke="#1A1A1A" stroke-width="1.5" stroke-linecap="round" stroke-linejoin="round"/>
<path d="M22 15C22 18.87 18.87 22 15 22L16.05 20.25" stroke="#1A1A1A" stroke-width="1.5" stroke-linecap="round" stroke-linejoin="round"/>
<path d="M2 9C2 5.13 5.13 2 9 2L7.95001 3.75" stroke="#1A1A1A" stroke-width="1.5" stroke-linecap="round" stroke-linejoin="round"/>
<path d="M34.42 12.904C34.42 11.176 35.548 9.88 37.24 9.88C38.128 9.88 38.824 10.252 39.172 10.888L39.256 10.072H40.612V15.7C40.612 17.68 39.424 18.916 37.504 18.916C35.8 18.916 34.636 17.944 34.456 16.36H35.92C36.016 17.128 36.604 17.584 37.504 17.584C38.512 17.584 39.16 16.948 39.16 15.964V14.98C38.788 15.532 38.056 15.88 37.204 15.88C35.524 15.88 34.42 14.62 34.42 12.904ZM35.896 12.868C35.896 13.864 36.532 14.608 37.492 14.608C38.5 14.608 39.124 13.9 39.124 12.868C39.124 11.86 38.512 11.164 37.492 11.164C36.52 11.164 35.896 11.896 35.896 12.868ZM45.8471 10.048V11.404H45.3071C44.2511 11.404 43.5911 11.968 43.5911 13.12V16H42.1271V10.084H43.5071L43.5911 10.948C43.8431 10.36 44.4071 9.964 45.1991 9.964C45.4031 9.964 45.6071 9.988 45.8471 10.048ZM46.2908 13.024C46.2908 11.176 47.6228 9.904 49.4588 9.904C51.2948 9.904 52.6268 11.176 52.6268 13.024C52.6268 14.872 51.2948 16.144 49.4588 16.144C47.6228 16.144 46.2908 14.872 46.2908 13.024ZM47.7548 13.024C47.7548 14.104 48.4508 14.836 49.4588 14.836C50.4668 14.836 51.1628 14.104 51.1628 13.024C51.1628 11.944 50.4668 11.212 49.4588 11.212C48.4508 11.212 47.7548 11.944 47.7548 13.024ZM57.6666 10.072H59.1306V16H57.7746L57.6666 15.208C57.3066 15.772 56.5386 16.156 55.7466 16.156C54.3786 16.156 53.5746 15.232 53.5746 13.78V10.072H55.0386V13.264C55.0386 14.392 55.4826 14.848 56.2986 14.848C57.2226 14.848 57.6666 14.308 57.6666 13.18V10.072ZM60.6427 18.748V10.072H61.9987L62.0947 10.972C62.4547 10.288 63.2347 9.892 64.1347 9.892C65.8027 9.892 66.9067 11.104 66.9067 12.964C66.9067 14.812 65.8987 16.156 64.1347 16.156C63.2467 16.156 62.4787 15.808 62.1067 15.208V18.748H60.6427ZM62.1187 13.036C62.1187 14.104 62.7787 14.836 63.7867 14.836C64.8187 14.836 65.4307 14.092 65.4307 13.036C65.4307 11.98 64.8187 11.224 63.7867 11.224C62.7787 11.224 62.1187 11.968 62.1187 13.036ZM68.0604 13.444V12.148H71.9244V13.444H68.0604ZM78.5227 15.988L72.4387 16V14.848L75.3067 12.424C76.4947 11.416 76.8907 10.84 76.8907 10C76.8907 9.004 76.3507 8.44 75.4267 8.44C74.4667 8.44 73.8667 9.112 73.8547 10.24H72.3307C72.3427 8.32 73.5667 7.072 75.4267 7.072C77.2987 7.072 78.4627 8.14 78.4627 9.916C78.4627 11.14 77.7907 12.064 76.4587 13.204L74.8747 14.56H78.5227V15.988Z" fill="black"/>
</svg>
