<svg width="101" height="24" viewBox="0 0 101 24" fill="none" xmlns="http://www.w3.org/2000/svg">
<path d="M22 9V15C22 15.22 22 15.44 21.98 15.65C21.16 14.64 19.91 14 18.5 14C17.44 14 16.46 14.37 15.69 14.99C14.65 15.81 14 17.08 14 18.5C14 19.34 14.24 20.14 14.65 20.82C14.92 21.27 15.26 21.66 15.66 21.98C15.45 22 15.23 22 15 22H9C4 22 2 20 2 15V9C2 4 4 2 9 2H15C20 2 22 4 22 9Z" stroke="#1A1A1A" stroke-width="1.5" stroke-linecap="round" stroke-linejoin="round"/>
<path d="M2.51953 7.10986H21.4795" stroke="#1A1A1A" stroke-width="1.5" stroke-linecap="round" stroke-linejoin="round"/>
<path d="M8.51953 2.10986V6.96985" stroke="#1A1A1A" stroke-width="1.5" stroke-linecap="round" stroke-linejoin="round"/>
<path d="M15.4795 2.10986V6.5199" stroke="#1A1A1A" stroke-width="1.5" stroke-linecap="round" stroke-linejoin="round"/>
<path d="M23 18.5C23 19.34 22.76 20.14 22.35 20.82C22.11 21.22 21.81 21.58 21.46 21.88C20.67 22.58 19.64 23 18.5 23C17.43 23 16.44 22.62 15.67 21.98H15.66C15.26 21.66 14.92 21.27 14.65 20.82C14.24 20.14 14 19.34 14 18.5C14 17.08 14.65 15.81 15.69 14.99C16.46 14.37 17.44 14 18.5 14C19.91 14 21.16 14.64 21.98 15.65C22.62 16.42 23 17.42 23 18.5Z" stroke="#1A1A1A" stroke-width="1.5" stroke-miterlimit="10" stroke-linecap="round" stroke-linejoin="round"/>
<path d="M16.75 18.5001L17.86 19.6101L20.26 17.3901" stroke="#1A1A1A" stroke-width="1.5" stroke-linecap="round" stroke-linejoin="round"/>
<path d="M37.432 16L34.12 7.228H35.752L37.672 12.28C37.864 12.808 38.032 13.324 38.224 14.032C38.44 13.264 38.62 12.724 38.788 12.28L40.684 7.228H42.28L39.016 16H37.432ZM43.8903 8.884C43.3863 8.884 42.9903 8.488 42.9903 7.996C42.9903 7.504 43.3863 7.12 43.8903 7.12C44.3703 7.12 44.7663 7.504 44.7663 7.996C44.7663 8.488 44.3703 8.884 43.8903 8.884ZM43.1583 16V10.072H44.6223V16H43.1583ZM48.5709 16.156C46.8549 16.156 45.7869 14.896 45.7869 13.06C45.7869 11.212 46.8669 9.892 48.6549 9.892C49.4829 9.892 50.2149 10.24 50.5869 10.828V7.072H52.0389V16H50.6949L50.5989 15.076C50.2389 15.76 49.4709 16.156 48.5709 16.156ZM48.8949 14.812C49.9149 14.812 50.5749 14.08 50.5749 13.012C50.5749 11.944 49.9149 11.2 48.8949 11.2C47.8749 11.2 47.2509 11.956 47.2509 13.012C47.2509 14.068 47.8749 14.812 48.8949 14.812ZM56.2166 16.156C54.4526 16.156 53.2166 14.872 53.2166 13.036C53.2166 11.176 54.4286 9.892 56.1686 9.892C57.9446 9.892 59.0726 11.08 59.0726 12.928V13.372L54.6086 13.384C54.7166 14.428 55.2686 14.956 56.2406 14.956C57.0446 14.956 57.5726 14.644 57.7406 14.08H59.0966C58.8446 15.376 57.7646 16.156 56.2166 16.156ZM56.1806 11.092C55.3166 11.092 54.7886 11.56 54.6446 12.448H57.6206C57.6206 11.632 57.0566 11.092 56.1806 11.092ZM59.8963 13.024C59.8963 11.176 61.2283 9.904 63.0643 9.904C64.9003 9.904 66.2323 11.176 66.2323 13.024C66.2323 14.872 64.9003 16.144 63.0643 16.144C61.2283 16.144 59.8963 14.872 59.8963 13.024ZM61.3603 13.024C61.3603 14.104 62.0563 14.836 63.0643 14.836C64.0723 14.836 64.7683 14.104 64.7683 13.024C64.7683 11.944 64.0723 11.212 63.0643 11.212C62.0563 11.212 61.3603 11.944 61.3603 13.024ZM67.3807 13.444V12.148H71.2447V13.444H67.3807ZM74.5181 16H73.0541V11.296H71.9141V10.072H73.0541V8.224H74.5181V10.072H75.6701V11.296H74.5181V16ZM77.3122 8.884C76.8082 8.884 76.4122 8.488 76.4122 7.996C76.4122 7.504 76.8082 7.12 77.3122 7.12C77.7922 7.12 78.1882 7.504 78.1882 7.996C78.1882 8.488 77.7922 8.884 77.3122 8.884ZM76.5802 16V10.072H78.0442V16H76.5802ZM79.2088 13.024C79.2088 11.188 80.4208 9.892 82.1728 9.892C83.7928 9.892 84.8968 10.792 85.0528 12.22H83.5888C83.4208 11.548 82.9288 11.2 82.2328 11.2C81.2968 11.2 80.6728 11.908 80.6728 13.024C80.6728 14.14 81.2488 14.836 82.1848 14.836C82.9168 14.836 83.4328 14.476 83.5888 13.828H85.0648C84.8848 15.208 83.7328 16.156 82.1848 16.156C80.3848 16.156 79.2088 14.908 79.2088 13.024ZM87.6304 16H86.1784V7.072H87.6304V12.556L89.9344 10.072H91.7704L89.5144 12.424L91.7224 16H90.0424L88.4944 13.504L87.6304 14.404V16Z" fill="black"/>
</svg>
