<svg width="101" height="24" viewBox="0 0 101 24" fill="none" xmlns="http://www.w3.org/2000/svg">
<path d="M2 22H22" stroke="#1A1A1A" stroke-width="1.5" stroke-miterlimit="10" stroke-linecap="round" stroke-linejoin="round"/>
<path d="M2.9502 22.0003L3.00019 9.97023C3.00019 9.36023 3.2902 8.78029 3.7702 8.40029L10.7702 2.95027C11.4902 2.39027 12.5002 2.39027 13.2302 2.95027L20.2302 8.39028C20.7202 8.77028 21.0002 9.35023 21.0002 9.97023V22.0003" stroke="#1A1A1A" stroke-width="1.5" stroke-miterlimit="10" stroke-linejoin="round"/>
<path d="M13 17H11C10.17 17 9.5 17.67 9.5 18.5V22H14.5V18.5C14.5 17.67 13.83 17 13 17Z" stroke="#1A1A1A" stroke-width="1.5" stroke-miterlimit="10" stroke-linejoin="round"/>
<path d="M9.5 13.75H7.5C6.95 13.75 6.5 13.3 6.5 12.75V11.25C6.5 10.7 6.95 10.25 7.5 10.25H9.5C10.05 10.25 10.5 10.7 10.5 11.25V12.75C10.5 13.3 10.05 13.75 9.5 13.75Z" stroke="#1A1A1A" stroke-width="1.5" stroke-miterlimit="10" stroke-linejoin="round"/>
<path d="M16.5 13.75H14.5C13.95 13.75 13.5 13.3 13.5 12.75V11.25C13.5 10.7 13.95 10.25 14.5 10.25H16.5C17.05 10.25 17.5 10.7 17.5 11.25V12.75C17.5 13.3 17.05 13.75 16.5 13.75Z" stroke="#1A1A1A" stroke-width="1.5" stroke-miterlimit="10" stroke-linejoin="round"/>
<path d="M19.0003 7L18.9703 4H14.5703" stroke="#1A1A1A" stroke-width="1.5" stroke-miterlimit="10" stroke-linecap="round" stroke-linejoin="round"/>
<path d="M36.508 16H34.972V7.228H36.508V10.852H40.396V7.228H41.932V16H40.396V12.28H36.508V16ZM43.3143 13.024C43.3143 11.176 44.6463 9.904 46.4823 9.904C48.3183 9.904 49.6503 11.176 49.6503 13.024C49.6503 14.872 48.3183 16.144 46.4823 16.144C44.6463 16.144 43.3143 14.872 43.3143 13.024ZM44.7783 13.024C44.7783 14.104 45.4743 14.836 46.4823 14.836C47.4903 14.836 48.1863 14.104 48.1863 13.024C48.1863 11.944 47.4903 11.212 46.4823 11.212C45.4743 11.212 44.7783 11.944 44.7783 13.024ZM54.6901 10.072H56.1541V16H54.7981L54.6901 15.208C54.3301 15.772 53.5621 16.156 52.7701 16.156C51.4021 16.156 50.5981 15.232 50.5981 13.78V10.072H52.0621V13.264C52.0621 14.392 52.5061 14.848 53.3221 14.848C54.2461 14.848 54.6901 14.308 54.6901 13.18V10.072ZM57.093 14.2H58.485C58.497 14.716 58.881 15.04 59.553 15.04C60.237 15.04 60.609 14.764 60.609 14.332C60.609 14.032 60.453 13.816 59.925 13.696L58.857 13.444C57.789 13.204 57.273 12.7 57.273 11.752C57.273 10.588 58.257 9.892 59.625 9.892C60.957 9.892 61.857 10.66 61.869 11.812H60.477C60.465 11.308 60.129 10.984 59.565 10.984C58.989 10.984 58.653 11.248 58.653 11.692C58.653 12.028 58.917 12.244 59.421 12.364L60.489 12.616C61.485 12.844 61.989 13.3 61.989 14.212C61.989 15.412 60.969 16.156 59.505 16.156C58.029 16.156 57.093 15.364 57.093 14.2ZM65.7557 16.156C63.9917 16.156 62.7557 14.872 62.7557 13.036C62.7557 11.176 63.9677 9.892 65.7077 9.892C67.4837 9.892 68.6117 11.08 68.6117 12.928V13.372L64.1477 13.384C64.2557 14.428 64.8077 14.956 65.7797 14.956C66.5837 14.956 67.1117 14.644 67.2797 14.08H68.6357C68.3837 15.376 67.3037 16.156 65.7557 16.156ZM65.7197 11.092C64.8557 11.092 64.3277 11.56 64.1837 12.448H67.1597C67.1597 11.632 66.5957 11.092 65.7197 11.092Z" fill="black"/>
</svg>
