<svg width="142" height="24" viewBox="0 0 142 24" fill="none" xmlns="http://www.w3.org/2000/svg">
<path d="M12 22C17.5228 22 22 17.5228 22 12C22 6.47715 17.5228 2 12 2C6.47715 2 2 6.47715 2 12C2 17.5228 6.47715 22 12 22Z" stroke="#1A1A1A" stroke-width="1.5" stroke-linecap="round" stroke-linejoin="round"/>
<path d="M8.5 12H14.5" stroke="#1A1A1A" stroke-width="1.5" stroke-linecap="round" stroke-linejoin="round"/>
<path d="M12.5 15L15.5 12L12.5 9" stroke="#1A1A1A" stroke-width="1.5" stroke-linecap="round" stroke-linejoin="round"/>
<path d="M35.728 17H34.132L37.3 8.228H38.872L42.04 17H40.42L39.712 14.972H36.436L35.728 17ZM37.888 10.844L36.892 13.676H39.268L38.26 10.844C38.188 10.616 38.104 10.352 38.08 10.172C38.044 10.34 37.972 10.604 37.888 10.844ZM46.644 11.048V12.404H46.104C45.048 12.404 44.388 12.968 44.388 14.12V17H42.924V11.084H44.304L44.388 11.948C44.64 11.36 45.204 10.964 45.996 10.964C46.2 10.964 46.404 10.988 46.644 11.048ZM51.3549 11.048V12.404H50.8149C49.7589 12.404 49.0989 12.968 49.0989 14.12V17H47.6349V11.084H49.0149L49.0989 11.948C49.3509 11.36 49.9149 10.964 50.7069 10.964C50.9109 10.964 51.1149 10.988 51.3549 11.048ZM51.7986 14.024C51.7986 12.176 53.1306 10.904 54.9666 10.904C56.8026 10.904 58.1346 12.176 58.1346 14.024C58.1346 15.872 56.8026 17.144 54.9666 17.144C53.1306 17.144 51.7986 15.872 51.7986 14.024ZM53.2626 14.024C53.2626 15.104 53.9586 15.836 54.9666 15.836C55.9746 15.836 56.6706 15.104 56.6706 14.024C56.6706 12.944 55.9746 12.212 54.9666 12.212C53.9586 12.212 53.2626 12.944 53.2626 14.024ZM60.3101 17L58.3901 11.072H59.9141L60.6941 13.616C60.8261 14.084 60.9461 14.6 61.0541 15.152C61.1621 14.576 61.2701 14.204 61.4621 13.616L62.2781 11.072H63.7661L64.5581 13.616C64.6301 13.856 64.8701 14.744 64.9421 15.14C65.0381 14.696 65.2301 13.988 65.3381 13.616L66.1301 11.072H67.6781L65.6261 17H64.2581L63.4421 14.432C63.2021 13.652 63.0701 13.088 63.0221 12.788C62.9621 13.064 62.8541 13.484 62.5541 14.456L61.7381 17H60.3101ZM68.1424 14.444V13.148H72.0064V14.444H68.1424ZM77.2182 11.048V12.404H76.6782C75.6222 12.404 74.9622 12.968 74.9622 14.12V17H73.4982V11.084H74.8782L74.9622 11.948C75.2142 11.36 75.7782 10.964 76.5702 10.964C76.7742 10.964 76.9782 10.988 77.2182 11.048ZM78.9411 9.884C78.4371 9.884 78.0411 9.488 78.0411 8.996C78.0411 8.504 78.4371 8.12 78.9411 8.12C79.4211 8.12 79.8171 8.504 79.8171 8.996C79.8171 9.488 79.4211 9.884 78.9411 9.884ZM78.2091 17V11.072H79.6731V17H78.2091ZM80.8497 13.904C80.8497 12.176 81.9777 10.88 83.6697 10.88C84.5577 10.88 85.2537 11.252 85.6017 11.888L85.6857 11.072H87.0417V16.7C87.0417 18.68 85.8537 19.916 83.9337 19.916C82.2297 19.916 81.0657 18.944 80.8857 17.36H82.3497C82.4457 18.128 83.0337 18.584 83.9337 18.584C84.9417 18.584 85.5897 17.948 85.5897 16.964V15.98C85.2177 16.532 84.4857 16.88 83.6337 16.88C81.9537 16.88 80.8497 15.62 80.8497 13.904ZM82.3257 13.868C82.3257 14.864 82.9617 15.608 83.9217 15.608C84.9297 15.608 85.5537 14.9 85.5537 13.868C85.5537 12.86 84.9417 12.164 83.9217 12.164C82.9497 12.164 82.3257 12.896 82.3257 13.868ZM90.0208 17H88.5568V8.072H90.0328V11.84C90.4048 11.264 91.1008 10.892 91.9528 10.892C93.4168 10.892 94.1848 11.816 94.1848 13.352V17H92.7208V13.7C92.7208 12.704 92.2288 12.224 91.4848 12.224C90.5608 12.224 90.0208 12.872 90.0208 13.76V17ZM97.6392 17H96.1752V12.296H95.0352V11.072H96.1752V9.224H97.6392V11.072H98.7912V12.296H97.6392V17ZM99.4549 14.444V13.148H103.319V14.444H99.4549ZM104.463 14.024C104.463 12.188 105.675 10.892 107.427 10.892C109.047 10.892 110.151 11.792 110.307 13.22H108.843C108.675 12.548 108.183 12.2 107.487 12.2C106.551 12.2 105.927 12.908 105.927 14.024C105.927 15.14 106.503 15.836 107.439 15.836C108.171 15.836 108.687 15.476 108.843 14.828H110.319C110.139 16.208 108.987 17.156 107.439 17.156C105.639 17.156 104.463 15.908 104.463 14.024ZM112.14 9.884C111.636 9.884 111.24 9.488 111.24 8.996C111.24 8.504 111.636 8.12 112.14 8.12C112.62 8.12 113.016 8.504 113.016 8.996C113.016 9.488 112.62 9.884 112.14 9.884ZM111.408 17V11.072H112.872V17H111.408ZM118.105 11.048V12.404H117.565C116.509 12.404 115.849 12.968 115.849 14.12V17H114.385V11.084H115.765L115.849 11.948C116.101 11.36 116.665 10.964 117.457 10.964C117.661 10.964 117.865 10.988 118.105 11.048ZM118.549 14.024C118.549 12.188 119.761 10.892 121.513 10.892C123.133 10.892 124.237 11.792 124.393 13.22H122.929C122.761 12.548 122.269 12.2 121.573 12.2C120.637 12.2 120.013 12.908 120.013 14.024C120.013 15.14 120.589 15.836 121.525 15.836C122.257 15.836 122.773 15.476 122.929 14.828H124.405C124.225 16.208 123.073 17.156 121.525 17.156C119.725 17.156 118.549 15.908 118.549 14.024ZM126.97 17H125.518V8.072H126.97V17ZM131.158 17.156C129.394 17.156 128.158 15.872 128.158 14.036C128.158 12.176 129.37 10.892 131.11 10.892C132.886 10.892 134.014 12.08 134.014 13.928V14.372L129.55 14.384C129.658 15.428 130.21 15.956 131.182 15.956C131.986 15.956 132.514 15.644 132.682 15.08H134.038C133.786 16.376 132.706 17.156 131.158 17.156ZM131.122 12.092C130.258 12.092 129.73 12.56 129.586 13.448H132.562C132.562 12.632 131.998 12.092 131.122 12.092Z" fill="black"/>
</svg>
