<svg width="106" height="24" viewBox="0 0 106 24" fill="none" xmlns="http://www.w3.org/2000/svg">
<path d="M9.15957 10.87C9.05957 10.86 8.93957 10.86 8.82957 10.87C6.44957 10.79 4.55957 8.84 4.55957 6.44C4.55957 3.99 6.53957 2 8.99957 2C11.4496 2 13.4396 3.99 13.4396 6.44C13.4296 8.84 11.5396 10.79 9.15957 10.87Z" stroke="#1A1A1A" stroke-width="1.5" stroke-linecap="round" stroke-linejoin="round"/>
<path d="M16.4103 4C18.3503 4 19.9103 5.57 19.9103 7.5C19.9103 9.39 18.4103 10.93 16.5403 11C16.4603 10.99 16.3703 10.99 16.2803 11" stroke="#1A1A1A" stroke-width="1.5" stroke-linecap="round" stroke-linejoin="round"/>
<path d="M4.15973 14.56C1.73973 16.18 1.73973 18.82 4.15973 20.43C6.90973 22.27 11.4197 22.27 14.1697 20.43C16.5897 18.81 16.5897 16.17 14.1697 14.56C11.4297 12.73 6.91973 12.73 4.15973 14.56Z" stroke="#1A1A1A" stroke-width="1.5" stroke-linecap="round" stroke-linejoin="round"/>
<path d="M18.3398 20C19.0598 19.85 19.7398 19.56 20.2998 19.13C21.8598 17.96 21.8598 16.03 20.2998 14.86C19.7498 14.44 19.0798 14.16 18.3698 14" stroke="#1A1A1A" stroke-width="1.5" stroke-linecap="round" stroke-linejoin="round"/>
<path d="M38.44 13.976H36.508V17H34.972V8.228H38.44C40.204 8.228 41.344 9.38 41.344 11.096C41.344 12.788 40.192 13.976 38.44 13.976ZM38.14 9.596H36.508V12.608H38.116C39.172 12.608 39.736 12.044 39.736 11.084C39.736 10.124 39.16 9.596 38.14 9.596ZM46.1401 11.048V12.404H45.6001C44.5441 12.404 43.8841 12.968 43.8841 14.12V17H42.4201V11.084H43.8001L43.8841 11.948C44.1361 11.36 44.7001 10.964 45.4921 10.964C45.6961 10.964 45.9001 10.988 46.1401 11.048ZM46.5838 14.024C46.5838 12.176 47.9158 10.904 49.7518 10.904C51.5878 10.904 52.9198 12.176 52.9198 14.024C52.9198 15.872 51.5878 17.144 49.7518 17.144C47.9158 17.144 46.5838 15.872 46.5838 14.024ZM48.0478 14.024C48.0478 15.104 48.7438 15.836 49.7518 15.836C50.7598 15.836 51.4558 15.104 51.4558 14.024C51.4558 12.944 50.7598 12.212 49.7518 12.212C48.7438 12.212 48.0478 12.944 48.0478 14.024ZM58.1968 17V12.296H55.7728V17H54.3208V12.296H53.4688V11.072H54.3208V10.352C54.3208 8.744 55.1608 8.072 56.3608 8.072C56.5888 8.072 56.8648 8.084 57.1168 8.132V9.38H56.6008C55.9408 9.38 55.7728 9.764 55.7728 10.352V11.072H59.6608V17H58.1968ZM58.9288 9.86C58.4368 9.86 58.0528 9.476 58.0528 8.984C58.0528 8.504 58.4368 8.12 58.9288 8.12C59.4088 8.12 59.7928 8.504 59.7928 8.984C59.7928 9.476 59.4088 9.86 58.9288 9.86ZM62.6461 17H61.1941V8.072H62.6461V17ZM66.8338 17.156C65.0698 17.156 63.8338 15.872 63.8338 14.036C63.8338 12.176 65.0458 10.892 66.7858 10.892C68.5618 10.892 69.6898 12.08 69.6898 13.928V14.372L65.2258 14.384C65.3338 15.428 65.8858 15.956 66.8578 15.956C67.6618 15.956 68.1898 15.644 68.3578 15.08H69.7138C69.4618 16.376 68.3818 17.156 66.8338 17.156ZM66.7978 12.092C65.9338 12.092 65.4058 12.56 65.2618 13.448H68.2378C68.2378 12.632 67.6738 12.092 66.7978 12.092ZM70.8495 14.444V13.148H74.7135V14.444H70.8495ZM81.3118 16.988L75.2278 17V15.848L78.0958 13.424C79.2838 12.416 79.6798 11.84 79.6798 11C79.6798 10.004 79.1398 9.44 78.2158 9.44C77.2558 9.44 76.6558 10.112 76.6438 11.24H75.1198C75.1318 9.32 76.3558 8.072 78.2158 8.072C80.0878 8.072 81.2518 9.14 81.2518 10.916C81.2518 12.14 80.5798 13.064 79.2478 14.204L77.6638 15.56H81.3118V16.988ZM86.5182 11.072H87.9822V17H86.6262L86.5182 16.208C86.1582 16.772 85.3902 17.156 84.5982 17.156C83.2302 17.156 82.4262 16.232 82.4262 14.78V11.072H83.8902V14.264C83.8902 15.392 84.3342 15.848 85.1502 15.848C86.0742 15.848 86.5182 15.308 86.5182 14.18V11.072ZM88.9211 15.2H90.3131C90.3251 15.716 90.7091 16.04 91.3811 16.04C92.0651 16.04 92.4371 15.764 92.4371 15.332C92.4371 15.032 92.2811 14.816 91.7531 14.696L90.6851 14.444C89.6171 14.204 89.1011 13.7 89.1011 12.752C89.1011 11.588 90.0851 10.892 91.4531 10.892C92.7851 10.892 93.6851 11.66 93.6971 12.812H92.3051C92.2931 12.308 91.9571 11.984 91.3931 11.984C90.8171 11.984 90.4811 12.248 90.4811 12.692C90.4811 13.028 90.7451 13.244 91.2491 13.364L92.3171 13.616C93.3131 13.844 93.8171 14.3 93.8171 15.212C93.8171 16.412 92.7971 17.156 91.3331 17.156C89.8571 17.156 88.9211 16.364 88.9211 15.2ZM97.5838 17.156C95.8198 17.156 94.5838 15.872 94.5838 14.036C94.5838 12.176 95.7958 10.892 97.5358 10.892C99.3118 10.892 100.44 12.08 100.44 13.928V14.372L95.9758 14.384C96.0838 15.428 96.6358 15.956 97.6078 15.956C98.4118 15.956 98.9398 15.644 99.1078 15.08H100.464C100.212 16.376 99.1318 17.156 97.5838 17.156ZM97.5478 12.092C96.6838 12.092 96.1558 12.56 96.0118 13.448H98.9878C98.9878 12.632 98.4238 12.092 97.5478 12.092ZM105.331 11.048V12.404H104.791C103.735 12.404 103.075 12.968 103.075 14.12V17H101.611V11.084H102.991L103.075 11.948C103.327 11.36 103.891 10.964 104.683 10.964C104.887 10.964 105.091 10.988 105.331 11.048Z" fill="black"/>
</svg>
