<svg width="126" height="24" viewBox="0 0 126 24" fill="none" xmlns="http://www.w3.org/2000/svg">
<path d="M6.7002 16L10.2002 8L13.8002 16" stroke="#1A1A1A" stroke-width="1.5" stroke-miterlimit="10" stroke-linecap="round" stroke-linejoin="round"/>
<path d="M7.5 13.3H12.9" stroke="#1A1A1A" stroke-width="1.5" stroke-miterlimit="10"/>
<path d="M16.2998 16V10.7" stroke="#1A1A1A" stroke-width="1.5" stroke-miterlimit="10" stroke-linecap="round" stroke-linejoin="round"/>
<path d="M15 22H9C4 22 2 20 2 15V9C2 4 4 2 9 2H15C20 2 22 4 22 9V15C22 20 20 22 15 22Z" stroke="#1A1A1A" stroke-width="1.5" stroke-linecap="round" stroke-linejoin="round"/>
<path d="M16.3398 8.03418V8.03418" stroke="#1A1A1A" stroke-width="1.5" stroke-linecap="round" stroke-linejoin="round"/>
<path d="M36.508 7.228V16H34.972V7.228H36.508ZM39.7125 16H38.2605V7.072H39.7125V16ZM42.7242 16H41.2722V7.072H42.7242V16ZM48.2799 10.072H49.7439V16H48.3879L48.2799 15.208C47.9199 15.772 47.1519 16.156 46.3599 16.156C44.9919 16.156 44.1879 15.232 44.1879 13.78V10.072H45.6519V13.264C45.6519 14.392 46.0959 14.848 46.9119 14.848C47.8359 14.848 48.2799 14.308 48.2799 13.18V10.072ZM50.6828 14.2H52.0748C52.0868 14.716 52.4708 15.04 53.1428 15.04C53.8268 15.04 54.1988 14.764 54.1988 14.332C54.1988 14.032 54.0428 13.816 53.5148 13.696L52.4468 13.444C51.3788 13.204 50.8628 12.7 50.8628 11.752C50.8628 10.588 51.8468 9.892 53.2148 9.892C54.5468 9.892 55.4468 10.66 55.4588 11.812H54.0668C54.0548 11.308 53.7188 10.984 53.1548 10.984C52.5788 10.984 52.2428 11.248 52.2428 11.692C52.2428 12.028 52.5068 12.244 53.0108 12.364L54.0788 12.616C55.0748 12.844 55.5788 13.3 55.5788 14.212C55.5788 15.412 54.5588 16.156 53.0948 16.156C51.6188 16.156 50.6828 15.364 50.6828 14.2ZM58.7095 16H57.2455V11.296H56.1055V10.072H57.2455V8.224H58.7095V10.072H59.8615V11.296H58.7095V16ZM64.4916 10.048V11.404H63.9516C62.8956 11.404 62.2356 11.968 62.2356 13.12V16H60.7716V10.084H62.1516L62.2356 10.948C62.4876 10.36 63.0516 9.964 63.8436 9.964C64.0476 9.964 64.2516 9.988 64.4916 10.048ZM67.0122 16.156C65.7522 16.156 64.9842 15.424 64.9842 14.308C64.9842 13.216 65.7762 12.532 67.1802 12.424L68.9562 12.292V12.16C68.9562 11.356 68.4762 11.032 67.7322 11.032C66.8682 11.032 66.3882 11.392 66.3882 12.016H65.1402C65.1402 10.732 66.1962 9.892 67.8042 9.892C69.4002 9.892 70.3842 10.756 70.3842 12.4V16H69.1002L68.9922 15.124C68.7402 15.736 67.9362 16.156 67.0122 16.156ZM67.4922 15.052C68.3922 15.052 68.9682 14.512 68.9682 13.6V13.288L67.7322 13.384C66.8202 13.468 66.4722 13.768 66.4722 14.248C66.4722 14.788 66.8322 15.052 67.4922 15.052ZM73.7564 16H72.2924V11.296H71.1524V10.072H72.2924V8.224H73.7564V10.072H74.9084V11.296H73.7564V16ZM75.4119 13.024C75.4119 11.176 76.7439 9.904 78.5799 9.904C80.4159 9.904 81.7479 11.176 81.7479 13.024C81.7479 14.872 80.4159 16.144 78.5799 16.144C76.7439 16.144 75.4119 14.872 75.4119 13.024ZM76.8759 13.024C76.8759 14.104 77.5719 14.836 78.5799 14.836C79.5879 14.836 80.2839 14.104 80.2839 13.024C80.2839 11.944 79.5879 11.212 78.5799 11.212C77.5719 11.212 76.8759 11.944 76.8759 13.024ZM86.6283 10.048V11.404H86.0883C85.0323 11.404 84.3723 11.968 84.3723 13.12V16H82.9083V10.084H84.2883L84.3723 10.948C84.6243 10.36 85.1883 9.964 85.9803 9.964C86.1843 9.964 86.3883 9.988 86.6283 10.048Z" fill="black"/>
</svg>
