<svg width="126" height="24" viewBox="0 0 126 24" fill="none" xmlns="http://www.w3.org/2000/svg">
<path d="M7.5 10.5H16.5" stroke="#1A1A1A" stroke-width="1.5" stroke-miterlimit="10" stroke-linecap="round" stroke-linejoin="round"/>
<path d="M9 6.5L11.8 10.5" stroke="#1A1A1A" stroke-width="1.5" stroke-miterlimit="10" stroke-linecap="round" stroke-linejoin="round"/>
<path d="M14.8 6.5L12 10.5" stroke="#1A1A1A" stroke-width="1.5" stroke-miterlimit="10" stroke-linecap="round" stroke-linejoin="round"/>
<path d="M7.5 13.5H16.5" stroke="#1A1A1A" stroke-width="1.5" stroke-miterlimit="10" stroke-linecap="round" stroke-linejoin="round"/>
<path d="M9 17.5L11.8 13.5" stroke="#1A1A1A" stroke-width="1.5" stroke-miterlimit="10" stroke-linecap="round" stroke-linejoin="round"/>
<path d="M14.8 17.5L12 13.5" stroke="#1A1A1A" stroke-width="1.5" stroke-miterlimit="10" stroke-linecap="round" stroke-linejoin="round"/>
<path d="M12 22C17.5228 22 22 17.5228 22 12C22 6.47715 17.5228 2 12 2C6.47715 2 2 6.47715 2 12C2 17.5228 6.47715 22 12 22Z" stroke="#1A1A1A" stroke-width="1.5" stroke-miterlimit="10"/>
<path d="M34.468 9.676C34.468 8.14 35.74 7.072 37.588 7.072C39.364 7.072 40.492 8.056 40.54 9.64H39.004C38.968 8.884 38.428 8.44 37.564 8.44C36.616 8.44 36.004 8.896 36.004 9.628C36.004 10.252 36.34 10.6 37.072 10.768L38.452 11.068C39.952 11.392 40.684 12.16 40.684 13.468C40.684 15.1 39.412 16.156 37.48 16.156C35.608 16.156 34.384 15.16 34.348 13.588H35.884C35.896 14.332 36.496 14.776 37.48 14.776C38.5 14.776 39.148 14.332 39.148 13.6C39.148 13.012 38.848 12.664 38.128 12.508L36.736 12.196C35.248 11.872 34.468 11.02 34.468 9.676ZM43.8736 16H42.4096V11.296H41.2696V10.072H42.4096V8.224H43.8736V10.072H45.0256V11.296H43.8736V16ZM47.6645 16.156C46.4045 16.156 45.6365 15.424 45.6365 14.308C45.6365 13.216 46.4285 12.532 47.8325 12.424L49.6085 12.292V12.16C49.6085 11.356 49.1285 11.032 48.3845 11.032C47.5205 11.032 47.0405 11.392 47.0405 12.016H45.7925C45.7925 10.732 46.8485 9.892 48.4565 9.892C50.0525 9.892 51.0365 10.756 51.0365 12.4V16H49.7525L49.6445 15.124C49.3925 15.736 48.5885 16.156 47.6645 16.156ZM48.1445 15.052C49.0445 15.052 49.6205 14.512 49.6205 13.6V13.288L48.3845 13.384C47.4725 13.468 47.1245 13.768 47.1245 14.248C47.1245 14.788 47.4845 15.052 48.1445 15.052ZM52.1268 13.024C52.1268 11.188 53.3388 9.892 55.0908 9.892C56.7108 9.892 57.8148 10.792 57.9708 12.22H56.5068C56.3388 11.548 55.8468 11.2 55.1508 11.2C54.2148 11.2 53.5908 11.908 53.5908 13.024C53.5908 14.14 54.1668 14.836 55.1028 14.836C55.8348 14.836 56.3508 14.476 56.5068 13.828H57.9828C57.8028 15.208 56.6508 16.156 55.1028 16.156C53.3027 16.156 52.1268 14.908 52.1268 13.024ZM60.5484 16H59.0964V7.072H60.5484V12.556L62.8524 10.072H64.6884L62.4324 12.424L64.6404 16H62.9604L61.4124 13.504L60.5484 14.404V16ZM65.0617 14.2H66.4537C66.4657 14.716 66.8497 15.04 67.5217 15.04C68.2057 15.04 68.5777 14.764 68.5777 14.332C68.5777 14.032 68.4217 13.816 67.8937 13.696L66.8257 13.444C65.7577 13.204 65.2417 12.7 65.2417 11.752C65.2417 10.588 66.2257 9.892 67.5937 9.892C68.9257 9.892 69.8257 10.66 69.8377 11.812H68.4457C68.4337 11.308 68.0977 10.984 67.5337 10.984C66.9577 10.984 66.6217 11.248 66.6217 11.692C66.6217 12.028 66.8857 12.244 67.3897 12.364L68.4577 12.616C69.4537 12.844 69.9577 13.3 69.9577 14.212C69.9577 15.412 68.9377 16.156 67.4737 16.156C65.9977 16.156 65.0617 15.364 65.0617 14.2ZM70.9081 13.444V12.148H74.7721V13.444H70.9081ZM79.2038 18.292H78.0398C76.8398 16.924 76.0478 14.776 76.0478 12.472C76.0478 10.372 76.7198 8.164 78.0398 6.664H79.2038C78.2078 8.02 77.5238 10.144 77.5238 12.472C77.5238 14.596 78.1118 16.804 79.2038 18.292ZM79.4992 14.2H80.8912C80.9032 14.716 81.2872 15.04 81.9592 15.04C82.6432 15.04 83.0152 14.764 83.0152 14.332C83.0152 14.032 82.8592 13.816 82.3312 13.696L81.2632 13.444C80.1952 13.204 79.6792 12.7 79.6792 11.752C79.6792 10.588 80.6632 9.892 82.0312 9.892C83.3632 9.892 84.2632 10.66 84.2752 11.812H82.8832C82.8712 11.308 82.5352 10.984 81.9712 10.984C81.3952 10.984 81.0592 11.248 81.0592 11.692C81.0592 12.028 81.3232 12.244 81.8272 12.364L82.8952 12.616C83.8912 12.844 84.3952 13.3 84.3952 14.212C84.3952 15.412 83.3752 16.156 81.9112 16.156C80.4352 16.156 79.4992 15.364 79.4992 14.2ZM87.5259 16H86.0619V11.296H84.9219V10.072H86.0619V8.224H87.5259V10.072H88.6779V11.296H87.5259V16ZM90.8544 16H89.1864L91.2264 13.096L89.1864 10.072H90.8904L92.1984 12.088L93.4584 10.072H95.1024L93.0864 13.072L95.0424 16H93.3624L92.1024 14.044L90.8544 16ZM96.3828 18.292H95.2188C96.3228 16.804 96.8988 14.596 96.8988 12.472C96.8988 10.144 96.2148 8.02 95.2188 6.664H96.3828C97.7028 8.164 98.3867 10.372 98.3867 12.472C98.3867 14.776 97.5828 16.924 96.3828 18.292Z" fill="black"/>
</svg>
