<svg width="101" height="24" viewBox="0 0 101 24" fill="none" xmlns="http://www.w3.org/2000/svg">
<path d="M9.62012 16L11.1201 17.5L14.3701 14.5" stroke="#1A1A1A" stroke-width="1.5" stroke-linecap="round" stroke-linejoin="round"/>
<path d="M8.80994 2L5.18994 5.63" stroke="#1A1A1A" stroke-width="1.5" stroke-miterlimit="10" stroke-linecap="round" stroke-linejoin="round"/>
<path d="M15.1899 2L18.8099 5.63" stroke="#1A1A1A" stroke-width="1.5" stroke-miterlimit="10" stroke-linecap="round" stroke-linejoin="round"/>
<path d="M2 7.8501C2 6.0001 2.99 5.8501 4.22 5.8501H19.78C21.01 5.8501 22 6.0001 22 7.8501C22 10.0001 21.01 9.8501 19.78 9.8501H4.22C2.99 9.8501 2 10.0001 2 7.8501Z" stroke="#1A1A1A" stroke-width="1.5"/>
<path d="M3.5 10L4.91 18.64C5.23 20.58 6 22 8.86 22H14.89C18 22 18.46 20.64 18.82 18.76L20.5 10" stroke="#1A1A1A" stroke-width="1.5" stroke-linecap="round"/>
<path d="M34.972 16V7.228H38.464C40.192 7.228 41.248 8.128 41.248 9.592C41.248 10.564 40.816 11.26 39.988 11.608C40.912 11.908 41.38 12.604 41.38 13.624C41.38 15.124 40.336 16 38.524 16H34.972ZM38.332 8.584H36.508V10.972H38.368C39.208 10.972 39.676 10.528 39.676 9.748C39.676 8.992 39.196 8.584 38.332 8.584ZM38.464 12.268H36.508V14.644H38.464C39.328 14.644 39.808 14.224 39.808 13.432C39.808 12.688 39.316 12.268 38.464 12.268ZM44.3364 16.156C43.0764 16.156 42.3084 15.424 42.3084 14.308C42.3084 13.216 43.1004 12.532 44.5044 12.424L46.2804 12.292V12.16C46.2804 11.356 45.8004 11.032 45.0564 11.032C44.1924 11.032 43.7124 11.392 43.7124 12.016H42.4644C42.4644 10.732 43.5204 9.892 45.1284 9.892C46.7244 9.892 47.7084 10.756 47.7084 12.4V16H46.4244L46.3164 15.124C46.0644 15.736 45.2604 16.156 44.3364 16.156ZM44.8164 15.052C45.7164 15.052 46.2924 14.512 46.2924 13.6V13.288L45.0564 13.384C44.1444 13.468 43.7964 13.768 43.7964 14.248C43.7964 14.788 44.1564 15.052 44.8164 15.052ZM48.8106 12.904C48.8106 11.176 49.9386 9.88 51.6306 9.88C52.5186 9.88 53.2146 10.252 53.5626 10.888L53.6466 10.072H55.0026V15.7C55.0026 17.68 53.8146 18.916 51.8946 18.916C50.1906 18.916 49.0266 17.944 48.8466 16.36H50.3106C50.4066 17.128 50.9946 17.584 51.8946 17.584C52.9026 17.584 53.5506 16.948 53.5506 15.964V14.98C53.1786 15.532 52.4466 15.88 51.5946 15.88C49.9146 15.88 48.8106 14.62 48.8106 12.904ZM50.2866 12.868C50.2866 13.864 50.9226 14.608 51.8826 14.608C52.8906 14.608 53.5146 13.9 53.5146 12.868C53.5146 11.86 52.9026 11.164 51.8826 11.164C50.9106 11.164 50.2866 11.896 50.2866 12.868ZM56.5057 13.444V12.148H60.3697V13.444H56.5057ZM63.6431 16H62.1791V11.296H61.0391V10.072H62.1791V8.224H63.6431V10.072H64.7951V11.296H63.6431V16ZM66.4372 8.884C65.9332 8.884 65.5372 8.488 65.5372 7.996C65.5372 7.504 65.9332 7.12 66.4372 7.12C66.9172 7.12 67.3132 7.504 67.3132 7.996C67.3132 8.488 66.9172 8.884 66.4372 8.884ZM65.7052 16V10.072H67.1692V16H65.7052ZM68.3338 13.024C68.3338 11.188 69.5458 9.892 71.2978 9.892C72.9178 9.892 74.0218 10.792 74.1778 12.22H72.7138C72.5458 11.548 72.0538 11.2 71.3578 11.2C70.4218 11.2 69.7978 11.908 69.7978 13.024C69.7978 14.14 70.3738 14.836 71.3098 14.836C72.0418 14.836 72.5578 14.476 72.7138 13.828H74.1898C74.0098 15.208 72.8578 16.156 71.3098 16.156C69.5098 16.156 68.3338 14.908 68.3338 13.024ZM76.7554 16H75.3034V7.072H76.7554V12.556L79.0594 10.072H80.8954L78.6394 12.424L80.8474 16H79.1674L77.6194 13.504L76.7554 14.404V16Z" fill="black"/>
</svg>
