<svg width="101" height="24" viewBox="0 0 101 24" fill="none" xmlns="http://www.w3.org/2000/svg">
<path d="M12 22C17.5228 22 22 17.5228 22 12C22 6.47715 17.5228 2 12 2C6.47715 2 2 6.47715 2 12C2 17.5228 6.47715 22 12 22Z" stroke="#1A1A1A" stroke-width="1.5" stroke-linecap="round" stroke-linejoin="round"/>
<path d="M12.3296 17.4496C12.1496 17.5096 11.8396 17.5096 11.6596 17.4496C10.0996 16.9196 6.59961 14.6896 6.59961 10.9096C6.59961 9.23964 7.93961 7.88965 9.59961 7.88965C10.5796 7.88965 11.4496 8.35964 11.9996 9.09964C12.5396 8.36964 13.4196 7.88965 14.3996 7.88965C16.0596 7.88965 17.3996 9.23964 17.3996 10.9096C17.3996 14.6896 13.8996 16.9196 12.3296 17.4496Z" stroke="#1A1A1A" stroke-width="1.5" stroke-linecap="round" stroke-linejoin="round"/>
<path d="M36.508 16H34.972V7.228H36.508V10.852H40.396V7.228H41.932V16H40.396V12.28H36.508V16ZM46.3143 16.156C44.5503 16.156 43.3143 14.872 43.3143 13.036C43.3143 11.176 44.5263 9.892 46.2663 9.892C48.0423 9.892 49.1703 11.08 49.1703 12.928V13.372L44.7063 13.384C44.8143 14.428 45.3663 14.956 46.3383 14.956C47.1423 14.956 47.6703 14.644 47.8383 14.08H49.1943C48.9423 15.376 47.8623 16.156 46.3143 16.156ZM46.2783 11.092C45.4143 11.092 44.8863 11.56 44.7423 12.448H47.7183C47.7183 11.632 47.1543 11.092 46.2783 11.092ZM52.0473 16.156C50.7873 16.156 50.0193 15.424 50.0193 14.308C50.0193 13.216 50.8113 12.532 52.2153 12.424L53.9913 12.292V12.16C53.9913 11.356 53.5113 11.032 52.7673 11.032C51.9033 11.032 51.4233 11.392 51.4233 12.016H50.1753C50.1753 10.732 51.2313 9.892 52.8393 9.892C54.4353 9.892 55.4193 10.756 55.4193 12.4V16H54.1353L54.0273 15.124C53.7753 15.736 52.9713 16.156 52.0473 16.156ZM52.5273 15.052C53.4273 15.052 54.0033 14.512 54.0033 13.6V13.288L52.7673 13.384C51.8553 13.468 51.5073 13.768 51.5073 14.248C51.5073 14.788 51.8673 15.052 52.5273 15.052ZM60.5776 10.048V11.404H60.0376C58.9816 11.404 58.3216 11.968 58.3216 13.12V16H56.8576V10.084H58.2376L58.3216 10.948C58.5736 10.36 59.1376 9.964 59.9296 9.964C60.1336 9.964 60.3376 9.988 60.5776 10.048ZM63.8189 16H62.3549V11.296H61.2149V10.072H62.3549V8.224H63.8189V10.072H64.9709V11.296H63.8189V16ZM65.6346 13.444V12.148H69.4986V13.444H65.6346ZM70.6424 13.024C70.6424 11.188 71.8544 9.892 73.6064 9.892C75.2264 9.892 76.3304 10.792 76.4864 12.22H75.0224C74.8544 11.548 74.3624 11.2 73.6664 11.2C72.7304 11.2 72.1064 11.908 72.1064 13.024C72.1064 14.14 72.6824 14.836 73.6184 14.836C74.3504 14.836 74.8664 14.476 75.0224 13.828H76.4984C76.3184 15.208 75.1664 16.156 73.6184 16.156C71.8184 16.156 70.6424 14.908 70.6424 13.024ZM78.32 8.884C77.816 8.884 77.42 8.488 77.42 7.996C77.42 7.504 77.816 7.12 78.32 7.12C78.8 7.12 79.196 7.504 79.196 7.996C79.196 8.488 78.8 8.884 78.32 8.884ZM77.588 16V10.072H79.052V16H77.588ZM84.2846 10.048V11.404H83.7446C82.6886 11.404 82.0286 11.968 82.0286 13.12V16H80.5646V10.084H81.9446L82.0286 10.948C82.2806 10.36 82.8446 9.964 83.6366 9.964C83.8406 9.964 84.0446 9.988 84.2846 10.048ZM84.7283 13.024C84.7283 11.188 85.9403 9.892 87.6923 9.892C89.3123 9.892 90.4163 10.792 90.5723 12.22H89.1083C88.9403 11.548 88.4483 11.2 87.7523 11.2C86.8163 11.2 86.1923 11.908 86.1923 13.024C86.1923 14.14 86.7683 14.836 87.7043 14.836C88.4363 14.836 88.9523 14.476 89.1083 13.828H90.5843C90.4043 15.208 89.2523 16.156 87.7043 16.156C85.9043 16.156 84.7283 14.908 84.7283 13.024ZM93.15 16H91.698V7.072H93.15V16ZM97.3377 16.156C95.5737 16.156 94.3377 14.872 94.3377 13.036C94.3377 11.176 95.5497 9.892 97.2897 9.892C99.0657 9.892 100.194 11.08 100.194 12.928V13.372L95.7297 13.384C95.8377 14.428 96.3897 14.956 97.3617 14.956C98.1657 14.956 98.6937 14.644 98.8617 14.08H100.218C99.9657 15.376 98.8857 16.156 97.3377 16.156ZM97.3017 11.092C96.4377 11.092 95.9097 11.56 95.7657 12.448H98.7417C98.7417 11.632 98.1777 11.092 97.3017 11.092Z" fill="black"/>
</svg>
