<svg width="154" height="24" viewBox="0 0 154 24" fill="none" xmlns="http://www.w3.org/2000/svg">
<path d="M12 14.5C13.3807 14.5 14.5 13.3807 14.5 12C14.5 10.6193 13.3807 9.5 12 9.5C10.6193 9.5 9.5 10.6193 9.5 12C9.5 13.3807 10.6193 14.5 12 14.5Z" stroke="#1A1A1A" stroke-width="1.5" stroke-miterlimit="10" stroke-linecap="round" stroke-linejoin="round"/>
<path d="M18.5 9.5V14.5" stroke="#1A1A1A" stroke-width="1.5" stroke-miterlimit="10" stroke-linecap="round" stroke-linejoin="round"/>
<path d="M9 18C9 18.75 8.79001 19.46 8.42001 20.06C7.73001 21.22 6.46 22 5 22C3.54 22 2.26999 21.22 1.57999 20.06C1.20999 19.46 1 18.75 1 18C1 15.79 2.79 14 5 14C7.21 14 9 15.79 9 18Z" stroke="#1A1A1A" stroke-width="1.5" stroke-miterlimit="10" stroke-linecap="round" stroke-linejoin="round"/>
<path d="M6.4917 17.9795H3.51172" stroke="#1A1A1A" stroke-width="1.5" stroke-miterlimit="10" stroke-linecap="round" stroke-linejoin="round"/>
<path d="M5 16.5195V19.5095" stroke="#1A1A1A" stroke-width="1.5" stroke-miterlimit="10" stroke-linecap="round" stroke-linejoin="round"/>
<path d="M2 15.3V9C2 5.5 4 4 7 4H17C20 4 22 5.5 22 9V15C22 18.5 20 20 17 20H8.5" stroke="#1A1A1A" stroke-width="1.5" stroke-miterlimit="10" stroke-linecap="round" stroke-linejoin="round"/>
<path d="M36.46 16H34.972V7.228H36.46L39.292 14.212L42.124 7.228H43.636V16H42.148V13.3C42.148 11.536 42.148 11.02 42.232 10.396L40 16H38.584L36.364 10.408C36.448 10.936 36.46 11.764 36.46 12.856V16ZM45.0135 13.024C45.0135 11.176 46.3455 9.904 48.1815 9.904C50.0175 9.904 51.3495 11.176 51.3495 13.024C51.3495 14.872 50.0175 16.144 48.1815 16.144C46.3455 16.144 45.0135 14.872 45.0135 13.024ZM46.4775 13.024C46.4775 14.104 47.1735 14.836 48.1815 14.836C49.1895 14.836 49.8855 14.104 49.8855 13.024C49.8855 11.944 49.1895 11.212 48.1815 11.212C47.1735 11.212 46.4775 11.944 46.4775 13.024ZM53.9739 16H52.5099V10.072H53.8659L53.9859 10.84C54.3579 10.24 55.0779 9.892 55.8819 9.892C57.3699 9.892 58.1379 10.816 58.1379 12.352V16H56.6739V12.7C56.6739 11.704 56.1819 11.224 55.4259 11.224C54.5259 11.224 53.9739 11.848 53.9739 12.808V16ZM62.2283 16.156C60.4643 16.156 59.2283 14.872 59.2283 13.036C59.2283 11.176 60.4403 9.892 62.1803 9.892C63.9563 9.892 65.0843 11.08 65.0843 12.928V13.372L60.6203 13.384C60.7283 14.428 61.2803 14.956 62.2523 14.956C63.0563 14.956 63.5843 14.644 63.7523 14.08H65.1083C64.8563 15.376 63.7763 16.156 62.2283 16.156ZM62.1923 11.092C61.3283 11.092 60.8003 11.56 60.6563 12.448H63.6323C63.6323 11.632 63.0683 11.092 62.1923 11.092ZM65.5408 18.748V17.524H66.4168C66.9928 17.524 67.3528 17.392 67.6048 16.696L67.7728 16.252L65.3848 10.072H66.9328L68.4568 14.392L70.0648 10.072H71.5768L68.6728 17.32C68.2288 18.424 67.6048 18.88 66.6328 18.88C66.2248 18.88 65.8648 18.832 65.5408 18.748ZM71.9862 13.444V12.148H75.8502V13.444H71.9862ZM78.9067 16.156C77.6467 16.156 76.8787 15.424 76.8787 14.308C76.8787 13.216 77.6707 12.532 79.0747 12.424L80.8507 12.292V12.16C80.8507 11.356 80.3707 11.032 79.6267 11.032C78.7627 11.032 78.2827 11.392 78.2827 12.016H77.0347C77.0347 10.732 78.0907 9.892 79.6987 9.892C81.2947 9.892 82.2787 10.756 82.2787 12.4V16H80.9947L80.8867 15.124C80.6347 15.736 79.8307 16.156 78.9067 16.156ZM79.3867 15.052C80.2867 15.052 80.8627 14.512 80.8627 13.6V13.288L79.6267 13.384C78.7147 13.468 78.3667 13.768 78.3667 14.248C78.3667 14.788 78.7267 15.052 79.3867 15.052ZM86.1529 16.156C84.4369 16.156 83.3689 14.896 83.3689 13.06C83.3689 11.212 84.4489 9.892 86.2369 9.892C87.0649 9.892 87.7969 10.24 88.1689 10.828V7.072H89.6209V16H88.2769L88.1809 15.076C87.8209 15.76 87.0529 16.156 86.1529 16.156ZM86.4769 14.812C87.4969 14.812 88.1569 14.08 88.1569 13.012C88.1569 11.944 87.4969 11.2 86.4769 11.2C85.4569 11.2 84.8329 11.956 84.8329 13.012C84.8329 14.068 85.4569 14.812 86.4769 14.812ZM93.5826 16.156C91.8666 16.156 90.7986 14.896 90.7986 13.06C90.7986 11.212 91.8786 9.892 93.6666 9.892C94.4946 9.892 95.2266 10.24 95.5986 10.828V7.072H97.0506V16H95.7066L95.6106 15.076C95.2506 15.76 94.4826 16.156 93.5826 16.156ZM93.9066 14.812C94.9266 14.812 95.5866 14.08 95.5866 13.012C95.5866 11.944 94.9266 11.2 93.9066 11.2C92.8866 11.2 92.2626 11.956 92.2626 13.012C92.2626 14.068 92.8866 14.812 93.9066 14.812Z" fill="black"/>
</svg>
