<svg width="101" height="24" viewBox="0 0 101 24" fill="none" xmlns="http://www.w3.org/2000/svg">
<path d="M2 3H22" stroke="#1A1A1A" stroke-width="1.5" stroke-miterlimit="10" stroke-linecap="round" stroke-linejoin="round"/>
<path d="M2 9H11" stroke="#1A1A1A" stroke-width="1.5" stroke-miterlimit="10" stroke-linecap="round" stroke-linejoin="round"/>
<path d="M2 15H8" stroke="#1A1A1A" stroke-width="1.5" stroke-miterlimit="10" stroke-linecap="round" stroke-linejoin="round"/>
<path d="M2 21H6" stroke="#1A1A1A" stroke-width="1.5" stroke-miterlimit="10" stroke-linecap="round" stroke-linejoin="round"/>
<path d="M11.8402 21.9999C13.0441 21.9999 14.0202 21.0239 14.0202 19.8199C14.0202 18.6159 13.0441 17.6399 11.8402 17.6399C10.6362 17.6399 9.66016 18.6159 9.66016 19.8199C9.66016 21.0239 10.6362 21.9999 11.8402 21.9999Z" stroke="#1A1A1A" stroke-width="1.5" stroke-linecap="round" stroke-linejoin="round"/>
<path d="M22.0005 18.3699V9.85993C22.0005 8.04993 20.8605 7.79993 19.7105 8.10993L15.3605 9.29993C14.5705 9.51993 14.0205 10.1399 14.0205 11.0499V12.57V13.59V19.82" stroke="#1A1A1A" stroke-width="1.5" stroke-linecap="round" stroke-linejoin="round"/>
<path d="M19.8206 20.5499C21.0246 20.5499 22.0006 19.5739 22.0006 18.3699C22.0006 17.166 21.0246 16.1899 19.8206 16.1899C18.6166 16.1899 17.6406 17.166 17.6406 18.3699C17.6406 19.5739 18.6166 20.5499 19.8206 20.5499Z" stroke="#1A1A1A" stroke-width="1.5" stroke-linecap="round" stroke-linejoin="round"/>
<path d="M14.0205 13.5999L22.0005 11.4199" stroke="#1A1A1A" stroke-width="1.5" stroke-linecap="round" stroke-linejoin="round"/>
<path d="M36.46 16H34.972V7.228H36.46L39.292 14.212L42.124 7.228H43.636V16H42.148V13.3C42.148 11.536 42.148 11.02 42.232 10.396L40 16H38.584L36.364 10.408C36.448 10.936 36.46 11.764 36.46 12.856V16ZM49.3815 10.072H50.8455V16H49.4895L49.3815 15.208C49.0215 15.772 48.2535 16.156 47.4615 16.156C46.0935 16.156 45.2895 15.232 45.2895 13.78V10.072H46.7535V13.264C46.7535 14.392 47.1975 14.848 48.0135 14.848C48.9375 14.848 49.3815 14.308 49.3815 13.18V10.072ZM51.7844 14.2H53.1764C53.1884 14.716 53.5724 15.04 54.2444 15.04C54.9284 15.04 55.3004 14.764 55.3004 14.332C55.3004 14.032 55.1444 13.816 54.6164 13.696L53.5484 13.444C52.4804 13.204 51.9644 12.7 51.9644 11.752C51.9644 10.588 52.9484 9.892 54.3164 9.892C55.6484 9.892 56.5484 10.66 56.5604 11.812H55.1684C55.1564 11.308 54.8204 10.984 54.2564 10.984C53.6804 10.984 53.3444 11.248 53.3444 11.692C53.3444 12.028 53.6084 12.244 54.1124 12.364L55.1804 12.616C56.1764 12.844 56.6804 13.3 56.6804 14.212C56.6804 15.412 55.6604 16.156 54.1964 16.156C52.7204 16.156 51.7844 15.364 51.7844 14.2ZM58.5271 8.884C58.0231 8.884 57.6271 8.488 57.6271 7.996C57.6271 7.504 58.0231 7.12 58.5271 7.12C59.0071 7.12 59.4031 7.504 59.4031 7.996C59.4031 8.488 59.0071 8.884 58.5271 8.884ZM57.7951 16V10.072H59.2591V16H57.7951ZM60.4236 13.024C60.4236 11.188 61.6356 9.892 63.3876 9.892C65.0076 9.892 66.1116 10.792 66.2676 12.22H64.8036C64.6356 11.548 64.1436 11.2 63.4476 11.2C62.5116 11.2 61.8876 11.908 61.8876 13.024C61.8876 14.14 62.4636 14.836 63.3996 14.836C64.1316 14.836 64.6476 14.476 64.8036 13.828H66.2796C66.0996 15.208 64.9476 16.156 63.3996 16.156C61.5996 16.156 60.4236 14.908 60.4236 13.024ZM67.287 13.444V12.148H71.151V13.444H67.287ZM76.5483 16V11.296H74.1243V16H72.6723V11.296H71.8203V10.072H72.6723V9.352C72.6723 7.744 73.5123 7.072 74.7123 7.072C74.9403 7.072 75.2163 7.084 75.4683 7.132V8.38H74.9523C74.2923 8.38 74.1243 8.764 74.1243 9.352V10.072H78.0123V16H76.5483ZM77.2803 8.86C76.7883 8.86 76.4043 8.476 76.4043 7.984C76.4043 7.504 76.7883 7.12 77.2803 7.12C77.7603 7.12 78.1443 7.504 78.1443 7.984C78.1443 8.476 77.7603 8.86 77.2803 8.86ZM80.9976 16H79.5456V7.072H80.9976V16ZM84.5493 16H83.0853V11.296H81.9453V10.072H83.0853V8.224H84.5493V10.072H85.7013V11.296H84.5493V16ZM89.2049 16.156C87.4409 16.156 86.2049 14.872 86.2049 13.036C86.2049 11.176 87.4169 9.892 89.1569 9.892C90.9329 9.892 92.0609 11.08 92.0609 12.928V13.372L87.5969 13.384C87.7049 14.428 88.2569 14.956 89.2289 14.956C90.0329 14.956 90.5609 14.644 90.7289 14.08H92.0849C91.8329 15.376 90.7529 16.156 89.2049 16.156ZM89.1689 11.092C88.3049 11.092 87.7769 11.56 87.6329 12.448H90.6089C90.6089 11.632 90.0449 11.092 89.1689 11.092ZM96.9526 10.048V11.404H96.4126C95.3566 11.404 94.6966 11.968 94.6966 13.12V16H93.2326V10.084H94.6126L94.6966 10.948C94.9486 10.36 95.5126 9.964 96.3046 9.964C96.5086 9.964 96.7126 9.988 96.9526 10.048Z" fill="black"/>
</svg>
