<svg width="108" height="24" viewBox="0 0 108 24" fill="none" xmlns="http://www.w3.org/2000/svg">
<path d="M14.4297 14.55H9.42969" stroke="#1A1A1A" stroke-width="1.5" stroke-miterlimit="10" stroke-linecap="round" stroke-linejoin="round"/>
<path d="M22 11V17C22 21 21 22 17 22H7C3 22 2 21 2 17V7C2 3 3 2 7 2H8.5C10 2 10.33 2.44 10.9 3.2L12.4 5.2C12.78 5.7 13 6 14 6H17C21 6 22 7 22 11Z" stroke="#1A1A1A" stroke-width="1.5" stroke-miterlimit="10"/>
<path d="M39.772 13.412H36.508V17H34.972V8.228H40.396V9.644H36.508V12.032H39.772V13.412ZM40.7596 14.024C40.7596 12.176 42.0916 10.904 43.9276 10.904C45.7636 10.904 47.0956 12.176 47.0956 14.024C47.0956 15.872 45.7636 17.144 43.9276 17.144C42.0916 17.144 40.7596 15.872 40.7596 14.024ZM42.2236 14.024C42.2236 15.104 42.9196 15.836 43.9276 15.836C44.9356 15.836 45.6316 15.104 45.6316 14.024C45.6316 12.944 44.9356 12.212 43.9276 12.212C42.9196 12.212 42.2236 12.944 42.2236 14.024ZM49.732 17H48.28V8.072H49.732V17ZM53.7037 17.156C51.9877 17.156 50.9197 15.896 50.9197 14.06C50.9197 12.212 51.9997 10.892 53.7877 10.892C54.6157 10.892 55.3477 11.24 55.7197 11.828V8.072H57.1717V17H55.8277L55.7317 16.076C55.3717 16.76 54.6037 17.156 53.7037 17.156ZM54.0277 15.812C55.0477 15.812 55.7077 15.08 55.7077 14.012C55.7077 12.944 55.0477 12.2 54.0277 12.2C53.0077 12.2 52.3837 12.956 52.3837 14.012C52.3837 15.068 53.0077 15.812 54.0277 15.812ZM61.3494 17.156C59.5854 17.156 58.3494 15.872 58.3494 14.036C58.3494 12.176 59.5614 10.892 61.3014 10.892C63.0774 10.892 64.2054 12.08 64.2054 13.928V14.372L59.7414 14.384C59.8494 15.428 60.4014 15.956 61.3734 15.956C62.1774 15.956 62.7054 15.644 62.8734 15.08H64.2294C63.9774 16.376 62.8974 17.156 61.3494 17.156ZM61.3134 12.092C60.4494 12.092 59.9214 12.56 59.7774 13.448H62.7534C62.7534 12.632 62.1894 12.092 61.3134 12.092ZM69.0971 11.048V12.404H68.5571C67.5011 12.404 66.8411 12.968 66.8411 14.12V17H65.3771V11.084H66.7571L66.8411 11.948C67.0931 11.36 67.6571 10.964 68.4491 10.964C68.6531 10.964 68.8571 10.988 69.0971 11.048ZM69.6424 14.444V13.148H73.5064V14.444H69.6424ZM76.4622 17H74.9982V11.072H76.3422L76.4622 11.768C76.7622 11.276 77.3622 10.892 78.2142 10.892C79.1142 10.892 79.7382 11.336 80.0502 12.02C80.3502 11.336 81.0462 10.892 81.9462 10.892C83.3862 10.892 84.1782 11.756 84.1782 13.124V17H82.7262V13.508C82.7262 12.656 82.2702 12.212 81.5742 12.212C80.8662 12.212 80.3262 12.668 80.3262 13.64V17H78.8622V13.496C78.8622 12.668 78.4182 12.224 77.7222 12.224C77.0262 12.224 76.4622 12.68 76.4622 13.64V17ZM86.3474 9.884C85.8434 9.884 85.4474 9.488 85.4474 8.996C85.4474 8.504 85.8434 8.12 86.3474 8.12C86.8274 8.12 87.2234 8.504 87.2234 8.996C87.2234 9.488 86.8274 9.884 86.3474 9.884ZM85.6154 17V11.072H87.0794V17H85.6154ZM90.0559 17H88.5919V11.072H89.9479L90.0679 11.84C90.4399 11.24 91.1599 10.892 91.9639 10.892C93.4519 10.892 94.2199 11.816 94.2199 13.352V17H92.7559V13.7C92.7559 12.704 92.2639 12.224 91.5079 12.224C90.6079 12.224 90.0559 12.848 90.0559 13.808V17ZM99.6783 11.072H101.142V17H99.7863L99.6783 16.208C99.3183 16.772 98.5503 17.156 97.7583 17.156C96.3903 17.156 95.5863 16.232 95.5863 14.78V11.072H97.0503V14.264C97.0503 15.392 97.4943 15.848 98.3103 15.848C99.2343 15.848 99.6783 15.308 99.6783 14.18V11.072ZM102.081 15.2H103.473C103.485 15.716 103.869 16.04 104.541 16.04C105.225 16.04 105.597 15.764 105.597 15.332C105.597 15.032 105.441 14.816 104.913 14.696L103.845 14.444C102.777 14.204 102.261 13.7 102.261 12.752C102.261 11.588 103.245 10.892 104.613 10.892C105.945 10.892 106.845 11.66 106.857 12.812H105.465C105.453 12.308 105.117 11.984 104.553 11.984C103.977 11.984 103.641 12.248 103.641 12.692C103.641 13.028 103.905 13.244 104.409 13.364L105.477 13.616C106.473 13.844 106.977 14.3 106.977 15.212C106.977 16.412 105.957 17.156 104.493 17.156C103.017 17.156 102.081 16.364 102.081 15.2Z" fill="black"/>
</svg>
