<svg width="101" height="24" viewBox="0 0 101 24" fill="none" xmlns="http://www.w3.org/2000/svg">
<path d="M8.3 16H10.7C12.7 16 13.5 15.2 13.5 13.2V10.8C13.5 8.8 12.7 8 10.7 8H8.3C6.3 8 5.5 8.8 5.5 10.8V13.2C5.5 15.2 6.3 16 8.3 16Z" stroke="#1A1A1A" stroke-width="1.5" stroke-linecap="round" stroke-linejoin="round"/>
<path d="M17 20H7C3 20 2 19 2 15V9C2 5 3 4 7 4H17C21 4 22 5 22 9V15C22 19 21 20 17 20Z" stroke="#1A1A1A" stroke-width="1.5" stroke-linecap="round" stroke-linejoin="round"/>
<path d="M34.204 8.644V7.228H40.876V8.644H38.308V16H36.772V8.644H34.204ZM40.4783 13.024C40.4783 11.176 41.8103 9.904 43.6463 9.904C45.4823 9.904 46.8143 11.176 46.8143 13.024C46.8143 14.872 45.4823 16.144 43.6463 16.144C41.8103 16.144 40.4783 14.872 40.4783 13.024ZM41.9423 13.024C41.9423 14.104 42.6383 14.836 43.6463 14.836C44.6543 14.836 45.3503 14.104 45.3503 13.024C45.3503 11.944 44.6543 11.212 43.6463 11.212C42.6383 11.212 41.9423 11.944 41.9423 13.024ZM47.6388 12.904C47.6388 11.176 48.7668 9.88 50.4588 9.88C51.3468 9.88 52.0428 10.252 52.3908 10.888L52.4748 10.072H53.8307V15.7C53.8307 17.68 52.6428 18.916 50.7228 18.916C49.0188 18.916 47.8548 17.944 47.6748 16.36H49.1388C49.2348 17.128 49.8228 17.584 50.7228 17.584C51.7308 17.584 52.3788 16.948 52.3788 15.964V14.98C52.0068 15.532 51.2748 15.88 50.4228 15.88C48.7428 15.88 47.6388 14.62 47.6388 12.904ZM49.1148 12.868C49.1148 13.864 49.7508 14.608 50.7108 14.608C51.7188 14.608 52.3428 13.9 52.3428 12.868C52.3428 11.86 51.7308 11.164 50.7108 11.164C49.7388 11.164 49.1148 11.896 49.1148 12.868ZM55.0098 12.904C55.0098 11.176 56.1378 9.88 57.8298 9.88C58.7178 9.88 59.4138 10.252 59.7618 10.888L59.8458 10.072H61.2018V15.7C61.2018 17.68 60.0138 18.916 58.0938 18.916C56.3898 18.916 55.2258 17.944 55.0458 16.36H56.5098C56.6058 17.128 57.1938 17.584 58.0938 17.584C59.1018 17.584 59.7498 16.948 59.7498 15.964V14.98C59.3778 15.532 58.6458 15.88 57.7938 15.88C56.1138 15.88 55.0098 14.62 55.0098 12.904ZM56.4858 12.868C56.4858 13.864 57.1218 14.608 58.0818 14.608C59.0898 14.608 59.7138 13.9 59.7138 12.868C59.7138 11.86 59.1018 11.164 58.0818 11.164C57.1098 11.164 56.4858 11.896 56.4858 12.868ZM64.1929 16H62.7409V7.072H64.1929V16ZM68.3807 16.156C66.6167 16.156 65.3807 14.872 65.3807 13.036C65.3807 11.176 66.5927 9.892 68.3327 9.892C70.1087 9.892 71.2367 11.08 71.2367 12.928V13.372L66.7727 13.384C66.8807 14.428 67.4327 14.956 68.4047 14.956C69.2087 14.956 69.7367 14.644 69.9047 14.08H71.2607C71.0087 15.376 69.9287 16.156 68.3807 16.156ZM68.3447 11.092C67.4807 11.092 66.9527 11.56 66.8087 12.448H69.7847C69.7847 11.632 69.2207 11.092 68.3447 11.092ZM72.3963 13.444V12.148H76.2603V13.444H72.3963ZM77.4041 13.024C77.4041 11.176 78.7361 9.904 80.5721 9.904C82.4081 9.904 83.7401 11.176 83.7401 13.024C83.7401 14.872 82.4081 16.144 80.5721 16.144C78.7361 16.144 77.4041 14.872 77.4041 13.024ZM78.8681 13.024C78.8681 14.104 79.5641 14.836 80.5721 14.836C81.5801 14.836 82.2761 14.104 82.2761 13.024C82.2761 11.944 81.5801 11.212 80.5721 11.212C79.5641 11.212 78.8681 11.944 78.8681 13.024ZM84.2891 10.072H85.1411V9.352C85.1411 7.744 85.9811 7.072 87.2651 7.072C87.4931 7.072 87.7691 7.084 88.0211 7.132V8.38H87.5051C86.7611 8.38 86.5931 8.764 86.5931 9.352V10.072H89.0171V9.352C89.0171 7.744 89.8571 7.072 91.1411 7.072C91.3811 7.072 91.6451 7.084 91.8971 7.132V8.38H91.3931C90.6491 8.38 90.4691 8.764 90.4691 9.352V10.072H91.8851V11.296H90.4691V16H89.0171V11.296H86.5931V16H85.1411V11.296H84.2891V10.072Z" fill="black"/>
</svg>
