<svg width="126" height="24" viewBox="0 0 126 24" fill="none" xmlns="http://www.w3.org/2000/svg">
<path d="M3 4.5H21" stroke="#1A1A1A" stroke-width="1.5" stroke-linecap="round" stroke-linejoin="round"/>
<path d="M7.25977 9.5H16.7398" stroke="#1A1A1A" stroke-width="1.5" stroke-linecap="round" stroke-linejoin="round"/>
<path d="M3 14.5H21" stroke="#1A1A1A" stroke-width="1.5" stroke-linecap="round" stroke-linejoin="round"/>
<path d="M7.25977 19.5H16.7398" stroke="#1A1A1A" stroke-width="1.5" stroke-linecap="round" stroke-linejoin="round"/>
<path d="M34.204 9.644V8.228H40.876V9.644H38.308V17H36.772V9.644H34.204ZM43.4783 17.156C41.7143 17.156 40.4783 15.872 40.4783 14.036C40.4783 12.176 41.6903 10.892 43.4303 10.892C45.2063 10.892 46.3343 12.08 46.3343 13.928V14.372L41.8703 14.384C41.9783 15.428 42.5303 15.956 43.5023 15.956C44.3063 15.956 44.8343 15.644 45.0023 15.08H46.3583C46.1063 16.376 45.0263 17.156 43.4783 17.156ZM43.4423 12.092C42.5783 12.092 42.0503 12.56 41.9063 13.448H44.8823C44.8823 12.632 44.3183 12.092 43.4423 12.092ZM48.2685 17H46.6005L48.6405 14.096L46.6005 11.072H48.3045L49.6125 13.088L50.8725 11.072H52.5165L50.5005 14.072L52.4565 17H50.7765L49.5165 15.044L48.2685 17ZM55.6392 17H54.1752V12.296H53.0352V11.072H54.1752V9.224H55.6392V11.072H56.7912V12.296H55.6392V17ZM59.4302 17.156C58.1702 17.156 57.4022 16.424 57.4022 15.308C57.4022 14.216 58.1942 13.532 59.5982 13.424L61.3742 13.292V13.16C61.3742 12.356 60.8942 12.032 60.1502 12.032C59.2862 12.032 58.8062 12.392 58.8062 13.016H57.5582C57.5582 11.732 58.6142 10.892 60.2222 10.892C61.8182 10.892 62.8022 11.756 62.8022 13.4V17H61.5182L61.4102 16.124C61.1582 16.736 60.3542 17.156 59.4302 17.156ZM59.9102 16.052C60.8102 16.052 61.3862 15.512 61.3862 14.6V14.288L60.1502 14.384C59.2382 14.468 58.8902 14.768 58.8902 15.248C58.8902 15.788 59.2502 16.052 59.9102 16.052ZM65.7164 17H64.2644V8.072H65.7164V17ZM67.9841 9.884C67.4801 9.884 67.0841 9.488 67.0841 8.996C67.0841 8.504 67.4801 8.12 67.9841 8.12C68.4641 8.12 68.8601 8.504 68.8601 8.996C68.8601 9.488 68.4641 9.884 67.9841 9.884ZM67.2521 17V11.072H68.7161V17H67.2521ZM69.8927 13.904C69.8927 12.176 71.0207 10.88 72.7127 10.88C73.6007 10.88 74.2967 11.252 74.6447 11.888L74.7287 11.072H76.0847V16.7C76.0847 18.68 74.8967 19.916 72.9767 19.916C71.2727 19.916 70.1087 18.944 69.9287 17.36H71.3927C71.4887 18.128 72.0767 18.584 72.9767 18.584C73.9847 18.584 74.6327 17.948 74.6327 16.964V15.98C74.2607 16.532 73.5287 16.88 72.6767 16.88C70.9967 16.88 69.8927 15.62 69.8927 13.904ZM71.3687 13.868C71.3687 14.864 72.0047 15.608 72.9647 15.608C73.9727 15.608 74.5967 14.9 74.5967 13.868C74.5967 12.86 73.9847 12.164 72.9647 12.164C71.9927 12.164 71.3687 12.896 71.3687 13.868ZM79.0638 17H77.5998V11.072H78.9558L79.0758 11.84C79.4478 11.24 80.1678 10.892 80.9718 10.892C82.4598 10.892 83.2278 11.816 83.2278 13.352V17H81.7638V13.7C81.7638 12.704 81.2718 12.224 80.5158 12.224C79.6158 12.224 79.0638 12.848 79.0638 13.808V17ZM84.6542 14.444V13.148H88.5182V14.444H84.6542ZM89.6619 14.024C89.6619 12.188 90.8739 10.892 92.6259 10.892C94.2459 10.892 95.3499 11.792 95.5059 13.22H94.0419C93.8739 12.548 93.3819 12.2 92.6859 12.2C91.7499 12.2 91.1259 12.908 91.1259 14.024C91.1259 15.14 91.7019 15.836 92.6379 15.836C93.3699 15.836 93.8859 15.476 94.0419 14.828H95.5179C95.3379 16.208 94.1859 17.156 92.6379 17.156C90.8379 17.156 89.6619 15.908 89.6619 14.024ZM99.2596 17.156C97.4956 17.156 96.2596 15.872 96.2596 14.036C96.2596 12.176 97.4716 10.892 99.2116 10.892C100.988 10.892 102.116 12.08 102.116 13.928V14.372L97.6516 14.384C97.7596 15.428 98.3116 15.956 99.2836 15.956C100.088 15.956 100.616 15.644 100.784 15.08H102.14C101.888 16.376 100.808 17.156 99.2596 17.156ZM99.2236 12.092C98.3596 12.092 97.8316 12.56 97.6876 13.448H100.664C100.664 12.632 100.1 12.092 99.2236 12.092ZM104.751 17H103.287V11.072H104.643L104.763 11.84C105.135 11.24 105.855 10.892 106.659 10.892C108.147 10.892 108.915 11.816 108.915 13.352V17H107.451V13.7C107.451 12.704 106.959 12.224 106.203 12.224C105.303 12.224 104.751 12.848 104.751 13.808V17ZM112.37 17H110.906V12.296H109.766V11.072H110.906V9.224H112.37V11.072H113.522V12.296H112.37V17ZM117.025 17.156C115.261 17.156 114.025 15.872 114.025 14.036C114.025 12.176 115.237 10.892 116.977 10.892C118.753 10.892 119.881 12.08 119.881 13.928V14.372L115.417 14.384C115.525 15.428 116.077 15.956 117.049 15.956C117.853 15.956 118.381 15.644 118.549 15.08H119.905C119.653 16.376 118.573 17.156 117.025 17.156ZM116.989 12.092C116.125 12.092 115.597 12.56 115.453 13.448H118.429C118.429 12.632 117.865 12.092 116.989 12.092ZM124.773 11.048V12.404H124.233C123.177 12.404 122.517 12.968 122.517 14.12V17H121.053V11.084H122.433L122.517 11.948C122.769 11.36 123.333 10.964 124.125 10.964C124.329 10.964 124.533 10.988 124.773 11.048Z" fill="black"/>
</svg>
