<svg width="153" height="24" viewBox="0 0 153 24" fill="none" xmlns="http://www.w3.org/2000/svg">
<path d="M19 16V6.5C19 5.4 18.1 4.5 17 4.5H11.5" stroke="#1A1A1A" stroke-width="1.5" stroke-linecap="round" stroke-linejoin="round"/>
<path d="M14 2L11 4.5L14 7" stroke="#1A1A1A" stroke-width="1.5" stroke-linecap="round" stroke-linejoin="round"/>
<path d="M19 22C20.6569 22 22 20.6569 22 19C22 17.3431 20.6569 16 19 16C17.3431 16 16 17.3431 16 19C16 20.6569 17.3431 22 19 22Z" stroke="#1A1A1A" stroke-width="1.5" stroke-linecap="round" stroke-linejoin="round"/>
<path d="M5 8V17.5C5 18.6 5.9 19.5 7 19.5H12.5" stroke="#1A1A1A" stroke-width="1.5" stroke-linecap="round" stroke-linejoin="round"/>
<path d="M10 22L13 19.5L10 17" stroke="#1A1A1A" stroke-width="1.5" stroke-linecap="round" stroke-linejoin="round"/>
<path d="M5 8C6.65685 8 8 6.65685 8 5C8 3.34315 6.65685 2 5 2C3.34315 2 2 3.34315 2 5C2 6.65685 3.34315 8 5 8Z" stroke="#1A1A1A" stroke-width="1.5" stroke-linecap="round" stroke-linejoin="round"/>
<path d="M38.44 13.976H36.508V17H34.972V8.228H38.44C40.204 8.228 41.344 9.38 41.344 11.096C41.344 12.788 40.192 13.976 38.44 13.976ZM38.14 9.596H36.508V12.608H38.116C39.172 12.608 39.736 12.044 39.736 11.084C39.736 10.124 39.16 9.596 38.14 9.596ZM46.1401 11.048V12.404H45.6001C44.5441 12.404 43.8841 12.968 43.8841 14.12V17H42.4201V11.084H43.8001L43.8841 11.948C44.1361 11.36 44.7001 10.964 45.4921 10.964C45.6961 10.964 45.9001 10.988 46.1401 11.048ZM46.5838 14.024C46.5838 12.176 47.9158 10.904 49.7518 10.904C51.5878 10.904 52.9198 12.176 52.9198 14.024C52.9198 15.872 51.5878 17.144 49.7518 17.144C47.9158 17.144 46.5838 15.872 46.5838 14.024ZM48.0478 14.024C48.0478 15.104 48.7438 15.836 49.7518 15.836C50.7598 15.836 51.4558 15.104 51.4558 14.024C51.4558 12.944 50.7598 12.212 49.7518 12.212C48.7438 12.212 48.0478 12.944 48.0478 14.024ZM53.7442 13.904C53.7442 12.176 54.8722 10.88 56.5642 10.88C57.4522 10.88 58.1482 11.252 58.4962 11.888L58.5802 11.072H59.9362V16.7C59.9362 18.68 58.7482 19.916 56.8282 19.916C55.1242 19.916 53.9602 18.944 53.7802 17.36H55.2442C55.3402 18.128 55.9282 18.584 56.8282 18.584C57.8362 18.584 58.4842 17.948 58.4842 16.964V15.98C58.1122 16.532 57.3802 16.88 56.5282 16.88C54.8482 16.88 53.7442 15.62 53.7442 13.904ZM55.2202 13.868C55.2202 14.864 55.8562 15.608 56.8162 15.608C57.8242 15.608 58.4482 14.9 58.4482 13.868C58.4482 12.86 57.8362 12.164 56.8162 12.164C55.8442 12.164 55.2202 12.896 55.2202 13.868ZM65.1713 11.048V12.404H64.6313C63.5753 12.404 62.9153 12.968 62.9153 14.12V17H61.4513V11.084H62.8313L62.9153 11.948C63.1673 11.36 63.7313 10.964 64.5233 10.964C64.7273 10.964 64.9313 10.988 65.1713 11.048ZM67.6919 17.156C66.4319 17.156 65.6639 16.424 65.6639 15.308C65.6639 14.216 66.4559 13.532 67.8599 13.424L69.6359 13.292V13.16C69.6359 12.356 69.1559 12.032 68.4119 12.032C67.5479 12.032 67.0679 12.392 67.0679 13.016H65.8199C65.8199 11.732 66.8759 10.892 68.4839 10.892C70.0799 10.892 71.0639 11.756 71.0639 13.4V17H69.7799L69.6719 16.124C69.4199 16.736 68.6159 17.156 67.6919 17.156ZM68.1719 16.052C69.0719 16.052 69.6479 15.512 69.6479 14.6V14.288L68.4119 14.384C67.4999 14.468 67.1519 14.768 67.1519 15.248C67.1519 15.788 67.5119 16.052 68.1719 16.052ZM73.9661 17H72.5021V11.072H73.8461L73.9661 11.768C74.2661 11.276 74.8661 10.892 75.7181 10.892C76.6181 10.892 77.2421 11.336 77.5541 12.02C77.8541 11.336 78.5501 10.892 79.4501 10.892C80.8901 10.892 81.6821 11.756 81.6821 13.124V17H80.2301V13.508C80.2301 12.656 79.7741 12.212 79.0781 12.212C78.3701 12.212 77.8301 12.668 77.8301 13.64V17H76.3661V13.496C76.3661 12.668 75.9221 12.224 75.2261 12.224C74.5301 12.224 73.9661 12.68 73.9661 13.64V17ZM84.5833 17H83.1193V11.072H84.4633L84.5833 11.768C84.8833 11.276 85.4833 10.892 86.3353 10.892C87.2353 10.892 87.8593 11.336 88.1713 12.02C88.4713 11.336 89.1673 10.892 90.0673 10.892C91.5073 10.892 92.2993 11.756 92.2993 13.124V17H90.8473V13.508C90.8473 12.656 90.3913 12.212 89.6953 12.212C88.9873 12.212 88.4473 12.668 88.4473 13.64V17H86.9833V13.496C86.9833 12.668 86.5393 12.224 85.8433 12.224C85.1473 12.224 84.5833 12.68 84.5833 13.64V17ZM94.4685 9.884C93.9645 9.884 93.5685 9.488 93.5685 8.996C93.5685 8.504 93.9645 8.12 94.4685 8.12C94.9485 8.12 95.3445 8.504 95.3445 8.996C95.3445 9.488 94.9485 9.884 94.4685 9.884ZM93.7365 17V11.072H95.2005V17H93.7365ZM98.177 17H96.713V11.072H98.069L98.189 11.84C98.561 11.24 99.281 10.892 100.085 10.892C101.573 10.892 102.341 11.816 102.341 13.352V17H100.877V13.7C100.877 12.704 100.385 12.224 99.629 12.224C98.729 12.224 98.177 12.848 98.177 13.808V17ZM103.443 13.904C103.443 12.176 104.571 10.88 106.263 10.88C107.151 10.88 107.847 11.252 108.195 11.888L108.279 11.072H109.635V16.7C109.635 18.68 108.447 19.916 106.527 19.916C104.823 19.916 103.659 18.944 103.479 17.36H104.943C105.039 18.128 105.627 18.584 106.527 18.584C107.535 18.584 108.183 17.948 108.183 16.964V15.98C107.811 16.532 107.079 16.88 106.227 16.88C104.547 16.88 103.443 15.62 103.443 13.904ZM104.919 13.868C104.919 14.864 105.555 15.608 106.515 15.608C107.523 15.608 108.147 14.9 108.147 13.868C108.147 12.86 107.535 12.164 106.515 12.164C105.543 12.164 104.919 12.896 104.919 13.868ZM111.139 14.444V13.148H115.003V14.444H111.139ZM118.059 17.156C116.799 17.156 116.031 16.424 116.031 15.308C116.031 14.216 116.823 13.532 118.227 13.424L120.003 13.292V13.16C120.003 12.356 119.523 12.032 118.779 12.032C117.915 12.032 117.435 12.392 117.435 13.016H116.187C116.187 11.732 117.243 10.892 118.851 10.892C120.447 10.892 121.431 11.756 121.431 13.4V17H120.147L120.039 16.124C119.787 16.736 118.983 17.156 118.059 17.156ZM118.539 16.052C119.439 16.052 120.015 15.512 120.015 14.6V14.288L118.779 14.384C117.867 14.468 117.519 14.768 117.519 15.248C117.519 15.788 117.879 16.052 118.539 16.052ZM126.589 11.048V12.404H126.049C124.993 12.404 124.333 12.968 124.333 14.12V17H122.869V11.084H124.249L124.333 11.948C124.585 11.36 125.149 10.964 125.941 10.964C126.145 10.964 126.349 10.988 126.589 11.048ZM131.3 11.048V12.404H130.76C129.704 12.404 129.044 12.968 129.044 14.12V17H127.58V11.084H128.96L129.044 11.948C129.296 11.36 129.86 10.964 130.652 10.964C130.856 10.964 131.06 10.988 131.3 11.048ZM131.744 14.024C131.744 12.176 133.076 10.904 134.912 10.904C136.748 10.904 138.08 12.176 138.08 14.024C138.08 15.872 136.748 17.144 134.912 17.144C133.076 17.144 131.744 15.872 131.744 14.024ZM133.208 14.024C133.208 15.104 133.904 15.836 134.912 15.836C135.92 15.836 136.616 15.104 136.616 14.024C136.616 12.944 135.92 12.212 134.912 12.212C133.904 12.212 133.208 12.944 133.208 14.024ZM140.255 17L138.335 11.072H139.859L140.639 13.616C140.771 14.084 140.891 14.6 140.999 15.152C141.107 14.576 141.215 14.204 141.407 13.616L142.223 11.072H143.711L144.503 13.616C144.575 13.856 144.815 14.744 144.887 15.14C144.983 14.696 145.175 13.988 145.283 13.616L146.075 11.072H147.623L145.571 17H144.203L143.387 14.432C143.147 13.652 143.015 13.088 142.967 12.788C142.907 13.064 142.799 13.484 142.499 14.456L141.683 17H140.255ZM147.925 15.2H149.317C149.329 15.716 149.713 16.04 150.385 16.04C151.069 16.04 151.441 15.764 151.441 15.332C151.441 15.032 151.285 14.816 150.757 14.696L149.689 14.444C148.621 14.204 148.105 13.7 148.105 12.752C148.105 11.588 149.089 10.892 150.457 10.892C151.789 10.892 152.689 11.66 152.701 12.812H151.309C151.297 12.308 150.961 11.984 150.397 11.984C149.821 11.984 149.485 12.248 149.485 12.692C149.485 13.028 149.749 13.244 150.253 13.364L151.321 13.616C152.317 13.844 152.821 14.3 152.821 15.212C152.821 16.412 151.801 17.156 150.337 17.156C148.861 17.156 147.925 16.364 147.925 15.2Z" fill="black"/>
</svg>
