<svg width="130" height="24" viewBox="0 0 130 24" fill="none" xmlns="http://www.w3.org/2000/svg">
<path d="M7.5 15V9H11.5C12.6 9 13.5 9.9 13.5 11V15" stroke="#1A1A1A" stroke-width="1.5" stroke-miterlimit="10" stroke-linecap="round" stroke-linejoin="round"/>
<path d="M10.5 15V12" stroke="#1A1A1A" stroke-width="1.5" stroke-miterlimit="10" stroke-linecap="round" stroke-linejoin="round"/>
<path d="M16.5 15V9" stroke="#1A1A1A" stroke-width="1.5" stroke-miterlimit="10" stroke-linecap="round" stroke-linejoin="round"/>
<path d="M12 22C17.5228 22 22 17.5228 22 12C22 6.47715 17.5228 2 12 2C6.47715 2 2 6.47715 2 12C2 17.5228 6.47715 22 12 22Z" stroke="#1A1A1A" stroke-width="1.5" stroke-miterlimit="10"/>
<path d="M37.18 11.62L34.264 7.228H36.088L37.156 8.8C37.516 9.34 37.816 9.844 38.14 10.444L40.18 7.228H41.968L39.1 11.608L41.98 16H40.168L39.184 14.548C38.8 13.96 38.488 13.432 38.14 12.796L36.004 16H34.204L37.18 11.62ZM43.656 8.884C43.152 8.884 42.756 8.488 42.756 7.996C42.756 7.504 43.152 7.12 43.656 7.12C44.136 7.12 44.532 7.504 44.532 7.996C44.532 8.488 44.136 8.884 43.656 8.884ZM42.924 16V10.072H44.388V16H42.924ZM47.6645 16.156C46.4045 16.156 45.6365 15.424 45.6365 14.308C45.6365 13.216 46.4285 12.532 47.8325 12.424L49.6085 12.292V12.16C49.6085 11.356 49.1285 11.032 48.3845 11.032C47.5205 11.032 47.0405 11.392 47.0405 12.016H45.7925C45.7925 10.732 46.8485 9.892 48.4565 9.892C50.0525 9.892 51.0365 10.756 51.0365 12.4V16H49.7525L49.6445 15.124C49.3925 15.736 48.5885 16.156 47.6645 16.156ZM48.1445 15.052C49.0445 15.052 49.6205 14.512 49.6205 13.6V13.288L48.3845 13.384C47.4725 13.468 47.1245 13.768 47.1245 14.248C47.1245 14.788 47.4845 15.052 48.1445 15.052ZM52.1268 13.024C52.1268 11.176 53.4588 9.904 55.2948 9.904C57.1308 9.904 58.4628 11.176 58.4628 13.024C58.4628 14.872 57.1308 16.144 55.2948 16.144C53.4588 16.144 52.1268 14.872 52.1268 13.024ZM53.5908 13.024C53.5908 14.104 54.2868 14.836 55.2948 14.836C56.3028 14.836 56.9988 14.104 56.9988 13.024C56.9988 11.944 56.3028 11.212 55.2948 11.212C54.2868 11.212 53.5908 11.944 53.5908 13.024ZM61.0872 16H59.6232V10.072H60.9672L61.0872 10.768C61.3872 10.276 61.9872 9.892 62.8392 9.892C63.7392 9.892 64.3632 10.336 64.6752 11.02C64.9752 10.336 65.6712 9.892 66.5712 9.892C68.0112 9.892 68.8032 10.756 68.8032 12.124V16H67.3512V12.508C67.3512 11.656 66.8952 11.212 66.1992 11.212C65.4912 11.212 64.9512 11.668 64.9512 12.64V16H63.4872V12.496C63.4872 11.668 63.0432 11.224 62.3472 11.224C61.6512 11.224 61.0872 11.68 61.0872 12.64V16ZM70.9724 8.884C70.4684 8.884 70.0724 8.488 70.0724 7.996C70.0724 7.504 70.4684 7.12 70.9724 7.12C71.4524 7.12 71.8484 7.504 71.8484 7.996C71.8484 8.488 71.4524 8.884 70.9724 8.884ZM70.2404 16V10.072H71.7044V16H70.2404Z" fill="black"/>
</svg>
