<svg width="101" height="24" viewBox="0 0 101 24" fill="none" xmlns="http://www.w3.org/2000/svg">
<path d="M6.70117 9.25977L12.0012 12.3298L17.2612 9.27976" stroke="#1A1A1A" stroke-width="1.5" stroke-linecap="round" stroke-linejoin="round"/>
<path d="M12.002 17.7698V12.3198" stroke="#1A1A1A" stroke-width="1.5" stroke-linecap="round" stroke-linejoin="round"/>
<path d="M10.7603 6.28986L7.56024 8.06986C6.84024 8.46986 6.24023 9.47985 6.24023 10.3099V13.6999C6.24023 14.5299 6.83024 15.5399 7.56024 15.9399L10.7603 17.7199C11.4403 18.0999 12.5602 18.0999 13.2502 17.7199L16.4503 15.9399C17.1703 15.5399 17.7702 14.5299 17.7702 13.6999V10.2999C17.7702 9.46986 17.1803 8.45985 16.4503 8.05985L13.2502 6.27985C12.5602 5.89985 11.4403 5.89986 10.7603 6.28986Z" stroke="#1A1A1A" stroke-width="1.5" stroke-linecap="round" stroke-linejoin="round"/>
<path d="M22 15C22 18.87 18.87 22 15 22L16.05 20.25" stroke="#1A1A1A" stroke-width="1.5" stroke-linecap="round" stroke-linejoin="round"/>
<path d="M2 9C2 5.13 5.13 2 9 2L7.95001 3.75" stroke="#1A1A1A" stroke-width="1.5" stroke-linecap="round" stroke-linejoin="round"/>
<path d="M37.108 11.656H36.04V10.66L38.296 8.584H34.648V7.228H40.216V8.452L38.08 10.42C39.424 10.684 40.468 11.668 40.468 13.216C40.468 15.016 39.064 16.156 37.288 16.156C35.572 16.156 34.24 15.1 34.24 13.204H35.752C35.752 14.212 36.376 14.788 37.312 14.788C38.272 14.788 38.908 14.164 38.908 13.192C38.908 12.304 38.332 11.656 37.108 11.656ZM44.96 16H41.804V7.228H44.876C47.468 7.228 49.256 9.016 49.256 11.632C49.256 14.212 47.504 16 44.96 16ZM44.732 8.644H43.34V14.584H44.816C46.568 14.584 47.636 13.456 47.636 11.632C47.636 9.772 46.544 8.644 44.732 8.644ZM50.4588 13.444V12.148H54.3228V13.444H50.4588ZM59.5346 10.048V11.404H58.9946C57.9386 11.404 57.2786 11.968 57.2786 13.12V16H55.8146V10.084H57.1946L57.2786 10.948C57.5306 10.36 58.0946 9.964 58.8866 9.964C59.0906 9.964 59.2946 9.988 59.5346 10.048ZM59.9783 13.024C59.9783 11.176 61.3103 9.904 63.1463 9.904C64.9823 9.904 66.3143 11.176 66.3143 13.024C66.3143 14.872 64.9823 16.144 63.1463 16.144C61.3103 16.144 59.9783 14.872 59.9783 13.024ZM61.4423 13.024C61.4423 14.104 62.1383 14.836 63.1463 14.836C64.1543 14.836 64.8503 14.104 64.8503 13.024C64.8503 11.944 64.1543 11.212 63.1463 11.212C62.1383 11.212 61.4423 11.944 61.4423 13.024ZM69.4322 16H67.9682V11.296H66.8282V10.072H67.9682V8.224H69.4322V10.072H70.5842V11.296H69.4322V16ZM73.2231 16.156C71.9631 16.156 71.1951 15.424 71.1951 14.308C71.1951 13.216 71.9871 12.532 73.3911 12.424L75.1671 12.292V12.16C75.1671 11.356 74.6871 11.032 73.9431 11.032C73.0791 11.032 72.5991 11.392 72.5991 12.016H71.3511C71.3511 10.732 72.4071 9.892 74.0151 9.892C75.6111 9.892 76.5951 10.756 76.5951 12.4V16H75.3111L75.2031 15.124C74.9511 15.736 74.1471 16.156 73.2231 16.156ZM73.7031 15.052C74.6031 15.052 75.1791 14.512 75.1791 13.6V13.288L73.9431 13.384C73.0311 13.468 72.6831 13.768 72.6831 14.248C72.6831 14.788 73.0431 15.052 73.7031 15.052ZM79.9673 16H78.5033V11.296H77.3633V10.072H78.5033V8.224H79.9673V10.072H81.1193V11.296H79.9673V16ZM84.6228 16.156C82.8588 16.156 81.6228 14.872 81.6228 13.036C81.6228 11.176 82.8348 9.892 84.5748 9.892C86.3508 9.892 87.4788 11.08 87.4788 12.928V13.372L83.0148 13.384C83.1228 14.428 83.6748 14.956 84.6468 14.956C85.4508 14.956 85.9788 14.644 86.1468 14.08H87.5028C87.2508 15.376 86.1708 16.156 84.6228 16.156ZM84.5868 11.092C83.7228 11.092 83.1948 11.56 83.0508 12.448H86.0268C86.0268 11.632 85.4628 11.092 84.5868 11.092Z" fill="black"/>
</svg>
