<svg width="1768" height="28" viewBox="0 0 1768 28" fill="none" xmlns="http://www.w3.org/2000/svg">
<path d="M2.74395 0.363909V20.6079H-5.06043e-05V0.363909H2.74395ZM6.12079 13.7759C6.12079 9.49191 8.83679 6.52391 12.8408 6.52391C16.2848 6.52391 18.6928 8.48391 19.1688 11.5359H16.5368C16.0888 9.79991 14.6888 8.87591 12.9248 8.87591C10.4328 8.87591 8.72479 10.7799 8.72479 13.7479C8.72479 16.6879 10.3208 18.5919 12.8128 18.5919C14.6888 18.5919 16.0888 17.6119 16.5648 15.9879H19.1968C18.6648 18.9559 16.1168 20.9439 12.8128 20.9439C8.78079 20.9439 6.12079 18.0879 6.12079 13.7759ZM21.0778 13.7479C21.0778 9.51991 24.1018 6.55191 28.2178 6.55191C32.3058 6.55191 35.3298 9.51991 35.3298 13.7479C35.3298 17.9759 32.3058 20.9439 28.2178 20.9439C24.1018 20.9439 21.0778 17.9759 21.0778 13.7479ZM23.7378 13.7479C23.7378 16.6039 25.5578 18.5919 28.2178 18.5919C30.8498 18.5919 32.6978 16.6039 32.6978 13.7479C32.6978 10.8919 30.8498 8.90391 28.2178 8.90391C25.5578 8.90391 23.7378 10.8919 23.7378 13.7479ZM40.8754 20.6079H38.2434V6.91591H40.6234L40.9034 9.01591C41.7714 7.44791 43.5074 6.52391 45.4394 6.52391C49.0514 6.52391 50.7034 8.73591 50.7034 12.2359V20.6079H48.0714V12.8239C48.0714 10.0519 46.7834 8.93191 44.7674 8.93191C42.3034 8.93191 40.8754 10.6959 40.8754 13.3559V20.6079ZM53.0648 16.6319H55.5848C55.5848 18.0319 56.6488 18.8719 58.3848 18.8719C60.2328 18.8719 61.2968 18.1159 61.2968 16.8559C61.2968 15.9319 60.8488 15.3719 59.4208 15.0079L57.0128 14.4479C54.5768 13.8599 53.4288 12.6559 53.4288 10.6399C53.4288 8.11991 55.5568 6.52391 58.5808 6.52391C61.5768 6.52391 63.5368 8.20391 63.5928 10.8079H61.0728C61.0168 9.43591 60.0928 8.56791 58.4968 8.56791C56.8448 8.56791 55.9208 9.29591 55.9208 10.5559C55.9208 11.4799 56.5928 12.0959 57.9368 12.4319L60.3448 13.0199C62.6688 13.5799 63.8168 14.6439 63.8168 16.6879C63.8168 19.2919 61.5768 20.9439 58.3288 20.9439C55.1088 20.9439 53.0648 19.2359 53.0648 16.6319ZM72.9358 6.91591H74.9518V4.73191C74.9518 1.37191 76.7998 -9.15527e-05 79.2918 -9.15527e-05C79.7958 -9.15527e-05 80.3838 0.0279098 80.9158 0.111909V2.37991H79.7398C78.0318 2.37991 77.5838 3.24791 77.5838 4.73191V6.91591H80.8318V9.12791H77.5838V20.6079H74.9518V9.12791H72.9358V6.91591ZM81.9724 13.7479C81.9724 9.51991 84.9964 6.55191 89.1124 6.55191C93.2004 6.55191 96.2244 9.51991 96.2244 13.7479C96.2244 17.9759 93.2004 20.9439 89.1124 20.9439C84.9964 20.9439 81.9724 17.9759 81.9724 13.7479ZM84.6324 13.7479C84.6324 16.6039 86.4524 18.5919 89.1124 18.5919C91.7444 18.5919 93.5924 16.6039 93.5924 13.7479C93.5924 10.8919 91.7444 8.90391 89.1124 8.90391C86.4524 8.90391 84.6324 10.8919 84.6324 13.7479ZM106.978 6.80391V9.21191H105.802C103.31 9.21191 101.77 10.7239 101.77 13.3559V20.6079H99.1379V6.94391H101.602L101.77 9.01591C102.33 7.58791 103.702 6.63591 105.578 6.63591C106.054 6.63591 106.446 6.69191 106.978 6.80391ZM119.735 20.6079H117.103V6.91591H119.455L119.707 8.70791C120.407 7.41991 121.863 6.52391 123.795 6.52391C125.923 6.52391 127.435 7.58791 128.135 9.29591C128.779 7.58791 130.431 6.52391 132.559 6.52391C135.695 6.52391 137.599 8.48391 137.599 11.6479V20.6079H135.023V12.2919C135.023 10.1359 133.819 8.90391 131.971 8.90391C129.983 8.90391 128.667 10.3039 128.667 12.4879V20.6079H126.063V12.2639C126.063 10.1079 124.887 8.93191 123.039 8.93191C121.051 8.93191 119.735 10.3039 119.735 12.4879V20.6079ZM145.251 20.9439C142.311 20.9439 140.575 19.2919 140.575 16.7999C140.575 14.2799 142.451 12.7119 145.671 12.4599L149.983 12.1239V11.7319C149.983 9.43591 148.611 8.62391 146.763 8.62391C144.551 8.62391 143.291 9.60391 143.291 11.2559H140.995C140.995 8.39991 143.347 6.52391 146.875 6.52391C150.263 6.52391 152.559 8.31591 152.559 12.0119V20.6079H150.319L150.039 18.3959C149.339 19.9639 147.463 20.9439 145.251 20.9439ZM146.007 18.8999C148.499 18.8999 150.011 17.2759 150.011 14.6999V13.9719L146.511 14.2519C144.187 14.4759 143.235 15.3719 143.235 16.7159C143.235 18.1719 144.299 18.8999 146.007 18.8999ZM156.204 26.7399V6.91591H158.584L158.78 9.37991C159.704 7.50391 161.552 6.52391 163.736 6.52391C167.656 6.52391 170.092 9.46391 170.092 13.6639C170.092 17.8359 167.796 20.9719 163.736 20.9719C161.552 20.9719 159.732 20.0479 158.836 18.3679V26.7399H156.204ZM158.864 13.7759C158.864 16.5759 160.488 18.5919 163.176 18.5919C165.864 18.5919 167.46 16.5759 167.46 13.7759C167.46 10.9479 165.864 8.93191 163.176 8.93191C160.488 8.93191 158.864 10.9199 158.864 13.7759ZM171.873 16.6319H174.393C174.393 18.0319 175.457 18.8719 177.193 18.8719C179.041 18.8719 180.105 18.1159 180.105 16.8559C180.105 15.9319 179.657 15.3719 178.229 15.0079L175.821 14.4479C173.385 13.8599 172.237 12.6559 172.237 10.6399C172.237 8.11991 174.365 6.52391 177.389 6.52391C180.385 6.52391 182.345 8.20391 182.401 10.8079H179.881C179.825 9.43591 178.901 8.56791 177.305 8.56791C175.653 8.56791 174.729 9.29591 174.729 10.5559C174.729 11.4799 175.401 12.0959 176.745 12.4319L179.153 13.0199C181.477 13.5799 182.625 14.6439 182.625 16.6879C182.625 19.2919 180.385 20.9439 177.137 20.9439C173.917 20.9439 171.873 19.2359 171.873 16.6319ZM189.328 19.5159C189.328 21.5319 187.816 23.2119 185.828 23.4639V22.2879C186.976 22.0919 187.788 21.3359 187.788 20.4679C187.592 20.5799 187.368 20.6359 187.032 20.6359C186.108 20.6359 185.324 19.9639 185.324 18.9279C185.324 17.8079 186.08 16.9959 187.2 16.9959C188.376 16.9959 189.328 17.9759 189.328 19.5159ZM206.263 20.9439C202.287 20.9439 199.879 17.9759 199.879 13.8039C199.879 9.60391 202.315 6.52391 206.375 6.52391C208.475 6.52391 210.239 7.44791 211.163 9.12791V-9.15527e-05H213.767V20.6079H211.415L211.191 18.1159C210.295 19.9919 208.447 20.9439 206.263 20.9439ZM206.795 18.5639C209.483 18.5639 211.135 16.5759 211.135 13.7199C211.135 10.9199 209.483 8.90391 206.795 8.90391C204.107 8.90391 202.539 10.9199 202.539 13.7199C202.539 16.5479 204.107 18.5639 206.795 18.5639ZM218.852 3.66791C217.9 3.66791 217.116 2.88391 217.116 1.93191C217.116 0.95191 217.9 0.195909 218.852 0.195909C219.804 0.195909 220.588 0.95191 220.588 1.93191C220.588 2.88391 219.804 3.66791 218.852 3.66791ZM217.564 20.6079V6.91591H220.196V20.6079H217.564ZM231.857 6.80391V9.21191H230.681C228.189 9.21191 226.649 10.7239 226.649 13.3559V20.6079H224.017V6.94391H226.481L226.649 9.01591C227.209 7.58791 228.581 6.63591 230.457 6.63591C230.933 6.63591 231.325 6.69191 231.857 6.80391ZM239.741 20.9439C235.709 20.9439 232.937 18.0319 232.937 13.7759C232.937 9.49191 235.653 6.52391 239.629 6.52391C243.521 6.52391 246.069 9.21191 246.069 13.2719V14.2519L235.485 14.2799C235.681 17.1639 237.193 18.7599 239.797 18.7599C241.841 18.7599 243.185 17.9199 243.633 16.3519H246.097C245.425 19.2919 243.129 20.9439 239.741 20.9439ZM239.629 8.73591C237.333 8.73591 235.877 10.1079 235.541 12.5159H243.437C243.437 10.2479 241.953 8.73591 239.629 8.73591ZM248.113 13.7759C248.113 9.49191 250.829 6.52391 254.833 6.52391C258.277 6.52391 260.685 8.48391 261.161 11.5359H258.529C258.081 9.79991 256.681 8.87591 254.917 8.87591C252.425 8.87591 250.717 10.7799 250.717 13.7479C250.717 16.6879 252.313 18.5919 254.805 18.5919C256.681 18.5919 258.081 17.6119 258.557 15.9879H261.189C260.657 18.9559 258.109 20.9439 254.805 20.9439C250.773 20.9439 248.113 18.0879 248.113 13.7759ZM267.83 20.6079H265.198V9.12791H262.51V6.91591H265.198V2.63191H267.83V6.91591H270.518V9.12791H267.83V20.6079ZM274.168 3.66791C273.216 3.66791 272.432 2.88391 272.432 1.93191C272.432 0.95191 273.216 0.195909 274.168 0.195909C275.12 0.195909 275.904 0.95191 275.904 1.93191C275.904 2.88391 275.12 3.66791 274.168 3.66791ZM272.88 20.6079V6.91591H275.512V20.6079H272.88ZM278.437 13.7479C278.437 9.51991 281.461 6.55191 285.577 6.55191C289.665 6.55191 292.689 9.51991 292.689 13.7479C292.689 17.9759 289.665 20.9439 285.577 20.9439C281.461 20.9439 278.437 17.9759 278.437 13.7479ZM281.097 13.7479C281.097 16.6039 282.917 18.5919 285.577 18.5919C288.209 18.5919 290.057 16.6039 290.057 13.7479C290.057 10.8919 288.209 8.90391 285.577 8.90391C282.917 8.90391 281.097 10.8919 281.097 13.7479ZM298.235 20.6079H295.603V6.91591H297.983L298.263 9.01591C299.131 7.44791 300.867 6.52391 302.799 6.52391C306.411 6.52391 308.063 8.73591 308.063 12.2359V20.6079H305.431V12.8239C305.431 10.0519 304.143 8.93191 302.127 8.93191C299.663 8.93191 298.235 10.6959 298.235 13.3559V20.6079ZM310.424 16.6319H312.944C312.944 18.0319 314.008 18.8719 315.744 18.8719C317.592 18.8719 318.656 18.1159 318.656 16.8559C318.656 15.9319 318.208 15.3719 316.78 15.0079L314.372 14.4479C311.936 13.8599 310.788 12.6559 310.788 10.6399C310.788 8.11991 312.916 6.52391 315.94 6.52391C318.936 6.52391 320.896 8.20391 320.952 10.8079H318.432C318.376 9.43591 317.452 8.56791 315.856 8.56791C314.204 8.56791 313.28 9.29591 313.28 10.5559C313.28 11.4799 313.952 12.0959 315.296 12.4319L317.704 13.0199C320.028 13.5799 321.176 14.6439 321.176 16.6879C321.176 19.2919 318.936 20.9439 315.688 20.9439C312.468 20.9439 310.424 19.2359 310.424 16.6319ZM327.879 19.5159C327.879 21.5319 326.367 23.2119 324.379 23.4639V22.2879C325.527 22.0919 326.339 21.3359 326.339 20.4679C326.143 20.5799 325.919 20.6359 325.583 20.6359C324.659 20.6359 323.875 19.9639 323.875 18.9279C323.875 17.8079 324.631 16.9959 325.751 16.9959C326.927 16.9959 327.879 17.9759 327.879 19.5159ZM348.453 2.60391C344.085 2.60391 341.453 5.82391 341.453 10.6119C341.453 15.5119 344.309 18.3399 348.481 18.3399C351.925 18.3399 354.697 16.5759 354.697 12.4879V11.8999H347.921V9.46391H357.273V20.6359H354.977L354.781 17.8919C353.689 19.6559 351.225 20.9439 348.257 20.9439C342.517 20.9439 338.569 16.7999 338.569 10.5559C338.569 4.39591 342.545 0.0279098 348.509 0.0279098C352.933 0.0279098 356.377 2.57591 357.049 6.46791H354.137C353.381 3.89191 351.141 2.60391 348.453 2.60391ZM369.052 13.3839H363.928V20.6079H361.184V0.363909H369.052C373.028 0.363909 375.576 2.96791 375.576 6.85991C375.576 10.6399 373 13.3839 369.052 13.3839ZM368.576 2.82791H363.928V10.9199H368.464C371.18 10.9199 372.692 9.32391 372.692 6.83191C372.692 4.28391 371.152 2.82791 368.576 2.82791ZM377.508 5.82391C377.508 2.35191 380.308 -9.15527e-05 384.48 -9.15527e-05C388.344 -9.15527e-05 390.836 2.15591 391.06 5.65591H388.288C388.148 3.63991 386.72 2.46391 384.452 2.46391C381.904 2.46391 380.252 3.75191 380.252 5.73991C380.252 7.36391 381.176 8.34391 383.08 8.79191L386.412 9.57591C389.716 10.3319 391.396 12.1239 391.396 14.9799C391.396 18.6199 388.568 20.9439 384.256 20.9439C380.14 20.9439 377.396 18.7879 377.228 15.3159H380.028C380.084 17.2479 381.708 18.4799 384.256 18.4799C386.944 18.4799 388.652 17.2199 388.652 15.2039C388.652 13.6079 387.784 12.5999 385.852 12.1519L382.52 11.3959C379.216 10.6399 377.508 8.73591 377.508 5.82391ZM398.207 19.5159C398.207 21.5319 396.695 23.2119 394.707 23.4639V22.2879C395.855 22.0919 396.667 21.3359 396.667 20.4679C396.471 20.5799 396.247 20.6359 395.911 20.6359C394.987 20.6359 394.203 19.9639 394.203 18.9279C394.203 17.8079 394.959 16.9959 396.079 16.9959C397.255 16.9959 398.207 17.9759 398.207 19.5159ZM409.654 26.7399V6.91591H412.034L412.23 9.37991C413.154 7.50391 415.002 6.52391 417.186 6.52391C421.106 6.52391 423.542 9.46391 423.542 13.6639C423.542 17.8359 421.246 20.9719 417.186 20.9719C415.002 20.9719 413.182 20.0479 412.286 18.3679V26.7399H409.654ZM412.314 13.7759C412.314 16.5759 413.938 18.5919 416.626 18.5919C419.314 18.5919 420.91 16.5759 420.91 13.7759C420.91 10.9479 419.314 8.93191 416.626 8.93191C413.938 8.93191 412.314 10.9199 412.314 13.7759ZM427.731 3.66791C426.779 3.66791 425.995 2.88391 425.995 1.93191C425.995 0.95191 426.779 0.195909 427.731 0.195909C428.683 0.195909 429.467 0.95191 429.467 1.93191C429.467 2.88391 428.683 3.66791 427.731 3.66791ZM426.443 20.6079V6.91591H429.075V20.6079H426.443ZM435.528 20.6079H432.896V6.91591H435.276L435.556 9.01591C436.424 7.44791 438.16 6.52391 440.092 6.52391C443.704 6.52391 445.356 8.73591 445.356 12.2359V20.6079H442.724V12.8239C442.724 10.0519 441.436 8.93191 439.42 8.93191C436.956 8.93191 435.528 10.6959 435.528 13.3559V20.6079ZM447.717 16.6319H450.237C450.237 18.0319 451.301 18.8719 453.037 18.8719C454.885 18.8719 455.949 18.1159 455.949 16.8559C455.949 15.9319 455.501 15.3719 454.073 15.0079L451.665 14.4479C449.229 13.8599 448.081 12.6559 448.081 10.6399C448.081 8.11991 450.209 6.52391 453.233 6.52391C456.229 6.52391 458.189 8.20391 458.245 10.8079H455.725C455.669 9.43591 454.745 8.56791 453.149 8.56791C451.497 8.56791 450.573 9.29591 450.573 10.5559C450.573 11.4799 451.245 12.0959 452.589 12.4319L454.997 13.0199C457.321 13.5799 458.469 14.6439 458.469 16.6879C458.469 19.2919 456.229 20.9439 452.981 20.9439C449.761 20.9439 447.717 19.2359 447.717 16.6319ZM465.172 19.5159C465.172 21.5319 463.66 23.2119 461.672 23.4639V22.2879C462.82 22.0919 463.632 21.3359 463.632 20.4679C463.436 20.5799 463.212 20.6359 462.876 20.6359C461.952 20.6359 461.168 19.9639 461.168 18.9279C461.168 17.8079 461.924 16.9959 463.044 16.9959C464.22 16.9959 465.172 17.9759 465.172 19.5159ZM484.458 6.80391V9.21191H483.282C480.79 9.21191 479.25 10.7239 479.25 13.3559V20.6079H476.618V6.94391H479.082L479.25 9.01591C479.81 7.58791 481.182 6.63591 483.058 6.63591C483.534 6.63591 483.926 6.69191 484.458 6.80391ZM485.539 13.7479C485.539 9.51991 488.563 6.55191 492.679 6.55191C496.767 6.55191 499.791 9.51991 499.791 13.7479C499.791 17.9759 496.767 20.9439 492.679 20.9439C488.563 20.9439 485.539 17.9759 485.539 13.7479ZM488.199 13.7479C488.199 16.6039 490.019 18.5919 492.679 18.5919C495.311 18.5919 497.159 16.6039 497.159 13.7479C497.159 10.8919 495.311 8.90391 492.679 8.90391C490.019 8.90391 488.199 10.8919 488.199 13.7479ZM511.84 6.91591H514.444V20.6079H512.092L511.812 18.5359C511.028 19.9639 509.208 20.9439 507.192 20.9439C504 20.9439 502.208 18.7879 502.208 15.4279V6.91591H504.84V14.5599C504.84 17.4999 506.1 18.6199 508.116 18.6199C510.524 18.6199 511.84 17.0799 511.84 14.1399V6.91591ZM522.127 20.6079H519.495V9.12791H516.807V6.91591H519.495V2.63191H522.127V6.91591H524.815V9.12791H522.127V20.6079ZM532.948 20.9439C528.916 20.9439 526.144 18.0319 526.144 13.7759C526.144 9.49191 528.86 6.52391 532.836 6.52391C536.728 6.52391 539.276 9.21191 539.276 13.2719V14.2519L528.692 14.2799C528.888 17.1639 530.4 18.7599 533.004 18.7599C535.048 18.7599 536.392 17.9199 536.84 16.3519H539.304C538.632 19.2919 536.336 20.9439 532.948 20.9439ZM532.836 8.73591C530.54 8.73591 529.084 10.1079 528.748 12.5159H536.644C536.644 10.2479 535.16 8.73591 532.836 8.73591ZM541.096 16.6319H543.616C543.616 18.0319 544.68 18.8719 546.416 18.8719C548.264 18.8719 549.328 18.1159 549.328 16.8559C549.328 15.9319 548.88 15.3719 547.452 15.0079L545.044 14.4479C542.608 13.8599 541.46 12.6559 541.46 10.6399C541.46 8.11991 543.588 6.52391 546.612 6.52391C549.608 6.52391 551.568 8.20391 551.624 10.8079H549.104C549.048 9.43591 548.124 8.56791 546.528 8.56791C544.876 8.56791 543.952 9.29591 543.952 10.5559C543.952 11.4799 544.624 12.0959 545.968 12.4319L548.376 13.0199C550.7 13.5799 551.848 14.6439 551.848 16.6879C551.848 19.2919 549.608 20.9439 546.36 20.9439C543.14 20.9439 541.096 19.2359 541.096 16.6319ZM558.551 19.5159C558.551 21.5319 557.039 23.2119 555.051 23.4639V22.2879C556.199 22.0919 557.011 21.3359 557.011 20.4679C556.815 20.5799 556.591 20.6359 556.255 20.6359C555.331 20.6359 554.547 19.9639 554.547 18.9279C554.547 17.8079 555.303 16.9959 556.423 16.9959C557.599 16.9959 558.551 17.9759 558.551 19.5159ZM574.001 20.9439C571.061 20.9439 569.325 19.2919 569.325 16.7999C569.325 14.2799 571.201 12.7119 574.421 12.4599L578.733 12.1239V11.7319C578.733 9.43591 577.361 8.62391 575.513 8.62391C573.301 8.62391 572.041 9.60391 572.041 11.2559H569.745C569.745 8.39991 572.097 6.52391 575.625 6.52391C579.013 6.52391 581.309 8.31591 581.309 12.0119V20.6079H579.069L578.789 18.3959C578.089 19.9639 576.213 20.9439 574.001 20.9439ZM574.757 18.8999C577.249 18.8999 578.761 17.2759 578.761 14.6999V13.9719L575.261 14.2519C572.937 14.4759 571.985 15.3719 571.985 16.7159C571.985 18.1719 573.049 18.8999 574.757 18.8999ZM587.586 20.6079H584.954V6.91591H587.334L587.614 9.01591C588.482 7.44791 590.218 6.52391 592.15 6.52391C595.762 6.52391 597.414 8.73591 597.414 12.2359V20.6079H594.782V12.8239C594.782 10.0519 593.494 8.93191 591.478 8.93191C589.014 8.93191 587.586 10.6959 587.586 13.3559V20.6079ZM606.548 20.9439C602.572 20.9439 600.164 17.9759 600.164 13.8039C600.164 9.60391 602.6 6.52391 606.66 6.52391C608.76 6.52391 610.524 7.44791 611.448 9.12791V-9.15527e-05H614.052V20.6079H611.7L611.476 18.1159C610.58 19.9919 608.732 20.9439 606.548 20.9439ZM607.08 18.5639C609.768 18.5639 611.42 16.5759 611.42 13.7199C611.42 10.9199 609.768 8.90391 607.08 8.90391C604.392 8.90391 602.824 10.9199 602.824 13.7199C602.824 16.5479 604.392 18.5639 607.08 18.5639ZM628.193 20.6079H625.561V-9.15527e-05H628.193V20.6079ZM631.172 13.7479C631.172 9.51991 634.196 6.55191 638.312 6.55191C642.4 6.55191 645.424 9.51991 645.424 13.7479C645.424 17.9759 642.4 20.9439 638.312 20.9439C634.196 20.9439 631.172 17.9759 631.172 13.7479ZM633.832 13.7479C633.832 16.6039 635.652 18.5919 638.312 18.5919C640.944 18.5919 642.792 16.6039 642.792 13.7479C642.792 10.8919 640.944 8.90391 638.312 8.90391C635.652 8.90391 633.832 10.8919 633.832 13.7479ZM647.441 13.7759C647.441 9.49191 650.157 6.52391 654.161 6.52391C657.605 6.52391 660.013 8.48391 660.489 11.5359H657.857C657.409 9.79991 656.009 8.87591 654.245 8.87591C651.753 8.87591 650.045 10.7799 650.045 13.7479C650.045 16.6879 651.641 18.5919 654.133 18.5919C656.009 18.5919 657.409 17.6119 657.885 15.9879H660.517C659.985 18.9559 657.437 20.9439 654.133 20.9439C650.101 20.9439 647.441 18.0879 647.441 13.7759ZM667.298 20.9439C664.358 20.9439 662.622 19.2919 662.622 16.7999C662.622 14.2799 664.498 12.7119 667.718 12.4599L672.03 12.1239V11.7319C672.03 9.43591 670.658 8.62391 668.81 8.62391C666.598 8.62391 665.338 9.60391 665.338 11.2559H663.042C663.042 8.39991 665.394 6.52391 668.922 6.52391C672.31 6.52391 674.606 8.31591 674.606 12.0119V20.6079H672.366L672.086 18.3959C671.386 19.9639 669.51 20.9439 667.298 20.9439ZM668.054 18.8999C670.546 18.8999 672.058 17.2759 672.058 14.6999V13.9719L668.558 14.2519C666.234 14.4759 665.282 15.3719 665.282 16.7159C665.282 18.1719 666.346 18.8999 668.054 18.8999ZM681.896 20.6079H679.264V9.12791H676.576V6.91591H679.264V2.63191H681.896V6.91591H684.584V9.12791H681.896V20.6079ZM688.234 3.66791C687.282 3.66791 686.498 2.88391 686.498 1.93191C686.498 0.95191 687.282 0.195909 688.234 0.195909C689.186 0.195909 689.97 0.95191 689.97 1.93191C689.97 2.88391 689.186 3.66791 688.234 3.66791ZM686.946 20.6079V6.91591H689.578V20.6079H686.946ZM692.504 13.7479C692.504 9.51991 695.528 6.55191 699.644 6.55191C703.732 6.55191 706.756 9.51991 706.756 13.7479C706.756 17.9759 703.732 20.9439 699.644 20.9439C695.528 20.9439 692.504 17.9759 692.504 13.7479ZM695.164 13.7479C695.164 16.6039 696.984 18.5919 699.644 18.5919C702.276 18.5919 704.124 16.6039 704.124 13.7479C704.124 10.8919 702.276 8.90391 699.644 8.90391C696.984 8.90391 695.164 10.8919 695.164 13.7479ZM712.301 20.6079H709.669V6.91591H712.049L712.329 9.01591C713.197 7.44791 714.933 6.52391 716.865 6.52391C720.477 6.52391 722.129 8.73591 722.129 12.2359V20.6079H719.497V12.8239C719.497 10.0519 718.209 8.93191 716.193 8.93191C713.729 8.93191 712.301 10.6959 712.301 13.3559V20.6079ZM725.635 14.3639V12.0119H734.175V14.3639H725.635ZM740.213 20.6079H737.833V-9.15527e-05H740.465V9.26791C741.361 7.47591 743.209 6.52391 745.449 6.52391C749.369 6.52391 751.721 9.60391 751.721 13.8319C751.721 17.9759 749.257 20.9439 745.281 20.9439C743.125 20.9439 741.305 19.9919 740.409 18.1159L740.213 20.6079ZM740.493 13.7199C740.493 16.5759 742.117 18.5639 744.805 18.5639C747.493 18.5639 749.089 16.5479 749.089 13.7199C749.089 10.9199 747.493 8.90391 744.805 8.90391C742.117 8.90391 740.493 10.9199 740.493 13.7199ZM758.626 20.9439C755.686 20.9439 753.95 19.2919 753.95 16.7999C753.95 14.2799 755.826 12.7119 759.046 12.4599L763.358 12.1239V11.7319C763.358 9.43591 761.986 8.62391 760.138 8.62391C757.926 8.62391 756.666 9.60391 756.666 11.2559H754.37C754.37 8.39991 756.722 6.52391 760.25 6.52391C763.638 6.52391 765.934 8.31591 765.934 12.0119V20.6079H763.694L763.414 18.3959C762.714 19.9639 760.838 20.9439 758.626 20.9439ZM759.382 18.8999C761.874 18.8999 763.386 17.2759 763.386 14.6999V13.9719L759.886 14.2519C757.562 14.4759 756.61 15.3719 756.61 16.7159C756.61 18.1719 757.674 18.8999 759.382 18.8999ZM768.459 16.6319H770.979C770.979 18.0319 772.043 18.8719 773.779 18.8719C775.627 18.8719 776.691 18.1159 776.691 16.8559C776.691 15.9319 776.243 15.3719 774.815 15.0079L772.407 14.4479C769.971 13.8599 768.823 12.6559 768.823 10.6399C768.823 8.11991 770.951 6.52391 773.975 6.52391C776.971 6.52391 778.931 8.20391 778.987 10.8079H776.467C776.411 9.43591 775.487 8.56791 773.891 8.56791C772.239 8.56791 771.315 9.29591 771.315 10.5559C771.315 11.4799 771.987 12.0959 773.331 12.4319L775.739 13.0199C778.063 13.5799 779.211 14.6439 779.211 16.6879C779.211 19.2919 776.971 20.9439 773.723 20.9439C770.503 20.9439 768.459 19.2359 768.459 16.6319ZM788.038 20.9439C784.006 20.9439 781.234 18.0319 781.234 13.7759C781.234 9.49191 783.95 6.52391 787.926 6.52391C791.818 6.52391 794.366 9.21191 794.366 13.2719V14.2519L783.782 14.2799C783.978 17.1639 785.49 18.7599 788.094 18.7599C790.138 18.7599 791.482 17.9199 791.93 16.3519H794.394C793.722 19.2919 791.426 20.9439 788.038 20.9439ZM787.926 8.73591C785.63 8.73591 784.174 10.1079 783.838 12.5159H791.734C791.734 10.2479 790.25 8.73591 787.926 8.73591ZM802.794 20.9439C798.818 20.9439 796.41 17.9759 796.41 13.8039C796.41 9.60391 798.846 6.52391 802.906 6.52391C805.006 6.52391 806.77 7.44791 807.694 9.12791V-9.15527e-05H810.298V20.6079H807.946L807.722 18.1159C806.826 19.9919 804.978 20.9439 802.794 20.9439ZM803.326 18.5639C806.014 18.5639 807.666 16.5759 807.666 13.7199C807.666 10.9199 806.014 8.90391 803.326 8.90391C800.638 8.90391 799.07 10.9199 799.07 13.7199C799.07 16.5479 800.638 18.5639 803.326 18.5639ZM825.755 20.9439C822.815 20.9439 821.079 19.2919 821.079 16.7999C821.079 14.2799 822.955 12.7119 826.175 12.4599L830.487 12.1239V11.7319C830.487 9.43591 829.115 8.62391 827.267 8.62391C825.055 8.62391 823.795 9.60391 823.795 11.2559H821.499C821.499 8.39991 823.851 6.52391 827.379 6.52391C830.767 6.52391 833.063 8.31591 833.063 12.0119V20.6079H830.823L830.543 18.3959C829.843 19.9639 827.967 20.9439 825.755 20.9439ZM826.511 18.8999C829.003 18.8999 830.515 17.2759 830.515 14.6999V13.9719L827.015 14.2519C824.691 14.4759 823.739 15.3719 823.739 16.7159C823.739 18.1719 824.803 18.8999 826.511 18.8999ZM835.812 13.7759C835.812 9.49191 838.528 6.52391 842.532 6.52391C845.976 6.52391 848.384 8.48391 848.86 11.5359H846.228C845.78 9.79991 844.38 8.87591 842.616 8.87591C840.124 8.87591 838.416 10.7799 838.416 13.7479C838.416 16.6879 840.012 18.5919 842.504 18.5919C844.38 18.5919 845.78 17.6119 846.256 15.9879H848.888C848.356 18.9559 845.808 20.9439 842.504 20.9439C838.472 20.9439 835.812 18.0879 835.812 13.7759ZM855.529 20.6079H852.897V9.12791H850.209V6.91591H852.897V2.63191H855.529V6.91591H858.217V9.12791H855.529V20.6079ZM861.867 3.66791C860.915 3.66791 860.131 2.88391 860.131 1.93191C860.131 0.95191 860.915 0.195909 861.867 0.195909C862.819 0.195909 863.603 0.95191 863.603 1.93191C863.603 2.88391 862.819 3.66791 861.867 3.66791ZM860.579 20.6079V6.91591H863.211V20.6079H860.579ZM866.136 13.7479C866.136 9.51991 869.16 6.55191 873.276 6.55191C877.364 6.55191 880.388 9.51991 880.388 13.7479C880.388 17.9759 877.364 20.9439 873.276 20.9439C869.16 20.9439 866.136 17.9759 866.136 13.7479ZM868.796 13.7479C868.796 16.6039 870.616 18.5919 873.276 18.5919C875.908 18.5919 877.756 16.6039 877.756 13.7479C877.756 10.8919 875.908 8.90391 873.276 8.90391C870.616 8.90391 868.796 10.8919 868.796 13.7479ZM885.934 20.6079H883.302V6.91591H885.682L885.962 9.01591C886.83 7.44791 888.566 6.52391 890.498 6.52391C894.11 6.52391 895.762 8.73591 895.762 12.2359V20.6079H893.13V12.8239C893.13 10.0519 891.842 8.93191 889.826 8.93191C887.362 8.93191 885.934 10.6959 885.934 13.3559V20.6079ZM898.123 16.6319H900.643C900.643 18.0319 901.707 18.8719 903.443 18.8719C905.291 18.8719 906.355 18.1159 906.355 16.8559C906.355 15.9319 905.907 15.3719 904.479 15.0079L902.071 14.4479C899.635 13.8599 898.487 12.6559 898.487 10.6399C898.487 8.11991 900.615 6.52391 903.639 6.52391C906.635 6.52391 908.595 8.20391 908.651 10.8079H906.131C906.075 9.43591 905.151 8.56791 903.555 8.56791C901.903 8.56791 900.979 9.29591 900.979 10.5559C900.979 11.4799 901.651 12.0959 902.995 12.4319L905.403 13.0199C907.727 13.5799 908.875 14.6439 908.875 16.6879C908.875 19.2919 906.635 20.9439 903.387 20.9439C900.167 20.9439 898.123 19.2359 898.123 16.6319ZM928.914 6.91591H931.518V20.6079H929.166L928.886 18.5359C928.102 19.9639 926.282 20.9439 924.266 20.9439C921.074 20.9439 919.282 18.7879 919.282 15.4279V6.91591H921.914V14.5599C921.914 17.4999 923.174 18.6199 925.19 18.6199C927.598 18.6199 928.914 17.0799 928.914 14.1399V6.91591ZM933.944 16.6319H936.464C936.464 18.0319 937.528 18.8719 939.264 18.8719C941.112 18.8719 942.176 18.1159 942.176 16.8559C942.176 15.9319 941.728 15.3719 940.3 15.0079L937.892 14.4479C935.456 13.8599 934.308 12.6559 934.308 10.6399C934.308 8.11991 936.436 6.52391 939.46 6.52391C942.456 6.52391 944.416 8.20391 944.472 10.8079H941.952C941.896 9.43591 940.972 8.56791 939.376 8.56791C937.724 8.56791 936.8 9.29591 936.8 10.5559C936.8 11.4799 937.472 12.0959 938.816 12.4319L941.224 13.0199C943.548 13.5799 944.696 14.6439 944.696 16.6879C944.696 19.2919 942.456 20.9439 939.208 20.9439C935.988 20.9439 933.944 19.2359 933.944 16.6319ZM953.522 20.9439C949.49 20.9439 946.718 18.0319 946.718 13.7759C946.718 9.49191 949.434 6.52391 953.41 6.52391C957.302 6.52391 959.85 9.21191 959.85 13.2719V14.2519L949.266 14.2799C949.462 17.1639 950.974 18.7599 953.578 18.7599C955.622 18.7599 956.966 17.9199 957.414 16.3519H959.878C959.206 19.2919 956.91 20.9439 953.522 20.9439ZM953.41 8.73591C951.114 8.73591 949.658 10.1079 949.322 12.5159H957.218C957.218 10.2479 955.734 8.73591 953.41 8.73591ZM968.278 20.9439C964.302 20.9439 961.894 17.9759 961.894 13.8039C961.894 9.60391 964.33 6.52391 968.39 6.52391C970.49 6.52391 972.254 7.44791 973.178 9.12791V-9.15527e-05H975.782V20.6079H973.43L973.206 18.1159C972.31 19.9919 970.462 20.9439 968.278 20.9439ZM968.81 18.5639C971.498 18.5639 973.15 16.5759 973.15 13.7199C973.15 10.9199 971.498 8.90391 968.81 8.90391C966.122 8.90391 964.554 10.9199 964.554 13.7199C964.554 16.5479 966.122 18.5639 968.81 18.5639ZM991.24 20.9439C988.3 20.9439 986.564 19.2919 986.564 16.7999C986.564 14.2799 988.44 12.7119 991.66 12.4599L995.972 12.1239V11.7319C995.972 9.43591 994.6 8.62391 992.752 8.62391C990.54 8.62391 989.28 9.60391 989.28 11.2559H986.984C986.984 8.39991 989.336 6.52391 992.864 6.52391C996.252 6.52391 998.548 8.31591 998.548 12.0119V20.6079H996.308L996.028 18.3959C995.328 19.9639 993.452 20.9439 991.24 20.9439ZM991.996 18.8999C994.488 18.8999 996 17.2759 996 14.6999V13.9719L992.5 14.2519C990.176 14.4759 989.224 15.3719 989.224 16.7159C989.224 18.1719 990.288 18.8999 991.996 18.8999ZM1001.3 13.7759C1001.3 9.49191 1004.01 6.52391 1008.02 6.52391C1011.46 6.52391 1013.87 8.48391 1014.34 11.5359H1011.71C1011.26 9.79991 1009.86 8.87591 1008.1 8.87591C1005.61 8.87591 1003.9 10.7799 1003.9 13.7479C1003.9 16.6879 1005.5 18.5919 1007.99 18.5919C1009.86 18.5919 1011.26 17.6119 1011.74 15.9879H1014.37C1013.84 18.9559 1011.29 20.9439 1007.99 20.9439C1003.96 20.9439 1001.3 18.0879 1001.3 13.7759ZM1024.99 6.80391V9.21191H1023.81C1021.32 9.21191 1019.78 10.7239 1019.78 13.3559V20.6079H1017.15V6.94391H1019.61L1019.78 9.01591C1020.34 7.58791 1021.71 6.63591 1023.59 6.63591C1024.07 6.63591 1024.46 6.69191 1024.99 6.80391ZM1026.07 13.7479C1026.07 9.51991 1029.09 6.55191 1033.21 6.55191C1037.3 6.55191 1040.32 9.51991 1040.32 13.7479C1040.32 17.9759 1037.3 20.9439 1033.21 20.9439C1029.09 20.9439 1026.07 17.9759 1026.07 13.7479ZM1028.73 13.7479C1028.73 16.6039 1030.55 18.5919 1033.21 18.5919C1035.84 18.5919 1037.69 16.6039 1037.69 13.7479C1037.69 10.8919 1035.84 8.90391 1033.21 8.90391C1030.55 8.90391 1028.73 10.8919 1028.73 13.7479ZM1042.12 16.6319H1044.64C1044.64 18.0319 1045.7 18.8719 1047.44 18.8719C1049.28 18.8719 1050.35 18.1159 1050.35 16.8559C1050.35 15.9319 1049.9 15.3719 1048.47 15.0079L1046.06 14.4479C1043.63 13.8599 1042.48 12.6559 1042.48 10.6399C1042.48 8.11991 1044.61 6.52391 1047.63 6.52391C1050.63 6.52391 1052.59 8.20391 1052.64 10.8079H1050.12C1050.07 9.43591 1049.14 8.56791 1047.55 8.56791C1045.9 8.56791 1044.97 9.29591 1044.97 10.5559C1044.97 11.4799 1045.64 12.0959 1046.99 12.4319L1049.4 13.0199C1051.72 13.5799 1052.87 14.6439 1052.87 16.6879C1052.87 19.2919 1050.63 20.9439 1047.38 20.9439C1044.16 20.9439 1042.12 19.2359 1042.12 16.6319ZM1054.67 16.6319H1057.19C1057.19 18.0319 1058.25 18.8719 1059.99 18.8719C1061.83 18.8719 1062.9 18.1159 1062.9 16.8559C1062.9 15.9319 1062.45 15.3719 1061.02 15.0079L1058.61 14.4479C1056.18 13.8599 1055.03 12.6559 1055.03 10.6399C1055.03 8.11991 1057.16 6.52391 1060.18 6.52391C1063.18 6.52391 1065.14 8.20391 1065.19 10.8079H1062.67C1062.62 9.43591 1061.69 8.56791 1060.1 8.56791C1058.45 8.56791 1057.52 9.29591 1057.52 10.5559C1057.52 11.4799 1058.19 12.0959 1059.54 12.4319L1061.95 13.0199C1064.27 13.5799 1065.42 14.6439 1065.42 16.6879C1065.42 19.2919 1063.18 20.9439 1059.93 20.9439C1056.71 20.9439 1054.67 19.2359 1054.67 16.6319ZM1078.63 20.6079H1075.99V6.91591H1078.37L1078.65 9.01591C1079.52 7.44791 1081.26 6.52391 1083.19 6.52391C1086.8 6.52391 1088.45 8.73591 1088.45 12.2359V20.6079H1085.82V12.8239C1085.82 10.0519 1084.53 8.93191 1082.52 8.93191C1080.05 8.93191 1078.63 10.6959 1078.63 13.3559V20.6079ZM1096.1 20.9439C1093.16 20.9439 1091.43 19.2919 1091.43 16.7999C1091.43 14.2799 1093.3 12.7119 1096.52 12.4599L1100.83 12.1239V11.7319C1100.83 9.43591 1099.46 8.62391 1097.61 8.62391C1095.4 8.62391 1094.14 9.60391 1094.14 11.2559H1091.85C1091.85 8.39991 1094.2 6.52391 1097.73 6.52391C1101.11 6.52391 1103.41 8.31591 1103.41 12.0119V20.6079H1101.17L1100.89 18.3959C1100.19 19.9639 1098.31 20.9439 1096.1 20.9439ZM1096.86 18.8999C1099.35 18.8999 1100.86 17.2759 1100.86 14.6999V13.9719L1097.36 14.2519C1095.04 14.4759 1094.09 15.3719 1094.09 16.7159C1094.09 18.1719 1095.15 18.8999 1096.86 18.8999ZM1110.34 20.6079L1104.83 6.91591H1107.63L1110.62 14.5599C1111.1 15.8479 1111.49 16.9959 1111.72 17.8359C1111.94 16.9399 1112.39 15.7639 1112.86 14.5599L1115.92 6.91591H1118.66L1112.95 20.6079H1110.34ZM1122.04 3.66791C1121.09 3.66791 1120.31 2.88391 1120.31 1.93191C1120.31 0.95191 1121.09 0.195909 1122.04 0.195909C1123 0.195909 1123.78 0.95191 1123.78 1.93191C1123.78 2.88391 1123 3.66791 1122.04 3.66791ZM1120.76 20.6079V6.91591H1123.39V20.6079H1120.76ZM1126.34 13.4119C1126.34 9.54791 1128.83 6.52391 1132.81 6.52391C1135.02 6.52391 1136.73 7.53191 1137.6 9.23991L1137.79 6.91591H1140.14V20.0479C1140.14 24.3599 1137.48 27.1039 1133.28 27.1039C1129.56 27.1039 1127.01 25.0039 1126.51 21.5319H1129.14C1129.48 23.5479 1130.99 24.7239 1133.28 24.7239C1135.86 24.7239 1137.54 23.0439 1137.54 20.4399V17.6959C1136.64 19.2919 1134.85 20.2439 1132.7 20.2439C1128.8 20.2439 1126.34 17.2479 1126.34 13.4119ZM1128.97 13.3559C1128.97 15.9319 1130.57 17.9479 1133.14 17.9479C1135.8 17.9479 1137.43 16.0439 1137.43 13.3559C1137.43 10.7239 1135.86 8.81991 1133.17 8.81991C1130.54 8.81991 1128.97 10.8359 1128.97 13.3559ZM1147.95 20.9439C1145.01 20.9439 1143.27 19.2919 1143.27 16.7999C1143.27 14.2799 1145.15 12.7119 1148.37 12.4599L1152.68 12.1239V11.7319C1152.68 9.43591 1151.31 8.62391 1149.46 8.62391C1147.25 8.62391 1145.99 9.60391 1145.99 11.2559H1143.69C1143.69 8.39991 1146.04 6.52391 1149.57 6.52391C1152.96 6.52391 1155.25 8.31591 1155.25 12.0119V20.6079H1153.01L1152.73 18.3959C1152.03 19.9639 1150.16 20.9439 1147.95 20.9439ZM1148.7 18.8999C1151.19 18.8999 1152.71 17.2759 1152.71 14.6999V13.9719L1149.21 14.2519C1146.88 14.4759 1145.93 15.3719 1145.93 16.7159C1145.93 18.1719 1146.99 18.8999 1148.7 18.8999ZM1162.54 20.6079H1159.91V9.12791H1157.22V6.91591H1159.91V2.63191H1162.54V6.91591H1165.23V9.12791H1162.54V20.6079ZM1168.88 3.66791C1167.93 3.66791 1167.15 2.88391 1167.15 1.93191C1167.15 0.95191 1167.93 0.195909 1168.88 0.195909C1169.83 0.195909 1170.62 0.95191 1170.62 1.93191C1170.62 2.88391 1169.83 3.66791 1168.88 3.66791ZM1167.59 20.6079V6.91591H1170.23V20.6079H1167.59ZM1173.15 13.7479C1173.15 9.51991 1176.18 6.55191 1180.29 6.55191C1184.38 6.55191 1187.4 9.51991 1187.4 13.7479C1187.4 17.9759 1184.38 20.9439 1180.29 20.9439C1176.18 20.9439 1173.15 17.9759 1173.15 13.7479ZM1175.81 13.7479C1175.81 16.6039 1177.63 18.5919 1180.29 18.5919C1182.92 18.5919 1184.77 16.6039 1184.77 13.7479C1184.77 10.8919 1182.92 8.90391 1180.29 8.90391C1177.63 8.90391 1175.81 10.8919 1175.81 13.7479ZM1192.95 20.6079H1190.32V6.91591H1192.7L1192.98 9.01591C1193.85 7.44791 1195.58 6.52391 1197.51 6.52391C1201.13 6.52391 1202.78 8.73591 1202.78 12.2359V20.6079H1200.15V12.8239C1200.15 10.0519 1198.86 8.93191 1196.84 8.93191C1194.38 8.93191 1192.95 10.6959 1192.95 13.3559V20.6079ZM1218.08 20.9439C1215.14 20.9439 1213.41 19.2919 1213.41 16.7999C1213.41 14.2799 1215.28 12.7119 1218.5 12.4599L1222.82 12.1239V11.7319C1222.82 9.43591 1221.44 8.62391 1219.6 8.62391C1217.38 8.62391 1216.12 9.60391 1216.12 11.2559H1213.83C1213.83 8.39991 1216.18 6.52391 1219.71 6.52391C1223.1 6.52391 1225.39 8.31591 1225.39 12.0119V20.6079H1223.15L1222.87 18.3959C1222.17 19.9639 1220.3 20.9439 1218.08 20.9439ZM1218.84 18.8999C1221.33 18.8999 1222.84 17.2759 1222.84 14.6999V13.9719L1219.34 14.2519C1217.02 14.4759 1216.07 15.3719 1216.07 16.7159C1216.07 18.1719 1217.13 18.8999 1218.84 18.8999ZM1229.04 26.7399V6.91591H1231.42L1231.61 9.37991C1232.54 7.50391 1234.38 6.52391 1236.57 6.52391C1240.49 6.52391 1242.92 9.46391 1242.92 13.6639C1242.92 17.8359 1240.63 20.9719 1236.57 20.9719C1234.38 20.9719 1232.56 20.0479 1231.67 18.3679V26.7399H1229.04ZM1231.7 13.7759C1231.7 16.5759 1233.32 18.5919 1236.01 18.5919C1238.7 18.5919 1240.29 16.5759 1240.29 13.7759C1240.29 10.9479 1238.7 8.93191 1236.01 8.93191C1233.32 8.93191 1231.7 10.9199 1231.7 13.7759ZM1245.83 26.7399V6.91591H1248.21L1248.4 9.37991C1249.33 7.50391 1251.17 6.52391 1253.36 6.52391C1257.28 6.52391 1259.71 9.46391 1259.71 13.6639C1259.71 17.8359 1257.42 20.9719 1253.36 20.9719C1251.17 20.9719 1249.35 20.0479 1248.46 18.3679V26.7399H1245.83ZM1248.49 13.7759C1248.49 16.5759 1250.11 18.5919 1252.8 18.5919C1255.49 18.5919 1257.08 16.5759 1257.08 13.7759C1257.08 10.9479 1255.49 8.93191 1252.8 8.93191C1250.11 8.93191 1248.49 10.9199 1248.49 13.7759ZM1261.49 16.6319H1264.01C1264.01 18.0319 1265.08 18.8719 1266.81 18.8719C1268.66 18.8719 1269.73 18.1159 1269.73 16.8559C1269.73 15.9319 1269.28 15.3719 1267.85 15.0079L1265.44 14.4479C1263.01 13.8599 1261.86 12.6559 1261.86 10.6399C1261.86 8.11991 1263.99 6.52391 1267.01 6.52391C1270.01 6.52391 1271.97 8.20391 1272.02 10.8079H1269.5C1269.45 9.43591 1268.52 8.56791 1266.93 8.56791C1265.27 8.56791 1264.35 9.29591 1264.35 10.5559C1264.35 11.4799 1265.02 12.0959 1266.37 12.4319L1268.77 13.0199C1271.1 13.5799 1272.25 14.6439 1272.25 16.6879C1272.25 19.2919 1270.01 20.9439 1266.76 20.9439C1263.54 20.9439 1261.49 19.2359 1261.49 16.6319ZM1278.95 19.5159C1278.95 21.5319 1277.44 23.2119 1275.45 23.4639V22.2879C1276.6 22.0919 1277.41 21.3359 1277.41 20.4679C1277.21 20.5799 1276.99 20.6359 1276.65 20.6359C1275.73 20.6359 1274.95 19.9639 1274.95 18.9279C1274.95 17.8079 1275.7 16.9959 1276.82 16.9959C1278 16.9959 1278.95 17.9759 1278.95 19.5159ZM1294.26 20.6079H1291.63V9.12791H1288.94V6.91591H1291.63V2.63191H1294.26V6.91591H1296.95V9.12791H1294.26V20.6079ZM1307.15 6.80391V9.21191H1305.97C1303.48 9.21191 1301.94 10.7239 1301.94 13.3559V20.6079H1299.31V6.94391H1301.77L1301.94 9.01591C1302.5 7.58791 1303.87 6.63591 1305.75 6.63591C1306.23 6.63591 1306.62 6.69191 1307.15 6.80391ZM1313.08 20.9439C1310.14 20.9439 1308.4 19.2919 1308.4 16.7999C1308.4 14.2799 1310.28 12.7119 1313.5 12.4599L1317.81 12.1239V11.7319C1317.81 9.43591 1316.44 8.62391 1314.59 8.62391C1312.38 8.62391 1311.12 9.60391 1311.12 11.2559H1308.82C1308.82 8.39991 1311.17 6.52391 1314.7 6.52391C1318.09 6.52391 1320.38 8.31591 1320.38 12.0119V20.6079H1318.14L1317.86 18.3959C1317.16 19.9639 1315.29 20.9439 1313.08 20.9439ZM1313.83 18.8999C1316.32 18.8999 1317.84 17.2759 1317.84 14.6999V13.9719L1314.34 14.2519C1312.01 14.4759 1311.06 15.3719 1311.06 16.7159C1311.06 18.1719 1312.12 18.8999 1313.83 18.8999ZM1327.32 20.6079L1321.8 6.91591H1324.6L1327.6 14.5599C1328.07 15.8479 1328.47 16.9959 1328.69 17.8359C1328.91 16.9399 1329.36 15.7639 1329.84 14.5599L1332.89 6.91591H1335.63L1329.92 20.6079H1327.32ZM1343.01 20.9439C1338.97 20.9439 1336.2 18.0319 1336.2 13.7759C1336.2 9.49191 1338.92 6.52391 1342.89 6.52391C1346.79 6.52391 1349.33 9.21191 1349.33 13.2719V14.2519L1338.75 14.2799C1338.95 17.1639 1340.46 18.7599 1343.06 18.7599C1345.11 18.7599 1346.45 17.9199 1346.9 16.3519H1349.36C1348.69 19.2919 1346.39 20.9439 1343.01 20.9439ZM1342.89 8.73591C1340.6 8.73591 1339.14 10.1079 1338.81 12.5159H1346.7C1346.7 10.2479 1345.22 8.73591 1342.89 8.73591ZM1354.96 20.6079H1352.33V-9.15527e-05H1354.96V20.6079ZM1370.36 20.6079H1367.73V9.12791H1365.04V6.91591H1367.73V2.63191H1370.36V6.91591H1373.05V9.12791H1370.36V20.6079ZM1374.37 13.7479C1374.37 9.51991 1377.4 6.55191 1381.51 6.55191C1385.6 6.55191 1388.63 9.51991 1388.63 13.7479C1388.63 17.9759 1385.6 20.9439 1381.51 20.9439C1377.4 20.9439 1374.37 17.9759 1374.37 13.7479ZM1377.03 13.7479C1377.03 16.6039 1378.85 18.5919 1381.51 18.5919C1384.15 18.5919 1385.99 16.6039 1385.99 13.7479C1385.99 10.8919 1384.15 8.90391 1381.51 8.90391C1378.85 8.90391 1377.03 10.8919 1377.03 13.7479ZM1390.64 13.7479C1390.64 9.51991 1393.67 6.55191 1397.78 6.55191C1401.87 6.55191 1404.9 9.51991 1404.9 13.7479C1404.9 17.9759 1401.87 20.9439 1397.78 20.9439C1393.67 20.9439 1390.64 17.9759 1390.64 13.7479ZM1393.3 13.7479C1393.3 16.6039 1395.12 18.5919 1397.78 18.5919C1400.42 18.5919 1402.26 16.6039 1402.26 13.7479C1402.26 10.8919 1400.42 8.90391 1397.78 8.90391C1395.12 8.90391 1393.3 10.8919 1393.3 13.7479ZM1410.5 20.6079H1407.87V-9.15527e-05H1410.5V20.6079ZM1413.25 16.6319H1415.77C1415.77 18.0319 1416.84 18.8719 1418.57 18.8719C1420.42 18.8719 1421.48 18.1159 1421.48 16.8559C1421.48 15.9319 1421.04 15.3719 1419.61 15.0079L1417.2 14.4479C1414.76 13.8599 1413.62 12.6559 1413.62 10.6399C1413.62 8.11991 1415.74 6.52391 1418.77 6.52391C1421.76 6.52391 1423.72 8.20391 1423.78 10.8079H1421.26C1421.2 9.43591 1420.28 8.56791 1418.68 8.56791C1417.03 8.56791 1416.11 9.29591 1416.11 10.5559C1416.11 11.4799 1416.78 12.0959 1418.12 12.4319L1420.53 13.0199C1422.86 13.5799 1424 14.6439 1424 16.6879C1424 19.2919 1421.76 20.9439 1418.52 20.9439C1415.3 20.9439 1413.25 19.2359 1413.25 16.6319ZM1430.71 19.5159C1430.71 21.5319 1429.19 23.2119 1427.21 23.4639V22.2879C1428.35 22.0919 1429.17 21.3359 1429.17 20.4679C1428.97 20.5799 1428.75 20.6359 1428.41 20.6359C1427.49 20.6359 1426.7 19.9639 1426.7 18.9279C1426.7 17.8079 1427.46 16.9959 1428.58 16.9959C1429.75 16.9959 1430.71 17.9759 1430.71 19.5159ZM1446.16 20.9439C1443.22 20.9439 1441.48 19.2919 1441.48 16.7999C1441.48 14.2799 1443.36 12.7119 1446.58 12.4599L1450.89 12.1239V11.7319C1450.89 9.43591 1449.52 8.62391 1447.67 8.62391C1445.46 8.62391 1444.2 9.60391 1444.2 11.2559H1441.9C1441.9 8.39991 1444.25 6.52391 1447.78 6.52391C1451.17 6.52391 1453.47 8.31591 1453.47 12.0119V20.6079H1451.23L1450.95 18.3959C1450.25 19.9639 1448.37 20.9439 1446.16 20.9439ZM1446.91 18.8999C1449.41 18.8999 1450.92 17.2759 1450.92 14.6999V13.9719L1447.42 14.2519C1445.09 14.4759 1444.14 15.3719 1444.14 16.7159C1444.14 18.1719 1445.21 18.8999 1446.91 18.8999ZM1459.74 20.6079H1457.11V6.91591H1459.49L1459.77 9.01591C1460.64 7.44791 1462.37 6.52391 1464.31 6.52391C1467.92 6.52391 1469.57 8.73591 1469.57 12.2359V20.6079H1466.94V12.8239C1466.94 10.0519 1465.65 8.93191 1463.63 8.93191C1461.17 8.93191 1459.74 10.6959 1459.74 13.3559V20.6079ZM1478.7 20.9439C1474.73 20.9439 1472.32 17.9759 1472.32 13.8039C1472.32 9.60391 1474.76 6.52391 1478.82 6.52391C1480.92 6.52391 1482.68 7.44791 1483.6 9.12791V-9.15527e-05H1486.21V20.6079H1483.86L1483.63 18.1159C1482.74 19.9919 1480.89 20.9439 1478.7 20.9439ZM1479.24 18.5639C1481.92 18.5639 1483.58 16.5759 1483.58 13.7199C1483.58 10.9199 1481.92 8.90391 1479.24 8.90391C1476.55 8.90391 1474.98 10.9199 1474.98 13.7199C1474.98 16.5479 1476.55 18.5639 1479.24 18.5639ZM1503.15 20.9439C1499.17 20.9439 1496.77 17.9759 1496.77 13.8039C1496.77 9.60391 1499.2 6.52391 1503.26 6.52391C1505.36 6.52391 1507.13 7.44791 1508.05 9.12791V-9.15527e-05H1510.65V20.6079H1508.3L1508.08 18.1159C1507.18 19.9919 1505.33 20.9439 1503.15 20.9439ZM1503.68 18.5639C1506.37 18.5639 1508.02 16.5759 1508.02 13.7199C1508.02 10.9199 1506.37 8.90391 1503.68 8.90391C1500.99 8.90391 1499.43 10.9199 1499.43 13.7199C1499.43 16.5479 1500.99 18.5639 1503.68 18.5639ZM1518.45 20.9439C1515.51 20.9439 1513.78 19.2919 1513.78 16.7999C1513.78 14.2799 1515.65 12.7119 1518.87 12.4599L1523.19 12.1239V11.7319C1523.19 9.43591 1521.81 8.62391 1519.97 8.62391C1517.75 8.62391 1516.49 9.60391 1516.49 11.2559H1514.2C1514.2 8.39991 1516.55 6.52391 1520.08 6.52391C1523.47 6.52391 1525.76 8.31591 1525.76 12.0119V20.6079H1523.52L1523.24 18.3959C1522.54 19.9639 1520.67 20.9439 1518.45 20.9439ZM1519.21 18.8999C1521.7 18.8999 1523.21 17.2759 1523.21 14.6999V13.9719L1519.71 14.2519C1517.39 14.4759 1516.44 15.3719 1516.44 16.7159C1516.44 18.1719 1517.5 18.8999 1519.21 18.8999ZM1528.29 16.6319H1530.81C1530.81 18.0319 1531.87 18.8719 1533.61 18.8719C1535.46 18.8719 1536.52 18.1159 1536.52 16.8559C1536.52 15.9319 1536.07 15.3719 1534.64 15.0079L1532.24 14.4479C1529.8 13.8599 1528.65 12.6559 1528.65 10.6399C1528.65 8.11991 1530.78 6.52391 1533.8 6.52391C1536.8 6.52391 1538.76 8.20391 1538.82 10.8079H1536.3C1536.24 9.43591 1535.32 8.56791 1533.72 8.56791C1532.07 8.56791 1531.14 9.29591 1531.14 10.5559C1531.14 11.4799 1531.82 12.0959 1533.16 12.4319L1535.57 13.0199C1537.89 13.5799 1539.04 14.6439 1539.04 16.6879C1539.04 19.2919 1536.8 20.9439 1533.55 20.9439C1530.33 20.9439 1528.29 19.2359 1528.29 16.6319ZM1544.59 20.5799H1541.96V-9.15527e-05H1544.59V9.01591C1545.46 7.53191 1547.11 6.52391 1549.24 6.52391C1552.74 6.52391 1554.42 8.73591 1554.42 12.2359V20.6079H1551.79V12.8239C1551.79 10.0519 1550.47 8.93191 1548.51 8.93191C1545.96 8.93191 1544.59 10.7799 1544.59 13.1319V20.5799ZM1560.44 20.6079H1558.06V-9.15527e-05H1560.7V9.26791C1561.59 7.47591 1563.44 6.52391 1565.68 6.52391C1569.6 6.52391 1571.95 9.60391 1571.95 13.8319C1571.95 17.9759 1569.49 20.9439 1565.51 20.9439C1563.36 20.9439 1561.54 19.9919 1560.64 18.1159L1560.44 20.6079ZM1560.72 13.7199C1560.72 16.5759 1562.35 18.5639 1565.04 18.5639C1567.72 18.5639 1569.32 16.5479 1569.32 13.7199C1569.32 10.9199 1567.72 8.90391 1565.04 8.90391C1562.35 8.90391 1560.72 10.9199 1560.72 13.7199ZM1573.96 13.7479C1573.96 9.51991 1576.98 6.55191 1581.1 6.55191C1585.18 6.55191 1588.21 9.51991 1588.21 13.7479C1588.21 17.9759 1585.18 20.9439 1581.1 20.9439C1576.98 20.9439 1573.96 17.9759 1573.96 13.7479ZM1576.62 13.7479C1576.62 16.6039 1578.44 18.5919 1581.1 18.5919C1583.73 18.5919 1585.58 16.6039 1585.58 13.7479C1585.58 10.8919 1583.73 8.90391 1581.1 8.90391C1578.44 8.90391 1576.62 10.8919 1576.62 13.7479ZM1595.13 20.9439C1592.19 20.9439 1590.45 19.2919 1590.45 16.7999C1590.45 14.2799 1592.33 12.7119 1595.55 12.4599L1599.86 12.1239V11.7319C1599.86 9.43591 1598.49 8.62391 1596.64 8.62391C1594.43 8.62391 1593.17 9.60391 1593.17 11.2559H1590.87C1590.87 8.39991 1593.22 6.52391 1596.75 6.52391C1600.14 6.52391 1602.43 8.31591 1602.43 12.0119V20.6079H1600.19L1599.91 18.3959C1599.21 19.9639 1597.34 20.9439 1595.13 20.9439ZM1595.88 18.8999C1598.37 18.8999 1599.89 17.2759 1599.89 14.6999V13.9719L1596.39 14.2519C1594.06 14.4759 1593.11 15.3719 1593.11 16.7159C1593.11 18.1719 1594.17 18.8999 1595.88 18.8999ZM1613.92 6.80391V9.21191H1612.74C1610.25 9.21191 1608.71 10.7239 1608.71 13.3559V20.6079H1606.08V6.94391H1608.54L1608.71 9.01591C1609.27 7.58791 1610.64 6.63591 1612.52 6.63591C1613 6.63591 1613.39 6.69191 1613.92 6.80391ZM1621.38 20.9439C1617.41 20.9439 1615 17.9759 1615 13.8039C1615 9.60391 1617.44 6.52391 1621.5 6.52391C1623.6 6.52391 1625.36 7.44791 1626.28 9.12791V-9.15527e-05H1628.89V20.6079H1626.54L1626.31 18.1159C1625.42 19.9919 1623.57 20.9439 1621.38 20.9439ZM1621.92 18.5639C1624.6 18.5639 1626.26 16.5759 1626.26 13.7199C1626.26 10.9199 1624.6 8.90391 1621.92 8.90391C1619.23 8.90391 1617.66 10.9199 1617.66 13.7199C1617.66 16.5479 1619.23 18.5639 1621.92 18.5639ZM1641.63 3.66791C1640.68 3.66791 1639.89 2.88391 1639.89 1.93191C1639.89 0.95191 1640.68 0.195909 1641.63 0.195909C1642.58 0.195909 1643.37 0.95191 1643.37 1.93191C1643.37 2.88391 1642.58 3.66791 1641.63 3.66791ZM1640.34 20.6079V6.91591H1642.97V20.6079H1640.34ZM1649.43 20.6079H1646.79V6.91591H1649.17L1649.45 9.01591C1650.32 7.44791 1652.06 6.52391 1653.99 6.52391C1657.6 6.52391 1659.25 8.73591 1659.25 12.2359V20.6079H1656.62V12.8239C1656.62 10.0519 1655.33 8.93191 1653.32 8.93191C1650.85 8.93191 1649.43 10.6959 1649.43 13.3559V20.6079ZM1666.76 20.6079H1664.13V9.12791H1661.44V6.91591H1664.13V2.63191H1666.76V6.91591H1669.45V9.12791H1666.76V20.6079ZM1677.58 20.9439C1673.55 20.9439 1670.78 18.0319 1670.78 13.7759C1670.78 9.49191 1673.5 6.52391 1677.47 6.52391C1681.36 6.52391 1683.91 9.21191 1683.91 13.2719V14.2519L1673.33 14.2799C1673.52 17.1639 1675.04 18.7599 1677.64 18.7599C1679.68 18.7599 1681.03 17.9199 1681.48 16.3519H1683.94C1683.27 19.2919 1680.97 20.9439 1677.58 20.9439ZM1677.47 8.73591C1675.18 8.73591 1673.72 10.1079 1673.38 12.5159H1681.28C1681.28 10.2479 1679.8 8.73591 1677.47 8.73591ZM1694.69 6.80391V9.21191H1693.52C1691.02 9.21191 1689.48 10.7239 1689.48 13.3559V20.6079H1686.85V6.94391H1689.32L1689.48 9.01591C1690.04 7.58791 1691.42 6.63591 1693.29 6.63591C1693.77 6.63591 1694.16 6.69191 1694.69 6.80391ZM1696.25 6.91591H1698.27V4.73191C1698.27 1.37191 1700.12 -9.15527e-05 1702.61 -9.15527e-05C1703.11 -9.15527e-05 1703.7 0.0279098 1704.23 0.111909V2.37991H1703.06C1701.35 2.37991 1700.9 3.24791 1700.9 4.73191V6.91591H1704.15V9.12791H1700.9V20.6079H1698.27V9.12791H1696.25V6.91591ZM1710.16 20.9439C1707.22 20.9439 1705.49 19.2919 1705.49 16.7999C1705.49 14.2799 1707.36 12.7119 1710.58 12.4599L1714.89 12.1239V11.7319C1714.89 9.43591 1713.52 8.62391 1711.67 8.62391C1709.46 8.62391 1708.2 9.60391 1708.2 11.2559H1705.91C1705.91 8.39991 1708.26 6.52391 1711.79 6.52391C1715.17 6.52391 1717.47 8.31591 1717.47 12.0119V20.6079H1715.23L1714.95 18.3959C1714.25 19.9639 1712.37 20.9439 1710.16 20.9439ZM1710.92 18.8999C1713.41 18.8999 1714.92 17.2759 1714.92 14.6999V13.9719L1711.42 14.2519C1709.1 14.4759 1708.15 15.3719 1708.15 16.7159C1708.15 18.1719 1709.21 18.8999 1710.92 18.8999ZM1720.22 13.7759C1720.22 9.49191 1722.93 6.52391 1726.94 6.52391C1730.38 6.52391 1732.79 8.48391 1733.27 11.5359H1730.63C1730.19 9.79991 1728.79 8.87591 1727.02 8.87591C1724.53 8.87591 1722.82 10.7799 1722.82 13.7479C1722.82 16.6879 1724.42 18.5919 1726.91 18.5919C1728.79 18.5919 1730.19 17.6119 1730.66 15.9879H1733.29C1732.76 18.9559 1730.21 20.9439 1726.91 20.9439C1722.88 20.9439 1720.22 18.0879 1720.22 13.7759ZM1741.98 20.9439C1737.95 20.9439 1735.18 18.0319 1735.18 13.7759C1735.18 9.49191 1737.89 6.52391 1741.87 6.52391C1745.76 6.52391 1748.31 9.21191 1748.31 13.2719V14.2519L1737.72 14.2799C1737.92 17.1639 1739.43 18.7599 1742.04 18.7599C1744.08 18.7599 1745.42 17.9199 1745.87 16.3519H1748.34C1747.66 19.2919 1745.37 20.9439 1741.98 20.9439ZM1741.87 8.73591C1739.57 8.73591 1738.12 10.1079 1737.78 12.5159H1745.68C1745.68 10.2479 1744.19 8.73591 1741.87 8.73591ZM1750.13 16.6319H1752.65C1752.65 18.0319 1753.71 18.8719 1755.45 18.8719C1757.3 18.8719 1758.36 18.1159 1758.36 16.8559C1758.36 15.9319 1757.91 15.3719 1756.48 15.0079L1754.08 14.4479C1751.64 13.8599 1750.49 12.6559 1750.49 10.6399C1750.49 8.11991 1752.62 6.52391 1755.64 6.52391C1758.64 6.52391 1760.6 8.20391 1760.66 10.8079H1758.14C1758.08 9.43591 1757.16 8.56791 1755.56 8.56791C1753.91 8.56791 1752.98 9.29591 1752.98 10.5559C1752.98 11.4799 1753.66 12.0959 1755 12.4319L1757.41 13.0199C1759.73 13.5799 1760.88 14.6439 1760.88 16.6879C1760.88 19.2919 1758.64 20.9439 1755.39 20.9439C1752.17 20.9439 1750.13 19.2359 1750.13 16.6319ZM1765.59 20.9439C1764.5 20.9439 1763.58 20.0479 1763.58 18.9839C1763.58 17.8919 1764.5 16.9959 1765.59 16.9959C1766.66 16.9959 1767.58 17.8919 1767.58 18.9839C1767.58 20.0479 1766.66 20.9439 1765.59 20.9439Z" fill="black"/>
</svg>
