<svg width="1662" height="28" viewBox="0 0 1662 28" fill="none" xmlns="http://www.w3.org/2000/svg">
<path d="M2.74444 0.363909V20.6079H0.000437677V0.363909H2.74444ZM6.12128 13.7759C6.12128 9.49191 8.83728 6.52391 12.8413 6.52391C16.2853 6.52391 18.6933 8.48391 19.1693 11.5359H16.5373C16.0893 9.79991 14.6893 8.87591 12.9253 8.87591C10.4333 8.87591 8.72528 10.7799 8.72528 13.7479C8.72528 16.6879 10.3213 18.5919 12.8133 18.5919C14.6893 18.5919 16.0893 17.6119 16.5653 15.9879H19.1973C18.6653 18.9559 16.1173 20.9439 12.8133 20.9439C8.78128 20.9439 6.12128 18.0879 6.12128 13.7759ZM21.0783 13.7479C21.0783 9.51991 24.1023 6.55191 28.2183 6.55191C32.3063 6.55191 35.3303 9.51991 35.3303 13.7479C35.3303 17.9759 32.3063 20.9439 28.2183 20.9439C24.1023 20.9439 21.0783 17.9759 21.0783 13.7479ZM23.7383 13.7479C23.7383 16.6039 25.5583 18.5919 28.2183 18.5919C30.8503 18.5919 32.6983 16.6039 32.6983 13.7479C32.6983 10.8919 30.8503 8.90391 28.2183 8.90391C25.5583 8.90391 23.7383 10.8919 23.7383 13.7479ZM40.8758 20.6079H38.2438V6.91591H40.6238L40.9038 9.01591C41.7718 7.44791 43.5078 6.52391 45.4398 6.52391C49.0518 6.52391 50.7038 8.73591 50.7038 12.2359V20.6079H48.0718V12.8239C48.0718 10.0519 46.7838 8.93191 44.7678 8.93191C42.3038 8.93191 40.8758 10.6959 40.8758 13.3559V20.6079ZM53.0653 16.6319H55.5853C55.5853 18.0319 56.6493 18.8719 58.3853 18.8719C60.2333 18.8719 61.2973 18.1159 61.2973 16.8559C61.2973 15.9319 60.8493 15.3719 59.4213 15.0079L57.0133 14.4479C54.5773 13.8599 53.4293 12.6559 53.4293 10.6399C53.4293 8.11991 55.5573 6.52391 58.5813 6.52391C61.5773 6.52391 63.5373 8.20391 63.5933 10.8079H61.0733C61.0173 9.43591 60.0933 8.56791 58.4973 8.56791C56.8453 8.56791 55.9213 9.29591 55.9213 10.5559C55.9213 11.4799 56.5933 12.0959 57.9373 12.4319L60.3453 13.0199C62.6693 13.5799 63.8173 14.6439 63.8173 16.6879C63.8173 19.2919 61.5773 20.9439 58.3293 20.9439C55.1093 20.9439 53.0653 19.2359 53.0653 16.6319ZM72.9363 6.91591H74.9523V4.73191C74.9523 1.37191 76.8003 -9.15527e-05 79.2923 -9.15527e-05C79.7963 -9.15527e-05 80.3843 0.0279098 80.9163 0.111909V2.37991H79.7403C78.0323 2.37991 77.5843 3.24791 77.5843 4.73191V6.91591H80.8323V9.12791H77.5843V20.6079H74.9523V9.12791H72.9363V6.91591ZM81.9728 13.7479C81.9728 9.51991 84.9968 6.55191 89.1128 6.55191C93.2008 6.55191 96.2248 9.51991 96.2248 13.7479C96.2248 17.9759 93.2008 20.9439 89.1128 20.9439C84.9968 20.9439 81.9728 17.9759 81.9728 13.7479ZM84.6328 13.7479C84.6328 16.6039 86.4528 18.5919 89.1128 18.5919C91.7448 18.5919 93.5928 16.6039 93.5928 13.7479C93.5928 10.8919 91.7448 8.90391 89.1128 8.90391C86.4528 8.90391 84.6328 10.8919 84.6328 13.7479ZM106.978 6.80391V9.21191H105.802C103.31 9.21191 101.77 10.7239 101.77 13.3559V20.6079H99.1384V6.94391H101.602L101.77 9.01591C102.33 7.58791 103.702 6.63591 105.578 6.63591C106.054 6.63591 106.446 6.69191 106.978 6.80391ZM117.103 26.7399V6.91591H119.483L119.679 9.37991C120.603 7.50391 122.451 6.52391 124.635 6.52391C128.555 6.52391 130.991 9.46391 130.991 13.6639C130.991 17.8359 128.695 20.9719 124.635 20.9719C122.451 20.9719 120.631 20.0479 119.735 18.3679V26.7399H117.103ZM119.763 13.7759C119.763 16.5759 121.387 18.5919 124.075 18.5919C126.763 18.5919 128.359 16.5759 128.359 13.7759C128.359 10.9479 126.763 8.93191 124.075 8.93191C121.387 8.93191 119.763 10.9199 119.763 13.7759ZM141.732 6.80391V9.21191H140.556C138.064 9.21191 136.524 10.7239 136.524 13.3559V20.6079H133.892V6.94391H136.356L136.524 9.01591C137.084 7.58791 138.456 6.63591 140.332 6.63591C140.808 6.63591 141.2 6.69191 141.732 6.80391ZM142.813 13.7479C142.813 9.51991 145.837 6.55191 149.953 6.55191C154.041 6.55191 157.065 9.51991 157.065 13.7479C157.065 17.9759 154.041 20.9439 149.953 20.9439C145.837 20.9439 142.813 17.9759 142.813 13.7479ZM145.473 13.7479C145.473 16.6039 147.293 18.5919 149.953 18.5919C152.585 18.5919 154.433 16.6039 154.433 13.7479C154.433 10.8919 152.585 8.90391 149.953 8.90391C147.293 8.90391 145.473 10.8919 145.473 13.7479ZM169.164 20.6079V9.12791H163.088V20.6079H160.456V9.12791H158.44V6.91591H160.456V4.73191C160.456 1.37191 162.276 -9.15527e-05 164.656 -9.15527e-05C165.16 -9.15527e-05 165.776 0.0279098 166.28 0.111909V2.37991H165.104C163.508 2.37991 163.088 3.24791 163.088 4.73191V6.91591H171.796V20.6079H169.164ZM170.48 3.55591C169.528 3.55591 168.8 2.82791 168.8 1.87591C168.8 0.92391 169.528 0.195909 170.48 0.195909C171.404 0.195909 172.132 0.92391 172.132 1.87591C172.132 2.82791 171.404 3.55591 170.48 3.55591ZM178.225 20.6079H175.593V-9.15527e-05H178.225V20.6079ZM188.007 20.9439C183.975 20.9439 181.203 18.0319 181.203 13.7759C181.203 9.49191 183.919 6.52391 187.895 6.52391C191.787 6.52391 194.335 9.21191 194.335 13.2719V14.2519L183.751 14.2799C183.947 17.1639 185.459 18.7599 188.063 18.7599C190.107 18.7599 191.451 17.9199 191.899 16.3519H194.363C193.691 19.2919 191.395 20.9439 188.007 20.9439ZM187.895 8.73591C185.599 8.73591 184.143 10.1079 183.807 12.5159H191.703C191.703 10.2479 190.219 8.73591 187.895 8.73591ZM196.155 16.6319H198.675C198.675 18.0319 199.739 18.8719 201.475 18.8719C203.323 18.8719 204.387 18.1159 204.387 16.8559C204.387 15.9319 203.939 15.3719 202.511 15.0079L200.103 14.4479C197.667 13.8599 196.519 12.6559 196.519 10.6399C196.519 8.11991 198.647 6.52391 201.671 6.52391C204.667 6.52391 206.627 8.20391 206.683 10.8079H204.163C204.107 9.43591 203.183 8.56791 201.587 8.56791C199.935 8.56791 199.011 9.29591 199.011 10.5559C199.011 11.4799 199.683 12.0959 201.027 12.4319L203.435 13.0199C205.759 13.5799 206.907 14.6439 206.907 16.6879C206.907 19.2919 204.667 20.9439 201.419 20.9439C198.199 20.9439 196.155 19.2359 196.155 16.6319ZM213.61 19.5159C213.61 21.5319 212.098 23.2119 210.11 23.4639V22.2879C211.258 22.0919 212.07 21.3359 212.07 20.4679C211.874 20.5799 211.65 20.6359 211.314 20.6359C210.39 20.6359 209.606 19.9639 209.606 18.9279C209.606 17.8079 210.362 16.9959 211.482 16.9959C212.658 16.9959 213.61 17.9759 213.61 19.5159ZM228.92 20.6079H226.288V9.12791H223.6V6.91591H226.288V2.63191H228.92V6.91591H231.608V9.12791H228.92V20.6079ZM239.742 20.9439C235.71 20.9439 232.938 18.0319 232.938 13.7759C232.938 9.49191 235.654 6.52391 239.63 6.52391C243.522 6.52391 246.07 9.21191 246.07 13.2719V14.2519L235.486 14.2799C235.682 17.1639 237.194 18.7599 239.798 18.7599C241.842 18.7599 243.186 17.9199 243.634 16.3519H246.098C245.426 19.2919 243.13 20.9439 239.742 20.9439ZM239.63 8.73591C237.334 8.73591 235.878 10.1079 235.542 12.5159H243.438C243.438 10.2479 241.954 8.73591 239.63 8.73591ZM252.877 20.9439C249.937 20.9439 248.201 19.2919 248.201 16.7999C248.201 14.2799 250.077 12.7119 253.297 12.4599L257.609 12.1239V11.7319C257.609 9.43591 256.237 8.62391 254.389 8.62391C252.177 8.62391 250.917 9.60391 250.917 11.2559H248.621C248.621 8.39991 250.973 6.52391 254.501 6.52391C257.889 6.52391 260.185 8.31591 260.185 12.0119V20.6079H257.945L257.665 18.3959C256.965 19.9639 255.089 20.9439 252.877 20.9439ZM253.633 18.8999C256.125 18.8999 257.637 17.2759 257.637 14.6999V13.9719L254.137 14.2519C251.813 14.4759 250.861 15.3719 250.861 16.7159C250.861 18.1719 251.925 18.8999 253.633 18.8999ZM266.462 20.6079H263.83V6.91591H266.182L266.434 8.70791C267.134 7.41991 268.59 6.52391 270.522 6.52391C272.65 6.52391 274.162 7.58791 274.862 9.29591C275.506 7.58791 277.158 6.52391 279.286 6.52391C282.422 6.52391 284.326 8.48391 284.326 11.6479V20.6079H281.75V12.2919C281.75 10.1359 280.546 8.90391 278.698 8.90391C276.71 8.90391 275.394 10.3039 275.394 12.4879V20.6079H272.79V12.2639C272.79 10.1079 271.614 8.93191 269.766 8.93191C267.778 8.93191 266.462 10.3039 266.462 12.4879V20.6079ZM286.69 16.6319H289.21C289.21 18.0319 290.274 18.8719 292.01 18.8719C293.858 18.8719 294.922 18.1159 294.922 16.8559C294.922 15.9319 294.474 15.3719 293.046 15.0079L290.638 14.4479C288.202 13.8599 287.054 12.6559 287.054 10.6399C287.054 8.11991 289.182 6.52391 292.206 6.52391C295.202 6.52391 297.162 8.20391 297.218 10.8079H294.698C294.642 9.43591 293.718 8.56791 292.122 8.56791C290.47 8.56791 289.546 9.29591 289.546 10.5559C289.546 11.4799 290.218 12.0959 291.562 12.4319L293.97 13.0199C296.294 13.5799 297.442 14.6439 297.442 16.6879C297.442 19.2919 295.202 20.9439 291.954 20.9439C288.734 20.9439 286.69 19.2359 286.69 16.6319ZM304.145 19.5159C304.145 21.5319 302.633 23.2119 300.645 23.4639V22.2879C301.793 22.0919 302.605 21.3359 302.605 20.4679C302.409 20.5799 302.185 20.6359 301.849 20.6359C300.925 20.6359 300.141 19.9639 300.141 18.9279C300.141 17.8079 300.897 16.9959 302.017 16.9959C303.193 16.9959 304.145 17.9759 304.145 19.5159ZM319.596 20.9439C316.656 20.9439 314.92 19.2919 314.92 16.7999C314.92 14.2799 316.796 12.7119 320.016 12.4599L324.328 12.1239V11.7319C324.328 9.43591 322.956 8.62391 321.108 8.62391C318.896 8.62391 317.636 9.60391 317.636 11.2559H315.34C315.34 8.39991 317.692 6.52391 321.22 6.52391C324.608 6.52391 326.904 8.31591 326.904 12.0119V20.6079H324.664L324.384 18.3959C323.684 19.9639 321.808 20.9439 319.596 20.9439ZM320.352 18.8999C322.844 18.8999 324.356 17.2759 324.356 14.6999V13.9719L320.856 14.2519C318.532 14.4759 317.58 15.3719 317.58 16.7159C317.58 18.1719 318.644 18.8999 320.352 18.8999ZM329.653 13.7759C329.653 9.49191 332.369 6.52391 336.373 6.52391C339.817 6.52391 342.225 8.48391 342.701 11.5359H340.069C339.621 9.79991 338.221 8.87591 336.457 8.87591C333.965 8.87591 332.257 10.7799 332.257 13.7479C332.257 16.6879 333.853 18.5919 336.345 18.5919C338.221 18.5919 339.621 17.6119 340.097 15.9879H342.729C342.197 18.9559 339.649 20.9439 336.345 20.9439C332.313 20.9439 329.653 18.0879 329.653 13.7759ZM344.61 13.7759C344.61 9.49191 347.326 6.52391 351.33 6.52391C354.774 6.52391 357.182 8.48391 357.658 11.5359H355.026C354.578 9.79991 353.178 8.87591 351.414 8.87591C348.922 8.87591 347.214 10.7799 347.214 13.7479C347.214 16.6879 348.81 18.5919 351.302 18.5919C353.178 18.5919 354.578 17.6119 355.054 15.9879H357.686C357.154 18.9559 354.606 20.9439 351.302 20.9439C347.27 20.9439 344.61 18.0879 344.61 13.7759ZM359.567 13.7479C359.567 9.51991 362.591 6.55191 366.707 6.55191C370.795 6.55191 373.819 9.51991 373.819 13.7479C373.819 17.9759 370.795 20.9439 366.707 20.9439C362.591 20.9439 359.567 17.9759 359.567 13.7479ZM362.227 13.7479C362.227 16.6039 364.047 18.5919 366.707 18.5919C369.339 18.5919 371.187 16.6039 371.187 13.7479C371.187 10.8919 369.339 8.90391 366.707 8.90391C364.047 8.90391 362.227 10.8919 362.227 13.7479ZM385.868 6.91591H388.472V20.6079H386.12L385.84 18.5359C385.056 19.9639 383.236 20.9439 381.22 20.9439C378.028 20.9439 376.236 18.7879 376.236 15.4279V6.91591H378.868V14.5599C378.868 17.4999 380.128 18.6199 382.144 18.6199C384.552 18.6199 385.868 17.0799 385.868 14.1399V6.91591ZM394.923 20.6079H392.291V6.91591H394.671L394.951 9.01591C395.819 7.44791 397.555 6.52391 399.487 6.52391C403.099 6.52391 404.751 8.73591 404.751 12.2359V20.6079H402.119V12.8239C402.119 10.0519 400.831 8.93191 398.815 8.93191C396.351 8.93191 394.923 10.6959 394.923 13.3559V20.6079ZM412.26 20.6079H409.628V9.12791H406.94V6.91591H409.628V2.63191H412.26V6.91591H414.948V9.12791H412.26V20.6079ZM416.19 16.6319H418.71C418.71 18.0319 419.774 18.8719 421.51 18.8719C423.358 18.8719 424.422 18.1159 424.422 16.8559C424.422 15.9319 423.974 15.3719 422.546 15.0079L420.138 14.4479C417.702 13.8599 416.554 12.6559 416.554 10.6399C416.554 8.11991 418.682 6.52391 421.706 6.52391C424.702 6.52391 426.662 8.20391 426.718 10.8079H424.198C424.142 9.43591 423.218 8.56791 421.622 8.56791C419.97 8.56791 419.046 9.29591 419.046 10.5559C419.046 11.4799 419.718 12.0959 421.062 12.4319L423.47 13.0199C425.794 13.5799 426.942 14.6439 426.942 16.6879C426.942 19.2919 424.702 20.9439 421.454 20.9439C418.234 20.9439 416.19 19.2359 416.19 16.6319ZM433.645 19.5159C433.645 21.5319 432.133 23.2119 430.145 23.4639V22.2879C431.293 22.0919 432.105 21.3359 432.105 20.4679C431.909 20.5799 431.685 20.6359 431.349 20.6359C430.425 20.6359 429.641 19.9639 429.641 18.9279C429.641 17.8079 430.397 16.9959 431.517 16.9959C432.693 16.9959 433.645 17.9759 433.645 19.5159ZM452.932 6.80391V9.21191H451.756C449.264 9.21191 447.724 10.7239 447.724 13.3559V20.6079H445.092V6.94391H447.556L447.724 9.01591C448.284 7.58791 449.656 6.63591 451.532 6.63591C452.008 6.63591 452.4 6.69191 452.932 6.80391ZM454.012 13.7479C454.012 9.51991 457.036 6.55191 461.152 6.55191C465.24 6.55191 468.264 9.51991 468.264 13.7479C468.264 17.9759 465.24 20.9439 461.152 20.9439C457.036 20.9439 454.012 17.9759 454.012 13.7479ZM456.672 13.7479C456.672 16.6039 458.492 18.5919 461.152 18.5919C463.784 18.5919 465.632 16.6039 465.632 13.7479C465.632 10.8919 463.784 8.90391 461.152 8.90391C458.492 8.90391 456.672 10.8919 456.672 13.7479ZM473.865 20.6079H471.233V-9.15527e-05H473.865V20.6079ZM483.648 20.9439C479.616 20.9439 476.844 18.0319 476.844 13.7759C476.844 9.49191 479.56 6.52391 483.536 6.52391C487.428 6.52391 489.976 9.21191 489.976 13.2719V14.2519L479.392 14.2799C479.588 17.1639 481.1 18.7599 483.704 18.7599C485.748 18.7599 487.092 17.9199 487.54 16.3519H490.004C489.332 19.2919 487.036 20.9439 483.648 20.9439ZM483.536 8.73591C481.24 8.73591 479.784 10.1079 479.448 12.5159H487.344C487.344 10.2479 485.86 8.73591 483.536 8.73591ZM491.796 16.6319H494.316C494.316 18.0319 495.38 18.8719 497.116 18.8719C498.964 18.8719 500.028 18.1159 500.028 16.8559C500.028 15.9319 499.58 15.3719 498.152 15.0079L495.744 14.4479C493.308 13.8599 492.16 12.6559 492.16 10.6399C492.16 8.11991 494.288 6.52391 497.312 6.52391C500.308 6.52391 502.268 8.20391 502.324 10.8079H499.804C499.748 9.43591 498.824 8.56791 497.228 8.56791C495.576 8.56791 494.652 9.29591 494.652 10.5559C494.652 11.4799 495.324 12.0959 496.668 12.4319L499.076 13.0199C501.4 13.5799 502.548 14.6439 502.548 16.6879C502.548 19.2919 500.308 20.9439 497.06 20.9439C493.84 20.9439 491.796 19.2359 491.796 16.6319ZM509.25 19.5159C509.25 21.5319 507.738 23.2119 505.75 23.4639V22.2879C506.898 22.0919 507.71 21.3359 507.71 20.4679C507.514 20.5799 507.29 20.6359 506.954 20.6359C506.03 20.6359 505.246 19.9639 505.246 18.9279C505.246 17.8079 506.002 16.9959 507.122 16.9959C508.298 16.9959 509.25 17.9759 509.25 19.5159ZM524.701 20.9439C521.761 20.9439 520.025 19.2919 520.025 16.7999C520.025 14.2799 521.901 12.7119 525.121 12.4599L529.433 12.1239V11.7319C529.433 9.43591 528.061 8.62391 526.213 8.62391C524.001 8.62391 522.741 9.60391 522.741 11.2559H520.445C520.445 8.39991 522.797 6.52391 526.325 6.52391C529.713 6.52391 532.009 8.31591 532.009 12.0119V20.6079H529.769L529.489 18.3959C528.789 19.9639 526.913 20.9439 524.701 20.9439ZM525.457 18.8999C527.949 18.8999 529.461 17.2759 529.461 14.6999V13.9719L525.961 14.2519C523.637 14.4759 522.685 15.3719 522.685 16.7159C522.685 18.1719 523.749 18.8999 525.457 18.8999ZM538.286 20.6079H535.654V6.91591H538.034L538.314 9.01591C539.182 7.44791 540.918 6.52391 542.85 6.52391C546.462 6.52391 548.114 8.73591 548.114 12.2359V20.6079H545.482V12.8239C545.482 10.0519 544.194 8.93191 542.178 8.93191C539.714 8.93191 538.286 10.6959 538.286 13.3559V20.6079ZM557.247 20.9439C553.271 20.9439 550.863 17.9759 550.863 13.8039C550.863 9.60391 553.299 6.52391 557.359 6.52391C559.459 6.52391 561.223 7.44791 562.147 9.12791V-9.15527e-05H564.751V20.6079H562.399L562.175 18.1159C561.279 19.9919 559.431 20.9439 557.247 20.9439ZM557.779 18.5639C560.467 18.5639 562.119 16.5759 562.119 13.7199C562.119 10.9199 560.467 8.90391 557.779 8.90391C555.091 8.90391 553.523 10.9199 553.523 13.7199C553.523 16.5479 555.091 18.5639 557.779 18.5639ZM585.669 6.91591H588.273V20.6079H585.921L585.641 18.5359C584.857 19.9639 583.037 20.9439 581.021 20.9439C577.829 20.9439 576.037 18.7879 576.037 15.4279V6.91591H578.669V14.5599C578.669 17.4999 579.929 18.6199 581.945 18.6199C584.353 18.6199 585.669 17.0799 585.669 14.1399V6.91591ZM590.698 16.6319H593.218C593.218 18.0319 594.282 18.8719 596.018 18.8719C597.866 18.8719 598.93 18.1159 598.93 16.8559C598.93 15.9319 598.482 15.3719 597.054 15.0079L594.646 14.4479C592.21 13.8599 591.062 12.6559 591.062 10.6399C591.062 8.11991 593.19 6.52391 596.214 6.52391C599.21 6.52391 601.17 8.20391 601.226 10.8079H598.706C598.65 9.43591 597.726 8.56791 596.13 8.56791C594.478 8.56791 593.554 9.29591 593.554 10.5559C593.554 11.4799 594.226 12.0959 595.57 12.4319L597.978 13.0199C600.302 13.5799 601.45 14.6439 601.45 16.6879C601.45 19.2919 599.21 20.9439 595.962 20.9439C592.742 20.9439 590.698 19.2359 590.698 16.6319ZM610.277 20.9439C606.245 20.9439 603.473 18.0319 603.473 13.7759C603.473 9.49191 606.189 6.52391 610.165 6.52391C614.057 6.52391 616.605 9.21191 616.605 13.2719V14.2519L606.021 14.2799C606.217 17.1639 607.729 18.7599 610.333 18.7599C612.377 18.7599 613.721 17.9199 614.169 16.3519H616.633C615.961 19.2919 613.665 20.9439 610.277 20.9439ZM610.165 8.73591C607.869 8.73591 606.413 10.1079 606.077 12.5159H613.973C613.973 10.2479 612.489 8.73591 610.165 8.73591ZM627.385 6.80391V9.21191H626.209C623.717 9.21191 622.177 10.7239 622.177 13.3559V20.6079H619.545V6.94391H622.009L622.177 9.01591C622.737 7.58791 624.109 6.63591 625.985 6.63591C626.461 6.63591 626.853 6.69191 627.385 6.80391ZM636.389 16.6319H638.909C638.909 18.0319 639.973 18.8719 641.709 18.8719C643.557 18.8719 644.621 18.1159 644.621 16.8559C644.621 15.9319 644.173 15.3719 642.745 15.0079L640.337 14.4479C637.901 13.8599 636.753 12.6559 636.753 10.6399C636.753 8.11991 638.881 6.52391 641.905 6.52391C644.901 6.52391 646.861 8.20391 646.917 10.8079H644.397C644.341 9.43591 643.417 8.56791 641.821 8.56791C640.169 8.56791 639.245 9.29591 639.245 10.5559C639.245 11.4799 639.917 12.0959 641.261 12.4319L643.669 13.0199C645.993 13.5799 647.141 14.6439 647.141 16.6879C647.141 19.2919 644.901 20.9439 641.653 20.9439C638.433 20.9439 636.389 19.2359 636.389 16.6319ZM653.924 20.6079H651.292V9.12791H648.604V6.91591H651.292V2.63191H653.924V6.91591H656.612V9.12791H653.924V20.6079ZM662.814 20.9439C659.874 20.9439 658.138 19.2919 658.138 16.7999C658.138 14.2799 660.014 12.7119 663.234 12.4599L667.546 12.1239V11.7319C667.546 9.43591 666.174 8.62391 664.326 8.62391C662.114 8.62391 660.854 9.60391 660.854 11.2559H658.558C658.558 8.39991 660.91 6.52391 664.438 6.52391C667.826 6.52391 670.122 8.31591 670.122 12.0119V20.6079H667.882L667.602 18.3959C666.902 19.9639 665.026 20.9439 662.814 20.9439ZM663.57 18.8999C666.062 18.8999 667.574 17.2759 667.574 14.6999V13.9719L664.074 14.2519C661.75 14.4759 660.798 15.3719 660.798 16.7159C660.798 18.1719 661.862 18.8999 663.57 18.8999ZM677.413 20.6079H674.781V9.12791H672.093V6.91591H674.781V2.63191H677.413V6.91591H680.101V9.12791H677.413V20.6079ZM688.234 20.9439C684.202 20.9439 681.43 18.0319 681.43 13.7759C681.43 9.49191 684.146 6.52391 688.122 6.52391C692.014 6.52391 694.562 9.21191 694.562 13.2719V14.2519L683.978 14.2799C684.174 17.1639 685.686 18.7599 688.29 18.7599C690.334 18.7599 691.678 17.9199 692.126 16.3519H694.59C693.918 19.2919 691.622 20.9439 688.234 20.9439ZM688.122 8.73591C685.826 8.73591 684.37 10.1079 684.034 12.5159H691.93C691.93 10.2479 690.446 8.73591 688.122 8.73591ZM696.382 16.6319H698.902C698.902 18.0319 699.966 18.8719 701.702 18.8719C703.55 18.8719 704.614 18.1159 704.614 16.8559C704.614 15.9319 704.166 15.3719 702.738 15.0079L700.33 14.4479C697.894 13.8599 696.746 12.6559 696.746 10.6399C696.746 8.11991 698.874 6.52391 701.898 6.52391C704.894 6.52391 706.854 8.20391 706.91 10.8079H704.39C704.334 9.43591 703.41 8.56791 701.814 8.56791C700.162 8.56791 699.238 9.29591 699.238 10.5559C699.238 11.4799 699.91 12.0959 701.254 12.4319L703.662 13.0199C705.986 13.5799 707.134 14.6439 707.134 16.6879C707.134 19.2919 704.894 20.9439 701.646 20.9439C698.426 20.9439 696.382 19.2359 696.382 16.6319ZM727.173 6.91591H729.777V20.6079H727.425L727.145 18.5359C726.361 19.9639 724.541 20.9439 722.525 20.9439C719.333 20.9439 717.541 18.7879 717.541 15.4279V6.91591H720.173V14.5599C720.173 17.4999 721.433 18.6199 723.449 18.6199C725.857 18.6199 727.173 17.0799 727.173 14.1399V6.91591ZM732.202 16.6319H734.722C734.722 18.0319 735.786 18.8719 737.522 18.8719C739.37 18.8719 740.434 18.1159 740.434 16.8559C740.434 15.9319 739.986 15.3719 738.558 15.0079L736.15 14.4479C733.714 13.8599 732.566 12.6559 732.566 10.6399C732.566 8.11991 734.694 6.52391 737.718 6.52391C740.714 6.52391 742.674 8.20391 742.73 10.8079H740.21C740.154 9.43591 739.23 8.56791 737.634 8.56791C735.982 8.56791 735.058 9.29591 735.058 10.5559C735.058 11.4799 735.73 12.0959 737.074 12.4319L739.482 13.0199C741.806 13.5799 742.954 14.6439 742.954 16.6879C742.954 19.2919 740.714 20.9439 737.466 20.9439C734.246 20.9439 732.202 19.2359 732.202 16.6319ZM751.781 20.9439C747.749 20.9439 744.977 18.0319 744.977 13.7759C744.977 9.49191 747.693 6.52391 751.669 6.52391C755.561 6.52391 758.109 9.21191 758.109 13.2719V14.2519L747.525 14.2799C747.721 17.1639 749.233 18.7599 751.837 18.7599C753.881 18.7599 755.225 17.9199 755.673 16.3519H758.137C757.465 19.2919 755.169 20.9439 751.781 20.9439ZM751.669 8.73591C749.373 8.73591 747.917 10.1079 747.581 12.5159H755.477C755.477 10.2479 753.993 8.73591 751.669 8.73591ZM766.537 20.9439C762.561 20.9439 760.153 17.9759 760.153 13.8039C760.153 9.60391 762.589 6.52391 766.649 6.52391C768.749 6.52391 770.513 7.44791 771.437 9.12791V-9.15527e-05H774.041V20.6079H771.689L771.465 18.1159C770.569 19.9919 768.721 20.9439 766.537 20.9439ZM767.069 18.5639C769.757 18.5639 771.409 16.5759 771.409 13.7199C771.409 10.9199 769.757 8.90391 767.069 8.90391C764.381 8.90391 762.813 10.9199 762.813 13.7199C762.813 16.5479 764.381 18.5639 767.069 18.5639ZM789.498 20.9439C786.558 20.9439 784.822 19.2919 784.822 16.7999C784.822 14.2799 786.698 12.7119 789.918 12.4599L794.23 12.1239V11.7319C794.23 9.43591 792.858 8.62391 791.01 8.62391C788.798 8.62391 787.538 9.60391 787.538 11.2559H785.242C785.242 8.39991 787.594 6.52391 791.122 6.52391C794.51 6.52391 796.806 8.31591 796.806 12.0119V20.6079H794.566L794.286 18.3959C793.586 19.9639 791.71 20.9439 789.498 20.9439ZM790.254 18.8999C792.746 18.8999 794.258 17.2759 794.258 14.6999V13.9719L790.758 14.2519C788.434 14.4759 787.482 15.3719 787.482 16.7159C787.482 18.1719 788.546 18.8999 790.254 18.8999ZM799.555 13.7759C799.555 9.49191 802.271 6.52391 806.275 6.52391C809.719 6.52391 812.127 8.48391 812.603 11.5359H809.971C809.523 9.79991 808.123 8.87591 806.359 8.87591C803.867 8.87591 802.159 10.7799 802.159 13.7479C802.159 16.6879 803.755 18.5919 806.247 18.5919C808.123 18.5919 809.523 17.6119 809.999 15.9879H812.631C812.099 18.9559 809.551 20.9439 806.247 20.9439C802.215 20.9439 799.555 18.0879 799.555 13.7759ZM823.248 6.80391V9.21191H822.072C819.58 9.21191 818.04 10.7239 818.04 13.3559V20.6079H815.408V6.94391H817.872L818.04 9.01591C818.6 7.58791 819.972 6.63591 821.848 6.63591C822.324 6.63591 822.716 6.69191 823.248 6.80391ZM824.328 13.7479C824.328 9.51991 827.352 6.55191 831.468 6.55191C835.556 6.55191 838.58 9.51991 838.58 13.7479C838.58 17.9759 835.556 20.9439 831.468 20.9439C827.352 20.9439 824.328 17.9759 824.328 13.7479ZM826.988 13.7479C826.988 16.6039 828.808 18.5919 831.468 18.5919C834.1 18.5919 835.948 16.6039 835.948 13.7479C835.948 10.8919 834.1 8.90391 831.468 8.90391C828.808 8.90391 826.988 10.8919 826.988 13.7479ZM840.374 16.6319H842.894C842.894 18.0319 843.958 18.8719 845.694 18.8719C847.542 18.8719 848.606 18.1159 848.606 16.8559C848.606 15.9319 848.158 15.3719 846.73 15.0079L844.322 14.4479C841.886 13.8599 840.738 12.6559 840.738 10.6399C840.738 8.11991 842.866 6.52391 845.89 6.52391C848.886 6.52391 850.846 8.20391 850.902 10.8079H848.382C848.326 9.43591 847.402 8.56791 845.806 8.56791C844.154 8.56791 843.23 9.29591 843.23 10.5559C843.23 11.4799 843.902 12.0959 845.246 12.4319L847.654 13.0199C849.978 13.5799 851.126 14.6439 851.126 16.6879C851.126 19.2919 848.886 20.9439 845.638 20.9439C842.418 20.9439 840.374 19.2359 840.374 16.6319ZM852.925 16.6319H855.445C855.445 18.0319 856.509 18.8719 858.245 18.8719C860.093 18.8719 861.157 18.1159 861.157 16.8559C861.157 15.9319 860.709 15.3719 859.281 15.0079L856.873 14.4479C854.437 13.8599 853.289 12.6559 853.289 10.6399C853.289 8.11991 855.417 6.52391 858.441 6.52391C861.437 6.52391 863.397 8.20391 863.453 10.8079H860.933C860.877 9.43591 859.953 8.56791 858.357 8.56791C856.705 8.56791 855.781 9.29591 855.781 10.5559C855.781 11.4799 856.453 12.0959 857.797 12.4319L860.205 13.0199C862.529 13.5799 863.677 14.6439 863.677 16.6879C863.677 19.2919 861.437 20.9439 858.189 20.9439C854.969 20.9439 852.925 19.2359 852.925 16.6319ZM879.74 20.9439C875.764 20.9439 873.356 17.9759 873.356 13.8039C873.356 9.60391 875.792 6.52391 879.852 6.52391C881.952 6.52391 883.716 7.44791 884.64 9.12791V-9.15527e-05H887.244V20.6079H884.892L884.668 18.1159C883.772 19.9919 881.924 20.9439 879.74 20.9439ZM880.272 18.5639C882.96 18.5639 884.612 16.5759 884.612 13.7199C884.612 10.9199 882.96 8.90391 880.272 8.90391C877.584 8.90391 876.016 10.9199 876.016 13.7199C876.016 16.5479 877.584 18.5639 880.272 18.5639ZM895.045 20.9439C892.105 20.9439 890.369 19.2919 890.369 16.7999C890.369 14.2799 892.245 12.7119 895.465 12.4599L899.777 12.1239V11.7319C899.777 9.43591 898.405 8.62391 896.557 8.62391C894.345 8.62391 893.085 9.60391 893.085 11.2559H890.789C890.789 8.39991 893.141 6.52391 896.669 6.52391C900.057 6.52391 902.353 8.31591 902.353 12.0119V20.6079H900.113L899.833 18.3959C899.133 19.9639 897.257 20.9439 895.045 20.9439ZM895.801 18.8999C898.293 18.8999 899.805 17.2759 899.805 14.6999V13.9719L896.305 14.2519C893.981 14.4759 893.029 15.3719 893.029 16.7159C893.029 18.1719 894.093 18.8999 895.801 18.8999ZM904.878 16.6319H907.398C907.398 18.0319 908.462 18.8719 910.198 18.8719C912.046 18.8719 913.11 18.1159 913.11 16.8559C913.11 15.9319 912.662 15.3719 911.234 15.0079L908.826 14.4479C906.39 13.8599 905.242 12.6559 905.242 10.6399C905.242 8.11991 907.37 6.52391 910.394 6.52391C913.39 6.52391 915.35 8.20391 915.406 10.8079H912.886C912.83 9.43591 911.906 8.56791 910.31 8.56791C908.658 8.56791 907.734 9.29591 907.734 10.5559C907.734 11.4799 908.406 12.0959 909.75 12.4319L912.158 13.0199C914.482 13.5799 915.63 14.6439 915.63 16.6879C915.63 19.2919 913.39 20.9439 910.142 20.9439C906.922 20.9439 904.878 19.2359 904.878 16.6319ZM921.181 20.5799H918.549V-9.15527e-05H921.181V9.01591C922.049 7.53191 923.701 6.52391 925.829 6.52391C929.329 6.52391 931.009 8.73591 931.009 12.2359V20.6079H928.377V12.8239C928.377 10.0519 927.061 8.93191 925.101 8.93191C922.553 8.93191 921.181 10.7799 921.181 13.1319V20.5799ZM937.034 20.6079H934.654V-9.15527e-05H937.286V9.26791C938.182 7.47591 940.03 6.52391 942.27 6.52391C946.19 6.52391 948.542 9.60391 948.542 13.8319C948.542 17.9759 946.078 20.9439 942.102 20.9439C939.946 20.9439 938.126 19.9919 937.23 18.1159L937.034 20.6079ZM937.314 13.7199C937.314 16.5759 938.938 18.5639 941.626 18.5639C944.314 18.5639 945.91 16.5479 945.91 13.7199C945.91 10.9199 944.314 8.90391 941.626 8.90391C938.938 8.90391 937.314 10.9199 937.314 13.7199ZM950.547 13.7479C950.547 9.51991 953.571 6.55191 957.687 6.55191C961.775 6.55191 964.799 9.51991 964.799 13.7479C964.799 17.9759 961.775 20.9439 957.687 20.9439C953.571 20.9439 950.547 17.9759 950.547 13.7479ZM953.207 13.7479C953.207 16.6039 955.027 18.5919 957.687 18.5919C960.319 18.5919 962.167 16.6039 962.167 13.7479C962.167 10.8919 960.319 8.90391 957.687 8.90391C955.027 8.90391 953.207 10.8919 953.207 13.7479ZM971.717 20.9439C968.777 20.9439 967.041 19.2919 967.041 16.7999C967.041 14.2799 968.917 12.7119 972.137 12.4599L976.449 12.1239V11.7319C976.449 9.43591 975.077 8.62391 973.229 8.62391C971.017 8.62391 969.757 9.60391 969.757 11.2559H967.461C967.461 8.39991 969.813 6.52391 973.341 6.52391C976.729 6.52391 979.025 8.31591 979.025 12.0119V20.6079H976.785L976.505 18.3959C975.805 19.9639 973.929 20.9439 971.717 20.9439ZM972.473 18.8999C974.965 18.8999 976.477 17.2759 976.477 14.6999V13.9719L972.977 14.2519C970.653 14.4759 969.701 15.3719 969.701 16.7159C969.701 18.1719 970.765 18.8999 972.473 18.8999ZM990.51 6.80391V9.21191H989.334C986.842 9.21191 985.302 10.7239 985.302 13.3559V20.6079H982.67V6.94391H985.134L985.302 9.01591C985.862 7.58791 987.234 6.63591 989.11 6.63591C989.586 6.63591 989.978 6.69191 990.51 6.80391ZM997.974 20.9439C993.998 20.9439 991.59 17.9759 991.59 13.8039C991.59 9.60391 994.026 6.52391 998.086 6.52391C1000.19 6.52391 1001.95 7.44791 1002.87 9.12791V-9.15527e-05H1005.48V20.6079H1003.13L1002.9 18.1159C1002.01 19.9919 1000.16 20.9439 997.974 20.9439ZM998.506 18.5639C1001.19 18.5639 1002.85 16.5759 1002.85 13.7199C1002.85 10.9199 1001.19 8.90391 998.506 8.90391C995.818 8.90391 994.25 10.9199 994.25 13.7199C994.25 16.5479 995.818 18.5639 998.506 18.5639ZM1008.16 16.6319H1010.68C1010.68 18.0319 1011.74 18.8719 1013.48 18.8719C1015.32 18.8719 1016.39 18.1159 1016.39 16.8559C1016.39 15.9319 1015.94 15.3719 1014.51 15.0079L1012.1 14.4479C1009.67 13.8599 1008.52 12.6559 1008.52 10.6399C1008.52 8.11991 1010.65 6.52391 1013.67 6.52391C1016.67 6.52391 1018.63 8.20391 1018.68 10.8079H1016.16C1016.11 9.43591 1015.18 8.56791 1013.59 8.56791C1011.94 8.56791 1011.01 9.29591 1011.01 10.5559C1011.01 11.4799 1011.68 12.0959 1013.03 12.4319L1015.44 13.0199C1017.76 13.5799 1018.91 14.6439 1018.91 16.6879C1018.91 19.2919 1016.67 20.9439 1013.42 20.9439C1010.2 20.9439 1008.16 19.2359 1008.16 16.6319ZM1025.61 19.5159C1025.61 21.5319 1024.1 23.2119 1022.11 23.4639V22.2879C1023.26 22.0919 1024.07 21.3359 1024.07 20.4679C1023.87 20.5799 1023.65 20.6359 1023.31 20.6359C1022.39 20.6359 1021.61 19.9639 1021.61 18.9279C1021.61 17.8079 1022.36 16.9959 1023.48 16.9959C1024.66 16.9959 1025.61 17.9759 1025.61 19.5159ZM1041.06 20.9439C1038.12 20.9439 1036.38 19.2919 1036.38 16.7999C1036.38 14.2799 1038.26 12.7119 1041.48 12.4599L1045.79 12.1239V11.7319C1045.79 9.43591 1044.42 8.62391 1042.57 8.62391C1040.36 8.62391 1039.1 9.60391 1039.1 11.2559H1036.8C1036.8 8.39991 1039.16 6.52391 1042.68 6.52391C1046.07 6.52391 1048.37 8.31591 1048.37 12.0119V20.6079H1046.13L1045.85 18.3959C1045.15 19.9639 1043.27 20.9439 1041.06 20.9439ZM1041.82 18.8999C1044.31 18.8999 1045.82 17.2759 1045.82 14.6999V13.9719L1042.32 14.2519C1040 14.4759 1039.04 15.3719 1039.04 16.7159C1039.04 18.1719 1040.11 18.8999 1041.82 18.8999ZM1061.48 6.91591H1064.08V20.6079H1061.73L1061.45 18.5359C1060.67 19.9639 1058.85 20.9439 1056.83 20.9439C1053.64 20.9439 1051.85 18.7879 1051.85 15.4279V6.91591H1054.48V14.5599C1054.48 17.4999 1055.74 18.6199 1057.75 18.6199C1060.16 18.6199 1061.48 17.0799 1061.48 14.1399V6.91591ZM1071.76 20.6079H1069.13V9.12791H1066.44V6.91591H1069.13V2.63191H1071.76V6.91591H1074.45V9.12791H1071.76V20.6079ZM1079.45 20.5799H1076.81V-9.15527e-05H1079.45V9.01591C1080.31 7.53191 1081.97 6.52391 1084.09 6.52391C1087.59 6.52391 1089.27 8.73591 1089.27 12.2359V20.6079H1086.64V12.8239C1086.64 10.0519 1085.33 8.93191 1083.37 8.93191C1080.82 8.93191 1079.45 10.7799 1079.45 13.1319V20.5799ZM1098.83 20.9439C1094.8 20.9439 1092.02 18.0319 1092.02 13.7759C1092.02 9.49191 1094.74 6.52391 1098.72 6.52391C1102.61 6.52391 1105.16 9.21191 1105.16 13.2719V14.2519L1094.57 14.2799C1094.77 17.1639 1096.28 18.7599 1098.88 18.7599C1100.93 18.7599 1102.27 17.9199 1102.72 16.3519H1105.18C1104.51 19.2919 1102.22 20.9439 1098.83 20.9439ZM1098.72 8.73591C1096.42 8.73591 1094.96 10.1079 1094.63 12.5159H1102.52C1102.52 10.2479 1101.04 8.73591 1098.72 8.73591ZM1110.73 20.6079H1108.1V6.91591H1110.48L1110.76 9.01591C1111.62 7.44791 1113.36 6.52391 1115.29 6.52391C1118.9 6.52391 1120.56 8.73591 1120.56 12.2359V20.6079H1117.92V12.8239C1117.92 10.0519 1116.64 8.93191 1114.62 8.93191C1112.16 8.93191 1110.73 10.6959 1110.73 13.3559V20.6079ZM1128.06 20.6079H1125.43V9.12791H1122.74V6.91591H1125.43V2.63191H1128.06V6.91591H1130.75V9.12791H1128.06V20.6079ZM1134.4 3.66791C1133.45 3.66791 1132.67 2.88391 1132.67 1.93191C1132.67 0.95191 1133.45 0.195909 1134.4 0.195909C1135.35 0.195909 1136.14 0.95191 1136.14 1.93191C1136.14 2.88391 1135.35 3.66791 1134.4 3.66791ZM1133.11 20.6079V6.91591H1135.75V20.6079H1133.11ZM1138.67 13.7759C1138.67 9.49191 1141.39 6.52391 1145.39 6.52391C1148.84 6.52391 1151.24 8.48391 1151.72 11.5359H1149.09C1148.64 9.79991 1147.24 8.87591 1145.48 8.87591C1142.98 8.87591 1141.28 10.7799 1141.28 13.7479C1141.28 16.6879 1142.87 18.5919 1145.36 18.5919C1147.24 18.5919 1148.64 17.6119 1149.12 15.9879H1151.75C1151.22 18.9559 1148.67 20.9439 1145.36 20.9439C1141.33 20.9439 1138.67 18.0879 1138.67 13.7759ZM1158.53 20.9439C1155.59 20.9439 1153.85 19.2919 1153.85 16.7999C1153.85 14.2799 1155.73 12.7119 1158.95 12.4599L1163.26 12.1239V11.7319C1163.26 9.43591 1161.89 8.62391 1160.04 8.62391C1157.83 8.62391 1156.57 9.60391 1156.57 11.2559H1154.27C1154.27 8.39991 1156.63 6.52391 1160.15 6.52391C1163.54 6.52391 1165.84 8.31591 1165.84 12.0119V20.6079H1163.6L1163.32 18.3959C1162.62 19.9639 1160.74 20.9439 1158.53 20.9439ZM1159.29 18.8999C1161.78 18.8999 1163.29 17.2759 1163.29 14.6999V13.9719L1159.79 14.2519C1157.47 14.4759 1156.51 15.3719 1156.51 16.7159C1156.51 18.1719 1157.58 18.8999 1159.29 18.8999ZM1173.13 20.6079H1170.5V9.12791H1167.81V6.91591H1170.5V2.63191H1173.13V6.91591H1175.82V9.12791H1173.13V20.6079ZM1179.47 3.66791C1178.51 3.66791 1177.73 2.88391 1177.73 1.93191C1177.73 0.95191 1178.51 0.195909 1179.47 0.195909C1180.42 0.195909 1181.2 0.95191 1181.2 1.93191C1181.2 2.88391 1180.42 3.66791 1179.47 3.66791ZM1178.18 20.6079V6.91591H1180.81V20.6079H1178.18ZM1183.73 13.7479C1183.73 9.51991 1186.76 6.55191 1190.87 6.55191C1194.96 6.55191 1197.99 9.51991 1197.99 13.7479C1197.99 17.9759 1194.96 20.9439 1190.87 20.9439C1186.76 20.9439 1183.73 17.9759 1183.73 13.7479ZM1186.39 13.7479C1186.39 16.6039 1188.21 18.5919 1190.87 18.5919C1193.51 18.5919 1195.35 16.6039 1195.35 13.7479C1195.35 10.8919 1193.51 8.90391 1190.87 8.90391C1188.21 8.90391 1186.39 10.8919 1186.39 13.7479ZM1203.53 20.6079H1200.9V6.91591H1203.28L1203.56 9.01591C1204.43 7.44791 1206.16 6.52391 1208.1 6.52391C1211.71 6.52391 1213.36 8.73591 1213.36 12.2359V20.6079H1210.73V12.8239C1210.73 10.0519 1209.44 8.93191 1207.42 8.93191C1204.96 8.93191 1203.53 10.6959 1203.53 13.3559V20.6079ZM1236.31 20.6079H1233.71V9.12791H1227.85V20.6079H1225.22V9.12791H1223.21V6.91591H1225.22V4.73191C1225.22 1.37191 1227.01 -9.15527e-05 1229.39 -9.15527e-05C1229.9 -9.15527e-05 1230.49 0.0279098 1231.02 0.111909V2.37991H1229.84C1228.25 2.37991 1227.85 3.24791 1227.85 4.73191V6.91591H1233.71V-9.15527e-05H1236.31V20.6079ZM1239.27 13.7479C1239.27 9.51991 1242.29 6.55191 1246.41 6.55191C1250.5 6.55191 1253.52 9.51991 1253.52 13.7479C1253.52 17.9759 1250.5 20.9439 1246.41 20.9439C1242.29 20.9439 1239.27 17.9759 1239.27 13.7479ZM1241.93 13.7479C1241.93 16.6039 1243.75 18.5919 1246.41 18.5919C1249.04 18.5919 1250.89 16.6039 1250.89 13.7479C1250.89 10.8919 1249.04 8.90391 1246.41 8.90391C1243.75 8.90391 1241.93 10.8919 1241.93 13.7479ZM1258.75 20.6079L1254.27 6.91591H1256.98L1259.25 14.0279C1259.56 15.0359 1259.84 16.0719 1260.09 17.2759C1260.31 16.0719 1260.68 14.9239 1260.99 14.0279L1263.28 6.91591H1265.97L1268.24 14.0279C1268.46 14.6999 1268.91 16.2959 1269.13 17.2759C1269.36 16.1839 1269.61 15.2319 1270 14.0279L1272.3 6.91591H1275.04L1270.37 20.6079H1267.87L1265.49 13.2719C1265.05 11.8999 1264.77 10.8359 1264.63 10.0799C1264.49 10.7519 1264.23 11.6479 1263.73 13.2999L1261.35 20.6079H1258.75ZM1275.99 16.6319H1278.51C1278.51 18.0319 1279.57 18.8719 1281.31 18.8719C1283.16 18.8719 1284.22 18.1159 1284.22 16.8559C1284.22 15.9319 1283.77 15.3719 1282.34 15.0079L1279.94 14.4479C1277.5 13.8599 1276.35 12.6559 1276.35 10.6399C1276.35 8.11991 1278.48 6.52391 1281.5 6.52391C1284.5 6.52391 1286.46 8.20391 1286.52 10.8079H1284C1283.94 9.43591 1283.02 8.56791 1281.42 8.56791C1279.77 8.56791 1278.84 9.29591 1278.84 10.5559C1278.84 11.4799 1279.52 12.0959 1280.86 12.4319L1283.27 13.0199C1285.59 13.5799 1286.74 14.6439 1286.74 16.6879C1286.74 19.2919 1284.5 20.9439 1281.25 20.9439C1278.03 20.9439 1275.99 19.2359 1275.99 16.6319ZM1293.44 19.5159C1293.44 21.5319 1291.93 23.2119 1289.94 23.4639V22.2879C1291.09 22.0919 1291.9 21.3359 1291.9 20.4679C1291.71 20.5799 1291.48 20.6359 1291.15 20.6359C1290.22 20.6359 1289.44 19.9639 1289.44 18.9279C1289.44 17.8079 1290.19 16.9959 1291.31 16.9959C1292.49 16.9959 1293.44 17.9759 1293.44 19.5159ZM1308.89 20.9439C1305.95 20.9439 1304.22 19.2919 1304.22 16.7999C1304.22 14.2799 1306.09 12.7119 1309.31 12.4599L1313.62 12.1239V11.7319C1313.62 9.43591 1312.25 8.62391 1310.4 8.62391C1308.19 8.62391 1306.93 9.60391 1306.93 11.2559H1304.64C1304.64 8.39991 1306.99 6.52391 1310.52 6.52391C1313.9 6.52391 1316.2 8.31591 1316.2 12.0119V20.6079H1313.96L1313.68 18.3959C1312.98 19.9639 1311.1 20.9439 1308.89 20.9439ZM1309.65 18.8999C1312.14 18.8999 1313.65 17.2759 1313.65 14.6999V13.9719L1310.15 14.2519C1307.83 14.4759 1306.88 15.3719 1306.88 16.7159C1306.88 18.1719 1307.94 18.8999 1309.65 18.8999ZM1322.48 20.6079H1319.85V6.91591H1322.23L1322.51 9.01591C1323.37 7.44791 1325.11 6.52391 1327.04 6.52391C1330.65 6.52391 1332.31 8.73591 1332.31 12.2359V20.6079H1329.67V12.8239C1329.67 10.0519 1328.39 8.93191 1326.37 8.93191C1323.91 8.93191 1322.48 10.6959 1322.48 13.3559V20.6079ZM1341.44 20.9439C1337.46 20.9439 1335.05 17.9759 1335.05 13.8039C1335.05 9.60391 1337.49 6.52391 1341.55 6.52391C1343.65 6.52391 1345.41 7.44791 1346.34 9.12791V-9.15527e-05H1348.94V20.6079H1346.59L1346.37 18.1159C1345.47 19.9919 1343.62 20.9439 1341.44 20.9439ZM1341.97 18.5639C1344.66 18.5639 1346.31 16.5759 1346.31 13.7199C1346.31 10.9199 1344.66 8.90391 1341.97 8.90391C1339.28 8.90391 1337.71 10.9199 1337.71 13.7199C1337.71 16.5479 1339.28 18.5639 1341.97 18.5639ZM1363.03 20.6079H1360.4V6.91591H1362.75L1363 8.70791C1363.7 7.41991 1365.16 6.52391 1367.09 6.52391C1369.22 6.52391 1370.73 7.58791 1371.43 9.29591C1372.07 7.58791 1373.72 6.52391 1375.85 6.52391C1378.99 6.52391 1380.89 8.48391 1380.89 11.6479V20.6079H1378.32V12.2919C1378.32 10.1359 1377.11 8.90391 1375.26 8.90391C1373.28 8.90391 1371.96 10.3039 1371.96 12.4879V20.6079H1369.36V12.2639C1369.36 10.1079 1368.18 8.93191 1366.33 8.93191C1364.34 8.93191 1363.03 10.3039 1363.03 12.4879V20.6079ZM1388.54 20.9439C1385.6 20.9439 1383.87 19.2919 1383.87 16.7999C1383.87 14.2799 1385.74 12.7119 1388.96 12.4599L1393.28 12.1239V11.7319C1393.28 9.43591 1391.9 8.62391 1390.06 8.62391C1387.84 8.62391 1386.58 9.60391 1386.58 11.2559H1384.29C1384.29 8.39991 1386.64 6.52391 1390.17 6.52391C1393.56 6.52391 1395.85 8.31591 1395.85 12.0119V20.6079H1393.61L1393.33 18.3959C1392.63 19.9639 1390.76 20.9439 1388.54 20.9439ZM1389.3 18.8999C1391.79 18.8999 1393.3 17.2759 1393.3 14.6999V13.9719L1389.8 14.2519C1387.48 14.4759 1386.53 15.3719 1386.53 16.7159C1386.53 18.1719 1387.59 18.8999 1389.3 18.8999ZM1402.13 20.6079H1399.5V6.91591H1401.88L1402.16 9.01591C1403.03 7.44791 1404.76 6.52391 1406.69 6.52391C1410.31 6.52391 1411.96 8.73591 1411.96 12.2359V20.6079H1409.33V12.8239C1409.33 10.0519 1408.04 8.93191 1406.02 8.93191C1403.56 8.93191 1402.13 10.6959 1402.13 13.3559V20.6079ZM1419.61 20.9439C1416.67 20.9439 1414.93 19.2919 1414.93 16.7999C1414.93 14.2799 1416.81 12.7119 1420.03 12.4599L1424.34 12.1239V11.7319C1424.34 9.43591 1422.97 8.62391 1421.12 8.62391C1418.91 8.62391 1417.65 9.60391 1417.65 11.2559H1415.35C1415.35 8.39991 1417.7 6.52391 1421.23 6.52391C1424.62 6.52391 1426.92 8.31591 1426.92 12.0119V20.6079H1424.68L1424.4 18.3959C1423.7 19.9639 1421.82 20.9439 1419.61 20.9439ZM1420.36 18.8999C1422.86 18.8999 1424.37 17.2759 1424.37 14.6999V13.9719L1420.87 14.2519C1418.54 14.4759 1417.59 15.3719 1417.59 16.7159C1417.59 18.1719 1418.66 18.8999 1420.36 18.8999ZM1429.69 13.4119C1429.69 9.54791 1432.18 6.52391 1436.16 6.52391C1438.37 6.52391 1440.08 7.53191 1440.95 9.23991L1441.14 6.91591H1443.5V20.0479C1443.5 24.3599 1440.84 27.1039 1436.64 27.1039C1432.91 27.1039 1430.36 25.0039 1429.86 21.5319H1432.49C1432.83 23.5479 1434.34 24.7239 1436.64 24.7239C1439.21 24.7239 1440.89 23.0439 1440.89 20.4399V17.6959C1440 19.2919 1438.2 20.2439 1436.05 20.2439C1432.16 20.2439 1429.69 17.2479 1429.69 13.4119ZM1432.32 13.3559C1432.32 15.9319 1433.92 17.9479 1436.5 17.9479C1439.16 17.9479 1440.78 16.0439 1440.78 13.3559C1440.78 10.7239 1439.21 8.81991 1436.52 8.81991C1433.89 8.81991 1432.32 10.8359 1432.32 13.3559ZM1453.2 20.9439C1449.17 20.9439 1446.4 18.0319 1446.4 13.7759C1446.4 9.49191 1449.11 6.52391 1453.09 6.52391C1456.98 6.52391 1459.53 9.21191 1459.53 13.2719V14.2519L1448.95 14.2799C1449.14 17.1639 1450.65 18.7599 1453.26 18.7599C1455.3 18.7599 1456.65 17.9199 1457.09 16.3519H1459.56C1458.89 19.2919 1456.59 20.9439 1453.2 20.9439ZM1453.09 8.73591C1450.79 8.73591 1449.34 10.1079 1449 12.5159H1456.9C1456.9 10.2479 1455.41 8.73591 1453.09 8.73591ZM1465.1 20.6079H1462.47V6.91591H1464.82L1465.07 8.70791C1465.77 7.41991 1467.23 6.52391 1469.16 6.52391C1471.29 6.52391 1472.8 7.58791 1473.5 9.29591C1474.15 7.58791 1475.8 6.52391 1477.93 6.52391C1481.06 6.52391 1482.97 8.48391 1482.97 11.6479V20.6079H1480.39V12.2919C1480.39 10.1359 1479.19 8.90391 1477.34 8.90391C1475.35 8.90391 1474.03 10.3039 1474.03 12.4879V20.6079H1471.43V12.2639C1471.43 10.1079 1470.25 8.93191 1468.41 8.93191C1466.42 8.93191 1465.1 10.3039 1465.1 12.4879V20.6079ZM1492.52 20.9439C1488.49 20.9439 1485.72 18.0319 1485.72 13.7759C1485.72 9.49191 1488.43 6.52391 1492.41 6.52391C1496.3 6.52391 1498.85 9.21191 1498.85 13.2719V14.2519L1488.27 14.2799C1488.46 17.1639 1489.97 18.7599 1492.58 18.7599C1494.62 18.7599 1495.97 17.9199 1496.41 16.3519H1498.88C1498.21 19.2919 1495.91 20.9439 1492.52 20.9439ZM1492.41 8.73591C1490.11 8.73591 1488.66 10.1079 1488.32 12.5159H1496.22C1496.22 10.2479 1494.73 8.73591 1492.41 8.73591ZM1504.42 20.6079H1501.79V6.91591H1504.17L1504.45 9.01591C1505.32 7.44791 1507.05 6.52391 1508.99 6.52391C1512.6 6.52391 1514.25 8.73591 1514.25 12.2359V20.6079H1511.62V12.8239C1511.62 10.0519 1510.33 8.93191 1508.31 8.93191C1505.85 8.93191 1504.42 10.6959 1504.42 13.3559V20.6079ZM1521.76 20.6079H1519.13V9.12791H1516.44V6.91591H1519.13V2.63191H1521.76V6.91591H1524.45V9.12791H1521.76V20.6079ZM1535.75 3.66791C1534.8 3.66791 1534.02 2.88391 1534.02 1.93191C1534.02 0.95191 1534.8 0.195909 1535.75 0.195909C1536.71 0.195909 1537.49 0.95191 1537.49 1.93191C1537.49 2.88391 1536.71 3.66791 1535.75 3.66791ZM1534.47 20.6079V6.91591H1537.1V20.6079H1534.47ZM1543.55 20.6079H1540.92V6.91591H1543.3L1543.58 9.01591C1544.45 7.44791 1546.18 6.52391 1548.12 6.52391C1551.73 6.52391 1553.38 8.73591 1553.38 12.2359V20.6079H1550.75V12.8239C1550.75 10.0519 1549.46 8.93191 1547.44 8.93191C1544.98 8.93191 1543.55 10.6959 1543.55 13.3559V20.6079ZM1560.89 20.6079H1558.26V9.12791H1555.57V6.91591H1558.26V2.63191H1560.89V6.91591H1563.58V9.12791H1560.89V20.6079ZM1571.71 20.9439C1567.68 20.9439 1564.91 18.0319 1564.91 13.7759C1564.91 9.49191 1567.62 6.52391 1571.6 6.52391C1575.49 6.52391 1578.04 9.21191 1578.04 13.2719V14.2519L1567.45 14.2799C1567.65 17.1639 1569.16 18.7599 1571.77 18.7599C1573.81 18.7599 1575.15 17.9199 1575.6 16.3519H1578.07C1577.39 19.2919 1575.1 20.9439 1571.71 20.9439ZM1571.6 8.73591C1569.3 8.73591 1567.85 10.1079 1567.51 12.5159H1575.41C1575.41 10.2479 1573.92 8.73591 1571.6 8.73591ZM1588.82 6.80391V9.21191H1587.64C1585.15 9.21191 1583.61 10.7239 1583.61 13.3559V20.6079H1580.98V6.94391H1583.44L1583.61 9.01591C1584.17 7.58791 1585.54 6.63591 1587.42 6.63591C1587.89 6.63591 1588.29 6.69191 1588.82 6.80391ZM1590.38 6.91591H1592.39V4.73191C1592.39 1.37191 1594.24 -9.15527e-05 1596.73 -9.15527e-05C1597.24 -9.15527e-05 1597.83 0.0279098 1598.36 0.111909V2.37991H1597.18C1595.47 2.37991 1595.03 3.24791 1595.03 4.73191V6.91591H1598.27V9.12791H1595.03V20.6079H1592.39V9.12791H1590.38V6.91591ZM1604.29 20.9439C1601.35 20.9439 1599.61 19.2919 1599.61 16.7999C1599.61 14.2799 1601.49 12.7119 1604.71 12.4599L1609.02 12.1239V11.7319C1609.02 9.43591 1607.65 8.62391 1605.8 8.62391C1603.59 8.62391 1602.33 9.60391 1602.33 11.2559H1600.03C1600.03 8.39991 1602.38 6.52391 1605.91 6.52391C1609.3 6.52391 1611.59 8.31591 1611.59 12.0119V20.6079H1609.35L1609.07 18.3959C1608.37 19.9639 1606.5 20.9439 1604.29 20.9439ZM1605.04 18.8999C1607.53 18.8999 1609.05 17.2759 1609.05 14.6999V13.9719L1605.55 14.2519C1603.22 14.4759 1602.27 15.3719 1602.27 16.7159C1602.27 18.1719 1603.33 18.8999 1605.04 18.8999ZM1614.34 13.7759C1614.34 9.49191 1617.06 6.52391 1621.06 6.52391C1624.51 6.52391 1626.92 8.48391 1627.39 11.5359H1624.76C1624.31 9.79991 1622.91 8.87591 1621.15 8.87591C1618.66 8.87591 1616.95 10.7799 1616.95 13.7479C1616.95 16.6879 1618.54 18.5919 1621.04 18.5919C1622.91 18.5919 1624.31 17.6119 1624.79 15.9879H1627.42C1626.89 18.9559 1624.34 20.9439 1621.04 20.9439C1617 20.9439 1614.34 18.0879 1614.34 13.7759ZM1636.1 20.9439C1632.07 20.9439 1629.3 18.0319 1629.3 13.7759C1629.3 9.49191 1632.02 6.52391 1635.99 6.52391C1639.88 6.52391 1642.43 9.21191 1642.43 13.2719V14.2519L1631.85 14.2799C1632.04 17.1639 1633.56 18.7599 1636.16 18.7599C1638.2 18.7599 1639.55 17.9199 1640 16.3519H1642.46C1641.79 19.2919 1639.49 20.9439 1636.1 20.9439ZM1635.99 8.73591C1633.7 8.73591 1632.24 10.1079 1631.9 12.5159H1639.8C1639.8 10.2479 1638.32 8.73591 1635.99 8.73591ZM1644.25 16.6319H1646.77C1646.77 18.0319 1647.84 18.8719 1649.57 18.8719C1651.42 18.8719 1652.48 18.1159 1652.48 16.8559C1652.48 15.9319 1652.04 15.3719 1650.61 15.0079L1648.2 14.4479C1645.76 13.8599 1644.62 12.6559 1644.62 10.6399C1644.62 8.11991 1646.74 6.52391 1649.77 6.52391C1652.76 6.52391 1654.72 8.20391 1654.78 10.8079H1652.26C1652.2 9.43591 1651.28 8.56791 1649.68 8.56791C1648.03 8.56791 1647.11 9.29591 1647.11 10.5559C1647.11 11.4799 1647.78 12.0959 1649.12 12.4319L1651.53 13.0199C1653.86 13.5799 1655 14.6439 1655 16.6879C1655 19.2919 1652.76 20.9439 1649.52 20.9439C1646.3 20.9439 1644.25 19.2359 1644.25 16.6319ZM1659.72 20.9439C1658.63 20.9439 1657.7 20.0479 1657.7 18.9839C1657.7 17.8919 1658.63 16.9959 1659.72 16.9959C1660.78 16.9959 1661.71 17.8919 1661.71 18.9839C1661.71 20.0479 1660.78 20.9439 1659.72 20.9439Z" fill="black"/>
</svg>
