<svg width="260" height="50" viewBox="0 0 260 50" fill="none" xmlns="http://www.w3.org/2000/svg">
<path d="M10.368 0.831894V38.5919H29.056V48.1919H2.19345e-05V0.831894H10.368ZM32.3135 32.1279C32.3135 22.0159 39.7375 15.2319 49.9775 15.2319C60.1535 15.2319 67.5775 22.0159 67.5775 32.1279C67.5775 42.2399 60.1535 48.9599 49.9775 48.9599C39.7375 48.9599 32.3135 42.2399 32.3135 32.1279ZM42.2335 32.0639C42.2335 36.9279 45.3695 40.1279 49.9775 40.1279C54.5215 40.1279 57.6575 36.9279 57.6575 32.0639C57.6575 27.2639 54.5215 24.0639 49.9775 24.0639C45.3695 24.0639 42.2335 27.2639 42.2335 32.0639ZM71.8835 32.0639C71.8835 22.2079 78.6675 15.1679 88.2675 15.1679C97.7395 15.1679 104.012 20.3519 104.652 28.7359H94.7315C94.0275 25.5359 92.0435 23.9999 88.6515 23.9999C84.4915 23.9999 81.8035 27.1359 81.8035 32.0639C81.8035 37.1839 84.2995 40.1919 88.5235 40.1919C91.9795 40.1919 94.0915 38.5919 94.7315 35.4559H104.652C104.012 43.5199 97.4835 49.0239 88.5235 49.0239C78.4115 49.0239 71.8835 42.3039 71.8835 32.0639ZM120.033 49.0239C113.249 49.0239 109.025 45.0559 109.025 38.7839C109.025 32.8959 113.185 29.2479 120.865 28.6719L129.825 27.9679V27.4559C129.825 24.3199 127.905 22.6559 124.385 22.6559C120.225 22.6559 117.985 24.2559 117.985 27.1359H109.793C109.793 19.9039 115.745 15.1679 124.897 15.1679C134.177 15.1679 139.425 20.3519 139.425 29.5039V48.1919H130.721L130.081 43.9679C129.057 46.9119 124.833 49.0239 120.033 49.0239ZM123.489 41.7279C127.265 41.7279 129.889 39.8719 129.889 36.2239V34.4959L124.897 34.9439C120.609 35.3279 119.073 36.2879 119.073 38.3359C119.073 40.6399 120.481 41.7279 123.489 41.7279ZM159.43 48.1919H149.574V24.3839H143.494V16.1919H149.574V6.27189H159.43V16.1919H165.51V24.3839H159.43V48.1919ZM175.123 11.1999C171.987 11.1999 169.491 8.70389 169.491 5.56789C169.491 2.43189 171.987 -0.000106812 175.123 -0.000106812C178.195 -0.000106812 180.691 2.43189 180.691 5.56789C180.691 8.70389 178.195 11.1999 175.123 11.1999ZM170.259 48.1919V16.1919H180.115V48.1919H170.259ZM186.101 32.1279C186.101 22.0159 193.525 15.2319 203.765 15.2319C213.941 15.2319 221.365 22.0159 221.365 32.1279C221.365 42.2399 213.941 48.9599 203.765 48.9599C193.525 48.9599 186.101 42.2399 186.101 32.1279ZM196.021 32.0639C196.021 36.9279 199.157 40.1279 203.765 40.1279C208.309 40.1279 211.445 36.9279 211.445 32.0639C211.445 27.2639 208.309 24.0639 203.765 24.0639C199.157 24.0639 196.021 27.2639 196.021 32.0639ZM237.255 48.1919H227.399V16.1919H236.679L237.319 19.5199C239.303 16.7679 242.951 15.1679 247.111 15.1679C254.727 15.1679 259.143 20.0319 259.143 28.4159V48.1919H249.287V30.7839C249.287 26.7519 247.047 24.1279 243.655 24.1279C239.751 24.1279 237.255 26.6879 237.255 30.6559V48.1919Z" fill="black"/>
</svg>
