<svg width="210" height="50" viewBox="0 0 210 50" fill="none" xmlns="http://www.w3.org/2000/svg">
<path d="M0.704391 14.6559C0.704391 6.07986 7.93639 -0.000141144 18.1124 -0.000141144C28.2884 -0.000141144 34.6884 5.63186 34.6884 14.5919H24.3844C24.3844 11.2639 21.8884 9.21586 17.9844 9.21586C13.7604 9.21586 11.0724 11.1359 11.0724 14.2719C11.0724 17.1519 12.5444 18.5599 15.8724 19.2639L22.9764 20.7359C31.4244 22.4639 35.4564 26.4959 35.4564 33.9839C35.4564 43.1359 28.2884 49.0879 17.4084 49.0879C6.84839 49.0879 0.000390649 43.3919 0.000390649 34.4959H10.3044C10.3044 37.9519 12.8644 39.8719 17.4724 39.8719C22.1444 39.8719 25.0884 38.0159 25.0884 35.0079C25.0884 32.3839 23.8724 31.0399 20.7364 30.3999L13.5044 28.9279C5.05639 27.1999 0.704391 22.3999 0.704391 14.6559ZM56.2804 49.0879C46.6164 49.0879 39.7044 42.0479 39.7044 32.1919C39.7044 22.2079 46.4244 15.2319 56.0884 15.2319C66.1364 15.2319 72.4084 21.8239 72.4084 32.2559V34.7519L49.1764 34.8799C49.7524 39.1039 52.1204 41.0879 56.4724 41.0879C60.1844 41.0879 62.8084 39.7439 63.5124 37.4399H72.5364C71.3844 44.5439 65.0484 49.0879 56.2804 49.0879ZM56.1524 23.2319C52.2484 23.2319 50.0724 24.9599 49.3044 28.7999H62.6164C62.6164 25.4079 60.1204 23.2319 56.1524 23.2319ZM87.9164 49.0879C81.1324 49.0879 76.9084 45.1199 76.9084 38.8479C76.9084 32.9599 81.0684 29.3119 88.7484 28.7359L97.7084 28.0319V27.5199C97.7084 24.3839 95.7884 22.7199 92.2684 22.7199C88.1084 22.7199 85.8684 24.3199 85.8684 27.1999H77.6764C77.6764 19.9679 83.6284 15.2319 92.7804 15.2319C102.06 15.2319 107.308 20.4159 107.308 29.5679V48.2559H98.6044L97.9644 44.0319C96.9404 46.9759 92.7164 49.0879 87.9164 49.0879ZM91.3724 41.7919C95.1484 41.7919 97.7724 39.9359 97.7724 36.2879V34.5599L92.7804 35.0079C88.4924 35.3919 86.9564 36.3519 86.9564 38.3999C86.9564 40.7039 88.3644 41.7919 91.3724 41.7919ZM136.713 16.2559V25.5359H133.577C127.945 25.5359 124.553 28.0319 124.553 34.3679V48.2559H114.697V16.3199H123.977L124.489 21.0559C125.833 17.9199 128.649 15.8079 132.937 15.8079C134.089 15.8079 135.369 15.9359 136.713 16.2559ZM139.352 32.1279C139.352 22.2719 146.136 15.2319 155.736 15.2319C165.208 15.2319 171.48 20.4159 172.12 28.7999H162.2C161.496 25.5999 159.512 24.0639 156.12 24.0639C151.96 24.0639 149.272 27.1999 149.272 32.1279C149.272 37.2479 151.768 40.2559 155.992 40.2559C159.448 40.2559 161.56 38.6559 162.2 35.5199H172.12C171.48 43.5839 164.952 49.0879 155.992 49.0879C145.88 49.0879 139.352 42.3679 139.352 32.1279ZM187.693 48.2559H177.837V-0.000141144H187.757V19.5839C189.741 16.8319 193.389 15.2319 197.549 15.2319C205.165 15.2319 209.581 20.0959 209.581 28.4799V48.2559H199.725V30.8479C199.725 26.8159 197.485 24.1919 194.093 24.1919C190.189 24.1919 187.693 26.7519 187.693 30.7199V48.2559Z" fill="black"/>
</svg>
