<svg width="722" height="64" viewBox="0 0 722 64" fill="none" xmlns="http://www.w3.org/2000/svg">
<path d="M0.704391 14.6559C0.704391 6.07986 7.93639 -0.000141144 18.1124 -0.000141144C28.2884 -0.000141144 34.6884 5.63186 34.6884 14.5919H24.3844C24.3844 11.2639 21.8884 9.21586 17.9844 9.21586C13.7604 9.21586 11.0724 11.1359 11.0724 14.2719C11.0724 17.1519 12.5444 18.5599 15.8724 19.2639L22.9764 20.7359C31.4244 22.4639 35.4564 26.4959 35.4564 33.9839C35.4564 43.1359 28.2884 49.0879 17.4084 49.0879C6.84839 49.0879 0.000390649 43.3919 0.000390649 34.4959H10.3044C10.3044 37.9519 12.8644 39.8719 17.4724 39.8719C22.1444 39.8719 25.0884 38.0159 25.0884 35.0079C25.0884 32.3839 23.8724 31.0399 20.7364 30.3999L13.5044 28.9279C5.05639 27.1999 0.704391 22.3999 0.704391 14.6559ZM62.6804 16.2559H72.5364V48.2559H63.2564L62.6164 44.6719C60.6324 47.2959 56.6644 49.0879 52.8244 49.0879C45.5284 49.0879 41.0484 44.2239 41.0484 36.3519V16.2559H50.9044V32.7679C50.9044 38.0159 52.6964 40.3199 56.7284 40.3199C60.9524 40.3199 62.6804 38.1439 62.6804 32.8959V16.2559ZM80.2524 63.6159V16.2559H89.5324L90.0444 20.1599C91.8364 17.2159 95.8684 15.2319 100.412 15.2319C109.308 15.2319 115.516 21.4399 115.516 31.7439C115.516 41.8559 110.012 49.1519 100.476 49.1519C96.0604 49.1519 91.9644 47.4879 90.1084 45.0559V63.6159H80.2524ZM90.1724 32.2559C90.1724 37.0559 93.3724 40.2559 97.9804 40.2559C102.652 40.2559 105.596 36.9919 105.596 32.2559C105.596 27.5199 102.652 24.2559 97.9804 24.2559C93.3724 24.2559 90.1724 27.4559 90.1724 32.2559ZM121.51 63.6159V16.2559H130.79L131.302 20.1599C133.094 17.2159 137.126 15.2319 141.67 15.2319C150.566 15.2319 156.774 21.4399 156.774 31.7439C156.774 41.8559 151.27 49.1519 141.734 49.1519C137.318 49.1519 133.222 47.4879 131.366 45.0559V63.6159H121.51ZM131.43 32.2559C131.43 37.0559 134.63 40.2559 139.238 40.2559C143.91 40.2559 146.854 36.9919 146.854 32.2559C146.854 27.5199 143.91 24.2559 139.238 24.2559C134.63 24.2559 131.43 27.4559 131.43 32.2559ZM161.039 32.1919C161.039 22.0799 168.463 15.2959 178.703 15.2959C188.879 15.2959 196.303 22.0799 196.303 32.1919C196.303 42.3039 188.879 49.0239 178.703 49.0239C168.463 49.0239 161.039 42.3039 161.039 32.1919ZM170.959 32.1279C170.959 36.9919 174.095 40.1919 178.703 40.1919C183.247 40.1919 186.383 36.9919 186.383 32.1279C186.383 27.3279 183.247 24.1279 178.703 24.1279C174.095 24.1279 170.959 27.3279 170.959 32.1279ZM224.353 16.2559V25.5359H221.217C215.585 25.5359 212.193 28.0319 212.193 34.3679V48.2559H202.337V16.3199H211.617L212.129 21.0559C213.473 17.9199 216.289 15.8079 220.577 15.8079C221.729 15.8079 223.009 15.9359 224.353 16.2559ZM243.835 48.2559H233.979V24.4479H227.899V16.2559H233.979V6.33586H243.835V16.2559H249.915V24.4479H243.835V48.2559ZM264.759 44.9919C264.759 51.1359 260.471 55.8719 254.455 56.5119V52.9919C257.655 52.4159 259.959 50.6879 260.151 48.0639C259.639 48.3199 258.999 48.4479 258.295 48.4479C255.287 48.4479 252.983 46.2079 252.983 43.3919C252.983 39.8719 255.159 37.5039 258.487 37.5039C262.199 37.5039 264.759 40.5759 264.759 44.9919ZM301.576 0.895859V38.6559H320.264V48.2559H291.208V0.895859H301.576ZM330.739 11.2639C327.603 11.2639 325.107 8.76786 325.107 5.63186C325.107 2.49586 327.603 0.063858 330.739 0.063858C333.811 0.063858 336.307 2.49586 336.307 5.63186C336.307 8.76786 333.811 11.2639 330.739 11.2639ZM325.875 48.2559V16.2559H335.731V48.2559H325.875ZM353.301 48.2559H343.445V-0.000141144H353.301V27.7759L363.669 16.2559H376.021L363.989 28.9279L375.637 48.2559H364.245L357.077 36.2879L353.301 40.2559V48.2559ZM393.613 49.0879C383.949 49.0879 377.037 42.0479 377.037 32.1919C377.037 22.2079 383.757 15.2319 393.421 15.2319C403.469 15.2319 409.741 21.8239 409.741 32.2559V34.7519L386.509 34.8799C387.085 39.1039 389.453 41.0879 393.805 41.0879C397.517 41.0879 400.141 39.7439 400.845 37.4399H409.869C408.717 44.5439 402.381 49.0879 393.613 49.0879ZM393.485 23.2319C389.581 23.2319 387.405 24.9599 386.637 28.7999H399.949C399.949 25.4079 397.453 23.2319 393.485 23.2319ZM425.992 44.9919C425.992 51.1359 421.704 55.8719 415.688 56.5119V52.9919C418.888 52.4159 421.192 50.6879 421.384 48.0639C420.872 48.3199 420.232 48.4479 419.528 48.4479C416.52 48.4479 414.216 46.2079 414.216 43.3919C414.216 39.8719 416.392 37.5039 419.72 37.5039C423.432 37.5039 425.992 40.5759 425.992 44.9919ZM489.561 52.3519L484.249 46.3359C480.985 48.0639 477.145 49.0239 472.921 49.0239C459.225 49.0239 449.817 39.0399 449.817 24.5759C449.817 10.1119 459.289 0.063858 472.985 0.063858C486.745 0.063858 496.217 10.0479 496.217 24.5119C496.217 30.9759 494.297 36.6079 490.969 40.7679L496.089 46.5919L489.561 52.3519ZM485.273 24.5119C485.273 15.4879 480.665 10.0479 473.049 10.0479C465.369 10.0479 460.761 15.4879 460.761 24.5119C460.761 33.5999 465.369 39.0399 473.049 39.0399C474.585 39.0399 475.929 38.8479 477.209 38.3999L471.001 31.3599L477.529 25.5999L483.673 32.5119C484.697 30.3359 485.273 27.6479 485.273 24.5119ZM523.793 16.2559H533.649V48.2559H524.369L523.729 44.6719C521.745 47.2959 517.777 49.0879 513.937 49.0879C506.641 49.0879 502.161 44.2239 502.161 36.3519V16.2559H512.017V32.7679C512.017 38.0159 513.809 40.3199 517.841 40.3199C522.065 40.3199 523.793 38.1439 523.793 32.8959V16.2559ZM555.588 49.0879C545.924 49.0879 539.012 42.0479 539.012 32.1919C539.012 22.2079 545.732 15.2319 555.396 15.2319C565.444 15.2319 571.716 21.8239 571.716 32.2559V34.7519L548.484 34.8799C549.06 39.1039 551.428 41.0879 555.78 41.0879C559.492 41.0879 562.116 39.7439 562.82 37.4399H571.844C570.692 44.5439 564.356 49.0879 555.588 49.0879ZM555.46 23.2319C551.556 23.2319 549.38 24.9599 548.612 28.7999H561.924C561.924 25.4079 559.428 23.2319 555.46 23.2319ZM575.568 38.1439H584.912C585.04 40.3839 586.704 41.7279 589.712 41.7279C592.784 41.7279 594.192 40.6399 594.192 38.9759C594.192 38.0159 593.68 36.9919 591.312 36.4799L585.424 35.1999C579.536 33.9199 576.656 31.3599 576.656 25.7279C576.656 19.0719 582.352 15.2319 590.032 15.2319C597.456 15.2319 602.64 19.5839 602.64 26.0479H593.296C593.296 23.8719 591.952 22.3999 589.584 22.3999C587.344 22.3999 585.936 23.5519 585.936 25.2799C585.936 26.7519 587.152 27.5839 589.392 28.0959L595.344 29.3759C600.592 30.5279 603.472 32.9599 603.472 38.0799C603.472 44.9279 597.648 49.0879 589.328 49.0879C580.88 49.0879 575.568 44.6079 575.568 38.1439ZM621.87 48.2559H612.014V24.4479H605.934V16.2559H612.014V6.33586H621.87V16.2559H627.95V24.4479H621.87V48.2559ZM637.564 11.2639C634.428 11.2639 631.932 8.76786 631.932 5.63186C631.932 2.49586 634.428 0.063858 637.564 0.063858C640.636 0.063858 643.132 2.49586 643.132 5.63186C643.132 8.76786 640.636 11.2639 637.564 11.2639ZM632.7 48.2559V16.2559H642.556V48.2559H632.7ZM648.542 32.1919C648.542 22.0799 655.966 15.2959 666.206 15.2959C676.382 15.2959 683.806 22.0799 683.806 32.1919C683.806 42.3039 676.382 49.0239 666.206 49.0239C655.966 49.0239 648.542 42.3039 648.542 32.1919ZM658.462 32.1279C658.462 36.9919 661.598 40.1919 666.206 40.1919C670.75 40.1919 673.886 36.9919 673.886 32.1279C673.886 27.3279 670.75 24.1279 666.206 24.1279C661.598 24.1279 658.462 27.3279 658.462 32.1279ZM699.696 48.2559H689.84V16.2559H699.12L699.76 19.5839C701.744 16.8319 705.392 15.2319 709.552 15.2319C717.168 15.2319 721.584 20.0959 721.584 28.4799V48.2559H711.728V30.8479C711.728 26.8159 709.488 24.1919 706.096 24.1919C702.192 24.1919 699.696 26.7519 699.696 30.7199V48.2559Z" fill="black"/>
</svg>
