<svg width="738" height="47" viewBox="0 0 738 47" fill="none" xmlns="http://www.w3.org/2000/svg">
<path d="M-0.00043726 22.896V0.623975H6.14356V22.512C6.14356 27.552 8.87956 30.336 13.8716 30.336C18.8636 30.336 21.6476 27.504 21.6476 22.512V0.623975H27.7916V22.896C27.7916 31.104 22.4156 36.288 13.8716 36.288C5.37556 36.288 -0.00043726 31.152 -0.00043726 22.896ZM38.6129 35.712H31.9409L40.1009 24.096L31.9409 12H38.7569L43.9889 20.064L49.0289 12H55.6049L47.5409 24L55.3649 35.712H48.6449L43.6049 27.888L38.6129 35.712ZM57.9423 10.416C57.9423 4.27197 63.0303 -2.57492e-05 70.4223 -2.57492e-05C77.5263 -2.57492e-05 82.0383 3.93597 82.2303 10.272H76.0863C75.9423 7.24797 73.7823 5.47197 70.3263 5.47197C66.5343 5.47197 64.0863 7.29597 64.0863 10.224C64.0863 12.72 65.4303 14.112 68.3583 14.784L73.8783 15.984C79.8783 17.28 82.8063 20.352 82.8063 25.584C82.8063 32.112 77.7183 36.336 69.9903 36.336C62.5023 36.336 57.6063 32.352 57.4623 26.064H63.6063C63.6543 29.04 66.0543 30.816 69.9903 30.816C74.0703 30.816 76.6623 29.04 76.6623 26.112C76.6623 23.76 75.4623 22.368 72.5823 21.744L67.0143 20.496C61.0623 19.2 57.9423 15.792 57.9423 10.416ZM86.1086 23.808C86.1086 16.464 90.9566 11.28 97.9646 11.28C104.445 11.28 108.861 14.88 109.485 20.592H103.629C102.957 17.904 100.989 16.512 98.2046 16.512C94.4606 16.512 91.9646 19.344 91.9646 23.808C91.9646 28.272 94.2686 31.056 98.0126 31.056C100.941 31.056 103.005 29.616 103.629 27.024H109.533C108.813 32.544 104.205 36.336 98.0126 36.336C90.8126 36.336 86.1086 31.344 86.1086 23.808ZM129.971 12H135.827V35.712H130.403L129.971 32.544C128.531 34.8 125.459 36.336 122.291 36.336C116.819 36.336 113.603 32.64 113.603 26.832V12H119.459V24.768C119.459 29.28 121.235 31.104 124.499 31.104C128.195 31.104 129.971 28.944 129.971 24.432V12ZM147.78 35.712H141.972V-2.57492e-05H147.78V35.712ZM153.922 46.704V12H159.346L159.73 15.6C161.17 12.864 164.29 11.28 167.89 11.28C174.562 11.28 178.978 16.128 178.978 23.568C178.978 30.96 174.946 36.336 167.89 36.336C164.338 36.336 161.266 34.944 159.778 32.544V46.704H153.922ZM159.826 23.856C159.826 28.128 162.466 31.056 166.498 31.056C170.626 31.056 173.074 28.08 173.074 23.856C173.074 19.632 170.626 16.608 166.498 16.608C162.466 16.608 159.826 19.584 159.826 23.856ZM191.471 35.712H185.615V16.896H181.055V12H185.615V4.60798H191.471V12H196.079V16.896H191.471V35.712ZM213.281 22.896V0.623975H219.425V22.512C219.425 27.552 222.161 30.336 227.153 30.336C232.145 30.336 234.929 27.504 234.929 22.512V0.623975H241.073V22.896C241.073 31.104 235.697 36.288 227.153 36.288C218.657 36.288 213.281 31.152 213.281 22.896ZM254.774 0.623975V35.712H248.63V0.623975H254.774ZM281.634 0.623975V35.712H275.49V0.623975H281.634ZM287.155 23.808C287.155 16.464 292.003 11.28 299.011 11.28C305.491 11.28 309.907 14.88 310.531 20.592H304.675C304.003 17.904 302.035 16.512 299.251 16.512C295.507 16.512 293.011 19.344 293.011 23.808C293.011 28.272 295.315 31.056 299.059 31.056C301.987 31.056 304.051 29.616 304.675 27.024H310.579C309.859 32.544 305.251 36.336 299.059 36.336C291.859 36.336 287.155 31.344 287.155 23.808ZM313.546 23.808C313.546 16.416 318.874 11.328 326.218 11.328C333.562 11.328 338.89 16.416 338.89 23.808C338.89 31.2 333.562 36.288 326.218 36.288C318.874 36.288 313.546 31.2 313.546 23.808ZM319.402 23.808C319.402 28.128 322.186 31.056 326.218 31.056C330.25 31.056 333.034 28.128 333.034 23.808C333.034 19.488 330.25 16.56 326.218 16.56C322.186 16.56 319.402 19.488 319.402 23.808ZM349.388 35.712H343.532V12H348.956L349.436 15.072C350.924 12.672 353.804 11.28 357.02 11.28C362.972 11.28 366.044 14.976 366.044 21.12V35.712H360.188V22.512C360.188 18.528 358.22 16.608 355.196 16.608C351.596 16.608 349.388 19.104 349.388 22.944V35.712ZM369.692 28.512H375.26C375.308 30.576 376.844 31.872 379.532 31.872C382.268 31.872 383.756 30.768 383.756 29.04C383.756 27.84 383.132 26.976 381.02 26.496L376.748 25.488C372.476 24.528 370.412 22.512 370.412 18.72C370.412 14.064 374.348 11.28 379.82 11.28C385.148 11.28 388.748 14.352 388.796 18.96H383.228C383.18 16.944 381.836 15.648 379.58 15.648C377.276 15.648 375.932 16.704 375.932 18.48C375.932 19.824 376.988 20.688 379.004 21.168L383.276 22.176C387.26 23.088 389.276 24.912 389.276 28.56C389.276 33.36 385.196 36.336 379.34 36.336C373.436 36.336 369.692 33.168 369.692 28.512ZM406.96 25.536V20.352H458.512V25.536H406.96ZM497.799 21.36H484.743V35.712H478.599V0.623975H500.295V6.28797H484.743V15.84H497.799V21.36ZM518.396 11.904V17.328H516.236C512.012 17.328 509.372 19.584 509.372 24.192V35.712H503.516V12.048H509.036L509.372 15.504C510.38 13.152 512.636 11.568 515.804 11.568C516.62 11.568 517.436 11.664 518.396 11.904ZM532.171 36.336C525.115 36.336 520.171 31.2 520.171 23.856C520.171 16.416 525.019 11.28 531.979 11.28C539.083 11.28 543.595 16.032 543.595 23.424V25.2L525.739 25.248C526.171 29.424 528.379 31.536 532.267 31.536C535.483 31.536 537.595 30.288 538.267 28.032H543.691C542.683 33.216 538.363 36.336 532.171 36.336ZM532.027 16.08C528.571 16.08 526.459 17.952 525.883 21.504H537.787C537.787 18.24 535.531 16.08 532.027 16.08ZM558.89 36.336C551.834 36.336 546.89 31.2 546.89 23.856C546.89 16.416 551.738 11.28 558.698 11.28C565.802 11.28 570.314 16.032 570.314 23.424V25.2L552.458 25.248C552.89 29.424 555.098 31.536 558.986 31.536C562.202 31.536 564.314 30.288 564.986 28.032H570.41C569.402 33.216 565.082 36.336 558.89 36.336ZM558.746 16.08C555.29 16.08 553.178 17.952 552.602 21.504H564.506C564.506 18.24 562.25 16.08 558.746 16.08ZM610.594 35.712H588.802V0.623975H610.594V6.28797H594.946V15.312H608.962V20.736H594.946V30.048H610.594V35.712ZM626.135 36.336C619.271 36.336 614.999 31.296 614.999 23.952C614.999 16.56 619.319 11.28 626.471 11.28C629.783 11.28 632.711 12.672 634.199 15.024V-2.57492e-05H640.007V35.712H634.631L634.247 32.016C632.807 34.752 629.735 36.336 626.135 36.336ZM627.431 30.96C631.511 30.96 634.151 28.032 634.151 23.76C634.151 19.488 631.511 16.512 627.431 16.512C623.351 16.512 620.855 19.536 620.855 23.76C620.855 27.984 623.351 30.96 627.431 30.96ZM649.038 7.24797C647.022 7.24797 645.438 5.66397 645.438 3.69597C645.438 1.72797 647.022 0.191975 649.038 0.191975C650.958 0.191975 652.542 1.72797 652.542 3.69597C652.542 5.66397 650.958 7.24797 649.038 7.24797ZM646.11 35.712V12H651.966V35.712H646.11ZM666.08 35.712H660.224V16.896H655.664V12H660.224V4.60798H666.08V12H670.688V16.896H666.08V35.712ZM677.257 7.24797C675.241 7.24797 673.657 5.66397 673.657 3.69597C673.657 1.72797 675.241 0.191975 677.257 0.191975C679.177 0.191975 680.761 1.72797 680.761 3.69597C680.761 5.66397 679.177 7.24797 677.257 7.24797ZM674.329 35.712V12H680.185V35.712H674.329ZM684.843 23.808C684.843 16.416 690.171 11.328 697.515 11.328C704.859 11.328 710.187 16.416 710.187 23.808C710.187 31.2 704.859 36.288 697.515 36.288C690.171 36.288 684.843 31.2 684.843 23.808ZM690.699 23.808C690.699 28.128 693.483 31.056 697.515 31.056C701.547 31.056 704.331 28.128 704.331 23.808C704.331 19.488 701.547 16.56 697.515 16.56C693.483 16.56 690.699 19.488 690.699 23.808ZM720.685 35.712H714.829V12H720.253L720.733 15.072C722.221 12.672 725.101 11.28 728.317 11.28C734.269 11.28 737.341 14.976 737.341 21.12V35.712H731.485V22.512C731.485 18.528 729.517 16.608 726.493 16.608C722.893 16.608 720.685 19.104 720.685 22.944V35.712Z" fill="black"/>
</svg>
