<svg width="244" height="28" viewBox="0 0 244 28" fill="none" xmlns="http://www.w3.org/2000/svg">
<path d="M9.93589 26.6401L-0.000107396 0.324136H4.89589L10.6559 15.4801C11.2319 17.0641 11.7359 18.6121 12.3119 20.7361C12.9599 18.4321 13.4999 16.8121 14.0039 15.4801L19.6919 0.324136H24.4799L14.6879 26.6401H9.93589ZM29.5635 27.1081C25.7835 27.1081 23.4795 24.9121 23.4795 21.5641C23.4795 18.2881 25.8555 16.2361 30.0675 15.9121L35.3955 15.5161V15.1201C35.3955 12.7081 33.9555 11.7361 31.7235 11.7361C29.1315 11.7361 27.6915 12.8161 27.6915 14.6881H23.9475C23.9475 10.8361 27.1155 8.31614 31.9395 8.31614C36.7275 8.31614 39.6795 10.9081 39.6795 15.8401V26.6401H35.8275L35.5035 24.0121C34.7475 25.8481 32.3355 27.1081 29.5635 27.1081ZM31.0035 23.7961C33.7035 23.7961 35.4315 22.1761 35.4315 19.4401V18.5041L31.7235 18.7921C28.9875 19.0441 27.9435 19.9441 27.9435 21.3841C27.9435 23.0041 29.0235 23.7961 31.0035 23.7961ZM55.3341 8.78414V12.8521H53.7141C50.5461 12.8521 48.5661 14.5441 48.5661 18.0001V26.6401H44.1741V8.89214H48.3141L48.5661 11.4841C49.3221 9.72014 51.0141 8.53214 53.3901 8.53214C54.0021 8.53214 54.6141 8.60414 55.3341 8.78414ZM60.683 5.29213C59.171 5.29213 57.983 4.10414 57.983 2.62813C57.983 1.15214 59.171 0.000136375 60.683 0.000136375C62.123 0.000136375 63.311 1.15214 63.311 2.62813C63.311 4.10414 62.123 5.29213 60.683 5.29213ZM58.487 26.6401V8.85614H62.879V26.6401H58.487ZM72.8886 27.1081C69.1086 27.1081 66.8046 24.9121 66.8046 21.5641C66.8046 18.2881 69.1806 16.2361 73.3926 15.9121L78.7206 15.5161V15.1201C78.7206 12.7081 77.2806 11.7361 75.0486 11.7361C72.4566 11.7361 71.0166 12.8161 71.0166 14.6881H67.2726C67.2726 10.8361 70.4406 8.31614 75.2646 8.31614C80.0526 8.31614 83.0046 10.9081 83.0046 15.8401V26.6401H79.1526L78.8286 24.0121C78.0726 25.8481 75.6606 27.1081 72.8886 27.1081ZM74.3286 23.7961C77.0286 23.7961 78.7566 22.1761 78.7566 19.4401V18.5041L75.0486 18.7921C72.3126 19.0441 71.2686 19.9441 71.2686 21.3841C71.2686 23.0041 72.3486 23.7961 74.3286 23.7961ZM91.8913 26.6401H87.4993V8.85614H91.5673L91.9273 11.1601C93.0433 9.36014 95.2033 8.31614 97.6153 8.31614C102.079 8.31614 104.383 11.0881 104.383 15.6961V26.6401H99.9913V16.7401C99.9913 13.7521 98.5153 12.3121 96.2473 12.3121C93.5473 12.3121 91.8913 14.1841 91.8913 17.0641V26.6401ZM114.927 26.6401H110.535V12.5281H107.115V8.85614H110.535V3.31214H114.927V8.85614H118.383V12.5281H114.927V26.6401ZM124.605 13.9681C123.021 13.9681 121.689 12.6721 121.689 11.1241C121.689 9.54014 123.021 8.24414 124.605 8.24414C126.189 8.24414 127.521 9.54014 127.521 11.1241C127.521 12.6721 126.189 13.9681 124.605 13.9681ZM124.605 27.0721C123.021 27.0721 121.689 25.7761 121.689 24.2281C121.689 22.6441 123.021 21.3481 124.605 21.3481C126.189 21.3481 127.521 22.6441 127.521 24.2281C127.521 25.7761 126.189 27.0721 124.605 27.0721ZM147.792 0.324136V22.3921H158.808V26.6401H143.184V0.324136H147.792ZM164.283 5.29213C162.771 5.29213 161.583 4.10414 161.583 2.62813C161.583 1.15214 162.771 0.000136375 164.283 0.000136375C165.723 0.000136375 166.911 1.15214 166.911 2.62813C166.911 4.10414 165.723 5.29213 164.283 5.29213ZM162.087 26.6401V8.85614H166.479V26.6401H162.087ZM175.588 26.6401H171.196V8.85614H175.264L175.624 11.1601C176.74 9.36014 178.9 8.31614 181.312 8.31614C185.776 8.31614 188.08 11.0881 188.08 15.6961V26.6401H183.688V16.7401C183.688 13.7521 182.212 12.3121 179.944 12.3121C177.244 12.3121 175.588 14.1841 175.588 17.0641V26.6401ZM200.532 27.1081C195.24 27.1081 191.532 23.2561 191.532 17.7481C191.532 12.1681 195.168 8.31614 200.388 8.31614C205.716 8.31614 209.1 11.8801 209.1 17.4241V18.7561L195.708 18.7921C196.032 21.9241 197.688 23.5081 200.604 23.5081C203.016 23.5081 204.6 22.5721 205.104 20.8801H209.172C208.416 24.7681 205.176 27.1081 200.532 27.1081ZM200.424 11.9161C197.832 11.9161 196.248 13.3201 195.816 15.9841H204.744C204.744 13.5361 203.052 11.9161 200.424 11.9161ZM217.911 27.1081C214.131 27.1081 211.827 24.9121 211.827 21.5641C211.827 18.2881 214.203 16.2361 218.415 15.9121L223.743 15.5161V15.1201C223.743 12.7081 222.303 11.7361 220.071 11.7361C217.479 11.7361 216.039 12.8161 216.039 14.6881H212.295C212.295 10.8361 215.463 8.31614 220.287 8.31614C225.075 8.31614 228.027 10.9081 228.027 15.8401V26.6401H224.175L223.851 24.0121C223.095 25.8481 220.683 27.1081 217.911 27.1081ZM219.351 23.7961C222.051 23.7961 223.779 22.1761 223.779 19.4401V18.5041L220.071 18.7921C217.335 19.0441 216.291 19.9441 216.291 21.3841C216.291 23.0041 217.371 23.7961 219.351 23.7961ZM243.682 8.78414V12.8521H242.062C238.894 12.8521 236.914 14.5441 236.914 18.0001V26.6401H232.522V8.89214H236.662L236.914 11.4841C237.67 9.72014 239.362 8.53214 241.738 8.53214C242.35 8.53214 242.962 8.60414 243.682 8.78414Z" fill="black"/>
</svg>
