<svg width="244" height="28" viewBox="0 0 244 28" fill="none" xmlns="http://www.w3.org/2000/svg">
<path d="M9.93565 26.64L-0.000351537 0.324014H4.89565L10.6556 15.48C11.2316 17.064 11.7356 18.612 12.3116 20.736C12.9596 18.432 13.4996 16.812 14.0036 15.48L19.6916 0.324014H24.4797L14.6876 26.64H9.93565ZM29.5632 27.108C25.7832 27.108 23.4792 24.912 23.4792 21.564C23.4792 18.288 25.8552 16.236 30.0672 15.912L35.3952 15.516V15.12C35.3952 12.708 33.9552 11.736 31.7232 11.736C29.1312 11.736 27.6912 12.816 27.6912 14.688H23.9472C23.9472 10.836 27.1152 8.31601 31.9392 8.31601C36.7272 8.31601 39.6792 10.908 39.6792 15.84V26.64H35.8272L35.5032 24.012C34.7472 25.848 32.3352 27.108 29.5632 27.108ZM31.0032 23.796C33.7032 23.796 35.4312 22.176 35.4312 19.44V18.504L31.7232 18.792C28.9872 19.044 27.9432 19.944 27.9432 21.384C27.9432 23.004 29.0232 23.796 31.0032 23.796ZM55.3339 8.78401V12.852H53.7139C50.5459 12.852 48.5659 14.544 48.5659 18V26.64H44.1739V8.89201H48.3139L48.5659 11.484C49.3219 9.72001 51.0139 8.53201 53.3899 8.53201C54.0019 8.53201 54.6139 8.60401 55.3339 8.78401ZM60.6827 5.29201C59.1707 5.29201 57.9827 4.10401 57.9827 2.62801C57.9827 1.15201 59.1707 1.43051e-05 60.6827 1.43051e-05C62.1227 1.43051e-05 63.3107 1.15201 63.3107 2.62801C63.3107 4.10401 62.1227 5.29201 60.6827 5.29201ZM58.4867 26.64V8.85601H62.8787V26.64H58.4867ZM72.8884 27.108C69.1084 27.108 66.8044 24.912 66.8044 21.564C66.8044 18.288 69.1804 16.236 73.3924 15.912L78.7204 15.516V15.12C78.7204 12.708 77.2804 11.736 75.0484 11.736C72.4564 11.736 71.0164 12.816 71.0164 14.688H67.2724C67.2724 10.836 70.4404 8.31601 75.2644 8.31601C80.0524 8.31601 83.0044 10.908 83.0044 15.84V26.64H79.1524L78.8284 24.012C78.0724 25.848 75.6604 27.108 72.8884 27.108ZM74.3284 23.796C77.0284 23.796 78.7564 22.176 78.7564 19.44V18.504L75.0484 18.792C72.3124 19.044 71.2684 19.944 71.2684 21.384C71.2684 23.004 72.3484 23.796 74.3284 23.796ZM91.8911 26.64H87.4991V8.85601H91.5671L91.9271 11.16C93.0431 9.36001 95.2031 8.31601 97.6151 8.31601C102.079 8.31601 104.383 11.088 104.383 15.696V26.64H99.9911V16.74C99.9911 13.752 98.5151 12.312 96.2471 12.312C93.5471 12.312 91.8911 14.184 91.8911 17.064V26.64ZM114.926 26.64H110.534V12.528H107.114V8.85601H110.534V3.31201H114.926V8.85601H118.382V12.528H114.926V26.64ZM124.605 13.968C123.021 13.968 121.689 12.672 121.689 11.124C121.689 9.54001 123.021 8.24401 124.605 8.24401C126.189 8.24401 127.521 9.54001 127.521 11.124C127.521 12.672 126.189 13.968 124.605 13.968ZM124.605 27.072C123.021 27.072 121.689 25.776 121.689 24.228C121.689 22.644 123.021 21.348 124.605 21.348C126.189 21.348 127.521 22.644 127.521 24.228C127.521 25.776 126.189 27.072 124.605 27.072ZM147.791 0.324014V22.392H158.807V26.64H143.183V0.324014H147.791ZM164.283 5.29201C162.771 5.29201 161.583 4.10401 161.583 2.62801C161.583 1.15201 162.771 1.43051e-05 164.283 1.43051e-05C165.723 1.43051e-05 166.911 1.15201 166.911 2.62801C166.911 4.10401 165.723 5.29201 164.283 5.29201ZM162.087 26.64V8.85601H166.479V26.64H162.087ZM175.588 26.64H171.196V8.85601H175.264L175.624 11.16C176.74 9.36001 178.9 8.31601 181.312 8.31601C185.776 8.31601 188.08 11.088 188.08 15.696V26.64H183.688V16.74C183.688 13.752 182.212 12.312 179.944 12.312C177.244 12.312 175.588 14.184 175.588 17.064V26.64ZM200.531 27.108C195.239 27.108 191.531 23.256 191.531 17.748C191.531 12.168 195.167 8.31601 200.387 8.31601C205.715 8.31601 209.099 11.88 209.099 17.424V18.756L195.707 18.792C196.031 21.924 197.687 23.508 200.603 23.508C203.015 23.508 204.599 22.572 205.103 20.88H209.171C208.415 24.768 205.175 27.108 200.531 27.108ZM200.423 11.916C197.831 11.916 196.247 13.32 195.815 15.984H204.743C204.743 13.536 203.051 11.916 200.423 11.916ZM217.911 27.108C214.131 27.108 211.827 24.912 211.827 21.564C211.827 18.288 214.203 16.236 218.415 15.912L223.743 15.516V15.12C223.743 12.708 222.303 11.736 220.071 11.736C217.479 11.736 216.039 12.816 216.039 14.688H212.295C212.295 10.836 215.463 8.31601 220.287 8.31601C225.075 8.31601 228.027 10.908 228.027 15.84V26.64H224.175L223.851 24.012C223.095 25.848 220.683 27.108 217.911 27.108ZM219.351 23.796C222.051 23.796 223.779 22.176 223.779 19.44V18.504L220.071 18.792C217.335 19.044 216.291 19.944 216.291 21.384C216.291 23.004 217.371 23.796 219.351 23.796ZM243.681 8.78401V12.852H242.061C238.893 12.852 236.913 14.544 236.913 18V26.64H232.521V8.89201H236.661L236.913 11.484C237.669 9.72001 239.361 8.53201 241.737 8.53201C242.349 8.53201 242.961 8.60401 243.681 8.78401Z" fill="black"/>
</svg>
