<svg width="24" height="24" viewBox="0 0 24 24" fill="none" xmlns="http://www.w3.org/2000/svg">
<path opacity="0.4" d="M7.35 3.86035H16.65C20.75 3.86035 22 5.11035 22 9.21035V14.7904C22 18.8904 20.75 20.1404 16.65 20.1404H7.35C3.25 20.1404 2 18.8904 2 14.7904V9.21035C2 5.11035 3.25 3.86035 7.35 3.86035Z" fill="#1A1A1A"/>
<path d="M13.21 7.58008H15.44C17.69 7.58008 18.74 8.63008 18.74 10.8801V13.1101C18.74 15.3601 17.69 16.4101 15.44 16.4101H13.21C10.96 16.4101 9.91003 15.3601 9.91003 13.1101V10.8801C9.91003 8.63008 10.96 7.58008 13.21 7.58008Z" fill="#1A1A1A"/>
</svg>
