<svg width="2250" height="28" viewBox="0 0 2250 28" fill="none" xmlns="http://www.w3.org/2000/svg">
<path d="M9.60405 20.9159C3.83605 20.9159 5.0813e-05 16.7719 5.0813e-05 10.4999C5.0813e-05 4.25591 3.94805 0.0279098 9.74405 0.0279098C14.3081 0.0279098 17.8081 2.74391 18.5641 6.88791H15.6241C14.8681 4.25591 12.6001 2.65991 9.66005 2.65991C5.57205 2.65991 2.88405 5.73991 2.88405 10.4719C2.88405 15.2039 5.57205 18.2839 9.66005 18.2839C12.6281 18.2839 14.9801 16.6879 15.7361 14.1959H18.6481C17.7801 18.2279 14.1681 20.9159 9.60405 20.9159ZM20.8086 13.7479C20.8086 9.51991 23.8326 6.55191 27.9486 6.55191C32.0366 6.55191 35.0606 9.51991 35.0606 13.7479C35.0606 17.9759 32.0366 20.9439 27.9486 20.9439C23.8326 20.9439 20.8086 17.9759 20.8086 13.7479ZM23.4686 13.7479C23.4686 16.6039 25.2886 18.5919 27.9486 18.5919C30.5806 18.5919 32.4286 16.6039 32.4286 13.7479C32.4286 10.8919 30.5806 8.90391 27.9486 8.90391C25.2886 8.90391 23.4686 10.8919 23.4686 13.7479ZM45.9542 6.80391V9.21191H44.7782C42.2862 9.21191 40.7462 10.7239 40.7462 13.3559V20.6079H38.1142V6.94391H40.5782L40.7462 9.01591C41.3062 7.58791 42.6782 6.63591 44.5542 6.63591C45.0302 6.63591 45.4222 6.69191 45.9542 6.80391ZM53.9786 20.9439C49.9466 20.9439 47.1746 18.0319 47.1746 13.7759C47.1746 9.49191 49.8906 6.52391 53.8666 6.52391C57.7586 6.52391 60.3066 9.21191 60.3066 13.2719V14.2519L49.7226 14.2799C49.9186 17.1639 51.4306 18.7599 54.0346 18.7599C56.0786 18.7599 57.4226 17.9199 57.8706 16.3519H60.3346C59.6626 19.2919 57.3666 20.9439 53.9786 20.9439ZM53.8666 8.73591C51.5706 8.73591 50.1146 10.1079 49.7786 12.5159H57.6746C57.6746 10.2479 56.1906 8.73591 53.8666 8.73591ZM71.4906 13.4119V0.363909H74.2346V13.2439C74.2346 16.4919 76.0266 18.2839 79.2466 18.2839C82.4386 18.2839 84.2026 16.4639 84.2026 13.2439V0.363909H86.9746V13.4119C86.9746 18.0599 84.0066 20.9439 79.2466 20.9439C74.4586 20.9439 71.4906 18.0879 71.4906 13.4119ZM94.4209 0.363909V20.6079H91.6769V0.363909H94.4209ZM107.918 3.66791C106.966 3.66791 106.182 2.88391 106.182 1.93191C106.182 0.95191 106.966 0.195909 107.918 0.195909C108.87 0.195909 109.654 0.95191 109.654 1.93191C109.654 2.88391 108.87 3.66791 107.918 3.66791ZM106.63 20.6079V6.91591H109.262V20.6079H106.63ZM112.327 13.7759C112.327 9.49191 115.043 6.52391 119.047 6.52391C122.491 6.52391 124.899 8.48391 125.375 11.5359H122.743C122.295 9.79991 120.895 8.87591 119.131 8.87591C116.639 8.87591 114.931 10.7799 114.931 13.7479C114.931 16.6879 116.527 18.5919 119.019 18.5919C120.895 18.5919 122.295 17.6119 122.771 15.9879H125.403C124.871 18.9559 122.323 20.9439 119.019 20.9439C114.987 20.9439 112.327 18.0879 112.327 13.7759ZM127.424 13.7479C127.424 9.51991 130.448 6.55191 134.564 6.55191C138.652 6.55191 141.676 9.51991 141.676 13.7479C141.676 17.9759 138.652 20.9439 134.564 20.9439C130.448 20.9439 127.424 17.9759 127.424 13.7479ZM130.084 13.7479C130.084 16.6039 131.904 18.5919 134.564 18.5919C137.196 18.5919 139.044 16.6039 139.044 13.7479C139.044 10.8919 137.196 8.90391 134.564 8.90391C131.904 8.90391 130.084 10.8919 130.084 13.7479ZM147.362 20.6079H144.73V6.91591H147.11L147.39 9.01591C148.258 7.44791 149.994 6.52391 151.926 6.52391C155.538 6.52391 157.19 8.73591 157.19 12.2359V20.6079H154.558V12.8239C154.558 10.0519 153.27 8.93191 151.254 8.93191C148.79 8.93191 147.362 10.6959 147.362 13.3559V20.6079ZM159.691 16.6319H162.211C162.211 18.0319 163.275 18.8719 165.011 18.8719C166.859 18.8719 167.923 18.1159 167.923 16.8559C167.923 15.9319 167.475 15.3719 166.047 15.0079L163.639 14.4479C161.203 13.8599 160.055 12.6559 160.055 10.6399C160.055 8.11991 162.183 6.52391 165.207 6.52391C168.203 6.52391 170.163 8.20391 170.219 10.8079H167.699C167.643 9.43591 166.719 8.56791 165.123 8.56791C163.471 8.56791 162.547 9.29591 162.547 10.5559C162.547 11.4799 163.219 12.0959 164.563 12.4319L166.971 13.0199C169.295 13.5799 170.443 14.6439 170.443 16.6879C170.443 19.2919 168.203 20.9439 164.955 20.9439C161.735 20.9439 159.691 19.2359 159.691 16.6319ZM180.402 13.7759C180.402 9.49191 183.118 6.52391 187.122 6.52391C190.566 6.52391 192.974 8.48391 193.45 11.5359H190.818C190.37 9.79991 188.97 8.87591 187.206 8.87591C184.714 8.87591 183.006 10.7799 183.006 13.7479C183.006 16.6879 184.602 18.5919 187.094 18.5919C188.97 18.5919 190.37 17.6119 190.846 15.9879H193.478C192.946 18.9559 190.398 20.9439 187.094 20.9439C183.062 20.9439 180.402 18.0879 180.402 13.7759ZM195.499 13.7479C195.499 9.51991 198.523 6.55191 202.639 6.55191C206.727 6.55191 209.751 9.51991 209.751 13.7479C209.751 17.9759 206.727 20.9439 202.639 20.9439C198.523 20.9439 195.499 17.9759 195.499 13.7479ZM198.159 13.7479C198.159 16.6039 199.979 18.5919 202.639 18.5919C205.271 18.5919 207.119 16.6039 207.119 13.7479C207.119 10.8919 205.271 8.90391 202.639 8.90391C199.979 8.90391 198.159 10.8919 198.159 13.7479ZM216.012 20.6079L210.496 6.91591H213.296L216.292 14.5599C216.768 15.8479 217.16 16.9959 217.384 17.8359C217.608 16.9399 218.056 15.7639 218.532 14.5599L221.584 6.91591H224.328L218.616 20.6079H216.012ZM231.841 20.9439C227.809 20.9439 225.037 18.0319 225.037 13.7759C225.037 9.49191 227.753 6.52391 231.729 6.52391C235.621 6.52391 238.169 9.21191 238.169 13.2719V14.2519L227.585 14.2799C227.781 17.1639 229.293 18.7599 231.897 18.7599C233.941 18.7599 235.285 17.9199 235.733 16.3519H238.197C237.525 19.2919 235.229 20.9439 231.841 20.9439ZM231.729 8.73591C229.433 8.73591 227.977 10.1079 227.641 12.5159H235.537C235.537 10.2479 234.053 8.73591 231.729 8.73591ZM249.089 6.80391V9.21191H247.913C245.421 9.21191 243.881 10.7239 243.881 13.3559V20.6079H241.249V6.94391H243.713L243.881 9.01591C244.441 7.58791 245.813 6.63591 247.689 6.63591C248.165 6.63591 248.557 6.69191 249.089 6.80391ZM252.985 3.66791C252.033 3.66791 251.249 2.88391 251.249 1.93191C251.249 0.95191 252.033 0.195909 252.985 0.195909C253.937 0.195909 254.721 0.95191 254.721 1.93191C254.721 2.88391 253.937 3.66791 252.985 3.66791ZM251.697 20.6079V6.91591H254.329V20.6079H251.697ZM260.922 20.6079H258.29V6.91591H260.67L260.95 9.01591C261.818 7.44791 263.554 6.52391 265.486 6.52391C269.098 6.52391 270.75 8.73591 270.75 12.2359V20.6079H268.118V12.8239C268.118 10.0519 266.83 8.93191 264.814 8.93191C262.35 8.93191 260.922 10.6959 260.922 13.3559V20.6079ZM273.668 13.4119C273.668 9.54791 276.16 6.52391 280.136 6.52391C282.348 6.52391 284.056 7.53191 284.924 9.23991L285.12 6.91591H287.472V20.0479C287.472 24.3599 284.812 27.1039 280.612 27.1039C276.888 27.1039 274.34 25.0039 273.836 21.5319H276.468C276.804 23.5479 278.316 24.7239 280.612 24.7239C283.188 24.7239 284.868 23.0439 284.868 20.4399V17.6959C283.972 19.2919 282.18 20.2439 280.024 20.2439C276.132 20.2439 273.668 17.2479 273.668 13.4119ZM276.3 13.3559C276.3 15.9319 277.896 17.9479 280.472 17.9479C283.132 17.9479 284.756 16.0439 284.756 13.3559C284.756 10.7239 283.188 8.81991 280.5 8.81991C277.868 8.81991 276.3 10.8359 276.3 13.3559ZM298.311 13.7759C298.311 9.49191 301.027 6.52391 305.031 6.52391C308.475 6.52391 310.883 8.48391 311.359 11.5359H308.727C308.279 9.79991 306.879 8.87591 305.115 8.87591C302.623 8.87591 300.915 10.7799 300.915 13.7479C300.915 16.6879 302.511 18.5919 305.003 18.5919C306.879 18.5919 308.279 17.6119 308.755 15.9879H311.387C310.855 18.9559 308.307 20.9439 305.003 20.9439C300.971 20.9439 298.311 18.0879 298.311 13.7759ZM313.408 13.7479C313.408 9.51991 316.432 6.55191 320.548 6.55191C324.636 6.55191 327.66 9.51991 327.66 13.7479C327.66 17.9759 324.636 20.9439 320.548 20.9439C316.432 20.9439 313.408 17.9759 313.408 13.7479ZM316.068 13.7479C316.068 16.6039 317.888 18.5919 320.548 18.5919C323.18 18.5919 325.028 16.6039 325.028 13.7479C325.028 10.8919 323.18 8.90391 320.548 8.90391C317.888 8.90391 316.068 10.8919 316.068 13.7479ZM333.345 20.6079H330.713V6.91591H333.065L333.317 8.70791C334.017 7.41991 335.473 6.52391 337.405 6.52391C339.533 6.52391 341.045 7.58791 341.745 9.29591C342.389 7.58791 344.041 6.52391 346.169 6.52391C349.305 6.52391 351.209 8.48391 351.209 11.6479V20.6079H348.633V12.2919C348.633 10.1359 347.429 8.90391 345.581 8.90391C343.593 8.90391 342.277 10.3039 342.277 12.4879V20.6079H339.673V12.2639C339.673 10.1079 338.497 8.93191 336.649 8.93191C334.661 8.93191 333.345 10.3039 333.345 12.4879V20.6079ZM357.63 20.6079H354.998V6.91591H357.35L357.602 8.70791C358.302 7.41991 359.758 6.52391 361.69 6.52391C363.818 6.52391 365.33 7.58791 366.03 9.29591C366.674 7.58791 368.326 6.52391 370.454 6.52391C373.59 6.52391 375.494 8.48391 375.494 11.6479V20.6079H372.918V12.2919C372.918 10.1359 371.714 8.90391 369.866 8.90391C367.878 8.90391 366.562 10.3039 366.562 12.4879V20.6079H363.958V12.2639C363.958 10.1079 362.782 8.93191 360.934 8.93191C358.946 8.93191 357.63 10.3039 357.63 12.4879V20.6079ZM378.386 13.7479C378.386 9.51991 381.41 6.55191 385.526 6.55191C389.614 6.55191 392.638 9.51991 392.638 13.7479C392.638 17.9759 389.614 20.9439 385.526 20.9439C381.41 20.9439 378.386 17.9759 378.386 13.7479ZM381.046 13.7479C381.046 16.6039 382.866 18.5919 385.526 18.5919C388.158 18.5919 390.006 16.6039 390.006 13.7479C390.006 10.8919 388.158 8.90391 385.526 8.90391C382.866 8.90391 381.046 10.8919 381.046 13.7479ZM398.324 20.6079H395.692V6.91591H398.072L398.352 9.01591C399.22 7.44791 400.956 6.52391 402.888 6.52391C406.5 6.52391 408.152 8.73591 408.152 12.2359V20.6079H405.52V12.8239C405.52 10.0519 404.232 8.93191 402.216 8.93191C399.752 8.93191 398.324 10.6959 398.324 13.3559V20.6079ZM423.737 20.9439C420.797 20.9439 419.061 19.2919 419.061 16.7999C419.061 14.2799 420.937 12.7119 424.157 12.4599L428.469 12.1239V11.7319C428.469 9.43591 427.097 8.62391 425.249 8.62391C423.037 8.62391 421.777 9.60391 421.777 11.2559H419.481C419.481 8.39991 421.833 6.52391 425.361 6.52391C428.749 6.52391 431.045 8.31591 431.045 12.0119V20.6079H428.805L428.525 18.3959C427.825 19.9639 425.949 20.9439 423.737 20.9439ZM424.493 18.8999C426.985 18.8999 428.497 17.2759 428.497 14.6999V13.9719L424.997 14.2519C422.673 14.4759 421.721 15.3719 421.721 16.7159C421.721 18.1719 422.785 18.8999 424.493 18.8999ZM433.934 13.7759C433.934 9.49191 436.65 6.52391 440.654 6.52391C444.098 6.52391 446.506 8.48391 446.982 11.5359H444.35C443.902 9.79991 442.502 8.87591 440.738 8.87591C438.246 8.87591 436.538 10.7799 436.538 13.7479C436.538 16.6879 438.134 18.5919 440.626 18.5919C442.502 18.5919 443.902 17.6119 444.378 15.9879H447.01C446.478 18.9559 443.93 20.9439 440.626 20.9439C436.594 20.9439 433.934 18.0879 433.934 13.7759ZM453.791 20.6079H451.159V9.12791H448.471V6.91591H451.159V2.63191H453.791V6.91591H456.479V9.12791H453.791V20.6079ZM460.27 3.66791C459.318 3.66791 458.534 2.88391 458.534 1.93191C458.534 0.95191 459.318 0.195909 460.27 0.195909C461.222 0.195909 462.006 0.95191 462.006 1.93191C462.006 2.88391 461.222 3.66791 460.27 3.66791ZM458.982 20.6079V6.91591H461.614V20.6079H458.982ZM464.679 13.7479C464.679 9.51991 467.703 6.55191 471.819 6.55191C475.907 6.55191 478.931 9.51991 478.931 13.7479C478.931 17.9759 475.907 20.9439 471.819 20.9439C467.703 20.9439 464.679 17.9759 464.679 13.7479ZM467.339 13.7479C467.339 16.6039 469.159 18.5919 471.819 18.5919C474.451 18.5919 476.299 16.6039 476.299 13.7479C476.299 10.8919 474.451 8.90391 471.819 8.90391C469.159 8.90391 467.339 10.8919 467.339 13.7479ZM484.616 20.6079H481.984V6.91591H484.364L484.644 9.01591C485.512 7.44791 487.248 6.52391 489.18 6.52391C492.792 6.52391 494.444 8.73591 494.444 12.2359V20.6079H491.812V12.8239C491.812 10.0519 490.524 8.93191 488.508 8.93191C486.044 8.93191 484.616 10.6959 484.616 13.3559V20.6079ZM496.946 16.6319H499.466C499.466 18.0319 500.53 18.8719 502.266 18.8719C504.114 18.8719 505.178 18.1159 505.178 16.8559C505.178 15.9319 504.73 15.3719 503.302 15.0079L500.894 14.4479C498.458 13.8599 497.31 12.6559 497.31 10.6399C497.31 8.11991 499.438 6.52391 502.462 6.52391C505.458 6.52391 507.418 8.20391 507.474 10.8079H504.954C504.898 9.43591 503.974 8.56791 502.378 8.56791C500.726 8.56791 499.802 9.29591 499.802 10.5559C499.802 11.4799 500.474 12.0959 501.818 12.4319L504.226 13.0199C506.55 13.5799 507.698 14.6439 507.698 16.6879C507.698 19.2919 505.458 20.9439 502.21 20.9439C498.99 20.9439 496.946 19.2359 496.946 16.6319ZM522.557 20.9439C519.617 20.9439 517.881 19.2919 517.881 16.7999C517.881 14.2799 519.757 12.7119 522.977 12.4599L527.289 12.1239V11.7319C527.289 9.43591 525.917 8.62391 524.069 8.62391C521.857 8.62391 520.597 9.60391 520.597 11.2559H518.301C518.301 8.39991 520.653 6.52391 524.181 6.52391C527.569 6.52391 529.865 8.31591 529.865 12.0119V20.6079H527.625L527.345 18.3959C526.645 19.9639 524.769 20.9439 522.557 20.9439ZM523.313 18.8999C525.805 18.8999 527.317 17.2759 527.317 14.6999V13.9719L523.817 14.2519C521.493 14.4759 520.541 15.3719 520.541 16.7159C520.541 18.1719 521.605 18.8999 523.313 18.8999ZM536.282 20.6079H533.65V6.91591H536.03L536.31 9.01591C537.178 7.44791 538.914 6.52391 540.846 6.52391C544.458 6.52391 546.11 8.73591 546.11 12.2359V20.6079H543.478V12.8239C543.478 10.0519 542.19 8.93191 540.174 8.93191C537.71 8.93191 536.282 10.6959 536.282 13.3559V20.6079ZM555.383 20.9439C551.407 20.9439 548.999 17.9759 548.999 13.8039C548.999 9.60391 551.435 6.52391 555.495 6.52391C557.595 6.52391 559.359 7.44791 560.283 9.12791V-9.15527e-05H562.887V20.6079H560.535L560.311 18.1159C559.415 19.9919 557.567 20.9439 555.383 20.9439ZM555.915 18.5639C558.603 18.5639 560.255 16.5759 560.255 13.7199C560.255 10.9199 558.603 8.90391 555.915 8.90391C553.227 8.90391 551.659 10.9199 551.659 13.7199C551.659 16.5479 553.227 18.5639 555.915 18.5639ZM573.5 16.6319H576.02C576.02 18.0319 577.084 18.8719 578.82 18.8719C580.668 18.8719 581.732 18.1159 581.732 16.8559C581.732 15.9319 581.284 15.3719 579.856 15.0079L577.448 14.4479C575.012 13.8599 573.864 12.6559 573.864 10.6399C573.864 8.11991 575.992 6.52391 579.016 6.52391C582.012 6.52391 583.972 8.20391 584.028 10.8079H581.508C581.452 9.43591 580.528 8.56791 578.932 8.56791C577.28 8.56791 576.356 9.29591 576.356 10.5559C576.356 11.4799 577.028 12.0959 578.372 12.4319L580.78 13.0199C583.104 13.5799 584.252 14.6439 584.252 16.6879C584.252 19.2919 582.012 20.9439 578.764 20.9439C575.544 20.9439 573.5 19.2359 573.5 16.6319ZM591.175 20.6079H588.543V9.12791H585.855V6.91591H588.543V2.63191H591.175V6.91591H593.863V9.12791H591.175V20.6079ZM600.205 20.9439C597.265 20.9439 595.529 19.2919 595.529 16.7999C595.529 14.2799 597.405 12.7119 600.625 12.4599L604.937 12.1239V11.7319C604.937 9.43591 603.565 8.62391 601.717 8.62391C599.505 8.62391 598.245 9.60391 598.245 11.2559H595.949C595.949 8.39991 598.301 6.52391 601.829 6.52391C605.217 6.52391 607.513 8.31591 607.513 12.0119V20.6079H605.273L604.993 18.3959C604.293 19.9639 602.417 20.9439 600.205 20.9439ZM600.961 18.8999C603.453 18.8999 604.965 17.2759 604.965 14.6999V13.9719L601.465 14.2519C599.141 14.4759 598.189 15.3719 598.189 16.7159C598.189 18.1719 599.253 18.8999 600.961 18.8999ZM614.943 20.6079H612.311V9.12791H609.623V6.91591H612.311V2.63191H614.943V6.91591H617.631V9.12791H614.943V20.6079ZM625.905 20.9439C621.873 20.9439 619.101 18.0319 619.101 13.7759C619.101 9.49191 621.817 6.52391 625.793 6.52391C629.685 6.52391 632.233 9.21191 632.233 13.2719V14.2519L621.649 14.2799C621.845 17.1639 623.357 18.7599 625.961 18.7599C628.005 18.7599 629.349 17.9199 629.797 16.3519H632.261C631.589 19.2919 629.293 20.9439 625.905 20.9439ZM625.793 8.73591C623.497 8.73591 622.041 10.1079 621.705 12.5159H629.601C629.601 10.2479 628.117 8.73591 625.793 8.73591ZM634.193 16.6319H636.713C636.713 18.0319 637.777 18.8719 639.513 18.8719C641.361 18.8719 642.425 18.1159 642.425 16.8559C642.425 15.9319 641.977 15.3719 640.549 15.0079L638.141 14.4479C635.705 13.8599 634.557 12.6559 634.557 10.6399C634.557 8.11991 636.685 6.52391 639.709 6.52391C642.705 6.52391 644.665 8.20391 644.721 10.8079H642.201C642.145 9.43591 641.221 8.56791 639.625 8.56791C637.973 8.56791 637.049 9.29591 637.049 10.5559C637.049 11.4799 637.721 12.0959 639.065 12.4319L641.473 13.0199C643.797 13.5799 644.945 14.6439 644.945 16.6879C644.945 19.2919 642.705 20.9439 639.457 20.9439C636.237 20.9439 634.193 19.2359 634.193 16.6319ZM651.787 19.5159C651.787 21.5319 650.275 23.2119 648.287 23.4639V22.2879C649.435 22.0919 650.247 21.3359 650.247 20.4679C650.051 20.5799 649.827 20.6359 649.491 20.6359C648.567 20.6359 647.783 19.9639 647.783 18.9279C647.783 17.8079 648.539 16.9959 649.659 16.9959C650.835 16.9959 651.787 17.9759 651.787 19.5159ZM669.002 20.9439C665.026 20.9439 662.618 17.9759 662.618 13.8039C662.618 9.60391 665.054 6.52391 669.114 6.52391C671.214 6.52391 672.978 7.44791 673.902 9.12791V-9.15527e-05H676.506V20.6079H674.154L673.93 18.1159C673.034 19.9919 671.186 20.9439 669.002 20.9439ZM669.534 18.5639C672.222 18.5639 673.874 16.5759 673.874 13.7199C673.874 10.9199 672.222 8.90391 669.534 8.90391C666.846 8.90391 665.278 10.9199 665.278 13.7199C665.278 16.5479 666.846 18.5639 669.534 18.5639ZM686.351 20.9439C682.319 20.9439 679.547 18.0319 679.547 13.7759C679.547 9.49191 682.263 6.52391 686.239 6.52391C690.131 6.52391 692.679 9.21191 692.679 13.2719V14.2519L682.095 14.2799C682.291 17.1639 683.803 18.7599 686.407 18.7599C688.451 18.7599 689.795 17.9199 690.243 16.3519H692.707C692.035 19.2919 689.739 20.9439 686.351 20.9439ZM686.239 8.73591C683.943 8.73591 682.487 10.1079 682.151 12.5159H690.047C690.047 10.2479 688.563 8.73591 686.239 8.73591ZM694.639 16.6319H697.159C697.159 18.0319 698.223 18.8719 699.959 18.8719C701.807 18.8719 702.871 18.1159 702.871 16.8559C702.871 15.9319 702.423 15.3719 700.995 15.0079L698.587 14.4479C696.151 13.8599 695.003 12.6559 695.003 10.6399C695.003 8.11991 697.131 6.52391 700.155 6.52391C703.151 6.52391 705.111 8.20391 705.167 10.8079H702.647C702.591 9.43591 701.667 8.56791 700.071 8.56791C698.419 8.56791 697.495 9.29591 697.495 10.5559C697.495 11.4799 698.167 12.0959 699.511 12.4319L701.919 13.0199C704.243 13.5799 705.391 14.6439 705.391 16.6879C705.391 19.2919 703.151 20.9439 699.903 20.9439C696.683 20.9439 694.639 19.2359 694.639 16.6319ZM709.737 3.66791C708.785 3.66791 708.001 2.88391 708.001 1.93191C708.001 0.95191 708.785 0.195909 709.737 0.195909C710.689 0.195909 711.473 0.95191 711.473 1.93191C711.473 2.88391 710.689 3.66791 709.737 3.66791ZM708.449 20.6079V6.91591H711.081V20.6079H708.449ZM714.175 13.4119C714.175 9.54791 716.667 6.52391 720.643 6.52391C722.855 6.52391 724.563 7.53191 725.431 9.23991L725.627 6.91591H727.979V20.0479C727.979 24.3599 725.319 27.1039 721.119 27.1039C717.395 27.1039 714.847 25.0039 714.343 21.5319H716.975C717.311 23.5479 718.823 24.7239 721.119 24.7239C723.695 24.7239 725.375 23.0439 725.375 20.4399V17.6959C724.479 19.2919 722.687 20.2439 720.531 20.2439C716.639 20.2439 714.175 17.2479 714.175 13.4119ZM716.807 13.3559C716.807 15.9319 718.403 17.9479 720.979 17.9479C723.639 17.9479 725.263 16.0439 725.263 13.3559C725.263 10.7239 723.695 8.81991 721.007 8.81991C718.375 8.81991 716.807 10.8359 716.807 13.3559ZM734.549 20.6079H731.917V6.91591H734.297L734.577 9.01591C735.445 7.44791 737.181 6.52391 739.113 6.52391C742.725 6.52391 744.377 8.73591 744.377 12.2359V20.6079H741.745V12.8239C741.745 10.0519 740.457 8.93191 738.441 8.93191C735.977 8.93191 734.549 10.6959 734.549 13.3559V20.6079ZM754.07 20.9439C750.038 20.9439 747.266 18.0319 747.266 13.7759C747.266 9.49191 749.982 6.52391 753.958 6.52391C757.85 6.52391 760.398 9.21191 760.398 13.2719V14.2519L749.814 14.2799C750.01 17.1639 751.522 18.7599 754.126 18.7599C756.17 18.7599 757.514 17.9199 757.962 16.3519H760.426C759.754 19.2919 757.458 20.9439 754.07 20.9439ZM753.958 8.73591C751.662 8.73591 750.206 10.1079 749.87 12.5159H757.766C757.766 10.2479 756.282 8.73591 753.958 8.73591ZM768.966 20.9439C764.99 20.9439 762.582 17.9759 762.582 13.8039C762.582 9.60391 765.018 6.52391 769.078 6.52391C771.178 6.52391 772.942 7.44791 773.866 9.12791V-9.15527e-05H776.47V20.6079H774.118L773.894 18.1159C772.998 19.9919 771.15 20.9439 768.966 20.9439ZM769.498 18.5639C772.186 18.5639 773.838 16.5759 773.838 13.7199C773.838 10.9199 772.186 8.90391 769.498 8.90391C766.81 8.90391 765.242 10.9199 765.242 13.7199C765.242 16.5479 766.81 18.5639 769.498 18.5639ZM786.748 6.91591H788.764V4.73191C788.764 1.37191 790.612 -9.15527e-05 793.104 -9.15527e-05C793.608 -9.15527e-05 794.196 0.0279098 794.728 0.111909V2.37991H793.552C791.844 2.37991 791.396 3.24791 791.396 4.73191V6.91591H794.644V9.12791H791.396V20.6079H788.764V9.12791H786.748V6.91591ZM795.924 13.7479C795.924 9.51991 798.948 6.55191 803.064 6.55191C807.152 6.55191 810.176 9.51991 810.176 13.7479C810.176 17.9759 807.152 20.9439 803.064 20.9439C798.948 20.9439 795.924 17.9759 795.924 13.7479ZM798.584 13.7479C798.584 16.6039 800.404 18.5919 803.064 18.5919C805.696 18.5919 807.544 16.6039 807.544 13.7479C807.544 10.8919 805.696 8.90391 803.064 8.90391C800.404 8.90391 798.584 10.8919 798.584 13.7479ZM821.07 6.80391V9.21191H819.894C817.402 9.21191 815.862 10.7239 815.862 13.3559V20.6079H813.23V6.94391H815.694L815.862 9.01591C816.422 7.58791 817.794 6.63591 819.67 6.63591C820.146 6.63591 820.538 6.69191 821.07 6.80391ZM836.962 20.9439C832.986 20.9439 830.578 17.9759 830.578 13.8039C830.578 9.60391 833.014 6.52391 837.074 6.52391C839.174 6.52391 840.938 7.44791 841.862 9.12791V-9.15527e-05H844.466V20.6079H842.114L841.89 18.1159C840.994 19.9919 839.146 20.9439 836.962 20.9439ZM837.494 18.5639C840.182 18.5639 841.834 16.5759 841.834 13.7199C841.834 10.9199 840.182 8.90391 837.494 8.90391C834.806 8.90391 833.238 10.9199 833.238 13.7199C833.238 16.5479 834.806 18.5639 837.494 18.5639ZM852.408 20.9439C849.468 20.9439 847.732 19.2919 847.732 16.7999C847.732 14.2799 849.608 12.7119 852.828 12.4599L857.14 12.1239V11.7319C857.14 9.43591 855.768 8.62391 853.92 8.62391C851.708 8.62391 850.448 9.60391 850.448 11.2559H848.152C848.152 8.39991 850.504 6.52391 854.032 6.52391C857.42 6.52391 859.716 8.31591 859.716 12.0119V20.6079H857.476L857.196 18.3959C856.496 19.9639 854.62 20.9439 852.408 20.9439ZM853.164 18.8999C855.656 18.8999 857.168 17.2759 857.168 14.6999V13.9719L853.668 14.2519C851.344 14.4759 850.392 15.3719 850.392 16.7159C850.392 18.1719 851.456 18.8999 853.164 18.8999ZM862.381 16.6319H864.901C864.901 18.0319 865.965 18.8719 867.701 18.8719C869.549 18.8719 870.613 18.1159 870.613 16.8559C870.613 15.9319 870.165 15.3719 868.737 15.0079L866.329 14.4479C863.893 13.8599 862.745 12.6559 862.745 10.6399C862.745 8.11991 864.873 6.52391 867.897 6.52391C870.893 6.52391 872.853 8.20391 872.909 10.8079H870.389C870.333 9.43591 869.409 8.56791 867.813 8.56791C866.161 8.56791 865.237 9.29591 865.237 10.5559C865.237 11.4799 865.909 12.0959 867.253 12.4319L869.661 13.0199C871.985 13.5799 873.133 14.6439 873.133 16.6879C873.133 19.2919 870.893 20.9439 867.645 20.9439C864.425 20.9439 862.381 19.2359 862.381 16.6319ZM878.823 20.5799H876.191V-9.15527e-05H878.823V9.01591C879.691 7.53191 881.343 6.52391 883.471 6.52391C886.971 6.52391 888.651 8.73591 888.651 12.2359V20.6079H886.019V12.8239C886.019 10.0519 884.703 8.93191 882.743 8.93191C880.195 8.93191 878.823 10.7799 878.823 13.1319V20.5799ZM894.817 20.6079H892.437V-9.15527e-05H895.069V9.26791C895.965 7.47591 897.813 6.52391 900.053 6.52391C903.973 6.52391 906.325 9.60391 906.325 13.8319C906.325 17.9759 903.861 20.9439 899.885 20.9439C897.729 20.9439 895.909 19.9919 895.013 18.1159L894.817 20.6079ZM895.097 13.7199C895.097 16.5759 896.721 18.5639 899.409 18.5639C902.097 18.5639 903.693 16.5479 903.693 13.7199C903.693 10.9199 902.097 8.90391 899.409 8.90391C896.721 8.90391 895.097 10.9199 895.097 13.7199ZM908.47 13.7479C908.47 9.51991 911.494 6.55191 915.61 6.55191C919.698 6.55191 922.722 9.51991 922.722 13.7479C922.722 17.9759 919.698 20.9439 915.61 20.9439C911.494 20.9439 908.47 17.9759 908.47 13.7479ZM911.13 13.7479C911.13 16.6039 912.95 18.5919 915.61 18.5919C918.242 18.5919 920.09 16.6039 920.09 13.7479C920.09 10.8919 918.242 8.90391 915.61 8.90391C912.95 8.90391 911.13 10.8919 911.13 13.7479ZM929.779 20.9439C926.839 20.9439 925.103 19.2919 925.103 16.7999C925.103 14.2799 926.979 12.7119 930.199 12.4599L934.511 12.1239V11.7319C934.511 9.43591 933.139 8.62391 931.291 8.62391C929.079 8.62391 927.819 9.60391 927.819 11.2559H925.523C925.523 8.39991 927.875 6.52391 931.403 6.52391C934.791 6.52391 937.087 8.31591 937.087 12.0119V20.6079H934.847L934.567 18.3959C933.867 19.9639 931.991 20.9439 929.779 20.9439ZM930.535 18.8999C933.027 18.8999 934.539 17.2759 934.539 14.6999V13.9719L931.039 14.2519C928.715 14.4759 927.763 15.3719 927.763 16.7159C927.763 18.1719 928.827 18.8999 930.535 18.8999ZM948.712 6.80391V9.21191H947.536C945.044 9.21191 943.504 10.7239 943.504 13.3559V20.6079H940.872V6.94391H943.336L943.504 9.01591C944.064 7.58791 945.436 6.63591 947.312 6.63591C947.788 6.63591 948.18 6.69191 948.712 6.80391ZM956.317 20.9439C952.341 20.9439 949.933 17.9759 949.933 13.8039C949.933 9.60391 952.369 6.52391 956.429 6.52391C958.529 6.52391 960.293 7.44791 961.217 9.12791V-9.15527e-05H963.821V20.6079H961.469L961.245 18.1159C960.349 19.9919 958.501 20.9439 956.317 20.9439ZM956.849 18.5639C959.537 18.5639 961.189 16.5759 961.189 13.7199C961.189 10.9199 959.537 8.90391 956.849 8.90391C954.161 8.90391 952.593 10.9199 952.593 13.7199C952.593 16.5479 954.161 18.5639 956.849 18.5639ZM966.638 16.6319H969.158C969.158 18.0319 970.222 18.8719 971.958 18.8719C973.806 18.8719 974.87 18.1159 974.87 16.8559C974.87 15.9319 974.422 15.3719 972.994 15.0079L970.586 14.4479C968.15 13.8599 967.002 12.6559 967.002 10.6399C967.002 8.11991 969.13 6.52391 972.154 6.52391C975.15 6.52391 977.11 8.20391 977.166 10.8079H974.646C974.59 9.43591 973.666 8.56791 972.07 8.56791C970.418 8.56791 969.494 9.29591 969.494 10.5559C969.494 11.4799 970.166 12.0959 971.51 12.4319L973.918 13.0199C976.242 13.5799 977.39 14.6439 977.39 16.6879C977.39 19.2919 975.15 20.9439 971.902 20.9439C968.682 20.9439 966.638 19.2359 966.638 16.6319ZM984.233 19.5159C984.233 21.5319 982.721 23.2119 980.733 23.4639V22.2879C981.881 22.0919 982.693 21.3359 982.693 20.4679C982.497 20.5799 982.273 20.6359 981.937 20.6359C981.013 20.6359 980.229 19.9639 980.229 18.9279C980.229 17.8079 980.985 16.9959 982.105 16.9959C983.281 16.9959 984.233 17.9759 984.233 19.5159ZM999.963 20.9439C997.023 20.9439 995.287 19.2919 995.287 16.7999C995.287 14.2799 997.163 12.7119 1000.38 12.4599L1004.7 12.1239V11.7319C1004.7 9.43591 1003.32 8.62391 1001.48 8.62391C999.263 8.62391 998.003 9.60391 998.003 11.2559H995.707C995.707 8.39991 998.059 6.52391 1001.59 6.52391C1004.98 6.52391 1007.27 8.31591 1007.27 12.0119V20.6079H1005.03L1004.75 18.3959C1004.05 19.9639 1002.18 20.9439 999.963 20.9439ZM1000.72 18.8999C1003.21 18.8999 1004.72 17.2759 1004.72 14.6999V13.9719L1001.22 14.2519C998.899 14.4759 997.947 15.3719 997.947 16.7159C997.947 18.1719 999.011 18.8999 1000.72 18.8999ZM1011.06 26.7399V6.91591H1013.44L1013.63 9.37991C1014.56 7.50391 1016.4 6.52391 1018.59 6.52391C1022.51 6.52391 1024.94 9.46391 1024.94 13.6639C1024.94 17.8359 1022.65 20.9719 1018.59 20.9719C1016.4 20.9719 1014.58 20.0479 1013.69 18.3679V26.7399H1011.06ZM1013.72 13.7759C1013.72 16.5759 1015.34 18.5919 1018.03 18.5919C1020.72 18.5919 1022.31 16.5759 1022.31 13.7759C1022.31 10.9479 1020.72 8.93191 1018.03 8.93191C1015.34 8.93191 1013.72 10.9199 1013.72 13.7759ZM1027.99 26.7399V6.91591H1030.37L1030.56 9.37991C1031.49 7.50391 1033.33 6.52391 1035.52 6.52391C1039.44 6.52391 1041.87 9.46391 1041.87 13.6639C1041.87 17.8359 1039.58 20.9719 1035.52 20.9719C1033.33 20.9719 1031.51 20.0479 1030.62 18.3679V26.7399H1027.99ZM1030.65 13.7759C1030.65 16.5759 1032.27 18.5919 1034.96 18.5919C1037.65 18.5919 1039.24 16.5759 1039.24 13.7759C1039.24 10.9479 1037.65 8.93191 1034.96 8.93191C1032.27 8.93191 1030.65 10.9199 1030.65 13.7759ZM1043.79 16.6319H1046.31C1046.31 18.0319 1047.38 18.8719 1049.11 18.8719C1050.96 18.8719 1052.03 18.1159 1052.03 16.8559C1052.03 15.9319 1051.58 15.3719 1050.15 15.0079L1047.74 14.4479C1045.31 13.8599 1044.16 12.6559 1044.16 10.6399C1044.16 8.11991 1046.29 6.52391 1049.31 6.52391C1052.31 6.52391 1054.27 8.20391 1054.32 10.8079H1051.8C1051.75 9.43591 1050.82 8.56791 1049.23 8.56791C1047.57 8.56791 1046.65 9.29591 1046.65 10.5559C1046.65 11.4799 1047.32 12.0959 1048.67 12.4319L1051.07 13.0199C1053.4 13.5799 1054.55 14.6439 1054.55 16.6879C1054.55 19.2919 1052.31 20.9439 1049.06 20.9439C1045.84 20.9439 1043.79 19.2359 1043.79 16.6319ZM1061.39 19.5159C1061.39 21.5319 1059.88 23.2119 1057.89 23.4639V22.2879C1059.04 22.0919 1059.85 21.3359 1059.85 20.4679C1059.65 20.5799 1059.43 20.6359 1059.09 20.6359C1058.17 20.6359 1057.39 19.9639 1057.39 18.9279C1057.39 17.8079 1058.14 16.9959 1059.26 16.9959C1060.44 16.9959 1061.39 17.9759 1061.39 19.5159ZM1077.12 20.9439C1074.18 20.9439 1072.44 19.2919 1072.44 16.7999C1072.44 14.2799 1074.32 12.7119 1077.54 12.4599L1081.85 12.1239V11.7319C1081.85 9.43591 1080.48 8.62391 1078.63 8.62391C1076.42 8.62391 1075.16 9.60391 1075.16 11.2559H1072.86C1072.86 8.39991 1075.22 6.52391 1078.74 6.52391C1082.13 6.52391 1084.43 8.31591 1084.43 12.0119V20.6079H1082.19L1081.91 18.3959C1081.21 19.9639 1079.33 20.9439 1077.12 20.9439ZM1077.88 18.8999C1080.37 18.8999 1081.88 17.2759 1081.88 14.6999V13.9719L1078.38 14.2519C1076.06 14.4759 1075.1 15.3719 1075.1 16.7159C1075.1 18.1719 1076.17 18.8999 1077.88 18.8999ZM1090.84 20.6079H1088.21V6.91591H1090.59L1090.87 9.01591C1091.74 7.44791 1093.48 6.52391 1095.41 6.52391C1099.02 6.52391 1100.67 8.73591 1100.67 12.2359V20.6079H1098.04V12.8239C1098.04 10.0519 1096.75 8.93191 1094.74 8.93191C1092.27 8.93191 1090.84 10.6959 1090.84 13.3559V20.6079ZM1109.95 20.9439C1105.97 20.9439 1103.56 17.9759 1103.56 13.8039C1103.56 9.60391 1106 6.52391 1110.06 6.52391C1112.16 6.52391 1113.92 7.44791 1114.85 9.12791V-9.15527e-05H1117.45V20.6079H1115.1L1114.87 18.1159C1113.98 19.9919 1112.13 20.9439 1109.95 20.9439ZM1110.48 18.5639C1113.17 18.5639 1114.82 16.5759 1114.82 13.7199C1114.82 10.9199 1113.17 8.90391 1110.48 8.90391C1107.79 8.90391 1106.22 10.9199 1106.22 13.7199C1106.22 16.5479 1107.79 18.5639 1110.48 18.5639ZM1128.32 13.4119C1128.32 9.54791 1130.81 6.52391 1134.78 6.52391C1137 6.52391 1138.7 7.53191 1139.57 9.23991L1139.77 6.91591H1142.12V20.0479C1142.12 24.3599 1139.46 27.1039 1135.26 27.1039C1131.54 27.1039 1128.99 25.0039 1128.48 21.5319H1131.12C1131.45 23.5479 1132.96 24.7239 1135.26 24.7239C1137.84 24.7239 1139.52 23.0439 1139.52 20.4399V17.6959C1138.62 19.2919 1136.83 20.2439 1134.67 20.2439C1130.78 20.2439 1128.32 17.2479 1128.32 13.4119ZM1130.95 13.3559C1130.95 15.9319 1132.54 17.9479 1135.12 17.9479C1137.78 17.9479 1139.4 16.0439 1139.4 13.3559C1139.4 10.7239 1137.84 8.81991 1135.15 8.81991C1132.52 8.81991 1130.95 10.8359 1130.95 13.3559ZM1151.97 20.9439C1147.93 20.9439 1145.16 18.0319 1145.16 13.7759C1145.16 9.49191 1147.88 6.52391 1151.85 6.52391C1155.75 6.52391 1158.29 9.21191 1158.29 13.2719V14.2519L1147.71 14.2799C1147.91 17.1639 1149.42 18.7599 1152.02 18.7599C1154.07 18.7599 1155.41 17.9199 1155.86 16.3519H1158.32C1157.65 19.2919 1155.35 20.9439 1151.97 20.9439ZM1151.85 8.73591C1149.56 8.73591 1148.1 10.1079 1147.77 12.5159H1155.66C1155.66 10.2479 1154.18 8.73591 1151.85 8.73591ZM1164.01 20.6079H1161.37V6.91591H1163.75L1164.03 9.01591C1164.9 7.44791 1166.64 6.52391 1168.57 6.52391C1172.18 6.52391 1173.83 8.73591 1173.83 12.2359V20.6079H1171.2V12.8239C1171.2 10.0519 1169.91 8.93191 1167.9 8.93191C1165.43 8.93191 1164.01 10.6959 1164.01 13.3559V20.6079ZM1183.53 20.9439C1179.49 20.9439 1176.72 18.0319 1176.72 13.7759C1176.72 9.49191 1179.44 6.52391 1183.41 6.52391C1187.31 6.52391 1189.85 9.21191 1189.85 13.2719V14.2519L1179.27 14.2799C1179.47 17.1639 1180.98 18.7599 1183.58 18.7599C1185.63 18.7599 1186.97 17.9199 1187.42 16.3519H1189.88C1189.21 19.2919 1186.91 20.9439 1183.53 20.9439ZM1183.41 8.73591C1181.12 8.73591 1179.66 10.1079 1179.33 12.5159H1187.22C1187.22 10.2479 1185.74 8.73591 1183.41 8.73591ZM1200.77 6.80391V9.21191H1199.6C1197.11 9.21191 1195.57 10.7239 1195.57 13.3559V20.6079H1192.93V6.94391H1195.4L1195.57 9.01591C1196.13 7.58791 1197.5 6.63591 1199.37 6.63591C1199.85 6.63591 1200.24 6.69191 1200.77 6.80391ZM1206.84 20.9439C1203.9 20.9439 1202.16 19.2919 1202.16 16.7999C1202.16 14.2799 1204.04 12.7119 1207.26 12.4599L1211.57 12.1239V11.7319C1211.57 9.43591 1210.2 8.62391 1208.35 8.62391C1206.14 8.62391 1204.88 9.60391 1204.88 11.2559H1202.58C1202.58 8.39991 1204.94 6.52391 1208.46 6.52391C1211.85 6.52391 1214.15 8.31591 1214.15 12.0119V20.6079H1211.91L1211.63 18.3959C1210.93 19.9639 1209.05 20.9439 1206.84 20.9439ZM1207.6 18.8999C1210.09 18.8999 1211.6 17.2759 1211.6 14.6999V13.9719L1208.1 14.2519C1205.78 14.4759 1204.82 15.3719 1204.82 16.7159C1204.82 18.1719 1205.89 18.8999 1207.6 18.8999ZM1220.62 20.6079H1217.99V-9.15527e-05H1220.62V20.6079ZM1233.72 3.66791C1232.77 3.66791 1231.98 2.88391 1231.98 1.93191C1231.98 0.95191 1232.77 0.195909 1233.72 0.195909C1234.67 0.195909 1235.46 0.95191 1235.46 1.93191C1235.46 2.88391 1234.67 3.66791 1233.72 3.66791ZM1232.43 20.6079V6.91591H1235.06V20.6079H1232.43ZM1241.66 20.6079H1239.03V6.91591H1241.41L1241.69 9.01591C1242.55 7.44791 1244.29 6.52391 1246.22 6.52391C1249.83 6.52391 1251.49 8.73591 1251.49 12.2359V20.6079H1248.85V12.8239C1248.85 10.0519 1247.57 8.93191 1245.55 8.93191C1243.09 8.93191 1241.66 10.6959 1241.66 13.3559V20.6079ZM1259.13 20.6079H1256.5V9.12791H1253.81V6.91591H1256.5V2.63191H1259.13V6.91591H1261.82V9.12791H1259.13V20.6079ZM1270.1 20.9439C1266.06 20.9439 1263.29 18.0319 1263.29 13.7759C1263.29 9.49191 1266.01 6.52391 1269.98 6.52391C1273.88 6.52391 1276.42 9.21191 1276.42 13.2719V14.2519L1265.84 14.2799C1266.04 17.1639 1267.55 18.7599 1270.15 18.7599C1272.2 18.7599 1273.54 17.9199 1273.99 16.3519H1276.45C1275.78 19.2919 1273.48 20.9439 1270.1 20.9439ZM1269.98 8.73591C1267.69 8.73591 1266.23 10.1079 1265.9 12.5159H1273.79C1273.79 10.2479 1272.31 8.73591 1269.98 8.73591ZM1287.34 6.80391V9.21191H1286.17C1283.68 9.21191 1282.14 10.7239 1282.14 13.3559V20.6079H1279.5V6.94391H1281.97L1282.14 9.01591C1282.7 7.58791 1284.07 6.63591 1285.94 6.63591C1286.42 6.63591 1286.81 6.69191 1287.34 6.80391ZM1289.04 6.91591H1291.06V4.73191C1291.06 1.37191 1292.91 -9.15527e-05 1295.4 -9.15527e-05C1295.9 -9.15527e-05 1296.49 0.0279098 1297.02 0.111909V2.37991H1295.85C1294.14 2.37991 1293.69 3.24791 1293.69 4.73191V6.91591H1296.94V9.12791H1293.69V20.6079H1291.06V9.12791H1289.04V6.91591ZM1303.09 20.9439C1300.15 20.9439 1298.42 19.2919 1298.42 16.7999C1298.42 14.2799 1300.29 12.7119 1303.51 12.4599L1307.82 12.1239V11.7319C1307.82 9.43591 1306.45 8.62391 1304.6 8.62391C1302.39 8.62391 1301.13 9.60391 1301.13 11.2559H1298.84C1298.84 8.39991 1301.19 6.52391 1304.72 6.52391C1308.1 6.52391 1310.4 8.31591 1310.4 12.0119V20.6079H1308.16L1307.88 18.3959C1307.18 19.9639 1305.3 20.9439 1303.09 20.9439ZM1303.85 18.8999C1306.34 18.8999 1307.85 17.2759 1307.85 14.6999V13.9719L1304.35 14.2519C1302.03 14.4759 1301.08 15.3719 1301.08 16.7159C1301.08 18.1719 1302.14 18.8999 1303.85 18.8999ZM1313.29 13.7759C1313.29 9.49191 1316.01 6.52391 1320.01 6.52391C1323.45 6.52391 1325.86 8.48391 1326.34 11.5359H1323.71C1323.26 9.79991 1321.86 8.87591 1320.09 8.87591C1317.6 8.87591 1315.89 10.7799 1315.89 13.7479C1315.89 16.6879 1317.49 18.5919 1319.98 18.5919C1321.86 18.5919 1323.26 17.6119 1323.73 15.9879H1326.37C1325.83 18.9559 1323.29 20.9439 1319.98 20.9439C1315.95 20.9439 1313.29 18.0879 1313.29 13.7759ZM1335.19 20.9439C1331.16 20.9439 1328.39 18.0319 1328.39 13.7759C1328.39 9.49191 1331.1 6.52391 1335.08 6.52391C1338.97 6.52391 1341.52 9.21191 1341.52 13.2719V14.2519L1330.93 14.2799C1331.13 17.1639 1332.64 18.7599 1335.25 18.7599C1337.29 18.7599 1338.63 17.9199 1339.08 16.3519H1341.55C1340.87 19.2919 1338.58 20.9439 1335.19 20.9439ZM1335.08 8.73591C1332.78 8.73591 1331.33 10.1079 1330.99 12.5159H1338.89C1338.89 10.2479 1337.4 8.73591 1335.08 8.73591ZM1352.39 26.7399V6.91591H1354.77L1354.97 9.37991C1355.89 7.50391 1357.74 6.52391 1359.93 6.52391C1363.85 6.52391 1366.28 9.46391 1366.28 13.6639C1366.28 17.8359 1363.99 20.9719 1359.93 20.9719C1357.74 20.9719 1355.92 20.0479 1355.03 18.3679V26.7399H1352.39ZM1355.05 13.7759C1355.05 16.5759 1356.68 18.5919 1359.37 18.5919C1362.05 18.5919 1363.65 16.5759 1363.65 13.7759C1363.65 10.9479 1362.05 8.93191 1359.37 8.93191C1356.68 8.93191 1355.05 10.9199 1355.05 13.7759ZM1373.33 20.9439C1370.39 20.9439 1368.65 19.2919 1368.65 16.7999C1368.65 14.2799 1370.53 12.7119 1373.75 12.4599L1378.06 12.1239V11.7319C1378.06 9.43591 1376.69 8.62391 1374.84 8.62391C1372.63 8.62391 1371.37 9.60391 1371.37 11.2559H1369.07C1369.07 8.39991 1371.42 6.52391 1374.95 6.52391C1378.34 6.52391 1380.64 8.31591 1380.64 12.0119V20.6079H1378.4L1378.12 18.3959C1377.42 19.9639 1375.54 20.9439 1373.33 20.9439ZM1374.08 18.8999C1376.58 18.8999 1378.09 17.2759 1378.09 14.6999V13.9719L1374.59 14.2519C1372.26 14.4759 1371.31 15.3719 1371.31 16.7159C1371.31 18.1719 1372.38 18.8999 1374.08 18.8999ZM1388.07 20.6079H1385.43V9.12791H1382.75V6.91591H1385.43V2.63191H1388.07V6.91591H1390.75V9.12791H1388.07V20.6079ZM1397.37 20.6079H1394.73V9.12791H1392.05V6.91591H1394.73V2.63191H1397.37V6.91591H1400.05V9.12791H1397.37V20.6079ZM1408.33 20.9439C1404.3 20.9439 1401.52 18.0319 1401.52 13.7759C1401.52 9.49191 1404.24 6.52391 1408.22 6.52391C1412.11 6.52391 1414.66 9.21191 1414.66 13.2719V14.2519L1404.07 14.2799C1404.27 17.1639 1405.78 18.7599 1408.38 18.7599C1410.43 18.7599 1411.77 17.9199 1412.22 16.3519H1414.68C1414.01 19.2919 1411.72 20.9439 1408.33 20.9439ZM1408.22 8.73591C1405.92 8.73591 1404.46 10.1079 1404.13 12.5159H1412.02C1412.02 10.2479 1410.54 8.73591 1408.22 8.73591ZM1425.58 6.80391V9.21191H1424.4C1421.91 9.21191 1420.37 10.7239 1420.37 13.3559V20.6079H1417.74V6.94391H1420.2L1420.37 9.01591C1420.93 7.58791 1422.3 6.63591 1424.18 6.63591C1424.65 6.63591 1425.04 6.69191 1425.58 6.80391ZM1430.82 20.6079H1428.18V6.91591H1430.56L1430.84 9.01591C1431.71 7.44791 1433.45 6.52391 1435.38 6.52391C1438.99 6.52391 1440.64 8.73591 1440.64 12.2359V20.6079H1438.01V12.8239C1438.01 10.0519 1436.72 8.93191 1434.71 8.93191C1432.24 8.93191 1430.82 10.6959 1430.82 13.3559V20.6079ZM1443.15 16.6319H1445.67C1445.67 18.0319 1446.73 18.8719 1448.47 18.8719C1450.31 18.8719 1451.38 18.1159 1451.38 16.8559C1451.38 15.9319 1450.93 15.3719 1449.5 15.0079L1447.09 14.4479C1444.66 13.8599 1443.51 12.6559 1443.51 10.6399C1443.51 8.11991 1445.64 6.52391 1448.66 6.52391C1451.66 6.52391 1453.62 8.20391 1453.67 10.8079H1451.15C1451.1 9.43591 1450.17 8.56791 1448.58 8.56791C1446.93 8.56791 1446 9.29591 1446 10.5559C1446 11.4799 1446.67 12.0959 1448.02 12.4319L1450.43 13.0199C1452.75 13.5799 1453.9 14.6439 1453.9 16.6879C1453.9 19.2919 1451.66 20.9439 1448.41 20.9439C1445.19 20.9439 1443.15 19.2359 1443.15 16.6319ZM1472.59 6.80391V9.21191H1471.42C1468.92 9.21191 1467.38 10.7239 1467.38 13.3559V20.6079H1464.75V6.94391H1467.22L1467.38 9.01591C1467.94 7.58791 1469.32 6.63591 1471.19 6.63591C1471.67 6.63591 1472.06 6.69191 1472.59 6.80391ZM1480.62 20.9439C1476.58 20.9439 1473.81 18.0319 1473.81 13.7759C1473.81 9.49191 1476.53 6.52391 1480.5 6.52391C1484.4 6.52391 1486.94 9.21191 1486.94 13.2719V14.2519L1476.36 14.2799C1476.56 17.1639 1478.07 18.7599 1480.67 18.7599C1482.72 18.7599 1484.06 17.9199 1484.51 16.3519H1486.97C1486.3 19.2919 1484 20.9439 1480.62 20.9439ZM1480.5 8.73591C1478.21 8.73591 1476.75 10.1079 1476.42 12.5159H1484.31C1484.31 10.2479 1482.83 8.73591 1480.5 8.73591ZM1489.13 13.6639C1489.13 9.46391 1491.59 6.52391 1495.51 6.52391C1497.67 6.52391 1499.54 7.50391 1500.44 9.37991L1500.66 6.91591H1503.02V26.7399H1500.41V18.3679C1499.49 20.0479 1497.67 20.9719 1495.48 20.9719C1491.45 20.9719 1489.13 17.8359 1489.13 13.6639ZM1491.79 13.7759C1491.79 16.5759 1493.36 18.5919 1496.04 18.5919C1498.73 18.5919 1500.38 16.5759 1500.38 13.7759C1500.38 10.9199 1498.73 8.93191 1496.04 8.93191C1493.36 8.93191 1491.79 10.9479 1491.79 13.7759ZM1516.42 6.91591H1519.02V20.6079H1516.67L1516.39 18.5359C1515.61 19.9639 1513.79 20.9439 1511.77 20.9439C1508.58 20.9439 1506.79 18.7879 1506.79 15.4279V6.91591H1509.42V14.5599C1509.42 17.4999 1510.68 18.6199 1512.69 18.6199C1515.1 18.6199 1516.42 17.0799 1516.42 14.1399V6.91591ZM1524.27 3.66791C1523.32 3.66791 1522.53 2.88391 1522.53 1.93191C1522.53 0.95191 1523.32 0.195909 1524.27 0.195909C1525.22 0.195909 1526 0.95191 1526 1.93191C1526 2.88391 1525.22 3.66791 1524.27 3.66791ZM1522.98 20.6079V6.91591H1525.61V20.6079H1522.98ZM1537.41 6.80391V9.21191H1536.24C1533.75 9.21191 1532.21 10.7239 1532.21 13.3559V20.6079H1529.57V6.94391H1532.04L1532.21 9.01591C1532.77 7.58791 1534.14 6.63591 1536.01 6.63591C1536.49 6.63591 1536.88 6.69191 1537.41 6.80391ZM1541.31 3.66791C1540.36 3.66791 1539.57 2.88391 1539.57 1.93191C1539.57 0.95191 1540.36 0.195909 1541.31 0.195909C1542.26 0.195909 1543.05 0.95191 1543.05 1.93191C1543.05 2.88391 1542.26 3.66791 1541.31 3.66791ZM1540.02 20.6079V6.91591H1542.65V20.6079H1540.02ZM1549.25 20.6079H1546.62V6.91591H1549L1549.28 9.01591C1550.14 7.44791 1551.88 6.52391 1553.81 6.52391C1557.42 6.52391 1559.08 8.73591 1559.08 12.2359V20.6079H1556.44V12.8239C1556.44 10.0519 1555.16 8.93191 1553.14 8.93191C1550.68 8.93191 1549.25 10.6959 1549.25 13.3559V20.6079ZM1561.99 13.4119C1561.99 9.54791 1564.48 6.52391 1568.46 6.52391C1570.67 6.52391 1572.38 7.53191 1573.25 9.23991L1573.44 6.91591H1575.8V20.0479C1575.8 24.3599 1573.14 27.1039 1568.94 27.1039C1565.21 27.1039 1562.66 25.0039 1562.16 21.5319H1564.79C1565.13 23.5479 1566.64 24.7239 1568.94 24.7239C1571.51 24.7239 1573.19 23.0439 1573.19 20.4399V17.6959C1572.3 19.2919 1570.5 20.2439 1568.35 20.2439C1564.46 20.2439 1561.99 17.2479 1561.99 13.4119ZM1564.62 13.3559C1564.62 15.9319 1566.22 17.9479 1568.8 17.9479C1571.46 17.9479 1573.08 16.0439 1573.08 13.3559C1573.08 10.7239 1571.51 8.81991 1568.82 8.81991C1566.19 8.81991 1564.62 10.8359 1564.62 13.3559ZM1586.64 13.7759C1586.64 9.49191 1589.35 6.52391 1593.36 6.52391C1596.8 6.52391 1599.21 8.48391 1599.68 11.5359H1597.05C1596.6 9.79991 1595.2 8.87591 1593.44 8.87591C1590.95 8.87591 1589.24 10.7799 1589.24 13.7479C1589.24 16.6879 1590.84 18.5919 1593.33 18.5919C1595.2 18.5919 1596.6 17.6119 1597.08 15.9879H1599.71C1599.18 18.9559 1596.63 20.9439 1593.33 20.9439C1589.3 20.9439 1586.64 18.0879 1586.64 13.7759ZM1605.32 20.6079H1602.68V-9.15527e-05H1605.32V20.6079ZM1613.33 20.9439C1610.39 20.9439 1608.66 19.2919 1608.66 16.7999C1608.66 14.2799 1610.53 12.7119 1613.75 12.4599L1618.07 12.1239V11.7319C1618.07 9.43591 1616.69 8.62391 1614.85 8.62391C1612.63 8.62391 1611.37 9.60391 1611.37 11.2559H1609.08C1609.08 8.39991 1611.43 6.52391 1614.96 6.52391C1618.35 6.52391 1620.64 8.31591 1620.64 12.0119V20.6079H1618.4L1618.12 18.3959C1617.42 19.9639 1615.55 20.9439 1613.33 20.9439ZM1614.09 18.8999C1616.58 18.8999 1618.09 17.2759 1618.09 14.6999V13.9719L1614.59 14.2519C1612.27 14.4759 1611.32 15.3719 1611.32 16.7159C1611.32 18.1719 1612.38 18.8999 1614.09 18.8999ZM1632.27 6.80391V9.21191H1631.09C1628.6 9.21191 1627.06 10.7239 1627.06 13.3559V20.6079H1624.43V6.94391H1626.89L1627.06 9.01591C1627.62 7.58791 1628.99 6.63591 1630.87 6.63591C1631.34 6.63591 1631.74 6.69191 1632.27 6.80391ZM1636.16 3.66791C1635.21 3.66791 1634.43 2.88391 1634.43 1.93191C1634.43 0.95191 1635.21 0.195909 1636.16 0.195909C1637.12 0.195909 1637.9 0.95191 1637.9 1.93191C1637.9 2.88391 1637.12 3.66791 1636.16 3.66791ZM1634.88 20.6079V6.91591H1637.51V20.6079H1634.88ZM1645.33 20.6079H1642.7V9.12791H1640.01V6.91591H1642.7V2.63191H1645.33V6.91591H1648.02V9.12791H1645.33V20.6079ZM1649.21 26.7399V24.5839H1650.97C1652.23 24.5839 1653.24 24.3879 1653.88 22.6519L1654.36 21.3359L1648.84 6.91591H1651.62L1655.59 17.9479L1659.65 6.91591H1662.37L1655.9 23.6879C1654.98 26.0399 1653.6 27.0199 1651.5 27.0199C1650.64 27.0199 1649.91 26.9079 1649.21 26.7399ZM1666.23 19.5159C1666.23 21.5319 1664.72 23.2119 1662.73 23.4639V22.2879C1663.88 22.0919 1664.69 21.3359 1664.69 20.4679C1664.5 20.5799 1664.27 20.6359 1663.94 20.6359C1663.01 20.6359 1662.23 19.9639 1662.23 18.9279C1662.23 17.8079 1662.98 16.9959 1664.1 16.9959C1665.28 16.9959 1666.23 17.9759 1666.23 19.5159ZM1687.42 6.91591H1690.03V20.6079H1687.68L1687.4 18.5359C1686.61 19.9639 1684.79 20.9439 1682.78 20.9439C1679.58 20.9439 1677.79 18.7879 1677.79 15.4279V6.91591H1680.42V14.5599C1680.42 17.4999 1681.68 18.6199 1683.7 18.6199C1686.11 18.6199 1687.42 17.0799 1687.42 14.1399V6.91591ZM1692.59 16.6319H1695.11C1695.11 18.0319 1696.18 18.8719 1697.91 18.8719C1699.76 18.8719 1700.82 18.1159 1700.82 16.8559C1700.82 15.9319 1700.38 15.3719 1698.95 15.0079L1696.54 14.4479C1694.1 13.8599 1692.96 12.6559 1692.96 10.6399C1692.96 8.11991 1695.08 6.52391 1698.11 6.52391C1701.1 6.52391 1703.06 8.20391 1703.12 10.8079H1700.6C1700.54 9.43591 1699.62 8.56791 1698.02 8.56791C1696.37 8.56791 1695.45 9.29591 1695.45 10.5559C1695.45 11.4799 1696.12 12.0959 1697.46 12.4319L1699.87 13.0199C1702.2 13.5799 1703.34 14.6439 1703.34 16.6879C1703.34 19.2919 1701.1 20.9439 1697.86 20.9439C1694.64 20.9439 1692.59 19.2359 1692.59 16.6319ZM1710.41 20.9439C1707.47 20.9439 1705.73 19.2919 1705.73 16.7999C1705.73 14.2799 1707.61 12.7119 1710.83 12.4599L1715.14 12.1239V11.7319C1715.14 9.43591 1713.77 8.62391 1711.92 8.62391C1709.71 8.62391 1708.45 9.60391 1708.45 11.2559H1706.15C1706.15 8.39991 1708.5 6.52391 1712.03 6.52391C1715.42 6.52391 1717.72 8.31591 1717.72 12.0119V20.6079H1715.48L1715.2 18.3959C1714.5 19.9639 1712.62 20.9439 1710.41 20.9439ZM1711.16 18.8999C1713.66 18.8999 1715.17 17.2759 1715.17 14.6999V13.9719L1711.67 14.2519C1709.34 14.4759 1708.39 15.3719 1708.39 16.7159C1708.39 18.1719 1709.46 18.8999 1711.16 18.8999ZM1723.88 20.6079H1721.5V-9.15527e-05H1724.13V9.26791C1725.03 7.47591 1726.88 6.52391 1729.12 6.52391C1733.04 6.52391 1735.39 9.60391 1735.39 13.8319C1735.39 17.9759 1732.92 20.9439 1728.95 20.9439C1726.79 20.9439 1724.97 19.9919 1724.08 18.1159L1723.88 20.6079ZM1724.16 13.7199C1724.16 16.5759 1725.78 18.5639 1728.47 18.5639C1731.16 18.5639 1732.76 16.5479 1732.76 13.7199C1732.76 10.9199 1731.16 8.90391 1728.47 8.90391C1725.78 8.90391 1724.16 10.9199 1724.16 13.7199ZM1739.72 3.66791C1738.77 3.66791 1737.98 2.88391 1737.98 1.93191C1737.98 0.95191 1738.77 0.195909 1739.72 0.195909C1740.67 0.195909 1741.45 0.95191 1741.45 1.93191C1741.45 2.88391 1740.67 3.66791 1739.72 3.66791ZM1738.43 20.6079V6.91591H1741.06V20.6079H1738.43ZM1747.71 20.6079H1745.08V-9.15527e-05H1747.71V20.6079ZM1753.01 3.66791C1752.06 3.66791 1751.28 2.88391 1751.28 1.93191C1751.28 0.95191 1752.06 0.195909 1753.01 0.195909C1753.97 0.195909 1754.75 0.95191 1754.75 1.93191C1754.75 2.88391 1753.97 3.66791 1753.01 3.66791ZM1751.73 20.6079V6.91591H1754.36V20.6079H1751.73ZM1762.18 20.6079H1759.55V9.12791H1756.86V6.91591H1759.55V2.63191H1762.18V6.91591H1764.87V9.12791H1762.18V20.6079ZM1766.06 26.7399V24.5839H1767.82C1769.08 24.5839 1770.09 24.3879 1770.73 22.6519L1771.21 21.3359L1765.69 6.91591H1768.46L1772.44 17.9479L1776.5 6.91591H1779.22L1772.75 23.6879C1771.82 26.0399 1770.45 27.0199 1768.35 27.0199C1767.48 27.0199 1766.76 26.9079 1766.06 26.7399ZM1783.08 19.5159C1783.08 21.5319 1781.57 23.2119 1779.58 23.4639V22.2879C1780.73 22.0919 1781.54 21.3359 1781.54 20.4679C1781.35 20.5799 1781.12 20.6359 1780.79 20.6359C1779.86 20.6359 1779.08 19.9639 1779.08 18.9279C1779.08 17.8079 1779.83 16.9959 1780.95 16.9959C1782.13 16.9959 1783.08 17.9759 1783.08 19.5159ZM1798.81 20.9439C1795.87 20.9439 1794.14 19.2919 1794.14 16.7999C1794.14 14.2799 1796.01 12.7119 1799.23 12.4599L1803.54 12.1239V11.7319C1803.54 9.43591 1802.17 8.62391 1800.32 8.62391C1798.11 8.62391 1796.85 9.60391 1796.85 11.2559H1794.56C1794.56 8.39991 1796.91 6.52391 1800.44 6.52391C1803.82 6.52391 1806.12 8.31591 1806.12 12.0119V20.6079H1803.88L1803.6 18.3959C1802.9 19.9639 1801.02 20.9439 1798.81 20.9439ZM1799.57 18.8999C1802.06 18.8999 1803.57 17.2759 1803.57 14.6999V13.9719L1800.07 14.2519C1797.75 14.4759 1796.8 15.3719 1796.8 16.7159C1796.8 18.1719 1797.86 18.8999 1799.57 18.8999ZM1812.54 20.6079H1809.9V6.91591H1812.28L1812.56 9.01591C1813.43 7.44791 1815.17 6.52391 1817.1 6.52391C1820.71 6.52391 1822.36 8.73591 1822.36 12.2359V20.6079H1819.73V12.8239C1819.73 10.0519 1818.44 8.93191 1816.43 8.93191C1813.96 8.93191 1812.54 10.6959 1812.54 13.3559V20.6079ZM1831.64 20.9439C1827.66 20.9439 1825.25 17.9759 1825.25 13.8039C1825.25 9.60391 1827.69 6.52391 1831.75 6.52391C1833.85 6.52391 1835.61 7.44791 1836.54 9.12791V-9.15527e-05H1839.14V20.6079H1836.79L1836.57 18.1159C1835.67 19.9919 1833.82 20.9439 1831.64 20.9439ZM1832.17 18.5639C1834.86 18.5639 1836.51 16.5759 1836.51 13.7199C1836.51 10.9199 1834.86 8.90391 1832.17 8.90391C1829.48 8.90391 1827.91 10.9199 1827.91 13.7199C1827.91 16.5479 1829.48 18.5639 1832.17 18.5639ZM1849.98 13.7759C1849.98 9.49191 1852.7 6.52391 1856.7 6.52391C1860.14 6.52391 1862.55 8.48391 1863.03 11.5359H1860.4C1859.95 9.79991 1858.55 8.87591 1856.78 8.87591C1854.29 8.87591 1852.58 10.7799 1852.58 13.7479C1852.58 16.6879 1854.18 18.5919 1856.67 18.5919C1858.55 18.5919 1859.95 17.6119 1860.42 15.9879H1863.06C1862.52 18.9559 1859.98 20.9439 1856.67 20.9439C1852.64 20.9439 1849.98 18.0879 1849.98 13.7759ZM1865.08 13.7479C1865.08 9.51991 1868.1 6.55191 1872.22 6.55191C1876.3 6.55191 1879.33 9.51991 1879.33 13.7479C1879.33 17.9759 1876.3 20.9439 1872.22 20.9439C1868.1 20.9439 1865.08 17.9759 1865.08 13.7479ZM1867.74 13.7479C1867.74 16.6039 1869.56 18.5919 1872.22 18.5919C1874.85 18.5919 1876.7 16.6039 1876.7 13.7479C1876.7 10.8919 1874.85 8.90391 1872.22 8.90391C1869.56 8.90391 1867.74 10.8919 1867.74 13.7479ZM1885.01 20.6079H1882.38V6.91591H1884.76L1885.04 9.01591C1885.91 7.44791 1887.65 6.52391 1889.58 6.52391C1893.19 6.52391 1894.84 8.73591 1894.84 12.2359V20.6079H1892.21V12.8239C1892.21 10.0519 1890.92 8.93191 1888.91 8.93191C1886.44 8.93191 1885.01 10.6959 1885.01 13.3559V20.6079ZM1897.34 16.6319H1899.86C1899.86 18.0319 1900.93 18.8719 1902.66 18.8719C1904.51 18.8719 1905.58 18.1159 1905.58 16.8559C1905.58 15.9319 1905.13 15.3719 1903.7 15.0079L1901.29 14.4479C1898.86 13.8599 1897.71 12.6559 1897.71 10.6399C1897.71 8.11991 1899.84 6.52391 1902.86 6.52391C1905.86 6.52391 1907.82 8.20391 1907.87 10.8079H1905.35C1905.3 9.43591 1904.37 8.56791 1902.78 8.56791C1901.12 8.56791 1900.2 9.29591 1900.2 10.5559C1900.2 11.4799 1900.87 12.0959 1902.22 12.4319L1904.62 13.0199C1906.95 13.5799 1908.1 14.6439 1908.1 16.6879C1908.1 19.2919 1905.86 20.9439 1902.61 20.9439C1899.39 20.9439 1897.34 19.2359 1897.34 16.6319ZM1912.44 3.66791C1911.49 3.66791 1910.71 2.88391 1910.71 1.93191C1910.71 0.95191 1911.49 0.195909 1912.44 0.195909C1913.39 0.195909 1914.18 0.95191 1914.18 1.93191C1914.18 2.88391 1913.39 3.66791 1912.44 3.66791ZM1911.15 20.6079V6.91591H1913.79V20.6079H1911.15ZM1916.63 16.6319H1919.15C1919.15 18.0319 1920.21 18.8719 1921.95 18.8719C1923.8 18.8719 1924.86 18.1159 1924.86 16.8559C1924.86 15.9319 1924.41 15.3719 1922.98 15.0079L1920.58 14.4479C1918.14 13.8599 1916.99 12.6559 1916.99 10.6399C1916.99 8.11991 1919.12 6.52391 1922.14 6.52391C1925.14 6.52391 1927.1 8.20391 1927.16 10.8079H1924.64C1924.58 9.43591 1923.66 8.56791 1922.06 8.56791C1920.41 8.56791 1919.48 9.29591 1919.48 10.5559C1919.48 11.4799 1920.16 12.0959 1921.5 12.4319L1923.91 13.0199C1926.23 13.5799 1927.38 14.6439 1927.38 16.6879C1927.38 19.2919 1925.14 20.9439 1921.89 20.9439C1918.67 20.9439 1916.63 19.2359 1916.63 16.6319ZM1934.3 20.6079H1931.67V9.12791H1928.98V6.91591H1931.67V2.63191H1934.3V6.91591H1936.99V9.12791H1934.3V20.6079ZM1945.26 20.9439C1941.23 20.9439 1938.46 18.0319 1938.46 13.7759C1938.46 9.49191 1941.18 6.52391 1945.15 6.52391C1949.04 6.52391 1951.59 9.21191 1951.59 13.2719V14.2519L1941.01 14.2799C1941.2 17.1639 1942.72 18.7599 1945.32 18.7599C1947.36 18.7599 1948.71 17.9199 1949.16 16.3519H1951.62C1950.95 19.2919 1948.65 20.9439 1945.26 20.9439ZM1945.15 8.73591C1942.86 8.73591 1941.4 10.1079 1941.06 12.5159H1948.96C1948.96 10.2479 1947.48 8.73591 1945.15 8.73591ZM1957.3 20.6079H1954.67V6.91591H1957.05L1957.33 9.01591C1958.2 7.44791 1959.94 6.52391 1961.87 6.52391C1965.48 6.52391 1967.13 8.73591 1967.13 12.2359V20.6079H1964.5V12.8239C1964.5 10.0519 1963.21 8.93191 1961.2 8.93191C1958.73 8.93191 1957.3 10.6959 1957.3 13.3559V20.6079ZM1974.78 20.6079H1972.15V9.12791H1969.46V6.91591H1972.15V2.63191H1974.78V6.91591H1977.47V9.12791H1974.78V20.6079ZM1989.06 3.66791C1988.1 3.66791 1987.32 2.88391 1987.32 1.93191C1987.32 0.95191 1988.1 0.195909 1989.06 0.195909C1990.01 0.195909 1990.79 0.95191 1990.79 1.93191C1990.79 2.88391 1990.01 3.66791 1989.06 3.66791ZM1987.77 20.6079V6.91591H1990.4V20.6079H1987.77ZM1996.99 20.6079H1994.36V6.91591H1996.74L1997.02 9.01591C1997.89 7.44791 1999.62 6.52391 2001.56 6.52391C2005.17 6.52391 2006.82 8.73591 2006.82 12.2359V20.6079H2004.19V12.8239C2004.19 10.0519 2002.9 8.93191 2000.88 8.93191C1998.42 8.93191 1996.99 10.6959 1996.99 13.3559V20.6079ZM2014.47 20.6079H2011.84V9.12791H2009.15V6.91591H2011.84V2.63191H2014.47V6.91591H2017.16V9.12791H2014.47V20.6079ZM2025.43 20.9439C2021.4 20.9439 2018.63 18.0319 2018.63 13.7759C2018.63 9.49191 2021.34 6.52391 2025.32 6.52391C2029.21 6.52391 2031.76 9.21191 2031.76 13.2719V14.2519L2021.18 14.2799C2021.37 17.1639 2022.88 18.7599 2025.49 18.7599C2027.53 18.7599 2028.88 17.9199 2029.32 16.3519H2031.79C2031.12 19.2919 2028.82 20.9439 2025.43 20.9439ZM2025.32 8.73591C2023.02 8.73591 2021.57 10.1079 2021.23 12.5159H2029.13C2029.13 10.2479 2027.64 8.73591 2025.32 8.73591ZM2042.68 6.80391V9.21191H2041.5C2039.01 9.21191 2037.47 10.7239 2037.47 13.3559V20.6079H2034.84V6.94391H2037.3L2037.47 9.01591C2038.03 7.58791 2039.4 6.63591 2041.28 6.63591C2041.76 6.63591 2042.15 6.69191 2042.68 6.80391ZM2048.74 20.9439C2045.8 20.9439 2044.07 19.2919 2044.07 16.7999C2044.07 14.2799 2045.94 12.7119 2049.16 12.4599L2053.48 12.1239V11.7319C2053.48 9.43591 2052.1 8.62391 2050.26 8.62391C2048.04 8.62391 2046.78 9.60391 2046.78 11.2559H2044.49C2044.49 8.39991 2046.84 6.52391 2050.37 6.52391C2053.76 6.52391 2056.05 8.31591 2056.05 12.0119V20.6079H2053.81L2053.53 18.3959C2052.83 19.9639 2050.96 20.9439 2048.74 20.9439ZM2049.5 18.8999C2051.99 18.8999 2053.5 17.2759 2053.5 14.6999V13.9719L2050 14.2519C2047.68 14.4759 2046.73 15.3719 2046.73 16.7159C2046.73 18.1719 2047.79 18.8999 2049.5 18.8999ZM2058.94 13.7759C2058.94 9.49191 2061.66 6.52391 2065.66 6.52391C2069.11 6.52391 2071.51 8.48391 2071.99 11.5359H2069.36C2068.91 9.79991 2067.51 8.87591 2065.75 8.87591C2063.25 8.87591 2061.55 10.7799 2061.55 13.7479C2061.55 16.6879 2063.14 18.5919 2065.63 18.5919C2067.51 18.5919 2068.91 17.6119 2069.39 15.9879H2072.02C2071.49 18.9559 2068.94 20.9439 2065.63 20.9439C2061.6 20.9439 2058.94 18.0879 2058.94 13.7759ZM2078.8 20.6079H2076.17V9.12791H2073.48V6.91591H2076.17V2.63191H2078.8V6.91591H2081.49V9.12791H2078.8V20.6079ZM2085.28 3.66791C2084.32 3.66791 2083.54 2.88391 2083.54 1.93191C2083.54 0.95191 2084.32 0.195909 2085.28 0.195909C2086.23 0.195909 2087.01 0.95191 2087.01 1.93191C2087.01 2.88391 2086.23 3.66791 2085.28 3.66791ZM2083.99 20.6079V6.91591H2086.62V20.6079H2083.99ZM2089.69 13.7479C2089.69 9.51991 2092.71 6.55191 2096.83 6.55191C2100.91 6.55191 2103.94 9.51991 2103.94 13.7479C2103.94 17.9759 2100.91 20.9439 2096.83 20.9439C2092.71 20.9439 2089.69 17.9759 2089.69 13.7479ZM2092.35 13.7479C2092.35 16.6039 2094.17 18.5919 2096.83 18.5919C2099.46 18.5919 2101.31 16.6039 2101.31 13.7479C2101.31 10.8919 2099.46 8.90391 2096.83 8.90391C2094.17 8.90391 2092.35 10.8919 2092.35 13.7479ZM2109.62 20.6079H2106.99V6.91591H2109.37L2109.65 9.01591C2110.52 7.44791 2112.26 6.52391 2114.19 6.52391C2117.8 6.52391 2119.45 8.73591 2119.45 12.2359V20.6079H2116.82V12.8239C2116.82 10.0519 2115.53 8.93191 2113.52 8.93191C2111.05 8.93191 2109.62 10.6959 2109.62 13.3559V20.6079ZM2136.94 20.9439C2132.91 20.9439 2130.14 18.0319 2130.14 13.7759C2130.14 9.49191 2132.85 6.52391 2136.83 6.52391C2140.72 6.52391 2143.27 9.21191 2143.27 13.2719V14.2519L2132.69 14.2799C2132.88 17.1639 2134.39 18.7599 2137 18.7599C2139.04 18.7599 2140.39 17.9199 2140.83 16.3519H2143.3C2142.63 19.2919 2140.33 20.9439 2136.94 20.9439ZM2136.83 8.73591C2134.53 8.73591 2133.08 10.1079 2132.74 12.5159H2140.64C2140.64 10.2479 2139.15 8.73591 2136.83 8.73591ZM2149.04 20.6079H2146.41V-9.15527e-05H2149.04V20.6079ZM2158.96 20.9439C2154.93 20.9439 2152.16 18.0319 2152.16 13.7759C2152.16 9.49191 2154.87 6.52391 2158.85 6.52391C2162.74 6.52391 2165.29 9.21191 2165.29 13.2719V14.2519L2154.7 14.2799C2154.9 17.1639 2156.41 18.7599 2159.02 18.7599C2161.06 18.7599 2162.4 17.9199 2162.85 16.3519H2165.32C2164.64 19.2919 2162.35 20.9439 2158.96 20.9439ZM2158.85 8.73591C2156.55 8.73591 2155.1 10.1079 2154.76 12.5159H2162.66C2162.66 10.2479 2161.17 8.73591 2158.85 8.73591ZM2171 20.6079H2168.37V6.91591H2170.72L2170.97 8.70791C2171.67 7.41991 2173.13 6.52391 2175.06 6.52391C2177.19 6.52391 2178.7 7.58791 2179.4 9.29591C2180.04 7.58791 2181.7 6.52391 2183.82 6.52391C2186.96 6.52391 2188.86 8.48391 2188.86 11.6479V20.6079H2186.29V12.2919C2186.29 10.1359 2185.08 8.90391 2183.24 8.90391C2181.25 8.90391 2179.93 10.3039 2179.93 12.4879V20.6079H2177.33V12.2639C2177.33 10.1079 2176.15 8.93191 2174.3 8.93191C2172.32 8.93191 2171 10.3039 2171 12.4879V20.6079ZM2198.56 20.9439C2194.53 20.9439 2191.76 18.0319 2191.76 13.7759C2191.76 9.49191 2194.47 6.52391 2198.45 6.52391C2202.34 6.52391 2204.89 9.21191 2204.89 13.2719V14.2519L2194.3 14.2799C2194.5 17.1639 2196.01 18.7599 2198.62 18.7599C2200.66 18.7599 2202 17.9199 2202.45 16.3519H2204.92C2204.24 19.2919 2201.95 20.9439 2198.56 20.9439ZM2198.45 8.73591C2196.15 8.73591 2194.7 10.1079 2194.36 12.5159H2202.26C2202.26 10.2479 2200.77 8.73591 2198.45 8.73591ZM2210.6 20.6079H2207.97V6.91591H2210.35L2210.63 9.01591C2211.5 7.44791 2213.23 6.52391 2215.16 6.52391C2218.78 6.52391 2220.43 8.73591 2220.43 12.2359V20.6079H2217.8V12.8239C2217.8 10.0519 2216.51 8.93191 2214.49 8.93191C2212.03 8.93191 2210.6 10.6959 2210.6 13.3559V20.6079ZM2228.08 20.6079H2225.45V9.12791H2222.76V6.91591H2225.45V2.63191H2228.08V6.91591H2230.77V9.12791H2228.08V20.6079ZM2232.15 16.6319H2234.67C2234.67 18.0319 2235.73 18.8719 2237.47 18.8719C2239.32 18.8719 2240.38 18.1159 2240.38 16.8559C2240.38 15.9319 2239.93 15.3719 2238.5 15.0079L2236.1 14.4479C2233.66 13.8599 2232.51 12.6559 2232.51 10.6399C2232.51 8.11991 2234.64 6.52391 2237.66 6.52391C2240.66 6.52391 2242.62 8.20391 2242.68 10.8079H2240.16C2240.1 9.43591 2239.18 8.56791 2237.58 8.56791C2235.93 8.56791 2235 9.29591 2235 10.5559C2235 11.4799 2235.68 12.0959 2237.02 12.4319L2239.43 13.0199C2241.75 13.5799 2242.9 14.6439 2242.9 16.6879C2242.9 19.2919 2240.66 20.9439 2237.41 20.9439C2234.19 20.9439 2232.15 19.2359 2232.15 16.6319ZM2247.75 20.9439C2246.66 20.9439 2245.74 20.0479 2245.74 18.9839C2245.74 17.8919 2246.66 16.9959 2247.75 16.9959C2248.82 16.9959 2249.74 17.8919 2249.74 18.9839C2249.74 20.0479 2248.82 20.9439 2247.75 20.9439Z" fill="black"/>
</svg>
