<svg width="119" height="24" viewBox="0 0 119 24" fill="none" xmlns="http://www.w3.org/2000/svg">
<path d="M18.04 13.55C17.62 13.96 17.38 14.55 17.44 15.18C17.53 16.26 18.52 17.05 19.6 17.05H21.5V18.24C21.5 20.31 19.81 22 17.74 22H6.26C4.19 22 2.5 20.31 2.5 18.24V11.51C2.5 9.44001 4.19 7.75 6.26 7.75H17.74C19.81 7.75 21.5 9.44001 21.5 11.51V12.95H19.48C18.92 12.95 18.41 13.17 18.04 13.55Z" stroke="#1A1A1A" stroke-width="1.5" stroke-linecap="round" stroke-linejoin="round"/>
<path d="M2.5 12.4101V7.8401C2.5 6.6501 3.23 5.59006 4.34 5.17006L12.28 2.17006C13.52 1.70006 14.85 2.62009 14.85 3.95009V7.75008" stroke="#1A1A1A" stroke-width="1.5" stroke-linecap="round" stroke-linejoin="round"/>
<path d="M22.5588 13.9702V16.0302C22.5588 16.5802 22.1188 17.0302 21.5588 17.0502H19.5988C18.5188 17.0502 17.5288 16.2602 17.4388 15.1802C17.3788 14.5502 17.6188 13.9602 18.0388 13.5502C18.4088 13.1702 18.9188 12.9502 19.4788 12.9502H21.5588C22.1188 12.9702 22.5588 13.4202 22.5588 13.9702Z" stroke="#1A1A1A" stroke-width="1.5" stroke-linecap="round" stroke-linejoin="round"/>
<path d="M7 12H14" stroke="#1A1A1A" stroke-width="1.5" stroke-linecap="round" stroke-linejoin="round"/>
<path d="M40.42 17H34.972V8.228H40.42V9.644H36.508V11.9H40.012V13.256H36.508V15.584H40.42V17ZM43.3333 17H41.8693V11.072H43.2133L43.3333 11.768C43.6333 11.276 44.2333 10.892 45.0853 10.892C45.9853 10.892 46.6093 11.336 46.9213 12.02C47.2213 11.336 47.9173 10.892 48.8173 10.892C50.2573 10.892 51.0493 11.756 51.0493 13.124V17H49.5973V13.508C49.5973 12.656 49.1413 12.212 48.4453 12.212C47.7373 12.212 47.1973 12.668 47.1973 13.64V17H45.7333V13.496C45.7333 12.668 45.2893 12.224 44.5933 12.224C43.8973 12.224 43.3333 12.68 43.3333 13.64V17ZM52.4865 19.748V11.072H53.8425L53.9385 11.972C54.2985 11.288 55.0785 10.892 55.9785 10.892C57.6465 10.892 58.7505 12.104 58.7505 13.964C58.7505 15.812 57.7425 17.156 55.9785 17.156C55.0905 17.156 54.3225 16.808 53.9505 16.208V19.748H52.4865ZM53.9625 14.036C53.9625 15.104 54.6225 15.836 55.6305 15.836C56.6625 15.836 57.2745 15.092 57.2745 14.036C57.2745 12.98 56.6625 12.224 55.6305 12.224C54.6225 12.224 53.9625 12.968 53.9625 14.036ZM61.8736 17H60.4096V12.296H59.2696V11.072H60.4096V9.224H61.8736V11.072H63.0256V12.296H61.8736V17ZM63.4197 19.748V18.524H64.2957C64.8717 18.524 65.2317 18.392 65.4837 17.696L65.6517 17.252L63.2637 11.072H64.8117L66.3357 15.392L67.9437 11.072H69.4557L66.5517 18.32C66.1077 19.424 65.4837 19.88 64.5117 19.88C64.1037 19.88 63.7437 19.832 63.4197 19.748ZM69.8651 14.444V13.148H73.7291V14.444H69.8651ZM76.1187 17L74.1987 11.072H75.7227L76.5027 13.616C76.6347 14.084 76.7547 14.6 76.8627 15.152C76.9707 14.576 77.0787 14.204 77.2707 13.616L78.0867 11.072H79.5747L80.3667 13.616C80.4387 13.856 80.6787 14.744 80.7507 15.14C80.8467 14.696 81.0387 13.988 81.1467 13.616L81.9387 11.072H83.4867L81.4347 17H80.0667L79.2507 14.432C79.0107 13.652 78.8787 13.088 78.8307 12.788C78.7707 13.064 78.6627 13.484 78.3627 14.456L77.5467 17H76.1187ZM85.8442 17.156C84.5842 17.156 83.8162 16.424 83.8162 15.308C83.8162 14.216 84.6082 13.532 86.0122 13.424L87.7882 13.292V13.16C87.7882 12.356 87.3082 12.032 86.5642 12.032C85.7002 12.032 85.2202 12.392 85.2202 13.016H83.9722C83.9722 11.732 85.0282 10.892 86.6362 10.892C88.2322 10.892 89.2162 11.756 89.2162 13.4V17H87.9322L87.8242 16.124C87.5722 16.736 86.7682 17.156 85.8442 17.156ZM86.3242 16.052C87.2242 16.052 87.8002 15.512 87.8002 14.6V14.288L86.5642 14.384C85.6522 14.468 85.3042 14.768 85.3042 15.248C85.3042 15.788 85.6642 16.052 86.3242 16.052ZM92.1304 17H90.6784V8.072H92.1304V17ZM95.1422 17H93.6902V8.072H95.1422V17ZM99.3299 17.156C97.5659 17.156 96.3299 15.872 96.3299 14.036C96.3299 12.176 97.5419 10.892 99.2819 10.892C101.058 10.892 102.186 12.08 102.186 13.928V14.372L97.7219 14.384C97.8299 15.428 98.3819 15.956 99.3539 15.956C100.158 15.956 100.686 15.644 100.854 15.08H102.21C101.958 16.376 100.878 17.156 99.3299 17.156ZM99.2939 12.092C98.4299 12.092 97.9019 12.56 97.7579 13.448H100.734C100.734 12.632 100.17 12.092 99.2939 12.092ZM105.315 17H103.851V12.296H102.711V11.072H103.851V9.224H105.315V11.072H106.467V12.296H105.315V17Z" fill="black"/>
</svg>
