<svg width="110" height="24" viewBox="0 0 110 24" fill="none" xmlns="http://www.w3.org/2000/svg">
<path d="M22 15V9C22 4 20 2 15 2H9C4 2 2 4 2 9V15C2 20 4 22 9 22H15C20 22 22 20 22 15Z" stroke="#1A1A1A" stroke-width="1.5" stroke-linecap="round" stroke-linejoin="round"/>
<path d="M8.41962 17.11C9.2867 17.11 9.98962 16.4071 9.98962 15.54C9.98962 14.6729 9.2867 13.97 8.41962 13.97C7.55253 13.97 6.84961 14.6729 6.84961 15.54C6.84961 16.4071 7.55253 17.11 8.41962 17.11Z" stroke="#1A1A1A" stroke-width="1.5" stroke-linecap="round" stroke-linejoin="round"/>
<path d="M15.75 14.49V8.34997C15.75 7.03997 14.93 6.86002 14.1 7.09002L10.96 7.95001C10.39 8.11001 10 8.56002 10 9.21002V10.31V11.05V15.55" stroke="#1A1A1A" stroke-width="1.5" stroke-linecap="round" stroke-linejoin="round"/>
<path d="M14.1804 16.0599C15.0474 16.0599 15.7504 15.357 15.7504 14.4899C15.7504 13.6228 15.0474 12.9199 14.1804 12.9199C13.3133 12.9199 12.6104 13.6228 12.6104 14.4899C12.6104 15.357 13.3133 16.0599 14.1804 16.0599Z" stroke="#1A1A1A" stroke-width="1.5" stroke-linecap="round" stroke-linejoin="round"/>
<path d="M9.98926 11.04L15.7493 9.46997" stroke="#1A1A1A" stroke-width="1.5" stroke-linecap="round" stroke-linejoin="round"/>
<path d="M36.46 17H34.972V8.228H36.46L39.292 15.212L42.124 8.228H43.636V17H42.148V14.3C42.148 12.536 42.148 12.02 42.232 11.396L40 17H38.584L36.364 11.408C36.448 11.936 36.46 12.764 36.46 13.856V17ZM49.3815 11.072H50.8455V17H49.4895L49.3815 16.208C49.0215 16.772 48.2535 17.156 47.4615 17.156C46.0935 17.156 45.2895 16.232 45.2895 14.78V11.072H46.7535V14.264C46.7535 15.392 47.1975 15.848 48.0135 15.848C48.9375 15.848 49.3815 15.308 49.3815 14.18V11.072ZM51.7844 15.2H53.1764C53.1884 15.716 53.5724 16.04 54.2444 16.04C54.9284 16.04 55.3004 15.764 55.3004 15.332C55.3004 15.032 55.1444 14.816 54.6164 14.696L53.5484 14.444C52.4804 14.204 51.9644 13.7 51.9644 12.752C51.9644 11.588 52.9484 10.892 54.3164 10.892C55.6484 10.892 56.5484 11.66 56.5604 12.812H55.1684C55.1564 12.308 54.8204 11.984 54.2564 11.984C53.6804 11.984 53.3444 12.248 53.3444 12.692C53.3444 13.028 53.6084 13.244 54.1124 13.364L55.1804 13.616C56.1764 13.844 56.6804 14.3 56.6804 15.212C56.6804 16.412 55.6604 17.156 54.1964 17.156C52.7204 17.156 51.7844 16.364 51.7844 15.2ZM58.5271 9.884C58.0231 9.884 57.6271 9.488 57.6271 8.996C57.6271 8.504 58.0231 8.12 58.5271 8.12C59.0071 8.12 59.4031 8.504 59.4031 8.996C59.4031 9.488 59.0071 9.884 58.5271 9.884ZM57.7951 17V11.072H59.2591V17H57.7951ZM60.4236 14.024C60.4236 12.188 61.6356 10.892 63.3876 10.892C65.0076 10.892 66.1116 11.792 66.2676 13.22H64.8036C64.6356 12.548 64.1436 12.2 63.4476 12.2C62.5116 12.2 61.8876 12.908 61.8876 14.024C61.8876 15.14 62.4636 15.836 63.3996 15.836C64.1316 15.836 64.6476 15.476 64.8036 14.828H66.2796C66.0996 16.208 64.9476 17.156 63.3996 17.156C61.5996 17.156 60.4236 15.908 60.4236 14.024ZM67.287 14.444V13.148H71.151V14.444H67.287ZM72.1047 15.2H73.4967C73.5087 15.716 73.8927 16.04 74.5647 16.04C75.2487 16.04 75.6207 15.764 75.6207 15.332C75.6207 15.032 75.4647 14.816 74.9367 14.696L73.8687 14.444C72.8007 14.204 72.2847 13.7 72.2847 12.752C72.2847 11.588 73.2687 10.892 74.6367 10.892C75.9687 10.892 76.8687 11.66 76.8807 12.812H75.4887C75.4767 12.308 75.1407 11.984 74.5767 11.984C74.0007 11.984 73.6647 12.248 73.6647 12.692C73.6647 13.028 73.9287 13.244 74.4327 13.364L75.5007 13.616C76.4967 13.844 77.0007 14.3 77.0007 15.212C77.0007 16.412 75.9807 17.156 74.5167 17.156C73.0407 17.156 72.1047 16.364 72.1047 15.2ZM77.7674 13.964C77.7674 12.104 78.8714 10.892 80.5394 10.892C81.4394 10.892 82.2194 11.288 82.5794 11.972L82.6754 11.072H84.0194V19.748H82.5674V16.208C82.1954 16.808 81.4154 17.156 80.5394 17.156C78.7754 17.156 77.7674 15.812 77.7674 13.964ZM79.2314 14.036C79.2314 15.092 79.8554 15.836 80.8754 15.836C81.8954 15.836 82.5554 15.104 82.5554 14.036C82.5554 12.968 81.8954 12.224 80.8754 12.224C79.8554 12.224 79.2314 12.98 79.2314 14.036ZM89.5651 11.072H91.0291V17H89.6731L89.5651 16.208C89.2051 16.772 88.4371 17.156 87.6451 17.156C86.2771 17.156 85.4731 16.232 85.4731 14.78V11.072H86.9371V14.264C86.9371 15.392 87.3811 15.848 88.1971 15.848C89.1211 15.848 89.5651 15.308 89.5651 14.18V11.072ZM94.3052 17.156C93.0452 17.156 92.2772 16.424 92.2772 15.308C92.2772 14.216 93.0692 13.532 94.4732 13.424L96.2492 13.292V13.16C96.2492 12.356 95.7692 12.032 95.0252 12.032C94.1612 12.032 93.6812 12.392 93.6812 13.016H92.4332C92.4332 11.732 93.4892 10.892 95.0972 10.892C96.6932 10.892 97.6772 11.756 97.6772 13.4V17H96.3932L96.2852 16.124C96.0332 16.736 95.2292 17.156 94.3052 17.156ZM94.7852 16.052C95.6852 16.052 96.2612 15.512 96.2612 14.6V14.288L95.0252 14.384C94.1132 14.468 93.7652 14.768 93.7652 15.248C93.7652 15.788 94.1252 16.052 94.7852 16.052ZM102.835 11.048V12.404H102.295C101.239 12.404 100.579 12.968 100.579 14.12V17H99.1154V11.084H100.495L100.579 11.948C100.831 11.36 101.395 10.964 102.187 10.964C102.391 10.964 102.595 10.988 102.835 11.048ZM106.279 17.156C104.515 17.156 103.279 15.872 103.279 14.036C103.279 12.176 104.491 10.892 106.231 10.892C108.007 10.892 109.135 12.08 109.135 13.928V14.372L104.671 14.384C104.779 15.428 105.331 15.956 106.303 15.956C107.107 15.956 107.635 15.644 107.803 15.08H109.159C108.907 16.376 107.827 17.156 106.279 17.156ZM106.243 12.092C105.379 12.092 104.851 12.56 104.707 13.448H107.683C107.683 12.632 107.119 12.092 106.243 12.092Z" fill="black"/>
</svg>
