<svg width="119" height="24" viewBox="0 0 119 24" fill="none" xmlns="http://www.w3.org/2000/svg">
<path d="M10.9023 19.8701H17.3723C21.0723 19.8701 21.9923 18.9501 21.9923 15.2501C20.7123 15.2501 19.6823 14.2101 19.6823 12.9401C19.6823 11.6601 20.7123 10.6201 21.9923 10.6201V9.70008C21.9923 6.00008 21.0723 5.08008 17.3723 5.08008H10.9923V11.8701" stroke="#1A1A1A" stroke-width="1.5" stroke-linecap="round" stroke-linejoin="round"/>
<path d="M10.9936 16.87V19.87H8.22356C6.74356 19.87 5.87357 18.86 4.91357 16.54L4.73356 16.09C5.94356 15.61 6.53357 14.21 6.02357 13C5.53357 11.79 4.14357 11.21 2.92357 11.71L2.75357 11.28C1.31356 7.76 1.81357 6.53 5.33357 5.08L7.97357 4L10.9936 11.32V13.87" stroke="#1A1A1A" stroke-width="1.5" stroke-linecap="round" stroke-linejoin="round"/>
<path d="M8.16219 19.8701H7.99219" stroke="#1A1A1A" stroke-width="1.5" stroke-linecap="round" stroke-linejoin="round"/>
<path d="M34.204 9.644V8.228H40.876V9.644H38.308V17H36.772V9.644H34.204ZM42.5661 9.884C42.0621 9.884 41.6661 9.488 41.6661 8.996C41.6661 8.504 42.0621 8.12 42.5661 8.12C43.0461 8.12 43.4421 8.504 43.4421 8.996C43.4421 9.488 43.0461 9.884 42.5661 9.884ZM41.8341 17V11.072H43.2981V17H41.8341ZM44.4627 14.024C44.4627 12.188 45.6747 10.892 47.4267 10.892C49.0467 10.892 50.1507 11.792 50.3067 13.22H48.8427C48.6747 12.548 48.1827 12.2 47.4867 12.2C46.5507 12.2 45.9267 12.908 45.9267 14.024C45.9267 15.14 46.5027 15.836 47.4387 15.836C48.1707 15.836 48.6867 15.476 48.8427 14.828H50.3187C50.1387 16.208 48.9867 17.156 47.4387 17.156C45.6387 17.156 44.4627 15.908 44.4627 14.024ZM52.8843 17H51.4323V8.072H52.8843V13.556L55.1883 11.072H57.0243L54.7683 13.424L56.9763 17H55.2963L53.7483 14.504L52.8843 15.404V17ZM60.2478 17.156C58.4838 17.156 57.2478 15.872 57.2478 14.036C57.2478 12.176 58.4598 10.892 60.1998 10.892C61.9758 10.892 63.1038 12.08 63.1038 13.928V14.372L58.6398 14.384C58.7478 15.428 59.2998 15.956 60.2718 15.956C61.0758 15.956 61.6038 15.644 61.7718 15.08H63.1278C62.8758 16.376 61.7958 17.156 60.2478 17.156ZM60.2118 12.092C59.3478 12.092 58.8198 12.56 58.6758 13.448H61.6518C61.6518 12.632 61.0878 12.092 60.2118 12.092ZM66.2329 17H64.7689V12.296H63.6289V11.072H64.7689V9.224H66.2329V11.072H67.3849V12.296H66.2329V17ZM68.0487 14.444V13.148H71.9127V14.444H68.0487ZM76.0564 17.156C74.2924 17.156 73.0564 15.872 73.0564 14.036C73.0564 12.176 74.2684 10.892 76.0084 10.892C77.7844 10.892 78.9124 12.08 78.9124 13.928V14.372L74.4484 14.384C74.5564 15.428 75.1084 15.956 76.0804 15.956C76.8844 15.956 77.4124 15.644 77.5804 15.08H78.9364C78.6844 16.376 77.6044 17.156 76.0564 17.156ZM76.0204 12.092C75.1564 12.092 74.6284 12.56 74.4844 13.448H77.4604C77.4604 12.632 76.8964 12.092 76.0204 12.092ZM80.8466 17H79.1786L81.2186 14.096L79.1786 11.072H80.8826L82.1906 13.088L83.4506 11.072H85.0946L83.0786 14.072L85.0346 17H83.3546L82.0946 15.044L80.8466 17ZM85.9669 19.748V11.072H87.3229L87.4189 11.972C87.7789 11.288 88.5589 10.892 89.4589 10.892C91.1269 10.892 92.2309 12.104 92.2309 13.964C92.2309 15.812 91.2229 17.156 89.4589 17.156C88.5709 17.156 87.8029 16.808 87.4309 16.208V19.748H85.9669ZM87.4429 14.036C87.4429 15.104 88.1029 15.836 89.1109 15.836C90.1429 15.836 90.7549 15.092 90.7549 14.036C90.7549 12.98 90.1429 12.224 89.1109 12.224C88.1029 12.224 87.4429 12.968 87.4429 14.036ZM94.1286 9.884C93.6246 9.884 93.2286 9.488 93.2286 8.996C93.2286 8.504 93.6246 8.12 94.1286 8.12C94.6086 8.12 95.0046 8.504 95.0046 8.996C95.0046 9.488 94.6086 9.884 94.1286 9.884ZM93.3966 17V11.072H94.8606V17H93.3966ZM100.093 11.048V12.404H99.5532C98.4972 12.404 97.8372 12.968 97.8372 14.12V17H96.3732V11.084H97.7532L97.8372 11.948C98.0892 11.36 98.6532 10.964 99.4452 10.964C99.6492 10.964 99.8532 10.988 100.093 11.048ZM103.537 17.156C101.773 17.156 100.537 15.872 100.537 14.036C100.537 12.176 101.749 10.892 103.489 10.892C105.265 10.892 106.393 12.08 106.393 13.928V14.372L101.929 14.384C102.037 15.428 102.589 15.956 103.561 15.956C104.365 15.956 104.893 15.644 105.061 15.08H106.417C106.165 16.376 105.085 17.156 103.537 17.156ZM103.501 12.092C102.637 12.092 102.109 12.56 101.965 13.448H104.941C104.941 12.632 104.377 12.092 103.501 12.092ZM110.001 17.156C108.285 17.156 107.217 15.896 107.217 14.06C107.217 12.212 108.297 10.892 110.085 10.892C110.913 10.892 111.645 11.24 112.017 11.828V8.072H113.469V17H112.125L112.029 16.076C111.669 16.76 110.901 17.156 110.001 17.156ZM110.325 15.812C111.345 15.812 112.005 15.08 112.005 14.012C112.005 12.944 111.345 12.2 110.325 12.2C109.305 12.2 108.681 12.956 108.681 14.012C108.681 15.068 109.305 15.812 110.325 15.812Z" fill="black"/>
</svg>
