<svg width="110" height="24" viewBox="0 0 110 24" fill="none" xmlns="http://www.w3.org/2000/svg">
<path d="M8 2V5" stroke="#1A1A1A" stroke-width="1.5" stroke-miterlimit="10" stroke-linecap="round" stroke-linejoin="round"/>
<path d="M16 2V5" stroke="#1A1A1A" stroke-width="1.5" stroke-miterlimit="10" stroke-linecap="round" stroke-linejoin="round"/>
<path d="M3.5 9.08984H20.5" stroke="#1A1A1A" stroke-width="1.5" stroke-miterlimit="10" stroke-linecap="round" stroke-linejoin="round"/>
<path d="M22 19C22 19.75 21.79 20.46 21.42 21.06C20.73 22.22 19.46 23 18 23C16.99 23 16.07 22.63 15.37 22C15.06 21.74 14.79 21.42 14.58 21.06C14.21 20.46 14 19.75 14 19C14 16.79 15.79 15 18 15C19.2 15 20.27 15.53 21 16.36C21.62 17.07 22 17.99 22 19Z" stroke="#1A1A1A" stroke-width="1.5" stroke-miterlimit="10" stroke-linecap="round" stroke-linejoin="round"/>
<path d="M16.4404 19L17.4304 19.99L19.5604 18.02" stroke="#1A1A1A" stroke-width="1.5" stroke-linecap="round" stroke-linejoin="round"/>
<path d="M21 8.5V16.36C20.27 15.53 19.2 15 18 15C15.79 15 14 16.79 14 19C14 19.75 14.21 20.46 14.58 21.06C14.79 21.42 15.06 21.74 15.37 22H8C4.5 22 3 20 3 17V8.5C3 5.5 4.5 3.5 8 3.5H16C19.5 3.5 21 5.5 21 8.5Z" stroke="#1A1A1A" stroke-width="1.5" stroke-miterlimit="10" stroke-linecap="round" stroke-linejoin="round"/>
<path d="M11.9955 13.7002H12.0045" stroke="#1A1A1A" stroke-width="1.5" stroke-linecap="round" stroke-linejoin="round"/>
<path d="M8.29431 13.7002H8.30329" stroke="#1A1A1A" stroke-width="1.5" stroke-linecap="round" stroke-linejoin="round"/>
<path d="M8.29431 16.7002H8.30329" stroke="#1A1A1A" stroke-width="1.5" stroke-linecap="round" stroke-linejoin="round"/>
<path d="M38.68 17.144C36.124 17.144 34.468 15.368 34.468 12.62C34.468 9.896 36.184 8.084 38.752 8.084C40.828 8.084 42.376 9.296 42.676 11.18H41.056C40.756 10.16 39.88 9.56 38.716 9.56C37.096 9.56 36.076 10.736 36.076 12.608C36.076 14.468 37.108 15.668 38.716 15.668C39.904 15.668 40.816 15.044 41.104 14.072H42.7C42.364 15.92 40.756 17.144 38.68 17.144ZM45.5083 17.156C44.2483 17.156 43.4803 16.424 43.4803 15.308C43.4803 14.216 44.2723 13.532 45.6763 13.424L47.4523 13.292V13.16C47.4523 12.356 46.9723 12.032 46.2283 12.032C45.3643 12.032 44.8843 12.392 44.8843 13.016H43.6363C43.6363 11.732 44.6923 10.892 46.3003 10.892C47.8963 10.892 48.8803 11.756 48.8803 13.4V17H47.5963L47.4883 16.124C47.2363 16.736 46.4323 17.156 45.5083 17.156ZM45.9883 16.052C46.8883 16.052 47.4643 15.512 47.4643 14.6V14.288L46.2283 14.384C45.3163 14.468 44.9683 14.768 44.9683 15.248C44.9683 15.788 45.3283 16.052 45.9883 16.052ZM51.7945 17H50.3425V8.072H51.7945V17ZM55.9822 17.156C54.2182 17.156 52.9822 15.872 52.9822 14.036C52.9822 12.176 54.1942 10.892 55.9342 10.892C57.7102 10.892 58.8382 12.08 58.8382 13.928V14.372L54.3742 14.384C54.4822 15.428 55.0342 15.956 56.0062 15.956C56.8102 15.956 57.3382 15.644 57.5062 15.08H58.8622C58.6102 16.376 57.5302 17.156 55.9822 17.156ZM55.9462 12.092C55.0822 12.092 54.5542 12.56 54.4102 13.448H57.3862C57.3862 12.632 56.8222 12.092 55.9462 12.092ZM61.4739 17H60.0099V11.072H61.3659L61.4859 11.84C61.8579 11.24 62.5779 10.892 63.3819 10.892C64.8699 10.892 65.6379 11.816 65.6379 13.352V17H64.1739V13.7C64.1739 12.704 63.6819 12.224 62.9259 12.224C62.0259 12.224 61.4739 12.848 61.4739 13.808V17ZM69.5123 17.156C67.7963 17.156 66.7283 15.896 66.7283 14.06C66.7283 12.212 67.8083 10.892 69.5963 10.892C70.4243 10.892 71.1563 11.24 71.5283 11.828V8.072H72.9803V17H71.6363L71.5403 16.076C71.1803 16.76 70.4123 17.156 69.5123 17.156ZM69.8363 15.812C70.8563 15.812 71.5163 15.08 71.5163 14.012C71.5163 12.944 70.8563 12.2 69.8363 12.2C68.8163 12.2 68.1923 12.956 68.1923 14.012C68.1923 15.068 68.8163 15.812 69.8363 15.812ZM76.27 17.156C75.01 17.156 74.242 16.424 74.242 15.308C74.242 14.216 75.034 13.532 76.438 13.424L78.214 13.292V13.16C78.214 12.356 77.734 12.032 76.99 12.032C76.126 12.032 75.646 12.392 75.646 13.016H74.398C74.398 11.732 75.454 10.892 77.062 10.892C78.658 10.892 79.642 11.756 79.642 13.4V17H78.358L78.25 16.124C77.998 16.736 77.194 17.156 76.27 17.156ZM76.75 16.052C77.65 16.052 78.226 15.512 78.226 14.6V14.288L76.99 14.384C76.078 14.468 75.73 14.768 75.73 15.248C75.73 15.788 76.09 16.052 76.75 16.052ZM84.8002 11.048V12.404H84.2602C83.2042 12.404 82.5442 12.968 82.5442 14.12V17H81.0802V11.084H82.4602L82.5442 11.948C82.7962 11.36 83.3602 10.964 84.1522 10.964C84.3562 10.964 84.5602 10.988 84.8002 11.048ZM85.3456 14.444V13.148H89.2096V14.444H85.3456ZM92.4829 17H91.0189V12.296H89.8789V11.072H91.0189V9.224H92.4829V11.072H93.6349V12.296H92.4829V17ZM95.2771 9.884C94.7731 9.884 94.3771 9.488 94.3771 8.996C94.3771 8.504 94.7731 8.12 95.2771 8.12C95.7571 8.12 96.1531 8.504 96.1531 8.996C96.1531 9.488 95.7571 9.884 95.2771 9.884ZM94.5451 17V11.072H96.0091V17H94.5451ZM97.1736 14.024C97.1736 12.188 98.3856 10.892 100.138 10.892C101.758 10.892 102.862 11.792 103.018 13.22H101.554C101.386 12.548 100.894 12.2 100.198 12.2C99.2616 12.2 98.6376 12.908 98.6376 14.024C98.6376 15.14 99.2136 15.836 100.15 15.836C100.882 15.836 101.398 15.476 101.554 14.828H103.03C102.85 16.208 101.698 17.156 100.15 17.156C98.3496 17.156 97.1736 15.908 97.1736 14.024ZM105.595 17H104.143V8.072H105.595V13.556L107.899 11.072H109.735L107.479 13.424L109.687 17H108.007L106.459 14.504L105.595 15.404V17Z" fill="black"/>
</svg>
