<svg width="101" height="24" viewBox="0 0 101 24" fill="none" xmlns="http://www.w3.org/2000/svg">
<path d="M12.0196 2.91016C8.7096 2.91016 6.0196 5.60016 6.0196 8.91016V11.8002C6.0196 12.4102 5.7596 13.3402 5.4496 13.8602L4.2996 15.7702C3.5896 16.9502 4.0796 18.2602 5.3796 18.7002C9.6896 20.1402 14.3396 20.1402 18.6496 18.7002C19.8596 18.3002 20.3896 16.8702 19.7296 15.7702L18.5796 13.8602C18.2796 13.3402 18.0196 12.4102 18.0196 11.8002V8.91016C18.0196 5.61016 15.3196 2.91016 12.0196 2.91016Z" stroke="#1A1A1A" stroke-width="1.5" stroke-miterlimit="10" stroke-linecap="round"/>
<path d="M13.8699 3.20043C13.5599 3.11043 13.2399 3.04043 12.9099 3.00043C11.9499 2.88043 11.0299 2.95043 10.1699 3.20043C10.4599 2.46043 11.1799 1.94043 12.0199 1.94043C12.8599 1.94043 13.5799 2.46043 13.8699 3.20043Z" stroke="#1A1A1A" stroke-width="1.5" stroke-miterlimit="10" stroke-linecap="round" stroke-linejoin="round"/>
<path d="M15.0195 19.0605C15.0195 20.7105 13.6695 22.0605 12.0195 22.0605C11.1995 22.0605 10.4395 21.7205 9.89953 21.1805C9.35953 20.6405 9.01953 19.8805 9.01953 19.0605" stroke="#1A1A1A" stroke-width="1.5" stroke-miterlimit="10"/>
<path d="M36.484 16H34.972V7.228H36.496L40.612 13.444V7.228H42.124V16H40.612L36.484 9.784V16ZM43.5018 13.024C43.5018 11.176 44.8338 9.904 46.6698 9.904C48.5058 9.904 49.8378 11.176 49.8378 13.024C49.8378 14.872 48.5058 16.144 46.6698 16.144C44.8338 16.144 43.5018 14.872 43.5018 13.024ZM44.9658 13.024C44.9658 14.104 45.6618 14.836 46.6698 14.836C47.6778 14.836 48.3738 14.104 48.3738 13.024C48.3738 11.944 47.6778 11.212 46.6698 11.212C45.6618 11.212 44.9658 11.944 44.9658 13.024ZM52.9556 16H51.4916V11.296H50.3516V10.072H51.4916V8.224H52.9556V10.072H54.1076V11.296H52.9556V16ZM55.7497 8.884C55.2457 8.884 54.8497 8.488 54.8497 7.996C54.8497 7.504 55.2457 7.12 55.7497 7.12C56.2297 7.12 56.6257 7.504 56.6257 7.996C56.6257 8.488 56.2297 8.884 55.7497 8.884ZM55.0177 16V10.072H56.4817V16H55.0177ZM62.1343 16V11.296H59.7103V16H58.2583V11.296H57.4063V10.072H58.2583V9.352C58.2583 7.744 59.0983 7.072 60.2983 7.072C60.5263 7.072 60.8023 7.084 61.0543 7.132V8.38H60.5383C59.8783 8.38 59.7103 8.764 59.7103 9.352V10.072H63.5983V16H62.1343ZM62.8663 8.86C62.3743 8.86 61.9903 8.476 61.9903 7.984C61.9903 7.504 62.3743 7.12 62.8663 7.12C63.3463 7.12 63.7303 7.504 63.7303 7.984C63.7303 8.476 63.3463 8.86 62.8663 8.86ZM64.7596 13.024C64.7596 11.188 65.9716 9.892 67.7236 9.892C69.3436 9.892 70.4476 10.792 70.6036 12.22H69.1396C68.9716 11.548 68.4796 11.2 67.7836 11.2C66.8476 11.2 66.2236 11.908 66.2236 13.024C66.2236 14.14 66.7996 14.836 67.7356 14.836C68.4676 14.836 68.9836 14.476 69.1396 13.828H70.6156C70.4356 15.208 69.2836 16.156 67.7356 16.156C65.9356 16.156 64.7596 14.908 64.7596 13.024ZM73.4692 16.156C72.2092 16.156 71.4412 15.424 71.4412 14.308C71.4412 13.216 72.2332 12.532 73.6372 12.424L75.4132 12.292V12.16C75.4132 11.356 74.9332 11.032 74.1892 11.032C73.3252 11.032 72.8452 11.392 72.8452 12.016H71.5972C71.5972 10.732 72.6532 9.892 74.2612 9.892C75.8572 9.892 76.8412 10.756 76.8412 12.4V16H75.5572L75.4492 15.124C75.1972 15.736 74.3932 16.156 73.4692 16.156ZM73.9492 15.052C74.8492 15.052 75.4252 14.512 75.4252 13.6V13.288L74.1892 13.384C73.2772 13.468 72.9292 13.768 72.9292 14.248C72.9292 14.788 73.2892 15.052 73.9492 15.052ZM80.2134 16H78.7494V11.296H77.6094V10.072H78.7494V8.224H80.2134V10.072H81.3654V11.296H80.2134V16ZM83.0075 8.884C82.5035 8.884 82.1075 8.488 82.1075 7.996C82.1075 7.504 82.5035 7.12 83.0075 7.12C83.4875 7.12 83.8835 7.504 83.8835 7.996C83.8835 8.488 83.4875 8.884 83.0075 8.884ZM82.2755 16V10.072H83.7395V16H82.2755ZM84.9041 13.024C84.9041 11.176 86.2361 9.904 88.0721 9.904C89.9081 9.904 91.2401 11.176 91.2401 13.024C91.2401 14.872 89.9081 16.144 88.0721 16.144C86.2361 16.144 84.9041 14.872 84.9041 13.024ZM86.3681 13.024C86.3681 14.104 87.0641 14.836 88.0721 14.836C89.0801 14.836 89.7761 14.104 89.7761 13.024C89.7761 11.944 89.0801 11.212 88.0721 11.212C87.0641 11.212 86.3681 11.944 86.3681 13.024ZM93.8645 16H92.4005V10.072H93.7565L93.8765 10.84C94.2485 10.24 94.9685 9.892 95.7725 9.892C97.2605 9.892 98.0285 10.816 98.0285 12.352V16H96.5645V12.7C96.5645 11.704 96.0725 11.224 95.3165 11.224C94.4165 11.224 93.8645 11.848 93.8645 12.808V16Z" fill="black"/>
</svg>
