<svg width="117" height="24" viewBox="0 0 117 24" fill="none" xmlns="http://www.w3.org/2000/svg">
<path d="M15 22H9C4 22 2 20 2 15V9C2 4 4 2 9 2H15C20 2 22 4 22 9V15C22 20 20 22 15 22Z" stroke="#1A1A1A" stroke-width="1.5" stroke-linecap="round" stroke-linejoin="round"/>
<path d="M9.54988 17.72H7.09988C6.42988 17.72 5.87988 17.17 5.87988 16.5V7.51004C5.87988 6.84004 6.42988 6.29004 7.09988 6.29004H9.54988C10.2199 6.29004 10.7699 6.84004 10.7699 7.51004V16.49C10.7699 17.17 10.2199 17.72 9.54988 17.72Z" stroke="#1A1A1A" stroke-width="1.5" stroke-miterlimit="10"/>
<path d="M17.1397 13.63H14.1997C13.6597 13.63 13.2197 13.19 13.2197 12.65V7.27004C13.2197 6.73004 13.6597 6.29004 14.1997 6.29004H17.1397C17.6797 6.29004 18.1197 6.73004 18.1197 7.27004V12.66C18.1297 13.19 17.6797 13.63 17.1397 13.63Z" stroke="#1A1A1A" stroke-width="1.5" stroke-miterlimit="10"/>
<path d="M34.204 8.644V7.228H40.876V8.644H38.308V16H36.772V8.644H34.204ZM44.8393 10.048V11.404H44.2993C43.2433 11.404 42.5833 11.968 42.5833 13.12V16H41.1193V10.084H42.4993L42.5833 10.948C42.8353 10.36 43.3993 9.964 44.1913 9.964C44.3953 9.964 44.5993 9.988 44.8393 10.048ZM48.283 16.156C46.519 16.156 45.283 14.872 45.283 13.036C45.283 11.176 46.495 9.892 48.235 9.892C50.011 9.892 51.139 11.08 51.139 12.928V13.372L46.675 13.384C46.783 14.428 47.335 14.956 48.307 14.956C49.111 14.956 49.639 14.644 49.807 14.08H51.163C50.911 15.376 49.831 16.156 48.283 16.156ZM48.247 11.092C47.383 11.092 46.855 11.56 46.711 12.448H49.687C49.687 11.632 49.123 11.092 48.247 11.092ZM53.7867 16H52.3347V7.072H53.7867V16ZM56.7984 16H55.3464V7.072H56.7984V16ZM57.9861 13.024C57.9861 11.176 59.3181 9.904 61.1541 9.904C62.9901 9.904 64.3221 11.176 64.3221 13.024C64.3221 14.872 62.9901 16.144 61.1541 16.144C59.3181 16.144 57.9861 14.872 57.9861 13.024ZM59.4501 13.024C59.4501 14.104 60.1461 14.836 61.1541 14.836C62.1621 14.836 62.8581 14.104 62.8581 13.024C62.8581 11.944 62.1621 11.212 61.1541 11.212C60.1461 11.212 59.4501 11.944 59.4501 13.024Z" fill="black"/>
</svg>
