<svg width="119" height="24" viewBox="0 0 119 24" fill="none" xmlns="http://www.w3.org/2000/svg">
<path d="M22 5.14999V7.85001C22 10.1 21.1 11 18.85 11H16.15C13.9 11 13 10.1 13 7.85001V5.14999C13 2.89999 13.9 2 16.15 2H18.85C21.1 2 22 2.89999 22 5.14999Z" stroke="#1A1A1A" stroke-width="1.5" stroke-linecap="round" stroke-linejoin="round"/>
<path d="M11 16.15V18.85C11 21.1 10.1 22 7.85 22H5.15C2.9 22 2 21.1 2 18.85V16.15C2 13.9 2.9 13 5.15 13H7.85C10.1 13 11 13.9 11 16.15Z" stroke="#1A1A1A" stroke-width="1.5" stroke-linecap="round" stroke-linejoin="round"/>
<path d="M17.3791 11V13.62C17.3791 16.31 16.3091 17.38 13.6191 17.38H10.9991V16.15C10.9991 13.9 10.0991 13 7.84914 13H6.61914V10.38C6.61914 7.69 7.68914 6.62 10.3791 6.62H12.9991V7.85001C12.9991 10.1 13.8991 11 16.1491 11H17.3791Z" stroke="#1A1A1A" stroke-width="1.5" stroke-linecap="round" stroke-linejoin="round"/>
<path d="M34.972 17V8.228H38.464C40.192 8.228 41.248 9.128 41.248 10.592C41.248 11.564 40.816 12.26 39.988 12.608C40.912 12.908 41.38 13.604 41.38 14.624C41.38 16.124 40.336 17 38.524 17H34.972ZM38.332 9.584H36.508V11.972H38.368C39.208 11.972 39.676 11.528 39.676 10.748C39.676 9.992 39.196 9.584 38.332 9.584ZM38.464 13.268H36.508V15.644H38.464C39.328 15.644 39.808 15.224 39.808 14.432C39.808 13.688 39.316 13.268 38.464 13.268ZM44.3364 17.156C43.0764 17.156 42.3084 16.424 42.3084 15.308C42.3084 14.216 43.1004 13.532 44.5044 13.424L46.2804 13.292V13.16C46.2804 12.356 45.8004 12.032 45.0564 12.032C44.1924 12.032 43.7124 12.392 43.7124 13.016H42.4644C42.4644 11.732 43.5204 10.892 45.1284 10.892C46.7244 10.892 47.7084 11.756 47.7084 13.4V17H46.4244L46.3164 16.124C46.0644 16.736 45.2604 17.156 44.3364 17.156ZM44.8164 16.052C45.7164 16.052 46.2924 15.512 46.2924 14.6V14.288L45.0564 14.384C44.1444 14.468 43.7964 14.768 43.7964 15.248C43.7964 15.788 44.1564 16.052 44.8164 16.052ZM48.7986 14.024C48.7986 12.188 50.0106 10.892 51.7626 10.892C53.3826 10.892 54.4866 11.792 54.6426 13.22H53.1786C53.0106 12.548 52.5186 12.2 51.8226 12.2C50.8866 12.2 50.2626 12.908 50.2626 14.024C50.2626 15.14 50.8386 15.836 51.7746 15.836C52.5066 15.836 53.0226 15.476 53.1786 14.828H54.6546C54.4746 16.208 53.3226 17.156 51.7746 17.156C49.9746 17.156 48.7986 15.908 48.7986 14.024ZM57.2203 17H55.7683V8.072H57.2203V13.556L59.5243 11.072H61.3603L59.1043 13.424L61.3123 17H59.6323L58.0843 14.504L57.2203 15.404V17ZM63.5093 17L61.5893 11.072H63.1133L63.8933 13.616C64.0253 14.084 64.1453 14.6 64.2533 15.152C64.3613 14.576 64.4693 14.204 64.6613 13.616L65.4773 11.072H66.9653L67.7573 13.616C67.8293 13.856 68.0693 14.744 68.1413 15.14C68.2373 14.696 68.4293 13.988 68.5373 13.616L69.3293 11.072H70.8773L68.8253 17H67.4573L66.6413 14.432C66.4013 13.652 66.2693 13.088 66.2213 12.788C66.1613 13.064 66.0533 13.484 65.7533 14.456L64.9373 17H63.5093ZM73.2348 17.156C71.9748 17.156 71.2068 16.424 71.2068 15.308C71.2068 14.216 71.9988 13.532 73.4028 13.424L75.1788 13.292V13.16C75.1788 12.356 74.6988 12.032 73.9548 12.032C73.0908 12.032 72.6108 12.392 72.6108 13.016H71.3628C71.3628 11.732 72.4188 10.892 74.0268 10.892C75.6228 10.892 76.6068 11.756 76.6068 13.4V17H75.3228L75.2148 16.124C74.9628 16.736 74.1588 17.156 73.2348 17.156ZM73.7148 16.052C74.6148 16.052 75.1908 15.512 75.1908 14.6V14.288L73.9548 14.384C73.0428 14.468 72.6948 14.768 72.6948 15.248C72.6948 15.788 73.0548 16.052 73.7148 16.052ZM81.7651 11.048V12.404H81.2251C80.1691 12.404 79.5091 12.968 79.5091 14.12V17H78.0451V11.084H79.4251L79.5091 11.948C79.7611 11.36 80.3251 10.964 81.1171 10.964C81.3211 10.964 81.5251 10.988 81.7651 11.048ZM84.9928 17.156C83.2768 17.156 82.2088 15.896 82.2088 14.06C82.2088 12.212 83.2888 10.892 85.0768 10.892C85.9048 10.892 86.6368 11.24 87.0088 11.828V8.072H88.4608V17H87.1168L87.0208 16.076C86.6608 16.76 85.8928 17.156 84.9928 17.156ZM85.3168 15.812C86.3368 15.812 86.9968 15.08 86.9968 14.012C86.9968 12.944 86.3368 12.2 85.3168 12.2C84.2968 12.2 83.6728 12.956 83.6728 14.012C83.6728 15.068 84.2968 15.812 85.3168 15.812ZM89.9745 14.444V13.148H93.8385V14.444H89.9745ZM96.0622 9.884C95.5582 9.884 95.1622 9.488 95.1622 8.996C95.1622 8.504 95.5582 8.12 96.0622 8.12C96.5422 8.12 96.9382 8.504 96.9382 8.996C96.9382 9.488 96.5422 9.884 96.0622 9.884ZM95.3302 17V11.072H96.7942V17H95.3302ZM100.323 17H98.8588V12.296H97.7188V11.072H98.8588V9.224H100.323V11.072H101.475V12.296H100.323V17ZM104.978 17.156C103.214 17.156 101.978 15.872 101.978 14.036C101.978 12.176 103.19 10.892 104.93 10.892C106.706 10.892 107.834 12.08 107.834 13.928V14.372L103.37 14.384C103.478 15.428 104.03 15.956 105.002 15.956C105.806 15.956 106.334 15.644 106.502 15.08H107.858C107.606 16.376 106.526 17.156 104.978 17.156ZM104.942 12.092C104.078 12.092 103.55 12.56 103.406 13.448H106.382C106.382 12.632 105.818 12.092 104.942 12.092ZM110.47 17H109.006V11.072H110.35L110.47 11.768C110.77 11.276 111.37 10.892 112.222 10.892C113.122 10.892 113.746 11.336 114.058 12.02C114.358 11.336 115.054 10.892 115.954 10.892C117.394 10.892 118.186 11.756 118.186 13.124V17H116.734V13.508C116.734 12.656 116.278 12.212 115.582 12.212C114.874 12.212 114.334 12.668 114.334 13.64V17H112.87V13.496C112.87 12.668 112.426 12.224 111.73 12.224C111.034 12.224 110.47 12.68 110.47 13.64V17Z" fill="black"/>
</svg>
