<svg width="101" height="24" viewBox="0 0 101 24" fill="none" xmlns="http://www.w3.org/2000/svg">
<path d="M11.9697 22C17.4926 22 21.9697 17.5228 21.9697 12C21.9697 6.47715 17.4926 2 11.9697 2C6.44688 2 1.96973 6.47715 1.96973 12C1.96973 17.5228 6.44688 22 11.9697 22Z" stroke="#1A1A1A" stroke-width="1.5" stroke-linecap="round" stroke-linejoin="round"/>
<path d="M12 16.5C14.4853 16.5 16.5 14.4853 16.5 12C16.5 9.51472 14.4853 7.5 12 7.5C9.51472 7.5 7.5 9.51472 7.5 12C7.5 14.4853 9.51472 16.5 12 16.5Z" stroke="#1A1A1A" stroke-width="1.5" stroke-linecap="round" stroke-linejoin="round"/>
<path d="M4.90039 4.92993L8.44039 8.45993" stroke="#1A1A1A" stroke-width="1.5" stroke-linecap="round" stroke-linejoin="round"/>
<path d="M4.90039 19.07L8.44039 15.54" stroke="#1A1A1A" stroke-width="1.5" stroke-linecap="round" stroke-linejoin="round"/>
<path d="M19.0498 19.07L15.5098 15.54" stroke="#1A1A1A" stroke-width="1.5" stroke-linecap="round" stroke-linejoin="round"/>
<path d="M19.0498 4.93L15.5098 8.46" stroke="#1A1A1A" stroke-width="1.5" stroke-linecap="round" stroke-linejoin="round"/>
<path d="M36.508 7.228V14.584H40.18V16H34.972V7.228H36.508ZM41.945 8.884C41.441 8.884 41.045 8.488 41.045 7.996C41.045 7.504 41.441 7.12 41.945 7.12C42.425 7.12 42.821 7.504 42.821 7.996C42.821 8.488 42.425 8.884 41.945 8.884ZM41.213 16V10.072H42.677V16H41.213ZM43.6016 10.072H44.4536V9.352C44.4536 7.744 45.3056 7.072 46.5896 7.072C46.8176 7.072 47.0936 7.084 47.3456 7.132V8.38H46.8296C46.0856 8.38 45.9056 8.764 45.9056 9.352V10.072H47.3216V11.296H45.9056V16H44.4536V11.296H43.6016V10.072ZM50.7322 16.156C48.9682 16.156 47.7322 14.872 47.7322 13.036C47.7322 11.176 48.9442 9.892 50.6842 9.892C52.4602 9.892 53.5882 11.08 53.5882 12.928V13.372L49.1242 13.384C49.2322 14.428 49.7842 14.956 50.7562 14.956C51.5602 14.956 52.0882 14.644 52.2562 14.08H53.6122C53.3602 15.376 52.2802 16.156 50.7322 16.156ZM50.6962 11.092C49.8322 11.092 49.3042 11.56 49.1602 12.448H52.1362C52.1362 11.632 51.5722 11.092 50.6962 11.092ZM56.1159 16H54.7599V7.072H56.2239V10.936C56.6079 10.276 57.3999 9.88 58.2999 9.88C59.9919 9.88 61.0239 11.2 61.0239 13.072C61.0239 14.896 59.9079 16.156 58.2039 16.156C57.3159 16.156 56.5599 15.76 56.2119 15.076L56.1159 16ZM56.2359 13.012C56.2359 14.08 56.8959 14.812 57.9039 14.812C58.9359 14.812 59.5479 14.068 59.5479 13.012C59.5479 11.956 58.9359 11.2 57.9039 11.2C56.8959 11.2 56.2359 11.944 56.2359 13.012ZM66.069 10.072H67.533V16H66.177L66.069 15.208C65.709 15.772 64.941 16.156 64.149 16.156C62.781 16.156 61.977 15.232 61.977 13.78V10.072H63.441V13.264C63.441 14.392 63.885 14.848 64.701 14.848C65.625 14.848 66.069 14.308 66.069 13.18V10.072ZM68.5799 13.024C68.5799 11.176 69.9119 9.904 71.7479 9.904C73.5839 9.904 74.9159 11.176 74.9159 13.024C74.9159 14.872 73.5839 16.144 71.7479 16.144C69.9119 16.144 68.5799 14.872 68.5799 13.024ZM70.0439 13.024C70.0439 14.104 70.7399 14.836 71.7479 14.836C72.7559 14.836 73.4519 14.104 73.4519 13.024C73.4519 11.944 72.7559 11.212 71.7479 11.212C70.7399 11.212 70.0439 11.944 70.0439 13.024ZM75.3377 18.748V17.524H76.2137C76.7897 17.524 77.1497 17.392 77.4017 16.696L77.5697 16.252L75.1817 10.072H76.7297L78.2537 14.392L79.8617 10.072H81.3737L78.4697 17.32C78.0257 18.424 77.4017 18.88 76.4297 18.88C76.0217 18.88 75.6617 18.832 75.3377 18.748Z" fill="black"/>
</svg>
