<svg width="140" height="24" viewBox="0 0 140 24" fill="none" xmlns="http://www.w3.org/2000/svg">
<path d="M8.8999 7.55999C9.2099 3.95999 11.0599 2.48999 15.1099 2.48999H15.2399C19.7099 2.48999 21.4999 4.27999 21.4999 8.74999V15.27C21.4999 19.74 19.7099 21.53 15.2399 21.53H15.1099C11.0899 21.53 9.2399 20.08 8.9099 16.54" stroke="#1A1A1A" stroke-width="1.5" stroke-linecap="round" stroke-linejoin="round"/>
<path d="M15.0001 12H3.62012" stroke="#1A1A1A" stroke-width="1.5" stroke-linecap="round" stroke-linejoin="round"/>
<path d="M5.85 8.64999L2.5 12L5.85 15.35" stroke="#1A1A1A" stroke-width="1.5" stroke-linecap="round" stroke-linejoin="round"/>
<path d="M36.508 7.228V14.584H40.18V16H34.972V7.228H36.508ZM40.7478 13.024C40.7478 11.176 42.0798 9.904 43.9158 9.904C45.7518 9.904 47.0838 11.176 47.0838 13.024C47.0838 14.872 45.7518 16.144 43.9158 16.144C42.0798 16.144 40.7478 14.872 40.7478 13.024ZM42.2118 13.024C42.2118 14.104 42.9078 14.836 43.9158 14.836C44.9238 14.836 45.6198 14.104 45.6198 13.024C45.6198 11.944 44.9238 11.212 43.9158 11.212C42.9078 11.212 42.2118 11.944 42.2118 13.024ZM47.9083 12.904C47.9083 11.176 49.0363 9.88 50.7283 9.88C51.6163 9.88 52.3123 10.252 52.6603 10.888L52.7443 10.072H54.1003V15.7C54.1003 17.68 52.9123 18.916 50.9923 18.916C49.2883 18.916 48.1243 17.944 47.9443 16.36H49.4083C49.5043 17.128 50.0923 17.584 50.9923 17.584C52.0003 17.584 52.6483 16.948 52.6483 15.964V14.98C52.2763 15.532 51.5443 15.88 50.6923 15.88C49.0123 15.88 47.9083 14.62 47.9083 12.904ZM49.3843 12.868C49.3843 13.864 50.0203 14.608 50.9803 14.608C51.9883 14.608 52.6123 13.9 52.6123 12.868C52.6123 11.86 52.0003 11.164 50.9803 11.164C50.0083 11.164 49.3843 11.896 49.3843 12.868ZM55.2674 13.024C55.2674 11.176 56.5994 9.904 58.4354 9.904C60.2714 9.904 61.6034 11.176 61.6034 13.024C61.6034 14.872 60.2714 16.144 58.4354 16.144C56.5994 16.144 55.2674 14.872 55.2674 13.024ZM56.7314 13.024C56.7314 14.104 57.4274 14.836 58.4354 14.836C59.4434 14.836 60.1394 14.104 60.1394 13.024C60.1394 11.944 59.4434 11.212 58.4354 11.212C57.4274 11.212 56.7314 11.944 56.7314 13.024ZM66.6432 10.072H68.1072V16H66.7512L66.6432 15.208C66.2832 15.772 65.5152 16.156 64.7232 16.156C63.3552 16.156 62.5512 15.232 62.5512 13.78V10.072H64.0152V13.264C64.0152 14.392 64.4592 14.848 65.2752 14.848C66.1992 14.848 66.6432 14.308 66.6432 13.18V10.072ZM71.6353 16H70.1713V11.296H69.0313V10.072H70.1713V8.224H71.6353V10.072H72.7873V11.296H71.6353V16ZM73.451 13.444V12.148H77.315V13.444H73.451ZM83.9133 15.988L77.8293 16V14.848L80.6973 12.424C81.8853 11.416 82.2813 10.84 82.2813 10C82.2813 9.004 81.7413 8.44 80.8173 8.44C79.8573 8.44 79.2573 9.112 79.2453 10.24H77.7213C77.7333 8.32 78.9573 7.072 80.8173 7.072C82.6893 7.072 83.8533 8.14 83.8533 9.916C83.8533 11.14 83.1813 12.064 81.8493 13.204L80.2653 14.56H83.9133V15.988Z" fill="black"/>
</svg>
