<svg width="101" height="24" viewBox="0 0 101 24" fill="none" xmlns="http://www.w3.org/2000/svg">
<path d="M22 9.00002V15C22 17.5 21.5 19.25 20.38 20.38L14 14L21.73 6.27002C21.91 7.06002 22 7.96002 22 9.00002Z" stroke="#1A1A1A" stroke-width="1.5" stroke-linecap="round" stroke-linejoin="round"/>
<path d="M21.73 6.27L6.26999 21.73C3.25999 21.04 2 18.96 2 15V9C2 4 4 2 9 2H15C18.96 2 21.04 3.26 21.73 6.27Z" stroke="#1A1A1A" stroke-width="1.5" stroke-linecap="round" stroke-linejoin="round"/>
<path d="M20.38 20.38C19.25 21.5 17.5 22 15 22H9.00003C7.96003 22 7.06002 21.91 6.27002 21.73L14 14L20.38 20.38Z" stroke="#1A1A1A" stroke-width="1.5" stroke-linecap="round" stroke-linejoin="round"/>
<path d="M6.23977 7.98021C6.91977 5.05021 11.3198 5.05021 11.9998 7.98021C12.3898 9.70021 11.3098 11.1602 10.3598 12.0602C9.66977 12.7202 8.57979 12.7202 7.87979 12.0602C6.92979 11.1602 5.83977 9.70021 6.23977 7.98021Z" stroke="#1A1A1A" stroke-width="1.5"/>
<path d="M9.0946 8.7002H9.10359" stroke="#1A1A1A" stroke-width="1.5" stroke-linecap="round" stroke-linejoin="round"/>
<path d="M36.46 16H34.972V7.228H36.46L39.292 14.212L42.124 7.228H43.636V16H42.148V13.3C42.148 11.536 42.148 11.02 42.232 10.396L40 16H38.584L36.364 10.408C36.448 10.936 36.46 11.764 36.46 12.856V16ZM47.1255 16.156C45.8655 16.156 45.0975 15.424 45.0975 14.308C45.0975 13.216 45.8895 12.532 47.2935 12.424L49.0695 12.292V12.16C49.0695 11.356 48.5895 11.032 47.8455 11.032C46.9815 11.032 46.5015 11.392 46.5015 12.016H45.2535C45.2535 10.732 46.3095 9.892 47.9175 9.892C49.5135 9.892 50.4975 10.756 50.4975 12.4V16H49.2135L49.1055 15.124C48.8535 15.736 48.0495 16.156 47.1255 16.156ZM47.6055 15.052C48.5055 15.052 49.0815 14.512 49.0815 13.6V13.288L47.8455 13.384C46.9335 13.468 46.5855 13.768 46.5855 14.248C46.5855 14.788 46.9455 15.052 47.6055 15.052ZM51.9357 18.748V10.072H53.2917L53.3877 10.972C53.7477 10.288 54.5277 9.892 55.4277 9.892C57.0957 9.892 58.1997 11.104 58.1997 12.964C58.1997 14.812 57.1917 16.156 55.4277 16.156C54.5397 16.156 53.7717 15.808 53.3997 15.208V18.748H51.9357ZM53.4117 13.036C53.4117 14.104 54.0717 14.836 55.0797 14.836C56.1117 14.836 56.7237 14.092 56.7237 13.036C56.7237 11.98 56.1117 11.224 55.0797 11.224C54.0717 11.224 53.4117 11.968 53.4117 13.036Z" fill="black"/>
</svg>
