<svg width="101" height="24" viewBox="0 0 101 24" fill="none" xmlns="http://www.w3.org/2000/svg">
<path d="M14 6.19995V10C11.21 10.05 10.05 11.21 10 14H6.2C3.2 14 2 12.8 2 9.80005V6.19995C2 3.19995 3.2 2 6.2 2H9.8C12.8 2 14 3.19995 14 6.19995Z" stroke="#1A1A1A" stroke-width="1.5" stroke-linecap="round" stroke-linejoin="round"/>
<path d="M6.96019 5.87008C6.43019 5.51008 5.7302 5.5101 5.2002 5.8901" stroke="#1A1A1A" stroke-width="1.5" stroke-miterlimit="10" stroke-linecap="round" stroke-linejoin="round"/>
<path d="M10.9602 5.87008C10.4302 5.51008 9.7302 5.5101 9.2002 5.8901" stroke="#1A1A1A" stroke-width="1.5" stroke-miterlimit="10" stroke-linecap="round" stroke-linejoin="round"/>
<path d="M8.15981 11.4197H5.83981C5.53981 11.4197 5.2998 11.1796 5.2998 10.8796C5.2998 9.38964 6.50981 8.17969 7.99981 8.17969C8.63981 8.17969 9.2298 8.39965 9.6898 8.76965" stroke="#1A1A1A" stroke-width="1.5" stroke-miterlimit="10" stroke-linecap="round" stroke-linejoin="round"/>
<path d="M22 14.2V17.8C22 20.8 20.8 22 17.8 22H14.2C11.2 22 10 20.8 10 17.8V14C10.05 11.21 11.21 10.05 14 10H17.8C20.8 10 22 11.2 22 14.2Z" stroke="#1A1A1A" stroke-width="1.5" stroke-linecap="round" stroke-linejoin="round"/>
<path d="M14.9602 13.6196C14.4302 13.9796 13.7302 13.9796 13.2002 13.5996" stroke="#1A1A1A" stroke-width="1.5" stroke-miterlimit="10" stroke-linecap="round" stroke-linejoin="round"/>
<path d="M18.9602 13.6196C18.4302 13.9796 17.7302 13.9796 17.2002 13.5996" stroke="#1A1A1A" stroke-width="1.5" stroke-miterlimit="10" stroke-linecap="round" stroke-linejoin="round"/>
<path d="M13.8398 16.1797H18.1598C18.4598 16.1797 18.6998 16.4196 18.6998 16.7196C18.6998 18.2096 17.4898 19.4197 15.9998 19.4197C14.5098 19.4197 13.2998 18.2096 13.2998 16.7196C13.2998 16.4196 13.5398 16.1797 13.8398 16.1797Z" stroke="#1A1A1A" stroke-width="1.5" stroke-miterlimit="10" stroke-linecap="round" stroke-linejoin="round"/>
<path d="M34.468 9.676C34.468 8.14 35.74 7.072 37.588 7.072C39.364 7.072 40.492 8.056 40.54 9.64H39.004C38.968 8.884 38.428 8.44 37.564 8.44C36.616 8.44 36.004 8.896 36.004 9.628C36.004 10.252 36.34 10.6 37.072 10.768L38.452 11.068C39.952 11.392 40.684 12.16 40.684 13.468C40.684 15.1 39.412 16.156 37.48 16.156C35.608 16.156 34.384 15.16 34.348 13.588H35.884C35.896 14.332 36.496 14.776 37.48 14.776C38.5 14.776 39.148 14.332 39.148 13.6C39.148 13.012 38.848 12.664 38.128 12.508L36.736 12.196C35.248 11.872 34.468 11.02 34.468 9.676ZM43.3216 16H41.8576V10.072H43.2016L43.3216 10.768C43.6216 10.276 44.2216 9.892 45.0736 9.892C45.9736 9.892 46.5976 10.336 46.9096 11.02C47.2096 10.336 47.9056 9.892 48.8056 9.892C50.2456 9.892 51.0376 10.756 51.0376 12.124V16H49.5856V12.508C49.5856 11.656 49.1296 11.212 48.4336 11.212C47.7256 11.212 47.1856 11.668 47.1856 12.64V16H45.7216V12.496C45.7216 11.668 45.2776 11.224 44.5816 11.224C43.8856 11.224 43.3216 11.68 43.3216 12.64V16ZM53.2068 8.884C52.7028 8.884 52.3068 8.488 52.3068 7.996C52.3068 7.504 52.7028 7.12 53.2068 7.12C53.6868 7.12 54.0828 7.504 54.0828 7.996C54.0828 8.488 53.6868 8.884 53.2068 8.884ZM52.4748 16V10.072H53.9388V16H52.4748ZM56.9273 16H55.4753V7.072H56.9273V16ZM61.115 16.156C59.351 16.156 58.115 14.872 58.115 13.036C58.115 11.176 59.327 9.892 61.067 9.892C62.843 9.892 63.971 11.08 63.971 12.928V13.372L59.507 13.384C59.615 14.428 60.167 14.956 61.139 14.956C61.943 14.956 62.471 14.644 62.639 14.08H63.995C63.743 15.376 62.663 16.156 61.115 16.156ZM61.079 11.092C60.215 11.092 59.687 11.56 59.543 12.448H62.519C62.519 11.632 61.955 11.092 61.079 11.092ZM64.4275 18.748V17.524H65.3035C65.8795 17.524 66.2395 17.392 66.4915 16.696L66.6595 16.252L64.2715 10.072H65.8195L67.3435 14.392L68.9515 10.072H70.4635L67.5595 17.32C67.1155 18.424 66.4915 18.88 65.5195 18.88C65.1115 18.88 64.7515 18.832 64.4275 18.748ZM70.7102 14.2H72.1022C72.1142 14.716 72.4982 15.04 73.1702 15.04C73.8542 15.04 74.2262 14.764 74.2262 14.332C74.2262 14.032 74.0702 13.816 73.5422 13.696L72.4742 13.444C71.4062 13.204 70.8902 12.7 70.8902 11.752C70.8902 10.588 71.8742 9.892 73.2422 9.892C74.5742 9.892 75.4742 10.66 75.4862 11.812H74.0942C74.0822 11.308 73.7462 10.984 73.1822 10.984C72.6062 10.984 72.2702 11.248 72.2702 11.692C72.2702 12.028 72.5342 12.244 73.0382 12.364L74.1062 12.616C75.1022 12.844 75.6062 13.3 75.6062 14.212C75.6062 15.412 74.5862 16.156 73.1222 16.156C71.6462 16.156 70.7102 15.364 70.7102 14.2Z" fill="black"/>
</svg>
