<svg width="119" height="24" viewBox="0 0 119 24" fill="none" xmlns="http://www.w3.org/2000/svg">
<path d="M22 13V17C22 20.5 20 22 17 22H7C4 22 2 20.5 2 17V13C2 10.35 3.15 8.85003 5 8.28003C5.6 8.09003 6.27 8 7 8H17C17.73 8 18.4 8.09003 19 8.28003C20.85 8.85003 22 10.35 22 13Z" stroke="#1A1A1A" stroke-width="1.5" stroke-miterlimit="10" stroke-linecap="round" stroke-linejoin="round"/>
<path d="M19 7V8.28003C18.4 8.09003 17.73 8 17 8H7C6.27 8 5.6 8.09003 5 8.28003V7C5 5.9 5.9 5 7 5H17C18.1 5 19 5.9 19 7Z" stroke="#1A1A1A" stroke-width="1.5" stroke-miterlimit="10" stroke-linecap="round" stroke-linejoin="round"/>
<path d="M16 3.51001V5H8V3.51001C8 2.68001 8.68001 2 9.51001 2H14.49C15.32 2 16 2.68001 16 3.51001Z" stroke="#1A1A1A" stroke-width="1.5" stroke-miterlimit="10" stroke-linecap="round" stroke-linejoin="round"/>
<path d="M9.07001 19.4501C9.79902 19.4501 10.39 18.8591 10.39 18.1301C10.39 17.4011 9.79902 16.8101 9.07001 16.8101C8.34099 16.8101 7.75 17.4011 7.75 18.1301C7.75 18.8591 8.34099 19.4501 9.07001 19.4501Z" stroke="#1A1A1A" stroke-width="1.5" stroke-linecap="round" stroke-linejoin="round"/>
<path d="M15.2504 17.2501V12.0801C15.2504 10.9801 14.5604 10.8201 13.8604 11.0201L11.2104 11.7401C10.7304 11.8701 10.4004 12.2501 10.4004 12.8001V13.7201V14.3401V18.1301" stroke="#1A1A1A" stroke-width="1.5" stroke-linecap="round" stroke-linejoin="round"/>
<path d="M13.9304 18.5702C14.6594 18.5702 15.2504 17.9792 15.2504 17.2502C15.2504 16.5212 14.6594 15.9302 13.9304 15.9302C13.2013 15.9302 12.6104 16.5212 12.6104 17.2502C12.6104 17.9792 13.2013 18.5702 13.9304 18.5702Z" stroke="#1A1A1A" stroke-width="1.5" stroke-linecap="round" stroke-linejoin="round"/>
<path d="M10.4004 14.3502L15.2504 13.0303" stroke="#1A1A1A" stroke-width="1.5" stroke-linecap="round" stroke-linejoin="round"/>
<path d="M36.46 17H34.972V8.228H36.46L39.292 15.212L42.124 8.228H43.636V17H42.148V14.3C42.148 12.536 42.148 12.02 42.232 11.396L40 17H38.584L36.364 11.408C36.448 11.936 36.46 12.764 36.46 13.856V17ZM49.3815 11.072H50.8455V17H49.4895L49.3815 16.208C49.0215 16.772 48.2535 17.156 47.4615 17.156C46.0935 17.156 45.2895 16.232 45.2895 14.78V11.072H46.7535V14.264C46.7535 15.392 47.1975 15.848 48.0135 15.848C48.9375 15.848 49.3815 15.308 49.3815 14.18V11.072ZM51.7844 15.2H53.1764C53.1884 15.716 53.5724 16.04 54.2444 16.04C54.9284 16.04 55.3004 15.764 55.3004 15.332C55.3004 15.032 55.1444 14.816 54.6164 14.696L53.5484 14.444C52.4804 14.204 51.9644 13.7 51.9644 12.752C51.9644 11.588 52.9484 10.892 54.3164 10.892C55.6484 10.892 56.5484 11.66 56.5604 12.812H55.1684C55.1564 12.308 54.8204 11.984 54.2564 11.984C53.6804 11.984 53.3444 12.248 53.3444 12.692C53.3444 13.028 53.6084 13.244 54.1124 13.364L55.1804 13.616C56.1764 13.844 56.6804 14.3 56.6804 15.212C56.6804 16.412 55.6604 17.156 54.1964 17.156C52.7204 17.156 51.7844 16.364 51.7844 15.2ZM58.5271 9.884C58.0231 9.884 57.6271 9.488 57.6271 8.996C57.6271 8.504 58.0231 8.12 58.5271 8.12C59.0071 8.12 59.4031 8.504 59.4031 8.996C59.4031 9.488 59.0071 9.884 58.5271 9.884ZM57.7951 17V11.072H59.2591V17H57.7951ZM60.4236 14.024C60.4236 12.188 61.6356 10.892 63.3876 10.892C65.0076 10.892 66.1116 11.792 66.2676 13.22H64.8036C64.6356 12.548 64.1436 12.2 63.4476 12.2C62.5116 12.2 61.8876 12.908 61.8876 14.024C61.8876 15.14 62.4636 15.836 63.3996 15.836C64.1316 15.836 64.6476 15.476 64.8036 14.828H66.2796C66.0996 16.208 64.9476 17.156 63.3996 17.156C61.5996 17.156 60.4236 15.908 60.4236 14.024ZM67.287 14.444V13.148H71.151V14.444H67.287ZM74.1187 17H72.6667V8.072H74.1187V17ZM76.3864 9.884C75.8824 9.884 75.4864 9.488 75.4864 8.996C75.4864 8.504 75.8824 8.12 76.3864 8.12C76.8664 8.12 77.2624 8.504 77.2624 8.996C77.2624 9.488 76.8664 9.884 76.3864 9.884ZM75.6544 17V11.072H77.1184V17H75.6544ZM79.987 17H78.631V8.072H80.095V11.936C80.479 11.276 81.271 10.88 82.171 10.88C83.863 10.88 84.895 12.2 84.895 14.072C84.895 15.896 83.779 17.156 82.075 17.156C81.187 17.156 80.431 16.76 80.083 16.076L79.987 17ZM80.107 14.012C80.107 15.08 80.767 15.812 81.775 15.812C82.807 15.812 83.419 15.068 83.419 14.012C83.419 12.956 82.807 12.2 81.775 12.2C80.767 12.2 80.107 12.944 80.107 14.012ZM89.7807 11.048V12.404H89.2407C88.1847 12.404 87.5247 12.968 87.5247 14.12V17H86.0607V11.084H87.4407L87.5247 11.948C87.7767 11.36 88.3407 10.964 89.1327 10.964C89.3367 10.964 89.5407 10.988 89.7807 11.048ZM92.3013 17.156C91.0413 17.156 90.2733 16.424 90.2733 15.308C90.2733 14.216 91.0653 13.532 92.4693 13.424L94.2453 13.292V13.16C94.2453 12.356 93.7653 12.032 93.0213 12.032C92.1573 12.032 91.6773 12.392 91.6773 13.016H90.4293C90.4293 11.732 91.4853 10.892 93.0933 10.892C94.6893 10.892 95.6733 11.756 95.6733 13.4V17H94.3893L94.2813 16.124C94.0293 16.736 93.2253 17.156 92.3013 17.156ZM92.7812 16.052C93.6813 16.052 94.2573 15.512 94.2573 14.6V14.288L93.0213 14.384C92.1093 14.468 91.7613 14.768 91.7613 15.248C91.7613 15.788 92.1213 16.052 92.7812 16.052ZM100.831 11.048V12.404H100.291C99.2355 12.404 98.5755 12.968 98.5755 14.12V17H97.1115V11.084H98.4915L98.5755 11.948C98.8275 11.36 99.3915 10.964 100.183 10.964C100.387 10.964 100.591 10.988 100.831 11.048ZM101.482 19.748V18.524H102.358C102.934 18.524 103.294 18.392 103.546 17.696L103.714 17.252L101.326 11.072H102.874L104.398 15.392L106.006 11.072H107.518L104.614 18.32C104.17 19.424 103.546 19.88 102.574 19.88C102.166 19.88 101.806 19.832 101.482 19.748ZM107.928 14.444V13.148H111.792V14.444H107.928ZM118.39 16.988L112.306 17V15.848L115.174 13.424C116.362 12.416 116.758 11.84 116.758 11C116.758 10.004 116.218 9.44 115.294 9.44C114.334 9.44 113.734 10.112 113.722 11.24H112.198C112.21 9.32 113.434 8.072 115.294 8.072C117.166 8.072 118.33 9.14 118.33 10.916C118.33 12.14 117.658 13.064 116.326 14.204L114.742 15.56H118.39V16.988Z" fill="black"/>
</svg>
