<svg width="101" height="24" viewBox="0 0 101 24" fill="none" xmlns="http://www.w3.org/2000/svg">
<path d="M5.49994 2H4.09994C3.09994 2 2.59994 3.1 3.29994 3.8L8.99994 9.5C10.5999 11.1 13.2999 11.1 14.8999 9.5L20.5999 3.8C21.3999 3.1 20.8999 2 19.8999 2H18.4999C17.6999 2 16.8999 2.3 16.2999 2.9L12.6999 6.5C12.2999 6.9 11.5999 6.9 11.1999 6.5L7.69994 2.9C7.09994 2.3 6.29994 2 5.49994 2Z" stroke="#1A1A1A" stroke-width="1.5" stroke-miterlimit="10" stroke-linecap="round" stroke-linejoin="round"/>
<path d="M5.50004 22H4.10004C3.20004 22 2.70004 20.9 3.40004 20.2L9.00004 14.5C10.6 12.9 13.3 12.9 14.9 14.5L20.6 20.2C21.3 20.9 20.8 22 19.9 22H18.5C17.7 22 16.9 21.7 16.3 21.1L12.7 17.5C12.3 17.1 11.6 17.1 11.2 17.5L7.60004 21.1C7.10004 21.6 6.30004 22 5.50004 22Z" stroke="#1A1A1A" stroke-width="1.5" stroke-miterlimit="10" stroke-linecap="round" stroke-linejoin="round"/>
<path d="M37.18 11.62L34.264 7.228H36.088L37.156 8.8C37.516 9.34 37.816 9.844 38.14 10.444L40.18 7.228H41.968L39.1 11.608L41.98 16H40.168L39.184 14.548C38.8 13.96 38.488 13.432 38.14 12.796L36.004 16H34.204L37.18 11.62ZM46.644 10.048V11.404H46.104C45.048 11.404 44.388 11.968 44.388 13.12V16H42.924V10.084H44.304L44.388 10.948C44.64 10.36 45.204 9.964 45.996 9.964C46.2 9.964 46.404 9.988 46.644 10.048ZM47.6349 18.748V10.072H48.9909L49.0869 10.972C49.4469 10.288 50.2269 9.892 51.1269 9.892C52.7949 9.892 53.8989 11.104 53.8989 12.964C53.8989 14.812 52.8909 16.156 51.1269 16.156C50.2389 16.156 49.4709 15.808 49.0989 15.208V18.748H47.6349ZM49.1109 13.036C49.1109 14.104 49.7709 14.836 50.7789 14.836C51.8109 14.836 52.4229 14.092 52.4229 13.036C52.4229 11.98 51.8109 11.224 50.7789 11.224C49.7709 11.224 49.1109 11.968 49.1109 13.036ZM55.0526 13.444V12.148H58.9166V13.444H55.0526ZM63.3483 18.292H62.1843C60.9843 16.924 60.1923 14.776 60.1923 12.472C60.1923 10.372 60.8643 8.164 62.1843 6.664H63.3483C62.3523 8.02 61.6683 10.144 61.6683 12.472C61.6683 14.596 62.2563 16.804 63.3483 18.292ZM65.1318 16H63.4638L65.5038 13.096L63.4638 10.072H65.1678L66.4758 12.088L67.7358 10.072H69.3798L67.3638 13.072L69.3198 16H67.6398L66.3798 14.044L65.1318 16ZM73.9721 10.048V11.404H73.4321C72.3761 11.404 71.7161 11.968 71.7161 13.12V16H70.2521V10.084H71.6321L71.7161 10.948C71.9681 10.36 72.5321 9.964 73.3241 9.964C73.5281 9.964 73.7321 9.988 73.9721 10.048ZM74.963 18.748V10.072H76.319L76.415 10.972C76.775 10.288 77.555 9.892 78.455 9.892C80.123 9.892 81.227 11.104 81.227 12.964C81.227 14.812 80.219 16.156 78.455 16.156C77.567 16.156 76.799 15.808 76.427 15.208V18.748H74.963ZM76.439 13.036C76.439 14.104 77.099 14.836 78.107 14.836C79.139 14.836 79.751 14.092 79.751 13.036C79.751 11.98 79.139 11.224 78.107 11.224C77.099 11.224 76.439 11.968 76.439 13.036ZM82.8007 18.292H81.6367C82.7407 16.804 83.3167 14.596 83.3167 12.472C83.3167 10.144 82.6327 8.02 81.6367 6.664H82.8007C84.1207 8.164 84.8047 10.372 84.8047 12.472C84.8047 14.776 84.0007 16.924 82.8007 18.292Z" fill="black"/>
</svg>
