<svg width="119" height="24" viewBox="0 0 119 24" fill="none" xmlns="http://www.w3.org/2000/svg">
<path d="M10.4497 3.05006L6.70966 7.71006C5.85966 8.77006 6.15966 10.1301 7.36966 10.7301L11.0997 12.6001C11.5897 12.8401 12.3897 12.8401 12.8797 12.6001L16.6097 10.7301C17.8197 10.1201 18.1197 8.76006 17.2697 7.71006L13.5397 3.05006C12.6997 1.98006 11.2997 1.98006 10.4497 3.05006Z" stroke="#1A1A1A" stroke-width="1.5" stroke-miterlimit="10" stroke-linecap="round" stroke-linejoin="round"/>
<path d="M12 2.30005V7.56005" stroke="#1A1A1A" stroke-width="1.5" stroke-miterlimit="10" stroke-linecap="round" stroke-linejoin="round"/>
<path d="M7.7998 10.7101L11.9998 7.56006L16.1998 10.7101" stroke="#1A1A1A" stroke-width="1.5" stroke-miterlimit="10" stroke-linecap="round" stroke-linejoin="round"/>
<path d="M8.77011 14.4301L10.3801 15.1501C11.4101 15.6101 12.5901 15.6101 13.6301 15.1501L15.2401 14.4301C16.6801 13.7901 18.0101 15.5301 17.0101 16.7501L13.5501 20.9801C12.7001 22.0201 11.3101 22.0201 10.4501 20.9801L7.00011 16.7501C5.99011 15.5301 7.32011 13.7901 8.77011 14.4301Z" stroke="#1A1A1A" stroke-width="1.5" stroke-miterlimit="10" stroke-linecap="round" stroke-linejoin="round"/>
<path d="M40.42 17H34.972V8.228H40.42V9.644H36.508V11.9H40.012V13.256H36.508V15.584H40.42V17ZM43.8853 17H42.4213V12.296H41.2813V11.072H42.4213V9.224H43.8853V11.072H45.0373V12.296H43.8853V17ZM47.4114 17H45.9474V8.072H47.4234V11.84C47.7954 11.264 48.4914 10.892 49.3434 10.892C50.8074 10.892 51.5754 11.816 51.5754 13.352V17H50.1114V13.7C50.1114 12.704 49.6194 12.224 48.8754 12.224C47.9514 12.224 47.4114 12.872 47.4114 13.76V17ZM55.6658 17.156C53.9018 17.156 52.6658 15.872 52.6658 14.036C52.6658 12.176 53.8778 10.892 55.6178 10.892C57.3938 10.892 58.5218 12.08 58.5218 13.928V14.372L54.0578 14.384C54.1658 15.428 54.7178 15.956 55.6898 15.956C56.4938 15.956 57.0218 15.644 57.1898 15.08H58.5458C58.2938 16.376 57.2138 17.156 55.6658 17.156ZM55.6298 12.092C54.7658 12.092 54.2378 12.56 54.0938 13.448H57.0698C57.0698 12.632 56.5058 12.092 55.6298 12.092ZM63.4135 11.048V12.404H62.8735C61.8175 12.404 61.1575 12.968 61.1575 14.12V17H59.6935V11.084H61.0735L61.1575 11.948C61.4095 11.36 61.9735 10.964 62.7655 10.964C62.9695 10.964 63.1735 10.988 63.4135 11.048ZM66.8572 17.156C65.0932 17.156 63.8572 15.872 63.8572 14.036C63.8572 12.176 65.0692 10.892 66.8092 10.892C68.5852 10.892 69.7132 12.08 69.7132 13.928V14.372L65.2492 14.384C65.3572 15.428 65.9092 15.956 66.8812 15.956C67.6852 15.956 68.2132 15.644 68.3812 15.08H69.7372C69.4852 16.376 68.4052 17.156 66.8572 17.156ZM66.8212 12.092C65.9572 12.092 65.4292 12.56 65.2852 13.448H68.2612C68.2612 12.632 67.6972 12.092 66.8212 12.092ZM74.9049 11.072H76.3689V17H75.0129L74.9049 16.208C74.5449 16.772 73.7769 17.156 72.9849 17.156C71.6169 17.156 70.8129 16.232 70.8129 14.78V11.072H72.2769V14.264C72.2769 15.392 72.7209 15.848 73.5369 15.848C74.4609 15.848 74.9049 15.308 74.9049 14.18V11.072ZM79.345 17H77.881V11.072H79.225L79.345 11.768C79.645 11.276 80.245 10.892 81.097 10.892C81.997 10.892 82.621 11.336 82.933 12.02C83.233 11.336 83.929 10.892 84.829 10.892C86.269 10.892 87.061 11.756 87.061 13.124V17H85.609V13.508C85.609 12.656 85.153 12.212 84.457 12.212C83.749 12.212 83.209 12.668 83.209 13.64V17H81.745V13.496C81.745 12.668 81.301 12.224 80.605 12.224C79.909 12.224 79.345 12.68 79.345 13.64V17ZM88.4862 14.444V13.148H92.3502V14.444H88.4862ZM96.7819 19.292H95.6179C94.4179 17.924 93.6259 15.776 93.6259 13.472C93.6259 11.372 94.2979 9.164 95.6179 7.664H96.7819C95.7859 9.02 95.1019 11.144 95.1019 13.472C95.1019 15.596 95.6899 17.804 96.7819 19.292ZM100.185 17.156C98.4213 17.156 97.1853 15.872 97.1853 14.036C97.1853 12.176 98.3973 10.892 100.137 10.892C101.913 10.892 103.041 12.08 103.041 13.928V14.372L98.5773 14.384C98.6853 15.428 99.2373 15.956 100.209 15.956C101.013 15.956 101.541 15.644 101.709 15.08H103.065C102.813 16.376 101.733 17.156 100.185 17.156ZM100.149 12.092C99.2853 12.092 98.7573 12.56 98.6133 13.448H101.589C101.589 12.632 101.025 12.092 100.149 12.092ZM106.17 17H104.706V12.296H103.566V11.072H104.706V9.224H106.17V11.072H107.322V12.296H106.17V17ZM109.697 17H108.233V8.072H109.709V11.84C110.081 11.264 110.777 10.892 111.629 10.892C113.093 10.892 113.861 11.816 113.861 13.352V17H112.397V13.7C112.397 12.704 111.905 12.224 111.161 12.224C110.237 12.224 109.697 12.872 109.697 13.76V17ZM115.707 19.292H114.543C115.647 17.804 116.223 15.596 116.223 13.472C116.223 11.144 115.539 9.02 114.543 7.664H115.707C117.027 9.164 117.711 11.372 117.711 13.472C117.711 15.776 116.907 17.924 115.707 19.292Z" fill="black"/>
</svg>
