<svg width="103" height="24" viewBox="0 0 103 24" fill="none" xmlns="http://www.w3.org/2000/svg">
<g clip-path="url(#clip0_4037_25995)">
<path d="M19.7901 7.27L16.7601 4.24C15.6101 3.09 14.0401 3.15 13.2701 4.38L11.5801 7.05L16.9801 12.45L19.6501 10.76C20.8001 10.03 20.8701 8.35 19.7901 7.27Z" stroke="#1A1A1A" stroke-width="1.5" stroke-linecap="round" stroke-linejoin="round"/>
<path d="M11.58 7.05L7.64999 6.81C5.45999 6.68 4.68999 7.35 4.44999 9.44L3.46999 17.76C3.25999 19.51 4.52999 20.77 6.26999 20.56L14.59 19.58C16.68 19.33 17.44 18.57 17.22 16.38L16.99 12.45" stroke="#1A1A1A" stroke-width="1.5" stroke-linecap="round" stroke-linejoin="round"/>
<path d="M4.61035 19.4199L7.64035 16.3799" stroke="#1A1A1A" stroke-width="1.5" stroke-linecap="round" stroke-linejoin="round"/>
</g>
<path d="M38.44 12.976H36.508V16H34.972V7.228H38.44C40.204 7.228 41.344 8.38 41.344 10.096C41.344 11.788 40.192 12.976 38.44 12.976ZM38.14 8.596H36.508V11.608H38.116C39.172 11.608 39.736 11.044 39.736 10.084C39.736 9.124 39.16 8.596 38.14 8.596ZM43.9497 16.156C42.6897 16.156 41.9217 15.424 41.9217 14.308C41.9217 13.216 42.7137 12.532 44.1177 12.424L45.8937 12.292V12.16C45.8937 11.356 45.4137 11.032 44.6697 11.032C43.8057 11.032 43.3257 11.392 43.3257 12.016H42.0777C42.0777 10.732 43.1337 9.892 44.7417 9.892C46.3377 9.892 47.3217 10.756 47.3217 12.4V16H46.0377L45.9297 15.124C45.6777 15.736 44.8737 16.156 43.9497 16.156ZM44.4297 15.052C45.3297 15.052 45.9057 14.512 45.9057 13.6V13.288L44.6697 13.384C43.7577 13.468 43.4097 13.768 43.4097 14.248C43.4097 14.788 43.7697 15.052 44.4297 15.052ZM50.6939 16H49.2299V11.296H48.0899V10.072H49.2299V8.224H50.6939V10.072H51.8459V11.296H50.6939V16ZM54.22 16H52.756V7.072H54.232V10.84C54.604 10.264 55.3 9.892 56.152 9.892C57.616 9.892 58.384 10.816 58.384 12.352V16H56.92V12.7C56.92 11.704 56.428 11.224 55.684 11.224C54.76 11.224 54.22 11.872 54.22 12.76V16Z" fill="black"/>
<defs>
<clipPath id="clip0_4037_25995">
<rect width="24" height="24" fill="white"/>
</clipPath>
</defs>
</svg>
