<svg width="101" height="24" viewBox="0 0 101 24" fill="none" xmlns="http://www.w3.org/2000/svg">
<path d="M10.7998 3.40005L7.19982 7.70005C7.09982 7.90005 6.99982 8.20005 6.89982 8.40005L5.19982 17C5.09982 17.6 5.39982 18.3 5.89982 18.6L11.1998 21.6C11.5998 21.8 12.2998 21.8 12.6998 21.6L17.9998 18.6C18.4998 18.3 18.7998 17.6 18.6998 17L16.9998 8.40005C16.9998 8.20005 16.7998 7.90005 16.6998 7.70005L13.0998 3.40005C12.4998 2.60005 11.4998 2.60005 10.7998 3.40005Z" stroke="#1A1A1A" stroke-width="1.5" stroke-miterlimit="10" stroke-linecap="round" stroke-linejoin="round"/>
<path d="M16.8002 8.5L12.5002 20.7C12.3002 21.1 11.7002 21.1 11.6002 20.7L7.2002 8.5" stroke="#1A1A1A" stroke-width="1.5" stroke-miterlimit="10" stroke-linecap="round" stroke-linejoin="round"/>
<path d="M40.42 16H34.972V7.228H40.42V8.644H36.508V10.9H40.012V12.256H36.508V14.584H40.42V16ZM41.5213 13.024C41.5213 11.176 42.8533 9.904 44.6893 9.904C46.5253 9.904 47.8573 11.176 47.8573 13.024C47.8573 14.872 46.5253 16.144 44.6893 16.144C42.8533 16.144 41.5213 14.872 41.5213 13.024ZM42.9853 13.024C42.9853 14.104 43.6813 14.836 44.6893 14.836C45.6973 14.836 46.3933 14.104 46.3933 13.024C46.3933 11.944 45.6973 11.212 44.6893 11.212C43.6813 11.212 42.9853 11.944 42.9853 13.024ZM48.5617 14.2H49.9537C49.9657 14.716 50.3497 15.04 51.0217 15.04C51.7057 15.04 52.0777 14.764 52.0777 14.332C52.0777 14.032 51.9217 13.816 51.3937 13.696L50.3257 13.444C49.2577 13.204 48.7417 12.7 48.7417 11.752C48.7417 10.588 49.7257 9.892 51.0937 9.892C52.4257 9.892 53.3257 10.66 53.3377 11.812H51.9457C51.9337 11.308 51.5977 10.984 51.0337 10.984C50.4577 10.984 50.1217 11.248 50.1217 11.692C50.1217 12.028 50.3857 12.244 50.8897 12.364L51.9577 12.616C52.9537 12.844 53.4577 13.3 53.4577 14.212C53.4577 15.412 52.4377 16.156 50.9737 16.156C49.4977 16.156 48.5617 15.364 48.5617 14.2ZM54.4081 13.444V12.148H58.2721V13.444H54.4081ZM62.7038 18.292H61.5398C60.3398 16.924 59.5478 14.776 59.5478 12.472C59.5478 10.372 60.2198 8.164 61.5398 6.664H62.7038C61.7078 8.02 61.0238 10.144 61.0238 12.472C61.0238 14.596 61.6118 16.804 62.7038 18.292ZM66.1072 16.156C64.3432 16.156 63.1072 14.872 63.1072 13.036C63.1072 11.176 64.3192 9.892 66.0592 9.892C67.8352 9.892 68.9632 11.08 68.9632 12.928V13.372L64.4992 13.384C64.6072 14.428 65.1592 14.956 66.1312 14.956C66.9352 14.956 67.4632 14.644 67.6312 14.08H68.9872C68.7352 15.376 67.6552 16.156 66.1072 16.156ZM66.0712 11.092C65.2072 11.092 64.6792 11.56 64.5352 12.448H67.5112C67.5112 11.632 66.9472 11.092 66.0712 11.092ZM69.7869 13.024C69.7869 11.176 71.1189 9.904 72.9549 9.904C74.7909 9.904 76.1229 11.176 76.1229 13.024C76.1229 14.872 74.7909 16.144 72.9549 16.144C71.1189 16.144 69.7869 14.872 69.7869 13.024ZM71.2509 13.024C71.2509 14.104 71.9469 14.836 72.9549 14.836C73.9629 14.836 74.6589 14.104 74.6589 13.024C74.6589 11.944 73.9629 11.212 72.9549 11.212C71.9469 11.212 71.2509 11.944 71.2509 13.024ZM76.8273 14.2H78.2193C78.2313 14.716 78.6153 15.04 79.2873 15.04C79.9713 15.04 80.3433 14.764 80.3433 14.332C80.3433 14.032 80.1873 13.816 79.6593 13.696L78.5913 13.444C77.5233 13.204 77.0073 12.7 77.0073 11.752C77.0073 10.588 77.9913 9.892 79.3593 9.892C80.6913 9.892 81.5913 10.66 81.6033 11.812H80.2113C80.1993 11.308 79.8633 10.984 79.2993 10.984C78.7233 10.984 78.3873 11.248 78.3873 11.692C78.3873 12.028 78.6513 12.244 79.1553 12.364L80.2233 12.616C81.2193 12.844 81.7233 13.3 81.7233 14.212C81.7233 15.412 80.7033 16.156 79.2393 16.156C77.7633 16.156 76.8273 15.364 76.8273 14.2ZM83.246 18.292H82.082C83.186 16.804 83.762 14.596 83.762 12.472C83.762 10.144 83.078 8.02 82.082 6.664H83.246C84.566 8.164 85.25 10.372 85.25 12.472C85.25 14.776 84.446 16.924 83.246 18.292Z" fill="black"/>
</svg>
