<svg width="59" height="24" viewBox="0 0 59 24" fill="none" xmlns="http://www.w3.org/2000/svg">
<path d="M10.25 21.5C14.5302 21.5 18 18.0302 18 13.75C18 9.46979 14.5302 6 10.25 6C5.96979 6 2.5 9.46979 2.5 13.75C2.5 18.0302 5.96979 21.5 10.25 21.5Z" stroke="#1A1A1A" stroke-width="1.5" stroke-linecap="round" stroke-linejoin="round"/>
<path d="M21.5 2.5L16 8" stroke="#1A1A1A" stroke-width="1.5" stroke-linecap="round" stroke-linejoin="round"/>
<path d="M15 2.5H21.5V9" stroke="#1A1A1A" stroke-width="1.5" stroke-linecap="round" stroke-linejoin="round"/>
<path d="M36.46 17H34.972V8.228H36.46L39.292 15.212L42.124 8.228H43.636V17H42.148V14.3C42.148 12.536 42.148 12.02 42.232 11.396L40 17H38.584L36.364 11.408C36.448 11.936 36.46 12.764 36.46 13.856V17ZM47.1255 17.156C45.8655 17.156 45.0975 16.424 45.0975 15.308C45.0975 14.216 45.8895 13.532 47.2935 13.424L49.0695 13.292V13.16C49.0695 12.356 48.5895 12.032 47.8455 12.032C46.9815 12.032 46.5015 12.392 46.5015 13.016H45.2535C45.2535 11.732 46.3095 10.892 47.9175 10.892C49.5135 10.892 50.4975 11.756 50.4975 13.4V17H49.2135L49.1055 16.124C48.8535 16.736 48.0495 17.156 47.1255 17.156ZM47.6055 16.052C48.5055 16.052 49.0815 15.512 49.0815 14.6V14.288L47.8455 14.384C46.9335 14.468 46.5855 14.768 46.5855 15.248C46.5855 15.788 46.9455 16.052 47.6055 16.052ZM53.3997 17H51.9357V11.072H53.2917L53.4117 11.84C53.7837 11.24 54.5037 10.892 55.3077 10.892C56.7957 10.892 57.5637 11.816 57.5637 13.352V17H56.0997V13.7C56.0997 12.704 55.6077 12.224 54.8517 12.224C53.9517 12.224 53.3997 12.848 53.3997 13.808V17Z" fill="black"/>
</svg>
