<svg width="117" height="24" viewBox="0 0 117 24" fill="none" xmlns="http://www.w3.org/2000/svg">
<path d="M9.5 8.5L12 11.9L14.5 8.5H9.5Z" stroke="#1A1A1A" stroke-width="1.5" stroke-miterlimit="10" stroke-linecap="round" stroke-linejoin="round"/>
<path d="M12 22C17.5228 22 22 17.5228 22 12C22 6.47715 17.5228 2 12 2C6.47715 2 2 6.47715 2 12C2 17.5228 6.47715 22 12 22Z" stroke="#1A1A1A" stroke-width="1.5" stroke-miterlimit="10"/>
<path d="M17 10L12 17L7 10" stroke="#1A1A1A" stroke-width="1.5" stroke-miterlimit="10" stroke-linecap="round" stroke-linejoin="round"/>
<path d="M37.432 16L34.12 7.228H35.752L37.672 12.28C37.864 12.808 38.032 13.324 38.224 14.032C38.44 13.264 38.62 12.724 38.788 12.28L40.684 7.228H42.28L39.016 16H37.432ZM43.8903 8.884C43.3863 8.884 42.9903 8.488 42.9903 7.996C42.9903 7.504 43.3863 7.12 43.8903 7.12C44.3703 7.12 44.7663 7.504 44.7663 7.996C44.7663 8.488 44.3703 8.884 43.8903 8.884ZM43.1583 16V10.072H44.6223V16H43.1583ZM47.4909 16H46.1349V7.072H47.5989V10.936C47.9829 10.276 48.7749 9.88 49.6749 9.88C51.3669 9.88 52.3989 11.2 52.3989 13.072C52.3989 14.896 51.2829 16.156 49.5789 16.156C48.6909 16.156 47.9349 15.76 47.5869 15.076L47.4909 16ZM47.6109 13.012C47.6109 14.08 48.2709 14.812 49.2789 14.812C50.3109 14.812 50.9229 14.068 50.9229 13.012C50.9229 11.956 50.3109 11.2 49.2789 11.2C48.2709 11.2 47.6109 11.944 47.6109 13.012ZM56.2166 16.156C54.4526 16.156 53.2166 14.872 53.2166 13.036C53.2166 11.176 54.4286 9.892 56.1686 9.892C57.9446 9.892 59.0726 11.08 59.0726 12.928V13.372L54.6086 13.384C54.7166 14.428 55.2686 14.956 56.2406 14.956C57.0446 14.956 57.5726 14.644 57.7406 14.08H59.0966C58.8446 15.376 57.7646 16.156 56.2166 16.156ZM56.1806 11.092C55.3166 11.092 54.7886 11.56 54.6446 12.448H57.6206C57.6206 11.632 57.0566 11.092 56.1806 11.092ZM60.2323 13.444V12.148H64.0963V13.444H60.2323ZM68.528 18.292H67.364C66.164 16.924 65.372 14.776 65.372 12.472C65.372 10.372 66.044 8.164 67.364 6.664H68.528C67.532 8.02 66.848 10.144 66.848 12.472C66.848 14.596 67.436 16.804 68.528 18.292ZM70.9594 16L68.6074 10.072H70.1674L71.1994 12.796C71.4514 13.504 71.6554 14.116 71.7274 14.44C71.8114 14.068 72.0274 13.444 72.2794 12.796L73.3594 10.072H74.8714L72.3994 16H70.9594ZM76.445 8.884C75.941 8.884 75.545 8.488 75.545 7.996C75.545 7.504 75.941 7.12 76.445 7.12C76.925 7.12 77.321 7.504 77.321 7.996C77.321 8.488 76.925 8.884 76.445 8.884ZM75.713 16V10.072H77.177V16H75.713ZM80.0456 16H78.6896V7.072H80.1536V10.936C80.5376 10.276 81.3296 9.88 82.2296 9.88C83.9216 9.88 84.9536 11.2 84.9536 13.072C84.9536 14.896 83.8376 16.156 82.1336 16.156C81.2456 16.156 80.4896 15.76 80.1416 15.076L80.0456 16ZM80.1656 13.012C80.1656 14.08 80.8256 14.812 81.8336 14.812C82.8656 14.812 83.4776 14.068 83.4776 13.012C83.4776 11.956 82.8656 11.2 81.8336 11.2C80.8256 11.2 80.1656 11.944 80.1656 13.012ZM88.7713 16.156C87.0073 16.156 85.7713 14.872 85.7713 13.036C85.7713 11.176 86.9833 9.892 88.7233 9.892C90.4993 9.892 91.6273 11.08 91.6273 12.928V13.372L87.1633 13.384C87.2713 14.428 87.8233 14.956 88.7953 14.956C89.5993 14.956 90.1273 14.644 90.2953 14.08H91.6513C91.3993 15.376 90.3193 16.156 88.7713 16.156ZM88.7353 11.092C87.8713 11.092 87.3433 11.56 87.1993 12.448H90.1753C90.1753 11.632 89.6113 11.092 88.7353 11.092ZM93.207 18.292H92.043C93.147 16.804 93.723 14.596 93.723 12.472C93.723 10.144 93.039 8.02 92.043 6.664H93.207C94.527 8.164 95.211 10.372 95.211 12.472C95.211 14.776 94.407 16.924 93.207 18.292Z" fill="black"/>
</svg>
