<svg width="101" height="24" viewBox="0 0 101 24" fill="none" xmlns="http://www.w3.org/2000/svg">
<path d="M22 12C22 6.48 17.52 2 12 2C6.48 2 2 6.48 2 12C2 17.52 6.48 22 12 22" stroke="#1A1A1A" stroke-width="1.5" stroke-linecap="round" stroke-linejoin="round"/>
<path d="M8.0001 3H9.0001C7.0501 8.84 7.0501 15.16 9.0001 21H8.0001" stroke="#1A1A1A" stroke-width="1.5" stroke-linecap="round" stroke-linejoin="round"/>
<path d="M15 3C15.97 5.92 16.46 8.96 16.46 12" stroke="#1A1A1A" stroke-width="1.5" stroke-linecap="round" stroke-linejoin="round"/>
<path d="M3 16V15C5.92 15.97 8.96 16.46 12 16.46" stroke="#1A1A1A" stroke-width="1.5" stroke-linecap="round" stroke-linejoin="round"/>
<path d="M3 9.0001C8.84 7.0501 15.16 7.0501 21 9.0001" stroke="#1A1A1A" stroke-width="1.5" stroke-linecap="round" stroke-linejoin="round"/>
<path d="M19.21 15.74L15.67 19.2801C15.53 19.4201 15.4 19.68 15.37 19.87L15.18 21.22C15.11 21.71 15.45 22.05 15.94 21.98L17.29 21.79C17.48 21.76 17.75 21.63 17.88 21.49L21.42 17.95C22.03 17.34 22.32 16.63 21.42 15.73C20.53 14.84 19.82 15.13 19.21 15.74Z" stroke="#1A1A1A" stroke-width="1.5" stroke-miterlimit="10" stroke-linecap="round" stroke-linejoin="round"/>
<path d="M18.7002 16.25C19.0002 17.33 19.8402 18.17 20.9202 18.47" stroke="#1A1A1A" stroke-width="1.5" stroke-miterlimit="10" stroke-linecap="round" stroke-linejoin="round"/>
<path d="M38.812 8.524C37.072 8.524 36.076 9.784 36.076 11.68C36.076 13.636 37.204 14.704 38.824 14.704C40.348 14.704 41.272 13.864 41.272 12.46V12.424H38.62V11.068H42.7V16H41.404L41.308 14.992C40.828 15.664 39.832 16.132 38.644 16.132C36.184 16.132 34.468 14.344 34.468 11.644C34.468 8.98 36.208 7.084 38.848 7.084C40.852 7.084 42.4 8.248 42.652 10.036H41.032C40.756 9.004 39.868 8.524 38.812 8.524ZM45.6187 16H44.1667V7.072H45.6187V16ZM46.8064 13.024C46.8064 11.176 48.1384 9.904 49.9744 9.904C51.8104 9.904 53.1424 11.176 53.1424 13.024C53.1424 14.872 51.8104 16.144 49.9744 16.144C48.1384 16.144 46.8064 14.872 46.8064 13.024ZM48.2704 13.024C48.2704 14.104 48.9664 14.836 49.9744 14.836C50.9824 14.836 51.6784 14.104 51.6784 13.024C51.6784 11.944 50.9824 11.212 49.9744 11.212C48.9664 11.212 48.2704 11.944 48.2704 13.024ZM55.6589 16H54.3029V7.072H55.7669V10.936C56.1509 10.276 56.9429 9.88 57.8429 9.88C59.5349 9.88 60.5669 11.2 60.5669 13.072C60.5669 14.896 59.4509 16.156 57.7469 16.156C56.8589 16.156 56.1029 15.76 55.7549 15.076L55.6589 16ZM55.7789 13.012C55.7789 14.08 56.4389 14.812 57.4469 14.812C58.4789 14.812 59.0909 14.068 59.0909 13.012C59.0909 11.956 58.4789 11.2 57.4469 11.2C56.4389 11.2 55.7789 11.944 55.7789 13.012ZM63.4966 16.156C62.2366 16.156 61.4686 15.424 61.4686 14.308C61.4686 13.216 62.2606 12.532 63.6646 12.424L65.4406 12.292V12.16C65.4406 11.356 64.9606 11.032 64.2166 11.032C63.3526 11.032 62.8726 11.392 62.8726 12.016H61.6246C61.6246 10.732 62.6806 9.892 64.2886 9.892C65.8846 9.892 66.8686 10.756 66.8686 12.4V16H65.5846L65.4766 15.124C65.2246 15.736 64.4206 16.156 63.4966 16.156ZM63.9766 15.052C64.8766 15.052 65.4526 14.512 65.4526 13.6V13.288L64.2166 13.384C63.3046 13.468 62.9566 13.768 62.9566 14.248C62.9566 14.788 63.3166 15.052 63.9766 15.052ZM69.7828 16H68.3308V7.072H69.7828V16ZM71.3065 13.444V12.148H75.1705V13.444H71.3065ZM79.3143 16.156C77.5503 16.156 76.3143 14.872 76.3143 13.036C76.3143 11.176 77.5263 9.892 79.2663 9.892C81.0423 9.892 82.1703 11.08 82.1703 12.928V13.372L77.7063 13.384C77.8143 14.428 78.3663 14.956 79.3383 14.956C80.1423 14.956 80.6703 14.644 80.8383 14.08H82.1943C81.9423 15.376 80.8623 16.156 79.3143 16.156ZM79.2783 11.092C78.4143 11.092 77.8863 11.56 77.7423 12.448H80.7183C80.7183 11.632 80.1543 11.092 79.2783 11.092ZM85.7779 16.156C84.0619 16.156 82.9939 14.896 82.9939 13.06C82.9939 11.212 84.0739 9.892 85.8619 9.892C86.6899 9.892 87.4219 10.24 87.7939 10.828V7.072H89.2459V16H87.9019L87.8059 15.076C87.4459 15.76 86.6779 16.156 85.7779 16.156ZM86.1019 14.812C87.1219 14.812 87.7819 14.08 87.7819 13.012C87.7819 11.944 87.1219 11.2 86.1019 11.2C85.0819 11.2 84.4579 11.956 84.4579 13.012C84.4579 14.068 85.0819 14.812 86.1019 14.812ZM91.5036 8.884C90.9996 8.884 90.6036 8.488 90.6036 7.996C90.6036 7.504 90.9996 7.12 91.5036 7.12C91.9836 7.12 92.3796 7.504 92.3796 7.996C92.3796 8.488 91.9836 8.884 91.5036 8.884ZM90.7716 16V10.072H92.2356V16H90.7716ZM95.7642 16H94.3002V11.296H93.1602V10.072H94.3002V8.224H95.7642V10.072H96.9162V11.296H95.7642V16Z" fill="black"/>
</svg>
