<svg width="156" height="24" viewBox="0 0 156 24" fill="none" xmlns="http://www.w3.org/2000/svg">
<path d="M22 10V13C22 17 20 19 16 19H15.5C15.19 19 14.89 19.15 14.7 19.4L13.2 21.4C12.54 22.28 11.46 22.28 10.8 21.4L9.3 19.4C9.14 19.18 8.77 19 8.5 19H8C4 19 2 18 2 13V8C2 4 4 2 8 2H14" stroke="#1A1A1A" stroke-width="1.5" stroke-miterlimit="10" stroke-linecap="round" stroke-linejoin="round"/>
<path d="M19.5 7C20.8807 7 22 5.88071 22 4.5C22 3.11929 20.8807 2 19.5 2C18.1193 2 17 3.11929 17 4.5C17 5.88071 18.1193 7 19.5 7Z" stroke="#1A1A1A" stroke-width="1.5" stroke-linecap="round" stroke-linejoin="round"/>
<path d="M15.9965 11H16.0054" stroke="#1A1A1A" stroke-width="1.5" stroke-linecap="round" stroke-linejoin="round"/>
<path d="M11.9955 11H12.0045" stroke="#1A1A1A" stroke-width="1.5" stroke-linecap="round" stroke-linejoin="round"/>
<path d="M7.99451 11H8.00349" stroke="#1A1A1A" stroke-width="1.5" stroke-linecap="round" stroke-linejoin="round"/>
<path d="M36.46 17H34.972V8.228H36.46L39.292 15.212L42.124 8.228H43.636V17H42.148V14.3C42.148 12.536 42.148 12.02 42.232 11.396L40 17H38.584L36.364 11.408C36.448 11.936 36.46 12.764 36.46 13.856V17ZM48.0135 17.156C46.2495 17.156 45.0135 15.872 45.0135 14.036C45.0135 12.176 46.2255 10.892 47.9655 10.892C49.7415 10.892 50.8695 12.08 50.8695 13.928V14.372L46.4055 14.384C46.5135 15.428 47.0655 15.956 48.0375 15.956C48.8415 15.956 49.3695 15.644 49.5375 15.08H50.8935C50.6415 16.376 49.5615 17.156 48.0135 17.156ZM47.9775 12.092C47.1135 12.092 46.5855 12.56 46.4415 13.448H49.4175C49.4175 12.632 48.8535 12.092 47.9775 12.092ZM51.5852 15.2H52.9772C52.9892 15.716 53.3732 16.04 54.0452 16.04C54.7292 16.04 55.1012 15.764 55.1012 15.332C55.1012 15.032 54.9452 14.816 54.4172 14.696L53.3492 14.444C52.2812 14.204 51.7652 13.7 51.7652 12.752C51.7652 11.588 52.7492 10.892 54.1172 10.892C55.4492 10.892 56.3492 11.66 56.3612 12.812H54.9692C54.9572 12.308 54.6212 11.984 54.0572 11.984C53.4812 11.984 53.1452 12.248 53.1452 12.692C53.1452 13.028 53.4092 13.244 53.9132 13.364L54.9812 13.616C55.9772 13.844 56.4812 14.3 56.4812 15.212C56.4812 16.412 55.4612 17.156 53.9972 17.156C52.5212 17.156 51.5852 16.364 51.5852 15.2ZM57.1398 15.2H58.5318C58.5438 15.716 58.9278 16.04 59.5998 16.04C60.2838 16.04 60.6558 15.764 60.6558 15.332C60.6558 15.032 60.4998 14.816 59.9718 14.696L58.9038 14.444C57.8358 14.204 57.3198 13.7 57.3198 12.752C57.3198 11.588 58.3038 10.892 59.6718 10.892C61.0038 10.892 61.9038 11.66 61.9158 12.812H60.5238C60.5118 12.308 60.1758 11.984 59.6118 11.984C59.0358 11.984 58.6998 12.248 58.6998 12.692C58.6998 13.028 58.9638 13.244 59.4678 13.364L60.5358 13.616C61.5318 13.844 62.0358 14.3 62.0358 15.212C62.0358 16.412 61.0158 17.156 59.5518 17.156C58.0758 17.156 57.1398 16.364 57.1398 15.2ZM64.9145 17.156C63.6545 17.156 62.8865 16.424 62.8865 15.308C62.8865 14.216 63.6785 13.532 65.0825 13.424L66.8585 13.292V13.16C66.8585 12.356 66.3785 12.032 65.6345 12.032C64.7705 12.032 64.2905 12.392 64.2905 13.016H63.0425C63.0425 11.732 64.0985 10.892 65.7065 10.892C67.3025 10.892 68.2865 11.756 68.2865 13.4V17H67.0025L66.8945 16.124C66.6425 16.736 65.8385 17.156 64.9145 17.156ZM65.3945 16.052C66.2945 16.052 66.8705 15.512 66.8705 14.6V14.288L65.6345 14.384C64.7225 14.468 64.3745 14.768 64.3745 15.248C64.3745 15.788 64.7345 16.052 65.3945 16.052ZM69.3888 13.904C69.3888 12.176 70.5168 10.88 72.2088 10.88C73.0968 10.88 73.7928 11.252 74.1408 11.888L74.2248 11.072H75.5807V16.7C75.5807 18.68 74.3928 19.916 72.4728 19.916C70.7688 19.916 69.6048 18.944 69.4248 17.36H70.8888C70.9848 18.128 71.5728 18.584 72.4728 18.584C73.4808 18.584 74.1288 17.948 74.1288 16.964V15.98C73.7568 16.532 73.0248 16.88 72.1728 16.88C70.4928 16.88 69.3888 15.62 69.3888 13.904ZM70.8648 13.868C70.8648 14.864 71.5008 15.608 72.4608 15.608C73.4688 15.608 74.0928 14.9 74.0928 13.868C74.0928 12.86 73.4808 12.164 72.4608 12.164C71.4888 12.164 70.8648 12.896 70.8648 13.868ZM79.7478 17.156C77.9838 17.156 76.7478 15.872 76.7478 14.036C76.7478 12.176 77.9598 10.892 79.6998 10.892C81.4758 10.892 82.6038 12.08 82.6038 13.928V14.372L78.1398 14.384C78.2478 15.428 78.7998 15.956 79.7718 15.956C80.5758 15.956 81.1038 15.644 81.2718 15.08H82.6278C82.3758 16.376 81.2958 17.156 79.7478 17.156ZM79.7118 12.092C78.8478 12.092 78.3198 12.56 78.1758 13.448H81.1518C81.1518 12.632 80.5878 12.092 79.7118 12.092ZM83.7635 14.444V13.148H87.6275V14.444H83.7635ZM90.5833 17H89.1193V11.072H90.4753L90.5953 11.84C90.9673 11.24 91.6873 10.892 92.4913 10.892C93.9793 10.892 94.7473 11.816 94.7473 13.352V17H93.2833V13.7C93.2833 12.704 92.7913 12.224 92.0353 12.224C91.1353 12.224 90.5833 12.848 90.5833 13.808V17ZM95.8377 14.024C95.8377 12.176 97.1697 10.904 99.0057 10.904C100.842 10.904 102.174 12.176 102.174 14.024C102.174 15.872 100.842 17.144 99.0057 17.144C97.1697 17.144 95.8377 15.872 95.8377 14.024ZM97.3017 14.024C97.3017 15.104 97.9977 15.836 99.0057 15.836C100.014 15.836 100.71 15.104 100.71 14.024C100.71 12.944 100.014 12.212 99.0057 12.212C97.9977 12.212 97.3017 12.944 97.3017 14.024ZM105.292 17H103.828V12.296H102.688V11.072H103.828V9.224H105.292V11.072H106.444V12.296H105.292V17ZM108.086 9.884C107.582 9.884 107.186 9.488 107.186 8.996C107.186 8.504 107.582 8.12 108.086 8.12C108.566 8.12 108.962 8.504 108.962 8.996C108.962 9.488 108.566 9.884 108.086 9.884ZM107.354 17V11.072H108.818V17H107.354ZM114.47 17V12.296H112.046V17H110.594V12.296H109.742V11.072H110.594V10.352C110.594 8.744 111.434 8.072 112.634 8.072C112.862 8.072 113.138 8.084 113.39 8.132V9.38H112.874C112.214 9.38 112.046 9.764 112.046 10.352V11.072H115.934V17H114.47ZM115.202 9.86C114.71 9.86 114.326 9.476 114.326 8.984C114.326 8.504 114.71 8.12 115.202 8.12C115.682 8.12 116.066 8.504 116.066 8.984C116.066 9.476 115.682 9.86 115.202 9.86ZM117.096 14.024C117.096 12.188 118.308 10.892 120.06 10.892C121.68 10.892 122.784 11.792 122.94 13.22H121.476C121.308 12.548 120.816 12.2 120.12 12.2C119.184 12.2 118.56 12.908 118.56 14.024C118.56 15.14 119.136 15.836 120.072 15.836C120.804 15.836 121.32 15.476 121.476 14.828H122.952C122.772 16.208 121.62 17.156 120.072 17.156C118.271 17.156 117.096 15.908 117.096 14.024ZM125.805 17.156C124.545 17.156 123.777 16.424 123.777 15.308C123.777 14.216 124.569 13.532 125.973 13.424L127.749 13.292V13.16C127.749 12.356 127.269 12.032 126.525 12.032C125.661 12.032 125.181 12.392 125.181 13.016H123.933C123.933 11.732 124.989 10.892 126.597 10.892C128.193 10.892 129.177 11.756 129.177 13.4V17H127.893L127.785 16.124C127.533 16.736 126.729 17.156 125.805 17.156ZM126.285 16.052C127.185 16.052 127.761 15.512 127.761 14.6V14.288L126.525 14.384C125.613 14.468 125.265 14.768 125.265 15.248C125.265 15.788 125.625 16.052 126.285 16.052ZM132.549 17H131.085V12.296H129.945V11.072H131.085V9.224H132.549V11.072H133.701V12.296H132.549V17ZM135.343 9.884C134.839 9.884 134.443 9.488 134.443 8.996C134.443 8.504 134.839 8.12 135.343 8.12C135.823 8.12 136.219 8.504 136.219 8.996C136.219 9.488 135.823 9.884 135.343 9.884ZM134.611 17V11.072H136.075V17H134.611ZM137.24 14.024C137.24 12.176 138.572 10.904 140.408 10.904C142.244 10.904 143.576 12.176 143.576 14.024C143.576 15.872 142.244 17.144 140.408 17.144C138.572 17.144 137.24 15.872 137.24 14.024ZM138.704 14.024C138.704 15.104 139.4 15.836 140.408 15.836C141.416 15.836 142.112 15.104 142.112 14.024C142.112 12.944 141.416 12.212 140.408 12.212C139.4 12.212 138.704 12.944 138.704 14.024ZM146.2 17H144.736V11.072H146.092L146.212 11.84C146.584 11.24 147.304 10.892 148.108 10.892C149.596 10.892 150.364 11.816 150.364 13.352V17H148.9V13.7C148.9 12.704 148.408 12.224 147.652 12.224C146.752 12.224 146.2 12.848 146.2 13.808V17Z" fill="black"/>
</svg>
