<svg width="101" height="24" viewBox="0 0 101 24" fill="none" xmlns="http://www.w3.org/2000/svg">
<path d="M10.4902 2.22957L5.50016 4.10957C4.35016 4.53957 3.41016 5.89957 3.41016 7.11957V14.5496C3.41016 15.7296 4.19016 17.2796 5.14016 17.9896L9.44016 21.1996C10.8502 22.2596 13.1702 22.2596 14.5802 21.1996L18.8802 17.9896C19.8302 17.2796 20.6102 15.7296 20.6102 14.5496V7.11957C20.6102 5.88957 19.6702 4.52957 18.5202 4.09957L13.5302 2.22957C12.6802 1.91957 11.3202 1.91957 10.4902 2.22957Z" stroke="#1A1A1A" stroke-width="1.5" stroke-linecap="round" stroke-linejoin="round"/>
<path d="M9.0498 11.8697L10.6598 13.4797L14.9598 9.17969" stroke="#1A1A1A" stroke-width="1.5" stroke-linecap="round" stroke-linejoin="round"/>
<path d="M34.468 9.676C34.468 8.14 35.74 7.072 37.588 7.072C39.364 7.072 40.492 8.056 40.54 9.64H39.004C38.968 8.884 38.428 8.44 37.564 8.44C36.616 8.44 36.004 8.896 36.004 9.628C36.004 10.252 36.34 10.6 37.072 10.768L38.452 11.068C39.952 11.392 40.684 12.16 40.684 13.468C40.684 15.1 39.412 16.156 37.48 16.156C35.608 16.156 34.384 15.16 34.348 13.588H35.884C35.896 14.332 36.496 14.776 37.48 14.776C38.5 14.776 39.148 14.332 39.148 13.6C39.148 13.012 38.848 12.664 38.128 12.508L36.736 12.196C35.248 11.872 34.468 11.02 34.468 9.676ZM43.3216 16H41.8576V7.072H43.3336V10.84C43.7056 10.264 44.4016 9.892 45.2536 9.892C46.7176 9.892 47.4856 10.816 47.4856 12.352V16H46.0216V12.7C46.0216 11.704 45.5296 11.224 44.7856 11.224C43.8616 11.224 43.3216 11.872 43.3216 12.76V16ZM49.656 8.884C49.152 8.884 48.756 8.488 48.756 7.996C48.756 7.504 49.152 7.12 49.656 7.12C50.136 7.12 50.532 7.504 50.532 7.996C50.532 8.488 50.136 8.884 49.656 8.884ZM48.924 16V10.072H50.388V16H48.924ZM54.5525 16.156C52.7885 16.156 51.5525 14.872 51.5525 13.036C51.5525 11.176 52.7645 9.892 54.5045 9.892C56.2805 9.892 57.4085 11.08 57.4085 12.928V13.372L52.9445 13.384C53.0525 14.428 53.6045 14.956 54.5765 14.956C55.3805 14.956 55.9085 14.644 56.0765 14.08H57.4325C57.1805 15.376 56.1005 16.156 54.5525 16.156ZM54.5165 11.092C53.6525 11.092 53.1245 11.56 52.9805 12.448H55.9565C55.9565 11.632 55.3925 11.092 54.5165 11.092ZM60.0562 16H58.6042V7.072H60.0562V16ZM64.0279 16.156C62.3119 16.156 61.2439 14.896 61.2439 13.06C61.2439 11.212 62.3239 9.892 64.1119 9.892C64.9399 9.892 65.6719 10.24 66.0439 10.828V7.072H67.4959V16H66.1519L66.0559 15.076C65.6959 15.76 64.9279 16.156 64.0279 16.156ZM64.3519 14.812C65.3719 14.812 66.0319 14.08 66.0319 13.012C66.0319 11.944 65.3719 11.2 64.3519 11.2C63.3319 11.2 62.7079 11.956 62.7079 13.012C62.7079 14.068 63.3319 14.812 64.3519 14.812ZM69.0096 13.444V12.148H72.8736V13.444H69.0096ZM76.147 16H74.683V11.296H73.543V10.072H74.683V8.224H76.147V10.072H77.299V11.296H76.147V16ZM78.9411 8.884C78.4371 8.884 78.0411 8.488 78.0411 7.996C78.0411 7.504 78.4371 7.12 78.9411 7.12C79.4211 7.12 79.8171 7.504 79.8171 7.996C79.8171 8.488 79.4211 8.884 78.9411 8.884ZM78.2091 16V10.072H79.6731V16H78.2091ZM80.8377 13.024C80.8377 11.188 82.0497 9.892 83.8017 9.892C85.4217 9.892 86.5257 10.792 86.6817 12.22H85.2177C85.0497 11.548 84.5577 11.2 83.8617 11.2C82.9257 11.2 82.3017 11.908 82.3017 13.024C82.3017 14.14 82.8777 14.836 83.8137 14.836C84.5457 14.836 85.0617 14.476 85.2177 13.828H86.6937C86.5137 15.208 85.3617 16.156 83.8137 16.156C82.0137 16.156 80.8377 14.908 80.8377 13.024ZM89.2593 16H87.8073V7.072H89.2593V12.556L91.5633 10.072H93.3993L91.1433 12.424L93.3513 16H91.6713L90.1233 13.504L89.2593 14.404V16Z" fill="black"/>
</svg>
