<svg width="116" height="24" viewBox="0 0 116 24" fill="none" xmlns="http://www.w3.org/2000/svg">
<path d="M13.75 10C14.3023 10 14.75 9.55228 14.75 9C14.75 8.44772 14.3023 8 13.75 8C13.1977 8 12.75 8.44772 12.75 9C12.75 9.55228 13.1977 10 13.75 10Z" stroke="#1A1A1A" stroke-width="1.5" stroke-miterlimit="10"/>
<path d="M10.25 10C10.8023 10 11.25 9.55228 11.25 9C11.25 8.44772 10.8023 8 10.25 8C9.69772 8 9.25 8.44772 9.25 9C9.25 9.55228 9.69772 10 10.25 10Z" stroke="#1A1A1A" stroke-width="1.5" stroke-miterlimit="10"/>
<path d="M15.5 13C16.0523 13 16.5 12.5523 16.5 12C16.5 11.4477 16.0523 11 15.5 11C14.9477 11 14.5 11.4477 14.5 12C14.5 12.5523 14.9477 13 15.5 13Z" stroke="#1A1A1A" stroke-width="1.5" stroke-miterlimit="10"/>
<path d="M17.1504 9.75C17.5646 9.75 17.9004 9.41421 17.9004 9C17.9004 8.58579 17.5646 8.25 17.1504 8.25C16.7362 8.25 16.4004 8.58579 16.4004 9C16.4004 9.41421 16.7362 9.75 17.1504 9.75Z" stroke="#1A1A1A" stroke-width="1.5" stroke-miterlimit="10"/>
<path d="M17.1504 15.75C17.5646 15.75 17.9004 15.4142 17.9004 15C17.9004 14.5858 17.5646 14.25 17.1504 14.25C16.7362 14.25 16.4004 14.5858 16.4004 15C16.4004 15.4142 16.7362 15.75 17.1504 15.75Z" stroke="#1A1A1A" stroke-width="1.5" stroke-miterlimit="10"/>
<path d="M19.75 12.75C20.1642 12.75 20.5 12.4142 20.5 12C20.5 11.5858 20.1642 11.25 19.75 11.25C19.3358 11.25 19 11.5858 19 12C19 12.4142 19.3358 12.75 19.75 12.75Z" stroke="#1A1A1A" stroke-width="1.5" stroke-miterlimit="10"/>
<path d="M6.7998 9.75C7.21402 9.75 7.5498 9.41421 7.5498 9C7.5498 8.58579 7.21402 8.25 6.7998 8.25C6.38559 8.25 6.0498 8.58579 6.0498 9C6.0498 9.41421 6.38559 9.75 6.7998 9.75Z" stroke="#1A1A1A" stroke-width="1.5" stroke-miterlimit="10"/>
<path d="M6.7998 15.75C7.21402 15.75 7.5498 15.4142 7.5498 15C7.5498 14.5858 7.21402 14.25 6.7998 14.25C6.38559 14.25 6.0498 14.5858 6.0498 15C6.0498 15.4142 6.38559 15.75 6.7998 15.75Z" stroke="#1A1A1A" stroke-width="1.5" stroke-miterlimit="10"/>
<path d="M4.2002 12.75C4.61441 12.75 4.9502 12.4142 4.9502 12C4.9502 11.5858 4.61441 11.25 4.2002 11.25C3.78598 11.25 3.4502 11.5858 3.4502 12C3.4502 12.4142 3.78598 12.75 4.2002 12.75Z" stroke="#1A1A1A" stroke-width="1.5" stroke-miterlimit="10"/>
<path d="M15.9004 5.94995C16.3146 5.94995 16.6504 5.61416 16.6504 5.19995C16.6504 4.78574 16.3146 4.44995 15.9004 4.44995C15.4862 4.44995 15.1504 4.78574 15.1504 5.19995C15.1504 5.61416 15.4862 5.94995 15.9004 5.94995Z" stroke="#1A1A1A" stroke-width="1.5" stroke-miterlimit="10"/>
<path d="M8.09961 5.94995C8.51382 5.94995 8.84961 5.61416 8.84961 5.19995C8.84961 4.78574 8.51382 4.44995 8.09961 4.44995C7.6854 4.44995 7.34961 4.78574 7.34961 5.19995C7.34961 5.61416 7.6854 5.94995 8.09961 5.94995Z" stroke="#1A1A1A" stroke-width="1.5" stroke-miterlimit="10"/>
<path d="M12.0498 6.75C12.464 6.75 12.7998 6.41421 12.7998 6C12.7998 5.58579 12.464 5.25 12.0498 5.25C11.6356 5.25 11.2998 5.58579 11.2998 6C11.2998 6.41421 11.6356 6.75 12.0498 6.75Z" stroke="#1A1A1A" stroke-width="1.5" stroke-miterlimit="10"/>
<path d="M15.9004 19.75C16.3146 19.75 16.6504 19.4142 16.6504 19C16.6504 18.5858 16.3146 18.25 15.9004 18.25C15.4862 18.25 15.1504 18.5858 15.1504 19C15.1504 19.4142 15.4862 19.75 15.9004 19.75Z" stroke="#1A1A1A" stroke-width="1.5" stroke-miterlimit="10"/>
<path d="M8.09961 19.75C8.51382 19.75 8.84961 19.4142 8.84961 19C8.84961 18.5858 8.51382 18.25 8.09961 18.25C7.6854 18.25 7.34961 18.5858 7.34961 19C7.34961 19.4142 7.6854 19.75 8.09961 19.75Z" stroke="#1A1A1A" stroke-width="1.5" stroke-miterlimit="10"/>
<path d="M12.0498 18.95C12.464 18.95 12.7998 18.6142 12.7998 18.2C12.7998 17.7857 12.464 17.45 12.0498 17.45C11.6356 17.45 11.2998 17.7857 11.2998 18.2C11.2998 18.6142 11.6356 18.95 12.0498 18.95Z" stroke="#1A1A1A" stroke-width="1.5" stroke-miterlimit="10"/>
<path d="M8.5 13C9.05228 13 9.5 12.5523 9.5 12C9.5 11.4477 9.05228 11 8.5 11C7.94772 11 7.5 11.4477 7.5 12C7.5 12.5523 7.94772 13 8.5 13Z" stroke="#1A1A1A" stroke-width="1.5" stroke-miterlimit="10"/>
<path d="M10.25 16C10.8023 16 11.25 15.5523 11.25 15C11.25 14.4477 10.8023 14 10.25 14C9.69772 14 9.25 14.4477 9.25 15C9.25 15.5523 9.69772 16 10.25 16Z" stroke="#1A1A1A" stroke-width="1.5" stroke-miterlimit="10"/>
<path d="M13.75 16C14.3023 16 14.75 15.5523 14.75 15C14.75 14.4477 14.3023 14 13.75 14C13.1977 14 12.75 14.4477 12.75 15C12.75 15.5523 13.1977 16 13.75 16Z" stroke="#1A1A1A" stroke-width="1.5" stroke-miterlimit="10"/>
<path d="M12 2.44995V2.44995" stroke="#1A1A1A" stroke-width="1.5" stroke-linecap="round" stroke-linejoin="round"/>
<path d="M17.5 2.8501V2.8501" stroke="#1A1A1A" stroke-width="1.5" stroke-linecap="round" stroke-linejoin="round"/>
<path d="M17.5 21.2V21.2" stroke="#1A1A1A" stroke-width="1.5" stroke-linecap="round" stroke-linejoin="round"/>
<path d="M20 16.5V16.5" stroke="#1A1A1A" stroke-width="1.5" stroke-linecap="round" stroke-linejoin="round"/>
<path d="M20 7V7" stroke="#1A1A1A" stroke-width="1.5" stroke-linecap="round" stroke-linejoin="round"/>
<path d="M4 16.5V16.5" stroke="#1A1A1A" stroke-width="1.5" stroke-linecap="round" stroke-linejoin="round"/>
<path d="M4 7V7" stroke="#1A1A1A" stroke-width="1.5" stroke-linecap="round" stroke-linejoin="round"/>
<path d="M6.5 2.8501V2.8501" stroke="#1A1A1A" stroke-width="1.5" stroke-linecap="round" stroke-linejoin="round"/>
<path d="M6.5 21.2V21.2" stroke="#1A1A1A" stroke-width="1.5" stroke-linecap="round" stroke-linejoin="round"/>
<path d="M12 21.5V21.5" stroke="#1A1A1A" stroke-width="1.5" stroke-linecap="round" stroke-linejoin="round"/>
<path d="M1.5498 12V12" stroke="#1A1A1A" stroke-width="1.5" stroke-linecap="round" stroke-linejoin="round"/>
<path d="M22.5 12V12" stroke="#1A1A1A" stroke-width="1.5" stroke-linecap="round" stroke-linejoin="round"/>
<path d="M38.68 17.144C36.124 17.144 34.468 15.368 34.468 12.62C34.468 9.896 36.184 8.084 38.752 8.084C40.828 8.084 42.376 9.296 42.676 11.18H41.056C40.756 10.16 39.88 9.56 38.716 9.56C37.096 9.56 36.076 10.736 36.076 12.608C36.076 14.468 37.108 15.668 38.716 15.668C39.904 15.668 40.816 15.044 41.104 14.072H42.7C42.364 15.92 40.756 17.144 38.68 17.144ZM45.5083 17.156C44.2483 17.156 43.4803 16.424 43.4803 15.308C43.4803 14.216 44.2723 13.532 45.6763 13.424L47.4523 13.292V13.16C47.4523 12.356 46.9723 12.032 46.2283 12.032C45.3643 12.032 44.8843 12.392 44.8843 13.016H43.6363C43.6363 11.732 44.6923 10.892 46.3003 10.892C47.8963 10.892 48.8803 11.756 48.8803 13.4V17H47.5963L47.4883 16.124C47.2363 16.736 46.4323 17.156 45.5083 17.156ZM45.9883 16.052C46.8883 16.052 47.4643 15.512 47.4643 14.6V14.288L46.2283 14.384C45.3163 14.468 44.9683 14.768 44.9683 15.248C44.9683 15.788 45.3283 16.052 45.9883 16.052ZM54.0385 11.048V12.404H53.4985C52.4425 12.404 51.7825 12.968 51.7825 14.12V17H50.3185V11.084H51.6985L51.7825 11.948C52.0345 11.36 52.5985 10.964 53.3905 10.964C53.5945 10.964 53.7985 10.988 54.0385 11.048ZM57.2662 17.156C55.5502 17.156 54.4822 15.896 54.4822 14.06C54.4822 12.212 55.5622 10.892 57.3502 10.892C58.1782 10.892 58.9102 11.24 59.2822 11.828V8.072H60.7342V17H59.3902L59.2942 16.076C58.9342 16.76 58.1662 17.156 57.2662 17.156ZM57.5902 15.812C58.6102 15.812 59.2702 15.08 59.2702 14.012C59.2702 12.944 58.6102 12.2 57.5902 12.2C56.5702 12.2 55.9462 12.956 55.9462 14.012C55.9462 15.068 56.5702 15.812 57.5902 15.812ZM64.0239 17.156C62.7639 17.156 61.9959 16.424 61.9959 15.308C61.9959 14.216 62.7879 13.532 64.1919 13.424L65.9679 13.292V13.16C65.9679 12.356 65.4879 12.032 64.7439 12.032C63.8799 12.032 63.3999 12.392 63.3999 13.016H62.1519C62.1519 11.732 63.2079 10.892 64.8159 10.892C66.4119 10.892 67.3959 11.756 67.3959 13.4V17H66.1119L66.0039 16.124C65.7519 16.736 64.9479 17.156 64.0239 17.156ZM64.5039 16.052C65.4039 16.052 65.9799 15.512 65.9799 14.6V14.288L64.7439 14.384C63.8319 14.468 63.4839 14.768 63.4839 15.248C63.4839 15.788 63.8439 16.052 64.5039 16.052ZM70.2981 17H68.8341V11.072H70.1901L70.3101 11.84C70.6821 11.24 71.4021 10.892 72.2061 10.892C73.6941 10.892 74.4621 11.816 74.4621 13.352V17H72.9981V13.7C72.9981 12.704 72.5061 12.224 71.7501 12.224C70.8501 12.224 70.2981 12.848 70.2981 13.808V17ZM75.5525 14.024C75.5525 12.176 76.8845 10.904 78.7205 10.904C80.5565 10.904 81.8885 12.176 81.8885 14.024C81.8885 15.872 80.5565 17.144 78.7205 17.144C76.8845 17.144 75.5525 15.872 75.5525 14.024ZM77.0165 14.024C77.0165 15.104 77.7125 15.836 78.7205 15.836C79.7285 15.836 80.4245 15.104 80.4245 14.024C80.4245 12.944 79.7285 12.212 78.7205 12.212C77.7125 12.212 77.0165 12.944 77.0165 14.024ZM83.037 14.444V13.148H86.901V14.444H83.037ZM91.3327 19.292H90.1687C88.9687 17.924 88.1767 15.776 88.1767 13.472C88.1767 11.372 88.8487 9.164 90.1687 7.664H91.3327C90.3367 9.02 89.6527 11.144 89.6527 13.472C89.6527 15.596 90.2407 17.804 91.3327 19.292ZM93.8481 17.156C92.5881 17.156 91.8201 16.424 91.8201 15.308C91.8201 14.216 92.6121 13.532 94.0161 13.424L95.7921 13.292V13.16C95.7921 12.356 95.3121 12.032 94.5681 12.032C93.7041 12.032 93.2241 12.392 93.2241 13.016H91.9761C91.9761 11.732 93.0321 10.892 94.6401 10.892C96.2361 10.892 97.2201 11.756 97.2201 13.4V17H95.9361L95.8281 16.124C95.5761 16.736 94.7721 17.156 93.8481 17.156ZM94.3281 16.052C95.2281 16.052 95.8041 15.512 95.8041 14.6V14.288L94.5681 14.384C93.6561 14.468 93.3081 14.768 93.3081 15.248C93.3081 15.788 93.6681 16.052 94.3281 16.052ZM101.094 17.156C99.3783 17.156 98.3103 15.896 98.3103 14.06C98.3103 12.212 99.3903 10.892 101.178 10.892C102.006 10.892 102.738 11.24 103.11 11.828V8.072H104.562V17H103.218L103.122 16.076C102.762 16.76 101.994 17.156 101.094 17.156ZM101.418 15.812C102.438 15.812 103.098 15.08 103.098 14.012C103.098 12.944 102.438 12.2 101.418 12.2C100.398 12.2 99.7743 12.956 99.7743 14.012C99.7743 15.068 100.398 15.812 101.418 15.812ZM107.852 17.156C106.592 17.156 105.824 16.424 105.824 15.308C105.824 14.216 106.616 13.532 108.02 13.424L109.796 13.292V13.16C109.796 12.356 109.316 12.032 108.572 12.032C107.708 12.032 107.228 12.392 107.228 13.016H105.98C105.98 11.732 107.036 10.892 108.644 10.892C110.24 10.892 111.224 11.756 111.224 13.4V17H109.94L109.832 16.124C109.58 16.736 108.776 17.156 107.852 17.156ZM108.332 16.052C109.232 16.052 109.808 15.512 109.808 14.6V14.288L108.572 14.384C107.66 14.468 107.312 14.768 107.312 15.248C107.312 15.788 107.672 16.052 108.332 16.052ZM113.07 19.292H111.906C113.01 17.804 113.586 15.596 113.586 13.472C113.586 11.144 112.902 9.02 111.906 7.664H113.07C114.39 9.164 115.074 11.372 115.074 13.472C115.074 15.776 114.27 17.924 113.07 19.292Z" fill="black"/>
</svg>
