<svg width="101" height="24" viewBox="0 0 101 24" fill="none" xmlns="http://www.w3.org/2000/svg">
<path d="M14.4404 19.0498L15.9604 20.5698L19.0004 17.5298" stroke="#1A1A1A" stroke-width="1.5" stroke-linecap="round" stroke-linejoin="round"/>
<path d="M12.1596 10.87C12.0596 10.86 11.9396 10.86 11.8296 10.87C9.44961 10.79 7.55961 8.84 7.55961 6.44C7.54961 3.99 9.53961 2 11.9896 2C14.4396 2 16.4296 3.99 16.4296 6.44C16.4296 8.84 14.5296 10.79 12.1596 10.87Z" stroke="#1A1A1A" stroke-width="1.5" stroke-linecap="round" stroke-linejoin="round"/>
<path d="M11.99 21.8102C10.17 21.8102 8.36004 21.3502 6.98004 20.4302C4.56004 18.8102 4.56004 16.1702 6.98004 14.5602C9.73004 12.7202 14.24 12.7202 16.99 14.5602" stroke="#1A1A1A" stroke-width="1.5" stroke-linecap="round" stroke-linejoin="round"/>
<path d="M38.44 12.976H36.508V16H34.972V7.228H38.44C40.204 7.228 41.344 8.38 41.344 10.096C41.344 11.788 40.192 12.976 38.44 12.976ZM38.14 8.596H36.508V11.608H38.116C39.172 11.608 39.736 11.044 39.736 10.084C39.736 9.124 39.16 8.596 38.14 8.596ZM46.1401 10.048V11.404H45.6001C44.5441 11.404 43.8841 11.968 43.8841 13.12V16H42.4201V10.084H43.8001L43.8841 10.948C44.1361 10.36 44.7001 9.964 45.4921 9.964C45.6961 9.964 45.9001 9.988 46.1401 10.048ZM46.5838 13.024C46.5838 11.176 47.9158 9.904 49.7518 9.904C51.5878 9.904 52.9198 11.176 52.9198 13.024C52.9198 14.872 51.5878 16.144 49.7518 16.144C47.9158 16.144 46.5838 14.872 46.5838 13.024ZM48.0478 13.024C48.0478 14.104 48.7438 14.836 49.7518 14.836C50.7598 14.836 51.4558 14.104 51.4558 13.024C51.4558 11.944 50.7598 11.212 49.7518 11.212C48.7438 11.212 48.0478 11.944 48.0478 13.024ZM58.1968 16V11.296H55.7728V16H54.3208V11.296H53.4688V10.072H54.3208V9.352C54.3208 7.744 55.1608 7.072 56.3608 7.072C56.5888 7.072 56.8648 7.084 57.1168 7.132V8.38H56.6008C55.9408 8.38 55.7728 8.764 55.7728 9.352V10.072H59.6608V16H58.1968ZM58.9288 8.86C58.4368 8.86 58.0528 8.476 58.0528 7.984C58.0528 7.504 58.4368 7.12 58.9288 7.12C59.4088 7.12 59.7928 7.504 59.7928 7.984C59.7928 8.476 59.4088 8.86 58.9288 8.86ZM62.6461 16H61.1941V7.072H62.6461V16ZM66.8338 16.156C65.0698 16.156 63.8338 14.872 63.8338 13.036C63.8338 11.176 65.0458 9.892 66.7858 9.892C68.5618 9.892 69.6898 11.08 69.6898 12.928V13.372L65.2258 13.384C65.3338 14.428 65.8858 14.956 66.8578 14.956C67.6618 14.956 68.1898 14.644 68.3578 14.08H69.7138C69.4618 15.376 68.3818 16.156 66.8338 16.156ZM66.7978 11.092C65.9338 11.092 65.4058 11.56 65.2618 12.448H68.2378C68.2378 11.632 67.6738 11.092 66.7978 11.092ZM70.8495 13.444V12.148H74.7135V13.444H70.8495ZM77.9868 16H76.5228V11.296H75.3828V10.072H76.5228V8.224H77.9868V10.072H79.1388V11.296H77.9868V16ZM80.781 8.884C80.277 8.884 79.881 8.488 79.881 7.996C79.881 7.504 80.277 7.12 80.781 7.12C81.261 7.12 81.657 7.504 81.657 7.996C81.657 8.488 81.261 8.884 80.781 8.884ZM80.049 16V10.072H81.513V16H80.049ZM82.6775 13.024C82.6775 11.188 83.8895 9.892 85.6415 9.892C87.2615 9.892 88.3655 10.792 88.5215 12.22H87.0575C86.8895 11.548 86.3975 11.2 85.7015 11.2C84.7655 11.2 84.1415 11.908 84.1415 13.024C84.1415 14.14 84.7175 14.836 85.6535 14.836C86.3855 14.836 86.9015 14.476 87.0575 13.828H88.5335C88.3535 15.208 87.2015 16.156 85.6535 16.156C83.8535 16.156 82.6775 14.908 82.6775 13.024ZM91.0992 16H89.6472V7.072H91.0992V12.556L93.4032 10.072H95.2392L92.9832 12.424L95.1912 16H93.5112L91.9632 13.504L91.0992 14.404V16Z" fill="black"/>
</svg>
