<svg width="107" height="24" viewBox="0 0 107 24" fill="none" xmlns="http://www.w3.org/2000/svg">
<path d="M3.37 20.1C2.43 18.97 2 17.31 2 15V9C2 4 4 2 9 2H15C17.19 2 18.8 2.38 19.92 3.23" stroke="#1A1A1A" stroke-width="1.5" stroke-linecap="round" stroke-linejoin="round"/>
<path d="M21.97 7.98999C21.99 8.30999 22 8.64999 22 8.99999V15C22 20 20 22 15 22H8.99996C8.25996 22 7.57996 21.96 6.95996 21.86" stroke="#1A1A1A" stroke-width="1.5" stroke-linecap="round" stroke-linejoin="round"/>
<path d="M8 10C9.10457 10 10 9.10457 10 8C10 6.89543 9.10457 6 8 6C6.89543 6 6 6.89543 6 8C6 9.10457 6.89543 10 8 10Z" stroke="#1A1A1A" stroke-width="1.5" stroke-linecap="round" stroke-linejoin="round"/>
<path d="M22 2L2 22" stroke="#1A1A1A" stroke-width="1.5" stroke-linecap="round" stroke-linejoin="round"/>
<path d="M11.4297 16.45C11.7297 16.75 12.2197 16.75 12.5197 16.45L17.5497 11.41C18.3297 10.63 19.5897 10.63 20.3697 11.41L21.9997 13.05" stroke="#1A1A1A" stroke-width="1.5" stroke-linecap="round" stroke-linejoin="round"/>
<path d="M38.812 9.524C37.072 9.524 36.076 10.784 36.076 12.68C36.076 14.636 37.204 15.704 38.824 15.704C40.348 15.704 41.272 14.864 41.272 13.46V13.424H38.62V12.068H42.7V17H41.404L41.308 15.992C40.828 16.664 39.832 17.132 38.644 17.132C36.184 17.132 34.468 15.344 34.468 12.644C34.468 9.98 36.208 8.084 38.848 8.084C40.852 8.084 42.4 9.248 42.652 11.036H41.032C40.756 10.004 39.868 9.524 38.812 9.524ZM45.9067 17.156C44.6467 17.156 43.8787 16.424 43.8787 15.308C43.8787 14.216 44.6707 13.532 46.0747 13.424L47.8507 13.292V13.16C47.8507 12.356 47.3707 12.032 46.6267 12.032C45.7627 12.032 45.2827 12.392 45.2827 13.016H44.0347C44.0347 11.732 45.0907 10.892 46.6987 10.892C48.2947 10.892 49.2787 11.756 49.2787 13.4V17H47.9947L47.8867 16.124C47.6347 16.736 46.8307 17.156 45.9067 17.156ZM46.3867 16.052C47.2867 16.052 47.8627 15.512 47.8627 14.6V14.288L46.6267 14.384C45.7147 14.468 45.3667 14.768 45.3667 15.248C45.3667 15.788 45.7267 16.052 46.3867 16.052ZM52.1929 17H50.7409V8.072H52.1929V17ZM55.2047 17H53.7527V8.072H55.2047V17ZM59.3924 17.156C57.6284 17.156 56.3924 15.872 56.3924 14.036C56.3924 12.176 57.6044 10.892 59.3444 10.892C61.1204 10.892 62.2484 12.08 62.2484 13.928V14.372L57.7844 14.384C57.8924 15.428 58.4444 15.956 59.4164 15.956C60.2204 15.956 60.7484 15.644 60.9164 15.08H62.2724C62.0204 16.376 60.9404 17.156 59.3924 17.156ZM59.3564 12.092C58.4924 12.092 57.9644 12.56 57.8204 13.448H60.7964C60.7964 12.632 60.2324 12.092 59.3564 12.092ZM67.1401 11.048V12.404H66.6001C65.5441 12.404 64.8841 12.968 64.8841 14.12V17H63.4201V11.084H64.8001L64.8841 11.948C65.1361 11.36 65.7001 10.964 66.4921 10.964C66.6961 10.964 66.9001 10.988 67.1401 11.048ZM67.7908 19.748V18.524H68.6668C69.2428 18.524 69.6028 18.392 69.8548 17.696L70.0228 17.252L67.6348 11.072H69.1828L70.7068 15.392L72.3148 11.072H73.8268L70.9228 18.32C70.4788 19.424 69.8548 19.88 68.8828 19.88C68.4748 19.88 68.1148 19.832 67.7908 19.748ZM74.2362 14.444V13.148H78.1002V14.444H74.2362ZM79.0539 15.2H80.4459C80.4579 15.716 80.8419 16.04 81.5139 16.04C82.1979 16.04 82.5699 15.764 82.5699 15.332C82.5699 15.032 82.4139 14.816 81.8859 14.696L80.8179 14.444C79.7499 14.204 79.2339 13.7 79.2339 12.752C79.2339 11.588 80.2179 10.892 81.5859 10.892C82.9179 10.892 83.8179 11.66 83.8299 12.812H82.4379C82.4259 12.308 82.0899 11.984 81.5259 11.984C80.9499 11.984 80.6139 12.248 80.6139 12.692C80.6139 13.028 80.8779 13.244 81.3819 13.364L82.4499 13.616C83.4459 13.844 83.9499 14.3 83.9499 15.212C83.9499 16.412 82.9299 17.156 81.4659 17.156C79.9899 17.156 79.0539 16.364 79.0539 15.2ZM86.5406 17H85.0886V8.072H86.5406V17ZM89.8403 17.156C88.5803 17.156 87.8123 16.424 87.8123 15.308C87.8123 14.216 88.6043 13.532 90.0083 13.424L91.7843 13.292V13.16C91.7843 12.356 91.3043 12.032 90.5603 12.032C89.6963 12.032 89.2163 12.392 89.2163 13.016H87.9683C87.9683 11.732 89.0243 10.892 90.6323 10.892C92.2283 10.892 93.2123 11.756 93.2123 13.4V17H91.9283L91.8203 16.124C91.5683 16.736 90.7643 17.156 89.8403 17.156ZM90.3203 16.052C91.2203 16.052 91.7963 15.512 91.7963 14.6V14.288L90.5603 14.384C89.6483 14.468 89.3003 14.768 89.3003 15.248C89.3003 15.788 89.6603 16.052 90.3203 16.052ZM94.1945 15.2H95.5865C95.5985 15.716 95.9825 16.04 96.6545 16.04C97.3385 16.04 97.7105 15.764 97.7105 15.332C97.7105 15.032 97.5545 14.816 97.0265 14.696L95.9585 14.444C94.8905 14.204 94.3745 13.7 94.3745 12.752C94.3745 11.588 95.3585 10.892 96.7265 10.892C98.0585 10.892 98.9585 11.66 98.9705 12.812H97.5785C97.5665 12.308 97.2305 11.984 96.6665 11.984C96.0905 11.984 95.7545 12.248 95.7545 12.692C95.7545 13.028 96.0185 13.244 96.5225 13.364L97.5905 13.616C98.5865 13.844 99.0905 14.3 99.0905 15.212C99.0905 16.412 98.0705 17.156 96.6065 17.156C95.1305 17.156 94.1945 16.364 94.1945 15.2ZM101.669 17H100.205V8.072H101.681V11.84C102.053 11.264 102.749 10.892 103.601 10.892C105.065 10.892 105.833 11.816 105.833 13.352V17H104.369V13.7C104.369 12.704 103.877 12.224 103.133 12.224C102.209 12.224 101.669 12.872 101.669 13.76V17Z" fill="black"/>
</svg>
