<svg width="120" height="24" viewBox="0 0 120 24" fill="none" xmlns="http://www.w3.org/2000/svg">
<path d="M16.6097 19.9999C17.9497 20.0099 19.2397 19.5099 20.2297 18.6099C23.4997 15.7499 21.7497 10.0099 17.4397 9.46995C15.8997 0.129949 2.42973 3.66995 5.61973 12.5599" stroke="#1A1A1A" stroke-width="1.5" stroke-miterlimit="10" stroke-linecap="round" stroke-linejoin="round"/>
<path d="M7.28035 12.9698C6.75035 12.6998 6.16035 12.5598 5.57035 12.5698C0.910353 12.8998 0.920352 19.6798 5.57035 20.0098" stroke="#1A1A1A" stroke-width="1.5" stroke-miterlimit="10" stroke-linecap="round" stroke-linejoin="round"/>
<path d="M15.8203 9.88998C16.3403 9.62998 16.9003 9.48998 17.4803 9.47998" stroke="#1A1A1A" stroke-width="1.5" stroke-miterlimit="10" stroke-linecap="round" stroke-linejoin="round"/>
<path d="M9.23008 19.1598H10.2301V21.4898C10.2301 21.8298 10.6601 21.9998 10.8801 21.7398L13.3301 18.9498C13.6301 18.6098 13.5001 18.3298 13.0501 18.3298H12.0501V15.9998C12.0501 15.6598 11.6201 15.4898 11.4001 15.7498L8.95008 18.5398C8.65008 18.8798 8.78008 19.1598 9.23008 19.1598Z" stroke="#1A1A1A" stroke-width="1.5" stroke-miterlimit="10" stroke-linecap="round" stroke-linejoin="round"/>
<path d="M34.408 14.024C34.408 12.188 35.62 10.892 37.372 10.892C38.992 10.892 40.096 11.792 40.252 13.22H38.788C38.62 12.548 38.128 12.2 37.432 12.2C36.496 12.2 35.872 12.908 35.872 14.024C35.872 15.14 36.448 15.836 37.384 15.836C38.116 15.836 38.632 15.476 38.788 14.828H40.264C40.084 16.208 38.932 17.156 37.384 17.156C35.584 17.156 34.408 15.908 34.408 14.024ZM42.8297 17H41.3777V8.072H42.8297V17ZM44.0174 14.024C44.0174 12.176 45.3494 10.904 47.1854 10.904C49.0214 10.904 50.3534 12.176 50.3534 14.024C50.3534 15.872 49.0214 17.144 47.1854 17.144C45.3494 17.144 44.0174 15.872 44.0174 14.024ZM45.4814 14.024C45.4814 15.104 46.1774 15.836 47.1854 15.836C48.1934 15.836 48.8894 15.104 48.8894 14.024C48.8894 12.944 48.1934 12.212 47.1854 12.212C46.1774 12.212 45.4814 12.944 45.4814 14.024ZM55.3932 11.072H56.8572V17H55.5012L55.3932 16.208C55.0332 16.772 54.2652 17.156 53.4732 17.156C52.1052 17.156 51.3012 16.232 51.3012 14.78V11.072H52.7652V14.264C52.7652 15.392 53.2092 15.848 54.0252 15.848C54.9492 15.848 55.3932 15.308 55.3932 14.18V11.072ZM60.6881 17.156C58.9721 17.156 57.9041 15.896 57.9041 14.06C57.9041 12.212 58.9841 10.892 60.7721 10.892C61.6001 10.892 62.3321 11.24 62.7041 11.828V8.072H64.1561V17H62.8121L62.7161 16.076C62.3561 16.76 61.5881 17.156 60.6881 17.156ZM61.0121 15.812C62.0321 15.812 62.6921 15.08 62.6921 14.012C62.6921 12.944 62.0321 12.2 61.0121 12.2C59.9921 12.2 59.3681 12.956 59.3681 14.012C59.3681 15.068 59.9921 15.812 61.0121 15.812ZM65.6698 14.444V13.148H69.5338V14.444H65.6698ZM72.5015 17H71.0495V8.072H72.5015V17ZM74.7693 9.884C74.2653 9.884 73.8693 9.488 73.8693 8.996C73.8693 8.504 74.2653 8.12 74.7693 8.12C75.2493 8.12 75.6453 8.504 75.6453 8.996C75.6453 9.488 75.2493 9.884 74.7693 9.884ZM74.0373 17V11.072H75.5013V17H74.0373ZM76.6778 13.904C76.6778 12.176 77.8058 10.88 79.4978 10.88C80.3858 10.88 81.0818 11.252 81.4298 11.888L81.5138 11.072H82.8698V16.7C82.8698 18.68 81.6818 19.916 79.7618 19.916C78.0578 19.916 76.8938 18.944 76.7138 17.36H78.1778C78.2738 18.128 78.8618 18.584 79.7618 18.584C80.7698 18.584 81.4178 17.948 81.4178 16.964V15.98C81.0458 16.532 80.3138 16.88 79.4618 16.88C77.7818 16.88 76.6778 15.62 76.6778 13.904ZM78.1538 13.868C78.1538 14.864 78.7898 15.608 79.7498 15.608C80.7578 15.608 81.3818 14.9 81.3818 13.868C81.3818 12.86 80.7698 12.164 79.7498 12.164C78.7778 12.164 78.1538 12.896 78.1538 13.868ZM85.8489 17H84.3849V8.072H85.8609V11.84C86.2329 11.264 86.9289 10.892 87.7809 10.892C89.2449 10.892 90.0129 11.816 90.0129 13.352V17H88.5489V13.7C88.5489 12.704 88.0569 12.224 87.3129 12.224C86.3889 12.224 85.8489 12.872 85.8489 13.76V17ZM93.4673 17H92.0033V12.296H90.8633V11.072H92.0033V9.224H93.4673V11.072H94.6193V12.296H93.4673V17ZM96.9934 17H95.5294V11.072H96.8854L97.0054 11.84C97.3774 11.24 98.0974 10.892 98.9014 10.892C100.389 10.892 101.157 11.816 101.157 13.352V17H99.6934V13.7C99.6934 12.704 99.2014 12.224 98.4454 12.224C97.5454 12.224 96.9934 12.848 96.9934 13.808V17ZM103.328 9.884C102.824 9.884 102.428 9.488 102.428 8.996C102.428 8.504 102.824 8.12 103.328 8.12C103.808 8.12 104.204 8.504 104.204 8.996C104.204 9.488 103.808 9.884 103.328 9.884ZM102.596 17V11.072H104.06V17H102.596ZM107.036 17H105.572V11.072H106.928L107.048 11.84C107.42 11.24 108.14 10.892 108.944 10.892C110.432 10.892 111.2 11.816 111.2 13.352V17H109.736V13.7C109.736 12.704 109.244 12.224 108.488 12.224C107.588 12.224 107.036 12.848 107.036 13.808V17ZM112.303 13.904C112.303 12.176 113.431 10.88 115.123 10.88C116.011 10.88 116.707 11.252 117.055 11.888L117.139 11.072H118.495V16.7C118.495 18.68 117.307 19.916 115.387 19.916C113.683 19.916 112.519 18.944 112.339 17.36H113.803C113.899 18.128 114.487 18.584 115.387 18.584C116.395 18.584 117.043 17.948 117.043 16.964V15.98C116.671 16.532 115.939 16.88 115.087 16.88C113.407 16.88 112.303 15.62 112.303 13.904ZM113.779 13.868C113.779 14.864 114.415 15.608 115.375 15.608C116.383 15.608 117.007 14.9 117.007 13.868C117.007 12.86 116.395 12.164 115.375 12.164C114.403 12.164 113.779 12.896 113.779 13.868Z" fill="black"/>
</svg>
