<svg width="146" height="24" viewBox="0 0 146 24" fill="none" xmlns="http://www.w3.org/2000/svg">
<path d="M12 22C16.13 22 19.5 18.63 19.5 14.5V9.5C19.5 5.37 16.13 2 12 2C7.87 2 4.5 5.37 4.5 9.5V14.5C4.5 18.63 7.87 22 12 22Z" stroke="#1A1A1A" stroke-width="1.5" stroke-linecap="round" stroke-linejoin="round"/>
<path d="M12 11C11.17 11 10.5 10.33 10.5 9.5V7.5C10.5 6.67 11.17 6 12 6C12.82 6 13.5 6.67 13.5 7.5V9.5C13.5 10.33 12.82 11 12 11Z" stroke="#1A1A1A" stroke-width="1.5" stroke-linecap="round" stroke-linejoin="round"/>
<path d="M12 6V2" stroke="#1A1A1A" stroke-width="1.5" stroke-linecap="round" stroke-linejoin="round"/>
<path d="M36.46 16H34.972V7.228H36.46L39.292 14.212L42.124 7.228H43.636V16H42.148V13.3C42.148 11.536 42.148 11.02 42.232 10.396L40 16H38.584L36.364 10.408C36.448 10.936 36.46 11.764 36.46 12.856V16ZM45.0135 13.024C45.0135 11.176 46.3455 9.904 48.1815 9.904C50.0175 9.904 51.3495 11.176 51.3495 13.024C51.3495 14.872 50.0175 16.144 48.1815 16.144C46.3455 16.144 45.0135 14.872 45.0135 13.024ZM46.4775 13.024C46.4775 14.104 47.1735 14.836 48.1815 14.836C49.1895 14.836 49.8855 14.104 49.8855 13.024C49.8855 11.944 49.1895 11.212 48.1815 11.212C47.1735 11.212 46.4775 11.944 46.4775 13.024ZM56.3893 10.072H57.8533V16H56.4973L56.3893 15.208C56.0293 15.772 55.2613 16.156 54.4693 16.156C53.1013 16.156 52.2973 15.232 52.2973 13.78V10.072H53.7613V13.264C53.7613 14.392 54.2053 14.848 55.0213 14.848C55.9453 14.848 56.3893 14.308 56.3893 13.18V10.072ZM58.7922 14.2H60.1842C60.1962 14.716 60.5802 15.04 61.2522 15.04C61.9362 15.04 62.3082 14.764 62.3082 14.332C62.3082 14.032 62.1522 13.816 61.6242 13.696L60.5562 13.444C59.4882 13.204 58.9722 12.7 58.9722 11.752C58.9722 10.588 59.9562 9.892 61.3242 9.892C62.6562 9.892 63.5562 10.66 63.5682 11.812H62.1762C62.1642 11.308 61.8282 10.984 61.2642 10.984C60.6882 10.984 60.3522 11.248 60.3522 11.692C60.3522 12.028 60.6162 12.244 61.1202 12.364L62.1882 12.616C63.1842 12.844 63.6882 13.3 63.6882 14.212C63.6882 15.412 62.6682 16.156 61.2042 16.156C59.7282 16.156 58.7922 15.364 58.7922 14.2ZM67.4549 16.156C65.6909 16.156 64.4549 14.872 64.4549 13.036C64.4549 11.176 65.6669 9.892 67.4069 9.892C69.1829 9.892 70.3109 11.08 70.3109 12.928V13.372L65.8469 13.384C65.9549 14.428 66.5069 14.956 67.4789 14.956C68.2829 14.956 68.8109 14.644 68.9789 14.08H70.3349C70.0829 15.376 69.0029 16.156 67.4549 16.156ZM67.4189 11.092C66.5549 11.092 66.0269 11.56 65.8829 12.448H68.8589C68.8589 11.632 68.2949 11.092 67.4189 11.092Z" fill="black"/>
</svg>
