<svg width="101" height="24" viewBox="0 0 101 24" fill="none" xmlns="http://www.w3.org/2000/svg">
<path d="M4.91992 20.2804L6.68993 21.6504C6.91993 21.8804 7.42992 21.9903 7.77992 21.9903H9.94992C10.6399 21.9903 11.3799 21.4804 11.5499 20.7904L12.9199 16.6203C13.2099 15.8203 12.6899 15.1303 11.8299 15.1303H9.53992C9.19992 15.1303 8.90992 14.8403 8.96992 14.4403L9.25993 12.6103C9.36993 12.1003 9.02992 11.5203 8.51992 11.3503C8.05992 11.1803 7.48993 11.4103 7.25993 11.7503L4.91992 15.2403" stroke="#1A1A1A" stroke-width="1.5" stroke-miterlimit="10"/>
<path d="M2 20.2799V14.6799C2 13.8799 2.34 13.5898 3.14 13.5898H3.71C4.51 13.5898 4.85 13.8799 4.85 14.6799V20.2799C4.85 21.0799 4.51 21.3699 3.71 21.3699H3.14C2.34 21.3699 2 21.0899 2 20.2799Z" stroke="#1A1A1A" stroke-width="1.5" stroke-linecap="round" stroke-linejoin="round"/>
<path d="M19.0798 3.71973L17.3098 2.34973C17.0798 2.11973 16.5698 2.00977 16.2198 2.00977H14.0498C13.3598 2.00977 12.6198 2.51972 12.4498 3.20972L11.0798 7.37976C10.7898 8.17976 11.3098 8.86975 12.1698 8.86975H14.4598C14.7998 8.86975 15.0898 9.15981 15.0298 9.55981L14.7398 11.3898C14.6298 11.8998 14.9698 12.4798 15.4798 12.6498C15.9398 12.8198 16.5098 12.5898 16.7398 12.2498L19.0798 8.75977" stroke="#1A1A1A" stroke-width="1.5" stroke-miterlimit="10"/>
<path d="M21.9994 3.71985V9.31982C21.9994 10.1198 21.6594 10.4099 20.8594 10.4099H20.2894C19.4894 10.4099 19.1494 10.1198 19.1494 9.31982V3.71985C19.1494 2.91985 19.4894 2.62988 20.2894 2.62988H20.8594C21.6594 2.62988 21.9994 2.90985 21.9994 3.71985Z" stroke="#1A1A1A" stroke-width="1.5" stroke-linecap="round" stroke-linejoin="round"/>
<path d="M36.508 7.228V14.584H40.18V16H34.972V7.228H36.508ZM41.945 8.884C41.441 8.884 41.045 8.488 41.045 7.996C41.045 7.504 41.441 7.12 41.945 7.12C42.425 7.12 42.821 7.504 42.821 7.996C42.821 8.488 42.425 8.884 41.945 8.884ZM41.213 16V10.072H42.677V16H41.213ZM45.6656 16H44.2136V7.072H45.6656V12.556L47.9696 10.072H49.8056L47.5496 12.424L49.7576 16H48.0776L46.5296 13.504L45.6656 14.404V16ZM53.0291 16.156C51.2651 16.156 50.0291 14.872 50.0291 13.036C50.0291 11.176 51.2411 9.892 52.9811 9.892C54.7571 9.892 55.8851 11.08 55.8851 12.928V13.372L51.4211 13.384C51.5291 14.428 52.0811 14.956 53.0531 14.956C53.8571 14.956 54.3851 14.644 54.5531 14.08H55.9091C55.6571 15.376 54.5771 16.156 53.0291 16.156ZM52.9931 11.092C52.1291 11.092 51.6011 11.56 51.4571 12.448H54.4331C54.4331 11.632 53.8691 11.092 52.9931 11.092ZM57.0448 13.444V12.148H60.9088V13.444H57.0448ZM64.8365 16.156C63.1205 16.156 62.0525 14.896 62.0525 13.06C62.0525 11.212 63.1325 9.892 64.9205 9.892C65.7485 9.892 66.4805 10.24 66.8525 10.828V7.072H68.3045V16H66.9605L66.8645 15.076C66.5045 15.76 65.7365 16.156 64.8365 16.156ZM65.1605 14.812C66.1805 14.812 66.8405 14.08 66.8405 13.012C66.8405 11.944 66.1805 11.2 65.1605 11.2C64.1405 11.2 63.5165 11.956 63.5165 13.012C63.5165 14.068 64.1405 14.812 65.1605 14.812ZM70.5622 8.884C70.0582 8.884 69.6622 8.488 69.6622 7.996C69.6622 7.504 70.0582 7.12 70.5622 7.12C71.0422 7.12 71.4382 7.504 71.4382 7.996C71.4382 8.488 71.0422 8.884 70.5622 8.884ZM69.8302 16V10.072H71.2942V16H69.8302ZM72.3508 14.2H73.7428C73.7548 14.716 74.1388 15.04 74.8108 15.04C75.4948 15.04 75.8668 14.764 75.8668 14.332C75.8668 14.032 75.7108 13.816 75.1828 13.696L74.1148 13.444C73.0468 13.204 72.5308 12.7 72.5308 11.752C72.5308 10.588 73.5148 9.892 74.8828 9.892C76.2148 9.892 77.1148 10.66 77.1268 11.812H75.7348C75.7228 11.308 75.3868 10.984 74.8228 10.984C74.2468 10.984 73.9108 11.248 73.9108 11.692C73.9108 12.028 74.1748 12.244 74.6788 12.364L75.7468 12.616C76.7428 12.844 77.2468 13.3 77.2468 14.212C77.2468 15.412 76.2268 16.156 74.7628 16.156C73.2868 16.156 72.3508 15.364 72.3508 14.2ZM79.8375 16H78.3855V7.072H79.8375V16ZM82.1052 8.884C81.6012 8.884 81.2052 8.488 81.2052 7.996C81.2052 7.504 81.6012 7.12 82.1052 7.12C82.5852 7.12 82.9812 7.504 82.9812 7.996C82.9812 8.488 82.5852 8.884 82.1052 8.884ZM81.3732 16V10.072H82.8372V16H81.3732ZM85.8258 16H84.3738V7.072H85.8258V12.556L88.1298 10.072H89.9658L87.7098 12.424L89.9178 16H88.2378L86.6898 13.504L85.8258 14.404V16ZM93.1893 16.156C91.4253 16.156 90.1893 14.872 90.1893 13.036C90.1893 11.176 91.4013 9.892 93.1413 9.892C94.9173 9.892 96.0453 11.08 96.0453 12.928V13.372L91.5813 13.384C91.6893 14.428 92.2413 14.956 93.2133 14.956C94.0173 14.956 94.5453 14.644 94.7133 14.08H96.0693C95.8173 15.376 94.7373 16.156 93.1893 16.156ZM93.1533 11.092C92.2893 11.092 91.7613 11.56 91.6173 12.448H94.5933C94.5933 11.632 94.0293 11.092 93.1533 11.092Z" fill="black"/>
</svg>
