<svg width="200" height="24" viewBox="0 0 200 24" fill="none" xmlns="http://www.w3.org/2000/svg">
<path d="M16.42 7.94987C18.86 10.3899 18.86 14.3498 16.42 16.7898C13.98 19.2298 10.02 19.2298 7.58 16.7898C5.14 14.3498 5.14 10.3899 7.58 7.94987C10.02 5.50987 13.98 5.50987 16.42 7.94987Z" stroke="#1A1A1A" stroke-width="1.5" stroke-linecap="round" stroke-linejoin="round"/>
<path d="M8.24999 21.6399C6.24999 20.8399 4.49999 19.3899 3.33999 17.3799C2.19999 15.4099 1.81999 13.2199 2.08999 11.1299" stroke="#1A1A1A" stroke-width="1.5" stroke-linecap="round" stroke-linejoin="round"/>
<path d="M5.8501 4.47986C7.5501 3.14986 9.68009 2.35986 12.0001 2.35986C14.2701 2.35986 16.3601 3.12985 18.0401 4.40985" stroke="#1A1A1A" stroke-width="1.5" stroke-linecap="round" stroke-linejoin="round"/>
<path d="M15.75 21.6399C17.75 20.8399 19.5 19.3899 20.66 17.3799C21.8 15.4099 22.18 13.2199 21.91 11.1299" stroke="#1A1A1A" stroke-width="1.5" stroke-linecap="round" stroke-linejoin="round"/>
<path d="M34.468 9.676C34.468 8.14 35.74 7.072 37.588 7.072C39.364 7.072 40.492 8.056 40.54 9.64H39.004C38.968 8.884 38.428 8.44 37.564 8.44C36.616 8.44 36.004 8.896 36.004 9.628C36.004 10.252 36.34 10.6 37.072 10.768L38.452 11.068C39.952 11.392 40.684 12.16 40.684 13.468C40.684 15.1 39.412 16.156 37.48 16.156C35.608 16.156 34.384 15.16 34.348 13.588H35.884C35.896 14.332 36.496 14.776 37.48 14.776C38.5 14.776 39.148 14.332 39.148 13.6C39.148 13.012 38.848 12.664 38.128 12.508L36.736 12.196C35.248 11.872 34.468 11.02 34.468 9.676ZM43.8736 16H42.4096V11.296H41.2696V10.072H42.4096V8.224H43.8736V10.072H45.0256V11.296H43.8736V16ZM45.5291 13.024C45.5291 11.176 46.8611 9.904 48.6971 9.904C50.5331 9.904 51.8651 11.176 51.8651 13.024C51.8651 14.872 50.5331 16.144 48.6971 16.144C46.8611 16.144 45.5291 14.872 45.5291 13.024ZM46.9931 13.024C46.9931 14.104 47.6891 14.836 48.6971 14.836C49.7051 14.836 50.4011 14.104 50.4011 13.024C50.4011 11.944 49.7051 11.212 48.6971 11.212C47.6891 11.212 46.9931 11.944 46.9931 13.024ZM56.7455 10.048V11.404H56.2055C55.1495 11.404 54.4895 11.968 54.4895 13.12V16H53.0255V10.084H54.4055L54.4895 10.948C54.7415 10.36 55.3055 9.964 56.0975 9.964C56.3015 9.964 56.5055 9.988 56.7455 10.048ZM57.3963 18.748V17.524H58.2723C58.8483 17.524 59.2083 17.392 59.4603 16.696L59.6283 16.252L57.2403 10.072H58.7883L60.3123 14.392L61.9203 10.072H63.4323L60.5283 17.32C60.0843 18.424 59.4603 18.88 58.4883 18.88C58.0803 18.88 57.7203 18.832 57.3963 18.748Z" fill="black"/>
</svg>
