<svg width="114" height="24" viewBox="0 0 114 24" fill="none" xmlns="http://www.w3.org/2000/svg">
<path d="M12 22C17.5228 22 22 17.5228 22 12C22 6.47715 17.5228 2 12 2C6.47715 2 2 6.47715 2 12C2 17.5228 6.47715 22 12 22Z" stroke="#1A1A1A" stroke-width="1.5" stroke-linecap="round" stroke-linejoin="round"/>
<path d="M17 16.5H13.9L15.52 14.71C16.32 13.82 16.76 12.69 16.76 11.53C16.76 10.33 16.26 9.18002 15.37 8.33002C14.48 7.48002 13.27 7 12 7C10.74 7 9.53 7.48002 8.63 8.33002C7.74 9.18002 7.23999 10.33 7.23999 11.53C7.23999 12.7 7.67998 13.83 8.47998 14.71L10.1 16.5H7" stroke="#1A1A1A" stroke-width="1.5" stroke-linecap="round" stroke-linejoin="round"/>
<path d="M42.977 12.608C42.977 15.272 41.225 17.144 38.705 17.144C36.197 17.144 34.469 15.284 34.469 12.608C34.469 9.944 36.209 8.072 38.717 8.072C41.225 8.072 42.977 9.932 42.977 12.608ZM41.357 12.608C41.357 10.736 40.325 9.548 38.717 9.548C37.109 9.548 36.077 10.736 36.077 12.608C36.077 14.48 37.109 15.668 38.717 15.668C40.325 15.668 41.357 14.456 41.357 12.608ZM45.6546 17H44.1906V11.072H45.5346L45.6546 11.768C45.9546 11.276 46.5546 10.892 47.4066 10.892C48.3066 10.892 48.9306 11.336 49.2426 12.02C49.5426 11.336 50.2386 10.892 51.1386 10.892C52.5786 10.892 53.3706 11.756 53.3706 13.124V17H51.9186V13.508C51.9186 12.656 51.4626 12.212 50.7666 12.212C50.0586 12.212 49.5186 12.668 49.5186 13.64V17H48.0546V13.496C48.0546 12.668 47.6106 12.224 46.9146 12.224C46.2186 12.224 45.6546 12.68 45.6546 13.64V17ZM57.4598 17.156C55.6958 17.156 54.4598 15.872 54.4598 14.036C54.4598 12.176 55.6718 10.892 57.4118 10.892C59.1878 10.892 60.3158 12.08 60.3158 13.928V14.372L55.8518 14.384C55.9598 15.428 56.5118 15.956 57.4838 15.956C58.2878 15.956 58.8158 15.644 58.9838 15.08H60.3398C60.0878 16.376 59.0078 17.156 57.4598 17.156ZM57.4238 12.092C56.5598 12.092 56.0318 12.56 55.8878 13.448H58.8638C58.8638 12.632 58.2998 12.092 57.4238 12.092ZM61.1514 13.904C61.1514 12.176 62.2794 10.88 63.9714 10.88C64.8594 10.88 65.5554 11.252 65.9034 11.888L65.9874 11.072H67.3434V16.7C67.3434 18.68 66.1554 19.916 64.2354 19.916C62.5314 19.916 61.3674 18.944 61.1874 17.36H62.6514C62.7474 18.128 63.3354 18.584 64.2354 18.584C65.2434 18.584 65.8914 17.948 65.8914 16.964V15.98C65.5194 16.532 64.7874 16.88 63.9354 16.88C62.2554 16.88 61.1514 15.62 61.1514 13.904ZM62.6274 13.868C62.6274 14.864 63.2634 15.608 64.2234 15.608C65.2314 15.608 65.8554 14.9 65.8554 13.868C65.8554 12.86 65.2434 12.164 64.2234 12.164C63.2514 12.164 62.6274 12.896 62.6274 13.868ZM70.6225 17.156C69.3625 17.156 68.5945 16.424 68.5945 15.308C68.5945 14.216 69.3865 13.532 70.7905 13.424L72.5665 13.292V13.16C72.5665 12.356 72.0865 12.032 71.3425 12.032C70.4785 12.032 69.9985 12.392 69.9985 13.016H68.7505C68.7505 11.732 69.8065 10.892 71.4145 10.892C73.0105 10.892 73.9945 11.756 73.9945 13.4V17H72.7105L72.6025 16.124C72.3505 16.736 71.5465 17.156 70.6225 17.156ZM71.1025 16.052C72.0025 16.052 72.5785 15.512 72.5785 14.6V14.288L71.3425 14.384C70.4305 14.468 70.0825 14.768 70.0825 15.248C70.0825 15.788 70.4425 16.052 71.1025 16.052ZM75.4208 14.444V13.148H79.2848V14.444H75.4208ZM80.4285 14.024C80.4285 12.188 81.6405 10.892 83.3925 10.892C85.0125 10.892 86.1165 11.792 86.2725 13.22H84.8085C84.6405 12.548 84.1485 12.2 83.4525 12.2C82.5165 12.2 81.8925 12.908 81.8925 14.024C81.8925 15.14 82.4685 15.836 83.4045 15.836C84.1365 15.836 84.6525 15.476 84.8085 14.828H86.2845C86.1045 16.208 84.9525 17.156 83.4045 17.156C81.6045 17.156 80.4285 15.908 80.4285 14.024ZM88.1062 9.884C87.6022 9.884 87.2062 9.488 87.2062 8.996C87.2062 8.504 87.6022 8.12 88.1062 8.12C88.5862 8.12 88.9822 8.504 88.9822 8.996C88.9822 9.488 88.5862 9.884 88.1062 9.884ZM87.3742 17V11.072H88.8382V17H87.3742ZM94.0707 11.048V12.404H93.5307C92.4747 12.404 91.8147 12.968 91.8147 14.12V17H90.3507V11.084H91.7307L91.8147 11.948C92.0667 11.36 92.6307 10.964 93.4227 10.964C93.6267 10.964 93.8307 10.988 94.0707 11.048ZM94.5144 14.024C94.5144 12.188 95.7264 10.892 97.4784 10.892C99.0984 10.892 100.202 11.792 100.358 13.22H98.8944C98.7264 12.548 98.2344 12.2 97.5384 12.2C96.6024 12.2 95.9784 12.908 95.9784 14.024C95.9784 15.14 96.5544 15.836 97.4904 15.836C98.2224 15.836 98.7384 15.476 98.8944 14.828H100.37C100.19 16.208 99.0384 17.156 97.4904 17.156C95.6904 17.156 94.5144 15.908 94.5144 14.024ZM102.936 17H101.484V8.072H102.936V17ZM107.124 17.156C105.36 17.156 104.124 15.872 104.124 14.036C104.124 12.176 105.336 10.892 107.076 10.892C108.852 10.892 109.98 12.08 109.98 13.928V14.372L105.516 14.384C105.624 15.428 106.176 15.956 107.148 15.956C107.952 15.956 108.48 15.644 108.648 15.08H110.004C109.752 16.376 108.672 17.156 107.124 17.156ZM107.088 12.092C106.224 12.092 105.696 12.56 105.552 13.448H108.528C108.528 12.632 107.964 12.092 107.088 12.092Z" fill="black"/>
</svg>
