<svg width="200" height="24" viewBox="0 0 200 24" fill="none" xmlns="http://www.w3.org/2000/svg">
<path d="M21.6299 14.75C21.6299 15.64 21.3899 16.48 20.9499 17.2C20.1299 18.57 18.6199 19.5 16.8799 19.5C15.9399 19.5 15.0599 19.22 14.3199 18.73C13.6999 18.35 13.1899 17.82 12.8199 17.2C12.3799 16.48 12.1299 15.64 12.1299 14.75C12.1299 12.13 14.2599 10 16.8799 10C17.2399 10 17.5899 10.04 17.9199 10.12C20.0499 10.59 21.6299 12.49 21.6299 14.75Z" stroke="#1A1A1A" stroke-width="1.5" stroke-miterlimit="10" stroke-linecap="round" stroke-linejoin="round"/>
<path d="M15.0298 14.7501L16.1998 15.9201L18.7297 13.5801" stroke="#1A1A1A" stroke-width="1.5" stroke-linecap="round" stroke-linejoin="round"/>
<path d="M20.6901 4.01999V6.23999C20.6901 7.04999 20.1801 8.06001 19.6801 8.57001L17.92 10.12C17.59 10.04 17.2401 10 16.8801 10C14.2601 10 12.1301 12.13 12.1301 14.75C12.1301 15.64 12.3801 16.48 12.8201 17.2C13.1901 17.82 13.7001 18.35 14.3201 18.73V19.07C14.3201 19.68 13.92 20.49 13.41 20.79L12.0001 21.7C10.6901 22.51 8.87006 21.6 8.87006 19.98V14.63C8.87006 13.92 8.46006 13.01 8.06006 12.51L4.22003 8.47C3.72003 7.96 3.31006 7.05001 3.31006 6.45001V4.12C3.31006 2.91 4.22008 2 5.33008 2H18.67C19.78 2 20.6901 2.90999 20.6901 4.01999Z" stroke="#1A1A1A" stroke-width="1.5" stroke-miterlimit="10" stroke-linecap="round" stroke-linejoin="round"/>
<path d="M39.772 12.412H36.508V16H34.972V7.228H40.396V8.644H36.508V11.032H39.772V12.412ZM42.2966 8.884C41.7926 8.884 41.3966 8.488 41.3966 7.996C41.3966 7.504 41.7926 7.12 42.2966 7.12C42.7766 7.12 43.1726 7.504 43.1726 7.996C43.1726 8.488 42.7766 8.884 42.2966 8.884ZM41.5646 16V10.072H43.0286V16H41.5646ZM46.0172 16H44.5652V7.072H46.0172V16ZM49.5689 16H48.1049V11.296H46.9649V10.072H48.1049V8.224H49.5689V10.072H50.7209V11.296H49.5689V16ZM54.2244 16.156C52.4604 16.156 51.2244 14.872 51.2244 13.036C51.2244 11.176 52.4364 9.892 54.1764 9.892C55.9524 9.892 57.0804 11.08 57.0804 12.928V13.372L52.6164 13.384C52.7244 14.428 53.2764 14.956 54.2484 14.956C55.0524 14.956 55.5804 14.644 55.7484 14.08H57.1044C56.8524 15.376 55.7724 16.156 54.2244 16.156ZM54.1884 11.092C53.3244 11.092 52.7964 11.56 52.6524 12.448H55.6284C55.6284 11.632 55.0644 11.092 54.1884 11.092ZM61.9721 10.048V11.404H61.4321C60.3761 11.404 59.7161 11.968 59.7161 13.12V16H58.2521V10.084H59.6321L59.7161 10.948C59.9681 10.36 60.5321 9.964 61.3241 9.964C61.5281 9.964 61.7321 9.988 61.9721 10.048ZM62.5174 13.444V12.148H66.3814V13.444H62.5174ZM69.6548 16H68.1908V11.296H67.0508V10.072H68.1908V8.224H69.6548V10.072H70.8068V11.296H69.6548V16ZM72.4489 8.884C71.9449 8.884 71.5489 8.488 71.5489 7.996C71.5489 7.504 71.9449 7.12 72.4489 7.12C72.9289 7.12 73.3249 7.504 73.3249 7.996C73.3249 8.488 72.9289 8.884 72.4489 8.884ZM71.7169 16V10.072H73.1809V16H71.7169ZM74.3455 13.024C74.3455 11.188 75.5575 9.892 77.3095 9.892C78.9295 9.892 80.0335 10.792 80.1895 12.22H78.7255C78.5575 11.548 78.0655 11.2 77.3695 11.2C76.4335 11.2 75.8095 11.908 75.8095 13.024C75.8095 14.14 76.3855 14.836 77.3215 14.836C78.0535 14.836 78.5695 14.476 78.7255 13.828H80.2015C80.0215 15.208 78.8695 16.156 77.3215 16.156C75.5215 16.156 74.3455 14.908 74.3455 13.024ZM82.7672 16H81.3152V7.072H82.7672V12.556L85.0712 10.072H86.9072L84.6512 12.424L86.8592 16H85.1792L83.6312 13.504L82.7672 14.404V16Z" fill="black"/>
</svg>
