<svg width="139" height="24" viewBox="0 0 139 24" fill="none" xmlns="http://www.w3.org/2000/svg">
<path d="M22 10V9C22 4 20 2 15 2H9C4 2 2 4 2 9V15C2 20 4 22 9 22H11" stroke="#1A1A1A" stroke-width="1.5" stroke-linecap="round" stroke-linejoin="round"/>
<path d="M15.2701 22.0001C16.0654 22.0001 16.7101 21.3554 16.7101 20.5601C16.7101 19.7648 16.0654 19.1201 15.2701 19.1201C14.4748 19.1201 13.8301 19.7648 13.8301 20.5601C13.8301 21.3554 14.4748 22.0001 15.2701 22.0001Z" stroke="#1A1A1A" stroke-width="1.5" stroke-linecap="round" stroke-linejoin="round"/>
<path d="M22.0002 19.6001V13.9601C22.0002 12.7601 21.2502 12.5901 20.4802 12.8001L17.5902 13.5901C17.0702 13.7301 16.7002 14.1501 16.7002 14.7501V15.7601V16.4401V20.5701" stroke="#1A1A1A" stroke-width="1.5" stroke-linecap="round" stroke-linejoin="round"/>
<path d="M20.5601 21.0402C21.3554 21.0402 22.0001 20.3954 22.0001 19.6002C22.0001 18.8049 21.3554 18.1602 20.5601 18.1602C19.7648 18.1602 19.1201 18.8049 19.1201 19.6002C19.1201 20.3954 19.7648 21.0402 20.5601 21.0402Z" stroke="#1A1A1A" stroke-width="1.5" stroke-linecap="round" stroke-linejoin="round"/>
<path d="M16.71 16.43L22 14.99" stroke="#1A1A1A" stroke-width="1.5" stroke-linecap="round" stroke-linejoin="round"/>
<path d="M36.46 17H34.972V8.228H36.46L39.292 15.212L42.124 8.228H43.636V17H42.148V14.3C42.148 12.536 42.148 12.02 42.232 11.396L40 17H38.584L36.364 11.408C36.448 11.936 36.46 12.764 36.46 13.856V17ZM46.0935 9.884C45.5895 9.884 45.1935 9.488 45.1935 8.996C45.1935 8.504 45.5895 8.12 46.0935 8.12C46.5735 8.12 46.9695 8.504 46.9695 8.996C46.9695 9.488 46.5735 9.884 46.0935 9.884ZM45.3615 17V11.072H46.8255V17H45.3615ZM49.802 17H48.338V11.072H49.694L49.814 11.84C50.186 11.24 50.906 10.892 51.71 10.892C53.198 10.892 53.966 11.816 53.966 13.352V17H52.502V13.7C52.502 12.704 52.01 12.224 51.254 12.224C50.354 12.224 49.802 12.848 49.802 13.808V17ZM56.1364 9.884C55.6324 9.884 55.2364 9.488 55.2364 8.996C55.2364 8.504 55.6324 8.12 56.1364 8.12C56.6164 8.12 57.0124 8.504 57.0124 8.996C57.0124 9.488 56.6164 9.884 56.1364 9.884ZM55.4044 17V11.072H56.8684V17H55.4044ZM58.369 14.444V13.148H62.233V14.444H58.369ZM65.1888 17H63.7248V11.072H65.0688L65.1888 11.768C65.4888 11.276 66.0888 10.892 66.9408 10.892C67.8408 10.892 68.4648 11.336 68.7768 12.02C69.0768 11.336 69.7728 10.892 70.6728 10.892C72.1128 10.892 72.9048 11.756 72.9048 13.124V17H71.4528V13.508C71.4528 12.656 70.9968 12.212 70.3008 12.212C69.5928 12.212 69.0528 12.668 69.0528 13.64V17H67.5888V13.496C67.5888 12.668 67.1448 12.224 66.4488 12.224C65.7528 12.224 65.1888 12.68 65.1888 13.64V17ZM78.3619 11.072H79.8259V17H78.4699L78.3619 16.208C78.0019 16.772 77.2339 17.156 76.4419 17.156C75.0739 17.156 74.2699 16.232 74.2699 14.78V11.072H75.7339V14.264C75.7339 15.392 76.1779 15.848 76.9939 15.848C77.9179 15.848 78.3619 15.308 78.3619 14.18V11.072ZM80.7648 15.2H82.1568C82.1688 15.716 82.5528 16.04 83.2248 16.04C83.9088 16.04 84.2808 15.764 84.2808 15.332C84.2808 15.032 84.1248 14.816 83.5968 14.696L82.5288 14.444C81.4608 14.204 80.9448 13.7 80.9448 12.752C80.9448 11.588 81.9288 10.892 83.2968 10.892C84.6288 10.892 85.5288 11.66 85.5408 12.812H84.1488C84.1368 12.308 83.8008 11.984 83.2368 11.984C82.6608 11.984 82.3248 12.248 82.3248 12.692C82.3248 13.028 82.5888 13.244 83.0928 13.364L84.1608 13.616C85.1568 13.844 85.6608 14.3 85.6608 15.212C85.6608 16.412 84.6408 17.156 83.1768 17.156C81.7008 17.156 80.7648 16.364 80.7648 15.2ZM87.5075 9.884C87.0035 9.884 86.6075 9.488 86.6075 8.996C86.6075 8.504 87.0035 8.12 87.5075 8.12C87.9875 8.12 88.3835 8.504 88.3835 8.996C88.3835 9.488 87.9875 9.884 87.5075 9.884ZM86.7755 17V11.072H88.2395V17H86.7755ZM89.4041 14.024C89.4041 12.188 90.6161 10.892 92.3681 10.892C93.9881 10.892 95.0921 11.792 95.2481 13.22H93.7841C93.6161 12.548 93.1241 12.2 92.4281 12.2C91.4921 12.2 90.8681 12.908 90.8681 14.024C90.8681 15.14 91.4441 15.836 92.3801 15.836C93.1121 15.836 93.6281 15.476 93.7841 14.828H95.2601C95.0801 16.208 93.9281 17.156 92.3801 17.156C90.5801 17.156 89.4041 15.908 89.4041 14.024ZM96.2674 14.444V13.148H100.131V14.444H96.2674ZM101.085 15.2H102.477C102.489 15.716 102.873 16.04 103.545 16.04C104.229 16.04 104.601 15.764 104.601 15.332C104.601 15.032 104.445 14.816 103.917 14.696L102.849 14.444C101.781 14.204 101.265 13.7 101.265 12.752C101.265 11.588 102.249 10.892 103.617 10.892C104.949 10.892 105.849 11.66 105.861 12.812H104.469C104.457 12.308 104.121 11.984 103.557 11.984C102.981 11.984 102.645 12.248 102.645 12.692C102.645 13.028 102.909 13.244 103.413 13.364L104.481 13.616C105.477 13.844 105.981 14.3 105.981 15.212C105.981 16.412 104.961 17.156 103.497 17.156C102.021 17.156 101.085 16.364 101.085 15.2ZM106.748 13.964C106.748 12.104 107.852 10.892 109.52 10.892C110.42 10.892 111.2 11.288 111.56 11.972L111.656 11.072H113V19.748H111.548V16.208C111.176 16.808 110.396 17.156 109.52 17.156C107.756 17.156 106.748 15.812 106.748 13.964ZM108.212 14.036C108.212 15.092 108.836 15.836 109.856 15.836C110.876 15.836 111.536 15.104 111.536 14.036C111.536 12.968 110.876 12.224 109.856 12.224C108.836 12.224 108.212 12.98 108.212 14.036ZM116.29 17.156C115.03 17.156 114.262 16.424 114.262 15.308C114.262 14.216 115.054 13.532 116.458 13.424L118.234 13.292V13.16C118.234 12.356 117.754 12.032 117.01 12.032C116.146 12.032 115.666 12.392 115.666 13.016H114.418C114.418 11.732 115.474 10.892 117.082 10.892C118.678 10.892 119.662 11.756 119.662 13.4V17H118.378L118.27 16.124C118.018 16.736 117.214 17.156 116.29 17.156ZM116.77 16.052C117.67 16.052 118.246 15.512 118.246 14.6V14.288L117.01 14.384C116.098 14.468 115.75 14.768 115.75 15.248C115.75 15.788 116.11 16.052 116.77 16.052ZM125.12 11.072H126.584V17H125.228L125.12 16.208C124.76 16.772 123.992 17.156 123.2 17.156C121.832 17.156 121.028 16.232 121.028 14.78V11.072H122.492V14.264C122.492 15.392 122.936 15.848 123.752 15.848C124.676 15.848 125.12 15.308 125.12 14.18V11.072ZM131.816 11.048V12.404H131.276C130.22 12.404 129.56 12.968 129.56 14.12V17H128.096V11.084H129.476L129.56 11.948C129.812 11.36 130.376 10.964 131.168 10.964C131.372 10.964 131.576 10.988 131.816 11.048ZM135.26 17.156C133.496 17.156 132.26 15.872 132.26 14.036C132.26 12.176 133.472 10.892 135.212 10.892C136.988 10.892 138.116 12.08 138.116 13.928V14.372L133.652 14.384C133.76 15.428 134.312 15.956 135.284 15.956C136.088 15.956 136.616 15.644 136.784 15.08H138.14C137.888 16.376 136.808 17.156 135.26 17.156ZM135.224 12.092C134.36 12.092 133.832 12.56 133.688 13.448H136.664C136.664 12.632 136.1 12.092 135.224 12.092Z" fill="black"/>
</svg>
