<svg width="200" height="24" viewBox="0 0 200 24" fill="none" xmlns="http://www.w3.org/2000/svg">
<path d="M16.1701 10.0601H7.83007C6.65007 10.0601 6.24007 9.27006 6.93007 8.31006L11.1001 2.47007C11.5901 1.77007 12.4101 1.77007 12.8901 2.47007L17.0601 8.31006C17.7601 9.27006 17.3501 10.0601 16.1701 10.0601Z" stroke="#1A1A1A" stroke-width="1.5" stroke-linecap="round" stroke-linejoin="round"/>
<path d="M17.5901 18.0001H6.4201C4.8401 18.0001 4.3001 16.9501 5.2301 15.6701L9.22009 10.0601H14.7901L18.7801 15.6701C19.7101 16.9501 19.1701 18.0001 17.5901 18.0001Z" stroke="#1A1A1A" stroke-width="1.5" stroke-linecap="round" stroke-linejoin="round"/>
<path d="M12 22V18" stroke="#1A1A1A" stroke-width="1.5" stroke-linecap="round" stroke-linejoin="round"/>
<path d="M34.204 8.644V7.228H40.876V8.644H38.308V16H36.772V8.644H34.204ZM44.8393 10.048V11.404H44.2993C43.2433 11.404 42.5833 11.968 42.5833 13.12V16H41.1193V10.084H42.4993L42.5833 10.948C42.8353 10.36 43.3993 9.964 44.1913 9.964C44.3953 9.964 44.5993 9.988 44.8393 10.048ZM48.283 16.156C46.519 16.156 45.283 14.872 45.283 13.036C45.283 11.176 46.495 9.892 48.235 9.892C50.011 9.892 51.139 11.08 51.139 12.928V13.372L46.675 13.384C46.783 14.428 47.335 14.956 48.307 14.956C49.111 14.956 49.639 14.644 49.807 14.08H51.163C50.911 15.376 49.831 16.156 48.283 16.156ZM48.247 11.092C47.383 11.092 46.855 11.56 46.711 12.448H49.687C49.687 11.632 49.123 11.092 48.247 11.092ZM54.9627 16.156C53.1987 16.156 51.9627 14.872 51.9627 13.036C51.9627 11.176 53.1747 9.892 54.9147 9.892C56.6907 9.892 57.8187 11.08 57.8187 12.928V13.372L53.3547 13.384C53.4627 14.428 54.0147 14.956 54.9867 14.956C55.7907 14.956 56.3187 14.644 56.4867 14.08H57.8427C57.5907 15.376 56.5107 16.156 54.9627 16.156ZM54.9267 11.092C54.0627 11.092 53.5347 11.56 53.3907 12.448H56.3667C56.3667 11.632 55.8027 11.092 54.9267 11.092Z" fill="black"/>
</svg>
