<svg width="200" height="24" viewBox="0 0 200 24" fill="none" xmlns="http://www.w3.org/2000/svg">
<path d="M2.2002 14.02C3.1302 18.58 7.1602 22 12.0002 22C16.8202 22 20.8402 18.59 21.7902 14.05" stroke="#1A1A1A" stroke-width="1.5" stroke-linecap="round" stroke-linejoin="round"/>
<path d="M21.8102 10.06C20.9102 5.46 16.8602 2 12.0002 2C7.1702 2 3.1402 5.43001 2.2002 9.98001" stroke="#1A1A1A" stroke-width="1.5" stroke-linecap="round" stroke-linejoin="round"/>
<path d="M12 13.5C12.8284 13.5 13.5 12.8284 13.5 12C13.5 11.1716 12.8284 10.5 12 10.5C11.1716 10.5 10.5 11.1716 10.5 12C10.5 12.8284 11.1716 13.5 12 13.5Z" stroke="#1A1A1A" stroke-width="1.5" stroke-linecap="round" stroke-linejoin="round"/>
<path d="M36.508 7.228V14.584H40.18V16H34.972V7.228H36.508ZM43.7478 16.156C41.9838 16.156 40.7478 14.872 40.7478 13.036C40.7478 11.176 41.9598 9.892 43.6998 9.892C45.4758 9.892 46.6038 11.08 46.6038 12.928V13.372L42.1398 13.384C42.2478 14.428 42.7998 14.956 43.7718 14.956C44.5758 14.956 45.1038 14.644 45.2718 14.08H46.6278C46.3758 15.376 45.2958 16.156 43.7478 16.156ZM43.7118 11.092C42.8478 11.092 42.3198 11.56 42.1758 12.448H45.1518C45.1518 11.632 44.5878 11.092 43.7118 11.092ZM49.1977 16L46.8457 10.072H48.4057L49.4377 12.796C49.6897 13.504 49.8937 14.116 49.9657 14.44C50.0497 14.068 50.2657 13.444 50.5177 12.796L51.5977 10.072H53.1097L50.6377 16H49.1977ZM56.3103 16.156C54.5463 16.156 53.3103 14.872 53.3103 13.036C53.3103 11.176 54.5223 9.892 56.2623 9.892C58.0383 9.892 59.1663 11.08 59.1663 12.928V13.372L54.7023 13.384C54.8103 14.428 55.3623 14.956 56.3343 14.956C57.1383 14.956 57.6663 14.644 57.8343 14.08H59.1903C58.9383 15.376 57.8583 16.156 56.3103 16.156ZM56.2743 11.092C55.4103 11.092 54.8823 11.56 54.7383 12.448H57.7143C57.7143 11.632 57.1503 11.092 56.2743 11.092ZM61.814 16H60.362V7.072H61.814V16Z" fill="black"/>
</svg>
