<svg width="125" height="24" viewBox="0 0 125 24" fill="none" xmlns="http://www.w3.org/2000/svg">
<path d="M9.5 3.19995H14.5C18.3 3.19995 21.5 6.29995 21.5 10.2C21.5 14 18.4 17.2 14.5 17.2H3.5" stroke="#1A1A1A" stroke-width="1.5" stroke-miterlimit="10" stroke-linecap="round" stroke-linejoin="round"/>
<path d="M3.2002 6.80005H13.8002C15.8002 6.80005 17.5002 8.50005 17.5002 10.5C17.5002 12.5 15.8002 14.2 13.8002 14.2H8.0002" stroke="#1A1A1A" stroke-width="1.5" stroke-miterlimit="10" stroke-linecap="round" stroke-linejoin="round"/>
<path d="M8.5 10.8H5.5" stroke="#1A1A1A" stroke-width="1.5" stroke-miterlimit="10" stroke-linecap="round" stroke-linejoin="round"/>
<path d="M6.5 20.8H2.5" stroke="#1A1A1A" stroke-width="1.5" stroke-miterlimit="10" stroke-linecap="round" stroke-linejoin="round"/>
<path d="M38.44 13.976H36.508V17H34.972V8.228H38.44C40.204 8.228 41.344 9.38 41.344 11.096C41.344 12.788 40.192 13.976 38.44 13.976ZM38.14 9.596H36.508V12.608H38.116C39.172 12.608 39.736 12.044 39.736 11.084C39.736 10.124 39.16 9.596 38.14 9.596ZM41.7791 14.024C41.7791 12.176 43.1111 10.904 44.9471 10.904C46.7831 10.904 48.1151 12.176 48.1151 14.024C48.1151 15.872 46.7831 17.144 44.9471 17.144C43.1111 17.144 41.7791 15.872 41.7791 14.024ZM43.2431 14.024C43.2431 15.104 43.9391 15.836 44.9471 15.836C45.9551 15.836 46.6511 15.104 46.6511 14.024C46.6511 12.944 45.9551 12.212 44.9471 12.212C43.9391 12.212 43.2431 12.944 43.2431 14.024ZM50.7515 17H49.2995V8.072H50.7515V17ZM51.7713 19.748V18.524H52.6473C53.2233 18.524 53.5833 18.392 53.8353 17.696L54.0033 17.252L51.6153 11.072H53.1633L54.6873 15.392L56.2953 11.072H57.8073L54.9033 18.32C54.4593 19.424 53.8353 19.88 52.8633 19.88C52.4553 19.88 52.0953 19.832 51.7713 19.748ZM58.0539 15.2H59.4459C59.4579 15.716 59.8419 16.04 60.5139 16.04C61.1979 16.04 61.5699 15.764 61.5699 15.332C61.5699 15.032 61.4139 14.816 60.8859 14.696L59.8179 14.444C58.7499 14.204 58.2339 13.7 58.2339 12.752C58.2339 11.588 59.2179 10.892 60.5859 10.892C61.9179 10.892 62.8179 11.66 62.8299 12.812H61.4379C61.4259 12.308 61.0899 11.984 60.5259 11.984C59.9499 11.984 59.6139 12.248 59.6139 12.692C59.6139 13.028 59.8779 13.244 60.3819 13.364L61.4499 13.616C62.4459 13.844 62.9499 14.3 62.9499 15.212C62.9499 16.412 61.9299 17.156 60.4659 17.156C58.9899 17.156 58.0539 16.364 58.0539 15.2ZM65.2085 17L63.2885 11.072H64.8125L65.5925 13.616C65.7245 14.084 65.8445 14.6 65.9525 15.152C66.0605 14.576 66.1685 14.204 66.3605 13.616L67.1765 11.072H68.6645L69.4565 13.616C69.5285 13.856 69.7685 14.744 69.8405 15.14C69.9365 14.696 70.1285 13.988 70.2365 13.616L71.0285 11.072H72.5765L70.5245 17H69.1565L68.3405 14.432C68.1005 13.652 67.9685 13.088 67.9205 12.788C67.8605 13.064 67.7525 13.484 67.4525 14.456L66.6365 17H65.2085ZM74.9341 17.156C73.6741 17.156 72.9061 16.424 72.9061 15.308C72.9061 14.216 73.6981 13.532 75.1021 13.424L76.8781 13.292V13.16C76.8781 12.356 76.3981 12.032 75.6541 12.032C74.7901 12.032 74.3101 12.392 74.3101 13.016H73.0621C73.0621 11.732 74.1181 10.892 75.7261 10.892C77.3221 10.892 78.3061 11.756 78.3061 13.4V17H77.0221L76.9141 16.124C76.6621 16.736 75.8581 17.156 74.9341 17.156ZM75.4141 16.052C76.3141 16.052 76.8901 15.512 76.8901 14.6V14.288L75.6541 14.384C74.7421 14.468 74.3941 14.768 74.3941 15.248C74.3941 15.788 74.7541 16.052 75.4141 16.052ZM83.4643 11.048V12.404H82.9243C81.8683 12.404 81.2083 12.968 81.2083 14.12V17H79.7443V11.084H81.1243L81.2083 11.948C81.4603 11.36 82.0243 10.964 82.8163 10.964C83.0203 10.964 83.2243 10.988 83.4643 11.048ZM85.9192 17H84.4552V11.072H85.7992L85.9192 11.768C86.2192 11.276 86.8192 10.892 87.6712 10.892C88.5712 10.892 89.1952 11.336 89.5072 12.02C89.8072 11.336 90.5032 10.892 91.4032 10.892C92.8432 10.892 93.6352 11.756 93.6352 13.124V17H92.1832V13.508C92.1832 12.656 91.7272 12.212 91.0312 12.212C90.3232 12.212 89.7832 12.668 89.7832 13.64V17H88.3192V13.496C88.3192 12.668 87.8752 12.224 87.1792 12.224C86.4832 12.224 85.9192 12.68 85.9192 13.64V17ZM95.0604 14.444V13.148H98.9244V14.444H95.0604ZM103.356 19.292H102.192C100.992 17.924 100.2 15.776 100.2 13.472C100.2 11.372 100.872 9.164 102.192 7.664H103.356C102.36 9.02 101.676 11.144 101.676 13.472C101.676 15.596 102.264 17.804 103.356 19.292ZM105.572 17H104.108V11.072H105.464L105.584 11.84C105.956 11.24 106.676 10.892 107.48 10.892C108.968 10.892 109.736 11.816 109.736 13.352V17H108.272V13.7C108.272 12.704 107.78 12.224 107.024 12.224C106.124 12.224 105.572 12.848 105.572 13.808V17ZM110.826 14.024C110.826 12.188 112.038 10.892 113.79 10.892C115.41 10.892 116.514 11.792 116.67 13.22H115.206C115.038 12.548 114.546 12.2 113.85 12.2C112.914 12.2 112.29 12.908 112.29 14.024C112.29 15.14 112.866 15.836 113.802 15.836C114.534 15.836 115.05 15.476 115.206 14.828H116.682C116.502 16.208 115.35 17.156 113.802 17.156C112.002 17.156 110.826 15.908 110.826 14.024ZM119.788 17H118.324V12.296H117.184V11.072H118.324V9.224H119.788V11.072H120.94V12.296H119.788V17ZM122.258 19.292H121.094C122.198 17.804 122.774 15.596 122.774 13.472C122.774 11.144 122.09 9.02 121.094 7.664H122.258C123.578 9.164 124.262 11.372 124.262 13.472C124.262 15.776 123.458 17.924 122.258 19.292Z" fill="black"/>
</svg>
