<svg width="141" height="24" viewBox="0 0 141 24" fill="none" xmlns="http://www.w3.org/2000/svg">
<path d="M22 10V15C22 20 20 22 15 22H9C4 22 2 20 2 15V9C2 4 4 2 9 2H14" stroke="#1A1A1A" stroke-width="1.5" stroke-linecap="round" stroke-linejoin="round"/>
<path d="M22 10H18C15 10 14 9 14 6V2L22 10Z" stroke="#1A1A1A" stroke-width="1.5" stroke-linecap="round" stroke-linejoin="round"/>
<path d="M6.61978 15.73C6.28978 14.7 6.67978 13.43 7.74978 13.08C8.31978 12.9 9.01978 13.05 9.40978 13.6C9.77978 13.03 10.5098 12.9 11.0698 13.08C12.1498 13.43 12.5298 14.7 12.2098 15.73C11.6998 17.36 9.90978 18.21 9.40978 18.21C8.91978 18.2 7.14978 17.37 6.61978 15.73Z" stroke="#1A1A1A" stroke-width="1.5" stroke-linecap="round" stroke-linejoin="round"/>
<path d="M38.128 17H34.972V8.228H38.044C40.636 8.228 42.424 10.016 42.424 12.632C42.424 15.212 40.672 17 38.128 17ZM37.9 9.644H36.508V15.584H37.984C39.736 15.584 40.804 14.456 40.804 12.632C40.804 10.772 39.712 9.644 37.9 9.644ZM43.2908 14.024C43.2908 12.176 44.6228 10.904 46.4588 10.904C48.2948 10.904 49.6268 12.176 49.6268 14.024C49.6268 15.872 48.2948 17.144 46.4588 17.144C44.6228 17.144 43.2908 15.872 43.2908 14.024ZM44.7548 14.024C44.7548 15.104 45.4508 15.836 46.4588 15.836C47.4668 15.836 48.1628 15.104 48.1628 14.024C48.1628 12.944 47.4668 12.212 46.4588 12.212C45.4508 12.212 44.7548 12.944 44.7548 14.024ZM50.4393 14.024C50.4393 12.188 51.6513 10.892 53.4033 10.892C55.0233 10.892 56.1273 11.792 56.2833 13.22H54.8193C54.6513 12.548 54.1593 12.2 53.4633 12.2C52.5273 12.2 51.9033 12.908 51.9033 14.024C51.9033 15.14 52.4793 15.836 53.4153 15.836C54.1473 15.836 54.6633 15.476 54.8193 14.828H56.2953C56.1153 16.208 54.9633 17.156 53.4153 17.156C51.6152 17.156 50.4393 15.908 50.4393 14.024ZM61.4049 11.072H62.8689V17H61.5129L61.4049 16.208C61.0449 16.772 60.2769 17.156 59.4849 17.156C58.1169 17.156 57.3129 16.232 57.3129 14.78V11.072H58.7769V14.264C58.7769 15.392 59.2209 15.848 60.0369 15.848C60.9609 15.848 61.4049 15.308 61.4049 14.18V11.072ZM65.845 17H64.381V11.072H65.725L65.845 11.768C66.145 11.276 66.745 10.892 67.597 10.892C68.497 10.892 69.121 11.336 69.433 12.02C69.733 11.336 70.429 10.892 71.329 10.892C72.769 10.892 73.561 11.756 73.561 13.124V17H72.109V13.508C72.109 12.656 71.653 12.212 70.957 12.212C70.249 12.212 69.709 12.668 69.709 13.64V17H68.245V13.496C68.245 12.668 67.801 12.224 67.105 12.224C66.409 12.224 65.845 12.68 65.845 13.64V17ZM77.6502 17.156C75.8862 17.156 74.6502 15.872 74.6502 14.036C74.6502 12.176 75.8622 10.892 77.6022 10.892C79.3782 10.892 80.5062 12.08 80.5062 13.928V14.372L76.0422 14.384C76.1502 15.428 76.7022 15.956 77.6742 15.956C78.4782 15.956 79.0062 15.644 79.1742 15.08H80.5302C80.2782 16.376 79.1982 17.156 77.6502 17.156ZM77.6142 12.092C76.7502 12.092 76.2222 12.56 76.0782 13.448H79.0542C79.0542 12.632 78.4902 12.092 77.6142 12.092ZM83.1419 17H81.6779V11.072H83.0339L83.1539 11.84C83.5259 11.24 84.2459 10.892 85.0499 10.892C86.5379 10.892 87.3059 11.816 87.3059 13.352V17H85.8419V13.7C85.8419 12.704 85.3499 12.224 84.5939 12.224C83.6939 12.224 83.1419 12.848 83.1419 13.808V17ZM90.7603 17H89.2963V12.296H88.1563V11.072H89.2963V9.224H90.7603V11.072H91.9123V12.296H90.7603V17ZM92.576 14.444V13.148H96.44V14.444H92.576ZM97.1094 11.072H97.9614V10.352C97.9614 8.744 98.8134 8.072 100.097 8.072C100.325 8.072 100.601 8.084 100.853 8.132V9.38H100.337C99.5934 9.38 99.4134 9.764 99.4134 10.352V11.072H100.829V12.296H99.4134V17H97.9614V12.296H97.1094V11.072ZM103.375 17.156C102.115 17.156 101.347 16.424 101.347 15.308C101.347 14.216 102.139 13.532 103.543 13.424L105.319 13.292V13.16C105.319 12.356 104.839 12.032 104.095 12.032C103.231 12.032 102.751 12.392 102.751 13.016H101.503C101.503 11.732 102.559 10.892 104.167 10.892C105.763 10.892 106.747 11.756 106.747 13.4V17H105.463L105.355 16.124C105.103 16.736 104.299 17.156 103.375 17.156ZM103.855 16.052C104.755 16.052 105.331 15.512 105.331 14.6V14.288L104.095 14.384C103.183 14.468 102.835 14.768 102.835 15.248C102.835 15.788 103.195 16.052 103.855 16.052ZM109.631 17L107.279 11.072H108.839L109.871 13.796C110.123 14.504 110.327 15.116 110.399 15.44C110.483 15.068 110.699 14.444 110.951 13.796L112.031 11.072H113.543L111.071 17H109.631ZM113.744 14.024C113.744 12.176 115.076 10.904 116.912 10.904C118.748 10.904 120.08 12.176 120.08 14.024C120.08 15.872 118.748 17.144 116.912 17.144C115.076 17.144 113.744 15.872 113.744 14.024ZM115.208 14.024C115.208 15.104 115.904 15.836 116.912 15.836C117.92 15.836 118.616 15.104 118.616 14.024C118.616 12.944 117.92 12.212 116.912 12.212C115.904 12.212 115.208 12.944 115.208 14.024ZM124.96 11.048V12.404H124.42C123.364 12.404 122.704 12.968 122.704 14.12V17H121.24V11.084H122.62L122.704 11.948C122.956 11.36 123.52 10.964 124.312 10.964C124.516 10.964 124.72 10.988 124.96 11.048ZM126.683 9.884C126.179 9.884 125.783 9.488 125.783 8.996C125.783 8.504 126.179 8.12 126.683 8.12C127.163 8.12 127.559 8.504 127.559 8.996C127.559 9.488 127.163 9.884 126.683 9.884ZM125.951 17V11.072H127.415V17H125.951ZM130.944 17H129.48V12.296H128.34V11.072H129.48V9.224H130.944V11.072H132.096V12.296H130.944V17ZM135.599 17.156C133.835 17.156 132.599 15.872 132.599 14.036C132.599 12.176 133.811 10.892 135.551 10.892C137.327 10.892 138.455 12.08 138.455 13.928V14.372L133.991 14.384C134.099 15.428 134.651 15.956 135.623 15.956C136.427 15.956 136.955 15.644 137.123 15.08H138.479C138.227 16.376 137.147 17.156 135.599 17.156ZM135.563 12.092C134.699 12.092 134.171 12.56 134.027 13.448H137.003C137.003 12.632 136.439 12.092 135.563 12.092Z" fill="black"/>
</svg>
