<svg width="137" height="24" viewBox="0 0 137 24" fill="none" xmlns="http://www.w3.org/2000/svg">
<path d="M20 9.6C20 5.6 18.4 4 14.4 4H9.6C5.6 4 4 5.6 4 9.6V14.4C4 18.4 5.6 20 9.6 20" stroke="#1A1A1A" stroke-width="1.5" stroke-linecap="round" stroke-linejoin="round"/>
<path d="M16.35 8C15.8 7.3 14.88 7 13.5 7H10.5C8 7 7 8 7 10.5V13.5C7 14.88 7.3 15.8 7.99 16.35" stroke="#1A1A1A" stroke-width="1.5" stroke-linecap="round" stroke-linejoin="round"/>
<path d="M8.00977 4V2" stroke="#1A1A1A" stroke-width="1.5" stroke-linecap="round" stroke-linejoin="round"/>
<path d="M12 4V2" stroke="#1A1A1A" stroke-width="1.5" stroke-linecap="round" stroke-linejoin="round"/>
<path d="M16 4V2" stroke="#1A1A1A" stroke-width="1.5" stroke-linecap="round" stroke-linejoin="round"/>
<path d="M20 8H22" stroke="#1A1A1A" stroke-width="1.5" stroke-linecap="round" stroke-linejoin="round"/>
<path d="M8.00977 20V22" stroke="#1A1A1A" stroke-width="1.5" stroke-linecap="round" stroke-linejoin="round"/>
<path d="M2 8H4" stroke="#1A1A1A" stroke-width="1.5" stroke-linecap="round" stroke-linejoin="round"/>
<path d="M2 12H4" stroke="#1A1A1A" stroke-width="1.5" stroke-linecap="round" stroke-linejoin="round"/>
<path d="M2 16H4" stroke="#1A1A1A" stroke-width="1.5" stroke-linecap="round" stroke-linejoin="round"/>
<path d="M16.7091 18.59C17.5873 18.59 18.2991 17.8781 18.2991 17C18.2991 16.1219 17.5873 15.41 16.7091 15.41C15.831 15.41 15.1191 16.1219 15.1191 17C15.1191 17.8781 15.831 18.59 16.7091 18.59Z" stroke="#1A1A1A" stroke-width="1.5" stroke-miterlimit="10" stroke-linecap="round" stroke-linejoin="round"/>
<path d="M11.4102 17.46V16.53C11.4102 15.98 11.8602 15.53 12.4102 15.53C13.3702 15.53 13.7602 14.85 13.2802 14.02C13.0002 13.54 13.1702 12.92 13.6502 12.65L14.5602 12.12C14.9802 11.87 15.5202 12.02 15.7702 12.44L15.8302 12.54C16.3102 13.37 17.0902 13.37 17.5702 12.54L17.6302 12.44C17.8802 12.02 18.4202 11.88 18.8402 12.12L19.7502 12.65C20.2302 12.93 20.4002 13.54 20.1202 14.02C19.6402 14.85 20.0302 15.53 20.9902 15.53C21.5402 15.53 21.9902 15.98 21.9902 16.53V17.46C21.9902 18.01 21.5402 18.46 20.9902 18.46C20.0302 18.46 19.6402 19.14 20.1202 19.97C20.4002 20.45 20.2302 21.07 19.7502 21.34L18.8402 21.87C18.4202 22.12 17.8802 21.97 17.6302 21.55L17.5702 21.45C17.0902 20.62 16.3102 20.62 15.8302 21.45L15.7702 21.55C15.5202 21.97 14.9802 22.11 14.5602 21.87L13.6502 21.34C13.1702 21.06 13.0002 20.45 13.2802 19.97C13.7602 19.14 13.3702 18.46 12.4102 18.46C11.8602 18.47 11.4102 18.02 11.4102 17.46Z" stroke="#1A1A1A" stroke-width="1.5" stroke-miterlimit="10" stroke-linecap="round" stroke-linejoin="round"/>
<path d="M38.68 16.144C36.124 16.144 34.468 14.368 34.468 11.62C34.468 8.896 36.184 7.084 38.752 7.084C40.828 7.084 42.376 8.296 42.676 10.18H41.056C40.756 9.16 39.88 8.56 38.716 8.56C37.096 8.56 36.076 9.736 36.076 11.608C36.076 13.468 37.108 14.668 38.716 14.668C39.904 14.668 40.816 14.044 41.104 13.072H42.7C42.364 14.92 40.756 16.144 38.68 16.144ZM43.8615 18.748V10.072H45.2175L45.3135 10.972C45.6735 10.288 46.4535 9.892 47.3535 9.892C49.0215 9.892 50.1255 11.104 50.1255 12.964C50.1255 14.812 49.1175 16.156 47.3535 16.156C46.4655 16.156 45.6975 15.808 45.3255 15.208V18.748H43.8615ZM45.3375 13.036C45.3375 14.104 45.9975 14.836 47.0055 14.836C48.0375 14.836 48.6495 14.092 48.6495 13.036C48.6495 11.98 48.0375 11.224 47.0055 11.224C45.9975 11.224 45.3375 11.968 45.3375 13.036ZM55.1705 10.072H56.6345V16H55.2785L55.1705 15.208C54.8105 15.772 54.0425 16.156 53.2505 16.156C51.8825 16.156 51.0785 15.232 51.0785 13.78V10.072H52.5425V13.264C52.5425 14.392 52.9865 14.848 53.8025 14.848C54.7265 14.848 55.1705 14.308 55.1705 13.18V10.072ZM58.1346 13.444V12.148H61.9986V13.444H58.1346ZM62.9523 14.2H64.3443C64.3563 14.716 64.7403 15.04 65.4123 15.04C66.0963 15.04 66.4683 14.764 66.4683 14.332C66.4683 14.032 66.3123 13.816 65.7843 13.696L64.7163 13.444C63.6483 13.204 63.1323 12.7 63.1323 11.752C63.1323 10.588 64.1163 9.892 65.4843 9.892C66.8163 9.892 67.7163 10.66 67.7283 11.812H66.3363C66.3243 11.308 65.9883 10.984 65.4243 10.984C64.8483 10.984 64.5123 11.248 64.5123 11.692C64.5123 12.028 64.7763 12.244 65.2803 12.364L66.3483 12.616C67.3443 12.844 67.8483 13.3 67.8483 14.212C67.8483 15.412 66.8283 16.156 65.3643 16.156C63.8883 16.156 62.9523 15.364 62.9523 14.2ZM71.615 16.156C69.851 16.156 68.615 14.872 68.615 13.036C68.615 11.176 69.827 9.892 71.567 9.892C73.343 9.892 74.471 11.08 74.471 12.928V13.372L70.007 13.384C70.115 14.428 70.667 14.956 71.639 14.956C72.443 14.956 72.971 14.644 73.139 14.08H74.495C74.243 15.376 73.163 16.156 71.615 16.156ZM71.579 11.092C70.715 11.092 70.187 11.56 70.043 12.448H73.019C73.019 11.632 72.455 11.092 71.579 11.092ZM77.6001 16H76.1361V11.296H74.9961V10.072H76.1361V8.224H77.6001V10.072H78.7521V11.296H77.6001V16ZM81.8423 16H80.3783V11.296H79.2383V10.072H80.3783V8.224H81.8423V10.072H82.9943V11.296H81.8423V16ZM84.6364 8.884C84.1324 8.884 83.7364 8.488 83.7364 7.996C83.7364 7.504 84.1324 7.12 84.6364 7.12C85.1164 7.12 85.5124 7.504 85.5124 7.996C85.5124 8.488 85.1164 8.884 84.6364 8.884ZM83.9044 16V10.072H85.3684V16H83.9044ZM88.345 16H86.881V10.072H88.237L88.357 10.84C88.729 10.24 89.449 9.892 90.253 9.892C91.741 9.892 92.509 10.816 92.509 12.352V16H91.045V12.7C91.045 11.704 90.553 11.224 89.797 11.224C88.897 11.224 88.345 11.848 88.345 12.808V16ZM93.6114 12.904C93.6114 11.176 94.7394 9.88 96.4314 9.88C97.3194 9.88 98.0154 10.252 98.3634 10.888L98.4474 10.072H99.8034V15.7C99.8034 17.68 98.6154 18.916 96.6954 18.916C94.9914 18.916 93.8274 17.944 93.6474 16.36H95.1114C95.2074 17.128 95.7954 17.584 96.6954 17.584C97.7034 17.584 98.3514 16.948 98.3514 15.964V14.98C97.9794 15.532 97.2474 15.88 96.3954 15.88C94.7154 15.88 93.6114 14.62 93.6114 12.904ZM95.0874 12.868C95.0874 13.864 95.7234 14.608 96.6834 14.608C97.6914 14.608 98.3154 13.9 98.3154 12.868C98.3154 11.86 97.7034 11.164 96.6834 11.164C95.7114 11.164 95.0874 11.896 95.0874 12.868Z" fill="black"/>
</svg>
