<svg width="200" height="24" viewBox="0 0 200 24" fill="none" xmlns="http://www.w3.org/2000/svg">
<path d="M12 22C17.5 22 22 17.5 22 12C22 6.5 17.5 2 12 2C6.5 2 2 6.5 2 12C2 17.5 6.5 22 12 22Z" stroke="#1A1A1A" stroke-width="1.5" stroke-linecap="round" stroke-linejoin="round"/>
<path d="M9.16992 14.8299L14.8299 9.16992" stroke="#1A1A1A" stroke-width="1.5" stroke-linecap="round" stroke-linejoin="round"/>
<path d="M14.8299 14.8299L9.16992 9.16992" stroke="#1A1A1A" stroke-width="1.5" stroke-linecap="round" stroke-linejoin="round"/>
<path d="M38.68 17.144C36.124 17.144 34.468 15.368 34.468 12.62C34.468 9.896 36.184 8.084 38.752 8.084C40.828 8.084 42.376 9.296 42.676 11.18H41.056C40.756 10.16 39.88 9.56 38.716 9.56C37.096 9.56 36.076 10.736 36.076 12.608C36.076 14.468 37.108 15.668 38.716 15.668C39.904 15.668 40.816 15.044 41.104 14.072H42.7C42.364 15.92 40.756 17.144 38.68 17.144ZM45.2789 17H43.8269V8.072H45.2789V17ZM46.4666 14.024C46.4666 12.176 47.7986 10.904 49.6346 10.904C51.4706 10.904 52.8026 12.176 52.8026 14.024C52.8026 15.872 51.4706 17.144 49.6346 17.144C47.7986 17.144 46.4666 15.872 46.4666 14.024ZM47.9306 14.024C47.9306 15.104 48.6266 15.836 49.6346 15.836C50.6426 15.836 51.3386 15.104 51.3386 14.024C51.3386 12.944 50.6426 12.212 49.6346 12.212C48.6266 12.212 47.9306 12.944 47.9306 14.024ZM53.507 15.2H54.899C54.911 15.716 55.295 16.04 55.967 16.04C56.651 16.04 57.023 15.764 57.023 15.332C57.023 15.032 56.867 14.816 56.339 14.696L55.271 14.444C54.203 14.204 53.687 13.7 53.687 12.752C53.687 11.588 54.671 10.892 56.039 10.892C57.371 10.892 58.271 11.66 58.283 12.812H56.891C56.879 12.308 56.543 11.984 55.979 11.984C55.403 11.984 55.067 12.248 55.067 12.692C55.067 13.028 55.331 13.244 55.835 13.364L56.903 13.616C57.899 13.844 58.403 14.3 58.403 15.212C58.403 16.412 57.383 17.156 55.919 17.156C54.443 17.156 53.507 16.364 53.507 15.2ZM62.1697 17.156C60.4057 17.156 59.1697 15.872 59.1697 14.036C59.1697 12.176 60.3817 10.892 62.1217 10.892C63.8977 10.892 65.0257 12.08 65.0257 13.928V14.372L60.5617 14.384C60.6697 15.428 61.2217 15.956 62.1937 15.956C62.9977 15.956 63.5257 15.644 63.6937 15.08H65.0497C64.7977 16.376 63.7177 17.156 62.1697 17.156ZM62.1337 12.092C61.2697 12.092 60.7417 12.56 60.5977 13.448H63.5737C63.5737 12.632 63.0097 12.092 62.1337 12.092ZM66.1854 14.444V13.148H70.0494V14.444H66.1854ZM71.1932 14.024C71.1932 12.188 72.4052 10.892 74.1572 10.892C75.7772 10.892 76.8812 11.792 77.0372 13.22H75.5732C75.4052 12.548 74.9132 12.2 74.2172 12.2C73.2812 12.2 72.6572 12.908 72.6572 14.024C72.6572 15.14 73.2332 15.836 74.1692 15.836C74.9012 15.836 75.4172 15.476 75.5732 14.828H77.0492C76.8692 16.208 75.7172 17.156 74.1692 17.156C72.3692 17.156 71.1932 15.908 71.1932 14.024ZM78.8708 9.884C78.3668 9.884 77.9708 9.488 77.9708 8.996C77.9708 8.504 78.3668 8.12 78.8708 8.12C79.3508 8.12 79.7468 8.504 79.7468 8.996C79.7468 9.488 79.3508 9.884 78.8708 9.884ZM78.1388 17V11.072H79.6028V17H78.1388ZM84.8354 11.048V12.404H84.2954C83.2394 12.404 82.5794 12.968 82.5794 14.12V17H81.1154V11.084H82.4954L82.5794 11.948C82.8314 11.36 83.3954 10.964 84.1874 10.964C84.3914 10.964 84.5954 10.988 84.8354 11.048ZM85.2791 14.024C85.2791 12.188 86.4911 10.892 88.2431 10.892C89.8631 10.892 90.9671 11.792 91.1231 13.22H89.6591C89.4911 12.548 88.9991 12.2 88.3031 12.2C87.3671 12.2 86.7431 12.908 86.7431 14.024C86.7431 15.14 87.3191 15.836 88.2551 15.836C88.9871 15.836 89.5031 15.476 89.6591 14.828H91.1351C90.9551 16.208 89.8031 17.156 88.2551 17.156C86.4551 17.156 85.2791 15.908 85.2791 14.024ZM93.7008 17H92.2488V8.072H93.7008V17ZM97.8885 17.156C96.1245 17.156 94.8885 15.872 94.8885 14.036C94.8885 12.176 96.1005 10.892 97.8405 10.892C99.6165 10.892 100.744 12.08 100.744 13.928V14.372L96.2805 14.384C96.3885 15.428 96.9405 15.956 97.9125 15.956C98.7165 15.956 99.2445 15.644 99.4125 15.08H100.768C100.516 16.376 99.4365 17.156 97.8885 17.156ZM97.8525 12.092C96.9885 12.092 96.4605 12.56 96.3165 13.448H99.2925C99.2925 12.632 98.7285 12.092 97.8525 12.092Z" fill="black"/>
</svg>
