<svg width="200" height="24" viewBox="0 0 200 24" fill="none" xmlns="http://www.w3.org/2000/svg">
<path d="M12 22C17.5 22 22 17.5 22 12C22 6.5 17.5 2 12 2C6.5 2 2 6.5 2 12C2 17.5 6.5 22 12 22Z" stroke="#1A1A1A" stroke-width="1.5" stroke-linecap="round" stroke-linejoin="round"/>
<path d="M15.9965 12H16.0054" stroke="#1A1A1A" stroke-width="1.5" stroke-linecap="round" stroke-linejoin="round"/>
<path d="M11.9955 12H12.0045" stroke="#1A1A1A" stroke-width="1.5" stroke-linecap="round" stroke-linejoin="round"/>
<path d="M7.99451 12H8.00349" stroke="#1A1A1A" stroke-width="1.5" stroke-linecap="round" stroke-linejoin="round"/>
<path d="M36.46 16H34.972V7.228H36.46L39.292 14.212L42.124 7.228H43.636V16H42.148V13.3C42.148 11.536 42.148 11.02 42.232 10.396L40 16H38.584L36.364 10.408C36.448 10.936 36.46 11.764 36.46 12.856V16ZM45.0135 13.024C45.0135 11.176 46.3455 9.904 48.1815 9.904C50.0175 9.904 51.3495 11.176 51.3495 13.024C51.3495 14.872 50.0175 16.144 48.1815 16.144C46.3455 16.144 45.0135 14.872 45.0135 13.024ZM46.4775 13.024C46.4775 14.104 47.1735 14.836 48.1815 14.836C49.1895 14.836 49.8855 14.104 49.8855 13.024C49.8855 11.944 49.1895 11.212 48.1815 11.212C47.1735 11.212 46.4775 11.944 46.4775 13.024ZM56.2299 10.048V11.404H55.6899C54.6339 11.404 53.9739 11.968 53.9739 13.12V16H52.5099V10.084H53.8899L53.9739 10.948C54.2259 10.36 54.7899 9.964 55.5819 9.964C55.7859 9.964 55.9899 9.988 56.2299 10.048ZM59.6736 16.156C57.9096 16.156 56.6736 14.872 56.6736 13.036C56.6736 11.176 57.8856 9.892 59.6256 9.892C61.4016 9.892 62.5296 11.08 62.5296 12.928V13.372L58.0656 13.384C58.1736 14.428 58.7256 14.956 59.6976 14.956C60.5016 14.956 61.0296 14.644 61.1976 14.08H62.5536C62.3016 15.376 61.2216 16.156 59.6736 16.156ZM59.6376 11.092C58.7736 11.092 58.2456 11.56 58.1016 12.448H61.0776C61.0776 11.632 60.5136 11.092 59.6376 11.092ZM63.6893 13.444V12.148H67.5533V13.444H63.6893ZM68.6971 13.024C68.6971 11.188 69.9091 9.892 71.6611 9.892C73.2811 9.892 74.3851 10.792 74.5411 12.22H73.0771C72.9091 11.548 72.4171 11.2 71.7211 11.2C70.7851 11.2 70.1611 11.908 70.1611 13.024C70.1611 14.14 70.7371 14.836 71.6731 14.836C72.4051 14.836 72.9211 14.476 73.0771 13.828H74.5531C74.3731 15.208 73.2211 16.156 71.6731 16.156C69.8731 16.156 68.6971 14.908 68.6971 13.024ZM76.3747 8.884C75.8707 8.884 75.4747 8.488 75.4747 7.996C75.4747 7.504 75.8707 7.12 76.3747 7.12C76.8547 7.12 77.2507 7.504 77.2507 7.996C77.2507 8.488 76.8547 8.884 76.3747 8.884ZM75.6427 16V10.072H77.1067V16H75.6427ZM82.3393 10.048V11.404H81.7993C80.7433 11.404 80.0833 11.968 80.0833 13.12V16H78.6193V10.084H79.9993L80.0833 10.948C80.3353 10.36 80.8993 9.964 81.6913 9.964C81.8953 9.964 82.0993 9.988 82.3393 10.048ZM82.783 13.024C82.783 11.188 83.995 9.892 85.747 9.892C87.367 9.892 88.471 10.792 88.627 12.22H87.163C86.995 11.548 86.503 11.2 85.807 11.2C84.871 11.2 84.247 11.908 84.247 13.024C84.247 14.14 84.823 14.836 85.759 14.836C86.491 14.836 87.007 14.476 87.163 13.828H88.639C88.459 15.208 87.307 16.156 85.759 16.156C83.959 16.156 82.783 14.908 82.783 13.024ZM91.2047 16H89.7527V7.072H91.2047V16ZM95.3924 16.156C93.6284 16.156 92.3924 14.872 92.3924 13.036C92.3924 11.176 93.6044 9.892 95.3444 9.892C97.1204 9.892 98.2484 11.08 98.2484 12.928V13.372L93.7844 13.384C93.8924 14.428 94.4444 14.956 95.4164 14.956C96.2204 14.956 96.7484 14.644 96.9164 14.08H98.2724C98.0204 15.376 96.9404 16.156 95.3924 16.156ZM95.3564 11.092C94.4924 11.092 93.9644 11.56 93.8204 12.448H96.7964C96.7964 11.632 96.2324 11.092 95.3564 11.092Z" fill="black"/>
</svg>
