<svg width="101" height="24" viewBox="0 0 101 24" fill="none" xmlns="http://www.w3.org/2000/svg">
<path d="M15.5799 11.9999C15.5799 13.9799 13.9799 15.5799 11.9999 15.5799C10.0199 15.5799 8.41992 13.9799 8.41992 11.9999C8.41992 10.0199 10.0199 8.41992 11.9999 8.41992C13.9799 8.41992 15.5799 10.0199 15.5799 11.9999Z" stroke="#1A1A1A" stroke-width="1.5" stroke-linecap="round" stroke-linejoin="round"/>
<path d="M11.9998 20.2697C15.5298 20.2697 18.8198 18.1897 21.1098 14.5897C22.0098 13.1797 22.0098 10.8097 21.1098 9.39973C18.8198 5.79973 15.5298 3.71973 11.9998 3.71973C8.46984 3.71973 5.17984 5.79973 2.88984 9.39973C1.98984 10.8097 1.98984 13.1797 2.88984 14.5897C5.17984 18.1897 8.46984 20.2697 11.9998 20.2697Z" stroke="#1A1A1A" stroke-width="1.5" stroke-linecap="round" stroke-linejoin="round"/>
<path d="M40.42 16H34.972V7.228H40.42V8.644H36.508V10.9H40.012V12.256H36.508V14.584H40.42V16ZM41.1892 18.748V17.524H42.0652C42.6412 17.524 43.0012 17.392 43.2532 16.696L43.4212 16.252L41.0332 10.072H42.5812L44.1052 14.392L45.7132 10.072H47.2252L44.3212 17.32C43.8772 18.424 43.2532 18.88 42.2812 18.88C41.8732 18.88 41.5132 18.832 41.1892 18.748ZM50.4393 16.156C48.6753 16.156 47.4393 14.872 47.4393 13.036C47.4393 11.176 48.6513 9.892 50.3913 9.892C52.1673 9.892 53.2953 11.08 53.2953 12.928V13.372L48.8313 13.384C48.9393 14.428 49.4913 14.956 50.4633 14.956C51.2673 14.956 51.7953 14.644 51.9633 14.08H53.3193C53.0673 15.376 51.9873 16.156 50.4393 16.156ZM50.4033 11.092C49.5393 11.092 49.0113 11.56 48.8673 12.448H51.8433C51.8433 11.632 51.2793 11.092 50.4033 11.092Z" fill="black"/>
</svg>
