<svg width="119" height="24" viewBox="0 0 119 24" fill="none" xmlns="http://www.w3.org/2000/svg">
<g clip-path="url(#clip0_4037_25971)">
<path d="M21.8095 3.94012C20.2695 7.78012 16.4095 13.0001 13.1795 15.5901L11.2095 17.1701C10.9595 17.3501 10.7095 17.5101 10.4295 17.6201C10.4295 17.4401 10.4195 17.2401 10.3895 17.0501C10.2795 16.2101 9.89953 15.4301 9.22953 14.7601C8.54953 14.0801 7.71953 13.6801 6.86953 13.5701C6.66953 13.5601 6.46953 13.5401 6.26953 13.5601C6.37953 13.2501 6.54953 12.9601 6.75953 12.7201L8.31953 10.7501C10.8995 7.52012 16.1395 3.64012 19.9695 2.11012C20.5595 1.89012 21.1295 2.05012 21.4895 2.42012C21.8695 2.79012 22.0495 3.36012 21.8095 3.94012Z" stroke="#1A1A1A" stroke-width="1.5" stroke-linecap="round" stroke-linejoin="round"/>
<path d="M10.4293 17.6201C10.4293 18.7201 10.0093 19.77 9.2193 20.57C8.6093 21.18 7.7793 21.6001 6.7893 21.7301L4.3293 22.0001C2.9893 22.1501 1.8393 21.01 1.9993 19.65L2.2693 17.1901C2.5093 15.0001 4.3393 13.6001 6.2793 13.5601C6.4793 13.5501 6.6893 13.56 6.8793 13.57C7.7293 13.68 8.5593 14.0701 9.2393 14.7601C9.9093 15.4301 10.2893 16.21 10.3993 17.05C10.4093 17.24 10.4293 17.4301 10.4293 17.6201Z" stroke="#1A1A1A" stroke-width="1.5" stroke-linecap="round" stroke-linejoin="round"/>
<path d="M14.2398 14.47C14.2398 11.86 12.1198 9.74 9.50977 9.74" stroke="#1A1A1A" stroke-width="1.5" stroke-linecap="round" stroke-linejoin="round"/>
<path d="M20.1188 12.73L20.8588 13.46C22.3488 14.95 22.3488 16.42 20.8588 17.91L17.8987 20.87C16.4287 22.34 14.9388 22.34 13.4688 20.87" stroke="#1A1A1A" stroke-width="1.5" stroke-linecap="round"/>
<path d="M3.11031 10.5101C1.64031 9.02006 1.64031 7.55006 3.11031 6.06006L6.07031 3.10006C7.54031 1.63006 9.03031 1.63006 10.5003 3.10006L11.2403 3.84006" stroke="#1A1A1A" stroke-width="1.5" stroke-linecap="round"/>
<path d="M11.2508 3.85L7.55078 7.55" stroke="#1A1A1A" stroke-width="1.5" stroke-linecap="round"/>
<path d="M20.1202 12.73L17.1602 15.68" stroke="#1A1A1A" stroke-width="1.5" stroke-linecap="round"/>
</g>
<path d="M38.128 16H34.972V7.228H38.044C40.636 7.228 42.424 9.016 42.424 11.632C42.424 14.212 40.672 16 38.128 16ZM37.9 8.644H36.508V14.584H37.984C39.736 14.584 40.804 13.456 40.804 11.632C40.804 9.772 39.712 8.644 37.9 8.644ZM46.2908 16.156C44.5268 16.156 43.2908 14.872 43.2908 13.036C43.2908 11.176 44.5028 9.892 46.2428 9.892C48.0188 9.892 49.1468 11.08 49.1468 12.928V13.372L44.6828 13.384C44.7908 14.428 45.3428 14.956 46.3148 14.956C47.1188 14.956 47.6468 14.644 47.8148 14.08H49.1708C48.9188 15.376 47.8388 16.156 46.2908 16.156ZM46.2548 11.092C45.3908 11.092 44.8628 11.56 44.7188 12.448H47.6948C47.6948 11.632 47.1308 11.092 46.2548 11.092ZM49.8625 14.2H51.2545C51.2665 14.716 51.6505 15.04 52.3225 15.04C53.0065 15.04 53.3785 14.764 53.3785 14.332C53.3785 14.032 53.2225 13.816 52.6945 13.696L51.6265 13.444C50.5585 13.204 50.0425 12.7 50.0425 11.752C50.0425 10.588 51.0265 9.892 52.3945 9.892C53.7265 9.892 54.6265 10.66 54.6385 11.812H53.2465C53.2345 11.308 52.8985 10.984 52.3345 10.984C51.7585 10.984 51.4225 11.248 51.4225 11.692C51.4225 12.028 51.6865 12.244 52.1905 12.364L53.2585 12.616C54.2545 12.844 54.7585 13.3 54.7585 14.212C54.7585 15.412 53.7385 16.156 52.2745 16.156C50.7985 16.156 49.8625 15.364 49.8625 14.2ZM56.6052 8.884C56.1012 8.884 55.7052 8.488 55.7052 7.996C55.7052 7.504 56.1012 7.12 56.6052 7.12C57.0852 7.12 57.4812 7.504 57.4812 7.996C57.4812 8.488 57.0852 8.884 56.6052 8.884ZM55.8732 16V10.072H57.3372V16H55.8732ZM58.5138 12.904C58.5138 11.176 59.6418 9.88 61.3338 9.88C62.2218 9.88 62.9178 10.252 63.2658 10.888L63.3498 10.072H64.7057V15.7C64.7057 17.68 63.5178 18.916 61.5978 18.916C59.8938 18.916 58.7298 17.944 58.5498 16.36H60.0138C60.1098 17.128 60.6978 17.584 61.5978 17.584C62.6058 17.584 63.2538 16.948 63.2538 15.964V14.98C62.8818 15.532 62.1498 15.88 61.2978 15.88C59.6178 15.88 58.5138 14.62 58.5138 12.904ZM59.9898 12.868C59.9898 13.864 60.6258 14.608 61.5858 14.608C62.5938 14.608 63.2178 13.9 63.2178 12.868C63.2178 11.86 62.6058 11.164 61.5858 11.164C60.6138 11.164 59.9898 11.896 59.9898 12.868ZM67.6848 16H66.2208V10.072H67.5768L67.6968 10.84C68.0688 10.24 68.7888 9.892 69.5928 9.892C71.0808 9.892 71.8488 10.816 71.8488 12.352V16H70.3848V12.7C70.3848 11.704 69.8928 11.224 69.1368 11.224C68.2368 11.224 67.6848 11.848 67.6848 12.808V16ZM75.3033 16H73.8393V11.296H72.6993V10.072H73.8393V8.224H75.3033V10.072H76.4553V11.296H75.3033V16ZM76.9588 13.024C76.9588 11.176 78.2908 9.904 80.1268 9.904C81.9628 9.904 83.2948 11.176 83.2948 13.024C83.2948 14.872 81.9628 16.144 80.1268 16.144C78.2908 16.144 76.9588 14.872 76.9588 13.024ZM78.4228 13.024C78.4228 14.104 79.1188 14.836 80.1268 14.836C81.1348 14.836 81.8308 14.104 81.8308 13.024C81.8308 11.944 81.1348 11.212 80.1268 11.212C79.1188 11.212 78.4228 11.944 78.4228 13.024ZM84.1072 13.024C84.1072 11.176 85.4392 9.904 87.2752 9.904C89.1112 9.904 90.4432 11.176 90.4432 13.024C90.4432 14.872 89.1112 16.144 87.2752 16.144C85.4392 16.144 84.1072 14.872 84.1072 13.024ZM85.5712 13.024C85.5712 14.104 86.2672 14.836 87.2752 14.836C88.2832 14.836 88.9792 14.104 88.9792 13.024C88.9792 11.944 88.2832 11.212 87.2752 11.212C86.2672 11.212 85.5712 11.944 85.5712 13.024ZM93.0797 16H91.6277V7.072H93.0797V16ZM94.1594 14.2H95.5514C95.5634 14.716 95.9474 15.04 96.6194 15.04C97.3034 15.04 97.6754 14.764 97.6754 14.332C97.6754 14.032 97.5194 13.816 96.9914 13.696L95.9234 13.444C94.8554 13.204 94.3394 12.7 94.3394 11.752C94.3394 10.588 95.3234 9.892 96.6914 9.892C98.0234 9.892 98.9234 10.66 98.9354 11.812H97.5434C97.5314 11.308 97.1954 10.984 96.6314 10.984C96.0554 10.984 95.7194 11.248 95.7194 11.692C95.7194 12.028 95.9834 12.244 96.4874 12.364L97.5554 12.616C98.5514 12.844 99.0554 13.3 99.0554 14.212C99.0554 15.412 98.0354 16.156 96.5714 16.156C95.0954 16.156 94.1594 15.364 94.1594 14.2Z" fill="black"/>
<defs>
<clipPath id="clip0_4037_25971">
<rect width="24" height="24" fill="white"/>
</clipPath>
</defs>
</svg>
