<svg width="113" height="24" viewBox="0 0 113 24" fill="none" xmlns="http://www.w3.org/2000/svg">
<path d="M22 7.42999V13.43C22 14.93 21.5 16.18 20.62 17.06C19.75 17.93 18.5 18.43 17 18.43V20.56C17 21.36 16.11 21.84 15.45 21.4L11 18.43H8.88C8.96 18.13 9 17.82 9 17.5C9 16.48 8.61 15.54 7.97 14.83C7.25 14.01 6.18 13.5 5 13.5C3.88 13.5 2.86 13.96 2.13 14.71C2.04 14.31 2 13.88 2 13.43V7.42999C2 4.42999 4 2.42999 7 2.42999H17C20 2.42999 22 4.42999 22 7.42999Z" stroke="#1A1A1A" stroke-width="1.5" stroke-miterlimit="10" stroke-linecap="round" stroke-linejoin="round"/>
<path d="M9 17.5C9 18.7 8.47001 19.77 7.64001 20.5C6.93001 21.12 6.01 21.5 5 21.5C2.79 21.5 1 19.71 1 17.5C1 16.24 1.58 15.11 2.5 14.38C3.19 13.83 4.06 13.5 5 13.5C7.21 13.5 9 15.29 9 17.5Z" stroke="#1A1A1A" stroke-width="1.5" stroke-miterlimit="10" stroke-linecap="round" stroke-linejoin="round"/>
<path d="M5.25 16.25V17.75L4 18.5" stroke="#1A1A1A" stroke-width="1.5" stroke-miterlimit="10" stroke-linecap="round" stroke-linejoin="round"/>
<path d="M8.5 10.5H15.5" stroke="#1A1A1A" stroke-width="1.5" stroke-miterlimit="10" stroke-linecap="round" stroke-linejoin="round"/>
<path d="M36.46 17H34.972V8.228H36.46L39.292 15.212L42.124 8.228H43.636V17H42.148V14.3C42.148 12.536 42.148 12.02 42.232 11.396L40 17H38.584L36.364 11.408C36.448 11.936 36.46 12.764 36.46 13.856V17ZM48.0135 17.156C46.2495 17.156 45.0135 15.872 45.0135 14.036C45.0135 12.176 46.2255 10.892 47.9655 10.892C49.7415 10.892 50.8695 12.08 50.8695 13.928V14.372L46.4055 14.384C46.5135 15.428 47.0655 15.956 48.0375 15.956C48.8415 15.956 49.3695 15.644 49.5375 15.08H50.8935C50.6415 16.376 49.5615 17.156 48.0135 17.156ZM47.9775 12.092C47.1135 12.092 46.5855 12.56 46.4415 13.448H49.4175C49.4175 12.632 48.8535 12.092 47.9775 12.092ZM51.5852 15.2H52.9772C52.9892 15.716 53.3732 16.04 54.0452 16.04C54.7292 16.04 55.1012 15.764 55.1012 15.332C55.1012 15.032 54.9452 14.816 54.4172 14.696L53.3492 14.444C52.2812 14.204 51.7652 13.7 51.7652 12.752C51.7652 11.588 52.7492 10.892 54.1172 10.892C55.4492 10.892 56.3492 11.66 56.3612 12.812H54.9692C54.9572 12.308 54.6212 11.984 54.0572 11.984C53.4812 11.984 53.1452 12.248 53.1452 12.692C53.1452 13.028 53.4092 13.244 53.9132 13.364L54.9812 13.616C55.9772 13.844 56.4812 14.3 56.4812 15.212C56.4812 16.412 55.4612 17.156 53.9972 17.156C52.5212 17.156 51.5852 16.364 51.5852 15.2ZM57.1398 15.2H58.5318C58.5438 15.716 58.9278 16.04 59.5998 16.04C60.2838 16.04 60.6558 15.764 60.6558 15.332C60.6558 15.032 60.4998 14.816 59.9718 14.696L58.9038 14.444C57.8358 14.204 57.3198 13.7 57.3198 12.752C57.3198 11.588 58.3038 10.892 59.6718 10.892C61.0038 10.892 61.9038 11.66 61.9158 12.812H60.5238C60.5118 12.308 60.1758 11.984 59.6118 11.984C59.0358 11.984 58.6998 12.248 58.6998 12.692C58.6998 13.028 58.9638 13.244 59.4678 13.364L60.5358 13.616C61.5318 13.844 62.0358 14.3 62.0358 15.212C62.0358 16.412 61.0158 17.156 59.5518 17.156C58.0758 17.156 57.1398 16.364 57.1398 15.2ZM64.9145 17.156C63.6545 17.156 62.8865 16.424 62.8865 15.308C62.8865 14.216 63.6785 13.532 65.0825 13.424L66.8585 13.292V13.16C66.8585 12.356 66.3785 12.032 65.6345 12.032C64.7705 12.032 64.2905 12.392 64.2905 13.016H63.0425C63.0425 11.732 64.0985 10.892 65.7065 10.892C67.3025 10.892 68.2865 11.756 68.2865 13.4V17H67.0025L66.8945 16.124C66.6425 16.736 65.8385 17.156 64.9145 17.156ZM65.3945 16.052C66.2945 16.052 66.8705 15.512 66.8705 14.6V14.288L65.6345 14.384C64.7225 14.468 64.3745 14.768 64.3745 15.248C64.3745 15.788 64.7345 16.052 65.3945 16.052ZM69.3888 13.904C69.3888 12.176 70.5168 10.88 72.2088 10.88C73.0968 10.88 73.7928 11.252 74.1408 11.888L74.2248 11.072H75.5807V16.7C75.5807 18.68 74.3928 19.916 72.4728 19.916C70.7688 19.916 69.6048 18.944 69.4248 17.36H70.8888C70.9848 18.128 71.5728 18.584 72.4728 18.584C73.4808 18.584 74.1288 17.948 74.1288 16.964V15.98C73.7568 16.532 73.0248 16.88 72.1728 16.88C70.4928 16.88 69.3888 15.62 69.3888 13.904ZM70.8648 13.868C70.8648 14.864 71.5008 15.608 72.4608 15.608C73.4688 15.608 74.0928 14.9 74.0928 13.868C74.0928 12.86 73.4808 12.164 72.4608 12.164C71.4888 12.164 70.8648 12.896 70.8648 13.868ZM79.7478 17.156C77.9838 17.156 76.7478 15.872 76.7478 14.036C76.7478 12.176 77.9598 10.892 79.6998 10.892C81.4758 10.892 82.6038 12.08 82.6038 13.928V14.372L78.1398 14.384C78.2478 15.428 78.7998 15.956 79.7718 15.956C80.5758 15.956 81.1038 15.644 81.2718 15.08H82.6278C82.3758 16.376 81.2958 17.156 79.7478 17.156ZM79.7118 12.092C78.8478 12.092 78.3198 12.56 78.1758 13.448H81.1518C81.1518 12.632 80.5878 12.092 79.7118 12.092ZM83.7635 14.444V13.148H87.6275V14.444H83.7635ZM90.9009 17H89.4369V12.296H88.2969V11.072H89.4369V9.224H90.9009V11.072H92.0529V12.296H90.9009V17ZM93.695 9.884C93.191 9.884 92.795 9.488 92.795 8.996C92.795 8.504 93.191 8.12 93.695 8.12C94.175 8.12 94.571 8.504 94.571 8.996C94.571 9.488 94.175 9.884 93.695 9.884ZM92.963 17V11.072H94.427V17H92.963ZM97.4036 17H95.9396V11.072H97.2836L97.4036 11.768C97.7036 11.276 98.3036 10.892 99.1556 10.892C100.056 10.892 100.68 11.336 100.992 12.02C101.292 11.336 101.988 10.892 102.888 10.892C104.328 10.892 105.12 11.756 105.12 13.124V17H103.668V13.508C103.668 12.656 103.212 12.212 102.516 12.212C101.808 12.212 101.268 12.668 101.268 13.64V17H99.8036V13.496C99.8036 12.668 99.3596 12.224 98.6636 12.224C97.9676 12.224 97.4036 12.68 97.4036 13.64V17ZM109.209 17.156C107.445 17.156 106.209 15.872 106.209 14.036C106.209 12.176 107.421 10.892 109.161 10.892C110.937 10.892 112.065 12.08 112.065 13.928V14.372L107.601 14.384C107.709 15.428 108.261 15.956 109.233 15.956C110.037 15.956 110.565 15.644 110.733 15.08H112.089C111.837 16.376 110.757 17.156 109.209 17.156ZM109.173 12.092C108.309 12.092 107.781 12.56 107.637 13.448H110.613C110.613 12.632 110.049 12.092 109.173 12.092Z" fill="black"/>
</svg>
