<svg width="101" height="24" viewBox="0 0 101 24" fill="none" xmlns="http://www.w3.org/2000/svg">
<path d="M7.27004 13.0098C6.74004 12.7398 6.15004 12.5998 5.55004 12.5998C0.870039 12.9298 0.870039 19.7398 5.55004 20.0698H16.64C17.99 20.0798 19.29 19.5798 20.28 18.6698C23.57 15.7998 21.81 10.0298 17.48 9.47976C15.92 0.109757 2.39004 3.66976 5.60004 12.5998" stroke="#1A1A1A" stroke-width="1.5" stroke-miterlimit="10" stroke-linecap="round" stroke-linejoin="round"/>
<path d="M15.8496 9.91977C16.3696 9.65977 16.9396 9.51977 17.5196 9.50977" stroke="#1A1A1A" stroke-width="1.5" stroke-miterlimit="10" stroke-linecap="round" stroke-linejoin="round"/>
<path d="M38.68 16.144C36.124 16.144 34.468 14.368 34.468 11.62C34.468 8.896 36.184 7.084 38.752 7.084C40.828 7.084 42.376 8.296 42.676 10.18H41.056C40.756 9.16 39.88 8.56 38.716 8.56C37.096 8.56 36.076 9.736 36.076 11.608C36.076 13.468 37.108 14.668 38.716 14.668C39.904 14.668 40.816 14.044 41.104 13.072H42.7C42.364 14.92 40.756 16.144 38.68 16.144ZM45.2789 16H43.8269V7.072H45.2789V16ZM46.4666 13.024C46.4666 11.176 47.7986 9.904 49.6346 9.904C51.4706 9.904 52.8026 11.176 52.8026 13.024C52.8026 14.872 51.4706 16.144 49.6346 16.144C47.7986 16.144 46.4666 14.872 46.4666 13.024ZM47.9306 13.024C47.9306 14.104 48.6266 14.836 49.6346 14.836C50.6426 14.836 51.3386 14.104 51.3386 13.024C51.3386 11.944 50.6426 11.212 49.6346 11.212C48.6266 11.212 47.9306 11.944 47.9306 13.024ZM57.8424 10.072H59.3064V16H57.9504L57.8424 15.208C57.4824 15.772 56.7144 16.156 55.9224 16.156C54.5544 16.156 53.7504 15.232 53.7504 13.78V10.072H55.2144V13.264C55.2144 14.392 55.6584 14.848 56.4744 14.848C57.3984 14.848 57.8424 14.308 57.8424 13.18V10.072ZM63.1373 16.156C61.4213 16.156 60.3533 14.896 60.3533 13.06C60.3533 11.212 61.4333 9.892 63.2213 9.892C64.0493 9.892 64.7813 10.24 65.1533 10.828V7.072H66.6053V16H65.2613L65.1653 15.076C64.8053 15.76 64.0373 16.156 63.1373 16.156ZM63.4613 14.812C64.4813 14.812 65.1413 14.08 65.1413 13.012C65.1413 11.944 64.4813 11.2 63.4613 11.2C62.4413 11.2 61.8173 11.956 61.8173 13.012C61.8173 14.068 62.4413 14.812 63.4613 14.812Z" fill="black"/>
</svg>
