<svg width="129" height="24" viewBox="0 0 129 24" fill="none" xmlns="http://www.w3.org/2000/svg">
<path d="M11.74 17.7499H17.66C17.57 17.8299 17.48 17.8999 17.39 17.9799L13.12 21.1799C11.71 22.2299 9.41001 22.2299 7.99001 21.1799L3.71001 17.9799C2.77001 17.2799 2 15.7299 2 14.5599V7.14986C2 5.92986 2.93001 4.57986 4.07001 4.14986L9.05 2.27986C9.87 1.96986 11.23 1.96986 12.05 2.27986L17.02 4.14986C17.97 4.50986 18.78 5.50986 19.03 6.52986H11.73C11.51 6.52986 11.31 6.53987 11.12 6.53987C9.27 6.64987 8.78999 7.31986 8.78999 9.42986V14.8598C8.79999 17.1598 9.39001 17.7499 11.74 17.7499Z" stroke="#1A1A1A" stroke-width="1.5" stroke-linecap="round" stroke-linejoin="round"/>
<path d="M8.80078 11.22H22.0008" stroke="#1A1A1A" stroke-width="1.5" stroke-miterlimit="10" stroke-linecap="round" stroke-linejoin="round"/>
<path d="M22.0008 9.41977V14.9698C21.9808 17.1898 21.3708 17.7397 19.0608 17.7397H11.7408C9.39078 17.7397 8.80078 17.1498 8.80078 14.8398V9.40976C8.80078 7.30976 9.28078 6.63974 11.1308 6.51974C11.3208 6.51974 11.5208 6.50977 11.7408 6.50977H19.0608C21.4108 6.51977 22.0008 7.09977 22.0008 9.41977Z" stroke="#1A1A1A" stroke-width="1.5" stroke-linecap="round" stroke-linejoin="round"/>
<path d="M11.3203 15.2598H12.6503" stroke="#1A1A1A" stroke-width="1.5" stroke-miterlimit="10" stroke-linecap="round" stroke-linejoin="round"/>
<path d="M14.75 15.2598H18.02" stroke="#1A1A1A" stroke-width="1.5" stroke-miterlimit="10" stroke-linecap="round" stroke-linejoin="round"/>
<path d="M34.468 10.676C34.468 9.14 35.74 8.072 37.588 8.072C39.364 8.072 40.492 9.056 40.54 10.64H39.004C38.968 9.884 38.428 9.44 37.564 9.44C36.616 9.44 36.004 9.896 36.004 10.628C36.004 11.252 36.34 11.6 37.072 11.768L38.452 12.068C39.952 12.392 40.684 13.16 40.684 14.468C40.684 16.1 39.412 17.156 37.48 17.156C35.608 17.156 34.384 16.16 34.348 14.588H35.884C35.896 15.332 36.496 15.776 37.48 15.776C38.5 15.776 39.148 15.332 39.148 14.6C39.148 14.012 38.848 13.664 38.128 13.508L36.736 13.196C35.248 12.872 34.468 12.02 34.468 10.676ZM44.5096 17.156C42.7456 17.156 41.5096 15.872 41.5096 14.036C41.5096 12.176 42.7216 10.892 44.4616 10.892C46.2376 10.892 47.3656 12.08 47.3656 13.928V14.372L42.9016 14.384C43.0096 15.428 43.5616 15.956 44.5336 15.956C45.3376 15.956 45.8656 15.644 46.0336 15.08H47.3896C47.1376 16.376 46.0576 17.156 44.5096 17.156ZM44.4736 12.092C43.6096 12.092 43.0816 12.56 42.9376 13.448H45.9136C45.9136 12.632 45.3496 12.092 44.4736 12.092ZM48.1893 14.024C48.1893 12.188 49.4013 10.892 51.1533 10.892C52.7733 10.892 53.8773 11.792 54.0333 13.22H52.5693C52.4013 12.548 51.9093 12.2 51.2133 12.2C50.2773 12.2 49.6533 12.908 49.6533 14.024C49.6533 15.14 50.2293 15.836 51.1653 15.836C51.8973 15.836 52.4133 15.476 52.5693 14.828H54.0453C53.8653 16.208 52.7133 17.156 51.1653 17.156C49.3652 17.156 48.1893 15.908 48.1893 14.024ZM59.1549 11.072H60.6189V17H59.2629L59.1549 16.208C58.7949 16.772 58.0269 17.156 57.2349 17.156C55.8669 17.156 55.0629 16.232 55.0629 14.78V11.072H56.5269V14.264C56.5269 15.392 56.9709 15.848 57.7869 15.848C58.7109 15.848 59.1549 15.308 59.1549 14.18V11.072ZM65.851 11.048V12.404H65.311C64.255 12.404 63.595 12.968 63.595 14.12V17H62.131V11.084H63.511L63.595 11.948C63.847 11.36 64.411 10.964 65.203 10.964C65.407 10.964 65.611 10.988 65.851 11.048ZM67.5739 9.884C67.0699 9.884 66.6739 9.488 66.6739 8.996C66.6739 8.504 67.0699 8.12 67.5739 8.12C68.0539 8.12 68.4499 8.504 68.4499 8.996C68.4499 9.488 68.0539 9.884 67.5739 9.884ZM66.8419 17V11.072H68.3059V17H66.8419ZM71.8345 17H70.3705V12.296H69.2305V11.072H70.3705V9.224H71.8345V11.072H72.9865V12.296H71.8345V17ZM73.3806 19.748V18.524H74.2566C74.8326 18.524 75.1926 18.392 75.4446 17.696L75.6126 17.252L73.2246 11.072H74.7726L76.2966 15.392L77.9046 11.072H79.4166L76.5126 18.32C76.0686 19.424 75.4446 19.88 74.4726 19.88C74.0646 19.88 73.7046 19.832 73.3806 19.748ZM79.826 14.444V13.148H83.69V14.444H79.826ZM84.8338 14.024C84.8338 12.188 86.0458 10.892 87.7978 10.892C89.4178 10.892 90.5218 11.792 90.6778 13.22H89.2138C89.0458 12.548 88.5538 12.2 87.8578 12.2C86.9218 12.2 86.2978 12.908 86.2978 14.024C86.2978 15.14 86.8738 15.836 87.8098 15.836C88.5418 15.836 89.0578 15.476 89.2138 14.828H90.6898C90.5098 16.208 89.3578 17.156 87.8098 17.156C86.0098 17.156 84.8338 15.908 84.8338 14.024ZM93.5434 17.156C92.2834 17.156 91.5154 16.424 91.5154 15.308C91.5154 14.216 92.3074 13.532 93.7114 13.424L95.4874 13.292V13.16C95.4874 12.356 95.0074 12.032 94.2634 12.032C93.3994 12.032 92.9194 12.392 92.9194 13.016H91.6714C91.6714 11.732 92.7274 10.892 94.3354 10.892C95.9314 10.892 96.9154 11.756 96.9154 13.4V17H95.6314L95.5234 16.124C95.2714 16.736 94.4674 17.156 93.5434 17.156ZM94.0234 16.052C94.9234 16.052 95.4994 15.512 95.4994 14.6V14.288L94.2634 14.384C93.3514 14.468 93.0034 14.768 93.0034 15.248C93.0034 15.788 93.3634 16.052 94.0234 16.052ZM102.074 11.048V12.404H101.534C100.478 12.404 99.8177 12.968 99.8177 14.12V17H98.3537V11.084H99.7337L99.8177 11.948C100.07 11.36 100.634 10.964 101.426 10.964C101.63 10.964 101.834 10.988 102.074 11.048ZM105.301 17.156C103.585 17.156 102.517 15.896 102.517 14.06C102.517 12.212 103.597 10.892 105.385 10.892C106.213 10.892 106.945 11.24 107.317 11.828V8.072H108.769V17H107.425L107.329 16.076C106.969 16.76 106.201 17.156 105.301 17.156ZM105.625 15.812C106.645 15.812 107.305 15.08 107.305 14.012C107.305 12.944 106.645 12.2 105.625 12.2C104.605 12.2 103.981 12.956 103.981 14.012C103.981 15.068 104.605 15.812 105.625 15.812Z" fill="black"/>
</svg>
