<svg width="156" height="24" viewBox="0 0 156 24" fill="none" xmlns="http://www.w3.org/2000/svg">
<path d="M12 20.5H7C4 20.5 2 19 2 15.5V8.5C2 5 4 3.5 7 3.5H17C20 3.5 22 5 22 8.5V11.5" stroke="#1A1A1A" stroke-width="1.5" stroke-miterlimit="10" stroke-linecap="round" stroke-linejoin="round"/>
<path d="M17 9L13.87 11.5C12.84 12.32 11.15 12.32 10.12 11.5L7 9" stroke="#1A1A1A" stroke-width="1.5" stroke-miterlimit="10" stroke-linecap="round" stroke-linejoin="round"/>
<path d="M19.21 14.77L15.6701 18.31C15.5301 18.45 15.4 18.71 15.37 18.9L15.18 20.25C15.11 20.74 15.45 21.08 15.94 21.01L17.29 20.82C17.48 20.79 17.75 20.66 17.88 20.52L21.4201 16.98C22.0301 16.37 22.3201 15.66 21.4201 14.76C20.5301 13.87 19.82 14.16 19.21 14.77Z" stroke="#1A1A1A" stroke-width="1.5" stroke-miterlimit="10" stroke-linecap="round" stroke-linejoin="round"/>
<path d="M18.7002 15.28C19.0002 16.36 19.8402 17.2 20.9202 17.5" stroke="#1A1A1A" stroke-width="1.5" stroke-miterlimit="10" stroke-linecap="round" stroke-linejoin="round"/>
<path d="M34.468 9.676C34.468 8.14 35.74 7.072 37.588 7.072C39.364 7.072 40.492 8.056 40.54 9.64H39.004C38.968 8.884 38.428 8.44 37.564 8.44C36.616 8.44 36.004 8.896 36.004 9.628C36.004 10.252 36.34 10.6 37.072 10.768L38.452 11.068C39.952 11.392 40.684 12.16 40.684 13.468C40.684 15.1 39.412 16.156 37.48 16.156C35.608 16.156 34.384 15.16 34.348 13.588H35.884C35.896 14.332 36.496 14.776 37.48 14.776C38.5 14.776 39.148 14.332 39.148 13.6C39.148 13.012 38.848 12.664 38.128 12.508L36.736 12.196C35.248 11.872 34.468 11.02 34.468 9.676ZM43.3216 16H41.8576V10.072H43.2016L43.3216 10.768C43.6216 10.276 44.2216 9.892 45.0736 9.892C45.9736 9.892 46.5976 10.336 46.9096 11.02C47.2096 10.336 47.9056 9.892 48.8056 9.892C50.2456 9.892 51.0376 10.756 51.0376 12.124V16H49.5856V12.508C49.5856 11.656 49.1296 11.212 48.4336 11.212C47.7256 11.212 47.1856 11.668 47.1856 12.64V16H45.7216V12.496C45.7216 11.668 45.2776 11.224 44.5816 11.224C43.8856 11.224 43.3216 11.68 43.3216 12.64V16ZM51.9484 14.2H53.3404C53.3524 14.716 53.7364 15.04 54.4084 15.04C55.0924 15.04 55.4644 14.764 55.4644 14.332C55.4644 14.032 55.3084 13.816 54.7804 13.696L53.7124 13.444C52.6444 13.204 52.1284 12.7 52.1284 11.752C52.1284 10.588 53.1124 9.892 54.4804 9.892C55.8124 9.892 56.7124 10.66 56.7244 11.812H55.3324C55.3204 11.308 54.9844 10.984 54.4204 10.984C53.8444 10.984 53.5084 11.248 53.5084 11.692C53.5084 12.028 53.7724 12.244 54.2764 12.364L55.3444 12.616C56.3404 12.844 56.8444 13.3 56.8444 14.212C56.8444 15.412 55.8244 16.156 54.3604 16.156C52.8844 16.156 51.9484 15.364 51.9484 14.2ZM57.7948 13.444V12.148H61.6588V13.444H57.7948ZM65.8025 16.156C64.0385 16.156 62.8025 14.872 62.8025 13.036C62.8025 11.176 64.0145 9.892 65.7545 9.892C67.5305 9.892 68.6585 11.08 68.6585 12.928V13.372L64.1945 13.384C64.3025 14.428 64.8545 14.956 65.8265 14.956C66.6305 14.956 67.1585 14.644 67.3265 14.08H68.6825C68.4305 15.376 67.3505 16.156 65.8025 16.156ZM65.7665 11.092C64.9025 11.092 64.3745 11.56 64.2305 12.448H67.2065C67.2065 11.632 66.6425 11.092 65.7665 11.092ZM72.2662 16.156C70.5502 16.156 69.4822 14.896 69.4822 13.06C69.4822 11.212 70.5622 9.892 72.3502 9.892C73.1782 9.892 73.9102 10.24 74.2822 10.828V7.072H75.7342V16H74.3902L74.2942 15.076C73.9342 15.76 73.1662 16.156 72.2662 16.156ZM72.5902 14.812C73.6102 14.812 74.2702 14.08 74.2702 13.012C74.2702 11.944 73.6102 11.2 72.5902 11.2C71.5702 11.2 70.9462 11.956 70.9462 13.012C70.9462 14.068 71.5702 14.812 72.5902 14.812ZM77.9919 8.884C77.4879 8.884 77.0919 8.488 77.0919 7.996C77.0919 7.504 77.4879 7.12 77.9919 7.12C78.4719 7.12 78.8679 7.504 78.8679 7.996C78.8679 8.488 78.4719 8.884 77.9919 8.884ZM77.2599 16V10.072H78.7239V16H77.2599ZM82.2525 16H80.7885V11.296H79.6485V10.072H80.7885V8.224H82.2525V10.072H83.4045V11.296H82.2525V16Z" fill="black"/>
</svg>
