<svg width="154" height="24" viewBox="0 0 154 24" fill="none" xmlns="http://www.w3.org/2000/svg">
<path d="M3.9889 14.6604L2.46891 13.1404C1.84891 12.5204 1.84891 11.5004 2.46891 10.8804L3.9889 9.36039C4.2489 9.10039 4.4589 8.59038 4.4589 8.23038V6.08036C4.4589 5.20036 5.1789 4.48038 6.0589 4.48038H8.2089C8.5689 4.48038 9.0789 4.27041 9.3389 4.01041L10.8589 2.49039C11.4789 1.87039 12.4989 1.87039 13.1189 2.49039L14.6389 4.01041C14.8989 4.27041 15.4089 4.48038 15.7689 4.48038H17.9189C18.7989 4.48038 19.5189 5.20036 19.5189 6.08036V8.23038C19.5189 8.59038 19.7289 9.10039 19.9889 9.36039L21.5089 10.8804C22.1289 11.5004 22.1289 12.5204 21.5089 13.1404L19.9889 14.6604C19.7289 14.9204 19.5189 15.4304 19.5189 15.7904V17.9403C19.5189 18.8203 18.7989 19.5404 17.9189 19.5404H15.7689C15.4089 19.5404 14.8989 19.7504 14.6389 20.0104L13.1189 21.5304C12.4989 22.1504 11.4789 22.1504 10.8589 21.5304L9.3389 20.0104C9.0789 19.7504 8.5689 19.5404 8.2089 19.5404H6.0589C5.1789 19.5404 4.4589 18.8203 4.4589 17.9403V15.7904C4.4589 15.4204 4.2489 14.9104 3.9889 14.6604Z" stroke="#1A1A1A" stroke-width="1.5" stroke-linecap="round" stroke-linejoin="round"/>
<path d="M9 15L15 9" stroke="#1A1A1A" stroke-width="1.5" stroke-linecap="round" stroke-linejoin="round"/>
<path d="M14.4945 14.5H14.5035" stroke="#1A1A1A" stroke-width="1.5" stroke-linecap="round" stroke-linejoin="round"/>
<path d="M9.49451 9.5H9.50349" stroke="#1A1A1A" stroke-width="1.5" stroke-linecap="round" stroke-linejoin="round"/>
<path d="M38.128 17H34.972V8.228H38.044C40.636 8.228 42.424 10.016 42.424 12.632C42.424 15.212 40.672 17 38.128 17ZM37.9 9.644H36.508V15.584H37.984C39.736 15.584 40.804 14.456 40.804 12.632C40.804 10.772 39.712 9.644 37.9 9.644ZM44.3708 9.884C43.8668 9.884 43.4708 9.488 43.4708 8.996C43.4708 8.504 43.8668 8.12 44.3708 8.12C44.8508 8.12 45.2468 8.504 45.2468 8.996C45.2468 9.488 44.8508 9.884 44.3708 9.884ZM43.6388 17V11.072H45.1028V17H43.6388ZM46.1594 15.2H47.5514C47.5634 15.716 47.9474 16.04 48.6194 16.04C49.3034 16.04 49.6754 15.764 49.6754 15.332C49.6754 15.032 49.5194 14.816 48.9914 14.696L47.9234 14.444C46.8554 14.204 46.3394 13.7 46.3394 12.752C46.3394 11.588 47.3234 10.892 48.6914 10.892C50.0234 10.892 50.9234 11.66 50.9354 12.812H49.5434C49.5314 12.308 49.1954 11.984 48.6314 11.984C48.0554 11.984 47.7194 12.248 47.7194 12.692C47.7194 13.028 47.9834 13.244 48.4874 13.364L49.5554 13.616C50.5514 13.844 51.0554 14.3 51.0554 15.212C51.0554 16.412 50.0354 17.156 48.5714 17.156C47.0954 17.156 46.1594 16.364 46.1594 15.2ZM51.8221 14.024C51.8221 12.188 53.0341 10.892 54.7861 10.892C56.4061 10.892 57.5101 11.792 57.6661 13.22H56.2021C56.0341 12.548 55.5421 12.2 54.8461 12.2C53.9101 12.2 53.2861 12.908 53.2861 14.024C53.2861 15.14 53.8621 15.836 54.7981 15.836C55.5301 15.836 56.0461 15.476 56.2021 14.828H57.6781C57.4981 16.208 56.3461 17.156 54.7981 17.156C52.9981 17.156 51.8221 15.908 51.8221 14.024ZM58.4197 14.024C58.4197 12.176 59.7517 10.904 61.5877 10.904C63.4237 10.904 64.7557 12.176 64.7557 14.024C64.7557 15.872 63.4237 17.144 61.5877 17.144C59.7517 17.144 58.4197 15.872 58.4197 14.024ZM59.8837 14.024C59.8837 15.104 60.5797 15.836 61.5877 15.836C62.5957 15.836 63.2917 15.104 63.2917 14.024C63.2917 12.944 62.5957 12.212 61.5877 12.212C60.5797 12.212 59.8837 12.944 59.8837 14.024ZM69.7955 11.072H71.2595V17H69.9035L69.7955 16.208C69.4355 16.772 68.6675 17.156 67.8755 17.156C66.5075 17.156 65.7035 16.232 65.7035 14.78V11.072H67.1675V14.264C67.1675 15.392 67.6115 15.848 68.4275 15.848C69.3515 15.848 69.7955 15.308 69.7955 14.18V11.072ZM74.2356 17H72.7716V11.072H74.1276L74.2476 11.84C74.6196 11.24 75.3396 10.892 76.1436 10.892C77.6316 10.892 78.3996 11.816 78.3996 13.352V17H76.9356V13.7C76.9356 12.704 76.4436 12.224 75.6876 12.224C74.7876 12.224 74.2356 12.848 74.2356 13.808V17ZM81.854 17H80.39V12.296H79.25V11.072H80.39V9.224H81.854V11.072H83.006V12.296H81.854V17ZM83.6698 14.444V13.148H87.5338V14.444H83.6698ZM88.4875 15.2H89.8795C89.8915 15.716 90.2755 16.04 90.9475 16.04C91.6315 16.04 92.0035 15.764 92.0035 15.332C92.0035 15.032 91.8475 14.816 91.3195 14.696L90.2515 14.444C89.1835 14.204 88.6675 13.7 88.6675 12.752C88.6675 11.588 89.6515 10.892 91.0195 10.892C92.3515 10.892 93.2515 11.66 93.2635 12.812H91.8715C91.8595 12.308 91.5235 11.984 90.9595 11.984C90.3835 11.984 90.0475 12.248 90.0475 12.692C90.0475 13.028 90.3115 13.244 90.8155 13.364L91.8835 13.616C92.8795 13.844 93.3835 14.3 93.3835 15.212C93.3835 16.412 92.3635 17.156 90.8995 17.156C89.4235 17.156 88.4875 16.364 88.4875 15.2ZM95.9622 17H94.4982V8.072H95.9742V11.84C96.3462 11.264 97.0422 10.892 97.8942 10.892C99.3582 10.892 100.126 11.816 100.126 13.352V17H98.6622V13.7C98.6622 12.704 98.1702 12.224 97.4262 12.224C96.5022 12.224 95.9622 12.872 95.9622 13.76V17ZM103.329 17.156C102.069 17.156 101.301 16.424 101.301 15.308C101.301 14.216 102.093 13.532 103.497 13.424L105.273 13.292V13.16C105.273 12.356 104.793 12.032 104.049 12.032C103.185 12.032 102.705 12.392 102.705 13.016H101.457C101.457 11.732 102.513 10.892 104.121 10.892C105.717 10.892 106.701 11.756 106.701 13.4V17H105.417L105.309 16.124C105.057 16.736 104.253 17.156 103.329 17.156ZM103.809 16.052C104.709 16.052 105.285 15.512 105.285 14.6V14.288L104.049 14.384C103.137 14.468 102.789 14.768 102.789 15.248C102.789 15.788 103.149 16.052 103.809 16.052ZM108.139 19.748V11.072H109.495L109.591 11.972C109.951 11.288 110.731 10.892 111.631 10.892C113.299 10.892 114.403 12.104 114.403 13.964C114.403 15.812 113.395 17.156 111.631 17.156C110.743 17.156 109.975 16.808 109.603 16.208V19.748H108.139ZM109.615 14.036C109.615 15.104 110.275 15.836 111.283 15.836C112.315 15.836 112.927 15.092 112.927 14.036C112.927 12.98 112.315 12.224 111.283 12.224C110.275 12.224 109.615 12.968 109.615 14.036ZM118.221 17.156C116.457 17.156 115.221 15.872 115.221 14.036C115.221 12.176 116.433 10.892 118.173 10.892C119.949 10.892 121.077 12.08 121.077 13.928V14.372L116.613 14.384C116.721 15.428 117.273 15.956 118.245 15.956C119.049 15.956 119.577 15.644 119.745 15.08H121.101C120.849 16.376 119.769 17.156 118.221 17.156ZM118.185 12.092C117.321 12.092 116.793 12.56 116.649 13.448H119.625C119.625 12.632 119.061 12.092 118.185 12.092Z" fill="black"/>
</svg>
