<svg width="128" height="24" viewBox="0 0 128 24" fill="none" xmlns="http://www.w3.org/2000/svg">
<path d="M10 4H14C18.42 4 22 7.58 22 12C22 16.42 18.42 20 14 20H10C5.58 20 2 16.42 2 12C2 7.58 5.58 4 10 4Z" stroke="#1A1A1A" stroke-width="1.5" stroke-linecap="round" stroke-linejoin="round"/>
<path d="M10 16C12.2091 16 14 14.2091 14 12C14 9.79086 12.2091 8 10 8C7.79086 8 6 9.79086 6 12C6 14.2091 7.79086 16 10 16Z" stroke="#1A1A1A" stroke-width="1.5" stroke-linecap="round" stroke-linejoin="round"/>
<path d="M34.204 9.644V8.228H40.876V9.644H38.308V17H36.772V9.644H34.204ZM40.4783 14.024C40.4783 12.176 41.8103 10.904 43.6463 10.904C45.4823 10.904 46.8143 12.176 46.8143 14.024C46.8143 15.872 45.4823 17.144 43.6463 17.144C41.8103 17.144 40.4783 15.872 40.4783 14.024ZM41.9423 14.024C41.9423 15.104 42.6383 15.836 43.6463 15.836C44.6543 15.836 45.3503 15.104 45.3503 14.024C45.3503 12.944 44.6543 12.212 43.6463 12.212C42.6383 12.212 41.9423 12.944 41.9423 14.024ZM47.6388 13.904C47.6388 12.176 48.7668 10.88 50.4588 10.88C51.3468 10.88 52.0428 11.252 52.3908 11.888L52.4748 11.072H53.8307V16.7C53.8307 18.68 52.6428 19.916 50.7228 19.916C49.0188 19.916 47.8548 18.944 47.6748 17.36H49.1388C49.2348 18.128 49.8228 18.584 50.7228 18.584C51.7308 18.584 52.3788 17.948 52.3788 16.964V15.98C52.0068 16.532 51.2748 16.88 50.4228 16.88C48.7428 16.88 47.6388 15.62 47.6388 13.904ZM49.1148 13.868C49.1148 14.864 49.7508 15.608 50.7108 15.608C51.7188 15.608 52.3428 14.9 52.3428 13.868C52.3428 12.86 51.7308 12.164 50.7108 12.164C49.7388 12.164 49.1148 12.896 49.1148 13.868ZM55.0098 13.904C55.0098 12.176 56.1378 10.88 57.8298 10.88C58.7178 10.88 59.4138 11.252 59.7618 11.888L59.8458 11.072H61.2018V16.7C61.2018 18.68 60.0138 19.916 58.0938 19.916C56.3898 19.916 55.2258 18.944 55.0458 17.36H56.5098C56.6058 18.128 57.1938 18.584 58.0938 18.584C59.1018 18.584 59.7498 17.948 59.7498 16.964V15.98C59.3778 16.532 58.6458 16.88 57.7938 16.88C56.1138 16.88 55.0098 15.62 55.0098 13.904ZM56.4858 13.868C56.4858 14.864 57.1218 15.608 58.0818 15.608C59.0898 15.608 59.7138 14.9 59.7138 13.868C59.7138 12.86 59.1018 12.164 58.0818 12.164C57.1098 12.164 56.4858 12.896 56.4858 13.868ZM64.1929 17H62.7409V8.072H64.1929V17ZM68.3807 17.156C66.6167 17.156 65.3807 15.872 65.3807 14.036C65.3807 12.176 66.5927 10.892 68.3327 10.892C70.1087 10.892 71.2367 12.08 71.2367 13.928V14.372L66.7727 14.384C66.8807 15.428 67.4327 15.956 68.4047 15.956C69.2087 15.956 69.7367 15.644 69.9047 15.08H71.2607C71.0087 16.376 69.9287 17.156 68.3807 17.156ZM68.3447 12.092C67.4807 12.092 66.9527 12.56 66.8087 13.448H69.7847C69.7847 12.632 69.2207 12.092 68.3447 12.092ZM72.3963 14.444V13.148H76.2603V14.444H72.3963ZM77.4041 14.024C77.4041 12.176 78.7361 10.904 80.5721 10.904C82.4081 10.904 83.7401 12.176 83.7401 14.024C83.7401 15.872 82.4081 17.144 80.5721 17.144C78.7361 17.144 77.4041 15.872 77.4041 14.024ZM78.8681 14.024C78.8681 15.104 79.5641 15.836 80.5721 15.836C81.5801 15.836 82.2761 15.104 82.2761 14.024C82.2761 12.944 81.5801 12.212 80.5721 12.212C79.5641 12.212 78.8681 12.944 78.8681 14.024ZM84.2891 11.072H85.1411V10.352C85.1411 8.744 85.9811 8.072 87.2651 8.072C87.4931 8.072 87.7691 8.084 88.0211 8.132V9.38H87.5051C86.7611 9.38 86.5931 9.764 86.5931 10.352V11.072H89.0171V10.352C89.0171 8.744 89.8571 8.072 91.1411 8.072C91.3811 8.072 91.6451 8.084 91.8971 8.132V9.38H91.3931C90.6491 9.38 90.4691 9.764 90.4691 10.352V11.072H91.8851V12.296H90.4691V17H89.0171V12.296H86.5931V17H85.1411V12.296H84.2891V11.072ZM92.3768 14.444V13.148H96.2408V14.444H92.3768ZM97.3846 14.024C97.3846 12.188 98.5966 10.892 100.349 10.892C101.969 10.892 103.073 11.792 103.229 13.22H101.765C101.597 12.548 101.105 12.2 100.409 12.2C99.4726 12.2 98.8486 12.908 98.8486 14.024C98.8486 15.14 99.4246 15.836 100.361 15.836C101.093 15.836 101.609 15.476 101.765 14.828H103.241C103.061 16.208 101.909 17.156 100.361 17.156C98.5606 17.156 97.3846 15.908 97.3846 14.024ZM105.062 9.884C104.558 9.884 104.162 9.488 104.162 8.996C104.162 8.504 104.558 8.12 105.062 8.12C105.542 8.12 105.938 8.504 105.938 8.996C105.938 9.488 105.542 9.884 105.062 9.884ZM104.33 17V11.072H105.794V17H104.33ZM111.027 11.048V12.404H110.487C109.431 12.404 108.771 12.968 108.771 14.12V17H107.307V11.084H108.687L108.771 11.948C109.023 11.36 109.587 10.964 110.379 10.964C110.583 10.964 110.787 10.988 111.027 11.048ZM111.471 14.024C111.471 12.188 112.683 10.892 114.435 10.892C116.055 10.892 117.159 11.792 117.315 13.22H115.851C115.683 12.548 115.191 12.2 114.495 12.2C113.559 12.2 112.935 12.908 112.935 14.024C112.935 15.14 113.511 15.836 114.447 15.836C115.179 15.836 115.695 15.476 115.851 14.828H117.327C117.147 16.208 115.995 17.156 114.447 17.156C112.646 17.156 111.471 15.908 111.471 14.024ZM119.892 17H118.44V8.072H119.892V17ZM124.08 17.156C122.316 17.156 121.08 15.872 121.08 14.036C121.08 12.176 122.292 10.892 124.032 10.892C125.808 10.892 126.936 12.08 126.936 13.928V14.372L122.472 14.384C122.58 15.428 123.132 15.956 124.104 15.956C124.908 15.956 125.436 15.644 125.604 15.08H126.96C126.708 16.376 125.628 17.156 124.08 17.156ZM124.044 12.092C123.18 12.092 122.652 12.56 122.508 13.448H125.484C125.484 12.632 124.92 12.092 124.044 12.092Z" fill="black"/>
</svg>
