<svg width="137" height="24" viewBox="0 0 137 24" fill="none" xmlns="http://www.w3.org/2000/svg">
<path d="M13 11.1499H7" stroke="#1A1A1A" stroke-width="1.5" stroke-linecap="round" stroke-linejoin="round"/>
<path d="M2 11.1501V6.53009C2 4.49009 3.65 2.84009 5.69 2.84009H11.31C13.35 2.84009 15 4.11009 15 6.15009" stroke="#1A1A1A" stroke-width="1.5" stroke-linecap="round" stroke-linejoin="round"/>
<path d="M17.48 12.1999C16.98 12.6799 16.74 13.4199 16.94 14.1799C17.19 15.1099 18.11 15.6999 19.07 15.6999H20V17.1499C20 19.3599 18.21 21.1499 16 21.1499H6C3.79 21.1499 2 19.3599 2 17.1499V10.1499C2 7.9399 3.79 6.1499 6 6.1499H16C18.2 6.1499 20 7.9499 20 10.1499V11.5999H18.92C18.36 11.5999 17.85 11.8199 17.48 12.1999Z" stroke="#1A1A1A" stroke-width="1.5" stroke-linecap="round" stroke-linejoin="round"/>
<path d="M22.0002 12.6201V14.6801C22.0002 15.2401 21.5402 15.7001 20.9702 15.7001H19.0402C17.9602 15.7001 16.9702 14.9101 16.8802 13.8301C16.8202 13.2001 17.0602 12.6101 17.4802 12.2001C17.8502 11.8201 18.3602 11.6001 18.9202 11.6001H20.9702C21.5402 11.6001 22.0002 12.0601 22.0002 12.6201Z" stroke="#1A1A1A" stroke-width="1.5" stroke-linecap="round" stroke-linejoin="round"/>
<path d="M36.064 16L34.144 10.072H35.668L36.448 12.616C36.58 13.084 36.7 13.6 36.808 14.152C36.916 13.576 37.024 13.204 37.216 12.616L38.032 10.072H39.52L40.312 12.616C40.384 12.856 40.624 13.744 40.696 14.14C40.792 13.696 40.984 12.988 41.092 12.616L41.884 10.072H43.432L41.38 16H40.012L39.196 13.432C38.956 12.652 38.824 12.088 38.776 11.788C38.716 12.064 38.608 12.484 38.308 13.456L37.492 16H36.064ZM45.7895 16.156C44.5295 16.156 43.7615 15.424 43.7615 14.308C43.7615 13.216 44.5535 12.532 45.9575 12.424L47.7335 12.292V12.16C47.7335 11.356 47.2535 11.032 46.5095 11.032C45.6455 11.032 45.1655 11.392 45.1655 12.016H43.9175C43.9175 10.732 44.9735 9.892 46.5815 9.892C48.1775 9.892 49.1615 10.756 49.1615 12.4V16H47.8775L47.7695 15.124C47.5175 15.736 46.7135 16.156 45.7895 16.156ZM46.2695 15.052C47.1695 15.052 47.7455 14.512 47.7455 13.6V13.288L46.5095 13.384C45.5975 13.468 45.2495 13.768 45.2495 14.248C45.2495 14.788 45.6095 15.052 46.2695 15.052ZM52.0758 16H50.6238V7.072H52.0758V16ZM55.0875 16H53.6355V7.072H55.0875V16ZM59.2752 16.156C57.5112 16.156 56.2752 14.872 56.2752 13.036C56.2752 11.176 57.4872 9.892 59.2272 9.892C61.0032 9.892 62.1312 11.08 62.1312 12.928V13.372L57.6672 13.384C57.7752 14.428 58.3272 14.956 59.2992 14.956C60.1032 14.956 60.6312 14.644 60.7992 14.08H62.1552C61.9032 15.376 60.8232 16.156 59.2752 16.156ZM59.2392 11.092C58.3752 11.092 57.8472 11.56 57.7032 12.448H60.6792C60.6792 11.632 60.1152 11.092 59.2392 11.092ZM65.2603 16H63.7963V11.296H62.6563V10.072H63.7963V8.224H65.2603V10.072H66.4123V11.296H65.2603V16ZM67.076 13.444V12.148H70.94V13.444H67.076ZM74.8658 11.656H73.7978V10.66L76.0538 8.584H72.4058V7.228H77.9738V8.452L75.8378 10.42C77.1818 10.684 78.2258 11.668 78.2258 13.216C78.2258 15.016 76.8218 16.156 75.0458 16.156C73.3298 16.156 71.9978 15.1 71.9978 13.204H73.5098C73.5098 14.212 74.1338 14.788 75.0698 14.788C76.0298 14.788 76.6658 14.164 76.6658 13.192C76.6658 12.304 76.0898 11.656 74.8658 11.656Z" fill="black"/>
</svg>
