<svg width="101" height="24" viewBox="0 0 101 24" fill="none" xmlns="http://www.w3.org/2000/svg">
<path d="M7.5 7.67001V6.70001C7.5 4.45001 9.31 2.24001 11.56 2.03001C14.24 1.77001 16.5 3.88001 16.5 6.51001V7.89001" stroke="#1A1A1A" stroke-width="1.5" stroke-miterlimit="10" stroke-linecap="round" stroke-linejoin="round"/>
<path d="M8.99983 22H14.9998C19.0198 22 19.7398 20.39 19.9498 18.43L20.6998 12.43C20.9698 9.99 20.2698 8 15.9998 8H7.99983C3.72983 8 3.02983 9.99 3.29983 12.43L4.04983 18.43C4.25983 20.39 4.97983 22 8.99983 22Z" stroke="#1A1A1A" stroke-width="1.5" stroke-miterlimit="10" stroke-linecap="round" stroke-linejoin="round"/>
<path d="M15.4955 12H15.5045" stroke="#1A1A1A" stroke-width="1.5" stroke-linecap="round" stroke-linejoin="round"/>
<path d="M8.49451 12H8.50349" stroke="#1A1A1A" stroke-width="1.5" stroke-linecap="round" stroke-linejoin="round"/>
<path d="M34.972 16V7.228H38.464C40.192 7.228 41.248 8.128 41.248 9.592C41.248 10.564 40.816 11.26 39.988 11.608C40.912 11.908 41.38 12.604 41.38 13.624C41.38 15.124 40.336 16 38.524 16H34.972ZM38.332 8.584H36.508V10.972H38.368C39.208 10.972 39.676 10.528 39.676 9.748C39.676 8.992 39.196 8.584 38.332 8.584ZM38.464 12.268H36.508V14.644H38.464C39.328 14.644 39.808 14.224 39.808 13.432C39.808 12.688 39.316 12.268 38.464 12.268ZM44.3364 16.156C43.0764 16.156 42.3084 15.424 42.3084 14.308C42.3084 13.216 43.1004 12.532 44.5044 12.424L46.2804 12.292V12.16C46.2804 11.356 45.8004 11.032 45.0564 11.032C44.1924 11.032 43.7124 11.392 43.7124 12.016H42.4644C42.4644 10.732 43.5204 9.892 45.1284 9.892C46.7244 9.892 47.7084 10.756 47.7084 12.4V16H46.4244L46.3164 15.124C46.0644 15.736 45.2604 16.156 44.3364 16.156ZM44.8164 15.052C45.7164 15.052 46.2924 14.512 46.2924 13.6V13.288L45.0564 13.384C44.1444 13.468 43.7964 13.768 43.7964 14.248C43.7964 14.788 44.1564 15.052 44.8164 15.052ZM48.8106 12.904C48.8106 11.176 49.9386 9.88 51.6306 9.88C52.5186 9.88 53.2146 10.252 53.5626 10.888L53.6466 10.072H55.0026V15.7C55.0026 17.68 53.8146 18.916 51.8946 18.916C50.1906 18.916 49.0266 17.944 48.8466 16.36H50.3106C50.4066 17.128 50.9946 17.584 51.8946 17.584C52.9026 17.584 53.5506 16.948 53.5506 15.964V14.98C53.1786 15.532 52.4466 15.88 51.5946 15.88C49.9146 15.88 48.8106 14.62 48.8106 12.904ZM50.2866 12.868C50.2866 13.864 50.9226 14.608 51.8826 14.608C52.8906 14.608 53.5146 13.9 53.5146 12.868C53.5146 11.86 52.9026 11.164 51.8826 11.164C50.9106 11.164 50.2866 11.896 50.2866 12.868ZM56.5057 13.444V12.148H60.3697V13.444H56.5057ZM66.968 15.988L60.884 16V14.848L63.752 12.424C64.94 11.416 65.336 10.84 65.336 10C65.336 9.004 64.796 8.44 63.872 8.44C62.912 8.44 62.312 9.112 62.3 10.24H60.776C60.788 8.32 62.012 7.072 63.872 7.072C65.744 7.072 66.908 8.14 66.908 9.916C66.908 11.14 66.236 12.064 64.904 13.204L63.32 14.56H66.968V15.988Z" fill="black"/>
</svg>
