<svg width="104" height="24" viewBox="0 0 104 24" fill="none" xmlns="http://www.w3.org/2000/svg">
<path d="M9 8.9999V16.8999C9 18.3999 7.4 19.3999 6 18.5999L3.5 17.1999C3.2 17.0999 3 16.7999 3 16.3999V7.5999C3 7.1999 3.2 6.8999 3.5 6.6999L11.5 2.2999C11.8 2.0999 12.2 2.0999 12.5 2.2999L20.5 6.6999C20.8 6.8999 21 7.1999 21 7.5999V16.3999C21 16.7999 20.8 17.0999 20.5 17.2999L12.5 21.6999C12.2 21.8999 11.8 21.8999 11.5 21.6999L10 20.9999" stroke="#1A1A1A" stroke-width="1.5" stroke-miterlimit="10" stroke-linecap="round" stroke-linejoin="round"/>
<path d="M16.9998 10.8C16.9998 9.8 16.1998 9 15.2998 9H13.4998C12.4998 9 11.7998 9.8 11.7998 10.7C11.7998 11.7 12.5998 12.4 13.4998 12.4H15.2998C16.2998 12.4 16.9998 13.2 16.9998 14.1C16.9998 15.1 16.1998 15.8 15.2998 15.8H13.4998C12.4998 15.8 11.7998 15 11.7998 14.1" stroke="#1A1A1A" stroke-width="1.5" stroke-miterlimit="10" stroke-linecap="round" stroke-linejoin="round"/>
<path d="M34.24 13.528V13.012H35.716V13.528C35.716 14.2 36.088 14.728 36.952 14.728C37.816 14.728 38.176 14.236 38.176 13.468V7.228H39.712V13.552C39.712 15.1 38.632 16.156 36.964 16.156C35.164 16.156 34.24 15.04 34.24 13.528ZM40.9211 14.2H42.3131C42.3251 14.716 42.7091 15.04 43.3811 15.04C44.0651 15.04 44.4371 14.764 44.4371 14.332C44.4371 14.032 44.2811 13.816 43.7531 13.696L42.6851 13.444C41.6171 13.204 41.1011 12.7 41.1011 11.752C41.1011 10.588 42.0851 9.892 43.4531 9.892C44.7851 9.892 45.6851 10.66 45.6971 11.812H44.3051C44.2931 11.308 43.9571 10.984 43.3931 10.984C42.8171 10.984 42.4811 11.248 42.4811 11.692C42.4811 12.028 42.7451 12.244 43.2491 12.364L44.3171 12.616C45.3131 12.844 45.8171 13.3 45.8171 14.212C45.8171 15.412 44.7971 16.156 43.3331 16.156C41.8571 16.156 40.9211 15.364 40.9211 14.2Z" fill="black"/>
</svg>
