<svg width="101" height="24" viewBox="0 0 101 24" fill="none" xmlns="http://www.w3.org/2000/svg">
<path d="M10 16C10 14.34 10 13 13 13H17C20 13 20 12 20 10V8C20 6 20 5 17 5H16" stroke="#1A1A1A" stroke-width="1.5" stroke-linecap="round" stroke-linejoin="round"/>
<path d="M12.0002 2H8.0002C7.3502 3.95 7.3502 6.05 8.0002 8H12.0002C12.6502 6.05 12.6502 3.95 12.0002 2Z" stroke="#1A1A1A" stroke-width="1.5" stroke-linecap="round" stroke-linejoin="round"/>
<path d="M8 2H7C5 2 4 3 4 5C4 7 5 8 7 8H8C7 6 7 4 8 2Z" stroke="#1A1A1A" stroke-width="1.5" stroke-linecap="round" stroke-linejoin="round"/>
<path d="M13 2H12C13 4 13 6 12 8H13C15 8 16 7 16 5C16 3 15 2 13 2Z" stroke="#1A1A1A" stroke-width="1.5" stroke-linecap="round" stroke-linejoin="round"/>
<path d="M9.5 22H10.5C12 22 12 21 12 20.5V17.5C12 17 12 16 10.5 16H9.5C8 16 8 17 8 17.5V20.5C8 21 8 22 9.5 22Z" stroke="#1A1A1A" stroke-width="1.5" stroke-linecap="round" stroke-linejoin="round"/>
<path d="M34.972 16V7.228H38.464C40.192 7.228 41.248 8.128 41.248 9.592C41.248 10.564 40.816 11.26 39.988 11.608C40.912 11.908 41.38 12.604 41.38 13.624C41.38 15.124 40.336 16 38.524 16H34.972ZM38.332 8.584H36.508V10.972H38.368C39.208 10.972 39.676 10.528 39.676 9.748C39.676 8.992 39.196 8.584 38.332 8.584ZM38.464 12.268H36.508V14.644H38.464C39.328 14.644 39.808 14.224 39.808 13.432C39.808 12.688 39.316 12.268 38.464 12.268ZM46.2924 10.048V11.404H45.7524C44.6964 11.404 44.0364 11.968 44.0364 13.12V16H42.5724V10.084H43.9524L44.0364 10.948C44.2884 10.36 44.8524 9.964 45.6444 9.964C45.8484 9.964 46.0524 9.988 46.2924 10.048ZM51.3033 10.072H52.7673V16H51.4113L51.3033 15.208C50.9433 15.772 50.1753 16.156 49.3833 16.156C48.0153 16.156 47.2113 15.232 47.2113 13.78V10.072H48.6753V13.264C48.6753 14.392 49.1193 14.848 49.9353 14.848C50.8593 14.848 51.3033 14.308 51.3033 13.18V10.072ZM53.7063 14.2H55.0983C55.1103 14.716 55.4943 15.04 56.1663 15.04C56.8503 15.04 57.2223 14.764 57.2223 14.332C57.2223 14.032 57.0663 13.816 56.5383 13.696L55.4703 13.444C54.4023 13.204 53.8863 12.7 53.8863 11.752C53.8863 10.588 54.8703 9.892 56.2383 9.892C57.5703 9.892 58.4703 10.66 58.4823 11.812H57.0903C57.0783 11.308 56.7423 10.984 56.1783 10.984C55.6023 10.984 55.2663 11.248 55.2663 11.692C55.2663 12.028 55.5303 12.244 56.0343 12.364L57.1023 12.616C58.0983 12.844 58.6023 13.3 58.6023 14.212C58.6023 15.412 57.5823 16.156 56.1183 16.156C54.6423 16.156 53.7063 15.364 53.7063 14.2ZM61.1809 16H59.7169V7.072H61.1929V10.84C61.5649 10.264 62.2609 9.892 63.1129 9.892C64.5769 9.892 65.3449 10.816 65.3449 12.352V16H63.8809V12.7C63.8809 11.704 63.3889 11.224 62.6449 11.224C61.7209 11.224 61.1809 11.872 61.1809 12.76V16Z" fill="black"/>
</svg>
