<svg width="103" height="24" viewBox="0 0 103 24" fill="none" xmlns="http://www.w3.org/2000/svg">
<path d="M14.5 10.6504H9.5" stroke="#1A1A1A" stroke-width="1.5" stroke-miterlimit="10" stroke-linecap="round" stroke-linejoin="round"/>
<path d="M12 8.20996V13.21" stroke="#1A1A1A" stroke-width="1.5" stroke-miterlimit="10" stroke-linecap="round" stroke-linejoin="round"/>
<path d="M16.8203 2H7.18031C5.05031 2 3.32031 3.74 3.32031 5.86V19.95C3.32031 21.75 4.61031 22.51 6.19031 21.64L11.0703 18.93C11.5903 18.64 12.4303 18.64 12.9403 18.93L17.8203 21.64C19.4003 22.52 20.6903 21.76 20.6903 19.95V5.86C20.6803 3.74 18.9503 2 16.8203 2Z" stroke="#1A1A1A" stroke-width="1.5" stroke-linecap="round" stroke-linejoin="round"/>
<path d="M35.728 17H34.132L37.3 8.228H38.872L42.04 17H40.42L39.712 14.972H36.436L35.728 17ZM37.888 10.844L36.892 13.676H39.268L38.26 10.844C38.188 10.616 38.104 10.352 38.08 10.172C38.044 10.34 37.972 10.604 37.888 10.844ZM46.644 11.048V12.404H46.104C45.048 12.404 44.388 12.968 44.388 14.12V17H42.924V11.084H44.304L44.388 11.948C44.64 11.36 45.204 10.964 45.996 10.964C46.2 10.964 46.404 10.988 46.644 11.048ZM47.0877 14.024C47.0877 12.188 48.2997 10.892 50.0517 10.892C51.6717 10.892 52.7757 11.792 52.9317 13.22H51.4677C51.2997 12.548 50.8077 12.2 50.1117 12.2C49.1757 12.2 48.5517 12.908 48.5517 14.024C48.5517 15.14 49.1277 15.836 50.0637 15.836C50.7957 15.836 51.3117 15.476 51.4677 14.828H52.9437C52.7637 16.208 51.6117 17.156 50.0637 17.156C48.2637 17.156 47.0877 15.908 47.0877 14.024ZM55.4973 17H54.0333V8.072H55.5093V11.84C55.8813 11.264 56.5773 10.892 57.4293 10.892C58.8933 10.892 59.6613 11.816 59.6613 13.352V17H58.1973V13.7C58.1973 12.704 57.7053 12.224 56.9613 12.224C56.0373 12.224 55.4973 12.872 55.4973 13.76V17ZM61.8318 9.884C61.3278 9.884 60.9318 9.488 60.9318 8.996C60.9318 8.504 61.3278 8.12 61.8318 8.12C62.3118 8.12 62.7078 8.504 62.7078 8.996C62.7078 9.488 62.3118 9.884 61.8318 9.884ZM61.0998 17V11.072H62.5638V17H61.0998ZM65.7563 17L63.4043 11.072H64.9643L65.9963 13.796C66.2483 14.504 66.4523 15.116 66.5243 15.44C66.6083 15.068 66.8243 14.444 67.0763 13.796L68.1563 11.072H69.6683L67.1963 17H65.7563ZM72.8689 17.156C71.1049 17.156 69.8689 15.872 69.8689 14.036C69.8689 12.176 71.0809 10.892 72.8209 10.892C74.5969 10.892 75.7249 12.08 75.7249 13.928V14.372L71.2609 14.384C71.3689 15.428 71.9209 15.956 72.8929 15.956C73.6969 15.956 74.2249 15.644 74.3929 15.08H75.7489C75.4969 16.376 74.4169 17.156 72.8689 17.156ZM72.8329 12.092C71.9689 12.092 71.4409 12.56 71.2969 13.448H74.2729C74.2729 12.632 73.7089 12.092 72.8329 12.092ZM76.8846 14.444V13.148H80.7486V14.444H76.8846ZM83.8052 17.156C82.5452 17.156 81.7772 16.424 81.7772 15.308C81.7772 14.216 82.5692 13.532 83.9732 13.424L85.7492 13.292V13.16C85.7492 12.356 85.2692 12.032 84.5252 12.032C83.6612 12.032 83.1812 12.392 83.1812 13.016H81.9332C81.9332 11.732 82.9892 10.892 84.5972 10.892C86.1932 10.892 87.1772 11.756 87.1772 13.4V17H85.8932L85.7852 16.124C85.5332 16.736 84.7292 17.156 83.8052 17.156ZM84.2852 16.052C85.1852 16.052 85.7612 15.512 85.7612 14.6V14.288L84.5252 14.384C83.6132 14.468 83.2652 14.768 83.2652 15.248C83.2652 15.788 83.6252 16.052 84.2852 16.052ZM91.0514 17.156C89.3354 17.156 88.2674 15.896 88.2674 14.06C88.2674 12.212 89.3474 10.892 91.1354 10.892C91.9634 10.892 92.6954 11.24 93.0674 11.828V8.072H94.5194V17H93.1754L93.0794 16.076C92.7194 16.76 91.9514 17.156 91.0514 17.156ZM91.3754 15.812C92.3954 15.812 93.0554 15.08 93.0554 14.012C93.0554 12.944 92.3954 12.2 91.3754 12.2C90.3554 12.2 89.7314 12.956 89.7314 14.012C89.7314 15.068 90.3554 15.812 91.3754 15.812ZM98.4811 17.156C96.7651 17.156 95.6971 15.896 95.6971 14.06C95.6971 12.212 96.7771 10.892 98.5651 10.892C99.3931 10.892 100.125 11.24 100.497 11.828V8.072H101.949V17H100.605L100.509 16.076C100.149 16.76 99.3811 17.156 98.4811 17.156ZM98.8051 15.812C99.8251 15.812 100.485 15.08 100.485 14.012C100.485 12.944 99.8251 12.2 98.8051 12.2C97.7851 12.2 97.1611 12.956 97.1611 14.012C97.1611 15.068 97.7851 15.812 98.8051 15.812Z" fill="black"/>
</svg>
