<svg width="111" height="24" viewBox="0 0 111 24" fill="none" xmlns="http://www.w3.org/2000/svg">
<path d="M12 18.2002C14.2091 18.2002 16 16.4093 16 14.2002C16 11.9911 14.2091 10.2002 12 10.2002C9.79086 10.2002 8 11.9911 8 14.2002C8 16.4093 9.79086 18.2002 12 18.2002Z" stroke="#1A1A1A" stroke-width="1.5" stroke-miterlimit="10" stroke-linecap="round" stroke-linejoin="round"/>
<path d="M10.4404 14.2998L11.0904 14.9498C11.2804 15.1398 11.5904 15.1398 11.7804 14.9598L13.5604 13.3198" stroke="#1A1A1A" stroke-width="1.5" stroke-linecap="round" stroke-linejoin="round"/>
<path d="M7.99983 22H15.9998C20.0198 22 20.7398 20.39 20.9498 18.43L21.6998 10.43C21.9698 7.99 21.2698 6 16.9998 6H6.99983C2.72983 6 2.02983 7.99 2.29983 10.43L3.04983 18.43C3.25983 20.39 3.97983 22 7.99983 22Z" stroke="#1A1A1A" stroke-width="1.5" stroke-miterlimit="10" stroke-linecap="round" stroke-linejoin="round"/>
<path d="M8 6V5.2C8 3.43 8 2 11.2 2H12.8C16 2 16 3.43 16 5.2V6" stroke="#1A1A1A" stroke-width="1.5" stroke-miterlimit="10" stroke-linecap="round" stroke-linejoin="round"/>
<path d="M21.6498 11C19.9198 12.26 17.9998 13.14 16.0098 13.64" stroke="#1A1A1A" stroke-width="1.5" stroke-miterlimit="10" stroke-linecap="round" stroke-linejoin="round"/>
<path d="M2.62012 11.27C4.29012 12.41 6.11012 13.22 8.00012 13.68" stroke="#1A1A1A" stroke-width="1.5" stroke-miterlimit="10" stroke-linecap="round" stroke-linejoin="round"/>
<path d="M34.972 17V8.228H38.464C40.192 8.228 41.248 9.128 41.248 10.592C41.248 11.564 40.816 12.26 39.988 12.608C40.912 12.908 41.38 13.604 41.38 14.624C41.38 16.124 40.336 17 38.524 17H34.972ZM38.332 9.584H36.508V11.972H38.368C39.208 11.972 39.676 11.528 39.676 10.748C39.676 9.992 39.196 9.584 38.332 9.584ZM38.464 13.268H36.508V15.644H38.464C39.328 15.644 39.808 15.224 39.808 14.432C39.808 13.688 39.316 13.268 38.464 13.268ZM46.2924 11.048V12.404H45.7524C44.6964 12.404 44.0364 12.968 44.0364 14.12V17H42.5724V11.084H43.9524L44.0364 11.948C44.2884 11.36 44.8524 10.964 45.6444 10.964C45.8484 10.964 46.0524 10.988 46.2924 11.048ZM48.0153 9.884C47.5113 9.884 47.1153 9.488 47.1153 8.996C47.1153 8.504 47.5113 8.12 48.0153 8.12C48.4953 8.12 48.8913 8.504 48.8913 8.996C48.8913 9.488 48.4953 9.884 48.0153 9.884ZM47.2833 17V11.072H48.7473V17H47.2833ZM49.6719 11.072H50.5239V10.352C50.5239 8.744 51.3759 8.072 52.6599 8.072C52.8879 8.072 53.1639 8.084 53.4159 8.132V9.38H52.8999C52.1559 9.38 51.9759 9.764 51.9759 10.352V11.072H53.3919V12.296H51.9759V17H50.5239V12.296H49.6719V11.072ZM56.8025 17.156C55.0385 17.156 53.8025 15.872 53.8025 14.036C53.8025 12.176 55.0145 10.892 56.7545 10.892C58.5305 10.892 59.6585 12.08 59.6585 13.928V14.372L55.1945 14.384C55.3025 15.428 55.8545 15.956 56.8265 15.956C57.6305 15.956 58.1585 15.644 58.3265 15.08H59.6825C59.4305 16.376 58.3505 17.156 56.8025 17.156ZM56.7665 12.092C55.9025 12.092 55.3745 12.56 55.2305 13.448H58.2065C58.2065 12.632 57.6425 12.092 56.7665 12.092ZM60.4822 14.024C60.4822 12.188 61.6942 10.892 63.4462 10.892C65.0662 10.892 66.1702 11.792 66.3262 13.22H64.8622C64.6942 12.548 64.2022 12.2 63.5062 12.2C62.5702 12.2 61.9462 12.908 61.9462 14.024C61.9462 15.14 62.5222 15.836 63.4582 15.836C64.1902 15.836 64.7062 15.476 64.8622 14.828H66.3382C66.1582 16.208 65.0062 17.156 63.4582 17.156C61.6582 17.156 60.4822 15.908 60.4822 14.024ZM69.1919 17.156C67.9319 17.156 67.1639 16.424 67.1639 15.308C67.1639 14.216 67.9559 13.532 69.3599 13.424L71.1359 13.292V13.16C71.1359 12.356 70.6559 12.032 69.9119 12.032C69.0479 12.032 68.5679 12.392 68.5679 13.016H67.3199C67.3199 11.732 68.3759 10.892 69.9839 10.892C71.5799 10.892 72.5639 11.756 72.5639 13.4V17H71.2799L71.1719 16.124C70.9199 16.736 70.1159 17.156 69.1919 17.156ZM69.6719 16.052C70.5719 16.052 71.1479 15.512 71.1479 14.6V14.288L69.9119 14.384C68.9999 14.468 68.6519 14.768 68.6519 15.248C68.6519 15.788 69.0119 16.052 69.6719 16.052ZM73.5461 15.2H74.9381C74.9501 15.716 75.3341 16.04 76.0061 16.04C76.6901 16.04 77.0621 15.764 77.0621 15.332C77.0621 15.032 76.9061 14.816 76.3781 14.696L75.3101 14.444C74.2421 14.204 73.7261 13.7 73.7261 12.752C73.7261 11.588 74.7101 10.892 76.0781 10.892C77.4101 10.892 78.3101 11.66 78.3221 12.812H76.9301C76.9181 12.308 76.5821 11.984 76.0181 11.984C75.4421 11.984 75.1061 12.248 75.1061 12.692C75.1061 13.028 75.3701 13.244 75.8741 13.364L76.9421 13.616C77.9381 13.844 78.4421 14.3 78.4421 15.212C78.4421 16.412 77.4221 17.156 75.9581 17.156C74.4821 17.156 73.5461 16.364 73.5461 15.2ZM82.2088 17.156C80.4448 17.156 79.2088 15.872 79.2088 14.036C79.2088 12.176 80.4208 10.892 82.1608 10.892C83.9368 10.892 85.0648 12.08 85.0648 13.928V14.372L80.6008 14.384C80.7088 15.428 81.2608 15.956 82.2328 15.956C83.0368 15.956 83.5648 15.644 83.7328 15.08H85.0888C84.8368 16.376 83.7568 17.156 82.2088 17.156ZM82.1728 12.092C81.3088 12.092 80.7808 12.56 80.6368 13.448H83.6128C83.6128 12.632 83.0488 12.092 82.1728 12.092ZM86.2245 14.444V13.148H90.0885V14.444H86.2245ZM93.3618 17H91.8978V12.296H90.7578V11.072H91.8978V9.224H93.3618V11.072H94.5138V12.296H93.3618V17ZM96.156 9.884C95.652 9.884 95.256 9.488 95.256 8.996C95.256 8.504 95.652 8.12 96.156 8.12C96.636 8.12 97.032 8.504 97.032 8.996C97.032 9.488 96.636 9.884 96.156 9.884ZM95.424 17V11.072H96.888V17H95.424ZM98.0525 14.024C98.0525 12.188 99.2645 10.892 101.017 10.892C102.637 10.892 103.741 11.792 103.897 13.22H102.433C102.265 12.548 101.773 12.2 101.077 12.2C100.141 12.2 99.5165 12.908 99.5165 14.024C99.5165 15.14 100.093 15.836 101.029 15.836C101.761 15.836 102.277 15.476 102.433 14.828H103.909C103.729 16.208 102.577 17.156 101.029 17.156C99.2285 17.156 98.0525 15.908 98.0525 14.024ZM106.474 17H105.022V8.072H106.474V13.556L108.778 11.072H110.614L108.358 13.424L110.566 17H108.886L107.338 14.504L106.474 15.404V17Z" fill="black"/>
</svg>
