<svg width="122" height="24" viewBox="0 0 122 24" fill="none" xmlns="http://www.w3.org/2000/svg">
<path d="M9.02 2.84016L3.63 7.04016C2.73 7.74016 2 9.23016 2 10.3602V17.7702C2 20.0902 3.89 21.9902 6.21 21.9902H17.79C20.11 21.9902 22 20.0902 22 17.7802V10.5002C22 9.29016 21.19 7.74016 20.2 7.05016L14.02 2.72016C12.62 1.74016 10.37 1.79016 9.02 2.84016Z" stroke="#1A1A1A" stroke-width="1.5" stroke-linecap="round" stroke-linejoin="round"/>
<path d="M16.5 11.5L12.3 15.7L10.7 13.3L7.5 16.5" stroke="#1A1A1A" stroke-width="1.5" stroke-linecap="round" stroke-linejoin="round"/>
<path d="M14.5 11.5H16.5V13.5" stroke="#1A1A1A" stroke-width="1.5" stroke-linecap="round" stroke-linejoin="round"/>
<path d="M36.508 17H34.972V8.228H36.508V11.852H40.396V8.228H41.932V17H40.396V13.28H36.508V17ZM43.3143 14.024C43.3143 12.176 44.6463 10.904 46.4823 10.904C48.3183 10.904 49.6503 12.176 49.6503 14.024C49.6503 15.872 48.3183 17.144 46.4823 17.144C44.6463 17.144 43.3143 15.872 43.3143 14.024ZM44.7783 14.024C44.7783 15.104 45.4743 15.836 46.4823 15.836C47.4903 15.836 48.1863 15.104 48.1863 14.024C48.1863 12.944 47.4903 12.212 46.4823 12.212C45.4743 12.212 44.7783 12.944 44.7783 14.024ZM52.2747 17H50.8107V11.072H52.1547L52.2747 11.768C52.5747 11.276 53.1747 10.892 54.0267 10.892C54.9267 10.892 55.5507 11.336 55.8627 12.02C56.1627 11.336 56.8587 10.892 57.7587 10.892C59.1987 10.892 59.9907 11.756 59.9907 13.124V17H58.5387V13.508C58.5387 12.656 58.0827 12.212 57.3867 12.212C56.6787 12.212 56.1387 12.668 56.1387 13.64V17H54.6747V13.496C54.6747 12.668 54.2307 12.224 53.5347 12.224C52.8387 12.224 52.2747 12.68 52.2747 13.64V17ZM64.0799 17.156C62.3159 17.156 61.0799 15.872 61.0799 14.036C61.0799 12.176 62.2919 10.892 64.0319 10.892C65.8079 10.892 66.9359 12.08 66.9359 13.928V14.372L62.4719 14.384C62.5799 15.428 63.1319 15.956 64.1039 15.956C64.9079 15.956 65.4359 15.644 65.6039 15.08H66.9599C66.7079 16.376 65.6279 17.156 64.0799 17.156ZM64.0439 12.092C63.1799 12.092 62.6519 12.56 62.5079 13.448H65.4839C65.4839 12.632 64.9199 12.092 64.0439 12.092ZM68.0956 14.444V13.148H71.9596V14.444H68.0956ZM75.2329 17H73.7689V12.296H72.6289V11.072H73.7689V9.224H75.2329V11.072H76.3849V12.296H75.2329V17ZM81.0151 11.048V12.404H80.4751C79.4191 12.404 78.7591 12.968 78.7591 14.12V17H77.2951V11.084H78.6751L78.7591 11.948C79.0111 11.36 79.5751 10.964 80.3671 10.964C80.5711 10.964 80.7751 10.988 81.0151 11.048ZM84.4588 17.156C82.6948 17.156 81.4588 15.872 81.4588 14.036C81.4588 12.176 82.6708 10.892 84.4108 10.892C86.1868 10.892 87.3148 12.08 87.3148 13.928V14.372L82.8508 14.384C82.9588 15.428 83.5108 15.956 84.4828 15.956C85.2868 15.956 85.8148 15.644 85.9828 15.08H87.3388C87.0868 16.376 86.0068 17.156 84.4588 17.156ZM84.4228 12.092C83.5588 12.092 83.0308 12.56 82.8868 13.448H85.8628C85.8628 12.632 85.2988 12.092 84.4228 12.092ZM89.9505 17H88.4865V11.072H89.8425L89.9625 11.84C90.3345 11.24 91.0545 10.892 91.8585 10.892C93.3465 10.892 94.1145 11.816 94.1145 13.352V17H92.6505V13.7C92.6505 12.704 92.1585 12.224 91.4025 12.224C90.5025 12.224 89.9505 12.848 89.9505 13.808V17ZM97.9889 17.156C96.2729 17.156 95.2049 15.896 95.2049 14.06C95.2049 12.212 96.2849 10.892 98.0729 10.892C98.9009 10.892 99.6329 11.24 100.005 11.828V8.072H101.457V17H100.113L100.017 16.076C99.6569 16.76 98.8889 17.156 97.9889 17.156ZM98.3129 15.812C99.3329 15.812 99.9929 15.08 99.9929 14.012C99.9929 12.944 99.3329 12.2 98.3129 12.2C97.2929 12.2 96.6689 12.956 96.6689 14.012C96.6689 15.068 97.2929 15.812 98.3129 15.812ZM102.971 14.444V13.148H106.835V14.444H102.971ZM112.346 11.072H113.81V17H112.454L112.346 16.208C111.986 16.772 111.218 17.156 110.426 17.156C109.058 17.156 108.254 16.232 108.254 14.78V11.072H109.718V14.264C109.718 15.392 110.162 15.848 110.978 15.848C111.902 15.848 112.346 15.308 112.346 14.18V11.072ZM115.322 19.748V11.072H116.678L116.774 11.972C117.134 11.288 117.914 10.892 118.814 10.892C120.482 10.892 121.586 12.104 121.586 13.964C121.586 15.812 120.578 17.156 118.814 17.156C117.926 17.156 117.158 16.808 116.786 16.208V19.748H115.322ZM116.798 14.036C116.798 15.104 117.458 15.836 118.466 15.836C119.498 15.836 120.11 15.092 120.11 14.036C120.11 12.98 119.498 12.224 118.466 12.224C117.458 12.224 116.798 12.968 116.798 14.036Z" fill="black"/>
</svg>
