<svg width="125" height="24" viewBox="0 0 125 24" fill="none" xmlns="http://www.w3.org/2000/svg">
<path d="M15.1 18H8.9C7.9 18 7 17.2 7 16.1V7.9C7 6.8 7.8 6 8.9 6H15.2C16.2 6 17.1 6.8 17.1 7.9V16.2C17 17.2 16.2 18 15.1 18Z" stroke="#1A1A1A" stroke-width="1.5" stroke-miterlimit="10" stroke-linecap="round" stroke-linejoin="round"/>
<path d="M12 8.5V10.5" stroke="#1A1A1A" stroke-width="1.5" stroke-miterlimit="10" stroke-linecap="round" stroke-linejoin="round"/>
<path d="M10 10.5H14" stroke="#1A1A1A" stroke-width="1.5" stroke-miterlimit="10" stroke-linecap="round" stroke-linejoin="round"/>
<path d="M12 15.5V13.5" stroke="#1A1A1A" stroke-width="1.5" stroke-miterlimit="10" stroke-linecap="round" stroke-linejoin="round"/>
<path d="M10 13.5H14" stroke="#1A1A1A" stroke-width="1.5" stroke-miterlimit="10" stroke-linecap="round" stroke-linejoin="round"/>
<path d="M15 22H9C4 22 2 20 2 15V9C2 4 4 2 9 2H15C20 2 22 4 22 9V15C22 20 20 22 15 22Z" stroke="#1A1A1A" stroke-width="1.5" stroke-linecap="round" stroke-linejoin="round"/>
<path d="M34.204 9.644V8.228H40.876V9.644H38.308V17H36.772V9.644H34.204ZM43.2981 17H41.8341V8.072H43.3101V11.84C43.6821 11.264 44.3781 10.892 45.2301 10.892C46.6941 10.892 47.4621 11.816 47.4621 13.352V17H45.9981V13.7C45.9981 12.704 45.5061 12.224 44.7621 12.224C43.8381 12.224 43.2981 12.872 43.2981 13.76V17ZM51.5525 17.156C49.7885 17.156 48.5525 15.872 48.5525 14.036C48.5525 12.176 49.7645 10.892 51.5045 10.892C53.2805 10.892 54.4085 12.08 54.4085 13.928V14.372L49.9445 14.384C50.0525 15.428 50.6045 15.956 51.5765 15.956C52.3805 15.956 52.9085 15.644 53.0765 15.08H54.4325C54.1805 16.376 53.1005 17.156 51.5525 17.156ZM51.5165 12.092C50.6525 12.092 50.1245 12.56 49.9805 13.448H52.9565C52.9565 12.632 52.3925 12.092 51.5165 12.092ZM57.5376 17H56.0736V12.296H54.9336V11.072H56.0736V9.224H57.5376V11.072H58.6896V12.296H57.5376V17ZM61.3286 17.156C60.0686 17.156 59.3006 16.424 59.3006 15.308C59.3006 14.216 60.0926 13.532 61.4966 13.424L63.2726 13.292V13.16C63.2726 12.356 62.7926 12.032 62.0486 12.032C61.1846 12.032 60.7046 12.392 60.7046 13.016H59.4566C59.4566 11.732 60.5126 10.892 62.1206 10.892C63.7166 10.892 64.7006 11.756 64.7006 13.4V17H63.4166L63.3086 16.124C63.0566 16.736 62.2526 17.156 61.3286 17.156ZM61.8086 16.052C62.7086 16.052 63.2846 15.512 63.2846 14.6V14.288L62.0486 14.384C61.1366 14.468 60.7886 14.768 60.7886 15.248C60.7886 15.788 61.1486 16.052 61.8086 16.052ZM66.1268 14.444V13.148H69.9908V14.444H66.1268ZM74.4226 19.292H73.2586C72.0586 17.924 71.2666 15.776 71.2666 13.472C71.2666 11.372 71.9386 9.164 73.2586 7.664H74.4226C73.4266 9.02 72.7426 11.144 72.7426 13.472C72.7426 15.596 73.3306 17.804 74.4226 19.292ZM77.19 17H75.726V12.296H74.586V11.072H75.726V9.224H77.19V11.072H78.342V12.296H77.19V17ZM80.7161 17H79.2521V8.072H80.7281V11.84C81.1001 11.264 81.7961 10.892 82.6481 10.892C84.1121 10.892 84.8801 11.816 84.8801 13.352V17H83.4161V13.7C83.4161 12.704 82.9241 12.224 82.1801 12.224C81.2561 12.224 80.7161 12.872 80.7161 13.76V17ZM88.9705 17.156C87.2065 17.156 85.9705 15.872 85.9705 14.036C85.9705 12.176 87.1825 10.892 88.9225 10.892C90.6985 10.892 91.8265 12.08 91.8265 13.928V14.372L87.3625 14.384C87.4705 15.428 88.0225 15.956 88.9945 15.956C89.7985 15.956 90.3265 15.644 90.4945 15.08H91.8505C91.5985 16.376 90.5185 17.156 88.9705 17.156ZM88.9345 12.092C88.0705 12.092 87.5425 12.56 87.3985 13.448H90.3745C90.3745 12.632 89.8105 12.092 88.9345 12.092ZM94.9556 17H93.4916V12.296H92.3516V11.072H93.4916V9.224H94.9556V11.072H96.1076V12.296H94.9556V17ZM98.7466 17.156C97.4866 17.156 96.7186 16.424 96.7186 15.308C96.7186 14.216 97.5106 13.532 98.9146 13.424L100.691 13.292V13.16C100.691 12.356 100.211 12.032 99.4666 12.032C98.6026 12.032 98.1226 12.392 98.1226 13.016H96.8746C96.8746 11.732 97.9306 10.892 99.5386 10.892C101.135 10.892 102.119 11.756 102.119 13.4V17H100.835L100.727 16.124C100.475 16.736 99.6706 17.156 98.7466 17.156ZM99.2266 16.052C100.127 16.052 100.703 15.512 100.703 14.6V14.288L99.4666 14.384C98.5546 14.468 98.2066 14.768 98.2066 15.248C98.2066 15.788 98.5666 16.052 99.2266 16.052ZM103.965 19.292H102.801C103.905 17.804 104.481 15.596 104.481 13.472C104.481 11.144 103.797 9.02 102.801 7.664H103.965C105.285 9.164 105.969 11.372 105.969 13.472C105.969 15.776 105.165 17.924 103.965 19.292Z" fill="black"/>
</svg>
