<svg width="106" height="24" viewBox="0 0 106 24" fill="none" xmlns="http://www.w3.org/2000/svg">
<path d="M22 11V9C22 4 20 2 15 2H9C4 2 2 4 2 9V15C2 20 4 22 9 22H10" stroke="#1A1A1A" stroke-width="1.5" stroke-linecap="round" stroke-linejoin="round"/>
<path d="M2.03027 8.5H22.0003" stroke="#1A1A1A" stroke-width="1.5" stroke-linecap="round" stroke-linejoin="round"/>
<path d="M2.03027 15.5H12.0003" stroke="#1A1A1A" stroke-width="1.5" stroke-linecap="round" stroke-linejoin="round"/>
<path d="M8.50977 21.99V2.01001" stroke="#1A1A1A" stroke-width="1.5" stroke-linecap="round" stroke-linejoin="round"/>
<path d="M15.5098 11.99V2.01001" stroke="#1A1A1A" stroke-width="1.5" stroke-linecap="round" stroke-linejoin="round"/>
<path d="M18.7995 19.7L16.8995 21.6C16.3795 22.12 15.5195 22.12 14.9895 21.6L13.4095 20.01C12.8895 19.49 12.8895 18.63 13.4095 18.1L15.3095 16.21L18.7995 19.7Z" stroke="#1A1A1A" stroke-width="1.5" stroke-linecap="round" stroke-linejoin="round"/>
<path d="M21.61 16.9L18.8 19.7099L15.3 16.2099L18.11 13.39C18.63 12.87 19.5001 12.87 20.0201 13.39L21.6001 14.98C22.1301 15.51 22.13 16.38 21.61 16.9Z" stroke="#1A1A1A" stroke-width="1.5" stroke-linecap="round" stroke-linejoin="round"/>
<path d="M41.812 8.524C40.072 8.524 39.076 9.784 39.076 11.68C39.076 13.636 40.204 14.704 41.824 14.704C43.348 14.704 44.272 13.864 44.272 12.46V12.424H41.62V11.068H45.7V16H44.404L44.308 14.992C43.828 15.664 42.832 16.132 41.644 16.132C39.184 16.132 37.468 14.344 37.468 11.644C37.468 8.98 39.208 7.084 41.848 7.084C43.852 7.084 45.4 8.248 45.652 10.036H44.032C43.756 9.004 42.868 8.524 41.812 8.524ZM50.8627 10.048V11.404H50.3227C49.2667 11.404 48.6067 11.968 48.6067 13.12V16H47.1427V10.084H48.5227L48.6067 10.948C48.8587 10.36 49.4227 9.964 50.2147 9.964C50.4187 9.964 50.6227 9.988 50.8627 10.048ZM52.5857 8.884C52.0817 8.884 51.6857 8.488 51.6857 7.996C51.6857 7.504 52.0817 7.12 52.5857 7.12C53.0657 7.12 53.4617 7.504 53.4617 7.996C53.4617 8.488 53.0657 8.884 52.5857 8.884ZM51.8537 16V10.072H53.3177V16H51.8537ZM57.2662 16.156C55.5502 16.156 54.4822 14.896 54.4822 13.06C54.4822 11.212 55.5622 9.892 57.3502 9.892C58.1782 9.892 58.9102 10.24 59.2822 10.828V7.072H60.7342V16H59.3902L59.2942 15.076C58.9342 15.76 58.1662 16.156 57.2662 16.156ZM57.5902 14.812C58.6102 14.812 59.2702 14.08 59.2702 13.012C59.2702 11.944 58.6102 11.2 57.5902 11.2C56.5702 11.2 55.9462 11.956 55.9462 13.012C55.9462 14.068 56.5702 14.812 57.5902 14.812ZM62.2479 13.444V12.148H66.1119V13.444H62.2479ZM70.2557 16.156C68.4917 16.156 67.2557 14.872 67.2557 13.036C67.2557 11.176 68.4677 9.892 70.2077 9.892C71.9837 9.892 73.1117 11.08 73.1117 12.928V13.372L68.6477 13.384C68.7557 14.428 69.3077 14.956 70.2797 14.956C71.0837 14.956 71.6117 14.644 71.7797 14.08H73.1357C72.8837 15.376 71.8037 16.156 70.2557 16.156ZM70.2197 11.092C69.3557 11.092 68.8277 11.56 68.6837 12.448H71.6597C71.6597 11.632 71.0957 11.092 70.2197 11.092ZM78.0033 10.048V11.404H77.4633C76.4073 11.404 75.7473 11.968 75.7473 13.12V16H74.2833V10.084H75.6633L75.7473 10.948C75.9993 10.36 76.5633 9.964 77.3553 9.964C77.5593 9.964 77.7633 9.988 78.0033 10.048ZM80.5239 16.156C79.2639 16.156 78.4959 15.424 78.4959 14.308C78.4959 13.216 79.2879 12.532 80.6919 12.424L82.4679 12.292V12.16C82.4679 11.356 81.9879 11.032 81.2439 11.032C80.3799 11.032 79.8999 11.392 79.8999 12.016H78.6519C78.6519 10.732 79.7079 9.892 81.3159 9.892C82.9119 9.892 83.8959 10.756 83.8959 12.4V16H82.6119L82.5039 15.124C82.2519 15.736 81.4479 16.156 80.5239 16.156ZM81.0039 15.052C81.9039 15.052 82.4799 14.512 82.4799 13.6V13.288L81.2439 13.384C80.3319 13.468 79.9839 13.768 79.9839 14.248C79.9839 14.788 80.3439 15.052 81.0039 15.052ZM84.8781 14.2H86.2701C86.2821 14.716 86.6661 15.04 87.3381 15.04C88.0221 15.04 88.3941 14.764 88.3941 14.332C88.3941 14.032 88.2381 13.816 87.7101 13.696L86.6421 13.444C85.5741 13.204 85.0581 12.7 85.0581 11.752C85.0581 10.588 86.0421 9.892 87.4101 9.892C88.7421 9.892 89.6421 10.66 89.6541 11.812H88.2621C88.2501 11.308 87.9141 10.984 87.3501 10.984C86.7741 10.984 86.4381 11.248 86.4381 11.692C86.4381 12.028 86.7021 12.244 87.2061 12.364L88.2741 12.616C89.2701 12.844 89.7741 13.3 89.7741 14.212C89.7741 15.412 88.7541 16.156 87.2901 16.156C85.8141 16.156 84.8781 15.364 84.8781 14.2ZM93.5408 16.156C91.7768 16.156 90.5408 14.872 90.5408 13.036C90.5408 11.176 91.7528 9.892 93.4928 9.892C95.2688 9.892 96.3968 11.08 96.3968 12.928V13.372L91.9328 13.384C92.0408 14.428 92.5928 14.956 93.5648 14.956C94.3688 14.956 94.8968 14.644 95.0648 14.08H96.4208C96.1688 15.376 95.0888 16.156 93.5408 16.156ZM93.5048 11.092C92.6408 11.092 92.1128 11.56 91.9688 12.448H94.9448C94.9448 11.632 94.3808 11.092 93.5048 11.092ZM101.289 10.048V11.404H100.749C99.6925 11.404 99.0325 11.968 99.0325 13.12V16H97.5685V10.084H98.9485L99.0325 10.948C99.2845 10.36 99.8485 9.964 100.641 9.964C100.845 9.964 101.049 9.988 101.289 10.048Z" fill="black"/>
</svg>
