<svg width="109" height="24" viewBox="0 0 109 24" fill="none" xmlns="http://www.w3.org/2000/svg">
<path d="M15 8.37003V7.41003C15 4.43003 12.93 3.29003 10.41 4.87003L7.49 6.70003C7.17 6.89003 6.8 7.00003 6.43 7.00003H5C3 7.00003 2 8.00003 2 10V14C2 16 3 17 5 17H7" stroke="#1A1A1A" stroke-width="1.5" stroke-linecap="round" stroke-linejoin="round"/>
<path d="M10.4102 19.13C12.9302 20.71 15.0002 19.56 15.0002 16.59V12.95" stroke="#1A1A1A" stroke-width="1.5" stroke-linecap="round" stroke-linejoin="round"/>
<path d="M18.81 9.41992C19.71 11.5699 19.44 14.0799 18 15.9999" stroke="#1A1A1A" stroke-width="1.5" stroke-linecap="round" stroke-linejoin="round"/>
<path d="M21.1501 7.80005C22.6201 11.29 22.1801 15.37 19.8301 18.5" stroke="#1A1A1A" stroke-width="1.5" stroke-linecap="round" stroke-linejoin="round"/>
<path d="M22 2L2 22" stroke="#1A1A1A" stroke-width="1.5" stroke-linecap="round" stroke-linejoin="round"/>
<path d="M37.432 17L34.12 8.228H35.752L37.672 13.28C37.864 13.808 38.032 14.324 38.224 15.032C38.44 14.264 38.62 13.724 38.788 13.28L40.684 8.228H42.28L39.016 17H37.432ZM41.8025 14.024C41.8025 12.176 43.1345 10.904 44.9705 10.904C46.8065 10.904 48.1385 12.176 48.1385 14.024C48.1385 15.872 46.8065 17.144 44.9705 17.144C43.1345 17.144 41.8025 15.872 41.8025 14.024ZM43.2665 14.024C43.2665 15.104 43.9625 15.836 44.9705 15.836C45.9785 15.836 46.6745 15.104 46.6745 14.024C46.6745 12.944 45.9785 12.212 44.9705 12.212C43.9625 12.212 43.2665 12.944 43.2665 14.024ZM50.775 17H49.323V8.072H50.775V17ZM56.3307 11.072H57.7947V17H56.4387L56.3307 16.208C55.9707 16.772 55.2027 17.156 54.4107 17.156C53.0427 17.156 52.2387 16.232 52.2387 14.78V11.072H53.7027V14.264C53.7027 15.392 54.1467 15.848 54.9627 15.848C55.8867 15.848 56.3307 15.308 56.3307 14.18V11.072ZM60.7708 17H59.3068V11.072H60.6508L60.7708 11.768C61.0708 11.276 61.6708 10.892 62.5228 10.892C63.4228 10.892 64.0468 11.336 64.3588 12.02C64.6588 11.336 65.3548 10.892 66.2548 10.892C67.6948 10.892 68.4868 11.756 68.4868 13.124V17H67.0348V13.508C67.0348 12.656 66.5788 12.212 65.8828 12.212C65.1748 12.212 64.6348 12.668 64.6348 13.64V17H63.1708V13.496C63.1708 12.668 62.7268 12.224 62.0308 12.224C61.3348 12.224 60.7708 12.68 60.7708 13.64V17ZM72.576 17.156C70.812 17.156 69.576 15.872 69.576 14.036C69.576 12.176 70.788 10.892 72.528 10.892C74.304 10.892 75.432 12.08 75.432 13.928V14.372L70.968 14.384C71.076 15.428 71.628 15.956 72.6 15.956C73.404 15.956 73.932 15.644 74.1 15.08H75.456C75.204 16.376 74.124 17.156 72.576 17.156ZM72.54 12.092C71.676 12.092 71.148 12.56 71.004 13.448H73.98C73.98 12.632 73.416 12.092 72.54 12.092ZM76.5917 14.444V13.148H80.4557V14.444H76.5917ZM81.4094 15.2H82.8014C82.8134 15.716 83.1974 16.04 83.8694 16.04C84.5534 16.04 84.9254 15.764 84.9254 15.332C84.9254 15.032 84.7694 14.816 84.2414 14.696L83.1734 14.444C82.1054 14.204 81.5894 13.7 81.5894 12.752C81.5894 11.588 82.5734 10.892 83.9414 10.892C85.2734 10.892 86.1734 11.66 86.1854 12.812H84.7934C84.7814 12.308 84.4454 11.984 83.8814 11.984C83.3054 11.984 82.9694 12.248 82.9694 12.692C82.9694 13.028 83.2334 13.244 83.7374 13.364L84.8054 13.616C85.8014 13.844 86.3054 14.3 86.3054 15.212C86.3054 16.412 85.2854 17.156 83.8214 17.156C82.3454 17.156 81.4094 16.364 81.4094 15.2ZM88.8961 17H87.4441V8.072H88.8961V17ZM92.1958 17.156C90.9358 17.156 90.1678 16.424 90.1678 15.308C90.1678 14.216 90.9598 13.532 92.3638 13.424L94.1398 13.292V13.16C94.1398 12.356 93.6598 12.032 92.9158 12.032C92.0518 12.032 91.5718 12.392 91.5718 13.016H90.3238C90.3238 11.732 91.3798 10.892 92.9878 10.892C94.5838 10.892 95.5678 11.756 95.5678 13.4V17H94.2838L94.1758 16.124C93.9238 16.736 93.1198 17.156 92.1958 17.156ZM92.6758 16.052C93.5758 16.052 94.1518 15.512 94.1518 14.6V14.288L92.9158 14.384C92.0038 14.468 91.6558 14.768 91.6558 15.248C91.6558 15.788 92.0158 16.052 92.6758 16.052ZM96.55 15.2H97.942C97.954 15.716 98.338 16.04 99.01 16.04C99.694 16.04 100.066 15.764 100.066 15.332C100.066 15.032 99.91 14.816 99.382 14.696L98.314 14.444C97.246 14.204 96.73 13.7 96.73 12.752C96.73 11.588 97.714 10.892 99.082 10.892C100.414 10.892 101.314 11.66 101.326 12.812H99.934C99.922 12.308 99.586 11.984 99.022 11.984C98.446 11.984 98.11 12.248 98.11 12.692C98.11 13.028 98.374 13.244 98.878 13.364L99.946 13.616C100.942 13.844 101.446 14.3 101.446 15.212C101.446 16.412 100.426 17.156 98.962 17.156C97.486 17.156 96.55 16.364 96.55 15.2ZM104.025 17H102.561V8.072H104.037V11.84C104.409 11.264 105.105 10.892 105.957 10.892C107.421 10.892 108.189 11.816 108.189 13.352V17H106.725V13.7C106.725 12.704 106.233 12.224 105.489 12.224C104.565 12.224 104.025 12.872 104.025 13.76V17Z" fill="black"/>
</svg>
