<svg width="101" height="24" viewBox="0 0 101 24" fill="none" xmlns="http://www.w3.org/2000/svg">
<path d="M15 2V12C15 13.1 14.1 14 13 14H2V7.62C2.73 8.49 3.85003 9.03 5.09003 9C6.10003 8.98 7.01 8.59 7.69 7.94C8 7.68 8.26002 7.34999 8.46002 6.98999C8.82002 6.37999 9.02 5.65997 9 4.90997C8.97 3.73997 8.45001 2.71 7.64001 2H15Z" stroke="#1A1A1A" stroke-width="1.5" stroke-linecap="round" stroke-linejoin="round"/>
<path d="M22 14V17C22 18.66 20.66 20 19 20H18C18 18.9 17.1 18 16 18C14.9 18 14 18.9 14 20H10C10 18.9 9.1 18 8 18C6.9 18 6 18.9 6 20H5C3.34 20 2 18.66 2 17V14H13C14.1 14 15 13.1 15 12V5H16.84C17.56 5 18.22 5.39001 18.58 6.01001L20.29 9H19C18.45 9 18 9.45 18 10V13C18 13.55 18.45 14 19 14H22Z" stroke="#1A1A1A" stroke-width="1.5" stroke-linecap="round" stroke-linejoin="round"/>
<path d="M8 22C9.10457 22 10 21.1046 10 20C10 18.8954 9.10457 18 8 18C6.89543 18 6 18.8954 6 20C6 21.1046 6.89543 22 8 22Z" stroke="#1A1A1A" stroke-width="1.5" stroke-linecap="round" stroke-linejoin="round"/>
<path d="M16 22C17.1046 22 18 21.1046 18 20C18 18.8954 17.1046 18 16 18C14.8954 18 14 18.8954 14 20C14 21.1046 14.8954 22 16 22Z" stroke="#1A1A1A" stroke-width="1.5" stroke-linecap="round" stroke-linejoin="round"/>
<path d="M22 12V14H19C18.45 14 18 13.55 18 13V10C18 9.45 18.45 9 19 9H20.29L22 12Z" stroke="#1A1A1A" stroke-width="1.5" stroke-linecap="round" stroke-linejoin="round"/>
<path d="M9 5C9 6.2 8.47001 7.27 7.64001 8C6.93001 8.62 6.01 9 5 9C2.79 9 1 7.21 1 5C1 3.74 1.58 2.61 2.5 1.88C3.19 1.33 4.06 1 5 1C7.21 1 9 2.79 9 5Z" stroke="#1A1A1A" stroke-width="1.5" stroke-miterlimit="10" stroke-linecap="round" stroke-linejoin="round"/>
<path d="M5.25 3.75V5.25L4 6" stroke="#1A1A1A" stroke-width="1.5" stroke-miterlimit="10" stroke-linecap="round" stroke-linejoin="round"/>
<path d="M36.772 16H35.308V11.296H34.168V10.072H35.308V8.224H36.772V10.072H37.924V11.296H36.772V16ZM42.5541 10.048V11.404H42.0141C40.9581 11.404 40.2981 11.968 40.2981 13.12V16H38.8341V10.084H40.2141L40.2981 10.948C40.5501 10.36 41.1141 9.964 41.9061 9.964C42.1101 9.964 42.3141 9.988 42.5541 10.048ZM47.5651 10.072H49.0291V16H47.6731L47.5651 15.208C47.2051 15.772 46.4371 16.156 45.6451 16.156C44.2771 16.156 43.4731 15.232 43.4731 13.78V10.072H44.9371V13.264C44.9371 14.392 45.3811 14.848 46.1971 14.848C47.1211 14.848 47.5651 14.308 47.5651 13.18V10.072ZM50.076 13.024C50.076 11.188 51.288 9.892 53.04 9.892C54.66 9.892 55.764 10.792 55.92 12.22H54.456C54.288 11.548 53.796 11.2 53.1 11.2C52.164 11.2 51.54 11.908 51.54 13.024C51.54 14.14 52.116 14.836 53.052 14.836C53.784 14.836 54.3 14.476 54.456 13.828H55.932C55.752 15.208 54.6 16.156 53.052 16.156C51.252 16.156 50.076 14.908 50.076 13.024ZM58.4976 16H57.0456V7.072H58.4976V12.556L60.8016 10.072H62.6376L60.3816 12.424L62.5896 16H60.9096L59.3616 13.504L58.4976 14.404V16ZM62.6932 13.444V12.148H66.5572V13.444H62.6932ZM69.8306 16H68.3666V11.296H67.2266V10.072H68.3666V8.224H69.8306V10.072H70.9826V11.296H69.8306V16ZM72.6247 8.884C72.1207 8.884 71.7247 8.488 71.7247 7.996C71.7247 7.504 72.1207 7.12 72.6247 7.12C73.1047 7.12 73.5007 7.504 73.5007 7.996C73.5007 8.488 73.1047 8.884 72.6247 8.884ZM71.8927 16V10.072H73.3567V16H71.8927ZM76.3333 16H74.8693V10.072H76.2133L76.3333 10.768C76.6333 10.276 77.2333 9.892 78.0853 9.892C78.9853 9.892 79.6093 10.336 79.9213 11.02C80.2213 10.336 80.9173 9.892 81.8173 9.892C83.2573 9.892 84.0493 10.756 84.0493 12.124V16H82.5973V12.508C82.5973 11.656 82.1413 11.212 81.4453 11.212C80.7373 11.212 80.1973 11.668 80.1973 12.64V16H78.7333V12.496C78.7333 11.668 78.2893 11.224 77.5933 11.224C76.8973 11.224 76.3333 11.68 76.3333 12.64V16ZM88.1385 16.156C86.3745 16.156 85.1385 14.872 85.1385 13.036C85.1385 11.176 86.3505 9.892 88.0905 9.892C89.8665 9.892 90.9945 11.08 90.9945 12.928V13.372L86.5305 13.384C86.6385 14.428 87.1905 14.956 88.1625 14.956C88.9665 14.956 89.4945 14.644 89.6625 14.08H91.0185C90.7665 15.376 89.6865 16.156 88.1385 16.156ZM88.1025 11.092C87.2385 11.092 86.7105 11.56 86.5665 12.448H89.5425C89.5425 11.632 88.9785 11.092 88.1025 11.092Z" fill="black"/>
</svg>
