<svg width="102" height="24" viewBox="0 0 102 24" fill="none" xmlns="http://www.w3.org/2000/svg">
<path d="M16 9C16 12.87 12.87 16 9 16C8.68 16 8.37 15.98 8.07 15.93C4.64 15.48 2 12.55 2 9C2 5.13 5.13 2 9 2C12.55 2 15.48 4.64 15.93 8.07C15.98 8.37 16 8.68 16 9Z" stroke="#1A1A1A" stroke-width="1.5" stroke-linecap="round" stroke-linejoin="round"/>
<path d="M22.0003 15.0001C22.0003 18.8701 18.8703 22.0001 15.0003 22.0001C11.4503 22.0001 8.52031 19.3601 8.07031 15.9301C8.37031 15.9801 8.68031 16.0001 9.00031 16.0001C12.8703 16.0001 16.0003 12.8701 16.0003 9.00007C16.0003 8.68007 15.9803 8.37007 15.9303 8.07007C19.3603 8.52007 22.0003 11.4501 22.0003 15.0001Z" stroke="#1A1A1A" stroke-width="1.5" stroke-linecap="round" stroke-linejoin="round"/>
<path d="M14.1504 14.1201L15.4604 15.4101" stroke="#1A1A1A" stroke-width="1.5" stroke-linecap="round" stroke-linejoin="round"/>
<path d="M17 12L16 11" stroke="#1A1A1A" stroke-width="1.5" stroke-linecap="round" stroke-linejoin="round"/>
<path d="M12 17L11 16" stroke="#1A1A1A" stroke-width="1.5" stroke-linecap="round" stroke-linejoin="round"/>
<path d="M34.972 16V7.228H38.464C40.192 7.228 41.248 8.128 41.248 9.592C41.248 10.564 40.816 11.26 39.988 11.608C40.912 11.908 41.38 12.604 41.38 13.624C41.38 15.124 40.336 16 38.524 16H34.972ZM38.332 8.584H36.508V10.972H38.368C39.208 10.972 39.676 10.528 39.676 9.748C39.676 8.992 39.196 8.584 38.332 8.584ZM38.464 12.268H36.508V14.644H38.464C39.328 14.644 39.808 14.224 39.808 13.432C39.808 12.688 39.316 12.268 38.464 12.268ZM44.0484 16H42.5964V7.072H44.0484V16ZM48.2361 16.156C46.4721 16.156 45.2361 14.872 45.2361 13.036C45.2361 11.176 46.4481 9.892 48.1881 9.892C49.9641 9.892 51.0921 11.08 51.0921 12.928V13.372L46.6281 13.384C46.7361 14.428 47.2881 14.956 48.2601 14.956C49.0641 14.956 49.5921 14.644 49.7601 14.08H51.1161C50.8641 15.376 49.7841 16.156 48.2361 16.156ZM48.2001 11.092C47.3361 11.092 46.8081 11.56 46.6641 12.448H49.6401C49.6401 11.632 49.0761 11.092 48.2001 11.092ZM53.7278 16H52.2638V10.072H53.6198L53.7398 10.84C54.1118 10.24 54.8318 9.892 55.6358 9.892C57.1238 9.892 57.8918 10.816 57.8918 12.352V16H56.4278V12.7C56.4278 11.704 55.9358 11.224 55.1798 11.224C54.2798 11.224 53.7278 11.848 53.7278 12.808V16ZM61.7662 16.156C60.0502 16.156 58.9822 14.896 58.9822 13.06C58.9822 11.212 60.0622 9.892 61.8502 9.892C62.6782 9.892 63.4102 10.24 63.7822 10.828V7.072H65.2342V16H63.8902L63.7942 15.076C63.4342 15.76 62.6662 16.156 61.7662 16.156ZM62.0902 14.812C63.1102 14.812 63.7702 14.08 63.7702 13.012C63.7702 11.944 63.1102 11.2 62.0902 11.2C61.0702 11.2 60.4462 11.956 60.4462 13.012C60.4462 14.068 61.0702 14.812 62.0902 14.812ZM66.7479 13.444V12.148H70.6119V13.444H66.7479ZM77.2102 15.988L71.1262 16V14.848L73.9942 12.424C75.1822 11.416 75.5782 10.84 75.5782 10C75.5782 9.004 75.0382 8.44 74.1142 8.44C73.1542 8.44 72.5542 9.112 72.5422 10.24H71.0182C71.0302 8.32 72.2542 7.072 74.1142 7.072C75.9862 7.072 77.1502 8.14 77.1502 9.916C77.1502 11.14 76.4782 12.064 75.1462 13.204L73.5622 14.56H77.2102V15.988Z" fill="black"/>
</svg>
