<svg width="101" height="24" viewBox="0 0 101 24" fill="none" xmlns="http://www.w3.org/2000/svg">
<path d="M12.6103 2.21C12.2503 1.93 11.7503 1.93 11.3903 2.21C9.49029 3.66 3.88028 8.39 3.91028 13.9C3.91028 18.36 7.54028 22 12.0103 22C16.4803 22 20.1103 18.37 20.1103 13.91C20.1203 8.48 14.5003 3.67 12.6103 2.21Z" stroke="#1A1A1A" stroke-width="1.5" stroke-miterlimit="10"/>
<path d="M38.128 16H34.972V7.228H38.044C40.636 7.228 42.424 9.016 42.424 11.632C42.424 14.212 40.672 16 38.128 16ZM37.9 8.644H36.508V14.584H37.984C39.736 14.584 40.804 13.456 40.804 11.632C40.804 9.772 39.712 8.644 37.9 8.644ZM47.3588 10.048V11.404H46.8188C45.7628 11.404 45.1028 11.968 45.1028 13.12V16H43.6388V10.084H45.0188L45.1028 10.948C45.3548 10.36 45.9188 9.964 46.7108 9.964C46.9148 9.964 47.1188 9.988 47.3588 10.048ZM47.8025 13.024C47.8025 11.176 49.1345 9.904 50.9705 9.904C52.8065 9.904 54.1385 11.176 54.1385 13.024C54.1385 14.872 52.8065 16.144 50.9705 16.144C49.1345 16.144 47.8025 14.872 47.8025 13.024ZM49.2665 13.024C49.2665 14.104 49.9625 14.836 50.9705 14.836C51.9785 14.836 52.6745 14.104 52.6745 13.024C52.6745 11.944 51.9785 11.212 50.9705 11.212C49.9625 11.212 49.2665 11.944 49.2665 13.024ZM55.299 18.748V10.072H56.655L56.751 10.972C57.111 10.288 57.891 9.892 58.791 9.892C60.459 9.892 61.563 11.104 61.563 12.964C61.563 14.812 60.555 16.156 58.791 16.156C57.903 16.156 57.135 15.808 56.763 15.208V18.748H55.299ZM56.775 13.036C56.775 14.104 57.435 14.836 58.443 14.836C59.475 14.836 60.087 14.092 60.087 13.036C60.087 11.98 59.475 11.224 58.443 11.224C57.435 11.224 56.775 11.968 56.775 13.036Z" fill="black"/>
</svg>
