<svg width="132" height="24" viewBox="0 0 132 24" fill="none" xmlns="http://www.w3.org/2000/svg">
<path d="M4.40476 15.5264L8.93476 20.0564C10.7948 21.9164 13.8148 21.9164 15.6848 20.0564L20.0748 15.6664C21.9348 13.8064 21.9348 10.7864 20.0748 8.91637L15.5348 4.39637C14.5848 3.44637 13.2748 2.93637 11.9348 3.00637L6.93476 3.24637C4.93476 3.33637 3.34476 4.92637 3.24476 6.91637L3.00476 11.9164C2.94476 13.2664 3.45476 14.5764 4.40476 15.5264Z" stroke="#1A1A1A" stroke-width="1.5" stroke-linecap="round" stroke-linejoin="round"/>
<path d="M9.73438 12.2263C11.1151 12.2263 12.2344 11.107 12.2344 9.72632C12.2344 8.34561 11.1151 7.22632 9.73438 7.22632C8.35366 7.22632 7.23438 8.34561 7.23438 9.72632C7.23438 11.107 8.35366 12.2263 9.73438 12.2263Z" stroke="#1A1A1A" stroke-width="1.5" stroke-linecap="round"/>
<path d="M13.2344 17.2263L17.2344 13.2263" stroke="#1A1A1A" stroke-width="1.5" stroke-miterlimit="10" stroke-linecap="round" stroke-linejoin="round"/>
<path d="M34.204 8.644V7.228H40.876V8.644H38.308V16H36.772V8.644H34.204ZM42.5903 16.156C41.3303 16.156 40.5623 15.424 40.5623 14.308C40.5623 13.216 41.3543 12.532 42.7583 12.424L44.5343 12.292V12.16C44.5343 11.356 44.0543 11.032 43.3103 11.032C42.4463 11.032 41.9663 11.392 41.9663 12.016H40.7183C40.7183 10.732 41.7743 9.892 43.3823 9.892C44.9783 9.892 45.9623 10.756 45.9623 12.4V16H44.6783L44.5703 15.124C44.3183 15.736 43.5143 16.156 42.5903 16.156ZM43.0703 15.052C43.9703 15.052 44.5463 14.512 44.5463 13.6V13.288L43.3103 13.384C42.3983 13.468 42.0503 13.768 42.0503 14.248C42.0503 14.788 42.4103 15.052 43.0703 15.052ZM47.0645 12.904C47.0645 11.176 48.1925 9.88 49.8845 9.88C50.7725 9.88 51.4685 10.252 51.8165 10.888L51.9005 10.072H53.2565V15.7C53.2565 17.68 52.0685 18.916 50.1485 18.916C48.4445 18.916 47.2805 17.944 47.1005 16.36H48.5645C48.6605 17.128 49.2485 17.584 50.1485 17.584C51.1565 17.584 51.8045 16.948 51.8045 15.964V14.98C51.4325 15.532 50.7005 15.88 49.8485 15.88C48.1685 15.88 47.0645 14.62 47.0645 12.904ZM48.5405 12.868C48.5405 13.864 49.1765 14.608 50.1365 14.608C51.1445 14.608 51.7685 13.9 51.7685 12.868C51.7685 11.86 51.1565 11.164 50.1365 11.164C49.1645 11.164 48.5405 11.896 48.5405 12.868ZM54.7596 13.444V12.148H58.6236V13.444H54.7596ZM65.2219 15.988L59.1379 16V14.848L62.0059 12.424C63.1939 11.416 63.5899 10.84 63.5899 10C63.5899 9.004 63.0499 8.44 62.1259 8.44C61.1659 8.44 60.5659 9.112 60.5539 10.24H59.0299C59.0419 8.32 60.2659 7.072 62.1259 7.072C63.9979 7.072 65.1619 8.14 65.1619 9.916C65.1619 11.14 64.4899 12.064 63.1579 13.204L61.5739 14.56H65.2219V15.988Z" fill="black"/>
</svg>
