<svg width="99" height="24" viewBox="0 0 99 24" fill="none" xmlns="http://www.w3.org/2000/svg">
<path d="M5 15V8" stroke="#1A1A1A" stroke-width="1.5" stroke-linecap="round" stroke-linejoin="round"/>
<path d="M5.25 22C7.04493 22 8.5 20.5449 8.5 18.75C8.5 16.9551 7.04493 15.5 5.25 15.5C3.45507 15.5 2 16.9551 2 18.75C2 20.5449 3.45507 22 5.25 22Z" stroke="#1A1A1A" stroke-width="1.5" stroke-linecap="round" stroke-linejoin="round"/>
<path d="M5 8C6.65685 8 8 6.65685 8 5C8 3.34315 6.65685 2 5 2C3.34315 2 2 3.34315 2 5C2 6.65685 3.34315 8 5 8Z" stroke="#1A1A1A" stroke-width="1.5" stroke-linecap="round" stroke-linejoin="round"/>
<path d="M19 8C20.6569 8 22 6.65685 22 5C22 3.34315 20.6569 2 19 2C17.3431 2 16 3.34315 16 5C16 6.65685 17.3431 8 19 8Z" stroke="#1A1A1A" stroke-width="1.5" stroke-linecap="round" stroke-linejoin="round"/>
<path d="M5.12988 15C5.57988 13.25 7.17988 11.95 9.06988 11.96L12.4999 11.97C15.1199 11.98 17.3499 10.3 18.1699 7.95996" stroke="#1A1A1A" stroke-width="1.5" stroke-linecap="round" stroke-linejoin="round"/>
<path d="M36.508 16H34.972V7.228H36.508V10.852H40.396V7.228H41.932V16H40.396V12.28H36.508V16ZM44.3943 8.884C43.8903 8.884 43.4943 8.488 43.4943 7.996C43.4943 7.504 43.8903 7.12 44.3943 7.12C44.8743 7.12 45.2703 7.504 45.2703 7.996C45.2703 8.488 44.8743 8.884 44.3943 8.884ZM43.6623 16V10.072H45.1263V16H43.6623ZM49.2908 16.156C47.5268 16.156 46.2908 14.872 46.2908 13.036C46.2908 11.176 47.5028 9.892 49.2428 9.892C51.0188 9.892 52.1468 11.08 52.1468 12.928V13.372L47.6828 13.384C47.7908 14.428 48.3428 14.956 49.3148 14.956C50.1188 14.956 50.6468 14.644 50.8148 14.08H52.1708C51.9188 15.376 50.8388 16.156 49.2908 16.156ZM49.2548 11.092C48.3908 11.092 47.8628 11.56 47.7188 12.448H50.6948C50.6948 11.632 50.1308 11.092 49.2548 11.092ZM57.0385 10.048V11.404H56.4985C55.4425 11.404 54.7825 11.968 54.7825 13.12V16H53.3185V10.084H54.6985L54.7825 10.948C55.0345 10.36 55.5985 9.964 56.3905 9.964C56.5945 9.964 56.7985 9.988 57.0385 10.048ZM59.5591 16.156C58.2991 16.156 57.5311 15.424 57.5311 14.308C57.5311 13.216 58.3231 12.532 59.7271 12.424L61.5031 12.292V12.16C61.5031 11.356 61.0231 11.032 60.2791 11.032C59.4151 11.032 58.9351 11.392 58.9351 12.016H57.6871C57.6871 10.732 58.7431 9.892 60.3511 9.892C61.9471 9.892 62.9311 10.756 62.9311 12.4V16H61.6471L61.5391 15.124C61.2871 15.736 60.4831 16.156 59.5591 16.156ZM60.0391 15.052C60.9391 15.052 61.5151 14.512 61.5151 13.6V13.288L60.2791 13.384C59.3671 13.468 59.0191 13.768 59.0191 14.248C59.0191 14.788 59.3791 15.052 60.0391 15.052ZM68.0893 10.048V11.404H67.5493C66.4933 11.404 65.8333 11.968 65.8333 13.12V16H64.3693V10.084H65.7493L65.8333 10.948C66.0853 10.36 66.6493 9.964 67.4413 9.964C67.6453 9.964 67.8493 9.988 68.0893 10.048ZM68.533 13.024C68.533 11.188 69.745 9.892 71.497 9.892C73.117 9.892 74.221 10.792 74.377 12.22H72.913C72.745 11.548 72.253 11.2 71.557 11.2C70.621 11.2 69.997 11.908 69.997 13.024C69.997 14.14 70.573 14.836 71.509 14.836C72.241 14.836 72.757 14.476 72.913 13.828H74.389C74.209 15.208 73.057 16.156 71.509 16.156C69.709 16.156 68.533 14.908 68.533 13.024ZM76.9427 16H75.4787V7.072H76.9547V10.84C77.3267 10.264 78.0227 9.892 78.8747 9.892C80.3387 9.892 81.1067 10.816 81.1067 12.352V16H79.6427V12.7C79.6427 11.704 79.1507 11.224 78.4067 11.224C77.4827 11.224 76.9427 11.872 76.9427 12.76V16ZM81.9119 18.748V17.524H82.7879C83.3639 17.524 83.7239 17.392 83.9759 16.696L84.1439 16.252L81.7559 10.072H83.3039L84.8279 14.392L86.4359 10.072H87.9479L85.0439 17.32C84.5999 18.424 83.9759 18.88 83.0039 18.88C82.5959 18.88 82.2359 18.832 81.9119 18.748ZM88.3573 13.444V12.148H92.2213V13.444H88.3573ZM98.8196 15.988L92.7356 16V14.848L95.6036 12.424C96.7916 11.416 97.1876 10.84 97.1876 10C97.1876 9.004 96.6476 8.44 95.7236 8.44C94.7636 8.44 94.1636 9.112 94.1516 10.24H92.6276C92.6396 8.32 93.8636 7.072 95.7236 7.072C97.5956 7.072 98.7596 8.14 98.7596 9.916C98.7596 11.14 98.0876 12.064 96.7556 13.204L95.1716 14.56H98.8196V15.988Z" fill="black"/>
</svg>
