<svg width="103" height="24" viewBox="0 0 103 24" fill="none" xmlns="http://www.w3.org/2000/svg">
<path d="M21.97 18.33C21.97 18.69 21.89 19.06 21.72 19.42C21.55 19.78 21.33 20.12 21.04 20.44C20.55 20.98 20.01 21.37 19.4 21.62C18.8 21.87 18.15 22 17.45 22C16.43 22 15.34 21.76 14.19 21.27C13.04 20.78 11.89 20.12 10.75 19.29C9.6 18.45 8.51 17.52 7.47 16.49C6.44 15.45 5.51 14.36 4.68 13.22C3.86 12.08 3.2 10.94 2.72 9.81C2.24 8.67 2 7.58 2 6.54C2 5.86 2.12 5.21 2.36 4.61C2.6 4 2.98 3.44 3.51 2.94C4.15 2.31 4.85 2 5.59 2C5.87 2 6.15 2.06 6.4 2.18C6.66 2.3 6.89 2.48 7.07 2.74L9.39 6.01C9.57 6.26 9.7 6.49 9.79 6.71C9.88 6.92 9.93 7.13 9.93 7.32C9.93 7.56 9.86 7.8 9.72 8.03C9.59 8.26 9.4 8.5 9.16 8.74L8.4 9.53C8.29 9.64 8.24 9.77 8.24 9.93C8.24 10.01 8.25 10.08 8.27 10.16C8.3 10.24 8.33 10.3 8.35 10.36C8.53 10.69 8.84 11.12 9.28 11.64C9.73 12.16 10.21 12.69 10.73 13.22C11.27 13.75 11.79 14.24 12.32 14.69C12.84 15.13 13.27 15.43 13.61 15.61C13.66 15.63 13.72 15.66 13.79 15.69C13.87 15.72 13.95 15.73 14.04 15.73C14.21 15.73 14.34 15.67 14.45 15.56L15.21 14.81C15.46 14.56 15.7 14.37 15.93 14.25C16.16 14.11 16.39 14.04 16.64 14.04C16.83 14.04 17.03 14.08 17.25 14.17C17.47 14.26 17.7 14.39 17.95 14.56L21.26 16.91C21.52 17.09 21.7 17.3 21.81 17.55C21.91 17.8 21.97 18.05 21.97 18.33Z" stroke="#1A1A1A" stroke-width="1.5" stroke-miterlimit="10"/>
<path d="M16.2305 7.76998L19.7705 4.22998" stroke="#1A1A1A" stroke-width="1.5" stroke-linecap="round" stroke-linejoin="round"/>
<path d="M19.7705 7.76998L16.2305 4.22998" stroke="#1A1A1A" stroke-width="1.5" stroke-linecap="round" stroke-linejoin="round"/>
<path d="M38.68 17.144C36.124 17.144 34.468 15.368 34.468 12.62C34.468 9.896 36.184 8.084 38.752 8.084C40.828 8.084 42.376 9.296 42.676 11.18H41.056C40.756 10.16 39.88 9.56 38.716 9.56C37.096 9.56 36.076 10.736 36.076 12.608C36.076 14.468 37.108 15.668 38.716 15.668C39.904 15.668 40.816 15.044 41.104 14.072H42.7C42.364 15.92 40.756 17.144 38.68 17.144ZM45.5083 17.156C44.2483 17.156 43.4803 16.424 43.4803 15.308C43.4803 14.216 44.2723 13.532 45.6763 13.424L47.4523 13.292V13.16C47.4523 12.356 46.9723 12.032 46.2283 12.032C45.3643 12.032 44.8843 12.392 44.8843 13.016H43.6363C43.6363 11.732 44.6923 10.892 46.3003 10.892C47.8963 10.892 48.8803 11.756 48.8803 13.4V17H47.5963L47.4883 16.124C47.2363 16.736 46.4323 17.156 45.5083 17.156ZM45.9883 16.052C46.8883 16.052 47.4643 15.512 47.4643 14.6V14.288L46.2283 14.384C45.3163 14.468 44.9683 14.768 44.9683 15.248C44.9683 15.788 45.3283 16.052 45.9883 16.052ZM51.7945 17H50.3425V8.072H51.7945V17ZM54.8062 17H53.3542V8.072H54.8062V17ZM56.3299 14.444V13.148H60.1939V14.444H56.3299ZM65.4057 11.048V12.404H64.8657C63.8097 12.404 63.1497 12.968 63.1497 14.12V17H61.6857V11.084H63.0657L63.1497 11.948C63.4017 11.36 63.9657 10.964 64.7577 10.964C64.9617 10.964 65.1657 10.988 65.4057 11.048ZM68.8494 17.156C67.0854 17.156 65.8494 15.872 65.8494 14.036C65.8494 12.176 67.0614 10.892 68.8014 10.892C70.5774 10.892 71.7054 12.08 71.7054 13.928V14.372L67.2414 14.384C67.3494 15.428 67.9014 15.956 68.8734 15.956C69.6774 15.956 70.2054 15.644 70.3734 15.08H71.7294C71.4774 16.376 70.3974 17.156 68.8494 17.156ZM68.8134 12.092C67.9494 12.092 67.4214 12.56 67.2774 13.448H70.2534C70.2534 12.632 69.6894 12.092 68.8134 12.092ZM74.3411 17H72.8771V11.072H74.2211L74.3411 11.768C74.6411 11.276 75.2411 10.892 76.0931 10.892C76.9931 10.892 77.6171 11.336 77.9291 12.02C78.2291 11.336 78.9251 10.892 79.8251 10.892C81.2651 10.892 82.0571 11.756 82.0571 13.124V17H80.6051V13.508C80.6051 12.656 80.1491 12.212 79.4531 12.212C78.7451 12.212 78.2051 12.668 78.2051 13.64V17H76.7411V13.496C76.7411 12.668 76.2971 12.224 75.6011 12.224C74.9051 12.224 74.3411 12.68 74.3411 13.64V17ZM83.1463 14.024C83.1463 12.176 84.4783 10.904 86.3143 10.904C88.1503 10.904 89.4823 12.176 89.4823 14.024C89.4823 15.872 88.1503 17.144 86.3143 17.144C84.4783 17.144 83.1463 15.872 83.1463 14.024ZM84.6103 14.024C84.6103 15.104 85.3063 15.836 86.3143 15.836C87.3223 15.836 88.0183 15.104 88.0183 14.024C88.0183 12.944 87.3223 12.212 86.3143 12.212C85.3063 12.212 84.6103 12.944 84.6103 14.024ZM92.0298 17L89.6778 11.072H91.2378L92.2698 13.796C92.5218 14.504 92.7258 15.116 92.7978 15.44C92.8818 15.068 93.0978 14.444 93.3498 13.796L94.4298 11.072H95.9418L93.4698 17H92.0298ZM99.1424 17.156C97.3784 17.156 96.1424 15.872 96.1424 14.036C96.1424 12.176 97.3544 10.892 99.0944 10.892C100.87 10.892 101.998 12.08 101.998 13.928V14.372L97.5344 14.384C97.6424 15.428 98.1944 15.956 99.1664 15.956C99.9704 15.956 100.498 15.644 100.666 15.08H102.022C101.77 16.376 100.69 17.156 99.1424 17.156ZM99.1064 12.092C98.2424 12.092 97.7144 12.56 97.5704 13.448H100.546C100.546 12.632 99.9824 12.092 99.1064 12.092Z" fill="black"/>
</svg>
