<svg width="101" height="24" viewBox="0 0 101 24" fill="none" xmlns="http://www.w3.org/2000/svg">
<path d="M2 22H22" stroke="#1A1A1A" stroke-width="1.5" stroke-miterlimit="10" stroke-linecap="round" stroke-linejoin="round"/>
<path d="M12 2C13.6 2.64 15.4 2.64 17 2V5C15.4 5.64 13.6 5.64 12 5V2Z" stroke="#1A1A1A" stroke-width="1.5" stroke-miterlimit="10" stroke-linecap="round" stroke-linejoin="round"/>
<path d="M12 5V8" stroke="#1A1A1A" stroke-width="1.5" stroke-miterlimit="10" stroke-linecap="round" stroke-linejoin="round"/>
<path d="M17 8H7C5 8 4 9 4 11V22H20V11C20 9 19 8 17 8Z" stroke="#1A1A1A" stroke-width="1.5" stroke-miterlimit="10" stroke-linecap="round" stroke-linejoin="round"/>
<path d="M4.58008 12H19.4201" stroke="#1A1A1A" stroke-width="1.5" stroke-miterlimit="10" stroke-linecap="round" stroke-linejoin="round"/>
<path d="M7.99023 12V22" stroke="#1A1A1A" stroke-width="1.5" stroke-miterlimit="10" stroke-linejoin="round"/>
<path d="M11.9902 12V22" stroke="#1A1A1A" stroke-width="1.5" stroke-miterlimit="10" stroke-linejoin="round"/>
<path d="M15.9902 12V22" stroke="#1A1A1A" stroke-width="1.5" stroke-miterlimit="10" stroke-linejoin="round"/>
<path d="M38.68 16.144C36.124 16.144 34.468 14.368 34.468 11.62C34.468 8.896 36.184 7.084 38.752 7.084C40.828 7.084 42.376 8.296 42.676 10.18H41.056C40.756 9.16 39.88 8.56 38.716 8.56C37.096 8.56 36.076 9.736 36.076 11.608C36.076 13.468 37.108 14.668 38.716 14.668C39.904 14.668 40.816 14.044 41.104 13.072H42.7C42.364 14.92 40.756 16.144 38.68 16.144ZM43.5135 13.024C43.5135 11.176 44.8455 9.904 46.6815 9.904C48.5175 9.904 49.8495 11.176 49.8495 13.024C49.8495 14.872 48.5175 16.144 46.6815 16.144C44.8455 16.144 43.5135 14.872 43.5135 13.024ZM44.9775 13.024C44.9775 14.104 45.6735 14.836 46.6815 14.836C47.6895 14.836 48.3855 14.104 48.3855 13.024C48.3855 11.944 47.6895 11.212 46.6815 11.212C45.6735 11.212 44.9775 11.944 44.9775 13.024ZM54.8893 10.072H56.3533V16H54.9973L54.8893 15.208C54.5293 15.772 53.7613 16.156 52.9693 16.156C51.6013 16.156 50.7973 15.232 50.7973 13.78V10.072H52.2613V13.264C52.2613 14.392 52.7053 14.848 53.5213 14.848C54.4453 14.848 54.8893 14.308 54.8893 13.18V10.072ZM61.5854 10.048V11.404H61.0454C59.9894 11.404 59.3294 11.968 59.3294 13.12V16H57.8654V10.084H59.2454L59.3294 10.948C59.5814 10.36 60.1454 9.964 60.9374 9.964C61.1414 9.964 61.3454 9.988 61.5854 10.048ZM64.8267 16H63.3627V11.296H62.2227V10.072H63.3627V8.224H64.8267V10.072H65.9787V11.296H64.8267V16ZM68.3528 16H66.8888V7.072H68.3648V10.84C68.7368 10.264 69.4328 9.892 70.2848 9.892C71.7488 9.892 72.5168 10.816 72.5168 12.352V16H71.0528V12.7C71.0528 11.704 70.5608 11.224 69.8168 11.224C68.8928 11.224 68.3528 11.872 68.3528 12.76V16ZM73.6072 13.024C73.6072 11.176 74.9392 9.904 76.7752 9.904C78.6112 9.904 79.9432 11.176 79.9432 13.024C79.9432 14.872 78.6112 16.144 76.7752 16.144C74.9392 16.144 73.6072 14.872 73.6072 13.024ZM75.0712 13.024C75.0712 14.104 75.7672 14.836 76.7752 14.836C77.7832 14.836 78.4792 14.104 78.4792 13.024C78.4792 11.944 77.7832 11.212 76.7752 11.212C75.7672 11.212 75.0712 11.944 75.0712 13.024ZM84.983 10.072H86.447V16H85.091L84.983 15.208C84.623 15.772 83.855 16.156 83.063 16.156C81.695 16.156 80.891 15.232 80.891 13.78V10.072H82.355V13.264C82.355 14.392 82.799 14.848 83.615 14.848C84.539 14.848 84.983 14.308 84.983 13.18V10.072ZM87.3859 14.2H88.7779C88.7899 14.716 89.1739 15.04 89.8459 15.04C90.5299 15.04 90.9019 14.764 90.9019 14.332C90.9019 14.032 90.7459 13.816 90.2179 13.696L89.1499 13.444C88.0819 13.204 87.5659 12.7 87.5659 11.752C87.5659 10.588 88.5499 9.892 89.9179 9.892C91.2499 9.892 92.1499 10.66 92.1619 11.812H90.7699C90.7579 11.308 90.4219 10.984 89.8579 10.984C89.2819 10.984 88.9459 11.248 88.9459 11.692C88.9459 12.028 89.2099 12.244 89.7139 12.364L90.7819 12.616C91.7779 12.844 92.2819 13.3 92.2819 14.212C92.2819 15.412 91.2619 16.156 89.7979 16.156C88.3219 16.156 87.3859 15.364 87.3859 14.2ZM96.0486 16.156C94.2846 16.156 93.0486 14.872 93.0486 13.036C93.0486 11.176 94.2606 9.892 96.0006 9.892C97.7766 9.892 98.9046 11.08 98.9046 12.928V13.372L94.4406 13.384C94.5486 14.428 95.1006 14.956 96.0726 14.956C96.8766 14.956 97.4046 14.644 97.5726 14.08H98.9286C98.6766 15.376 97.5966 16.156 96.0486 16.156ZM96.0126 11.092C95.1486 11.092 94.6206 11.56 94.4766 12.448H97.4526C97.4526 11.632 96.8886 11.092 96.0126 11.092Z" fill="black"/>
</svg>
