<svg width="200" height="24" viewBox="0 0 200 24" fill="none" xmlns="http://www.w3.org/2000/svg">
<path d="M9 22H15C20 22 22 20 22 15V9C22 4 20 2 15 2H9C4 2 2 4 2 9V15C2 20 4 22 9 22Z" stroke="#1A1A1A" stroke-width="1.5" stroke-linecap="round" stroke-linejoin="round"/>
<path d="M15.9965 12H16.0054" stroke="#1A1A1A" stroke-width="1.5" stroke-linecap="round" stroke-linejoin="round"/>
<path d="M11.9955 12H12.0045" stroke="#1A1A1A" stroke-width="1.5" stroke-linecap="round" stroke-linejoin="round"/>
<path d="M7.99451 12H8.00349" stroke="#1A1A1A" stroke-width="1.5" stroke-linecap="round" stroke-linejoin="round"/>
<path d="M36.46 17H34.972V8.228H36.46L39.292 15.212L42.124 8.228H43.636V17H42.148V14.3C42.148 12.536 42.148 12.02 42.232 11.396L40 17H38.584L36.364 11.408C36.448 11.936 36.46 12.764 36.46 13.856V17ZM45.0135 14.024C45.0135 12.176 46.3455 10.904 48.1815 10.904C50.0175 10.904 51.3495 12.176 51.3495 14.024C51.3495 15.872 50.0175 17.144 48.1815 17.144C46.3455 17.144 45.0135 15.872 45.0135 14.024ZM46.4775 14.024C46.4775 15.104 47.1735 15.836 48.1815 15.836C49.1895 15.836 49.8855 15.104 49.8855 14.024C49.8855 12.944 49.1895 12.212 48.1815 12.212C47.1735 12.212 46.4775 12.944 46.4775 14.024ZM56.2299 11.048V12.404H55.6899C54.6339 12.404 53.9739 12.968 53.9739 14.12V17H52.5099V11.084H53.8899L53.9739 11.948C54.2259 11.36 54.7899 10.964 55.5819 10.964C55.7859 10.964 55.9899 10.988 56.2299 11.048ZM59.6736 17.156C57.9096 17.156 56.6736 15.872 56.6736 14.036C56.6736 12.176 57.8856 10.892 59.6256 10.892C61.4016 10.892 62.5296 12.08 62.5296 13.928V14.372L58.0656 14.384C58.1736 15.428 58.7256 15.956 59.6976 15.956C60.5016 15.956 61.0296 15.644 61.1976 15.08H62.5536C62.3016 16.376 61.2216 17.156 59.6736 17.156ZM59.6376 12.092C58.7736 12.092 58.2456 12.56 58.1016 13.448H61.0776C61.0776 12.632 60.5136 12.092 59.6376 12.092ZM63.6893 14.444V13.148H67.5533V14.444H63.6893ZM68.507 15.2H69.899C69.911 15.716 70.295 16.04 70.967 16.04C71.651 16.04 72.023 15.764 72.023 15.332C72.023 15.032 71.867 14.816 71.339 14.696L70.271 14.444C69.203 14.204 68.687 13.7 68.687 12.752C68.687 11.588 69.671 10.892 71.039 10.892C72.371 10.892 73.271 11.66 73.283 12.812H71.891C71.879 12.308 71.543 11.984 70.979 11.984C70.403 11.984 70.067 12.248 70.067 12.692C70.067 13.028 70.331 13.244 70.835 13.364L71.903 13.616C72.899 13.844 73.403 14.3 73.403 15.212C73.403 16.412 72.383 17.156 70.919 17.156C69.443 17.156 68.507 16.364 68.507 15.2ZM74.1697 13.964C74.1697 12.104 75.2737 10.892 76.9417 10.892C77.8417 10.892 78.6217 11.288 78.9817 11.972L79.0777 11.072H80.4217V19.748H78.9697V16.208C78.5977 16.808 77.8177 17.156 76.9417 17.156C75.1777 17.156 74.1697 15.812 74.1697 13.964ZM75.6337 14.036C75.6337 15.092 76.2577 15.836 77.2777 15.836C78.2977 15.836 78.9577 15.104 78.9577 14.036C78.9577 12.968 78.2977 12.224 77.2777 12.224C76.2577 12.224 75.6337 12.98 75.6337 14.036ZM85.9674 11.072H87.4314V17H86.0754L85.9674 16.208C85.6074 16.772 84.8394 17.156 84.0474 17.156C82.6794 17.156 81.8754 16.232 81.8754 14.78V11.072H83.3394V14.264C83.3394 15.392 83.7834 15.848 84.5994 15.848C85.5234 15.848 85.9674 15.308 85.9674 14.18V11.072ZM90.7075 17.156C89.4475 17.156 88.6795 16.424 88.6795 15.308C88.6795 14.216 89.4715 13.532 90.8755 13.424L92.6515 13.292V13.16C92.6515 12.356 92.1715 12.032 91.4275 12.032C90.5635 12.032 90.0835 12.392 90.0835 13.016H88.8355C88.8355 11.732 89.8915 10.892 91.4995 10.892C93.0955 10.892 94.0795 11.756 94.0795 13.4V17H92.7955L92.6875 16.124C92.4355 16.736 91.6315 17.156 90.7075 17.156ZM91.1875 16.052C92.0875 16.052 92.6635 15.512 92.6635 14.6V14.288L91.4275 14.384C90.5155 14.468 90.1675 14.768 90.1675 15.248C90.1675 15.788 90.5275 16.052 91.1875 16.052ZM99.2377 11.048V12.404H98.6977C97.6417 12.404 96.9817 12.968 96.9817 14.12V17H95.5177V11.084H96.8977L96.9817 11.948C97.2337 11.36 97.7977 10.964 98.5897 10.964C98.7937 10.964 98.9977 10.988 99.2377 11.048ZM102.681 17.156C100.917 17.156 99.6814 15.872 99.6814 14.036C99.6814 12.176 100.893 10.892 102.633 10.892C104.409 10.892 105.537 12.08 105.537 13.928V14.372L101.073 14.384C101.181 15.428 101.733 15.956 102.705 15.956C103.509 15.956 104.037 15.644 104.205 15.08H105.561C105.309 16.376 104.229 17.156 102.681 17.156ZM102.645 12.092C101.781 12.092 101.253 12.56 101.109 13.448H104.085C104.085 12.632 103.521 12.092 102.645 12.092Z" fill="black"/>
</svg>
