<svg width="116" height="24" viewBox="0 0 116 24" fill="none" xmlns="http://www.w3.org/2000/svg">
<path d="M9 22H15C20 22 22 20 22 15V9C22 4 20 2 15 2H9C4 2 2 4 2 9V15C2 20 4 22 9 22Z" stroke="#1A1A1A" stroke-width="1.5" stroke-linecap="round" stroke-linejoin="round"/>
<path d="M12 2V22" stroke="#1A1A1A" stroke-width="1.5" stroke-linecap="round" stroke-linejoin="round"/>
<path d="M53.812 8.524C52.072 8.524 51.076 9.784 51.076 11.68C51.076 13.636 52.204 14.704 53.824 14.704C55.348 14.704 56.272 13.864 56.272 12.46V12.424H53.62V11.068H57.7V16H56.404L56.308 14.992C55.828 15.664 54.832 16.132 53.644 16.132C51.184 16.132 49.468 14.344 49.468 11.644C49.468 8.98 51.208 7.084 53.848 7.084C55.852 7.084 57.4 8.248 57.652 10.036H56.032C55.756 9.004 54.868 8.524 53.812 8.524ZM62.8627 10.048V11.404H62.3227C61.2667 11.404 60.6067 11.968 60.6067 13.12V16H59.1427V10.084H60.5227L60.6067 10.948C60.8587 10.36 61.4227 9.964 62.2147 9.964C62.4187 9.964 62.6227 9.988 62.8627 10.048ZM64.5857 8.884C64.0817 8.884 63.6857 8.488 63.6857 7.996C63.6857 7.504 64.0817 7.12 64.5857 7.12C65.0657 7.12 65.4617 7.504 65.4617 7.996C65.4617 8.488 65.0657 8.884 64.5857 8.884ZM63.8537 16V10.072H65.3177V16H63.8537ZM69.2662 16.156C67.5502 16.156 66.4822 14.896 66.4822 13.06C66.4822 11.212 67.5622 9.892 69.3502 9.892C70.1782 9.892 70.9102 10.24 71.2822 10.828V7.072H72.7342V16H71.3902L71.2942 15.076C70.9342 15.76 70.1662 16.156 69.2662 16.156ZM69.5902 14.812C70.6102 14.812 71.2702 14.08 71.2702 13.012C71.2702 11.944 70.6102 11.2 69.5902 11.2C68.5702 11.2 67.9462 11.956 67.9462 13.012C67.9462 14.068 68.5702 14.812 69.5902 14.812ZM74.2479 13.444V12.148H78.1119V13.444H74.2479ZM84.3596 13.42L82.4636 16H80.7116L82.8116 13.204C82.5956 13.264 82.3676 13.3 82.1516 13.3C80.3396 13.3 79.1156 12.028 79.1156 10.252C79.1156 8.38 80.5076 7.072 82.3796 7.072C84.2756 7.072 85.6916 8.464 85.6916 10.264C85.6916 11.32 85.3436 12.088 84.3596 13.42ZM84.1196 10.252C84.1196 9.184 83.4116 8.44 82.3796 8.44C81.3716 8.44 80.6636 9.184 80.6636 10.252C80.6636 11.308 81.3716 12.04 82.3796 12.04C83.4236 12.04 84.1196 11.308 84.1196 10.252Z" fill="black"/>
</svg>
