<svg width="108" height="24" viewBox="0 0 108 24" fill="none" xmlns="http://www.w3.org/2000/svg">
<path d="M17 21H7C3 21 2 20 2 16V8C2 4 3 3 7 3H17C21 3 22 4 22 8V16C22 20 21 21 17 21Z" stroke="#1A1A1A" stroke-width="1.5" stroke-linecap="round" stroke-linejoin="round"/>
<path d="M14 8H19" stroke="#1A1A1A" stroke-width="1.5" stroke-linecap="round" stroke-linejoin="round"/>
<path d="M15 12H19" stroke="#1A1A1A" stroke-width="1.5" stroke-linecap="round" stroke-linejoin="round"/>
<path d="M17 16H19" stroke="#1A1A1A" stroke-width="1.5" stroke-linecap="round" stroke-linejoin="round"/>
<path d="M8.50043 11.2899C9.50007 11.2899 10.3104 10.4796 10.3104 9.47992C10.3104 8.48029 9.50007 7.66992 8.50043 7.66992C7.50079 7.66992 6.69043 8.48029 6.69043 9.47992C6.69043 10.4796 7.50079 11.2899 8.50043 11.2899Z" stroke="#1A1A1A" stroke-width="1.5" stroke-linecap="round" stroke-linejoin="round"/>
<path d="M12 16.3298C11.86 14.8798 10.71 13.7398 9.26 13.6098C8.76 13.5598 8.25 13.5598 7.74 13.6098C6.29 13.7498 5.14 14.8798 5 16.3298" stroke="#1A1A1A" stroke-width="1.5" stroke-linecap="round" stroke-linejoin="round"/>
<path d="M38.44 13.976H36.508V17H34.972V8.228H38.44C40.204 8.228 41.344 9.38 41.344 11.096C41.344 12.788 40.192 13.976 38.44 13.976ZM38.14 9.596H36.508V12.608H38.116C39.172 12.608 39.736 12.044 39.736 11.084C39.736 10.124 39.16 9.596 38.14 9.596ZM44.7791 17.156C43.0151 17.156 41.7791 15.872 41.7791 14.036C41.7791 12.176 42.9911 10.892 44.7311 10.892C46.5071 10.892 47.6351 12.08 47.6351 13.928V14.372L43.1711 14.384C43.2791 15.428 43.8311 15.956 44.8031 15.956C45.6071 15.956 46.1351 15.644 46.3031 15.08H47.6591C47.4071 16.376 46.3271 17.156 44.7791 17.156ZM44.7431 12.092C43.8791 12.092 43.3511 12.56 43.2071 13.448H46.1831C46.1831 12.632 45.6191 12.092 44.7431 12.092ZM52.5268 11.048V12.404H51.9868C50.9308 12.404 50.2708 12.968 50.2708 14.12V17H48.8068V11.084H50.1868L50.2708 11.948C50.5228 11.36 51.0868 10.964 51.8788 10.964C52.0828 10.964 52.2868 10.988 52.5268 11.048ZM53.0617 15.2H54.4537C54.4657 15.716 54.8497 16.04 55.5217 16.04C56.2057 16.04 56.5777 15.764 56.5777 15.332C56.5777 15.032 56.4217 14.816 55.8937 14.696L54.8257 14.444C53.7577 14.204 53.2417 13.7 53.2417 12.752C53.2417 11.588 54.2257 10.892 55.5937 10.892C56.9257 10.892 57.8257 11.66 57.8377 12.812H56.4457C56.4337 12.308 56.0977 11.984 55.5337 11.984C54.9577 11.984 54.6217 12.248 54.6217 12.692C54.6217 13.028 54.8857 13.244 55.3897 13.364L56.4577 13.616C57.4537 13.844 57.9577 14.3 57.9577 15.212C57.9577 16.412 56.9377 17.156 55.4737 17.156C53.9977 17.156 53.0617 16.364 53.0617 15.2ZM58.7244 14.024C58.7244 12.176 60.0564 10.904 61.8924 10.904C63.7284 10.904 65.0604 12.176 65.0604 14.024C65.0604 15.872 63.7284 17.144 61.8924 17.144C60.0564 17.144 58.7244 15.872 58.7244 14.024ZM60.1884 14.024C60.1884 15.104 60.8844 15.836 61.8924 15.836C62.9004 15.836 63.5964 15.104 63.5964 14.024C63.5964 12.944 62.9004 12.212 61.8924 12.212C60.8844 12.212 60.1884 12.944 60.1884 14.024ZM67.6848 17H66.2208V11.072H67.5768L67.6968 11.84C68.0688 11.24 68.7888 10.892 69.5928 10.892C71.0808 10.892 71.8488 11.816 71.8488 13.352V17H70.3848V13.7C70.3848 12.704 69.8928 12.224 69.1368 12.224C68.2368 12.224 67.6848 12.848 67.6848 13.808V17ZM75.0513 17.156C73.7913 17.156 73.0233 16.424 73.0233 15.308C73.0233 14.216 73.8153 13.532 75.2193 13.424L76.9953 13.292V13.16C76.9953 12.356 76.5153 12.032 75.7713 12.032C74.9073 12.032 74.4273 12.392 74.4273 13.016H73.1793C73.1793 11.732 74.2353 10.892 75.8433 10.892C77.4393 10.892 78.4233 11.756 78.4233 13.4V17H77.1393L77.0313 16.124C76.7793 16.736 75.9753 17.156 75.0513 17.156ZM75.5312 16.052C76.4313 16.052 77.0073 15.512 77.0073 14.6V14.288L75.7713 14.384C74.8593 14.468 74.5113 14.768 74.5113 15.248C74.5113 15.788 74.8713 16.052 75.5312 16.052ZM81.3375 17H79.8855V8.072H81.3375V17ZM82.5252 14.024C82.5252 12.188 83.7372 10.892 85.4892 10.892C87.1092 10.892 88.2132 11.792 88.3692 13.22H86.9052C86.7372 12.548 86.2452 12.2 85.5492 12.2C84.6132 12.2 83.9892 12.908 83.9892 14.024C83.9892 15.14 84.5652 15.836 85.5012 15.836C86.2332 15.836 86.7492 15.476 86.9052 14.828H88.3812C88.2012 16.208 87.0492 17.156 85.5012 17.156C83.7012 17.156 82.5252 15.908 82.5252 14.024ZM91.2348 17.156C89.9748 17.156 89.2068 16.424 89.2068 15.308C89.2068 14.216 89.9988 13.532 91.4028 13.424L93.1788 13.292V13.16C93.1788 12.356 92.6988 12.032 91.9548 12.032C91.0908 12.032 90.6108 12.392 90.6108 13.016H89.3628C89.3628 11.732 90.4188 10.892 92.0268 10.892C93.6228 10.892 94.6068 11.756 94.6068 13.4V17H93.3228L93.2148 16.124C92.9628 16.736 92.1588 17.156 91.2348 17.156ZM91.7148 16.052C92.6148 16.052 93.1908 15.512 93.1908 14.6V14.288L91.9548 14.384C91.0428 14.468 90.6948 14.768 90.6948 15.248C90.6948 15.788 91.0548 16.052 91.7148 16.052ZM99.7651 11.048V12.404H99.2251C98.1691 12.404 97.5091 12.968 97.5091 14.12V17H96.0451V11.084H97.4251L97.5091 11.948C97.7611 11.36 98.3251 10.964 99.1171 10.964C99.3211 10.964 99.5251 10.988 99.7651 11.048ZM102.993 17.156C101.277 17.156 100.209 15.896 100.209 14.06C100.209 12.212 101.289 10.892 103.077 10.892C103.905 10.892 104.637 11.24 105.009 11.828V8.072H106.461V17H105.117L105.021 16.076C104.661 16.76 103.893 17.156 102.993 17.156ZM103.317 15.812C104.337 15.812 104.997 15.08 104.997 14.012C104.997 12.944 104.337 12.2 103.317 12.2C102.297 12.2 101.673 12.956 101.673 14.012C101.673 15.068 102.297 15.812 103.317 15.812Z" fill="black"/>
</svg>
