<svg width="200" height="24" viewBox="0 0 200 24" fill="none" xmlns="http://www.w3.org/2000/svg">
<path d="M10.7499 2.45007C11.4499 1.86007 12.5799 1.86007 13.2599 2.45007L14.8399 3.80007C15.1399 4.05007 15.7099 4.26007 16.1099 4.26007H17.8099C18.8699 4.26007 19.7399 5.13007 19.7399 6.19007V7.89007C19.7399 8.29007 19.9499 8.85007 20.1999 9.15007L21.5499 10.7301C22.1399 11.4301 22.1399 12.5601 21.5499 13.2401L20.1999 14.8201C19.9499 15.1201 19.7399 15.6801 19.7399 16.0801V17.7801C19.7399 18.8401 18.8699 19.7101 17.8099 19.7101H16.1099C15.7099 19.7101 15.1499 19.9201 14.8499 20.1701L13.2699 21.5201C12.5699 22.1101 11.4399 22.1101 10.7599 21.5201L9.17988 20.1701C8.87988 19.9201 8.30988 19.7101 7.91988 19.7101H6.16988C5.10988 19.7101 4.23988 18.8401 4.23988 17.7801V16.0701C4.23988 15.6801 4.03988 15.1101 3.78988 14.8201L2.43988 13.2301C1.85988 12.5401 1.85988 11.4201 2.43988 10.7301L3.78988 9.14007C4.03988 8.84007 4.23988 8.28007 4.23988 7.89007V6.20007C4.23988 5.14007 5.10988 4.27007 6.16988 4.27007H7.89988C8.29988 4.27007 8.85988 4.06007 9.15988 3.81007L10.7499 2.45007Z" stroke="#1A1A1A" stroke-width="1.5" stroke-linecap="round" stroke-linejoin="round"/>
<path d="M12 8.12988V12.9599" stroke="#1A1A1A" stroke-width="1.5" stroke-linecap="round" stroke-linejoin="round"/>
<path d="M11.9946 16H12.0036" stroke="#1A1A1A" stroke-width="1.5" stroke-linecap="round" stroke-linejoin="round"/>
<path d="M36.508 7.228V16H34.972V7.228H36.508ZM39.7005 16H38.2365V10.072H39.5925L39.7125 10.84C40.0845 10.24 40.8045 9.892 41.6085 9.892C43.0965 9.892 43.8645 10.816 43.8645 12.352V16H42.4005V12.7C42.4005 11.704 41.9085 11.224 41.1525 11.224C40.2525 11.224 39.7005 11.848 39.7005 12.808V16ZM44.7149 10.072H45.5669V9.352C45.5669 7.744 46.4189 7.072 47.7029 7.072C47.9309 7.072 48.2069 7.084 48.4589 7.132V8.38H47.9429C47.1989 8.38 47.0189 8.764 47.0189 9.352V10.072H48.4349V11.296H47.0189V16H45.5669V11.296H44.7149V10.072ZM48.8455 13.024C48.8455 11.176 50.1775 9.904 52.0135 9.904C53.8495 9.904 55.1815 11.176 55.1815 13.024C55.1815 14.872 53.8495 16.144 52.0135 16.144C50.1775 16.144 48.8455 14.872 48.8455 13.024ZM50.3095 13.024C50.3095 14.104 51.0055 14.836 52.0135 14.836C53.0215 14.836 53.7175 14.104 53.7175 13.024C53.7175 11.944 53.0215 11.212 52.0135 11.212C51.0055 11.212 50.3095 11.944 50.3095 13.024ZM60.0619 10.048V11.404H59.5219C58.4659 11.404 57.8059 11.968 57.8059 13.12V16H56.3419V10.084H57.7219L57.8059 10.948C58.0579 10.36 58.6219 9.964 59.4139 9.964C59.6179 9.964 59.8219 9.988 60.0619 10.048ZM62.5169 16H61.0529V10.072H62.3969L62.5169 10.768C62.8169 10.276 63.4169 9.892 64.2689 9.892C65.1689 9.892 65.7929 10.336 66.1049 11.02C66.4049 10.336 67.1009 9.892 68.0009 9.892C69.4409 9.892 70.2329 10.756 70.2329 12.124V16H68.7809V12.508C68.7809 11.656 68.3249 11.212 67.6289 11.212C66.9209 11.212 66.3809 11.668 66.3809 12.64V16H64.9169V12.496C64.9169 11.668 64.4729 11.224 63.7769 11.224C63.0809 11.224 62.5169 11.68 62.5169 12.64V16ZM73.4341 16.156C72.1741 16.156 71.4061 15.424 71.4061 14.308C71.4061 13.216 72.1981 12.532 73.6021 12.424L75.3781 12.292V12.16C75.3781 11.356 74.8981 11.032 74.1541 11.032C73.2901 11.032 72.8101 11.392 72.8101 12.016H71.5621C71.5621 10.732 72.6181 9.892 74.2261 9.892C75.8221 9.892 76.8061 10.756 76.8061 12.4V16H75.5221L75.4141 15.124C75.1621 15.736 74.3581 16.156 73.4341 16.156ZM73.9141 15.052C74.8141 15.052 75.3901 14.512 75.3901 13.6V13.288L74.1541 13.384C73.2421 13.468 72.8941 13.768 72.8941 14.248C72.8941 14.788 73.2541 15.052 73.9141 15.052ZM80.1783 16H78.7143V11.296H77.5743V10.072H78.7143V8.224H80.1783V10.072H81.3303V11.296H80.1783V16ZM82.9724 8.884C82.4684 8.884 82.0724 8.488 82.0724 7.996C82.0724 7.504 82.4684 7.12 82.9724 7.12C83.4524 7.12 83.8484 7.504 83.8484 7.996C83.8484 8.488 83.4524 8.884 82.9724 8.884ZM82.2404 16V10.072H83.7044V16H82.2404ZM84.8689 13.024C84.8689 11.176 86.2009 9.904 88.0369 9.904C89.8729 9.904 91.2049 11.176 91.2049 13.024C91.2049 14.872 89.8729 16.144 88.0369 16.144C86.2009 16.144 84.8689 14.872 84.8689 13.024ZM86.3329 13.024C86.3329 14.104 87.0289 14.836 88.0369 14.836C89.0449 14.836 89.7409 14.104 89.7409 13.024C89.7409 11.944 89.0449 11.212 88.0369 11.212C87.0289 11.212 86.3329 11.944 86.3329 13.024ZM93.8294 16H92.3654V10.072H93.7214L93.8414 10.84C94.2134 10.24 94.9334 9.892 95.7374 9.892C97.2254 9.892 97.9934 10.816 97.9934 12.352V16H96.5294V12.7C96.5294 11.704 96.0374 11.224 95.2814 11.224C94.3814 11.224 93.8294 11.848 93.8294 12.808V16Z" fill="black"/>
</svg>
