<svg width="200" height="24" viewBox="0 0 200 24" fill="none" xmlns="http://www.w3.org/2000/svg">
<path d="M12.92 2.26009L19.43 5.77009C20.19 6.18009 20.19 7.35009 19.43 7.76009L12.92 11.2701C12.34 11.5801 11.66 11.5801 11.08 11.2701L4.57 7.76009C3.81 7.35009 3.81 6.18009 4.57 5.77009L11.08 2.26009C11.66 1.95009 12.34 1.95009 12.92 2.26009Z" stroke="#1A1A1A" stroke-width="1.5" stroke-linecap="round" stroke-linejoin="round"/>
<path d="M3.61 10.1299L9.66 13.1599C10.41 13.5399 10.89 14.3099 10.89 15.1499V20.8699C10.89 21.6999 10.02 22.2299 9.28 21.8599L3.23 18.8299C2.48 18.4499 2 17.6799 2 16.8399V11.1199C2 10.2899 2.87 9.75993 3.61 10.1299Z" stroke="#1A1A1A" stroke-width="1.5" stroke-linecap="round" stroke-linejoin="round"/>
<path d="M20.3899 10.1299L14.3399 13.1599C13.5899 13.5399 13.1099 14.3099 13.1099 15.1499V20.8699C13.1099 21.6999 13.9799 22.2299 14.7199 21.8599L20.7699 18.8299C21.5199 18.4499 21.9999 17.6799 21.9999 16.8399V11.1199C21.9999 10.2899 21.1299 9.75993 20.3899 10.1299Z" stroke="#1A1A1A" stroke-width="1.5" stroke-linecap="round" stroke-linejoin="round"/>
<path d="M37.108 11.656H36.04V10.66L38.296 8.584H34.648V7.228H40.216V8.452L38.08 10.42C39.424 10.684 40.468 11.668 40.468 13.216C40.468 15.016 39.064 16.156 37.288 16.156C35.572 16.156 34.24 15.1 34.24 13.204H35.752C35.752 14.212 36.376 14.788 37.312 14.788C38.272 14.788 38.908 14.164 38.908 13.192C38.908 12.304 38.332 11.656 37.108 11.656ZM44.96 16H41.804V7.228H44.876C47.468 7.228 49.256 9.016 49.256 11.632C49.256 14.212 47.504 16 44.96 16ZM44.732 8.644H43.34V14.584H44.816C46.568 14.584 47.636 13.456 47.636 11.632C47.636 9.772 46.544 8.644 44.732 8.644ZM50.1228 13.024C50.1228 11.188 51.3348 9.892 53.0868 9.892C54.7068 9.892 55.8108 10.792 55.9668 12.22H54.5028C54.3348 11.548 53.8428 11.2 53.1468 11.2C52.2108 11.2 51.5868 11.908 51.5868 13.024C51.5868 14.14 52.1628 14.836 53.0988 14.836C53.8308 14.836 54.3468 14.476 54.5028 13.828H55.9788C55.7988 15.208 54.6468 16.156 53.0988 16.156C51.2988 16.156 50.1228 14.908 50.1228 13.024ZM61.0885 10.072H62.5525V16H61.1965L61.0885 15.208C60.7285 15.772 59.9605 16.156 59.1685 16.156C57.8005 16.156 56.9965 15.232 56.9965 13.78V10.072H58.4605V13.264C58.4605 14.392 58.9045 14.848 59.7205 14.848C60.6445 14.848 61.0885 14.308 61.0885 13.18V10.072ZM65.4206 16H64.0646V7.072H65.5286V10.936C65.9126 10.276 66.7046 9.88 67.6046 9.88C69.2966 9.88 70.3286 11.2 70.3286 13.072C70.3286 14.896 69.2126 16.156 67.5086 16.156C66.6206 16.156 65.8646 15.76 65.5166 15.076L65.4206 16ZM65.5406 13.012C65.5406 14.08 66.2006 14.812 67.2086 14.812C68.2406 14.812 68.8526 14.068 68.8526 13.012C68.8526 11.956 68.2406 11.2 67.2086 11.2C66.2006 11.2 65.5406 11.944 65.5406 13.012ZM74.1463 16.156C72.3823 16.156 71.1463 14.872 71.1463 13.036C71.1463 11.176 72.3583 9.892 74.0983 9.892C75.8743 9.892 77.0023 11.08 77.0023 12.928V13.372L72.5383 13.384C72.6463 14.428 73.1983 14.956 74.1703 14.956C74.9743 14.956 75.5023 14.644 75.6703 14.08H77.0263C76.7743 15.376 75.6943 16.156 74.1463 16.156ZM74.1103 11.092C73.2463 11.092 72.7183 11.56 72.5743 12.448H75.5503C75.5503 11.632 74.9863 11.092 74.1103 11.092Z" fill="black"/>
</svg>
