<svg width="103" height="24" viewBox="0 0 103 24" fill="none" xmlns="http://www.w3.org/2000/svg">
<g clip-path="url(#clip0_4037_25965)">
<path d="M3.76962 15.56L7.22962 19.02C9.65962 21.45 10.4896 21.41 12.8896 19.02L18.4596 13.45C20.3996 11.51 20.8896 10.22 18.4596 7.78996L14.9996 4.32996C12.4096 1.73996 11.2796 2.38996 9.33962 4.32996L3.76962 9.89996C1.37962 12.3 1.17962 12.97 3.76962 15.56Z" stroke="#1A1A1A" stroke-width="1.5" stroke-linecap="round" stroke-linejoin="round"/>
<path d="M19.2005 16.79L18.5405 17.88C17.6105 19.43 18.3305 20.7 20.1405 20.7C21.9505 20.7 22.6705 19.43 21.7405 17.88L21.0805 16.79C20.5605 15.93 19.7105 15.93 19.2005 16.79Z" stroke="#1A1A1A" stroke-width="1.5" stroke-linecap="round" stroke-linejoin="round"/>
<path d="M2 12.24C7.56 10.73 13.42 10.68 19 12.11L19.5 12.24" stroke="#1A1A1A" stroke-width="1.5" stroke-linecap="round" stroke-linejoin="round"/>
</g>
<path d="M38.44 12.976H36.508V16H34.972V7.228H38.44C40.204 7.228 41.344 8.38 41.344 10.096C41.344 11.788 40.192 12.976 38.44 12.976ZM38.14 8.596H36.508V11.608H38.116C39.172 11.608 39.736 11.044 39.736 10.084C39.736 9.124 39.16 8.596 38.14 8.596ZM43.9497 16.156C42.6897 16.156 41.9217 15.424 41.9217 14.308C41.9217 13.216 42.7137 12.532 44.1177 12.424L45.8937 12.292V12.16C45.8937 11.356 45.4137 11.032 44.6697 11.032C43.8057 11.032 43.3257 11.392 43.3257 12.016H42.0777C42.0777 10.732 43.1337 9.892 44.7417 9.892C46.3377 9.892 47.3217 10.756 47.3217 12.4V16H46.0377L45.9297 15.124C45.6777 15.736 44.8737 16.156 43.9497 16.156ZM44.4297 15.052C45.3297 15.052 45.9057 14.512 45.9057 13.6V13.288L44.6697 13.384C43.7577 13.468 43.4097 13.768 43.4097 14.248C43.4097 14.788 43.7697 15.052 44.4297 15.052ZM49.4919 8.884C48.9879 8.884 48.5919 8.488 48.5919 7.996C48.5919 7.504 48.9879 7.12 49.4919 7.12C49.9719 7.12 50.3679 7.504 50.3679 7.996C50.3679 8.488 49.9719 8.884 49.4919 8.884ZM48.7599 16V10.072H50.2239V16H48.7599ZM53.2005 16H51.7365V10.072H53.0925L53.2125 10.84C53.5845 10.24 54.3045 9.892 55.1085 9.892C56.5965 9.892 57.3645 10.816 57.3645 12.352V16H55.9005V12.7C55.9005 11.704 55.4085 11.224 54.6525 11.224C53.7525 11.224 53.2005 11.848 53.2005 12.808V16ZM60.8189 16H59.3549V11.296H58.2149V10.072H59.3549V8.224H60.8189V10.072H61.9709V11.296H60.8189V16ZM64.237 16H62.881V7.072H64.345V10.936C64.729 10.276 65.521 9.88 66.421 9.88C68.113 9.88 69.145 11.2 69.145 13.072C69.145 14.896 68.029 16.156 66.325 16.156C65.437 16.156 64.681 15.76 64.333 15.076L64.237 16ZM64.357 13.012C64.357 14.08 65.017 14.812 66.025 14.812C67.057 14.812 67.669 14.068 67.669 13.012C67.669 11.956 67.057 11.2 66.025 11.2C65.017 11.2 64.357 11.944 64.357 13.012ZM74.1901 10.072H75.6541V16H74.2981L74.1901 15.208C73.8301 15.772 73.0621 16.156 72.2701 16.156C70.9021 16.156 70.0981 15.232 70.0981 13.78V10.072H71.5621V13.264C71.5621 14.392 72.0061 14.848 72.8221 14.848C73.7461 14.848 74.1901 14.308 74.1901 13.18V10.072ZM76.701 13.024C76.701 11.188 77.913 9.892 79.665 9.892C81.285 9.892 82.389 10.792 82.545 12.22H81.081C80.913 11.548 80.421 11.2 79.725 11.2C78.789 11.2 78.165 11.908 78.165 13.024C78.165 14.14 78.741 14.836 79.677 14.836C80.409 14.836 80.925 14.476 81.081 13.828H82.557C82.377 15.208 81.225 16.156 79.677 16.156C77.877 16.156 76.701 14.908 76.701 13.024ZM85.1226 16H83.6706V7.072H85.1226V12.556L87.4266 10.072H89.2626L87.0066 12.424L89.2146 16H87.5346L85.9866 13.504L85.1226 14.404V16ZM92.4861 16.156C90.7221 16.156 89.4861 14.872 89.4861 13.036C89.4861 11.176 90.6981 9.892 92.4381 9.892C94.2141 9.892 95.3421 11.08 95.3421 12.928V13.372L90.8781 13.384C90.9861 14.428 91.5381 14.956 92.5101 14.956C93.3141 14.956 93.8421 14.644 94.0101 14.08H95.3661C95.1141 15.376 94.0341 16.156 92.4861 16.156ZM92.4501 11.092C91.5861 11.092 91.0581 11.56 90.9141 12.448H93.8901C93.8901 11.632 93.3261 11.092 92.4501 11.092ZM98.4712 16H97.0072V11.296H95.8672V10.072H97.0072V8.224H98.4712V10.072H99.6232V11.296H98.4712V16Z" fill="black"/>
<defs>
<clipPath id="clip0_4037_25965">
<rect width="24" height="24" fill="white"/>
</clipPath>
</defs>
</svg>
