<svg width="159" height="24" viewBox="0 0 159 24" fill="none" xmlns="http://www.w3.org/2000/svg">
<path d="M9.54004 15.92V10.5801L8.04004 12.2501" stroke="#1A1A1A" stroke-width="1.5" stroke-linecap="round" stroke-linejoin="round"/>
<path d="M10.0195 4.46997L11.9995 2" stroke="#1A1A1A" stroke-width="1.5" stroke-linecap="round" stroke-linejoin="round"/>
<path d="M4.91037 7.79999C3.80037 9.27999 3.11035 11.11 3.11035 13.11C3.11035 18.02 7.09037 22 12.0004 22C16.9104 22 20.8904 18.02 20.8904 13.11C20.8904 8.19999 16.9104 4.21997 12.0004 4.21997C11.3204 4.21997 10.6604 4.31002 10.0204 4.46002" stroke="#1A1A1A" stroke-width="1.5" stroke-linecap="round" stroke-linejoin="round"/>
<path d="M14 10.5801C15.1 10.5801 16 11.4801 16 12.5801V13.9301C16 15.0301 15.1 15.9301 14 15.9301C12.9 15.9301 12 15.0301 12 13.9301V12.5801C12 11.4701 12.9 10.5801 14 10.5801Z" stroke="#1A1A1A" stroke-width="1.5" stroke-linecap="round" stroke-linejoin="round"/>
<path d="M34.972 17V8.228H38.464C40.192 8.228 41.248 9.128 41.248 10.592C41.248 11.564 40.816 12.26 39.988 12.608C40.912 12.908 41.38 13.604 41.38 14.624C41.38 16.124 40.336 17 38.524 17H34.972ZM38.332 9.584H36.508V11.972H38.368C39.208 11.972 39.676 11.528 39.676 10.748C39.676 9.992 39.196 9.584 38.332 9.584ZM38.464 13.268H36.508V15.644H38.464C39.328 15.644 39.808 15.224 39.808 14.432C39.808 13.688 39.316 13.268 38.464 13.268ZM44.3364 17.156C43.0764 17.156 42.3084 16.424 42.3084 15.308C42.3084 14.216 43.1004 13.532 44.5044 13.424L46.2804 13.292V13.16C46.2804 12.356 45.8004 12.032 45.0564 12.032C44.1924 12.032 43.7124 12.392 43.7124 13.016H42.4644C42.4644 11.732 43.5204 10.892 45.1284 10.892C46.7244 10.892 47.7084 11.756 47.7084 13.4V17H46.4244L46.3164 16.124C46.0644 16.736 45.2604 17.156 44.3364 17.156ZM44.8164 16.052C45.7164 16.052 46.2924 15.512 46.2924 14.6V14.288L45.0564 14.384C44.1444 14.468 43.7964 14.768 43.7964 15.248C43.7964 15.788 44.1564 16.052 44.8164 16.052ZM48.7986 14.024C48.7986 12.188 50.0106 10.892 51.7626 10.892C53.3826 10.892 54.4866 11.792 54.6426 13.22H53.1786C53.0106 12.548 52.5186 12.2 51.8226 12.2C50.8866 12.2 50.2626 12.908 50.2626 14.024C50.2626 15.14 50.8386 15.836 51.7746 15.836C52.5066 15.836 53.0226 15.476 53.1786 14.828H54.6546C54.4746 16.208 53.3226 17.156 51.7746 17.156C49.9746 17.156 48.7986 15.908 48.7986 14.024ZM57.2203 17H55.7683V8.072H57.2203V13.556L59.5243 11.072H61.3603L59.1043 13.424L61.3123 17H59.6323L58.0843 14.504L57.2203 15.404V17ZM63.5093 17L61.5893 11.072H63.1133L63.8933 13.616C64.0253 14.084 64.1453 14.6 64.2533 15.152C64.3613 14.576 64.4693 14.204 64.6613 13.616L65.4773 11.072H66.9653L67.7573 13.616C67.8293 13.856 68.0693 14.744 68.1413 15.14C68.2373 14.696 68.4293 13.988 68.5373 13.616L69.3293 11.072H70.8773L68.8253 17H67.4573L66.6413 14.432C66.4013 13.652 66.2693 13.088 66.2213 12.788C66.1613 13.064 66.0533 13.484 65.7533 14.456L64.9373 17H63.5093ZM73.2348 17.156C71.9748 17.156 71.2068 16.424 71.2068 15.308C71.2068 14.216 71.9988 13.532 73.4028 13.424L75.1788 13.292V13.16C75.1788 12.356 74.6988 12.032 73.9548 12.032C73.0908 12.032 72.6108 12.392 72.6108 13.016H71.3628C71.3628 11.732 72.4188 10.892 74.0268 10.892C75.6228 10.892 76.6068 11.756 76.6068 13.4V17H75.3228L75.2148 16.124C74.9628 16.736 74.1588 17.156 73.2348 17.156ZM73.7148 16.052C74.6148 16.052 75.1908 15.512 75.1908 14.6V14.288L73.9548 14.384C73.0428 14.468 72.6948 14.768 72.6948 15.248C72.6948 15.788 73.0548 16.052 73.7148 16.052ZM81.7651 11.048V12.404H81.2251C80.1691 12.404 79.5091 12.968 79.5091 14.12V17H78.0451V11.084H79.4251L79.5091 11.948C79.7611 11.36 80.3251 10.964 81.1171 10.964C81.3211 10.964 81.5251 10.988 81.7651 11.048ZM84.9928 17.156C83.2768 17.156 82.2088 15.896 82.2088 14.06C82.2088 12.212 83.2888 10.892 85.0768 10.892C85.9048 10.892 86.6368 11.24 87.0088 11.828V8.072H88.4608V17H87.1168L87.0208 16.076C86.6608 16.76 85.8928 17.156 84.9928 17.156ZM85.3168 15.812C86.3368 15.812 86.9968 15.08 86.9968 14.012C86.9968 12.944 86.3368 12.2 85.3168 12.2C84.2968 12.2 83.6728 12.956 83.6728 14.012C83.6728 15.068 84.2968 15.812 85.3168 15.812ZM89.9745 14.444V13.148H93.8385V14.444H89.9745ZM96.0468 9.608H94.1268V8.228H97.5228V17H96.0468V9.608ZM99.016 12.632C99.016 9.908 100.48 8.06 102.724 8.06C104.968 8.06 106.444 9.908 106.444 12.632C106.444 15.344 105.052 17.156 102.724 17.156C100.396 17.156 99.016 15.344 99.016 12.632ZM100.528 12.632C100.528 14.66 101.344 15.8 102.724 15.8C104.116 15.8 104.932 14.66 104.932 12.632C104.932 10.556 104.116 9.416 102.724 9.416C101.344 9.416 100.528 10.556 100.528 12.632ZM107.705 14.444V13.148H111.569V14.444H107.705ZM112.523 15.2H113.915C113.927 15.716 114.311 16.04 114.983 16.04C115.667 16.04 116.039 15.764 116.039 15.332C116.039 15.032 115.883 14.816 115.355 14.696L114.287 14.444C113.219 14.204 112.703 13.7 112.703 12.752C112.703 11.588 113.687 10.892 115.055 10.892C116.387 10.892 117.287 11.66 117.299 12.812H115.907C115.895 12.308 115.559 11.984 114.995 11.984C114.419 11.984 114.083 12.248 114.083 12.692C114.083 13.028 114.347 13.244 114.851 13.364L115.919 13.616C116.915 13.844 117.419 14.3 117.419 15.212C117.419 16.412 116.399 17.156 114.935 17.156C113.459 17.156 112.523 16.364 112.523 15.2ZM121.185 17.156C119.421 17.156 118.185 15.872 118.185 14.036C118.185 12.176 119.397 10.892 121.137 10.892C122.913 10.892 124.041 12.08 124.041 13.928V14.372L119.577 14.384C119.685 15.428 120.237 15.956 121.209 15.956C122.013 15.956 122.541 15.644 122.709 15.08H124.065C123.813 16.376 122.733 17.156 121.185 17.156ZM121.149 12.092C120.285 12.092 119.757 12.56 119.613 13.448H122.589C122.589 12.632 122.025 12.092 121.149 12.092ZM124.865 14.024C124.865 12.188 126.077 10.892 127.829 10.892C129.449 10.892 130.553 11.792 130.709 13.22H129.245C129.077 12.548 128.585 12.2 127.889 12.2C126.953 12.2 126.329 12.908 126.329 14.024C126.329 15.14 126.905 15.836 127.841 15.836C128.573 15.836 129.089 15.476 129.245 14.828H130.721C130.541 16.208 129.389 17.156 127.841 17.156C126.041 17.156 124.865 15.908 124.865 14.024ZM131.463 14.024C131.463 12.176 132.795 10.904 134.631 10.904C136.467 10.904 137.799 12.176 137.799 14.024C137.799 15.872 136.467 17.144 134.631 17.144C132.795 17.144 131.463 15.872 131.463 14.024ZM132.927 14.024C132.927 15.104 133.623 15.836 134.631 15.836C135.639 15.836 136.335 15.104 136.335 14.024C136.335 12.944 135.639 12.212 134.631 12.212C133.623 12.212 132.927 12.944 132.927 14.024ZM140.423 17H138.959V11.072H140.315L140.435 11.84C140.807 11.24 141.527 10.892 142.331 10.892C143.819 10.892 144.587 11.816 144.587 13.352V17H143.123V13.7C143.123 12.704 142.631 12.224 141.875 12.224C140.975 12.224 140.423 12.848 140.423 13.808V17ZM148.462 17.156C146.746 17.156 145.678 15.896 145.678 14.06C145.678 12.212 146.758 10.892 148.546 10.892C149.374 10.892 150.106 11.24 150.478 11.828V8.072H151.93V17H150.586L150.49 16.076C150.13 16.76 149.362 17.156 148.462 17.156ZM148.786 15.812C149.806 15.812 150.466 15.08 150.466 14.012C150.466 12.944 149.806 12.2 148.786 12.2C147.766 12.2 147.142 12.956 147.142 14.012C147.142 15.068 147.766 15.812 148.786 15.812ZM152.999 15.2H154.391C154.403 15.716 154.787 16.04 155.459 16.04C156.143 16.04 156.515 15.764 156.515 15.332C156.515 15.032 156.359 14.816 155.831 14.696L154.763 14.444C153.695 14.204 153.179 13.7 153.179 12.752C153.179 11.588 154.163 10.892 155.531 10.892C156.863 10.892 157.763 11.66 157.775 12.812H156.383C156.371 12.308 156.035 11.984 155.471 11.984C154.895 11.984 154.559 12.248 154.559 12.692C154.559 13.028 154.823 13.244 155.327 13.364L156.395 13.616C157.391 13.844 157.895 14.3 157.895 15.212C157.895 16.412 156.875 17.156 155.411 17.156C153.935 17.156 152.999 16.364 152.999 15.2Z" fill="black"/>
</svg>
