<svg width="130" height="24" viewBox="0 0 130 24" fill="none" xmlns="http://www.w3.org/2000/svg">
<path fill-rule="evenodd" clip-rule="evenodd" d="M4.5 2H21.5V14L16.5 19H11.5L9.5 22H6.5V19H2.5V5L4.5 2Z" stroke="#1A1A1A" stroke-width="1.5" stroke-miterlimit="10" stroke-linecap="round" stroke-linejoin="round"/>
<path d="M11 7H9V13H11V7Z" stroke="#1A1A1A" stroke-width="1.5" stroke-miterlimit="10" stroke-linecap="round" stroke-linejoin="round"/>
<path d="M16 7H14V13H16V7Z" stroke="#1A1A1A" stroke-width="1.5" stroke-miterlimit="10" stroke-linecap="round" stroke-linejoin="round"/>
<path d="M34.204 8.644V7.228H40.876V8.644H38.308V16H36.772V8.644H34.204ZM42.6148 16L40.6948 10.072H42.2188L42.9988 12.616C43.1308 13.084 43.2508 13.6 43.3588 14.152C43.4668 13.576 43.5748 13.204 43.7668 12.616L44.5828 10.072H46.0708L46.8628 12.616C46.9348 12.856 47.1748 13.744 47.2468 14.14C47.3428 13.696 47.5348 12.988 47.6428 12.616L48.4348 10.072H49.9828L47.9308 16H46.5628L45.7468 13.432C45.5068 12.652 45.3748 12.088 45.3268 11.788C45.2668 12.064 45.1588 12.484 44.8588 13.456L44.0428 16H42.6148ZM51.6013 8.884C51.0973 8.884 50.7013 8.488 50.7013 7.996C50.7013 7.504 51.0973 7.12 51.6013 7.12C52.0813 7.12 52.4773 7.504 52.4773 7.996C52.4773 8.488 52.0813 8.884 51.6013 8.884ZM50.8693 16V10.072H52.3333V16H50.8693ZM55.8618 16H54.3978V11.296H53.2578V10.072H54.3978V8.224H55.8618V10.072H57.0138V11.296H55.8618V16ZM57.5174 13.024C57.5174 11.188 58.7294 9.892 60.4814 9.892C62.1014 9.892 63.2054 10.792 63.3614 12.22H61.8974C61.7294 11.548 61.2374 11.2 60.5414 11.2C59.6054 11.2 58.9814 11.908 58.9814 13.024C58.9814 14.14 59.5574 14.836 60.4934 14.836C61.2254 14.836 61.7414 14.476 61.8974 13.828H63.3734C63.1934 15.208 62.0414 16.156 60.4934 16.156C58.6934 16.156 57.5174 14.908 57.5174 13.024ZM65.927 16H64.463V7.072H65.939V10.84C66.311 10.264 67.007 9.892 67.859 9.892C69.323 9.892 70.091 10.816 70.091 12.352V16H68.627V12.7C68.627 11.704 68.135 11.224 67.391 11.224C66.467 11.224 65.927 11.872 65.927 12.76V16Z" fill="black"/>
</svg>
