<svg width="1585" height="28" viewBox="0 0 1585 28" fill="none" xmlns="http://www.w3.org/2000/svg">
<path d="M2.74444 0.363909V20.6079H0.000437677V0.363909H2.74444ZM6.12128 13.7759C6.12128 9.49191 8.83728 6.52391 12.8413 6.52391C16.2853 6.52391 18.6933 8.48391 19.1693 11.5359H16.5373C16.0893 9.79991 14.6893 8.87591 12.9253 8.87591C10.4333 8.87591 8.72528 10.7799 8.72528 13.7479C8.72528 16.6879 10.3213 18.5919 12.8133 18.5919C14.6893 18.5919 16.0893 17.6119 16.5653 15.9879H19.1973C18.6653 18.9559 16.1173 20.9439 12.8133 20.9439C8.78128 20.9439 6.12128 18.0879 6.12128 13.7759ZM21.0783 13.7479C21.0783 9.51991 24.1023 6.55191 28.2183 6.55191C32.3063 6.55191 35.3303 9.51991 35.3303 13.7479C35.3303 17.9759 32.3063 20.9439 28.2183 20.9439C24.1023 20.9439 21.0783 17.9759 21.0783 13.7479ZM23.7383 13.7479C23.7383 16.6039 25.5583 18.5919 28.2183 18.5919C30.8503 18.5919 32.6983 16.6039 32.6983 13.7479C32.6983 10.8919 30.8503 8.90391 28.2183 8.90391C25.5583 8.90391 23.7383 10.8919 23.7383 13.7479ZM40.8758 20.6079H38.2438V6.91591H40.6238L40.9038 9.01591C41.7718 7.44791 43.5078 6.52391 45.4398 6.52391C49.0518 6.52391 50.7038 8.73591 50.7038 12.2359V20.6079H48.0718V12.8239C48.0718 10.0519 46.7838 8.93191 44.7678 8.93191C42.3038 8.93191 40.8758 10.6959 40.8758 13.3559V20.6079ZM53.0653 16.6319H55.5853C55.5853 18.0319 56.6493 18.8719 58.3853 18.8719C60.2333 18.8719 61.2973 18.1159 61.2973 16.8559C61.2973 15.9319 60.8493 15.3719 59.4213 15.0079L57.0133 14.4479C54.5773 13.8599 53.4293 12.6559 53.4293 10.6399C53.4293 8.11991 55.5573 6.52391 58.5813 6.52391C61.5773 6.52391 63.5373 8.20391 63.5933 10.8079H61.0733C61.0173 9.43591 60.0933 8.56791 58.4973 8.56791C56.8453 8.56791 55.9213 9.29591 55.9213 10.5559C55.9213 11.4799 56.5933 12.0959 57.9373 12.4319L60.3453 13.0199C62.6693 13.5799 63.8173 14.6439 63.8173 16.6879C63.8173 19.2919 61.5773 20.9439 58.3293 20.9439C55.1093 20.9439 53.0653 19.2359 53.0653 16.6319ZM72.9363 6.91591H74.9523V4.73191C74.9523 1.37191 76.8003 -9.15527e-05 79.2923 -9.15527e-05C79.7963 -9.15527e-05 80.3843 0.0279098 80.9163 0.111909V2.37991H79.7403C78.0323 2.37991 77.5843 3.24791 77.5843 4.73191V6.91591H80.8323V9.12791H77.5843V20.6079H74.9523V9.12791H72.9363V6.91591ZM81.9728 13.7479C81.9728 9.51991 84.9968 6.55191 89.1128 6.55191C93.2008 6.55191 96.2248 9.51991 96.2248 13.7479C96.2248 17.9759 93.2008 20.9439 89.1128 20.9439C84.9968 20.9439 81.9728 17.9759 81.9728 13.7479ZM84.6328 13.7479C84.6328 16.6039 86.4528 18.5919 89.1128 18.5919C91.7448 18.5919 93.5928 16.6039 93.5928 13.7479C93.5928 10.8919 91.7448 8.90391 89.1128 8.90391C86.4528 8.90391 84.6328 10.8919 84.6328 13.7479ZM106.978 6.80391V9.21191H105.802C103.31 9.21191 101.77 10.7239 101.77 13.3559V20.6079H99.1384V6.94391H101.602L101.77 9.01591C102.33 7.58791 103.702 6.63591 105.578 6.63591C106.054 6.63591 106.446 6.69191 106.978 6.80391ZM115.983 16.6319H118.503C118.503 18.0319 119.567 18.8719 121.303 18.8719C123.151 18.8719 124.215 18.1159 124.215 16.8559C124.215 15.9319 123.767 15.3719 122.339 15.0079L119.931 14.4479C117.495 13.8599 116.347 12.6559 116.347 10.6399C116.347 8.11991 118.475 6.52391 121.499 6.52391C124.495 6.52391 126.455 8.20391 126.511 10.8079H123.991C123.935 9.43591 123.011 8.56791 121.415 8.56791C119.763 8.56791 118.839 9.29591 118.839 10.5559C118.839 11.4799 119.511 12.0959 120.855 12.4319L123.263 13.0199C125.587 13.5799 126.735 14.6439 126.735 16.6879C126.735 19.2919 124.495 20.9439 121.247 20.9439C118.027 20.9439 115.983 19.2359 115.983 16.6319ZM135.562 20.9439C131.53 20.9439 128.758 18.0319 128.758 13.7759C128.758 9.49191 131.474 6.52391 135.45 6.52391C139.342 6.52391 141.89 9.21191 141.89 13.2719V14.2519L131.306 14.2799C131.502 17.1639 133.014 18.7599 135.618 18.7599C137.662 18.7599 139.006 17.9199 139.454 16.3519H141.918C141.246 19.2919 138.95 20.9439 135.562 20.9439ZM135.45 8.73591C133.154 8.73591 131.698 10.1079 131.362 12.5159H139.258C139.258 10.2479 137.774 8.73591 135.45 8.73591ZM148.697 20.9439C145.757 20.9439 144.021 19.2919 144.021 16.7999C144.021 14.2799 145.897 12.7119 149.117 12.4599L153.429 12.1239V11.7319C153.429 9.43591 152.057 8.62391 150.209 8.62391C147.997 8.62391 146.737 9.60391 146.737 11.2559H144.441C144.441 8.39991 146.793 6.52391 150.321 6.52391C153.709 6.52391 156.005 8.31591 156.005 12.0119V20.6079H153.765L153.485 18.3959C152.785 19.9639 150.909 20.9439 148.697 20.9439ZM149.453 18.8999C151.945 18.8999 153.457 17.2759 153.457 14.6999V13.9719L149.957 14.2519C147.633 14.4759 146.681 15.3719 146.681 16.7159C146.681 18.1719 147.745 18.8999 149.453 18.8999ZM167.49 6.80391V9.21191H166.314C163.822 9.21191 162.282 10.7239 162.282 13.3559V20.6079H159.65V6.94391H162.114L162.282 9.01591C162.842 7.58791 164.214 6.63591 166.09 6.63591C166.566 6.63591 166.958 6.69191 167.49 6.80391ZM168.571 13.7759C168.571 9.49191 171.287 6.52391 175.291 6.52391C178.735 6.52391 181.143 8.48391 181.619 11.5359H178.987C178.539 9.79991 177.139 8.87591 175.375 8.87591C172.883 8.87591 171.175 10.7799 171.175 13.7479C171.175 16.6879 172.771 18.5919 175.263 18.5919C177.139 18.5919 178.539 17.6119 179.015 15.9879H181.647C181.115 18.9559 178.567 20.9439 175.263 20.9439C171.231 20.9439 168.571 18.0879 168.571 13.7759ZM187.056 20.5799H184.424V-9.15527e-05H187.056V9.01591C187.924 7.53191 189.576 6.52391 191.704 6.52391C195.204 6.52391 196.884 8.73591 196.884 12.2359V20.6079H194.252V12.8239C194.252 10.0519 192.936 8.93191 190.976 8.93191C188.428 8.93191 187.056 10.7799 187.056 13.1319V20.5799ZM210.565 20.6079H208.185V-9.15527e-05H210.817V9.26791C211.713 7.47591 213.561 6.52391 215.801 6.52391C219.721 6.52391 222.073 9.60391 222.073 13.8319C222.073 17.9759 219.609 20.9439 215.633 20.9439C213.477 20.9439 211.657 19.9919 210.761 18.1159L210.565 20.6079ZM210.845 13.7199C210.845 16.5759 212.469 18.5639 215.157 18.5639C217.845 18.5639 219.441 16.5479 219.441 13.7199C219.441 10.9199 217.845 8.90391 215.157 8.90391C212.469 8.90391 210.845 10.9199 210.845 13.7199ZM228.978 20.9439C226.038 20.9439 224.302 19.2919 224.302 16.7999C224.302 14.2799 226.178 12.7119 229.398 12.4599L233.71 12.1239V11.7319C233.71 9.43591 232.338 8.62391 230.49 8.62391C228.278 8.62391 227.018 9.60391 227.018 11.2559H224.722C224.722 8.39991 227.074 6.52391 230.602 6.52391C233.99 6.52391 236.286 8.31591 236.286 12.0119V20.6079H234.046L233.766 18.3959C233.066 19.9639 231.19 20.9439 228.978 20.9439ZM229.734 18.8999C232.226 18.8999 233.738 17.2759 233.738 14.6999V13.9719L230.238 14.2519C227.914 14.4759 226.962 15.3719 226.962 16.7159C226.962 18.1719 228.026 18.8999 229.734 18.8999ZM247.771 6.80391V9.21191H246.595C244.103 9.21191 242.563 10.7239 242.563 13.3559V20.6079H239.931V6.94391H242.395L242.563 9.01591C243.123 7.58791 244.495 6.63591 246.371 6.63591C246.847 6.63591 247.239 6.69191 247.771 6.80391ZM249.12 16.6319H251.64C251.64 18.0319 252.704 18.8719 254.44 18.8719C256.288 18.8719 257.352 18.1159 257.352 16.8559C257.352 15.9319 256.904 15.3719 255.476 15.0079L253.068 14.4479C250.632 13.8599 249.484 12.6559 249.484 10.6399C249.484 8.11991 251.612 6.52391 254.636 6.52391C257.632 6.52391 259.592 8.20391 259.648 10.8079H257.128C257.072 9.43591 256.148 8.56791 254.552 8.56791C252.9 8.56791 251.976 9.29591 251.976 10.5559C251.976 11.4799 252.648 12.0959 253.992 12.4319L256.4 13.0199C258.724 13.5799 259.872 14.6439 259.872 16.6879C259.872 19.2919 257.632 20.9439 254.384 20.9439C251.164 20.9439 249.12 19.2359 249.12 16.6319ZM266.575 19.5159C266.575 21.5319 265.063 23.2119 263.075 23.4639V22.2879C264.223 22.0919 265.035 21.3359 265.035 20.4679C264.839 20.5799 264.615 20.6359 264.279 20.6359C263.355 20.6359 262.571 19.9639 262.571 18.9279C262.571 17.8079 263.327 16.9959 264.447 16.9959C265.623 16.9959 266.575 17.9759 266.575 19.5159ZM287.289 20.6079V9.12791H281.213V20.6079H278.581V9.12791H276.565V6.91591H278.581V4.73191C278.581 1.37191 280.401 -9.15527e-05 282.781 -9.15527e-05C283.285 -9.15527e-05 283.901 0.0279098 284.405 0.111909V2.37991H283.229C281.633 2.37991 281.213 3.24791 281.213 4.73191V6.91591H289.921V20.6079H287.289ZM288.605 3.55591C287.653 3.55591 286.925 2.82791 286.925 1.87591C286.925 0.92391 287.653 0.195909 288.605 0.195909C289.529 0.195909 290.257 0.92391 290.257 1.87591C290.257 2.82791 289.529 3.55591 288.605 3.55591ZM296.35 20.6079H293.718V-9.15527e-05H296.35V20.6079ZM304.088 20.6079H301.456V9.12791H298.768V6.91591H301.456V2.63191H304.088V6.91591H306.776V9.12791H304.088V20.6079ZM314.91 20.9439C310.878 20.9439 308.106 18.0319 308.106 13.7759C308.106 9.49191 310.822 6.52391 314.798 6.52391C318.69 6.52391 321.238 9.21191 321.238 13.2719V14.2519L310.654 14.2799C310.85 17.1639 312.362 18.7599 314.966 18.7599C317.01 18.7599 318.354 17.9199 318.802 16.3519H321.266C320.594 19.2919 318.298 20.9439 314.91 20.9439ZM314.798 8.73591C312.502 8.73591 311.046 10.1079 310.71 12.5159H318.606C318.606 10.2479 317.122 8.73591 314.798 8.73591ZM332.017 6.80391V9.21191H330.841C328.349 9.21191 326.809 10.7239 326.809 13.3559V20.6079H324.177V6.94391H326.641L326.809 9.01591C327.369 7.58791 328.741 6.63591 330.617 6.63591C331.093 6.63591 331.485 6.69191 332.017 6.80391ZM333.366 16.6319H335.886C335.886 18.0319 336.95 18.8719 338.686 18.8719C340.534 18.8719 341.598 18.1159 341.598 16.8559C341.598 15.9319 341.15 15.3719 339.722 15.0079L337.314 14.4479C334.878 13.8599 333.73 12.6559 333.73 10.6399C333.73 8.11991 335.858 6.52391 338.882 6.52391C341.878 6.52391 343.838 8.20391 343.894 10.8079H341.374C341.318 9.43591 340.394 8.56791 338.798 8.56791C337.146 8.56791 336.222 9.29591 336.222 10.5559C336.222 11.4799 336.894 12.0959 338.238 12.4319L340.646 13.0199C342.97 13.5799 344.118 14.6439 344.118 16.6879C344.118 19.2919 341.878 20.9439 338.63 20.9439C335.41 20.9439 333.366 19.2359 333.366 16.6319ZM350.821 19.5159C350.821 21.5319 349.309 23.2119 347.321 23.4639V22.2879C348.469 22.0919 349.281 21.3359 349.281 20.4679C349.085 20.5799 348.861 20.6359 348.525 20.6359C347.601 20.6359 346.817 19.9639 346.817 18.9279C346.817 17.8079 347.573 16.9959 348.693 16.9959C349.869 16.9959 350.821 17.9759 350.821 19.5159ZM367.755 20.9439C363.779 20.9439 361.371 17.9759 361.371 13.8039C361.371 9.60391 363.807 6.52391 367.867 6.52391C369.967 6.52391 371.731 7.44791 372.655 9.12791V-9.15527e-05H375.259V20.6079H372.907L372.683 18.1159C371.787 19.9919 369.939 20.9439 367.755 20.9439ZM368.287 18.5639C370.975 18.5639 372.627 16.5759 372.627 13.7199C372.627 10.9199 370.975 8.90391 368.287 8.90391C365.599 8.90391 364.031 10.9199 364.031 13.7199C364.031 16.5479 365.599 18.5639 368.287 18.5639ZM380.344 3.66791C379.392 3.66791 378.608 2.88391 378.608 1.93191C378.608 0.95191 379.392 0.195909 380.344 0.195909C381.296 0.195909 382.08 0.95191 382.08 1.93191C382.08 2.88391 381.296 3.66791 380.344 3.66791ZM379.056 20.6079V6.91591H381.688V20.6079H379.056ZM384.389 16.6319H386.909C386.909 18.0319 387.973 18.8719 389.709 18.8719C391.557 18.8719 392.621 18.1159 392.621 16.8559C392.621 15.9319 392.173 15.3719 390.745 15.0079L388.337 14.4479C385.901 13.8599 384.753 12.6559 384.753 10.6399C384.753 8.11991 386.881 6.52391 389.905 6.52391C392.901 6.52391 394.861 8.20391 394.917 10.8079H392.397C392.341 9.43591 391.417 8.56791 389.821 8.56791C388.169 8.56791 387.245 9.29591 387.245 10.5559C387.245 11.4799 387.917 12.0959 389.261 12.4319L391.669 13.0199C393.993 13.5799 395.141 14.6439 395.141 16.6879C395.141 19.2919 392.901 20.9439 389.653 20.9439C386.433 20.9439 384.389 19.2359 384.389 16.6319ZM397.164 13.7759C397.164 9.49191 399.88 6.52391 403.884 6.52391C407.328 6.52391 409.736 8.48391 410.212 11.5359H407.58C407.132 9.79991 405.732 8.87591 403.968 8.87591C401.476 8.87591 399.768 10.7799 399.768 13.7479C399.768 16.6879 401.364 18.5919 403.856 18.5919C405.732 18.5919 407.132 17.6119 407.608 15.9879H410.24C409.708 18.9559 407.16 20.9439 403.856 20.9439C399.824 20.9439 397.164 18.0879 397.164 13.7759ZM412.121 13.7479C412.121 9.51991 415.145 6.55191 419.261 6.55191C423.349 6.55191 426.373 9.51991 426.373 13.7479C426.373 17.9759 423.349 20.9439 419.261 20.9439C415.145 20.9439 412.121 17.9759 412.121 13.7479ZM414.781 13.7479C414.781 16.6039 416.601 18.5919 419.261 18.5919C421.893 18.5919 423.741 16.6039 423.741 13.7479C423.741 10.8919 421.893 8.90391 419.261 8.90391C416.601 8.90391 414.781 10.8919 414.781 13.7479ZM432.494 20.6079L426.978 6.91591H429.778L432.774 14.5599C433.25 15.8479 433.642 16.9959 433.866 17.8359C434.09 16.9399 434.538 15.7639 435.014 14.5599L438.066 6.91591H440.81L435.098 20.6079H432.494ZM448.183 20.9439C444.151 20.9439 441.379 18.0319 441.379 13.7759C441.379 9.49191 444.095 6.52391 448.071 6.52391C451.963 6.52391 454.511 9.21191 454.511 13.2719V14.2519L443.927 14.2799C444.123 17.1639 445.635 18.7599 448.239 18.7599C450.283 18.7599 451.627 17.9199 452.075 16.3519H454.539C453.867 19.2919 451.571 20.9439 448.183 20.9439ZM448.071 8.73591C445.775 8.73591 444.319 10.1079 443.983 12.5159H451.879C451.879 10.2479 450.395 8.73591 448.071 8.73591ZM465.291 6.80391V9.21191H464.115C461.623 9.21191 460.083 10.7239 460.083 13.3559V20.6079H457.451V6.94391H459.915L460.083 9.01591C460.643 7.58791 462.015 6.63591 463.891 6.63591C464.367 6.63591 464.759 6.69191 465.291 6.80391ZM466.854 26.7399V24.5839H468.618C469.878 24.5839 470.886 24.3879 471.53 22.6519L472.006 21.3359L466.49 6.91591H469.262L473.238 17.9479L477.298 6.91591H480.014L473.546 23.6879C472.622 26.0399 471.25 27.0199 469.15 27.0199C468.282 27.0199 467.554 26.9079 466.854 26.7399ZM493.775 20.9439C490.835 20.9439 489.099 19.2919 489.099 16.7999C489.099 14.2799 490.975 12.7119 494.195 12.4599L498.507 12.1239V11.7319C498.507 9.43591 497.135 8.62391 495.287 8.62391C493.075 8.62391 491.815 9.60391 491.815 11.2559H489.519C489.519 8.39991 491.871 6.52391 495.399 6.52391C498.787 6.52391 501.083 8.31591 501.083 12.0119V20.6079H498.843L498.563 18.3959C497.863 19.9639 495.987 20.9439 493.775 20.9439ZM494.531 18.8999C497.023 18.8999 498.535 17.2759 498.535 14.6999V13.9719L495.035 14.2519C492.711 14.4759 491.759 15.3719 491.759 16.7159C491.759 18.1719 492.823 18.8999 494.531 18.8999ZM503.832 13.7759C503.832 9.49191 506.548 6.52391 510.552 6.52391C513.996 6.52391 516.404 8.48391 516.88 11.5359H514.248C513.8 9.79991 512.4 8.87591 510.636 8.87591C508.144 8.87591 506.436 10.7799 506.436 13.7479C506.436 16.6879 508.032 18.5919 510.524 18.5919C512.4 18.5919 513.8 17.6119 514.276 15.9879H516.908C516.376 18.9559 513.828 20.9439 510.524 20.9439C506.492 20.9439 503.832 18.0879 503.832 13.7759ZM523.549 20.6079H520.917V9.12791H518.229V6.91591H520.917V2.63191H523.549V6.91591H526.237V9.12791H523.549V20.6079ZM529.887 3.66791C528.935 3.66791 528.151 2.88391 528.151 1.93191C528.151 0.95191 528.935 0.195909 529.887 0.195909C530.839 0.195909 531.623 0.95191 531.623 1.93191C531.623 2.88391 530.839 3.66791 529.887 3.66791ZM528.599 20.6079V6.91591H531.231V20.6079H528.599ZM534.156 13.7479C534.156 9.51991 537.18 6.55191 541.296 6.55191C545.384 6.55191 548.408 9.51991 548.408 13.7479C548.408 17.9759 545.384 20.9439 541.296 20.9439C537.18 20.9439 534.156 17.9759 534.156 13.7479ZM536.816 13.7479C536.816 16.6039 538.636 18.5919 541.296 18.5919C543.928 18.5919 545.776 16.6039 545.776 13.7479C545.776 10.8919 543.928 8.90391 541.296 8.90391C538.636 8.90391 536.816 10.8919 536.816 13.7479ZM553.954 20.6079H551.322V6.91591H553.702L553.982 9.01591C554.85 7.44791 556.586 6.52391 558.518 6.52391C562.13 6.52391 563.782 8.73591 563.782 12.2359V20.6079H561.15V12.8239C561.15 10.0519 559.862 8.93191 557.846 8.93191C555.382 8.93191 553.954 10.6959 553.954 13.3559V20.6079ZM566.143 16.6319H568.663C568.663 18.0319 569.727 18.8719 571.463 18.8719C573.311 18.8719 574.375 18.1159 574.375 16.8559C574.375 15.9319 573.927 15.3719 572.499 15.0079L570.091 14.4479C567.655 13.8599 566.507 12.6559 566.507 10.6399C566.507 8.11991 568.635 6.52391 571.659 6.52391C574.655 6.52391 576.615 8.20391 576.671 10.8079H574.151C574.095 9.43591 573.171 8.56791 571.575 8.56791C569.923 8.56791 568.999 9.29591 568.999 10.5559C568.999 11.4799 569.671 12.0959 571.015 12.4319L573.423 13.0199C575.747 13.5799 576.895 14.6439 576.895 16.6879C576.895 19.2919 574.655 20.9439 571.407 20.9439C568.187 20.9439 566.143 19.2359 566.143 16.6319ZM583.598 19.5159C583.598 21.5319 582.086 23.2119 580.098 23.4639V22.2879C581.246 22.0919 582.058 21.3359 582.058 20.4679C581.862 20.5799 581.638 20.6359 581.302 20.6359C580.378 20.6359 579.594 19.9639 579.594 18.9279C579.594 17.8079 580.35 16.9959 581.47 16.9959C582.646 16.9959 583.598 17.9759 583.598 19.5159ZM599.049 20.9439C596.109 20.9439 594.373 19.2919 594.373 16.7999C594.373 14.2799 596.249 12.7119 599.469 12.4599L603.781 12.1239V11.7319C603.781 9.43591 602.409 8.62391 600.561 8.62391C598.349 8.62391 597.089 9.60391 597.089 11.2559H594.793C594.793 8.39991 597.145 6.52391 600.673 6.52391C604.061 6.52391 606.357 8.31591 606.357 12.0119V20.6079H604.117L603.837 18.3959C603.137 19.9639 601.261 20.9439 599.049 20.9439ZM599.805 18.8999C602.297 18.8999 603.809 17.2759 603.809 14.6999V13.9719L600.309 14.2519C597.985 14.4759 597.033 15.3719 597.033 16.7159C597.033 18.1719 598.097 18.8999 599.805 18.8999ZM612.634 20.6079H610.002V6.91591H612.382L612.662 9.01591C613.53 7.44791 615.266 6.52391 617.198 6.52391C620.81 6.52391 622.462 8.73591 622.462 12.2359V20.6079H619.83V12.8239C619.83 10.0519 618.542 8.93191 616.526 8.93191C614.062 8.93191 612.634 10.6959 612.634 13.3559V20.6079ZM631.595 20.9439C627.619 20.9439 625.211 17.9759 625.211 13.8039C625.211 9.60391 627.647 6.52391 631.707 6.52391C633.807 6.52391 635.571 7.44791 636.495 9.12791V-9.15527e-05H639.099V20.6079H636.747L636.523 18.1159C635.627 19.9919 633.779 20.9439 631.595 20.9439ZM632.127 18.5639C634.815 18.5639 636.467 16.5759 636.467 13.7199C636.467 10.9199 634.815 8.90391 632.127 8.90391C629.439 8.90391 627.871 10.9199 627.871 13.7199C627.871 16.5479 629.439 18.5639 632.127 18.5639ZM653.24 20.6079H650.608V-9.15527e-05H653.24V20.6079ZM656.219 13.7479C656.219 9.51991 659.243 6.55191 663.359 6.55191C667.447 6.55191 670.471 9.51991 670.471 13.7479C670.471 17.9759 667.447 20.9439 663.359 20.9439C659.243 20.9439 656.219 17.9759 656.219 13.7479ZM658.879 13.7479C658.879 16.6039 660.699 18.5919 663.359 18.5919C665.991 18.5919 667.839 16.6039 667.839 13.7479C667.839 10.8919 665.991 8.90391 663.359 8.90391C660.699 8.90391 658.879 10.8919 658.879 13.7479ZM672.488 13.7479C672.488 9.51991 675.512 6.55191 679.628 6.55191C683.716 6.55191 686.74 9.51991 686.74 13.7479C686.74 17.9759 683.716 20.9439 679.628 20.9439C675.512 20.9439 672.488 17.9759 672.488 13.7479ZM675.148 13.7479C675.148 16.6039 676.968 18.5919 679.628 18.5919C682.26 18.5919 684.108 16.6039 684.108 13.7479C684.108 10.8919 682.26 8.90391 679.628 8.90391C676.968 8.90391 675.148 10.8919 675.148 13.7479ZM692.342 20.6079H689.71V-9.15527e-05H692.342V13.3559L698.418 6.91591H701.722L696.486 12.3759L701.694 20.6079H698.67L694.666 14.2799L692.342 16.7159V20.6079ZM713.337 6.91591H715.941V20.6079H713.589L713.309 18.5359C712.525 19.9639 710.705 20.9439 708.689 20.9439C705.497 20.9439 703.705 18.7879 703.705 15.4279V6.91591H706.337V14.5599C706.337 17.4999 707.597 18.6199 709.613 18.6199C712.021 18.6199 713.337 17.0799 713.337 14.1399V6.91591ZM719.759 26.7399V6.91591H722.139L722.335 9.37991C723.259 7.50391 725.107 6.52391 727.291 6.52391C731.211 6.52391 733.647 9.46391 733.647 13.6639C733.647 17.8359 731.351 20.9719 727.291 20.9719C725.107 20.9719 723.287 20.0479 722.391 18.3679V26.7399H719.759ZM722.419 13.7759C722.419 16.5759 724.043 18.5919 726.731 18.5919C729.419 18.5919 731.015 16.5759 731.015 13.7759C731.015 10.9479 729.419 8.93191 726.731 8.93191C724.043 8.93191 722.419 10.9199 722.419 13.7759ZM742.749 6.91591H744.765V4.73191C744.765 1.37191 746.613 -9.15527e-05 749.105 -9.15527e-05C749.609 -9.15527e-05 750.197 0.0279098 750.729 0.111909V2.37991H749.553C747.845 2.37991 747.397 3.24791 747.397 4.73191V6.91591H750.645V9.12791H747.397V20.6079H744.765V9.12791H742.749V6.91591ZM762.556 6.91591H765.16V20.6079H762.808L762.528 18.5359C761.744 19.9639 759.924 20.9439 757.908 20.9439C754.716 20.9439 752.924 18.7879 752.924 15.4279V6.91591H755.556V14.5599C755.556 17.4999 756.816 18.6199 758.832 18.6199C761.24 18.6199 762.556 17.0799 762.556 14.1399V6.91591ZM771.61 20.6079H768.978V6.91591H771.358L771.638 9.01591C772.506 7.44791 774.242 6.52391 776.174 6.52391C779.786 6.52391 781.438 8.73591 781.438 12.2359V20.6079H778.806V12.8239C778.806 10.0519 777.518 8.93191 775.502 8.93191C773.038 8.93191 771.61 10.6959 771.61 13.3559V20.6079ZM784.188 13.7759C784.188 9.49191 786.904 6.52391 790.908 6.52391C794.352 6.52391 796.76 8.48391 797.236 11.5359H794.604C794.156 9.79991 792.756 8.87591 790.992 8.87591C788.5 8.87591 786.792 10.7799 786.792 13.7479C786.792 16.6879 788.388 18.5919 790.88 18.5919C792.756 18.5919 794.156 17.6119 794.632 15.9879H797.264C796.732 18.9559 794.184 20.9439 790.88 20.9439C786.848 20.9439 784.188 18.0879 784.188 13.7759ZM803.905 20.6079H801.273V9.12791H798.585V6.91591H801.273V2.63191H803.905V6.91591H806.593V9.12791H803.905V20.6079ZM810.243 3.66791C809.291 3.66791 808.507 2.88391 808.507 1.93191C808.507 0.95191 809.291 0.195909 810.243 0.195909C811.195 0.195909 811.979 0.95191 811.979 1.93191C811.979 2.88391 811.195 3.66791 810.243 3.66791ZM808.955 20.6079V6.91591H811.587V20.6079H808.955ZM814.512 13.7479C814.512 9.51991 817.536 6.55191 821.652 6.55191C825.74 6.55191 828.764 9.51991 828.764 13.7479C828.764 17.9759 825.74 20.9439 821.652 20.9439C817.536 20.9439 814.512 17.9759 814.512 13.7479ZM817.172 13.7479C817.172 16.6039 818.992 18.5919 821.652 18.5919C824.284 18.5919 826.132 16.6039 826.132 13.7479C826.132 10.8919 824.284 8.90391 821.652 8.90391C818.992 8.90391 817.172 10.8919 817.172 13.7479ZM834.309 20.6079H831.677V6.91591H834.057L834.337 9.01591C835.205 7.44791 836.941 6.52391 838.873 6.52391C842.485 6.52391 844.137 8.73591 844.137 12.2359V20.6079H841.505V12.8239C841.505 10.0519 840.217 8.93191 838.201 8.93191C835.737 8.93191 834.309 10.6959 834.309 13.3559V20.6079ZM846.499 16.6319H849.019C849.019 18.0319 850.083 18.8719 851.819 18.8719C853.667 18.8719 854.731 18.1159 854.731 16.8559C854.731 15.9319 854.283 15.3719 852.855 15.0079L850.447 14.4479C848.011 13.8599 846.863 12.6559 846.863 10.6399C846.863 8.11991 848.991 6.52391 852.015 6.52391C855.011 6.52391 856.971 8.20391 857.027 10.8079H854.507C854.451 9.43591 853.527 8.56791 851.931 8.56791C850.279 8.56791 849.355 9.29591 849.355 10.5559C849.355 11.4799 850.027 12.0959 851.371 12.4319L853.779 13.0199C856.103 13.5799 857.251 14.6439 857.251 16.6879C857.251 19.2919 855.011 20.9439 851.763 20.9439C848.543 20.9439 846.499 19.2359 846.499 16.6319ZM877.29 6.91591H879.894V20.6079H877.542L877.262 18.5359C876.478 19.9639 874.658 20.9439 872.642 20.9439C869.45 20.9439 867.658 18.7879 867.658 15.4279V6.91591H870.29V14.5599C870.29 17.4999 871.55 18.6199 873.566 18.6199C875.974 18.6199 877.29 17.0799 877.29 14.1399V6.91591ZM882.319 16.6319H884.839C884.839 18.0319 885.903 18.8719 887.639 18.8719C889.487 18.8719 890.551 18.1159 890.551 16.8559C890.551 15.9319 890.103 15.3719 888.675 15.0079L886.267 14.4479C883.831 13.8599 882.683 12.6559 882.683 10.6399C882.683 8.11991 884.811 6.52391 887.835 6.52391C890.831 6.52391 892.791 8.20391 892.847 10.8079H890.327C890.271 9.43591 889.347 8.56791 887.751 8.56791C886.099 8.56791 885.175 9.29591 885.175 10.5559C885.175 11.4799 885.847 12.0959 887.191 12.4319L889.599 13.0199C891.923 13.5799 893.071 14.6439 893.071 16.6879C893.071 19.2919 890.831 20.9439 887.583 20.9439C884.363 20.9439 882.319 19.2359 882.319 16.6319ZM901.898 20.9439C897.866 20.9439 895.094 18.0319 895.094 13.7759C895.094 9.49191 897.81 6.52391 901.786 6.52391C905.678 6.52391 908.226 9.21191 908.226 13.2719V14.2519L897.642 14.2799C897.838 17.1639 899.35 18.7599 901.954 18.7599C903.998 18.7599 905.342 17.9199 905.79 16.3519H908.254C907.582 19.2919 905.286 20.9439 901.898 20.9439ZM901.786 8.73591C899.49 8.73591 898.034 10.1079 897.698 12.5159H905.594C905.594 10.2479 904.11 8.73591 901.786 8.73591ZM916.654 20.9439C912.678 20.9439 910.27 17.9759 910.27 13.8039C910.27 9.60391 912.706 6.52391 916.766 6.52391C918.866 6.52391 920.63 7.44791 921.554 9.12791V-9.15527e-05H924.158V20.6079H921.806L921.582 18.1159C920.686 19.9919 918.838 20.9439 916.654 20.9439ZM917.186 18.5639C919.874 18.5639 921.526 16.5759 921.526 13.7199C921.526 10.9199 919.874 8.90391 917.186 8.90391C914.498 8.90391 912.93 10.9199 912.93 13.7199C912.93 16.5479 914.498 18.5639 917.186 18.5639ZM939.615 20.9439C936.675 20.9439 934.939 19.2919 934.939 16.7999C934.939 14.2799 936.815 12.7119 940.035 12.4599L944.347 12.1239V11.7319C944.347 9.43591 942.975 8.62391 941.127 8.62391C938.915 8.62391 937.655 9.60391 937.655 11.2559H935.359C935.359 8.39991 937.711 6.52391 941.239 6.52391C944.627 6.52391 946.923 8.31591 946.923 12.0119V20.6079H944.683L944.403 18.3959C943.703 19.9639 941.827 20.9439 939.615 20.9439ZM940.371 18.8999C942.863 18.8999 944.375 17.2759 944.375 14.6999V13.9719L940.875 14.2519C938.551 14.4759 937.599 15.3719 937.599 16.7159C937.599 18.1719 938.663 18.8999 940.371 18.8999ZM949.672 13.7759C949.672 9.49191 952.388 6.52391 956.392 6.52391C959.836 6.52391 962.244 8.48391 962.72 11.5359H960.088C959.64 9.79991 958.24 8.87591 956.476 8.87591C953.984 8.87591 952.276 10.7799 952.276 13.7479C952.276 16.6879 953.872 18.5919 956.364 18.5919C958.24 18.5919 959.64 17.6119 960.116 15.9879H962.748C962.216 18.9559 959.668 20.9439 956.364 20.9439C952.332 20.9439 949.672 18.0879 949.672 13.7759ZM973.365 6.80391V9.21191H972.189C969.697 9.21191 968.157 10.7239 968.157 13.3559V20.6079H965.525V6.94391H967.989L968.157 9.01591C968.717 7.58791 970.089 6.63591 971.965 6.63591C972.441 6.63591 972.833 6.69191 973.365 6.80391ZM974.446 13.7479C974.446 9.51991 977.47 6.55191 981.586 6.55191C985.674 6.55191 988.698 9.51991 988.698 13.7479C988.698 17.9759 985.674 20.9439 981.586 20.9439C977.47 20.9439 974.446 17.9759 974.446 13.7479ZM977.106 13.7479C977.106 16.6039 978.926 18.5919 981.586 18.5919C984.218 18.5919 986.066 16.6039 986.066 13.7479C986.066 10.8919 984.218 8.90391 981.586 8.90391C978.926 8.90391 977.106 10.8919 977.106 13.7479ZM990.491 16.6319H993.011C993.011 18.0319 994.075 18.8719 995.811 18.8719C997.659 18.8719 998.723 18.1159 998.723 16.8559C998.723 15.9319 998.275 15.3719 996.847 15.0079L994.439 14.4479C992.003 13.8599 990.855 12.6559 990.855 10.6399C990.855 8.11991 992.983 6.52391 996.007 6.52391C999.003 6.52391 1000.96 8.20391 1001.02 10.8079H998.499C998.443 9.43591 997.519 8.56791 995.923 8.56791C994.271 8.56791 993.347 9.29591 993.347 10.5559C993.347 11.4799 994.019 12.0959 995.363 12.4319L997.771 13.0199C1000.1 13.5799 1001.24 14.6439 1001.24 16.6879C1001.24 19.2919 999.003 20.9439 995.755 20.9439C992.535 20.9439 990.491 19.2359 990.491 16.6319ZM1003.04 16.6319H1005.56C1005.56 18.0319 1006.63 18.8719 1008.36 18.8719C1010.21 18.8719 1011.27 18.1159 1011.27 16.8559C1011.27 15.9319 1010.83 15.3719 1009.4 15.0079L1006.99 14.4479C1004.55 13.8599 1003.41 12.6559 1003.41 10.6399C1003.41 8.11991 1005.53 6.52391 1008.56 6.52391C1011.55 6.52391 1013.51 8.20391 1013.57 10.8079H1011.05C1010.99 9.43591 1010.07 8.56791 1008.47 8.56791C1006.82 8.56791 1005.9 9.29591 1005.9 10.5559C1005.9 11.4799 1006.57 12.0959 1007.91 12.4319L1010.32 13.0199C1012.65 13.5799 1013.79 14.6439 1013.79 16.6879C1013.79 19.2919 1011.55 20.9439 1008.31 20.9439C1005.09 20.9439 1003.04 19.2359 1003.04 16.6319ZM1029.86 20.9439C1025.88 20.9439 1023.47 17.9759 1023.47 13.8039C1023.47 9.60391 1025.91 6.52391 1029.97 6.52391C1032.07 6.52391 1033.83 7.44791 1034.76 9.12791V-9.15527e-05H1037.36V20.6079H1035.01L1034.78 18.1159C1033.89 19.9919 1032.04 20.9439 1029.86 20.9439ZM1030.39 18.5639C1033.08 18.5639 1034.73 16.5759 1034.73 13.7199C1034.73 10.9199 1033.08 8.90391 1030.39 8.90391C1027.7 8.90391 1026.13 10.9199 1026.13 13.7199C1026.13 16.5479 1027.7 18.5639 1030.39 18.5639ZM1045.16 20.9439C1042.22 20.9439 1040.49 19.2919 1040.49 16.7999C1040.49 14.2799 1042.36 12.7119 1045.58 12.4599L1049.89 12.1239V11.7319C1049.89 9.43591 1048.52 8.62391 1046.67 8.62391C1044.46 8.62391 1043.2 9.60391 1043.2 11.2559H1040.91C1040.91 8.39991 1043.26 6.52391 1046.79 6.52391C1050.17 6.52391 1052.47 8.31591 1052.47 12.0119V20.6079H1050.23L1049.95 18.3959C1049.25 19.9639 1047.37 20.9439 1045.16 20.9439ZM1045.92 18.8999C1048.41 18.8999 1049.92 17.2759 1049.92 14.6999V13.9719L1046.42 14.2519C1044.1 14.4759 1043.15 15.3719 1043.15 16.7159C1043.15 18.1719 1044.21 18.8999 1045.92 18.8999ZM1054.99 16.6319H1057.51C1057.51 18.0319 1058.58 18.8719 1060.31 18.8719C1062.16 18.8719 1063.23 18.1159 1063.23 16.8559C1063.23 15.9319 1062.78 15.3719 1061.35 15.0079L1058.94 14.4479C1056.51 13.8599 1055.36 12.6559 1055.36 10.6399C1055.36 8.11991 1057.49 6.52391 1060.51 6.52391C1063.51 6.52391 1065.47 8.20391 1065.52 10.8079H1063C1062.95 9.43591 1062.02 8.56791 1060.43 8.56791C1058.77 8.56791 1057.85 9.29591 1057.85 10.5559C1057.85 11.4799 1058.52 12.0959 1059.87 12.4319L1062.27 13.0199C1064.6 13.5799 1065.75 14.6439 1065.75 16.6879C1065.75 19.2919 1063.51 20.9439 1060.26 20.9439C1057.04 20.9439 1054.99 19.2359 1054.99 16.6319ZM1071.3 20.5799H1068.67V-9.15527e-05H1071.3V9.01591C1072.17 7.53191 1073.82 6.52391 1075.95 6.52391C1079.45 6.52391 1081.13 8.73591 1081.13 12.2359V20.6079H1078.49V12.8239C1078.49 10.0519 1077.18 8.93191 1075.22 8.93191C1072.67 8.93191 1071.3 10.7799 1071.3 13.1319V20.5799ZM1087.15 20.6079H1084.77V-9.15527e-05H1087.4V9.26791C1088.3 7.47591 1090.15 6.52391 1092.39 6.52391C1096.31 6.52391 1098.66 9.60391 1098.66 13.8319C1098.66 17.9759 1096.2 20.9439 1092.22 20.9439C1090.06 20.9439 1088.24 19.9919 1087.35 18.1159L1087.15 20.6079ZM1087.43 13.7199C1087.43 16.5759 1089.06 18.5639 1091.74 18.5639C1094.43 18.5639 1096.03 16.5479 1096.03 13.7199C1096.03 10.9199 1094.43 8.90391 1091.74 8.90391C1089.06 8.90391 1087.43 10.9199 1087.43 13.7199ZM1100.66 13.7479C1100.66 9.51991 1103.69 6.55191 1107.8 6.55191C1111.89 6.55191 1114.92 9.51991 1114.92 13.7479C1114.92 17.9759 1111.89 20.9439 1107.8 20.9439C1103.69 20.9439 1100.66 17.9759 1100.66 13.7479ZM1103.32 13.7479C1103.32 16.6039 1105.14 18.5919 1107.8 18.5919C1110.44 18.5919 1112.28 16.6039 1112.28 13.7479C1112.28 10.8919 1110.44 8.90391 1107.8 8.90391C1105.14 8.90391 1103.32 10.8919 1103.32 13.7479ZM1121.83 20.9439C1118.89 20.9439 1117.16 19.2919 1117.16 16.7999C1117.16 14.2799 1119.03 12.7119 1122.25 12.4599L1126.57 12.1239V11.7319C1126.57 9.43591 1125.19 8.62391 1123.35 8.62391C1121.13 8.62391 1119.87 9.60391 1119.87 11.2559H1117.58C1117.58 8.39991 1119.93 6.52391 1123.46 6.52391C1126.85 6.52391 1129.14 8.31591 1129.14 12.0119V20.6079H1126.9L1126.62 18.3959C1125.92 19.9639 1124.05 20.9439 1121.83 20.9439ZM1122.59 18.8999C1125.08 18.8999 1126.59 17.2759 1126.59 14.6999V13.9719L1123.09 14.2519C1120.77 14.4759 1119.82 15.3719 1119.82 16.7159C1119.82 18.1719 1120.88 18.8999 1122.59 18.8999ZM1140.63 6.80391V9.21191H1139.45C1136.96 9.21191 1135.42 10.7239 1135.42 13.3559V20.6079H1132.79V6.94391H1135.25L1135.42 9.01591C1135.98 7.58791 1137.35 6.63591 1139.23 6.63591C1139.7 6.63591 1140.09 6.69191 1140.63 6.80391ZM1148.09 20.9439C1144.12 20.9439 1141.71 17.9759 1141.71 13.8039C1141.71 9.60391 1144.14 6.52391 1148.2 6.52391C1150.3 6.52391 1152.07 7.44791 1152.99 9.12791V-9.15527e-05H1155.6V20.6079H1153.24L1153.02 18.1159C1152.12 19.9919 1150.28 20.9439 1148.09 20.9439ZM1148.62 18.5639C1151.31 18.5639 1152.96 16.5759 1152.96 13.7199C1152.96 10.9199 1151.31 8.90391 1148.62 8.90391C1145.94 8.90391 1144.37 10.9199 1144.37 13.7199C1144.37 16.5479 1145.94 18.5639 1148.62 18.5639ZM1158.27 16.6319H1160.79C1160.79 18.0319 1161.86 18.8719 1163.59 18.8719C1165.44 18.8719 1166.5 18.1159 1166.5 16.8559C1166.5 15.9319 1166.06 15.3719 1164.63 15.0079L1162.22 14.4479C1159.78 13.8599 1158.64 12.6559 1158.64 10.6399C1158.64 8.11991 1160.76 6.52391 1163.79 6.52391C1166.78 6.52391 1168.74 8.20391 1168.8 10.8079H1166.28C1166.22 9.43591 1165.3 8.56791 1163.7 8.56791C1162.05 8.56791 1161.13 9.29591 1161.13 10.5559C1161.13 11.4799 1161.8 12.0959 1163.14 12.4319L1165.55 13.0199C1167.88 13.5799 1169.02 14.6439 1169.02 16.6879C1169.02 19.2919 1166.78 20.9439 1163.54 20.9439C1160.32 20.9439 1158.27 19.2359 1158.27 16.6319ZM1175.73 19.5159C1175.73 21.5319 1174.22 23.2119 1172.23 23.4639V22.2879C1173.38 22.0919 1174.19 21.3359 1174.19 20.4679C1173.99 20.5799 1173.77 20.6359 1173.43 20.6359C1172.51 20.6359 1171.72 19.9639 1171.72 18.9279C1171.72 17.8079 1172.48 16.9959 1173.6 16.9959C1174.78 16.9959 1175.73 17.9759 1175.73 19.5159ZM1191.18 20.9439C1188.24 20.9439 1186.5 19.2919 1186.5 16.7999C1186.5 14.2799 1188.38 12.7119 1191.6 12.4599L1195.91 12.1239V11.7319C1195.91 9.43591 1194.54 8.62391 1192.69 8.62391C1190.48 8.62391 1189.22 9.60391 1189.22 11.2559H1186.92C1186.92 8.39991 1189.27 6.52391 1192.8 6.52391C1196.19 6.52391 1198.49 8.31591 1198.49 12.0119V20.6079H1196.25L1195.97 18.3959C1195.27 19.9639 1193.39 20.9439 1191.18 20.9439ZM1191.93 18.8999C1194.43 18.8999 1195.94 17.2759 1195.94 14.6999V13.9719L1192.44 14.2519C1190.11 14.4759 1189.16 15.3719 1189.16 16.7159C1189.16 18.1719 1190.23 18.8999 1191.93 18.8999ZM1202.13 26.7399V6.91591H1204.51L1204.71 9.37991C1205.63 7.50391 1207.48 6.52391 1209.66 6.52391C1213.58 6.52391 1216.02 9.46391 1216.02 13.6639C1216.02 17.8359 1213.72 20.9719 1209.66 20.9719C1207.48 20.9719 1205.66 20.0479 1204.76 18.3679V26.7399H1202.13ZM1204.79 13.7759C1204.79 16.5759 1206.41 18.5919 1209.1 18.5919C1211.79 18.5919 1213.39 16.5759 1213.39 13.7759C1213.39 10.9479 1211.79 8.93191 1209.1 8.93191C1206.41 8.93191 1204.79 10.9199 1204.79 13.7759ZM1218.92 26.7399V6.91591H1221.3L1221.5 9.37991C1222.42 7.50391 1224.27 6.52391 1226.45 6.52391C1230.37 6.52391 1232.81 9.46391 1232.81 13.6639C1232.81 17.8359 1230.51 20.9719 1226.45 20.9719C1224.27 20.9719 1222.45 20.0479 1221.55 18.3679V26.7399H1218.92ZM1221.58 13.7759C1221.58 16.5759 1223.2 18.5919 1225.89 18.5919C1228.58 18.5919 1230.18 16.5759 1230.18 13.7759C1230.18 10.9479 1228.58 8.93191 1225.89 8.93191C1223.2 8.93191 1221.58 10.9199 1221.58 13.7759ZM1234.59 16.6319H1237.11C1237.11 18.0319 1238.17 18.8719 1239.91 18.8719C1241.76 18.8719 1242.82 18.1159 1242.82 16.8559C1242.82 15.9319 1242.37 15.3719 1240.94 15.0079L1238.54 14.4479C1236.1 13.8599 1234.95 12.6559 1234.95 10.6399C1234.95 8.11991 1237.08 6.52391 1240.1 6.52391C1243.1 6.52391 1245.06 8.20391 1245.12 10.8079H1242.6C1242.54 9.43591 1241.62 8.56791 1240.02 8.56791C1238.37 8.56791 1237.44 9.29591 1237.44 10.5559C1237.44 11.4799 1238.12 12.0959 1239.46 12.4319L1241.87 13.0199C1244.19 13.5799 1245.34 14.6439 1245.34 16.6879C1245.34 19.2919 1243.1 20.9439 1239.85 20.9439C1236.63 20.9439 1234.59 19.2359 1234.59 16.6319ZM1252.04 19.5159C1252.04 21.5319 1250.53 23.2119 1248.54 23.4639V22.2879C1249.69 22.0919 1250.5 21.3359 1250.5 20.4679C1250.31 20.5799 1250.08 20.6359 1249.75 20.6359C1248.82 20.6359 1248.04 19.9639 1248.04 18.9279C1248.04 17.8079 1248.8 16.9959 1249.92 16.9959C1251.09 16.9959 1252.04 17.9759 1252.04 19.5159ZM1267.49 20.9439C1264.55 20.9439 1262.82 19.2919 1262.82 16.7999C1262.82 14.2799 1264.69 12.7119 1267.91 12.4599L1272.23 12.1239V11.7319C1272.23 9.43591 1270.85 8.62391 1269.01 8.62391C1266.79 8.62391 1265.53 9.60391 1265.53 11.2559H1263.24C1263.24 8.39991 1265.59 6.52391 1269.12 6.52391C1272.51 6.52391 1274.8 8.31591 1274.8 12.0119V20.6079H1272.56L1272.28 18.3959C1271.58 19.9639 1269.71 20.9439 1267.49 20.9439ZM1268.25 18.8999C1270.74 18.8999 1272.25 17.2759 1272.25 14.6999V13.9719L1268.75 14.2519C1266.43 14.4759 1265.48 15.3719 1265.48 16.7159C1265.48 18.1719 1266.54 18.8999 1268.25 18.8999ZM1281.08 20.6079H1278.45V6.91591H1280.83L1281.11 9.01591C1281.97 7.44791 1283.71 6.52391 1285.64 6.52391C1289.25 6.52391 1290.91 8.73591 1290.91 12.2359V20.6079H1288.27V12.8239C1288.27 10.0519 1286.99 8.93191 1284.97 8.93191C1282.51 8.93191 1281.08 10.6959 1281.08 13.3559V20.6079ZM1300.04 20.9439C1296.06 20.9439 1293.66 17.9759 1293.66 13.8039C1293.66 9.60391 1296.09 6.52391 1300.15 6.52391C1302.25 6.52391 1304.02 7.44791 1304.94 9.12791V-9.15527e-05H1307.54V20.6079H1305.19L1304.97 18.1159C1304.07 19.9919 1302.22 20.9439 1300.04 20.9439ZM1300.57 18.5639C1303.26 18.5639 1304.91 16.5759 1304.91 13.7199C1304.91 10.9199 1303.26 8.90391 1300.57 8.90391C1297.88 8.90391 1296.32 10.9199 1296.32 13.7199C1296.32 16.5479 1297.88 18.5639 1300.57 18.5639ZM1321.63 20.6079H1319V6.91591H1321.38L1321.66 9.01591C1322.53 7.44791 1324.26 6.52391 1326.19 6.52391C1329.81 6.52391 1331.46 8.73591 1331.46 12.2359V20.6079H1328.83V12.8239C1328.83 10.0519 1327.54 8.93191 1325.52 8.93191C1323.06 8.93191 1321.63 10.6959 1321.63 13.3559V20.6079ZM1339.11 20.9439C1336.17 20.9439 1334.43 19.2919 1334.43 16.7999C1334.43 14.2799 1336.31 12.7119 1339.53 12.4599L1343.84 12.1239V11.7319C1343.84 9.43591 1342.47 8.62391 1340.62 8.62391C1338.41 8.62391 1337.15 9.60391 1337.15 11.2559H1334.85C1334.85 8.39991 1337.2 6.52391 1340.73 6.52391C1344.12 6.52391 1346.42 8.31591 1346.42 12.0119V20.6079H1344.18L1343.9 18.3959C1343.2 19.9639 1341.32 20.9439 1339.11 20.9439ZM1339.86 18.8999C1342.36 18.8999 1343.87 17.2759 1343.87 14.6999V13.9719L1340.37 14.2519C1338.04 14.4759 1337.09 15.3719 1337.09 16.7159C1337.09 18.1719 1338.16 18.8999 1339.86 18.8999ZM1353.35 20.6079L1347.83 6.91591H1350.63L1353.63 14.5599C1354.11 15.8479 1354.5 16.9959 1354.72 17.8359C1354.95 16.9399 1355.39 15.7639 1355.87 14.5599L1358.92 6.91591H1361.67L1355.95 20.6079H1353.35ZM1365.05 3.66791C1364.1 3.66791 1363.31 2.88391 1363.31 1.93191C1363.31 0.95191 1364.1 0.195909 1365.05 0.195909C1366 0.195909 1366.78 0.95191 1366.78 1.93191C1366.78 2.88391 1366 3.66791 1365.05 3.66791ZM1363.76 20.6079V6.91591H1366.39V20.6079H1363.76ZM1369.34 13.4119C1369.34 9.54791 1371.84 6.52391 1375.81 6.52391C1378.02 6.52391 1379.73 7.53191 1380.6 9.23991L1380.8 6.91591H1383.15V20.0479C1383.15 24.3599 1380.49 27.1039 1376.29 27.1039C1372.56 27.1039 1370.02 25.0039 1369.51 21.5319H1372.14C1372.48 23.5479 1373.99 24.7239 1376.29 24.7239C1378.86 24.7239 1380.54 23.0439 1380.54 20.4399V17.6959C1379.65 19.2919 1377.86 20.2439 1375.7 20.2439C1371.81 20.2439 1369.34 17.2479 1369.34 13.4119ZM1371.98 13.3559C1371.98 15.9319 1373.57 17.9479 1376.15 17.9479C1378.81 17.9479 1380.43 16.0439 1380.43 13.3559C1380.43 10.7239 1378.86 8.81991 1376.18 8.81991C1373.54 8.81991 1371.98 10.8359 1371.98 13.3559ZM1390.95 20.9439C1388.01 20.9439 1386.27 19.2919 1386.27 16.7999C1386.27 14.2799 1388.15 12.7119 1391.37 12.4599L1395.68 12.1239V11.7319C1395.68 9.43591 1394.31 8.62391 1392.46 8.62391C1390.25 8.62391 1388.99 9.60391 1388.99 11.2559H1386.69C1386.69 8.39991 1389.05 6.52391 1392.57 6.52391C1395.96 6.52391 1398.26 8.31591 1398.26 12.0119V20.6079H1396.02L1395.74 18.3959C1395.04 19.9639 1393.16 20.9439 1390.95 20.9439ZM1391.71 18.8999C1394.2 18.8999 1395.71 17.2759 1395.71 14.6999V13.9719L1392.21 14.2519C1389.89 14.4759 1388.93 15.3719 1388.93 16.7159C1388.93 18.1719 1390 18.8999 1391.71 18.8999ZM1405.55 20.6079H1402.92V9.12791H1400.23V6.91591H1402.92V2.63191H1405.55V6.91591H1408.24V9.12791H1405.55V20.6079ZM1411.89 3.66791C1410.94 3.66791 1410.15 2.88391 1410.15 1.93191C1410.15 0.95191 1410.94 0.195909 1411.89 0.195909C1412.84 0.195909 1413.62 0.95191 1413.62 1.93191C1413.62 2.88391 1412.84 3.66791 1411.89 3.66791ZM1410.6 20.6079V6.91591H1413.23V20.6079H1410.6ZM1416.16 13.7479C1416.16 9.51991 1419.18 6.55191 1423.3 6.55191C1427.38 6.55191 1430.41 9.51991 1430.41 13.7479C1430.41 17.9759 1427.38 20.9439 1423.3 20.9439C1419.18 20.9439 1416.16 17.9759 1416.16 13.7479ZM1418.82 13.7479C1418.82 16.6039 1420.64 18.5919 1423.3 18.5919C1425.93 18.5919 1427.78 16.6039 1427.78 13.7479C1427.78 10.8919 1425.93 8.90391 1423.3 8.90391C1420.64 8.90391 1418.82 10.8919 1418.82 13.7479ZM1435.95 20.6079H1433.32V6.91591H1435.7L1435.98 9.01591C1436.85 7.44791 1438.59 6.52391 1440.52 6.52391C1444.13 6.52391 1445.78 8.73591 1445.78 12.2359V20.6079H1443.15V12.8239C1443.15 10.0519 1441.86 8.93191 1439.85 8.93191C1437.38 8.93191 1435.95 10.6959 1435.95 13.3559V20.6079ZM1458.37 3.66791C1457.42 3.66791 1456.64 2.88391 1456.64 1.93191C1456.64 0.95191 1457.42 0.195909 1458.37 0.195909C1459.32 0.195909 1460.11 0.95191 1460.11 1.93191C1460.11 2.88391 1459.32 3.66791 1458.37 3.66791ZM1457.08 20.6079V6.91591H1459.72V20.6079H1457.08ZM1466.17 20.6079H1463.54V6.91591H1465.92L1466.2 9.01591C1467.06 7.44791 1468.8 6.52391 1470.73 6.52391C1474.34 6.52391 1476 8.73591 1476 12.2359V20.6079H1473.36V12.8239C1473.36 10.0519 1472.08 8.93191 1470.06 8.93191C1467.6 8.93191 1466.17 10.6959 1466.17 13.3559V20.6079ZM1483.51 20.6079H1480.87V9.12791H1478.19V6.91591H1480.87V2.63191H1483.51V6.91591H1486.19V9.12791H1483.51V20.6079ZM1494.33 20.9439C1490.3 20.9439 1487.52 18.0319 1487.52 13.7759C1487.52 9.49191 1490.24 6.52391 1494.22 6.52391C1498.11 6.52391 1500.66 9.21191 1500.66 13.2719V14.2519L1490.07 14.2799C1490.27 17.1639 1491.78 18.7599 1494.38 18.7599C1496.43 18.7599 1497.77 17.9199 1498.22 16.3519H1500.68C1500.01 19.2919 1497.72 20.9439 1494.33 20.9439ZM1494.22 8.73591C1491.92 8.73591 1490.46 10.1079 1490.13 12.5159H1498.02C1498.02 10.2479 1496.54 8.73591 1494.22 8.73591ZM1511.44 6.80391V9.21191H1510.26C1507.77 9.21191 1506.23 10.7239 1506.23 13.3559V20.6079H1503.6V6.94391H1506.06L1506.23 9.01591C1506.79 7.58791 1508.16 6.63591 1510.04 6.63591C1510.51 6.63591 1510.9 6.69191 1511.44 6.80391ZM1512.99 6.91591H1515.01V4.73191C1515.01 1.37191 1516.86 -9.15527e-05 1519.35 -9.15527e-05C1519.85 -9.15527e-05 1520.44 0.0279098 1520.97 0.111909V2.37991H1519.8C1518.09 2.37991 1517.64 3.24791 1517.64 4.73191V6.91591H1520.89V9.12791H1517.64V20.6079H1515.01V9.12791H1512.99V6.91591ZM1526.9 20.9439C1523.96 20.9439 1522.23 19.2919 1522.23 16.7999C1522.23 14.2799 1524.1 12.7119 1527.32 12.4599L1531.64 12.1239V11.7319C1531.64 9.43591 1530.26 8.62391 1528.42 8.62391C1526.2 8.62391 1524.94 9.60391 1524.94 11.2559H1522.65C1522.65 8.39991 1525 6.52391 1528.53 6.52391C1531.92 6.52391 1534.21 8.31591 1534.21 12.0119V20.6079H1531.97L1531.69 18.3959C1530.99 19.9639 1529.12 20.9439 1526.9 20.9439ZM1527.66 18.8999C1530.15 18.8999 1531.66 17.2759 1531.66 14.6999V13.9719L1528.16 14.2519C1525.84 14.4759 1524.89 15.3719 1524.89 16.7159C1524.89 18.1719 1525.95 18.8999 1527.66 18.8999ZM1536.96 13.7759C1536.96 9.49191 1539.68 6.52391 1543.68 6.52391C1547.13 6.52391 1549.53 8.48391 1550.01 11.5359H1547.38C1546.93 9.79991 1545.53 8.87591 1543.77 8.87591C1541.27 8.87591 1539.57 10.7799 1539.57 13.7479C1539.57 16.6879 1541.16 18.5919 1543.65 18.5919C1545.53 18.5919 1546.93 17.6119 1547.41 15.9879H1550.04C1549.51 18.9559 1546.96 20.9439 1543.65 20.9439C1539.62 20.9439 1536.96 18.0879 1536.96 13.7759ZM1558.72 20.9439C1554.69 20.9439 1551.92 18.0319 1551.92 13.7759C1551.92 9.49191 1554.63 6.52391 1558.61 6.52391C1562.5 6.52391 1565.05 9.21191 1565.05 13.2719V14.2519L1554.47 14.2799C1554.66 17.1639 1556.17 18.7599 1558.78 18.7599C1560.82 18.7599 1562.17 17.9199 1562.61 16.3519H1565.08C1564.41 19.2919 1562.11 20.9439 1558.72 20.9439ZM1558.61 8.73591C1556.31 8.73591 1554.86 10.1079 1554.52 12.5159H1562.42C1562.42 10.2479 1560.93 8.73591 1558.61 8.73591ZM1566.87 16.6319H1569.39C1569.39 18.0319 1570.45 18.8719 1572.19 18.8719C1574.04 18.8719 1575.1 18.1159 1575.1 16.8559C1575.1 15.9319 1574.65 15.3719 1573.23 15.0079L1570.82 14.4479C1568.38 13.8599 1567.23 12.6559 1567.23 10.6399C1567.23 8.11991 1569.36 6.52391 1572.39 6.52391C1575.38 6.52391 1577.34 8.20391 1577.4 10.8079H1574.88C1574.82 9.43591 1573.9 8.56791 1572.3 8.56791C1570.65 8.56791 1569.73 9.29591 1569.73 10.5559C1569.73 11.4799 1570.4 12.0959 1571.74 12.4319L1574.15 13.0199C1576.47 13.5799 1577.62 14.6439 1577.62 16.6879C1577.62 19.2919 1575.38 20.9439 1572.13 20.9439C1568.91 20.9439 1566.87 19.2359 1566.87 16.6319ZM1582.34 20.9439C1581.24 20.9439 1580.32 20.0479 1580.32 18.9839C1580.32 17.8919 1581.24 16.9959 1582.34 16.9959C1583.4 16.9959 1584.32 17.8919 1584.32 18.9839C1584.32 20.0479 1583.4 20.9439 1582.34 20.9439Z" fill="black"/>
</svg>
