<svg width="2290" height="28" viewBox="0 0 2290 28" fill="none" xmlns="http://www.w3.org/2000/svg">
<path d="M2.74444 0.363909V20.6079H0.000437677V0.363909H2.74444ZM10.2093 0.363909V20.6079H7.46528V0.363909H10.2093ZM13.5861 13.7759C13.5861 9.49191 16.3021 6.52391 20.3061 6.52391C23.7501 6.52391 26.1581 8.48391 26.6341 11.5359H24.0021C23.5541 9.79991 22.1541 8.87591 20.3901 8.87591C17.8981 8.87591 16.1901 10.7799 16.1901 13.7479C16.1901 16.6879 17.7861 18.5919 20.2781 18.5919C22.1541 18.5919 23.5541 17.6119 24.0301 15.9879H26.6621C26.1301 18.9559 23.5821 20.9439 20.2781 20.9439C16.2461 20.9439 13.5861 18.0879 13.5861 13.7759ZM28.5432 13.7479C28.5432 9.51991 31.5672 6.55191 35.6832 6.55191C39.7712 6.55191 42.7952 9.51991 42.7952 13.7479C42.7952 17.9759 39.7712 20.9439 35.6832 20.9439C31.5672 20.9439 28.5432 17.9759 28.5432 13.7479ZM31.2032 13.7479C31.2032 16.6039 33.0232 18.5919 35.6832 18.5919C38.3152 18.5919 40.1632 16.6039 40.1632 13.7479C40.1632 10.8919 38.3152 8.90391 35.6832 8.90391C33.0232 8.90391 31.2032 10.8919 31.2032 13.7479ZM48.3407 20.6079H45.7087V6.91591H48.0887L48.3687 9.01591C49.2367 7.44791 50.9727 6.52391 52.9047 6.52391C56.5167 6.52391 58.1687 8.73591 58.1687 12.2359V20.6079H55.5367V12.8239C55.5367 10.0519 54.2487 8.93191 52.2327 8.93191C49.7687 8.93191 48.3407 10.6959 48.3407 13.3559V20.6079ZM60.5301 16.6319H63.0501C63.0501 18.0319 64.1141 18.8719 65.8501 18.8719C67.6981 18.8719 68.7621 18.1159 68.7621 16.8559C68.7621 15.9319 68.3141 15.3719 66.8861 15.0079L64.4781 14.4479C62.0421 13.8599 60.8941 12.6559 60.8941 10.6399C60.8941 8.11991 63.0221 6.52391 66.0461 6.52391C69.0421 6.52391 71.0021 8.20391 71.0581 10.8079H68.5381C68.4821 9.43591 67.5581 8.56791 65.9621 8.56791C64.3101 8.56791 63.3861 9.29591 63.3861 10.5559C63.3861 11.4799 64.0581 12.0959 65.4021 12.4319L67.8101 13.0199C70.1341 13.5799 71.2821 14.6439 71.2821 16.6879C71.2821 19.2919 69.0421 20.9439 65.7941 20.9439C62.5741 20.9439 60.5301 19.2359 60.5301 16.6319ZM80.4011 6.91591H82.4171V4.73191C82.4171 1.37191 84.2651 -9.15527e-05 86.7571 -9.15527e-05C87.2611 -9.15527e-05 87.8491 0.0279098 88.3811 0.111909V2.37991H87.2051C85.4971 2.37991 85.0491 3.24791 85.0491 4.73191V6.91591H88.2971V9.12791H85.0491V20.6079H82.4171V9.12791H80.4011V6.91591ZM89.4377 13.7479C89.4377 9.51991 92.4617 6.55191 96.5777 6.55191C100.666 6.55191 103.69 9.51991 103.69 13.7479C103.69 17.9759 100.666 20.9439 96.5777 20.9439C92.4617 20.9439 89.4377 17.9759 89.4377 13.7479ZM92.0977 13.7479C92.0977 16.6039 93.9177 18.5919 96.5777 18.5919C99.2097 18.5919 101.058 16.6039 101.058 13.7479C101.058 10.8919 99.2097 8.90391 96.5777 8.90391C93.9177 8.90391 92.0977 10.8919 92.0977 13.7479ZM114.443 6.80391V9.21191H113.267C110.775 9.21191 109.235 10.7239 109.235 13.3559V20.6079H106.603V6.94391H109.067L109.235 9.01591C109.795 7.58791 111.167 6.63591 113.043 6.63591C113.519 6.63591 113.911 6.69191 114.443 6.80391ZM128.404 20.6079L122.888 6.91591H125.688L128.684 14.5599C129.16 15.8479 129.552 16.9959 129.776 17.8359C130 16.9399 130.448 15.7639 130.924 14.5599L133.976 6.91591H136.72L131.008 20.6079H128.404ZM137.289 13.7479C137.289 9.51991 140.313 6.55191 144.429 6.55191C148.517 6.55191 151.541 9.51991 151.541 13.7479C151.541 17.9759 148.517 20.9439 144.429 20.9439C140.313 20.9439 137.289 17.9759 137.289 13.7479ZM139.949 13.7479C139.949 16.6039 141.769 18.5919 144.429 18.5919C147.061 18.5919 148.909 16.6039 148.909 13.7479C148.909 10.8919 147.061 8.90391 144.429 8.90391C141.769 8.90391 139.949 10.8919 139.949 13.7479ZM155.743 3.66791C154.791 3.66791 154.007 2.88391 154.007 1.93191C154.007 0.95191 154.791 0.195909 155.743 0.195909C156.695 0.195909 157.479 0.95191 157.479 1.93191C157.479 2.88391 156.695 3.66791 155.743 3.66791ZM154.455 20.6079V6.91591H157.087V20.6079H154.455ZM160.012 13.7759C160.012 9.49191 162.728 6.52391 166.732 6.52391C170.176 6.52391 172.584 8.48391 173.06 11.5359H170.428C169.98 9.79991 168.58 8.87591 166.816 8.87591C164.324 8.87591 162.616 10.7799 162.616 13.7479C162.616 16.6879 164.212 18.5919 166.704 18.5919C168.58 18.5919 169.98 17.6119 170.456 15.9879H173.088C172.556 18.9559 170.008 20.9439 166.704 20.9439C162.672 20.9439 160.012 18.0879 160.012 13.7759ZM181.773 20.9439C177.741 20.9439 174.969 18.0319 174.969 13.7759C174.969 9.49191 177.685 6.52391 181.661 6.52391C185.553 6.52391 188.101 9.21191 188.101 13.2719V14.2519L177.517 14.2799C177.713 17.1639 179.225 18.7599 181.829 18.7599C183.873 18.7599 185.217 17.9199 185.665 16.3519H188.129C187.457 19.2919 185.161 20.9439 181.773 20.9439ZM181.661 8.73591C179.365 8.73591 177.909 10.1079 177.573 12.5159H185.469C185.469 10.2479 183.985 8.73591 181.661 8.73591ZM197.801 13.7759C197.801 9.49191 200.517 6.52391 204.521 6.52391C207.965 6.52391 210.373 8.48391 210.849 11.5359H208.217C207.769 9.79991 206.369 8.87591 204.605 8.87591C202.113 8.87591 200.405 10.7799 200.405 13.7479C200.405 16.6879 202.001 18.5919 204.493 18.5919C206.369 18.5919 207.769 17.6119 208.245 15.9879H210.877C210.345 18.9559 207.797 20.9439 204.493 20.9439C200.461 20.9439 197.801 18.0879 197.801 13.7759ZM212.758 13.7479C212.758 9.51991 215.782 6.55191 219.898 6.55191C223.986 6.55191 227.01 9.51991 227.01 13.7479C227.01 17.9759 223.986 20.9439 219.898 20.9439C215.782 20.9439 212.758 17.9759 212.758 13.7479ZM215.418 13.7479C215.418 16.6039 217.238 18.5919 219.898 18.5919C222.53 18.5919 224.378 16.6039 224.378 13.7479C224.378 10.8919 222.53 8.90391 219.898 8.90391C217.238 8.90391 215.418 10.8919 215.418 13.7479ZM232.556 20.6079H229.924V6.91591H232.276L232.528 8.70791C233.228 7.41991 234.684 6.52391 236.616 6.52391C238.744 6.52391 240.256 7.58791 240.956 9.29591C241.6 7.58791 243.252 6.52391 245.38 6.52391C248.516 6.52391 250.42 8.48391 250.42 11.6479V20.6079H247.844V12.2919C247.844 10.1359 246.64 8.90391 244.792 8.90391C242.804 8.90391 241.488 10.3039 241.488 12.4879V20.6079H238.884V12.2639C238.884 10.1079 237.708 8.93191 235.86 8.93191C233.872 8.93191 232.556 10.3039 232.556 12.4879V20.6079ZM256.7 20.6079H254.068V6.91591H256.42L256.672 8.70791C257.372 7.41991 258.828 6.52391 260.76 6.52391C262.888 6.52391 264.4 7.58791 265.1 9.29591C265.744 7.58791 267.396 6.52391 269.524 6.52391C272.66 6.52391 274.564 8.48391 274.564 11.6479V20.6079H271.988V12.2919C271.988 10.1359 270.784 8.90391 268.936 8.90391C266.948 8.90391 265.632 10.3039 265.632 12.4879V20.6079H263.028V12.2639C263.028 10.1079 261.852 8.93191 260.004 8.93191C258.016 8.93191 256.7 10.3039 256.7 12.4879V20.6079ZM287.677 6.91591H290.281V20.6079H287.929L287.649 18.5359C286.865 19.9639 285.045 20.9439 283.029 20.9439C279.837 20.9439 278.045 18.7879 278.045 15.4279V6.91591H280.677V14.5599C280.677 17.4999 281.937 18.6199 283.953 18.6199C286.361 18.6199 287.677 17.0799 287.677 14.1399V6.91591ZM296.731 20.6079H294.099V6.91591H296.479L296.759 9.01591C297.627 7.44791 299.363 6.52391 301.295 6.52391C304.907 6.52391 306.559 8.73591 306.559 12.2359V20.6079H303.927V12.8239C303.927 10.0519 302.639 8.93191 300.623 8.93191C298.159 8.93191 296.731 10.6959 296.731 13.3559V20.6079ZM311.493 3.66791C310.541 3.66791 309.757 2.88391 309.757 1.93191C309.757 0.95191 310.541 0.195909 311.493 0.195909C312.445 0.195909 313.229 0.95191 313.229 1.93191C313.229 2.88391 312.445 3.66791 311.493 3.66791ZM310.205 20.6079V6.91591H312.837V20.6079H310.205ZM315.762 13.7759C315.762 9.49191 318.478 6.52391 322.482 6.52391C325.926 6.52391 328.334 8.48391 328.81 11.5359H326.178C325.73 9.79991 324.33 8.87591 322.566 8.87591C320.074 8.87591 318.366 10.7799 318.366 13.7479C318.366 16.6879 319.962 18.5919 322.454 18.5919C324.33 18.5919 325.73 17.6119 326.206 15.9879H328.838C328.306 18.9559 325.758 20.9439 322.454 20.9439C318.422 20.9439 315.762 18.0879 315.762 13.7759ZM335.619 20.9439C332.679 20.9439 330.943 19.2919 330.943 16.7999C330.943 14.2799 332.819 12.7119 336.039 12.4599L340.351 12.1239V11.7319C340.351 9.43591 338.979 8.62391 337.131 8.62391C334.919 8.62391 333.659 9.60391 333.659 11.2559H331.363C331.363 8.39991 333.715 6.52391 337.243 6.52391C340.631 6.52391 342.927 8.31591 342.927 12.0119V20.6079H340.687L340.407 18.3959C339.707 19.9639 337.831 20.9439 335.619 20.9439ZM336.375 18.8999C338.867 18.8999 340.379 17.2759 340.379 14.6999V13.9719L336.879 14.2519C334.555 14.4759 333.603 15.3719 333.603 16.7159C333.603 18.1719 334.667 18.8999 336.375 18.8999ZM350.217 20.6079H347.585V9.12791H344.897V6.91591H347.585V2.63191H350.217V6.91591H352.905V9.12791H350.217V20.6079ZM356.555 3.66791C355.603 3.66791 354.819 2.88391 354.819 1.93191C354.819 0.95191 355.603 0.195909 356.555 0.195909C357.507 0.195909 358.291 0.95191 358.291 1.93191C358.291 2.88391 357.507 3.66791 356.555 3.66791ZM355.267 20.6079V6.91591H357.899V20.6079H355.267ZM360.824 13.7479C360.824 9.51991 363.848 6.55191 367.964 6.55191C372.052 6.55191 375.076 9.51991 375.076 13.7479C375.076 17.9759 372.052 20.9439 367.964 20.9439C363.848 20.9439 360.824 17.9759 360.824 13.7479ZM363.484 13.7479C363.484 16.6039 365.304 18.5919 367.964 18.5919C370.596 18.5919 372.444 16.6039 372.444 13.7479C372.444 10.8919 370.596 8.90391 367.964 8.90391C365.304 8.90391 363.484 10.8919 363.484 13.7479ZM380.622 20.6079H377.99V6.91591H380.37L380.65 9.01591C381.518 7.44791 383.254 6.52391 385.186 6.52391C388.798 6.52391 390.45 8.73591 390.45 12.2359V20.6079H387.818V12.8239C387.818 10.0519 386.53 8.93191 384.514 8.93191C382.05 8.93191 380.622 10.6959 380.622 13.3559V20.6079ZM398.043 19.5159C398.043 21.5319 396.531 23.2119 394.543 23.4639V22.2879C395.691 22.0919 396.503 21.3359 396.503 20.4679C396.307 20.5799 396.083 20.6359 395.747 20.6359C394.823 20.6359 394.039 19.9639 394.039 18.9279C394.039 17.8079 394.795 16.9959 395.915 16.9959C397.091 16.9959 398.043 17.9759 398.043 19.5159ZM408.594 13.7759C408.594 9.49191 411.31 6.52391 415.314 6.52391C418.758 6.52391 421.166 8.48391 421.642 11.5359H419.01C418.562 9.79991 417.162 8.87591 415.398 8.87591C412.906 8.87591 411.198 10.7799 411.198 13.7479C411.198 16.6879 412.794 18.5919 415.286 18.5919C417.162 18.5919 418.562 17.6119 419.038 15.9879H421.67C421.138 18.9559 418.59 20.9439 415.286 20.9439C411.254 20.9439 408.594 18.0879 408.594 13.7759ZM428.451 20.9439C425.511 20.9439 423.775 19.2919 423.775 16.7999C423.775 14.2799 425.651 12.7119 428.871 12.4599L433.183 12.1239V11.7319C433.183 9.43591 431.811 8.62391 429.963 8.62391C427.751 8.62391 426.491 9.60391 426.491 11.2559H424.195C424.195 8.39991 426.547 6.52391 430.075 6.52391C433.463 6.52391 435.759 8.31591 435.759 12.0119V20.6079H433.519L433.239 18.3959C432.539 19.9639 430.663 20.9439 428.451 20.9439ZM429.207 18.8999C431.699 18.8999 433.211 17.2759 433.211 14.6999V13.9719L429.711 14.2519C427.387 14.4759 426.435 15.3719 426.435 16.7159C426.435 18.1719 427.499 18.8999 429.207 18.8999ZM442.092 20.6079H439.46V-9.15527e-05H442.092V20.6079ZM448.655 20.6079H446.023V-9.15527e-05H448.655V20.6079ZM464.189 20.9439C461.249 20.9439 459.513 19.2919 459.513 16.7999C459.513 14.2799 461.389 12.7119 464.609 12.4599L468.921 12.1239V11.7319C468.921 9.43591 467.549 8.62391 465.701 8.62391C463.489 8.62391 462.229 9.60391 462.229 11.2559H459.933C459.933 8.39991 462.285 6.52391 465.813 6.52391C469.201 6.52391 471.497 8.31591 471.497 12.0119V20.6079H469.257L468.977 18.3959C468.277 19.9639 466.401 20.9439 464.189 20.9439ZM464.945 18.8999C467.437 18.8999 468.949 17.2759 468.949 14.6999V13.9719L465.449 14.2519C463.125 14.4759 462.173 15.3719 462.173 16.7159C462.173 18.1719 463.237 18.8999 464.945 18.8999ZM474.246 13.7759C474.246 9.49191 476.962 6.52391 480.966 6.52391C484.41 6.52391 486.818 8.48391 487.294 11.5359H484.662C484.214 9.79991 482.814 8.87591 481.05 8.87591C478.558 8.87591 476.85 10.7799 476.85 13.7479C476.85 16.6879 478.446 18.5919 480.938 18.5919C482.814 18.5919 484.214 17.6119 484.69 15.9879H487.322C486.79 18.9559 484.242 20.9439 480.938 20.9439C476.906 20.9439 474.246 18.0879 474.246 13.7759ZM493.963 20.6079H491.331V9.12791H488.643V6.91591H491.331V2.63191H493.963V6.91591H496.651V9.12791H493.963V20.6079ZM500.301 3.66791C499.349 3.66791 498.565 2.88391 498.565 1.93191C498.565 0.95191 499.349 0.195909 500.301 0.195909C501.253 0.195909 502.037 0.95191 502.037 1.93191C502.037 2.88391 501.253 3.66791 500.301 3.66791ZM499.013 20.6079V6.91591H501.645V20.6079H499.013ZM504.571 13.7479C504.571 9.51991 507.595 6.55191 511.711 6.55191C515.799 6.55191 518.823 9.51991 518.823 13.7479C518.823 17.9759 515.799 20.9439 511.711 20.9439C507.595 20.9439 504.571 17.9759 504.571 13.7479ZM507.231 13.7479C507.231 16.6039 509.051 18.5919 511.711 18.5919C514.343 18.5919 516.191 16.6039 516.191 13.7479C516.191 10.8919 514.343 8.90391 511.711 8.90391C509.051 8.90391 507.231 10.8919 507.231 13.7479ZM524.368 20.6079H521.736V6.91591H524.116L524.396 9.01591C525.264 7.44791 527 6.52391 528.932 6.52391C532.544 6.52391 534.196 8.73591 534.196 12.2359V20.6079H531.564V12.8239C531.564 10.0519 530.276 8.93191 528.26 8.93191C525.796 8.93191 524.368 10.6959 524.368 13.3559V20.6079ZM536.557 16.6319H539.077C539.077 18.0319 540.141 18.8719 541.877 18.8719C543.725 18.8719 544.789 18.1159 544.789 16.8559C544.789 15.9319 544.341 15.3719 542.913 15.0079L540.505 14.4479C538.069 13.8599 536.921 12.6559 536.921 10.6399C536.921 8.11991 539.049 6.52391 542.073 6.52391C545.069 6.52391 547.029 8.20391 547.085 10.8079H544.565C544.509 9.43591 543.585 8.56791 541.989 8.56791C540.337 8.56791 539.413 9.29591 539.413 10.5559C539.413 11.4799 540.085 12.0959 541.429 12.4319L543.837 13.0199C546.161 13.5799 547.309 14.6439 547.309 16.6879C547.309 19.2919 545.069 20.9439 541.821 20.9439C538.601 20.9439 536.557 19.2359 536.557 16.6319ZM554.012 19.5159C554.012 21.5319 552.5 23.2119 550.512 23.4639V22.2879C551.66 22.0919 552.472 21.3359 552.472 20.4679C552.276 20.5799 552.052 20.6359 551.716 20.6359C550.792 20.6359 550.008 19.9639 550.008 18.9279C550.008 17.8079 550.764 16.9959 551.884 16.9959C553.06 16.9959 554.012 17.9759 554.012 19.5159ZM570.947 20.9439C566.971 20.9439 564.563 17.9759 564.563 13.8039C564.563 9.60391 566.999 6.52391 571.059 6.52391C573.159 6.52391 574.923 7.44791 575.847 9.12791V-9.15527e-05H578.451V20.6079H576.099L575.875 18.1159C574.979 19.9919 573.131 20.9439 570.947 20.9439ZM571.479 18.5639C574.167 18.5639 575.819 16.5759 575.819 13.7199C575.819 10.9199 574.167 8.90391 571.479 8.90391C568.791 8.90391 567.223 10.9199 567.223 13.7199C567.223 16.5479 568.791 18.5639 571.479 18.5639ZM583.536 3.66791C582.584 3.66791 581.8 2.88391 581.8 1.93191C581.8 0.95191 582.584 0.195909 583.536 0.195909C584.488 0.195909 585.272 0.95191 585.272 1.93191C585.272 2.88391 584.488 3.66791 583.536 3.66791ZM582.248 20.6079V6.91591H584.88V20.6079H582.248ZM592.705 20.9439C589.765 20.9439 588.029 19.2919 588.029 16.7999C588.029 14.2799 589.905 12.7119 593.125 12.4599L597.437 12.1239V11.7319C597.437 9.43591 596.065 8.62391 594.217 8.62391C592.005 8.62391 590.745 9.60391 590.745 11.2559H588.449C588.449 8.39991 590.801 6.52391 594.329 6.52391C597.717 6.52391 600.013 8.31591 600.013 12.0119V20.6079H597.773L597.493 18.3959C596.793 19.9639 594.917 20.9439 592.705 20.9439ZM593.461 18.8999C595.953 18.8999 597.465 17.2759 597.465 14.6999V13.9719L593.965 14.2519C591.641 14.4759 590.689 15.3719 590.689 16.7159C590.689 18.1719 591.753 18.8999 593.461 18.8999ZM606.346 20.6079H603.714V-9.15527e-05H606.346V20.6079ZM616.421 6.91591H618.437V4.73191C618.437 1.37191 620.285 -9.15527e-05 622.777 -9.15527e-05C623.281 -9.15527e-05 623.869 0.0279098 624.401 0.111909V2.37991H623.225C621.517 2.37991 621.069 3.24791 621.069 4.73191V6.91591H624.317V9.12791H621.069V20.6079H618.437V9.12791H616.421V6.91591ZM636.227 6.91591H638.831V20.6079H636.479L636.199 18.5359C635.415 19.9639 633.595 20.9439 631.579 20.9439C628.387 20.9439 626.595 18.7879 626.595 15.4279V6.91591H629.227V14.5599C629.227 17.4999 630.487 18.6199 632.503 18.6199C634.911 18.6199 636.227 17.0799 636.227 14.1399V6.91591ZM645.282 20.6079H642.65V6.91591H645.03L645.31 9.01591C646.178 7.44791 647.914 6.52391 649.846 6.52391C653.458 6.52391 655.11 8.73591 655.11 12.2359V20.6079H652.478V12.8239C652.478 10.0519 651.19 8.93191 649.174 8.93191C646.71 8.93191 645.282 10.6959 645.282 13.3559V20.6079ZM657.86 13.7759C657.86 9.49191 660.576 6.52391 664.58 6.52391C668.024 6.52391 670.432 8.48391 670.908 11.5359H668.276C667.828 9.79991 666.428 8.87591 664.664 8.87591C662.172 8.87591 660.464 10.7799 660.464 13.7479C660.464 16.6879 662.06 18.5919 664.552 18.5919C666.428 18.5919 667.828 17.6119 668.304 15.9879H670.936C670.404 18.9559 667.856 20.9439 664.552 20.9439C660.52 20.9439 657.86 18.0879 657.86 13.7759ZM677.577 20.6079H674.945V9.12791H672.257V6.91591H674.945V2.63191H677.577V6.91591H680.265V9.12791H677.577V20.6079ZM683.915 3.66791C682.963 3.66791 682.179 2.88391 682.179 1.93191C682.179 0.95191 682.963 0.195909 683.915 0.195909C684.867 0.195909 685.651 0.95191 685.651 1.93191C685.651 2.88391 684.867 3.66791 683.915 3.66791ZM682.627 20.6079V6.91591H685.259V20.6079H682.627ZM688.184 13.7479C688.184 9.51991 691.208 6.55191 695.324 6.55191C699.412 6.55191 702.436 9.51991 702.436 13.7479C702.436 17.9759 699.412 20.9439 695.324 20.9439C691.208 20.9439 688.184 17.9759 688.184 13.7479ZM690.844 13.7479C690.844 16.6039 692.664 18.5919 695.324 18.5919C697.956 18.5919 699.804 16.6039 699.804 13.7479C699.804 10.8919 697.956 8.90391 695.324 8.90391C692.664 8.90391 690.844 10.8919 690.844 13.7479ZM707.981 20.6079H705.349V6.91591H707.729L708.009 9.01591C708.877 7.44791 710.613 6.52391 712.545 6.52391C716.157 6.52391 717.809 8.73591 717.809 12.2359V20.6079H715.177V12.8239C715.177 10.0519 713.889 8.93191 711.873 8.93191C709.409 8.93191 707.981 10.6959 707.981 13.3559V20.6079ZM720.171 16.6319H722.691C722.691 18.0319 723.755 18.8719 725.491 18.8719C727.339 18.8719 728.403 18.1159 728.403 16.8559C728.403 15.9319 727.955 15.3719 726.527 15.0079L724.119 14.4479C721.683 13.8599 720.535 12.6559 720.535 10.6399C720.535 8.11991 722.663 6.52391 725.687 6.52391C728.683 6.52391 730.643 8.20391 730.699 10.8079H728.179C728.123 9.43591 727.199 8.56791 725.603 8.56791C723.951 8.56791 723.027 9.29591 723.027 10.5559C723.027 11.4799 723.699 12.0959 725.043 12.4319L727.451 13.0199C729.775 13.5799 730.923 14.6439 730.923 16.6879C730.923 19.2919 728.683 20.9439 725.435 20.9439C722.215 20.9439 720.171 19.2359 720.171 16.6319ZM737.625 19.5159C737.625 21.5319 736.113 23.2119 734.125 23.4639V22.2879C735.273 22.0919 736.085 21.3359 736.085 20.4679C735.889 20.5799 735.665 20.6359 735.329 20.6359C734.405 20.6359 733.621 19.9639 733.621 18.9279C733.621 17.8079 734.377 16.9959 735.497 16.9959C736.673 16.9959 737.625 17.9759 737.625 19.5159ZM756.912 6.80391V9.21191H755.736C753.244 9.21191 751.704 10.7239 751.704 13.3559V20.6079H749.072V6.94391H751.536L751.704 9.01591C752.264 7.58791 753.636 6.63591 755.512 6.63591C755.988 6.63591 756.38 6.69191 756.912 6.80391ZM760.669 3.66791C759.717 3.66791 758.933 2.88391 758.933 1.93191C758.933 0.95191 759.717 0.195909 760.669 0.195909C761.621 0.195909 762.405 0.95191 762.405 1.93191C762.405 2.88391 761.621 3.66791 760.669 3.66791ZM759.381 20.6079V6.91591H762.013V20.6079H759.381ZM768.466 20.6079H765.834V6.91591H768.214L768.494 9.01591C769.362 7.44791 771.098 6.52391 773.03 6.52391C776.642 6.52391 778.294 8.73591 778.294 12.2359V20.6079H775.662V12.8239C775.662 10.0519 774.374 8.93191 772.358 8.93191C769.894 8.93191 768.466 10.6959 768.466 13.3559V20.6079ZM781.071 13.4119C781.071 9.54791 783.563 6.52391 787.539 6.52391C789.751 6.52391 791.459 7.53191 792.327 9.23991L792.523 6.91591H794.875V20.0479C794.875 24.3599 792.215 27.1039 788.015 27.1039C784.291 27.1039 781.743 25.0039 781.239 21.5319H783.871C784.207 23.5479 785.719 24.7239 788.015 24.7239C790.591 24.7239 792.271 23.0439 792.271 20.4399V17.6959C791.375 19.2919 789.583 20.2439 787.427 20.2439C783.535 20.2439 781.071 17.2479 781.071 13.4119ZM783.703 13.3559C783.703 15.9319 785.299 17.9479 787.875 17.9479C790.535 17.9479 792.159 16.0439 792.159 13.3559C792.159 10.7239 790.591 8.81991 787.903 8.81991C785.271 8.81991 783.703 10.8359 783.703 13.3559ZM799.962 3.66791C799.01 3.66791 798.226 2.88391 798.226 1.93191C798.226 0.95191 799.01 0.195909 799.962 0.195909C800.914 0.195909 801.698 0.95191 801.698 1.93191C801.698 2.88391 800.914 3.66791 799.962 3.66791ZM798.674 20.6079V6.91591H801.306V20.6079H798.674ZM807.759 20.6079H805.127V6.91591H807.507L807.787 9.01591C808.655 7.44791 810.391 6.52391 812.323 6.52391C815.935 6.52391 817.587 8.73591 817.587 12.2359V20.6079H814.955V12.8239C814.955 10.0519 813.667 8.93191 811.651 8.93191C809.187 8.93191 807.759 10.6959 807.759 13.3559V20.6079ZM820.364 13.4119C820.364 9.54791 822.856 6.52391 826.832 6.52391C829.044 6.52391 830.752 7.53191 831.62 9.23991L831.816 6.91591H834.168V20.0479C834.168 24.3599 831.508 27.1039 827.308 27.1039C823.584 27.1039 821.036 25.0039 820.532 21.5319H823.164C823.5 23.5479 825.012 24.7239 827.308 24.7239C829.884 24.7239 831.564 23.0439 831.564 20.4399V17.6959C830.668 19.2919 828.876 20.2439 826.72 20.2439C822.828 20.2439 820.364 17.2479 820.364 13.4119ZM822.996 13.3559C822.996 15.9319 824.592 17.9479 827.168 17.9479C829.828 17.9479 831.452 16.0439 831.452 13.3559C831.452 10.7239 829.884 8.81991 827.196 8.81991C824.564 8.81991 822.996 10.8359 822.996 13.3559ZM844.503 16.6319H847.023C847.023 18.0319 848.087 18.8719 849.823 18.8719C851.671 18.8719 852.735 18.1159 852.735 16.8559C852.735 15.9319 852.287 15.3719 850.859 15.0079L848.451 14.4479C846.015 13.8599 844.867 12.6559 844.867 10.6399C844.867 8.11991 846.995 6.52391 850.019 6.52391C853.015 6.52391 854.975 8.20391 855.031 10.8079H852.511C852.455 9.43591 851.531 8.56791 849.935 8.56791C848.283 8.56791 847.359 9.29591 847.359 10.5559C847.359 11.4799 848.031 12.0959 849.375 12.4319L851.783 13.0199C854.107 13.5799 855.255 14.6439 855.255 16.6879C855.255 19.2919 853.015 20.9439 849.767 20.9439C846.547 20.9439 844.503 19.2359 844.503 16.6319ZM862.038 20.6079H859.406V9.12791H856.718V6.91591H859.406V2.63191H862.038V6.91591H864.726V9.12791H862.038V20.6079ZM870.928 20.9439C867.988 20.9439 866.252 19.2919 866.252 16.7999C866.252 14.2799 868.128 12.7119 871.348 12.4599L875.66 12.1239V11.7319C875.66 9.43591 874.288 8.62391 872.44 8.62391C870.228 8.62391 868.968 9.60391 868.968 11.2559H866.672C866.672 8.39991 869.024 6.52391 872.552 6.52391C875.94 6.52391 878.236 8.31591 878.236 12.0119V20.6079H875.996L875.716 18.3959C875.016 19.9639 873.14 20.9439 870.928 20.9439ZM871.684 18.8999C874.176 18.8999 875.688 17.2759 875.688 14.6999V13.9719L872.188 14.2519C869.864 14.4759 868.912 15.3719 868.912 16.7159C868.912 18.1719 869.976 18.8999 871.684 18.8999ZM885.526 20.6079H882.894V9.12791H880.206V6.91591H882.894V2.63191H885.526V6.91591H888.214V9.12791H885.526V20.6079ZM896.347 20.9439C892.315 20.9439 889.543 18.0319 889.543 13.7759C889.543 9.49191 892.259 6.52391 896.235 6.52391C900.127 6.52391 902.675 9.21191 902.675 13.2719V14.2519L892.091 14.2799C892.287 17.1639 893.799 18.7599 896.403 18.7599C898.447 18.7599 899.791 17.9199 900.239 16.3519H902.703C902.031 19.2919 899.735 20.9439 896.347 20.9439ZM896.235 8.73591C893.939 8.73591 892.483 10.1079 892.147 12.5159H900.043C900.043 10.2479 898.559 8.73591 896.235 8.73591ZM904.495 16.6319H907.015C907.015 18.0319 908.079 18.8719 909.815 18.8719C911.663 18.8719 912.727 18.1159 912.727 16.8559C912.727 15.9319 912.279 15.3719 910.851 15.0079L908.443 14.4479C906.007 13.8599 904.859 12.6559 904.859 10.6399C904.859 8.11991 906.987 6.52391 910.011 6.52391C913.007 6.52391 914.967 8.20391 915.023 10.8079H912.503C912.447 9.43591 911.523 8.56791 909.927 8.56791C908.275 8.56791 907.351 9.29591 907.351 10.5559C907.351 11.4799 908.023 12.0959 909.367 12.4319L911.775 13.0199C914.099 13.5799 915.247 14.6439 915.247 16.6879C915.247 19.2919 913.007 20.9439 909.759 20.9439C906.539 20.9439 904.495 19.2359 904.495 16.6319ZM921.95 19.5159C921.95 21.5319 920.438 23.2119 918.45 23.4639V22.2879C919.598 22.0919 920.41 21.3359 920.41 20.4679C920.214 20.5799 919.99 20.6359 919.654 20.6359C918.73 20.6359 917.946 19.9639 917.946 18.9279C917.946 17.8079 918.702 16.9959 919.822 16.9959C920.998 16.9959 921.95 17.9759 921.95 19.5159ZM937.4 20.9439C934.46 20.9439 932.724 19.2919 932.724 16.7999C932.724 14.2799 934.6 12.7119 937.82 12.4599L942.132 12.1239V11.7319C942.132 9.43591 940.76 8.62391 938.912 8.62391C936.7 8.62391 935.44 9.60391 935.44 11.2559H933.144C933.144 8.39991 935.496 6.52391 939.024 6.52391C942.412 6.52391 944.708 8.31591 944.708 12.0119V20.6079H942.468L942.188 18.3959C941.488 19.9639 939.612 20.9439 937.4 20.9439ZM938.156 18.8999C940.648 18.8999 942.16 17.2759 942.16 14.6999V13.9719L938.66 14.2519C936.336 14.4759 935.384 15.3719 935.384 16.7159C935.384 18.1719 936.448 18.8999 938.156 18.8999ZM950.985 20.6079H948.353V6.91591H950.733L951.013 9.01591C951.881 7.44791 953.617 6.52391 955.549 6.52391C959.161 6.52391 960.813 8.73591 960.813 12.2359V20.6079H958.181V12.8239C958.181 10.0519 956.893 8.93191 954.877 8.93191C952.413 8.93191 950.985 10.6959 950.985 13.3559V20.6079ZM969.947 20.9439C965.971 20.9439 963.563 17.9759 963.563 13.8039C963.563 9.60391 965.999 6.52391 970.059 6.52391C972.159 6.52391 973.923 7.44791 974.847 9.12791V-9.15527e-05H977.451V20.6079H975.099L974.875 18.1159C973.979 19.9919 972.131 20.9439 969.947 20.9439ZM970.479 18.5639C973.167 18.5639 974.819 16.5759 974.819 13.7199C974.819 10.9199 973.167 8.90391 970.479 8.90391C967.791 8.90391 966.223 10.9199 966.223 13.7199C966.223 16.5479 967.791 18.5639 970.479 18.5639ZM990.192 3.66791C989.24 3.66791 988.456 2.88391 988.456 1.93191C988.456 0.95191 989.24 0.195909 990.192 0.195909C991.144 0.195909 991.928 0.95191 991.928 1.93191C991.928 2.88391 991.144 3.66791 990.192 3.66791ZM988.904 20.6079V6.91591H991.536V20.6079H988.904ZM997.989 20.6079H995.357V6.91591H997.737L998.017 9.01591C998.885 7.44791 1000.62 6.52391 1002.55 6.52391C1006.17 6.52391 1007.82 8.73591 1007.82 12.2359V20.6079H1005.19V12.8239C1005.19 10.0519 1003.9 8.93191 1001.88 8.93191C999.417 8.93191 997.989 10.6959 997.989 13.3559V20.6079ZM1015.33 20.6079H1012.69V9.12791H1010.01V6.91591H1012.69V2.63191H1015.33V6.91591H1018.01V9.12791H1015.33V20.6079ZM1026.15 20.9439C1022.12 20.9439 1019.34 18.0319 1019.34 13.7759C1019.34 9.49191 1022.06 6.52391 1026.04 6.52391C1029.93 6.52391 1032.48 9.21191 1032.48 13.2719V14.2519L1021.89 14.2799C1022.09 17.1639 1023.6 18.7599 1026.2 18.7599C1028.25 18.7599 1029.59 17.9199 1030.04 16.3519H1032.5C1031.83 19.2919 1029.54 20.9439 1026.15 20.9439ZM1026.04 8.73591C1023.74 8.73591 1022.28 10.1079 1021.95 12.5159H1029.84C1029.84 10.2479 1028.36 8.73591 1026.04 8.73591ZM1043.26 6.80391V9.21191H1042.08C1039.59 9.21191 1038.05 10.7239 1038.05 13.3559V20.6079H1035.42V6.94391H1037.88L1038.05 9.01591C1038.61 7.58791 1039.98 6.63591 1041.86 6.63591C1042.33 6.63591 1042.72 6.69191 1043.26 6.80391ZM1049.18 20.9439C1046.24 20.9439 1044.51 19.2919 1044.51 16.7999C1044.51 14.2799 1046.38 12.7119 1049.6 12.4599L1053.91 12.1239V11.7319C1053.91 9.43591 1052.54 8.62391 1050.69 8.62391C1048.48 8.62391 1047.22 9.60391 1047.22 11.2559H1044.93C1044.93 8.39991 1047.28 6.52391 1050.81 6.52391C1054.19 6.52391 1056.49 8.31591 1056.49 12.0119V20.6079H1054.25L1053.97 18.3959C1053.27 19.9639 1051.39 20.9439 1049.18 20.9439ZM1049.94 18.8999C1052.43 18.8999 1053.94 17.2759 1053.94 14.6999V13.9719L1050.44 14.2519C1048.12 14.4759 1047.17 15.3719 1047.17 16.7159C1047.17 18.1719 1048.23 18.8999 1049.94 18.8999ZM1059.24 13.7759C1059.24 9.49191 1061.95 6.52391 1065.96 6.52391C1069.4 6.52391 1071.81 8.48391 1072.29 11.5359H1069.65C1069.21 9.79991 1067.81 8.87591 1066.04 8.87591C1063.55 8.87591 1061.84 10.7799 1061.84 13.7479C1061.84 16.6879 1063.44 18.5919 1065.93 18.5919C1067.81 18.5919 1069.21 17.6119 1069.68 15.9879H1072.31C1071.78 18.9559 1069.23 20.9439 1065.93 20.9439C1061.9 20.9439 1059.24 18.0879 1059.24 13.7759ZM1078.96 20.6079H1076.32V9.12791H1073.64V6.91591H1076.32V2.63191H1078.96V6.91591H1081.64V9.12791H1078.96V20.6079ZM1085.29 3.66791C1084.34 3.66791 1083.56 2.88391 1083.56 1.93191C1083.56 0.95191 1084.34 0.195909 1085.29 0.195909C1086.25 0.195909 1087.03 0.95191 1087.03 1.93191C1087.03 2.88391 1086.25 3.66791 1085.29 3.66791ZM1084.01 20.6079V6.91591H1086.64V20.6079H1084.01ZM1089.56 13.7479C1089.56 9.51991 1092.59 6.55191 1096.7 6.55191C1100.79 6.55191 1103.81 9.51991 1103.81 13.7479C1103.81 17.9759 1100.79 20.9439 1096.7 20.9439C1092.59 20.9439 1089.56 17.9759 1089.56 13.7479ZM1092.22 13.7479C1092.22 16.6039 1094.04 18.5919 1096.7 18.5919C1099.33 18.5919 1101.18 16.6039 1101.18 13.7479C1101.18 10.8919 1099.33 8.90391 1096.7 8.90391C1094.04 8.90391 1092.22 10.8919 1092.22 13.7479ZM1109.36 20.6079H1106.73V6.91591H1109.11L1109.39 9.01591C1110.26 7.44791 1111.99 6.52391 1113.92 6.52391C1117.54 6.52391 1119.19 8.73591 1119.19 12.2359V20.6079H1116.56V12.8239C1116.56 10.0519 1115.27 8.93191 1113.25 8.93191C1110.79 8.93191 1109.36 10.6959 1109.36 13.3559V20.6079ZM1131.78 3.66791C1130.83 3.66791 1130.04 2.88391 1130.04 1.93191C1130.04 0.95191 1130.83 0.195909 1131.78 0.195909C1132.73 0.195909 1133.51 0.95191 1133.51 1.93191C1133.51 2.88391 1132.73 3.66791 1131.78 3.66791ZM1130.49 20.6079V6.91591H1133.12V20.6079H1130.49ZM1139.58 20.6079H1136.94V6.91591H1139.32L1139.6 9.01591C1140.47 7.44791 1142.21 6.52391 1144.14 6.52391C1147.75 6.52391 1149.4 8.73591 1149.4 12.2359V20.6079H1146.77V12.8239C1146.77 10.0519 1145.48 8.93191 1143.47 8.93191C1141 8.93191 1139.58 10.6959 1139.58 13.3559V20.6079ZM1158.54 20.9439C1154.56 20.9439 1152.15 17.9759 1152.15 13.8039C1152.15 9.60391 1154.59 6.52391 1158.65 6.52391C1160.75 6.52391 1162.51 7.44791 1163.44 9.12791V-9.15527e-05H1166.04V20.6079H1163.69L1163.46 18.1159C1162.57 19.9919 1160.72 20.9439 1158.54 20.9439ZM1159.07 18.5639C1161.76 18.5639 1163.41 16.5759 1163.41 13.7199C1163.41 10.9199 1161.76 8.90391 1159.07 8.90391C1156.38 8.90391 1154.81 10.9199 1154.81 13.7199C1154.81 16.5479 1156.38 18.5639 1159.07 18.5639ZM1171.13 3.66791C1170.17 3.66791 1169.39 2.88391 1169.39 1.93191C1169.39 0.95191 1170.17 0.195909 1171.13 0.195909C1172.08 0.195909 1172.86 0.95191 1172.86 1.93191C1172.86 2.88391 1172.08 3.66791 1171.13 3.66791ZM1169.84 20.6079V6.91591H1172.47V20.6079H1169.84ZM1175.39 13.7759C1175.39 9.49191 1178.11 6.52391 1182.11 6.52391C1185.56 6.52391 1187.97 8.48391 1188.44 11.5359H1185.81C1185.36 9.79991 1183.96 8.87591 1182.2 8.87591C1179.71 8.87591 1178 10.7799 1178 13.7479C1178 16.6879 1179.59 18.5919 1182.09 18.5919C1183.96 18.5919 1185.36 17.6119 1185.84 15.9879H1188.47C1187.94 18.9559 1185.39 20.9439 1182.09 20.9439C1178.05 20.9439 1175.39 18.0879 1175.39 13.7759ZM1195.25 20.9439C1192.31 20.9439 1190.58 19.2919 1190.58 16.7999C1190.58 14.2799 1192.45 12.7119 1195.67 12.4599L1199.98 12.1239V11.7319C1199.98 9.43591 1198.61 8.62391 1196.76 8.62391C1194.55 8.62391 1193.29 9.60391 1193.29 11.2559H1191C1191 8.39991 1193.35 6.52391 1196.88 6.52391C1200.26 6.52391 1202.56 8.31591 1202.56 12.0119V20.6079H1200.32L1200.04 18.3959C1199.34 19.9639 1197.46 20.9439 1195.25 20.9439ZM1196.01 18.8999C1198.5 18.8999 1200.01 17.2759 1200.01 14.6999V13.9719L1196.51 14.2519C1194.19 14.4759 1193.24 15.3719 1193.24 16.7159C1193.24 18.1719 1194.3 18.8999 1196.01 18.8999ZM1209.85 20.6079H1207.22V9.12791H1204.53V6.91591H1207.22V2.63191H1209.85V6.91591H1212.54V9.12791H1209.85V20.6079ZM1213.87 13.7479C1213.87 9.51991 1216.89 6.55191 1221.01 6.55191C1225.1 6.55191 1228.12 9.51991 1228.12 13.7479C1228.12 17.9759 1225.1 20.9439 1221.01 20.9439C1216.89 20.9439 1213.87 17.9759 1213.87 13.7479ZM1216.53 13.7479C1216.53 16.6039 1218.35 18.5919 1221.01 18.5919C1223.64 18.5919 1225.49 16.6039 1225.49 13.7479C1225.49 10.8919 1223.64 8.90391 1221.01 8.90391C1218.35 8.90391 1216.53 10.8919 1216.53 13.7479ZM1238.87 6.80391V9.21191H1237.7C1235.2 9.21191 1233.66 10.7239 1233.66 13.3559V20.6079H1231.03V6.94391H1233.5L1233.66 9.01591C1234.22 7.58791 1235.6 6.63591 1237.47 6.63591C1237.95 6.63591 1238.34 6.69191 1238.87 6.80391ZM1240.22 16.6319H1242.74C1242.74 18.0319 1243.81 18.8719 1245.54 18.8719C1247.39 18.8719 1248.45 18.1159 1248.45 16.8559C1248.45 15.9319 1248.01 15.3719 1246.58 15.0079L1244.17 14.4479C1241.73 13.8599 1240.59 12.6559 1240.59 10.6399C1240.59 8.11991 1242.71 6.52391 1245.74 6.52391C1248.73 6.52391 1250.69 8.20391 1250.75 10.8079H1248.23C1248.17 9.43591 1247.25 8.56791 1245.65 8.56791C1244 8.56791 1243.08 9.29591 1243.08 10.5559C1243.08 11.4799 1243.75 12.0959 1245.09 12.4319L1247.5 13.0199C1249.83 13.5799 1250.97 14.6439 1250.97 16.6879C1250.97 19.2919 1248.73 20.9439 1245.49 20.9439C1242.27 20.9439 1240.22 19.2359 1240.22 16.6319ZM1271.01 6.91591H1273.62V20.6079H1271.26L1270.98 18.5359C1270.2 19.9639 1268.38 20.9439 1266.36 20.9439C1263.17 20.9439 1261.38 18.7879 1261.38 15.4279V6.91591H1264.01V14.5599C1264.01 17.4999 1265.27 18.6199 1267.29 18.6199C1269.7 18.6199 1271.01 17.0799 1271.01 14.1399V6.91591ZM1276.04 16.6319H1278.56C1278.56 18.0319 1279.63 18.8719 1281.36 18.8719C1283.21 18.8719 1284.27 18.1159 1284.27 16.8559C1284.27 15.9319 1283.83 15.3719 1282.4 15.0079L1279.99 14.4479C1277.55 13.8599 1276.41 12.6559 1276.41 10.6399C1276.41 8.11991 1278.53 6.52391 1281.56 6.52391C1284.55 6.52391 1286.51 8.20391 1286.57 10.8079H1284.05C1283.99 9.43591 1283.07 8.56791 1281.47 8.56791C1279.82 8.56791 1278.9 9.29591 1278.9 10.5559C1278.9 11.4799 1279.57 12.0959 1280.91 12.4319L1283.32 13.0199C1285.65 13.5799 1286.79 14.6439 1286.79 16.6879C1286.79 19.2919 1284.55 20.9439 1281.31 20.9439C1278.09 20.9439 1276.04 19.2359 1276.04 16.6319ZM1295.62 20.9439C1291.59 20.9439 1288.82 18.0319 1288.82 13.7759C1288.82 9.49191 1291.53 6.52391 1295.51 6.52391C1299.4 6.52391 1301.95 9.21191 1301.95 13.2719V14.2519L1291.36 14.2799C1291.56 17.1639 1293.07 18.7599 1295.68 18.7599C1297.72 18.7599 1299.06 17.9199 1299.51 16.3519H1301.98C1301.3 19.2919 1299.01 20.9439 1295.62 20.9439ZM1295.51 8.73591C1293.21 8.73591 1291.76 10.1079 1291.42 12.5159H1299.32C1299.32 10.2479 1297.83 8.73591 1295.51 8.73591ZM1310.38 20.9439C1306.4 20.9439 1303.99 17.9759 1303.99 13.8039C1303.99 9.60391 1306.43 6.52391 1310.49 6.52391C1312.59 6.52391 1314.35 7.44791 1315.28 9.12791V-9.15527e-05H1317.88V20.6079H1315.53L1315.3 18.1159C1314.41 19.9919 1312.56 20.9439 1310.38 20.9439ZM1310.91 18.5639C1313.6 18.5639 1315.25 16.5759 1315.25 13.7199C1315.25 10.9199 1313.6 8.90391 1310.91 8.90391C1308.22 8.90391 1306.65 10.9199 1306.65 13.7199C1306.65 16.5479 1308.22 18.5639 1310.91 18.5639ZM1333.34 20.9439C1330.4 20.9439 1328.66 19.2919 1328.66 16.7999C1328.66 14.2799 1330.54 12.7119 1333.76 12.4599L1338.07 12.1239V11.7319C1338.07 9.43591 1336.7 8.62391 1334.85 8.62391C1332.64 8.62391 1331.38 9.60391 1331.38 11.2559H1329.08C1329.08 8.39991 1331.43 6.52391 1334.96 6.52391C1338.35 6.52391 1340.65 8.31591 1340.65 12.0119V20.6079H1338.41L1338.13 18.3959C1337.43 19.9639 1335.55 20.9439 1333.34 20.9439ZM1334.09 18.8999C1336.59 18.8999 1338.1 17.2759 1338.1 14.6999V13.9719L1334.6 14.2519C1332.27 14.4759 1331.32 15.3719 1331.32 16.7159C1331.32 18.1719 1332.39 18.8999 1334.09 18.8999ZM1343.39 13.7759C1343.39 9.49191 1346.11 6.52391 1350.11 6.52391C1353.56 6.52391 1355.97 8.48391 1356.44 11.5359H1353.81C1353.36 9.79991 1351.96 8.87591 1350.2 8.87591C1347.71 8.87591 1346 10.7799 1346 13.7479C1346 16.6879 1347.59 18.5919 1350.09 18.5919C1351.96 18.5919 1353.36 17.6119 1353.84 15.9879H1356.47C1355.94 18.9559 1353.39 20.9439 1350.09 20.9439C1346.05 20.9439 1343.39 18.0879 1343.39 13.7759ZM1367.09 6.80391V9.21191H1365.91C1363.42 9.21191 1361.88 10.7239 1361.88 13.3559V20.6079H1359.25V6.94391H1361.71L1361.88 9.01591C1362.44 7.58791 1363.81 6.63591 1365.69 6.63591C1366.16 6.63591 1366.56 6.69191 1367.09 6.80391ZM1368.17 13.7479C1368.17 9.51991 1371.19 6.55191 1375.31 6.55191C1379.4 6.55191 1382.42 9.51991 1382.42 13.7479C1382.42 17.9759 1379.4 20.9439 1375.31 20.9439C1371.19 20.9439 1368.17 17.9759 1368.17 13.7479ZM1370.83 13.7479C1370.83 16.6039 1372.65 18.5919 1375.31 18.5919C1377.94 18.5919 1379.79 16.6039 1379.79 13.7479C1379.79 10.8919 1377.94 8.90391 1375.31 8.90391C1372.65 8.90391 1370.83 10.8919 1370.83 13.7479ZM1384.21 16.6319H1386.73C1386.73 18.0319 1387.8 18.8719 1389.53 18.8719C1391.38 18.8719 1392.45 18.1159 1392.45 16.8559C1392.45 15.9319 1392 15.3719 1390.57 15.0079L1388.16 14.4479C1385.73 13.8599 1384.58 12.6559 1384.58 10.6399C1384.58 8.11991 1386.71 6.52391 1389.73 6.52391C1392.73 6.52391 1394.69 8.20391 1394.74 10.8079H1392.22C1392.17 9.43591 1391.24 8.56791 1389.65 8.56791C1387.99 8.56791 1387.07 9.29591 1387.07 10.5559C1387.07 11.4799 1387.74 12.0959 1389.09 12.4319L1391.49 13.0199C1393.82 13.5799 1394.97 14.6439 1394.97 16.6879C1394.97 19.2919 1392.73 20.9439 1389.48 20.9439C1386.26 20.9439 1384.21 19.2359 1384.21 16.6319ZM1396.76 16.6319H1399.28C1399.28 18.0319 1400.35 18.8719 1402.08 18.8719C1403.93 18.8719 1405 18.1159 1405 16.8559C1405 15.9319 1404.55 15.3719 1403.12 15.0079L1400.71 14.4479C1398.28 13.8599 1397.13 12.6559 1397.13 10.6399C1397.13 8.11991 1399.26 6.52391 1402.28 6.52391C1405.28 6.52391 1407.24 8.20391 1407.29 10.8079H1404.77C1404.72 9.43591 1403.79 8.56791 1402.2 8.56791C1400.54 8.56791 1399.62 9.29591 1399.62 10.5559C1399.62 11.4799 1400.29 12.0959 1401.64 12.4319L1404.04 13.0199C1406.37 13.5799 1407.52 14.6439 1407.52 16.6879C1407.52 19.2919 1405.28 20.9439 1402.03 20.9439C1398.81 20.9439 1396.76 19.2359 1396.76 16.6319ZM1417.2 13.7759C1417.2 9.49191 1419.91 6.52391 1423.92 6.52391C1427.36 6.52391 1429.77 8.48391 1430.24 11.5359H1427.61C1427.16 9.79991 1425.76 8.87591 1424 8.87591C1421.51 8.87591 1419.8 10.7799 1419.8 13.7479C1419.8 16.6879 1421.4 18.5919 1423.89 18.5919C1425.76 18.5919 1427.16 17.6119 1427.64 15.9879H1430.27C1429.74 18.9559 1427.19 20.9439 1423.89 20.9439C1419.86 20.9439 1417.2 18.0879 1417.2 13.7759ZM1432.15 13.7479C1432.15 9.51991 1435.18 6.55191 1439.29 6.55191C1443.38 6.55191 1446.4 9.51991 1446.4 13.7479C1446.4 17.9759 1443.38 20.9439 1439.29 20.9439C1435.18 20.9439 1432.15 17.9759 1432.15 13.7479ZM1434.81 13.7479C1434.81 16.6039 1436.63 18.5919 1439.29 18.5919C1441.92 18.5919 1443.77 16.6039 1443.77 13.7479C1443.77 10.8919 1441.92 8.90391 1439.29 8.90391C1436.63 8.90391 1434.81 10.8919 1434.81 13.7479ZM1451.95 20.6079H1449.32V6.91591H1451.7L1451.98 9.01591C1452.85 7.44791 1454.58 6.52391 1456.51 6.52391C1460.13 6.52391 1461.78 8.73591 1461.78 12.2359V20.6079H1459.15V12.8239C1459.15 10.0519 1457.86 8.93191 1455.84 8.93191C1453.38 8.93191 1451.95 10.6959 1451.95 13.3559V20.6079ZM1469.29 20.6079H1466.66V9.12791H1463.97V6.91591H1466.66V2.63191H1469.29V6.91591H1471.98V9.12791H1469.29V20.6079ZM1478.18 20.9439C1475.24 20.9439 1473.5 19.2919 1473.5 16.7999C1473.5 14.2799 1475.38 12.7119 1478.6 12.4599L1482.91 12.1239V11.7319C1482.91 9.43591 1481.54 8.62391 1479.69 8.62391C1477.48 8.62391 1476.22 9.60391 1476.22 11.2559H1473.92C1473.92 8.39991 1476.27 6.52391 1479.8 6.52391C1483.19 6.52391 1485.49 8.31591 1485.49 12.0119V20.6079H1483.25L1482.97 18.3959C1482.27 19.9639 1480.39 20.9439 1478.18 20.9439ZM1478.93 18.8999C1481.43 18.8999 1482.94 17.2759 1482.94 14.6999V13.9719L1479.44 14.2519C1477.11 14.4759 1476.16 15.3719 1476.16 16.7159C1476.16 18.1719 1477.23 18.8999 1478.93 18.8999ZM1488.23 13.7759C1488.23 9.49191 1490.95 6.52391 1494.95 6.52391C1498.4 6.52391 1500.81 8.48391 1501.28 11.5359H1498.65C1498.2 9.79991 1496.8 8.87591 1495.04 8.87591C1492.55 8.87591 1490.84 10.7799 1490.84 13.7479C1490.84 16.6879 1492.43 18.5919 1494.93 18.5919C1496.8 18.5919 1498.2 17.6119 1498.68 15.9879H1501.31C1500.78 18.9559 1498.23 20.9439 1494.93 20.9439C1490.89 20.9439 1488.23 18.0879 1488.23 13.7759ZM1507.95 20.6079H1505.32V9.12791H1502.63V6.91591H1505.32V2.63191H1507.95V6.91591H1510.64V9.12791H1507.95V20.6079ZM1519.54 16.6319H1522.06C1522.06 18.0319 1523.12 18.8719 1524.86 18.8719C1526.71 18.8719 1527.77 18.1159 1527.77 16.8559C1527.77 15.9319 1527.32 15.3719 1525.89 15.0079L1523.49 14.4479C1521.05 13.8599 1519.9 12.6559 1519.9 10.6399C1519.9 8.11991 1522.03 6.52391 1525.05 6.52391C1528.05 6.52391 1530.01 8.20391 1530.07 10.8079H1527.55C1527.49 9.43591 1526.57 8.56791 1524.97 8.56791C1523.32 8.56791 1522.39 9.29591 1522.39 10.5559C1522.39 11.4799 1523.07 12.0959 1524.41 12.4319L1526.82 13.0199C1529.14 13.5799 1530.29 14.6439 1530.29 16.6879C1530.29 19.2919 1528.05 20.9439 1524.8 20.9439C1521.58 20.9439 1519.54 19.2359 1519.54 16.6319ZM1531.62 26.7399V24.5839H1533.38C1534.64 24.5839 1535.65 24.3879 1536.3 22.6519L1536.77 21.3359L1531.26 6.91591H1534.03L1538 17.9479L1542.06 6.91591H1544.78L1538.31 23.6879C1537.39 26.0399 1536.02 27.0199 1533.92 27.0199C1533.05 27.0199 1532.32 26.9079 1531.62 26.7399ZM1545.57 16.6319H1548.09C1548.09 18.0319 1549.15 18.8719 1550.89 18.8719C1552.74 18.8719 1553.8 18.1159 1553.8 16.8559C1553.8 15.9319 1553.35 15.3719 1551.93 15.0079L1549.52 14.4479C1547.08 13.8599 1545.93 12.6559 1545.93 10.6399C1545.93 8.11991 1548.06 6.52391 1551.09 6.52391C1554.08 6.52391 1556.04 8.20391 1556.1 10.8079H1553.58C1553.52 9.43591 1552.6 8.56791 1551 8.56791C1549.35 8.56791 1548.43 9.29591 1548.43 10.5559C1548.43 11.4799 1549.1 12.0959 1550.44 12.4319L1552.85 13.0199C1555.17 13.5799 1556.32 14.6439 1556.32 16.6879C1556.32 19.2919 1554.08 20.9439 1550.83 20.9439C1547.61 20.9439 1545.57 19.2359 1545.57 16.6319ZM1563.1 20.6079H1560.47V9.12791H1557.78V6.91591H1560.47V2.63191H1563.1V6.91591H1565.79V9.12791H1563.1V20.6079ZM1573.93 20.9439C1569.89 20.9439 1567.12 18.0319 1567.12 13.7759C1567.12 9.49191 1569.84 6.52391 1573.81 6.52391C1577.71 6.52391 1580.25 9.21191 1580.25 13.2719V14.2519L1569.67 14.2799C1569.87 17.1639 1571.38 18.7599 1573.98 18.7599C1576.03 18.7599 1577.37 17.9199 1577.82 16.3519H1580.28C1579.61 19.2919 1577.31 20.9439 1573.93 20.9439ZM1573.81 8.73591C1571.52 8.73591 1570.06 10.1079 1569.73 12.5159H1577.62C1577.62 10.2479 1576.14 8.73591 1573.81 8.73591ZM1585.83 20.6079H1583.19V6.91591H1585.55L1585.8 8.70791C1586.5 7.41991 1587.95 6.52391 1589.89 6.52391C1592.01 6.52391 1593.53 7.58791 1594.23 9.29591C1594.87 7.58791 1596.52 6.52391 1598.65 6.52391C1601.79 6.52391 1603.69 8.48391 1603.69 11.6479V20.6079H1601.11V12.2919C1601.11 10.1359 1599.91 8.90391 1598.06 8.90391C1596.07 8.90391 1594.76 10.3039 1594.76 12.4879V20.6079H1592.15V12.2639C1592.15 10.1079 1590.98 8.93191 1589.13 8.93191C1587.14 8.93191 1585.83 10.3039 1585.83 12.4879V20.6079ZM1606.05 16.6319H1608.57C1608.57 18.0319 1609.64 18.8719 1611.37 18.8719C1613.22 18.8719 1614.29 18.1159 1614.29 16.8559C1614.29 15.9319 1613.84 15.3719 1612.41 15.0079L1610 14.4479C1607.57 13.8599 1606.42 12.6559 1606.42 10.6399C1606.42 8.11991 1608.55 6.52391 1611.57 6.52391C1614.57 6.52391 1616.53 8.20391 1616.58 10.8079H1614.06C1614.01 9.43591 1613.08 8.56791 1611.49 8.56791C1609.83 8.56791 1608.91 9.29591 1608.91 10.5559C1608.91 11.4799 1609.58 12.0959 1610.93 12.4319L1613.33 13.0199C1615.66 13.5799 1616.81 14.6439 1616.81 16.6879C1616.81 19.2919 1614.57 20.9439 1611.32 20.9439C1608.1 20.9439 1606.05 19.2359 1606.05 16.6319ZM1623.51 19.5159C1623.51 21.5319 1622 23.2119 1620.01 23.4639V22.2879C1621.16 22.0919 1621.97 21.3359 1621.97 20.4679C1621.77 20.5799 1621.55 20.6359 1621.21 20.6359C1620.29 20.6359 1619.5 19.9639 1619.5 18.9279C1619.5 17.8079 1620.26 16.9959 1621.38 16.9959C1622.56 16.9959 1623.51 17.9759 1623.51 19.5159ZM1634.06 13.7759C1634.06 9.49191 1636.77 6.52391 1640.78 6.52391C1644.22 6.52391 1646.63 8.48391 1647.11 11.5359H1644.47C1644.03 9.79991 1642.63 8.87591 1640.86 8.87591C1638.37 8.87591 1636.66 10.7799 1636.66 13.7479C1636.66 16.6879 1638.26 18.5919 1640.75 18.5919C1642.63 18.5919 1644.03 17.6119 1644.5 15.9879H1647.13C1646.6 18.9559 1644.05 20.9439 1640.75 20.9439C1636.72 20.9439 1634.06 18.0879 1634.06 13.7759ZM1649.02 13.7479C1649.02 9.51991 1652.04 6.55191 1656.16 6.55191C1660.24 6.55191 1663.27 9.51991 1663.27 13.7479C1663.27 17.9759 1660.24 20.9439 1656.16 20.9439C1652.04 20.9439 1649.02 17.9759 1649.02 13.7479ZM1651.68 13.7479C1651.68 16.6039 1653.5 18.5919 1656.16 18.5919C1658.79 18.5919 1660.64 16.6039 1660.64 13.7479C1660.64 10.8919 1658.79 8.90391 1656.16 8.90391C1653.5 8.90391 1651.68 10.8919 1651.68 13.7479ZM1668.81 20.6079H1666.18V6.91591H1668.53L1668.79 8.70791C1669.49 7.41991 1670.94 6.52391 1672.87 6.52391C1675 6.52391 1676.51 7.58791 1677.21 9.29591C1677.86 7.58791 1679.51 6.52391 1681.64 6.52391C1684.77 6.52391 1686.68 8.48391 1686.68 11.6479V20.6079H1684.1V12.2919C1684.1 10.1359 1682.9 8.90391 1681.05 8.90391C1679.06 8.90391 1677.75 10.3039 1677.75 12.4879V20.6079H1675.14V12.2639C1675.14 10.1079 1673.97 8.93191 1672.12 8.93191C1670.13 8.93191 1668.81 10.3039 1668.81 12.4879V20.6079ZM1692.96 20.6079H1690.33V6.91591H1692.68L1692.93 8.70791C1693.63 7.41991 1695.09 6.52391 1697.02 6.52391C1699.15 6.52391 1700.66 7.58791 1701.36 9.29591C1702 7.58791 1703.65 6.52391 1705.78 6.52391C1708.92 6.52391 1710.82 8.48391 1710.82 11.6479V20.6079H1708.25V12.2919C1708.25 10.1359 1707.04 8.90391 1705.19 8.90391C1703.21 8.90391 1701.89 10.3039 1701.89 12.4879V20.6079H1699.29V12.2639C1699.29 10.1079 1698.11 8.93191 1696.26 8.93191C1694.27 8.93191 1692.96 10.3039 1692.96 12.4879V20.6079ZM1723.93 6.91591H1726.54V20.6079H1724.19L1723.91 18.5359C1723.12 19.9639 1721.3 20.9439 1719.29 20.9439C1716.09 20.9439 1714.3 18.7879 1714.3 15.4279V6.91591H1716.93V14.5599C1716.93 17.4999 1718.19 18.6199 1720.21 18.6199C1722.62 18.6199 1723.93 17.0799 1723.93 14.1399V6.91591ZM1732.99 20.6079H1730.36V6.91591H1732.74L1733.02 9.01591C1733.89 7.44791 1735.62 6.52391 1737.55 6.52391C1741.17 6.52391 1742.82 8.73591 1742.82 12.2359V20.6079H1740.19V12.8239C1740.19 10.0519 1738.9 8.93191 1736.88 8.93191C1734.42 8.93191 1732.99 10.6959 1732.99 13.3559V20.6079ZM1747.75 3.66791C1746.8 3.66791 1746.01 2.88391 1746.01 1.93191C1746.01 0.95191 1746.8 0.195909 1747.75 0.195909C1748.7 0.195909 1749.49 0.95191 1749.49 1.93191C1749.49 2.88391 1748.7 3.66791 1747.75 3.66791ZM1746.46 20.6079V6.91591H1749.09V20.6079H1746.46ZM1752.02 13.7759C1752.02 9.49191 1754.74 6.52391 1758.74 6.52391C1762.18 6.52391 1764.59 8.48391 1765.07 11.5359H1762.44C1761.99 9.79991 1760.59 8.87591 1758.82 8.87591C1756.33 8.87591 1754.62 10.7799 1754.62 13.7479C1754.62 16.6879 1756.22 18.5919 1758.71 18.5919C1760.59 18.5919 1761.99 17.6119 1762.46 15.9879H1765.1C1764.56 18.9559 1762.02 20.9439 1758.71 20.9439C1754.68 20.9439 1752.02 18.0879 1752.02 13.7759ZM1771.88 20.9439C1768.94 20.9439 1767.2 19.2919 1767.2 16.7999C1767.2 14.2799 1769.08 12.7119 1772.3 12.4599L1776.61 12.1239V11.7319C1776.61 9.43591 1775.24 8.62391 1773.39 8.62391C1771.18 8.62391 1769.92 9.60391 1769.92 11.2559H1767.62C1767.62 8.39991 1769.97 6.52391 1773.5 6.52391C1776.89 6.52391 1779.18 8.31591 1779.18 12.0119V20.6079H1776.94L1776.66 18.3959C1775.96 19.9639 1774.09 20.9439 1771.88 20.9439ZM1772.63 18.8999C1775.12 18.8999 1776.64 17.2759 1776.64 14.6999V13.9719L1773.14 14.2519C1770.81 14.4759 1769.86 15.3719 1769.86 16.7159C1769.86 18.1719 1770.92 18.8999 1772.63 18.8999ZM1786.48 20.6079H1783.84V9.12791H1781.16V6.91591H1783.84V2.63191H1786.48V6.91591H1789.16V9.12791H1786.48V20.6079ZM1792.81 3.66791C1791.86 3.66791 1791.08 2.88391 1791.08 1.93191C1791.08 0.95191 1791.86 0.195909 1792.81 0.195909C1793.77 0.195909 1794.55 0.95191 1794.55 1.93191C1794.55 2.88391 1793.77 3.66791 1792.81 3.66791ZM1791.53 20.6079V6.91591H1794.16V20.6079H1791.53ZM1797.08 13.7479C1797.08 9.51991 1800.11 6.55191 1804.22 6.55191C1808.31 6.55191 1811.33 9.51991 1811.33 13.7479C1811.33 17.9759 1808.31 20.9439 1804.22 20.9439C1800.11 20.9439 1797.08 17.9759 1797.08 13.7479ZM1799.74 13.7479C1799.74 16.6039 1801.56 18.5919 1804.22 18.5919C1806.85 18.5919 1808.7 16.6039 1808.7 13.7479C1808.7 10.8919 1806.85 8.90391 1804.22 8.90391C1801.56 8.90391 1799.74 10.8919 1799.74 13.7479ZM1816.88 20.6079H1814.25V6.91591H1816.63L1816.91 9.01591C1817.78 7.44791 1819.51 6.52391 1821.44 6.52391C1825.06 6.52391 1826.71 8.73591 1826.71 12.2359V20.6079H1824.08V12.8239C1824.08 10.0519 1822.79 8.93191 1820.77 8.93191C1818.31 8.93191 1816.88 10.6959 1816.88 13.3559V20.6079ZM1843.5 20.9439C1839.52 20.9439 1837.11 17.9759 1837.11 13.8039C1837.11 9.60391 1839.55 6.52391 1843.61 6.52391C1845.71 6.52391 1847.47 7.44791 1848.4 9.12791V-9.15527e-05H1851V20.6079H1848.65L1848.43 18.1159C1847.53 19.9919 1845.68 20.9439 1843.5 20.9439ZM1844.03 18.5639C1846.72 18.5639 1848.37 16.5759 1848.37 13.7199C1848.37 10.9199 1846.72 8.90391 1844.03 8.90391C1841.34 8.90391 1839.77 10.9199 1839.77 13.7199C1839.77 16.5479 1841.34 18.5639 1844.03 18.5639ZM1858.8 20.9439C1855.86 20.9439 1854.13 19.2919 1854.13 16.7999C1854.13 14.2799 1856 12.7119 1859.22 12.4599L1863.53 12.1239V11.7319C1863.53 9.43591 1862.16 8.62391 1860.31 8.62391C1858.1 8.62391 1856.84 9.60391 1856.84 11.2559H1854.55C1854.55 8.39991 1856.9 6.52391 1860.43 6.52391C1863.81 6.52391 1866.11 8.31591 1866.11 12.0119V20.6079H1863.87L1863.59 18.3959C1862.89 19.9639 1861.01 20.9439 1858.8 20.9439ZM1859.56 18.8999C1862.05 18.8999 1863.56 17.2759 1863.56 14.6999V13.9719L1860.06 14.2519C1857.74 14.4759 1856.79 15.3719 1856.79 16.7159C1856.79 18.1719 1857.85 18.8999 1859.56 18.8999ZM1868.64 16.6319H1871.16C1871.16 18.0319 1872.22 18.8719 1873.96 18.8719C1875.8 18.8719 1876.87 18.1159 1876.87 16.8559C1876.87 15.9319 1876.42 15.3719 1874.99 15.0079L1872.58 14.4479C1870.15 13.8599 1869 12.6559 1869 10.6399C1869 8.11991 1871.13 6.52391 1874.15 6.52391C1877.15 6.52391 1879.11 8.20391 1879.16 10.8079H1876.64C1876.59 9.43591 1875.66 8.56791 1874.07 8.56791C1872.42 8.56791 1871.49 9.29591 1871.49 10.5559C1871.49 11.4799 1872.16 12.0959 1873.51 12.4319L1875.92 13.0199C1878.24 13.5799 1879.39 14.6439 1879.39 16.6879C1879.39 19.2919 1877.15 20.9439 1873.9 20.9439C1870.68 20.9439 1868.64 19.2359 1868.64 16.6319ZM1884.94 20.5799H1882.31V-9.15527e-05H1884.94V9.01591C1885.81 7.53191 1887.46 6.52391 1889.59 6.52391C1893.09 6.52391 1894.77 8.73591 1894.77 12.2359V20.6079H1892.13V12.8239C1892.13 10.0519 1890.82 8.93191 1888.86 8.93191C1886.31 8.93191 1884.94 10.7799 1884.94 13.1319V20.5799ZM1900.79 20.6079H1898.41V-9.15527e-05H1901.04V9.26791C1901.94 7.47591 1903.79 6.52391 1906.03 6.52391C1909.95 6.52391 1912.3 9.60391 1912.3 13.8319C1912.3 17.9759 1909.84 20.9439 1905.86 20.9439C1903.7 20.9439 1901.88 19.9919 1900.99 18.1159L1900.79 20.6079ZM1901.07 13.7199C1901.07 16.5759 1902.7 18.5639 1905.38 18.5639C1908.07 18.5639 1909.67 16.5479 1909.67 13.7199C1909.67 10.9199 1908.07 8.90391 1905.38 8.90391C1902.7 8.90391 1901.07 10.9199 1901.07 13.7199ZM1914.3 13.7479C1914.3 9.51991 1917.33 6.55191 1921.44 6.55191C1925.53 6.55191 1928.56 9.51991 1928.56 13.7479C1928.56 17.9759 1925.53 20.9439 1921.44 20.9439C1917.33 20.9439 1914.3 17.9759 1914.3 13.7479ZM1916.96 13.7479C1916.96 16.6039 1918.78 18.5919 1921.44 18.5919C1924.08 18.5919 1925.92 16.6039 1925.92 13.7479C1925.92 10.8919 1924.08 8.90391 1921.44 8.90391C1918.78 8.90391 1916.96 10.8919 1916.96 13.7479ZM1935.47 20.9439C1932.53 20.9439 1930.8 19.2919 1930.8 16.7999C1930.8 14.2799 1932.67 12.7119 1935.89 12.4599L1940.21 12.1239V11.7319C1940.21 9.43591 1938.83 8.62391 1936.99 8.62391C1934.77 8.62391 1933.51 9.60391 1933.51 11.2559H1931.22C1931.22 8.39991 1933.57 6.52391 1937.1 6.52391C1940.49 6.52391 1942.78 8.31591 1942.78 12.0119V20.6079H1940.54L1940.26 18.3959C1939.56 19.9639 1937.69 20.9439 1935.47 20.9439ZM1936.23 18.8999C1938.72 18.8999 1940.23 17.2759 1940.23 14.6999V13.9719L1936.73 14.2519C1934.41 14.4759 1933.46 15.3719 1933.46 16.7159C1933.46 18.1719 1934.52 18.8999 1936.23 18.8999ZM1954.27 6.80391V9.21191H1953.09C1950.6 9.21191 1949.06 10.7239 1949.06 13.3559V20.6079H1946.43V6.94391H1948.89L1949.06 9.01591C1949.62 7.58791 1950.99 6.63591 1952.87 6.63591C1953.34 6.63591 1953.74 6.69191 1954.27 6.80391ZM1961.73 20.9439C1957.76 20.9439 1955.35 17.9759 1955.35 13.8039C1955.35 9.60391 1957.78 6.52391 1961.84 6.52391C1963.94 6.52391 1965.71 7.44791 1966.63 9.12791V-9.15527e-05H1969.24V20.6079H1966.88L1966.66 18.1159C1965.76 19.9919 1963.92 20.9439 1961.73 20.9439ZM1962.26 18.5639C1964.95 18.5639 1966.6 16.5759 1966.6 13.7199C1966.6 10.9199 1964.95 8.90391 1962.26 8.90391C1959.58 8.90391 1958.01 10.9199 1958.01 13.7199C1958.01 16.5479 1959.58 18.5639 1962.26 18.5639ZM1971.91 16.6319H1974.43C1974.43 18.0319 1975.5 18.8719 1977.23 18.8719C1979.08 18.8719 1980.14 18.1159 1980.14 16.8559C1980.14 15.9319 1979.7 15.3719 1978.27 15.0079L1975.86 14.4479C1973.42 13.8599 1972.28 12.6559 1972.28 10.6399C1972.28 8.11991 1974.4 6.52391 1977.43 6.52391C1980.42 6.52391 1982.38 8.20391 1982.44 10.8079H1979.92C1979.86 9.43591 1978.94 8.56791 1977.34 8.56791C1975.69 8.56791 1974.77 9.29591 1974.77 10.5559C1974.77 11.4799 1975.44 12.0959 1976.78 12.4319L1979.19 13.0199C1981.52 13.5799 1982.66 14.6439 1982.66 16.6879C1982.66 19.2919 1980.42 20.9439 1977.18 20.9439C1973.96 20.9439 1971.91 19.2359 1971.91 16.6319ZM1989.37 19.5159C1989.37 21.5319 1987.86 23.2119 1985.87 23.4639V22.2879C1987.02 22.0919 1987.83 21.3359 1987.83 20.4679C1987.63 20.5799 1987.41 20.6359 1987.07 20.6359C1986.15 20.6359 1985.36 19.9639 1985.36 18.9279C1985.36 17.8079 1986.12 16.9959 1987.24 16.9959C1988.42 16.9959 1989.37 17.9759 1989.37 19.5159ZM2004.82 20.9439C2001.88 20.9439 2000.14 19.2919 2000.14 16.7999C2000.14 14.2799 2002.02 12.7119 2005.24 12.4599L2009.55 12.1239V11.7319C2009.55 9.43591 2008.18 8.62391 2006.33 8.62391C2004.12 8.62391 2002.86 9.60391 2002.86 11.2559H2000.56C2000.56 8.39991 2002.91 6.52391 2006.44 6.52391C2009.83 6.52391 2012.13 8.31591 2012.13 12.0119V20.6079H2009.89L2009.61 18.3959C2008.91 19.9639 2007.03 20.9439 2004.82 20.9439ZM2005.57 18.8999C2008.07 18.8999 2009.58 17.2759 2009.58 14.6999V13.9719L2006.08 14.2519C2003.75 14.4759 2002.8 15.3719 2002.8 16.7159C2002.8 18.1719 2003.87 18.8999 2005.57 18.8999ZM2018.4 20.6079H2015.77V6.91591H2018.15L2018.43 9.01591C2019.3 7.44791 2021.04 6.52391 2022.97 6.52391C2026.58 6.52391 2028.23 8.73591 2028.23 12.2359V20.6079H2025.6V12.8239C2025.6 10.0519 2024.31 8.93191 2022.3 8.93191C2019.83 8.93191 2018.4 10.6959 2018.4 13.3559V20.6079ZM2037.36 20.9439C2033.39 20.9439 2030.98 17.9759 2030.98 13.8039C2030.98 9.60391 2033.42 6.52391 2037.48 6.52391C2039.58 6.52391 2041.34 7.44791 2042.26 9.12791V-9.15527e-05H2044.87V20.6079H2042.52L2042.29 18.1159C2041.4 19.9919 2039.55 20.9439 2037.36 20.9439ZM2037.9 18.5639C2040.58 18.5639 2042.24 16.5759 2042.24 13.7199C2042.24 10.9199 2040.58 8.90391 2037.9 8.90391C2035.21 8.90391 2033.64 10.9199 2033.64 13.7199C2033.64 16.5479 2035.21 18.5639 2037.9 18.5639ZM2055.2 16.6319H2057.72C2057.72 18.0319 2058.79 18.8719 2060.52 18.8719C2062.37 18.8719 2063.43 18.1159 2063.43 16.8559C2063.43 15.9319 2062.99 15.3719 2061.56 15.0079L2059.15 14.4479C2056.71 13.8599 2055.57 12.6559 2055.57 10.6399C2055.57 8.11991 2057.69 6.52391 2060.72 6.52391C2063.71 6.52391 2065.67 8.20391 2065.73 10.8079H2063.21C2063.15 9.43591 2062.23 8.56791 2060.63 8.56791C2058.98 8.56791 2058.06 9.29591 2058.06 10.5559C2058.06 11.4799 2058.73 12.0959 2060.07 12.4319L2062.48 13.0199C2064.81 13.5799 2065.95 14.6439 2065.95 16.6879C2065.95 19.2919 2063.71 20.9439 2060.47 20.9439C2057.25 20.9439 2055.2 19.2359 2055.2 16.6319ZM2078.34 6.91591H2080.94V20.6079H2078.59L2078.31 18.5359C2077.52 19.9639 2075.7 20.9439 2073.69 20.9439C2070.5 20.9439 2068.7 18.7879 2068.7 15.4279V6.91591H2071.34V14.5599C2071.34 17.4999 2072.6 18.6199 2074.61 18.6199C2077.02 18.6199 2078.34 17.0799 2078.34 14.1399V6.91591ZM2084.76 26.7399V6.91591H2087.14L2087.34 9.37991C2088.26 7.50391 2090.11 6.52391 2092.29 6.52391C2096.21 6.52391 2098.65 9.46391 2098.65 13.6639C2098.65 17.8359 2096.35 20.9719 2092.29 20.9719C2090.11 20.9719 2088.29 20.0479 2087.39 18.3679V26.7399H2084.76ZM2087.42 13.7759C2087.42 16.5759 2089.04 18.5919 2091.73 18.5919C2094.42 18.5919 2096.02 16.5759 2096.02 13.7759C2096.02 10.9479 2094.42 8.93191 2091.73 8.93191C2089.04 8.93191 2087.42 10.9199 2087.42 13.7759ZM2101.55 26.7399V6.91591H2103.93L2104.12 9.37991C2105.05 7.50391 2106.9 6.52391 2109.08 6.52391C2113 6.52391 2115.44 9.46391 2115.44 13.6639C2115.44 17.8359 2113.14 20.9719 2109.08 20.9719C2106.9 20.9719 2105.08 20.0479 2104.18 18.3679V26.7399H2101.55ZM2104.21 13.7759C2104.21 16.5759 2105.83 18.5919 2108.52 18.5919C2111.21 18.5919 2112.8 16.5759 2112.8 13.7759C2112.8 10.9479 2111.21 8.93191 2108.52 8.93191C2105.83 8.93191 2104.21 10.9199 2104.21 13.7759ZM2117.44 13.7479C2117.44 9.51991 2120.47 6.55191 2124.58 6.55191C2128.67 6.55191 2131.69 9.51991 2131.69 13.7479C2131.69 17.9759 2128.67 20.9439 2124.58 20.9439C2120.47 20.9439 2117.44 17.9759 2117.44 13.7479ZM2120.1 13.7479C2120.1 16.6039 2121.92 18.5919 2124.58 18.5919C2127.21 18.5919 2129.06 16.6039 2129.06 13.7479C2129.06 10.8919 2127.21 8.90391 2124.58 8.90391C2121.92 8.90391 2120.1 10.8919 2120.1 13.7479ZM2142.45 6.80391V9.21191H2141.27C2138.78 9.21191 2137.24 10.7239 2137.24 13.3559V20.6079H2134.61V6.94391H2137.07L2137.24 9.01591C2137.8 7.58791 2139.17 6.63591 2141.05 6.63591C2141.52 6.63591 2141.92 6.69191 2142.45 6.80391ZM2149.33 20.6079H2146.69V9.12791H2144.01V6.91591H2146.69V2.63191H2149.33V6.91591H2152.01V9.12791H2149.33V20.6079ZM2163.32 3.66791C2162.37 3.66791 2161.58 2.88391 2161.58 1.93191C2161.58 0.95191 2162.37 0.195909 2163.32 0.195909C2164.27 0.195909 2165.06 0.95191 2165.06 1.93191C2165.06 2.88391 2164.27 3.66791 2163.32 3.66791ZM2162.03 20.6079V6.91591H2164.66V20.6079H2162.03ZM2171.12 20.6079H2168.49V6.91591H2170.87L2171.15 9.01591C2172.01 7.44791 2173.75 6.52391 2175.68 6.52391C2179.29 6.52391 2180.95 8.73591 2180.95 12.2359V20.6079H2178.31V12.8239C2178.31 10.0519 2177.03 8.93191 2175.01 8.93191C2172.55 8.93191 2171.12 10.6959 2171.12 13.3559V20.6079ZM2188.46 20.6079H2185.82V9.12791H2183.14V6.91591H2185.82V2.63191H2188.46V6.91591H2191.14V9.12791H2188.46V20.6079ZM2199.28 20.9439C2195.24 20.9439 2192.47 18.0319 2192.47 13.7759C2192.47 9.49191 2195.19 6.52391 2199.16 6.52391C2203.06 6.52391 2205.6 9.21191 2205.6 13.2719V14.2519L2195.02 14.2799C2195.22 17.1639 2196.73 18.7599 2199.33 18.7599C2201.38 18.7599 2202.72 17.9199 2203.17 16.3519H2205.63C2204.96 19.2919 2202.66 20.9439 2199.28 20.9439ZM2199.16 8.73591C2196.87 8.73591 2195.41 10.1079 2195.08 12.5159H2202.97C2202.97 10.2479 2201.49 8.73591 2199.16 8.73591ZM2216.38 6.80391V9.21191H2215.21C2212.72 9.21191 2211.18 10.7239 2211.18 13.3559V20.6079H2208.54V6.94391H2211.01L2211.18 9.01591C2211.74 7.58791 2213.11 6.63591 2214.98 6.63591C2215.46 6.63591 2215.85 6.69191 2216.38 6.80391ZM2217.94 6.91591H2219.96V4.73191C2219.96 1.37191 2221.81 -9.15527e-05 2224.3 -9.15527e-05C2224.8 -9.15527e-05 2225.39 0.0279098 2225.92 0.111909V2.37991H2224.75C2223.04 2.37991 2222.59 3.24791 2222.59 4.73191V6.91591H2225.84V9.12791H2222.59V20.6079H2219.96V9.12791H2217.94V6.91591ZM2231.85 20.9439C2228.91 20.9439 2227.18 19.2919 2227.18 16.7999C2227.18 14.2799 2229.05 12.7119 2232.27 12.4599L2236.59 12.1239V11.7319C2236.59 9.43591 2235.21 8.62391 2233.37 8.62391C2231.15 8.62391 2229.89 9.60391 2229.89 11.2559H2227.6C2227.6 8.39991 2229.95 6.52391 2233.48 6.52391C2236.87 6.52391 2239.16 8.31591 2239.16 12.0119V20.6079H2236.92L2236.64 18.3959C2235.94 19.9639 2234.07 20.9439 2231.85 20.9439ZM2232.61 18.8999C2235.1 18.8999 2236.61 17.2759 2236.61 14.6999V13.9719L2233.11 14.2519C2230.79 14.4759 2229.84 15.3719 2229.84 16.7159C2229.84 18.1719 2230.9 18.8999 2232.61 18.8999ZM2241.91 13.7759C2241.91 9.49191 2244.63 6.52391 2248.63 6.52391C2252.07 6.52391 2254.48 8.48391 2254.96 11.5359H2252.33C2251.88 9.79991 2250.48 8.87591 2248.71 8.87591C2246.22 8.87591 2244.51 10.7799 2244.51 13.7479C2244.51 16.6879 2246.11 18.5919 2248.6 18.5919C2250.48 18.5919 2251.88 17.6119 2252.35 15.9879H2254.99C2254.45 18.9559 2251.91 20.9439 2248.6 20.9439C2244.57 20.9439 2241.91 18.0879 2241.91 13.7759ZM2263.67 20.9439C2259.64 20.9439 2256.87 18.0319 2256.87 13.7759C2256.87 9.49191 2259.58 6.52391 2263.56 6.52391C2267.45 6.52391 2270 9.21191 2270 13.2719V14.2519L2259.42 14.2799C2259.61 17.1639 2261.12 18.7599 2263.73 18.7599C2265.77 18.7599 2267.12 17.9199 2267.56 16.3519H2270.03C2269.36 19.2919 2267.06 20.9439 2263.67 20.9439ZM2263.56 8.73591C2261.26 8.73591 2259.81 10.1079 2259.47 12.5159H2267.37C2267.37 10.2479 2265.88 8.73591 2263.56 8.73591ZM2271.82 16.6319H2274.34C2274.34 18.0319 2275.4 18.8719 2277.14 18.8719C2278.99 18.8719 2280.05 18.1159 2280.05 16.8559C2280.05 15.9319 2279.6 15.3719 2278.18 15.0079L2275.77 14.4479C2273.33 13.8599 2272.18 12.6559 2272.18 10.6399C2272.18 8.11991 2274.31 6.52391 2277.34 6.52391C2280.33 6.52391 2282.29 8.20391 2282.35 10.8079H2279.83C2279.77 9.43591 2278.85 8.56791 2277.25 8.56791C2275.6 8.56791 2274.68 9.29591 2274.68 10.5559C2274.68 11.4799 2275.35 12.0959 2276.69 12.4319L2279.1 13.0199C2281.42 13.5799 2282.57 14.6439 2282.57 16.6879C2282.57 19.2919 2280.33 20.9439 2277.08 20.9439C2273.86 20.9439 2271.82 19.2359 2271.82 16.6319ZM2287.29 20.9439C2286.19 20.9439 2285.27 20.0479 2285.27 18.9839C2285.27 17.8919 2286.19 16.9959 2287.29 16.9959C2288.35 16.9959 2289.27 17.8919 2289.27 18.9839C2289.27 20.0479 2288.35 20.9439 2287.29 20.9439Z" fill="black"/>
</svg>
