<svg width="205" height="64" viewBox="0 0 205 64" fill="none" xmlns="http://www.w3.org/2000/svg">
<path d="M10.0483 47.3601H0.000266075V0.000106812H10.0483L24.1283 35.3281L38.2723 0.000106812H48.4483V47.3601H38.4003V37.4401C38.4003 27.2001 38.4003 24.9601 38.9123 21.4401L28.8643 47.3601H19.3923L9.40827 21.4401C9.98427 24.9601 10.0483 28.9281 10.0483 34.1121V47.3601ZM55.6888 31.2961C55.6888 21.1841 63.1128 14.4001 73.3528 14.4001C83.5288 14.4001 90.9528 21.1841 90.9528 31.2961C90.9528 41.4081 83.5288 48.1281 73.3528 48.1281C63.1128 48.1281 55.6888 41.4081 55.6888 31.2961ZM65.6088 31.2321C65.6088 36.0961 68.7448 39.2961 73.3528 39.2961C77.8968 39.2961 81.0328 36.0961 81.0328 31.2321C81.0328 26.4321 77.8968 23.2321 73.3528 23.2321C68.7448 23.2321 65.6088 26.4321 65.6088 31.2321ZM106.843 47.3601H96.9868V15.3601H106.267L106.907 18.6881C108.891 15.9361 112.539 14.3361 116.699 14.3361C124.315 14.3361 128.731 19.2001 128.731 27.5841V47.3601H118.875V29.9521C118.875 25.9201 116.635 23.2961 113.243 23.2961C109.339 23.2961 106.843 25.8561 106.843 29.8241V47.3601ZM150.967 48.1921C141.303 48.1921 134.391 41.1521 134.391 31.2961C134.391 21.3121 141.111 14.3361 150.775 14.3361C160.823 14.3361 167.095 20.9281 167.095 31.3601V33.8561L143.863 33.9841C144.439 38.2081 146.807 40.1921 151.159 40.1921C154.871 40.1921 157.495 38.8481 158.199 36.5441H167.223C166.071 43.6481 159.735 48.1921 150.967 48.1921ZM150.839 22.3361C146.935 22.3361 144.759 24.0641 143.991 27.9041H157.303C157.303 24.5121 154.807 22.3361 150.839 22.3361ZM169.442 62.7201V54.4641H174.882C178.21 54.4641 179.618 53.4401 180.898 49.9841L181.474 48.4481L168.61 15.3601H179.17L186.146 35.9041L193.89 15.3601H204.13L187.874 54.3361C185.186 60.8641 181.602 63.6161 175.97 63.6161C173.602 63.6161 171.362 63.2961 169.442 62.7201Z" fill="black"/>
</svg>
