<svg width="858" height="65" viewBox="0 0 858 65" fill="none" xmlns="http://www.w3.org/2000/svg">
<path d="M0.000703216 10.4961V0.896103H37.2487V10.4961H23.8087V48.2561H13.4407V10.4961H0.000703216ZM36.8177 63.6161V55.3601H42.2577C45.5857 55.3601 46.9937 54.3361 48.2737 50.8801L48.8497 49.3441L35.9857 16.2561H46.5457L53.5217 36.8001L61.2657 16.2561H71.5057L55.2497 55.2321C52.5617 61.7601 48.9777 64.5121 43.3457 64.5121C40.9777 64.5121 38.7377 64.1921 36.8177 63.6161ZM75.8852 63.6161V16.2561H85.1652L85.6772 20.1601C87.4692 17.2161 91.5012 15.2321 96.0452 15.2321C104.941 15.2321 111.149 21.4401 111.149 31.7441C111.149 41.8561 105.645 49.1521 96.1092 49.1521C91.6932 49.1521 87.5972 47.4881 85.7412 45.0561V63.6161H75.8852ZM85.8052 32.2561C85.8052 37.0561 89.0052 40.2561 93.6132 40.2561C98.2852 40.2561 101.229 36.9921 101.229 32.2561C101.229 27.5201 98.2852 24.2561 93.6132 24.2561C89.0052 24.2561 85.8052 27.4561 85.8052 32.2561ZM131.991 49.0881C122.327 49.0881 115.415 42.0481 115.415 32.1921C115.415 22.2081 122.135 15.2321 131.799 15.2321C141.847 15.2321 148.119 21.8241 148.119 32.2561V34.7521L124.887 34.8801C125.463 39.1041 127.831 41.0881 132.183 41.0881C135.895 41.0881 138.519 39.7441 139.223 37.4401H148.247C147.095 44.5441 140.759 49.0881 131.991 49.0881ZM131.863 23.2321C127.959 23.2321 125.783 24.9601 125.015 28.8001H138.327C138.327 25.4081 135.831 23.2321 131.863 23.2321ZM164.37 44.9921C164.37 51.1361 160.082 55.8721 154.066 56.5121V52.9921C157.266 52.4161 159.57 50.6881 159.762 48.0641C159.25 48.3201 158.61 48.4481 157.906 48.4481C154.898 48.4481 152.594 46.2081 152.594 43.3921C152.594 39.8721 154.77 37.5041 158.098 37.5041C161.81 37.5041 164.37 40.5761 164.37 44.9921ZM210.019 32.5121H201.187V48.2561H190.819V0.896103H210.019C219.683 0.896103 226.147 7.2321 226.147 16.7041C226.147 26.1761 219.683 32.5121 210.019 32.5121ZM207.715 10.1121H201.187V23.2961H207.715C212.707 23.2961 215.203 21.1201 215.203 16.7041C215.203 12.2881 212.707 10.1121 207.715 10.1121ZM240.212 49.0881C233.428 49.0881 229.204 45.1201 229.204 38.8481C229.204 32.9601 233.364 29.3121 241.044 28.7361L250.004 28.0321V27.5201C250.004 24.3841 248.084 22.7201 244.564 22.7201C240.404 22.7201 238.164 24.3201 238.164 27.2001H229.972C229.972 19.9681 235.924 15.2321 245.076 15.2321C254.356 15.2321 259.604 20.4161 259.604 29.5681V48.2561H250.9L250.26 44.0321C249.236 46.9761 245.012 49.0881 240.212 49.0881ZM243.668 41.7921C247.444 41.7921 250.068 39.9361 250.068 36.2881V34.5601L245.076 35.0081C240.788 35.3921 239.252 36.3521 239.252 38.4001C239.252 40.7041 240.66 41.7921 243.668 41.7921ZM289.009 16.2561V25.5361H285.873C280.241 25.5361 276.849 28.0321 276.849 34.3681V48.2561H266.993V16.3201H276.273L276.785 21.0561C278.129 17.9201 280.945 15.8081 285.233 15.8081C286.385 15.8081 287.665 15.9361 289.009 16.2561ZM302.727 49.0881C295.943 49.0881 291.719 45.1201 291.719 38.8481C291.719 32.9601 295.879 29.3121 303.559 28.7361L312.519 28.0321V27.5201C312.519 24.3841 310.599 22.7201 307.079 22.7201C302.919 22.7201 300.679 24.3201 300.679 27.2001H292.487C292.487 19.9681 298.439 15.2321 307.591 15.2321C316.871 15.2321 322.119 20.4161 322.119 29.5681V48.2561H313.415L312.775 44.0321C311.751 46.9761 307.527 49.0881 302.727 49.0881ZM306.183 41.7921C309.959 41.7921 312.583 39.9361 312.583 36.2881V34.5601L307.591 35.0081C303.303 35.3921 301.767 36.3521 301.767 38.4001C301.767 40.7041 303.175 41.7921 306.183 41.7921ZM327.908 31.6801C327.908 21.9521 334.244 15.1681 343.268 15.1681C347.62 15.1681 351.076 16.8321 352.804 19.4561L353.316 16.2561H362.596V46.2081C362.596 57.6641 356.004 64.5761 345.06 64.5761C335.268 64.5761 328.676 59.0081 327.78 49.9201H337.764C337.956 53.5041 340.644 55.6161 344.996 55.6161C349.732 55.6161 352.74 52.8001 352.74 48.2561V44.0961C350.82 46.4001 347.236 47.8721 343.076 47.8721C334.116 47.8721 327.908 41.2801 327.908 31.6801ZM337.828 31.4241C337.828 36.0321 340.9 39.2961 345.252 39.2961C349.732 39.2961 352.74 36.1601 352.74 31.4241C352.74 26.7521 349.732 23.7441 345.188 23.7441C340.836 23.7441 337.828 26.8801 337.828 31.4241ZM392.344 16.2561V25.5361H389.208C383.576 25.5361 380.184 28.0321 380.184 34.3681V48.2561H370.328V16.3201H379.608L380.12 21.0561C381.464 17.9201 384.28 15.8081 388.568 15.8081C389.72 15.8081 391 15.9361 392.344 16.2561ZM406.062 49.0881C399.278 49.0881 395.054 45.1201 395.054 38.8481C395.054 32.9601 399.214 29.3121 406.894 28.7361L415.854 28.0321V27.5201C415.854 24.3841 413.934 22.7201 410.414 22.7201C406.254 22.7201 404.014 24.3201 404.014 27.2001H395.822C395.822 19.9681 401.774 15.2321 410.926 15.2321C420.206 15.2321 425.454 20.4161 425.454 29.5681V48.2561H416.75L416.11 44.0321C415.086 46.9761 410.862 49.0881 406.062 49.0881ZM409.518 41.7921C413.294 41.7921 415.918 39.9361 415.918 36.2881V34.5601L410.926 35.0081C406.638 35.3921 405.102 36.3521 405.102 38.4001C405.102 40.7041 406.51 41.7921 409.518 41.7921ZM432.843 63.6161V16.2561H442.123L442.635 20.1601C444.427 17.2161 448.459 15.2321 453.003 15.2321C461.899 15.2321 468.107 21.4401 468.107 31.7441C468.107 41.8561 462.603 49.1521 453.067 49.1521C448.651 49.1521 444.555 47.4881 442.699 45.0561V63.6161H432.843ZM442.763 32.2561C442.763 37.0561 445.963 40.2561 450.571 40.2561C455.243 40.2561 458.187 36.9921 458.187 32.2561C458.187 27.5201 455.243 24.2561 450.571 24.2561C445.963 24.2561 442.763 27.4561 442.763 32.2561ZM483.956 48.2561H474.1V0.000102997H484.02V19.5841C486.004 16.8321 489.652 15.2321 493.812 15.2321C501.428 15.2321 505.844 20.0961 505.844 28.4801V48.2561H495.988V30.8481C495.988 26.8161 493.748 24.1921 490.356 24.1921C486.452 24.1921 483.956 26.7521 483.956 30.7201V48.2561ZM525.265 44.9921C525.265 51.1361 520.977 55.8721 514.961 56.5121V52.9921C518.161 52.4161 520.465 50.6881 520.657 48.0641C520.145 48.3201 519.505 48.4481 518.801 48.4481C515.793 48.4481 513.489 46.2081 513.489 43.3921C513.489 39.8721 515.665 37.5041 518.993 37.5041C522.705 37.5041 525.265 40.5761 525.265 44.9921ZM572.194 49.0241C557.986 49.0241 549.09 39.6161 549.09 24.6401C549.09 9.8561 558.498 0.128101 572.642 0.128101C584.482 0.128101 592.994 6.9121 594.466 17.5361H583.522C582.114 12.8001 578.082 10.1121 572.386 10.1121C564.706 10.1121 560.034 15.5521 560.034 24.5761C560.034 33.4721 564.77 39.0401 572.386 39.0401C578.21 39.0401 582.498 36.1601 583.778 31.4881H594.53C592.866 42.0481 584.034 49.0241 572.194 49.0241ZM610.111 48.2561H600.255V0.000102997H610.175V19.5841C612.159 16.8321 615.807 15.2321 619.967 15.2321C627.583 15.2321 631.999 20.0961 631.999 28.4801V48.2561H622.143V30.8481C622.143 26.8161 619.903 24.1921 616.511 24.1921C612.607 24.1921 610.111 26.7521 610.111 30.7201V48.2561ZM649.052 49.0881C642.268 49.0881 638.044 45.1201 638.044 38.8481C638.044 32.9601 642.204 29.3121 649.884 28.7361L658.844 28.0321V27.5201C658.844 24.3841 656.924 22.7201 653.404 22.7201C649.244 22.7201 647.004 24.3201 647.004 27.2001H638.812C638.812 19.9681 644.764 15.2321 653.916 15.2321C663.196 15.2321 668.444 20.4161 668.444 29.5681V48.2561H659.74L659.1 44.0321C658.076 46.9761 653.852 49.0881 649.052 49.0881ZM652.508 41.7921C656.284 41.7921 658.908 39.9361 658.908 36.2881V34.5601L653.916 35.0081C649.628 35.3921 648.092 36.3521 648.092 38.4001C648.092 40.7041 649.5 41.7921 652.508 41.7921ZM697.849 16.2561V25.5361H694.713C689.081 25.5361 685.689 28.0321 685.689 34.3681V48.2561H675.833V16.3201H685.113L685.625 21.0561C686.969 17.9201 689.785 15.8081 694.073 15.8081C695.225 15.8081 696.505 15.9361 697.849 16.2561ZM711.567 49.0881C704.783 49.0881 700.559 45.1201 700.559 38.8481C700.559 32.9601 704.719 29.3121 712.399 28.7361L721.359 28.0321V27.5201C721.359 24.3841 719.439 22.7201 715.919 22.7201C711.759 22.7201 709.519 24.3201 709.519 27.2001H701.327C701.327 19.9681 707.279 15.2321 716.431 15.2321C725.711 15.2321 730.959 20.4161 730.959 29.5681V48.2561H722.255L721.615 44.0321C720.591 46.9761 716.367 49.0881 711.567 49.0881ZM715.023 41.7921C718.799 41.7921 721.423 39.9361 721.423 36.2881V34.5601L716.431 35.0081C712.143 35.3921 710.607 36.3521 710.607 38.4001C710.607 40.7041 712.015 41.7921 715.023 41.7921ZM736.62 32.1281C736.62 22.2721 743.404 15.2321 753.004 15.2321C762.476 15.2321 768.748 20.4161 769.388 28.8001H759.468C758.764 25.6001 756.78 24.0641 753.388 24.0641C749.228 24.0641 746.54 27.2001 746.54 32.1281C746.54 37.2481 749.036 40.2561 753.26 40.2561C756.716 40.2561 758.828 38.6561 759.468 35.5201H769.388C768.748 43.5841 762.22 49.0881 753.26 49.0881C743.148 49.0881 736.62 42.3681 736.62 32.1281ZM788.033 48.2561H778.177V24.4481H772.097V16.2561H778.177V6.3361H788.033V16.2561H794.113V24.4481H788.033V48.2561ZM813.398 49.0881C803.734 49.0881 796.822 42.0481 796.822 32.1921C796.822 22.2081 803.542 15.2321 813.206 15.2321C823.254 15.2321 829.526 21.8241 829.526 32.2561V34.7521L806.294 34.8801C806.87 39.1041 809.238 41.0881 813.59 41.0881C817.302 41.0881 819.926 39.7441 820.63 37.4401H829.654C828.502 44.5441 822.166 49.0881 813.398 49.0881ZM813.27 23.2321C809.366 23.2321 807.19 24.9601 806.422 28.8001H819.734C819.734 25.4081 817.238 23.2321 813.27 23.2321ZM857.699 16.2561V25.5361H854.563C848.931 25.5361 845.539 28.0321 845.539 34.3681V48.2561H835.683V16.3201H844.963L845.475 21.0561C846.819 17.9201 849.635 15.8081 853.923 15.8081C855.075 15.8081 856.355 15.9361 857.699 16.2561Z" fill="black"/>
</svg>
