<svg width="169" height="49" viewBox="0 0 169 49" fill="none" xmlns="http://www.w3.org/2000/svg">
<path d="M-0.000398159 29.5681V0.000106812H10.3676V28.8641C10.3676 34.8161 13.6316 38.0801 19.4556 38.0801C25.3436 38.0801 28.6716 34.6881 28.6716 28.8641V0.000106812H39.0396V29.5681C39.0396 40.8321 31.3596 48.1281 19.4556 48.1281C7.6156 48.1281 -0.000398159 40.8961 -0.000398159 29.5681ZM44.7446 37.2481H54.0886C54.2166 39.4881 55.8806 40.8321 58.8886 40.8321C61.9606 40.8321 63.3686 39.7441 63.3686 38.0801C63.3686 37.1201 62.8566 36.0961 60.4886 35.5841L54.6006 34.3041C48.7126 33.0241 45.8326 30.4641 45.8326 24.8321C45.8326 18.1761 51.5286 14.3361 59.2086 14.3361C66.6326 14.3361 71.8166 18.6881 71.8166 25.1521H62.4726C62.4726 22.9761 61.1286 21.5041 58.7606 21.5041C56.5206 21.5041 55.1126 22.6561 55.1126 24.3841C55.1126 25.8561 56.3286 26.6881 58.5686 27.2001L64.5206 28.4801C69.7686 29.6321 72.6486 32.0641 72.6486 37.1841C72.6486 44.0321 66.8246 48.1921 58.5046 48.1921C50.0566 48.1921 44.7446 43.7121 44.7446 37.2481ZM92.9666 48.1921C83.3026 48.1921 76.3906 41.1521 76.3906 31.2961C76.3906 21.3121 83.1106 14.3361 92.7746 14.3361C102.823 14.3361 109.095 20.9281 109.095 31.3601V33.8561L85.8626 33.9841C86.4386 38.2081 88.8066 40.1921 93.1586 40.1921C96.8706 40.1921 99.4946 38.8481 100.199 36.5441H109.223C108.071 43.6481 101.735 48.1921 92.9666 48.1921ZM92.8386 22.3361C88.9346 22.3361 86.7586 24.0641 85.9906 27.9041H99.3026C99.3026 24.5121 96.8066 22.3361 92.8386 22.3361ZM137.267 15.3601V24.6401H134.131C128.499 24.6401 125.107 27.1361 125.107 33.4721V47.3601H115.251V15.4241H124.531L125.043 20.1601C126.387 17.0241 129.203 14.9121 133.491 14.9121C134.643 14.9121 135.923 15.0401 137.267 15.3601ZM140.267 37.2481H149.611C149.739 39.4881 151.403 40.8321 154.411 40.8321C157.483 40.8321 158.891 39.7441 158.891 38.0801C158.891 37.1201 158.379 36.0961 156.011 35.5841L150.123 34.3041C144.235 33.0241 141.355 30.4641 141.355 24.8321C141.355 18.1761 147.051 14.3361 154.731 14.3361C162.155 14.3361 167.339 18.6881 167.339 25.1521H157.995C157.995 22.9761 156.651 21.5041 154.283 21.5041C152.043 21.5041 150.635 22.6561 150.635 24.3841C150.635 25.8561 151.851 26.6881 154.091 27.2001L160.043 28.4801C165.291 29.6321 168.171 32.0641 168.171 37.1841C168.171 44.0321 162.347 48.1921 154.027 48.1921C145.579 48.1921 140.267 43.7121 140.267 37.2481Z" fill="black"/>
</svg>
