<svg width="738" height="47" viewBox="0 0 738 47" fill="none" xmlns="http://www.w3.org/2000/svg">
<path d="M5.10216e-05 22.896V0.623975H6.14405V22.512C6.14405 27.552 8.88005 30.336 13.8721 30.336C18.8641 30.336 21.6481 27.504 21.6481 22.512V0.623975H27.7921V22.896C27.7921 31.104 22.4161 36.288 13.8721 36.288C5.37605 36.288 5.10216e-05 31.152 5.10216e-05 22.896ZM38.6134 35.712H31.9414L40.1014 24.096L31.9414 12H38.7574L43.9894 20.064L49.0294 12H55.6054L47.5414 24L55.3654 35.712H48.6454L43.6054 27.888L38.6134 35.712ZM57.9428 10.416C57.9428 4.27197 63.0308 -2.57492e-05 70.4228 -2.57492e-05C77.5268 -2.57492e-05 82.0388 3.93597 82.2308 10.272H76.0868C75.9428 7.24797 73.7828 5.47197 70.3268 5.47197C66.5348 5.47197 64.0868 7.29597 64.0868 10.224C64.0868 12.72 65.4308 14.112 68.3588 14.784L73.8788 15.984C79.8788 17.28 82.8068 20.352 82.8068 25.584C82.8068 32.112 77.7188 36.336 69.9908 36.336C62.5028 36.336 57.6068 32.352 57.4628 26.064H63.6068C63.6548 29.04 66.0548 30.816 69.9908 30.816C74.0708 30.816 76.6628 29.04 76.6628 26.112C76.6628 23.76 75.4628 22.368 72.5828 21.744L67.0148 20.496C61.0628 19.2 57.9428 15.792 57.9428 10.416ZM86.1091 23.808C86.1091 16.464 90.9571 11.28 97.9651 11.28C104.445 11.28 108.861 14.88 109.485 20.592H103.629C102.957 17.904 100.989 16.512 98.2051 16.512C94.4611 16.512 91.9651 19.344 91.9651 23.808C91.9651 28.272 94.2691 31.056 98.0131 31.056C100.941 31.056 103.005 29.616 103.629 27.024H109.533C108.813 32.544 104.205 36.336 98.0131 36.336C90.8131 36.336 86.1091 31.344 86.1091 23.808ZM129.972 12H135.828V35.712H130.404L129.972 32.544C128.532 34.8 125.46 36.336 122.292 36.336C116.82 36.336 113.604 32.64 113.604 26.832V12H119.46V24.768C119.46 29.28 121.236 31.104 124.5 31.104C128.196 31.104 129.972 28.944 129.972 24.432V12ZM147.78 35.712H141.972V-2.57492e-05H147.78V35.712ZM153.923 46.704V12H159.347L159.731 15.6C161.171 12.864 164.291 11.28 167.891 11.28C174.563 11.28 178.979 16.128 178.979 23.568C178.979 30.96 174.947 36.336 167.891 36.336C164.339 36.336 161.267 34.944 159.779 32.544V46.704H153.923ZM159.827 23.856C159.827 28.128 162.467 31.056 166.499 31.056C170.627 31.056 173.075 28.08 173.075 23.856C173.075 19.632 170.627 16.608 166.499 16.608C162.467 16.608 159.827 19.584 159.827 23.856ZM191.471 35.712H185.615V16.896H181.055V12H185.615V4.60798H191.471V12H196.079V16.896H191.471V35.712ZM213.281 22.896V0.623975H219.425V22.512C219.425 27.552 222.161 30.336 227.153 30.336C232.145 30.336 234.929 27.504 234.929 22.512V0.623975H241.073V22.896C241.073 31.104 235.697 36.288 227.153 36.288C218.657 36.288 213.281 31.152 213.281 22.896ZM254.775 0.623975V35.712H248.631V0.623975H254.775ZM281.634 0.623975V35.712H275.49V0.623975H281.634ZM287.156 23.808C287.156 16.464 292.004 11.28 299.012 11.28C305.492 11.28 309.908 14.88 310.532 20.592H304.676C304.004 17.904 302.036 16.512 299.252 16.512C295.508 16.512 293.012 19.344 293.012 23.808C293.012 28.272 295.316 31.056 299.06 31.056C301.988 31.056 304.052 29.616 304.676 27.024H310.58C309.86 32.544 305.252 36.336 299.06 36.336C291.86 36.336 287.156 31.344 287.156 23.808ZM313.547 23.808C313.547 16.416 318.875 11.328 326.219 11.328C333.563 11.328 338.891 16.416 338.891 23.808C338.891 31.2 333.563 36.288 326.219 36.288C318.875 36.288 313.547 31.2 313.547 23.808ZM319.403 23.808C319.403 28.128 322.187 31.056 326.219 31.056C330.251 31.056 333.035 28.128 333.035 23.808C333.035 19.488 330.251 16.56 326.219 16.56C322.187 16.56 319.403 19.488 319.403 23.808ZM349.388 35.712H343.532V12H348.956L349.436 15.072C350.924 12.672 353.804 11.28 357.02 11.28C362.972 11.28 366.044 14.976 366.044 21.12V35.712H360.188V22.512C360.188 18.528 358.22 16.608 355.196 16.608C351.596 16.608 349.388 19.104 349.388 22.944V35.712ZM369.693 28.512H375.261C375.309 30.576 376.845 31.872 379.533 31.872C382.269 31.872 383.757 30.768 383.757 29.04C383.757 27.84 383.133 26.976 381.021 26.496L376.749 25.488C372.477 24.528 370.413 22.512 370.413 18.72C370.413 14.064 374.349 11.28 379.821 11.28C385.149 11.28 388.749 14.352 388.797 18.96H383.229C383.181 16.944 381.837 15.648 379.581 15.648C377.277 15.648 375.933 16.704 375.933 18.48C375.933 19.824 376.989 20.688 379.005 21.168L383.277 22.176C387.261 23.088 389.277 24.912 389.277 28.56C389.277 33.36 385.197 36.336 379.341 36.336C373.437 36.336 369.693 33.168 369.693 28.512ZM406.961 25.536V20.352H458.513V25.536H406.961ZM497.799 21.36H484.743V35.712H478.599V0.623975H500.295V6.28797H484.743V15.84H497.799V21.36ZM518.397 11.904V17.328H516.237C512.013 17.328 509.373 19.584 509.373 24.192V35.712H503.517V12.048H509.037L509.373 15.504C510.381 13.152 512.637 11.568 515.805 11.568C516.621 11.568 517.437 11.664 518.397 11.904ZM532.172 36.336C525.116 36.336 520.172 31.2 520.172 23.856C520.172 16.416 525.02 11.28 531.98 11.28C539.084 11.28 543.596 16.032 543.596 23.424V25.2L525.74 25.248C526.172 29.424 528.38 31.536 532.268 31.536C535.484 31.536 537.596 30.288 538.268 28.032H543.692C542.684 33.216 538.364 36.336 532.172 36.336ZM532.028 16.08C528.572 16.08 526.46 17.952 525.884 21.504H537.788C537.788 18.24 535.532 16.08 532.028 16.08ZM558.89 36.336C551.834 36.336 546.89 31.2 546.89 23.856C546.89 16.416 551.738 11.28 558.698 11.28C565.802 11.28 570.314 16.032 570.314 23.424V25.2L552.458 25.248C552.89 29.424 555.098 31.536 558.986 31.536C562.202 31.536 564.314 30.288 564.986 28.032H570.41C569.402 33.216 565.082 36.336 558.89 36.336ZM558.746 16.08C555.29 16.08 553.178 17.952 552.602 21.504H564.506C564.506 18.24 562.25 16.08 558.746 16.08ZM610.595 35.712H588.803V0.623975H610.595V6.28797H594.947V15.312H608.963V20.736H594.947V30.048H610.595V35.712ZM626.136 36.336C619.272 36.336 615 31.296 615 23.952C615 16.56 619.32 11.28 626.472 11.28C629.784 11.28 632.712 12.672 634.2 15.024V-2.57492e-05H640.008V35.712H634.632L634.248 32.016C632.808 34.752 629.736 36.336 626.136 36.336ZM627.432 30.96C631.512 30.96 634.152 28.032 634.152 23.76C634.152 19.488 631.512 16.512 627.432 16.512C623.352 16.512 620.856 19.536 620.856 23.76C620.856 27.984 623.352 30.96 627.432 30.96ZM649.038 7.24797C647.022 7.24797 645.438 5.66397 645.438 3.69597C645.438 1.72797 647.022 0.191975 649.038 0.191975C650.958 0.191975 652.542 1.72797 652.542 3.69597C652.542 5.66397 650.958 7.24797 649.038 7.24797ZM646.11 35.712V12H651.966V35.712H646.11ZM666.081 35.712H660.225V16.896H655.665V12H660.225V4.60798H666.081V12H670.689V16.896H666.081V35.712ZM677.257 7.24797C675.241 7.24797 673.657 5.66397 673.657 3.69597C673.657 1.72797 675.241 0.191975 677.257 0.191975C679.177 0.191975 680.761 1.72797 680.761 3.69597C680.761 5.66397 679.177 7.24797 677.257 7.24797ZM674.329 35.712V12H680.185V35.712H674.329ZM684.843 23.808C684.843 16.416 690.171 11.328 697.515 11.328C704.859 11.328 710.187 16.416 710.187 23.808C710.187 31.2 704.859 36.288 697.515 36.288C690.171 36.288 684.843 31.2 684.843 23.808ZM690.699 23.808C690.699 28.128 693.483 31.056 697.515 31.056C701.547 31.056 704.331 28.128 704.331 23.808C704.331 19.488 701.547 16.56 697.515 16.56C693.483 16.56 690.699 19.488 690.699 23.808ZM720.685 35.712H714.829V12H720.253L720.733 15.072C722.221 12.672 725.101 11.28 728.317 11.28C734.269 11.28 737.341 14.976 737.341 21.12V35.712H731.485V22.512C731.485 18.528 729.517 16.608 726.493 16.608C722.893 16.608 720.685 19.104 720.685 22.944V35.712Z" fill="black"/>
</svg>
