<svg width="281" height="36" viewBox="0 0 281 36" fill="none" xmlns="http://www.w3.org/2000/svg">
<path d="M-0.000327945 17.1719V0.467935H4.60767V16.8839C4.60767 20.6639 6.65967 22.7519 10.4037 22.7519C14.1477 22.7519 16.2357 20.6279 16.2357 16.8839V0.467935H20.8437V17.1719C20.8437 23.3279 16.8117 27.2159 10.4037 27.2159C4.03167 27.2159 -0.000327945 23.3639 -0.000327945 17.1719ZM28.9597 26.7839H23.9557L30.0757 18.0719L23.9557 8.99993H29.0677L32.9917 15.0479L36.7717 8.99993H41.7037L35.6557 17.9999L41.5237 26.7839H36.4837L32.7037 20.9159L28.9597 26.7839ZM43.4567 7.81194C43.4567 3.20393 47.2727 -6.50883e-05 52.8167 -6.50883e-05C58.1447 -6.50883e-05 61.5287 2.95193 61.6727 7.70393H57.0647C56.9567 5.43593 55.3367 4.10393 52.7447 4.10393C49.9007 4.10393 48.0647 5.47194 48.0647 7.66793C48.0647 9.53993 49.0727 10.5839 51.2687 11.0879L55.4087 11.9879C59.9087 12.9599 62.1047 15.2639 62.1047 19.1879C62.1047 24.0839 58.2887 27.2519 52.4927 27.2519C46.8767 27.2519 43.2047 24.2639 43.0967 19.5479H47.7047C47.7407 21.7799 49.5407 23.1119 52.4927 23.1119C55.5527 23.1119 57.4967 21.7799 57.4967 19.5839C57.4967 17.8199 56.5967 16.7759 54.4367 16.3079L50.2607 15.3719C45.7967 14.3999 43.4567 11.8439 43.4567 7.81194ZM64.5814 17.8559C64.5814 12.3479 68.2174 8.45994 73.4734 8.45994C78.3334 8.45994 81.6454 11.1599 82.1134 15.4439H77.7214C77.2174 13.4279 75.7414 12.3839 73.6534 12.3839C70.8454 12.3839 68.9734 14.5079 68.9734 17.8559C68.9734 21.2039 70.7014 23.2919 73.5094 23.2919C75.7054 23.2919 77.2534 22.2119 77.7214 20.2679H82.1494C81.6094 24.4079 78.1534 27.2519 73.5094 27.2519C68.1094 27.2519 64.5814 23.5079 64.5814 17.8559ZM97.4784 8.99993H101.87V26.7839H97.8024L97.4784 24.4079C96.3984 26.0999 94.0944 27.2519 91.7184 27.2519C87.6144 27.2519 85.2024 24.4799 85.2024 20.1239V8.99993H89.5944V18.5759C89.5944 21.9599 90.9264 23.3279 93.3744 23.3279C96.1464 23.3279 97.4784 21.7079 97.4784 18.3239V8.99993ZM110.835 26.7839H106.479V-6.50883e-05H110.835V26.7839ZM115.442 35.0279V8.99993H119.51L119.798 11.6999C120.878 9.64794 123.218 8.45994 125.918 8.45994C130.922 8.45994 134.234 12.0959 134.234 17.6759C134.234 23.2199 131.21 27.2519 125.918 27.2519C123.254 27.2519 120.95 26.2079 119.834 24.4079V35.0279H115.442ZM119.87 17.8919C119.87 21.0959 121.85 23.2919 124.874 23.2919C127.97 23.2919 129.806 21.0599 129.806 17.8919C129.806 14.7239 127.97 12.4559 124.874 12.4559C121.85 12.4559 119.87 14.6879 119.87 17.8919ZM143.603 26.7839H139.211V12.6719H135.791V8.99993H139.211V3.45594H143.603V8.99993H147.059V12.6719H143.603V26.7839ZM174.541 16.0199H164.749V26.7839H160.141V0.467935H176.413V4.71593H164.749V11.8799H174.541V16.0199ZM189.989 8.92793V12.9959H188.369C185.201 12.9959 183.221 14.6879 183.221 18.1439V26.7839H178.829V9.03593H182.969L183.221 11.6279C183.977 9.86393 185.669 8.67593 188.045 8.67593C188.657 8.67593 189.269 8.74793 189.989 8.92793ZM200.32 27.2519C195.028 27.2519 191.32 23.3999 191.32 17.8919C191.32 12.3119 194.956 8.45994 200.176 8.45994C205.504 8.45994 208.888 12.0239 208.888 17.5679V18.8999L195.496 18.9359C195.82 22.0679 197.476 23.6519 200.392 23.6519C202.804 23.6519 204.388 22.7159 204.892 21.0239H208.96C208.204 24.9119 204.964 27.2519 200.32 27.2519ZM200.212 12.0599C197.62 12.0599 196.036 13.4639 195.604 16.1279H204.532C204.532 13.6799 202.84 12.0599 200.212 12.0599ZM220.359 27.2519C215.067 27.2519 211.359 23.3999 211.359 17.8919C211.359 12.3119 214.995 8.45994 220.215 8.45994C225.543 8.45994 228.927 12.0239 228.927 17.5679V18.8999L215.535 18.9359C215.859 22.0679 217.515 23.6519 220.431 23.6519C222.843 23.6519 224.427 22.7159 224.931 21.0239H228.999C228.243 24.9119 225.003 27.2519 220.359 27.2519ZM220.251 12.0599C217.659 12.0599 216.075 13.4639 215.643 16.1279H224.571C224.571 13.6799 222.879 12.0599 220.251 12.0599ZM236.51 26.7839H232.442V-6.50883e-05H236.834V11.5919C237.986 9.61193 240.362 8.42393 243.062 8.42393C248.138 8.42393 251.234 12.3839 251.234 17.9999C251.234 23.4719 247.886 27.2519 242.774 27.2519C240.11 27.2519 237.842 26.0639 236.798 24.0119L236.51 26.7839ZM236.87 17.8199C236.87 21.0239 238.85 23.2199 241.874 23.2199C244.97 23.2199 246.806 20.9879 246.806 17.8199C246.806 14.6519 244.97 12.3839 241.874 12.3839C238.85 12.3839 236.87 14.6159 236.87 17.8199ZM256.927 5.43593C255.415 5.43593 254.227 4.24793 254.227 2.77193C254.227 1.29594 255.415 0.143935 256.927 0.143935C258.367 0.143935 259.555 1.29594 259.555 2.77193C259.555 4.24793 258.367 5.43593 256.927 5.43593ZM254.731 26.7839V8.99993H259.123V26.7839H254.731ZM271.617 27.2519C266.325 27.2519 262.617 23.3999 262.617 17.8919C262.617 12.3119 266.253 8.45994 271.473 8.45994C276.801 8.45994 280.185 12.0239 280.185 17.5679V18.8999L266.793 18.9359C267.117 22.0679 268.773 23.6519 271.689 23.6519C274.101 23.6519 275.685 22.7159 276.189 21.0239H280.257C279.501 24.9119 276.261 27.2519 271.617 27.2519ZM271.509 12.0599C268.917 12.0599 267.333 13.4639 266.901 16.1279H275.829C275.829 13.6799 274.137 12.0599 271.509 12.0599Z" fill="black"/>
</svg>
