<svg width="244" height="28" viewBox="0 0 244 28" fill="none" xmlns="http://www.w3.org/2000/svg">
<path d="M9.93663 26.6399L0.000625025 0.323892H4.89663L10.6566 15.4799C11.2326 17.0639 11.7366 18.6119 12.3126 20.7359C12.9606 18.4319 13.5006 16.8119 14.0046 15.4799L19.6926 0.323892H24.4806L14.6886 26.6399H9.93663ZM29.5642 27.1079C25.7842 27.1079 23.4802 24.9119 23.4802 21.5639C23.4802 18.2879 25.8562 16.2359 30.0682 15.9119L35.3962 15.5159V15.1199C35.3962 12.7079 33.9562 11.7359 31.7242 11.7359C29.1322 11.7359 27.6922 12.8159 27.6922 14.6879H23.9482C23.9482 10.8359 27.1162 8.31589 31.9402 8.31589C36.7282 8.31589 39.6802 10.9079 39.6802 15.8399V26.6399H35.8282L35.5042 24.0119C34.7482 25.8479 32.3362 27.1079 29.5642 27.1079ZM31.0042 23.7959C33.7042 23.7959 35.4322 22.1759 35.4322 19.4399V18.5039L31.7242 18.7919C28.9882 19.0439 27.9442 19.9439 27.9442 21.3839C27.9442 23.0039 29.0242 23.7959 31.0042 23.7959ZM55.3349 8.78389V12.8519H53.7149C50.5469 12.8519 48.5669 14.5439 48.5669 17.9999V26.6399H44.1749V8.89189H48.3149L48.5669 11.4839C49.3229 9.71989 51.0149 8.53189 53.3909 8.53189C54.0029 8.53189 54.6149 8.60389 55.3349 8.78389ZM60.6837 5.29189C59.1717 5.29189 57.9837 4.10389 57.9837 2.62789C57.9837 1.15189 59.1717 -0.000107765 60.6837 -0.000107765C62.1237 -0.000107765 63.3117 1.15189 63.3117 2.62789C63.3117 4.10389 62.1237 5.29189 60.6837 5.29189ZM58.4877 26.6399V8.85589H62.8797V26.6399H58.4877ZM72.8894 27.1079C69.1094 27.1079 66.8054 24.9119 66.8054 21.5639C66.8054 18.2879 69.1814 16.2359 73.3934 15.9119L78.7214 15.5159V15.1199C78.7214 12.7079 77.2814 11.7359 75.0494 11.7359C72.4574 11.7359 71.0174 12.8159 71.0174 14.6879H67.2734C67.2734 10.8359 70.4414 8.31589 75.2654 8.31589C80.0534 8.31589 83.0054 10.9079 83.0054 15.8399V26.6399H79.1534L78.8294 24.0119C78.0734 25.8479 75.6614 27.1079 72.8894 27.1079ZM74.3294 23.7959C77.0294 23.7959 78.7574 22.1759 78.7574 19.4399V18.5039L75.0494 18.7919C72.3134 19.0439 71.2694 19.9439 71.2694 21.3839C71.2694 23.0039 72.3494 23.7959 74.3294 23.7959ZM91.892 26.6399H87.5V8.85589H91.568L91.928 11.1599C93.044 9.35989 95.204 8.31589 97.616 8.31589C102.08 8.31589 104.384 11.0879 104.384 15.6959V26.6399H99.992V16.7399C99.992 13.7519 98.516 12.3119 96.248 12.3119C93.548 12.3119 91.892 14.1839 91.892 17.0639V26.6399ZM114.927 26.6399H110.535V12.5279H107.115V8.85589H110.535V3.31189H114.927V8.85589H118.383V12.5279H114.927V26.6399ZM124.606 13.9679C123.022 13.9679 121.69 12.6719 121.69 11.1239C121.69 9.53989 123.022 8.24389 124.606 8.24389C126.19 8.24389 127.522 9.53989 127.522 11.1239C127.522 12.6719 126.19 13.9679 124.606 13.9679ZM124.606 27.0719C123.022 27.0719 121.69 25.7759 121.69 24.2279C121.69 22.6439 123.022 21.3479 124.606 21.3479C126.19 21.3479 127.522 22.6439 127.522 24.2279C127.522 25.7759 126.19 27.0719 124.606 27.0719ZM147.792 0.323892V22.3919H158.808V26.6399H143.184V0.323892H147.792ZM164.284 5.29189C162.772 5.29189 161.584 4.10389 161.584 2.62789C161.584 1.15189 162.772 -0.000107765 164.284 -0.000107765C165.724 -0.000107765 166.912 1.15189 166.912 2.62789C166.912 4.10389 165.724 5.29189 164.284 5.29189ZM162.088 26.6399V8.85589H166.48V26.6399H162.088ZM175.589 26.6399H171.197V8.85589H175.265L175.625 11.1599C176.741 9.35989 178.901 8.31589 181.313 8.31589C185.777 8.31589 188.081 11.0879 188.081 15.6959V26.6399H183.689V16.7399C183.689 13.7519 182.213 12.3119 179.945 12.3119C177.245 12.3119 175.589 14.1839 175.589 17.0639V26.6399ZM200.532 27.1079C195.24 27.1079 191.532 23.2559 191.532 17.7479C191.532 12.1679 195.168 8.31589 200.388 8.31589C205.716 8.31589 209.1 11.8799 209.1 17.4239V18.7559L195.708 18.7919C196.032 21.9239 197.688 23.5079 200.604 23.5079C203.016 23.5079 204.6 22.5719 205.104 20.8799H209.172C208.416 24.7679 205.176 27.1079 200.532 27.1079ZM200.424 11.9159C197.832 11.9159 196.248 13.3199 195.816 15.9839H204.744C204.744 13.5359 203.052 11.9159 200.424 11.9159ZM217.912 27.1079C214.132 27.1079 211.828 24.9119 211.828 21.5639C211.828 18.2879 214.204 16.2359 218.416 15.9119L223.744 15.5159V15.1199C223.744 12.7079 222.304 11.7359 220.072 11.7359C217.48 11.7359 216.04 12.8159 216.04 14.6879H212.296C212.296 10.8359 215.464 8.31589 220.288 8.31589C225.076 8.31589 228.028 10.9079 228.028 15.8399V26.6399H224.176L223.852 24.0119C223.096 25.8479 220.684 27.1079 217.912 27.1079ZM219.352 23.7959C222.052 23.7959 223.78 22.1759 223.78 19.4399V18.5039L220.072 18.7919C217.336 19.0439 216.292 19.9439 216.292 21.3839C216.292 23.0039 217.372 23.7959 219.352 23.7959ZM243.682 8.78389V12.8519H242.062C238.894 12.8519 236.914 14.5439 236.914 17.9999V26.6399H232.522V8.89189H236.662L236.914 11.4839C237.67 9.71989 239.362 8.53189 241.738 8.53189C242.35 8.53189 242.962 8.60389 243.682 8.78389Z" fill="black"/>
</svg>
