<svg width="492" height="188" viewBox="0 0 492 188" fill="none" xmlns="http://www.w3.org/2000/svg">
<rect width="492" height="188" rx="10" fill="black"/>
<path d="M51.7485 52H49.5961L55.8215 35.0455H57.9409L64.1663 52H62.0139L56.9474 37.7277H56.815L51.7485 52ZM52.5432 45.3771H61.2192V47.1984H52.5432V45.3771ZM66.5423 52V39.2841H68.4298V41.2047H68.5623C68.7941 40.5756 69.2135 40.0651 69.8206 39.6732C70.4277 39.2814 71.1121 39.0854 71.8737 39.0854C72.0172 39.0854 72.1966 39.0882 72.4118 39.0937C72.627 39.0992 72.7899 39.1075 72.9002 39.1185V41.1054C72.834 41.0888 72.6822 41.064 72.4449 41.0309C72.2131 40.9923 71.9675 40.9729 71.7081 40.9729C71.09 40.9729 70.5381 41.1026 70.0524 41.362C69.5723 41.6159 69.1914 41.9691 68.91 42.4217C68.634 42.8687 68.496 43.3792 68.496 43.9532V52H66.5423ZM81.5431 39.2841V40.9398H74.9533V39.2841H81.5431ZM76.874 36.2376H78.8277V48.3574C78.8277 48.9093 78.9077 49.3233 79.0678 49.5992C79.2334 49.8696 79.4431 50.0518 79.697 50.1456C79.9563 50.2339 80.2295 50.2781 80.5165 50.2781C80.7318 50.2781 80.9084 50.267 81.0464 50.2449C81.1843 50.2173 81.2947 50.1953 81.3775 50.1787L81.7749 51.9338C81.6424 51.9834 81.4575 52.0331 81.2202 52.0828C80.9829 52.138 80.6821 52.1656 80.3178 52.1656C79.7659 52.1656 79.2251 52.0469 78.6952 51.8096C78.1709 51.5723 77.7349 51.2108 77.3872 50.7251C77.045 50.2394 76.874 49.6268 76.874 48.8873V36.2376ZM84.482 52V39.2841H86.4357V52H84.482ZM85.4754 37.1648C85.0946 37.1648 84.7662 37.0351 84.4902 36.7757C84.2198 36.5163 84.0846 36.2045 84.0846 35.8402C84.0846 35.476 84.2198 35.1641 84.4902 34.9047C84.7662 34.6453 85.0946 34.5157 85.4754 34.5157C85.8562 34.5157 86.1818 34.6453 86.4523 34.9047C86.7282 35.1641 86.8662 35.476 86.8662 35.8402C86.8662 36.2045 86.7282 36.5163 86.4523 36.7757C86.1818 37.0351 85.8562 37.1648 85.4754 37.1648ZM95.6767 39.2841V40.9398H88.822V39.2841H95.6767ZM90.8751 52V37.5291C90.8751 36.8005 91.0462 36.1934 91.3884 35.7078C91.7305 35.2221 92.1748 34.8578 92.7212 34.615C93.2676 34.3722 93.8443 34.2507 94.4514 34.2507C94.9316 34.2507 95.3234 34.2894 95.627 34.3666C95.9305 34.4439 96.1568 34.5157 96.3058 34.5819L95.7429 36.2707C95.6436 36.2376 95.5056 36.1962 95.329 36.1465C95.1579 36.0969 94.9316 36.072 94.6501 36.072C94.0044 36.072 93.538 36.2348 93.251 36.5605C92.9696 36.8861 92.8288 37.3635 92.8288 37.9927V52H90.8751ZM98.4148 52V39.2841H100.369V52H98.4148ZM99.4082 37.1648C99.0274 37.1648 98.699 37.0351 98.4231 36.7757C98.1526 36.5163 98.0174 36.2045 98.0174 35.8402C98.0174 35.476 98.1526 35.1641 98.4231 34.9047C98.699 34.6453 99.0274 34.5157 99.4082 34.5157C99.789 34.5157 100.115 34.6453 100.385 34.9047C100.661 35.1641 100.799 35.476 100.799 35.8402C100.799 36.2045 100.661 36.5163 100.385 36.7757C100.115 37.0351 99.789 37.1648 99.4082 37.1648ZM109.113 52.2649C107.921 52.2649 106.894 51.9834 106.033 51.4205C105.172 50.8576 104.51 50.0821 104.046 49.0942C103.583 48.1063 103.351 46.9777 103.351 45.7083C103.351 44.4168 103.588 43.2771 104.063 42.2892C104.543 41.2958 105.211 40.5204 106.066 39.963C106.927 39.4 107.932 39.1185 109.08 39.1185C109.974 39.1185 110.78 39.2841 111.497 39.6153C112.214 39.9464 112.802 40.41 113.26 41.0061C113.718 41.6021 114.003 42.2975 114.113 43.0923H112.159C112.01 42.5128 111.679 41.9995 111.166 41.5524C110.658 41.0999 109.974 40.8736 109.113 40.8736C108.351 40.8736 107.683 41.0723 107.109 41.4697C106.541 41.8615 106.097 42.4162 105.777 43.1336C105.462 43.8456 105.305 44.6817 105.305 45.6421C105.305 46.6244 105.459 47.4799 105.768 48.2084C106.083 48.9369 106.524 49.5026 107.093 49.9055C107.667 50.3084 108.34 50.5099 109.113 50.5099C109.621 50.5099 110.081 50.4216 110.495 50.2449C110.909 50.0683 111.26 49.8145 111.547 49.4833C111.834 49.1522 112.038 48.7548 112.159 48.2912H114.113C114.003 49.0418 113.729 49.7179 113.293 50.3194C112.863 50.9155 112.292 51.3901 111.58 51.7434C110.873 52.0911 110.051 52.2649 109.113 52.2649ZM116.969 52V39.2841H118.923V52H116.969ZM117.963 37.1648C117.582 37.1648 117.253 37.0351 116.977 36.7757C116.707 36.5163 116.572 36.2045 116.572 35.8402C116.572 35.476 116.707 35.1641 116.977 34.9047C117.253 34.6453 117.582 34.5157 117.963 34.5157C118.343 34.5157 118.669 34.6453 118.939 34.9047C119.215 35.1641 119.353 35.476 119.353 35.8402C119.353 36.2045 119.215 36.5163 118.939 36.7757C118.669 37.0351 118.343 37.1648 117.963 37.1648ZM126.243 52.298C125.437 52.298 124.706 52.1463 124.049 51.8427C123.393 51.5336 122.871 51.0894 122.485 50.5099C122.098 49.9248 121.905 49.2184 121.905 48.3905C121.905 47.662 122.049 47.0715 122.336 46.6189C122.623 46.1608 123.006 45.8021 123.486 45.5427C123.967 45.2833 124.496 45.0902 125.076 44.9632C125.661 44.8308 126.249 44.7259 126.839 44.6486C127.612 44.5493 128.238 44.4748 128.719 44.4251C129.204 44.3699 129.557 44.2788 129.778 44.1519C130.004 44.025 130.118 43.8042 130.118 43.4896V43.4234C130.118 42.6066 129.894 41.9719 129.447 41.5193C129.006 41.0668 128.335 40.8405 127.435 40.8405C126.503 40.8405 125.771 41.0447 125.242 41.4531C124.712 41.8615 124.339 42.2975 124.124 42.7611L122.27 42.0988C122.601 41.3262 123.042 40.7246 123.594 40.2941C124.152 39.8581 124.759 39.5545 125.415 39.3835C126.078 39.2068 126.729 39.1185 127.369 39.1185C127.778 39.1185 128.247 39.1682 128.776 39.2676C129.312 39.3614 129.828 39.5573 130.325 39.8553C130.827 40.1534 131.243 40.6032 131.575 41.2047C131.906 41.8063 132.071 42.6121 132.071 43.6221V52H130.118V50.2781H130.018C129.886 50.554 129.665 50.8493 129.356 51.1639C129.047 51.4784 128.636 51.7461 128.122 51.9669C127.609 52.1876 126.983 52.298 126.243 52.298ZM126.541 50.543C127.314 50.543 127.965 50.3912 128.495 50.0876C129.03 49.7841 129.433 49.3922 129.704 48.9121C129.98 48.4319 130.118 47.9269 130.118 47.3971V45.6089C130.035 45.7083 129.853 45.7993 129.571 45.8821C129.295 45.9594 128.975 46.0284 128.611 46.0891C128.252 46.1443 127.902 46.194 127.56 46.2381C127.223 46.2767 126.95 46.3099 126.74 46.3375C126.232 46.4037 125.758 46.5113 125.316 46.6603C124.88 46.8038 124.527 47.0218 124.256 47.3143C123.991 47.6013 123.859 47.9932 123.859 48.4899C123.859 49.1687 124.11 49.682 124.612 50.0297C125.12 50.3719 125.763 50.543 126.541 50.543ZM137.591 35.0455V52H135.637V35.0455H137.591ZM150.044 35.0455V52H147.991V35.0455H150.044ZM155.849 44.3506V52H153.896V39.2841H155.783V41.271H155.949C156.247 40.6252 156.699 40.1064 157.307 39.7146C157.914 39.3172 158.697 39.1185 159.658 39.1185C160.519 39.1185 161.272 39.2951 161.918 39.6484C162.563 39.9961 163.066 40.5259 163.424 41.2379C163.783 41.9443 163.962 42.8384 163.962 43.9201V52H162.009V44.0526C162.009 43.0536 161.749 42.2754 161.231 41.718C160.712 41.1551 160 40.8736 159.095 40.8736C158.471 40.8736 157.914 41.0088 157.422 41.2792C156.937 41.5497 156.553 41.9443 156.272 42.4631C155.99 42.9819 155.849 43.611 155.849 44.3506ZM173.063 39.2841V40.9398H166.473V39.2841H173.063ZM168.394 36.2376H170.347V48.3574C170.347 48.9093 170.427 49.3233 170.587 49.5992C170.753 49.8696 170.963 50.0518 171.217 50.1456C171.476 50.2339 171.749 50.2781 172.036 50.2781C172.251 50.2781 172.428 50.267 172.566 50.2449C172.704 50.2173 172.814 50.1953 172.897 50.1787L173.295 51.9338C173.162 51.9834 172.977 52.0331 172.74 52.0828C172.503 52.138 172.202 52.1656 171.837 52.1656C171.286 52.1656 170.745 52.0469 170.215 51.8096C169.691 51.5723 169.255 51.2108 168.907 50.7251C168.565 50.2394 168.394 49.6268 168.394 48.8873V36.2376ZM181.196 52.2649C179.971 52.2649 178.914 51.9945 178.026 51.4536C177.143 50.9072 176.461 50.1456 175.981 49.1687C175.506 48.1863 175.269 47.0439 175.269 45.7414C175.269 44.4389 175.506 43.2909 175.981 42.2975C176.461 41.2986 177.129 40.5204 177.984 39.963C178.845 39.4 179.85 39.1185 180.998 39.1185C181.66 39.1185 182.314 39.2289 182.96 39.4497C183.605 39.6704 184.193 40.0292 184.723 40.5259C185.253 41.0171 185.675 41.6683 185.99 42.4796C186.304 43.2909 186.462 44.2899 186.462 45.4765V46.3043H176.66V44.6155H184.475C184.475 43.898 184.331 43.2578 184.044 42.6949C183.763 42.1319 183.36 41.6877 182.836 41.362C182.317 41.0364 181.704 40.8736 180.998 40.8736C180.22 40.8736 179.546 41.0668 178.978 41.4531C178.415 41.8339 177.982 42.3306 177.678 42.9432C177.374 43.5559 177.223 44.2126 177.223 44.9135V46.0394C177.223 46.9997 177.388 47.8138 177.719 48.4816C178.056 49.1439 178.522 49.6489 179.118 49.9966C179.715 50.3388 180.407 50.5099 181.196 50.5099C181.71 50.5099 182.173 50.4381 182.587 50.2946C183.007 50.1456 183.368 49.9248 183.672 49.6323C183.975 49.3343 184.21 48.9645 184.375 48.523L186.263 49.0528C186.064 49.693 185.73 50.256 185.261 50.7417C184.792 51.2218 184.213 51.5971 183.523 51.8675C182.833 52.1325 182.057 52.2649 181.196 52.2649ZM191.387 35.0455V52H189.434V35.0455H191.387ZM196.919 35.0455V52H194.966V35.0455H196.919ZM200.498 52V39.2841H202.452V52H200.498ZM201.491 37.1648C201.111 37.1648 200.782 37.0351 200.506 36.7757C200.236 36.5163 200.101 36.2045 200.101 35.8402C200.101 35.476 200.236 35.1641 200.506 34.9047C200.782 34.6453 201.111 34.5157 201.491 34.5157C201.872 34.5157 202.198 34.6453 202.468 34.9047C202.744 35.1641 202.882 35.476 202.882 35.8402C202.882 36.2045 202.744 36.5163 202.468 36.7757C202.198 37.0351 201.872 37.1648 201.491 37.1648ZM211.163 57.0334C210.219 57.0334 209.408 56.912 208.729 56.6691C208.05 56.4318 207.484 56.1172 207.032 55.7254C206.585 55.339 206.229 54.9251 205.964 54.4836L207.52 53.3908C207.697 53.6226 207.92 53.8875 208.191 54.1855C208.461 54.4891 208.831 54.7512 209.3 54.972C209.775 55.1983 210.396 55.3114 211.163 55.3114C212.189 55.3114 213.036 55.0631 213.704 54.5664C214.372 54.0696 214.706 53.2915 214.706 52.2318V49.6489H214.54C214.397 49.8807 214.193 50.1677 213.928 50.5099C213.668 50.8465 213.293 51.1473 212.802 51.4122C212.316 51.6716 211.659 51.8013 210.832 51.8013C209.805 51.8013 208.883 51.5585 208.067 51.0728C207.255 50.5871 206.612 49.8807 206.138 48.9535C205.669 48.0263 205.434 46.9004 205.434 45.5758C205.434 44.2733 205.663 43.1392 206.121 42.1733C206.579 41.202 207.217 40.4514 208.033 39.9216C208.85 39.3862 209.794 39.1185 210.865 39.1185C211.693 39.1185 212.349 39.2565 212.835 39.5325C213.326 39.8029 213.702 40.112 213.961 40.4597C214.226 40.8018 214.43 41.0833 214.574 41.3041H214.772V39.2841H216.66V52.3643C216.66 53.457 216.411 54.3456 215.915 55.03C215.423 55.7198 214.761 56.2248 213.928 56.5449C213.1 56.8706 212.178 57.0334 211.163 57.0334ZM211.097 50.0463C211.88 50.0463 212.543 49.8669 213.083 49.5081C213.624 49.1494 214.035 48.6334 214.317 47.9601C214.598 47.2867 214.739 46.481 214.739 45.5427C214.739 44.6266 214.601 43.818 214.325 43.1171C214.049 42.4162 213.641 41.867 213.1 41.4697C212.559 41.0723 211.891 40.8736 211.097 40.8736C210.269 40.8736 209.579 41.0833 209.027 41.5028C208.481 41.9222 208.069 42.4852 207.793 43.1916C207.523 43.898 207.388 44.6817 207.388 45.5427C207.388 46.4258 207.526 47.2067 207.802 47.8855C208.083 48.5589 208.497 49.0887 209.043 49.475C209.595 49.8558 210.28 50.0463 211.097 50.0463ZM225.567 52.2649C224.342 52.2649 223.285 51.9945 222.397 51.4536C221.514 50.9072 220.832 50.1456 220.352 49.1687C219.877 48.1863 219.64 47.0439 219.64 45.7414C219.64 44.4389 219.877 43.2909 220.352 42.2975C220.832 41.2986 221.5 40.5204 222.355 39.963C223.216 39.4 224.221 39.1185 225.369 39.1185C226.031 39.1185 226.685 39.2289 227.331 39.4497C227.977 39.6704 228.564 40.0292 229.094 40.5259C229.624 41.0171 230.046 41.6683 230.361 42.4796C230.675 43.2909 230.833 44.2899 230.833 45.4765V46.3043H221.031V44.6155H228.846C228.846 43.898 228.702 43.2578 228.415 42.6949C228.134 42.1319 227.731 41.6877 227.207 41.362C226.688 41.0364 226.075 40.8736 225.369 40.8736C224.591 40.8736 223.917 41.0668 223.349 41.4531C222.786 41.8339 222.353 42.3306 222.049 42.9432C221.746 43.5559 221.594 44.2126 221.594 44.9135V46.0394C221.594 46.9997 221.759 47.8138 222.09 48.4816C222.427 49.1439 222.894 49.6489 223.49 49.9966C224.086 50.3388 224.778 50.5099 225.567 50.5099C226.081 50.5099 226.544 50.4381 226.958 50.2946C227.378 50.1456 227.739 49.9248 228.043 49.6323C228.346 49.3343 228.581 48.9645 228.746 48.523L230.634 49.0528C230.435 49.693 230.101 50.256 229.632 50.7417C229.163 51.2218 228.584 51.5971 227.894 51.8675C227.204 52.1325 226.428 52.2649 225.567 52.2649ZM235.758 44.3506V52H233.805V39.2841H235.692V41.271H235.858C236.156 40.6252 236.608 40.1064 237.215 39.7146C237.823 39.3172 238.606 39.1185 239.567 39.1185C240.428 39.1185 241.181 39.2951 241.827 39.6484C242.472 39.9961 242.975 40.5259 243.333 41.2379C243.692 41.9443 243.871 42.8384 243.871 43.9201V52H241.918V44.0526C241.918 43.0536 241.658 42.2754 241.139 41.718C240.621 41.1551 239.909 40.8736 239.004 40.8736C238.38 40.8736 237.823 41.0088 237.331 41.2792C236.846 41.5497 236.462 41.9443 236.181 42.4631C235.899 42.9819 235.758 43.611 235.758 44.3506ZM252.607 52.2649C251.415 52.2649 250.389 51.9834 249.528 51.4205C248.667 50.8576 248.004 50.0821 247.541 49.0942C247.077 48.1063 246.845 46.9777 246.845 45.7083C246.845 44.4168 247.083 43.2771 247.557 42.2892C248.038 41.2958 248.705 40.5204 249.561 39.963C250.422 39.4 251.426 39.1185 252.574 39.1185C253.468 39.1185 254.274 39.2841 254.992 39.6153C255.709 39.9464 256.297 40.41 256.755 41.0061C257.213 41.6021 257.497 42.2975 257.608 43.0923H255.654C255.505 42.5128 255.174 41.9995 254.66 41.5524C254.153 41.0999 253.468 40.8736 252.607 40.8736C251.846 40.8736 251.178 41.0723 250.604 41.4697C250.036 41.8615 249.591 42.4162 249.271 43.1336C248.957 43.8456 248.799 44.6817 248.799 45.6421C248.799 46.6244 248.954 47.4799 249.263 48.2084C249.577 48.9369 250.019 49.5026 250.587 49.9055C251.161 50.3084 251.835 50.5099 252.607 50.5099C253.115 50.5099 253.576 50.4216 253.99 50.2449C254.404 50.0683 254.754 49.8145 255.041 49.4833C255.328 49.1522 255.532 48.7548 255.654 48.2912H257.608C257.497 49.0418 257.224 49.7179 256.788 50.3194C256.358 50.9155 255.786 51.3901 255.074 51.7434C254.368 52.0911 253.546 52.2649 252.607 52.2649ZM265.795 52.2649C264.57 52.2649 263.513 51.9945 262.624 51.4536C261.741 50.9072 261.06 50.1456 260.58 49.1687C260.105 48.1863 259.868 47.0439 259.868 45.7414C259.868 44.4389 260.105 43.2909 260.58 42.2975C261.06 41.2986 261.728 40.5204 262.583 39.963C263.444 39.4 264.449 39.1185 265.596 39.1185C266.259 39.1185 266.913 39.2289 267.558 39.4497C268.204 39.6704 268.792 40.0292 269.322 40.5259C269.852 41.0171 270.274 41.6683 270.588 42.4796C270.903 43.2909 271.06 44.2899 271.06 45.4765V46.3043H261.258V44.6155H269.073C269.073 43.898 268.93 43.2578 268.643 42.6949C268.362 42.1319 267.959 41.6877 267.434 41.362C266.916 41.0364 266.303 40.8736 265.596 40.8736C264.818 40.8736 264.145 41.0668 263.576 41.4531C263.014 41.8339 262.58 42.3306 262.277 42.9432C261.973 43.5559 261.821 44.2126 261.821 44.9135V46.0394C261.821 46.9997 261.987 47.8138 262.318 48.4816C262.655 49.1439 263.121 49.6489 263.717 49.9966C264.313 50.3388 265.006 50.5099 265.795 50.5099C266.308 50.5099 266.772 50.4381 267.186 50.2946C267.605 50.1456 267.967 49.9248 268.27 49.6323C268.574 49.3343 268.809 48.9645 268.974 48.523L270.862 49.0528C270.663 49.693 270.329 50.256 269.86 50.7417C269.391 51.2218 268.811 51.5971 268.121 51.8675C267.432 52.1325 266.656 52.2649 265.795 52.2649Z" fill="white"/>
<g clip-path="url(#clip0_2767_35284)">
<path d="M346.771 102.286C347.409 101.432 348.428 100.879 349.576 100.879C350.394 100.879 351.146 101.159 351.742 101.629" stroke="white" stroke-linecap="round" stroke-linejoin="round"/>
<path d="M349.076 104.629H345.576C345.311 104.629 345.057 104.524 344.869 104.336C344.682 104.149 344.576 103.894 344.576 103.629V95.6289C344.576 95.3637 344.682 95.1093 344.869 94.9218C345.057 94.7343 345.311 94.6289 345.576 94.6289H353.576C353.842 94.6289 354.096 94.7343 354.283 94.9218C354.471 95.1093 354.576 95.3637 354.576 95.6289V98.6289" stroke="white" stroke-linecap="round" stroke-linejoin="round"/>
<path d="M349.576 99.3789C350.405 99.3789 351.076 98.7073 351.076 97.8789C351.076 97.0505 350.405 96.3789 349.576 96.3789C348.748 96.3789 348.076 97.0505 348.076 97.8789C348.076 98.7073 348.748 99.3789 349.576 99.3789Z" stroke="white" stroke-linecap="round" stroke-linejoin="round"/>
<path d="M351.34 104.563C350.989 104.502 350.989 103.998 351.34 103.937C352.611 103.716 353.622 102.747 353.898 101.487L353.919 101.39C353.995 101.043 354.489 101.041 354.568 101.387L354.594 101.5C354.88 102.755 355.891 103.715 357.159 103.935C357.512 103.997 357.512 104.503 357.159 104.564C355.891 104.785 354.88 105.745 354.594 107L354.568 107.112C354.489 107.459 353.995 107.456 353.919 107.11L353.898 107.013C353.622 105.752 352.611 104.784 351.34 104.563Z" stroke="white" stroke-linecap="round" stroke-linejoin="round"/>
</g>
<g clip-path="url(#clip1_2767_35284)">
<path d="M97.02 139.485H93.52C93.2548 139.485 93.0004 139.591 92.8129 139.778C92.6254 139.966 92.52 140.22 92.52 140.485V148.485C92.52 148.751 92.6254 149.005 92.8129 149.193C93.0004 149.38 93.2548 149.485 93.52 149.485H102.52C103.072 149.485 103.52 149.038 103.52 148.485V144.485" stroke="white" stroke-linecap="round" stroke-linejoin="round"/>
<path d="M92.52 141.985H99.02" stroke="white" stroke-linecap="round" stroke-linejoin="round"/>
<path d="M95.02 146.985L96.52 145.485L95.02 143.985" stroke="white" stroke-linecap="round" stroke-linejoin="round"/>
<path d="M98.02 146.985H99.52" stroke="white" stroke-linecap="round" stroke-linejoin="round"/>
<path d="M99.396 139.949C99.0451 139.888 99.0451 139.384 99.396 139.323C100.667 139.102 101.679 138.133 101.955 136.873L101.976 136.776C102.052 136.429 102.545 136.427 102.624 136.773L102.65 136.886C102.936 138.14 103.948 139.101 105.215 139.321C105.568 139.382 105.568 139.889 105.215 139.95C103.948 140.171 102.936 141.131 102.65 142.386L102.624 142.498C102.545 142.844 102.052 142.842 101.976 142.495L101.955 142.399C101.679 141.138 100.667 140.17 99.396 139.949Z" stroke="white" stroke-linecap="round" stroke-linejoin="round"/>
</g>
<g clip-path="url(#clip2_2767_35284)">
<path d="M181.076 103.546H177.576C177.311 103.546 177.057 103.44 176.869 103.253C176.682 103.065 176.576 102.811 176.576 102.546V95.5457C176.576 95.2804 176.682 95.0261 176.869 94.8385C177.057 94.651 177.311 94.5457 177.576 94.5457H187.576C187.842 94.5457 188.096 94.651 188.283 94.8385C188.471 95.0261 188.576 95.2804 188.576 95.5457V100.046" stroke="white" stroke-linecap="round" stroke-linejoin="round"/>
<path d="M176.576 95.8057L182.576 100.046L188.576 95.8057" stroke="white" stroke-linecap="round" stroke-linejoin="round"/>
<path d="M183.34 104.646C182.989 104.585 182.989 104.082 183.34 104.021C184.611 103.799 185.622 102.831 185.898 101.57L185.919 101.474C185.995 101.127 186.489 101.125 186.568 101.471L186.594 101.583C186.88 102.838 187.891 103.798 189.159 104.019C189.512 104.08 189.512 104.587 189.159 104.648C187.891 104.869 186.88 105.829 186.594 107.083L186.568 107.196C186.489 107.542 185.995 107.54 185.919 107.193L185.898 107.097C185.622 105.836 184.611 104.868 183.34 104.646Z" stroke="white" stroke-linecap="round" stroke-linejoin="round"/>
</g>
<g clip-path="url(#clip3_2767_35284)">
<path d="M95 103.534C94.4773 103.422 94.0159 103.201 93.6046 102.842C92.9671 102.284 92.5771 101.497 92.5204 100.652C92.4636 99.8071 92.7448 98.9744 93.3021 98.3369C93.578 98.0212 93.9134 97.763 94.2892 97.577C94.6649 97.3909 95.0736 97.2807 95.4919 97.2526C95.5353 97.2536 95.5781 97.2421 95.6152 97.2195C95.6523 97.1969 95.6821 97.1642 95.7012 97.1252C95.9898 96.2889 96.5564 95.5767 97.3065 95.1075C98.0566 94.6383 98.9448 94.4404 99.8232 94.5469C100.701 94.6534 101.517 95.0577 102.133 95.6925C102.749 96.3274 103.129 97.1543 103.21 98.0353C103.216 98.0817 103.236 98.1252 103.267 98.1607C103.298 98.1962 103.338 98.2222 103.383 98.2356C104.033 98.3888 104.605 98.7751 104.989 99.3215C105.374 99.8679 105.545 100.536 105.47 101.2C105.394 101.864 105.078 102.477 104.582 102.924C104.194 103.272 103.717 103.5 103.21 103.586" stroke="white" stroke-linecap="round" stroke-linejoin="round"/>
<path d="M96.5277 105.096C96.2296 105.044 96.2296 104.616 96.5277 104.564C97.6077 104.376 98.4667 103.554 98.7011 102.483L98.7191 102.401C98.7836 102.106 99.2031 102.104 99.2702 102.398L99.292 102.494C99.5351 103.56 100.394 104.375 101.471 104.563C101.771 104.615 101.771 105.045 101.471 105.097C100.394 105.285 99.5351 106.1 99.292 107.166L99.2702 107.262C99.2031 107.556 98.7836 107.554 98.7191 107.259L98.7011 107.177C98.4667 106.106 97.6077 105.284 96.5277 105.096Z" stroke="white" stroke-linecap="round" stroke-linejoin="round"/>
</g>
<g clip-path="url(#clip4_2767_35284)">
<path d="M222.312 101.003V103.314" stroke="white" stroke-linecap="round" stroke-linejoin="round"/>
<path d="M223.467 102.159H221.156" stroke="white" stroke-linecap="round" stroke-linejoin="round"/>
<path d="M223.066 98.5271H222.149C220.621 98.5271 219.337 99.6765 219.168 101.196L218.756 104.905C218.605 106.258 219.664 107.441 221.025 107.441C221.889 107.441 222.68 106.952 223.066 106.179L223.426 105.46H226.397L226.756 106.179C227.143 106.952 227.934 107.441 228.798 107.441C230.159 107.441 231.217 106.258 231.067 104.905L230.655 101.196" stroke="white" stroke-linecap="round" stroke-linejoin="round"/>
<path d="M226.644 102.736C226.644 102.6 226.755 102.489 226.892 102.489C227.029 102.489 227.14 102.6 227.14 102.736" stroke="white" stroke-linecap="round" stroke-linejoin="round"/>
<path d="M226.645 102.736C226.645 102.873 226.755 102.984 226.892 102.984C227.029 102.984 227.14 102.873 227.14 102.736" stroke="white" stroke-linecap="round" stroke-linejoin="round"/>
<path d="M225.175 97.9935C224.824 97.9325 224.824 97.4287 225.175 97.3676C226.446 97.1465 227.457 96.1781 227.733 94.9175L227.754 94.8209C227.83 94.474 228.324 94.4719 228.403 94.818L228.429 94.9306C228.715 96.1853 229.726 97.1455 230.994 97.366C231.347 97.4274 231.347 97.9338 230.994 97.9951C229.726 98.2157 228.715 99.1759 228.429 100.431L228.403 100.543C228.324 100.889 227.83 100.887 227.754 100.54L227.733 100.444C227.457 99.1831 226.446 98.2147 225.175 97.9935Z" stroke="white" stroke-linecap="round" stroke-linejoin="round"/>
</g>
<g clip-path="url(#clip5_2767_35284)">
<path d="M140.926 107.202L137.926 107.462L138.186 104.462L144.426 98.2618C144.519 98.1666 144.63 98.0909 144.753 98.0392C144.876 97.9875 145.008 97.9609 145.141 97.9609C145.274 97.9609 145.406 97.9875 145.529 98.0392C145.651 98.0909 145.763 98.1666 145.856 98.2618L147.126 99.5418C147.219 99.6348 147.294 99.7454 147.345 99.8672C147.395 99.9891 147.422 100.12 147.422 100.252C147.422 100.384 147.395 100.515 147.345 100.636C147.294 100.758 147.219 100.869 147.126 100.962L140.926 107.202Z" stroke="white" stroke-linecap="round" stroke-linejoin="round"/>
<path d="M134.842 97.972C134.491 97.911 134.491 97.4072 134.842 97.3462C136.113 97.125 137.124 96.1566 137.4 94.896L137.421 94.7994C137.497 94.4525 137.991 94.4504 138.07 94.7965L138.096 94.9092C138.382 96.1638 139.393 97.124 140.661 97.3446C141.014 97.4059 141.014 97.9123 140.661 97.9736C139.393 98.1942 138.382 99.1544 138.096 100.409L138.07 100.522C137.991 100.868 137.497 100.866 137.421 100.519L137.4 100.422C137.124 99.1616 136.113 98.1932 134.842 97.972Z" stroke="white" stroke-linecap="round" stroke-linejoin="round"/>
</g>
<g clip-path="url(#clip6_2767_35284)">
<path d="M62.5117 143.463C62.5117 146.777 59.8254 149.463 56.5117 149.463C53.1979 149.463 50.5117 146.777 50.5117 143.463C50.5117 140.15 53.1979 137.463 56.5117 137.463" stroke="white" stroke-linecap="round" stroke-linejoin="round"/>
<path d="M50.5117 143.463H57.4347" stroke="white" stroke-linecap="round" stroke-linejoin="round"/>
<path d="M56.5117 137.463C55.1256 139.168 54.3174 141.269 54.204 143.463C54.3174 145.658 55.1256 147.759 56.5117 149.463C57.6031 148.121 58.3361 146.533 58.6539 144.848" stroke="white" stroke-linecap="round" stroke-linejoin="round"/>
<path d="M57.4042 139.971C57.0533 139.91 57.0533 139.406 57.4042 139.345C58.6756 139.124 59.6868 138.155 59.9627 136.895L59.9839 136.798C60.0598 136.451 60.5537 136.449 60.6326 136.795L60.6583 136.908C60.9445 138.162 61.9559 139.123 63.2238 139.343C63.5765 139.404 63.5765 139.911 63.2238 139.972C61.9559 140.193 60.9445 141.153 60.6583 142.408L60.6326 142.52C60.5537 142.866 60.0598 142.864 59.9839 142.517L59.9627 142.421C59.6868 141.16 58.6756 140.192 57.4042 139.971Z" stroke="white" stroke-linecap="round" stroke-linejoin="round"/>
</g>
<g clip-path="url(#clip7_2767_35284)">
<path d="M304.12 107.462C305.002 107.462 305.717 106.747 305.717 105.865C305.717 104.984 305.002 104.269 304.12 104.269C303.238 104.269 302.523 104.984 302.523 105.865C302.523 106.747 303.238 107.462 304.12 107.462Z" stroke="white" stroke-linecap="round" stroke-linejoin="round"/>
<path d="M311.306 105.865C312.187 105.865 312.902 105.15 312.902 104.269C312.902 103.387 312.187 102.672 311.306 102.672C310.424 102.672 309.709 103.387 309.709 104.269C309.709 105.15 310.424 105.865 311.306 105.865Z" stroke="white" stroke-linecap="round" stroke-linejoin="round"/>
<path d="M305.717 105.865V99.3825C305.718 99.2951 305.747 99.2103 305.8 99.141C305.853 99.0718 305.928 99.022 306.013 98.9993L307.273 98.6379" stroke="white" stroke-linecap="round" stroke-linejoin="round"/>
<path d="M305.717 101.474L309.777 100.346" stroke="white" stroke-linecap="round" stroke-linejoin="round"/>
<path d="M312.902 104.269V102.861" stroke="white" stroke-linecap="round" stroke-linejoin="round"/>
<path d="M309.392 97.9718C309.041 97.9107 309.041 97.407 309.392 97.3459C310.664 97.1247 311.675 96.1564 311.951 94.8958L311.972 94.7991C312.048 94.4523 312.542 94.4501 312.621 94.7963L312.646 94.9089C312.933 96.1636 313.944 97.1238 315.212 97.3443C315.565 97.4057 315.565 97.912 315.212 97.9734C313.944 98.194 312.933 99.1541 312.646 100.409L312.621 100.521C312.542 100.868 312.048 100.865 311.972 100.519L311.951 100.422C311.675 99.1613 310.664 98.193 309.392 97.9718Z" stroke="white" stroke-linecap="round" stroke-linejoin="round"/>
</g>
<g clip-path="url(#clip8_2767_35284)">
<path d="M308.5 148.5C311.814 148.5 314.5 145.814 314.5 142.5C314.5 139.186 311.814 136.5 308.5 136.5C305.186 136.5 302.5 139.186 302.5 142.5C302.5 145.814 305.186 148.5 308.5 148.5Z" stroke="white" stroke-linecap="round" stroke-linejoin="round"/>
<path d="M312.74 146.74L315.5 149.5" stroke="white" stroke-linecap="round" stroke-linejoin="round"/>
<path d="M305.45 142.828C305.082 142.764 305.082 142.236 305.45 142.172C306.782 141.94 307.842 140.925 308.131 139.604L308.153 139.503C308.233 139.139 308.75 139.137 308.833 139.5L308.86 139.618C309.16 140.933 310.22 141.939 311.549 142.17C311.919 142.235 311.919 142.765 311.549 142.83C310.22 143.061 309.16 144.067 308.86 145.382L308.833 145.5C308.75 145.863 308.233 145.861 308.153 145.497L308.131 145.396C307.842 144.075 306.782 143.06 305.45 142.828Z" stroke="white" stroke-linecap="round" stroke-linejoin="round"/>
</g>
<g clip-path="url(#clip9_2767_35284)">
<path d="M182.022 140.347C181.381 140.831 180.728 141.397 180.092 142.033C177.248 144.877 175.808 148.046 176.874 149.112C177.94 150.179 181.11 148.738 183.953 145.895C184.589 145.258 185.155 144.606 185.639 143.964" stroke="white" stroke-linecap="round" stroke-linejoin="round"/>
<path d="M185.639 143.964C187.316 146.19 187.998 148.285 187.171 149.112C186.104 150.179 182.935 148.738 180.092 145.895C177.248 143.051 175.808 139.882 176.874 138.815C177.702 137.988 179.796 138.671 182.022 140.347" stroke="white" stroke-linecap="round" stroke-linejoin="round"/>
<path d="M181.522 143.964C181.522 144.24 181.746 144.464 182.022 144.464C182.298 144.464 182.522 144.24 182.522 143.964C182.522 143.688 182.298 143.464 182.022 143.464C181.746 143.464 181.522 143.688 181.522 143.964Z" stroke="white" stroke-linecap="round" stroke-linejoin="round"/>
<path d="M184.032 139.61C183.717 139.555 183.717 139.104 184.032 139.05C185.17 138.852 186.075 137.985 186.322 136.857L186.341 136.77C186.409 136.46 186.851 136.458 186.921 136.767L186.944 136.868C187.201 137.991 188.106 138.851 189.241 139.048C189.557 139.103 189.557 139.557 189.241 139.611C188.106 139.809 187.201 140.668 186.944 141.791L186.921 141.892C186.851 142.202 186.409 142.2 186.341 141.89L186.322 141.803C186.075 140.675 185.17 139.808 184.032 139.61Z" stroke="white" stroke-linecap="round" stroke-linejoin="round"/>
</g>
<g clip-path="url(#clip10_2767_35284)">
<path d="M391.281 102.231H387.131C386.862 102.231 386.643 102.45 386.643 102.719V106.869C386.643 107.138 386.862 107.357 387.131 107.357H391.281C391.551 107.357 391.769 107.138 391.769 106.869V102.719C391.769 102.45 391.551 102.231 391.281 102.231Z" stroke="white" stroke-linecap="round" stroke-linejoin="round"/>
<path d="M398.869 102.231H394.719C394.449 102.231 394.231 102.45 394.231 102.719V106.869C394.231 107.138 394.449 107.357 394.719 107.357H398.869C399.138 107.357 399.357 107.138 399.357 106.869V102.719C399.357 102.45 399.138 102.231 398.869 102.231Z" stroke="white" stroke-linecap="round" stroke-linejoin="round"/>
<path d="M391.281 94.6431H387.131C386.862 94.6431 386.643 94.8616 386.643 95.1313V99.2808C386.643 99.5505 386.862 99.769 387.131 99.769H391.281C391.551 99.769 391.769 99.5505 391.769 99.2808V95.1313C391.769 94.8616 391.551 94.6431 391.281 94.6431Z" stroke="white" stroke-linecap="round" stroke-linejoin="round"/>
<path d="M394.146 97.5844C393.845 97.5321 393.845 97.1006 394.146 97.0483C395.235 96.8589 396.101 96.0294 396.337 94.9496L396.355 94.8669C396.42 94.5698 396.843 94.5679 396.911 94.8644L396.933 94.9609C397.178 96.0356 398.044 96.858 399.13 97.0469C399.432 97.0995 399.432 97.5332 399.13 97.5858C398.044 97.7747 397.178 98.5971 396.933 99.6718L396.911 99.7682C396.843 100.065 396.42 100.063 396.355 99.7658L396.337 99.6831C396.101 98.6033 395.235 97.7738 394.146 97.5844Z" stroke="white" stroke-linecap="round" stroke-linejoin="round"/>
</g>
<g clip-path="url(#clip11_2767_35284)">
<path d="M52.5 102.833H50.6786" stroke="white" stroke-linecap="round" stroke-linejoin="round"/>
<path d="M63.3213 102.833H61.4999" stroke="white" stroke-linecap="round" stroke-linejoin="round"/>
<path d="M52.5 99.1667H50.6786" stroke="white" stroke-linecap="round" stroke-linejoin="round"/>
<path d="M63.3213 99.1667H61.4999" stroke="white" stroke-linecap="round" stroke-linejoin="round"/>
<path d="M55.1667 96.5001V94.6787" stroke="white" stroke-linecap="round" stroke-linejoin="round"/>
<path d="M55.1667 107.321V105.5" stroke="white" stroke-linecap="round" stroke-linejoin="round"/>
<path d="M58.8333 96.5001V94.6787" stroke="white" stroke-linecap="round" stroke-linejoin="round"/>
<path d="M58.8333 107.321V105.5" stroke="white" stroke-linecap="round" stroke-linejoin="round"/>
<path d="M60.5 96.5H53.5C52.9477 96.5 52.5 96.9477 52.5 97.5V104.5C52.5 105.052 52.9477 105.5 53.5 105.5H60.5C61.0523 105.5 61.5 105.052 61.5 104.5V97.5C61.5 96.9477 61.0523 96.5 60.5 96.5Z" stroke="white" stroke-linecap="round" stroke-linejoin="round"/>
<path d="M54.6669 101.251C54.3856 101.202 54.3856 100.798 54.6669 100.749C55.6861 100.572 56.4966 99.7955 56.7178 98.785L56.7348 98.7075C56.7957 98.4295 57.1915 98.4277 57.2548 98.7052L57.2754 98.7955C57.5048 99.8012 58.3156 100.571 59.3319 100.748C59.6147 100.797 59.6147 101.203 59.3319 101.252C58.3156 101.429 57.5048 102.199 57.2754 103.204L57.2548 103.295C57.1915 103.572 56.7957 103.57 56.7348 103.292L56.7178 103.215C56.4966 102.204 55.6861 101.428 54.6669 101.251Z" stroke="white" stroke-linecap="round" stroke-linejoin="round"/>
</g>
<g clip-path="url(#clip12_2767_35284)">
<path d="M223.92 138.571H223.233C223.064 138.571 222.899 138.623 222.76 138.718C222.621 138.814 222.514 138.949 222.454 139.107L222.093 140.037L220.853 140.74L219.865 140.59C219.7 140.567 219.533 140.594 219.384 140.668C219.234 140.741 219.11 140.856 219.027 141L218.692 141.587C218.606 141.733 218.566 141.901 218.578 142.07C218.59 142.239 218.653 142.401 218.759 142.533L219.387 143.313V144.72L218.776 145.499C218.67 145.632 218.607 145.793 218.595 145.962C218.583 146.131 218.623 146.3 218.709 146.446L219.044 147.032C219.127 147.176 219.251 147.292 219.4 147.365C219.549 147.438 219.717 147.465 219.882 147.443L220.87 147.292L222.093 147.996L222.454 148.926C222.514 149.083 222.621 149.219 222.76 149.314C222.899 149.41 223.064 149.462 223.233 149.462H223.937C224.105 149.462 224.27 149.41 224.409 149.314C224.548 149.219 224.655 149.083 224.716 148.926L225.076 147.996L226.299 147.292L227.288 147.443C227.452 147.465 227.62 147.438 227.769 147.365C227.918 147.292 228.042 147.176 228.126 147.032L228.461 146.446C228.547 146.3 228.586 146.131 228.574 145.962C228.562 145.793 228.499 145.632 228.394 145.499L227.765 144.72V143.813M221.901 144.016C221.901 144.348 221.999 144.672 222.183 144.947C222.367 145.223 222.629 145.438 222.935 145.564C223.241 145.691 223.578 145.724 223.903 145.66C224.228 145.595 224.527 145.436 224.761 145.201C224.996 144.967 225.155 144.668 225.22 144.343C225.284 144.018 225.251 143.681 225.124 143.375C224.998 143.069 224.783 142.807 224.507 142.623C224.232 142.439 223.908 142.341 223.576 142.341C223.132 142.341 222.706 142.517 222.392 142.831C222.077 143.146 221.901 143.572 221.901 144.016Z" stroke="white" stroke-linecap="round" stroke-linejoin="round"/>
<path d="M226.101 139.542C225.794 139.489 225.794 139.048 226.101 138.995C227.213 138.801 228.098 137.954 228.339 136.851L228.358 136.766C228.424 136.463 228.856 136.461 228.925 136.764L228.948 136.862C229.198 137.96 230.083 138.8 231.192 138.993C231.501 139.047 231.501 139.49 231.192 139.544C230.083 139.737 229.198 140.577 228.948 141.674L228.925 141.773C228.856 142.076 228.424 142.074 228.358 141.77L228.339 141.686C228.098 140.583 227.213 139.736 226.101 139.542Z" stroke="white" stroke-linecap="round" stroke-linejoin="round"/>
</g>
<g clip-path="url(#clip13_2767_35284)">
<path d="M268.406 143.97C268.02 144.409 267.55 144.771 267.021 145.031V146.531C267.021 146.664 266.969 146.791 266.875 146.885C266.781 146.978 266.654 147.031 266.521 147.031H263.521C263.389 147.031 263.261 146.978 263.168 146.885C263.074 146.791 263.021 146.664 263.021 146.531V145.031C262.302 144.674 261.691 144.131 261.252 143.458C260.813 142.785 260.563 142.007 260.526 141.205C260.489 140.402 260.668 139.605 261.044 138.895C261.42 138.185 261.979 137.589 262.663 137.168C263.347 136.747 264.131 136.516 264.934 136.501C265.604 136.488 266.267 136.625 266.875 136.899" stroke="white" stroke-linecap="round" stroke-linejoin="round"/>
<path d="M263.021 149.5H267.021" stroke="white" stroke-linecap="round" stroke-linejoin="round"/>
<path d="M267.395 139.934C267.044 139.873 267.044 139.369 267.395 139.308C268.666 139.087 269.677 138.119 269.953 136.858L269.974 136.761C270.05 136.414 270.544 136.412 270.623 136.758L270.649 136.871C270.935 138.126 271.946 139.086 273.214 139.306C273.567 139.368 273.567 139.874 273.214 139.936C271.946 140.156 270.935 141.116 270.649 142.371L270.623 142.484C270.544 142.83 270.05 142.828 269.974 142.481L269.953 142.384C269.677 141.124 268.666 140.155 267.395 139.934Z" stroke="white" stroke-linecap="round" stroke-linejoin="round"/>
</g>
<g clip-path="url(#clip14_2767_35284)">
<path d="M349.513 140.963H348.77C348.552 140.952 348.336 141.012 348.156 141.135C347.975 141.258 347.84 141.436 347.77 141.643L347 143.963H345.5C345.235 143.963 344.98 144.069 344.793 144.256C344.605 144.444 344.5 144.698 344.5 144.963V146.963C344.5 147.229 344.605 147.483 344.793 147.67C344.98 147.858 345.235 147.963 345.5 147.963H346" stroke="white" stroke-linecap="round" stroke-linejoin="round"/>
<path d="M356 143.963H356.5C356.765 143.963 357.02 144.069 357.207 144.256C357.395 144.444 357.5 144.698 357.5 144.963V146.963C357.5 147.229 357.395 147.483 357.207 147.67C357.02 147.858 356.765 147.963 356.5 147.963H356" stroke="white" stroke-linecap="round" stroke-linejoin="round"/>
<path d="M354.499 149.463C353.67 149.463 352.998 148.791 352.998 147.962C352.998 147.133 353.67 146.461 354.499 146.461C355.328 146.461 356 147.133 356 147.962C356 148.791 355.328 149.463 354.499 149.463Z" stroke="white" stroke-linecap="round" stroke-linejoin="round"/>
<path d="M347.499 149.463C346.67 149.463 345.998 148.791 345.998 147.962C345.998 147.133 346.67 146.461 347.499 146.461C348.328 146.461 349 147.133 349 147.962C349 148.791 348.328 149.463 347.499 149.463Z" stroke="white" stroke-linecap="round" stroke-linejoin="round"/>
<path d="M352.998 147.963H349" stroke="white" stroke-linecap="round" stroke-linejoin="round"/>
<path d="M351.416 139.971C351.065 139.91 351.065 139.406 351.416 139.345C352.687 139.124 353.699 138.155 353.974 136.895L353.996 136.798C354.072 136.451 354.565 136.449 354.644 136.795L354.67 136.908C354.956 138.163 355.968 139.123 357.235 139.343C357.588 139.405 357.588 139.911 357.235 139.972C355.968 140.193 354.956 141.153 354.67 142.408L354.644 142.52C354.565 142.867 354.072 142.864 353.996 142.518L353.974 142.421C353.699 141.16 352.687 140.192 351.416 139.971Z" stroke="white" stroke-linecap="round" stroke-linejoin="round"/>
</g>
<g clip-path="url(#clip15_2767_35284)">
<path d="M433.269 102.496C434.235 102.496 435.019 101.713 435.019 100.746C435.019 99.7796 434.235 98.9961 433.269 98.9961C432.302 98.9961 431.519 99.7796 431.519 100.746C431.519 101.713 432.302 102.496 433.269 102.496Z" stroke="white" stroke-linecap="round" stroke-linejoin="round"/>
<path d="M437.629 102.74C436.681 105.282 434.263 107.496 433.269 107.496C432.019 107.496 428.519 103.996 428.519 100.746C428.519 98.1227 430.646 95.9961 433.269 95.9961C433.417 95.9961 433.564 96.0029 433.708 96.0162" stroke="white" stroke-linecap="round" stroke-linejoin="round"/>
<path d="M435.696 97.7692C435.362 97.7111 435.362 97.2321 435.696 97.1741C436.905 96.9637 437.866 96.0429 438.129 94.8442L438.149 94.7524C438.221 94.4226 438.691 94.4205 438.766 94.7497L438.79 94.8567C439.062 96.0498 440.024 96.9628 441.23 97.1725C441.565 97.2309 441.565 97.7124 441.23 97.7707C440.024 97.9804 439.062 98.8935 438.79 100.087L438.766 100.194C438.691 100.523 438.221 100.521 438.149 100.191L438.129 100.099C437.866 98.9003 436.905 97.9795 435.696 97.7692Z" stroke="white" stroke-linecap="round" stroke-linejoin="round"/>
</g>
<g clip-path="url(#clip16_2767_35284)">
<path d="M260.576 100.733C260.954 100.665 261.343 100.629 261.74 100.629C263.32 100.629 264.767 101.192 265.894 102.129" stroke="white" stroke-linecap="round" stroke-linejoin="round"/>
<path d="M265.076 104.629H261.576C261.311 104.629 261.057 104.524 260.869 104.336C260.682 104.149 260.576 103.894 260.576 103.629V95.6289C260.576 95.3637 260.682 95.1093 260.869 94.9218C261.057 94.7343 261.311 94.6289 261.576 94.6289H269.576C269.842 94.6289 270.096 94.7343 270.283 94.9218C270.471 95.1093 270.576 95.3637 270.576 95.6289V99.1289" stroke="white" stroke-linecap="round" stroke-linejoin="round"/>
<path d="M266.326 99.6289C267.017 99.6289 267.576 99.0693 267.576 98.3789C267.576 97.6885 267.017 97.1289 266.326 97.1289C265.636 97.1289 265.076 97.6885 265.076 98.3789C265.076 99.0693 265.636 99.6289 266.326 99.6289Z" stroke="white" stroke-linecap="round" stroke-linejoin="round"/>
<path d="M267.34 104.563C266.989 104.502 266.989 103.998 267.34 103.937C268.611 103.716 269.622 102.747 269.898 101.487L269.919 101.39C269.995 101.043 270.489 101.041 270.568 101.387L270.594 101.5C270.88 102.755 271.891 103.715 273.159 103.935C273.512 103.997 273.512 104.503 273.159 104.564C271.891 104.785 270.88 105.745 270.594 107L270.568 107.112C270.489 107.459 269.995 107.456 269.919 107.11L269.898 107.013C269.622 105.752 268.611 104.784 267.34 104.563Z" stroke="white" stroke-linecap="round" stroke-linejoin="round"/>
</g>
<g clip-path="url(#clip17_2767_35284)">
<path d="M136.04 149.448V146.968H138.52" stroke="white" stroke-linecap="round" stroke-linejoin="round"/>
<path d="M147.339 141.815C147.956 145.097 145.948 148.35 142.669 149.229C140.16 149.901 137.599 148.997 136.04 147.123" stroke="white" stroke-linecap="round" stroke-linejoin="round"/>
<path d="M134.661 144.185C134.044 140.903 136.052 137.65 139.331 136.771C141.84 136.099 144.401 137.003 145.96 138.877" stroke="white" stroke-linecap="round" stroke-linejoin="round"/>
<path d="M145.96 136.552V139.032H143.48" stroke="white" stroke-linecap="round" stroke-linejoin="round"/>
<path d="M138.09 143.334C137.739 143.273 137.739 142.769 138.09 142.708C139.361 142.487 140.372 141.518 140.648 140.258L140.669 140.161C140.745 139.814 141.239 139.812 141.318 140.158L141.344 140.271C141.63 141.525 142.641 142.486 143.909 142.706C144.262 142.767 144.262 143.274 143.909 143.335C142.641 143.556 141.63 144.516 141.344 145.771L141.318 145.883C141.239 146.229 140.745 146.227 140.669 145.88L140.648 145.784C140.372 144.523 139.361 143.555 138.09 143.334Z" stroke="white" stroke-linecap="round" stroke-linejoin="round"/>
</g>
<g clip-path="url(#clip18_2767_35284)">
<path d="M393 142.433L393 146.403C393 147.908 391.78 149.127 390.276 149.127C388.771 149.127 387.552 147.908 387.552 146.403C387.552 146.326 387.555 146.25 387.561 146.174C386.994 145.565 386.636 144.374 386.636 143.38C386.636 142.026 387.301 140.709 388.253 140.191C388.244 140.106 388.24 140.02 388.24 139.933C388.24 138.618 389.305 137.553 390.62 137.553C391.205 137.553 391.741 137.764 392.155 138.115" stroke="white" stroke-linecap="round" stroke-linejoin="round"/>
<path d="M389.511 141.809C389.162 141.729 388.37 141.21 388.25 140.197" stroke="white" stroke-linecap="round" stroke-linejoin="round"/>
<path d="M388.289 144.746C387.934 145.027 387.65 145.663 387.559 146.173" stroke="white" stroke-linecap="round" stroke-linejoin="round"/>
<path d="M393 146.403C393 147.908 394.22 149.127 395.724 149.127C397.228 149.127 398.448 147.908 398.448 146.403C398.448 146.326 398.445 146.25 398.439 146.174C399.006 145.565 399.363 144.374 399.363 143.38C399.363 142.946 399.295 142.516 399.171 142.115" stroke="white" stroke-linecap="round" stroke-linejoin="round"/>
<path d="M397.71 144.746C398.066 145.027 398.349 145.663 398.441 146.173" stroke="white" stroke-linecap="round" stroke-linejoin="round"/>
<path d="M393.064 140.307C392.713 140.245 392.713 139.742 393.064 139.681C394.336 139.459 395.347 138.491 395.623 137.23L395.644 137.134C395.72 136.787 396.214 136.785 396.293 137.131L396.318 137.244C396.605 138.498 397.616 139.458 398.884 139.679C399.237 139.74 399.237 140.247 398.884 140.308C397.616 140.529 396.605 141.489 396.318 142.744L396.293 142.856C396.214 143.202 395.72 143.2 395.644 142.853L395.623 142.757C395.347 141.496 394.336 140.528 393.064 140.307Z" stroke="white" stroke-linecap="round" stroke-linejoin="round"/>
</g>
<defs>
<clipPath id="clip0_2767_35284">
<rect width="14" height="14" fill="white" transform="translate(344 94)"/>
</clipPath>
<clipPath id="clip1_2767_35284">
<rect width="14" height="14" fill="white" transform="translate(92 136)"/>
</clipPath>
<clipPath id="clip2_2767_35284">
<rect width="14" height="14" fill="white" transform="translate(176 94)"/>
</clipPath>
<clipPath id="clip3_2767_35284">
<rect width="14" height="14" fill="white" transform="translate(92 94)"/>
</clipPath>
<clipPath id="clip4_2767_35284">
<rect width="14" height="14" fill="white" transform="translate(218 94)"/>
</clipPath>
<clipPath id="clip5_2767_35284">
<rect width="14" height="14" fill="white" transform="translate(134 94)"/>
</clipPath>
<clipPath id="clip6_2767_35284">
<rect width="14" height="14" fill="white" transform="translate(50 136)"/>
</clipPath>
<clipPath id="clip7_2767_35284">
<rect width="14" height="14" fill="white" transform="translate(302 94)"/>
</clipPath>
<clipPath id="clip8_2767_35284">
<rect width="14" height="14" fill="white" transform="translate(302 136)"/>
</clipPath>
<clipPath id="clip9_2767_35284">
<rect width="14" height="14" fill="white" transform="translate(176 136)"/>
</clipPath>
<clipPath id="clip10_2767_35284">
<rect width="14" height="14" fill="white" transform="translate(386 94)"/>
</clipPath>
<clipPath id="clip11_2767_35284">
<rect width="14" height="14" fill="white" transform="translate(50 94)"/>
</clipPath>
<clipPath id="clip12_2767_35284">
<rect width="14" height="14" fill="white" transform="translate(218 136)"/>
</clipPath>
<clipPath id="clip13_2767_35284">
<rect width="14" height="14" fill="white" transform="translate(260 136)"/>
</clipPath>
<clipPath id="clip14_2767_35284">
<rect width="14" height="14" fill="white" transform="translate(344 136)"/>
</clipPath>
<clipPath id="clip15_2767_35284">
<rect width="14" height="14" fill="white" transform="translate(428 94)"/>
</clipPath>
<clipPath id="clip16_2767_35284">
<rect width="14" height="14" fill="white" transform="translate(260 94)"/>
</clipPath>
<clipPath id="clip17_2767_35284">
<rect width="14" height="14" fill="white" transform="translate(134 136)"/>
</clipPath>
<clipPath id="clip18_2767_35284">
<rect width="14" height="14" fill="white" transform="translate(386 136)"/>
</clipPath>
</defs>
</svg>
