<svg width="492" height="269" viewBox="0 0 492 269" fill="none" xmlns="http://www.w3.org/2000/svg">
<rect width="492" height="269" rx="10" fill="white"/>
<path d="M52.0531 56V39.0455H62.2192V40.8668H54.1062V46.5955H61.4575V48.4168H54.1062V56H52.0531ZM69.703 56.2649C68.555 56.2649 67.5478 55.9917 66.6813 55.4453C65.8204 54.8989 65.147 54.1346 64.6614 53.1522C64.1812 52.1698 63.9411 51.0218 63.9411 49.7083C63.9411 48.3837 64.1812 47.2275 64.6614 46.2396C65.147 45.2517 65.8204 44.4845 66.6813 43.9381C67.5478 43.3917 68.555 43.1185 69.703 43.1185C70.851 43.1185 71.8554 43.3917 72.7164 43.9381C73.5829 44.4845 74.2562 45.2517 74.7364 46.2396C75.2221 47.2275 75.4649 48.3837 75.4649 49.7083C75.4649 51.0218 75.2221 52.1698 74.7364 53.1522C74.2562 54.1346 73.5829 54.8989 72.7164 55.4453C71.8554 55.9917 70.851 56.2649 69.703 56.2649ZM69.703 54.5099C70.575 54.5099 71.2925 54.2863 71.8554 53.8393C72.4184 53.3922 72.8351 52.8045 73.1055 52.076C73.3759 51.3474 73.5111 50.5582 73.5111 49.7083C73.5111 48.8584 73.3759 48.0664 73.1055 47.3323C72.8351 46.5983 72.4184 46.005 71.8554 45.5524C71.2925 45.0999 70.575 44.8736 69.703 44.8736C68.831 44.8736 68.1135 45.0999 67.5506 45.5524C66.9876 46.005 66.5709 46.5983 66.3005 47.3323C66.0301 48.0664 65.8949 48.8584 65.8949 49.7083C65.8949 50.5582 66.0301 51.3474 66.3005 52.076C66.5709 52.8045 66.9876 53.3922 67.5506 53.8393C68.1135 54.2863 68.831 54.5099 69.703 54.5099ZM83.6131 56.2649C82.4651 56.2649 81.4579 55.9917 80.5914 55.4453C79.7304 54.8989 79.0571 54.1346 78.5714 53.1522C78.0913 52.1698 77.8512 51.0218 77.8512 49.7083C77.8512 48.3837 78.0913 47.2275 78.5714 46.2396C79.0571 45.2517 79.7304 44.4845 80.5914 43.9381C81.4579 43.3917 82.4651 43.1185 83.6131 43.1185C84.761 43.1185 85.7655 43.3917 86.6265 43.9381C87.493 44.4845 88.1663 45.2517 88.6465 46.2396C89.1321 47.2275 89.375 48.3837 89.375 49.7083C89.375 51.0218 89.1321 52.1698 88.6465 53.1522C88.1663 54.1346 87.493 54.8989 86.6265 55.4453C85.7655 55.9917 84.761 56.2649 83.6131 56.2649ZM83.6131 54.5099C84.4851 54.5099 85.2026 54.2863 85.7655 53.8393C86.3285 53.3922 86.7451 52.8045 87.0156 52.076C87.286 51.3474 87.4212 50.5582 87.4212 49.7083C87.4212 48.8584 87.286 48.0664 87.0156 47.3323C86.7451 46.5983 86.3285 46.005 85.7655 45.5524C85.2026 45.0999 84.4851 44.8736 83.6131 44.8736C82.7411 44.8736 82.0236 45.0999 81.4606 45.5524C80.8977 46.005 80.481 46.5983 80.2106 47.3323C79.9402 48.0664 79.8049 48.8584 79.8049 49.7083C79.8049 50.5582 79.9402 51.3474 80.2106 52.076C80.481 52.8045 80.8977 53.3922 81.4606 53.8393C82.0236 54.2863 82.7411 54.5099 83.6131 54.5099ZM97.1589 56.2649C96.0992 56.2649 95.1638 55.9972 94.3525 55.4619C93.5412 54.921 92.9065 54.1594 92.4484 53.177C91.9903 52.1891 91.7613 51.0218 91.7613 49.6752C91.7613 48.3396 91.9903 47.1806 92.4484 46.1982C92.9065 45.2158 93.5439 44.4569 94.3607 43.9216C95.1776 43.3862 96.1213 43.1185 97.192 43.1185C98.0199 43.1185 98.6739 43.2565 99.154 43.5325C99.6397 43.8029 100.009 44.112 100.263 44.4597C100.523 44.8018 100.724 45.0833 100.868 45.3041H101.033V39.0455H102.987V56H101.099V54.0463H100.868C100.724 54.2781 100.52 54.5706 100.255 54.9238C99.9902 55.2715 99.6121 55.5833 99.1209 55.8593C98.6297 56.1297 97.9757 56.2649 97.1589 56.2649ZM97.4238 54.5099C98.2075 54.5099 98.8698 54.3057 99.4107 53.8972C99.9515 53.4833 100.363 52.9121 100.644 52.1836C100.926 51.4495 101.066 50.6024 101.066 49.6421C101.066 48.6928 100.928 47.8622 100.652 47.1502C100.376 46.4327 99.9681 45.8753 99.4272 45.4779C98.8864 45.075 98.2186 44.8736 97.4238 44.8736C96.596 44.8736 95.9061 45.0861 95.3542 45.511C94.8078 45.9305 94.3966 46.5017 94.1207 47.2247C93.8502 47.9422 93.715 48.748 93.715 49.6421C93.715 50.5472 93.853 51.3695 94.1289 52.1091C94.4104 52.8431 94.8243 53.4281 95.3707 53.8641C95.9226 54.2946 96.607 54.5099 97.4238 54.5099ZM118.89 56H113.658V39.0455H119.122C120.767 39.0455 122.174 39.3849 123.344 40.0637C124.514 40.7371 125.411 41.7057 126.035 42.9695C126.658 44.2279 126.97 45.7346 126.97 47.4896C126.97 49.2557 126.655 50.7762 126.026 52.0511C125.397 53.3205 124.481 54.2974 123.278 54.9817C122.075 55.6606 120.612 56 118.89 56ZM115.711 54.1787H118.758C120.16 54.1787 121.321 53.9083 122.243 53.3674C123.165 52.8265 123.852 52.0566 124.304 51.0577C124.757 50.0587 124.983 48.8694 124.983 47.4896C124.983 46.1209 124.76 44.9426 124.313 43.9547C123.866 42.9612 123.198 42.1996 122.309 41.6698C121.421 41.1344 120.314 40.8668 118.989 40.8668H115.711V54.1787ZM130.149 56V43.2841H132.037V45.2047H132.169C132.401 44.5756 132.82 44.0651 133.427 43.6732C134.034 43.2814 134.719 43.0854 135.48 43.0854C135.624 43.0854 135.803 43.0882 136.019 43.0937C136.234 43.0992 136.397 43.1075 136.507 43.1185V45.1054C136.441 45.0888 136.289 45.064 136.052 45.0309C135.82 44.9923 135.574 44.9729 135.315 44.9729C134.697 44.9729 134.145 45.1026 133.659 45.362C133.179 45.6159 132.798 45.9691 132.517 46.4217C132.241 46.8687 132.103 47.3792 132.103 47.9532V56H130.149ZM138.823 56V43.2841H140.777V56H138.823ZM139.816 41.1648C139.436 41.1648 139.107 41.0351 138.831 40.7757C138.561 40.5163 138.426 40.2045 138.426 39.8402C138.426 39.476 138.561 39.1641 138.831 38.9047C139.107 38.6453 139.436 38.5157 139.816 38.5157C140.197 38.5157 140.523 38.6453 140.793 38.9047C141.069 39.1641 141.207 39.476 141.207 39.8402C141.207 40.2045 141.069 40.5163 140.793 40.7757C140.523 41.0351 140.197 41.1648 139.816 41.1648ZM146.309 48.3506V56H144.355V43.2841H146.243V45.271H146.408C146.706 44.6252 147.159 44.1064 147.766 43.7146C148.373 43.3172 149.157 43.1185 150.117 43.1185C150.978 43.1185 151.731 43.2951 152.377 43.6484C153.023 43.9961 153.525 44.5259 153.884 45.2379C154.242 45.9443 154.422 46.8384 154.422 47.9201V56H152.468V48.0526C152.468 47.0536 152.209 46.2754 151.69 45.718C151.171 45.1551 150.459 44.8736 149.554 44.8736C148.93 44.8736 148.373 45.0088 147.882 45.2792C147.396 45.5497 147.012 45.9443 146.731 46.4631C146.45 46.9819 146.309 47.611 146.309 48.3506ZM159.813 51.364L159.78 48.9467H160.177L165.741 43.2841H168.158L162.231 49.2778H162.065L159.813 51.364ZM157.992 56V39.0455H159.946V56H157.992ZM166.072 56L161.105 49.7083L162.495 48.3506L168.555 56H166.072Z" fill="black"/>
<g clip-path="url(#clip0_1148_595)">
<path d="M225 147.5C228.59 147.5 231.5 144.59 231.5 141C231.5 137.41 228.59 134.5 225 134.5C221.41 134.5 218.5 137.41 218.5 141C218.5 144.59 221.41 147.5 225 147.5Z" stroke="black" stroke-linecap="round" stroke-linejoin="round"/>
<path d="M225 143C226.105 143 227 142.105 227 141C227 139.895 226.105 139 225 139C223.895 139 223 139.895 223 141C223 142.105 223.895 143 225 143Z" stroke="black" stroke-linecap="round" stroke-linejoin="round"/>
<path d="M229.5 140.5L229 141.5" stroke="black" stroke-linecap="round" stroke-linejoin="round"/>
<path d="M221 143L222 144" stroke="black" stroke-linecap="round" stroke-linejoin="round"/>
<path d="M226 136.5L227 137.5" stroke="black" stroke-linecap="round" stroke-linejoin="round"/>
<path d="M221.5 138.75C221.362 138.75 221.25 138.638 221.25 138.5C221.25 138.362 221.362 138.25 221.5 138.25" stroke="black"/>
<path d="M221.5 138.75C221.638 138.75 221.75 138.638 221.75 138.5C221.75 138.362 221.638 138.25 221.5 138.25" stroke="black"/>
<path d="M226.5 145.25C226.362 145.25 226.25 145.138 226.25 145C226.25 144.862 226.362 144.75 226.5 144.75" stroke="black"/>
<path d="M226.5 145.25C226.638 145.25 226.75 145.138 226.75 145C226.75 144.862 226.638 144.75 226.5 144.75" stroke="black"/>
</g>
<path d="M52.6786 137H61.3214M57 142.5L51.6588 135.702C51.5559 135.571 51.5 135.41 51.5 135.243C51.5 134.833 51.8327 134.5 52.243 134.5H61.757C62.1673 134.5 62.5 134.833 62.5 135.243C62.5 135.41 62.4441 135.571 62.3412 135.702L57 142.5Z" stroke="black" stroke-linecap="round" stroke-linejoin="round"/>
<path d="M57 142.5V147.5" stroke="black" stroke-linecap="round" stroke-linejoin="round"/>
<path d="M54 147.5H60" stroke="black" stroke-linecap="round" stroke-linejoin="round"/>
<g clip-path="url(#clip1_1148_595)">
<path d="M230.5 98.5H219.5C218.948 98.5 218.5 98.9477 218.5 99.5V104.5C218.5 105.052 218.948 105.5 219.5 105.5H230.5C231.052 105.5 231.5 105.052 231.5 104.5V99.5C231.5 98.9477 231.052 98.5 230.5 98.5Z" stroke="black" stroke-linecap="round" stroke-linejoin="round"/>
<path d="M221.5 98.5C222.605 98.5 223.5 97.6046 223.5 96.5C223.5 95.3954 222.605 94.5 221.5 94.5C220.395 94.5 219.5 95.3954 219.5 96.5C219.5 97.6046 220.395 98.5 221.5 98.5Z" stroke="black" stroke-linecap="round" stroke-linejoin="round"/>
<path d="M218.5 101.5H231.5" stroke="black" stroke-linecap="round" stroke-linejoin="round"/>
<path d="M221.5 94.5C221.5 94.5 221.5 92.5 223 92.5" stroke="black" stroke-linecap="round" stroke-linejoin="round"/>
</g>
<g clip-path="url(#clip2_1148_595)">
<path d="M102.536 144.535C99.9972 147.074 96.3565 147.549 94.4039 145.596C92.4512 143.643 92.9261 140.003 95.4645 137.464C98.0029 134.926 101.644 134.451 103.596 136.404C105.549 138.356 105.074 141.997 102.536 144.535Z" stroke="black" stroke-linecap="round" stroke-linejoin="round"/>
<path d="M103.596 136.404C103.596 136.404 103.243 138.879 101.828 140.293C100.414 141.707 97.5858 140.293 96.1716 141.707C94.7574 143.121 94.4038 145.596 94.4038 145.596" stroke="black" stroke-linecap="round" stroke-linejoin="round"/>
</g>
<path d="M187.5 137H178.5C177.948 137 177.5 137.448 177.5 138V140C177.5 140.552 177.948 141 178.5 141H187.5C188.052 141 188.5 140.552 188.5 140V138C188.5 137.448 188.052 137 187.5 137Z" stroke="black" stroke-linecap="round" stroke-linejoin="round"/>
<path d="M187.5 137L186.5 134.5H179.5L178.5 137" stroke="black" stroke-linecap="round" stroke-linejoin="round"/>
<path d="M187.5 141L186.5 147.5H179.5L178.5 141" stroke="black" stroke-linecap="round" stroke-linejoin="round"/>
<g clip-path="url(#clip3_1148_595)">
<path d="M389.36 105.5C390.796 105.5 391.96 104.336 391.96 102.9C391.96 101.464 390.796 100.3 389.36 100.3C387.924 100.3 386.76 101.464 386.76 102.9C386.76 104.336 387.924 105.5 389.36 105.5Z" stroke="black" stroke-linecap="round" stroke-linejoin="round"/>
<path d="M396.64 104.46C398.076 104.46 399.24 103.296 399.24 101.86C399.24 100.424 398.076 99.26 396.64 99.26C395.204 99.26 394.04 100.424 394.04 101.86C394.04 103.296 395.204 104.46 396.64 104.46Z" stroke="black" stroke-linecap="round" stroke-linejoin="round"/>
<path d="M395.41 99.57C393.39 97.7518 392.165 95.2127 392 92.5C390.36 94.7748 389.453 97.496 389.4 100.3" stroke="black" stroke-linecap="round" stroke-linejoin="round"/>
<path d="M389.36 92.5H394.56" stroke="black" stroke-linecap="round" stroke-linejoin="round"/>
</g>
<g clip-path="url(#clip4_1148_595)">
<path d="M134.5 99.5H147.5" stroke="black" stroke-linecap="round" stroke-linejoin="round"/>
<path d="M138 92.5H144C144.928 92.5 145.819 92.8687 146.475 93.5251C147.131 94.1815 147.5 95.0717 147.5 96C147.5 96.2652 147.395 96.5196 147.207 96.7071C147.02 96.8946 146.765 97 146.5 97H135.5C135.235 97 134.98 96.8946 134.793 96.7071C134.605 96.5196 134.5 96.2652 134.5 96C134.5 95.0717 134.869 94.1815 135.525 93.5251C136.182 92.8687 137.072 92.5 138 92.5Z" stroke="black" stroke-linecap="round" stroke-linejoin="round"/>
<path d="M147 102H141L139.5 103.5L136.5 102H135C134.867 102 134.74 102.053 134.646 102.146C134.553 102.24 134.5 102.367 134.5 102.5C134.5 103.296 134.816 104.059 135.379 104.621C135.941 105.184 136.704 105.5 137.5 105.5H144.5C145.296 105.5 146.059 105.184 146.621 104.621C147.184 104.059 147.5 103.296 147.5 102.5C147.5 102.367 147.447 102.24 147.354 102.146C147.26 102.053 147.133 102 147 102Z" stroke="black" stroke-linecap="round" stroke-linejoin="round"/>
</g>
<g clip-path="url(#clip5_1148_595)">
<path d="M176.865 102.397L179.466 104.998C179.856 105.389 180.489 105.389 180.88 104.998L186.173 99.7048L182.158 95.6895L176.865 100.983C176.474 101.374 176.474 102.007 176.865 102.397Z" stroke="black" stroke-linecap="round" stroke-linejoin="round"/>
<path d="M176.6 101.562L181.978 102.971C182.718 103.165 183.393 102.489 183.199 101.75L181.723 96.1289" stroke="black" stroke-linecap="round" stroke-linejoin="round"/>
<path d="M182.648 96.1797C182.77 95.9886 183.009 95.6784 183.195 95.529C183.538 95.2553 183.939 95.1051 184.345 95.0725C185.021 95.0182 185.71 95.2895 186.166 95.8587C186.895 96.77 186.748 98.1 185.836 98.8292L185.539 99.0664" stroke="black" stroke-linecap="round"/>
<path d="M182.459 96.0034C181.762 95.3063 181.763 94.1767 182.459 93.4802C183.023 92.9169 183.871 92.8066 184.543 93.154L184.598 93.0963C184.961 92.7335 185.441 92.5598 185.916 92.5741C186.354 92.5883 186.788 92.7626 187.122 93.0963C187.437 93.4117 187.61 93.8168 187.64 94.2299C188.049 94.2619 188.454 94.4287 188.767 94.7418C189.464 95.4389 189.464 96.5684 188.767 97.2649C188.746 97.2855 188.727 97.3026 188.707 97.3226C189.054 97.9945 188.946 98.8407 188.383 99.4041C187.687 100.101 186.557 100.101 185.86 99.4041" stroke="black" stroke-linejoin="round"/>
</g>
<path d="M265.5 97C265.5 96.6022 265.658 96.2206 265.939 95.9393C266.221 95.658 266.602 95.5 267 95.5C267.398 95.5 267.779 95.658 268.061 95.9393C268.342 96.2206 268.5 96.6022 268.5 97V104C268.5 104.398 268.658 104.779 268.939 105.061C269.221 105.342 269.602 105.5 270 105.5C270.398 105.5 270.779 105.342 271.061 105.061C271.342 104.779 271.5 104.398 271.5 104V97C271.5 95.8065 271.026 94.6619 270.182 93.818C269.338 92.9741 268.193 92.5 267 92.5C265.807 92.5 264.662 92.9741 263.818 93.818C262.974 94.6619 262.5 95.8065 262.5 97V98C262.5 98.3978 262.658 98.7794 262.939 99.0607C263.221 99.342 263.602 99.5 264 99.5C264.398 99.5 264.779 99.342 265.061 99.0607C265.342 98.7794 265.5 98.3978 265.5 98V97Z" stroke="black" stroke-linecap="round" stroke-linejoin="round"/>
<path d="M268.5 102L271.5 99" stroke="black" stroke-linecap="round" stroke-linejoin="round"/>
<path d="M268.42 96.5101L269.95 93.6001" stroke="black" stroke-linecap="round" stroke-linejoin="round"/>
<path d="M265.86 96.0199L263.03 94.8799" stroke="black" stroke-linecap="round" stroke-linejoin="round"/>
<g clip-path="url(#clip6_1148_595)">
<path d="M268.5 147.5V134.5C272.5 136.5 273 142 273 144H268.5" stroke="black" stroke-linecap="round" stroke-linejoin="round"/>
<path d="M263.5 134.5V147.5" stroke="black" stroke-linecap="round" stroke-linejoin="round"/>
<path d="M266 134.5V137C266 137.328 265.935 137.653 265.81 137.957C265.684 138.26 265.5 138.536 265.268 138.768C265.036 139 264.76 139.184 264.457 139.31C264.153 139.435 263.828 139.5 263.5 139.5C262.837 139.5 262.201 139.237 261.732 138.768C261.263 138.299 261 137.663 261 137V134.5" stroke="black" stroke-linecap="round" stroke-linejoin="round"/>
</g>
<g clip-path="url(#clip7_1148_595)">
<path d="M51.5 92.5H59.5C59.7652 92.5 60.0196 92.6054 60.2071 92.7929C60.3946 92.9804 60.5 93.2348 60.5 93.5V103.5C60.5 104.03 60.2893 104.539 59.9142 104.914C59.5391 105.289 59.0304 105.5 58.5 105.5H52.5C51.9696 105.5 51.4609 105.289 51.0858 104.914C50.7107 104.539 50.5 104.03 50.5 103.5V93.5C50.5 93.2348 50.6054 92.9804 50.7929 92.7929C50.9804 92.6054 51.2348 92.5 51.5 92.5Z" stroke="black" stroke-linecap="round" stroke-linejoin="round"/>
<path d="M60.5 95H62.5C62.7652 95 63.0196 95.1054 63.2071 95.2929C63.3946 95.4804 63.5 95.7348 63.5 96V100.5C63.5 100.765 63.3946 101.02 63.2071 101.207C63.0196 101.395 62.7652 101.5 62.5 101.5H60.5" stroke="black" stroke-linecap="round" stroke-linejoin="round"/>
<path d="M53.75 96V101.5" stroke="black" stroke-linecap="round" stroke-linejoin="round"/>
<path d="M57.25 96V101.5" stroke="black" stroke-linecap="round" stroke-linejoin="round"/>
</g>
<g clip-path="url(#clip8_1148_595)">
<path d="M102.5 103H104.5C105.052 103 105.5 102.552 105.5 102V99.5C105.5 98.9477 105.052 98.5 104.5 98.5H102.659" stroke="black" stroke-linecap="round" stroke-linejoin="round"/>
<path d="M94 98.8788V103.5C94 104.605 94.8954 105.5 96 105.5H100C101.105 105.5 102 104.605 102 103.5V98.8728" stroke="black" stroke-linecap="round" stroke-linejoin="round"/>
<path d="M94 98.872C93.1261 98.5631 92.5 97.7297 92.5 96.75C92.5 95.5074 93.5074 94.5 94.75 94.5C95.0228 94.5 95.2842 94.5485 95.5261 94.6374C95.7017 93.4286 96.7424 92.5 98 92.5C99.2576 92.5 100.298 93.4286 100.474 94.6374C100.716 94.5485 100.977 94.5 101.25 94.5C102.493 94.5 103.5 95.5074 103.5 96.75C103.5 97.9926 102.493 99 101.25 99H97V101C97 101.828 96.3284 102.5 95.5 102.5C94.6716 102.5 94 101.828 94 101V98.872Z" stroke="black" stroke-linecap="round" stroke-linejoin="round"/>
</g>
<path d="M137 139.5H142C142.265 139.5 142.52 139.605 142.707 139.793C142.895 139.98 143 140.235 143 140.5V145.5C143 146.03 142.789 146.539 142.414 146.914C142.039 147.289 141.53 147.5 141 147.5H138C137.47 147.5 136.961 147.289 136.586 146.914C136.211 146.539 136 146.03 136 145.5V140.5C136 140.235 136.105 139.98 136.293 139.793C136.48 139.605 136.735 139.5 137 139.5Z" stroke="black" stroke-linecap="round" stroke-linejoin="round"/>
<path d="M143 140.5H143.5C144.163 140.5 144.799 140.763 145.268 141.232C145.737 141.701 146 142.337 146 143C146 143.663 145.737 144.299 145.268 144.768C144.799 145.237 144.163 145.5 143.5 145.5H143" stroke="black" stroke-linecap="round" stroke-linejoin="round"/>
<path d="M138 134.5V136.5" stroke="black" stroke-linecap="round" stroke-linejoin="round"/>
<path d="M141 134.5V136.5" stroke="black" stroke-linecap="round" stroke-linejoin="round"/>
<g clip-path="url(#clip9_1148_595)">
<path d="M304.179 98.011L306.114 92.8801L309.767 93.9215L308.705 99.3016C308.438 100.657 307.069 101.495 305.741 101.116C304.412 100.737 303.691 99.3036 304.179 98.011Z" stroke="black" stroke-linecap="round" stroke-linejoin="round"/>
<path d="M305.742 101.115L304.668 104.881" stroke="black" stroke-linecap="round" stroke-linejoin="round"/>
<path d="M303.184 104.457L306.151 105.303" stroke="black" stroke-linecap="round" stroke-linejoin="round"/>
<path d="M305.148 95.4375L309.234 96.6133" stroke="black"/>
<path d="M310.567 100.963C311.072 101.213 311.67 101.284 312.259 101.116C313.588 100.737 314.309 99.3038 313.821 98.0112L311.886 92.8804L311.31 93.0445" stroke="black" stroke-linecap="round" stroke-linejoin="round"/>
<path d="M312.258 101.115L313.332 104.881" stroke="black" stroke-linecap="round" stroke-linejoin="round"/>
<path d="M314.816 104.457L311.849 105.303" stroke="black" stroke-linecap="round" stroke-linejoin="round"/>
<path d="M312.852 95.4492L311.183 95.9302" stroke="black" stroke-linecap="round" stroke-linejoin="round"/>
</g>
<path d="M396.353 140.467L393.485 147.164C393.444 147.263 393.375 147.348 393.286 147.408C393.197 147.468 393.092 147.5 392.985 147.5C392.878 147.5 392.773 147.468 392.684 147.408C392.595 147.348 392.526 147.263 392.485 147.164L389.637 140.467" stroke="black" stroke-linecap="round" stroke-linejoin="round"/>
<path d="M390.876 140.867C392.052 140.867 393.005 139.914 393.005 138.738C393.005 137.562 392.052 136.609 390.876 136.609C389.7 136.609 388.747 137.562 388.747 138.738C388.747 139.914 389.7 140.867 390.876 140.867Z" stroke="black" stroke-linecap="round" stroke-linejoin="round"/>
<path d="M390.876 136.619C390.876 136.057 391.099 135.518 391.497 135.121C391.894 134.723 392.433 134.5 392.995 134.5C393.557 134.5 394.096 134.723 394.493 135.121C394.891 135.518 395.114 136.057 395.114 136.619" stroke="black" stroke-linecap="round" stroke-linejoin="round"/>
<path d="M395.124 140.867C396.3 140.867 397.253 139.914 397.253 138.738C397.253 137.562 396.3 136.609 395.124 136.609C393.948 136.609 392.995 137.562 392.995 138.738C392.995 139.914 393.948 140.867 395.124 140.867Z" stroke="black" stroke-linecap="round" stroke-linejoin="round"/>
<g clip-path="url(#clip10_1148_595)">
<path d="M438.975 144.975C440.819 143.132 441.04 140.777 440.486 138.939C440.386 138.605 440.437 138.245 440.601 137.937C441.042 137.111 441.054 136.254 440.4 135.601C439.747 134.947 438.89 134.959 438.063 135.401C437.756 135.565 437.395 135.617 437.061 135.517C435.224 134.964 432.871 135.186 431.028 137.028C429.187 138.87 428.964 141.222 429.516 143.059C429.616 143.393 429.564 143.753 429.4 144.06C428.958 144.888 428.945 145.745 429.6 146.399C430.253 147.052 431.109 147.041 431.935 146.6C432.242 146.436 432.603 146.385 432.937 146.485C434.775 147.04 437.131 146.82 438.975 144.975Z" stroke="black"/>
<path d="M436.35 137.408C435.147 137.046 433.605 137.191 432.398 138.398C431.736 139.06 431.393 139.823 431.278 140.575" stroke="black" stroke-linecap="round"/>
</g>
<g clip-path="url(#clip11_1148_595)">
<path d="M430.243 94.2456V95.8081" stroke="black" stroke-linecap="round" stroke-linejoin="round"/>
<path d="M434.806 94.2456V95.8081" stroke="black" stroke-linecap="round" stroke-linejoin="round"/>
<path d="M432.525 93.0825V94.645" stroke="black" stroke-linecap="round" stroke-linejoin="round"/>
<path d="M440.464 97.557C440.991 97.557 441.419 97.1294 441.419 96.602C441.419 96.0745 440.991 95.647 440.464 95.647C439.937 95.647 439.509 96.0745 439.509 96.602C439.509 97.1294 439.937 97.557 440.464 97.557Z" stroke="black" stroke-linecap="round"/>
<path d="M438.841 100.677L439.053 100.77C440.532 101.471 440.942 102.376 440.942 103.621V103.918C440.942 104.47 440.494 104.918 439.942 104.918H429.64C429.313 104.918 429.006 104.757 428.88 104.455C428.603 103.786 428.281 102.442 429.118 100.77C430.328 98.3537 433.305 97.8231 435.212 98.8235L435.302 98.8693" stroke="black" stroke-linecap="round" stroke-linejoin="round"/>
<path d="M438.158 102.006C439.086 100.988 439.134 99.5212 438.266 98.7309C437.398 97.9406 435.943 98.1256 435.015 99.1441C434.173 100.069 434.056 101.362 434.691 102.184C434.755 102.268 434.828 102.346 434.908 102.419" stroke="black" stroke-linecap="round"/>
<path d="M439.806 97.2964L438.321 98.7811" stroke="black" stroke-linecap="round" stroke-linejoin="round"/>
</g>
<g clip-path="url(#clip12_1148_595)">
<path d="M353.09 92.77L353 92.75L344.75 97.61C344.678 97.6479 344.617 97.7037 344.574 97.7721C344.53 97.8404 344.504 97.9189 344.5 98V104.71C344.5 104.843 344.553 104.97 344.646 105.064C344.74 105.157 344.867 105.21 345 105.21H357C357.133 105.21 357.26 105.157 357.354 105.064C357.447 104.97 357.5 104.843 357.5 104.71V97.71C357.346 96.5389 356.843 95.4413 356.057 94.5602C355.27 93.679 354.236 93.0552 353.09 92.77Z" stroke="black" stroke-linecap="round" stroke-linejoin="round"/>
<path d="M344.59 97.75H357" stroke="black" stroke-linecap="round" stroke-linejoin="round"/>
<path d="M344.5 102.38L344.58 102.31C344.765 102.121 344.986 101.971 345.23 101.868C345.474 101.765 345.735 101.711 346 101.71C346.53 101.71 347.039 101.921 347.414 102.296C347.789 102.671 348 103.18 348 103.71C347.998 104.24 347.786 104.747 347.41 105.12" stroke="black" stroke-linecap="round" stroke-linejoin="round"/>
<path d="M353 102.75C353.828 102.75 354.5 102.078 354.5 101.25C354.5 100.422 353.828 99.75 353 99.75C352.172 99.75 351.5 100.422 351.5 101.25C351.5 102.078 352.172 102.75 353 102.75Z" stroke="black" stroke-linecap="round" stroke-linejoin="round"/>
</g>
<path d="M136.56 182L137.39 188.62C137.42 188.864 137.538 189.088 137.722 189.251C137.907 189.413 138.144 189.502 138.39 189.5H143.62C143.866 189.502 144.103 189.413 144.288 189.251C144.472 189.088 144.591 188.864 144.62 188.62L145.44 182" stroke="black" stroke-linecap="round" stroke-linejoin="round"/>
<path d="M144.64 179.12C144.758 179.089 144.878 179.072 145 179.07L144.96 179.06C145.358 179.06 145.739 179.218 146.021 179.499C146.302 179.781 146.46 180.162 146.46 180.56C146.46 180.958 146.302 181.339 146.021 181.621C145.739 181.902 145.358 182.06 144.96 182.06H137C136.602 182.06 136.221 181.912 135.939 181.631C135.658 181.349 135.5 180.968 135.5 180.57C135.5 180.172 135.658 179.791 135.939 179.509C136.221 179.228 136.602 179.07 137 179.07C137.128 179.07 137.256 179.087 137.38 179.12C137.289 178.901 137.241 178.667 137.24 178.43C137.258 177.912 137.477 177.421 137.85 177.061C138.223 176.701 138.721 176.5 139.24 176.5C139.602 176.501 139.957 176.6 140.267 176.787C140.576 176.974 140.83 177.241 141 177.56C141.17 177.241 141.424 176.974 141.733 176.787C142.043 176.6 142.398 176.501 142.76 176.5C143.282 176.495 143.785 176.693 144.163 177.054C144.54 177.415 144.762 177.908 144.78 178.43C144.779 178.667 144.731 178.901 144.64 179.12Z" stroke="black" stroke-linecap="round" stroke-linejoin="round"/>
<path d="M141 182V189.5" stroke="black"/>
<g clip-path="url(#clip13_1148_595)">
<path d="M312.6 140.5C313.925 140.5 315 139.157 315 137.5C315 135.843 313.925 134.5 312.6 134.5C311.274 134.5 310.2 135.843 310.2 137.5C310.2 139.157 311.274 140.5 312.6 140.5Z" stroke="black" stroke-linecap="round" stroke-linejoin="round"/>
<path d="M312.6 140.5V147.5" stroke="black" stroke-linecap="round" stroke-linejoin="round"/>
<path d="M305.5 134.5V147.5" stroke="black" stroke-linecap="round" stroke-linejoin="round"/>
<path d="M308 134.5V137C308 137.328 307.935 137.653 307.81 137.957C307.684 138.26 307.5 138.536 307.268 138.768C307.036 139 306.76 139.184 306.457 139.31C306.153 139.435 305.828 139.5 305.5 139.5C304.837 139.5 304.201 139.237 303.732 138.768C303.263 138.299 303 137.663 303 137V134.5" stroke="black" stroke-linecap="round" stroke-linejoin="round"/>
</g>
<path d="M63 178.5H51C50.7239 178.5 50.5 178.724 50.5 179V187C50.5 187.276 50.7239 187.5 51 187.5H63C63.2761 187.5 63.5 187.276 63.5 187V179C63.5 178.724 63.2761 178.5 63 178.5Z" stroke="black" stroke-linecap="round" stroke-linejoin="round"/>
<path d="M58.5 180.5H53C52.7239 180.5 52.5 180.724 52.5 181V185C52.5 185.276 52.7239 185.5 53 185.5H58.5C58.7761 185.5 59 185.276 59 185V181C59 180.724 58.7761 180.5 58.5 180.5Z" stroke="black" stroke-linecap="round" stroke-linejoin="round"/>
<path d="M61 181H61.5" stroke="black" stroke-linecap="round" stroke-linejoin="round"/>
<path d="M61 183H61.5" stroke="black" stroke-linecap="round" stroke-linejoin="round"/>
<path d="M354 134.5H348C347.448 134.5 347 134.948 347 135.5V142.5C347 143.052 347.448 143.5 348 143.5H354C354.552 143.5 355 143.052 355 142.5V135.5C355 134.948 354.552 134.5 354 134.5Z" stroke="black" stroke-linecap="round" stroke-linejoin="round"/>
<path d="M349.5 137V140.5" stroke="black" stroke-linecap="round" stroke-linejoin="round"/>
<path d="M352.5 137V140.5" stroke="black" stroke-linecap="round" stroke-linejoin="round"/>
<path d="M352.5 143.5V146C352.5 146.398 352.342 146.779 352.061 147.061C351.779 147.342 351.398 147.5 351 147.5C350.602 147.5 350.221 147.342 349.939 147.061C349.658 146.779 349.5 146.398 349.5 146V143.5" stroke="black" stroke-linecap="round" stroke-linejoin="round"/>
<path d="M95.5 182.5V182C95.5 180.067 97.067 178.5 99 178.5C100.933 178.5 102.5 180.067 102.5 182V182.5L102.066 188.571C102.029 189.095 101.594 189.5 101.069 189.5H96.9311C96.4065 189.5 95.971 189.095 95.9337 188.571L95.5 182.5Z" stroke="black" stroke-linecap="round" stroke-linejoin="round"/>
<path d="M94.5 182.5H103.5" stroke="black" stroke-linecap="round" stroke-linejoin="round"/>
<path d="M100.72 178.951L101.5 176.5" stroke="black" stroke-linecap="round" stroke-linejoin="round"/>
<path d="M95.6838 185H102.286" stroke="black" stroke-linecap="round" stroke-linejoin="round"/>
<g clip-path="url(#clip14_1148_595)">
<path d="M310.5 189.5C313.261 189.5 315.5 187.261 315.5 184.5C315.5 181.739 313.261 179.5 310.5 179.5H305V180.5C305 182.709 306.791 184.5 309 184.5H310.5C311.605 184.5 312.5 185.395 312.5 186.5C312.5 187.605 311.605 188.5 310.5 188.5" stroke="black" stroke-linecap="round" stroke-linejoin="round"/>
<path d="M310.5 179.5C310.5 179.5 311.5 180 311.5 182C311.5 184 310.5 184.5 310.5 184.5" stroke="black" stroke-linecap="round" stroke-linejoin="round"/>
<path d="M307.833 189.5H310.5V188.75C310.5 187.784 309.716 187 308.75 187H308.667C307.746 187 307 187.746 307 188.667C307 189.127 307.373 189.5 307.833 189.5Z" stroke="black" stroke-linecap="round" stroke-linejoin="round"/>
<path d="M305 179.5H304C303.172 179.5 302.5 178.828 302.5 178C302.5 177.172 303.172 176.5 304 176.5H308.5" stroke="black" stroke-linecap="round" stroke-linejoin="round"/>
<path d="M308.25 182C308.112 182 308 181.888 308 181.75C308 181.612 308.112 181.5 308.25 181.5" stroke="black" stroke-linecap="round" stroke-linejoin="round"/>
<path d="M308.25 182C308.388 182 308.5 181.888 308.5 181.75C308.5 181.612 308.388 181.5 308.25 181.5" stroke="black" stroke-linecap="round" stroke-linejoin="round"/>
<path d="M312.5 186C314 185.5 315 184.5 315 182.5" stroke="black" stroke-linecap="round" stroke-linejoin="round"/>
</g>
<path d="M228.5 176.5H221.5C220.948 176.5 220.5 176.948 220.5 177.5V187.5C220.5 188.052 220.948 188.5 221.5 188.5H228.5C229.052 188.5 229.5 188.052 229.5 187.5V177.5C229.5 176.948 229.052 176.5 228.5 176.5Z" stroke="black" stroke-linecap="round" stroke-linejoin="round"/>
<path d="M220.5 182H229.5" stroke="black" stroke-linecap="round" stroke-linejoin="round"/>
<path d="M222.5 179V179.5" stroke="black" stroke-linecap="round" stroke-linejoin="round"/>
<path d="M222 188.5V189.5" stroke="black" stroke-linecap="round" stroke-linejoin="round"/>
<path d="M228 188.5V189.5" stroke="black" stroke-linecap="round" stroke-linejoin="round"/>
<path d="M267 179C268.724 179 270.377 179.685 271.596 180.904C272.815 182.123 273.5 183.776 273.5 185.5C273.5 185.765 273.395 186.02 273.207 186.207C273.02 186.395 272.765 186.5 272.5 186.5H261.5C261.235 186.5 260.98 186.395 260.793 186.207C260.605 186.02 260.5 185.765 260.5 185.5C260.5 183.776 261.185 182.123 262.404 180.904C263.623 179.685 265.276 179 267 179Z" stroke="black" stroke-linecap="round" stroke-linejoin="round"/>
<path d="M267 179V177.5" stroke="black" stroke-linecap="round" stroke-linejoin="round"/>
<path d="M260.5 188.5H273.5" stroke="black" stroke-linecap="round" stroke-linejoin="round"/>
<g clip-path="url(#clip15_1148_595)">
<path d="M177.68 180.883C177.263 181.393 176.625 182.484 176.625 184.383C176.625 187.696 179.686 189 183 189C186.314 189 189.375 187.696 189.375 184.383C189.375 182.484 188.737 181.393 188.32 180.883C188.119 180.637 187.967 180.337 187.967 180.019V177L184.817 178.5C184.817 178.5 183.633 178.22 183 178.22C182.367 178.22 181.183 178.5 181.183 178.5L178.033 177V180.019C178.033 180.337 177.881 180.637 177.68 180.883Z" stroke="black" stroke-linecap="round" stroke-linejoin="round"/>
<path d="M185.938 184.969C185.938 186.312 184.622 187.125 183 187.125C181.378 187.125 180.062 186.375 180.062 184.969C180.062 183.562 181.378 182.812 183 182.812C184.622 182.812 185.938 183.625 185.938 184.969Z" stroke="black"/>
<path d="M180.188 181.75C180.118 181.75 180.062 181.694 180.062 181.625C180.062 181.556 180.118 181.5 180.188 181.5" stroke="black" stroke-linecap="round" stroke-linejoin="round"/>
<path d="M180.188 181.75C180.257 181.75 180.312 181.694 180.312 181.625C180.312 181.556 180.257 181.5 180.188 181.5" stroke="black" stroke-linecap="round" stroke-linejoin="round"/>
<path d="M185.812 181.75C185.882 181.75 185.938 181.694 185.938 181.625C185.938 181.556 185.882 181.5 185.812 181.5" stroke="black" stroke-linecap="round" stroke-linejoin="round"/>
<path d="M185.812 181.75C185.743 181.75 185.688 181.694 185.688 181.625C185.688 181.556 185.743 181.5 185.812 181.5" stroke="black" stroke-linecap="round" stroke-linejoin="round"/>
<path d="M182 185.219C181.931 185.219 181.875 185.163 181.875 185.094C181.875 185.025 181.931 184.969 182 184.969" stroke="black" stroke-linecap="round" stroke-linejoin="round"/>
<path d="M182 185.219C182.069 185.219 182.125 185.163 182.125 185.094C182.125 185.025 182.069 184.969 182 184.969" stroke="black" stroke-linecap="round" stroke-linejoin="round"/>
<path d="M184 185.219C184.069 185.219 184.125 185.163 184.125 185.094C184.125 185.025 184.069 184.969 184 184.969" stroke="black" stroke-linecap="round" stroke-linejoin="round"/>
<path d="M184 185.219C183.931 185.219 183.875 185.163 183.875 185.094C183.875 185.025 183.931 184.969 184 184.969" stroke="black" stroke-linecap="round" stroke-linejoin="round"/>
</g>
<path d="M349 176.5C349.833 176.5 351 177.8 351 179C351 177.8 352.167 176.5 353 176.5" stroke="black" stroke-linecap="round" stroke-linejoin="round"/>
<path d="M346.5 183C346.5 180.2 348.5 179 351 179C353.5 179 355.5 180.2 355.5 183C355.5 186.5 353 189.5 351 189.5C349 189.5 346.5 186.5 346.5 183Z" stroke="black" stroke-linecap="round" stroke-linejoin="round"/>
<path d="M348.75 183C348.612 183 348.5 182.888 348.5 182.75C348.5 182.612 348.612 182.5 348.75 182.5" stroke="black"/>
<path d="M348.75 183C348.888 183 349 182.888 349 182.75C349 182.612 348.888 182.5 348.75 182.5" stroke="black"/>
<path d="M349.75 186.058C349.612 186.058 349.5 185.946 349.5 185.808C349.5 185.67 349.612 185.558 349.75 185.558" stroke="black"/>
<path d="M349.75 186.058C349.888 186.058 350 185.946 350 185.808C350 185.67 349.888 185.558 349.75 185.558" stroke="black"/>
<path d="M352.25 186.058C352.112 186.058 352 185.946 352 185.808C352 185.67 352.112 185.558 352.25 185.558" stroke="black"/>
<path d="M352.25 186.058C352.388 186.058 352.5 185.946 352.5 185.808C352.5 185.67 352.388 185.558 352.25 185.558" stroke="black"/>
<path d="M351 183C350.862 183 350.75 182.888 350.75 182.75C350.75 182.612 350.862 182.5 351 182.5" stroke="black"/>
<path d="M351 183C351.138 183 351.25 182.888 351.25 182.75C351.25 182.612 351.138 182.5 351 182.5" stroke="black"/>
<path d="M353.25 183C353.112 183 353 182.888 353 182.75C353 182.612 353.112 182.5 353.25 182.5" stroke="black"/>
<path d="M353.25 183C353.388 183 353.5 182.888 353.5 182.75C353.5 182.612 353.388 182.5 353.25 182.5" stroke="black"/>
<g clip-path="url(#clip16_1148_595)">
<path d="M388 180H396.5V185C396.5 185.53 396.289 186.039 395.914 186.414C395.539 186.789 395.03 187 394.5 187H389.5C388.97 187 388.461 186.789 388.086 186.414C387.711 186.039 387.5 185.53 387.5 185V180.5C387.5 180.367 387.553 180.24 387.646 180.146C387.74 180.053 387.867 180 388 180Z" stroke="black" stroke-linecap="round" stroke-linejoin="round"/>
<path d="M386.5 189.5H399.5" stroke="black" stroke-linecap="round" stroke-linejoin="round"/>
<path d="M396.5 180H397.5C398.03 180 398.539 180.211 398.914 180.586C399.289 180.961 399.5 181.47 399.5 182C399.5 182.53 399.289 183.039 398.914 183.414C398.539 183.789 398.03 184 397.5 184H396.5" stroke="black" stroke-linecap="round" stroke-linejoin="round"/>
<path d="M389 176.5V177.5" stroke="black" stroke-linecap="round" stroke-linejoin="round"/>
<path d="M394 176.5V177.5" stroke="black" stroke-linecap="round" stroke-linejoin="round"/>
<path d="M391.5 176.5V177.5" stroke="black" stroke-linecap="round" stroke-linejoin="round"/>
</g>
<path d="M95.67 218.5C95.4228 218.499 95.1838 218.589 94.9991 218.753C94.8144 218.917 94.6972 219.144 94.67 219.39C94.56 220.45 94.5 222.05 94.5 222.5C94.5 225.12 96.5 226.5 99 226.5C101.5 226.5 103.5 225.12 103.5 222.5C103.5 222.05 103.44 220.5 103.33 219.39C103.303 219.144 103.186 218.917 103.001 218.753C102.816 218.589 102.577 218.499 102.33 218.5H95.67Z" stroke="black" stroke-linecap="round" stroke-linejoin="round"/>
<path d="M94.5288 221.5H103.47" stroke="black" stroke-linecap="round" stroke-linejoin="round"/>
<path d="M99 226.5V231.5" stroke="black" stroke-linecap="round" stroke-linejoin="round"/>
<path d="M97 231.5H101" stroke="black" stroke-linecap="round" stroke-linejoin="round"/>
<path d="M438.5 180C438.5 179.672 438.435 179.347 438.31 179.043C438.184 178.74 438 178.464 437.768 178.232C437.536 178 437.26 177.816 436.957 177.69C436.653 177.565 436.328 177.5 436 177.5H431C430.475 177.5 429.964 177.665 429.538 177.972C429.113 178.279 428.794 178.712 428.628 179.209C428.462 179.707 428.457 180.245 428.614 180.745C428.77 181.246 429.08 181.685 429.5 182V187.5C429.5 187.765 429.605 188.02 429.793 188.207C429.98 188.395 430.235 188.5 430.5 188.5H436.5C436.765 188.5 437.02 188.395 437.207 188.207C437.395 188.02 437.5 187.765 437.5 187.5V182C437.811 181.768 438.063 181.466 438.237 181.119C438.411 180.771 438.501 180.388 438.5 180Z" stroke="black" stroke-linecap="round" stroke-linejoin="round"/>
<path d="M433 177.5H439C439.328 177.5 439.653 177.565 439.957 177.69C440.26 177.816 440.536 178 440.768 178.232C441 178.464 441.184 178.74 441.31 179.043C441.435 179.347 441.5 179.672 441.5 180C441.501 180.388 441.411 180.771 441.237 181.119C441.063 181.466 440.811 181.768 440.5 182V187.5C440.5 187.765 440.395 188.02 440.207 188.207C440.02 188.395 439.765 188.5 439.5 188.5H432.5" stroke="black" stroke-linecap="round" stroke-linejoin="round"/>
<path d="M440.5 182H437.5" stroke="black" stroke-linecap="round" stroke-linejoin="round"/>
<path d="M61.2 229.73C61.1433 230.22 60.9078 230.671 60.5387 230.998C60.1696 231.324 59.6929 231.503 59.2 231.5H54.78C54.2871 231.503 53.8104 231.324 53.4413 230.998C53.0722 230.671 52.8367 230.22 52.78 229.73L51.5 218.5H62.5L61.2 229.73Z" stroke="black" stroke-linecap="round" stroke-linejoin="round"/>
<path d="M51.96 222.5H62.04" stroke="black" stroke-linecap="round" stroke-linejoin="round"/>
<defs>
<clipPath id="clip0_1148_595">
<rect width="14" height="14" fill="white" transform="translate(218 134)"/>
</clipPath>
<clipPath id="clip1_1148_595">
<rect width="14" height="14" fill="white" transform="translate(218 92)"/>
</clipPath>
<clipPath id="clip2_1148_595">
<rect width="14" height="14" fill="white" transform="translate(92 134)"/>
</clipPath>
<clipPath id="clip3_1148_595">
<rect width="14" height="14" fill="white" transform="translate(386 92)"/>
</clipPath>
<clipPath id="clip4_1148_595">
<rect width="14" height="14" fill="white" transform="translate(134 92)"/>
</clipPath>
<clipPath id="clip5_1148_595">
<rect width="14" height="14" fill="white" transform="translate(176 92)"/>
</clipPath>
<clipPath id="clip6_1148_595">
<rect width="14" height="14" fill="white" transform="translate(260 134)"/>
</clipPath>
<clipPath id="clip7_1148_595">
<rect width="14" height="14" fill="white" transform="translate(50 92)"/>
</clipPath>
<clipPath id="clip8_1148_595">
<rect width="14" height="14" fill="white" transform="translate(92 92)"/>
</clipPath>
<clipPath id="clip9_1148_595">
<rect width="14" height="14" fill="white" transform="translate(302 92)"/>
</clipPath>
<clipPath id="clip10_1148_595">
<rect width="14" height="14" fill="white" transform="translate(428 134)"/>
</clipPath>
<clipPath id="clip11_1148_595">
<rect width="14" height="14" fill="white" transform="translate(428 92)"/>
</clipPath>
<clipPath id="clip12_1148_595">
<rect width="14" height="14" fill="white" transform="translate(344 92)"/>
</clipPath>
<clipPath id="clip13_1148_595">
<rect width="14" height="14" fill="white" transform="translate(302 134)"/>
</clipPath>
<clipPath id="clip14_1148_595">
<rect width="14" height="14" fill="white" transform="translate(302 176)"/>
</clipPath>
<clipPath id="clip15_1148_595">
<rect width="14" height="14" fill="white" transform="translate(176 176)"/>
</clipPath>
<clipPath id="clip16_1148_595">
<rect width="14" height="14" fill="white" transform="translate(386 176)"/>
</clipPath>
</defs>
</svg>
