<svg width="492" height="188" viewBox="0 0 492 188" fill="none" xmlns="http://www.w3.org/2000/svg">
<rect width="492" height="188" rx="10" fill="black"/>
<path d="M53.1327 55L48.4967 38.0455H50.5829L54.1261 51.8541H54.2917L57.9012 38.0455H60.2192L63.8286 51.8541H63.9942L67.5374 38.0455H69.6236L64.9876 55H62.8683L59.1264 41.4894H58.9939L55.252 55H53.1327ZM75.8988 55.2649C74.7508 55.2649 73.7436 54.9917 72.8771 54.4453C72.0161 53.8989 71.3428 53.1346 70.8571 52.1522C70.377 51.1698 70.1369 50.0218 70.1369 48.7083C70.1369 47.3837 70.377 46.2275 70.8571 45.2396C71.3428 44.2517 72.0161 43.4845 72.8771 42.9381C73.7436 42.3917 74.7508 42.1185 75.8988 42.1185C77.0468 42.1185 78.0512 42.3917 78.9122 42.9381C79.7787 43.4845 80.452 44.2517 80.9322 45.2396C81.4178 46.2275 81.6607 47.3837 81.6607 48.7083C81.6607 50.0218 81.4178 51.1698 80.9322 52.1522C80.452 53.1346 79.7787 53.8989 78.9122 54.4453C78.0512 54.9917 77.0468 55.2649 75.8988 55.2649ZM75.8988 53.5099C76.7708 53.5099 77.4883 53.2863 78.0512 52.8393C78.6142 52.3922 79.0309 51.8045 79.3013 51.076C79.5717 50.3474 79.7069 49.5582 79.7069 48.7083C79.7069 47.8584 79.5717 47.0664 79.3013 46.3323C79.0309 45.5983 78.6142 45.005 78.0512 44.5524C77.4883 44.0999 76.7708 43.8736 75.8988 43.8736C75.0268 43.8736 74.3093 44.0999 73.7464 44.5524C73.1834 45.005 72.7667 45.5983 72.4963 46.3323C72.2259 47.0664 72.0906 47.8584 72.0906 48.7083C72.0906 49.5582 72.2259 50.3474 72.4963 51.076C72.7667 51.8045 73.1834 52.3922 73.7464 52.8393C74.3093 53.2863 75.0268 53.5099 75.8988 53.5099ZM84.643 55V42.2841H86.5306V44.2047H86.663C86.8948 43.5756 87.3143 43.0651 87.9214 42.6732C88.5284 42.2814 89.2128 42.0854 89.9744 42.0854C90.1179 42.0854 90.2973 42.0882 90.5125 42.0937C90.7278 42.0992 90.8906 42.1075 91.001 42.1185V44.1054C90.9348 44.0888 90.783 44.064 90.5457 44.0309C90.3139 43.9923 90.0683 43.9729 89.8089 43.9729C89.1907 43.9729 88.6388 44.1026 88.1532 44.362C87.673 44.6159 87.2922 44.9691 87.0107 45.4217C86.7348 45.8687 86.5968 46.3792 86.5968 46.9532V55H84.643ZM95.1382 50.364L95.1051 47.9467H95.5025L101.066 42.2841H103.483L97.5555 48.2778H97.39L95.1382 50.364ZM93.3169 55V38.0455H95.2707V55H93.3169ZM101.397 55L96.4297 48.7083L97.8205 47.3506L103.88 55H101.397ZM112.819 55V38.0455H123.051V39.8668H114.872V45.5955H122.522V47.4168H114.872V53.1787H123.184V55H112.819ZM131.289 55.2649C130.229 55.2649 129.294 54.9972 128.482 54.4619C127.671 53.921 127.036 53.1594 126.578 52.177C126.12 51.1891 125.891 50.0218 125.891 48.6752C125.891 47.3396 126.12 46.1806 126.578 45.1982C127.036 44.2158 127.674 43.4569 128.491 42.9216C129.307 42.3862 130.251 42.1185 131.322 42.1185C132.15 42.1185 132.804 42.2565 133.284 42.5325C133.769 42.8029 134.139 43.112 134.393 43.4597C134.653 43.8018 134.854 44.0833 134.997 44.3041H135.163V38.0455H137.117V55H135.229V53.0463H134.997C134.854 53.2781 134.65 53.5706 134.385 53.9238C134.12 54.2715 133.742 54.5833 133.251 54.8593C132.759 55.1297 132.105 55.2649 131.289 55.2649ZM131.554 53.5099C132.337 53.5099 133 53.3057 133.54 52.8972C134.081 52.4833 134.492 51.9121 134.774 51.1836C135.055 50.4495 135.196 49.6024 135.196 48.6421C135.196 47.6928 135.058 46.8622 134.782 46.1502C134.506 45.4327 134.098 44.8753 133.557 44.4779C133.016 44.075 132.348 43.8736 131.554 43.8736C130.726 43.8736 130.036 44.0861 129.484 44.511C128.938 44.9305 128.526 45.5017 128.25 46.2247C127.98 46.9422 127.845 47.748 127.845 48.6421C127.845 49.5472 127.983 50.3695 128.259 51.1091C128.54 51.8431 128.954 52.4281 129.5 52.8641C130.052 53.2946 130.737 53.5099 131.554 53.5099ZM148.98 49.8011V42.2841H150.934V55H148.98V52.8476H148.848C148.549 53.4933 148.086 54.0424 147.457 54.495C146.828 54.942 146.033 55.1656 145.072 55.1656C144.278 55.1656 143.571 54.9917 142.953 54.644C142.335 54.2908 141.849 53.761 141.496 53.0545C141.143 52.3426 140.966 51.4457 140.966 50.364V42.2841H142.92V50.2315C142.92 51.1587 143.179 51.8983 143.698 52.4502C144.223 53.0021 144.89 53.2781 145.702 53.2781C146.187 53.2781 146.681 53.1539 147.184 52.9055C147.691 52.6572 148.116 52.2763 148.458 51.7631C148.806 51.2498 148.98 50.5958 148.98 49.8011ZM159.678 55.2649C158.486 55.2649 157.459 54.9834 156.598 54.4205C155.737 53.8576 155.075 53.0821 154.611 52.0942C154.148 51.1063 153.916 49.9777 153.916 48.7083C153.916 47.4168 154.153 46.2771 154.628 45.2892C155.108 44.2958 155.776 43.5204 156.631 42.963C157.492 42.4 158.497 42.1185 159.645 42.1185C160.539 42.1185 161.345 42.2841 162.062 42.6153C162.78 42.9464 163.367 43.41 163.826 44.0061C164.284 44.6021 164.568 45.2975 164.678 46.0923H162.724C162.575 45.5128 162.244 44.9995 161.731 44.5524C161.223 44.0999 160.539 43.8736 159.678 43.8736C158.916 43.8736 158.249 44.0723 157.675 44.4697C157.106 44.8615 156.662 45.4162 156.342 46.1336C156.027 46.8456 155.87 47.6817 155.87 48.6421C155.87 49.6244 156.024 50.4799 156.333 51.2084C156.648 51.9369 157.09 52.5026 157.658 52.9055C158.232 53.3084 158.905 53.5099 159.678 53.5099C160.186 53.5099 160.647 53.4216 161.06 53.2449C161.474 53.0683 161.825 52.8145 162.112 52.4833C162.399 52.1522 162.603 51.7548 162.724 51.2912H164.678C164.568 52.0418 164.295 52.7179 163.859 53.3194C163.428 53.9155 162.857 54.3901 162.145 54.7434C161.439 55.0911 160.616 55.2649 159.678 55.2649ZM171.276 55.298C170.47 55.298 169.739 55.1463 169.082 54.8427C168.426 54.5336 167.904 54.0894 167.518 53.5099C167.131 52.9248 166.938 52.2184 166.938 51.3905C166.938 50.662 167.082 50.0715 167.369 49.6189C167.656 49.1608 168.039 48.8021 168.519 48.5427C169 48.2833 169.529 48.0902 170.109 47.9632C170.694 47.8308 171.282 47.7259 171.872 47.6486C172.645 47.5493 173.271 47.4748 173.752 47.4251C174.237 47.3699 174.59 47.2788 174.811 47.1519C175.037 47.025 175.151 46.8042 175.151 46.4896V46.4234C175.151 45.6066 174.927 44.9719 174.48 44.5193C174.039 44.0668 173.368 43.8405 172.468 43.8405C171.536 43.8405 170.804 44.0447 170.275 44.4531C169.745 44.8615 169.372 45.2975 169.157 45.7611L167.303 45.0988C167.634 44.3262 168.075 43.7246 168.627 43.2941C169.185 42.8581 169.792 42.5545 170.448 42.3835C171.111 42.2068 171.762 42.1185 172.402 42.1185C172.811 42.1185 173.28 42.1682 173.809 42.2676C174.345 42.3614 174.861 42.5573 175.358 42.8553C175.86 43.1534 176.277 43.6032 176.608 44.2047C176.939 44.8063 177.104 45.6121 177.104 46.6221V55H175.151V53.2781H175.051C174.919 53.554 174.698 53.8493 174.389 54.1639C174.08 54.4784 173.669 54.7461 173.155 54.9669C172.642 55.1876 172.016 55.298 171.276 55.298ZM171.574 53.543C172.347 53.543 172.998 53.3912 173.528 53.0876C174.063 52.7841 174.466 52.3922 174.737 51.9121C175.013 51.4319 175.151 50.9269 175.151 50.3971V48.6089C175.068 48.7083 174.886 48.7993 174.604 48.8821C174.328 48.9594 174.008 49.0284 173.644 49.0891C173.285 49.1443 172.935 49.194 172.593 49.2381C172.256 49.2767 171.983 49.3099 171.773 49.3375C171.265 49.4037 170.791 49.5113 170.349 49.6603C169.913 49.8038 169.56 50.0218 169.289 50.3143C169.024 50.6013 168.892 50.9932 168.892 51.4899C168.892 52.1687 169.143 52.682 169.645 53.0297C170.153 53.3719 170.796 53.543 171.574 53.543ZM186.2 42.2841V43.9398H179.611V42.2841H186.2ZM181.531 39.2376H183.485V51.3574C183.485 51.9093 183.565 52.3233 183.725 52.5992C183.891 52.8696 184.1 53.0518 184.354 53.1456C184.614 53.2339 184.887 53.2781 185.174 53.2781C185.389 53.2781 185.566 53.267 185.704 53.2449C185.842 53.2173 185.952 53.1953 186.035 53.1787L186.432 54.9338C186.3 54.9834 186.115 55.0331 185.878 55.0828C185.64 55.138 185.339 55.1656 184.975 55.1656C184.423 55.1656 183.882 55.0469 183.353 54.8096C182.828 54.5723 182.392 54.2108 182.045 53.7251C181.702 53.2394 181.531 52.6268 181.531 51.8873V39.2376ZM189.139 55V42.2841H191.093V55H189.139ZM190.133 40.1648C189.752 40.1648 189.424 40.0351 189.148 39.7757C188.877 39.5163 188.742 39.2045 188.742 38.8402C188.742 38.476 188.877 38.1641 189.148 37.9047C189.424 37.6453 189.752 37.5157 190.133 37.5157C190.514 37.5157 190.839 37.6453 191.11 37.9047C191.386 38.1641 191.524 38.476 191.524 38.8402C191.524 39.2045 191.386 39.5163 191.11 39.7757C190.839 40.0351 190.514 40.1648 190.133 40.1648ZM199.837 55.2649C198.689 55.2649 197.682 54.9917 196.816 54.4453C195.955 53.8989 195.281 53.1346 194.796 52.1522C194.316 51.1698 194.075 50.0218 194.075 48.7083C194.075 47.3837 194.316 46.2275 194.796 45.2396C195.281 44.2517 195.955 43.4845 196.816 42.9381C197.682 42.3917 198.689 42.1185 199.837 42.1185C200.985 42.1185 201.99 42.3917 202.851 42.9381C203.717 43.4845 204.391 44.2517 204.871 45.2396C205.356 46.2275 205.599 47.3837 205.599 48.7083C205.599 50.0218 205.356 51.1698 204.871 52.1522C204.391 53.1346 203.717 53.8989 202.851 54.4453C201.99 54.9917 200.985 55.2649 199.837 55.2649ZM199.837 53.5099C200.709 53.5099 201.427 53.2863 201.99 52.8393C202.553 52.3922 202.969 51.8045 203.24 51.076C203.51 50.3474 203.645 49.5582 203.645 48.7083C203.645 47.8584 203.51 47.0664 203.24 46.3323C202.969 45.5983 202.553 45.005 201.99 44.5524C201.427 44.0999 200.709 43.8736 199.837 43.8736C198.965 43.8736 198.248 44.0999 197.685 44.5524C197.122 45.005 196.705 45.5983 196.435 46.3323C196.164 47.0664 196.029 47.8584 196.029 48.7083C196.029 49.5582 196.164 50.3474 196.435 51.076C196.705 51.8045 197.122 52.3922 197.685 52.8393C198.248 53.2863 198.965 53.5099 199.837 53.5099ZM210.535 47.3506V55H208.582V42.2841H210.469V44.271H210.635C210.933 43.6252 211.385 43.1064 211.992 42.7146C212.599 42.3172 213.383 42.1185 214.343 42.1185C215.204 42.1185 215.958 42.2951 216.604 42.6484C217.249 42.9961 217.751 43.5259 218.11 44.2379C218.469 44.9443 218.648 45.8384 218.648 46.9201V55H216.695V47.0526C216.695 46.0536 216.435 45.2754 215.916 44.718C215.398 44.1551 214.686 43.8736 213.781 43.8736C213.157 43.8736 212.599 44.0088 212.108 44.2792C211.623 44.5497 211.239 44.9443 210.958 45.4631C210.676 45.9819 210.535 46.611 210.535 47.3506Z" fill="white"/>
<path d="M146.5 107.5H137C136.602 107.5 136.221 107.342 135.939 107.061C135.658 106.779 135.5 106.398 135.5 106C135.5 105.602 135.658 105.221 135.939 104.939C136.221 104.658 136.602 104.5 137 104.5H145.5C145.765 104.5 146.02 104.395 146.207 104.207C146.395 104.02 146.5 103.765 146.5 103.5V95.5C146.5 95.2348 146.395 94.9804 146.207 94.7929C146.02 94.6054 145.765 94.5 145.5 94.5H137C136.609 94.4999 136.233 94.6524 135.953 94.9251C135.673 95.1978 135.51 95.5692 135.5 95.96V105.96" stroke="white" stroke-linecap="round" stroke-linejoin="round"/>
<path d="M145.5 104.5V107.5" stroke="white" stroke-linecap="round" stroke-linejoin="round"/>
<path d="M142.051 99.002H144.367L141.907 102.475H144.511" stroke="white" stroke-linecap="round" stroke-linejoin="round"/>
<path d="M137.512 99.9855L138.578 96.7875C138.632 96.6235 138.786 96.5129 138.959 96.5129C139.131 96.5129 139.285 96.6235 139.34 96.7875L140.406 99.9855M137.898 98.828H140.02" stroke="white" stroke-linecap="round" stroke-linejoin="round"/>
<g clip-path="url(#clip0_2767_35187)">
<path d="M102 106.5C103.381 106.5 104.5 105.381 104.5 104C104.5 102.62 103.381 101.5 102 101.5C100.619 101.5 99.5 102.62 99.5 104C99.5 105.381 100.619 106.5 102 106.5Z" stroke="white" stroke-linecap="round" stroke-linejoin="round"/>
<path d="M105.499 107.5L103.769 105.77" stroke="white" stroke-linecap="round" stroke-linejoin="round"/>
<path d="M99 96.0002C99 95.1718 98.3284 94.5002 97.5 94.5002H92.5V104.5H97.5" stroke="white" stroke-linecap="round" stroke-linejoin="round"/>
<path d="M99 96.0002V100.5" stroke="white" stroke-linecap="round" stroke-linejoin="round"/>
<path d="M99 96C99 95.1716 99.6716 94.5 100.5 94.5H105.5V101.5" stroke="white" stroke-linecap="round" stroke-linejoin="round"/>
</g>
<g clip-path="url(#clip1_2767_35187)">
<path d="M187.366 101.318C187.469 100.898 187.523 100.458 187.523 100.006C187.523 96.965 185.058 94.5 182.017 94.5C178.977 94.5 176.512 96.965 176.512 100.006C176.512 102.264 177.872 104.205 179.817 105.054" stroke="white" stroke-linecap="round" stroke-linejoin="round"/>
<path d="M176.512 100.006H187.523" stroke="white" stroke-linecap="round" stroke-linejoin="round"/>
<path d="M180.382 102.547C180.107 101.731 179.943 100.876 179.898 100.006C180.002 97.9923 180.744 96.0642 182.016 94.5C183.288 96.0642 184.029 97.9923 184.133 100.006C184.115 100.361 184.077 100.713 184.019 101.061" stroke="white" stroke-linecap="round" stroke-linejoin="round"/>
<path d="M185.458 102.178L189.488 103.924L185.458 105.67L181.429 103.924L185.458 102.178Z" stroke="white" stroke-linecap="round" stroke-linejoin="round"/>
<path d="M183.257 104.72L183.261 106.62C183.261 106.62 183.926 107.5 185.458 107.5C186.99 107.5 187.658 106.62 187.658 106.62L187.658 104.72" stroke="white" stroke-linecap="round" stroke-linejoin="round"/>
<path d="M181.429 106.995V103.924" stroke="white" stroke-linecap="round" stroke-linejoin="round"/>
</g>
<g clip-path="url(#clip2_2767_35187)">
<path d="M348.029 98.5C349.134 98.5 350.029 97.6046 350.029 96.5C350.029 95.3954 349.134 94.5 348.029 94.5C346.925 94.5 346.029 95.3954 346.029 96.5C346.029 97.6046 346.925 98.5 348.029 98.5Z" stroke="white" stroke-linecap="round" stroke-linejoin="round"/>
<path d="M349.716 104.524L349.344 107.5H346.727L346.227 103.5H344.529V102C344.529 101.072 344.898 100.181 345.554 99.5251C346.211 98.8687 347.101 98.5 348.029 98.5C348.958 98.5 349.848 98.8687 350.504 99.5251C351.009 100.03 351.344 100.673 351.471 101.366" stroke="white" stroke-linecap="round" stroke-linejoin="round"/>
<path d="M351.295 103.971C351.295 103.483 351.69 103.088 352.177 103.088H356.589C357.076 103.088 357.471 103.483 357.471 103.971V106.618C357.471 107.105 357.076 107.5 356.589 107.5H352.177C351.69 107.5 351.295 107.105 351.295 106.618V103.971Z" stroke="white" stroke-linecap="round" stroke-linejoin="round"/>
<path d="M353.176 103.088V102.437C353.176 101.885 353.624 101.437 354.176 101.437H354.588C355.141 101.437 355.588 101.885 355.588 102.437V103.088" stroke="white" stroke-linecap="round" stroke-linejoin="round"/>
</g>
<g clip-path="url(#clip3_2767_35187)">
<path d="M225 95.3674L231.5 98.1837L225 101L218.5 98.1837L225 95.3674Z" stroke="white" stroke-linecap="round" stroke-linejoin="round"/>
<path d="M221.449 99.4685L221.456 102.533C221.456 102.533 222.529 103.953 225 103.953C227.471 103.953 228.549 102.533 228.549 102.533L228.549 99.4685" stroke="white" stroke-linecap="round" stroke-linejoin="round"/>
<path d="M219.695 104.601V98.7107" stroke="white" stroke-linecap="round" stroke-linejoin="round"/>
<path d="M219.696 106.993C220.356 106.993 220.892 106.458 220.892 105.797C220.892 105.137 220.356 104.601 219.696 104.601C219.035 104.601 218.5 105.137 218.5 105.797C218.5 106.458 219.035 106.993 219.696 106.993Z" stroke="white" stroke-linecap="round" stroke-linejoin="round"/>
</g>
<g clip-path="url(#clip4_2767_35187)">
<path d="M54.1942 102.094C55.2211 102.094 56.0536 101.261 56.0536 100.234C56.0536 99.2075 55.2211 98.375 54.1942 98.375C53.1673 98.375 52.3348 99.2075 52.3348 100.234C52.3348 101.261 53.1673 102.094 54.1942 102.094Z" stroke="white" stroke-linecap="round" stroke-linejoin="round"/>
<path d="M50.5234 107.479C50.5299 106.857 50.694 106.246 51.0002 105.705C51.6455 104.564 52.8849 103.84 54.1953 103.837C55.5057 103.84 56.7451 104.564 57.3905 105.705C57.6967 106.246 57.8607 106.857 57.8672 107.479" stroke="white" stroke-linecap="round" stroke-linejoin="round"/>
<path d="M59.8867 95.3831V94.5625" stroke="white" stroke-linecap="round" stroke-linejoin="round"/>
<path d="M62.6858 96.3902L63.3574 95.9187" stroke="white" stroke-linecap="round" stroke-linejoin="round"/>
<path d="M57.0857 96.3902L56.4141 95.9187" stroke="white" stroke-linecap="round" stroke-linejoin="round"/>
<path d="M61.9209 99.0584C61.9251 97.9309 60.9708 96.9926 59.8435 97.0161C58.7161 97.0395 57.8016 98.0165 57.8526 99.1429C57.8855 99.868 58.3289 100.549 58.9786 100.873V101.873C58.9801 101.932 59.0047 101.988 59.047 102.029C59.0894 102.071 59.1462 102.094 59.2054 102.094H60.566C60.6252 102.094 60.682 102.071 60.7244 102.029C60.7667 101.988 60.7913 101.932 60.7928 101.873V100.855C61.4629 100.522 61.9116 99.807 61.9209 99.0584Z" stroke="white" stroke-linecap="round" stroke-linejoin="round"/>
</g>
<g clip-path="url(#clip5_2767_35187)">
<path d="M104.906 149.5V145.134C104.906 144.522 104.41 144.025 103.797 144.025H94.2023C93.5901 144.025 93.0938 144.522 93.0938 145.134V149.5" stroke="white" stroke-linecap="round" stroke-linejoin="round"/>
<path d="M102.036 136.5H95.9634C95.5304 136.5 95.1794 136.851 95.1794 137.284V140.883C95.1794 141.316 95.5304 141.667 95.9634 141.667H102.036C102.469 141.667 102.82 141.316 102.82 140.883V137.284C102.82 136.851 102.469 136.5 102.036 136.5Z" stroke="white" stroke-linecap="round" stroke-linejoin="round"/>
<path d="M99.0007 141.667L98.9987 144.025" stroke="white" stroke-linecap="round" stroke-linejoin="round"/>
<path d="M93.0938 146.212H104.907" stroke="white" stroke-linecap="round" stroke-linejoin="round"/>
</g>
<path d="M437.5 95.5H439C439.265 95.5 439.52 95.6054 439.707 95.7929C439.895 95.9804 440 96.2348 440 96.5V106.5C440 106.765 439.895 107.02 439.707 107.207C439.52 107.395 439.265 107.5 439 107.5H431C430.735 107.5 430.48 107.395 430.293 107.207C430.105 107.02 430 106.765 430 106.5V96.5C430 96.2348 430.105 95.9804 430.293 95.7929C430.48 95.6054 430.735 95.5 431 95.5H432.5" stroke="white" stroke-linecap="round" stroke-linejoin="round"/>
<path d="M436.5 94.5H433.5C432.948 94.5 432.5 94.9477 432.5 95.5V96C432.5 96.5523 432.948 97 433.5 97H436.5C437.052 97 437.5 96.5523 437.5 96V95.5C437.5 94.9477 437.052 94.5 436.5 94.5Z" stroke="white" stroke-linecap="round" stroke-linejoin="round"/>
<path d="M432.046 100.203C432.046 100.893 432.606 101.453 433.296 101.453C433.47 101.453 433.637 101.417 433.787 101.353C434.233 101.162 434.546 100.719 434.546 100.203C434.546 99.5128 433.986 98.9531 433.296 98.9531C432.606 98.9531 432.046 99.5128 432.046 100.203Z" stroke="white" stroke-linecap="round" stroke-linejoin="round"/>
<path d="M435.452 102.833L437.952 105.333" stroke="white" stroke-linecap="round" stroke-linejoin="round"/>
<path d="M437.954 102.833L435.454 105.333" stroke="white" stroke-linecap="round" stroke-linejoin="round"/>
<g clip-path="url(#clip6_2767_35187)">
<path d="M263.48 104.533C264.111 104.533 264.622 104.022 264.622 103.391C264.622 102.761 264.111 102.25 263.48 102.25C262.85 102.25 262.339 102.761 262.339 103.391C262.339 104.022 262.85 104.533 263.48 104.533Z" stroke="white" stroke-linecap="round" stroke-linejoin="round"/>
<path d="M261.425 107.479C261.429 107.131 261.52 106.789 261.692 106.486C262.053 105.848 262.746 105.443 263.48 105.441C264.213 105.443 264.906 105.848 265.267 106.486C265.439 106.789 265.53 107.131 265.534 107.479" stroke="white" stroke-linecap="round" stroke-linejoin="round"/>
<path d="M270.525 104.533C271.156 104.533 271.667 104.022 271.667 103.391C271.667 102.761 271.156 102.25 270.525 102.25C269.895 102.25 269.384 102.761 269.384 103.391C269.384 104.022 269.895 104.533 270.525 104.533Z" stroke="white" stroke-linecap="round" stroke-linejoin="round"/>
<path d="M268.47 107.479C268.474 107.131 268.565 106.789 268.737 106.486C269.098 105.848 269.791 105.443 270.524 105.441C271.258 105.443 271.951 105.848 272.312 106.486C272.484 106.789 272.575 107.131 272.579 107.479" stroke="white" stroke-linecap="round" stroke-linejoin="round"/>
<path d="M266.999 98.0471C267.587 98.0471 268.064 97.5701 268.064 96.9817C268.064 96.3933 267.587 95.9163 266.999 95.9163C266.411 95.9163 265.934 96.3933 265.934 96.9817C265.934 97.5701 266.411 98.0471 266.999 98.0471Z" stroke="white" stroke-linecap="round" stroke-linejoin="round"/>
<path d="M265.008 100.718C265.011 100.381 265.1 100.05 265.266 99.7561C265.617 99.1372 266.289 98.7442 267 98.7427C267.711 98.7442 268.383 99.1372 268.733 99.7561C268.899 100.05 268.988 100.381 268.992 100.718" stroke="white" stroke-linecap="round" stroke-linejoin="round"/>
<path d="M271.782 94.5449H262.218C261.822 94.5449 261.5 94.8665 261.5 95.2631V100C261.5 100.397 261.822 100.718 262.218 100.718H271.782C272.178 100.718 272.5 100.397 272.5 100V95.2631C272.5 94.8665 272.178 94.5449 271.782 94.5449Z" stroke="white" stroke-linecap="round" stroke-linejoin="round"/>
</g>
<g clip-path="url(#clip7_2767_35187)">
<path d="M310.461 98.7499V95.5942C310.461 95.0333 310.007 94.5786 309.446 94.5786H304.655C304.094 94.5786 303.64 95.0333 303.64 95.5942V107.421" stroke="white" stroke-linecap="round" stroke-linejoin="round"/>
<path d="M302.519 107.421H307.487" stroke="white" stroke-linecap="round" stroke-linejoin="round"/>
<path d="M303.64 97.187H306.1" stroke="white" stroke-linecap="round" stroke-linejoin="round"/>
<path d="M303.64 99.7495H307.487" stroke="white" stroke-linecap="round" stroke-linejoin="round"/>
<path d="M312.48 104.032C313.447 104.032 314.231 103.248 314.231 102.282C314.231 101.315 313.447 100.531 312.48 100.531C311.514 100.531 310.73 101.315 310.73 102.282C310.73 103.248 311.514 104.032 312.48 104.032Z" stroke="white" stroke-linecap="round" stroke-linejoin="round"/>
<path d="M309.479 107.421C309.484 106.909 309.618 106.407 309.868 105.962C310.396 105.023 311.409 104.427 312.48 104.424C313.552 104.427 314.565 105.023 315.092 105.962C315.343 106.407 315.477 106.909 315.482 107.421" stroke="white" stroke-linecap="round" stroke-linejoin="round"/>
</g>
<g clip-path="url(#clip8_2767_35187)">
<path d="M182.35 136.5H188.652C189.121 136.5 189.501 136.88 189.501 137.349V144.127C189.501 144.596 189.121 144.976 188.652 144.976H183.5" stroke="white" stroke-linecap="round" stroke-linejoin="round"/>
<path d="M179.149 140.001C180.115 140.001 180.899 139.217 180.899 138.251C180.899 137.284 180.115 136.5 179.149 136.5C178.182 136.5 177.398 137.284 177.398 138.251C177.398 139.217 178.182 140.001 179.149 140.001Z" stroke="white" stroke-linecap="round" stroke-linejoin="round"/>
<path d="M185 141.527C185 140.96 184.54 140.5 183.973 140.5H179.149C177.686 140.5 176.5 141.686 176.5 143.149V145.5H177.635L178.014 149.5H180.284L181.156 142.555H183.973C184.54 142.555 185 142.095 185 141.527Z" stroke="white" stroke-linecap="round" stroke-linejoin="round"/>
</g>
<path d="M61.7188 148.5C61.7188 148.765 61.6134 149.02 61.4259 149.207C61.2383 149.395 60.984 149.5 60.7188 149.5H51.7188C51.4535 149.5 51.1992 149.395 51.0116 149.207C50.8241 149.02 50.7188 148.765 50.7188 148.5V137.5C50.7188 137.235 50.8241 136.98 51.0116 136.793C51.1992 136.605 51.4535 136.5 51.7188 136.5H57.3045C57.5698 136.5 57.8241 136.605 58.0116 136.793L61.4259 140.207C61.6134 140.395 61.7188 140.649 61.7188 140.914V148.5Z" stroke="white" stroke-linecap="round" stroke-linejoin="round"/>
<path d="M56.7773 142.375H59.2773" stroke="white" stroke-linecap="round" stroke-linejoin="round"/>
<path d="M56.7773 145.844H59.2773" stroke="white" stroke-linecap="round" stroke-linejoin="round"/>
<path d="M52.9102 145.787L53.748 146.625L55.1445 144.67" stroke="white" stroke-linecap="round" stroke-linejoin="round"/>
<path d="M52.9102 142.256L53.748 143.094L55.1445 141.139" stroke="white" stroke-linecap="round" stroke-linejoin="round"/>
<g clip-path="url(#clip9_2767_35187)">
<path d="M392.5 106.5C395.814 106.5 398.5 103.814 398.5 100.5C398.5 97.1863 395.814 94.5 392.5 94.5C389.186 94.5 386.5 97.1863 386.5 100.5C386.5 103.814 389.186 106.5 392.5 106.5Z" stroke="white" stroke-linecap="round" stroke-linejoin="round"/>
<path d="M396.74 104.74L399.5 107.5" stroke="white" stroke-linecap="round" stroke-linejoin="round"/>
<path d="M389.5 99.8486C389.5 99.3601 389.896 98.9641 390.385 98.9641H394.615C395.104 98.9641 395.5 99.3601 395.5 99.8486V102.365C395.5 102.854 395.104 103.25 394.615 103.25H390.385C389.896 103.25 389.5 102.854 389.5 102.365V99.8486Z" stroke="white" stroke-linecap="round" stroke-linejoin="round"/>
<path d="M391.214 98.7601V98.25C391.214 97.6977 391.662 97.25 392.214 97.25H392.786C393.338 97.25 393.786 97.6977 393.786 98.25V98.7601" stroke="white" stroke-linecap="round" stroke-linejoin="round"/>
</g>
<g clip-path="url(#clip10_2767_35187)">
<path d="M141 149.5V144.25C141 143.918 141.132 143.601 141.366 143.366C141.601 143.132 141.918 143 142.25 143C142.582 143 142.899 143.132 143.134 143.366C143.368 143.601 143.5 143.918 143.5 144.25V147H145.5C146.03 147 146.539 147.211 146.914 147.586C147.289 147.961 147.5 148.47 147.5 149V149.5" stroke="white" stroke-linecap="round" stroke-linejoin="round"/>
<path d="M140.257 139.095C139.011 137.723 137.338 136.812 135.51 136.509C135.385 136.491 135.259 136.5 135.138 136.535C135.017 136.57 134.906 136.631 134.81 136.712C134.713 136.796 134.635 136.899 134.581 137.015C134.528 137.131 134.5 137.258 134.5 137.386V144.516C134.499 144.735 134.579 144.947 134.724 145.11C134.87 145.274 135.071 145.378 135.288 145.402C136.716 145.595 138.059 146.16 139.188 147.029" stroke="white" stroke-linecap="round" stroke-linejoin="round"/>
<path d="M140.258 141.858V139.095" stroke="white" stroke-linecap="round" stroke-linejoin="round"/>
<path d="M145.226 145.402C145.444 145.378 145.645 145.274 145.791 145.11C145.936 144.947 146.016 144.735 146.015 144.516V137.386C146.015 137.258 145.987 137.131 145.934 137.015C145.88 136.899 145.802 136.796 145.705 136.712C145.609 136.631 145.497 136.57 145.377 136.535C145.256 136.5 145.129 136.491 145.005 136.509C143.177 136.812 141.504 137.723 140.257 139.095" stroke="white" stroke-linecap="round" stroke-linejoin="round"/>
</g>
<defs>
<clipPath id="clip0_2767_35187">
<rect width="14" height="14" fill="white" transform="translate(92 94)"/>
</clipPath>
<clipPath id="clip1_2767_35187">
<rect width="14" height="14" fill="white" transform="translate(176 94)"/>
</clipPath>
<clipPath id="clip2_2767_35187">
<rect width="14" height="14" fill="white" transform="translate(344 94)"/>
</clipPath>
<clipPath id="clip3_2767_35187">
<rect width="14" height="14" fill="white" transform="translate(218 94)"/>
</clipPath>
<clipPath id="clip4_2767_35187">
<rect width="14" height="14" fill="white" transform="translate(50 94)"/>
</clipPath>
<clipPath id="clip5_2767_35187">
<rect width="14" height="14" fill="white" transform="translate(92 136)"/>
</clipPath>
<clipPath id="clip6_2767_35187">
<rect width="14" height="14" fill="white" transform="translate(260 94)"/>
</clipPath>
<clipPath id="clip7_2767_35187">
<rect width="14" height="14" fill="white" transform="translate(302 94)"/>
</clipPath>
<clipPath id="clip8_2767_35187">
<rect width="14" height="14" fill="white" transform="translate(176 136)"/>
</clipPath>
<clipPath id="clip9_2767_35187">
<rect width="14" height="14" fill="white" transform="translate(386 94)"/>
</clipPath>
<clipPath id="clip10_2767_35187">
<rect width="14" height="14" fill="white" transform="translate(134 136)"/>
</clipPath>
</defs>
</svg>
