<svg width="51" height="10" viewBox="0 0 51 10" fill="none" xmlns="http://www.w3.org/2000/svg">
<path d="M4.21198 9.07173C1.65598 9.07173 -1.75685e-05 7.29573 -1.75685e-05 4.54773C-1.75685e-05 1.82373 1.71598 0.011734 4.28398 0.011734C6.35998 0.011734 7.90798 1.22373 8.20798 3.10773H6.58798C6.28798 2.08773 5.41198 1.48773 4.24798 1.48773C2.62798 1.48773 1.60798 2.66373 1.60798 4.53573C1.60798 6.39573 2.63998 7.59573 4.24798 7.59573C5.43598 7.59573 6.34798 6.97173 6.63598 5.99973H8.23198C7.89598 7.84773 6.28798 9.07173 4.21198 9.07173ZM11.0403 9.08373C9.78026 9.08373 9.01226 8.35173 9.01226 7.23573C9.01226 6.14373 9.80426 5.45973 11.2083 5.35173L12.9843 5.21973V5.08773C12.9843 4.28373 12.5043 3.95973 11.7603 3.95973C10.8963 3.95973 10.4163 4.31973 10.4163 4.94373H9.16826C9.16826 3.65973 10.2243 2.81973 11.8323 2.81973C13.4283 2.81973 14.4123 3.68373 14.4123 5.32773V8.92773H13.1283L13.0203 8.05173C12.7683 8.66373 11.9643 9.08373 11.0403 9.08373ZM11.5203 7.97973C12.4203 7.97973 12.9963 7.43973 12.9963 6.52773V6.21573L11.7603 6.31173C10.8483 6.39573 10.5003 6.69573 10.5003 7.17573C10.5003 7.71573 10.8603 7.97973 11.5203 7.97973ZM17.3145 8.92773H15.8505V2.99973H17.2065L17.3265 3.76773C17.6985 3.16773 18.4185 2.81973 19.2225 2.81973C20.7105 2.81973 21.4785 3.74373 21.4785 5.27973V8.92773H20.0145V5.62773C20.0145 4.63173 19.5225 4.15173 18.7665 4.15173C17.8665 4.15173 17.3145 4.77573 17.3145 5.73573V8.92773ZM25.3529 9.08373C23.6369 9.08373 22.5689 7.82373 22.5689 5.98773C22.5689 4.13973 23.6489 2.81973 25.4369 2.81973C26.2649 2.81973 26.9969 3.16773 27.3689 3.75573V-0.000265837H28.8209V8.92773H27.4769L27.3809 8.00373C27.0209 8.68773 26.2529 9.08373 25.3529 9.08373ZM25.6769 7.73973C26.6969 7.73973 27.3569 7.00773 27.3569 5.93973C27.3569 4.87173 26.6969 4.12773 25.6769 4.12773C24.6569 4.12773 24.0329 4.88373 24.0329 5.93973C24.0329 6.99573 24.6569 7.73973 25.6769 7.73973ZM31.8226 8.92773H30.3706V-0.000265837H31.8226V8.92773ZM36.0103 9.08373C34.2463 9.08373 33.0103 7.79973 33.0103 5.96373C33.0103 4.10373 34.2223 2.81973 35.9623 2.81973C37.7383 2.81973 38.8663 4.00773 38.8663 5.85573V6.29973L34.4023 6.31173C34.5103 7.35573 35.0623 7.88373 36.0343 7.88373C36.8383 7.88373 37.3663 7.57173 37.5343 7.00773H38.8903C38.6383 8.30373 37.5583 9.08373 36.0103 9.08373ZM35.9743 4.01973C35.1103 4.01973 34.5823 4.48773 34.4383 5.37573H37.4143C37.4143 4.55973 36.8503 4.01973 35.9743 4.01973ZM40.026 6.37173V5.07573H43.89V6.37173H40.026ZM50.4883 8.91573L44.4043 8.92773V7.77573L47.2723 5.35173C48.4603 4.34373 48.8563 3.76773 48.8563 2.92773C48.8563 1.93173 48.3163 1.36773 47.3923 1.36773C46.4323 1.36773 45.8323 2.03973 45.8203 3.16773H44.2963C44.3083 1.24773 45.5323 -0.000265837 47.3923 -0.000265837C49.2643 -0.000265837 50.4283 1.06773 50.4283 2.84373C50.4283 4.06773 49.7563 4.99173 48.4243 6.13173L46.8403 7.48773H50.4883V8.91573Z" fill="black"/>
</svg>
