<svg width="52" height="12" viewBox="0 0 52 12" fill="none" xmlns="http://www.w3.org/2000/svg">
<path d="M4.21198 9.06002C1.65598 9.06002 -1.75685e-05 7.28402 -1.75685e-05 4.53602C-1.75685e-05 1.81202 1.71598 1.52588e-05 4.28398 1.52588e-05C6.35998 1.52588e-05 7.90798 1.21202 8.20798 3.09602H6.58798C6.28798 2.07601 5.41198 1.47602 4.24798 1.47602C2.62798 1.47602 1.60798 2.65202 1.60798 4.52402C1.60798 6.38402 2.63998 7.58402 4.24798 7.58402C5.43598 7.58402 6.34798 6.96002 6.63598 5.98802H8.23198C7.89598 7.83602 6.28798 9.06002 4.21198 9.06002ZM11.0403 9.07202C9.78026 9.07202 9.01226 8.34002 9.01226 7.22402C9.01226 6.13202 9.80426 5.44802 11.2083 5.34002L12.9843 5.20802V5.07602C12.9843 4.27202 12.5043 3.94802 11.7603 3.94802C10.8963 3.94802 10.4163 4.30802 10.4163 4.93202H9.16826C9.16826 3.64802 10.2243 2.80802 11.8323 2.80802C13.4283 2.80802 14.4123 3.67202 14.4123 5.31602V8.91602H13.1283L13.0203 8.04002C12.7683 8.65202 11.9643 9.07202 11.0403 9.07202ZM11.5203 7.96802C12.4203 7.96802 12.9963 7.42802 12.9963 6.51602V6.20402L11.7603 6.30002C10.8483 6.38402 10.5003 6.68402 10.5003 7.16402C10.5003 7.70402 10.8603 7.96802 11.5203 7.96802ZM17.7845 8.91602H16.3205V4.21202H15.1805V2.98802H16.3205V1.14002H17.7845V2.98802H18.9365V4.21202H17.7845V8.91602ZM22.44 9.07202C20.676 9.07202 19.44 7.78802 19.44 5.95202C19.44 4.09202 20.652 2.80802 22.392 2.80802C24.168 2.80802 25.296 3.99602 25.296 5.84402V6.28802L20.832 6.30002C20.94 7.34402 21.492 7.87202 22.464 7.87202C23.268 7.87202 23.796 7.56002 23.964 6.99602H25.32C25.068 8.29202 23.988 9.07202 22.44 9.07202ZM22.404 4.00802C21.54 4.00802 21.012 4.47602 20.868 5.36402H23.844C23.844 4.54802 23.28 4.00802 22.404 4.00802ZM26.1317 5.82002C26.1317 4.09202 27.2597 2.79602 28.9517 2.79602C29.8397 2.79602 30.5357 3.16802 30.8837 3.80402L30.9677 2.98802H32.3237V8.61602C32.3237 10.596 31.1357 11.832 29.2157 11.832C27.5117 11.832 26.3477 10.86 26.1677 9.27602H27.6317C27.7277 10.044 28.3157 10.5 29.2157 10.5C30.2237 10.5 30.8717 9.86402 30.8717 8.88002V7.89602C30.4997 8.44802 29.7677 8.79602 28.9157 8.79602C27.2357 8.79602 26.1317 7.53602 26.1317 5.82002ZM27.6077 5.78402C27.6077 6.78002 28.2437 7.52402 29.2037 7.52402C30.2117 7.52402 30.8357 6.81602 30.8357 5.78402C30.8357 4.77602 30.2237 4.08002 29.2037 4.08002C28.2317 4.08002 27.6077 4.81202 27.6077 5.78402ZM33.4908 5.94002C33.4908 4.09202 34.8228 2.82002 36.6588 2.82002C38.4948 2.82002 39.8268 4.09202 39.8268 5.94002C39.8268 7.78802 38.4948 9.06002 36.6588 9.06002C34.8228 9.06002 33.4908 7.78802 33.4908 5.94002ZM34.9548 5.94002C34.9548 7.02002 35.6508 7.75202 36.6588 7.75202C37.6668 7.75202 38.3628 7.02002 38.3628 5.94002C38.3628 4.86002 37.6668 4.12802 36.6588 4.12802C35.6508 4.12802 34.9548 4.86002 34.9548 5.94002ZM44.7072 2.96402V4.32002H44.1672C43.1112 4.32002 42.4512 4.88402 42.4512 6.03602V8.91602H40.9872V3.00002H42.3672L42.4512 3.86402C42.7032 3.27602 43.2672 2.88002 44.0592 2.88002C44.2632 2.88002 44.4672 2.90402 44.7072 2.96402ZM45.3579 11.664V10.44H46.2339C46.8099 10.44 47.1699 10.308 47.4219 9.61202L47.5899 9.16802L45.2019 2.98802H46.7499L48.2739 7.30802L49.8819 2.98802H51.3939L48.4899 10.236C48.0459 11.34 47.4219 11.796 46.4499 11.796C46.0419 11.796 45.6819 11.748 45.3579 11.664Z" fill="black"/>
</svg>
