<svg width="2163" height="28" viewBox="0 0 2163 28" fill="none" xmlns="http://www.w3.org/2000/svg">
<path d="M6.69244 20.6079H0.000437677V0.363909H6.58044C12.6284 0.363909 16.7164 4.45191 16.7164 10.4999C16.7164 16.5199 12.6844 20.6079 6.69244 20.6079ZM6.38444 2.88391H2.74444V18.0599H6.49644C11.0044 18.0599 13.8604 15.1479 13.8604 10.4999C13.8604 5.79591 11.0044 2.88391 6.38444 2.88391ZM25.6675 20.9439C21.6355 20.9439 18.8635 18.0319 18.8635 13.7759C18.8635 9.49191 21.5795 6.52391 25.5555 6.52391C29.4475 6.52391 31.9955 9.21191 31.9955 13.2719V14.2519L21.4115 14.2799C21.6075 17.1639 23.1195 18.7599 25.7235 18.7599C27.7675 18.7599 29.1115 17.9199 29.5595 16.3519H32.0235C31.3515 19.2919 29.0555 20.9439 25.6675 20.9439ZM25.5555 8.73591C23.2595 8.73591 21.8035 10.1079 21.4675 12.5159H29.3635C29.3635 10.2479 27.8795 8.73591 25.5555 8.73591ZM38.3064 20.6079L32.7904 6.91591H35.5904L38.5864 14.5599C39.0624 15.8479 39.4544 16.9959 39.6784 17.8359C39.9024 16.9399 40.3504 15.7639 40.8264 14.5599L43.8784 6.91591H46.6224L40.9104 20.6079H38.3064ZM50.0045 3.66791C49.0525 3.66791 48.2685 2.88391 48.2685 1.93191C48.2685 0.95191 49.0525 0.195909 50.0045 0.195909C50.9565 0.195909 51.7405 0.95191 51.7405 1.93191C51.7405 2.88391 50.9565 3.66791 50.0045 3.66791ZM48.7165 20.6079V6.91591H51.3485V20.6079H48.7165ZM54.2736 13.7759C54.2736 9.49191 56.9896 6.52391 60.9936 6.52391C64.4376 6.52391 66.8456 8.48391 67.3216 11.5359H64.6896C64.2416 9.79991 62.8416 8.87591 61.0776 8.87591C58.5856 8.87591 56.8776 10.7799 56.8776 13.7479C56.8776 16.6879 58.4736 18.5919 60.9656 18.5919C62.8416 18.5919 64.2416 17.6119 64.7176 15.9879H67.3496C66.8176 18.9559 64.2696 20.9439 60.9656 20.9439C56.9336 20.9439 54.2736 18.0879 54.2736 13.7759ZM76.0347 20.9439C72.0027 20.9439 69.2307 18.0319 69.2307 13.7759C69.2307 9.49191 71.9467 6.52391 75.9227 6.52391C79.8147 6.52391 82.3627 9.21191 82.3627 13.2719V14.2519L71.7787 14.2799C71.9747 17.1639 73.4867 18.7599 76.0907 18.7599C78.1347 18.7599 79.4787 17.9199 79.9267 16.3519H82.3907C81.7187 19.2919 79.4227 20.9439 76.0347 20.9439ZM75.9227 8.73591C73.6267 8.73591 72.1707 10.1079 71.8347 12.5159H79.7307C79.7307 10.2479 78.2467 8.73591 75.9227 8.73591ZM94.2467 3.66791C93.2947 3.66791 92.5107 2.88391 92.5107 1.93191C92.5107 0.95191 93.2947 0.195909 94.2467 0.195909C95.1987 0.195909 95.9827 0.95191 95.9827 1.93191C95.9827 2.88391 95.1987 3.66791 94.2467 3.66791ZM92.9587 20.6079V6.91591H95.5907V20.6079H92.9587ZM98.5158 13.7759C98.5158 9.49191 101.232 6.52391 105.236 6.52391C108.68 6.52391 111.088 8.48391 111.564 11.5359H108.932C108.484 9.79991 107.084 8.87591 105.32 8.87591C102.828 8.87591 101.12 10.7799 101.12 13.7479C101.12 16.6879 102.716 18.5919 105.208 18.5919C107.084 18.5919 108.484 17.6119 108.96 15.9879H111.592C111.06 18.9559 108.512 20.9439 105.208 20.9439C101.176 20.9439 98.5158 18.0879 98.5158 13.7759ZM113.473 13.7479C113.473 9.51991 116.497 6.55191 120.613 6.55191C124.701 6.55191 127.725 9.51991 127.725 13.7479C127.725 17.9759 124.701 20.9439 120.613 20.9439C116.497 20.9439 113.473 17.9759 113.473 13.7479ZM116.133 13.7479C116.133 16.6039 117.953 18.5919 120.613 18.5919C123.245 18.5919 125.093 16.6039 125.093 13.7479C125.093 10.8919 123.245 8.90391 120.613 8.90391C117.953 8.90391 116.133 10.8919 116.133 13.7479ZM133.27 20.6079H130.638V6.91591H133.018L133.298 9.01591C134.166 7.44791 135.902 6.52391 137.834 6.52391C141.446 6.52391 143.098 8.73591 143.098 12.2359V20.6079H140.466V12.8239C140.466 10.0519 139.178 8.93191 137.162 8.93191C134.698 8.93191 133.27 10.6959 133.27 13.3559V20.6079ZM145.46 16.6319H147.98C147.98 18.0319 149.044 18.8719 150.78 18.8719C152.628 18.8719 153.692 18.1159 153.692 16.8559C153.692 15.9319 153.244 15.3719 151.816 15.0079L149.408 14.4479C146.972 13.8599 145.824 12.6559 145.824 10.6399C145.824 8.11991 147.952 6.52391 150.976 6.52391C153.972 6.52391 155.932 8.20391 155.988 10.8079H153.468C153.412 9.43591 152.488 8.56791 150.892 8.56791C149.24 8.56791 148.316 9.29591 148.316 10.5559C148.316 11.4799 148.988 12.0959 150.332 12.4319L152.74 13.0199C155.064 13.5799 156.212 14.6439 156.212 16.6879C156.212 19.2919 153.972 20.9439 150.724 20.9439C147.504 20.9439 145.46 19.2359 145.46 16.6319ZM174.627 6.80391V9.21191H173.451C170.959 9.21191 169.419 10.7239 169.419 13.3559V20.6079H166.787V6.94391H169.251L169.419 9.01591C169.979 7.58791 171.351 6.63591 173.227 6.63591C173.703 6.63591 174.095 6.69191 174.627 6.80391ZM182.511 20.9439C178.479 20.9439 175.707 18.0319 175.707 13.7759C175.707 9.49191 178.423 6.52391 182.399 6.52391C186.291 6.52391 188.839 9.21191 188.839 13.2719V14.2519L178.255 14.2799C178.451 17.1639 179.963 18.7599 182.567 18.7599C184.611 18.7599 185.955 17.9199 186.403 16.3519H188.867C188.195 19.2919 185.899 20.9439 182.511 20.9439ZM182.399 8.73591C180.103 8.73591 178.647 10.1079 178.311 12.5159H186.207C186.207 10.2479 184.723 8.73591 182.399 8.73591ZM191.779 26.7399V6.91591H194.159L194.355 9.37991C195.279 7.50391 197.127 6.52391 199.311 6.52391C203.231 6.52391 205.667 9.46391 205.667 13.6639C205.667 17.8359 203.371 20.9719 199.311 20.9719C197.127 20.9719 195.307 20.0479 194.411 18.3679V26.7399H191.779ZM194.439 13.7759C194.439 16.5759 196.063 18.5919 198.751 18.5919C201.439 18.5919 203.035 16.5759 203.035 13.7759C203.035 10.9479 201.439 8.93191 198.751 8.93191C196.063 8.93191 194.439 10.9199 194.439 13.7759ZM216.408 6.80391V9.21191H215.232C212.74 9.21191 211.2 10.7239 211.2 13.3559V20.6079H208.568V6.94391H211.032L211.2 9.01591C211.76 7.58791 213.132 6.63591 215.008 6.63591C215.484 6.63591 215.876 6.69191 216.408 6.80391ZM224.292 20.9439C220.26 20.9439 217.488 18.0319 217.488 13.7759C217.488 9.49191 220.204 6.52391 224.18 6.52391C228.072 6.52391 230.62 9.21191 230.62 13.2719V14.2519L220.036 14.2799C220.232 17.1639 221.744 18.7599 224.348 18.7599C226.392 18.7599 227.736 17.9199 228.184 16.3519H230.648C229.976 19.2919 227.68 20.9439 224.292 20.9439ZM224.18 8.73591C221.884 8.73591 220.428 10.1079 220.092 12.5159H227.988C227.988 10.2479 226.504 8.73591 224.18 8.73591ZM232.44 16.6319H234.96C234.96 18.0319 236.024 18.8719 237.76 18.8719C239.608 18.8719 240.672 18.1159 240.672 16.8559C240.672 15.9319 240.224 15.3719 238.796 15.0079L236.388 14.4479C233.952 13.8599 232.804 12.6559 232.804 10.6399C232.804 8.11991 234.932 6.52391 237.956 6.52391C240.952 6.52391 242.912 8.20391 242.968 10.8079H240.448C240.392 9.43591 239.468 8.56791 237.872 8.56791C236.22 8.56791 235.296 9.29591 235.296 10.5559C235.296 11.4799 235.968 12.0959 237.312 12.4319L239.72 13.0199C242.044 13.5799 243.192 14.6439 243.192 16.6879C243.192 19.2919 240.952 20.9439 237.704 20.9439C234.484 20.9439 232.44 19.2359 232.44 16.6319ZM252.019 20.9439C247.987 20.9439 245.215 18.0319 245.215 13.7759C245.215 9.49191 247.931 6.52391 251.907 6.52391C255.799 6.52391 258.347 9.21191 258.347 13.2719V14.2519L247.763 14.2799C247.959 17.1639 249.471 18.7599 252.075 18.7599C254.119 18.7599 255.463 17.9199 255.911 16.3519H258.375C257.703 19.2919 255.407 20.9439 252.019 20.9439ZM251.907 8.73591C249.611 8.73591 248.155 10.1079 247.819 12.5159H255.715C255.715 10.2479 254.231 8.73591 251.907 8.73591ZM263.919 20.6079H261.287V6.91591H263.667L263.947 9.01591C264.815 7.44791 266.551 6.52391 268.483 6.52391C272.095 6.52391 273.747 8.73591 273.747 12.2359V20.6079H271.115V12.8239C271.115 10.0519 269.827 8.93191 267.811 8.93191C265.347 8.93191 263.919 10.6959 263.919 13.3559V20.6079ZM281.256 20.6079H278.624V9.12791H275.936V6.91591H278.624V2.63191H281.256V6.91591H283.944V9.12791H281.256V20.6079ZM287.594 3.66791C286.642 3.66791 285.858 2.88391 285.858 1.93191C285.858 0.95191 286.642 0.195909 287.594 0.195909C288.546 0.195909 289.33 0.95191 289.33 1.93191C289.33 2.88391 288.546 3.66791 287.594 3.66791ZM286.306 20.6079V6.91591H288.938V20.6079H286.306ZM295.391 20.6079H292.759V6.91591H295.139L295.419 9.01591C296.287 7.44791 298.023 6.52391 299.955 6.52391C303.567 6.52391 305.219 8.73591 305.219 12.2359V20.6079H302.587V12.8239C302.587 10.0519 301.299 8.93191 299.283 8.93191C296.819 8.93191 295.391 10.6959 295.391 13.3559V20.6079ZM307.997 13.4119C307.997 9.54791 310.489 6.52391 314.465 6.52391C316.677 6.52391 318.385 7.53191 319.253 9.23991L319.449 6.91591H321.801V20.0479C321.801 24.3599 319.141 27.1039 314.941 27.1039C311.217 27.1039 308.669 25.0039 308.165 21.5319H310.797C311.133 23.5479 312.645 24.7239 314.941 24.7239C317.517 24.7239 319.197 23.0439 319.197 20.4399V17.6959C318.301 19.2919 316.509 20.2439 314.353 20.2439C310.461 20.2439 307.997 17.2479 307.997 13.4119ZM310.629 13.3559C310.629 15.9319 312.225 17.9479 314.801 17.9479C317.461 17.9479 319.085 16.0439 319.085 13.3559C319.085 10.7239 317.517 8.81991 314.829 8.81991C312.197 8.81991 310.629 10.8359 310.629 13.3559ZM335.888 20.5799H333.256V-9.15527e-05H335.888V9.01591C336.756 7.53191 338.408 6.52391 340.536 6.52391C344.036 6.52391 345.716 8.73591 345.716 12.2359V20.6079H343.084V12.8239C343.084 10.0519 341.768 8.93191 339.808 8.93191C337.26 8.93191 335.888 10.7799 335.888 13.1319V20.5799ZM353.365 20.9439C350.425 20.9439 348.689 19.2919 348.689 16.7999C348.689 14.2799 350.565 12.7119 353.785 12.4599L358.097 12.1239V11.7319C358.097 9.43591 356.725 8.62391 354.877 8.62391C352.665 8.62391 351.405 9.60391 351.405 11.2559H349.109C349.109 8.39991 351.461 6.52391 354.989 6.52391C358.377 6.52391 360.673 8.31591 360.673 12.0119V20.6079H358.433L358.153 18.3959C357.453 19.9639 355.577 20.9439 353.365 20.9439ZM354.121 18.8999C356.613 18.8999 358.125 17.2759 358.125 14.6999V13.9719L354.625 14.2519C352.301 14.4759 351.349 15.3719 351.349 16.7159C351.349 18.1719 352.413 18.8999 354.121 18.8999ZM372.158 6.80391V9.21191H370.982C368.49 9.21191 366.95 10.7239 366.95 13.3559V20.6079H364.318V6.94391H366.782L366.95 9.01591C367.51 7.58791 368.882 6.63591 370.758 6.63591C371.234 6.63591 371.626 6.69191 372.158 6.80391ZM379.622 20.9439C375.646 20.9439 373.238 17.9759 373.238 13.8039C373.238 9.60391 375.674 6.52391 379.734 6.52391C381.834 6.52391 383.598 7.44791 384.522 9.12791V-9.15527e-05H387.126V20.6079H384.774L384.55 18.1159C383.654 19.9919 381.806 20.9439 379.622 20.9439ZM380.154 18.5639C382.842 18.5639 384.494 16.5759 384.494 13.7199C384.494 10.9199 382.842 8.90391 380.154 8.90391C377.466 8.90391 375.898 10.9199 375.898 13.7199C375.898 16.5479 377.466 18.5639 380.154 18.5639ZM393.864 20.6079L389.384 6.91591H392.1L394.368 14.0279C394.676 15.0359 394.956 16.0719 395.208 17.2759C395.432 16.0719 395.796 14.9239 396.104 14.0279L398.4 6.91591H401.088L403.356 14.0279C403.58 14.6999 404.028 16.2959 404.252 17.2759C404.476 16.1839 404.728 15.2319 405.12 14.0279L407.416 6.91591H410.16L405.484 20.6079H402.992L400.612 13.2719C400.164 11.8999 399.884 10.8359 399.744 10.0799C399.604 10.7519 399.352 11.6479 398.848 13.2999L396.468 20.6079H393.864ZM415.791 20.9439C412.851 20.9439 411.115 19.2919 411.115 16.7999C411.115 14.2799 412.991 12.7119 416.211 12.4599L420.523 12.1239V11.7319C420.523 9.43591 419.151 8.62391 417.303 8.62391C415.091 8.62391 413.831 9.60391 413.831 11.2559H411.535C411.535 8.39991 413.887 6.52391 417.415 6.52391C420.803 6.52391 423.099 8.31591 423.099 12.0119V20.6079H420.859L420.579 18.3959C419.879 19.9639 418.003 20.9439 415.791 20.9439ZM416.547 18.8999C419.039 18.8999 420.551 17.2759 420.551 14.6999V13.9719L417.051 14.2519C414.727 14.4759 413.775 15.3719 413.775 16.7159C413.775 18.1719 414.839 18.8999 416.547 18.8999ZM434.584 6.80391V9.21191H433.408C430.916 9.21191 429.376 10.7239 429.376 13.3559V20.6079H426.744V6.94391H429.208L429.376 9.01591C429.936 7.58791 431.308 6.63591 433.184 6.63591C433.66 6.63591 434.052 6.69191 434.584 6.80391ZM442.468 20.9439C438.436 20.9439 435.664 18.0319 435.664 13.7759C435.664 9.49191 438.38 6.52391 442.356 6.52391C446.248 6.52391 448.796 9.21191 448.796 13.2719V14.2519L438.212 14.2799C438.408 17.1639 439.92 18.7599 442.524 18.7599C444.568 18.7599 445.912 17.9199 446.36 16.3519H448.824C448.152 19.2919 445.856 20.9439 442.468 20.9439ZM442.356 8.73591C440.06 8.73591 438.604 10.1079 438.268 12.5159H446.164C446.164 10.2479 444.68 8.73591 442.356 8.73591ZM454.836 19.5159C454.836 21.5319 453.324 23.2119 451.336 23.4639V22.2879C452.484 22.0919 453.296 21.3359 453.296 20.4679C453.1 20.5799 452.876 20.6359 452.54 20.6359C451.616 20.6359 450.832 19.9639 450.832 18.9279C450.832 17.8079 451.588 16.9959 452.708 16.9959C453.884 16.9959 454.836 17.9759 454.836 19.5159ZM472.191 20.9439C468.159 20.9439 465.387 18.0319 465.387 13.7759C465.387 9.49191 468.103 6.52391 472.079 6.52391C475.971 6.52391 478.519 9.21191 478.519 13.2719V14.2519L467.935 14.2799C468.131 17.1639 469.643 18.7599 472.247 18.7599C474.291 18.7599 475.635 17.9199 476.083 16.3519H478.547C477.875 19.2919 475.579 20.9439 472.191 20.9439ZM472.079 8.73591C469.783 8.73591 468.327 10.1079 467.991 12.5159H475.887C475.887 10.2479 474.403 8.73591 472.079 8.73591ZM484.147 20.6079H481.515V-9.15527e-05H484.147V20.6079ZM493.929 20.9439C489.897 20.9439 487.125 18.0319 487.125 13.7759C487.125 9.49191 489.841 6.52391 493.817 6.52391C497.709 6.52391 500.257 9.21191 500.257 13.2719V14.2519L489.673 14.2799C489.869 17.1639 491.381 18.7599 493.985 18.7599C496.029 18.7599 497.373 17.9199 497.821 16.3519H500.285C499.613 19.2919 497.317 20.9439 493.929 20.9439ZM493.817 8.73591C491.521 8.73591 490.065 10.1079 489.729 12.5159H497.625C497.625 10.2479 496.141 8.73591 493.817 8.73591ZM502.301 13.7759C502.301 9.49191 505.017 6.52391 509.021 6.52391C512.465 6.52391 514.873 8.48391 515.349 11.5359H512.717C512.269 9.79991 510.869 8.87591 509.105 8.87591C506.613 8.87591 504.905 10.7799 504.905 13.7479C504.905 16.6879 506.501 18.5919 508.993 18.5919C510.869 18.5919 512.269 17.6119 512.745 15.9879H515.377C514.845 18.9559 512.297 20.9439 508.993 20.9439C504.961 20.9439 502.301 18.0879 502.301 13.7759ZM522.018 20.6079H519.386V9.12791H516.698V6.91591H519.386V2.63191H522.018V6.91591H524.706V9.12791H522.018V20.6079ZM534.908 6.80391V9.21191H533.732C531.24 9.21191 529.7 10.7239 529.7 13.3559V20.6079H527.068V6.94391H529.532L529.7 9.01591C530.26 7.58791 531.632 6.63591 533.508 6.63591C533.984 6.63591 534.376 6.69191 534.908 6.80391ZM535.988 13.7479C535.988 9.51991 539.012 6.55191 543.128 6.55191C547.216 6.55191 550.24 9.51991 550.24 13.7479C550.24 17.9759 547.216 20.9439 543.128 20.9439C539.012 20.9439 535.988 17.9759 535.988 13.7479ZM538.648 13.7479C538.648 16.6039 540.468 18.5919 543.128 18.5919C545.76 18.5919 547.608 16.6039 547.608 13.7479C547.608 10.8919 545.76 8.90391 543.128 8.90391C540.468 8.90391 538.648 10.8919 538.648 13.7479ZM555.786 20.6079H553.154V6.91591H555.534L555.814 9.01591C556.682 7.44791 558.418 6.52391 560.35 6.52391C563.962 6.52391 565.614 8.73591 565.614 12.2359V20.6079H562.982V12.8239C562.982 10.0519 561.694 8.93191 559.678 8.93191C557.214 8.93191 555.786 10.6959 555.786 13.3559V20.6079ZM570.547 3.66791C569.595 3.66791 568.811 2.88391 568.811 1.93191C568.811 0.95191 569.595 0.195909 570.547 0.195909C571.499 0.195909 572.283 0.95191 572.283 1.93191C572.283 2.88391 571.499 3.66791 570.547 3.66791ZM569.259 20.6079V6.91591H571.891V20.6079H569.259ZM574.817 13.7759C574.817 9.49191 577.533 6.52391 581.537 6.52391C584.981 6.52391 587.389 8.48391 587.865 11.5359H585.233C584.785 9.79991 583.385 8.87591 581.621 8.87591C579.129 8.87591 577.421 10.7799 577.421 13.7479C577.421 16.6879 579.017 18.5919 581.509 18.5919C583.385 18.5919 584.785 17.6119 585.261 15.9879H587.893C587.361 18.9559 584.813 20.9439 581.509 20.9439C577.477 20.9439 574.817 18.0879 574.817 13.7759ZM589.55 16.6319H592.07C592.07 18.0319 593.134 18.8719 594.87 18.8719C596.718 18.8719 597.782 18.1159 597.782 16.8559C597.782 15.9319 597.334 15.3719 595.906 15.0079L593.498 14.4479C591.062 13.8599 589.914 12.6559 589.914 10.6399C589.914 8.11991 592.042 6.52391 595.066 6.52391C598.062 6.52391 600.022 8.20391 600.078 10.8079H597.558C597.502 9.43591 596.578 8.56791 594.982 8.56791C593.33 8.56791 592.406 9.29591 592.406 10.5559C592.406 11.4799 593.078 12.0959 594.422 12.4319L596.83 13.0199C599.154 13.5799 600.302 14.6439 600.302 16.6879C600.302 19.2919 598.062 20.9439 594.814 20.9439C591.594 20.9439 589.55 19.2359 589.55 16.6319ZM607.004 19.5159C607.004 21.5319 605.492 23.2119 603.504 23.4639V22.2879C604.652 22.0919 605.464 21.3359 605.464 20.4679C605.268 20.5799 605.044 20.6359 604.708 20.6359C603.784 20.6359 603 19.9639 603 18.9279C603 17.8079 603.756 16.9959 604.876 16.9959C606.052 16.9959 607.004 17.9759 607.004 19.5159ZM618.451 26.7399V6.91591H620.831L621.027 9.37991C621.951 7.50391 623.799 6.52391 625.983 6.52391C629.903 6.52391 632.339 9.46391 632.339 13.6639C632.339 17.8359 630.043 20.9719 625.983 20.9719C623.799 20.9719 621.979 20.0479 621.083 18.3679V26.7399H618.451ZM621.111 13.7759C621.111 16.5759 622.735 18.5919 625.423 18.5919C628.111 18.5919 629.707 16.5759 629.707 13.7759C629.707 10.9479 628.111 8.93191 625.423 8.93191C622.735 8.93191 621.111 10.9199 621.111 13.7759ZM641.148 20.9439C637.116 20.9439 634.344 18.0319 634.344 13.7759C634.344 9.49191 637.06 6.52391 641.036 6.52391C644.928 6.52391 647.476 9.21191 647.476 13.2719V14.2519L636.892 14.2799C637.088 17.1639 638.6 18.7599 641.204 18.7599C643.248 18.7599 644.592 17.9199 645.04 16.3519H647.504C646.832 19.2919 644.536 20.9439 641.148 20.9439ZM641.036 8.73591C638.74 8.73591 637.284 10.1079 636.948 12.5159H644.844C644.844 10.2479 643.36 8.73591 641.036 8.73591ZM658.256 6.80391V9.21191H657.08C654.588 9.21191 653.048 10.7239 653.048 13.3559V20.6079H650.416V6.94391H652.88L653.048 9.01591C653.608 7.58791 654.98 6.63591 656.856 6.63591C657.332 6.63591 657.724 6.69191 658.256 6.80391ZM662.012 3.66791C661.06 3.66791 660.276 2.88391 660.276 1.93191C660.276 0.95191 661.06 0.195909 662.012 0.195909C662.964 0.195909 663.748 0.95191 663.748 1.93191C663.748 2.88391 662.964 3.66791 662.012 3.66791ZM660.724 20.6079V6.91591H663.356V20.6079H660.724ZM667.177 26.7399V6.91591H669.557L669.753 9.37991C670.677 7.50391 672.525 6.52391 674.709 6.52391C678.629 6.52391 681.065 9.46391 681.065 13.6639C681.065 17.8359 678.769 20.9719 674.709 20.9719C672.525 20.9719 670.705 20.0479 669.809 18.3679V26.7399H667.177ZM669.837 13.7759C669.837 16.5759 671.461 18.5919 674.149 18.5919C676.837 18.5919 678.433 16.5759 678.433 13.7759C678.433 10.9479 676.837 8.93191 674.149 8.93191C671.461 8.93191 669.837 10.9199 669.837 13.7759ZM686.599 20.5799H683.967V-9.15527e-05H686.599V9.01591C687.467 7.53191 689.119 6.52391 691.247 6.52391C694.747 6.52391 696.427 8.73591 696.427 12.2359V20.6079H693.795V12.8239C693.795 10.0519 692.479 8.93191 690.519 8.93191C687.971 8.93191 686.599 10.7799 686.599 13.1319V20.5799ZM705.98 20.9439C701.948 20.9439 699.176 18.0319 699.176 13.7759C699.176 9.49191 701.892 6.52391 705.868 6.52391C709.76 6.52391 712.308 9.21191 712.308 13.2719V14.2519L701.724 14.2799C701.92 17.1639 703.432 18.7599 706.036 18.7599C708.08 18.7599 709.424 17.9199 709.872 16.3519H712.336C711.664 19.2919 709.368 20.9439 705.98 20.9439ZM705.868 8.73591C703.572 8.73591 702.116 10.1079 701.78 12.5159H709.676C709.676 10.2479 708.192 8.73591 705.868 8.73591ZM723.088 6.80391V9.21191H721.912C719.42 9.21191 717.88 10.7239 717.88 13.3559V20.6079H715.248V6.94391H717.712L717.88 9.01591C718.44 7.58791 719.812 6.63591 721.688 6.63591C722.164 6.63591 722.556 6.69191 723.088 6.80391ZM729.013 20.9439C726.073 20.9439 724.337 19.2919 724.337 16.7999C724.337 14.2799 726.213 12.7119 729.433 12.4599L733.745 12.1239V11.7319C733.745 9.43591 732.373 8.62391 730.525 8.62391C728.313 8.62391 727.053 9.60391 727.053 11.2559H724.757C724.757 8.39991 727.109 6.52391 730.637 6.52391C734.025 6.52391 736.321 8.31591 736.321 12.0119V20.6079H734.081L733.801 18.3959C733.101 19.9639 731.225 20.9439 729.013 20.9439ZM729.769 18.8999C732.261 18.8999 733.773 17.2759 733.773 14.6999V13.9719L730.273 14.2519C727.949 14.4759 726.997 15.3719 726.997 16.7159C726.997 18.1719 728.061 18.8999 729.769 18.8999ZM742.655 20.6079H740.023V-9.15527e-05H742.655V20.6079ZM745.409 16.6319H747.929C747.929 18.0319 748.993 18.8719 750.729 18.8719C752.577 18.8719 753.641 18.1159 753.641 16.8559C753.641 15.9319 753.193 15.3719 751.765 15.0079L749.357 14.4479C746.921 13.8599 745.773 12.6559 745.773 10.6399C745.773 8.11991 747.901 6.52391 750.925 6.52391C753.921 6.52391 755.881 8.20391 755.937 10.8079H753.417C753.361 9.43591 752.437 8.56791 750.841 8.56791C749.189 8.56791 748.265 9.29591 748.265 10.5559C748.265 11.4799 748.937 12.0959 750.281 12.4319L752.689 13.0199C755.013 13.5799 756.161 14.6439 756.161 16.6879C756.161 19.2919 753.921 20.9439 750.673 20.9439C747.453 20.9439 745.409 19.2359 745.409 16.6319ZM762.864 19.5159C762.864 21.5319 761.352 23.2119 759.364 23.4639V22.2879C760.512 22.0919 761.324 21.3359 761.324 20.4679C761.128 20.5799 760.904 20.6359 760.568 20.6359C759.644 20.6359 758.86 19.9639 758.86 18.9279C758.86 17.8079 759.616 16.9959 760.736 16.9959C761.912 16.9959 762.864 17.9759 762.864 19.5159ZM778.314 20.9439C775.374 20.9439 773.638 19.2919 773.638 16.7999C773.638 14.2799 775.514 12.7119 778.734 12.4599L783.046 12.1239V11.7319C783.046 9.43591 781.674 8.62391 779.826 8.62391C777.614 8.62391 776.354 9.60391 776.354 11.2559H774.058C774.058 8.39991 776.41 6.52391 779.938 6.52391C783.326 6.52391 785.622 8.31591 785.622 12.0119V20.6079H783.382L783.102 18.3959C782.402 19.9639 780.526 20.9439 778.314 20.9439ZM779.07 18.8999C781.562 18.8999 783.074 17.2759 783.074 14.6999V13.9719L779.574 14.2519C777.25 14.4759 776.298 15.3719 776.298 16.7159C776.298 18.1719 777.362 18.8999 779.07 18.8999ZM791.899 20.6079H789.267V6.91591H791.647L791.927 9.01591C792.795 7.44791 794.531 6.52391 796.463 6.52391C800.075 6.52391 801.727 8.73591 801.727 12.2359V20.6079H799.095V12.8239C799.095 10.0519 797.807 8.93191 795.791 8.93191C793.327 8.93191 791.899 10.6959 791.899 13.3559V20.6079ZM810.861 20.9439C806.885 20.9439 804.477 17.9759 804.477 13.8039C804.477 9.60391 806.913 6.52391 810.973 6.52391C813.073 6.52391 814.837 7.44791 815.761 9.12791V-9.15527e-05H818.365V20.6079H816.013L815.789 18.1159C814.893 19.9919 813.045 20.9439 810.861 20.9439ZM811.393 18.5639C814.081 18.5639 815.733 16.5759 815.733 13.7199C815.733 10.9199 814.081 8.90391 811.393 8.90391C808.705 8.90391 807.137 10.9199 807.137 13.7199C807.137 16.5479 808.705 18.5639 811.393 18.5639ZM835.306 20.9439C831.33 20.9439 828.922 17.9759 828.922 13.8039C828.922 9.60391 831.358 6.52391 835.418 6.52391C837.518 6.52391 839.282 7.44791 840.206 9.12791V-9.15527e-05H842.81V20.6079H840.458L840.234 18.1159C839.338 19.9919 837.49 20.9439 835.306 20.9439ZM835.838 18.5639C838.526 18.5639 840.178 16.5759 840.178 13.7199C840.178 10.9199 838.526 8.90391 835.838 8.90391C833.15 8.90391 831.582 10.9199 831.582 13.7199C831.582 16.5479 833.15 18.5639 835.838 18.5639ZM852.515 20.9439C848.483 20.9439 845.711 18.0319 845.711 13.7759C845.711 9.49191 848.427 6.52391 852.403 6.52391C856.295 6.52391 858.843 9.21191 858.843 13.2719V14.2519L848.259 14.2799C848.455 17.1639 849.967 18.7599 852.571 18.7599C854.615 18.7599 855.959 17.9199 856.407 16.3519H858.871C858.199 19.2919 855.903 20.9439 852.515 20.9439ZM852.403 8.73591C850.107 8.73591 848.651 10.1079 848.315 12.5159H856.211C856.211 10.2479 854.727 8.73591 852.403 8.73591ZM865.154 20.6079L859.638 6.91591H862.438L865.434 14.5599C865.91 15.8479 866.302 16.9959 866.526 17.8359C866.75 16.9399 867.198 15.7639 867.674 14.5599L870.726 6.91591H873.47L867.758 20.6079H865.154ZM876.852 3.66791C875.9 3.66791 875.116 2.88391 875.116 1.93191C875.116 0.95191 875.9 0.195909 876.852 0.195909C877.804 0.195909 878.588 0.95191 878.588 1.93191C878.588 2.88391 877.804 3.66791 876.852 3.66791ZM875.564 20.6079V6.91591H878.196V20.6079H875.564ZM881.121 13.7759C881.121 9.49191 883.837 6.52391 887.841 6.52391C891.285 6.52391 893.693 8.48391 894.169 11.5359H891.537C891.089 9.79991 889.689 8.87591 887.925 8.87591C885.433 8.87591 883.725 10.7799 883.725 13.7479C883.725 16.6879 885.321 18.5919 887.813 18.5919C889.689 18.5919 891.089 17.6119 891.565 15.9879H894.197C893.665 18.9559 891.117 20.9439 887.813 20.9439C883.781 20.9439 881.121 18.0879 881.121 13.7759ZM902.882 20.9439C898.85 20.9439 896.078 18.0319 896.078 13.7759C896.078 9.49191 898.794 6.52391 902.77 6.52391C906.662 6.52391 909.21 9.21191 909.21 13.2719V14.2519L898.626 14.2799C898.822 17.1639 900.334 18.7599 902.938 18.7599C904.982 18.7599 906.326 17.9199 906.774 16.3519H909.238C908.566 19.2919 906.27 20.9439 902.882 20.9439ZM902.77 8.73591C900.474 8.73591 899.018 10.1079 898.682 12.5159H906.578C906.578 10.2479 905.094 8.73591 902.77 8.73591ZM918.686 16.6319H921.206C921.206 18.0319 922.27 18.8719 924.006 18.8719C925.854 18.8719 926.918 18.1159 926.918 16.8559C926.918 15.9319 926.47 15.3719 925.042 15.0079L922.634 14.4479C920.198 13.8599 919.05 12.6559 919.05 10.6399C919.05 8.11991 921.178 6.52391 924.202 6.52391C927.198 6.52391 929.158 8.20391 929.214 10.8079H926.694C926.638 9.43591 925.714 8.56791 924.118 8.56791C922.466 8.56791 921.542 9.29591 921.542 10.5559C921.542 11.4799 922.214 12.0959 923.558 12.4319L925.966 13.0199C928.29 13.5799 929.438 14.6439 929.438 16.6879C929.438 19.2919 927.198 20.9439 923.95 20.9439C920.73 20.9439 918.686 19.2359 918.686 16.6319ZM936.221 20.6079H933.589V9.12791H930.901V6.91591H933.589V2.63191H936.221V6.91591H938.909V9.12791H936.221V20.6079ZM945.111 20.9439C942.171 20.9439 940.435 19.2919 940.435 16.7999C940.435 14.2799 942.311 12.7119 945.531 12.4599L949.843 12.1239V11.7319C949.843 9.43591 948.471 8.62391 946.623 8.62391C944.411 8.62391 943.151 9.60391 943.151 11.2559H940.855C940.855 8.39991 943.207 6.52391 946.735 6.52391C950.123 6.52391 952.419 8.31591 952.419 12.0119V20.6079H950.179L949.899 18.3959C949.199 19.9639 947.323 20.9439 945.111 20.9439ZM945.867 18.8999C948.359 18.8999 949.871 17.2759 949.871 14.6999V13.9719L946.371 14.2519C944.047 14.4759 943.095 15.3719 943.095 16.7159C943.095 18.1719 944.159 18.8999 945.867 18.8999ZM959.709 20.6079H957.077V9.12791H954.389V6.91591H957.077V2.63191H959.709V6.91591H962.397V9.12791H959.709V20.6079ZM970.531 20.9439C966.499 20.9439 963.727 18.0319 963.727 13.7759C963.727 9.49191 966.443 6.52391 970.419 6.52391C974.311 6.52391 976.859 9.21191 976.859 13.2719V14.2519L966.275 14.2799C966.471 17.1639 967.983 18.7599 970.587 18.7599C972.631 18.7599 973.975 17.9199 974.423 16.3519H976.887C976.215 19.2919 973.919 20.9439 970.531 20.9439ZM970.419 8.73591C968.123 8.73591 966.667 10.1079 966.331 12.5159H974.227C974.227 10.2479 972.743 8.73591 970.419 8.73591ZM978.679 16.6319H981.199C981.199 18.0319 982.263 18.8719 983.999 18.8719C985.847 18.8719 986.911 18.1159 986.911 16.8559C986.911 15.9319 986.463 15.3719 985.035 15.0079L982.627 14.4479C980.191 13.8599 979.043 12.6559 979.043 10.6399C979.043 8.11991 981.171 6.52391 984.195 6.52391C987.191 6.52391 989.151 8.20391 989.207 10.8079H986.687C986.631 9.43591 985.707 8.56791 984.111 8.56791C982.459 8.56791 981.535 9.29591 981.535 10.5559C981.535 11.4799 982.207 12.0959 983.551 12.4319L985.959 13.0199C988.283 13.5799 989.431 14.6439 989.431 16.6879C989.431 19.2919 987.191 20.9439 983.943 20.9439C980.723 20.9439 978.679 19.2359 978.679 16.6319ZM1009.47 6.91591H1012.07V20.6079H1009.72L1009.44 18.5359C1008.66 19.9639 1006.84 20.9439 1004.82 20.9439C1001.63 20.9439 999.838 18.7879 999.838 15.4279V6.91591H1002.47V14.5599C1002.47 17.4999 1003.73 18.6199 1005.75 18.6199C1008.15 18.6199 1009.47 17.0799 1009.47 14.1399V6.91591ZM1014.5 16.6319H1017.02C1017.02 18.0319 1018.08 18.8719 1019.82 18.8719C1021.67 18.8719 1022.73 18.1159 1022.73 16.8559C1022.73 15.9319 1022.28 15.3719 1020.85 15.0079L1018.45 14.4479C1016.01 13.8599 1014.86 12.6559 1014.86 10.6399C1014.86 8.11991 1016.99 6.52391 1020.01 6.52391C1023.01 6.52391 1024.97 8.20391 1025.03 10.8079H1022.51C1022.45 9.43591 1021.53 8.56791 1019.93 8.56791C1018.28 8.56791 1017.35 9.29591 1017.35 10.5559C1017.35 11.4799 1018.03 12.0959 1019.37 12.4319L1021.78 13.0199C1024.1 13.5799 1025.25 14.6439 1025.25 16.6879C1025.25 19.2919 1023.01 20.9439 1019.76 20.9439C1016.54 20.9439 1014.5 19.2359 1014.5 16.6319ZM1034.08 20.9439C1030.05 20.9439 1027.27 18.0319 1027.27 13.7759C1027.27 9.49191 1029.99 6.52391 1033.97 6.52391C1037.86 6.52391 1040.41 9.21191 1040.41 13.2719V14.2519L1029.82 14.2799C1030.02 17.1639 1031.53 18.7599 1034.13 18.7599C1036.18 18.7599 1037.52 17.9199 1037.97 16.3519H1040.43C1039.76 19.2919 1037.47 20.9439 1034.08 20.9439ZM1033.97 8.73591C1031.67 8.73591 1030.21 10.1079 1029.88 12.5159H1037.77C1037.77 10.2479 1036.29 8.73591 1033.97 8.73591ZM1048.83 20.9439C1044.86 20.9439 1042.45 17.9759 1042.45 13.8039C1042.45 9.60391 1044.89 6.52391 1048.95 6.52391C1051.05 6.52391 1052.81 7.44791 1053.73 9.12791V-9.15527e-05H1056.34V20.6079H1053.99L1053.76 18.1159C1052.87 19.9919 1051.02 20.9439 1048.83 20.9439ZM1049.37 18.5639C1052.05 18.5639 1053.71 16.5759 1053.71 13.7199C1053.71 10.9199 1052.05 8.90391 1049.37 8.90391C1046.68 8.90391 1045.11 10.9199 1045.11 13.7199C1045.11 16.5479 1046.68 18.5639 1049.37 18.5639ZM1071.79 20.9439C1068.85 20.9439 1067.12 19.2919 1067.12 16.7999C1067.12 14.2799 1068.99 12.7119 1072.21 12.4599L1076.53 12.1239V11.7319C1076.53 9.43591 1075.15 8.62391 1073.31 8.62391C1071.09 8.62391 1069.83 9.60391 1069.83 11.2559H1067.54C1067.54 8.39991 1069.89 6.52391 1073.42 6.52391C1076.81 6.52391 1079.1 8.31591 1079.1 12.0119V20.6079H1076.86L1076.58 18.3959C1075.88 19.9639 1074.01 20.9439 1071.79 20.9439ZM1072.55 18.8999C1075.04 18.8999 1076.55 17.2759 1076.55 14.6999V13.9719L1073.05 14.2519C1070.73 14.4759 1069.78 15.3719 1069.78 16.7159C1069.78 18.1719 1070.84 18.8999 1072.55 18.8999ZM1081.85 13.7759C1081.85 9.49191 1084.57 6.52391 1088.57 6.52391C1092.02 6.52391 1094.42 8.48391 1094.9 11.5359H1092.27C1091.82 9.79991 1090.42 8.87591 1088.66 8.87591C1086.16 8.87591 1084.46 10.7799 1084.46 13.7479C1084.46 16.6879 1086.05 18.5919 1088.54 18.5919C1090.42 18.5919 1091.82 17.6119 1092.3 15.9879H1094.93C1094.4 18.9559 1091.85 20.9439 1088.54 20.9439C1084.51 20.9439 1081.85 18.0879 1081.85 13.7759ZM1105.54 6.80391V9.21191H1104.37C1101.88 9.21191 1100.34 10.7239 1100.34 13.3559V20.6079H1097.7V6.94391H1100.17L1100.34 9.01591C1100.9 7.58791 1102.27 6.63591 1104.14 6.63591C1104.62 6.63591 1105.01 6.69191 1105.54 6.80391ZM1106.63 13.7479C1106.63 9.51991 1109.65 6.55191 1113.77 6.55191C1117.85 6.55191 1120.88 9.51991 1120.88 13.7479C1120.88 17.9759 1117.85 20.9439 1113.77 20.9439C1109.65 20.9439 1106.63 17.9759 1106.63 13.7479ZM1109.29 13.7479C1109.29 16.6039 1111.11 18.5919 1113.77 18.5919C1116.4 18.5919 1118.25 16.6039 1118.25 13.7479C1118.25 10.8919 1116.4 8.90391 1113.77 8.90391C1111.11 8.90391 1109.29 10.8919 1109.29 13.7479ZM1122.67 16.6319H1125.19C1125.19 18.0319 1126.25 18.8719 1127.99 18.8719C1129.84 18.8719 1130.9 18.1159 1130.9 16.8559C1130.9 15.9319 1130.45 15.3719 1129.03 15.0079L1126.62 14.4479C1124.18 13.8599 1123.03 12.6559 1123.03 10.6399C1123.03 8.11991 1125.16 6.52391 1128.19 6.52391C1131.18 6.52391 1133.14 8.20391 1133.2 10.8079H1130.68C1130.62 9.43591 1129.7 8.56791 1128.1 8.56791C1126.45 8.56791 1125.53 9.29591 1125.53 10.5559C1125.53 11.4799 1126.2 12.0959 1127.54 12.4319L1129.95 13.0199C1132.27 13.5799 1133.42 14.6439 1133.42 16.6879C1133.42 19.2919 1131.18 20.9439 1127.93 20.9439C1124.71 20.9439 1122.67 19.2359 1122.67 16.6319ZM1135.22 16.6319H1137.74C1137.74 18.0319 1138.81 18.8719 1140.54 18.8719C1142.39 18.8719 1143.45 18.1159 1143.45 16.8559C1143.45 15.9319 1143.01 15.3719 1141.58 15.0079L1139.17 14.4479C1136.73 13.8599 1135.59 12.6559 1135.59 10.6399C1135.59 8.11991 1137.71 6.52391 1140.74 6.52391C1143.73 6.52391 1145.69 8.20391 1145.75 10.8079H1143.23C1143.17 9.43591 1142.25 8.56791 1140.65 8.56791C1139 8.56791 1138.08 9.29591 1138.08 10.5559C1138.08 11.4799 1138.75 12.0959 1140.09 12.4319L1142.5 13.0199C1144.83 13.5799 1145.97 14.6439 1145.97 16.6879C1145.97 19.2919 1143.73 20.9439 1140.49 20.9439C1137.27 20.9439 1135.22 19.2359 1135.22 16.6319ZM1155.43 16.6319H1157.95C1157.95 18.0319 1159.01 18.8719 1160.75 18.8719C1162.6 18.8719 1163.66 18.1159 1163.66 16.8559C1163.66 15.9319 1163.21 15.3719 1161.78 15.0079L1159.38 14.4479C1156.94 13.8599 1155.79 12.6559 1155.79 10.6399C1155.79 8.11991 1157.92 6.52391 1160.94 6.52391C1163.94 6.52391 1165.9 8.20391 1165.96 10.8079H1163.44C1163.38 9.43591 1162.46 8.56791 1160.86 8.56791C1159.21 8.56791 1158.28 9.29591 1158.28 10.5559C1158.28 11.4799 1158.96 12.0959 1160.3 12.4319L1162.71 13.0199C1165.03 13.5799 1166.18 14.6439 1166.18 16.6879C1166.18 19.2919 1163.94 20.9439 1160.69 20.9439C1157.47 20.9439 1155.43 19.2359 1155.43 16.6319ZM1167.51 26.7399V24.5839H1169.27C1170.53 24.5839 1171.54 24.3879 1172.19 22.6519L1172.66 21.3359L1167.15 6.91591H1169.92L1173.89 17.9479L1177.95 6.91591H1180.67L1174.2 23.6879C1173.28 26.0399 1171.91 27.0199 1169.81 27.0199C1168.94 27.0199 1168.21 26.9079 1167.51 26.7399ZM1181.46 16.6319H1183.98C1183.98 18.0319 1185.04 18.8719 1186.78 18.8719C1188.63 18.8719 1189.69 18.1159 1189.69 16.8559C1189.69 15.9319 1189.24 15.3719 1187.82 15.0079L1185.41 14.4479C1182.97 13.8599 1181.82 12.6559 1181.82 10.6399C1181.82 8.11991 1183.95 6.52391 1186.98 6.52391C1189.97 6.52391 1191.93 8.20391 1191.99 10.8079H1189.47C1189.41 9.43591 1188.49 8.56791 1186.89 8.56791C1185.24 8.56791 1184.32 9.29591 1184.32 10.5559C1184.32 11.4799 1184.99 12.0959 1186.33 12.4319L1188.74 13.0199C1191.06 13.5799 1192.21 14.6439 1192.21 16.6879C1192.21 19.2919 1189.97 20.9439 1186.72 20.9439C1183.5 20.9439 1181.46 19.2359 1181.46 16.6319ZM1198.99 20.6079H1196.36V9.12791H1193.67V6.91591H1196.36V2.63191H1198.99V6.91591H1201.68V9.12791H1198.99V20.6079ZM1209.82 20.9439C1205.78 20.9439 1203.01 18.0319 1203.01 13.7759C1203.01 9.49191 1205.73 6.52391 1209.7 6.52391C1213.6 6.52391 1216.14 9.21191 1216.14 13.2719V14.2519L1205.56 14.2799C1205.76 17.1639 1207.27 18.7599 1209.87 18.7599C1211.92 18.7599 1213.26 17.9199 1213.71 16.3519H1216.17C1215.5 19.2919 1213.2 20.9439 1209.82 20.9439ZM1209.7 8.73591C1207.41 8.73591 1205.95 10.1079 1205.62 12.5159H1213.51C1213.51 10.2479 1212.03 8.73591 1209.7 8.73591ZM1221.72 20.6079H1219.08V6.91591H1221.44L1221.69 8.70791C1222.39 7.41991 1223.84 6.52391 1225.78 6.52391C1227.9 6.52391 1229.42 7.58791 1230.12 9.29591C1230.76 7.58791 1232.41 6.52391 1234.54 6.52391C1237.68 6.52391 1239.58 8.48391 1239.58 11.6479V20.6079H1237V12.2919C1237 10.1359 1235.8 8.90391 1233.95 8.90391C1231.96 8.90391 1230.65 10.3039 1230.65 12.4879V20.6079H1228.04V12.2639C1228.04 10.1079 1226.87 8.93191 1225.02 8.93191C1223.03 8.93191 1221.72 10.3039 1221.72 12.4879V20.6079ZM1256.37 20.9439C1252.4 20.9439 1249.99 17.9759 1249.99 13.8039C1249.99 9.60391 1252.42 6.52391 1256.48 6.52391C1258.58 6.52391 1260.35 7.44791 1261.27 9.12791V-9.15527e-05H1263.88V20.6079H1261.52L1261.3 18.1159C1260.4 19.9919 1258.56 20.9439 1256.37 20.9439ZM1256.9 18.5639C1259.59 18.5639 1261.24 16.5759 1261.24 13.7199C1261.24 10.9199 1259.59 8.90391 1256.9 8.90391C1254.22 8.90391 1252.65 10.9199 1252.65 13.7199C1252.65 16.5479 1254.22 18.5639 1256.9 18.5639ZM1271.68 20.9439C1268.74 20.9439 1267 19.2919 1267 16.7999C1267 14.2799 1268.88 12.7119 1272.1 12.4599L1276.41 12.1239V11.7319C1276.41 9.43591 1275.04 8.62391 1273.19 8.62391C1270.98 8.62391 1269.72 9.60391 1269.72 11.2559H1267.42C1267.42 8.39991 1269.77 6.52391 1273.3 6.52391C1276.69 6.52391 1278.99 8.31591 1278.99 12.0119V20.6079H1276.75L1276.47 18.3959C1275.77 19.9639 1273.89 20.9439 1271.68 20.9439ZM1272.43 18.8999C1274.93 18.8999 1276.44 17.2759 1276.44 14.6999V13.9719L1272.94 14.2519C1270.61 14.4759 1269.66 15.3719 1269.66 16.7159C1269.66 18.1719 1270.73 18.8999 1272.43 18.8999ZM1281.51 16.6319H1284.03C1284.03 18.0319 1285.09 18.8719 1286.83 18.8719C1288.68 18.8719 1289.74 18.1159 1289.74 16.8559C1289.74 15.9319 1289.29 15.3719 1287.87 15.0079L1285.46 14.4479C1283.02 13.8599 1281.87 12.6559 1281.87 10.6399C1281.87 8.11991 1284 6.52391 1287.03 6.52391C1290.02 6.52391 1291.98 8.20391 1292.04 10.8079H1289.52C1289.46 9.43591 1288.54 8.56791 1286.94 8.56791C1285.29 8.56791 1284.37 9.29591 1284.37 10.5559C1284.37 11.4799 1285.04 12.0959 1286.38 12.4319L1288.79 13.0199C1291.11 13.5799 1292.26 14.6439 1292.26 16.6879C1292.26 19.2919 1290.02 20.9439 1286.77 20.9439C1283.55 20.9439 1281.51 19.2359 1281.51 16.6319ZM1297.81 20.5799H1295.18V-9.15527e-05H1297.81V9.01591C1298.68 7.53191 1300.33 6.52391 1302.46 6.52391C1305.96 6.52391 1307.64 8.73591 1307.64 12.2359V20.6079H1305.01V12.8239C1305.01 10.0519 1303.69 8.93191 1301.73 8.93191C1299.19 8.93191 1297.81 10.7799 1297.81 13.1319V20.5799ZM1313.67 20.6079H1311.29V-9.15527e-05H1313.92V9.26791C1314.81 7.47591 1316.66 6.52391 1318.9 6.52391C1322.82 6.52391 1325.17 9.60391 1325.17 13.8319C1325.17 17.9759 1322.71 20.9439 1318.73 20.9439C1316.58 20.9439 1314.76 19.9919 1313.86 18.1159L1313.67 20.6079ZM1313.95 13.7199C1313.95 16.5759 1315.57 18.5639 1318.26 18.5639C1320.95 18.5639 1322.54 16.5479 1322.54 13.7199C1322.54 10.9199 1320.95 8.90391 1318.26 8.90391C1315.57 8.90391 1313.95 10.9199 1313.95 13.7199ZM1327.18 13.7479C1327.18 9.51991 1330.2 6.55191 1334.32 6.55191C1338.41 6.55191 1341.43 9.51991 1341.43 13.7479C1341.43 17.9759 1338.41 20.9439 1334.32 20.9439C1330.2 20.9439 1327.18 17.9759 1327.18 13.7479ZM1329.84 13.7479C1329.84 16.6039 1331.66 18.5919 1334.32 18.5919C1336.95 18.5919 1338.8 16.6039 1338.8 13.7479C1338.8 10.8919 1336.95 8.90391 1334.32 8.90391C1331.66 8.90391 1329.84 10.8919 1329.84 13.7479ZM1348.35 20.9439C1345.41 20.9439 1343.67 19.2919 1343.67 16.7999C1343.67 14.2799 1345.55 12.7119 1348.77 12.4599L1353.08 12.1239V11.7319C1353.08 9.43591 1351.71 8.62391 1349.86 8.62391C1347.65 8.62391 1346.39 9.60391 1346.39 11.2559H1344.09C1344.09 8.39991 1346.45 6.52391 1349.97 6.52391C1353.36 6.52391 1355.66 8.31591 1355.66 12.0119V20.6079H1353.42L1353.14 18.3959C1352.44 19.9639 1350.56 20.9439 1348.35 20.9439ZM1349.11 18.8999C1351.6 18.8999 1353.11 17.2759 1353.11 14.6999V13.9719L1349.61 14.2519C1347.29 14.4759 1346.33 15.3719 1346.33 16.7159C1346.33 18.1719 1347.4 18.8999 1349.11 18.8999ZM1367.14 6.80391V9.21191H1365.97C1363.47 9.21191 1361.93 10.7239 1361.93 13.3559V20.6079H1359.3V6.94391H1361.77L1361.93 9.01591C1362.49 7.58791 1363.87 6.63591 1365.74 6.63591C1366.22 6.63591 1366.61 6.69191 1367.14 6.80391ZM1374.61 20.9439C1370.63 20.9439 1368.22 17.9759 1368.22 13.8039C1368.22 9.60391 1370.66 6.52391 1374.72 6.52391C1376.82 6.52391 1378.58 7.44791 1379.51 9.12791V-9.15527e-05H1382.11V20.6079H1379.76L1379.53 18.1159C1378.64 19.9919 1376.79 20.9439 1374.61 20.9439ZM1375.14 18.5639C1377.83 18.5639 1379.48 16.5759 1379.48 13.7199C1379.48 10.9199 1377.83 8.90391 1375.14 8.90391C1372.45 8.90391 1370.88 10.9199 1370.88 13.7199C1370.88 16.5479 1372.45 18.5639 1375.14 18.5639ZM1384.79 16.6319H1387.31C1387.31 18.0319 1388.37 18.8719 1390.11 18.8719C1391.96 18.8719 1393.02 18.1159 1393.02 16.8559C1393.02 15.9319 1392.57 15.3719 1391.14 15.0079L1388.74 14.4479C1386.3 13.8599 1385.15 12.6559 1385.15 10.6399C1385.15 8.11991 1387.28 6.52391 1390.3 6.52391C1393.3 6.52391 1395.26 8.20391 1395.32 10.8079H1392.8C1392.74 9.43591 1391.82 8.56791 1390.22 8.56791C1388.57 8.56791 1387.64 9.29591 1387.64 10.5559C1387.64 11.4799 1388.32 12.0959 1389.66 12.4319L1392.07 13.0199C1394.39 13.5799 1395.54 14.6439 1395.54 16.6879C1395.54 19.2919 1393.3 20.9439 1390.05 20.9439C1386.83 20.9439 1384.79 19.2359 1384.79 16.6319ZM1402.24 19.5159C1402.24 21.5319 1400.73 23.2119 1398.74 23.4639V22.2879C1399.89 22.0919 1400.7 21.3359 1400.7 20.4679C1400.51 20.5799 1400.28 20.6359 1399.95 20.6359C1399.02 20.6359 1398.24 19.9639 1398.24 18.9279C1398.24 17.8079 1398.99 16.9959 1400.11 16.9959C1401.29 16.9959 1402.24 17.9759 1402.24 19.5159ZM1417.55 20.6079H1414.92V9.12791H1412.23V6.91591H1414.92V2.63191H1417.55V6.91591H1420.24V9.12791H1417.55V20.6079ZM1428.37 20.9439C1424.34 20.9439 1421.57 18.0319 1421.57 13.7759C1421.57 9.49191 1424.29 6.52391 1428.26 6.52391C1432.15 6.52391 1434.7 9.21191 1434.7 13.2719V14.2519L1424.12 14.2799C1424.31 17.1639 1425.83 18.7599 1428.43 18.7599C1430.47 18.7599 1431.82 17.9199 1432.27 16.3519H1434.73C1434.06 19.2919 1431.76 20.9439 1428.37 20.9439ZM1428.26 8.73591C1425.97 8.73591 1424.51 10.1079 1424.17 12.5159H1432.07C1432.07 10.2479 1430.59 8.73591 1428.26 8.73591ZM1436.75 13.7759C1436.75 9.49191 1439.46 6.52391 1443.47 6.52391C1446.91 6.52391 1449.32 8.48391 1449.79 11.5359H1447.16C1446.71 9.79991 1445.31 8.87591 1443.55 8.87591C1441.06 8.87591 1439.35 10.7799 1439.35 13.7479C1439.35 16.6879 1440.95 18.5919 1443.44 18.5919C1445.31 18.5919 1446.71 17.6119 1447.19 15.9879H1449.82C1449.29 18.9559 1446.74 20.9439 1443.44 20.9439C1439.41 20.9439 1436.75 18.0879 1436.75 13.7759ZM1455.23 20.5799H1452.6V-9.15527e-05H1455.23V9.01591C1456.1 7.53191 1457.75 6.52391 1459.88 6.52391C1463.38 6.52391 1465.06 8.73591 1465.06 12.2359V20.6079H1462.43V12.8239C1462.43 10.0519 1461.11 8.93191 1459.15 8.93191C1456.6 8.93191 1455.23 10.7799 1455.23 13.1319V20.5799ZM1476.36 26.7399V6.91591H1478.74L1478.94 9.37991C1479.86 7.50391 1481.71 6.52391 1483.89 6.52391C1487.81 6.52391 1490.25 9.46391 1490.25 13.6639C1490.25 17.8359 1487.95 20.9719 1483.89 20.9719C1481.71 20.9719 1479.89 20.0479 1478.99 18.3679V26.7399H1476.36ZM1479.02 13.7759C1479.02 16.5759 1480.65 18.5919 1483.33 18.5919C1486.02 18.5919 1487.62 16.5759 1487.62 13.7759C1487.62 10.9479 1486.02 8.93191 1483.33 8.93191C1480.65 8.93191 1479.02 10.9199 1479.02 13.7759ZM1500.99 6.80391V9.21191H1499.81C1497.32 9.21191 1495.78 10.7239 1495.78 13.3559V20.6079H1493.15V6.94391H1495.61L1495.78 9.01591C1496.34 7.58791 1497.71 6.63591 1499.59 6.63591C1500.07 6.63591 1500.46 6.69191 1500.99 6.80391ZM1502.07 13.7479C1502.07 9.51991 1505.09 6.55191 1509.21 6.55191C1513.3 6.55191 1516.32 9.51991 1516.32 13.7479C1516.32 17.9759 1513.3 20.9439 1509.21 20.9439C1505.09 20.9439 1502.07 17.9759 1502.07 13.7479ZM1504.73 13.7479C1504.73 16.6039 1506.55 18.5919 1509.21 18.5919C1511.84 18.5919 1513.69 16.6039 1513.69 13.7479C1513.69 10.8919 1511.84 8.90391 1509.21 8.90391C1506.55 8.90391 1504.73 10.8919 1504.73 13.7479ZM1524.72 20.9439C1520.75 20.9439 1518.34 17.9759 1518.34 13.8039C1518.34 9.60391 1520.78 6.52391 1524.84 6.52391C1526.94 6.52391 1528.7 7.44791 1529.62 9.12791V-9.15527e-05H1532.23V20.6079H1529.88L1529.65 18.1159C1528.76 19.9919 1526.91 20.9439 1524.72 20.9439ZM1525.26 18.5639C1527.94 18.5639 1529.6 16.5759 1529.6 13.7199C1529.6 10.9199 1527.94 8.90391 1525.26 8.90391C1522.57 8.90391 1521 10.9199 1521 13.7199C1521 16.5479 1522.57 18.5639 1525.26 18.5639ZM1545.49 6.91591H1548.09V20.6079H1545.74L1545.46 18.5359C1544.68 19.9639 1542.86 20.9439 1540.84 20.9439C1537.65 20.9439 1535.86 18.7879 1535.86 15.4279V6.91591H1538.49V14.5599C1538.49 17.4999 1539.75 18.6199 1541.77 18.6199C1544.17 18.6199 1545.49 17.0799 1545.49 14.1399V6.91591ZM1550.74 13.7759C1550.74 9.49191 1553.46 6.52391 1557.46 6.52391C1560.91 6.52391 1563.31 8.48391 1563.79 11.5359H1561.16C1560.71 9.79991 1559.31 8.87591 1557.55 8.87591C1555.05 8.87591 1553.35 10.7799 1553.35 13.7479C1553.35 16.6879 1554.94 18.5919 1557.43 18.5919C1559.31 18.5919 1560.71 17.6119 1561.19 15.9879H1563.82C1563.29 18.9559 1560.74 20.9439 1557.43 20.9439C1553.4 20.9439 1550.74 18.0879 1550.74 13.7759ZM1570.46 20.6079H1567.83V9.12791H1565.14V6.91591H1567.83V2.63191H1570.46V6.91591H1573.15V9.12791H1570.46V20.6079ZM1574.39 16.6319H1576.91C1576.91 18.0319 1577.97 18.8719 1579.71 18.8719C1581.56 18.8719 1582.62 18.1159 1582.62 16.8559C1582.62 15.9319 1582.17 15.3719 1580.75 15.0079L1578.34 14.4479C1575.9 13.8599 1574.75 12.6559 1574.75 10.6399C1574.75 8.11991 1576.88 6.52391 1579.91 6.52391C1582.9 6.52391 1584.86 8.20391 1584.92 10.8079H1582.4C1582.34 9.43591 1581.42 8.56791 1579.82 8.56791C1578.17 8.56791 1577.25 9.29591 1577.25 10.5559C1577.25 11.4799 1577.92 12.0959 1579.26 12.4319L1581.67 13.0199C1583.99 13.5799 1585.14 14.6439 1585.14 16.6879C1585.14 19.2919 1582.9 20.9439 1579.65 20.9439C1576.43 20.9439 1574.39 19.2359 1574.39 16.6319ZM1591.84 19.5159C1591.84 21.5319 1590.33 23.2119 1588.34 23.4639V22.2879C1589.49 22.0919 1590.3 21.3359 1590.3 20.4679C1590.11 20.5799 1589.88 20.6359 1589.55 20.6359C1588.62 20.6359 1587.84 19.9639 1587.84 18.9279C1587.84 17.8079 1588.6 16.9959 1589.72 16.9959C1590.89 16.9959 1591.84 17.9759 1591.84 19.5159ZM1602.17 16.6319H1604.69C1604.69 18.0319 1605.75 18.8719 1607.49 18.8719C1609.34 18.8719 1610.4 18.1159 1610.4 16.8559C1610.4 15.9319 1609.95 15.3719 1608.53 15.0079L1606.12 14.4479C1603.68 13.8599 1602.53 12.6559 1602.53 10.6399C1602.53 8.11991 1604.66 6.52391 1607.69 6.52391C1610.68 6.52391 1612.64 8.20391 1612.7 10.8079H1610.18C1610.12 9.43591 1609.2 8.56791 1607.6 8.56791C1605.95 8.56791 1605.03 9.29591 1605.03 10.5559C1605.03 11.4799 1605.7 12.0959 1607.04 12.4319L1609.45 13.0199C1611.77 13.5799 1612.92 14.6439 1612.92 16.6879C1612.92 19.2919 1610.68 20.9439 1607.43 20.9439C1604.21 20.9439 1602.17 19.2359 1602.17 16.6319ZM1621.75 20.9439C1617.72 20.9439 1614.95 18.0319 1614.95 13.7759C1614.95 9.49191 1617.66 6.52391 1621.64 6.52391C1625.53 6.52391 1628.08 9.21191 1628.08 13.2719V14.2519L1617.49 14.2799C1617.69 17.1639 1619.2 18.7599 1621.81 18.7599C1623.85 18.7599 1625.19 17.9199 1625.64 16.3519H1628.11C1627.43 19.2919 1625.14 20.9439 1621.75 20.9439ZM1621.64 8.73591C1619.34 8.73591 1617.89 10.1079 1617.55 12.5159H1625.45C1625.45 10.2479 1623.96 8.73591 1621.64 8.73591ZM1634.74 20.6079H1632.11V9.12791H1629.42V6.91591H1632.11V2.63191H1634.74V6.91591H1637.43V9.12791H1634.74V20.6079ZM1643.9 20.6079H1641.27V9.12791H1638.58V6.91591H1641.27V2.63191H1643.9V6.91591H1646.59V9.12791H1643.9V20.6079ZM1650.24 3.66791C1649.29 3.66791 1648.51 2.88391 1648.51 1.93191C1648.51 0.95191 1649.29 0.195909 1650.24 0.195909C1651.19 0.195909 1651.98 0.95191 1651.98 1.93191C1651.98 2.88391 1651.19 3.66791 1650.24 3.66791ZM1648.95 20.6079V6.91591H1651.59V20.6079H1648.95ZM1658.04 20.6079H1655.41V6.91591H1657.79L1658.07 9.01591C1658.94 7.44791 1660.67 6.52391 1662.6 6.52391C1666.22 6.52391 1667.87 8.73591 1667.87 12.2359V20.6079H1665.24V12.8239C1665.24 10.0519 1663.95 8.93191 1661.93 8.93191C1659.47 8.93191 1658.04 10.6959 1658.04 13.3559V20.6079ZM1670.65 13.4119C1670.65 9.54791 1673.14 6.52391 1677.11 6.52391C1679.33 6.52391 1681.03 7.53191 1681.9 9.23991L1682.1 6.91591H1684.45V20.0479C1684.45 24.3599 1681.79 27.1039 1677.59 27.1039C1673.87 27.1039 1671.32 25.0039 1670.81 21.5319H1673.45C1673.78 23.5479 1675.29 24.7239 1677.59 24.7239C1680.17 24.7239 1681.85 23.0439 1681.85 20.4399V17.6959C1680.95 19.2919 1679.16 20.2439 1677 20.2439C1673.11 20.2439 1670.65 17.2479 1670.65 13.4119ZM1673.28 13.3559C1673.28 15.9319 1674.87 17.9479 1677.45 17.9479C1680.11 17.9479 1681.73 16.0439 1681.73 13.3559C1681.73 10.7239 1680.17 8.81991 1677.48 8.81991C1674.85 8.81991 1673.28 10.8359 1673.28 13.3559ZM1687.13 16.6319H1689.65C1689.65 18.0319 1690.71 18.8719 1692.45 18.8719C1694.3 18.8719 1695.36 18.1159 1695.36 16.8559C1695.36 15.9319 1694.91 15.3719 1693.48 15.0079L1691.08 14.4479C1688.64 13.8599 1687.49 12.6559 1687.49 10.6399C1687.49 8.11991 1689.62 6.52391 1692.64 6.52391C1695.64 6.52391 1697.6 8.20391 1697.66 10.8079H1695.14C1695.08 9.43591 1694.16 8.56791 1692.56 8.56791C1690.91 8.56791 1689.98 9.29591 1689.98 10.5559C1689.98 11.4799 1690.66 12.0959 1692 12.4319L1694.41 13.0199C1696.73 13.5799 1697.88 14.6439 1697.88 16.6879C1697.88 19.2919 1695.64 20.9439 1692.39 20.9439C1689.17 20.9439 1687.13 19.2359 1687.13 16.6319ZM1707.33 16.6319H1709.85C1709.85 18.0319 1710.92 18.8719 1712.65 18.8719C1714.5 18.8719 1715.57 18.1159 1715.57 16.8559C1715.57 15.9319 1715.12 15.3719 1713.69 15.0079L1711.28 14.4479C1708.85 13.8599 1707.7 12.6559 1707.7 10.6399C1707.7 8.11991 1709.83 6.52391 1712.85 6.52391C1715.85 6.52391 1717.81 8.20391 1717.86 10.8079H1715.34C1715.29 9.43591 1714.36 8.56791 1712.77 8.56791C1711.11 8.56791 1710.19 9.29591 1710.19 10.5559C1710.19 11.4799 1710.86 12.0959 1712.21 12.4319L1714.61 13.0199C1716.94 13.5799 1718.09 14.6439 1718.09 16.6879C1718.09 19.2919 1715.85 20.9439 1712.6 20.9439C1709.38 20.9439 1707.33 19.2359 1707.33 16.6319ZM1720.11 13.7759C1720.11 9.49191 1722.83 6.52391 1726.83 6.52391C1730.27 6.52391 1732.68 8.48391 1733.16 11.5359H1730.53C1730.08 9.79991 1728.68 8.87591 1726.91 8.87591C1724.42 8.87591 1722.71 10.7799 1722.71 13.7479C1722.71 16.6879 1724.31 18.5919 1726.8 18.5919C1728.68 18.5919 1730.08 17.6119 1730.55 15.9879H1733.19C1732.65 18.9559 1730.11 20.9439 1726.8 20.9439C1722.77 20.9439 1720.11 18.0879 1720.11 13.7759ZM1743.8 6.80391V9.21191H1742.63C1740.13 9.21191 1738.59 10.7239 1738.59 13.3559V20.6079H1735.96V6.94391H1738.43L1738.59 9.01591C1739.15 7.58791 1740.53 6.63591 1742.4 6.63591C1742.88 6.63591 1743.27 6.69191 1743.8 6.80391ZM1751.69 20.9439C1747.66 20.9439 1744.88 18.0319 1744.88 13.7759C1744.88 9.49191 1747.6 6.52391 1751.58 6.52391C1755.47 6.52391 1758.01 9.21191 1758.01 13.2719V14.2519L1747.43 14.2799C1747.63 17.1639 1749.14 18.7599 1751.74 18.7599C1753.79 18.7599 1755.13 17.9199 1755.58 16.3519H1758.04C1757.37 19.2919 1755.08 20.9439 1751.69 20.9439ZM1751.58 8.73591C1749.28 8.73591 1747.82 10.1079 1747.49 12.5159H1755.38C1755.38 10.2479 1753.9 8.73591 1751.58 8.73591ZM1766.86 20.9439C1762.83 20.9439 1760.06 18.0319 1760.06 13.7759C1760.06 9.49191 1762.77 6.52391 1766.75 6.52391C1770.64 6.52391 1773.19 9.21191 1773.19 13.2719V14.2519L1762.61 14.2799C1762.8 17.1639 1764.31 18.7599 1766.92 18.7599C1768.96 18.7599 1770.31 17.9199 1770.75 16.3519H1773.22C1772.55 19.2919 1770.25 20.9439 1766.86 20.9439ZM1766.75 8.73591C1764.45 8.73591 1763 10.1079 1762.66 12.5159H1770.56C1770.56 10.2479 1769.07 8.73591 1766.75 8.73591ZM1778.76 20.6079H1776.13V6.91591H1778.51L1778.79 9.01591C1779.66 7.44791 1781.39 6.52391 1783.33 6.52391C1786.94 6.52391 1788.59 8.73591 1788.59 12.2359V20.6079H1785.96V12.8239C1785.96 10.0519 1784.67 8.93191 1782.65 8.93191C1780.19 8.93191 1778.76 10.6959 1778.76 13.3559V20.6079ZM1790.95 16.6319H1793.47C1793.47 18.0319 1794.54 18.8719 1796.27 18.8719C1798.12 18.8719 1799.18 18.1159 1799.18 16.8559C1799.18 15.9319 1798.74 15.3719 1797.31 15.0079L1794.9 14.4479C1792.46 13.8599 1791.32 12.6559 1791.32 10.6399C1791.32 8.11991 1793.44 6.52391 1796.47 6.52391C1799.46 6.52391 1801.42 8.20391 1801.48 10.8079H1798.96C1798.9 9.43591 1797.98 8.56791 1796.38 8.56791C1794.73 8.56791 1793.81 9.29591 1793.81 10.5559C1793.81 11.4799 1794.48 12.0959 1795.82 12.4319L1798.23 13.0199C1800.56 13.5799 1801.7 14.6439 1801.7 16.6879C1801.7 19.2919 1799.46 20.9439 1796.22 20.9439C1793 20.9439 1790.95 19.2359 1790.95 16.6319ZM1808.41 19.5159C1808.41 21.5319 1806.89 23.2119 1804.91 23.4639V22.2879C1806.05 22.0919 1806.87 21.3359 1806.87 20.4679C1806.67 20.5799 1806.45 20.6359 1806.11 20.6359C1805.19 20.6359 1804.4 19.9639 1804.4 18.9279C1804.4 17.8079 1805.16 16.9959 1806.28 16.9959C1807.45 16.9959 1808.41 17.9759 1808.41 19.5159ZM1823.86 20.9439C1820.92 20.9439 1819.18 19.2919 1819.18 16.7999C1819.18 14.2799 1821.06 12.7119 1824.28 12.4599L1828.59 12.1239V11.7319C1828.59 9.43591 1827.22 8.62391 1825.37 8.62391C1823.16 8.62391 1821.9 9.60391 1821.9 11.2559H1819.6C1819.6 8.39991 1821.95 6.52391 1825.48 6.52391C1828.87 6.52391 1831.17 8.31591 1831.17 12.0119V20.6079H1828.93L1828.65 18.3959C1827.95 19.9639 1826.07 20.9439 1823.86 20.9439ZM1824.61 18.8999C1827.11 18.8999 1828.62 17.2759 1828.62 14.6999V13.9719L1825.12 14.2519C1822.79 14.4759 1821.84 15.3719 1821.84 16.7159C1821.84 18.1719 1822.91 18.8999 1824.61 18.8999ZM1837.44 20.6079H1834.81V6.91591H1837.19L1837.47 9.01591C1838.34 7.44791 1840.07 6.52391 1842.01 6.52391C1845.62 6.52391 1847.27 8.73591 1847.27 12.2359V20.6079H1844.64V12.8239C1844.64 10.0519 1843.35 8.93191 1841.33 8.93191C1838.87 8.93191 1837.44 10.6959 1837.44 13.3559V20.6079ZM1856.4 20.9439C1852.43 20.9439 1850.02 17.9759 1850.02 13.8039C1850.02 9.60391 1852.46 6.52391 1856.52 6.52391C1858.62 6.52391 1860.38 7.44791 1861.3 9.12791V-9.15527e-05H1863.91V20.6079H1861.56L1861.33 18.1159C1860.44 19.9919 1858.59 20.9439 1856.4 20.9439ZM1856.94 18.5639C1859.62 18.5639 1861.28 16.5759 1861.28 13.7199C1861.28 10.9199 1859.62 8.90391 1856.94 8.90391C1854.25 8.90391 1852.68 10.9199 1852.68 13.7199C1852.68 16.5479 1854.25 18.5639 1856.94 18.5639ZM1874.47 13.7759C1874.47 9.49191 1877.18 6.52391 1881.19 6.52391C1884.63 6.52391 1887.04 8.48391 1887.51 11.5359H1884.88C1884.43 9.79991 1883.03 8.87591 1881.27 8.87591C1878.78 8.87591 1877.07 10.7799 1877.07 13.7479C1877.07 16.6879 1878.67 18.5919 1881.16 18.5919C1883.03 18.5919 1884.43 17.6119 1884.91 15.9879H1887.54C1887.01 18.9559 1884.46 20.9439 1881.16 20.9439C1877.13 20.9439 1874.47 18.0879 1874.47 13.7759ZM1889.42 13.7479C1889.42 9.51991 1892.45 6.55191 1896.56 6.55191C1900.65 6.55191 1903.67 9.51991 1903.67 13.7479C1903.67 17.9759 1900.65 20.9439 1896.56 20.9439C1892.45 20.9439 1889.42 17.9759 1889.42 13.7479ZM1892.08 13.7479C1892.08 16.6039 1893.9 18.5919 1896.56 18.5919C1899.19 18.5919 1901.04 16.6039 1901.04 13.7479C1901.04 10.8919 1899.19 8.90391 1896.56 8.90391C1893.9 8.90391 1892.08 10.8919 1892.08 13.7479ZM1909.22 20.6079H1906.59V6.91591H1908.97L1909.25 9.01591C1910.12 7.44791 1911.85 6.52391 1913.78 6.52391C1917.4 6.52391 1919.05 8.73591 1919.05 12.2359V20.6079H1916.42V12.8239C1916.42 10.0519 1915.13 8.93191 1913.11 8.93191C1910.65 8.93191 1909.22 10.6959 1909.22 13.3559V20.6079ZM1925.33 20.6079H1922.69V6.91591H1925.07L1925.35 9.01591C1926.22 7.44791 1927.96 6.52391 1929.89 6.52391C1933.5 6.52391 1935.15 8.73591 1935.15 12.2359V20.6079H1932.52V12.8239C1932.52 10.0519 1931.23 8.93191 1929.22 8.93191C1926.75 8.93191 1925.33 10.6959 1925.33 13.3559V20.6079ZM1944.71 20.9439C1940.67 20.9439 1937.9 18.0319 1937.9 13.7759C1937.9 9.49191 1940.62 6.52391 1944.59 6.52391C1948.49 6.52391 1951.03 9.21191 1951.03 13.2719V14.2519L1940.45 14.2799C1940.65 17.1639 1942.16 18.7599 1944.76 18.7599C1946.81 18.7599 1948.15 17.9199 1948.6 16.3519H1951.06C1950.39 19.2919 1948.09 20.9439 1944.71 20.9439ZM1944.59 8.73591C1942.3 8.73591 1940.84 10.1079 1940.51 12.5159H1948.4C1948.4 10.2479 1946.92 8.73591 1944.59 8.73591ZM1953.08 13.7759C1953.08 9.49191 1955.79 6.52391 1959.8 6.52391C1963.24 6.52391 1965.65 8.48391 1966.13 11.5359H1963.49C1963.05 9.79991 1961.65 8.87591 1959.88 8.87591C1957.39 8.87591 1955.68 10.7799 1955.68 13.7479C1955.68 16.6879 1957.28 18.5919 1959.77 18.5919C1961.65 18.5919 1963.05 17.6119 1963.52 15.9879H1966.15C1965.62 18.9559 1963.07 20.9439 1959.77 20.9439C1955.74 20.9439 1953.08 18.0879 1953.08 13.7759ZM1972.8 20.6079H1970.16V9.12791H1967.48V6.91591H1970.16V2.63191H1972.8V6.91591H1975.48V9.12791H1972.8V20.6079ZM1979.13 3.66791C1978.18 3.66791 1977.4 2.88391 1977.4 1.93191C1977.4 0.95191 1978.18 0.195909 1979.13 0.195909C1980.09 0.195909 1980.87 0.95191 1980.87 1.93191C1980.87 2.88391 1980.09 3.66791 1979.13 3.66791ZM1977.85 20.6079V6.91591H1980.48V20.6079H1977.85ZM1988.13 20.6079L1982.62 6.91591H1985.42L1988.41 14.5599C1988.89 15.8479 1989.28 16.9959 1989.51 17.8359C1989.73 16.9399 1990.18 15.7639 1990.65 14.5599L1993.71 6.91591H1996.45L1990.74 20.6079H1988.13ZM1999.83 3.66791C1998.88 3.66791 1998.1 2.88391 1998.1 1.93191C1998.1 0.95191 1998.88 0.195909 1999.83 0.195909C2000.78 0.195909 2001.57 0.95191 2001.57 1.93191C2001.57 2.88391 2000.78 3.66791 1999.83 3.66791ZM1998.54 20.6079V6.91591H2001.18V20.6079H1998.54ZM2008.86 20.6079H2006.23V9.12791H2003.54V6.91591H2006.23V2.63191H2008.86V6.91591H2011.55V9.12791H2008.86V20.6079ZM2012.6 26.7399V24.5839H2014.36C2015.62 24.5839 2016.63 24.3879 2017.27 22.6519L2017.75 21.3359L2012.23 6.91591H2015L2018.98 17.9479L2023.04 6.91591H2025.76L2019.29 23.6879C2018.36 26.0399 2016.99 27.0199 2014.89 27.0199C2014.02 27.0199 2013.3 26.9079 2012.6 26.7399ZM2036.8 3.66791C2035.85 3.66791 2035.07 2.88391 2035.07 1.93191C2035.07 0.95191 2035.85 0.195909 2036.8 0.195909C2037.75 0.195909 2038.54 0.95191 2038.54 1.93191C2038.54 2.88391 2037.75 3.66791 2036.8 3.66791ZM2035.51 20.6079V6.91591H2038.15V20.6079H2035.51ZM2044.6 20.6079H2041.97V6.91591H2044.35L2044.63 9.01591C2045.49 7.44791 2047.23 6.52391 2049.16 6.52391C2052.77 6.52391 2054.43 8.73591 2054.43 12.2359V20.6079H2051.79V12.8239C2051.79 10.0519 2050.51 8.93191 2048.49 8.93191C2046.03 8.93191 2044.6 10.6959 2044.6 13.3559V20.6079ZM2061.94 20.6079H2059.3V9.12791H2056.62V6.91591H2059.3V2.63191H2061.94V6.91591H2064.62V9.12791H2061.94V20.6079ZM2072.76 20.9439C2068.73 20.9439 2065.95 18.0319 2065.95 13.7759C2065.95 9.49191 2068.67 6.52391 2072.65 6.52391C2076.54 6.52391 2079.09 9.21191 2079.09 13.2719V14.2519L2068.5 14.2799C2068.7 17.1639 2070.21 18.7599 2072.81 18.7599C2074.86 18.7599 2076.2 17.9199 2076.65 16.3519H2079.11C2078.44 19.2919 2076.15 20.9439 2072.76 20.9439ZM2072.65 8.73591C2070.35 8.73591 2068.89 10.1079 2068.56 12.5159H2076.45C2076.45 10.2479 2074.97 8.73591 2072.65 8.73591ZM2089.87 6.80391V9.21191H2088.69C2086.2 9.21191 2084.66 10.7239 2084.66 13.3559V20.6079H2082.03V6.94391H2084.49L2084.66 9.01591C2085.22 7.58791 2086.59 6.63591 2088.47 6.63591C2088.94 6.63591 2089.33 6.69191 2089.87 6.80391ZM2091.42 6.91591H2093.44V4.73191C2093.44 1.37191 2095.29 -9.15527e-05 2097.78 -9.15527e-05C2098.28 -9.15527e-05 2098.87 0.0279098 2099.4 0.111909V2.37991H2098.23C2096.52 2.37991 2096.07 3.24791 2096.07 4.73191V6.91591H2099.32V9.12791H2096.07V20.6079H2093.44V9.12791H2091.42V6.91591ZM2105.33 20.9439C2102.39 20.9439 2100.66 19.2919 2100.66 16.7999C2100.66 14.2799 2102.53 12.7119 2105.75 12.4599L2110.07 12.1239V11.7319C2110.07 9.43591 2108.69 8.62391 2106.85 8.62391C2104.63 8.62391 2103.37 9.60391 2103.37 11.2559H2101.08C2101.08 8.39991 2103.43 6.52391 2106.96 6.52391C2110.35 6.52391 2112.64 8.31591 2112.64 12.0119V20.6079H2110.4L2110.12 18.3959C2109.42 19.9639 2107.55 20.9439 2105.33 20.9439ZM2106.09 18.8999C2108.58 18.8999 2110.09 17.2759 2110.09 14.6999V13.9719L2106.59 14.2519C2104.27 14.4759 2103.32 15.3719 2103.32 16.7159C2103.32 18.1719 2104.38 18.8999 2106.09 18.8999ZM2115.39 13.7759C2115.39 9.49191 2118.11 6.52391 2122.11 6.52391C2125.55 6.52391 2127.96 8.48391 2128.44 11.5359H2125.81C2125.36 9.79991 2123.96 8.87591 2122.19 8.87591C2119.7 8.87591 2117.99 10.7799 2117.99 13.7479C2117.99 16.6879 2119.59 18.5919 2122.08 18.5919C2123.96 18.5919 2125.36 17.6119 2125.83 15.9879H2128.47C2127.93 18.9559 2125.39 20.9439 2122.08 20.9439C2118.05 20.9439 2115.39 18.0879 2115.39 13.7759ZM2137.15 20.9439C2133.12 20.9439 2130.35 18.0319 2130.35 13.7759C2130.35 9.49191 2133.06 6.52391 2137.04 6.52391C2140.93 6.52391 2143.48 9.21191 2143.48 13.2719V14.2519L2132.9 14.2799C2133.09 17.1639 2134.6 18.7599 2137.21 18.7599C2139.25 18.7599 2140.6 17.9199 2141.04 16.3519H2143.51C2142.84 19.2919 2140.54 20.9439 2137.15 20.9439ZM2137.04 8.73591C2134.74 8.73591 2133.29 10.1079 2132.95 12.5159H2140.85C2140.85 10.2479 2139.36 8.73591 2137.04 8.73591ZM2145.3 16.6319H2147.82C2147.82 18.0319 2148.88 18.8719 2150.62 18.8719C2152.47 18.8719 2153.53 18.1159 2153.53 16.8559C2153.53 15.9319 2153.08 15.3719 2151.66 15.0079L2149.25 14.4479C2146.81 13.8599 2145.66 12.6559 2145.66 10.6399C2145.66 8.11991 2147.79 6.52391 2150.82 6.52391C2153.81 6.52391 2155.77 8.20391 2155.83 10.8079H2153.31C2153.25 9.43591 2152.33 8.56791 2150.73 8.56791C2149.08 8.56791 2148.16 9.29591 2148.16 10.5559C2148.16 11.4799 2148.83 12.0959 2150.17 12.4319L2152.58 13.0199C2154.9 13.5799 2156.05 14.6439 2156.05 16.6879C2156.05 19.2919 2153.81 20.9439 2150.56 20.9439C2147.34 20.9439 2145.3 19.2359 2145.3 16.6319ZM2160.77 20.9439C2159.67 20.9439 2158.75 20.0479 2158.75 18.9839C2158.75 17.8919 2159.67 16.9959 2160.77 16.9959C2161.83 16.9959 2162.75 17.8919 2162.75 18.9839C2162.75 20.0479 2161.83 20.9439 2160.77 20.9439Z" fill="black"/>
</svg>
