<svg width="2273" height="28" viewBox="0 0 2273 28" fill="none" xmlns="http://www.w3.org/2000/svg">
<path d="M6.692 20.6079H-4.82798e-06V0.363909H6.58C12.628 0.363909 16.716 4.45191 16.716 10.4999C16.716 16.5199 12.684 20.6079 6.692 20.6079ZM6.384 2.88391H2.744V18.0599H6.496C11.004 18.0599 13.86 15.1479 13.86 10.4999C13.86 5.79591 11.004 2.88391 6.384 2.88391ZM21.047 3.66791C20.095 3.66791 19.311 2.88391 19.311 1.93191C19.311 0.95191 20.095 0.195909 21.047 0.195909C21.999 0.195909 22.783 0.95191 22.783 1.93191C22.783 2.88391 21.999 3.66791 21.047 3.66791ZM19.759 20.6079V6.91591H22.391V20.6079H19.759ZM34.0522 6.80391V9.21191H32.8762C30.3842 9.21191 28.8442 10.7239 28.8442 13.3559V20.6079H26.2122V6.94391H28.6762L28.8442 9.01591C29.4042 7.58791 30.7762 6.63591 32.6522 6.63591C33.1282 6.63591 33.5202 6.69191 34.0522 6.80391ZM41.9366 20.9439C37.9046 20.9439 35.1326 18.0319 35.1326 13.7759C35.1326 9.49191 37.8486 6.52391 41.8246 6.52391C45.7166 6.52391 48.2646 9.21191 48.2646 13.2719V14.2519L37.6806 14.2799C37.8766 17.1639 39.3886 18.7599 41.9926 18.7599C44.0366 18.7599 45.3806 17.9199 45.8286 16.3519H48.2926C47.6206 19.2919 45.3246 20.9439 41.9366 20.9439ZM41.8246 8.73591C39.5286 8.73591 38.0726 10.1079 37.7366 12.5159H45.6326C45.6326 10.2479 44.1486 8.73591 41.8246 8.73591ZM50.3083 13.7759C50.3083 9.49191 53.0243 6.52391 57.0283 6.52391C60.4723 6.52391 62.8803 8.48391 63.3563 11.5359H60.7243C60.2763 9.79991 58.8763 8.87591 57.1123 8.87591C54.6203 8.87591 52.9123 10.7799 52.9123 13.7479C52.9123 16.6879 54.5083 18.5919 57.0003 18.5919C58.8763 18.5919 60.2763 17.6119 60.7523 15.9879H63.3843C62.8523 18.9559 60.3043 20.9439 57.0003 20.9439C52.9683 20.9439 50.3083 18.0879 50.3083 13.7759ZM70.0254 20.6079H67.3934V9.12791H64.7054V6.91591H67.3934V2.63191H70.0254V6.91591H72.7134V9.12791H70.0254V20.6079ZM76.3634 3.66791C75.4114 3.66791 74.6274 2.88391 74.6274 1.93191C74.6274 0.95191 75.4114 0.195909 76.3634 0.195909C77.3154 0.195909 78.0994 0.95191 78.0994 1.93191C78.0994 2.88391 77.3154 3.66791 76.3634 3.66791ZM75.0754 20.6079V6.91591H77.7074V20.6079H75.0754ZM80.6326 13.7479C80.6326 9.51991 83.6566 6.55191 87.7726 6.55191C91.8606 6.55191 94.8846 9.51991 94.8846 13.7479C94.8846 17.9759 91.8606 20.9439 87.7726 20.9439C83.6566 20.9439 80.6326 17.9759 80.6326 13.7479ZM83.2926 13.7479C83.2926 16.6039 85.1126 18.5919 87.7726 18.5919C90.4046 18.5919 92.2526 16.6039 92.2526 13.7479C92.2526 10.8919 90.4046 8.90391 87.7726 8.90391C85.1126 8.90391 83.2926 10.8919 83.2926 13.7479ZM100.43 20.6079H97.7981V6.91591H100.178L100.458 9.01591C101.326 7.44791 103.062 6.52391 104.994 6.52391C108.606 6.52391 110.258 8.73591 110.258 12.2359V20.6079H107.626V12.8239C107.626 10.0519 106.338 8.93191 104.322 8.93191C101.858 8.93191 100.43 10.6959 100.43 13.3559V20.6079ZM117.908 20.9439C114.968 20.9439 113.232 19.2919 113.232 16.7999C113.232 14.2799 115.108 12.7119 118.328 12.4599L122.64 12.1239V11.7319C122.64 9.43591 121.268 8.62391 119.42 8.62391C117.208 8.62391 115.948 9.60391 115.948 11.2559H113.652C113.652 8.39991 116.004 6.52391 119.532 6.52391C122.92 6.52391 125.216 8.31591 125.216 12.0119V20.6079H122.976L122.696 18.3959C121.996 19.9639 120.12 20.9439 117.908 20.9439ZM118.664 18.8999C121.156 18.8999 122.668 17.2759 122.668 14.6999V13.9719L119.168 14.2519C116.844 14.4759 115.892 15.3719 115.892 16.7159C115.892 18.1719 116.956 18.8999 118.664 18.8999ZM131.549 20.6079H128.917V-9.15527e-05H131.549V20.6079ZM144.367 3.66791C143.415 3.66791 142.631 2.88391 142.631 1.93191C142.631 0.95191 143.415 0.195909 144.367 0.195909C145.319 0.195909 146.103 0.95191 146.103 1.93191C146.103 2.88391 145.319 3.66791 144.367 3.66791ZM143.079 20.6079V6.91591H145.711V20.6079H143.079ZM148.636 13.7759C148.636 9.49191 151.352 6.52391 155.356 6.52391C158.8 6.52391 161.208 8.48391 161.684 11.5359H159.052C158.604 9.79991 157.204 8.87591 155.44 8.87591C152.948 8.87591 151.24 10.7799 151.24 13.7479C151.24 16.6879 152.836 18.5919 155.328 18.5919C157.204 18.5919 158.604 17.6119 159.08 15.9879H161.712C161.18 18.9559 158.632 20.9439 155.328 20.9439C151.296 20.9439 148.636 18.0879 148.636 13.7759ZM163.593 13.7479C163.593 9.51991 166.617 6.55191 170.733 6.55191C174.821 6.55191 177.845 9.51991 177.845 13.7479C177.845 17.9759 174.821 20.9439 170.733 20.9439C166.617 20.9439 163.593 17.9759 163.593 13.7479ZM166.253 13.7479C166.253 16.6039 168.073 18.5919 170.733 18.5919C173.365 18.5919 175.213 16.6039 175.213 13.7479C175.213 10.8919 173.365 8.90391 170.733 8.90391C168.073 8.90391 166.253 10.8919 166.253 13.7479ZM183.391 20.6079H180.759V6.91591H183.139L183.419 9.01591C184.287 7.44791 186.023 6.52391 187.955 6.52391C191.567 6.52391 193.219 8.73591 193.219 12.2359V20.6079H190.587V12.8239C190.587 10.0519 189.299 8.93191 187.283 8.93191C184.819 8.93191 183.391 10.6959 183.391 13.3559V20.6079ZM195.58 16.6319H198.1C198.1 18.0319 199.164 18.8719 200.9 18.8719C202.748 18.8719 203.812 18.1159 203.812 16.8559C203.812 15.9319 203.364 15.3719 201.936 15.0079L199.528 14.4479C197.092 13.8599 195.944 12.6559 195.944 10.6399C195.944 8.11991 198.072 6.52391 201.096 6.52391C204.092 6.52391 206.052 8.20391 206.108 10.8079H203.588C203.532 9.43591 202.608 8.56791 201.012 8.56791C199.36 8.56791 198.436 9.29591 198.436 10.5559C198.436 11.4799 199.108 12.0959 200.452 12.4319L202.86 13.0199C205.184 13.5799 206.332 14.6439 206.332 16.6879C206.332 19.2919 204.092 20.9439 200.844 20.9439C197.624 20.9439 195.58 19.2359 195.58 16.6319ZM215.787 16.6319H218.307C218.307 18.0319 219.371 18.8719 221.107 18.8719C222.955 18.8719 224.019 18.1159 224.019 16.8559C224.019 15.9319 223.571 15.3719 222.143 15.0079L219.735 14.4479C217.299 13.8599 216.151 12.6559 216.151 10.6399C216.151 8.11991 218.279 6.52391 221.303 6.52391C224.299 6.52391 226.259 8.20391 226.315 10.8079H223.795C223.739 9.43591 222.815 8.56791 221.219 8.56791C219.567 8.56791 218.643 9.29591 218.643 10.5559C218.643 11.4799 219.315 12.0959 220.659 12.4319L223.067 13.0199C225.391 13.5799 226.539 14.6439 226.539 16.6879C226.539 19.2919 224.299 20.9439 221.051 20.9439C217.831 20.9439 215.787 19.2359 215.787 16.6319ZM238.922 6.91591H241.526V20.6079H239.174L238.894 18.5359C238.11 19.9639 236.29 20.9439 234.274 20.9439C231.082 20.9439 229.29 18.7879 229.29 15.4279V6.91591H231.922V14.5599C231.922 17.4999 233.182 18.6199 235.198 18.6199C237.606 18.6199 238.922 17.0799 238.922 14.1399V6.91591ZM245.345 26.7399V6.91591H247.725L247.921 9.37991C248.845 7.50391 250.693 6.52391 252.877 6.52391C256.797 6.52391 259.233 9.46391 259.233 13.6639C259.233 17.8359 256.937 20.9719 252.877 20.9719C250.693 20.9719 248.873 20.0479 247.977 18.3679V26.7399H245.345ZM248.005 13.7759C248.005 16.5759 249.629 18.5919 252.317 18.5919C255.005 18.5919 256.601 16.5759 256.601 13.7759C256.601 10.9479 255.005 8.93191 252.317 8.93191C249.629 8.93191 248.005 10.9199 248.005 13.7759ZM262.134 26.7399V6.91591H264.514L264.71 9.37991C265.634 7.50391 267.482 6.52391 269.666 6.52391C273.586 6.52391 276.022 9.46391 276.022 13.6639C276.022 17.8359 273.726 20.9719 269.666 20.9719C267.482 20.9719 265.662 20.0479 264.766 18.3679V26.7399H262.134ZM264.794 13.7759C264.794 16.5759 266.418 18.5919 269.106 18.5919C271.794 18.5919 273.39 16.5759 273.39 13.7759C273.39 10.9479 271.794 8.93191 269.106 8.93191C266.418 8.93191 264.794 10.9199 264.794 13.7759ZM278.027 13.7479C278.027 9.51991 281.051 6.55191 285.167 6.55191C289.255 6.55191 292.279 9.51991 292.279 13.7479C292.279 17.9759 289.255 20.9439 285.167 20.9439C281.051 20.9439 278.027 17.9759 278.027 13.7479ZM280.687 13.7479C280.687 16.6039 282.507 18.5919 285.167 18.5919C287.799 18.5919 289.647 16.6039 289.647 13.7479C289.647 10.8919 287.799 8.90391 285.167 8.90391C282.507 8.90391 280.687 10.8919 280.687 13.7479ZM303.033 6.80391V9.21191H301.857C299.365 9.21191 297.825 10.7239 297.825 13.3559V20.6079H295.193V6.94391H297.657L297.825 9.01591C298.385 7.58791 299.757 6.63591 301.633 6.63591C302.109 6.63591 302.501 6.69191 303.033 6.80391ZM309.912 20.6079H307.28V9.12791H304.592V6.91591H307.28V2.63191H309.912V6.91591H312.6V9.12791H309.912V20.6079ZM316.25 3.66791C315.298 3.66791 314.514 2.88391 314.514 1.93191C314.514 0.95191 315.298 0.195909 316.25 0.195909C317.202 0.195909 317.986 0.95191 317.986 1.93191C317.986 2.88391 317.202 3.66791 316.25 3.66791ZM314.962 20.6079V6.91591H317.594V20.6079H314.962ZM324.047 20.6079H321.415V6.91591H323.795L324.075 9.01591C324.943 7.44791 326.679 6.52391 328.611 6.52391C332.223 6.52391 333.875 8.73591 333.875 12.2359V20.6079H331.243V12.8239C331.243 10.0519 329.955 8.93191 327.939 8.93191C325.475 8.93191 324.047 10.6959 324.047 13.3559V20.6079ZM336.653 13.4119C336.653 9.54791 339.145 6.52391 343.121 6.52391C345.333 6.52391 347.041 7.53191 347.909 9.23991L348.105 6.91591H350.457V20.0479C350.457 24.3599 347.797 27.1039 343.597 27.1039C339.873 27.1039 337.325 25.0039 336.821 21.5319H339.453C339.789 23.5479 341.301 24.7239 343.597 24.7239C346.173 24.7239 347.853 23.0439 347.853 20.4399V17.6959C346.957 19.2919 345.165 20.2439 343.009 20.2439C339.117 20.2439 336.653 17.2479 336.653 13.4119ZM339.285 13.3559C339.285 15.9319 340.881 17.9479 343.457 17.9479C346.117 17.9479 347.741 16.0439 347.741 13.3559C347.741 10.7239 346.173 8.81991 343.485 8.81991C340.853 8.81991 339.285 10.8359 339.285 13.3559ZM364.543 20.6079H361.911V6.91591H364.291L364.571 9.01591C365.439 7.44791 367.175 6.52391 369.107 6.52391C372.719 6.52391 374.371 8.73591 374.371 12.2359V20.6079H371.739V12.8239C371.739 10.0519 370.451 8.93191 368.435 8.93191C365.971 8.93191 364.543 10.6959 364.543 13.3559V20.6079ZM382.021 20.9439C379.081 20.9439 377.345 19.2919 377.345 16.7999C377.345 14.2799 379.221 12.7119 382.441 12.4599L386.753 12.1239V11.7319C386.753 9.43591 385.381 8.62391 383.533 8.62391C381.321 8.62391 380.061 9.60391 380.061 11.2559H377.765C377.765 8.39991 380.117 6.52391 383.645 6.52391C387.033 6.52391 389.329 8.31591 389.329 12.0119V20.6079H387.089L386.809 18.3959C386.109 19.9639 384.233 20.9439 382.021 20.9439ZM382.777 18.8999C385.269 18.8999 386.781 17.2759 386.781 14.6999V13.9719L383.281 14.2519C380.957 14.4759 380.005 15.3719 380.005 16.7159C380.005 18.1719 381.069 18.8999 382.777 18.8999ZM396.263 20.6079L390.747 6.91591H393.547L396.543 14.5599C397.019 15.8479 397.411 16.9959 397.635 17.8359C397.859 16.9399 398.307 15.7639 398.783 14.5599L401.835 6.91591H404.579L398.867 20.6079H396.263ZM407.961 3.66791C407.009 3.66791 406.225 2.88391 406.225 1.93191C406.225 0.95191 407.009 0.195909 407.961 0.195909C408.913 0.195909 409.697 0.95191 409.697 1.93191C409.697 2.88391 408.913 3.66791 407.961 3.66791ZM406.673 20.6079V6.91591H409.305V20.6079H406.673ZM412.258 13.4119C412.258 9.54791 414.75 6.52391 418.726 6.52391C420.938 6.52391 422.646 7.53191 423.514 9.23991L423.71 6.91591H426.062V20.0479C426.062 24.3599 423.402 27.1039 419.202 27.1039C415.478 27.1039 412.93 25.0039 412.426 21.5319H415.058C415.394 23.5479 416.906 24.7239 419.202 24.7239C421.778 24.7239 423.458 23.0439 423.458 20.4399V17.6959C422.562 19.2919 420.77 20.2439 418.614 20.2439C414.722 20.2439 412.258 17.2479 412.258 13.4119ZM414.89 13.3559C414.89 15.9319 416.486 17.9479 419.062 17.9479C421.722 17.9479 423.346 16.0439 423.346 13.3559C423.346 10.7239 421.778 8.81991 419.09 8.81991C416.458 8.81991 414.89 10.8359 414.89 13.3559ZM433.865 20.9439C430.925 20.9439 429.189 19.2919 429.189 16.7999C429.189 14.2799 431.065 12.7119 434.285 12.4599L438.597 12.1239V11.7319C438.597 9.43591 437.225 8.62391 435.377 8.62391C433.165 8.62391 431.905 9.60391 431.905 11.2559H429.609C429.609 8.39991 431.961 6.52391 435.489 6.52391C438.877 6.52391 441.173 8.31591 441.173 12.0119V20.6079H438.933L438.653 18.3959C437.953 19.9639 436.077 20.9439 433.865 20.9439ZM434.621 18.8999C437.113 18.8999 438.625 17.2759 438.625 14.6999V13.9719L435.125 14.2519C432.801 14.4759 431.849 15.3719 431.849 16.7159C431.849 18.1719 432.913 18.8999 434.621 18.8999ZM448.463 20.6079H445.831V9.12791H443.143V6.91591H445.831V2.63191H448.463V6.91591H451.151V9.12791H448.463V20.6079ZM454.801 3.66791C453.849 3.66791 453.065 2.88391 453.065 1.93191C453.065 0.95191 453.849 0.195909 454.801 0.195909C455.753 0.195909 456.537 0.95191 456.537 1.93191C456.537 2.88391 455.753 3.66791 454.801 3.66791ZM453.513 20.6079V6.91591H456.145V20.6079H453.513ZM459.07 13.7479C459.07 9.51991 462.094 6.55191 466.21 6.55191C470.298 6.55191 473.322 9.51991 473.322 13.7479C473.322 17.9759 470.298 20.9439 466.21 20.9439C462.094 20.9439 459.07 17.9759 459.07 13.7479ZM461.73 13.7479C461.73 16.6039 463.55 18.5919 466.21 18.5919C468.842 18.5919 470.69 16.6039 470.69 13.7479C470.69 10.8919 468.842 8.90391 466.21 8.90391C463.55 8.90391 461.73 10.8919 461.73 13.7479ZM478.868 20.6079H476.236V6.91591H478.616L478.896 9.01591C479.764 7.44791 481.5 6.52391 483.432 6.52391C487.044 6.52391 488.696 8.73591 488.696 12.2359V20.6079H486.064V12.8239C486.064 10.0519 484.776 8.93191 482.76 8.93191C480.296 8.93191 478.868 10.6959 478.868 13.3559V20.6079ZM496.289 19.5159C496.289 21.5319 494.777 23.2119 492.789 23.4639V22.2879C493.937 22.0919 494.749 21.3359 494.749 20.4679C494.553 20.5799 494.329 20.6359 493.993 20.6359C493.069 20.6359 492.285 19.9639 492.285 18.9279C492.285 17.8079 493.041 16.9959 494.161 16.9959C495.337 16.9959 496.289 17.9759 496.289 19.5159ZM510.368 20.6079H507.736V6.91591H510.088L510.34 8.70791C511.04 7.41991 512.496 6.52391 514.428 6.52391C516.556 6.52391 518.068 7.58791 518.768 9.29591C519.412 7.58791 521.064 6.52391 523.192 6.52391C526.328 6.52391 528.232 8.48391 528.232 11.6479V20.6079H525.656V12.2919C525.656 10.1359 524.452 8.90391 522.604 8.90391C520.616 8.90391 519.3 10.3039 519.3 12.4879V20.6079H516.696V12.2639C516.696 10.1079 515.52 8.93191 513.672 8.93191C511.684 8.93191 510.368 10.3039 510.368 12.4879V20.6079ZM530.984 13.7479C530.984 9.51991 534.008 6.55191 538.124 6.55191C542.212 6.55191 545.236 9.51991 545.236 13.7479C545.236 17.9759 542.212 20.9439 538.124 20.9439C534.008 20.9439 530.984 17.9759 530.984 13.7479ZM533.644 13.7479C533.644 16.6039 535.464 18.5919 538.124 18.5919C540.756 18.5919 542.604 16.6039 542.604 13.7479C542.604 10.8919 540.756 8.90391 538.124 8.90391C535.464 8.90391 533.644 10.8919 533.644 13.7479ZM551.357 20.6079L545.841 6.91591H548.641L551.637 14.5599C552.113 15.8479 552.505 16.9959 552.729 17.8359C552.953 16.9399 553.401 15.7639 553.877 14.5599L556.929 6.91591H559.673L553.961 20.6079H551.357ZM567.046 20.9439C563.014 20.9439 560.242 18.0319 560.242 13.7759C560.242 9.49191 562.958 6.52391 566.934 6.52391C570.826 6.52391 573.374 9.21191 573.374 13.2719V14.2519L562.79 14.2799C562.986 17.1639 564.498 18.7599 567.102 18.7599C569.146 18.7599 570.49 17.9199 570.938 16.3519H573.402C572.73 19.2919 570.434 20.9439 567.046 20.9439ZM566.934 8.73591C564.638 8.73591 563.182 10.1079 562.846 12.5159H570.742C570.742 10.2479 569.258 8.73591 566.934 8.73591ZM578.946 20.6079H576.314V6.91591H578.666L578.918 8.70791C579.618 7.41991 581.074 6.52391 583.006 6.52391C585.134 6.52391 586.646 7.58791 587.346 9.29591C587.99 7.58791 589.642 6.52391 591.77 6.52391C594.906 6.52391 596.81 8.48391 596.81 11.6479V20.6079H594.234V12.2919C594.234 10.1359 593.03 8.90391 591.182 8.90391C589.194 8.90391 587.878 10.3039 587.878 12.4879V20.6079H585.274V12.2639C585.274 10.1079 584.098 8.93191 582.25 8.93191C580.262 8.93191 578.946 10.3039 578.946 12.4879V20.6079ZM606.366 20.9439C602.334 20.9439 599.562 18.0319 599.562 13.7759C599.562 9.49191 602.278 6.52391 606.254 6.52391C610.146 6.52391 612.694 9.21191 612.694 13.2719V14.2519L602.11 14.2799C602.306 17.1639 603.818 18.7599 606.422 18.7599C608.466 18.7599 609.81 17.9199 610.258 16.3519H612.722C612.05 19.2919 609.754 20.9439 606.366 20.9439ZM606.254 8.73591C603.958 8.73591 602.502 10.1079 602.166 12.5159H610.062C610.062 10.2479 608.578 8.73591 606.254 8.73591ZM618.266 20.6079H615.634V6.91591H618.014L618.294 9.01591C619.162 7.44791 620.898 6.52391 622.83 6.52391C626.442 6.52391 628.094 8.73591 628.094 12.2359V20.6079H625.462V12.8239C625.462 10.0519 624.174 8.93191 622.158 8.93191C619.694 8.93191 618.266 10.6959 618.266 13.3559V20.6079ZM635.603 20.6079H632.971V9.12791H630.283V6.91591H632.971V2.63191H635.603V6.91591H638.291V9.12791H635.603V20.6079ZM643.754 19.5159C643.754 21.5319 642.242 23.2119 640.254 23.4639V22.2879C641.402 22.0919 642.214 21.3359 642.214 20.4679C642.018 20.5799 641.794 20.6359 641.458 20.6359C640.534 20.6359 639.75 19.9639 639.75 18.9279C639.75 17.8079 640.506 16.9959 641.626 16.9959C642.802 16.9959 643.754 17.9759 643.754 19.5159ZM654.08 16.6319H656.6C656.6 18.0319 657.664 18.8719 659.4 18.8719C661.248 18.8719 662.312 18.1159 662.312 16.8559C662.312 15.9319 661.864 15.3719 660.436 15.0079L658.028 14.4479C655.592 13.8599 654.444 12.6559 654.444 10.6399C654.444 8.11991 656.572 6.52391 659.596 6.52391C662.592 6.52391 664.552 8.20391 664.608 10.8079H662.088C662.032 9.43591 661.108 8.56791 659.512 8.56791C657.86 8.56791 656.936 9.29591 656.936 10.5559C656.936 11.4799 657.608 12.0959 658.952 12.4319L661.36 13.0199C663.684 13.5799 664.832 14.6439 664.832 16.6879C664.832 19.2919 662.592 20.9439 659.344 20.9439C656.124 20.9439 654.08 19.2359 654.08 16.6319ZM666.855 13.7479C666.855 9.51991 669.879 6.55191 673.995 6.55191C678.083 6.55191 681.107 9.51991 681.107 13.7479C681.107 17.9759 678.083 20.9439 673.995 20.9439C669.879 20.9439 666.855 17.9759 666.855 13.7479ZM669.515 13.7479C669.515 16.6039 671.335 18.5919 673.995 18.5919C676.627 18.5919 678.475 16.6039 678.475 13.7479C678.475 10.8919 676.627 8.90391 673.995 8.90391C671.335 8.90391 669.515 10.8919 669.515 13.7479ZM691.861 6.80391V9.21191H690.685C688.193 9.21191 686.653 10.7239 686.653 13.3559V20.6079H684.021V6.94391H686.485L686.653 9.01591C687.213 7.58791 688.585 6.63591 690.461 6.63591C690.937 6.63591 691.329 6.69191 691.861 6.80391ZM698.74 20.6079H696.108V9.12791H693.42V6.91591H696.108V2.63191H698.74V6.91591H701.428V9.12791H698.74V20.6079ZM705.078 3.66791C704.126 3.66791 703.342 2.88391 703.342 1.93191C703.342 0.95191 704.126 0.195909 705.078 0.195909C706.03 0.195909 706.814 0.95191 706.814 1.93191C706.814 2.88391 706.03 3.66791 705.078 3.66791ZM703.79 20.6079V6.91591H706.422V20.6079H703.79ZM712.875 20.6079H710.243V6.91591H712.623L712.903 9.01591C713.771 7.44791 715.507 6.52391 717.439 6.52391C721.051 6.52391 722.703 8.73591 722.703 12.2359V20.6079H720.071V12.8239C720.071 10.0519 718.783 8.93191 716.767 8.93191C714.303 8.93191 712.875 10.6959 712.875 13.3559V20.6079ZM725.481 13.4119C725.481 9.54791 727.973 6.52391 731.949 6.52391C734.161 6.52391 735.869 7.53191 736.737 9.23991L736.933 6.91591H739.285V20.0479C739.285 24.3599 736.625 27.1039 732.425 27.1039C728.701 27.1039 726.153 25.0039 725.649 21.5319H728.281C728.617 23.5479 730.129 24.7239 732.425 24.7239C735.001 24.7239 736.681 23.0439 736.681 20.4399V17.6959C735.785 19.2919 733.993 20.2439 731.837 20.2439C727.945 20.2439 725.481 17.2479 725.481 13.4119ZM728.113 13.3559C728.113 15.9319 729.709 17.9479 732.285 17.9479C734.945 17.9479 736.569 16.0439 736.569 13.3559C736.569 10.7239 735.001 8.81991 732.313 8.81991C729.681 8.81991 728.113 10.8359 728.113 13.3559ZM747.031 19.5159C747.031 21.5319 745.519 23.2119 743.531 23.4639V22.2879C744.679 22.0919 745.491 21.3359 745.491 20.4679C745.295 20.5799 745.071 20.6359 744.735 20.6359C743.811 20.6359 743.027 19.9639 743.027 18.9279C743.027 17.8079 743.783 16.9959 744.903 16.9959C746.079 16.9959 747.031 17.9759 747.031 19.5159ZM758.478 26.7399V6.91591H760.858L761.054 9.37991C761.978 7.50391 763.826 6.52391 766.01 6.52391C769.93 6.52391 772.366 9.46391 772.366 13.6639C772.366 17.8359 770.07 20.9719 766.01 20.9719C763.826 20.9719 762.006 20.0479 761.11 18.3679V26.7399H758.478ZM761.138 13.7759C761.138 16.5759 762.762 18.5919 765.45 18.5919C768.138 18.5919 769.734 16.5759 769.734 13.7759C769.734 10.9479 768.138 8.93191 765.45 8.93191C762.762 8.93191 761.138 10.9199 761.138 13.7759ZM779.271 20.9439C776.331 20.9439 774.595 19.2919 774.595 16.7999C774.595 14.2799 776.471 12.7119 779.691 12.4599L784.003 12.1239V11.7319C784.003 9.43591 782.631 8.62391 780.783 8.62391C778.571 8.62391 777.311 9.60391 777.311 11.2559H775.015C775.015 8.39991 777.367 6.52391 780.895 6.52391C784.283 6.52391 786.579 8.31591 786.579 12.0119V20.6079H784.339L784.059 18.3959C783.359 19.9639 781.483 20.9439 779.271 20.9439ZM780.027 18.8999C782.519 18.8999 784.031 17.2759 784.031 14.6999V13.9719L780.531 14.2519C778.207 14.4759 777.255 15.3719 777.255 16.7159C777.255 18.1719 778.319 18.8999 780.027 18.8999ZM789.356 13.4119C789.356 9.54791 791.848 6.52391 795.824 6.52391C798.036 6.52391 799.744 7.53191 800.612 9.23991L800.808 6.91591H803.16V20.0479C803.16 24.3599 800.5 27.1039 796.3 27.1039C792.576 27.1039 790.028 25.0039 789.524 21.5319H792.156C792.492 23.5479 794.004 24.7239 796.3 24.7239C798.876 24.7239 800.556 23.0439 800.556 20.4399V17.6959C799.66 19.2919 797.868 20.2439 795.712 20.2439C791.82 20.2439 789.356 17.2479 789.356 13.4119ZM791.988 13.3559C791.988 15.9319 793.584 17.9479 796.16 17.9479C798.82 17.9479 800.444 16.0439 800.444 13.3559C800.444 10.7239 798.876 8.81991 796.188 8.81991C793.556 8.81991 791.988 10.8359 791.988 13.3559ZM808.246 3.66791C807.294 3.66791 806.51 2.88391 806.51 1.93191C806.51 0.95191 807.294 0.195909 808.246 0.195909C809.198 0.195909 809.982 0.95191 809.982 1.93191C809.982 2.88391 809.198 3.66791 808.246 3.66791ZM806.958 20.6079V6.91591H809.59V20.6079H806.958ZM816.043 20.6079H813.411V6.91591H815.791L816.071 9.01591C816.939 7.44791 818.675 6.52391 820.607 6.52391C824.219 6.52391 825.871 8.73591 825.871 12.2359V20.6079H823.239V12.8239C823.239 10.0519 821.951 8.93191 819.935 8.93191C817.471 8.93191 816.043 10.6959 816.043 13.3559V20.6079ZM833.521 20.9439C830.581 20.9439 828.845 19.2919 828.845 16.7999C828.845 14.2799 830.721 12.7119 833.941 12.4599L838.253 12.1239V11.7319C838.253 9.43591 836.881 8.62391 835.033 8.62391C832.821 8.62391 831.561 9.60391 831.561 11.2559H829.265C829.265 8.39991 831.617 6.52391 835.145 6.52391C838.533 6.52391 840.829 8.31591 840.829 12.0119V20.6079H838.589L838.309 18.3959C837.609 19.9639 835.733 20.9439 833.521 20.9439ZM834.277 18.8999C836.769 18.8999 838.281 17.2759 838.281 14.6999V13.9719L834.781 14.2519C832.457 14.4759 831.505 15.3719 831.505 16.7159C831.505 18.1719 832.569 18.8999 834.277 18.8999ZM848.119 20.6079H845.487V9.12791H842.799V6.91591H845.487V2.63191H848.119V6.91591H850.807V9.12791H848.119V20.6079ZM854.457 3.66791C853.505 3.66791 852.721 2.88391 852.721 1.93191C852.721 0.95191 853.505 0.195909 854.457 0.195909C855.409 0.195909 856.193 0.95191 856.193 1.93191C856.193 2.88391 855.409 3.66791 854.457 3.66791ZM853.169 20.6079V6.91591H855.801V20.6079H853.169ZM858.726 13.7479C858.726 9.51991 861.75 6.55191 865.866 6.55191C869.954 6.55191 872.978 9.51991 872.978 13.7479C872.978 17.9759 869.954 20.9439 865.866 20.9439C861.75 20.9439 858.726 17.9759 858.726 13.7479ZM861.386 13.7479C861.386 16.6039 863.206 18.5919 865.866 18.5919C868.498 18.5919 870.346 16.6039 870.346 13.7479C870.346 10.8919 868.498 8.90391 865.866 8.90391C863.206 8.90391 861.386 10.8919 861.386 13.7479ZM878.524 20.6079H875.892V6.91591H878.272L878.552 9.01591C879.42 7.44791 881.156 6.52391 883.088 6.52391C886.7 6.52391 888.352 8.73591 888.352 12.2359V20.6079H885.72V12.8239C885.72 10.0519 884.432 8.93191 882.416 8.93191C879.952 8.93191 878.524 10.6959 878.524 13.3559V20.6079ZM895.945 19.5159C895.945 21.5319 894.433 23.2119 892.445 23.4639V22.2879C893.593 22.0919 894.405 21.3359 894.405 20.4679C894.209 20.5799 893.985 20.6359 893.649 20.6359C892.725 20.6359 891.941 19.9639 891.941 18.9279C891.941 17.8079 892.697 16.9959 893.817 16.9959C894.993 16.9959 895.945 17.9759 895.945 19.5159ZM910.024 20.5799H907.392V-9.15527e-05H910.024V9.01591C910.892 7.53191 912.544 6.52391 914.672 6.52391C918.172 6.52391 919.852 8.73591 919.852 12.2359V20.6079H917.22V12.8239C917.22 10.0519 915.904 8.93191 913.944 8.93191C911.396 8.93191 910.024 10.7799 910.024 13.1319V20.5799ZM924.785 3.66791C923.833 3.66791 923.049 2.88391 923.049 1.93191C923.049 0.95191 923.833 0.195909 924.785 0.195909C925.737 0.195909 926.521 0.95191 926.521 1.93191C926.521 2.88391 925.737 3.66791 924.785 3.66791ZM923.497 20.6079V6.91591H926.129V20.6079H923.497ZM935.858 20.9439C931.826 20.9439 929.054 18.0319 929.054 13.7759C929.054 9.49191 931.77 6.52391 935.746 6.52391C939.638 6.52391 942.186 9.21191 942.186 13.2719V14.2519L931.602 14.2799C931.798 17.1639 933.31 18.7599 935.914 18.7599C937.958 18.7599 939.302 17.9199 939.75 16.3519H942.214C941.542 19.2919 939.246 20.9439 935.858 20.9439ZM935.746 8.73591C933.45 8.73591 931.994 10.1079 931.658 12.5159H939.554C939.554 10.2479 938.07 8.73591 935.746 8.73591ZM952.966 6.80391V9.21191H951.79C949.298 9.21191 947.758 10.7239 947.758 13.3559V20.6079H945.126V6.94391H947.59L947.758 9.01591C948.318 7.58791 949.69 6.63591 951.566 6.63591C952.042 6.63591 952.434 6.69191 952.966 6.80391ZM958.892 20.9439C955.952 20.9439 954.216 19.2919 954.216 16.7999C954.216 14.2799 956.092 12.7119 959.312 12.4599L963.624 12.1239V11.7319C963.624 9.43591 962.252 8.62391 960.404 8.62391C958.192 8.62391 956.932 9.60391 956.932 11.2559H954.636C954.636 8.39991 956.988 6.52391 960.516 6.52391C963.904 6.52391 966.2 8.31591 966.2 12.0119V20.6079H963.96L963.68 18.3959C962.98 19.9639 961.104 20.9439 958.892 20.9439ZM959.648 18.8999C962.14 18.8999 963.652 17.2759 963.652 14.6999V13.9719L960.152 14.2519C957.828 14.4759 956.876 15.3719 956.876 16.7159C956.876 18.1719 957.94 18.8999 959.648 18.8999ZM977.685 6.80391V9.21191H976.509C974.017 9.21191 972.477 10.7239 972.477 13.3559V20.6079H969.845V6.94391H972.309L972.477 9.01591C973.037 7.58791 974.409 6.63591 976.285 6.63591C976.761 6.63591 977.153 6.69191 977.685 6.80391ZM978.765 13.7759C978.765 9.49191 981.481 6.52391 985.485 6.52391C988.929 6.52391 991.337 8.48391 991.813 11.5359H989.181C988.733 9.79991 987.333 8.87591 985.569 8.87591C983.077 8.87591 981.369 10.7799 981.369 13.7479C981.369 16.6879 982.965 18.5919 985.457 18.5919C987.333 18.5919 988.733 17.6119 989.209 15.9879H991.841C991.309 18.9559 988.761 20.9439 985.457 20.9439C981.425 20.9439 978.765 18.0879 978.765 13.7759ZM997.25 20.5799H994.618V-9.15527e-05H997.25V9.01591C998.118 7.53191 999.77 6.52391 1001.9 6.52391C1005.4 6.52391 1007.08 8.73591 1007.08 12.2359V20.6079H1004.45V12.8239C1004.45 10.0519 1003.13 8.93191 1001.17 8.93191C998.622 8.93191 997.25 10.7799 997.25 13.1319V20.5799ZM1012.01 3.66791C1011.06 3.66791 1010.28 2.88391 1010.28 1.93191C1010.28 0.95191 1011.06 0.195909 1012.01 0.195909C1012.96 0.195909 1013.75 0.95191 1013.75 1.93191C1013.75 2.88391 1012.96 3.66791 1012.01 3.66791ZM1010.72 20.6079V6.91591H1013.36V20.6079H1010.72ZM1016.28 13.7759C1016.28 9.49191 1019 6.52391 1023 6.52391C1026.44 6.52391 1028.85 8.48391 1029.33 11.5359H1026.7C1026.25 9.79991 1024.85 8.87591 1023.08 8.87591C1020.59 8.87591 1018.88 10.7799 1018.88 13.7479C1018.88 16.6879 1020.48 18.5919 1022.97 18.5919C1024.85 18.5919 1026.25 17.6119 1026.72 15.9879H1029.36C1028.82 18.9559 1026.28 20.9439 1022.97 20.9439C1018.94 20.9439 1016.28 18.0879 1016.28 13.7759ZM1036.14 20.9439C1033.2 20.9439 1031.46 19.2919 1031.46 16.7999C1031.46 14.2799 1033.34 12.7119 1036.56 12.4599L1040.87 12.1239V11.7319C1040.87 9.43591 1039.5 8.62391 1037.65 8.62391C1035.44 8.62391 1034.18 9.60391 1034.18 11.2559H1031.88C1031.88 8.39991 1034.23 6.52391 1037.76 6.52391C1041.15 6.52391 1043.45 8.31591 1043.45 12.0119V20.6079H1041.21L1040.93 18.3959C1040.23 19.9639 1038.35 20.9439 1036.14 20.9439ZM1036.89 18.8999C1039.39 18.8999 1040.9 17.2759 1040.9 14.6999V13.9719L1037.4 14.2519C1035.07 14.4759 1034.12 15.3719 1034.12 16.7159C1034.12 18.1719 1035.19 18.8999 1036.89 18.8999ZM1049.78 20.6079H1047.15V-9.15527e-05H1049.78V20.6079ZM1072.96 20.6079H1070.35V9.12791H1064.5V20.6079H1061.87V9.12791H1059.85V6.91591H1061.87V4.73191C1061.87 1.37191 1063.66 -9.15527e-05 1066.04 -9.15527e-05C1066.55 -9.15527e-05 1067.13 0.0279098 1067.67 0.111909V2.37991H1066.49C1064.89 2.37991 1064.5 3.24791 1064.5 4.73191V6.91591H1070.35V-9.15527e-05H1072.96V20.6079ZM1075.92 13.7479C1075.92 9.51991 1078.94 6.55191 1083.06 6.55191C1087.15 6.55191 1090.17 9.51991 1090.17 13.7479C1090.17 17.9759 1087.15 20.9439 1083.06 20.9439C1078.94 20.9439 1075.92 17.9759 1075.92 13.7479ZM1078.58 13.7479C1078.58 16.6039 1080.4 18.5919 1083.06 18.5919C1085.69 18.5919 1087.54 16.6039 1087.54 13.7479C1087.54 10.8919 1085.69 8.90391 1083.06 8.90391C1080.4 8.90391 1078.58 10.8919 1078.58 13.7479ZM1095.39 20.6079L1090.91 6.91591H1093.63L1095.9 14.0279C1096.21 15.0359 1096.49 16.0719 1096.74 17.2759C1096.96 16.0719 1097.33 14.9239 1097.63 14.0279L1099.93 6.91591H1102.62L1104.89 14.0279C1105.11 14.6999 1105.56 16.2959 1105.78 17.2759C1106.01 16.1839 1106.26 15.2319 1106.65 14.0279L1108.95 6.91591H1111.69L1107.01 20.6079H1104.52L1102.14 13.2719C1101.69 11.8999 1101.41 10.8359 1101.27 10.0799C1101.13 10.7519 1100.88 11.6479 1100.38 13.2999L1098 20.6079H1095.39ZM1112.64 16.6319H1115.16C1115.16 18.0319 1116.22 18.8719 1117.96 18.8719C1119.8 18.8719 1120.87 18.1159 1120.87 16.8559C1120.87 15.9319 1120.42 15.3719 1118.99 15.0079L1116.58 14.4479C1114.15 13.8599 1113 12.6559 1113 10.6399C1113 8.11991 1115.13 6.52391 1118.15 6.52391C1121.15 6.52391 1123.11 8.20391 1123.16 10.8079H1120.64C1120.59 9.43591 1119.66 8.56791 1118.07 8.56791C1116.42 8.56791 1115.49 9.29591 1115.49 10.5559C1115.49 11.4799 1116.16 12.0959 1117.51 12.4319L1119.92 13.0199C1122.24 13.5799 1123.39 14.6439 1123.39 16.6879C1123.39 19.2919 1121.15 20.9439 1117.9 20.9439C1114.68 20.9439 1112.64 19.2359 1112.64 16.6319ZM1130.09 19.5159C1130.09 21.5319 1128.58 23.2119 1126.59 23.4639V22.2879C1127.74 22.0919 1128.55 21.3359 1128.55 20.4679C1128.35 20.5799 1128.13 20.6359 1127.79 20.6359C1126.87 20.6359 1126.09 19.9639 1126.09 18.9279C1126.09 17.8079 1126.84 16.9959 1127.96 16.9959C1129.14 16.9959 1130.09 17.9759 1130.09 19.5159ZM1145.54 20.9439C1142.6 20.9439 1140.86 19.2919 1140.86 16.7999C1140.86 14.2799 1142.74 12.7119 1145.96 12.4599L1150.27 12.1239V11.7319C1150.27 9.43591 1148.9 8.62391 1147.05 8.62391C1144.84 8.62391 1143.58 9.60391 1143.58 11.2559H1141.28C1141.28 8.39991 1143.64 6.52391 1147.16 6.52391C1150.55 6.52391 1152.85 8.31591 1152.85 12.0119V20.6079H1150.61L1150.33 18.3959C1149.63 19.9639 1147.75 20.9439 1145.54 20.9439ZM1146.3 18.8999C1148.79 18.8999 1150.3 17.2759 1150.3 14.6999V13.9719L1146.8 14.2519C1144.48 14.4759 1143.52 15.3719 1143.52 16.7159C1143.52 18.1719 1144.59 18.8999 1146.3 18.8999ZM1159.13 20.6079H1156.49V6.91591H1158.87L1159.15 9.01591C1160.02 7.44791 1161.76 6.52391 1163.69 6.52391C1167.3 6.52391 1168.95 8.73591 1168.95 12.2359V20.6079H1166.32V12.8239C1166.32 10.0519 1165.03 8.93191 1163.02 8.93191C1160.55 8.93191 1159.13 10.6959 1159.13 13.3559V20.6079ZM1178.09 20.9439C1174.11 20.9439 1171.7 17.9759 1171.7 13.8039C1171.7 9.60391 1174.14 6.52391 1178.2 6.52391C1180.3 6.52391 1182.06 7.44791 1182.99 9.12791V-9.15527e-05H1185.59V20.6079H1183.24L1183.01 18.1159C1182.12 19.9919 1180.27 20.9439 1178.09 20.9439ZM1178.62 18.5639C1181.31 18.5639 1182.96 16.5759 1182.96 13.7199C1182.96 10.9199 1181.31 8.90391 1178.62 8.90391C1175.93 8.90391 1174.36 10.9199 1174.36 13.7199C1174.36 16.5479 1175.93 18.5639 1178.62 18.5639ZM1198.33 3.66791C1197.38 3.66791 1196.6 2.88391 1196.6 1.93191C1196.6 0.95191 1197.38 0.195909 1198.33 0.195909C1199.28 0.195909 1200.07 0.95191 1200.07 1.93191C1200.07 2.88391 1199.28 3.66791 1198.33 3.66791ZM1197.04 20.6079V6.91591H1199.68V20.6079H1197.04ZM1206.13 20.6079H1203.5V6.91591H1205.88L1206.16 9.01591C1207.03 7.44791 1208.76 6.52391 1210.69 6.52391C1214.31 6.52391 1215.96 8.73591 1215.96 12.2359V20.6079H1213.33V12.8239C1213.33 10.0519 1212.04 8.93191 1210.02 8.93191C1207.56 8.93191 1206.13 10.6959 1206.13 13.3559V20.6079ZM1223.47 20.6079H1220.83V9.12791H1218.15V6.91591H1220.83V2.63191H1223.47V6.91591H1226.15V9.12791H1223.47V20.6079ZM1234.29 20.9439C1230.26 20.9439 1227.48 18.0319 1227.48 13.7759C1227.48 9.49191 1230.2 6.52391 1234.18 6.52391C1238.07 6.52391 1240.62 9.21191 1240.62 13.2719V14.2519L1230.03 14.2799C1230.23 17.1639 1231.74 18.7599 1234.34 18.7599C1236.39 18.7599 1237.73 17.9199 1238.18 16.3519H1240.64C1239.97 19.2919 1237.68 20.9439 1234.29 20.9439ZM1234.18 8.73591C1231.88 8.73591 1230.42 10.1079 1230.09 12.5159H1237.98C1237.98 10.2479 1236.5 8.73591 1234.18 8.73591ZM1251.4 6.80391V9.21191H1250.22C1247.73 9.21191 1246.19 10.7239 1246.19 13.3559V20.6079H1243.56V6.94391H1246.02L1246.19 9.01591C1246.75 7.58791 1248.12 6.63591 1250 6.63591C1250.47 6.63591 1250.86 6.69191 1251.4 6.80391ZM1252.96 6.91591H1254.97V4.73191C1254.97 1.37191 1256.82 -9.15527e-05 1259.31 -9.15527e-05C1259.82 -9.15527e-05 1260.4 0.0279098 1260.94 0.111909V2.37991H1259.76C1258.05 2.37991 1257.6 3.24791 1257.6 4.73191V6.91591H1260.85V9.12791H1257.6V20.6079H1254.97V9.12791H1252.96V6.91591ZM1266.86 20.9439C1263.92 20.9439 1262.19 19.2919 1262.19 16.7999C1262.19 14.2799 1264.06 12.7119 1267.28 12.4599L1271.6 12.1239V11.7319C1271.6 9.43591 1270.22 8.62391 1268.38 8.62391C1266.16 8.62391 1264.9 9.60391 1264.9 11.2559H1262.61C1262.61 8.39991 1264.96 6.52391 1268.49 6.52391C1271.88 6.52391 1274.17 8.31591 1274.17 12.0119V20.6079H1271.93L1271.65 18.3959C1270.95 19.9639 1269.08 20.9439 1266.86 20.9439ZM1267.62 18.8999C1270.11 18.8999 1271.62 17.2759 1271.62 14.6999V13.9719L1268.12 14.2519C1265.8 14.4759 1264.85 15.3719 1264.85 16.7159C1264.85 18.1719 1265.91 18.8999 1267.62 18.8999ZM1276.92 13.7759C1276.92 9.49191 1279.64 6.52391 1283.64 6.52391C1287.09 6.52391 1289.49 8.48391 1289.97 11.5359H1287.34C1286.89 9.79991 1285.49 8.87591 1283.73 8.87591C1281.23 8.87591 1279.53 10.7799 1279.53 13.7479C1279.53 16.6879 1281.12 18.5919 1283.61 18.5919C1285.49 18.5919 1286.89 17.6119 1287.37 15.9879H1290C1289.47 18.9559 1286.92 20.9439 1283.61 20.9439C1279.58 20.9439 1276.92 18.0879 1276.92 13.7759ZM1298.68 20.9439C1294.65 20.9439 1291.88 18.0319 1291.88 13.7759C1291.88 9.49191 1294.59 6.52391 1298.57 6.52391C1302.46 6.52391 1305.01 9.21191 1305.01 13.2719V14.2519L1294.43 14.2799C1294.62 17.1639 1296.13 18.7599 1298.74 18.7599C1300.78 18.7599 1302.13 17.9199 1302.57 16.3519H1305.04C1304.37 19.2919 1302.07 20.9439 1298.68 20.9439ZM1298.57 8.73591C1296.27 8.73591 1294.82 10.1079 1294.48 12.5159H1302.38C1302.38 10.2479 1300.89 8.73591 1298.57 8.73591ZM1319.47 20.6079H1316.84V9.12791H1314.15V6.91591H1316.84V2.63191H1319.47V6.91591H1322.16V9.12791H1319.47V20.6079ZM1332.36 6.80391V9.21191H1331.18C1328.69 9.21191 1327.15 10.7239 1327.15 13.3559V20.6079H1324.52V6.94391H1326.98L1327.15 9.01591C1327.71 7.58791 1329.08 6.63591 1330.96 6.63591C1331.44 6.63591 1331.83 6.69191 1332.36 6.80391ZM1338.29 20.9439C1335.35 20.9439 1333.61 19.2919 1333.61 16.7999C1333.61 14.2799 1335.49 12.7119 1338.71 12.4599L1343.02 12.1239V11.7319C1343.02 9.43591 1341.65 8.62391 1339.8 8.62391C1337.59 8.62391 1336.33 9.60391 1336.33 11.2559H1334.03C1334.03 8.39991 1336.38 6.52391 1339.91 6.52391C1343.3 6.52391 1345.59 8.31591 1345.59 12.0119V20.6079H1343.35L1343.07 18.3959C1342.37 19.9639 1340.5 20.9439 1338.29 20.9439ZM1339.04 18.8999C1341.53 18.8999 1343.05 17.2759 1343.05 14.6999V13.9719L1339.55 14.2519C1337.22 14.4759 1336.27 15.3719 1336.27 16.7159C1336.27 18.1719 1337.33 18.8999 1339.04 18.8999ZM1351.87 20.6079H1349.24V6.91591H1351.62L1351.9 9.01591C1352.77 7.44791 1354.5 6.52391 1356.44 6.52391C1360.05 6.52391 1361.7 8.73591 1361.7 12.2359V20.6079H1359.07V12.8239C1359.07 10.0519 1357.78 8.93191 1355.76 8.93191C1353.3 8.93191 1351.87 10.6959 1351.87 13.3559V20.6079ZM1364.06 16.6319H1366.58C1366.58 18.0319 1367.64 18.8719 1369.38 18.8719C1371.23 18.8719 1372.29 18.1159 1372.29 16.8559C1372.29 15.9319 1371.84 15.3719 1370.42 15.0079L1368.01 14.4479C1365.57 13.8599 1364.42 12.6559 1364.42 10.6399C1364.42 8.11991 1366.55 6.52391 1369.58 6.52391C1372.57 6.52391 1374.53 8.20391 1374.59 10.8079H1372.07C1372.01 9.43591 1371.09 8.56791 1369.49 8.56791C1367.84 8.56791 1366.92 9.29591 1366.92 10.5559C1366.92 11.4799 1367.59 12.0959 1368.93 12.4319L1371.34 13.0199C1373.66 13.5799 1374.81 14.6439 1374.81 16.6879C1374.81 19.2919 1372.57 20.9439 1369.32 20.9439C1366.1 20.9439 1364.06 19.2359 1364.06 16.6319ZM1379.02 3.66791C1378.07 3.66791 1377.28 2.88391 1377.28 1.93191C1377.28 0.95191 1378.07 0.195909 1379.02 0.195909C1379.97 0.195909 1380.76 0.95191 1380.76 1.93191C1380.76 2.88391 1379.97 3.66791 1379.02 3.66791ZM1377.73 20.6079V6.91591H1380.36V20.6079H1377.73ZM1388.05 20.6079H1385.42V9.12791H1382.73V6.91591H1385.42V2.63191H1388.05V6.91591H1390.74V9.12791H1388.05V20.6079ZM1394.39 3.66791C1393.43 3.66791 1392.65 2.88391 1392.65 1.93191C1392.65 0.95191 1393.43 0.195909 1394.39 0.195909C1395.34 0.195909 1396.12 0.95191 1396.12 1.93191C1396.12 2.88391 1395.34 3.66791 1394.39 3.66791ZM1393.1 20.6079V6.91591H1395.73V20.6079H1393.1ZM1398.66 13.7479C1398.66 9.51991 1401.68 6.55191 1405.8 6.55191C1409.88 6.55191 1412.91 9.51991 1412.91 13.7479C1412.91 17.9759 1409.88 20.9439 1405.8 20.9439C1401.68 20.9439 1398.66 17.9759 1398.66 13.7479ZM1401.32 13.7479C1401.32 16.6039 1403.14 18.5919 1405.8 18.5919C1408.43 18.5919 1410.28 16.6039 1410.28 13.7479C1410.28 10.8919 1408.43 8.90391 1405.8 8.90391C1403.14 8.90391 1401.32 10.8919 1401.32 13.7479ZM1418.45 20.6079H1415.82V6.91591H1418.2L1418.48 9.01591C1419.35 7.44791 1421.09 6.52391 1423.02 6.52391C1426.63 6.52391 1428.28 8.73591 1428.28 12.2359V20.6079H1425.65V12.8239C1425.65 10.0519 1424.36 8.93191 1422.35 8.93191C1419.88 8.93191 1418.45 10.6959 1418.45 13.3559V20.6079ZM1430.64 16.6319H1433.16C1433.16 18.0319 1434.23 18.8719 1435.96 18.8719C1437.81 18.8719 1438.87 18.1159 1438.87 16.8559C1438.87 15.9319 1438.43 15.3719 1437 15.0079L1434.59 14.4479C1432.15 13.8599 1431.01 12.6559 1431.01 10.6399C1431.01 8.11991 1433.13 6.52391 1436.16 6.52391C1439.15 6.52391 1441.11 8.20391 1441.17 10.8079H1438.65C1438.59 9.43591 1437.67 8.56791 1436.07 8.56791C1434.42 8.56791 1433.5 9.29591 1433.5 10.5559C1433.5 11.4799 1434.17 12.0959 1435.51 12.4319L1437.92 13.0199C1440.25 13.5799 1441.39 14.6439 1441.39 16.6879C1441.39 19.2919 1439.15 20.9439 1435.91 20.9439C1432.69 20.9439 1430.64 19.2359 1430.64 16.6319ZM1455.97 20.9439C1453.03 20.9439 1451.3 19.2919 1451.3 16.7999C1451.3 14.2799 1453.17 12.7119 1456.39 12.4599L1460.71 12.1239V11.7319C1460.71 9.43591 1459.33 8.62391 1457.49 8.62391C1455.27 8.62391 1454.01 9.60391 1454.01 11.2559H1451.72C1451.72 8.39991 1454.07 6.52391 1457.6 6.52391C1460.99 6.52391 1463.28 8.31591 1463.28 12.0119V20.6079H1461.04L1460.76 18.3959C1460.06 19.9639 1458.19 20.9439 1455.97 20.9439ZM1456.73 18.8999C1459.22 18.8999 1460.73 17.2759 1460.73 14.6999V13.9719L1457.23 14.2519C1454.91 14.4759 1453.96 15.3719 1453.96 16.7159C1453.96 18.1719 1455.02 18.8999 1456.73 18.8999ZM1466.03 13.7759C1466.03 9.49191 1468.75 6.52391 1472.75 6.52391C1476.19 6.52391 1478.6 8.48391 1479.08 11.5359H1476.45C1476 9.79991 1474.6 8.87591 1472.83 8.87591C1470.34 8.87591 1468.63 10.7799 1468.63 13.7479C1468.63 16.6879 1470.23 18.5919 1472.72 18.5919C1474.6 18.5919 1476 17.6119 1476.47 15.9879H1479.11C1478.57 18.9559 1476.03 20.9439 1472.72 20.9439C1468.69 20.9439 1466.03 18.0879 1466.03 13.7759ZM1489.72 6.80391V9.21191H1488.55C1486.06 9.21191 1484.52 10.7239 1484.52 13.3559V20.6079H1481.88V6.94391H1484.35L1484.52 9.01591C1485.08 7.58791 1486.45 6.63591 1488.32 6.63591C1488.8 6.63591 1489.19 6.69191 1489.72 6.80391ZM1490.8 13.7479C1490.8 9.51991 1493.83 6.55191 1497.94 6.55191C1502.03 6.55191 1505.06 9.51991 1505.06 13.7479C1505.06 17.9759 1502.03 20.9439 1497.94 20.9439C1493.83 20.9439 1490.8 17.9759 1490.8 13.7479ZM1493.46 13.7479C1493.46 16.6039 1495.28 18.5919 1497.94 18.5919C1500.58 18.5919 1502.42 16.6039 1502.42 13.7479C1502.42 10.8919 1500.58 8.90391 1497.94 8.90391C1495.28 8.90391 1493.46 10.8919 1493.46 13.7479ZM1506.85 16.6319H1509.37C1509.37 18.0319 1510.43 18.8719 1512.17 18.8719C1514.02 18.8719 1515.08 18.1159 1515.08 16.8559C1515.08 15.9319 1514.63 15.3719 1513.21 15.0079L1510.8 14.4479C1508.36 13.8599 1507.21 12.6559 1507.21 10.6399C1507.21 8.11991 1509.34 6.52391 1512.37 6.52391C1515.36 6.52391 1517.32 8.20391 1517.38 10.8079H1514.86C1514.8 9.43591 1513.88 8.56791 1512.28 8.56791C1510.63 8.56791 1509.71 9.29591 1509.71 10.5559C1509.71 11.4799 1510.38 12.0959 1511.72 12.4319L1514.13 13.0199C1516.45 13.5799 1517.6 14.6439 1517.6 16.6879C1517.6 19.2919 1515.36 20.9439 1512.11 20.9439C1508.89 20.9439 1506.85 19.2359 1506.85 16.6319ZM1519.4 16.6319H1521.92C1521.92 18.0319 1522.98 18.8719 1524.72 18.8719C1526.57 18.8719 1527.63 18.1159 1527.63 16.8559C1527.63 15.9319 1527.18 15.3719 1525.76 15.0079L1523.35 14.4479C1520.91 13.8599 1519.76 12.6559 1519.76 10.6399C1519.76 8.11991 1521.89 6.52391 1524.92 6.52391C1527.91 6.52391 1529.87 8.20391 1529.93 10.8079H1527.41C1527.35 9.43591 1526.43 8.56791 1524.83 8.56791C1523.18 8.56791 1522.26 9.29591 1522.26 10.5559C1522.26 11.4799 1522.93 12.0959 1524.27 12.4319L1526.68 13.0199C1529 13.5799 1530.15 14.6439 1530.15 16.6879C1530.15 19.2919 1527.91 20.9439 1524.66 20.9439C1521.44 20.9439 1519.4 19.2359 1519.4 16.6319ZM1543.36 20.6079H1540.73V6.91591H1543.08L1543.33 8.70791C1544.03 7.41991 1545.49 6.52391 1547.42 6.52391C1549.55 6.52391 1551.06 7.58791 1551.76 9.29591C1552.4 7.58791 1554.06 6.52391 1556.18 6.52391C1559.32 6.52391 1561.22 8.48391 1561.22 11.6479V20.6079H1558.65V12.2919C1558.65 10.1359 1557.44 8.90391 1555.6 8.90391C1553.61 8.90391 1552.29 10.3039 1552.29 12.4879V20.6079H1549.69V12.2639C1549.69 10.1079 1548.51 8.93191 1546.66 8.93191C1544.68 8.93191 1543.36 10.3039 1543.36 12.4879V20.6079ZM1563.98 13.7479C1563.98 9.51991 1567 6.55191 1571.12 6.55191C1575.2 6.55191 1578.23 9.51991 1578.23 13.7479C1578.23 17.9759 1575.2 20.9439 1571.12 20.9439C1567 20.9439 1563.98 17.9759 1563.98 13.7479ZM1566.64 13.7479C1566.64 16.6039 1568.46 18.5919 1571.12 18.5919C1573.75 18.5919 1575.6 16.6039 1575.6 13.7479C1575.6 10.8919 1573.75 8.90391 1571.12 8.90391C1568.46 8.90391 1566.64 10.8919 1566.64 13.7479ZM1586.63 20.9439C1582.65 20.9439 1580.25 17.9759 1580.25 13.8039C1580.25 9.60391 1582.68 6.52391 1586.74 6.52391C1588.84 6.52391 1590.61 7.44791 1591.53 9.12791V-9.15527e-05H1594.13V20.6079H1591.78L1591.56 18.1159C1590.66 19.9919 1588.81 20.9439 1586.63 20.9439ZM1587.16 18.5639C1589.85 18.5639 1591.5 16.5759 1591.5 13.7199C1591.5 10.9199 1589.85 8.90391 1587.16 8.90391C1584.47 8.90391 1582.91 10.9199 1582.91 13.7199C1582.91 16.5479 1584.47 18.5639 1587.16 18.5639ZM1603.84 20.9439C1599.81 20.9439 1597.03 18.0319 1597.03 13.7759C1597.03 9.49191 1599.75 6.52391 1603.73 6.52391C1607.62 6.52391 1610.17 9.21191 1610.17 13.2719V14.2519L1599.58 14.2799C1599.78 17.1639 1601.29 18.7599 1603.89 18.7599C1605.94 18.7599 1607.28 17.9199 1607.73 16.3519H1610.19C1609.52 19.2919 1607.23 20.9439 1603.84 20.9439ZM1603.73 8.73591C1601.43 8.73591 1599.97 10.1079 1599.64 12.5159H1607.53C1607.53 10.2479 1606.05 8.73591 1603.73 8.73591ZM1620.95 6.80391V9.21191H1619.77C1617.28 9.21191 1615.74 10.7239 1615.74 13.3559V20.6079H1613.11V6.94391H1615.57L1615.74 9.01591C1616.3 7.58791 1617.67 6.63591 1619.55 6.63591C1620.02 6.63591 1620.41 6.69191 1620.95 6.80391ZM1626.05 20.6079H1623.42V6.91591H1625.8L1626.08 9.01591C1626.94 7.44791 1628.68 6.52391 1630.61 6.52391C1634.22 6.52391 1635.88 8.73591 1635.88 12.2359V20.6079H1633.24V12.8239C1633.24 10.0519 1631.96 8.93191 1629.94 8.93191C1627.48 8.93191 1626.05 10.6959 1626.05 13.3559V20.6079ZM1652.66 20.9439C1648.69 20.9439 1646.28 17.9759 1646.28 13.8039C1646.28 9.60391 1648.72 6.52391 1652.78 6.52391C1654.88 6.52391 1656.64 7.44791 1657.56 9.12791V-9.15527e-05H1660.17V20.6079H1657.82L1657.59 18.1159C1656.7 19.9919 1654.85 20.9439 1652.66 20.9439ZM1653.2 18.5639C1655.88 18.5639 1657.54 16.5759 1657.54 13.7199C1657.54 10.9199 1655.88 8.90391 1653.2 8.90391C1650.51 8.90391 1648.94 10.9199 1648.94 13.7199C1648.94 16.5479 1650.51 18.5639 1653.2 18.5639ZM1667.97 20.9439C1665.03 20.9439 1663.29 19.2919 1663.29 16.7999C1663.29 14.2799 1665.17 12.7119 1668.39 12.4599L1672.7 12.1239V11.7319C1672.7 9.43591 1671.33 8.62391 1669.48 8.62391C1667.27 8.62391 1666.01 9.60391 1666.01 11.2559H1663.71C1663.71 8.39991 1666.07 6.52391 1669.59 6.52391C1672.98 6.52391 1675.28 8.31591 1675.28 12.0119V20.6079H1673.04L1672.76 18.3959C1672.06 19.9639 1670.18 20.9439 1667.97 20.9439ZM1668.73 18.8999C1671.22 18.8999 1672.73 17.2759 1672.73 14.6999V13.9719L1669.23 14.2519C1666.91 14.4759 1665.95 15.3719 1665.95 16.7159C1665.95 18.1719 1667.02 18.8999 1668.73 18.8999ZM1677.8 16.6319H1680.32C1680.32 18.0319 1681.39 18.8719 1683.12 18.8719C1684.97 18.8719 1686.04 18.1159 1686.04 16.8559C1686.04 15.9319 1685.59 15.3719 1684.16 15.0079L1681.75 14.4479C1679.32 13.8599 1678.17 12.6559 1678.17 10.6399C1678.17 8.11991 1680.3 6.52391 1683.32 6.52391C1686.32 6.52391 1688.28 8.20391 1688.33 10.8079H1685.81C1685.76 9.43591 1684.83 8.56791 1683.24 8.56791C1681.58 8.56791 1680.66 9.29591 1680.66 10.5559C1680.66 11.4799 1681.33 12.0959 1682.68 12.4319L1685.08 13.0199C1687.41 13.5799 1688.56 14.6439 1688.56 16.6879C1688.56 19.2919 1686.32 20.9439 1683.07 20.9439C1679.85 20.9439 1677.8 19.2359 1677.8 16.6319ZM1694.11 20.5799H1691.47V-9.15527e-05H1694.11V9.01591C1694.97 7.53191 1696.63 6.52391 1698.75 6.52391C1702.25 6.52391 1703.93 8.73591 1703.93 12.2359V20.6079H1701.3V12.8239C1701.3 10.0519 1699.99 8.93191 1698.03 8.93191C1695.48 8.93191 1694.11 10.7799 1694.11 13.1319V20.5799ZM1709.96 20.6079H1707.58V-9.15527e-05H1710.21V9.26791C1711.11 7.47591 1712.96 6.52391 1715.2 6.52391C1719.12 6.52391 1721.47 9.60391 1721.47 13.8319C1721.47 17.9759 1719 20.9439 1715.03 20.9439C1712.87 20.9439 1711.05 19.9919 1710.16 18.1159L1709.96 20.6079ZM1710.24 13.7199C1710.24 16.5759 1711.86 18.5639 1714.55 18.5639C1717.24 18.5639 1718.84 16.5479 1718.84 13.7199C1718.84 10.9199 1717.24 8.90391 1714.55 8.90391C1711.86 8.90391 1710.24 10.9199 1710.24 13.7199ZM1723.47 13.7479C1723.47 9.51991 1726.5 6.55191 1730.61 6.55191C1734.7 6.55191 1737.72 9.51991 1737.72 13.7479C1737.72 17.9759 1734.7 20.9439 1730.61 20.9439C1726.5 20.9439 1723.47 17.9759 1723.47 13.7479ZM1726.13 13.7479C1726.13 16.6039 1727.95 18.5919 1730.61 18.5919C1733.24 18.5919 1735.09 16.6039 1735.09 13.7479C1735.09 10.8919 1733.24 8.90391 1730.61 8.90391C1727.95 8.90391 1726.13 10.8919 1726.13 13.7479ZM1744.64 20.9439C1741.7 20.9439 1739.97 19.2919 1739.97 16.7999C1739.97 14.2799 1741.84 12.7119 1745.06 12.4599L1749.37 12.1239V11.7319C1749.37 9.43591 1748 8.62391 1746.15 8.62391C1743.94 8.62391 1742.68 9.60391 1742.68 11.2559H1740.39C1740.39 8.39991 1742.74 6.52391 1746.27 6.52391C1749.65 6.52391 1751.95 8.31591 1751.95 12.0119V20.6079H1749.71L1749.43 18.3959C1748.73 19.9639 1746.85 20.9439 1744.64 20.9439ZM1745.4 18.8999C1747.89 18.8999 1749.4 17.2759 1749.4 14.6999V13.9719L1745.9 14.2519C1743.58 14.4759 1742.63 15.3719 1742.63 16.7159C1742.63 18.1719 1743.69 18.8999 1745.4 18.8999ZM1763.43 6.80391V9.21191H1762.26C1759.77 9.21191 1758.23 10.7239 1758.23 13.3559V20.6079H1755.59V6.94391H1758.06L1758.23 9.01591C1758.79 7.58791 1760.16 6.63591 1762.03 6.63591C1762.51 6.63591 1762.9 6.69191 1763.43 6.80391ZM1770.9 20.9439C1766.92 20.9439 1764.52 17.9759 1764.52 13.8039C1764.52 9.60391 1766.95 6.52391 1771.01 6.52391C1773.11 6.52391 1774.88 7.44791 1775.8 9.12791V-9.15527e-05H1778.4V20.6079H1776.05L1775.83 18.1159C1774.93 19.9919 1773.08 20.9439 1770.9 20.9439ZM1771.43 18.5639C1774.12 18.5639 1775.77 16.5759 1775.77 13.7199C1775.77 10.9199 1774.12 8.90391 1771.43 8.90391C1768.74 8.90391 1767.18 10.9199 1767.18 13.7199C1767.18 16.5479 1768.74 18.5639 1771.43 18.5639ZM1781.08 16.6319H1783.6C1783.6 18.0319 1784.66 18.8719 1786.4 18.8719C1788.25 18.8719 1789.31 18.1159 1789.31 16.8559C1789.31 15.9319 1788.86 15.3719 1787.44 15.0079L1785.03 14.4479C1782.59 13.8599 1781.44 12.6559 1781.44 10.6399C1781.44 8.11991 1783.57 6.52391 1786.6 6.52391C1789.59 6.52391 1791.55 8.20391 1791.61 10.8079H1789.09C1789.03 9.43591 1788.11 8.56791 1786.51 8.56791C1784.86 8.56791 1783.94 9.29591 1783.94 10.5559C1783.94 11.4799 1784.61 12.0959 1785.95 12.4319L1788.36 13.0199C1790.68 13.5799 1791.83 14.6439 1791.83 16.6879C1791.83 19.2919 1789.59 20.9439 1786.34 20.9439C1783.12 20.9439 1781.08 19.2359 1781.08 16.6319ZM1798.54 19.5159C1798.54 21.5319 1797.02 23.2119 1795.04 23.4639V22.2879C1796.18 22.0919 1797 21.3359 1797 20.4679C1796.8 20.5799 1796.58 20.6359 1796.24 20.6359C1795.32 20.6359 1794.53 19.9639 1794.53 18.9279C1794.53 17.8079 1795.29 16.9959 1796.41 16.9959C1797.58 16.9959 1798.54 17.9759 1798.54 19.5159ZM1813.99 20.9439C1811.05 20.9439 1809.31 19.2919 1809.31 16.7999C1809.31 14.2799 1811.19 12.7119 1814.41 12.4599L1818.72 12.1239V11.7319C1818.72 9.43591 1817.35 8.62391 1815.5 8.62391C1813.29 8.62391 1812.03 9.60391 1812.03 11.2559H1809.73C1809.73 8.39991 1812.08 6.52391 1815.61 6.52391C1819 6.52391 1821.29 8.31591 1821.29 12.0119V20.6079H1819.05L1818.77 18.3959C1818.07 19.9639 1816.2 20.9439 1813.99 20.9439ZM1814.74 18.8999C1817.23 18.8999 1818.75 17.2759 1818.75 14.6999V13.9719L1815.25 14.2519C1812.92 14.4759 1811.97 15.3719 1811.97 16.7159C1811.97 18.1719 1813.03 18.8999 1814.74 18.8999ZM1824.94 26.7399V6.91591H1827.32L1827.51 9.37991C1828.44 7.50391 1830.29 6.52391 1832.47 6.52391C1836.39 6.52391 1838.83 9.46391 1838.83 13.6639C1838.83 17.8359 1836.53 20.9719 1832.47 20.9719C1830.29 20.9719 1828.47 20.0479 1827.57 18.3679V26.7399H1824.94ZM1827.6 13.7759C1827.6 16.5759 1829.22 18.5919 1831.91 18.5919C1834.6 18.5919 1836.19 16.5759 1836.19 13.7759C1836.19 10.9479 1834.6 8.93191 1831.91 8.93191C1829.22 8.93191 1827.6 10.9199 1827.6 13.7759ZM1841.73 26.7399V6.91591H1844.11L1844.3 9.37991C1845.23 7.50391 1847.08 6.52391 1849.26 6.52391C1853.18 6.52391 1855.62 9.46391 1855.62 13.6639C1855.62 17.8359 1853.32 20.9719 1849.26 20.9719C1847.08 20.9719 1845.26 20.0479 1844.36 18.3679V26.7399H1841.73ZM1844.39 13.7759C1844.39 16.5759 1846.01 18.5919 1848.7 18.5919C1851.39 18.5919 1852.98 16.5759 1852.98 13.7759C1852.98 10.9479 1851.39 8.93191 1848.7 8.93191C1846.01 8.93191 1844.39 10.9199 1844.39 13.7759ZM1861.2 20.6079H1858.57V-9.15527e-05H1861.2V20.6079ZM1866.37 3.66791C1865.42 3.66791 1864.63 2.88391 1864.63 1.93191C1864.63 0.95191 1865.42 0.195909 1866.37 0.195909C1867.32 0.195909 1868.1 0.95191 1868.1 1.93191C1868.1 2.88391 1867.32 3.66791 1866.37 3.66791ZM1865.08 20.6079V6.91591H1867.71V20.6079H1865.08ZM1870.64 13.7759C1870.64 9.49191 1873.35 6.52391 1877.36 6.52391C1880.8 6.52391 1883.21 8.48391 1883.68 11.5359H1881.05C1880.6 9.79991 1879.2 8.87591 1877.44 8.87591C1874.95 8.87591 1873.24 10.7799 1873.24 13.7479C1873.24 16.6879 1874.84 18.5919 1877.33 18.5919C1879.2 18.5919 1880.6 17.6119 1881.08 15.9879H1883.71C1883.18 18.9559 1880.63 20.9439 1877.33 20.9439C1873.3 20.9439 1870.64 18.0879 1870.64 13.7759ZM1890.49 20.9439C1887.55 20.9439 1885.82 19.2919 1885.82 16.7999C1885.82 14.2799 1887.69 12.7119 1890.91 12.4599L1895.23 12.1239V11.7319C1895.23 9.43591 1893.85 8.62391 1892.01 8.62391C1889.79 8.62391 1888.53 9.60391 1888.53 11.2559H1886.24C1886.24 8.39991 1888.59 6.52391 1892.12 6.52391C1895.51 6.52391 1897.8 8.31591 1897.8 12.0119V20.6079H1895.56L1895.28 18.3959C1894.58 19.9639 1892.71 20.9439 1890.49 20.9439ZM1891.25 18.8999C1893.74 18.8999 1895.25 17.2759 1895.25 14.6999V13.9719L1891.75 14.2519C1889.43 14.4759 1888.48 15.3719 1888.48 16.7159C1888.48 18.1719 1889.54 18.8999 1891.25 18.8999ZM1905.09 20.6079H1902.46V9.12791H1899.77V6.91591H1902.46V2.63191H1905.09V6.91591H1907.78V9.12791H1905.09V20.6079ZM1911.43 3.66791C1910.48 3.66791 1909.69 2.88391 1909.69 1.93191C1909.69 0.95191 1910.48 0.195909 1911.43 0.195909C1912.38 0.195909 1913.17 0.95191 1913.17 1.93191C1913.17 2.88391 1912.38 3.66791 1911.43 3.66791ZM1910.14 20.6079V6.91591H1912.77V20.6079H1910.14ZM1915.7 13.7479C1915.7 9.51991 1918.72 6.55191 1922.84 6.55191C1926.93 6.55191 1929.95 9.51991 1929.95 13.7479C1929.95 17.9759 1926.93 20.9439 1922.84 20.9439C1918.72 20.9439 1915.7 17.9759 1915.7 13.7479ZM1918.36 13.7479C1918.36 16.6039 1920.18 18.5919 1922.84 18.5919C1925.47 18.5919 1927.32 16.6039 1927.32 13.7479C1927.32 10.8919 1925.47 8.90391 1922.84 8.90391C1920.18 8.90391 1918.36 10.8919 1918.36 13.7479ZM1935.5 20.6079H1932.86V6.91591H1935.24L1935.52 9.01591C1936.39 7.44791 1938.13 6.52391 1940.06 6.52391C1943.67 6.52391 1945.32 8.73591 1945.32 12.2359V20.6079H1942.69V12.8239C1942.69 10.0519 1941.4 8.93191 1939.39 8.93191C1936.92 8.93191 1935.5 10.6959 1935.5 13.3559V20.6079ZM1947.69 16.6319H1950.21C1950.21 18.0319 1951.27 18.8719 1953.01 18.8719C1954.85 18.8719 1955.92 18.1159 1955.92 16.8559C1955.92 15.9319 1955.47 15.3719 1954.04 15.0079L1951.63 14.4479C1949.2 13.8599 1948.05 12.6559 1948.05 10.6399C1948.05 8.11991 1950.18 6.52391 1953.2 6.52391C1956.2 6.52391 1958.16 8.20391 1958.21 10.8079H1955.69C1955.64 9.43591 1954.71 8.56791 1953.12 8.56791C1951.47 8.56791 1950.54 9.29591 1950.54 10.5559C1950.54 11.4799 1951.21 12.0959 1952.56 12.4319L1954.97 13.0199C1957.29 13.5799 1958.44 14.6439 1958.44 16.6879C1958.44 19.2919 1956.2 20.9439 1952.95 20.9439C1949.73 20.9439 1947.69 19.2359 1947.69 16.6319ZM1965.14 19.5159C1965.14 21.5319 1963.63 23.2119 1961.64 23.4639V22.2879C1962.79 22.0919 1963.6 21.3359 1963.6 20.4679C1963.4 20.5799 1963.18 20.6359 1962.84 20.6359C1961.92 20.6359 1961.14 19.9639 1961.14 18.9279C1961.14 17.8079 1961.89 16.9959 1963.01 16.9959C1964.19 16.9959 1965.14 17.9759 1965.14 19.5159ZM1980.59 20.9439C1977.65 20.9439 1975.92 19.2919 1975.92 16.7999C1975.92 14.2799 1977.79 12.7119 1981.01 12.4599L1985.32 12.1239V11.7319C1985.32 9.43591 1983.95 8.62391 1982.1 8.62391C1979.89 8.62391 1978.63 9.60391 1978.63 11.2559H1976.34C1976.34 8.39991 1978.69 6.52391 1982.22 6.52391C1985.6 6.52391 1987.9 8.31591 1987.9 12.0119V20.6079H1985.66L1985.38 18.3959C1984.68 19.9639 1982.8 20.9439 1980.59 20.9439ZM1981.35 18.8999C1983.84 18.8999 1985.35 17.2759 1985.35 14.6999V13.9719L1981.85 14.2519C1979.53 14.4759 1978.58 15.3719 1978.58 16.7159C1978.58 18.1719 1979.64 18.8999 1981.35 18.8999ZM1994.18 20.6079H1991.54V6.91591H1993.92L1994.2 9.01591C1995.07 7.44791 1996.81 6.52391 1998.74 6.52391C2002.35 6.52391 2004 8.73591 2004 12.2359V20.6079H2001.37V12.8239C2001.37 10.0519 2000.08 8.93191 1998.07 8.93191C1995.6 8.93191 1994.18 10.6959 1994.18 13.3559V20.6079ZM2013.14 20.9439C2009.16 20.9439 2006.75 17.9759 2006.75 13.8039C2006.75 9.60391 2009.19 6.52391 2013.25 6.52391C2015.35 6.52391 2017.11 7.44791 2018.04 9.12791V-9.15527e-05H2020.64V20.6079H2018.29L2018.07 18.1159C2017.17 19.9919 2015.32 20.9439 2013.14 20.9439ZM2013.67 18.5639C2016.36 18.5639 2018.01 16.5759 2018.01 13.7199C2018.01 10.9199 2016.36 8.90391 2013.67 8.90391C2010.98 8.90391 2009.41 10.9199 2009.41 13.7199C2009.41 16.5479 2010.98 18.5639 2013.67 18.5639ZM2033.38 3.66791C2032.43 3.66791 2031.65 2.88391 2031.65 1.93191C2031.65 0.95191 2032.43 0.195909 2033.38 0.195909C2034.33 0.195909 2035.12 0.95191 2035.12 1.93191C2035.12 2.88391 2034.33 3.66791 2033.38 3.66791ZM2032.09 20.6079V6.91591H2034.73V20.6079H2032.09ZM2041.18 20.6079H2038.55V6.91591H2040.93L2041.21 9.01591C2042.08 7.44791 2043.81 6.52391 2045.74 6.52391C2049.36 6.52391 2051.01 8.73591 2051.01 12.2359V20.6079H2048.38V12.8239C2048.38 10.0519 2047.09 8.93191 2045.07 8.93191C2042.61 8.93191 2041.18 10.6959 2041.18 13.3559V20.6079ZM2058.52 20.6079H2055.89V9.12791H2053.2V6.91591H2055.89V2.63191H2058.52V6.91591H2061.21V9.12791H2058.52V20.6079ZM2069.34 20.9439C2065.31 20.9439 2062.53 18.0319 2062.53 13.7759C2062.53 9.49191 2065.25 6.52391 2069.23 6.52391C2073.12 6.52391 2075.67 9.21191 2075.67 13.2719V14.2519L2065.08 14.2799C2065.28 17.1639 2066.79 18.7599 2069.39 18.7599C2071.44 18.7599 2072.78 17.9199 2073.23 16.3519H2075.69C2075.02 19.2919 2072.73 20.9439 2069.34 20.9439ZM2069.23 8.73591C2066.93 8.73591 2065.47 10.1079 2065.14 12.5159H2073.03C2073.03 10.2479 2071.55 8.73591 2069.23 8.73591ZM2086.45 6.80391V9.21191H2085.27C2082.78 9.21191 2081.24 10.7239 2081.24 13.3559V20.6079H2078.61V6.94391H2081.07L2081.24 9.01591C2081.8 7.58791 2083.17 6.63591 2085.05 6.63591C2085.52 6.63591 2085.91 6.69191 2086.45 6.80391ZM2092.37 20.9439C2089.43 20.9439 2087.7 19.2919 2087.7 16.7999C2087.7 14.2799 2089.57 12.7119 2092.79 12.4599L2097.1 12.1239V11.7319C2097.1 9.43591 2095.73 8.62391 2093.88 8.62391C2091.67 8.62391 2090.41 9.60391 2090.41 11.2559H2088.12C2088.12 8.39991 2090.47 6.52391 2094 6.52391C2097.38 6.52391 2099.68 8.31591 2099.68 12.0119V20.6079H2097.44L2097.16 18.3959C2096.46 19.9639 2094.58 20.9439 2092.37 20.9439ZM2093.13 18.8999C2095.62 18.8999 2097.13 17.2759 2097.13 14.6999V13.9719L2093.63 14.2519C2091.31 14.4759 2090.36 15.3719 2090.36 16.7159C2090.36 18.1719 2091.42 18.8999 2093.13 18.8999ZM2102.43 13.7759C2102.43 9.49191 2105.15 6.52391 2109.15 6.52391C2112.59 6.52391 2115 8.48391 2115.48 11.5359H2112.85C2112.4 9.79991 2111 8.87591 2109.23 8.87591C2106.74 8.87591 2105.03 10.7799 2105.03 13.7479C2105.03 16.6879 2106.63 18.5919 2109.12 18.5919C2111 18.5919 2112.4 17.6119 2112.87 15.9879H2115.51C2114.97 18.9559 2112.43 20.9439 2109.12 20.9439C2105.09 20.9439 2102.43 18.0879 2102.43 13.7759ZM2122.15 20.6079H2119.51V9.12791H2116.83V6.91591H2119.51V2.63191H2122.15V6.91591H2124.83V9.12791H2122.15V20.6079ZM2128.48 3.66791C2127.53 3.66791 2126.75 2.88391 2126.75 1.93191C2126.75 0.95191 2127.53 0.195909 2128.48 0.195909C2129.44 0.195909 2130.22 0.95191 2130.22 1.93191C2130.22 2.88391 2129.44 3.66791 2128.48 3.66791ZM2127.2 20.6079V6.91591H2129.83V20.6079H2127.2ZM2137.49 20.6079L2131.97 6.91591H2134.77L2137.77 14.5599C2138.24 15.8479 2138.63 16.9959 2138.86 17.8359C2139.08 16.9399 2139.53 15.7639 2140.01 14.5599L2143.06 6.91591H2145.8L2140.09 20.6079H2137.49ZM2153.17 20.9439C2149.14 20.9439 2146.37 18.0319 2146.37 13.7759C2146.37 9.49191 2149.09 6.52391 2153.06 6.52391C2156.95 6.52391 2159.5 9.21191 2159.5 13.2719V14.2519L2148.92 14.2799C2149.11 17.1639 2150.63 18.7599 2153.23 18.7599C2155.27 18.7599 2156.62 17.9199 2157.07 16.3519H2159.53C2158.86 19.2919 2156.56 20.9439 2153.17 20.9439ZM2153.06 8.73591C2150.77 8.73591 2149.31 10.1079 2148.97 12.5159H2156.87C2156.87 10.2479 2155.39 8.73591 2153.06 8.73591ZM2168.98 16.6319H2171.5C2171.5 18.0319 2172.56 18.8719 2174.3 18.8719C2176.15 18.8719 2177.21 18.1159 2177.21 16.8559C2177.21 15.9319 2176.76 15.3719 2175.33 15.0079L2172.93 14.4479C2170.49 13.8599 2169.34 12.6559 2169.34 10.6399C2169.34 8.11991 2171.47 6.52391 2174.49 6.52391C2177.49 6.52391 2179.45 8.20391 2179.51 10.8079H2176.99C2176.93 9.43591 2176.01 8.56791 2174.41 8.56791C2172.76 8.56791 2171.83 9.29591 2171.83 10.5559C2171.83 11.4799 2172.51 12.0959 2173.85 12.4319L2176.26 13.0199C2178.58 13.5799 2179.73 14.6439 2179.73 16.6879C2179.73 19.2919 2177.49 20.9439 2174.24 20.9439C2171.02 20.9439 2168.98 19.2359 2168.98 16.6319ZM2181.06 26.7399V24.5839H2182.82C2184.08 24.5839 2185.09 24.3879 2185.74 22.6519L2186.21 21.3359L2180.7 6.91591H2183.47L2187.44 17.9479L2191.5 6.91591H2194.22L2187.75 23.6879C2186.83 26.0399 2185.46 27.0199 2183.36 27.0199C2182.49 27.0199 2181.76 26.9079 2181.06 26.7399ZM2195.01 16.6319H2197.53C2197.53 18.0319 2198.59 18.8719 2200.33 18.8719C2202.18 18.8719 2203.24 18.1159 2203.24 16.8559C2203.24 15.9319 2202.79 15.3719 2201.37 15.0079L2198.96 14.4479C2196.52 13.8599 2195.37 12.6559 2195.37 10.6399C2195.37 8.11991 2197.5 6.52391 2200.53 6.52391C2203.52 6.52391 2205.48 8.20391 2205.54 10.8079H2203.02C2202.96 9.43591 2202.04 8.56791 2200.44 8.56791C2198.79 8.56791 2197.87 9.29591 2197.87 10.5559C2197.87 11.4799 2198.54 12.0959 2199.88 12.4319L2202.29 13.0199C2204.61 13.5799 2205.76 14.6439 2205.76 16.6879C2205.76 19.2919 2203.52 20.9439 2200.27 20.9439C2197.05 20.9439 2195.01 19.2359 2195.01 16.6319ZM2212.54 20.6079H2209.91V9.12791H2207.22V6.91591H2209.91V2.63191H2212.54V6.91591H2215.23V9.12791H2212.54V20.6079ZM2223.37 20.9439C2219.33 20.9439 2216.56 18.0319 2216.56 13.7759C2216.56 9.49191 2219.28 6.52391 2223.25 6.52391C2227.15 6.52391 2229.69 9.21191 2229.69 13.2719V14.2519L2219.11 14.2799C2219.31 17.1639 2220.82 18.7599 2223.42 18.7599C2225.47 18.7599 2226.81 17.9199 2227.26 16.3519H2229.72C2229.05 19.2919 2226.75 20.9439 2223.37 20.9439ZM2223.25 8.73591C2220.96 8.73591 2219.5 10.1079 2219.17 12.5159H2227.06C2227.06 10.2479 2225.58 8.73591 2223.25 8.73591ZM2235.27 20.6079H2232.63V6.91591H2234.99L2235.24 8.70791C2235.94 7.41991 2237.39 6.52391 2239.33 6.52391C2241.45 6.52391 2242.97 7.58791 2243.67 9.29591C2244.31 7.58791 2245.96 6.52391 2248.09 6.52391C2251.23 6.52391 2253.13 8.48391 2253.13 11.6479V20.6079H2250.55V12.2919C2250.55 10.1359 2249.35 8.90391 2247.5 8.90391C2245.51 8.90391 2244.2 10.3039 2244.2 12.4879V20.6079H2241.59V12.2639C2241.59 10.1079 2240.42 8.93191 2238.57 8.93191C2236.58 8.93191 2235.27 10.3039 2235.27 12.4879V20.6079ZM2255.49 16.6319H2258.01C2258.01 18.0319 2259.08 18.8719 2260.81 18.8719C2262.66 18.8719 2263.73 18.1159 2263.73 16.8559C2263.73 15.9319 2263.28 15.3719 2261.85 15.0079L2259.44 14.4479C2257.01 13.8599 2255.86 12.6559 2255.86 10.6399C2255.86 8.11991 2257.99 6.52391 2261.01 6.52391C2264.01 6.52391 2265.97 8.20391 2266.02 10.8079H2263.5C2263.45 9.43591 2262.52 8.56791 2260.93 8.56791C2259.27 8.56791 2258.35 9.29591 2258.35 10.5559C2258.35 11.4799 2259.02 12.0959 2260.37 12.4319L2262.77 13.0199C2265.1 13.5799 2266.25 14.6439 2266.25 16.6879C2266.25 19.2919 2264.01 20.9439 2260.76 20.9439C2257.54 20.9439 2255.49 19.2359 2255.49 16.6319ZM2270.96 20.9439C2269.87 20.9439 2268.95 20.0479 2268.95 18.9839C2268.95 17.8919 2269.87 16.9959 2270.96 16.9959C2272.03 16.9959 2272.95 17.8919 2272.95 18.9839C2272.95 20.0479 2272.03 20.9439 2270.96 20.9439Z" fill="black"/>
</svg>
