<svg width="101" height="24" viewBox="0 0 101 24" fill="none" xmlns="http://www.w3.org/2000/svg">
<path opacity="0.4" d="M13 3.25H7C3.58 3.25 2.25 4.58 2.25 8V16C2.25 18.3 3.5 20.75 7 20.75H13C16.42 20.75 17.75 19.42 17.75 16V8C17.75 4.58 16.42 3.25 13 3.25Z" fill="#1A1A1A"/>
<path d="M11.5001 11.38C12.5384 11.38 13.3801 10.5383 13.3801 9.5C13.3801 8.4617 12.5384 7.62 11.5001 7.62C10.4618 7.62 9.62012 8.4617 9.62012 9.5C9.62012 10.5383 10.4618 11.38 11.5001 11.38Z" fill="#1A1A1A"/>
<path d="M21.65 6.16999C21.24 5.95999 20.38 5.71999 19.21 6.53999L17.73 7.57999C17.74 7.71999 17.75 7.84999 17.75 7.99999V16C17.75 16.15 17.73 16.28 17.73 16.42L19.21 17.46C19.83 17.9 20.37 18.04 20.8 18.04C21.17 18.04 21.46 17.94 21.65 17.84C22.06 17.63 22.75 17.06 22.75 15.63V8.37999C22.75 6.94999 22.06 6.37999 21.65 6.16999Z" fill="#1A1A1A"/>
<path d="M37.432 16L34.12 7.228H35.752L37.672 12.28C37.864 12.808 38.032 13.324 38.224 14.032C38.44 13.264 38.62 12.724 38.788 12.28L40.684 7.228H42.28L39.016 16H37.432ZM43.8903 8.884C43.3863 8.884 42.9903 8.488 42.9903 7.996C42.9903 7.504 43.3863 7.12 43.8903 7.12C44.3703 7.12 44.7663 7.504 44.7663 7.996C44.7663 8.488 44.3703 8.884 43.8903 8.884ZM43.1583 16V10.072H44.6223V16H43.1583ZM48.5709 16.156C46.8549 16.156 45.7869 14.896 45.7869 13.06C45.7869 11.212 46.8669 9.892 48.6549 9.892C49.4829 9.892 50.2149 10.24 50.5869 10.828V7.072H52.0389V16H50.6949L50.5989 15.076C50.2389 15.76 49.4709 16.156 48.5709 16.156ZM48.8949 14.812C49.9149 14.812 50.5749 14.08 50.5749 13.012C50.5749 11.944 49.9149 11.2 48.8949 11.2C47.8749 11.2 47.2509 11.956 47.2509 13.012C47.2509 14.068 47.8749 14.812 48.8949 14.812ZM56.2166 16.156C54.4526 16.156 53.2166 14.872 53.2166 13.036C53.2166 11.176 54.4286 9.892 56.1686 9.892C57.9446 9.892 59.0726 11.08 59.0726 12.928V13.372L54.6086 13.384C54.7166 14.428 55.2686 14.956 56.2406 14.956C57.0446 14.956 57.5726 14.644 57.7406 14.08H59.0966C58.8446 15.376 57.7646 16.156 56.2166 16.156ZM56.1806 11.092C55.3166 11.092 54.7886 11.56 54.6446 12.448H57.6206C57.6206 11.632 57.0566 11.092 56.1806 11.092ZM59.8963 13.024C59.8963 11.176 61.2283 9.904 63.0643 9.904C64.9003 9.904 66.2323 11.176 66.2323 13.024C66.2323 14.872 64.9003 16.144 63.0643 16.144C61.2283 16.144 59.8963 14.872 59.8963 13.024ZM61.3603 13.024C61.3603 14.104 62.0563 14.836 63.0643 14.836C64.0723 14.836 64.7683 14.104 64.7683 13.024C64.7683 11.944 64.0723 11.212 63.0643 11.212C62.0563 11.212 61.3603 11.944 61.3603 13.024Z" fill="black"/>
</svg>
