<svg width="121" height="24" viewBox="0 0 121 24" fill="none" xmlns="http://www.w3.org/2000/svg">
<path d="M22.0001 13.9001V16.1901C22.0001 19.8301 19.8301 22.0001 16.1901 22.0001H7.81006C5.26006 22.0001 3.42006 20.9301 2.56006 19.0301L2.67006 18.9501L7.59006 15.6501C8.39006 15.1101 9.52006 15.1701 10.2301 15.7901L10.5701 16.0701C11.3501 16.7401 12.6101 16.7401 13.3901 16.0701L17.5501 12.5001C18.3301 11.8301 19.5901 11.8301 20.3701 12.5001L22.0001 13.9001Z" fill="#1A1A1A"/>
<path opacity="0.4" d="M20.97 8H18.03C16.76 8 16 7.24 16 5.97V3.03C16 2.63 16.08 2.29 16.22 2C16.21 2 16.2 2 16.19 2H7.81C4.17 2 2 4.17 2 7.81V16.19C2 17.28 2.19 18.23 2.56 19.03L2.67 18.95L7.59 15.65C8.39 15.11 9.52 15.17 10.23 15.79L10.57 16.07C11.35 16.74 12.61 16.74 13.39 16.07L17.55 12.5C18.33 11.83 19.59 11.83 20.37 12.5L22 13.9V7.81C22 7.8 22 7.79 22 7.78C21.71 7.92 21.37 8 20.97 8Z" fill="#1A1A1A"/>
<path d="M9.00012 10.38C10.3146 10.38 11.3801 9.31443 11.3801 8C11.3801 6.68556 10.3146 5.62 9.00012 5.62C7.68568 5.62 6.62012 6.68556 6.62012 8C6.62012 9.31443 7.68568 10.38 9.00012 10.38Z" fill="#1A1A1A"/>
<path d="M20.97 1H18.03C16.76 1 16 1.76 16 3.03V5.97C16 7.24 16.76 8 18.03 8H20.97C22.24 8 23 7.24 23 5.97V3.03C23 1.76 22.24 1 20.97 1ZM21.47 5.56C21.72 5.81 21.72 6.22 21.47 6.47C21.34 6.59 21.18 6.65 21.01 6.65C20.85 6.65 20.69 6.59 20.56 6.47L19.5 5.41L18.45 6.47C18.32 6.59 18.16 6.65 17.99 6.65C17.83 6.65 17.67 6.59 17.54 6.47C17.29 6.22 17.29 5.81 17.54 5.56L18.6 4.5L17.54 3.45C17.29 3.2 17.29 2.79 17.54 2.54C17.79 2.29 18.2 2.29 18.45 2.54L19.5 3.6L20.56 2.54C20.81 2.29 21.22 2.29 21.47 2.54C21.72 2.79 21.72 3.2 21.47 3.45L20.41 4.5L21.47 5.56Z" fill="#1A1A1A"/>
<path d="M38.812 9.524C37.072 9.524 36.076 10.784 36.076 12.68C36.076 14.636 37.204 15.704 38.824 15.704C40.348 15.704 41.272 14.864 41.272 13.46V13.424H38.62V12.068H42.7V17H41.404L41.308 15.992C40.828 16.664 39.832 17.132 38.644 17.132C36.184 17.132 34.468 15.344 34.468 12.644C34.468 9.98 36.208 8.084 38.848 8.084C40.852 8.084 42.4 9.248 42.652 11.036H41.032C40.756 10.004 39.868 9.524 38.812 9.524ZM45.9067 17.156C44.6467 17.156 43.8787 16.424 43.8787 15.308C43.8787 14.216 44.6707 13.532 46.0747 13.424L47.8507 13.292V13.16C47.8507 12.356 47.3707 12.032 46.6267 12.032C45.7627 12.032 45.2827 12.392 45.2827 13.016H44.0347C44.0347 11.732 45.0907 10.892 46.6987 10.892C48.2947 10.892 49.2787 11.756 49.2787 13.4V17H47.9947L47.8867 16.124C47.6347 16.736 46.8307 17.156 45.9067 17.156ZM46.3867 16.052C47.2867 16.052 47.8627 15.512 47.8627 14.6V14.288L46.6267 14.384C45.7147 14.468 45.3667 14.768 45.3667 15.248C45.3667 15.788 45.7267 16.052 46.3867 16.052ZM52.1929 17H50.7409V8.072H52.1929V17ZM55.2047 17H53.7527V8.072H55.2047V17ZM59.3924 17.156C57.6284 17.156 56.3924 15.872 56.3924 14.036C56.3924 12.176 57.6044 10.892 59.3444 10.892C61.1204 10.892 62.2484 12.08 62.2484 13.928V14.372L57.7844 14.384C57.8924 15.428 58.4444 15.956 59.4164 15.956C60.2204 15.956 60.7484 15.644 60.9164 15.08H62.2724C62.0204 16.376 60.9404 17.156 59.3924 17.156ZM59.3564 12.092C58.4924 12.092 57.9644 12.56 57.8204 13.448H60.7964C60.7964 12.632 60.2324 12.092 59.3564 12.092ZM67.1401 11.048V12.404H66.6001C65.5441 12.404 64.8841 12.968 64.8841 14.12V17H63.4201V11.084H64.8001L64.8841 11.948C65.1361 11.36 65.7001 10.964 66.4921 10.964C66.6961 10.964 66.9001 10.988 67.1401 11.048ZM67.7908 19.748V18.524H68.6668C69.2428 18.524 69.6028 18.392 69.8548 17.696L70.0228 17.252L67.6348 11.072H69.1828L70.7068 15.392L72.3148 11.072H73.8268L70.9228 18.32C70.4788 19.424 69.8548 19.88 68.8828 19.88C68.4748 19.88 68.1148 19.832 67.7908 19.748ZM74.2362 14.444V13.148H78.1002V14.444H74.2362ZM83.3119 11.048V12.404H82.7719C81.7159 12.404 81.0559 12.968 81.0559 14.12V17H79.5919V11.084H80.9719L81.0559 11.948C81.3079 11.36 81.8719 10.964 82.6639 10.964C82.8679 10.964 83.0719 10.988 83.3119 11.048ZM86.7557 17.156C84.9917 17.156 83.7557 15.872 83.7557 14.036C83.7557 12.176 84.9677 10.892 86.7077 10.892C88.4837 10.892 89.6117 12.08 89.6117 13.928V14.372L85.1477 14.384C85.2557 15.428 85.8077 15.956 86.7797 15.956C87.5837 15.956 88.1117 15.644 88.2797 15.08H89.6357C89.3837 16.376 88.3037 17.156 86.7557 17.156ZM86.7197 12.092C85.8557 12.092 85.3277 12.56 85.1837 13.448H88.1597C88.1597 12.632 87.5957 12.092 86.7197 12.092ZM92.2473 17H90.7833V11.072H92.1273L92.2473 11.768C92.5473 11.276 93.1473 10.892 93.9993 10.892C94.8993 10.892 95.5233 11.336 95.8353 12.02C96.1353 11.336 96.8313 10.892 97.7313 10.892C99.1713 10.892 99.9633 11.756 99.9633 13.124V17H98.5113V13.508C98.5113 12.656 98.0553 12.212 97.3593 12.212C96.6513 12.212 96.1113 12.668 96.1113 13.64V17H94.6473V13.496C94.6473 12.668 94.2033 12.224 93.5073 12.224C92.8113 12.224 92.2473 12.68 92.2473 13.64V17ZM101.053 14.024C101.053 12.176 102.385 10.904 104.221 10.904C106.057 10.904 107.389 12.176 107.389 14.024C107.389 15.872 106.057 17.144 104.221 17.144C102.385 17.144 101.053 15.872 101.053 14.024ZM102.517 14.024C102.517 15.104 103.213 15.836 104.221 15.836C105.229 15.836 105.925 15.104 105.925 14.024C105.925 12.944 105.229 12.212 104.221 12.212C103.213 12.212 102.517 12.944 102.517 14.024ZM109.936 17L107.584 11.072H109.144L110.176 13.796C110.428 14.504 110.632 15.116 110.704 15.44C110.788 15.068 111.004 14.444 111.256 13.796L112.336 11.072H113.848L111.376 17H109.936ZM117.049 17.156C115.285 17.156 114.049 15.872 114.049 14.036C114.049 12.176 115.261 10.892 117.001 10.892C118.777 10.892 119.905 12.08 119.905 13.928V14.372L115.441 14.384C115.549 15.428 116.101 15.956 117.073 15.956C117.877 15.956 118.405 15.644 118.573 15.08H119.929C119.677 16.376 118.597 17.156 117.049 17.156ZM117.013 12.092C116.149 12.092 115.621 12.56 115.477 13.448H118.453C118.453 12.632 117.889 12.092 117.013 12.092Z" fill="black"/>
</svg>
