<svg width="112" height="24" viewBox="0 0 112 24" fill="none" xmlns="http://www.w3.org/2000/svg">
<path d="M19.3299 16.75C19.1699 16.75 19.0199 16.7 18.8799 16.6C18.5499 16.35 18.4799 15.88 18.7299 15.55C20.2999 13.46 20.2999 10.54 18.7299 8.45003C18.4799 8.12003 18.5499 7.65003 18.8799 7.40003C19.2099 7.15003 19.6799 7.22003 19.9299 7.55003C21.8999 10.17 21.8999 13.83 19.9299 16.45C19.7899 16.65 19.5599 16.75 19.3299 16.75Z" fill="#1A1A1A"/>
<path opacity="0.4" d="M17.0801 7.41003V16.59C17.0801 18.31 16.4601 19.6 15.3501 20.22C14.9001 20.47 14.4001 20.59 13.8801 20.59C13.0801 20.59 12.2201 20.32 11.3401 19.77L8.42008 17.94C8.22008 17.82 7.99008 17.75 7.76008 17.75H6.83008V6.25003H7.76008C7.99008 6.25003 8.22008 6.18003 8.42008 6.06003L11.3401 4.23003C12.8001 3.32003 14.2301 3.16003 15.3501 3.78003C16.4601 4.40003 17.0801 5.69003 17.0801 7.41003Z" fill="#1A1A1A"/>
<path d="M6.83008 6.25V17.75H6.33008C3.91008 17.75 2.58008 16.42 2.58008 14V10C2.58008 7.58 3.91008 6.25 6.33008 6.25H6.83008Z" fill="#1A1A1A"/>
<path d="M37.432 17L34.12 8.228H35.752L37.672 13.28C37.864 13.808 38.032 14.324 38.224 15.032C38.44 14.264 38.62 13.724 38.788 13.28L40.684 8.228H42.28L39.016 17H37.432ZM41.8025 14.024C41.8025 12.176 43.1345 10.904 44.9705 10.904C46.8065 10.904 48.1385 12.176 48.1385 14.024C48.1385 15.872 46.8065 17.144 44.9705 17.144C43.1345 17.144 41.8025 15.872 41.8025 14.024ZM43.2665 14.024C43.2665 15.104 43.9625 15.836 44.9705 15.836C45.9785 15.836 46.6745 15.104 46.6745 14.024C46.6745 12.944 45.9785 12.212 44.9705 12.212C43.9625 12.212 43.2665 12.944 43.2665 14.024ZM50.775 17H49.323V8.072H50.775V17ZM56.3307 11.072H57.7947V17H56.4387L56.3307 16.208C55.9707 16.772 55.2027 17.156 54.4107 17.156C53.0427 17.156 52.2387 16.232 52.2387 14.78V11.072H53.7027V14.264C53.7027 15.392 54.1467 15.848 54.9627 15.848C55.8867 15.848 56.3307 15.308 56.3307 14.18V11.072ZM60.7708 17H59.3068V11.072H60.6508L60.7708 11.768C61.0708 11.276 61.6708 10.892 62.5228 10.892C63.4228 10.892 64.0468 11.336 64.3588 12.02C64.6588 11.336 65.3548 10.892 66.2548 10.892C67.6948 10.892 68.4868 11.756 68.4868 13.124V17H67.0348V13.508C67.0348 12.656 66.5788 12.212 65.8828 12.212C65.1748 12.212 64.6348 12.668 64.6348 13.64V17H63.1708V13.496C63.1708 12.668 62.7268 12.224 62.0308 12.224C61.3348 12.224 60.7708 12.68 60.7708 13.64V17ZM72.576 17.156C70.812 17.156 69.576 15.872 69.576 14.036C69.576 12.176 70.788 10.892 72.528 10.892C74.304 10.892 75.432 12.08 75.432 13.928V14.372L70.968 14.384C71.076 15.428 71.628 15.956 72.6 15.956C73.404 15.956 73.932 15.644 74.1 15.08H75.456C75.204 16.376 74.124 17.156 72.576 17.156ZM72.54 12.092C71.676 12.092 71.148 12.56 71.004 13.448H73.98C73.98 12.632 73.416 12.092 72.54 12.092ZM76.5917 14.444V13.148H80.4557V14.444H76.5917ZM83.4234 17H81.9714V8.072H83.4234V17ZM84.6111 14.024C84.6111 12.176 85.9431 10.904 87.7791 10.904C89.6151 10.904 90.9471 12.176 90.9471 14.024C90.9471 15.872 89.6151 17.144 87.7791 17.144C85.9431 17.144 84.6111 15.872 84.6111 14.024ZM86.0751 14.024C86.0751 15.104 86.7711 15.836 87.7791 15.836C88.7871 15.836 89.4831 15.104 89.4831 14.024C89.4831 12.944 88.7871 12.212 87.7791 12.212C86.7711 12.212 86.0751 12.944 86.0751 14.024ZM93.1226 17L91.2026 11.072H92.7266L93.5066 13.616C93.6386 14.084 93.7586 14.6 93.8666 15.152C93.9746 14.576 94.0826 14.204 94.2746 13.616L95.0906 11.072H96.5786L97.3706 13.616C97.4426 13.856 97.6826 14.744 97.7546 15.14C97.8506 14.696 98.0426 13.988 98.1506 13.616L98.9426 11.072H100.491L98.4386 17H97.0706L96.2546 14.432C96.0146 13.652 95.8826 13.088 95.8346 12.788C95.7746 13.064 95.6666 13.484 95.3666 14.456L94.5506 17H93.1226ZM100.955 14.444V13.148H104.819V14.444H100.955ZM111.417 16.988L105.333 17V15.848L108.201 13.424C109.389 12.416 109.785 11.84 109.785 11C109.785 10.004 109.245 9.44 108.321 9.44C107.361 9.44 106.761 10.112 106.749 11.24H105.225C105.237 9.32 106.461 8.072 108.321 8.072C110.193 8.072 111.357 9.14 111.357 10.916C111.357 12.14 110.685 13.064 109.353 14.204L107.769 15.56H111.417V16.988Z" fill="black"/>
</svg>
