<svg width="150" height="24" viewBox="0 0 150 24" fill="none" xmlns="http://www.w3.org/2000/svg">
<path opacity="0.6" d="M19 7.16003V15.97C19 16.4 18.86 16.81 18.62 17.15L18.16 16.91L10 12L18.54 7.26003L18.99 7.03003C19 7.07003 19 7.12003 19 7.16003Z" fill="#1A1A1A"/>
<path d="M18.99 7.02995L18.54 7.25995L10 11.9999L12 2.99995L12.14 2.31995C12.43 2.33995 12.72 2.41995 12.99 2.56995L17.99 5.41995C18.58 5.75995 18.95 6.35995 18.99 7.02995Z" fill="#1A1A1A"/>
<path opacity="0.4" d="M12 2.99997L10 12L11.85 21.23L11.9 21.53C11.52 21.52 11.15 21.4 10.84 21.17L5.84003 17.6C5.31003 17.22 5 16.62 5 15.97V7.15997C5 6.43997 5.38001 5.77997 6.01001 5.41997L11.01 2.56997C11.36 2.36997 11.75 2.27997 12.14 2.31997L12 2.99997Z" fill="#1A1A1A"/>
<path d="M18.62 17.15C18.49 17.32 18.34 17.47 18.16 17.6L13.16 21.17C12.79 21.44 12.34 21.56 11.9 21.53L11.85 21.23L10 12L18.16 16.91L18.62 17.15Z" fill="#1A1A1A"/>
<path d="M36.508 8.228V12.836L40.06 8.228H41.872L38.968 11.972L41.908 17H40.132L37.96 13.268L36.508 15.128V17H34.972V8.228H36.508ZM41.7634 19.748V18.524H42.6394C43.2154 18.524 43.5754 18.392 43.8274 17.696L43.9954 17.252L41.6074 11.072H43.1554L44.6794 15.392L46.2874 11.072H47.7994L44.8954 18.32C44.4514 19.424 43.8274 19.88 42.8554 19.88C42.4474 19.88 42.0874 19.832 41.7634 19.748ZM49.987 17H48.631V8.072H50.095V11.936C50.479 11.276 51.271 10.88 52.171 10.88C53.863 10.88 54.895 12.2 54.895 14.072C54.895 15.896 53.779 17.156 52.075 17.156C51.187 17.156 50.431 16.76 50.083 16.076L49.987 17ZM50.107 14.012C50.107 15.08 50.767 15.812 51.775 15.812C52.807 15.812 53.419 15.068 53.419 14.012C53.419 12.956 52.807 12.2 51.775 12.2C50.767 12.2 50.107 12.944 50.107 14.012ZM58.7127 17.156C56.9487 17.156 55.7127 15.872 55.7127 14.036C55.7127 12.176 56.9247 10.892 58.6647 10.892C60.4407 10.892 61.5687 12.08 61.5687 13.928V14.372L57.1047 14.384C57.2127 15.428 57.7647 15.956 58.7367 15.956C59.5407 15.956 60.0687 15.644 60.2367 15.08H61.5927C61.3407 16.376 60.2607 17.156 58.7127 17.156ZM58.6767 12.092C57.8127 12.092 57.2847 12.56 57.1407 13.448H60.1167C60.1167 12.632 59.5527 12.092 58.6767 12.092ZM66.4604 11.048V12.404H65.9204C64.8644 12.404 64.2044 12.968 64.2044 14.12V17H62.7404V11.084H64.1204L64.2044 11.948C64.4564 11.36 65.0204 10.964 65.8124 10.964C66.0164 10.964 66.2204 10.988 66.4604 11.048ZM67.0057 14.444V13.148H70.8697V14.444H67.0057ZM73.8255 17H72.3615V11.072H73.7175L73.8375 11.84C74.2095 11.24 74.9295 10.892 75.7335 10.892C77.2215 10.892 77.9895 11.816 77.9895 13.352V17H76.5255V13.7C76.5255 12.704 76.0335 12.224 75.2775 12.224C74.3775 12.224 73.8255 12.848 73.8255 13.808V17ZM82.0799 17.156C80.3159 17.156 79.0799 15.872 79.0799 14.036C79.0799 12.176 80.2919 10.892 82.0319 10.892C83.8079 10.892 84.9359 12.08 84.9359 13.928V14.372L80.4719 14.384C80.5799 15.428 81.1319 15.956 82.1039 15.956C82.9079 15.956 83.4359 15.644 83.6039 15.08H84.9599C84.7079 16.376 83.6279 17.156 82.0799 17.156ZM82.0439 12.092C81.1799 12.092 80.6519 12.56 80.5079 13.448H83.4839C83.4839 12.632 82.9199 12.092 82.0439 12.092ZM88.065 17H86.601V12.296H85.461V11.072H86.601V9.224H88.065V11.072H89.217V12.296H88.065V17ZM91.4351 17L89.5151 11.072H91.0391L91.8191 13.616C91.9511 14.084 92.0711 14.6 92.1791 15.152C92.2871 14.576 92.3951 14.204 92.5871 13.616L93.4031 11.072H94.8911L95.6831 13.616C95.7551 13.856 95.9951 14.744 96.0671 15.14C96.1631 14.696 96.3551 13.988 96.4631 13.616L97.2551 11.072H98.8031L96.7511 17H95.3831L94.5671 14.432C94.3271 13.652 94.1951 13.088 94.1471 12.788C94.0871 13.064 93.9791 13.484 93.6791 14.456L92.8631 17H91.4351ZM99.0486 14.024C99.0486 12.176 100.381 10.904 102.217 10.904C104.053 10.904 105.385 12.176 105.385 14.024C105.385 15.872 104.053 17.144 102.217 17.144C100.381 17.144 99.0486 15.872 99.0486 14.024ZM100.513 14.024C100.513 15.104 101.209 15.836 102.217 15.836C103.225 15.836 103.921 15.104 103.921 14.024C103.921 12.944 103.225 12.212 102.217 12.212C101.209 12.212 100.513 12.944 100.513 14.024ZM110.265 11.048V12.404H109.725C108.669 12.404 108.009 12.968 108.009 14.12V17H106.545V11.084H107.925L108.009 11.948C108.261 11.36 108.825 10.964 109.617 10.964C109.821 10.964 110.025 10.988 110.265 11.048ZM112.732 17H111.28V8.072H112.732V13.556L115.036 11.072H116.872L114.616 13.424L116.824 17H115.144L113.596 14.504L112.732 15.404V17ZM116.928 14.444V13.148H120.792V14.444H116.928ZM125.223 19.292H124.059C122.859 17.924 122.067 15.776 122.067 13.472C122.067 11.372 122.739 9.164 124.059 7.664H125.223C124.227 9.02 123.543 11.144 123.543 13.472C123.543 15.596 124.131 17.804 125.223 19.292ZM127.451 17H125.999V8.072H127.451V13.556L129.755 11.072H131.591L129.335 13.424L131.543 17H129.863L128.315 14.504L127.451 15.404V17ZM133.896 17H132.432V11.072H133.788L133.908 11.84C134.28 11.24 135 10.892 135.804 10.892C137.292 10.892 138.06 11.816 138.06 13.352V17H136.596V13.7C136.596 12.704 136.104 12.224 135.348 12.224C134.448 12.224 133.896 12.848 133.896 13.808V17ZM139.15 14.024C139.15 12.188 140.362 10.892 142.114 10.892C143.734 10.892 144.838 11.792 144.994 13.22H143.53C143.362 12.548 142.87 12.2 142.174 12.2C141.238 12.2 140.614 12.908 140.614 14.024C140.614 15.14 141.19 15.836 142.126 15.836C142.858 15.836 143.374 15.476 143.53 14.828H145.006C144.826 16.208 143.674 17.156 142.126 17.156C140.326 17.156 139.15 15.908 139.15 14.024ZM146.504 19.292H145.34C146.444 17.804 147.02 15.596 147.02 13.472C147.02 11.144 146.336 9.02 145.34 7.664H146.504C147.824 9.164 148.508 11.372 148.508 13.472C148.508 15.776 147.704 17.924 146.504 19.292Z" fill="black"/>
</svg>
