<svg width="122" height="24" viewBox="0 0 122 24" fill="none" xmlns="http://www.w3.org/2000/svg">
<path opacity="0.4" d="M18.5 10V12.17C18.5 12.7 18.71 13.21 19.09 13.59L19.91 14.41C20.29 14.79 20.5 15.3 20.5 15.83V17C20.5 19.85 19.12 21.8 16.01 21.98L15.99 18.99C15.98 17.89 15.09 17 13.99 17H9.98C8.87 17 7.98 17.9 7.98 19L7.99 21.98C4.83 21.8 3.5 19.85 3.5 17V7C3.5 4 4.97 2 8.5 2H15.5C18.97 2 20.5 4 20.5 7V8C20.5 8.55 20.05 9 19.5 9C18.95 9 18.5 9.45 18.5 10Z" fill="#1A1A1A"/>
<path d="M16.0105 21.98C15.8505 21.99 15.6805 22 15.5005 22H8.50047C8.32047 22 8.15047 22 7.99047 21.98L7.98047 19C7.98047 17.9 8.87047 17 9.98047 17H13.9905C15.0905 17 15.9805 17.89 15.9905 18.99L16.0105 21.98Z" fill="#1A1A1A"/>
<path d="M13.9688 8.53003H7.96875C7.55875 8.53003 7.21875 8.19003 7.21875 7.78003C7.21875 7.37003 7.55875 7.03003 7.96875 7.03003H13.9688C14.3788 7.03003 14.7188 7.37003 14.7188 7.78003C14.7188 8.19003 14.3888 8.53003 13.9688 8.53003Z" fill="#1A1A1A"/>
<path d="M36.508 16H34.972V7.228H38.32C40.312 7.228 41.476 8.236 41.476 9.964C41.476 11.14 40.924 11.98 39.892 12.4L41.56 16H39.88L38.392 12.724H36.508V16ZM36.508 8.596V11.368H38.32C39.292 11.368 39.868 10.852 39.868 9.964C39.868 9.088 39.292 8.596 38.32 8.596H36.508ZM44.3247 16.156C43.0647 16.156 42.2967 15.424 42.2967 14.308C42.2967 13.216 43.0887 12.532 44.4927 12.424L46.2687 12.292V12.16C46.2687 11.356 45.7887 11.032 45.0447 11.032C44.1807 11.032 43.7007 11.392 43.7007 12.016H42.4527C42.4527 10.732 43.5087 9.892 45.1167 9.892C46.7127 9.892 47.6967 10.756 47.6967 12.4V16H46.4127L46.3047 15.124C46.0527 15.736 45.2487 16.156 44.3247 16.156ZM44.8047 15.052C45.7047 15.052 46.2807 14.512 46.2807 13.6V13.288L45.0447 13.384C44.1327 13.468 43.7847 13.768 43.7847 14.248C43.7847 14.788 44.1447 15.052 44.8047 15.052ZM50.5989 16H49.1349V10.072H50.4789L50.5989 10.768C50.8989 10.276 51.4989 9.892 52.3509 9.892C53.2509 9.892 53.8749 10.336 54.1869 11.02C54.4869 10.336 55.1829 9.892 56.0829 9.892C57.5229 9.892 58.3149 10.756 58.3149 12.124V16H56.8629V12.508C56.8629 11.656 56.4069 11.212 55.7109 11.212C55.0029 11.212 54.4629 11.668 54.4629 12.64V16H52.9989V12.496C52.9989 11.668 52.5549 11.224 51.8589 11.224C51.1629 11.224 50.5989 11.68 50.5989 12.64V16Z" fill="black"/>
</svg>
