<svg width="109" height="24" viewBox="0 0 109 24" fill="none" xmlns="http://www.w3.org/2000/svg">
<path d="M5 14C2.79 14 1 15.79 1 18C1 20.21 2.79 22 5 22C7.21 22 9 20.21 9 18C9 15.79 7.21 14 5 14ZM6 17.68C6 18.29 5.67002 18.87 5.15002 19.18L4.39001 19.64C4.27001 19.71 4.14001 19.75 4.01001 19.75C3.76001 19.75 3.51 19.62 3.37 19.39C3.16 19.04 3.27 18.57 3.63 18.36L4.39001 17.9C4.46001 17.86 4.51001 17.77 4.51001 17.69V16.76C4.51001 16.35 4.85001 16.01 5.26001 16.01C5.67001 16.01 6.01001 16.35 6.01001 16.76V17.68H6Z" fill="#1A1A1A"/>
<path opacity="0.4" d="M22 9V15C22 18.5 20 20 17 20H8.45001C8.80001 19.41 9 18.73 9 18C9 15.79 7.21 14 5 14C3.8 14 2.73 14.53 2 15.36V9C2 5.5 4 4 7 4H17C20 4 22 5.5 22 9Z" fill="#1A1A1A"/>
<path d="M12 14.5C13.3807 14.5 14.5 13.3807 14.5 12C14.5 10.6193 13.3807 9.5 12 9.5C10.6193 9.5 9.5 10.6193 9.5 12C9.5 13.3807 10.6193 14.5 12 14.5Z" fill="#1A1A1A"/>
<path d="M18.5 14.75C18.09 14.75 17.75 14.41 17.75 14V10C17.75 9.59 18.09 9.25 18.5 9.25C18.91 9.25 19.25 9.59 19.25 10V14C19.25 14.41 18.91 14.75 18.5 14.75Z" fill="#1A1A1A"/>
<path d="M36.46 16H34.972V7.228H36.46L39.292 14.212L42.124 7.228H43.636V16H42.148V13.3C42.148 11.536 42.148 11.02 42.232 10.396L40 16H38.584L36.364 10.408C36.448 10.936 36.46 11.764 36.46 12.856V16ZM45.0135 13.024C45.0135 11.176 46.3455 9.904 48.1815 9.904C50.0175 9.904 51.3495 11.176 51.3495 13.024C51.3495 14.872 50.0175 16.144 48.1815 16.144C46.3455 16.144 45.0135 14.872 45.0135 13.024ZM46.4775 13.024C46.4775 14.104 47.1735 14.836 48.1815 14.836C49.1895 14.836 49.8855 14.104 49.8855 13.024C49.8855 11.944 49.1895 11.212 48.1815 11.212C47.1735 11.212 46.4775 11.944 46.4775 13.024ZM53.9739 16H52.5099V10.072H53.8659L53.9859 10.84C54.3579 10.24 55.0779 9.892 55.8819 9.892C57.3699 9.892 58.1379 10.816 58.1379 12.352V16H56.6739V12.7C56.6739 11.704 56.1819 11.224 55.4259 11.224C54.5259 11.224 53.9739 11.848 53.9739 12.808V16ZM62.2283 16.156C60.4643 16.156 59.2283 14.872 59.2283 13.036C59.2283 11.176 60.4403 9.892 62.1803 9.892C63.9563 9.892 65.0843 11.08 65.0843 12.928V13.372L60.6203 13.384C60.7283 14.428 61.2803 14.956 62.2523 14.956C63.0563 14.956 63.5843 14.644 63.7523 14.08H65.1083C64.8563 15.376 63.7763 16.156 62.2283 16.156ZM62.1923 11.092C61.3283 11.092 60.8003 11.56 60.6563 12.448H63.6323C63.6323 11.632 63.0683 11.092 62.1923 11.092ZM65.5408 18.748V17.524H66.4168C66.9928 17.524 67.3528 17.392 67.6048 16.696L67.7728 16.252L65.3848 10.072H66.9328L68.4568 14.392L70.0648 10.072H71.5768L68.6728 17.32C68.2288 18.424 67.6048 18.88 66.6328 18.88C66.2248 18.88 65.8648 18.832 65.5408 18.748ZM71.9862 13.444V12.148H75.8502V13.444H71.9862ZM79.1236 16H77.6596V11.296H76.5196V10.072H77.6596V8.224H79.1236V10.072H80.2756V11.296H79.1236V16ZM81.9177 8.884C81.4137 8.884 81.0177 8.488 81.0177 7.996C81.0177 7.504 81.4137 7.12 81.9177 7.12C82.3977 7.12 82.7937 7.504 82.7937 7.996C82.7937 8.488 82.3977 8.884 81.9177 8.884ZM81.1857 16V10.072H82.6497V16H81.1857ZM85.6263 16H84.1623V10.072H85.5063L85.6263 10.768C85.9263 10.276 86.5263 9.892 87.3783 9.892C88.2783 9.892 88.9023 10.336 89.2143 11.02C89.5143 10.336 90.2103 9.892 91.1103 9.892C92.5503 9.892 93.3423 10.756 93.3423 12.124V16H91.8903V12.508C91.8903 11.656 91.4343 11.212 90.7383 11.212C90.0303 11.212 89.4903 11.668 89.4903 12.64V16H88.0263V12.496C88.0263 11.668 87.5823 11.224 86.8863 11.224C86.1903 11.224 85.6263 11.68 85.6263 12.64V16ZM97.4314 16.156C95.6674 16.156 94.4314 14.872 94.4314 13.036C94.4314 11.176 95.6434 9.892 97.3834 9.892C99.1594 9.892 100.287 11.08 100.287 12.928V13.372L95.8234 13.384C95.9314 14.428 96.4834 14.956 97.4554 14.956C98.2594 14.956 98.7874 14.644 98.9554 14.08H100.311C100.059 15.376 98.9794 16.156 97.4314 16.156ZM97.3954 11.092C96.5314 11.092 96.0034 11.56 95.8594 12.448H98.8354C98.8354 11.632 98.2714 11.092 97.3954 11.092Z" fill="black"/>
</svg>
