<svg width="101" height="24" viewBox="0 0 101 24" fill="none" xmlns="http://www.w3.org/2000/svg">
<path d="M10.6 4.15002V6H9.12C7.50999 6 6.70001 6.80998 6.70001 8.41998V18H4.15002C2.72002 18 2 17.28 2 15.85V4.15002C2 2.72002 2.72002 2 4.15002 2H8.45001C9.88001 2 10.6 2.72002 10.6 4.15002Z" fill="#1A1A1A"/>
<path opacity="0.4" d="M17.3702 8.41998V19.58C17.3702 21.19 16.5702 22 14.9602 22H9.12018C7.51018 22 6.7002 21.19 6.7002 19.58V8.41998C6.7002 6.80998 7.51018 6 9.12018 6H14.9602C16.5702 6 17.3702 6.80998 17.3702 8.41998Z" fill="#1A1A1A"/>
<path d="M22.0004 4.15002V15.85C22.0004 17.28 21.2803 18 19.8503 18H17.3704V8.41998C17.3704 6.80998 16.5704 6 14.9604 6H13.4004V4.15002C13.4004 2.72002 14.1204 2 15.5504 2H19.8503C21.2803 2 22.0004 2.72002 22.0004 4.15002Z" fill="#1A1A1A"/>
<path d="M14 11.75H10C9.59 11.75 9.25 11.41 9.25 11C9.25 10.59 9.59 10.25 10 10.25H14C14.41 10.25 14.75 10.59 14.75 11C14.75 11.41 14.41 11.75 14 11.75Z" fill="#1A1A1A"/>
<path d="M14 14.75H10C9.59 14.75 9.25 14.41 9.25 14C9.25 13.59 9.59 13.25 10 13.25H14C14.41 13.25 14.75 13.59 14.75 14C14.75 14.41 14.41 14.75 14 14.75Z" fill="#1A1A1A"/>
<path d="M12.75 19V22H11.25V19C11.25 18.59 11.59 18.25 12 18.25C12.41 18.25 12.75 18.59 12.75 19Z" fill="#1A1A1A"/>
<path d="M34.972 16V7.228H38.464C40.192 7.228 41.248 8.128 41.248 9.592C41.248 10.564 40.816 11.26 39.988 11.608C40.912 11.908 41.38 12.604 41.38 13.624C41.38 15.124 40.336 16 38.524 16H34.972ZM38.332 8.584H36.508V10.972H38.368C39.208 10.972 39.676 10.528 39.676 9.748C39.676 8.992 39.196 8.584 38.332 8.584ZM38.464 12.268H36.508V14.644H38.464C39.328 14.644 39.808 14.224 39.808 13.432C39.808 12.688 39.316 12.268 38.464 12.268ZM46.5924 10.072H48.0564V16H46.7004L46.5924 15.208C46.2324 15.772 45.4644 16.156 44.6724 16.156C43.3044 16.156 42.5004 15.232 42.5004 13.78V10.072H43.9644V13.264C43.9644 14.392 44.4084 14.848 45.2244 14.848C46.1484 14.848 46.5924 14.308 46.5924 13.18V10.072ZM50.3005 8.884C49.7965 8.884 49.4005 8.488 49.4005 7.996C49.4005 7.504 49.7965 7.12 50.3005 7.12C50.7805 7.12 51.1765 7.504 51.1765 7.996C51.1765 8.488 50.7805 8.884 50.3005 8.884ZM49.5685 16V10.072H51.0325V16H49.5685ZM54.0211 16H52.5691V7.072H54.0211V16ZM57.9928 16.156C56.2768 16.156 55.2088 14.896 55.2088 13.06C55.2088 11.212 56.2888 9.892 58.0768 9.892C58.9048 9.892 59.6368 10.24 60.0088 10.828V7.072H61.4608V16H60.1168L60.0208 15.076C59.6608 15.76 58.8928 16.156 57.9928 16.156ZM58.3168 14.812C59.3368 14.812 59.9968 14.08 59.9968 13.012C59.9968 11.944 59.3368 11.2 58.3168 11.2C57.2968 11.2 56.6728 11.956 56.6728 13.012C56.6728 14.068 57.2968 14.812 58.3168 14.812ZM63.7185 8.884C63.2145 8.884 62.8185 8.488 62.8185 7.996C62.8185 7.504 63.2145 7.12 63.7185 7.12C64.1985 7.12 64.5945 7.504 64.5945 7.996C64.5945 8.488 64.1985 8.884 63.7185 8.884ZM62.9865 16V10.072H64.4505V16H62.9865ZM67.427 16H65.963V10.072H67.319L67.439 10.84C67.811 10.24 68.531 9.892 69.335 9.892C70.823 9.892 71.591 10.816 71.591 12.352V16H70.127V12.7C70.127 11.704 69.635 11.224 68.879 11.224C67.979 11.224 67.427 11.848 67.427 12.808V16ZM72.6934 12.904C72.6934 11.176 73.8214 9.88 75.5134 9.88C76.4014 9.88 77.0974 10.252 77.4454 10.888L77.5294 10.072H78.8854V15.7C78.8854 17.68 77.6974 18.916 75.7774 18.916C74.0734 18.916 72.9094 17.944 72.7294 16.36H74.1934C74.2894 17.128 74.8774 17.584 75.7774 17.584C76.7854 17.584 77.4334 16.948 77.4334 15.964V14.98C77.0614 15.532 76.3294 15.88 75.4774 15.88C73.7974 15.88 72.6934 14.62 72.6934 12.904ZM74.1694 12.868C74.1694 13.864 74.8054 14.608 75.7654 14.608C76.7734 14.608 77.3974 13.9 77.3974 12.868C77.3974 11.86 76.7854 11.164 75.7654 11.164C74.7934 11.164 74.1694 11.896 74.1694 12.868ZM79.9445 14.2H81.3365C81.3485 14.716 81.7325 15.04 82.4045 15.04C83.0885 15.04 83.4605 14.764 83.4605 14.332C83.4605 14.032 83.3045 13.816 82.7765 13.696L81.7085 13.444C80.6405 13.204 80.1245 12.7 80.1245 11.752C80.1245 10.588 81.1085 9.892 82.4765 9.892C83.8085 9.892 84.7085 10.66 84.7205 11.812H83.3285C83.3165 11.308 82.9805 10.984 82.4165 10.984C81.8405 10.984 81.5045 11.248 81.5045 11.692C81.5045 12.028 81.7685 12.244 82.2725 12.364L83.3405 12.616C84.3365 12.844 84.8405 13.3 84.8405 14.212C84.8405 15.412 83.8205 16.156 82.3565 16.156C80.8805 16.156 79.9445 15.364 79.9445 14.2ZM85.7909 13.444V12.148H89.6549V13.444H85.7909ZM96.2532 15.988L90.1692 16V14.848L93.0372 12.424C94.2252 11.416 94.6212 10.84 94.6212 10C94.6212 9.004 94.0812 8.44 93.1572 8.44C92.1972 8.44 91.5972 9.112 91.5852 10.24H90.0612C90.0732 8.32 91.2972 7.072 93.1572 7.072C95.0292 7.072 96.1932 8.14 96.1932 9.916C96.1932 11.14 95.5212 12.064 94.1892 13.204L92.6052 14.56H96.2532V15.988Z" fill="black"/>
</svg>
