<svg width="112" height="24" viewBox="0 0 112 24" fill="none" xmlns="http://www.w3.org/2000/svg">
<path opacity="0.8" d="M12.9002 2.51997L12.8702 2.58997L9.9702 9.31997H7.1202C6.4402 9.31997 5.8002 9.44997 5.2002 9.70997L6.9502 5.52997L6.9902 5.43997L7.0502 5.27997C7.0802 5.20997 7.1002 5.14997 7.1302 5.09997C8.4402 2.06997 9.9202 1.37997 12.9002 2.51997Z" fill="#1A1A1A"/>
<path d="M18.2897 9.52002C17.8397 9.39002 17.3697 9.32002 16.8797 9.32002H9.96973L12.8697 2.59002L12.8997 2.52002C13.0397 2.57002 13.1897 2.64002 13.3397 2.69002L15.5497 3.62002C16.7797 4.13002 17.6397 4.66002 18.1697 5.30002C18.2597 5.42002 18.3397 5.53002 18.4197 5.66002C18.5097 5.80002 18.5797 5.94002 18.6197 6.09002C18.6597 6.18002 18.6897 6.26002 18.7097 6.35002C18.9697 7.20002 18.8097 8.23002 18.2897 9.52002Z" fill="#1A1A1A"/>
<path opacity="0.4" d="M21.7602 14.1999V16.1499C21.7602 16.3499 21.7502 16.5499 21.7402 16.7399C21.5502 20.2399 19.6002 21.9999 15.9002 21.9999H8.10023C7.85023 21.9999 7.62023 21.9799 7.39023 21.9499C4.21023 21.7399 2.51023 20.0399 2.29023 16.8599C2.26023 16.6199 2.24023 16.3899 2.24023 16.1499V14.1999C2.24023 12.1899 3.46023 10.4599 5.20023 9.70995C5.80023 9.44995 6.44023 9.31995 7.12023 9.31995H16.8802C17.3702 9.31995 17.8402 9.38995 18.2902 9.51995C20.2902 10.1299 21.7602 11.9899 21.7602 14.1999Z" fill="#1A1A1A"/>
<path opacity="0.6" d="M6.95023 5.53003L5.20023 9.71003C3.46023 10.46 2.24023 12.19 2.24023 14.2V11.27C2.24023 8.43003 4.26023 6.06003 6.95023 5.53003Z" fill="#1A1A1A"/>
<path opacity="0.6" d="M21.76 11.27V14.2C21.76 11.99 20.29 10.13 18.29 9.51997C18.81 8.22997 18.97 7.19997 18.71 6.34997C18.69 6.25997 18.66 6.17997 18.62 6.08997C20.49 7.05997 21.76 9.02997 21.76 11.27Z" fill="#1A1A1A"/>
<path d="M14.5 16.75H9.5C9.09 16.75 8.75 16.41 8.75 16C8.75 15.59 9.09 15.25 9.5 15.25H14.5C14.91 15.25 15.25 15.59 15.25 16C15.25 16.41 14.91 16.75 14.5 16.75Z" fill="#1A1A1A"/>
<path d="M36.796 17L34.18 8.228H35.776L37.168 12.86C37.3 13.34 37.432 13.832 37.564 14.6C37.708 13.82 37.84 13.364 37.996 12.86L39.376 8.228H41.068L42.424 12.86C42.568 13.352 42.7 13.856 42.844 14.6C43.012 13.784 43.132 13.316 43.264 12.872L44.68 8.228H46.24L43.576 17H42.088L40.216 10.616L38.308 17H36.796ZM48.0513 17.156C46.7913 17.156 46.0233 16.424 46.0233 15.308C46.0233 14.216 46.8153 13.532 48.2193 13.424L49.9953 13.292V13.16C49.9953 12.356 49.5153 12.032 48.7713 12.032C47.9073 12.032 47.4273 12.392 47.4273 13.016H46.1793C46.1793 11.732 47.2353 10.892 48.8433 10.892C50.4393 10.892 51.4233 11.756 51.4233 13.4V17H50.1393L50.0313 16.124C49.7793 16.736 48.9753 17.156 48.0513 17.156ZM48.5312 16.052C49.4313 16.052 50.0073 15.512 50.0073 14.6V14.288L48.7713 14.384C47.8593 14.468 47.5113 14.768 47.5113 15.248C47.5113 15.788 47.8713 16.052 48.5312 16.052ZM54.3375 17H52.8855V8.072H54.3375V17ZM57.3492 17H55.8972V8.072H57.3492V17ZM61.5369 17.156C59.7729 17.156 58.5369 15.872 58.5369 14.036C58.5369 12.176 59.7489 10.892 61.4889 10.892C63.2649 10.892 64.3929 12.08 64.3929 13.928V14.372L59.9289 14.384C60.0369 15.428 60.5889 15.956 61.5609 15.956C62.3649 15.956 62.8929 15.644 63.0609 15.08H64.4169C64.1649 16.376 63.0849 17.156 61.5369 17.156ZM61.5009 12.092C60.6369 12.092 60.1089 12.56 59.9649 13.448H62.9409C62.9409 12.632 62.3769 12.092 61.5009 12.092ZM67.522 17H66.058V12.296H64.918V11.072H66.058V9.224H67.522V11.072H68.674V12.296H67.522V17ZM69.3378 14.444V13.148H73.2018V14.444H69.3378ZM76.1575 17H74.6935V11.072H76.0375L76.1575 11.768C76.4575 11.276 77.0575 10.892 77.9095 10.892C78.8095 10.892 79.4335 11.336 79.7455 12.02C80.0455 11.336 80.7415 10.892 81.6415 10.892C83.0815 10.892 83.8735 11.756 83.8735 13.124V17H82.4215V13.508C82.4215 12.656 81.9655 12.212 81.2695 12.212C80.5615 12.212 80.0215 12.668 80.0215 13.64V17H78.5575V13.496C78.5575 12.668 78.1135 12.224 77.4175 12.224C76.7215 12.224 76.1575 12.68 76.1575 13.64V17ZM86.0427 9.884C85.5387 9.884 85.1427 9.488 85.1427 8.996C85.1427 8.504 85.5387 8.12 86.0427 8.12C86.5227 8.12 86.9187 8.504 86.9187 8.996C86.9187 9.488 86.5227 9.884 86.0427 9.884ZM85.3107 17V11.072H86.7747V17H85.3107ZM89.7513 17H88.2873V11.072H89.6433L89.7633 11.84C90.1353 11.24 90.8553 10.892 91.6593 10.892C93.1473 10.892 93.9153 11.816 93.9153 13.352V17H92.4513V13.7C92.4513 12.704 91.9593 12.224 91.2033 12.224C90.3033 12.224 89.7513 12.848 89.7513 13.808V17ZM99.3737 11.072H100.838V17H99.4817L99.3737 16.208C99.0137 16.772 98.2457 17.156 97.4537 17.156C96.0857 17.156 95.2817 16.232 95.2817 14.78V11.072H96.7457V14.264C96.7457 15.392 97.1897 15.848 98.0057 15.848C98.9297 15.848 99.3737 15.308 99.3737 14.18V11.072ZM101.777 15.2H103.169C103.181 15.716 103.565 16.04 104.237 16.04C104.921 16.04 105.293 15.764 105.293 15.332C105.293 15.032 105.137 14.816 104.609 14.696L103.541 14.444C102.473 14.204 101.957 13.7 101.957 12.752C101.957 11.588 102.941 10.892 104.309 10.892C105.641 10.892 106.541 11.66 106.553 12.812H105.161C105.149 12.308 104.813 11.984 104.249 11.984C103.673 11.984 103.337 12.248 103.337 12.692C103.337 13.028 103.601 13.244 104.105 13.364L105.173 13.616C106.169 13.844 106.673 14.3 106.673 15.212C106.673 16.412 105.653 17.156 104.189 17.156C102.713 17.156 101.777 16.364 101.777 15.2Z" fill="black"/>
</svg>
