<svg width="103" height="24" viewBox="0 0 103 24" fill="none" xmlns="http://www.w3.org/2000/svg">
<path opacity="0.6" d="M14 16C14 17.77 13.23 19.37 12 20.46C10.94 21.42 9.54 22 8 22C4.69 22 2 19.31 2 16C2 13.24 3.88 10.9 6.42 10.21C7.11 11.95 8.59 13.29 10.42 13.79C10.92 13.93 11.45 14 12 14C12.55 14 13.08 13.93 13.58 13.79C13.85 14.47 14 15.22 14 16Z" fill="#1A1A1A"/>
<path d="M18 8C18 8.78 17.85 9.53 17.58 10.21C16.89 11.95 15.41 13.29 13.58 13.79C13.08 13.93 12.55 14 12 14C11.45 14 10.92 13.93 10.42 13.79C8.59 13.29 7.11 11.95 6.42 10.21C6.15 9.53 6 8.78 6 8C6 4.69 8.69 2 12 2C15.31 2 18 4.69 18 8Z" fill="#1A1A1A"/>
<path opacity="0.4" d="M22 16C22 19.31 19.31 22 16 22C14.46 22 13.06 21.42 12 20.46C13.23 19.37 14 17.77 14 16C14 15.22 13.85 14.47 13.58 13.79C15.41 13.29 16.89 11.95 17.58 10.21C20.12 10.9 22 13.24 22 16Z" fill="#1A1A1A"/>
<path d="M38.68 16.144C36.124 16.144 34.468 14.368 34.468 11.62C34.468 8.896 36.184 7.084 38.752 7.084C40.828 7.084 42.376 8.296 42.676 10.18H41.056C40.756 9.16 39.88 8.56 38.716 8.56C37.096 8.56 36.076 9.736 36.076 11.608C36.076 13.468 37.108 14.668 38.716 14.668C39.904 14.668 40.816 14.044 41.104 13.072H42.7C42.364 14.92 40.756 16.144 38.68 16.144ZM43.5135 13.024C43.5135 11.176 44.8455 9.904 46.6815 9.904C48.5175 9.904 49.8495 11.176 49.8495 13.024C49.8495 14.872 48.5175 16.144 46.6815 16.144C44.8455 16.144 43.5135 14.872 43.5135 13.024ZM44.9775 13.024C44.9775 14.104 45.6735 14.836 46.6815 14.836C47.6895 14.836 48.3855 14.104 48.3855 13.024C48.3855 11.944 47.6895 11.212 46.6815 11.212C45.6735 11.212 44.9775 11.944 44.9775 13.024ZM52.4859 16H51.0339V7.072H52.4859V16ZM53.6736 13.024C53.6736 11.176 55.0056 9.904 56.8416 9.904C58.6776 9.904 60.0096 11.176 60.0096 13.024C60.0096 14.872 58.6776 16.144 56.8416 16.144C55.0056 16.144 53.6736 14.872 53.6736 13.024ZM55.1376 13.024C55.1376 14.104 55.8336 14.836 56.8416 14.836C57.8496 14.836 58.5456 14.104 58.5456 13.024C58.5456 11.944 57.8496 11.212 56.8416 11.212C55.8336 11.212 55.1376 11.944 55.1376 13.024ZM64.8901 10.048V11.404H64.3501C63.2941 11.404 62.6341 11.968 62.6341 13.12V16H61.1701V10.084H62.5501L62.6341 10.948C62.8861 10.36 63.4501 9.964 64.2421 9.964C64.4461 9.964 64.6501 9.988 64.8901 10.048ZM70.2554 16V11.296H67.8314V16H66.3794V11.296H65.5274V10.072H66.3794V9.352C66.3794 7.744 67.2194 7.072 68.4194 7.072C68.6474 7.072 68.9234 7.084 69.1754 7.132V8.38H68.6594C67.9994 8.38 67.8314 8.764 67.8314 9.352V10.072H71.7194V16H70.2554ZM70.9874 8.86C70.4954 8.86 70.1114 8.476 70.1114 7.984C70.1114 7.504 70.4954 7.12 70.9874 7.12C71.4674 7.12 71.8514 7.504 71.8514 7.984C71.8514 8.476 71.4674 8.86 70.9874 8.86ZM74.7047 16H73.2527V7.072H74.7047V16ZM78.2564 16H76.7924V11.296H75.6524V10.072H76.7924V8.224H78.2564V10.072H79.4084V11.296H78.2564V16ZM82.9119 16.156C81.1479 16.156 79.9119 14.872 79.9119 13.036C79.9119 11.176 81.1239 9.892 82.8639 9.892C84.6399 9.892 85.7679 11.08 85.7679 12.928V13.372L81.3039 13.384C81.4119 14.428 81.9639 14.956 82.9359 14.956C83.7399 14.956 84.2679 14.644 84.4359 14.08H85.7919C85.5399 15.376 84.4599 16.156 82.9119 16.156ZM82.8759 11.092C82.0119 11.092 81.4839 11.56 81.3399 12.448H84.3159C84.3159 11.632 83.7519 11.092 82.8759 11.092ZM90.6596 10.048V11.404H90.1196C89.0636 11.404 88.4036 11.968 88.4036 13.12V16H86.9396V10.084H88.3196L88.4036 10.948C88.6556 10.36 89.2196 9.964 90.0116 9.964C90.2156 9.964 90.4196 9.988 90.6596 10.048Z" fill="black"/>
</svg>
