<svg width="200" height="24" viewBox="0 0 200 24" fill="none" xmlns="http://www.w3.org/2000/svg">
<path opacity="0.4" d="M22 7.81V16.19C22 19.83 19.83 22 16.19 22H7.81C7.61 22 7.41 21.99 7.22 21.98C5.99 21.9 4.95 21.55 4.13 20.95C3.71 20.66 3.34 20.29 3.05 19.87C2.36 18.92 2 17.68 2 16.19V7.81C2 4.37 3.94 2.24 7.22 2.03C7.41 2.01 7.61 2 7.81 2H16.19C17.68 2 18.92 2.36 19.87 3.05C20.29 3.34 20.66 3.71 20.95 4.13C21.64 5.08 22 6.32 22 7.81Z" fill="#1A1A1A"/>
<path d="M8.16 6.65002H15.83C16.47 6.65002 16.99 7.17002 16.99 7.81002V9.09002C16.99 9.56002 16.7 10.14 16.41 10.43L13.91 12.64C13.56 12.93 13.33 13.51 13.33 13.98V16.48C13.33 16.83 13.1 17.29 12.81 17.47L12 17.98C11.24 18.45 10.2 17.92 10.2 16.99V13.91C10.2 13.5 9.97 12.98 9.73 12.69L7.52 10.36C7.23 10.08 7 9.55002 7 9.20002V7.87002C7 7.17002 7.52 6.65002 8.16 6.65002Z" fill="#1A1A1A"/>
<path d="M39.772 13.412H36.508V17H34.972V8.228H40.396V9.644H36.508V12.032H39.772V13.412ZM42.2966 9.884C41.7926 9.884 41.3966 9.488 41.3966 8.996C41.3966 8.504 41.7926 8.12 42.2966 8.12C42.7766 8.12 43.1726 8.504 43.1726 8.996C43.1726 9.488 42.7766 9.884 42.2966 9.884ZM41.5646 17V11.072H43.0286V17H41.5646ZM46.0172 17H44.5652V8.072H46.0172V17ZM49.5689 17H48.1049V12.296H46.9649V11.072H48.1049V9.224H49.5689V11.072H50.7209V12.296H49.5689V17ZM54.2244 17.156C52.4604 17.156 51.2244 15.872 51.2244 14.036C51.2244 12.176 52.4364 10.892 54.1764 10.892C55.9524 10.892 57.0804 12.08 57.0804 13.928V14.372L52.6164 14.384C52.7244 15.428 53.2764 15.956 54.2484 15.956C55.0524 15.956 55.5804 15.644 55.7484 15.08H57.1044C56.8524 16.376 55.7724 17.156 54.2244 17.156ZM54.1884 12.092C53.3244 12.092 52.7964 12.56 52.6524 13.448H55.6284C55.6284 12.632 55.0644 12.092 54.1884 12.092ZM61.9721 11.048V12.404H61.4321C60.3761 12.404 59.7161 12.968 59.7161 14.12V17H58.2521V11.084H59.6321L59.7161 11.948C59.9681 11.36 60.5321 10.964 61.3241 10.964C61.5281 10.964 61.7321 10.988 61.9721 11.048ZM62.5174 14.444V13.148H66.3814V14.444H62.5174ZM67.3352 15.2H68.7272C68.7392 15.716 69.1232 16.04 69.7952 16.04C70.4792 16.04 70.8512 15.764 70.8512 15.332C70.8512 15.032 70.6952 14.816 70.1672 14.696L69.0992 14.444C68.0312 14.204 67.5152 13.7 67.5152 12.752C67.5152 11.588 68.4992 10.892 69.8672 10.892C71.1992 10.892 72.0992 11.66 72.1112 12.812H70.7192C70.7072 12.308 70.3712 11.984 69.8072 11.984C69.2312 11.984 68.8952 12.248 68.8952 12.692C68.8952 13.028 69.1592 13.244 69.6632 13.364L70.7312 13.616C71.7272 13.844 72.2312 14.3 72.2312 15.212C72.2312 16.412 71.2112 17.156 69.7472 17.156C68.2712 17.156 67.3352 16.364 67.3352 15.2ZM72.9978 13.964C72.9978 12.104 74.1018 10.892 75.7698 10.892C76.6698 10.892 77.4498 11.288 77.8098 11.972L77.9058 11.072H79.2498V19.748H77.7978V16.208C77.4258 16.808 76.6458 17.156 75.7698 17.156C74.0058 17.156 72.9978 15.812 72.9978 13.964ZM74.4618 14.036C74.4618 15.092 75.0858 15.836 76.1058 15.836C77.1258 15.836 77.7858 15.104 77.7858 14.036C77.7858 12.968 77.1258 12.224 76.1058 12.224C75.0858 12.224 74.4618 12.98 74.4618 14.036ZM84.7955 11.072H86.2595V17H84.9035L84.7955 16.208C84.4355 16.772 83.6675 17.156 82.8755 17.156C81.5075 17.156 80.7035 16.232 80.7035 14.78V11.072H82.1675V14.264C82.1675 15.392 82.6115 15.848 83.4275 15.848C84.3515 15.848 84.7955 15.308 84.7955 14.18V11.072ZM89.5356 17.156C88.2756 17.156 87.5076 16.424 87.5076 15.308C87.5076 14.216 88.2996 13.532 89.7036 13.424L91.4796 13.292V13.16C91.4796 12.356 90.9996 12.032 90.2556 12.032C89.3916 12.032 88.9116 12.392 88.9116 13.016H87.6636C87.6636 11.732 88.7196 10.892 90.3276 10.892C91.9236 10.892 92.9076 11.756 92.9076 13.4V17H91.6236L91.5156 16.124C91.2636 16.736 90.4596 17.156 89.5356 17.156ZM90.0156 16.052C90.9156 16.052 91.4916 15.512 91.4916 14.6V14.288L90.2556 14.384C89.3436 14.468 88.9956 14.768 88.9956 15.248C88.9956 15.788 89.3556 16.052 90.0156 16.052ZM98.0658 11.048V12.404H97.5258C96.4698 12.404 95.8098 12.968 95.8098 14.12V17H94.3458V11.084H95.7258L95.8098 11.948C96.0618 11.36 96.6258 10.964 97.4178 10.964C97.6218 10.964 97.8258 10.988 98.0658 11.048ZM101.51 17.156C99.7456 17.156 98.5096 15.872 98.5096 14.036C98.5096 12.176 99.7216 10.892 101.462 10.892C103.238 10.892 104.366 12.08 104.366 13.928V14.372L99.9016 14.384C100.01 15.428 100.562 15.956 101.534 15.956C102.338 15.956 102.866 15.644 103.034 15.08H104.39C104.138 16.376 103.058 17.156 101.51 17.156ZM101.474 12.092C100.61 12.092 100.082 12.56 99.9376 13.448H102.914C102.914 12.632 102.35 12.092 101.474 12.092Z" fill="black"/>
</svg>
