<svg width="101" height="24" viewBox="0 0 101 24" fill="none" xmlns="http://www.w3.org/2000/svg">
<path d="M12 2C9.38 2 7.25 4.13 7.25 6.75C7.25 9.32 9.26 11.4 11.88 11.49C11.96 11.48 12.04 11.48 12.1 11.49C12.12 11.49 12.13 11.49 12.15 11.49C12.16 11.49 12.16 11.49 12.17 11.49C14.73 11.4 16.74 9.32 16.75 6.75C16.75 4.13 14.62 2 12 2Z" fill="#1A1A1A"/>
<path opacity="0.4" d="M17.08 14.1499C14.29 12.2899 9.73996 12.2899 6.92996 14.1499C5.65996 14.9999 4.95996 16.1499 4.95996 17.3799C4.95996 18.6099 5.65996 19.7499 6.91996 20.5899C8.31996 21.5299 10.16 21.9999 12 21.9999C13.84 21.9999 15.68 21.5299 17.08 20.5899C18.34 19.7399 19.04 18.5999 19.04 17.3599C19.03 16.1299 18.34 14.9899 17.08 14.1499Z" fill="#1A1A1A"/>
<path d="M14 16.6299H12.75V15.3799C12.75 14.9699 12.41 14.6299 12 14.6299C11.59 14.6299 11.25 14.9699 11.25 15.3799V16.6299H10C9.59 16.6299 9.25 16.9699 9.25 17.3799C9.25 17.7899 9.59 18.1299 10 18.1299H11.25V19.3799C11.25 19.7899 11.59 20.1299 12 20.1299C12.41 20.1299 12.75 19.7899 12.75 19.3799V18.1299H14C14.41 18.1299 14.75 17.7899 14.75 17.3799C14.75 16.9699 14.41 16.6299 14 16.6299Z" fill="#1A1A1A"/>
<path d="M38.44 12.976H36.508V16H34.972V7.228H38.44C40.204 7.228 41.344 8.38 41.344 10.096C41.344 11.788 40.192 12.976 38.44 12.976ZM38.14 8.596H36.508V11.608H38.116C39.172 11.608 39.736 11.044 39.736 10.084C39.736 9.124 39.16 8.596 38.14 8.596ZM46.1401 10.048V11.404H45.6001C44.5441 11.404 43.8841 11.968 43.8841 13.12V16H42.4201V10.084H43.8001L43.8841 10.948C44.1361 10.36 44.7001 9.964 45.4921 9.964C45.6961 9.964 45.9001 9.988 46.1401 10.048ZM46.5838 13.024C46.5838 11.176 47.9158 9.904 49.7518 9.904C51.5878 9.904 52.9198 11.176 52.9198 13.024C52.9198 14.872 51.5878 16.144 49.7518 16.144C47.9158 16.144 46.5838 14.872 46.5838 13.024ZM48.0478 13.024C48.0478 14.104 48.7438 14.836 49.7518 14.836C50.7598 14.836 51.4558 14.104 51.4558 13.024C51.4558 11.944 50.7598 11.212 49.7518 11.212C48.7438 11.212 48.0478 11.944 48.0478 13.024ZM58.1968 16V11.296H55.7728V16H54.3208V11.296H53.4688V10.072H54.3208V9.352C54.3208 7.744 55.1608 7.072 56.3608 7.072C56.5888 7.072 56.8648 7.084 57.1168 7.132V8.38H56.6008C55.9408 8.38 55.7728 8.764 55.7728 9.352V10.072H59.6608V16H58.1968ZM58.9288 8.86C58.4368 8.86 58.0528 8.476 58.0528 7.984C58.0528 7.504 58.4368 7.12 58.9288 7.12C59.4088 7.12 59.7928 7.504 59.7928 7.984C59.7928 8.476 59.4088 8.86 58.9288 8.86ZM62.6461 16H61.1941V7.072H62.6461V16ZM66.8338 16.156C65.0698 16.156 63.8338 14.872 63.8338 13.036C63.8338 11.176 65.0458 9.892 66.7858 9.892C68.5618 9.892 69.6898 11.08 69.6898 12.928V13.372L65.2258 13.384C65.3338 14.428 65.8858 14.956 66.8578 14.956C67.6618 14.956 68.1898 14.644 68.3578 14.08H69.7138C69.4618 15.376 68.3818 16.156 66.8338 16.156ZM66.7978 11.092C65.9338 11.092 65.4058 11.56 65.2618 12.448H68.2378C68.2378 11.632 67.6738 11.092 66.7978 11.092ZM70.8495 13.444V12.148H74.7135V13.444H70.8495ZM77.77 16.156C76.51 16.156 75.742 15.424 75.742 14.308C75.742 13.216 76.534 12.532 77.938 12.424L79.714 12.292V12.16C79.714 11.356 79.234 11.032 78.49 11.032C77.626 11.032 77.146 11.392 77.146 12.016H75.898C75.898 10.732 76.954 9.892 78.562 9.892C80.158 9.892 81.142 10.756 81.142 12.4V16H79.858L79.75 15.124C79.498 15.736 78.694 16.156 77.77 16.156ZM78.25 15.052C79.15 15.052 79.726 14.512 79.726 13.6V13.288L78.49 13.384C77.578 13.468 77.23 13.768 77.23 14.248C77.23 14.788 77.59 15.052 78.25 15.052ZM85.0162 16.156C83.3002 16.156 82.2322 14.896 82.2322 13.06C82.2322 11.212 83.3122 9.892 85.1002 9.892C85.9282 9.892 86.6602 10.24 87.0322 10.828V7.072H88.4842V16H87.1402L87.0442 15.076C86.6842 15.76 85.9162 16.156 85.0162 16.156ZM85.3402 14.812C86.3602 14.812 87.0202 14.08 87.0202 13.012C87.0202 11.944 86.3602 11.2 85.3402 11.2C84.3202 11.2 83.6962 11.956 83.6962 13.012C83.6962 14.068 84.3202 14.812 85.3402 14.812ZM92.4459 16.156C90.7299 16.156 89.6619 14.896 89.6619 13.06C89.6619 11.212 90.7419 9.892 92.5299 9.892C93.3579 9.892 94.0899 10.24 94.4619 10.828V7.072H95.9139V16H94.5699L94.4739 15.076C94.1139 15.76 93.3459 16.156 92.4459 16.156ZM92.7699 14.812C93.7899 14.812 94.4499 14.08 94.4499 13.012C94.4499 11.944 93.7899 11.2 92.7699 11.2C91.7499 11.2 91.1259 11.956 91.1259 13.012C91.1259 14.068 91.7499 14.812 92.7699 14.812Z" fill="black"/>
</svg>
