<svg width="101" height="24" viewBox="0 0 101 24" fill="none" xmlns="http://www.w3.org/2000/svg">
<path opacity="0.4" d="M16.9 22H7.10001C5.40001 22 4 20.61 4 18.9V5.10001C4 3.40001 5.39001 2 7.10001 2H16.9C18.6 2 20 3.39001 20 5.10001V18.9C20 20.61 18.61 22 16.9 22Z" fill="#1A1A1A"/>
<path d="M20 8H4V13H20V8Z" fill="#1A1A1A"/>
<path d="M8 18.7498C7.92 18.7498 7.83999 18.7398 7.75999 18.7298C7.67999 18.7098 7.6 18.6898 7.52 18.6498C7.45 18.6198 7.37 18.5798 7.31 18.5398C7.24 18.4898 7.17 18.4398 7.12 18.3798C6.88 18.1498 6.75 17.8298 6.75 17.4998C6.75 17.1698 6.88 16.8498 7.12 16.6198C7.17 16.5598 7.24 16.5098 7.31 16.4598C7.37 16.4198 7.45 16.3798 7.52 16.3498C7.6 16.3098 7.67999 16.2898 7.75999 16.2698C8.15999 16.1898 8.59 16.3298 8.88 16.6198C9.12 16.8498 9.25 17.1698 9.25 17.4998C9.25 17.8298 9.12 18.1498 8.88 18.3798C8.65 18.6198 8.33 18.7498 8 18.7498Z" fill="#1A1A1A"/>
<path d="M16 18.7501C15.92 18.7501 15.84 18.7401 15.76 18.7301C15.68 18.7101 15.6 18.6901 15.52 18.6501C15.45 18.6201 15.37 18.5801 15.31 18.5401C15.24 18.4901 15.17 18.4401 15.12 18.3801C14.88 18.1501 14.75 17.8301 14.75 17.5001C14.75 17.1701 14.88 16.8501 15.12 16.6201C15.17 16.5601 15.24 16.5101 15.31 16.4601C15.37 16.4201 15.45 16.3801 15.52 16.3501C15.6 16.3101 15.68 16.2901 15.76 16.2701C15.92 16.2401 16.08 16.2401 16.25 16.2701C16.32 16.2901 16.4 16.3101 16.48 16.3501C16.55 16.3801 16.63 16.4201 16.69 16.4601C16.76 16.5101 16.83 16.5601 16.88 16.6201C17.12 16.8501 17.25 17.1701 17.25 17.5001C17.25 17.8301 17.12 18.1501 16.88 18.3801C16.83 18.4401 16.76 18.4901 16.69 18.5401C16.63 18.5801 16.55 18.6201 16.48 18.6501C16.4 18.6901 16.32 18.7101 16.25 18.7301C16.16 18.7401 16.08 18.7501 16 18.7501Z" fill="#1A1A1A"/>
<path d="M14.5 5.75H9.5C9.09 5.75 8.75 5.41 8.75 5C8.75 4.59 9.09 4.25 9.5 4.25H14.5C14.91 4.25 15.25 4.59 15.25 5C15.25 5.41 14.91 5.75 14.5 5.75Z" fill="#1A1A1A"/>
<path d="M34.972 16V7.228H38.464C40.192 7.228 41.248 8.128 41.248 9.592C41.248 10.564 40.816 11.26 39.988 11.608C40.912 11.908 41.38 12.604 41.38 13.624C41.38 15.124 40.336 16 38.524 16H34.972ZM38.332 8.584H36.508V10.972H38.368C39.208 10.972 39.676 10.528 39.676 9.748C39.676 8.992 39.196 8.584 38.332 8.584ZM38.464 12.268H36.508V14.644H38.464C39.328 14.644 39.808 14.224 39.808 13.432C39.808 12.688 39.316 12.268 38.464 12.268ZM46.5924 10.072H48.0564V16H46.7004L46.5924 15.208C46.2324 15.772 45.4644 16.156 44.6724 16.156C43.3044 16.156 42.5004 15.232 42.5004 13.78V10.072H43.9644V13.264C43.9644 14.392 44.4084 14.848 45.2244 14.848C46.1484 14.848 46.5924 14.308 46.5924 13.18V10.072ZM48.9953 14.2H50.3873C50.3993 14.716 50.7833 15.04 51.4553 15.04C52.1393 15.04 52.5113 14.764 52.5113 14.332C52.5113 14.032 52.3553 13.816 51.8273 13.696L50.7593 13.444C49.6913 13.204 49.1753 12.7 49.1753 11.752C49.1753 10.588 50.1593 9.892 51.5273 9.892C52.8593 9.892 53.7593 10.66 53.7713 11.812H52.3793C52.3673 11.308 52.0313 10.984 51.4673 10.984C50.8913 10.984 50.5553 11.248 50.5553 11.692C50.5553 12.028 50.8193 12.244 51.3233 12.364L52.3913 12.616C53.3873 12.844 53.8913 13.3 53.8913 14.212C53.8913 15.412 52.8713 16.156 51.4073 16.156C49.9313 16.156 48.9953 15.364 48.9953 14.2Z" fill="black"/>
</svg>
