<svg width="200" height="24" viewBox="0 0 200 24" fill="none" xmlns="http://www.w3.org/2000/svg">
<path d="M18.9699 3.75V7.25C18.9699 8.22 18.1899 9 17.2199 9H8.96C8.56999 9 8.17997 8.85999 7.86997 8.62L5.67997 6.87C4.80997 6.17 4.80997 4.83 5.67997 4.13L7.86997 2.38C8.17997 2.14 8.56999 2 8.96 2H17.2199C18.1899 2 18.9699 2.78 18.9699 3.75Z" fill="#1A1A1A"/>
<path d="M18.34 16.87L16.16 18.62C15.85 18.86 15.46 19 15.06 19H6.79999C5.82999 19 5.04999 18.22 5.04999 17.25V13.75C5.04999 12.78 5.82999 12 6.79999 12H15.06C15.46 12 15.85 12.14 16.16 12.38L18.34 14.13C19.22 14.83 19.22 16.17 18.34 16.87Z" fill="#1A1A1A"/>
<path opacity="0.4" d="M12.75 9H11.25V12H12.75V9Z" fill="#1A1A1A"/>
<path opacity="0.4" d="M15.75 22C15.75 22.41 15.41 22.75 15 22.75H9C8.59 22.75 8.25 22.41 8.25 22C8.25 21.59 8.59 21.25 9 21.25H11.25V19H12.75V21.25H15C15.41 21.25 15.75 21.59 15.75 22Z" fill="#1A1A1A"/>
<path d="M34.468 9.676C34.468 8.14 35.74 7.072 37.588 7.072C39.364 7.072 40.492 8.056 40.54 9.64H39.004C38.968 8.884 38.428 8.44 37.564 8.44C36.616 8.44 36.004 8.896 36.004 9.628C36.004 10.252 36.34 10.6 37.072 10.768L38.452 11.068C39.952 11.392 40.684 12.16 40.684 13.468C40.684 15.1 39.412 16.156 37.48 16.156C35.608 16.156 34.384 15.16 34.348 13.588H35.884C35.896 14.332 36.496 14.776 37.48 14.776C38.5 14.776 39.148 14.332 39.148 13.6C39.148 13.012 38.848 12.664 38.128 12.508L36.736 12.196C35.248 11.872 34.468 11.02 34.468 9.676ZM42.5896 8.884C42.0856 8.884 41.6896 8.488 41.6896 7.996C41.6896 7.504 42.0856 7.12 42.5896 7.12C43.0696 7.12 43.4656 7.504 43.4656 7.996C43.4656 8.488 43.0696 8.884 42.5896 8.884ZM41.8576 16V10.072H43.3216V16H41.8576ZM44.4981 12.904C44.4981 11.176 45.6261 9.88 47.3181 9.88C48.2061 9.88 48.9021 10.252 49.2501 10.888L49.3341 10.072H50.6901V15.7C50.6901 17.68 49.5021 18.916 47.5821 18.916C45.8781 18.916 44.7141 17.944 44.5341 16.36H45.9981C46.0941 17.128 46.6821 17.584 47.5821 17.584C48.5901 17.584 49.2381 16.948 49.2381 15.964V14.98C48.8661 15.532 48.1341 15.88 47.2821 15.88C45.6021 15.88 44.4981 14.62 44.4981 12.904ZM45.9741 12.868C45.9741 13.864 46.6101 14.608 47.5701 14.608C48.5781 14.608 49.2021 13.9 49.2021 12.868C49.2021 11.86 48.5901 11.164 47.5701 11.164C46.5981 11.164 45.9741 11.896 45.9741 12.868ZM53.6692 16H52.2052V10.072H53.5612L53.6812 10.84C54.0532 10.24 54.7732 9.892 55.5772 9.892C57.0652 9.892 57.8332 10.816 57.8332 12.352V16H56.3692V12.7C56.3692 11.704 55.8772 11.224 55.1212 11.224C54.2212 11.224 53.6692 11.848 53.6692 12.808V16ZM59.2716 18.748V10.072H60.6276L60.7236 10.972C61.0836 10.288 61.8636 9.892 62.7636 9.892C64.4316 9.892 65.5356 11.104 65.5356 12.964C65.5356 14.812 64.5276 16.156 62.7636 16.156C61.8756 16.156 61.1076 15.808 60.7356 15.208V18.748H59.2716ZM60.7476 13.036C60.7476 14.104 61.4076 14.836 62.4156 14.836C63.4476 14.836 64.0596 14.092 64.0596 13.036C64.0596 11.98 63.4476 11.224 62.4156 11.224C61.4076 11.224 60.7476 11.968 60.7476 13.036ZM66.3533 13.024C66.3533 11.176 67.6853 9.904 69.5213 9.904C71.3573 9.904 72.6893 11.176 72.6893 13.024C72.6893 14.872 71.3573 16.144 69.5213 16.144C67.6853 16.144 66.3533 14.872 66.3533 13.024ZM67.8173 13.024C67.8173 14.104 68.5133 14.836 69.5213 14.836C70.5293 14.836 71.2253 14.104 71.2253 13.024C71.2253 11.944 70.5293 11.212 69.5213 11.212C68.5133 11.212 67.8173 11.944 67.8173 13.024ZM73.3938 14.2H74.7858C74.7978 14.716 75.1818 15.04 75.8538 15.04C76.5378 15.04 76.9098 14.764 76.9098 14.332C76.9098 14.032 76.7538 13.816 76.2258 13.696L75.1578 13.444C74.0898 13.204 73.5738 12.7 73.5738 11.752C73.5738 10.588 74.5578 9.892 75.9258 9.892C77.2578 9.892 78.1578 10.66 78.1698 11.812H76.7778C76.7658 11.308 76.4298 10.984 75.8658 10.984C75.2898 10.984 74.9538 11.248 74.9538 11.692C74.9538 12.028 75.2178 12.244 75.7218 12.364L76.7898 12.616C77.7858 12.844 78.2898 13.3 78.2898 14.212C78.2898 15.412 77.2698 16.156 75.8058 16.156C74.3298 16.156 73.3938 15.364 73.3938 14.2ZM81.4204 16H79.9564V11.296H78.8164V10.072H79.9564V8.224H81.4204V10.072H82.5724V11.296H81.4204V16Z" fill="black"/>
</svg>
