<svg width="115" height="24" viewBox="0 0 115 24" fill="none" xmlns="http://www.w3.org/2000/svg">
<path d="M22.0001 13.9001V16.1901C22.0001 19.8301 19.8301 22.0001 16.1901 22.0001H7.81006C5.26006 22.0001 3.42006 20.9301 2.56006 19.0301L2.67006 18.9501L7.59006 15.6501C8.39006 15.1101 9.52006 15.1701 10.2301 15.7901L10.5701 16.0701C11.3501 16.7401 12.6101 16.7401 13.3901 16.0701L17.5501 12.5001C18.3301 11.8301 19.5901 11.8301 20.3701 12.5001L22.0001 13.9001Z" fill="#1A1A1A"/>
<path opacity="0.4" d="M20.97 8H18.03C16.76 8 16 7.24 16 5.97V3.03C16 2.63 16.08 2.29 16.22 2C16.21 2 16.2 2 16.19 2H7.81C4.17 2 2 4.17 2 7.81V16.19C2 17.28 2.19 18.23 2.56 19.03L2.67 18.95L7.59 15.65C8.39 15.11 9.52 15.17 10.23 15.79L10.57 16.07C11.35 16.74 12.61 16.74 13.39 16.07L17.55 12.5C18.33 11.83 19.59 11.83 20.37 12.5L22 13.9V7.81C22 7.8 22 7.79 22 7.78C21.71 7.92 21.37 8 20.97 8Z" fill="#1A1A1A"/>
<path d="M9.00012 10.38C10.3146 10.38 11.3801 9.31443 11.3801 8C11.3801 6.68556 10.3146 5.62 9.00012 5.62C7.68568 5.62 6.62012 6.68556 6.62012 8C6.62012 9.31443 7.68568 10.38 9.00012 10.38Z" fill="#1A1A1A"/>
<path d="M20.97 1H18.03C16.76 1 16 1.76 16 3.03V5.97C16 7.24 16.76 8 18.03 8H20.97C22.24 8 23 7.24 23 5.97V3.03C23 1.76 22.24 1 20.97 1ZM21.19 4.31C21.07 4.43 20.91 4.49 20.75 4.49C20.59 4.49 20.43 4.43 20.31 4.31L20.13 4.13V6.37C20.13 6.72 19.85 7 19.5 7C19.15 7 18.87 6.72 18.87 6.37V4.13L18.69 4.31C18.45 4.55 18.05 4.55 17.81 4.31C17.57 4.07 17.57 3.67 17.81 3.43L19.06 2.18C19.11 2.13 19.18 2.09 19.25 2.06C19.27 2.05 19.29 2.05 19.31 2.04C19.36 2.02 19.41 2.01 19.47 2.01C19.49 2.01 19.51 2.01 19.53 2.01C19.6 2.01 19.66 2.02 19.73 2.05C19.74 2.05 19.74 2.05 19.75 2.05C19.82 2.08 19.88 2.12 19.93 2.17C19.94 2.18 19.94 2.18 19.95 2.18L21.2 3.43C21.44 3.67 21.44 4.07 21.19 4.31Z" fill="#1A1A1A"/>
<path d="M38.812 9.524C37.072 9.524 36.076 10.784 36.076 12.68C36.076 14.636 37.204 15.704 38.824 15.704C40.348 15.704 41.272 14.864 41.272 13.46V13.424H38.62V12.068H42.7V17H41.404L41.308 15.992C40.828 16.664 39.832 17.132 38.644 17.132C36.184 17.132 34.468 15.344 34.468 12.644C34.468 9.98 36.208 8.084 38.848 8.084C40.852 8.084 42.4 9.248 42.652 11.036H41.032C40.756 10.004 39.868 9.524 38.812 9.524ZM45.9067 17.156C44.6467 17.156 43.8787 16.424 43.8787 15.308C43.8787 14.216 44.6707 13.532 46.0747 13.424L47.8507 13.292V13.16C47.8507 12.356 47.3707 12.032 46.6267 12.032C45.7627 12.032 45.2827 12.392 45.2827 13.016H44.0347C44.0347 11.732 45.0907 10.892 46.6987 10.892C48.2947 10.892 49.2787 11.756 49.2787 13.4V17H47.9947L47.8867 16.124C47.6347 16.736 46.8307 17.156 45.9067 17.156ZM46.3867 16.052C47.2867 16.052 47.8627 15.512 47.8627 14.6V14.288L46.6267 14.384C45.7147 14.468 45.3667 14.768 45.3667 15.248C45.3667 15.788 45.7267 16.052 46.3867 16.052ZM52.1929 17H50.7409V8.072H52.1929V17ZM55.2047 17H53.7527V8.072H55.2047V17ZM59.3924 17.156C57.6284 17.156 56.3924 15.872 56.3924 14.036C56.3924 12.176 57.6044 10.892 59.3444 10.892C61.1204 10.892 62.2484 12.08 62.2484 13.928V14.372L57.7844 14.384C57.8924 15.428 58.4444 15.956 59.4164 15.956C60.2204 15.956 60.7484 15.644 60.9164 15.08H62.2724C62.0204 16.376 60.9404 17.156 59.3924 17.156ZM59.3564 12.092C58.4924 12.092 57.9644 12.56 57.8204 13.448H60.7964C60.7964 12.632 60.2324 12.092 59.3564 12.092ZM67.1401 11.048V12.404H66.6001C65.5441 12.404 64.8841 12.968 64.8841 14.12V17H63.4201V11.084H64.8001L64.8841 11.948C65.1361 11.36 65.7001 10.964 66.4921 10.964C66.6961 10.964 66.9001 10.988 67.1401 11.048ZM67.7908 19.748V18.524H68.6668C69.2428 18.524 69.6028 18.392 69.8548 17.696L70.0228 17.252L67.6348 11.072H69.1828L70.7068 15.392L72.3148 11.072H73.8268L70.9228 18.32C70.4788 19.424 69.8548 19.88 68.8828 19.88C68.4748 19.88 68.1148 19.832 67.7908 19.748ZM74.2362 14.444V13.148H78.1002V14.444H74.2362ZM82.2439 17.156C80.4799 17.156 79.2439 15.872 79.2439 14.036C79.2439 12.176 80.4559 10.892 82.1959 10.892C83.9719 10.892 85.0999 12.08 85.0999 13.928V14.372L80.6359 14.384C80.7439 15.428 81.2959 15.956 82.2679 15.956C83.0719 15.956 83.5999 15.644 83.7679 15.08H85.1239C84.8719 16.376 83.7919 17.156 82.2439 17.156ZM82.2079 12.092C81.3439 12.092 80.8159 12.56 80.6719 13.448H83.6479C83.6479 12.632 83.0839 12.092 82.2079 12.092ZM87.0341 17H85.3661L87.4061 14.096L85.3661 11.072H87.0701L88.3781 13.088L89.6381 11.072H91.2821L89.2661 14.072L91.2221 17H89.5421L88.2821 15.044L87.0341 17ZM92.1544 19.748V11.072H93.5104L93.6064 11.972C93.9664 11.288 94.7464 10.892 95.6464 10.892C97.3144 10.892 98.4184 12.104 98.4184 13.964C98.4184 15.812 97.4104 17.156 95.6464 17.156C94.7584 17.156 93.9904 16.808 93.6184 16.208V19.748H92.1544ZM93.6304 14.036C93.6304 15.104 94.2904 15.836 95.2984 15.836C96.3304 15.836 96.9424 15.092 96.9424 14.036C96.9424 12.98 96.3304 12.224 95.2984 12.224C94.2904 12.224 93.6304 12.968 93.6304 14.036ZM99.2361 14.024C99.2361 12.176 100.568 10.904 102.404 10.904C104.24 10.904 105.572 12.176 105.572 14.024C105.572 15.872 104.24 17.144 102.404 17.144C100.568 17.144 99.2361 15.872 99.2361 14.024ZM100.7 14.024C100.7 15.104 101.396 15.836 102.404 15.836C103.412 15.836 104.108 15.104 104.108 14.024C104.108 12.944 103.412 12.212 102.404 12.212C101.396 12.212 100.7 12.944 100.7 14.024ZM110.453 11.048V12.404H109.913C108.857 12.404 108.197 12.968 108.197 14.12V17H106.733V11.084H108.113L108.197 11.948C108.449 11.36 109.013 10.964 109.805 10.964C110.009 10.964 110.213 10.988 110.453 11.048ZM113.694 17H112.23V12.296H111.09V11.072H112.23V9.224H113.694V11.072H114.846V12.296H113.694V17Z" fill="black"/>
</svg>
