<svg width="200" height="24" viewBox="0 0 200 24" fill="none" xmlns="http://www.w3.org/2000/svg">
<path opacity="0.4" d="M20.58 4.01999V5.97C19.9 5.47 19.12 5.1 18.27 4.91C17.83 4.8 17.3599 4.75 16.8799 4.75C13.4299 4.75 10.6299 7.55 10.6299 11C10.6299 12.14 10.94 13.26 11.53 14.22C12.03 15.06 12.7299 15.76 13.4899 16.23C13.7499 16.4 14.0199 16.55 14.2999 16.68V19.07C14.2999 19.68 13.9 20.49 13.4 20.79L11.9999 21.7C10.6999 22.51 8.90991 21.6 8.90991 19.98V14.63C8.90991 13.92 8.50992 13.01 8.10992 12.51L4.31995 8.47C3.81995 7.96 3.41992 7.05001 3.41992 6.45001V4.12C3.41992 2.91 4.31991 2 5.40991 2H18.59C19.68 2 20.58 2.90999 20.58 4.01999Z" fill="#1A1A1A"/>
<path d="M17.9199 6.37C17.5899 6.29 17.2399 6.25 16.8799 6.25C14.2599 6.25 12.1299 8.38 12.1299 11C12.1299 11.89 12.3799 12.73 12.8199 13.45C13.1899 14.07 13.6999 14.6 14.3199 14.98C15.0599 15.47 15.9399 15.75 16.8799 15.75C18.6199 15.75 20.1299 14.82 20.9499 13.45C21.3899 12.73 21.6299 11.89 21.6299 11C21.6299 8.74 20.0499 6.84 17.9199 6.37ZM18.8299 10.57L16.3999 13C16.3099 13.09 16.1199 13.18 15.9899 13.2L15.0599 13.33C14.7199 13.38 14.4899 13.14 14.5399 12.81L14.6699 11.88C14.6899 11.75 14.7799 11.57 14.8699 11.47L16.9499 9.39001L17.2999 9.04001C17.7199 8.62001 18.2099 8.42001 18.8199 9.04001C19.4299 9.66001 19.2499 10.15 18.8299 10.57Z" fill="#1A1A1A"/>
<path d="M39.772 12.412H36.508V16H34.972V7.228H40.396V8.644H36.508V11.032H39.772V12.412ZM42.2966 8.884C41.7926 8.884 41.3966 8.488 41.3966 7.996C41.3966 7.504 41.7926 7.12 42.2966 7.12C42.7766 7.12 43.1726 7.504 43.1726 7.996C43.1726 8.488 42.7766 8.884 42.2966 8.884ZM41.5646 16V10.072H43.0286V16H41.5646ZM46.0172 16H44.5652V7.072H46.0172V16ZM49.5689 16H48.1049V11.296H46.9649V10.072H48.1049V8.224H49.5689V10.072H50.7209V11.296H49.5689V16ZM54.2244 16.156C52.4604 16.156 51.2244 14.872 51.2244 13.036C51.2244 11.176 52.4364 9.892 54.1764 9.892C55.9524 9.892 57.0804 11.08 57.0804 12.928V13.372L52.6164 13.384C52.7244 14.428 53.2764 14.956 54.2484 14.956C55.0524 14.956 55.5804 14.644 55.7484 14.08H57.1044C56.8524 15.376 55.7724 16.156 54.2244 16.156ZM54.1884 11.092C53.3244 11.092 52.7964 11.56 52.6524 12.448H55.6284C55.6284 11.632 55.0644 11.092 54.1884 11.092ZM61.9721 10.048V11.404H61.4321C60.3761 11.404 59.7161 11.968 59.7161 13.12V16H58.2521V10.084H59.6321L59.7161 10.948C59.9681 10.36 60.5321 9.964 61.3241 9.964C61.5281 9.964 61.7321 9.988 61.9721 10.048ZM62.5174 13.444V12.148H66.3814V13.444H62.5174ZM70.5252 16.156C68.7612 16.156 67.5252 14.872 67.5252 13.036C67.5252 11.176 68.7372 9.892 70.4772 9.892C72.2532 9.892 73.3812 11.08 73.3812 12.928V13.372L68.9172 13.384C69.0252 14.428 69.5772 14.956 70.5492 14.956C71.3532 14.956 71.8812 14.644 72.0492 14.08H73.4052C73.1532 15.376 72.0732 16.156 70.5252 16.156ZM70.4892 11.092C69.6252 11.092 69.0972 11.56 68.9532 12.448H71.9292C71.9292 11.632 71.3652 11.092 70.4892 11.092ZM76.9889 16.156C75.2729 16.156 74.2049 14.896 74.2049 13.06C74.2049 11.212 75.2849 9.892 77.0729 9.892C77.9009 9.892 78.6329 10.24 79.0049 10.828V7.072H80.4569V16H79.1129L79.0169 15.076C78.6569 15.76 77.8889 16.156 76.9889 16.156ZM77.3129 14.812C78.3329 14.812 78.9929 14.08 78.9929 13.012C78.9929 11.944 78.3329 11.2 77.3129 11.2C76.2929 11.2 75.6689 11.956 75.6689 13.012C75.6689 14.068 76.2929 14.812 77.3129 14.812ZM82.7146 8.884C82.2106 8.884 81.8146 8.488 81.8146 7.996C81.8146 7.504 82.2106 7.12 82.7146 7.12C83.1946 7.12 83.5906 7.504 83.5906 7.996C83.5906 8.488 83.1946 8.884 82.7146 8.884ZM81.9826 16V10.072H83.4466V16H81.9826ZM86.9751 16H85.5111V11.296H84.3711V10.072H85.5111V8.224H86.9751V10.072H88.1271V11.296H86.9751V16Z" fill="black"/>
</svg>
