<svg width="142" height="24" viewBox="0 0 142 24" fill="none" xmlns="http://www.w3.org/2000/svg">
<path opacity="0.4" d="M10.7599 2C10.2799 2 9.8999 2.38 9.8999 2.86V21.15C9.8999 21.62 10.2799 22.01 10.7599 22.01C16.6499 22.01 20.7599 17.9 20.7599 12.01C20.7599 6.12 16.6399 2 10.7599 2Z" fill="#1A1A1A"/>
<path d="M15.9 11.5399L13.06 8.68991C12.77 8.39991 12.29 8.39991 12 8.68991C11.71 8.97991 11.71 9.45991 12 9.74991L13.56 11.3099H3.98999C3.57999 11.3099 3.23999 11.6499 3.23999 12.0599C3.23999 12.4699 3.57999 12.8099 3.98999 12.8099H13.56L12 14.3799C11.71 14.6699 11.71 15.1499 12 15.4399C12.15 15.5899 12.34 15.6599 12.53 15.6599C12.72 15.6599 12.91 15.5899 13.06 15.4399L15.9 12.5899C16.2 12.2999 16.2 11.8299 15.9 11.5399Z" fill="#1A1A1A"/>
<path d="M36.508 7.228V14.584H40.18V16H34.972V7.228H36.508ZM40.7478 13.024C40.7478 11.176 42.0798 9.904 43.9158 9.904C45.7518 9.904 47.0838 11.176 47.0838 13.024C47.0838 14.872 45.7518 16.144 43.9158 16.144C42.0798 16.144 40.7478 14.872 40.7478 13.024ZM42.2118 13.024C42.2118 14.104 42.9078 14.836 43.9158 14.836C44.9238 14.836 45.6198 14.104 45.6198 13.024C45.6198 11.944 44.9238 11.212 43.9158 11.212C42.9078 11.212 42.2118 11.944 42.2118 13.024ZM47.9083 12.904C47.9083 11.176 49.0363 9.88 50.7283 9.88C51.6163 9.88 52.3123 10.252 52.6603 10.888L52.7443 10.072H54.1003V15.7C54.1003 17.68 52.9123 18.916 50.9923 18.916C49.2883 18.916 48.1243 17.944 47.9443 16.36H49.4083C49.5043 17.128 50.0923 17.584 50.9923 17.584C52.0003 17.584 52.6483 16.948 52.6483 15.964V14.98C52.2763 15.532 51.5443 15.88 50.6923 15.88C49.0123 15.88 47.9083 14.62 47.9083 12.904ZM49.3843 12.868C49.3843 13.864 50.0203 14.608 50.9803 14.608C51.9883 14.608 52.6123 13.9 52.6123 12.868C52.6123 11.86 52.0003 11.164 50.9803 11.164C50.0083 11.164 49.3843 11.896 49.3843 12.868ZM56.3474 8.884C55.8434 8.884 55.4474 8.488 55.4474 7.996C55.4474 7.504 55.8434 7.12 56.3474 7.12C56.8274 7.12 57.2234 7.504 57.2234 7.996C57.2234 8.488 56.8274 8.884 56.3474 8.884ZM55.6154 16V10.072H57.0794V16H55.6154ZM60.0559 16H58.5919V10.072H59.9479L60.0679 10.84C60.4399 10.24 61.1599 9.892 61.9639 9.892C63.4519 9.892 64.2199 10.816 64.2199 12.352V16H62.7559V12.7C62.7559 11.704 62.2639 11.224 61.5079 11.224C60.6079 11.224 60.0559 11.848 60.0559 12.808V16Z" fill="black"/>
</svg>
