<svg width="101" height="24" viewBox="0 0 101 24" fill="none" xmlns="http://www.w3.org/2000/svg">
<path d="M22 22.75H5C2.93 22.75 1.25 21.07 1.25 19V2C1.25 1.59 1.59 1.25 2 1.25C2.41 1.25 2.75 1.59 2.75 2V19C2.75 20.24 3.76 21.25 5 21.25H22C22.41 21.25 22.75 21.59 22.75 22C22.75 22.41 22.41 22.75 22 22.75Z" fill="#1A1A1A"/>
<path opacity="0.4" d="M4.99982 17.7498C4.82982 17.7498 4.64982 17.6898 4.50982 17.5698C4.19982 17.2998 4.15982 16.8298 4.42982 16.5098L9.01982 11.1498C9.51982 10.5698 10.2398 10.2198 10.9998 10.1898C11.7598 10.1698 12.5098 10.4498 13.0498 10.9898L13.9998 11.9398C14.2498 12.1898 14.5698 12.3098 14.9298 12.3098C15.2798 12.2998 15.5998 12.1398 15.8298 11.8698L20.4198 6.50983C20.6898 6.19983 21.1598 6.15981 21.4798 6.42981C21.7898 6.69981 21.8298 7.16981 21.5598 7.48981L16.9698 12.8498C16.4698 13.4298 15.7498 13.7798 14.9898 13.8098C14.2198 13.8298 13.4798 13.5498 12.9398 13.0098L11.9998 12.0598C11.7498 11.8098 11.4198 11.6798 11.0698 11.6898C10.7198 11.6998 10.3998 11.8598 10.1698 12.1298L5.57982 17.4898C5.41982 17.6598 5.20982 17.7498 4.99982 17.7498Z" fill="#1A1A1A"/>
<path d="M38.128 16H34.972V7.228H38.044C40.636 7.228 42.424 9.016 42.424 11.632C42.424 14.212 40.672 16 38.128 16ZM37.9 8.644H36.508V14.584H37.984C39.736 14.584 40.804 13.456 40.804 11.632C40.804 9.772 39.712 8.644 37.9 8.644ZM44.3708 8.884C43.8668 8.884 43.4708 8.488 43.4708 7.996C43.4708 7.504 43.8668 7.12 44.3708 7.12C44.8508 7.12 45.2468 7.504 45.2468 7.996C45.2468 8.488 44.8508 8.884 44.3708 8.884ZM43.6388 16V10.072H45.1028V16H43.6388ZM48.3794 16.156C47.1194 16.156 46.3514 15.424 46.3514 14.308C46.3514 13.216 47.1434 12.532 48.5474 12.424L50.3234 12.292V12.16C50.3234 11.356 49.8434 11.032 49.0994 11.032C48.2354 11.032 47.7554 11.392 47.7554 12.016H46.5074C46.5074 10.732 47.5634 9.892 49.1714 9.892C50.7674 9.892 51.7514 10.756 51.7514 12.4V16H50.4674L50.3594 15.124C50.1074 15.736 49.3034 16.156 48.3794 16.156ZM48.8594 15.052C49.7594 15.052 50.3354 14.512 50.3354 13.6V13.288L49.0994 13.384C48.1874 13.468 47.8394 13.768 47.8394 14.248C47.8394 14.788 48.1994 15.052 48.8594 15.052ZM52.8536 12.904C52.8536 11.176 53.9816 9.88 55.6736 9.88C56.5616 9.88 57.2576 10.252 57.6056 10.888L57.6896 10.072H59.0456V15.7C59.0456 17.68 57.8576 18.916 55.9376 18.916C54.2336 18.916 53.0696 17.944 52.8896 16.36H54.3536C54.4496 17.128 55.0376 17.584 55.9376 17.584C56.9456 17.584 57.5936 16.948 57.5936 15.964V14.98C57.2216 15.532 56.4896 15.88 55.6376 15.88C53.9576 15.88 52.8536 14.62 52.8536 12.904ZM54.3296 12.868C54.3296 13.864 54.9656 14.608 55.9256 14.608C56.9336 14.608 57.5576 13.9 57.5576 12.868C57.5576 11.86 56.9456 11.164 55.9256 11.164C54.9536 11.164 54.3296 11.896 54.3296 12.868ZM64.2807 10.048V11.404H63.7407C62.6847 11.404 62.0247 11.968 62.0247 13.12V16H60.5607V10.084H61.9407L62.0247 10.948C62.2767 10.36 62.8407 9.964 63.6327 9.964C63.8367 9.964 64.0407 9.988 64.2807 10.048ZM66.8013 16.156C65.5413 16.156 64.7733 15.424 64.7733 14.308C64.7733 13.216 65.5653 12.532 66.9693 12.424L68.7453 12.292V12.16C68.7453 11.356 68.2653 11.032 67.5213 11.032C66.6573 11.032 66.1773 11.392 66.1773 12.016H64.9293C64.9293 10.732 65.9853 9.892 67.5933 9.892C69.1893 9.892 70.1733 10.756 70.1733 12.4V16H68.8893L68.7813 15.124C68.5293 15.736 67.7253 16.156 66.8013 16.156ZM67.2812 15.052C68.1813 15.052 68.7573 14.512 68.7573 13.6V13.288L67.5213 13.384C66.6093 13.468 66.2613 13.768 66.2613 14.248C66.2613 14.788 66.6213 15.052 67.2812 15.052ZM73.0755 16H71.6115V10.072H72.9555L73.0755 10.768C73.3755 10.276 73.9755 9.892 74.8275 9.892C75.7275 9.892 76.3515 10.336 76.6635 11.02C76.9635 10.336 77.6595 9.892 78.5595 9.892C79.9995 9.892 80.7915 10.756 80.7915 12.124V16H79.3395V12.508C79.3395 11.656 78.8835 11.212 78.1875 11.212C77.4795 11.212 76.9395 11.668 76.9395 12.64V16H75.4755V12.496C75.4755 11.668 75.0315 11.224 74.3355 11.224C73.6395 11.224 73.0755 11.68 73.0755 12.64V16Z" fill="black"/>
</svg>
