<svg width="101" height="24" viewBox="0 0 101 24" fill="none" xmlns="http://www.w3.org/2000/svg">
<path d="M15.26 22.0004C15.2 22.0004 15.13 21.9904 15.07 21.9704C13.06 21.4004 10.95 21.4004 8.93997 21.9704C8.56997 22.0704 8.17997 21.8604 8.07997 21.4904C7.96997 21.1204 8.18997 20.7304 8.55997 20.6304C10.82 19.9904 13.2 19.9904 15.46 20.6304C15.83 20.7404 16.05 21.1204 15.94 21.4904C15.84 21.8004 15.56 22.0004 15.26 22.0004Z" fill="#1A1A1A"/>
<path d="M4.17999 19.0799C3.98999 19.0799 3.8 19.0099 3.65 18.8599C3.36 18.5699 3.36 18.0899 3.65 17.7999L19.5 1.94992C19.79 1.65992 20.27 1.65992 20.56 1.94992C20.85 2.23992 20.85 2.71992 20.56 3.00992L4.71 18.8599C4.56 19.0099 4.36999 19.0799 4.17999 19.0799Z" fill="#1A1A1A"/>
<path opacity="0.4" d="M16.6297 3.42007L5.48973 14.5601C4.52973 13.2001 3.96973 11.6001 3.96973 10.0501C3.96973 7.60007 5.05973 5.31007 6.96973 3.77007C8.87973 2.23007 11.3797 1.66007 13.8297 2.20007C14.8397 2.42007 15.7897 2.84007 16.6297 3.42007Z" fill="#1A1A1A"/>
<path opacity="0.4" d="M16.1704 16.9205V17.6205C16.1804 17.8805 16.2004 18.3805 15.8104 18.7805C15.5304 19.0605 15.1204 19.2105 14.5804 19.2105H9.45035C9.04035 19.2105 8.52035 19.1605 8.17035 18.8105C7.84035 18.4605 7.85035 18.0305 7.86035 17.7505V16.9205C7.41035 16.6205 6.99035 16.2805 6.61035 15.9005L17.9504 4.56055C18.4504 5.09055 18.8804 5.70055 19.2104 6.36055C21.2304 10.4205 19.2804 14.8305 16.1704 16.9205Z" fill="#1A1A1A"/>
<path d="M36.508 7.228V14.584H40.18V16H34.972V7.228H36.508ZM42.977 16.156C41.717 16.156 40.949 15.424 40.949 14.308C40.949 13.216 41.741 12.532 43.145 12.424L44.921 12.292V12.16C44.921 11.356 44.441 11.032 43.697 11.032C42.833 11.032 42.353 11.392 42.353 12.016H41.105C41.105 10.732 42.161 9.892 43.769 9.892C45.365 9.892 46.349 10.756 46.349 12.4V16H45.065L44.957 15.124C44.705 15.736 43.901 16.156 42.977 16.156ZM43.457 15.052C44.357 15.052 44.933 14.512 44.933 13.6V13.288L43.697 13.384C42.785 13.468 42.437 13.768 42.437 14.248C42.437 14.788 42.797 15.052 43.457 15.052ZM49.2513 16H47.7873V10.072H49.1313L49.2513 10.768C49.5513 10.276 50.1513 9.892 51.0033 9.892C51.9033 9.892 52.5273 10.336 52.8393 11.02C53.1393 10.336 53.8353 9.892 54.7353 9.892C56.1753 9.892 56.9673 10.756 56.9673 12.124V16H55.5153V12.508C55.5153 11.656 55.0593 11.212 54.3633 11.212C53.6553 11.212 53.1153 11.668 53.1153 12.64V16H51.6513V12.496C51.6513 11.668 51.2073 11.224 50.5113 11.224C49.8153 11.224 49.2513 11.68 49.2513 12.64V16ZM58.4044 18.748V10.072H59.7604L59.8564 10.972C60.2164 10.288 60.9964 9.892 61.8964 9.892C63.5644 9.892 64.6684 11.104 64.6684 12.964C64.6684 14.812 63.6604 16.156 61.8964 16.156C61.0084 16.156 60.2404 15.808 59.8684 15.208V18.748H58.4044ZM59.8804 13.036C59.8804 14.104 60.5404 14.836 61.5484 14.836C62.5804 14.836 63.1924 14.092 63.1924 13.036C63.1924 11.98 62.5804 11.224 61.5484 11.224C60.5404 11.224 59.8804 11.968 59.8804 13.036ZM65.8221 13.444V12.148H69.6861V13.444H65.8221ZM70.6398 14.2H72.0318C72.0438 14.716 72.4278 15.04 73.0998 15.04C73.7838 15.04 74.1558 14.764 74.1558 14.332C74.1558 14.032 73.9998 13.816 73.4718 13.696L72.4038 13.444C71.3358 13.204 70.8198 12.7 70.8198 11.752C70.8198 10.588 71.8038 9.892 73.1718 9.892C74.5038 9.892 75.4038 10.66 75.4158 11.812H74.0238C74.0118 11.308 73.6758 10.984 73.1118 10.984C72.5358 10.984 72.1998 11.248 72.1998 11.692C72.1998 12.028 72.4638 12.244 72.9678 12.364L74.0358 12.616C75.0318 12.844 75.5358 13.3 75.5358 14.212C75.5358 15.412 74.5158 16.156 73.0518 16.156C71.5758 16.156 70.6398 15.364 70.6398 14.2ZM78.1265 16H76.6745V7.072H78.1265V16ZM81.4263 16.156C80.1663 16.156 79.3983 15.424 79.3983 14.308C79.3983 13.216 80.1903 12.532 81.5943 12.424L83.3703 12.292V12.16C83.3703 11.356 82.8903 11.032 82.1463 11.032C81.2823 11.032 80.8023 11.392 80.8023 12.016H79.5543C79.5543 10.732 80.6103 9.892 82.2183 9.892C83.8143 9.892 84.7983 10.756 84.7983 12.4V16H83.5143L83.4063 15.124C83.1543 15.736 82.3503 16.156 81.4263 16.156ZM81.9062 15.052C82.8063 15.052 83.3823 14.512 83.3823 13.6V13.288L82.1463 13.384C81.2343 13.468 80.8863 13.768 80.8863 14.248C80.8863 14.788 81.2463 15.052 81.9062 15.052ZM85.7805 14.2H87.1725C87.1845 14.716 87.5685 15.04 88.2405 15.04C88.9245 15.04 89.2965 14.764 89.2965 14.332C89.2965 14.032 89.1405 13.816 88.6125 13.696L87.5445 13.444C86.4765 13.204 85.9605 12.7 85.9605 11.752C85.9605 10.588 86.9445 9.892 88.3125 9.892C89.6445 9.892 90.5445 10.66 90.5565 11.812H89.1645C89.1525 11.308 88.8165 10.984 88.2525 10.984C87.6765 10.984 87.3405 11.248 87.3405 11.692C87.3405 12.028 87.6045 12.244 88.1085 12.364L89.1765 12.616C90.1725 12.844 90.6765 13.3 90.6765 14.212C90.6765 15.412 89.6565 16.156 88.1925 16.156C86.7165 16.156 85.7805 15.364 85.7805 14.2ZM93.2552 16H91.7912V7.072H93.2672V10.84C93.6392 10.264 94.3352 9.892 95.1872 9.892C96.6512 9.892 97.4192 10.816 97.4192 12.352V16H95.9552V12.7C95.9552 11.704 95.4632 11.224 94.7192 11.224C93.7952 11.224 93.2552 11.872 93.2552 12.76V16Z" fill="black"/>
</svg>
