<svg width="122" height="24" viewBox="0 0 122 24" fill="none" xmlns="http://www.w3.org/2000/svg">
<path opacity="0.4" d="M2.74982 18.65C2.33982 18.65 1.99982 18.31 1.99982 17.9V12.2C1.94982 9.49005 2.95982 6.93005 4.83982 5.01005C6.71982 3.10005 9.23982 2.05005 11.9498 2.05005C17.4898 2.05005 21.9998 6.56005 21.9998 12.1V17.8C21.9998 18.21 21.6598 18.55 21.2498 18.55C20.8398 18.55 20.4998 18.21 20.4998 17.8V12.1C20.4998 7.39005 16.6698 3.55005 11.9498 3.55005C9.63982 3.55005 7.49982 4.44005 5.90982 6.06005C4.30982 7.69005 3.45982 9.86005 3.49982 12.18V17.89C3.49982 18.31 3.16982 18.65 2.74982 18.65Z" fill="#1A1A1A"/>
<path d="M5.94 12.45H5.81C3.71 12.45 2 14.16 2 16.26V18.14C2 20.24 3.71 21.95 5.81 21.95H5.94C8.04 21.95 9.75 20.24 9.75 18.14V16.26C9.75 14.16 8.04 12.45 5.94 12.45Z" fill="#1A1A1A"/>
<path d="M18.19 12.45H18.06C15.96 12.45 14.25 14.16 14.25 16.26V18.14C14.25 20.24 15.96 21.95 18.06 21.95H18.19C20.29 21.95 22 20.24 22 18.14V16.26C22 14.16 20.29 12.45 18.19 12.45Z" fill="#1A1A1A"/>
<path d="M36.508 16H34.972V7.228H36.508V10.852H40.396V7.228H41.932V16H40.396V12.28H36.508V16ZM46.3143 16.156C44.5503 16.156 43.3143 14.872 43.3143 13.036C43.3143 11.176 44.5263 9.892 46.2663 9.892C48.0423 9.892 49.1703 11.08 49.1703 12.928V13.372L44.7063 13.384C44.8143 14.428 45.3663 14.956 46.3383 14.956C47.1423 14.956 47.6703 14.644 47.8383 14.08H49.1943C48.9423 15.376 47.8623 16.156 46.3143 16.156ZM46.2783 11.092C45.4143 11.092 44.8863 11.56 44.7423 12.448H47.7183C47.7183 11.632 47.1543 11.092 46.2783 11.092ZM52.0473 16.156C50.7873 16.156 50.0193 15.424 50.0193 14.308C50.0193 13.216 50.8113 12.532 52.2153 12.424L53.9913 12.292V12.16C53.9913 11.356 53.5113 11.032 52.7673 11.032C51.9033 11.032 51.4233 11.392 51.4233 12.016H50.1753C50.1753 10.732 51.2313 9.892 52.8393 9.892C54.4353 9.892 55.4193 10.756 55.4193 12.4V16H54.1353L54.0273 15.124C53.7753 15.736 52.9713 16.156 52.0473 16.156ZM52.5273 15.052C53.4273 15.052 54.0033 14.512 54.0033 13.6V13.288L52.7673 13.384C51.8553 13.468 51.5073 13.768 51.5073 14.248C51.5073 14.788 51.8673 15.052 52.5273 15.052ZM59.2936 16.156C57.5776 16.156 56.5096 14.896 56.5096 13.06C56.5096 11.212 57.5896 9.892 59.3776 9.892C60.2056 9.892 60.9376 10.24 61.3096 10.828V7.072H62.7616V16H61.4176L61.3216 15.076C60.9616 15.76 60.1936 16.156 59.2936 16.156ZM59.6176 14.812C60.6376 14.812 61.2976 14.08 61.2976 13.012C61.2976 11.944 60.6376 11.2 59.6176 11.2C58.5976 11.2 57.9736 11.956 57.9736 13.012C57.9736 14.068 58.5976 14.812 59.6176 14.812ZM64.2873 18.748V10.072H65.6433L65.7393 10.972C66.0993 10.288 66.8793 9.892 67.7793 9.892C69.4473 9.892 70.5513 11.104 70.5513 12.964C70.5513 14.812 69.5433 16.156 67.7793 16.156C66.8913 16.156 66.1233 15.808 65.7513 15.208V18.748H64.2873ZM65.7633 13.036C65.7633 14.104 66.4233 14.836 67.4313 14.836C68.4633 14.836 69.0753 14.092 69.0753 13.036C69.0753 11.98 68.4633 11.224 67.4313 11.224C66.4233 11.224 65.7633 11.968 65.7633 13.036ZM73.1809 16H71.7169V7.072H73.1929V10.84C73.5649 10.264 74.2609 9.892 75.1129 9.892C76.5769 9.892 77.3449 10.816 77.3449 12.352V16H75.8809V12.7C75.8809 11.704 75.3889 11.224 74.6449 11.224C73.7209 11.224 73.1809 11.872 73.1809 12.76V16ZM78.4353 13.024C78.4353 11.176 79.7673 9.904 81.6033 9.904C83.4393 9.904 84.7713 11.176 84.7713 13.024C84.7713 14.872 83.4393 16.144 81.6033 16.144C79.7673 16.144 78.4353 14.872 78.4353 13.024ZM79.8993 13.024C79.8993 14.104 80.5953 14.836 81.6033 14.836C82.6113 14.836 83.3073 14.104 83.3073 13.024C83.3073 11.944 82.6113 11.212 81.6033 11.212C80.5953 11.212 79.8993 11.944 79.8993 13.024ZM87.3958 16H85.9318V10.072H87.2878L87.4078 10.84C87.7798 10.24 88.4998 9.892 89.3038 9.892C90.7918 9.892 91.5598 10.816 91.5598 12.352V16H90.0958V12.7C90.0958 11.704 89.6038 11.224 88.8478 11.224C87.9478 11.224 87.3958 11.848 87.3958 12.808V16ZM95.6502 16.156C93.8862 16.156 92.6502 14.872 92.6502 13.036C92.6502 11.176 93.8622 9.892 95.6022 9.892C97.3782 9.892 98.5062 11.08 98.5062 12.928V13.372L94.0422 13.384C94.1502 14.428 94.7022 14.956 95.6742 14.956C96.4782 14.956 97.0062 14.644 97.1742 14.08H98.5302C98.2782 15.376 97.1982 16.156 95.6502 16.156ZM95.6142 11.092C94.7502 11.092 94.2222 11.56 94.0782 12.448H97.0542C97.0542 11.632 96.4902 11.092 95.6142 11.092Z" fill="black"/>
</svg>
