<svg width="101" height="24" viewBox="0 0 101 24" fill="none" xmlns="http://www.w3.org/2000/svg">
<path opacity="0.4" d="M15.7201 2H8.28008C7.90008 2 7.58008 2.32 7.58008 2.7C7.58008 3.08 7.90008 3.4 8.28008 3.4H11.5401L12.9401 5.26C13.2501 5.67 13.2901 5.73 13.8701 5.73H17.5901C17.9701 5.73 18.3401 5.78 18.7001 5.88C18.7401 6.06 18.7601 6.24 18.7601 6.43V6.78C18.7601 7.16 19.0801 7.48 19.4601 7.48C19.8401 7.48 20.1601 7.16 20.1601 6.78V6.42C20.1401 3.98 18.1601 2 15.7201 2Z" fill="#1A1A1A"/>
<path d="M20.14 6.54C19.71 6.23 19.22 6 18.69 5.87C18.34 5.77 17.96 5.72 17.58 5.72H13.86C13.28 5.72 13.24 5.66 12.93 5.25L11.53 3.39C10.88 2.53 10.37 2 8.74 2H6.42C3.98 2 2 3.98 2 6.42V17.58C2 20.02 3.98 22 6.42 22H17.58C20.02 22 22 20.02 22 17.58V10.14C22 8.65 21.27 7.34 20.14 6.54ZM14.33 16H9.67C9.28 16 8.97 15.69 8.97 15.3C8.97 14.92 9.28 14.6 9.67 14.6H14.32C14.7 14.6 15.02 14.92 15.02 15.3C15.02 15.69 14.71 16 14.33 16Z" fill="#1A1A1A"/>
<path d="M39.772 12.412H36.508V16H34.972V7.228H40.396V8.644H36.508V11.032H39.772V12.412ZM40.7596 13.024C40.7596 11.176 42.0916 9.904 43.9276 9.904C45.7636 9.904 47.0956 11.176 47.0956 13.024C47.0956 14.872 45.7636 16.144 43.9276 16.144C42.0916 16.144 40.7596 14.872 40.7596 13.024ZM42.2236 13.024C42.2236 14.104 42.9196 14.836 43.9276 14.836C44.9356 14.836 45.6316 14.104 45.6316 13.024C45.6316 11.944 44.9356 11.212 43.9276 11.212C42.9196 11.212 42.2236 11.944 42.2236 13.024ZM49.732 16H48.28V7.072H49.732V16ZM53.7037 16.156C51.9877 16.156 50.9197 14.896 50.9197 13.06C50.9197 11.212 51.9997 9.892 53.7877 9.892C54.6157 9.892 55.3477 10.24 55.7197 10.828V7.072H57.1717V16H55.8277L55.7317 15.076C55.3717 15.76 54.6037 16.156 53.7037 16.156ZM54.0277 14.812C55.0477 14.812 55.7077 14.08 55.7077 13.012C55.7077 11.944 55.0477 11.2 54.0277 11.2C53.0077 11.2 52.3837 11.956 52.3837 13.012C52.3837 14.068 53.0077 14.812 54.0277 14.812ZM61.3494 16.156C59.5854 16.156 58.3494 14.872 58.3494 13.036C58.3494 11.176 59.5614 9.892 61.3014 9.892C63.0774 9.892 64.2054 11.08 64.2054 12.928V13.372L59.7414 13.384C59.8494 14.428 60.4014 14.956 61.3734 14.956C62.1774 14.956 62.7054 14.644 62.8734 14.08H64.2294C63.9774 15.376 62.8974 16.156 61.3494 16.156ZM61.3134 11.092C60.4494 11.092 59.9214 11.56 59.7774 12.448H62.7534C62.7534 11.632 62.1894 11.092 61.3134 11.092ZM69.0971 10.048V11.404H68.5571C67.5011 11.404 66.8411 11.968 66.8411 13.12V16H65.3771V10.084H66.7571L66.8411 10.948C67.0931 10.36 67.6571 9.964 68.4491 9.964C68.6531 9.964 68.8571 9.988 69.0971 10.048ZM69.6424 13.444V12.148H73.5064V13.444H69.6424ZM80.1048 15.988L74.0208 16V14.848L76.8888 12.424C78.0768 11.416 78.4728 10.84 78.4728 10C78.4728 9.004 77.9328 8.44 77.0088 8.44C76.0488 8.44 75.4488 9.112 75.4368 10.24H73.9128C73.9248 8.32 75.1488 7.072 77.0088 7.072C78.8808 7.072 80.0448 8.14 80.0448 9.916C80.0448 11.14 79.3728 12.064 78.0408 13.204L76.4568 14.56H80.1048V15.988Z" fill="black"/>
</svg>
