<svg width="126" height="24" viewBox="0 0 126 24" fill="none" xmlns="http://www.w3.org/2000/svg">
<path opacity="0.4" d="M7.81 2H16.18C19.83 2 22 4.17 22 7.81V16.18C22 19.82 19.83 21.99 16.19 21.99H7.81C4.17 22 2 19.83 2 16.19V7.81C2 4.17 4.17 2 7.81 2Z" fill="#1A1A1A"/>
<path d="M17.53 9.16006L15.96 7.59006C15.67 7.30006 15.19 7.30006 14.9 7.59006C14.61 7.88006 14.61 8.36006 14.9 8.65006L15.23 8.98006H10.08C7.97 8.98006 6.25 10.7001 6.25 12.8101C6.25 14.9201 7.97 16.6401 10.08 16.6401H15C15.41 16.6401 15.75 16.3001 15.75 15.8901C15.75 15.4801 15.41 15.1401 15 15.1401H10.08C8.8 15.1401 7.75 14.1001 7.75 12.8101C7.75 11.5201 8.79 10.4801 10.08 10.4801H15.16L14.9 10.7401C14.61 11.0301 14.61 11.5101 14.9 11.8001C15.05 11.9501 15.24 12.0201 15.43 12.0201C15.62 12.0201 15.81 11.9501 15.96 11.8001L17.53 10.2301C17.82 9.93006 17.82 9.46006 17.53 9.16006Z" fill="#1A1A1A"/>
<path d="M36.5079 16H34.9719V7.228H38.3199C40.3119 7.228 41.4759 8.236 41.4759 9.964C41.4759 11.14 40.9239 11.98 39.8919 12.4L41.5599 16H39.8799L38.3919 12.724H36.5079V16ZM36.5079 8.596V11.368H38.3199C39.2919 11.368 39.8679 10.852 39.8679 9.964C39.8679 9.088 39.2919 8.596 38.3199 8.596H36.5079ZM45.0251 16.156C43.2611 16.156 42.0251 14.872 42.0251 13.036C42.0251 11.176 43.2371 9.892 44.9771 9.892C46.7531 9.892 47.8811 11.08 47.8811 12.928V13.372L43.4171 13.384C43.5251 14.428 44.0771 14.956 45.0491 14.956C45.8531 14.956 46.3811 14.644 46.5491 14.08H47.9051C47.6531 15.376 46.5731 16.156 45.0251 16.156ZM44.9891 11.092C44.1251 11.092 43.5971 11.56 43.4531 12.448H46.4291C46.4291 11.632 45.8651 11.092 44.9891 11.092ZM51.4888 16.156C49.7728 16.156 48.7048 14.896 48.7048 13.06C48.7048 11.212 49.7848 9.892 51.5728 9.892C52.4008 9.892 53.1328 10.24 53.5048 10.828V7.072H54.9568V16H53.6128L53.5168 15.076C53.1568 15.76 52.3888 16.156 51.4888 16.156ZM51.8128 14.812C52.8328 14.812 53.4928 14.08 53.4928 13.012C53.4928 11.944 52.8328 11.2 51.8128 11.2C50.7928 11.2 50.1688 11.956 50.1688 13.012C50.1688 14.068 50.7928 14.812 51.8128 14.812ZM56.1345 13.024C56.1345 11.176 57.4665 9.904 59.3025 9.904C61.1385 9.904 62.4705 11.176 62.4705 13.024C62.4705 14.872 61.1385 16.144 59.3025 16.144C57.4665 16.144 56.1345 14.872 56.1345 13.024ZM57.5985 13.024C57.5985 14.104 58.2945 14.836 59.3025 14.836C60.3105 14.836 61.0065 14.104 61.0065 13.024C61.0065 11.944 60.3105 11.212 59.3025 11.212C58.2945 11.212 57.5985 11.944 57.5985 13.024Z" fill="black"/>
</svg>
