<svg width="114" height="24" viewBox="0 0 114 24" fill="none" xmlns="http://www.w3.org/2000/svg">
<path opacity="0.4" d="M22 9.75C21.59 9.75 21.25 9.41 21.25 9V7C21.25 4.42 19.58 2.75 17 2.75H7C4.42 2.75 2.75 4.42 2.75 7V9C2.75 9.41 2.41 9.75 2 9.75C1.59 9.75 1.25 9.41 1.25 9V7C1.25 3.56 3.56 1.25 7 1.25H17C20.44 1.25 22.75 3.56 22.75 7V9C22.75 9.41 22.41 9.75 22 9.75Z" fill="#1A1A1A"/>
<path opacity="0.4" d="M17 22.75H7C3.56 22.75 1.25 20.44 1.25 17V15C1.25 14.59 1.59 14.25 2 14.25C2.41 14.25 2.75 14.59 2.75 15V17C2.75 19.58 4.42 21.25 7 21.25H17C19.58 21.25 21.25 19.58 21.25 17V15C21.25 14.59 21.59 14.25 22 14.25C22.41 14.25 22.75 14.59 22.75 15V17C22.75 20.44 20.44 22.75 17 22.75Z" fill="#1A1A1A"/>
<path d="M16.3999 8.20999L12.6399 6.17996C12.2399 5.96996 11.7699 5.96996 11.3699 6.17996L7.60992 8.20999C7.33992 8.35999 7.16992 8.64995 7.16992 8.97995C7.16992 9.30995 7.33992 9.59997 7.60992 9.74997L11.3699 11.78C11.5699 11.89 11.7899 11.94 12.0099 11.94C12.2299 11.94 12.4499 11.89 12.6499 11.78L16.4099 9.74997C16.6799 9.59997 16.8499 9.30995 16.8499 8.97995C16.8399 8.64995 16.6699 8.35999 16.3999 8.20999Z" fill="#1A1A1A"/>
<path d="M10.7402 12.4704L7.24023 10.7204C6.97023 10.5904 6.66022 10.6004 6.40022 10.7604C6.14022 10.9204 5.99023 11.1904 5.99023 11.4904V14.8004C5.99023 15.3704 6.31024 15.8904 6.82024 16.1404L10.3202 17.8904C10.4402 17.9504 10.5702 17.9804 10.7102 17.9804C10.8702 17.9804 11.0202 17.9404 11.1602 17.8504C11.4202 17.6904 11.5702 17.4204 11.5702 17.1204V13.8104C11.5702 13.2404 11.2602 12.7304 10.7402 12.4704Z" fill="#1A1A1A"/>
<path d="M17.5899 10.7604C17.3299 10.6004 17.0199 10.5904 16.7499 10.7204L13.2499 12.4704C12.7399 12.7304 12.4199 13.2404 12.4199 13.8104V17.1204C12.4199 17.4204 12.5699 17.6904 12.8299 17.8504C12.9699 17.9404 13.1199 17.9804 13.2799 17.9804C13.4099 17.9804 13.5399 17.9504 13.6699 17.8904L17.1699 16.1404C17.6799 15.8804 17.9999 15.3704 17.9999 14.8004V11.4904C17.9999 11.1904 17.8499 10.9204 17.5899 10.7604Z" fill="#1A1A1A"/>
<path d="M37.108 12.656H36.04V11.66L38.296 9.584H34.648V8.228H40.216V9.452L38.08 11.42C39.424 11.684 40.468 12.668 40.468 14.216C40.468 16.016 39.064 17.156 37.288 17.156C35.572 17.156 34.24 16.1 34.24 14.204H35.752C35.752 15.212 36.376 15.788 37.312 15.788C38.272 15.788 38.908 15.164 38.908 14.192C38.908 13.304 38.332 12.656 37.108 12.656ZM44.96 17H41.804V8.228H44.876C47.468 8.228 49.256 10.016 49.256 12.632C49.256 15.212 47.504 17 44.96 17ZM44.732 9.644H43.34V15.584H44.816C46.568 15.584 47.636 14.456 47.636 12.632C47.636 10.772 46.544 9.644 44.732 9.644ZM50.4588 14.444V13.148H54.3228V14.444H50.4588ZM55.4666 14.024C55.4666 12.188 56.6786 10.892 58.4306 10.892C60.0506 10.892 61.1546 11.792 61.3106 13.22H59.8466C59.6786 12.548 59.1866 12.2 58.4906 12.2C57.5546 12.2 56.9306 12.908 56.9306 14.024C56.9306 15.14 57.5066 15.836 58.4426 15.836C59.1746 15.836 59.6906 15.476 59.8466 14.828H61.3226C61.1426 16.208 59.9906 17.156 58.4426 17.156C56.6426 17.156 55.4666 15.908 55.4666 14.024ZM66.4323 11.072H67.8963V17H66.5403L66.4323 16.208C66.0723 16.772 65.3043 17.156 64.5123 17.156C63.1443 17.156 62.3403 16.232 62.3403 14.78V11.072H63.8043V14.264C63.8043 15.392 64.2483 15.848 65.0643 15.848C65.9883 15.848 66.4323 15.308 66.4323 14.18V11.072ZM70.7643 17H69.4083V8.072H70.8723V11.936C71.2563 11.276 72.0483 10.88 72.9483 10.88C74.6403 10.88 75.6723 12.2 75.6723 14.072C75.6723 15.896 74.5563 17.156 72.8523 17.156C71.9643 17.156 71.2083 16.76 70.8603 16.076L70.7643 17ZM70.8843 14.012C70.8843 15.08 71.5443 15.812 72.5523 15.812C73.5843 15.812 74.1963 15.068 74.1963 14.012C74.1963 12.956 73.5843 12.2 72.5523 12.2C71.5443 12.2 70.8843 12.944 70.8843 14.012ZM79.49 17.156C77.726 17.156 76.49 15.872 76.49 14.036C76.49 12.176 77.702 10.892 79.442 10.892C81.218 10.892 82.346 12.08 82.346 13.928V14.372L77.882 14.384C77.99 15.428 78.542 15.956 79.514 15.956C80.318 15.956 80.846 15.644 81.014 15.08H82.37C82.118 16.376 81.038 17.156 79.49 17.156ZM79.454 12.092C78.59 12.092 78.062 12.56 77.918 13.448H80.894C80.894 12.632 80.33 12.092 79.454 12.092ZM83.5057 14.444V13.148H87.3697V14.444H83.5057ZM88.3234 15.2H89.7154C89.7274 15.716 90.1114 16.04 90.7834 16.04C91.4674 16.04 91.8394 15.764 91.8394 15.332C91.8394 15.032 91.6834 14.816 91.1554 14.696L90.0874 14.444C89.0194 14.204 88.5034 13.7 88.5034 12.752C88.5034 11.588 89.4874 10.892 90.8554 10.892C92.1874 10.892 93.0874 11.66 93.0994 12.812H91.7074C91.6954 12.308 91.3594 11.984 90.7954 11.984C90.2194 11.984 89.8834 12.248 89.8834 12.692C89.8834 13.028 90.1474 13.244 90.6514 13.364L91.7194 13.616C92.7154 13.844 93.2194 14.3 93.2194 15.212C93.2194 16.412 92.1994 17.156 90.7354 17.156C89.2594 17.156 88.3234 16.364 88.3234 15.2ZM93.9861 14.024C93.9861 12.188 95.1981 10.892 96.9501 10.892C98.5701 10.892 99.6741 11.792 99.8301 13.22H98.3661C98.1981 12.548 97.7061 12.2 97.0101 12.2C96.0741 12.2 95.4501 12.908 95.4501 14.024C95.4501 15.14 96.0261 15.836 96.9621 15.836C97.6941 15.836 98.2101 15.476 98.3661 14.828H99.8421C99.6621 16.208 98.5101 17.156 96.9621 17.156C95.1621 17.156 93.9861 15.908 93.9861 14.024ZM102.696 17.156C101.436 17.156 100.668 16.424 100.668 15.308C100.668 14.216 101.46 13.532 102.864 13.424L104.64 13.292V13.16C104.64 12.356 104.16 12.032 103.416 12.032C102.552 12.032 102.072 12.392 102.072 13.016H100.824C100.824 11.732 101.88 10.892 103.488 10.892C105.084 10.892 106.068 11.756 106.068 13.4V17H104.784L104.676 16.124C104.424 16.736 103.62 17.156 102.696 17.156ZM103.176 16.052C104.076 16.052 104.652 15.512 104.652 14.6V14.288L103.416 14.384C102.504 14.468 102.156 14.768 102.156 15.248C102.156 15.788 102.516 16.052 103.176 16.052ZM108.97 17H107.506V11.072H108.862L108.982 11.84C109.354 11.24 110.074 10.892 110.878 10.892C112.366 10.892 113.134 11.816 113.134 13.352V17H111.67V13.7C111.67 12.704 111.178 12.224 110.422 12.224C109.522 12.224 108.97 12.848 108.97 13.808V17Z" fill="black"/>
</svg>
