<svg width="178" height="24" viewBox="0 0 178 24" fill="none" xmlns="http://www.w3.org/2000/svg">
<path opacity="0.4" d="M16.1898 2H7.81976C4.17976 2 2.00977 4.17 2.00977 7.81V16.18C2.00977 19.82 4.17976 21.99 7.81976 21.99H16.1898C19.8298 21.99 21.9998 19.82 21.9998 16.18V7.81C21.9998 4.17 19.8298 2 16.1898 2Z" fill="#1A1A1A"/>
<path d="M7.5 16.75C7.09 16.75 6.75 16.41 6.75 16V8C6.75 7.59 7.09 7.25 7.5 7.25H9.5C11.02 7.25 12.25 8.48 12.25 10C12.25 11.52 11.02 12.75 9.5 12.75H8.25V16C8.25 16.41 7.91 16.75 7.5 16.75ZM8.25 11.25H9.5C10.19 11.25 10.75 10.69 10.75 10C10.75 9.31 10.19 8.75 9.5 8.75H8.25V11.25Z" fill="#1A1A1A"/>
<path d="M15.25 16.75H14C13.59 16.75 13.25 16.41 13.25 16C13.25 15.59 13.59 15.25 14 15.25H15.25C15.53 15.25 15.75 15.03 15.75 14.75C15.75 14.47 15.53 14.25 15.25 14.25C14.15 14.25 13.25 13.35 13.25 12.25C13.25 11.15 14.15 10.25 15.25 10.25H16.5C16.91 10.25 17.25 10.59 17.25 11C17.25 11.41 16.91 11.75 16.5 11.75H15.25C14.97 11.75 14.75 11.97 14.75 12.25C14.75 12.53 14.97 12.75 15.25 12.75C16.35 12.75 17.25 13.65 17.25 14.75C17.25 15.85 16.35 16.75 15.25 16.75Z" fill="#1A1A1A"/>
<path d="M38.44 12.976H36.508V16H34.972V7.228H38.44C40.204 7.228 41.344 8.38 41.344 10.096C41.344 11.788 40.192 12.976 38.44 12.976ZM38.14 8.596H36.508V11.608H38.116C39.172 11.608 39.736 11.044 39.736 10.084C39.736 9.124 39.16 8.596 38.14 8.596ZM43.8841 16H42.4201V7.072H43.8961V10.84C44.2681 10.264 44.9641 9.892 45.8161 9.892C47.2801 9.892 48.0481 10.816 48.0481 12.352V16H46.5841V12.7C46.5841 11.704 46.0921 11.224 45.3481 11.224C44.4241 11.224 43.8841 11.872 43.8841 12.76V16ZM49.1385 13.024C49.1385 11.176 50.4705 9.904 52.3065 9.904C54.1425 9.904 55.4745 11.176 55.4745 13.024C55.4745 14.872 54.1425 16.144 52.3065 16.144C50.4705 16.144 49.1385 14.872 49.1385 13.024ZM50.6025 13.024C50.6025 14.104 51.2985 14.836 52.3065 14.836C53.3145 14.836 54.0105 14.104 54.0105 13.024C54.0105 11.944 53.3145 11.212 52.3065 11.212C51.2985 11.212 50.6025 11.944 50.6025 13.024ZM58.5923 16H57.1283V11.296H55.9883V10.072H57.1283V8.224H58.5923V10.072H59.7443V11.296H58.5923V16ZM60.2478 13.024C60.2478 11.176 61.5798 9.904 63.4158 9.904C65.2518 9.904 66.5838 11.176 66.5838 13.024C66.5838 14.872 65.2518 16.144 63.4158 16.144C61.5798 16.144 60.2478 14.872 60.2478 13.024ZM61.7118 13.024C61.7118 14.104 62.4078 14.836 63.4158 14.836C64.4238 14.836 65.1198 14.104 65.1198 13.024C65.1198 11.944 64.4238 11.212 63.4158 11.212C62.4078 11.212 61.7118 11.944 61.7118 13.024ZM67.2883 14.2H68.6803C68.6923 14.716 69.0763 15.04 69.7483 15.04C70.4323 15.04 70.8043 14.764 70.8043 14.332C70.8043 14.032 70.6483 13.816 70.1203 13.696L69.0523 13.444C67.9843 13.204 67.4683 12.7 67.4683 11.752C67.4683 10.588 68.4523 9.892 69.8203 9.892C71.1523 9.892 72.0523 10.66 72.0643 11.812H70.6723C70.6603 11.308 70.3243 10.984 69.7603 10.984C69.1843 10.984 68.8483 11.248 68.8483 11.692C68.8483 12.028 69.1123 12.244 69.6163 12.364L70.6843 12.616C71.6803 12.844 72.1843 13.3 72.1843 14.212C72.1843 15.412 71.1643 16.156 69.7003 16.156C68.2243 16.156 67.2883 15.364 67.2883 14.2ZM74.763 16H73.299V7.072H74.775V10.84C75.147 10.264 75.843 9.892 76.695 9.892C78.159 9.892 78.927 10.816 78.927 12.352V16H77.463V12.7C77.463 11.704 76.971 11.224 76.227 11.224C75.303 11.224 74.763 11.872 74.763 12.76V16ZM80.0174 13.024C80.0174 11.176 81.3494 9.904 83.1854 9.904C85.0214 9.904 86.3534 11.176 86.3534 13.024C86.3534 14.872 85.0214 16.144 83.1854 16.144C81.3494 16.144 80.0174 14.872 80.0174 13.024ZM81.4814 13.024C81.4814 14.104 82.1774 14.836 83.1854 14.836C84.1934 14.836 84.8894 14.104 84.8894 13.024C84.8894 11.944 84.1934 11.212 83.1854 11.212C82.1774 11.212 81.4814 11.944 81.4814 13.024ZM87.5138 18.748V10.072H88.8698L88.9658 10.972C89.3258 10.288 90.1058 9.892 91.0058 9.892C92.6738 9.892 93.7778 11.104 93.7778 12.964C93.7778 14.812 92.7698 16.156 91.0058 16.156C90.1178 16.156 89.3498 15.808 88.9778 15.208V18.748H87.5138ZM88.9898 13.036C88.9898 14.104 89.6498 14.836 90.6578 14.836C91.6898 14.836 92.3018 14.092 92.3018 13.036C92.3018 11.98 91.6898 11.224 90.6578 11.224C89.6498 11.224 88.9898 11.968 88.9898 13.036Z" fill="black"/>
</svg>
