<svg width="101" height="24" viewBox="0 0 101 24" fill="none" xmlns="http://www.w3.org/2000/svg">
<path opacity="0.4" d="M19.3504 5.65995L13.0604 2.27C12.4004 1.91 11.6004 1.91 10.9304 2.27L4.64041 5.65995C4.18041 5.90995 3.90039 6.39998 3.90039 6.93998C3.90039 7.47998 4.18041 7.96995 4.64041 8.21995L10.9304 11.61C11.2604 11.79 11.6304 11.88 11.9904 11.88C12.3604 11.88 12.7204 11.79 13.0504 11.61L19.3404 8.21995C19.8004 7.96995 20.0804 7.47998 20.0804 6.93998C20.0904 6.39998 19.8104 5.90995 19.3504 5.65995Z" fill="#1A1A1A"/>
<path opacity="0.4" d="M9.89972 12.7904L4.04971 9.86038C3.59971 9.63038 3.07972 9.66037 2.64972 9.92037C2.21972 10.1804 1.96973 10.6404 1.96973 11.1404V16.6704C1.96973 17.6304 2.49971 18.4904 3.35971 18.9204L9.20972 21.8404C9.40972 21.9404 9.62973 21.9904 9.84973 21.9904C10.1097 21.9904 10.3697 21.9204 10.5997 21.7704C11.0297 21.5104 11.2797 21.0504 11.2797 20.5504V15.0204C11.2897 14.0804 10.7597 13.2204 9.89972 12.7904Z" fill="#1A1A1A"/>
<path opacity="0.4" d="M22.03 11.1497V15.7396C22.02 15.7296 22.01 15.7097 22 15.6997C22 15.6897 21.99 15.6796 21.98 15.6696C21.94 15.6096 21.89 15.5496 21.84 15.4996C21.83 15.4896 21.82 15.4697 21.81 15.4597C21 14.5597 19.81 13.9996 18.5 13.9996C17.24 13.9996 16.09 14.5196 15.27 15.3596C14.48 16.1696 14 17.2796 14 18.4996C14 19.3396 14.24 20.1397 14.65 20.8197C14.82 21.1097 15.03 21.3696 15.26 21.6096L14.79 21.8496C14.59 21.9496 14.37 21.9996 14.15 21.9996C13.89 21.9996 13.63 21.9297 13.39 21.7797C12.97 21.5197 12.71 21.0596 12.71 20.5596V15.0396C12.71 14.0796 13.24 13.2196 14.1 12.7896L19.95 9.86964C20.4 9.63964 20.92 9.65964 21.35 9.92964C21.77 10.1896 22.03 10.6497 22.03 11.1497Z" fill="#1A1A1A"/>
<path d="M21.98 15.65C21.16 14.64 19.91 14 18.5 14C17.44 14 16.46 14.37 15.69 14.99C14.65 15.81 14 17.08 14 18.5C14 19.91 14.64 21.16 15.65 21.98C16.42 22.62 17.42 23 18.5 23C19.64 23 20.67 22.57 21.47 21.88C22.4 21.05 23 19.85 23 18.5C23 17.42 22.62 16.42 21.98 15.65ZM19.53 18.78C19.53 19.04 19.39 19.29 19.17 19.42L17.76 20.26C17.64 20.33 17.51 20.37 17.37 20.37C17.12 20.37 16.87 20.24 16.73 20.01C16.52 19.65 16.63 19.19 16.99 18.98L18.03 18.36V17.1C18.03 16.69 18.37 16.35 18.78 16.35C19.19 16.35 19.53 16.69 19.53 17.1V18.78Z" fill="#1A1A1A"/>
<path d="M34.972 16V7.228H38.464C40.192 7.228 41.248 8.128 41.248 9.592C41.248 10.564 40.816 11.26 39.988 11.608C40.912 11.908 41.38 12.604 41.38 13.624C41.38 15.124 40.336 16 38.524 16H34.972ZM38.332 8.584H36.508V10.972H38.368C39.208 10.972 39.676 10.528 39.676 9.748C39.676 8.992 39.196 8.584 38.332 8.584ZM38.464 12.268H36.508V14.644H38.464C39.328 14.644 39.808 14.224 39.808 13.432C39.808 12.688 39.316 12.268 38.464 12.268ZM42.2244 13.024C42.2244 11.176 43.5564 9.904 45.3924 9.904C47.2284 9.904 48.5604 11.176 48.5604 13.024C48.5604 14.872 47.2284 16.144 45.3924 16.144C43.5564 16.144 42.2244 14.872 42.2244 13.024ZM43.6884 13.024C43.6884 14.104 44.3844 14.836 45.3924 14.836C46.4004 14.836 47.0964 14.104 47.0964 13.024C47.0964 11.944 46.4004 11.212 45.3924 11.212C44.3844 11.212 43.6884 11.944 43.6884 13.024ZM50.4833 16H48.8153L50.8553 13.096L48.8153 10.072H50.5193L51.8273 12.088L53.0873 10.072H54.7313L52.7153 13.072L54.6713 16H52.9913L51.7313 14.044L50.4833 16ZM55.0643 13.444V12.148H58.9283V13.444H55.0643ZM62.2017 16H60.7377V11.296H59.5977V10.072H60.7377V8.224H62.2017V10.072H63.3537V11.296H62.2017V16ZM64.9958 8.884C64.4918 8.884 64.0958 8.488 64.0958 7.996C64.0958 7.504 64.4918 7.12 64.9958 7.12C65.4758 7.12 65.8718 7.504 65.8718 7.996C65.8718 8.488 65.4758 8.884 64.9958 8.884ZM64.2638 16V10.072H65.7278V16H64.2638ZM68.7044 16H67.2404V10.072H68.5844L68.7044 10.768C69.0044 10.276 69.6044 9.892 70.4564 9.892C71.3564 9.892 71.9804 10.336 72.2924 11.02C72.5924 10.336 73.2884 9.892 74.1884 9.892C75.6284 9.892 76.4204 10.756 76.4204 12.124V16H74.9684V12.508C74.9684 11.656 74.5124 11.212 73.8164 11.212C73.1084 11.212 72.5684 11.668 72.5684 12.64V16H71.1044V12.496C71.1044 11.668 70.6604 11.224 69.9644 11.224C69.2684 11.224 68.7044 11.68 68.7044 12.64V16ZM80.5096 16.156C78.7456 16.156 77.5096 14.872 77.5096 13.036C77.5096 11.176 78.7216 9.892 80.4616 9.892C82.2376 9.892 83.3656 11.08 83.3656 12.928V13.372L78.9016 13.384C79.0096 14.428 79.5616 14.956 80.5336 14.956C81.3376 14.956 81.8656 14.644 82.0336 14.08H83.3896C83.1376 15.376 82.0576 16.156 80.5096 16.156ZM80.4736 11.092C79.6096 11.092 79.0816 11.56 78.9376 12.448H81.9136C81.9136 11.632 81.3496 11.092 80.4736 11.092Z" fill="black"/>
</svg>
