<svg width="101" height="24" viewBox="0 0 101 24" fill="none" xmlns="http://www.w3.org/2000/svg">
<path opacity="0.4" d="M22 10V17C22 20 20 22 17 22H7C4 22 2 20 2 17V10C2 7.26 3.67 5.34999 6.25 5.04999C6.49 5.00999 6.74 5 7 5H17C20 5 22 7 22 10Z" fill="#1A1A1A"/>
<path d="M7.75 2V5H7C6.74 5 6.49 5.00999 6.25 5.04999V2C6.25 1.59 6.59 1.25 7 1.25C7.41 1.25 7.75 1.59 7.75 2Z" fill="#1A1A1A"/>
<path d="M7.87988 16C9.26059 16 10.3799 14.8807 10.3799 13.5C10.3799 12.1193 9.26059 11 7.87988 11C6.49917 11 5.37988 12.1193 5.37988 13.5C5.37988 14.8807 6.49917 16 7.87988 16Z" fill="#1A1A1A"/>
<path d="M17.8799 12.25H13.8799C13.4699 12.25 13.1299 11.91 13.1299 11.5C13.1299 11.09 13.4699 10.75 13.8799 10.75H17.8799C18.2899 10.75 18.6299 11.09 18.6299 11.5C18.6299 11.91 18.2899 12.25 17.8799 12.25Z" fill="#1A1A1A"/>
<path d="M14.3799 16.25H13.8799C13.4699 16.25 13.1299 15.91 13.1299 15.5C13.1299 15.09 13.4699 14.75 13.8799 14.75H14.3799C14.7899 14.75 15.1299 15.09 15.1299 15.5C15.1299 15.91 14.7899 16.25 14.3799 16.25Z" fill="#1A1A1A"/>
<path d="M17.8799 16.25H17.3799C16.9699 16.25 16.6299 15.91 16.6299 15.5C16.6299 15.09 16.9699 14.75 17.3799 14.75H17.8799C18.2899 14.75 18.6299 15.09 18.6299 15.5C18.6299 15.91 18.2899 16.25 17.8799 16.25Z" fill="#1A1A1A"/>
<path d="M36.508 16H34.972V7.228H38.32C40.312 7.228 41.476 8.236 41.476 9.964C41.476 11.14 40.924 11.98 39.892 12.4L41.56 16H39.88L38.392 12.724H36.508V16ZM36.508 8.596V11.368H38.32C39.292 11.368 39.868 10.852 39.868 9.964C39.868 9.088 39.292 8.596 38.32 8.596H36.508ZM44.3247 16.156C43.0647 16.156 42.2967 15.424 42.2967 14.308C42.2967 13.216 43.0887 12.532 44.4927 12.424L46.2687 12.292V12.16C46.2687 11.356 45.7887 11.032 45.0447 11.032C44.1807 11.032 43.7007 11.392 43.7007 12.016H42.4527C42.4527 10.732 43.5087 9.892 45.1167 9.892C46.7127 9.892 47.6967 10.756 47.6967 12.4V16H46.4127L46.3047 15.124C46.0527 15.736 45.2487 16.156 44.3247 16.156ZM44.8047 15.052C45.7047 15.052 46.2807 14.512 46.2807 13.6V13.288L45.0447 13.384C44.1327 13.468 43.7847 13.768 43.7847 14.248C43.7847 14.788 44.1447 15.052 44.8047 15.052ZM51.5709 16.156C49.8549 16.156 48.7869 14.896 48.7869 13.06C48.7869 11.212 49.8669 9.892 51.6549 9.892C52.4829 9.892 53.2149 10.24 53.5869 10.828V7.072H55.0389V16H53.6949L53.5989 15.076C53.2389 15.76 52.4709 16.156 51.5709 16.156ZM51.8949 14.812C52.9149 14.812 53.5749 14.08 53.5749 13.012C53.5749 11.944 52.9149 11.2 51.8949 11.2C50.8749 11.2 50.2509 11.956 50.2509 13.012C50.2509 14.068 50.8749 14.812 51.8949 14.812ZM57.2966 8.884C56.7926 8.884 56.3966 8.488 56.3966 7.996C56.3966 7.504 56.7926 7.12 57.2966 7.12C57.7766 7.12 58.1726 7.504 58.1726 7.996C58.1726 8.488 57.7766 8.884 57.2966 8.884ZM56.5646 16V10.072H58.0286V16H56.5646ZM59.1932 13.024C59.1932 11.176 60.5252 9.904 62.3612 9.904C64.1972 9.904 65.5292 11.176 65.5292 13.024C65.5292 14.872 64.1972 16.144 62.3612 16.144C60.5252 16.144 59.1932 14.872 59.1932 13.024ZM60.6572 13.024C60.6572 14.104 61.3532 14.836 62.3612 14.836C63.3692 14.836 64.0652 14.104 64.0652 13.024C64.0652 11.944 63.3692 11.212 62.3612 11.212C61.3532 11.212 60.6572 11.944 60.6572 13.024Z" fill="black"/>
</svg>
