<svg width="200" height="24" viewBox="0 0 200 24" fill="none" xmlns="http://www.w3.org/2000/svg">
<path opacity="0.4" d="M12 22C17.5228 22 22 17.5228 22 12C22 6.47715 17.5228 2 12 2C6.47715 2 2 6.47715 2 12C2 17.5228 6.47715 22 12 22Z" fill="#1A1A1A"/>
<path d="M15.92 12.75H7.91998C7.50998 12.75 7.16998 12.41 7.16998 12C7.16998 11.59 7.50998 11.25 7.91998 11.25H15.92C16.33 11.25 16.67 11.59 16.67 12C16.67 12.41 16.34 12.75 15.92 12.75Z" fill="#1A1A1A"/>
<path d="M36.46 17H34.972V8.228H36.46L39.292 15.212L42.124 8.228H43.636V17H42.148V14.3C42.148 12.536 42.148 12.02 42.232 11.396L40 17H38.584L36.364 11.408C36.448 11.936 36.46 12.764 36.46 13.856V17ZM46.0935 9.884C45.5895 9.884 45.1935 9.488 45.1935 8.996C45.1935 8.504 45.5895 8.12 46.0935 8.12C46.5735 8.12 46.9695 8.504 46.9695 8.996C46.9695 9.488 46.5735 9.884 46.0935 9.884ZM45.3615 17V11.072H46.8255V17H45.3615ZM49.802 17H48.338V11.072H49.694L49.814 11.84C50.186 11.24 50.906 10.892 51.71 10.892C53.198 10.892 53.966 11.816 53.966 13.352V17H52.502V13.7C52.502 12.704 52.01 12.224 51.254 12.224C50.354 12.224 49.802 12.848 49.802 13.808V17ZM59.4244 11.072H60.8884V17H59.5324L59.4244 16.208C59.0644 16.772 58.2964 17.156 57.5044 17.156C56.1364 17.156 55.3324 16.232 55.3324 14.78V11.072H56.7964V14.264C56.7964 15.392 57.2404 15.848 58.0564 15.848C58.9804 15.848 59.4244 15.308 59.4244 14.18V11.072ZM61.8273 15.2H63.2193C63.2313 15.716 63.6153 16.04 64.2873 16.04C64.9713 16.04 65.3433 15.764 65.3433 15.332C65.3433 15.032 65.1873 14.816 64.6593 14.696L63.5913 14.444C62.5233 14.204 62.0073 13.7 62.0073 12.752C62.0073 11.588 62.9913 10.892 64.3593 10.892C65.6913 10.892 66.5913 11.66 66.6033 12.812H65.2113C65.1993 12.308 64.8633 11.984 64.2993 11.984C63.7233 11.984 63.3873 12.248 63.3873 12.692C63.3873 13.028 63.6513 13.244 64.1553 13.364L65.2233 13.616C66.2193 13.844 66.7233 14.3 66.7233 15.212C66.7233 16.412 65.7033 17.156 64.2393 17.156C62.7633 17.156 61.8273 16.364 61.8273 15.2ZM67.6737 14.444V13.148H71.5377V14.444H67.6737ZM72.6814 14.024C72.6814 12.188 73.8934 10.892 75.6454 10.892C77.2654 10.892 78.3694 11.792 78.5254 13.22H77.0614C76.8934 12.548 76.4014 12.2 75.7054 12.2C74.7694 12.2 74.1454 12.908 74.1454 14.024C74.1454 15.14 74.7214 15.836 75.6574 15.836C76.3894 15.836 76.9054 15.476 77.0614 14.828H78.5374C78.3574 16.208 77.2054 17.156 75.6574 17.156C73.8574 17.156 72.6814 15.908 72.6814 14.024ZM80.3591 9.884C79.8551 9.884 79.4591 9.488 79.4591 8.996C79.4591 8.504 79.8551 8.12 80.3591 8.12C80.8391 8.12 81.2351 8.504 81.2351 8.996C81.2351 9.488 80.8391 9.884 80.3591 9.884ZM79.6271 17V11.072H81.0911V17H79.6271ZM86.3237 11.048V12.404H85.7837C84.7277 12.404 84.0677 12.968 84.0677 14.12V17H82.6037V11.084H83.9837L84.0677 11.948C84.3197 11.36 84.8837 10.964 85.6757 10.964C85.8797 10.964 86.0837 10.988 86.3237 11.048ZM88.7906 17H87.3386V8.072H88.7906V17ZM89.9783 14.024C89.9783 12.188 91.1903 10.892 92.9423 10.892C94.5623 10.892 95.6663 11.792 95.8223 13.22H94.3583C94.1903 12.548 93.6983 12.2 93.0023 12.2C92.0663 12.2 91.4423 12.908 91.4423 14.024C91.4423 15.14 92.0183 15.836 92.9543 15.836C93.6863 15.836 94.2023 15.476 94.3583 14.828H95.8343C95.6543 16.208 94.5023 17.156 92.9543 17.156C91.1543 17.156 89.9783 15.908 89.9783 14.024ZM99.576 17.156C97.812 17.156 96.576 15.872 96.576 14.036C96.576 12.176 97.788 10.892 99.528 10.892C101.304 10.892 102.432 12.08 102.432 13.928V14.372L97.968 14.384C98.076 15.428 98.628 15.956 99.6 15.956C100.404 15.956 100.932 15.644 101.1 15.08H102.456C102.204 16.376 101.124 17.156 99.576 17.156ZM99.54 12.092C98.676 12.092 98.148 12.56 98.004 13.448H100.98C100.98 12.632 100.416 12.092 99.54 12.092Z" fill="black"/>
</svg>
