<svg width="134" height="24" viewBox="0 0 134 24" fill="none" xmlns="http://www.w3.org/2000/svg">
<path d="M21.7101 11.3499L18.7001 13.2499L12.6201 7.16993L14.5101 4.15992C15.3901 2.76992 17.1601 2.70995 18.4501 3.99995L21.8601 7.40992C23.0801 8.63992 23.0001 10.5299 21.7101 11.3499Z" fill="#1A1A1A"/>
<path opacity="0.4" d="M16.0003 21.2898L6.64034 22.3898C5.99034 22.4698 5.41034 22.3698 4.92034 22.1298C4.40034 21.8698 3.99034 21.4698 3.73034 20.9398C3.49034 20.4498 3.40034 19.8798 3.47034 19.2398L4.51033 10.5298C4.68033 10.6198 4.87034 10.6998 5.06034 10.7598C5.51034 10.9198 5.99034 10.9998 6.50034 10.9998C7.64034 10.9998 8.67035 10.5798 9.46035 9.87982C9.81035 9.57982 10.1103 9.21982 10.3503 8.81982C10.5603 8.46982 10.7203 8.09983 10.8303 7.69983C10.8903 7.49983 10.9303 7.28982 10.9603 7.06982L12.6203 7.1698L18.7003 13.2598L18.9603 17.6798C19.2103 20.1598 18.3503 21.0198 16.0003 21.2898Z" fill="#1A1A1A"/>
<path d="M8.78023 18.28L4.93022 22.13C4.40022 21.87 4.00023 21.47 3.74023 20.94L7.59023 17.09C7.93023 16.76 8.46023 16.76 8.78023 17.09C9.11023 17.42 9.11023 17.95 8.78023 18.28Z" fill="#1A1A1A"/>
<path d="M6.5 2C5.44 2 4.46 2.36999 3.69 2.98999C2.65 3.80999 2 5.08 2 6.5C2 7.34 2.23999 8.14001 2.64999 8.82001C3.08999 9.55001 3.72999 10.15 4.50999 10.53C4.67999 10.62 4.87 10.7 5.06 10.76C5.51 10.92 5.99 11 6.5 11C7.64 11 8.67001 10.58 9.46001 9.88C9.81001 9.58 10.11 9.22001 10.35 8.82001C10.56 8.47001 10.72 8.10001 10.83 7.70001C10.89 7.50001 10.93 7.29001 10.96 7.07001C10.99 6.88001 11 6.69 11 6.5C11 4.01 8.99 2 6.5 2ZM8.23 8.21002C8.08 8.36002 7.89 8.42999 7.7 8.42999C7.51 8.42999 7.32 8.36002 7.17 8.21002L6.50999 7.54999L5.82001 8.23999C5.67001 8.38999 5.47999 8.46002 5.28999 8.46002C5.09999 8.46002 4.90999 8.38999 4.75999 8.23999C4.46999 7.94999 4.46999 7.46999 4.75999 7.17999L5.45 6.48999L4.78999 5.83002C4.49999 5.54002 4.49999 5.06002 4.78999 4.77002C5.07999 4.48002 5.56001 4.48002 5.85001 4.77002L6.50999 5.42999L7.14 4.79999C7.43 4.50999 7.91 4.50999 8.2 4.79999C8.49 5.08999 8.49 5.56999 8.2 5.85999L7.57001 6.48999L8.23 7.15002C8.53 7.44002 8.53 7.91002 8.23 8.21002Z" fill="#1A1A1A"/>
<path d="M38.44 12.976H36.508V16H34.972V7.228H38.44C40.204 7.228 41.344 8.38 41.344 10.096C41.344 11.788 40.192 12.976 38.44 12.976ZM38.14 8.596H36.508V11.608H38.116C39.172 11.608 39.736 11.044 39.736 10.084C39.736 9.124 39.16 8.596 38.14 8.596ZM44.7791 16.156C43.0151 16.156 41.7791 14.872 41.7791 13.036C41.7791 11.176 42.9911 9.892 44.7311 9.892C46.5071 9.892 47.6351 11.08 47.6351 12.928V13.372L43.1711 13.384C43.2791 14.428 43.8311 14.956 44.8031 14.956C45.6071 14.956 46.1351 14.644 46.3031 14.08H47.6591C47.4071 15.376 46.3271 16.156 44.7791 16.156ZM44.7431 11.092C43.8791 11.092 43.3511 11.56 43.2071 12.448H46.1831C46.1831 11.632 45.6191 11.092 44.7431 11.092ZM50.2708 16H48.8068V10.072H50.1628L50.2828 10.84C50.6548 10.24 51.3748 9.892 52.1788 9.892C53.6668 9.892 54.4348 10.816 54.4348 12.352V16H52.9708V12.7C52.9708 11.704 52.4788 11.224 51.7228 11.224C50.8228 11.224 50.2708 11.848 50.2708 12.808V16ZM55.8612 13.444V12.148H59.7252V13.444H55.8612ZM60.8689 13.024C60.8689 11.188 62.0809 9.892 63.8329 9.892C65.4529 9.892 66.5569 10.792 66.7129 12.22H65.2489C65.0809 11.548 64.5889 11.2 63.8929 11.2C62.9569 11.2 62.3329 11.908 62.3329 13.024C62.3329 14.14 62.9089 14.836 63.8449 14.836C64.5769 14.836 65.0929 14.476 65.2489 13.828H66.7249C66.5449 15.208 65.3929 16.156 63.8449 16.156C62.0449 16.156 60.8689 14.908 60.8689 13.024ZM69.2906 16H67.8386V7.072H69.2906V16ZM70.4783 13.024C70.4783 11.176 71.8103 9.904 73.6463 9.904C75.4823 9.904 76.8143 11.176 76.8143 13.024C76.8143 14.872 75.4823 16.144 73.6463 16.144C71.8103 16.144 70.4783 14.872 70.4783 13.024ZM71.9423 13.024C71.9423 14.104 72.6383 14.836 73.6463 14.836C74.6543 14.836 75.3503 14.104 75.3503 13.024C75.3503 11.944 74.6543 11.212 73.6463 11.212C72.6383 11.212 71.9423 11.944 71.9423 13.024ZM77.5188 14.2H78.9108C78.9228 14.716 79.3068 15.04 79.9788 15.04C80.6628 15.04 81.0348 14.764 81.0348 14.332C81.0348 14.032 80.8788 13.816 80.3508 13.696L79.2828 13.444C78.2148 13.204 77.6988 12.7 77.6988 11.752C77.6988 10.588 78.6828 9.892 80.0508 9.892C81.3828 9.892 82.2828 10.66 82.2948 11.812H80.9028C80.8908 11.308 80.5548 10.984 79.9908 10.984C79.4148 10.984 79.0788 11.248 79.0788 11.692C79.0788 12.028 79.3428 12.244 79.8468 12.364L80.9148 12.616C81.9108 12.844 82.4148 13.3 82.4148 14.212C82.4148 15.412 81.3948 16.156 79.9308 16.156C78.4548 16.156 77.5188 15.364 77.5188 14.2ZM86.1814 16.156C84.4174 16.156 83.1814 14.872 83.1814 13.036C83.1814 11.176 84.3934 9.892 86.1334 9.892C87.9094 9.892 89.0374 11.08 89.0374 12.928V13.372L84.5734 13.384C84.6814 14.428 85.2334 14.956 86.2054 14.956C87.0094 14.956 87.5374 14.644 87.7054 14.08H89.0614C88.8094 15.376 87.7294 16.156 86.1814 16.156ZM86.1454 11.092C85.2814 11.092 84.7534 11.56 84.6094 12.448H87.5854C87.5854 11.632 87.0214 11.092 86.1454 11.092Z" fill="black"/>
</svg>
