<svg width="125" height="24" viewBox="0 0 125 24" fill="none" xmlns="http://www.w3.org/2000/svg">
<path opacity="0.4" d="M3.66992 2.5V14.47C3.66992 15.45 4.12992 16.38 4.91992 16.97L10.1299 20.87C11.2399 21.7 12.7699 21.7 13.8799 20.87L19.0899 16.97C19.8799 16.38 20.3399 15.45 20.3399 14.47V2.5H3.66992Z" fill="#1A1A1A"/>
<path d="M22 3.25H2C1.59 3.25 1.25 2.91 1.25 2.5C1.25 2.09 1.59 1.75 2 1.75H22C22.41 1.75 22.75 2.09 22.75 2.5C22.75 2.91 22.41 3.25 22 3.25Z" fill="#1A1A1A"/>
<path d="M16 8.75H8C7.59 8.75 7.25 8.41 7.25 8C7.25 7.59 7.59 7.25 8 7.25H16C16.41 7.25 16.75 7.59 16.75 8C16.75 8.41 16.41 8.75 16 8.75Z" fill="#1A1A1A"/>
<path d="M16 13.75H8C7.59 13.75 7.25 13.41 7.25 13C7.25 12.59 7.59 12.25 8 12.25H16C16.41 12.25 16.75 12.59 16.75 13C16.75 13.41 16.41 13.75 16 13.75Z" fill="#1A1A1A"/>
<path d="M34.972 16V7.228H38.464C40.192 7.228 41.248 8.128 41.248 9.592C41.248 10.564 40.816 11.26 39.988 11.608C40.912 11.908 41.38 12.604 41.38 13.624C41.38 15.124 40.336 16 38.524 16H34.972ZM38.332 8.584H36.508V10.972H38.368C39.208 10.972 39.676 10.528 39.676 9.748C39.676 8.992 39.196 8.584 38.332 8.584ZM38.464 12.268H36.508V14.644H38.464C39.328 14.644 39.808 14.224 39.808 13.432C39.808 12.688 39.316 12.268 38.464 12.268ZM43.3044 8.884C42.8004 8.884 42.4044 8.488 42.4044 7.996C42.4044 7.504 42.8004 7.12 43.3044 7.12C43.7844 7.12 44.1804 7.504 44.1804 7.996C44.1804 8.488 43.7844 8.884 43.3044 8.884ZM42.5724 16V10.072H44.0364V16H42.5724ZM47.025 16H45.573V7.072H47.025V16ZM50.0367 16H48.5847V7.072H50.0367V16Z" fill="black"/>
</svg>
