<svg width="132" height="24" viewBox="0 0 132 24" fill="none" xmlns="http://www.w3.org/2000/svg">
<path d="M18.6902 11.53C18.1202 11.38 17.4502 11.3 16.6502 11.3C15.5402 11.3 15.1302 11.57 14.5602 12C14.5302 12.02 14.5002 12.05 14.4702 12.08L13.5202 13.09C12.7202 13.93 11.2802 13.94 10.4802 13.08L9.53018 12.08C9.50017 12.05 9.47018 12.02 9.44018 12C8.87017 11.57 8.46018 11.3 7.35018 11.3C6.55018 11.3 5.88018 11.38 5.31018 11.53C2.93018 12.17 2.93018 14.06 2.93018 15.72V16.65C2.93018 19.16 2.93018 22 8.28018 22H15.7202C19.2702 22 21.0702 20.2 21.0702 16.65V15.72C21.0702 14.06 21.0702 12.17 18.6902 11.53ZM14.3302 18.4H9.67018C9.29018 18.4 8.98018 18.09 8.98018 17.7C8.98018 17.31 9.29018 17 9.67018 17H14.3302C14.7102 17 15.0202 17.31 15.0202 17.7C15.0202 18.09 14.7102 18.4 14.3302 18.4Z" fill="#1A1A1A"/>
<path opacity="0.4" d="M14.79 2H9.21004C4.79004 2 4.79004 4.35 4.79004 6.42V12.21C4.79004 12.43 4.89004 12.63 5.06004 12.76C5.23004 12.89 5.46004 12.94 5.67004 12.88C6.12004 12.76 6.68004 12.7 7.35004 12.7C8.02004 12.7 8.16004 12.78 8.56004 13.08L9.47004 14.04C10.12 14.74 11.05 15.14 12.01 15.14C12.97 15.14 13.89 14.74 14.55 14.04L15.46 13.08C15.86 12.78 16 12.7 16.67 12.7C17.34 12.7 17.9 12.76 18.35 12.88C18.56 12.94 18.78 12.89 18.96 12.76C19.13 12.63 19.23 12.42 19.23 12.21V6.42C19.21 4.35 19.21 2 14.79 2Z" fill="#1A1A1A"/>
<path opacity="0.4" d="M15.02 17.7C15.02 18.09 14.71 18.4 14.33 18.4H9.66998C9.28998 18.4 8.97998 18.09 8.97998 17.7C8.97998 17.31 9.28998 17 9.66998 17H14.33C14.71 17 15.02 17.31 15.02 17.7Z" fill="#1A1A1A"/>
<path d="M38.128 17H34.972V8.228H38.044C40.636 8.228 42.424 10.016 42.424 12.632C42.424 15.212 40.672 17 38.128 17ZM37.9 9.644H36.508V15.584H37.984C39.736 15.584 40.804 14.456 40.804 12.632C40.804 10.772 39.712 9.644 37.9 9.644ZM44.3708 9.884C43.8668 9.884 43.4708 9.488 43.4708 8.996C43.4708 8.504 43.8668 8.12 44.3708 8.12C44.8508 8.12 45.2468 8.504 45.2468 8.996C45.2468 9.488 44.8508 9.884 44.3708 9.884ZM43.6388 17V11.072H45.1028V17H43.6388ZM50.3354 11.048V12.404H49.7954C48.7394 12.404 48.0794 12.968 48.0794 14.12V17H46.6154V11.084H47.9954L48.0794 11.948C48.3314 11.36 48.8954 10.964 49.6874 10.964C49.8914 10.964 50.0954 10.988 50.3354 11.048ZM53.7791 17.156C52.0151 17.156 50.7791 15.872 50.7791 14.036C50.7791 12.176 51.9911 10.892 53.7311 10.892C55.5071 10.892 56.6351 12.08 56.6351 13.928V14.372L52.1711 14.384C52.2791 15.428 52.8311 15.956 53.8031 15.956C54.6071 15.956 55.1351 15.644 55.3031 15.08H56.6591C56.4071 16.376 55.3271 17.156 53.7791 17.156ZM53.7431 12.092C52.8791 12.092 52.3511 12.56 52.2071 13.448H55.1831C55.1831 12.632 54.6191 12.092 53.7431 12.092ZM57.4588 14.024C57.4588 12.188 58.6708 10.892 60.4228 10.892C62.0428 10.892 63.1468 11.792 63.3028 13.22H61.8388C61.6708 12.548 61.1788 12.2 60.4828 12.2C59.5468 12.2 58.9228 12.908 58.9228 14.024C58.9228 15.14 59.4988 15.836 60.4348 15.836C61.1668 15.836 61.6828 15.476 61.8388 14.828H63.3148C63.1348 16.208 61.9828 17.156 60.4348 17.156C58.6348 17.156 57.4588 15.908 57.4588 14.024ZM66.4204 17H64.9564V12.296H63.8164V11.072H64.9564V9.224H66.4204V11.072H67.5724V12.296H66.4204V17ZM69.8386 17H68.4826V8.072H69.9466V11.936C70.3306 11.276 71.1226 10.88 72.0226 10.88C73.7146 10.88 74.7466 12.2 74.7466 14.072C74.7466 15.896 73.6306 17.156 71.9266 17.156C71.0386 17.156 70.2826 16.76 69.9346 16.076L69.8386 17ZM69.9586 14.012C69.9586 15.08 70.6186 15.812 71.6266 15.812C72.6586 15.812 73.2706 15.068 73.2706 14.012C73.2706 12.956 72.6586 12.2 71.6266 12.2C70.6186 12.2 69.9586 12.944 69.9586 14.012ZM75.5643 14.024C75.5643 12.176 76.8963 10.904 78.7323 10.904C80.5683 10.904 81.9003 12.176 81.9003 14.024C81.9003 15.872 80.5683 17.144 78.7323 17.144C76.8963 17.144 75.5643 15.872 75.5643 14.024ZM77.0283 14.024C77.0283 15.104 77.7243 15.836 78.7323 15.836C79.7403 15.836 80.4363 15.104 80.4363 14.024C80.4363 12.944 79.7403 12.212 78.7323 12.212C77.7243 12.212 77.0283 12.944 77.0283 14.024ZM83.8232 17H82.1552L84.1952 14.096L82.1552 11.072H83.8592L85.1672 13.088L86.4272 11.072H88.0712L86.0552 14.072L88.0112 17H86.3312L85.0712 15.044L83.8232 17ZM88.4042 14.444V13.148H92.2682V14.444H88.4042ZM96.1959 17.156C94.4799 17.156 93.4119 15.896 93.4119 14.06C93.4119 12.212 94.4919 10.892 96.2799 10.892C97.1079 10.892 97.8399 11.24 98.2119 11.828V8.072H99.6639V17H98.3199L98.2239 16.076C97.8639 16.76 97.0959 17.156 96.1959 17.156ZM96.5199 15.812C97.5399 15.812 98.1999 15.08 98.1999 14.012C98.1999 12.944 97.5399 12.2 96.5199 12.2C95.4999 12.2 94.8759 12.956 94.8759 14.012C94.8759 15.068 95.4999 15.812 96.5199 15.812ZM103.842 17.156C102.078 17.156 100.842 15.872 100.842 14.036C100.842 12.176 102.054 10.892 103.794 10.892C105.57 10.892 106.698 12.08 106.698 13.928V14.372L102.234 14.384C102.342 15.428 102.894 15.956 103.866 15.956C104.67 15.956 105.198 15.644 105.366 15.08H106.722C106.47 16.376 105.39 17.156 103.842 17.156ZM103.806 12.092C102.942 12.092 102.414 12.56 102.27 13.448H105.246C105.246 12.632 104.682 12.092 103.806 12.092ZM107.281 11.072H108.133V10.352C108.133 8.744 108.985 8.072 110.269 8.072C110.497 8.072 110.773 8.084 111.025 8.132V9.38H110.509C109.765 9.38 109.585 9.764 109.585 10.352V11.072H111.001V12.296H109.585V17H108.133V12.296H107.281V11.072ZM113.547 17.156C112.287 17.156 111.519 16.424 111.519 15.308C111.519 14.216 112.311 13.532 113.715 13.424L115.491 13.292V13.16C115.491 12.356 115.011 12.032 114.267 12.032C113.403 12.032 112.923 12.392 112.923 13.016H111.675C111.675 11.732 112.731 10.892 114.339 10.892C115.935 10.892 116.919 11.756 116.919 13.4V17H115.635L115.527 16.124C115.275 16.736 114.471 17.156 113.547 17.156ZM114.027 16.052C114.927 16.052 115.503 15.512 115.503 14.6V14.288L114.267 14.384C113.355 14.468 113.007 14.768 113.007 15.248C113.007 15.788 113.367 16.052 114.027 16.052ZM122.378 11.072H123.842V17H122.486L122.378 16.208C122.018 16.772 121.25 17.156 120.458 17.156C119.09 17.156 118.286 16.232 118.286 14.78V11.072H119.75V14.264C119.75 15.392 120.194 15.848 121.01 15.848C121.934 15.848 122.378 15.308 122.378 14.18V11.072ZM126.83 17H125.378V8.072H126.83V17ZM130.381 17H128.917V12.296H127.777V11.072H128.917V9.224H130.381V11.072H131.533V12.296H130.381V17Z" fill="black"/>
</svg>
