<svg width="101" height="24" viewBox="0 0 101 24" fill="none" xmlns="http://www.w3.org/2000/svg">
<path opacity="0.4" d="M16.1899 8.86039C15.7999 8.86039 15.4899 8.55039 15.4899 8.16039V6.88039C15.4899 5.90039 15.0699 4.96039 14.3499 4.30039C13.6099 3.63039 12.6599 3.32039 11.6599 3.41039C9.97986 3.57039 8.50986 5.28039 8.50986 7.06039V7.96039C8.50986 8.35039 8.19986 8.66039 7.80986 8.66039C7.41986 8.66039 7.10986 8.35039 7.10986 7.96039V7.06039C7.10986 4.56039 9.12986 2.25039 11.5199 2.02039C12.9099 1.89039 14.2499 2.33039 15.2799 3.27039C16.2999 4.19039 16.8799 5.51039 16.8799 6.88039V8.16039C16.8799 8.55039 16.5699 8.86039 16.1899 8.86039Z" fill="#1A1A1A"/>
<path d="M19.9602 8.96008C19.1202 8.03008 17.7402 7.58008 15.7202 7.58008H8.28023C6.26023 7.58008 4.88023 8.03008 4.04023 8.96008C3.07023 10.0401 3.10023 11.4801 3.21023 12.4801L3.91023 18.0501C4.12023 20.0001 4.91023 22.0001 9.21023 22.0001H14.7902C19.0902 22.0001 19.8802 20.0001 20.0902 18.0601L20.7902 12.4701C20.9002 11.4801 20.9302 10.0401 19.9602 8.96008ZM12.0002 18.5801C9.91023 18.5801 8.21023 16.8801 8.21023 14.7901C8.21023 12.7001 9.91023 11.0001 12.0002 11.0001C14.0902 11.0001 15.7902 12.7001 15.7902 14.7901C15.7902 16.8801 14.0902 18.5801 12.0002 18.5801Z" fill="#1A1A1A"/>
<path opacity="0.4" d="M15.79 14.79C15.79 16.88 14.09 18.58 12 18.58C9.90996 18.58 8.20996 16.88 8.20996 14.79C8.20996 12.7 9.90996 11 12 11C14.09 11 15.79 12.7 15.79 14.79Z" fill="#1A1A1A"/>
<path d="M10.9999 16.5801C10.7499 16.5801 10.4999 16.4501 10.3599 16.2201C10.1499 15.8701 10.2599 15.4001 10.6199 15.1901L11.5099 14.6601V13.5801C11.5099 13.1701 11.8499 12.8301 12.2599 12.8301C12.6699 12.8301 12.9999 13.1601 12.9999 13.5801V15.0801C12.9999 15.3401 12.8599 15.5901 12.6399 15.7201L11.3899 16.4701C11.2699 16.5401 11.1299 16.5801 10.9999 16.5801Z" fill="#1A1A1A"/>
<path d="M34.972 16V7.228H38.464C40.192 7.228 41.248 8.128 41.248 9.592C41.248 10.564 40.816 11.26 39.988 11.608C40.912 11.908 41.38 12.604 41.38 13.624C41.38 15.124 40.336 16 38.524 16H34.972ZM38.332 8.584H36.508V10.972H38.368C39.208 10.972 39.676 10.528 39.676 9.748C39.676 8.992 39.196 8.584 38.332 8.584ZM38.464 12.268H36.508V14.644H38.464C39.328 14.644 39.808 14.224 39.808 13.432C39.808 12.688 39.316 12.268 38.464 12.268ZM44.3364 16.156C43.0764 16.156 42.3084 15.424 42.3084 14.308C42.3084 13.216 43.1004 12.532 44.5044 12.424L46.2804 12.292V12.16C46.2804 11.356 45.8004 11.032 45.0564 11.032C44.1924 11.032 43.7124 11.392 43.7124 12.016H42.4644C42.4644 10.732 43.5204 9.892 45.1284 9.892C46.7244 9.892 47.7084 10.756 47.7084 12.4V16H46.4244L46.3164 15.124C46.0644 15.736 45.2604 16.156 44.3364 16.156ZM44.8164 15.052C45.7164 15.052 46.2924 14.512 46.2924 13.6V13.288L45.0564 13.384C44.1444 13.468 43.7964 13.768 43.7964 14.248C43.7964 14.788 44.1564 15.052 44.8164 15.052ZM48.8106 12.904C48.8106 11.176 49.9386 9.88 51.6306 9.88C52.5186 9.88 53.2146 10.252 53.5626 10.888L53.6466 10.072H55.0026V15.7C55.0026 17.68 53.8146 18.916 51.8946 18.916C50.1906 18.916 49.0266 17.944 48.8466 16.36H50.3106C50.4066 17.128 50.9946 17.584 51.8946 17.584C52.9026 17.584 53.5506 16.948 53.5506 15.964V14.98C53.1786 15.532 52.4466 15.88 51.5946 15.88C49.9146 15.88 48.8106 14.62 48.8106 12.904ZM50.2866 12.868C50.2866 13.864 50.9226 14.608 51.8826 14.608C52.8906 14.608 53.5146 13.9 53.5146 12.868C53.5146 11.86 52.9026 11.164 51.8826 11.164C50.9106 11.164 50.2866 11.896 50.2866 12.868ZM56.5057 13.444V12.148H60.3697V13.444H56.5057ZM63.6431 16H62.1791V11.296H61.0391V10.072H62.1791V8.224H63.6431V10.072H64.7951V11.296H63.6431V16ZM66.4372 8.884C65.9332 8.884 65.5372 8.488 65.5372 7.996C65.5372 7.504 65.9332 7.12 66.4372 7.12C66.9172 7.12 67.3132 7.504 67.3132 7.996C67.3132 8.488 66.9172 8.884 66.4372 8.884ZM65.7052 16V10.072H67.1692V16H65.7052ZM70.1458 16H68.6818V10.072H70.0258L70.1458 10.768C70.4458 10.276 71.0458 9.892 71.8978 9.892C72.7978 9.892 73.4218 10.336 73.7338 11.02C74.0338 10.336 74.7298 9.892 75.6298 9.892C77.0698 9.892 77.8618 10.756 77.8618 12.124V16H76.4098V12.508C76.4098 11.656 75.9538 11.212 75.2578 11.212C74.5498 11.212 74.0098 11.668 74.0098 12.64V16H72.5458V12.496C72.5458 11.668 72.1018 11.224 71.4058 11.224C70.7098 11.224 70.1458 11.68 70.1458 12.64V16ZM81.951 16.156C80.187 16.156 78.951 14.872 78.951 13.036C78.951 11.176 80.163 9.892 81.903 9.892C83.679 9.892 84.807 11.08 84.807 12.928V13.372L80.343 13.384C80.451 14.428 81.003 14.956 81.975 14.956C82.779 14.956 83.307 14.644 83.475 14.08H84.831C84.579 15.376 83.499 16.156 81.951 16.156ZM81.915 11.092C81.051 11.092 80.523 11.56 80.379 12.448H83.355C83.355 11.632 82.791 11.092 81.915 11.092ZM89.6987 10.048V11.404H89.1587C88.1027 11.404 87.4427 11.968 87.4427 13.12V16H85.9787V10.084H87.3587L87.4427 10.948C87.6947 10.36 88.2587 9.964 89.0507 9.964C89.2547 9.964 89.4587 9.988 89.6987 10.048Z" fill="black"/>
</svg>
