<svg width="110" height="24" viewBox="0 0 110 24" fill="none" xmlns="http://www.w3.org/2000/svg">
<path opacity="0.4" d="M19.25 7.41003V16.59C19.25 18.31 18.63 19.6 17.52 20.22C17.07 20.47 16.57 20.59 16.05 20.59C15.25 20.59 14.39 20.32 13.51 19.77L10.59 17.94C10.39 17.82 10.16 17.75 9.93 17.75H9V6.25003H9.93C10.16 6.25003 10.39 6.18003 10.59 6.06003L13.51 4.23003C14.97 3.32003 16.4 3.16003 17.52 3.78003C18.63 4.40003 19.25 5.69003 19.25 7.41003Z" fill="#1A1A1A"/>
<path d="M9 6.25V17.75H8.5C6.08 17.75 4.75 16.42 4.75 14V10C4.75 7.58 6.08 6.25 8.5 6.25H9Z" fill="#1A1A1A"/>
<path d="M37.432 17L34.12 8.228H35.752L37.672 13.28C37.864 13.808 38.032 14.324 38.224 15.032C38.44 14.264 38.62 13.724 38.788 13.28L40.684 8.228H42.28L39.016 17H37.432ZM41.8025 14.024C41.8025 12.176 43.1345 10.904 44.9705 10.904C46.8065 10.904 48.1385 12.176 48.1385 14.024C48.1385 15.872 46.8065 17.144 44.9705 17.144C43.1345 17.144 41.8025 15.872 41.8025 14.024ZM43.2665 14.024C43.2665 15.104 43.9625 15.836 44.9705 15.836C45.9785 15.836 46.6745 15.104 46.6745 14.024C46.6745 12.944 45.9785 12.212 44.9705 12.212C43.9625 12.212 43.2665 12.944 43.2665 14.024ZM50.775 17H49.323V8.072H50.775V17ZM56.3307 11.072H57.7947V17H56.4387L56.3307 16.208C55.9707 16.772 55.2027 17.156 54.4107 17.156C53.0427 17.156 52.2387 16.232 52.2387 14.78V11.072H53.7027V14.264C53.7027 15.392 54.1467 15.848 54.9627 15.848C55.8867 15.848 56.3307 15.308 56.3307 14.18V11.072ZM60.7708 17H59.3068V11.072H60.6508L60.7708 11.768C61.0708 11.276 61.6708 10.892 62.5228 10.892C63.4228 10.892 64.0468 11.336 64.3588 12.02C64.6588 11.336 65.3548 10.892 66.2548 10.892C67.6948 10.892 68.4868 11.756 68.4868 13.124V17H67.0348V13.508C67.0348 12.656 66.5788 12.212 65.8828 12.212C65.1748 12.212 64.6348 12.668 64.6348 13.64V17H63.1708V13.496C63.1708 12.668 62.7268 12.224 62.0308 12.224C61.3348 12.224 60.7708 12.68 60.7708 13.64V17ZM72.576 17.156C70.812 17.156 69.576 15.872 69.576 14.036C69.576 12.176 70.788 10.892 72.528 10.892C74.304 10.892 75.432 12.08 75.432 13.928V14.372L70.968 14.384C71.076 15.428 71.628 15.956 72.6 15.956C73.404 15.956 73.932 15.644 74.1 15.08H75.456C75.204 16.376 74.124 17.156 72.576 17.156ZM72.54 12.092C71.676 12.092 71.148 12.56 71.004 13.448H73.98C73.98 12.632 73.416 12.092 72.54 12.092ZM76.5917 14.444V13.148H80.4557V14.444H76.5917ZM83.4114 17H81.9474V11.072H83.2914L83.4114 11.768C83.7114 11.276 84.3114 10.892 85.1634 10.892C86.0634 10.892 86.6874 11.336 86.9994 12.02C87.2994 11.336 87.9954 10.892 88.8954 10.892C90.3354 10.892 91.1274 11.756 91.1274 13.124V17H89.6754V13.508C89.6754 12.656 89.2194 12.212 88.5234 12.212C87.8154 12.212 87.2754 12.668 87.2754 13.64V17H85.8114V13.496C85.8114 12.668 85.3674 12.224 84.6714 12.224C83.9754 12.224 83.4114 12.68 83.4114 13.64V17ZM96.5846 11.072H98.0486V17H96.6926L96.5846 16.208C96.2246 16.772 95.4566 17.156 94.6646 17.156C93.2966 17.156 92.4926 16.232 92.4926 14.78V11.072H93.9566V14.264C93.9566 15.392 94.4006 15.848 95.2166 15.848C96.1406 15.848 96.5846 15.308 96.5846 14.18V11.072ZM101.577 17H100.113V12.296H98.9727V11.072H100.113V9.224H101.577V11.072H102.729V12.296H101.577V17ZM106.232 17.156C104.468 17.156 103.232 15.872 103.232 14.036C103.232 12.176 104.444 10.892 106.184 10.892C107.96 10.892 109.088 12.08 109.088 13.928V14.372L104.624 14.384C104.732 15.428 105.284 15.956 106.256 15.956C107.06 15.956 107.588 15.644 107.756 15.08H109.112C108.86 16.376 107.78 17.156 106.232 17.156ZM106.196 12.092C105.332 12.092 104.804 12.56 104.66 13.448H107.636C107.636 12.632 107.072 12.092 106.196 12.092Z" fill="black"/>
</svg>
