<svg width="132" height="24" viewBox="0 0 132 24" fill="none" xmlns="http://www.w3.org/2000/svg">
<path opacity="0.4" d="M12 22C17.5228 22 22 17.5228 22 12C22 6.47715 17.5228 2 12 2C6.47715 2 2 6.47715 2 12C2 17.5228 6.47715 22 12 22Z" fill="#1A1A1A"/>
<path d="M17.25 10.18V12.81C17.25 12.98 17.24 13.14 17.22 13.3C17.07 15.07 16.02 15.95 14.1 15.95H13.84C13.68 15.95 13.52 16.03 13.42 16.16L12.63 17.21C12.28 17.68 11.72 17.68 11.37 17.21L10.58 16.16C10.49 16.05 10.3 15.95 10.16 15.95H9.89999C7.79999 15.95 6.75 15.43 6.75 12.8V10.17C6.75 8.25004 7.63999 7.20002 9.39999 7.05002C9.55999 7.03002 9.72001 7.02002 9.89001 7.02002H14.09C16.2 7.04002 17.25 8.09002 17.25 10.18Z" fill="#1A1A1A"/>
<path d="M36.46 17H34.972V8.228H36.46L39.292 15.212L42.124 8.228H43.636V17H42.148V14.3C42.148 12.536 42.148 12.02 42.232 11.396L40 17H38.584L36.364 11.408C36.448 11.936 36.46 12.764 36.46 13.856V17ZM48.0135 17.156C46.2495 17.156 45.0135 15.872 45.0135 14.036C45.0135 12.176 46.2255 10.892 47.9655 10.892C49.7415 10.892 50.8695 12.08 50.8695 13.928V14.372L46.4055 14.384C46.5135 15.428 47.0655 15.956 48.0375 15.956C48.8415 15.956 49.3695 15.644 49.5375 15.08H50.8935C50.6415 16.376 49.5615 17.156 48.0135 17.156ZM47.9775 12.092C47.1135 12.092 46.5855 12.56 46.4415 13.448H49.4175C49.4175 12.632 48.8535 12.092 47.9775 12.092ZM51.5852 15.2H52.9772C52.9892 15.716 53.3732 16.04 54.0452 16.04C54.7292 16.04 55.1012 15.764 55.1012 15.332C55.1012 15.032 54.9452 14.816 54.4172 14.696L53.3492 14.444C52.2812 14.204 51.7652 13.7 51.7652 12.752C51.7652 11.588 52.7492 10.892 54.1172 10.892C55.4492 10.892 56.3492 11.66 56.3612 12.812H54.9692C54.9572 12.308 54.6212 11.984 54.0572 11.984C53.4812 11.984 53.1452 12.248 53.1452 12.692C53.1452 13.028 53.4092 13.244 53.9132 13.364L54.9812 13.616C55.9772 13.844 56.4812 14.3 56.4812 15.212C56.4812 16.412 55.4612 17.156 53.9972 17.156C52.5212 17.156 51.5852 16.364 51.5852 15.2ZM57.1398 15.2H58.5318C58.5438 15.716 58.9278 16.04 59.5998 16.04C60.2838 16.04 60.6558 15.764 60.6558 15.332C60.6558 15.032 60.4998 14.816 59.9718 14.696L58.9038 14.444C57.8358 14.204 57.3198 13.7 57.3198 12.752C57.3198 11.588 58.3038 10.892 59.6718 10.892C61.0038 10.892 61.9038 11.66 61.9158 12.812H60.5238C60.5118 12.308 60.1758 11.984 59.6118 11.984C59.0358 11.984 58.6998 12.248 58.6998 12.692C58.6998 13.028 58.9638 13.244 59.4678 13.364L60.5358 13.616C61.5318 13.844 62.0358 14.3 62.0358 15.212C62.0358 16.412 61.0158 17.156 59.5518 17.156C58.0758 17.156 57.1398 16.364 57.1398 15.2ZM64.9145 17.156C63.6545 17.156 62.8865 16.424 62.8865 15.308C62.8865 14.216 63.6785 13.532 65.0825 13.424L66.8585 13.292V13.16C66.8585 12.356 66.3785 12.032 65.6345 12.032C64.7705 12.032 64.2905 12.392 64.2905 13.016H63.0425C63.0425 11.732 64.0985 10.892 65.7065 10.892C67.3025 10.892 68.2865 11.756 68.2865 13.4V17H67.0025L66.8945 16.124C66.6425 16.736 65.8385 17.156 64.9145 17.156ZM65.3945 16.052C66.2945 16.052 66.8705 15.512 66.8705 14.6V14.288L65.6345 14.384C64.7225 14.468 64.3745 14.768 64.3745 15.248C64.3745 15.788 64.7345 16.052 65.3945 16.052ZM69.3888 13.904C69.3888 12.176 70.5168 10.88 72.2088 10.88C73.0968 10.88 73.7928 11.252 74.1408 11.888L74.2248 11.072H75.5807V16.7C75.5807 18.68 74.3928 19.916 72.4728 19.916C70.7688 19.916 69.6048 18.944 69.4248 17.36H70.8888C70.9848 18.128 71.5728 18.584 72.4728 18.584C73.4808 18.584 74.1288 17.948 74.1288 16.964V15.98C73.7568 16.532 73.0248 16.88 72.1728 16.88C70.4928 16.88 69.3888 15.62 69.3888 13.904ZM70.8648 13.868C70.8648 14.864 71.5008 15.608 72.4608 15.608C73.4688 15.608 74.0928 14.9 74.0928 13.868C74.0928 12.86 73.4808 12.164 72.4608 12.164C71.4888 12.164 70.8648 12.896 70.8648 13.868ZM79.7478 17.156C77.9838 17.156 76.7478 15.872 76.7478 14.036C76.7478 12.176 77.9598 10.892 79.6998 10.892C81.4758 10.892 82.6038 12.08 82.6038 13.928V14.372L78.1398 14.384C78.2478 15.428 78.7998 15.956 79.7718 15.956C80.5758 15.956 81.1038 15.644 81.2718 15.08H82.6278C82.3758 16.376 81.2958 17.156 79.7478 17.156ZM79.7118 12.092C78.8478 12.092 78.3198 12.56 78.1758 13.448H81.1518C81.1518 12.632 80.5878 12.092 79.7118 12.092ZM83.7635 14.444V13.148H87.6275V14.444H83.7635ZM88.7713 14.024C88.7713 12.188 89.9833 10.892 91.7353 10.892C93.3553 10.892 94.4593 11.792 94.6153 13.22H93.1513C92.9833 12.548 92.4913 12.2 91.7953 12.2C90.8593 12.2 90.2353 12.908 90.2353 14.024C90.2353 15.14 90.8113 15.836 91.7473 15.836C92.4793 15.836 92.9953 15.476 93.1513 14.828H94.6273C94.4473 16.208 93.2953 17.156 91.7473 17.156C89.9473 17.156 88.7713 15.908 88.7713 14.024ZM96.4489 9.884C95.9449 9.884 95.5489 9.488 95.5489 8.996C95.5489 8.504 95.9449 8.12 96.4489 8.12C96.9289 8.12 97.3249 8.504 97.3249 8.996C97.3249 9.488 96.9289 9.884 96.4489 9.884ZM95.7169 17V11.072H97.1809V17H95.7169ZM102.414 11.048V12.404H101.874C100.818 12.404 100.158 12.968 100.158 14.12V17H98.6935V11.084H100.074L100.158 11.948C100.41 11.36 100.974 10.964 101.766 10.964C101.97 10.964 102.174 10.988 102.414 11.048ZM102.857 14.024C102.857 12.188 104.069 10.892 105.821 10.892C107.441 10.892 108.545 11.792 108.701 13.22H107.237C107.069 12.548 106.577 12.2 105.881 12.2C104.945 12.2 104.321 12.908 104.321 14.024C104.321 15.14 104.897 15.836 105.833 15.836C106.565 15.836 107.081 15.476 107.237 14.828H108.713C108.533 16.208 107.381 17.156 105.833 17.156C104.033 17.156 102.857 15.908 102.857 14.024ZM111.279 17H109.827V8.072H111.279V17ZM115.467 17.156C113.703 17.156 112.467 15.872 112.467 14.036C112.467 12.176 113.679 10.892 115.419 10.892C117.195 10.892 118.323 12.08 118.323 13.928V14.372L113.859 14.384C113.967 15.428 114.519 15.956 115.491 15.956C116.295 15.956 116.823 15.644 116.991 15.08H118.347C118.095 16.376 117.015 17.156 115.467 17.156ZM115.431 12.092C114.567 12.092 114.039 12.56 113.895 13.448H116.871C116.871 12.632 116.307 12.092 115.431 12.092Z" fill="black"/>
</svg>
