<svg width="106" height="24" viewBox="0 0 106 24" fill="none" xmlns="http://www.w3.org/2000/svg">
<path opacity="0.4" d="M12 17V19.38C12 21.25 11.25 22 9.37 22H4.62C2.75 22 2 21.25 2 19.38V14.63C2 12.75 2.75 12 4.62 12H7V14.37C7 16.25 7.75 17 9.62 17H12Z" fill="#1A1A1A"/>
<path opacity="0.6" d="M17 12V14.37C17 16.25 16.25 17 14.37 17H9.62C7.75 17 7 16.25 7 14.37V9.62C7 7.75 7.75 7 9.62 7H12V9.37C12 11.25 12.75 12 14.62 12H17Z" fill="#1A1A1A"/>
<path d="M22 4.62V9.37C22 11.25 21.25 12 19.37 12H14.62C12.75 12 12 11.25 12 9.37V4.62C12 2.75 12.75 2 14.62 2H19.37C21.25 2 22 2.75 22 4.62Z" fill="#1A1A1A"/>
<path d="M42.108 11.656H41.04V10.66L43.296 8.584H39.648V7.228H45.216V8.452L43.08 10.42C44.424 10.684 45.468 11.668 45.468 13.216C45.468 15.016 44.064 16.156 42.288 16.156C40.572 16.156 39.24 15.1 39.24 13.204H40.752C40.752 14.212 41.376 14.788 42.312 14.788C43.272 14.788 43.908 14.164 43.908 13.192C43.908 12.304 43.332 11.656 42.108 11.656ZM46.3 9.676C46.3 8.14 47.572 7.072 49.42 7.072C51.196 7.072 52.324 8.056 52.372 9.64H50.836C50.8 8.884 50.26 8.44 49.396 8.44C48.448 8.44 47.836 8.896 47.836 9.628C47.836 10.252 48.172 10.6 48.904 10.768L50.284 11.068C51.784 11.392 52.516 12.16 52.516 13.468C52.516 15.1 51.244 16.156 49.312 16.156C47.44 16.156 46.216 15.16 46.18 13.588H47.716C47.728 14.332 48.328 14.776 49.312 14.776C50.332 14.776 50.98 14.332 50.98 13.6C50.98 13.012 50.68 12.664 49.96 12.508L48.568 12.196C47.08 11.872 46.3 11.02 46.3 9.676ZM53.3416 12.964C53.3416 11.104 54.4456 9.892 56.1136 9.892C57.0136 9.892 57.7936 10.288 58.1536 10.972L58.2496 10.072H59.5936V18.748H58.1416V15.208C57.7696 15.808 56.9896 16.156 56.1136 16.156C54.3496 16.156 53.3416 14.812 53.3416 12.964ZM54.8056 13.036C54.8056 14.092 55.4296 14.836 56.4496 14.836C57.4696 14.836 58.1296 14.104 58.1296 13.036C58.1296 11.968 57.4696 11.224 56.4496 11.224C55.4296 11.224 54.8056 11.98 54.8056 13.036ZM65.1393 10.072H66.6033V16H65.2473L65.1393 15.208C64.7793 15.772 64.0113 16.156 63.2193 16.156C61.8513 16.156 61.0473 15.232 61.0473 13.78V10.072H62.5113V13.264C62.5113 14.392 62.9553 14.848 63.7713 14.848C64.6953 14.848 65.1393 14.308 65.1393 13.18V10.072ZM69.8794 16.156C68.6194 16.156 67.8514 15.424 67.8514 14.308C67.8514 13.216 68.6434 12.532 70.0474 12.424L71.8234 12.292V12.16C71.8234 11.356 71.3434 11.032 70.5994 11.032C69.7354 11.032 69.2554 11.392 69.2554 12.016H68.0074C68.0074 10.732 69.0634 9.892 70.6714 9.892C72.2674 9.892 73.2514 10.756 73.2514 12.4V16H71.9674L71.8594 15.124C71.6074 15.736 70.8034 16.156 69.8794 16.156ZM70.3594 15.052C71.2594 15.052 71.8354 14.512 71.8354 13.6V13.288L70.5994 13.384C69.6874 13.468 69.3394 13.768 69.3394 14.248C69.3394 14.788 69.6994 15.052 70.3594 15.052ZM78.4096 10.048V11.404H77.8696C76.8136 11.404 76.1536 11.968 76.1536 13.12V16H74.6896V10.084H76.0696L76.1536 10.948C76.4056 10.36 76.9696 9.964 77.7616 9.964C77.9656 9.964 78.1696 9.988 78.4096 10.048ZM81.8533 16.156C80.0893 16.156 78.8533 14.872 78.8533 13.036C78.8533 11.176 80.0653 9.892 81.8053 9.892C83.5813 9.892 84.7093 11.08 84.7093 12.928V13.372L80.2453 13.384C80.3533 14.428 80.9053 14.956 81.8773 14.956C82.6813 14.956 83.2093 14.644 83.3773 14.08H84.7333C84.4813 15.376 83.4013 16.156 81.8533 16.156ZM81.8173 11.092C80.9533 11.092 80.4253 11.56 80.2813 12.448H83.2573C83.2573 11.632 82.6933 11.092 81.8173 11.092Z" fill="black"/>
</svg>
