<svg width="140" height="24" viewBox="0 0 140 24" fill="none" xmlns="http://www.w3.org/2000/svg">
<path opacity="0.4" d="M16.19 2H7.81C4.17 2 2 4.17 2 7.81V16.18C2 19.83 4.17 22 7.81 22H16.18C19.82 22 21.99 19.83 21.99 16.19V7.81C22 4.17 19.83 2 16.19 2Z" fill="#1A1A1A"/>
<path d="M15.53 14.2101C15.34 14.2101 15.15 14.1401 15 13.9901L12 10.9901L9.00003 13.9901C8.71003 14.2801 8.23003 14.2801 7.94003 13.9901C7.65003 13.7001 7.65003 13.2201 7.94003 12.9301L11.47 9.40012C11.76 9.11012 12.24 9.11012 12.53 9.40012L16.06 12.9301C16.35 13.2201 16.35 13.7001 16.06 13.9901C15.91 14.1401 15.72 14.2101 15.53 14.2101Z" fill="#1A1A1A"/>
<path d="M35.728 17H34.132L37.3 8.228H38.872L42.04 17H40.42L39.712 14.972H36.436L35.728 17ZM37.888 10.844L36.892 13.676H39.268L38.26 10.844C38.188 10.616 38.104 10.352 38.08 10.172C38.044 10.34 37.972 10.604 37.888 10.844ZM46.644 11.048V12.404H46.104C45.048 12.404 44.388 12.968 44.388 14.12V17H42.924V11.084H44.304L44.388 11.948C44.64 11.36 45.204 10.964 45.996 10.964C46.2 10.964 46.404 10.988 46.644 11.048ZM51.3549 11.048V12.404H50.8149C49.7589 12.404 49.0989 12.968 49.0989 14.12V17H47.6349V11.084H49.0149L49.0989 11.948C49.3509 11.36 49.9149 10.964 50.7069 10.964C50.9109 10.964 51.1149 10.988 51.3549 11.048ZM51.7986 14.024C51.7986 12.176 53.1306 10.904 54.9666 10.904C56.8026 10.904 58.1346 12.176 58.1346 14.024C58.1346 15.872 56.8026 17.144 54.9666 17.144C53.1306 17.144 51.7986 15.872 51.7986 14.024ZM53.2626 14.024C53.2626 15.104 53.9586 15.836 54.9666 15.836C55.9746 15.836 56.6706 15.104 56.6706 14.024C56.6706 12.944 55.9746 12.212 54.9666 12.212C53.9586 12.212 53.2626 12.944 53.2626 14.024ZM60.3101 17L58.3901 11.072H59.9141L60.6941 13.616C60.8261 14.084 60.9461 14.6 61.0541 15.152C61.1621 14.576 61.2701 14.204 61.4621 13.616L62.2781 11.072H63.7661L64.5581 13.616C64.6301 13.856 64.8701 14.744 64.9421 15.14C65.0381 14.696 65.2301 13.988 65.3381 13.616L66.1301 11.072H67.6781L65.6261 17H64.2581L63.4421 14.432C63.2021 13.652 63.0701 13.088 63.0221 12.788C62.9621 13.064 62.8541 13.484 62.5541 14.456L61.7381 17H60.3101ZM68.1424 14.444V13.148H72.0064V14.444H68.1424ZM72.9602 15.2H74.3522C74.3642 15.716 74.7482 16.04 75.4202 16.04C76.1042 16.04 76.4762 15.764 76.4762 15.332C76.4762 15.032 76.3202 14.816 75.7922 14.696L74.7242 14.444C73.6562 14.204 73.1402 13.7 73.1402 12.752C73.1402 11.588 74.1242 10.892 75.4922 10.892C76.8242 10.892 77.7242 11.66 77.7362 12.812H76.3442C76.3322 12.308 75.9962 11.984 75.4322 11.984C74.8562 11.984 74.5202 12.248 74.5202 12.692C74.5202 13.028 74.7842 13.244 75.2882 13.364L76.3562 13.616C77.3522 13.844 77.8562 14.3 77.8562 15.212C77.8562 16.412 76.8362 17.156 75.3722 17.156C73.8962 17.156 72.9602 16.364 72.9602 15.2ZM78.6228 13.964C78.6228 12.104 79.7268 10.892 81.3948 10.892C82.2948 10.892 83.0748 11.288 83.4348 11.972L83.5308 11.072H84.8748V19.748H83.4228V16.208C83.0508 16.808 82.2708 17.156 81.3948 17.156C79.6308 17.156 78.6228 15.812 78.6228 13.964ZM80.0868 14.036C80.0868 15.092 80.7108 15.836 81.7308 15.836C82.7508 15.836 83.4108 15.104 83.4108 14.036C83.4108 12.968 82.7508 12.224 81.7308 12.224C80.7108 12.224 80.0868 12.98 80.0868 14.036ZM90.4205 11.072H91.8845V17H90.5285L90.4205 16.208C90.0605 16.772 89.2925 17.156 88.5005 17.156C87.1325 17.156 86.3285 16.232 86.3285 14.78V11.072H87.7925V14.264C87.7925 15.392 88.2365 15.848 89.0525 15.848C89.9765 15.848 90.4205 15.308 90.4205 14.18V11.072ZM95.1606 17.156C93.9006 17.156 93.1326 16.424 93.1326 15.308C93.1326 14.216 93.9246 13.532 95.3286 13.424L97.1046 13.292V13.16C97.1046 12.356 96.6246 12.032 95.8806 12.032C95.0166 12.032 94.5366 12.392 94.5366 13.016H93.2886C93.2886 11.732 94.3446 10.892 95.9526 10.892C97.5486 10.892 98.5326 11.756 98.5326 13.4V17H97.2486L97.1406 16.124C96.8886 16.736 96.0846 17.156 95.1606 17.156ZM95.6406 16.052C96.5406 16.052 97.1166 15.512 97.1166 14.6V14.288L95.8806 14.384C94.9686 14.468 94.6206 14.768 94.6206 15.248C94.6206 15.788 94.9806 16.052 95.6406 16.052ZM103.691 11.048V12.404H103.151C102.095 12.404 101.435 12.968 101.435 14.12V17H99.9708V11.084H101.351L101.435 11.948C101.687 11.36 102.251 10.964 103.043 10.964C103.247 10.964 103.451 10.988 103.691 11.048ZM107.135 17.156C105.371 17.156 104.135 15.872 104.135 14.036C104.135 12.176 105.347 10.892 107.087 10.892C108.863 10.892 109.991 12.08 109.991 13.928V14.372L105.527 14.384C105.635 15.428 106.187 15.956 107.159 15.956C107.963 15.956 108.491 15.644 108.659 15.08H110.015C109.763 16.376 108.683 17.156 107.135 17.156ZM107.099 12.092C106.235 12.092 105.707 12.56 105.563 13.448H108.539C108.539 12.632 107.975 12.092 107.099 12.092ZM111.15 14.444V13.148H115.014V14.444H111.15ZM120.526 11.072H121.99V17H120.634L120.526 16.208C120.166 16.772 119.398 17.156 118.606 17.156C117.238 17.156 116.434 16.232 116.434 14.78V11.072H117.898V14.264C117.898 15.392 118.342 15.848 119.158 15.848C120.082 15.848 120.526 15.308 120.526 14.18V11.072ZM123.502 19.748V11.072H124.858L124.954 11.972C125.314 11.288 126.094 10.892 126.994 10.892C128.662 10.892 129.766 12.104 129.766 13.964C129.766 15.812 128.758 17.156 126.994 17.156C126.106 17.156 125.338 16.808 124.966 16.208V19.748H123.502ZM124.978 14.036C124.978 15.104 125.638 15.836 126.646 15.836C127.678 15.836 128.29 15.092 128.29 14.036C128.29 12.98 127.678 12.224 126.646 12.224C125.638 12.224 124.978 12.968 124.978 14.036Z" fill="black"/>
</svg>
