<svg width="101" height="24" viewBox="0 0 101 24" fill="none" xmlns="http://www.w3.org/2000/svg">
<path d="M21.6692 6.95039C21.0292 4.78039 19.2192 2.97039 17.0492 2.33039C15.3992 1.85039 14.2592 1.89039 13.4692 2.48039C12.5192 3.19039 12.4092 4.47039 12.4092 5.38039V7.87039C12.4092 10.3304 13.5292 11.5804 15.7292 11.5804H18.5992C19.4992 11.5804 20.7892 11.4704 21.4992 10.5204C22.1092 9.74039 22.1592 8.60039 21.6692 6.95039Z" fill="#1A1A1A"/>
<path opacity="0.4" d="M18.9094 13.3601C18.6494 13.0601 18.2694 12.8902 17.8794 12.8902H14.2994C12.5394 12.8902 11.1094 11.4601 11.1094 9.70015V6.12015C11.1094 5.73015 10.9394 5.35015 10.6394 5.09015C10.3494 4.83015 9.94941 4.71015 9.56941 4.76015C7.21941 5.06015 5.05941 6.35015 3.64941 8.29015C2.22941 10.2401 1.70941 12.6201 2.15941 15.0001C2.80941 18.4401 5.55941 21.1902 9.00941 21.8402C9.55941 21.9502 10.1094 22.0002 10.6594 22.0002C12.4694 22.0002 14.2194 21.4401 15.7094 20.3502C17.6494 18.9402 18.9394 16.7801 19.2394 14.4302C19.2894 14.0401 19.1694 13.6501 18.9094 13.3601Z" fill="#1A1A1A"/>
<path d="M38.812 8.524C37.072 8.524 36.076 9.784 36.076 11.68C36.076 13.636 37.204 14.704 38.824 14.704C40.348 14.704 41.272 13.864 41.272 12.46V12.424H38.62V11.068H42.7V16H41.404L41.308 14.992C40.828 15.664 39.832 16.132 38.644 16.132C36.184 16.132 34.468 14.344 34.468 11.644C34.468 8.98 36.208 7.084 38.848 7.084C40.852 7.084 42.4 8.248 42.652 10.036H41.032C40.756 9.004 39.868 8.524 38.812 8.524ZM47.8627 10.048V11.404H47.3227C46.2667 11.404 45.6067 11.968 45.6067 13.12V16H44.1427V10.084H45.5227L45.6067 10.948C45.8587 10.36 46.4227 9.964 47.2147 9.964C47.4187 9.964 47.6227 9.988 47.8627 10.048ZM50.3833 16.156C49.1233 16.156 48.3553 15.424 48.3553 14.308C48.3553 13.216 49.1473 12.532 50.5513 12.424L52.3273 12.292V12.16C52.3273 11.356 51.8473 11.032 51.1033 11.032C50.2393 11.032 49.7593 11.392 49.7593 12.016H48.5113C48.5113 10.732 49.5673 9.892 51.1753 9.892C52.7713 9.892 53.7553 10.756 53.7553 12.4V16H52.4713L52.3633 15.124C52.1113 15.736 51.3073 16.156 50.3833 16.156ZM50.8633 15.052C51.7633 15.052 52.3393 14.512 52.3393 13.6V13.288L51.1033 13.384C50.1913 13.468 49.8433 13.768 49.8433 14.248C49.8433 14.788 50.2033 15.052 50.8633 15.052ZM55.1935 18.748V10.072H56.5495L56.6455 10.972C57.0055 10.288 57.7855 9.892 58.6855 9.892C60.3535 9.892 61.4575 11.104 61.4575 12.964C61.4575 14.812 60.4495 16.156 58.6855 16.156C57.7975 16.156 57.0295 15.808 56.6575 15.208V18.748H55.1935ZM56.6695 13.036C56.6695 14.104 57.3295 14.836 58.3375 14.836C59.3695 14.836 59.9815 14.092 59.9815 13.036C59.9815 11.98 59.3695 11.224 58.3375 11.224C57.3295 11.224 56.6695 11.968 56.6695 13.036ZM64.0872 16H62.6232V7.072H64.0992V10.84C64.4712 10.264 65.1672 9.892 66.0192 9.892C67.4832 9.892 68.2512 10.816 68.2512 12.352V16H66.7872V12.7C66.7872 11.704 66.2952 11.224 65.5512 11.224C64.6272 11.224 64.0872 11.872 64.0872 12.76V16Z" fill="black"/>
</svg>
