<svg width="101" height="24" viewBox="0 0 101 24" fill="none" xmlns="http://www.w3.org/2000/svg">
<path d="M17.4999 17.83H15.6499C15.2399 17.83 14.8999 17.49 14.8999 17.08C14.8999 16.67 15.2399 16.33 15.6499 16.33H17.4999C17.9099 16.33 18.2499 16.67 18.2499 17.08C18.2499 17.49 17.9099 17.83 17.4999 17.83Z" fill="#1A1A1A"/>
<path d="M12.97 17.83H6.5C6.09 17.83 5.75 17.49 5.75 17.08C5.75 16.67 6.09 16.33 6.5 16.33H12.97C13.38 16.33 13.72 16.67 13.72 17.08C13.72 17.49 13.39 17.83 12.97 17.83Z" fill="#1A1A1A"/>
<path d="M17.5002 14.0699H11.9702C11.5602 14.0699 11.2202 13.7299 11.2202 13.3199C11.2202 12.9099 11.5602 12.5699 11.9702 12.5699H17.5002C17.9102 12.5699 18.2502 12.9099 18.2502 13.3199C18.2502 13.7299 17.9102 14.0699 17.5002 14.0699Z" fill="#1A1A1A"/>
<path d="M9.27 14.0699H6.5C6.09 14.0699 5.75 13.7299 5.75 13.3199C5.75 12.9099 6.09 12.5699 6.5 12.5699H9.27C9.68 12.5699 10.02 12.9099 10.02 13.3199C10.02 13.7299 9.68 14.0699 9.27 14.0699Z" fill="#1A1A1A"/>
<path opacity="0.4" d="M16.19 2H7.81C4.17 2 2 4.17 2 7.81V16.18C2 19.83 4.17 22 7.81 22H16.18C19.82 22 21.99 19.83 21.99 16.19V7.81C22 4.17 19.83 2 16.19 2Z" fill="#1A1A1A"/>
<path d="M34.468 9.676C34.468 8.14 35.74 7.072 37.588 7.072C39.364 7.072 40.492 8.056 40.54 9.64H39.004C38.968 8.884 38.428 8.44 37.564 8.44C36.616 8.44 36.004 8.896 36.004 9.628C36.004 10.252 36.34 10.6 37.072 10.768L38.452 11.068C39.952 11.392 40.684 12.16 40.684 13.468C40.684 15.1 39.412 16.156 37.48 16.156C35.608 16.156 34.384 15.16 34.348 13.588H35.884C35.896 14.332 36.496 14.776 37.48 14.776C38.5 14.776 39.148 14.332 39.148 13.6C39.148 13.012 38.848 12.664 38.128 12.508L36.736 12.196C35.248 11.872 34.468 11.02 34.468 9.676ZM45.8776 10.072H47.3416V16H45.9856L45.8776 15.208C45.5176 15.772 44.7496 16.156 43.9576 16.156C42.5896 16.156 41.7856 15.232 41.7856 13.78V10.072H43.2496V13.264C43.2496 14.392 43.6936 14.848 44.5096 14.848C45.4336 14.848 45.8776 14.308 45.8776 13.18V10.072ZM50.2097 16H48.8537V7.072H50.3177V10.936C50.7017 10.276 51.4937 9.88 52.3937 9.88C54.0857 9.88 55.1177 11.2 55.1177 13.072C55.1177 14.896 54.0017 16.156 52.2977 16.156C51.4097 16.156 50.6537 15.76 50.3057 15.076L50.2097 16ZM50.3297 13.012C50.3297 14.08 50.9897 14.812 51.9977 14.812C53.0297 14.812 53.6417 14.068 53.6417 13.012C53.6417 11.956 53.0297 11.2 51.9977 11.2C50.9897 11.2 50.3297 11.944 50.3297 13.012ZM58.2408 16H56.7768V11.296H55.6368V10.072H56.7768V8.224H58.2408V10.072H59.3928V11.296H58.2408V16ZM61.0349 8.884C60.5309 8.884 60.1349 8.488 60.1349 7.996C60.1349 7.504 60.5309 7.12 61.0349 7.12C61.5149 7.12 61.9109 7.504 61.9109 7.996C61.9109 8.488 61.5149 8.884 61.0349 8.884ZM60.3029 16V10.072H61.7669V16H60.3029ZM65.2954 16H63.8314V11.296H62.6914V10.072H63.8314V8.224H65.2954V10.072H66.4474V11.296H65.2954V16ZM68.8336 16H67.3816V7.072H68.8336V16ZM73.0213 16.156C71.2573 16.156 70.0213 14.872 70.0213 13.036C70.0213 11.176 71.2333 9.892 72.9733 9.892C74.7493 9.892 75.8773 11.08 75.8773 12.928V13.372L71.4133 13.384C71.5213 14.428 72.0733 14.956 73.0453 14.956C73.8493 14.956 74.3773 14.644 74.5453 14.08H75.9013C75.6493 15.376 74.5693 16.156 73.0213 16.156ZM72.9853 11.092C72.1213 11.092 71.5933 11.56 71.4493 12.448H74.4253C74.4253 11.632 73.8613 11.092 72.9853 11.092Z" fill="black"/>
</svg>
