<svg width="101" height="24" viewBox="0 0 101 24" fill="none" xmlns="http://www.w3.org/2000/svg">
<path d="M20.6799 13.9104V13.9004C19.7999 12.9704 18.5699 12.4004 17.1999 12.4004C14.5499 12.4004 12.3999 14.5504 12.3999 17.2004C12.3999 18.4304 12.8699 19.5504 13.6299 20.4004C14.5099 21.3804 15.7799 22.0004 17.1999 22.0004C19.8499 22.0004 21.9999 19.8504 21.9999 17.2004C21.9999 15.9304 21.4999 14.7704 20.6799 13.9104ZM18.9899 18.0104H17.9499V19.1004C17.9499 19.5104 17.6099 19.8504 17.1999 19.8504C16.7899 19.8504 16.4499 19.5104 16.4499 19.1004V18.0104H15.4099C14.9899 18.0104 14.6599 17.6804 14.6599 17.2604C14.6599 16.8504 14.9799 16.5204 15.3999 16.5104H16.4499V15.5104C16.4499 15.4904 16.4499 15.4704 16.4599 15.4504C16.4799 15.0704 16.8099 14.7604 17.1999 14.7604C17.5999 14.7604 17.9299 15.0804 17.9499 15.4804V16.5104H18.9899C19.4099 16.5104 19.7399 16.8504 19.7399 17.2604C19.7399 17.6804 19.4099 18.0104 18.9899 18.0104Z" fill="#1A1A1A"/>
<path opacity="0.4" d="M22 8.68961C22 9.87961 21.81 10.9796 21.48 11.9996C21.27 12.6696 21 13.3096 20.68 13.8996C19.8 12.9696 18.57 12.3996 17.2 12.3996C14.55 12.3996 12.4 14.5496 12.4 17.1996C12.4 18.4296 12.87 19.5496 13.63 20.3996C13.26 20.5696 12.92 20.7096 12.62 20.8096C12.28 20.9296 11.72 20.9296 11.38 20.8096C8.97001 19.9896 4.10002 16.9996 2.52002 11.9996C2.19002 10.9796 2 9.87961 2 8.68961C2 5.59961 4.49 3.09961 7.56 3.09961C9.37 3.09961 10.99 3.97959 12 5.32959C13.01 3.97959 14.63 3.09961 16.44 3.09961C19.51 3.09961 22 5.59961 22 8.68961Z" fill="#1A1A1A"/>
<path d="M36.508 16H34.972V7.228H36.508V10.852H40.396V7.228H41.932V16H40.396V12.28H36.508V16ZM46.3143 16.156C44.5503 16.156 43.3143 14.872 43.3143 13.036C43.3143 11.176 44.5263 9.892 46.2663 9.892C48.0423 9.892 49.1703 11.08 49.1703 12.928V13.372L44.7063 13.384C44.8143 14.428 45.3663 14.956 46.3383 14.956C47.1423 14.956 47.6703 14.644 47.8383 14.08H49.1943C48.9423 15.376 47.8623 16.156 46.3143 16.156ZM46.2783 11.092C45.4143 11.092 44.8863 11.56 44.7423 12.448H47.7183C47.7183 11.632 47.1543 11.092 46.2783 11.092ZM52.0473 16.156C50.7873 16.156 50.0193 15.424 50.0193 14.308C50.0193 13.216 50.8113 12.532 52.2153 12.424L53.9913 12.292V12.16C53.9913 11.356 53.5113 11.032 52.7673 11.032C51.9033 11.032 51.4233 11.392 51.4233 12.016H50.1753C50.1753 10.732 51.2313 9.892 52.8393 9.892C54.4353 9.892 55.4193 10.756 55.4193 12.4V16H54.1353L54.0273 15.124C53.7753 15.736 52.9713 16.156 52.0473 16.156ZM52.5273 15.052C53.4273 15.052 54.0033 14.512 54.0033 13.6V13.288L52.7673 13.384C51.8553 13.468 51.5073 13.768 51.5073 14.248C51.5073 14.788 51.8673 15.052 52.5273 15.052ZM60.5776 10.048V11.404H60.0376C58.9816 11.404 58.3216 11.968 58.3216 13.12V16H56.8576V10.084H58.2376L58.3216 10.948C58.5736 10.36 59.1376 9.964 59.9296 9.964C60.1336 9.964 60.3376 9.988 60.5776 10.048ZM63.8189 16H62.3549V11.296H61.2149V10.072H62.3549V8.224H63.8189V10.072H64.9709V11.296H63.8189V16ZM65.6346 13.444V12.148H69.4986V13.444H65.6346ZM72.5552 16.156C71.2952 16.156 70.5272 15.424 70.5272 14.308C70.5272 13.216 71.3192 12.532 72.7232 12.424L74.4992 12.292V12.16C74.4992 11.356 74.0192 11.032 73.2752 11.032C72.4112 11.032 71.9312 11.392 71.9312 12.016H70.6832C70.6832 10.732 71.7392 9.892 73.3472 9.892C74.9432 9.892 75.9272 10.756 75.9272 12.4V16H74.6432L74.5352 15.124C74.2832 15.736 73.4792 16.156 72.5552 16.156ZM73.0352 15.052C73.9352 15.052 74.5112 14.512 74.5112 13.6V13.288L73.2752 13.384C72.3632 13.468 72.0152 13.768 72.0152 14.248C72.0152 14.788 72.3752 15.052 73.0352 15.052ZM79.8014 16.156C78.0854 16.156 77.0174 14.896 77.0174 13.06C77.0174 11.212 78.0974 9.892 79.8854 9.892C80.7134 9.892 81.4454 10.24 81.8174 10.828V7.072H83.2694V16H81.9254L81.8294 15.076C81.4694 15.76 80.7014 16.156 79.8014 16.156ZM80.1254 14.812C81.1454 14.812 81.8054 14.08 81.8054 13.012C81.8054 11.944 81.1454 11.2 80.1254 11.2C79.1054 11.2 78.4814 11.956 78.4814 13.012C78.4814 14.068 79.1054 14.812 80.1254 14.812ZM87.2311 16.156C85.5151 16.156 84.4471 14.896 84.4471 13.06C84.4471 11.212 85.5271 9.892 87.3151 9.892C88.1431 9.892 88.8751 10.24 89.2471 10.828V7.072H90.6991V16H89.3551L89.2591 15.076C88.8991 15.76 88.1311 16.156 87.2311 16.156ZM87.5551 14.812C88.5751 14.812 89.2351 14.08 89.2351 13.012C89.2351 11.944 88.5751 11.2 87.5551 11.2C86.5351 11.2 85.9111 11.956 85.9111 13.012C85.9111 14.068 86.5351 14.812 87.5551 14.812Z" fill="black"/>
</svg>
