<svg width="200" height="24" viewBox="0 0 200 24" fill="none" xmlns="http://www.w3.org/2000/svg">
<path opacity="0.4" d="M20.6001 4.09998V6.29998C20.6001 7.09998 20.1001 8.09998 19.6001 8.59998L15.3001 12.4C14.7001 12.9 14.3001 13.9 14.3001 14.7V19C14.3001 19.6 13.9001 20.4 13.4001 20.7L12.0001 21.6C10.7001 22.4 8.9001 21.5 8.9001 19.9V14.6C8.9001 13.9 8.5001 13 8.1001 12.5L7.1001 11.45L12.9201 2.09998H18.6001C19.7001 2.09998 20.6001 2.99998 20.6001 4.09998Z" fill="#1A1A1A"/>
<path d="M11.2999 2.09998L6.1199 10.41L4.2999 8.49998C3.7999 7.99998 3.3999 7.09998 3.3999 6.49998V4.19998C3.3999 2.99998 4.2999 2.09998 5.3999 2.09998H11.2999Z" fill="#1A1A1A"/>
<path d="M39.772 12.412H36.508V16H34.972V7.228H40.396V8.644H36.508V11.032H39.772V12.412ZM42.2966 8.884C41.7926 8.884 41.3966 8.488 41.3966 7.996C41.3966 7.504 41.7926 7.12 42.2966 7.12C42.7766 7.12 43.1726 7.504 43.1726 7.996C43.1726 8.488 42.7766 8.884 42.2966 8.884ZM41.5646 16V10.072H43.0286V16H41.5646ZM46.0172 16H44.5652V7.072H46.0172V16ZM49.5689 16H48.1049V11.296H46.9649V10.072H48.1049V8.224H49.5689V10.072H50.7209V11.296H49.5689V16ZM54.2244 16.156C52.4604 16.156 51.2244 14.872 51.2244 13.036C51.2244 11.176 52.4364 9.892 54.1764 9.892C55.9524 9.892 57.0804 11.08 57.0804 12.928V13.372L52.6164 13.384C52.7244 14.428 53.2764 14.956 54.2484 14.956C55.0524 14.956 55.5804 14.644 55.7484 14.08H57.1044C56.8524 15.376 55.7724 16.156 54.2244 16.156ZM54.1884 11.092C53.3244 11.092 52.7964 11.56 52.6524 12.448H55.6284C55.6284 11.632 55.0644 11.092 54.1884 11.092ZM61.9721 10.048V11.404H61.4321C60.3761 11.404 59.7161 11.968 59.7161 13.12V16H58.2521V10.084H59.6321L59.7161 10.948C59.9681 10.36 60.5321 9.964 61.3241 9.964C61.5281 9.964 61.7321 9.988 61.9721 10.048Z" fill="black"/>
</svg>
