<svg width="126" height="24" viewBox="0 0 126 24" fill="none" xmlns="http://www.w3.org/2000/svg">
<path opacity="0.4" d="M12.0003 6.00005L6.44034 10.0001L3.19034 7.80006C2.61034 7.41006 2.60035 6.57006 3.17035 6.16006L7.00034 3.40005C7.34034 3.16005 7.80035 3.15005 8.14035 3.38005L12.0003 6.00005Z" fill="#1A1A1A"/>
<path opacity="0.4" d="M20.81 7.80005L17.56 10L12 6.00005L15.86 3.39005C16.21 3.16005 16.66 3.16005 17 3.41005L20.83 6.17005C21.4 6.57005 21.39 7.41005 20.81 7.80005Z" fill="#1A1A1A"/>
<path opacity="0.4" d="M11.9999 14L7.55992 17L4.99992 15.16L3.15992 13.84C2.59992 13.43 2.60991 12.59 3.17991 12.2L6.42991 10L11.9999 14Z" fill="#1A1A1A"/>
<path opacity="0.4" d="M20.81 12.2C21.39 12.59 21.4 13.43 20.83 13.84L19 15.16L16.44 17L12 14L17.56 10L20.81 12.2Z" fill="#1A1A1A"/>
<path d="M19 15.16V18.13C19 18.52 18.77 18.87 18.42 19.04L12.42 21.81C12.15 21.93 11.85 21.93 11.58 21.81L5.57999 19.04C5.22999 18.88 5 18.52 5 18.13V15.16L7.56 17L12 14L16.44 17L19 15.16Z" fill="#1A1A1A"/>
<path d="M38.128 16H34.972V7.228H38.044C40.636 7.228 42.424 9.016 42.424 11.632C42.424 14.212 40.672 16 38.128 16ZM37.9 8.644H36.508V14.584H37.984C39.736 14.584 40.804 13.456 40.804 11.632C40.804 9.772 39.712 8.644 37.9 8.644ZM47.3588 10.048V11.404H46.8188C45.7628 11.404 45.1028 11.968 45.1028 13.12V16H43.6388V10.084H45.0188L45.1028 10.948C45.3548 10.36 45.9188 9.964 46.7108 9.964C46.9148 9.964 47.1188 9.988 47.3588 10.048ZM47.8025 13.024C47.8025 11.176 49.1345 9.904 50.9705 9.904C52.8065 9.904 54.1385 11.176 54.1385 13.024C54.1385 14.872 52.8065 16.144 50.9705 16.144C49.1345 16.144 47.8025 14.872 47.8025 13.024ZM49.2665 13.024C49.2665 14.104 49.9625 14.836 50.9705 14.836C51.9785 14.836 52.6745 14.104 52.6745 13.024C52.6745 11.944 51.9785 11.212 50.9705 11.212C49.9625 11.212 49.2665 11.944 49.2665 13.024ZM55.299 18.748V10.072H56.655L56.751 10.972C57.111 10.288 57.891 9.892 58.791 9.892C60.459 9.892 61.563 11.104 61.563 12.964C61.563 14.812 60.555 16.156 58.791 16.156C57.903 16.156 57.135 15.808 56.763 15.208V18.748H55.299ZM56.775 13.036C56.775 14.104 57.435 14.836 58.443 14.836C59.475 14.836 60.087 14.092 60.087 13.036C60.087 11.98 59.475 11.224 58.443 11.224C57.435 11.224 56.775 11.968 56.775 13.036ZM64.0847 16H62.7287V7.072H64.1927V10.936C64.5767 10.276 65.3687 9.88 66.2687 9.88C67.9607 9.88 68.9927 11.2 68.9927 13.072C68.9927 14.896 67.8767 16.156 66.1727 16.156C65.2847 16.156 64.5287 15.76 64.1807 15.076L64.0847 16ZM64.2047 13.012C64.2047 14.08 64.8647 14.812 65.8727 14.812C66.9047 14.812 67.5167 14.068 67.5167 13.012C67.5167 11.956 66.9047 11.2 65.8727 11.2C64.8647 11.2 64.2047 11.944 64.2047 13.012ZM69.8103 13.024C69.8103 11.176 71.1423 9.904 72.9783 9.904C74.8143 9.904 76.1463 11.176 76.1463 13.024C76.1463 14.872 74.8143 16.144 72.9783 16.144C71.1423 16.144 69.8103 14.872 69.8103 13.024ZM71.2743 13.024C71.2743 14.104 71.9703 14.836 72.9783 14.836C73.9863 14.836 74.6823 14.104 74.6823 13.024C74.6823 11.944 73.9863 11.212 72.9783 11.212C71.9703 11.212 71.2743 11.944 71.2743 13.024ZM78.0693 16H76.4013L78.4413 13.096L76.4013 10.072H78.1053L79.4133 12.088L80.6733 10.072H82.3173L80.3013 13.072L82.2573 16H80.5773L79.3173 14.044L78.0693 16Z" fill="black"/>
</svg>
