<svg width="101" height="24" viewBox="0 0 101 24" fill="none" xmlns="http://www.w3.org/2000/svg">
<path d="M21.6297 14.6598L21.2197 16.5198C20.5097 19.7198 17.9997 21.9998 14.3797 21.9998H9.61974C5.99974 21.9998 3.48974 19.7198 2.77974 16.5198L2.36974 14.6598C2.16974 13.7498 2.70973 12.7198 3.57973 12.3698L4.99974 11.7998L10.5098 9.58981C10.9898 9.39981 11.4997 9.2998 11.9997 9.2998C12.4997 9.2998 13.0097 9.39981 13.4897 9.58981L18.9997 11.7998L20.4198 12.3698C21.2898 12.7198 21.8298 13.7498 21.6297 14.6598Z" fill="#1A1A1A"/>
<path opacity="0.4" d="M19 8V11.8L13.49 9.59C12.53 9.21 11.47 9.21 10.51 9.59L5 11.8V8C5 6.35 6.35 5 8 5H16C17.65 5 19 6.35 19 8Z" fill="#1A1A1A"/>
<path d="M14.5 5H9.5V3C9.5 2.45 9.95 2 10.5 2H13.5C14.05 2 14.5 2.45 14.5 3V5Z" fill="#1A1A1A"/>
<path d="M34.468 9.676C34.468 8.14 35.74 7.072 37.588 7.072C39.364 7.072 40.492 8.056 40.54 9.64H39.004C38.968 8.884 38.428 8.44 37.564 8.44C36.616 8.44 36.004 8.896 36.004 9.628C36.004 10.252 36.34 10.6 37.072 10.768L38.452 11.068C39.952 11.392 40.684 12.16 40.684 13.468C40.684 15.1 39.412 16.156 37.48 16.156C35.608 16.156 34.384 15.16 34.348 13.588H35.884C35.896 14.332 36.496 14.776 37.48 14.776C38.5 14.776 39.148 14.332 39.148 13.6C39.148 13.012 38.848 12.664 38.128 12.508L36.736 12.196C35.248 11.872 34.468 11.02 34.468 9.676ZM43.3216 16H41.8576V7.072H43.3336V10.84C43.7056 10.264 44.4016 9.892 45.2536 9.892C46.7176 9.892 47.4856 10.816 47.4856 12.352V16H46.0216V12.7C46.0216 11.704 45.5296 11.224 44.7856 11.224C43.8616 11.224 43.3216 11.872 43.3216 12.76V16ZM49.656 8.884C49.152 8.884 48.756 8.488 48.756 7.996C48.756 7.504 49.152 7.12 49.656 7.12C50.136 7.12 50.532 7.504 50.532 7.996C50.532 8.488 50.136 8.884 49.656 8.884ZM48.924 16V10.072H50.388V16H48.924ZM51.9005 18.748V10.072H53.2565L53.3525 10.972C53.7125 10.288 54.4925 9.892 55.3925 9.892C57.0605 9.892 58.1645 11.104 58.1645 12.964C58.1645 14.812 57.1565 16.156 55.3925 16.156C54.5045 16.156 53.7365 15.808 53.3645 15.208V18.748H51.9005ZM53.3765 13.036C53.3765 14.104 54.0365 14.836 55.0445 14.836C56.0765 14.836 56.6885 14.092 56.6885 13.036C56.6885 11.98 56.0765 11.224 55.0445 11.224C54.0365 11.224 53.3765 11.968 53.3765 13.036Z" fill="black"/>
</svg>
