<svg width="101" height="24" viewBox="0 0 101 24" fill="none" xmlns="http://www.w3.org/2000/svg">
<path d="M13.47 14.3901H10.53C9.26 14.3901 8.5 15.1501 8.5 16.4201V19.3601C8.5 20.6301 9.26 21.3901 10.53 21.3901H13.47C14.74 21.3901 15.5 20.6301 15.5 19.3601V16.4201C15.5 15.1501 14.74 14.3901 13.47 14.3901ZM14.41 18.3201C14.31 18.4201 14.16 18.4901 14 18.5001H12.59L12.6 19.8901C12.59 20.0601 12.53 20.2001 12.41 20.3201C12.31 20.4201 12.16 20.4901 12 20.4901C11.67 20.4901 11.4 20.2201 11.4 19.8901V18.4901L10 18.5001C9.67 18.5001 9.4 18.2201 9.4 17.8901C9.4 17.5601 9.67 17.2901 10 17.2901L11.4 17.3001V15.9001C11.4 15.5701 11.67 15.2901 12 15.2901C12.33 15.2901 12.6 15.5701 12.6 15.9001L12.59 17.2901H14C14.33 17.2901 14.6 17.5601 14.6 17.8901C14.59 18.0601 14.52 18.2001 14.41 18.3201Z" fill="#1A1A1A"/>
<path opacity="0.4" d="M21.74 11.7401C21.13 9.74005 19.61 8.30005 17.7 7.87005C17.14 5.37005 15.6 3.58005 13.42 2.90005C11.04 2.17005 8.28 2.88005 6.55 4.69005C5.02 6.28005 4.52 8.47005 5.11 10.8001C2.98 11.3201 2 13.1801 2 14.8601C2 16.7401 3.23 18.8501 5.97 19.0401H8.5V16.4101C8.5 15.1401 9.26 14.3801 10.53 14.3801H13.47C14.74 14.3801 15.5 15.1401 15.5 16.4101V19.0401H16.31C16.32 19.0401 16.34 19.0401 16.35 19.0401C17.77 19.0401 19.13 18.5101 20.17 17.5601C21.8 16.1401 22.4 13.9101 21.74 11.7401Z" fill="#1A1A1A"/>
<path d="M38.68 16.144C36.124 16.144 34.468 14.368 34.468 11.62C34.468 8.896 36.184 7.084 38.752 7.084C40.828 7.084 42.376 8.296 42.676 10.18H41.056C40.756 9.16 39.88 8.56 38.716 8.56C37.096 8.56 36.076 9.736 36.076 11.608C36.076 13.468 37.108 14.668 38.716 14.668C39.904 14.668 40.816 14.044 41.104 13.072H42.7C42.364 14.92 40.756 16.144 38.68 16.144ZM45.2789 16H43.8269V7.072H45.2789V16ZM46.4666 13.024C46.4666 11.176 47.7986 9.904 49.6346 9.904C51.4706 9.904 52.8026 11.176 52.8026 13.024C52.8026 14.872 51.4706 16.144 49.6346 16.144C47.7986 16.144 46.4666 14.872 46.4666 13.024ZM47.9306 13.024C47.9306 14.104 48.6266 14.836 49.6346 14.836C50.6426 14.836 51.3386 14.104 51.3386 13.024C51.3386 11.944 50.6426 11.212 49.6346 11.212C48.6266 11.212 47.9306 11.944 47.9306 13.024ZM57.8424 10.072H59.3064V16H57.9504L57.8424 15.208C57.4824 15.772 56.7144 16.156 55.9224 16.156C54.5544 16.156 53.7504 15.232 53.7504 13.78V10.072H55.2144V13.264C55.2144 14.392 55.6584 14.848 56.4744 14.848C57.3984 14.848 57.8424 14.308 57.8424 13.18V10.072ZM63.1373 16.156C61.4213 16.156 60.3533 14.896 60.3533 13.06C60.3533 11.212 61.4333 9.892 63.2213 9.892C64.0493 9.892 64.7813 10.24 65.1533 10.828V7.072H66.6053V16H65.2613L65.1653 15.076C64.8053 15.76 64.0373 16.156 63.1373 16.156ZM63.4613 14.812C64.4813 14.812 65.1413 14.08 65.1413 13.012C65.1413 11.944 64.4813 11.2 63.4613 11.2C62.4413 11.2 61.8173 11.956 61.8173 13.012C61.8173 14.068 62.4413 14.812 63.4613 14.812ZM68.119 13.444V12.148H71.983V13.444H68.119ZM73.4748 18.748V10.072H74.8308L74.9268 10.972C75.2868 10.288 76.0668 9.892 76.9668 9.892C78.6348 9.892 79.7388 11.104 79.7388 12.964C79.7388 14.812 78.7308 16.156 76.9668 16.156C76.0788 16.156 75.3108 15.808 74.9388 15.208V18.748H73.4748ZM74.9508 13.036C74.9508 14.104 75.6108 14.836 76.6188 14.836C77.6508 14.836 78.2628 14.092 78.2628 13.036C78.2628 11.98 77.6508 11.224 76.6188 11.224C75.6108 11.224 74.9508 11.968 74.9508 13.036ZM82.3804 16H80.9284V7.072H82.3804V16ZM87.9362 10.072H89.4002V16H88.0442L87.9362 15.208C87.5762 15.772 86.8082 16.156 86.0162 16.156C84.6482 16.156 83.8442 15.232 83.8442 13.78V10.072H85.3082V13.264C85.3082 14.392 85.7522 14.848 86.5682 14.848C87.4922 14.848 87.9362 14.308 87.9362 13.18V10.072ZM90.3391 14.2H91.7311C91.7431 14.716 92.1271 15.04 92.7991 15.04C93.4831 15.04 93.8551 14.764 93.8551 14.332C93.8551 14.032 93.6991 13.816 93.1711 13.696L92.1031 13.444C91.0351 13.204 90.5191 12.7 90.5191 11.752C90.5191 10.588 91.5031 9.892 92.8711 9.892C94.2031 9.892 95.1031 10.66 95.1151 11.812H93.7231C93.7111 11.308 93.3751 10.984 92.8111 10.984C92.2351 10.984 91.8991 11.248 91.8991 11.692C91.8991 12.028 92.1631 12.244 92.6671 12.364L93.7351 12.616C94.7311 12.844 95.2351 13.3 95.2351 14.212C95.2351 15.412 94.2151 16.156 92.7511 16.156C91.2751 16.156 90.3391 15.364 90.3391 14.2Z" fill="black"/>
</svg>
