<svg width="130" height="24" viewBox="0 0 130 24" fill="none" xmlns="http://www.w3.org/2000/svg">
<path d="M20 12.2V13.9C20 17.05 18.2 18.4 15.5 18.4H6.5C3.8 18.4 2 17.05 2 13.9V8.5C2 5.35 3.8 4 6.5 4H9.2C9.07 4.38 9 4.8 9 5.25V9.15002C9 10.12 9.32 10.94 9.89 11.51C10.46 12.08 11.28 12.4 12.25 12.4V13.79C12.25 14.3 12.83 14.61 13.26 14.33L16.15 12.4H18.75C19.2 12.4 19.62 12.33 20 12.2Z" fill="#1A1A1A"/>
<path opacity="0.4" d="M22 5.25V9.15002C22 10.64 21.24 11.76 20 12.2C19.62 12.33 19.2 12.4 18.75 12.4H16.15L13.26 14.33C12.83 14.61 12.25 14.3 12.25 13.79V12.4C11.28 12.4 10.46 12.08 9.89 11.51C9.32 10.94 9 10.12 9 9.15002V5.25C9 4.8 9.07 4.38 9.2 4C9.64 2.76 10.76 2 12.25 2H18.75C20.7 2 22 3.3 22 5.25Z" fill="#1A1A1A"/>
<path opacity="0.4" d="M14.6004 21.2499H11.7504V18.3999C11.7504 17.9899 11.4104 17.6499 11.0004 17.6499C10.5904 17.6499 10.2504 17.9899 10.2504 18.3999V21.2499H7.40039C6.99039 21.2499 6.65039 21.5899 6.65039 21.9999C6.65039 22.4099 6.99039 22.7499 7.40039 22.7499H14.6004C15.0104 22.7499 15.3504 22.4099 15.3504 21.9999C15.3504 21.5899 15.0104 21.2499 14.6004 21.2499Z" fill="#1A1A1A"/>
<path d="M15.4404 8C15.0204 8 14.6904 7.66 14.6904 7.25C14.6904 6.84 15.0304 6.5 15.4404 6.5C15.8504 6.5 16.1904 6.84 16.1904 7.25C16.1904 7.66 15.8504 8 15.4404 8Z" fill="#1A1A1A"/>
<path d="M18.25 8C17.83 8 17.5 7.66 17.5 7.25C17.5 6.84 17.84 6.5 18.25 6.5C18.66 6.5 19 6.84 19 7.25C19 7.66 18.66 8 18.25 8Z" fill="#1A1A1A"/>
<path d="M12.6201 8C12.2001 8 11.8701 7.66 11.8701 7.25C11.8701 6.84 12.2101 6.5 12.6201 6.5C13.0301 6.5 13.3701 6.84 13.3701 7.25C13.3701 7.66 13.0401 8 12.6201 8Z" fill="#1A1A1A"/>
<path d="M38.128 17H34.972V8.228H38.044C40.636 8.228 42.424 10.016 42.424 12.632C42.424 15.212 40.672 17 38.128 17ZM37.9 9.644H36.508V15.584H37.984C39.736 15.584 40.804 14.456 40.804 12.632C40.804 10.772 39.712 9.644 37.9 9.644ZM46.2908 17.156C44.5268 17.156 43.2908 15.872 43.2908 14.036C43.2908 12.176 44.5028 10.892 46.2428 10.892C48.0188 10.892 49.1468 12.08 49.1468 13.928V14.372L44.6828 14.384C44.7908 15.428 45.3428 15.956 46.3148 15.956C47.1188 15.956 47.6468 15.644 47.8148 15.08H49.1708C48.9188 16.376 47.8388 17.156 46.2908 17.156ZM46.2548 12.092C45.3908 12.092 44.8628 12.56 44.7188 13.448H47.6948C47.6948 12.632 47.1308 12.092 46.2548 12.092ZM51.7407 17L49.3887 11.072H50.9487L51.9807 13.796C52.2327 14.504 52.4367 15.116 52.5087 15.44C52.5927 15.068 52.8087 14.444 53.0607 13.796L54.1407 11.072H55.6527L53.1807 17H51.7407ZM57.2263 9.884C56.7223 9.884 56.3263 9.488 56.3263 8.996C56.3263 8.504 56.7223 8.12 57.2263 8.12C57.7063 8.12 58.1023 8.504 58.1023 8.996C58.1023 9.488 57.7063 9.884 57.2263 9.884ZM56.4943 17V11.072H57.9583V17H56.4943ZM59.1228 14.024C59.1228 12.188 60.3348 10.892 62.0868 10.892C63.7068 10.892 64.8108 11.792 64.9668 13.22H63.5028C63.3348 12.548 62.8428 12.2 62.1468 12.2C61.2108 12.2 60.5868 12.908 60.5868 14.024C60.5868 15.14 61.1628 15.836 62.0988 15.836C62.8308 15.836 63.3468 15.476 63.5028 14.828H64.9788C64.7988 16.208 63.6468 17.156 62.0988 17.156C60.2988 17.156 59.1228 15.908 59.1228 14.024ZM68.7205 17.156C66.9565 17.156 65.7205 15.872 65.7205 14.036C65.7205 12.176 66.9325 10.892 68.6725 10.892C70.4485 10.892 71.5765 12.08 71.5765 13.928V14.372L67.1125 14.384C67.2205 15.428 67.7725 15.956 68.7445 15.956C69.5485 15.956 70.0765 15.644 70.2445 15.08H71.6005C71.3485 16.376 70.2685 17.156 68.7205 17.156ZM68.6845 12.092C67.8205 12.092 67.2925 12.56 67.1485 13.448H70.1245C70.1245 12.632 69.5605 12.092 68.6845 12.092ZM72.7362 14.444V13.148H76.6002V14.444H72.7362ZM79.5559 17H78.0919V11.072H79.4359L79.5559 11.768C79.8559 11.276 80.4559 10.892 81.3079 10.892C82.2079 10.892 82.8319 11.336 83.1439 12.02C83.4439 11.336 84.1399 10.892 85.0399 10.892C86.4799 10.892 87.2719 11.756 87.2719 13.124V17H85.8199V13.508C85.8199 12.656 85.3639 12.212 84.6679 12.212C83.9599 12.212 83.4199 12.668 83.4199 13.64V17H81.9559V13.496C81.9559 12.668 81.5119 12.224 80.8159 12.224C80.1199 12.224 79.5559 12.68 79.5559 13.64V17ZM91.3611 17.156C89.5971 17.156 88.3611 15.872 88.3611 14.036C88.3611 12.176 89.5731 10.892 91.3131 10.892C93.0891 10.892 94.2171 12.08 94.2171 13.928V14.372L89.7531 14.384C89.8611 15.428 90.4131 15.956 91.3851 15.956C92.1891 15.956 92.7171 15.644 92.8851 15.08H94.2411C93.9891 16.376 92.9091 17.156 91.3611 17.156ZM91.3251 12.092C90.4611 12.092 89.9331 12.56 89.7891 13.448H92.7651C92.7651 12.632 92.2011 12.092 91.3251 12.092ZM94.9328 15.2H96.3248C96.3368 15.716 96.7208 16.04 97.3928 16.04C98.0768 16.04 98.4488 15.764 98.4488 15.332C98.4488 15.032 98.2928 14.816 97.7648 14.696L96.6968 14.444C95.6288 14.204 95.1128 13.7 95.1128 12.752C95.1128 11.588 96.0968 10.892 97.4648 10.892C98.7968 10.892 99.6968 11.66 99.7088 12.812H98.3168C98.3048 12.308 97.9688 11.984 97.4048 11.984C96.8288 11.984 96.4928 12.248 96.4928 12.692C96.4928 13.028 96.7568 13.244 97.2608 13.364L98.3288 13.616C99.3248 13.844 99.8288 14.3 99.8288 15.212C99.8288 16.412 98.8088 17.156 97.3448 17.156C95.8688 17.156 94.9328 16.364 94.9328 15.2ZM100.488 15.2H101.88C101.892 15.716 102.276 16.04 102.948 16.04C103.632 16.04 104.004 15.764 104.004 15.332C104.004 15.032 103.848 14.816 103.32 14.696L102.252 14.444C101.184 14.204 100.668 13.7 100.668 12.752C100.668 11.588 101.652 10.892 103.02 10.892C104.352 10.892 105.252 11.66 105.264 12.812H103.872C103.86 12.308 103.524 11.984 102.96 11.984C102.384 11.984 102.048 12.248 102.048 12.692C102.048 13.028 102.312 13.244 102.816 13.364L103.884 13.616C104.88 13.844 105.384 14.3 105.384 15.212C105.384 16.412 104.364 17.156 102.9 17.156C101.424 17.156 100.488 16.364 100.488 15.2ZM108.262 17.156C107.002 17.156 106.234 16.424 106.234 15.308C106.234 14.216 107.026 13.532 108.43 13.424L110.206 13.292V13.16C110.206 12.356 109.726 12.032 108.982 12.032C108.118 12.032 107.638 12.392 107.638 13.016H106.39C106.39 11.732 107.446 10.892 109.054 10.892C110.65 10.892 111.634 11.756 111.634 13.4V17H110.35L110.242 16.124C109.99 16.736 109.186 17.156 108.262 17.156ZM108.742 16.052C109.642 16.052 110.218 15.512 110.218 14.6V14.288L108.982 14.384C108.07 14.468 107.722 14.768 107.722 15.248C107.722 15.788 108.082 16.052 108.742 16.052ZM112.736 13.904C112.736 12.176 113.864 10.88 115.556 10.88C116.444 10.88 117.14 11.252 117.488 11.888L117.572 11.072H118.928V16.7C118.928 18.68 117.74 19.916 115.82 19.916C114.116 19.916 112.952 18.944 112.772 17.36H114.236C114.332 18.128 114.92 18.584 115.82 18.584C116.828 18.584 117.476 17.948 117.476 16.964V15.98C117.104 16.532 116.372 16.88 115.52 16.88C113.84 16.88 112.736 15.62 112.736 13.904ZM114.212 13.868C114.212 14.864 114.848 15.608 115.808 15.608C116.816 15.608 117.44 14.9 117.44 13.868C117.44 12.86 116.828 12.164 115.808 12.164C114.836 12.164 114.212 12.896 114.212 13.868ZM123.096 17.156C121.332 17.156 120.096 15.872 120.096 14.036C120.096 12.176 121.308 10.892 123.048 10.892C124.824 10.892 125.952 12.08 125.952 13.928V14.372L121.488 14.384C121.596 15.428 122.148 15.956 123.12 15.956C123.924 15.956 124.452 15.644 124.62 15.08H125.976C125.724 16.376 124.644 17.156 123.096 17.156ZM123.06 12.092C122.196 12.092 121.668 12.56 121.524 13.448H124.5C124.5 12.632 123.936 12.092 123.06 12.092Z" fill="black"/>
</svg>
