<svg width="141" height="24" viewBox="0 0 141 24" fill="none" xmlns="http://www.w3.org/2000/svg">
<path opacity="0.4" d="M16.1898 2H7.81976C4.17976 2 2.00977 4.17 2.00977 7.81V16.18C2.00977 19.82 4.17976 21.99 7.81976 21.99H16.1898C19.8298 21.99 21.9998 19.82 21.9998 16.18V7.81C21.9998 4.17 19.8298 2 16.1898 2Z" fill="#1A1A1A"/>
<path d="M8.81976 16.02C8.62976 16.02 8.43977 15.95 8.28977 15.8C7.99977 15.51 7.99977 15.03 8.28977 14.74L14.8398 8.19003C15.1298 7.90003 15.6098 7.90003 15.8998 8.19003C16.1898 8.48003 16.1898 8.96003 15.8998 9.25003L9.34976 15.8C9.19976 15.95 9.00976 16.02 8.81976 16.02Z" fill="#1A1A1A"/>
<path d="M9.23001 7.66003C8.42001 7.66003 7.75 8.32005 7.75 9.14005C7.75 9.95005 8.41001 10.62 9.23001 10.62C10.04 10.62 10.71 9.96005 10.71 9.14005C10.7 8.32005 10.04 7.66003 9.23001 7.66003Z" fill="#1A1A1A"/>
<path d="M15.77 13.39C14.96 13.39 14.29 14.05 14.29 14.87C14.29 15.68 14.95 16.35 15.77 16.35C16.58 16.35 17.25 15.69 17.25 14.87C17.25 14.05 16.59 13.39 15.77 13.39Z" fill="#1A1A1A"/>
<path d="M38.44 13.976H36.508V17H34.972V8.228H38.44C40.204 8.228 41.344 9.38 41.344 11.096C41.344 12.788 40.192 13.976 38.44 13.976ZM38.14 9.596H36.508V12.608H38.116C39.172 12.608 39.736 12.044 39.736 11.084C39.736 10.124 39.16 9.596 38.14 9.596ZM44.7791 17.156C43.0151 17.156 41.7791 15.872 41.7791 14.036C41.7791 12.176 42.9911 10.892 44.7311 10.892C46.5071 10.892 47.6351 12.08 47.6351 13.928V14.372L43.1711 14.384C43.2791 15.428 43.8311 15.956 44.8031 15.956C45.6071 15.956 46.1351 15.644 46.3031 15.08H47.6591C47.4071 16.376 46.3271 17.156 44.7791 17.156ZM44.7431 12.092C43.8791 12.092 43.3511 12.56 43.2071 13.448H46.1831C46.1831 12.632 45.6191 12.092 44.7431 12.092ZM52.5268 11.048V12.404H51.9868C50.9308 12.404 50.2708 12.968 50.2708 14.12V17H48.8068V11.084H50.1868L50.2708 11.948C50.5228 11.36 51.0868 10.964 51.8788 10.964C52.0828 10.964 52.2868 10.988 52.5268 11.048ZM52.9705 14.024C52.9705 12.188 54.1825 10.892 55.9345 10.892C57.5545 10.892 58.6585 11.792 58.8145 13.22H57.3505C57.1825 12.548 56.6905 12.2 55.9945 12.2C55.0585 12.2 54.4345 12.908 54.4345 14.024C54.4345 15.14 55.0105 15.836 55.9465 15.836C56.6785 15.836 57.1945 15.476 57.3505 14.828H58.8265C58.6465 16.208 57.4945 17.156 55.9465 17.156C54.1465 17.156 52.9705 15.908 52.9705 14.024ZM62.5682 17.156C60.8042 17.156 59.5682 15.872 59.5682 14.036C59.5682 12.176 60.7802 10.892 62.5202 10.892C64.2962 10.892 65.4242 12.08 65.4242 13.928V14.372L60.9602 14.384C61.0682 15.428 61.6202 15.956 62.5922 15.956C63.3962 15.956 63.9242 15.644 64.0922 15.08H65.4482C65.1962 16.376 64.1162 17.156 62.5682 17.156ZM62.5322 12.092C61.6682 12.092 61.1402 12.56 60.9962 13.448H63.9722C63.9722 12.632 63.4082 12.092 62.5322 12.092ZM68.0598 17H66.5958V11.072H67.9518L68.0718 11.84C68.4438 11.24 69.1638 10.892 69.9678 10.892C71.4558 10.892 72.2238 11.816 72.2238 13.352V17H70.7598V13.7C70.7598 12.704 70.2678 12.224 69.5118 12.224C68.6118 12.224 68.0598 12.848 68.0598 13.808V17ZM75.6783 17H74.2143V12.296H73.0743V11.072H74.2143V9.224H75.6783V11.072H76.8303V12.296H75.6783V17ZM79.4692 17.156C78.2092 17.156 77.4412 16.424 77.4412 15.308C77.4412 14.216 78.2332 13.532 79.6372 13.424L81.4132 13.292V13.16C81.4132 12.356 80.9332 12.032 80.1892 12.032C79.3252 12.032 78.8452 12.392 78.8452 13.016H77.5972C77.5972 11.732 78.6532 10.892 80.2612 10.892C81.8572 10.892 82.8412 11.756 82.8412 13.4V17H81.5572L81.4492 16.124C81.1972 16.736 80.3932 17.156 79.4692 17.156ZM79.9492 16.052C80.8492 16.052 81.4252 15.512 81.4252 14.6V14.288L80.1892 14.384C79.2772 14.468 78.9292 14.768 78.9292 15.248C78.9292 15.788 79.2892 16.052 79.9492 16.052ZM83.9434 13.904C83.9434 12.176 85.0714 10.88 86.7634 10.88C87.6514 10.88 88.3474 11.252 88.6954 11.888L88.7794 11.072H90.1354V16.7C90.1354 18.68 88.9474 19.916 87.0274 19.916C85.3234 19.916 84.1594 18.944 83.9794 17.36H85.4434C85.5394 18.128 86.1274 18.584 87.0274 18.584C88.0354 18.584 88.6834 17.948 88.6834 16.964V15.98C88.3114 16.532 87.5794 16.88 86.7274 16.88C85.0474 16.88 83.9434 15.62 83.9434 13.904ZM85.4194 13.868C85.4194 14.864 86.0554 15.608 87.0154 15.608C88.0234 15.608 88.6474 14.9 88.6474 13.868C88.6474 12.86 88.0354 12.164 87.0154 12.164C86.0434 12.164 85.4194 12.896 85.4194 13.868ZM94.3025 17.156C92.5385 17.156 91.3025 15.872 91.3025 14.036C91.3025 12.176 92.5145 10.892 94.2545 10.892C96.0305 10.892 97.1585 12.08 97.1585 13.928V14.372L92.6945 14.384C92.8025 15.428 93.3545 15.956 94.3265 15.956C95.1305 15.956 95.6585 15.644 95.8265 15.08H97.1825C96.9305 16.376 95.8505 17.156 94.3025 17.156ZM94.2665 12.092C93.4025 12.092 92.8745 12.56 92.7305 13.448H95.7065C95.7065 12.632 95.1425 12.092 94.2665 12.092ZM98.3182 14.444V13.148H102.182V14.444H98.3182ZM103.136 15.2H104.528C104.54 15.716 104.924 16.04 105.596 16.04C106.28 16.04 106.652 15.764 106.652 15.332C106.652 15.032 106.496 14.816 105.968 14.696L104.9 14.444C103.832 14.204 103.316 13.7 103.316 12.752C103.316 11.588 104.3 10.892 105.668 10.892C107 10.892 107.9 11.66 107.912 12.812H106.52C106.508 12.308 106.172 11.984 105.608 11.984C105.032 11.984 104.696 12.248 104.696 12.692C104.696 13.028 104.96 13.244 105.464 13.364L106.532 13.616C107.528 13.844 108.032 14.3 108.032 15.212C108.032 16.412 107.012 17.156 105.548 17.156C104.072 17.156 103.136 16.364 103.136 15.2ZM108.799 13.964C108.799 12.104 109.903 10.892 111.571 10.892C112.471 10.892 113.251 11.288 113.611 11.972L113.707 11.072H115.051V19.748H113.599V16.208C113.227 16.808 112.447 17.156 111.571 17.156C109.807 17.156 108.799 15.812 108.799 13.964ZM110.263 14.036C110.263 15.092 110.887 15.836 111.907 15.836C112.927 15.836 113.587 15.104 113.587 14.036C113.587 12.968 112.927 12.224 111.907 12.224C110.887 12.224 110.263 12.98 110.263 14.036ZM120.596 11.072H122.06V17H120.704L120.596 16.208C120.236 16.772 119.468 17.156 118.676 17.156C117.308 17.156 116.504 16.232 116.504 14.78V11.072H117.968V14.264C117.968 15.392 118.412 15.848 119.228 15.848C120.152 15.848 120.596 15.308 120.596 14.18V11.072ZM125.336 17.156C124.076 17.156 123.308 16.424 123.308 15.308C123.308 14.216 124.1 13.532 125.504 13.424L127.28 13.292V13.16C127.28 12.356 126.8 12.032 126.056 12.032C125.192 12.032 124.712 12.392 124.712 13.016H123.464C123.464 11.732 124.52 10.892 126.128 10.892C127.724 10.892 128.708 11.756 128.708 13.4V17H127.424L127.316 16.124C127.064 16.736 126.26 17.156 125.336 17.156ZM125.816 16.052C126.716 16.052 127.292 15.512 127.292 14.6V14.288L126.056 14.384C125.144 14.468 124.796 14.768 124.796 15.248C124.796 15.788 125.156 16.052 125.816 16.052ZM133.867 11.048V12.404H133.327C132.271 12.404 131.611 12.968 131.611 14.12V17H130.147V11.084H131.527L131.611 11.948C131.863 11.36 132.427 10.964 133.219 10.964C133.423 10.964 133.627 10.988 133.867 11.048ZM137.31 17.156C135.546 17.156 134.31 15.872 134.31 14.036C134.31 12.176 135.522 10.892 137.262 10.892C139.038 10.892 140.166 12.08 140.166 13.928V14.372L135.702 14.384C135.81 15.428 136.362 15.956 137.334 15.956C138.138 15.956 138.666 15.644 138.834 15.08H140.19C139.938 16.376 138.858 17.156 137.31 17.156ZM137.274 12.092C136.41 12.092 135.882 12.56 135.738 13.448H138.714C138.714 12.632 138.15 12.092 137.274 12.092Z" fill="black"/>
</svg>
