<svg width="200" height="24" viewBox="0 0 200 24" fill="none" xmlns="http://www.w3.org/2000/svg">
<path opacity="0.4" d="M16.19 2H7.82002C4.18002 2 2.01001 4.17 2.01001 7.81V16.18C2.01001 19.82 4.18002 21.99 7.82002 21.99H16.19C19.83 21.99 22 19.82 22 16.18V7.81C22 4.17 19.83 2 16.19 2Z" fill="#1A1A1A"/>
<path d="M16.86 8.45995C16.02 8.37995 15.25 8.32995 14.5 8.27995L14.42 7.79995C14.35 7.31995 14.2 6.32996 12.69 6.32996H11.3C9.81004 6.32996 9.65004 7.27996 9.57004 7.78996L9.49004 8.25995C9.06004 8.28995 8.64004 8.30995 8.21004 8.34995L7.12003 8.45995C6.74003 8.49995 6.47003 8.82995 6.51003 9.20995C6.55003 9.55995 6.84004 9.82996 7.19004 9.82996C7.21004 9.82996 7.24003 9.82996 7.26003 9.82996L8.34003 9.71996C8.94003 9.66996 9.55003 9.61995 10.15 9.58995C11.37 9.53995 12.59 9.55995 13.82 9.61995C14.73 9.65995 15.68 9.72996 16.72 9.82996C16.74 9.82996 16.76 9.82996 16.78 9.82996C17.13 9.82996 17.43 9.55995 17.46 9.20995C17.51 8.82995 17.24 8.48995 16.86 8.45995Z" fill="#1A1A1A"/>
<path d="M15.83 11.1001C15.66 10.9101 15.41 10.8101 15.16 10.8101H8.84C8.59 10.8101 8.34 10.9201 8.17 11.1001C8 11.2901 7.91 11.5401 7.93 11.7901L8.24001 15.7501C8.30001 16.6001 8.37 17.6601 10.29 17.6601H13.71C15.63 17.6601 15.7 16.6001 15.76 15.7501L16.07 11.7901C16.09 11.5401 16 11.2901 15.83 11.1001Z" fill="#1A1A1A"/>
<path d="M34.204 9.644V8.228H40.876V9.644H38.308V17H36.772V9.644H34.204ZM44.8393 11.048V12.404H44.2993C43.2433 12.404 42.5833 12.968 42.5833 14.12V17H41.1193V11.084H42.4993L42.5833 11.948C42.8353 11.36 43.3993 10.964 44.1913 10.964C44.3953 10.964 44.5993 10.988 44.8393 11.048ZM49.8502 11.072H51.3142V17H49.9582L49.8502 16.208C49.4902 16.772 48.7222 17.156 47.9302 17.156C46.5622 17.156 45.7582 16.232 45.7582 14.78V11.072H47.2222V14.264C47.2222 15.392 47.6662 15.848 48.4822 15.848C49.4062 15.848 49.8502 15.308 49.8502 14.18V11.072ZM52.2531 15.2H53.6451C53.6571 15.716 54.0411 16.04 54.7131 16.04C55.3971 16.04 55.7691 15.764 55.7691 15.332C55.7691 15.032 55.6131 14.816 55.0851 14.696L54.0171 14.444C52.9491 14.204 52.4331 13.7 52.4331 12.752C52.4331 11.588 53.4171 10.892 54.7851 10.892C56.1171 10.892 57.0171 11.66 57.0291 12.812H55.6371C55.6251 12.308 55.2891 11.984 54.7251 11.984C54.1491 11.984 53.8131 12.248 53.8131 12.692C53.8131 13.028 54.0771 13.244 54.5811 13.364L55.6491 13.616C56.6451 13.844 57.1491 14.3 57.1491 15.212C57.1491 16.412 56.1291 17.156 54.6651 17.156C53.1891 17.156 52.2531 16.364 52.2531 15.2ZM59.7278 17H58.2638V8.072H59.7398V11.84C60.1118 11.264 60.8078 10.892 61.6598 10.892C63.1238 10.892 63.8918 11.816 63.8918 13.352V17H62.4278V13.7C62.4278 12.704 61.9358 12.224 61.1918 12.224C60.2678 12.224 59.7278 12.872 59.7278 13.76V17ZM65.3182 14.444V13.148H69.1822V14.444H65.3182ZM70.1359 15.2H71.5279C71.5399 15.716 71.9239 16.04 72.5959 16.04C73.2799 16.04 73.6519 15.764 73.6519 15.332C73.6519 15.032 73.4959 14.816 72.9679 14.696L71.8999 14.444C70.8319 14.204 70.3159 13.7 70.3159 12.752C70.3159 11.588 71.2999 10.892 72.6679 10.892C73.9999 10.892 74.8999 11.66 74.9119 12.812H73.5199C73.5079 12.308 73.1719 11.984 72.6079 11.984C72.0319 11.984 71.6959 12.248 71.6959 12.692C71.6959 13.028 71.9599 13.244 72.4639 13.364L73.5319 13.616C74.5279 13.844 75.0319 14.3 75.0319 15.212C75.0319 16.412 74.0119 17.156 72.5479 17.156C71.0719 17.156 70.1359 16.364 70.1359 15.2ZM75.7986 13.964C75.7986 12.104 76.9026 10.892 78.5706 10.892C79.4706 10.892 80.2506 11.288 80.6106 11.972L80.7066 11.072H82.0506V19.748H80.5986V16.208C80.2266 16.808 79.4466 17.156 78.5706 17.156C76.8066 17.156 75.7986 15.812 75.7986 13.964ZM77.2626 14.036C77.2626 15.092 77.8866 15.836 78.9066 15.836C79.9266 15.836 80.5866 15.104 80.5866 14.036C80.5866 12.968 79.9266 12.224 78.9066 12.224C77.8866 12.224 77.2626 12.98 77.2626 14.036ZM87.5963 11.072H89.0603V17H87.7043L87.5963 16.208C87.2363 16.772 86.4683 17.156 85.6763 17.156C84.3083 17.156 83.5043 16.232 83.5043 14.78V11.072H84.9683V14.264C84.9683 15.392 85.4123 15.848 86.2283 15.848C87.1523 15.848 87.5963 15.308 87.5963 14.18V11.072ZM92.3364 17.156C91.0764 17.156 90.3084 16.424 90.3084 15.308C90.3084 14.216 91.1004 13.532 92.5044 13.424L94.2804 13.292V13.16C94.2804 12.356 93.8004 12.032 93.0564 12.032C92.1924 12.032 91.7124 12.392 91.7124 13.016H90.4644C90.4644 11.732 91.5204 10.892 93.1284 10.892C94.7244 10.892 95.7084 11.756 95.7084 13.4V17H94.4244L94.3164 16.124C94.0644 16.736 93.2604 17.156 92.3364 17.156ZM92.8164 16.052C93.7164 16.052 94.2924 15.512 94.2924 14.6V14.288L93.0564 14.384C92.1444 14.468 91.7964 14.768 91.7964 15.248C91.7964 15.788 92.1564 16.052 92.8164 16.052ZM100.867 11.048V12.404H100.327C99.2706 12.404 98.6106 12.968 98.6106 14.12V17H97.1466V11.084H98.5266L98.6106 11.948C98.8626 11.36 99.4266 10.964 100.219 10.964C100.423 10.964 100.627 10.988 100.867 11.048ZM104.31 17.156C102.546 17.156 101.31 15.872 101.31 14.036C101.31 12.176 102.522 10.892 104.262 10.892C106.038 10.892 107.166 12.08 107.166 13.928V14.372L102.702 14.384C102.81 15.428 103.362 15.956 104.334 15.956C105.138 15.956 105.666 15.644 105.834 15.08H107.19C106.938 16.376 105.858 17.156 104.31 17.156ZM104.274 12.092C103.41 12.092 102.882 12.56 102.738 13.448H105.714C105.714 12.632 105.15 12.092 104.274 12.092Z" fill="black"/>
</svg>
