<svg width="126" height="24" viewBox="0 0 126 24" fill="none" xmlns="http://www.w3.org/2000/svg">
<path opacity="0.4" d="M9 7.2V16.79C9 20 11 22 14.2 22H16.79C19.99 22 21.99 20 21.99 16.8V7.2C22 4 20 2 16.8 2H14.2C11 2 9 4 9 7.2Z" fill="#1A1A1A"/>
<path d="M12.43 8.12002L15.78 11.47C16.07 11.76 16.07 12.24 15.78 12.53L12.43 15.88C12.14 16.17 11.66 16.17 11.37 15.88C11.08 15.59 11.08 15.11 11.37 14.82L13.44 12.75H2.75C2.34 12.75 2 12.41 2 12C2 11.59 2.34 11.25 2.75 11.25H13.44L11.37 9.18002C11.22 9.03002 11.15 8.84002 11.15 8.65002C11.15 8.46002 11.22 8.27002 11.37 8.12002C11.66 7.82002 12.13 7.82002 12.43 8.12002Z" fill="#1A1A1A"/>
<path d="M36.5079 7.228V14.584H40.1799V16H34.9719V7.228H36.5079ZM40.7478 13.024C40.7478 11.176 42.0798 9.904 43.9158 9.904C45.7518 9.904 47.0838 11.176 47.0838 13.024C47.0838 14.872 45.7518 16.144 43.9158 16.144C42.0798 16.144 40.7478 14.872 40.7478 13.024ZM42.2118 13.024C42.2118 14.104 42.9078 14.836 43.9158 14.836C44.9238 14.836 45.6198 14.104 45.6198 13.024C45.6198 11.944 44.9238 11.212 43.9158 11.212C42.9078 11.212 42.2118 11.944 42.2118 13.024ZM47.9082 12.904C47.9082 11.176 49.0362 9.88 50.7282 9.88C51.6162 9.88 52.3122 10.252 52.6602 10.888L52.7442 10.072H54.1002V15.7C54.1002 17.68 52.9122 18.916 50.9922 18.916C49.2882 18.916 48.1242 17.944 47.9442 16.36H49.4082C49.5042 17.128 50.0922 17.584 50.9922 17.584C52.0002 17.584 52.6482 16.948 52.6482 15.964V14.98C52.2762 15.532 51.5442 15.88 50.6922 15.88C49.0122 15.88 47.9082 14.62 47.9082 12.904ZM49.3842 12.868C49.3842 13.864 50.0202 14.608 50.9802 14.608C51.9882 14.608 52.6122 13.9 52.6122 12.868C52.6122 11.86 52.0002 11.164 50.9802 11.164C50.0082 11.164 49.3842 11.896 49.3842 12.868ZM56.3473 8.884C55.8433 8.884 55.4473 8.488 55.4473 7.996C55.4473 7.504 55.8433 7.12 56.3473 7.12C56.8273 7.12 57.2233 7.504 57.2233 7.996C57.2233 8.488 56.8273 8.884 56.3473 8.884ZM55.6153 16V10.072H57.0793V16H55.6153ZM60.0559 16H58.5919V10.072H59.9479L60.0679 10.84C60.4399 10.24 61.1599 9.892 61.9639 9.892C63.4519 9.892 64.2199 10.816 64.2199 12.352V16H62.7559V12.7C62.7559 11.704 62.2639 11.224 61.5079 11.224C60.6079 11.224 60.0559 11.848 60.0559 12.808V16ZM65.6463 13.444V12.148H69.5103V13.444H65.6463ZM76.1086 15.988L70.0246 16V14.848L72.8926 12.424C74.0806 11.416 74.4766 10.84 74.4766 10C74.4766 9.004 73.9366 8.44 73.0126 8.44C72.0526 8.44 71.4526 9.112 71.4406 10.24H69.9166C69.9286 8.32 71.1526 7.072 73.0126 7.072C74.8846 7.072 76.0486 8.14 76.0486 9.916C76.0486 11.14 75.3766 12.064 74.0446 13.204L72.4606 14.56H76.1086V15.988Z" fill="black"/>
</svg>
