<svg width="101" height="24" viewBox="0 0 101 24" fill="none" xmlns="http://www.w3.org/2000/svg">
<path d="M17.1999 12.4004C14.5499 12.4004 12.3999 14.5504 12.3999 17.2004C12.3999 18.1004 12.6499 18.9504 13.0999 19.6704C13.9299 21.0604 15.4499 22.0004 17.1999 22.0004C18.9499 22.0004 20.4799 21.0604 21.2999 19.6704C21.7399 18.9504 21.9999 18.1004 21.9999 17.2004C21.9999 14.5504 19.8499 12.4004 17.1999 12.4004ZM19.5799 16.5704L17.0199 18.9304C16.8799 19.0604 16.6899 19.1304 16.5099 19.1304C16.3199 19.1304 16.1299 19.0604 15.9799 18.9104L14.7999 17.7304C14.5099 17.4404 14.5099 16.9604 14.7999 16.6704C15.0899 16.3804 15.5699 16.3804 15.8599 16.6704L16.5299 17.3404L18.5599 15.4604C18.8599 15.1804 19.3399 15.2004 19.6199 15.5004C19.8999 15.8104 19.8799 16.2904 19.5799 16.5704Z" fill="#1A1A1A"/>
<path opacity="0.4" d="M22 8.68961C22 9.87961 21.81 10.9796 21.48 11.9996C21.27 12.6696 21 13.3096 20.68 13.8996C19.8 12.9696 18.57 12.3996 17.2 12.3996C14.55 12.3996 12.4 14.5496 12.4 17.1996C12.4 18.4296 12.87 19.5496 13.63 20.3996C13.26 20.5696 12.92 20.7096 12.62 20.8096C12.28 20.9296 11.72 20.9296 11.38 20.8096C8.97 19.9896 4.1 16.9996 2.52 11.9996C2.19 10.9796 2 9.87961 2 8.68961C2 5.59961 4.49 3.09961 7.56 3.09961C9.37 3.09961 10.99 3.97959 12 5.32959C13.01 3.97959 14.63 3.09961 16.44 3.09961C19.51 3.09961 22 5.59961 22 8.68961Z" fill="#1A1A1A"/>
<path d="M36.508 16H34.972V7.228H36.508V10.852H40.396V7.228H41.932V16H40.396V12.28H36.508V16ZM46.3143 16.156C44.5503 16.156 43.3143 14.872 43.3143 13.036C43.3143 11.176 44.5263 9.892 46.2663 9.892C48.0423 9.892 49.1703 11.08 49.1703 12.928V13.372L44.7063 13.384C44.8143 14.428 45.3663 14.956 46.3383 14.956C47.1423 14.956 47.6703 14.644 47.8383 14.08H49.1943C48.9423 15.376 47.8623 16.156 46.3143 16.156ZM46.2783 11.092C45.4143 11.092 44.8863 11.56 44.7423 12.448H47.7183C47.7183 11.632 47.1543 11.092 46.2783 11.092ZM52.0473 16.156C50.7873 16.156 50.0193 15.424 50.0193 14.308C50.0193 13.216 50.8113 12.532 52.2153 12.424L53.9913 12.292V12.16C53.9913 11.356 53.5113 11.032 52.7673 11.032C51.9033 11.032 51.4233 11.392 51.4233 12.016H50.1753C50.1753 10.732 51.2313 9.892 52.8393 9.892C54.4353 9.892 55.4193 10.756 55.4193 12.4V16H54.1353L54.0273 15.124C53.7753 15.736 52.9713 16.156 52.0473 16.156ZM52.5273 15.052C53.4273 15.052 54.0033 14.512 54.0033 13.6V13.288L52.7673 13.384C51.8553 13.468 51.5073 13.768 51.5073 14.248C51.5073 14.788 51.8673 15.052 52.5273 15.052ZM60.5776 10.048V11.404H60.0376C58.9816 11.404 58.3216 11.968 58.3216 13.12V16H56.8576V10.084H58.2376L58.3216 10.948C58.5736 10.36 59.1376 9.964 59.9296 9.964C60.1336 9.964 60.3376 9.988 60.5776 10.048ZM63.8189 16H62.3549V11.296H61.2149V10.072H62.3549V8.224H63.8189V10.072H64.9709V11.296H63.8189V16ZM65.6346 13.444V12.148H69.4986V13.444H65.6346ZM72.772 16H71.308V11.296H70.168V10.072H71.308V8.224H72.772V10.072H73.924V11.296H72.772V16ZM75.5661 8.884C75.0621 8.884 74.6661 8.488 74.6661 7.996C74.6661 7.504 75.0621 7.12 75.5661 7.12C76.0461 7.12 76.4421 7.504 76.4421 7.996C76.4421 8.488 76.0461 8.884 75.5661 8.884ZM74.8341 16V10.072H76.2981V16H74.8341ZM77.4627 13.024C77.4627 11.188 78.6747 9.892 80.4267 9.892C82.0467 9.892 83.1507 10.792 83.3067 12.22H81.8427C81.6747 11.548 81.1827 11.2 80.4867 11.2C79.5507 11.2 78.9267 11.908 78.9267 13.024C78.9267 14.14 79.5027 14.836 80.4387 14.836C81.1707 14.836 81.6867 14.476 81.8427 13.828H83.3187C83.1387 15.208 81.9867 16.156 80.4387 16.156C78.6387 16.156 77.4627 14.908 77.4627 13.024ZM85.8843 16H84.4323V7.072H85.8843V12.556L88.1883 10.072H90.0243L87.7683 12.424L89.9763 16H88.2963L86.7483 13.504L85.8843 14.404V16Z" fill="black"/>
</svg>
