<svg width="103" height="24" viewBox="0 0 103 24" fill="none" xmlns="http://www.w3.org/2000/svg">
<path d="M20.0196 10.6999L17.2196 12.4699L11.5596 6.80992L13.3196 4.00992C14.1396 2.71992 15.7796 2.65992 16.9896 3.85992L20.1696 7.03992C21.2996 8.16992 21.2296 9.92992 20.0196 10.6999Z" fill="#1A1A1A"/>
<path opacity="0.4" d="M14.7103 19.95L6.0003 20.98C5.4003 21.05 4.8603 20.96 4.4103 20.74C3.9203 20.5 3.5403 20.12 3.3003 19.63C3.0803 19.18 3.0003 18.64 3.0603 18.05L4.1003 9.32998C4.3503 7.14998 5.1603 6.43999 7.4603 6.56999L11.5803 6.81999L17.2403 12.48L17.4803 16.6C17.6903 18.9 16.9003 19.7 14.7103 19.95Z" fill="#1A1A1A"/>
<path d="M7.98004 17.1499L4.40004 20.7299C3.91004 20.4899 3.53004 20.1099 3.29004 19.6199L6.88004 16.0299C7.19004 15.7299 7.69004 15.7299 7.99004 16.0299C8.30004 16.3499 8.30004 16.8399 7.98004 17.1499Z" fill="#1A1A1A"/>
<path d="M38.44 12.976H36.508V16H34.972V7.228H38.44C40.204 7.228 41.344 8.38 41.344 10.096C41.344 11.788 40.192 12.976 38.44 12.976ZM38.14 8.596H36.508V11.608H38.116C39.172 11.608 39.736 11.044 39.736 10.084C39.736 9.124 39.16 8.596 38.14 8.596ZM43.9497 16.156C42.6897 16.156 41.9217 15.424 41.9217 14.308C41.9217 13.216 42.7137 12.532 44.1177 12.424L45.8937 12.292V12.16C45.8937 11.356 45.4137 11.032 44.6697 11.032C43.8057 11.032 43.3257 11.392 43.3257 12.016H42.0777C42.0777 10.732 43.1337 9.892 44.7417 9.892C46.3377 9.892 47.3217 10.756 47.3217 12.4V16H46.0377L45.9297 15.124C45.6777 15.736 44.8737 16.156 43.9497 16.156ZM44.4297 15.052C45.3297 15.052 45.9057 14.512 45.9057 13.6V13.288L44.6697 13.384C43.7577 13.468 43.4097 13.768 43.4097 14.248C43.4097 14.788 43.7697 15.052 44.4297 15.052ZM50.6939 16H49.2299V11.296H48.0899V10.072H49.2299V8.224H50.6939V10.072H51.8459V11.296H50.6939V16ZM54.22 16H52.756V7.072H54.232V10.84C54.604 10.264 55.3 9.892 56.152 9.892C57.616 9.892 58.384 10.816 58.384 12.352V16H56.92V12.7C56.92 11.704 56.428 11.224 55.684 11.224C54.76 11.224 54.22 11.872 54.22 12.76V16Z" fill="black"/>
</svg>
