<svg width="112" height="24" viewBox="0 0 112 24" fill="none" xmlns="http://www.w3.org/2000/svg">
<path d="M16.7502 3.56V2C16.7502 1.59 16.4102 1.25 16.0002 1.25C15.5902 1.25 15.2502 1.59 15.2502 2V3.5H8.75022V2C8.75022 1.59 8.41022 1.25 8.00022 1.25C7.59022 1.25 7.25022 1.59 7.25022 2V3.56C4.55022 3.81 3.24023 5.42 3.04023 7.81C3.02023 8.1 3.26023 8.34 3.54023 8.34H20.4602C20.7502 8.34 20.9902 8.09 20.9602 7.81C20.7602 5.42 19.4502 3.81 16.7502 3.56Z" fill="#1A1A1A"/>
<path opacity="0.4" d="M20 9.83984C20.55 9.83984 21 10.2898 21 10.8398V16.9998C21 19.9998 19.5 21.9998 16 21.9998H8C4.5 21.9998 3 19.9998 3 16.9998V10.8398C3 10.2898 3.45 9.83984 4 9.83984H20Z" fill="#1A1A1A"/>
<path d="M14.8399 14.9902L14.3399 15.5002H14.3299L11.2999 18.5302C11.1699 18.6602 10.8999 18.8002 10.7099 18.8202L9.35993 19.0202C8.86993 19.0902 8.52995 18.7402 8.59995 18.2602L8.78996 16.9002C8.81996 16.7102 8.94993 16.4502 9.07993 16.3102L12.1199 13.2802L12.6199 12.7702C12.9499 12.4402 13.3199 12.2002 13.7199 12.2002C14.0599 12.2002 14.4299 12.3602 14.8399 12.7702C15.7399 13.6702 15.4499 14.3802 14.8399 14.9902Z" fill="#1A1A1A"/>
<path d="M38.68 17.144C36.124 17.144 34.468 15.368 34.468 12.62C34.468 9.896 36.184 8.084 38.752 8.084C40.828 8.084 42.376 9.296 42.676 11.18H41.056C40.756 10.16 39.88 9.56 38.716 9.56C37.096 9.56 36.076 10.736 36.076 12.608C36.076 14.468 37.108 15.668 38.716 15.668C39.904 15.668 40.816 15.044 41.104 14.072H42.7C42.364 15.92 40.756 17.144 38.68 17.144ZM45.5083 17.156C44.2483 17.156 43.4803 16.424 43.4803 15.308C43.4803 14.216 44.2723 13.532 45.6763 13.424L47.4523 13.292V13.16C47.4523 12.356 46.9723 12.032 46.2283 12.032C45.3643 12.032 44.8843 12.392 44.8843 13.016H43.6363C43.6363 11.732 44.6923 10.892 46.3003 10.892C47.8963 10.892 48.8803 11.756 48.8803 13.4V17H47.5963L47.4883 16.124C47.2363 16.736 46.4323 17.156 45.5083 17.156ZM45.9883 16.052C46.8883 16.052 47.4643 15.512 47.4643 14.6V14.288L46.2283 14.384C45.3163 14.468 44.9683 14.768 44.9683 15.248C44.9683 15.788 45.3283 16.052 45.9883 16.052ZM51.7945 17H50.3425V8.072H51.7945V17ZM55.9822 17.156C54.2182 17.156 52.9822 15.872 52.9822 14.036C52.9822 12.176 54.1942 10.892 55.9342 10.892C57.7102 10.892 58.8382 12.08 58.8382 13.928V14.372L54.3742 14.384C54.4822 15.428 55.0342 15.956 56.0062 15.956C56.8102 15.956 57.3382 15.644 57.5062 15.08H58.8622C58.6102 16.376 57.5302 17.156 55.9822 17.156ZM55.9462 12.092C55.0822 12.092 54.5542 12.56 54.4102 13.448H57.3862C57.3862 12.632 56.8222 12.092 55.9462 12.092ZM61.4739 17H60.0099V11.072H61.3659L61.4859 11.84C61.8579 11.24 62.5779 10.892 63.3819 10.892C64.8699 10.892 65.6379 11.816 65.6379 13.352V17H64.1739V13.7C64.1739 12.704 63.6819 12.224 62.9259 12.224C62.0259 12.224 61.4739 12.848 61.4739 13.808V17ZM69.5123 17.156C67.7963 17.156 66.7283 15.896 66.7283 14.06C66.7283 12.212 67.8083 10.892 69.5963 10.892C70.4243 10.892 71.1563 11.24 71.5283 11.828V8.072H72.9803V17H71.6363L71.5403 16.076C71.1803 16.76 70.4123 17.156 69.5123 17.156ZM69.8363 15.812C70.8563 15.812 71.5163 15.08 71.5163 14.012C71.5163 12.944 70.8563 12.2 69.8363 12.2C68.8163 12.2 68.1923 12.956 68.1923 14.012C68.1923 15.068 68.8163 15.812 69.8363 15.812ZM76.27 17.156C75.01 17.156 74.242 16.424 74.242 15.308C74.242 14.216 75.034 13.532 76.438 13.424L78.214 13.292V13.16C78.214 12.356 77.734 12.032 76.99 12.032C76.126 12.032 75.646 12.392 75.646 13.016H74.398C74.398 11.732 75.454 10.892 77.062 10.892C78.658 10.892 79.642 11.756 79.642 13.4V17H78.358L78.25 16.124C77.998 16.736 77.194 17.156 76.27 17.156ZM76.75 16.052C77.65 16.052 78.226 15.512 78.226 14.6V14.288L76.99 14.384C76.078 14.468 75.73 14.768 75.73 15.248C75.73 15.788 76.09 16.052 76.75 16.052ZM84.8002 11.048V12.404H84.2602C83.2042 12.404 82.5442 12.968 82.5442 14.12V17H81.0802V11.084H82.4602L82.5442 11.948C82.7962 11.36 83.3602 10.964 84.1522 10.964C84.3562 10.964 84.5602 10.988 84.8002 11.048ZM85.3456 14.444V13.148H89.2096V14.444H85.3456ZM93.3533 17.156C91.5893 17.156 90.3533 15.872 90.3533 14.036C90.3533 12.176 91.5653 10.892 93.3053 10.892C95.0813 10.892 96.2093 12.08 96.2093 13.928V14.372L91.7453 14.384C91.8533 15.428 92.4053 15.956 93.3773 15.956C94.1813 15.956 94.7093 15.644 94.8773 15.08H96.2333C95.9813 16.376 94.9013 17.156 93.3533 17.156ZM93.3173 12.092C92.4533 12.092 91.9253 12.56 91.7813 13.448H94.7573C94.7573 12.632 94.1933 12.092 93.3173 12.092ZM99.817 17.156C98.101 17.156 97.033 15.896 97.033 14.06C97.033 12.212 98.113 10.892 99.901 10.892C100.729 10.892 101.461 11.24 101.833 11.828V8.072H103.285V17H101.941L101.845 16.076C101.485 16.76 100.717 17.156 99.817 17.156ZM100.141 15.812C101.161 15.812 101.821 15.08 101.821 14.012C101.821 12.944 101.161 12.2 100.141 12.2C99.121 12.2 98.497 12.956 98.497 14.012C98.497 15.068 99.121 15.812 100.141 15.812ZM105.543 9.884C105.039 9.884 104.643 9.488 104.643 8.996C104.643 8.504 105.039 8.12 105.543 8.12C106.023 8.12 106.419 8.504 106.419 8.996C106.419 9.488 106.023 9.884 105.543 9.884ZM104.811 17V11.072H106.275V17H104.811ZM109.803 17H108.339V12.296H107.199V11.072H108.339V9.224H109.803V11.072H110.955V12.296H109.803V17Z" fill="black"/>
</svg>
