<svg width="154" height="24" viewBox="0 0 154 24" fill="none" xmlns="http://www.w3.org/2000/svg">
<path opacity="0.4" d="M19.48 12.95H21.5V11.51C21.5 9.44001 19.81 7.75 17.74 7.75H6.25999C4.18999 7.75 2.5 9.44001 2.5 11.51V15.16C3.29 14.44 4.35 14 5.5 14C7.99 14 10 16.02 10 18.5C10 19.03 9.91001 19.53 9.74001 20C9.47001 20.79 8.97 21.47 8.34 22H17.74C19.81 22 21.5 20.31 21.5 18.24V17.05H19.6C18.52 17.05 17.53 16.26 17.44 15.18C17.38 14.55 17.62 13.96 18.04 13.55C18.41 13.17 18.92 12.95 19.48 12.95Z" fill="#1A1A1A"/>
<path d="M5.5 14C4.35 14 3.29 14.44 2.5 15.16C2.32 15.32 2.15 15.49 2 15.68C1.37 16.45 1 17.43 1 18.5C1 20.99 3.02 23 5.5 23C6.58 23 7.56 22.62 8.34 22C8.97 21.47 9.47001 20.79 9.74001 20C9.91001 19.53 10 19.03 10 18.5C10 16.02 7.99 14 5.5 14ZM8.2 17.63C8.2 17.94 7.94999 18.18 7.64999 18.18C7.34999 18.18 7.10001 17.94 7.10001 17.63V17.52C7.10001 17.4 7.01 17.3 6.89 17.3H4.63C4.74 17.51 4.71999 17.77 4.53999 17.95C4.43999 18.05 4.29999 18.11 4.14999 18.11C4.00999 18.11 3.87 18.05 3.77 17.95L2.96001 17.14C2.91001 17.09 2.87 17.03 2.84 16.96C2.79 16.83 2.79 16.68 2.84 16.54C2.87 16.48 2.91001 16.41 2.96001 16.36L3.77 15.56C3.98 15.34 4.32999 15.34 4.53999 15.56C4.71999 15.73 4.74 16 4.63 16.2H6.89C7.61 16.2 8.2 16.79 8.2 17.52V17.63ZM6.85001 21.6C6.70001 21.6 6.56001 21.55 6.46001 21.44C6.28001 21.27 6.25999 21 6.37 20.8H4.11C3.39 20.8 2.8 20.21 2.8 19.48V19.37C2.8 19.06 3.05001 18.82 3.35001 18.82C3.65001 18.82 3.89999 19.06 3.89999 19.37V19.48C3.89999 19.6 3.99 19.7 4.11 19.7H6.37C6.25999 19.49 6.28001 19.23 6.46001 19.05C6.67001 18.84 7.02 18.84 7.23 19.05L8.03999 19.86C8.08999 19.91 8.13 19.97 8.16 20.04C8.21 20.17 8.21 20.32 8.16 20.46C8.13 20.52 8.08999 20.59 8.03999 20.64L7.23 21.44C7.13 21.55 6.99001 21.6 6.85001 21.6Z" fill="#1A1A1A"/>
<path d="M14.85 3.95V7.74999H6.25999C4.18999 7.74999 2.5 9.44 2.5 11.51V7.84002C2.5 6.65002 3.23 5.58997 4.34 5.16997L12.28 2.16997C13.52 1.70997 14.85 2.62 14.85 3.95Z" fill="#1A1A1A"/>
<path d="M22.5598 13.97V16.03C22.5598 16.58 22.1198 17.03 21.5598 17.05H19.5998C18.5198 17.05 17.5298 16.26 17.4398 15.18C17.3798 14.55 17.6198 13.96 18.0398 13.55C18.4098 13.17 18.9198 12.95 19.4798 12.95H21.5598C22.1198 12.97 22.5598 13.42 22.5598 13.97Z" fill="#1A1A1A"/>
<path d="M14 12.75H7C6.59 12.75 6.25 12.41 6.25 12C6.25 11.59 6.59 11.25 7 11.25H14C14.41 11.25 14.75 11.59 14.75 12C14.75 12.41 14.41 12.75 14 12.75Z" fill="#1A1A1A"/>
<path d="M40.42 17H34.972V8.228H40.42V9.644H36.508V11.9H40.012V13.256H36.508V15.584H40.42V17ZM43.3333 17H41.8693V11.072H43.2133L43.3333 11.768C43.6333 11.276 44.2333 10.892 45.0853 10.892C45.9853 10.892 46.6093 11.336 46.9213 12.02C47.2213 11.336 47.9173 10.892 48.8173 10.892C50.2573 10.892 51.0493 11.756 51.0493 13.124V17H49.5973V13.508C49.5973 12.656 49.1413 12.212 48.4453 12.212C47.7373 12.212 47.1973 12.668 47.1973 13.64V17H45.7333V13.496C45.7333 12.668 45.2893 12.224 44.5933 12.224C43.8973 12.224 43.3333 12.68 43.3333 13.64V17ZM52.4865 19.748V11.072H53.8425L53.9385 11.972C54.2985 11.288 55.0785 10.892 55.9785 10.892C57.6465 10.892 58.7505 12.104 58.7505 13.964C58.7505 15.812 57.7425 17.156 55.9785 17.156C55.0905 17.156 54.3225 16.808 53.9505 16.208V19.748H52.4865ZM53.9625 14.036C53.9625 15.104 54.6225 15.836 55.6305 15.836C56.6625 15.836 57.2745 15.092 57.2745 14.036C57.2745 12.98 56.6625 12.224 55.6305 12.224C54.6225 12.224 53.9625 12.968 53.9625 14.036ZM61.8736 17H60.4096V12.296H59.2696V11.072H60.4096V9.224H61.8736V11.072H63.0256V12.296H61.8736V17ZM63.4197 19.748V18.524H64.2957C64.8717 18.524 65.2317 18.392 65.4837 17.696L65.6517 17.252L63.2637 11.072H64.8117L66.3357 15.392L67.9437 11.072H69.4557L66.5517 18.32C66.1077 19.424 65.4837 19.88 64.5117 19.88C64.1037 19.88 63.7437 19.832 63.4197 19.748ZM69.8651 14.444V13.148H73.7291V14.444H69.8651ZM76.1187 17L74.1987 11.072H75.7227L76.5027 13.616C76.6347 14.084 76.7547 14.6 76.8627 15.152C76.9707 14.576 77.0787 14.204 77.2707 13.616L78.0867 11.072H79.5747L80.3667 13.616C80.4387 13.856 80.6787 14.744 80.7507 15.14C80.8467 14.696 81.0387 13.988 81.1467 13.616L81.9387 11.072H83.4867L81.4347 17H80.0667L79.2507 14.432C79.0107 13.652 78.8787 13.088 78.8307 12.788C78.7707 13.064 78.6627 13.484 78.3627 14.456L77.5467 17H76.1187ZM85.8442 17.156C84.5842 17.156 83.8162 16.424 83.8162 15.308C83.8162 14.216 84.6082 13.532 86.0122 13.424L87.7882 13.292V13.16C87.7882 12.356 87.3082 12.032 86.5642 12.032C85.7002 12.032 85.2202 12.392 85.2202 13.016H83.9722C83.9722 11.732 85.0282 10.892 86.6362 10.892C88.2322 10.892 89.2162 11.756 89.2162 13.4V17H87.9322L87.8242 16.124C87.5722 16.736 86.7682 17.156 85.8442 17.156ZM86.3242 16.052C87.2242 16.052 87.8002 15.512 87.8002 14.6V14.288L86.5642 14.384C85.6522 14.468 85.3042 14.768 85.3042 15.248C85.3042 15.788 85.6642 16.052 86.3242 16.052ZM92.1304 17H90.6784V8.072H92.1304V17ZM95.1422 17H93.6902V8.072H95.1422V17ZM99.3299 17.156C97.5659 17.156 96.3299 15.872 96.3299 14.036C96.3299 12.176 97.5419 10.892 99.2819 10.892C101.058 10.892 102.186 12.08 102.186 13.928V14.372L97.7219 14.384C97.8299 15.428 98.3819 15.956 99.3539 15.956C100.158 15.956 100.686 15.644 100.854 15.08H102.21C101.958 16.376 100.878 17.156 99.3299 17.156ZM99.2939 12.092C98.4299 12.092 97.9019 12.56 97.7579 13.448H100.734C100.734 12.632 100.17 12.092 99.2939 12.092ZM105.315 17H103.851V12.296H102.711V11.072H103.851V9.224H105.315V11.072H106.467V12.296H105.315V17ZM107.131 14.444V13.148H110.995V14.444H107.131ZM112.138 14.024C112.138 12.188 113.35 10.892 115.102 10.892C116.722 10.892 117.826 11.792 117.982 13.22H116.518C116.35 12.548 115.858 12.2 115.162 12.2C114.226 12.2 113.602 12.908 113.602 14.024C113.602 15.14 114.178 15.836 115.114 15.836C115.846 15.836 116.362 15.476 116.518 14.828H117.994C117.814 16.208 116.662 17.156 115.114 17.156C113.314 17.156 112.138 15.908 112.138 14.024ZM120.548 17H119.084V8.072H120.56V11.84C120.932 11.264 121.628 10.892 122.48 10.892C123.944 10.892 124.712 11.816 124.712 13.352V17H123.248V13.7C123.248 12.704 122.756 12.224 122.012 12.224C121.088 12.224 120.548 12.872 120.548 13.76V17ZM127.915 17.156C126.655 17.156 125.887 16.424 125.887 15.308C125.887 14.216 126.679 13.532 128.083 13.424L129.859 13.292V13.16C129.859 12.356 129.379 12.032 128.635 12.032C127.771 12.032 127.291 12.392 127.291 13.016H126.043C126.043 11.732 127.099 10.892 128.707 10.892C130.303 10.892 131.287 11.756 131.287 13.4V17H130.003L129.895 16.124C129.643 16.736 128.839 17.156 127.915 17.156ZM128.395 16.052C129.295 16.052 129.871 15.512 129.871 14.6V14.288L128.635 14.384C127.723 14.468 127.375 14.768 127.375 15.248C127.375 15.788 127.735 16.052 128.395 16.052ZM134.189 17H132.725V11.072H134.081L134.201 11.84C134.573 11.24 135.293 10.892 136.097 10.892C137.585 10.892 138.353 11.816 138.353 13.352V17H136.889V13.7C136.889 12.704 136.397 12.224 135.641 12.224C134.741 12.224 134.189 12.848 134.189 13.808V17ZM139.455 13.904C139.455 12.176 140.583 10.88 142.275 10.88C143.163 10.88 143.859 11.252 144.207 11.888L144.291 11.072H145.647V16.7C145.647 18.68 144.459 19.916 142.539 19.916C140.835 19.916 139.671 18.944 139.491 17.36H140.955C141.051 18.128 141.639 18.584 142.539 18.584C143.547 18.584 144.195 17.948 144.195 16.964V15.98C143.823 16.532 143.091 16.88 142.239 16.88C140.559 16.88 139.455 15.62 139.455 13.904ZM140.931 13.868C140.931 14.864 141.567 15.608 142.527 15.608C143.535 15.608 144.159 14.9 144.159 13.868C144.159 12.86 143.547 12.164 142.527 12.164C141.555 12.164 140.931 12.896 140.931 13.868ZM149.814 17.156C148.05 17.156 146.814 15.872 146.814 14.036C146.814 12.176 148.026 10.892 149.766 10.892C151.542 10.892 152.67 12.08 152.67 13.928V14.372L148.206 14.384C148.314 15.428 148.866 15.956 149.838 15.956C150.642 15.956 151.17 15.644 151.338 15.08H152.694C152.442 16.376 151.362 17.156 149.814 17.156ZM149.778 12.092C148.914 12.092 148.386 12.56 148.242 13.448H151.218C151.218 12.632 150.654 12.092 149.778 12.092Z" fill="black"/>
</svg>
