<svg width="152" height="24" viewBox="0 0 152 24" fill="none" xmlns="http://www.w3.org/2000/svg">
<path d="M22.79 21.76L22.07 21.04C22.44 20.48 22.66 19.8 22.66 19.08C22.66 17.1 21.06 15.5 19.08 15.5C17.1 15.5 15.5 17.1 15.5 19.08C15.5 21.06 17.1 22.66 19.08 22.66C19.81 22.66 20.48 22.44 21.04 22.07L21.76 22.79C21.9 22.93 22.09 23 22.27 23C22.46 23 22.64 22.93 22.78 22.79C23.07 22.5 23.07 22.04 22.79 21.76Z" fill="#1A1A1A"/>
<path opacity="0.4" d="M16.1898 2H7.81978C4.17978 2 2.00977 4.17 2.00977 7.81V16.18C2.00977 19.82 4.17978 21.99 7.81978 21.99H16.1898C19.8298 21.99 21.9998 19.82 21.9998 16.18V7.81C21.9998 4.17 19.8298 2 16.1898 2Z" fill="#1A1A1A"/>
<path d="M13.7798 5.3C13.4598 5.05 12.8798 4.81001 11.9598 5.06001L8.97978 5.88002C8.08978 6.11002 7.50978 6.86 7.50978 7.8V9.55V11.71C7.27978 11.63 7.02979 11.57 6.76979 11.57C5.52979 11.57 4.52979 12.58 4.52979 13.81C4.52979 15.04 5.53979 16.05 6.76979 16.05C7.98979 16.05 8.98978 15.06 9.00978 13.85C9.00978 13.84 9.01979 13.83 9.01979 13.82V10.12L12.9898 9.03999V10.72C12.7598 10.64 12.5098 10.58 12.2398 10.58C10.9998 10.58 9.99979 11.59 9.99979 12.82C9.99979 14.06 11.0098 15.06 12.2398 15.06C13.4598 15.06 14.4598 14.07 14.4798 12.85C14.4798 12.84 14.4898 12.83 14.4898 12.81V8.05V6.97999C14.4798 6.21999 14.2398 5.65 13.7798 5.3ZM6.75978 14.55C6.34978 14.55 6.01979 14.22 6.01979 13.81C6.01979 13.4 6.34978 13.07 6.75978 13.07C7.16978 13.07 7.49979 13.4 7.49979 13.81C7.49979 14.22 7.16978 14.55 6.75978 14.55ZM12.2298 13.55C11.8198 13.55 11.4898 13.22 11.4898 12.81C11.4898 12.4 11.8198 12.07 12.2298 12.07C12.6398 12.07 12.9698 12.4 12.9698 12.81C12.9698 13.22 12.6398 13.55 12.2298 13.55Z" fill="#1A1A1A"/>
<path d="M36.46 17H34.972V8.228H36.46L39.292 15.212L42.124 8.228H43.636V17H42.148V14.3C42.148 12.536 42.148 12.02 42.232 11.396L40 17H38.584L36.364 11.408C36.448 11.936 36.46 12.764 36.46 13.856V17ZM49.3815 11.072H50.8455V17H49.4895L49.3815 16.208C49.0215 16.772 48.2535 17.156 47.4615 17.156C46.0935 17.156 45.2895 16.232 45.2895 14.78V11.072H46.7535V14.264C46.7535 15.392 47.1975 15.848 48.0135 15.848C48.9375 15.848 49.3815 15.308 49.3815 14.18V11.072ZM51.7844 15.2H53.1764C53.1884 15.716 53.5724 16.04 54.2444 16.04C54.9284 16.04 55.3004 15.764 55.3004 15.332C55.3004 15.032 55.1444 14.816 54.6164 14.696L53.5484 14.444C52.4804 14.204 51.9644 13.7 51.9644 12.752C51.9644 11.588 52.9484 10.892 54.3164 10.892C55.6484 10.892 56.5484 11.66 56.5604 12.812H55.1684C55.1564 12.308 54.8204 11.984 54.2564 11.984C53.6804 11.984 53.3444 12.248 53.3444 12.692C53.3444 13.028 53.6084 13.244 54.1124 13.364L55.1804 13.616C56.1764 13.844 56.6804 14.3 56.6804 15.212C56.6804 16.412 55.6604 17.156 54.1964 17.156C52.7204 17.156 51.7844 16.364 51.7844 15.2ZM58.5271 9.884C58.0231 9.884 57.6271 9.488 57.6271 8.996C57.6271 8.504 58.0231 8.12 58.5271 8.12C59.0071 8.12 59.4031 8.504 59.4031 8.996C59.4031 9.488 59.0071 9.884 58.5271 9.884ZM57.7951 17V11.072H59.2591V17H57.7951ZM60.4236 14.024C60.4236 12.188 61.6356 10.892 63.3876 10.892C65.0076 10.892 66.1116 11.792 66.2676 13.22H64.8036C64.6356 12.548 64.1436 12.2 63.4476 12.2C62.5116 12.2 61.8876 12.908 61.8876 14.024C61.8876 15.14 62.4636 15.836 63.3996 15.836C64.1316 15.836 64.6476 15.476 64.8036 14.828H66.2796C66.0996 16.208 64.9476 17.156 63.3996 17.156C61.5996 17.156 60.4236 15.908 60.4236 14.024ZM67.287 14.444V13.148H71.151V14.444H67.287ZM72.1047 15.2H73.4967C73.5087 15.716 73.8927 16.04 74.5647 16.04C75.2487 16.04 75.6207 15.764 75.6207 15.332C75.6207 15.032 75.4647 14.816 74.9367 14.696L73.8687 14.444C72.8007 14.204 72.2847 13.7 72.2847 12.752C72.2847 11.588 73.2687 10.892 74.6367 10.892C75.9687 10.892 76.8687 11.66 76.8807 12.812H75.4887C75.4767 12.308 75.1407 11.984 74.5767 11.984C74.0007 11.984 73.6647 12.248 73.6647 12.692C73.6647 13.028 73.9287 13.244 74.4327 13.364L75.5007 13.616C76.4967 13.844 77.0007 14.3 77.0007 15.212C77.0007 16.412 75.9807 17.156 74.5167 17.156C73.0407 17.156 72.1047 16.364 72.1047 15.2ZM77.7674 13.964C77.7674 12.104 78.8714 10.892 80.5394 10.892C81.4394 10.892 82.2194 11.288 82.5794 11.972L82.6754 11.072H84.0194V19.748H82.5674V16.208C82.1954 16.808 81.4154 17.156 80.5394 17.156C78.7754 17.156 77.7674 15.812 77.7674 13.964ZM79.2314 14.036C79.2314 15.092 79.8554 15.836 80.8754 15.836C81.8954 15.836 82.5554 15.104 82.5554 14.036C82.5554 12.968 81.8954 12.224 80.8754 12.224C79.8554 12.224 79.2314 12.98 79.2314 14.036ZM89.5651 11.072H91.0291V17H89.6731L89.5651 16.208C89.2051 16.772 88.4371 17.156 87.6451 17.156C86.2771 17.156 85.4731 16.232 85.4731 14.78V11.072H86.9371V14.264C86.9371 15.392 87.3811 15.848 88.1971 15.848C89.1211 15.848 89.5651 15.308 89.5651 14.18V11.072ZM94.3052 17.156C93.0452 17.156 92.2772 16.424 92.2772 15.308C92.2772 14.216 93.0692 13.532 94.4732 13.424L96.2492 13.292V13.16C96.2492 12.356 95.7692 12.032 95.0252 12.032C94.1612 12.032 93.6812 12.392 93.6812 13.016H92.4332C92.4332 11.732 93.4892 10.892 95.0972 10.892C96.6932 10.892 97.6772 11.756 97.6772 13.4V17H96.3932L96.2852 16.124C96.0332 16.736 95.2292 17.156 94.3052 17.156ZM94.7852 16.052C95.6852 16.052 96.2612 15.512 96.2612 14.6V14.288L95.0252 14.384C94.1132 14.468 93.7652 14.768 93.7652 15.248C93.7652 15.788 94.1252 16.052 94.7852 16.052ZM102.835 11.048V12.404H102.295C101.239 12.404 100.579 12.968 100.579 14.12V17H99.1154V11.084H100.495L100.579 11.948C100.831 11.36 101.395 10.964 102.187 10.964C102.391 10.964 102.595 10.988 102.835 11.048ZM106.279 17.156C104.515 17.156 103.279 15.872 103.279 14.036C103.279 12.176 104.491 10.892 106.231 10.892C108.007 10.892 109.135 12.08 109.135 13.928V14.372L104.671 14.384C104.779 15.428 105.331 15.956 106.303 15.956C107.107 15.956 107.635 15.644 107.803 15.08H109.159C108.907 16.376 107.827 17.156 106.279 17.156ZM106.243 12.092C105.379 12.092 104.851 12.56 104.707 13.448H107.683C107.683 12.632 107.119 12.092 106.243 12.092ZM110.295 14.444V13.148H114.159V14.444H110.295ZM115.113 15.2H116.505C116.517 15.716 116.901 16.04 117.573 16.04C118.257 16.04 118.629 15.764 118.629 15.332C118.629 15.032 118.473 14.816 117.945 14.696L116.877 14.444C115.809 14.204 115.293 13.7 115.293 12.752C115.293 11.588 116.277 10.892 117.645 10.892C118.977 10.892 119.877 11.66 119.889 12.812H118.497C118.485 12.308 118.149 11.984 117.585 11.984C117.009 11.984 116.673 12.248 116.673 12.692C116.673 13.028 116.937 13.244 117.441 13.364L118.509 13.616C119.505 13.844 120.009 14.3 120.009 15.212C120.009 16.412 118.989 17.156 117.525 17.156C116.049 17.156 115.113 16.364 115.113 15.2ZM123.775 17.156C122.011 17.156 120.775 15.872 120.775 14.036C120.775 12.176 121.987 10.892 123.727 10.892C125.503 10.892 126.631 12.08 126.631 13.928V14.372L122.167 14.384C122.275 15.428 122.827 15.956 123.799 15.956C124.603 15.956 125.131 15.644 125.299 15.08H126.655C126.403 16.376 125.323 17.156 123.775 17.156ZM123.739 12.092C122.875 12.092 122.347 12.56 122.203 13.448H125.179C125.179 12.632 124.615 12.092 123.739 12.092ZM129.508 17.156C128.248 17.156 127.48 16.424 127.48 15.308C127.48 14.216 128.272 13.532 129.676 13.424L131.452 13.292V13.16C131.452 12.356 130.972 12.032 130.228 12.032C129.364 12.032 128.884 12.392 128.884 13.016H127.636C127.636 11.732 128.692 10.892 130.3 10.892C131.896 10.892 132.88 11.756 132.88 13.4V17H131.596L131.488 16.124C131.236 16.736 130.432 17.156 129.508 17.156ZM129.988 16.052C130.888 16.052 131.464 15.512 131.464 14.6V14.288L130.228 14.384C129.316 14.468 128.968 14.768 128.968 15.248C128.968 15.788 129.328 16.052 129.988 16.052ZM138.039 11.048V12.404H137.499C136.443 12.404 135.783 12.968 135.783 14.12V17H134.319V11.084H135.699L135.783 11.948C136.035 11.36 136.599 10.964 137.391 10.964C137.595 10.964 137.799 10.988 138.039 11.048ZM138.482 14.024C138.482 12.188 139.694 10.892 141.446 10.892C143.066 10.892 144.17 11.792 144.326 13.22H142.862C142.694 12.548 142.202 12.2 141.506 12.2C140.57 12.2 139.946 12.908 139.946 14.024C139.946 15.14 140.522 15.836 141.458 15.836C142.19 15.836 142.706 15.476 142.862 14.828H144.338C144.158 16.208 143.006 17.156 141.458 17.156C139.658 17.156 138.482 15.908 138.482 14.024ZM146.892 17H145.428V8.072H146.904V11.84C147.276 11.264 147.972 10.892 148.824 10.892C150.288 10.892 151.056 11.816 151.056 13.352V17H149.592V13.7C149.592 12.704 149.1 12.224 148.356 12.224C147.432 12.224 146.892 12.872 146.892 13.76V17Z" fill="black"/>
</svg>
