<svg width="146" height="24" viewBox="0 0 146 24" fill="none" xmlns="http://www.w3.org/2000/svg">
<path opacity="0.4" d="M21 6V13.25C21 13.8023 20.5523 14.25 20 14.25H5C4.44772 14.25 4 13.8023 4 13.25V6C4 3.79 5.79 2 8 2H17C19.21 2 21 3.79 21 6Z" fill="#1A1A1A"/>
<path d="M8 12.75H7C6.59 12.75 6.25 12.41 6.25 12C6.25 11.59 6.59 11.25 7 11.25H8C8.41 11.25 8.75 11.59 8.75 12C8.75 12.41 8.41 12.75 8 12.75Z" fill="#1A1A1A"/>
<path d="M8 10.25H7C6.59 10.25 6.25 9.91 6.25 9.5C6.25 9.09 6.59 8.75 7 8.75H8C8.41 8.75 8.75 9.09 8.75 9.5C8.75 9.91 8.41 10.25 8 10.25Z" fill="#1A1A1A"/>
<path d="M8 7.75H7C6.59 7.75 6.25 7.41 6.25 7C6.25 6.59 6.59 6.25 7 6.25H8C8.41 6.25 8.75 6.59 8.75 7C8.75 7.41 8.41 7.75 8 7.75Z" fill="#1A1A1A"/>
<path d="M5 15.75C4.44772 15.75 4 16.1977 4 16.75V18C4 20.21 5.79 22 8 22H17C19.21 22 21 20.21 21 18V16.75C21 16.1977 20.5523 15.75 20 15.75H5ZM17.71 19.46C17.52 19.64 17.26 19.75 17 19.75C16.74 19.75 16.48 19.64 16.29 19.46C16.11 19.27 16 19.01 16 18.75C16 18.49 16.11 18.23 16.29 18.04C16.66 17.67 17.33 17.67 17.71 18.04C17.89 18.23 18 18.49 18 18.75C18 19.01 17.89 19.27 17.71 19.46Z" fill="#1A1A1A"/>
<path d="M40.42 17H34.972V8.228H40.42V9.644H36.508V11.9H40.012V13.256H36.508V15.584H40.42V17ZM42.9013 17H41.2333L43.2733 14.096L41.2333 11.072H42.9373L44.2453 13.088L45.5053 11.072H47.1493L45.1333 14.072L47.0893 17H45.4093L44.1493 15.044L42.9013 17ZM50.272 17H48.808V12.296H47.668V11.072H48.808V9.224H50.272V11.072H51.424V12.296H50.272V17ZM54.9275 17.156C53.1635 17.156 51.9275 15.872 51.9275 14.036C51.9275 12.176 53.1395 10.892 54.8795 10.892C56.6555 10.892 57.7835 12.08 57.7835 13.928V14.372L53.3195 14.384C53.4275 15.428 53.9795 15.956 54.9515 15.956C55.7555 15.956 56.2835 15.644 56.4515 15.08H57.8075C57.5555 16.376 56.4755 17.156 54.9275 17.156ZM54.8915 12.092C54.0275 12.092 53.4995 12.56 53.3555 13.448H56.3315C56.3315 12.632 55.7675 12.092 54.8915 12.092ZM62.6752 11.048V12.404H62.1352C61.0792 12.404 60.4192 12.968 60.4192 14.12V17H58.9552V11.084H60.3352L60.4192 11.948C60.6712 11.36 61.2352 10.964 62.0272 10.964C62.2312 10.964 62.4352 10.988 62.6752 11.048ZM65.1302 17H63.6662V11.072H65.0222L65.1422 11.84C65.5142 11.24 66.2342 10.892 67.0382 10.892C68.5262 10.892 69.2942 11.816 69.2942 13.352V17H67.8302V13.7C67.8302 12.704 67.3382 12.224 66.5822 12.224C65.6822 12.224 65.1302 12.848 65.1302 13.808V17ZM72.4966 17.156C71.2366 17.156 70.4686 16.424 70.4686 15.308C70.4686 14.216 71.2606 13.532 72.6646 13.424L74.4406 13.292V13.16C74.4406 12.356 73.9606 12.032 73.2166 12.032C72.3526 12.032 71.8726 12.392 71.8726 13.016H70.6246C70.6246 11.732 71.6806 10.892 73.2886 10.892C74.8846 10.892 75.8686 11.756 75.8686 13.4V17H74.5846L74.4766 16.124C74.2246 16.736 73.4206 17.156 72.4966 17.156ZM72.9766 16.052C73.8766 16.052 74.4526 15.512 74.4526 14.6V14.288L73.2166 14.384C72.3046 14.468 71.9566 14.768 71.9566 15.248C71.9566 15.788 72.3166 16.052 72.9766 16.052ZM78.7828 17H77.3308V8.072H78.7828V17ZM80.3065 14.444V13.148H84.1705V14.444H80.3065ZM88.0983 17.156C86.3823 17.156 85.3143 15.896 85.3143 14.06C85.3143 12.212 86.3943 10.892 88.1823 10.892C89.0103 10.892 89.7423 11.24 90.1143 11.828V8.072H91.5663V17H90.2223L90.1263 16.076C89.7663 16.76 88.9983 17.156 88.0983 17.156ZM88.4223 15.812C89.4423 15.812 90.1023 15.08 90.1023 14.012C90.1023 12.944 89.4423 12.2 88.4223 12.2C87.4023 12.2 86.7783 12.956 86.7783 14.012C86.7783 15.068 87.4023 15.812 88.4223 15.812ZM96.8119 11.048V12.404H96.2719C95.2159 12.404 94.5559 12.968 94.5559 14.12V17H93.0919V11.084H94.4719L94.5559 11.948C94.8079 11.36 95.3719 10.964 96.1639 10.964C96.3679 10.964 96.5719 10.988 96.8119 11.048ZM98.5349 9.884C98.0309 9.884 97.6349 9.488 97.6349 8.996C97.6349 8.504 98.0309 8.12 98.5349 8.12C99.0149 8.12 99.4109 8.504 99.4109 8.996C99.4109 9.488 99.0149 9.884 98.5349 9.884ZM97.8029 17V11.072H99.2669V17H97.8029ZM102.459 17L100.107 11.072H101.667L102.699 13.796C102.951 14.504 103.155 15.116 103.227 15.44C103.311 15.068 103.527 14.444 103.779 13.796L104.859 11.072H106.371L103.899 17H102.459ZM109.572 17.156C107.808 17.156 106.572 15.872 106.572 14.036C106.572 12.176 107.784 10.892 109.524 10.892C111.3 10.892 112.428 12.08 112.428 13.928V14.372L107.964 14.384C108.072 15.428 108.624 15.956 109.596 15.956C110.4 15.956 110.928 15.644 111.096 15.08H112.452C112.2 16.376 111.12 17.156 109.572 17.156ZM109.536 12.092C108.672 12.092 108.144 12.56 108 13.448H110.976C110.976 12.632 110.412 12.092 109.536 12.092Z" fill="black"/>
</svg>
