<svg width="129" height="24" viewBox="0 0 129 24" fill="none" xmlns="http://www.w3.org/2000/svg">
<path opacity="0.4" d="M16.19 2H7.81C4.17 2 2 4.17 2 7.81V16.18C2 19.83 4.17 22 7.81 22H16.18C19.82 22 21.99 19.83 21.99 16.19V7.81C22 4.17 19.83 2 16.19 2Z" fill="#1A1A1A"/>
<path d="M10.5 8.81006H6C5.59 8.81006 5.25 8.47006 5.25 8.06006C5.25 7.65006 5.59 7.31006 6 7.31006H10.5C10.91 7.31006 11.25 7.65006 11.25 8.06006C11.25 8.47006 10.91 8.81006 10.5 8.81006Z" fill="#1A1A1A"/>
<path d="M18 14.8101H13.5C13.09 14.8101 12.75 14.4701 12.75 14.0601C12.75 13.6501 13.09 13.3101 13.5 13.3101H18C18.41 13.3101 18.75 13.6501 18.75 14.0601C18.75 14.4701 18.41 14.8101 18 14.8101Z" fill="#1A1A1A"/>
<path d="M18 18.5601H13.5C13.09 18.5601 12.75 18.2201 12.75 17.8101C12.75 17.4001 13.09 17.0601 13.5 17.0601H18C18.41 17.0601 18.75 17.4001 18.75 17.8101C18.75 18.2201 18.41 18.5601 18 18.5601Z" fill="#1A1A1A"/>
<path d="M18 7.31006H16.52V5.81006C16.52 5.40006 16.18 5.06006 15.77 5.06006C15.36 5.06006 15.02 5.40006 15.02 5.81006V7.31006H13.5C13.09 7.31006 12.75 7.65006 12.75 8.06006C12.75 8.47006 13.09 8.81006 13.5 8.81006H15.02V10.3101C15.02 10.7201 15.36 11.0601 15.77 11.0601C16.18 11.0601 16.52 10.7201 16.52 10.3101V8.81006H18C18.41 8.81006 18.75 8.47006 18.75 8.06006C18.75 7.65006 18.41 7.31006 18 7.31006Z" fill="#1A1A1A"/>
<path d="M9.30945 15.94L11.0295 14.22C11.3195 13.93 11.3195 13.45 11.0295 13.16C10.7395 12.87 10.2595 12.87 9.96945 13.16L8.24945 14.88L6.52945 13.16C6.23945 12.87 5.75945 12.87 5.46945 13.16C5.17945 13.45 5.17945 13.93 5.46945 14.22L7.18945 15.94L5.46945 17.66C5.17945 17.95 5.17945 18.43 5.46945 18.72C5.61945 18.87 5.80945 18.94 5.99945 18.94C6.18945 18.94 6.37945 18.87 6.52945 18.72L8.24945 17L9.96945 18.72C10.1195 18.87 10.3095 18.94 10.4995 18.94C10.6895 18.94 10.8795 18.87 11.0295 18.72C11.3195 18.43 11.3195 17.95 11.0295 17.66L9.30945 15.94Z" fill="#1A1A1A"/>
<path d="M36.46 16H34.972V7.228H36.46L39.292 14.212L42.124 7.228H43.636V16H42.148V13.3C42.148 11.536 42.148 11.02 42.232 10.396L40 16H38.584L36.364 10.408C36.448 10.936 36.46 11.764 36.46 12.856V16ZM47.1255 16.156C45.8655 16.156 45.0975 15.424 45.0975 14.308C45.0975 13.216 45.8895 12.532 47.2935 12.424L49.0695 12.292V12.16C49.0695 11.356 48.5895 11.032 47.8455 11.032C46.9815 11.032 46.5015 11.392 46.5015 12.016H45.2535C45.2535 10.732 46.3095 9.892 47.9175 9.892C49.5135 9.892 50.4975 10.756 50.4975 12.4V16H49.2135L49.1055 15.124C48.8535 15.736 48.0495 16.156 47.1255 16.156ZM47.6055 15.052C48.5055 15.052 49.0815 14.512 49.0815 13.6V13.288L47.8455 13.384C46.9335 13.468 46.5855 13.768 46.5855 14.248C46.5855 14.788 46.9455 15.052 47.6055 15.052ZM53.8697 16H52.4057V11.296H51.2657V10.072H52.4057V8.224H53.8697V10.072H55.0217V11.296H53.8697V16ZM57.3958 16H55.9318V7.072H57.4078V10.84C57.7798 10.264 58.4758 9.892 59.3278 9.892C60.7918 9.892 61.5598 10.816 61.5598 12.352V16H60.0958V12.7C60.0958 11.704 59.6038 11.224 58.8598 11.224C57.9358 11.224 57.3958 11.872 57.3958 12.76V16Z" fill="black"/>
</svg>
