<svg width="110" height="24" viewBox="0 0 110 24" fill="none" xmlns="http://www.w3.org/2000/svg">
<path opacity="0.4" d="M19.2097 6.35952C18.1697 4.25952 16.1597 2.70952 13.8297 2.19952C11.3897 1.65952 8.88973 2.23952 6.97973 3.77952C5.05973 5.30952 3.96973 7.59952 3.96973 10.0495C3.96973 12.6395 5.51973 15.3495 7.85973 16.9195V17.7495C7.84973 18.0295 7.83973 18.4595 8.17973 18.8095C8.52973 19.1695 9.04973 19.2095 9.45973 19.2095H14.5897C15.1297 19.2095 15.5397 19.0595 15.8197 18.7795C16.1997 18.3895 16.1897 17.8895 16.1797 17.6195V16.9195C19.2797 14.8295 21.2297 10.4195 19.2097 6.35952Z" fill="#1A1A1A"/>
<path d="M15.26 22.0004C15.2 22.0004 15.13 21.9904 15.07 21.9704C13.06 21.4004 10.95 21.4004 8.94003 21.9704C8.57003 22.0704 8.18003 21.8604 8.08003 21.4904C7.97003 21.1204 8.19003 20.7304 8.56003 20.6304C10.82 19.9904 13.2 19.9904 15.46 20.6304C15.83 20.7404 16.05 21.1204 15.94 21.4904C15.84 21.8004 15.56 22.0004 15.26 22.0004Z" fill="#1A1A1A"/>
<path d="M12.0004 13.8499C11.8704 13.8499 11.7404 13.8199 11.6304 13.7499C11.2704 13.5399 11.1504 13.0799 11.3504 12.7299L12.2004 11.2499H11.3604C10.8604 11.2499 10.4504 11.0299 10.2304 10.6599C10.0104 10.2799 10.0304 9.8199 10.2804 9.3799L11.3504 7.5199C11.5604 7.1599 12.0204 7.0399 12.3704 7.2399C12.7304 7.4499 12.8504 7.9099 12.6504 8.2599L11.8004 9.7499H12.6404C13.1404 9.7499 13.5504 9.9699 13.7704 10.3399C13.9904 10.7199 13.9704 11.1799 13.7204 11.6199L12.6504 13.4799C12.5104 13.7199 12.2604 13.8499 12.0004 13.8499Z" fill="#1A1A1A"/>
<path d="M36.508 8.228V15.584H40.18V17H34.972V8.228H36.508ZM42.977 17.156C41.717 17.156 40.949 16.424 40.949 15.308C40.949 14.216 41.741 13.532 43.145 13.424L44.921 13.292V13.16C44.921 12.356 44.441 12.032 43.697 12.032C42.833 12.032 42.353 12.392 42.353 13.016H41.105C41.105 11.732 42.161 10.892 43.769 10.892C45.365 10.892 46.349 11.756 46.349 13.4V17H45.065L44.957 16.124C44.705 16.736 43.901 17.156 42.977 17.156ZM43.457 16.052C44.357 16.052 44.933 15.512 44.933 14.6V14.288L43.697 14.384C42.785 14.468 42.437 14.768 42.437 15.248C42.437 15.788 42.797 16.052 43.457 16.052ZM49.2513 17H47.7873V11.072H49.1313L49.2513 11.768C49.5513 11.276 50.1513 10.892 51.0033 10.892C51.9033 10.892 52.5273 11.336 52.8393 12.02C53.1393 11.336 53.8353 10.892 54.7353 10.892C56.1753 10.892 56.9673 11.756 56.9673 13.124V17H55.5153V13.508C55.5153 12.656 55.0593 12.212 54.3633 12.212C53.6553 12.212 53.1153 12.668 53.1153 13.64V17H51.6513V13.496C51.6513 12.668 51.2073 12.224 50.5113 12.224C49.8153 12.224 49.2513 12.68 49.2513 13.64V17ZM58.4044 19.748V11.072H59.7604L59.8564 11.972C60.2164 11.288 60.9964 10.892 61.8964 10.892C63.5644 10.892 64.6684 12.104 64.6684 13.964C64.6684 15.812 63.6604 17.156 61.8964 17.156C61.0084 17.156 60.2404 16.808 59.8684 16.208V19.748H58.4044ZM59.8804 14.036C59.8804 15.104 60.5404 15.836 61.5484 15.836C62.5804 15.836 63.1924 15.092 63.1924 14.036C63.1924 12.98 62.5804 12.224 61.5484 12.224C60.5404 12.224 59.8804 12.968 59.8804 14.036ZM65.8221 14.444V13.148H69.6861V14.444H65.8221ZM70.8299 14.024C70.8299 12.188 72.0419 10.892 73.7939 10.892C75.4139 10.892 76.5179 11.792 76.6739 13.22H75.2099C75.0419 12.548 74.5499 12.2 73.8539 12.2C72.9179 12.2 72.2939 12.908 72.2939 14.024C72.2939 15.14 72.8699 15.836 73.8059 15.836C74.5379 15.836 75.0539 15.476 75.2099 14.828H76.6859C76.5059 16.208 75.3539 17.156 73.8059 17.156C72.0059 17.156 70.8299 15.908 70.8299 14.024ZM79.2395 17H77.7755V8.072H79.2515V11.84C79.6235 11.264 80.3195 10.892 81.1715 10.892C82.6355 10.892 83.4035 11.816 83.4035 13.352V17H81.9395V13.7C81.9395 12.704 81.4475 12.224 80.7035 12.224C79.7795 12.224 79.2395 12.872 79.2395 13.76V17ZM86.6059 17.156C85.3459 17.156 84.5779 16.424 84.5779 15.308C84.5779 14.216 85.3699 13.532 86.7739 13.424L88.5499 13.292V13.16C88.5499 12.356 88.0699 12.032 87.3259 12.032C86.4619 12.032 85.9819 12.392 85.9819 13.016H84.7339C84.7339 11.732 85.7899 10.892 87.3979 10.892C88.9939 10.892 89.9779 11.756 89.9779 13.4V17H88.6939L88.5859 16.124C88.3339 16.736 87.5299 17.156 86.6059 17.156ZM87.0859 16.052C87.9859 16.052 88.5619 15.512 88.5619 14.6V14.288L87.3259 14.384C86.4139 14.468 86.0659 14.768 86.0659 15.248C86.0659 15.788 86.4259 16.052 87.0859 16.052ZM95.1362 11.048V12.404H94.5962C93.5402 12.404 92.8802 12.968 92.8802 14.12V17H91.4162V11.084H92.7962L92.8802 11.948C93.1322 11.36 93.6962 10.964 94.4882 10.964C94.6922 10.964 94.8962 10.988 95.1362 11.048ZM95.6388 13.904C95.6388 12.176 96.7668 10.88 98.4588 10.88C99.3468 10.88 100.043 11.252 100.391 11.888L100.475 11.072H101.831V16.7C101.831 18.68 100.643 19.916 98.7228 19.916C97.0188 19.916 95.8548 18.944 95.6748 17.36H97.1388C97.2348 18.128 97.8228 18.584 98.7228 18.584C99.7308 18.584 100.379 17.948 100.379 16.964V15.98C100.007 16.532 99.2748 16.88 98.4228 16.88C96.7428 16.88 95.6388 15.62 95.6388 13.904ZM97.1148 13.868C97.1148 14.864 97.7508 15.608 98.7108 15.608C99.7188 15.608 100.343 14.9 100.343 13.868C100.343 12.86 99.7308 12.164 98.7108 12.164C97.7388 12.164 97.1148 12.896 97.1148 13.868ZM105.998 17.156C104.234 17.156 102.998 15.872 102.998 14.036C102.998 12.176 104.21 10.892 105.95 10.892C107.726 10.892 108.854 12.08 108.854 13.928V14.372L104.39 14.384C104.498 15.428 105.05 15.956 106.022 15.956C106.826 15.956 107.354 15.644 107.522 15.08H108.878C108.626 16.376 107.546 17.156 105.998 17.156ZM105.962 12.092C105.098 12.092 104.57 12.56 104.426 13.448H107.402C107.402 12.632 106.838 12.092 105.962 12.092Z" fill="black"/>
</svg>
