<svg width="101" height="24" viewBox="0 0 101 24" fill="none" xmlns="http://www.w3.org/2000/svg">
<path opacity="0.4" d="M13.89 2.88014L9.19999 2.14014C5.28999 1.53014 3.47999 2.85014 2.85999 6.76014L2.11999 11.4501C1.71999 14.0101 2.13999 15.6701 3.58999 16.6801C4.34999 17.2201 5.38999 17.5801 6.73999 17.7901L11.43 18.5301C15.34 19.1401 17.15 17.8201 17.77 13.9101L18.5 9.22014C18.62 8.45014 18.67 7.76014 18.63 7.15014C18.5 4.65014 17.03 3.37014 13.89 2.88014ZM8.23999 9.35014C7.06999 9.35014 6.11999 8.40014 6.11999 7.24014C6.11999 6.07014 7.06999 5.12014 8.23999 5.12014C9.39999 5.12014 10.35 6.07014 10.35 7.24014C10.35 8.40014 9.39999 9.35014 8.23999 9.35014Z" fill="#1A1A1A"/>
<path d="M20.4998 13.4704L18.9998 17.9804C17.7498 21.7404 15.7498 22.7404 11.9898 21.4904L7.47984 19.9904C5.20984 19.2404 3.94984 18.2004 3.58984 16.6804C4.34984 17.2204 5.38984 17.5804 6.73984 17.7904L11.4298 18.5304C15.3398 19.1404 17.1498 17.8204 17.7698 13.9104L18.4998 9.22039C18.6198 8.45039 18.6698 7.76039 18.6298 7.15039C21.0198 8.42039 21.5398 10.3404 20.4998 13.4704Z" fill="#1A1A1A"/>
<path d="M10.3501 7.24012C10.3501 8.40012 9.40012 9.35012 8.24012 9.35012C7.07012 9.35012 6.12012 8.40012 6.12012 7.24012C6.12012 6.07012 7.07012 5.12012 8.24012 5.12012C9.40012 5.12012 10.3501 6.07012 10.3501 7.24012Z" fill="#1A1A1A"/>
<path d="M38.68 16.144C36.124 16.144 34.468 14.368 34.468 11.62C34.468 8.896 36.184 7.084 38.752 7.084C40.828 7.084 42.376 8.296 42.676 10.18H41.056C40.756 9.16 39.88 8.56 38.716 8.56C37.096 8.56 36.076 9.736 36.076 11.608C36.076 13.468 37.108 14.668 38.716 14.668C39.904 14.668 40.816 14.044 41.104 13.072H42.7C42.364 14.92 40.756 16.144 38.68 16.144ZM45.2789 16H43.8269V7.072H45.2789V16ZM47.5466 8.884C47.0426 8.884 46.6466 8.488 46.6466 7.996C46.6466 7.504 47.0426 7.12 47.5466 7.12C48.0266 7.12 48.4226 7.504 48.4226 7.996C48.4226 8.488 48.0266 8.884 47.5466 8.884ZM46.8146 16V10.072H48.2786V16H46.8146ZM49.7912 18.748V10.072H51.1472L51.2432 10.972C51.6032 10.288 52.3832 9.892 53.2832 9.892C54.9512 9.892 56.0552 11.104 56.0552 12.964C56.0552 14.812 55.0472 16.156 53.2832 16.156C52.3952 16.156 51.6272 15.808 51.2552 15.208V18.748H49.7912ZM51.2672 13.036C51.2672 14.104 51.9272 14.836 52.9352 14.836C53.9672 14.836 54.5792 14.092 54.5792 13.036C54.5792 11.98 53.9672 11.224 52.9352 11.224C51.9272 11.224 51.2672 11.968 51.2672 13.036ZM58.5768 16H57.2208V7.072H58.6848V10.936C59.0688 10.276 59.8608 9.88 60.7608 9.88C62.4528 9.88 63.4848 11.2 63.4848 13.072C63.4848 14.896 62.3688 16.156 60.6648 16.156C59.7768 16.156 59.0208 15.76 58.6728 15.076L58.5768 16ZM58.6968 13.012C58.6968 14.08 59.3568 14.812 60.3648 14.812C61.3968 14.812 62.0088 14.068 62.0088 13.012C62.0088 11.956 61.3968 11.2 60.3648 11.2C59.3568 11.2 58.6968 11.944 58.6968 13.012ZM64.3025 13.024C64.3025 11.176 65.6345 9.904 67.4705 9.904C69.3065 9.904 70.6385 11.176 70.6385 13.024C70.6385 14.872 69.3065 16.144 67.4705 16.144C65.6345 16.144 64.3025 14.872 64.3025 13.024ZM65.7665 13.024C65.7665 14.104 66.4625 14.836 67.4705 14.836C68.4785 14.836 69.1745 14.104 69.1745 13.024C69.1745 11.944 68.4785 11.212 67.4705 11.212C66.4625 11.212 65.7665 11.944 65.7665 13.024ZM73.563 16.156C72.303 16.156 71.535 15.424 71.535 14.308C71.535 13.216 72.327 12.532 73.731 12.424L75.507 12.292V12.16C75.507 11.356 75.027 11.032 74.283 11.032C73.419 11.032 72.939 11.392 72.939 12.016H71.691C71.691 10.732 72.747 9.892 74.355 9.892C75.951 9.892 76.935 10.756 76.935 12.4V16H75.651L75.543 15.124C75.291 15.736 74.487 16.156 73.563 16.156ZM74.043 15.052C74.943 15.052 75.519 14.512 75.519 13.6V13.288L74.283 13.384C73.371 13.468 73.023 13.768 73.023 14.248C73.023 14.788 73.383 15.052 74.043 15.052ZM82.0932 10.048V11.404H81.5532C80.4972 11.404 79.8372 11.968 79.8372 13.12V16H78.3732V10.084H79.7532L79.8372 10.948C80.0892 10.36 80.6532 9.964 81.4452 9.964C81.6492 9.964 81.8532 9.988 82.0932 10.048ZM85.3209 16.156C83.6049 16.156 82.5369 14.896 82.5369 13.06C82.5369 11.212 83.6169 9.892 85.4049 9.892C86.2329 9.892 86.9649 10.24 87.3369 10.828V7.072H88.7889V16H87.4449L87.3489 15.076C86.9889 15.76 86.2209 16.156 85.3209 16.156ZM85.6449 14.812C86.6649 14.812 87.3249 14.08 87.3249 13.012C87.3249 11.944 86.6649 11.2 85.6449 11.2C84.6249 11.2 84.0009 11.956 84.0009 13.012C84.0009 14.068 84.6249 14.812 85.6449 14.812Z" fill="black"/>
</svg>
