<svg width="134" height="24" viewBox="0 0 134 24" fill="none" xmlns="http://www.w3.org/2000/svg">
<path d="M19.9999 19.2601H10.9299C10.4799 19.2601 10.1099 18.8901 10.1099 18.4401C10.1099 17.9901 10.4799 17.6201 10.9299 17.6201H19.9999C20.4499 17.6201 20.8199 17.9901 20.8199 18.4401C20.8199 18.9001 20.4499 19.2601 19.9999 19.2601Z" fill="#1A1A1A"/>
<path d="M19.9999 12.9701H10.9299C10.4799 12.9701 10.1099 12.6001 10.1099 12.1501C10.1099 11.7001 10.4799 11.3301 10.9299 11.3301H19.9999C20.4499 11.3301 20.8199 11.7001 20.8199 12.1501C20.8199 12.6001 20.4499 12.9701 19.9999 12.9701Z" fill="#1A1A1A"/>
<path d="M19.9999 6.67003H10.9299C10.4799 6.67003 10.1099 6.30003 10.1099 5.85003C10.1099 5.40003 10.4799 5.03003 10.9299 5.03003H19.9999C20.4499 5.03003 20.8199 5.40003 20.8199 5.85003C20.8199 6.30003 20.4499 6.67003 19.9999 6.67003Z" fill="#1A1A1A"/>
<path opacity="0.4" d="M4.91018 8.02992C4.69018 8.02992 4.48018 7.93992 4.33018 7.78992L3.42018 6.87992C3.10018 6.55992 3.10018 6.03992 3.42018 5.71992C3.74018 5.39992 4.26018 5.39992 4.58018 5.71992L4.91018 6.04992L7.05018 3.90992C7.37018 3.58992 7.89018 3.58992 8.21018 3.90992C8.53018 4.22992 8.53018 4.74992 8.21018 5.06992L5.49018 7.78992C5.33018 7.93992 5.13018 8.02992 4.91018 8.02992Z" fill="#1A1A1A"/>
<path opacity="0.4" d="M4.91018 14.33C4.70018 14.33 4.49018 14.25 4.33018 14.09L3.42018 13.18C3.10018 12.86 3.10018 12.34 3.42018 12.02C3.74018 11.7 4.26018 11.7 4.58018 12.02L4.91018 12.35L7.05018 10.21C7.37018 9.88997 7.89018 9.88997 8.21018 10.21C8.53018 10.53 8.53018 11.05 8.21018 11.37L5.49018 14.09C5.33018 14.25 5.12018 14.33 4.91018 14.33Z" fill="#1A1A1A"/>
<path opacity="0.4" d="M4.91018 20.33C4.70018 20.33 4.49018 20.25 4.33018 20.09L3.42018 19.18C3.10018 18.86 3.10018 18.34 3.42018 18.02C3.74018 17.7 4.26018 17.7 4.58018 18.02L4.91018 18.35L7.05018 16.21C7.37018 15.89 7.89018 15.89 8.21018 16.21C8.53018 16.53 8.53018 17.05 8.21018 17.37L5.49018 20.09C5.33018 20.25 5.12018 20.33 4.91018 20.33Z" fill="#1A1A1A"/>
<path d="M34.204 8.644V7.228H40.876V8.644H38.308V16H36.772V8.644H34.204ZM42.5903 16.156C41.3303 16.156 40.5623 15.424 40.5623 14.308C40.5623 13.216 41.3543 12.532 42.7583 12.424L44.5343 12.292V12.16C44.5343 11.356 44.0543 11.032 43.3103 11.032C42.4463 11.032 41.9663 11.392 41.9663 12.016H40.7183C40.7183 10.732 41.7743 9.892 43.3823 9.892C44.9783 9.892 45.9623 10.756 45.9623 12.4V16H44.6783L44.5703 15.124C44.3183 15.736 43.5143 16.156 42.5903 16.156ZM43.0703 15.052C43.9703 15.052 44.5463 14.512 44.5463 13.6V13.288L43.3103 13.384C42.3983 13.468 42.0503 13.768 42.0503 14.248C42.0503 14.788 42.4103 15.052 43.0703 15.052ZM46.9445 14.2H48.3365C48.3485 14.716 48.7325 15.04 49.4045 15.04C50.0885 15.04 50.4605 14.764 50.4605 14.332C50.4605 14.032 50.3045 13.816 49.7765 13.696L48.7085 13.444C47.6405 13.204 47.1245 12.7 47.1245 11.752C47.1245 10.588 48.1085 9.892 49.4765 9.892C50.8085 9.892 51.7085 10.66 51.7205 11.812H50.3285C50.3165 11.308 49.9805 10.984 49.4165 10.984C48.8405 10.984 48.5045 11.248 48.5045 11.692C48.5045 12.028 48.7685 12.244 49.2725 12.364L50.3405 12.616C51.3365 12.844 51.8405 13.3 51.8405 14.212C51.8405 15.412 50.8205 16.156 49.3565 16.156C47.8805 16.156 46.9445 15.364 46.9445 14.2ZM54.4312 16H52.9792V7.072H54.4312V12.556L56.7352 10.072H58.5712L56.3152 12.424L58.5232 16H56.8432L55.2952 13.504L54.4312 14.404V16Z" fill="black"/>
</svg>
