<svg width="125" height="24" viewBox="0 0 125 24" fill="none" xmlns="http://www.w3.org/2000/svg">
<path d="M5.64954 7.65L2.84955 4.85C2.53955 4.54 2.75953 4 3.20953 4H6.79953C6.92953 4 7.05954 4.05 7.14954 4.15L12.1495 9.15C12.4595 9.46 12.2395 10 11.7995 10H8.50955C6.57955 10 5.00955 11.57 5.00955 13.5C5.00955 15.43 6.57955 17 8.50955 17H10.0096L12.1595 19.15C12.4695 19.46 12.2495 20 11.8095 20H8.51953C4.92953 20 2.01953 17.09 2.01953 13.5C2.01953 11.01 3.41953 8.84 5.48953 7.75L5.64954 7.65Z" fill="#1A1A1A"/>
<path opacity="0.4" d="M18.3497 16.35L21.1497 19.15C21.4597 19.46 21.2397 20 20.7997 20H17.2097C17.0797 20 16.9497 19.95 16.8597 19.85L11.8597 14.85C11.5497 14.54 11.7697 14 12.2097 14H15.4997C17.4297 14 18.9997 12.43 18.9997 10.5C18.9997 8.57 17.4297 7 15.4997 7H13.9997L11.8497 4.85C11.5397 4.54 11.7597 4 12.2097 4H15.4997C19.0897 4 21.9997 6.91 21.9997 10.5C21.9997 12.99 20.5997 15.16 18.5297 16.25L18.3497 16.35Z" fill="#1A1A1A"/>
<path d="M38.128 17H34.972V8.228H38.044C40.636 8.228 42.424 10.016 42.424 12.632C42.424 15.212 40.672 17 38.128 17ZM37.9 9.644H36.508V15.584H37.984C39.736 15.584 40.804 14.456 40.804 12.632C40.804 10.772 39.712 9.644 37.9 9.644ZM46.2908 17.156C44.5268 17.156 43.2908 15.872 43.2908 14.036C43.2908 12.176 44.5028 10.892 46.2428 10.892C48.0188 10.892 49.1468 12.08 49.1468 13.928V14.372L44.6828 14.384C44.7908 15.428 45.3428 15.956 46.3148 15.956C47.1188 15.956 47.6468 15.644 47.8148 15.08H49.1708C48.9188 16.376 47.8388 17.156 46.2908 17.156ZM46.2548 12.092C45.3908 12.092 44.8628 12.56 44.7188 13.448H47.6948C47.6948 12.632 47.1308 12.092 46.2548 12.092ZM49.9705 14.024C49.9705 12.188 51.1825 10.892 52.9345 10.892C54.5545 10.892 55.6585 11.792 55.8145 13.22H54.3505C54.1825 12.548 53.6905 12.2 52.9945 12.2C52.0585 12.2 51.4345 12.908 51.4345 14.024C51.4345 15.14 52.0105 15.836 52.9465 15.836C53.6785 15.836 54.1945 15.476 54.3505 14.828H55.8265C55.6465 16.208 54.4945 17.156 52.9465 17.156C51.1465 17.156 49.9705 15.908 49.9705 14.024ZM60.6362 11.048V12.404H60.0962C59.0402 12.404 58.3802 12.968 58.3802 14.12V17H56.9162V11.084H58.2962L58.3802 11.948C58.6322 11.36 59.1962 10.964 59.9882 10.964C60.1922 10.964 60.3962 10.988 60.6362 11.048ZM64.0799 17.156C62.3159 17.156 61.0799 15.872 61.0799 14.036C61.0799 12.176 62.2919 10.892 64.0319 10.892C65.8079 10.892 66.9359 12.08 66.9359 13.928V14.372L62.4719 14.384C62.5799 15.428 63.1319 15.956 64.1039 15.956C64.9079 15.956 65.4359 15.644 65.6039 15.08H66.9599C66.7079 16.376 65.6279 17.156 64.0799 17.156ZM64.0439 12.092C63.1799 12.092 62.6519 12.56 62.5079 13.448H65.4839C65.4839 12.632 64.9199 12.092 64.0439 12.092ZM70.5436 17.156C68.8276 17.156 67.7596 15.896 67.7596 14.06C67.7596 12.212 68.8396 10.892 70.6276 10.892C71.4556 10.892 72.1876 11.24 72.5596 11.828V8.072H74.0116V17H72.6676L72.5716 16.076C72.2116 16.76 71.4436 17.156 70.5436 17.156ZM70.8676 15.812C71.8876 15.812 72.5476 15.08 72.5476 14.012C72.5476 12.944 71.8876 12.2 70.8676 12.2C69.8476 12.2 69.2236 12.956 69.2236 14.012C69.2236 15.068 69.8476 15.812 70.8676 15.812ZM75.5253 14.444V13.148H79.3893V14.444H75.5253ZM83.821 19.292H82.657C81.457 17.924 80.665 15.776 80.665 13.472C80.665 11.372 81.337 9.164 82.657 7.664H83.821C82.825 9.02 82.141 11.144 82.141 13.472C82.141 15.596 82.729 17.804 83.821 19.292ZM87.0084 17.156C85.2924 17.156 84.2244 15.896 84.2244 14.06C84.2244 12.212 85.3044 10.892 87.0924 10.892C87.9204 10.892 88.6524 11.24 89.0244 11.828V8.072H90.4764V17H89.1324L89.0364 16.076C88.6764 16.76 87.9084 17.156 87.0084 17.156ZM87.3324 15.812C88.3524 15.812 89.0124 15.08 89.0124 14.012C89.0124 12.944 88.3524 12.2 87.3324 12.2C86.3124 12.2 85.6884 12.956 85.6884 14.012C85.6884 15.068 86.3124 15.812 87.3324 15.812ZM91.6541 14.024C91.6541 12.188 92.8661 10.892 94.6181 10.892C96.2381 10.892 97.3421 11.792 97.4981 13.22H96.0341C95.8661 12.548 95.3741 12.2 94.6781 12.2C93.7421 12.2 93.1181 12.908 93.1181 14.024C93.1181 15.14 93.6941 15.836 94.6301 15.836C95.3621 15.836 95.8781 15.476 96.0341 14.828H97.5101C97.3301 16.208 96.1781 17.156 94.6301 17.156C92.8301 17.156 91.6541 15.908 91.6541 14.024ZM102.32 11.048V12.404H101.78C100.724 12.404 100.064 12.968 100.064 14.12V17H98.5998V11.084H99.9798L100.064 11.948C100.316 11.36 100.88 10.964 101.672 10.964C101.876 10.964 102.08 10.988 102.32 11.048ZM103.719 19.292H102.555C103.659 17.804 104.235 15.596 104.235 13.472C104.235 11.144 103.551 9.02 102.555 7.664H103.719C105.039 9.164 105.723 11.372 105.723 13.472C105.723 15.776 104.919 17.924 103.719 19.292Z" fill="black"/>
</svg>
