<svg width="101" height="24" viewBox="0 0 101 24" fill="none" xmlns="http://www.w3.org/2000/svg">
<path opacity="0.4" d="M14 5V10H13C11.35 10 10 11.35 10 13V14H5C3.34 14 2 12.66 2 11V5C2 3.34 3.34 2 5 2H11C12.66 2 14 3.34 14 5Z" fill="#1A1A1A"/>
<path d="M5.2 6.62965C4.97 6.62965 4.73 6.51965 4.59 6.30965C4.35 5.96965 4.43 5.49966 4.77 5.25966C5.55 4.70966 6.6 4.69964 7.39 5.23964C7.73 5.46964 7.82 5.93968 7.59 6.27968C7.36 6.61968 6.89 6.70963 6.55 6.47963C6.28 6.29963 5.92001 6.29964 5.65001 6.48964C5.50001 6.58964 5.35 6.62965 5.2 6.62965Z" fill="#1A1A1A"/>
<path d="M9.2 6.62965C8.97 6.62965 8.73 6.51965 8.59 6.30965C8.35 5.96965 8.43 5.49966 8.77 5.25966C9.55 4.70966 10.6 4.69964 11.39 5.23964C11.73 5.46964 11.82 5.93968 11.59 6.27968C11.36 6.61968 10.89 6.70963 10.55 6.47963C10.28 6.29963 9.92001 6.29964 9.65001 6.48964C9.50001 6.58964 9.35 6.62965 9.2 6.62965Z" fill="#1A1A1A"/>
<path d="M8.15981 12.1697H5.83981C5.12981 12.1697 4.5498 11.5897 4.5498 10.8797C4.5498 8.9797 6.09981 7.42969 7.99981 7.42969C8.77981 7.42969 9.54981 7.6997 10.1598 8.1897C10.4798 8.4497 10.5398 8.91969 10.2798 9.23969C10.0198 9.55968 9.54981 9.61968 9.2298 9.35968C8.87981 9.07968 8.4598 8.92969 8.0098 8.92969C7.0098 8.92969 6.17981 9.68968 6.06981 10.6697H8.1698C8.5798 10.6697 8.9198 11.0097 8.9198 11.4197C8.9198 11.8297 8.56981 12.1697 8.15981 12.1697Z" fill="#1A1A1A"/>
<path d="M18.2197 16.6796C18.1497 16.5996 18.0497 16.5596 17.9397 16.5596H14.0597C13.9497 16.5596 13.8497 16.5996 13.7797 16.6796C13.7097 16.7596 13.6697 16.8695 13.6897 16.9695C13.8197 18.1495 14.8097 19.0496 15.9997 19.0496C17.1897 19.0496 18.1797 18.1595 18.3097 16.9695C18.3197 16.8595 18.2897 16.7596 18.2197 16.6796Z" fill="#1A1A1A"/>
<path d="M19 10H13C11.35 10 10 11.35 10 13V19C10 20.65 11.35 22 13 22H19C20.65 22 22 20.65 22 19V13C22 11.35 20.65 10 19 10ZM12.59 13.17C12.83 12.83 13.3 12.75 13.64 12.99C13.91 13.18 14.27 13.18 14.54 13C14.88 12.76 15.35 12.85 15.58 13.2C15.81 13.54 15.73 14.01 15.38 14.24C14.99 14.5 14.54 14.64 14.09 14.64C13.62 14.64 13.16 14.5 12.77 14.22C12.43 13.97 12.35 13.5 12.59 13.17ZM16 20.17C14.1 20.17 12.55 18.62 12.55 16.72C12.55 16.01 13.13 15.43 13.84 15.43H18.16C18.87 15.43 19.45 16.01 19.45 16.72C19.45 18.62 17.9 20.17 16 20.17ZM19.38 14.23C18.99 14.49 18.54 14.63 18.09 14.63C17.62 14.63 17.16 14.49 16.77 14.21C16.43 13.97 16.35 13.5 16.59 13.16C16.83 12.82 17.3 12.74 17.64 12.98C17.91 13.17 18.27 13.17 18.54 12.99C18.88 12.75 19.35 12.84 19.58 13.19C19.81 13.54 19.72 14 19.38 14.23Z" fill="#1A1A1A"/>
<path d="M34.468 9.676C34.468 8.14 35.74 7.072 37.588 7.072C39.364 7.072 40.492 8.056 40.54 9.64H39.004C38.968 8.884 38.428 8.44 37.564 8.44C36.616 8.44 36.004 8.896 36.004 9.628C36.004 10.252 36.34 10.6 37.072 10.768L38.452 11.068C39.952 11.392 40.684 12.16 40.684 13.468C40.684 15.1 39.412 16.156 37.48 16.156C35.608 16.156 34.384 15.16 34.348 13.588H35.884C35.896 14.332 36.496 14.776 37.48 14.776C38.5 14.776 39.148 14.332 39.148 13.6C39.148 13.012 38.848 12.664 38.128 12.508L36.736 12.196C35.248 11.872 34.468 11.02 34.468 9.676ZM43.3216 16H41.8576V10.072H43.2016L43.3216 10.768C43.6216 10.276 44.2216 9.892 45.0736 9.892C45.9736 9.892 46.5976 10.336 46.9096 11.02C47.2096 10.336 47.9056 9.892 48.8056 9.892C50.2456 9.892 51.0376 10.756 51.0376 12.124V16H49.5856V12.508C49.5856 11.656 49.1296 11.212 48.4336 11.212C47.7256 11.212 47.1856 11.668 47.1856 12.64V16H45.7216V12.496C45.7216 11.668 45.2776 11.224 44.5816 11.224C43.8856 11.224 43.3216 11.68 43.3216 12.64V16ZM53.2068 8.884C52.7028 8.884 52.3068 8.488 52.3068 7.996C52.3068 7.504 52.7028 7.12 53.2068 7.12C53.6868 7.12 54.0828 7.504 54.0828 7.996C54.0828 8.488 53.6868 8.884 53.2068 8.884ZM52.4748 16V10.072H53.9388V16H52.4748ZM56.9273 16H55.4753V7.072H56.9273V16ZM61.115 16.156C59.351 16.156 58.115 14.872 58.115 13.036C58.115 11.176 59.327 9.892 61.067 9.892C62.843 9.892 63.971 11.08 63.971 12.928V13.372L59.507 13.384C59.615 14.428 60.167 14.956 61.139 14.956C61.943 14.956 62.471 14.644 62.639 14.08H63.995C63.743 15.376 62.663 16.156 61.115 16.156ZM61.079 11.092C60.215 11.092 59.687 11.56 59.543 12.448H62.519C62.519 11.632 61.955 11.092 61.079 11.092ZM64.4275 18.748V17.524H65.3035C65.8795 17.524 66.2395 17.392 66.4915 16.696L66.6595 16.252L64.2715 10.072H65.8195L67.3435 14.392L68.9515 10.072H70.4635L67.5595 17.32C67.1155 18.424 66.4915 18.88 65.5195 18.88C65.1115 18.88 64.7515 18.832 64.4275 18.748ZM70.7102 14.2H72.1022C72.1142 14.716 72.4982 15.04 73.1702 15.04C73.8542 15.04 74.2262 14.764 74.2262 14.332C74.2262 14.032 74.0702 13.816 73.5422 13.696L72.4742 13.444C71.4062 13.204 70.8902 12.7 70.8902 11.752C70.8902 10.588 71.8742 9.892 73.2422 9.892C74.5742 9.892 75.4742 10.66 75.4862 11.812H74.0942C74.0822 11.308 73.7462 10.984 73.1822 10.984C72.6062 10.984 72.2702 11.248 72.2702 11.692C72.2702 12.028 72.5342 12.244 73.0382 12.364L74.1062 12.616C75.1022 12.844 75.6062 13.3 75.6062 14.212C75.6062 15.412 74.5862 16.156 73.1222 16.156C71.6462 16.156 70.7102 15.364 70.7102 14.2Z" fill="black"/>
</svg>
