<svg width="125" height="24" viewBox="0 0 125 24" fill="none" xmlns="http://www.w3.org/2000/svg">
<path opacity="0.4" d="M16.19 2H7.81C4.17 2 2 4.17 2 7.81V16.18C2 19.83 4.17 22 7.81 22H16.18C19.82 22 21.99 19.83 21.99 16.19V7.81C22 4.17 19.83 2 16.19 2Z" fill="#1A1A1A"/>
<path d="M12.6 18.5H16.4C17.9 18.5 18.5 17.9 18.5 16.4V14.6C18.5 13.1 17.9 12.5 16.4 12.5H12.6C11.1 12.5 10.5 13.1 10.5 14.6V16.4C10.5 17.9 11.1 18.5 12.6 18.5Z" fill="#1A1A1A"/>
<path d="M34.468 10.676C34.468 9.14 35.74 8.072 37.588 8.072C39.364 8.072 40.492 9.056 40.54 10.64H39.004C38.968 9.884 38.428 9.44 37.564 9.44C36.616 9.44 36.004 9.896 36.004 10.628C36.004 11.252 36.34 11.6 37.072 11.768L38.452 12.068C39.952 12.392 40.684 13.16 40.684 14.468C40.684 16.1 39.412 17.156 37.48 17.156C35.608 17.156 34.384 16.16 34.348 14.588H35.884C35.896 15.332 36.496 15.776 37.48 15.776C38.5 15.776 39.148 15.332 39.148 14.6C39.148 14.012 38.848 13.664 38.128 13.508L36.736 13.196C35.248 12.872 34.468 12.02 34.468 10.676ZM41.5096 14.024C41.5096 12.188 42.7216 10.892 44.4736 10.892C46.0936 10.892 47.1976 11.792 47.3536 13.22H45.8896C45.7216 12.548 45.2296 12.2 44.5336 12.2C43.5976 12.2 42.9736 12.908 42.9736 14.024C42.9736 15.14 43.5496 15.836 44.4856 15.836C45.2176 15.836 45.7336 15.476 45.8896 14.828H47.3656C47.1856 16.208 46.0336 17.156 44.4856 17.156C42.6856 17.156 41.5096 15.908 41.5096 14.024ZM52.1752 11.048V12.404H51.6352C50.5792 12.404 49.9192 12.968 49.9192 14.12V17H48.4552V11.084H49.8352L49.9192 11.948C50.1712 11.36 50.7352 10.964 51.5272 10.964C51.7312 10.964 51.9352 10.988 52.1752 11.048ZM55.6189 17.156C53.8549 17.156 52.6189 15.872 52.6189 14.036C52.6189 12.176 53.8309 10.892 55.5709 10.892C57.3469 10.892 58.4749 12.08 58.4749 13.928V14.372L54.0109 14.384C54.1189 15.428 54.6709 15.956 55.6429 15.956C56.4469 15.956 56.9749 15.644 57.1429 15.08H58.4989C58.2469 16.376 57.1669 17.156 55.6189 17.156ZM55.5829 12.092C54.7189 12.092 54.1909 12.56 54.0469 13.448H57.0229C57.0229 12.632 56.4589 12.092 55.5829 12.092ZM62.2986 17.156C60.5346 17.156 59.2986 15.872 59.2986 14.036C59.2986 12.176 60.5106 10.892 62.2506 10.892C64.0266 10.892 65.1546 12.08 65.1546 13.928V14.372L60.6906 14.384C60.7986 15.428 61.3506 15.956 62.3226 15.956C63.1266 15.956 63.6546 15.644 63.8226 15.08H65.1786C64.9266 16.376 63.8466 17.156 62.2986 17.156ZM62.2626 12.092C61.3986 12.092 60.8706 12.56 60.7266 13.448H63.7026C63.7026 12.632 63.1386 12.092 62.2626 12.092ZM67.7903 17H66.3263V11.072H67.6823L67.8023 11.84C68.1743 11.24 68.8943 10.892 69.6983 10.892C71.1863 10.892 71.9543 11.816 71.9543 13.352V17H70.4903V13.7C70.4903 12.704 69.9983 12.224 69.2423 12.224C68.3423 12.224 67.7903 12.848 67.7903 13.808V17ZM74.8567 17H73.3927V11.072H74.7367L74.8567 11.768C75.1567 11.276 75.7567 10.892 76.6087 10.892C77.5087 10.892 78.1327 11.336 78.4447 12.02C78.7447 11.336 79.4407 10.892 80.3407 10.892C81.7807 10.892 82.5727 11.756 82.5727 13.124V17H81.1207V13.508C81.1207 12.656 80.6647 12.212 79.9687 12.212C79.2607 12.212 78.7207 12.668 78.7207 13.64V17H77.2567V13.496C77.2567 12.668 76.8127 12.224 76.1167 12.224C75.4207 12.224 74.8567 12.68 74.8567 13.64V17ZM84.7419 9.884C84.2379 9.884 83.8419 9.488 83.8419 8.996C83.8419 8.504 84.2379 8.12 84.7419 8.12C85.2219 8.12 85.6179 8.504 85.6179 8.996C85.6179 9.488 85.2219 9.884 84.7419 9.884ZM84.0099 17V11.072H85.4739V17H84.0099ZM90.7065 11.048V12.404H90.1665C89.1105 12.404 88.4505 12.968 88.4505 14.12V17H86.9865V11.084H88.3665L88.4505 11.948C88.7025 11.36 89.2665 10.964 90.0585 10.964C90.2625 10.964 90.4665 10.988 90.7065 11.048ZM95.4174 11.048V12.404H94.8774C93.8214 12.404 93.1614 12.968 93.1614 14.12V17H91.6974V11.084H93.0774L93.1614 11.948C93.4134 11.36 93.9774 10.964 94.7694 10.964C94.9734 10.964 95.1774 10.988 95.4174 11.048ZM95.8611 14.024C95.8611 12.176 97.1931 10.904 99.0291 10.904C100.865 10.904 102.197 12.176 102.197 14.024C102.197 15.872 100.865 17.144 99.0291 17.144C97.1931 17.144 95.8611 15.872 95.8611 14.024ZM97.3251 14.024C97.3251 15.104 98.0211 15.836 99.0291 15.836C100.037 15.836 100.733 15.104 100.733 14.024C100.733 12.944 100.037 12.212 99.0291 12.212C98.0211 12.212 97.3251 12.944 97.3251 14.024ZM107.078 11.048V12.404H106.538C105.482 12.404 104.822 12.968 104.822 14.12V17H103.358V11.084H104.738L104.822 11.948C105.074 11.36 105.638 10.964 106.43 10.964C106.634 10.964 106.838 10.988 107.078 11.048ZM108.801 9.884C108.297 9.884 107.901 9.488 107.901 8.996C107.901 8.504 108.297 8.12 108.801 8.12C109.281 8.12 109.677 8.504 109.677 8.996C109.677 9.488 109.281 9.884 108.801 9.884ZM108.069 17V11.072H109.533V17H108.069ZM112.509 17H111.045V11.072H112.401L112.521 11.84C112.893 11.24 113.613 10.892 114.417 10.892C115.905 10.892 116.673 11.816 116.673 13.352V17H115.209V13.7C115.209 12.704 114.717 12.224 113.961 12.224C113.061 12.224 112.509 12.848 112.509 13.808V17ZM117.775 13.904C117.775 12.176 118.903 10.88 120.595 10.88C121.483 10.88 122.179 11.252 122.527 11.888L122.611 11.072H123.967V16.7C123.967 18.68 122.779 19.916 120.859 19.916C119.155 19.916 117.991 18.944 117.811 17.36H119.275C119.371 18.128 119.959 18.584 120.859 18.584C121.867 18.584 122.515 17.948 122.515 16.964V15.98C122.143 16.532 121.411 16.88 120.559 16.88C118.879 16.88 117.775 15.62 117.775 13.904ZM119.251 13.868C119.251 14.864 119.887 15.608 120.847 15.608C121.855 15.608 122.479 14.9 122.479 13.868C122.479 12.86 121.867 12.164 120.847 12.164C119.875 12.164 119.251 12.896 119.251 13.868Z" fill="black"/>
</svg>
