<svg width="96" height="24" viewBox="0 0 96 24" fill="none" xmlns="http://www.w3.org/2000/svg">
<path opacity="0.4" d="M16.19 2H7.81C4.17 2 2 4.17 2 7.81V16.18C2 19.83 4.17 22 7.81 22H16.18C19.82 22 21.99 19.83 21.99 16.19V7.81C22 4.17 19.83 2 16.19 2Z" fill="#1A1A1A"/>
<path d="M6.88991 15.75C6.60991 15.75 6.34991 15.6 6.21991 15.34C6.02991 14.97 6.17991 14.52 6.55991 14.33C7.42991 13.9 8.16991 13.24 8.69991 12.44C8.87991 12.17 8.87991 11.83 8.69991 11.56C8.15991 10.76 7.41991 10.1 6.55991 9.67002C6.17991 9.49002 6.02991 9.04002 6.21991 8.66002C6.39991 8.29002 6.84991 8.14002 7.21991 8.33002C8.31991 8.88002 9.25991 9.71002 9.93991 10.73C10.4499 11.5 10.4499 12.5 9.93991 13.27C9.25991 14.29 8.31991 15.12 7.21991 15.67C7.11991 15.72 6.99991 15.75 6.88991 15.75Z" fill="#1A1A1A"/>
<path d="M17 15.75H13C12.59 15.75 12.25 15.41 12.25 15C12.25 14.59 12.59 14.25 13 14.25H17C17.41 14.25 17.75 14.59 17.75 15C17.75 15.41 17.41 15.75 17 15.75Z" fill="#1A1A1A"/>
<path d="M38.68 16.144C36.124 16.144 34.468 14.368 34.468 11.62C34.468 8.896 36.184 7.084 38.752 7.084C40.828 7.084 42.376 8.296 42.676 10.18H41.056C40.756 9.16 39.88 8.56 38.716 8.56C37.096 8.56 36.076 9.736 36.076 11.608C36.076 13.468 37.108 14.668 38.716 14.668C39.904 14.668 40.816 14.044 41.104 13.072H42.7C42.364 14.92 40.756 16.144 38.68 16.144ZM43.5135 13.024C43.5135 11.176 44.8455 9.904 46.6815 9.904C48.5175 9.904 49.8495 11.176 49.8495 13.024C49.8495 14.872 48.5175 16.144 46.6815 16.144C44.8455 16.144 43.5135 14.872 43.5135 13.024ZM44.9775 13.024C44.9775 14.104 45.6735 14.836 46.6815 14.836C47.6895 14.836 48.3855 14.104 48.3855 13.024C48.3855 11.944 47.6895 11.212 46.6815 11.212C45.6735 11.212 44.9775 11.944 44.9775 13.024ZM53.4459 16.156C51.7299 16.156 50.6619 14.896 50.6619 13.06C50.6619 11.212 51.7419 9.892 53.5299 9.892C54.3579 9.892 55.0899 10.24 55.4619 10.828V7.072H56.9139V16H55.5699L55.4739 15.076C55.1139 15.76 54.3459 16.156 53.4459 16.156ZM53.7699 14.812C54.7899 14.812 55.4499 14.08 55.4499 13.012C55.4499 11.944 54.7899 11.2 53.7699 11.2C52.7499 11.2 52.1259 11.956 52.1259 13.012C52.1259 14.068 52.7499 14.812 53.7699 14.812ZM61.0916 16.156C59.3276 16.156 58.0916 14.872 58.0916 13.036C58.0916 11.176 59.3036 9.892 61.0436 9.892C62.8196 9.892 63.9476 11.08 63.9476 12.928V13.372L59.4836 13.384C59.5916 14.428 60.1436 14.956 61.1156 14.956C61.9196 14.956 62.4476 14.644 62.6156 14.08H63.9716C63.7196 15.376 62.6396 16.156 61.0916 16.156ZM61.0556 11.092C60.1916 11.092 59.6636 11.56 59.5196 12.448H62.4956C62.4956 11.632 61.9316 11.092 61.0556 11.092Z" fill="black"/>
</svg>
