<svg width="131" height="24" viewBox="0 0 131 24" fill="none" xmlns="http://www.w3.org/2000/svg">
<path d="M11.1501 5.19015L10.3701 4.41012C9.90008 3.94012 9.90008 3.18017 10.3701 2.71017L11.1501 1.93014C11.6201 1.46014 12.3801 1.46014 12.8501 1.93014L13.6301 2.71017C14.1001 3.18017 14.1001 3.94012 13.6301 4.41012L12.8501 5.19015C12.3801 5.66015 11.6201 5.66015 11.1501 5.19015Z" fill="#1A1A1A"/>
<path d="M11.9998 5.91013C11.5998 5.91013 11.1898 5.76016 10.8898 5.45016L10.1098 4.67013C9.49984 4.06013 9.49984 3.06015 10.1098 2.44015L10.8898 1.66013C11.4798 1.06013 12.5198 1.07013 13.1198 1.66013L13.8998 2.44015C14.5098 3.05015 14.5098 4.05013 13.8998 4.67013L13.1198 5.45016C12.8098 5.76016 12.3998 5.91013 11.9998 5.91013ZM11.9998 1.96017C11.7898 1.96017 11.5798 2.04016 11.4198 2.20016L10.6398 2.98013C10.3198 3.30013 10.3198 3.83018 10.6398 4.15018L11.4198 4.93014C11.7398 5.25014 12.2598 5.25014 12.5898 4.93014L13.3698 4.15018C13.6898 3.83018 13.6898 3.31013 13.3698 2.98013L12.5898 2.20016C12.4198 2.04016 12.2098 1.96017 11.9998 1.96017Z" fill="#1A1A1A"/>
<path d="M19.45 9.81006H20.55C21.21 9.81006 21.75 10.3501 21.75 11.0101V12.11C21.75 12.77 21.21 13.3101 20.55 13.3101H19.45C18.79 13.3101 18.25 12.77 18.25 12.11V11.0101C18.25 10.3501 18.79 9.81006 19.45 9.81006Z" fill="#1A1A1A"/>
<path d="M20.5501 13.6899H19.4501C18.5801 13.6899 17.8701 12.9799 17.8701 12.1099V11.0099C17.8701 10.1399 18.5801 9.42993 19.4501 9.42993H20.5501C21.4201 9.42993 22.1301 10.1399 22.1301 11.0099V12.1099C22.1201 12.9799 21.4201 13.6899 20.5501 13.6899ZM19.4501 10.1899C18.9901 10.1899 18.6201 10.56 18.6201 11.02V12.1199C18.6201 12.5799 18.9901 12.95 19.4501 12.95H20.5501C21.0101 12.95 21.3801 12.5799 21.3801 12.1199V11.02C21.3801 10.56 21.0101 10.1899 20.5501 10.1899H19.4501Z" fill="#1A1A1A"/>
<path d="M4.55 9.81006H3.45C2.79 9.81006 2.25 10.3501 2.25 11.0101V12.11C2.25 12.77 2.79 13.3101 3.45 13.3101H4.55C5.21 13.3101 5.75 12.77 5.75 12.11V11.0101C5.75 10.3501 5.21 9.81006 4.55 9.81006Z" fill="#1A1A1A"/>
<path d="M4.55012 13.6899H3.45011C2.58011 13.6899 1.87012 12.9799 1.87012 12.1099V11.0099C1.87012 10.1399 2.58011 9.42993 3.45011 9.42993H4.55012C5.42012 9.42993 6.13011 10.1399 6.13011 11.0099V12.1099C6.12011 12.9799 5.42012 13.6899 4.55012 13.6899ZM3.45011 10.1899C2.99011 10.1899 2.62012 10.56 2.62012 11.02V12.1199C2.62012 12.5799 2.99011 12.95 3.45011 12.95H4.55012C5.01012 12.95 5.38011 12.5799 5.38011 12.1199V11.02C5.38011 10.56 5.01012 10.1899 4.55012 10.1899H3.45011Z" fill="#1A1A1A"/>
<path fill-rule="evenodd" clip-rule="evenodd" d="M12.7099 4.26972C13.0028 3.97683 13.4777 3.97683 13.7706 4.26972L19.0706 9.56971C19.3635 9.8626 19.3635 10.3375 19.0706 10.6304C18.7777 10.9233 18.3028 10.9233 18.0099 10.6304L12.7099 5.33038C12.417 5.03749 12.417 4.56261 12.7099 4.26972Z" fill="#1A1A1A"/>
<path fill-rule="evenodd" clip-rule="evenodd" d="M11.2903 4.26972C11.5832 4.56261 11.5832 5.03749 11.2903 5.33038L5.99029 10.6304C5.6974 10.9233 5.22252 10.9233 4.92963 10.6304C4.63674 10.3375 4.63674 9.8626 4.92963 9.56971L10.2296 4.26972C10.5225 3.97683 10.9974 3.97683 11.2903 4.26972Z" fill="#1A1A1A"/>
<path d="M13.2593 22.0099H10.6993C9.77931 22.0099 9.09931 21.2698 9.26931 20.4698L9.68932 18.6199H14.2793L14.6993 20.4698C14.8893 21.3198 14.2393 22.0099 13.2593 22.0099Z" fill="#1A1A1A"/>
<path opacity="0.4" d="M16.0395 17.0499L14.2695 18.6199H9.67953L7.90954 17.0499C6.87954 16.2099 6.87954 15.5599 7.65954 14.5699L10.7795 10.6299C10.9995 10.3599 11.2495 10.1699 11.5195 10.0799C11.8095 9.97988 12.1295 9.97988 12.4195 10.0799C12.6895 10.1799 12.9395 10.3599 13.1595 10.6299L16.2795 14.5699C17.0695 15.5599 17.0295 16.1799 16.0395 17.0499Z" fill="#1A1A1A"/>
<path d="M38.44 12.976H36.508V16H34.972V7.228H38.44C40.204 7.228 41.344 8.38 41.344 10.096C41.344 11.788 40.192 12.976 38.44 12.976ZM38.14 8.596H36.508V11.608H38.116C39.172 11.608 39.736 11.044 39.736 10.084C39.736 9.124 39.16 8.596 38.14 8.596ZM44.7791 16.156C43.0151 16.156 41.7791 14.872 41.7791 13.036C41.7791 11.176 42.9911 9.892 44.7311 9.892C46.5071 9.892 47.6351 11.08 47.6351 12.928V13.372L43.1711 13.384C43.2791 14.428 43.8311 14.956 44.8031 14.956C45.6071 14.956 46.1351 14.644 46.3031 14.08H47.6591C47.4071 15.376 46.3271 16.156 44.7791 16.156ZM44.7431 11.092C43.8791 11.092 43.3511 11.56 43.2071 12.448H46.1831C46.1831 11.632 45.6191 11.092 44.7431 11.092ZM50.2708 16H48.8068V10.072H50.1628L50.2828 10.84C50.6548 10.24 51.3748 9.892 52.1788 9.892C53.6668 9.892 54.4348 10.816 54.4348 12.352V16H52.9708V12.7C52.9708 11.704 52.4788 11.224 51.7228 11.224C50.8228 11.224 50.2708 11.848 50.2708 12.808V16ZM55.8612 13.444V12.148H59.7252V13.444H55.8612ZM62.9986 16H61.5346V11.296H60.3946V10.072H61.5346V8.224H62.9986V10.072H64.1506V11.296H62.9986V16ZM64.6541 13.024C64.6541 11.176 65.9861 9.904 67.8221 9.904C69.6581 9.904 70.9901 11.176 70.9901 13.024C70.9901 14.872 69.6581 16.144 67.8221 16.144C65.9861 16.144 64.6541 14.872 64.6541 13.024ZM66.1181 13.024C66.1181 14.104 66.8141 14.836 67.8221 14.836C68.8301 14.836 69.5261 14.104 69.5261 13.024C69.5261 11.944 68.8301 11.212 67.8221 11.212C66.8141 11.212 66.1181 11.944 66.1181 13.024ZM71.8025 13.024C71.8025 11.176 73.1345 9.904 74.9705 9.904C76.8065 9.904 78.1385 11.176 78.1385 13.024C78.1385 14.872 76.8065 16.144 74.9705 16.144C73.1345 16.144 71.8025 14.872 71.8025 13.024ZM73.2665 13.024C73.2665 14.104 73.9625 14.836 74.9705 14.836C75.9785 14.836 76.6745 14.104 76.6745 13.024C76.6745 11.944 75.9785 11.212 74.9705 11.212C73.9625 11.212 73.2665 11.944 73.2665 13.024ZM80.775 16H79.323V7.072H80.775V16Z" fill="black"/>
</svg>
