<svg width="101" height="24" viewBox="0 0 101 24" fill="none" xmlns="http://www.w3.org/2000/svg">
<path d="M22.0001 13.9V16.19C22.0001 19.83 19.8301 22 16.1901 22H7.81006C5.26006 22 3.42006 20.93 2.56006 19.03L2.67006 18.95L7.59006 15.65C8.39006 15.11 9.52006 15.17 10.2301 15.79L10.5701 16.07C11.3501 16.74 12.6101 16.74 13.3901 16.07L17.5501 12.5C18.3301 11.83 19.5901 11.83 20.3701 12.5L22.0001 13.9Z" fill="#1A1A1A"/>
<path opacity="0.4" d="M20.97 8H18.03C16.76 8 16 7.24 16 5.97V3.03C16 2.63 16.08 2.29 16.22 2C16.21 2 16.2 2 16.19 2H7.81C4.17 2 2 4.17 2 7.81V16.19C2 17.28 2.19 18.23 2.56 19.03L2.67 18.95L7.59 15.65C8.39 15.11 9.52 15.17 10.23 15.79L10.57 16.07C11.35 16.74 12.61 16.74 13.39 16.07L17.55 12.5C18.33 11.83 19.59 11.83 20.37 12.5L22 13.9V7.81C22 7.8 22 7.79 22 7.78C21.71 7.92 21.37 8 20.97 8Z" fill="#1A1A1A"/>
<path d="M9.00012 10.38C10.3146 10.38 11.3801 9.31443 11.3801 8C11.3801 6.68556 10.3146 5.62 9.00012 5.62C7.68568 5.62 6.62012 6.68556 6.62012 8C6.62012 9.31443 7.68568 10.38 9.00012 10.38Z" fill="#1A1A1A"/>
<path d="M20.97 1H18.03C16.76 1 16 1.76 16 3.03V5.97C16 7.24 16.76 8 18.03 8H20.97C22.24 8 23 7.24 23 5.97V3.03C23 1.76 22.24 1 20.97 1ZM21.63 3.45L19.26 6.22C19.17 6.33 19.03 6.4 18.89 6.4C18.88 6.4 18.88 6.4 18.87 6.4C18.73 6.4 18.6 6.35 18.5 6.25L17.4 5.17C17.2 4.97 17.2 4.64 17.4 4.44C17.6 4.24 17.93 4.23 18.13 4.44L18.83 5.13L20.83 2.79C21.02 2.57 21.34 2.55 21.56 2.73C21.79 2.91 21.81 3.24 21.63 3.45Z" fill="#1A1A1A"/>
<path d="M38.812 8.524C37.072 8.524 36.076 9.784 36.076 11.68C36.076 13.636 37.204 14.704 38.824 14.704C40.348 14.704 41.272 13.864 41.272 12.46V12.424H38.62V11.068H42.7V16H41.404L41.308 14.992C40.828 15.664 39.832 16.132 38.644 16.132C36.184 16.132 34.468 14.344 34.468 11.644C34.468 8.98 36.208 7.084 38.848 7.084C40.852 7.084 42.4 8.248 42.652 10.036H41.032C40.756 9.004 39.868 8.524 38.812 8.524ZM45.9067 16.156C44.6467 16.156 43.8787 15.424 43.8787 14.308C43.8787 13.216 44.6707 12.532 46.0747 12.424L47.8507 12.292V12.16C47.8507 11.356 47.3707 11.032 46.6267 11.032C45.7627 11.032 45.2827 11.392 45.2827 12.016H44.0347C44.0347 10.732 45.0907 9.892 46.6987 9.892C48.2947 9.892 49.2787 10.756 49.2787 12.4V16H47.9947L47.8867 15.124C47.6347 15.736 46.8307 16.156 45.9067 16.156ZM46.3867 15.052C47.2867 15.052 47.8627 14.512 47.8627 13.6V13.288L46.6267 13.384C45.7147 13.468 45.3667 13.768 45.3667 14.248C45.3667 14.788 45.7267 15.052 46.3867 15.052ZM52.1929 16H50.7409V7.072H52.1929V16ZM55.2047 16H53.7527V7.072H55.2047V16ZM59.3924 16.156C57.6284 16.156 56.3924 14.872 56.3924 13.036C56.3924 11.176 57.6044 9.892 59.3444 9.892C61.1204 9.892 62.2484 11.08 62.2484 12.928V13.372L57.7844 13.384C57.8924 14.428 58.4444 14.956 59.4164 14.956C60.2204 14.956 60.7484 14.644 60.9164 14.08H62.2724C62.0204 15.376 60.9404 16.156 59.3924 16.156ZM59.3564 11.092C58.4924 11.092 57.9644 11.56 57.8204 12.448H60.7964C60.7964 11.632 60.2324 11.092 59.3564 11.092ZM67.1401 10.048V11.404H66.6001C65.5441 11.404 64.8841 11.968 64.8841 13.12V16H63.4201V10.084H64.8001L64.8841 10.948C65.1361 10.36 65.7001 9.964 66.4921 9.964C66.6961 9.964 66.9001 9.988 67.1401 10.048ZM67.7908 18.748V17.524H68.6668C69.2428 17.524 69.6028 17.392 69.8548 16.696L70.0228 16.252L67.6348 10.072H69.1828L70.7068 14.392L72.3148 10.072H73.8268L70.9228 17.32C70.4788 18.424 69.8548 18.88 68.8828 18.88C68.4748 18.88 68.1148 18.832 67.7908 18.748ZM74.2362 13.444V12.148H78.1002V13.444H74.2362ZM81.3736 16H79.9096V11.296H78.7696V10.072H79.9096V8.224H81.3736V10.072H82.5256V11.296H81.3736V16ZM84.1677 8.884C83.6637 8.884 83.2677 8.488 83.2677 7.996C83.2677 7.504 83.6637 7.12 84.1677 7.12C84.6477 7.12 85.0437 7.504 85.0437 7.996C85.0437 8.488 84.6477 8.884 84.1677 8.884ZM83.4357 16V10.072H84.8997V16H83.4357ZM86.0643 13.024C86.0643 11.188 87.2763 9.892 89.0283 9.892C90.6483 9.892 91.7523 10.792 91.9083 12.22H90.4443C90.2763 11.548 89.7843 11.2 89.0883 11.2C88.1523 11.2 87.5283 11.908 87.5283 13.024C87.5283 14.14 88.1043 14.836 89.0403 14.836C89.7723 14.836 90.2883 14.476 90.4443 13.828H91.9203C91.7403 15.208 90.5883 16.156 89.0403 16.156C87.2402 16.156 86.0643 14.908 86.0643 13.024ZM94.4859 16H93.0339V7.072H94.4859V12.556L96.7899 10.072H98.6259L96.3699 12.424L98.5779 16H96.8979L95.3499 13.504L94.4859 14.404V16Z" fill="black"/>
</svg>
