<svg width="126" height="24" viewBox="0 0 126 24" fill="none" xmlns="http://www.w3.org/2000/svg">
<path d="M9 18.75H3C2.04 18.75 1.25 17.96 1.25 17V7C1.25 6.04 2.04 5.25 3 5.25H8C10.07 5.25 11.75 6.93 11.75 9C11.75 10.03 11.33 10.96 10.66 11.64C11.9 12.25 12.75 13.53 12.75 15C12.75 17.07 11.07 18.75 9 18.75ZM2.75 12.75V17C2.75 17.14 2.86 17.25 3 17.25H9C10.24 17.25 11.25 16.24 11.25 15C11.25 13.76 10.24 12.75 9 12.75H2.75ZM2.75 11.25H8C9.24 11.25 10.25 10.24 10.25 9C10.25 7.76 9.24 6.75 8 6.75H3C2.86 6.75 2.75 6.86 2.75 7V11.25Z" fill="#1A1A1A"/>
<path opacity="0.4" d="M19.67 18.75H18C15.38 18.75 13.25 16.62 13.25 14C13.25 11.38 15.38 9.25 18 9.25C20.62 9.25 22.75 11.38 22.75 14C22.75 14.41 22.41 14.75 22 14.75H14.84C15.18 16.18 16.47 17.25 18 17.25H19.67C20.08 17.25 20.42 17.59 20.42 18C20.42 18.41 20.08 18.75 19.67 18.75ZM14.84 13.25H21.17C20.83 11.82 19.54 10.75 18.01 10.75C16.48 10.75 15.18 11.82 14.84 13.25Z" fill="#1A1A1A"/>
<path d="M19.5 8.25H16.5C16.09 8.25 15.75 7.91 15.75 7.5C15.75 7.09 16.09 6.75 16.5 6.75H19.5C19.91 6.75 20.25 7.09 20.25 7.5C20.25 7.91 19.91 8.25 19.5 8.25Z" fill="#1A1A1A"/>
<path d="M34.972 16V7.228H38.464C40.192 7.228 41.248 8.128 41.248 9.592C41.248 10.564 40.816 11.26 39.988 11.608C40.912 11.908 41.38 12.604 41.38 13.624C41.38 15.124 40.336 16 38.524 16H34.972ZM38.332 8.584H36.508V10.972H38.368C39.208 10.972 39.676 10.528 39.676 9.748C39.676 8.992 39.196 8.584 38.332 8.584ZM38.464 12.268H36.508V14.644H38.464C39.328 14.644 39.808 14.224 39.808 13.432C39.808 12.688 39.316 12.268 38.464 12.268ZM45.2244 16.156C43.4604 16.156 42.2244 14.872 42.2244 13.036C42.2244 11.176 43.4364 9.892 45.1764 9.892C46.9524 9.892 48.0804 11.08 48.0804 12.928V13.372L43.6164 13.384C43.7244 14.428 44.2764 14.956 45.2484 14.956C46.0524 14.956 46.5804 14.644 46.7484 14.08H48.1044C47.8524 15.376 46.7724 16.156 45.2244 16.156ZM45.1884 11.092C44.3244 11.092 43.7964 11.56 43.6524 12.448H46.6284C46.6284 11.632 46.0644 11.092 45.1884 11.092Z" fill="black"/>
</svg>
