<svg width="101" height="24" viewBox="0 0 101 24" fill="none" xmlns="http://www.w3.org/2000/svg">
<path d="M18.75 8V10.1C18.31 10.04 17.81 10.01 17.25 10V8C17.25 4.85 16.36 2.75 12 2.75C7.64 2.75 6.75 4.85 6.75 8V10C6.19 10.01 5.69 10.04 5.25 10.1V8C5.25 5.1 5.95 1.25 12 1.25C18.05 1.25 18.75 5.1 18.75 8Z" fill="#1A1A1A"/>
<path opacity="0.4" d="M22 15V17C22 21 21 22 17 22H7C3 22 2 21 2 17V15C2 11.66 2.7 10.41 5.25 10.1C5.69 10.04 6.19 10.01 6.75 10H17.25C17.81 10.01 18.31 10.04 18.75 10.1C21.3 10.41 22 11.66 22 15Z" fill="#1A1A1A"/>
<path d="M8 16.9999C7.87 16.9999 7.74 16.9699 7.62 16.9199C7.49 16.8699 7.39001 16.7999 7.29001 16.7099C7.11001 16.5199 7 16.2599 7 15.9999C7 15.8699 7.02999 15.7399 7.07999 15.6199C7.12999 15.4999 7.20001 15.3899 7.29001 15.2899C7.39001 15.1999 7.49 15.1299 7.62 15.0799C7.99 14.9199 8.42999 15.0099 8.70999 15.2899C8.79999 15.3899 8.87001 15.4999 8.92001 15.6199C8.97001 15.7399 9 15.8699 9 15.9999C9 16.2599 8.88999 16.5199 8.70999 16.7099C8.51999 16.8899 8.26 16.9999 8 16.9999Z" fill="#1A1A1A"/>
<path d="M12 17.0002C11.73 17.0002 11.48 16.8902 11.29 16.7102C11.2 16.6102 11.13 16.5002 11.08 16.3802C11.03 16.2602 11 16.1302 11 16.0002C11 15.7302 11.11 15.4802 11.29 15.2902C11.66 14.9202 12.33 14.9202 12.71 15.2902C12.89 15.4802 13 15.7302 13 16.0002C13 16.1302 12.97 16.2602 12.92 16.3802C12.87 16.5002 12.8 16.6102 12.71 16.7102C12.52 16.8902 12.26 17.0002 12 17.0002Z" fill="#1A1A1A"/>
<path d="M16 17.0002C15.74 17.0002 15.48 16.8902 15.29 16.7102C15.11 16.5202 15 16.2702 15 16.0002C15 15.7302 15.11 15.4802 15.29 15.2902C15.67 14.9202 16.34 14.9202 16.71 15.2902C16.75 15.3402 16.79 15.3902 16.83 15.4502C16.87 15.5002 16.9 15.5602 16.92 15.6202C16.95 15.6802 16.97 15.7402 16.98 15.8002C16.99 15.8702 17 15.9402 17 16.0002C17 16.2602 16.89 16.5202 16.71 16.7102C16.52 16.8902 16.26 17.0002 16 17.0002Z" fill="#1A1A1A"/>
<path d="M36.508 7.228V14.584H40.18V16H34.972V7.228H36.508ZM40.7478 13.024C40.7478 11.176 42.0798 9.904 43.9158 9.904C45.7518 9.904 47.0838 11.176 47.0838 13.024C47.0838 14.872 45.7518 16.144 43.9158 16.144C42.0798 16.144 40.7478 14.872 40.7478 13.024ZM42.2118 13.024C42.2118 14.104 42.9078 14.836 43.9158 14.836C44.9238 14.836 45.6198 14.104 45.6198 13.024C45.6198 11.944 44.9238 11.212 43.9158 11.212C42.9078 11.212 42.2118 11.944 42.2118 13.024ZM47.8963 13.024C47.8963 11.188 49.1083 9.892 50.8603 9.892C52.4803 9.892 53.5843 10.792 53.7403 12.22H52.2763C52.1083 11.548 51.6163 11.2 50.9203 11.2C49.9843 11.2 49.3603 11.908 49.3603 13.024C49.3603 14.14 49.9363 14.836 50.8723 14.836C51.6043 14.836 52.1203 14.476 52.2763 13.828H53.7523C53.5723 15.208 52.4203 16.156 50.8723 16.156C49.0723 16.156 47.8963 14.908 47.8963 13.024ZM56.3179 16H54.8659V7.072H56.3179V12.556L58.6219 10.072H60.4579L58.2019 12.424L60.4099 16H58.7299L57.1819 13.504L56.3179 14.404V16ZM60.5135 13.444V12.148H64.3775V13.444H60.5135ZM70.9758 15.988L64.8918 16V14.848L67.7598 12.424C68.9478 11.416 69.3438 10.84 69.3438 10C69.3438 9.004 68.8038 8.44 67.8798 8.44C66.9198 8.44 66.3198 9.112 66.3078 10.24H64.7838C64.7958 8.32 66.0198 7.072 67.8798 7.072C69.7518 7.072 70.9158 8.14 70.9158 9.916C70.9158 11.14 70.2438 12.064 68.9118 13.204L67.3278 14.56H70.9758V15.988Z" fill="black"/>
</svg>
