<svg width="200" height="24" viewBox="0 0 200 24" fill="none" xmlns="http://www.w3.org/2000/svg">
<path opacity="0.4" d="M12.93 4.78998H7.35C3.25 4.78998 2 6.03998 2 10.14V13.86C2 17.96 3.25 19.21 7.35 19.21H12.93C17.03 19.21 18.28 17.96 18.28 13.86V10.14C18.28 6.03998 17.03 4.78998 12.93 4.78998Z" fill="#1A1A1A"/>
<path d="M20.42 8.99998C20.28 8.98998 20.1 8.97998 19.9 8.97998C19.51 8.97998 19.2 9.28998 19.2 9.67998V14.33C19.2 14.72 19.51 15.03 19.9 15.03C20.1 15.03 20.27 15.02 20.44 15.01C22 14.83 22 13.73 22 12.93V11.07C22 10.27 22 9.16998 20.42 8.99998Z" fill="#1A1A1A"/>
<path d="M6.38001 14.75C6.32001 14.75 6.26001 14.74 6.20001 14.73C5.80001 14.63 5.55001 14.22 5.65001 13.82C5.95001 12.63 5.95001 11.37 5.65001 10.18C5.55001 9.77998 5.79001 9.36998 6.20001 9.26998C6.59001 9.16998 7.00001 9.41997 7.10001 9.81997C7.46001 11.25 7.46001 12.76 7.10001 14.18C7.02001 14.52 6.71001 14.75 6.38001 14.75Z" fill="#1A1A1A"/>
<path d="M34.972 17V8.228H38.464C40.192 8.228 41.248 9.128 41.248 10.592C41.248 11.564 40.816 12.26 39.988 12.608C40.912 12.908 41.38 13.604 41.38 14.624C41.38 16.124 40.336 17 38.524 17H34.972ZM38.332 9.584H36.508V11.972H38.368C39.208 11.972 39.676 11.528 39.676 10.748C39.676 9.992 39.196 9.584 38.332 9.584ZM38.464 13.268H36.508V15.644H38.464C39.328 15.644 39.808 15.224 39.808 14.432C39.808 13.688 39.316 13.268 38.464 13.268ZM44.3364 17.156C43.0764 17.156 42.3084 16.424 42.3084 15.308C42.3084 14.216 43.1004 13.532 44.5044 13.424L46.2804 13.292V13.16C46.2804 12.356 45.8004 12.032 45.0564 12.032C44.1924 12.032 43.7124 12.392 43.7124 13.016H42.4644C42.4644 11.732 43.5204 10.892 45.1284 10.892C46.7244 10.892 47.7084 11.756 47.7084 13.4V17H46.4244L46.3164 16.124C46.0644 16.736 45.2604 17.156 44.3364 17.156ZM44.8164 16.052C45.7164 16.052 46.2924 15.512 46.2924 14.6V14.288L45.0564 14.384C44.1444 14.468 43.7964 14.768 43.7964 15.248C43.7964 15.788 44.1564 16.052 44.8164 16.052ZM51.0806 17H49.6166V12.296H48.4766V11.072H49.6166V9.224H51.0806V11.072H52.2326V12.296H51.0806V17ZM55.3228 17H53.8588V12.296H52.7188V11.072H53.8588V9.224H55.3228V11.072H56.4748V12.296H55.3228V17ZM59.9783 17.156C58.2143 17.156 56.9783 15.872 56.9783 14.036C56.9783 12.176 58.1903 10.892 59.9303 10.892C61.7063 10.892 62.8343 12.08 62.8343 13.928V14.372L58.3703 14.384C58.4783 15.428 59.0303 15.956 60.0023 15.956C60.8063 15.956 61.3343 15.644 61.5023 15.08H62.8583C62.6063 16.376 61.5263 17.156 59.9783 17.156ZM59.9423 12.092C59.0783 12.092 58.5503 12.56 58.4063 13.448H61.3823C61.3823 12.632 60.8183 12.092 59.9423 12.092ZM67.726 11.048V12.404H67.186C66.13 12.404 65.47 12.968 65.47 14.12V17H64.006V11.084H65.386L65.47 11.948C65.722 11.36 66.286 10.964 67.078 10.964C67.282 10.964 67.486 10.988 67.726 11.048ZM68.3767 19.748V18.524H69.2527C69.8287 18.524 70.1887 18.392 70.4407 17.696L70.6087 17.252L68.2207 11.072H69.7687L71.2927 15.392L72.9007 11.072H74.4127L71.5087 18.32C71.0647 19.424 70.4407 19.88 69.4687 19.88C69.0607 19.88 68.7007 19.832 68.3767 19.748ZM74.8221 14.444V13.148H78.6861V14.444H74.8221ZM82.8299 17.156C81.0659 17.156 79.8299 15.872 79.8299 14.036C79.8299 12.176 81.0419 10.892 82.7819 10.892C84.5579 10.892 85.6859 12.08 85.6859 13.928V14.372L81.2219 14.384C81.3299 15.428 81.8819 15.956 82.8539 15.956C83.6579 15.956 84.1859 15.644 84.3539 15.08H85.7099C85.4579 16.376 84.3779 17.156 82.8299 17.156ZM82.7939 12.092C81.9299 12.092 81.4019 12.56 81.2579 13.448H84.2339C84.2339 12.632 83.6699 12.092 82.7939 12.092ZM88.3216 17H86.8576V11.072H88.2016L88.3216 11.768C88.6216 11.276 89.2216 10.892 90.0736 10.892C90.9736 10.892 91.5976 11.336 91.9096 12.02C92.2096 11.336 92.9056 10.892 93.8056 10.892C95.2456 10.892 96.0376 11.756 96.0376 13.124V17H94.5856V13.508C94.5856 12.656 94.1296 12.212 93.4336 12.212C92.7256 12.212 92.1856 12.668 92.1856 13.64V17H90.7216V13.496C90.7216 12.668 90.2776 12.224 89.5816 12.224C88.8856 12.224 88.3216 12.68 88.3216 13.64V17ZM97.4748 19.748V11.072H98.8308L98.9268 11.972C99.2868 11.288 100.067 10.892 100.967 10.892C102.635 10.892 103.739 12.104 103.739 13.964C103.739 15.812 102.731 17.156 100.967 17.156C100.079 17.156 99.3108 16.808 98.9388 16.208V19.748H97.4748ZM98.9508 14.036C98.9508 15.104 99.6108 15.836 100.619 15.836C101.651 15.836 102.263 15.092 102.263 14.036C102.263 12.98 101.651 12.224 100.619 12.224C99.6108 12.224 98.9508 12.968 98.9508 14.036ZM106.862 17H105.398V12.296H104.258V11.072H105.398V9.224H106.862V11.072H108.014V12.296H106.862V17ZM108.408 19.748V18.524H109.284C109.86 18.524 110.22 18.392 110.472 17.696L110.64 17.252L108.252 11.072H109.8L111.324 15.392L112.932 11.072H114.444L111.54 18.32C111.096 19.424 110.472 19.88 109.5 19.88C109.092 19.88 108.732 19.832 108.408 19.748ZM124.39 16.988L118.306 17V15.848L121.174 13.424C122.362 12.416 122.758 11.84 122.758 11C122.758 10.004 122.218 9.44 121.294 9.44C120.334 9.44 119.734 10.112 119.722 11.24H118.198C118.21 9.32 119.434 8.072 121.294 8.072C123.166 8.072 124.33 9.14 124.33 10.916C124.33 12.14 123.658 13.064 122.326 14.204L120.742 15.56H124.39V16.988Z" fill="black"/>
</svg>
