<svg width="149" height="24" viewBox="0 0 149 24" fill="none" xmlns="http://www.w3.org/2000/svg">
<path opacity="0.4" d="M16.9198 22C14.1198 22 11.8398 19.73 11.8398 16.92C11.8398 14.12 14.1098 11.84 16.9198 11.84C19.7198 11.84 21.9998 14.11 21.9998 16.92C21.9998 19.73 19.7298 22 16.9198 22Z" fill="#1A1A1A"/>
<path opacity="0.4" d="M5.02 2H8.94C11.01 2 12.01 2.99999 11.96 5.01999V8.94C12.01 11.01 11.01 12.01 8.94 11.96H5.02C3 12 2 11 2 8.92999V5.01001C2 3.00001 3 2 5.02 2Z" fill="#1A1A1A"/>
<path d="M9.00969 8.26004C8.69969 8.26004 8.40969 8.14003 8.13969 7.94003C8.38969 7.54003 8.5697 7.09004 8.6597 6.60004H8.99969C9.40969 6.60004 9.74969 6.26004 9.74969 5.85004C9.74969 5.44004 9.40969 5.10004 8.99969 5.10004H8.00969C7.99969 5.10004 7.9897 5.10004 7.9897 5.10004H7.9697H7.7097C7.6697 4.72004 7.3597 4.42004 6.9697 4.42004C6.5797 4.42004 6.26969 4.72004 6.22969 5.10004H4.9397C4.5297 5.10004 4.1897 5.44004 4.1897 5.85004C4.1897 6.26004 4.5297 6.60004 4.9397 6.60004H7.1097C6.8097 7.56004 5.94969 8.26004 4.92969 8.26004C4.51969 8.26004 4.17969 8.60004 4.17969 9.01004C4.17969 9.42004 4.51969 9.76004 4.92969 9.76004C5.73969 9.76004 6.4897 9.49004 7.1097 9.04004C7.6597 9.50004 8.31969 9.76004 8.99969 9.76004C9.40969 9.76004 9.74969 9.42004 9.74969 9.01004C9.74969 8.60004 9.41969 8.26004 9.00969 8.26004Z" fill="#1A1A1A"/>
<path d="M9 22.75C4.73 22.75 1.25 19.27 1.25 15C1.25 14.59 1.59 14.25 2 14.25C2.41 14.25 2.75 14.59 2.75 15C2.75 17.96 4.81 20.44 7.58 21.09L7.31 20.64C7.1 20.28 7.21001 19.82 7.57001 19.61C7.92001 19.4 8.39001 19.51 8.60001 19.87L9.64999 21.62C9.78999 21.85 9.79 22.14 9.66 22.37C9.52 22.6 9.27 22.75 9 22.75Z" fill="#1A1A1A"/>
<path d="M22.0004 9.75C21.5904 9.75 21.2504 9.41 21.2504 9C21.2504 6.04 19.1904 3.56 16.4204 2.91L16.6904 3.35999C16.9004 3.71999 16.7904 4.18001 16.4304 4.39001C16.0804 4.60001 15.6104 4.49001 15.4004 4.13L14.3504 2.38C14.2104 2.15 14.2104 1.86 14.3404 1.63C14.4704 1.39 14.7204 1.25 14.9904 1.25C19.2604 1.25 22.7404 4.73 22.7404 9C22.7504 9.41 22.4104 9.75 22.0004 9.75Z" fill="#1A1A1A"/>
<path d="M19.7296 18.33L17.5896 14.06C17.4596 13.81 17.1996 13.64 16.9196 13.64C16.6396 13.64 16.3796 13.8 16.2496 14.05L14.1096 18.32C13.9196 18.69 14.0696 19.14 14.4496 19.33C14.5596 19.38 14.6696 19.41 14.7796 19.41C15.0496 19.41 15.3196 19.26 15.4496 19L15.6196 18.66H18.2096L18.3796 19C18.5696 19.37 19.0196 19.52 19.3896 19.34C19.7696 19.15 19.9196 18.7 19.7296 18.33ZM16.3796 17.16L16.9295 16.07L17.4796 17.16H16.3796Z" fill="#1A1A1A"/>
<path d="M34.204 8.644V7.228H40.876V8.644H38.308V16H36.772V8.644H34.204ZM44.8393 10.048V11.404H44.2993C43.2433 11.404 42.5833 11.968 42.5833 13.12V16H41.1193V10.084H42.4993L42.5833 10.948C42.8353 10.36 43.3993 9.964 44.1913 9.964C44.3953 9.964 44.5993 9.988 44.8393 10.048ZM47.3598 16.156C46.0998 16.156 45.3318 15.424 45.3318 14.308C45.3318 13.216 46.1238 12.532 47.5278 12.424L49.3038 12.292V12.16C49.3038 11.356 48.8238 11.032 48.0798 11.032C47.2158 11.032 46.7358 11.392 46.7358 12.016H45.4878C45.4878 10.732 46.5438 9.892 48.1518 9.892C49.7478 9.892 50.7318 10.756 50.7318 12.4V16H49.4478L49.3398 15.124C49.0878 15.736 48.2838 16.156 47.3598 16.156ZM47.8398 15.052C48.7398 15.052 49.3158 14.512 49.3158 13.6V13.288L48.0798 13.384C47.1678 13.468 46.8198 13.768 46.8198 14.248C46.8198 14.788 47.1798 15.052 47.8398 15.052ZM53.6341 16H52.1701V10.072H53.5261L53.6461 10.84C54.0181 10.24 54.7381 9.892 55.5421 9.892C57.0301 9.892 57.7981 10.816 57.7981 12.352V16H56.3341V12.7C56.3341 11.704 55.8421 11.224 55.0861 11.224C54.1861 11.224 53.6341 11.848 53.6341 12.808V16ZM58.7102 14.2H60.1022C60.1142 14.716 60.4982 15.04 61.1702 15.04C61.8542 15.04 62.2262 14.764 62.2262 14.332C62.2262 14.032 62.0702 13.816 61.5422 13.696L60.4742 13.444C59.4062 13.204 58.8902 12.7 58.8902 11.752C58.8902 10.588 59.8742 9.892 61.2422 9.892C62.5742 9.892 63.4742 10.66 63.4862 11.812H62.0942C62.0822 11.308 61.7462 10.984 61.1822 10.984C60.6062 10.984 60.2702 11.248 60.2702 11.692C60.2702 12.028 60.5342 12.244 61.0382 12.364L62.1062 12.616C63.1022 12.844 63.6062 13.3 63.6062 14.212C63.6062 15.412 62.5862 16.156 61.1222 16.156C59.6462 16.156 58.7102 15.364 58.7102 14.2ZM66.1968 16H64.7448V7.072H66.1968V16ZM69.4966 16.156C68.2366 16.156 67.4686 15.424 67.4686 14.308C67.4686 13.216 68.2606 12.532 69.6646 12.424L71.4406 12.292V12.16C71.4406 11.356 70.9606 11.032 70.2166 11.032C69.3526 11.032 68.8726 11.392 68.8726 12.016H67.6246C67.6246 10.732 68.6806 9.892 70.2886 9.892C71.8846 9.892 72.8686 10.756 72.8686 12.4V16H71.5846L71.4766 15.124C71.2246 15.736 70.4206 16.156 69.4966 16.156ZM69.9766 15.052C70.8766 15.052 71.4526 14.512 71.4526 13.6V13.288L70.2166 13.384C69.3046 13.468 68.9566 13.768 68.9566 14.248C68.9566 14.788 69.3166 15.052 69.9766 15.052ZM76.2408 16H74.7768V11.296H73.6368V10.072H74.7768V8.224H76.2408V10.072H77.3928V11.296H76.2408V16ZM80.8963 16.156C79.1323 16.156 77.8963 14.872 77.8963 13.036C77.8963 11.176 79.1083 9.892 80.8483 9.892C82.6243 9.892 83.7523 11.08 83.7523 12.928V13.372L79.2883 13.384C79.3963 14.428 79.9483 14.956 80.9203 14.956C81.7243 14.956 82.2523 14.644 82.4203 14.08H83.7763C83.5243 15.376 82.4443 16.156 80.8963 16.156ZM80.8603 11.092C79.9963 11.092 79.4683 11.56 79.3243 12.448H82.3003C82.3003 11.632 81.7363 11.092 80.8603 11.092Z" fill="black"/>
</svg>
