<svg width="130" height="24" viewBox="0 0 130 24" fill="none" xmlns="http://www.w3.org/2000/svg">
<path opacity="0.4" d="M11.01 20.02C15.9861 20.02 20.02 15.9861 20.02 11.01C20.02 6.03391 15.9861 2 11.01 2C6.03391 2 2 6.03391 2 11.01C2 15.9861 6.03391 20.02 11.01 20.02Z" fill="#1A1A1A"/>
<path d="M14.25 11C14.25 11.41 13.91 11.75 13.5 11.75H8.5C8.09 11.75 7.75 11.41 7.75 11C7.75 10.59 8.09 10.25 8.5 10.25H13.5C13.91 10.25 14.25 10.59 14.25 11Z" fill="#1A1A1A"/>
<path d="M21.9901 18.95C21.6601 18.34 20.9601 18 20.0201 18C19.3101 18 18.7001 18.29 18.3401 18.79C17.9801 19.29 17.9001 19.96 18.1201 20.63C18.5501 21.93 19.3001 22.22 19.7101 22.27C19.7701 22.28 19.8301 22.28 19.9001 22.28C20.3401 22.28 21.0201 22.09 21.6801 21.1C22.2101 20.33 22.3101 19.56 21.9901 18.95Z" fill="#1A1A1A"/>
<path d="M34.3 15.2H35.692C35.704 15.716 36.088 16.04 36.76 16.04C37.444 16.04 37.816 15.764 37.816 15.332C37.816 15.032 37.66 14.816 37.132 14.696L36.064 14.444C34.996 14.204 34.48 13.7 34.48 12.752C34.48 11.588 35.464 10.892 36.832 10.892C38.164 10.892 39.064 11.66 39.076 12.812H37.684C37.672 12.308 37.336 11.984 36.772 11.984C36.196 11.984 35.86 12.248 35.86 12.692C35.86 13.028 36.124 13.244 36.628 13.364L37.696 13.616C38.692 13.844 39.196 14.3 39.196 15.212C39.196 16.412 38.176 17.156 36.712 17.156C35.236 17.156 34.3 16.364 34.3 15.2ZM42.9627 17.156C41.1987 17.156 39.9627 15.872 39.9627 14.036C39.9627 12.176 41.1747 10.892 42.9147 10.892C44.6907 10.892 45.8187 12.08 45.8187 13.928V14.372L41.3547 14.384C41.4627 15.428 42.0147 15.956 42.9867 15.956C43.7907 15.956 44.3187 15.644 44.4867 15.08H45.8427C45.5907 16.376 44.5107 17.156 42.9627 17.156ZM42.9267 12.092C42.0627 12.092 41.5347 12.56 41.3907 13.448H44.3667C44.3667 12.632 43.8027 12.092 42.9267 12.092ZM48.6958 17.156C47.4358 17.156 46.6678 16.424 46.6678 15.308C46.6678 14.216 47.4598 13.532 48.8638 13.424L50.6398 13.292V13.16C50.6398 12.356 50.1598 12.032 49.4158 12.032C48.5518 12.032 48.0718 12.392 48.0718 13.016H46.8238C46.8238 11.732 47.8798 10.892 49.4878 10.892C51.0838 10.892 52.0678 11.756 52.0678 13.4V17H50.7838L50.6758 16.124C50.4238 16.736 49.6198 17.156 48.6958 17.156ZM49.1758 16.052C50.0758 16.052 50.6518 15.512 50.6518 14.6V14.288L49.4158 14.384C48.5038 14.468 48.1558 14.768 48.1558 15.248C48.1558 15.788 48.5158 16.052 49.1758 16.052ZM57.226 11.048V12.404H56.686C55.63 12.404 54.97 12.968 54.97 14.12V17H53.506V11.084H54.886L54.97 11.948C55.222 11.36 55.786 10.964 56.578 10.964C56.782 10.964 56.986 10.988 57.226 11.048ZM57.6697 14.024C57.6697 12.188 58.8817 10.892 60.6337 10.892C62.2537 10.892 63.3577 11.792 63.5137 13.22H62.0497C61.8817 12.548 61.3897 12.2 60.6937 12.2C59.7577 12.2 59.1337 12.908 59.1337 14.024C59.1337 15.14 59.7097 15.836 60.6457 15.836C61.3777 15.836 61.8937 15.476 62.0497 14.828H63.5257C63.3457 16.208 62.1937 17.156 60.6457 17.156C58.8457 17.156 57.6697 15.908 57.6697 14.024ZM66.0794 17H64.6154V8.072H66.0914V11.84C66.4634 11.264 67.1594 10.892 68.0114 10.892C69.4754 10.892 70.2434 11.816 70.2434 13.352V17H68.7794V13.7C68.7794 12.704 68.2874 12.224 67.5434 12.224C66.6194 12.224 66.0794 12.872 66.0794 13.76V17ZM71.6698 14.444V13.148H75.5338V14.444H71.6698ZM81.2672 17H76.4792V15.8L79.4312 12.296H76.4792V11.072H81.2672V12.284L78.2672 15.776H81.2672V17ZM82.0447 14.024C82.0447 12.176 83.3767 10.904 85.2127 10.904C87.0487 10.904 88.3807 12.176 88.3807 14.024C88.3807 15.872 87.0487 17.144 85.2127 17.144C83.3767 17.144 82.0447 15.872 82.0447 14.024ZM83.5087 14.024C83.5087 15.104 84.2047 15.836 85.2127 15.836C86.2207 15.836 86.9167 15.104 86.9167 14.024C86.9167 12.944 86.2207 12.212 85.2127 12.212C84.2047 12.212 83.5087 12.944 83.5087 14.024ZM89.1932 14.024C89.1932 12.176 90.5252 10.904 92.3612 10.904C94.1972 10.904 95.5292 12.176 95.5292 14.024C95.5292 15.872 94.1972 17.144 92.3612 17.144C90.5252 17.144 89.1932 15.872 89.1932 14.024ZM90.6572 14.024C90.6572 15.104 91.3532 15.836 92.3612 15.836C93.3692 15.836 94.0652 15.104 94.0652 14.024C94.0652 12.944 93.3692 12.212 92.3612 12.212C91.3532 12.212 90.6572 12.944 90.6572 14.024ZM98.1536 17H96.6896V11.072H98.0336L98.1536 11.768C98.4536 11.276 99.0536 10.892 99.9056 10.892C100.806 10.892 101.43 11.336 101.742 12.02C102.042 11.336 102.738 10.892 103.638 10.892C105.078 10.892 105.87 11.756 105.87 13.124V17H104.418V13.508C104.418 12.656 103.962 12.212 103.266 12.212C102.558 12.212 102.018 12.668 102.018 13.64V17H100.554V13.496C100.554 12.668 100.11 12.224 99.4136 12.224C98.7176 12.224 98.1536 12.68 98.1536 13.64V17ZM107.295 14.444V13.148H111.159V14.444H107.295ZM112.303 14.024C112.303 12.176 113.635 10.904 115.471 10.904C117.307 10.904 118.639 12.176 118.639 14.024C118.639 15.872 117.307 17.144 115.471 17.144C113.635 17.144 112.303 15.872 112.303 14.024ZM113.767 14.024C113.767 15.104 114.463 15.836 115.471 15.836C116.479 15.836 117.175 15.104 117.175 14.024C117.175 12.944 116.479 12.212 115.471 12.212C114.463 12.212 113.767 12.944 113.767 14.024ZM123.678 11.072H125.142V17H123.786L123.678 16.208C123.318 16.772 122.55 17.156 121.758 17.156C120.39 17.156 119.586 16.232 119.586 14.78V11.072H121.05V14.264C121.05 15.392 121.494 15.848 122.31 15.848C123.234 15.848 123.678 15.308 123.678 14.18V11.072ZM128.67 17H127.206V12.296H126.066V11.072H127.206V9.224H128.67V11.072H129.822V12.296H128.67V17Z" fill="black"/>
</svg>
