<svg width="101" height="24" viewBox="0 0 101 24" fill="none" xmlns="http://www.w3.org/2000/svg">
<path opacity="0.4" d="M17 20.5H7C4 20.5 2 19 2 15.5V8.5C2 5 4 3.5 7 3.5H17C20 3.5 22 5 22 8.5V15.5C22 19 20 20.5 17 20.5Z" fill="#1A1A1A"/>
<path d="M6 16.75C5.59 16.75 5.25 16.41 5.25 16V8C5.25 7.59 5.59 7.25 6 7.25C6.41 7.25 6.75 7.59 6.75 8V16C6.75 16.41 6.41 16.75 6 16.75Z" fill="#1A1A1A"/>
<path d="M9 12.75C8.59 12.75 8.25 12.41 8.25 12V8C8.25 7.59 8.59 7.25 9 7.25C9.41 7.25 9.75 7.59 9.75 8V12C9.75 12.41 9.41 12.75 9 12.75Z" fill="#1A1A1A"/>
<path d="M9 16.75C8.59 16.75 8.25 16.41 8.25 16V15C8.25 14.59 8.59 14.25 9 14.25C9.41 14.25 9.75 14.59 9.75 15V16C9.75 16.41 9.41 16.75 9 16.75Z" fill="#1A1A1A"/>
<path d="M15 9.75C14.59 9.75 14.25 9.41 14.25 9V8C14.25 7.59 14.59 7.25 15 7.25C15.41 7.25 15.75 7.59 15.75 8V9C15.75 9.41 15.41 9.75 15 9.75Z" fill="#1A1A1A"/>
<path d="M12 16.75C11.59 16.75 11.25 16.41 11.25 16V8C11.25 7.59 11.59 7.25 12 7.25C12.41 7.25 12.75 7.59 12.75 8V16C12.75 16.41 12.41 16.75 12 16.75Z" fill="#1A1A1A"/>
<path d="M15 16.75C14.59 16.75 14.25 16.41 14.25 16V12C14.25 11.59 14.59 11.25 15 11.25C15.41 11.25 15.75 11.59 15.75 12V16C15.75 16.41 15.41 16.75 15 16.75Z" fill="#1A1A1A"/>
<path d="M18 16.75C17.59 16.75 17.25 16.41 17.25 16V8C17.25 7.59 17.59 7.25 18 7.25C18.41 7.25 18.75 7.59 18.75 8V16C18.75 16.41 18.41 16.75 18 16.75Z" fill="#1A1A1A"/>
<path d="M34.972 16V7.228H38.464C40.192 7.228 41.248 8.128 41.248 9.592C41.248 10.564 40.816 11.26 39.988 11.608C40.912 11.908 41.38 12.604 41.38 13.624C41.38 15.124 40.336 16 38.524 16H34.972ZM38.332 8.584H36.508V10.972H38.368C39.208 10.972 39.676 10.528 39.676 9.748C39.676 8.992 39.196 8.584 38.332 8.584ZM38.464 12.268H36.508V14.644H38.464C39.328 14.644 39.808 14.224 39.808 13.432C39.808 12.688 39.316 12.268 38.464 12.268ZM44.3364 16.156C43.0764 16.156 42.3084 15.424 42.3084 14.308C42.3084 13.216 43.1004 12.532 44.5044 12.424L46.2804 12.292V12.16C46.2804 11.356 45.8004 11.032 45.0564 11.032C44.1924 11.032 43.7124 11.392 43.7124 12.016H42.4644C42.4644 10.732 43.5204 9.892 45.1284 9.892C46.7244 9.892 47.7084 10.756 47.7084 12.4V16H46.4244L46.3164 15.124C46.0644 15.736 45.2604 16.156 44.3364 16.156ZM44.8164 15.052C45.7164 15.052 46.2924 14.512 46.2924 13.6V13.288L45.0564 13.384C44.1444 13.468 43.7964 13.768 43.7964 14.248C43.7964 14.788 44.1564 15.052 44.8164 15.052ZM52.8666 10.048V11.404H52.3266C51.2706 11.404 50.6106 11.968 50.6106 13.12V16H49.1466V10.084H50.5266L50.6106 10.948C50.8626 10.36 51.4266 9.964 52.2186 9.964C52.4226 9.964 52.6266 9.988 52.8666 10.048ZM53.3103 13.024C53.3103 11.188 54.5223 9.892 56.2743 9.892C57.8943 9.892 58.9983 10.792 59.1543 12.22H57.6903C57.5223 11.548 57.0303 11.2 56.3343 11.2C55.3983 11.2 54.7743 11.908 54.7743 13.024C54.7743 14.14 55.3503 14.836 56.2863 14.836C57.0183 14.836 57.5343 14.476 57.6903 13.828H59.1663C58.9863 15.208 57.8343 16.156 56.2863 16.156C54.4863 16.156 53.3103 14.908 53.3103 13.024ZM59.908 13.024C59.908 11.176 61.24 9.904 63.076 9.904C64.912 9.904 66.244 11.176 66.244 13.024C66.244 14.872 64.912 16.144 63.076 16.144C61.24 16.144 59.908 14.872 59.908 13.024ZM61.372 13.024C61.372 14.104 62.068 14.836 63.076 14.836C64.084 14.836 64.78 14.104 64.78 13.024C64.78 11.944 64.084 11.212 63.076 11.212C62.068 11.212 61.372 11.944 61.372 13.024ZM69.8404 16.156C68.1244 16.156 67.0564 14.896 67.0564 13.06C67.0564 11.212 68.1364 9.892 69.9244 9.892C70.7524 9.892 71.4844 10.24 71.8564 10.828V7.072H73.3084V16H71.9644L71.8684 15.076C71.5084 15.76 70.7404 16.156 69.8404 16.156ZM70.1644 14.812C71.1844 14.812 71.8444 14.08 71.8444 13.012C71.8444 11.944 71.1844 11.2 70.1644 11.2C69.1444 11.2 68.5204 11.956 68.5204 13.012C68.5204 14.068 69.1444 14.812 70.1644 14.812ZM77.4861 16.156C75.7221 16.156 74.4861 14.872 74.4861 13.036C74.4861 11.176 75.6981 9.892 77.4381 9.892C79.2141 9.892 80.3421 11.08 80.3421 12.928V13.372L75.8781 13.384C75.9861 14.428 76.5381 14.956 77.5101 14.956C78.3141 14.956 78.8421 14.644 79.0101 14.08H80.3661C80.1141 15.376 79.0341 16.156 77.4861 16.156ZM77.4501 11.092C76.5861 11.092 76.0581 11.56 75.9141 12.448H78.8901C78.8901 11.632 78.3261 11.092 77.4501 11.092Z" fill="black"/>
</svg>
