<svg width="101" height="24" viewBox="0 0 101 24" fill="none" xmlns="http://www.w3.org/2000/svg">
<path opacity="0.4" d="M20.57 11.0099C19.81 10.0999 18.81 9.48994 17.67 9.23994C17.42 8.08994 16.96 7.08994 16.31 6.26994C16.29 6.23994 16.27 6.20994 16.25 6.18994C14.06 3.53994 10.47 3.54994 8.05004 4.91994C5.98004 6.09994 4.22004 8.58994 5.14004 12.1599C3.02004 12.6799 2.04004 14.5299 2.04004 16.1999C2.04004 18.0699 3.26004 20.1799 5.99004 20.3699H16.29C16.3 20.3699 16.32 20.3699 16.33 20.3699C17.75 20.3699 19.1 19.8499 20.14 18.8899C22.66 16.6899 22.33 13.0799 20.57 11.0099Z" fill="#1A1A1A"/>
<path d="M21.27 8.75977C21.27 9.77977 20.8 10.6998 20.04 11.2998C19.49 11.7498 18.78 12.0198 18.01 12.0198C16.22 12.0198 14.76 10.5598 14.76 8.76977C14.76 7.87977 15.12 7.06977 15.72 6.47977V6.46977C16.31 5.87977 17.12 5.50977 18.01 5.50977C19.81 5.50977 21.27 6.96977 21.27 8.75977Z" fill="#1A1A1A"/>
<path d="M38.68 16.144C36.124 16.144 34.468 14.368 34.468 11.62C34.468 8.896 36.184 7.084 38.752 7.084C40.828 7.084 42.376 8.296 42.676 10.18H41.056C40.756 9.16 39.88 8.56 38.716 8.56C37.096 8.56 36.076 9.736 36.076 11.608C36.076 13.468 37.108 14.668 38.716 14.668C39.904 14.668 40.816 14.044 41.104 13.072H42.7C42.364 14.92 40.756 16.144 38.68 16.144ZM45.2789 16H43.8269V7.072H45.2789V16ZM46.4666 13.024C46.4666 11.176 47.7986 9.904 49.6346 9.904C51.4706 9.904 52.8026 11.176 52.8026 13.024C52.8026 14.872 51.4706 16.144 49.6346 16.144C47.7986 16.144 46.4666 14.872 46.4666 13.024ZM47.9306 13.024C47.9306 14.104 48.6266 14.836 49.6346 14.836C50.6426 14.836 51.3386 14.104 51.3386 13.024C51.3386 11.944 50.6426 11.212 49.6346 11.212C48.6266 11.212 47.9306 11.944 47.9306 13.024ZM57.8424 10.072H59.3064V16H57.9504L57.8424 15.208C57.4824 15.772 56.7144 16.156 55.9224 16.156C54.5544 16.156 53.7504 15.232 53.7504 13.78V10.072H55.2144V13.264C55.2144 14.392 55.6584 14.848 56.4744 14.848C57.3984 14.848 57.8424 14.308 57.8424 13.18V10.072ZM63.1373 16.156C61.4213 16.156 60.3533 14.896 60.3533 13.06C60.3533 11.212 61.4333 9.892 63.2213 9.892C64.0493 9.892 64.7813 10.24 65.1533 10.828V7.072H66.6053V16H65.2613L65.1653 15.076C64.8053 15.76 64.0373 16.156 63.1373 16.156ZM63.4613 14.812C64.4813 14.812 65.1413 14.08 65.1413 13.012C65.1413 11.944 64.4813 11.2 63.4613 11.2C62.4413 11.2 61.8173 11.956 61.8173 13.012C61.8173 14.068 62.4413 14.812 63.4613 14.812ZM68.119 13.444V12.148H71.983V13.444H68.119ZM74.9388 16H73.4748V10.072H74.8308L74.9508 10.84C75.3228 10.24 76.0428 9.892 76.8468 9.892C78.3348 9.892 79.1028 10.816 79.1028 12.352V16H77.6388V12.7C77.6388 11.704 77.1468 11.224 76.3908 11.224C75.4908 11.224 74.9388 11.848 74.9388 12.808V16ZM80.1932 13.024C80.1932 11.176 81.5252 9.904 83.3612 9.904C85.1972 9.904 86.5292 11.176 86.5292 13.024C86.5292 14.872 85.1972 16.144 83.3612 16.144C81.5252 16.144 80.1932 14.872 80.1932 13.024ZM81.6572 13.024C81.6572 14.104 82.3532 14.836 83.3612 14.836C84.3692 14.836 85.0652 14.104 85.0652 13.024C85.0652 11.944 84.3692 11.212 83.3612 11.212C82.3532 11.212 81.6572 11.944 81.6572 13.024ZM89.647 16H88.183V11.296H87.043V10.072H88.183V8.224H89.647V10.072H90.799V11.296H89.647V16ZM92.4411 8.884C91.9371 8.884 91.5411 8.488 91.5411 7.996C91.5411 7.504 91.9371 7.12 92.4411 7.12C92.9211 7.12 93.3171 7.504 93.3171 7.996C93.3171 8.488 92.9211 8.884 92.4411 8.884ZM91.7091 16V10.072H93.1731V16H91.7091ZM94.0977 10.072H94.9497V9.352C94.9497 7.744 95.8017 7.072 97.0857 7.072C97.3137 7.072 97.5897 7.084 97.8417 7.132V8.38H97.3257C96.5817 8.38 96.4017 8.764 96.4017 9.352V10.072H97.8177V11.296H96.4017V16H94.9497V11.296H94.0977V10.072Z" fill="black"/>
</svg>
