<svg width="149" height="24" viewBox="0 0 149 24" fill="none" xmlns="http://www.w3.org/2000/svg">
<path opacity="0.4" d="M22 7.81V16.19C22 19.83 19.83 22 16.19 22H7.81C7.61 22 7.41 21.99 7.22 21.98C5.99 21.9 4.95 21.55 4.13 20.95C3.71 20.66 3.34 20.29 3.05 19.87C2.36 18.92 2 17.68 2 16.19V7.81C2 4.37 3.94 2.24 7.22 2.03C7.41 2.01 7.61 2 7.81 2H16.19C17.68 2 18.92 2.36 19.87 3.05C20.29 3.34 20.66 3.71 20.95 4.13C21.64 5.08 22 6.32 22 7.81Z" fill="#1A1A1A"/>
<path d="M15.8696 6.01001H10.4896C10.0796 6.01001 9.73965 6.35001 9.73965 6.76001C9.73965 7.17001 10.0796 7.51001 10.4896 7.51001H12.3796L10.1396 16.48H8.13965C7.72965 16.48 7.38965 16.82 7.38965 17.23C7.38965 17.64 7.72965 17.98 8.13965 17.98H13.5196C13.9296 17.98 14.2696 17.64 14.2696 17.23C14.2696 16.82 13.9296 16.48 13.5196 16.48H11.6796L13.9196 7.51001H15.8696C16.2796 7.51001 16.6196 7.17001 16.6196 6.76001C16.6196 6.35001 16.2796 6.01001 15.8696 6.01001Z" fill="#1A1A1A"/>
<path d="M34.204 8.644V7.228H40.876V8.644H38.308V16H36.772V8.644H34.204ZM43.4783 16.156C41.7143 16.156 40.4783 14.872 40.4783 13.036C40.4783 11.176 41.6903 9.892 43.4303 9.892C45.2063 9.892 46.3343 11.08 46.3343 12.928V13.372L41.8703 13.384C41.9783 14.428 42.5303 14.956 43.5023 14.956C44.3063 14.956 44.8343 14.644 45.0023 14.08H46.3583C46.1063 15.376 45.0263 16.156 43.4783 16.156ZM43.4423 11.092C42.5783 11.092 42.0503 11.56 41.9063 12.448H44.8823C44.8823 11.632 44.3183 11.092 43.4423 11.092ZM48.2685 16H46.6005L48.6405 13.096L46.6005 10.072H48.3045L49.6125 12.088L50.8725 10.072H52.5165L50.5005 13.072L52.4565 16H50.7765L49.5165 14.044L48.2685 16ZM55.6392 16H54.1752V11.296H53.0352V10.072H54.1752V8.224H55.6392V10.072H56.7912V11.296H55.6392V16ZM57.4549 13.444V12.148H61.3189V13.444H57.4549ZM63.5427 8.884C63.0387 8.884 62.6427 8.488 62.6427 7.996C62.6427 7.504 63.0387 7.12 63.5427 7.12C64.0227 7.12 64.4187 7.504 64.4187 7.996C64.4187 8.488 64.0227 8.884 63.5427 8.884ZM62.8107 16V10.072H64.2747V16H62.8107ZM67.8033 16H66.3393V11.296H65.1993V10.072H66.3393V8.224H67.8033V10.072H68.9553V11.296H67.8033V16ZM71.5942 16.156C70.3342 16.156 69.5662 15.424 69.5662 14.308C69.5662 13.216 70.3582 12.532 71.7622 12.424L73.5382 12.292V12.16C73.5382 11.356 73.0582 11.032 72.3142 11.032C71.4502 11.032 70.9702 11.392 70.9702 12.016H69.7222C69.7222 10.732 70.7782 9.892 72.3862 9.892C73.9822 9.892 74.9662 10.756 74.9662 12.4V16H73.6822L73.5742 15.124C73.3222 15.736 72.5182 16.156 71.5942 16.156ZM72.0742 15.052C72.9742 15.052 73.5502 14.512 73.5502 13.6V13.288L72.3142 13.384C71.4022 13.468 71.0542 13.768 71.0542 14.248C71.0542 14.788 71.4142 15.052 72.0742 15.052ZM77.8804 16H76.4284V7.072H77.8804V16ZM80.1482 8.884C79.6442 8.884 79.2482 8.488 79.2482 7.996C79.2482 7.504 79.6442 7.12 80.1482 7.12C80.6282 7.12 81.0242 7.504 81.0242 7.996C81.0242 8.488 80.6282 8.884 80.1482 8.884ZM79.4162 16V10.072H80.8802V16H79.4162ZM82.0447 13.024C82.0447 11.188 83.2567 9.892 85.0087 9.892C86.6287 9.892 87.7327 10.792 87.8887 12.22H86.4247C86.2567 11.548 85.7647 11.2 85.0687 11.2C84.1327 11.2 83.5087 11.908 83.5087 13.024C83.5087 14.14 84.0847 14.836 85.0207 14.836C85.7527 14.836 86.2687 14.476 86.4247 13.828H87.9007C87.7207 15.208 86.5687 16.156 85.0207 16.156C83.2207 16.156 82.0447 14.908 82.0447 13.024Z" fill="black"/>
</svg>
