<svg width="101" height="24" viewBox="0 0 101 24" fill="none" xmlns="http://www.w3.org/2000/svg">
<path d="M12 13.75C11.59 13.75 11.25 13.41 11.25 13V8C11.25 7.59 11.59 7.25 12 7.25C12.41 7.25 12.75 7.59 12.75 8V13C12.75 13.41 12.41 13.75 12 13.75Z" fill="#1A1A1A"/>
<path d="M14.8896 3.45H9.10965C8.70965 3.45 8.38965 3.13 8.38965 2.73C8.38965 2.33 8.70965 2 9.10965 2H14.8896C15.2896 2 15.6096 2.32 15.6096 2.72C15.6096 3.12 15.2896 3.45 14.8896 3.45Z" fill="#1A1A1A"/>
<path opacity="0.4" d="M15.0001 19.9702V17.0302C15.0001 15.7602 15.7601 15.0002 17.0301 15.0002H19.9701C20.1601 15.0002 20.3301 15.0202 20.5001 15.0602C20.6101 14.5002 20.6701 13.9202 20.6701 13.3302C20.6701 8.55016 16.7801 4.66016 12.0001 4.66016C7.22008 4.66016 3.33008 8.55016 3.33008 13.3302C3.33008 18.1102 7.22008 22.0002 12.0001 22.0002C13.2101 22.0002 14.3601 21.7502 15.4101 21.3002C15.1501 20.9602 15.0001 20.5202 15.0001 19.9702Z" fill="#1A1A1A"/>
<path d="M19.97 15H17.03C15.76 15 15 15.76 15 17.03V19.97C15 21.24 15.76 22 17.03 22H19.97C21.24 22 22 21.24 22 19.97V17.03C22 15.76 21.24 15 19.97 15ZM19.69 19.46L18.51 20.14C18.27 20.28 18.03 20.35 17.81 20.35C17.64 20.35 17.49 20.31 17.35 20.23C17.03 20.04 16.85 19.67 16.85 19.18V17.82C16.85 17.33 17.03 16.96 17.35 16.77C17.67 16.58 18.08 16.62 18.51 16.86L19.69 17.54C20.11 17.79 20.35 18.13 20.35 18.5C20.35 18.87 20.12 19.21 19.69 19.46Z" fill="#1A1A1A"/>
<path d="M34.204 8.644V7.228H40.876V8.644H38.308V16H36.772V8.644H34.204ZM42.5661 8.884C42.0621 8.884 41.6661 8.488 41.6661 7.996C41.6661 7.504 42.0621 7.12 42.5661 7.12C43.0461 7.12 43.4421 7.504 43.4421 7.996C43.4421 8.488 43.0461 8.884 42.5661 8.884ZM41.8341 16V10.072H43.2981V16H41.8341ZM46.2747 16H44.8107V10.072H46.1547L46.2747 10.768C46.5747 10.276 47.1747 9.892 48.0267 9.892C48.9267 9.892 49.5507 10.336 49.8627 11.02C50.1627 10.336 50.8587 9.892 51.7587 9.892C53.1987 9.892 53.9907 10.756 53.9907 12.124V16H52.5387V12.508C52.5387 11.656 52.0827 11.212 51.3867 11.212C50.6787 11.212 50.1387 11.668 50.1387 12.64V16H48.6747V12.496C48.6747 11.668 48.2307 11.224 47.5347 11.224C46.8387 11.224 46.2747 11.68 46.2747 12.64V16ZM58.0799 16.156C56.3159 16.156 55.0799 14.872 55.0799 13.036C55.0799 11.176 56.2919 9.892 58.0319 9.892C59.8079 9.892 60.9359 11.08 60.9359 12.928V13.372L56.4719 13.384C56.5799 14.428 57.1319 14.956 58.1039 14.956C58.9079 14.956 59.4359 14.644 59.6039 14.08H60.9599C60.7079 15.376 59.6279 16.156 58.0799 16.156ZM58.0439 11.092C57.1799 11.092 56.6519 11.56 56.5079 12.448H59.4839C59.4839 11.632 58.9199 11.092 58.0439 11.092ZM65.8276 10.048V11.404H65.2876C64.2316 11.404 63.5716 11.968 63.5716 13.12V16H62.1076V10.084H63.4876L63.5716 10.948C63.8236 10.36 64.3876 9.964 65.1796 9.964C65.3836 9.964 65.5876 9.988 65.8276 10.048ZM66.3729 13.444V12.148H70.2369V13.444H66.3729ZM71.1906 14.2H72.5826C72.5946 14.716 72.9786 15.04 73.6506 15.04C74.3346 15.04 74.7066 14.764 74.7066 14.332C74.7066 14.032 74.5506 13.816 74.0226 13.696L72.9546 13.444C71.8866 13.204 71.3706 12.7 71.3706 11.752C71.3706 10.588 72.3546 9.892 73.7226 9.892C75.0546 9.892 75.9546 10.66 75.9666 11.812H74.5746C74.5626 11.308 74.2266 10.984 73.6626 10.984C73.0866 10.984 72.7506 11.248 72.7506 11.692C72.7506 12.028 73.0146 12.244 73.5186 12.364L74.5866 12.616C75.5826 12.844 76.0866 13.3 76.0866 14.212C76.0866 15.412 75.0666 16.156 73.6026 16.156C72.1266 16.156 71.1906 15.364 71.1906 14.2ZM79.2173 16H77.7533V11.296H76.6133V10.072H77.7533V8.224H79.2173V10.072H80.3693V11.296H79.2173V16ZM83.0083 16.156C81.7483 16.156 80.9803 15.424 80.9803 14.308C80.9803 13.216 81.7723 12.532 83.1763 12.424L84.9523 12.292V12.16C84.9523 11.356 84.4723 11.032 83.7283 11.032C82.8643 11.032 82.3843 11.392 82.3843 12.016H81.1363C81.1363 10.732 82.1923 9.892 83.8003 9.892C85.3963 9.892 86.3803 10.756 86.3803 12.4V16H85.0963L84.9883 15.124C84.7363 15.736 83.9323 16.156 83.0083 16.156ZM83.4883 15.052C84.3883 15.052 84.9643 14.512 84.9643 13.6V13.288L83.7283 13.384C82.8163 13.468 82.4683 13.768 82.4683 14.248C82.4683 14.788 82.8283 15.052 83.4883 15.052ZM91.5385 10.048V11.404H90.9985C89.9425 11.404 89.2825 11.968 89.2825 13.12V16H87.8185V10.084H89.1985L89.2825 10.948C89.5345 10.36 90.0985 9.964 90.8905 9.964C91.0945 9.964 91.2985 9.988 91.5385 10.048ZM94.7798 16H93.3158V11.296H92.1758V10.072H93.3158V8.224H94.7798V10.072H95.9318V11.296H94.7798V16Z" fill="black"/>
</svg>
