<svg width="101" height="24" viewBox="0 0 101 24" fill="none" xmlns="http://www.w3.org/2000/svg">
<path opacity="0.4" d="M16.1898 2H7.81976C4.17976 2 2.00977 4.17 2.00977 7.81V16.18C2.00977 19.82 4.17976 21.99 7.81976 21.99H16.1898C19.8298 21.99 21.9998 19.82 21.9998 16.18V7.81C21.9998 4.17 19.8298 2 16.1898 2Z" fill="#1A1A1A"/>
<path d="M14.1702 11.99L17.7702 9.30005C18.1002 9.05005 18.1702 8.58005 17.9202 8.25005C17.6702 7.92005 17.2002 7.85004 16.8702 8.10004L12.9202 11.05L10.5202 9.25005C10.5302 9.16005 10.5502 9.07005 10.5502 8.97005C10.5502 7.70005 9.52018 6.67004 8.25018 6.67004C6.98018 6.67004 5.9502 7.70005 5.9502 8.97005C5.9502 10.24 6.98018 11.27 8.25018 11.27C8.87018 11.27 9.43016 11.02 9.85016 10.62L11.6802 11.99L9.84021 13.37C9.43021 12.98 8.87019 12.73 8.26019 12.73C6.99019 12.73 5.96021 13.76 5.96021 15.03C5.96021 16.3 6.99019 17.33 8.26019 17.33C9.53019 17.33 10.5602 16.3 10.5602 15.03C10.5602 14.93 10.5402 14.83 10.5302 14.73L12.9402 12.93L16.8902 15.88C17.0202 15.98 17.1802 16.03 17.3402 16.03C17.5702 16.03 17.7902 15.93 17.9402 15.73C18.1902 15.4 18.1202 14.93 17.7902 14.68L14.1702 11.99Z" fill="#1A1A1A"/>
<path d="M34.468 9.676C34.468 8.14 35.74 7.072 37.588 7.072C39.364 7.072 40.492 8.056 40.54 9.64H39.004C38.968 8.884 38.428 8.44 37.564 8.44C36.616 8.44 36.004 8.896 36.004 9.628C36.004 10.252 36.34 10.6 37.072 10.768L38.452 11.068C39.952 11.392 40.684 12.16 40.684 13.468C40.684 15.1 39.412 16.156 37.48 16.156C35.608 16.156 34.384 15.16 34.348 13.588H35.884C35.896 14.332 36.496 14.776 37.48 14.776C38.5 14.776 39.148 14.332 39.148 13.6C39.148 13.012 38.848 12.664 38.128 12.508L36.736 12.196C35.248 11.872 34.468 11.02 34.468 9.676ZM41.5096 13.024C41.5096 11.188 42.7216 9.892 44.4736 9.892C46.0936 9.892 47.1976 10.792 47.3536 12.22H45.8896C45.7216 11.548 45.2296 11.2 44.5336 11.2C43.5976 11.2 42.9736 11.908 42.9736 13.024C42.9736 14.14 43.5496 14.836 44.4856 14.836C45.2176 14.836 45.7336 14.476 45.8896 13.828H47.3656C47.1856 15.208 46.0336 16.156 44.4856 16.156C42.6856 16.156 41.5096 14.908 41.5096 13.024ZM49.1872 8.884C48.6832 8.884 48.2872 8.488 48.2872 7.996C48.2872 7.504 48.6832 7.12 49.1872 7.12C49.6672 7.12 50.0632 7.504 50.0632 7.996C50.0632 8.488 49.6672 8.884 49.1872 8.884ZM48.4552 16V10.072H49.9192V16H48.4552ZM50.9758 14.2H52.3678C52.3798 14.716 52.7638 15.04 53.4358 15.04C54.1198 15.04 54.4918 14.764 54.4918 14.332C54.4918 14.032 54.3358 13.816 53.8078 13.696L52.7398 13.444C51.6718 13.204 51.1558 12.7 51.1558 11.752C51.1558 10.588 52.1398 9.892 53.5078 9.892C54.8398 9.892 55.7398 10.66 55.7518 11.812H54.3598C54.3478 11.308 54.0118 10.984 53.4478 10.984C52.8718 10.984 52.5358 11.248 52.5358 11.692C52.5358 12.028 52.7998 12.244 53.3038 12.364L54.3718 12.616C55.3678 12.844 55.8718 13.3 55.8718 14.212C55.8718 15.412 54.8518 16.156 53.3878 16.156C51.9118 16.156 50.9758 15.364 50.9758 14.2ZM56.5305 14.2H57.9225C57.9345 14.716 58.3185 15.04 58.9905 15.04C59.6745 15.04 60.0465 14.764 60.0465 14.332C60.0465 14.032 59.8905 13.816 59.3625 13.696L58.2945 13.444C57.2265 13.204 56.7105 12.7 56.7105 11.752C56.7105 10.588 57.6945 9.892 59.0625 9.892C60.3945 9.892 61.2945 10.66 61.3065 11.812H59.9145C59.9025 11.308 59.5665 10.984 59.0025 10.984C58.4265 10.984 58.0905 11.248 58.0905 11.692C58.0905 12.028 58.3545 12.244 58.8585 12.364L59.9265 12.616C60.9225 12.844 61.4265 13.3 61.4265 14.212C61.4265 15.412 60.4065 16.156 58.9425 16.156C57.4665 16.156 56.5305 15.364 56.5305 14.2ZM62.1932 13.024C62.1932 11.176 63.5252 9.904 65.3612 9.904C67.1972 9.904 68.5292 11.176 68.5292 13.024C68.5292 14.872 67.1972 16.144 65.3612 16.144C63.5252 16.144 62.1932 14.872 62.1932 13.024ZM63.6572 13.024C63.6572 14.104 64.3532 14.836 65.3612 14.836C66.3692 14.836 67.0652 14.104 67.0652 13.024C67.0652 11.944 66.3692 11.212 65.3612 11.212C64.3532 11.212 63.6572 11.944 63.6572 13.024ZM73.4096 10.048V11.404H72.8696C71.8136 11.404 71.1536 11.968 71.1536 13.12V16H69.6896V10.084H71.0696L71.1536 10.948C71.4056 10.36 71.9696 9.964 72.7616 9.964C72.9656 9.964 73.1696 9.988 73.4096 10.048Z" fill="black"/>
</svg>
