<svg width="96" height="24" viewBox="0 0 96 24" fill="none" xmlns="http://www.w3.org/2000/svg">
<path opacity="0.4" d="M16.19 2H7.81C4.17 2 2 4.17 2 7.81V16.18C2 19.83 4.17 22 7.81 22H16.18C19.82 22 21.99 19.83 21.99 16.19V7.81C22 4.17 19.83 2 16.19 2Z" fill="#1A1A1A"/>
<path d="M9.6002 15.7799C9.4102 15.7799 9.2202 15.7099 9.07019 15.5599L6.5802 13.0699C5.9902 12.4799 5.9902 11.5299 6.5802 10.9399L9.07019 8.44992C9.36019 8.15992 9.8402 8.15992 10.1302 8.44992C10.4202 8.73992 10.4202 9.21992 10.1302 9.50992L7.6402 11.9999L10.1302 14.4999C10.4202 14.7899 10.4202 15.2699 10.1302 15.5599C9.9802 15.6999 9.7902 15.7799 9.6002 15.7799Z" fill="#1A1A1A"/>
<path d="M14.3998 15.7802C14.2098 15.7802 14.0198 15.7102 13.8698 15.5602C13.5798 15.2702 13.5798 14.7902 13.8698 14.5002L16.3598 12.0002L13.8698 9.50016C13.5798 9.21016 13.5798 8.73016 13.8698 8.44016C14.1598 8.15016 14.6398 8.15016 14.9298 8.44016L17.4198 10.9302C18.0098 11.5202 18.0098 12.4702 17.4198 13.0602L14.9298 15.5502C14.7898 15.7002 14.5898 15.7802 14.3998 15.7802Z" fill="#1A1A1A"/>
<path d="M34.468 9.676C34.468 8.14 35.74 7.072 37.588 7.072C39.364 7.072 40.492 8.056 40.54 9.64H39.004C38.968 8.884 38.428 8.44 37.564 8.44C36.616 8.44 36.004 8.896 36.004 9.628C36.004 10.252 36.34 10.6 37.072 10.768L38.452 11.068C39.952 11.392 40.684 12.16 40.684 13.468C40.684 15.1 39.412 16.156 37.48 16.156C35.608 16.156 34.384 15.16 34.348 13.588H35.884C35.896 14.332 36.496 14.776 37.48 14.776C38.5 14.776 39.148 14.332 39.148 13.6C39.148 13.012 38.848 12.664 38.128 12.508L36.736 12.196C35.248 11.872 34.468 11.02 34.468 9.676ZM41.5096 13.024C41.5096 11.188 42.7216 9.892 44.4736 9.892C46.0936 9.892 47.1976 10.792 47.3536 12.22H45.8896C45.7216 11.548 45.2296 11.2 44.5336 11.2C43.5976 11.2 42.9736 11.908 42.9736 13.024C42.9736 14.14 43.5496 14.836 44.4856 14.836C45.2176 14.836 45.7336 14.476 45.8896 13.828H47.3656C47.1856 15.208 46.0336 16.156 44.4856 16.156C42.6856 16.156 41.5096 14.908 41.5096 13.024ZM52.1752 10.048V11.404H51.6352C50.5792 11.404 49.9192 11.968 49.9192 13.12V16H48.4552V10.084H49.8352L49.9192 10.948C50.1712 10.36 50.7352 9.964 51.5272 9.964C51.7312 9.964 51.9352 9.988 52.1752 10.048ZM52.6189 13.024C52.6189 11.176 53.9509 9.904 55.7869 9.904C57.6229 9.904 58.9549 11.176 58.9549 13.024C58.9549 14.872 57.6229 16.144 55.7869 16.144C53.9509 16.144 52.6189 14.872 52.6189 13.024ZM54.0829 13.024C54.0829 14.104 54.7789 14.836 55.7869 14.836C56.7949 14.836 57.4909 14.104 57.4909 13.024C57.4909 11.944 56.7949 11.212 55.7869 11.212C54.7789 11.212 54.0829 11.944 54.0829 13.024ZM61.5914 16H60.1394V7.072H61.5914V16ZM64.6031 16H63.1511V7.072H64.6031V16Z" fill="black"/>
</svg>
