<svg width="114" height="24" viewBox="0 0 114 24" fill="none" xmlns="http://www.w3.org/2000/svg">
<path opacity="0.4" d="M16.19 2H7.82001C4.17001 2 2 4.17 2 7.81V16.18C2 19.82 4.17 21.99 7.81 21.99H16.18C19.82 21.99 21.99 19.82 21.99 16.18V7.81C22 4.17 19.83 2 16.19 2Z" fill="#1A1A1A"/>
<path opacity="0.6" d="M13.2 14.3999C13.2 15.4599 12.74 16.4199 12 17.0799C11.36 17.6599 10.52 17.9999 9.59998 17.9999C7.60998 17.9999 6 16.3899 6 14.3999C6 12.7399 7.13002 11.3399 8.65002 10.9299C9.06002 11.9699 9.94999 12.7799 11.05 13.0799C11.35 13.1599 11.67 13.2099 12 13.2099C12.33 13.2099 12.65 13.1699 12.95 13.0799C13.11 13.4799 13.2 13.9299 13.2 14.3999Z" fill="#1A1A1A"/>
<path d="M15.6003 9.6C15.6003 10.07 15.5103 10.52 15.3503 10.93C14.9403 11.97 14.0504 12.78 12.9504 13.08C12.6504 13.16 12.3304 13.21 12.0004 13.21C11.6704 13.21 11.3504 13.17 11.0504 13.08C9.95035 12.78 9.06039 11.98 8.65039 10.93C8.49039 10.52 8.40039 10.07 8.40039 9.6C8.40039 7.61 10.0104 6 12.0004 6C13.9904 6 15.6003 7.61 15.6003 9.6Z" fill="#1A1A1A"/>
<path opacity="0.4" d="M18 14.3999C18 16.3899 16.39 17.9999 14.4 17.9999C13.48 17.9999 12.64 17.6499 12 17.0799C12.74 16.4299 13.2 15.4699 13.2 14.3999C13.2 13.9299 13.11 13.4799 12.95 13.0699C14.05 12.7699 14.94 11.9699 15.35 10.9199C16.87 11.3399 18 12.7399 18 14.3999Z" fill="#1A1A1A"/>
<path d="M38.68 17.144C36.124 17.144 34.468 15.368 34.468 12.62C34.468 9.896 36.184 8.084 38.752 8.084C40.828 8.084 42.376 9.296 42.676 11.18H41.056C40.756 10.16 39.88 9.56 38.716 9.56C37.096 9.56 36.076 10.736 36.076 12.608C36.076 14.468 37.108 15.668 38.716 15.668C39.904 15.668 40.816 15.044 41.104 14.072H42.7C42.364 15.92 40.756 17.144 38.68 17.144ZM43.5135 14.024C43.5135 12.176 44.8455 10.904 46.6815 10.904C48.5175 10.904 49.8495 12.176 49.8495 14.024C49.8495 15.872 48.5175 17.144 46.6815 17.144C44.8455 17.144 43.5135 15.872 43.5135 14.024ZM44.9775 14.024C44.9775 15.104 45.6735 15.836 46.6815 15.836C47.6895 15.836 48.3855 15.104 48.3855 14.024C48.3855 12.944 47.6895 12.212 46.6815 12.212C45.6735 12.212 44.9775 12.944 44.9775 14.024ZM52.4859 17H51.0339V8.072H52.4859V17ZM53.6736 14.024C53.6736 12.176 55.0056 10.904 56.8416 10.904C58.6776 10.904 60.0096 12.176 60.0096 14.024C60.0096 15.872 58.6776 17.144 56.8416 17.144C55.0056 17.144 53.6736 15.872 53.6736 14.024ZM55.1376 14.024C55.1376 15.104 55.8336 15.836 56.8416 15.836C57.8496 15.836 58.5456 15.104 58.5456 14.024C58.5456 12.944 57.8496 12.212 56.8416 12.212C55.8336 12.212 55.1376 12.944 55.1376 14.024ZM64.8901 11.048V12.404H64.3501C63.2941 12.404 62.6341 12.968 62.6341 14.12V17H61.1701V11.084H62.5501L62.6341 11.948C62.8861 11.36 63.4501 10.964 64.2421 10.964C64.4461 10.964 64.6501 10.988 64.8901 11.048ZM65.425 15.2H66.817C66.829 15.716 67.213 16.04 67.885 16.04C68.569 16.04 68.941 15.764 68.941 15.332C68.941 15.032 68.785 14.816 68.257 14.696L67.189 14.444C66.121 14.204 65.605 13.7 65.605 12.752C65.605 11.588 66.589 10.892 67.957 10.892C69.289 10.892 70.189 11.66 70.201 12.812H68.809C68.797 12.308 68.461 11.984 67.897 11.984C67.321 11.984 66.985 12.248 66.985 12.692C66.985 13.028 67.249 13.244 67.753 13.364L68.821 13.616C69.817 13.844 70.321 14.3 70.321 15.212C70.321 16.412 69.301 17.156 67.837 17.156C66.361 17.156 65.425 16.364 65.425 15.2ZM71.2713 14.444V13.148H75.1353V14.444H71.2713ZM76.0891 15.2H77.4811C77.4931 15.716 77.8771 16.04 78.5491 16.04C79.2331 16.04 79.6051 15.764 79.6051 15.332C79.6051 15.032 79.4491 14.816 78.9211 14.696L77.8531 14.444C76.7851 14.204 76.2691 13.7 76.2691 12.752C76.2691 11.588 77.2531 10.892 78.6211 10.892C79.9531 10.892 80.8531 11.66 80.8651 12.812H79.4731C79.4611 12.308 79.1251 11.984 78.5611 11.984C77.9851 11.984 77.6491 12.248 77.6491 12.692C77.6491 13.028 77.9131 13.244 78.4171 13.364L79.4851 13.616C80.4811 13.844 80.9851 14.3 80.9851 15.212C80.9851 16.412 79.9651 17.156 78.5011 17.156C77.0251 17.156 76.0891 16.364 76.0891 15.2ZM81.7518 13.964C81.7518 12.104 82.8558 10.892 84.5238 10.892C85.4238 10.892 86.2038 11.288 86.5638 11.972L86.6598 11.072H88.0038V19.748H86.5518V16.208C86.1798 16.808 85.3998 17.156 84.5238 17.156C82.7598 17.156 81.7518 15.812 81.7518 13.964ZM83.2158 14.036C83.2158 15.092 83.8398 15.836 84.8598 15.836C85.8798 15.836 86.5398 15.104 86.5398 14.036C86.5398 12.968 85.8798 12.224 84.8598 12.224C83.8398 12.224 83.2158 12.98 83.2158 14.036ZM93.5494 11.072H95.0134V17H93.6574L93.5494 16.208C93.1894 16.772 92.4214 17.156 91.6294 17.156C90.2614 17.156 89.4574 16.232 89.4574 14.78V11.072H90.9214V14.264C90.9214 15.392 91.3654 15.848 92.1814 15.848C93.1054 15.848 93.5494 15.308 93.5494 14.18V11.072ZM98.2895 17.156C97.0295 17.156 96.2615 16.424 96.2615 15.308C96.2615 14.216 97.0535 13.532 98.4575 13.424L100.234 13.292V13.16C100.234 12.356 99.7535 12.032 99.0095 12.032C98.1455 12.032 97.6655 12.392 97.6655 13.016H96.4175C96.4175 11.732 97.4735 10.892 99.0815 10.892C100.678 10.892 101.662 11.756 101.662 13.4V17H100.378L100.27 16.124C100.018 16.736 99.2135 17.156 98.2895 17.156ZM98.7695 16.052C99.6695 16.052 100.246 15.512 100.246 14.6V14.288L99.0095 14.384C98.0975 14.468 97.7495 14.768 97.7495 15.248C97.7495 15.788 98.1095 16.052 98.7695 16.052ZM106.82 11.048V12.404H106.28C105.224 12.404 104.564 12.968 104.564 14.12V17H103.1V11.084H104.48L104.564 11.948C104.816 11.36 105.38 10.964 106.172 10.964C106.376 10.964 106.58 10.988 106.82 11.048ZM110.263 17.156C108.499 17.156 107.263 15.872 107.263 14.036C107.263 12.176 108.475 10.892 110.215 10.892C111.991 10.892 113.119 12.08 113.119 13.928V14.372L108.655 14.384C108.763 15.428 109.315 15.956 110.287 15.956C111.091 15.956 111.619 15.644 111.787 15.08H113.143C112.891 16.376 111.811 17.156 110.263 17.156ZM110.227 12.092C109.363 12.092 108.835 12.56 108.691 13.448H111.667C111.667 12.632 111.103 12.092 110.227 12.092Z" fill="black"/>
</svg>
