<svg width="147" height="24" viewBox="0 0 147 24" fill="none" xmlns="http://www.w3.org/2000/svg">
<path opacity="0.4" d="M12 22C17.5228 22 22 17.5228 22 12C22 6.47715 17.5228 2 12 2C6.47715 2 2 6.47715 2 12C2 17.5228 6.47715 22 12 22Z" fill="#1A1A1A"/>
<path d="M16.748 7H11.918C11.508 7 11.168 7.34 11.168 7.75C11.168 8.16 11.508 8.5 11.918 8.5H14.938L7.21799 16.22C6.92799 16.51 6.92799 16.99 7.21799 17.28C7.36799 17.43 7.55799 17.5 7.74799 17.5C7.93799 17.5 8.12799 17.43 8.27799 17.28L15.998 9.56V12.58C15.998 12.99 16.338 13.33 16.748 13.33C17.158 13.33 17.498 12.99 17.498 12.58V7.75C17.498 7.34 17.158 7 16.748 7Z" fill="#1A1A1A"/>
<path d="M40.42 16H34.972V7.228H40.42V8.644H36.508V10.9H40.012V12.256H36.508V14.584H40.42V16ZM42.9013 16H41.2333L43.2733 13.096L41.2333 10.072H42.9373L44.2453 12.088L45.5053 10.072H47.1493L45.1333 13.072L47.0893 16H45.4093L44.1493 14.044L42.9013 16ZM48.0216 18.748V10.072H49.3776L49.4736 10.972C49.8336 10.288 50.6136 9.892 51.5136 9.892C53.1816 9.892 54.2856 11.104 54.2856 12.964C54.2856 14.812 53.2776 16.156 51.5136 16.156C50.6256 16.156 49.8576 15.808 49.4856 15.208V18.748H48.0216ZM49.4976 13.036C49.4976 14.104 50.1576 14.836 51.1656 14.836C52.1976 14.836 52.8096 14.092 52.8096 13.036C52.8096 11.98 52.1976 11.224 51.1656 11.224C50.1576 11.224 49.4976 11.968 49.4976 13.036ZM55.1033 13.024C55.1033 11.176 56.4353 9.904 58.2713 9.904C60.1073 9.904 61.4393 11.176 61.4393 13.024C61.4393 14.872 60.1073 16.144 58.2713 16.144C56.4353 16.144 55.1033 14.872 55.1033 13.024ZM56.5673 13.024C56.5673 14.104 57.2633 14.836 58.2713 14.836C59.2793 14.836 59.9753 14.104 59.9753 13.024C59.9753 11.944 59.2793 11.212 58.2713 11.212C57.2633 11.212 56.5673 11.944 56.5673 13.024ZM66.3198 10.048V11.404H65.7798C64.7238 11.404 64.0638 11.968 64.0638 13.12V16H62.5998V10.084H63.9798L64.0638 10.948C64.3158 10.36 64.8798 9.964 65.6718 9.964C65.8758 9.964 66.0798 9.988 66.3198 10.048ZM69.5611 16H68.0971V11.296H66.9571V10.072H68.0971V8.224H69.5611V10.072H70.7131V11.296H69.5611V16ZM71.3768 13.444V12.148H75.2408V13.444H71.3768ZM79.1666 11.656H78.0986V10.66L80.3546 8.584H76.7066V7.228H82.2746V8.452L80.1386 10.42C81.4826 10.684 82.5266 11.668 82.5266 13.216C82.5266 15.016 81.1226 16.156 79.3466 16.156C77.6306 16.156 76.2986 15.1 76.2986 13.204H77.8106C77.8106 14.212 78.4346 14.788 79.3706 14.788C80.3306 14.788 80.9666 14.164 80.9666 13.192C80.9666 12.304 80.3906 11.656 79.1666 11.656Z" fill="black"/>
</svg>
