<svg width="132" height="24" viewBox="0 0 132 24" fill="none" xmlns="http://www.w3.org/2000/svg">
<path d="M20.9695 1H18.0295C16.7595 1 15.9995 1.76 15.9995 3.03V5.97C15.9995 7.24 16.7595 8 18.0295 8H20.9695C22.2395 8 22.9995 7.24 22.9995 5.97V3.03C22.9995 1.76 22.2395 1 20.9695 1ZM21.6095 4.68C21.2395 5.86 19.9495 6.5 19.4995 6.5C19.0495 6.5 17.7695 5.88 17.3895 4.68C17.3295 4.5 17.2995 4.3 17.2995 4.11C17.2995 3.46 17.6295 2.79 18.3195 2.57C18.7295 2.44 19.1695 2.51 19.4795 2.77C19.7995 2.52 20.2395 2.44 20.6595 2.57C21.5795 2.86 21.8695 3.89 21.6095 4.68Z" fill="#1A1A1A"/>
<path opacity="0.4" d="M20.97 8H18.03C16.76 8 16 7.24 16 5.97V3.03C16 2.63 16.08 2.29 16.22 2H7C4.24 2 2 4.23 2 6.98V12.96V13.96C2 16.71 4.24 18.94 7 18.94H8.5C8.77 18.94 9.13 19.12 9.3 19.34L10.8 21.33C11.46 22.21 12.54 22.21 13.2 21.33L14.7 19.34C14.89 19.09 15.19 18.94 15.5 18.94H17C19.76 18.94 22 16.71 22 13.96V7.77C21.71 7.92 21.37 8 20.97 8Z" fill="#1A1A1A"/>
<path d="M11.9995 12C11.4395 12 10.9995 11.55 10.9995 11C10.9995 10.45 11.4495 10 11.9995 10C12.5495 10 12.9995 10.45 12.9995 11C12.9995 11.55 12.5595 12 11.9995 12Z" fill="#1A1A1A"/>
<path d="M15.9995 12C15.4395 12 14.9995 11.55 14.9995 11C14.9995 10.45 15.4495 10 15.9995 10C16.5495 10 16.9995 10.45 16.9995 11C16.9995 11.55 16.5595 12 15.9995 12Z" fill="#1A1A1A"/>
<path d="M8 12C7.44 12 7 11.55 7 11C7 10.45 7.45 10 8 10C8.55 10 9 10.45 9 11C9 11.55 8.56 12 8 12Z" fill="#1A1A1A"/>
<path d="M36.46 17H34.972V8.228H36.46L39.292 15.212L42.124 8.228H43.636V17H42.148V14.3C42.148 12.536 42.148 12.02 42.232 11.396L40 17H38.584L36.364 11.408C36.448 11.936 36.46 12.764 36.46 13.856V17ZM48.0135 17.156C46.2495 17.156 45.0135 15.872 45.0135 14.036C45.0135 12.176 46.2255 10.892 47.9655 10.892C49.7415 10.892 50.8695 12.08 50.8695 13.928V14.372L46.4055 14.384C46.5135 15.428 47.0655 15.956 48.0375 15.956C48.8415 15.956 49.3695 15.644 49.5375 15.08H50.8935C50.6415 16.376 49.5615 17.156 48.0135 17.156ZM47.9775 12.092C47.1135 12.092 46.5855 12.56 46.4415 13.448H49.4175C49.4175 12.632 48.8535 12.092 47.9775 12.092ZM51.5852 15.2H52.9772C52.9892 15.716 53.3732 16.04 54.0452 16.04C54.7292 16.04 55.1012 15.764 55.1012 15.332C55.1012 15.032 54.9452 14.816 54.4172 14.696L53.3492 14.444C52.2812 14.204 51.7652 13.7 51.7652 12.752C51.7652 11.588 52.7492 10.892 54.1172 10.892C55.4492 10.892 56.3492 11.66 56.3612 12.812H54.9692C54.9572 12.308 54.6212 11.984 54.0572 11.984C53.4812 11.984 53.1452 12.248 53.1452 12.692C53.1452 13.028 53.4092 13.244 53.9132 13.364L54.9812 13.616C55.9772 13.844 56.4812 14.3 56.4812 15.212C56.4812 16.412 55.4612 17.156 53.9972 17.156C52.5212 17.156 51.5852 16.364 51.5852 15.2ZM57.1398 15.2H58.5318C58.5438 15.716 58.9278 16.04 59.5998 16.04C60.2838 16.04 60.6558 15.764 60.6558 15.332C60.6558 15.032 60.4998 14.816 59.9718 14.696L58.9038 14.444C57.8358 14.204 57.3198 13.7 57.3198 12.752C57.3198 11.588 58.3038 10.892 59.6718 10.892C61.0038 10.892 61.9038 11.66 61.9158 12.812H60.5238C60.5118 12.308 60.1758 11.984 59.6118 11.984C59.0358 11.984 58.6998 12.248 58.6998 12.692C58.6998 13.028 58.9638 13.244 59.4678 13.364L60.5358 13.616C61.5318 13.844 62.0358 14.3 62.0358 15.212C62.0358 16.412 61.0158 17.156 59.5518 17.156C58.0758 17.156 57.1398 16.364 57.1398 15.2ZM64.9145 17.156C63.6545 17.156 62.8865 16.424 62.8865 15.308C62.8865 14.216 63.6785 13.532 65.0825 13.424L66.8585 13.292V13.16C66.8585 12.356 66.3785 12.032 65.6345 12.032C64.7705 12.032 64.2905 12.392 64.2905 13.016H63.0425C63.0425 11.732 64.0985 10.892 65.7065 10.892C67.3025 10.892 68.2865 11.756 68.2865 13.4V17H67.0025L66.8945 16.124C66.6425 16.736 65.8385 17.156 64.9145 17.156ZM65.3945 16.052C66.2945 16.052 66.8705 15.512 66.8705 14.6V14.288L65.6345 14.384C64.7225 14.468 64.3745 14.768 64.3745 15.248C64.3745 15.788 64.7345 16.052 65.3945 16.052ZM69.3888 13.904C69.3888 12.176 70.5168 10.88 72.2088 10.88C73.0968 10.88 73.7928 11.252 74.1408 11.888L74.2248 11.072H75.5807V16.7C75.5807 18.68 74.3928 19.916 72.4728 19.916C70.7688 19.916 69.6048 18.944 69.4248 17.36H70.8888C70.9848 18.128 71.5728 18.584 72.4728 18.584C73.4808 18.584 74.1288 17.948 74.1288 16.964V15.98C73.7568 16.532 73.0248 16.88 72.1728 16.88C70.4928 16.88 69.3888 15.62 69.3888 13.904ZM70.8648 13.868C70.8648 14.864 71.5008 15.608 72.4608 15.608C73.4688 15.608 74.0928 14.9 74.0928 13.868C74.0928 12.86 73.4808 12.164 72.4608 12.164C71.4888 12.164 70.8648 12.896 70.8648 13.868ZM79.7478 17.156C77.9838 17.156 76.7478 15.872 76.7478 14.036C76.7478 12.176 77.9598 10.892 79.6998 10.892C81.4758 10.892 82.6038 12.08 82.6038 13.928V14.372L78.1398 14.384C78.2478 15.428 78.7998 15.956 79.7718 15.956C80.5758 15.956 81.1038 15.644 81.2718 15.08H82.6278C82.3758 16.376 81.2958 17.156 79.7478 17.156ZM79.7118 12.092C78.8478 12.092 78.3198 12.56 78.1758 13.448H81.1518C81.1518 12.632 80.5878 12.092 79.7118 12.092ZM83.7635 14.444V13.148H87.6275V14.444H83.7635ZM88.2969 11.072H89.1489V10.352C89.1489 8.744 90.0009 8.072 91.2849 8.072C91.5129 8.072 91.7889 8.084 92.0409 8.132V9.38H91.5249C90.7809 9.38 90.6009 9.764 90.6009 10.352V11.072H92.0169V12.296H90.6009V17H89.1489V12.296H88.2969V11.072ZM94.563 17.156C93.303 17.156 92.535 16.424 92.535 15.308C92.535 14.216 93.327 13.532 94.731 13.424L96.507 13.292V13.16C96.507 12.356 96.027 12.032 95.283 12.032C94.419 12.032 93.939 12.392 93.939 13.016H92.691C92.691 11.732 93.747 10.892 95.355 10.892C96.951 10.892 97.935 11.756 97.935 13.4V17H96.651L96.543 16.124C96.291 16.736 95.487 17.156 94.563 17.156ZM95.043 16.052C95.943 16.052 96.519 15.512 96.519 14.6V14.288L95.283 14.384C94.371 14.468 94.023 14.768 94.023 15.248C94.023 15.788 94.383 16.052 95.043 16.052ZM100.819 17L98.4668 11.072H100.027L101.059 13.796C101.311 14.504 101.515 15.116 101.587 15.44C101.671 15.068 101.887 14.444 102.139 13.796L103.219 11.072H104.731L102.259 17H100.819ZM104.931 14.024C104.931 12.176 106.263 10.904 108.099 10.904C109.935 10.904 111.267 12.176 111.267 14.024C111.267 15.872 109.935 17.144 108.099 17.144C106.263 17.144 104.931 15.872 104.931 14.024ZM106.395 14.024C106.395 15.104 107.091 15.836 108.099 15.836C109.107 15.836 109.803 15.104 109.803 14.024C109.803 12.944 109.107 12.212 108.099 12.212C107.091 12.212 106.395 12.944 106.395 14.024ZM116.148 11.048V12.404H115.608C114.552 12.404 113.892 12.968 113.892 14.12V17H112.428V11.084H113.808L113.892 11.948C114.144 11.36 114.708 10.964 115.5 10.964C115.704 10.964 115.908 10.988 116.148 11.048ZM117.871 9.884C117.367 9.884 116.971 9.488 116.971 8.996C116.971 8.504 117.367 8.12 117.871 8.12C118.351 8.12 118.747 8.504 118.747 8.996C118.747 9.488 118.351 9.884 117.871 9.884ZM117.139 17V11.072H118.603V17H117.139ZM122.131 17H120.667V12.296H119.527V11.072H120.667V9.224H122.131V11.072H123.283V12.296H122.131V17ZM126.787 17.156C125.023 17.156 123.787 15.872 123.787 14.036C123.787 12.176 124.999 10.892 126.739 10.892C128.515 10.892 129.643 12.08 129.643 13.928V14.372L125.179 14.384C125.287 15.428 125.839 15.956 126.811 15.956C127.615 15.956 128.143 15.644 128.311 15.08H129.667C129.415 16.376 128.335 17.156 126.787 17.156ZM126.751 12.092C125.887 12.092 125.359 12.56 125.215 13.448H128.191C128.191 12.632 127.627 12.092 126.751 12.092Z" fill="black"/>
</svg>
