<svg width="117" height="24" viewBox="0 0 117 24" fill="none" xmlns="http://www.w3.org/2000/svg">
<path opacity="0.4" d="M12 22C17.5228 22 22 17.5228 22 12C22 6.47715 17.5228 2 12 2C6.47715 2 2 6.47715 2 12C2 17.5228 6.47715 22 12 22Z" fill="#1A1A1A"/>
<path fill-rule="evenodd" clip-rule="evenodd" d="M17.3098 15.3101C17.0198 15.4701 16.7798 15.5401 16.5798 15.5901C16.4098 15.6301 16.2698 15.6701 16.1498 15.7501C16.0198 15.8301 16.0098 15.9601 15.9898 16.0801C15.9698 16.1901 15.9598 16.2801 15.8798 16.3401C15.7898 16.4001 15.6198 16.4101 15.3898 16.4201C15.0898 16.4401 14.7098 16.4501 14.2498 16.5901C14.0298 16.6701 13.8298 16.7901 13.6298 16.9101C13.2298 17.1601 12.7798 17.4301 11.9898 17.4301C11.2098 17.4301 10.7598 17.1601 10.3598 16.9101C10.1598 16.7801 9.95979 16.6601 9.72979 16.5801C9.27979 16.4401 8.88978 16.4201 8.58978 16.4101C8.35978 16.4001 8.19978 16.3901 8.09978 16.3301C8.01978 16.2801 8.00977 16.1801 7.98977 16.0701C7.96977 15.9501 7.95977 15.8201 7.82977 15.7401C7.70977 15.6601 7.55977 15.6201 7.39977 15.5701C7.19977 15.5201 6.95979 15.4601 6.66979 15.3001C6.32979 15.1101 6.52979 15.0001 6.63979 14.9401C8.56979 14.0101 8.86978 12.5701 8.87978 12.4601C8.87978 12.4501 8.87978 12.4501 8.87978 12.4401C8.89978 12.3201 8.90977 12.2201 8.76977 12.0901C8.67977 12.0001 8.36977 11.8001 8.11977 11.6401C8.00977 11.5601 7.90978 11.5001 7.84978 11.4701C7.56978 11.2701 7.44979 11.0801 7.53979 10.8301C7.59979 10.6601 7.75979 10.6001 7.91979 10.6001C7.96979 10.6001 8.02979 10.6101 8.06979 10.6201C8.24979 10.6601 8.42978 10.7301 8.58978 10.7901C8.69977 10.8401 8.78976 10.8701 8.85976 10.8901C8.87976 10.9001 8.90979 10.9001 8.91979 10.9001C9.01979 10.9001 9.04979 10.8501 9.03979 10.7501C9.03979 10.7201 9.03978 10.6901 9.02978 10.6601C9.00978 10.3101 8.97977 9.70006 9.01977 9.14006C9.09977 8.30006 9.36978 7.87006 9.68978 7.51006C9.84978 7.33006 10.5798 6.56006 11.9698 6.56006C13.3598 6.56006 14.0898 7.33006 14.2498 7.50006C14.5698 7.87006 14.8398 8.29006 14.9198 9.14006C14.9698 9.73006 14.9298 10.3601 14.8998 10.7101V10.7401C14.8898 10.8501 14.9198 10.8901 15.0198 10.8901C15.0398 10.8901 15.0598 10.8901 15.0798 10.8801C15.1498 10.8601 15.2398 10.8301 15.3498 10.7901C15.4998 10.7301 15.6798 10.6601 15.8698 10.6201C15.9198 10.6001 15.9698 10.6001 16.0198 10.6001C16.1898 10.6001 16.3398 10.6701 16.3998 10.8401C16.4898 11.0801 16.3698 11.2701 16.0898 11.4701C16.0398 11.5101 15.9398 11.5801 15.8198 11.6401C15.5798 11.8001 15.2598 12.0001 15.1698 12.0901C15.0298 12.2201 15.0398 12.3201 15.0598 12.4401C15.0598 12.4501 15.0598 12.4601 15.0598 12.4601C15.0798 12.5701 15.3798 14.0101 17.2998 14.9401C17.4498 15.0001 17.6498 15.1201 17.3098 15.3101Z" fill="#1A1A1A"/>
<path d="M34.468 9.676C34.468 8.14 35.74 7.072 37.588 7.072C39.364 7.072 40.492 8.056 40.54 9.64H39.004C38.968 8.884 38.428 8.44 37.564 8.44C36.616 8.44 36.004 8.896 36.004 9.628C36.004 10.252 36.34 10.6 37.072 10.768L38.452 11.068C39.952 11.392 40.684 12.16 40.684 13.468C40.684 15.1 39.412 16.156 37.48 16.156C35.608 16.156 34.384 15.16 34.348 13.588H35.884C35.896 14.332 36.496 14.776 37.48 14.776C38.5 14.776 39.148 14.332 39.148 13.6C39.148 13.012 38.848 12.664 38.128 12.508L36.736 12.196C35.248 11.872 34.468 11.02 34.468 9.676ZM43.3216 16H41.8576V10.072H43.2136L43.3336 10.84C43.7056 10.24 44.4256 9.892 45.2296 9.892C46.7176 9.892 47.4856 10.816 47.4856 12.352V16H46.0216V12.7C46.0216 11.704 45.5296 11.224 44.7736 11.224C43.8736 11.224 43.3216 11.848 43.3216 12.808V16ZM50.688 16.156C49.428 16.156 48.66 15.424 48.66 14.308C48.66 13.216 49.452 12.532 50.856 12.424L52.632 12.292V12.16C52.632 11.356 52.152 11.032 51.408 11.032C50.544 11.032 50.064 11.392 50.064 12.016H48.816C48.816 10.732 49.872 9.892 51.48 9.892C53.076 9.892 54.06 10.756 54.06 12.4V16H52.776L52.668 15.124C52.416 15.736 51.612 16.156 50.688 16.156ZM51.168 15.052C52.068 15.052 52.644 14.512 52.644 13.6V13.288L51.408 13.384C50.496 13.468 50.148 13.768 50.148 14.248C50.148 14.788 50.508 15.052 51.168 15.052ZM55.4982 18.748V10.072H56.8542L56.9502 10.972C57.3102 10.288 58.0902 9.892 58.9902 9.892C60.6582 9.892 61.7622 11.104 61.7622 12.964C61.7622 14.812 60.7542 16.156 58.9902 16.156C58.1022 16.156 57.3342 15.808 56.9622 15.208V18.748H55.4982ZM56.9742 13.036C56.9742 14.104 57.6342 14.836 58.6422 14.836C59.6742 14.836 60.2862 14.092 60.2862 13.036C60.2862 11.98 59.6742 11.224 58.6422 11.224C57.6342 11.224 56.9742 11.968 56.9742 13.036ZM62.5799 13.024C62.5799 11.188 63.7919 9.892 65.5439 9.892C67.1639 9.892 68.2679 10.792 68.4239 12.22H66.9599C66.7919 11.548 66.2999 11.2 65.6039 11.2C64.6679 11.2 64.0439 11.908 64.0439 13.024C64.0439 14.14 64.6199 14.836 65.5559 14.836C66.2879 14.836 66.8039 14.476 66.9599 13.828H68.4359C68.2559 15.208 67.1039 16.156 65.5559 16.156C63.7559 16.156 62.5799 14.908 62.5799 13.024ZM70.9895 16H69.5255V7.072H71.0015V10.84C71.3735 10.264 72.0695 9.892 72.9215 9.892C74.3855 9.892 75.1535 10.816 75.1535 12.352V16H73.6895V12.7C73.6895 11.704 73.1975 11.224 72.4535 11.224C71.5295 11.224 70.9895 11.872 70.9895 12.76V16ZM78.3559 16.156C77.0959 16.156 76.3279 15.424 76.3279 14.308C76.3279 13.216 77.1199 12.532 78.5239 12.424L80.2999 12.292V12.16C80.2999 11.356 79.8199 11.032 79.0759 11.032C78.2119 11.032 77.7319 11.392 77.7319 12.016H76.4839C76.4839 10.732 77.5399 9.892 79.1479 9.892C80.7439 9.892 81.7279 10.756 81.7279 12.4V16H80.4439L80.3359 15.124C80.0839 15.736 79.2799 16.156 78.3559 16.156ZM78.8359 15.052C79.7359 15.052 80.3119 14.512 80.3119 13.6V13.288L79.0759 13.384C78.1639 13.468 77.8159 13.768 77.8159 14.248C77.8159 14.788 78.1759 15.052 78.8359 15.052ZM85.1001 16H83.6361V11.296H82.4961V10.072H83.6361V8.224H85.1001V10.072H86.2521V11.296H85.1001V16Z" fill="black"/>
</svg>
