<svg width="107" height="24" viewBox="0 0 107 24" fill="none" xmlns="http://www.w3.org/2000/svg">
<path d="M21 5.25H3C2.59 5.25 2.25 4.91 2.25 4.5C2.25 4.09 2.59 3.75 3 3.75H21C21.41 3.75 21.75 4.09 21.75 4.5C21.75 4.91 21.41 5.25 21 5.25Z" fill="#1A1A1A"/>
<path opacity="0.4" d="M12.47 10.25H3C2.59 10.25 2.25 9.91 2.25 9.5C2.25 9.09 2.59 8.75 3 8.75H12.47C12.88 8.75 13.22 9.09 13.22 9.5C13.22 9.91 12.89 10.25 12.47 10.25Z" fill="#1A1A1A"/>
<path d="M21 15.25H3C2.59 15.25 2.25 14.91 2.25 14.5C2.25 14.09 2.59 13.75 3 13.75H21C21.41 13.75 21.75 14.09 21.75 14.5C21.75 14.91 21.41 15.25 21 15.25Z" fill="#1A1A1A"/>
<path opacity="0.4" d="M12.47 20.25H3C2.59 20.25 2.25 19.91 2.25 19.5C2.25 19.09 2.59 18.75 3 18.75H12.47C12.88 18.75 13.22 19.09 13.22 19.5C13.22 19.91 12.89 20.25 12.47 20.25Z" fill="#1A1A1A"/>
<path d="M34.204 9.644V8.228H40.876V9.644H38.308V17H36.772V9.644H34.204ZM43.4783 17.156C41.7143 17.156 40.4783 15.872 40.4783 14.036C40.4783 12.176 41.6903 10.892 43.4303 10.892C45.2063 10.892 46.3343 12.08 46.3343 13.928V14.372L41.8703 14.384C41.9783 15.428 42.5303 15.956 43.5023 15.956C44.3063 15.956 44.8343 15.644 45.0023 15.08H46.3583C46.1063 16.376 45.0263 17.156 43.4783 17.156ZM43.4423 12.092C42.5783 12.092 42.0503 12.56 41.9063 13.448H44.8823C44.8823 12.632 44.3183 12.092 43.4423 12.092ZM48.2685 17H46.6005L48.6405 14.096L46.6005 11.072H48.3045L49.6125 13.088L50.8725 11.072H52.5165L50.5005 14.072L52.4565 17H50.7765L49.5165 15.044L48.2685 17ZM55.6392 17H54.1752V12.296H53.0352V11.072H54.1752V9.224H55.6392V11.072H56.7912V12.296H55.6392V17ZM59.4302 17.156C58.1702 17.156 57.4022 16.424 57.4022 15.308C57.4022 14.216 58.1942 13.532 59.5982 13.424L61.3742 13.292V13.16C61.3742 12.356 60.8942 12.032 60.1502 12.032C59.2862 12.032 58.8062 12.392 58.8062 13.016H57.5582C57.5582 11.732 58.6142 10.892 60.2222 10.892C61.8182 10.892 62.8022 11.756 62.8022 13.4V17H61.5182L61.4102 16.124C61.1582 16.736 60.3542 17.156 59.4302 17.156ZM59.9102 16.052C60.8102 16.052 61.3862 15.512 61.3862 14.6V14.288L60.1502 14.384C59.2382 14.468 58.8902 14.768 58.8902 15.248C58.8902 15.788 59.2502 16.052 59.9102 16.052ZM65.7164 17H64.2644V8.072H65.7164V17ZM67.9841 9.884C67.4801 9.884 67.0841 9.488 67.0841 8.996C67.0841 8.504 67.4801 8.12 67.9841 8.12C68.4641 8.12 68.8601 8.504 68.8601 8.996C68.8601 9.488 68.4641 9.884 67.9841 9.884ZM67.2521 17V11.072H68.7161V17H67.2521ZM69.8927 13.904C69.8927 12.176 71.0207 10.88 72.7127 10.88C73.6007 10.88 74.2967 11.252 74.6447 11.888L74.7287 11.072H76.0847V16.7C76.0847 18.68 74.8967 19.916 72.9767 19.916C71.2727 19.916 70.1087 18.944 69.9287 17.36H71.3927C71.4887 18.128 72.0767 18.584 72.9767 18.584C73.9847 18.584 74.6327 17.948 74.6327 16.964V15.98C74.2607 16.532 73.5287 16.88 72.6767 16.88C70.9967 16.88 69.8927 15.62 69.8927 13.904ZM71.3687 13.868C71.3687 14.864 72.0047 15.608 72.9647 15.608C73.9727 15.608 74.5967 14.9 74.5967 13.868C74.5967 12.86 73.9847 12.164 72.9647 12.164C71.9927 12.164 71.3687 12.896 71.3687 13.868ZM79.0638 17H77.5998V11.072H78.9558L79.0758 11.84C79.4478 11.24 80.1678 10.892 80.9718 10.892C82.4598 10.892 83.2278 11.816 83.2278 13.352V17H81.7638V13.7C81.7638 12.704 81.2718 12.224 80.5158 12.224C79.6158 12.224 79.0638 12.848 79.0638 13.808V17ZM84.6542 14.444V13.148H88.5182V14.444H84.6542ZM91.4859 17H90.0339V8.072H91.4859V17ZM95.6736 17.156C93.9096 17.156 92.6736 15.872 92.6736 14.036C92.6736 12.176 93.8856 10.892 95.6256 10.892C97.4016 10.892 98.5296 12.08 98.5296 13.928V14.372L94.0656 14.384C94.1736 15.428 94.7256 15.956 95.6976 15.956C96.5016 15.956 97.0296 15.644 97.1976 15.08H98.5536C98.3016 16.376 97.2216 17.156 95.6736 17.156ZM95.6376 12.092C94.7736 12.092 94.2456 12.56 94.1016 13.448H97.0776C97.0776 12.632 96.5136 12.092 95.6376 12.092ZM99.1133 11.072H99.9653V10.352C99.9653 8.744 100.805 8.072 102.005 8.072C102.233 8.072 102.509 8.084 102.761 8.132V9.38H102.245C101.585 9.38 101.417 9.764 101.417 10.352V11.072H103.913V9.224H105.377V11.072H106.529V12.296H105.377V17H103.913V12.296H101.417V17H99.9653V12.296H99.1133V11.072Z" fill="black"/>
</svg>
