<svg width="1855" height="28" viewBox="0 0 1855 28" fill="none" xmlns="http://www.w3.org/2000/svg">
<path d="M2.74444 0.363909V20.6079H0.000437677V0.363909H2.74444ZM6.12128 13.7759C6.12128 9.49191 8.83728 6.52391 12.8413 6.52391C16.2853 6.52391 18.6933 8.48391 19.1693 11.5359H16.5373C16.0893 9.79991 14.6893 8.87591 12.9253 8.87591C10.4333 8.87591 8.72528 10.7799 8.72528 13.7479C8.72528 16.6879 10.3213 18.5919 12.8133 18.5919C14.6893 18.5919 16.0893 17.6119 16.5653 15.9879H19.1973C18.6653 18.9559 16.1173 20.9439 12.8133 20.9439C8.78128 20.9439 6.12128 18.0879 6.12128 13.7759ZM21.0783 13.7479C21.0783 9.51991 24.1023 6.55191 28.2183 6.55191C32.3063 6.55191 35.3303 9.51991 35.3303 13.7479C35.3303 17.9759 32.3063 20.9439 28.2183 20.9439C24.1023 20.9439 21.0783 17.9759 21.0783 13.7479ZM23.7383 13.7479C23.7383 16.6039 25.5583 18.5919 28.2183 18.5919C30.8503 18.5919 32.6983 16.6039 32.6983 13.7479C32.6983 10.8919 30.8503 8.90391 28.2183 8.90391C25.5583 8.90391 23.7383 10.8919 23.7383 13.7479ZM40.8758 20.6079H38.2438V6.91591H40.6238L40.9038 9.01591C41.7718 7.44791 43.5078 6.52391 45.4398 6.52391C49.0518 6.52391 50.7038 8.73591 50.7038 12.2359V20.6079H48.0718V12.8239C48.0718 10.0519 46.7838 8.93191 44.7678 8.93191C42.3038 8.93191 40.8758 10.6959 40.8758 13.3559V20.6079ZM53.0653 16.6319H55.5853C55.5853 18.0319 56.6493 18.8719 58.3853 18.8719C60.2333 18.8719 61.2973 18.1159 61.2973 16.8559C61.2973 15.9319 60.8493 15.3719 59.4213 15.0079L57.0133 14.4479C54.5773 13.8599 53.4293 12.6559 53.4293 10.6399C53.4293 8.11991 55.5573 6.52391 58.5813 6.52391C61.5773 6.52391 63.5373 8.20391 63.5933 10.8079H61.0733C61.0173 9.43591 60.0933 8.56791 58.4973 8.56791C56.8453 8.56791 55.9213 9.29591 55.9213 10.5559C55.9213 11.4799 56.5933 12.0959 57.9373 12.4319L60.3453 13.0199C62.6693 13.5799 63.8173 14.6439 63.8173 16.6879C63.8173 19.2919 61.5773 20.9439 58.3293 20.9439C55.1093 20.9439 53.0653 19.2359 53.0653 16.6319ZM72.9363 6.91591H74.9523V4.73191C74.9523 1.37191 76.8003 -9.15527e-05 79.2923 -9.15527e-05C79.7963 -9.15527e-05 80.3843 0.0279098 80.9163 0.111909V2.37991H79.7403C78.0323 2.37991 77.5843 3.24791 77.5843 4.73191V6.91591H80.8323V9.12791H77.5843V20.6079H74.9523V9.12791H72.9363V6.91591ZM81.9728 13.7479C81.9728 9.51991 84.9968 6.55191 89.1128 6.55191C93.2008 6.55191 96.2248 9.51991 96.2248 13.7479C96.2248 17.9759 93.2008 20.9439 89.1128 20.9439C84.9968 20.9439 81.9728 17.9759 81.9728 13.7479ZM84.6328 13.7479C84.6328 16.6039 86.4528 18.5919 89.1128 18.5919C91.7448 18.5919 93.5928 16.6039 93.5928 13.7479C93.5928 10.8919 91.7448 8.90391 89.1128 8.90391C86.4528 8.90391 84.6328 10.8919 84.6328 13.7479ZM106.978 6.80391V9.21191H105.802C103.31 9.21191 101.77 10.7239 101.77 13.3559V20.6079H99.1384V6.94391H101.602L101.77 9.01591C102.33 7.58791 103.702 6.63591 105.578 6.63591C106.054 6.63591 106.446 6.69191 106.978 6.80391ZM116.207 13.7759C116.207 9.49191 118.923 6.52391 122.927 6.52391C126.371 6.52391 128.779 8.48391 129.255 11.5359H126.623C126.175 9.79991 124.775 8.87591 123.011 8.87591C120.519 8.87591 118.811 10.7799 118.811 13.7479C118.811 16.6879 120.407 18.5919 122.899 18.5919C124.775 18.5919 126.175 17.6119 126.651 15.9879H129.283C128.751 18.9559 126.203 20.9439 122.899 20.9439C118.867 20.9439 116.207 18.0879 116.207 13.7759ZM139.9 6.80391V9.21191H138.724C136.232 9.21191 134.692 10.7239 134.692 13.3559V20.6079H132.06V6.94391H134.524L134.692 9.01591C135.252 7.58791 136.624 6.63591 138.5 6.63591C138.976 6.63591 139.368 6.69191 139.9 6.80391ZM141.463 26.7399V24.5839H143.227C144.487 24.5839 145.495 24.3879 146.139 22.6519L146.615 21.3359L141.099 6.91591H143.871L147.847 17.9479L151.907 6.91591H154.623L148.155 23.6879C147.231 26.0399 145.859 27.0199 143.759 27.0199C142.891 27.0199 142.163 26.9079 141.463 26.7399ZM156.724 26.7399V6.91591H159.104L159.3 9.37991C160.224 7.50391 162.072 6.52391 164.256 6.52391C168.176 6.52391 170.612 9.46391 170.612 13.6639C170.612 17.8359 168.316 20.9719 164.256 20.9719C162.072 20.9719 160.252 20.0479 159.356 18.3679V26.7399H156.724ZM159.384 13.7759C159.384 16.5759 161.008 18.5919 163.696 18.5919C166.384 18.5919 167.98 16.5759 167.98 13.7759C167.98 10.9479 166.384 8.93191 163.696 8.93191C161.008 8.93191 159.384 10.9199 159.384 13.7759ZM177.241 20.6079H174.609V9.12791H171.921V6.91591H174.609V2.63191H177.241V6.91591H179.929V9.12791H177.241V20.6079ZM181.258 13.7479C181.258 9.51991 184.282 6.55191 188.398 6.55191C192.486 6.55191 195.51 9.51991 195.51 13.7479C195.51 17.9759 192.486 20.9439 188.398 20.9439C184.282 20.9439 181.258 17.9759 181.258 13.7479ZM183.918 13.7479C183.918 16.6039 185.738 18.5919 188.398 18.5919C191.03 18.5919 192.878 16.6039 192.878 13.7479C192.878 10.8919 191.03 8.90391 188.398 8.90391C185.738 8.90391 183.918 10.8919 183.918 13.7479ZM205.184 13.7759C205.184 9.49191 207.9 6.52391 211.904 6.52391C215.348 6.52391 217.756 8.48391 218.232 11.5359H215.6C215.152 9.79991 213.752 8.87591 211.988 8.87591C209.496 8.87591 207.788 10.7799 207.788 13.7479C207.788 16.6879 209.384 18.5919 211.876 18.5919C213.752 18.5919 215.152 17.6119 215.628 15.9879H218.26C217.728 18.9559 215.18 20.9439 211.876 20.9439C207.844 20.9439 205.184 18.0879 205.184 13.7759ZM220.141 13.7479C220.141 9.51991 223.165 6.55191 227.281 6.55191C231.369 6.55191 234.393 9.51991 234.393 13.7479C234.393 17.9759 231.369 20.9439 227.281 20.9439C223.165 20.9439 220.141 17.9759 220.141 13.7479ZM222.801 13.7479C222.801 16.6039 224.621 18.5919 227.281 18.5919C229.913 18.5919 231.761 16.6039 231.761 13.7479C231.761 10.8919 229.913 8.90391 227.281 8.90391C224.621 8.90391 222.801 10.8919 222.801 13.7479ZM238.594 3.66791C237.642 3.66791 236.858 2.88391 236.858 1.93191C236.858 0.95191 237.642 0.195909 238.594 0.195909C239.546 0.195909 240.33 0.95191 240.33 1.93191C240.33 2.88391 239.546 3.66791 238.594 3.66791ZM237.306 20.6079V6.91591H239.938V20.6079H237.306ZM246.391 20.6079H243.759V6.91591H246.139L246.419 9.01591C247.287 7.44791 249.023 6.52391 250.955 6.52391C254.567 6.52391 256.219 8.73591 256.219 12.2359V20.6079H253.587V12.8239C253.587 10.0519 252.299 8.93191 250.283 8.93191C247.819 8.93191 246.391 10.6959 246.391 13.3559V20.6079ZM258.581 16.6319H261.101C261.101 18.0319 262.165 18.8719 263.901 18.8719C265.749 18.8719 266.813 18.1159 266.813 16.8559C266.813 15.9319 266.365 15.3719 264.937 15.0079L262.529 14.4479C260.093 13.8599 258.945 12.6559 258.945 10.6399C258.945 8.11991 261.073 6.52391 264.097 6.52391C267.093 6.52391 269.053 8.20391 269.109 10.8079H266.589C266.533 9.43591 265.609 8.56791 264.013 8.56791C262.361 8.56791 261.437 9.29591 261.437 10.5559C261.437 11.4799 262.109 12.0959 263.453 12.4319L265.861 13.0199C268.185 13.5799 269.333 14.6439 269.333 16.6879C269.333 19.2919 267.093 20.9439 263.845 20.9439C260.625 20.9439 258.581 19.2359 258.581 16.6319ZM276.036 19.5159C276.036 21.5319 274.524 23.2119 272.536 23.4639V22.2879C273.684 22.0919 274.496 21.3359 274.496 20.4679C274.3 20.5799 274.076 20.6359 273.74 20.6359C272.816 20.6359 272.032 19.9639 272.032 18.9279C272.032 17.8079 272.788 16.9959 273.908 16.9959C275.084 16.9959 276.036 17.9759 276.036 19.5159ZM291.346 20.6079H288.714V9.12791H286.026V6.91591H288.714V2.63191H291.346V6.91591H294.034V9.12791H291.346V20.6079ZM295.363 13.7479C295.363 9.51991 298.387 6.55191 302.503 6.55191C306.591 6.55191 309.615 9.51991 309.615 13.7479C309.615 17.9759 306.591 20.9439 302.503 20.9439C298.387 20.9439 295.363 17.9759 295.363 13.7479ZM298.023 13.7479C298.023 16.6039 299.843 18.5919 302.503 18.5919C305.135 18.5919 306.983 16.6039 306.983 13.7479C306.983 10.8919 305.135 8.90391 302.503 8.90391C299.843 8.90391 298.023 10.8919 298.023 13.7479ZM315.217 20.6079H312.585V-9.15527e-05H315.217V13.3559L321.293 6.91591H324.597L319.361 12.3759L324.569 20.6079H321.545L317.541 14.2799L315.217 16.7159V20.6079ZM332.136 20.9439C328.104 20.9439 325.332 18.0319 325.332 13.7759C325.332 9.49191 328.048 6.52391 332.024 6.52391C335.916 6.52391 338.464 9.21191 338.464 13.2719V14.2519L327.88 14.2799C328.076 17.1639 329.588 18.7599 332.192 18.7599C334.236 18.7599 335.58 17.9199 336.028 16.3519H338.492C337.82 19.2919 335.524 20.9439 332.136 20.9439ZM332.024 8.73591C329.728 8.73591 328.272 10.1079 327.936 12.5159H335.832C335.832 10.2479 334.348 8.73591 332.024 8.73591ZM344.036 20.6079H341.404V6.91591H343.784L344.064 9.01591C344.932 7.44791 346.668 6.52391 348.6 6.52391C352.212 6.52391 353.864 8.73591 353.864 12.2359V20.6079H351.232V12.8239C351.232 10.0519 349.944 8.93191 347.928 8.93191C345.464 8.93191 344.036 10.6959 344.036 13.3559V20.6079ZM356.225 16.6319H358.745C358.745 18.0319 359.809 18.8719 361.545 18.8719C363.393 18.8719 364.457 18.1159 364.457 16.8559C364.457 15.9319 364.009 15.3719 362.581 15.0079L360.173 14.4479C357.737 13.8599 356.589 12.6559 356.589 10.6399C356.589 8.11991 358.717 6.52391 361.741 6.52391C364.737 6.52391 366.697 8.20391 366.753 10.8079H364.233C364.177 9.43591 363.253 8.56791 361.657 8.56791C360.005 8.56791 359.081 9.29591 359.081 10.5559C359.081 11.4799 359.753 12.0959 361.097 12.4319L363.505 13.0199C365.829 13.5799 366.977 14.6439 366.977 16.6879C366.977 19.2919 364.737 20.9439 361.489 20.9439C358.269 20.9439 356.225 19.2359 356.225 16.6319ZM373.68 19.5159C373.68 21.5319 372.168 23.2119 370.18 23.4639V22.2879C371.328 22.0919 372.14 21.3359 372.14 20.4679C371.944 20.5799 371.72 20.6359 371.384 20.6359C370.46 20.6359 369.676 19.9639 369.676 18.9279C369.676 17.8079 370.432 16.9959 371.552 16.9959C372.728 16.9959 373.68 17.9759 373.68 19.5159ZM388.067 20.6079L383.587 6.91591H386.303L388.571 14.0279C388.879 15.0359 389.159 16.0719 389.411 17.2759C389.635 16.0719 389.999 14.9239 390.307 14.0279L392.603 6.91591H395.291L397.559 14.0279C397.783 14.6999 398.231 16.2959 398.455 17.2759C398.679 16.1839 398.931 15.2319 399.323 14.0279L401.619 6.91591H404.363L399.687 20.6079H397.195L394.815 13.2719C394.367 11.8999 394.087 10.8359 393.947 10.0799C393.807 10.7519 393.555 11.6479 393.051 13.2999L390.671 20.6079H388.067ZM409.994 20.9439C407.054 20.9439 405.318 19.2919 405.318 16.7999C405.318 14.2799 407.194 12.7119 410.414 12.4599L414.726 12.1239V11.7319C414.726 9.43591 413.354 8.62391 411.506 8.62391C409.294 8.62391 408.034 9.60391 408.034 11.2559H405.738C405.738 8.39991 408.09 6.52391 411.618 6.52391C415.006 6.52391 417.302 8.31591 417.302 12.0119V20.6079H415.062L414.782 18.3959C414.082 19.9639 412.206 20.9439 409.994 20.9439ZM410.75 18.8999C413.242 18.8999 414.754 17.2759 414.754 14.6999V13.9719L411.254 14.2519C408.93 14.4759 407.978 15.3719 407.978 16.7159C407.978 18.1719 409.042 18.8999 410.75 18.8999ZM423.635 20.6079H421.003V-9.15527e-05H423.635V20.6079ZM430.197 20.6079H427.565V-9.15527e-05H430.197V20.6079ZM439.98 20.9439C435.948 20.9439 433.176 18.0319 433.176 13.7759C433.176 9.49191 435.892 6.52391 439.868 6.52391C443.76 6.52391 446.308 9.21191 446.308 13.2719V14.2519L435.724 14.2799C435.92 17.1639 437.432 18.7599 440.036 18.7599C442.08 18.7599 443.424 17.9199 443.872 16.3519H446.336C445.664 19.2919 443.368 20.9439 439.98 20.9439ZM439.868 8.73591C437.572 8.73591 436.116 10.1079 435.78 12.5159H443.676C443.676 10.2479 442.192 8.73591 439.868 8.73591ZM452.975 20.6079H450.343V9.12791H447.655V6.91591H450.343V2.63191H452.975V6.91591H455.663V9.12791H452.975V20.6079ZM456.905 16.6319H459.425C459.425 18.0319 460.489 18.8719 462.225 18.8719C464.073 18.8719 465.137 18.1159 465.137 16.8559C465.137 15.9319 464.689 15.3719 463.261 15.0079L460.853 14.4479C458.417 13.8599 457.269 12.6559 457.269 10.6399C457.269 8.11991 459.397 6.52391 462.421 6.52391C465.417 6.52391 467.377 8.20391 467.433 10.8079H464.913C464.857 9.43591 463.933 8.56791 462.337 8.56791C460.685 8.56791 459.761 9.29591 459.761 10.5559C459.761 11.4799 460.433 12.0959 461.777 12.4319L464.185 13.0199C466.509 13.5799 467.657 14.6439 467.657 16.6879C467.657 19.2919 465.417 20.9439 462.169 20.9439C458.949 20.9439 456.905 19.2359 456.905 16.6319ZM474.36 19.5159C474.36 21.5319 472.848 23.2119 470.86 23.4639V22.2879C472.008 22.0919 472.82 21.3359 472.82 20.4679C472.624 20.5799 472.4 20.6359 472.064 20.6359C471.14 20.6359 470.356 19.9639 470.356 18.9279C470.356 17.8079 471.112 16.9959 472.232 16.9959C473.408 16.9959 474.36 17.9759 474.36 19.5159ZM491.714 20.9439C487.682 20.9439 484.91 18.0319 484.91 13.7759C484.91 9.49191 487.626 6.52391 491.602 6.52391C495.494 6.52391 498.042 9.21191 498.042 13.2719V14.2519L487.458 14.2799C487.654 17.1639 489.166 18.7599 491.77 18.7599C493.814 18.7599 495.158 17.9199 495.606 16.3519H498.07C497.398 19.2919 495.102 20.9439 491.714 20.9439ZM491.602 8.73591C489.306 8.73591 487.85 10.1079 487.514 12.5159H495.41C495.41 10.2479 493.926 8.73591 491.602 8.73591ZM501.863 20.6079H498.839L503.627 13.8319L498.867 6.91591H501.919L505.391 12.0119L508.779 6.91591H511.775L507.015 13.8319L511.691 20.6079H508.639L505.223 15.5959L501.863 20.6079ZM512.555 13.7759C512.555 9.49191 515.271 6.52391 519.275 6.52391C522.719 6.52391 525.127 8.48391 525.603 11.5359H522.971C522.523 9.79991 521.123 8.87591 519.359 8.87591C516.867 8.87591 515.159 10.7799 515.159 13.7479C515.159 16.6879 516.755 18.5919 519.247 18.5919C521.123 18.5919 522.523 17.6119 522.999 15.9879H525.631C525.099 18.9559 522.551 20.9439 519.247 20.9439C515.215 20.9439 512.555 18.0879 512.555 13.7759ZM531.04 20.5799H528.408V-9.15527e-05H531.04V9.01591C531.908 7.53191 533.56 6.52391 535.688 6.52391C539.188 6.52391 540.868 8.73591 540.868 12.2359V20.6079H538.236V12.8239C538.236 10.0519 536.92 8.93191 534.96 8.93191C532.412 8.93191 531.04 10.7799 531.04 13.1319V20.5799ZM548.517 20.9439C545.577 20.9439 543.841 19.2919 543.841 16.7999C543.841 14.2799 545.717 12.7119 548.937 12.4599L553.249 12.1239V11.7319C553.249 9.43591 551.877 8.62391 550.029 8.62391C547.817 8.62391 546.557 9.60391 546.557 11.2559H544.261C544.261 8.39991 546.613 6.52391 550.141 6.52391C553.529 6.52391 555.825 8.31591 555.825 12.0119V20.6079H553.585L553.305 18.3959C552.605 19.9639 550.729 20.9439 548.517 20.9439ZM549.273 18.8999C551.765 18.8999 553.277 17.2759 553.277 14.6999V13.9719L549.777 14.2519C547.453 14.4759 546.501 15.3719 546.501 16.7159C546.501 18.1719 547.565 18.8999 549.273 18.8999ZM562.102 20.6079H559.47V6.91591H561.85L562.13 9.01591C562.998 7.44791 564.734 6.52391 566.666 6.52391C570.278 6.52391 571.93 8.73591 571.93 12.2359V20.6079H569.298V12.8239C569.298 10.0519 568.01 8.93191 565.994 8.93191C563.53 8.93191 562.102 10.6959 562.102 13.3559V20.6079ZM574.708 13.4119C574.708 9.54791 577.2 6.52391 581.176 6.52391C583.388 6.52391 585.096 7.53191 585.964 9.23991L586.16 6.91591H588.512V20.0479C588.512 24.3599 585.852 27.1039 581.652 27.1039C577.928 27.1039 575.38 25.0039 574.876 21.5319H577.508C577.844 23.5479 579.356 24.7239 581.652 24.7239C584.228 24.7239 585.908 23.0439 585.908 20.4399V17.6959C585.012 19.2919 583.22 20.2439 581.064 20.2439C577.172 20.2439 574.708 17.2479 574.708 13.4119ZM577.34 13.3559C577.34 15.9319 578.936 17.9479 581.512 17.9479C584.172 17.9479 585.796 16.0439 585.796 13.3559C585.796 10.7239 584.228 8.81991 581.54 8.81991C578.908 8.81991 577.34 10.8359 577.34 13.3559ZM598.218 20.9439C594.186 20.9439 591.414 18.0319 591.414 13.7759C591.414 9.49191 594.13 6.52391 598.106 6.52391C601.998 6.52391 604.546 9.21191 604.546 13.2719V14.2519L593.962 14.2799C594.158 17.1639 595.67 18.7599 598.274 18.7599C600.318 18.7599 601.662 17.9199 602.11 16.3519H604.574C603.902 19.2919 601.606 20.9439 598.218 20.9439ZM598.106 8.73591C595.81 8.73591 594.354 10.1079 594.018 12.5159H601.914C601.914 10.2479 600.43 8.73591 598.106 8.73591ZM606.366 16.6319H608.886C608.886 18.0319 609.95 18.8719 611.686 18.8719C613.534 18.8719 614.598 18.1159 614.598 16.8559C614.598 15.9319 614.15 15.3719 612.722 15.0079L610.314 14.4479C607.878 13.8599 606.73 12.6559 606.73 10.6399C606.73 8.11991 608.858 6.52391 611.882 6.52391C614.878 6.52391 616.838 8.20391 616.894 10.8079H614.374C614.318 9.43591 613.394 8.56791 611.798 8.56791C610.146 8.56791 609.222 9.29591 609.222 10.5559C609.222 11.4799 609.894 12.0959 611.238 12.4319L613.646 13.0199C615.97 13.5799 617.118 14.6439 617.118 16.6879C617.118 19.2919 614.878 20.9439 611.63 20.9439C608.41 20.9439 606.366 19.2359 606.366 16.6319ZM623.821 19.5159C623.821 21.5319 622.309 23.2119 620.321 23.4639V22.2879C621.469 22.0919 622.281 21.3359 622.281 20.4679C622.085 20.5799 621.861 20.6359 621.525 20.6359C620.601 20.6359 619.817 19.9639 619.817 18.9279C619.817 17.8079 620.573 16.9959 621.693 16.9959C622.869 16.9959 623.821 17.9759 623.821 19.5159ZM639.271 20.9439C636.331 20.9439 634.595 19.2919 634.595 16.7999C634.595 14.2799 636.471 12.7119 639.691 12.4599L644.003 12.1239V11.7319C644.003 9.43591 642.631 8.62391 640.783 8.62391C638.571 8.62391 637.311 9.60391 637.311 11.2559H635.015C635.015 8.39991 637.367 6.52391 640.895 6.52391C644.283 6.52391 646.579 8.31591 646.579 12.0119V20.6079H644.339L644.059 18.3959C643.359 19.9639 641.483 20.9439 639.271 20.9439ZM640.027 18.8999C642.519 18.8999 644.031 17.2759 644.031 14.6999V13.9719L640.531 14.2519C638.207 14.4759 637.255 15.3719 637.255 16.7159C637.255 18.1719 638.319 18.8999 640.027 18.8999ZM652.856 20.6079H650.224V6.91591H652.604L652.884 9.01591C653.752 7.44791 655.488 6.52391 657.42 6.52391C661.032 6.52391 662.684 8.73591 662.684 12.2359V20.6079H660.052V12.8239C660.052 10.0519 658.764 8.93191 656.748 8.93191C654.284 8.93191 652.856 10.6959 652.856 13.3559V20.6079ZM671.818 20.9439C667.842 20.9439 665.434 17.9759 665.434 13.8039C665.434 9.60391 667.87 6.52391 671.93 6.52391C674.03 6.52391 675.794 7.44791 676.718 9.12791V-9.15527e-05H679.322V20.6079H676.97L676.746 18.1159C675.85 19.9919 674.002 20.9439 671.818 20.9439ZM672.35 18.5639C675.038 18.5639 676.69 16.5759 676.69 13.7199C676.69 10.9199 675.038 8.90391 672.35 8.90391C669.662 8.90391 668.094 10.9199 668.094 13.7199C668.094 16.5479 669.662 18.5639 672.35 18.5639ZM693.155 20.6079H690.775V-9.15527e-05H693.407V9.26791C694.303 7.47591 696.151 6.52391 698.391 6.52391C702.311 6.52391 704.663 9.60391 704.663 13.8319C704.663 17.9759 702.199 20.9439 698.223 20.9439C696.067 20.9439 694.247 19.9919 693.351 18.1159L693.155 20.6079ZM693.435 13.7199C693.435 16.5759 695.059 18.5639 697.747 18.5639C700.435 18.5639 702.031 16.5479 702.031 13.7199C702.031 10.9199 700.435 8.90391 697.747 8.90391C695.059 8.90391 693.435 10.9199 693.435 13.7199ZM710.252 20.6079H707.62V-9.15527e-05H710.252V20.6079ZM713.231 13.7479C713.231 9.51991 716.255 6.55191 720.371 6.55191C724.459 6.55191 727.483 9.51991 727.483 13.7479C727.483 17.9759 724.459 20.9439 720.371 20.9439C716.255 20.9439 713.231 17.9759 713.231 13.7479ZM715.891 13.7479C715.891 16.6039 717.711 18.5919 720.371 18.5919C723.003 18.5919 724.851 16.6039 724.851 13.7479C724.851 10.8919 723.003 8.90391 720.371 8.90391C717.711 8.90391 715.891 10.8919 715.891 13.7479ZM729.5 13.7759C729.5 9.49191 732.216 6.52391 736.22 6.52391C739.664 6.52391 742.072 8.48391 742.548 11.5359H739.916C739.468 9.79991 738.068 8.87591 736.304 8.87591C733.812 8.87591 732.104 10.7799 732.104 13.7479C732.104 16.6879 733.7 18.5919 736.192 18.5919C738.068 18.5919 739.468 17.6119 739.944 15.9879H742.576C742.044 18.9559 739.496 20.9439 736.192 20.9439C732.16 20.9439 729.5 18.0879 729.5 13.7759ZM748.041 20.6079H745.409V-9.15527e-05H748.041V13.3559L754.117 6.91591H757.421L752.185 12.3759L757.393 20.6079H754.369L750.365 14.2799L748.041 16.7159V20.6079ZM758.156 13.7759C758.156 9.49191 760.872 6.52391 764.876 6.52391C768.32 6.52391 770.728 8.48391 771.204 11.5359H768.572C768.124 9.79991 766.724 8.87591 764.96 8.87591C762.468 8.87591 760.76 10.7799 760.76 13.7479C760.76 16.6879 762.356 18.5919 764.848 18.5919C766.724 18.5919 768.124 17.6119 768.6 15.9879H771.232C770.7 18.9559 768.152 20.9439 764.848 20.9439C760.816 20.9439 758.156 18.0879 758.156 13.7759ZM776.641 20.5799H774.009V-9.15527e-05H776.641V9.01591C777.509 7.53191 779.161 6.52391 781.289 6.52391C784.789 6.52391 786.469 8.73591 786.469 12.2359V20.6079H783.837V12.8239C783.837 10.0519 782.521 8.93191 780.561 8.93191C778.013 8.93191 776.641 10.7799 776.641 13.1319V20.5799ZM794.119 20.9439C791.179 20.9439 789.443 19.2919 789.443 16.7999C789.443 14.2799 791.319 12.7119 794.539 12.4599L798.851 12.1239V11.7319C798.851 9.43591 797.479 8.62391 795.631 8.62391C793.419 8.62391 792.159 9.60391 792.159 11.2559H789.863C789.863 8.39991 792.215 6.52391 795.743 6.52391C799.131 6.52391 801.427 8.31591 801.427 12.0119V20.6079H799.187L798.907 18.3959C798.207 19.9639 796.331 20.9439 794.119 20.9439ZM794.875 18.8999C797.367 18.8999 798.879 17.2759 798.879 14.6999V13.9719L795.379 14.2519C793.055 14.4759 792.103 15.3719 792.103 16.7159C792.103 18.1719 793.167 18.8999 794.875 18.8999ZM806.36 3.66791C805.408 3.66791 804.624 2.88391 804.624 1.93191C804.624 0.95191 805.408 0.195909 806.36 0.195909C807.312 0.195909 808.096 0.95191 808.096 1.93191C808.096 2.88391 807.312 3.66791 806.36 3.66791ZM805.072 20.6079V6.91591H807.704V20.6079H805.072ZM814.157 20.6079H811.525V6.91591H813.905L814.185 9.01591C815.053 7.44791 816.789 6.52391 818.721 6.52391C822.333 6.52391 823.985 8.73591 823.985 12.2359V20.6079H821.353V12.8239C821.353 10.0519 820.065 8.93191 818.049 8.93191C815.585 8.93191 814.157 10.6959 814.157 13.3559V20.6079ZM839.291 20.9439C836.351 20.9439 834.615 19.2919 834.615 16.7999C834.615 14.2799 836.491 12.7119 839.711 12.4599L844.023 12.1239V11.7319C844.023 9.43591 842.651 8.62391 840.803 8.62391C838.591 8.62391 837.331 9.60391 837.331 11.2559H835.035C835.035 8.39991 837.387 6.52391 840.915 6.52391C844.303 6.52391 846.599 8.31591 846.599 12.0119V20.6079H844.359L844.079 18.3959C843.379 19.9639 841.503 20.9439 839.291 20.9439ZM840.047 18.8999C842.539 18.8999 844.051 17.2759 844.051 14.6999V13.9719L840.551 14.2519C838.227 14.4759 837.275 15.3719 837.275 16.7159C837.275 18.1719 838.339 18.8999 840.047 18.8999ZM849.348 13.7759C849.348 9.49191 852.064 6.52391 856.068 6.52391C859.512 6.52391 861.92 8.48391 862.396 11.5359H859.764C859.316 9.79991 857.916 8.87591 856.152 8.87591C853.66 8.87591 851.952 10.7799 851.952 13.7479C851.952 16.6879 853.548 18.5919 856.04 18.5919C857.916 18.5919 859.316 17.6119 859.792 15.9879H862.424C861.892 18.9559 859.344 20.9439 856.04 20.9439C852.008 20.9439 849.348 18.0879 849.348 13.7759ZM869.065 20.6079H866.433V9.12791H863.745V6.91591H866.433V2.63191H869.065V6.91591H871.753V9.12791H869.065V20.6079ZM875.403 3.66791C874.451 3.66791 873.667 2.88391 873.667 1.93191C873.667 0.95191 874.451 0.195909 875.403 0.195909C876.355 0.195909 877.139 0.95191 877.139 1.93191C877.139 2.88391 876.355 3.66791 875.403 3.66791ZM874.115 20.6079V6.91591H876.747V20.6079H874.115ZM879.672 13.7479C879.672 9.51991 882.696 6.55191 886.812 6.55191C890.9 6.55191 893.924 9.51991 893.924 13.7479C893.924 17.9759 890.9 20.9439 886.812 20.9439C882.696 20.9439 879.672 17.9759 879.672 13.7479ZM882.332 13.7479C882.332 16.6039 884.152 18.5919 886.812 18.5919C889.444 18.5919 891.292 16.6039 891.292 13.7479C891.292 10.8919 889.444 8.90391 886.812 8.90391C884.152 8.90391 882.332 10.8919 882.332 13.7479ZM899.47 20.6079H896.838V6.91591H899.218L899.498 9.01591C900.366 7.44791 902.102 6.52391 904.034 6.52391C907.646 6.52391 909.298 8.73591 909.298 12.2359V20.6079H906.666V12.8239C906.666 10.0519 905.378 8.93191 903.362 8.93191C900.898 8.93191 899.47 10.6959 899.47 13.3559V20.6079ZM911.659 16.6319H914.179C914.179 18.0319 915.243 18.8719 916.979 18.8719C918.827 18.8719 919.891 18.1159 919.891 16.8559C919.891 15.9319 919.443 15.3719 918.015 15.0079L915.607 14.4479C913.171 13.8599 912.023 12.6559 912.023 10.6399C912.023 8.11991 914.151 6.52391 917.175 6.52391C920.171 6.52391 922.131 8.20391 922.187 10.8079H919.667C919.611 9.43591 918.687 8.56791 917.091 8.56791C915.439 8.56791 914.515 9.29591 914.515 10.5559C914.515 11.4799 915.187 12.0959 916.531 12.4319L918.939 13.0199C921.263 13.5799 922.411 14.6439 922.411 16.6879C922.411 19.2919 920.171 20.9439 916.923 20.9439C913.703 20.9439 911.659 19.2359 911.659 16.6319ZM942.45 6.91591H945.054V20.6079H942.702L942.422 18.5359C941.638 19.9639 939.818 20.9439 937.802 20.9439C934.61 20.9439 932.818 18.7879 932.818 15.4279V6.91591H935.45V14.5599C935.45 17.4999 936.71 18.6199 938.726 18.6199C941.134 18.6199 942.45 17.0799 942.45 14.1399V6.91591ZM947.479 16.6319H949.999C949.999 18.0319 951.063 18.8719 952.799 18.8719C954.647 18.8719 955.711 18.1159 955.711 16.8559C955.711 15.9319 955.263 15.3719 953.835 15.0079L951.427 14.4479C948.991 13.8599 947.843 12.6559 947.843 10.6399C947.843 8.11991 949.971 6.52391 952.995 6.52391C955.991 6.52391 957.951 8.20391 958.007 10.8079H955.487C955.431 9.43591 954.507 8.56791 952.911 8.56791C951.259 8.56791 950.335 9.29591 950.335 10.5559C950.335 11.4799 951.007 12.0959 952.351 12.4319L954.759 13.0199C957.083 13.5799 958.231 14.6439 958.231 16.6879C958.231 19.2919 955.991 20.9439 952.743 20.9439C949.523 20.9439 947.479 19.2359 947.479 16.6319ZM967.058 20.9439C963.026 20.9439 960.254 18.0319 960.254 13.7759C960.254 9.49191 962.97 6.52391 966.946 6.52391C970.838 6.52391 973.386 9.21191 973.386 13.2719V14.2519L962.802 14.2799C962.998 17.1639 964.51 18.7599 967.114 18.7599C969.158 18.7599 970.502 17.9199 970.95 16.3519H973.414C972.742 19.2919 970.446 20.9439 967.058 20.9439ZM966.946 8.73591C964.65 8.73591 963.194 10.1079 962.858 12.5159H970.754C970.754 10.2479 969.27 8.73591 966.946 8.73591ZM981.814 20.9439C977.838 20.9439 975.43 17.9759 975.43 13.8039C975.43 9.60391 977.866 6.52391 981.926 6.52391C984.026 6.52391 985.79 7.44791 986.714 9.12791V-9.15527e-05H989.318V20.6079H986.966L986.742 18.1159C985.846 19.9919 983.998 20.9439 981.814 20.9439ZM982.346 18.5639C985.034 18.5639 986.686 16.5759 986.686 13.7199C986.686 10.9199 985.034 8.90391 982.346 8.90391C979.658 8.90391 978.09 10.9199 978.09 13.7199C978.09 16.5479 979.658 18.5639 982.346 18.5639ZM1004.78 20.9439C1001.84 20.9439 1000.1 19.2919 1000.1 16.7999C1000.1 14.2799 1001.98 12.7119 1005.2 12.4599L1009.51 12.1239V11.7319C1009.51 9.43591 1008.14 8.62391 1006.29 8.62391C1004.08 8.62391 1002.82 9.60391 1002.82 11.2559H1000.52C1000.52 8.39991 1002.87 6.52391 1006.4 6.52391C1009.79 6.52391 1012.08 8.31591 1012.08 12.0119V20.6079H1009.84L1009.56 18.3959C1008.86 19.9639 1006.99 20.9439 1004.78 20.9439ZM1005.53 18.8999C1008.02 18.8999 1009.54 17.2759 1009.54 14.6999V13.9719L1006.04 14.2519C1003.71 14.4759 1002.76 15.3719 1002.76 16.7159C1002.76 18.1719 1003.82 18.8999 1005.53 18.8999ZM1014.83 13.7759C1014.83 9.49191 1017.55 6.52391 1021.55 6.52391C1025 6.52391 1027.4 8.48391 1027.88 11.5359H1025.25C1024.8 9.79991 1023.4 8.87591 1021.64 8.87591C1019.14 8.87591 1017.44 10.7799 1017.44 13.7479C1017.44 16.6879 1019.03 18.5919 1021.52 18.5919C1023.4 18.5919 1024.8 17.6119 1025.28 15.9879H1027.91C1027.38 18.9559 1024.83 20.9439 1021.52 20.9439C1017.49 20.9439 1014.83 18.0879 1014.83 13.7759ZM1038.53 6.80391V9.21191H1037.35C1034.86 9.21191 1033.32 10.7239 1033.32 13.3559V20.6079H1030.69V6.94391H1033.15L1033.32 9.01591C1033.88 7.58791 1035.25 6.63591 1037.13 6.63591C1037.6 6.63591 1037.99 6.69191 1038.53 6.80391ZM1039.61 13.7479C1039.61 9.51991 1042.63 6.55191 1046.75 6.55191C1050.83 6.55191 1053.86 9.51991 1053.86 13.7479C1053.86 17.9759 1050.83 20.9439 1046.75 20.9439C1042.63 20.9439 1039.61 17.9759 1039.61 13.7479ZM1042.27 13.7479C1042.27 16.6039 1044.09 18.5919 1046.75 18.5919C1049.38 18.5919 1051.23 16.6039 1051.23 13.7479C1051.23 10.8919 1049.38 8.90391 1046.75 8.90391C1044.09 8.90391 1042.27 10.8919 1042.27 13.7479ZM1055.65 16.6319H1058.17C1058.17 18.0319 1059.24 18.8719 1060.97 18.8719C1062.82 18.8719 1063.88 18.1159 1063.88 16.8559C1063.88 15.9319 1063.44 15.3719 1062.01 15.0079L1059.6 14.4479C1057.16 13.8599 1056.02 12.6559 1056.02 10.6399C1056.02 8.11991 1058.14 6.52391 1061.17 6.52391C1064.16 6.52391 1066.12 8.20391 1066.18 10.8079H1063.66C1063.6 9.43591 1062.68 8.56791 1061.08 8.56791C1059.43 8.56791 1058.51 9.29591 1058.51 10.5559C1058.51 11.4799 1059.18 12.0959 1060.52 12.4319L1062.93 13.0199C1065.26 13.5799 1066.4 14.6439 1066.4 16.6879C1066.4 19.2919 1064.16 20.9439 1060.92 20.9439C1057.7 20.9439 1055.65 19.2359 1055.65 16.6319ZM1068.2 16.6319H1070.72C1070.72 18.0319 1071.79 18.8719 1073.52 18.8719C1075.37 18.8719 1076.43 18.1159 1076.43 16.8559C1076.43 15.9319 1075.99 15.3719 1074.56 15.0079L1072.15 14.4479C1069.71 13.8599 1068.57 12.6559 1068.57 10.6399C1068.57 8.11991 1070.69 6.52391 1073.72 6.52391C1076.71 6.52391 1078.67 8.20391 1078.73 10.8079H1076.21C1076.15 9.43591 1075.23 8.56791 1073.63 8.56791C1071.98 8.56791 1071.06 9.29591 1071.06 10.5559C1071.06 11.4799 1071.73 12.0959 1073.07 12.4319L1075.48 13.0199C1077.81 13.5799 1078.95 14.6439 1078.95 16.6879C1078.95 19.2919 1076.71 20.9439 1073.47 20.9439C1070.25 20.9439 1068.2 19.2359 1068.2 16.6319ZM1098.8 20.6079V9.12791H1092.72V20.6079H1090.09V9.12791H1088.07V6.91591H1090.09V4.73191C1090.09 1.37191 1091.91 -9.15527e-05 1094.29 -9.15527e-05C1094.79 -9.15527e-05 1095.41 0.0279098 1095.91 0.111909V2.37991H1094.74C1093.14 2.37991 1092.72 3.24791 1092.72 4.73191V6.91591H1101.43V20.6079H1098.8ZM1100.11 3.55591C1099.16 3.55591 1098.43 2.82791 1098.43 1.87591C1098.43 0.92391 1099.16 0.195909 1100.11 0.195909C1101.04 0.195909 1101.76 0.92391 1101.76 1.87591C1101.76 2.82791 1101.04 3.55591 1100.11 3.55591ZM1107.8 20.6079H1105.17V6.91591H1107.55L1107.83 9.01591C1108.7 7.44791 1110.43 6.52391 1112.37 6.52391C1115.98 6.52391 1117.63 8.73591 1117.63 12.2359V20.6079H1115V12.8239C1115 10.0519 1113.71 8.93191 1111.69 8.93191C1109.23 8.93191 1107.8 10.6959 1107.8 13.3559V20.6079ZM1125.14 20.6079H1122.51V9.12791H1119.82V6.91591H1122.51V2.63191H1125.14V6.91591H1127.83V9.12791H1125.14V20.6079ZM1135.96 20.9439C1131.93 20.9439 1129.16 18.0319 1129.16 13.7759C1129.16 9.49191 1131.87 6.52391 1135.85 6.52391C1139.74 6.52391 1142.29 9.21191 1142.29 13.2719V14.2519L1131.7 14.2799C1131.9 17.1639 1133.41 18.7599 1136.02 18.7599C1138.06 18.7599 1139.4 17.9199 1139.85 16.3519H1142.32C1141.64 19.2919 1139.35 20.9439 1135.96 20.9439ZM1135.85 8.73591C1133.55 8.73591 1132.1 10.1079 1131.76 12.5159H1139.66C1139.66 10.2479 1138.17 8.73591 1135.85 8.73591ZM1144.33 13.7759C1144.33 9.49191 1147.05 6.52391 1151.05 6.52391C1154.5 6.52391 1156.9 8.48391 1157.38 11.5359H1154.75C1154.3 9.79991 1152.9 8.87591 1151.14 8.87591C1148.64 8.87591 1146.94 10.7799 1146.94 13.7479C1146.94 16.6879 1148.53 18.5919 1151.02 18.5919C1152.9 18.5919 1154.3 17.6119 1154.78 15.9879H1157.41C1156.88 18.9559 1154.33 20.9439 1151.02 20.9439C1146.99 20.9439 1144.33 18.0879 1144.33 13.7759ZM1162.82 20.5799H1160.19V-9.15527e-05H1162.82V9.01591C1163.69 7.53191 1165.34 6.52391 1167.47 6.52391C1170.97 6.52391 1172.65 8.73591 1172.65 12.2359V20.6079H1170.01V12.8239C1170.01 10.0519 1168.7 8.93191 1166.74 8.93191C1164.19 8.93191 1162.82 10.7799 1162.82 13.1319V20.5799ZM1187.95 20.9439C1185.01 20.9439 1183.27 19.2919 1183.27 16.7999C1183.27 14.2799 1185.15 12.7119 1188.37 12.4599L1192.68 12.1239V11.7319C1192.68 9.43591 1191.31 8.62391 1189.46 8.62391C1187.25 8.62391 1185.99 9.60391 1185.99 11.2559H1183.69C1183.69 8.39991 1186.05 6.52391 1189.57 6.52391C1192.96 6.52391 1195.26 8.31591 1195.26 12.0119V20.6079H1193.02L1192.74 18.3959C1192.04 19.9639 1190.16 20.9439 1187.95 20.9439ZM1188.71 18.8999C1191.2 18.8999 1192.71 17.2759 1192.71 14.6999V13.9719L1189.21 14.2519C1186.89 14.4759 1185.93 15.3719 1185.93 16.7159C1185.93 18.1719 1187 18.8999 1188.71 18.8999ZM1198.9 26.7399V6.91591H1201.28L1201.48 9.37991C1202.4 7.50391 1204.25 6.52391 1206.44 6.52391C1210.36 6.52391 1212.79 9.46391 1212.79 13.6639C1212.79 17.8359 1210.5 20.9719 1206.44 20.9719C1204.25 20.9719 1202.43 20.0479 1201.54 18.3679V26.7399H1198.9ZM1201.56 13.7759C1201.56 16.5759 1203.19 18.5919 1205.88 18.5919C1208.56 18.5919 1210.16 16.5759 1210.16 13.7759C1210.16 10.9479 1208.56 8.93191 1205.88 8.93191C1203.19 8.93191 1201.56 10.9199 1201.56 13.7759ZM1215.69 26.7399V6.91591H1218.07L1218.27 9.37991C1219.19 7.50391 1221.04 6.52391 1223.23 6.52391C1227.15 6.52391 1229.58 9.46391 1229.58 13.6639C1229.58 17.8359 1227.29 20.9719 1223.23 20.9719C1221.04 20.9719 1219.22 20.0479 1218.33 18.3679V26.7399H1215.69ZM1218.35 13.7759C1218.35 16.5759 1219.98 18.5919 1222.67 18.5919C1225.35 18.5919 1226.95 16.5759 1226.95 13.7759C1226.95 10.9479 1225.35 8.93191 1222.67 8.93191C1219.98 8.93191 1218.35 10.9199 1218.35 13.7759ZM1231.36 16.6319H1233.88C1233.88 18.0319 1234.95 18.8719 1236.68 18.8719C1238.53 18.8719 1239.59 18.1159 1239.59 16.8559C1239.59 15.9319 1239.15 15.3719 1237.72 15.0079L1235.31 14.4479C1232.87 13.8599 1231.73 12.6559 1231.73 10.6399C1231.73 8.11991 1233.85 6.52391 1236.88 6.52391C1239.87 6.52391 1241.83 8.20391 1241.89 10.8079H1239.37C1239.31 9.43591 1238.39 8.56791 1236.79 8.56791C1235.14 8.56791 1234.22 9.29591 1234.22 10.5559C1234.22 11.4799 1234.89 12.0959 1236.23 12.4319L1238.64 13.0199C1240.97 13.5799 1242.11 14.6439 1242.11 16.6879C1242.11 19.2919 1239.87 20.9439 1236.63 20.9439C1233.41 20.9439 1231.36 19.2359 1231.36 16.6319ZM1248.82 19.5159C1248.82 21.5319 1247.3 23.2119 1245.32 23.4639V22.2879C1246.46 22.0919 1247.28 21.3359 1247.28 20.4679C1247.08 20.5799 1246.86 20.6359 1246.52 20.6359C1245.6 20.6359 1244.81 19.9639 1244.81 18.9279C1244.81 17.8079 1245.57 16.9959 1246.69 16.9959C1247.86 16.9959 1248.82 17.9759 1248.82 19.5159ZM1264.13 20.6079H1261.5V9.12791H1258.81V6.91591H1261.5V2.63191H1264.13V6.91591H1266.82V9.12791H1264.13V20.6079ZM1277.02 6.80391V9.21191H1275.84C1273.35 9.21191 1271.81 10.7239 1271.81 13.3559V20.6079H1269.18V6.94391H1271.64L1271.81 9.01591C1272.37 7.58791 1273.74 6.63591 1275.62 6.63591C1276.09 6.63591 1276.49 6.69191 1277.02 6.80391ZM1282.94 20.9439C1280 20.9439 1278.27 19.2919 1278.27 16.7999C1278.27 14.2799 1280.14 12.7119 1283.36 12.4599L1287.68 12.1239V11.7319C1287.68 9.43591 1286.3 8.62391 1284.46 8.62391C1282.24 8.62391 1280.98 9.60391 1280.98 11.2559H1278.69C1278.69 8.39991 1281.04 6.52391 1284.57 6.52391C1287.96 6.52391 1290.25 8.31591 1290.25 12.0119V20.6079H1288.01L1287.73 18.3959C1287.03 19.9639 1285.16 20.9439 1282.94 20.9439ZM1283.7 18.8999C1286.19 18.8999 1287.7 17.2759 1287.7 14.6999V13.9719L1284.2 14.2519C1281.88 14.4759 1280.93 15.3719 1280.93 16.7159C1280.93 18.1719 1281.99 18.8999 1283.7 18.8999ZM1299.38 20.9439C1295.41 20.9439 1293 17.9759 1293 13.8039C1293 9.60391 1295.44 6.52391 1299.5 6.52391C1301.6 6.52391 1303.36 7.44791 1304.28 9.12791V-9.15527e-05H1306.89V20.6079H1304.54L1304.31 18.1159C1303.42 19.9919 1301.57 20.9439 1299.38 20.9439ZM1299.92 18.5639C1302.6 18.5639 1304.26 16.5759 1304.26 13.7199C1304.26 10.9199 1302.6 8.90391 1299.92 8.90391C1297.23 8.90391 1295.66 10.9199 1295.66 13.7199C1295.66 16.5479 1297.23 18.5639 1299.92 18.5639ZM1311.97 3.66791C1311.02 3.66791 1310.24 2.88391 1310.24 1.93191C1310.24 0.95191 1311.02 0.195909 1311.97 0.195909C1312.93 0.195909 1313.71 0.95191 1313.71 1.93191C1313.71 2.88391 1312.93 3.66791 1311.97 3.66791ZM1310.69 20.6079V6.91591H1313.32V20.6079H1310.69ZM1319.77 20.6079H1317.14V6.91591H1319.52L1319.8 9.01591C1320.67 7.44791 1322.4 6.52391 1324.33 6.52391C1327.95 6.52391 1329.6 8.73591 1329.6 12.2359V20.6079H1326.97V12.8239C1326.97 10.0519 1325.68 8.93191 1323.66 8.93191C1321.2 8.93191 1319.77 10.6959 1319.77 13.3559V20.6079ZM1332.38 13.4119C1332.38 9.54791 1334.87 6.52391 1338.84 6.52391C1341.06 6.52391 1342.76 7.53191 1343.63 9.23991L1343.83 6.91591H1346.18V20.0479C1346.18 24.3599 1343.52 27.1039 1339.32 27.1039C1335.6 27.1039 1333.05 25.0039 1332.54 21.5319H1335.18C1335.51 23.5479 1337.02 24.7239 1339.32 24.7239C1341.9 24.7239 1343.58 23.0439 1343.58 20.4399V17.6959C1342.68 19.2919 1340.89 20.2439 1338.73 20.2439C1334.84 20.2439 1332.38 17.2479 1332.38 13.4119ZM1335.01 13.3559C1335.01 15.9319 1336.6 17.9479 1339.18 17.9479C1341.84 17.9479 1343.46 16.0439 1343.46 13.3559C1343.46 10.7239 1341.9 8.81991 1339.21 8.81991C1336.58 8.81991 1335.01 10.8359 1335.01 13.3559ZM1363.12 20.9439C1359.15 20.9439 1356.74 17.9759 1356.74 13.8039C1356.74 9.60391 1359.17 6.52391 1363.23 6.52391C1365.33 6.52391 1367.1 7.44791 1368.02 9.12791V-9.15527e-05H1370.63V20.6079H1368.27L1368.05 18.1159C1367.15 19.9919 1365.31 20.9439 1363.12 20.9439ZM1363.65 18.5639C1366.34 18.5639 1367.99 16.5759 1367.99 13.7199C1367.99 10.9199 1366.34 8.90391 1363.65 8.90391C1360.97 8.90391 1359.4 10.9199 1359.4 13.7199C1359.4 16.5479 1360.97 18.5639 1363.65 18.5639ZM1378.43 20.9439C1375.49 20.9439 1373.75 19.2919 1373.75 16.7999C1373.75 14.2799 1375.63 12.7119 1378.85 12.4599L1383.16 12.1239V11.7319C1383.16 9.43591 1381.79 8.62391 1379.94 8.62391C1377.73 8.62391 1376.47 9.60391 1376.47 11.2559H1374.17C1374.17 8.39991 1376.52 6.52391 1380.05 6.52391C1383.44 6.52391 1385.74 8.31591 1385.74 12.0119V20.6079H1383.5L1383.22 18.3959C1382.52 19.9639 1380.64 20.9439 1378.43 20.9439ZM1379.18 18.8999C1381.68 18.8999 1383.19 17.2759 1383.19 14.6999V13.9719L1379.69 14.2519C1377.36 14.4759 1376.41 15.3719 1376.41 16.7159C1376.41 18.1719 1377.48 18.8999 1379.18 18.8999ZM1388.26 16.6319H1390.78C1390.78 18.0319 1391.84 18.8719 1393.58 18.8719C1395.43 18.8719 1396.49 18.1159 1396.49 16.8559C1396.49 15.9319 1396.04 15.3719 1394.62 15.0079L1392.21 14.4479C1389.77 13.8599 1388.62 12.6559 1388.62 10.6399C1388.62 8.11991 1390.75 6.52391 1393.78 6.52391C1396.77 6.52391 1398.73 8.20391 1398.79 10.8079H1396.27C1396.21 9.43591 1395.29 8.56791 1393.69 8.56791C1392.04 8.56791 1391.12 9.29591 1391.12 10.5559C1391.12 11.4799 1391.79 12.0959 1393.13 12.4319L1395.54 13.0199C1397.86 13.5799 1399.01 14.6439 1399.01 16.6879C1399.01 19.2919 1396.77 20.9439 1393.52 20.9439C1390.3 20.9439 1388.26 19.2359 1388.26 16.6319ZM1404.56 20.5799H1401.93V-9.15527e-05H1404.56V9.01591C1405.43 7.53191 1407.08 6.52391 1409.21 6.52391C1412.71 6.52391 1414.39 8.73591 1414.39 12.2359V20.6079H1411.76V12.8239C1411.76 10.0519 1410.44 8.93191 1408.48 8.93191C1405.94 8.93191 1404.56 10.7799 1404.56 13.1319V20.5799ZM1420.42 20.6079H1418.04V-9.15527e-05H1420.67V9.26791C1421.56 7.47591 1423.41 6.52391 1425.65 6.52391C1429.57 6.52391 1431.92 9.60391 1431.92 13.8319C1431.92 17.9759 1429.46 20.9439 1425.48 20.9439C1423.33 20.9439 1421.51 19.9919 1420.61 18.1159L1420.42 20.6079ZM1420.7 13.7199C1420.7 16.5759 1422.32 18.5639 1425.01 18.5639C1427.7 18.5639 1429.29 16.5479 1429.29 13.7199C1429.29 10.9199 1427.7 8.90391 1425.01 8.90391C1422.32 8.90391 1420.7 10.9199 1420.7 13.7199ZM1433.93 13.7479C1433.93 9.51991 1436.95 6.55191 1441.07 6.55191C1445.16 6.55191 1448.18 9.51991 1448.18 13.7479C1448.18 17.9759 1445.16 20.9439 1441.07 20.9439C1436.95 20.9439 1433.93 17.9759 1433.93 13.7479ZM1436.59 13.7479C1436.59 16.6039 1438.41 18.5919 1441.07 18.5919C1443.7 18.5919 1445.55 16.6039 1445.55 13.7479C1445.55 10.8919 1443.7 8.90391 1441.07 8.90391C1438.41 8.90391 1436.59 10.8919 1436.59 13.7479ZM1455.1 20.9439C1452.16 20.9439 1450.42 19.2919 1450.42 16.7999C1450.42 14.2799 1452.3 12.7119 1455.52 12.4599L1459.83 12.1239V11.7319C1459.83 9.43591 1458.46 8.62391 1456.61 8.62391C1454.4 8.62391 1453.14 9.60391 1453.14 11.2559H1450.84C1450.84 8.39991 1453.2 6.52391 1456.72 6.52391C1460.11 6.52391 1462.41 8.31591 1462.41 12.0119V20.6079H1460.17L1459.89 18.3959C1459.19 19.9639 1457.31 20.9439 1455.1 20.9439ZM1455.86 18.8999C1458.35 18.8999 1459.86 17.2759 1459.86 14.6999V13.9719L1456.36 14.2519C1454.04 14.4759 1453.08 15.3719 1453.08 16.7159C1453.08 18.1719 1454.15 18.8999 1455.86 18.8999ZM1473.89 6.80391V9.21191H1472.72C1470.22 9.21191 1468.68 10.7239 1468.68 13.3559V20.6079H1466.05V6.94391H1468.52L1468.68 9.01591C1469.24 7.58791 1470.62 6.63591 1472.49 6.63591C1472.97 6.63591 1473.36 6.69191 1473.89 6.80391ZM1481.36 20.9439C1477.38 20.9439 1474.97 17.9759 1474.97 13.8039C1474.97 9.60391 1477.41 6.52391 1481.47 6.52391C1483.57 6.52391 1485.33 7.44791 1486.26 9.12791V-9.15527e-05H1488.86V20.6079H1486.51L1486.28 18.1159C1485.39 19.9919 1483.54 20.9439 1481.36 20.9439ZM1481.89 18.5639C1484.58 18.5639 1486.23 16.5759 1486.23 13.7199C1486.23 10.9199 1484.58 8.90391 1481.89 8.90391C1479.2 8.90391 1477.63 10.9199 1477.63 13.7199C1477.63 16.5479 1479.2 18.5639 1481.89 18.5639ZM1491.54 16.6319H1494.06C1494.06 18.0319 1495.12 18.8719 1496.86 18.8719C1498.71 18.8719 1499.77 18.1159 1499.77 16.8559C1499.77 15.9319 1499.32 15.3719 1497.89 15.0079L1495.49 14.4479C1493.05 13.8599 1491.9 12.6559 1491.9 10.6399C1491.9 8.11991 1494.03 6.52391 1497.05 6.52391C1500.05 6.52391 1502.01 8.20391 1502.07 10.8079H1499.55C1499.49 9.43591 1498.57 8.56791 1496.97 8.56791C1495.32 8.56791 1494.39 9.29591 1494.39 10.5559C1494.39 11.4799 1495.07 12.0959 1496.41 12.4319L1498.82 13.0199C1501.14 13.5799 1502.29 14.6439 1502.29 16.6879C1502.29 19.2919 1500.05 20.9439 1496.8 20.9439C1493.58 20.9439 1491.54 19.2359 1491.54 16.6319ZM1508.99 19.5159C1508.99 21.5319 1507.48 23.2119 1505.49 23.4639V22.2879C1506.64 22.0919 1507.45 21.3359 1507.45 20.4679C1507.26 20.5799 1507.03 20.6359 1506.7 20.6359C1505.77 20.6359 1504.99 19.9639 1504.99 18.9279C1504.99 17.8079 1505.74 16.9959 1506.86 16.9959C1508.04 16.9959 1508.99 17.9759 1508.99 19.5159ZM1524.44 20.9439C1521.5 20.9439 1519.77 19.2919 1519.77 16.7999C1519.77 14.2799 1521.64 12.7119 1524.86 12.4599L1529.18 12.1239V11.7319C1529.18 9.43591 1527.8 8.62391 1525.96 8.62391C1523.74 8.62391 1522.48 9.60391 1522.48 11.2559H1520.19C1520.19 8.39991 1522.54 6.52391 1526.07 6.52391C1529.46 6.52391 1531.75 8.31591 1531.75 12.0119V20.6079H1529.51L1529.23 18.3959C1528.53 19.9639 1526.66 20.9439 1524.44 20.9439ZM1525.2 18.8999C1527.69 18.8999 1529.2 17.2759 1529.2 14.6999V13.9719L1525.7 14.2519C1523.38 14.4759 1522.43 15.3719 1522.43 16.7159C1522.43 18.1719 1523.49 18.8999 1525.2 18.8999ZM1538.03 20.6079H1535.4V6.91591H1537.78L1538.06 9.01591C1538.92 7.44791 1540.66 6.52391 1542.59 6.52391C1546.2 6.52391 1547.86 8.73591 1547.86 12.2359V20.6079H1545.22V12.8239C1545.22 10.0519 1543.94 8.93191 1541.92 8.93191C1539.46 8.93191 1538.03 10.6959 1538.03 13.3559V20.6079ZM1556.99 20.9439C1553.01 20.9439 1550.61 17.9759 1550.61 13.8039C1550.61 9.60391 1553.04 6.52391 1557.1 6.52391C1559.2 6.52391 1560.97 7.44791 1561.89 9.12791V-9.15527e-05H1564.49V20.6079H1562.14L1561.92 18.1159C1561.02 19.9919 1559.17 20.9439 1556.99 20.9439ZM1557.52 18.5639C1560.21 18.5639 1561.86 16.5759 1561.86 13.7199C1561.86 10.9199 1560.21 8.90391 1557.52 8.90391C1554.83 8.90391 1553.27 10.9199 1553.27 13.7199C1553.27 16.5479 1554.83 18.5639 1557.52 18.5639ZM1581.43 20.9439C1577.46 20.9439 1575.05 17.9759 1575.05 13.8039C1575.05 9.60391 1577.49 6.52391 1581.55 6.52391C1583.65 6.52391 1585.41 7.44791 1586.33 9.12791V-9.15527e-05H1588.94V20.6079H1586.59L1586.36 18.1159C1585.47 19.9919 1583.62 20.9439 1581.43 20.9439ZM1581.97 18.5639C1584.65 18.5639 1586.31 16.5759 1586.31 13.7199C1586.31 10.9199 1584.65 8.90391 1581.97 8.90391C1579.28 8.90391 1577.71 10.9199 1577.71 13.7199C1577.71 16.5479 1579.28 18.5639 1581.97 18.5639ZM1594.02 3.66791C1593.07 3.66791 1592.29 2.88391 1592.29 1.93191C1592.29 0.95191 1593.07 0.195909 1594.02 0.195909C1594.98 0.195909 1595.76 0.95191 1595.76 1.93191C1595.76 2.88391 1594.98 3.66791 1594.02 3.66791ZM1592.74 20.6079V6.91591H1595.37V20.6079H1592.74ZM1598.32 13.4119C1598.32 9.54791 1600.81 6.52391 1604.79 6.52391C1607 6.52391 1608.71 7.53191 1609.58 9.23991L1609.77 6.91591H1612.13V20.0479C1612.13 24.3599 1609.47 27.1039 1605.27 27.1039C1601.54 27.1039 1598.99 25.0039 1598.49 21.5319H1601.12C1601.46 23.5479 1602.97 24.7239 1605.27 24.7239C1607.84 24.7239 1609.52 23.0439 1609.52 20.4399V17.6959C1608.63 19.2919 1606.83 20.2439 1604.68 20.2439C1600.79 20.2439 1598.32 17.2479 1598.32 13.4119ZM1600.95 13.3559C1600.95 15.9319 1602.55 17.9479 1605.13 17.9479C1607.79 17.9479 1609.41 16.0439 1609.41 13.3559C1609.41 10.7239 1607.84 8.81991 1605.15 8.81991C1602.52 8.81991 1600.95 10.8359 1600.95 13.3559ZM1617.21 3.66791C1616.26 3.66791 1615.48 2.88391 1615.48 1.93191C1615.48 0.95191 1616.26 0.195909 1617.21 0.195909C1618.16 0.195909 1618.95 0.95191 1618.95 1.93191C1618.95 2.88391 1618.16 3.66791 1617.21 3.66791ZM1615.92 20.6079V6.91591H1618.56V20.6079H1615.92ZM1626.24 20.6079H1623.61V9.12791H1620.92V6.91591H1623.61V2.63191H1626.24V6.91591H1628.93V9.12791H1626.24V20.6079ZM1635.13 20.9439C1632.19 20.9439 1630.45 19.2919 1630.45 16.7999C1630.45 14.2799 1632.33 12.7119 1635.55 12.4599L1639.86 12.1239V11.7319C1639.86 9.43591 1638.49 8.62391 1636.64 8.62391C1634.43 8.62391 1633.17 9.60391 1633.17 11.2559H1630.87C1630.87 8.39991 1633.23 6.52391 1636.75 6.52391C1640.14 6.52391 1642.44 8.31591 1642.44 12.0119V20.6079H1640.2L1639.92 18.3959C1639.22 19.9639 1637.34 20.9439 1635.13 20.9439ZM1635.89 18.8999C1638.38 18.8999 1639.89 17.2759 1639.89 14.6999V13.9719L1636.39 14.2519C1634.07 14.4759 1633.11 15.3719 1633.11 16.7159C1633.11 18.1719 1634.18 18.8999 1635.89 18.8999ZM1648.77 20.6079H1646.14V-9.15527e-05H1648.77V20.6079ZM1664.31 20.9439C1661.37 20.9439 1659.63 19.2919 1659.63 16.7999C1659.63 14.2799 1661.51 12.7119 1664.73 12.4599L1669.04 12.1239V11.7319C1669.04 9.43591 1667.67 8.62391 1665.82 8.62391C1663.61 8.62391 1662.35 9.60391 1662.35 11.2559H1660.05C1660.05 8.39991 1662.4 6.52391 1665.93 6.52391C1669.32 6.52391 1671.61 8.31591 1671.61 12.0119V20.6079H1669.37L1669.09 18.3959C1668.39 19.9639 1666.52 20.9439 1664.31 20.9439ZM1665.06 18.8999C1667.55 18.8999 1669.07 17.2759 1669.07 14.6999V13.9719L1665.57 14.2519C1663.24 14.4759 1662.29 15.3719 1662.29 16.7159C1662.29 18.1719 1663.35 18.8999 1665.06 18.8999ZM1674.14 16.6319H1676.66C1676.66 18.0319 1677.72 18.8719 1679.46 18.8719C1681.31 18.8719 1682.37 18.1159 1682.37 16.8559C1682.37 15.9319 1681.92 15.3719 1680.5 15.0079L1678.09 14.4479C1675.65 13.8599 1674.5 12.6559 1674.5 10.6399C1674.5 8.11991 1676.63 6.52391 1679.66 6.52391C1682.65 6.52391 1684.61 8.20391 1684.67 10.8079H1682.15C1682.09 9.43591 1681.17 8.56791 1679.57 8.56791C1677.92 8.56791 1677 9.29591 1677 10.5559C1677 11.4799 1677.67 12.0959 1679.01 12.4319L1681.42 13.0199C1683.74 13.5799 1684.89 14.6439 1684.89 16.6879C1684.89 19.2919 1682.65 20.9439 1679.4 20.9439C1676.18 20.9439 1674.14 19.2359 1674.14 16.6319ZM1686.69 16.6319H1689.21C1689.21 18.0319 1690.27 18.8719 1692.01 18.8719C1693.86 18.8719 1694.92 18.1159 1694.92 16.8559C1694.92 15.9319 1694.47 15.3719 1693.05 15.0079L1690.64 14.4479C1688.2 13.8599 1687.05 12.6559 1687.05 10.6399C1687.05 8.11991 1689.18 6.52391 1692.21 6.52391C1695.2 6.52391 1697.16 8.20391 1697.22 10.8079H1694.7C1694.64 9.43591 1693.72 8.56791 1692.12 8.56791C1690.47 8.56791 1689.55 9.29591 1689.55 10.5559C1689.55 11.4799 1690.22 12.0959 1691.56 12.4319L1693.97 13.0199C1696.29 13.5799 1697.44 14.6439 1697.44 16.6879C1697.44 19.2919 1695.2 20.9439 1691.95 20.9439C1688.73 20.9439 1686.69 19.2359 1686.69 16.6319ZM1706.27 20.9439C1702.24 20.9439 1699.47 18.0319 1699.47 13.7759C1699.47 9.49191 1702.18 6.52391 1706.16 6.52391C1710.05 6.52391 1712.6 9.21191 1712.6 13.2719V14.2519L1702.01 14.2799C1702.21 17.1639 1703.72 18.7599 1706.33 18.7599C1708.37 18.7599 1709.71 17.9199 1710.16 16.3519H1712.63C1711.95 19.2919 1709.66 20.9439 1706.27 20.9439ZM1706.16 8.73591C1703.86 8.73591 1702.41 10.1079 1702.07 12.5159H1709.97C1709.97 10.2479 1708.48 8.73591 1706.16 8.73591ZM1719.26 20.6079H1716.63V9.12791H1713.94V6.91591H1716.63V2.63191H1719.26V6.91591H1721.95V9.12791H1719.26V20.6079ZM1731.97 26.7399V6.91591H1734.35L1734.55 9.37991C1735.47 7.50391 1737.32 6.52391 1739.5 6.52391C1743.42 6.52391 1745.86 9.46391 1745.86 13.6639C1745.86 17.8359 1743.56 20.9719 1739.5 20.9719C1737.32 20.9719 1735.5 20.0479 1734.6 18.3679V26.7399H1731.97ZM1734.63 13.7759C1734.63 16.5759 1736.25 18.5919 1738.94 18.5919C1741.63 18.5919 1743.23 16.5759 1743.23 13.7759C1743.23 10.9479 1741.63 8.93191 1738.94 8.93191C1736.25 8.93191 1734.63 10.9199 1734.63 13.7759ZM1751.45 20.6079H1748.82V-9.15527e-05H1751.45V20.6079ZM1759.33 20.9439C1756.39 20.9439 1754.65 19.2919 1754.65 16.7999C1754.65 14.2799 1756.53 12.7119 1759.75 12.4599L1764.06 12.1239V11.7319C1764.06 9.43591 1762.69 8.62391 1760.84 8.62391C1758.63 8.62391 1757.37 9.60391 1757.37 11.2559H1755.07C1755.07 8.39991 1757.42 6.52391 1760.95 6.52391C1764.34 6.52391 1766.63 8.31591 1766.63 12.0119V20.6079H1764.39L1764.11 18.3959C1763.41 19.9639 1761.54 20.9439 1759.33 20.9439ZM1760.08 18.8999C1762.57 18.8999 1764.09 17.2759 1764.09 14.6999V13.9719L1760.59 14.2519C1758.26 14.4759 1757.31 15.3719 1757.31 16.7159C1757.31 18.1719 1758.37 18.8999 1760.08 18.8999ZM1773.92 20.6079H1771.29V9.12791H1768.6V6.91591H1771.29V2.63191H1773.92V6.91591H1776.61V9.12791H1773.92V20.6079ZM1777.76 6.91591H1779.78V4.73191C1779.78 1.37191 1781.63 -9.15527e-05 1784.12 -9.15527e-05C1784.62 -9.15527e-05 1785.21 0.0279098 1785.74 0.111909V2.37991H1784.57C1782.86 2.37991 1782.41 3.24791 1782.41 4.73191V6.91591H1785.66V9.12791H1782.41V20.6079H1779.78V9.12791H1777.76V6.91591ZM1786.8 13.7479C1786.8 9.51991 1789.82 6.55191 1793.94 6.55191C1798.03 6.55191 1801.05 9.51991 1801.05 13.7479C1801.05 17.9759 1798.03 20.9439 1793.94 20.9439C1789.82 20.9439 1786.8 17.9759 1786.8 13.7479ZM1789.46 13.7479C1789.46 16.6039 1791.28 18.5919 1793.94 18.5919C1796.57 18.5919 1798.42 16.6039 1798.42 13.7479C1798.42 10.8919 1796.57 8.90391 1793.94 8.90391C1791.28 8.90391 1789.46 10.8919 1789.46 13.7479ZM1811.81 6.80391V9.21191H1810.63C1808.14 9.21191 1806.6 10.7239 1806.6 13.3559V20.6079H1803.97V6.94391H1806.43L1806.6 9.01591C1807.16 7.58791 1808.53 6.63591 1810.41 6.63591C1810.88 6.63591 1811.27 6.69191 1811.81 6.80391ZM1816.91 20.6079H1814.28V6.91591H1816.63L1816.88 8.70791C1817.58 7.41991 1819.04 6.52391 1820.97 6.52391C1823.1 6.52391 1824.61 7.58791 1825.31 9.29591C1825.95 7.58791 1827.6 6.52391 1829.73 6.52391C1832.87 6.52391 1834.77 8.48391 1834.77 11.6479V20.6079H1832.2V12.2919C1832.2 10.1359 1830.99 8.90391 1829.14 8.90391C1827.16 8.90391 1825.84 10.3039 1825.84 12.4879V20.6079H1823.24V12.2639C1823.24 10.1079 1822.06 8.93191 1820.21 8.93191C1818.22 8.93191 1816.91 10.3039 1816.91 12.4879V20.6079ZM1837.14 16.6319H1839.66C1839.66 18.0319 1840.72 18.8719 1842.46 18.8719C1844.3 18.8719 1845.37 18.1159 1845.37 16.8559C1845.37 15.9319 1844.92 15.3719 1843.49 15.0079L1841.08 14.4479C1838.65 13.8599 1837.5 12.6559 1837.5 10.6399C1837.5 8.11991 1839.63 6.52391 1842.65 6.52391C1845.65 6.52391 1847.61 8.20391 1847.66 10.8079H1845.14C1845.09 9.43591 1844.16 8.56791 1842.57 8.56791C1840.92 8.56791 1839.99 9.29591 1839.99 10.5559C1839.99 11.4799 1840.66 12.0959 1842.01 12.4319L1844.42 13.0199C1846.74 13.5799 1847.89 14.6439 1847.89 16.6879C1847.89 19.2919 1845.65 20.9439 1842.4 20.9439C1839.18 20.9439 1837.14 19.2359 1837.14 16.6319ZM1852.6 20.9439C1851.51 20.9439 1850.59 20.0479 1850.59 18.9839C1850.59 17.8919 1851.51 16.9959 1852.6 16.9959C1853.67 16.9959 1854.59 17.8919 1854.59 18.9839C1854.59 20.0479 1853.67 20.9439 1852.6 20.9439Z" fill="black"/>
</svg>
