<svg width="2063" height="28" viewBox="0 0 2063 28" fill="none" xmlns="http://www.w3.org/2000/svg">
<path d="M2.74395 0.364397V20.6084H-5.06043e-05V0.364397H2.74395ZM6.12079 13.7764C6.12079 9.4924 8.83679 6.5244 12.8408 6.5244C16.2848 6.5244 18.6928 8.4844 19.1688 11.5364H16.5368C16.0888 9.8004 14.6888 8.8764 12.9248 8.8764C10.4328 8.8764 8.72479 10.7804 8.72479 13.7484C8.72479 16.6884 10.3208 18.5924 12.8128 18.5924C14.6888 18.5924 16.0888 17.6124 16.5648 15.9884H19.1968C18.6648 18.9564 16.1168 20.9444 12.8128 20.9444C8.78079 20.9444 6.12079 18.0884 6.12079 13.7764ZM21.0778 13.7484C21.0778 9.5204 24.1018 6.5524 28.2178 6.5524C32.3058 6.5524 35.3298 9.5204 35.3298 13.7484C35.3298 17.9764 32.3058 20.9444 28.2178 20.9444C24.1018 20.9444 21.0778 17.9764 21.0778 13.7484ZM23.7378 13.7484C23.7378 16.6044 25.5578 18.5924 28.2178 18.5924C30.8498 18.5924 32.6978 16.6044 32.6978 13.7484C32.6978 10.8924 30.8498 8.9044 28.2178 8.9044C25.5578 8.9044 23.7378 10.8924 23.7378 13.7484ZM40.8754 20.6084H38.2434V6.9164H40.6234L40.9034 9.0164C41.7714 7.4484 43.5074 6.5244 45.4394 6.5244C49.0514 6.5244 50.7034 8.7364 50.7034 12.2364V20.6084H48.0714V12.8244C48.0714 10.0524 46.7834 8.9324 44.7674 8.9324C42.3034 8.9324 40.8754 10.6964 40.8754 13.3564V20.6084ZM53.0648 16.6324H55.5848C55.5848 18.0324 56.6488 18.8724 58.3848 18.8724C60.2328 18.8724 61.2968 18.1164 61.2968 16.8564C61.2968 15.9324 60.8488 15.3724 59.4208 15.0084L57.0128 14.4484C54.5768 13.8604 53.4288 12.6564 53.4288 10.6404C53.4288 8.1204 55.5568 6.5244 58.5808 6.5244C61.5768 6.5244 63.5368 8.2044 63.5928 10.8084H61.0728C61.0168 9.4364 60.0928 8.5684 58.4968 8.5684C56.8448 8.5684 55.9208 9.2964 55.9208 10.5564C55.9208 11.4804 56.5928 12.0964 57.9368 12.4324L60.3448 13.0204C62.6688 13.5804 63.8168 14.6444 63.8168 16.6884C63.8168 19.2924 61.5768 20.9444 58.3288 20.9444C55.1088 20.9444 53.0648 19.2364 53.0648 16.6324ZM72.9358 6.9164H74.9518V4.7324C74.9518 1.3724 76.7998 0.000396729 79.2918 0.000396729C79.7958 0.000396729 80.3838 0.028398 80.9158 0.112397V2.3804H79.7398C78.0318 2.3804 77.5838 3.2484 77.5838 4.7324V6.9164H80.8318V9.1284H77.5838V20.6084H74.9518V9.1284H72.9358V6.9164ZM81.9724 13.7484C81.9724 9.5204 84.9964 6.5524 89.1124 6.5524C93.2004 6.5524 96.2244 9.5204 96.2244 13.7484C96.2244 17.9764 93.2004 20.9444 89.1124 20.9444C84.9964 20.9444 81.9724 17.9764 81.9724 13.7484ZM84.6324 13.7484C84.6324 16.6044 86.4524 18.5924 89.1124 18.5924C91.7444 18.5924 93.5924 16.6044 93.5924 13.7484C93.5924 10.8924 91.7444 8.9044 89.1124 8.9044C86.4524 8.9044 84.6324 10.8924 84.6324 13.7484ZM106.978 6.8044V9.2124H105.802C103.31 9.2124 101.77 10.7244 101.77 13.3564V20.6084H99.1379V6.9444H101.602L101.77 9.0164C102.33 7.5884 103.702 6.6364 105.578 6.6364C106.054 6.6364 106.446 6.6924 106.978 6.8044ZM119.735 20.5804H117.103V0.000396729H119.735V9.0164C120.603 7.5324 122.255 6.5244 124.383 6.5244C127.883 6.5244 129.563 8.7364 129.563 12.2364V20.6084H126.931V12.8244C126.931 10.0524 125.615 8.9324 123.655 8.9324C121.107 8.9324 119.735 10.7804 119.735 13.1324V20.5804ZM139.116 20.9444C135.084 20.9444 132.312 18.0324 132.312 13.7764C132.312 9.4924 135.028 6.5244 139.004 6.5244C142.896 6.5244 145.444 9.2124 145.444 13.2724V14.2524L134.86 14.2804C135.056 17.1644 136.568 18.7604 139.172 18.7604C141.216 18.7604 142.56 17.9204 143.008 16.3524H145.472C144.8 19.2924 142.504 20.9444 139.116 20.9444ZM139.004 8.7364C136.708 8.7364 135.252 10.1084 134.916 12.5164H142.812C142.812 10.2484 141.328 8.7364 139.004 8.7364ZM151.072 20.6084H148.44V0.000396729H151.072V20.6084ZM154.946 26.7404V6.9164H157.326L157.522 9.3804C158.446 7.5044 160.294 6.5244 162.478 6.5244C166.398 6.5244 168.834 9.4644 168.834 13.6644C168.834 17.8364 166.538 20.9724 162.478 20.9724C160.294 20.9724 158.474 20.0484 157.578 18.3684V26.7404H154.946ZM157.606 13.7764C157.606 16.5764 159.23 18.5924 161.918 18.5924C164.606 18.5924 166.202 16.5764 166.202 13.7764C166.202 10.9484 164.606 8.9324 161.918 8.9324C159.23 8.9324 157.606 10.9204 157.606 13.7764ZM183.396 20.9444C180.456 20.9444 178.72 19.2924 178.72 16.8004C178.72 14.2804 180.596 12.7124 183.816 12.4604L188.128 12.1244V11.7324C188.128 9.4364 186.756 8.6244 184.908 8.6244C182.696 8.6244 181.436 9.6044 181.436 11.2564H179.14C179.14 8.4004 181.492 6.5244 185.02 6.5244C188.408 6.5244 190.704 8.3164 190.704 12.0124V20.6084H188.464L188.184 18.3964C187.484 19.9644 185.608 20.9444 183.396 20.9444ZM184.152 18.9004C186.644 18.9004 188.156 17.2764 188.156 14.7004V13.9724L184.656 14.2524C182.332 14.4764 181.38 15.3724 181.38 16.7164C181.38 18.1724 182.444 18.9004 184.152 18.9004ZM193.453 13.7764C193.453 9.4924 196.169 6.5244 200.173 6.5244C203.617 6.5244 206.025 8.4844 206.501 11.5364H203.869C203.421 9.8004 202.021 8.8764 200.257 8.8764C197.765 8.8764 196.057 10.7804 196.057 13.7484C196.057 16.6884 197.653 18.5924 200.145 18.5924C202.021 18.5924 203.421 17.6124 203.897 15.9884H206.529C205.997 18.9564 203.449 20.9444 200.145 20.9444C196.113 20.9444 193.453 18.0884 193.453 13.7764ZM213.17 20.6084H210.538V9.1284H207.85V6.9164H210.538V2.6324H213.17V6.9164H215.858V9.1284H213.17V20.6084ZM219.508 3.6684C218.556 3.6684 217.772 2.8844 217.772 1.9324C217.772 0.952398 218.556 0.196398 219.508 0.196398C220.46 0.196398 221.244 0.952398 221.244 1.9324C221.244 2.8844 220.46 3.6684 219.508 3.6684ZM218.22 20.6084V6.9164H220.852V20.6084H218.22ZM223.777 13.7484C223.777 9.5204 226.801 6.5524 230.917 6.5524C235.005 6.5524 238.029 9.5204 238.029 13.7484C238.029 17.9764 235.005 20.9444 230.917 20.9444C226.801 20.9444 223.777 17.9764 223.777 13.7484ZM226.437 13.7484C226.437 16.6044 228.257 18.5924 230.917 18.5924C233.549 18.5924 235.397 16.6044 235.397 13.7484C235.397 10.8924 233.549 8.9044 230.917 8.9044C228.257 8.9044 226.437 10.8924 226.437 13.7484ZM243.575 20.6084H240.943V6.9164H243.323L243.603 9.0164C244.471 7.4484 246.207 6.5244 248.139 6.5244C251.751 6.5244 253.403 8.7364 253.403 12.2364V20.6084H250.771V12.8244C250.771 10.0524 249.483 8.9324 247.467 8.9324C245.003 8.9324 243.575 10.6964 243.575 13.3564V20.6084ZM255.764 16.6324H258.284C258.284 18.0324 259.348 18.8724 261.084 18.8724C262.932 18.8724 263.996 18.1164 263.996 16.8564C263.996 15.9324 263.548 15.3724 262.12 15.0084L259.712 14.4484C257.276 13.8604 256.128 12.6564 256.128 10.6404C256.128 8.1204 258.256 6.5244 261.28 6.5244C264.276 6.5244 266.236 8.2044 266.292 10.8084H263.772C263.716 9.4364 262.792 8.5684 261.196 8.5684C259.544 8.5684 258.62 9.2964 258.62 10.5564C258.62 11.4804 259.292 12.0964 260.636 12.4324L263.044 13.0204C265.368 13.5804 266.516 14.6444 266.516 16.6884C266.516 19.2924 264.276 20.9444 261.028 20.9444C257.808 20.9444 255.764 19.2364 255.764 16.6324ZM273.219 19.5164C273.219 21.5324 271.707 23.2124 269.719 23.4644V22.2884C270.867 22.0924 271.679 21.3364 271.679 20.4684C271.483 20.5804 271.259 20.6364 270.923 20.6364C269.999 20.6364 269.215 19.9644 269.215 18.9284C269.215 17.8084 269.971 16.9964 271.091 16.9964C272.267 16.9964 273.219 17.9764 273.219 19.5164ZM283.209 6.9164H285.225V4.7324C285.225 1.3724 287.073 0.000396729 289.565 0.000396729C290.069 0.000396729 290.657 0.028398 291.189 0.112397V2.3804H290.013C288.305 2.3804 287.857 3.2484 287.857 4.7324V6.9164H291.105V9.1284H287.857V20.6084H285.225V9.1284H283.209V6.9164ZM299.05 20.9444C295.018 20.9444 292.246 18.0324 292.246 13.7764C292.246 9.4924 294.962 6.5244 298.938 6.5244C302.83 6.5244 305.378 9.2124 305.378 13.2724V14.2524L294.794 14.2804C294.99 17.1644 296.502 18.7604 299.106 18.7604C301.15 18.7604 302.494 17.9204 302.942 16.3524H305.406C304.734 19.2924 302.438 20.9444 299.05 20.9444ZM298.938 8.7364C296.642 8.7364 295.186 10.1084 294.85 12.5164H302.746C302.746 10.2484 301.262 8.7364 298.938 8.7364ZM314.226 20.9444C310.194 20.9444 307.422 18.0324 307.422 13.7764C307.422 9.4924 310.138 6.5244 314.114 6.5244C318.006 6.5244 320.554 9.2124 320.554 13.2724V14.2524L309.97 14.2804C310.166 17.1644 311.678 18.7604 314.282 18.7604C316.326 18.7604 317.67 17.9204 318.118 16.3524H320.582C319.91 19.2924 317.614 20.9444 314.226 20.9444ZM314.114 8.7364C311.818 8.7364 310.362 10.1084 310.026 12.5164H317.922C317.922 10.2484 316.438 8.7364 314.114 8.7364ZM328.981 20.9444C325.005 20.9444 322.597 17.9764 322.597 13.8044C322.597 9.6044 325.033 6.5244 329.093 6.5244C331.193 6.5244 332.957 7.4484 333.881 9.1284V0.000396729H336.485V20.6084H334.133L333.909 18.1164C333.013 19.9924 331.165 20.9444 328.981 20.9444ZM329.513 18.5644C332.201 18.5644 333.853 16.5764 333.853 13.7204C333.853 10.9204 332.201 8.9044 329.513 8.9044C326.825 8.9044 325.257 10.9204 325.257 13.7204C325.257 16.5484 326.825 18.5644 329.513 18.5644ZM342.662 20.6084H340.282V0.000396729H342.914V9.2684C343.81 7.4764 345.658 6.5244 347.898 6.5244C351.818 6.5244 354.17 9.6044 354.17 13.8324C354.17 17.9764 351.706 20.9444 347.73 20.9444C345.574 20.9444 343.754 19.9924 342.858 18.1164L342.662 20.6084ZM342.942 13.7204C342.942 16.5764 344.566 18.5644 347.254 18.5644C349.942 18.5644 351.538 16.5484 351.538 13.7204C351.538 10.9204 349.942 8.9044 347.254 8.9044C344.566 8.9044 342.942 10.9204 342.942 13.7204ZM361.075 20.9444C358.135 20.9444 356.399 19.2924 356.399 16.8004C356.399 14.2804 358.275 12.7124 361.495 12.4604L365.807 12.1244V11.7324C365.807 9.4364 364.435 8.6244 362.587 8.6244C360.375 8.6244 359.115 9.6044 359.115 11.2564H356.819C356.819 8.4004 359.171 6.5244 362.699 6.5244C366.087 6.5244 368.383 8.3164 368.383 12.0124V20.6084H366.143L365.863 18.3964C365.163 19.9644 363.287 20.9444 361.075 20.9444ZM361.831 18.9004C364.323 18.9004 365.835 17.2764 365.835 14.7004V13.9724L362.335 14.2524C360.011 14.4764 359.059 15.3724 359.059 16.7164C359.059 18.1724 360.123 18.9004 361.831 18.9004ZM371.133 13.7764C371.133 9.4924 373.849 6.5244 377.853 6.5244C381.297 6.5244 383.705 8.4844 384.181 11.5364H381.549C381.101 9.8004 379.701 8.8764 377.937 8.8764C375.445 8.8764 373.737 10.7804 373.737 13.7484C373.737 16.6884 375.333 18.5924 377.825 18.5924C379.701 18.5924 381.101 17.6124 381.577 15.9884H384.209C383.677 18.9564 381.129 20.9444 377.825 20.9444C373.793 20.9444 371.133 18.0884 371.133 13.7764ZM389.674 20.6084H387.042V0.000396729H389.674V13.3564L395.75 6.9164H399.054L393.818 12.3764L399.026 20.6084H396.002L391.998 14.2804L389.674 16.7164V20.6084ZM405.152 19.5164C405.152 21.5324 403.64 23.2124 401.652 23.4644V22.2884C402.8 22.0924 403.612 21.3364 403.612 20.4684C403.416 20.5804 403.192 20.6364 402.856 20.6364C401.932 20.6364 401.148 19.9644 401.148 18.9284C401.148 17.8084 401.904 16.9964 403.024 16.9964C404.2 16.9964 405.152 17.9764 405.152 19.5164ZM419.287 20.6084H416.655V0.000396729H419.287V20.6084ZM424.449 3.6684C423.497 3.6684 422.713 2.8844 422.713 1.9324C422.713 0.952398 423.497 0.196398 424.449 0.196398C425.401 0.196398 426.185 0.952398 426.185 1.9324C426.185 2.8844 425.401 3.6684 424.449 3.6684ZM423.161 20.6084V6.9164H425.793V20.6084H423.161ZM432.302 20.6084H429.67V0.000396729H432.302V13.3564L438.378 6.9164H441.682L436.446 12.3764L441.654 20.6084H438.63L434.626 14.2804L432.302 16.7164V20.6084ZM449.222 20.9444C445.19 20.9444 442.418 18.0324 442.418 13.7764C442.418 9.4924 445.134 6.5244 449.11 6.5244C453.002 6.5244 455.55 9.2124 455.55 13.2724V14.2524L444.966 14.2804C445.162 17.1644 446.674 18.7604 449.278 18.7604C451.322 18.7604 452.666 17.9204 453.114 16.3524H455.578C454.906 19.2924 452.61 20.9444 449.222 20.9444ZM449.11 8.7364C446.814 8.7364 445.358 10.1084 445.022 12.5164H452.918C452.918 10.2484 451.434 8.7364 449.11 8.7364ZM457.369 16.6324H459.889C459.889 18.0324 460.953 18.8724 462.689 18.8724C464.537 18.8724 465.601 18.1164 465.601 16.8564C465.601 15.9324 465.153 15.3724 463.725 15.0084L461.317 14.4484C458.881 13.8604 457.733 12.6564 457.733 10.6404C457.733 8.1204 459.861 6.5244 462.885 6.5244C465.881 6.5244 467.841 8.2044 467.897 10.8084H465.377C465.321 9.4364 464.397 8.5684 462.801 8.5684C461.149 8.5684 460.225 9.2964 460.225 10.5564C460.225 11.4804 460.897 12.0964 462.241 12.4324L464.649 13.0204C466.973 13.5804 468.121 14.6444 468.121 16.6884C468.121 19.2924 465.881 20.9444 462.633 20.9444C459.413 20.9444 457.369 19.2364 457.369 16.6324ZM474.824 19.5164C474.824 21.5324 473.312 23.2124 471.324 23.4644V22.2884C472.472 22.0924 473.284 21.3364 473.284 20.4684C473.088 20.5804 472.864 20.6364 472.528 20.6364C471.604 20.6364 470.82 19.9644 470.82 18.9284C470.82 17.8084 471.576 16.9964 472.696 16.9964C473.872 16.9964 474.824 17.9764 474.824 19.5164ZM485.375 13.6644C485.375 9.4644 487.839 6.5244 491.759 6.5244C493.915 6.5244 495.791 7.5044 496.687 9.3804L496.911 6.9164H499.263V26.7404H496.659V18.3684C495.735 20.0484 493.915 20.9724 491.731 20.9724C487.699 20.9724 485.375 17.8364 485.375 13.6644ZM488.035 13.7764C488.035 16.5764 489.603 18.5924 492.291 18.5924C494.979 18.5924 496.631 16.5764 496.631 13.7764C496.631 10.9204 494.979 8.9324 492.291 8.9324C489.603 8.9324 488.035 10.9484 488.035 13.7764ZM512.524 6.9164H515.128V20.6084H512.776L512.496 18.5364C511.712 19.9644 509.892 20.9444 507.876 20.9444C504.684 20.9444 502.892 18.7884 502.892 15.4284V6.9164H505.524V14.5604C505.524 17.5004 506.784 18.6204 508.8 18.6204C511.208 18.6204 512.524 17.0804 512.524 14.1404V6.9164ZM524.581 20.9444C520.549 20.9444 517.777 18.0324 517.777 13.7764C517.777 9.4924 520.493 6.5244 524.469 6.5244C528.361 6.5244 530.909 9.2124 530.909 13.2724V14.2524L520.325 14.2804C520.521 17.1644 522.033 18.7604 524.637 18.7604C526.681 18.7604 528.025 17.9204 528.473 16.3524H530.937C530.265 19.2924 527.969 20.9444 524.581 20.9444ZM524.469 8.7364C522.173 8.7364 520.717 10.1084 520.381 12.5164H528.277C528.277 10.2484 526.793 8.7364 524.469 8.7364ZM532.729 16.6324H535.249C535.249 18.0324 536.313 18.8724 538.049 18.8724C539.897 18.8724 540.961 18.1164 540.961 16.8564C540.961 15.9324 540.513 15.3724 539.085 15.0084L536.677 14.4484C534.241 13.8604 533.093 12.6564 533.093 10.6404C533.093 8.1204 535.221 6.5244 538.245 6.5244C541.241 6.5244 543.201 8.2044 543.257 10.8084H540.737C540.681 9.4364 539.757 8.5684 538.161 8.5684C536.509 8.5684 535.585 9.2964 535.585 10.5564C535.585 11.4804 536.257 12.0964 537.601 12.4324L540.009 13.0204C542.333 13.5804 543.481 14.6444 543.481 16.6884C543.481 19.2924 541.241 20.9444 537.993 20.9444C534.773 20.9444 532.729 19.2364 532.729 16.6324ZM550.264 20.6084H547.632V9.1284H544.944V6.9164H547.632V2.6324H550.264V6.9164H552.952V9.1284H550.264V20.6084ZM556.602 3.6684C555.65 3.6684 554.866 2.8844 554.866 1.9324C554.866 0.952398 555.65 0.196398 556.602 0.196398C557.554 0.196398 558.338 0.952398 558.338 1.9324C558.338 2.8844 557.554 3.6684 556.602 3.6684ZM555.314 20.6084V6.9164H557.946V20.6084H555.314ZM560.871 13.7484C560.871 9.5204 563.895 6.5524 568.011 6.5524C572.099 6.5524 575.123 9.5204 575.123 13.7484C575.123 17.9764 572.099 20.9444 568.011 20.9444C563.895 20.9444 560.871 17.9764 560.871 13.7484ZM563.531 13.7484C563.531 16.6044 565.351 18.5924 568.011 18.5924C570.643 18.5924 572.491 16.6044 572.491 13.7484C572.491 10.8924 570.643 8.9044 568.011 8.9044C565.351 8.9044 563.531 10.8924 563.531 13.7484ZM580.668 20.6084H578.036V6.9164H580.416L580.696 9.0164C581.564 7.4484 583.3 6.5244 585.232 6.5244C588.844 6.5244 590.496 8.7364 590.496 12.2364V20.6084H587.864V12.8244C587.864 10.0524 586.576 8.9324 584.56 8.9324C582.096 8.9324 580.668 10.6964 580.668 13.3564V20.6084ZM592.858 16.6324H595.378C595.378 18.0324 596.442 18.8724 598.178 18.8724C600.026 18.8724 601.09 18.1164 601.09 16.8564C601.09 15.9324 600.642 15.3724 599.214 15.0084L596.806 14.4484C594.37 13.8604 593.222 12.6564 593.222 10.6404C593.222 8.1204 595.35 6.5244 598.374 6.5244C601.37 6.5244 603.33 8.2044 603.386 10.8084H600.866C600.81 9.4364 599.886 8.5684 598.29 8.5684C596.638 8.5684 595.714 9.2964 595.714 10.5564C595.714 11.4804 596.386 12.0964 597.73 12.4324L600.138 13.0204C602.462 13.5804 603.61 14.6444 603.61 16.6884C603.61 19.2924 601.37 20.9444 598.122 20.9444C594.902 20.9444 592.858 19.2364 592.858 16.6324ZM610.312 19.5164C610.312 21.5324 608.8 23.2124 606.812 23.4644V22.2884C607.96 22.0924 608.772 21.3364 608.772 20.4684C608.576 20.5804 608.352 20.6364 608.016 20.6364C607.092 20.6364 606.308 19.9644 606.308 18.9284C606.308 17.8084 607.064 16.9964 608.184 16.9964C609.36 16.9964 610.312 17.9764 610.312 19.5164ZM625.763 20.9444C622.823 20.9444 621.087 19.2924 621.087 16.8004C621.087 14.2804 622.963 12.7124 626.183 12.4604L630.495 12.1244V11.7324C630.495 9.4364 629.123 8.6244 627.275 8.6244C625.063 8.6244 623.803 9.6044 623.803 11.2564H621.507C621.507 8.4004 623.859 6.5244 627.387 6.5244C630.775 6.5244 633.071 8.3164 633.071 12.0124V20.6084H630.831L630.551 18.3964C629.851 19.9644 627.975 20.9444 625.763 20.9444ZM626.519 18.9004C629.011 18.9004 630.523 17.2764 630.523 14.7004V13.9724L627.023 14.2524C624.699 14.4764 623.747 15.3724 623.747 16.7164C623.747 18.1724 624.811 18.9004 626.519 18.9004ZM639.348 20.6084H636.716V6.9164H639.096L639.376 9.0164C640.244 7.4484 641.98 6.5244 643.912 6.5244C647.524 6.5244 649.176 8.7364 649.176 12.2364V20.6084H646.544V12.8244C646.544 10.0524 645.256 8.9324 643.24 8.9324C640.776 8.9324 639.348 10.6964 639.348 13.3564V20.6084ZM658.309 20.9444C654.333 20.9444 651.925 17.9764 651.925 13.8044C651.925 9.6044 654.361 6.5244 658.421 6.5244C660.521 6.5244 662.285 7.4484 663.209 9.1284V0.000396729H665.813V20.6084H663.461L663.237 18.1164C662.341 19.9924 660.493 20.9444 658.309 20.9444ZM658.841 18.5644C661.529 18.5644 663.181 16.5764 663.181 13.7204C663.181 10.9204 661.529 8.9044 658.841 8.9044C656.153 8.9044 654.585 10.9204 654.585 13.7204C654.585 16.5484 656.153 18.5644 658.841 18.5644ZM678.555 3.6684C677.603 3.6684 676.819 2.8844 676.819 1.9324C676.819 0.952398 677.603 0.196398 678.555 0.196398C679.507 0.196398 680.291 0.952398 680.291 1.9324C680.291 2.8844 679.507 3.6684 678.555 3.6684ZM677.267 20.6084V6.9164H679.899V20.6084H677.267ZM686.352 20.6084H683.72V6.9164H686.1L686.38 9.0164C687.248 7.4484 688.984 6.5244 690.916 6.5244C694.528 6.5244 696.18 8.7364 696.18 12.2364V20.6084H693.548V12.8244C693.548 10.0524 692.26 8.9324 690.244 8.9324C687.78 8.9324 686.352 10.6964 686.352 13.3564V20.6084ZM703.689 20.6084H701.057V9.1284H698.369V6.9164H701.057V2.6324H703.689V6.9164H706.377V9.1284H703.689V20.6084ZM714.511 20.9444C710.479 20.9444 707.707 18.0324 707.707 13.7764C707.707 9.4924 710.423 6.5244 714.399 6.5244C718.291 6.5244 720.839 9.2124 720.839 13.2724V14.2524L710.255 14.2804C710.451 17.1644 711.963 18.7604 714.567 18.7604C716.611 18.7604 717.955 17.9204 718.403 16.3524H720.867C720.195 19.2924 717.899 20.9444 714.511 20.9444ZM714.399 8.7364C712.103 8.7364 710.647 10.1084 710.311 12.5164H718.207C718.207 10.2484 716.723 8.7364 714.399 8.7364ZM731.619 6.8044V9.2124H730.443C727.951 9.2124 726.411 10.7244 726.411 13.3564V20.6084H723.779V6.9444H726.243L726.411 9.0164C726.971 7.5884 728.343 6.6364 730.219 6.6364C730.695 6.6364 731.087 6.6924 731.619 6.8044ZM737.544 20.9444C734.604 20.9444 732.868 19.2924 732.868 16.8004C732.868 14.2804 734.744 12.7124 737.964 12.4604L742.276 12.1244V11.7324C742.276 9.4364 740.904 8.6244 739.056 8.6244C736.844 8.6244 735.584 9.6044 735.584 11.2564H733.288C733.288 8.4004 735.64 6.5244 739.168 6.5244C742.556 6.5244 744.852 8.3164 744.852 12.0124V20.6084H742.612L742.332 18.3964C741.632 19.9644 739.756 20.9444 737.544 20.9444ZM738.3 18.9004C740.792 18.9004 742.304 17.2764 742.304 14.7004V13.9724L738.804 14.2524C736.48 14.4764 735.528 15.3724 735.528 16.7164C735.528 18.1724 736.592 18.9004 738.3 18.9004ZM747.601 13.7764C747.601 9.4924 750.317 6.5244 754.321 6.5244C757.765 6.5244 760.173 8.4844 760.649 11.5364H758.017C757.569 9.8004 756.169 8.8764 754.405 8.8764C751.913 8.8764 750.205 10.7804 750.205 13.7484C750.205 16.6884 751.801 18.5924 754.293 18.5924C756.169 18.5924 757.569 17.6124 758.045 15.9884H760.677C760.145 18.9564 757.597 20.9444 754.293 20.9444C750.261 20.9444 747.601 18.0884 747.601 13.7764ZM767.318 20.6084H764.686V9.1284H761.998V6.9164H764.686V2.6324H767.318V6.9164H770.006V9.1284H767.318V20.6084ZM773.656 3.6684C772.704 3.6684 771.92 2.8844 771.92 1.9324C771.92 0.952398 772.704 0.196398 773.656 0.196398C774.608 0.196398 775.392 0.952398 775.392 1.9324C775.392 2.8844 774.608 3.6684 773.656 3.6684ZM772.368 20.6084V6.9164H775V20.6084H772.368ZM777.925 13.7484C777.925 9.5204 780.949 6.5524 785.065 6.5524C789.153 6.5524 792.177 9.5204 792.177 13.7484C792.177 17.9764 789.153 20.9444 785.065 20.9444C780.949 20.9444 777.925 17.9764 777.925 13.7484ZM780.585 13.7484C780.585 16.6044 782.405 18.5924 785.065 18.5924C787.697 18.5924 789.545 16.6044 789.545 13.7484C789.545 10.8924 787.697 8.9044 785.065 8.9044C782.405 8.9044 780.585 10.8924 780.585 13.7484ZM797.723 20.6084H795.091V6.9164H797.471L797.751 9.0164C798.619 7.4484 800.355 6.5244 802.287 6.5244C805.899 6.5244 807.551 8.7364 807.551 12.2364V20.6084H804.919V12.8244C804.919 10.0524 803.631 8.9324 801.615 8.9324C799.151 8.9324 797.723 10.6964 797.723 13.3564V20.6084ZM817.733 16.6324H820.253C820.253 18.0324 821.317 18.8724 823.053 18.8724C824.901 18.8724 825.965 18.1164 825.965 16.8564C825.965 15.9324 825.517 15.3724 824.089 15.0084L821.681 14.4484C819.245 13.8604 818.097 12.6564 818.097 10.6404C818.097 8.1204 820.225 6.5244 823.249 6.5244C826.245 6.5244 828.205 8.2044 828.261 10.8084H825.741C825.685 9.4364 824.761 8.5684 823.165 8.5684C821.513 8.5684 820.589 9.2964 820.589 10.5564C820.589 11.4804 821.261 12.0964 822.605 12.4324L825.013 13.0204C827.337 13.5804 828.485 14.6444 828.485 16.6884C828.485 19.2924 826.245 20.9444 822.997 20.9444C819.777 20.9444 817.733 19.2364 817.733 16.6324ZM835.268 20.6084H832.636V9.1284H829.948V6.9164H832.636V2.6324H835.268V6.9164H837.956V9.1284H835.268V20.6084ZM844.158 20.9444C841.218 20.9444 839.482 19.2924 839.482 16.8004C839.482 14.2804 841.358 12.7124 844.578 12.4604L848.89 12.1244V11.7324C848.89 9.4364 847.518 8.6244 845.67 8.6244C843.458 8.6244 842.198 9.6044 842.198 11.2564H839.902C839.902 8.4004 842.254 6.5244 845.782 6.5244C849.17 6.5244 851.466 8.3164 851.466 12.0124V20.6084H849.226L848.946 18.3964C848.246 19.9644 846.37 20.9444 844.158 20.9444ZM844.914 18.9004C847.406 18.9004 848.918 17.2764 848.918 14.7004V13.9724L845.418 14.2524C843.094 14.4764 842.142 15.3724 842.142 16.7164C842.142 18.1724 843.206 18.9004 844.914 18.9004ZM858.756 20.6084H856.124V9.1284H853.436V6.9164H856.124V2.6324H858.756V6.9164H861.444V9.1284H858.756V20.6084ZM869.577 20.9444C865.545 20.9444 862.773 18.0324 862.773 13.7764C862.773 9.4924 865.489 6.5244 869.465 6.5244C873.357 6.5244 875.905 9.2124 875.905 13.2724V14.2524L865.321 14.2804C865.517 17.1644 867.029 18.7604 869.633 18.7604C871.677 18.7604 873.021 17.9204 873.469 16.3524H875.933C875.261 19.2924 872.965 20.9444 869.577 20.9444ZM869.465 8.7364C867.169 8.7364 865.713 10.1084 865.377 12.5164H873.273C873.273 10.2484 871.789 8.7364 869.465 8.7364ZM877.725 16.6324H880.245C880.245 18.0324 881.309 18.8724 883.045 18.8724C884.893 18.8724 885.957 18.1164 885.957 16.8564C885.957 15.9324 885.509 15.3724 884.081 15.0084L881.673 14.4484C879.237 13.8604 878.089 12.6564 878.089 10.6404C878.089 8.1204 880.217 6.5244 883.241 6.5244C886.237 6.5244 888.197 8.2044 888.253 10.8084H885.733C885.677 9.4364 884.753 8.5684 883.157 8.5684C881.505 8.5684 880.581 9.2964 880.581 10.5564C880.581 11.4804 881.253 12.0964 882.597 12.4324L885.005 13.0204C887.329 13.5804 888.477 14.6444 888.477 16.6884C888.477 19.2924 886.237 20.9444 882.989 20.9444C879.769 20.9444 877.725 19.2364 877.725 16.6324ZM908.516 6.9164H911.12V20.6084H908.768L908.488 18.5364C907.704 19.9644 905.884 20.9444 903.868 20.9444C900.676 20.9444 898.884 18.7884 898.884 15.4284V6.9164H901.516V14.5604C901.516 17.5004 902.776 18.6204 904.792 18.6204C907.2 18.6204 908.516 17.0804 908.516 14.1404V6.9164ZM913.545 16.6324H916.065C916.065 18.0324 917.129 18.8724 918.865 18.8724C920.713 18.8724 921.777 18.1164 921.777 16.8564C921.777 15.9324 921.329 15.3724 919.901 15.0084L917.493 14.4484C915.057 13.8604 913.909 12.6564 913.909 10.6404C913.909 8.1204 916.037 6.5244 919.061 6.5244C922.057 6.5244 924.017 8.2044 924.073 10.8084H921.553C921.497 9.4364 920.573 8.5684 918.977 8.5684C917.325 8.5684 916.401 9.2964 916.401 10.5564C916.401 11.4804 917.073 12.0964 918.417 12.4324L920.825 13.0204C923.149 13.5804 924.297 14.6444 924.297 16.6884C924.297 19.2924 922.057 20.9444 918.809 20.9444C915.589 20.9444 913.545 19.2364 913.545 16.6324ZM933.124 20.9444C929.092 20.9444 926.32 18.0324 926.32 13.7764C926.32 9.4924 929.036 6.5244 933.012 6.5244C936.904 6.5244 939.452 9.2124 939.452 13.2724V14.2524L928.868 14.2804C929.064 17.1644 930.576 18.7604 933.18 18.7604C935.224 18.7604 936.568 17.9204 937.016 16.3524H939.48C938.808 19.2924 936.512 20.9444 933.124 20.9444ZM933.012 8.7364C930.716 8.7364 929.26 10.1084 928.924 12.5164H936.82C936.82 10.2484 935.336 8.7364 933.012 8.7364ZM947.88 20.9444C943.904 20.9444 941.496 17.9764 941.496 13.8044C941.496 9.6044 943.932 6.5244 947.992 6.5244C950.092 6.5244 951.856 7.4484 952.78 9.1284V0.000396729H955.384V20.6084H953.032L952.808 18.1164C951.912 19.9924 950.064 20.9444 947.88 20.9444ZM948.412 18.5644C951.1 18.5644 952.752 16.5764 952.752 13.7204C952.752 10.9204 951.1 8.9044 948.412 8.9044C945.724 8.9044 944.156 10.9204 944.156 13.7204C944.156 16.5484 945.724 18.5644 948.412 18.5644ZM970.841 20.9444C967.901 20.9444 966.165 19.2924 966.165 16.8004C966.165 14.2804 968.041 12.7124 971.261 12.4604L975.573 12.1244V11.7324C975.573 9.4364 974.201 8.6244 972.353 8.6244C970.141 8.6244 968.881 9.6044 968.881 11.2564H966.585C966.585 8.4004 968.937 6.5244 972.465 6.5244C975.853 6.5244 978.149 8.3164 978.149 12.0124V20.6084H975.909L975.629 18.3964C974.929 19.9644 973.053 20.9444 970.841 20.9444ZM971.597 18.9004C974.089 18.9004 975.601 17.2764 975.601 14.7004V13.9724L972.101 14.2524C969.777 14.4764 968.825 15.3724 968.825 16.7164C968.825 18.1724 969.889 18.9004 971.597 18.9004ZM980.898 13.7764C980.898 9.4924 983.614 6.5244 987.618 6.5244C991.062 6.5244 993.47 8.4844 993.946 11.5364H991.314C990.866 9.8004 989.466 8.8764 987.702 8.8764C985.21 8.8764 983.502 10.7804 983.502 13.7484C983.502 16.6884 985.098 18.5924 987.59 18.5924C989.466 18.5924 990.866 17.6124 991.342 15.9884H993.974C993.442 18.9564 990.894 20.9444 987.59 20.9444C983.558 20.9444 980.898 18.0884 980.898 13.7764ZM1004.59 6.8044V9.2124H1003.42C1000.92 9.2124 999.383 10.7244 999.383 13.3564V20.6084H996.751V6.9444H999.215L999.383 9.0164C999.943 7.5884 1001.32 6.6364 1003.19 6.6364C1003.67 6.6364 1004.06 6.6924 1004.59 6.8044ZM1005.67 13.7484C1005.67 9.5204 1008.7 6.5524 1012.81 6.5524C1016.9 6.5524 1019.92 9.5204 1019.92 13.7484C1019.92 17.9764 1016.9 20.9444 1012.81 20.9444C1008.7 20.9444 1005.67 17.9764 1005.67 13.7484ZM1008.33 13.7484C1008.33 16.6044 1010.15 18.5924 1012.81 18.5924C1015.44 18.5924 1017.29 16.6044 1017.29 13.7484C1017.29 10.8924 1015.44 8.9044 1012.81 8.9044C1010.15 8.9044 1008.33 10.8924 1008.33 13.7484ZM1021.72 16.6324H1024.24C1024.24 18.0324 1025.3 18.8724 1027.04 18.8724C1028.89 18.8724 1029.95 18.1164 1029.95 16.8564C1029.95 15.9324 1029.5 15.3724 1028.07 15.0084L1025.67 14.4484C1023.23 13.8604 1022.08 12.6564 1022.08 10.6404C1022.08 8.1204 1024.21 6.5244 1027.23 6.5244C1030.23 6.5244 1032.19 8.2044 1032.25 10.8084H1029.73C1029.67 9.4364 1028.75 8.5684 1027.15 8.5684C1025.5 8.5684 1024.57 9.2964 1024.57 10.5564C1024.57 11.4804 1025.25 12.0964 1026.59 12.4324L1029 13.0204C1031.32 13.5804 1032.47 14.6444 1032.47 16.6884C1032.47 19.2924 1030.23 20.9444 1026.98 20.9444C1023.76 20.9444 1021.72 19.2364 1021.72 16.6324ZM1034.27 16.6324H1036.79C1036.79 18.0324 1037.85 18.8724 1039.59 18.8724C1041.44 18.8724 1042.5 18.1164 1042.5 16.8564C1042.5 15.9324 1042.05 15.3724 1040.62 15.0084L1038.22 14.4484C1035.78 13.8604 1034.63 12.6564 1034.63 10.6404C1034.63 8.1204 1036.76 6.5244 1039.78 6.5244C1042.78 6.5244 1044.74 8.2044 1044.8 10.8084H1042.28C1042.22 9.4364 1041.3 8.5684 1039.7 8.5684C1038.05 8.5684 1037.12 9.2964 1037.12 10.5564C1037.12 11.4804 1037.8 12.0964 1039.14 12.4324L1041.55 13.0204C1043.87 13.5804 1045.02 14.6444 1045.02 16.6884C1045.02 19.2924 1042.78 20.9444 1039.53 20.9444C1036.31 20.9444 1034.27 19.2364 1034.27 16.6324ZM1061.08 20.9444C1057.11 20.9444 1054.7 17.9764 1054.7 13.8044C1054.7 9.6044 1057.13 6.5244 1061.19 6.5244C1063.29 6.5244 1065.06 7.4484 1065.98 9.1284V0.000396729H1068.59V20.6084H1066.23L1066.01 18.1164C1065.11 19.9924 1063.27 20.9444 1061.08 20.9444ZM1061.61 18.5644C1064.3 18.5644 1065.95 16.5764 1065.95 13.7204C1065.95 10.9204 1064.3 8.9044 1061.61 8.9044C1058.93 8.9044 1057.36 10.9204 1057.36 13.7204C1057.36 16.5484 1058.93 18.5644 1061.61 18.5644ZM1076.39 20.9444C1073.45 20.9444 1071.71 19.2924 1071.71 16.8004C1071.71 14.2804 1073.59 12.7124 1076.81 12.4604L1081.12 12.1244V11.7324C1081.12 9.4364 1079.75 8.6244 1077.9 8.6244C1075.69 8.6244 1074.43 9.6044 1074.43 11.2564H1072.13C1072.13 8.4004 1074.48 6.5244 1078.01 6.5244C1081.4 6.5244 1083.7 8.3164 1083.7 12.0124V20.6084H1081.46L1081.18 18.3964C1080.48 19.9644 1078.6 20.9444 1076.39 20.9444ZM1077.14 18.9004C1079.64 18.9004 1081.15 17.2764 1081.15 14.7004V13.9724L1077.65 14.2524C1075.32 14.4764 1074.37 15.3724 1074.37 16.7164C1074.37 18.1724 1075.44 18.9004 1077.14 18.9004ZM1086.22 16.6324H1088.74C1088.74 18.0324 1089.81 18.8724 1091.54 18.8724C1093.39 18.8724 1094.45 18.1164 1094.45 16.8564C1094.45 15.9324 1094.01 15.3724 1092.58 15.0084L1090.17 14.4484C1087.73 13.8604 1086.59 12.6564 1086.59 10.6404C1086.59 8.1204 1088.71 6.5244 1091.74 6.5244C1094.73 6.5244 1096.69 8.2044 1096.75 10.8084H1094.23C1094.17 9.4364 1093.25 8.5684 1091.65 8.5684C1090 8.5684 1089.08 9.2964 1089.08 10.5564C1089.08 11.4804 1089.75 12.0964 1091.09 12.4324L1093.5 13.0204C1095.83 13.5804 1096.97 14.6444 1096.97 16.6884C1096.97 19.2924 1094.73 20.9444 1091.49 20.9444C1088.27 20.9444 1086.22 19.2364 1086.22 16.6324ZM1102.52 20.5804H1099.89V0.000396729H1102.52V9.0164C1103.39 7.5324 1105.04 6.5244 1107.17 6.5244C1110.67 6.5244 1112.35 8.7364 1112.35 12.2364V20.6084H1109.72V12.8244C1109.72 10.0524 1108.4 8.9324 1106.44 8.9324C1103.9 8.9324 1102.52 10.7804 1102.52 13.1324V20.5804ZM1118.38 20.6084H1116V0.000396729H1118.63V9.2684C1119.53 7.4764 1121.37 6.5244 1123.61 6.5244C1127.53 6.5244 1129.89 9.6044 1129.89 13.8324C1129.89 17.9764 1127.42 20.9444 1123.45 20.9444C1121.29 20.9444 1119.47 19.9924 1118.57 18.1164L1118.38 20.6084ZM1118.66 13.7204C1118.66 16.5764 1120.28 18.5644 1122.97 18.5644C1125.66 18.5644 1127.25 16.5484 1127.25 13.7204C1127.25 10.9204 1125.66 8.9044 1122.97 8.9044C1120.28 8.9044 1118.66 10.9204 1118.66 13.7204ZM1131.89 13.7484C1131.89 9.5204 1134.91 6.5524 1139.03 6.5524C1143.12 6.5524 1146.14 9.5204 1146.14 13.7484C1146.14 17.9764 1143.12 20.9444 1139.03 20.9444C1134.91 20.9444 1131.89 17.9764 1131.89 13.7484ZM1134.55 13.7484C1134.55 16.6044 1136.37 18.5924 1139.03 18.5924C1141.66 18.5924 1143.51 16.6044 1143.51 13.7484C1143.51 10.8924 1141.66 8.9044 1139.03 8.9044C1136.37 8.9044 1134.55 10.8924 1134.55 13.7484ZM1153.06 20.9444C1150.12 20.9444 1148.38 19.2924 1148.38 16.8004C1148.38 14.2804 1150.26 12.7124 1153.48 12.4604L1157.79 12.1244V11.7324C1157.79 9.4364 1156.42 8.6244 1154.57 8.6244C1152.36 8.6244 1151.1 9.6044 1151.1 11.2564H1148.8C1148.8 8.4004 1151.16 6.5244 1154.68 6.5244C1158.07 6.5244 1160.37 8.3164 1160.37 12.0124V20.6084H1158.13L1157.85 18.3964C1157.15 19.9644 1155.27 20.9444 1153.06 20.9444ZM1153.82 18.9004C1156.31 18.9004 1157.82 17.2764 1157.82 14.7004V13.9724L1154.32 14.2524C1152 14.4764 1151.04 15.3724 1151.04 16.7164C1151.04 18.1724 1152.11 18.9004 1153.82 18.9004ZM1171.85 6.8044V9.2124H1170.68C1168.18 9.2124 1166.64 10.7244 1166.64 13.3564V20.6084H1164.01V6.9444H1166.48L1166.64 9.0164C1167.2 7.5884 1168.58 6.6364 1170.45 6.6364C1170.93 6.6364 1171.32 6.6924 1171.85 6.8044ZM1179.32 20.9444C1175.34 20.9444 1172.93 17.9764 1172.93 13.8044C1172.93 9.6044 1175.37 6.5244 1179.43 6.5244C1181.53 6.5244 1183.29 7.4484 1184.22 9.1284V0.000396729H1186.82V20.6084H1184.47L1184.25 18.1164C1183.35 19.9924 1181.5 20.9444 1179.32 20.9444ZM1179.85 18.5644C1182.54 18.5644 1184.19 16.5764 1184.19 13.7204C1184.19 10.9204 1182.54 8.9044 1179.85 8.9044C1177.16 8.9044 1175.59 10.9204 1175.59 13.7204C1175.59 16.5484 1177.16 18.5644 1179.85 18.5644ZM1189.5 16.6324H1192.02C1192.02 18.0324 1193.08 18.8724 1194.82 18.8724C1196.67 18.8724 1197.73 18.1164 1197.73 16.8564C1197.73 15.9324 1197.28 15.3724 1195.85 15.0084L1193.45 14.4484C1191.01 13.8604 1189.86 12.6564 1189.86 10.6404C1189.86 8.1204 1191.99 6.5244 1195.01 6.5244C1198.01 6.5244 1199.97 8.2044 1200.03 10.8084H1197.51C1197.45 9.4364 1196.53 8.5684 1194.93 8.5684C1193.28 8.5684 1192.35 9.2964 1192.35 10.5564C1192.35 11.4804 1193.03 12.0964 1194.37 12.4324L1196.78 13.0204C1199.1 13.5804 1200.25 14.6444 1200.25 16.6884C1200.25 19.2924 1198.01 20.9444 1194.76 20.9444C1191.54 20.9444 1189.5 19.2364 1189.5 16.6324ZM1206.95 19.5164C1206.95 21.5324 1205.44 23.2124 1203.45 23.4644V22.2884C1204.6 22.0924 1205.41 21.3364 1205.41 20.4684C1205.22 20.5804 1204.99 20.6364 1204.66 20.6364C1203.73 20.6364 1202.95 19.9644 1202.95 18.9284C1202.95 17.8084 1203.71 16.9964 1204.83 16.9964C1206 16.9964 1206.95 17.9764 1206.95 19.5164ZM1217.28 16.6324H1219.8C1219.8 18.0324 1220.86 18.8724 1222.6 18.8724C1224.45 18.8724 1225.51 18.1164 1225.51 16.8564C1225.51 15.9324 1225.06 15.3724 1223.64 15.0084L1221.23 14.4484C1218.79 13.8604 1217.64 12.6564 1217.64 10.6404C1217.64 8.1204 1219.77 6.5244 1222.8 6.5244C1225.79 6.5244 1227.75 8.2044 1227.81 10.8084H1225.29C1225.23 9.4364 1224.31 8.5684 1222.71 8.5684C1221.06 8.5684 1220.14 9.2964 1220.14 10.5564C1220.14 11.4804 1220.81 12.0964 1222.15 12.4324L1224.56 13.0204C1226.88 13.5804 1228.03 14.6444 1228.03 16.6884C1228.03 19.2924 1225.79 20.9444 1222.54 20.9444C1219.32 20.9444 1217.28 19.2364 1217.28 16.6324ZM1240.41 6.9164H1243.02V20.6084H1240.67L1240.39 18.5364C1239.6 19.9644 1237.78 20.9444 1235.77 20.9444C1232.57 20.9444 1230.78 18.7884 1230.78 15.4284V6.9164H1233.41V14.5604C1233.41 17.5004 1234.67 18.6204 1236.69 18.6204C1239.1 18.6204 1240.41 17.0804 1240.41 14.1404V6.9164ZM1246.84 26.7404V6.9164H1249.22L1249.41 9.3804C1250.34 7.5044 1252.19 6.5244 1254.37 6.5244C1258.29 6.5244 1260.73 9.4644 1260.73 13.6644C1260.73 17.8364 1258.43 20.9724 1254.37 20.9724C1252.19 20.9724 1250.37 20.0484 1249.47 18.3684V26.7404H1246.84ZM1249.5 13.7764C1249.5 16.5764 1251.12 18.5924 1253.81 18.5924C1256.5 18.5924 1258.09 16.5764 1258.09 13.7764C1258.09 10.9484 1256.5 8.9324 1253.81 8.9324C1251.12 8.9324 1249.5 10.9204 1249.5 13.7764ZM1263.63 26.7404V6.9164H1266.01L1266.2 9.3804C1267.13 7.5044 1268.97 6.5244 1271.16 6.5244C1275.08 6.5244 1277.51 9.4644 1277.51 13.6644C1277.51 17.8364 1275.22 20.9724 1271.16 20.9724C1268.97 20.9724 1267.15 20.0484 1266.26 18.3684V26.7404H1263.63ZM1266.29 13.7764C1266.29 16.5764 1267.91 18.5924 1270.6 18.5924C1273.29 18.5924 1274.88 16.5764 1274.88 13.7764C1274.88 10.9484 1273.29 8.9324 1270.6 8.9324C1267.91 8.9324 1266.29 10.9204 1266.29 13.7764ZM1279.52 13.7484C1279.52 9.5204 1282.54 6.5524 1286.66 6.5524C1290.75 6.5524 1293.77 9.5204 1293.77 13.7484C1293.77 17.9764 1290.75 20.9444 1286.66 20.9444C1282.54 20.9444 1279.52 17.9764 1279.52 13.7484ZM1282.18 13.7484C1282.18 16.6044 1284 18.5924 1286.66 18.5924C1289.29 18.5924 1291.14 16.6044 1291.14 13.7484C1291.14 10.8924 1289.29 8.9044 1286.66 8.9044C1284 8.9044 1282.18 10.8924 1282.18 13.7484ZM1304.52 6.8044V9.2124H1303.35C1300.86 9.2124 1299.32 10.7244 1299.32 13.3564V20.6084H1296.68V6.9444H1299.15L1299.32 9.0164C1299.88 7.5884 1301.25 6.6364 1303.12 6.6364C1303.6 6.6364 1303.99 6.6924 1304.52 6.8044ZM1311.4 20.6084H1308.77V9.1284H1306.08V6.9164H1308.77V2.6324H1311.4V6.9164H1314.09V9.1284H1311.4V20.6084ZM1324.11 26.7404V6.9164H1326.49L1326.69 9.3804C1327.61 7.5044 1329.46 6.5244 1331.64 6.5244C1335.56 6.5244 1338 9.4644 1338 13.6644C1338 17.8364 1335.7 20.9724 1331.64 20.9724C1329.46 20.9724 1327.64 20.0484 1326.74 18.3684V26.7404H1324.11ZM1326.77 13.7764C1326.77 16.5764 1328.39 18.5924 1331.08 18.5924C1333.77 18.5924 1335.37 16.5764 1335.37 13.7764C1335.37 10.9484 1333.77 8.9324 1331.08 8.9324C1328.39 8.9324 1326.77 10.9204 1326.77 13.7764ZM1343.59 20.6084H1340.96V0.000396729H1343.59V20.6084ZM1351.47 20.9444C1348.53 20.9444 1346.79 19.2924 1346.79 16.8004C1346.79 14.2804 1348.67 12.7124 1351.89 12.4604L1356.2 12.1244V11.7324C1356.2 9.4364 1354.83 8.6244 1352.98 8.6244C1350.77 8.6244 1349.51 9.6044 1349.51 11.2564H1347.21C1347.21 8.4004 1349.56 6.5244 1353.09 6.5244C1356.48 6.5244 1358.77 8.3164 1358.77 12.0124V20.6084H1356.53L1356.25 18.3964C1355.55 19.9644 1353.68 20.9444 1351.47 20.9444ZM1352.22 18.9004C1354.71 18.9004 1356.23 17.2764 1356.23 14.7004V13.9724L1352.73 14.2524C1350.4 14.4764 1349.45 15.3724 1349.45 16.7164C1349.45 18.1724 1350.51 18.9004 1352.22 18.9004ZM1366.06 20.6084H1363.43V9.1284H1360.74V6.9164H1363.43V2.6324H1366.06V6.9164H1368.75V9.1284H1366.06V20.6084ZM1369.9 6.9164H1371.92V4.7324C1371.92 1.3724 1373.77 0.000396729 1376.26 0.000396729C1376.76 0.000396729 1377.35 0.028398 1377.88 0.112397V2.3804H1376.71C1375 2.3804 1374.55 3.2484 1374.55 4.7324V6.9164H1377.8V9.1284H1374.55V20.6084H1371.92V9.1284H1369.9V6.9164ZM1378.94 13.7484C1378.94 9.5204 1381.97 6.5524 1386.08 6.5524C1390.17 6.5524 1393.19 9.5204 1393.19 13.7484C1393.19 17.9764 1390.17 20.9444 1386.08 20.9444C1381.97 20.9444 1378.94 17.9764 1378.94 13.7484ZM1381.6 13.7484C1381.6 16.6044 1383.42 18.5924 1386.08 18.5924C1388.71 18.5924 1390.56 16.6044 1390.56 13.7484C1390.56 10.8924 1388.71 8.9044 1386.08 8.9044C1383.42 8.9044 1381.6 10.8924 1381.6 13.7484ZM1403.95 6.8044V9.2124H1402.77C1400.28 9.2124 1398.74 10.7244 1398.74 13.3564V20.6084H1396.11V6.9444H1398.57L1398.74 9.0164C1399.3 7.5884 1400.67 6.6364 1402.55 6.6364C1403.02 6.6364 1403.41 6.6924 1403.95 6.8044ZM1409.05 20.6084H1406.42V6.9164H1408.77L1409.02 8.7084C1409.72 7.4204 1411.18 6.5244 1413.11 6.5244C1415.24 6.5244 1416.75 7.5884 1417.45 9.2964C1418.09 7.5884 1419.74 6.5244 1421.87 6.5244C1425.01 6.5244 1426.91 8.4844 1426.91 11.6484V20.6084H1424.34V12.2924C1424.34 10.1364 1423.13 8.9044 1421.28 8.9044C1419.3 8.9044 1417.98 10.3044 1417.98 12.4884V20.6084H1415.38V12.2644C1415.38 10.1084 1414.2 8.9324 1412.35 8.9324C1410.36 8.9324 1409.05 10.3044 1409.05 12.4884V20.6084ZM1429.28 16.6324H1431.8C1431.8 18.0324 1432.86 18.8724 1434.6 18.8724C1436.44 18.8724 1437.51 18.1164 1437.51 16.8564C1437.51 15.9324 1437.06 15.3724 1435.63 15.0084L1433.22 14.4484C1430.79 13.8604 1429.64 12.6564 1429.64 10.6404C1429.64 8.1204 1431.77 6.5244 1434.79 6.5244C1437.79 6.5244 1439.75 8.2044 1439.8 10.8084H1437.28C1437.23 9.4364 1436.3 8.5684 1434.71 8.5684C1433.06 8.5684 1432.13 9.2964 1432.13 10.5564C1432.13 11.4804 1432.8 12.0964 1434.15 12.4324L1436.56 13.0204C1438.88 13.5804 1440.03 14.6444 1440.03 16.6884C1440.03 19.2924 1437.79 20.9444 1434.54 20.9444C1431.32 20.9444 1429.28 19.2364 1429.28 16.6324ZM1446.73 19.5164C1446.73 21.5324 1445.22 23.2124 1443.23 23.4644V22.2884C1444.38 22.0924 1445.19 21.3364 1445.19 20.4684C1444.99 20.5804 1444.77 20.6364 1444.43 20.6364C1443.51 20.6364 1442.73 19.9644 1442.73 18.9284C1442.73 17.8084 1443.48 16.9964 1444.6 16.9964C1445.78 16.9964 1446.73 17.9764 1446.73 19.5164ZM1464.08 20.9444C1460.05 20.9444 1457.28 18.0324 1457.28 13.7764C1457.28 9.4924 1460 6.5244 1463.97 6.5244C1467.86 6.5244 1470.41 9.2124 1470.41 13.2724V14.2524L1459.83 14.2804C1460.02 17.1644 1461.54 18.7604 1464.14 18.7604C1466.18 18.7604 1467.53 17.9204 1467.98 16.3524H1470.44C1469.77 19.2924 1467.47 20.9444 1464.08 20.9444ZM1463.97 8.7364C1461.68 8.7364 1460.22 10.1084 1459.88 12.5164H1467.78C1467.78 10.2484 1466.3 8.7364 1463.97 8.7364ZM1475.98 20.6084H1473.35V6.9164H1475.73L1476.01 9.0164C1476.88 7.4484 1478.62 6.5244 1480.55 6.5244C1484.16 6.5244 1485.81 8.7364 1485.81 12.2364V20.6084H1483.18V12.8244C1483.18 10.0524 1481.89 8.9324 1479.88 8.9324C1477.41 8.9324 1475.98 10.6964 1475.98 13.3564V20.6084ZM1488.59 13.4124C1488.59 9.5484 1491.08 6.5244 1495.06 6.5244C1497.27 6.5244 1498.98 7.5324 1499.85 9.2404L1500.04 6.9164H1502.39V20.0484C1502.39 24.3604 1499.73 27.1044 1495.53 27.1044C1491.81 27.1044 1489.26 25.0044 1488.76 21.5324H1491.39C1491.73 23.5484 1493.24 24.7244 1495.53 24.7244C1498.11 24.7244 1499.79 23.0444 1499.79 20.4404V17.6964C1498.89 19.2924 1497.1 20.2444 1494.95 20.2444C1491.05 20.2444 1488.59 17.2484 1488.59 13.4124ZM1491.22 13.3564C1491.22 15.9324 1492.82 17.9484 1495.39 17.9484C1498.05 17.9484 1499.68 16.0444 1499.68 13.3564C1499.68 10.7244 1498.11 8.8204 1495.42 8.8204C1492.79 8.8204 1491.22 10.8364 1491.22 13.3564ZM1510.2 20.9444C1507.26 20.9444 1505.52 19.2924 1505.52 16.8004C1505.52 14.2804 1507.4 12.7124 1510.62 12.4604L1514.93 12.1244V11.7324C1514.93 9.4364 1513.56 8.6244 1511.71 8.6244C1509.5 8.6244 1508.24 9.6044 1508.24 11.2564H1505.94C1505.94 8.4004 1508.29 6.5244 1511.82 6.5244C1515.21 6.5244 1517.5 8.3164 1517.5 12.0124V20.6084H1515.26L1514.98 18.3964C1514.28 19.9644 1512.41 20.9444 1510.2 20.9444ZM1510.95 18.9004C1513.44 18.9004 1514.96 17.2764 1514.96 14.7004V13.9724L1511.46 14.2524C1509.13 14.4764 1508.18 15.3724 1508.18 16.7164C1508.18 18.1724 1509.24 18.9004 1510.95 18.9004ZM1520.28 13.4124C1520.28 9.5484 1522.77 6.5244 1526.75 6.5244C1528.96 6.5244 1530.67 7.5324 1531.54 9.2404L1531.73 6.9164H1534.09V20.0484C1534.09 24.3604 1531.43 27.1044 1527.23 27.1044C1523.5 27.1044 1520.95 25.0044 1520.45 21.5324H1523.08C1523.42 23.5484 1524.93 24.7244 1527.23 24.7244C1529.8 24.7244 1531.48 23.0444 1531.48 20.4404V17.6964C1530.59 19.2924 1528.79 20.2444 1526.64 20.2444C1522.75 20.2444 1520.28 17.2484 1520.28 13.4124ZM1522.91 13.3564C1522.91 15.9324 1524.51 17.9484 1527.09 17.9484C1529.75 17.9484 1531.37 16.0444 1531.37 13.3564C1531.37 10.7244 1529.8 8.8204 1527.11 8.8204C1524.48 8.8204 1522.91 10.8364 1522.91 13.3564ZM1543.79 20.9444C1539.76 20.9444 1536.99 18.0324 1536.99 13.7764C1536.99 9.4924 1539.7 6.5244 1543.68 6.5244C1547.57 6.5244 1550.12 9.2124 1550.12 13.2724V14.2524L1539.54 14.2804C1539.73 17.1644 1541.24 18.7604 1543.85 18.7604C1545.89 18.7604 1547.24 17.9204 1547.68 16.3524H1550.15C1549.48 19.2924 1547.18 20.9444 1543.79 20.9444ZM1543.68 8.7364C1541.38 8.7364 1539.93 10.1084 1539.59 12.5164H1547.49C1547.49 10.2484 1546 8.7364 1543.68 8.7364ZM1555.69 20.6084H1553.06V6.9164H1555.41L1555.66 8.7084C1556.36 7.4204 1557.82 6.5244 1559.75 6.5244C1561.88 6.5244 1563.39 7.5884 1564.09 9.2964C1564.74 7.5884 1566.39 6.5244 1568.52 6.5244C1571.65 6.5244 1573.56 8.4844 1573.56 11.6484V20.6084H1570.98V12.2924C1570.98 10.1364 1569.78 8.9044 1567.93 8.9044C1565.94 8.9044 1564.62 10.3044 1564.62 12.4884V20.6084H1562.02V12.2644C1562.02 10.1084 1560.84 8.9324 1559 8.9324C1557.01 8.9324 1555.69 10.3044 1555.69 12.4884V20.6084ZM1583.11 20.9444C1579.08 20.9444 1576.31 18.0324 1576.31 13.7764C1576.31 9.4924 1579.02 6.5244 1583 6.5244C1586.89 6.5244 1589.44 9.2124 1589.44 13.2724V14.2524L1578.86 14.2804C1579.05 17.1644 1580.56 18.7604 1583.17 18.7604C1585.21 18.7604 1586.56 17.9204 1587 16.3524H1589.47C1588.8 19.2924 1586.5 20.9444 1583.11 20.9444ZM1583 8.7364C1580.7 8.7364 1579.25 10.1084 1578.91 12.5164H1586.81C1586.81 10.2484 1585.32 8.7364 1583 8.7364ZM1595.01 20.6084H1592.38V6.9164H1594.76L1595.04 9.0164C1595.91 7.4484 1597.64 6.5244 1599.58 6.5244C1603.19 6.5244 1604.84 8.7364 1604.84 12.2364V20.6084H1602.21V12.8244C1602.21 10.0524 1600.92 8.9324 1598.9 8.9324C1596.44 8.9324 1595.01 10.6964 1595.01 13.3564V20.6084ZM1612.35 20.6084H1609.72V9.1284H1607.03V6.9164H1609.72V2.6324H1612.35V6.9164H1615.04V9.1284H1612.35V20.6084ZM1628.92 20.6084H1626.29V9.1284H1623.6V6.9164H1626.29V2.6324H1628.92V6.9164H1631.61V9.1284H1628.92V20.6084ZM1632.94 13.7484C1632.94 9.5204 1635.96 6.5524 1640.08 6.5524C1644.17 6.5524 1647.19 9.5204 1647.19 13.7484C1647.19 17.9764 1644.17 20.9444 1640.08 20.9444C1635.96 20.9444 1632.94 17.9764 1632.94 13.7484ZM1635.6 13.7484C1635.6 16.6044 1637.42 18.5924 1640.08 18.5924C1642.71 18.5924 1644.56 16.6044 1644.56 13.7484C1644.56 10.8924 1642.71 8.9044 1640.08 8.9044C1637.42 8.9044 1635.6 10.8924 1635.6 13.7484ZM1649.21 13.7484C1649.21 9.5204 1652.23 6.5524 1656.35 6.5524C1660.43 6.5524 1663.46 9.5204 1663.46 13.7484C1663.46 17.9764 1660.43 20.9444 1656.35 20.9444C1652.23 20.9444 1649.21 17.9764 1649.21 13.7484ZM1651.87 13.7484C1651.87 16.6044 1653.69 18.5924 1656.35 18.5924C1658.98 18.5924 1660.83 16.6044 1660.83 13.7484C1660.83 10.8924 1658.98 8.9044 1656.35 8.9044C1653.69 8.9044 1651.87 10.8924 1651.87 13.7484ZM1669.06 20.6084H1666.43V0.000396729H1669.06V20.6084ZM1671.81 16.6324H1674.33C1674.33 18.0324 1675.4 18.8724 1677.13 18.8724C1678.98 18.8724 1680.05 18.1164 1680.05 16.8564C1680.05 15.9324 1679.6 15.3724 1678.17 15.0084L1675.76 14.4484C1673.33 13.8604 1672.18 12.6564 1672.18 10.6404C1672.18 8.1204 1674.31 6.5244 1677.33 6.5244C1680.33 6.5244 1682.29 8.2044 1682.34 10.8084H1679.82C1679.77 9.4364 1678.84 8.5684 1677.25 8.5684C1675.59 8.5684 1674.67 9.2964 1674.67 10.5564C1674.67 11.4804 1675.34 12.0964 1676.69 12.4324L1679.09 13.0204C1681.42 13.5804 1682.57 14.6444 1682.57 16.6884C1682.57 19.2924 1680.33 20.9444 1677.08 20.9444C1673.86 20.9444 1671.81 19.2364 1671.81 16.6324ZM1689.27 19.5164C1689.27 21.5324 1687.76 23.2124 1685.77 23.4644V22.2884C1686.92 22.0924 1687.73 21.3364 1687.73 20.4684C1687.53 20.5804 1687.31 20.6364 1686.97 20.6364C1686.05 20.6364 1685.27 19.9644 1685.27 18.9284C1685.27 17.8084 1686.02 16.9964 1687.14 16.9964C1688.32 16.9964 1689.27 17.9764 1689.27 19.5164ZM1704.72 20.9444C1701.78 20.9444 1700.04 19.2924 1700.04 16.8004C1700.04 14.2804 1701.92 12.7124 1705.14 12.4604L1709.45 12.1244V11.7324C1709.45 9.4364 1708.08 8.6244 1706.23 8.6244C1704.02 8.6244 1702.76 9.6044 1702.76 11.2564H1700.46C1700.46 8.4004 1702.82 6.5244 1706.34 6.5244C1709.73 6.5244 1712.03 8.3164 1712.03 12.0124V20.6084H1709.79L1709.51 18.3964C1708.81 19.9644 1706.93 20.9444 1704.72 20.9444ZM1705.48 18.9004C1707.97 18.9004 1709.48 17.2764 1709.48 14.7004V13.9724L1705.98 14.2524C1703.66 14.4764 1702.7 15.3724 1702.7 16.7164C1702.7 18.1724 1703.77 18.9004 1705.48 18.9004ZM1718.31 20.6084H1715.67V6.9164H1718.05L1718.33 9.0164C1719.2 7.4484 1720.94 6.5244 1722.87 6.5244C1726.48 6.5244 1728.13 8.7364 1728.13 12.2364V20.6084H1725.5V12.8244C1725.5 10.0524 1724.21 8.9324 1722.2 8.9324C1719.73 8.9324 1718.31 10.6964 1718.31 13.3564V20.6084ZM1737.27 20.9444C1733.29 20.9444 1730.88 17.9764 1730.88 13.8044C1730.88 9.6044 1733.32 6.5244 1737.38 6.5244C1739.48 6.5244 1741.24 7.4484 1742.17 9.1284V0.000396729H1744.77V20.6084H1742.42L1742.19 18.1164C1741.3 19.9924 1739.45 20.9444 1737.27 20.9444ZM1737.8 18.5644C1740.49 18.5644 1742.14 16.5764 1742.14 13.7204C1742.14 10.9204 1740.49 8.9044 1737.8 8.9044C1735.11 8.9044 1733.54 10.9204 1733.54 13.7204C1733.54 16.5484 1735.11 18.5644 1737.8 18.5644ZM1755.33 13.7764C1755.33 9.4924 1758.04 6.5244 1762.05 6.5244C1765.49 6.5244 1767.9 8.4844 1768.38 11.5364H1765.74C1765.3 9.8004 1763.9 8.8764 1762.13 8.8764C1759.64 8.8764 1757.93 10.7804 1757.93 13.7484C1757.93 16.6884 1759.53 18.5924 1762.02 18.5924C1763.9 18.5924 1765.3 17.6124 1765.77 15.9884H1768.4C1767.87 18.9564 1765.32 20.9444 1762.02 20.9444C1757.99 20.9444 1755.33 18.0884 1755.33 13.7764ZM1770.28 13.7484C1770.28 9.5204 1773.31 6.5524 1777.42 6.5524C1781.51 6.5524 1784.54 9.5204 1784.54 13.7484C1784.54 17.9764 1781.51 20.9444 1777.42 20.9444C1773.31 20.9444 1770.28 17.9764 1770.28 13.7484ZM1772.94 13.7484C1772.94 16.6044 1774.76 18.5924 1777.42 18.5924C1780.06 18.5924 1781.9 16.6044 1781.9 13.7484C1781.9 10.8924 1780.06 8.9044 1777.42 8.9044C1774.76 8.9044 1772.94 10.8924 1772.94 13.7484ZM1790.08 20.6084H1787.45V6.9164H1789.8L1790.05 8.7084C1790.75 7.4204 1792.21 6.5244 1794.14 6.5244C1796.27 6.5244 1797.78 7.5884 1798.48 9.2964C1799.13 7.5884 1800.78 6.5244 1802.91 6.5244C1806.04 6.5244 1807.95 8.4844 1807.95 11.6484V20.6084H1805.37V12.2924C1805.37 10.1364 1804.17 8.9044 1802.32 8.9044C1800.33 8.9044 1799.01 10.3044 1799.01 12.4884V20.6084H1796.41V12.2644C1796.41 10.1084 1795.23 8.9324 1793.39 8.9324C1791.4 8.9324 1790.08 10.3044 1790.08 12.4884V20.6084ZM1814.23 20.6084H1811.59V6.9164H1813.95L1814.2 8.7084C1814.9 7.4204 1816.35 6.5244 1818.29 6.5244C1820.41 6.5244 1821.93 7.5884 1822.63 9.2964C1823.27 7.5884 1824.92 6.5244 1827.05 6.5244C1830.19 6.5244 1832.09 8.4844 1832.09 11.6484V20.6084H1829.51V12.2924C1829.51 10.1364 1828.31 8.9044 1826.46 8.9044C1824.47 8.9044 1823.16 10.3044 1823.16 12.4884V20.6084H1820.55V12.2644C1820.55 10.1084 1819.38 8.9324 1817.53 8.9324C1815.54 8.9324 1814.23 10.3044 1814.23 12.4884V20.6084ZM1845.2 6.9164H1847.81V20.6084H1845.46L1845.18 18.5364C1844.39 19.9644 1842.57 20.9444 1840.56 20.9444C1837.36 20.9444 1835.57 18.7884 1835.57 15.4284V6.9164H1838.2V14.5604C1838.2 17.5004 1839.46 18.6204 1841.48 18.6204C1843.89 18.6204 1845.2 17.0804 1845.2 14.1404V6.9164ZM1854.26 20.6084H1851.63V6.9164H1854.01L1854.29 9.0164C1855.15 7.4484 1856.89 6.5244 1858.82 6.5244C1862.43 6.5244 1864.09 8.7364 1864.09 12.2364V20.6084H1861.45V12.8244C1861.45 10.0524 1860.17 8.9324 1858.15 8.9324C1855.69 8.9324 1854.26 10.6964 1854.26 13.3564V20.6084ZM1869.02 3.6684C1868.07 3.6684 1867.28 2.8844 1867.28 1.9324C1867.28 0.952398 1868.07 0.196398 1869.02 0.196398C1869.97 0.196398 1870.76 0.952398 1870.76 1.9324C1870.76 2.8844 1869.97 3.6684 1869.02 3.6684ZM1867.73 20.6084V6.9164H1870.36V20.6084H1867.73ZM1873.29 13.7764C1873.29 9.4924 1876 6.5244 1880.01 6.5244C1883.45 6.5244 1885.86 8.4844 1886.34 11.5364H1883.7C1883.26 9.8004 1881.86 8.8764 1880.09 8.8764C1877.6 8.8764 1875.89 10.7804 1875.89 13.7484C1875.89 16.6884 1877.49 18.5924 1879.98 18.5924C1881.86 18.5924 1883.26 17.6124 1883.73 15.9884H1886.36C1885.83 18.9564 1883.28 20.9444 1879.98 20.9444C1875.95 20.9444 1873.29 18.0884 1873.29 13.7764ZM1893.15 20.9444C1890.21 20.9444 1888.47 19.2924 1888.47 16.8004C1888.47 14.2804 1890.35 12.7124 1893.57 12.4604L1897.88 12.1244V11.7324C1897.88 9.4364 1896.51 8.6244 1894.66 8.6244C1892.45 8.6244 1891.19 9.6044 1891.19 11.2564H1888.89C1888.89 8.4004 1891.24 6.5244 1894.77 6.5244C1898.16 6.5244 1900.45 8.3164 1900.45 12.0124V20.6084H1898.21L1897.93 18.3964C1897.23 19.9644 1895.36 20.9444 1893.15 20.9444ZM1893.9 18.9004C1896.39 18.9004 1897.91 17.2764 1897.91 14.7004V13.9724L1894.41 14.2524C1892.08 14.4764 1891.13 15.3724 1891.13 16.7164C1891.13 18.1724 1892.19 18.9004 1893.9 18.9004ZM1907.74 20.6084H1905.11V9.1284H1902.42V6.9164H1905.11V2.6324H1907.74V6.9164H1910.43V9.1284H1907.74V20.6084ZM1914.08 3.6684C1913.13 3.6684 1912.35 2.8844 1912.35 1.9324C1912.35 0.952398 1913.13 0.196398 1914.08 0.196398C1915.03 0.196398 1915.82 0.952398 1915.82 1.9324C1915.82 2.8844 1915.03 3.6684 1914.08 3.6684ZM1912.79 20.6084V6.9164H1915.43V20.6084H1912.79ZM1918.35 13.7484C1918.35 9.5204 1921.38 6.5524 1925.49 6.5524C1929.58 6.5524 1932.6 9.5204 1932.6 13.7484C1932.6 17.9764 1929.58 20.9444 1925.49 20.9444C1921.38 20.9444 1918.35 17.9764 1918.35 13.7484ZM1921.01 13.7484C1921.01 16.6044 1922.83 18.5924 1925.49 18.5924C1928.12 18.5924 1929.97 16.6044 1929.97 13.7484C1929.97 10.8924 1928.12 8.9044 1925.49 8.9044C1922.83 8.9044 1921.01 10.8924 1921.01 13.7484ZM1938.15 20.6084H1935.52V6.9164H1937.9L1938.18 9.0164C1939.04 7.4484 1940.78 6.5244 1942.71 6.5244C1946.32 6.5244 1947.98 8.7364 1947.98 12.2364V20.6084H1945.34V12.8244C1945.34 10.0524 1944.06 8.9324 1942.04 8.9324C1939.58 8.9324 1938.15 10.6964 1938.15 13.3564V20.6084ZM1958.16 16.6324H1960.68C1960.68 18.0324 1961.74 18.8724 1963.48 18.8724C1965.33 18.8724 1966.39 18.1164 1966.39 16.8564C1966.39 15.9324 1965.94 15.3724 1964.51 15.0084L1962.11 14.4484C1959.67 13.8604 1958.52 12.6564 1958.52 10.6404C1958.52 8.1204 1960.65 6.5244 1963.67 6.5244C1966.67 6.5244 1968.63 8.2044 1968.69 10.8084H1966.17C1966.11 9.4364 1965.19 8.5684 1963.59 8.5684C1961.94 8.5684 1961.01 9.2964 1961.01 10.5564C1961.01 11.4804 1961.69 12.0964 1963.03 12.4324L1965.44 13.0204C1967.76 13.5804 1968.91 14.6444 1968.91 16.6884C1968.91 19.2924 1966.67 20.9444 1963.42 20.9444C1960.2 20.9444 1958.16 19.2364 1958.16 16.6324ZM1970.24 26.7404V24.5844H1972C1973.26 24.5844 1974.27 24.3884 1974.92 22.6524L1975.39 21.3364L1969.88 6.9164H1972.65L1976.62 17.9484L1980.68 6.9164H1983.4L1976.93 23.6884C1976.01 26.0404 1974.64 27.0204 1972.54 27.0204C1971.67 27.0204 1970.94 26.9084 1970.24 26.7404ZM1984.19 16.6324H1986.71C1986.71 18.0324 1987.77 18.8724 1989.51 18.8724C1991.36 18.8724 1992.42 18.1164 1992.42 16.8564C1992.42 15.9324 1991.97 15.3724 1990.55 15.0084L1988.14 14.4484C1985.7 13.8604 1984.55 12.6564 1984.55 10.6404C1984.55 8.1204 1986.68 6.5244 1989.71 6.5244C1992.7 6.5244 1994.66 8.2044 1994.72 10.8084H1992.2C1992.14 9.4364 1991.22 8.5684 1989.62 8.5684C1987.97 8.5684 1987.05 9.2964 1987.05 10.5564C1987.05 11.4804 1987.72 12.0964 1989.06 12.4324L1991.47 13.0204C1993.79 13.5804 1994.94 14.6444 1994.94 16.6884C1994.94 19.2924 1992.7 20.9444 1989.45 20.9444C1986.23 20.9444 1984.19 19.2364 1984.19 16.6324ZM2001.72 20.6084H1999.09V9.1284H1996.4V6.9164H1999.09V2.6324H2001.72V6.9164H2004.41V9.1284H2001.72V20.6084ZM2012.55 20.9444C2008.51 20.9444 2005.74 18.0324 2005.74 13.7764C2005.74 9.4924 2008.46 6.5244 2012.43 6.5244C2016.33 6.5244 2018.87 9.2124 2018.87 13.2724V14.2524L2008.29 14.2804C2008.49 17.1644 2010 18.7604 2012.6 18.7604C2014.65 18.7604 2015.99 17.9204 2016.44 16.3524H2018.9C2018.23 19.2924 2015.93 20.9444 2012.55 20.9444ZM2012.43 8.7364C2010.14 8.7364 2008.68 10.1084 2008.35 12.5164H2016.24C2016.24 10.2484 2014.76 8.7364 2012.43 8.7364ZM2024.45 20.6084H2021.81V6.9164H2024.17L2024.42 8.7084C2025.12 7.4204 2026.57 6.5244 2028.51 6.5244C2030.63 6.5244 2032.15 7.5884 2032.85 9.2964C2033.49 7.5884 2035.14 6.5244 2037.27 6.5244C2040.41 6.5244 2042.31 8.4844 2042.31 11.6484V20.6084H2039.73V12.2924C2039.73 10.1364 2038.53 8.9044 2036.68 8.9044C2034.69 8.9044 2033.38 10.3044 2033.38 12.4884V20.6084H2030.77V12.2644C2030.77 10.1084 2029.6 8.9324 2027.75 8.9324C2025.76 8.9324 2024.45 10.3044 2024.45 12.4884V20.6084ZM2044.67 16.6324H2047.19C2047.19 18.0324 2048.26 18.8724 2049.99 18.8724C2051.84 18.8724 2052.91 18.1164 2052.91 16.8564C2052.91 15.9324 2052.46 15.3724 2051.03 15.0084L2048.62 14.4484C2046.19 13.8604 2045.04 12.6564 2045.04 10.6404C2045.04 8.1204 2047.17 6.5244 2050.19 6.5244C2053.19 6.5244 2055.15 8.2044 2055.2 10.8084H2052.68C2052.63 9.4364 2051.7 8.5684 2050.11 8.5684C2048.45 8.5684 2047.53 9.2964 2047.53 10.5564C2047.53 11.4804 2048.2 12.0964 2049.55 12.4324L2051.95 13.0204C2054.28 13.5804 2055.43 14.6444 2055.43 16.6884C2055.43 19.2924 2053.19 20.9444 2049.94 20.9444C2046.72 20.9444 2044.67 19.2364 2044.67 16.6324ZM2060.14 20.9444C2059.05 20.9444 2058.12 20.0484 2058.12 18.9844C2058.12 17.8924 2059.05 16.9964 2060.14 16.9964C2061.2 16.9964 2062.13 17.8924 2062.13 18.9844C2062.13 20.0484 2061.2 20.9444 2060.14 20.9444Z" fill="black"/>
</svg>
