<svg width="1602" height="28" viewBox="0 0 1602 28" fill="none" xmlns="http://www.w3.org/2000/svg">
<path d="M2.74395 0.363909V20.6079H-5.06043e-05V0.363909H2.74395ZM6.12079 13.7759C6.12079 9.49191 8.83679 6.52391 12.8408 6.52391C16.2848 6.52391 18.6928 8.48391 19.1688 11.5359H16.5368C16.0888 9.79991 14.6888 8.87591 12.9248 8.87591C10.4328 8.87591 8.72479 10.7799 8.72479 13.7479C8.72479 16.6879 10.3208 18.5919 12.8128 18.5919C14.6888 18.5919 16.0888 17.6119 16.5648 15.9879H19.1968C18.6648 18.9559 16.1168 20.9439 12.8128 20.9439C8.78079 20.9439 6.12079 18.0879 6.12079 13.7759ZM21.0778 13.7479C21.0778 9.51991 24.1018 6.55191 28.2178 6.55191C32.3058 6.55191 35.3298 9.51991 35.3298 13.7479C35.3298 17.9759 32.3058 20.9439 28.2178 20.9439C24.1018 20.9439 21.0778 17.9759 21.0778 13.7479ZM23.7378 13.7479C23.7378 16.6039 25.5578 18.5919 28.2178 18.5919C30.8498 18.5919 32.6978 16.6039 32.6978 13.7479C32.6978 10.8919 30.8498 8.90391 28.2178 8.90391C25.5578 8.90391 23.7378 10.8919 23.7378 13.7479ZM40.8754 20.6079H38.2434V6.91591H40.6234L40.9034 9.01591C41.7714 7.44791 43.5074 6.52391 45.4394 6.52391C49.0514 6.52391 50.7034 8.73591 50.7034 12.2359V20.6079H48.0714V12.8239C48.0714 10.0519 46.7834 8.93191 44.7674 8.93191C42.3034 8.93191 40.8754 10.6959 40.8754 13.3559V20.6079ZM53.0648 16.6319H55.5848C55.5848 18.0319 56.6488 18.8719 58.3848 18.8719C60.2328 18.8719 61.2968 18.1159 61.2968 16.8559C61.2968 15.9319 60.8488 15.3719 59.4208 15.0079L57.0128 14.4479C54.5768 13.8599 53.4288 12.6559 53.4288 10.6399C53.4288 8.11991 55.5568 6.52391 58.5808 6.52391C61.5768 6.52391 63.5368 8.20391 63.5928 10.8079H61.0728C61.0168 9.43591 60.0928 8.56791 58.4968 8.56791C56.8448 8.56791 55.9208 9.29591 55.9208 10.5559C55.9208 11.4799 56.5928 12.0959 57.9368 12.4319L60.3448 13.0199C62.6688 13.5799 63.8168 14.6439 63.8168 16.6879C63.8168 19.2919 61.5768 20.9439 58.3288 20.9439C55.1088 20.9439 53.0648 19.2359 53.0648 16.6319ZM72.9358 6.91591H74.9518V4.73191C74.9518 1.37191 76.7998 -9.15527e-05 79.2918 -9.15527e-05C79.7958 -9.15527e-05 80.3838 0.0279098 80.9158 0.111909V2.37991H79.7398C78.0318 2.37991 77.5838 3.24791 77.5838 4.73191V6.91591H80.8318V9.12791H77.5838V20.6079H74.9518V9.12791H72.9358V6.91591ZM81.9724 13.7479C81.9724 9.51991 84.9964 6.55191 89.1124 6.55191C93.2004 6.55191 96.2244 9.51991 96.2244 13.7479C96.2244 17.9759 93.2004 20.9439 89.1124 20.9439C84.9964 20.9439 81.9724 17.9759 81.9724 13.7479ZM84.6324 13.7479C84.6324 16.6039 86.4524 18.5919 89.1124 18.5919C91.7444 18.5919 93.5924 16.6039 93.5924 13.7479C93.5924 10.8919 91.7444 8.90391 89.1124 8.90391C86.4524 8.90391 84.6324 10.8919 84.6324 13.7479ZM106.978 6.80391V9.21191H105.802C103.31 9.21191 101.77 10.7239 101.77 13.3559V20.6079H99.1379V6.94391H101.602L101.77 9.01591C102.33 7.58791 103.702 6.63591 105.578 6.63591C106.054 6.63591 106.446 6.69191 106.978 6.80391ZM122.591 20.9439C118.615 20.9439 116.207 17.9759 116.207 13.8039C116.207 9.60391 118.643 6.52391 122.703 6.52391C124.803 6.52391 126.567 7.44791 127.491 9.12791V-9.15527e-05H130.095V20.6079H127.743L127.519 18.1159C126.623 19.9919 124.775 20.9439 122.591 20.9439ZM123.123 18.5639C125.811 18.5639 127.463 16.5759 127.463 13.7199C127.463 10.9199 125.811 8.90391 123.123 8.90391C120.435 8.90391 118.867 10.9199 118.867 13.7199C118.867 16.5479 120.435 18.5639 123.123 18.5639ZM132.996 13.7479C132.996 9.51991 136.02 6.55191 140.136 6.55191C144.224 6.55191 147.248 9.51991 147.248 13.7479C147.248 17.9759 144.224 20.9439 140.136 20.9439C136.02 20.9439 132.996 17.9759 132.996 13.7479ZM135.656 13.7479C135.656 16.6039 137.476 18.5919 140.136 18.5919C142.768 18.5919 144.616 16.6039 144.616 13.7479C144.616 10.8919 142.768 8.90391 140.136 8.90391C137.476 8.90391 135.656 10.8919 135.656 13.7479ZM149.265 13.7759C149.265 9.49191 151.981 6.52391 155.985 6.52391C159.429 6.52391 161.837 8.48391 162.313 11.5359H159.681C159.233 9.79991 157.833 8.87591 156.069 8.87591C153.577 8.87591 151.869 10.7799 151.869 13.7479C151.869 16.6879 153.465 18.5919 155.957 18.5919C157.833 18.5919 159.233 17.6119 159.709 15.9879H162.341C161.809 18.9559 159.261 20.9439 155.957 20.9439C151.925 20.9439 149.265 18.0879 149.265 13.7759ZM174.582 6.91591H177.186V20.6079H174.834L174.554 18.5359C173.77 19.9639 171.95 20.9439 169.934 20.9439C166.742 20.9439 164.95 18.7879 164.95 15.4279V6.91591H167.582V14.5599C167.582 17.4999 168.842 18.6199 170.858 18.6199C173.266 18.6199 174.582 17.0799 174.582 14.1399V6.91591ZM183.637 20.6079H181.005V6.91591H183.357L183.609 8.70791C184.309 7.41991 185.765 6.52391 187.697 6.52391C189.825 6.52391 191.337 7.58791 192.037 9.29591C192.681 7.58791 194.333 6.52391 196.461 6.52391C199.597 6.52391 201.501 8.48391 201.501 11.6479V20.6079H198.925V12.2919C198.925 10.1359 197.721 8.90391 195.873 8.90391C193.885 8.90391 192.569 10.3039 192.569 12.4879V20.6079H189.965V12.2639C189.965 10.1079 188.789 8.93191 186.941 8.93191C184.953 8.93191 183.637 10.3039 183.637 12.4879V20.6079ZM211.058 20.9439C207.026 20.9439 204.254 18.0319 204.254 13.7759C204.254 9.49191 206.97 6.52391 210.946 6.52391C214.838 6.52391 217.386 9.21191 217.386 13.2719V14.2519L206.802 14.2799C206.998 17.1639 208.51 18.7599 211.114 18.7599C213.158 18.7599 214.502 17.9199 214.95 16.3519H217.414C216.742 19.2919 214.446 20.9439 211.058 20.9439ZM210.946 8.73591C208.65 8.73591 207.194 10.1079 206.858 12.5159H214.754C214.754 10.2479 213.27 8.73591 210.946 8.73591ZM222.957 20.6079H220.325V6.91591H222.705L222.985 9.01591C223.853 7.44791 225.589 6.52391 227.521 6.52391C231.133 6.52391 232.785 8.73591 232.785 12.2359V20.6079H230.153V12.8239C230.153 10.0519 228.865 8.93191 226.849 8.93191C224.385 8.93191 222.957 10.6959 222.957 13.3559V20.6079ZM240.295 20.6079H237.663V9.12791H234.975V6.91591H237.663V2.63191H240.295V6.91591H242.983V9.12791H240.295V20.6079ZM244.225 16.6319H246.745C246.745 18.0319 247.809 18.8719 249.545 18.8719C251.393 18.8719 252.457 18.1159 252.457 16.8559C252.457 15.9319 252.009 15.3719 250.581 15.0079L248.173 14.4479C245.737 13.8599 244.589 12.6559 244.589 10.6399C244.589 8.11991 246.717 6.52391 249.741 6.52391C252.737 6.52391 254.697 8.20391 254.753 10.8079H252.233C252.177 9.43591 251.253 8.56791 249.657 8.56791C248.005 8.56791 247.081 9.29591 247.081 10.5559C247.081 11.4799 247.753 12.0959 249.097 12.4319L251.505 13.0199C253.829 13.5799 254.977 14.6439 254.977 16.6879C254.977 19.2919 252.737 20.9439 249.489 20.9439C246.269 20.9439 244.225 19.2359 244.225 16.6319ZM261.68 19.5159C261.68 21.5319 260.168 23.2119 258.18 23.4639V22.2879C259.328 22.0919 260.14 21.3359 260.14 20.4679C259.944 20.5799 259.72 20.6359 259.384 20.6359C258.46 20.6359 257.676 19.9639 257.676 18.9279C257.676 17.8079 258.432 16.9959 259.552 16.9959C260.728 16.9959 261.68 17.9759 261.68 19.5159ZM271.67 6.91591H273.686V4.73191C273.686 1.37191 275.534 -9.15527e-05 278.026 -9.15527e-05C278.53 -9.15527e-05 279.118 0.0279098 279.65 0.111909V2.37991H278.474C276.766 2.37991 276.318 3.24791 276.318 4.73191V6.91591H279.566V9.12791H276.318V20.6079H273.686V9.12791H271.67V6.91591ZM280.707 13.7479C280.707 9.51991 283.731 6.55191 287.847 6.55191C291.935 6.55191 294.959 9.51991 294.959 13.7479C294.959 17.9759 291.935 20.9439 287.847 20.9439C283.731 20.9439 280.707 17.9759 280.707 13.7479ZM283.367 13.7479C283.367 16.6039 285.187 18.5919 287.847 18.5919C290.479 18.5919 292.327 16.6039 292.327 13.7479C292.327 10.8919 290.479 8.90391 287.847 8.90391C285.187 8.90391 283.367 10.8919 283.367 13.7479ZM300.56 20.6079H297.928V-9.15527e-05H300.56V20.6079ZM309.923 20.9439C305.947 20.9439 303.539 17.9759 303.539 13.8039C303.539 9.60391 305.975 6.52391 310.035 6.52391C312.135 6.52391 313.899 7.44791 314.823 9.12791V-9.15527e-05H317.427V20.6079H315.075L314.851 18.1159C313.955 19.9919 312.107 20.9439 309.923 20.9439ZM310.455 18.5639C313.143 18.5639 314.795 16.5759 314.795 13.7199C314.795 10.9199 313.143 8.90391 310.455 8.90391C307.767 8.90391 306.199 10.9199 306.199 13.7199C306.199 16.5479 307.767 18.5639 310.455 18.5639ZM327.132 20.9439C323.1 20.9439 320.328 18.0319 320.328 13.7759C320.328 9.49191 323.044 6.52391 327.02 6.52391C330.912 6.52391 333.46 9.21191 333.46 13.2719V14.2519L322.876 14.2799C323.072 17.1639 324.584 18.7599 327.188 18.7599C329.232 18.7599 330.576 17.9199 331.024 16.3519H333.488C332.816 19.2919 330.52 20.9439 327.132 20.9439ZM327.02 8.73591C324.724 8.73591 323.268 10.1079 322.932 12.5159H330.828C330.828 10.2479 329.344 8.73591 327.02 8.73591ZM344.24 6.80391V9.21191H343.064C340.572 9.21191 339.032 10.7239 339.032 13.3559V20.6079H336.4V6.94391H338.864L339.032 9.01591C339.592 7.58791 340.964 6.63591 342.84 6.63591C343.316 6.63591 343.708 6.69191 344.24 6.80391ZM345.588 16.6319H348.108C348.108 18.0319 349.172 18.8719 350.908 18.8719C352.756 18.8719 353.82 18.1159 353.82 16.8559C353.82 15.9319 353.372 15.3719 351.944 15.0079L349.536 14.4479C347.1 13.8599 345.952 12.6559 345.952 10.6399C345.952 8.11991 348.08 6.52391 351.104 6.52391C354.1 6.52391 356.06 8.20391 356.116 10.8079H353.596C353.54 9.43591 352.616 8.56791 351.02 8.56791C349.368 8.56791 348.444 9.29591 348.444 10.5559C348.444 11.4799 349.116 12.0959 350.46 12.4319L352.868 13.0199C355.192 13.5799 356.34 14.6439 356.34 16.6879C356.34 19.2919 354.1 20.9439 350.852 20.9439C347.632 20.9439 345.588 19.2359 345.588 16.6319ZM363.043 19.5159C363.043 21.5319 361.531 23.2119 359.543 23.4639V22.2879C360.691 22.0919 361.503 21.3359 361.503 20.4679C361.307 20.5799 361.083 20.6359 360.747 20.6359C359.823 20.6359 359.039 19.9639 359.039 18.9279C359.039 17.8079 359.795 16.9959 360.915 16.9959C362.091 16.9959 363.043 17.9759 363.043 19.5159ZM373.369 16.6319H375.889C375.889 18.0319 376.953 18.8719 378.689 18.8719C380.537 18.8719 381.601 18.1159 381.601 16.8559C381.601 15.9319 381.153 15.3719 379.725 15.0079L377.317 14.4479C374.881 13.8599 373.733 12.6559 373.733 10.6399C373.733 8.11991 375.861 6.52391 378.885 6.52391C381.881 6.52391 383.841 8.20391 383.897 10.8079H381.377C381.321 9.43591 380.397 8.56791 378.801 8.56791C377.149 8.56791 376.225 9.29591 376.225 10.5559C376.225 11.4799 376.897 12.0959 378.241 12.4319L380.649 13.0199C382.973 13.5799 384.121 14.6439 384.121 16.6879C384.121 19.2919 381.881 20.9439 378.633 20.9439C375.413 20.9439 373.369 19.2359 373.369 16.6319ZM390.904 20.6079H388.272V9.12791H385.584V6.91591H388.272V2.63191H390.904V6.91591H393.592V9.12791H390.904V20.6079ZM394.922 13.7479C394.922 9.51991 397.946 6.55191 402.062 6.55191C406.15 6.55191 409.174 9.51991 409.174 13.7479C409.174 17.9759 406.15 20.9439 402.062 20.9439C397.946 20.9439 394.922 17.9759 394.922 13.7479ZM397.582 13.7479C397.582 16.6039 399.402 18.5919 402.062 18.5919C404.694 18.5919 406.542 16.6039 406.542 13.7479C406.542 10.8919 404.694 8.90391 402.062 8.90391C399.402 8.90391 397.582 10.8919 397.582 13.7479ZM419.927 6.80391V9.21191H418.751C416.259 9.21191 414.719 10.7239 414.719 13.3559V20.6079H412.087V6.94391H414.551L414.719 9.01591C415.279 7.58791 416.651 6.63591 418.527 6.63591C419.003 6.63591 419.395 6.69191 419.927 6.80391ZM425.853 20.9439C422.913 20.9439 421.177 19.2919 421.177 16.7999C421.177 14.2799 423.053 12.7119 426.273 12.4599L430.585 12.1239V11.7319C430.585 9.43591 429.213 8.62391 427.365 8.62391C425.153 8.62391 423.893 9.60391 423.893 11.2559H421.597C421.597 8.39991 423.949 6.52391 427.477 6.52391C430.865 6.52391 433.161 8.31591 433.161 12.0119V20.6079H430.921L430.641 18.3959C429.941 19.9639 428.065 20.9439 425.853 20.9439ZM426.609 18.8999C429.101 18.8999 430.613 17.2759 430.613 14.6999V13.9719L427.113 14.2519C424.789 14.4759 423.837 15.3719 423.837 16.7159C423.837 18.1719 424.901 18.8999 426.609 18.8999ZM435.938 13.4119C435.938 9.54791 438.43 6.52391 442.406 6.52391C444.618 6.52391 446.326 7.53191 447.194 9.23991L447.39 6.91591H449.742V20.0479C449.742 24.3599 447.082 27.1039 442.882 27.1039C439.158 27.1039 436.61 25.0039 436.106 21.5319H438.738C439.074 23.5479 440.586 24.7239 442.882 24.7239C445.458 24.7239 447.138 23.0439 447.138 20.4399V17.6959C446.242 19.2919 444.45 20.2439 442.294 20.2439C438.402 20.2439 435.938 17.2479 435.938 13.4119ZM438.57 13.3559C438.57 15.9319 440.166 17.9479 442.742 17.9479C445.402 17.9479 447.026 16.0439 447.026 13.3559C447.026 10.7239 445.458 8.81991 442.77 8.81991C440.138 8.81991 438.57 10.8359 438.57 13.3559ZM459.448 20.9439C455.416 20.9439 452.644 18.0319 452.644 13.7759C452.644 9.49191 455.36 6.52391 459.336 6.52391C463.228 6.52391 465.776 9.21191 465.776 13.2719V14.2519L455.192 14.2799C455.388 17.1639 456.9 18.7599 459.504 18.7599C461.548 18.7599 462.892 17.9199 463.34 16.3519H465.804C465.132 19.2919 462.836 20.9439 459.448 20.9439ZM459.336 8.73591C457.04 8.73591 455.584 10.1079 455.248 12.5159H463.144C463.144 10.2479 461.66 8.73591 459.336 8.73591ZM471.816 19.5159C471.816 21.5319 470.304 23.2119 468.316 23.4639V22.2879C469.464 22.0919 470.276 21.3359 470.276 20.4679C470.08 20.5799 469.856 20.6359 469.52 20.6359C468.596 20.6359 467.812 19.9639 467.812 18.9279C467.812 17.8079 468.568 16.9959 469.688 16.9959C470.864 16.9959 471.816 17.9759 471.816 19.5159ZM492.531 20.6079V9.12791H486.455V20.6079H483.823V9.12791H481.807V6.91591H483.823V4.73191C483.823 1.37191 485.643 -9.15527e-05 488.023 -9.15527e-05C488.527 -9.15527e-05 489.143 0.0279098 489.647 0.111909V2.37991H488.471C486.875 2.37991 486.455 3.24791 486.455 4.73191V6.91591H495.163V20.6079H492.531ZM493.847 3.55591C492.895 3.55591 492.167 2.82791 492.167 1.87591C492.167 0.92391 492.895 0.195909 493.847 0.195909C494.771 0.195909 495.499 0.92391 495.499 1.87591C495.499 2.82791 494.771 3.55591 493.847 3.55591ZM501.592 20.6079H498.96V-9.15527e-05H501.592V20.6079ZM511.374 20.9439C507.342 20.9439 504.57 18.0319 504.57 13.7759C504.57 9.49191 507.286 6.52391 511.262 6.52391C515.154 6.52391 517.702 9.21191 517.702 13.2719V14.2519L507.118 14.2799C507.314 17.1639 508.826 18.7599 511.43 18.7599C513.474 18.7599 514.818 17.9199 515.266 16.3519H517.73C517.058 19.2919 514.762 20.9439 511.374 20.9439ZM511.262 8.73591C508.966 8.73591 507.51 10.1079 507.174 12.5159H515.07C515.07 10.2479 513.586 8.73591 511.262 8.73591ZM532.302 20.9439C529.362 20.9439 527.626 19.2919 527.626 16.7999C527.626 14.2799 529.502 12.7119 532.722 12.4599L537.034 12.1239V11.7319C537.034 9.43591 535.662 8.62391 533.814 8.62391C531.602 8.62391 530.342 9.60391 530.342 11.2559H528.046C528.046 8.39991 530.398 6.52391 533.926 6.52391C537.314 6.52391 539.61 8.31591 539.61 12.0119V20.6079H537.37L537.09 18.3959C536.39 19.9639 534.514 20.9439 532.302 20.9439ZM533.058 18.8999C535.55 18.8999 537.062 17.2759 537.062 14.6999V13.9719L533.562 14.2519C531.238 14.4759 530.286 15.3719 530.286 16.7159C530.286 18.1719 531.35 18.8999 533.058 18.8999ZM542.359 13.7759C542.359 9.49191 545.075 6.52391 549.079 6.52391C552.523 6.52391 554.931 8.48391 555.407 11.5359H552.775C552.327 9.79991 550.927 8.87591 549.163 8.87591C546.671 8.87591 544.963 10.7799 544.963 13.7479C544.963 16.6879 546.559 18.5919 549.051 18.5919C550.927 18.5919 552.327 17.6119 552.803 15.9879H555.435C554.903 18.9559 552.355 20.9439 549.051 20.9439C545.019 20.9439 542.359 18.0879 542.359 13.7759ZM562.076 20.6079H559.444V9.12791H556.756V6.91591H559.444V2.63191H562.076V6.91591H564.764V9.12791H562.076V20.6079ZM568.414 3.66791C567.462 3.66791 566.678 2.88391 566.678 1.93191C566.678 0.95191 567.462 0.195909 568.414 0.195909C569.366 0.195909 570.15 0.95191 570.15 1.93191C570.15 2.88391 569.366 3.66791 568.414 3.66791ZM567.126 20.6079V6.91591H569.758V20.6079H567.126ZM572.683 13.7479C572.683 9.51991 575.707 6.55191 579.823 6.55191C583.911 6.55191 586.935 9.51991 586.935 13.7479C586.935 17.9759 583.911 20.9439 579.823 20.9439C575.707 20.9439 572.683 17.9759 572.683 13.7479ZM575.343 13.7479C575.343 16.6039 577.163 18.5919 579.823 18.5919C582.455 18.5919 584.303 16.6039 584.303 13.7479C584.303 10.8919 582.455 8.90391 579.823 8.90391C577.163 8.90391 575.343 10.8919 575.343 13.7479ZM592.481 20.6079H589.849V6.91591H592.229L592.509 9.01591C593.377 7.44791 595.113 6.52391 597.045 6.52391C600.657 6.52391 602.309 8.73591 602.309 12.2359V20.6079H599.677V12.8239C599.677 10.0519 598.389 8.93191 596.373 8.93191C593.909 8.93191 592.481 10.6959 592.481 13.3559V20.6079ZM604.67 16.6319H607.19C607.19 18.0319 608.254 18.8719 609.99 18.8719C611.838 18.8719 612.902 18.1159 612.902 16.8559C612.902 15.9319 612.454 15.3719 611.026 15.0079L608.618 14.4479C606.182 13.8599 605.034 12.6559 605.034 10.6399C605.034 8.11991 607.162 6.52391 610.186 6.52391C613.182 6.52391 615.142 8.20391 615.198 10.8079H612.678C612.622 9.43591 611.698 8.56791 610.102 8.56791C608.45 8.56791 607.526 9.29591 607.526 10.5559C607.526 11.4799 608.198 12.0959 609.542 12.4319L611.95 13.0199C614.274 13.5799 615.422 14.6439 615.422 16.6879C615.422 19.2919 613.182 20.9439 609.934 20.9439C606.714 20.9439 604.67 19.2359 604.67 16.6319ZM622.125 19.5159C622.125 21.5319 620.613 23.2119 618.625 23.4639V22.2879C619.773 22.0919 620.585 21.3359 620.585 20.4679C620.389 20.5799 620.165 20.6359 619.829 20.6359C618.905 20.6359 618.121 19.9639 618.121 18.9279C618.121 17.8079 618.877 16.9959 619.997 16.9959C621.173 16.9959 622.125 17.9759 622.125 19.5159ZM637.575 20.9439C634.635 20.9439 632.899 19.2919 632.899 16.7999C632.899 14.2799 634.775 12.7119 637.995 12.4599L642.307 12.1239V11.7319C642.307 9.43591 640.935 8.62391 639.087 8.62391C636.875 8.62391 635.615 9.60391 635.615 11.2559H633.319C633.319 8.39991 635.671 6.52391 639.199 6.52391C642.587 6.52391 644.883 8.31591 644.883 12.0119V20.6079H642.643L642.363 18.3959C641.663 19.9639 639.787 20.9439 637.575 20.9439ZM638.331 18.8999C640.823 18.8999 642.335 17.2759 642.335 14.6999V13.9719L638.835 14.2519C636.511 14.4759 635.559 15.3719 635.559 16.7159C635.559 18.1719 636.623 18.8999 638.331 18.8999ZM651.161 20.6079H648.529V6.91591H650.909L651.189 9.01591C652.057 7.44791 653.793 6.52391 655.725 6.52391C659.337 6.52391 660.989 8.73591 660.989 12.2359V20.6079H658.357V12.8239C658.357 10.0519 657.069 8.93191 655.053 8.93191C652.589 8.93191 651.161 10.6959 651.161 13.3559V20.6079ZM670.122 20.9439C666.146 20.9439 663.738 17.9759 663.738 13.8039C663.738 9.60391 666.174 6.52391 670.234 6.52391C672.334 6.52391 674.098 7.44791 675.022 9.12791V-9.15527e-05H677.626V20.6079H675.274L675.05 18.1159C674.154 19.9919 672.306 20.9439 670.122 20.9439ZM670.654 18.5639C673.342 18.5639 674.994 16.5759 674.994 13.7199C674.994 10.9199 673.342 8.90391 670.654 8.90391C667.966 8.90391 666.398 10.9199 666.398 13.7199C666.398 16.5479 667.966 18.5639 670.654 18.5639ZM691.711 20.6079H689.079V6.91591H691.431L691.683 8.70791C692.383 7.41991 693.839 6.52391 695.771 6.52391C697.899 6.52391 699.411 7.58791 700.111 9.29591C700.755 7.58791 702.407 6.52391 704.535 6.52391C707.671 6.52391 709.575 8.48391 709.575 11.6479V20.6079H706.999V12.2919C706.999 10.1359 705.795 8.90391 703.947 8.90391C701.959 8.90391 700.643 10.3039 700.643 12.4879V20.6079H698.039V12.2639C698.039 10.1079 696.863 8.93191 695.015 8.93191C693.027 8.93191 691.711 10.3039 691.711 12.4879V20.6079ZM717.228 20.9439C714.288 20.9439 712.552 19.2919 712.552 16.7999C712.552 14.2799 714.428 12.7119 717.648 12.4599L721.96 12.1239V11.7319C721.96 9.43591 720.588 8.62391 718.74 8.62391C716.528 8.62391 715.268 9.60391 715.268 11.2559H712.972C712.972 8.39991 715.324 6.52391 718.852 6.52391C722.24 6.52391 724.536 8.31591 724.536 12.0119V20.6079H722.296L722.016 18.3959C721.316 19.9639 719.44 20.9439 717.228 20.9439ZM717.984 18.8999C720.476 18.8999 721.988 17.2759 721.988 14.6999V13.9719L718.488 14.2519C716.164 14.4759 715.212 15.3719 715.212 16.7159C715.212 18.1719 716.276 18.8999 717.984 18.8999ZM730.813 20.6079H728.181V6.91591H730.561L730.841 9.01591C731.709 7.44791 733.445 6.52391 735.377 6.52391C738.989 6.52391 740.641 8.73591 740.641 12.2359V20.6079H738.009V12.8239C738.009 10.0519 736.721 8.93191 734.705 8.93191C732.241 8.93191 730.813 10.6959 730.813 13.3559V20.6079ZM748.29 20.9439C745.35 20.9439 743.614 19.2919 743.614 16.7999C743.614 14.2799 745.49 12.7119 748.71 12.4599L753.022 12.1239V11.7319C753.022 9.43591 751.65 8.62391 749.802 8.62391C747.59 8.62391 746.33 9.60391 746.33 11.2559H744.034C744.034 8.39991 746.386 6.52391 749.914 6.52391C753.302 6.52391 755.598 8.31591 755.598 12.0119V20.6079H753.358L753.078 18.3959C752.378 19.9639 750.502 20.9439 748.29 20.9439ZM749.046 18.8999C751.538 18.8999 753.05 17.2759 753.05 14.6999V13.9719L749.55 14.2519C747.226 14.4759 746.274 15.3719 746.274 16.7159C746.274 18.1719 747.338 18.8999 749.046 18.8999ZM758.375 13.4119C758.375 9.54791 760.867 6.52391 764.843 6.52391C767.055 6.52391 768.763 7.53191 769.631 9.23991L769.827 6.91591H772.179V20.0479C772.179 24.3599 769.519 27.1039 765.319 27.1039C761.595 27.1039 759.047 25.0039 758.543 21.5319H761.175C761.511 23.5479 763.023 24.7239 765.319 24.7239C767.895 24.7239 769.575 23.0439 769.575 20.4399V17.6959C768.679 19.2919 766.887 20.2439 764.731 20.2439C760.839 20.2439 758.375 17.2479 758.375 13.4119ZM761.007 13.3559C761.007 15.9319 762.603 17.9479 765.179 17.9479C767.839 17.9479 769.463 16.0439 769.463 13.3559C769.463 10.7239 767.895 8.81991 765.207 8.81991C762.575 8.81991 761.007 10.8359 761.007 13.3559ZM781.886 20.9439C777.854 20.9439 775.082 18.0319 775.082 13.7759C775.082 9.49191 777.798 6.52391 781.774 6.52391C785.666 6.52391 788.214 9.21191 788.214 13.2719V14.2519L777.63 14.2799C777.826 17.1639 779.338 18.7599 781.942 18.7599C783.986 18.7599 785.33 17.9199 785.778 16.3519H788.242C787.57 19.2919 785.274 20.9439 781.886 20.9439ZM781.774 8.73591C779.478 8.73591 778.022 10.1079 777.686 12.5159H785.582C785.582 10.2479 784.098 8.73591 781.774 8.73591ZM793.786 20.6079H791.154V6.91591H793.506L793.758 8.70791C794.458 7.41991 795.914 6.52391 797.846 6.52391C799.974 6.52391 801.486 7.58791 802.186 9.29591C802.83 7.58791 804.482 6.52391 806.61 6.52391C809.746 6.52391 811.65 8.48391 811.65 11.6479V20.6079H809.074V12.2919C809.074 10.1359 807.87 8.90391 806.022 8.90391C804.034 8.90391 802.718 10.3039 802.718 12.4879V20.6079H800.114V12.2639C800.114 10.1079 798.938 8.93191 797.09 8.93191C795.102 8.93191 793.786 10.3039 793.786 12.4879V20.6079ZM821.206 20.9439C817.174 20.9439 814.402 18.0319 814.402 13.7759C814.402 9.49191 817.118 6.52391 821.094 6.52391C824.986 6.52391 827.534 9.21191 827.534 13.2719V14.2519L816.95 14.2799C817.146 17.1639 818.658 18.7599 821.262 18.7599C823.306 18.7599 824.65 17.9199 825.098 16.3519H827.562C826.89 19.2919 824.594 20.9439 821.206 20.9439ZM821.094 8.73591C818.798 8.73591 817.342 10.1079 817.006 12.5159H824.902C824.902 10.2479 823.418 8.73591 821.094 8.73591ZM833.106 20.6079H830.474V6.91591H832.854L833.134 9.01591C834.002 7.44791 835.738 6.52391 837.67 6.52391C841.282 6.52391 842.934 8.73591 842.934 12.2359V20.6079H840.302V12.8239C840.302 10.0519 839.014 8.93191 836.998 8.93191C834.534 8.93191 833.106 10.6959 833.106 13.3559V20.6079ZM850.443 20.6079H847.811V9.12791H845.123V6.91591H847.811V2.63191H850.443V6.91591H853.131V9.12791H850.443V20.6079ZM862.03 16.6319H864.55C864.55 18.0319 865.614 18.8719 867.35 18.8719C869.198 18.8719 870.262 18.1159 870.262 16.8559C870.262 15.9319 869.814 15.3719 868.386 15.0079L865.978 14.4479C863.542 13.8599 862.394 12.6559 862.394 10.6399C862.394 8.11991 864.522 6.52391 867.546 6.52391C870.542 6.52391 872.502 8.20391 872.558 10.8079H870.038C869.982 9.43591 869.058 8.56791 867.462 8.56791C865.81 8.56791 864.886 9.29591 864.886 10.5559C864.886 11.4799 865.558 12.0959 866.902 12.4319L869.31 13.0199C871.634 13.5799 872.782 14.6439 872.782 16.6879C872.782 19.2919 870.542 20.9439 867.294 20.9439C864.074 20.9439 862.03 19.2359 862.03 16.6319ZM879.564 20.6079H876.932V9.12791H874.244V6.91591H876.932V2.63191H879.564V6.91591H882.252V9.12791H879.564V20.6079ZM888.454 20.9439C885.514 20.9439 883.778 19.2919 883.778 16.7999C883.778 14.2799 885.654 12.7119 888.874 12.4599L893.186 12.1239V11.7319C893.186 9.43591 891.814 8.62391 889.966 8.62391C887.754 8.62391 886.494 9.60391 886.494 11.2559H884.198C884.198 8.39991 886.55 6.52391 890.078 6.52391C893.466 6.52391 895.762 8.31591 895.762 12.0119V20.6079H893.522L893.242 18.3959C892.542 19.9639 890.666 20.9439 888.454 20.9439ZM889.21 18.8999C891.702 18.8999 893.214 17.2759 893.214 14.6999V13.9719L889.714 14.2519C887.39 14.4759 886.438 15.3719 886.438 16.7159C886.438 18.1719 887.502 18.8999 889.21 18.8999ZM903.053 20.6079H900.421V9.12791H897.733V6.91591H900.421V2.63191H903.053V6.91591H905.741V9.12791H903.053V20.6079ZM913.874 20.9439C909.842 20.9439 907.07 18.0319 907.07 13.7759C907.07 9.49191 909.786 6.52391 913.762 6.52391C917.654 6.52391 920.202 9.21191 920.202 13.2719V14.2519L909.618 14.2799C909.814 17.1639 911.326 18.7599 913.93 18.7599C915.974 18.7599 917.318 17.9199 917.766 16.3519H920.23C919.558 19.2919 917.262 20.9439 913.874 20.9439ZM913.762 8.73591C911.466 8.73591 910.01 10.1079 909.674 12.5159H917.57C917.57 10.2479 916.086 8.73591 913.762 8.73591ZM922.022 16.6319H924.542C924.542 18.0319 925.606 18.8719 927.342 18.8719C929.19 18.8719 930.254 18.1159 930.254 16.8559C930.254 15.9319 929.806 15.3719 928.378 15.0079L925.97 14.4479C923.534 13.8599 922.386 12.6559 922.386 10.6399C922.386 8.11991 924.514 6.52391 927.538 6.52391C930.534 6.52391 932.494 8.20391 932.55 10.8079H930.03C929.974 9.43591 929.05 8.56791 927.454 8.56791C925.802 8.56791 924.878 9.29591 924.878 10.5559C924.878 11.4799 925.55 12.0959 926.894 12.4319L929.302 13.0199C931.626 13.5799 932.774 14.6439 932.774 16.6879C932.774 19.2919 930.534 20.9439 927.286 20.9439C924.066 20.9439 922.022 19.2359 922.022 16.6319ZM952.813 6.91591H955.417V20.6079H953.065L952.785 18.5359C952.001 19.9639 950.181 20.9439 948.165 20.9439C944.973 20.9439 943.181 18.7879 943.181 15.4279V6.91591H945.813V14.5599C945.813 17.4999 947.073 18.6199 949.089 18.6199C951.497 18.6199 952.813 17.0799 952.813 14.1399V6.91591ZM957.842 16.6319H960.362C960.362 18.0319 961.426 18.8719 963.162 18.8719C965.01 18.8719 966.074 18.1159 966.074 16.8559C966.074 15.9319 965.626 15.3719 964.198 15.0079L961.79 14.4479C959.354 13.8599 958.206 12.6559 958.206 10.6399C958.206 8.11991 960.334 6.52391 963.358 6.52391C966.354 6.52391 968.314 8.20391 968.37 10.8079H965.85C965.794 9.43591 964.87 8.56791 963.274 8.56791C961.622 8.56791 960.698 9.29591 960.698 10.5559C960.698 11.4799 961.37 12.0959 962.714 12.4319L965.122 13.0199C967.446 13.5799 968.594 14.6439 968.594 16.6879C968.594 19.2919 966.354 20.9439 963.106 20.9439C959.886 20.9439 957.842 19.2359 957.842 16.6319ZM977.421 20.9439C973.389 20.9439 970.617 18.0319 970.617 13.7759C970.617 9.49191 973.333 6.52391 977.309 6.52391C981.201 6.52391 983.749 9.21191 983.749 13.2719V14.2519L973.165 14.2799C973.361 17.1639 974.873 18.7599 977.477 18.7599C979.521 18.7599 980.865 17.9199 981.313 16.3519H983.777C983.105 19.2919 980.809 20.9439 977.421 20.9439ZM977.309 8.73591C975.013 8.73591 973.557 10.1079 973.221 12.5159H981.117C981.117 10.2479 979.633 8.73591 977.309 8.73591ZM992.177 20.9439C988.201 20.9439 985.793 17.9759 985.793 13.8039C985.793 9.60391 988.229 6.52391 992.289 6.52391C994.389 6.52391 996.153 7.44791 997.077 9.12791V-9.15527e-05H999.681V20.6079H997.329L997.105 18.1159C996.209 19.9919 994.361 20.9439 992.177 20.9439ZM992.709 18.5639C995.397 18.5639 997.049 16.5759 997.049 13.7199C997.049 10.9199 995.397 8.90391 992.709 8.90391C990.021 8.90391 988.453 10.9199 988.453 13.7199C988.453 16.5479 990.021 18.5639 992.709 18.5639ZM1015.14 20.9439C1012.2 20.9439 1010.46 19.2919 1010.46 16.7999C1010.46 14.2799 1012.34 12.7119 1015.56 12.4599L1019.87 12.1239V11.7319C1019.87 9.43591 1018.5 8.62391 1016.65 8.62391C1014.44 8.62391 1013.18 9.60391 1013.18 11.2559H1010.88C1010.88 8.39991 1013.23 6.52391 1016.76 6.52391C1020.15 6.52391 1022.45 8.31591 1022.45 12.0119V20.6079H1020.21L1019.93 18.3959C1019.23 19.9639 1017.35 20.9439 1015.14 20.9439ZM1015.89 18.8999C1018.39 18.8999 1019.9 17.2759 1019.9 14.6999V13.9719L1016.4 14.2519C1014.07 14.4759 1013.12 15.3719 1013.12 16.7159C1013.12 18.1719 1014.19 18.8999 1015.89 18.8999ZM1025.2 13.7759C1025.2 9.49191 1027.91 6.52391 1031.92 6.52391C1035.36 6.52391 1037.77 8.48391 1038.24 11.5359H1035.61C1035.16 9.79991 1033.76 8.87591 1032 8.87591C1029.51 8.87591 1027.8 10.7799 1027.8 13.7479C1027.8 16.6879 1029.4 18.5919 1031.89 18.5919C1033.76 18.5919 1035.16 17.6119 1035.64 15.9879H1038.27C1037.74 18.9559 1035.19 20.9439 1031.89 20.9439C1027.86 20.9439 1025.2 18.0879 1025.2 13.7759ZM1048.89 6.80391V9.21191H1047.71C1045.22 9.21191 1043.68 10.7239 1043.68 13.3559V20.6079H1041.05V6.94391H1043.51L1043.68 9.01591C1044.24 7.58791 1045.61 6.63591 1047.49 6.63591C1047.96 6.63591 1048.36 6.69191 1048.89 6.80391ZM1049.97 13.7479C1049.97 9.51991 1052.99 6.55191 1057.11 6.55191C1061.2 6.55191 1064.22 9.51991 1064.22 13.7479C1064.22 17.9759 1061.2 20.9439 1057.11 20.9439C1052.99 20.9439 1049.97 17.9759 1049.97 13.7479ZM1052.63 13.7479C1052.63 16.6039 1054.45 18.5919 1057.11 18.5919C1059.74 18.5919 1061.59 16.6039 1061.59 13.7479C1061.59 10.8919 1059.74 8.90391 1057.11 8.90391C1054.45 8.90391 1052.63 10.8919 1052.63 13.7479ZM1066.01 16.6319H1068.53C1068.53 18.0319 1069.6 18.8719 1071.33 18.8719C1073.18 18.8719 1074.25 18.1159 1074.25 16.8559C1074.25 15.9319 1073.8 15.3719 1072.37 15.0079L1069.96 14.4479C1067.53 13.8599 1066.38 12.6559 1066.38 10.6399C1066.38 8.11991 1068.51 6.52391 1071.53 6.52391C1074.53 6.52391 1076.49 8.20391 1076.54 10.8079H1074.02C1073.97 9.43591 1073.04 8.56791 1071.45 8.56791C1069.79 8.56791 1068.87 9.29591 1068.87 10.5559C1068.87 11.4799 1069.54 12.0959 1070.89 12.4319L1073.29 13.0199C1075.62 13.5799 1076.77 14.6439 1076.77 16.6879C1076.77 19.2919 1074.53 20.9439 1071.28 20.9439C1068.06 20.9439 1066.01 19.2359 1066.01 16.6319ZM1078.56 16.6319H1081.08C1081.08 18.0319 1082.15 18.8719 1083.88 18.8719C1085.73 18.8719 1086.8 18.1159 1086.8 16.8559C1086.8 15.9319 1086.35 15.3719 1084.92 15.0079L1082.51 14.4479C1080.08 13.8599 1078.93 12.6559 1078.93 10.6399C1078.93 8.11991 1081.06 6.52391 1084.08 6.52391C1087.08 6.52391 1089.04 8.20391 1089.09 10.8079H1086.57C1086.52 9.43591 1085.59 8.56791 1084 8.56791C1082.34 8.56791 1081.42 9.29591 1081.42 10.5559C1081.42 11.4799 1082.09 12.0959 1083.44 12.4319L1085.84 13.0199C1088.17 13.5799 1089.32 14.6439 1089.32 16.6879C1089.32 19.2919 1087.08 20.9439 1083.83 20.9439C1080.61 20.9439 1078.56 19.2359 1078.56 16.6319ZM1105.38 20.9439C1101.4 20.9439 1099 17.9759 1099 13.8039C1099 9.60391 1101.43 6.52391 1105.49 6.52391C1107.59 6.52391 1109.36 7.44791 1110.28 9.12791V-9.15527e-05H1112.88V20.6079H1110.53L1110.31 18.1159C1109.41 19.9919 1107.56 20.9439 1105.38 20.9439ZM1105.91 18.5639C1108.6 18.5639 1110.25 16.5759 1110.25 13.7199C1110.25 10.9199 1108.6 8.90391 1105.91 8.90391C1103.22 8.90391 1101.66 10.9199 1101.66 13.7199C1101.66 16.5479 1103.22 18.5639 1105.91 18.5639ZM1120.68 20.9439C1117.74 20.9439 1116.01 19.2919 1116.01 16.7999C1116.01 14.2799 1117.88 12.7119 1121.1 12.4599L1125.42 12.1239V11.7319C1125.42 9.43591 1124.04 8.62391 1122.2 8.62391C1119.98 8.62391 1118.72 9.60391 1118.72 11.2559H1116.43C1116.43 8.39991 1118.78 6.52391 1122.31 6.52391C1125.7 6.52391 1127.99 8.31591 1127.99 12.0119V20.6079H1125.75L1125.47 18.3959C1124.77 19.9639 1122.9 20.9439 1120.68 20.9439ZM1121.44 18.8999C1123.93 18.8999 1125.44 17.2759 1125.44 14.6999V13.9719L1121.94 14.2519C1119.62 14.4759 1118.67 15.3719 1118.67 16.7159C1118.67 18.1719 1119.73 18.8999 1121.44 18.8999ZM1130.52 16.6319H1133.04C1133.04 18.0319 1134.1 18.8719 1135.84 18.8719C1137.69 18.8719 1138.75 18.1159 1138.75 16.8559C1138.75 15.9319 1138.3 15.3719 1136.87 15.0079L1134.47 14.4479C1132.03 13.8599 1130.88 12.6559 1130.88 10.6399C1130.88 8.11991 1133.01 6.52391 1136.03 6.52391C1139.03 6.52391 1140.99 8.20391 1141.05 10.8079H1138.53C1138.47 9.43591 1137.55 8.56791 1135.95 8.56791C1134.3 8.56791 1133.37 9.29591 1133.37 10.5559C1133.37 11.4799 1134.05 12.0959 1135.39 12.4319L1137.8 13.0199C1140.12 13.5799 1141.27 14.6439 1141.27 16.6879C1141.27 19.2919 1139.03 20.9439 1135.78 20.9439C1132.56 20.9439 1130.52 19.2359 1130.52 16.6319ZM1146.82 20.5799H1144.19V-9.15527e-05H1146.82V9.01591C1147.69 7.53191 1149.34 6.52391 1151.47 6.52391C1154.97 6.52391 1156.65 8.73591 1156.65 12.2359V20.6079H1154.02V12.8239C1154.02 10.0519 1152.7 8.93191 1150.74 8.93191C1148.19 8.93191 1146.82 10.7799 1146.82 13.1319V20.5799ZM1162.67 20.6079H1160.29V-9.15527e-05H1162.93V9.26791C1163.82 7.47591 1165.67 6.52391 1167.91 6.52391C1171.83 6.52391 1174.18 9.60391 1174.18 13.8319C1174.18 17.9759 1171.72 20.9439 1167.74 20.9439C1165.59 20.9439 1163.77 19.9919 1162.87 18.1159L1162.67 20.6079ZM1162.95 13.7199C1162.95 16.5759 1164.58 18.5639 1167.27 18.5639C1169.95 18.5639 1171.55 16.5479 1171.55 13.7199C1171.55 10.9199 1169.95 8.90391 1167.27 8.90391C1164.58 8.90391 1162.95 10.9199 1162.95 13.7199ZM1176.19 13.7479C1176.19 9.51991 1179.21 6.55191 1183.33 6.55191C1187.42 6.55191 1190.44 9.51991 1190.44 13.7479C1190.44 17.9759 1187.42 20.9439 1183.33 20.9439C1179.21 20.9439 1176.19 17.9759 1176.19 13.7479ZM1178.85 13.7479C1178.85 16.6039 1180.67 18.5919 1183.33 18.5919C1185.96 18.5919 1187.81 16.6039 1187.81 13.7479C1187.81 10.8919 1185.96 8.90391 1183.33 8.90391C1180.67 8.90391 1178.85 10.8919 1178.85 13.7479ZM1197.36 20.9439C1194.42 20.9439 1192.68 19.2919 1192.68 16.7999C1192.68 14.2799 1194.56 12.7119 1197.78 12.4599L1202.09 12.1239V11.7319C1202.09 9.43591 1200.72 8.62391 1198.87 8.62391C1196.66 8.62391 1195.4 9.60391 1195.4 11.2559H1193.1C1193.1 8.39991 1195.45 6.52391 1198.98 6.52391C1202.37 6.52391 1204.66 8.31591 1204.66 12.0119V20.6079H1202.42L1202.14 18.3959C1201.44 19.9639 1199.57 20.9439 1197.36 20.9439ZM1198.11 18.8999C1200.6 18.8999 1202.12 17.2759 1202.12 14.6999V13.9719L1198.62 14.2519C1196.29 14.4759 1195.34 15.3719 1195.34 16.7159C1195.34 18.1719 1196.4 18.8999 1198.11 18.8999ZM1216.15 6.80391V9.21191H1214.97C1212.48 9.21191 1210.94 10.7239 1210.94 13.3559V20.6079H1208.31V6.94391H1210.77L1210.94 9.01591C1211.5 7.58791 1212.87 6.63591 1214.75 6.63591C1215.23 6.63591 1215.62 6.69191 1216.15 6.80391ZM1223.61 20.9439C1219.64 20.9439 1217.23 17.9759 1217.23 13.8039C1217.23 9.60391 1219.67 6.52391 1223.73 6.52391C1225.83 6.52391 1227.59 7.44791 1228.51 9.12791V-9.15527e-05H1231.12V20.6079H1228.77L1228.54 18.1159C1227.65 19.9919 1225.8 20.9439 1223.61 20.9439ZM1224.15 18.5639C1226.83 18.5639 1228.49 16.5759 1228.49 13.7199C1228.49 10.9199 1226.83 8.90391 1224.15 8.90391C1221.46 8.90391 1219.89 10.9199 1219.89 13.7199C1219.89 16.5479 1221.46 18.5639 1224.15 18.5639ZM1233.8 16.6319H1236.32C1236.32 18.0319 1237.38 18.8719 1239.12 18.8719C1240.96 18.8719 1242.03 18.1159 1242.03 16.8559C1242.03 15.9319 1241.58 15.3719 1240.15 15.0079L1237.74 14.4479C1235.31 13.8599 1234.16 12.6559 1234.16 10.6399C1234.16 8.11991 1236.29 6.52391 1239.31 6.52391C1242.31 6.52391 1244.27 8.20391 1244.32 10.8079H1241.8C1241.75 9.43591 1240.82 8.56791 1239.23 8.56791C1237.58 8.56791 1236.65 9.29591 1236.65 10.5559C1236.65 11.4799 1237.32 12.0959 1238.67 12.4319L1241.08 13.0199C1243.4 13.5799 1244.55 14.6439 1244.55 16.6879C1244.55 19.2919 1242.31 20.9439 1239.06 20.9439C1235.84 20.9439 1233.8 19.2359 1233.8 16.6319ZM1251.25 19.5159C1251.25 21.5319 1249.74 23.2119 1247.75 23.4639V22.2879C1248.9 22.0919 1249.71 21.3359 1249.71 20.4679C1249.51 20.5799 1249.29 20.6359 1248.95 20.6359C1248.03 20.6359 1247.25 19.9639 1247.25 18.9279C1247.25 17.8079 1248 16.9959 1249.12 16.9959C1250.3 16.9959 1251.25 17.9759 1251.25 19.5159ZM1266.7 20.9439C1263.76 20.9439 1262.02 19.2919 1262.02 16.7999C1262.02 14.2799 1263.9 12.7119 1267.12 12.4599L1271.43 12.1239V11.7319C1271.43 9.43591 1270.06 8.62391 1268.21 8.62391C1266 8.62391 1264.74 9.60391 1264.74 11.2559H1262.44C1262.44 8.39991 1264.8 6.52391 1268.32 6.52391C1271.71 6.52391 1274.01 8.31591 1274.01 12.0119V20.6079H1271.77L1271.49 18.3959C1270.79 19.9639 1268.91 20.9439 1266.7 20.9439ZM1267.46 18.8999C1269.95 18.8999 1271.46 17.2759 1271.46 14.6999V13.9719L1267.96 14.2519C1265.64 14.4759 1264.68 15.3719 1264.68 16.7159C1264.68 18.1719 1265.75 18.8999 1267.46 18.8999ZM1277.65 26.7399V6.91591H1280.03L1280.23 9.37991C1281.15 7.50391 1283 6.52391 1285.19 6.52391C1289.11 6.52391 1291.54 9.46391 1291.54 13.6639C1291.54 17.8359 1289.25 20.9719 1285.19 20.9719C1283 20.9719 1281.18 20.0479 1280.29 18.3679V26.7399H1277.65ZM1280.31 13.7759C1280.31 16.5759 1281.94 18.5919 1284.63 18.5919C1287.31 18.5919 1288.91 16.5759 1288.91 13.7759C1288.91 10.9479 1287.31 8.93191 1284.63 8.93191C1281.94 8.93191 1280.31 10.9199 1280.31 13.7759ZM1294.44 26.7399V6.91591H1296.82L1297.02 9.37991C1297.94 7.50391 1299.79 6.52391 1301.97 6.52391C1305.89 6.52391 1308.33 9.46391 1308.33 13.6639C1308.33 17.8359 1306.03 20.9719 1301.97 20.9719C1299.79 20.9719 1297.97 20.0479 1297.07 18.3679V26.7399H1294.44ZM1297.1 13.7759C1297.1 16.5759 1298.73 18.5919 1301.41 18.5919C1304.1 18.5919 1305.7 16.5759 1305.7 13.7759C1305.7 10.9479 1304.1 8.93191 1301.41 8.93191C1298.73 8.93191 1297.1 10.9199 1297.1 13.7759ZM1310.11 16.6319H1312.63C1312.63 18.0319 1313.7 18.8719 1315.43 18.8719C1317.28 18.8719 1318.34 18.1159 1318.34 16.8559C1318.34 15.9319 1317.9 15.3719 1316.47 15.0079L1314.06 14.4479C1311.62 13.8599 1310.48 12.6559 1310.48 10.6399C1310.48 8.11991 1312.6 6.52391 1315.63 6.52391C1318.62 6.52391 1320.58 8.20391 1320.64 10.8079H1318.12C1318.06 9.43591 1317.14 8.56791 1315.54 8.56791C1313.89 8.56791 1312.97 9.29591 1312.97 10.5559C1312.97 11.4799 1313.64 12.0959 1314.98 12.4319L1317.39 13.0199C1319.72 13.5799 1320.86 14.6439 1320.86 16.6879C1320.86 19.2919 1318.62 20.9439 1315.38 20.9439C1312.16 20.9439 1310.11 19.2359 1310.11 16.6319ZM1327.57 19.5159C1327.57 21.5319 1326.05 23.2119 1324.07 23.4639V22.2879C1325.21 22.0919 1326.03 21.3359 1326.03 20.4679C1325.83 20.5799 1325.61 20.6359 1325.27 20.6359C1324.35 20.6359 1323.56 19.9639 1323.56 18.9279C1323.56 17.8079 1324.32 16.9959 1325.44 16.9959C1326.61 16.9959 1327.57 17.9759 1327.57 19.5159ZM1343.02 20.9439C1340.08 20.9439 1338.34 19.2919 1338.34 16.7999C1338.34 14.2799 1340.22 12.7119 1343.44 12.4599L1347.75 12.1239V11.7319C1347.75 9.43591 1346.38 8.62391 1344.53 8.62391C1342.32 8.62391 1341.06 9.60391 1341.06 11.2559H1338.76C1338.76 8.39991 1341.11 6.52391 1344.64 6.52391C1348.03 6.52391 1350.32 8.31591 1350.32 12.0119V20.6079H1348.08L1347.8 18.3959C1347.1 19.9639 1345.23 20.9439 1343.02 20.9439ZM1343.77 18.8999C1346.26 18.8999 1347.78 17.2759 1347.78 14.6999V13.9719L1344.28 14.2519C1341.95 14.4759 1341 15.3719 1341 16.7159C1341 18.1719 1342.06 18.8999 1343.77 18.8999ZM1356.6 20.6079H1353.97V6.91591H1356.35L1356.63 9.01591C1357.5 7.44791 1359.23 6.52391 1361.17 6.52391C1364.78 6.52391 1366.43 8.73591 1366.43 12.2359V20.6079H1363.8V12.8239C1363.8 10.0519 1362.51 8.93191 1360.49 8.93191C1358.03 8.93191 1356.6 10.6959 1356.6 13.3559V20.6079ZM1375.56 20.9439C1371.59 20.9439 1369.18 17.9759 1369.18 13.8039C1369.18 9.60391 1371.62 6.52391 1375.68 6.52391C1377.78 6.52391 1379.54 7.44791 1380.46 9.12791V-9.15527e-05H1383.07V20.6079H1380.72L1380.49 18.1159C1379.6 19.9919 1377.75 20.9439 1375.56 20.9439ZM1376.1 18.5639C1378.78 18.5639 1380.44 16.5759 1380.44 13.7199C1380.44 10.9199 1378.78 8.90391 1376.1 8.90391C1373.41 8.90391 1371.84 10.9199 1371.84 13.7199C1371.84 16.5479 1373.41 18.5639 1376.1 18.5639ZM1393.62 13.7759C1393.62 9.49191 1396.34 6.52391 1400.34 6.52391C1403.79 6.52391 1406.2 8.48391 1406.67 11.5359H1404.04C1403.59 9.79991 1402.19 8.87591 1400.43 8.87591C1397.94 8.87591 1396.23 10.7799 1396.23 13.7479C1396.23 16.6879 1397.82 18.5919 1400.32 18.5919C1402.19 18.5919 1403.59 17.6119 1404.07 15.9879H1406.7C1406.17 18.9559 1403.62 20.9439 1400.32 20.9439C1396.28 20.9439 1393.62 18.0879 1393.62 13.7759ZM1408.58 13.7479C1408.58 9.51991 1411.61 6.55191 1415.72 6.55191C1419.81 6.55191 1422.83 9.51991 1422.83 13.7479C1422.83 17.9759 1419.81 20.9439 1415.72 20.9439C1411.61 20.9439 1408.58 17.9759 1408.58 13.7479ZM1411.24 13.7479C1411.24 16.6039 1413.06 18.5919 1415.72 18.5919C1418.35 18.5919 1420.2 16.6039 1420.2 13.7479C1420.2 10.8919 1418.35 8.90391 1415.72 8.90391C1413.06 8.90391 1411.24 10.8919 1411.24 13.7479ZM1428.38 20.6079H1425.75V6.91591H1428.13L1428.41 9.01591C1429.28 7.44791 1431.01 6.52391 1432.94 6.52391C1436.56 6.52391 1438.21 8.73591 1438.21 12.2359V20.6079H1435.58V12.8239C1435.58 10.0519 1434.29 8.93191 1432.27 8.93191C1429.81 8.93191 1428.38 10.6959 1428.38 13.3559V20.6079ZM1445.72 20.6079H1443.08V9.12791H1440.4V6.91591H1443.08V2.63191H1445.72V6.91591H1448.4V9.12791H1445.72V20.6079ZM1456.54 20.9439C1452.51 20.9439 1449.73 18.0319 1449.73 13.7759C1449.73 9.49191 1452.45 6.52391 1456.43 6.52391C1460.32 6.52391 1462.87 9.21191 1462.87 13.2719V14.2519L1452.28 14.2799C1452.48 17.1639 1453.99 18.7599 1456.59 18.7599C1458.64 18.7599 1459.98 17.9199 1460.43 16.3519H1462.89C1462.22 19.2919 1459.93 20.9439 1456.54 20.9439ZM1456.43 8.73591C1454.13 8.73591 1452.67 10.1079 1452.34 12.5159H1460.23C1460.23 10.2479 1458.75 8.73591 1456.43 8.73591ZM1468.44 20.6079H1465.81V6.91591H1468.19L1468.47 9.01591C1469.33 7.44791 1471.07 6.52391 1473 6.52391C1476.61 6.52391 1478.27 8.73591 1478.27 12.2359V20.6079H1475.63V12.8239C1475.63 10.0519 1474.35 8.93191 1472.33 8.93191C1469.87 8.93191 1468.44 10.6959 1468.44 13.3559V20.6079ZM1485.78 20.6079H1483.14V9.12791H1480.46V6.91591H1483.14V2.63191H1485.78V6.91591H1488.46V9.12791H1485.78V20.6079ZM1497.36 16.6319H1499.88C1499.88 18.0319 1500.95 18.8719 1502.68 18.8719C1504.53 18.8719 1505.59 18.1159 1505.59 16.8559C1505.59 15.9319 1505.15 15.3719 1503.72 15.0079L1501.31 14.4479C1498.87 13.8599 1497.73 12.6559 1497.73 10.6399C1497.73 8.11991 1499.85 6.52391 1502.88 6.52391C1505.87 6.52391 1507.83 8.20391 1507.89 10.8079H1505.37C1505.31 9.43591 1504.39 8.56791 1502.79 8.56791C1501.14 8.56791 1500.22 9.29591 1500.22 10.5559C1500.22 11.4799 1500.89 12.0959 1502.23 12.4319L1504.64 13.0199C1506.97 13.5799 1508.11 14.6439 1508.11 16.6879C1508.11 19.2919 1505.87 20.9439 1502.63 20.9439C1499.41 20.9439 1497.36 19.2359 1497.36 16.6319ZM1509.44 26.7399V24.5839H1511.21C1512.47 24.5839 1513.47 24.3879 1514.12 22.6519L1514.59 21.3359L1509.08 6.91591H1511.85L1515.83 17.9479L1519.89 6.91591H1522.6L1516.13 23.6879C1515.21 26.0399 1513.84 27.0199 1511.74 27.0199C1510.87 27.0199 1510.14 26.9079 1509.44 26.7399ZM1523.39 16.6319H1525.91C1525.91 18.0319 1526.98 18.8719 1528.71 18.8719C1530.56 18.8719 1531.62 18.1159 1531.62 16.8559C1531.62 15.9319 1531.18 15.3719 1529.75 15.0079L1527.34 14.4479C1524.9 13.8599 1523.76 12.6559 1523.76 10.6399C1523.76 8.11991 1525.88 6.52391 1528.91 6.52391C1531.9 6.52391 1533.86 8.20391 1533.92 10.8079H1531.4C1531.34 9.43591 1530.42 8.56791 1528.82 8.56791C1527.17 8.56791 1526.25 9.29591 1526.25 10.5559C1526.25 11.4799 1526.92 12.0959 1528.26 12.4319L1530.67 13.0199C1533 13.5799 1534.14 14.6439 1534.14 16.6879C1534.14 19.2919 1531.9 20.9439 1528.66 20.9439C1525.44 20.9439 1523.39 19.2359 1523.39 16.6319ZM1540.93 20.6079H1538.3V9.12791H1535.61V6.91591H1538.3V2.63191H1540.93V6.91591H1543.62V9.12791H1540.93V20.6079ZM1551.75 20.9439C1547.72 20.9439 1544.95 18.0319 1544.95 13.7759C1544.95 9.49191 1547.66 6.52391 1551.64 6.52391C1555.53 6.52391 1558.08 9.21191 1558.08 13.2719V14.2519L1547.49 14.2799C1547.69 17.1639 1549.2 18.7599 1551.81 18.7599C1553.85 18.7599 1555.19 17.9199 1555.64 16.3519H1558.11C1557.43 19.2919 1555.14 20.9439 1551.75 20.9439ZM1551.64 8.73591C1549.34 8.73591 1547.89 10.1079 1547.55 12.5159H1555.45C1555.45 10.2479 1553.96 8.73591 1551.64 8.73591ZM1563.65 20.6079H1561.02V6.91591H1563.37L1563.62 8.70791C1564.32 7.41991 1565.78 6.52391 1567.71 6.52391C1569.84 6.52391 1571.35 7.58791 1572.05 9.29591C1572.69 7.58791 1574.34 6.52391 1576.47 6.52391C1579.61 6.52391 1581.51 8.48391 1581.51 11.6479V20.6079H1578.94V12.2919C1578.94 10.1359 1577.73 8.90391 1575.88 8.90391C1573.9 8.90391 1572.58 10.3039 1572.58 12.4879V20.6079H1569.98V12.2639C1569.98 10.1079 1568.8 8.93191 1566.95 8.93191C1564.96 8.93191 1563.65 10.3039 1563.65 12.4879V20.6079ZM1583.88 16.6319H1586.4C1586.4 18.0319 1587.46 18.8719 1589.2 18.8719C1591.05 18.8719 1592.11 18.1159 1592.11 16.8559C1592.11 15.9319 1591.66 15.3719 1590.23 15.0079L1587.83 14.4479C1585.39 13.8599 1584.24 12.6559 1584.24 10.6399C1584.24 8.11991 1586.37 6.52391 1589.39 6.52391C1592.39 6.52391 1594.35 8.20391 1594.41 10.8079H1591.89C1591.83 9.43591 1590.91 8.56791 1589.31 8.56791C1587.66 8.56791 1586.73 9.29591 1586.73 10.5559C1586.73 11.4799 1587.41 12.0959 1588.75 12.4319L1591.16 13.0199C1593.48 13.5799 1594.63 14.6439 1594.63 16.6879C1594.63 19.2919 1592.39 20.9439 1589.14 20.9439C1585.92 20.9439 1583.88 19.2359 1583.88 16.6319ZM1599.34 20.9439C1598.25 20.9439 1597.33 20.0479 1597.33 18.9839C1597.33 17.8919 1598.25 16.9959 1599.34 16.9959C1600.41 16.9959 1601.33 17.8919 1601.33 18.9839C1601.33 20.0479 1600.41 20.9439 1599.34 20.9439Z" fill="black"/>
</svg>
