<svg width="260" height="50" viewBox="0 0 260 50" fill="none" xmlns="http://www.w3.org/2000/svg">
<path d="M10.368 0.832382V38.5924H29.056V48.1924H6.67572e-06V0.832382H10.368ZM32.3135 32.1284C32.3135 22.0164 39.7375 15.2324 49.9775 15.2324C60.1535 15.2324 67.5775 22.0164 67.5775 32.1284C67.5775 42.2404 60.1535 48.9604 49.9775 48.9604C39.7375 48.9604 32.3135 42.2404 32.3135 32.1284ZM42.2335 32.0644C42.2335 36.9284 45.3695 40.1284 49.9775 40.1284C54.5215 40.1284 57.6575 36.9284 57.6575 32.0644C57.6575 27.2644 54.5215 24.0644 49.9775 24.0644C45.3695 24.0644 42.2335 27.2644 42.2335 32.0644ZM71.8835 32.0644C71.8835 22.2084 78.6675 15.1684 88.2675 15.1684C97.7395 15.1684 104.012 20.3524 104.652 28.7364H94.7315C94.0275 25.5364 92.0435 24.0004 88.6515 24.0004C84.4915 24.0004 81.8035 27.1364 81.8035 32.0644C81.8035 37.1844 84.2995 40.1924 88.5235 40.1924C91.9795 40.1924 94.0915 38.5924 94.7315 35.4564H104.652C104.012 43.5204 97.4835 49.0244 88.5235 49.0244C78.4115 49.0244 71.8835 42.3044 71.8835 32.0644ZM120.033 49.0244C113.249 49.0244 109.025 45.0564 109.025 38.7844C109.025 32.8964 113.185 29.2484 120.865 28.6724L129.825 27.9684V27.4564C129.825 24.3204 127.905 22.6564 124.385 22.6564C120.225 22.6564 117.985 24.2564 117.985 27.1364H109.793C109.793 19.9044 115.745 15.1684 124.897 15.1684C134.177 15.1684 139.425 20.3524 139.425 29.5044V48.1924H130.721L130.081 43.9684C129.057 46.9124 124.833 49.0244 120.033 49.0244ZM123.489 41.7284C127.265 41.7284 129.889 39.8724 129.889 36.2244V34.4964L124.897 34.9444C120.609 35.3284 119.073 36.2884 119.073 38.3364C119.073 40.6404 120.481 41.7284 123.489 41.7284ZM159.43 48.1924H149.574V24.3844H143.494V16.1924H149.574V6.27238H159.43V16.1924H165.51V24.3844H159.43V48.1924ZM175.123 11.2004C171.987 11.2004 169.491 8.70438 169.491 5.56838C169.491 2.43238 171.987 0.00038147 175.123 0.00038147C178.195 0.00038147 180.691 2.43238 180.691 5.56838C180.691 8.70438 178.195 11.2004 175.123 11.2004ZM170.259 48.1924V16.1924H180.115V48.1924H170.259ZM186.101 32.1284C186.101 22.0164 193.525 15.2324 203.765 15.2324C213.941 15.2324 221.365 22.0164 221.365 32.1284C221.365 42.2404 213.941 48.9604 203.765 48.9604C193.525 48.9604 186.101 42.2404 186.101 32.1284ZM196.021 32.0644C196.021 36.9284 199.157 40.1284 203.765 40.1284C208.309 40.1284 211.445 36.9284 211.445 32.0644C211.445 27.2644 208.309 24.0644 203.765 24.0644C199.157 24.0644 196.021 27.2644 196.021 32.0644ZM237.255 48.1924H227.399V16.1924H236.679L237.319 19.5204C239.303 16.7684 242.951 15.1684 247.111 15.1684C254.727 15.1684 259.143 20.0324 259.143 28.4164V48.1924H249.287V30.7844C249.287 26.7524 247.047 24.1284 243.655 24.1284C239.751 24.1284 237.255 26.6884 237.255 30.6564V48.1924Z" fill="black"/>
</svg>
