<svg width="255" height="65" viewBox="0 0 255 65" fill="none" xmlns="http://www.w3.org/2000/svg">
<path d="M0.703902 14.6559C0.703902 6.07986 7.9359 -0.000141144 18.1119 -0.000141144C28.2879 -0.000141144 34.6879 5.63186 34.6879 14.5919H24.3839C24.3839 11.2639 21.8879 9.21586 17.9839 9.21586C13.7599 9.21586 11.0719 11.1359 11.0719 14.2719C11.0719 17.1519 12.5439 18.5599 15.8719 19.2639L22.9759 20.7359C31.4239 22.4639 35.4559 26.4959 35.4559 33.9839C35.4559 43.1359 28.2879 49.0879 17.4079 49.0879C6.8479 49.0879 -9.76324e-05 43.3919 -9.76324e-05 34.4959H10.3039C10.3039 37.9519 12.8639 39.8719 17.4719 39.8719C22.1439 39.8719 25.0879 38.0159 25.0879 35.0079C25.0879 32.3839 23.8719 31.0399 20.7359 30.3999L13.5039 28.9279C5.0559 27.1999 0.703902 22.3999 0.703902 14.6559ZM56.2799 49.0879C46.6159 49.0879 39.7039 42.0479 39.7039 32.1919C39.7039 22.2079 46.4239 15.2319 56.0879 15.2319C66.1359 15.2319 72.4079 21.8239 72.4079 32.2559V34.7519L49.1759 34.8799C49.7519 39.1039 52.1199 41.0879 56.4719 41.0879C60.1839 41.0879 62.8079 39.7439 63.5119 37.4399H72.5359C71.3839 44.5439 65.0479 49.0879 56.2799 49.0879ZM56.1519 23.2319C52.2479 23.2319 50.0719 24.9599 49.3039 28.7999H62.6159C62.6159 25.4079 60.1199 23.2319 56.1519 23.2319ZM76.8364 32.1279C76.8364 22.2719 83.6204 15.2319 93.2204 15.2319C102.692 15.2319 108.964 20.4159 109.604 28.7999H99.6844C98.9804 25.5999 96.9964 24.0639 93.6044 24.0639C89.4444 24.0639 86.7564 27.1999 86.7564 32.1279C86.7564 37.2479 89.2524 40.2559 93.4764 40.2559C96.9324 40.2559 99.0444 38.6559 99.6844 35.5199H109.604C108.964 43.5839 102.436 49.0879 93.4764 49.0879C83.3644 49.0879 76.8364 42.3679 76.8364 32.1279ZM136.57 16.2559H146.426V48.2559H137.146L136.506 44.6719C134.522 47.2959 130.554 49.0879 126.714 49.0879C119.418 49.0879 114.938 44.2239 114.938 36.3519V16.2559H124.794V32.7679C124.794 38.0159 126.586 40.3199 130.618 40.3199C134.842 40.3199 136.57 38.1439 136.57 32.8959V16.2559ZM176.158 16.2559V25.5359H173.022C167.39 25.5359 163.998 28.0319 163.998 34.3679V48.2559H154.142V16.3199H163.422L163.934 21.0559C165.278 17.9199 168.094 15.8079 172.382 15.8079C173.534 15.8079 174.814 15.9359 176.158 16.2559ZM186.326 11.2639C183.19 11.2639 180.694 8.76786 180.694 5.63186C180.694 2.49586 183.19 0.063858 186.326 0.063858C189.398 0.063858 191.894 2.49586 191.894 5.63186C191.894 8.76786 189.398 11.2639 186.326 11.2639ZM181.462 48.2559V16.2559H191.318V48.2559H181.462ZM211.96 48.2559H202.104V24.4479H196.024V16.2559H202.104V6.33586H211.96V16.2559H218.04V24.4479H211.96V48.2559ZM220.229 63.6159V55.3599H225.669C228.997 55.3599 230.405 54.3359 231.685 50.8799L232.261 49.3439L219.397 16.2559H229.957L236.933 36.7999L244.677 16.2559H254.917L238.661 55.2319C235.973 61.7599 232.389 64.5119 226.757 64.5119C224.389 64.5119 222.149 64.1919 220.229 63.6159Z" fill="black"/>
</svg>
