<svg width="281" height="36" viewBox="0 0 281 36" fill="none" xmlns="http://www.w3.org/2000/svg">
<path d="M-8.38041e-05 17.1722V0.468179H4.60792V16.8842C4.60792 20.6642 6.65992 22.7522 10.4039 22.7522C14.1479 22.7522 16.2359 20.6282 16.2359 16.8842V0.468179H20.8439V17.1722C20.8439 23.3282 16.8119 27.2162 10.4039 27.2162C4.03192 27.2162 -8.38041e-05 23.3642 -8.38041e-05 17.1722ZM28.9599 26.7842H23.9559L30.0759 18.0722L23.9559 9.00018H29.0679L32.9919 15.0482L36.7719 9.00018H41.7039L35.6559 18.0002L41.5239 26.7842H36.4839L32.7039 20.9162L28.9599 26.7842ZM43.457 7.81218C43.457 3.20418 47.273 0.000179052 52.817 0.000179052C58.145 0.000179052 61.529 2.95218 61.673 7.70418H57.065C56.957 5.43618 55.337 4.10418 52.745 4.10418C49.901 4.10418 48.065 5.47218 48.065 7.66818C48.065 9.54018 49.073 10.5842 51.269 11.0882L55.409 11.9882C59.909 12.9602 62.105 15.2642 62.105 19.1882C62.105 24.0842 58.289 27.2522 52.493 27.2522C46.877 27.2522 43.205 24.2642 43.097 19.5482H47.705C47.741 21.7802 49.541 23.1122 52.493 23.1122C55.553 23.1122 57.497 21.7802 57.497 19.5842C57.497 17.8202 56.597 16.7762 54.437 16.3082L50.261 15.3722C45.797 14.4002 43.457 11.8442 43.457 7.81218ZM64.5817 17.8562C64.5817 12.3482 68.2177 8.46018 73.4737 8.46018C78.3337 8.46018 81.6457 11.1602 82.1137 15.4442H77.7217C77.2177 13.4282 75.7417 12.3842 73.6537 12.3842C70.8457 12.3842 68.9737 14.5082 68.9737 17.8562C68.9737 21.2042 70.7017 23.2922 73.5097 23.2922C75.7057 23.2922 77.2537 22.2122 77.7217 20.2682H82.1497C81.6097 24.4082 78.1537 27.2522 73.5097 27.2522C68.1097 27.2522 64.5817 23.5082 64.5817 17.8562ZM97.4786 9.00018H101.871V26.7842H97.8026L97.4786 24.4082C96.3986 26.1002 94.0946 27.2522 91.7186 27.2522C87.6146 27.2522 85.2026 24.4802 85.2026 20.1242V9.00018H89.5946V18.5762C89.5946 21.9602 90.9266 23.3282 93.3746 23.3282C96.1466 23.3282 97.4786 21.7082 97.4786 18.3242V9.00018ZM110.835 26.7842H106.479V0.000179052H110.835V26.7842ZM115.442 35.0282V9.00018H119.51L119.798 11.7002C120.878 9.64818 123.218 8.46018 125.918 8.46018C130.922 8.46018 134.234 12.0962 134.234 17.6762C134.234 23.2202 131.21 27.2522 125.918 27.2522C123.254 27.2522 120.95 26.2082 119.834 24.4082V35.0282H115.442ZM119.87 17.8922C119.87 21.0962 121.85 23.2922 124.874 23.2922C127.97 23.2922 129.806 21.0602 129.806 17.8922C129.806 14.7242 127.97 12.4562 124.874 12.4562C121.85 12.4562 119.87 14.6882 119.87 17.8922ZM143.603 26.7842H139.211V12.6722H135.791V9.00018H139.211V3.45618H143.603V9.00018H147.059V12.6722H143.603V26.7842ZM174.541 16.0202H164.749V26.7842H160.141V0.468179H176.413V4.71618H164.749V11.8802H174.541V16.0202ZM189.989 8.92818V12.9962H188.369C185.201 12.9962 183.221 14.6882 183.221 18.1442V26.7842H178.829V9.03618H182.969L183.221 11.6282C183.977 9.86418 185.669 8.67618 188.045 8.67618C188.657 8.67618 189.269 8.74818 189.989 8.92818ZM200.32 27.2522C195.028 27.2522 191.32 23.4002 191.32 17.8922C191.32 12.3122 194.956 8.46018 200.176 8.46018C205.504 8.46018 208.888 12.0242 208.888 17.5682V18.9002L195.496 18.9362C195.82 22.0682 197.476 23.6522 200.392 23.6522C202.804 23.6522 204.388 22.7162 204.892 21.0242H208.96C208.204 24.9122 204.964 27.2522 200.32 27.2522ZM200.212 12.0602C197.62 12.0602 196.036 13.4642 195.604 16.1282H204.532C204.532 13.6802 202.84 12.0602 200.212 12.0602ZM220.359 27.2522C215.067 27.2522 211.359 23.4002 211.359 17.8922C211.359 12.3122 214.995 8.46018 220.215 8.46018C225.543 8.46018 228.927 12.0242 228.927 17.5682V18.9002L215.535 18.9362C215.859 22.0682 217.515 23.6522 220.431 23.6522C222.843 23.6522 224.427 22.7162 224.931 21.0242H228.999C228.243 24.9122 225.003 27.2522 220.359 27.2522ZM220.251 12.0602C217.659 12.0602 216.075 13.4642 215.643 16.1282H224.571C224.571 13.6802 222.879 12.0602 220.251 12.0602ZM236.51 26.7842H232.442V0.000179052H236.834V11.5922C237.986 9.61218 240.362 8.42418 243.062 8.42418C248.138 8.42418 251.234 12.3842 251.234 18.0002C251.234 23.4722 247.886 27.2522 242.774 27.2522C240.11 27.2522 237.842 26.0642 236.798 24.0122L236.51 26.7842ZM236.87 17.8202C236.87 21.0242 238.85 23.2202 241.874 23.2202C244.97 23.2202 246.806 20.9882 246.806 17.8202C246.806 14.6522 244.97 12.3842 241.874 12.3842C238.85 12.3842 236.87 14.6162 236.87 17.8202ZM256.927 5.43618C255.415 5.43618 254.227 4.24818 254.227 2.77218C254.227 1.29618 255.415 0.144179 256.927 0.144179C258.367 0.144179 259.555 1.29618 259.555 2.77218C259.555 4.24818 258.367 5.43618 256.927 5.43618ZM254.731 26.7842V9.00018H259.123V26.7842H254.731ZM271.617 27.2522C266.325 27.2522 262.617 23.4002 262.617 17.8922C262.617 12.3122 266.253 8.46018 271.473 8.46018C276.801 8.46018 280.185 12.0242 280.185 17.5682V18.9002L266.793 18.9362C267.117 22.0682 268.773 23.6522 271.689 23.6522C274.101 23.6522 275.685 22.7162 276.189 21.0242H280.257C279.501 24.9122 276.261 27.2522 271.617 27.2522ZM271.509 12.0602C268.917 12.0602 267.333 13.4642 266.901 16.1282H275.829C275.829 13.6802 274.137 12.0602 271.509 12.0602Z" fill="black"/>
</svg>
