<svg width="236" height="27" viewBox="0 0 236 27" fill="none" xmlns="http://www.w3.org/2000/svg">
<path d="M4.48009 20.6084L9.3624e-05 6.9164H2.71609L4.98409 14.0284C5.29209 15.0364 5.57209 16.0724 5.82409 17.2764C6.04809 16.0724 6.41209 14.9244 6.72009 14.0284L9.01609 6.9164H11.7041L13.9721 14.0284C14.1961 14.7004 14.6441 16.2964 14.8681 17.2764C15.0921 16.1844 15.3441 15.2324 15.7361 14.0284L18.0321 6.9164H20.7761L16.1001 20.6084H13.6081L11.2281 13.2724C10.7801 11.9004 10.5001 10.8364 10.3601 10.0804C10.2201 10.7524 9.96809 11.6484 9.46409 13.3004L7.08409 20.6084H4.48009ZM26.1123 20.6084L21.6323 6.9164H24.3483L26.6163 14.0284C26.9243 15.0364 27.2043 16.0724 27.4563 17.2764C27.6803 16.0724 28.0443 14.9244 28.3523 14.0284L30.6483 6.9164H33.3363L35.6043 14.0284C35.8283 14.7004 36.2763 16.2964 36.5003 17.2764C36.7243 16.1844 36.9763 15.2324 37.3683 14.0284L39.6643 6.9164H42.4083L37.7323 20.6084H35.2403L32.8603 13.2724C32.4123 11.9004 32.1323 10.8364 31.9923 10.0804C31.8523 10.7524 31.6003 11.6484 31.0963 13.3004L28.7163 20.6084H26.1123ZM47.7445 20.6084L43.2645 6.9164H45.9805L48.2485 14.0284C48.5565 15.0364 48.8365 16.0724 49.0885 17.2764C49.3125 16.0724 49.6765 14.9244 49.9845 14.0284L52.2805 6.9164H54.9685L57.2365 14.0284C57.4605 14.7004 57.9085 16.2964 58.1325 17.2764C58.3565 16.1844 58.6085 15.2324 59.0005 14.0284L61.2965 6.9164H64.0405L59.3645 20.6084H56.8725L54.4925 13.2724C54.0445 11.9004 53.7645 10.8364 53.6245 10.0804C53.4845 10.7524 53.2325 11.6484 52.7285 13.3004L50.3485 20.6084H47.7445ZM66.1818 20.9444C65.0898 20.9444 64.1658 20.0484 64.1658 18.9844C64.1658 17.8924 65.0898 16.9964 66.1818 16.9964C67.2458 16.9964 68.1698 17.8924 68.1698 18.9844C68.1698 20.0484 67.2458 20.9444 66.1818 20.9444ZM81.0172 6.9164H83.6212V20.6084H81.2692L80.9892 18.5364C80.2052 19.9644 78.3852 20.9444 76.3692 20.9444C73.1772 20.9444 71.3852 18.7884 71.3852 15.4284V6.9164H74.0172V14.5604C74.0172 17.5004 75.2772 18.6204 77.2932 18.6204C79.7012 18.6204 81.0172 17.0804 81.0172 14.1404V6.9164ZM88.9799 20.6084H85.9559L90.7439 13.8324L85.9839 6.9164H89.0359L92.5079 12.0124L95.8959 6.9164H98.8919L94.1319 13.8324L98.8079 20.6084H95.7559L92.3399 15.5964L88.9799 20.6084ZM99.9984 16.6324H102.518C102.518 18.0324 103.582 18.8724 105.318 18.8724C107.166 18.8724 108.23 18.1164 108.23 16.8564C108.23 15.9324 107.782 15.3724 106.354 15.0084L103.946 14.4484C101.51 13.8604 100.362 12.6564 100.362 10.6404C100.362 8.1204 102.49 6.5244 105.514 6.5244C108.51 6.5244 110.47 8.2044 110.526 10.8084H108.006C107.95 9.4364 107.026 8.5684 105.43 8.5684C103.778 8.5684 102.854 9.2964 102.854 10.5564C102.854 11.4804 103.526 12.0964 104.87 12.4324L107.278 13.0204C109.602 13.5804 110.75 14.6444 110.75 16.6884C110.75 19.2924 108.51 20.9444 105.262 20.9444C102.042 20.9444 99.9984 19.2364 99.9984 16.6324ZM112.913 13.7764C112.913 9.4924 115.629 6.5244 119.633 6.5244C123.077 6.5244 125.485 8.4844 125.961 11.5364H123.329C122.881 9.8004 121.481 8.8764 119.717 8.8764C117.225 8.8764 115.517 10.7804 115.517 13.7484C115.517 16.6884 117.113 18.5924 119.605 18.5924C121.481 18.5924 122.881 17.6124 123.357 15.9884H125.989C125.457 18.9564 122.909 20.9444 119.605 20.9444C115.573 20.9444 112.913 18.0884 112.913 13.7764ZM138.37 6.9164H140.974V20.6084H138.622L138.342 18.5364C137.558 19.9644 135.738 20.9444 133.722 20.9444C130.53 20.9444 128.738 18.7884 128.738 15.4284V6.9164H131.37V14.5604C131.37 17.5004 132.63 18.6204 134.646 18.6204C137.054 18.6204 138.37 17.0804 138.37 14.1404V6.9164ZM147.621 20.6084H144.989V0.000396729H147.621V20.6084ZM151.635 26.7404V6.9164H154.015L154.211 9.3804C155.135 7.5044 156.983 6.5244 159.167 6.5244C163.087 6.5244 165.523 9.4644 165.523 13.6644C165.523 17.8364 163.227 20.9724 159.167 20.9724C156.983 20.9724 155.163 20.0484 154.267 18.3684V26.7404H151.635ZM154.295 13.7764C154.295 16.5764 155.919 18.5924 158.607 18.5924C161.295 18.5924 162.891 16.5764 162.891 13.7764C162.891 10.9484 161.295 8.9324 158.607 8.9324C155.919 8.9324 154.295 10.9204 154.295 13.7764ZM172.292 20.6084H169.66V9.1284H166.972V6.9164H169.66V2.6324H172.292V6.9164H174.98V9.1284H172.292V20.6084ZM178.594 20.9444C177.502 20.9444 176.578 20.0484 176.578 18.9844C176.578 17.8924 177.502 16.9964 178.594 16.9964C179.658 16.9964 180.582 17.8924 180.582 18.9844C180.582 20.0484 179.658 20.9444 178.594 20.9444ZM182.769 13.7764C182.769 9.4924 185.485 6.5244 189.489 6.5244C192.933 6.5244 195.341 8.4844 195.817 11.5364H193.185C192.737 9.8004 191.337 8.8764 189.573 8.8764C187.081 8.8764 185.373 10.7804 185.373 13.7484C185.373 16.6884 186.969 18.5924 189.461 18.5924C191.337 18.5924 192.737 17.6124 193.213 15.9884H195.845C195.313 18.9564 192.765 20.9444 189.461 20.9444C185.429 20.9444 182.769 18.0884 182.769 13.7764ZM197.866 13.7484C197.866 9.5204 200.89 6.5524 205.006 6.5524C209.094 6.5524 212.118 9.5204 212.118 13.7484C212.118 17.9764 209.094 20.9444 205.006 20.9444C200.89 20.9444 197.866 17.9764 197.866 13.7484ZM200.526 13.7484C200.526 16.6044 202.346 18.5924 205.006 18.5924C207.638 18.5924 209.486 16.6044 209.486 13.7484C209.486 10.8924 207.638 8.9044 205.006 8.9044C202.346 8.9044 200.526 10.8924 200.526 13.7484ZM217.803 20.6084H215.171V6.9164H217.523L217.775 8.7084C218.475 7.4204 219.931 6.5244 221.863 6.5244C223.991 6.5244 225.503 7.5884 226.203 9.2964C226.847 7.5884 228.499 6.5244 230.627 6.5244C233.763 6.5244 235.667 8.4844 235.667 11.6484V20.6084H233.091V12.2924C233.091 10.1364 231.887 8.9044 230.039 8.9044C228.051 8.9044 226.735 10.3044 226.735 12.4884V20.6084H224.131V12.2644C224.131 10.1084 222.955 8.9324 221.107 8.9324C219.119 8.9324 217.803 10.3044 217.803 12.4884V20.6084Z" fill="black"/>
</svg>
