<svg width="581" height="35" viewBox="0 0 581 35" fill="none" xmlns="http://www.w3.org/2000/svg">
<path opacity="0.5" d="M13.248 26.7838C5.76 26.7838 -2.33948e-06 20.9518 -2.33948e-06 13.3918C-2.33948e-06 5.86778 5.796 0.035784 13.248 0.035784C20.736 0.035784 26.532 5.86778 26.532 13.3918C26.532 20.9518 20.772 26.7838 13.248 26.7838ZM13.248 25.0198C19.764 25.0198 24.624 20.0158 24.624 13.3918C24.624 6.76778 19.728 1.79978 13.248 1.79978C6.804 1.79978 1.908 6.80378 1.908 13.3918C1.908 20.0158 6.768 25.0198 13.248 25.0198ZM6.66 13.4638C6.66 9.14378 9.468 6.15578 13.536 6.15578C16.668 6.15578 19.008 7.99178 19.584 10.8358H17.388C16.884 9.03578 15.552 8.09979 13.572 8.09979C10.728 8.09979 8.784 10.2958 8.784 13.4278C8.784 16.5958 10.656 18.7198 13.392 18.7198C15.444 18.7198 16.884 17.7478 17.46 16.0198H19.62C18.972 18.8278 16.488 20.6638 13.392 20.6638C9.432 20.6638 6.66 17.7118 6.66 13.4638ZM56.5822 26.2798H39.5902V24.2278L47.8342 17.0278C52.5862 12.8878 53.8102 11.0878 53.8102 8.02778C53.8102 4.53578 51.7222 2.41178 48.3022 2.41178C44.7382 2.41178 42.3982 5.00378 42.2902 8.99978H39.6982C39.8422 3.59978 43.2622 0.035784 48.3382 0.035784C53.1982 0.035784 56.4382 3.16778 56.4382 7.88378C56.4382 11.6278 54.7462 14.1118 49.5982 18.6118L43.5862 23.8678H56.5822V26.2798ZM60.165 13.3918C60.165 5.39978 64.089 -0.00021553 70.497 -0.00021553C76.869 -0.00021553 80.793 5.39978 80.793 13.3918C80.793 21.4198 76.941 26.7478 70.497 26.7478C64.017 26.7478 60.165 21.4198 60.165 13.3918ZM62.721 13.3918C62.721 20.0878 65.565 24.4078 70.497 24.4078C75.429 24.4078 78.273 20.0878 78.273 13.3918C78.273 6.65978 75.429 2.37578 70.497 2.37578C65.565 2.37578 62.721 6.65978 62.721 13.3918ZM101.371 26.2798H84.3792V24.2278L92.6232 17.0278C97.3752 12.8878 98.5992 11.0878 98.5992 8.02778C98.5992 4.53578 96.5112 2.41178 93.0912 2.41178C89.5272 2.41178 87.1872 5.00378 87.0792 8.99978H84.4872C84.6312 3.59978 88.0512 0.035784 93.1272 0.035784C97.9872 0.035784 101.227 3.16778 101.227 7.88378C101.227 11.6278 99.5352 14.1118 94.3872 18.6118L88.3752 23.8678H101.371V26.2798ZM113.203 26.7118C108.019 26.7118 104.707 23.4718 104.707 18.3958H107.299C107.299 22.1038 109.567 24.3358 113.239 24.3358C117.127 24.3358 119.647 21.7438 119.647 17.9278C119.647 14.3278 117.307 11.4838 113.239 11.4838C110.863 11.4838 108.703 12.5638 107.299 14.1118L105.247 13.4638L108.343 0.503784H120.799V2.87978H110.215L108.271 10.9798C109.711 9.82778 111.583 9.17978 113.599 9.17978C118.963 9.17978 122.275 13.0318 122.275 17.8558C122.275 23.0398 118.603 26.7118 113.203 26.7118ZM136.688 17.3158V0.503784H139.28V17.2078C139.28 21.7438 141.764 24.1918 146.264 24.1918C150.656 24.1918 153.14 21.6718 153.14 17.2078V0.503784H155.732V17.3158C155.732 23.1478 152.132 26.7118 146.264 26.7118C140.288 26.7118 136.688 23.1838 136.688 17.3158ZM161.973 26.2798H159.057L165.285 17.5678L159.093 8.85578H162.009L166.941 15.8398L171.837 8.85578H174.717L168.525 17.6038L174.681 26.2798H171.729L166.833 19.2958L161.973 26.2798ZM176.664 7.19978C176.664 2.87978 180.12 0.035784 185.304 0.035784C189.948 0.035784 193.008 2.62778 193.404 6.94779H190.776C190.488 4.03178 188.508 2.37578 185.268 2.37578C181.632 2.37578 179.256 4.24778 179.256 7.16378C179.256 9.43178 180.588 10.8718 183.288 11.5558L187.716 12.6358C191.748 13.6078 193.836 15.9118 193.836 19.4038C193.836 23.8678 190.38 26.7118 185.052 26.7118C180.048 26.7118 176.664 24.0838 176.34 19.8718H179.004C179.148 22.5718 181.524 24.3358 185.052 24.3358C188.832 24.3358 191.244 22.4998 191.244 19.5478C191.244 17.2438 189.948 15.7318 187.176 15.0838L182.82 14.0038C178.788 13.0318 176.664 10.7278 176.664 7.19978ZM196.733 17.6038C196.733 12.1318 200.081 8.38778 205.157 8.38778C209.189 8.38778 212.141 10.7278 212.825 14.3278H210.341C209.693 11.9158 207.605 10.5838 205.193 10.5838C201.665 10.5838 199.181 13.2838 199.181 17.5678C199.181 21.7078 201.485 24.4798 205.013 24.4798C207.605 24.4798 209.693 23.0398 210.377 20.8078H212.897C212.069 24.3718 208.973 26.7118 205.013 26.7118C200.081 26.7118 196.733 23.0758 196.733 17.6038ZM228.9 8.85578H231.384V26.2798H229.224L228.9 23.3278C227.928 25.3438 225.516 26.7118 222.78 26.7118C218.676 26.7118 216.444 23.9038 216.444 19.6558V8.81978H218.964V18.8638C218.964 23.0038 220.8 24.4798 223.572 24.4798C226.92 24.4798 228.9 22.2478 228.9 18.1078V8.85578ZM239.15 26.2798H236.666V0.035784H239.15V26.2798ZM244.433 33.8758V8.85578H246.593L246.845 12.3838C248.069 9.68378 250.517 8.38778 253.433 8.38778C258.473 8.38778 261.497 12.2398 261.497 17.4958C261.497 22.7518 258.581 26.7118 253.433 26.7118C250.481 26.7118 248.141 25.4518 246.917 22.9318V33.8758H244.433ZM246.953 17.5678C246.953 21.5638 249.185 24.4798 253.001 24.4798C256.781 24.4798 258.977 21.5638 258.977 17.5678C258.977 13.5358 256.781 10.6558 253.001 10.6558C249.185 10.6558 246.953 13.5358 246.953 17.5678ZM269.277 26.2798H266.829V10.9438H263.337V8.85578H266.829V3.34778H269.277V8.85578H272.769V10.9438H269.277V26.2798ZM277.038 26.6758C275.814 26.6758 274.77 25.6678 274.77 24.4798C274.77 23.2558 275.814 22.2118 277.038 22.2118C278.262 22.2118 279.306 23.2558 279.306 24.4798C279.306 25.6678 278.262 26.6758 277.038 26.6758ZM294.86 26.2798H292.232L301.7 0.503784H304.904L314.48 26.2798H311.78L309.26 19.4398H297.38L294.86 26.2798ZM302.96 4.13978L298.172 17.1718H308.432L303.608 4.13978C303.5 3.77979 303.32 3.34778 303.284 3.09578C303.248 3.31178 303.104 3.77979 302.96 4.13978ZM320.115 26.2798H317.631V0.035784H320.115V26.2798ZM327.99 26.2798H325.506V0.035784H327.99V26.2798ZM352.365 8.63978V10.8718H350.997C347.793 10.8718 345.741 13.0318 345.741 16.3438V26.2798H343.257V8.85578H345.597L345.777 11.5558C346.461 9.68378 348.297 8.45978 350.745 8.45978C351.285 8.45978 351.753 8.49578 352.365 8.63978ZM356.892 4.06778C355.884 4.06778 355.056 3.23978 355.056 2.23178C355.056 1.22378 355.884 0.359784 356.892 0.359784C357.9 0.359784 358.764 1.22378 358.764 2.23178C358.764 3.23978 357.9 4.06778 356.892 4.06778ZM355.668 26.2798V8.85578H358.152V26.2798H355.668ZM362.144 17.0638C362.144 12.3118 365.204 8.38778 370.316 8.38778C373.34 8.38778 375.644 9.79178 376.76 12.3478L377.012 8.85578H379.172V25.7398C379.172 30.9238 375.86 34.3078 370.748 34.3078C366.284 34.3078 363.152 31.7878 362.468 27.5758H364.952C365.492 30.3838 367.652 32.0398 370.784 32.0398C374.348 32.0398 376.724 29.6278 376.724 25.9918V21.8518C375.536 24.2998 373.124 25.7398 370.136 25.7398C365.168 25.7398 362.144 21.8158 362.144 17.0638ZM364.628 17.0278C364.628 20.5918 366.824 23.5078 370.496 23.5078C374.276 23.5078 376.508 20.7718 376.508 17.0278C376.508 13.3198 374.348 10.5838 370.532 10.5838C366.788 10.5838 364.628 13.4998 364.628 17.0278ZM386.839 26.2438H384.355V0.035784H386.839V11.8798C387.955 9.79178 390.079 8.38778 392.995 8.38778C397.567 8.38778 399.619 11.2318 399.619 15.6238V26.2798H397.135V16.1638C397.135 12.0958 395.227 10.6558 392.527 10.6558C388.783 10.6558 386.839 13.4278 386.839 16.7758V26.2438ZM408.566 26.2798H406.118V10.9438H402.626V8.85578H406.118V3.34778H408.566V8.85578H412.058V10.9438H408.566V26.2798ZM413.817 21.3838H416.193C416.193 23.3998 417.705 24.6598 420.153 24.6598C422.853 24.6598 424.437 23.5078 424.437 21.6358C424.437 20.1958 423.717 19.3678 421.665 18.8638L418.677 18.1078C415.653 17.3518 414.177 15.7678 414.177 13.3918C414.177 10.3318 416.733 8.38778 420.477 8.38778C424.149 8.38778 426.525 10.4038 426.633 13.6438H424.221C424.149 11.6278 422.745 10.4398 420.405 10.4398C417.957 10.4398 416.589 11.4838 416.589 13.3558C416.589 14.6878 417.525 15.6238 419.433 16.0918L422.421 16.8478C425.445 17.6038 426.813 19.0078 426.813 21.5278C426.813 24.6598 424.149 26.7118 420.189 26.7118C416.265 26.7118 413.817 24.6238 413.817 21.3838ZM449.994 8.63978V10.8718H448.626C445.422 10.8718 443.37 13.0318 443.37 16.3438V26.2798H440.886V8.85578H443.226L443.406 11.5558C444.09 9.68378 445.926 8.45978 448.374 8.45978C448.914 8.45978 449.382 8.49578 449.994 8.63978ZM459.937 26.7118C454.825 26.7118 451.405 23.0398 451.405 17.5678C451.405 12.1318 454.789 8.38778 459.757 8.38778C464.473 8.38778 467.677 11.7358 467.677 16.6678V17.8918H453.817C453.997 22.1398 456.229 24.5878 459.973 24.5878C462.817 24.5878 464.653 23.3638 465.301 21.0598H467.677C466.741 24.7318 464.041 26.7118 459.937 26.7118ZM459.757 10.5118C456.481 10.5118 454.321 12.6718 453.889 16.0918H465.193C465.193 12.7438 463.033 10.5118 459.757 10.5118ZM470.172 21.3838H472.548C472.548 23.3998 474.06 24.6598 476.508 24.6598C479.208 24.6598 480.792 23.5078 480.792 21.6358C480.792 20.1958 480.072 19.3678 478.02 18.8638L475.032 18.1078C472.008 17.3518 470.532 15.7678 470.532 13.3918C470.532 10.3318 473.088 8.38778 476.832 8.38778C480.504 8.38778 482.88 10.4038 482.988 13.6438H480.576C480.504 11.6278 479.1 10.4398 476.76 10.4398C474.312 10.4398 472.944 11.4838 472.944 13.3558C472.944 14.6878 473.88 15.6238 475.788 16.0918L478.776 16.8478C481.8 17.6038 483.168 19.0078 483.168 21.5278C483.168 24.6598 480.504 26.7118 476.544 26.7118C472.62 26.7118 470.172 24.6238 470.172 21.3838ZM494.565 26.7118C489.453 26.7118 486.033 23.0398 486.033 17.5678C486.033 12.1318 489.417 8.38778 494.385 8.38778C499.101 8.38778 502.305 11.7358 502.305 16.6678V17.8918H488.445C488.625 22.1398 490.857 24.5878 494.601 24.5878C497.445 24.5878 499.281 23.3638 499.929 21.0598H502.305C501.369 24.7318 498.669 26.7118 494.565 26.7118ZM494.385 10.5118C491.109 10.5118 488.949 12.6718 488.517 16.0918H499.821C499.821 12.7438 497.661 10.5118 494.385 10.5118ZM515.385 8.63978V10.8718H514.017C510.813 10.8718 508.761 13.0318 508.761 16.3438V26.2798H506.277V8.85578H508.617L508.797 11.5558C509.481 9.68378 511.317 8.45978 513.765 8.45978C514.305 8.45978 514.773 8.49578 515.385 8.63978ZM524.074 26.2798L516.946 8.85578H519.61L524.11 20.0878C524.578 21.3478 525.046 22.5358 525.37 23.6878C525.694 22.4998 526.162 21.3478 526.666 20.0878L531.238 8.85578H533.794L526.558 26.2798H524.074ZM543.257 26.7118C538.145 26.7118 534.725 23.0398 534.725 17.5678C534.725 12.1318 538.109 8.38778 543.077 8.38778C547.793 8.38778 550.997 11.7358 550.997 16.6678V17.8918H537.137C537.317 22.1398 539.549 24.5878 543.293 24.5878C546.137 24.5878 547.973 23.3638 548.621 21.0598H550.997C550.061 24.7318 547.361 26.7118 543.257 26.7118ZM543.077 10.5118C539.801 10.5118 537.641 12.6718 537.209 16.0918H548.513C548.513 12.7438 546.353 10.5118 543.077 10.5118ZM561.808 26.7118C556.732 26.7118 553.744 22.8238 553.744 17.6038C553.744 12.3478 556.732 8.38778 561.916 8.38778C564.796 8.38778 567.1 9.64778 568.324 12.1678V0.035784H570.808V26.2798H568.648L568.396 22.7158C567.172 25.4158 564.724 26.7118 561.808 26.7118ZM562.24 24.4438C566.056 24.4438 568.288 21.5638 568.288 17.5318C568.288 13.5358 566.056 10.6198 562.24 10.6198C558.46 10.6198 556.264 13.5358 556.264 17.5318C556.264 21.5638 558.46 24.4438 562.24 24.4438ZM578.116 26.6758C576.892 26.6758 575.848 25.6678 575.848 24.4798C575.848 23.2558 576.892 22.2118 578.116 22.2118C579.34 22.2118 580.384 23.2558 580.384 24.4798C580.384 25.6678 579.34 26.6758 578.116 26.6758Z" fill="black"/>
</svg>
