<svg width="581" height="35" viewBox="0 0 581 35" fill="none" xmlns="http://www.w3.org/2000/svg">
<path opacity="0.5" d="M13.2476 26.7838C5.75957 26.7838 -0.000429586 20.9518 -0.000429586 13.3918C-0.000429586 5.86778 5.79557 0.035784 13.2476 0.035784C20.7356 0.035784 26.5316 5.86778 26.5316 13.3918C26.5316 20.9518 20.7716 26.7838 13.2476 26.7838ZM13.2476 25.0198C19.7636 25.0198 24.6236 20.0158 24.6236 13.3918C24.6236 6.76778 19.7276 1.79978 13.2476 1.79978C6.80357 1.79978 1.90757 6.80378 1.90757 13.3918C1.90757 20.0158 6.76757 25.0198 13.2476 25.0198ZM6.65957 13.4638C6.65957 9.14378 9.46757 6.15578 13.5356 6.15578C16.6676 6.15578 19.0076 7.99178 19.5836 10.8358H17.3876C16.8836 9.03578 15.5516 8.09979 13.5716 8.09979C10.7276 8.09979 8.78357 10.2958 8.78357 13.4278C8.78357 16.5958 10.6556 18.7198 13.3916 18.7198C15.4436 18.7198 16.8836 17.7478 17.4596 16.0198H19.6196C18.9716 18.8278 16.4876 20.6638 13.3916 20.6638C9.43157 20.6638 6.65957 17.7118 6.65957 13.4638ZM56.5817 26.2798H39.5897V24.2278L47.8337 17.0278C52.5857 12.8878 53.8097 11.0878 53.8097 8.02778C53.8097 4.53578 51.7217 2.41178 48.3017 2.41178C44.7377 2.41178 42.3977 5.00378 42.2897 8.99978H39.6977C39.8417 3.59978 43.2617 0.035784 48.3377 0.035784C53.1977 0.035784 56.4377 3.16778 56.4377 7.88378C56.4377 11.6278 54.7457 14.1118 49.5977 18.6118L43.5857 23.8678H56.5817V26.2798ZM60.1646 13.3918C60.1646 5.39978 64.0886 -0.00021553 70.4966 -0.00021553C76.8686 -0.00021553 80.7926 5.39978 80.7926 13.3918C80.7926 21.4198 76.9406 26.7478 70.4966 26.7478C64.0166 26.7478 60.1646 21.4198 60.1646 13.3918ZM62.7206 13.3918C62.7206 20.0878 65.5646 24.4078 70.4966 24.4078C75.4286 24.4078 78.2726 20.0878 78.2726 13.3918C78.2726 6.65978 75.4286 2.37578 70.4966 2.37578C65.5646 2.37578 62.7206 6.65978 62.7206 13.3918ZM101.371 26.2798H84.3788V24.2278L92.6228 17.0278C97.3748 12.8878 98.5988 11.0878 98.5988 8.02778C98.5988 4.53578 96.5108 2.41178 93.0908 2.41178C89.5268 2.41178 87.1868 5.00378 87.0788 8.99978H84.4868C84.6308 3.59978 88.0508 0.035784 93.1268 0.035784C97.9868 0.035784 101.227 3.16778 101.227 7.88378C101.227 11.6278 99.5348 14.1118 94.3868 18.6118L88.3748 23.8678H101.371V26.2798ZM113.203 26.7118C108.019 26.7118 104.707 23.4718 104.707 18.3958H107.299C107.299 22.1038 109.567 24.3358 113.239 24.3358C117.127 24.3358 119.647 21.7438 119.647 17.9278C119.647 14.3278 117.307 11.4838 113.239 11.4838C110.863 11.4838 108.703 12.5638 107.299 14.1118L105.247 13.4638L108.343 0.503784H120.799V2.87978H110.215L108.271 10.9798C109.711 9.82778 111.583 9.17978 113.599 9.17978C118.963 9.17978 122.275 13.0318 122.275 17.8558C122.275 23.0398 118.603 26.7118 113.203 26.7118ZM136.687 17.3158V0.503784H139.279V17.2078C139.279 21.7438 141.763 24.1918 146.263 24.1918C150.655 24.1918 153.139 21.6718 153.139 17.2078V0.503784H155.731V17.3158C155.731 23.1478 152.131 26.7118 146.263 26.7118C140.287 26.7118 136.687 23.1838 136.687 17.3158ZM161.972 26.2798H159.056L165.284 17.5678L159.092 8.85578H162.008L166.94 15.8398L171.836 8.85578H174.716L168.524 17.6038L174.68 26.2798H171.728L166.832 19.2958L161.972 26.2798ZM176.663 7.19978C176.663 2.87978 180.119 0.035784 185.303 0.035784C189.947 0.035784 193.007 2.62778 193.403 6.94779H190.775C190.487 4.03178 188.507 2.37578 185.267 2.37578C181.631 2.37578 179.255 4.24778 179.255 7.16378C179.255 9.43178 180.587 10.8718 183.287 11.5558L187.715 12.6358C191.747 13.6078 193.835 15.9118 193.835 19.4038C193.835 23.8678 190.379 26.7118 185.051 26.7118C180.047 26.7118 176.663 24.0838 176.339 19.8718H179.003C179.147 22.5718 181.523 24.3358 185.051 24.3358C188.831 24.3358 191.243 22.4998 191.243 19.5478C191.243 17.2438 189.947 15.7318 187.175 15.0838L182.819 14.0038C178.787 13.0318 176.663 10.7278 176.663 7.19978ZM196.732 17.6038C196.732 12.1318 200.08 8.38778 205.156 8.38778C209.188 8.38778 212.14 10.7278 212.824 14.3278H210.34C209.692 11.9158 207.604 10.5838 205.192 10.5838C201.664 10.5838 199.18 13.2838 199.18 17.5678C199.18 21.7078 201.484 24.4798 205.012 24.4798C207.604 24.4798 209.692 23.0398 210.376 20.8078H212.896C212.068 24.3718 208.972 26.7118 205.012 26.7118C200.08 26.7118 196.732 23.0758 196.732 17.6038ZM228.899 8.85578H231.383V26.2798H229.223L228.899 23.3278C227.927 25.3438 225.515 26.7118 222.779 26.7118C218.675 26.7118 216.443 23.9038 216.443 19.6558V8.81978H218.963V18.8638C218.963 23.0038 220.799 24.4798 223.571 24.4798C226.919 24.4798 228.899 22.2478 228.899 18.1078V8.85578ZM239.15 26.2798H236.666V0.035784H239.15V26.2798ZM244.433 33.8758V8.85578H246.593L246.845 12.3838C248.069 9.68378 250.517 8.38778 253.433 8.38778C258.473 8.38778 261.497 12.2398 261.497 17.4958C261.497 22.7518 258.581 26.7118 253.433 26.7118C250.481 26.7118 248.141 25.4518 246.917 22.9318V33.8758H244.433ZM246.953 17.5678C246.953 21.5638 249.185 24.4798 253.001 24.4798C256.781 24.4798 258.977 21.5638 258.977 17.5678C258.977 13.5358 256.781 10.6558 253.001 10.6558C249.185 10.6558 246.953 13.5358 246.953 17.5678ZM269.276 26.2798H266.828V10.9438H263.336V8.85578H266.828V3.34778H269.276V8.85578H272.768V10.9438H269.276V26.2798ZM277.037 26.6758C275.813 26.6758 274.769 25.6678 274.769 24.4798C274.769 23.2558 275.813 22.2118 277.037 22.2118C278.261 22.2118 279.305 23.2558 279.305 24.4798C279.305 25.6678 278.261 26.6758 277.037 26.6758ZM294.86 26.2798H292.232L301.7 0.503784H304.904L314.48 26.2798H311.78L309.26 19.4398H297.38L294.86 26.2798ZM302.96 4.13978L298.172 17.1718H308.432L303.608 4.13978C303.5 3.77979 303.32 3.34778 303.284 3.09578C303.248 3.31178 303.104 3.77979 302.96 4.13978ZM320.115 26.2798H317.631V0.035784H320.115V26.2798ZM327.99 26.2798H325.506V0.035784H327.99V26.2798ZM352.365 8.63978V10.8718H350.997C347.793 10.8718 345.741 13.0318 345.741 16.3438V26.2798H343.257V8.85578H345.597L345.777 11.5558C346.461 9.68378 348.297 8.45978 350.745 8.45978C351.285 8.45978 351.753 8.49578 352.365 8.63978ZM356.891 4.06778C355.883 4.06778 355.055 3.23978 355.055 2.23178C355.055 1.22378 355.883 0.359784 356.891 0.359784C357.899 0.359784 358.763 1.22378 358.763 2.23178C358.763 3.23978 357.899 4.06778 356.891 4.06778ZM355.667 26.2798V8.85578H358.151V26.2798H355.667ZM362.143 17.0638C362.143 12.3118 365.203 8.38778 370.315 8.38778C373.339 8.38778 375.643 9.79178 376.759 12.3478L377.011 8.85578H379.171V25.7398C379.171 30.9238 375.859 34.3078 370.747 34.3078C366.283 34.3078 363.151 31.7878 362.467 27.5758H364.951C365.491 30.3838 367.651 32.0398 370.783 32.0398C374.347 32.0398 376.723 29.6278 376.723 25.9918V21.8518C375.535 24.2998 373.123 25.7398 370.135 25.7398C365.167 25.7398 362.143 21.8158 362.143 17.0638ZM364.627 17.0278C364.627 20.5918 366.823 23.5078 370.495 23.5078C374.275 23.5078 376.507 20.7718 376.507 17.0278C376.507 13.3198 374.347 10.5838 370.531 10.5838C366.787 10.5838 364.627 13.4998 364.627 17.0278ZM386.839 26.2438H384.355V0.035784H386.839V11.8798C387.955 9.79178 390.079 8.38778 392.995 8.38778C397.567 8.38778 399.619 11.2318 399.619 15.6238V26.2798H397.135V16.1638C397.135 12.0958 395.227 10.6558 392.527 10.6558C388.783 10.6558 386.839 13.4278 386.839 16.7758V26.2438ZM408.566 26.2798H406.118V10.9438H402.626V8.85578H406.118V3.34778H408.566V8.85578H412.058V10.9438H408.566V26.2798ZM413.816 21.3838H416.192C416.192 23.3998 417.704 24.6598 420.152 24.6598C422.852 24.6598 424.436 23.5078 424.436 21.6358C424.436 20.1958 423.716 19.3678 421.664 18.8638L418.676 18.1078C415.652 17.3518 414.176 15.7678 414.176 13.3918C414.176 10.3318 416.732 8.38778 420.476 8.38778C424.148 8.38778 426.524 10.4038 426.632 13.6438H424.22C424.148 11.6278 422.744 10.4398 420.404 10.4398C417.956 10.4398 416.588 11.4838 416.588 13.3558C416.588 14.6878 417.524 15.6238 419.432 16.0918L422.42 16.8478C425.444 17.6038 426.812 19.0078 426.812 21.5278C426.812 24.6598 424.148 26.7118 420.188 26.7118C416.264 26.7118 413.816 24.6238 413.816 21.3838ZM449.994 8.63978V10.8718H448.626C445.422 10.8718 443.37 13.0318 443.37 16.3438V26.2798H440.886V8.85578H443.226L443.406 11.5558C444.09 9.68378 445.926 8.45978 448.374 8.45978C448.914 8.45978 449.382 8.49578 449.994 8.63978ZM459.936 26.7118C454.824 26.7118 451.404 23.0398 451.404 17.5678C451.404 12.1318 454.788 8.38778 459.756 8.38778C464.472 8.38778 467.676 11.7358 467.676 16.6678V17.8918H453.816C453.996 22.1398 456.228 24.5878 459.972 24.5878C462.816 24.5878 464.652 23.3638 465.3 21.0598H467.676C466.74 24.7318 464.04 26.7118 459.936 26.7118ZM459.756 10.5118C456.48 10.5118 454.32 12.6718 453.888 16.0918H465.192C465.192 12.7438 463.032 10.5118 459.756 10.5118ZM470.172 21.3838H472.548C472.548 23.3998 474.06 24.6598 476.508 24.6598C479.208 24.6598 480.792 23.5078 480.792 21.6358C480.792 20.1958 480.072 19.3678 478.02 18.8638L475.032 18.1078C472.008 17.3518 470.532 15.7678 470.532 13.3918C470.532 10.3318 473.088 8.38778 476.832 8.38778C480.504 8.38778 482.88 10.4038 482.988 13.6438H480.576C480.504 11.6278 479.1 10.4398 476.76 10.4398C474.312 10.4398 472.944 11.4838 472.944 13.3558C472.944 14.6878 473.88 15.6238 475.788 16.0918L478.776 16.8478C481.8 17.6038 483.168 19.0078 483.168 21.5278C483.168 24.6598 480.504 26.7118 476.544 26.7118C472.62 26.7118 470.172 24.6238 470.172 21.3838ZM494.565 26.7118C489.453 26.7118 486.033 23.0398 486.033 17.5678C486.033 12.1318 489.417 8.38778 494.385 8.38778C499.101 8.38778 502.305 11.7358 502.305 16.6678V17.8918H488.445C488.625 22.1398 490.857 24.5878 494.601 24.5878C497.445 24.5878 499.281 23.3638 499.929 21.0598H502.305C501.369 24.7318 498.669 26.7118 494.565 26.7118ZM494.385 10.5118C491.109 10.5118 488.949 12.6718 488.517 16.0918H499.821C499.821 12.7438 497.661 10.5118 494.385 10.5118ZM515.385 8.63978V10.8718H514.017C510.813 10.8718 508.761 13.0318 508.761 16.3438V26.2798H506.277V8.85578H508.617L508.797 11.5558C509.481 9.68378 511.317 8.45978 513.765 8.45978C514.305 8.45978 514.773 8.49578 515.385 8.63978ZM524.074 26.2798L516.946 8.85578H519.61L524.11 20.0878C524.578 21.3478 525.046 22.5358 525.37 23.6878C525.694 22.4998 526.162 21.3478 526.666 20.0878L531.238 8.85578H533.794L526.558 26.2798H524.074ZM543.256 26.7118C538.144 26.7118 534.724 23.0398 534.724 17.5678C534.724 12.1318 538.108 8.38778 543.076 8.38778C547.792 8.38778 550.996 11.7358 550.996 16.6678V17.8918H537.136C537.316 22.1398 539.548 24.5878 543.292 24.5878C546.136 24.5878 547.972 23.3638 548.62 21.0598H550.996C550.06 24.7318 547.36 26.7118 543.256 26.7118ZM543.076 10.5118C539.8 10.5118 537.64 12.6718 537.208 16.0918H548.512C548.512 12.7438 546.352 10.5118 543.076 10.5118ZM561.808 26.7118C556.732 26.7118 553.744 22.8238 553.744 17.6038C553.744 12.3478 556.732 8.38778 561.916 8.38778C564.796 8.38778 567.1 9.64778 568.324 12.1678V0.035784H570.808V26.2798H568.648L568.396 22.7158C567.172 25.4158 564.724 26.7118 561.808 26.7118ZM562.24 24.4438C566.056 24.4438 568.288 21.5638 568.288 17.5318C568.288 13.5358 566.056 10.6198 562.24 10.6198C558.46 10.6198 556.264 13.5358 556.264 17.5318C556.264 21.5638 558.46 24.4438 562.24 24.4438ZM578.115 26.6758C576.891 26.6758 575.847 25.6678 575.847 24.4798C575.847 23.2558 576.891 22.2118 578.115 22.2118C579.339 22.2118 580.383 23.2558 580.383 24.4798C580.383 25.6678 579.339 26.6758 578.115 26.6758Z" fill="black"/>
</svg>
