<svg width="600" height="376" viewBox="0 0 600 376" fill="none" xmlns="http://www.w3.org/2000/svg">
<rect width="600" height="376" rx="12" fill="#262626"/>
<path d="M29.4453 36.9453H26.5469V35.1172H29.4453C29.8932 35.1172 30.2578 35.0443 30.5391 34.8984C30.8203 34.7474 31.026 34.5391 31.1562 34.2734C31.2865 34.0078 31.3516 33.7083 31.3516 33.375C31.3516 33.0365 31.2865 32.7214 31.1562 32.4297C31.026 32.138 30.8203 31.9036 30.5391 31.7266C30.2578 31.5495 29.8932 31.4609 29.4453 31.4609H27.3594V41H25.0156V29.625H29.4453C30.3359 29.625 31.099 29.7865 31.7344 30.1094C32.375 30.4271 32.8646 30.8672 33.2031 31.4297C33.5417 31.9922 33.7109 32.6354 33.7109 33.3594C33.7109 34.0938 33.5417 34.7292 33.2031 35.2656C32.8646 35.8021 32.375 36.2161 31.7344 36.5078C31.099 36.7995 30.3359 36.9453 29.4453 36.9453ZM37.5625 32.5469V41H35.3047V32.5469H37.5625ZM35.1641 30.3438C35.1641 30.0156 35.2786 29.7448 35.5078 29.5312C35.737 29.3177 36.0443 29.2109 36.4297 29.2109C36.8099 29.2109 37.1146 29.3177 37.3438 29.5312C37.5781 29.7448 37.6953 30.0156 37.6953 30.3438C37.6953 30.6719 37.5781 30.9427 37.3438 31.1562C37.1146 31.3698 36.8099 31.4766 36.4297 31.4766C36.0443 31.4766 35.737 31.3698 35.5078 31.1562C35.2786 30.9427 35.1641 30.6719 35.1641 30.3438ZM43.3125 41.1562C42.6562 41.1562 42.0677 41.0521 41.5469 40.8438C41.026 40.6302 40.5833 40.3359 40.2188 39.9609C39.8594 39.5859 39.5833 39.151 39.3906 38.6562C39.1979 38.1562 39.1016 37.625 39.1016 37.0625V36.75C39.1016 36.1094 39.1927 35.5234 39.375 34.9922C39.5573 34.4609 39.8177 34 40.1562 33.6094C40.5 33.2188 40.9167 32.9193 41.4062 32.7109C41.8958 32.4974 42.4479 32.3906 43.0625 32.3906C43.6615 32.3906 44.1927 32.4896 44.6562 32.6875C45.1198 32.8854 45.5078 33.1667 45.8203 33.5312C46.138 33.8958 46.3776 34.3333 46.5391 34.8438C46.7005 35.349 46.7812 35.9115 46.7812 36.5312V37.4688H40.0625V35.9688H44.5703V35.7969C44.5703 35.4844 44.513 35.2057 44.3984 34.9609C44.2891 34.7109 44.1224 34.513 43.8984 34.3672C43.6745 34.2214 43.388 34.1484 43.0391 34.1484C42.7422 34.1484 42.487 34.2135 42.2734 34.3438C42.0599 34.474 41.8854 34.6562 41.75 34.8906C41.6198 35.125 41.5208 35.401 41.4531 35.7188C41.3906 36.0312 41.3594 36.375 41.3594 36.75V37.0625C41.3594 37.401 41.4062 37.7135 41.5 38C41.599 38.2865 41.737 38.5339 41.9141 38.7422C42.0964 38.9505 42.3151 39.112 42.5703 39.2266C42.8307 39.3411 43.125 39.3984 43.4531 39.3984C43.8594 39.3984 44.237 39.3203 44.5859 39.1641C44.9401 39.0026 45.2448 38.7604 45.5 38.4375L46.5938 39.625C46.4167 39.8802 46.1745 40.125 45.8672 40.3594C45.5651 40.5938 45.2005 40.7865 44.7734 40.9375C44.3464 41.0833 43.8594 41.1562 43.3125 41.1562ZM58.7812 37.2266H61.1172C61.0703 37.9922 60.8594 38.6719 60.4844 39.2656C60.1146 39.8594 59.5964 40.3229 58.9297 40.6562C58.2682 40.9896 57.4714 41.1562 56.5391 41.1562C55.8099 41.1562 55.1562 41.0312 54.5781 40.7812C54 40.526 53.5052 40.1615 53.0938 39.6875C52.6875 39.2135 52.3776 38.6406 52.1641 37.9688C51.9505 37.2969 51.8438 36.5443 51.8438 35.7109V34.9219C51.8438 34.0885 51.9531 33.3359 52.1719 32.6641C52.3958 31.987 52.7135 31.4115 53.125 30.9375C53.5417 30.4635 54.0391 30.099 54.6172 29.8438C55.1953 29.5885 55.8411 29.4609 56.5547 29.4609C57.5026 29.4609 58.3021 29.6328 58.9531 29.9766C59.6094 30.3203 60.1172 30.7943 60.4766 31.3984C60.8411 32.0026 61.0599 32.6901 61.1328 33.4609H58.7891C58.763 33.0026 58.6719 32.6146 58.5156 32.2969C58.3594 31.974 58.1224 31.7318 57.8047 31.5703C57.4922 31.4036 57.0755 31.3203 56.5547 31.3203C56.1641 31.3203 55.8229 31.3932 55.5312 31.5391C55.2396 31.6849 54.9948 31.9062 54.7969 32.2031C54.599 32.5 54.4505 32.875 54.3516 33.3281C54.2578 33.776 54.2109 34.3021 54.2109 34.9062V35.7109C54.2109 36.2995 54.2552 36.8177 54.3438 37.2656C54.4323 37.7083 54.5677 38.0833 54.75 38.3906C54.9375 38.6927 55.1771 38.9219 55.4688 39.0781C55.7656 39.2292 56.1224 39.3047 56.5391 39.3047C57.0286 39.3047 57.4323 39.2266 57.75 39.0703C58.0677 38.9141 58.3099 38.6823 58.4766 38.375C58.6484 38.0677 58.75 37.6849 58.7812 37.2266ZM64.7109 29V41H62.4609V29H64.7109ZM64.3906 36.4766H63.7734C63.7786 35.888 63.8568 35.3464 64.0078 34.8516C64.1589 34.3516 64.375 33.9193 64.6562 33.5547C64.9375 33.1849 65.2734 32.8984 65.6641 32.6953C66.0599 32.4922 66.4974 32.3906 66.9766 32.3906C67.3932 32.3906 67.7708 32.4505 68.1094 32.5703C68.4531 32.6849 68.7474 32.8724 68.9922 33.1328C69.2422 33.388 69.4349 33.724 69.5703 34.1406C69.7057 34.5573 69.7734 35.0625 69.7734 35.6562V41H67.5078V35.6406C67.5078 35.2656 67.4531 34.9714 67.3438 34.7578C67.2396 34.5391 67.0859 34.3854 66.8828 34.2969C66.6849 34.2031 66.4401 34.1562 66.1484 34.1562C65.8255 34.1562 65.5495 34.2161 65.3203 34.3359C65.0964 34.4557 64.9167 34.6224 64.7812 34.8359C64.6458 35.0443 64.5469 35.2891 64.4844 35.5703C64.4219 35.8516 64.3906 36.1536 64.3906 36.4766ZM76.0469 39.0938V35.3281C76.0469 35.0573 76.0026 34.8255 75.9141 34.6328C75.8255 34.4349 75.6875 34.2812 75.5 34.1719C75.3177 34.0625 75.0807 34.0078 74.7891 34.0078C74.5391 34.0078 74.3229 34.0521 74.1406 34.1406C73.9583 34.224 73.8177 34.3464 73.7188 34.5078C73.6198 34.6641 73.5703 34.849 73.5703 35.0625H71.3203C71.3203 34.7031 71.4036 34.362 71.5703 34.0391C71.737 33.7161 71.9792 33.4323 72.2969 33.1875C72.6146 32.9375 72.9922 32.7422 73.4297 32.6016C73.8724 32.4609 74.3672 32.3906 74.9141 32.3906C75.5703 32.3906 76.1536 32.5 76.6641 32.7188C77.1745 32.9375 77.5755 33.2656 77.8672 33.7031C78.1641 34.1406 78.3125 34.6875 78.3125 35.3438V38.9609C78.3125 39.4245 78.3411 39.8047 78.3984 40.1016C78.4557 40.3932 78.5391 40.6484 78.6484 40.8672V41H76.375C76.2656 40.7708 76.1823 40.4844 76.125 40.1406C76.0729 39.7917 76.0469 39.4427 76.0469 39.0938ZM76.3438 35.8516L76.3594 37.125H75.1016C74.8047 37.125 74.5469 37.1589 74.3281 37.2266C74.1094 37.2943 73.9297 37.3906 73.7891 37.5156C73.6484 37.6354 73.5443 37.776 73.4766 37.9375C73.4141 38.099 73.3828 38.276 73.3828 38.4688C73.3828 38.6615 73.4271 38.8359 73.5156 38.9922C73.6042 39.1432 73.7318 39.263 73.8984 39.3516C74.0651 39.4349 74.2604 39.4766 74.4844 39.4766C74.8229 39.4766 75.1172 39.4089 75.3672 39.2734C75.6172 39.138 75.8099 38.9714 75.9453 38.7734C76.0859 38.5755 76.1589 38.388 76.1641 38.2109L76.7578 39.1641C76.6745 39.3776 76.5599 39.599 76.4141 39.8281C76.2734 40.0573 76.0938 40.2734 75.875 40.4766C75.6562 40.6745 75.3932 40.8385 75.0859 40.9688C74.7786 41.0938 74.4141 41.1562 73.9922 41.1562C73.4557 41.1562 72.9688 41.0495 72.5312 40.8359C72.099 40.6172 71.7552 40.3177 71.5 39.9375C71.25 39.5521 71.125 39.1146 71.125 38.625C71.125 38.1823 71.2083 37.7891 71.375 37.4453C71.5417 37.1016 71.7865 36.8125 72.1094 36.5781C72.4375 36.3385 72.8464 36.1589 73.3359 36.0391C73.8255 35.9141 74.3932 35.8516 75.0391 35.8516H76.3438ZM82.2969 34.3906V41H80.0469V32.5469H82.1641L82.2969 34.3906ZM84.8438 32.4922L84.8047 34.5781C84.6953 34.5625 84.5625 34.5495 84.4062 34.5391C84.2552 34.5234 84.1172 34.5156 83.9922 34.5156C83.6745 34.5156 83.3984 34.5573 83.1641 34.6406C82.9349 34.7188 82.7422 34.8359 82.5859 34.9922C82.4349 35.1484 82.3203 35.3385 82.2422 35.5625C82.1693 35.7865 82.1276 36.0417 82.1172 36.3281L81.6641 36.1875C81.6641 35.6406 81.7188 35.138 81.8281 34.6797C81.9375 34.2161 82.0964 33.8125 82.3047 33.4688C82.5182 33.125 82.7786 32.8594 83.0859 32.6719C83.3932 32.4844 83.7448 32.3906 84.1406 32.3906C84.2656 32.3906 84.3932 32.401 84.5234 32.4219C84.6536 32.4375 84.7604 32.4609 84.8438 32.4922ZM90.4375 32.5469V34.1406H85.5156V32.5469H90.4375ZM86.7344 30.4609H88.9844V38.4531C88.9844 38.6979 89.0156 38.8854 89.0781 39.0156C89.1458 39.1458 89.2448 39.237 89.375 39.2891C89.5052 39.3359 89.6693 39.3594 89.8672 39.3594C90.0078 39.3594 90.1328 39.3542 90.2422 39.3438C90.3568 39.3281 90.4531 39.3125 90.5312 39.2969L90.5391 40.9531C90.3464 41.0156 90.138 41.0651 89.9141 41.1016C89.6901 41.138 89.4427 41.1562 89.1719 41.1562C88.6771 41.1562 88.2448 41.0755 87.875 40.9141C87.5104 40.7474 87.2292 40.4818 87.0312 40.1172C86.8333 39.7526 86.7344 39.2734 86.7344 38.6797V30.4609ZM103.477 39.1719V41H97.4219V39.1719H103.477ZM98.1875 29.625V41H95.8438V29.625H98.1875ZM102.688 34.2578V36.0391H97.4219V34.2578H102.688ZM103.469 29.625V31.4609H97.4219V29.625H103.469ZM106.516 32.5469L107.914 35.1172L109.352 32.5469H111.75L109.359 36.6797L111.859 41H109.453L107.93 38.2812L106.406 41H104L106.5 36.6797L104.109 32.5469H106.516ZM117.406 39.0938V35.3281C117.406 35.0573 117.362 34.8255 117.273 34.6328C117.185 34.4349 117.047 34.2812 116.859 34.1719C116.677 34.0625 116.44 34.0078 116.148 34.0078C115.898 34.0078 115.682 34.0521 115.5 34.1406C115.318 34.224 115.177 34.3464 115.078 34.5078C114.979 34.6641 114.93 34.849 114.93 35.0625H112.68C112.68 34.7031 112.763 34.362 112.93 34.0391C113.096 33.7161 113.339 33.4323 113.656 33.1875C113.974 32.9375 114.352 32.7422 114.789 32.6016C115.232 32.4609 115.727 32.3906 116.273 32.3906C116.93 32.3906 117.513 32.5 118.023 32.7188C118.534 32.9375 118.935 33.2656 119.227 33.7031C119.523 34.1406 119.672 34.6875 119.672 35.3438V38.9609C119.672 39.4245 119.701 39.8047 119.758 40.1016C119.815 40.3932 119.898 40.6484 120.008 40.8672V41H117.734C117.625 40.7708 117.542 40.4844 117.484 40.1406C117.432 39.7917 117.406 39.4427 117.406 39.0938ZM117.703 35.8516L117.719 37.125H116.461C116.164 37.125 115.906 37.1589 115.688 37.2266C115.469 37.2943 115.289 37.3906 115.148 37.5156C115.008 37.6354 114.904 37.776 114.836 37.9375C114.773 38.099 114.742 38.276 114.742 38.4688C114.742 38.6615 114.786 38.8359 114.875 38.9922C114.964 39.1432 115.091 39.263 115.258 39.3516C115.424 39.4349 115.62 39.4766 115.844 39.4766C116.182 39.4766 116.477 39.4089 116.727 39.2734C116.977 39.138 117.169 38.9714 117.305 38.7734C117.445 38.5755 117.518 38.388 117.523 38.2109L118.117 39.1641C118.034 39.3776 117.919 39.599 117.773 39.8281C117.633 40.0573 117.453 40.2734 117.234 40.4766C117.016 40.6745 116.753 40.8385 116.445 40.9688C116.138 41.0938 115.773 41.1562 115.352 41.1562C114.815 41.1562 114.328 41.0495 113.891 40.8359C113.458 40.6172 113.115 40.3177 112.859 39.9375C112.609 39.5521 112.484 39.1146 112.484 38.625C112.484 38.1823 112.568 37.7891 112.734 37.4453C112.901 37.1016 113.146 36.8125 113.469 36.5781C113.797 36.3385 114.206 36.1589 114.695 36.0391C115.185 35.9141 115.753 35.8516 116.398 35.8516H117.703ZM123.656 34.2969V41H121.398V32.5469H123.516L123.656 34.2969ZM123.344 36.4766H122.719C122.719 35.888 122.789 35.3464 122.93 34.8516C123.076 34.3516 123.286 33.9193 123.562 33.5547C123.844 33.1849 124.19 32.8984 124.602 32.6953C125.013 32.4922 125.49 32.3906 126.031 32.3906C126.406 32.3906 126.75 32.4479 127.062 32.5625C127.375 32.6719 127.643 32.8464 127.867 33.0859C128.096 33.3203 128.273 33.6276 128.398 34.0078C128.523 34.3828 128.586 34.8333 128.586 35.3594V41H126.336V35.6094C126.336 35.224 126.284 34.9271 126.18 34.7188C126.076 34.5104 125.927 34.3646 125.734 34.2812C125.547 34.1979 125.32 34.1562 125.055 34.1562C124.763 34.1562 124.508 34.2161 124.289 34.3359C124.076 34.4557 123.898 34.6224 123.758 34.8359C123.617 35.0443 123.513 35.2891 123.445 35.5703C123.378 35.8516 123.344 36.1536 123.344 36.4766ZM128.375 36.2188L127.57 36.3203C127.57 35.7682 127.638 35.2552 127.773 34.7812C127.914 34.3073 128.12 33.8906 128.391 33.5312C128.667 33.1719 129.008 32.8932 129.414 32.6953C129.82 32.4922 130.289 32.3906 130.82 32.3906C131.227 32.3906 131.596 32.4505 131.93 32.5703C132.263 32.6849 132.547 32.8698 132.781 33.125C133.021 33.375 133.203 33.7031 133.328 34.1094C133.458 34.5156 133.523 35.013 133.523 35.6016V41H131.266V35.6016C131.266 35.2109 131.214 34.9141 131.109 34.7109C131.01 34.5026 130.865 34.3594 130.672 34.2812C130.484 34.1979 130.26 34.1562 130 34.1562C129.729 34.1562 129.492 34.2109 129.289 34.3203C129.086 34.4245 128.917 34.5703 128.781 34.7578C128.646 34.9453 128.544 35.1641 128.477 35.4141C128.409 35.6589 128.375 35.9271 128.375 36.2188ZM137.516 34.1719V44.25H135.266V32.5469H137.352L137.516 34.1719ZM142.867 36.6797V36.8438C142.867 37.4583 142.794 38.0286 142.648 38.5547C142.508 39.0807 142.299 39.5391 142.023 39.9297C141.747 40.3151 141.404 40.6172 140.992 40.8359C140.586 41.0495 140.117 41.1562 139.586 41.1562C139.07 41.1562 138.622 41.0521 138.242 40.8438C137.862 40.6354 137.542 40.3438 137.281 39.9688C137.026 39.5885 136.82 39.1484 136.664 38.6484C136.508 38.1484 136.388 37.612 136.305 37.0391V36.6094C136.388 35.9948 136.508 35.4323 136.664 34.9219C136.82 34.4062 137.026 33.9609 137.281 33.5859C137.542 33.2057 137.859 32.9115 138.234 32.7031C138.615 32.4948 139.06 32.3906 139.57 32.3906C140.107 32.3906 140.578 32.4922 140.984 32.6953C141.396 32.8984 141.74 33.1901 142.016 33.5703C142.297 33.9505 142.508 34.4036 142.648 34.9297C142.794 35.4557 142.867 36.0391 142.867 36.6797ZM140.609 36.8438V36.6797C140.609 36.3203 140.578 35.9896 140.516 35.6875C140.458 35.3802 140.365 35.112 140.234 34.8828C140.109 34.6536 139.943 34.4766 139.734 34.3516C139.531 34.2214 139.284 34.1562 138.992 34.1562C138.685 34.1562 138.422 34.2057 138.203 34.3047C137.99 34.4036 137.815 34.5469 137.68 34.7344C137.544 34.9219 137.443 35.1458 137.375 35.4062C137.307 35.6667 137.266 35.9609 137.25 36.2891V37.375C137.276 37.7604 137.349 38.1068 137.469 38.4141C137.589 38.7161 137.773 38.9557 138.023 39.1328C138.273 39.3099 138.602 39.3984 139.008 39.3984C139.305 39.3984 139.555 39.3333 139.758 39.2031C139.961 39.0677 140.125 38.8828 140.25 38.6484C140.38 38.4141 140.471 38.1432 140.523 37.8359C140.581 37.5286 140.609 37.1979 140.609 36.8438ZM146.641 29V41H144.383V29H146.641ZM152.391 41.1562C151.734 41.1562 151.146 41.0521 150.625 40.8438C150.104 40.6302 149.661 40.3359 149.297 39.9609C148.938 39.5859 148.661 39.151 148.469 38.6562C148.276 38.1562 148.18 37.625 148.18 37.0625V36.75C148.18 36.1094 148.271 35.5234 148.453 34.9922C148.635 34.4609 148.896 34 149.234 33.6094C149.578 33.2188 149.995 32.9193 150.484 32.7109C150.974 32.4974 151.526 32.3906 152.141 32.3906C152.74 32.3906 153.271 32.4896 153.734 32.6875C154.198 32.8854 154.586 33.1667 154.898 33.5312C155.216 33.8958 155.456 34.3333 155.617 34.8438C155.779 35.349 155.859 35.9115 155.859 36.5312V37.4688H149.141V35.9688H153.648V35.7969C153.648 35.4844 153.591 35.2057 153.477 34.9609C153.367 34.7109 153.201 34.513 152.977 34.3672C152.753 34.2214 152.466 34.1484 152.117 34.1484C151.82 34.1484 151.565 34.2135 151.352 34.3438C151.138 34.474 150.964 34.6562 150.828 34.8906C150.698 35.125 150.599 35.401 150.531 35.7188C150.469 36.0312 150.438 36.375 150.438 36.75V37.0625C150.438 37.401 150.484 37.7135 150.578 38C150.677 38.2865 150.815 38.5339 150.992 38.7422C151.174 38.9505 151.393 39.112 151.648 39.2266C151.909 39.3411 152.203 39.3984 152.531 39.3984C152.938 39.3984 153.315 39.3203 153.664 39.1641C154.018 39.0026 154.323 38.7604 154.578 38.4375L155.672 39.625C155.495 39.8802 155.253 40.125 154.945 40.3594C154.643 40.5938 154.279 40.7865 153.852 40.9375C153.424 41.0833 152.938 41.1562 152.391 41.1562Z" fill="#F5F5F5"/>
<path d="M483.368 39.4893L486.301 31.0469H487.729L484.045 41H483.026L483.368 39.4893ZM480.627 31.0469L483.532 39.4893L483.895 41H482.876L479.198 31.0469H480.627ZM490.252 33.6035V41H488.98V33.6035H490.252ZM488.885 31.6416C488.885 31.4365 488.946 31.2633 489.069 31.1221C489.197 30.9808 489.384 30.9102 489.63 30.9102C489.871 30.9102 490.056 30.9808 490.184 31.1221C490.316 31.2633 490.382 31.4365 490.382 31.6416C490.382 31.8376 490.316 32.0062 490.184 32.1475C490.056 32.2842 489.871 32.3525 489.63 32.3525C489.384 32.3525 489.197 32.2842 489.069 32.1475C488.946 32.0062 488.885 31.8376 488.885 31.6416ZM495.352 41.1367C494.837 41.1367 494.369 41.0501 493.95 40.877C493.535 40.6992 493.178 40.4508 492.877 40.1318C492.581 39.8128 492.353 39.4346 492.193 38.9971C492.034 38.5596 491.954 38.0811 491.954 37.5615V37.2744C491.954 36.6729 492.043 36.1374 492.221 35.668C492.398 35.194 492.64 34.793 492.945 34.4648C493.251 34.1367 493.597 33.8883 493.984 33.7197C494.372 33.5511 494.773 33.4668 495.188 33.4668C495.716 33.4668 496.172 33.5579 496.555 33.7402C496.942 33.9225 497.259 34.1777 497.505 34.5059C497.751 34.8294 497.933 35.2122 498.052 35.6543C498.17 36.0918 498.229 36.5703 498.229 37.0898V37.6572H492.706V36.625H496.965V36.5293C496.947 36.2012 496.878 35.8822 496.76 35.5723C496.646 35.2624 496.464 35.0072 496.213 34.8066C495.962 34.6061 495.62 34.5059 495.188 34.5059C494.9 34.5059 494.636 34.5674 494.395 34.6904C494.153 34.8089 493.946 34.9867 493.772 35.2236C493.599 35.4606 493.465 35.75 493.369 36.0918C493.273 36.4336 493.226 36.8278 493.226 37.2744V37.5615C493.226 37.9124 493.273 38.2428 493.369 38.5527C493.469 38.8581 493.613 39.127 493.8 39.3594C493.991 39.5918 494.221 39.7741 494.49 39.9062C494.764 40.0384 495.074 40.1045 495.42 40.1045C495.867 40.1045 496.245 40.0133 496.555 39.8311C496.865 39.6488 497.136 39.4049 497.368 39.0996L498.134 39.708C497.974 39.9495 497.771 40.1797 497.525 40.3984C497.279 40.6172 496.976 40.7949 496.616 40.9316C496.261 41.0684 495.839 41.1367 495.352 41.1367ZM501.579 39.6875L503.479 33.6035H504.313L504.149 34.8135L502.215 41H501.401L501.579 39.6875ZM500.301 33.6035L501.921 39.7559L502.037 41H501.183L499.036 33.6035H500.301ZM506.132 39.708L507.677 33.6035H508.935L506.788 41H505.94L506.132 39.708ZM504.498 33.6035L506.357 39.585L506.569 41H505.763L503.773 34.7998L503.609 33.6035H504.498ZM516.591 41H514.513L514.526 39.9268H516.591C517.302 39.9268 517.894 39.7786 518.368 39.4824C518.842 39.1816 519.198 38.7624 519.435 38.2246C519.676 37.6823 519.797 37.0488 519.797 36.3242V35.7158C519.797 35.1462 519.729 34.6403 519.592 34.1982C519.455 33.7516 519.255 33.3757 518.99 33.0703C518.726 32.7604 518.402 32.5257 518.02 32.3662C517.641 32.2067 517.206 32.127 516.714 32.127H514.472V31.0469H516.714C517.366 31.0469 517.96 31.1562 518.498 31.375C519.036 31.5892 519.498 31.9014 519.886 32.3115C520.278 32.7171 520.578 33.2093 520.788 33.7881C520.998 34.3623 521.103 35.0094 521.103 35.7295V36.3242C521.103 37.0443 520.998 37.6937 520.788 38.2725C520.578 38.8467 520.275 39.3366 519.879 39.7422C519.487 40.1478 519.013 40.46 518.457 40.6787C517.906 40.8929 517.284 41 516.591 41ZM515.217 31.0469V41H513.897V31.0469H515.217ZM525.963 41.1367C525.448 41.1367 524.981 41.0501 524.562 40.877C524.147 40.6992 523.789 40.4508 523.488 40.1318C523.192 39.8128 522.964 39.4346 522.805 38.9971C522.645 38.5596 522.565 38.0811 522.565 37.5615V37.2744C522.565 36.6729 522.654 36.1374 522.832 35.668C523.01 35.194 523.251 34.793 523.557 34.4648C523.862 34.1367 524.208 33.8883 524.596 33.7197C524.983 33.5511 525.384 33.4668 525.799 33.4668C526.327 33.4668 526.783 33.5579 527.166 33.7402C527.553 33.9225 527.87 34.1777 528.116 34.5059C528.362 34.8294 528.545 35.2122 528.663 35.6543C528.782 36.0918 528.841 36.5703 528.841 37.0898V37.6572H523.317V36.625H527.576V36.5293C527.558 36.2012 527.49 35.8822 527.371 35.5723C527.257 35.2624 527.075 35.0072 526.824 34.8066C526.574 34.6061 526.232 34.5059 525.799 34.5059C525.512 34.5059 525.247 34.5674 525.006 34.6904C524.764 34.8089 524.557 34.9867 524.384 35.2236C524.211 35.4606 524.076 35.75 523.98 36.0918C523.885 36.4336 523.837 36.8278 523.837 37.2744V37.5615C523.837 37.9124 523.885 38.2428 523.98 38.5527C524.081 38.8581 524.224 39.127 524.411 39.3594C524.603 39.5918 524.833 39.7741 525.102 39.9062C525.375 40.0384 525.685 40.1045 526.031 40.1045C526.478 40.1045 526.856 40.0133 527.166 39.8311C527.476 39.6488 527.747 39.4049 527.979 39.0996L528.745 39.708C528.586 39.9495 528.383 40.1797 528.137 40.3984C527.891 40.6172 527.588 40.7949 527.228 40.9316C526.872 41.0684 526.451 41.1367 525.963 41.1367ZM533.414 33.6035V34.5742H529.415V33.6035H533.414ZM530.769 31.8057H532.033V39.168C532.033 39.4186 532.072 39.6077 532.149 39.7354C532.227 39.863 532.327 39.9473 532.45 39.9883C532.573 40.0293 532.705 40.0498 532.847 40.0498C532.951 40.0498 533.061 40.0407 533.175 40.0225C533.293 39.9997 533.382 39.9814 533.441 39.9678L533.448 41C533.348 41.0319 533.216 41.0615 533.052 41.0889C532.892 41.1208 532.699 41.1367 532.471 41.1367C532.161 41.1367 531.876 41.0752 531.616 40.9521C531.356 40.8291 531.149 40.624 530.994 40.3369C530.844 40.0452 530.769 39.6533 530.769 39.1611V31.8057ZM539.259 39.7354V35.9277C539.259 35.6361 539.2 35.3831 539.081 35.1689C538.967 34.9502 538.794 34.7816 538.562 34.6631C538.329 34.5446 538.042 34.4854 537.7 34.4854C537.381 34.4854 537.101 34.54 536.859 34.6494C536.622 34.7588 536.436 34.9023 536.299 35.0801C536.167 35.2578 536.101 35.4492 536.101 35.6543H534.836C534.836 35.39 534.904 35.1279 535.041 34.8682C535.178 34.6084 535.374 34.3737 535.629 34.1641C535.889 33.9499 536.199 33.7812 536.559 33.6582C536.923 33.5306 537.329 33.4668 537.775 33.4668C538.313 33.4668 538.787 33.5579 539.197 33.7402C539.612 33.9225 539.936 34.1982 540.168 34.5674C540.405 34.932 540.523 35.39 540.523 35.9414V39.3867C540.523 39.6328 540.544 39.8949 540.585 40.1729C540.631 40.4508 540.697 40.6901 540.783 40.8906V41H539.464C539.4 40.8542 539.35 40.6605 539.313 40.4189C539.277 40.1729 539.259 39.945 539.259 39.7354ZM539.478 36.5156L539.491 37.4043H538.213C537.853 37.4043 537.532 37.4339 537.249 37.4932C536.966 37.5479 536.729 37.6322 536.538 37.7461C536.347 37.86 536.201 38.0036 536.101 38.1768C536 38.3454 535.95 38.5436 535.95 38.7715C535.95 39.0039 536.003 39.2158 536.107 39.4072C536.212 39.5986 536.369 39.7513 536.579 39.8652C536.793 39.9746 537.055 40.0293 537.365 40.0293C537.753 40.0293 538.094 39.9473 538.391 39.7832C538.687 39.6191 538.922 39.4186 539.095 39.1816C539.272 38.9447 539.368 38.7145 539.382 38.4912L539.922 39.0996C539.89 39.291 539.803 39.5029 539.662 39.7354C539.521 39.9678 539.332 40.1911 539.095 40.4053C538.862 40.6149 538.584 40.7904 538.261 40.9316C537.942 41.0684 537.582 41.1367 537.181 41.1367C536.679 41.1367 536.24 41.0387 535.861 40.8428C535.488 40.6468 535.196 40.3848 534.986 40.0566C534.781 39.724 534.679 39.3525 534.679 38.9424C534.679 38.5459 534.756 38.1973 534.911 37.8965C535.066 37.5911 535.289 37.3382 535.581 37.1377C535.873 36.9326 536.224 36.7777 536.634 36.6729C537.044 36.568 537.502 36.5156 538.008 36.5156H539.478ZM543.887 33.6035V41H542.615V33.6035H543.887ZM542.52 31.6416C542.52 31.4365 542.581 31.2633 542.704 31.1221C542.832 30.9808 543.019 30.9102 543.265 30.9102C543.506 30.9102 543.691 30.9808 543.818 31.1221C543.951 31.2633 544.017 31.4365 544.017 31.6416C544.017 31.8376 543.951 32.0062 543.818 32.1475C543.691 32.2842 543.506 32.3525 543.265 32.3525C543.019 32.3525 542.832 32.2842 542.704 32.1475C542.581 32.0062 542.52 31.8376 542.52 31.6416ZM547.291 30.5V41H546.02V30.5H547.291ZM553.628 39.0381C553.628 38.8558 553.587 38.6872 553.505 38.5322C553.427 38.3727 553.266 38.2292 553.02 38.1016C552.778 37.9694 552.413 37.8555 551.926 37.7598C551.516 37.6732 551.144 37.5706 550.812 37.4521C550.483 37.3337 550.203 37.1901 549.971 37.0215C549.743 36.8529 549.567 36.6546 549.444 36.4268C549.321 36.1989 549.26 35.9323 549.26 35.627C549.26 35.3353 549.324 35.0596 549.451 34.7998C549.583 34.54 549.768 34.3099 550.005 34.1094C550.246 33.9089 550.536 33.7516 550.873 33.6377C551.21 33.5238 551.586 33.4668 552.001 33.4668C552.593 33.4668 553.099 33.5716 553.519 33.7812C553.938 33.9909 554.259 34.2712 554.482 34.6221C554.706 34.9684 554.817 35.3535 554.817 35.7773H553.553C553.553 35.5723 553.491 35.374 553.368 35.1826C553.25 34.9867 553.074 34.8249 552.842 34.6973C552.614 34.5697 552.334 34.5059 552.001 34.5059C551.65 34.5059 551.365 34.5605 551.146 34.6699C550.932 34.7747 550.775 34.9092 550.675 35.0732C550.579 35.2373 550.531 35.4105 550.531 35.5928C550.531 35.7295 550.554 35.8525 550.6 35.9619C550.65 36.0667 550.736 36.1647 550.859 36.2559C550.982 36.3424 551.156 36.4245 551.379 36.502C551.602 36.5794 551.887 36.6569 552.233 36.7344C552.84 36.8711 553.339 37.0352 553.73 37.2266C554.122 37.418 554.414 37.6527 554.605 37.9307C554.797 38.2087 554.893 38.5459 554.893 38.9424C554.893 39.266 554.824 39.5622 554.688 39.8311C554.555 40.0999 554.362 40.3324 554.106 40.5283C553.856 40.7197 553.555 40.8701 553.204 40.9795C552.858 41.0843 552.468 41.1367 552.035 41.1367C551.383 41.1367 550.832 41.0205 550.381 40.7881C549.93 40.5557 549.588 40.2549 549.355 39.8857C549.123 39.5166 549.007 39.127 549.007 38.7168H550.278C550.297 39.0632 550.397 39.3389 550.579 39.5439C550.761 39.7445 550.985 39.888 551.249 39.9746C551.513 40.0566 551.775 40.0977 552.035 40.0977C552.382 40.0977 552.671 40.0521 552.903 39.9609C553.14 39.8698 553.32 39.7445 553.443 39.585C553.566 39.4255 553.628 39.2432 553.628 39.0381Z" fill="#3B82F6"/>
<path d="M563 42C562.733 42 562.5 41.9 562.3 41.7C562.1 41.5 562 41.2667 562 41V31C562 30.7333 562.1 30.5 562.3 30.3C562.5 30.1 562.733 30 563 30H567.15C567.292 30 567.41 30.0482 567.506 30.1446C567.602 30.241 567.65 30.3604 567.65 30.5029C567.65 30.6454 567.602 30.7639 567.506 30.8583C567.41 30.9528 567.292 31 567.15 31H563V41H573V36.85C573 36.7083 573.048 36.5896 573.145 36.4938C573.241 36.3979 573.36 36.35 573.503 36.35C573.645 36.35 573.764 36.3979 573.858 36.4938C573.953 36.5896 574 36.7083 574 36.85V41C574 41.2667 573.9 41.5 573.7 41.7C573.5 41.9 573.267 42 573 42H563ZM566.019 37.9768C565.929 37.8812 565.881 37.7667 565.875 37.6333C565.869 37.5 565.917 37.3833 566.017 37.2833L572.3 31H569.15C569.008 31 568.89 30.9518 568.794 30.8554C568.698 30.759 568.65 30.6396 568.65 30.4971C568.65 30.3546 568.698 30.2361 568.794 30.1417C568.89 30.0472 569.008 30 569.15 30H573.5C573.642 30 573.76 30.0479 573.856 30.1438C573.952 30.2396 574 30.3583 574 30.5V34.85C574 34.9917 573.952 35.1104 573.855 35.2063C573.759 35.3021 573.64 35.35 573.497 35.35C573.355 35.35 573.236 35.3021 573.142 35.2063C573.047 35.1104 573 34.9917 573 34.85V31.7167L566.717 38C566.623 38.0889 566.508 38.1333 566.371 38.1333C566.235 38.1333 566.117 38.0812 566.019 37.9768Z" fill="#3B82F6"/>
<path d="M125.348 193.082V199.844C125.082 200.164 124.672 200.512 124.117 200.887C123.562 201.254 122.848 201.57 121.973 201.836C121.098 202.102 120.039 202.234 118.797 202.234C117.695 202.234 116.691 202.055 115.785 201.695C114.879 201.328 114.098 200.793 113.441 200.09C112.793 199.387 112.293 198.527 111.941 197.512C111.59 196.488 111.414 195.32 111.414 194.008V192.941C111.414 191.629 111.582 190.461 111.918 189.438C112.262 188.414 112.75 187.551 113.383 186.848C114.016 186.145 114.77 185.609 115.645 185.242C116.52 184.875 117.492 184.691 118.562 184.691C120.047 184.691 121.266 184.934 122.219 185.418C123.172 185.895 123.898 186.559 124.398 187.41C124.906 188.254 125.219 189.223 125.336 190.316H121.926C121.84 189.738 121.676 189.234 121.434 188.805C121.191 188.375 120.844 188.039 120.391 187.797C119.945 187.555 119.367 187.434 118.656 187.434C118.07 187.434 117.547 187.555 117.086 187.797C116.633 188.031 116.25 188.379 115.938 188.84C115.625 189.301 115.387 189.871 115.223 190.551C115.059 191.23 114.977 192.02 114.977 192.918V194.008C114.977 194.898 115.062 195.688 115.234 196.375C115.406 197.055 115.66 197.629 115.996 198.098C116.34 198.559 116.762 198.906 117.262 199.141C117.762 199.375 118.344 199.492 119.008 199.492C119.562 199.492 120.023 199.445 120.391 199.352C120.766 199.258 121.066 199.145 121.293 199.012C121.527 198.871 121.707 198.738 121.832 198.613V195.59H118.621V193.082H125.348ZM131.348 192.086V202H127.973V189.32H131.148L131.348 192.086ZM135.168 189.238L135.109 192.367C134.945 192.344 134.746 192.324 134.512 192.309C134.285 192.285 134.078 192.273 133.891 192.273C133.414 192.273 133 192.336 132.648 192.461C132.305 192.578 132.016 192.754 131.781 192.988C131.555 193.223 131.383 193.508 131.266 193.844C131.156 194.18 131.094 194.562 131.078 194.992L130.398 194.781C130.398 193.961 130.48 193.207 130.645 192.52C130.809 191.824 131.047 191.219 131.359 190.703C131.68 190.188 132.07 189.789 132.531 189.508C132.992 189.227 133.52 189.086 134.113 189.086C134.301 189.086 134.492 189.102 134.688 189.133C134.883 189.156 135.043 189.191 135.168 189.238ZM135.871 195.789V195.543C135.871 194.613 136.004 193.758 136.27 192.977C136.535 192.188 136.922 191.504 137.43 190.926C137.938 190.348 138.562 189.898 139.305 189.578C140.047 189.25 140.898 189.086 141.859 189.086C142.82 189.086 143.676 189.25 144.426 189.578C145.176 189.898 145.805 190.348 146.312 190.926C146.828 191.504 147.219 192.188 147.484 192.977C147.75 193.758 147.883 194.613 147.883 195.543V195.789C147.883 196.711 147.75 197.566 147.484 198.355C147.219 199.137 146.828 199.82 146.312 200.406C145.805 200.984 145.18 201.434 144.438 201.754C143.695 202.074 142.844 202.234 141.883 202.234C140.922 202.234 140.066 202.074 139.316 201.754C138.574 201.434 137.945 200.984 137.43 200.406C136.922 199.82 136.535 199.137 136.27 198.355C136.004 197.566 135.871 196.711 135.871 195.789ZM139.246 195.543V195.789C139.246 196.32 139.293 196.816 139.387 197.277C139.48 197.738 139.629 198.145 139.832 198.496C140.043 198.84 140.316 199.109 140.652 199.305C140.988 199.5 141.398 199.598 141.883 199.598C142.352 199.598 142.754 199.5 143.09 199.305C143.426 199.109 143.695 198.84 143.898 198.496C144.102 198.145 144.25 197.738 144.344 197.277C144.445 196.816 144.496 196.32 144.496 195.789V195.543C144.496 195.027 144.445 194.543 144.344 194.09C144.25 193.629 144.098 193.223 143.887 192.871C143.684 192.512 143.414 192.23 143.078 192.027C142.742 191.824 142.336 191.723 141.859 191.723C141.383 191.723 140.977 191.824 140.641 192.027C140.312 192.23 140.043 192.512 139.832 192.871C139.629 193.223 139.48 193.629 139.387 194.09C139.293 194.543 139.246 195.027 139.246 195.543ZM157.457 198.965V189.32H160.832V202H157.656L157.457 198.965ZM157.832 196.363L158.828 196.34C158.828 197.184 158.73 197.969 158.535 198.695C158.34 199.414 158.047 200.039 157.656 200.57C157.266 201.094 156.773 201.504 156.18 201.801C155.586 202.09 154.887 202.234 154.082 202.234C153.465 202.234 152.895 202.148 152.371 201.977C151.855 201.797 151.41 201.52 151.035 201.145C150.668 200.762 150.379 200.273 150.168 199.68C149.965 199.078 149.863 198.355 149.863 197.512V189.32H153.238V197.535C153.238 197.91 153.281 198.227 153.367 198.484C153.461 198.742 153.59 198.953 153.754 199.117C153.918 199.281 154.109 199.398 154.328 199.469C154.555 199.539 154.805 199.574 155.078 199.574C155.773 199.574 156.32 199.434 156.719 199.152C157.125 198.871 157.41 198.488 157.574 198.004C157.746 197.512 157.832 196.965 157.832 196.363ZM166.785 191.758V206.875H163.41V189.32H166.539L166.785 191.758ZM174.812 195.52V195.766C174.812 196.688 174.703 197.543 174.484 198.332C174.273 199.121 173.961 199.809 173.547 200.395C173.133 200.973 172.617 201.426 172 201.754C171.391 202.074 170.688 202.234 169.891 202.234C169.117 202.234 168.445 202.078 167.875 201.766C167.305 201.453 166.824 201.016 166.434 200.453C166.051 199.883 165.742 199.223 165.508 198.473C165.273 197.723 165.094 196.918 164.969 196.059V195.414C165.094 194.492 165.273 193.648 165.508 192.883C165.742 192.109 166.051 191.441 166.434 190.879C166.824 190.309 167.301 189.867 167.863 189.555C168.434 189.242 169.102 189.086 169.867 189.086C170.672 189.086 171.379 189.238 171.988 189.543C172.605 189.848 173.121 190.285 173.535 190.855C173.957 191.426 174.273 192.105 174.484 192.895C174.703 193.684 174.812 194.559 174.812 195.52ZM171.426 195.766V195.52C171.426 194.98 171.379 194.484 171.285 194.031C171.199 193.57 171.059 193.168 170.863 192.824C170.676 192.48 170.426 192.215 170.113 192.027C169.809 191.832 169.438 191.734 169 191.734C168.539 191.734 168.145 191.809 167.816 191.957C167.496 192.105 167.234 192.32 167.031 192.602C166.828 192.883 166.676 193.219 166.574 193.609C166.473 194 166.41 194.441 166.387 194.934V196.562C166.426 197.141 166.535 197.66 166.715 198.121C166.895 198.574 167.172 198.934 167.547 199.199C167.922 199.465 168.414 199.598 169.023 199.598C169.469 199.598 169.844 199.5 170.148 199.305C170.453 199.102 170.699 198.824 170.887 198.473C171.082 198.121 171.219 197.715 171.297 197.254C171.383 196.793 171.426 196.297 171.426 195.766ZM190.035 187.855L185.395 202H181.656L187.996 184.938H190.375L190.035 187.855ZM193.891 202L189.238 187.855L188.863 184.938H191.266L197.641 202H193.891ZM193.68 195.648V198.402H184.668V195.648H193.68Z" fill="#FAFAFA"/>
<path d="M154 88C182.113 88 209.074 99.1678 228.953 119.047C248.832 138.926 260 165.887 260 194C260 222.113 248.832 249.074 228.953 268.953C209.074 288.832 182.113 300 154 300L154 270.32C174.241 270.32 193.654 262.279 207.966 247.966C222.279 233.654 230.32 214.241 230.32 194C230.32 173.759 222.279 154.346 207.966 140.034C193.654 125.721 174.241 117.68 154 117.68V88Z" fill="#14B8A6" stroke="#262626" stroke-width="2"/>
<path d="M79.0467 268.953C72.4964 262.403 66.833 255.022 62.2013 247L87.9049 232.16C91.2398 237.936 95.3174 243.25 100.034 247.966L79.0467 268.953Z" fill="#6366F1" stroke="#262626" stroke-width="2"/>
<path d="M62.2013 247C52.8979 230.886 48 212.607 48 194C48 175.393 52.8979 157.114 62.2013 141L87.9049 155.84C81.2065 167.442 77.68 180.603 77.68 194C77.68 207.397 81.2065 220.558 87.9049 232.16L62.2013 247Z" fill="#F59E0B" stroke="#262626" stroke-width="2"/>
<path d="M62.2013 141C71.5047 124.886 84.886 111.505 101 102.201C117.114 92.8979 135.393 88 154 88V117.68C140.603 117.68 127.442 121.206 115.84 127.905C104.238 134.603 94.6034 144.238 87.9049 155.84L62.2013 141Z" fill="#FACC15" stroke="#262626" stroke-width="2"/>
<path d="M154 300C125.887 300 98.9255 288.832 79.0467 268.953L100.034 247.966C114.346 262.279 133.759 270.32 154 270.32L154 300Z" fill="#3B82F6" stroke="#262626" stroke-width="2"/>
<path d="M417.746 193.082V199.844C417.48 200.164 417.07 200.512 416.516 200.887C415.961 201.254 415.246 201.57 414.371 201.836C413.496 202.102 412.438 202.234 411.195 202.234C410.094 202.234 409.09 202.055 408.184 201.695C407.277 201.328 406.496 200.793 405.84 200.09C405.191 199.387 404.691 198.527 404.34 197.512C403.988 196.488 403.812 195.32 403.812 194.008V192.941C403.812 191.629 403.98 190.461 404.316 189.438C404.66 188.414 405.148 187.551 405.781 186.848C406.414 186.145 407.168 185.609 408.043 185.242C408.918 184.875 409.891 184.691 410.961 184.691C412.445 184.691 413.664 184.934 414.617 185.418C415.57 185.895 416.297 186.559 416.797 187.41C417.305 188.254 417.617 189.223 417.734 190.316H414.324C414.238 189.738 414.074 189.234 413.832 188.805C413.59 188.375 413.242 188.039 412.789 187.797C412.344 187.555 411.766 187.434 411.055 187.434C410.469 187.434 409.945 187.555 409.484 187.797C409.031 188.031 408.648 188.379 408.336 188.84C408.023 189.301 407.785 189.871 407.621 190.551C407.457 191.23 407.375 192.02 407.375 192.918V194.008C407.375 194.898 407.461 195.688 407.633 196.375C407.805 197.055 408.059 197.629 408.395 198.098C408.738 198.559 409.16 198.906 409.66 199.141C410.16 199.375 410.742 199.492 411.406 199.492C411.961 199.492 412.422 199.445 412.789 199.352C413.164 199.258 413.465 199.145 413.691 199.012C413.926 198.871 414.105 198.738 414.23 198.613V195.59H411.02V193.082H417.746ZM423.746 192.086V202H420.371V189.32H423.547L423.746 192.086ZM427.566 189.238L427.508 192.367C427.344 192.344 427.145 192.324 426.91 192.309C426.684 192.285 426.477 192.273 426.289 192.273C425.812 192.273 425.398 192.336 425.047 192.461C424.703 192.578 424.414 192.754 424.18 192.988C423.953 193.223 423.781 193.508 423.664 193.844C423.555 194.18 423.492 194.562 423.477 194.992L422.797 194.781C422.797 193.961 422.879 193.207 423.043 192.52C423.207 191.824 423.445 191.219 423.758 190.703C424.078 190.188 424.469 189.789 424.93 189.508C425.391 189.227 425.918 189.086 426.512 189.086C426.699 189.086 426.891 189.102 427.086 189.133C427.281 189.156 427.441 189.191 427.566 189.238ZM428.27 195.789V195.543C428.27 194.613 428.402 193.758 428.668 192.977C428.934 192.188 429.32 191.504 429.828 190.926C430.336 190.348 430.961 189.898 431.703 189.578C432.445 189.25 433.297 189.086 434.258 189.086C435.219 189.086 436.074 189.25 436.824 189.578C437.574 189.898 438.203 190.348 438.711 190.926C439.227 191.504 439.617 192.188 439.883 192.977C440.148 193.758 440.281 194.613 440.281 195.543V195.789C440.281 196.711 440.148 197.566 439.883 198.355C439.617 199.137 439.227 199.82 438.711 200.406C438.203 200.984 437.578 201.434 436.836 201.754C436.094 202.074 435.242 202.234 434.281 202.234C433.32 202.234 432.465 202.074 431.715 201.754C430.973 201.434 430.344 200.984 429.828 200.406C429.32 199.82 428.934 199.137 428.668 198.355C428.402 197.566 428.27 196.711 428.27 195.789ZM431.645 195.543V195.789C431.645 196.32 431.691 196.816 431.785 197.277C431.879 197.738 432.027 198.145 432.23 198.496C432.441 198.84 432.715 199.109 433.051 199.305C433.387 199.5 433.797 199.598 434.281 199.598C434.75 199.598 435.152 199.5 435.488 199.305C435.824 199.109 436.094 198.84 436.297 198.496C436.5 198.145 436.648 197.738 436.742 197.277C436.844 196.816 436.895 196.32 436.895 195.789V195.543C436.895 195.027 436.844 194.543 436.742 194.09C436.648 193.629 436.496 193.223 436.285 192.871C436.082 192.512 435.812 192.23 435.477 192.027C435.141 191.824 434.734 191.723 434.258 191.723C433.781 191.723 433.375 191.824 433.039 192.027C432.711 192.23 432.441 192.512 432.23 192.871C432.027 193.223 431.879 193.629 431.785 194.09C431.691 194.543 431.645 195.027 431.645 195.543ZM449.855 198.965V189.32H453.23V202H450.055L449.855 198.965ZM450.23 196.363L451.227 196.34C451.227 197.184 451.129 197.969 450.934 198.695C450.738 199.414 450.445 200.039 450.055 200.57C449.664 201.094 449.172 201.504 448.578 201.801C447.984 202.09 447.285 202.234 446.48 202.234C445.863 202.234 445.293 202.148 444.77 201.977C444.254 201.797 443.809 201.52 443.434 201.145C443.066 200.762 442.777 200.273 442.566 199.68C442.363 199.078 442.262 198.355 442.262 197.512V189.32H445.637V197.535C445.637 197.91 445.68 198.227 445.766 198.484C445.859 198.742 445.988 198.953 446.152 199.117C446.316 199.281 446.508 199.398 446.727 199.469C446.953 199.539 447.203 199.574 447.477 199.574C448.172 199.574 448.719 199.434 449.117 199.152C449.523 198.871 449.809 198.488 449.973 198.004C450.145 197.512 450.23 196.965 450.23 196.363ZM459.184 191.758V206.875H455.809V189.32H458.938L459.184 191.758ZM467.211 195.52V195.766C467.211 196.688 467.102 197.543 466.883 198.332C466.672 199.121 466.359 199.809 465.945 200.395C465.531 200.973 465.016 201.426 464.398 201.754C463.789 202.074 463.086 202.234 462.289 202.234C461.516 202.234 460.844 202.078 460.273 201.766C459.703 201.453 459.223 201.016 458.832 200.453C458.449 199.883 458.141 199.223 457.906 198.473C457.672 197.723 457.492 196.918 457.367 196.059V195.414C457.492 194.492 457.672 193.648 457.906 192.883C458.141 192.109 458.449 191.441 458.832 190.879C459.223 190.309 459.699 189.867 460.262 189.555C460.832 189.242 461.5 189.086 462.266 189.086C463.07 189.086 463.777 189.238 464.387 189.543C465.004 189.848 465.52 190.285 465.934 190.855C466.355 191.426 466.672 192.105 466.883 192.895C467.102 193.684 467.211 194.559 467.211 195.52ZM463.824 195.766V195.52C463.824 194.98 463.777 194.484 463.684 194.031C463.598 193.57 463.457 193.168 463.262 192.824C463.074 192.48 462.824 192.215 462.512 192.027C462.207 191.832 461.836 191.734 461.398 191.734C460.938 191.734 460.543 191.809 460.215 191.957C459.895 192.105 459.633 192.32 459.43 192.602C459.227 192.883 459.074 193.219 458.973 193.609C458.871 194 458.809 194.441 458.785 194.934V196.562C458.824 197.141 458.934 197.66 459.113 198.121C459.293 198.574 459.57 198.934 459.945 199.199C460.32 199.465 460.812 199.598 461.422 199.598C461.867 199.598 462.242 199.5 462.547 199.305C462.852 199.102 463.098 198.824 463.285 198.473C463.48 198.121 463.617 197.715 463.695 197.254C463.781 196.793 463.824 196.297 463.824 195.766ZM482.176 194.512H477.793L477.77 192.098H481.449C482.098 192.098 482.629 192.016 483.043 191.852C483.457 191.68 483.766 191.434 483.969 191.113C484.18 190.785 484.285 190.387 484.285 189.918C484.285 189.387 484.184 188.957 483.98 188.629C483.785 188.301 483.477 188.062 483.055 187.914C482.641 187.766 482.105 187.691 481.449 187.691H479.012V202H475.496V184.938H481.449C482.441 184.938 483.328 185.031 484.109 185.219C484.898 185.406 485.566 185.691 486.113 186.074C486.66 186.457 487.078 186.941 487.367 187.527C487.656 188.105 487.801 188.793 487.801 189.59C487.801 190.293 487.641 190.941 487.32 191.535C487.008 192.129 486.512 192.613 485.832 192.988C485.16 193.363 484.281 193.57 483.195 193.609L482.176 194.512ZM482.023 202H476.832L478.203 199.258H482.023C482.641 199.258 483.145 199.16 483.535 198.965C483.926 198.762 484.215 198.488 484.402 198.145C484.59 197.801 484.684 197.406 484.684 196.961C484.684 196.461 484.598 196.027 484.426 195.66C484.262 195.293 483.996 195.012 483.629 194.816C483.262 194.613 482.777 194.512 482.176 194.512H478.789L478.812 192.098H483.031L483.84 193.047C484.879 193.031 485.715 193.215 486.348 193.598C486.988 193.973 487.453 194.461 487.742 195.062C488.039 195.664 488.188 196.309 488.188 196.996C488.188 198.09 487.949 199.012 487.473 199.762C486.996 200.504 486.297 201.062 485.375 201.438C484.461 201.812 483.344 202 482.023 202Z" fill="#FAFAFA"/>
<path d="M446 88C474.113 88 501.074 99.1678 520.953 119.047C540.832 138.926 552 165.887 552 194C552 222.113 540.832 249.074 520.953 268.953C501.074 288.832 474.113 300 446 300L446 270.32C466.241 270.32 485.654 262.279 499.966 247.966C514.279 233.654 522.32 214.241 522.32 194C522.32 173.759 514.279 154.346 499.966 140.034C485.654 125.721 466.241 117.68 446 117.68V88Z" fill="#14B8A6" stroke="#262626" stroke-width="2"/>
<path d="M371.047 268.953C364.496 262.403 358.833 255.022 354.201 247L379.905 232.16C383.24 237.936 387.317 243.25 392.034 247.966L371.047 268.953Z" fill="#6366F1" stroke="#262626" stroke-width="2"/>
<path d="M354.201 247C344.898 230.886 340 212.607 340 194C340 175.393 344.898 157.114 354.201 141L379.905 155.84C373.206 167.442 369.68 180.603 369.68 194C369.68 207.397 373.206 220.558 379.905 232.16L354.201 247Z" fill="#F59E0B" stroke="#262626" stroke-width="2"/>
<path d="M354.201 141C363.505 124.886 376.886 111.505 393 102.201C409.114 92.8979 427.393 88 446 88V117.68C432.603 117.68 419.442 121.206 407.84 127.905C396.238 134.603 386.603 144.238 379.905 155.84L354.201 141Z" fill="#FACC15" stroke="#262626" stroke-width="2"/>
<path d="M446 300C417.887 300 390.926 288.832 371.047 268.953L392.034 247.966C406.346 262.279 425.759 270.32 446 270.32L446 300Z" fill="#3B82F6" stroke="#262626" stroke-width="2"/>
<circle cx="93" cy="342" r="6" fill="#14B8A6"/>
<path d="M114.191 345.927V347H109.215V345.927H114.191ZM109.475 337.047V347H108.155V337.047H109.475ZM119.872 345.735V341.928C119.872 341.636 119.813 341.383 119.694 341.169C119.58 340.95 119.407 340.782 119.175 340.663C118.942 340.545 118.655 340.485 118.313 340.485C117.994 340.485 117.714 340.54 117.473 340.649C117.236 340.759 117.049 340.902 116.912 341.08C116.78 341.258 116.714 341.449 116.714 341.654H115.449C115.449 341.39 115.518 341.128 115.654 340.868C115.791 340.608 115.987 340.374 116.242 340.164C116.502 339.95 116.812 339.781 117.172 339.658C117.536 339.531 117.942 339.467 118.389 339.467C118.926 339.467 119.4 339.558 119.811 339.74C120.225 339.923 120.549 340.198 120.781 340.567C121.018 340.932 121.137 341.39 121.137 341.941V345.387C121.137 345.633 121.157 345.895 121.198 346.173C121.244 346.451 121.31 346.69 121.396 346.891V347H120.077C120.013 346.854 119.963 346.66 119.927 346.419C119.89 346.173 119.872 345.945 119.872 345.735ZM120.091 342.516L120.104 343.404H118.826C118.466 343.404 118.145 343.434 117.862 343.493C117.58 343.548 117.343 343.632 117.151 343.746C116.96 343.86 116.814 344.004 116.714 344.177C116.614 344.345 116.563 344.544 116.563 344.771C116.563 345.004 116.616 345.216 116.721 345.407C116.826 345.599 116.983 345.751 117.192 345.865C117.407 345.975 117.669 346.029 117.979 346.029C118.366 346.029 118.708 345.947 119.004 345.783C119.3 345.619 119.535 345.419 119.708 345.182C119.886 344.945 119.981 344.715 119.995 344.491L120.535 345.1C120.503 345.291 120.417 345.503 120.275 345.735C120.134 345.968 119.945 346.191 119.708 346.405C119.476 346.615 119.198 346.79 118.874 346.932C118.555 347.068 118.195 347.137 117.794 347.137C117.293 347.137 116.853 347.039 116.475 346.843C116.101 346.647 115.809 346.385 115.6 346.057C115.395 345.724 115.292 345.353 115.292 344.942C115.292 344.546 115.369 344.197 115.524 343.896C115.679 343.591 115.903 343.338 116.194 343.138C116.486 342.933 116.837 342.778 117.247 342.673C117.657 342.568 118.115 342.516 118.621 342.516H120.091ZM123.119 336.5H124.391V345.564L124.281 347H123.119V336.5ZM129.388 343.24V343.384C129.388 343.922 129.324 344.421 129.196 344.881C129.069 345.337 128.882 345.733 128.636 346.07C128.39 346.408 128.089 346.67 127.733 346.856C127.378 347.043 126.97 347.137 126.51 347.137C126.04 347.137 125.628 347.057 125.272 346.897C124.922 346.733 124.625 346.499 124.384 346.193C124.142 345.888 123.949 345.519 123.803 345.086C123.661 344.653 123.563 344.165 123.509 343.623V342.994C123.563 342.447 123.661 341.957 123.803 341.524C123.949 341.091 124.142 340.722 124.384 340.417C124.625 340.107 124.922 339.872 125.272 339.713C125.623 339.549 126.031 339.467 126.496 339.467C126.961 339.467 127.373 339.558 127.733 339.74C128.093 339.918 128.394 340.173 128.636 340.506C128.882 340.839 129.069 341.237 129.196 341.702C129.324 342.162 129.388 342.675 129.388 343.24ZM128.116 343.384V343.24C128.116 342.871 128.082 342.525 128.014 342.201C127.945 341.873 127.836 341.586 127.686 341.34C127.535 341.089 127.337 340.893 127.091 340.752C126.845 340.606 126.542 340.533 126.182 340.533C125.863 340.533 125.585 340.588 125.348 340.697C125.115 340.807 124.917 340.955 124.753 341.142C124.589 341.324 124.454 341.534 124.35 341.771C124.249 342.003 124.174 342.244 124.124 342.495V344.143C124.197 344.462 124.315 344.769 124.479 345.065C124.648 345.357 124.871 345.596 125.149 345.783C125.432 345.97 125.781 346.063 126.195 346.063C126.537 346.063 126.829 345.995 127.07 345.858C127.316 345.717 127.515 345.523 127.665 345.277C127.82 345.031 127.934 344.746 128.007 344.423C128.08 344.099 128.116 343.753 128.116 343.384ZM134.057 347.137C133.542 347.137 133.075 347.05 132.655 346.877C132.241 346.699 131.883 346.451 131.582 346.132C131.286 345.813 131.058 345.435 130.898 344.997C130.739 344.56 130.659 344.081 130.659 343.562V343.274C130.659 342.673 130.748 342.137 130.926 341.668C131.104 341.194 131.345 340.793 131.65 340.465C131.956 340.137 132.302 339.888 132.689 339.72C133.077 339.551 133.478 339.467 133.893 339.467C134.421 339.467 134.877 339.558 135.26 339.74C135.647 339.923 135.964 340.178 136.21 340.506C136.456 340.829 136.638 341.212 136.757 341.654C136.875 342.092 136.935 342.57 136.935 343.09V343.657H131.411V342.625H135.67V342.529C135.652 342.201 135.583 341.882 135.465 341.572C135.351 341.262 135.169 341.007 134.918 340.807C134.667 340.606 134.326 340.506 133.893 340.506C133.605 340.506 133.341 340.567 133.1 340.69C132.858 340.809 132.651 340.987 132.478 341.224C132.304 341.461 132.17 341.75 132.074 342.092C131.979 342.434 131.931 342.828 131.931 343.274V343.562C131.931 343.912 131.979 344.243 132.074 344.553C132.174 344.858 132.318 345.127 132.505 345.359C132.696 345.592 132.926 345.774 133.195 345.906C133.469 346.038 133.779 346.104 134.125 346.104C134.572 346.104 134.95 346.013 135.26 345.831C135.57 345.649 135.841 345.405 136.073 345.1L136.839 345.708C136.679 345.95 136.477 346.18 136.23 346.398C135.984 346.617 135.681 346.795 135.321 346.932C134.966 347.068 134.544 347.137 134.057 347.137ZM139.785 336.5V347H138.514V336.5H139.785ZM149.308 336.992V347H148.043V338.571L145.493 339.501V338.359L149.109 336.992H149.308Z" fill="#D4D4D4"/>
<circle cx="183" cy="342" r="6" fill="#3B82F6"/>
<path d="M204.191 345.927V347H199.215V345.927H204.191ZM199.475 337.047V347H198.155V337.047H199.475ZM209.872 345.735V341.928C209.872 341.636 209.813 341.383 209.694 341.169C209.58 340.95 209.407 340.782 209.175 340.663C208.942 340.545 208.655 340.485 208.313 340.485C207.994 340.485 207.714 340.54 207.473 340.649C207.236 340.759 207.049 340.902 206.912 341.08C206.78 341.258 206.714 341.449 206.714 341.654H205.449C205.449 341.39 205.518 341.128 205.654 340.868C205.791 340.608 205.987 340.374 206.242 340.164C206.502 339.95 206.812 339.781 207.172 339.658C207.536 339.531 207.942 339.467 208.389 339.467C208.926 339.467 209.4 339.558 209.811 339.74C210.225 339.923 210.549 340.198 210.781 340.567C211.018 340.932 211.137 341.39 211.137 341.941V345.387C211.137 345.633 211.157 345.895 211.198 346.173C211.244 346.451 211.31 346.69 211.396 346.891V347H210.077C210.013 346.854 209.963 346.66 209.927 346.419C209.89 346.173 209.872 345.945 209.872 345.735ZM210.091 342.516L210.104 343.404H208.826C208.466 343.404 208.145 343.434 207.862 343.493C207.58 343.548 207.343 343.632 207.151 343.746C206.96 343.86 206.814 344.004 206.714 344.177C206.614 344.345 206.563 344.544 206.563 344.771C206.563 345.004 206.616 345.216 206.721 345.407C206.826 345.599 206.983 345.751 207.192 345.865C207.407 345.975 207.669 346.029 207.979 346.029C208.366 346.029 208.708 345.947 209.004 345.783C209.3 345.619 209.535 345.419 209.708 345.182C209.886 344.945 209.981 344.715 209.995 344.491L210.535 345.1C210.503 345.291 210.417 345.503 210.275 345.735C210.134 345.968 209.945 346.191 209.708 346.405C209.476 346.615 209.198 346.79 208.874 346.932C208.555 347.068 208.195 347.137 207.794 347.137C207.293 347.137 206.853 347.039 206.475 346.843C206.101 346.647 205.809 346.385 205.6 346.057C205.395 345.724 205.292 345.353 205.292 344.942C205.292 344.546 205.369 344.197 205.524 343.896C205.679 343.591 205.903 343.338 206.194 343.138C206.486 342.933 206.837 342.778 207.247 342.673C207.657 342.568 208.115 342.516 208.621 342.516H210.091ZM213.119 336.5H214.391V345.564L214.281 347H213.119V336.5ZM219.388 343.24V343.384C219.388 343.922 219.324 344.421 219.196 344.881C219.069 345.337 218.882 345.733 218.636 346.07C218.39 346.408 218.089 346.67 217.733 346.856C217.378 347.043 216.97 347.137 216.51 347.137C216.04 347.137 215.628 347.057 215.272 346.897C214.922 346.733 214.625 346.499 214.384 346.193C214.142 345.888 213.949 345.519 213.803 345.086C213.661 344.653 213.563 344.165 213.509 343.623V342.994C213.563 342.447 213.661 341.957 213.803 341.524C213.949 341.091 214.142 340.722 214.384 340.417C214.625 340.107 214.922 339.872 215.272 339.713C215.623 339.549 216.031 339.467 216.496 339.467C216.961 339.467 217.373 339.558 217.733 339.74C218.093 339.918 218.394 340.173 218.636 340.506C218.882 340.839 219.069 341.237 219.196 341.702C219.324 342.162 219.388 342.675 219.388 343.24ZM218.116 343.384V343.24C218.116 342.871 218.082 342.525 218.014 342.201C217.945 341.873 217.836 341.586 217.686 341.34C217.535 341.089 217.337 340.893 217.091 340.752C216.845 340.606 216.542 340.533 216.182 340.533C215.863 340.533 215.585 340.588 215.348 340.697C215.115 340.807 214.917 340.955 214.753 341.142C214.589 341.324 214.454 341.534 214.35 341.771C214.249 342.003 214.174 342.244 214.124 342.495V344.143C214.197 344.462 214.315 344.769 214.479 345.065C214.648 345.357 214.871 345.596 215.149 345.783C215.432 345.97 215.781 346.063 216.195 346.063C216.537 346.063 216.829 345.995 217.07 345.858C217.316 345.717 217.515 345.523 217.665 345.277C217.82 345.031 217.934 344.746 218.007 344.423C218.08 344.099 218.116 343.753 218.116 343.384ZM224.057 347.137C223.542 347.137 223.075 347.05 222.655 346.877C222.241 346.699 221.883 346.451 221.582 346.132C221.286 345.813 221.058 345.435 220.898 344.997C220.739 344.56 220.659 344.081 220.659 343.562V343.274C220.659 342.673 220.748 342.137 220.926 341.668C221.104 341.194 221.345 340.793 221.65 340.465C221.956 340.137 222.302 339.888 222.689 339.72C223.077 339.551 223.478 339.467 223.893 339.467C224.421 339.467 224.877 339.558 225.26 339.74C225.647 339.923 225.964 340.178 226.21 340.506C226.456 340.829 226.638 341.212 226.757 341.654C226.875 342.092 226.935 342.57 226.935 343.09V343.657H221.411V342.625H225.67V342.529C225.652 342.201 225.583 341.882 225.465 341.572C225.351 341.262 225.169 341.007 224.918 340.807C224.667 340.606 224.326 340.506 223.893 340.506C223.605 340.506 223.341 340.567 223.1 340.69C222.858 340.809 222.651 340.987 222.478 341.224C222.304 341.461 222.17 341.75 222.074 342.092C221.979 342.434 221.931 342.828 221.931 343.274V343.562C221.931 343.912 221.979 344.243 222.074 344.553C222.174 344.858 222.318 345.127 222.505 345.359C222.696 345.592 222.926 345.774 223.195 345.906C223.469 346.038 223.779 346.104 224.125 346.104C224.572 346.104 224.95 346.013 225.26 345.831C225.57 345.649 225.841 345.405 226.073 345.1L226.839 345.708C226.679 345.95 226.477 346.18 226.23 346.398C225.984 346.617 225.681 346.795 225.321 346.932C224.966 347.068 224.544 347.137 224.057 347.137ZM229.785 336.5V347H228.514V336.5H229.785ZM241.673 345.961V347H235.158V346.091L238.419 342.461C238.82 342.014 239.13 341.636 239.349 341.326C239.572 341.012 239.727 340.731 239.813 340.485C239.905 340.235 239.95 339.979 239.95 339.72C239.95 339.392 239.882 339.095 239.745 338.831C239.613 338.562 239.417 338.348 239.157 338.188C238.897 338.029 238.583 337.949 238.214 337.949C237.772 337.949 237.403 338.036 237.106 338.209C236.815 338.378 236.596 338.615 236.45 338.92C236.304 339.225 236.231 339.576 236.231 339.973H234.967C234.967 339.412 235.09 338.899 235.336 338.435C235.582 337.97 235.947 337.601 236.43 337.327C236.913 337.049 237.507 336.91 238.214 336.91C238.843 336.91 239.381 337.022 239.827 337.245C240.274 337.464 240.616 337.774 240.853 338.175C241.094 338.571 241.215 339.036 241.215 339.569C241.215 339.861 241.165 340.157 241.064 340.458C240.969 340.754 240.834 341.05 240.661 341.347C240.493 341.643 240.294 341.935 240.066 342.222C239.843 342.509 239.604 342.791 239.349 343.069L236.683 345.961H241.673Z" fill="#D4D4D4"/>
<circle cx="273" cy="342" r="6" fill="#6366F1"/>
<path d="M294.191 345.927V347H289.215V345.927H294.191ZM289.475 337.047V347H288.155V337.047H289.475ZM299.872 345.735V341.928C299.872 341.636 299.813 341.383 299.694 341.169C299.58 340.95 299.407 340.782 299.175 340.663C298.942 340.545 298.655 340.485 298.313 340.485C297.994 340.485 297.714 340.54 297.473 340.649C297.236 340.759 297.049 340.902 296.912 341.08C296.78 341.258 296.714 341.449 296.714 341.654H295.449C295.449 341.39 295.518 341.128 295.654 340.868C295.791 340.608 295.987 340.374 296.242 340.164C296.502 339.95 296.812 339.781 297.172 339.658C297.536 339.531 297.942 339.467 298.389 339.467C298.926 339.467 299.4 339.558 299.811 339.74C300.225 339.923 300.549 340.198 300.781 340.567C301.018 340.932 301.137 341.39 301.137 341.941V345.387C301.137 345.633 301.157 345.895 301.198 346.173C301.244 346.451 301.31 346.69 301.396 346.891V347H300.077C300.013 346.854 299.963 346.66 299.927 346.419C299.89 346.173 299.872 345.945 299.872 345.735ZM300.091 342.516L300.104 343.404H298.826C298.466 343.404 298.145 343.434 297.862 343.493C297.58 343.548 297.343 343.632 297.151 343.746C296.96 343.86 296.814 344.004 296.714 344.177C296.614 344.345 296.563 344.544 296.563 344.771C296.563 345.004 296.616 345.216 296.721 345.407C296.826 345.599 296.983 345.751 297.192 345.865C297.407 345.975 297.669 346.029 297.979 346.029C298.366 346.029 298.708 345.947 299.004 345.783C299.3 345.619 299.535 345.419 299.708 345.182C299.886 344.945 299.981 344.715 299.995 344.491L300.535 345.1C300.503 345.291 300.417 345.503 300.275 345.735C300.134 345.968 299.945 346.191 299.708 346.405C299.476 346.615 299.198 346.79 298.874 346.932C298.555 347.068 298.195 347.137 297.794 347.137C297.293 347.137 296.853 347.039 296.475 346.843C296.101 346.647 295.809 346.385 295.6 346.057C295.395 345.724 295.292 345.353 295.292 344.942C295.292 344.546 295.369 344.197 295.524 343.896C295.679 343.591 295.903 343.338 296.194 343.138C296.486 342.933 296.837 342.778 297.247 342.673C297.657 342.568 298.115 342.516 298.621 342.516H300.091ZM303.119 336.5H304.391V345.564L304.281 347H303.119V336.5ZM309.388 343.24V343.384C309.388 343.922 309.324 344.421 309.196 344.881C309.069 345.337 308.882 345.733 308.636 346.07C308.39 346.408 308.089 346.67 307.733 346.856C307.378 347.043 306.97 347.137 306.51 347.137C306.04 347.137 305.628 347.057 305.272 346.897C304.922 346.733 304.625 346.499 304.384 346.193C304.142 345.888 303.949 345.519 303.803 345.086C303.661 344.653 303.563 344.165 303.509 343.623V342.994C303.563 342.447 303.661 341.957 303.803 341.524C303.949 341.091 304.142 340.722 304.384 340.417C304.625 340.107 304.922 339.872 305.272 339.713C305.623 339.549 306.031 339.467 306.496 339.467C306.961 339.467 307.373 339.558 307.733 339.74C308.093 339.918 308.394 340.173 308.636 340.506C308.882 340.839 309.069 341.237 309.196 341.702C309.324 342.162 309.388 342.675 309.388 343.24ZM308.116 343.384V343.24C308.116 342.871 308.082 342.525 308.014 342.201C307.945 341.873 307.836 341.586 307.686 341.34C307.535 341.089 307.337 340.893 307.091 340.752C306.845 340.606 306.542 340.533 306.182 340.533C305.863 340.533 305.585 340.588 305.348 340.697C305.115 340.807 304.917 340.955 304.753 341.142C304.589 341.324 304.454 341.534 304.35 341.771C304.249 342.003 304.174 342.244 304.124 342.495V344.143C304.197 344.462 304.315 344.769 304.479 345.065C304.648 345.357 304.871 345.596 305.149 345.783C305.432 345.97 305.781 346.063 306.195 346.063C306.537 346.063 306.829 345.995 307.07 345.858C307.316 345.717 307.515 345.523 307.665 345.277C307.82 345.031 307.934 344.746 308.007 344.423C308.08 344.099 308.116 343.753 308.116 343.384ZM314.057 347.137C313.542 347.137 313.075 347.05 312.655 346.877C312.241 346.699 311.883 346.451 311.582 346.132C311.286 345.813 311.058 345.435 310.898 344.997C310.739 344.56 310.659 344.081 310.659 343.562V343.274C310.659 342.673 310.748 342.137 310.926 341.668C311.104 341.194 311.345 340.793 311.65 340.465C311.956 340.137 312.302 339.888 312.689 339.72C313.077 339.551 313.478 339.467 313.893 339.467C314.421 339.467 314.877 339.558 315.26 339.74C315.647 339.923 315.964 340.178 316.21 340.506C316.456 340.829 316.638 341.212 316.757 341.654C316.875 342.092 316.935 342.57 316.935 343.09V343.657H311.411V342.625H315.67V342.529C315.652 342.201 315.583 341.882 315.465 341.572C315.351 341.262 315.169 341.007 314.918 340.807C314.667 340.606 314.326 340.506 313.893 340.506C313.605 340.506 313.341 340.567 313.1 340.69C312.858 340.809 312.651 340.987 312.478 341.224C312.304 341.461 312.17 341.75 312.074 342.092C311.979 342.434 311.931 342.828 311.931 343.274V343.562C311.931 343.912 311.979 344.243 312.074 344.553C312.174 344.858 312.318 345.127 312.505 345.359C312.696 345.592 312.926 345.774 313.195 345.906C313.469 346.038 313.779 346.104 314.125 346.104C314.572 346.104 314.95 346.013 315.26 345.831C315.57 345.649 315.841 345.405 316.073 345.1L316.839 345.708C316.679 345.95 316.477 346.18 316.23 346.398C315.984 346.617 315.681 346.795 315.321 346.932C314.966 347.068 314.544 347.137 314.057 347.137ZM319.785 336.5V347H318.514V336.5H319.785ZM326.997 341.401H327.899C328.341 341.401 328.706 341.328 328.993 341.183C329.285 341.032 329.501 340.829 329.643 340.574C329.788 340.314 329.861 340.023 329.861 339.699C329.861 339.316 329.798 338.995 329.67 338.735C329.542 338.476 329.351 338.28 329.096 338.147C328.84 338.015 328.517 337.949 328.125 337.949C327.77 337.949 327.455 338.02 327.182 338.161C326.913 338.298 326.701 338.494 326.546 338.749C326.396 339.004 326.32 339.305 326.32 339.651H325.056C325.056 339.146 325.183 338.685 325.438 338.271C325.694 337.856 326.051 337.525 326.512 337.279C326.977 337.033 327.514 336.91 328.125 336.91C328.727 336.91 329.253 337.017 329.704 337.231C330.155 337.441 330.506 337.756 330.757 338.175C331.007 338.59 331.133 339.107 331.133 339.727C331.133 339.977 331.074 340.246 330.955 340.533C330.841 340.816 330.661 341.08 330.415 341.326C330.174 341.572 329.859 341.775 329.472 341.935C329.084 342.09 328.619 342.167 328.077 342.167H326.997V341.401ZM326.997 342.44V341.682H328.077C328.711 341.682 329.235 341.757 329.649 341.907C330.064 342.058 330.39 342.258 330.627 342.509C330.868 342.759 331.037 343.035 331.133 343.336C331.233 343.632 331.283 343.928 331.283 344.225C331.283 344.689 331.203 345.102 331.044 345.462C330.889 345.822 330.668 346.127 330.381 346.378C330.098 346.629 329.766 346.818 329.383 346.945C329 347.073 328.583 347.137 328.132 347.137C327.699 347.137 327.291 347.075 326.908 346.952C326.53 346.829 326.195 346.651 325.903 346.419C325.612 346.182 325.384 345.893 325.22 345.551C325.056 345.204 324.974 344.81 324.974 344.368H326.238C326.238 344.715 326.313 345.018 326.464 345.277C326.619 345.537 326.838 345.74 327.12 345.886C327.407 346.027 327.744 346.098 328.132 346.098C328.519 346.098 328.852 346.032 329.13 345.899C329.412 345.763 329.629 345.558 329.779 345.284C329.934 345.011 330.012 344.667 330.012 344.252C330.012 343.837 329.925 343.498 329.752 343.233C329.579 342.965 329.333 342.766 329.014 342.639C328.699 342.507 328.328 342.44 327.899 342.44H326.997Z" fill="#D4D4D4"/>
<circle cx="363" cy="342" r="6" fill="#F59E0B"/>
<path d="M384.191 345.927V347H379.215V345.927H384.191ZM379.475 337.047V347H378.155V337.047H379.475ZM389.872 345.735V341.928C389.872 341.636 389.813 341.383 389.694 341.169C389.58 340.95 389.407 340.782 389.175 340.663C388.942 340.545 388.655 340.485 388.313 340.485C387.994 340.485 387.714 340.54 387.473 340.649C387.236 340.759 387.049 340.902 386.912 341.08C386.78 341.258 386.714 341.449 386.714 341.654H385.449C385.449 341.39 385.518 341.128 385.654 340.868C385.791 340.608 385.987 340.374 386.242 340.164C386.502 339.95 386.812 339.781 387.172 339.658C387.536 339.531 387.942 339.467 388.389 339.467C388.926 339.467 389.4 339.558 389.811 339.74C390.225 339.923 390.549 340.198 390.781 340.567C391.018 340.932 391.137 341.39 391.137 341.941V345.387C391.137 345.633 391.157 345.895 391.198 346.173C391.244 346.451 391.31 346.69 391.396 346.891V347H390.077C390.013 346.854 389.963 346.66 389.927 346.419C389.89 346.173 389.872 345.945 389.872 345.735ZM390.091 342.516L390.104 343.404H388.826C388.466 343.404 388.145 343.434 387.862 343.493C387.58 343.548 387.343 343.632 387.151 343.746C386.96 343.86 386.814 344.004 386.714 344.177C386.614 344.345 386.563 344.544 386.563 344.771C386.563 345.004 386.616 345.216 386.721 345.407C386.826 345.599 386.983 345.751 387.192 345.865C387.407 345.975 387.669 346.029 387.979 346.029C388.366 346.029 388.708 345.947 389.004 345.783C389.3 345.619 389.535 345.419 389.708 345.182C389.886 344.945 389.981 344.715 389.995 344.491L390.535 345.1C390.503 345.291 390.417 345.503 390.275 345.735C390.134 345.968 389.945 346.191 389.708 346.405C389.476 346.615 389.198 346.79 388.874 346.932C388.555 347.068 388.195 347.137 387.794 347.137C387.293 347.137 386.853 347.039 386.475 346.843C386.101 346.647 385.809 346.385 385.6 346.057C385.395 345.724 385.292 345.353 385.292 344.942C385.292 344.546 385.369 344.197 385.524 343.896C385.679 343.591 385.903 343.338 386.194 343.138C386.486 342.933 386.837 342.778 387.247 342.673C387.657 342.568 388.115 342.516 388.621 342.516H390.091ZM393.119 336.5H394.391V345.564L394.281 347H393.119V336.5ZM399.388 343.24V343.384C399.388 343.922 399.324 344.421 399.196 344.881C399.069 345.337 398.882 345.733 398.636 346.07C398.39 346.408 398.089 346.67 397.733 346.856C397.378 347.043 396.97 347.137 396.51 347.137C396.04 347.137 395.628 347.057 395.272 346.897C394.922 346.733 394.625 346.499 394.384 346.193C394.142 345.888 393.949 345.519 393.803 345.086C393.661 344.653 393.563 344.165 393.509 343.623V342.994C393.563 342.447 393.661 341.957 393.803 341.524C393.949 341.091 394.142 340.722 394.384 340.417C394.625 340.107 394.922 339.872 395.272 339.713C395.623 339.549 396.031 339.467 396.496 339.467C396.961 339.467 397.373 339.558 397.733 339.74C398.093 339.918 398.394 340.173 398.636 340.506C398.882 340.839 399.069 341.237 399.196 341.702C399.324 342.162 399.388 342.675 399.388 343.24ZM398.116 343.384V343.24C398.116 342.871 398.082 342.525 398.014 342.201C397.945 341.873 397.836 341.586 397.686 341.34C397.535 341.089 397.337 340.893 397.091 340.752C396.845 340.606 396.542 340.533 396.182 340.533C395.863 340.533 395.585 340.588 395.348 340.697C395.115 340.807 394.917 340.955 394.753 341.142C394.589 341.324 394.454 341.534 394.35 341.771C394.249 342.003 394.174 342.244 394.124 342.495V344.143C394.197 344.462 394.315 344.769 394.479 345.065C394.648 345.357 394.871 345.596 395.149 345.783C395.432 345.97 395.781 346.063 396.195 346.063C396.537 346.063 396.829 345.995 397.07 345.858C397.316 345.717 397.515 345.523 397.665 345.277C397.82 345.031 397.934 344.746 398.007 344.423C398.08 344.099 398.116 343.753 398.116 343.384ZM404.057 347.137C403.542 347.137 403.075 347.05 402.655 346.877C402.241 346.699 401.883 346.451 401.582 346.132C401.286 345.813 401.058 345.435 400.898 344.997C400.739 344.56 400.659 344.081 400.659 343.562V343.274C400.659 342.673 400.748 342.137 400.926 341.668C401.104 341.194 401.345 340.793 401.65 340.465C401.956 340.137 402.302 339.888 402.689 339.72C403.077 339.551 403.478 339.467 403.893 339.467C404.421 339.467 404.877 339.558 405.26 339.74C405.647 339.923 405.964 340.178 406.21 340.506C406.456 340.829 406.638 341.212 406.757 341.654C406.875 342.092 406.935 342.57 406.935 343.09V343.657H401.411V342.625H405.67V342.529C405.652 342.201 405.583 341.882 405.465 341.572C405.351 341.262 405.169 341.007 404.918 340.807C404.667 340.606 404.326 340.506 403.893 340.506C403.605 340.506 403.341 340.567 403.1 340.69C402.858 340.809 402.651 340.987 402.478 341.224C402.304 341.461 402.17 341.75 402.074 342.092C401.979 342.434 401.931 342.828 401.931 343.274V343.562C401.931 343.912 401.979 344.243 402.074 344.553C402.174 344.858 402.318 345.127 402.505 345.359C402.696 345.592 402.926 345.774 403.195 345.906C403.469 346.038 403.779 346.104 404.125 346.104C404.572 346.104 404.95 346.013 405.26 345.831C405.57 345.649 405.841 345.405 406.073 345.1L406.839 345.708C406.679 345.95 406.477 346.18 406.23 346.398C405.984 346.617 405.681 346.795 405.321 346.932C404.966 347.068 404.544 347.137 404.057 347.137ZM409.785 336.5V347H408.514V336.5H409.785ZM421.878 343.65V344.689H414.687V343.944L419.144 337.047H420.176L419.068 339.043L416.122 343.65H421.878ZM420.49 337.047V347H419.226V337.047H420.49Z" fill="#D4D4D4"/>
<circle cx="453" cy="342" r="6" fill="#FACC15"/>
<path d="M474.191 345.927V347H469.215V345.927H474.191ZM469.475 337.047V347H468.155V337.047H469.475ZM479.872 345.735V341.928C479.872 341.636 479.813 341.383 479.694 341.169C479.58 340.95 479.407 340.782 479.175 340.663C478.942 340.545 478.655 340.485 478.313 340.485C477.994 340.485 477.714 340.54 477.473 340.649C477.236 340.759 477.049 340.902 476.912 341.08C476.78 341.258 476.714 341.449 476.714 341.654H475.449C475.449 341.39 475.518 341.128 475.654 340.868C475.791 340.608 475.987 340.374 476.242 340.164C476.502 339.95 476.812 339.781 477.172 339.658C477.536 339.531 477.942 339.467 478.389 339.467C478.926 339.467 479.4 339.558 479.811 339.74C480.225 339.923 480.549 340.198 480.781 340.567C481.018 340.932 481.137 341.39 481.137 341.941V345.387C481.137 345.633 481.157 345.895 481.198 346.173C481.244 346.451 481.31 346.69 481.396 346.891V347H480.077C480.013 346.854 479.963 346.66 479.927 346.419C479.89 346.173 479.872 345.945 479.872 345.735ZM480.091 342.516L480.104 343.404H478.826C478.466 343.404 478.145 343.434 477.862 343.493C477.58 343.548 477.343 343.632 477.151 343.746C476.96 343.86 476.814 344.004 476.714 344.177C476.614 344.345 476.563 344.544 476.563 344.771C476.563 345.004 476.616 345.216 476.721 345.407C476.826 345.599 476.983 345.751 477.192 345.865C477.407 345.975 477.669 346.029 477.979 346.029C478.366 346.029 478.708 345.947 479.004 345.783C479.3 345.619 479.535 345.419 479.708 345.182C479.886 344.945 479.981 344.715 479.995 344.491L480.535 345.1C480.503 345.291 480.417 345.503 480.275 345.735C480.134 345.968 479.945 346.191 479.708 346.405C479.476 346.615 479.198 346.79 478.874 346.932C478.555 347.068 478.195 347.137 477.794 347.137C477.293 347.137 476.853 347.039 476.475 346.843C476.101 346.647 475.809 346.385 475.6 346.057C475.395 345.724 475.292 345.353 475.292 344.942C475.292 344.546 475.369 344.197 475.524 343.896C475.679 343.591 475.903 343.338 476.194 343.138C476.486 342.933 476.837 342.778 477.247 342.673C477.657 342.568 478.115 342.516 478.621 342.516H480.091ZM483.119 336.5H484.391V345.564L484.281 347H483.119V336.5ZM489.388 343.24V343.384C489.388 343.922 489.324 344.421 489.196 344.881C489.069 345.337 488.882 345.733 488.636 346.07C488.39 346.408 488.089 346.67 487.733 346.856C487.378 347.043 486.97 347.137 486.51 347.137C486.04 347.137 485.628 347.057 485.272 346.897C484.922 346.733 484.625 346.499 484.384 346.193C484.142 345.888 483.949 345.519 483.803 345.086C483.661 344.653 483.563 344.165 483.509 343.623V342.994C483.563 342.447 483.661 341.957 483.803 341.524C483.949 341.091 484.142 340.722 484.384 340.417C484.625 340.107 484.922 339.872 485.272 339.713C485.623 339.549 486.031 339.467 486.496 339.467C486.961 339.467 487.373 339.558 487.733 339.74C488.093 339.918 488.394 340.173 488.636 340.506C488.882 340.839 489.069 341.237 489.196 341.702C489.324 342.162 489.388 342.675 489.388 343.24ZM488.116 343.384V343.24C488.116 342.871 488.082 342.525 488.014 342.201C487.945 341.873 487.836 341.586 487.686 341.34C487.535 341.089 487.337 340.893 487.091 340.752C486.845 340.606 486.542 340.533 486.182 340.533C485.863 340.533 485.585 340.588 485.348 340.697C485.115 340.807 484.917 340.955 484.753 341.142C484.589 341.324 484.454 341.534 484.35 341.771C484.249 342.003 484.174 342.244 484.124 342.495V344.143C484.197 344.462 484.315 344.769 484.479 345.065C484.648 345.357 484.871 345.596 485.149 345.783C485.432 345.97 485.781 346.063 486.195 346.063C486.537 346.063 486.829 345.995 487.07 345.858C487.316 345.717 487.515 345.523 487.665 345.277C487.82 345.031 487.934 344.746 488.007 344.423C488.08 344.099 488.116 343.753 488.116 343.384ZM494.057 347.137C493.542 347.137 493.075 347.05 492.655 346.877C492.241 346.699 491.883 346.451 491.582 346.132C491.286 345.813 491.058 345.435 490.898 344.997C490.739 344.56 490.659 344.081 490.659 343.562V343.274C490.659 342.673 490.748 342.137 490.926 341.668C491.104 341.194 491.345 340.793 491.65 340.465C491.956 340.137 492.302 339.888 492.689 339.72C493.077 339.551 493.478 339.467 493.893 339.467C494.421 339.467 494.877 339.558 495.26 339.74C495.647 339.923 495.964 340.178 496.21 340.506C496.456 340.829 496.638 341.212 496.757 341.654C496.875 342.092 496.935 342.57 496.935 343.09V343.657H491.411V342.625H495.67V342.529C495.652 342.201 495.583 341.882 495.465 341.572C495.351 341.262 495.169 341.007 494.918 340.807C494.667 340.606 494.326 340.506 493.893 340.506C493.605 340.506 493.341 340.567 493.1 340.69C492.858 340.809 492.651 340.987 492.478 341.224C492.304 341.461 492.17 341.75 492.074 342.092C491.979 342.434 491.931 342.828 491.931 343.274V343.562C491.931 343.912 491.979 344.243 492.074 344.553C492.174 344.858 492.318 345.127 492.505 345.359C492.696 345.592 492.926 345.774 493.195 345.906C493.469 346.038 493.779 346.104 494.125 346.104C494.572 346.104 494.95 346.013 495.26 345.831C495.57 345.649 495.841 345.405 496.073 345.1L496.839 345.708C496.679 345.95 496.477 346.18 496.23 346.398C495.984 346.617 495.681 346.795 495.321 346.932C494.966 347.068 494.544 347.137 494.057 347.137ZM499.785 336.5V347H498.514V336.5H499.785ZM506.751 342.263L505.739 342.003L506.238 337.047H511.345V338.216H507.312L507.011 340.923C507.193 340.818 507.423 340.72 507.701 340.629C507.984 340.538 508.307 340.492 508.672 340.492C509.132 340.492 509.545 340.572 509.909 340.731C510.274 340.886 510.584 341.11 510.839 341.401C511.099 341.693 511.297 342.044 511.434 342.454C511.57 342.864 511.639 343.322 511.639 343.828C511.639 344.307 511.573 344.746 511.44 345.147C511.313 345.549 511.119 345.899 510.859 346.2C510.6 346.496 510.271 346.727 509.875 346.891C509.483 347.055 509.021 347.137 508.487 347.137C508.086 347.137 507.706 347.082 507.346 346.973C506.99 346.859 506.671 346.688 506.389 346.46C506.111 346.228 505.883 345.94 505.705 345.599C505.532 345.252 505.423 344.847 505.377 344.382H506.58C506.635 344.756 506.744 345.07 506.908 345.325C507.072 345.58 507.286 345.774 507.551 345.906C507.82 346.034 508.132 346.098 508.487 346.098C508.788 346.098 509.055 346.045 509.287 345.94C509.52 345.836 509.715 345.685 509.875 345.489C510.035 345.293 510.155 345.056 510.237 344.778C510.324 344.5 510.367 344.188 510.367 343.842C510.367 343.527 510.324 343.236 510.237 342.967C510.151 342.698 510.021 342.463 509.848 342.263C509.679 342.062 509.472 341.907 509.226 341.798C508.979 341.684 508.697 341.627 508.378 341.627C507.954 341.627 507.633 341.684 507.414 341.798C507.2 341.912 506.979 342.067 506.751 342.263Z" fill="#D4D4D4"/>
</svg>
