<svg width="115" height="50" viewBox="0 0 115 50" fill="none" xmlns="http://www.w3.org/2000/svg">
<path d="M23.1043 49.0239C8.89629 49.0239 0.000289202 39.6159 0.000289202 24.6399C0.000289202 9.85586 9.40829 0.127857 23.5523 0.127857C35.3923 0.127857 43.9043 6.91186 45.3763 17.5359H34.4323C33.0243 12.7999 28.9923 10.1119 23.2963 10.1119C15.6163 10.1119 10.9443 15.5519 10.9443 24.5759C10.9443 33.4719 15.6803 39.0399 23.2963 39.0399C29.1203 39.0399 33.4083 36.1599 34.6883 31.4879H45.4403C43.7763 42.0479 34.9443 49.0239 23.1043 49.0239ZM60.5173 49.0879C53.7333 49.0879 49.5093 45.1199 49.5093 38.8479C49.5093 32.9599 53.6693 29.3119 61.3493 28.7359L70.3093 28.0319V27.5199C70.3093 24.3839 68.3893 22.7199 64.8693 22.7199C60.7093 22.7199 58.4693 24.3199 58.4693 27.1999H50.2773C50.2773 19.9679 56.2293 15.2319 65.3813 15.2319C74.6613 15.2319 79.9093 20.4159 79.9093 29.5679V48.2559H71.2053L70.5653 44.0319C69.5413 46.9759 65.3173 49.0879 60.5173 49.0879ZM63.9733 41.7919C67.7493 41.7919 70.3733 39.9359 70.3733 36.2879V34.5599L65.3813 35.0079C61.0933 35.3919 59.5573 36.3519 59.5573 38.3999C59.5573 40.7039 60.9653 41.7919 63.9733 41.7919ZM97.1543 48.2559H87.2983V-0.000141144H97.1543V48.2559ZM114.724 48.2559H104.868V-0.000141144H114.724V48.2559Z" fill="black"/>
</svg>
