<svg width="2268" height="28" viewBox="0 0 2268 28" fill="none" xmlns="http://www.w3.org/2000/svg">
<path d="M9.8282 21.168C3.8642 21.168 0.000203148 17.024 0.000203148 10.612C0.000203148 4.25603 4.0042 0.0280304 9.9962 0.0280304C14.8402 0.0280304 18.4522 2.85603 19.1522 7.25203H15.3722C14.6722 4.87203 12.6282 3.47203 9.9122 3.47203C6.1322 3.47203 3.7522 6.21603 3.7522 10.584C3.7522 14.924 6.1602 17.724 9.9122 17.724C12.6842 17.724 14.8122 16.268 15.4842 14H19.2082C18.4242 18.312 14.6722 21.168 9.8282 21.168ZM21.1063 13.888C21.1063 9.57603 24.2143 6.60803 28.4983 6.60803C32.7823 6.60803 35.8903 9.57603 35.8903 13.888C35.8903 18.2 32.7823 21.168 28.4983 21.168C24.2143 21.168 21.1063 18.2 21.1063 13.888ZM24.5223 13.888C24.5223 16.408 26.1463 18.116 28.4983 18.116C30.8503 18.116 32.4743 16.408 32.4743 13.888C32.4743 11.368 30.8503 9.66003 28.4983 9.66003C26.1463 9.66003 24.5223 11.368 24.5223 13.888ZM42.014 20.832H38.598V7.00003H41.734L42.014 8.62403C42.714 7.47603 44.114 6.58003 46.102 6.58003C48.202 6.58003 49.658 7.61603 50.386 9.21203C51.086 7.61603 52.71 6.58003 54.81 6.58003C58.17 6.58003 60.018 8.59603 60.018 11.788V20.832H56.63V12.684C56.63 10.696 55.566 9.66003 53.942 9.66003C52.29 9.66003 51.03 10.724 51.03 12.992V20.832H47.614V12.656C47.614 10.724 46.578 9.68803 44.954 9.68803C43.33 9.68803 42.014 10.752 42.014 12.992V20.832ZM66.7874 20.832H63.3714V7.00003H66.5074L66.7874 8.62403C67.4874 7.47603 68.8874 6.58003 70.8754 6.58003C72.9754 6.58003 74.4314 7.61603 75.1594 9.21203C75.8594 7.61603 77.4834 6.58003 79.5834 6.58003C82.9434 6.58003 84.7914 8.59603 84.7914 11.788V20.832H81.4034V12.684C81.4034 10.696 80.3394 9.66003 78.7154 9.66003C77.0634 9.66003 75.8034 10.724 75.8034 12.992V20.832H72.3874V12.656C72.3874 10.724 71.3514 9.68803 69.7274 9.68803C68.1034 9.68803 66.7874 10.752 66.7874 12.992V20.832ZM97.5249 7.00003H100.941V20.832H97.7769L97.5249 18.984C96.6849 20.3 94.8929 21.196 93.0449 21.196C89.8529 21.196 87.9769 19.04 87.9769 15.652V7.00003H91.3929V14.448C91.3929 17.08 92.4289 18.144 94.3329 18.144C96.4889 18.144 97.5249 16.884 97.5249 14.252V7.00003ZM107.885 20.832H104.469V7.00003H107.633L107.913 8.79203C108.781 7.39203 110.461 6.58003 112.337 6.58003C115.809 6.58003 117.601 8.73603 117.601 12.32V20.832H114.185V13.132C114.185 10.808 113.037 9.68803 111.273 9.68803C109.173 9.68803 107.885 11.144 107.885 13.384V20.832ZM122.665 4.22803C121.489 4.22803 120.565 3.30403 120.565 2.15603C120.565 1.00803 121.489 0.112031 122.665 0.112031C123.785 0.112031 124.709 1.00803 124.709 2.15603C124.709 3.30403 123.785 4.22803 122.665 4.22803ZM120.957 20.832V7.00003H124.373V20.832H120.957ZM127.091 13.888C127.091 9.60403 129.919 6.58003 134.007 6.58003C137.787 6.58003 140.363 8.68003 140.727 12.012H137.311C136.919 10.444 135.771 9.63203 134.147 9.63203C131.963 9.63203 130.507 11.284 130.507 13.888C130.507 16.492 131.851 18.116 134.035 18.116C135.743 18.116 136.947 17.276 137.311 15.764H140.755C140.335 18.984 137.647 21.196 134.035 21.196C129.835 21.196 127.091 18.284 127.091 13.888ZM147.413 21.196C144.473 21.196 142.681 19.488 142.681 16.884C142.681 14.336 144.529 12.74 147.805 12.488L151.949 12.18V11.872C151.949 9.99603 150.829 9.24003 149.093 9.24003C147.077 9.24003 145.957 10.08 145.957 11.536H143.045C143.045 8.54003 145.509 6.58003 149.261 6.58003C152.985 6.58003 155.281 8.59603 155.281 12.432V20.832H152.285L152.033 18.788C151.445 20.216 149.569 21.196 147.413 21.196ZM148.533 18.62C150.633 18.62 151.977 17.36 151.977 15.232V14.504L149.093 14.728C146.965 14.924 146.153 15.624 146.153 16.744C146.153 18.004 146.993 18.62 148.533 18.62ZM163.15 20.832H159.734V9.85603H157.074V7.00003H159.734V2.68803H163.15V7.00003H165.838V9.85603H163.15V20.832ZM169.669 4.22803C168.493 4.22803 167.569 3.30403 167.569 2.15603C167.569 1.00803 168.493 0.112031 169.669 0.112031C170.789 0.112031 171.713 1.00803 171.713 2.15603C171.713 3.30403 170.789 4.22803 169.669 4.22803ZM167.961 20.832V7.00003H171.377V20.832H167.961ZM174.095 13.888C174.095 9.57603 177.203 6.60803 181.487 6.60803C185.771 6.60803 188.879 9.57603 188.879 13.888C188.879 18.2 185.771 21.168 181.487 21.168C177.203 21.168 174.095 18.2 174.095 13.888ZM177.511 13.888C177.511 16.408 179.135 18.116 181.487 18.116C183.839 18.116 185.463 16.408 185.463 13.888C185.463 11.368 183.839 9.66003 181.487 9.66003C179.135 9.66003 177.511 11.368 177.511 13.888ZM195.002 20.832H191.586V7.00003H194.75L195.03 8.79203C195.898 7.39203 197.578 6.58003 199.454 6.58003C202.926 6.58003 204.718 8.73603 204.718 12.32V20.832H201.302V13.132C201.302 10.808 200.154 9.68803 198.39 9.68803C196.29 9.68803 195.002 11.144 195.002 13.384V20.832ZM217.329 4.22803C216.153 4.22803 215.229 3.30403 215.229 2.15603C215.229 1.00803 216.153 0.112031 217.329 0.112031C218.449 0.112031 219.373 1.00803 219.373 2.15603C219.373 3.30403 218.449 4.22803 217.329 4.22803ZM215.621 20.832V7.00003H219.037V20.832H215.621ZM221.755 13.888C221.755 9.60403 224.583 6.58003 228.671 6.58003C232.451 6.58003 235.027 8.68003 235.391 12.012H231.975C231.583 10.444 230.435 9.63203 228.811 9.63203C226.627 9.63203 225.171 11.284 225.171 13.888C225.171 16.492 226.515 18.116 228.699 18.116C230.407 18.116 231.611 17.276 231.975 15.764H235.419C234.999 18.984 232.311 21.196 228.699 21.196C224.499 21.196 221.755 18.284 221.755 13.888ZM237.149 13.888C237.149 9.57603 240.257 6.60803 244.541 6.60803C248.825 6.60803 251.933 9.57603 251.933 13.888C251.933 18.2 248.825 21.168 244.541 21.168C240.257 21.168 237.149 18.2 237.149 13.888ZM240.565 13.888C240.565 16.408 242.189 18.116 244.541 18.116C246.893 18.116 248.517 16.408 248.517 13.888C248.517 11.368 246.893 9.66003 244.541 9.66003C242.189 9.66003 240.565 11.368 240.565 13.888ZM258.057 20.832H254.641V7.00003H257.805L258.085 8.79203C258.953 7.39203 260.633 6.58003 262.509 6.58003C265.981 6.58003 267.773 8.73603 267.773 12.32V20.832H264.357V13.132C264.357 10.808 263.209 9.68803 261.445 9.68803C259.345 9.68803 258.057 11.144 258.057 13.384V20.832ZM269.901 16.632H273.149C273.177 17.836 274.073 18.592 275.641 18.592C277.237 18.592 278.105 17.948 278.105 16.94C278.105 16.24 277.741 15.736 276.509 15.456L274.017 14.868C271.525 14.308 270.321 13.132 270.321 10.92C270.321 8.20403 272.617 6.58003 275.809 6.58003C278.917 6.58003 281.017 8.37203 281.045 11.06H277.797C277.769 9.88403 276.985 9.12803 275.669 9.12803C274.325 9.12803 273.541 9.74403 273.541 10.78C273.541 11.564 274.157 12.068 275.333 12.348L277.825 12.936C280.149 13.468 281.325 14.532 281.325 16.66C281.325 19.46 278.945 21.196 275.529 21.196C272.085 21.196 269.901 19.348 269.901 16.632ZM290.101 7.00003H292.089V5.32003C292.089 1.56803 294.077 3.0756e-05 297.073 3.0756e-05C297.605 3.0756e-05 298.249 0.0280304 298.837 0.140031V3.05203H297.633C295.897 3.05203 295.477 3.94803 295.477 5.32003V7.00003H298.781V9.85603H295.477V20.832H292.089V9.85603H290.101V7.00003ZM299.739 13.888C299.739 9.57603 302.847 6.60803 307.131 6.60803C311.415 6.60803 314.523 9.57603 314.523 13.888C314.523 18.2 311.415 21.168 307.131 21.168C302.847 21.168 299.739 18.2 299.739 13.888ZM303.155 13.888C303.155 16.408 304.779 18.116 307.131 18.116C309.483 18.116 311.107 16.408 311.107 13.888C311.107 11.368 309.483 9.66003 307.131 9.66003C304.779 9.66003 303.155 11.368 303.155 13.888ZM325.911 6.94403V10.108H324.651C322.187 10.108 320.647 11.424 320.647 14.112V20.832H317.231V7.02803H320.451L320.647 9.04403C321.235 7.67203 322.551 6.74803 324.399 6.74803C324.875 6.74803 325.351 6.80403 325.911 6.94403ZM337.478 4.22803C336.302 4.22803 335.378 3.30403 335.378 2.15603C335.378 1.00803 336.302 0.112031 337.478 0.112031C338.598 0.112031 339.522 1.00803 339.522 2.15603C339.522 3.30403 338.598 4.22803 337.478 4.22803ZM335.77 20.832V7.00003H339.186V20.832H335.77ZM346.131 20.832H342.715V7.00003H345.879L346.159 8.79203C347.027 7.39203 348.707 6.58003 350.583 6.58003C354.055 6.58003 355.847 8.73603 355.847 12.32V20.832H352.431V13.132C352.431 10.808 351.283 9.68803 349.519 9.68803C347.419 9.68803 346.131 11.144 346.131 13.384V20.832ZM362.367 20.832H359.203V3.0756e-05H362.619V9.01603C363.515 7.47603 365.363 6.55203 367.463 6.55203C371.411 6.55203 373.819 9.63203 373.819 14C373.819 18.256 371.215 21.196 367.239 21.196C365.167 21.196 363.403 20.272 362.591 18.676L362.367 20.832ZM362.647 13.86C362.647 16.352 364.187 18.06 366.539 18.06C368.947 18.06 370.375 16.324 370.375 13.86C370.375 11.396 368.947 9.63203 366.539 9.63203C364.187 9.63203 362.647 11.368 362.647 13.86ZM375.727 13.888C375.727 9.57603 378.835 6.60803 383.119 6.60803C387.403 6.60803 390.511 9.57603 390.511 13.888C390.511 18.2 387.403 21.168 383.119 21.168C378.835 21.168 375.727 18.2 375.727 13.888ZM379.143 13.888C379.143 16.408 380.767 18.116 383.119 18.116C385.471 18.116 387.095 16.408 387.095 13.888C387.095 11.368 385.471 9.66003 383.119 9.66003C380.767 9.66003 379.143 11.368 379.143 13.888ZM394.998 20.832H391.106L395.866 14.056L391.106 7.00003H395.082L398.134 11.704L401.074 7.00003H404.91L400.206 14L404.77 20.832H400.85L397.91 16.268L394.998 20.832ZM412.505 21.196C408.389 21.196 405.505 18.2 405.505 13.916C405.505 9.57603 408.333 6.58003 412.393 6.58003C416.537 6.58003 419.169 9.35203 419.169 13.664V14.7L408.753 14.728C409.005 17.164 410.293 18.396 412.561 18.396C414.437 18.396 415.669 17.668 416.061 16.352H419.225C418.637 19.376 416.117 21.196 412.505 21.196ZM412.421 9.38003C410.405 9.38003 409.173 10.472 408.837 12.544H415.781C415.781 10.64 414.465 9.38003 412.421 9.38003ZM420.839 16.632H424.087C424.115 17.836 425.011 18.592 426.579 18.592C428.175 18.592 429.043 17.948 429.043 16.94C429.043 16.24 428.679 15.736 427.447 15.456L424.955 14.868C422.463 14.308 421.259 13.132 421.259 10.92C421.259 8.20403 423.555 6.58003 426.747 6.58003C429.855 6.58003 431.955 8.37203 431.983 11.06H428.735C428.707 9.88403 427.923 9.12803 426.607 9.12803C425.263 9.12803 424.479 9.74403 424.479 10.78C424.479 11.564 425.095 12.068 426.271 12.348L428.763 12.936C431.087 13.468 432.263 14.532 432.263 16.66C432.263 19.46 429.883 21.196 426.467 21.196C423.023 21.196 420.839 19.348 420.839 16.632ZM439.346 19.6C439.346 21.924 437.666 23.772 435.398 24.052V22.68C436.658 22.456 437.61 21.7 437.61 20.72C437.386 20.832 437.134 20.888 436.798 20.888C435.706 20.888 434.81 20.076 434.81 18.956C434.81 17.612 435.678 16.716 436.938 16.716C438.338 16.716 439.346 17.864 439.346 19.6ZM449.665 13.888C449.665 9.60403 452.493 6.58003 456.581 6.58003C460.361 6.58003 462.937 8.68003 463.301 12.012H459.885C459.493 10.444 458.345 9.63203 456.721 9.63203C454.537 9.63203 453.081 11.284 453.081 13.888C453.081 16.492 454.425 18.116 456.609 18.116C458.317 18.116 459.521 17.276 459.885 15.764H463.329C462.909 18.984 460.221 21.196 456.609 21.196C452.409 21.196 449.665 18.284 449.665 13.888ZM469.287 20.832H465.871V3.0756e-05H469.315V8.79203C470.183 7.44803 471.807 6.58003 473.795 6.58003C477.211 6.58003 479.003 8.73603 479.003 12.32V20.832H475.587V13.132C475.587 10.808 474.439 9.68803 472.703 9.68803C470.547 9.68803 469.287 11.2 469.287 13.272V20.832ZM486.476 21.196C483.536 21.196 481.744 19.488 481.744 16.884C481.744 14.336 483.592 12.74 486.868 12.488L491.012 12.18V11.872C491.012 9.99603 489.892 9.24003 488.156 9.24003C486.14 9.24003 485.02 10.08 485.02 11.536H482.108C482.108 8.54003 484.572 6.58003 488.324 6.58003C492.048 6.58003 494.344 8.59603 494.344 12.432V20.832H491.348L491.096 18.788C490.508 20.216 488.632 21.196 486.476 21.196ZM487.596 18.62C489.696 18.62 491.04 17.36 491.04 15.232V14.504L488.156 14.728C486.028 14.924 485.216 15.624 485.216 16.744C485.216 18.004 486.056 18.62 487.596 18.62ZM502.212 20.832H498.796V9.85603H496.136V7.00003H498.796V2.68803H502.212V7.00003H504.9V9.85603H502.212V20.832ZM505.96 16.632H509.208C509.236 17.836 510.132 18.592 511.7 18.592C513.296 18.592 514.164 17.948 514.164 16.94C514.164 16.24 513.8 15.736 512.568 15.456L510.076 14.868C507.584 14.308 506.38 13.132 506.38 10.92C506.38 8.20403 508.676 6.58003 511.868 6.58003C514.976 6.58003 517.076 8.37203 517.104 11.06H513.856C513.828 9.88403 513.044 9.12803 511.728 9.12803C510.384 9.12803 509.6 9.74403 509.6 10.78C509.6 11.564 510.216 12.068 511.392 12.348L513.884 12.936C516.208 13.468 517.384 14.532 517.384 16.66C517.384 19.46 515.004 21.196 511.588 21.196C508.144 21.196 505.96 19.348 505.96 16.632ZM524.467 19.6C524.467 21.924 522.787 23.772 520.519 24.052V22.68C521.779 22.456 522.731 21.7 522.731 20.72C522.507 20.832 522.255 20.888 521.919 20.888C520.827 20.888 519.931 20.076 519.931 18.956C519.931 17.612 520.799 16.716 522.059 16.716C523.459 16.716 524.467 17.864 524.467 19.6ZM539.014 20.832H535.598V7.00003H538.762L539.042 8.79203C539.91 7.39203 541.59 6.58003 543.466 6.58003C546.938 6.58003 548.73 8.73603 548.73 12.32V20.832H545.314V13.132C545.314 10.808 544.166 9.68803 542.402 9.68803C540.302 9.68803 539.014 11.144 539.014 13.384V20.832ZM551.274 13.888C551.274 9.57603 554.382 6.60803 558.666 6.60803C562.95 6.60803 566.058 9.57603 566.058 13.888C566.058 18.2 562.95 21.168 558.666 21.168C554.382 21.168 551.274 18.2 551.274 13.888ZM554.69 13.888C554.69 16.408 556.314 18.116 558.666 18.116C561.018 18.116 562.642 16.408 562.642 13.888C562.642 11.368 561.018 9.66003 558.666 9.66003C556.314 9.66003 554.69 11.368 554.69 13.888ZM573.333 20.832H569.917V9.85603H567.257V7.00003H569.917V2.68803H573.333V7.00003H576.021V9.85603H573.333V20.832ZM579.853 4.22803C578.677 4.22803 577.753 3.30403 577.753 2.15603C577.753 1.00803 578.677 0.112031 579.853 0.112031C580.973 0.112031 581.897 1.00803 581.897 2.15603C581.897 3.30403 580.973 4.22803 579.853 4.22803ZM578.145 20.832V7.00003H581.561V20.832H578.145ZM594.75 20.832V9.85603H589.094V20.832H585.706V9.85603H583.718V7.00003H585.706V5.32003C585.706 1.56803 587.666 3.0756e-05 590.466 3.0756e-05C590.998 3.0756e-05 591.642 0.0280304 592.23 0.140031V3.05203H591.026C589.486 3.05203 589.094 3.94803 589.094 5.32003V7.00003H598.166V20.832H594.75ZM596.458 4.17203C595.31 4.17203 594.414 3.27603 594.414 2.12803C594.414 1.00803 595.31 0.112031 596.458 0.112031C597.578 0.112031 598.474 1.00803 598.474 2.12803C598.474 3.27603 597.578 4.17203 596.458 4.17203ZM600.876 13.888C600.876 9.60403 603.704 6.58003 607.792 6.58003C611.572 6.58003 614.148 8.68003 614.512 12.012H611.096C610.704 10.444 609.556 9.63203 607.932 9.63203C605.748 9.63203 604.292 11.284 604.292 13.888C604.292 16.492 605.636 18.116 607.82 18.116C609.528 18.116 610.732 17.276 611.096 15.764H614.54C614.12 18.984 611.432 21.196 607.82 21.196C603.62 21.196 600.876 18.284 600.876 13.888ZM621.198 21.196C618.258 21.196 616.466 19.488 616.466 16.884C616.466 14.336 618.314 12.74 621.59 12.488L625.734 12.18V11.872C625.734 9.99603 624.614 9.24003 622.878 9.24003C620.862 9.24003 619.742 10.08 619.742 11.536H616.83C616.83 8.54003 619.294 6.58003 623.046 6.58003C626.77 6.58003 629.066 8.59603 629.066 12.432V20.832H626.07L625.818 18.788C625.23 20.216 623.354 21.196 621.198 21.196ZM622.318 18.62C624.418 18.62 625.762 17.36 625.762 15.232V14.504L622.878 14.728C620.75 14.924 619.938 15.624 619.938 16.744C619.938 18.004 620.778 18.62 622.318 18.62ZM636.935 20.832H633.519V9.85603H630.859V7.00003H633.519V2.68803H636.935V7.00003H639.623V9.85603H636.935V20.832ZM643.454 4.22803C642.278 4.22803 641.354 3.30403 641.354 2.15603C641.354 1.00803 642.278 0.112031 643.454 0.112031C644.574 0.112031 645.498 1.00803 645.498 2.15603C645.498 3.30403 644.574 4.22803 643.454 4.22803ZM641.746 20.832V7.00003H645.162V20.832H641.746ZM647.88 13.888C647.88 9.57603 650.988 6.60803 655.272 6.60803C659.556 6.60803 662.664 9.57603 662.664 13.888C662.664 18.2 659.556 21.168 655.272 21.168C650.988 21.168 647.88 18.2 647.88 13.888ZM651.296 13.888C651.296 16.408 652.92 18.116 655.272 18.116C657.624 18.116 659.248 16.408 659.248 13.888C659.248 11.368 657.624 9.66003 655.272 9.66003C652.92 9.66003 651.296 11.368 651.296 13.888ZM668.787 20.832H665.371V7.00003H668.535L668.815 8.79203C669.683 7.39203 671.363 6.58003 673.239 6.58003C676.711 6.58003 678.503 8.73603 678.503 12.32V20.832H675.087V13.132C675.087 10.808 673.939 9.68803 672.175 9.68803C670.075 9.68803 668.787 11.144 668.787 13.384V20.832ZM680.632 16.632H683.88C683.908 17.836 684.804 18.592 686.372 18.592C687.968 18.592 688.836 17.948 688.836 16.94C688.836 16.24 688.472 15.736 687.24 15.456L684.748 14.868C682.256 14.308 681.052 13.132 681.052 10.92C681.052 8.20403 683.348 6.58003 686.54 6.58003C689.648 6.58003 691.748 8.37203 691.776 11.06H688.528C688.5 9.88403 687.716 9.12803 686.4 9.12803C685.056 9.12803 684.272 9.74403 684.272 10.78C684.272 11.564 684.888 12.068 686.064 12.348L688.556 12.936C690.88 13.468 692.056 14.532 692.056 16.66C692.056 19.46 689.676 21.196 686.26 21.196C682.816 21.196 680.632 19.348 680.632 16.632ZM699.139 19.6C699.139 21.924 697.459 23.772 695.191 24.052V22.68C696.451 22.456 697.403 21.7 697.403 20.72C697.179 20.832 696.927 20.888 696.591 20.888C695.499 20.888 694.603 20.076 694.603 18.956C694.603 17.612 695.471 16.716 696.731 16.716C698.131 16.716 699.139 17.864 699.139 19.6ZM713.686 20.832H710.27V7.00003H713.406L713.686 8.62403C714.386 7.47603 715.786 6.58003 717.774 6.58003C719.874 6.58003 721.33 7.61603 722.058 9.21203C722.758 7.61603 724.382 6.58003 726.482 6.58003C729.842 6.58003 731.69 8.59603 731.69 11.788V20.832H728.302V12.684C728.302 10.696 727.238 9.66003 725.614 9.66003C723.962 9.66003 722.702 10.724 722.702 12.992V20.832H719.286V12.656C719.286 10.724 718.25 9.68803 716.626 9.68803C715.002 9.68803 713.686 10.752 713.686 12.992V20.832ZM741.231 21.196C737.115 21.196 734.231 18.2 734.231 13.916C734.231 9.57603 737.059 6.58003 741.119 6.58003C745.263 6.58003 747.895 9.35203 747.895 13.664V14.7L737.479 14.728C737.731 17.164 739.019 18.396 741.287 18.396C743.163 18.396 744.395 17.668 744.787 16.352H747.951C747.363 19.376 744.843 21.196 741.231 21.196ZM741.147 9.38003C739.131 9.38003 737.899 10.472 737.563 12.544H744.507C744.507 10.64 743.191 9.38003 741.147 9.38003ZM749.565 16.632H752.813C752.841 17.836 753.737 18.592 755.305 18.592C756.901 18.592 757.769 17.948 757.769 16.94C757.769 16.24 757.405 15.736 756.173 15.456L753.681 14.868C751.189 14.308 749.985 13.132 749.985 10.92C749.985 8.20403 752.281 6.58003 755.473 6.58003C758.581 6.58003 760.681 8.37203 760.709 11.06H757.461C757.433 9.88403 756.649 9.12803 755.333 9.12803C753.989 9.12803 753.205 9.74403 753.205 10.78C753.205 11.564 753.821 12.068 754.997 12.348L757.489 12.936C759.813 13.468 760.989 14.532 760.989 16.66C760.989 19.46 758.609 21.196 755.193 21.196C751.749 21.196 749.565 19.348 749.565 16.632ZM762.526 16.632H765.774C765.802 17.836 766.698 18.592 768.266 18.592C769.862 18.592 770.73 17.948 770.73 16.94C770.73 16.24 770.366 15.736 769.134 15.456L766.642 14.868C764.15 14.308 762.946 13.132 762.946 10.92C762.946 8.20403 765.242 6.58003 768.434 6.58003C771.542 6.58003 773.642 8.37203 773.67 11.06H770.422C770.394 9.88403 769.61 9.12803 768.294 9.12803C766.95 9.12803 766.166 9.74403 766.166 10.78C766.166 11.564 766.782 12.068 767.958 12.348L770.45 12.936C772.774 13.468 773.95 14.532 773.95 16.66C773.95 19.46 771.57 21.196 768.154 21.196C764.71 21.196 762.526 19.348 762.526 16.632ZM780.667 21.196C777.727 21.196 775.935 19.488 775.935 16.884C775.935 14.336 777.783 12.74 781.059 12.488L785.203 12.18V11.872C785.203 9.99603 784.083 9.24003 782.347 9.24003C780.331 9.24003 779.211 10.08 779.211 11.536H776.299C776.299 8.54003 778.763 6.58003 782.515 6.58003C786.239 6.58003 788.535 8.59603 788.535 12.432V20.832H785.539L785.287 18.788C784.699 20.216 782.823 21.196 780.667 21.196ZM781.787 18.62C783.887 18.62 785.231 17.36 785.231 15.232V14.504L782.347 14.728C780.219 14.924 779.407 15.624 779.407 16.744C779.407 18.004 780.247 18.62 781.787 18.62ZM791.107 13.608C791.107 9.57603 793.739 6.55203 797.687 6.55203C799.759 6.55203 801.383 7.42003 802.195 8.90403L802.391 7.00003H805.555V20.132C805.555 24.752 802.783 27.636 798.303 27.636C794.327 27.636 791.611 25.368 791.191 21.672H794.607C794.831 23.464 796.203 24.528 798.303 24.528C800.655 24.528 802.167 23.044 802.167 20.748V18.452C801.299 19.74 799.591 20.552 797.603 20.552C793.683 20.552 791.107 17.612 791.107 13.608ZM794.551 13.524C794.551 15.848 796.035 17.584 798.275 17.584C800.627 17.584 802.083 15.932 802.083 13.524C802.083 11.172 800.655 9.54803 798.275 9.54803C796.007 9.54803 794.551 11.256 794.551 13.524ZM815.278 21.196C811.162 21.196 808.278 18.2 808.278 13.916C808.278 9.57603 811.106 6.58003 815.166 6.58003C819.31 6.58003 821.942 9.35203 821.942 13.664V14.7L811.526 14.728C811.778 17.164 813.066 18.396 815.334 18.396C817.21 18.396 818.442 17.668 818.834 16.352H821.998C821.41 19.376 818.89 21.196 815.278 21.196ZM815.194 9.38003C813.178 9.38003 811.946 10.472 811.61 12.544H818.554C818.554 10.64 817.238 9.38003 815.194 9.38003ZM831.159 16.632H834.407C834.435 17.836 835.331 18.592 836.899 18.592C838.495 18.592 839.363 17.948 839.363 16.94C839.363 16.24 838.999 15.736 837.767 15.456L835.275 14.868C832.783 14.308 831.579 13.132 831.579 10.92C831.579 8.20403 833.875 6.58003 837.067 6.58003C840.175 6.58003 842.275 8.37203 842.303 11.06H839.055C839.027 9.88403 838.243 9.12803 836.927 9.12803C835.583 9.12803 834.799 9.74403 834.799 10.78C834.799 11.564 835.415 12.068 836.591 12.348L839.083 12.936C841.407 13.468 842.583 14.532 842.583 16.66C842.583 19.46 840.203 21.196 836.787 21.196C833.343 21.196 831.159 19.348 831.159 16.632ZM849.888 20.832H846.472V9.85603H843.812V7.00003H846.472V2.68803H849.888V7.00003H852.576V9.85603H849.888V20.832ZM858.734 21.196C855.794 21.196 854.002 19.488 854.002 16.884C854.002 14.336 855.85 12.74 859.126 12.488L863.27 12.18V11.872C863.27 9.99603 862.15 9.24003 860.414 9.24003C858.398 9.24003 857.278 10.08 857.278 11.536H854.366C854.366 8.54003 856.83 6.58003 860.582 6.58003C864.306 6.58003 866.602 8.59603 866.602 12.432V20.832H863.606L863.354 18.788C862.766 20.216 860.89 21.196 858.734 21.196ZM859.854 18.62C861.954 18.62 863.298 17.36 863.298 15.232V14.504L860.414 14.728C858.286 14.924 857.474 15.624 857.474 16.744C857.474 18.004 858.314 18.62 859.854 18.62ZM874.47 20.832H871.054V9.85603H868.394V7.00003H871.054V2.68803H874.47V7.00003H877.158V9.85603H874.47V20.832ZM885.333 21.196C881.217 21.196 878.333 18.2 878.333 13.916C878.333 9.57603 881.161 6.58003 885.221 6.58003C889.365 6.58003 891.997 9.35203 891.997 13.664V14.7L881.581 14.728C881.833 17.164 883.121 18.396 885.389 18.396C887.265 18.396 888.497 17.668 888.889 16.352H892.053C891.465 19.376 888.945 21.196 885.333 21.196ZM885.249 9.38003C883.233 9.38003 882.001 10.472 881.665 12.544H888.609C888.609 10.64 887.293 9.38003 885.249 9.38003ZM893.667 16.632H896.915C896.943 17.836 897.839 18.592 899.407 18.592C901.003 18.592 901.871 17.948 901.871 16.94C901.871 16.24 901.507 15.736 900.275 15.456L897.783 14.868C895.291 14.308 894.087 13.132 894.087 10.92C894.087 8.20403 896.383 6.58003 899.575 6.58003C902.683 6.58003 904.783 8.37203 904.811 11.06H901.563C901.535 9.88403 900.751 9.12803 899.435 9.12803C898.091 9.12803 897.307 9.74403 897.307 10.78C897.307 11.564 897.923 12.068 899.099 12.348L901.591 12.936C903.915 13.468 905.091 14.532 905.091 16.66C905.091 19.46 902.711 21.196 899.295 21.196C895.851 21.196 893.667 19.348 893.667 16.632ZM912.174 19.6C912.174 21.924 910.494 23.772 908.226 24.052V22.68C909.486 22.456 910.438 21.7 910.438 20.72C910.214 20.832 909.962 20.888 909.626 20.888C908.534 20.888 907.638 20.076 907.638 18.956C907.638 17.612 908.506 16.716 909.766 16.716C911.166 16.716 912.174 17.864 912.174 19.6ZM927.421 21.196C924.481 21.196 922.689 19.488 922.689 16.884C922.689 14.336 924.537 12.74 927.813 12.488L931.957 12.18V11.872C931.957 9.99603 930.837 9.24003 929.101 9.24003C927.085 9.24003 925.965 10.08 925.965 11.536H923.053C923.053 8.54003 925.517 6.58003 929.269 6.58003C932.993 6.58003 935.289 8.59603 935.289 12.432V20.832H932.293L932.041 18.788C931.453 20.216 929.577 21.196 927.421 21.196ZM928.541 18.62C930.641 18.62 931.985 17.36 931.985 15.232V14.504L929.101 14.728C926.973 14.924 926.161 15.624 926.161 16.744C926.161 18.004 927.001 18.62 928.541 18.62ZM942.061 20.832H938.645V7.00003H941.809L942.089 8.79203C942.957 7.39203 944.637 6.58003 946.513 6.58003C949.985 6.58003 951.777 8.73603 951.777 12.32V20.832H948.361V13.132C948.361 10.808 947.213 9.68803 945.449 9.68803C943.349 9.68803 942.061 11.144 942.061 13.384V20.832ZM960.817 21.196C956.813 21.196 954.321 18.256 954.321 13.972C954.321 9.66003 956.841 6.58003 961.013 6.58003C962.945 6.58003 964.653 7.39203 965.521 8.76403V3.0756e-05H968.909V20.832H965.773L965.549 18.676C964.709 20.272 962.917 21.196 960.817 21.196ZM961.573 18.06C963.953 18.06 965.493 16.352 965.493 13.86C965.493 11.368 963.953 9.63203 961.573 9.63203C959.193 9.63203 957.737 11.396 957.737 13.86C957.737 16.324 959.193 18.06 961.573 18.06ZM978.952 16.632H982.2C982.228 17.836 983.124 18.592 984.692 18.592C986.288 18.592 987.156 17.948 987.156 16.94C987.156 16.24 986.792 15.736 985.56 15.456L983.068 14.868C980.576 14.308 979.372 13.132 979.372 10.92C979.372 8.20403 981.668 6.58003 984.86 6.58003C987.968 6.58003 990.068 8.37203 990.096 11.06H986.848C986.82 9.88403 986.036 9.12803 984.72 9.12803C983.376 9.12803 982.592 9.74403 982.592 10.78C982.592 11.564 983.208 12.068 984.384 12.348L986.876 12.936C989.2 13.468 990.376 14.532 990.376 16.66C990.376 19.46 987.996 21.196 984.58 21.196C981.136 21.196 978.952 19.348 978.952 16.632ZM999.165 21.196C995.049 21.196 992.165 18.2 992.165 13.916C992.165 9.57603 994.993 6.58003 999.053 6.58003C1003.2 6.58003 1005.83 9.35203 1005.83 13.664V14.7L995.413 14.728C995.665 17.164 996.953 18.396 999.221 18.396C1001.1 18.396 1002.33 17.668 1002.72 16.352H1005.88C1005.3 19.376 1002.78 21.196 999.165 21.196ZM999.081 9.38003C997.065 9.38003 995.833 10.472 995.497 12.544H1002.44C1002.44 10.64 1001.12 9.38003 999.081 9.38003ZM1011.98 20.832H1008.56V7.00003H1011.73L1012.01 8.79203C1012.87 7.39203 1014.55 6.58003 1016.43 6.58003C1019.9 6.58003 1021.69 8.73603 1021.69 12.32V20.832H1018.28V13.132C1018.28 10.808 1017.13 9.68803 1015.37 9.68803C1013.27 9.68803 1011.98 11.144 1011.98 13.384V20.832ZM1030.74 21.196C1026.73 21.196 1024.24 18.256 1024.24 13.972C1024.24 9.66003 1026.76 6.58003 1030.93 6.58003C1032.86 6.58003 1034.57 7.39203 1035.44 8.76403V3.0756e-05H1038.83V20.832H1035.69L1035.47 18.676C1034.63 20.272 1032.84 21.196 1030.74 21.196ZM1031.49 18.06C1033.87 18.06 1035.41 16.352 1035.41 13.86C1035.41 11.368 1033.87 9.63203 1031.49 9.63203C1029.11 9.63203 1027.66 11.396 1027.66 13.86C1027.66 16.324 1029.11 18.06 1031.49 18.06ZM1044.1 4.22803C1042.92 4.22803 1042 3.30403 1042 2.15603C1042 1.00803 1042.92 0.112031 1044.1 0.112031C1045.22 0.112031 1046.14 1.00803 1046.14 2.15603C1046.14 3.30403 1045.22 4.22803 1044.1 4.22803ZM1042.39 20.832V7.00003H1045.8V20.832H1042.39ZM1052.75 20.832H1049.33V7.00003H1052.5L1052.78 8.79203C1053.64 7.39203 1055.32 6.58003 1057.2 6.58003C1060.67 6.58003 1062.46 8.73603 1062.46 12.32V20.832H1059.05V13.132C1059.05 10.808 1057.9 9.68803 1056.14 9.68803C1054.04 9.68803 1052.75 11.144 1052.75 13.384V20.832ZM1065.04 13.608C1065.04 9.57603 1067.67 6.55203 1071.62 6.55203C1073.69 6.55203 1075.31 7.42003 1076.12 8.90403L1076.32 7.00003H1079.48V20.132C1079.48 24.752 1076.71 27.636 1072.23 27.636C1068.26 27.636 1065.54 25.368 1065.12 21.672H1068.54C1068.76 23.464 1070.13 24.528 1072.23 24.528C1074.58 24.528 1076.1 23.044 1076.1 20.748V18.452C1075.23 19.74 1073.52 20.552 1071.53 20.552C1067.61 20.552 1065.04 17.612 1065.04 13.608ZM1068.48 13.524C1068.48 15.848 1069.96 17.584 1072.2 17.584C1074.56 17.584 1076.01 15.932 1076.01 13.524C1076.01 11.172 1074.58 9.54803 1072.2 9.54803C1069.94 9.54803 1068.48 11.256 1068.48 13.524ZM1089.75 13.888C1089.75 9.57603 1092.86 6.60803 1097.15 6.60803C1101.43 6.60803 1104.54 9.57603 1104.54 13.888C1104.54 18.2 1101.43 21.168 1097.15 21.168C1092.86 21.168 1089.75 18.2 1089.75 13.888ZM1093.17 13.888C1093.17 16.408 1094.79 18.116 1097.15 18.116C1099.5 18.116 1101.12 16.408 1101.12 13.888C1101.12 11.368 1099.5 9.66003 1097.15 9.66003C1094.79 9.66003 1093.17 11.368 1093.17 13.888ZM1115.93 6.94403V10.108H1114.67C1112.2 10.108 1110.66 11.424 1110.66 14.112V20.832H1107.25V7.02803H1110.47L1110.66 9.04403C1111.25 7.67203 1112.57 6.74803 1114.41 6.74803C1114.89 6.74803 1115.37 6.80403 1115.93 6.94403ZM1134.47 6.94403V10.108H1133.21C1130.74 10.108 1129.2 11.424 1129.2 14.112V20.832H1125.79V7.02803H1129.01L1129.2 9.04403C1129.79 7.67203 1131.11 6.74803 1132.95 6.74803C1133.43 6.74803 1133.91 6.80403 1134.47 6.94403ZM1142.5 21.196C1138.38 21.196 1135.5 18.2 1135.5 13.916C1135.5 9.57603 1138.33 6.58003 1142.39 6.58003C1146.53 6.58003 1149.16 9.35203 1149.16 13.664V14.7L1138.75 14.728C1139 17.164 1140.29 18.396 1142.56 18.396C1144.43 18.396 1145.66 17.668 1146.06 16.352H1149.22C1148.63 19.376 1146.11 21.196 1142.5 21.196ZM1142.42 9.38003C1140.4 9.38003 1139.17 10.472 1138.83 12.544H1145.78C1145.78 10.64 1144.46 9.38003 1142.42 9.38003ZM1151.09 13.888C1151.09 9.60403 1153.91 6.58003 1158 6.58003C1161.78 6.58003 1164.36 8.68003 1164.72 12.012H1161.31C1160.91 10.444 1159.77 9.63203 1158.14 9.63203C1155.96 9.63203 1154.5 11.284 1154.5 13.888C1154.5 16.492 1155.85 18.116 1158.03 18.116C1159.74 18.116 1160.94 17.276 1161.31 15.764H1164.75C1164.33 18.984 1161.64 21.196 1158.03 21.196C1153.83 21.196 1151.09 18.284 1151.09 13.888ZM1173.48 21.196C1169.37 21.196 1166.48 18.2 1166.48 13.916C1166.48 9.57603 1169.31 6.58003 1173.37 6.58003C1177.51 6.58003 1180.15 9.35203 1180.15 13.664V14.7L1169.73 14.728C1169.98 17.164 1171.27 18.396 1173.54 18.396C1175.41 18.396 1176.65 17.668 1177.04 16.352H1180.2C1179.61 19.376 1177.09 21.196 1173.48 21.196ZM1173.4 9.38003C1171.38 9.38003 1170.15 10.472 1169.81 12.544H1176.76C1176.76 10.64 1175.44 9.38003 1173.4 9.38003ZM1184.59 4.22803C1183.41 4.22803 1182.49 3.30403 1182.49 2.15603C1182.49 1.00803 1183.41 0.112031 1184.59 0.112031C1185.71 0.112031 1186.63 1.00803 1186.63 2.15603C1186.63 3.30403 1185.71 4.22803 1184.59 4.22803ZM1182.88 20.832V7.00003H1186.3V20.832H1182.88ZM1193.74 20.832L1188.26 7.00003H1191.9L1194.3 13.356C1194.89 15.008 1195.37 16.436 1195.54 17.192C1195.73 16.324 1196.24 14.868 1196.82 13.356L1199.34 7.00003H1202.87L1197.1 20.832H1193.74ZM1206.54 4.22803C1205.37 4.22803 1204.44 3.30403 1204.44 2.15603C1204.44 1.00803 1205.37 0.112031 1206.54 0.112031C1207.66 0.112031 1208.59 1.00803 1208.59 2.15603C1208.59 3.30403 1207.66 4.22803 1206.54 4.22803ZM1204.84 20.832V7.00003H1208.25V20.832H1204.84ZM1215.2 20.832H1211.78V7.00003H1214.95L1215.23 8.79203C1216.09 7.39203 1217.77 6.58003 1219.65 6.58003C1223.12 6.58003 1224.91 8.73603 1224.91 12.32V20.832H1221.5V13.132C1221.5 10.808 1220.35 9.68803 1218.59 9.68803C1216.49 9.68803 1215.2 11.144 1215.2 13.384V20.832ZM1227.49 13.608C1227.49 9.57603 1230.12 6.55203 1234.07 6.55203C1236.14 6.55203 1237.76 7.42003 1238.57 8.90403L1238.77 7.00003H1241.93V20.132C1241.93 24.752 1239.16 27.636 1234.68 27.636C1230.71 27.636 1227.99 25.368 1227.57 21.672H1230.99C1231.21 23.464 1232.58 24.528 1234.68 24.528C1237.03 24.528 1238.55 23.044 1238.55 20.748V18.452C1237.68 19.74 1235.97 20.552 1233.98 20.552C1230.06 20.552 1227.49 17.612 1227.49 13.608ZM1230.93 13.524C1230.93 15.848 1232.41 17.584 1234.65 17.584C1237.01 17.584 1238.46 15.932 1238.46 13.524C1238.46 11.172 1237.03 9.54803 1234.65 9.54803C1232.39 9.54803 1230.93 11.256 1230.93 13.524ZM1257.13 21.196C1254.19 21.196 1252.4 19.488 1252.4 16.884C1252.4 14.336 1254.25 12.74 1257.52 12.488L1261.67 12.18V11.872C1261.67 9.99603 1260.55 9.24003 1258.81 9.24003C1256.8 9.24003 1255.68 10.08 1255.68 11.536H1252.76C1252.76 8.54003 1255.23 6.58003 1258.98 6.58003C1262.7 6.58003 1265 8.59603 1265 12.432V20.832H1262L1261.75 18.788C1261.16 20.216 1259.29 21.196 1257.13 21.196ZM1258.25 18.62C1260.35 18.62 1261.7 17.36 1261.7 15.232V14.504L1258.81 14.728C1256.68 14.924 1255.87 15.624 1255.87 16.744C1255.87 18.004 1256.71 18.62 1258.25 18.62ZM1267.54 13.888C1267.54 9.60403 1270.37 6.58003 1274.46 6.58003C1278.24 6.58003 1280.82 8.68003 1281.18 12.012H1277.76C1277.37 10.444 1276.22 9.63203 1274.6 9.63203C1272.42 9.63203 1270.96 11.284 1270.96 13.888C1270.96 16.492 1272.3 18.116 1274.49 18.116C1276.2 18.116 1277.4 17.276 1277.76 15.764H1281.21C1280.79 18.984 1278.1 21.196 1274.49 21.196C1270.29 21.196 1267.54 18.284 1267.54 13.888ZM1288.45 20.832H1285.04V9.85603H1282.38V7.00003H1285.04V2.68803H1288.45V7.00003H1291.14V9.85603H1288.45V20.832ZM1294.97 4.22803C1293.8 4.22803 1292.87 3.30403 1292.87 2.15603C1292.87 1.00803 1293.8 0.112031 1294.97 0.112031C1296.09 0.112031 1297.02 1.00803 1297.02 2.15603C1297.02 3.30403 1296.09 4.22803 1294.97 4.22803ZM1293.27 20.832V7.00003H1296.68V20.832H1293.27ZM1299.4 13.888C1299.4 9.57603 1302.51 6.60803 1306.79 6.60803C1311.08 6.60803 1314.18 9.57603 1314.18 13.888C1314.18 18.2 1311.08 21.168 1306.79 21.168C1302.51 21.168 1299.4 18.2 1299.4 13.888ZM1302.82 13.888C1302.82 16.408 1304.44 18.116 1306.79 18.116C1309.14 18.116 1310.77 16.408 1310.77 13.888C1310.77 11.368 1309.14 9.66003 1306.79 9.66003C1304.44 9.66003 1302.82 11.368 1302.82 13.888ZM1320.31 20.832H1316.89V7.00003H1320.05L1320.33 8.79203C1321.2 7.39203 1322.88 6.58003 1324.76 6.58003C1328.23 6.58003 1330.02 8.73603 1330.02 12.32V20.832H1326.61V13.132C1326.61 10.808 1325.46 9.68803 1323.69 9.68803C1321.59 9.68803 1320.31 11.144 1320.31 13.384V20.832ZM1332.15 16.632H1335.4C1335.43 17.836 1336.32 18.592 1337.89 18.592C1339.49 18.592 1340.36 17.948 1340.36 16.94C1340.36 16.24 1339.99 15.736 1338.76 15.456L1336.27 14.868C1333.78 14.308 1332.57 13.132 1332.57 10.92C1332.57 8.20403 1334.87 6.58003 1338.06 6.58003C1341.17 6.58003 1343.27 8.37203 1343.3 11.06H1340.05C1340.02 9.88403 1339.24 9.12803 1337.92 9.12803C1336.58 9.12803 1335.79 9.74403 1335.79 10.78C1335.79 11.564 1336.41 12.068 1337.58 12.348L1340.08 12.936C1342.4 13.468 1343.58 14.532 1343.58 16.66C1343.58 19.46 1341.2 21.196 1337.78 21.196C1334.34 21.196 1332.15 19.348 1332.15 16.632ZM1363.1 7.00003H1366.52V20.832H1363.35L1363.1 18.984C1362.26 20.3 1360.47 21.196 1358.62 21.196C1355.43 21.196 1353.55 19.04 1353.55 15.652V7.00003H1356.97V14.448C1356.97 17.08 1358.01 18.144 1359.91 18.144C1362.07 18.144 1363.1 16.884 1363.1 14.252V7.00003ZM1368.71 16.632H1371.96C1371.99 17.836 1372.88 18.592 1374.45 18.592C1376.05 18.592 1376.91 17.948 1376.91 16.94C1376.91 16.24 1376.55 15.736 1375.32 15.456L1372.83 14.868C1370.33 14.308 1369.13 13.132 1369.13 10.92C1369.13 8.20403 1371.43 6.58003 1374.62 6.58003C1377.73 6.58003 1379.83 8.37203 1379.85 11.06H1376.61C1376.58 9.88403 1375.79 9.12803 1374.48 9.12803C1373.13 9.12803 1372.35 9.74403 1372.35 10.78C1372.35 11.564 1372.97 12.068 1374.14 12.348L1376.63 12.936C1378.96 13.468 1380.13 14.532 1380.13 16.66C1380.13 19.46 1377.75 21.196 1374.34 21.196C1370.89 21.196 1368.71 19.348 1368.71 16.632ZM1388.92 21.196C1384.81 21.196 1381.92 18.2 1381.92 13.916C1381.92 9.57603 1384.75 6.58003 1388.81 6.58003C1392.95 6.58003 1395.59 9.35203 1395.59 13.664V14.7L1385.17 14.728C1385.42 17.164 1386.71 18.396 1388.98 18.396C1390.85 18.396 1392.09 17.668 1392.48 16.352H1395.64C1395.05 19.376 1392.53 21.196 1388.92 21.196ZM1388.84 9.38003C1386.82 9.38003 1385.59 10.472 1385.25 12.544H1392.2C1392.2 10.64 1390.88 9.38003 1388.84 9.38003ZM1404 21.196C1400 21.196 1397.51 18.256 1397.51 13.972C1397.51 9.66003 1400.03 6.58003 1404.2 6.58003C1406.13 6.58003 1407.84 7.39203 1408.71 8.76403V3.0756e-05H1412.1V20.832H1408.96L1408.74 18.676C1407.9 20.272 1406.1 21.196 1404 21.196ZM1404.76 18.06C1407.14 18.06 1408.68 16.352 1408.68 13.86C1408.68 11.368 1407.14 9.63203 1404.76 9.63203C1402.38 9.63203 1400.92 11.396 1400.92 13.86C1400.92 16.324 1402.38 18.06 1404.76 18.06ZM1427.32 21.196C1424.38 21.196 1422.59 19.488 1422.59 16.884C1422.59 14.336 1424.44 12.74 1427.71 12.488L1431.86 12.18V11.872C1431.86 9.99603 1430.74 9.24003 1429 9.24003C1426.98 9.24003 1425.86 10.08 1425.86 11.536H1422.95C1422.95 8.54003 1425.42 6.58003 1429.17 6.58003C1432.89 6.58003 1435.19 8.59603 1435.19 12.432V20.832H1432.19L1431.94 18.788C1431.35 20.216 1429.48 21.196 1427.32 21.196ZM1428.44 18.62C1430.54 18.62 1431.88 17.36 1431.88 15.232V14.504L1429 14.728C1426.87 14.924 1426.06 15.624 1426.06 16.744C1426.06 18.004 1426.9 18.62 1428.44 18.62ZM1437.73 13.888C1437.73 9.60403 1440.56 6.58003 1444.65 6.58003C1448.43 6.58003 1451 8.68003 1451.37 12.012H1447.95C1447.56 10.444 1446.41 9.63203 1444.79 9.63203C1442.6 9.63203 1441.15 11.284 1441.15 13.888C1441.15 16.492 1442.49 18.116 1444.68 18.116C1446.38 18.116 1447.59 17.276 1447.95 15.764H1451.4C1450.98 18.984 1448.29 21.196 1444.68 21.196C1440.48 21.196 1437.73 18.284 1437.73 13.888ZM1462.62 6.94403V10.108H1461.36C1458.89 10.108 1457.35 11.424 1457.35 14.112V20.832H1453.94V7.02803H1457.16L1457.35 9.04403C1457.94 7.67203 1459.26 6.74803 1461.11 6.74803C1461.58 6.74803 1462.06 6.80403 1462.62 6.94403ZM1463.65 13.888C1463.65 9.57603 1466.76 6.60803 1471.05 6.60803C1475.33 6.60803 1478.44 9.57603 1478.44 13.888C1478.44 18.2 1475.33 21.168 1471.05 21.168C1466.76 21.168 1463.65 18.2 1463.65 13.888ZM1467.07 13.888C1467.07 16.408 1468.69 18.116 1471.05 18.116C1473.4 18.116 1475.02 16.408 1475.02 13.888C1475.02 11.368 1473.4 9.66003 1471.05 9.66003C1468.69 9.66003 1467.07 11.368 1467.07 13.888ZM1480.08 16.632H1483.33C1483.36 17.836 1484.25 18.592 1485.82 18.592C1487.42 18.592 1488.28 17.948 1488.28 16.94C1488.28 16.24 1487.92 15.736 1486.69 15.456L1484.2 14.868C1481.7 14.308 1480.5 13.132 1480.5 10.92C1480.5 8.20403 1482.8 6.58003 1485.99 6.58003C1489.1 6.58003 1491.2 8.37203 1491.22 11.06H1487.98C1487.95 9.88403 1487.16 9.12803 1485.85 9.12803C1484.5 9.12803 1483.72 9.74403 1483.72 10.78C1483.72 11.564 1484.34 12.068 1485.51 12.348L1488 12.936C1490.33 13.468 1491.5 14.532 1491.5 16.66C1491.5 19.46 1489.12 21.196 1485.71 21.196C1482.26 21.196 1480.08 19.348 1480.08 16.632ZM1493.04 16.632H1496.29C1496.32 17.836 1497.21 18.592 1498.78 18.592C1500.38 18.592 1501.25 17.948 1501.25 16.94C1501.25 16.24 1500.88 15.736 1499.65 15.456L1497.16 14.868C1494.67 14.308 1493.46 13.132 1493.46 10.92C1493.46 8.20403 1495.76 6.58003 1498.95 6.58003C1502.06 6.58003 1504.16 8.37203 1504.19 11.06H1500.94C1500.91 9.88403 1500.13 9.12803 1498.81 9.12803C1497.47 9.12803 1496.68 9.74403 1496.68 10.78C1496.68 11.564 1497.3 12.068 1498.47 12.348L1500.97 12.936C1503.29 13.468 1504.47 14.532 1504.47 16.66C1504.47 19.46 1502.09 21.196 1498.67 21.196C1495.23 21.196 1493.04 19.348 1493.04 16.632ZM1518.03 20.832H1514.61V7.00003H1517.75L1518.03 8.62403C1518.73 7.47603 1520.13 6.58003 1522.12 6.58003C1524.22 6.58003 1525.67 7.61603 1526.4 9.21203C1527.1 7.61603 1528.73 6.58003 1530.83 6.58003C1534.19 6.58003 1536.03 8.59603 1536.03 11.788V20.832H1532.65V12.684C1532.65 10.696 1531.58 9.66003 1529.96 9.66003C1528.31 9.66003 1527.05 10.724 1527.05 12.992V20.832H1523.63V12.656C1523.63 10.724 1522.59 9.68803 1520.97 9.68803C1519.35 9.68803 1518.03 10.752 1518.03 12.992V20.832ZM1545.58 21.196C1541.46 21.196 1538.58 18.2 1538.58 13.916C1538.58 9.57603 1541.4 6.58003 1545.46 6.58003C1549.61 6.58003 1552.24 9.35203 1552.24 13.664V14.7L1541.82 14.728C1542.08 17.164 1543.36 18.396 1545.63 18.396C1547.51 18.396 1548.74 17.668 1549.13 16.352H1552.3C1551.71 19.376 1549.19 21.196 1545.58 21.196ZM1545.49 9.38003C1543.48 9.38003 1542.24 10.472 1541.91 12.544H1548.85C1548.85 10.64 1547.54 9.38003 1545.49 9.38003ZM1553.91 16.632H1557.16C1557.18 17.836 1558.08 18.592 1559.65 18.592C1561.24 18.592 1562.11 17.948 1562.11 16.94C1562.11 16.24 1561.75 15.736 1560.52 15.456L1558.02 14.868C1555.53 14.308 1554.33 13.132 1554.33 10.92C1554.33 8.20403 1556.62 6.58003 1559.82 6.58003C1562.92 6.58003 1565.02 8.37203 1565.05 11.06H1561.8C1561.78 9.88403 1560.99 9.12803 1559.68 9.12803C1558.33 9.12803 1557.55 9.74403 1557.55 10.78C1557.55 11.564 1558.16 12.068 1559.34 12.348L1561.83 12.936C1564.16 13.468 1565.33 14.532 1565.33 16.66C1565.33 19.46 1562.95 21.196 1559.54 21.196C1556.09 21.196 1553.91 19.348 1553.91 16.632ZM1566.87 16.632H1570.12C1570.15 17.836 1571.04 18.592 1572.61 18.592C1574.21 18.592 1575.07 17.948 1575.07 16.94C1575.07 16.24 1574.71 15.736 1573.48 15.456L1570.99 14.868C1568.49 14.308 1567.29 13.132 1567.29 10.92C1567.29 8.20403 1569.59 6.58003 1572.78 6.58003C1575.89 6.58003 1577.99 8.37203 1578.01 11.06H1574.77C1574.74 9.88403 1573.95 9.12803 1572.64 9.12803C1571.29 9.12803 1570.51 9.74403 1570.51 10.78C1570.51 11.564 1571.13 12.068 1572.3 12.348L1574.79 12.936C1577.12 13.468 1578.29 14.532 1578.29 16.66C1578.29 19.46 1575.91 21.196 1572.5 21.196C1569.05 21.196 1566.87 19.348 1566.87 16.632ZM1585.01 21.196C1582.07 21.196 1580.28 19.488 1580.28 16.884C1580.28 14.336 1582.13 12.74 1585.4 12.488L1589.55 12.18V11.872C1589.55 9.99603 1588.43 9.24003 1586.69 9.24003C1584.67 9.24003 1583.55 10.08 1583.55 11.536H1580.64C1580.64 8.54003 1583.11 6.58003 1586.86 6.58003C1590.58 6.58003 1592.88 8.59603 1592.88 12.432V20.832H1589.88L1589.63 18.788C1589.04 20.216 1587.17 21.196 1585.01 21.196ZM1586.13 18.62C1588.23 18.62 1589.57 17.36 1589.57 15.232V14.504L1586.69 14.728C1584.56 14.924 1583.75 15.624 1583.75 16.744C1583.75 18.004 1584.59 18.62 1586.13 18.62ZM1595.45 13.608C1595.45 9.57603 1598.08 6.55203 1602.03 6.55203C1604.1 6.55203 1605.73 7.42003 1606.54 8.90403L1606.73 7.00003H1609.9V20.132C1609.9 24.752 1607.13 27.636 1602.65 27.636C1598.67 27.636 1595.95 25.368 1595.53 21.672H1598.95C1599.17 23.464 1600.55 24.528 1602.65 24.528C1605 24.528 1606.51 23.044 1606.51 20.748V18.452C1605.64 19.74 1603.93 20.552 1601.95 20.552C1598.03 20.552 1595.45 17.612 1595.45 13.608ZM1598.89 13.524C1598.89 15.848 1600.38 17.584 1602.62 17.584C1604.97 17.584 1606.43 15.932 1606.43 13.524C1606.43 11.172 1605 9.54803 1602.62 9.54803C1600.35 9.54803 1598.89 11.256 1598.89 13.524ZM1615.14 4.22803C1613.97 4.22803 1613.04 3.30403 1613.04 2.15603C1613.04 1.00803 1613.97 0.112031 1615.14 0.112031C1616.26 0.112031 1617.19 1.00803 1617.19 2.15603C1617.19 3.30403 1616.26 4.22803 1615.14 4.22803ZM1613.43 20.832V7.00003H1616.85V20.832H1613.43ZM1623.8 20.832H1620.38V7.00003H1623.54L1623.82 8.79203C1624.69 7.39203 1626.37 6.58003 1628.25 6.58003C1631.72 6.58003 1633.51 8.73603 1633.51 12.32V20.832H1630.1V13.132C1630.1 10.808 1628.95 9.68803 1627.18 9.68803C1625.08 9.68803 1623.8 11.144 1623.8 13.384V20.832ZM1636.08 13.608C1636.08 9.57603 1638.72 6.55203 1642.66 6.55203C1644.74 6.55203 1646.36 7.42003 1647.17 8.90403L1647.37 7.00003H1650.53V20.132C1650.53 24.752 1647.76 27.636 1643.28 27.636C1639.3 27.636 1636.59 25.368 1636.17 21.672H1639.58C1639.81 23.464 1641.18 24.528 1643.28 24.528C1645.63 24.528 1647.14 23.044 1647.14 20.748V18.452C1646.28 19.74 1644.57 20.552 1642.58 20.552C1638.66 20.552 1636.08 17.612 1636.08 13.608ZM1639.53 13.524C1639.53 15.848 1641.01 17.584 1643.25 17.584C1645.6 17.584 1647.06 15.932 1647.06 13.524C1647.06 11.172 1645.63 9.54803 1643.25 9.54803C1640.98 9.54803 1639.53 11.256 1639.53 13.524ZM1661.61 27.244V7.00003H1664.78L1665 9.10003C1665.84 7.50403 1667.66 6.58003 1669.76 6.58003C1673.65 6.58003 1676.23 9.40803 1676.23 13.748C1676.23 18.06 1673.88 21.196 1669.76 21.196C1667.69 21.196 1665.9 20.384 1665.03 18.984V27.244H1661.61ZM1665.06 13.916C1665.06 16.408 1666.6 18.116 1668.95 18.116C1671.36 18.116 1672.79 16.38 1672.79 13.916C1672.79 11.452 1671.36 9.68803 1668.95 9.68803C1666.6 9.68803 1665.06 11.424 1665.06 13.916ZM1682.39 20.832H1679.01V3.0756e-05H1682.39V20.832ZM1690.09 21.196C1687.15 21.196 1685.36 19.488 1685.36 16.884C1685.36 14.336 1687.21 12.74 1690.48 12.488L1694.63 12.18V11.872C1694.63 9.99603 1693.51 9.24003 1691.77 9.24003C1689.76 9.24003 1688.64 10.08 1688.64 11.536H1685.72C1685.72 8.54003 1688.19 6.58003 1691.94 6.58003C1695.66 6.58003 1697.96 8.59603 1697.96 12.432V20.832H1694.96L1694.71 18.788C1694.12 20.216 1692.25 21.196 1690.09 21.196ZM1691.21 18.62C1693.31 18.62 1694.66 17.36 1694.66 15.232V14.504L1691.77 14.728C1689.64 14.924 1688.83 15.624 1688.83 16.744C1688.83 18.004 1689.67 18.62 1691.21 18.62ZM1705.83 20.832H1702.41V9.85603H1699.75V7.00003H1702.41V2.68803H1705.83V7.00003H1708.52V9.85603H1705.83V20.832ZM1709.65 7.00003H1711.64V5.32003C1711.64 1.56803 1713.63 3.0756e-05 1716.62 3.0756e-05C1717.16 3.0756e-05 1717.8 0.0280304 1718.39 0.140031V3.05203H1717.18C1715.45 3.05203 1715.03 3.94803 1715.03 5.32003V7.00003H1718.33V9.85603H1715.03V20.832H1711.64V9.85603H1709.65V7.00003ZM1719.29 13.888C1719.29 9.57603 1722.4 6.60803 1726.68 6.60803C1730.97 6.60803 1734.07 9.57603 1734.07 13.888C1734.07 18.2 1730.97 21.168 1726.68 21.168C1722.4 21.168 1719.29 18.2 1719.29 13.888ZM1722.71 13.888C1722.71 16.408 1724.33 18.116 1726.68 18.116C1729.03 18.116 1730.66 16.408 1730.66 13.888C1730.66 11.368 1729.03 9.66003 1726.68 9.66003C1724.33 9.66003 1722.71 11.368 1722.71 13.888ZM1745.46 6.94403V10.108H1744.2C1741.74 10.108 1740.2 11.424 1740.2 14.112V20.832H1736.78V7.02803H1740L1740.2 9.04403C1740.79 7.67203 1742.1 6.74803 1743.95 6.74803C1744.43 6.74803 1744.9 6.80403 1745.46 6.94403ZM1751.19 20.832H1747.77V7.00003H1750.91L1751.19 8.62403C1751.89 7.47603 1753.29 6.58003 1755.28 6.58003C1757.38 6.58003 1758.83 7.61603 1759.56 9.21203C1760.26 7.61603 1761.89 6.58003 1763.99 6.58003C1767.35 6.58003 1769.19 8.59603 1769.19 11.788V20.832H1765.81V12.684C1765.81 10.696 1764.74 9.66003 1763.12 9.66003C1761.47 9.66003 1760.21 10.724 1760.21 12.992V20.832H1756.79V12.656C1756.79 10.724 1755.75 9.68803 1754.13 9.68803C1752.51 9.68803 1751.19 10.752 1751.19 12.992V20.832ZM1771.32 16.632H1774.57C1774.6 17.836 1775.49 18.592 1777.06 18.592C1778.66 18.592 1779.52 17.948 1779.52 16.94C1779.52 16.24 1779.16 15.736 1777.93 15.456L1775.44 14.868C1772.94 14.308 1771.74 13.132 1771.74 10.92C1771.74 8.20403 1774.04 6.58003 1777.23 6.58003C1780.34 6.58003 1782.44 8.37203 1782.46 11.06H1779.22C1779.19 9.88403 1778.4 9.12803 1777.09 9.12803C1775.74 9.12803 1774.96 9.74403 1774.96 10.78C1774.96 11.564 1775.58 12.068 1776.75 12.348L1779.24 12.936C1781.57 13.468 1782.74 14.532 1782.74 16.66C1782.74 19.46 1780.36 21.196 1776.95 21.196C1773.5 21.196 1771.32 19.348 1771.32 16.632ZM1789.83 19.6C1789.83 21.924 1788.15 23.772 1785.88 24.052V22.68C1787.14 22.456 1788.09 21.7 1788.09 20.72C1787.87 20.832 1787.61 20.888 1787.28 20.888C1786.19 20.888 1785.29 20.076 1785.29 18.956C1785.29 17.612 1786.16 16.716 1787.42 16.716C1788.82 16.716 1789.83 17.864 1789.83 19.6ZM1806.64 21.196C1802.64 21.196 1800.15 18.256 1800.15 13.972C1800.15 9.66003 1802.67 6.58003 1806.84 6.58003C1808.77 6.58003 1810.48 7.39203 1811.35 8.76403V3.0756e-05H1814.73V20.832H1811.6L1811.37 18.676C1810.53 20.272 1808.74 21.196 1806.64 21.196ZM1807.4 18.06C1809.78 18.06 1811.32 16.352 1811.32 13.86C1811.32 11.368 1809.78 9.63203 1807.4 9.63203C1805.02 9.63203 1803.56 11.396 1803.56 13.86C1803.56 16.324 1805.02 18.06 1807.4 18.06ZM1822.41 21.196C1819.47 21.196 1817.68 19.488 1817.68 16.884C1817.68 14.336 1819.53 12.74 1822.8 12.488L1826.95 12.18V11.872C1826.95 9.99603 1825.83 9.24003 1824.09 9.24003C1822.07 9.24003 1820.95 10.08 1820.95 11.536H1818.04C1818.04 8.54003 1820.51 6.58003 1824.26 6.58003C1827.98 6.58003 1830.28 8.59603 1830.28 12.432V20.832H1827.28L1827.03 18.788C1826.44 20.216 1824.57 21.196 1822.41 21.196ZM1823.53 18.62C1825.63 18.62 1826.97 17.36 1826.97 15.232V14.504L1824.09 14.728C1821.96 14.924 1821.15 15.624 1821.15 16.744C1821.15 18.004 1821.99 18.62 1823.53 18.62ZM1832.57 16.632H1835.82C1835.85 17.836 1836.74 18.592 1838.31 18.592C1839.91 18.592 1840.77 17.948 1840.77 16.94C1840.77 16.24 1840.41 15.736 1839.18 15.456L1836.69 14.868C1834.19 14.308 1832.99 13.132 1832.99 10.92C1832.99 8.20403 1835.29 6.58003 1838.48 6.58003C1841.59 6.58003 1843.69 8.37203 1843.71 11.06H1840.47C1840.44 9.88403 1839.65 9.12803 1838.34 9.12803C1836.99 9.12803 1836.21 9.74403 1836.21 10.78C1836.21 11.564 1836.83 12.068 1838 12.348L1840.49 12.936C1842.82 13.468 1843.99 14.532 1843.99 16.66C1843.99 19.46 1841.61 21.196 1838.2 21.196C1834.75 21.196 1832.57 19.348 1832.57 16.632ZM1850.01 20.832H1846.59V3.0756e-05H1850.04V8.79203C1850.91 7.44803 1852.53 6.58003 1854.52 6.58003C1857.93 6.58003 1859.73 8.73603 1859.73 12.32V20.832H1856.31V13.132C1856.31 10.808 1855.16 9.68803 1853.43 9.68803C1851.27 9.68803 1850.01 11.2 1850.01 13.272V20.832ZM1866.25 20.832H1863.08V3.0756e-05H1866.5V9.01603C1867.39 7.47603 1869.24 6.55203 1871.34 6.55203C1875.29 6.55203 1877.7 9.63203 1877.7 14C1877.7 18.256 1875.09 21.196 1871.12 21.196C1869.05 21.196 1867.28 20.272 1866.47 18.676L1866.25 20.832ZM1866.53 13.86C1866.53 16.352 1868.07 18.06 1870.42 18.06C1872.83 18.06 1874.25 16.324 1874.25 13.86C1874.25 11.396 1872.83 9.63203 1870.42 9.63203C1868.07 9.63203 1866.53 11.368 1866.53 13.86ZM1879.61 13.888C1879.61 9.57603 1882.71 6.60803 1887 6.60803C1891.28 6.60803 1894.39 9.57603 1894.39 13.888C1894.39 18.2 1891.28 21.168 1887 21.168C1882.71 21.168 1879.61 18.2 1879.61 13.888ZM1883.02 13.888C1883.02 16.408 1884.65 18.116 1887 18.116C1889.35 18.116 1890.97 16.408 1890.97 13.888C1890.97 11.368 1889.35 9.66003 1887 9.66003C1884.65 9.66003 1883.02 11.368 1883.02 13.888ZM1901.21 21.196C1898.27 21.196 1896.48 19.488 1896.48 16.884C1896.48 14.336 1898.33 12.74 1901.61 12.488L1905.75 12.18V11.872C1905.75 9.99603 1904.63 9.24003 1902.89 9.24003C1900.88 9.24003 1899.76 10.08 1899.76 11.536H1896.85C1896.85 8.54003 1899.31 6.58003 1903.06 6.58003C1906.79 6.58003 1909.08 8.59603 1909.08 12.432V20.832H1906.09L1905.83 18.788C1905.25 20.216 1903.37 21.196 1901.21 21.196ZM1902.33 18.62C1904.43 18.62 1905.78 17.36 1905.78 15.232V14.504L1902.89 14.728C1900.77 14.924 1899.95 15.624 1899.95 16.744C1899.95 18.004 1900.79 18.62 1902.33 18.62ZM1921.12 6.94403V10.108H1919.86C1917.39 10.108 1915.85 11.424 1915.85 14.112V20.832H1912.44V7.02803H1915.66L1915.85 9.04403C1916.44 7.67203 1917.76 6.74803 1919.61 6.74803C1920.08 6.74803 1920.56 6.80403 1921.12 6.94403ZM1928.65 21.196C1924.65 21.196 1922.15 18.256 1922.15 13.972C1922.15 9.66003 1924.67 6.58003 1928.85 6.58003C1930.78 6.58003 1932.49 7.39203 1933.35 8.76403V3.0756e-05H1936.74V20.832H1933.61L1933.38 18.676C1932.54 20.272 1930.75 21.196 1928.65 21.196ZM1929.41 18.06C1931.79 18.06 1933.33 16.352 1933.33 13.86C1933.33 11.368 1931.79 9.63203 1929.41 9.63203C1927.03 9.63203 1925.57 11.396 1925.57 13.86C1925.57 16.324 1927.03 18.06 1929.41 18.06ZM1939.24 16.632H1942.49C1942.51 17.836 1943.41 18.592 1944.98 18.592C1946.57 18.592 1947.44 17.948 1947.44 16.94C1947.44 16.24 1947.08 15.736 1945.85 15.456L1943.35 14.868C1940.86 14.308 1939.66 13.132 1939.66 10.92C1939.66 8.20403 1941.95 6.58003 1945.15 6.58003C1948.25 6.58003 1950.35 8.37203 1950.38 11.06H1947.13C1947.11 9.88403 1946.32 9.12803 1945.01 9.12803C1943.66 9.12803 1942.88 9.74403 1942.88 10.78C1942.88 11.564 1943.49 12.068 1944.67 12.348L1947.16 12.936C1949.49 13.468 1950.66 14.532 1950.66 16.66C1950.66 19.46 1948.28 21.196 1944.87 21.196C1941.42 21.196 1939.24 19.348 1939.24 16.632ZM1957.74 19.6C1957.74 21.924 1956.06 23.772 1953.8 24.052V22.68C1955.06 22.456 1956.01 21.7 1956.01 20.72C1955.78 20.832 1955.53 20.888 1955.2 20.888C1954.1 20.888 1953.21 20.076 1953.21 18.956C1953.21 17.612 1954.08 16.716 1955.34 16.716C1956.74 16.716 1957.74 17.864 1957.74 19.6ZM1972.99 21.196C1970.05 21.196 1968.26 19.488 1968.26 16.884C1968.26 14.336 1970.11 12.74 1973.38 12.488L1977.53 12.18V11.872C1977.53 9.99603 1976.41 9.24003 1974.67 9.24003C1972.66 9.24003 1971.54 10.08 1971.54 11.536H1968.62C1968.62 8.54003 1971.09 6.58003 1974.84 6.58003C1978.56 6.58003 1980.86 8.59603 1980.86 12.432V20.832H1977.86L1977.61 18.788C1977.02 20.216 1975.15 21.196 1972.99 21.196ZM1974.11 18.62C1976.21 18.62 1977.56 17.36 1977.56 15.232V14.504L1974.67 14.728C1972.54 14.924 1971.73 15.624 1971.73 16.744C1971.73 18.004 1972.57 18.62 1974.11 18.62ZM1987.63 20.832H1984.22V7.00003H1987.38L1987.66 8.79203C1988.53 7.39203 1990.21 6.58003 1992.08 6.58003C1995.56 6.58003 1997.35 8.73603 1997.35 12.32V20.832H1993.93V13.132C1993.93 10.808 1992.78 9.68803 1991.02 9.68803C1988.92 9.68803 1987.63 11.144 1987.63 13.384V20.832ZM2006.39 21.196C2002.38 21.196 1999.89 18.256 1999.89 13.972C1999.89 9.66003 2002.41 6.58003 2006.58 6.58003C2008.52 6.58003 2010.22 7.39203 2011.09 8.76403V3.0756e-05H2014.48V20.832H2011.34L2011.12 18.676C2010.28 20.272 2008.49 21.196 2006.39 21.196ZM2007.14 18.06C2009.52 18.06 2011.06 16.352 2011.06 13.86C2011.06 11.368 2009.52 9.63203 2007.14 9.63203C2004.76 9.63203 2003.31 11.396 2003.31 13.86C2003.31 16.324 2004.76 18.06 2007.14 18.06ZM2024.52 16.632H2027.77C2027.8 17.836 2028.69 18.592 2030.26 18.592C2031.86 18.592 2032.73 17.948 2032.73 16.94C2032.73 16.24 2032.36 15.736 2031.13 15.456L2028.64 14.868C2026.15 14.308 2024.94 13.132 2024.94 10.92C2024.94 8.20403 2027.24 6.58003 2030.43 6.58003C2033.54 6.58003 2035.64 8.37203 2035.67 11.06H2032.42C2032.39 9.88403 2031.61 9.12803 2030.29 9.12803C2028.95 9.12803 2028.16 9.74403 2028.16 10.78C2028.16 11.564 2028.78 12.068 2029.95 12.348L2032.45 12.936C2034.77 13.468 2035.95 14.532 2035.95 16.66C2035.95 19.46 2033.57 21.196 2030.15 21.196C2026.71 21.196 2024.52 19.348 2024.52 16.632ZM2047.93 7.00003H2051.34V20.832H2048.18L2047.93 18.984C2047.09 20.3 2045.3 21.196 2043.45 21.196C2040.26 21.196 2038.38 19.04 2038.38 15.652V7.00003H2041.8V14.448C2041.8 17.08 2042.83 18.144 2044.74 18.144C2046.89 18.144 2047.93 16.884 2047.93 14.252V7.00003ZM2054.87 27.244V7.00003H2058.04L2058.26 9.10003C2059.1 7.50403 2060.92 6.58003 2063.02 6.58003C2066.91 6.58003 2069.49 9.40803 2069.49 13.748C2069.49 18.06 2067.14 21.196 2063.02 21.196C2060.95 21.196 2059.16 20.384 2058.29 18.984V27.244H2054.87ZM2058.32 13.916C2058.32 16.408 2059.86 18.116 2062.21 18.116C2064.62 18.116 2066.04 16.38 2066.04 13.916C2066.04 11.452 2064.62 9.68803 2062.21 9.68803C2059.86 9.68803 2058.32 11.424 2058.32 13.916ZM2072.21 27.244V7.00003H2075.37L2075.6 9.10003C2076.44 7.50403 2078.26 6.58003 2080.36 6.58003C2084.25 6.58003 2086.82 9.40803 2086.82 13.748C2086.82 18.06 2084.47 21.196 2080.36 21.196C2078.28 21.196 2076.49 20.384 2075.62 18.984V27.244H2072.21ZM2075.65 13.916C2075.65 16.408 2077.19 18.116 2079.54 18.116C2081.95 18.116 2083.38 16.38 2083.38 13.916C2083.38 11.452 2081.95 9.68803 2079.54 9.68803C2077.19 9.68803 2075.65 11.424 2075.65 13.916ZM2088.73 13.888C2088.73 9.57603 2091.84 6.60803 2096.12 6.60803C2100.41 6.60803 2103.52 9.57603 2103.52 13.888C2103.52 18.2 2100.41 21.168 2096.12 21.168C2091.84 21.168 2088.73 18.2 2088.73 13.888ZM2092.15 13.888C2092.15 16.408 2093.77 18.116 2096.12 18.116C2098.48 18.116 2100.1 16.408 2100.1 13.888C2100.1 11.368 2098.48 9.66003 2096.12 9.66003C2093.77 9.66003 2092.15 11.368 2092.15 13.888ZM2114.9 6.94403V10.108H2113.64C2111.18 10.108 2109.64 11.424 2109.64 14.112V20.832H2106.22V7.02803H2109.44L2109.64 9.04403C2110.23 7.67203 2111.54 6.74803 2113.39 6.74803C2113.87 6.74803 2114.34 6.80403 2114.9 6.94403ZM2122.47 20.832H2119.05V9.85603H2116.39V7.00003H2119.05V2.68803H2122.47V7.00003H2125.15V9.85603H2122.47V20.832ZM2136.53 4.22803C2135.36 4.22803 2134.43 3.30403 2134.43 2.15603C2134.43 1.00803 2135.36 0.112031 2136.53 0.112031C2137.65 0.112031 2138.58 1.00803 2138.58 2.15603C2138.58 3.30403 2137.65 4.22803 2136.53 4.22803ZM2134.82 20.832V7.00003H2138.24V20.832H2134.82ZM2145.19 20.832H2141.77V7.00003H2144.93L2145.21 8.79203C2146.08 7.39203 2147.76 6.58003 2149.64 6.58003C2153.11 6.58003 2154.9 8.73603 2154.9 12.32V20.832H2151.49V13.132C2151.49 10.808 2150.34 9.68803 2148.57 9.68803C2146.47 9.68803 2145.19 11.144 2145.19 13.384V20.832ZM2162.96 20.832H2159.55V9.85603H2156.89V7.00003H2159.55V2.68803H2162.96V7.00003H2165.65V9.85603H2162.96V20.832ZM2173.83 21.196C2169.71 21.196 2166.83 18.2 2166.83 13.916C2166.83 9.57603 2169.65 6.58003 2173.71 6.58003C2177.86 6.58003 2180.49 9.35203 2180.49 13.664V14.7L2170.07 14.728C2170.33 17.164 2171.61 18.396 2173.88 18.396C2175.76 18.396 2176.99 17.668 2177.38 16.352H2180.55C2179.96 19.376 2177.44 21.196 2173.83 21.196ZM2173.74 9.38003C2171.73 9.38003 2170.49 10.472 2170.16 12.544H2177.1C2177.1 10.64 2175.79 9.38003 2173.74 9.38003ZM2191.9 6.94403V10.108H2190.64C2188.18 10.108 2186.64 11.424 2186.64 14.112V20.832H2183.22V7.02803H2186.44L2186.64 9.04403C2187.23 7.67203 2188.54 6.74803 2190.39 6.74803C2190.87 6.74803 2191.34 6.80403 2191.9 6.94403ZM2193.39 7.00003H2195.38V5.32003C2195.38 1.56803 2197.37 3.0756e-05 2200.36 3.0756e-05C2200.89 3.0756e-05 2201.54 0.0280304 2202.13 0.140031V3.05203H2200.92C2199.19 3.05203 2198.77 3.94803 2198.77 5.32003V7.00003H2202.07V9.85603H2198.77V20.832H2195.38V9.85603H2193.39V7.00003ZM2208.01 21.196C2205.07 21.196 2203.28 19.488 2203.28 16.884C2203.28 14.336 2205.13 12.74 2208.4 12.488L2212.55 12.18V11.872C2212.55 9.99603 2211.43 9.24003 2209.69 9.24003C2207.67 9.24003 2206.55 10.08 2206.55 11.536H2203.64C2203.64 8.54003 2206.11 6.58003 2209.86 6.58003C2213.58 6.58003 2215.88 8.59603 2215.88 12.432V20.832H2212.88L2212.63 18.788C2212.04 20.216 2210.17 21.196 2208.01 21.196ZM2209.13 18.62C2211.23 18.62 2212.57 17.36 2212.57 15.232V14.504L2209.69 14.728C2207.56 14.924 2206.75 15.624 2206.75 16.744C2206.75 18.004 2207.59 18.62 2209.13 18.62ZM2218.42 13.888C2218.42 9.60403 2221.25 6.58003 2225.34 6.58003C2229.12 6.58003 2231.69 8.68003 2232.06 12.012H2228.64C2228.25 10.444 2227.1 9.63203 2225.48 9.63203C2223.29 9.63203 2221.84 11.284 2221.84 13.888C2221.84 16.492 2223.18 18.116 2225.37 18.116C2227.07 18.116 2228.28 17.276 2228.64 15.764H2232.09C2231.67 18.984 2228.98 21.196 2225.37 21.196C2221.17 21.196 2218.42 18.284 2218.42 13.888ZM2240.82 21.196C2236.7 21.196 2233.82 18.2 2233.82 13.916C2233.82 9.57603 2236.65 6.58003 2240.71 6.58003C2244.85 6.58003 2247.48 9.35203 2247.48 13.664V14.7L2237.07 14.728C2237.32 17.164 2238.61 18.396 2240.87 18.396C2242.75 18.396 2243.98 17.668 2244.37 16.352H2247.54C2246.95 19.376 2244.43 21.196 2240.82 21.196ZM2240.73 9.38003C2238.72 9.38003 2237.49 10.472 2237.15 12.544H2244.09C2244.09 10.64 2242.78 9.38003 2240.73 9.38003ZM2249.15 16.632H2252.4C2252.43 17.836 2253.32 18.592 2254.89 18.592C2256.49 18.592 2257.36 17.948 2257.36 16.94C2257.36 16.24 2256.99 15.736 2255.76 15.456L2253.27 14.868C2250.78 14.308 2249.57 13.132 2249.57 10.92C2249.57 8.20403 2251.87 6.58003 2255.06 6.58003C2258.17 6.58003 2260.27 8.37203 2260.3 11.06H2257.05C2257.02 9.88403 2256.24 9.12803 2254.92 9.12803C2253.58 9.12803 2252.79 9.74403 2252.79 10.78C2252.79 11.564 2253.41 12.068 2254.58 12.348L2257.08 12.936C2259.4 13.468 2260.58 14.532 2260.58 16.66C2260.58 19.46 2258.2 21.196 2254.78 21.196C2251.34 21.196 2249.15 19.348 2249.15 16.632ZM2265.39 21.168C2264.16 21.168 2263.12 20.16 2263.12 18.956C2263.12 17.724 2264.16 16.716 2265.39 16.716C2266.62 16.716 2267.66 17.724 2267.66 18.956C2267.66 20.16 2266.62 21.168 2265.39 21.168Z" fill="black"/>
</svg>
