<svg width="535" height="65" viewBox="0 0 535 65" fill="none" xmlns="http://www.w3.org/2000/svg">
<path d="M30.0798 48.2561H-0.000222206V0.896103H30.0798V10.4961H10.3678V19.7761H27.8398V28.8641H10.3678V38.6561H30.0798V48.2561ZM47.5223 48.2561H37.6663V16.2561H46.8823L47.5223 19.5841C49.1223 17.3441 52.2583 15.2321 56.8663 15.2321C61.6663 15.2321 64.7383 17.4721 66.5943 20.8641C68.2583 17.4721 72.0343 15.2321 76.6423 15.2321C84.8983 15.2321 88.9943 20.0321 88.9943 27.3281V48.2561H79.1383V30.0801C79.1383 26.0481 77.0263 24.1281 73.8903 24.1281C71.0743 24.1281 68.2583 25.6641 68.2583 31.1041V48.2561H58.4023V30.0801C58.4023 26.1121 56.3543 24.1921 53.2183 24.1921C50.4023 24.1921 47.5223 25.7281 47.5223 31.1041V48.2561ZM106.025 49.0881C99.2413 49.0881 95.0173 45.1201 95.0173 38.8481C95.0173 32.9601 99.1773 29.3121 106.857 28.7361L115.817 28.0321V27.5201C115.817 24.3841 113.897 22.7201 110.377 22.7201C106.217 22.7201 103.977 24.3201 103.977 27.2001H95.7853C95.7853 19.9681 101.737 15.2321 110.889 15.2321C120.169 15.2321 125.417 20.4161 125.417 29.5681V48.2561H116.713L116.073 44.0321C115.049 46.9761 110.825 49.0881 106.025 49.0881ZM109.481 41.7921C113.257 41.7921 115.881 39.9361 115.881 36.2881V34.5601L110.889 35.0081C106.601 35.3921 105.065 36.3521 105.065 38.4001C105.065 40.7041 106.473 41.7921 109.481 41.7921ZM137.67 11.2641C134.534 11.2641 132.038 8.7681 132.038 5.6321C132.038 2.4961 134.534 0.0641022 137.67 0.0641022C140.742 0.0641022 143.238 2.4961 143.238 5.6321C143.238 8.7681 140.742 11.2641 137.67 11.2641ZM132.806 48.2561V16.2561H142.662V48.2561H132.806ZM160.232 48.2561H150.376V0.000102997H160.232V48.2561ZM165.642 38.1441H174.986C175.114 40.3841 176.778 41.7281 179.786 41.7281C182.858 41.7281 184.266 40.6401 184.266 38.9761C184.266 38.0161 183.754 36.9921 181.386 36.4801L175.498 35.2001C169.61 33.9201 166.73 31.3601 166.73 25.7281C166.73 19.0721 172.426 15.2321 180.106 15.2321C187.53 15.2321 192.714 19.5841 192.714 26.0481H183.37C183.37 23.8721 182.026 22.4001 179.658 22.4001C177.418 22.4001 176.01 23.5521 176.01 25.2801C176.01 26.7521 177.226 27.5841 179.466 28.0961L185.418 29.3761C190.666 30.5281 193.546 32.9601 193.546 38.0801C193.546 44.9281 187.722 49.0881 179.402 49.0881C170.954 49.0881 165.642 44.6081 165.642 38.1441ZM211.048 44.9921C211.048 51.1361 206.76 55.8721 200.744 56.5121V52.9921C203.944 52.4161 206.248 50.6881 206.44 48.0641C205.928 48.3201 205.288 48.4481 204.584 48.4481C201.576 48.4481 199.272 46.2081 199.272 43.3921C199.272 39.8721 201.448 37.5041 204.776 37.5041C208.488 37.5041 211.048 40.5761 211.048 44.9921ZM247.545 48.2561H237.497V0.896103H247.545L261.625 36.2241L275.769 0.896103H285.945V48.2561H275.897V38.3361C275.897 28.0961 275.897 25.8561 276.409 22.3361L266.361 48.2561H256.889L246.905 22.3361C247.481 25.8561 247.545 29.8241 247.545 35.0081V48.2561ZM309.762 49.0881C300.098 49.0881 293.186 42.0481 293.186 32.1921C293.186 22.2081 299.906 15.2321 309.57 15.2321C319.618 15.2321 325.89 21.8241 325.89 32.2561V34.7521L302.658 34.8801C303.234 39.1041 305.602 41.0881 309.954 41.0881C313.666 41.0881 316.29 39.7441 316.994 37.4401H326.018C324.866 44.5441 318.53 49.0881 309.762 49.0881ZM309.634 23.2321C305.73 23.2321 303.554 24.9601 302.786 28.8001H316.098C316.098 25.4081 313.602 23.2321 309.634 23.2321ZM329.742 38.1441H339.086C339.214 40.3841 340.878 41.7281 343.886 41.7281C346.958 41.7281 348.366 40.6401 348.366 38.9761C348.366 38.0161 347.854 36.9921 345.486 36.4801L339.598 35.2001C333.71 33.9201 330.83 31.3601 330.83 25.7281C330.83 19.0721 336.526 15.2321 344.206 15.2321C351.63 15.2321 356.814 19.5841 356.814 26.0481H347.47C347.47 23.8721 346.126 22.4001 343.758 22.4001C341.518 22.4001 340.11 23.5521 340.11 25.2801C340.11 26.7521 341.326 27.5841 343.566 28.0961L349.518 29.3761C354.766 30.5281 357.646 32.9601 357.646 38.0801C357.646 44.9281 351.822 49.0881 343.502 49.0881C335.054 49.0881 329.742 44.6081 329.742 38.1441ZM360.812 38.1441H370.156C370.284 40.3841 371.948 41.7281 374.956 41.7281C378.028 41.7281 379.436 40.6401 379.436 38.9761C379.436 38.0161 378.924 36.9921 376.556 36.4801L370.668 35.2001C364.78 33.9201 361.9 31.3601 361.9 25.7281C361.9 19.0721 367.596 15.2321 375.276 15.2321C382.7 15.2321 387.884 19.5841 387.884 26.0481H378.54C378.54 23.8721 377.196 22.4001 374.828 22.4001C372.588 22.4001 371.18 23.5521 371.18 25.2801C371.18 26.7521 372.396 27.5841 374.636 28.0961L380.588 29.3761C385.836 30.5281 388.716 32.9601 388.716 38.0801C388.716 44.9281 382.892 49.0881 374.572 49.0881C366.124 49.0881 360.812 44.6081 360.812 38.1441ZM403.85 49.0881C397.066 49.0881 392.842 45.1201 392.842 38.8481C392.842 32.9601 397.002 29.3121 404.682 28.7361L413.642 28.0321V27.5201C413.642 24.3841 411.722 22.7201 408.202 22.7201C404.042 22.7201 401.802 24.3201 401.802 27.2001H393.61C393.61 19.9681 399.562 15.2321 408.714 15.2321C417.994 15.2321 423.242 20.4161 423.242 29.5681V48.2561H414.538L413.898 44.0321C412.874 46.9761 408.65 49.0881 403.85 49.0881ZM407.306 41.7921C411.082 41.7921 413.706 39.9361 413.706 36.2881V34.5601L408.714 35.0081C404.426 35.3921 402.89 36.3521 402.89 38.4001C402.89 40.7041 404.298 41.7921 407.306 41.7921ZM429.031 31.6801C429.031 21.9521 435.367 15.1681 444.391 15.1681C448.743 15.1681 452.199 16.8321 453.927 19.4561L454.439 16.2561H463.719V46.2081C463.719 57.6641 457.127 64.5761 446.183 64.5761C436.391 64.5761 429.799 59.0081 428.903 49.9201H438.887C439.079 53.5041 441.767 55.6161 446.119 55.6161C450.855 55.6161 453.863 52.8001 453.863 48.2561V44.0961C451.943 46.4001 448.359 47.8721 444.199 47.8721C435.239 47.8721 429.031 41.2801 429.031 31.6801ZM438.951 31.4241C438.951 36.0321 442.023 39.2961 446.375 39.2961C450.855 39.2961 453.863 36.1601 453.863 31.4241C453.863 26.7521 450.855 23.7441 446.311 23.7441C441.959 23.7441 438.951 26.8801 438.951 31.4241ZM486.299 49.0881C476.635 49.0881 469.723 42.0481 469.723 32.1921C469.723 22.2081 476.443 15.2321 486.107 15.2321C496.155 15.2321 502.427 21.8241 502.427 32.2561V34.7521L479.195 34.8801C479.771 39.1041 482.139 41.0881 486.491 41.0881C490.203 41.0881 492.827 39.7441 493.531 37.4401H502.555C501.403 44.5441 495.067 49.0881 486.299 49.0881ZM486.171 23.2321C482.267 23.2321 480.091 24.9601 479.323 28.8001H492.635C492.635 25.4081 490.139 23.2321 486.171 23.2321ZM506.28 38.1441H515.624C515.752 40.3841 517.416 41.7281 520.424 41.7281C523.496 41.7281 524.904 40.6401 524.904 38.9761C524.904 38.0161 524.392 36.9921 522.024 36.4801L516.136 35.2001C510.248 33.9201 507.368 31.3601 507.368 25.7281C507.368 19.0721 513.064 15.2321 520.744 15.2321C528.168 15.2321 533.352 19.5841 533.352 26.0481H524.008C524.008 23.8721 522.664 22.4001 520.296 22.4001C518.056 22.4001 516.648 23.5521 516.648 25.2801C516.648 26.7521 517.864 27.5841 520.104 28.0961L526.056 29.3761C531.304 30.5281 534.184 32.9601 534.184 38.0801C534.184 44.9281 528.36 49.0881 520.04 49.0881C511.592 49.0881 506.28 44.6081 506.28 38.1441Z" fill="black"/>
</svg>
