<svg width="102" height="24" viewBox="0 0 102 24" fill="none" xmlns="http://www.w3.org/2000/svg">
<path d="M19.3598 4.63984L5.8298 18.1698L4.7298 17.3498C4.0798 16.8598 3.5498 15.7998 3.5498 14.9798V6.88984C3.5498 5.75984 4.4098 4.51984 5.4598 4.11984L10.9598 2.05984C11.5298 1.84984 12.4698 1.84984 13.0398 2.05984L18.5398 4.11984C18.8298 4.22984 19.1098 4.40984 19.3598 4.63984Z" fill="#1A1A1A"/>
<path d="M20.45 14.9798C20.45 15.7998 19.92 16.8598 19.27 17.3498L13.77 21.4598C12.79 22.1798 11.21 22.1798 10.23 21.4598L8.46999 20.1498C7.97999 19.7898 7.92999 19.0698 8.35999 18.6398L18.74 8.25983C19.37 7.62983 20.45 8.07983 20.45 8.96983V14.9798Z" fill="#1A1A1A"/>
<path d="M21.7699 2.22988C21.4699 1.92988 20.9799 1.92988 20.6799 2.22988L2.22988 20.6899C1.92988 20.9899 1.92988 21.4799 2.22988 21.7799C2.37988 21.9199 2.56988 21.9999 2.76988 21.9999C2.96988 21.9999 3.15988 21.9199 3.30988 21.7699L21.7699 3.30988C22.0799 3.00988 22.0799 2.52988 21.7699 2.22988Z" fill="#1A1A1A"/>
<path d="M34.468 10.676C34.468 9.14 35.74 8.072 37.588 8.072C39.364 8.072 40.492 9.056 40.54 10.64H39.004C38.968 9.884 38.428 9.44 37.564 9.44C36.616 9.44 36.004 9.896 36.004 10.628C36.004 11.252 36.34 11.6 37.072 11.768L38.452 12.068C39.952 12.392 40.684 13.16 40.684 14.468C40.684 16.1 39.412 17.156 37.48 17.156C35.608 17.156 34.384 16.16 34.348 14.588H35.884C35.896 15.332 36.496 15.776 37.48 15.776C38.5 15.776 39.148 15.332 39.148 14.6C39.148 14.012 38.848 13.664 38.128 13.508L36.736 13.196C35.248 12.872 34.468 12.02 34.468 10.676ZM43.3216 17H41.8576V8.072H43.3336V11.84C43.7056 11.264 44.4016 10.892 45.2536 10.892C46.7176 10.892 47.4856 11.816 47.4856 13.352V17H46.0216V13.7C46.0216 12.704 45.5296 12.224 44.7856 12.224C43.8616 12.224 43.3216 12.872 43.3216 13.76V17ZM49.656 9.884C49.152 9.884 48.756 9.488 48.756 8.996C48.756 8.504 49.152 8.12 49.656 8.12C50.136 8.12 50.532 8.504 50.532 8.996C50.532 9.488 50.136 9.884 49.656 9.884ZM48.924 17V11.072H50.388V17H48.924ZM54.5525 17.156C52.7885 17.156 51.5525 15.872 51.5525 14.036C51.5525 12.176 52.7645 10.892 54.5045 10.892C56.2805 10.892 57.4085 12.08 57.4085 13.928V14.372L52.9445 14.384C53.0525 15.428 53.6045 15.956 54.5765 15.956C55.3805 15.956 55.9085 15.644 56.0765 15.08H57.4325C57.1805 16.376 56.1005 17.156 54.5525 17.156ZM54.5165 12.092C53.6525 12.092 53.1245 12.56 52.9805 13.448H55.9565C55.9565 12.632 55.3925 12.092 54.5165 12.092ZM60.0562 17H58.6042V8.072H60.0562V17ZM64.0279 17.156C62.3119 17.156 61.2439 15.896 61.2439 14.06C61.2439 12.212 62.3239 10.892 64.1119 10.892C64.9399 10.892 65.6719 11.24 66.0439 11.828V8.072H67.4959V17H66.1519L66.0559 16.076C65.6959 16.76 64.9279 17.156 64.0279 17.156ZM64.3519 15.812C65.3719 15.812 66.0319 15.08 66.0319 14.012C66.0319 12.944 65.3719 12.2 64.3519 12.2C63.3319 12.2 62.7079 12.956 62.7079 14.012C62.7079 15.068 63.3319 15.812 64.3519 15.812ZM69.0096 14.444V13.148H72.8736V14.444H69.0096ZM73.8273 15.2H75.2193C75.2313 15.716 75.6153 16.04 76.2873 16.04C76.9713 16.04 77.3433 15.764 77.3433 15.332C77.3433 15.032 77.1873 14.816 76.6593 14.696L75.5913 14.444C74.5233 14.204 74.0073 13.7 74.0073 12.752C74.0073 11.588 74.9913 10.892 76.3593 10.892C77.6913 10.892 78.5913 11.66 78.6033 12.812H77.2113C77.1993 12.308 76.8633 11.984 76.2993 11.984C75.7233 11.984 75.3873 12.248 75.3873 12.692C75.3873 13.028 75.6513 13.244 76.1553 13.364L77.2233 13.616C78.2193 13.844 78.7233 14.3 78.7233 15.212C78.7233 16.412 77.7033 17.156 76.2393 17.156C74.7633 17.156 73.8273 16.364 73.8273 15.2ZM81.314 17H79.862V8.072H81.314V17ZM84.6138 17.156C83.3538 17.156 82.5858 16.424 82.5858 15.308C82.5858 14.216 83.3778 13.532 84.7818 13.424L86.5578 13.292V13.16C86.5578 12.356 86.0778 12.032 85.3338 12.032C84.4698 12.032 83.9898 12.392 83.9898 13.016H82.7418C82.7418 11.732 83.7978 10.892 85.4058 10.892C87.0018 10.892 87.9858 11.756 87.9858 13.4V17H86.7018L86.5938 16.124C86.3418 16.736 85.5378 17.156 84.6138 17.156ZM85.0938 16.052C85.9938 16.052 86.5698 15.512 86.5698 14.6V14.288L85.3338 14.384C84.4218 14.468 84.0738 14.768 84.0738 15.248C84.0738 15.788 84.4338 16.052 85.0938 16.052ZM88.968 15.2H90.36C90.372 15.716 90.756 16.04 91.428 16.04C92.112 16.04 92.484 15.764 92.484 15.332C92.484 15.032 92.328 14.816 91.8 14.696L90.732 14.444C89.664 14.204 89.148 13.7 89.148 12.752C89.148 11.588 90.132 10.892 91.5 10.892C92.832 10.892 93.732 11.66 93.744 12.812H92.352C92.34 12.308 92.004 11.984 91.44 11.984C90.864 11.984 90.528 12.248 90.528 12.692C90.528 13.028 90.792 13.244 91.296 13.364L92.364 13.616C93.36 13.844 93.864 14.3 93.864 15.212C93.864 16.412 92.844 17.156 91.38 17.156C89.904 17.156 88.968 16.364 88.968 15.2ZM96.4427 17H94.9787V8.072H96.4547V11.84C96.8267 11.264 97.5227 10.892 98.3747 10.892C99.8387 10.892 100.607 11.816 100.607 13.352V17H99.1427V13.7C99.1427 12.704 98.6507 12.224 97.9067 12.224C96.9827 12.224 96.4427 12.872 96.4427 13.76V17Z" fill="black"/>
</svg>
