<svg width="122" height="24" viewBox="0 0 122 24" fill="none" xmlns="http://www.w3.org/2000/svg">
<path d="M16 2H8C4 2 2 4 2 8V21C2 21.55 2.45 22 3 22H16C20 22 22 20 22 16V8C22 4 20 2 16 2ZM15.5 12.75H8.5C8.09 12.75 7.75 12.41 7.75 12C7.75 11.59 8.09 11.25 8.5 11.25H15.5C15.91 11.25 16.25 11.59 16.25 12C16.25 12.41 15.91 12.75 15.5 12.75Z" fill="#1A1A1A"/>
<path d="M36.46 17H34.972V8.228H36.46L39.292 15.212L42.124 8.228H43.636V17H42.148V14.3C42.148 12.536 42.148 12.02 42.232 11.396L40 17H38.584L36.364 11.408C36.448 11.936 36.46 12.764 36.46 13.856V17ZM48.0135 17.156C46.2495 17.156 45.0135 15.872 45.0135 14.036C45.0135 12.176 46.2255 10.892 47.9655 10.892C49.7415 10.892 50.8695 12.08 50.8695 13.928V14.372L46.4055 14.384C46.5135 15.428 47.0655 15.956 48.0375 15.956C48.8415 15.956 49.3695 15.644 49.5375 15.08H50.8935C50.6415 16.376 49.5615 17.156 48.0135 17.156ZM47.9775 12.092C47.1135 12.092 46.5855 12.56 46.4415 13.448H49.4175C49.4175 12.632 48.8535 12.092 47.9775 12.092ZM51.5852 15.2H52.9772C52.9892 15.716 53.3732 16.04 54.0452 16.04C54.7292 16.04 55.1012 15.764 55.1012 15.332C55.1012 15.032 54.9452 14.816 54.4172 14.696L53.3492 14.444C52.2812 14.204 51.7652 13.7 51.7652 12.752C51.7652 11.588 52.7492 10.892 54.1172 10.892C55.4492 10.892 56.3492 11.66 56.3612 12.812H54.9692C54.9572 12.308 54.6212 11.984 54.0572 11.984C53.4812 11.984 53.1452 12.248 53.1452 12.692C53.1452 13.028 53.4092 13.244 53.9132 13.364L54.9812 13.616C55.9772 13.844 56.4812 14.3 56.4812 15.212C56.4812 16.412 55.4612 17.156 53.9972 17.156C52.5212 17.156 51.5852 16.364 51.5852 15.2ZM57.1398 15.2H58.5318C58.5438 15.716 58.9278 16.04 59.5998 16.04C60.2838 16.04 60.6558 15.764 60.6558 15.332C60.6558 15.032 60.4998 14.816 59.9718 14.696L58.9038 14.444C57.8358 14.204 57.3198 13.7 57.3198 12.752C57.3198 11.588 58.3038 10.892 59.6718 10.892C61.0038 10.892 61.9038 11.66 61.9158 12.812H60.5238C60.5118 12.308 60.1758 11.984 59.6118 11.984C59.0358 11.984 58.6998 12.248 58.6998 12.692C58.6998 13.028 58.9638 13.244 59.4678 13.364L60.5358 13.616C61.5318 13.844 62.0358 14.3 62.0358 15.212C62.0358 16.412 61.0158 17.156 59.5518 17.156C58.0758 17.156 57.1398 16.364 57.1398 15.2ZM64.9145 17.156C63.6545 17.156 62.8865 16.424 62.8865 15.308C62.8865 14.216 63.6785 13.532 65.0825 13.424L66.8585 13.292V13.16C66.8585 12.356 66.3785 12.032 65.6345 12.032C64.7705 12.032 64.2905 12.392 64.2905 13.016H63.0425C63.0425 11.732 64.0985 10.892 65.7065 10.892C67.3025 10.892 68.2865 11.756 68.2865 13.4V17H67.0025L66.8945 16.124C66.6425 16.736 65.8385 17.156 64.9145 17.156ZM65.3945 16.052C66.2945 16.052 66.8705 15.512 66.8705 14.6V14.288L65.6345 14.384C64.7225 14.468 64.3745 14.768 64.3745 15.248C64.3745 15.788 64.7345 16.052 65.3945 16.052ZM69.3888 13.904C69.3888 12.176 70.5168 10.88 72.2088 10.88C73.0968 10.88 73.7928 11.252 74.1408 11.888L74.2248 11.072H75.5807V16.7C75.5807 18.68 74.3928 19.916 72.4728 19.916C70.7688 19.916 69.6048 18.944 69.4248 17.36H70.8888C70.9848 18.128 71.5728 18.584 72.4728 18.584C73.4808 18.584 74.1288 17.948 74.1288 16.964V15.98C73.7568 16.532 73.0248 16.88 72.1728 16.88C70.4928 16.88 69.3888 15.62 69.3888 13.904ZM70.8648 13.868C70.8648 14.864 71.5008 15.608 72.4608 15.608C73.4688 15.608 74.0928 14.9 74.0928 13.868C74.0928 12.86 73.4808 12.164 72.4608 12.164C71.4888 12.164 70.8648 12.896 70.8648 13.868ZM79.7478 17.156C77.9838 17.156 76.7478 15.872 76.7478 14.036C76.7478 12.176 77.9598 10.892 79.6998 10.892C81.4758 10.892 82.6038 12.08 82.6038 13.928V14.372L78.1398 14.384C78.2478 15.428 78.7998 15.956 79.7718 15.956C80.5758 15.956 81.1038 15.644 81.2718 15.08H82.6278C82.3758 16.376 81.2958 17.156 79.7478 17.156ZM79.7118 12.092C78.8478 12.092 78.3198 12.56 78.1758 13.448H81.1518C81.1518 12.632 80.5878 12.092 79.7118 12.092ZM83.7635 14.444V13.148H87.6275V14.444H83.7635ZM90.5833 17H89.1193V11.072H90.4633L90.5833 11.768C90.8833 11.276 91.4833 10.892 92.3353 10.892C93.2353 10.892 93.8593 11.336 94.1713 12.02C94.4713 11.336 95.1673 10.892 96.0673 10.892C97.5073 10.892 98.2993 11.756 98.2993 13.124V17H96.8473V13.508C96.8473 12.656 96.3913 12.212 95.6953 12.212C94.9873 12.212 94.4473 12.668 94.4473 13.64V17H92.9833V13.496C92.9833 12.668 92.5393 12.224 91.8433 12.224C91.1473 12.224 90.5833 12.68 90.5833 13.64V17ZM100.468 9.884C99.9645 9.884 99.5685 9.488 99.5685 8.996C99.5685 8.504 99.9645 8.12 100.468 8.12C100.948 8.12 101.344 8.504 101.344 8.996C101.344 9.488 100.948 9.884 100.468 9.884ZM99.7365 17V11.072H101.2V17H99.7365ZM104.177 17H102.713V11.072H104.069L104.189 11.84C104.561 11.24 105.281 10.892 106.085 10.892C107.573 10.892 108.341 11.816 108.341 13.352V17H106.877V13.7C106.877 12.704 106.385 12.224 105.629 12.224C104.729 12.224 104.177 12.848 104.177 13.808V17ZM113.799 11.072H115.263V17H113.907L113.799 16.208C113.439 16.772 112.671 17.156 111.879 17.156C110.511 17.156 109.707 16.232 109.707 14.78V11.072H111.171V14.264C111.171 15.392 111.615 15.848 112.431 15.848C113.355 15.848 113.799 15.308 113.799 14.18V11.072ZM116.202 15.2H117.594C117.606 15.716 117.99 16.04 118.662 16.04C119.346 16.04 119.718 15.764 119.718 15.332C119.718 15.032 119.562 14.816 119.034 14.696L117.966 14.444C116.898 14.204 116.382 13.7 116.382 12.752C116.382 11.588 117.366 10.892 118.734 10.892C120.066 10.892 120.966 11.66 120.978 12.812H119.586C119.574 12.308 119.238 11.984 118.674 11.984C118.098 11.984 117.762 12.248 117.762 12.692C117.762 13.028 118.026 13.244 118.53 13.364L119.598 13.616C120.594 13.844 121.098 14.3 121.098 15.212C121.098 16.412 120.078 17.156 118.614 17.156C117.138 17.156 116.202 16.364 116.202 15.2Z" fill="black"/>
</svg>
