<svg width="154" height="24" viewBox="0 0 154 24" fill="none" xmlns="http://www.w3.org/2000/svg">
<path d="M2 11.46V16.46C2 18.75 3.85 20.6 6.14 20.6H17.85C20.14 20.6 22 18.74 22 16.45V11.46C22 10.79 21.46 10.25 20.79 10.25H3.21C2.54 10.25 2 10.79 2 11.46ZM8 17.25H6C5.59 17.25 5.25 16.91 5.25 16.5C5.25 16.09 5.59 15.75 6 15.75H8C8.41 15.75 8.75 16.09 8.75 16.5C8.75 16.91 8.41 17.25 8 17.25ZM14.5 17.25H10.5C10.09 17.25 9.75 16.91 9.75 16.5C9.75 16.09 10.09 15.75 10.5 15.75H14.5C14.91 15.75 15.25 16.09 15.25 16.5C15.25 16.91 14.91 17.25 14.5 17.25Z" fill="#1A1A1A"/>
<path d="M13.5 4.61002V7.54002C13.5 8.21002 12.96 8.75002 12.29 8.75002H3.21C2.53 8.75002 2 8.19002 2 7.52002C2.01 6.39002 2.46 5.36002 3.21 4.61002C3.96 3.86002 5 3.40002 6.14 3.40002H12.29C12.96 3.40002 13.5 3.94002 13.5 4.61002Z" fill="#1A1A1A"/>
<path d="M19.97 2H17.03C15.76 2 15 2.76 15 4.03V6.97C15 8.24 15.76 9 17.03 9H19.97C21.24 9 22 8.24 22 6.97V4.03C22 2.76 21.24 2 19.97 2ZM20.63 4.45L18.26 7.22C18.17 7.33 18.03 7.4 17.89 7.4C17.88 7.4 17.88 7.4 17.87 7.4C17.73 7.4 17.6 7.35 17.5 7.25L16.4 6.17C16.2 5.97 16.2 5.64 16.4 5.44C16.6 5.24 16.93 5.23 17.13 5.44L17.83 6.13L19.83 3.79C20.02 3.57 20.34 3.55 20.56 3.73C20.79 3.91 20.81 4.24 20.63 4.45Z" fill="#1A1A1A"/>
<path d="M38.68 16.144C36.124 16.144 34.468 14.368 34.468 11.62C34.468 8.896 36.184 7.084 38.752 7.084C40.828 7.084 42.376 8.296 42.676 10.18H41.056C40.756 9.16 39.88 8.56 38.716 8.56C37.096 8.56 36.076 9.736 36.076 11.608C36.076 13.468 37.108 14.668 38.716 14.668C39.904 14.668 40.816 14.044 41.104 13.072H42.7C42.364 14.92 40.756 16.144 38.68 16.144ZM45.5083 16.156C44.2483 16.156 43.4803 15.424 43.4803 14.308C43.4803 13.216 44.2723 12.532 45.6763 12.424L47.4523 12.292V12.16C47.4523 11.356 46.9723 11.032 46.2283 11.032C45.3643 11.032 44.8843 11.392 44.8843 12.016H43.6363C43.6363 10.732 44.6923 9.892 46.3003 9.892C47.8963 9.892 48.8803 10.756 48.8803 12.4V16H47.5963L47.4883 15.124C47.2363 15.736 46.4323 16.156 45.5083 16.156ZM45.9883 15.052C46.8883 15.052 47.4643 14.512 47.4643 13.6V13.288L46.2283 13.384C45.3163 13.468 44.9683 13.768 44.9683 14.248C44.9683 14.788 45.3283 15.052 45.9883 15.052ZM54.0385 10.048V11.404H53.4985C52.4425 11.404 51.7825 11.968 51.7825 13.12V16H50.3185V10.084H51.6985L51.7825 10.948C52.0345 10.36 52.5985 9.964 53.3905 9.964C53.5945 9.964 53.7985 9.988 54.0385 10.048ZM57.2662 16.156C55.5502 16.156 54.4822 14.896 54.4822 13.06C54.4822 11.212 55.5622 9.892 57.3502 9.892C58.1782 9.892 58.9102 10.24 59.2822 10.828V7.072H60.7342V16H59.3902L59.2942 15.076C58.9342 15.76 58.1662 16.156 57.2662 16.156ZM57.5902 14.812C58.6102 14.812 59.2702 14.08 59.2702 13.012C59.2702 11.944 58.6102 11.2 57.5902 11.2C56.5702 11.2 55.9462 11.956 55.9462 13.012C55.9462 14.068 56.5702 14.812 57.5902 14.812ZM62.2479 13.444V12.148H66.1119V13.444H62.2479ZM69.3853 16H67.9213V11.296H66.7813V10.072H67.9213V8.224H69.3853V10.072H70.5373V11.296H69.3853V16ZM72.1794 8.884C71.6754 8.884 71.2794 8.488 71.2794 7.996C71.2794 7.504 71.6754 7.12 72.1794 7.12C72.6594 7.12 73.0554 7.504 73.0554 7.996C73.0554 8.488 72.6594 8.884 72.1794 8.884ZM71.4474 16V10.072H72.9114V16H71.4474ZM74.076 13.024C74.076 11.188 75.288 9.892 77.04 9.892C78.66 9.892 79.764 10.792 79.92 12.22H78.456C78.288 11.548 77.796 11.2 77.1 11.2C76.164 11.2 75.54 11.908 75.54 13.024C75.54 14.14 76.116 14.836 77.052 14.836C77.784 14.836 78.3 14.476 78.456 13.828H79.932C79.752 15.208 78.6 16.156 77.052 16.156C75.252 16.156 74.076 14.908 74.076 13.024ZM82.4976 16H81.0456V7.072H82.4976V12.556L84.8016 10.072H86.6376L84.3816 12.424L86.5896 16H84.9096L83.3616 13.504L82.4976 14.404V16ZM86.6932 13.444V12.148H90.5572V13.444H86.6932ZM97.1555 15.988L91.0715 16V14.848L93.9395 12.424C95.1275 11.416 95.5235 10.84 95.5235 10C95.5235 9.004 94.9835 8.44 94.0595 8.44C93.0995 8.44 92.4995 9.112 92.4875 10.24H90.9635C90.9755 8.32 92.1995 7.072 94.0595 7.072C95.9315 7.072 97.0955 8.14 97.0955 9.916C97.0955 11.14 96.4235 12.064 95.0915 13.204L93.5075 14.56H97.1555V15.988Z" fill="black"/>
</svg>
