<svg width="101" height="24" viewBox="0 0 101 24" fill="none" xmlns="http://www.w3.org/2000/svg">
<path d="M7.49973 12C7.49973 11.3369 7.64764 10.7071 7.9105 10.1372C8.11401 9.69593 8.07899 9.15924 7.73538 8.81564L5.15832 6.23857C4.74826 5.82851 4.07214 5.85004 3.74115 6.32622C2.62071 7.93817 1.96973 9.89396 1.96973 12C1.96973 14.1044 2.61969 16.0587 3.7325 17.67C4.0625 18.1478 4.73966 18.1709 5.1508 17.7608L7.73386 15.1843C8.07824 14.8408 8.11365 14.3035 7.91005 13.8618C7.64747 13.2921 7.49973 12.6627 7.49973 12Z" fill="#1A1A1A"/>
<path d="M12 7.5C12.6631 7.5 13.2928 7.64791 13.8628 7.91078C14.304 8.11428 14.8407 8.07926 15.1843 7.73566L17.7335 5.18643C18.1428 4.77717 18.1223 4.10256 17.6476 3.77141C16.0415 2.65097 14.0844 2 11.97 2C9.86577 2 7.91868 2.64985 6.30974 3.76248C5.83212 4.09277 5.809 4.76993 6.2191 5.18107L8.78017 7.74868C9.12607 8.09546 9.66803 8.12873 10.1116 7.92105C10.6854 7.6524 11.3237 7.5 12 7.5Z" fill="#1A1A1A"/>
<path d="M19.8905 5.90608C19.7128 5.67646 19.3754 5.66451 19.1699 5.86955L15.9511 9.08009C15.7777 9.25304 15.7578 9.52474 15.8817 9.73598C16.2721 10.4014 16.5004 11.1722 16.5004 12C16.5004 12.828 16.2719 13.5989 15.8814 14.2645C15.7576 14.4755 15.7773 14.7469 15.9503 14.9199L19.1699 18.1395C19.3753 18.3449 19.7131 18.3332 19.8908 18.1033C21.1961 16.415 21.9704 14.2968 21.9704 12C21.9704 9.70296 21.196 7.59315 19.8905 5.90608Z" fill="#1A1A1A"/>
<path d="M12.0002 16.4999C11.1722 16.4999 10.4013 16.2715 9.73571 15.8809C9.52469 15.7571 9.2533 15.7768 9.0803 15.9498L5.83073 19.1994C5.62525 19.4049 5.63699 19.7426 5.8669 19.9204C7.55521 21.2256 9.67336 21.9999 11.9702 21.9999C14.2773 21.9999 16.3971 21.2249 18.078 19.9107C18.306 19.7324 18.3166 19.3963 18.112 19.1917L14.8874 15.9671C14.7156 15.7953 14.4465 15.7745 14.236 15.8959C13.573 16.2785 12.8116 16.4999 12.0002 16.4999Z" fill="#1A1A1A"/>
<path d="M36.508 7.228V14.584H40.18V16H34.972V7.228H36.508ZM41.945 8.884C41.441 8.884 41.045 8.488 41.045 7.996C41.045 7.504 41.441 7.12 41.945 7.12C42.425 7.12 42.821 7.504 42.821 7.996C42.821 8.488 42.425 8.884 41.945 8.884ZM41.213 16V10.072H42.677V16H41.213ZM43.6016 10.072H44.4536V9.352C44.4536 7.744 45.3056 7.072 46.5896 7.072C46.8176 7.072 47.0936 7.084 47.3456 7.132V8.38H46.8296C46.0856 8.38 45.9056 8.764 45.9056 9.352V10.072H47.3216V11.296H45.9056V16H44.4536V11.296H43.6016V10.072ZM50.7322 16.156C48.9682 16.156 47.7322 14.872 47.7322 13.036C47.7322 11.176 48.9442 9.892 50.6842 9.892C52.4602 9.892 53.5882 11.08 53.5882 12.928V13.372L49.1242 13.384C49.2322 14.428 49.7842 14.956 50.7562 14.956C51.5602 14.956 52.0882 14.644 52.2562 14.08H53.6122C53.3602 15.376 52.2802 16.156 50.7322 16.156ZM50.6962 11.092C49.8322 11.092 49.3042 11.56 49.1602 12.448H52.1362C52.1362 11.632 51.5722 11.092 50.6962 11.092ZM56.1159 16H54.7599V7.072H56.2239V10.936C56.6079 10.276 57.3999 9.88 58.2999 9.88C59.9919 9.88 61.0239 11.2 61.0239 13.072C61.0239 14.896 59.9079 16.156 58.2039 16.156C57.3159 16.156 56.5599 15.76 56.2119 15.076L56.1159 16ZM56.2359 13.012C56.2359 14.08 56.8959 14.812 57.9039 14.812C58.9359 14.812 59.5479 14.068 59.5479 13.012C59.5479 11.956 58.9359 11.2 57.9039 11.2C56.8959 11.2 56.2359 11.944 56.2359 13.012ZM66.069 10.072H67.533V16H66.177L66.069 15.208C65.709 15.772 64.941 16.156 64.149 16.156C62.781 16.156 61.977 15.232 61.977 13.78V10.072H63.441V13.264C63.441 14.392 63.885 14.848 64.701 14.848C65.625 14.848 66.069 14.308 66.069 13.18V10.072ZM68.5799 13.024C68.5799 11.176 69.9119 9.904 71.7479 9.904C73.5839 9.904 74.9159 11.176 74.9159 13.024C74.9159 14.872 73.5839 16.144 71.7479 16.144C69.9119 16.144 68.5799 14.872 68.5799 13.024ZM70.0439 13.024C70.0439 14.104 70.7399 14.836 71.7479 14.836C72.7559 14.836 73.4519 14.104 73.4519 13.024C73.4519 11.944 72.7559 11.212 71.7479 11.212C70.7399 11.212 70.0439 11.944 70.0439 13.024ZM75.3377 18.748V17.524H76.2137C76.7897 17.524 77.1497 17.392 77.4017 16.696L77.5697 16.252L75.1817 10.072H76.7297L78.2537 14.392L79.8617 10.072H81.3737L78.4697 17.32C78.0257 18.424 77.4017 18.88 76.4297 18.88C76.0217 18.88 75.6617 18.832 75.3377 18.748Z" fill="black"/>
</svg>
