<svg width="200" height="24" viewBox="0 0 200 24" fill="none" xmlns="http://www.w3.org/2000/svg">
<path d="M6 5.12C5.59 5.12 5.25 4.78 5.25 4.37V2.61999C5.25 2.21 5.59 1.87 6 1.87C6.41 1.87 6.75 2.21 6.75 2.61999V4.37C6.75 4.79 6.41 5.12 6 5.12Z" fill="#1A1A1A"/>
<path d="M10 5.12C9.59 5.12 9.25 4.78 9.25 4.37V2.61999C9.25 2.21 9.59 1.87 10 1.87C10.41 1.87 10.75 2.21 10.75 2.61999V4.37C10.75 4.79 10.41 5.12 10 5.12Z" fill="#1A1A1A"/>
<path d="M14 5.12C13.59 5.12 13.25 4.78 13.25 4.37V2.61999C13.25 2.21 13.59 1.87 14 1.87C14.41 1.87 14.75 2.21 14.75 2.61999V4.37C14.75 4.79 14.41 5.12 14 5.12Z" fill="#1A1A1A"/>
<path d="M22.25 13.25C22.25 10.63 20.22 8.51001 17.66 8.29001C16.92 7.08001 15.6 6.26001 14.08 6.26001H6.71C4.39 6.26001 2.5 8.15001 2.5 10.47V11H18.29V10.47C18.29 10.28 18.26 10.09 18.23 9.91001C19.68 10.34 20.75 11.66 20.75 13.25C20.75 14.82 19.71 16.13 18.29 16.57V12H2.5V17.79C2.5 20.11 4.39 22 6.71 22H14.08C16.28 22 18.07 20.3 18.25 18.14C20.53 17.68 22.25 15.66 22.25 13.25Z" fill="#1A1A1A"/>
<path d="M38.68 16.144C36.124 16.144 34.468 14.368 34.468 11.62C34.468 8.896 36.184 7.084 38.752 7.084C40.828 7.084 42.376 8.296 42.676 10.18H41.056C40.756 9.16 39.88 8.56 38.716 8.56C37.096 8.56 36.076 9.736 36.076 11.608C36.076 13.468 37.108 14.668 38.716 14.668C39.904 14.668 40.816 14.044 41.104 13.072H42.7C42.364 14.92 40.756 16.144 38.68 16.144ZM43.5135 13.024C43.5135 11.176 44.8455 9.904 46.6815 9.904C48.5175 9.904 49.8495 11.176 49.8495 13.024C49.8495 14.872 48.5175 16.144 46.6815 16.144C44.8455 16.144 43.5135 14.872 43.5135 13.024ZM44.9775 13.024C44.9775 14.104 45.6735 14.836 46.6815 14.836C47.6895 14.836 48.3855 14.104 48.3855 13.024C48.3855 11.944 47.6895 11.212 46.6815 11.212C45.6735 11.212 44.9775 11.944 44.9775 13.024ZM50.3985 10.072H51.2505V9.352C51.2505 7.744 52.0905 7.072 53.3745 7.072C53.6025 7.072 53.8785 7.084 54.1305 7.132V8.38H53.6145C52.8705 8.38 52.7025 8.764 52.7025 9.352V10.072H55.1265V9.352C55.1265 7.744 55.9665 7.072 57.2505 7.072C57.4905 7.072 57.7545 7.084 58.0065 7.132V8.38H57.5025C56.7585 8.38 56.5785 8.764 56.5785 9.352V10.072H57.9945V11.296H56.5785V16H55.1265V11.296H52.7025V16H51.2505V11.296H50.3985V10.072ZM61.408 16.156C59.644 16.156 58.408 14.872 58.408 13.036C58.408 11.176 59.62 9.892 61.36 9.892C63.136 9.892 64.264 11.08 64.264 12.928V13.372L59.8 13.384C59.908 14.428 60.46 14.956 61.432 14.956C62.236 14.956 62.764 14.644 62.932 14.08H64.288C64.036 15.376 62.956 16.156 61.408 16.156ZM61.372 11.092C60.508 11.092 59.98 11.56 59.836 12.448H62.812C62.812 11.632 62.248 11.092 61.372 11.092ZM68.0877 16.156C66.3237 16.156 65.0877 14.872 65.0877 13.036C65.0877 11.176 66.2997 9.892 68.0397 9.892C69.8157 9.892 70.9437 11.08 70.9437 12.928V13.372L66.4797 13.384C66.5877 14.428 67.1397 14.956 68.1117 14.956C68.9157 14.956 69.4437 14.644 69.6117 14.08H70.9677C70.7157 15.376 69.6357 16.156 68.0877 16.156ZM68.0517 11.092C67.1877 11.092 66.6597 11.56 66.5157 12.448H69.4917C69.4917 11.632 68.9277 11.092 68.0517 11.092Z" fill="black"/>
</svg>
