<svg width="126" height="24" viewBox="0 0 126 24" fill="none" xmlns="http://www.w3.org/2000/svg">
<path d="M16.19 2H7.81C4.17 2 2 4.17 2 7.81V16.18C2 19.83 4.17 22 7.81 22H16.18C19.82 22 21.99 19.83 21.99 16.19V7.81C22 4.17 19.83 2 16.19 2ZM8.18 16.77C8.16 16.77 8.13 16.77 8.11 16.77C7.14 16.68 6.23 16.23 5.55 15.51C3.95 13.83 3.95 11.1 5.55 9.42L7.74 7.12C8.52 6.3 9.57 5.84 10.69 5.84C11.81 5.84 12.86 6.29 13.64 7.12C15.24 8.8 15.24 11.53 13.64 13.21L12.55 14.36C12.26 14.66 11.79 14.67 11.49 14.39C11.19 14.1 11.18 13.63 11.46 13.33L12.55 12.18C13.61 11.07 13.61 9.26 12.55 8.16C11.56 7.12 9.82 7.12 8.82 8.16L6.63 10.46C5.57 11.57 5.57 13.38 6.63 14.48C7.06 14.94 7.64 15.22 8.25 15.28C8.66 15.32 8.96 15.69 8.92 16.1C8.89 16.48 8.56 16.77 8.18 16.77ZM18.45 14.59L16.26 16.89C15.48 17.71 14.43 18.17 13.31 18.17C12.19 18.17 11.14 17.72 10.36 16.89C8.76 15.21 8.76 12.48 10.36 10.8L11.45 9.65C11.74 9.35 12.21 9.34 12.51 9.62C12.81 9.91 12.82 10.38 12.54 10.68L11.45 11.83C10.39 12.94 10.39 14.75 11.45 15.85C12.44 16.89 14.18 16.9 15.18 15.85L17.37 13.55C18.43 12.44 18.43 10.63 17.37 9.53C16.94 9.07 16.36 8.79 15.75 8.73C15.34 8.69 15.04 8.32 15.08 7.91C15.12 7.5 15.48 7.19 15.9 7.24C16.87 7.34 17.78 7.78 18.46 8.5C20.05 10.17 20.05 12.91 18.45 14.59Z" fill="#1A1A1A"/>
<path d="M36.508 7.228V14.584H40.18V16H34.972V7.228H36.508ZM41.945 8.884C41.441 8.884 41.045 8.488 41.045 7.996C41.045 7.504 41.441 7.12 41.945 7.12C42.425 7.12 42.821 7.504 42.821 7.996C42.821 8.488 42.425 8.884 41.945 8.884ZM41.213 16V10.072H42.677V16H41.213ZM45.6536 16H44.1896V10.072H45.5456L45.6656 10.84C46.0376 10.24 46.7576 9.892 47.5616 9.892C49.0496 9.892 49.8176 10.816 49.8176 12.352V16H48.3536V12.7C48.3536 11.704 47.8616 11.224 47.1056 11.224C46.2056 11.224 45.6536 11.848 45.6536 12.808V16ZM52.732 16H51.28V7.072H52.732V12.556L55.036 10.072H56.872L54.616 12.424L56.824 16H55.144L53.596 13.504L52.732 14.404V16ZM56.9276 13.444V12.148H60.7916V13.444H56.9276ZM61.7453 14.2H63.1373C63.1493 14.716 63.5333 15.04 64.2053 15.04C64.8893 15.04 65.2613 14.764 65.2613 14.332C65.2613 14.032 65.1053 13.816 64.5773 13.696L63.5093 13.444C62.4413 13.204 61.9253 12.7 61.9253 11.752C61.9253 10.588 62.9093 9.892 64.2773 9.892C65.6093 9.892 66.5093 10.66 66.5213 11.812H65.1293C65.1173 11.308 64.7813 10.984 64.2173 10.984C63.6413 10.984 63.3053 11.248 63.3053 11.692C63.3053 12.028 63.5693 12.244 64.0733 12.364L65.1413 12.616C66.1373 12.844 66.6413 13.3 66.6413 14.212C66.6413 15.412 65.6213 16.156 64.1573 16.156C62.6813 16.156 61.7453 15.364 61.7453 14.2ZM67.408 12.964C67.408 11.104 68.512 9.892 70.18 9.892C71.08 9.892 71.86 10.288 72.22 10.972L72.316 10.072H73.66V18.748H72.208V15.208C71.836 15.808 71.056 16.156 70.18 16.156C68.416 16.156 67.408 14.812 67.408 12.964ZM68.872 13.036C68.872 14.092 69.496 14.836 70.516 14.836C71.536 14.836 72.196 14.104 72.196 13.036C72.196 11.968 71.536 11.224 70.516 11.224C69.496 11.224 68.872 11.98 68.872 13.036ZM79.2057 10.072H80.6697V16H79.3137L79.2057 15.208C78.8457 15.772 78.0777 16.156 77.2857 16.156C75.9177 16.156 75.1137 15.232 75.1137 13.78V10.072H76.5777V13.264C76.5777 14.392 77.0217 14.848 77.8377 14.848C78.7617 14.848 79.2057 14.308 79.2057 13.18V10.072ZM83.9458 16.156C82.6858 16.156 81.9178 15.424 81.9178 14.308C81.9178 13.216 82.7098 12.532 84.1138 12.424L85.8898 12.292V12.16C85.8898 11.356 85.4098 11.032 84.6658 11.032C83.8018 11.032 83.3218 11.392 83.3218 12.016H82.0738C82.0738 10.732 83.1298 9.892 84.7378 9.892C86.3338 9.892 87.3178 10.756 87.3178 12.4V16H86.0338L85.9258 15.124C85.6738 15.736 84.8698 16.156 83.9458 16.156ZM84.4258 15.052C85.3258 15.052 85.9018 14.512 85.9018 13.6V13.288L84.6658 13.384C83.7538 13.468 83.4058 13.768 83.4058 14.248C83.4058 14.788 83.7658 15.052 84.4258 15.052ZM92.476 10.048V11.404H91.936C90.88 11.404 90.22 11.968 90.22 13.12V16H88.756V10.084H90.136L90.22 10.948C90.472 10.36 91.036 9.964 91.828 9.964C92.032 9.964 92.236 9.988 92.476 10.048ZM95.9197 16.156C94.1557 16.156 92.9197 14.872 92.9197 13.036C92.9197 11.176 94.1317 9.892 95.8717 9.892C97.6477 9.892 98.7757 11.08 98.7757 12.928V13.372L94.3117 13.384C94.4197 14.428 94.9717 14.956 95.9437 14.956C96.7477 14.956 97.2757 14.644 97.4437 14.08H98.7997C98.5477 15.376 97.4677 16.156 95.9197 16.156ZM95.8837 11.092C95.0197 11.092 94.4917 11.56 94.3477 12.448H97.3237C97.3237 11.632 96.7597 11.092 95.8837 11.092Z" fill="black"/>
</svg>
