<svg width="141" height="24" viewBox="0 0 141 24" fill="none" xmlns="http://www.w3.org/2000/svg">
<path d="M15.78 2H8.22C4.44 2 3.5 3.01 3.5 7.04V18.3C3.5 20.96 4.96 21.59 6.73 19.69L6.74 19.68C7.56 18.81 8.81 18.88 9.52 19.83L10.53 21.18C11.34 22.25 12.65 22.25 13.46 21.18L14.47 19.83C15.19 18.87 16.44 18.8 17.26 19.68C19.04 21.58 20.49 20.95 20.49 18.29V7.04C20.5 3.01 19.56 2 15.78 2ZM9 7C9.55 7 10 7.45 10 8C10 8.55 9.56 9 9 9C8.44 9 8 8.55 8 8C8 7.45 8.44 7 9 7ZM15 14C14.44 14 14 13.55 14 13C14 12.45 14.45 12 15 12C15.55 12 16 12.45 16 13C16 13.55 15.56 14 15 14ZM15.9 7.59L9.17 14.32C9.02 14.47 8.83 14.54 8.64 14.54C8.45 14.54 8.26 14.47 8.11 14.32C7.82 14.03 7.82 13.55 8.11 13.26L14.84 6.53C15.13 6.24 15.61 6.24 15.9 6.53C16.19 6.82 16.19 7.3 15.9 7.59Z" fill="#1A1A1A"/>
<path d="M36.508 17H34.972V8.228H38.32C40.312 8.228 41.476 9.236 41.476 10.964C41.476 12.14 40.924 12.98 39.892 13.4L41.56 17H39.88L38.392 13.724H36.508V17ZM36.508 9.596V12.368H38.32C39.292 12.368 39.868 11.852 39.868 10.964C39.868 10.088 39.292 9.596 38.32 9.596H36.508ZM45.0252 17.156C43.2612 17.156 42.0252 15.872 42.0252 14.036C42.0252 12.176 43.2372 10.892 44.9772 10.892C46.7532 10.892 47.8812 12.08 47.8812 13.928V14.372L43.4172 14.384C43.5252 15.428 44.0772 15.956 45.0492 15.956C45.8532 15.956 46.3812 15.644 46.5492 15.08H47.9052C47.6532 16.376 46.5732 17.156 45.0252 17.156ZM44.9892 12.092C44.1252 12.092 43.5972 12.56 43.4532 13.448H46.4292C46.4292 12.632 45.8652 12.092 44.9892 12.092ZM48.7049 14.024C48.7049 12.188 49.9169 10.892 51.6689 10.892C53.2889 10.892 54.3929 11.792 54.5489 13.22H53.0849C52.9169 12.548 52.4249 12.2 51.7289 12.2C50.7929 12.2 50.1689 12.908 50.1689 14.024C50.1689 15.14 50.7449 15.836 51.6809 15.836C52.4129 15.836 52.9289 15.476 53.0849 14.828H54.5609C54.3809 16.208 53.2289 17.156 51.6809 17.156C49.8809 17.156 48.7049 15.908 48.7049 14.024ZM58.3025 17.156C56.5385 17.156 55.3025 15.872 55.3025 14.036C55.3025 12.176 56.5145 10.892 58.2545 10.892C60.0305 10.892 61.1585 12.08 61.1585 13.928V14.372L56.6945 14.384C56.8025 15.428 57.3545 15.956 58.3265 15.956C59.1305 15.956 59.6585 15.644 59.8265 15.08H61.1825C60.9305 16.376 59.8505 17.156 58.3025 17.156ZM58.2665 12.092C57.4025 12.092 56.8745 12.56 56.7305 13.448H59.7065C59.7065 12.632 59.1425 12.092 58.2665 12.092ZM63.0622 9.884C62.5582 9.884 62.1622 9.488 62.1622 8.996C62.1622 8.504 62.5582 8.12 63.0622 8.12C63.5422 8.12 63.9382 8.504 63.9382 8.996C63.9382 9.488 63.5422 9.884 63.0622 9.884ZM62.3302 17V11.072H63.7942V17H62.3302ZM65.3068 19.748V11.072H66.6628L66.7588 11.972C67.1188 11.288 67.8988 10.892 68.7988 10.892C70.4668 10.892 71.5708 12.104 71.5708 13.964C71.5708 15.812 70.5628 17.156 68.7988 17.156C67.9108 17.156 67.1428 16.808 66.7708 16.208V19.748H65.3068ZM66.7828 14.036C66.7828 15.104 67.4428 15.836 68.4508 15.836C69.4828 15.836 70.0948 15.092 70.0948 14.036C70.0948 12.98 69.4828 12.224 68.4508 12.224C67.4428 12.224 66.7828 12.968 66.7828 14.036ZM74.6939 17H73.2299V12.296H72.0899V11.072H73.2299V9.224H74.6939V11.072H75.8459V12.296H74.6939V17ZM76.5096 14.444V13.148H80.3736V14.444H76.5096ZM84.3014 17.156C82.5854 17.156 81.5174 15.896 81.5174 14.06C81.5174 12.212 82.5974 10.892 84.3854 10.892C85.2134 10.892 85.9454 11.24 86.3174 11.828V8.072H87.7694V17H86.4254L86.3294 16.076C85.9694 16.76 85.2014 17.156 84.3014 17.156ZM84.6254 15.812C85.6454 15.812 86.3054 15.08 86.3054 14.012C86.3054 12.944 85.6454 12.2 84.6254 12.2C83.6054 12.2 82.9814 12.956 82.9814 14.012C82.9814 15.068 83.6054 15.812 84.6254 15.812ZM90.0271 9.884C89.5231 9.884 89.1271 9.488 89.1271 8.996C89.1271 8.504 89.5231 8.12 90.0271 8.12C90.5071 8.12 90.9031 8.504 90.9031 8.996C90.9031 9.488 90.5071 9.884 90.0271 9.884ZM89.2951 17V11.072H90.7591V17H89.2951ZM91.8156 15.2H93.2076C93.2196 15.716 93.6036 16.04 94.2756 16.04C94.9596 16.04 95.3316 15.764 95.3316 15.332C95.3316 15.032 95.1756 14.816 94.6476 14.696L93.5796 14.444C92.5116 14.204 91.9956 13.7 91.9956 12.752C91.9956 11.588 92.9796 10.892 94.3476 10.892C95.6796 10.892 96.5796 11.66 96.5916 12.812H95.1996C95.1876 12.308 94.8516 11.984 94.2876 11.984C93.7116 11.984 93.3756 12.248 93.3756 12.692C93.3756 13.028 93.6396 13.244 94.1436 13.364L95.2116 13.616C96.2076 13.844 96.7116 14.3 96.7116 15.212C96.7116 16.412 95.6916 17.156 94.2276 17.156C92.7516 17.156 91.8156 16.364 91.8156 15.2ZM97.3703 15.2H98.7623C98.7743 15.716 99.1583 16.04 99.8303 16.04C100.514 16.04 100.886 15.764 100.886 15.332C100.886 15.032 100.73 14.816 100.202 14.696L99.1343 14.444C98.0663 14.204 97.5503 13.7 97.5503 12.752C97.5503 11.588 98.5343 10.892 99.9023 10.892C101.234 10.892 102.134 11.66 102.146 12.812H100.754C100.742 12.308 100.406 11.984 99.8423 11.984C99.2663 11.984 98.9303 12.248 98.9303 12.692C98.9303 13.028 99.1943 13.244 99.6983 13.364L100.766 13.616C101.762 13.844 102.266 14.3 102.266 15.212C102.266 16.412 101.246 17.156 99.7823 17.156C98.3063 17.156 97.3703 16.364 97.3703 15.2ZM103.033 14.024C103.033 12.188 104.245 10.892 105.997 10.892C107.617 10.892 108.721 11.792 108.877 13.22H107.413C107.245 12.548 106.753 12.2 106.057 12.2C105.121 12.2 104.497 12.908 104.497 14.024C104.497 15.14 105.073 15.836 106.009 15.836C106.741 15.836 107.257 15.476 107.413 14.828H108.889C108.709 16.208 107.557 17.156 106.009 17.156C104.209 17.156 103.033 15.908 103.033 14.024ZM109.631 14.024C109.631 12.176 110.963 10.904 112.799 10.904C114.635 10.904 115.967 12.176 115.967 14.024C115.967 15.872 114.635 17.144 112.799 17.144C110.963 17.144 109.631 15.872 109.631 14.024ZM111.095 14.024C111.095 15.104 111.791 15.836 112.799 15.836C113.807 15.836 114.503 15.104 114.503 14.024C114.503 12.944 113.807 12.212 112.799 12.212C111.791 12.212 111.095 12.944 111.095 14.024ZM121.006 11.072H122.47V17H121.114L121.006 16.208C120.646 16.772 119.878 17.156 119.086 17.156C117.718 17.156 116.914 16.232 116.914 14.78V11.072H118.378V14.264C118.378 15.392 118.822 15.848 119.638 15.848C120.562 15.848 121.006 15.308 121.006 14.18V11.072ZM125.447 17H123.983V11.072H125.339L125.459 11.84C125.831 11.24 126.551 10.892 127.355 10.892C128.843 10.892 129.611 11.816 129.611 13.352V17H128.147V13.7C128.147 12.704 127.655 12.224 126.899 12.224C125.999 12.224 125.447 12.848 125.447 13.808V17ZM133.065 17H131.601V12.296H130.461V11.072H131.601V9.224H133.065V11.072H134.217V12.296H133.065V17Z" fill="black"/>
</svg>
