<svg width="163" height="24" viewBox="0 0 163 24" fill="none" xmlns="http://www.w3.org/2000/svg">
<path d="M16.19 2H7.81C4.17 2 2 4.17 2 7.81V16.18C2 19.83 4.17 22 7.81 22H16.18C19.82 22 21.99 19.83 21.99 16.19V7.81C22 4.17 19.83 2 16.19 2ZM12 18.01C8.83 18.01 6.25 15.43 6.25 12.26C6.25 9.09 8.83 6.51 12 6.51C12.14 6.51 12.29 6.53 12.43 6.54L12.15 6.22C11.88 5.91 11.91 5.43 12.22 5.16C12.53 4.89 13.01 4.92 13.28 5.23L14.95 7.14C14.96 7.15 14.96 7.16 14.97 7.17C14.98 7.18 14.99 7.18 14.99 7.19C15.01 7.22 15.02 7.26 15.04 7.3C15.06 7.35 15.09 7.39 15.1 7.44C15.11 7.49 15.11 7.53 15.12 7.58C15.12 7.63 15.13 7.67 15.13 7.72C15.13 7.77 15.11 7.81 15.09 7.86C15.07 7.91 15.06 7.96 15.04 8C15.02 8.04 14.98 8.08 14.95 8.12C14.92 8.15 14.91 8.19 14.88 8.21C14.87 8.22 14.86 8.22 14.85 8.23C14.84 8.24 14.84 8.25 14.83 8.25L12.89 9.67C12.76 9.77 12.6 9.81 12.45 9.81C12.22 9.81 11.99 9.7 11.84 9.5C11.6 9.17 11.67 8.7 12 8.45L12.56 8.04C12.37 8.03 12.19 8.01 12 8.01C9.66 8.01 7.75 9.92 7.75 12.26C7.75 14.6 9.66 16.51 12 16.51C14.34 16.51 16.25 14.6 16.25 12.26C16.25 11.41 16 10.6 15.54 9.9C15.31 9.56 15.4 9.09 15.75 8.86C16.09 8.63 16.56 8.72 16.79 9.07C17.42 10.02 17.76 11.12 17.76 12.26C17.75 15.44 15.17 18.01 12 18.01Z" fill="#1A1A1A"/>
<path d="M36.508 17H34.972V8.228H38.32C40.312 8.228 41.476 9.236 41.476 10.964C41.476 12.14 40.924 12.98 39.892 13.4L41.56 17H39.88L38.392 13.724H36.508V17ZM36.508 9.596V12.368H38.32C39.292 12.368 39.868 11.852 39.868 10.964C39.868 10.088 39.292 9.596 38.32 9.596H36.508ZM45.0252 17.156C43.2612 17.156 42.0252 15.872 42.0252 14.036C42.0252 12.176 43.2372 10.892 44.9772 10.892C46.7532 10.892 47.8812 12.08 47.8812 13.928V14.372L43.4172 14.384C43.5252 15.428 44.0772 15.956 45.0492 15.956C45.8532 15.956 46.3812 15.644 46.5492 15.08H47.9052C47.6532 16.376 46.5732 17.156 45.0252 17.156ZM44.9892 12.092C44.1252 12.092 43.5972 12.56 43.4532 13.448H46.4292C46.4292 12.632 45.8652 12.092 44.9892 12.092ZM48.4649 11.072H49.3169V10.352C49.3169 8.744 50.1689 8.072 51.4529 8.072C51.6809 8.072 51.9569 8.084 52.2089 8.132V9.38H51.6929C50.9489 9.38 50.7689 9.764 50.7689 10.352V11.072H52.1849V12.296H50.7689V17H49.3169V12.296H48.4649V11.072ZM56.8393 11.048V12.404H56.2993C55.2433 12.404 54.5833 12.968 54.5833 14.12V17H53.1193V11.084H54.4993L54.5833 11.948C54.8353 11.36 55.3993 10.964 56.1913 10.964C56.3953 10.964 56.5993 10.988 56.8393 11.048ZM60.283 17.156C58.519 17.156 57.283 15.872 57.283 14.036C57.283 12.176 58.495 10.892 60.235 10.892C62.011 10.892 63.139 12.08 63.139 13.928V14.372L58.675 14.384C58.783 15.428 59.335 15.956 60.307 15.956C61.111 15.956 61.639 15.644 61.807 15.08H63.163C62.911 16.376 61.831 17.156 60.283 17.156ZM60.247 12.092C59.383 12.092 58.855 12.56 58.711 13.448H61.687C61.687 12.632 61.123 12.092 60.247 12.092ZM63.8547 15.2H65.2467C65.2587 15.716 65.6427 16.04 66.3147 16.04C66.9987 16.04 67.3707 15.764 67.3707 15.332C67.3707 15.032 67.2147 14.816 66.6867 14.696L65.6187 14.444C64.5507 14.204 64.0347 13.7 64.0347 12.752C64.0347 11.588 65.0187 10.892 66.3867 10.892C67.7187 10.892 68.6187 11.66 68.6307 12.812H67.2387C67.2267 12.308 66.8907 11.984 66.3267 11.984C65.7507 11.984 65.4147 12.248 65.4147 12.692C65.4147 13.028 65.6787 13.244 66.1827 13.364L67.2507 13.616C68.2467 13.844 68.7507 14.3 68.7507 15.212C68.7507 16.412 67.7307 17.156 66.2667 17.156C64.7907 17.156 63.8547 16.364 63.8547 15.2ZM71.3294 17H69.8654V8.072H71.3414V11.84C71.7134 11.264 72.4094 10.892 73.2614 10.892C74.7254 10.892 75.4934 11.816 75.4934 13.352V17H74.0294V13.7C74.0294 12.704 73.5374 12.224 72.7934 12.224C71.8694 12.224 71.3294 12.872 71.3294 13.76V17ZM76.9198 14.444V13.148H80.7838V14.444H76.9198ZM85.9955 11.048V12.404H85.4555C84.3995 12.404 83.7395 12.968 83.7395 14.12V17H82.2755V11.084H83.6555L83.7395 11.948C83.9915 11.36 84.5555 10.964 85.3475 10.964C85.5515 10.964 85.7555 10.988 85.9955 11.048ZM87.7185 9.884C87.2145 9.884 86.8185 9.488 86.8185 8.996C86.8185 8.504 87.2145 8.12 87.7185 8.12C88.1985 8.12 88.5945 8.504 88.5945 8.996C88.5945 9.488 88.1985 9.884 87.7185 9.884ZM86.9865 17V11.072H88.4505V17H86.9865ZM89.627 13.904C89.627 12.176 90.755 10.88 92.447 10.88C93.335 10.88 94.031 11.252 94.379 11.888L94.463 11.072H95.819V16.7C95.819 18.68 94.631 19.916 92.711 19.916C91.007 19.916 89.843 18.944 89.663 17.36H91.127C91.223 18.128 91.811 18.584 92.711 18.584C93.719 18.584 94.367 17.948 94.367 16.964V15.98C93.995 16.532 93.263 16.88 92.411 16.88C90.731 16.88 89.627 15.62 89.627 13.904ZM91.103 13.868C91.103 14.864 91.739 15.608 92.699 15.608C93.707 15.608 94.331 14.9 94.331 13.868C94.331 12.86 93.719 12.164 92.699 12.164C91.727 12.164 91.103 12.896 91.103 13.868ZM98.7981 17H97.3341V8.072H98.8101V11.84C99.1821 11.264 99.8781 10.892 100.73 10.892C102.194 10.892 102.962 11.816 102.962 13.352V17H101.498V13.7C101.498 12.704 101.006 12.224 100.262 12.224C99.3381 12.224 98.7981 12.872 98.7981 13.76V17ZM106.417 17H104.953V12.296H103.813V11.072H104.953V9.224H106.417V11.072H107.569V12.296H106.417V17ZM108.232 14.444V13.148H112.096V14.444H108.232ZM113.05 15.2H114.442C114.454 15.716 114.838 16.04 115.51 16.04C116.194 16.04 116.566 15.764 116.566 15.332C116.566 15.032 116.41 14.816 115.882 14.696L114.814 14.444C113.746 14.204 113.23 13.7 113.23 12.752C113.23 11.588 114.214 10.892 115.582 10.892C116.914 10.892 117.814 11.66 117.826 12.812H116.434C116.422 12.308 116.086 11.984 115.522 11.984C114.946 11.984 114.61 12.248 114.61 12.692C114.61 13.028 114.874 13.244 115.378 13.364L116.446 13.616C117.442 13.844 117.946 14.3 117.946 15.212C117.946 16.412 116.926 17.156 115.462 17.156C113.986 17.156 113.05 16.364 113.05 15.2ZM118.713 13.964C118.713 12.104 119.817 10.892 121.485 10.892C122.385 10.892 123.165 11.288 123.525 11.972L123.621 11.072H124.965V19.748H123.513V16.208C123.141 16.808 122.361 17.156 121.485 17.156C119.721 17.156 118.713 15.812 118.713 13.964ZM120.177 14.036C120.177 15.092 120.801 15.836 121.821 15.836C122.841 15.836 123.501 15.104 123.501 14.036C123.501 12.968 122.841 12.224 121.821 12.224C120.801 12.224 120.177 12.98 120.177 14.036ZM130.51 11.072H131.974V17H130.618L130.51 16.208C130.15 16.772 129.382 17.156 128.59 17.156C127.222 17.156 126.418 16.232 126.418 14.78V11.072H127.882V14.264C127.882 15.392 128.326 15.848 129.142 15.848C130.066 15.848 130.51 15.308 130.51 14.18V11.072ZM135.25 17.156C133.99 17.156 133.222 16.424 133.222 15.308C133.222 14.216 134.014 13.532 135.418 13.424L137.194 13.292V13.16C137.194 12.356 136.714 12.032 135.97 12.032C135.106 12.032 134.626 12.392 134.626 13.016H133.378C133.378 11.732 134.434 10.892 136.042 10.892C137.638 10.892 138.622 11.756 138.622 13.4V17H137.338L137.23 16.124C136.978 16.736 136.174 17.156 135.25 17.156ZM135.73 16.052C136.63 16.052 137.206 15.512 137.206 14.6V14.288L135.97 14.384C135.058 14.468 134.71 14.768 134.71 15.248C134.71 15.788 135.07 16.052 135.73 16.052ZM143.781 11.048V12.404H143.241C142.185 12.404 141.525 12.968 141.525 14.12V17H140.061V11.084H141.441L141.525 11.948C141.777 11.36 142.341 10.964 143.133 10.964C143.337 10.964 143.541 10.988 143.781 11.048ZM147.224 17.156C145.46 17.156 144.224 15.872 144.224 14.036C144.224 12.176 145.436 10.892 147.176 10.892C148.952 10.892 150.08 12.08 150.08 13.928V14.372L145.616 14.384C145.724 15.428 146.276 15.956 147.248 15.956C148.052 15.956 148.58 15.644 148.748 15.08H150.104C149.852 16.376 148.772 17.156 147.224 17.156ZM147.188 12.092C146.324 12.092 145.796 12.56 145.652 13.448H148.628C148.628 12.632 148.064 12.092 147.188 12.092Z" fill="black"/>
</svg>
