<svg width="200" height="24" viewBox="0 0 200 24" fill="none" xmlns="http://www.w3.org/2000/svg">
<path d="M12 2C6.48 2 2 6.48 2 12C2 17.52 6.48 22 12 22C17.52 22 22 17.52 22 12C22 6.48 17.52 2 12 2ZM12 14.5C10.62 14.5 9.5 13.38 9.5 12C9.5 10.62 10.62 9.5 12 9.5C13.38 9.5 14.5 10.62 14.5 12C14.5 13.38 13.38 14.5 12 14.5Z" fill="#1A1A1A"/>
<path d="M38.68 16.144C36.124 16.144 34.468 14.368 34.468 11.62C34.468 8.896 36.184 7.084 38.752 7.084C40.828 7.084 42.376 8.296 42.676 10.18H41.056C40.756 9.16 39.88 8.56 38.716 8.56C37.096 8.56 36.076 9.736 36.076 11.608C36.076 13.468 37.108 14.668 38.716 14.668C39.904 14.668 40.816 14.044 41.104 13.072H42.7C42.364 14.92 40.756 16.144 38.68 16.144ZM46.2975 16.156C44.5815 16.156 43.5135 14.896 43.5135 13.06C43.5135 11.212 44.5935 9.892 46.3815 9.892C47.2095 9.892 47.9415 10.24 48.3135 10.828V7.072H49.7655V16H48.4215L48.3255 15.076C47.9655 15.76 47.1975 16.156 46.2975 16.156ZM46.6215 14.812C47.6415 14.812 48.3015 14.08 48.3015 13.012C48.3015 11.944 47.6415 11.2 46.6215 11.2C45.6015 11.2 44.9775 11.956 44.9775 13.012C44.9775 14.068 45.6015 14.812 46.6215 14.812Z" fill="black"/>
</svg>
