<svg width="143" height="24" viewBox="0 0 143 24" fill="none" xmlns="http://www.w3.org/2000/svg">
<path d="M21 22.75H3C2.59 22.75 2.25 22.41 2.25 22C2.25 21.59 2.59 21.25 3 21.25H21C21.41 21.25 21.75 21.59 21.75 22C21.75 22.41 21.41 22.75 21 22.75Z" fill="#1A1A1A"/>
<path d="M21 2.75H3C2.59 2.75 2.25 2.41 2.25 2C2.25 1.59 2.59 1.25 3 1.25H21C21.41 1.25 21.75 1.59 21.75 2C21.75 2.41 21.41 2.75 21 2.75Z" fill="#1A1A1A"/>
<path d="M14.2994 15.36L12.7494 16.91V6.70002L14.2994 8.25002C14.4494 8.40002 14.6394 8.47002 14.8294 8.47002C15.0194 8.47002 15.2094 8.40002 15.3594 8.25002C15.6494 7.96002 15.6494 7.48002 15.3594 7.19002L12.5294 4.36002C12.2494 4.08002 11.7494 4.08002 11.4694 4.36002L8.63938 7.19002C8.34938 7.48002 8.34938 7.96002 8.63938 8.25002C8.92937 8.54002 9.40937 8.54002 9.69937 8.25002L11.2494 6.70002V16.91L9.69937 15.36C9.40937 15.07 8.92937 15.07 8.63938 15.36C8.34938 15.65 8.34938 16.13 8.63938 16.42L11.4694 19.25C11.6094 19.39 11.7994 19.47 11.9994 19.47C12.1994 19.47 12.3894 19.39 12.5294 19.25L15.3594 16.42C15.6494 16.13 15.6494 15.65 15.3594 15.36C15.0694 15.07 14.5894 15.07 14.2994 15.36Z" fill="#1A1A1A"/>
<path d="M38.44 13.976H36.508V17H34.972V8.228H38.44C40.204 8.228 41.344 9.38 41.344 11.096C41.344 12.788 40.192 13.976 38.44 13.976ZM38.14 9.596H36.508V12.608H38.116C39.172 12.608 39.736 12.044 39.736 11.084C39.736 10.124 39.16 9.596 38.14 9.596ZM43.8841 17H42.4201V8.072H43.8961V11.84C44.2681 11.264 44.9641 10.892 45.8161 10.892C47.2801 10.892 48.0481 11.816 48.0481 13.352V17H46.5841V13.7C46.5841 12.704 46.0921 12.224 45.3481 12.224C44.4241 12.224 43.8841 12.872 43.8841 13.76V17ZM51.2505 17.156C49.9905 17.156 49.2225 16.424 49.2225 15.308C49.2225 14.216 50.0145 13.532 51.4185 13.424L53.1945 13.292V13.16C53.1945 12.356 52.7145 12.032 51.9705 12.032C51.1065 12.032 50.6265 12.392 50.6265 13.016H49.3785C49.3785 11.732 50.4345 10.892 52.0425 10.892C53.6385 10.892 54.6225 11.756 54.6225 13.4V17H53.3385L53.2305 16.124C52.9785 16.736 52.1745 17.156 51.2505 17.156ZM51.7305 16.052C52.6305 16.052 53.2065 15.512 53.2065 14.6V14.288L51.9705 14.384C51.0585 14.468 50.7105 14.768 50.7105 15.248C50.7105 15.788 51.0705 16.052 51.7305 16.052ZM59.7807 11.048V12.404H59.2407C58.1847 12.404 57.5247 12.968 57.5247 14.12V17H56.0607V11.084H57.4407L57.5247 11.948C57.7767 11.36 58.3407 10.964 59.1327 10.964C59.3367 10.964 59.5407 10.988 59.7807 11.048ZM62.3013 17.156C61.0413 17.156 60.2733 16.424 60.2733 15.308C60.2733 14.216 61.0653 13.532 62.4693 13.424L64.2453 13.292V13.16C64.2453 12.356 63.7653 12.032 63.0213 12.032C62.1573 12.032 61.6773 12.392 61.6773 13.016H60.4293C60.4293 11.732 61.4853 10.892 63.0933 10.892C64.6893 10.892 65.6733 11.756 65.6733 13.4V17H64.3893L64.2813 16.124C64.0293 16.736 63.2253 17.156 62.3013 17.156ZM62.7812 16.052C63.6813 16.052 64.2573 15.512 64.2573 14.6V14.288L63.0213 14.384C62.1093 14.468 61.7613 14.768 61.7613 15.248C61.7613 15.788 62.1213 16.052 62.7812 16.052ZM66.7755 13.904C66.7755 12.176 67.9035 10.88 69.5955 10.88C70.4835 10.88 71.1795 11.252 71.5275 11.888L71.6115 11.072H72.9675V16.7C72.9675 18.68 71.7795 19.916 69.8595 19.916C68.1555 19.916 66.9915 18.944 66.8115 17.36H68.2755C68.3715 18.128 68.9595 18.584 69.8595 18.584C70.8675 18.584 71.5155 17.948 71.5155 16.964V15.98C71.1435 16.532 70.4115 16.88 69.5595 16.88C67.8795 16.88 66.7755 15.62 66.7755 13.904ZM68.2515 13.868C68.2515 14.864 68.8875 15.608 69.8475 15.608C70.8555 15.608 71.4795 14.9 71.4795 13.868C71.4795 12.86 70.8675 12.164 69.8475 12.164C68.8755 12.164 68.2515 12.896 68.2515 13.868ZM78.2026 11.048V12.404H77.6626C76.6066 12.404 75.9466 12.968 75.9466 14.12V17H74.4826V11.084H75.8626L75.9466 11.948C76.1986 11.36 76.7626 10.964 77.5546 10.964C77.7586 10.964 77.9626 10.988 78.2026 11.048ZM80.7231 17.156C79.4631 17.156 78.6951 16.424 78.6951 15.308C78.6951 14.216 79.4871 13.532 80.8911 13.424L82.6671 13.292V13.16C82.6671 12.356 82.1871 12.032 81.4431 12.032C80.5791 12.032 80.0991 12.392 80.0991 13.016H78.8511C78.8511 11.732 79.9071 10.892 81.5151 10.892C83.1111 10.892 84.0951 11.756 84.0951 13.4V17H82.8111L82.7031 16.124C82.4511 16.736 81.6471 17.156 80.7231 17.156ZM81.2031 16.052C82.1031 16.052 82.6791 15.512 82.6791 14.6V14.288L81.4431 14.384C80.5311 14.468 80.1831 14.768 80.1831 15.248C80.1831 15.788 80.5431 16.052 81.2031 16.052ZM85.5333 19.748V11.072H86.8893L86.9853 11.972C87.3453 11.288 88.1253 10.892 89.0253 10.892C90.6933 10.892 91.7973 12.104 91.7973 13.964C91.7973 15.812 90.7893 17.156 89.0253 17.156C88.1373 17.156 87.3693 16.808 86.9973 16.208V19.748H85.5333ZM87.0093 14.036C87.0093 15.104 87.6693 15.836 88.6773 15.836C89.7093 15.836 90.3213 15.092 90.3213 14.036C90.3213 12.98 89.7093 12.224 88.6773 12.224C87.6693 12.224 87.0093 12.968 87.0093 14.036ZM94.427 17H92.963V8.072H94.439V11.84C94.811 11.264 95.507 10.892 96.359 10.892C97.823 10.892 98.591 11.816 98.591 13.352V17H97.127V13.7C97.127 12.704 96.635 12.224 95.891 12.224C94.967 12.224 94.427 12.872 94.427 13.76V17ZM99.5031 15.2H100.895C100.907 15.716 101.291 16.04 101.963 16.04C102.647 16.04 103.019 15.764 103.019 15.332C103.019 15.032 102.863 14.816 102.335 14.696L101.267 14.444C100.199 14.204 99.6831 13.7 99.6831 12.752C99.6831 11.588 100.667 10.892 102.035 10.892C103.367 10.892 104.267 11.66 104.279 12.812H102.887C102.875 12.308 102.539 11.984 101.975 11.984C101.399 11.984 101.063 12.248 101.063 12.692C101.063 13.028 101.327 13.244 101.831 13.364L102.899 13.616C103.895 13.844 104.399 14.3 104.399 15.212C104.399 16.412 103.379 17.156 101.915 17.156C100.439 17.156 99.5031 16.364 99.5031 15.2ZM105.514 19.748V11.072H106.87L106.966 11.972C107.326 11.288 108.106 10.892 109.006 10.892C110.674 10.892 111.778 12.104 111.778 13.964C111.778 15.812 110.77 17.156 109.006 17.156C108.118 17.156 107.35 16.808 106.978 16.208V19.748H105.514ZM106.99 14.036C106.99 15.104 107.65 15.836 108.658 15.836C109.69 15.836 110.302 15.092 110.302 14.036C110.302 12.98 109.69 12.224 108.658 12.224C107.65 12.224 106.99 12.968 106.99 14.036ZM114.708 17.156C113.448 17.156 112.68 16.424 112.68 15.308C112.68 14.216 113.472 13.532 114.876 13.424L116.652 13.292V13.16C116.652 12.356 116.172 12.032 115.428 12.032C114.564 12.032 114.084 12.392 114.084 13.016H112.836C112.836 11.732 113.892 10.892 115.5 10.892C117.096 10.892 118.08 11.756 118.08 13.4V17H116.796L116.688 16.124C116.436 16.736 115.632 17.156 114.708 17.156ZM115.188 16.052C116.088 16.052 116.664 15.512 116.664 14.6V14.288L115.428 14.384C114.516 14.468 114.168 14.768 114.168 15.248C114.168 15.788 114.528 16.052 115.188 16.052ZM119.17 14.024C119.17 12.188 120.382 10.892 122.134 10.892C123.754 10.892 124.858 11.792 125.014 13.22H123.55C123.382 12.548 122.89 12.2 122.194 12.2C121.258 12.2 120.634 12.908 120.634 14.024C120.634 15.14 121.21 15.836 122.146 15.836C122.878 15.836 123.394 15.476 123.55 14.828H125.026C124.846 16.208 123.694 17.156 122.146 17.156C120.346 17.156 119.17 15.908 119.17 14.024ZM126.847 9.884C126.343 9.884 125.947 9.488 125.947 8.996C125.947 8.504 126.343 8.12 126.847 8.12C127.327 8.12 127.723 8.504 127.723 8.996C127.723 9.488 127.327 9.884 126.847 9.884ZM126.115 17V11.072H127.579V17H126.115ZM130.556 17H129.092V11.072H130.448L130.568 11.84C130.94 11.24 131.66 10.892 132.464 10.892C133.952 10.892 134.72 11.816 134.72 13.352V17H133.256V13.7C133.256 12.704 132.764 12.224 132.008 12.224C131.108 12.224 130.556 12.848 130.556 13.808V17ZM135.822 13.904C135.822 12.176 136.95 10.88 138.642 10.88C139.53 10.88 140.226 11.252 140.574 11.888L140.658 11.072H142.014V16.7C142.014 18.68 140.826 19.916 138.906 19.916C137.202 19.916 136.038 18.944 135.858 17.36H137.322C137.418 18.128 138.006 18.584 138.906 18.584C139.914 18.584 140.562 17.948 140.562 16.964V15.98C140.19 16.532 139.458 16.88 138.606 16.88C136.926 16.88 135.822 15.62 135.822 13.904ZM137.298 13.868C137.298 14.864 137.934 15.608 138.894 15.608C139.902 15.608 140.526 14.9 140.526 13.868C140.526 12.86 139.914 12.164 138.894 12.164C137.922 12.164 137.298 12.896 137.298 13.868Z" fill="black"/>
</svg>
