<svg width="101" height="24" viewBox="0 0 101 24" fill="none" xmlns="http://www.w3.org/2000/svg">
<path d="M19.0002 7C19.0002 7.18 18.9902 7.34999 18.9702 7.51999C18.8502 8.96999 18.2102 10.28 17.2402 11.24C16.1602 12.33 14.6602 13 13.0002 13H9.87021C9.37021 13 8.95022 13.37 8.88022 13.86L8.12021 19.14C8.06021 19.53 7.78022 19.85 7.41022 19.95C7.32022 19.99 7.23022 20 7.13022 20H5.1802C4.5602 20 4.09021 19.45 4.19021 18.84L6.5802 4.51001C6.8202 3.06001 8.07022 2 9.54022 2H14.0002C16.7602 2 19.0002 4.24 19.0002 7Z" fill="#1A1A1A"/>
<path d="M20.9997 11C20.9997 12.38 20.4397 13.63 19.5397 14.54C18.6297 15.44 17.3797 16 15.9997 16H13.8497C13.3597 16 12.9397 16.35 12.8597 16.84L12.1398 21.16C12.0598 21.65 11.6397 22 11.1497 22H8.21974C8.03974 22 7.87973 21.96 7.73973 21.88C7.51973 21.76 7.65973 21.47 7.89973 21.37C8.79973 21.08 9.45975 20.31 9.59975 19.35L10.2397 14.93C10.2797 14.68 10.4898 14.5 10.7298 14.5H12.9997C15.0097 14.5 16.8997 13.72 18.2997 12.31C19.1297 11.49 19.7497 10.48 20.1097 9.39004C20.1897 9.14004 20.5197 9.09003 20.6297 9.32003C20.8697 9.84003 20.9997 10.4 20.9997 11Z" fill="#1A1A1A"/>
<path d="M38.44 12.976H36.508V16H34.972V7.228H38.44C40.204 7.228 41.344 8.38 41.344 10.096C41.344 11.788 40.192 12.976 38.44 12.976ZM38.14 8.596H36.508V11.608H38.116C39.172 11.608 39.736 11.044 39.736 10.084C39.736 9.124 39.16 8.596 38.14 8.596ZM43.9497 16.156C42.6897 16.156 41.9217 15.424 41.9217 14.308C41.9217 13.216 42.7137 12.532 44.1177 12.424L45.8937 12.292V12.16C45.8937 11.356 45.4137 11.032 44.6697 11.032C43.8057 11.032 43.3257 11.392 43.3257 12.016H42.0777C42.0777 10.732 43.1337 9.892 44.7417 9.892C46.3377 9.892 47.3217 10.756 47.3217 12.4V16H46.0377L45.9297 15.124C45.6777 15.736 44.8737 16.156 43.9497 16.156ZM44.4297 15.052C45.3297 15.052 45.9057 14.512 45.9057 13.6V13.288L44.6697 13.384C43.7577 13.468 43.4097 13.768 43.4097 14.248C43.4097 14.788 43.7697 15.052 44.4297 15.052ZM48.0798 18.748V17.524H48.9558C49.5318 17.524 49.8918 17.392 50.1438 16.696L50.3118 16.252L47.9238 10.072H49.4718L50.9958 14.392L52.6038 10.072H54.1158L51.2118 17.32C50.7678 18.424 50.1438 18.88 49.1718 18.88C48.7638 18.88 48.4038 18.832 48.0798 18.748ZM54.9474 18.748V10.072H56.3034L56.3994 10.972C56.7594 10.288 57.5394 9.892 58.4394 9.892C60.1074 9.892 61.2114 11.104 61.2114 12.964C61.2114 14.812 60.2034 16.156 58.4394 16.156C57.5514 16.156 56.7834 15.808 56.4114 15.208V18.748H54.9474ZM56.4234 13.036C56.4234 14.104 57.0834 14.836 58.0914 14.836C59.1234 14.836 59.7354 14.092 59.7354 13.036C59.7354 11.98 59.1234 11.224 58.0914 11.224C57.0834 11.224 56.4234 11.968 56.4234 13.036ZM64.1411 16.156C62.8811 16.156 62.1131 15.424 62.1131 14.308C62.1131 13.216 62.9051 12.532 64.3091 12.424L66.0851 12.292V12.16C66.0851 11.356 65.6051 11.032 64.8611 11.032C63.9971 11.032 63.5171 11.392 63.5171 12.016H62.2691C62.2691 10.732 63.3251 9.892 64.9331 9.892C66.5291 9.892 67.5131 10.756 67.5131 12.4V16H66.2291L66.1211 15.124C65.8691 15.736 65.0651 16.156 64.1411 16.156ZM64.6211 15.052C65.5211 15.052 66.0971 14.512 66.0971 13.6V13.288L64.8611 13.384C63.9491 13.468 63.6011 13.768 63.6011 14.248C63.6011 14.788 63.9611 15.052 64.6211 15.052ZM70.4273 16H68.9753V7.072H70.4273V16Z" fill="black"/>
</svg>
