<svg width="134" height="24" viewBox="0 0 134 24" fill="none" xmlns="http://www.w3.org/2000/svg">
<path d="M19.4998 7.49988L18.0098 8.98988L15.0098 5.98988L16.4998 4.49988C16.9198 4.07988 17.4598 3.87988 17.9998 3.87988C18.5398 3.87988 19.0798 4.07988 19.4998 4.49988C20.3298 5.32988 20.3298 6.66988 19.4998 7.49988Z" fill="#1A1A1A"/>
<path d="M17.3104 9.69995L6.50043 20.5C5.67043 21.33 4.33043 21.33 3.50043 20.5C2.67043 19.67 2.67043 18.33 3.50043 17.5L14.3104 6.69995L17.3104 9.69995Z" fill="#1A1A1A"/>
<path d="M9.94953 3.50002L10.3595 2.11002C10.3995 1.98002 10.3595 1.84002 10.2695 1.74002C10.1795 1.64002 10.0195 1.60002 9.88953 1.64002L8.49953 2.05002L7.10953 1.64002C6.97953 1.60002 6.83953 1.64002 6.73953 1.73002C6.63953 1.83002 6.60953 1.97002 6.64953 2.10002L7.04953 3.50002L6.63953 4.89002C6.59953 5.02002 6.63953 5.16002 6.72953 5.26002C6.82953 5.36002 6.96953 5.39002 7.09953 5.35002L8.49953 4.95002L9.88953 5.36002C9.92953 5.37002 9.95953 5.38002 9.99953 5.38002C10.0995 5.38002 10.1895 5.34002 10.2695 5.27002C10.3695 5.17002 10.3995 5.03002 10.3595 4.90002L9.94953 3.50002Z" fill="#1A1A1A"/>
<path d="M5.94953 9.50002L6.35953 8.11002C6.39953 7.98002 6.35953 7.84002 6.26953 7.74002C6.16953 7.64002 6.02953 7.61002 5.89953 7.65002L4.49953 8.05002L3.10953 7.64002C2.97953 7.60002 2.83953 7.64002 2.73953 7.73002C2.63953 7.83002 2.60953 7.97002 2.64953 8.10002L3.04953 9.50002L2.63953 10.89C2.59953 11.02 2.63953 11.16 2.72953 11.26C2.82953 11.36 2.96953 11.39 3.09953 11.35L4.48953 10.94L5.87953 11.35C5.90953 11.36 5.94953 11.36 5.98953 11.36C6.08953 11.36 6.17953 11.32 6.25953 11.25C6.35953 11.15 6.38953 11.01 6.34953 10.88L5.94953 9.50002Z" fill="#1A1A1A"/>
<path d="M20.9497 14.5L21.3597 13.11C21.3997 12.98 21.3597 12.84 21.2697 12.74C21.1697 12.64 21.0297 12.61 20.8997 12.65L19.5097 13.06L18.1197 12.65C17.9897 12.61 17.8497 12.65 17.7497 12.74C17.6497 12.84 17.6197 12.98 17.6597 13.11L18.0697 14.5L17.6597 15.89C17.6197 16.02 17.6597 16.16 17.7497 16.26C17.8497 16.36 17.9897 16.39 18.1197 16.35L19.5097 15.94L20.8997 16.35C20.9297 16.36 20.9697 16.36 21.0097 16.36C21.1097 16.36 21.1997 16.32 21.2797 16.25C21.3797 16.15 21.4097 16.01 21.3697 15.88L20.9497 14.5Z" fill="#1A1A1A"/>
<path d="M36.46 16H34.972V7.228H36.46L39.292 14.212L42.124 7.228H43.636V16H42.148V13.3C42.148 11.536 42.148 11.02 42.232 10.396L40 16H38.584L36.364 10.408C36.448 10.936 36.46 11.764 36.46 12.856V16ZM47.1255 16.156C45.8655 16.156 45.0975 15.424 45.0975 14.308C45.0975 13.216 45.8895 12.532 47.2935 12.424L49.0695 12.292V12.16C49.0695 11.356 48.5895 11.032 47.8455 11.032C46.9815 11.032 46.5015 11.392 46.5015 12.016H45.2535C45.2535 10.732 46.3095 9.892 47.9175 9.892C49.5135 9.892 50.4975 10.756 50.4975 12.4V16H49.2135L49.1055 15.124C48.8535 15.736 48.0495 16.156 47.1255 16.156ZM47.6055 15.052C48.5055 15.052 49.0815 14.512 49.0815 13.6V13.288L47.8455 13.384C46.9335 13.468 46.5855 13.768 46.5855 14.248C46.5855 14.788 46.9455 15.052 47.6055 15.052ZM51.5997 12.904C51.5997 11.176 52.7277 9.88 54.4197 9.88C55.3077 9.88 56.0037 10.252 56.3517 10.888L56.4357 10.072H57.7917V15.7C57.7917 17.68 56.6037 18.916 54.6837 18.916C52.9797 18.916 51.8157 17.944 51.6357 16.36H53.0997C53.1957 17.128 53.7837 17.584 54.6837 17.584C55.6917 17.584 56.3397 16.948 56.3397 15.964V14.98C55.9677 15.532 55.2357 15.88 54.3837 15.88C52.7037 15.88 51.5997 14.62 51.5997 12.904ZM53.0757 12.868C53.0757 13.864 53.7117 14.608 54.6717 14.608C55.6797 14.608 56.3037 13.9 56.3037 12.868C56.3037 11.86 55.6917 11.164 54.6717 11.164C53.6997 11.164 53.0757 11.896 53.0757 12.868ZM60.0388 8.884C59.5348 8.884 59.1388 8.488 59.1388 7.996C59.1388 7.504 59.5348 7.12 60.0388 7.12C60.5188 7.12 60.9148 7.504 60.9148 7.996C60.9148 8.488 60.5188 8.884 60.0388 8.884ZM59.3068 16V10.072H60.7708V16H59.3068ZM61.9353 13.024C61.9353 11.188 63.1473 9.892 64.8993 9.892C66.5193 9.892 67.6233 10.792 67.7793 12.22H66.3153C66.1473 11.548 65.6553 11.2 64.9593 11.2C64.0233 11.2 63.3993 11.908 63.3993 13.024C63.3993 14.14 63.9753 14.836 64.9113 14.836C65.6433 14.836 66.1593 14.476 66.3153 13.828H67.7913C67.6113 15.208 66.4593 16.156 64.9113 16.156C63.1113 16.156 61.9353 14.908 61.9353 13.024ZM68.881 18.748V10.072H70.237L70.333 10.972C70.693 10.288 71.473 9.892 72.373 9.892C74.041 9.892 75.145 11.104 75.145 12.964C75.145 14.812 74.137 16.156 72.373 16.156C71.485 16.156 70.717 15.808 70.345 15.208V18.748H68.881ZM70.357 13.036C70.357 14.104 71.017 14.836 72.025 14.836C73.057 14.836 73.669 14.092 73.669 13.036C73.669 11.98 73.057 11.224 72.025 11.224C71.017 11.224 70.357 11.968 70.357 13.036ZM78.9627 16.156C77.1987 16.156 75.9627 14.872 75.9627 13.036C75.9627 11.176 77.1747 9.892 78.9147 9.892C80.6907 9.892 81.8187 11.08 81.8187 12.928V13.372L77.3547 13.384C77.4627 14.428 78.0147 14.956 78.9867 14.956C79.7907 14.956 80.3187 14.644 80.4867 14.08H81.8427C81.5907 15.376 80.5107 16.156 78.9627 16.156ZM78.9267 11.092C78.0627 11.092 77.5347 11.56 77.3907 12.448H80.3667C80.3667 11.632 79.8027 11.092 78.9267 11.092ZM84.4544 16H82.9904V10.072H84.3464L84.4664 10.84C84.8384 10.24 85.5584 9.892 86.3624 9.892C87.8504 9.892 88.6184 10.816 88.6184 12.352V16H87.1544V12.7C87.1544 11.704 86.6624 11.224 85.9064 11.224C85.0064 11.224 84.4544 11.848 84.4544 12.808V16Z" fill="black"/>
</svg>
