<svg width="156" height="24" viewBox="0 0 156 24" fill="none" xmlns="http://www.w3.org/2000/svg">
<path d="M17 3H7C4 3 2 4.5 2 8V15C2 18.5 4 20 7 20H10.57C11.16 20 11.64 19.48 11.56 18.89C11.46 18.18 11.48 17.44 11.63 16.68C12.16 14.08 14.3 12.01 16.92 11.58C18.23 11.37 19.48 11.55 20.58 12.03C21.25 12.32 22 11.86 22 11.13V8C22 4.5 20 3 17 3ZM17.47 8.59L14.34 11.09C13.68 11.62 12.84 11.88 12 11.88C11.16 11.88 10.31 11.62 9.66 11.09L6.53 8.59C6.21 8.33 6.16 7.86 6.41 7.53C6.67 7.21 7.14 7.15 7.46 7.41L10.59 9.91C11.35 10.52 12.64 10.52 13.4 9.91L16.53 7.41C16.85 7.15 17.33 7.2 17.58 7.53C17.84 7.86 17.79 8.33 17.47 8.59Z" fill="#1A1A1A"/>
<path d="M18 13C15.24 13 13 15.23 13 18C13 20.76 15.24 23 18 23C20.77 23 23 20.76 23 18C23 15.23 20.77 13 18 13ZM20.05 17.55L19.68 17.91L17.5 20.1C17.4 20.19 17.21 20.29 17.07 20.31L16.09 20.45C15.74 20.5 15.49 20.25 15.54 19.9L15.68 18.92C15.7 18.78 15.79 18.59 15.89 18.49L18.07 16.32L18.43 15.95C18.67 15.71 18.94 15.55 19.22 15.55C19.46 15.55 19.73 15.66 20.03 15.95C20.7 16.6 20.49 17.11 20.05 17.55Z" fill="#1A1A1A"/>
<path d="M34.4685 9.676C34.4685 8.14 35.7405 7.072 37.5885 7.072C39.3645 7.072 40.4925 8.056 40.5405 9.64H39.0045C38.9685 8.884 38.4285 8.44 37.5645 8.44C36.6165 8.44 36.0045 8.896 36.0045 9.628C36.0045 10.252 36.3405 10.6 37.0725 10.768L38.4525 11.068C39.9525 11.392 40.6845 12.16 40.6845 13.468C40.6845 15.1 39.4125 16.156 37.4805 16.156C35.6085 16.156 34.3845 15.16 34.3485 13.588H35.8845C35.8965 14.332 36.4965 14.776 37.4805 14.776C38.5005 14.776 39.1485 14.332 39.1485 13.6C39.1485 13.012 38.8485 12.664 38.1285 12.508L36.7365 12.196C35.2485 11.872 34.4685 11.02 34.4685 9.676ZM43.3221 16H41.8581V10.072H43.2021L43.3221 10.768C43.6221 10.276 44.2221 9.892 45.0741 9.892C45.9741 9.892 46.5981 10.336 46.9101 11.02C47.2101 10.336 47.9061 9.892 48.8061 9.892C50.2461 9.892 51.0381 10.756 51.0381 12.124V16H49.5861V12.508C49.5861 11.656 49.1301 11.212 48.4341 11.212C47.7261 11.212 47.1861 11.668 47.1861 12.64V16H45.7221V12.496C45.7221 11.668 45.2781 11.224 44.5821 11.224C43.8861 11.224 43.3221 11.68 43.3221 12.64V16ZM51.9489 14.2H53.3409C53.3529 14.716 53.7369 15.04 54.4089 15.04C55.0929 15.04 55.4649 14.764 55.4649 14.332C55.4649 14.032 55.3089 13.816 54.7809 13.696L53.7129 13.444C52.6449 13.204 52.1289 12.7 52.1289 11.752C52.1289 10.588 53.1129 9.892 54.4809 9.892C55.8129 9.892 56.7129 10.66 56.7249 11.812H55.3329C55.3209 11.308 54.9849 10.984 54.4209 10.984C53.8449 10.984 53.5089 11.248 53.5089 11.692C53.5089 12.028 53.7729 12.244 54.2769 12.364L55.3449 12.616C56.3409 12.844 56.8449 13.3 56.8449 14.212C56.8449 15.412 55.8249 16.156 54.3609 16.156C52.8849 16.156 51.9489 15.364 51.9489 14.2ZM57.7953 13.444V12.148H61.6593V13.444H57.7953ZM65.803 16.156C64.039 16.156 62.803 14.872 62.803 13.036C62.803 11.176 64.015 9.892 65.755 9.892C67.531 9.892 68.659 11.08 68.659 12.928V13.372L64.195 13.384C64.303 14.428 64.855 14.956 65.827 14.956C66.631 14.956 67.159 14.644 67.327 14.08H68.683C68.431 15.376 67.351 16.156 65.803 16.156ZM65.767 11.092C64.903 11.092 64.375 11.56 64.231 12.448H67.207C67.207 11.632 66.643 11.092 65.767 11.092ZM72.2667 16.156C70.5507 16.156 69.4827 14.896 69.4827 13.06C69.4827 11.212 70.5627 9.892 72.3507 9.892C73.1787 9.892 73.9107 10.24 74.2827 10.828V7.072H75.7347V16H74.3907L74.2947 15.076C73.9347 15.76 73.1667 16.156 72.2667 16.156ZM72.5907 14.812C73.6107 14.812 74.2707 14.08 74.2707 13.012C74.2707 11.944 73.6107 11.2 72.5907 11.2C71.5707 11.2 70.9467 11.956 70.9467 13.012C70.9467 14.068 71.5707 14.812 72.5907 14.812ZM77.9924 8.884C77.4884 8.884 77.0924 8.488 77.0924 7.996C77.0924 7.504 77.4884 7.12 77.9924 7.12C78.4724 7.12 78.8684 7.504 78.8684 7.996C78.8684 8.488 78.4724 8.884 77.9924 8.884ZM77.2604 16V10.072H78.7244V16H77.2604ZM82.253 16H80.789V11.296H79.649V10.072H80.789V8.224H82.253V10.072H83.405V11.296H82.253V16Z" fill="black"/>
</svg>
