<svg width="200" height="24" viewBox="0 0 200 24" fill="none" xmlns="http://www.w3.org/2000/svg">
<path d="M16.19 2H7.81C4.17 2 2 4.17 2 7.81V16.18C2 19.83 4.17 22 7.81 22H16.18C19.82 22 21.99 19.83 21.99 16.19V7.81C22 4.17 19.83 2 16.19 2ZM16.78 9.7L11.11 15.37C10.97 15.51 10.78 15.59 10.58 15.59C10.38 15.59 10.19 15.51 10.05 15.37L7.22 12.54C6.93 12.25 6.93 11.77 7.22 11.48C7.51 11.19 7.99 11.19 8.28 11.48L10.58 13.78L15.72 8.64C16.01 8.35 16.49 8.35 16.78 8.64C17.07 8.93 17.07 9.4 16.78 9.7Z" fill="#1A1A1A"/>
<path d="M34.204 8.644V7.228H40.876V8.644H38.308V16H36.772V8.644H34.204ZM42.5661 8.884C42.0621 8.884 41.6661 8.488 41.6661 7.996C41.6661 7.504 42.0621 7.12 42.5661 7.12C43.0461 7.12 43.4421 7.504 43.4421 7.996C43.4421 8.488 43.0461 8.884 42.5661 8.884ZM41.8341 16V10.072H43.2981V16H41.8341ZM44.4627 13.024C44.4627 11.188 45.6747 9.892 47.4267 9.892C49.0467 9.892 50.1507 10.792 50.3067 12.22H48.8427C48.6747 11.548 48.1827 11.2 47.4867 11.2C46.5507 11.2 45.9267 11.908 45.9267 13.024C45.9267 14.14 46.5027 14.836 47.4387 14.836C48.1707 14.836 48.6867 14.476 48.8427 13.828H50.3187C50.1387 15.208 48.9867 16.156 47.4387 16.156C45.6387 16.156 44.4627 14.908 44.4627 13.024ZM52.8843 16H51.4323V7.072H52.8843V12.556L55.1883 10.072H57.0243L54.7683 12.424L56.9763 16H55.2963L53.7483 13.504L52.8843 14.404V16ZM57.0799 13.444V12.148H60.9439V13.444H57.0799ZM61.8976 14.2H63.2896C63.3016 14.716 63.6856 15.04 64.3576 15.04C65.0416 15.04 65.4136 14.764 65.4136 14.332C65.4136 14.032 65.2576 13.816 64.7296 13.696L63.6616 13.444C62.5936 13.204 62.0776 12.7 62.0776 11.752C62.0776 10.588 63.0616 9.892 64.4296 9.892C65.7616 9.892 66.6616 10.66 66.6736 11.812H65.2816C65.2696 11.308 64.9336 10.984 64.3696 10.984C63.7936 10.984 63.4576 11.248 63.4576 11.692C63.4576 12.028 63.7216 12.244 64.2256 12.364L65.2936 12.616C66.2896 12.844 66.7936 13.3 66.7936 14.212C66.7936 15.412 65.7736 16.156 64.3096 16.156C62.8336 16.156 61.8976 15.364 61.8976 14.2ZM67.5603 12.964C67.5603 11.104 68.6643 9.892 70.3323 9.892C71.2323 9.892 72.0123 10.288 72.3723 10.972L72.4683 10.072H73.8123V18.748H72.3603V15.208C71.9883 15.808 71.2083 16.156 70.3323 16.156C68.5683 16.156 67.5603 14.812 67.5603 12.964ZM69.0243 13.036C69.0243 14.092 69.6483 14.836 70.6683 14.836C71.6883 14.836 72.3483 14.104 72.3483 13.036C72.3483 11.968 71.6883 11.224 70.6683 11.224C69.6483 11.224 69.0243 11.98 69.0243 13.036ZM79.358 10.072H80.822V16H79.466L79.358 15.208C78.998 15.772 78.23 16.156 77.438 16.156C76.07 16.156 75.266 15.232 75.266 13.78V10.072H76.73V13.264C76.73 14.392 77.174 14.848 77.99 14.848C78.914 14.848 79.358 14.308 79.358 13.18V10.072ZM84.0981 16.156C82.8381 16.156 82.0701 15.424 82.0701 14.308C82.0701 13.216 82.8621 12.532 84.2661 12.424L86.0421 12.292V12.16C86.0421 11.356 85.5621 11.032 84.8181 11.032C83.9541 11.032 83.4741 11.392 83.4741 12.016H82.2261C82.2261 10.732 83.2821 9.892 84.8901 9.892C86.4861 9.892 87.4701 10.756 87.4701 12.4V16H86.1861L86.0781 15.124C85.8261 15.736 85.0221 16.156 84.0981 16.156ZM84.5781 15.052C85.4781 15.052 86.0541 14.512 86.0541 13.6V13.288L84.8181 13.384C83.9061 13.468 83.5581 13.768 83.5581 14.248C83.5581 14.788 83.9181 15.052 84.5781 15.052ZM92.6283 10.048V11.404H92.0883C91.0323 11.404 90.3723 11.968 90.3723 13.12V16H88.9083V10.084H90.2883L90.3723 10.948C90.6243 10.36 91.1883 9.964 91.9803 9.964C92.1843 9.964 92.3883 9.988 92.6283 10.048ZM96.072 16.156C94.308 16.156 93.072 14.872 93.072 13.036C93.072 11.176 94.284 9.892 96.024 9.892C97.8 9.892 98.928 11.08 98.928 12.928V13.372L94.464 13.384C94.572 14.428 95.124 14.956 96.096 14.956C96.9 14.956 97.428 14.644 97.596 14.08H98.952C98.7 15.376 97.62 16.156 96.072 16.156ZM96.036 11.092C95.172 11.092 94.644 11.56 94.5 12.448H97.476C97.476 11.632 96.912 11.092 96.036 11.092Z" fill="black"/>
</svg>
