<svg width="119" height="24" viewBox="0 0 119 24" fill="none" xmlns="http://www.w3.org/2000/svg">
<path d="M17 3.5H7C4 3.5 2 5 2 8.5V15.5C2 19 4 20.5 7 20.5H17C20 20.5 22 19 22 15.5V8.5C22 5 20 3.5 17 3.5ZM6.25 14.5C6.25 14.91 5.91 15.25 5.5 15.25C5.09 15.25 4.75 14.91 4.75 14.5V9.5C4.75 9.09 5.09 8.75 5.5 8.75C5.91 8.75 6.25 9.09 6.25 9.5V14.5ZM12 15C10.34 15 9 13.66 9 12C9 10.34 10.34 9 12 9C13.66 9 15 10.34 15 12C15 13.66 13.66 15 12 15ZM19.25 14.5C19.25 14.91 18.91 15.25 18.5 15.25C18.09 15.25 17.75 14.91 17.75 14.5V9.5C17.75 9.09 18.09 8.75 18.5 8.75C18.91 8.75 19.25 9.09 19.25 9.5V14.5Z" fill="#1A1A1A"/>
<path d="M36.46 16H34.972V7.228H36.46L39.292 14.212L42.124 7.228H43.636V16H42.148V13.3C42.148 11.536 42.148 11.02 42.232 10.396L40 16H38.584L36.364 10.408C36.448 10.936 36.46 11.764 36.46 12.856V16ZM45.0135 13.024C45.0135 11.176 46.3455 9.904 48.1815 9.904C50.0175 9.904 51.3495 11.176 51.3495 13.024C51.3495 14.872 50.0175 16.144 48.1815 16.144C46.3455 16.144 45.0135 14.872 45.0135 13.024ZM46.4775 13.024C46.4775 14.104 47.1735 14.836 48.1815 14.836C49.1895 14.836 49.8855 14.104 49.8855 13.024C49.8855 11.944 49.1895 11.212 48.1815 11.212C47.1735 11.212 46.4775 11.944 46.4775 13.024ZM53.9739 16H52.5099V10.072H53.8659L53.9859 10.84C54.3579 10.24 55.0779 9.892 55.8819 9.892C57.3699 9.892 58.1379 10.816 58.1379 12.352V16H56.6739V12.7C56.6739 11.704 56.1819 11.224 55.4259 11.224C54.5259 11.224 53.9739 11.848 53.9739 12.808V16ZM62.2283 16.156C60.4643 16.156 59.2283 14.872 59.2283 13.036C59.2283 11.176 60.4403 9.892 62.1803 9.892C63.9563 9.892 65.0843 11.08 65.0843 12.928V13.372L60.6203 13.384C60.7283 14.428 61.2803 14.956 62.2523 14.956C63.0563 14.956 63.5843 14.644 63.7523 14.08H65.1083C64.8563 15.376 63.7763 16.156 62.2283 16.156ZM62.1923 11.092C61.3283 11.092 60.8003 11.56 60.6563 12.448H63.6323C63.6323 11.632 63.0683 11.092 62.1923 11.092ZM65.5408 18.748V17.524H66.4168C66.9928 17.524 67.3528 17.392 67.6048 16.696L67.7728 16.252L65.3848 10.072H66.9328L68.4568 14.392L70.0648 10.072H71.5768L68.6728 17.32C68.2288 18.424 67.6048 18.88 66.6328 18.88C66.2248 18.88 65.8648 18.832 65.5408 18.748Z" fill="black"/>
</svg>
