<svg width="154" height="24" viewBox="0 0 154 24" fill="none" xmlns="http://www.w3.org/2000/svg">
<path d="M1.22986 21.6817L1.98986 20.9217C1.58986 20.3217 1.35986 19.6017 1.35986 18.8317C1.35986 16.7217 3.06986 15.0117 5.17986 15.0117C7.28986 15.0117 8.99986 16.7117 8.99986 18.8217C8.99986 20.9317 7.28986 22.6417 5.17986 22.6417C4.40986 22.6417 3.68986 22.4117 3.08986 22.0117L2.32986 22.7717C2.16986 22.9217 1.96986 23.0017 1.76986 23.0017C1.56986 23.0017 1.36986 22.9217 1.21986 22.7717C0.919859 22.4717 0.919859 21.9817 1.22986 21.6817Z" fill="#1A1A1A"/>
<path d="M21.5 12.5H19C17.9 12.5 17 13.4 17 14.5C17 15.6 17.9 16.5 19 16.5H21.5C21.78 16.5 22 16.28 22 16V13C22 12.72 21.78 12.5 21.5 12.5Z" fill="#1A1A1A"/>
<path d="M16.5302 5.39997C16.8302 5.68997 16.5802 6.13997 16.1602 6.13997L7.88021 6.12997C7.40021 6.12997 7.16021 5.54997 7.50021 5.20997L9.25021 3.44997C10.7302 1.97997 13.1202 1.97997 14.6002 3.44997L16.4902 5.35997C16.5002 5.36997 16.5202 5.38997 16.5302 5.39997Z" fill="#1A1A1A"/>
<path d="M21.8704 18.66C21.2604 20.72 19.5004 22 17.1004 22H10.6004C10.2104 22 9.96035 21.57 10.1204 21.21C10.4204 20.51 10.6104 19.72 10.6104 19C10.6104 15.97 8.14035 13.5 5.11035 13.5C4.35035 13.5 3.61035 13.66 2.93035 13.96C2.56035 14.12 2.11035 13.87 2.11035 13.47V12C2.11035 9.28 3.75035 7.38 6.30035 7.06C6.55035 7.02 6.82035 7 7.10035 7H17.1004C17.3604 7 17.6104 7.01 17.8504 7.05C19.8704 7.28 21.3304 8.51 21.8704 10.34C21.9704 10.67 21.7304 11 21.3904 11H19.1004C16.9304 11 15.2104 12.98 15.6804 15.23C16.0104 16.87 17.5304 18 19.2004 18H21.3904C21.7404 18 21.9704 18.34 21.8704 18.66Z" fill="#1A1A1A"/>
<path d="M36.796 17L34.18 8.228H35.776L37.168 12.86C37.3 13.34 37.432 13.832 37.564 14.6C37.708 13.82 37.84 13.364 37.996 12.86L39.376 8.228H41.068L42.424 12.86C42.568 13.352 42.7 13.856 42.844 14.6C43.012 13.784 43.132 13.316 43.264 12.872L44.68 8.228H46.24L43.576 17H42.088L40.216 10.616L38.308 17H36.796ZM48.0513 17.156C46.7913 17.156 46.0233 16.424 46.0233 15.308C46.0233 14.216 46.8153 13.532 48.2193 13.424L49.9953 13.292V13.16C49.9953 12.356 49.5153 12.032 48.7713 12.032C47.9073 12.032 47.4273 12.392 47.4273 13.016H46.1793C46.1793 11.732 47.2353 10.892 48.8433 10.892C50.4393 10.892 51.4233 11.756 51.4233 13.4V17H50.1393L50.0313 16.124C49.7793 16.736 48.9753 17.156 48.0513 17.156ZM48.5312 16.052C49.4313 16.052 50.0073 15.512 50.0073 14.6V14.288L48.7713 14.384C47.8593 14.468 47.5113 14.768 47.5113 15.248C47.5113 15.788 47.8713 16.052 48.5312 16.052ZM54.3375 17H52.8855V8.072H54.3375V17ZM57.3492 17H55.8972V8.072H57.3492V17ZM61.5369 17.156C59.7729 17.156 58.5369 15.872 58.5369 14.036C58.5369 12.176 59.7489 10.892 61.4889 10.892C63.2649 10.892 64.3929 12.08 64.3929 13.928V14.372L59.9289 14.384C60.0369 15.428 60.5889 15.956 61.5609 15.956C62.3649 15.956 62.8929 15.644 63.0609 15.08H64.4169C64.1649 16.376 63.0849 17.156 61.5369 17.156ZM61.5009 12.092C60.6369 12.092 60.1089 12.56 59.9649 13.448H62.9409C62.9409 12.632 62.3769 12.092 61.5009 12.092ZM67.522 17H66.058V12.296H64.918V11.072H66.058V9.224H67.522V11.072H68.674V12.296H67.522V17ZM69.3378 14.444V13.148H73.2018V14.444H69.3378ZM74.1555 15.2H75.5475C75.5595 15.716 75.9435 16.04 76.6155 16.04C77.2995 16.04 77.6715 15.764 77.6715 15.332C77.6715 15.032 77.5155 14.816 76.9875 14.696L75.9195 14.444C74.8515 14.204 74.3355 13.7 74.3355 12.752C74.3355 11.588 75.3195 10.892 76.6875 10.892C78.0195 10.892 78.9195 11.66 78.9315 12.812H77.5395C77.5275 12.308 77.1915 11.984 76.6275 11.984C76.0515 11.984 75.7155 12.248 75.7155 12.692C75.7155 13.028 75.9795 13.244 76.4835 13.364L77.5515 13.616C78.5475 13.844 79.0515 14.3 79.0515 15.212C79.0515 16.412 78.0315 17.156 76.5675 17.156C75.0915 17.156 74.1555 16.364 74.1555 15.2ZM82.8182 17.156C81.0542 17.156 79.8182 15.872 79.8182 14.036C79.8182 12.176 81.0302 10.892 82.7702 10.892C84.5462 10.892 85.6742 12.08 85.6742 13.928V14.372L81.2102 14.384C81.3182 15.428 81.8702 15.956 82.8422 15.956C83.6462 15.956 84.1742 15.644 84.3422 15.08H85.6982C85.4462 16.376 84.3662 17.156 82.8182 17.156ZM82.7822 12.092C81.9182 12.092 81.3902 12.56 81.2462 13.448H84.2222C84.2222 12.632 83.6582 12.092 82.7822 12.092ZM88.5513 17.156C87.2913 17.156 86.5233 16.424 86.5233 15.308C86.5233 14.216 87.3153 13.532 88.7193 13.424L90.4953 13.292V13.16C90.4953 12.356 90.0153 12.032 89.2713 12.032C88.4073 12.032 87.9273 12.392 87.9273 13.016H86.6793C86.6793 11.732 87.7353 10.892 89.3433 10.892C90.9393 10.892 91.9233 11.756 91.9233 13.4V17H90.6393L90.5313 16.124C90.2793 16.736 89.4753 17.156 88.5513 17.156ZM89.0312 16.052C89.9313 16.052 90.5073 15.512 90.5073 14.6V14.288L89.2713 14.384C88.3593 14.468 88.0113 14.768 88.0113 15.248C88.0113 15.788 88.3713 16.052 89.0312 16.052ZM97.0815 11.048V12.404H96.5415C95.4855 12.404 94.8255 12.968 94.8255 14.12V17H93.3615V11.084H94.7415L94.8255 11.948C95.0775 11.36 95.6415 10.964 96.4335 10.964C96.6375 10.964 96.8415 10.988 97.0815 11.048ZM97.5252 14.024C97.5252 12.188 98.7372 10.892 100.489 10.892C102.109 10.892 103.213 11.792 103.369 13.22H101.905C101.737 12.548 101.245 12.2 100.549 12.2C99.6132 12.2 98.9892 12.908 98.9892 14.024C98.9892 15.14 99.5652 15.836 100.501 15.836C101.233 15.836 101.749 15.476 101.905 14.828H103.381C103.201 16.208 102.049 17.156 100.501 17.156C98.7012 17.156 97.5252 15.908 97.5252 14.024ZM105.935 17H104.471V8.072H105.947V11.84C106.319 11.264 107.015 10.892 107.867 10.892C109.331 10.892 110.099 11.816 110.099 13.352V17H108.635V13.7C108.635 12.704 108.143 12.224 107.399 12.224C106.475 12.224 105.935 12.872 105.935 13.76V17Z" fill="black"/>
</svg>
