<svg width="200" height="24" viewBox="0 0 200 24" fill="none" xmlns="http://www.w3.org/2000/svg">
<path d="M18.0199 12.33L16.7999 11.11C16.5099 10.86 16.3399 10.49 16.3299 10.08C16.3099 9.63 16.4899 9.18 16.8199 8.85L18.0199 7.65C19.0599 6.61 19.4499 5.61 19.1199 4.82C18.7999 4.04 17.8099 3.61 16.3499 3.61H5.8999V2.75C5.8999 2.34 5.5599 2 5.1499 2C4.7399 2 4.3999 2.34 4.3999 2.75V21.25C4.3999 21.66 4.7399 22 5.1499 22C5.5599 22 5.8999 21.66 5.8999 21.25V16.37H16.3499C17.7899 16.37 18.7599 15.93 19.0899 15.14C19.4199 14.35 19.0399 13.36 18.0199 12.33Z" fill="#1A1A1A"/>
<path d="M39.772 12.412H36.508V16H34.972V7.228H40.396V8.644H36.508V11.032H39.772V12.412ZM43.0406 16H41.5886V7.072H43.0406V16ZM46.3403 16.156C45.0803 16.156 44.3123 15.424 44.3123 14.308C44.3123 13.216 45.1043 12.532 46.5083 12.424L48.2843 12.292V12.16C48.2843 11.356 47.8043 11.032 47.0603 11.032C46.1963 11.032 45.7163 11.392 45.7163 12.016H44.4683C44.4683 10.732 45.5243 9.892 47.1323 9.892C48.7283 9.892 49.7123 10.756 49.7123 12.4V16H48.4283L48.3203 15.124C48.0683 15.736 47.2643 16.156 46.3403 16.156ZM46.8203 15.052C47.7203 15.052 48.2963 14.512 48.2963 13.6V13.288L47.0603 13.384C46.1483 13.468 45.8003 13.768 45.8003 14.248C45.8003 14.788 46.1603 15.052 46.8203 15.052ZM50.8145 12.904C50.8145 11.176 51.9425 9.88 53.6345 9.88C54.5225 9.88 55.2185 10.252 55.5665 10.888L55.6505 10.072H57.0065V15.7C57.0065 17.68 55.8185 18.916 53.8985 18.916C52.1945 18.916 51.0305 17.944 50.8505 16.36H52.3145C52.4105 17.128 52.9985 17.584 53.8985 17.584C54.9065 17.584 55.5545 16.948 55.5545 15.964V14.98C55.1825 15.532 54.4505 15.88 53.5985 15.88C51.9185 15.88 50.8145 14.62 50.8145 12.904ZM52.2905 12.868C52.2905 13.864 52.9265 14.608 53.8865 14.608C54.8945 14.608 55.5185 13.9 55.5185 12.868C55.5185 11.86 54.9065 11.164 53.8865 11.164C52.9145 11.164 52.2905 11.896 52.2905 12.868Z" fill="black"/>
</svg>
