<svg width="142" height="24" viewBox="0 0 142 24" fill="none" xmlns="http://www.w3.org/2000/svg">
<path d="M16.19 2H7.81C4.17 2 2 4.17 2 7.81V16.18C2 19.83 4.17 22 7.81 22H16.18C19.82 22 21.99 19.83 21.99 16.19V7.81C22 4.17 19.83 2 16.19 2ZM14.79 12.53L11.26 16.06C11.11 16.21 10.92 16.28 10.73 16.28C10.54 16.28 10.35 16.21 10.2 16.06C9.91 15.77 9.91 15.29 10.2 15L13.2 12L10.2 9C9.91 8.71 9.91 8.23 10.2 7.94C10.49 7.65 10.97 7.65 11.26 7.94L14.79 11.47C15.09 11.76 15.09 12.24 14.79 12.53Z" fill="#1A1A1A"/>
<path d="M35.728 17H34.132L37.3 8.228H38.872L42.04 17H40.42L39.712 14.972H36.436L35.728 17ZM37.888 10.844L36.892 13.676H39.268L38.26 10.844C38.188 10.616 38.104 10.352 38.08 10.172C38.044 10.34 37.972 10.604 37.888 10.844ZM46.644 11.048V12.404H46.104C45.048 12.404 44.388 12.968 44.388 14.12V17H42.924V11.084H44.304L44.388 11.948C44.64 11.36 45.204 10.964 45.996 10.964C46.2 10.964 46.404 10.988 46.644 11.048ZM51.3549 11.048V12.404H50.8149C49.7589 12.404 49.0989 12.968 49.0989 14.12V17H47.6349V11.084H49.0149L49.0989 11.948C49.3509 11.36 49.9149 10.964 50.7069 10.964C50.9109 10.964 51.1149 10.988 51.3549 11.048ZM51.7986 14.024C51.7986 12.176 53.1306 10.904 54.9666 10.904C56.8026 10.904 58.1346 12.176 58.1346 14.024C58.1346 15.872 56.8026 17.144 54.9666 17.144C53.1306 17.144 51.7986 15.872 51.7986 14.024ZM53.2626 14.024C53.2626 15.104 53.9586 15.836 54.9666 15.836C55.9746 15.836 56.6706 15.104 56.6706 14.024C56.6706 12.944 55.9746 12.212 54.9666 12.212C53.9586 12.212 53.2626 12.944 53.2626 14.024ZM60.3101 17L58.3901 11.072H59.9141L60.6941 13.616C60.8261 14.084 60.9461 14.6 61.0541 15.152C61.1621 14.576 61.2701 14.204 61.4621 13.616L62.2781 11.072H63.7661L64.5581 13.616C64.6301 13.856 64.8701 14.744 64.9421 15.14C65.0381 14.696 65.2301 13.988 65.3381 13.616L66.1301 11.072H67.6781L65.6261 17H64.2581L63.4421 14.432C63.2021 13.652 63.0701 13.088 63.0221 12.788C62.9621 13.064 62.8541 13.484 62.5541 14.456L61.7381 17H60.3101ZM68.1424 14.444V13.148H72.0064V14.444H68.1424ZM72.9602 15.2H74.3522C74.3642 15.716 74.7482 16.04 75.4202 16.04C76.1042 16.04 76.4762 15.764 76.4762 15.332C76.4762 15.032 76.3202 14.816 75.7922 14.696L74.7242 14.444C73.6562 14.204 73.1402 13.7 73.1402 12.752C73.1402 11.588 74.1242 10.892 75.4922 10.892C76.8242 10.892 77.7242 11.66 77.7362 12.812H76.3442C76.3322 12.308 75.9962 11.984 75.4322 11.984C74.8562 11.984 74.5202 12.248 74.5202 12.692C74.5202 13.028 74.7842 13.244 75.2882 13.364L76.3562 13.616C77.3522 13.844 77.8562 14.3 77.8562 15.212C77.8562 16.412 76.8362 17.156 75.3722 17.156C73.8962 17.156 72.9602 16.364 72.9602 15.2ZM78.6228 13.964C78.6228 12.104 79.7268 10.892 81.3948 10.892C82.2948 10.892 83.0748 11.288 83.4348 11.972L83.5308 11.072H84.8748V19.748H83.4228V16.208C83.0508 16.808 82.2708 17.156 81.3948 17.156C79.6308 17.156 78.6228 15.812 78.6228 13.964ZM80.0868 14.036C80.0868 15.092 80.7108 15.836 81.7308 15.836C82.7508 15.836 83.4108 15.104 83.4108 14.036C83.4108 12.968 82.7508 12.224 81.7308 12.224C80.7108 12.224 80.0868 12.98 80.0868 14.036ZM90.4205 11.072H91.8845V17H90.5285L90.4205 16.208C90.0605 16.772 89.2925 17.156 88.5005 17.156C87.1325 17.156 86.3285 16.232 86.3285 14.78V11.072H87.7925V14.264C87.7925 15.392 88.2365 15.848 89.0525 15.848C89.9765 15.848 90.4205 15.308 90.4205 14.18V11.072ZM95.1606 17.156C93.9006 17.156 93.1326 16.424 93.1326 15.308C93.1326 14.216 93.9246 13.532 95.3286 13.424L97.1046 13.292V13.16C97.1046 12.356 96.6246 12.032 95.8806 12.032C95.0166 12.032 94.5366 12.392 94.5366 13.016H93.2886C93.2886 11.732 94.3446 10.892 95.9526 10.892C97.5486 10.892 98.5326 11.756 98.5326 13.4V17H97.2486L97.1406 16.124C96.8886 16.736 96.0846 17.156 95.1606 17.156ZM95.6406 16.052C96.5406 16.052 97.1166 15.512 97.1166 14.6V14.288L95.8806 14.384C94.9686 14.468 94.6206 14.768 94.6206 15.248C94.6206 15.788 94.9806 16.052 95.6406 16.052ZM103.691 11.048V12.404H103.151C102.095 12.404 101.435 12.968 101.435 14.12V17H99.9708V11.084H101.351L101.435 11.948C101.687 11.36 102.251 10.964 103.043 10.964C103.247 10.964 103.451 10.988 103.691 11.048ZM107.135 17.156C105.371 17.156 104.135 15.872 104.135 14.036C104.135 12.176 105.347 10.892 107.087 10.892C108.863 10.892 109.991 12.08 109.991 13.928V14.372L105.527 14.384C105.635 15.428 106.187 15.956 107.159 15.956C107.963 15.956 108.491 15.644 108.659 15.08H110.015C109.763 16.376 108.683 17.156 107.135 17.156ZM107.099 12.092C106.235 12.092 105.707 12.56 105.563 13.448H108.539C108.539 12.632 107.975 12.092 107.099 12.092ZM111.15 14.444V13.148H115.014V14.444H111.15ZM120.226 11.048V12.404H119.686C118.63 12.404 117.97 12.968 117.97 14.12V17H116.506V11.084H117.886L117.97 11.948C118.222 11.36 118.786 10.964 119.578 10.964C119.782 10.964 119.986 10.988 120.226 11.048ZM121.949 9.884C121.445 9.884 121.049 9.488 121.049 8.996C121.049 8.504 121.445 8.12 121.949 8.12C122.429 8.12 122.825 8.504 122.825 8.996C122.825 9.488 122.429 9.884 121.949 9.884ZM121.217 17V11.072H122.681V17H121.217ZM123.858 13.904C123.858 12.176 124.986 10.88 126.678 10.88C127.566 10.88 128.262 11.252 128.61 11.888L128.694 11.072H130.049V16.7C130.049 18.68 128.862 19.916 126.942 19.916C125.238 19.916 124.074 18.944 123.894 17.36H125.358C125.454 18.128 126.042 18.584 126.942 18.584C127.95 18.584 128.598 17.948 128.598 16.964V15.98C128.226 16.532 127.494 16.88 126.642 16.88C124.962 16.88 123.858 15.62 123.858 13.904ZM125.334 13.868C125.334 14.864 125.97 15.608 126.93 15.608C127.938 15.608 128.562 14.9 128.562 13.868C128.562 12.86 127.95 12.164 126.93 12.164C125.958 12.164 125.334 12.896 125.334 13.868ZM133.029 17H131.565V8.072H133.041V11.84C133.413 11.264 134.109 10.892 134.961 10.892C136.425 10.892 137.193 11.816 137.193 13.352V17H135.729V13.7C135.729 12.704 135.237 12.224 134.493 12.224C133.569 12.224 133.029 12.872 133.029 13.76V17ZM140.647 17H139.183V12.296H138.043V11.072H139.183V9.224H140.647V11.072H141.799V12.296H140.647V17Z" fill="black"/>
</svg>
