<svg width="116" height="24" viewBox="0 0 116 24" fill="none" xmlns="http://www.w3.org/2000/svg">
<path d="M10.0801 11.8299H11.7301L11.9201 10.1699H10.2701L10.0801 11.8299Z" fill="#1A1A1A"/>
<path d="M21.97 7.21C21.77 4.13 19.87 2.23 16.79 2.03C16.59 2.01 16.39 2 16.19 2H7.81C7.61 2 7.41 2.01 7.21 2.03C4.13 2.23 2.23 4.13 2.03 7.21C2.01 7.41 2 7.61 2 7.81V16.19C2 16.39 2.01 16.59 2.03 16.79C2.23 19.87 4.13 21.77 7.21 21.97C7.41 21.99 7.61 22 7.81 22H13.5C14.05 22 14.5 21.55 14.5 21V18.03C14.5 16.08 16.08 14.5 18.03 14.5H21C21.55 14.5 22 14.05 22 13.5V7.81C22 7.61 21.99 7.41 21.97 7.21ZM16 10.17H13.43L13.24 11.83H15.47C15.89 11.83 16.22 12.17 16.22 12.58C16.22 12.99 15.89 13.33 15.47 13.33H13.08L12.8 15.82C12.76 16.2 12.43 16.49 12.05 16.49C12.03 16.49 12 16.49 11.97 16.48C11.56 16.44 11.26 16.07 11.31 15.65L11.57 13.33H9.92L9.64 15.82C9.6 16.2 9.27 16.49 8.9 16.49C8.87 16.49 8.84 16.49 8.81 16.48C8.4 16.44 8.1 16.07 8.15 15.65L8.41 13.33H6C5.59 13.33 5.25 12.99 5.25 12.58C5.25 12.17 5.59 11.83 6 11.83H8.57L8.76 10.17H6.53C6.11 10.17 5.78 9.83 5.78 9.42C5.78 9.01 6.11 8.67 6.53 8.67H8.92L9.2 6.18C9.25 5.77 9.62 5.47 10.03 5.52C10.44 5.56 10.74 5.93 10.69 6.35L10.43 8.67H12.08L12.36 6.18C12.41 5.77 12.78 5.47 13.19 5.52C13.6 5.56 13.9 5.93 13.85 6.35L13.59 8.67H16C16.41 8.67 16.75 9.01 16.75 9.42C16.75 9.83 16.41 10.17 16 10.17Z" fill="#1A1A1A"/>
<path d="M20.97 23H18.03C16.76 23 16 22.24 16 20.97V18.03C16 16.76 16.76 16 18.03 16H20.97C22.24 16 23 16.76 23 18.03V20.97C23 22.24 22.24 23 20.97 23ZM21.19 19.69C21.07 19.57 20.91 19.51 20.75 19.51C20.59 19.51 20.43 19.57 20.31 19.69L20.13 19.87V17.63C20.13 17.28 19.85 17 19.5 17C19.15 17 18.87 17.28 18.87 17.63V19.87L18.69 19.69C18.45 19.45 18.05 19.45 17.81 19.69C17.57 19.93 17.57 20.33 17.81 20.57L19.06 21.82C19.11 21.87 19.18 21.91 19.25 21.94C19.27 21.95 19.29 21.95 19.31 21.96C19.36 21.98 19.41 21.99 19.47 21.99C19.49 21.99 19.51 21.99 19.53 21.99C19.6 21.99 19.66 21.98 19.73 21.95C19.74 21.95 19.74 21.95 19.75 21.95C19.82 21.92 19.88 21.88 19.93 21.83C19.94 21.82 19.94 21.82 19.95 21.82L21.2 20.57C21.44 20.33 21.44 19.93 21.19 19.69Z" fill="#1A1A1A"/>
<path d="M36.508 17H34.972V8.228H36.508V11.852H40.396V8.228H41.932V17H40.396V13.28H36.508V17ZM45.4263 17.156C44.1663 17.156 43.3983 16.424 43.3983 15.308C43.3983 14.216 44.1903 13.532 45.5943 13.424L47.3703 13.292V13.16C47.3703 12.356 46.8903 12.032 46.1463 12.032C45.2823 12.032 44.8023 12.392 44.8023 13.016H43.5543C43.5543 11.732 44.6103 10.892 46.2183 10.892C47.8143 10.892 48.7983 11.756 48.7983 13.4V17H47.5143L47.4063 16.124C47.1543 16.736 46.3503 17.156 45.4263 17.156ZM45.9062 16.052C46.8063 16.052 47.3823 15.512 47.3823 14.6V14.288L46.1463 14.384C45.2343 14.468 44.8863 14.768 44.8863 15.248C44.8863 15.788 45.2463 16.052 45.9062 16.052ZM49.7805 15.2H51.1725C51.1845 15.716 51.5685 16.04 52.2405 16.04C52.9245 16.04 53.2965 15.764 53.2965 15.332C53.2965 15.032 53.1405 14.816 52.6125 14.696L51.5445 14.444C50.4765 14.204 49.9605 13.7 49.9605 12.752C49.9605 11.588 50.9445 10.892 52.3125 10.892C53.6445 10.892 54.5445 11.66 54.5565 12.812H53.1645C53.1525 12.308 52.8165 11.984 52.2525 11.984C51.6765 11.984 51.3405 12.248 51.3405 12.692C51.3405 13.028 51.6045 13.244 52.1085 13.364L53.1765 13.616C54.1725 13.844 54.6765 14.3 54.6765 15.212C54.6765 16.412 53.6565 17.156 52.1925 17.156C50.7165 17.156 49.7805 16.364 49.7805 15.2ZM57.2552 17H55.7912V8.072H57.2672V11.84C57.6392 11.264 58.3352 10.892 59.1872 10.892C60.6512 10.892 61.4192 11.816 61.4192 13.352V17H59.9552V13.7C59.9552 12.704 59.4632 12.224 58.7192 12.224C57.7952 12.224 57.2552 12.872 57.2552 13.76V17ZM64.8736 17H63.4096V12.296H62.2696V11.072H63.4096V9.224H64.8736V11.072H66.0256V12.296H64.8736V17ZM68.6645 17.156C67.4045 17.156 66.6365 16.424 66.6365 15.308C66.6365 14.216 67.4285 13.532 68.8325 13.424L70.6085 13.292V13.16C70.6085 12.356 70.1285 12.032 69.3845 12.032C68.5205 12.032 68.0405 12.392 68.0405 13.016H66.7925C66.7925 11.732 67.8485 10.892 69.4565 10.892C71.0525 10.892 72.0365 11.756 72.0365 13.4V17H70.7525L70.6445 16.124C70.3925 16.736 69.5885 17.156 68.6645 17.156ZM69.1445 16.052C70.0445 16.052 70.6205 15.512 70.6205 14.6V14.288L69.3845 14.384C68.4725 14.468 68.1245 14.768 68.1245 15.248C68.1245 15.788 68.4845 16.052 69.1445 16.052ZM73.1388 13.904C73.1388 12.176 74.2668 10.88 75.9588 10.88C76.8468 10.88 77.5428 11.252 77.8908 11.888L77.9748 11.072H79.3307V16.7C79.3307 18.68 78.1428 19.916 76.2228 19.916C74.5188 19.916 73.3548 18.944 73.1748 17.36H74.6388C74.7348 18.128 75.3228 18.584 76.2228 18.584C77.2308 18.584 77.8788 17.948 77.8788 16.964V15.98C77.5068 16.532 76.7748 16.88 75.9228 16.88C74.2428 16.88 73.1388 15.62 73.1388 13.904ZM74.6148 13.868C74.6148 14.864 75.2508 15.608 76.2108 15.608C77.2188 15.608 77.8428 14.9 77.8428 13.868C77.8428 12.86 77.2308 12.164 76.2108 12.164C75.2388 12.164 74.6148 12.896 74.6148 13.868ZM80.8338 14.444V13.148H84.6978V14.444H80.8338ZM88.6256 17.156C86.9096 17.156 85.8416 15.896 85.8416 14.06C85.8416 12.212 86.9216 10.892 88.7096 10.892C89.5376 10.892 90.2696 11.24 90.6416 11.828V8.072H92.0936V17H90.7496L90.6536 16.076C90.2936 16.76 89.5256 17.156 88.6256 17.156ZM88.9496 15.812C89.9696 15.812 90.6296 15.08 90.6296 14.012C90.6296 12.944 89.9696 12.2 88.9496 12.2C87.9296 12.2 87.3056 12.956 87.3056 14.012C87.3056 15.068 87.9296 15.812 88.9496 15.812ZM93.2713 14.024C93.2713 12.176 94.6033 10.904 96.4393 10.904C98.2753 10.904 99.6073 12.176 99.6073 14.024C99.6073 15.872 98.2753 17.144 96.4393 17.144C94.6033 17.144 93.2713 15.872 93.2713 14.024ZM94.7353 14.024C94.7353 15.104 95.4313 15.836 96.4393 15.836C97.4473 15.836 98.1433 15.104 98.1433 14.024C98.1433 12.944 97.4473 12.212 96.4393 12.212C95.4313 12.212 94.7353 12.944 94.7353 14.024ZM101.783 17L99.8628 11.072H101.387L102.167 13.616C102.299 14.084 102.419 14.6 102.527 15.152C102.635 14.576 102.743 14.204 102.935 13.616L103.751 11.072H105.239L106.031 13.616C106.103 13.856 106.343 14.744 106.415 15.14C106.511 14.696 106.703 13.988 106.811 13.616L107.603 11.072H109.151L107.099 17H105.731L104.915 14.432C104.675 13.652 104.543 13.088 104.495 12.788C104.435 13.064 104.327 13.484 104.027 14.456L103.211 17H101.783ZM111.501 17H110.037V11.072H111.393L111.513 11.84C111.885 11.24 112.605 10.892 113.409 10.892C114.897 10.892 115.665 11.816 115.665 13.352V17H114.201V13.7C114.201 12.704 113.709 12.224 112.953 12.224C112.053 12.224 111.501 12.848 111.501 13.808V17Z" fill="black"/>
</svg>
