<svg width="100" height="24" viewBox="0 0 100 24" fill="none" xmlns="http://www.w3.org/2000/svg">
<path d="M10.0801 11.8299H11.7301L11.9201 10.1699H10.2701L10.0801 11.8299Z" fill="#1A1A1A"/>
<path d="M21.97 7.21C21.77 4.13 19.87 2.23 16.79 2.03C16.59 2.01 16.39 2 16.19 2H7.81C7.61 2 7.41 2.01 7.21 2.03C4.13 2.23 2.23 4.13 2.03 7.21C2.01 7.41 2 7.61 2 7.81V16.19C2 16.39 2.01 16.59 2.03 16.79C2.23 19.87 4.13 21.77 7.21 21.97C7.41 21.99 7.61 22 7.81 22H13.5C14.05 22 14.5 21.55 14.5 21V18.03C14.5 16.08 16.08 14.5 18.03 14.5H21C21.55 14.5 22 14.05 22 13.5V7.81C22 7.61 21.99 7.41 21.97 7.21ZM16 10.17H13.43L13.24 11.83H15.47C15.89 11.83 16.22 12.17 16.22 12.58C16.22 12.99 15.89 13.33 15.47 13.33H13.08L12.8 15.82C12.76 16.2 12.43 16.49 12.05 16.49C12.03 16.49 12 16.49 11.97 16.48C11.56 16.44 11.26 16.07 11.31 15.65L11.57 13.33H9.92L9.64 15.82C9.6 16.2 9.27 16.49 8.9 16.49C8.87 16.49 8.84 16.49 8.81 16.48C8.4 16.44 8.1 16.07 8.15 15.65L8.41 13.33H6C5.59 13.33 5.25 12.99 5.25 12.58C5.25 12.17 5.59 11.83 6 11.83H8.57L8.76 10.17H6.53C6.11 10.17 5.78 9.83 5.78 9.42C5.78 9.01 6.11 8.67 6.53 8.67H8.92L9.2 6.18C9.25 5.77 9.62 5.47 10.03 5.52C10.44 5.56 10.74 5.93 10.69 6.35L10.43 8.67H12.08L12.36 6.18C12.41 5.77 12.78 5.47 13.19 5.52C13.6 5.56 13.9 5.93 13.85 6.35L13.59 8.67H16C16.41 8.67 16.75 9.01 16.75 9.42C16.75 9.83 16.41 10.17 16 10.17Z" fill="#1A1A1A"/>
<path d="M20.97 16H18.03C16.76 16 16 16.76 16 18.03V20.97C16 22.24 16.76 23 18.03 23H20.97C22.24 23 23 22.24 23 20.97V18.03C23 16.76 22.24 16 20.97 16ZM21.19 19.31C21.07 19.43 20.91 19.49 20.75 19.49C20.59 19.49 20.43 19.43 20.31 19.31L20.13 19.13V21.37C20.13 21.72 19.85 22 19.5 22C19.15 22 18.87 21.72 18.87 21.37V19.13L18.69 19.31C18.45 19.55 18.05 19.55 17.81 19.31C17.57 19.07 17.57 18.67 17.81 18.43L19.06 17.18C19.11 17.13 19.18 17.09 19.25 17.06C19.27 17.05 19.29 17.05 19.31 17.04C19.36 17.02 19.41 17.01 19.47 17.01C19.49 17.01 19.51 17.01 19.53 17.01C19.6 17.01 19.66 17.02 19.73 17.05C19.74 17.05 19.74 17.05 19.75 17.05C19.82 17.08 19.88 17.12 19.93 17.17C19.94 17.18 19.94 17.18 19.95 17.18L21.2 18.43C21.44 18.67 21.44 19.07 21.19 19.31Z" fill="#1A1A1A"/>
<path d="M36.508 16H34.972V7.228H36.508V10.852H40.396V7.228H41.932V16H40.396V12.28H36.508V16ZM45.4263 16.156C44.1663 16.156 43.3983 15.424 43.3983 14.308C43.3983 13.216 44.1903 12.532 45.5943 12.424L47.3703 12.292V12.16C47.3703 11.356 46.8903 11.032 46.1463 11.032C45.2823 11.032 44.8023 11.392 44.8023 12.016H43.5543C43.5543 10.732 44.6103 9.892 46.2183 9.892C47.8143 9.892 48.7983 10.756 48.7983 12.4V16H47.5143L47.4063 15.124C47.1543 15.736 46.3503 16.156 45.4263 16.156ZM45.9062 15.052C46.8063 15.052 47.3823 14.512 47.3823 13.6V13.288L46.1463 13.384C45.2343 13.468 44.8863 13.768 44.8863 14.248C44.8863 14.788 45.2463 15.052 45.9062 15.052ZM49.7805 14.2H51.1725C51.1845 14.716 51.5685 15.04 52.2405 15.04C52.9245 15.04 53.2965 14.764 53.2965 14.332C53.2965 14.032 53.1405 13.816 52.6125 13.696L51.5445 13.444C50.4765 13.204 49.9605 12.7 49.9605 11.752C49.9605 10.588 50.9445 9.892 52.3125 9.892C53.6445 9.892 54.5445 10.66 54.5565 11.812H53.1645C53.1525 11.308 52.8165 10.984 52.2525 10.984C51.6765 10.984 51.3405 11.248 51.3405 11.692C51.3405 12.028 51.6045 12.244 52.1085 12.364L53.1765 12.616C54.1725 12.844 54.6765 13.3 54.6765 14.212C54.6765 15.412 53.6565 16.156 52.1925 16.156C50.7165 16.156 49.7805 15.364 49.7805 14.2ZM57.2552 16H55.7912V7.072H57.2672V10.84C57.6392 10.264 58.3352 9.892 59.1872 9.892C60.6512 9.892 61.4192 10.816 61.4192 12.352V16H59.9552V12.7C59.9552 11.704 59.4632 11.224 58.7192 11.224C57.7952 11.224 57.2552 11.872 57.2552 12.76V16ZM64.8736 16H63.4096V11.296H62.2696V10.072H63.4096V8.224H64.8736V10.072H66.0256V11.296H64.8736V16ZM68.6645 16.156C67.4045 16.156 66.6365 15.424 66.6365 14.308C66.6365 13.216 67.4285 12.532 68.8325 12.424L70.6085 12.292V12.16C70.6085 11.356 70.1285 11.032 69.3845 11.032C68.5205 11.032 68.0405 11.392 68.0405 12.016H66.7925C66.7925 10.732 67.8485 9.892 69.4565 9.892C71.0525 9.892 72.0365 10.756 72.0365 12.4V16H70.7525L70.6445 15.124C70.3925 15.736 69.5885 16.156 68.6645 16.156ZM69.1445 15.052C70.0445 15.052 70.6205 14.512 70.6205 13.6V13.288L69.3845 13.384C68.4725 13.468 68.1245 13.768 68.1245 14.248C68.1245 14.788 68.4845 15.052 69.1445 15.052ZM73.1388 12.904C73.1388 11.176 74.2668 9.88 75.9588 9.88C76.8468 9.88 77.5428 10.252 77.8908 10.888L77.9748 10.072H79.3307V15.7C79.3307 17.68 78.1428 18.916 76.2228 18.916C74.5188 18.916 73.3548 17.944 73.1748 16.36H74.6388C74.7348 17.128 75.3228 17.584 76.2228 17.584C77.2308 17.584 77.8788 16.948 77.8788 15.964V14.98C77.5068 15.532 76.7748 15.88 75.9228 15.88C74.2428 15.88 73.1388 14.62 73.1388 12.904ZM74.6148 12.868C74.6148 13.864 75.2508 14.608 76.2108 14.608C77.2188 14.608 77.8428 13.9 77.8428 12.868C77.8428 11.86 77.2308 11.164 76.2108 11.164C75.2388 11.164 74.6148 11.896 74.6148 12.868ZM80.8338 13.444V12.148H84.6978V13.444H80.8338ZM90.2096 10.072H91.6736V16H90.3176L90.2096 15.208C89.8496 15.772 89.0816 16.156 88.2896 16.156C86.9216 16.156 86.1176 15.232 86.1176 13.78V10.072H87.5816V13.264C87.5816 14.392 88.0256 14.848 88.8416 14.848C89.7656 14.848 90.2096 14.308 90.2096 13.18V10.072ZM93.1857 18.748V10.072H94.5417L94.6377 10.972C94.9977 10.288 95.7777 9.892 96.6777 9.892C98.3457 9.892 99.4497 11.104 99.4497 12.964C99.4497 14.812 98.4417 16.156 96.6777 16.156C95.7897 16.156 95.0217 15.808 94.6497 15.208V18.748H93.1857ZM94.6617 13.036C94.6617 14.104 95.3217 14.836 96.3297 14.836C97.3617 14.836 97.9737 14.092 97.9737 13.036C97.9737 11.98 97.3617 11.224 96.3297 11.224C95.3217 11.224 94.6617 11.968 94.6617 13.036Z" fill="black"/>
</svg>
