<svg width="136" height="24" viewBox="0 0 136 24" fill="none" xmlns="http://www.w3.org/2000/svg">
<path d="M5.97 1H3.03C1.76 1 1 1.76 1 3.03V5.97C1 7.24 1.76 8 3.03 8H5.97C7.24 8 8 7.24 8 5.97V3.03C8 1.76 7.24 1 5.97 1ZM6.47 5.56C6.72 5.81 6.72 6.22 6.47 6.47C6.34 6.59 6.17 6.65 6.01 6.65C5.85 6.65 5.69 6.59 5.56 6.47L4.49 5.41L3.45 6.47C3.32 6.59 3.16 6.65 2.98 6.65C2.82 6.65 2.66 6.59 2.53 6.47C2.28 6.22 2.28 5.81 2.53 5.56L3.6 4.5L2.54 3.45C2.29 3.2 2.29 2.79 2.54 2.54C2.79 2.29 3.2 2.29 3.45 2.54L4.49 3.6L5.55 2.54C5.8 2.29 6.21 2.29 6.46 2.54C6.71 2.79 6.71 3.2 6.46 3.45L5.41 4.5L6.47 5.56Z" fill="#1A1A1A"/>
<path d="M21.4999 15.8199C21.4999 15.9699 21.4499 16.1199 21.3199 16.2499C19.8699 17.7099 17.2899 20.3099 15.8099 21.7999C15.6799 21.9399 15.5099 21.9999 15.3399 21.9999C15.0099 21.9999 14.6899 21.7399 14.6899 21.3599V17.8599C14.6899 16.3999 15.9299 15.1899 17.4499 15.1899C18.3999 15.1799 19.7199 15.1799 20.8499 15.1799C21.2399 15.1799 21.4999 15.4899 21.4999 15.8199Z" fill="#1A1A1A"/>
<path d="M21.4999 15.8199C21.4999 15.9699 21.4499 16.1199 21.3199 16.2499C19.8699 17.7099 17.2899 20.3099 15.8099 21.7999C15.6799 21.9399 15.5099 21.9999 15.3399 21.9999C15.0099 21.9999 14.6899 21.7399 14.6899 21.3599V17.8599C14.6899 16.3999 15.9299 15.1899 17.4499 15.1899C18.3999 15.1799 19.7199 15.1799 20.8499 15.1799C21.2399 15.1799 21.4999 15.4899 21.4999 15.8199Z" fill="#1A1A1A"/>
<path d="M16.63 2H10.5C9.95 2 9.5 2.45 9.5 3V6.5C9.5 8.16 8.16 9.5 6.5 9.5H3.5C2.95 9.5 2.5 9.95 2.5 10.5V17.13C2.5 19.82 4.68 22 7.37 22H12.19C12.74 22 13.19 21.55 13.19 21V17.86C13.19 15.56 15.1 13.69 17.45 13.69C17.98 13.68 19.27 13.68 20.5 13.68C21.05 13.68 21.5 13.24 21.5 12.68V6.87C21.5 4.18 19.32 2 16.63 2ZM8.72 17.01H6.08C5.67 17.01 5.33 16.67 5.33 16.26C5.33 15.84 5.67 15.5 6.08 15.5H8.72C9.15 15.5 9.47 15.84 9.47 16.26C9.47 16.67 9.15 17.01 8.72 17.01ZM11.51 13.3H6.08C5.67 13.3 5.33 12.96 5.33 12.55C5.33 12.13 5.67 11.79 6.08 11.79H11.51C11.92 11.79 12.27 12.13 12.27 12.55C12.27 12.96 11.92 13.3 11.51 13.3Z" fill="#1A1A1A"/>
<path d="M36.484 17H34.972V8.228H36.496L40.612 14.444V8.228H42.124V17H40.612L36.484 10.784V17ZM43.5018 14.024C43.5018 12.176 44.8338 10.904 46.6698 10.904C48.5058 10.904 49.8378 12.176 49.8378 14.024C49.8378 15.872 48.5058 17.144 46.6698 17.144C44.8338 17.144 43.5018 15.872 43.5018 14.024ZM44.9658 14.024C44.9658 15.104 45.6618 15.836 46.6698 15.836C47.6778 15.836 48.3738 15.104 48.3738 14.024C48.3738 12.944 47.6778 12.212 46.6698 12.212C45.6618 12.212 44.9658 12.944 44.9658 14.024ZM52.9556 17H51.4916V12.296H50.3516V11.072H51.4916V9.224H52.9556V11.072H54.1076V12.296H52.9556V17ZM57.6111 17.156C55.8471 17.156 54.6111 15.872 54.6111 14.036C54.6111 12.176 55.8231 10.892 57.5631 10.892C59.3391 10.892 60.4671 12.08 60.4671 13.928V14.372L56.0031 14.384C56.1111 15.428 56.6631 15.956 57.6351 15.956C58.4391 15.956 58.9671 15.644 59.1351 15.08H60.4911C60.2391 16.376 59.1591 17.156 57.6111 17.156ZM57.5751 12.092C56.7111 12.092 56.1831 12.56 56.0391 13.448H59.0151C59.0151 12.632 58.4511 12.092 57.5751 12.092ZM61.6268 14.444V13.148H65.4908V14.444H61.6268ZM70.7026 11.048V12.404H70.1626C69.1066 12.404 68.4466 12.968 68.4466 14.12V17H66.9826V11.084H68.3626L68.4466 11.948C68.6986 11.36 69.2626 10.964 70.0546 10.964C70.2586 10.964 70.4626 10.988 70.7026 11.048ZM74.1463 17.156C72.3823 17.156 71.1463 15.872 71.1463 14.036C71.1463 12.176 72.3583 10.892 74.0983 10.892C75.8743 10.892 77.0023 12.08 77.0023 13.928V14.372L72.5383 14.384C72.6463 15.428 73.1983 15.956 74.1703 15.956C74.9743 15.956 75.5023 15.644 75.6703 15.08H77.0263C76.7743 16.376 75.6943 17.156 74.1463 17.156ZM74.1103 12.092C73.2463 12.092 72.7183 12.56 72.5743 13.448H75.5503C75.5503 12.632 74.9863 12.092 74.1103 12.092ZM79.638 17H78.174V11.072H79.518L79.638 11.768C79.938 11.276 80.538 10.892 81.39 10.892C82.29 10.892 82.914 11.336 83.226 12.02C83.526 11.336 84.222 10.892 85.122 10.892C86.562 10.892 87.354 11.756 87.354 13.124V17H85.902V13.508C85.902 12.656 85.446 12.212 84.75 12.212C84.042 12.212 83.502 12.668 83.502 13.64V17H82.038V13.496C82.038 12.668 81.594 12.224 80.898 12.224C80.202 12.224 79.638 12.68 79.638 13.64V17ZM88.4432 14.024C88.4432 12.176 89.7752 10.904 91.6112 10.904C93.4472 10.904 94.7792 12.176 94.7792 14.024C94.7792 15.872 93.4472 17.144 91.6112 17.144C89.7752 17.144 88.4432 15.872 88.4432 14.024ZM89.9072 14.024C89.9072 15.104 90.6032 15.836 91.6112 15.836C92.6192 15.836 93.3152 15.104 93.3152 14.024C93.3152 12.944 92.6192 12.212 91.6112 12.212C90.6032 12.212 89.9072 12.944 89.9072 14.024ZM97.3266 17L94.9746 11.072H96.5346L97.5666 13.796C97.8186 14.504 98.0226 15.116 98.0946 15.44C98.1786 15.068 98.3946 14.444 98.6466 13.796L99.7266 11.072H101.239L98.7666 17H97.3266ZM104.439 17.156C102.675 17.156 101.439 15.872 101.439 14.036C101.439 12.176 102.651 10.892 104.391 10.892C106.167 10.892 107.295 12.08 107.295 13.928V14.372L102.831 14.384C102.939 15.428 103.491 15.956 104.463 15.956C105.267 15.956 105.795 15.644 105.963 15.08H107.319C107.067 16.376 105.987 17.156 104.439 17.156ZM104.403 12.092C103.539 12.092 103.011 12.56 102.867 13.448H105.843C105.843 12.632 105.279 12.092 104.403 12.092Z" fill="black"/>
</svg>
