<svg width="105" height="24" viewBox="0 0 105 24" fill="none" xmlns="http://www.w3.org/2000/svg">
<path d="M13.9802 7.75H10.0102C8.76023 7.75 7.74023 8.76 7.74023 10.02V13.99C7.74023 15.24 8.75023 16.26 10.0102 16.26H13.9802C15.2302 16.26 16.2502 15.25 16.2502 13.99V10.02C16.2502 8.76 15.2402 7.75 13.9802 7.75ZM13.5002 12.98L12.6102 14.53C12.4802 14.76 12.2402 14.88 12.0002 14.88C11.8802 14.88 11.7502 14.85 11.6502 14.79C11.3102 14.6 11.1902 14.17 11.3902 13.83L12.0302 12.72H11.4702C11.0202 12.72 10.6502 12.52 10.4502 12.18C10.2502 11.84 10.2702 11.42 10.5002 11.03L11.3902 9.48C11.5902 9.14 12.0202 9.03 12.3502 9.22C12.6902 9.41 12.8102 9.84 12.6102 10.18L11.9702 11.29H12.5302C12.9802 11.29 13.3502 11.49 13.5502 11.83C13.7502 12.17 13.7302 12.59 13.5002 12.98Z" fill="#1A1A1A"/>
<path d="M21.25 12.75C21.67 12.75 22 12.41 22 12C22 11.58 21.67 11.25 21.25 11.25H20V9.05H21.25C21.67 9.05 22 8.72 22 8.3C22 7.89 21.67 7.55 21.25 7.55H19.77C19.29 5.96 18.04 4.71 16.45 4.23V2.75C16.45 2.34 16.11 2 15.7 2C15.29 2 14.95 2.34 14.95 2.75V4H12.75V2.75C12.75 2.34 12.41 2 12 2C11.59 2 11.25 2.34 11.25 2.75V4H9.06V2.75C9.06 2.34 8.72 2 8.31 2C7.89 2 7.56 2.34 7.56 2.75V4.23C5.96 4.71 4.71 5.96 4.23 7.55H2.75C2.34 7.55 2 7.89 2 8.3C2 8.72 2.34 9.05 2.75 9.05H4V11.25H2.75C2.34 11.25 2 11.58 2 12C2 12.41 2.34 12.75 2.75 12.75H4V14.95H2.75C2.34 14.95 2 15.28 2 15.7C2 16.11 2.34 16.45 2.75 16.45H4.23C4.7 18.04 5.96 19.29 7.56 19.77V21.25C7.56 21.66 7.89 22 8.31 22C8.72 22 9.06 21.66 9.06 21.25V20H11.26V21.25C11.26 21.66 11.59 22 12.01 22C12.42 22 12.76 21.66 12.76 21.25V20H14.95V21.25C14.95 21.66 15.29 22 15.7 22C16.11 22 16.45 21.66 16.45 21.25V19.77C18.04 19.29 19.29 18.04 19.77 16.45H21.25C21.67 16.45 22 16.11 22 15.7C22 15.28 21.67 14.95 21.25 14.95H20V12.75H21.25ZM17.26 14.26C17.26 15.91 15.91 17.26 14.26 17.26H9.74C8.09 17.26 6.74 15.91 6.74 14.26V9.74C6.74 8.09 8.09 6.74 9.74 6.74H14.26C15.91 6.74 17.26 8.09 17.26 9.74V14.26Z" fill="#1A1A1A"/>
<path d="M38.68 17.144C36.124 17.144 34.468 15.368 34.468 12.62C34.468 9.896 36.184 8.084 38.752 8.084C40.828 8.084 42.376 9.296 42.676 11.18H41.056C40.756 10.16 39.88 9.56 38.716 9.56C37.096 9.56 36.076 10.736 36.076 12.608C36.076 14.468 37.108 15.668 38.716 15.668C39.904 15.668 40.816 15.044 41.104 14.072H42.7C42.364 15.92 40.756 17.144 38.68 17.144ZM43.8615 19.748V11.072H45.2175L45.3135 11.972C45.6735 11.288 46.4535 10.892 47.3535 10.892C49.0215 10.892 50.1255 12.104 50.1255 13.964C50.1255 15.812 49.1175 17.156 47.3535 17.156C46.4655 17.156 45.6975 16.808 45.3255 16.208V19.748H43.8615ZM45.3375 14.036C45.3375 15.104 45.9975 15.836 47.0055 15.836C48.0375 15.836 48.6495 15.092 48.6495 14.036C48.6495 12.98 48.0375 12.224 47.0055 12.224C45.9975 12.224 45.3375 12.968 45.3375 14.036ZM55.1705 11.072H56.6345V17H55.2785L55.1705 16.208C54.8105 16.772 54.0425 17.156 53.2505 17.156C51.8825 17.156 51.0785 16.232 51.0785 14.78V11.072H52.5425V14.264C52.5425 15.392 52.9865 15.848 53.8025 15.848C54.7265 15.848 55.1705 15.308 55.1705 14.18V11.072ZM58.1346 14.444V13.148H61.9986V14.444H58.1346ZM63.1424 14.024C63.1424 12.188 64.3544 10.892 66.1064 10.892C67.7264 10.892 68.8304 11.792 68.9864 13.22H67.5224C67.3544 12.548 66.8624 12.2 66.1664 12.2C65.2304 12.2 64.6064 12.908 64.6064 14.024C64.6064 15.14 65.1824 15.836 66.1184 15.836C66.8504 15.836 67.3664 15.476 67.5224 14.828H68.9984C68.8184 16.208 67.6664 17.156 66.1184 17.156C64.3184 17.156 63.1424 15.908 63.1424 14.024ZM71.552 17H70.088V8.072H71.564V11.84C71.936 11.264 72.632 10.892 73.484 10.892C74.948 10.892 75.716 11.816 75.716 13.352V17H74.252V13.7C74.252 12.704 73.76 12.224 73.016 12.224C72.092 12.224 71.552 12.872 71.552 13.76V17ZM78.9184 17.156C77.6584 17.156 76.8904 16.424 76.8904 15.308C76.8904 14.216 77.6824 13.532 79.0864 13.424L80.8624 13.292V13.16C80.8624 12.356 80.3824 12.032 79.6384 12.032C78.7744 12.032 78.2944 12.392 78.2944 13.016H77.0464C77.0464 11.732 78.1024 10.892 79.7104 10.892C81.3064 10.892 82.2904 11.756 82.2904 13.4V17H81.0064L80.8984 16.124C80.6464 16.736 79.8424 17.156 78.9184 17.156ZM79.3984 16.052C80.2984 16.052 80.8744 15.512 80.8744 14.6V14.288L79.6384 14.384C78.7264 14.468 78.3784 14.768 78.3784 15.248C78.3784 15.788 78.7384 16.052 79.3984 16.052ZM87.4487 11.048V12.404H86.9087C85.8527 12.404 85.1927 12.968 85.1927 14.12V17H83.7287V11.084H85.1087L85.1927 11.948C85.4447 11.36 86.0087 10.964 86.8007 10.964C87.0047 10.964 87.2087 10.988 87.4487 11.048ZM87.9513 13.904C87.9513 12.176 89.0793 10.88 90.7713 10.88C91.6593 10.88 92.3553 11.252 92.7033 11.888L92.7873 11.072H94.1432V16.7C94.1432 18.68 92.9553 19.916 91.0353 19.916C89.3313 19.916 88.1673 18.944 87.9873 17.36H89.4513C89.5473 18.128 90.1353 18.584 91.0353 18.584C92.0433 18.584 92.6913 17.948 92.6913 16.964V15.98C92.3193 16.532 91.5873 16.88 90.7353 16.88C89.0553 16.88 87.9513 15.62 87.9513 13.904ZM89.4273 13.868C89.4273 14.864 90.0633 15.608 91.0233 15.608C92.0313 15.608 92.6553 14.9 92.6553 13.868C92.6553 12.86 92.0433 12.164 91.0233 12.164C90.0513 12.164 89.4273 12.896 89.4273 13.868ZM98.3103 17.156C96.5463 17.156 95.3103 15.872 95.3103 14.036C95.3103 12.176 96.5223 10.892 98.2623 10.892C100.038 10.892 101.166 12.08 101.166 13.928V14.372L96.7023 14.384C96.8103 15.428 97.3623 15.956 98.3343 15.956C99.1383 15.956 99.6663 15.644 99.8343 15.08H101.19C100.938 16.376 99.8583 17.156 98.3103 17.156ZM98.2743 12.092C97.4103 12.092 96.8823 12.56 96.7383 13.448H99.7143C99.7143 12.632 99.1503 12.092 98.2743 12.092Z" fill="black"/>
</svg>
