<svg width="178" height="24" viewBox="0 0 178 24" fill="none" xmlns="http://www.w3.org/2000/svg">
<path d="M12 2C6.48 2 2 6.15001 2 11.26C2 14.16 3.43999 16.74 5.67999 18.44V20.29C5.67999 21.06 6.49998 21.54 7.16998 21.16L9.03003 20.11C9.97003 20.38 10.96 20.52 11.99 20.52C17.51 20.52 21.99 16.37 21.99 11.26C22 6.15001 17.52 2 12 2ZM15.51 10.44L13.01 13.43C12.85 13.62 12.59 13.66 12.38 13.54L11.37 12.95C11.26 12.89 11.13 12.87 11 12.9L8.98999 13.39C8.51999 13.5 8.17999 12.95 8.48999 12.58L11.03 9.56C11.18 9.38 11.44 9.33 11.65 9.44L12.83 10.06C12.94 10.12 13.07 10.13 13.19 10.1L15.01 9.63C15.47 9.51 15.82 10.07 15.51 10.44Z" fill="#1A1A1A"/>
<path d="M36.46 16H34.972V7.228H36.46L39.292 14.212L42.124 7.228H43.636V16H42.148V13.3C42.148 11.536 42.148 11.02 42.232 10.396L40 16H38.584L36.364 10.408C36.448 10.936 36.46 11.764 36.46 12.856V16ZM48.0135 16.156C46.2495 16.156 45.0135 14.872 45.0135 13.036C45.0135 11.176 46.2255 9.892 47.9655 9.892C49.7415 9.892 50.8695 11.08 50.8695 12.928V13.372L46.4055 13.384C46.5135 14.428 47.0655 14.956 48.0375 14.956C48.8415 14.956 49.3695 14.644 49.5375 14.08H50.8935C50.6415 15.376 49.5615 16.156 48.0135 16.156ZM47.9775 11.092C47.1135 11.092 46.5855 11.56 46.4415 12.448H49.4175C49.4175 11.632 48.8535 11.092 47.9775 11.092ZM51.5852 14.2H52.9772C52.9892 14.716 53.3732 15.04 54.0452 15.04C54.7292 15.04 55.1012 14.764 55.1012 14.332C55.1012 14.032 54.9452 13.816 54.4172 13.696L53.3492 13.444C52.2812 13.204 51.7652 12.7 51.7652 11.752C51.7652 10.588 52.7492 9.892 54.1172 9.892C55.4492 9.892 56.3492 10.66 56.3612 11.812H54.9692C54.9572 11.308 54.6212 10.984 54.0572 10.984C53.4812 10.984 53.1452 11.248 53.1452 11.692C53.1452 12.028 53.4092 12.244 53.9132 12.364L54.9812 12.616C55.9772 12.844 56.4812 13.3 56.4812 14.212C56.4812 15.412 55.4612 16.156 53.9972 16.156C52.5212 16.156 51.5852 15.364 51.5852 14.2ZM57.1398 14.2H58.5318C58.5438 14.716 58.9278 15.04 59.5998 15.04C60.2838 15.04 60.6558 14.764 60.6558 14.332C60.6558 14.032 60.4998 13.816 59.9718 13.696L58.9038 13.444C57.8358 13.204 57.3198 12.7 57.3198 11.752C57.3198 10.588 58.3038 9.892 59.6718 9.892C61.0038 9.892 61.9038 10.66 61.9158 11.812H60.5238C60.5118 11.308 60.1758 10.984 59.6118 10.984C59.0358 10.984 58.6998 11.248 58.6998 11.692C58.6998 12.028 58.9638 12.244 59.4678 12.364L60.5358 12.616C61.5318 12.844 62.0358 13.3 62.0358 14.212C62.0358 15.412 61.0158 16.156 59.5518 16.156C58.0758 16.156 57.1398 15.364 57.1398 14.2ZM65.8025 16.156C64.0385 16.156 62.8025 14.872 62.8025 13.036C62.8025 11.176 64.0145 9.892 65.7545 9.892C67.5305 9.892 68.6585 11.08 68.6585 12.928V13.372L64.1945 13.384C64.3025 14.428 64.8545 14.956 65.8265 14.956C66.6305 14.956 67.1585 14.644 67.3265 14.08H68.6825C68.4305 15.376 67.3505 16.156 65.8025 16.156ZM65.7665 11.092C64.9025 11.092 64.3745 11.56 64.2305 12.448H67.2065C67.2065 11.632 66.6425 11.092 65.7665 11.092ZM71.2942 16H69.8302V10.072H71.1862L71.3062 10.84C71.6782 10.24 72.3982 9.892 73.2022 9.892C74.6902 9.892 75.4582 10.816 75.4582 12.352V16H73.9942V12.7C73.9942 11.704 73.5022 11.224 72.7462 11.224C71.8462 11.224 71.2942 11.848 71.2942 12.808V16ZM76.5606 12.904C76.5606 11.176 77.6886 9.88 79.3806 9.88C80.2686 9.88 80.9646 10.252 81.3126 10.888L81.3966 10.072H82.7526V15.7C82.7526 17.68 81.5646 18.916 79.6446 18.916C77.9406 18.916 76.7766 17.944 76.5966 16.36H78.0606C78.1566 17.128 78.7446 17.584 79.6446 17.584C80.6526 17.584 81.3006 16.948 81.3006 15.964V14.98C80.9286 15.532 80.1966 15.88 79.3446 15.88C77.6646 15.88 76.5606 14.62 76.5606 12.904ZM78.0366 12.868C78.0366 13.864 78.6726 14.608 79.6326 14.608C80.6406 14.608 81.2646 13.9 81.2646 12.868C81.2646 11.86 80.6526 11.164 79.6326 11.164C78.6606 11.164 78.0366 11.896 78.0366 12.868ZM86.9197 16.156C85.1557 16.156 83.9197 14.872 83.9197 13.036C83.9197 11.176 85.1317 9.892 86.8717 9.892C88.6477 9.892 89.7757 11.08 89.7757 12.928V13.372L85.3117 13.384C85.4197 14.428 85.9717 14.956 86.9437 14.956C87.7477 14.956 88.2757 14.644 88.4437 14.08H89.7997C89.5477 15.376 88.4677 16.156 86.9197 16.156ZM86.8837 11.092C86.0197 11.092 85.4917 11.56 85.3477 12.448H88.3237C88.3237 11.632 87.7597 11.092 86.8837 11.092ZM94.6674 10.048V11.404H94.1274C93.0714 11.404 92.4114 11.968 92.4114 13.12V16H90.9474V10.084H92.3274L92.4114 10.948C92.6634 10.36 93.2274 9.964 94.0194 9.964C94.2234 9.964 94.4274 9.988 94.6674 10.048Z" fill="black"/>
</svg>
