<svg width="101" height="24" viewBox="0 0 101 24" fill="none" xmlns="http://www.w3.org/2000/svg">
<g clip-path="url(#clip0_4083_23137)">
<path d="M8.88003 4.59973C8.08003 1.13973 2.87002 1.12973 2.07002 4.59973C1.60002 6.62973 2.89003 8.34973 4.01003 9.41973C4.83003 10.1897 6.12003 10.1897 6.94003 9.41973C8.06003 8.34973 9.34003 6.62973 8.88003 4.59973ZM5.51003 6.19973C4.96003 6.19973 4.51003 5.74973 4.51003 5.19973C4.51003 4.64973 4.95003 4.19973 5.50003 4.19973H5.51003C6.07003 4.19973 6.51003 4.64973 6.51003 5.19973C6.51003 5.74973 6.07003 6.19973 5.51003 6.19973Z" fill="#1A1A1A"/>
<path d="M21.91 16.5997C21.11 13.1397 15.88 13.1297 15.07 16.5997C14.6 18.6297 15.89 20.3497 17.02 21.4197C17.84 22.1897 19.14 22.1897 19.96 21.4197C21.09 20.3497 22.38 18.6297 21.91 16.5997ZM18.53 18.1997C17.98 18.1997 17.53 17.7497 17.53 17.1997C17.53 16.6497 17.97 16.1997 18.52 16.1997H18.53C19.08 16.1997 19.53 16.6497 19.53 17.1997C19.53 17.7497 19.08 18.1997 18.53 18.1997Z" fill="#1A1A1A"/>
<path d="M11.9999 19.75H9.31994C8.15994 19.75 7.14994 19.05 6.74994 17.97C6.33994 16.89 6.63994 15.7 7.50994 14.93L15.4999 7.94C15.9799 7.52 15.9899 6.95 15.8499 6.56C15.6999 6.17 15.3199 5.75 14.6799 5.75H11.9999C11.5899 5.75 11.2499 5.41 11.2499 5C11.2499 4.59 11.5899 4.25 11.9999 4.25H14.6799C15.8399 4.25 16.8499 4.95 17.2499 6.03C17.6599 7.11 17.3599 8.3 16.4899 9.07L8.49994 16.06C8.01994 16.48 8.00994 17.05 8.14994 17.44C8.29994 17.83 8.67994 18.25 9.31994 18.25H11.9999C12.4099 18.25 12.7499 18.59 12.7499 19C12.7499 19.41 12.4099 19.75 11.9999 19.75Z" fill="#1A1A1A"/>
</g>
<path d="M36.508 16H34.972V7.228H38.32C40.312 7.228 41.476 8.236 41.476 9.964C41.476 11.14 40.924 11.98 39.892 12.4L41.56 16H39.88L38.392 12.724H36.508V16ZM36.508 8.596V11.368H38.32C39.292 11.368 39.868 10.852 39.868 9.964C39.868 9.088 39.292 8.596 38.32 8.596H36.508ZM42.0252 13.024C42.0252 11.176 43.3572 9.904 45.1932 9.904C47.0292 9.904 48.3612 11.176 48.3612 13.024C48.3612 14.872 47.0292 16.144 45.1932 16.144C43.3572 16.144 42.0252 14.872 42.0252 13.024ZM43.4892 13.024C43.4892 14.104 44.1852 14.836 45.1932 14.836C46.2012 14.836 46.8972 14.104 46.8972 13.024C46.8972 11.944 46.2012 11.212 45.1932 11.212C44.1852 11.212 43.4892 11.944 43.4892 13.024ZM53.401 10.072H54.865V16H53.509L53.401 15.208C53.041 15.772 52.273 16.156 51.481 16.156C50.113 16.156 49.309 15.232 49.309 13.78V10.072H50.773V13.264C50.773 14.392 51.217 14.848 52.033 14.848C52.957 14.848 53.401 14.308 53.401 13.18V10.072ZM58.3931 16H56.9291V11.296H55.7891V10.072H56.9291V8.224H58.3931V10.072H59.5451V11.296H58.3931V16ZM61.1872 8.884C60.6832 8.884 60.2872 8.488 60.2872 7.996C60.2872 7.504 60.6832 7.12 61.1872 7.12C61.6672 7.12 62.0632 7.504 62.0632 7.996C62.0632 8.488 61.6672 8.884 61.1872 8.884ZM60.4552 16V10.072H61.9192V16H60.4552ZM64.8958 16H63.4318V10.072H64.7878L64.9078 10.84C65.2798 10.24 65.9998 9.892 66.8038 9.892C68.2918 9.892 69.0598 10.816 69.0598 12.352V16H67.5958V12.7C67.5958 11.704 67.1038 11.224 66.3478 11.224C65.4478 11.224 64.8958 11.848 64.8958 12.808V16ZM70.1622 12.904C70.1622 11.176 71.2902 9.88 72.9822 9.88C73.8702 9.88 74.5662 10.252 74.9142 10.888L74.9982 10.072H76.3542V15.7C76.3542 17.68 75.1662 18.916 73.2462 18.916C71.5422 18.916 70.3782 17.944 70.1982 16.36H71.6622C71.7582 17.128 72.3462 17.584 73.2462 17.584C74.2542 17.584 74.9022 16.948 74.9022 15.964V14.98C74.5302 15.532 73.7982 15.88 72.9462 15.88C71.2662 15.88 70.1622 14.62 70.1622 12.904ZM71.6382 12.868C71.6382 13.864 72.2742 14.608 73.2342 14.608C74.2422 14.608 74.8662 13.9 74.8662 12.868C74.8662 11.86 74.2542 11.164 73.2342 11.164C72.2622 11.164 71.6382 11.896 71.6382 12.868Z" fill="black"/>
<defs>
<clipPath id="clip0_4083_23137">
<rect width="24" height="24" fill="white"/>
</clipPath>
</defs>
</svg>
