<svg width="104" height="24" viewBox="0 0 104 24" fill="none" xmlns="http://www.w3.org/2000/svg">
<path d="M15.1699 13.77C15.1699 14.33 15.6299 14.79 16.1899 14.79H17.2099V12.76H16.1899C15.6299 12.75 15.1699 13.21 15.1699 13.77Z" fill="#1A1A1A"/>
<path d="M16.1898 2H7.81978C4.17978 2 2.00977 4.17 2.00977 7.81V16.18C2.00977 19.82 4.17978 21.99 7.81978 21.99H16.1898C19.8298 21.99 21.9998 19.82 21.9998 16.18V7.81C21.9998 4.17 19.8298 2 16.1898 2ZM12.2798 15.06C12.5398 15.38 12.4898 15.86 12.1598 16.11C12.0198 16.22 11.8598 16.27 11.6898 16.27C11.4698 16.27 11.2498 16.17 11.0998 15.99L8.85977 13.19L6.61977 15.99C6.46977 16.17 6.24977 16.27 6.02977 16.27C5.86977 16.27 5.69977 16.22 5.55977 16.11C5.23977 15.85 5.17977 15.38 5.43977 15.06L7.88977 12L5.43977 8.94C5.17977 8.62 5.22977 8.14001 5.55977 7.89001C5.87977 7.63001 6.35977 7.68001 6.60977 8.01001L8.84978 10.81L11.0898 8.01001C11.3498 7.69001 11.8198 7.63001 12.1398 7.89001C12.4598 8.15001 12.5198 8.62 12.2598 8.94L9.80977 12L12.2798 15.06ZM18.7098 15.53C18.7098 15.94 18.3698 16.28 17.9598 16.28H16.1898C14.7998 16.28 13.6698 15.15 13.6698 13.76C13.6698 12.37 14.7998 11.24 16.1898 11.24H17.2098V8.45999C17.2098 8.04999 17.5498 7.70999 17.9598 7.70999C18.3698 7.70999 18.7098 8.04999 18.7098 8.45999V15.53Z" fill="#1A1A1A"/>
<path d="M37.18 11.62L34.264 7.228H36.088L37.156 8.8C37.516 9.34 37.816 9.844 38.14 10.444L40.18 7.228H41.968L39.1 11.608L41.98 16H40.168L39.184 14.548C38.8 13.96 38.488 13.432 38.14 12.796L36.004 16H34.204L37.18 11.62ZM44.9498 16.156C43.2338 16.156 42.1658 14.896 42.1658 13.06C42.1658 11.212 43.2458 9.892 45.0338 9.892C45.8618 9.892 46.5938 10.24 46.9658 10.828V7.072H48.4178V16H47.0738L46.9778 15.076C46.6178 15.76 45.8498 16.156 44.9498 16.156ZM45.2738 14.812C46.2938 14.812 46.9538 14.08 46.9538 13.012C46.9538 11.944 46.2938 11.2 45.2738 11.2C44.2538 11.2 43.6298 11.956 43.6298 13.012C43.6298 14.068 44.2538 14.812 45.2738 14.812Z" fill="black"/>
</svg>
