<svg width="200" height="24" viewBox="0 0 200 24" fill="none" xmlns="http://www.w3.org/2000/svg">
<path d="M20.86 8.36997L13.93 2.82997C12.86 1.96997 11.13 1.96997 10.07 2.81997L3.14002 8.36997C2.36002 8.98997 1.86002 10.3 2.03002 11.28L3.36002 19.24C3.60002 20.66 4.96002 21.81 6.40002 21.81H17.6C19.03 21.81 20.4 20.65 20.64 19.24L21.97 11.28C22.13 10.3 21.63 8.98997 20.86 8.36997ZM12.71 17.2C12.51 17.4 12.26 17.5 12 17.5C11.74 17.5 11.49 17.4 11.29 17.21C10.9 16.82 10.9 16.19 11.29 15.8C11.68 15.41 12.32 15.41 12.71 15.8C13.1 16.18 13.1 16.81 12.71 17.2ZM14.66 14.9C14.51 15.05 14.32 15.13 14.12 15.13C13.93 15.13 13.75 15.06 13.6 14.92C12.63 13.99 11.37 13.99 10.39 14.92C10.09 15.21 9.62002 15.2 9.33002 14.9C9.04002 14.6 9.05002 14.13 9.35002 13.84C10.9 12.35 13.07 12.35 14.63 13.84C14.94 14.12 14.95 14.6 14.66 14.9ZM16.78 12.78C16.63 12.93 16.44 13.01 16.24 13.01C16.05 13.01 15.86 12.94 15.72 12.8C15.25 12.34 14.72 11.97 14.16 11.7C12.76 11.03 11.23 11.03 9.84002 11.7C9.28002 11.97 8.76002 12.34 8.28002 12.8C7.99002 13.09 7.51002 13.09 7.22002 12.79C6.93002 12.49 6.94002 12.02 7.23002 11.73C7.82002 11.15 8.48002 10.69 9.19002 10.35C11 9.47997 13 9.47997 14.8 10.35C15.51 10.69 16.17 11.15 16.76 11.73C17.06 12.01 17.07 12.49 16.78 12.78Z" fill="#1A1A1A"/>
<path d="M36.508 16H34.972V7.228H36.508V10.852H40.396V7.228H41.932V16H40.396V12.28H36.508V16ZM43.3143 13.024C43.3143 11.176 44.6463 9.904 46.4823 9.904C48.3183 9.904 49.6503 11.176 49.6503 13.024C49.6503 14.872 48.3183 16.144 46.4823 16.144C44.6463 16.144 43.3143 14.872 43.3143 13.024ZM44.7783 13.024C44.7783 14.104 45.4743 14.836 46.4823 14.836C47.4903 14.836 48.1863 14.104 48.1863 13.024C48.1863 11.944 47.4903 11.212 46.4823 11.212C45.4743 11.212 44.7783 11.944 44.7783 13.024ZM52.2747 16H50.8107V10.072H52.1547L52.2747 10.768C52.5747 10.276 53.1747 9.892 54.0267 9.892C54.9267 9.892 55.5507 10.336 55.8627 11.02C56.1627 10.336 56.8587 9.892 57.7587 9.892C59.1987 9.892 59.9907 10.756 59.9907 12.124V16H58.5387V12.508C58.5387 11.656 58.0827 11.212 57.3867 11.212C56.6787 11.212 56.1387 11.668 56.1387 12.64V16H54.6747V12.496C54.6747 11.668 54.2307 11.224 53.5347 11.224C52.8387 11.224 52.2747 11.68 52.2747 12.64V16ZM64.0799 16.156C62.3159 16.156 61.0799 14.872 61.0799 13.036C61.0799 11.176 62.2919 9.892 64.0319 9.892C65.8079 9.892 66.9359 11.08 66.9359 12.928V13.372L62.4719 13.384C62.5799 14.428 63.1319 14.956 64.1039 14.956C64.9079 14.956 65.4359 14.644 65.6039 14.08H66.9599C66.7079 15.376 65.6279 16.156 64.0799 16.156ZM64.0439 11.092C63.1799 11.092 62.6519 11.56 62.5079 12.448H65.4839C65.4839 11.632 64.9199 11.092 64.0439 11.092ZM68.0956 13.444V12.148H71.9596V13.444H68.0956ZM74.3492 16L72.4292 10.072H73.9532L74.7332 12.616C74.8652 13.084 74.9852 13.6 75.0932 14.152C75.2012 13.576 75.3092 13.204 75.5012 12.616L76.3172 10.072H77.8052L78.5972 12.616C78.6692 12.856 78.9092 13.744 78.9812 14.14C79.0772 13.696 79.2692 12.988 79.3772 12.616L80.1692 10.072H81.7172L79.6652 16H78.2972L77.4812 13.432C77.2412 12.652 77.1092 12.088 77.0612 11.788C77.0012 12.064 76.8932 12.484 76.5932 13.456L75.7772 16H74.3492ZM83.3357 8.884C82.8317 8.884 82.4357 8.488 82.4357 7.996C82.4357 7.504 82.8317 7.12 83.3357 7.12C83.8157 7.12 84.2117 7.504 84.2117 7.996C84.2117 8.488 83.8157 8.884 83.3357 8.884ZM82.6037 16V10.072H84.0677V16H82.6037ZM89.7202 16V11.296H87.2962V16H85.8442V11.296H84.9922V10.072H85.8442V9.352C85.8442 7.744 86.6842 7.072 87.8842 7.072C88.1122 7.072 88.3882 7.084 88.6402 7.132V8.38H88.1242C87.4642 8.38 87.2962 8.764 87.2962 9.352V10.072H91.1842V16H89.7202ZM90.4522 8.86C89.9602 8.86 89.5762 8.476 89.5762 7.984C89.5762 7.504 89.9602 7.12 90.4522 7.12C90.9322 7.12 91.3162 7.504 91.3162 7.984C91.3162 8.476 90.9322 8.86 90.4522 8.86Z" fill="black"/>
</svg>
