<svg width="200" height="24" viewBox="0 0 200 24" fill="none" xmlns="http://www.w3.org/2000/svg">
<path d="M19.53 5.53L5.53 19.53C5.51 19.55 5.5 19.56 5.48 19.57C5.1 19.25 4.75 18.9 4.43 18.52C2.91 16.77 2 14.49 2 12C2 6.48 6.48 2 12 2C14.49 2 16.77 2.91 18.52 4.43C18.9 4.75 19.25 5.1 19.57 5.48C19.56 5.5 19.55 5.51 19.53 5.53Z" fill="#1A1A1A"/>
<path d="M22 12C22 17.49 17.49 22 12 22C10.5 22 9.08 21.67 7.8 21.07C7.18 20.78 7.06 19.95 7.54 19.46L19.46 7.53998C19.94 7.05998 20.78 7.17998 21.07 7.79998C21.67 9.06998 22 10.5 22 12Z" fill="#1A1A1A"/>
<path d="M21.77 2.23C21.47 1.93 20.98 1.93 20.68 2.23L2.23 20.69C1.93 20.99 1.93 21.48 2.23 21.78C2.38 21.92 2.57 22 2.77 22C2.97 22 3.16 21.92 3.31 21.77L21.77 3.31C22.08 3.01 22.08 2.53 21.77 2.23Z" fill="#1A1A1A"/>
<path d="M34.468 9.676C34.468 8.14 35.74 7.072 37.588 7.072C39.364 7.072 40.492 8.056 40.54 9.64H39.004C38.968 8.884 38.428 8.44 37.564 8.44C36.616 8.44 36.004 8.896 36.004 9.628C36.004 10.252 36.34 10.6 37.072 10.768L38.452 11.068C39.952 11.392 40.684 12.16 40.684 13.468C40.684 15.1 39.412 16.156 37.48 16.156C35.608 16.156 34.384 15.16 34.348 13.588H35.884C35.896 14.332 36.496 14.776 37.48 14.776C38.5 14.776 39.148 14.332 39.148 13.6C39.148 13.012 38.848 12.664 38.128 12.508L36.736 12.196C35.248 11.872 34.468 11.02 34.468 9.676ZM43.3336 16H41.8816V7.072H43.3336V16ZM46.6333 16.156C45.3733 16.156 44.6053 15.424 44.6053 14.308C44.6053 13.216 45.3973 12.532 46.8013 12.424L48.5773 12.292V12.16C48.5773 11.356 48.0973 11.032 47.3533 11.032C46.4893 11.032 46.0093 11.392 46.0093 12.016H44.7613C44.7613 10.732 45.8173 9.892 47.4253 9.892C49.0213 9.892 50.0053 10.756 50.0053 12.4V16H48.7213L48.6133 15.124C48.3613 15.736 47.5573 16.156 46.6333 16.156ZM47.1133 15.052C48.0133 15.052 48.5893 14.512 48.5893 13.6V13.288L47.3533 13.384C46.4413 13.468 46.0933 13.768 46.0933 14.248C46.0933 14.788 46.4533 15.052 47.1133 15.052ZM50.9875 14.2H52.3795C52.3915 14.716 52.7755 15.04 53.4475 15.04C54.1315 15.04 54.5035 14.764 54.5035 14.332C54.5035 14.032 54.3475 13.816 53.8195 13.696L52.7515 13.444C51.6835 13.204 51.1675 12.7 51.1675 11.752C51.1675 10.588 52.1515 9.892 53.5195 9.892C54.8515 9.892 55.7515 10.66 55.7635 11.812H54.3715C54.3595 11.308 54.0235 10.984 53.4595 10.984C52.8835 10.984 52.5475 11.248 52.5475 11.692C52.5475 12.028 52.8115 12.244 53.3155 12.364L54.3835 12.616C55.3795 12.844 55.8835 13.3 55.8835 14.212C55.8835 15.412 54.8635 16.156 53.3995 16.156C51.9235 16.156 50.9875 15.364 50.9875 14.2ZM58.4622 16H56.9982V7.072H58.4742V10.84C58.8462 10.264 59.5422 9.892 60.3942 9.892C61.8582 9.892 62.6262 10.816 62.6262 12.352V16H61.1622V12.7C61.1622 11.704 60.6702 11.224 59.9262 11.224C59.0022 11.224 58.4622 11.872 58.4622 12.76V16Z" fill="black"/>
</svg>
