<svg width="137" height="24" viewBox="0 0 137 24" fill="none" xmlns="http://www.w3.org/2000/svg">
<path d="M16 2H8C4.5 2 3 4 3 7V11.47C3 11.82 3.34 12.06 3.66 11.94C4.76 11.51 6.01 11.37 7.3 11.63C9.9 12.15 11.97 14.29 12.4 16.9C12.66 18.49 12.34 20 11.61 21.25C11.41 21.58 11.65 22 12.04 22H16C19.5 22 21 20 21 17V7C21 4 19.5 2 16 2ZM18.5 9.25H16.5C14.98 9.25 13.75 8.02 13.75 6.5V4.5C13.75 4.09 14.09 3.75 14.5 3.75C14.91 3.75 15.25 4.09 15.25 4.5V6.5C15.25 7.19 15.81 7.75 16.5 7.75H18.5C18.91 7.75 19.25 8.09 19.25 8.5C19.25 8.91 18.91 9.25 18.5 9.25Z" fill="#1A1A1A"/>
<path d="M6 13C3.24 13 1 15.24 1 18C1 20.76 3.24 23 6 23C8.76 23 11 20.76 11 18C11 15.24 8.76 13 6 13ZM5.16 19.27C5.41 19.52 5.41 19.93 5.16 20.19C5.03 20.32 4.87 20.38 4.7 20.38C4.53 20.38 4.37 20.32 4.24 20.19L2.51 18.46C2.26 18.21 2.26 17.8 2.51 17.54L4.24 15.81C4.49 15.56 4.9 15.56 5.16 15.81C5.41 16.06 5.41 16.47 5.16 16.73L3.89 18L5.16 19.27ZM9.48 18.46L7.75 20.19C7.62 20.32 7.46 20.38 7.29 20.38C7.12 20.38 6.96 20.32 6.83 20.19C6.58 19.94 6.58 19.53 6.83 19.27L8.11 18L6.84 16.73C6.59 16.48 6.59 16.07 6.84 15.81C7.09 15.56 7.5 15.56 7.76 15.81L9.49 17.54C9.73 17.8 9.73 18.2 9.48 18.46Z" fill="#1A1A1A"/>
<path d="M38.128 17H34.972V8.228H38.044C40.636 8.228 42.424 10.016 42.424 12.632C42.424 15.212 40.672 17 38.128 17ZM37.9 9.644H36.508V15.584H37.984C39.736 15.584 40.804 14.456 40.804 12.632C40.804 10.772 39.712 9.644 37.9 9.644ZM43.2908 14.024C43.2908 12.176 44.6228 10.904 46.4588 10.904C48.2948 10.904 49.6268 12.176 49.6268 14.024C49.6268 15.872 48.2948 17.144 46.4588 17.144C44.6228 17.144 43.2908 15.872 43.2908 14.024ZM44.7548 14.024C44.7548 15.104 45.4508 15.836 46.4588 15.836C47.4668 15.836 48.1628 15.104 48.1628 14.024C48.1628 12.944 47.4668 12.212 46.4588 12.212C45.4508 12.212 44.7548 12.944 44.7548 14.024ZM50.4393 14.024C50.4393 12.188 51.6513 10.892 53.4033 10.892C55.0233 10.892 56.1273 11.792 56.2833 13.22H54.8193C54.6513 12.548 54.1593 12.2 53.4633 12.2C52.5273 12.2 51.9033 12.908 51.9033 14.024C51.9033 15.14 52.4793 15.836 53.4153 15.836C54.1473 15.836 54.6633 15.476 54.8193 14.828H56.2953C56.1153 16.208 54.9633 17.156 53.4153 17.156C51.6152 17.156 50.4393 15.908 50.4393 14.024ZM61.4049 11.072H62.8689V17H61.5129L61.4049 16.208C61.0449 16.772 60.2769 17.156 59.4849 17.156C58.1169 17.156 57.3129 16.232 57.3129 14.78V11.072H58.7769V14.264C58.7769 15.392 59.2209 15.848 60.0369 15.848C60.9609 15.848 61.4049 15.308 61.4049 14.18V11.072ZM65.845 17H64.381V11.072H65.725L65.845 11.768C66.145 11.276 66.745 10.892 67.597 10.892C68.497 10.892 69.121 11.336 69.433 12.02C69.733 11.336 70.429 10.892 71.329 10.892C72.769 10.892 73.561 11.756 73.561 13.124V17H72.109V13.508C72.109 12.656 71.653 12.212 70.957 12.212C70.249 12.212 69.709 12.668 69.709 13.64V17H68.245V13.496C68.245 12.668 67.801 12.224 67.105 12.224C66.409 12.224 65.845 12.68 65.845 13.64V17ZM77.6502 17.156C75.8862 17.156 74.6502 15.872 74.6502 14.036C74.6502 12.176 75.8622 10.892 77.6022 10.892C79.3782 10.892 80.5062 12.08 80.5062 13.928V14.372L76.0422 14.384C76.1502 15.428 76.7022 15.956 77.6742 15.956C78.4782 15.956 79.0062 15.644 79.1742 15.08H80.5302C80.2782 16.376 79.1982 17.156 77.6502 17.156ZM77.6142 12.092C76.7502 12.092 76.2222 12.56 76.0782 13.448H79.0542C79.0542 12.632 78.4902 12.092 77.6142 12.092ZM83.1419 17H81.6779V11.072H83.0339L83.1539 11.84C83.5259 11.24 84.2459 10.892 85.0499 10.892C86.5379 10.892 87.3059 11.816 87.3059 13.352V17H85.8419V13.7C85.8419 12.704 85.3499 12.224 84.5939 12.224C83.6939 12.224 83.1419 12.848 83.1419 13.808V17ZM90.7603 17H89.2963V12.296H88.1563V11.072H89.2963V9.224H90.7603V11.072H91.9123V12.296H90.7603V17ZM92.576 14.444V13.148H96.44V14.444H92.576ZM97.5838 14.024C97.5838 12.188 98.7958 10.892 100.548 10.892C102.168 10.892 103.272 11.792 103.428 13.22H101.964C101.796 12.548 101.304 12.2 100.608 12.2C99.6718 12.2 99.0478 12.908 99.0478 14.024C99.0478 15.14 99.6238 15.836 100.56 15.836C101.292 15.836 101.808 15.476 101.964 14.828H103.44C103.26 16.208 102.108 17.156 100.56 17.156C98.7598 17.156 97.5838 15.908 97.5838 14.024ZM104.181 14.024C104.181 12.176 105.513 10.904 107.349 10.904C109.185 10.904 110.517 12.176 110.517 14.024C110.517 15.872 109.185 17.144 107.349 17.144C105.513 17.144 104.181 15.872 104.181 14.024ZM105.645 14.024C105.645 15.104 106.341 15.836 107.349 15.836C108.357 15.836 109.053 15.104 109.053 14.024C109.053 12.944 108.357 12.212 107.349 12.212C106.341 12.212 105.645 12.944 105.645 14.024ZM114.114 17.156C112.398 17.156 111.33 15.896 111.33 14.06C111.33 12.212 112.41 10.892 114.198 10.892C115.026 10.892 115.758 11.24 116.13 11.828V8.072H117.582V17H116.238L116.142 16.076C115.782 16.76 115.014 17.156 114.114 17.156ZM114.438 15.812C115.458 15.812 116.118 15.08 116.118 14.012C116.118 12.944 115.458 12.2 114.438 12.2C113.418 12.2 112.794 12.956 112.794 14.012C112.794 15.068 113.418 15.812 114.438 15.812ZM121.76 17.156C119.996 17.156 118.76 15.872 118.76 14.036C118.76 12.176 119.972 10.892 121.712 10.892C123.488 10.892 124.616 12.08 124.616 13.928V14.372L120.152 14.384C120.26 15.428 120.812 15.956 121.784 15.956C122.588 15.956 123.116 15.644 123.284 15.08H124.64C124.388 16.376 123.308 17.156 121.76 17.156ZM121.724 12.092C120.86 12.092 120.332 12.56 120.188 13.448H123.164C123.164 12.632 122.6 12.092 121.724 12.092ZM125.775 14.444V13.148H129.639V14.444H125.775ZM136.238 16.988L130.154 17V15.848L133.022 13.424C134.21 12.416 134.606 11.84 134.606 11C134.606 10.004 134.066 9.44 133.142 9.44C132.182 9.44 131.582 10.112 131.57 11.24H130.046C130.058 9.32 131.282 8.072 133.142 8.072C135.014 8.072 136.178 9.14 136.178 10.916C136.178 12.14 135.506 13.064 134.174 14.204L132.59 15.56H136.238V16.988Z" fill="black"/>
</svg>
