<svg width="96" height="24" viewBox="0 0 96 24" fill="none" xmlns="http://www.w3.org/2000/svg">
<path d="M16.19 2H7.81C4.17 2 2 4.17 2 7.81V16.18C2 19.83 4.17 22 7.81 22H16.18C19.82 22 21.99 19.83 21.99 16.19V7.81C22 4.17 19.83 2 16.19 2ZM10.13 14.5C10.42 14.79 10.42 15.27 10.13 15.56C9.98 15.71 9.79 15.78 9.6 15.78C9.41 15.78 9.22 15.71 9.07 15.56L6.58 13.07C5.99 12.48 5.99 11.53 6.58 10.94L9.07 8.45C9.36 8.16 9.84 8.16 10.13 8.45C10.42 8.74 10.42 9.22 10.13 9.51L7.64 12L10.13 14.5ZM17.42 13.06L14.93 15.55C14.78 15.7 14.59 15.77 14.4 15.77C14.21 15.77 14.02 15.7 13.87 15.55C13.58 15.26 13.58 14.78 13.87 14.49L16.36 12L13.87 9.5C13.58 9.21 13.58 8.73 13.87 8.44C14.16 8.15 14.64 8.15 14.93 8.44L17.42 10.93C18.01 11.52 18.01 12.48 17.42 13.06Z" fill="#1A1A1A"/>
<path d="M34.468 9.676C34.468 8.14 35.74 7.072 37.588 7.072C39.364 7.072 40.492 8.056 40.54 9.64H39.004C38.968 8.884 38.428 8.44 37.564 8.44C36.616 8.44 36.004 8.896 36.004 9.628C36.004 10.252 36.34 10.6 37.072 10.768L38.452 11.068C39.952 11.392 40.684 12.16 40.684 13.468C40.684 15.1 39.412 16.156 37.48 16.156C35.608 16.156 34.384 15.16 34.348 13.588H35.884C35.896 14.332 36.496 14.776 37.48 14.776C38.5 14.776 39.148 14.332 39.148 13.6C39.148 13.012 38.848 12.664 38.128 12.508L36.736 12.196C35.248 11.872 34.468 11.02 34.468 9.676ZM41.5096 13.024C41.5096 11.188 42.7216 9.892 44.4736 9.892C46.0936 9.892 47.1976 10.792 47.3536 12.22H45.8896C45.7216 11.548 45.2296 11.2 44.5336 11.2C43.5976 11.2 42.9736 11.908 42.9736 13.024C42.9736 14.14 43.5496 14.836 44.4856 14.836C45.2176 14.836 45.7336 14.476 45.8896 13.828H47.3656C47.1856 15.208 46.0336 16.156 44.4856 16.156C42.6856 16.156 41.5096 14.908 41.5096 13.024ZM52.1752 10.048V11.404H51.6352C50.5792 11.404 49.9192 11.968 49.9192 13.12V16H48.4552V10.084H49.8352L49.9192 10.948C50.1712 10.36 50.7352 9.964 51.5272 9.964C51.7312 9.964 51.9352 9.988 52.1752 10.048ZM52.6189 13.024C52.6189 11.176 53.9509 9.904 55.7869 9.904C57.6229 9.904 58.9549 11.176 58.9549 13.024C58.9549 14.872 57.6229 16.144 55.7869 16.144C53.9509 16.144 52.6189 14.872 52.6189 13.024ZM54.0829 13.024C54.0829 14.104 54.7789 14.836 55.7869 14.836C56.7949 14.836 57.4909 14.104 57.4909 13.024C57.4909 11.944 56.7949 11.212 55.7869 11.212C54.7789 11.212 54.0829 11.944 54.0829 13.024ZM61.5914 16H60.1394V7.072H61.5914V16ZM64.6031 16H63.1511V7.072H64.6031V16Z" fill="black"/>
</svg>
