<svg width="101" height="24" viewBox="0 0 101 24" fill="none" xmlns="http://www.w3.org/2000/svg">
<path d="M12 18.75C11.59 18.75 11.25 18.41 11.25 18V17C11.25 16.59 11.59 16.25 12 16.25C12.41 16.25 12.75 16.59 12.75 17V18C12.75 18.41 12.41 18.75 12 18.75Z" fill="#1A1A1A"/>
<path d="M12 22.75C11.59 22.75 11.25 22.41 11.25 22V21C11.25 20.59 11.59 20.25 12 20.25C12.41 20.25 12.75 20.59 12.75 21V22C12.75 22.41 12.41 22.75 12 22.75Z" fill="#1A1A1A"/>
<path d="M2.0001 22.7501C1.9401 22.7501 1.8801 22.7401 1.8201 22.7301C1.4201 22.6301 1.1701 22.2201 1.2701 21.8201L2.2701 17.8201C2.3701 17.4201 2.7701 17.1701 3.1801 17.2701C3.5801 17.3701 3.8301 17.7801 3.7301 18.1801L2.7301 22.1801C2.6401 22.5201 2.3401 22.7501 2.0001 22.7501Z" fill="#1A1A1A"/>
<path d="M21.7526 22.5026C21.4126 22.5026 21.1126 22.2726 21.0226 21.9326L20.0226 17.9326C19.9226 17.5326 20.1626 17.1226 20.5726 17.0226C20.9726 16.9226 21.3826 17.1626 21.4826 17.5726L22.4826 21.5726C22.5826 21.9726 22.3426 22.3826 21.9326 22.4826C21.8726 22.4926 21.8126 22.5026 21.7526 22.5026Z" fill="#1A1A1A"/>
<path d="M19.1402 5.3C19.1402 5.6 18.8902 5.84 18.6002 5.84H5.53023C5.23023 5.84 4.99023 5.59 4.99023 5.3C4.99023 5 5.24023 4.76 5.53023 4.76H6.27023L6.55023 3.45C6.81023 2.17 7.35023 1 9.51023 1H14.6002C16.7602 1 17.3102 2.17 17.5702 3.44L17.8502 4.75H18.5902C18.8902 4.75 19.1402 5 19.1402 5.3Z" fill="#1A1A1A"/>
<path d="M19.4501 9.40018C19.3401 8.20018 19.0201 6.93018 16.6901 6.93018H7.43014C5.10014 6.93018 4.79014 8.21018 4.67014 9.40018L4.26014 13.8202C4.21014 14.3702 4.39014 14.9202 4.77014 15.3402C5.16014 15.7602 5.70014 16.0002 6.28014 16.0002H7.64014C8.82014 16.0002 9.04014 15.3302 9.19014 14.8802L9.34014 14.4402C9.51014 13.9402 9.55014 13.8202 10.2001 13.8202H13.9201C14.5701 13.8202 14.5901 13.8902 14.7801 14.4402L14.9301 14.8802C15.0701 15.3302 15.3001 16.0002 16.4701 16.0002H17.8301C18.4001 16.0002 18.9501 15.7602 19.3401 15.3402C19.7201 14.9302 19.9001 14.3702 19.8501 13.8202L19.4501 9.40018ZM9.88014 10.9202H7.71014C7.41014 10.9202 7.17014 10.6702 7.17014 10.3802C7.17014 10.0902 7.42014 9.84018 7.71014 9.84018H9.89014C10.1901 9.84018 10.4301 10.0902 10.4301 10.3802C10.4301 10.6702 10.1801 10.9202 9.88014 10.9202ZM16.4101 10.9202H14.2301C13.9301 10.9202 13.6901 10.6702 13.6901 10.3802C13.6901 10.0902 13.9401 9.84018 14.2301 9.84018H16.4101C16.7101 9.84018 16.9501 10.0902 16.9501 10.3802C16.9501 10.6702 16.7101 10.9202 16.4101 10.9202Z" fill="#1A1A1A"/>
<path d="M38.128 16H34.972V7.228H38.044C40.636 7.228 42.424 9.016 42.424 11.632C42.424 14.212 40.672 16 38.128 16ZM37.9 8.644H36.508V14.584H37.984C39.736 14.584 40.804 13.456 40.804 11.632C40.804 9.772 39.712 8.644 37.9 8.644ZM47.3588 10.048V11.404H46.8188C45.7628 11.404 45.1028 11.968 45.1028 13.12V16H43.6388V10.084H45.0188L45.1028 10.948C45.3548 10.36 45.9188 9.964 46.7108 9.964C46.9148 9.964 47.1188 9.988 47.3588 10.048ZM49.0818 8.884C48.5778 8.884 48.1818 8.488 48.1818 7.996C48.1818 7.504 48.5778 7.12 49.0818 7.12C49.5618 7.12 49.9578 7.504 49.9578 7.996C49.9578 8.488 49.5618 8.884 49.0818 8.884ZM48.3498 16V10.072H49.8138V16H48.3498ZM53.0063 16L50.6543 10.072H52.2143L53.2463 12.796C53.4983 13.504 53.7023 14.116 53.7743 14.44C53.8583 14.068 54.0743 13.444 54.3263 12.796L55.4063 10.072H56.9183L54.4463 16H53.0063ZM58.4919 8.884C57.9879 8.884 57.5919 8.488 57.5919 7.996C57.5919 7.504 57.9879 7.12 58.4919 7.12C58.9719 7.12 59.3679 7.504 59.3679 7.996C59.3679 8.488 58.9719 8.884 58.4919 8.884ZM57.7599 16V10.072H59.2239V16H57.7599ZM62.2005 16H60.7365V10.072H62.0925L62.2125 10.84C62.5845 10.24 63.3045 9.892 64.1085 9.892C65.5965 9.892 66.3645 10.816 66.3645 12.352V16H64.9005V12.7C64.9005 11.704 64.4085 11.224 63.6525 11.224C62.7525 11.224 62.2005 11.848 62.2005 12.808V16ZM67.4669 12.904C67.4669 11.176 68.5949 9.88 70.2869 9.88C71.1749 9.88 71.8709 10.252 72.2189 10.888L72.3029 10.072H73.6589V15.7C73.6589 17.68 72.4709 18.916 70.5509 18.916C68.8469 18.916 67.6829 17.944 67.5029 16.36H68.9669C69.0629 17.128 69.6509 17.584 70.5509 17.584C71.5589 17.584 72.2069 16.948 72.2069 15.964V14.98C71.8349 15.532 71.1029 15.88 70.2509 15.88C68.5709 15.88 67.4669 14.62 67.4669 12.904ZM68.9429 12.868C68.9429 13.864 69.5789 14.608 70.5389 14.608C71.5469 14.608 72.1709 13.9 72.1709 12.868C72.1709 11.86 71.5589 11.164 70.5389 11.164C69.5669 11.164 68.9429 11.896 68.9429 12.868Z" fill="black"/>
</svg>
