<svg width="119" height="24" viewBox="0 0 119 24" fill="none" xmlns="http://www.w3.org/2000/svg">
<path d="M13.5 4.61002V7.54002C13.5 8.21002 12.96 8.75002 12.29 8.75002H3.21C2.53 8.75002 2 8.19002 2 7.52002C2.01 6.39002 2.46 5.36002 3.21 4.61002C3.96 3.86002 5 3.40002 6.14 3.40002H12.29C12.96 3.40002 13.5 3.94002 13.5 4.61002Z" fill="#1A1A1A"/>
<path d="M2 11.46V16.46C2 18.75 3.85 20.6 6.14 20.6H17.85C20.14 20.6 22 18.74 22 16.45V11.46C22 10.79 21.46 10.25 20.79 10.25H3.21C2.54 10.25 2 10.79 2 11.46ZM8 17.25H6C5.59 17.25 5.25 16.91 5.25 16.5C5.25 16.09 5.59 15.75 6 15.75H8C8.41 15.75 8.75 16.09 8.75 16.5C8.75 16.91 8.41 17.25 8 17.25ZM14.5 17.25H10.5C10.09 17.25 9.75 16.91 9.75 16.5C9.75 16.09 10.09 15.75 10.5 15.75H14.5C14.91 15.75 15.25 16.09 15.25 16.5C15.25 16.91 14.91 17.25 14.5 17.25Z" fill="#1A1A1A"/>
<path d="M19.97 1.75H17.03C15.76 1.75 15 2.51 15 3.78V6.72C15 7.99 15.76 8.75 17.03 8.75H19.97C21.24 8.75 22 7.99 22 6.72V3.78C22 2.51 21.24 1.75 19.97 1.75ZM18.01 7.32C17.98 7.35 17.91 7.39 17.86 7.39L16.82 7.54C16.79 7.55 16.75 7.55 16.72 7.55C16.57 7.55 16.44 7.5 16.35 7.4C16.23 7.28 16.18 7.11 16.21 6.93L16.36 5.89C16.37 5.84 16.4 5.77 16.43 5.74L18.13 4.04C18.16 4.11 18.19 4.19 18.22 4.27C18.26 4.35 18.3 4.42 18.34 4.49C18.37 4.55 18.41 4.61 18.45 4.65C18.49 4.71 18.53 4.77 18.56 4.8C18.58 4.83 18.59 4.84 18.6 4.85C18.69 4.96 18.79 5.06 18.88 5.13C18.9 5.15 18.92 5.17 18.93 5.17C18.98 5.21 19.04 5.26 19.08 5.29C19.14 5.33 19.19 5.37 19.25 5.4C19.32 5.44 19.4 5.48 19.48 5.52C19.56 5.56 19.64 5.59 19.71 5.61L18.01 7.32ZM20.4 4.93L20.07 5.26C20.06 5.28 20.03 5.29 20 5.29C19.99 5.29 19.98 5.29 19.97 5.29C19.25 5.08 18.68 4.51 18.47 3.79C18.46 3.75 18.47 3.71 18.5 3.68L18.83 3.35C19.37 2.81 19.88 2.82 20.41 3.35C20.68 3.62 20.81 3.88 20.81 4.14C20.8 4.4 20.67 4.66 20.4 4.93Z" fill="#1A1A1A"/>
<path d="M38.68 16.144C36.124 16.144 34.468 14.368 34.468 11.62C34.468 8.896 36.184 7.084 38.752 7.084C40.828 7.084 42.376 8.296 42.676 10.18H41.056C40.756 9.16 39.88 8.56 38.716 8.56C37.096 8.56 36.076 9.736 36.076 11.608C36.076 13.468 37.108 14.668 38.716 14.668C39.904 14.668 40.816 14.044 41.104 13.072H42.7C42.364 14.92 40.756 16.144 38.68 16.144ZM45.5083 16.156C44.2483 16.156 43.4803 15.424 43.4803 14.308C43.4803 13.216 44.2723 12.532 45.6763 12.424L47.4523 12.292V12.16C47.4523 11.356 46.9723 11.032 46.2283 11.032C45.3643 11.032 44.8843 11.392 44.8843 12.016H43.6363C43.6363 10.732 44.6923 9.892 46.3003 9.892C47.8963 9.892 48.8803 10.756 48.8803 12.4V16H47.5963L47.4883 15.124C47.2363 15.736 46.4323 16.156 45.5083 16.156ZM45.9883 15.052C46.8883 15.052 47.4643 14.512 47.4643 13.6V13.288L46.2283 13.384C45.3163 13.468 44.9683 13.768 44.9683 14.248C44.9683 14.788 45.3283 15.052 45.9883 15.052ZM54.0385 10.048V11.404H53.4985C52.4425 11.404 51.7825 11.968 51.7825 13.12V16H50.3185V10.084H51.6985L51.7825 10.948C52.0345 10.36 52.5985 9.964 53.3905 9.964C53.5945 9.964 53.7985 9.988 54.0385 10.048ZM57.2662 16.156C55.5502 16.156 54.4822 14.896 54.4822 13.06C54.4822 11.212 55.5622 9.892 57.3502 9.892C58.1782 9.892 58.9102 10.24 59.2822 10.828V7.072H60.7342V16H59.3902L59.2942 15.076C58.9342 15.76 58.1662 16.156 57.2662 16.156ZM57.5902 14.812C58.6102 14.812 59.2702 14.08 59.2702 13.012C59.2702 11.944 58.6102 11.2 57.5902 11.2C56.5702 11.2 55.9462 11.956 55.9462 13.012C55.9462 14.068 56.5702 14.812 57.5902 14.812ZM62.2479 13.444V12.148H66.1119V13.444H62.2479ZM70.2557 16.156C68.4917 16.156 67.2557 14.872 67.2557 13.036C67.2557 11.176 68.4677 9.892 70.2077 9.892C71.9837 9.892 73.1117 11.08 73.1117 12.928V13.372L68.6477 13.384C68.7557 14.428 69.3077 14.956 70.2797 14.956C71.0837 14.956 71.6117 14.644 71.7797 14.08H73.1357C72.8837 15.376 71.8037 16.156 70.2557 16.156ZM70.2197 11.092C69.3557 11.092 68.8277 11.56 68.6837 12.448H71.6597C71.6597 11.632 71.0957 11.092 70.2197 11.092ZM76.7193 16.156C75.0033 16.156 73.9353 14.896 73.9353 13.06C73.9353 11.212 75.0153 9.892 76.8033 9.892C77.6313 9.892 78.3633 10.24 78.7353 10.828V7.072H80.1873V16H78.8433L78.7473 15.076C78.3873 15.76 77.6193 16.156 76.7193 16.156ZM77.0433 14.812C78.0633 14.812 78.7233 14.08 78.7233 13.012C78.7233 11.944 78.0633 11.2 77.0433 11.2C76.0233 11.2 75.3993 11.956 75.3993 13.012C75.3993 14.068 76.0233 14.812 77.0433 14.812ZM82.445 8.884C81.941 8.884 81.545 8.488 81.545 7.996C81.545 7.504 81.941 7.12 82.445 7.12C82.925 7.12 83.321 7.504 83.321 7.996C83.321 8.488 82.925 8.884 82.445 8.884ZM81.713 16V10.072H83.177V16H81.713ZM86.7056 16H85.2416V11.296H84.1016V10.072H85.2416V8.224H86.7056V10.072H87.8576V11.296H86.7056V16Z" fill="black"/>
</svg>
