<svg width="200" height="24" viewBox="0 0 200 24" fill="none" xmlns="http://www.w3.org/2000/svg">
<path d="M18 16V19C18 20.65 16.65 22 15 22H9C7.35 22 6 20.65 6 19V14.99C6 14.44 6.45 13.99 7.01 13.99L9.89 14C10.58 14 11.26 14.15 11.89 14.45C12.58 14.77 13.31 15 14.08 15H17C17.55 15 18 15.45 18 16Z" fill="#1A1A1A"/>
<path d="M17.41 9.41L15.29 7.29C15.1 7.1 15 6.85 15 6.59V4.91C15.58 4.71 16 4.15 16 3.5C16 2.67 15.33 2 14.5 2H9.5C8.67 2 8 2.67 8 3.5C8 4.15 8.42 4.71 9 4.91V6.59C9 6.85 8.9 7.1 8.71 7.29L6.59 9.41C6.27 9.73 6 10.38 6 10.83V11.48C6 12.03 6.44 12.48 6.99 12.48L9.9 12.5C10.88 12.5 11.87 12.74 12.75 13.2C13.17 13.42 13.65 13.5 14.12 13.5H17C17.55 13.5 18 13.05 18 12.5V10.83C18 10.38 17.73 9.73 17.41 9.41Z" fill="#1A1A1A"/>
<path d="M36.46 16H34.972V7.228H36.46L39.292 14.212L42.124 7.228H43.636V16H42.148V13.3C42.148 11.536 42.148 11.02 42.232 10.396L40 16H38.584L36.364 10.408C36.448 10.936 36.46 11.764 36.46 12.856V16ZM46.0934 8.884C45.5894 8.884 45.1934 8.488 45.1934 7.996C45.1934 7.504 45.5894 7.12 46.0934 7.12C46.5734 7.12 46.9694 7.504 46.9694 7.996C46.9694 8.488 46.5734 8.884 46.0934 8.884ZM45.3614 16V10.072H46.8254V16H45.3614ZM49.814 16H48.362V7.072H49.814V16ZM52.8257 16H51.3737V7.072H52.8257V12.556L55.1297 10.072H56.9657L54.7097 12.424L56.9177 16H55.2377L53.6897 13.504L52.8257 14.404V16Z" fill="black"/>
</svg>
