<svg width="158" height="24" viewBox="0 0 158 24" fill="none" xmlns="http://www.w3.org/2000/svg">
<path d="M20.95 4.13C20.66 3.71 20.29 3.34 19.87 3.05C18.92 2.36 17.68 2 16.19 2H7.81C7.61 2 7.41 2.01 7.22 2.03C3.94 2.24 2 4.37 2 7.81V16.19C2 17.68 2.36 18.92 3.05 19.87C3.34 20.29 3.71 20.66 4.13 20.95C4.95 21.55 5.99 21.9 7.22 21.98C7.41 21.99 7.61 22 7.81 22H16.19C19.83 22 22 19.83 22 16.19V7.81C22 6.32 21.64 5.08 20.95 4.13ZM18.75 8.9C18.75 9.31 18.41 9.65 18 9.65C17.59 9.65 17.25 9.31 17.25 8.9V7.72C17.25 7.4 16.99 7.14 16.67 7.14H12.75V16.86H14.53C14.94 16.86 15.28 17.2 15.28 17.61C15.28 18.02 14.94 18.36 14.53 18.36H9.47C9.06 18.36 8.72 18.02 8.72 17.61C8.72 17.2 9.06 16.86 9.47 16.86H11.25V7.14H7.33C7.01 7.14 6.75 7.4 6.75 7.72V8.9C6.75 9.31 6.41 9.65 6 9.65C5.59 9.65 5.25 9.31 5.25 8.9V7.72C5.25 6.57 6.18 5.64 7.33 5.64H16.66C17.81 5.64 18.74 6.57 18.74 7.72V8.9H18.75Z" fill="#1A1A1A"/>
<path d="M34.204 8.644V7.228H40.876V8.644H38.308V16H36.772V8.644H34.204ZM43.4783 16.156C41.7143 16.156 40.4783 14.872 40.4783 13.036C40.4783 11.176 41.6903 9.892 43.4303 9.892C45.2063 9.892 46.3343 11.08 46.3343 12.928V13.372L41.8703 13.384C41.9783 14.428 42.5303 14.956 43.5023 14.956C44.3063 14.956 44.8343 14.644 45.0023 14.08H46.3583C46.1063 15.376 45.0263 16.156 43.4783 16.156ZM43.4423 11.092C42.5783 11.092 42.0503 11.56 41.9063 12.448H44.8823C44.8823 11.632 44.3183 11.092 43.4423 11.092ZM48.2685 16H46.6005L48.6405 13.096L46.6005 10.072H48.3045L49.6125 12.088L50.8725 10.072H52.5165L50.5005 13.072L52.4565 16H50.7765L49.5165 14.044L48.2685 16ZM55.6392 16H54.1752V11.296H53.0352V10.072H54.1752V8.224H55.6392V10.072H56.7912V11.296H55.6392V16Z" fill="black"/>
</svg>
