<svg width="101" height="24" viewBox="0 0 101 24" fill="none" xmlns="http://www.w3.org/2000/svg">
<g clip-path="url(#clip0_4083_23134)">
<path d="M7.62998 3.56969C7.80936 3.47184 7.99998 3.62237 7.99998 3.8267V17.3825C7.99998 17.6058 7.84756 17.7946 7.65018 17.8988C7.64341 17.9024 7.63667 17.906 7.62998 17.9097L5.27998 19.2497C3.63998 20.1897 2.28998 19.4097 2.28998 17.5097V7.77969C2.28998 7.14969 2.73998 6.36969 3.29998 6.04969L7.62998 3.56969Z" fill="#1A1A1A"/>
<path d="M14.7219 6.10192C14.8922 6.18628 15 6.35991 15 6.54999V19.7031C15 20.0716 14.615 20.3135 14.283 20.1536L10.033 18.106C9.85998 18.0226 9.75 17.8476 9.75 17.6555V4.44522C9.75 4.07437 10.1396 3.83257 10.4719 3.99716L14.7219 6.10192Z" fill="#1A1A1A"/>
<path d="M22 6.49006V16.2201C22 16.8501 21.55 17.6301 20.99 17.9501L17.4986 19.951C17.1653 20.1421 16.75 19.9014 16.75 19.5172V6.33038C16.75 6.15087 16.8462 5.98513 17.0021 5.89615L19.01 4.75006C20.65 3.81006 22 4.59006 22 6.49006Z" fill="#1A1A1A"/>
</g>
<path d="M36.46 16H34.972V7.228H36.46L39.292 14.212L42.124 7.228H43.636V16H42.148V13.3C42.148 11.536 42.148 11.02 42.232 10.396L40 16H38.584L36.364 10.408C36.448 10.936 36.46 11.764 36.46 12.856V16ZM47.1255 16.156C45.8655 16.156 45.0975 15.424 45.0975 14.308C45.0975 13.216 45.8895 12.532 47.2935 12.424L49.0695 12.292V12.16C49.0695 11.356 48.5895 11.032 47.8455 11.032C46.9815 11.032 46.5015 11.392 46.5015 12.016H45.2535C45.2535 10.732 46.3095 9.892 47.9175 9.892C49.5135 9.892 50.4975 10.756 50.4975 12.4V16H49.2135L49.1055 15.124C48.8535 15.736 48.0495 16.156 47.1255 16.156ZM47.6055 15.052C48.5055 15.052 49.0815 14.512 49.0815 13.6V13.288L47.8455 13.384C46.9335 13.468 46.5855 13.768 46.5855 14.248C46.5855 14.788 46.9455 15.052 47.6055 15.052ZM51.9357 18.748V10.072H53.2917L53.3877 10.972C53.7477 10.288 54.5277 9.892 55.4277 9.892C57.0957 9.892 58.1997 11.104 58.1997 12.964C58.1997 14.812 57.1917 16.156 55.4277 16.156C54.5397 16.156 53.7717 15.808 53.3997 15.208V18.748H51.9357ZM53.4117 13.036C53.4117 14.104 54.0717 14.836 55.0797 14.836C56.1117 14.836 56.7237 14.092 56.7237 13.036C56.7237 11.98 56.1117 11.224 55.0797 11.224C54.0717 11.224 53.4117 11.968 53.4117 13.036ZM59.3534 13.444V12.148H63.2174V13.444H59.3534ZM69.8157 15.988L63.7317 16V14.848L66.5997 12.424C67.7877 11.416 68.1837 10.84 68.1837 10C68.1837 9.004 67.6437 8.44 66.7197 8.44C65.7597 8.44 65.1597 9.112 65.1477 10.24H63.6237C63.6357 8.32 64.8597 7.072 66.7197 7.072C68.5917 7.072 69.7557 8.14 69.7557 9.916C69.7557 11.14 69.0837 12.064 67.7517 13.204L66.1677 14.56H69.8157V15.988Z" fill="black"/>
<defs>
<clipPath id="clip0_4083_23134">
<rect width="24" height="24" fill="white"/>
</clipPath>
</defs>
</svg>
