<svg width="136" height="24" viewBox="0 0 136 24" fill="none" xmlns="http://www.w3.org/2000/svg">
<path d="M20.8999 9.85L21.4899 19.74C21.5099 20.01 21.3799 20.19 21.3099 20.27C21.2299 20.36 21.0599 20.5 20.7799 20.5H18.0499L20.2099 9.85H20.8999ZM21.9999 6L21.9899 6.02C22.0099 6.26 21.9899 6.51 21.9299 6.76L14.5599 20.29C14.3199 21.3 13.4199 22 12.3799 22H20.7799C22.0699 22 23.0899 20.91 22.9899 19.62L21.9999 6Z" fill="#1A1A1A"/>
<path d="M11.4502 2.2399C11.5502 1.8399 11.3002 1.4299 10.9002 1.3299C10.5002 1.2399 10.0902 1.4799 9.99023 1.8799L9.49023 3.9499H11.0302L11.4502 2.2399Z" fill="#1A1A1A"/>
<path d="M18.0499 2.21005C18.1399 1.80005 17.8799 1.41005 17.4699 1.32005C17.0699 1.23005 16.6699 1.49005 16.5799 1.90005L16.1299 3.97005H17.6699L18.0499 2.21005Z" fill="#1A1A1A"/>
<path d="M21.8202 5.32994C21.4902 4.52994 20.7102 3.95994 19.7502 3.95994H17.6702L17.1102 6.54994C17.0302 6.89994 16.7202 7.13994 16.3802 7.13994C16.3302 7.13994 16.2702 7.13994 16.2202 7.11994C15.8202 7.02994 15.5602 6.62994 15.6402 6.22994L16.1302 3.94994H11.0302L10.4002 6.54994C10.3202 6.88994 10.0102 7.11994 9.67024 7.11994C9.61024 7.11994 9.55024 7.10994 9.49024 7.09994C9.09024 6.99994 8.84024 6.59994 8.94024 6.18994L9.48024 3.93994H7.45024C6.47024 3.93994 5.60024 4.57994 5.31024 5.51994L1.10024 19.0699C0.660243 20.5199 1.73024 21.9999 3.24024 21.9999H16.3802C17.4202 21.9999 18.3202 21.2999 18.5602 20.2899L21.9302 6.75994C21.9902 6.50994 22.0102 6.25994 21.9902 6.01994C21.9702 5.77994 21.9202 5.53994 21.8202 5.32994ZM14.7002 16.7499H6.70024C6.29024 16.7499 5.95024 16.4099 5.95024 15.9999C5.95024 15.5899 6.29024 15.2499 6.70024 15.2499H14.7002C15.1102 15.2499 15.4502 15.5899 15.4502 15.9999C15.4502 16.4099 15.1102 16.7499 14.7002 16.7499ZM15.7002 12.7499H7.70024C7.29024 12.7499 6.95024 12.4099 6.95024 11.9999C6.95024 11.5899 7.29024 11.2499 7.70024 11.2499H15.7002C16.1102 11.2499 16.4502 11.5899 16.4502 11.9999C16.4502 12.4099 16.1102 12.7499 15.7002 12.7499Z" fill="#1A1A1A"/>
<path d="M36.46 17H34.972V8.228H36.46L39.292 15.212L42.124 8.228H43.636V17H42.148V14.3C42.148 12.536 42.148 12.02 42.232 11.396L40 17H38.584L36.364 11.408C36.448 11.936 36.46 12.764 36.46 13.856V17ZM48.0135 17.156C46.2495 17.156 45.0135 15.872 45.0135 14.036C45.0135 12.176 46.2255 10.892 47.9655 10.892C49.7415 10.892 50.8695 12.08 50.8695 13.928V14.372L46.4055 14.384C46.5135 15.428 47.0655 15.956 48.0375 15.956C48.8415 15.956 49.3695 15.644 49.5375 15.08H50.8935C50.6415 16.376 49.5615 17.156 48.0135 17.156ZM47.9775 12.092C47.1135 12.092 46.5855 12.56 46.4415 13.448H49.4175C49.4175 12.632 48.8535 12.092 47.9775 12.092ZM53.5052 17H52.0412V11.072H53.3972L53.5172 11.84C53.8892 11.24 54.6092 10.892 55.4132 10.892C56.9012 10.892 57.6692 11.816 57.6692 13.352V17H56.2052V13.7C56.2052 12.704 55.7132 12.224 54.9572 12.224C54.0572 12.224 53.5052 12.848 53.5052 13.808V17ZM63.1276 11.072H64.5916V17H63.2356L63.1276 16.208C62.7676 16.772 61.9996 17.156 61.2076 17.156C59.8396 17.156 59.0356 16.232 59.0356 14.78V11.072H60.4996V14.264C60.4996 15.392 60.9436 15.848 61.7596 15.848C62.6836 15.848 63.1276 15.308 63.1276 14.18V11.072ZM66.0917 14.444V13.148H69.9557V14.444H66.0917ZM72.8034 17H71.4474V8.072H72.9114V11.936C73.2954 11.276 74.0874 10.88 74.9874 10.88C76.6794 10.88 77.7114 12.2 77.7114 14.072C77.7114 15.896 76.5954 17.156 74.8914 17.156C74.0034 17.156 73.2474 16.76 72.8994 16.076L72.8034 17ZM72.9234 14.012C72.9234 15.08 73.5834 15.812 74.5914 15.812C75.6234 15.812 76.2354 15.068 76.2354 14.012C76.2354 12.956 75.6234 12.2 74.5914 12.2C73.5834 12.2 72.9234 12.944 72.9234 14.012ZM78.5291 14.024C78.5291 12.176 79.8611 10.904 81.6971 10.904C83.5331 10.904 84.8651 12.176 84.8651 14.024C84.8651 15.872 83.5331 17.144 81.6971 17.144C79.8611 17.144 78.5291 15.872 78.5291 14.024ZM79.9931 14.024C79.9931 15.104 80.6891 15.836 81.6971 15.836C82.7051 15.836 83.4011 15.104 83.4011 14.024C83.4011 12.944 82.7051 12.212 81.6971 12.212C80.6891 12.212 79.9931 12.944 79.9931 14.024ZM87.7895 17.156C86.5295 17.156 85.7615 16.424 85.7615 15.308C85.7615 14.216 86.5535 13.532 87.9575 13.424L89.7335 13.292V13.16C89.7335 12.356 89.2535 12.032 88.5095 12.032C87.6455 12.032 87.1655 12.392 87.1655 13.016H85.9175C85.9175 11.732 86.9735 10.892 88.5815 10.892C90.1775 10.892 91.1615 11.756 91.1615 13.4V17H89.8775L89.7695 16.124C89.5175 16.736 88.7135 17.156 87.7895 17.156ZM88.2695 16.052C89.1695 16.052 89.7455 15.512 89.7455 14.6V14.288L88.5095 14.384C87.5975 14.468 87.2495 14.768 87.2495 15.248C87.2495 15.788 87.6095 16.052 88.2695 16.052ZM96.3198 11.048V12.404H95.7798C94.7238 12.404 94.0638 12.968 94.0638 14.12V17H92.5998V11.084H93.9798L94.0638 11.948C94.3158 11.36 94.8798 10.964 95.6718 10.964C95.8758 10.964 96.0798 10.988 96.3198 11.048ZM99.5475 17.156C97.8315 17.156 96.7635 15.896 96.7635 14.06C96.7635 12.212 97.8435 10.892 99.6315 10.892C100.459 10.892 101.191 11.24 101.563 11.828V8.072H103.015V17H101.671L101.575 16.076C101.215 16.76 100.447 17.156 99.5475 17.156ZM99.8715 15.812C100.891 15.812 101.551 15.08 101.551 14.012C101.551 12.944 100.891 12.2 99.8715 12.2C98.8515 12.2 98.2275 12.956 98.2275 14.012C98.2275 15.068 98.8515 15.812 99.8715 15.812Z" fill="black"/>
</svg>
