<svg width="111" height="24" viewBox="0 0 111 24" fill="none" xmlns="http://www.w3.org/2000/svg">
<path d="M19.45 6.93965V9.44965C19.45 10.1596 18.73 10.6196 18.06 10.3696C17.22 10.0596 16.29 9.93965 15.31 10.0396C12.93 10.2996 10.49 12.5896 10.09 14.9596C9.76004 16.9296 10.39 18.7696 11.6 20.0696C12.15 20.6696 11.78 21.6396 10.97 21.7296C10.28 21.8096 9.60004 21.7896 9.22004 21.5096L3.72004 17.3996C3.07004 16.9096 2.54004 15.8496 2.54004 15.0296V6.93965C2.54004 5.80965 3.40004 4.56965 4.45004 4.16965L9.95004 2.10965C10.52 1.89965 11.46 1.89965 12.03 2.10965L17.53 4.16965C18.59 4.56965 19.45 5.80965 19.45 6.93965Z" fill="#1A1A1A"/>
<path d="M16 11.5098C13.52 11.5098 11.5 13.5298 11.5 16.0098C11.5 18.4898 13.52 20.5098 16 20.5098C18.48 20.5098 20.5 18.4898 20.5 16.0098C20.5 13.5198 18.48 11.5098 16 11.5098Z" fill="#1A1A1A"/>
<path d="M21 21.9999C20.73 21.9999 20.48 21.8899 20.29 21.7099C20.25 21.6599 20.2 21.6099 20.17 21.5499C20.13 21.4999 20.1 21.4399 20.08 21.3799C20.05 21.3199 20.03 21.2599 20.02 21.1999C20.01 21.1299 20 21.0699 20 20.9999C20 20.8699 20.03 20.7399 20.08 20.6199C20.13 20.4899 20.2 20.3899 20.29 20.2899C20.52 20.0599 20.87 19.9499 21.19 20.0199C21.26 20.0299 21.32 20.0499 21.38 20.0799C21.44 20.0999 21.5 20.1299 21.55 20.1699C21.61 20.1999 21.66 20.2499 21.71 20.2899C21.8 20.3899 21.87 20.4899 21.92 20.6199C21.97 20.7399 22 20.8699 22 20.9999C22 21.2599 21.89 21.5199 21.71 21.7099C21.66 21.7499 21.61 21.7899 21.55 21.8299C21.5 21.8699 21.44 21.8999 21.38 21.9199C21.32 21.9499 21.26 21.9699 21.19 21.9799C21.13 21.9899 21.06 21.9999 21 21.9999Z" fill="#1A1A1A"/>
<path d="M34.468 10.676C34.468 9.14 35.74 8.072 37.588 8.072C39.364 8.072 40.492 9.056 40.54 10.64H39.004C38.968 9.884 38.428 9.44 37.564 9.44C36.616 9.44 36.004 9.896 36.004 10.628C36.004 11.252 36.34 11.6 37.072 11.768L38.452 12.068C39.952 12.392 40.684 13.16 40.684 14.468C40.684 16.1 39.412 17.156 37.48 17.156C35.608 17.156 34.384 16.16 34.348 14.588H35.884C35.896 15.332 36.496 15.776 37.48 15.776C38.5 15.776 39.148 15.332 39.148 14.6C39.148 14.012 38.848 13.664 38.128 13.508L36.736 13.196C35.248 12.872 34.468 12.02 34.468 10.676ZM43.3216 17H41.8576V8.072H43.3336V11.84C43.7056 11.264 44.4016 10.892 45.2536 10.892C46.7176 10.892 47.4856 11.816 47.4856 13.352V17H46.0216V13.7C46.0216 12.704 45.5296 12.224 44.7856 12.224C43.8616 12.224 43.3216 12.872 43.3216 13.76V17ZM49.656 9.884C49.152 9.884 48.756 9.488 48.756 8.996C48.756 8.504 49.152 8.12 49.656 8.12C50.136 8.12 50.532 8.504 50.532 8.996C50.532 9.488 50.136 9.884 49.656 9.884ZM48.924 17V11.072H50.388V17H48.924ZM54.5525 17.156C52.7885 17.156 51.5525 15.872 51.5525 14.036C51.5525 12.176 52.7645 10.892 54.5045 10.892C56.2805 10.892 57.4085 12.08 57.4085 13.928V14.372L52.9445 14.384C53.0525 15.428 53.6045 15.956 54.5765 15.956C55.3805 15.956 55.9085 15.644 56.0765 15.08H57.4325C57.1805 16.376 56.1005 17.156 54.5525 17.156ZM54.5165 12.092C53.6525 12.092 53.1245 12.56 52.9805 13.448H55.9565C55.9565 12.632 55.3925 12.092 54.5165 12.092ZM60.0562 17H58.6042V8.072H60.0562V17ZM64.0279 17.156C62.3119 17.156 61.2439 15.896 61.2439 14.06C61.2439 12.212 62.3239 10.892 64.1119 10.892C64.9399 10.892 65.6719 11.24 66.0439 11.828V8.072H67.4959V17H66.1519L66.0559 16.076C65.6959 16.76 64.9279 17.156 64.0279 17.156ZM64.3519 15.812C65.3719 15.812 66.0319 15.08 66.0319 14.012C66.0319 12.944 65.3719 12.2 64.3519 12.2C63.3319 12.2 62.7079 12.956 62.7079 14.012C62.7079 15.068 63.3319 15.812 64.3519 15.812ZM69.0096 14.444V13.148H72.8736V14.444H69.0096ZM73.8273 15.2H75.2193C75.2313 15.716 75.6153 16.04 76.2873 16.04C76.9713 16.04 77.3433 15.764 77.3433 15.332C77.3433 15.032 77.1873 14.816 76.6593 14.696L75.5913 14.444C74.5233 14.204 74.0073 13.7 74.0073 12.752C74.0073 11.588 74.9913 10.892 76.3593 10.892C77.6913 10.892 78.5913 11.66 78.6033 12.812H77.2113C77.1993 12.308 76.8633 11.984 76.2993 11.984C75.7233 11.984 75.3873 12.248 75.3873 12.692C75.3873 13.028 75.6513 13.244 76.1553 13.364L77.2233 13.616C78.2193 13.844 78.7233 14.3 78.7233 15.212C78.7233 16.412 77.7033 17.156 76.2393 17.156C74.7633 17.156 73.8273 16.364 73.8273 15.2ZM82.49 17.156C80.726 17.156 79.49 15.872 79.49 14.036C79.49 12.176 80.702 10.892 82.442 10.892C84.218 10.892 85.346 12.08 85.346 13.928V14.372L80.882 14.384C80.99 15.428 81.542 15.956 82.514 15.956C83.318 15.956 83.846 15.644 84.014 15.08H85.37C85.118 16.376 84.038 17.156 82.49 17.156ZM82.454 12.092C81.59 12.092 81.062 12.56 80.918 13.448H83.894C83.894 12.632 83.33 12.092 82.454 12.092ZM88.2231 17.156C86.9631 17.156 86.1951 16.424 86.1951 15.308C86.1951 14.216 86.9871 13.532 88.3911 13.424L90.1671 13.292V13.16C90.1671 12.356 89.6871 12.032 88.9431 12.032C88.0791 12.032 87.5991 12.392 87.5991 13.016H86.3511C86.3511 11.732 87.4071 10.892 89.0151 10.892C90.6111 10.892 91.5951 11.756 91.5951 13.4V17H90.3111L90.2031 16.124C89.9511 16.736 89.1471 17.156 88.2231 17.156ZM88.7031 16.052C89.6031 16.052 90.1791 15.512 90.1791 14.6V14.288L88.9431 14.384C88.0311 14.468 87.6831 14.768 87.6831 15.248C87.6831 15.788 88.0431 16.052 88.7031 16.052ZM96.7533 11.048V12.404H96.2133C95.1573 12.404 94.4973 12.968 94.4973 14.12V17H93.0333V11.084H94.4133L94.4973 11.948C94.7493 11.36 95.3133 10.964 96.1053 10.964C96.3093 10.964 96.5133 10.988 96.7533 11.048ZM97.1971 14.024C97.1971 12.188 98.4091 10.892 100.161 10.892C101.781 10.892 102.885 11.792 103.041 13.22H101.577C101.409 12.548 100.917 12.2 100.221 12.2C99.2851 12.2 98.6611 12.908 98.6611 14.024C98.6611 15.14 99.2371 15.836 100.173 15.836C100.905 15.836 101.421 15.476 101.577 14.828H103.053C102.873 16.208 101.721 17.156 100.173 17.156C98.3731 17.156 97.1971 15.908 97.1971 14.024ZM105.607 17H104.143V8.072H105.619V11.84C105.991 11.264 106.687 10.892 107.539 10.892C109.003 10.892 109.771 11.816 109.771 13.352V17H108.307V13.7C108.307 12.704 107.815 12.224 107.071 12.224C106.147 12.224 105.607 12.872 105.607 13.76V17Z" fill="black"/>
</svg>
