<svg width="106" height="24" viewBox="0 0 106 24" fill="none" xmlns="http://www.w3.org/2000/svg">
<path d="M16.19 2H7.81C4.17 2 2 4.17 2 7.81V16.18C2 19.83 4.17 22 7.81 22H16.18C19.82 22 21.99 19.83 21.99 16.19V7.81C22 4.17 19.83 2 16.19 2ZM18.75 14C18.75 14.41 18.41 14.75 18 14.75C17.59 14.75 17.25 14.41 17.25 14V12.75H12.75V17.25H14C14.41 17.25 14.75 17.59 14.75 18C14.75 18.41 14.41 18.75 14 18.75H10C9.59 18.75 9.25 18.41 9.25 18C9.25 17.59 9.59 17.25 10 17.25H11.25V12.75H6.75V14C6.75 14.41 6.41 14.75 6 14.75C5.59 14.75 5.25 14.41 5.25 14V10C5.25 9.59 5.59 9.25 6 9.25C6.41 9.25 6.75 9.59 6.75 10V11.25H11.25V6.75H10C9.59 6.75 9.25 6.41 9.25 6C9.25 5.59 9.59 5.25 10 5.25H14C14.41 5.25 14.75 5.59 14.75 6C14.75 6.41 14.41 6.75 14 6.75H12.75V11.25H17.25V10C17.25 9.59 17.59 9.25 18 9.25C18.41 9.25 18.75 9.59 18.75 10V14Z" fill="#1A1A1A"/>
<path d="M39.46 16H37.972V7.228H39.46L42.292 14.212L45.124 7.228H46.636V16H45.148V13.3C45.148 11.536 45.148 11.02 45.232 10.396L43 16H41.584L39.364 10.408C39.448 10.936 39.46 11.764 39.46 12.856V16ZM50.1255 16.156C48.8655 16.156 48.0975 15.424 48.0975 14.308C48.0975 13.216 48.8895 12.532 50.2935 12.424L52.0695 12.292V12.16C52.0695 11.356 51.5895 11.032 50.8455 11.032C49.9815 11.032 49.5015 11.392 49.5015 12.016H48.2535C48.2535 10.732 49.3095 9.892 50.9175 9.892C52.5135 9.892 53.4975 10.756 53.4975 12.4V16H52.2135L52.1055 15.124C51.8535 15.736 51.0495 16.156 50.1255 16.156ZM50.6055 15.052C51.5055 15.052 52.0815 14.512 52.0815 13.6V13.288L50.8455 13.384C49.9335 13.468 49.5855 13.768 49.5855 14.248C49.5855 14.788 49.9455 15.052 50.6055 15.052ZM55.9677 16H54.2997L56.3397 13.096L54.2997 10.072H56.0037L57.3117 12.088L58.5717 10.072H60.2157L58.1997 13.072L60.1557 16H58.4757L57.2157 14.044L55.9677 16ZM61.82 8.884C61.316 8.884 60.92 8.488 60.92 7.996C60.92 7.504 61.316 7.12 61.82 7.12C62.3 7.12 62.696 7.504 62.696 7.996C62.696 8.488 62.3 8.884 61.82 8.884ZM61.088 16V10.072H62.552V16H61.088ZM65.5286 16H64.0646V10.072H65.4086L65.5286 10.768C65.8286 10.276 66.4286 9.892 67.2806 9.892C68.1806 9.892 68.8046 10.336 69.1166 11.02C69.4166 10.336 70.1126 9.892 71.0126 9.892C72.4526 9.892 73.2446 10.756 73.2446 12.124V16H71.7926V12.508C71.7926 11.656 71.3366 11.212 70.6406 11.212C69.9326 11.212 69.3926 11.668 69.3926 12.64V16H67.9286V12.496C67.9286 11.668 67.4846 11.224 66.7886 11.224C66.0926 11.224 65.5286 11.68 65.5286 12.64V16ZM75.4138 8.884C74.9098 8.884 74.5138 8.488 74.5138 7.996C74.5138 7.504 74.9098 7.12 75.4138 7.12C75.8938 7.12 76.2898 7.504 76.2898 7.996C76.2898 8.488 75.8938 8.884 75.4138 8.884ZM74.6818 16V10.072H76.1458V16H74.6818ZM82.1343 16H77.3463V14.8L80.2983 11.296H77.3463V10.072H82.1343V11.284L79.1343 14.776H82.1343V16ZM85.9119 16.156C84.1479 16.156 82.9119 14.872 82.9119 13.036C82.9119 11.176 84.1239 9.892 85.8639 9.892C87.6399 9.892 88.7679 11.08 88.7679 12.928V13.372L84.3039 13.384C84.4119 14.428 84.9639 14.956 85.9359 14.956C86.7399 14.956 87.2679 14.644 87.4359 14.08H88.7919C88.5399 15.376 87.4599 16.156 85.9119 16.156ZM85.8759 11.092C85.0119 11.092 84.4839 11.56 84.3399 12.448H87.3159C87.3159 11.632 86.7519 11.092 85.8759 11.092Z" fill="black"/>
</svg>
