<svg width="101" height="24" viewBox="0 0 101 24" fill="none" xmlns="http://www.w3.org/2000/svg">
<path d="M22 9.75C21.59 9.75 21.25 9.41 21.25 9V7C21.25 4.42 19.58 2.75 17 2.75H7C4.42 2.75 2.75 4.42 2.75 7V9C2.75 9.41 2.41 9.75 2 9.75C1.59 9.75 1.25 9.41 1.25 9V7C1.25 3.56 3.56 1.25 7 1.25H17C20.44 1.25 22.75 3.56 22.75 7V9C22.75 9.41 22.41 9.75 22 9.75Z" fill="#1A1A1A"/>
<path d="M17 22.75H7C3.56 22.75 1.25 20.44 1.25 17V15C1.25 14.59 1.59 14.25 2 14.25C2.41 14.25 2.75 14.59 2.75 15V17C2.75 19.58 4.42 21.25 7 21.25H17C19.58 21.25 21.25 19.58 21.25 17V15C21.25 14.59 21.59 14.25 22 14.25C22.41 14.25 22.75 14.59 22.75 15V17C22.75 20.44 20.44 22.75 17 22.75Z" fill="#1A1A1A"/>
<path d="M22 12.75H2C1.59 12.75 1.25 12.41 1.25 12C1.25 11.59 1.59 11.25 2 11.25H22C22.41 11.25 22.75 11.59 22.75 12C22.75 12.41 22.41 12.75 22 12.75Z" fill="#1A1A1A"/>
<path d="M16.5 9H7.5C7.22 9 7 8.78 7 8.5V6.5C7 5.67 7.67 5 8.5 5H15.5C16.33 5 17 5.67 17 6.5V8.5C17 8.78 16.78 9 16.5 9Z" fill="#1A1A1A"/>
<path d="M16.5 15H7.5C7.22 15 7 15.22 7 15.5V17.5C7 18.33 7.67 19 8.5 19H15.5C16.32 19 17 18.33 17 17.5V15.5C17 15.22 16.78 15 16.5 15Z" fill="#1A1A1A"/>
<path d="M34.468 9.676C34.468 8.14 35.74 7.072 37.588 7.072C39.364 7.072 40.492 8.056 40.54 9.64H39.004C38.968 8.884 38.428 8.44 37.564 8.44C36.616 8.44 36.004 8.896 36.004 9.628C36.004 10.252 36.34 10.6 37.072 10.768L38.452 11.068C39.952 11.392 40.684 12.16 40.684 13.468C40.684 15.1 39.412 16.156 37.48 16.156C35.608 16.156 34.384 15.16 34.348 13.588H35.884C35.896 14.332 36.496 14.776 37.48 14.776C38.5 14.776 39.148 14.332 39.148 13.6C39.148 13.012 38.848 12.664 38.128 12.508L36.736 12.196C35.248 11.872 34.468 11.02 34.468 9.676ZM41.5096 13.024C41.5096 11.188 42.7216 9.892 44.4736 9.892C46.0936 9.892 47.1976 10.792 47.3536 12.22H45.8896C45.7216 11.548 45.2296 11.2 44.5336 11.2C43.5976 11.2 42.9736 11.908 42.9736 13.024C42.9736 14.14 43.5496 14.836 44.4856 14.836C45.2176 14.836 45.7336 14.476 45.8896 13.828H47.3656C47.1856 15.208 46.0336 16.156 44.4856 16.156C42.6856 16.156 41.5096 14.908 41.5096 13.024ZM50.2192 16.156C48.9592 16.156 48.1912 15.424 48.1912 14.308C48.1912 13.216 48.9832 12.532 50.3872 12.424L52.1632 12.292V12.16C52.1632 11.356 51.6832 11.032 50.9392 11.032C50.0752 11.032 49.5952 11.392 49.5952 12.016H48.3472C48.3472 10.732 49.4032 9.892 51.0112 9.892C52.6072 9.892 53.5912 10.756 53.5912 12.4V16H52.3072L52.1992 15.124C51.9472 15.736 51.1432 16.156 50.2192 16.156ZM50.6992 15.052C51.5992 15.052 52.1752 14.512 52.1752 13.6V13.288L50.9392 13.384C50.0272 13.468 49.6792 13.768 49.6792 14.248C49.6792 14.788 50.0392 15.052 50.6992 15.052ZM56.4934 16H55.0294V10.072H56.3854L56.5054 10.84C56.8774 10.24 57.5974 9.892 58.4014 9.892C59.8894 9.892 60.6574 10.816 60.6574 12.352V16H59.1934V12.7C59.1934 11.704 58.7014 11.224 57.9454 11.224C57.0454 11.224 56.4934 11.848 56.4934 12.808V16ZM63.5598 16H62.0958V10.072H63.4518L63.5718 10.84C63.9438 10.24 64.6638 9.892 65.4678 9.892C66.9558 9.892 67.7238 10.816 67.7238 12.352V16H66.2598V12.7C66.2598 11.704 65.7678 11.224 65.0118 11.224C64.1118 11.224 63.5598 11.848 63.5598 12.808V16ZM71.8143 16.156C70.0503 16.156 68.8143 14.872 68.8143 13.036C68.8143 11.176 70.0263 9.892 71.7663 9.892C73.5423 9.892 74.6703 11.08 74.6703 12.928V13.372L70.2063 13.384C70.3143 14.428 70.8663 14.956 71.8383 14.956C72.6423 14.956 73.1703 14.644 73.3383 14.08H74.6943C74.4423 15.376 73.3623 16.156 71.8143 16.156ZM71.7783 11.092C70.9143 11.092 70.3863 11.56 70.2423 12.448H73.2183C73.2183 11.632 72.6543 11.092 71.7783 11.092ZM79.5619 10.048V11.404H79.0219C77.9659 11.404 77.3059 11.968 77.3059 13.12V16H75.8419V10.084H77.2219L77.3059 10.948C77.5579 10.36 78.1219 9.964 78.9139 9.964C79.1179 9.964 79.3219 9.988 79.5619 10.048Z" fill="black"/>
</svg>
