<svg width="125" height="24" viewBox="0 0 125 24" fill="none" xmlns="http://www.w3.org/2000/svg">
<path d="M11.25 12.75V22H7.81C4.17 22 2 19.83 2 16.19V12.75H11.25Z" fill="#1A1A1A"/>
<path d="M22 7.81V11.25H12.75V2H16.19C19.83 2 22 4.17 22 7.81Z" fill="#1A1A1A"/>
<path d="M11.25 2V11.25H2V7.81C2 4.17 4.17 2 7.81 2H11.25Z" fill="#1A1A1A"/>
<path d="M22 12.75V16.19C22 19.83 19.83 22 16.19 22H12.75V12.75H22Z" fill="#1A1A1A"/>
<path d="M62.812 8.524C61.072 8.524 60.076 9.784 60.076 11.68C60.076 13.636 61.204 14.704 62.824 14.704C64.348 14.704 65.272 13.864 65.272 12.46V12.424H62.62V11.068H66.7V16H65.404L65.308 14.992C64.828 15.664 63.832 16.132 62.644 16.132C60.184 16.132 58.468 14.344 58.468 11.644C58.468 8.98 60.208 7.084 62.848 7.084C64.852 7.084 66.4 8.248 66.652 10.036H65.032C64.756 9.004 63.868 8.524 62.812 8.524ZM71.8627 10.048V11.404H71.3227C70.2667 11.404 69.6067 11.968 69.6067 13.12V16H68.1427V10.084H69.5227L69.6067 10.948C69.8587 10.36 70.4227 9.964 71.2147 9.964C71.4187 9.964 71.6227 9.988 71.8627 10.048ZM73.5857 8.884C73.0817 8.884 72.6857 8.488 72.6857 7.996C72.6857 7.504 73.0817 7.12 73.5857 7.12C74.0657 7.12 74.4617 7.504 74.4617 7.996C74.4617 8.488 74.0657 8.884 73.5857 8.884ZM72.8537 16V10.072H74.3177V16H72.8537ZM78.2662 16.156C76.5502 16.156 75.4822 14.896 75.4822 13.06C75.4822 11.212 76.5622 9.892 78.3502 9.892C79.1782 9.892 79.9102 10.24 80.2822 10.828V7.072H81.7342V16H80.3902L80.2942 15.076C79.9342 15.76 79.1662 16.156 78.2662 16.156ZM78.5902 14.812C79.6102 14.812 80.2702 14.08 80.2702 13.012C80.2702 11.944 79.6102 11.2 78.5902 11.2C77.5702 11.2 76.9462 11.956 76.9462 13.012C76.9462 14.068 77.5702 14.812 78.5902 14.812ZM83.2479 13.444V12.148H87.1119V13.444H83.2479ZM93.7102 15.988L87.6262 16V14.848L90.4942 12.424C91.6822 11.416 92.0782 10.84 92.0782 10C92.0782 9.004 91.5382 8.44 90.6142 8.44C89.6542 8.44 89.0542 9.112 89.0422 10.24H87.5182C87.5302 8.32 88.7542 7.072 90.6142 7.072C92.4862 7.072 93.6502 8.14 93.6502 9.916C93.6502 11.14 92.9782 12.064 91.6462 13.204L90.0622 14.56H93.7102V15.988Z" fill="black"/>
</svg>
