<svg width="118" height="24" viewBox="0 0 118 24" fill="none" xmlns="http://www.w3.org/2000/svg">
<path d="M19.5099 5.85L13.5699 2.42C12.5999 1.86 11.3999 1.86 10.4199 2.42L4.48992 5.85C3.51992 6.41 2.91992 7.45 2.91992 8.58V15.42C2.91992 16.54 3.51992 17.58 4.48992 18.15L10.4299 21.58C11.3999 22.14 12.5999 22.14 13.5799 21.58L19.5199 18.15C20.4899 17.59 21.0899 16.55 21.0899 15.42V8.58C21.0799 7.45 20.4799 6.42 19.5099 5.85ZM14.2499 13.4L13.2099 14L12.1699 14.6C10.8399 15.37 9.74992 14.74 9.74992 13.2V12V10.8C9.74992 9.26 10.8399 8.63 12.1699 9.4L13.2099 10L14.2499 10.6C15.5799 11.37 15.5799 12.63 14.2499 13.4Z" fill="#1A1A1A"/>
<path d="M37.432 17L34.12 8.228H35.752L37.672 13.28C37.864 13.808 38.032 14.324 38.224 15.032C38.44 14.264 38.62 13.724 38.788 13.28L40.684 8.228H42.28L39.016 17H37.432ZM43.8903 9.884C43.3863 9.884 42.9903 9.488 42.9903 8.996C42.9903 8.504 43.3863 8.12 43.8903 8.12C44.3703 8.12 44.7663 8.504 44.7663 8.996C44.7663 9.488 44.3703 9.884 43.8903 9.884ZM43.1583 17V11.072H44.6223V17H43.1583ZM48.5709 17.156C46.8549 17.156 45.7869 15.896 45.7869 14.06C45.7869 12.212 46.8669 10.892 48.6549 10.892C49.4829 10.892 50.2149 11.24 50.5869 11.828V8.072H52.0389V17H50.6949L50.5989 16.076C50.2389 16.76 49.4709 17.156 48.5709 17.156ZM48.8949 15.812C49.9149 15.812 50.5749 15.08 50.5749 14.012C50.5749 12.944 49.9149 12.2 48.8949 12.2C47.8749 12.2 47.2509 12.956 47.2509 14.012C47.2509 15.068 47.8749 15.812 48.8949 15.812ZM56.2166 17.156C54.4526 17.156 53.2166 15.872 53.2166 14.036C53.2166 12.176 54.4286 10.892 56.1686 10.892C57.9446 10.892 59.0726 12.08 59.0726 13.928V14.372L54.6086 14.384C54.7166 15.428 55.2686 15.956 56.2406 15.956C57.0446 15.956 57.5726 15.644 57.7406 15.08H59.0966C58.8446 16.376 57.7646 17.156 56.2166 17.156ZM56.1806 12.092C55.3166 12.092 54.7886 12.56 54.6446 13.448H57.6206C57.6206 12.632 57.0566 12.092 56.1806 12.092ZM59.8963 14.024C59.8963 12.176 61.2283 10.904 63.0643 10.904C64.9003 10.904 66.2323 12.176 66.2323 14.024C66.2323 15.872 64.9003 17.144 63.0643 17.144C61.2283 17.144 59.8963 15.872 59.8963 14.024ZM61.3603 14.024C61.3603 15.104 62.0563 15.836 63.0643 15.836C64.0723 15.836 64.7683 15.104 64.7683 14.024C64.7683 12.944 64.0723 12.212 63.0643 12.212C62.0563 12.212 61.3603 12.944 61.3603 14.024ZM67.3807 14.444V13.148H71.2447V14.444H67.3807ZM72.3885 14.024C72.3885 12.176 73.7205 10.904 75.5565 10.904C77.3925 10.904 78.7245 12.176 78.7245 14.024C78.7245 15.872 77.3925 17.144 75.5565 17.144C73.7205 17.144 72.3885 15.872 72.3885 14.024ZM73.8525 14.024C73.8525 15.104 74.5485 15.836 75.5565 15.836C76.5645 15.836 77.2605 15.104 77.2605 14.024C77.2605 12.944 76.5645 12.212 75.5565 12.212C74.5485 12.212 73.8525 12.944 73.8525 14.024ZM79.5369 14.024C79.5369 12.188 80.7489 10.892 82.5009 10.892C84.1209 10.892 85.2249 11.792 85.3809 13.22H83.9169C83.7489 12.548 83.2569 12.2 82.5609 12.2C81.6249 12.2 81.0009 12.908 81.0009 14.024C81.0009 15.14 81.5769 15.836 82.5129 15.836C83.2449 15.836 83.7609 15.476 83.9169 14.828H85.3929C85.2129 16.208 84.0609 17.156 82.5129 17.156C80.7129 17.156 79.5369 15.908 79.5369 14.024ZM88.4986 17H87.0346V12.296H85.8946V11.072H87.0346V9.224H88.4986V11.072H89.6506V12.296H88.4986V17ZM92.2895 17.156C91.0295 17.156 90.2615 16.424 90.2615 15.308C90.2615 14.216 91.0535 13.532 92.4575 13.424L94.2335 13.292V13.16C94.2335 12.356 93.7535 12.032 93.0095 12.032C92.1455 12.032 91.6655 12.392 91.6655 13.016H90.4175C90.4175 11.732 91.4735 10.892 93.0815 10.892C94.6775 10.892 95.6615 11.756 95.6615 13.4V17H94.3775L94.2695 16.124C94.0175 16.736 93.2135 17.156 92.2895 17.156ZM92.7695 16.052C93.6695 16.052 94.2455 15.512 94.2455 14.6V14.288L93.0095 14.384C92.0975 14.468 91.7495 14.768 91.7495 15.248C91.7495 15.788 92.1095 16.052 92.7695 16.052ZM96.7638 13.904C96.7638 12.176 97.8918 10.88 99.5838 10.88C100.472 10.88 101.168 11.252 101.516 11.888L101.6 11.072H102.956V16.7C102.956 18.68 101.768 19.916 99.8478 19.916C98.1438 19.916 96.9798 18.944 96.7998 17.36H98.2638C98.3598 18.128 98.9478 18.584 99.8478 18.584C100.856 18.584 101.504 17.948 101.504 16.964V15.98C101.132 16.532 100.4 16.88 99.5478 16.88C97.8678 16.88 96.7638 15.62 96.7638 13.904ZM98.2398 13.868C98.2398 14.864 98.8758 15.608 99.8358 15.608C100.844 15.608 101.468 14.9 101.468 13.868C101.468 12.86 100.856 12.164 99.8358 12.164C98.8638 12.164 98.2398 12.896 98.2398 13.868ZM104.123 14.024C104.123 12.176 105.455 10.904 107.291 10.904C109.127 10.904 110.459 12.176 110.459 14.024C110.459 15.872 109.127 17.144 107.291 17.144C105.455 17.144 104.123 15.872 104.123 14.024ZM105.587 14.024C105.587 15.104 106.283 15.836 107.291 15.836C108.299 15.836 108.995 15.104 108.995 14.024C108.995 12.944 108.299 12.212 107.291 12.212C106.283 12.212 105.587 12.944 105.587 14.024ZM113.083 17H111.619V11.072H112.975L113.095 11.84C113.467 11.24 114.187 10.892 114.991 10.892C116.479 10.892 117.247 11.816 117.247 13.352V17H115.783V13.7C115.783 12.704 115.291 12.224 114.535 12.224C113.635 12.224 113.083 12.848 113.083 13.808V17Z" fill="black"/>
</svg>
