<svg width="200" height="24" viewBox="0 0 200 24" fill="none" xmlns="http://www.w3.org/2000/svg">
<path d="M6.67 14H4C2.9 14 2 14.9 2 16V21C2 21.55 2.45 22 3 22H6.67C7.22 22 7.67 21.55 7.67 21V15C7.67 14.45 7.22 14 6.67 14Z" fill="#1A1A1A"/>
<path d="M13.33 10H10.66C9.56003 10 8.66003 10.9 8.66003 12V21C8.66003 21.55 9.11003 22 9.66003 22H14.33C14.88 22 15.33 21.55 15.33 21V12C15.33 10.9 14.44 10 13.33 10Z" fill="#1A1A1A"/>
<path d="M20 17H17.33C16.78 17 16.33 17.45 16.33 18V21C16.33 21.55 16.78 22 17.33 22H21C21.55 22 22 21.55 22 21V19C22 17.9 21.1 17 20 17Z" fill="#1A1A1A"/>
<path d="M15.0099 4.84998C15.3199 4.53998 15.4399 4.16998 15.3399 3.84998C15.2399 3.52998 14.9299 3.29998 14.4899 3.22998L13.5299 3.06998C13.4899 3.06998 13.3999 2.99998 13.3799 2.95998L12.8499 1.89998C12.4499 1.08998 11.5399 1.08998 11.1399 1.89998L10.6099 2.95998C10.5999 2.99998 10.5099 3.06998 10.4699 3.06998L9.50994 3.22998C9.06994 3.29998 8.76994 3.52998 8.65994 3.84998C8.55994 4.16998 8.67994 4.53998 8.98994 4.84998L9.72994 5.59998C9.76994 5.62998 9.79994 5.74998 9.78994 5.78998L9.57994 6.70998C9.41994 7.39998 9.67994 7.70998 9.84994 7.82998C10.0199 7.94998 10.3899 8.10998 10.9999 7.74998L11.8999 7.21998C11.9399 7.18998 12.0699 7.18998 12.1099 7.21998L12.9999 7.74998C13.2799 7.91998 13.5099 7.96998 13.6899 7.96998C13.8999 7.96998 14.0499 7.88998 14.1399 7.82998C14.3099 7.70998 14.5699 7.39998 14.4099 6.70998L14.1999 5.78998C14.1899 5.73998 14.2199 5.62998 14.2599 5.59998L15.0099 4.84998Z" fill="#1A1A1A"/>
<path d="M36.508 16H34.972V7.228H38.32C40.312 7.228 41.476 8.236 41.476 9.964C41.476 11.14 40.924 11.98 39.892 12.4L41.56 16H39.88L38.392 12.724H36.508V16ZM36.508 8.596V11.368H38.32C39.292 11.368 39.868 10.852 39.868 9.964C39.868 9.088 39.292 8.596 38.32 8.596H36.508ZM44.3247 16.156C43.0647 16.156 42.2967 15.424 42.2967 14.308C42.2967 13.216 43.0887 12.532 44.4927 12.424L46.2687 12.292V12.16C46.2687 11.356 45.7887 11.032 45.0447 11.032C44.1807 11.032 43.7007 11.392 43.7007 12.016H42.4527C42.4527 10.732 43.5087 9.892 45.1167 9.892C46.7127 9.892 47.6967 10.756 47.6967 12.4V16H46.4127L46.3047 15.124C46.0527 15.736 45.2487 16.156 44.3247 16.156ZM44.8047 15.052C45.7047 15.052 46.2807 14.512 46.2807 13.6V13.288L45.0447 13.384C44.1327 13.468 43.7847 13.768 43.7847 14.248C43.7847 14.788 44.1447 15.052 44.8047 15.052ZM50.5989 16H49.1349V10.072H50.4909L50.6109 10.84C50.9829 10.24 51.7029 9.892 52.5069 9.892C53.9949 9.892 54.7629 10.816 54.7629 12.352V16H53.2989V12.7C53.2989 11.704 52.8069 11.224 52.0509 11.224C51.1509 11.224 50.5989 11.848 50.5989 12.808V16ZM57.6773 16H56.2253V7.072H57.6773V12.556L59.9813 10.072H61.8173L59.5613 12.424L61.7693 16H60.0893L58.5413 13.504L57.6773 14.404V16ZM63.3903 8.884C62.8863 8.884 62.4903 8.488 62.4903 7.996C62.4903 7.504 62.8863 7.12 63.3903 7.12C63.8703 7.12 64.2663 7.504 64.2663 7.996C64.2663 8.488 63.8703 8.884 63.3903 8.884ZM62.6583 16V10.072H64.1223V16H62.6583ZM67.0989 16H65.6349V10.072H66.9909L67.1109 10.84C67.4829 10.24 68.2029 9.892 69.0069 9.892C70.4949 9.892 71.2629 10.816 71.2629 12.352V16H69.7989V12.7C69.7989 11.704 69.3069 11.224 68.5509 11.224C67.6509 11.224 67.0989 11.848 67.0989 12.808V16ZM72.3653 12.904C72.3653 11.176 73.4933 9.88 75.1853 9.88C76.0733 9.88 76.7693 10.252 77.1173 10.888L77.2013 10.072H78.5573V15.7C78.5573 17.68 77.3693 18.916 75.4493 18.916C73.7453 18.916 72.5813 17.944 72.4013 16.36H73.8653C73.9613 17.128 74.5493 17.584 75.4493 17.584C76.4573 17.584 77.1053 16.948 77.1053 15.964V14.98C76.7333 15.532 76.0013 15.88 75.1493 15.88C73.4693 15.88 72.3653 14.62 72.3653 12.904ZM73.8413 12.868C73.8413 13.864 74.4773 14.608 75.4373 14.608C76.4453 14.608 77.0693 13.9 77.0693 12.868C77.0693 11.86 76.4573 11.164 75.4373 11.164C74.4653 11.164 73.8413 11.896 73.8413 12.868Z" fill="black"/>
</svg>
