<svg width="109" height="24" viewBox="0 0 109 24" fill="none" xmlns="http://www.w3.org/2000/svg">
<path d="M18.5002 4.11031L13.5102 2.24031C12.6802 1.93031 11.3202 1.93031 10.4902 2.24031L5.50016 4.11031C4.35016 4.54031 3.41016 5.90031 3.41016 7.12031V14.5503C3.41016 15.7303 4.19016 17.2803 5.14016 17.9903L9.44016 21.2003C10.8502 22.2603 13.1702 22.2603 14.5802 21.2003L18.8802 17.9903C19.8302 17.2803 20.6102 15.7303 20.6102 14.5503V7.12031C20.5902 5.90031 19.6502 4.54031 18.5002 4.11031ZM11.9302 7.03031C13.1102 7.03031 14.0702 7.99031 14.0702 9.17031C14.0702 10.3303 13.1602 11.2603 12.0102 11.3003H11.9902H11.9702C11.9502 11.3003 11.9302 11.3003 11.9102 11.3003C10.7102 11.2603 9.81016 10.3303 9.81016 9.17031C9.80016 7.99031 10.7602 7.03031 11.9302 7.03031ZM14.1902 16.3603C13.5802 16.7603 12.7902 16.9703 12.0002 16.9703C11.2102 16.9703 10.4102 16.7703 9.81016 16.3603C9.24016 15.9803 8.93016 15.4603 8.92016 14.8903C8.92016 14.3303 9.24016 13.7903 9.81016 13.4103C11.0202 12.6103 12.9902 12.6103 14.2002 13.4103C14.7702 13.7903 15.0902 14.3103 15.0902 14.8803C15.0802 15.4403 14.7602 15.9803 14.1902 16.3603Z" fill="#1A1A1A"/>
<path d="M34.468 10.676C34.468 9.14 35.74 8.072 37.588 8.072C39.364 8.072 40.492 9.056 40.54 10.64H39.004C38.968 9.884 38.428 9.44 37.564 9.44C36.616 9.44 36.004 9.896 36.004 10.628C36.004 11.252 36.34 11.6 37.072 11.768L38.452 12.068C39.952 12.392 40.684 13.16 40.684 14.468C40.684 16.1 39.412 17.156 37.48 17.156C35.608 17.156 34.384 16.16 34.348 14.588H35.884C35.896 15.332 36.496 15.776 37.48 15.776C38.5 15.776 39.148 15.332 39.148 14.6C39.148 14.012 38.848 13.664 38.128 13.508L36.736 13.196C35.248 12.872 34.468 12.02 34.468 10.676ZM44.5096 17.156C42.7456 17.156 41.5096 15.872 41.5096 14.036C41.5096 12.176 42.7216 10.892 44.4616 10.892C46.2376 10.892 47.3656 12.08 47.3656 13.928V14.372L42.9016 14.384C43.0096 15.428 43.5616 15.956 44.5336 15.956C45.3376 15.956 45.8656 15.644 46.0336 15.08H47.3896C47.1376 16.376 46.0576 17.156 44.5096 17.156ZM44.4736 12.092C43.6096 12.092 43.0816 12.56 42.9376 13.448H45.9136C45.9136 12.632 45.3496 12.092 44.4736 12.092ZM48.1893 14.024C48.1893 12.188 49.4013 10.892 51.1533 10.892C52.7733 10.892 53.8773 11.792 54.0333 13.22H52.5693C52.4013 12.548 51.9093 12.2 51.2133 12.2C50.2773 12.2 49.6533 12.908 49.6533 14.024C49.6533 15.14 50.2293 15.836 51.1653 15.836C51.8973 15.836 52.4133 15.476 52.5693 14.828H54.0453C53.8653 16.208 52.7133 17.156 51.1653 17.156C49.3652 17.156 48.1893 15.908 48.1893 14.024ZM59.1549 11.072H60.6189V17H59.2629L59.1549 16.208C58.7949 16.772 58.0269 17.156 57.2349 17.156C55.8669 17.156 55.0629 16.232 55.0629 14.78V11.072H56.5269V14.264C56.5269 15.392 56.9709 15.848 57.7869 15.848C58.7109 15.848 59.1549 15.308 59.1549 14.18V11.072ZM65.851 11.048V12.404H65.311C64.255 12.404 63.595 12.968 63.595 14.12V17H62.131V11.084H63.511L63.595 11.948C63.847 11.36 64.411 10.964 65.203 10.964C65.407 10.964 65.611 10.988 65.851 11.048ZM67.5739 9.884C67.0699 9.884 66.6739 9.488 66.6739 8.996C66.6739 8.504 67.0699 8.12 67.5739 8.12C68.0539 8.12 68.4499 8.504 68.4499 8.996C68.4499 9.488 68.0539 9.884 67.5739 9.884ZM66.8419 17V11.072H68.3059V17H66.8419ZM71.8345 17H70.3705V12.296H69.2305V11.072H70.3705V9.224H71.8345V11.072H72.9865V12.296H71.8345V17ZM73.3806 19.748V18.524H74.2566C74.8326 18.524 75.1926 18.392 75.4446 17.696L75.6126 17.252L73.2246 11.072H74.7726L76.2966 15.392L77.9046 11.072H79.4166L76.5126 18.32C76.0686 19.424 75.4446 19.88 74.4726 19.88C74.0646 19.88 73.7046 19.832 73.3806 19.748ZM79.826 14.444V13.148H83.69V14.444H79.826ZM89.2018 11.072H90.6658V17H89.3098L89.2018 16.208C88.8418 16.772 88.0738 17.156 87.2818 17.156C85.9138 17.156 85.1098 16.232 85.1098 14.78V11.072H86.5738V14.264C86.5738 15.392 87.0178 15.848 87.8338 15.848C88.7578 15.848 89.2018 15.308 89.2018 14.18V11.072ZM91.6047 15.2H92.9967C93.0087 15.716 93.3927 16.04 94.0647 16.04C94.7487 16.04 95.1207 15.764 95.1207 15.332C95.1207 15.032 94.9647 14.816 94.4367 14.696L93.3687 14.444C92.3007 14.204 91.7847 13.7 91.7847 12.752C91.7847 11.588 92.7687 10.892 94.1367 10.892C95.4687 10.892 96.3687 11.66 96.3807 12.812H94.9887C94.9767 12.308 94.6407 11.984 94.0767 11.984C93.5007 11.984 93.1647 12.248 93.1647 12.692C93.1647 13.028 93.4287 13.244 93.9327 13.364L95.0007 13.616C95.9967 13.844 96.5007 14.3 96.5007 15.212C96.5007 16.412 95.4807 17.156 94.0167 17.156C92.5407 17.156 91.6047 16.364 91.6047 15.2ZM100.267 17.156C98.5034 17.156 97.2674 15.872 97.2674 14.036C97.2674 12.176 98.4794 10.892 100.219 10.892C101.995 10.892 103.123 12.08 103.123 13.928V14.372L98.6594 14.384C98.7674 15.428 99.3194 15.956 100.291 15.956C101.095 15.956 101.623 15.644 101.791 15.08H103.147C102.895 16.376 101.815 17.156 100.267 17.156ZM100.231 12.092C99.3674 12.092 98.8394 12.56 98.6954 13.448H101.671C101.671 12.632 101.107 12.092 100.231 12.092ZM108.015 11.048V12.404H107.475C106.419 12.404 105.759 12.968 105.759 14.12V17H104.295V11.084H105.675L105.759 11.948C106.011 11.36 106.575 10.964 107.367 10.964C107.571 10.964 107.775 10.988 108.015 11.048Z" fill="black"/>
</svg>
