<svg width="200" height="24" viewBox="0 0 200 24" fill="none" xmlns="http://www.w3.org/2000/svg">
<path d="M11.97 2C6.44997 2 1.96997 6.48 1.96997 12C1.96997 17.52 6.44997 22 11.97 22C17.49 22 21.97 17.52 21.97 12C21.97 6.48 17.5 2 11.97 2ZM17.4 16.43C16.17 18.2 14.15 19.25 12 19.25C9.84997 19.25 7.82997 18.2 6.59997 16.43C6.35997 16.09 6.44997 15.62 6.78997 15.39C7.12997 15.15 7.59997 15.24 7.82997 15.58C8.77997 16.94 10.34 17.76 12 17.76C13.66 17.76 15.22 16.95 16.17 15.58C16.41 15.24 16.87 15.16 17.21 15.39C17.56 15.62 17.64 16.09 17.4 16.43Z" fill="#1A1A1A"/>
<path d="M36.508 16H34.972V7.228H36.508V10.852H40.396V7.228H41.932V16H40.396V12.28H36.508V16ZM45.4263 16.156C44.1663 16.156 43.3983 15.424 43.3983 14.308C43.3983 13.216 44.1903 12.532 45.5943 12.424L47.3703 12.292V12.16C47.3703 11.356 46.8903 11.032 46.1463 11.032C45.2823 11.032 44.8023 11.392 44.8023 12.016H43.5543C43.5543 10.732 44.6103 9.892 46.2183 9.892C47.8143 9.892 48.7983 10.756 48.7983 12.4V16H47.5143L47.4063 15.124C47.1543 15.736 46.3503 16.156 45.4263 16.156ZM45.9062 15.052C46.8063 15.052 47.3823 14.512 47.3823 13.6V13.288L46.1463 13.384C45.2343 13.468 44.8863 13.768 44.8863 14.248C44.8863 14.788 45.2463 15.052 45.9062 15.052ZM50.2365 18.748V10.072H51.5925L51.6885 10.972C52.0485 10.288 52.8285 9.892 53.7285 9.892C55.3965 9.892 56.5005 11.104 56.5005 12.964C56.5005 14.812 55.4925 16.156 53.7285 16.156C52.8405 16.156 52.0725 15.808 51.7005 15.208V18.748H50.2365ZM51.7125 13.036C51.7125 14.104 52.3725 14.836 53.3805 14.836C54.4125 14.836 55.0245 14.092 55.0245 13.036C55.0245 11.98 54.4125 11.224 53.3805 11.224C52.3725 11.224 51.7125 11.968 51.7125 13.036ZM57.6662 18.748V10.072H59.0222L59.1182 10.972C59.4782 10.288 60.2582 9.892 61.1582 9.892C62.8262 9.892 63.9302 11.104 63.9302 12.964C63.9302 14.812 62.9222 16.156 61.1582 16.156C60.2702 16.156 59.5022 15.808 59.1302 15.208V18.748H57.6662ZM59.1422 13.036C59.1422 14.104 59.8022 14.836 60.8102 14.836C61.8422 14.836 62.4542 14.092 62.4542 13.036C62.4542 11.98 61.8422 11.224 60.8102 11.224C59.8022 11.224 59.1422 11.968 59.1422 13.036ZM64.3572 18.748V17.524H65.2332C65.8092 17.524 66.1692 17.392 66.4212 16.696L66.5892 16.252L64.2012 10.072H65.7492L67.2732 14.392L68.8812 10.072H70.3932L67.4892 17.32C67.0452 18.424 66.4212 18.88 65.4492 18.88C65.0412 18.88 64.6812 18.832 64.3572 18.748ZM73.6072 16.156C71.8432 16.156 70.6072 14.872 70.6072 13.036C70.6072 11.176 71.8192 9.892 73.5592 9.892C75.3352 9.892 76.4632 11.08 76.4632 12.928V13.372L71.9992 13.384C72.1072 14.428 72.6592 14.956 73.6312 14.956C74.4352 14.956 74.9632 14.644 75.1312 14.08H76.4872C76.2352 15.376 75.1552 16.156 73.6072 16.156ZM73.5712 11.092C72.7072 11.092 72.1792 11.56 72.0352 12.448H75.0112C75.0112 11.632 74.4472 11.092 73.5712 11.092ZM79.0989 16H77.6349V10.072H78.9789L79.0989 10.768C79.3989 10.276 79.9989 9.892 80.8509 9.892C81.7509 9.892 82.3749 10.336 82.6869 11.02C82.9869 10.336 83.6829 9.892 84.5829 9.892C86.0229 9.892 86.8149 10.756 86.8149 12.124V16H85.3629V12.508C85.3629 11.656 84.9069 11.212 84.2109 11.212C83.5029 11.212 82.9629 11.668 82.9629 12.64V16H81.4989V12.496C81.4989 11.668 81.0549 11.224 80.3589 11.224C79.6629 11.224 79.0989 11.68 79.0989 12.64V16ZM87.9041 13.024C87.9041 11.176 89.2361 9.904 91.0721 9.904C92.9081 9.904 94.2401 11.176 94.2401 13.024C94.2401 14.872 92.9081 16.144 91.0721 16.144C89.2361 16.144 87.9041 14.872 87.9041 13.024ZM89.3681 13.024C89.3681 14.104 90.0641 14.836 91.0721 14.836C92.0801 14.836 92.7761 14.104 92.7761 13.024C92.7761 11.944 92.0801 11.212 91.0721 11.212C90.0641 11.212 89.3681 11.944 89.3681 13.024ZM96.1325 8.884C95.6405 8.884 95.2445 8.488 95.2445 7.996C95.2445 7.504 95.6405 7.12 96.1325 7.12C96.6125 7.12 97.0205 7.504 97.0205 7.996C97.0205 8.488 96.6125 8.884 96.1325 8.884ZM93.9845 18.784L94.2245 17.488C94.4285 17.548 94.5485 17.56 94.7285 17.56C95.2325 17.56 95.4005 17.272 95.4005 16.672V10.072H96.8645V16.84C96.8645 18.1 96.1445 18.916 94.8605 18.916C94.5845 18.916 94.3685 18.892 93.9845 18.784ZM99.1091 8.884C98.6051 8.884 98.2091 8.488 98.2091 7.996C98.2091 7.504 98.6051 7.12 99.1091 7.12C99.5891 7.12 99.9851 7.504 99.9851 7.996C99.9851 8.488 99.5891 8.884 99.1091 8.884ZM98.3771 16V10.072H99.8411V16H98.3771Z" fill="black"/>
</svg>
