<svg width="105" height="24" viewBox="0 0 105 24" fill="none" xmlns="http://www.w3.org/2000/svg">
<path d="M14.8896 3.45H9.10965C8.70965 3.45 8.38965 3.13 8.38965 2.73C8.38965 2.33 8.70965 2 9.10965 2H14.8896C15.2896 2 15.6096 2.32 15.6096 2.72C15.6096 3.12 15.2896 3.45 14.8896 3.45Z" fill="#1A1A1A"/>
<path d="M14.0001 19.9699V17.0299C14.0001 15.2199 15.2201 13.9999 17.0301 13.9999H19.9701C20.2001 13.9999 20.4201 14.0199 20.6301 14.0599C20.6501 13.8199 20.6701 13.5799 20.6701 13.3299C20.6701 8.5399 16.7801 4.6499 12.0001 4.6499C7.22008 4.6499 3.33008 8.5399 3.33008 13.3299C3.33008 18.1099 7.22008 21.9999 12.0001 21.9999C12.8501 21.9999 13.6601 21.8599 14.4401 21.6399C14.1601 21.1699 14.0001 20.6099 14.0001 19.9699ZM12.7501 12.9999C12.7501 13.4099 12.4101 13.7499 12.0001 13.7499C11.5901 13.7499 11.2501 13.4099 11.2501 12.9999V7.9999C11.2501 7.5899 11.5901 7.2499 12.0001 7.2499C12.4101 7.2499 12.7501 7.5899 12.7501 7.9999V12.9999Z" fill="#1A1A1A"/>
<path d="M19.97 15H17.04C15.76 15 15 15.76 15 17.03V19.97C15 21.24 15.76 22 17.04 22H19.97C21.24 22 22 21.24 22 19.97V17.03C22 15.76 21.24 15 19.97 15ZM17.92 20.06C17.92 20.38 17.66 20.64 17.33 20.64C17.01 20.64 16.75 20.38 16.75 20.06V16.94C16.75 16.62 17.01 16.36 17.33 16.36C17.66 16.36 17.92 16.62 17.92 16.94V20.06ZM20.25 20.06C20.25 20.38 19.99 20.64 19.67 20.64C19.35 20.64 19.08 20.38 19.08 20.06V16.94C19.08 16.62 19.35 16.36 19.67 16.36C19.99 16.36 20.25 16.62 20.25 16.94V20.06Z" fill="#1A1A1A"/>
<path d="M34.204 9.644V8.228H40.876V9.644H38.308V17H36.772V9.644H34.204ZM42.5661 9.884C42.0621 9.884 41.6661 9.488 41.6661 8.996C41.6661 8.504 42.0621 8.12 42.5661 8.12C43.0461 8.12 43.4421 8.504 43.4421 8.996C43.4421 9.488 43.0461 9.884 42.5661 9.884ZM41.8341 17V11.072H43.2981V17H41.8341ZM46.2747 17H44.8107V11.072H46.1547L46.2747 11.768C46.5747 11.276 47.1747 10.892 48.0267 10.892C48.9267 10.892 49.5507 11.336 49.8627 12.02C50.1627 11.336 50.8587 10.892 51.7587 10.892C53.1987 10.892 53.9907 11.756 53.9907 13.124V17H52.5387V13.508C52.5387 12.656 52.0827 12.212 51.3867 12.212C50.6787 12.212 50.1387 12.668 50.1387 13.64V17H48.6747V13.496C48.6747 12.668 48.2307 12.224 47.5347 12.224C46.8387 12.224 46.2747 12.68 46.2747 13.64V17ZM58.0799 17.156C56.3159 17.156 55.0799 15.872 55.0799 14.036C55.0799 12.176 56.2919 10.892 58.0319 10.892C59.8079 10.892 60.9359 12.08 60.9359 13.928V14.372L56.4719 14.384C56.5799 15.428 57.1319 15.956 58.1039 15.956C58.9079 15.956 59.4359 15.644 59.6039 15.08H60.9599C60.7079 16.376 59.6279 17.156 58.0799 17.156ZM58.0439 12.092C57.1799 12.092 56.6519 12.56 56.5079 13.448H59.4839C59.4839 12.632 58.9199 12.092 58.0439 12.092ZM65.8276 11.048V12.404H65.2876C64.2316 12.404 63.5716 12.968 63.5716 14.12V17H62.1076V11.084H63.4876L63.5716 11.948C63.8236 11.36 64.3876 10.964 65.1796 10.964C65.3836 10.964 65.5876 10.988 65.8276 11.048ZM66.3729 14.444V13.148H70.2369V14.444H66.3729ZM71.7287 19.748V11.072H73.0847L73.1807 11.972C73.5407 11.288 74.3207 10.892 75.2207 10.892C76.8887 10.892 77.9927 12.104 77.9927 13.964C77.9927 15.812 76.9847 17.156 75.2207 17.156C74.3327 17.156 73.5647 16.808 73.1927 16.208V19.748H71.7287ZM73.2047 14.036C73.2047 15.104 73.8647 15.836 74.8727 15.836C75.9047 15.836 76.5167 15.092 76.5167 14.036C76.5167 12.98 75.9047 12.224 74.8727 12.224C73.8647 12.224 73.2047 12.968 73.2047 14.036ZM80.9223 17.156C79.6623 17.156 78.8943 16.424 78.8943 15.308C78.8943 14.216 79.6863 13.532 81.0903 13.424L82.8663 13.292V13.16C82.8663 12.356 82.3863 12.032 81.6423 12.032C80.7783 12.032 80.2983 12.392 80.2983 13.016H79.0503C79.0503 11.732 80.1063 10.892 81.7143 10.892C83.3103 10.892 84.2943 11.756 84.2943 13.4V17H83.0103L82.9023 16.124C82.6503 16.736 81.8463 17.156 80.9223 17.156ZM81.4023 16.052C82.3023 16.052 82.8783 15.512 82.8783 14.6V14.288L81.6423 14.384C80.7303 14.468 80.3823 14.768 80.3823 15.248C80.3823 15.788 80.7423 16.052 81.4023 16.052ZM89.7526 11.072H91.2166V17H89.8606L89.7526 16.208C89.3926 16.772 88.6246 17.156 87.8326 17.156C86.4646 17.156 85.6606 16.232 85.6606 14.78V11.072H87.1246V14.264C87.1246 15.392 87.5686 15.848 88.3846 15.848C89.3086 15.848 89.7526 15.308 89.7526 14.18V11.072ZM92.1555 15.2H93.5475C93.5595 15.716 93.9435 16.04 94.6155 16.04C95.2995 16.04 95.6715 15.764 95.6715 15.332C95.6715 15.032 95.5155 14.816 94.9875 14.696L93.9195 14.444C92.8515 14.204 92.3355 13.7 92.3355 12.752C92.3355 11.588 93.3195 10.892 94.6875 10.892C96.0195 10.892 96.9195 11.66 96.9315 12.812H95.5395C95.5275 12.308 95.1915 11.984 94.6275 11.984C94.0515 11.984 93.7155 12.248 93.7155 12.692C93.7155 13.028 93.9795 13.244 94.4835 13.364L95.5515 13.616C96.5475 13.844 97.0515 14.3 97.0515 15.212C97.0515 16.412 96.0315 17.156 94.5675 17.156C93.0915 17.156 92.1555 16.364 92.1555 15.2ZM100.818 17.156C99.0542 17.156 97.8182 15.872 97.8182 14.036C97.8182 12.176 99.0302 10.892 100.77 10.892C102.546 10.892 103.674 12.08 103.674 13.928V14.372L99.2102 14.384C99.3182 15.428 99.8702 15.956 100.842 15.956C101.646 15.956 102.174 15.644 102.342 15.08H103.698C103.446 16.376 102.366 17.156 100.818 17.156ZM100.782 12.092C99.9182 12.092 99.3902 12.56 99.2462 13.448H102.222C102.222 12.632 101.658 12.092 100.782 12.092Z" fill="black"/>
</svg>
