<svg width="134" height="24" viewBox="0 0 134 24" fill="none" xmlns="http://www.w3.org/2000/svg">
<path d="M12 2C6.48 2 2 6.48 2 12C2 17.52 6.48 22 12 22C17.52 22 22 17.52 22 12C22 6.48 17.52 2 12 2ZM17.53 7.53L9.81 15.25H12.83C13.24 15.25 13.58 15.59 13.58 16C13.58 16.41 13.24 16.75 12.83 16.75H8C7.59 16.75 7.25 16.41 7.25 16V11.17C7.25 10.76 7.59 10.42 8 10.42C8.41 10.42 8.75 10.76 8.75 11.17V14.19L16.47 6.47C16.62 6.32 16.81 6.25 17 6.25C17.19 6.25 17.38 6.32 17.53 6.47C17.82 6.76 17.82 7.24 17.53 7.53Z" fill="#1A1A1A"/>
<path d="M36.508 7.228V16H34.972V7.228H36.508ZM39.7005 16H38.2365V10.072H39.5805L39.7005 10.768C40.0005 10.276 40.6005 9.892 41.4525 9.892C42.3525 9.892 42.9765 10.336 43.2885 11.02C43.5885 10.336 44.2845 9.892 45.1845 9.892C46.6245 9.892 47.4165 10.756 47.4165 12.124V16H45.9645V12.508C45.9645 11.656 45.5085 11.212 44.8125 11.212C44.1045 11.212 43.5645 11.668 43.5645 12.64V16H42.1005V12.496C42.1005 11.668 41.6565 11.224 40.9605 11.224C40.2645 11.224 39.7005 11.68 39.7005 12.64V16ZM48.8537 18.748V10.072H50.2097L50.3057 10.972C50.6657 10.288 51.4457 9.892 52.3457 9.892C54.0137 9.892 55.1177 11.104 55.1177 12.964C55.1177 14.812 54.1097 16.156 52.3457 16.156C51.4577 16.156 50.6897 15.808 50.3177 15.208V18.748H48.8537ZM50.3297 13.036C50.3297 14.104 50.9897 14.836 51.9977 14.836C53.0297 14.836 53.6417 14.092 53.6417 13.036C53.6417 11.98 53.0297 11.224 51.9977 11.224C50.9897 11.224 50.3297 11.968 50.3297 13.036ZM55.9353 13.024C55.9353 11.176 57.2673 9.904 59.1033 9.904C60.9393 9.904 62.2713 11.176 62.2713 13.024C62.2713 14.872 60.9393 16.144 59.1033 16.144C57.2673 16.144 55.9353 14.872 55.9353 13.024ZM57.3993 13.024C57.3993 14.104 58.0953 14.836 59.1033 14.836C60.1113 14.836 60.8073 14.104 60.8073 13.024C60.8073 11.944 60.1113 11.212 59.1033 11.212C58.0953 11.212 57.3993 11.944 57.3993 13.024ZM67.1518 10.048V11.404H66.6118C65.5558 11.404 64.8958 11.968 64.8958 13.12V16H63.4318V10.084H64.8118L64.8958 10.948C65.1478 10.36 65.7118 9.964 66.5038 9.964C66.7078 9.964 66.9118 9.988 67.1518 10.048ZM70.3931 16H68.9291V11.296H67.7891V10.072H68.9291V8.224H70.3931V10.072H71.5451V11.296H70.3931V16ZM72.2088 13.444V12.148H76.0728V13.444H72.2088ZM82.6712 15.988L76.5872 16V14.848L79.4552 12.424C80.6432 11.416 81.0392 10.84 81.0392 10C81.0392 9.004 80.4992 8.44 79.5752 8.44C78.6152 8.44 78.0152 9.112 78.0032 10.24H76.4792C76.4912 8.32 77.7152 7.072 79.5752 7.072C81.4472 7.072 82.6112 8.14 82.6112 9.916C82.6112 11.14 81.9392 12.064 80.6072 13.204L79.0232 14.56H82.6712V15.988Z" fill="black"/>
</svg>
