<svg width="149" height="24" viewBox="0 0 149 24" fill="none" xmlns="http://www.w3.org/2000/svg">
<path d="M16.19 2H7.81C4.17 2 2 4.17 2 7.81V16.18C2 19.83 4.17 22 7.81 22H16.18C19.82 22 21.99 19.83 21.99 16.19V7.81C22 4.17 19.83 2 16.19 2ZM9.6 16.2C9.6 17.19 8.79 18 7.8 18C6.81 18 6 17.19 6 16.2C6 15.21 6.81 14.4 7.8 14.4H8.6C9.15 14.4 9.6 14.85 9.6 15.4V16.2ZM9.6 8.6C9.6 9.15 9.15 9.6 8.6 9.6H7.8C6.81 9.6 6 8.79 6 7.8C6 6.81 6.81 6 7.8 6C8.79 6 9.6 6.81 9.6 7.8V8.6ZM14.15 13.25C14.15 13.74 13.75 14.15 13.25 14.15H10.74C10.25 14.15 9.84 13.75 9.84 13.25V10.74C9.84 10.25 10.24 9.84 10.74 9.84H13.25C13.74 9.84 14.15 10.24 14.15 10.74V13.25ZM16.2 18C15.21 18 14.4 17.19 14.4 16.2V15.4C14.4 14.85 14.85 14.4 15.4 14.4H16.2C17.19 14.4 18 15.21 18 16.2C18 17.19 17.19 18 16.2 18ZM16.2 9.6H15.4C14.85 9.6 14.4 9.15 14.4 8.6V7.8C14.4 6.81 15.21 6 16.2 6C17.19 6 18 6.81 18 7.8C18 8.79 17.19 9.6 16.2 9.6Z" fill="#1A1A1A"/>
<path d="M38.68 17.144C36.124 17.144 34.468 15.368 34.468 12.62C34.468 9.896 36.184 8.084 38.752 8.084C40.828 8.084 42.376 9.296 42.676 11.18H41.056C40.756 10.16 39.88 9.56 38.716 9.56C37.096 9.56 36.076 10.736 36.076 12.608C36.076 14.468 37.108 15.668 38.716 15.668C39.904 15.668 40.816 15.044 41.104 14.072H42.7C42.364 15.92 40.756 17.144 38.68 17.144ZM43.5135 14.024C43.5135 12.176 44.8455 10.904 46.6815 10.904C48.5175 10.904 49.8495 12.176 49.8495 14.024C49.8495 15.872 48.5175 17.144 46.6815 17.144C44.8455 17.144 43.5135 15.872 43.5135 14.024ZM44.9775 14.024C44.9775 15.104 45.6735 15.836 46.6815 15.836C47.6895 15.836 48.3855 15.104 48.3855 14.024C48.3855 12.944 47.6895 12.212 46.6815 12.212C45.6735 12.212 44.9775 12.944 44.9775 14.024ZM52.4739 17H51.0099V11.072H52.3539L52.4739 11.768C52.7739 11.276 53.3739 10.892 54.2259 10.892C55.1259 10.892 55.7499 11.336 56.0619 12.02C56.3619 11.336 57.0579 10.892 57.9579 10.892C59.3979 10.892 60.1899 11.756 60.1899 13.124V17H58.7379V13.508C58.7379 12.656 58.2819 12.212 57.5859 12.212C56.8779 12.212 56.3379 12.668 56.3379 13.64V17H54.8739V13.496C54.8739 12.668 54.4299 12.224 53.7339 12.224C53.0379 12.224 52.4739 12.68 52.4739 13.64V17ZM63.0911 17H61.6271V11.072H62.9711L63.0911 11.768C63.3911 11.276 63.9911 10.892 64.8431 10.892C65.7431 10.892 66.3671 11.336 66.6791 12.02C66.9791 11.336 67.6751 10.892 68.5751 10.892C70.0151 10.892 70.8071 11.756 70.8071 13.124V17H69.3551V13.508C69.3551 12.656 68.8991 12.212 68.2031 12.212C67.4951 12.212 66.9551 12.668 66.9551 13.64V17H65.4911V13.496C65.4911 12.668 65.0471 12.224 64.3511 12.224C63.6551 12.224 63.0911 12.68 63.0911 13.64V17ZM74.0083 17.156C72.7483 17.156 71.9803 16.424 71.9803 15.308C71.9803 14.216 72.7723 13.532 74.1763 13.424L75.9523 13.292V13.16C75.9523 12.356 75.4723 12.032 74.7283 12.032C73.8643 12.032 73.3843 12.392 73.3843 13.016H72.1363C72.1363 11.732 73.1923 10.892 74.8003 10.892C76.3963 10.892 77.3803 11.756 77.3803 13.4V17H76.0963L75.9883 16.124C75.7363 16.736 74.9323 17.156 74.0083 17.156ZM74.4883 16.052C75.3883 16.052 75.9643 15.512 75.9643 14.6V14.288L74.7283 14.384C73.8163 14.468 73.4683 14.768 73.4683 15.248C73.4683 15.788 73.8283 16.052 74.4883 16.052ZM80.2825 17H78.8185V11.072H80.1745L80.2945 11.84C80.6665 11.24 81.3865 10.892 82.1905 10.892C83.6785 10.892 84.4465 11.816 84.4465 13.352V17H82.9825V13.7C82.9825 12.704 82.4905 12.224 81.7345 12.224C80.8345 12.224 80.2825 12.848 80.2825 13.808V17ZM88.3209 17.156C86.6049 17.156 85.5369 15.896 85.5369 14.06C85.5369 12.212 86.6169 10.892 88.4049 10.892C89.2329 10.892 89.9649 11.24 90.3369 11.828V8.072H91.7889V17H90.4449L90.3489 16.076C89.9889 16.76 89.2209 17.156 88.3209 17.156ZM88.6449 15.812C89.6649 15.812 90.3249 15.08 90.3249 14.012C90.3249 12.944 89.6649 12.2 88.6449 12.2C87.6249 12.2 87.0009 12.956 87.0009 14.012C87.0009 15.068 87.6249 15.812 88.6449 15.812ZM93.3026 14.444V13.148H97.1666V14.444H93.3026ZM98.1203 15.2H99.5123C99.5243 15.716 99.9083 16.04 100.58 16.04C101.264 16.04 101.636 15.764 101.636 15.332C101.636 15.032 101.48 14.816 100.952 14.696L99.8843 14.444C98.8163 14.204 98.3003 13.7 98.3003 12.752C98.3003 11.588 99.2843 10.892 100.652 10.892C101.984 10.892 102.884 11.66 102.896 12.812H101.504C101.492 12.308 101.156 11.984 100.592 11.984C100.016 11.984 99.6803 12.248 99.6803 12.692C99.6803 13.028 99.9443 13.244 100.448 13.364L101.516 13.616C102.512 13.844 103.016 14.3 103.016 15.212C103.016 16.412 101.996 17.156 100.532 17.156C99.0563 17.156 98.1203 16.364 98.1203 15.2ZM103.783 13.964C103.783 12.104 104.887 10.892 106.555 10.892C107.455 10.892 108.235 11.288 108.595 11.972L108.691 11.072H110.035V19.748H108.583V16.208C108.211 16.808 107.431 17.156 106.555 17.156C104.791 17.156 103.783 15.812 103.783 13.964ZM105.247 14.036C105.247 15.092 105.871 15.836 106.891 15.836C107.911 15.836 108.571 15.104 108.571 14.036C108.571 12.968 107.911 12.224 106.891 12.224C105.871 12.224 105.247 12.98 105.247 14.036ZM115.581 11.072H117.045V17H115.689L115.581 16.208C115.221 16.772 114.453 17.156 113.661 17.156C112.293 17.156 111.489 16.232 111.489 14.78V11.072H112.953V14.264C112.953 15.392 113.397 15.848 114.213 15.848C115.137 15.848 115.581 15.308 115.581 14.18V11.072ZM120.321 17.156C119.061 17.156 118.293 16.424 118.293 15.308C118.293 14.216 119.085 13.532 120.489 13.424L122.265 13.292V13.16C122.265 12.356 121.785 12.032 121.041 12.032C120.177 12.032 119.697 12.392 119.697 13.016H118.449C118.449 11.732 119.505 10.892 121.113 10.892C122.709 10.892 123.693 11.756 123.693 13.4V17H122.409L122.301 16.124C122.049 16.736 121.245 17.156 120.321 17.156ZM120.801 16.052C121.701 16.052 122.277 15.512 122.277 14.6V14.288L121.041 14.384C120.129 14.468 119.781 14.768 119.781 15.248C119.781 15.788 120.141 16.052 120.801 16.052ZM128.851 11.048V12.404H128.311C127.255 12.404 126.595 12.968 126.595 14.12V17H125.131V11.084H126.511L126.595 11.948C126.847 11.36 127.411 10.964 128.203 10.964C128.407 10.964 128.611 10.988 128.851 11.048ZM132.295 17.156C130.531 17.156 129.295 15.872 129.295 14.036C129.295 12.176 130.507 10.892 132.247 10.892C134.023 10.892 135.151 12.08 135.151 13.928V14.372L130.687 14.384C130.795 15.428 131.347 15.956 132.319 15.956C133.123 15.956 133.651 15.644 133.819 15.08H135.175C134.923 16.376 133.843 17.156 132.295 17.156ZM132.259 12.092C131.395 12.092 130.867 12.56 130.723 13.448H133.699C133.699 12.632 133.135 12.092 132.259 12.092Z" fill="black"/>
</svg>
