<svg width="101" height="24" viewBox="0 0 101 24" fill="none" xmlns="http://www.w3.org/2000/svg">
<path d="M19.0698 19.82C18.8798 19.82 18.6898 19.75 18.5398 19.6C18.2498 19.31 18.2498 18.83 18.5398 18.54C22.1498 14.93 22.1498 9.05999 18.5398 5.46C18.2498 5.17 18.2498 4.69 18.5398 4.4C18.8298 4.11 19.3098 4.11 19.5998 4.4C23.7898 8.59 23.7898 15.41 19.5998 19.6C19.4498 19.75 19.2598 19.82 19.0698 19.82Z" fill="#1A1A1A"/>
<path d="M4.92982 19.82C4.73982 19.82 4.54982 19.75 4.39982 19.6C0.209824 15.41 0.209824 8.59 4.39982 4.4C4.68982 4.11 5.16982 4.11 5.45982 4.4C5.74982 4.69 5.74982 5.17 5.45982 5.46C1.84982 9.06999 1.84982 14.94 5.45982 18.54C5.74982 18.83 5.74982 19.31 5.45982 19.6C5.30982 19.75 5.11982 19.82 4.92982 19.82Z" fill="#1A1A1A"/>
<path d="M11.9998 22.71C10.7498 22.7 9.55976 22.5 8.44976 22.11C8.05976 21.97 7.84976 21.54 7.98976 21.15C8.12976 20.76 8.54976 20.55 8.94976 20.69C9.90976 21.02 10.9298 21.2 12.0098 21.2C13.0798 21.2 14.1098 21.02 15.0598 20.69C15.4498 20.56 15.8798 20.76 16.0198 21.15C16.1598 21.54 15.9498 21.97 15.5598 22.11C14.4398 22.5 13.2498 22.71 11.9998 22.71Z" fill="#1A1A1A"/>
<path d="M15.2998 3.34004C15.2198 3.34004 15.1298 3.33004 15.0498 3.30004C14.0998 2.96004 13.0698 2.79004 11.9998 2.79004C10.9298 2.79004 9.90976 2.97004 8.94976 3.30004C8.54976 3.43004 8.12976 3.23004 7.98976 2.84004C7.84976 2.45004 8.05976 2.02004 8.44976 1.88004C9.56976 1.49004 10.7598 1.29004 11.9998 1.29004C13.2398 1.29004 14.4398 1.49004 15.5498 1.88004C15.9398 2.02004 16.1498 2.45004 16.0098 2.84004C15.8998 3.15004 15.6098 3.34004 15.2998 3.34004Z" fill="#1A1A1A"/>
<path d="M8.74023 12V10.33C8.74023 8.25002 10.2102 7.40002 12.0102 8.44002L13.4602 9.28002L14.9102 10.12C16.7102 11.16 16.7102 12.86 14.9102 13.9L13.4602 14.74L12.0102 15.58C10.2102 16.62 8.74023 15.77 8.74023 13.69V12Z" fill="#1A1A1A"/>
<path d="M38.44 12.976H36.508V16H34.972V7.228H38.44C40.204 7.228 41.344 8.38 41.344 10.096C41.344 11.788 40.192 12.976 38.44 12.976ZM38.14 8.596H36.508V11.608H38.116C39.172 11.608 39.736 11.044 39.736 10.084C39.736 9.124 39.16 8.596 38.14 8.596ZM43.8961 16H42.4441V7.072H43.8961V16ZM47.1958 16.156C45.9358 16.156 45.1678 15.424 45.1678 14.308C45.1678 13.216 45.9598 12.532 47.3638 12.424L49.1398 12.292V12.16C49.1398 11.356 48.6598 11.032 47.9158 11.032C47.0518 11.032 46.5718 11.392 46.5718 12.016H45.3238C45.3238 10.732 46.3798 9.892 47.9878 9.892C49.5838 9.892 50.5678 10.756 50.5678 12.4V16H49.2838L49.1758 15.124C48.9238 15.736 48.1198 16.156 47.1958 16.156ZM47.6758 15.052C48.5758 15.052 49.1518 14.512 49.1518 13.6V13.288L47.9158 13.384C47.0038 13.468 46.6558 13.768 46.6558 14.248C46.6558 14.788 47.0158 15.052 47.6758 15.052ZM51.3259 18.748V17.524H52.2019C52.7779 17.524 53.1379 17.392 53.3899 16.696L53.5579 16.252L51.1699 10.072H52.7179L54.2419 14.392L55.8499 10.072H57.3619L54.4579 17.32C54.0139 18.424 53.3899 18.88 52.4179 18.88C52.0099 18.88 51.6499 18.832 51.3259 18.748ZM57.7713 13.444V12.148H61.6353V13.444H57.7713ZM62.7791 13.024C62.7791 11.188 63.9911 9.892 65.7431 9.892C67.3631 9.892 68.4671 10.792 68.6231 12.22H67.1591C66.9911 11.548 66.4991 11.2 65.8031 11.2C64.8671 11.2 64.2431 11.908 64.2431 13.024C64.2431 14.14 64.8191 14.836 65.7551 14.836C66.4871 14.836 67.0031 14.476 67.1591 13.828H68.6351C68.4551 15.208 67.3031 16.156 65.7551 16.156C63.9551 16.156 62.7791 14.908 62.7791 13.024ZM73.4448 10.048V11.404H72.9048C71.8488 11.404 71.1888 11.968 71.1888 13.12V16H69.7248V10.084H71.1048L71.1888 10.948C71.4408 10.36 72.0048 9.964 72.7968 9.964C73.0008 9.964 73.2048 9.988 73.4448 10.048ZM75.1677 8.884C74.6637 8.884 74.2677 8.488 74.2677 7.996C74.2677 7.504 74.6637 7.12 75.1677 7.12C75.6477 7.12 76.0437 7.504 76.0437 7.996C76.0437 8.488 75.6477 8.884 75.1677 8.884ZM74.4357 16V10.072H75.8997V16H74.4357ZM77.0643 13.024C77.0643 11.188 78.2763 9.892 80.0283 9.892C81.6483 9.892 82.7523 10.792 82.9083 12.22H81.4443C81.2763 11.548 80.7843 11.2 80.0883 11.2C79.1523 11.2 78.5283 11.908 78.5283 13.024C78.5283 14.14 79.1043 14.836 80.0403 14.836C80.7723 14.836 81.2883 14.476 81.4443 13.828H82.9203C82.7403 15.208 81.5883 16.156 80.0403 16.156C78.2402 16.156 77.0643 14.908 77.0643 13.024ZM85.4859 16H84.0339V7.072H85.4859V16ZM89.6736 16.156C87.9096 16.156 86.6736 14.872 86.6736 13.036C86.6736 11.176 87.8856 9.892 89.6256 9.892C91.4016 9.892 92.5296 11.08 92.5296 12.928V13.372L88.0656 13.384C88.1736 14.428 88.7256 14.956 89.6976 14.956C90.5016 14.956 91.0296 14.644 91.1976 14.08H92.5536C92.3016 15.376 91.2216 16.156 89.6736 16.156ZM89.6376 11.092C88.7736 11.092 88.2456 11.56 88.1016 12.448H91.0776C91.0776 11.632 90.5136 11.092 89.6376 11.092Z" fill="black"/>
</svg>
