<svg width="141" height="24" viewBox="0 0 141 24" fill="none" xmlns="http://www.w3.org/2000/svg">
<path d="M20.95 4.13C20.66 3.71 20.29 3.34 19.87 3.05C18.92 2.36 17.68 2 16.19 2H7.81C7.61 2 7.41 2.01 7.22 2.03C3.94 2.24 2 4.37 2 7.81V16.19C2 17.68 2.36 18.92 3.05 19.87C3.34 20.29 3.71 20.66 4.13 20.95C4.95 21.55 5.99 21.9 7.22 21.98C7.41 21.99 7.61 22 7.81 22H16.19C19.83 22 22 19.83 22 16.19V7.81C22 6.32 21.64 5.08 20.95 4.13ZM16.83 18.96H7.17C6.76 18.96 6.42 18.62 6.42 18.21C6.42 17.8 6.76 17.46 7.17 17.46H16.84C17.25 17.46 17.59 17.8 17.59 18.21C17.59 18.62 17.25 18.96 16.83 18.96ZM17.58 10.62C17.58 13.7 15.08 16.2 12 16.2C8.92 16.2 6.42 13.7 6.42 10.62V5.79C6.42 5.38 6.76 5.04 7.17 5.04C7.58 5.04 7.92 5.38 7.92 5.79V10.62C7.92 12.87 9.75 14.7 12 14.7C14.25 14.7 16.08 12.87 16.08 10.62V5.79C16.08 5.38 16.42 5.04 16.83 5.04C17.24 5.04 17.58 5.38 17.58 5.79V10.62Z" fill="#1A1A1A"/>
<path d="M34.204 9.644V8.228H40.876V9.644H38.308V17H36.772V9.644H34.204ZM43.4783 17.156C41.7143 17.156 40.4783 15.872 40.4783 14.036C40.4783 12.176 41.6903 10.892 43.4303 10.892C45.2063 10.892 46.3343 12.08 46.3343 13.928V14.372L41.8703 14.384C41.9783 15.428 42.5303 15.956 43.5023 15.956C44.3063 15.956 44.8343 15.644 45.0023 15.08H46.3583C46.1063 16.376 45.0263 17.156 43.4783 17.156ZM43.4423 12.092C42.5783 12.092 42.0503 12.56 41.9063 13.448H44.8823C44.8823 12.632 44.3183 12.092 43.4423 12.092ZM48.2685 17H46.6005L48.6405 14.096L46.6005 11.072H48.3045L49.6125 13.088L50.8725 11.072H52.5165L50.5005 14.072L52.4565 17H50.7765L49.5165 15.044L48.2685 17ZM55.6392 17H54.1752V12.296H53.0352V11.072H54.1752V9.224H55.6392V11.072H56.7912V12.296H55.6392V17ZM57.4549 14.444V13.148H61.3189V14.444H57.4549ZM66.8307 11.072H68.2947V17H66.9387L66.8307 16.208C66.4707 16.772 65.7027 17.156 64.9107 17.156C63.5427 17.156 62.7387 16.232 62.7387 14.78V11.072H64.2027V14.264C64.2027 15.392 64.6467 15.848 65.4627 15.848C66.3867 15.848 66.8307 15.308 66.8307 14.18V11.072ZM71.2708 17H69.8068V11.072H71.1628L71.2828 11.84C71.6548 11.24 72.3748 10.892 73.1788 10.892C74.6668 10.892 75.4348 11.816 75.4348 13.352V17H73.9708V13.7C73.9708 12.704 73.4788 12.224 72.7228 12.224C71.8228 12.224 71.2708 12.848 71.2708 13.808V17ZM79.3092 17.156C77.5932 17.156 76.5252 15.896 76.5252 14.06C76.5252 12.212 77.6052 10.892 79.3932 10.892C80.2212 10.892 80.9532 11.24 81.3252 11.828V8.072H82.7772V17H81.4332L81.3372 16.076C80.9772 16.76 80.2092 17.156 79.3092 17.156ZM79.6332 15.812C80.6532 15.812 81.3132 15.08 81.3132 14.012C81.3132 12.944 80.6532 12.2 79.6332 12.2C78.6132 12.2 77.9892 12.956 77.9892 14.012C77.9892 15.068 78.6132 15.812 79.6332 15.812ZM86.9549 17.156C85.1909 17.156 83.9549 15.872 83.9549 14.036C83.9549 12.176 85.1669 10.892 86.9069 10.892C88.6829 10.892 89.8109 12.08 89.8109 13.928V14.372L85.3469 14.384C85.4549 15.428 86.0069 15.956 86.9789 15.956C87.7829 15.956 88.3109 15.644 88.4789 15.08H89.8349C89.5829 16.376 88.5029 17.156 86.9549 17.156ZM86.9189 12.092C86.0549 12.092 85.5269 12.56 85.3829 13.448H88.3589C88.3589 12.632 87.7949 12.092 86.9189 12.092ZM94.7026 11.048V12.404H94.1626C93.1066 12.404 92.4466 12.968 92.4466 14.12V17H90.9826V11.084H92.3626L92.4466 11.948C92.6986 11.36 93.2626 10.964 94.0546 10.964C94.2586 10.964 94.4626 10.988 94.7026 11.048ZM97.1695 17H95.7175V8.072H97.1695V17ZM99.4372 9.884C98.9332 9.884 98.5372 9.488 98.5372 8.996C98.5372 8.504 98.9332 8.12 99.4372 8.12C99.9172 8.12 100.313 8.504 100.313 8.996C100.313 9.488 99.9172 9.884 99.4372 9.884ZM98.7052 17V11.072H100.169V17H98.7052ZM103.146 17H101.682V11.072H103.038L103.158 11.84C103.53 11.24 104.25 10.892 105.054 10.892C106.542 10.892 107.31 11.816 107.31 13.352V17H105.846V13.7C105.846 12.704 105.354 12.224 104.598 12.224C103.698 12.224 103.146 12.848 103.146 13.808V17ZM111.4 17.156C109.636 17.156 108.4 15.872 108.4 14.036C108.4 12.176 109.612 10.892 111.352 10.892C113.128 10.892 114.256 12.08 114.256 13.928V14.372L109.792 14.384C109.9 15.428 110.452 15.956 111.424 15.956C112.228 15.956 112.756 15.644 112.924 15.08H114.28C114.028 16.376 112.948 17.156 111.4 17.156ZM111.364 12.092C110.5 12.092 109.972 12.56 109.828 13.448H112.804C112.804 12.632 112.24 12.092 111.364 12.092Z" fill="black"/>
</svg>
