<svg width="121" height="24" viewBox="0 0 121 24" fill="none" xmlns="http://www.w3.org/2000/svg">
<path d="M21.4499 13.64V14.64C21.4499 14.91 21.2399 15.13 20.9599 15.14H19.4999C18.9699 15.14 18.4899 14.75 18.4499 14.23C18.4199 13.92 18.5399 13.63 18.7399 13.43C18.9199 13.24 19.1699 13.14 19.4399 13.14H20.9499C21.2399 13.15 21.4499 13.37 21.4499 13.64Z" fill="#1A1A1A"/>
<path d="M17.9902 12.69C17.4902 13.18 17.2502 13.91 17.4502 14.67C17.7102 15.6 18.6202 16.19 19.5802 16.19H20.4502C21.0002 16.19 21.4502 16.64 21.4502 17.19V17.38C21.4502 19.45 19.7602 21.14 17.6902 21.14H6.2102C4.1402 21.14 2.4502 19.45 2.4502 17.38V10.65C2.4502 9.42001 3.0402 8.33001 3.9502 7.65001C4.5802 7.17001 5.3602 6.89001 6.2102 6.89001H17.6902C19.7602 6.89001 21.4502 8.58001 21.4502 10.65V11.09C21.4502 11.64 21.0002 12.09 20.4502 12.09H19.4302C18.8702 12.09 18.3602 12.31 17.9902 12.69Z" fill="#1A1A1A"/>
<path d="M16.2001 4.82C16.4701 5.09 16.2401 5.51 15.8601 5.51L8.18006 5.5C7.74006 5.5 7.51006 4.96 7.83006 4.65L9.45006 3.02C10.8201 1.66 13.0401 1.66 14.4101 3.02L16.1601 4.79C16.1701 4.8 16.1901 4.81 16.2001 4.82Z" fill="#1A1A1A"/>
<path d="M36.796 16L34.18 7.228H35.776L37.168 11.86C37.3 12.34 37.432 12.832 37.564 13.6C37.708 12.82 37.84 12.364 37.996 11.86L39.376 7.228H41.068L42.424 11.86C42.568 12.352 42.7 12.856 42.844 13.6C43.012 12.784 43.132 12.316 43.264 11.872L44.68 7.228H46.24L43.576 16H42.088L40.216 9.616L38.308 16H36.796ZM48.0513 16.156C46.7913 16.156 46.0233 15.424 46.0233 14.308C46.0233 13.216 46.8153 12.532 48.2193 12.424L49.9953 12.292V12.16C49.9953 11.356 49.5153 11.032 48.7713 11.032C47.9073 11.032 47.4273 11.392 47.4273 12.016H46.1793C46.1793 10.732 47.2353 9.892 48.8433 9.892C50.4393 9.892 51.4233 10.756 51.4233 12.4V16H50.1393L50.0313 15.124C49.7793 15.736 48.9753 16.156 48.0513 16.156ZM48.5312 15.052C49.4313 15.052 50.0073 14.512 50.0073 13.6V13.288L48.7713 13.384C47.8593 13.468 47.5113 13.768 47.5113 14.248C47.5113 14.788 47.8713 15.052 48.5312 15.052ZM54.3375 16H52.8855V7.072H54.3375V16ZM57.3492 16H55.8972V7.072H57.3492V16ZM61.5369 16.156C59.7729 16.156 58.5369 14.872 58.5369 13.036C58.5369 11.176 59.7489 9.892 61.4889 9.892C63.2649 9.892 64.3929 11.08 64.3929 12.928V13.372L59.9289 13.384C60.0369 14.428 60.5889 14.956 61.5609 14.956C62.3649 14.956 62.8929 14.644 63.0609 14.08H64.4169C64.1649 15.376 63.0849 16.156 61.5369 16.156ZM61.5009 11.092C60.6369 11.092 60.1089 11.56 59.9649 12.448H62.9409C62.9409 11.632 62.3769 11.092 61.5009 11.092ZM67.522 16H66.058V11.296H64.918V10.072H66.058V8.224H67.522V10.072H68.674V11.296H67.522V16Z" fill="black"/>
</svg>
