<svg width="200" height="24" viewBox="0 0 200 24" fill="none" xmlns="http://www.w3.org/2000/svg">
<path d="M8.82 4.90003L7.54 2.78003C7.06 2.00003 6.11 1.56003 5.22 1.82003C3.88 2.22003 3.36 3.73003 4.03 4.84003L5.35 7.01003C5.5 7.24003 5.81 7.32003 6.04 7.18003L8.65 5.59003C8.89 5.44003 8.97 5.13003 8.82 4.90003Z" fill="#1A1A1A"/>
<path d="M19.74 14.2101L16.93 10.4101C15.95 9.09008 14.25 8.47008 12.65 8.90008C12.65 8.89008 12.64 8.89008 12.64 8.88008L10.98 6.15008C10.68 5.68008 10.06 5.53008 9.59 5.82008L6.12 7.93008C5.64 8.21008 5.49 8.84008 5.78 9.32008L7.43 12.0501C7.43 12.0501 7.43 12.0601 7.44 12.0601C6.33 13.2901 6.09 15.0801 6.83 16.5701L8.91 20.8101C9.55 22.1201 11.06 22.6201 12.34 21.9601C12.44 21.9101 12.47 21.7901 12.41 21.6901L10.85 19.1101C10.63 18.7501 10.74 18.2901 11.1 18.0601C11.46 17.8501 11.92 17.9601 12.15 18.3101L13.72 20.8901C13.78 20.9801 13.9 21.0101 13.99 20.9601L14.95 20.3801C15.04 20.3201 15.07 20.2001 15.02 20.1101L13.45 17.5301C13.24 17.1701 13.35 16.7101 13.7 16.4801C14.07 16.2701 14.53 16.3801 14.75 16.7301L16.32 19.3101C16.38 19.4001 16.5 19.4301 16.59 19.3801L17.55 18.8001C17.64 18.7401 17.67 18.6201 17.62 18.5301L16.05 15.9501C15.84 15.5901 15.95 15.1301 16.3 14.9001C16.67 14.6901 17.13 14.8001 17.35 15.1501L18.93 17.7201C18.99 17.8101 19.11 17.8401 19.2 17.7801C20.36 16.9501 20.62 15.3901 19.74 14.2101Z" fill="#1A1A1A"/>
<path d="M34.972 16V7.228H38.464C40.192 7.228 41.248 8.128 41.248 9.592C41.248 10.564 40.816 11.26 39.988 11.608C40.912 11.908 41.38 12.604 41.38 13.624C41.38 15.124 40.336 16 38.524 16H34.972ZM38.332 8.584H36.508V10.972H38.368C39.208 10.972 39.676 10.528 39.676 9.748C39.676 8.992 39.196 8.584 38.332 8.584ZM38.464 12.268H36.508V14.644H38.464C39.328 14.644 39.808 14.224 39.808 13.432C39.808 12.688 39.316 12.268 38.464 12.268ZM46.2924 10.048V11.404H45.7524C44.6964 11.404 44.0364 11.968 44.0364 13.12V16H42.5724V10.084H43.9524L44.0364 10.948C44.2884 10.36 44.8524 9.964 45.6444 9.964C45.8484 9.964 46.0524 9.988 46.2924 10.048ZM46.7361 13.024C46.7361 11.176 48.0681 9.904 49.9041 9.904C51.7401 9.904 53.0721 11.176 53.0721 13.024C53.0721 14.872 51.7401 16.144 49.9041 16.144C48.0681 16.144 46.7361 14.872 46.7361 13.024ZM48.2001 13.024C48.2001 14.104 48.8961 14.836 49.9041 14.836C50.9121 14.836 51.6081 14.104 51.6081 13.024C51.6081 11.944 50.9121 11.212 49.9041 11.212C48.8961 11.212 48.2001 11.944 48.2001 13.024ZM53.8846 13.024C53.8846 11.176 55.2166 9.904 57.0526 9.904C58.8886 9.904 60.2206 11.176 60.2206 13.024C60.2206 14.872 58.8886 16.144 57.0526 16.144C55.2166 16.144 53.8846 14.872 53.8846 13.024ZM55.3486 13.024C55.3486 14.104 56.0446 14.836 57.0526 14.836C58.0606 14.836 58.7566 14.104 58.7566 13.024C58.7566 11.944 58.0606 11.212 57.0526 11.212C56.0446 11.212 55.3486 11.944 55.3486 13.024ZM62.845 16H61.381V10.072H62.725L62.845 10.768C63.145 10.276 63.745 9.892 64.597 9.892C65.497 9.892 66.121 10.336 66.433 11.02C66.733 10.336 67.429 9.892 68.329 9.892C69.769 9.892 70.561 10.756 70.561 12.124V16H69.109V12.508C69.109 11.656 68.653 11.212 67.957 11.212C67.249 11.212 66.709 11.668 66.709 12.64V16H65.245V12.496C65.245 11.668 64.801 11.224 64.105 11.224C63.409 11.224 62.845 11.68 62.845 12.64V16Z" fill="black"/>
</svg>
