<svg width="116" height="24" viewBox="0 0 116 24" fill="none" xmlns="http://www.w3.org/2000/svg">
<path d="M21.0169 7.99175C21.4148 8.55833 20.9405 9.25 20.2482 9.25H3C2.44772 9.25 2 8.80228 2 8.25V6.42C2 3.98 3.98 2 6.42 2H8.74C10.37 2 10.88 2.53 11.53 3.4L12.93 5.26C13.24 5.67 13.28 5.72 13.86 5.72H16.65C18.4546 5.72 20.0516 6.61709 21.0169 7.99175Z" fill="#1A1A1A"/>
<path d="M21.9834 11.7466C21.9815 11.1957 21.5343 10.75 20.9834 10.75L3 10.75C2.44772 10.75 2 11.1977 2 11.75V16.65C2 19.6 4.4 22 7.35 22H16.65C19.6 22 22 19.6 22 16.65L21.9834 11.7466ZM14.54 16.97L12.39 18.85C12.28 18.95 12.14 19 12 19C11.86 19 11.72 18.95 11.61 18.85L9.46 16.97C8.78 16.37 8.69 15.35 9.26 14.64C9.83 13.92 10.86 13.79 11.6 14.34L12 14.64L12.4 14.34C13.14 13.79 14.17 13.92 14.74 14.64C15.31 15.35 15.22 16.37 14.54 16.97Z" fill="#1A1A1A"/>
<path d="M39.772 13.412H36.508V17H34.972V8.228H40.396V9.644H36.508V12.032H39.772V13.412ZM40.7596 14.024C40.7596 12.176 42.0916 10.904 43.9276 10.904C45.7636 10.904 47.0956 12.176 47.0956 14.024C47.0956 15.872 45.7636 17.144 43.9276 17.144C42.0916 17.144 40.7596 15.872 40.7596 14.024ZM42.2236 14.024C42.2236 15.104 42.9196 15.836 43.9276 15.836C44.9356 15.836 45.6316 15.104 45.6316 14.024C45.6316 12.944 44.9356 12.212 43.9276 12.212C42.9196 12.212 42.2236 12.944 42.2236 14.024ZM49.732 17H48.28V8.072H49.732V17ZM53.7037 17.156C51.9877 17.156 50.9197 15.896 50.9197 14.06C50.9197 12.212 51.9997 10.892 53.7877 10.892C54.6157 10.892 55.3477 11.24 55.7197 11.828V8.072H57.1717V17H55.8277L55.7317 16.076C55.3717 16.76 54.6037 17.156 53.7037 17.156ZM54.0277 15.812C55.0477 15.812 55.7077 15.08 55.7077 14.012C55.7077 12.944 55.0477 12.2 54.0277 12.2C53.0077 12.2 52.3837 12.956 52.3837 14.012C52.3837 15.068 53.0077 15.812 54.0277 15.812ZM61.3494 17.156C59.5854 17.156 58.3494 15.872 58.3494 14.036C58.3494 12.176 59.5614 10.892 61.3014 10.892C63.0774 10.892 64.2054 12.08 64.2054 13.928V14.372L59.7414 14.384C59.8494 15.428 60.4014 15.956 61.3734 15.956C62.1774 15.956 62.7054 15.644 62.8734 15.08H64.2294C63.9774 16.376 62.8974 17.156 61.3494 17.156ZM61.3134 12.092C60.4494 12.092 59.9214 12.56 59.7774 13.448H62.7534C62.7534 12.632 62.1894 12.092 61.3134 12.092ZM69.0971 11.048V12.404H68.5571C67.5011 12.404 66.8411 12.968 66.8411 14.12V17H65.3771V11.084H66.7571L66.8411 11.948C67.0931 11.36 67.6571 10.964 68.4491 10.964C68.6531 10.964 68.8571 10.988 69.0971 11.048ZM69.6424 14.444V13.148H73.5064V14.444H69.6424ZM74.1758 11.072H75.0278V10.352C75.0278 8.744 75.8798 8.072 77.1638 8.072C77.3918 8.072 77.6678 8.084 77.9198 8.132V9.38H77.4038C76.6598 9.38 76.4798 9.764 76.4798 10.352V11.072H77.8958V12.296H76.4798V17H75.0278V12.296H74.1758V11.072ZM80.4419 17.156C79.1819 17.156 78.4139 16.424 78.4139 15.308C78.4139 14.216 79.2059 13.532 80.6099 13.424L82.3859 13.292V13.16C82.3859 12.356 81.9059 12.032 81.1619 12.032C80.2979 12.032 79.8179 12.392 79.8179 13.016H78.5699C78.5699 11.732 79.6259 10.892 81.2339 10.892C82.8299 10.892 83.8139 11.756 83.8139 13.4V17H82.5299L82.4219 16.124C82.1699 16.736 81.3659 17.156 80.4419 17.156ZM80.9219 16.052C81.8219 16.052 82.3979 15.512 82.3979 14.6V14.288L81.1619 14.384C80.2499 14.468 79.9019 14.768 79.9019 15.248C79.9019 15.788 80.2619 16.052 80.9219 16.052ZM86.6977 17L84.3457 11.072H85.9057L86.9377 13.796C87.1897 14.504 87.3937 15.116 87.4657 15.44C87.5497 15.068 87.7657 14.444 88.0177 13.796L89.0977 11.072H90.6097L88.1377 17H86.6977ZM90.8103 14.024C90.8103 12.176 92.1423 10.904 93.9783 10.904C95.8143 10.904 97.1463 12.176 97.1463 14.024C97.1463 15.872 95.8143 17.144 93.9783 17.144C92.1423 17.144 90.8103 15.872 90.8103 14.024ZM92.2743 14.024C92.2743 15.104 92.9703 15.836 93.9783 15.836C94.9863 15.836 95.6823 15.104 95.6823 14.024C95.6823 12.944 94.9863 12.212 93.9783 12.212C92.9703 12.212 92.2743 12.944 92.2743 14.024ZM102.027 11.048V12.404H101.487C100.431 12.404 99.7708 12.968 99.7708 14.12V17H98.3068V11.084H99.6868L99.7708 11.948C100.023 11.36 100.587 10.964 101.379 10.964C101.583 10.964 101.787 10.988 102.027 11.048ZM103.75 9.884C103.246 9.884 102.85 9.488 102.85 8.996C102.85 8.504 103.246 8.12 103.75 8.12C104.23 8.12 104.626 8.504 104.626 8.996C104.626 9.488 104.23 9.884 103.75 9.884ZM103.018 17V11.072H104.482V17H103.018ZM108.01 17H106.546V12.296H105.406V11.072H106.546V9.224H108.01V11.072H109.162V12.296H108.01V17ZM112.666 17.156C110.902 17.156 109.666 15.872 109.666 14.036C109.666 12.176 110.878 10.892 112.618 10.892C114.394 10.892 115.522 12.08 115.522 13.928V14.372L111.058 14.384C111.166 15.428 111.718 15.956 112.69 15.956C113.494 15.956 114.022 15.644 114.19 15.08H115.546C115.294 16.376 114.214 17.156 112.666 17.156ZM112.63 12.092C111.766 12.092 111.238 12.56 111.094 13.448H114.07C114.07 12.632 113.506 12.092 112.63 12.092Z" fill="black"/>
</svg>
