<svg width="200" height="24" viewBox="0 0 200 24" fill="none" xmlns="http://www.w3.org/2000/svg">
<path d="M16.42 7.95C18.86 10.39 18.86 14.35 16.42 16.79C13.98 19.23 10.02 19.23 7.58 16.79C5.14 14.35 5.14 10.39 7.58 7.95C10.02 5.51 13.98 5.51 16.42 7.95Z" fill="#1A1A1A"/>
<path d="M8.25 22.39C8.16 22.39 8.06 22.37 7.97 22.34C5.72 21.44 3.9 19.85 2.68 17.75C1.5 15.7 1.03 13.38 1.34 11.02C1.39 10.61 1.78 10.32 2.18 10.37C2.59 10.42 2.88 10.8 2.83 11.21C2.57 13.24 2.97 15.24 3.98 17C5.02 18.8 6.59 20.17 8.52 20.94C8.9 21.1 9.09 21.53 8.94 21.92C8.83 22.21 8.54 22.39 8.25 22.39Z" fill="#1A1A1A"/>
<path d="M5.85 5.22999C5.63 5.22999 5.41 5.12999 5.26 4.93999C5 4.61999 5.06 4.14999 5.39 3.88999C7.29 2.39999 9.58 1.60999 12 1.60999C14.36 1.60999 16.61 2.36999 18.5 3.80999C18.83 4.05999 18.89 4.52999 18.64 4.85999C18.39 5.18999 17.92 5.24999 17.59 4.99999C15.96 3.75999 14.03 3.10999 12 3.10999C9.92 3.10999 7.95 3.78999 6.31 5.06999C6.17 5.17999 6.01 5.22999 5.85 5.22999Z" fill="#1A1A1A"/>
<path d="M15.75 22.39C15.45 22.39 15.17 22.21 15.05 21.92C14.9 21.54 15.08 21.1 15.47 20.94C17.4 20.16 18.97 18.8 20.01 17C21.03 15.24 21.43 13.24 21.16 11.22C21.11 10.81 21.4 10.43 21.81 10.38C22.21 10.33 22.6 10.62 22.65 11.03C22.95 13.38 22.49 15.71 21.31 17.76C20.1 19.86 18.27 21.44 16.02 22.35C15.94 22.37 15.85 22.39 15.75 22.39Z" fill="#1A1A1A"/>
<path d="M34.468 9.676C34.468 8.14 35.74 7.072 37.588 7.072C39.364 7.072 40.492 8.056 40.54 9.64H39.004C38.968 8.884 38.428 8.44 37.564 8.44C36.616 8.44 36.004 8.896 36.004 9.628C36.004 10.252 36.34 10.6 37.072 10.768L38.452 11.068C39.952 11.392 40.684 12.16 40.684 13.468C40.684 15.1 39.412 16.156 37.48 16.156C35.608 16.156 34.384 15.16 34.348 13.588H35.884C35.896 14.332 36.496 14.776 37.48 14.776C38.5 14.776 39.148 14.332 39.148 13.6C39.148 13.012 38.848 12.664 38.128 12.508L36.736 12.196C35.248 11.872 34.468 11.02 34.468 9.676ZM43.8736 16H42.4096V11.296H41.2696V10.072H42.4096V8.224H43.8736V10.072H45.0256V11.296H43.8736V16ZM45.5291 13.024C45.5291 11.176 46.8611 9.904 48.6971 9.904C50.5331 9.904 51.8651 11.176 51.8651 13.024C51.8651 14.872 50.5331 16.144 48.6971 16.144C46.8611 16.144 45.5291 14.872 45.5291 13.024ZM46.9931 13.024C46.9931 14.104 47.6891 14.836 48.6971 14.836C49.7051 14.836 50.4011 14.104 50.4011 13.024C50.4011 11.944 49.7051 11.212 48.6971 11.212C47.6891 11.212 46.9931 11.944 46.9931 13.024ZM56.7455 10.048V11.404H56.2055C55.1495 11.404 54.4895 11.968 54.4895 13.12V16H53.0255V10.084H54.4055L54.4895 10.948C54.7415 10.36 55.3055 9.964 56.0975 9.964C56.3015 9.964 56.5055 9.988 56.7455 10.048ZM57.3963 18.748V17.524H58.2723C58.8483 17.524 59.2083 17.392 59.4603 16.696L59.6283 16.252L57.2403 10.072H58.7883L60.3123 14.392L61.9203 10.072H63.4323L60.5283 17.32C60.0843 18.424 59.4603 18.88 58.4883 18.88C58.0803 18.88 57.7203 18.832 57.3963 18.748Z" fill="black"/>
</svg>
