<svg width="154" height="24" viewBox="0 0 154 24" fill="none" xmlns="http://www.w3.org/2000/svg">
<path d="M14.85 3.94999V7.74999H13.35V3.94999C13.35 3.67999 13.11 3.54999 12.95 3.54999C12.9 3.54999 12.85 3.55999 12.8 3.57999L4.87 6.56999C4.34 6.76999 4 7.26999 4 7.83999V8.50999C3.09 9.18999 2.5 10.28 2.5 11.51V7.83999C2.5 6.64999 3.23 5.58999 4.34 5.16999L12.28 2.16999C12.5 2.08999 12.73 2.04999 12.95 2.04999C13.95 2.04999 14.85 2.85999 14.85 3.94999Z" fill="#1A1A1A"/>
<path d="M21.4997 14.5V15.5C21.4997 15.77 21.2897 15.99 21.0097 16H19.5497C19.0197 16 18.5397 15.61 18.4997 15.09C18.4697 14.78 18.5897 14.49 18.7897 14.29C18.9697 14.1 19.2197 14 19.4897 14H20.9997C21.2897 14.01 21.4997 14.23 21.4997 14.5Z" fill="#1A1A1A"/>
<path d="M5 15C4.06 15 3.19 15.33 2.5 15.88C1.58 16.61 1 17.74 1 19C1 19.75 1.21 20.46 1.58 21.06C2.27 22.22 3.54 23 5 23C6.01 23 6.93 22.63 7.63 22C7.94 21.74 8.21 21.42 8.42 21.06C8.79 20.46 9 19.75 9 19C9 16.79 7.21 15 5 15ZM3.42 18.46C3.13 18.17 3.13 17.69 3.42 17.4C3.72 17.11 4.19 17.11 4.49 17.4L5.01 17.93L5.51 17.42C5.81 17.13 6.28 17.13 6.58 17.42C6.87 17.72 6.87 18.19 6.58 18.49L6.07 18.99L6.6 19.51C6.89 19.81 6.89 20.28 6.6 20.58C6.45 20.72 6.26 20.79 6.07 20.79C5.88 20.79 5.69 20.72 5.54 20.58L5.01 20.05L4.46 20.6C4.31 20.75 4.12 20.82 3.93 20.82C3.74 20.82 3.55 20.75 3.4 20.6C3.11 20.31 3.11 19.83 3.4 19.54L3.95 18.99L3.42 18.46Z" fill="#1A1A1A"/>
<path d="M19.48 12.95H20.5C21.05 12.95 21.5 12.5 21.5 11.95V11.51C21.5 9.44 19.81 7.75 17.74 7.75H6.26C5.41 7.75 4.63 8.03 4 8.51C3.09 9.19 2.5 10.28 2.5 11.51V13.29C2.5 13.67 2.9 13.91 3.26 13.79C3.82 13.6 4.41 13.5 5 13.5C8.03 13.5 10.5 15.97 10.5 19C10.5 19.72 10.31 20.51 10.01 21.21C9.85 21.57 10.1 22 10.49 22H17.74C19.81 22 21.5 20.31 21.5 18.24V18.05C21.5 17.5 21.05 17.05 20.5 17.05H19.63C18.67 17.05 17.75 16.46 17.5 15.53C17.3 14.77 17.54 14.03 18.04 13.55C18.41 13.17 18.92 12.95 19.48 12.95ZM14 12.75H9C8.59 12.75 8.25 12.41 8.25 12C8.25 11.59 8.59 11.25 9 11.25H14C14.41 11.25 14.75 11.59 14.75 12C14.75 12.41 14.41 12.75 14 12.75Z" fill="#1A1A1A"/>
<path d="M40.42 17H34.972V8.228H40.42V9.644H36.508V11.9H40.012V13.256H36.508V15.584H40.42V17ZM43.3333 17H41.8693V11.072H43.2133L43.3333 11.768C43.6333 11.276 44.2333 10.892 45.0853 10.892C45.9853 10.892 46.6093 11.336 46.9213 12.02C47.2213 11.336 47.9173 10.892 48.8173 10.892C50.2573 10.892 51.0493 11.756 51.0493 13.124V17H49.5973V13.508C49.5973 12.656 49.1413 12.212 48.4453 12.212C47.7373 12.212 47.1973 12.668 47.1973 13.64V17H45.7333V13.496C45.7333 12.668 45.2893 12.224 44.5933 12.224C43.8973 12.224 43.3333 12.68 43.3333 13.64V17ZM52.4865 19.748V11.072H53.8425L53.9385 11.972C54.2985 11.288 55.0785 10.892 55.9785 10.892C57.6465 10.892 58.7505 12.104 58.7505 13.964C58.7505 15.812 57.7425 17.156 55.9785 17.156C55.0905 17.156 54.3225 16.808 53.9505 16.208V19.748H52.4865ZM53.9625 14.036C53.9625 15.104 54.6225 15.836 55.6305 15.836C56.6625 15.836 57.2745 15.092 57.2745 14.036C57.2745 12.98 56.6625 12.224 55.6305 12.224C54.6225 12.224 53.9625 12.968 53.9625 14.036ZM61.8736 17H60.4096V12.296H59.2696V11.072H60.4096V9.224H61.8736V11.072H63.0256V12.296H61.8736V17ZM63.4197 19.748V18.524H64.2957C64.8717 18.524 65.2317 18.392 65.4837 17.696L65.6517 17.252L63.2637 11.072H64.8117L66.3357 15.392L67.9437 11.072H69.4557L66.5517 18.32C66.1077 19.424 65.4837 19.88 64.5117 19.88C64.1037 19.88 63.7437 19.832 63.4197 19.748ZM69.8651 14.444V13.148H73.7291V14.444H69.8651ZM76.1187 17L74.1987 11.072H75.7227L76.5027 13.616C76.6347 14.084 76.7547 14.6 76.8627 15.152C76.9707 14.576 77.0787 14.204 77.2707 13.616L78.0867 11.072H79.5747L80.3667 13.616C80.4387 13.856 80.6787 14.744 80.7507 15.14C80.8467 14.696 81.0387 13.988 81.1467 13.616L81.9387 11.072H83.4867L81.4347 17H80.0667L79.2507 14.432C79.0107 13.652 78.8787 13.088 78.8307 12.788C78.7707 13.064 78.6627 13.484 78.3627 14.456L77.5467 17H76.1187ZM85.8442 17.156C84.5842 17.156 83.8162 16.424 83.8162 15.308C83.8162 14.216 84.6082 13.532 86.0122 13.424L87.7882 13.292V13.16C87.7882 12.356 87.3082 12.032 86.5642 12.032C85.7002 12.032 85.2202 12.392 85.2202 13.016H83.9722C83.9722 11.732 85.0282 10.892 86.6362 10.892C88.2322 10.892 89.2162 11.756 89.2162 13.4V17H87.9322L87.8242 16.124C87.5722 16.736 86.7682 17.156 85.8442 17.156ZM86.3242 16.052C87.2242 16.052 87.8002 15.512 87.8002 14.6V14.288L86.5642 14.384C85.6522 14.468 85.3042 14.768 85.3042 15.248C85.3042 15.788 85.6642 16.052 86.3242 16.052ZM92.1304 17H90.6784V8.072H92.1304V17ZM95.1422 17H93.6902V8.072H95.1422V17ZM99.3299 17.156C97.5659 17.156 96.3299 15.872 96.3299 14.036C96.3299 12.176 97.5419 10.892 99.2819 10.892C101.058 10.892 102.186 12.08 102.186 13.928V14.372L97.7219 14.384C97.8299 15.428 98.3819 15.956 99.3539 15.956C100.158 15.956 100.686 15.644 100.854 15.08H102.21C101.958 16.376 100.878 17.156 99.3299 17.156ZM99.2939 12.092C98.4299 12.092 97.9019 12.56 97.7579 13.448H100.734C100.734 12.632 100.17 12.092 99.2939 12.092ZM105.315 17H103.851V12.296H102.711V11.072H103.851V9.224H105.315V11.072H106.467V12.296H105.315V17ZM107.131 14.444V13.148H110.995V14.444H107.131ZM116.206 11.048V12.404H115.666C114.61 12.404 113.95 12.968 113.95 14.12V17H112.486V11.084H113.866L113.95 11.948C114.202 11.36 114.766 10.964 115.558 10.964C115.762 10.964 115.966 10.988 116.206 11.048ZM119.65 17.156C117.886 17.156 116.65 15.872 116.65 14.036C116.65 12.176 117.862 10.892 119.602 10.892C121.378 10.892 122.506 12.08 122.506 13.928V14.372L118.042 14.384C118.15 15.428 118.702 15.956 119.674 15.956C120.478 15.956 121.006 15.644 121.174 15.08H122.53C122.278 16.376 121.198 17.156 119.65 17.156ZM119.614 12.092C118.75 12.092 118.222 12.56 118.078 13.448H121.054C121.054 12.632 120.49 12.092 119.614 12.092ZM125.142 17H123.678V11.072H125.022L125.142 11.768C125.442 11.276 126.042 10.892 126.894 10.892C127.794 10.892 128.418 11.336 128.73 12.02C129.03 11.336 129.726 10.892 130.626 10.892C132.066 10.892 132.858 11.756 132.858 13.124V17H131.406V13.508C131.406 12.656 130.95 12.212 130.254 12.212C129.546 12.212 129.006 12.668 129.006 13.64V17H127.542V13.496C127.542 12.668 127.098 12.224 126.402 12.224C125.706 12.224 125.142 12.68 125.142 13.64V17ZM133.947 14.024C133.947 12.176 135.279 10.904 137.115 10.904C138.951 10.904 140.283 12.176 140.283 14.024C140.283 15.872 138.951 17.144 137.115 17.144C135.279 17.144 133.947 15.872 133.947 14.024ZM135.411 14.024C135.411 15.104 136.107 15.836 137.115 15.836C138.123 15.836 138.819 15.104 138.819 14.024C138.819 12.944 138.123 12.212 137.115 12.212C136.107 12.212 135.411 12.944 135.411 14.024ZM142.831 17L140.479 11.072H142.039L143.071 13.796C143.323 14.504 143.527 15.116 143.599 15.44C143.683 15.068 143.899 14.444 144.151 13.796L145.231 11.072H146.743L144.271 17H142.831ZM149.943 17.156C148.179 17.156 146.943 15.872 146.943 14.036C146.943 12.176 148.155 10.892 149.895 10.892C151.671 10.892 152.799 12.08 152.799 13.928V14.372L148.335 14.384C148.443 15.428 148.995 15.956 149.967 15.956C150.771 15.956 151.299 15.644 151.467 15.08H152.823C152.571 16.376 151.491 17.156 149.943 17.156ZM149.907 12.092C149.043 12.092 148.515 12.56 148.371 13.448H151.347C151.347 12.632 150.783 12.092 149.907 12.092Z" fill="black"/>
</svg>
