<svg width="178" height="24" viewBox="0 0 178 24" fill="none" xmlns="http://www.w3.org/2000/svg">
<path d="M15.0195 2.23006C13.0195 1.92006 10.9796 1.92006 8.97957 2.23006C8.15957 2.36006 7.55956 3.06005 7.55956 3.88005V7.56005H3.87956C3.05956 7.56005 2.35957 8.16006 2.22957 8.98006C1.91957 10.9801 1.91957 13.02 2.22957 15.02C2.35957 15.84 3.05956 16.4401 3.87956 16.4401H5.55956C5.83956 16.4401 6.05956 16.22 6.05956 15.9401V14.22C6.05956 12.17 7.72956 10.5 9.77956 10.5H14.2196C14.6196 10.5 14.9396 10.18 14.9396 9.78005V6.56005C14.9396 6.28005 15.1596 6.06005 15.4396 6.06005H15.9396C16.2196 6.06005 16.4396 5.84005 16.4396 5.56005V3.88005C16.4396 3.06005 15.8395 2.36006 15.0195 2.23006ZM10.3295 5.58003C9.91955 5.58003 9.52956 5.19005 9.52956 4.78005C9.52956 4.36005 9.91955 3.97005 10.3295 3.97005C10.5295 3.97005 10.7496 4.06006 10.8896 4.20006C11.0396 4.34006 11.1396 4.57005 11.1396 4.78005C11.1396 5.19005 10.7495 5.58003 10.3295 5.58003Z" fill="#1A1A1A"/>
<path d="M21.7696 8.98007C21.6396 8.16007 20.9396 7.56006 20.1196 7.56006H16.9396C16.6596 7.56006 16.4396 7.78006 16.4396 8.06006V9.78006C16.4396 11.0001 15.4496 12.0001 14.2196 12.0001H9.77957C8.54957 12.0001 7.55957 12.9901 7.55957 14.2201V20.1201C7.55957 20.9401 8.15958 21.64 8.97958 21.7701C10.9796 22.0801 13.0196 22.0801 15.0196 21.7701C15.8396 21.64 16.4396 20.9401 16.4396 20.1201V16.4401H20.1196C20.9396 16.4401 21.6396 15.84 21.7696 15.0201C22.0796 13.0201 22.0796 10.9801 21.7696 8.98007ZM13.6696 20.0301C13.2596 20.0301 12.8596 19.6401 12.8596 19.2201C12.8596 18.8001 13.2496 18.4101 13.6696 18.4101C13.8596 18.4101 14.0896 18.5001 14.2296 18.6301C14.3796 18.7701 14.4796 19.0101 14.4796 19.2101C14.4696 19.6401 14.0796 20.0301 13.6696 20.0301Z" fill="#1A1A1A"/>
<path d="M38.44 12.976H36.508V16H34.972V7.228H38.44C40.204 7.228 41.344 8.38 41.344 10.096C41.344 11.788 40.192 12.976 38.44 12.976ZM38.14 8.596H36.508V11.608H38.116C39.172 11.608 39.736 11.044 39.736 10.084C39.736 9.124 39.16 8.596 38.14 8.596ZM41.9041 18.748V17.524H42.7801C43.3561 17.524 43.7161 17.392 43.9681 16.696L44.1361 16.252L41.7481 10.072H43.2961L44.8201 14.392L46.4281 10.072H47.9401L45.0361 17.32C44.5921 18.424 43.9681 18.88 42.9961 18.88C42.5881 18.88 42.2281 18.832 41.9041 18.748ZM50.7876 16H49.3236V11.296H48.1836V10.072H49.3236V8.224H50.7876V10.072H51.9396V11.296H50.7876V16ZM54.3138 16H52.8498V7.072H54.3258V10.84C54.6978 10.264 55.3938 9.892 56.2458 9.892C57.7098 9.892 58.4778 10.816 58.4778 12.352V16H57.0138V12.7C57.0138 11.704 56.5218 11.224 55.7778 11.224C54.8538 11.224 54.3138 11.872 54.3138 12.76V16ZM59.5682 13.024C59.5682 11.176 60.9002 9.904 62.7362 9.904C64.5722 9.904 65.9042 11.176 65.9042 13.024C65.9042 14.872 64.5722 16.144 62.7362 16.144C60.9002 16.144 59.5682 14.872 59.5682 13.024ZM61.0322 13.024C61.0322 14.104 61.7282 14.836 62.7362 14.836C63.7442 14.836 64.4402 14.104 64.4402 13.024C64.4402 11.944 63.7442 11.212 62.7362 11.212C61.7282 11.212 61.0322 11.944 61.0322 13.024ZM68.5286 16H67.0646V10.072H68.4206L68.5406 10.84C68.9126 10.24 69.6326 9.892 70.4366 9.892C71.9246 9.892 72.6926 10.816 72.6926 12.352V16H71.2286V12.7C71.2286 11.704 70.7366 11.224 69.9806 11.224C69.0806 11.224 68.5286 11.848 68.5286 12.808V16Z" fill="black"/>
</svg>
