<svg width="141" height="24" viewBox="0 0 141 24" fill="none" xmlns="http://www.w3.org/2000/svg">
<path d="M8.75 3.5V2C8.75 1.59 8.41 1.25 8 1.25C7.59 1.25 7.25 1.59 7.25 2V3.56C7.5 3.53 7.73 3.5 8 3.5H8.75Z" fill="#1A1A1A"/>
<path d="M16.7498 3.56V2C16.7498 1.59 16.4098 1.25 15.9998 1.25C15.5898 1.25 15.2498 1.59 15.2498 2V3.5H15.9998C16.2698 3.5 16.4998 3.53 16.7498 3.56Z" fill="#1A1A1A"/>
<path d="M16.75 3.56V5C16.75 5.41 16.41 5.75 16 5.75C15.59 5.75 15.25 5.41 15.25 5V3.5H8.75V5C8.75 5.41 8.41 5.75 8 5.75C7.59 5.75 7.25 5.41 7.25 5V3.56C4.3 3.83 3 5.73 3 8.5V17C3 20 4.5 22 8 22H16C19.5 22 21 20 21 17V8.5C21 5.73 19.7 3.83 16.75 3.56ZM12 16.75H8C7.59 16.75 7.25 16.41 7.25 16C7.25 15.59 7.59 15.25 8 15.25H12C12.41 15.25 12.75 15.59 12.75 16C12.75 16.41 12.41 16.75 12 16.75ZM16 11.75H8C7.59 11.75 7.25 11.41 7.25 11C7.25 10.59 7.59 10.25 8 10.25H16C16.41 10.25 16.75 10.59 16.75 11C16.75 11.41 16.41 11.75 16 11.75Z" fill="#1A1A1A"/>
<path d="M36.4838 16H34.9718V7.228H36.4958L40.6118 13.444V7.228H42.1238V16H40.6118L36.4838 9.784V16ZM43.5015 13.024C43.5015 11.176 44.8335 9.904 46.6695 9.904C48.5055 9.904 49.8375 11.176 49.8375 13.024C49.8375 14.872 48.5055 16.144 46.6695 16.144C44.8335 16.144 43.5015 14.872 43.5015 13.024ZM44.9655 13.024C44.9655 14.104 45.6615 14.836 46.6695 14.836C47.6775 14.836 48.3735 14.104 48.3735 13.024C48.3735 11.944 47.6775 11.212 46.6695 11.212C45.6615 11.212 44.9655 11.944 44.9655 13.024ZM52.9553 16H51.4913V11.296H50.3513V10.072H51.4913V8.224H52.9553V10.072H54.1073V11.296H52.9553V16ZM57.6109 16.156C55.8469 16.156 54.6109 14.872 54.6109 13.036C54.6109 11.176 55.8229 9.892 57.5629 9.892C59.3389 9.892 60.4669 11.08 60.4669 12.928V13.372L56.0029 13.384C56.1109 14.428 56.6629 14.956 57.6349 14.956C58.4389 14.956 58.9669 14.644 59.1349 14.08H60.4909C60.2389 15.376 59.1589 16.156 57.6109 16.156ZM57.5749 11.092C56.7109 11.092 56.1829 11.56 56.0389 12.448H59.0149C59.0149 11.632 58.4509 11.092 57.5749 11.092ZM61.6266 13.444V12.148H65.4906V13.444H61.6266ZM68.7639 16H67.2999V11.296H66.1599V10.072H67.2999V8.224H68.7639V10.072H69.9159V11.296H68.7639V16ZM73.4195 16.156C71.6555 16.156 70.4195 14.872 70.4195 13.036C70.4195 11.176 71.6315 9.892 73.3715 9.892C75.1475 9.892 76.2755 11.08 76.2755 12.928V13.372L71.8115 13.384C71.9195 14.428 72.4715 14.956 73.4435 14.956C74.2475 14.956 74.7755 14.644 74.9435 14.08H76.2995C76.0475 15.376 74.9675 16.156 73.4195 16.156ZM73.3835 11.092C72.5195 11.092 71.9915 11.56 71.8475 12.448H74.8235C74.8235 11.632 74.2595 11.092 73.3835 11.092ZM78.2096 16H76.5416L78.5816 13.096L76.5416 10.072H78.2456L79.5536 12.088L80.8136 10.072H82.4576L80.4416 13.072L82.3976 16H80.7176L79.4576 14.044L78.2096 16ZM85.5803 16H84.1163V11.296H82.9763V10.072H84.1163V8.224H85.5803V10.072H86.7323V11.296H85.5803V16Z" fill="black"/>
</svg>
