<svg width="101" height="24" viewBox="0 0 101 24" fill="none" xmlns="http://www.w3.org/2000/svg">
<path d="M12 2C6.48 2 2 6.48 2 12C2 17.52 6.48 22 12 22C17.52 22 22 17.52 22 12C22 6.48 17.52 2 12 2ZM15.42 16.58C15.27 16.79 15.04 16.89 14.81 16.89C14.66 16.89 14.51 16.84 14.37 16.75C12.83 15.65 10.86 15.41 9.10001 16.1C8.72001 16.25 8.28 16.06 8.13 15.68C7.98 15.29 8.17 14.86 8.55 14.71C10.79 13.82 13.29 14.13 15.24 15.53C15.59 15.78 15.66 16.25 15.42 16.58ZM16.52 13.79C16.37 14 16.14 14.1 15.91 14.1C15.76 14.1 15.61 14.05 15.47 13.96C13.35 12.44 10.64 12.11 8.21001 13.07C7.83001 13.22 7.39001 13.03 7.24001 12.65C7.09001 12.26 7.28 11.83 7.66 11.68C10.56 10.53 13.81 10.93 16.34 12.75C16.68 12.99 16.76 13.46 16.52 13.79ZM18.09 11.11C17.94 11.32 17.71 11.42 17.48 11.42C17.33 11.42 17.18 11.37 17.04 11.28C14.06 9.14 10.24 8.67 6.84 10.03C6.45 10.18 6.02 9.98999 5.87 9.60999C5.72 9.22999 5.90999 8.79001 6.28999 8.64001C10.17 7.10001 14.52 7.63001 17.92 10.07C18.26 10.3 18.34 10.77 18.09 11.11Z" fill="#1A1A1A"/>
<path d="M34.468 9.676C34.468 8.14 35.74 7.072 37.588 7.072C39.364 7.072 40.492 8.056 40.54 9.64H39.004C38.968 8.884 38.428 8.44 37.564 8.44C36.616 8.44 36.004 8.896 36.004 9.628C36.004 10.252 36.34 10.6 37.072 10.768L38.452 11.068C39.952 11.392 40.684 12.16 40.684 13.468C40.684 15.1 39.412 16.156 37.48 16.156C35.608 16.156 34.384 15.16 34.348 13.588H35.884C35.896 14.332 36.496 14.776 37.48 14.776C38.5 14.776 39.148 14.332 39.148 13.6C39.148 13.012 38.848 12.664 38.128 12.508L36.736 12.196C35.248 11.872 34.468 11.02 34.468 9.676ZM41.8576 18.748V10.072H43.2136L43.3096 10.972C43.6696 10.288 44.4496 9.892 45.3496 9.892C47.0176 9.892 48.1216 11.104 48.1216 12.964C48.1216 14.812 47.1136 16.156 45.3496 16.156C44.4616 16.156 43.6936 15.808 43.3216 15.208V18.748H41.8576ZM43.3336 13.036C43.3336 14.104 43.9936 14.836 45.0016 14.836C46.0336 14.836 46.6456 14.092 46.6456 13.036C46.6456 11.98 46.0336 11.224 45.0016 11.224C43.9936 11.224 43.3336 11.968 43.3336 13.036ZM48.9393 13.024C48.9393 11.176 50.2713 9.904 52.1073 9.904C53.9433 9.904 55.2753 11.176 55.2753 13.024C55.2753 14.872 53.9433 16.144 52.1073 16.144C50.2713 16.144 48.9393 14.872 48.9393 13.024ZM50.4033 13.024C50.4033 14.104 51.0993 14.836 52.1073 14.836C53.1153 14.836 53.8113 14.104 53.8113 13.024C53.8113 11.944 53.1153 11.212 52.1073 11.212C51.0993 11.212 50.4033 11.944 50.4033 13.024ZM58.3931 16H56.9291V11.296H55.7891V10.072H56.9291V8.224H58.3931V10.072H59.5451V11.296H58.3931V16ZM61.1872 8.884C60.6832 8.884 60.2872 8.488 60.2872 7.996C60.2872 7.504 60.6832 7.12 61.1872 7.12C61.6672 7.12 62.0632 7.504 62.0632 7.996C62.0632 8.488 61.6672 8.884 61.1872 8.884ZM60.4552 16V10.072H61.9192V16H60.4552ZM62.8438 10.072H63.6958V9.352C63.6958 7.744 64.5478 7.072 65.8318 7.072C66.0598 7.072 66.3358 7.084 66.5878 7.132V8.38H66.0718C65.3278 8.38 65.1478 8.764 65.1478 9.352V10.072H66.5638V11.296H65.1478V16H63.6958V11.296H62.8438V10.072ZM66.9822 18.748V17.524H67.8582C68.4342 17.524 68.7942 17.392 69.0462 16.696L69.2142 16.252L66.8262 10.072H68.3742L69.8982 14.392L71.5062 10.072H73.0182L70.1142 17.32C69.6702 18.424 69.0462 18.88 68.0742 18.88C67.6662 18.88 67.3062 18.832 66.9822 18.748Z" fill="black"/>
</svg>
