<svg width="121" height="24" viewBox="0 0 121 24" fill="none" xmlns="http://www.w3.org/2000/svg">
<path d="M2 11.46V16.46C2 18.75 3.85 20.6 6.14 20.6H17.85C20.14 20.6 22 18.74 22 16.45V11.46C22 10.79 21.46 10.25 20.79 10.25H3.21C2.54 10.25 2 10.79 2 11.46ZM8 17.25H6C5.59 17.25 5.25 16.91 5.25 16.5C5.25 16.09 5.59 15.75 6 15.75H8C8.41 15.75 8.75 16.09 8.75 16.5C8.75 16.91 8.41 17.25 8 17.25ZM14.5 17.25H10.5C10.09 17.25 9.75 16.91 9.75 16.5C9.75 16.09 10.09 15.75 10.5 15.75H14.5C14.91 15.75 15.25 16.09 15.25 16.5C15.25 16.91 14.91 17.25 14.5 17.25Z" fill="#1A1A1A"/>
<path d="M13.5 4.61002V7.54002C13.5 8.21002 12.96 8.75002 12.29 8.75002H3.21C2.53 8.75002 2 8.19002 2 7.52002C2.01 6.39002 2.46 5.36002 3.21 4.61002C3.96 3.86002 5 3.40002 6.14 3.40002H12.29C12.96 3.40002 13.5 3.94002 13.5 4.61002Z" fill="#1A1A1A"/>
<path d="M19.97 2H17.03C15.76 2 15 2.76 15 4.03V6.97C15 8.24 15.76 9 17.03 9H19.97C21.24 9 22 8.24 22 6.97V4.03C22 2.76 21.24 2 19.97 2ZM20.91 5.93C20.81 6.03 20.66 6.1 20.5 6.11H19.09L19.1 7.5C19.09 7.67 19.03 7.81 18.91 7.93C18.81 8.03 18.66 8.1 18.5 8.1C18.17 8.1 17.9 7.83 17.9 7.5V6.1L16.5 6.11C16.17 6.11 15.9 5.83 15.9 5.5C15.9 5.17 16.17 4.9 16.5 4.9L17.9 4.91V3.51C17.9 3.18 18.17 2.9 18.5 2.9C18.83 2.9 19.1 3.18 19.1 3.51L19.09 4.9H20.5C20.83 4.9 21.1 5.17 21.1 5.5C21.09 5.67 21.02 5.81 20.91 5.93Z" fill="#1A1A1A"/>
<path d="M38.68 16.144C36.124 16.144 34.468 14.368 34.468 11.62C34.468 8.896 36.184 7.084 38.752 7.084C40.828 7.084 42.376 8.296 42.676 10.18H41.056C40.756 9.16 39.88 8.56 38.716 8.56C37.096 8.56 36.076 9.736 36.076 11.608C36.076 13.468 37.108 14.668 38.716 14.668C39.904 14.668 40.816 14.044 41.104 13.072H42.7C42.364 14.92 40.756 16.144 38.68 16.144ZM45.5083 16.156C44.2483 16.156 43.4803 15.424 43.4803 14.308C43.4803 13.216 44.2723 12.532 45.6763 12.424L47.4523 12.292V12.16C47.4523 11.356 46.9723 11.032 46.2283 11.032C45.3643 11.032 44.8843 11.392 44.8843 12.016H43.6363C43.6363 10.732 44.6923 9.892 46.3003 9.892C47.8963 9.892 48.8803 10.756 48.8803 12.4V16H47.5963L47.4883 15.124C47.2363 15.736 46.4323 16.156 45.5083 16.156ZM45.9883 15.052C46.8883 15.052 47.4643 14.512 47.4643 13.6V13.288L46.2283 13.384C45.3163 13.468 44.9683 13.768 44.9683 14.248C44.9683 14.788 45.3283 15.052 45.9883 15.052ZM54.0385 10.048V11.404H53.4985C52.4425 11.404 51.7825 11.968 51.7825 13.12V16H50.3185V10.084H51.6985L51.7825 10.948C52.0345 10.36 52.5985 9.964 53.3905 9.964C53.5945 9.964 53.7985 9.988 54.0385 10.048ZM57.2662 16.156C55.5502 16.156 54.4822 14.896 54.4822 13.06C54.4822 11.212 55.5622 9.892 57.3502 9.892C58.1782 9.892 58.9102 10.24 59.2822 10.828V7.072H60.7342V16H59.3902L59.2942 15.076C58.9342 15.76 58.1662 16.156 57.2662 16.156ZM57.5902 14.812C58.6102 14.812 59.2702 14.08 59.2702 13.012C59.2702 11.944 58.6102 11.2 57.5902 11.2C56.5702 11.2 55.9462 11.956 55.9462 13.012C55.9462 14.068 56.5702 14.812 57.5902 14.812ZM62.2479 13.444V12.148H66.1119V13.444H62.2479ZM69.1684 16.156C67.9084 16.156 67.1404 15.424 67.1404 14.308C67.1404 13.216 67.9324 12.532 69.3364 12.424L71.1124 12.292V12.16C71.1124 11.356 70.6324 11.032 69.8884 11.032C69.0244 11.032 68.5444 11.392 68.5444 12.016H67.2964C67.2964 10.732 68.3524 9.892 69.9604 9.892C71.5564 9.892 72.5404 10.756 72.5404 12.4V16H71.2564L71.1484 15.124C70.8964 15.736 70.0924 16.156 69.1684 16.156ZM69.6484 15.052C70.5484 15.052 71.1244 14.512 71.1244 13.6V13.288L69.8884 13.384C68.9764 13.468 68.6284 13.768 68.6284 14.248C68.6284 14.788 68.9884 15.052 69.6484 15.052ZM76.4147 16.156C74.6987 16.156 73.6307 14.896 73.6307 13.06C73.6307 11.212 74.7107 9.892 76.4987 9.892C77.3267 9.892 78.0587 10.24 78.4307 10.828V7.072H79.8827V16H78.5387L78.4427 15.076C78.0827 15.76 77.3147 16.156 76.4147 16.156ZM76.7387 14.812C77.7587 14.812 78.4187 14.08 78.4187 13.012C78.4187 11.944 77.7587 11.2 76.7387 11.2C75.7187 11.2 75.0947 11.956 75.0947 13.012C75.0947 14.068 75.7187 14.812 76.7387 14.812ZM83.8443 16.156C82.1283 16.156 81.0603 14.896 81.0603 13.06C81.0603 11.212 82.1403 9.892 83.9283 9.892C84.7563 9.892 85.4883 10.24 85.8603 10.828V7.072H87.3123V16H85.9683L85.8723 15.076C85.5123 15.76 84.7443 16.156 83.8443 16.156ZM84.1683 14.812C85.1883 14.812 85.8483 14.08 85.8483 13.012C85.8483 11.944 85.1883 11.2 84.1683 11.2C83.1483 11.2 82.5243 11.956 82.5243 13.012C82.5243 14.068 83.1483 14.812 84.1683 14.812Z" fill="black"/>
</svg>
