<svg width="112" height="24" viewBox="0 0 112 24" fill="none" xmlns="http://www.w3.org/2000/svg">
<path d="M16.7502 3.56V2C16.7502 1.59 16.4102 1.25 16.0002 1.25C15.5902 1.25 15.2502 1.59 15.2502 2V3.5H8.75023V2C8.75023 1.59 8.41023 1.25 8.00023 1.25C7.59023 1.25 7.25023 1.59 7.25023 2V3.56C4.55023 3.81 3.24023 5.42 3.04023 7.81C3.02023 8.1 3.26023 8.34 3.54023 8.34H20.4602C20.7502 8.34 20.9902 8.09 20.9602 7.81C20.7602 5.42 19.4502 3.81 16.7502 3.56Z" fill="#1A1A1A"/>
<path d="M20 9.83984H4C3.45 9.83984 3 10.2898 3 10.8398V16.9998C3 19.9998 4.5 21.9998 8 21.9998H12.93C13.62 21.9998 14.1 21.3298 13.88 20.6798C13.68 20.0998 13.51 19.4598 13.51 18.9998C13.51 15.9698 15.98 13.4998 19.01 13.4998C19.3 13.4998 19.59 13.5198 19.87 13.5698C20.47 13.6598 21.01 13.1898 21.01 12.5898V10.8498C21 10.2898 20.55 9.83984 20 9.83984ZM9.21 17.7098C9.11 17.7998 9 17.8698 8.88 17.9198C8.76 17.9698 8.63 17.9998 8.5 17.9998C8.37 17.9998 8.24 17.9698 8.12 17.9198C8 17.8698 7.89 17.7998 7.79 17.7098C7.61 17.5198 7.5 17.2598 7.5 16.9998C7.5 16.9398 7.51 16.8698 7.52 16.8098C7.53 16.7398 7.55 16.6798 7.58 16.6198C7.6 16.5598 7.63 16.4998 7.67 16.4398C7.7 16.3898 7.75 16.3398 7.79 16.2898C7.89 16.1998 8 16.1298 8.12 16.0798C8.36 15.9798 8.64 15.9798 8.88 16.0798C9 16.1298 9.11 16.1998 9.21 16.2898C9.25 16.3398 9.3 16.3898 9.33 16.4398C9.37 16.4998 9.4 16.5598 9.42 16.6198C9.45 16.6798 9.47 16.7398 9.48 16.8098C9.49 16.8698 9.5 16.9398 9.5 16.9998C9.5 17.2598 9.39 17.5198 9.21 17.7098ZM9.21 14.2098C9.11 14.2998 9 14.3698 8.88 14.4198C8.76 14.4698 8.63 14.4998 8.5 14.4998C8.37 14.4998 8.24 14.4698 8.12 14.4198C7.99 14.3698 7.89 14.2998 7.79 14.2098C7.61 14.0198 7.5 13.7598 7.5 13.4998C7.5 13.2398 7.61 12.9798 7.79 12.7898C7.89 12.6998 8 12.6298 8.12 12.5798C8.36 12.4798 8.64 12.4798 8.88 12.5798C9 12.6298 9.11 12.6998 9.21 12.7898C9.25 12.8398 9.3 12.8898 9.33 12.9398C9.37 12.9998 9.4 13.0598 9.42 13.1198C9.45 13.1798 9.47 13.2398 9.48 13.2998C9.49 13.3698 9.5 13.4398 9.5 13.4998C9.5 13.7598 9.39 14.0198 9.21 14.2098ZM12.71 14.2098C12.52 14.3898 12.27 14.4998 12 14.4998C11.87 14.4998 11.74 14.4698 11.62 14.4198C11.49 14.3698 11.39 14.2998 11.29 14.2098C11.11 14.0198 11 13.7598 11 13.4998C11 13.4398 11.01 13.3698 11.02 13.2998C11.03 13.2398 11.05 13.1798 11.08 13.1198C11.1 13.0598 11.13 12.9998 11.17 12.9398C11.21 12.8898 11.25 12.8398 11.29 12.7898C11.66 12.4198 12.33 12.4198 12.71 12.7898C12.75 12.8398 12.79 12.8898 12.83 12.9398C12.87 12.9998 12.9 13.0598 12.92 13.1198C12.95 13.1798 12.97 13.2398 12.98 13.2998C12.99 13.3698 13 13.4398 13 13.4998C13 13.7598 12.89 14.0198 12.71 14.2098Z" fill="#1A1A1A"/>
<path d="M21.83 16.17C20.27 14.61 17.73 14.61 16.17 16.17C14.61 17.73 14.61 20.27 16.17 21.83C17.73 23.39 20.27 23.39 21.83 21.83C23.39 20.27 23.39 17.73 21.83 16.17ZM21.07 19.56C20.94 19.7 20.75 19.78 20.54 19.78H19.8V20.56C19.8 20.77 19.72 20.95 19.58 21.09C19.44 21.23 19.26 21.31 19.05 21.31C18.64 21.31 18.3 20.97 18.3 20.56V19.78H17.55C17.14 19.78 16.8 19.45 16.8 19.03C16.8 18.62 17.14 18.28 17.55 18.28H18.3V17.57C18.3 17.16 18.63 16.82 19.05 16.82C19.46 16.82 19.8 17.16 19.8 17.57V18.28H20.54C20.96 18.28 21.29 18.62 21.29 19.03C21.29 19.24 21.21 19.43 21.07 19.56Z" fill="#1A1A1A"/>
<path d="M38.68 17.144C36.124 17.144 34.468 15.368 34.468 12.62C34.468 9.896 36.184 8.084 38.752 8.084C40.828 8.084 42.376 9.296 42.676 11.18H41.056C40.756 10.16 39.88 9.56 38.716 9.56C37.096 9.56 36.076 10.736 36.076 12.608C36.076 14.468 37.108 15.668 38.716 15.668C39.904 15.668 40.816 15.044 41.104 14.072H42.7C42.364 15.92 40.756 17.144 38.68 17.144ZM45.5083 17.156C44.2483 17.156 43.4803 16.424 43.4803 15.308C43.4803 14.216 44.2723 13.532 45.6763 13.424L47.4523 13.292V13.16C47.4523 12.356 46.9723 12.032 46.2283 12.032C45.3643 12.032 44.8843 12.392 44.8843 13.016H43.6363C43.6363 11.732 44.6923 10.892 46.3003 10.892C47.8963 10.892 48.8803 11.756 48.8803 13.4V17H47.5963L47.4883 16.124C47.2363 16.736 46.4323 17.156 45.5083 17.156ZM45.9883 16.052C46.8883 16.052 47.4643 15.512 47.4643 14.6V14.288L46.2283 14.384C45.3163 14.468 44.9683 14.768 44.9683 15.248C44.9683 15.788 45.3283 16.052 45.9883 16.052ZM51.7945 17H50.3425V8.072H51.7945V17ZM55.9822 17.156C54.2182 17.156 52.9822 15.872 52.9822 14.036C52.9822 12.176 54.1942 10.892 55.9342 10.892C57.7102 10.892 58.8382 12.08 58.8382 13.928V14.372L54.3742 14.384C54.4822 15.428 55.0342 15.956 56.0062 15.956C56.8102 15.956 57.3382 15.644 57.5062 15.08H58.8622C58.6102 16.376 57.5302 17.156 55.9822 17.156ZM55.9462 12.092C55.0822 12.092 54.5542 12.56 54.4102 13.448H57.3862C57.3862 12.632 56.8222 12.092 55.9462 12.092ZM61.4739 17H60.0099V11.072H61.3659L61.4859 11.84C61.8579 11.24 62.5779 10.892 63.3819 10.892C64.8699 10.892 65.6379 11.816 65.6379 13.352V17H64.1739V13.7C64.1739 12.704 63.6819 12.224 62.9259 12.224C62.0259 12.224 61.4739 12.848 61.4739 13.808V17ZM69.5123 17.156C67.7963 17.156 66.7283 15.896 66.7283 14.06C66.7283 12.212 67.8083 10.892 69.5963 10.892C70.4243 10.892 71.1563 11.24 71.5283 11.828V8.072H72.9803V17H71.6363L71.5403 16.076C71.1803 16.76 70.4123 17.156 69.5123 17.156ZM69.8363 15.812C70.8563 15.812 71.5163 15.08 71.5163 14.012C71.5163 12.944 70.8563 12.2 69.8363 12.2C68.8163 12.2 68.1923 12.956 68.1923 14.012C68.1923 15.068 68.8163 15.812 69.8363 15.812ZM76.27 17.156C75.01 17.156 74.242 16.424 74.242 15.308C74.242 14.216 75.034 13.532 76.438 13.424L78.214 13.292V13.16C78.214 12.356 77.734 12.032 76.99 12.032C76.126 12.032 75.646 12.392 75.646 13.016H74.398C74.398 11.732 75.454 10.892 77.062 10.892C78.658 10.892 79.642 11.756 79.642 13.4V17H78.358L78.25 16.124C77.998 16.736 77.194 17.156 76.27 17.156ZM76.75 16.052C77.65 16.052 78.226 15.512 78.226 14.6V14.288L76.99 14.384C76.078 14.468 75.73 14.768 75.73 15.248C75.73 15.788 76.09 16.052 76.75 16.052ZM84.8002 11.048V12.404H84.2602C83.2042 12.404 82.5442 12.968 82.5442 14.12V17H81.0802V11.084H82.4602L82.5442 11.948C82.7962 11.36 83.3602 10.964 84.1522 10.964C84.3562 10.964 84.5602 10.988 84.8002 11.048ZM85.3456 14.444V13.148H89.2096V14.444H85.3456ZM92.2661 17.156C91.0061 17.156 90.2381 16.424 90.2381 15.308C90.2381 14.216 91.0301 13.532 92.4341 13.424L94.2101 13.292V13.16C94.2101 12.356 93.7301 12.032 92.9861 12.032C92.1221 12.032 91.6421 12.392 91.6421 13.016H90.3941C90.3941 11.732 91.4501 10.892 93.0581 10.892C94.6541 10.892 95.6381 11.756 95.6381 13.4V17H94.3541L94.2461 16.124C93.9941 16.736 93.1901 17.156 92.2661 17.156ZM92.7461 16.052C93.6461 16.052 94.2221 15.512 94.2221 14.6V14.288L92.9861 14.384C92.0741 14.468 91.7261 14.768 91.7261 15.248C91.7261 15.788 92.0861 16.052 92.7461 16.052ZM99.5123 17.156C97.7963 17.156 96.7283 15.896 96.7283 14.06C96.7283 12.212 97.8083 10.892 99.5963 10.892C100.424 10.892 101.156 11.24 101.528 11.828V8.072H102.98V17H101.636L101.54 16.076C101.18 16.76 100.412 17.156 99.5123 17.156ZM99.8363 15.812C100.856 15.812 101.516 15.08 101.516 14.012C101.516 12.944 100.856 12.2 99.8363 12.2C98.8163 12.2 98.1923 12.956 98.1923 14.012C98.1923 15.068 98.8163 15.812 99.8363 15.812ZM106.942 17.156C105.226 17.156 104.158 15.896 104.158 14.06C104.158 12.212 105.238 10.892 107.026 10.892C107.854 10.892 108.586 11.24 108.958 11.828V8.072H110.41V17H109.066L108.97 16.076C108.61 16.76 107.842 17.156 106.942 17.156ZM107.266 15.812C108.286 15.812 108.946 15.08 108.946 14.012C108.946 12.944 108.286 12.2 107.266 12.2C106.246 12.2 105.622 12.956 105.622 14.012C105.622 15.068 106.246 15.812 107.266 15.812Z" fill="black"/>
</svg>
