<svg width="104" height="24" viewBox="0 0 104 24" fill="none" xmlns="http://www.w3.org/2000/svg">
<path d="M16.19 2H7.81C4.17 2 2 4.17 2 7.81V16.19C2 19 3.29 20.93 5.56 21.66C6.22 21.89 6.98 22 7.81 22H16.19C17.02 22 17.78 21.89 18.44 21.66C20.71 20.93 22 19 22 16.19V7.81C22 4.17 19.83 2 16.19 2ZM20.5 16.19C20.5 18.33 19.66 19.68 17.97 20.24C17 18.33 14.7 16.97 12 16.97C9.3 16.97 7.01 18.32 6.03 20.24H6.02C4.35 19.7 3.5 18.34 3.5 16.2V7.81C3.5 4.99 4.99 3.5 7.81 3.5H16.19C19.01 3.5 20.5 4.99 20.5 7.81V16.19Z" fill="#1A1A1A"/>
<path d="M11.9999 8C10.0199 8 8.41992 9.6 8.41992 11.58C8.41992 13.56 10.0199 15.17 11.9999 15.17C13.9799 15.17 15.5799 13.56 15.5799 11.58C15.5799 9.6 13.9799 8 11.9999 8Z" fill="#1A1A1A"/>
<path d="M35.912 13.796V8.228H37.448V13.7C37.448 14.96 38.132 15.656 39.38 15.656C40.628 15.656 41.324 14.948 41.324 13.7V8.228H42.86V13.796C42.86 15.848 41.516 17.144 39.38 17.144C37.256 17.144 35.912 15.86 35.912 13.796ZM43.9953 15.2H45.3873C45.3993 15.716 45.7833 16.04 46.4553 16.04C47.1393 16.04 47.5113 15.764 47.5113 15.332C47.5113 15.032 47.3553 14.816 46.8273 14.696L45.7593 14.444C44.6913 14.204 44.1753 13.7 44.1753 12.752C44.1753 11.588 45.1593 10.892 46.5273 10.892C47.8593 10.892 48.7593 11.66 48.7713 12.812H47.3793C47.3673 12.308 47.0313 11.984 46.4673 11.984C45.8913 11.984 45.5553 12.248 45.5553 12.692C45.5553 13.028 45.8193 13.244 46.3233 13.364L47.3913 13.616C48.3873 13.844 48.8913 14.3 48.8913 15.212C48.8913 16.412 47.8713 17.156 46.4073 17.156C44.9313 17.156 43.9953 16.364 43.9953 15.2ZM52.658 17.156C50.894 17.156 49.658 15.872 49.658 14.036C49.658 12.176 50.87 10.892 52.61 10.892C54.386 10.892 55.514 12.08 55.514 13.928V14.372L51.05 14.384C51.158 15.428 51.71 15.956 52.682 15.956C53.486 15.956 54.014 15.644 54.182 15.08H55.538C55.286 16.376 54.206 17.156 52.658 17.156ZM52.622 12.092C51.758 12.092 51.23 12.56 51.086 13.448H54.062C54.062 12.632 53.498 12.092 52.622 12.092ZM60.4057 11.048V12.404H59.8657C58.8097 12.404 58.1497 12.968 58.1497 14.12V17H56.6857V11.084H58.0657L58.1497 11.948C58.4017 11.36 58.9657 10.964 59.7577 10.964C59.9617 10.964 60.1657 10.988 60.4057 11.048ZM60.951 14.444V13.148H64.815V14.444H60.951ZM65.7688 15.2H67.1608C67.1728 15.716 67.5568 16.04 68.2288 16.04C68.9128 16.04 69.2848 15.764 69.2848 15.332C69.2848 15.032 69.1288 14.816 68.6008 14.696L67.5328 14.444C66.4648 14.204 65.9488 13.7 65.9488 12.752C65.9488 11.588 66.9328 10.892 68.3008 10.892C69.6328 10.892 70.5328 11.66 70.5448 12.812H69.1528C69.1408 12.308 68.8048 11.984 68.2408 11.984C67.6648 11.984 67.3288 12.248 67.3288 12.692C67.3288 13.028 67.5928 13.244 68.0968 13.364L69.1648 13.616C70.1608 13.844 70.6648 14.3 70.6648 15.212C70.6648 16.412 69.6448 17.156 68.1808 17.156C66.7048 17.156 65.7688 16.364 65.7688 15.2ZM71.4314 13.964C71.4314 12.104 72.5354 10.892 74.2034 10.892C75.1034 10.892 75.8834 11.288 76.2434 11.972L76.3394 11.072H77.6834V19.748H76.2314V16.208C75.8594 16.808 75.0794 17.156 74.2034 17.156C72.4394 17.156 71.4314 15.812 71.4314 13.964ZM72.8954 14.036C72.8954 15.092 73.5194 15.836 74.5394 15.836C75.5594 15.836 76.2194 15.104 76.2194 14.036C76.2194 12.968 75.5594 12.224 74.5394 12.224C73.5194 12.224 72.8954 12.98 72.8954 14.036ZM83.2291 11.072H84.6931V17H83.3371L83.2291 16.208C82.8691 16.772 82.1011 17.156 81.3091 17.156C79.9411 17.156 79.1371 16.232 79.1371 14.78V11.072H80.6011V14.264C80.6011 15.392 81.0451 15.848 81.8611 15.848C82.7851 15.848 83.2291 15.308 83.2291 14.18V11.072ZM87.9692 17.156C86.7092 17.156 85.9412 16.424 85.9412 15.308C85.9412 14.216 86.7332 13.532 88.1372 13.424L89.9132 13.292V13.16C89.9132 12.356 89.4332 12.032 88.6892 12.032C87.8252 12.032 87.3452 12.392 87.3452 13.016H86.0972C86.0972 11.732 87.1532 10.892 88.7612 10.892C90.3572 10.892 91.3412 11.756 91.3412 13.4V17H90.0572L89.9492 16.124C89.6972 16.736 88.8932 17.156 87.9692 17.156ZM88.4492 16.052C89.3492 16.052 89.9252 15.512 89.9252 14.6V14.288L88.6892 14.384C87.7772 14.468 87.4292 14.768 87.4292 15.248C87.4292 15.788 87.7892 16.052 88.4492 16.052ZM96.4994 11.048V12.404H95.9594C94.9034 12.404 94.2434 12.968 94.2434 14.12V17H92.7794V11.084H94.1594L94.2434 11.948C94.4954 11.36 95.0594 10.964 95.8514 10.964C96.0554 10.964 96.2594 10.988 96.4994 11.048ZM99.9432 17.156C98.1792 17.156 96.9432 15.872 96.9432 14.036C96.9432 12.176 98.1552 10.892 99.8952 10.892C101.671 10.892 102.799 12.08 102.799 13.928V14.372L98.3352 14.384C98.4432 15.428 98.9952 15.956 99.9672 15.956C100.771 15.956 101.299 15.644 101.467 15.08H102.823C102.571 16.376 101.491 17.156 99.9432 17.156ZM99.9072 12.092C99.0432 12.092 98.5152 12.56 98.3712 13.448H101.347C101.347 12.632 100.783 12.092 99.9072 12.092Z" fill="black"/>
</svg>
