<svg width="154" height="24" viewBox="0 0 154 24" fill="none" xmlns="http://www.w3.org/2000/svg">
<path d="M22 21.25C22 21.66 21.66 22 21.25 22H2.75C2.34 22 2 21.66 2 21.25C2 20.84 2.34 20.5 2.75 20.5H21.25C21.66 20.5 22 20.84 22 21.25Z" fill="#1A1A1A"/>
<path d="M15.3904 4.52001L4.65043 15.26C4.24043 15.67 3.58043 15.67 3.18043 15.26H3.17043C1.78043 13.86 1.78043 11.6 3.17043 10.21L10.3204 3.06001C11.7204 1.66001 13.9804 1.66001 15.3804 3.06001C15.7904 3.45001 15.7904 4.12001 15.3904 4.52001Z" fill="#1A1A1A"/>
<path d="M20.8204 8.48995L17.7704 5.43995C17.3604 5.02995 16.7004 5.02995 16.3004 5.43995L5.56043 16.1799C5.15043 16.5799 5.15043 17.2399 5.56043 17.6499L8.61043 20.7099C10.0104 22.0999 12.2704 22.0999 13.6704 20.7099L20.8104 13.5599C22.2304 12.1599 22.2304 9.88995 20.8204 8.48995ZM12.7604 17.5199L11.5504 18.7399C11.3004 18.9899 10.8904 18.9899 10.6304 18.7399C10.3804 18.4899 10.3804 18.0799 10.6304 17.8199L11.8504 16.5999C12.0904 16.3599 12.5104 16.3599 12.7604 16.5999C13.0104 16.8499 13.0104 17.2799 12.7604 17.5199ZM16.7304 13.5499L14.2904 15.9999C14.0404 16.2399 13.6304 16.2399 13.3704 15.9999C13.1204 15.7499 13.1204 15.3399 13.3704 15.0799L15.8204 12.6299C16.0604 12.3899 16.4804 12.3899 16.7304 12.6299C16.9804 12.8899 16.9804 13.2999 16.7304 13.5499Z" fill="#1A1A1A"/>
<path d="M38.68 16.144C36.124 16.144 34.468 14.368 34.468 11.62C34.468 8.896 36.184 7.084 38.752 7.084C40.828 7.084 42.376 8.296 42.676 10.18H41.056C40.756 9.16 39.88 8.56 38.716 8.56C37.096 8.56 36.076 9.736 36.076 11.608C36.076 13.468 37.108 14.668 38.716 14.668C39.904 14.668 40.816 14.044 41.104 13.072H42.7C42.364 14.92 40.756 16.144 38.68 16.144ZM45.5083 16.156C44.2483 16.156 43.4803 15.424 43.4803 14.308C43.4803 13.216 44.2723 12.532 45.6763 12.424L47.4523 12.292V12.16C47.4523 11.356 46.9723 11.032 46.2283 11.032C45.3643 11.032 44.8843 11.392 44.8843 12.016H43.6363C43.6363 10.732 44.6923 9.892 46.3003 9.892C47.8963 9.892 48.8803 10.756 48.8803 12.4V16H47.5963L47.4883 15.124C47.2363 15.736 46.4323 16.156 45.5083 16.156ZM45.9883 15.052C46.8883 15.052 47.4643 14.512 47.4643 13.6V13.288L46.2283 13.384C45.3163 13.468 44.9683 13.768 44.9683 14.248C44.9683 14.788 45.3283 15.052 45.9883 15.052ZM54.0385 10.048V11.404H53.4985C52.4425 11.404 51.7825 11.968 51.7825 13.12V16H50.3185V10.084H51.6985L51.7825 10.948C52.0345 10.36 52.5985 9.964 53.3905 9.964C53.5945 9.964 53.7985 9.988 54.0385 10.048ZM57.2662 16.156C55.5502 16.156 54.4822 14.896 54.4822 13.06C54.4822 11.212 55.5622 9.892 57.3502 9.892C58.1782 9.892 58.9102 10.24 59.2822 10.828V7.072H60.7342V16H59.3902L59.2942 15.076C58.9342 15.76 58.1662 16.156 57.2662 16.156ZM57.5902 14.812C58.6102 14.812 59.2702 14.08 59.2702 13.012C59.2702 11.944 58.6102 11.2 57.5902 11.2C56.5702 11.2 55.9462 11.956 55.9462 13.012C55.9462 14.068 56.5702 14.812 57.5902 14.812ZM62.2479 13.444V12.148H66.1119V13.444H62.2479ZM67.6037 18.748V10.072H68.9597L69.0557 10.972C69.4157 10.288 70.1957 9.892 71.0957 9.892C72.7637 9.892 73.8677 11.104 73.8677 12.964C73.8677 14.812 72.8597 16.156 71.0957 16.156C70.2077 16.156 69.4397 15.808 69.0677 15.208V18.748H67.6037ZM69.0797 13.036C69.0797 14.104 69.7397 14.836 70.7477 14.836C71.7797 14.836 72.3917 14.092 72.3917 13.036C72.3917 11.98 71.7797 11.224 70.7477 11.224C69.7397 11.224 69.0797 11.968 69.0797 13.036ZM74.6853 13.024C74.6853 11.176 76.0173 9.904 77.8533 9.904C79.6893 9.904 81.0213 11.176 81.0213 13.024C81.0213 14.872 79.6893 16.144 77.8533 16.144C76.0173 16.144 74.6853 14.872 74.6853 13.024ZM76.1493 13.024C76.1493 14.104 76.8453 14.836 77.8533 14.836C78.8613 14.836 79.5573 14.104 79.5573 13.024C79.5573 11.944 78.8613 11.212 77.8533 11.212C76.8453 11.212 76.1493 11.944 76.1493 13.024ZM81.7258 14.2H83.1178C83.1298 14.716 83.5138 15.04 84.1858 15.04C84.8698 15.04 85.2418 14.764 85.2418 14.332C85.2418 14.032 85.0858 13.816 84.5578 13.696L83.4898 13.444C82.4218 13.204 81.9058 12.7 81.9058 11.752C81.9058 10.588 82.8898 9.892 84.2578 9.892C85.5898 9.892 86.4898 10.66 86.5018 11.812H85.1098C85.0978 11.308 84.7618 10.984 84.1978 10.984C83.6218 10.984 83.2858 11.248 83.2858 11.692C83.2858 12.028 83.5498 12.244 84.0538 12.364L85.1218 12.616C86.1178 12.844 86.6218 13.3 86.6218 14.212C86.6218 15.412 85.6018 16.156 84.1378 16.156C82.6618 16.156 81.7258 15.364 81.7258 14.2Z" fill="black"/>
</svg>
