<svg width="110" height="24" viewBox="0 0 110 24" fill="none" xmlns="http://www.w3.org/2000/svg">
<path d="M9.66984 13.92C8.92984 13.92 8.33984 14.52 8.33984 15.26C8.33984 16 8.93984 16.59 9.66984 16.59C10.4098 16.59 11.0098 15.99 11.0098 15.26C11.0098 14.52 10.4098 13.92 9.66984 13.92Z" fill="#1A1A1A"/>
<path d="M16.19 2H7.81C4.17 2 2 4.17 2 7.81V16.18C2 19.83 4.17 22 7.81 22H16.18C19.82 22 21.99 19.83 21.99 16.19V7.81C22 4.17 19.83 2 16.19 2ZM17.12 9.8C17.12 10.41 16.86 10.95 16.42 11.27C16.14 11.47 15.8 11.58 15.44 11.58C15.23 11.58 15.02 11.54 14.8 11.47L12.51 10.71C12.5 10.71 12.48 10.7 12.47 10.69V15.25C12.47 16.79 11.21 18.05 9.67 18.05C8.13 18.05 6.87 16.79 6.87 15.25C6.87 13.71 8.13 12.45 9.67 12.45C10.16 12.45 10.61 12.59 11.01 12.8V8.63V8.02C11.01 7.41 11.27 6.87 11.71 6.55C12.16 6.23 12.75 6.15 13.33 6.35L15.62 7.11C16.48 7.4 17.13 8.3 17.13 9.2V9.8H17.12Z" fill="#1A1A1A"/>
<path d="M35.728 17H34.132L37.3 8.228H38.872L42.04 17H40.42L39.712 14.972H36.436L35.728 17ZM37.888 10.844L36.892 13.676H39.268L38.26 10.844C38.188 10.616 38.104 10.352 38.08 10.172C38.044 10.34 37.972 10.604 37.888 10.844ZM46.7213 11.072H48.1853V17H46.8293L46.7213 16.208C46.3613 16.772 45.5933 17.156 44.8013 17.156C43.4333 17.156 42.6293 16.232 42.6293 14.78V11.072H44.0933V14.264C44.0933 15.392 44.5373 15.848 45.3533 15.848C46.2773 15.848 46.7213 15.308 46.7213 14.18V11.072ZM52.0162 17.156C50.3002 17.156 49.2322 15.896 49.2322 14.06C49.2322 12.212 50.3122 10.892 52.1002 10.892C52.9282 10.892 53.6602 11.24 54.0322 11.828V8.072H55.4842V17H54.1402L54.0442 16.076C53.6842 16.76 52.9162 17.156 52.0162 17.156ZM52.3402 15.812C53.3602 15.812 54.0202 15.08 54.0202 14.012C54.0202 12.944 53.3602 12.2 52.3402 12.2C51.3202 12.2 50.6962 12.956 50.6962 14.012C50.6962 15.068 51.3202 15.812 52.3402 15.812ZM57.7419 9.884C57.2379 9.884 56.8419 9.488 56.8419 8.996C56.8419 8.504 57.2379 8.12 57.7419 8.12C58.2219 8.12 58.6179 8.504 58.6179 8.996C58.6179 9.488 58.2219 9.884 57.7419 9.884ZM57.0099 17V11.072H58.4739V17H57.0099ZM59.6385 14.024C59.6385 12.176 60.9705 10.904 62.8065 10.904C64.6425 10.904 65.9745 12.176 65.9745 14.024C65.9745 15.872 64.6425 17.144 62.8065 17.144C60.9705 17.144 59.6385 15.872 59.6385 14.024ZM61.1025 14.024C61.1025 15.104 61.7985 15.836 62.8065 15.836C63.8145 15.836 64.5105 15.104 64.5105 14.024C64.5105 12.944 63.8145 12.212 62.8065 12.212C61.7985 12.212 61.1025 12.944 61.1025 14.024ZM67.1229 14.444V13.148H70.9869V14.444H67.1229ZM71.9406 15.2H73.3326C73.3446 15.716 73.7286 16.04 74.4006 16.04C75.0846 16.04 75.4566 15.764 75.4566 15.332C75.4566 15.032 75.3006 14.816 74.7726 14.696L73.7046 14.444C72.6366 14.204 72.1206 13.7 72.1206 12.752C72.1206 11.588 73.1046 10.892 74.4726 10.892C75.8046 10.892 76.7046 11.66 76.7166 12.812H75.3246C75.3126 12.308 74.9766 11.984 74.4126 11.984C73.8366 11.984 73.5006 12.248 73.5006 12.692C73.5006 13.028 73.7646 13.244 74.2686 13.364L75.3366 13.616C76.3326 13.844 76.8366 14.3 76.8366 15.212C76.8366 16.412 75.8166 17.156 74.3526 17.156C72.8766 17.156 71.9406 16.364 71.9406 15.2ZM77.6033 13.964C77.6033 12.104 78.7073 10.892 80.3753 10.892C81.2753 10.892 82.0553 11.288 82.4153 11.972L82.5113 11.072H83.8553V19.748H82.4033V16.208C82.0313 16.808 81.2513 17.156 80.3753 17.156C78.6113 17.156 77.6033 15.812 77.6033 13.964ZM79.0673 14.036C79.0673 15.092 79.6913 15.836 80.7113 15.836C81.7313 15.836 82.3913 15.104 82.3913 14.036C82.3913 12.968 81.7313 12.224 80.7113 12.224C79.6913 12.224 79.0673 12.98 79.0673 14.036ZM89.401 11.072H90.865V17H89.509L89.401 16.208C89.041 16.772 88.273 17.156 87.481 17.156C86.113 17.156 85.309 16.232 85.309 14.78V11.072H86.773V14.264C86.773 15.392 87.217 15.848 88.033 15.848C88.957 15.848 89.401 15.308 89.401 14.18V11.072ZM94.1411 17.156C92.8811 17.156 92.1131 16.424 92.1131 15.308C92.1131 14.216 92.9051 13.532 94.3091 13.424L96.0851 13.292V13.16C96.0851 12.356 95.6051 12.032 94.8611 12.032C93.9971 12.032 93.5171 12.392 93.5171 13.016H92.2691C92.2691 11.732 93.3251 10.892 94.9331 10.892C96.5291 10.892 97.5131 11.756 97.5131 13.4V17H96.2291L96.1211 16.124C95.8691 16.736 95.0651 17.156 94.1411 17.156ZM94.6211 16.052C95.5211 16.052 96.0971 15.512 96.0971 14.6V14.288L94.8611 14.384C93.9491 14.468 93.6011 14.768 93.6011 15.248C93.6011 15.788 93.9611 16.052 94.6211 16.052ZM102.671 11.048V12.404H102.131C101.075 12.404 100.415 12.968 100.415 14.12V17H98.9513V11.084H100.331L100.415 11.948C100.667 11.36 101.231 10.964 102.023 10.964C102.227 10.964 102.431 10.988 102.671 11.048ZM106.115 17.156C104.351 17.156 103.115 15.872 103.115 14.036C103.115 12.176 104.327 10.892 106.067 10.892C107.843 10.892 108.971 12.08 108.971 13.928V14.372L104.507 14.384C104.615 15.428 105.167 15.956 106.139 15.956C106.943 15.956 107.471 15.644 107.639 15.08H108.995C108.743 16.376 107.663 17.156 106.115 17.156ZM106.079 12.092C105.215 12.092 104.687 12.56 104.543 13.448H107.519C107.519 12.632 106.955 12.092 106.079 12.092Z" fill="black"/>
</svg>
