<svg width="200" height="24" viewBox="0 0 200 24" fill="none" xmlns="http://www.w3.org/2000/svg">
<path d="M21 7.52V13.4C21 13.74 20.67 13.98 20.35 13.88L16.42 12.66C15.34 12.33 14.18 12.61 13.39 13.4C12.59 14.2 12.3 15.37 12.64 16.45L13.85 20.35C13.95 20.67 13.71 21 13.37 21H7.52C4.07 21 2 18.94 2 15.48V7.52C2 4.06 4.07 2 7.52 2H15.48C18.93 2 21 4.06 21 7.52Z" fill="#1A1A1A"/>
<path d="M21.96 18.84L20.33 19.39C19.88 19.54 19.5201 19.89 19.37 20.35L18.82 21.98C18.35 23.39 16.37 23.36 15.93 21.95L14.08 16C13.72 14.82 14.81 13.72 15.98 14.09L21.94 15.94C23.34 16.38 23.36 18.37 21.96 18.84Z" fill="#1A1A1A"/>
<path d="M36.46 17H34.972V8.228H36.46L39.292 15.212L42.124 8.228H43.636V17H42.148V14.3C42.148 12.536 42.148 12.02 42.232 11.396L40 17H38.584L36.364 11.408C36.448 11.936 36.46 12.764 36.46 13.856V17ZM45.0135 14.024C45.0135 12.176 46.3455 10.904 48.1815 10.904C50.0175 10.904 51.3495 12.176 51.3495 14.024C51.3495 15.872 50.0175 17.144 48.1815 17.144C46.3455 17.144 45.0135 15.872 45.0135 14.024ZM46.4775 14.024C46.4775 15.104 47.1735 15.836 48.1815 15.836C49.1895 15.836 49.8855 15.104 49.8855 14.024C49.8855 12.944 49.1895 12.212 48.1815 12.212C47.1735 12.212 46.4775 12.944 46.4775 14.024ZM56.3893 11.072H57.8533V17H56.4973L56.3893 16.208C56.0293 16.772 55.2613 17.156 54.4693 17.156C53.1013 17.156 52.2973 16.232 52.2973 14.78V11.072H53.7613V14.264C53.7613 15.392 54.2053 15.848 55.0213 15.848C55.9453 15.848 56.3893 15.308 56.3893 14.18V11.072ZM58.7922 15.2H60.1842C60.1962 15.716 60.5802 16.04 61.2522 16.04C61.9362 16.04 62.3082 15.764 62.3082 15.332C62.3082 15.032 62.1522 14.816 61.6242 14.696L60.5562 14.444C59.4882 14.204 58.9722 13.7 58.9722 12.752C58.9722 11.588 59.9562 10.892 61.3242 10.892C62.6562 10.892 63.5562 11.66 63.5682 12.812H62.1762C62.1642 12.308 61.8282 11.984 61.2642 11.984C60.6882 11.984 60.3522 12.248 60.3522 12.692C60.3522 13.028 60.6162 13.244 61.1202 13.364L62.1882 13.616C63.1842 13.844 63.6882 14.3 63.6882 15.212C63.6882 16.412 62.6682 17.156 61.2042 17.156C59.7282 17.156 58.7922 16.364 58.7922 15.2ZM67.4549 17.156C65.6909 17.156 64.4549 15.872 64.4549 14.036C64.4549 12.176 65.6669 10.892 67.4069 10.892C69.1829 10.892 70.3109 12.08 70.3109 13.928V14.372L65.8469 14.384C65.9549 15.428 66.5069 15.956 67.4789 15.956C68.2829 15.956 68.8109 15.644 68.9789 15.08H70.3349C70.0829 16.376 69.0029 17.156 67.4549 17.156ZM67.4189 12.092C66.5549 12.092 66.0269 12.56 65.8829 13.448H68.8589C68.8589 12.632 68.2949 12.092 67.4189 12.092ZM71.4706 14.444V13.148H75.3346V14.444H71.4706ZM76.2883 15.2H77.6803C77.6923 15.716 78.0763 16.04 78.7483 16.04C79.4323 16.04 79.8043 15.764 79.8043 15.332C79.8043 15.032 79.6483 14.816 79.1203 14.696L78.0523 14.444C76.9843 14.204 76.4683 13.7 76.4683 12.752C76.4683 11.588 77.4523 10.892 78.8203 10.892C80.1523 10.892 81.0523 11.66 81.0643 12.812H79.6723C79.6603 12.308 79.3243 11.984 78.7603 11.984C78.1843 11.984 77.8483 12.248 77.8483 12.692C77.8483 13.028 78.1123 13.244 78.6163 13.364L79.6843 13.616C80.6803 13.844 81.1843 14.3 81.1843 15.212C81.1843 16.412 80.1643 17.156 78.7003 17.156C77.2243 17.156 76.2883 16.364 76.2883 15.2ZM81.951 13.964C81.951 12.104 83.055 10.892 84.723 10.892C85.623 10.892 86.403 11.288 86.763 11.972L86.859 11.072H88.203V19.748H86.751V16.208C86.379 16.808 85.599 17.156 84.723 17.156C82.959 17.156 81.951 15.812 81.951 13.964ZM83.415 14.036C83.415 15.092 84.039 15.836 85.059 15.836C86.079 15.836 86.739 15.104 86.739 14.036C86.739 12.968 86.079 12.224 85.059 12.224C84.039 12.224 83.415 12.98 83.415 14.036ZM93.7487 11.072H95.2127V17H93.8567L93.7487 16.208C93.3887 16.772 92.6207 17.156 91.8287 17.156C90.4607 17.156 89.6567 16.232 89.6567 14.78V11.072H91.1207V14.264C91.1207 15.392 91.5647 15.848 92.3807 15.848C93.3047 15.848 93.7487 15.308 93.7487 14.18V11.072ZM98.4888 17.156C97.2288 17.156 96.4608 16.424 96.4608 15.308C96.4608 14.216 97.2528 13.532 98.6568 13.424L100.433 13.292V13.16C100.433 12.356 99.9528 12.032 99.2088 12.032C98.3448 12.032 97.8648 12.392 97.8648 13.016H96.6168C96.6168 11.732 97.6728 10.892 99.2808 10.892C100.877 10.892 101.861 11.756 101.861 13.4V17H100.577L100.469 16.124C100.217 16.736 99.4128 17.156 98.4888 17.156ZM98.9688 16.052C99.8688 16.052 100.445 15.512 100.445 14.6V14.288L99.2088 14.384C98.2968 14.468 97.9488 14.768 97.9488 15.248C97.9488 15.788 98.3088 16.052 98.9688 16.052ZM107.019 11.048V12.404H106.479C105.423 12.404 104.763 12.968 104.763 14.12V17H103.299V11.084H104.679L104.763 11.948C105.015 11.36 105.579 10.964 106.371 10.964C106.575 10.964 106.779 10.988 107.019 11.048ZM110.463 17.156C108.699 17.156 107.463 15.872 107.463 14.036C107.463 12.176 108.675 10.892 110.415 10.892C112.191 10.892 113.319 12.08 113.319 13.928V14.372L108.855 14.384C108.963 15.428 109.515 15.956 110.487 15.956C111.291 15.956 111.819 15.644 111.987 15.08H113.343C113.091 16.376 112.011 17.156 110.463 17.156ZM110.427 12.092C109.563 12.092 109.035 12.56 108.891 13.448H111.867C111.867 12.632 111.303 12.092 110.427 12.092Z" fill="black"/>
</svg>
