<svg width="200" height="24" viewBox="0 0 200 24" fill="none" xmlns="http://www.w3.org/2000/svg">
<path d="M19.0899 12.59C18.9299 12.59 18.7699 12.54 18.6299 12.43C14.5999 9.32002 9.38993 9.32002 5.35993 12.43C5.02993 12.68 4.55993 12.62 4.30993 12.3C4.05993 11.97 4.11993 11.5 4.43993 11.25C9.02993 7.70002 14.9599 7.70002 19.5399 11.25C19.8699 11.5 19.9299 11.97 19.6699 12.3C19.5399 12.49 19.3199 12.59 19.0899 12.59Z" fill="#1A1A1A"/>
<path d="M22 9.11002C21.84 9.11002 21.68 9.06002 21.54 8.95002C15.74 4.47002 8.25001 4.47002 2.46001 8.95002C2.13001 9.20002 1.66001 9.14002 1.41001 8.82002C1.15001 8.50002 1.21001 8.02002 1.54001 7.77002C7.89001 2.86002 16.1 2.86002 22.46 7.77002C22.79 8.02002 22.85 8.49002 22.59 8.82002C22.45 9.01002 22.22 9.11002 22 9.11002Z" fill="#1A1A1A"/>
<path d="M17.2101 16.24C17.0501 16.24 16.8901 16.19 16.7501 16.08C13.8701 13.85 10.1401 13.85 7.25007 16.08C6.92007 16.33 6.45007 16.27 6.20007 15.95C5.95007 15.62 6.01007 15.15 6.33007 14.9C9.77007 12.24 14.2201 12.24 17.6601 14.9C17.9901 15.15 18.0501 15.62 17.7901 15.95C17.6501 16.14 17.4301 16.24 17.2101 16.24Z" fill="#1A1A1A"/>
<path d="M14.5999 19.9C14.4399 19.9 14.2799 19.85 14.1399 19.74C12.8399 18.73 11.1499 18.73 9.84992 19.74C9.51992 19.99 9.04992 19.93 8.79992 19.61C8.54992 19.28 8.60992 18.81 8.92992 18.56C10.7899 17.12 13.1899 17.12 15.0499 18.56C15.3799 18.81 15.4399 19.28 15.1799 19.61C15.0499 19.79 14.8299 19.9 14.5999 19.9Z" fill="#1A1A1A"/>
<path d="M36.796 16L34.18 7.228H35.776L37.168 11.86C37.3 12.34 37.432 12.832 37.564 13.6C37.708 12.82 37.84 12.364 37.996 11.86L39.376 7.228H41.068L42.424 11.86C42.568 12.352 42.7 12.856 42.844 13.6C43.012 12.784 43.132 12.316 43.264 11.872L44.68 7.228H46.24L43.576 16H42.088L40.216 9.616L38.308 16H36.796ZM47.9099 8.884C47.4059 8.884 47.0099 8.488 47.0099 7.996C47.0099 7.504 47.4059 7.12 47.9099 7.12C48.3899 7.12 48.7859 7.504 48.7859 7.996C48.7859 8.488 48.3899 8.884 47.9099 8.884ZM47.1779 16V10.072H48.6419V16H47.1779ZM54.2944 16V11.296H51.8704V16H50.4184V11.296H49.5664V10.072H50.4184V9.352C50.4184 7.744 51.2584 7.072 52.4584 7.072C52.6864 7.072 52.9624 7.084 53.2144 7.132V8.38H52.6984C52.0384 8.38 51.8704 8.764 51.8704 9.352V10.072H55.7584V16H54.2944ZM55.0264 8.86C54.5344 8.86 54.1504 8.476 54.1504 7.984C54.1504 7.504 54.5344 7.12 55.0264 7.12C55.5064 7.12 55.8904 7.504 55.8904 7.984C55.8904 8.476 55.5064 8.86 55.0264 8.86Z" fill="black"/>
</svg>
