<svg width="100" height="24" viewBox="0 0 100 24" fill="none" xmlns="http://www.w3.org/2000/svg">
<path d="M19.9 13.5H4.1C2.6 13.5 2 14.14 2 15.73V19.77C2 21.36 2.6 22 4.1 22H19.9C21.4 22 22 21.36 22 19.77V15.73C22 14.14 21.4 13.5 19.9 13.5Z" fill="#1A1A1A"/>
<path d="M12.9 2H4.1C2.6 2 2 2.64 2 4.23V8.27C2 9.86 2.6 10.5 4.1 10.5H12.9C14.4 10.5 15 9.86 15 8.27V4.23C15 2.64 14.4 2 12.9 2Z" fill="#1A1A1A"/>
<path d="M38.772 12.412H35.508V16H33.972V7.228H39.396V8.644H35.508V11.032H38.772V12.412ZM41.8481 16.156C40.5881 16.156 39.8201 15.424 39.8201 14.308C39.8201 13.216 40.6121 12.532 42.0161 12.424L43.7921 12.292V12.16C43.7921 11.356 43.3121 11.032 42.5681 11.032C41.7041 11.032 41.2241 11.392 41.2241 12.016H39.9761C39.9761 10.732 41.0321 9.892 42.6401 9.892C44.2361 9.892 45.2201 10.756 45.2201 12.4V16H43.9361L43.8281 15.124C43.5761 15.736 42.7721 16.156 41.8481 16.156ZM42.3281 15.052C43.2281 15.052 43.8041 14.512 43.8041 13.6V13.288L42.5681 13.384C41.6561 13.468 41.3081 13.768 41.3081 14.248C41.3081 14.788 41.6681 15.052 42.3281 15.052ZM48.5923 16H47.1283V11.296H45.9883V10.072H47.1283V8.224H48.5923V10.072H49.7443V11.296H48.5923V16ZM54.3744 10.048V11.404H53.8344C52.7784 11.404 52.1184 11.968 52.1184 13.12V16H50.6544V10.084H52.0344L52.1184 10.948C52.3704 10.36 52.9344 9.964 53.7264 9.964C53.9304 9.964 54.1344 9.988 54.3744 10.048ZM54.8182 13.024C54.8182 11.176 56.1502 9.904 57.9862 9.904C59.8222 9.904 61.1542 11.176 61.1542 13.024C61.1542 14.872 59.8222 16.144 57.9862 16.144C56.1502 16.144 54.8182 14.872 54.8182 13.024ZM56.2822 13.024C56.2822 14.104 56.9782 14.836 57.9862 14.836C58.9942 14.836 59.6902 14.104 59.6902 13.024C59.6902 11.944 58.9942 11.212 57.9862 11.212C56.9782 11.212 56.2822 11.944 56.2822 13.024ZM63.3296 16L61.4096 10.072H62.9336L63.7136 12.616C63.8456 13.084 63.9656 13.6 64.0736 14.152C64.1816 13.576 64.2896 13.204 64.4816 12.616L65.2976 10.072H66.7856L67.5776 12.616C67.6496 12.856 67.8896 13.744 67.9616 14.14C68.0576 13.696 68.2496 12.988 68.3576 12.616L69.1496 10.072H70.6976L68.6456 16H67.2776L66.4616 13.432C66.2216 12.652 66.0896 12.088 66.0416 11.788C65.9816 12.064 65.8736 12.484 65.5736 13.456L64.7576 16H63.3296ZM70.9992 14.2H72.3912C72.4032 14.716 72.7872 15.04 73.4592 15.04C74.1432 15.04 74.5152 14.764 74.5152 14.332C74.5152 14.032 74.3592 13.816 73.8312 13.696L72.7632 13.444C71.6952 13.204 71.1792 12.7 71.1792 11.752C71.1792 10.588 72.1632 9.892 73.5312 9.892C74.8632 9.892 75.7632 10.66 75.7752 11.812H74.3832C74.3712 11.308 74.0352 10.984 73.4712 10.984C72.8952 10.984 72.5592 11.248 72.5592 11.692C72.5592 12.028 72.8232 12.244 73.3272 12.364L74.3952 12.616C75.3912 12.844 75.8952 13.3 75.8952 14.212C75.8952 15.412 74.8752 16.156 73.4112 16.156C71.9352 16.156 70.9992 15.364 70.9992 14.2Z" fill="black"/>
</svg>
