<svg width="127" height="24" viewBox="0 0 127 24" fill="none" xmlns="http://www.w3.org/2000/svg">
<path d="M18 4H15.75V2.75C15.75 2.34 15.41 2 15 2C14.59 2 14.25 2.34 14.25 2.75V21.25C14.25 21.66 14.59 22 15 22C15.41 22 15.75 21.66 15.75 21.25V20H18C20.21 20 22 18.21 22 16V8C22 5.79 20.21 4 18 4Z" fill="#1A1A1A"/>
<path d="M6.5 4C4.29 4 2.5 5.79 2.5 8V16C2.5 18.21 4.29 20 6.5 20H11.5C12.05 20 12.5 19.55 12.5 19V5C12.5 4.45 12.05 4 11.5 4H6.5ZM6.67 12.38C6.62 12.5 6.55 12.61 6.46 12.71C6.36 12.8 6.25 12.87 6.13 12.92C6.01 12.97 5.88 13 5.75 13C5.62 13 5.49 12.97 5.37 12.92C5.25 12.87 5.14 12.8 5.04 12.71C4.95 12.61 4.88 12.5 4.82 12.38C4.77 12.26 4.75 12.13 4.75 12C4.75 11.74 4.86 11.48 5.04 11.29C5.09 11.25 5.14 11.21 5.19 11.17C5.25 11.13 5.31 11.1 5.37 11.08C5.43 11.05 5.49 11.03 5.55 11.02C5.89 10.95 6.23 11.06 6.46 11.29C6.64 11.48 6.75 11.74 6.75 12C6.75 12.13 6.72 12.26 6.67 12.38ZM10.17 12.38C10.12 12.5 10.05 12.61 9.96 12.71C9.86 12.8 9.75 12.87 9.63 12.92C9.51 12.97 9.38 13 9.25 13C9.12 13 8.99 12.97 8.87 12.92C8.75 12.87 8.64 12.8 8.54 12.71C8.35 12.52 8.25 12.27 8.25 12C8.25 11.87 8.28 11.74 8.33 11.62C8.38 11.49 8.45 11.39 8.54 11.29C8.91 10.92 9.58 10.92 9.96 11.29C10.14 11.48 10.25 11.74 10.25 12C10.25 12.13 10.22 12.26 10.17 12.38Z" fill="#1A1A1A"/>
<path d="M38.44 13.976H36.508V17H34.972V8.228H38.44C40.204 8.228 41.344 9.38 41.344 11.096C41.344 12.788 40.192 13.976 38.44 13.976ZM38.14 9.596H36.508V12.608H38.116C39.172 12.608 39.736 12.044 39.736 11.084C39.736 10.124 39.16 9.596 38.14 9.596ZM43.9497 17.156C42.6897 17.156 41.9217 16.424 41.9217 15.308C41.9217 14.216 42.7137 13.532 44.1177 13.424L45.8937 13.292V13.16C45.8937 12.356 45.4137 12.032 44.6697 12.032C43.8057 12.032 43.3257 12.392 43.3257 13.016H42.0777C42.0777 11.732 43.1337 10.892 44.7417 10.892C46.3377 10.892 47.3217 11.756 47.3217 13.4V17H46.0377L45.9297 16.124C45.6777 16.736 44.8737 17.156 43.9497 17.156ZM44.4297 16.052C45.3297 16.052 45.9057 15.512 45.9057 14.6V14.288L44.6697 14.384C43.7577 14.468 43.4097 14.768 43.4097 15.248C43.4097 15.788 43.7697 16.052 44.4297 16.052ZM48.3039 15.2H49.6959C49.7079 15.716 50.0919 16.04 50.7639 16.04C51.4479 16.04 51.8199 15.764 51.8199 15.332C51.8199 15.032 51.6639 14.816 51.1359 14.696L50.0679 14.444C48.9999 14.204 48.4839 13.7 48.4839 12.752C48.4839 11.588 49.4679 10.892 50.8359 10.892C52.1679 10.892 53.0679 11.66 53.0799 12.812H51.6879C51.6759 12.308 51.3399 11.984 50.7759 11.984C50.1999 11.984 49.8639 12.248 49.8639 12.692C49.8639 13.028 50.1279 13.244 50.6319 13.364L51.6999 13.616C52.6959 13.844 53.1999 14.3 53.1999 15.212C53.1999 16.412 52.1799 17.156 50.7159 17.156C49.2399 17.156 48.3039 16.364 48.3039 15.2ZM53.8586 15.2H55.2506C55.2626 15.716 55.6466 16.04 56.3186 16.04C57.0026 16.04 57.3746 15.764 57.3746 15.332C57.3746 15.032 57.2186 14.816 56.6906 14.696L55.6226 14.444C54.5546 14.204 54.0386 13.7 54.0386 12.752C54.0386 11.588 55.0226 10.892 56.3906 10.892C57.7226 10.892 58.6226 11.66 58.6346 12.812H57.2426C57.2306 12.308 56.8946 11.984 56.3306 11.984C55.7546 11.984 55.4186 12.248 55.4186 12.692C55.4186 13.028 55.6826 13.244 56.1866 13.364L57.2546 13.616C58.2506 13.844 58.7546 14.3 58.7546 15.212C58.7546 16.412 57.7346 17.156 56.2706 17.156C54.7946 17.156 53.8586 16.364 53.8586 15.2ZM61.0132 17L59.0932 11.072H60.6172L61.3972 13.616C61.5292 14.084 61.6492 14.6 61.7572 15.152C61.8652 14.576 61.9732 14.204 62.1652 13.616L62.9812 11.072H64.4692L65.2612 13.616C65.3332 13.856 65.5732 14.744 65.6452 15.14C65.7412 14.696 65.9332 13.988 66.0412 13.616L66.8332 11.072H68.3812L66.3292 17H64.9612L64.1452 14.432C63.9052 13.652 63.7732 13.088 63.7252 12.788C63.6652 13.064 63.5572 13.484 63.2572 14.456L62.4412 17H61.0132ZM68.6268 14.024C68.6268 12.176 69.9588 10.904 71.7948 10.904C73.6308 10.904 74.9628 12.176 74.9628 14.024C74.9628 15.872 73.6308 17.144 71.7948 17.144C69.9588 17.144 68.6268 15.872 68.6268 14.024ZM70.0908 14.024C70.0908 15.104 70.7868 15.836 71.7948 15.836C72.8028 15.836 73.4988 15.104 73.4988 14.024C73.4988 12.944 72.8028 12.212 71.7948 12.212C70.7868 12.212 70.0908 12.944 70.0908 14.024ZM79.8432 11.048V12.404H79.3032C78.2472 12.404 77.5872 12.968 77.5872 14.12V17H76.1232V11.084H77.5032L77.5872 11.948C77.8392 11.36 78.4032 10.964 79.1952 10.964C79.3992 10.964 79.6032 10.988 79.8432 11.048ZM83.0709 17.156C81.3549 17.156 80.2869 15.896 80.2869 14.06C80.2869 12.212 81.3669 10.892 83.1549 10.892C83.9829 10.892 84.7149 11.24 85.0869 11.828V8.072H86.5389V17H85.1949L85.0989 16.076C84.7389 16.76 83.9709 17.156 83.0709 17.156ZM83.3949 15.812C84.4149 15.812 85.0749 15.08 85.0749 14.012C85.0749 12.944 84.4149 12.2 83.3949 12.2C82.3749 12.2 81.7509 12.956 81.7509 14.012C81.7509 15.068 82.3749 15.812 83.3949 15.812ZM88.0526 14.444V13.148H91.9166V14.444H88.0526ZM93.0603 14.024C93.0603 12.188 94.2723 10.892 96.0243 10.892C97.6443 10.892 98.7483 11.792 98.9043 13.22H97.4403C97.2723 12.548 96.7803 12.2 96.0843 12.2C95.1483 12.2 94.5243 12.908 94.5243 14.024C94.5243 15.14 95.1003 15.836 96.0363 15.836C96.7683 15.836 97.2843 15.476 97.4403 14.828H98.9163C98.7363 16.208 97.5843 17.156 96.0363 17.156C94.2363 17.156 93.0603 15.908 93.0603 14.024ZM101.47 17H100.006V8.072H101.482V11.84C101.854 11.264 102.55 10.892 103.402 10.892C104.866 10.892 105.634 11.816 105.634 13.352V17H104.17V13.7C104.17 12.704 103.678 12.224 102.934 12.224C102.01 12.224 101.47 12.872 101.47 13.76V17ZM109.724 17.156C107.96 17.156 106.724 15.872 106.724 14.036C106.724 12.176 107.936 10.892 109.676 10.892C111.452 10.892 112.58 12.08 112.58 13.928V14.372L108.116 14.384C108.224 15.428 108.776 15.956 109.748 15.956C110.552 15.956 111.08 15.644 111.248 15.08H112.604C112.352 16.376 111.272 17.156 109.724 17.156ZM109.688 12.092C108.824 12.092 108.296 12.56 108.152 13.448H111.128C111.128 12.632 110.564 12.092 109.688 12.092ZM113.404 14.024C113.404 12.188 114.616 10.892 116.368 10.892C117.988 10.892 119.092 11.792 119.248 13.22H117.784C117.616 12.548 117.124 12.2 116.428 12.2C115.492 12.2 114.868 12.908 114.868 14.024C114.868 15.14 115.444 15.836 116.38 15.836C117.112 15.836 117.628 15.476 117.784 14.828H119.26C119.08 16.208 117.928 17.156 116.38 17.156C114.58 17.156 113.404 15.908 113.404 14.024ZM121.826 17H120.374V8.072H121.826V13.556L124.13 11.072H125.966L123.71 13.424L125.918 17H124.238L122.69 14.504L121.826 15.404V17Z" fill="black"/>
</svg>
