<svg width="121" height="24" viewBox="0 0 121 24" fill="none" xmlns="http://www.w3.org/2000/svg">
<path d="M9.00012 10.38C10.3146 10.38 11.3801 9.31443 11.3801 8C11.3801 6.68556 10.3146 5.62 9.00012 5.62C7.68568 5.62 6.62012 6.68556 6.62012 8C6.62012 9.31443 7.68568 10.38 9.00012 10.38Z" fill="#1A1A1A"/>
<path d="M20.97 8H20.5V12.61L20.37 12.5C19.59 11.83 18.33 11.83 17.55 12.5L13.39 16.07C12.61 16.74 11.35 16.74 10.57 16.07L10.23 15.79C9.52 15.17 8.39 15.11 7.59 15.65L3.85 18.16C3.63 17.6 3.5 16.95 3.5 16.19V7.81C3.5 4.99 4.99 3.5 7.81 3.5H16V3.03C16 2.63 16.07 2.29 16.23 2H7.81C4.17 2 2 4.17 2 7.81V16.19C2 17.28 2.19 18.23 2.56 19.03C3.42 20.93 5.26 22 7.81 22H16.19C19.83 22 22 19.83 22 16.19V7.77C21.71 7.93 21.37 8 20.97 8Z" fill="#1A1A1A"/>
<path d="M20.97 1H18.03C17.16 1 16.52 1.36 16.23 2C16.07 2.29 16 2.63 16 3.03V3.5V5.97C16 7.24 16.76 8 18.03 8H20.5H20.97C21.37 8 21.71 7.93 22 7.77C22.64 7.48 23 6.84 23 5.97V3.03C23 1.76 22.24 1 20.97 1ZM20.3 6.21C19.98 6.4 19.67 6.5 19.5 6.5C19.05 6.5 17.77 5.88 17.39 4.68C17.33 4.5 17.3 4.3 17.3 4.11C17.3 3.94 17.32 3.77 17.37 3.61C17.5 3.14 17.81 2.73 18.33 2.56C18.53 2.5 18.74 2.48 18.93 2.52C19.13 2.55 19.32 2.63 19.49 2.76C19.81 2.51 20.25 2.43 20.67 2.56C21.58 2.86 21.87 3.89 21.61 4.68C21.57 4.8 21.52 4.92 21.46 5.03C21.19 5.57 20.73 5.97 20.3 6.21Z" fill="#1A1A1A"/>
<path d="M38.812 9.524C37.072 9.524 36.076 10.784 36.076 12.68C36.076 14.636 37.204 15.704 38.824 15.704C40.348 15.704 41.272 14.864 41.272 13.46V13.424H38.62V12.068H42.7V17H41.404L41.308 15.992C40.828 16.664 39.832 17.132 38.644 17.132C36.184 17.132 34.468 15.344 34.468 12.644C34.468 9.98 36.208 8.084 38.848 8.084C40.852 8.084 42.4 9.248 42.652 11.036H41.032C40.756 10.004 39.868 9.524 38.812 9.524ZM45.9067 17.156C44.6467 17.156 43.8787 16.424 43.8787 15.308C43.8787 14.216 44.6707 13.532 46.0747 13.424L47.8507 13.292V13.16C47.8507 12.356 47.3707 12.032 46.6267 12.032C45.7627 12.032 45.2827 12.392 45.2827 13.016H44.0347C44.0347 11.732 45.0907 10.892 46.6987 10.892C48.2947 10.892 49.2787 11.756 49.2787 13.4V17H47.9947L47.8867 16.124C47.6347 16.736 46.8307 17.156 45.9067 17.156ZM46.3867 16.052C47.2867 16.052 47.8627 15.512 47.8627 14.6V14.288L46.6267 14.384C45.7147 14.468 45.3667 14.768 45.3667 15.248C45.3667 15.788 45.7267 16.052 46.3867 16.052ZM52.1929 17H50.7409V8.072H52.1929V17ZM55.2047 17H53.7527V8.072H55.2047V17ZM59.3924 17.156C57.6284 17.156 56.3924 15.872 56.3924 14.036C56.3924 12.176 57.6044 10.892 59.3444 10.892C61.1204 10.892 62.2484 12.08 62.2484 13.928V14.372L57.7844 14.384C57.8924 15.428 58.4444 15.956 59.4164 15.956C60.2204 15.956 60.7484 15.644 60.9164 15.08H62.2724C62.0204 16.376 60.9404 17.156 59.3924 17.156ZM59.3564 12.092C58.4924 12.092 57.9644 12.56 57.8204 13.448H60.7964C60.7964 12.632 60.2324 12.092 59.3564 12.092ZM67.1401 11.048V12.404H66.6001C65.5441 12.404 64.8841 12.968 64.8841 14.12V17H63.4201V11.084H64.8001L64.8841 11.948C65.1361 11.36 65.7001 10.964 66.4921 10.964C66.6961 10.964 66.9001 10.988 67.1401 11.048ZM67.7908 19.748V18.524H68.6668C69.2428 18.524 69.6028 18.392 69.8548 17.696L70.0228 17.252L67.6348 11.072H69.1828L70.7068 15.392L72.3148 11.072H73.8268L70.9228 18.32C70.4788 19.424 69.8548 19.88 68.8828 19.88C68.4748 19.88 68.1148 19.832 67.7908 19.748ZM74.2362 14.444V13.148H78.1002V14.444H74.2362ZM78.7696 11.072H79.6216V10.352C79.6216 8.744 80.4736 8.072 81.7576 8.072C81.9856 8.072 82.2616 8.084 82.5136 8.132V9.38H81.9976C81.2536 9.38 81.0736 9.764 81.0736 10.352V11.072H82.4896V12.296H81.0736V17H79.6216V12.296H78.7696V11.072ZM85.0356 17.156C83.7756 17.156 83.0076 16.424 83.0076 15.308C83.0076 14.216 83.7996 13.532 85.2036 13.424L86.9796 13.292V13.16C86.9796 12.356 86.4996 12.032 85.7556 12.032C84.8916 12.032 84.4116 12.392 84.4116 13.016H83.1636C83.1636 11.732 84.2196 10.892 85.8276 10.892C87.4236 10.892 88.4076 11.756 88.4076 13.4V17H87.1236L87.0156 16.124C86.7636 16.736 85.9596 17.156 85.0356 17.156ZM85.5156 16.052C86.4156 16.052 86.9916 15.512 86.9916 14.6V14.288L85.7556 14.384C84.8436 14.468 84.4956 14.768 84.4956 15.248C84.4956 15.788 84.8556 16.052 85.5156 16.052ZM91.2915 17L88.9395 11.072H90.4995L91.5315 13.796C91.7835 14.504 91.9875 15.116 92.0595 15.44C92.1435 15.068 92.3595 14.444 92.6115 13.796L93.6915 11.072H95.2035L92.7315 17H91.2915ZM95.4041 14.024C95.4041 12.176 96.7361 10.904 98.5721 10.904C100.408 10.904 101.74 12.176 101.74 14.024C101.74 15.872 100.408 17.144 98.5721 17.144C96.7361 17.144 95.4041 15.872 95.4041 14.024ZM96.8681 14.024C96.8681 15.104 97.5641 15.836 98.5721 15.836C99.5801 15.836 100.276 15.104 100.276 14.024C100.276 12.944 99.5801 12.212 98.5721 12.212C97.5641 12.212 96.8681 12.944 96.8681 14.024ZM106.621 11.048V12.404H106.081C105.025 12.404 104.365 12.968 104.365 14.12V17H102.901V11.084H104.281L104.365 11.948C104.617 11.36 105.181 10.964 105.973 10.964C106.177 10.964 106.381 10.988 106.621 11.048ZM108.343 9.884C107.839 9.884 107.443 9.488 107.443 8.996C107.443 8.504 107.839 8.12 108.343 8.12C108.823 8.12 109.219 8.504 109.219 8.996C109.219 9.488 108.823 9.884 108.343 9.884ZM107.611 17V11.072H109.075V17H107.611ZM112.604 17H111.14V12.296H110V11.072H111.14V9.224H112.604V11.072H113.756V12.296H112.604V17ZM117.26 17.156C115.496 17.156 114.26 15.872 114.26 14.036C114.26 12.176 115.472 10.892 117.212 10.892C118.988 10.892 120.116 12.08 120.116 13.928V14.372L115.652 14.384C115.76 15.428 116.312 15.956 117.284 15.956C118.088 15.956 118.616 15.644 118.784 15.08H120.14C119.888 16.376 118.808 17.156 117.26 17.156ZM117.224 12.092C116.36 12.092 115.832 12.56 115.688 13.448H118.664C118.664 12.632 118.1 12.092 117.224 12.092Z" fill="black"/>
</svg>
