<svg width="1251" height="28" viewBox="0 0 1251 28" fill="none" xmlns="http://www.w3.org/2000/svg">
<path d="M2.74444 0.363909V20.6079H0.000437677V0.363909H2.74444ZM6.12128 13.7759C6.12128 9.49191 8.83728 6.52391 12.8413 6.52391C16.2853 6.52391 18.6933 8.48391 19.1693 11.5359H16.5373C16.0893 9.79991 14.6893 8.87591 12.9253 8.87591C10.4333 8.87591 8.72528 10.7799 8.72528 13.7479C8.72528 16.6879 10.3213 18.5919 12.8133 18.5919C14.6893 18.5919 16.0893 17.6119 16.5653 15.9879H19.1973C18.6653 18.9559 16.1173 20.9439 12.8133 20.9439C8.78128 20.9439 6.12128 18.0879 6.12128 13.7759ZM21.0783 13.7479C21.0783 9.51991 24.1023 6.55191 28.2183 6.55191C32.3063 6.55191 35.3303 9.51991 35.3303 13.7479C35.3303 17.9759 32.3063 20.9439 28.2183 20.9439C24.1023 20.9439 21.0783 17.9759 21.0783 13.7479ZM23.7383 13.7479C23.7383 16.6039 25.5583 18.5919 28.2183 18.5919C30.8503 18.5919 32.6983 16.6039 32.6983 13.7479C32.6983 10.8919 30.8503 8.90391 28.2183 8.90391C25.5583 8.90391 23.7383 10.8919 23.7383 13.7479ZM40.8758 20.6079H38.2438V6.91591H40.6238L40.9038 9.01591C41.7718 7.44791 43.5078 6.52391 45.4398 6.52391C49.0518 6.52391 50.7038 8.73591 50.7038 12.2359V20.6079H48.0718V12.8239C48.0718 10.0519 46.7838 8.93191 44.7678 8.93191C42.3038 8.93191 40.8758 10.6959 40.8758 13.3559V20.6079ZM53.0653 16.6319H55.5853C55.5853 18.0319 56.6493 18.8719 58.3853 18.8719C60.2333 18.8719 61.2973 18.1159 61.2973 16.8559C61.2973 15.9319 60.8493 15.3719 59.4213 15.0079L57.0133 14.4479C54.5773 13.8599 53.4293 12.6559 53.4293 10.6399C53.4293 8.11991 55.5573 6.52391 58.5813 6.52391C61.5773 6.52391 63.5373 8.20391 63.5933 10.8079H61.0733C61.0173 9.43591 60.0933 8.56791 58.4973 8.56791C56.8453 8.56791 55.9213 9.29591 55.9213 10.5559C55.9213 11.4799 56.5933 12.0959 57.9373 12.4319L60.3453 13.0199C62.6693 13.5799 63.8173 14.6439 63.8173 16.6879C63.8173 19.2919 61.5773 20.9439 58.3293 20.9439C55.1093 20.9439 53.0653 19.2359 53.0653 16.6319ZM72.9363 6.91591H74.9523V4.73191C74.9523 1.37191 76.8003 -9.15527e-05 79.2923 -9.15527e-05C79.7963 -9.15527e-05 80.3843 0.0279098 80.9163 0.111909V2.37991H79.7403C78.0323 2.37991 77.5843 3.24791 77.5843 4.73191V6.91591H80.8323V9.12791H77.5843V20.6079H74.9523V9.12791H72.9363V6.91591ZM81.9728 13.7479C81.9728 9.51991 84.9968 6.55191 89.1128 6.55191C93.2008 6.55191 96.2248 9.51991 96.2248 13.7479C96.2248 17.9759 93.2008 20.9439 89.1128 20.9439C84.9968 20.9439 81.9728 17.9759 81.9728 13.7479ZM84.6328 13.7479C84.6328 16.6039 86.4528 18.5919 89.1128 18.5919C91.7448 18.5919 93.5928 16.6039 93.5928 13.7479C93.5928 10.8919 91.7448 8.90391 89.1128 8.90391C86.4528 8.90391 84.6328 10.8919 84.6328 13.7479ZM106.978 6.80391V9.21191H105.802C103.31 9.21191 101.77 10.7239 101.77 13.3559V20.6079H99.1384V6.94391H101.602L101.77 9.01591C102.33 7.58791 103.702 6.63591 105.578 6.63591C106.054 6.63591 106.446 6.69191 106.978 6.80391ZM120.939 20.6079L115.423 6.91591H118.223L121.219 14.5599C121.695 15.8479 122.087 16.9959 122.311 17.8359C122.535 16.9399 122.983 15.7639 123.459 14.5599L126.511 6.91591H129.255L123.543 20.6079H120.939ZM129.824 13.7479C129.824 9.51991 132.848 6.55191 136.964 6.55191C141.052 6.55191 144.076 9.51991 144.076 13.7479C144.076 17.9759 141.052 20.9439 136.964 20.9439C132.848 20.9439 129.824 17.9759 129.824 13.7479ZM132.484 13.7479C132.484 16.6039 134.304 18.5919 136.964 18.5919C139.596 18.5919 141.444 16.6039 141.444 13.7479C141.444 10.8919 139.596 8.90391 136.964 8.90391C134.304 8.90391 132.484 10.8919 132.484 13.7479ZM148.278 3.66791C147.326 3.66791 146.542 2.88391 146.542 1.93191C146.542 0.95191 147.326 0.195909 148.278 0.195909C149.23 0.195909 150.014 0.95191 150.014 1.93191C150.014 2.88391 149.23 3.66791 148.278 3.66791ZM146.99 20.6079V6.91591H149.622V20.6079H146.99ZM152.547 13.7759C152.547 9.49191 155.263 6.52391 159.267 6.52391C162.711 6.52391 165.119 8.48391 165.595 11.5359H162.963C162.515 9.79991 161.115 8.87591 159.351 8.87591C156.859 8.87591 155.151 10.7799 155.151 13.7479C155.151 16.6879 156.747 18.5919 159.239 18.5919C161.115 18.5919 162.515 17.6119 162.991 15.9879H165.623C165.091 18.9559 162.543 20.9439 159.239 20.9439C155.207 20.9439 152.547 18.0879 152.547 13.7759ZM174.308 20.9439C170.276 20.9439 167.504 18.0319 167.504 13.7759C167.504 9.49191 170.22 6.52391 174.196 6.52391C178.088 6.52391 180.636 9.21191 180.636 13.2719V14.2519L170.052 14.2799C170.248 17.1639 171.76 18.7599 174.364 18.7599C176.408 18.7599 177.752 17.9199 178.2 16.3519H180.664C179.992 19.2919 177.696 20.9439 174.308 20.9439ZM174.196 8.73591C171.9 8.73591 170.444 10.1079 170.108 12.5159H178.004C178.004 10.2479 176.52 8.73591 174.196 8.73591ZM190.336 13.7759C190.336 9.49191 193.052 6.52391 197.056 6.52391C200.5 6.52391 202.908 8.48391 203.384 11.5359H200.752C200.304 9.79991 198.904 8.87591 197.14 8.87591C194.648 8.87591 192.94 10.7799 192.94 13.7479C192.94 16.6879 194.536 18.5919 197.028 18.5919C198.904 18.5919 200.304 17.6119 200.78 15.9879H203.412C202.88 18.9559 200.332 20.9439 197.028 20.9439C192.996 20.9439 190.336 18.0879 190.336 13.7759ZM205.293 13.7479C205.293 9.51991 208.317 6.55191 212.433 6.55191C216.521 6.55191 219.545 9.51991 219.545 13.7479C219.545 17.9759 216.521 20.9439 212.433 20.9439C208.317 20.9439 205.293 17.9759 205.293 13.7479ZM207.953 13.7479C207.953 16.6039 209.773 18.5919 212.433 18.5919C215.065 18.5919 216.913 16.6039 216.913 13.7479C216.913 10.8919 215.065 8.90391 212.433 8.90391C209.773 8.90391 207.953 10.8919 207.953 13.7479ZM225.091 20.6079H222.459V6.91591H224.811L225.063 8.70791C225.763 7.41991 227.219 6.52391 229.151 6.52391C231.279 6.52391 232.791 7.58791 233.491 9.29591C234.135 7.58791 235.787 6.52391 237.915 6.52391C241.051 6.52391 242.955 8.48391 242.955 11.6479V20.6079H240.379V12.2919C240.379 10.1359 239.175 8.90391 237.327 8.90391C235.339 8.90391 234.023 10.3039 234.023 12.4879V20.6079H231.419V12.2639C231.419 10.1079 230.243 8.93191 228.395 8.93191C226.407 8.93191 225.091 10.3039 225.091 12.4879V20.6079ZM249.235 20.6079H246.603V6.91591H248.955L249.207 8.70791C249.907 7.41991 251.363 6.52391 253.295 6.52391C255.423 6.52391 256.935 7.58791 257.635 9.29591C258.279 7.58791 259.931 6.52391 262.059 6.52391C265.195 6.52391 267.099 8.48391 267.099 11.6479V20.6079H264.523V12.2919C264.523 10.1359 263.319 8.90391 261.471 8.90391C259.483 8.90391 258.167 10.3039 258.167 12.4879V20.6079H255.563V12.2639C255.563 10.1079 254.387 8.93191 252.539 8.93191C250.551 8.93191 249.235 10.3039 249.235 12.4879V20.6079ZM280.212 6.91591H282.816V20.6079H280.464L280.184 18.5359C279.4 19.9639 277.58 20.9439 275.564 20.9439C272.372 20.9439 270.58 18.7879 270.58 15.4279V6.91591H273.212V14.5599C273.212 17.4999 274.472 18.6199 276.488 18.6199C278.896 18.6199 280.212 17.0799 280.212 14.1399V6.91591ZM289.266 20.6079H286.634V6.91591H289.014L289.294 9.01591C290.162 7.44791 291.898 6.52391 293.83 6.52391C297.442 6.52391 299.094 8.73591 299.094 12.2359V20.6079H296.462V12.8239C296.462 10.0519 295.174 8.93191 293.158 8.93191C290.694 8.93191 289.266 10.6959 289.266 13.3559V20.6079ZM304.028 3.66791C303.076 3.66791 302.292 2.88391 302.292 1.93191C302.292 0.95191 303.076 0.195909 304.028 0.195909C304.98 0.195909 305.764 0.95191 305.764 1.93191C305.764 2.88391 304.98 3.66791 304.028 3.66791ZM302.74 20.6079V6.91591H305.372V20.6079H302.74ZM308.297 13.7759C308.297 9.49191 311.013 6.52391 315.017 6.52391C318.461 6.52391 320.869 8.48391 321.345 11.5359H318.713C318.265 9.79991 316.865 8.87591 315.101 8.87591C312.609 8.87591 310.901 10.7799 310.901 13.7479C310.901 16.6879 312.497 18.5919 314.989 18.5919C316.865 18.5919 318.265 17.6119 318.741 15.9879H321.373C320.841 18.9559 318.293 20.9439 314.989 20.9439C310.957 20.9439 308.297 18.0879 308.297 13.7759ZM328.154 20.9439C325.214 20.9439 323.478 19.2919 323.478 16.7999C323.478 14.2799 325.354 12.7119 328.574 12.4599L332.886 12.1239V11.7319C332.886 9.43591 331.514 8.62391 329.666 8.62391C327.454 8.62391 326.194 9.60391 326.194 11.2559H323.898C323.898 8.39991 326.25 6.52391 329.778 6.52391C333.166 6.52391 335.462 8.31591 335.462 12.0119V20.6079H333.222L332.942 18.3959C332.242 19.9639 330.366 20.9439 328.154 20.9439ZM328.91 18.8999C331.402 18.8999 332.914 17.2759 332.914 14.6999V13.9719L329.414 14.2519C327.09 14.4759 326.138 15.3719 326.138 16.7159C326.138 18.1719 327.202 18.8999 328.91 18.8999ZM342.752 20.6079H340.12V9.12791H337.432V6.91591H340.12V2.63191H342.752V6.91591H345.44V9.12791H342.752V20.6079ZM349.09 3.66791C348.138 3.66791 347.354 2.88391 347.354 1.93191C347.354 0.95191 348.138 0.195909 349.09 0.195909C350.042 0.195909 350.826 0.95191 350.826 1.93191C350.826 2.88391 350.042 3.66791 349.09 3.66791ZM347.802 20.6079V6.91591H350.434V20.6079H347.802ZM353.36 13.7479C353.36 9.51991 356.384 6.55191 360.5 6.55191C364.588 6.55191 367.612 9.51991 367.612 13.7479C367.612 17.9759 364.588 20.9439 360.5 20.9439C356.384 20.9439 353.36 17.9759 353.36 13.7479ZM356.02 13.7479C356.02 16.6039 357.84 18.5919 360.5 18.5919C363.132 18.5919 364.98 16.6039 364.98 13.7479C364.98 10.8919 363.132 8.90391 360.5 8.90391C357.84 8.90391 356.02 10.8919 356.02 13.7479ZM373.157 20.6079H370.525V6.91591H372.905L373.185 9.01591C374.053 7.44791 375.789 6.52391 377.721 6.52391C381.333 6.52391 382.985 8.73591 382.985 12.2359V20.6079H380.353V12.8239C380.353 10.0519 379.065 8.93191 377.049 8.93191C374.585 8.93191 373.157 10.6959 373.157 13.3559V20.6079ZM390.579 19.5159C390.579 21.5319 389.067 23.2119 387.079 23.4639V22.2879C388.227 22.0919 389.039 21.3359 389.039 20.4679C388.843 20.5799 388.619 20.6359 388.283 20.6359C387.359 20.6359 386.575 19.9639 386.575 18.9279C386.575 17.8079 387.331 16.9959 388.451 16.9959C389.627 16.9959 390.579 17.9759 390.579 19.5159ZM401.129 13.7759C401.129 9.49191 403.845 6.52391 407.849 6.52391C411.293 6.52391 413.701 8.48391 414.177 11.5359H411.545C411.097 9.79991 409.697 8.87591 407.933 8.87591C405.441 8.87591 403.733 10.7799 403.733 13.7479C403.733 16.6879 405.329 18.5919 407.821 18.5919C409.697 18.5919 411.097 17.6119 411.573 15.9879H414.205C413.673 18.9559 411.125 20.9439 407.821 20.9439C403.789 20.9439 401.129 18.0879 401.129 13.7759ZM420.986 20.9439C418.046 20.9439 416.31 19.2919 416.31 16.7999C416.31 14.2799 418.186 12.7119 421.406 12.4599L425.718 12.1239V11.7319C425.718 9.43591 424.346 8.62391 422.498 8.62391C420.286 8.62391 419.026 9.60391 419.026 11.2559H416.73C416.73 8.39991 419.082 6.52391 422.61 6.52391C425.998 6.52391 428.294 8.31591 428.294 12.0119V20.6079H426.054L425.774 18.3959C425.074 19.9639 423.198 20.9439 420.986 20.9439ZM421.742 18.8999C424.234 18.8999 425.746 17.2759 425.746 14.6999V13.9719L422.246 14.2519C419.922 14.4759 418.97 15.3719 418.97 16.7159C418.97 18.1719 420.034 18.8999 421.742 18.8999ZM434.627 20.6079H431.995V-9.15527e-05H434.627V20.6079ZM441.19 20.6079H438.558V-9.15527e-05H441.19V20.6079ZM456.724 20.9439C453.784 20.9439 452.048 19.2919 452.048 16.7999C452.048 14.2799 453.924 12.7119 457.144 12.4599L461.456 12.1239V11.7319C461.456 9.43591 460.084 8.62391 458.236 8.62391C456.024 8.62391 454.764 9.60391 454.764 11.2559H452.468C452.468 8.39991 454.82 6.52391 458.348 6.52391C461.736 6.52391 464.032 8.31591 464.032 12.0119V20.6079H461.792L461.512 18.3959C460.812 19.9639 458.936 20.9439 456.724 20.9439ZM457.48 18.8999C459.972 18.8999 461.484 17.2759 461.484 14.6999V13.9719L457.984 14.2519C455.66 14.4759 454.708 15.3719 454.708 16.7159C454.708 18.1719 455.772 18.8999 457.48 18.8999ZM466.781 13.7759C466.781 9.49191 469.497 6.52391 473.501 6.52391C476.945 6.52391 479.353 8.48391 479.829 11.5359H477.197C476.749 9.79991 475.349 8.87591 473.585 8.87591C471.093 8.87591 469.385 10.7799 469.385 13.7479C469.385 16.6879 470.981 18.5919 473.473 18.5919C475.349 18.5919 476.749 17.6119 477.225 15.9879H479.857C479.325 18.9559 476.777 20.9439 473.473 20.9439C469.441 20.9439 466.781 18.0879 466.781 13.7759ZM486.498 20.6079H483.866V9.12791H481.178V6.91591H483.866V2.63191H486.498V6.91591H489.186V9.12791H486.498V20.6079ZM492.837 3.66791C491.885 3.66791 491.101 2.88391 491.101 1.93191C491.101 0.95191 491.885 0.195909 492.837 0.195909C493.789 0.195909 494.573 0.95191 494.573 1.93191C494.573 2.88391 493.789 3.66791 492.837 3.66791ZM491.549 20.6079V6.91591H494.181V20.6079H491.549ZM497.106 13.7479C497.106 9.51991 500.13 6.55191 504.246 6.55191C508.334 6.55191 511.358 9.51991 511.358 13.7479C511.358 17.9759 508.334 20.9439 504.246 20.9439C500.13 20.9439 497.106 17.9759 497.106 13.7479ZM499.766 13.7479C499.766 16.6039 501.586 18.5919 504.246 18.5919C506.878 18.5919 508.726 16.6039 508.726 13.7479C508.726 10.8919 506.878 8.90391 504.246 8.90391C501.586 8.90391 499.766 10.8919 499.766 13.7479ZM516.903 20.6079H514.271V6.91591H516.651L516.931 9.01591C517.799 7.44791 519.535 6.52391 521.467 6.52391C525.079 6.52391 526.731 8.73591 526.731 12.2359V20.6079H524.099V12.8239C524.099 10.0519 522.811 8.93191 520.795 8.93191C518.331 8.93191 516.903 10.6959 516.903 13.3559V20.6079ZM529.093 16.6319H531.613C531.613 18.0319 532.677 18.8719 534.413 18.8719C536.261 18.8719 537.325 18.1159 537.325 16.8559C537.325 15.9319 536.877 15.3719 535.449 15.0079L533.041 14.4479C530.605 13.8599 529.457 12.6559 529.457 10.6399C529.457 8.11991 531.585 6.52391 534.609 6.52391C537.605 6.52391 539.565 8.20391 539.621 10.8079H537.101C537.045 9.43591 536.121 8.56791 534.525 8.56791C532.873 8.56791 531.949 9.29591 531.949 10.5559C531.949 11.4799 532.621 12.0959 533.965 12.4319L536.373 13.0199C538.697 13.5799 539.845 14.6439 539.845 16.6879C539.845 19.2919 537.605 20.9439 534.357 20.9439C531.137 20.9439 529.093 19.2359 529.093 16.6319ZM546.547 19.5159C546.547 21.5319 545.035 23.2119 543.047 23.4639V22.2879C544.195 22.0919 545.007 21.3359 545.007 20.4679C544.811 20.5799 544.587 20.6359 544.251 20.6359C543.327 20.6359 542.543 19.9639 542.543 18.9279C542.543 17.8079 543.299 16.9959 544.419 16.9959C545.595 16.9959 546.547 17.9759 546.547 19.5159ZM563.482 20.9439C559.506 20.9439 557.098 17.9759 557.098 13.8039C557.098 9.60391 559.534 6.52391 563.594 6.52391C565.694 6.52391 567.458 7.44791 568.382 9.12791V-9.15527e-05H570.986V20.6079H568.634L568.41 18.1159C567.514 19.9919 565.666 20.9439 563.482 20.9439ZM564.014 18.5639C566.702 18.5639 568.354 16.5759 568.354 13.7199C568.354 10.9199 566.702 8.90391 564.014 8.90391C561.326 8.90391 559.758 10.9199 559.758 13.7199C559.758 16.5479 561.326 18.5639 564.014 18.5639ZM576.071 3.66791C575.119 3.66791 574.335 2.88391 574.335 1.93191C574.335 0.95191 575.119 0.195909 576.071 0.195909C577.023 0.195909 577.807 0.95191 577.807 1.93191C577.807 2.88391 577.023 3.66791 576.071 3.66791ZM574.783 20.6079V6.91591H577.415V20.6079H574.783ZM585.24 20.9439C582.3 20.9439 580.564 19.2919 580.564 16.7999C580.564 14.2799 582.44 12.7119 585.66 12.4599L589.972 12.1239V11.7319C589.972 9.43591 588.6 8.62391 586.752 8.62391C584.54 8.62391 583.28 9.60391 583.28 11.2559H580.984C580.984 8.39991 583.336 6.52391 586.864 6.52391C590.252 6.52391 592.548 8.31591 592.548 12.0119V20.6079H590.308L590.028 18.3959C589.328 19.9639 587.452 20.9439 585.24 20.9439ZM585.996 18.8999C588.488 18.8999 590 17.2759 590 14.6999V13.9719L586.5 14.2519C584.176 14.4759 583.224 15.3719 583.224 16.7159C583.224 18.1719 584.288 18.8999 585.996 18.8999ZM598.881 20.6079H596.249V-9.15527e-05H598.881V20.6079ZM608.956 6.91591H610.972V4.73191C610.972 1.37191 612.82 -9.15527e-05 615.312 -9.15527e-05C615.816 -9.15527e-05 616.404 0.0279098 616.936 0.111909V2.37991H615.76C614.052 2.37991 613.604 3.24791 613.604 4.73191V6.91591H616.852V9.12791H613.604V20.6079H610.972V9.12791H608.956V6.91591ZM628.763 6.91591H631.367V20.6079H629.015L628.735 18.5359C627.951 19.9639 626.131 20.9439 624.115 20.9439C620.923 20.9439 619.131 18.7879 619.131 15.4279V6.91591H621.763V14.5599C621.763 17.4999 623.023 18.6199 625.039 18.6199C627.447 18.6199 628.763 17.0799 628.763 14.1399V6.91591ZM637.817 20.6079H635.185V6.91591H637.565L637.845 9.01591C638.713 7.44791 640.449 6.52391 642.381 6.52391C645.993 6.52391 647.645 8.73591 647.645 12.2359V20.6079H645.013V12.8239C645.013 10.0519 643.725 8.93191 641.709 8.93191C639.245 8.93191 637.817 10.6959 637.817 13.3559V20.6079ZM650.395 13.7759C650.395 9.49191 653.111 6.52391 657.115 6.52391C660.559 6.52391 662.967 8.48391 663.443 11.5359H660.811C660.363 9.79991 658.963 8.87591 657.199 8.87591C654.707 8.87591 652.999 10.7799 652.999 13.7479C652.999 16.6879 654.595 18.5919 657.087 18.5919C658.963 18.5919 660.363 17.6119 660.839 15.9879H663.471C662.939 18.9559 660.391 20.9439 657.087 20.9439C653.055 20.9439 650.395 18.0879 650.395 13.7759ZM670.112 20.6079H667.48V9.12791H664.792V6.91591H667.48V2.63191H670.112V6.91591H672.8V9.12791H670.112V20.6079ZM676.45 3.66791C675.498 3.66791 674.714 2.88391 674.714 1.93191C674.714 0.95191 675.498 0.195909 676.45 0.195909C677.402 0.195909 678.186 0.95191 678.186 1.93191C678.186 2.88391 677.402 3.66791 676.45 3.66791ZM675.162 20.6079V6.91591H677.794V20.6079H675.162ZM680.719 13.7479C680.719 9.51991 683.743 6.55191 687.859 6.55191C691.947 6.55191 694.971 9.51991 694.971 13.7479C694.971 17.9759 691.947 20.9439 687.859 20.9439C683.743 20.9439 680.719 17.9759 680.719 13.7479ZM683.379 13.7479C683.379 16.6039 685.199 18.5919 687.859 18.5919C690.491 18.5919 692.339 16.6039 692.339 13.7479C692.339 10.8919 690.491 8.90391 687.859 8.90391C685.199 8.90391 683.379 10.8919 683.379 13.7479ZM700.516 20.6079H697.884V6.91591H700.264L700.544 9.01591C701.412 7.44791 703.148 6.52391 705.08 6.52391C708.692 6.52391 710.344 8.73591 710.344 12.2359V20.6079H707.712V12.8239C707.712 10.0519 706.424 8.93191 704.408 8.93191C701.944 8.93191 700.516 10.6959 700.516 13.3559V20.6079ZM712.706 16.6319H715.226C715.226 18.0319 716.29 18.8719 718.026 18.8719C719.874 18.8719 720.938 18.1159 720.938 16.8559C720.938 15.9319 720.49 15.3719 719.062 15.0079L716.654 14.4479C714.218 13.8599 713.07 12.6559 713.07 10.6399C713.07 8.11991 715.198 6.52391 718.222 6.52391C721.218 6.52391 723.178 8.20391 723.234 10.8079H720.714C720.658 9.43591 719.734 8.56791 718.138 8.56791C716.486 8.56791 715.562 9.29591 715.562 10.5559C715.562 11.4799 716.234 12.0959 717.578 12.4319L719.986 13.0199C722.31 13.5799 723.458 14.6439 723.458 16.6879C723.458 19.2919 721.218 20.9439 717.97 20.9439C714.75 20.9439 712.706 19.2359 712.706 16.6319ZM730.161 19.5159C730.161 21.5319 728.649 23.2119 726.661 23.4639V22.2879C727.809 22.0919 728.621 21.3359 728.621 20.4679C728.425 20.5799 728.201 20.6359 727.865 20.6359C726.941 20.6359 726.157 19.9639 726.157 18.9279C726.157 17.8079 726.913 16.9959 728.033 16.9959C729.209 16.9959 730.161 17.9759 730.161 19.5159ZM749.447 6.80391V9.21191H748.271C745.779 9.21191 744.239 10.7239 744.239 13.3559V20.6079H741.607V6.94391H744.071L744.239 9.01591C744.799 7.58791 746.171 6.63591 748.047 6.63591C748.523 6.63591 748.915 6.69191 749.447 6.80391ZM753.204 3.66791C752.252 3.66791 751.468 2.88391 751.468 1.93191C751.468 0.95191 752.252 0.195909 753.204 0.195909C754.156 0.195909 754.94 0.95191 754.94 1.93191C754.94 2.88391 754.156 3.66791 753.204 3.66791ZM751.916 20.6079V6.91591H754.548V20.6079H751.916ZM761.001 20.6079H758.369V6.91591H760.749L761.029 9.01591C761.897 7.44791 763.633 6.52391 765.565 6.52391C769.177 6.52391 770.829 8.73591 770.829 12.2359V20.6079H768.197V12.8239C768.197 10.0519 766.909 8.93191 764.893 8.93191C762.429 8.93191 761.001 10.6959 761.001 13.3559V20.6079ZM773.606 13.4119C773.606 9.54791 776.098 6.52391 780.074 6.52391C782.286 6.52391 783.994 7.53191 784.862 9.23991L785.058 6.91591H787.41V20.0479C787.41 24.3599 784.75 27.1039 780.55 27.1039C776.826 27.1039 774.278 25.0039 773.774 21.5319H776.406C776.742 23.5479 778.254 24.7239 780.55 24.7239C783.126 24.7239 784.806 23.0439 784.806 20.4399V17.6959C783.91 19.2919 782.118 20.2439 779.962 20.2439C776.07 20.2439 773.606 17.2479 773.606 13.4119ZM776.238 13.3559C776.238 15.9319 777.834 17.9479 780.41 17.9479C783.07 17.9479 784.694 16.0439 784.694 13.3559C784.694 10.7239 783.126 8.81991 780.438 8.81991C777.806 8.81991 776.238 10.8359 776.238 13.3559ZM792.497 3.66791C791.545 3.66791 790.761 2.88391 790.761 1.93191C790.761 0.95191 791.545 0.195909 792.497 0.195909C793.449 0.195909 794.233 0.95191 794.233 1.93191C794.233 2.88391 793.449 3.66791 792.497 3.66791ZM791.209 20.6079V6.91591H793.841V20.6079H791.209ZM800.294 20.6079H797.662V6.91591H800.042L800.322 9.01591C801.19 7.44791 802.926 6.52391 804.858 6.52391C808.47 6.52391 810.122 8.73591 810.122 12.2359V20.6079H807.49V12.8239C807.49 10.0519 806.202 8.93191 804.186 8.93191C801.722 8.93191 800.294 10.6959 800.294 13.3559V20.6079ZM812.899 13.4119C812.899 9.54791 815.391 6.52391 819.367 6.52391C821.579 6.52391 823.287 7.53191 824.155 9.23991L824.351 6.91591H826.703V20.0479C826.703 24.3599 824.043 27.1039 819.843 27.1039C816.119 27.1039 813.571 25.0039 813.067 21.5319H815.699C816.035 23.5479 817.547 24.7239 819.843 24.7239C822.419 24.7239 824.099 23.0439 824.099 20.4399V17.6959C823.203 19.2919 821.411 20.2439 819.255 20.2439C815.363 20.2439 812.899 17.2479 812.899 13.4119ZM815.531 13.3559C815.531 15.9319 817.127 17.9479 819.703 17.9479C822.363 17.9479 823.987 16.0439 823.987 13.3559C823.987 10.7239 822.419 8.81991 819.731 8.81991C817.099 8.81991 815.531 10.8359 815.531 13.3559ZM837.038 16.6319H839.558C839.558 18.0319 840.622 18.8719 842.358 18.8719C844.206 18.8719 845.27 18.1159 845.27 16.8559C845.27 15.9319 844.822 15.3719 843.394 15.0079L840.986 14.4479C838.55 13.8599 837.402 12.6559 837.402 10.6399C837.402 8.11991 839.53 6.52391 842.554 6.52391C845.55 6.52391 847.51 8.20391 847.566 10.8079H845.046C844.99 9.43591 844.066 8.56791 842.47 8.56791C840.818 8.56791 839.894 9.29591 839.894 10.5559C839.894 11.4799 840.566 12.0959 841.91 12.4319L844.318 13.0199C846.642 13.5799 847.79 14.6439 847.79 16.6879C847.79 19.2919 845.55 20.9439 842.302 20.9439C839.082 20.9439 837.038 19.2359 837.038 16.6319ZM854.573 20.6079H851.941V9.12791H849.253V6.91591H851.941V2.63191H854.573V6.91591H857.261V9.12791H854.573V20.6079ZM863.463 20.9439C860.523 20.9439 858.787 19.2919 858.787 16.7999C858.787 14.2799 860.663 12.7119 863.883 12.4599L868.195 12.1239V11.7319C868.195 9.43591 866.823 8.62391 864.975 8.62391C862.763 8.62391 861.503 9.60391 861.503 11.2559H859.207C859.207 8.39991 861.559 6.52391 865.087 6.52391C868.475 6.52391 870.771 8.31591 870.771 12.0119V20.6079H868.531L868.251 18.3959C867.551 19.9639 865.675 20.9439 863.463 20.9439ZM864.219 18.8999C866.711 18.8999 868.223 17.2759 868.223 14.6999V13.9719L864.723 14.2519C862.399 14.4759 861.447 15.3719 861.447 16.7159C861.447 18.1719 862.511 18.8999 864.219 18.8999ZM878.061 20.6079H875.429V9.12791H872.741V6.91591H875.429V2.63191H878.061V6.91591H880.749V9.12791H878.061V20.6079ZM888.882 20.9439C884.85 20.9439 882.078 18.0319 882.078 13.7759C882.078 9.49191 884.794 6.52391 888.77 6.52391C892.662 6.52391 895.21 9.21191 895.21 13.2719V14.2519L884.626 14.2799C884.822 17.1639 886.334 18.7599 888.938 18.7599C890.982 18.7599 892.326 17.9199 892.774 16.3519H895.238C894.566 19.2919 892.27 20.9439 888.882 20.9439ZM888.77 8.73591C886.474 8.73591 885.018 10.1079 884.682 12.5159H892.578C892.578 10.2479 891.094 8.73591 888.77 8.73591ZM897.03 16.6319H899.55C899.55 18.0319 900.614 18.8719 902.35 18.8719C904.198 18.8719 905.262 18.1159 905.262 16.8559C905.262 15.9319 904.814 15.3719 903.386 15.0079L900.978 14.4479C898.542 13.8599 897.394 12.6559 897.394 10.6399C897.394 8.11991 899.522 6.52391 902.546 6.52391C905.542 6.52391 907.502 8.20391 907.558 10.8079H905.038C904.982 9.43591 904.058 8.56791 902.462 8.56791C900.81 8.56791 899.886 9.29591 899.886 10.5559C899.886 11.4799 900.558 12.0959 901.902 12.4319L904.31 13.0199C906.634 13.5799 907.782 14.6439 907.782 16.6879C907.782 19.2919 905.542 20.9439 902.294 20.9439C899.074 20.9439 897.03 19.2359 897.03 16.6319ZM914.485 19.5159C914.485 21.5319 912.973 23.2119 910.985 23.4639V22.2879C912.133 22.0919 912.945 21.3359 912.945 20.4679C912.749 20.5799 912.525 20.6359 912.189 20.6359C911.265 20.6359 910.481 19.9639 910.481 18.9279C910.481 17.8079 911.237 16.9959 912.357 16.9959C913.533 16.9959 914.485 17.9759 914.485 19.5159ZM929.935 20.9439C926.995 20.9439 925.259 19.2919 925.259 16.7999C925.259 14.2799 927.135 12.7119 930.355 12.4599L934.667 12.1239V11.7319C934.667 9.43591 933.295 8.62391 931.447 8.62391C929.235 8.62391 927.975 9.60391 927.975 11.2559H925.679C925.679 8.39991 928.031 6.52391 931.559 6.52391C934.947 6.52391 937.243 8.31591 937.243 12.0119V20.6079H935.003L934.723 18.3959C934.023 19.9639 932.147 20.9439 929.935 20.9439ZM930.691 18.8999C933.183 18.8999 934.695 17.2759 934.695 14.6999V13.9719L931.195 14.2519C928.871 14.4759 927.919 15.3719 927.919 16.7159C927.919 18.1719 928.983 18.8999 930.691 18.8999ZM943.52 20.6079H940.888V6.91591H943.268L943.548 9.01591C944.416 7.44791 946.152 6.52391 948.084 6.52391C951.696 6.52391 953.348 8.73591 953.348 12.2359V20.6079H950.716V12.8239C950.716 10.0519 949.428 8.93191 947.412 8.93191C944.948 8.93191 943.52 10.6959 943.52 13.3559V20.6079ZM962.482 20.9439C958.506 20.9439 956.098 17.9759 956.098 13.8039C956.098 9.60391 958.534 6.52391 962.594 6.52391C964.694 6.52391 966.458 7.44791 967.382 9.12791V-9.15527e-05H969.986V20.6079H967.634L967.41 18.1159C966.514 19.9919 964.666 20.9439 962.482 20.9439ZM963.014 18.5639C965.702 18.5639 967.354 16.5759 967.354 13.7199C967.354 10.9199 965.702 8.90391 963.014 8.90391C960.326 8.90391 958.758 10.9199 958.758 13.7199C958.758 16.5479 960.326 18.5639 963.014 18.5639ZM982.727 3.66791C981.775 3.66791 980.991 2.88391 980.991 1.93191C980.991 0.95191 981.775 0.195909 982.727 0.195909C983.679 0.195909 984.463 0.95191 984.463 1.93191C984.463 2.88391 983.679 3.66791 982.727 3.66791ZM981.439 20.6079V6.91591H984.071V20.6079H981.439ZM990.524 20.6079H987.892V6.91591H990.272L990.552 9.01591C991.42 7.44791 993.156 6.52391 995.088 6.52391C998.7 6.52391 1000.35 8.73591 1000.35 12.2359V20.6079H997.72V12.8239C997.72 10.0519 996.432 8.93191 994.416 8.93191C991.952 8.93191 990.524 10.6959 990.524 13.3559V20.6079ZM1007.86 20.6079H1005.23V9.12791H1002.54V6.91591H1005.23V2.63191H1007.86V6.91591H1010.55V9.12791H1007.86V20.6079ZM1018.68 20.9439C1014.65 20.9439 1011.88 18.0319 1011.88 13.7759C1011.88 9.49191 1014.6 6.52391 1018.57 6.52391C1022.46 6.52391 1025.01 9.21191 1025.01 13.2719V14.2519L1014.43 14.2799C1014.62 17.1639 1016.14 18.7599 1018.74 18.7599C1020.78 18.7599 1022.13 17.9199 1022.58 16.3519H1025.04C1024.37 19.2919 1022.07 20.9439 1018.68 20.9439ZM1018.57 8.73591C1016.28 8.73591 1014.82 10.1079 1014.48 12.5159H1022.38C1022.38 10.2479 1020.9 8.73591 1018.57 8.73591ZM1035.79 6.80391V9.21191H1034.61C1032.12 9.21191 1030.58 10.7239 1030.58 13.3559V20.6079H1027.95V6.94391H1030.41L1030.58 9.01591C1031.14 7.58791 1032.51 6.63591 1034.39 6.63591C1034.87 6.63591 1035.26 6.69191 1035.79 6.80391ZM1041.72 20.9439C1038.78 20.9439 1037.04 19.2919 1037.04 16.7999C1037.04 14.2799 1038.92 12.7119 1042.14 12.4599L1046.45 12.1239V11.7319C1046.45 9.43591 1045.08 8.62391 1043.23 8.62391C1041.02 8.62391 1039.76 9.60391 1039.76 11.2559H1037.46C1037.46 8.39991 1039.81 6.52391 1043.34 6.52391C1046.73 6.52391 1049.02 8.31591 1049.02 12.0119V20.6079H1046.78L1046.5 18.3959C1045.8 19.9639 1043.93 20.9439 1041.72 20.9439ZM1042.47 18.8999C1044.96 18.8999 1046.48 17.2759 1046.48 14.6999V13.9719L1042.98 14.2519C1040.65 14.4759 1039.7 15.3719 1039.7 16.7159C1039.7 18.1719 1040.76 18.8999 1042.47 18.8999ZM1051.77 13.7759C1051.77 9.49191 1054.49 6.52391 1058.49 6.52391C1061.94 6.52391 1064.35 8.48391 1064.82 11.5359H1062.19C1061.74 9.79991 1060.34 8.87591 1058.58 8.87591C1056.09 8.87591 1054.38 10.7799 1054.38 13.7479C1054.38 16.6879 1055.97 18.5919 1058.47 18.5919C1060.34 18.5919 1061.74 17.6119 1062.22 15.9879H1064.85C1064.32 18.9559 1061.77 20.9439 1058.47 20.9439C1054.43 20.9439 1051.77 18.0879 1051.77 13.7759ZM1071.49 20.6079H1068.86V9.12791H1066.17V6.91591H1068.86V2.63191H1071.49V6.91591H1074.18V9.12791H1071.49V20.6079ZM1077.83 3.66791C1076.88 3.66791 1076.09 2.88391 1076.09 1.93191C1076.09 0.95191 1076.88 0.195909 1077.83 0.195909C1078.78 0.195909 1079.56 0.95191 1079.56 1.93191C1079.56 2.88391 1078.78 3.66791 1077.83 3.66791ZM1076.54 20.6079V6.91591H1079.17V20.6079H1076.54ZM1082.1 13.7479C1082.1 9.51991 1085.12 6.55191 1089.24 6.55191C1093.33 6.55191 1096.35 9.51991 1096.35 13.7479C1096.35 17.9759 1093.33 20.9439 1089.24 20.9439C1085.12 20.9439 1082.1 17.9759 1082.1 13.7479ZM1084.76 13.7479C1084.76 16.6039 1086.58 18.5919 1089.24 18.5919C1091.87 18.5919 1093.72 16.6039 1093.72 13.7479C1093.72 10.8919 1091.87 8.90391 1089.24 8.90391C1086.58 8.90391 1084.76 10.8919 1084.76 13.7479ZM1101.9 20.6079H1099.26V6.91591H1101.64L1101.92 9.01591C1102.79 7.44791 1104.53 6.52391 1106.46 6.52391C1110.07 6.52391 1111.72 8.73591 1111.72 12.2359V20.6079H1109.09V12.8239C1109.09 10.0519 1107.8 8.93191 1105.79 8.93191C1103.32 8.93191 1101.9 10.6959 1101.9 13.3559V20.6079ZM1124.31 3.66791C1123.36 3.66791 1122.58 2.88391 1122.58 1.93191C1122.58 0.95191 1123.36 0.195909 1124.31 0.195909C1125.27 0.195909 1126.05 0.95191 1126.05 1.93191C1126.05 2.88391 1125.27 3.66791 1124.31 3.66791ZM1123.03 20.6079V6.91591H1125.66V20.6079H1123.03ZM1132.11 20.6079H1129.48V6.91591H1131.86L1132.14 9.01591C1133.01 7.44791 1134.74 6.52391 1136.67 6.52391C1140.29 6.52391 1141.94 8.73591 1141.94 12.2359V20.6079H1139.31V12.8239C1139.31 10.0519 1138.02 8.93191 1136 8.93191C1133.54 8.93191 1132.11 10.6959 1132.11 13.3559V20.6079ZM1151.07 20.9439C1147.1 20.9439 1144.69 17.9759 1144.69 13.8039C1144.69 9.60391 1147.12 6.52391 1151.18 6.52391C1153.28 6.52391 1155.05 7.44791 1155.97 9.12791V-9.15527e-05H1158.58V20.6079H1156.22L1156 18.1159C1155.1 19.9919 1153.26 20.9439 1151.07 20.9439ZM1151.6 18.5639C1154.29 18.5639 1155.94 16.5759 1155.94 13.7199C1155.94 10.9199 1154.29 8.90391 1151.6 8.90391C1148.92 8.90391 1147.35 10.9199 1147.35 13.7199C1147.35 16.5479 1148.92 18.5639 1151.6 18.5639ZM1163.66 3.66791C1162.71 3.66791 1161.92 2.88391 1161.92 1.93191C1161.92 0.95191 1162.71 0.195909 1163.66 0.195909C1164.61 0.195909 1165.4 0.95191 1165.4 1.93191C1165.4 2.88391 1164.61 3.66791 1163.66 3.66791ZM1162.37 20.6079V6.91591H1165V20.6079H1162.37ZM1167.93 13.7759C1167.93 9.49191 1170.65 6.52391 1174.65 6.52391C1178.09 6.52391 1180.5 8.48391 1180.98 11.5359H1178.35C1177.9 9.79991 1176.5 8.87591 1174.73 8.87591C1172.24 8.87591 1170.53 10.7799 1170.53 13.7479C1170.53 16.6879 1172.13 18.5919 1174.62 18.5919C1176.5 18.5919 1177.9 17.6119 1178.37 15.9879H1181.01C1180.47 18.9559 1177.93 20.9439 1174.62 20.9439C1170.59 20.9439 1167.93 18.0879 1167.93 13.7759ZM1187.79 20.9439C1184.85 20.9439 1183.11 19.2919 1183.11 16.7999C1183.11 14.2799 1184.99 12.7119 1188.21 12.4599L1192.52 12.1239V11.7319C1192.52 9.43591 1191.15 8.62391 1189.3 8.62391C1187.09 8.62391 1185.83 9.60391 1185.83 11.2559H1183.53C1183.53 8.39991 1185.88 6.52391 1189.41 6.52391C1192.8 6.52391 1195.09 8.31591 1195.09 12.0119V20.6079H1192.85L1192.57 18.3959C1191.87 19.9639 1190 20.9439 1187.79 20.9439ZM1188.54 18.8999C1191.03 18.8999 1192.55 17.2759 1192.55 14.6999V13.9719L1189.05 14.2519C1186.72 14.4759 1185.77 15.3719 1185.77 16.7159C1185.77 18.1719 1186.83 18.8999 1188.54 18.8999ZM1202.39 20.6079H1199.75V9.12791H1197.07V6.91591H1199.75V2.63191H1202.39V6.91591H1205.07V9.12791H1202.39V20.6079ZM1206.4 13.7479C1206.4 9.51991 1209.43 6.55191 1213.54 6.55191C1217.63 6.55191 1220.65 9.51991 1220.65 13.7479C1220.65 17.9759 1217.63 20.9439 1213.54 20.9439C1209.43 20.9439 1206.4 17.9759 1206.4 13.7479ZM1209.06 13.7479C1209.06 16.6039 1210.88 18.5919 1213.54 18.5919C1216.17 18.5919 1218.02 16.6039 1218.02 13.7479C1218.02 10.8919 1216.17 8.90391 1213.54 8.90391C1210.88 8.90391 1209.06 10.8919 1209.06 13.7479ZM1231.41 6.80391V9.21191H1230.23C1227.74 9.21191 1226.2 10.7239 1226.2 13.3559V20.6079H1223.57V6.94391H1226.03L1226.2 9.01591C1226.76 7.58791 1228.13 6.63591 1230.01 6.63591C1230.48 6.63591 1230.88 6.69191 1231.41 6.80391ZM1232.76 16.6319H1235.28C1235.28 18.0319 1236.34 18.8719 1238.08 18.8719C1239.92 18.8719 1240.99 18.1159 1240.99 16.8559C1240.99 15.9319 1240.54 15.3719 1239.11 15.0079L1236.7 14.4479C1234.27 13.8599 1233.12 12.6559 1233.12 10.6399C1233.12 8.11991 1235.25 6.52391 1238.27 6.52391C1241.27 6.52391 1243.23 8.20391 1243.28 10.8079H1240.76C1240.71 9.43591 1239.78 8.56791 1238.19 8.56791C1236.54 8.56791 1235.61 9.29591 1235.61 10.5559C1235.61 11.4799 1236.28 12.0959 1237.63 12.4319L1240.04 13.0199C1242.36 13.5799 1243.51 14.6439 1243.51 16.6879C1243.51 19.2919 1241.27 20.9439 1238.02 20.9439C1234.8 20.9439 1232.76 19.2359 1232.76 16.6319ZM1248.22 20.9439C1247.13 20.9439 1246.21 20.0479 1246.21 18.9839C1246.21 17.8919 1247.13 16.9959 1248.22 16.9959C1249.29 16.9959 1250.21 17.8919 1250.21 18.9839C1250.21 20.0479 1249.29 20.9439 1248.22 20.9439Z" fill="black"/>
</svg>
