<svg width="1696" height="28" viewBox="0 0 1696 28" fill="none" xmlns="http://www.w3.org/2000/svg">
<path d="M2.74444 0.363909V20.6079H0.000437677V0.363909H2.74444ZM6.12128 13.7759C6.12128 9.49191 8.83728 6.52391 12.8413 6.52391C16.2853 6.52391 18.6933 8.48391 19.1693 11.5359H16.5373C16.0893 9.79991 14.6893 8.87591 12.9253 8.87591C10.4333 8.87591 8.72528 10.7799 8.72528 13.7479C8.72528 16.6879 10.3213 18.5919 12.8133 18.5919C14.6893 18.5919 16.0893 17.6119 16.5653 15.9879H19.1973C18.6653 18.9559 16.1173 20.9439 12.8133 20.9439C8.78128 20.9439 6.12128 18.0879 6.12128 13.7759ZM21.0783 13.7479C21.0783 9.51991 24.1023 6.55191 28.2183 6.55191C32.3063 6.55191 35.3303 9.51991 35.3303 13.7479C35.3303 17.9759 32.3063 20.9439 28.2183 20.9439C24.1023 20.9439 21.0783 17.9759 21.0783 13.7479ZM23.7383 13.7479C23.7383 16.6039 25.5583 18.5919 28.2183 18.5919C30.8503 18.5919 32.6983 16.6039 32.6983 13.7479C32.6983 10.8919 30.8503 8.90391 28.2183 8.90391C25.5583 8.90391 23.7383 10.8919 23.7383 13.7479ZM40.8758 20.6079H38.2438V6.91591H40.6238L40.9038 9.01591C41.7718 7.44791 43.5078 6.52391 45.4398 6.52391C49.0518 6.52391 50.7038 8.73591 50.7038 12.2359V20.6079H48.0718V12.8239C48.0718 10.0519 46.7838 8.93191 44.7678 8.93191C42.3038 8.93191 40.8758 10.6959 40.8758 13.3559V20.6079ZM53.0653 16.6319H55.5853C55.5853 18.0319 56.6493 18.8719 58.3853 18.8719C60.2333 18.8719 61.2973 18.1159 61.2973 16.8559C61.2973 15.9319 60.8493 15.3719 59.4213 15.0079L57.0133 14.4479C54.5773 13.8599 53.4293 12.6559 53.4293 10.6399C53.4293 8.11991 55.5573 6.52391 58.5813 6.52391C61.5773 6.52391 63.5373 8.20391 63.5933 10.8079H61.0733C61.0173 9.43591 60.0933 8.56791 58.4973 8.56791C56.8453 8.56791 55.9213 9.29591 55.9213 10.5559C55.9213 11.4799 56.5933 12.0959 57.9373 12.4319L60.3453 13.0199C62.6693 13.5799 63.8173 14.6439 63.8173 16.6879C63.8173 19.2919 61.5773 20.9439 58.3293 20.9439C55.1093 20.9439 53.0653 19.2359 53.0653 16.6319ZM72.9363 6.91591H74.9523V4.73191C74.9523 1.37191 76.8003 -9.15527e-05 79.2923 -9.15527e-05C79.7963 -9.15527e-05 80.3843 0.0279098 80.9163 0.111909V2.37991H79.7403C78.0323 2.37991 77.5843 3.24791 77.5843 4.73191V6.91591H80.8323V9.12791H77.5843V20.6079H74.9523V9.12791H72.9363V6.91591ZM81.9728 13.7479C81.9728 9.51991 84.9968 6.55191 89.1128 6.55191C93.2008 6.55191 96.2248 9.51991 96.2248 13.7479C96.2248 17.9759 93.2008 20.9439 89.1128 20.9439C84.9968 20.9439 81.9728 17.9759 81.9728 13.7479ZM84.6328 13.7479C84.6328 16.6039 86.4528 18.5919 89.1128 18.5919C91.7448 18.5919 93.5928 16.6039 93.5928 13.7479C93.5928 10.8919 91.7448 8.90391 89.1128 8.90391C86.4528 8.90391 84.6328 10.8919 84.6328 13.7479ZM106.978 6.80391V9.21191H105.802C103.31 9.21191 101.77 10.7239 101.77 13.3559V20.6079H99.1384V6.94391H101.602L101.77 9.01591C102.33 7.58791 103.702 6.63591 105.578 6.63591C106.054 6.63591 106.446 6.69191 106.978 6.80391ZM119.735 20.5799H117.103V-9.15527e-05H119.735V9.01591C120.603 7.53191 122.255 6.52391 124.383 6.52391C127.883 6.52391 129.563 8.73591 129.563 12.2359V20.6079H126.931V12.8239C126.931 10.0519 125.615 8.93191 123.655 8.93191C121.107 8.93191 119.735 10.7799 119.735 13.1319V20.5799ZM137.213 20.9439C134.273 20.9439 132.537 19.2919 132.537 16.7999C132.537 14.2799 134.413 12.7119 137.633 12.4599L141.945 12.1239V11.7319C141.945 9.43591 140.573 8.62391 138.725 8.62391C136.513 8.62391 135.253 9.60391 135.253 11.2559H132.957C132.957 8.39991 135.309 6.52391 138.837 6.52391C142.225 6.52391 144.521 8.31591 144.521 12.0119V20.6079H142.281L142.001 18.3959C141.301 19.9639 139.425 20.9439 137.213 20.9439ZM137.969 18.8999C140.461 18.8999 141.973 17.2759 141.973 14.6999V13.9719L138.473 14.2519C136.149 14.4759 135.197 15.3719 135.197 16.7159C135.197 18.1719 136.261 18.8999 137.969 18.8999ZM156.006 6.80391V9.21191H154.83C152.338 9.21191 150.798 10.7239 150.798 13.3559V20.6079H148.166V6.94391H150.63L150.798 9.01591C151.358 7.58791 152.73 6.63591 154.606 6.63591C155.082 6.63591 155.474 6.69191 156.006 6.80391ZM163.47 20.9439C159.494 20.9439 157.086 17.9759 157.086 13.8039C157.086 9.60391 159.522 6.52391 163.582 6.52391C165.682 6.52391 167.446 7.44791 168.37 9.12791V-9.15527e-05H170.974V20.6079H168.622L168.398 18.1159C167.502 19.9919 165.654 20.9439 163.47 20.9439ZM164.002 18.5639C166.69 18.5639 168.342 16.5759 168.342 13.7199C168.342 10.9199 166.69 8.90391 164.002 8.90391C161.314 8.90391 159.746 10.9199 159.746 13.7199C159.746 16.5479 161.314 18.5639 164.002 18.5639ZM177.711 20.6079L173.231 6.91591H175.947L178.215 14.0279C178.523 15.0359 178.803 16.0719 179.055 17.2759C179.279 16.0719 179.643 14.9239 179.951 14.0279L182.247 6.91591H184.935L187.203 14.0279C187.427 14.6999 187.875 16.2959 188.099 17.2759C188.323 16.1839 188.575 15.2319 188.967 14.0279L191.263 6.91591H194.007L189.331 20.6079H186.839L184.459 13.2719C184.011 11.8999 183.731 10.8359 183.591 10.0799C183.451 10.7519 183.199 11.6479 182.695 13.2999L180.315 20.6079H177.711ZM199.638 20.9439C196.698 20.9439 194.962 19.2919 194.962 16.7999C194.962 14.2799 196.838 12.7119 200.058 12.4599L204.37 12.1239V11.7319C204.37 9.43591 202.998 8.62391 201.15 8.62391C198.938 8.62391 197.678 9.60391 197.678 11.2559H195.382C195.382 8.39991 197.734 6.52391 201.262 6.52391C204.65 6.52391 206.946 8.31591 206.946 12.0119V20.6079H204.706L204.426 18.3959C203.726 19.9639 201.85 20.9439 199.638 20.9439ZM200.394 18.8999C202.886 18.8999 204.398 17.2759 204.398 14.6999V13.9719L200.898 14.2519C198.574 14.4759 197.622 15.3719 197.622 16.7159C197.622 18.1719 198.686 18.8999 200.394 18.8999ZM218.432 6.80391V9.21191H217.256C214.764 9.21191 213.224 10.7239 213.224 13.3559V20.6079H210.592V6.94391H213.056L213.224 9.01591C213.784 7.58791 215.156 6.63591 217.032 6.63591C217.508 6.63591 217.9 6.69191 218.432 6.80391ZM226.316 20.9439C222.284 20.9439 219.512 18.0319 219.512 13.7759C219.512 9.49191 222.228 6.52391 226.204 6.52391C230.096 6.52391 232.644 9.21191 232.644 13.2719V14.2519L222.06 14.2799C222.256 17.1639 223.768 18.7599 226.372 18.7599C228.416 18.7599 229.76 17.9199 230.208 16.3519H232.672C232 19.2919 229.704 20.9439 226.316 20.9439ZM226.204 8.73591C223.908 8.73591 222.452 10.1079 222.116 12.5159H230.012C230.012 10.2479 228.528 8.73591 226.204 8.73591ZM238.684 19.5159C238.684 21.5319 237.172 23.2119 235.184 23.4639V22.2879C236.332 22.0919 237.144 21.3359 237.144 20.4679C236.948 20.5799 236.724 20.6359 236.388 20.6359C235.464 20.6359 234.68 19.9639 234.68 18.9279C234.68 17.8079 235.436 16.9959 236.556 16.9959C237.732 16.9959 238.684 17.9759 238.684 19.5159ZM249.263 13.4119C249.263 9.54791 251.755 6.52391 255.731 6.52391C257.943 6.52391 259.651 7.53191 260.519 9.23991L260.715 6.91591H263.067V20.0479C263.067 24.3599 260.407 27.1039 256.207 27.1039C252.483 27.1039 249.935 25.0039 249.431 21.5319H252.063C252.399 23.5479 253.911 24.7239 256.207 24.7239C258.783 24.7239 260.463 23.0439 260.463 20.4399V17.6959C259.567 19.2919 257.775 20.2439 255.619 20.2439C251.727 20.2439 249.263 17.2479 249.263 13.4119ZM251.895 13.3559C251.895 15.9319 253.491 17.9479 256.067 17.9479C258.727 17.9479 260.351 16.0439 260.351 13.3559C260.351 10.7239 258.783 8.81991 256.095 8.81991C253.463 8.81991 251.895 10.8359 251.895 13.3559ZM270.869 20.9439C267.929 20.9439 266.193 19.2919 266.193 16.7999C266.193 14.2799 268.069 12.7119 271.289 12.4599L275.601 12.1239V11.7319C275.601 9.43591 274.229 8.62391 272.381 8.62391C270.169 8.62391 268.909 9.60391 268.909 11.2559H266.613C266.613 8.39991 268.965 6.52391 272.493 6.52391C275.881 6.52391 278.177 8.31591 278.177 12.0119V20.6079H275.937L275.657 18.3959C274.957 19.9639 273.081 20.9439 270.869 20.9439ZM271.625 18.8999C274.117 18.8999 275.629 17.2759 275.629 14.6999V13.9719L272.129 14.2519C269.805 14.4759 268.853 15.3719 268.853 16.7159C268.853 18.1719 269.917 18.8999 271.625 18.8999ZM287.31 20.9439C283.334 20.9439 280.926 17.9759 280.926 13.8039C280.926 9.60391 283.362 6.52391 287.422 6.52391C289.522 6.52391 291.286 7.44791 292.21 9.12791V-9.15527e-05H294.814V20.6079H292.462L292.238 18.1159C291.342 19.9919 289.494 20.9439 287.31 20.9439ZM287.842 18.5639C290.53 18.5639 292.182 16.5759 292.182 13.7199C292.182 10.9199 290.53 8.90391 287.842 8.90391C285.154 8.90391 283.586 10.9199 283.586 13.7199C283.586 16.5479 285.154 18.5639 287.842 18.5639ZM297.743 13.4119C297.743 9.54791 300.235 6.52391 304.211 6.52391C306.423 6.52391 308.131 7.53191 308.999 9.23991L309.195 6.91591H311.547V20.0479C311.547 24.3599 308.887 27.1039 304.687 27.1039C300.963 27.1039 298.415 25.0039 297.911 21.5319H300.543C300.879 23.5479 302.391 24.7239 304.687 24.7239C307.263 24.7239 308.943 23.0439 308.943 20.4399V17.6959C308.047 19.2919 306.255 20.2439 304.099 20.2439C300.207 20.2439 297.743 17.2479 297.743 13.4119ZM300.375 13.3559C300.375 15.9319 301.971 17.9479 304.547 17.9479C307.207 17.9479 308.831 16.0439 308.831 13.3559C308.831 10.7239 307.263 8.81991 304.575 8.81991C301.943 8.81991 300.375 10.8359 300.375 13.3559ZM321.253 20.9439C317.221 20.9439 314.449 18.0319 314.449 13.7759C314.449 9.49191 317.165 6.52391 321.141 6.52391C325.033 6.52391 327.581 9.21191 327.581 13.2719V14.2519L316.997 14.2799C317.193 17.1639 318.705 18.7599 321.309 18.7599C323.353 18.7599 324.697 17.9199 325.145 16.3519H327.609C326.937 19.2919 324.641 20.9439 321.253 20.9439ZM321.141 8.73591C318.845 8.73591 317.389 10.1079 317.053 12.5159H324.949C324.949 10.2479 323.465 8.73591 321.141 8.73591ZM334.248 20.6079H331.616V9.12791H328.928V6.91591H331.616V2.63191H334.248V6.91591H336.936V9.12791H334.248V20.6079ZM338.179 16.6319H340.699C340.699 18.0319 341.763 18.8719 343.499 18.8719C345.347 18.8719 346.411 18.1159 346.411 16.8559C346.411 15.9319 345.963 15.3719 344.535 15.0079L342.127 14.4479C339.691 13.8599 338.543 12.6559 338.543 10.6399C338.543 8.11991 340.671 6.52391 343.695 6.52391C346.691 6.52391 348.651 8.20391 348.707 10.8079H346.187C346.131 9.43591 345.207 8.56791 343.611 8.56791C341.959 8.56791 341.035 9.29591 341.035 10.5559C341.035 11.4799 341.707 12.0959 343.051 12.4319L345.459 13.0199C347.783 13.5799 348.931 14.6439 348.931 16.6879C348.931 19.2919 346.691 20.9439 343.443 20.9439C340.223 20.9439 338.179 19.2359 338.179 16.6319ZM355.633 19.5159C355.633 21.5319 354.121 23.2119 352.133 23.4639V22.2879C353.281 22.0919 354.093 21.3359 354.093 20.4679C353.897 20.5799 353.673 20.6359 353.337 20.6359C352.413 20.6359 351.629 19.9639 351.629 18.9279C351.629 17.8079 352.385 16.9959 353.505 16.9959C354.681 16.9959 355.633 17.9759 355.633 19.5159ZM367.08 26.7399V6.91591H369.46L369.656 9.37991C370.58 7.50391 372.428 6.52391 374.612 6.52391C378.532 6.52391 380.968 9.46391 380.968 13.6639C380.968 17.8359 378.672 20.9719 374.612 20.9719C372.428 20.9719 370.608 20.0479 369.712 18.3679V26.7399H367.08ZM369.74 13.7759C369.74 16.5759 371.364 18.5919 374.052 18.5919C376.74 18.5919 378.336 16.5759 378.336 13.7759C378.336 10.9479 376.74 8.93191 374.052 8.93191C371.364 8.93191 369.74 10.9199 369.74 13.7759ZM389.777 20.9439C385.745 20.9439 382.973 18.0319 382.973 13.7759C382.973 9.49191 385.689 6.52391 389.665 6.52391C393.557 6.52391 396.105 9.21191 396.105 13.2719V14.2519L385.521 14.2799C385.717 17.1639 387.229 18.7599 389.833 18.7599C391.877 18.7599 393.221 17.9199 393.669 16.3519H396.133C395.461 19.2919 393.165 20.9439 389.777 20.9439ZM389.665 8.73591C387.369 8.73591 385.913 10.1079 385.577 12.5159H393.473C393.473 10.2479 391.989 8.73591 389.665 8.73591ZM406.885 6.80391V9.21191H405.709C403.217 9.21191 401.677 10.7239 401.677 13.3559V20.6079H399.045V6.94391H401.509L401.677 9.01591C402.237 7.58791 403.609 6.63591 405.485 6.63591C405.961 6.63591 406.353 6.69191 406.885 6.80391ZM410.641 3.66791C409.689 3.66791 408.905 2.88391 408.905 1.93191C408.905 0.95191 409.689 0.195909 410.641 0.195909C411.593 0.195909 412.377 0.95191 412.377 1.93191C412.377 2.88391 411.593 3.66791 410.641 3.66791ZM409.353 20.6079V6.91591H411.985V20.6079H409.353ZM415.806 26.7399V6.91591H418.186L418.382 9.37991C419.306 7.50391 421.154 6.52391 423.338 6.52391C427.258 6.52391 429.694 9.46391 429.694 13.6639C429.694 17.8359 427.398 20.9719 423.338 20.9719C421.154 20.9719 419.334 20.0479 418.438 18.3679V26.7399H415.806ZM418.466 13.7759C418.466 16.5759 420.09 18.5919 422.778 18.5919C425.466 18.5919 427.062 16.5759 427.062 13.7759C427.062 10.9479 425.466 8.93191 422.778 8.93191C420.09 8.93191 418.466 10.9199 418.466 13.7759ZM435.227 20.5799H432.595V-9.15527e-05H435.227V9.01591C436.095 7.53191 437.747 6.52391 439.875 6.52391C443.375 6.52391 445.055 8.73591 445.055 12.2359V20.6079H442.423V12.8239C442.423 10.0519 441.107 8.93191 439.147 8.93191C436.599 8.93191 435.227 10.7799 435.227 13.1319V20.5799ZM454.609 20.9439C450.577 20.9439 447.805 18.0319 447.805 13.7759C447.805 9.49191 450.521 6.52391 454.497 6.52391C458.389 6.52391 460.937 9.21191 460.937 13.2719V14.2519L450.353 14.2799C450.549 17.1639 452.061 18.7599 454.665 18.7599C456.709 18.7599 458.053 17.9199 458.501 16.3519H460.965C460.293 19.2919 457.997 20.9439 454.609 20.9439ZM454.497 8.73591C452.201 8.73591 450.745 10.1079 450.409 12.5159H458.305C458.305 10.2479 456.821 8.73591 454.497 8.73591ZM471.717 6.80391V9.21191H470.541C468.049 9.21191 466.509 10.7239 466.509 13.3559V20.6079H463.877V6.94391H466.341L466.509 9.01591C467.069 7.58791 468.441 6.63591 470.317 6.63591C470.793 6.63591 471.185 6.69191 471.717 6.80391ZM477.642 20.9439C474.702 20.9439 472.966 19.2919 472.966 16.7999C472.966 14.2799 474.842 12.7119 478.062 12.4599L482.374 12.1239V11.7319C482.374 9.43591 481.002 8.62391 479.154 8.62391C476.942 8.62391 475.682 9.60391 475.682 11.2559H473.386C473.386 8.39991 475.738 6.52391 479.266 6.52391C482.654 6.52391 484.95 8.31591 484.95 12.0119V20.6079H482.71L482.43 18.3959C481.73 19.9639 479.854 20.9439 477.642 20.9439ZM478.398 18.8999C480.89 18.8999 482.402 17.2759 482.402 14.6999V13.9719L478.902 14.2519C476.578 14.4759 475.626 15.3719 475.626 16.7159C475.626 18.1719 476.69 18.8999 478.398 18.8999ZM491.283 20.6079H488.651V-9.15527e-05H491.283V20.6079ZM494.038 16.6319H496.558C496.558 18.0319 497.622 18.8719 499.358 18.8719C501.206 18.8719 502.27 18.1159 502.27 16.8559C502.27 15.9319 501.822 15.3719 500.394 15.0079L497.986 14.4479C495.55 13.8599 494.402 12.6559 494.402 10.6399C494.402 8.11991 496.53 6.52391 499.554 6.52391C502.55 6.52391 504.51 8.20391 504.566 10.8079H502.046C501.99 9.43591 501.066 8.56791 499.47 8.56791C497.818 8.56791 496.894 9.29591 496.894 10.5559C496.894 11.4799 497.566 12.0959 498.91 12.4319L501.318 13.0199C503.642 13.5799 504.79 14.6439 504.79 16.6879C504.79 19.2919 502.55 20.9439 499.302 20.9439C496.082 20.9439 494.038 19.2359 494.038 16.6319ZM511.493 19.5159C511.493 21.5319 509.981 23.2119 507.993 23.4639V22.2879C509.141 22.0919 509.953 21.3359 509.953 20.4679C509.757 20.5799 509.533 20.6359 509.197 20.6359C508.273 20.6359 507.489 19.9639 507.489 18.9279C507.489 17.8079 508.245 16.9959 509.365 16.9959C510.541 16.9959 511.493 17.9759 511.493 19.5159ZM526.943 20.9439C524.003 20.9439 522.267 19.2919 522.267 16.7999C522.267 14.2799 524.143 12.7119 527.363 12.4599L531.675 12.1239V11.7319C531.675 9.43591 530.303 8.62391 528.455 8.62391C526.243 8.62391 524.983 9.60391 524.983 11.2559H522.687C522.687 8.39991 525.039 6.52391 528.567 6.52391C531.955 6.52391 534.251 8.31591 534.251 12.0119V20.6079H532.011L531.731 18.3959C531.031 19.9639 529.155 20.9439 526.943 20.9439ZM527.699 18.8999C530.191 18.8999 531.703 17.2759 531.703 14.6999V13.9719L528.203 14.2519C525.879 14.4759 524.927 15.3719 524.927 16.7159C524.927 18.1719 525.991 18.8999 527.699 18.8999ZM540.528 20.6079H537.896V6.91591H540.276L540.556 9.01591C541.424 7.44791 543.16 6.52391 545.092 6.52391C548.704 6.52391 550.356 8.73591 550.356 12.2359V20.6079H547.724V12.8239C547.724 10.0519 546.436 8.93191 544.42 8.93191C541.956 8.93191 540.528 10.6959 540.528 13.3559V20.6079ZM559.49 20.9439C555.514 20.9439 553.106 17.9759 553.106 13.8039C553.106 9.60391 555.542 6.52391 559.602 6.52391C561.702 6.52391 563.466 7.44791 564.39 9.12791V-9.15527e-05H566.994V20.6079H564.642L564.418 18.1159C563.522 19.9919 561.674 20.9439 559.49 20.9439ZM560.022 18.5639C562.71 18.5639 564.362 16.5759 564.362 13.7199C564.362 10.9199 562.71 8.90391 560.022 8.90391C557.334 8.90391 555.766 10.9199 555.766 13.7199C555.766 16.5479 557.334 18.5639 560.022 18.5639ZM583.935 20.9439C579.959 20.9439 577.551 17.9759 577.551 13.8039C577.551 9.60391 579.987 6.52391 584.047 6.52391C586.147 6.52391 587.911 7.44791 588.835 9.12791V-9.15527e-05H591.439V20.6079H589.087L588.863 18.1159C587.967 19.9919 586.119 20.9439 583.935 20.9439ZM584.467 18.5639C587.155 18.5639 588.807 16.5759 588.807 13.7199C588.807 10.9199 587.155 8.90391 584.467 8.90391C581.779 8.90391 580.211 10.9199 580.211 13.7199C580.211 16.5479 581.779 18.5639 584.467 18.5639ZM601.144 20.9439C597.112 20.9439 594.34 18.0319 594.34 13.7759C594.34 9.49191 597.056 6.52391 601.032 6.52391C604.924 6.52391 607.472 9.21191 607.472 13.2719V14.2519L596.888 14.2799C597.084 17.1639 598.596 18.7599 601.2 18.7599C603.244 18.7599 604.588 17.9199 605.036 16.3519H607.5C606.828 19.2919 604.532 20.9439 601.144 20.9439ZM601.032 8.73591C598.736 8.73591 597.28 10.1079 596.944 12.5159H604.84C604.84 10.2479 603.356 8.73591 601.032 8.73591ZM613.783 20.6079L608.267 6.91591H611.067L614.063 14.5599C614.539 15.8479 614.931 16.9959 615.155 17.8359C615.379 16.9399 615.827 15.7639 616.303 14.5599L619.355 6.91591H622.099L616.387 20.6079H613.783ZM625.481 3.66791C624.529 3.66791 623.745 2.88391 623.745 1.93191C623.745 0.95191 624.529 0.195909 625.481 0.195909C626.433 0.195909 627.217 0.95191 627.217 1.93191C627.217 2.88391 626.433 3.66791 625.481 3.66791ZM624.193 20.6079V6.91591H626.825V20.6079H624.193ZM629.75 13.7759C629.75 9.49191 632.466 6.52391 636.47 6.52391C639.914 6.52391 642.322 8.48391 642.798 11.5359H640.166C639.718 9.79991 638.318 8.87591 636.554 8.87591C634.062 8.87591 632.354 10.7799 632.354 13.7479C632.354 16.6879 633.95 18.5919 636.442 18.5919C638.318 18.5919 639.718 17.6119 640.194 15.9879H642.826C642.294 18.9559 639.746 20.9439 636.442 20.9439C632.41 20.9439 629.75 18.0879 629.75 13.7759ZM651.511 20.9439C647.479 20.9439 644.707 18.0319 644.707 13.7759C644.707 9.49191 647.423 6.52391 651.399 6.52391C655.291 6.52391 657.839 9.21191 657.839 13.2719V14.2519L647.255 14.2799C647.451 17.1639 648.963 18.7599 651.567 18.7599C653.611 18.7599 654.955 17.9199 655.403 16.3519H657.867C657.195 19.2919 654.899 20.9439 651.511 20.9439ZM651.399 8.73591C649.103 8.73591 647.647 10.1079 647.311 12.5159H655.207C655.207 10.2479 653.723 8.73591 651.399 8.73591ZM660.639 14.3639V12.0119H669.179V14.3639H660.639ZM680.678 6.80391V9.21191H679.502C677.01 9.21191 675.47 10.7239 675.47 13.3559V20.6079H672.838V6.94391H675.302L675.47 9.01591C676.03 7.58791 677.402 6.63591 679.278 6.63591C679.754 6.63591 680.146 6.69191 680.678 6.80391ZM688.562 20.9439C684.53 20.9439 681.758 18.0319 681.758 13.7759C681.758 9.49191 684.474 6.52391 688.45 6.52391C692.342 6.52391 694.89 9.21191 694.89 13.2719V14.2519L684.306 14.2799C684.502 17.1639 686.014 18.7599 688.618 18.7599C690.662 18.7599 692.006 17.9199 692.454 16.3519H694.918C694.246 19.2919 691.95 20.9439 688.562 20.9439ZM688.45 8.73591C686.154 8.73591 684.698 10.1079 684.362 12.5159H692.258C692.258 10.2479 690.774 8.73591 688.45 8.73591ZM700.518 20.6079H697.886V-9.15527e-05H700.518V20.6079ZM708.396 20.9439C705.456 20.9439 703.72 19.2919 703.72 16.7999C703.72 14.2799 705.596 12.7119 708.816 12.4599L713.128 12.1239V11.7319C713.128 9.43591 711.756 8.62391 709.908 8.62391C707.696 8.62391 706.436 9.60391 706.436 11.2559H704.14C704.14 8.39991 706.492 6.52391 710.02 6.52391C713.408 6.52391 715.704 8.31591 715.704 12.0119V20.6079H713.464L713.184 18.3959C712.484 19.9639 710.608 20.9439 708.396 20.9439ZM709.152 18.8999C711.644 18.8999 713.156 17.2759 713.156 14.6999V13.9719L709.656 14.2519C707.332 14.4759 706.38 15.3719 706.38 16.7159C706.38 18.1719 707.444 18.8999 709.152 18.8999ZM722.995 20.6079H720.363V9.12791H717.675V6.91591H720.363V2.63191H722.995V6.91591H725.683V9.12791H722.995V20.6079ZM733.816 20.9439C729.784 20.9439 727.012 18.0319 727.012 13.7759C727.012 9.49191 729.728 6.52391 733.704 6.52391C737.596 6.52391 740.144 9.21191 740.144 13.2719V14.2519L729.56 14.2799C729.756 17.1639 731.268 18.7599 733.872 18.7599C735.916 18.7599 737.26 17.9199 737.708 16.3519H740.172C739.5 19.2919 737.204 20.9439 733.816 20.9439ZM733.704 8.73591C731.408 8.73591 729.952 10.1079 729.616 12.5159H737.512C737.512 10.2479 736.028 8.73591 733.704 8.73591ZM748.572 20.9439C744.596 20.9439 742.188 17.9759 742.188 13.8039C742.188 9.60391 744.624 6.52391 748.684 6.52391C750.784 6.52391 752.548 7.44791 753.472 9.12791V-9.15527e-05H756.076V20.6079H753.724L753.5 18.1159C752.604 19.9919 750.756 20.9439 748.572 20.9439ZM749.104 18.5639C751.792 18.5639 753.444 16.5759 753.444 13.7199C753.444 10.9199 751.792 8.90391 749.104 8.90391C746.416 8.90391 744.848 10.9199 744.848 13.7199C744.848 16.5479 746.416 18.5639 749.104 18.5639ZM766.409 16.6319H768.929C768.929 18.0319 769.993 18.8719 771.729 18.8719C773.577 18.8719 774.641 18.1159 774.641 16.8559C774.641 15.9319 774.193 15.3719 772.765 15.0079L770.357 14.4479C767.921 13.8599 766.773 12.6559 766.773 10.6399C766.773 8.11991 768.901 6.52391 771.925 6.52391C774.921 6.52391 776.881 8.20391 776.937 10.8079H774.417C774.361 9.43591 773.437 8.56791 771.841 8.56791C770.189 8.56791 769.265 9.29591 769.265 10.5559C769.265 11.4799 769.937 12.0959 771.281 12.4319L773.689 13.0199C776.013 13.5799 777.161 14.6439 777.161 16.6879C777.161 19.2919 774.921 20.9439 771.673 20.9439C768.453 20.9439 766.409 19.2359 766.409 16.6319ZM783.944 20.6079H781.312V9.12791H778.624V6.91591H781.312V2.63191H783.944V6.91591H786.632V9.12791H783.944V20.6079ZM792.834 20.9439C789.894 20.9439 788.158 19.2919 788.158 16.7999C788.158 14.2799 790.034 12.7119 793.254 12.4599L797.566 12.1239V11.7319C797.566 9.43591 796.194 8.62391 794.346 8.62391C792.134 8.62391 790.874 9.60391 790.874 11.2559H788.578C788.578 8.39991 790.93 6.52391 794.458 6.52391C797.846 6.52391 800.142 8.31591 800.142 12.0119V20.6079H797.902L797.622 18.3959C796.922 19.9639 795.046 20.9439 792.834 20.9439ZM793.59 18.8999C796.082 18.8999 797.594 17.2759 797.594 14.6999V13.9719L794.094 14.2519C791.77 14.4759 790.818 15.3719 790.818 16.7159C790.818 18.1719 791.882 18.8999 793.59 18.8999ZM807.432 20.6079H804.8V9.12791H802.112V6.91591H804.8V2.63191H807.432V6.91591H810.12V9.12791H807.432V20.6079ZM818.253 20.9439C814.221 20.9439 811.449 18.0319 811.449 13.7759C811.449 9.49191 814.165 6.52391 818.141 6.52391C822.033 6.52391 824.581 9.21191 824.581 13.2719V14.2519L813.997 14.2799C814.193 17.1639 815.705 18.7599 818.309 18.7599C820.353 18.7599 821.697 17.9199 822.145 16.3519H824.609C823.937 19.2919 821.641 20.9439 818.253 20.9439ZM818.141 8.73591C815.845 8.73591 814.389 10.1079 814.053 12.5159H821.949C821.949 10.2479 820.465 8.73591 818.141 8.73591ZM826.401 16.6319H828.921C828.921 18.0319 829.985 18.8719 831.721 18.8719C833.569 18.8719 834.633 18.1159 834.633 16.8559C834.633 15.9319 834.185 15.3719 832.757 15.0079L830.349 14.4479C827.913 13.8599 826.765 12.6559 826.765 10.6399C826.765 8.11991 828.893 6.52391 831.917 6.52391C834.913 6.52391 836.873 8.20391 836.929 10.8079H834.409C834.353 9.43591 833.429 8.56791 831.833 8.56791C830.181 8.56791 829.257 9.29591 829.257 10.5559C829.257 11.4799 829.929 12.0959 831.273 12.4319L833.681 13.0199C836.005 13.5799 837.153 14.6439 837.153 16.6879C837.153 19.2919 834.913 20.9439 831.665 20.9439C828.445 20.9439 826.401 19.2359 826.401 16.6319ZM857.192 6.91591H859.796V20.6079H857.444L857.164 18.5359C856.38 19.9639 854.56 20.9439 852.544 20.9439C849.352 20.9439 847.56 18.7879 847.56 15.4279V6.91591H850.192V14.5599C850.192 17.4999 851.452 18.6199 853.468 18.6199C855.876 18.6199 857.192 17.0799 857.192 14.1399V6.91591ZM862.222 16.6319H864.742C864.742 18.0319 865.806 18.8719 867.542 18.8719C869.39 18.8719 870.454 18.1159 870.454 16.8559C870.454 15.9319 870.006 15.3719 868.578 15.0079L866.17 14.4479C863.734 13.8599 862.586 12.6559 862.586 10.6399C862.586 8.11991 864.714 6.52391 867.738 6.52391C870.734 6.52391 872.694 8.20391 872.75 10.8079H870.23C870.174 9.43591 869.25 8.56791 867.654 8.56791C866.002 8.56791 865.078 9.29591 865.078 10.5559C865.078 11.4799 865.75 12.0959 867.094 12.4319L869.502 13.0199C871.826 13.5799 872.974 14.6439 872.974 16.6879C872.974 19.2919 870.734 20.9439 867.486 20.9439C864.266 20.9439 862.222 19.2359 862.222 16.6319ZM881.8 20.9439C877.768 20.9439 874.996 18.0319 874.996 13.7759C874.996 9.49191 877.712 6.52391 881.688 6.52391C885.58 6.52391 888.128 9.21191 888.128 13.2719V14.2519L877.544 14.2799C877.74 17.1639 879.252 18.7599 881.856 18.7599C883.9 18.7599 885.244 17.9199 885.692 16.3519H888.156C887.484 19.2919 885.188 20.9439 881.8 20.9439ZM881.688 8.73591C879.392 8.73591 877.936 10.1079 877.6 12.5159H885.496C885.496 10.2479 884.012 8.73591 881.688 8.73591ZM896.556 20.9439C892.58 20.9439 890.172 17.9759 890.172 13.8039C890.172 9.60391 892.608 6.52391 896.668 6.52391C898.768 6.52391 900.532 7.44791 901.456 9.12791V-9.15527e-05H904.06V20.6079H901.708L901.484 18.1159C900.588 19.9919 898.74 20.9439 896.556 20.9439ZM897.088 18.5639C899.776 18.5639 901.428 16.5759 901.428 13.7199C901.428 10.9199 899.776 8.90391 897.088 8.90391C894.4 8.90391 892.832 10.9199 892.832 13.7199C892.832 16.5479 894.4 18.5639 897.088 18.5639ZM919.517 20.9439C916.577 20.9439 914.841 19.2919 914.841 16.7999C914.841 14.2799 916.717 12.7119 919.937 12.4599L924.249 12.1239V11.7319C924.249 9.43591 922.877 8.62391 921.029 8.62391C918.817 8.62391 917.557 9.60391 917.557 11.2559H915.261C915.261 8.39991 917.613 6.52391 921.141 6.52391C924.529 6.52391 926.825 8.31591 926.825 12.0119V20.6079H924.585L924.305 18.3959C923.605 19.9639 921.729 20.9439 919.517 20.9439ZM920.273 18.8999C922.765 18.8999 924.277 17.2759 924.277 14.6999V13.9719L920.777 14.2519C918.453 14.4759 917.501 15.3719 917.501 16.7159C917.501 18.1719 918.565 18.8999 920.273 18.8999ZM929.574 13.7759C929.574 9.49191 932.29 6.52391 936.294 6.52391C939.738 6.52391 942.146 8.48391 942.622 11.5359H939.99C939.542 9.79991 938.142 8.87591 936.378 8.87591C933.886 8.87591 932.178 10.7799 932.178 13.7479C932.178 16.6879 933.774 18.5919 936.266 18.5919C938.142 18.5919 939.542 17.6119 940.018 15.9879H942.65C942.118 18.9559 939.57 20.9439 936.266 20.9439C932.234 20.9439 929.574 18.0879 929.574 13.7759ZM953.267 6.80391V9.21191H952.091C949.599 9.21191 948.059 10.7239 948.059 13.3559V20.6079H945.427V6.94391H947.891L948.059 9.01591C948.619 7.58791 949.991 6.63591 951.867 6.63591C952.343 6.63591 952.735 6.69191 953.267 6.80391ZM954.348 13.7479C954.348 9.51991 957.372 6.55191 961.488 6.55191C965.576 6.55191 968.6 9.51991 968.6 13.7479C968.6 17.9759 965.576 20.9439 961.488 20.9439C957.372 20.9439 954.348 17.9759 954.348 13.7479ZM957.008 13.7479C957.008 16.6039 958.828 18.5919 961.488 18.5919C964.12 18.5919 965.968 16.6039 965.968 13.7479C965.968 10.8919 964.12 8.90391 961.488 8.90391C958.828 8.90391 957.008 10.8919 957.008 13.7479ZM970.393 16.6319H972.913C972.913 18.0319 973.977 18.8719 975.713 18.8719C977.561 18.8719 978.625 18.1159 978.625 16.8559C978.625 15.9319 978.177 15.3719 976.749 15.0079L974.341 14.4479C971.905 13.8599 970.757 12.6559 970.757 10.6399C970.757 8.11991 972.885 6.52391 975.909 6.52391C978.905 6.52391 980.865 8.20391 980.921 10.8079H978.401C978.345 9.43591 977.421 8.56791 975.825 8.56791C974.173 8.56791 973.249 9.29591 973.249 10.5559C973.249 11.4799 973.921 12.0959 975.265 12.4319L977.673 13.0199C979.997 13.5799 981.145 14.6439 981.145 16.6879C981.145 19.2919 978.905 20.9439 975.657 20.9439C972.437 20.9439 970.393 19.2359 970.393 16.6319ZM982.944 16.6319H985.464C985.464 18.0319 986.528 18.8719 988.264 18.8719C990.112 18.8719 991.176 18.1159 991.176 16.8559C991.176 15.9319 990.728 15.3719 989.3 15.0079L986.892 14.4479C984.456 13.8599 983.308 12.6559 983.308 10.6399C983.308 8.11991 985.436 6.52391 988.46 6.52391C991.456 6.52391 993.416 8.20391 993.472 10.8079H990.952C990.896 9.43591 989.972 8.56791 988.376 8.56791C986.724 8.56791 985.8 9.29591 985.8 10.5559C985.8 11.4799 986.472 12.0959 987.816 12.4319L990.224 13.0199C992.548 13.5799 993.696 14.6439 993.696 16.6879C993.696 19.2919 991.456 20.9439 988.208 20.9439C984.988 20.9439 982.944 19.2359 982.944 16.6319ZM1009.76 20.9439C1005.78 20.9439 1003.38 17.9759 1003.38 13.8039C1003.38 9.60391 1005.81 6.52391 1009.87 6.52391C1011.97 6.52391 1013.74 7.44791 1014.66 9.12791V-9.15527e-05H1017.26V20.6079H1014.91L1014.69 18.1159C1013.79 19.9919 1011.94 20.9439 1009.76 20.9439ZM1010.29 18.5639C1012.98 18.5639 1014.63 16.5759 1014.63 13.7199C1014.63 10.9199 1012.98 8.90391 1010.29 8.90391C1007.6 8.90391 1006.04 10.9199 1006.04 13.7199C1006.04 16.5479 1007.6 18.5639 1010.29 18.5639ZM1025.06 20.9439C1022.12 20.9439 1020.39 19.2919 1020.39 16.7999C1020.39 14.2799 1022.26 12.7119 1025.48 12.4599L1029.8 12.1239V11.7319C1029.8 9.43591 1028.42 8.62391 1026.58 8.62391C1024.36 8.62391 1023.1 9.60391 1023.1 11.2559H1020.81C1020.81 8.39991 1023.16 6.52391 1026.69 6.52391C1030.08 6.52391 1032.37 8.31591 1032.37 12.0119V20.6079H1030.13L1029.85 18.3959C1029.15 19.9639 1027.28 20.9439 1025.06 20.9439ZM1025.82 18.8999C1028.31 18.8999 1029.82 17.2759 1029.82 14.6999V13.9719L1026.32 14.2519C1024 14.4759 1023.05 15.3719 1023.05 16.7159C1023.05 18.1719 1024.11 18.8999 1025.82 18.8999ZM1034.9 16.6319H1037.42C1037.42 18.0319 1038.48 18.8719 1040.22 18.8719C1042.07 18.8719 1043.13 18.1159 1043.13 16.8559C1043.13 15.9319 1042.68 15.3719 1041.25 15.0079L1038.85 14.4479C1036.41 13.8599 1035.26 12.6559 1035.26 10.6399C1035.26 8.11991 1037.39 6.52391 1040.41 6.52391C1043.41 6.52391 1045.37 8.20391 1045.43 10.8079H1042.91C1042.85 9.43591 1041.93 8.56791 1040.33 8.56791C1038.68 8.56791 1037.75 9.29591 1037.75 10.5559C1037.75 11.4799 1038.43 12.0959 1039.77 12.4319L1042.18 13.0199C1044.5 13.5799 1045.65 14.6439 1045.65 16.6879C1045.65 19.2919 1043.41 20.9439 1040.16 20.9439C1036.94 20.9439 1034.9 19.2359 1034.9 16.6319ZM1051.2 20.5799H1048.57V-9.15527e-05H1051.2V9.01591C1052.07 7.53191 1053.72 6.52391 1055.85 6.52391C1059.35 6.52391 1061.03 8.73591 1061.03 12.2359V20.6079H1058.4V12.8239C1058.4 10.0519 1057.08 8.93191 1055.12 8.93191C1052.57 8.93191 1051.2 10.7799 1051.2 13.1319V20.5799ZM1067.05 20.6079H1064.67V-9.15527e-05H1067.31V9.26791C1068.2 7.47591 1070.05 6.52391 1072.29 6.52391C1076.21 6.52391 1078.56 9.60391 1078.56 13.8319C1078.56 17.9759 1076.1 20.9439 1072.12 20.9439C1069.97 20.9439 1068.15 19.9919 1067.25 18.1159L1067.05 20.6079ZM1067.33 13.7199C1067.33 16.5759 1068.96 18.5639 1071.65 18.5639C1074.33 18.5639 1075.93 16.5479 1075.93 13.7199C1075.93 10.9199 1074.33 8.90391 1071.65 8.90391C1068.96 8.90391 1067.33 10.9199 1067.33 13.7199ZM1080.57 13.7479C1080.57 9.51991 1083.59 6.55191 1087.71 6.55191C1091.79 6.55191 1094.82 9.51991 1094.82 13.7479C1094.82 17.9759 1091.79 20.9439 1087.71 20.9439C1083.59 20.9439 1080.57 17.9759 1080.57 13.7479ZM1083.23 13.7479C1083.23 16.6039 1085.05 18.5919 1087.71 18.5919C1090.34 18.5919 1092.19 16.6039 1092.19 13.7479C1092.19 10.8919 1090.34 8.90391 1087.71 8.90391C1085.05 8.90391 1083.23 10.8919 1083.23 13.7479ZM1101.74 20.9439C1098.8 20.9439 1097.06 19.2919 1097.06 16.7999C1097.06 14.2799 1098.94 12.7119 1102.16 12.4599L1106.47 12.1239V11.7319C1106.47 9.43591 1105.1 8.62391 1103.25 8.62391C1101.04 8.62391 1099.78 9.60391 1099.78 11.2559H1097.48C1097.48 8.39991 1099.83 6.52391 1103.36 6.52391C1106.75 6.52391 1109.04 8.31591 1109.04 12.0119V20.6079H1106.8L1106.52 18.3959C1105.82 19.9639 1103.95 20.9439 1101.74 20.9439ZM1102.49 18.8999C1104.98 18.8999 1106.5 17.2759 1106.5 14.6999V13.9719L1103 14.2519C1100.67 14.4759 1099.72 15.3719 1099.72 16.7159C1099.72 18.1719 1100.78 18.8999 1102.49 18.8999ZM1120.53 6.80391V9.21191H1119.35C1116.86 9.21191 1115.32 10.7239 1115.32 13.3559V20.6079H1112.69V6.94391H1115.15L1115.32 9.01591C1115.88 7.58791 1117.25 6.63591 1119.13 6.63591C1119.61 6.63591 1120 6.69191 1120.53 6.80391ZM1127.99 20.9439C1124.02 20.9439 1121.61 17.9759 1121.61 13.8039C1121.61 9.60391 1124.05 6.52391 1128.11 6.52391C1130.21 6.52391 1131.97 7.44791 1132.89 9.12791V-9.15527e-05H1135.5V20.6079H1133.15L1132.92 18.1159C1132.03 19.9919 1130.18 20.9439 1127.99 20.9439ZM1128.53 18.5639C1131.21 18.5639 1132.87 16.5759 1132.87 13.7199C1132.87 10.9199 1131.21 8.90391 1128.53 8.90391C1125.84 8.90391 1124.27 10.9199 1124.27 13.7199C1124.27 16.5479 1125.84 18.5639 1128.53 18.5639ZM1138.17 16.6319H1140.69C1140.69 18.0319 1141.76 18.8719 1143.49 18.8719C1145.34 18.8719 1146.41 18.1159 1146.41 16.8559C1146.41 15.9319 1145.96 15.3719 1144.53 15.0079L1142.12 14.4479C1139.69 13.8599 1138.54 12.6559 1138.54 10.6399C1138.54 8.11991 1140.67 6.52391 1143.69 6.52391C1146.69 6.52391 1148.65 8.20391 1148.7 10.8079H1146.18C1146.13 9.43591 1145.2 8.56791 1143.61 8.56791C1141.95 8.56791 1141.03 9.29591 1141.03 10.5559C1141.03 11.4799 1141.7 12.0959 1143.05 12.4319L1145.45 13.0199C1147.78 13.5799 1148.93 14.6439 1148.93 16.6879C1148.93 19.2919 1146.69 20.9439 1143.44 20.9439C1140.22 20.9439 1138.17 19.2359 1138.17 16.6319ZM1155.63 19.5159C1155.63 21.5319 1154.12 23.2119 1152.13 23.4639V22.2879C1153.28 22.0919 1154.09 21.3359 1154.09 20.4679C1153.89 20.5799 1153.67 20.6359 1153.33 20.6359C1152.41 20.6359 1151.63 19.9639 1151.63 18.9279C1151.63 17.8079 1152.38 16.9959 1153.5 16.9959C1154.68 16.9959 1155.63 17.9759 1155.63 19.5159ZM1165.96 16.6319H1168.48C1168.48 18.0319 1169.54 18.8719 1171.28 18.8719C1173.12 18.8719 1174.19 18.1159 1174.19 16.8559C1174.19 15.9319 1173.74 15.3719 1172.31 15.0079L1169.9 14.4479C1167.47 13.8599 1166.32 12.6559 1166.32 10.6399C1166.32 8.11991 1168.45 6.52391 1171.47 6.52391C1174.47 6.52391 1176.43 8.20391 1176.48 10.8079H1173.96C1173.91 9.43591 1172.98 8.56791 1171.39 8.56791C1169.74 8.56791 1168.81 9.29591 1168.81 10.5559C1168.81 11.4799 1169.48 12.0959 1170.83 12.4319L1173.24 13.0199C1175.56 13.5799 1176.71 14.6439 1176.71 16.6879C1176.71 19.2919 1174.47 20.9439 1171.22 20.9439C1168 20.9439 1165.96 19.2359 1165.96 16.6319ZM1185.53 20.9439C1181.5 20.9439 1178.73 18.0319 1178.73 13.7759C1178.73 9.49191 1181.45 6.52391 1185.42 6.52391C1189.31 6.52391 1191.86 9.21191 1191.86 13.2719V14.2519L1181.28 14.2799C1181.47 17.1639 1182.99 18.7599 1185.59 18.7599C1187.63 18.7599 1188.98 17.9199 1189.43 16.3519H1191.89C1191.22 19.2919 1188.92 20.9439 1185.53 20.9439ZM1185.42 8.73591C1183.13 8.73591 1181.67 10.1079 1181.33 12.5159H1189.23C1189.23 10.2479 1187.75 8.73591 1185.42 8.73591ZM1198.53 20.6079H1195.9V9.12791H1193.21V6.91591H1195.9V2.63191H1198.53V6.91591H1201.22V9.12791H1198.53V20.6079ZM1207.69 20.6079H1205.06V9.12791H1202.37V6.91591H1205.06V2.63191H1207.69V6.91591H1210.38V9.12791H1207.69V20.6079ZM1214.03 3.66791C1213.08 3.66791 1212.29 2.88391 1212.29 1.93191C1212.29 0.95191 1213.08 0.195909 1214.03 0.195909C1214.98 0.195909 1215.76 0.95191 1215.76 1.93191C1215.76 2.88391 1214.98 3.66791 1214.03 3.66791ZM1212.74 20.6079V6.91591H1215.37V20.6079H1212.74ZM1221.83 20.6079H1219.19V6.91591H1221.57L1221.85 9.01591C1222.72 7.44791 1224.46 6.52391 1226.39 6.52391C1230 6.52391 1231.65 8.73591 1231.65 12.2359V20.6079H1229.02V12.8239C1229.02 10.0519 1227.73 8.93191 1225.72 8.93191C1223.25 8.93191 1221.83 10.6959 1221.83 13.3559V20.6079ZM1234.43 13.4119C1234.43 9.54791 1236.92 6.52391 1240.9 6.52391C1243.11 6.52391 1244.82 7.53191 1245.69 9.23991L1245.88 6.91591H1248.23V20.0479C1248.23 24.3599 1245.57 27.1039 1241.37 27.1039C1237.65 27.1039 1235.1 25.0039 1234.6 21.5319H1237.23C1237.57 23.5479 1239.08 24.7239 1241.37 24.7239C1243.95 24.7239 1245.63 23.0439 1245.63 20.4399V17.6959C1244.73 19.2919 1242.94 20.2439 1240.79 20.2439C1236.89 20.2439 1234.43 17.2479 1234.43 13.4119ZM1237.06 13.3559C1237.06 15.9319 1238.66 17.9479 1241.23 17.9479C1243.89 17.9479 1245.52 16.0439 1245.52 13.3559C1245.52 10.7239 1243.95 8.81991 1241.26 8.81991C1238.63 8.81991 1237.06 10.8359 1237.06 13.3559ZM1250.91 16.6319H1253.43C1253.43 18.0319 1254.5 18.8719 1256.23 18.8719C1258.08 18.8719 1259.14 18.1159 1259.14 16.8559C1259.14 15.9319 1258.7 15.3719 1257.27 15.0079L1254.86 14.4479C1252.42 13.8599 1251.28 12.6559 1251.28 10.6399C1251.28 8.11991 1253.4 6.52391 1256.43 6.52391C1259.42 6.52391 1261.38 8.20391 1261.44 10.8079H1258.92C1258.86 9.43591 1257.94 8.56791 1256.34 8.56791C1254.69 8.56791 1253.77 9.29591 1253.77 10.5559C1253.77 11.4799 1254.44 12.0959 1255.78 12.4319L1258.19 13.0199C1260.52 13.5799 1261.66 14.6439 1261.66 16.6879C1261.66 19.2919 1259.42 20.9439 1256.18 20.9439C1252.96 20.9439 1250.91 19.2359 1250.91 16.6319ZM1268.37 19.5159C1268.37 21.5319 1266.86 23.2119 1264.87 23.4639V22.2879C1266.02 22.0919 1266.83 21.3359 1266.83 20.4679C1266.63 20.5799 1266.41 20.6359 1266.07 20.6359C1265.15 20.6359 1264.36 19.9639 1264.36 18.9279C1264.36 17.8079 1265.12 16.9959 1266.24 16.9959C1267.42 16.9959 1268.37 17.9759 1268.37 19.5159ZM1278.69 16.6319H1281.21C1281.21 18.0319 1282.28 18.8719 1284.01 18.8719C1285.86 18.8719 1286.93 18.1159 1286.93 16.8559C1286.93 15.9319 1286.48 15.3719 1285.05 15.0079L1282.64 14.4479C1280.21 13.8599 1279.06 12.6559 1279.06 10.6399C1279.06 8.11991 1281.19 6.52391 1284.21 6.52391C1287.21 6.52391 1289.17 8.20391 1289.22 10.8079H1286.7C1286.65 9.43591 1285.72 8.56791 1284.13 8.56791C1282.47 8.56791 1281.55 9.29591 1281.55 10.5559C1281.55 11.4799 1282.22 12.0959 1283.57 12.4319L1285.97 13.0199C1288.3 13.5799 1289.45 14.6439 1289.45 16.6879C1289.45 19.2919 1287.21 20.9439 1283.96 20.9439C1280.74 20.9439 1278.69 19.2359 1278.69 16.6319ZM1290.78 26.7399V24.5839H1292.54C1293.8 24.5839 1294.81 24.3879 1295.45 22.6519L1295.93 21.3359L1290.41 6.91591H1293.18L1297.16 17.9479L1301.22 6.91591H1303.94L1297.47 23.6879C1296.54 26.0399 1295.17 27.0199 1293.07 27.0199C1292.2 27.0199 1291.48 26.9079 1290.78 26.7399ZM1304.73 16.6319H1307.25C1307.25 18.0319 1308.31 18.8719 1310.05 18.8719C1311.89 18.8719 1312.96 18.1159 1312.96 16.8559C1312.96 15.9319 1312.51 15.3719 1311.08 15.0079L1308.67 14.4479C1306.24 13.8599 1305.09 12.6559 1305.09 10.6399C1305.09 8.11991 1307.22 6.52391 1310.24 6.52391C1313.24 6.52391 1315.2 8.20391 1315.25 10.8079H1312.73C1312.68 9.43591 1311.75 8.56791 1310.16 8.56791C1308.51 8.56791 1307.58 9.29591 1307.58 10.5559C1307.58 11.4799 1308.25 12.0959 1309.6 12.4319L1312.01 13.0199C1314.33 13.5799 1315.48 14.6439 1315.48 16.6879C1315.48 19.2919 1313.24 20.9439 1309.99 20.9439C1306.77 20.9439 1304.73 19.2359 1304.73 16.6319ZM1322.26 20.6079H1319.63V9.12791H1316.94V6.91591H1319.63V2.63191H1322.26V6.91591H1324.95V9.12791H1322.26V20.6079ZM1333.08 20.9439C1329.05 20.9439 1326.28 18.0319 1326.28 13.7759C1326.28 9.49191 1328.99 6.52391 1332.97 6.52391C1336.86 6.52391 1339.41 9.21191 1339.41 13.2719V14.2519L1328.83 14.2799C1329.02 17.1639 1330.53 18.7599 1333.14 18.7599C1335.18 18.7599 1336.53 17.9199 1336.97 16.3519H1339.44C1338.77 19.2919 1336.47 20.9439 1333.08 20.9439ZM1332.97 8.73591C1330.67 8.73591 1329.22 10.1079 1328.88 12.5159H1336.78C1336.78 10.2479 1335.29 8.73591 1332.97 8.73591ZM1344.98 20.6079H1342.35V6.91591H1344.7L1344.95 8.70791C1345.65 7.41991 1347.11 6.52391 1349.04 6.52391C1351.17 6.52391 1352.68 7.58791 1353.38 9.29591C1354.03 7.58791 1355.68 6.52391 1357.81 6.52391C1360.94 6.52391 1362.85 8.48391 1362.85 11.6479V20.6079H1360.27V12.2919C1360.27 10.1359 1359.07 8.90391 1357.22 8.90391C1355.23 8.90391 1353.91 10.3039 1353.91 12.4879V20.6079H1351.31V12.2639C1351.31 10.1079 1350.13 8.93191 1348.29 8.93191C1346.3 8.93191 1344.98 10.3039 1344.98 12.4879V20.6079ZM1378.01 20.6079H1375.38V9.12791H1372.69V6.91591H1375.38V2.63191H1378.01V6.91591H1380.7V9.12791H1378.01V20.6079ZM1382.03 13.7479C1382.03 9.51991 1385.06 6.55191 1389.17 6.55191C1393.26 6.55191 1396.28 9.51991 1396.28 13.7479C1396.28 17.9759 1393.26 20.9439 1389.17 20.9439C1385.06 20.9439 1382.03 17.9759 1382.03 13.7479ZM1384.69 13.7479C1384.69 16.6039 1386.51 18.5919 1389.17 18.5919C1391.8 18.5919 1393.65 16.6039 1393.65 13.7479C1393.65 10.8919 1391.8 8.90391 1389.17 8.90391C1386.51 8.90391 1384.69 10.8919 1384.69 13.7479ZM1398.3 13.7479C1398.3 9.51991 1401.32 6.55191 1405.44 6.55191C1409.53 6.55191 1412.55 9.51991 1412.55 13.7479C1412.55 17.9759 1409.53 20.9439 1405.44 20.9439C1401.32 20.9439 1398.3 17.9759 1398.3 13.7479ZM1400.96 13.7479C1400.96 16.6039 1402.78 18.5919 1405.44 18.5919C1408.07 18.5919 1409.92 16.6039 1409.92 13.7479C1409.92 10.8919 1408.07 8.90391 1405.44 8.90391C1402.78 8.90391 1400.96 10.8919 1400.96 13.7479ZM1418.15 20.6079H1415.52V-9.15527e-05H1418.15V20.6079ZM1420.91 16.6319H1423.43C1423.43 18.0319 1424.49 18.8719 1426.23 18.8719C1428.08 18.8719 1429.14 18.1159 1429.14 16.8559C1429.14 15.9319 1428.69 15.3719 1427.27 15.0079L1424.86 14.4479C1422.42 13.8599 1421.27 12.6559 1421.27 10.6399C1421.27 8.11991 1423.4 6.52391 1426.43 6.52391C1429.42 6.52391 1431.38 8.20391 1431.44 10.8079H1428.92C1428.86 9.43591 1427.94 8.56791 1426.34 8.56791C1424.69 8.56791 1423.77 9.29591 1423.77 10.5559C1423.77 11.4799 1424.44 12.0959 1425.78 12.4319L1428.19 13.0199C1430.51 13.5799 1431.66 14.6439 1431.66 16.6879C1431.66 19.2919 1429.42 20.9439 1426.17 20.9439C1422.95 20.9439 1420.91 19.2359 1420.91 16.6319ZM1438.36 19.5159C1438.36 21.5319 1436.85 23.2119 1434.86 23.4639V22.2879C1436.01 22.0919 1436.82 21.3359 1436.82 20.4679C1436.63 20.5799 1436.4 20.6359 1436.07 20.6359C1435.14 20.6359 1434.36 19.9639 1434.36 18.9279C1434.36 17.8079 1435.12 16.9959 1436.24 16.9959C1437.41 16.9959 1438.36 17.9759 1438.36 19.5159ZM1453.81 20.9439C1450.87 20.9439 1449.14 19.2919 1449.14 16.7999C1449.14 14.2799 1451.01 12.7119 1454.23 12.4599L1458.55 12.1239V11.7319C1458.55 9.43591 1457.17 8.62391 1455.33 8.62391C1453.11 8.62391 1451.85 9.60391 1451.85 11.2559H1449.56C1449.56 8.39991 1451.91 6.52391 1455.44 6.52391C1458.83 6.52391 1461.12 8.31591 1461.12 12.0119V20.6079H1458.88L1458.6 18.3959C1457.9 19.9639 1456.03 20.9439 1453.81 20.9439ZM1454.57 18.8999C1457.06 18.8999 1458.57 17.2759 1458.57 14.6999V13.9719L1455.07 14.2519C1452.75 14.4759 1451.8 15.3719 1451.8 16.7159C1451.8 18.1719 1452.86 18.8999 1454.57 18.8999ZM1467.4 20.6079H1464.77V6.91591H1467.15L1467.43 9.01591C1468.3 7.44791 1470.03 6.52391 1471.96 6.52391C1475.58 6.52391 1477.23 8.73591 1477.23 12.2359V20.6079H1474.6V12.8239C1474.6 10.0519 1473.31 8.93191 1471.29 8.93191C1468.83 8.93191 1467.4 10.6959 1467.4 13.3559V20.6079ZM1486.36 20.9439C1482.38 20.9439 1479.98 17.9759 1479.98 13.8039C1479.98 9.60391 1482.41 6.52391 1486.47 6.52391C1488.57 6.52391 1490.34 7.44791 1491.26 9.12791V-9.15527e-05H1493.86V20.6079H1491.51L1491.29 18.1159C1490.39 19.9919 1488.54 20.9439 1486.36 20.9439ZM1486.89 18.5639C1489.58 18.5639 1491.23 16.5759 1491.23 13.7199C1491.23 10.9199 1489.58 8.90391 1486.89 8.90391C1484.2 8.90391 1482.64 10.9199 1482.64 13.7199C1482.64 16.5479 1484.2 18.5639 1486.89 18.5639ZM1509.18 20.6079H1506.55V9.12791H1503.86V6.91591H1506.55V2.63191H1509.18V6.91591H1511.87V9.12791H1509.18V20.6079ZM1520 20.9439C1515.97 20.9439 1513.2 18.0319 1513.2 13.7759C1513.2 9.49191 1515.92 6.52391 1519.89 6.52391C1523.78 6.52391 1526.33 9.21191 1526.33 13.2719V14.2519L1515.75 14.2799C1515.94 17.1639 1517.46 18.7599 1520.06 18.7599C1522.1 18.7599 1523.45 17.9199 1523.9 16.3519H1526.36C1525.69 19.2919 1523.39 20.9439 1520 20.9439ZM1519.89 8.73591C1517.6 8.73591 1516.14 10.1079 1515.8 12.5159H1523.7C1523.7 10.2479 1522.22 8.73591 1519.89 8.73591ZM1528.38 13.7759C1528.38 9.49191 1531.09 6.52391 1535.1 6.52391C1538.54 6.52391 1540.95 8.48391 1541.42 11.5359H1538.79C1538.34 9.79991 1536.94 8.87591 1535.18 8.87591C1532.69 8.87591 1530.98 10.7799 1530.98 13.7479C1530.98 16.6879 1532.58 18.5919 1535.07 18.5919C1536.94 18.5919 1538.34 17.6119 1538.82 15.9879H1541.45C1540.92 18.9559 1538.37 20.9439 1535.07 20.9439C1531.04 20.9439 1528.38 18.0879 1528.38 13.7759ZM1546.86 20.5799H1544.23V-9.15527e-05H1546.86V9.01591C1547.73 7.53191 1549.38 6.52391 1551.51 6.52391C1555.01 6.52391 1556.69 8.73591 1556.69 12.2359V20.6079H1554.06V12.8239C1554.06 10.0519 1552.74 8.93191 1550.78 8.93191C1548.23 8.93191 1546.86 10.7799 1546.86 13.1319V20.5799ZM1569.28 3.66791C1568.33 3.66791 1567.54 2.88391 1567.54 1.93191C1567.54 0.95191 1568.33 0.195909 1569.28 0.195909C1570.23 0.195909 1571.01 0.95191 1571.01 1.93191C1571.01 2.88391 1570.23 3.66791 1569.28 3.66791ZM1567.99 20.6079V6.91591H1570.62V20.6079H1567.99ZM1577.08 20.6079H1574.44V6.91591H1576.82L1577.1 9.01591C1577.97 7.44791 1579.71 6.52391 1581.64 6.52391C1585.25 6.52391 1586.9 8.73591 1586.9 12.2359V20.6079H1584.27V12.8239C1584.27 10.0519 1582.98 8.93191 1580.97 8.93191C1578.5 8.93191 1577.08 10.6959 1577.08 13.3559V20.6079ZM1594.41 20.6079H1591.78V9.12791H1589.09V6.91591H1591.78V2.63191H1594.41V6.91591H1597.1V9.12791H1594.41V20.6079ZM1605.23 20.9439C1601.2 20.9439 1598.43 18.0319 1598.43 13.7759C1598.43 9.49191 1601.15 6.52391 1605.12 6.52391C1609.01 6.52391 1611.56 9.21191 1611.56 13.2719V14.2519L1600.98 14.2799C1601.17 17.1639 1602.69 18.7599 1605.29 18.7599C1607.33 18.7599 1608.68 17.9199 1609.13 16.3519H1611.59C1610.92 19.2919 1608.62 20.9439 1605.23 20.9439ZM1605.12 8.73591C1602.83 8.73591 1601.37 10.1079 1601.03 12.5159H1608.93C1608.93 10.2479 1607.45 8.73591 1605.12 8.73591ZM1622.34 6.80391V9.21191H1621.17C1618.67 9.21191 1617.13 10.7239 1617.13 13.3559V20.6079H1614.5V6.94391H1616.97L1617.13 9.01591C1617.69 7.58791 1619.07 6.63591 1620.94 6.63591C1621.42 6.63591 1621.81 6.69191 1622.34 6.80391ZM1623.9 6.91591H1625.92V4.73191C1625.92 1.37191 1627.77 -9.15527e-05 1630.26 -9.15527e-05C1630.76 -9.15527e-05 1631.35 0.0279098 1631.88 0.111909V2.37991H1630.71C1629 2.37991 1628.55 3.24791 1628.55 4.73191V6.91591H1631.8V9.12791H1628.55V20.6079H1625.92V9.12791H1623.9V6.91591ZM1637.81 20.9439C1634.87 20.9439 1633.13 19.2919 1633.13 16.7999C1633.13 14.2799 1635.01 12.7119 1638.23 12.4599L1642.54 12.1239V11.7319C1642.54 9.43591 1641.17 8.62391 1639.32 8.62391C1637.11 8.62391 1635.85 9.60391 1635.85 11.2559H1633.55C1633.55 8.39991 1635.91 6.52391 1639.43 6.52391C1642.82 6.52391 1645.12 8.31591 1645.12 12.0119V20.6079H1642.88L1642.6 18.3959C1641.9 19.9639 1640.02 20.9439 1637.81 20.9439ZM1638.57 18.8999C1641.06 18.8999 1642.57 17.2759 1642.57 14.6999V13.9719L1639.07 14.2519C1636.75 14.4759 1635.79 15.3719 1635.79 16.7159C1635.79 18.1719 1636.86 18.8999 1638.57 18.8999ZM1647.87 13.7759C1647.87 9.49191 1650.58 6.52391 1654.59 6.52391C1658.03 6.52391 1660.44 8.48391 1660.92 11.5359H1658.28C1657.84 9.79991 1656.44 8.87591 1654.67 8.87591C1652.18 8.87591 1650.47 10.7799 1650.47 13.7479C1650.47 16.6879 1652.07 18.5919 1654.56 18.5919C1656.44 18.5919 1657.84 17.6119 1658.31 15.9879H1660.94C1660.41 18.9559 1657.86 20.9439 1654.56 20.9439C1650.53 20.9439 1647.87 18.0879 1647.87 13.7759ZM1669.63 20.9439C1665.6 20.9439 1662.82 18.0319 1662.82 13.7759C1662.82 9.49191 1665.54 6.52391 1669.52 6.52391C1673.41 6.52391 1675.96 9.21191 1675.96 13.2719V14.2519L1665.37 14.2799C1665.57 17.1639 1667.08 18.7599 1669.68 18.7599C1671.73 18.7599 1673.07 17.9199 1673.52 16.3519H1675.98C1675.31 19.2919 1673.02 20.9439 1669.63 20.9439ZM1669.52 8.73591C1667.22 8.73591 1665.76 10.1079 1665.43 12.5159H1673.32C1673.32 10.2479 1671.84 8.73591 1669.52 8.73591ZM1677.78 16.6319H1680.3C1680.3 18.0319 1681.36 18.8719 1683.1 18.8719C1684.94 18.8719 1686.01 18.1159 1686.01 16.8559C1686.01 15.9319 1685.56 15.3719 1684.13 15.0079L1681.72 14.4479C1679.29 13.8599 1678.14 12.6559 1678.14 10.6399C1678.14 8.11991 1680.27 6.52391 1683.29 6.52391C1686.29 6.52391 1688.25 8.20391 1688.3 10.8079H1685.78C1685.73 9.43591 1684.8 8.56791 1683.21 8.56791C1681.56 8.56791 1680.63 9.29591 1680.63 10.5559C1680.63 11.4799 1681.3 12.0959 1682.65 12.4319L1685.06 13.0199C1687.38 13.5799 1688.53 14.6439 1688.53 16.6879C1688.53 19.2919 1686.29 20.9439 1683.04 20.9439C1679.82 20.9439 1677.78 19.2359 1677.78 16.6319ZM1693.24 20.9439C1692.15 20.9439 1691.23 20.0479 1691.23 18.9839C1691.23 17.8919 1692.15 16.9959 1693.24 16.9959C1694.31 16.9959 1695.23 17.8919 1695.23 18.9839C1695.23 20.0479 1694.31 20.9439 1693.24 20.9439Z" fill="black"/>
</svg>
