<svg width="281" height="36" viewBox="0 0 281 36" fill="none" xmlns="http://www.w3.org/2000/svg">
<path d="M-0.000327945 17.1721V0.468057H4.60767V16.8841C4.60767 20.6641 6.65967 22.7521 10.4037 22.7521C14.1477 22.7521 16.2357 20.6281 16.2357 16.8841V0.468057H20.8437V17.1721C20.8437 23.3281 16.8117 27.2161 10.4037 27.2161C4.03167 27.2161 -0.000327945 23.3641 -0.000327945 17.1721ZM28.9597 26.7841H23.9557L30.0757 18.0721L23.9557 9.00006H29.0677L32.9917 15.0481L36.7717 9.00006H41.7037L35.6557 18.0001L41.5237 26.7841H36.4837L32.7037 20.9161L28.9597 26.7841ZM43.4567 7.81206C43.4567 3.20406 47.2727 5.6982e-05 52.8167 5.6982e-05C58.1447 5.6982e-05 61.5287 2.95206 61.6727 7.70406H57.0647C56.9567 5.43606 55.3367 4.10406 52.7447 4.10406C49.9007 4.10406 48.0647 5.47206 48.0647 7.66806C48.0647 9.54006 49.0727 10.5841 51.2687 11.0881L55.4087 11.9881C59.9087 12.9601 62.1047 15.2641 62.1047 19.1881C62.1047 24.0841 58.2887 27.2521 52.4927 27.2521C46.8767 27.2521 43.2047 24.2641 43.0967 19.5481H47.7047C47.7407 21.7801 49.5407 23.1121 52.4927 23.1121C55.5527 23.1121 57.4967 21.7801 57.4967 19.5841C57.4967 17.8201 56.5967 16.7761 54.4367 16.3081L50.2607 15.3721C45.7967 14.4001 43.4567 11.8441 43.4567 7.81206ZM64.5814 17.8561C64.5814 12.3481 68.2174 8.46006 73.4734 8.46006C78.3334 8.46006 81.6454 11.1601 82.1134 15.4441H77.7214C77.2174 13.4281 75.7414 12.3841 73.6534 12.3841C70.8454 12.3841 68.9734 14.5081 68.9734 17.8561C68.9734 21.2041 70.7014 23.2921 73.5094 23.2921C75.7054 23.2921 77.2534 22.2121 77.7214 20.2681H82.1494C81.6094 24.4081 78.1534 27.2521 73.5094 27.2521C68.1094 27.2521 64.5814 23.5081 64.5814 17.8561ZM97.4784 9.00006H101.87V26.7841H97.8024L97.4784 24.4081C96.3984 26.1001 94.0944 27.2521 91.7184 27.2521C87.6144 27.2521 85.2024 24.4801 85.2024 20.1241V9.00006H89.5944V18.5761C89.5944 21.9601 90.9264 23.3281 93.3744 23.3281C96.1464 23.3281 97.4784 21.7081 97.4784 18.3241V9.00006ZM110.835 26.7841H106.479V5.6982e-05H110.835V26.7841ZM115.442 35.0281V9.00006H119.51L119.798 11.7001C120.878 9.64806 123.218 8.46006 125.918 8.46006C130.922 8.46006 134.234 12.0961 134.234 17.6761C134.234 23.2201 131.21 27.2521 125.918 27.2521C123.254 27.2521 120.95 26.2081 119.834 24.4081V35.0281H115.442ZM119.87 17.8921C119.87 21.0961 121.85 23.2921 124.874 23.2921C127.97 23.2921 129.806 21.0601 129.806 17.8921C129.806 14.7241 127.97 12.4561 124.874 12.4561C121.85 12.4561 119.87 14.6881 119.87 17.8921ZM143.603 26.7841H139.211V12.6721H135.791V9.00006H139.211V3.45606H143.603V9.00006H147.059V12.6721H143.603V26.7841ZM174.541 16.0201H164.749V26.7841H160.141V0.468057H176.413V4.71606H164.749V11.8801H174.541V16.0201ZM189.989 8.92806V12.9961H188.369C185.201 12.9961 183.221 14.6881 183.221 18.1441V26.7841H178.829V9.03606H182.969L183.221 11.6281C183.977 9.86406 185.669 8.67606 188.045 8.67606C188.657 8.67606 189.269 8.74806 189.989 8.92806ZM200.32 27.2521C195.028 27.2521 191.32 23.4001 191.32 17.8921C191.32 12.3121 194.956 8.46006 200.176 8.46006C205.504 8.46006 208.888 12.0241 208.888 17.5681V18.9001L195.496 18.9361C195.82 22.0681 197.476 23.6521 200.392 23.6521C202.804 23.6521 204.388 22.7161 204.892 21.0241H208.96C208.204 24.9121 204.964 27.2521 200.32 27.2521ZM200.212 12.0601C197.62 12.0601 196.036 13.4641 195.604 16.1281H204.532C204.532 13.6801 202.84 12.0601 200.212 12.0601ZM220.359 27.2521C215.067 27.2521 211.359 23.4001 211.359 17.8921C211.359 12.3121 214.995 8.46006 220.215 8.46006C225.543 8.46006 228.927 12.0241 228.927 17.5681V18.9001L215.535 18.9361C215.859 22.0681 217.515 23.6521 220.431 23.6521C222.843 23.6521 224.427 22.7161 224.931 21.0241H228.999C228.243 24.9121 225.003 27.2521 220.359 27.2521ZM220.251 12.0601C217.659 12.0601 216.075 13.4641 215.643 16.1281H224.571C224.571 13.6801 222.879 12.0601 220.251 12.0601ZM236.51 26.7841H232.442V5.6982e-05H236.834V11.5921C237.986 9.61206 240.362 8.42406 243.062 8.42406C248.138 8.42406 251.234 12.3841 251.234 18.0001C251.234 23.4721 247.886 27.2521 242.774 27.2521C240.11 27.2521 237.842 26.0641 236.798 24.0121L236.51 26.7841ZM236.87 17.8201C236.87 21.0241 238.85 23.2201 241.874 23.2201C244.97 23.2201 246.806 20.9881 246.806 17.8201C246.806 14.6521 244.97 12.3841 241.874 12.3841C238.85 12.3841 236.87 14.6161 236.87 17.8201ZM256.927 5.43606C255.415 5.43606 254.227 4.24806 254.227 2.77206C254.227 1.29606 255.415 0.144057 256.927 0.144057C258.367 0.144057 259.555 1.29606 259.555 2.77206C259.555 4.24806 258.367 5.43606 256.927 5.43606ZM254.731 26.7841V9.00006H259.123V26.7841H254.731ZM271.617 27.2521C266.325 27.2521 262.617 23.4001 262.617 17.8921C262.617 12.3121 266.253 8.46006 271.473 8.46006C276.801 8.46006 280.185 12.0241 280.185 17.5681V18.9001L266.793 18.9361C267.117 22.0681 268.773 23.6521 271.689 23.6521C274.101 23.6521 275.685 22.7161 276.189 21.0241H280.257C279.501 24.9121 276.261 27.2521 271.617 27.2521ZM271.509 12.0601C268.917 12.0601 267.333 13.4641 266.901 16.1281H275.829C275.829 13.6801 274.137 12.0601 271.509 12.0601Z" fill="black"/>
</svg>
