<svg width="139" height="20" viewBox="0 0 139 20" fill="none" xmlns="http://www.w3.org/2000/svg">
<path d="M0.000111014 15.1279V0.582475H5.32682C6.35901 0.582475 7.21365 0.752929 7.89074 1.09384C8.56782 1.43001 9.07445 1.88693 9.41062 2.46458C9.7468 3.03749 9.91488 3.6838 9.91488 4.4035C9.91488 5.00956 9.80362 5.52092 9.58108 5.93759C9.35854 6.34952 9.06024 6.68096 8.68619 6.93191C8.31687 7.17812 7.90968 7.35804 7.4646 7.47168V7.61372C7.94755 7.6374 8.41867 7.79365 8.87795 8.08247C9.34197 8.36657 9.72549 8.7714 10.0285 9.29696C10.3316 9.82253 10.4831 10.4617 10.4831 11.2146C10.4831 11.9579 10.3079 12.6256 9.9575 13.2174C9.61185 13.8045 9.07682 14.2709 8.35238 14.6166C7.62795 14.9575 6.70229 15.1279 5.5754 15.1279H0.000111014ZM2.19471 13.2458H5.36233C6.41346 13.2458 7.1663 13.0422 7.62085 12.635C8.0754 12.2278 8.30267 11.7188 8.30267 11.108C8.30267 10.6488 8.18666 10.2274 7.95466 9.84384C7.72265 9.46032 7.39121 9.15492 6.96034 8.92765C6.5342 8.70037 6.02757 8.58674 5.44045 8.58674H2.19471V13.2458ZM2.19471 6.87509H5.13505C5.62748 6.87509 6.07019 6.78039 6.46318 6.591C6.86091 6.4016 7.17577 6.13645 7.40778 5.79554C7.64452 5.4499 7.7629 5.0427 7.7629 4.57395C7.7629 3.97263 7.55219 3.46837 7.13079 3.06117C6.70939 2.65397 6.06308 2.45037 5.19187 2.45037H2.19471V6.87509ZM16.0903 15.3694C15.399 15.3694 14.774 15.2416 14.2153 14.9859C13.6566 14.7255 13.2139 14.349 12.8872 13.8566C12.5652 13.3642 12.4042 12.7605 12.4042 12.0455C12.4042 11.43 12.5226 10.9234 12.7593 10.5257C12.9961 10.1279 13.3157 9.81306 13.7182 9.58105C14.1206 9.34905 14.5704 9.17386 15.0676 9.05549C15.5647 8.93712 16.0714 8.84715 16.5875 8.7856C17.2409 8.70984 17.7712 8.64829 18.1784 8.60094C18.5856 8.54886 18.8815 8.466 19.0662 8.35236C19.2508 8.23872 19.3432 8.05407 19.3432 7.79838V7.74867C19.3432 7.1284 19.168 6.64782 18.8176 6.30691C18.4719 5.966 17.9558 5.79554 17.2693 5.79554C16.5543 5.79554 15.9909 5.95416 15.5789 6.2714C15.1717 6.5839 14.89 6.93191 14.7338 7.31543L12.738 6.86088C12.9748 6.19801 13.3204 5.66297 13.775 5.25577C14.2342 4.84384 14.7622 4.54554 15.3588 4.36088C15.9554 4.17149 16.5827 4.07679 17.2409 4.07679C17.6765 4.07679 18.1381 4.12888 18.6258 4.23304C19.1182 4.33248 19.5775 4.51713 20.0037 4.78702C20.4345 5.05691 20.7873 5.4428 21.0619 5.94469C21.3365 6.44185 21.4738 7.08816 21.4738 7.88361V15.1279H19.4V13.6365H19.3147C19.1774 13.9111 18.9715 14.181 18.6968 14.4461C18.4222 14.7113 18.0695 14.9314 17.6386 15.1066C17.2077 15.2818 16.6916 15.3694 16.0903 15.3694ZM16.552 13.6649C17.1391 13.6649 17.641 13.5489 18.0576 13.3169C18.479 13.0848 18.7986 12.7818 19.0164 12.4078C19.239 12.029 19.3503 11.6241 19.3503 11.1933V9.78702C19.2745 9.86278 19.1277 9.9338 18.9099 10.0001C18.6968 10.0616 18.453 10.1161 18.1784 10.1634C17.9038 10.2061 17.6362 10.2463 17.3758 10.2842C17.1154 10.3173 16.8976 10.3457 16.7224 10.3694C16.3105 10.4215 15.9341 10.5091 15.5932 10.6322C15.257 10.7553 14.9871 10.9329 14.7835 11.1649C14.5846 11.3921 14.4852 11.6952 14.4852 12.074C14.4852 12.5995 14.6793 12.9972 15.0676 13.2671C15.4558 13.5323 15.9506 13.6649 16.552 13.6649ZM28.8975 15.3481C27.8416 15.3481 26.9325 15.109 26.1702 14.6308C25.4126 14.1478 24.8302 13.4826 24.4231 12.635C24.0159 11.7875 23.8123 10.8168 23.8123 9.7231C23.8123 8.61515 24.0206 7.6374 24.4373 6.78986C24.8539 5.93759 25.441 5.27234 26.1986 4.79412C26.9562 4.3159 27.8487 4.07679 28.8762 4.07679C29.7048 4.07679 30.4434 4.23068 31.0921 4.53844C31.7408 4.84147 32.264 5.26761 32.6617 5.81685C33.0641 6.36609 33.3033 7.00766 33.379 7.74157H31.3123C31.1986 7.2302 30.9382 6.78986 30.531 6.42054C30.1285 6.05122 29.5888 5.86657 28.9117 5.86657C28.3198 5.86657 27.8014 6.02282 27.3563 6.33532C26.9159 6.64308 26.5727 7.08342 26.3265 7.65634C26.0802 8.22452 25.9571 8.89687 25.9571 9.67338C25.9571 10.4688 26.0779 11.1554 26.3194 11.733C26.5608 12.3107 26.9017 12.7581 27.3421 13.0754C27.7872 13.3926 28.3104 13.5512 28.9117 13.5512C29.3141 13.5512 29.6787 13.4778 30.0054 13.3311C30.3369 13.1795 30.6139 12.9641 30.8364 12.6847C31.0637 12.4054 31.2223 12.0692 31.3123 11.6762H33.379C33.3033 12.3817 33.0736 13.0115 32.6901 13.5654C32.3066 14.1194 31.7928 14.555 31.1489 14.8722C30.5097 15.1895 29.7592 15.3481 28.8975 15.3481ZM37.6031 11.4276L37.5889 8.83532H37.9582L42.3048 4.21884H44.8474L39.89 9.47452H39.5562L37.6031 11.4276ZM35.65 15.1279V0.582475H37.7735V15.1279H35.65ZM42.5392 15.1279L38.6329 9.94327L40.096 8.4589L45.1457 15.1279H42.5392ZM57.1681 4.21884V5.92338H51.2093V4.21884H57.1681ZM52.8073 1.6052H54.9309V11.9248C54.9309 12.3367 54.9924 12.6469 55.1155 12.8552C55.2386 13.0588 55.3972 13.1985 55.5914 13.2742C55.7902 13.3453 56.0057 13.3808 56.2377 13.3808C56.4081 13.3808 56.5573 13.3689 56.6851 13.3453C56.813 13.3216 56.9124 13.3026 56.9834 13.2884L57.3669 15.0427C57.2438 15.0901 57.0686 15.1374 56.8414 15.1847C56.6141 15.2368 56.33 15.2652 55.9891 15.27C55.4304 15.2794 54.9096 15.18 54.4266 14.9717C53.9436 14.7633 53.553 14.4414 53.2547 14.0058C52.9564 13.5702 52.8073 13.0233 52.8073 12.3651V1.6052ZM63.9951 15.3481C62.9724 15.3481 62.0799 15.1137 61.3176 14.645C60.5553 14.1762 59.9634 13.5204 59.542 12.6776C59.1206 11.8348 58.9099 10.85 58.9099 9.7231C58.9099 8.59147 59.1206 7.60189 59.542 6.75435C59.9634 5.90681 60.5553 5.24867 61.3176 4.77992C62.0799 4.31117 62.9724 4.07679 63.9951 4.07679C65.0179 4.07679 65.9104 4.31117 66.6727 4.77992C67.435 5.24867 68.0269 5.90681 68.4483 6.75435C68.8697 7.60189 69.0804 8.59147 69.0804 9.7231C69.0804 10.85 68.8697 11.8348 68.4483 12.6776C68.0269 13.5204 67.435 14.1762 66.6727 14.645C65.9104 15.1137 65.0179 15.3481 63.9951 15.3481ZM64.0022 13.5654C64.6651 13.5654 65.2144 13.3902 65.65 13.0399C66.0856 12.6895 66.4075 12.2231 66.6159 11.6407C66.8289 11.0583 66.9355 10.4168 66.9355 9.716C66.9355 9.01997 66.8289 8.38077 66.6159 7.79838C66.4075 7.21126 66.0856 6.74015 65.65 6.38503C65.2144 6.02992 64.6651 5.85236 64.0022 5.85236C63.3346 5.85236 62.7807 6.02992 62.3403 6.38503C61.9047 6.74015 61.5804 7.21126 61.3673 7.79838C61.159 8.38077 61.0548 9.01997 61.0548 9.716C61.0548 10.4168 61.159 11.0583 61.3673 11.6407C61.5804 12.2231 61.9047 12.6895 62.3403 13.0399C62.7807 13.3902 63.3346 13.5654 64.0022 13.5654ZM84.8474 4.4035C84.7717 3.73115 84.4592 3.21032 83.9099 2.841C83.3607 2.46694 82.6694 2.27992 81.836 2.27992C81.2395 2.27992 80.7234 2.37462 80.2878 2.56401C79.8521 2.74867 79.5136 3.00435 79.2721 3.33105C79.0354 3.65302 78.917 4.01997 78.917 4.43191C78.917 4.77755 78.9975 5.07585 79.1585 5.32679C79.3242 5.57774 79.5396 5.78844 79.8048 5.9589C80.0747 6.12461 80.3635 6.26429 80.6713 6.37793C80.979 6.48683 81.275 6.57679 81.5591 6.64782L82.9795 7.01713C83.4435 7.13077 83.9194 7.28465 84.4071 7.47878C84.8948 7.67291 85.3469 7.92859 85.7636 8.24583C86.1803 8.56306 86.5164 8.95605 86.7721 9.4248C87.0325 9.89355 87.1628 10.4546 87.1628 11.108C87.1628 11.9319 86.9497 12.6634 86.5235 13.3026C86.1021 13.9419 85.489 14.4461 84.6841 14.8154C83.8839 15.1847 82.9156 15.3694 81.7792 15.3694C80.6902 15.3694 79.748 15.1966 78.9525 14.8509C78.1571 14.5053 77.5344 14.0152 77.0846 13.3808C76.6348 12.7416 76.3862 11.984 76.3389 11.108H78.5406C78.5832 11.6336 78.7537 12.0716 79.052 12.422C79.355 12.7676 79.7409 13.0257 80.2096 13.1961C80.6831 13.3618 81.2016 13.4447 81.765 13.4447C82.3853 13.4447 82.9369 13.3476 83.4199 13.1535C83.9075 12.9546 84.2911 12.68 84.5704 12.3296C84.8498 11.9745 84.9895 11.5602 84.9895 11.0867C84.9895 10.6559 84.8664 10.3031 84.6201 10.0285C84.3787 9.75388 84.0496 9.5266 83.6329 9.34668C83.221 9.16676 82.7546 9.00814 82.2338 8.87083L80.515 8.40208C79.3503 8.08484 78.427 7.61846 77.7451 7.00293C77.0681 6.3874 76.7295 5.57301 76.7295 4.55975C76.7295 3.72168 76.9568 2.99014 77.4113 2.36514C77.8659 1.74014 78.4814 1.25482 79.2579 0.90918C80.0344 0.558801 80.9104 0.383611 81.8858 0.383611C82.8706 0.383611 83.7395 0.556433 84.4923 0.902077C85.2499 1.24772 85.8465 1.72357 86.2821 2.32963C86.7177 2.93096 86.945 3.62225 86.9639 4.4035H84.8474ZM89.6148 15.1279V4.21884H91.7384V15.1279H89.6148ZM90.6873 2.5356C90.3179 2.5356 90.0007 2.41249 89.7356 2.16628C89.4751 1.91533 89.3449 1.61704 89.3449 1.27139C89.3449 0.921016 89.4751 0.622721 89.7356 0.376508C90.0007 0.125562 90.3179 8.84533e-05 90.6873 8.84533e-05C91.0566 8.84533e-05 91.3714 0.125562 91.6319 0.376508C91.897 0.622721 92.0296 0.921016 92.0296 1.27139C92.0296 1.61704 91.897 1.91533 91.6319 2.16628C91.3714 2.41249 91.0566 2.5356 90.6873 2.5356ZM99.1691 19.4461C98.3027 19.4461 97.5569 19.3325 96.9319 19.1052C96.3117 18.8779 95.805 18.5773 95.412 18.2032C95.0191 17.8292 94.7255 17.4196 94.5314 16.9745L96.3566 16.2217C96.4845 16.43 96.6549 16.6502 96.868 16.8822C97.0858 17.1189 97.3794 17.3202 97.7487 17.4859C98.1227 17.6516 98.6033 17.7345 99.1905 17.7345C99.9954 17.7345 100.661 17.538 101.186 17.145C101.712 16.7567 101.975 16.1365 101.975 15.2842V13.1393H101.84C101.712 13.3713 101.527 13.6294 101.286 13.9134C101.049 14.1975 100.722 14.4437 100.306 14.6521C99.8888 14.8604 99.3467 14.9646 98.6791 14.9646C97.8173 14.9646 97.0408 14.7633 96.3495 14.3609C95.663 13.9537 95.1185 13.3547 94.716 12.564C94.3183 11.7686 94.1194 10.7908 94.1194 9.63077C94.1194 8.47073 94.3159 7.47641 94.7089 6.64782C95.1066 5.81922 95.6512 5.18475 96.3424 4.74441C97.0337 4.29933 97.8173 4.07679 98.6933 4.07679C99.3704 4.07679 99.9173 4.19043 100.334 4.4177C100.751 4.64024 101.075 4.90066 101.307 5.19895C101.544 5.49725 101.726 5.76003 101.854 5.9873H102.01V4.21884H104.091V15.3694C104.091 16.3069 103.873 17.0763 103.438 17.6776C103.002 18.279 102.413 18.724 101.669 19.0129C100.931 19.3017 100.097 19.4461 99.1691 19.4461ZM99.1478 13.2032C99.7586 13.2032 100.275 13.0612 100.696 12.7771C101.122 12.4883 101.444 12.0763 101.662 11.5413C101.885 11.0015 101.996 10.3552 101.996 9.60236C101.996 8.86846 101.887 8.22215 101.669 7.66344C101.451 7.10473 101.132 6.66912 100.71 6.35662C100.289 6.03939 99.7681 5.88077 99.1478 5.88077C98.5086 5.88077 97.976 6.04649 97.5498 6.37793C97.1237 6.70463 96.8017 7.14971 96.5839 7.71316C96.3708 8.2766 96.2643 8.90634 96.2643 9.60236C96.2643 10.3173 96.3732 10.9447 96.591 11.4845C96.8088 12.0242 97.1308 12.4456 97.5569 12.7487C97.9878 13.0517 98.5181 13.2032 99.1478 13.2032ZM109.063 8.65066V15.1279H106.939V4.21884H108.977V5.99441H109.112C109.363 5.41676 109.756 4.95274 110.291 4.60236C110.831 4.25198 111.511 4.07679 112.33 4.07679C113.073 4.07679 113.724 4.23304 114.283 4.54554C114.841 4.85331 115.275 5.31259 115.582 5.92338C115.89 6.53418 116.044 7.28939 116.044 8.18901V15.1279H113.921V8.44469C113.921 7.65397 113.715 7.03607 113.303 6.591C112.891 6.14119 112.325 5.91628 111.605 5.91628C111.113 5.91628 110.675 6.02282 110.291 6.23588C109.913 6.44895 109.612 6.76145 109.389 7.17338C109.172 7.58058 109.063 8.07301 109.063 8.65066ZM126.55 0.582475V15.1279H124.356V0.582475H126.55ZM131.699 8.65066V15.1279H129.576V4.21884H131.614V5.99441H131.749C132 5.41676 132.393 4.95274 132.928 4.60236C133.468 4.25198 134.147 4.07679 134.966 4.07679C135.71 4.07679 136.361 4.23304 136.92 4.54554C137.478 4.85331 137.911 5.31259 138.219 5.92338C138.527 6.53418 138.681 7.28939 138.681 8.18901V15.1279H136.557V8.44469C136.557 7.65397 136.351 7.03607 135.939 6.591C135.527 6.14119 134.962 5.91628 134.242 5.91628C133.75 5.91628 133.312 6.02282 132.928 6.23588C132.549 6.44895 132.249 6.76145 132.026 7.17338C131.808 7.58058 131.699 8.07301 131.699 8.65066Z" fill="#2B78E4"/>
</svg>
