<svg width="138" height="16" viewBox="0 0 138 16" fill="none" xmlns="http://www.w3.org/2000/svg">
<path d="M4.43757e-05 15.3765V0.83101H9.80118V3.36652H3.07533V6.83243H9.29692V9.36794H3.07533V12.841H9.82959V15.3765H4.43757e-05ZM12.1893 15.3765V4.46737H15.0728V6.39209H15.2007C15.428 5.75289 15.8067 5.24862 16.337 4.8793C16.8674 4.50999 17.5018 4.32533 18.2405 4.32533C18.9886 4.32533 19.6254 4.51235 20.151 4.88641C20.6765 5.25573 21.0269 5.75762 21.2021 6.39209H21.3157C21.5383 5.76709 21.9407 5.26756 22.5231 4.89351C23.1102 4.51472 23.8039 4.32533 24.6041 4.32533C25.6221 4.32533 26.4483 4.64967 27.0828 5.29834C27.722 5.94228 28.0416 6.8561 28.0416 8.03982V15.3765H25.0231V8.63641C25.0231 8.03035 24.8621 7.5758 24.5402 7.27277C24.2182 6.96974 23.8157 6.81823 23.3328 6.81823C22.7835 6.81823 22.355 6.99342 22.0473 7.34379C21.7395 7.68944 21.5856 8.14635 21.5856 8.71453V15.3765H18.6524V8.57249C18.6524 8.03745 18.4985 7.61131 18.1907 7.29408C17.8877 6.97684 17.4876 6.81823 16.9905 6.81823C16.6543 6.81823 16.3513 6.90345 16.0814 7.07391C15.8162 7.23963 15.6055 7.474 15.4493 7.77703C15.293 8.07533 15.2149 8.42571 15.2149 8.82817V15.3765H12.1893ZM33.5423 15.5824C32.8463 15.5824 32.226 15.4617 31.6815 15.2202C31.137 14.974 30.7061 14.6118 30.3889 14.1336C30.0764 13.6506 29.9201 13.0493 29.9201 12.3296C29.9201 11.7235 30.0314 11.2145 30.254 10.8026C30.4765 10.3907 30.7795 10.0592 31.163 9.80828C31.5466 9.55734 31.9822 9.36794 32.4699 9.2401C32.9623 9.11226 33.4784 9.0223 34.0182 8.97021C34.6526 8.90393 35.164 8.84237 35.5522 8.78556C35.9405 8.724 36.2222 8.63404 36.3974 8.51567C36.5726 8.3973 36.6602 8.22211 36.6602 7.9901V7.94749C36.6602 7.49768 36.5182 7.14967 36.2341 6.90345C35.9547 6.65724 35.557 6.53413 35.0409 6.53413C34.4964 6.53413 34.0631 6.65487 33.7412 6.89635C33.4192 7.13309 33.2061 7.43139 33.102 7.79124L30.3037 7.56396C30.4457 6.90109 30.7251 6.32817 31.1417 5.84521C31.5584 5.35752 32.0958 4.98347 32.754 4.72305C33.4168 4.4579 34.1839 4.32533 35.0551 4.32533C35.6611 4.32533 36.2412 4.39635 36.7951 4.5384C37.3539 4.68044 37.8486 4.90061 38.2795 5.19891C38.7151 5.4972 39.0584 5.88073 39.3093 6.34948C39.5603 6.81349 39.6858 7.36984 39.6858 8.01851V15.3765H36.8165V13.8637H36.7312C36.556 14.2046 36.3217 14.5053 36.0281 14.7657C35.7345 15.0214 35.3818 15.2226 34.9699 15.3694C34.5579 15.5114 34.0821 15.5824 33.5423 15.5824ZM34.4088 13.4944C34.8539 13.4944 35.2468 13.4068 35.5878 13.2316C35.9287 13.0517 36.1962 12.8102 36.3903 12.5071C36.5844 12.2041 36.6815 11.8608 36.6815 11.4773V10.3196C36.5868 10.3812 36.4566 10.438 36.2909 10.4901C36.1299 10.5374 35.9476 10.5824 35.744 10.625C35.5404 10.6629 35.3368 10.6984 35.1332 10.7316C34.9296 10.76 34.745 10.786 34.5792 10.8097C34.2241 10.8618 33.914 10.9446 33.6488 11.0583C33.3837 11.1719 33.1777 11.3258 33.0309 11.5199C32.8842 11.7093 32.8108 11.9461 32.8108 12.2302C32.8108 12.6421 32.9599 12.957 33.2582 13.1748C33.5612 13.3878 33.9448 13.4944 34.4088 13.4944ZM42.0331 15.3765V4.46737H45.0586V15.3765H42.0331ZM43.553 3.06112C43.1031 3.06112 42.7173 2.91198 42.3953 2.61368C42.0781 2.31065 41.9194 1.94843 41.9194 1.52703C41.9194 1.11037 42.0781 0.752885 42.3953 0.45459C42.7173 0.151559 43.1031 4.36306e-05 43.553 4.36306e-05C44.0028 4.36306e-05 44.3863 0.151559 44.7035 0.45459C45.0255 0.752885 45.1865 1.11037 45.1865 1.52703C45.1865 1.94843 45.0255 2.31065 44.7035 2.61368C44.3863 2.91198 44.0028 3.06112 43.553 3.06112ZM50.5079 0.83101V15.3765H47.4823V0.83101H50.5079ZM60.1243 15.3765H56.8289L61.8502 0.83101H65.8133L70.8275 15.3765H67.532L63.8885 4.15487H63.7749L60.1243 15.3765ZM59.9184 9.65913H67.7025V12.0597H59.9184V9.65913ZM76.0334 15.554C75.2048 15.554 74.4544 15.341 73.782 14.9148C73.1144 14.4839 72.5841 13.8518 72.1911 13.0185C71.8028 12.1804 71.6087 11.153 71.6087 9.93612C71.6087 8.68612 71.8099 7.64682 72.2124 6.81823C72.6149 5.98489 73.1499 5.36226 73.8175 4.95033C74.4899 4.53366 75.2261 4.32533 76.0263 4.32533C76.6371 4.32533 77.1461 4.4295 77.5533 4.63783C77.9652 4.84143 78.2967 5.09711 78.5476 5.40487C78.8033 5.7079 78.9974 6.0062 79.13 6.29976H79.2223V0.83101H82.2408V15.3765H79.2579V13.6293H79.13C78.988 13.9323 78.7867 14.233 78.5263 14.5313C78.2706 14.8249 77.9368 15.0687 77.5249 15.2628C77.1177 15.457 76.6205 15.554 76.0334 15.554ZM76.9922 13.1464C77.4799 13.1464 77.8919 13.0138 78.228 12.7486C78.5689 12.4787 78.8294 12.1023 79.0093 11.6194C79.1939 11.1364 79.2863 10.5706 79.2863 9.92192C79.2863 9.27325 79.1963 8.7098 79.0164 8.23158C78.8365 7.75336 78.576 7.38404 78.2351 7.12362C77.8942 6.86321 77.4799 6.733 76.9922 6.733C76.4951 6.733 76.076 6.86794 75.7351 7.13783C75.3942 7.40771 75.1362 7.78177 74.961 8.25999C74.7858 8.73821 74.6982 9.29218 74.6982 9.92192C74.6982 10.5564 74.7858 11.1175 74.961 11.6052C75.1409 12.0881 75.399 12.4669 75.7351 12.7415C76.076 13.0114 76.4951 13.1464 76.9922 13.1464ZM88.7483 15.554C87.9197 15.554 87.1692 15.341 86.4968 14.9148C85.8292 14.4839 85.2989 13.8518 84.9059 13.0185C84.5177 12.1804 84.3236 11.153 84.3236 9.93612C84.3236 8.68612 84.5248 7.64682 84.9272 6.81823C85.3297 5.98489 85.8647 5.36226 86.5324 4.95033C87.2047 4.53366 87.941 4.32533 88.7412 4.32533C89.352 4.32533 89.861 4.4295 90.2682 4.63783C90.6801 4.84143 91.0115 5.09711 91.2625 5.40487C91.5182 5.7079 91.7123 6.0062 91.8449 6.29976H91.9372V0.83101H94.9557V15.3765H91.9727V13.6293H91.8449C91.7028 13.9323 91.5016 14.233 91.2412 14.5313C90.9855 14.8249 90.6517 15.0687 90.2397 15.2628C89.8325 15.457 89.3354 15.554 88.7483 15.554ZM89.7071 13.1464C90.1948 13.1464 90.6067 13.0138 90.9429 12.7486C91.2838 12.4787 91.5442 12.1023 91.7241 11.6194C91.9088 11.1364 92.0011 10.5706 92.0011 9.92192C92.0011 9.27325 91.9111 8.7098 91.7312 8.23158C91.5513 7.75336 91.2909 7.38404 90.95 7.12362C90.6091 6.86321 90.1948 6.733 89.7071 6.733C89.2099 6.733 88.7909 6.86794 88.45 7.13783C88.1091 7.40771 87.851 7.78177 87.6758 8.25999C87.5006 8.73821 87.413 9.29218 87.413 9.92192C87.413 10.5564 87.5006 11.1175 87.6758 11.6052C87.8557 12.0881 88.1138 12.4669 88.45 12.7415C88.7909 13.0114 89.2099 13.1464 89.7071 13.1464ZM97.4432 15.3765V4.46737H100.376V6.37078H100.49C100.689 5.6937 101.023 5.18234 101.492 4.83669C101.96 4.48631 102.5 4.31112 103.111 4.31112C103.262 4.31112 103.426 4.32059 103.601 4.33953C103.776 4.35847 103.93 4.38451 104.063 4.41766V7.10232C103.92 7.0597 103.724 7.02182 103.473 6.98868C103.222 6.95554 102.992 6.93896 102.784 6.93896C102.339 6.93896 101.941 7.03603 101.591 7.23016C101.245 7.41955 100.971 7.6847 100.767 8.02561C100.568 8.36652 100.469 8.75951 100.469 9.20459V15.3765H97.4432ZM110.091 15.5895C108.968 15.5895 108.003 15.3623 107.193 14.9077C106.388 14.4484 105.768 13.7998 105.332 12.9617C104.896 12.1189 104.679 11.1222 104.679 9.97163C104.679 8.84948 104.896 7.86463 105.332 7.01709C105.768 6.16955 106.381 5.50904 107.172 5.03555C107.967 4.56207 108.9 4.32533 109.97 4.32533C110.69 4.32533 111.36 4.44133 111.98 4.67334C112.605 4.90061 113.149 5.24389 113.613 5.70317C114.082 6.16245 114.447 6.7401 114.707 7.43612C114.967 8.12741 115.098 8.93707 115.098 9.8651V10.6961H105.886V8.82107H112.25C112.25 8.38546 112.155 7.99957 111.966 7.6634C111.776 7.32722 111.513 7.06444 111.177 6.87504C110.846 6.68092 110.46 6.58385 110.02 6.58385C109.56 6.58385 109.153 6.69039 108.798 6.90345C108.448 7.11179 108.173 7.39351 107.974 7.74862C107.775 8.099 107.673 8.48963 107.669 8.9205V10.7032C107.669 11.2429 107.768 11.7093 107.967 12.1023C108.171 12.4953 108.457 12.7983 108.826 13.0114C109.196 13.2245 109.634 13.331 110.14 13.331C110.476 13.331 110.784 13.2837 111.064 13.189C111.343 13.0943 111.582 12.9522 111.781 12.7628C111.98 12.5734 112.131 12.3414 112.235 12.0668L115.034 12.2515C114.892 12.9238 114.601 13.5109 114.16 14.0128C113.725 14.51 113.161 14.8982 112.47 15.1776C111.783 15.4522 110.99 15.5895 110.091 15.5895ZM126.149 7.57817L123.379 7.74862C123.332 7.51188 123.23 7.29881 123.074 7.10942C122.917 6.91529 122.711 6.76141 122.456 6.64777C122.205 6.5294 121.904 6.47021 121.554 6.47021C121.085 6.47021 120.69 6.56965 120.368 6.76851C120.046 6.96264 119.885 7.22306 119.885 7.54976C119.885 7.81018 119.989 8.03035 120.197 8.21027C120.405 8.3902 120.763 8.53461 121.27 8.64351L123.244 9.04124C124.305 9.25904 125.095 9.60942 125.616 10.0924C126.137 10.5753 126.397 11.2098 126.397 11.9958C126.397 12.7107 126.187 13.3381 125.765 13.8779C125.349 14.4177 124.776 14.8391 124.047 15.1421C123.322 15.4404 122.486 15.5895 121.539 15.5895C120.095 15.5895 118.945 15.2889 118.088 14.6875C117.235 14.0815 116.736 13.2576 116.589 12.216L119.565 12.0597C119.655 12.5 119.873 12.8362 120.218 13.0682C120.564 13.2955 121.007 13.4091 121.547 13.4091C122.077 13.4091 122.503 13.3073 122.825 13.1037C123.152 12.8954 123.317 12.6279 123.322 12.3012C123.317 12.0266 123.201 11.8017 122.974 11.6265C122.747 11.4465 122.396 11.3092 121.923 11.2145L120.034 10.8381C118.968 10.625 118.175 10.2557 117.655 9.73016C117.138 9.20459 116.88 8.53461 116.88 7.72021C116.88 7.01946 117.07 6.41576 117.449 5.90913C117.832 5.40251 118.369 5.01188 119.061 4.73726C119.757 4.46264 120.571 4.32533 121.504 4.32533C122.882 4.32533 123.966 4.61652 124.757 5.19891C125.552 5.78129 126.016 6.57438 126.149 7.57817ZM137.379 7.57817L134.609 7.74862C134.562 7.51188 134.46 7.29881 134.304 7.10942C134.148 6.91529 133.942 6.76141 133.686 6.64777C133.435 6.5294 133.135 6.47021 132.784 6.47021C132.315 6.47021 131.92 6.56965 131.598 6.76851C131.276 6.96264 131.115 7.22306 131.115 7.54976C131.115 7.81018 131.219 8.03035 131.428 8.21027C131.636 8.3902 131.993 8.53461 132.5 8.64351L134.474 9.04124C135.535 9.25904 136.326 9.60942 136.847 10.0924C137.367 10.5753 137.628 11.2098 137.628 11.9958C137.628 12.7107 137.417 13.3381 136.996 13.8779C136.579 14.4177 136.006 14.8391 135.277 15.1421C134.553 15.4404 133.717 15.5895 132.77 15.5895C131.326 15.5895 130.175 15.2889 129.318 14.6875C128.466 14.0815 127.966 13.2576 127.82 12.216L130.795 12.0597C130.885 12.5 131.103 12.8362 131.449 13.0682C131.795 13.2955 132.237 13.4091 132.777 13.4091C133.307 13.4091 133.733 13.3073 134.055 13.1037C134.382 12.8954 134.548 12.6279 134.553 12.3012C134.548 12.0266 134.432 11.8017 134.205 11.6265C133.977 11.4465 133.627 11.3092 133.153 11.2145L131.264 10.8381C130.199 10.625 129.406 10.2557 128.885 9.73016C128.369 9.20459 128.111 8.53461 128.111 7.72021C128.111 7.01946 128.3 6.41576 128.679 5.90913C129.063 5.40251 129.6 5.01188 130.291 4.73726C130.987 4.46264 131.802 4.32533 132.734 4.32533C134.112 4.32533 135.197 4.61652 135.987 5.19891C136.783 5.78129 137.247 6.57438 137.379 7.57817Z" fill="white"/>
</svg>
