<svg width="475" height="20" viewBox="0 0 475 20" fill="none" xmlns="http://www.w3.org/2000/svg">
<path d="M9.3538 0.68184H11.5555V10.2486C11.5555 11.2666 11.3164 12.1686 10.8382 12.9546C10.36 13.7358 9.68761 14.3513 8.82113 14.8012C7.95466 15.2462 6.93903 15.4688 5.77426 15.4688C4.61422 15.4688 3.60096 15.2462 2.73449 14.8012C1.86801 14.3513 1.19566 13.7358 0.717441 12.9546C0.239221 12.1686 0.000111014 11.2666 0.000111014 10.2486V0.68184H2.19471V10.071C2.19471 10.7292 2.33913 11.3139 2.62795 11.8253C2.92151 12.3367 3.33581 12.7391 3.87085 13.0327C4.40589 13.3215 5.04036 13.4659 5.77426 13.4659C6.5129 13.4659 7.14973 13.3215 7.68477 13.0327C8.22454 12.7391 8.63648 12.3367 8.92057 11.8253C9.20939 11.3139 9.3538 10.7292 9.3538 10.071V0.68184ZM14.5758 19.3182V4.3182H16.6496V6.08667H16.8272C16.9503 5.8594 17.1278 5.59661 17.3598 5.29832C17.5918 5.00002 17.9138 4.7396 18.3258 4.51707C18.7377 4.28979 19.2822 4.17616 19.9593 4.17616C20.84 4.17616 21.6259 4.3987 22.3172 4.84377C23.0085 5.28885 23.5507 5.93042 23.9436 6.76849C24.3414 7.60656 24.5402 8.61508 24.5402 9.79406C24.5402 10.973 24.3437 11.9839 23.9508 12.8267C23.5578 13.6648 23.018 14.3111 22.3314 14.7656C21.6449 15.2155 20.8613 15.4404 19.9806 15.4404C19.3177 15.4404 18.7756 15.3291 18.3542 15.1066C17.9375 14.884 17.6108 14.6236 17.374 14.3253C17.1373 14.027 16.955 13.7619 16.8272 13.5299H16.6993V19.3182H14.5758ZM16.6567 9.77275C16.6567 10.5398 16.768 11.2121 16.9905 11.7898C17.2131 12.3674 17.535 12.8196 17.9564 13.1463C18.3778 13.4683 18.8939 13.6293 19.5047 13.6293C20.1392 13.6293 20.6695 13.4612 21.0956 13.125C21.5218 12.7841 21.8437 12.3225 22.0615 11.7401C22.2841 11.1577 22.3954 10.5019 22.3954 9.77275C22.3954 9.05305 22.2865 8.40675 22.0686 7.83383C21.8556 7.26091 21.5336 6.80873 21.1027 6.47729C20.6766 6.14586 20.1439 5.98014 19.5047 5.98014C18.8892 5.98014 18.3684 6.13875 17.9422 6.45599C17.5208 6.77322 17.2012 7.21593 16.9834 7.78411C16.7656 8.35229 16.6567 9.01517 16.6567 9.77275ZM29.0431 0.68184V15.2273H26.9195V0.68184H29.0431ZM36.4951 15.4475C35.4724 15.4475 34.5799 15.2131 33.8176 14.7443C33.0553 14.2756 32.4634 13.6198 32.042 12.777C31.6206 11.9342 31.4099 10.9494 31.4099 9.82246C31.4099 8.69084 31.6206 7.70125 32.042 6.85371C32.4634 6.00618 33.0553 5.34803 33.8176 4.87928C34.5799 4.41053 35.4724 4.17616 36.4951 4.17616C37.5179 4.17616 38.4104 4.41053 39.1727 4.87928C39.935 5.34803 40.5269 6.00618 40.9483 6.85371C41.3697 7.70125 41.5804 8.69084 41.5804 9.82246C41.5804 10.9494 41.3697 11.9342 40.9483 12.777C40.5269 13.6198 39.935 14.2756 39.1727 14.7443C38.4104 15.2131 37.5179 15.4475 36.4951 15.4475ZM36.5022 13.6648C37.1651 13.6648 37.7144 13.4896 38.15 13.1392C38.5856 12.7888 38.9075 12.3225 39.1159 11.7401C39.3289 11.1577 39.4355 10.5161 39.4355 9.81536C39.4355 9.11934 39.3289 8.48014 39.1159 7.89775C38.9075 7.31063 38.5856 6.83951 38.15 6.4844C37.7144 6.12928 37.1651 5.95173 36.5022 5.95173C35.8346 5.95173 35.2807 6.12928 34.8403 6.4844C34.4047 6.83951 34.0804 7.31063 33.8673 7.89775C33.659 8.48014 33.5548 9.11934 33.5548 9.81536C33.5548 10.5161 33.659 11.1577 33.8673 11.7401C34.0804 12.3225 34.4047 12.7888 34.8403 13.1392C35.2807 13.4896 35.8346 13.6648 36.5022 13.6648ZM47.1255 15.4688C46.4342 15.4688 45.8092 15.3409 45.2505 15.0852C44.6918 14.8248 44.249 14.4484 43.9223 13.956C43.6004 13.4636 43.4394 12.8599 43.4394 12.1449C43.4394 11.5294 43.5578 11.0227 43.7945 10.625C44.0312 10.2273 44.3508 9.91243 44.7533 9.68042C45.1558 9.44841 45.6056 9.27322 46.1027 9.15485C46.5999 9.03648 47.1065 8.94652 47.6226 8.88496C48.276 8.80921 48.8063 8.74765 49.2135 8.70031C49.6207 8.64822 49.9167 8.56536 50.1013 8.45173C50.286 8.33809 50.3783 8.15343 50.3783 7.89775V7.84803C50.3783 7.22777 50.2031 6.74718 49.8527 6.40627C49.5071 6.06536 48.991 5.89491 48.3044 5.89491C47.5895 5.89491 47.026 6.05353 46.6141 6.37076C46.2069 6.68326 45.9252 7.03127 45.7689 7.41479L43.7732 6.96025C44.0099 6.29737 44.3556 5.76233 44.8101 5.35514C45.2694 4.9432 45.7973 4.64491 46.3939 4.46025C46.9905 4.27086 47.6179 4.17616 48.276 4.17616C48.7116 4.17616 49.1733 4.22824 49.661 4.33241C50.1534 4.43184 50.6127 4.6165 51.0388 4.88638C51.4697 5.15627 51.8224 5.54216 52.0971 6.04406C52.3717 6.54122 52.509 7.18752 52.509 7.98298V15.2273H50.4351V13.7358H50.3499C50.2126 14.0104 50.0066 14.2803 49.732 14.5455C49.4574 14.8106 49.1046 15.0308 48.6738 15.206C48.2429 15.3812 47.7268 15.4688 47.1255 15.4688ZM47.5871 13.7642C48.1742 13.7642 48.6761 13.6482 49.0928 13.4162C49.5142 13.1842 49.8338 12.8812 50.0516 12.5071C50.2741 12.1283 50.3854 11.7235 50.3854 11.2926V9.88639C50.3097 9.96214 50.1629 10.0332 49.9451 10.0995C49.732 10.161 49.4882 10.2155 49.2135 10.2628C48.9389 10.3054 48.6714 10.3457 48.411 10.3835C48.1506 10.4167 47.9328 10.4451 47.7576 10.4688C47.3456 10.5209 46.9692 10.6085 46.6283 10.7316C46.2921 10.8547 46.0222 11.0322 45.8186 11.2642C45.6198 11.4915 45.5204 11.7945 45.5204 12.1733C45.5204 12.6989 45.7145 13.0966 46.1027 13.3665C46.491 13.6317 46.9858 13.7642 47.5871 13.7642ZM59.4213 15.4404C58.5406 15.4404 57.7546 15.2155 57.0633 14.7656C56.3768 14.3111 55.837 13.6648 55.444 12.8267C55.0557 11.9839 54.8616 10.973 54.8616 9.79406C54.8616 8.61508 55.0581 7.60656 55.4511 6.76849C55.8488 5.93042 56.3933 5.28885 57.0846 4.84377C57.7759 4.3987 58.5595 4.17616 59.4355 4.17616C60.1126 4.17616 60.6571 4.28979 61.069 4.51707C61.4857 4.7396 61.8076 5.00002 62.0349 5.29832C62.2669 5.59661 62.4468 5.8594 62.5747 6.08667H62.7025V0.68184H64.8261V15.2273H62.7522V13.5299H62.5747C62.4468 13.7619 62.2622 14.027 62.0207 14.3253C61.784 14.6236 61.4573 14.884 61.0406 15.1066C60.6239 15.3291 60.0842 15.4404 59.4213 15.4404ZM59.89 13.6293C60.5008 13.6293 61.0169 13.4683 61.4383 13.1463C61.8645 12.8196 62.1864 12.3674 62.4042 11.7898C62.6268 11.2121 62.738 10.5398 62.738 9.77275C62.738 9.01517 62.6291 8.35229 62.4113 7.78411C62.1935 7.21593 61.8739 6.77322 61.4525 6.45599C61.0311 6.13875 60.5103 5.98014 59.89 5.98014C59.2508 5.98014 58.7182 6.14586 58.292 6.47729C57.8659 6.80873 57.5439 7.26091 57.3261 7.83383C57.113 8.40675 57.0065 9.05305 57.0065 9.77275C57.0065 10.5019 57.1154 11.1577 57.3332 11.7401C57.551 12.3225 57.873 12.7841 58.2991 13.125C58.73 13.4612 59.2603 13.6293 59.89 13.6293ZM78.3417 4.3182V6.02275H72.177V4.3182H78.3417ZM73.8673 15.2273V3.054C73.8673 2.37218 74.0164 1.80637 74.3147 1.35656C74.613 0.90201 75.0084 0.563469 75.5008 0.340931C75.9932 0.113658 76.5283 2.12193e-05 77.1059 2.12193e-05C77.5321 2.12193e-05 77.8967 0.0355329 78.1997 0.106556C78.5027 0.172844 78.7276 0.234397 78.8744 0.291215L78.3772 2.00996C78.2778 1.98156 78.15 1.94841 77.9937 1.91053C77.8375 1.86792 77.6481 1.84661 77.4255 1.84661C76.9094 1.84661 76.5401 1.97445 76.3176 2.23013C76.0998 2.48582 75.9909 2.85514 75.9909 3.33809V15.2273H73.8673ZM80.5328 15.2273V4.3182H82.6564V15.2273H80.5328ZM81.6052 2.63496C81.2359 2.63496 80.9187 2.51186 80.6535 2.26565C80.3931 2.0147 80.2629 1.7164 80.2629 1.37076C80.2629 1.02038 80.3931 0.722086 80.6535 0.475874C80.9187 0.224927 81.2359 0.0994537 81.6052 0.0994537C81.9745 0.0994537 82.2894 0.224927 82.5498 0.475874C82.815 0.722086 82.9476 1.02038 82.9476 1.37076C82.9476 1.7164 82.815 2.0147 82.5498 2.26565C82.2894 2.51186 81.9745 2.63496 81.6052 2.63496ZM87.6368 0.68184V15.2273H85.5133V0.68184H87.6368ZM95.1954 15.4475C94.1206 15.4475 93.195 15.2178 92.4184 14.7585C91.6467 14.2945 91.0501 13.6435 90.6287 12.8054C90.212 11.9626 90.0037 10.9754 90.0037 9.84377C90.0037 8.72635 90.212 7.7415 90.6287 6.88923C91.0501 6.03695 91.6372 5.37171 92.39 4.89349C93.1476 4.41527 94.033 4.17616 95.0463 4.17616C95.6618 4.17616 96.2584 4.27796 96.836 4.48156C97.4137 4.68515 97.9322 5.00476 98.3914 5.44036C98.8507 5.87597 99.2129 6.44178 99.4781 7.13781C99.7432 7.82909 99.8758 8.66953 99.8758 9.65911V10.412H91.2039V8.82104H97.7949C97.7949 8.26233 97.6812 7.76754 97.4539 7.33667C97.2267 6.90106 96.9071 6.55779 96.4951 6.30684C96.0879 6.05589 95.6097 5.93042 95.0605 5.93042C94.4639 5.93042 93.9431 6.0772 93.498 6.37076C93.0576 6.65959 92.7167 7.03837 92.4753 7.50712C92.2385 7.97114 92.1201 8.4754 92.1201 9.01991V10.2628C92.1201 10.992 92.248 11.6122 92.5037 12.1236C92.7641 12.635 93.1263 13.0256 93.5903 13.2955C94.0543 13.5606 94.5965 13.6932 95.2167 13.6932C95.6192 13.6932 95.9861 13.6364 96.3176 13.5227C96.649 13.4044 96.9355 13.2292 97.177 12.9972C97.4184 12.7652 97.6031 12.4787 97.7309 12.1378L99.7409 12.5C99.5799 13.0919 99.2911 13.6103 98.8744 14.0554C98.4625 14.4958 97.944 14.839 97.319 15.0852C96.6987 15.3267 95.9909 15.4475 95.1954 15.4475ZM110.407 6.98156L108.482 7.32246C108.402 7.07625 108.274 6.84188 108.098 6.61934C107.928 6.3968 107.696 6.21451 107.402 6.07246C107.109 5.93042 106.742 5.8594 106.302 5.8594C105.7 5.8594 105.198 5.99434 104.796 6.26423C104.393 6.52938 104.192 6.87265 104.192 7.29406C104.192 7.65864 104.327 7.9522 104.597 8.17474C104.867 8.39728 105.303 8.57957 105.904 8.72161L107.637 9.11934C108.641 9.35135 109.389 9.70883 109.881 10.1918C110.374 10.6747 110.62 11.3021 110.62 12.0739C110.62 12.7273 110.43 13.3097 110.052 13.821C109.678 14.3277 109.154 14.7254 108.482 15.0142C107.814 15.3031 107.04 15.4475 106.16 15.4475C104.938 15.4475 103.941 15.187 103.17 14.6662C102.398 14.1406 101.924 13.3949 101.749 12.429L103.802 12.1165C103.929 12.6515 104.192 13.0564 104.59 13.331C104.988 13.6009 105.506 13.7358 106.145 13.7358C106.841 13.7358 107.398 13.5914 107.814 13.3026C108.231 13.009 108.439 12.6515 108.439 12.2301C108.439 11.8892 108.312 11.6028 108.056 11.3708C107.805 11.1388 107.419 10.9636 106.898 10.8452L105.052 10.4404C104.034 10.2084 103.281 9.83904 102.793 9.33241C102.31 8.82578 102.069 8.18421 102.069 7.40769C102.069 6.76375 102.249 6.20031 102.608 5.71735C102.968 5.2344 103.465 4.85798 104.1 4.58809C104.734 4.31347 105.461 4.17616 106.28 4.17616C107.459 4.17616 108.387 4.43184 109.064 4.9432C109.741 5.44983 110.189 6.12928 110.407 6.98156ZM123.34 4.3182V6.02275H117.381V4.3182H123.34ZM118.979 1.70457H121.103V12.0242C121.103 12.4361 121.164 12.7462 121.287 12.9546C121.411 13.1582 121.569 13.2978 121.763 13.3736C121.962 13.4446 122.178 13.4801 122.41 13.4801C122.58 13.4801 122.729 13.4683 122.857 13.4446C122.985 13.421 123.084 13.402 123.155 13.3878L123.539 15.1421C123.416 15.1894 123.241 15.2368 123.013 15.2841C122.786 15.3362 122.502 15.3646 122.161 15.3693C121.602 15.3788 121.081 15.2794 120.598 15.071C120.116 14.8627 119.725 14.5407 119.427 14.1051C119.128 13.6695 118.979 13.1227 118.979 12.4645V1.70457ZM130.167 15.4475C129.144 15.4475 128.252 15.2131 127.489 14.7443C126.727 14.2756 126.135 13.6198 125.714 12.777C125.292 11.9342 125.082 10.9494 125.082 9.82246C125.082 8.69084 125.292 7.70125 125.714 6.85371C126.135 6.00618 126.727 5.34803 127.489 4.87928C128.252 4.41053 129.144 4.17616 130.167 4.17616C131.19 4.17616 132.082 4.41053 132.845 4.87928C133.607 5.34803 134.199 6.00618 134.62 6.85371C135.042 7.70125 135.252 8.69084 135.252 9.82246C135.252 10.9494 135.042 11.9342 134.62 12.777C134.199 13.6198 133.607 14.2756 132.845 14.7443C132.082 15.2131 131.19 15.4475 130.167 15.4475ZM130.174 13.6648C130.837 13.6648 131.386 13.4896 131.822 13.1392C132.257 12.7888 132.579 12.3225 132.788 11.7401C133.001 11.1577 133.107 10.5161 133.107 9.81536C133.107 9.11934 133.001 8.48014 132.788 7.89775C132.579 7.31063 132.257 6.83951 131.822 6.4844C131.386 6.12928 130.837 5.95173 130.174 5.95173C129.507 5.95173 128.953 6.12928 128.512 6.4844C128.077 6.83951 127.752 7.31063 127.539 7.89775C127.331 8.48014 127.227 9.11934 127.227 9.81536C127.227 10.5161 127.331 11.1577 127.539 11.7401C127.752 12.3225 128.077 12.7888 128.512 13.1392C128.953 13.4896 129.507 13.6648 130.174 13.6648ZM146.09 15.4688C145.399 15.4688 144.774 15.3409 144.215 15.0852C143.657 14.8248 143.214 14.4484 142.887 13.956C142.565 13.4636 142.404 12.8599 142.404 12.1449C142.404 11.5294 142.523 11.0227 142.759 10.625C142.996 10.2273 143.316 9.91243 143.718 9.68042C144.121 9.44841 144.57 9.27322 145.068 9.15485C145.565 9.03648 146.071 8.94652 146.587 8.88496C147.241 8.80921 147.771 8.74765 148.178 8.70031C148.586 8.64822 148.882 8.56536 149.066 8.45173C149.251 8.33809 149.343 8.15343 149.343 7.89775V7.84803C149.343 7.22777 149.168 6.74718 148.818 6.40627C148.472 6.06536 147.956 5.89491 147.269 5.89491C146.554 5.89491 145.991 6.05353 145.579 6.37076C145.172 6.68326 144.89 7.03127 144.734 7.41479L142.738 6.96025C142.975 6.29737 143.32 5.76233 143.775 5.35514C144.234 4.9432 144.762 4.64491 145.359 4.46025C145.955 4.27086 146.583 4.17616 147.241 4.17616C147.676 4.17616 148.138 4.22824 148.626 4.33241C149.118 4.43184 149.578 4.6165 150.004 4.88638C150.435 5.15627 150.787 5.54216 151.062 6.04406C151.337 6.54122 151.474 7.18752 151.474 7.98298V15.2273H149.4V13.7358H149.315C149.177 14.0104 148.971 14.2803 148.697 14.5455C148.422 14.8106 148.069 15.0308 147.639 15.206C147.208 15.3812 146.692 15.4688 146.09 15.4688ZM146.552 13.7642C147.139 13.7642 147.641 13.6482 148.058 13.4162C148.479 13.1842 148.799 12.8812 149.016 12.5071C149.239 12.1283 149.35 11.7235 149.35 11.2926V9.88639C149.274 9.96214 149.128 10.0332 148.91 10.0995C148.697 10.161 148.453 10.2155 148.178 10.2628C147.904 10.3054 147.636 10.3457 147.376 10.3835C147.115 10.4167 146.898 10.4451 146.722 10.4688C146.31 10.5209 145.934 10.6085 145.593 10.7316C145.257 10.8547 144.987 11.0322 144.783 11.2642C144.585 11.4915 144.485 11.7945 144.485 12.1733C144.485 12.6989 144.679 13.0966 145.068 13.3665C145.456 13.6317 145.951 13.7642 146.552 13.7642ZM159.395 4.3182V6.02275H153.436V4.3182H159.395ZM155.034 1.70457H157.157V12.0242C157.157 12.4361 157.219 12.7462 157.342 12.9546C157.465 13.1582 157.624 13.2978 157.818 13.3736C158.017 13.4446 158.232 13.4801 158.464 13.4801C158.635 13.4801 158.784 13.4683 158.912 13.4446C159.04 13.421 159.139 13.402 159.21 13.3878L159.594 15.1421C159.47 15.1894 159.295 15.2368 159.068 15.2841C158.841 15.3362 158.557 15.3646 158.216 15.3693C157.657 15.3788 157.136 15.2794 156.653 15.071C156.17 14.8627 155.78 14.5407 155.481 14.1051C155.183 13.6695 155.034 13.1227 155.034 12.4645V1.70457ZM166.836 4.3182V6.02275H160.877V4.3182H166.836ZM162.475 1.70457H164.599V12.0242C164.599 12.4361 164.66 12.7462 164.783 12.9546C164.907 13.1582 165.065 13.2978 165.259 13.3736C165.458 13.4446 165.674 13.4801 165.906 13.4801C166.076 13.4801 166.225 13.4683 166.353 13.4446C166.481 13.421 166.58 13.402 166.651 13.3878L167.035 15.1421C166.912 15.1894 166.737 15.2368 166.509 15.2841C166.282 15.3362 165.998 15.3646 165.657 15.3693C165.098 15.3788 164.578 15.2794 164.095 15.071C163.612 14.8627 163.221 14.5407 162.923 14.1051C162.624 13.6695 162.475 13.1227 162.475 12.4645V1.70457ZM172.36 15.4688C171.669 15.4688 171.044 15.3409 170.485 15.0852C169.926 14.8248 169.483 14.4484 169.157 13.956C168.835 13.4636 168.674 12.8599 168.674 12.1449C168.674 11.5294 168.792 11.0227 169.029 10.625C169.266 10.2273 169.585 9.91243 169.988 9.68042C170.39 9.44841 170.84 9.27322 171.337 9.15485C171.834 9.03648 172.341 8.94652 172.857 8.88496C173.51 8.80921 174.041 8.74765 174.448 8.70031C174.855 8.64822 175.151 8.56536 175.336 8.45173C175.52 8.33809 175.613 8.15343 175.613 7.89775V7.84803C175.613 7.22777 175.437 6.74718 175.087 6.40627C174.741 6.06536 174.225 5.89491 173.539 5.89491C172.824 5.89491 172.26 6.05353 171.848 6.37076C171.441 6.68326 171.16 7.03127 171.003 7.41479L169.008 6.96025C169.244 6.29737 169.59 5.76233 170.045 5.35514C170.504 4.9432 171.032 4.64491 171.628 4.46025C172.225 4.27086 172.852 4.17616 173.51 4.17616C173.946 4.17616 174.408 4.22824 174.895 4.33241C175.388 4.43184 175.847 4.6165 176.273 4.88638C176.704 5.15627 177.057 5.54216 177.331 6.04406C177.606 6.54122 177.743 7.18752 177.743 7.98298V15.2273H175.67V13.7358H175.584C175.447 14.0104 175.241 14.2803 174.966 14.5455C174.692 14.8106 174.339 15.0308 173.908 15.206C173.477 15.3812 172.961 15.4688 172.36 15.4688ZM172.821 13.7642C173.409 13.7642 173.911 13.6482 174.327 13.4162C174.749 13.1842 175.068 12.8812 175.286 12.5071C175.509 12.1283 175.62 11.7235 175.62 11.2926V9.88639C175.544 9.96214 175.397 10.0332 175.179 10.0995C174.966 10.161 174.723 10.2155 174.448 10.2628C174.173 10.3054 173.906 10.3457 173.645 10.3835C173.385 10.4167 173.167 10.4451 172.992 10.4688C172.58 10.5209 172.204 10.6085 171.863 10.7316C171.527 10.8547 171.257 11.0322 171.053 11.2642C170.854 11.4915 170.755 11.7945 170.755 12.1733C170.755 12.6989 170.949 13.0966 171.337 13.3665C171.725 13.6317 172.22 13.7642 172.821 13.7642ZM185.167 15.4475C184.111 15.4475 183.202 15.2084 182.44 14.7301C181.682 14.2472 181.1 13.5819 180.693 12.7344C180.285 11.8869 180.082 10.9162 180.082 9.82246C180.082 8.71451 180.29 7.73676 180.707 6.88923C181.123 6.03695 181.711 5.37171 182.468 4.89349C183.226 4.41527 184.118 4.17616 185.146 4.17616C185.974 4.17616 186.713 4.33004 187.362 4.63781C188.01 4.94084 188.533 5.36697 188.931 5.91621C189.334 6.46546 189.573 7.10703 189.649 7.84093H187.582C187.468 7.32957 187.208 6.88923 186.801 6.51991C186.398 6.15059 185.858 5.96593 185.181 5.96593C184.589 5.96593 184.071 6.12218 183.626 6.43468C183.185 6.74245 182.842 7.18279 182.596 7.7557C182.35 8.32389 182.227 8.99623 182.227 9.77275C182.227 10.5682 182.347 11.2548 182.589 11.8324C182.83 12.4101 183.171 12.8575 183.612 13.1747C184.057 13.492 184.58 13.6506 185.181 13.6506C185.584 13.6506 185.948 13.5772 186.275 13.4304C186.606 13.2789 186.883 13.0635 187.106 12.7841C187.333 12.5048 187.492 12.1686 187.582 11.7756H189.649C189.573 12.4811 189.343 13.1108 188.96 13.6648C188.576 14.2188 188.062 14.6544 187.418 14.9716C186.779 15.2888 186.029 15.4475 185.167 15.4475ZM194.043 8.75002V15.2273H191.92V0.68184H194.015V6.09377H194.15C194.405 5.50665 194.796 5.04027 195.321 4.69462C195.847 4.34898 196.534 4.17616 197.381 4.17616C198.129 4.17616 198.783 4.33004 199.341 4.63781C199.905 4.94557 200.34 5.40485 200.648 6.01565C200.961 6.62171 201.117 7.37928 201.117 8.28837V15.2273H198.993V8.54406C198.993 7.74387 198.787 7.1236 198.375 6.68326C197.964 6.23818 197.391 6.01565 196.657 6.01565C196.155 6.01565 195.705 6.12218 195.307 6.33525C194.914 6.54832 194.604 6.86082 194.377 7.27275C194.154 7.67995 194.043 8.17237 194.043 8.75002ZM216.154 10.7031V4.3182H218.285V15.2273H216.197V13.3381H216.083C215.832 13.9205 215.43 14.4058 214.876 14.7941C214.327 15.1776 213.642 15.3693 212.823 15.3693C212.123 15.3693 211.502 15.2155 210.962 14.9077C210.427 14.5952 210.006 14.1335 209.698 13.5227C209.395 12.912 209.244 12.1567 209.244 11.2571V4.3182H211.367V11.0014C211.367 11.7448 211.573 12.3367 211.985 12.777C212.397 13.2174 212.932 13.4375 213.59 13.4375C213.988 13.4375 214.383 13.3381 214.776 13.1392C215.174 12.9404 215.503 12.6397 215.764 12.2372C216.029 11.8348 216.159 11.3234 216.154 10.7031ZM229.313 6.98156L227.388 7.32246C227.308 7.07625 227.18 6.84188 227.005 6.61934C226.834 6.3968 226.602 6.21451 226.309 6.07246C226.015 5.93042 225.648 5.8594 225.208 5.8594C224.607 5.8594 224.105 5.99434 223.702 6.26423C223.3 6.52938 223.098 6.87265 223.098 7.29406C223.098 7.65864 223.233 7.9522 223.503 8.17474C223.773 8.39728 224.209 8.57957 224.81 8.72161L226.543 9.11934C227.547 9.35135 228.295 9.70883 228.787 10.1918C229.28 10.6747 229.526 11.3021 229.526 12.0739C229.526 12.7273 229.337 13.3097 228.958 13.821C228.584 14.3277 228.061 14.7254 227.388 15.0142C226.721 15.3031 225.946 15.4475 225.066 15.4475C223.844 15.4475 222.848 15.187 222.076 14.6662C221.304 14.1406 220.83 13.3949 220.655 12.429L222.708 12.1165C222.836 12.6515 223.098 13.0564 223.496 13.331C223.894 13.6009 224.412 13.7358 225.052 13.7358C225.748 13.7358 226.304 13.5914 226.721 13.3026C227.137 13.009 227.346 12.6515 227.346 12.2301C227.346 11.8892 227.218 11.6028 226.962 11.3708C226.711 11.1388 226.325 10.9636 225.804 10.8452L223.958 10.4404C222.94 10.2084 222.187 9.83904 221.699 9.33241C221.216 8.82578 220.975 8.18421 220.975 7.40769C220.975 6.76375 221.155 6.20031 221.515 5.71735C221.875 5.2344 222.372 4.85798 223.006 4.58809C223.641 4.31347 224.367 4.17616 225.187 4.17616C226.366 4.17616 227.294 4.43184 227.971 4.9432C228.648 5.44983 229.095 6.12928 229.313 6.98156ZM231.861 15.2273V4.3182H233.984V15.2273H231.861ZM232.933 2.63496C232.564 2.63496 232.247 2.51186 231.982 2.26565C231.721 2.0147 231.591 1.7164 231.591 1.37076C231.591 1.02038 231.721 0.722086 231.982 0.475874C232.247 0.224927 232.564 0.0994537 232.933 0.0994537C233.303 0.0994537 233.618 0.224927 233.878 0.475874C234.143 0.722086 234.276 1.02038 234.276 1.37076C234.276 1.7164 234.143 2.0147 233.878 2.26565C233.618 2.51186 233.303 2.63496 232.933 2.63496ZM238.965 8.75002V15.2273H236.841V4.3182H238.88V6.09377H239.015C239.266 5.51612 239.659 5.05211 240.194 4.70173C240.733 4.35135 241.413 4.17616 242.232 4.17616C242.975 4.17616 243.626 4.33241 244.185 4.64491C244.744 4.95267 245.177 5.41195 245.485 6.02275C245.793 6.63354 245.946 7.38875 245.946 8.28837V15.2273H243.823V8.54406C243.823 7.75334 243.617 7.13544 243.205 6.69036C242.793 6.24055 242.227 6.01565 241.508 6.01565C241.015 6.01565 240.577 6.12218 240.194 6.33525C239.815 6.54832 239.514 6.86082 239.292 7.27275C239.074 7.67995 238.965 8.17237 238.965 8.75002ZM253.368 19.5455C252.502 19.5455 251.756 19.4318 251.131 19.2046C250.511 18.9773 250.004 18.6766 249.611 18.3026C249.218 17.9285 248.925 17.519 248.731 17.0739L250.556 16.321C250.684 16.5294 250.854 16.7495 251.067 16.9816C251.285 17.2183 251.579 17.4195 251.948 17.5852C252.322 17.751 252.803 17.8338 253.39 17.8338C254.195 17.8338 254.86 17.6373 255.385 17.2443C255.911 16.8561 256.174 16.2358 256.174 15.3835V13.2387H256.039C255.911 13.4707 255.726 13.7287 255.485 14.0128C255.248 14.2969 254.921 14.5431 254.505 14.7514C254.088 14.9598 253.546 15.0639 252.878 15.0639C252.017 15.0639 251.24 14.8627 250.549 14.4602C249.862 14.0531 249.318 13.4541 248.915 12.6634C248.518 11.8679 248.319 10.8902 248.319 9.73014C248.319 8.5701 248.515 7.57578 248.908 6.74718C249.306 5.91858 249.85 5.28411 250.542 4.84377C251.233 4.3987 252.017 4.17616 252.893 4.17616C253.57 4.17616 254.116 4.28979 254.533 4.51707C254.95 4.7396 255.274 5.00002 255.506 5.29832C255.743 5.59661 255.925 5.8594 256.053 6.08667H256.209V4.3182H258.29V15.4688C258.29 16.4063 258.072 17.1757 257.637 17.777C257.201 18.3783 256.612 18.8234 255.868 19.1122C255.13 19.4011 254.296 19.5455 253.368 19.5455ZM253.347 13.3026C253.958 13.3026 254.474 13.1605 254.895 12.8764C255.321 12.5876 255.643 12.1757 255.861 11.6406C256.084 11.1009 256.195 10.4546 256.195 9.70173C256.195 8.96783 256.086 8.32152 255.868 7.76281C255.651 7.20409 255.331 6.76849 254.91 6.45599C254.488 6.13875 253.967 5.98014 253.347 5.98014C252.708 5.98014 252.175 6.14586 251.749 6.47729C251.323 6.804 251.001 7.24907 250.783 7.81252C250.57 8.37597 250.464 9.0057 250.464 9.70173C250.464 10.4167 250.572 11.0441 250.79 11.5838C251.008 12.1236 251.33 12.545 251.756 12.848C252.187 13.1511 252.717 13.3026 253.347 13.3026ZM271.524 4.3182V6.02275H265.565V4.3182H271.524ZM267.163 1.70457H269.286V12.0242C269.286 12.4361 269.348 12.7462 269.471 12.9546C269.594 13.1582 269.753 13.2978 269.947 13.3736C270.146 13.4446 270.361 13.4801 270.593 13.4801C270.764 13.4801 270.913 13.4683 271.041 13.4446C271.168 13.421 271.268 13.402 271.339 13.3878L271.722 15.1421C271.599 15.1894 271.424 15.2368 271.197 15.2841C270.97 15.3362 270.685 15.3646 270.345 15.3693C269.786 15.3788 269.265 15.2794 268.782 15.071C268.299 14.8627 267.908 14.5407 267.61 14.1051C267.312 13.6695 267.163 13.1227 267.163 12.4645V1.70457ZM276.231 8.75002V15.2273H274.107V0.68184H276.202V6.09377H276.337C276.593 5.50665 276.983 5.04027 277.509 4.69462C278.035 4.34898 278.721 4.17616 279.569 4.17616C280.317 4.17616 280.97 4.33004 281.529 4.63781C282.092 4.94557 282.528 5.40485 282.836 6.01565C283.148 6.62171 283.304 7.37928 283.304 8.28837V15.2273H281.181V8.54406C281.181 7.74387 280.975 7.1236 280.563 6.68326C280.151 6.23818 279.578 6.01565 278.844 6.01565C278.342 6.01565 277.893 6.12218 277.495 6.33525C277.102 6.54832 276.792 6.86082 276.564 7.27275C276.342 7.67995 276.231 8.17237 276.231 8.75002ZM290.84 15.4475C289.765 15.4475 288.839 15.2178 288.063 14.7585C287.291 14.2945 286.695 13.6435 286.273 12.8054C285.857 11.9626 285.648 10.9754 285.648 9.84377C285.648 8.72635 285.857 7.7415 286.273 6.88923C286.695 6.03695 287.282 5.37171 288.035 4.89349C288.792 4.41527 289.678 4.17616 290.691 4.17616C291.306 4.17616 291.903 4.27796 292.481 4.48156C293.058 4.68515 293.577 5.00476 294.036 5.44036C294.495 5.87597 294.857 6.44178 295.123 7.13781C295.388 7.82909 295.52 8.66953 295.52 9.65911V10.412H286.848V8.82104H293.439C293.439 8.26233 293.326 7.76754 293.098 7.33667C292.871 6.90106 292.552 6.55779 292.14 6.30684C291.732 6.05589 291.254 5.93042 290.705 5.93042C290.108 5.93042 289.588 6.0772 289.143 6.37076C288.702 6.65959 288.361 7.03837 288.12 7.50712C287.883 7.97114 287.765 8.4754 287.765 9.01991V10.2628C287.765 10.992 287.893 11.6122 288.148 12.1236C288.409 12.635 288.771 13.0256 289.235 13.2955C289.699 13.5606 290.241 13.6932 290.861 13.6932C291.264 13.6932 291.631 13.6364 291.962 13.5227C292.294 13.4044 292.58 13.2292 292.821 12.9972C293.063 12.7652 293.248 12.4787 293.375 12.1378L295.385 12.5C295.224 13.0919 294.936 13.6103 294.519 14.0554C294.107 14.4958 293.589 14.839 292.964 15.0852C292.343 15.3267 291.635 15.4475 290.84 15.4475ZM307.253 15.4404C306.373 15.4404 305.587 15.2155 304.895 14.7656C304.209 14.3111 303.669 13.6648 303.276 12.8267C302.888 11.9839 302.694 10.973 302.694 9.79406C302.694 8.61508 302.89 7.60656 303.283 6.76849C303.681 5.93042 304.225 5.28885 304.917 4.84377C305.608 4.3987 306.392 4.17616 307.268 4.17616C307.945 4.17616 308.489 4.28979 308.901 4.51707C309.318 4.7396 309.64 5.00002 309.867 5.29832C310.099 5.59661 310.279 5.8594 310.407 6.08667H310.535V0.68184H312.658V15.2273H310.584V13.5299H310.407C310.279 13.7619 310.094 14.027 309.853 14.3253C309.616 14.6236 309.289 14.884 308.873 15.1066C308.456 15.3291 307.916 15.4404 307.253 15.4404ZM307.722 13.6293C308.333 13.6293 308.849 13.4683 309.27 13.1463C309.696 12.8196 310.018 12.3674 310.236 11.7898C310.459 11.2121 310.57 10.5398 310.57 9.77275C310.57 9.01517 310.461 8.35229 310.243 7.78411C310.026 7.21593 309.706 6.77322 309.285 6.45599C308.863 6.13875 308.342 5.98014 307.722 5.98014C307.083 5.98014 306.55 6.14586 306.124 6.47729C305.698 6.80873 305.376 7.26091 305.158 7.83383C304.945 8.40675 304.839 9.05305 304.839 9.77275C304.839 10.5019 304.947 11.1577 305.165 11.7401C305.383 12.3225 305.705 12.7841 306.131 13.125C306.562 13.4612 307.092 13.6293 307.722 13.6293ZM315.689 15.2273V4.3182H317.742V6.05116H317.855C318.054 5.46404 318.404 5.00239 318.906 4.66621C319.413 4.32531 319.986 4.15485 320.625 4.15485C320.758 4.15485 320.914 4.15959 321.094 4.16906C321.279 4.17853 321.423 4.19036 321.527 4.20457V6.23582C321.442 6.21214 321.29 6.1861 321.073 6.15769C320.855 6.12455 320.637 6.10798 320.419 6.10798C319.917 6.10798 319.47 6.21451 319.077 6.42758C318.689 6.63591 318.381 6.92711 318.154 7.30116C317.926 7.67048 317.813 8.09188 317.813 8.56536V15.2273H315.689ZM327.569 15.4475C326.547 15.4475 325.654 15.2131 324.892 14.7443C324.129 14.2756 323.538 13.6198 323.116 12.777C322.695 11.9342 322.484 10.9494 322.484 9.82246C322.484 8.69084 322.695 7.70125 323.116 6.85371C323.538 6.00618 324.129 5.34803 324.892 4.87928C325.654 4.41053 326.547 4.17616 327.569 4.17616C328.592 4.17616 329.485 4.41053 330.247 4.87928C331.009 5.34803 331.601 6.00618 332.022 6.85371C332.444 7.70125 332.655 8.69084 332.655 9.82246C332.655 10.9494 332.444 11.9342 332.022 12.777C331.601 13.6198 331.009 14.2756 330.247 14.7443C329.485 15.2131 328.592 15.4475 327.569 15.4475ZM327.576 13.6648C328.239 13.6648 328.789 13.4896 329.224 13.1392C329.66 12.7888 329.982 12.3225 330.19 11.7401C330.403 11.1577 330.51 10.5161 330.51 9.81536C330.51 9.11934 330.403 8.48014 330.19 7.89775C329.982 7.31063 329.66 6.83951 329.224 6.4844C328.789 6.12928 328.239 5.95173 327.576 5.95173C326.909 5.95173 326.355 6.12928 325.915 6.4844C325.479 6.83951 325.155 7.31063 324.942 7.89775C324.733 8.48014 324.629 9.11934 324.629 9.81536C324.629 10.5161 324.733 11.1577 324.942 11.7401C325.155 12.3225 325.479 12.7888 325.915 13.1392C326.355 13.4896 326.909 13.6648 327.576 13.6648ZM335.025 19.3182V4.3182H337.099V6.08667H337.276C337.399 5.8594 337.577 5.59661 337.809 5.29832C338.041 5.00002 338.363 4.7396 338.775 4.51707C339.187 4.28979 339.731 4.17616 340.408 4.17616C341.289 4.17616 342.075 4.3987 342.766 4.84377C343.458 5.28885 344 5.93042 344.393 6.76849C344.791 7.60656 344.989 8.61508 344.989 9.79406C344.989 10.973 344.793 11.9839 344.4 12.8267C344.007 13.6648 343.467 14.3111 342.781 14.7656C342.094 15.2155 341.31 15.4404 340.43 15.4404C339.767 15.4404 339.225 15.3291 338.803 15.1066C338.387 14.884 338.06 14.6236 337.823 14.3253C337.587 14.027 337.404 13.7619 337.276 13.5299H337.149V19.3182H335.025ZM337.106 9.77275C337.106 10.5398 337.217 11.2121 337.44 11.7898C337.662 12.3674 337.984 12.8196 338.406 13.1463C338.827 13.4683 339.343 13.6293 339.954 13.6293C340.588 13.6293 341.119 13.4612 341.545 13.125C341.971 12.7841 342.293 12.3225 342.511 11.7401C342.733 11.1577 342.845 10.5019 342.845 9.77275C342.845 9.05305 342.736 8.40675 342.518 7.83383C342.305 7.26091 341.983 6.80873 341.552 6.47729C341.126 6.14586 340.593 5.98014 339.954 5.98014C339.338 5.98014 338.818 6.13875 338.391 6.45599C337.97 6.77322 337.65 7.21593 337.433 7.78411C337.215 8.35229 337.106 9.01517 337.106 9.77275ZM357.754 4.3182V6.02275H351.795V4.3182H357.754ZM353.393 1.70457H355.517V12.0242C355.517 12.4361 355.578 12.7462 355.701 12.9546C355.825 13.1582 355.983 13.2978 356.177 13.3736C356.376 13.4446 356.592 13.4801 356.824 13.4801C356.994 13.4801 357.143 13.4683 357.271 13.4446C357.399 13.421 357.498 13.402 357.569 13.3878L357.953 15.1421C357.83 15.1894 357.655 15.2368 357.427 15.2841C357.2 15.3362 356.916 15.3646 356.575 15.3693C356.016 15.3788 355.495 15.2794 355.013 15.071C354.53 14.8627 354.139 14.5407 353.841 14.1051C353.542 13.6695 353.393 13.1227 353.393 12.4645V1.70457ZM363.278 15.4688C362.587 15.4688 361.962 15.3409 361.403 15.0852C360.844 14.8248 360.401 14.4484 360.075 13.956C359.753 13.4636 359.592 12.8599 359.592 12.1449C359.592 11.5294 359.71 11.0227 359.947 10.625C360.184 10.2273 360.503 9.91243 360.906 9.68042C361.308 9.44841 361.758 9.27322 362.255 9.15485C362.752 9.03648 363.259 8.94652 363.775 8.88496C364.428 8.80921 364.959 8.74765 365.366 8.70031C365.773 8.64822 366.069 8.56536 366.254 8.45173C366.438 8.33809 366.531 8.15343 366.531 7.89775V7.84803C366.531 7.22777 366.355 6.74718 366.005 6.40627C365.659 6.06536 365.143 5.89491 364.457 5.89491C363.742 5.89491 363.178 6.05353 362.766 6.37076C362.359 6.68326 362.078 7.03127 361.921 7.41479L359.926 6.96025C360.162 6.29737 360.508 5.76233 360.962 5.35514C361.422 4.9432 361.95 4.64491 362.546 4.46025C363.143 4.27086 363.77 4.17616 364.428 4.17616C364.864 4.17616 365.326 4.22824 365.813 4.33241C366.306 4.43184 366.765 4.6165 367.191 4.88638C367.622 5.15627 367.975 5.54216 368.249 6.04406C368.524 6.54122 368.661 7.18752 368.661 7.98298V15.2273H366.587V13.7358H366.502C366.365 14.0104 366.159 14.2803 365.884 14.5455C365.61 14.8106 365.257 15.0308 364.826 15.206C364.395 15.3812 363.879 15.4688 363.278 15.4688ZM363.739 13.7642C364.327 13.7642 364.828 13.6482 365.245 13.4162C365.667 13.1842 365.986 12.8812 366.204 12.5071C366.426 12.1283 366.538 11.7235 366.538 11.2926V9.88639C366.462 9.96214 366.315 10.0332 366.097 10.0995C365.884 10.161 365.64 10.2155 365.366 10.2628C365.091 10.3054 364.824 10.3457 364.563 10.3835C364.303 10.4167 364.085 10.4451 363.91 10.4688C363.498 10.5209 363.122 10.6085 362.781 10.7316C362.444 10.8547 362.175 11.0322 361.971 11.2642C361.772 11.4915 361.673 11.7945 361.673 12.1733C361.673 12.6989 361.867 13.0966 362.255 13.3665C362.643 13.6317 363.138 13.7642 363.739 13.7642ZM371.49 15.2273V4.3182H373.542V6.05116H373.656C373.855 5.46404 374.205 5.00239 374.707 4.66621C375.214 4.32531 375.787 4.15485 376.426 4.15485C376.558 4.15485 376.715 4.15959 376.895 4.16906C377.079 4.17853 377.224 4.19036 377.328 4.20457V6.23582C377.243 6.21214 377.091 6.1861 376.873 6.15769C376.656 6.12455 376.438 6.10798 376.22 6.10798C375.718 6.10798 375.271 6.21451 374.878 6.42758C374.489 6.63591 374.182 6.92711 373.954 7.30116C373.727 7.67048 373.613 8.09188 373.613 8.56536V15.2273H371.49ZM383.349 19.5455C382.482 19.5455 381.737 19.4318 381.112 19.2046C380.491 18.9773 379.985 18.6766 379.592 18.3026C379.199 17.9285 378.905 17.519 378.711 17.0739L380.536 16.321C380.664 16.5294 380.835 16.7495 381.048 16.9816C381.265 17.2183 381.559 17.4195 381.928 17.5852C382.302 17.751 382.783 17.8338 383.37 17.8338C384.175 17.8338 384.84 17.6373 385.366 17.2443C385.891 16.8561 386.154 16.2358 386.154 15.3835V13.2387H386.019C385.891 13.4707 385.707 13.7287 385.465 14.0128C385.229 14.2969 384.902 14.5431 384.485 14.7514C384.069 14.9598 383.526 15.0639 382.859 15.0639C381.997 15.0639 381.221 14.8627 380.529 14.4602C379.843 14.0531 379.298 13.4541 378.896 12.6634C378.498 11.8679 378.299 10.8902 378.299 9.73014C378.299 8.5701 378.496 7.57578 378.889 6.74718C379.286 5.91858 379.831 5.28411 380.522 4.84377C381.213 4.3987 381.997 4.17616 382.873 4.17616C383.55 4.17616 384.097 4.28979 384.514 4.51707C384.93 4.7396 385.255 5.00002 385.487 5.29832C385.723 5.59661 385.906 5.8594 386.033 6.08667H386.19V4.3182H388.271V15.4688C388.271 16.4063 388.053 17.1757 387.617 17.777C387.182 18.3783 386.592 18.8234 385.849 19.1122C385.11 19.4011 384.277 19.5455 383.349 19.5455ZM383.328 13.3026C383.938 13.3026 384.454 13.1605 384.876 12.8764C385.302 12.5876 385.624 12.1757 385.842 11.6406C386.064 11.1009 386.176 10.4546 386.176 9.70173C386.176 8.96783 386.067 8.32152 385.849 7.76281C385.631 7.20409 385.311 6.76849 384.89 6.45599C384.469 6.13875 383.948 5.98014 383.328 5.98014C382.688 5.98014 382.156 6.14586 381.73 6.47729C381.303 6.804 380.981 7.24907 380.764 7.81252C380.551 8.37597 380.444 9.0057 380.444 9.70173C380.444 10.4167 380.553 11.0441 380.771 11.5838C380.989 12.1236 381.31 12.545 381.737 12.848C382.167 13.1511 382.698 13.3026 383.328 13.3026ZM395.82 15.4475C394.746 15.4475 393.82 15.2178 393.043 14.7585C392.272 14.2945 391.675 13.6435 391.254 12.8054C390.837 11.9626 390.629 10.9754 390.629 9.84377C390.629 8.72635 390.837 7.7415 391.254 6.88923C391.675 6.03695 392.262 5.37171 393.015 4.89349C393.773 4.41527 394.658 4.17616 395.671 4.17616C396.287 4.17616 396.883 4.27796 397.461 4.48156C398.039 4.68515 398.557 5.00476 399.016 5.44036C399.476 5.87597 399.838 6.44178 400.103 7.13781C400.368 7.82909 400.501 8.66953 400.501 9.65911V10.412H391.829V8.82104H398.42C398.42 8.26233 398.306 7.76754 398.079 7.33667C397.852 6.90106 397.532 6.55779 397.12 6.30684C396.713 6.05589 396.235 5.93042 395.685 5.93042C395.089 5.93042 394.568 6.0772 394.123 6.37076C393.683 6.65959 393.342 7.03837 393.1 7.50712C392.864 7.97114 392.745 8.4754 392.745 9.01991V10.2628C392.745 10.992 392.873 11.6122 393.129 12.1236C393.389 12.635 393.751 13.0256 394.215 13.2955C394.679 13.5606 395.221 13.6932 395.842 13.6932C396.244 13.6932 396.611 13.6364 396.943 13.5227C397.274 13.4044 397.56 13.2292 397.802 12.9972C398.043 12.7652 398.228 12.4787 398.356 12.1378L400.366 12.5C400.205 13.0919 399.916 13.6103 399.499 14.0554C399.087 14.4958 398.569 14.839 397.944 15.0852C397.324 15.3267 396.616 15.4475 395.82 15.4475ZM407.949 4.3182V6.02275H401.991V4.3182H407.949ZM403.589 1.70457H405.712V12.0242C405.712 12.4361 405.774 12.7462 405.897 12.9546C406.02 13.1582 406.178 13.2978 406.373 13.3736C406.571 13.4446 406.787 13.4801 407.019 13.4801C407.189 13.4801 407.339 13.4683 407.466 13.4446C407.594 13.421 407.694 13.402 407.765 13.3878L408.148 15.1421C408.025 15.1894 407.85 15.2368 407.623 15.2841C407.395 15.3362 407.111 15.3646 406.77 15.3693C406.212 15.3788 405.691 15.2794 405.208 15.071C404.725 14.8627 404.334 14.5407 404.036 14.1051C403.738 13.6695 403.589 13.1227 403.589 12.4645V1.70457ZM415.762 15.2273V0.68184H417.885V6.08667H418.013C418.136 5.8594 418.314 5.59661 418.546 5.29832C418.778 5.00002 419.1 4.7396 419.512 4.51707C419.924 4.28979 420.468 4.17616 421.145 4.17616C422.026 4.17616 422.812 4.3987 423.503 4.84377C424.195 5.28885 424.737 5.93042 425.13 6.76849C425.527 7.60656 425.726 8.61508 425.726 9.79406C425.726 10.973 425.53 11.9839 425.137 12.8267C424.744 13.6648 424.204 14.3111 423.518 14.7656C422.831 15.2155 422.047 15.4404 421.167 15.4404C420.504 15.4404 419.962 15.3291 419.54 15.1066C419.124 14.884 418.797 14.6236 418.56 14.3253C418.323 14.027 418.141 13.7619 418.013 13.5299H417.836V15.2273H415.762ZM417.843 9.77275C417.843 10.5398 417.954 11.2121 418.177 11.7898C418.399 12.3674 418.721 12.8196 419.143 13.1463C419.564 13.4683 420.08 13.6293 420.691 13.6293C421.325 13.6293 421.856 13.4612 422.282 13.125C422.708 12.7841 423.03 12.3225 423.248 11.7401C423.47 11.1577 423.581 10.5019 423.581 9.77275C423.581 9.05305 423.473 8.40675 423.255 7.83383C423.042 7.26091 422.72 6.80873 422.289 6.47729C421.863 6.14586 421.33 5.98014 420.691 5.98014C420.075 5.98014 419.554 6.13875 419.128 6.45599C418.707 6.77322 418.387 7.21593 418.17 7.78411C417.952 8.35229 417.843 9.01517 417.843 9.77275ZM432.813 15.4475C431.738 15.4475 430.812 15.2178 430.036 14.7585C429.264 14.2945 428.667 13.6435 428.246 12.8054C427.829 11.9626 427.621 10.9754 427.621 9.84377C427.621 8.72635 427.829 7.7415 428.246 6.88923C428.667 6.03695 429.254 5.37171 430.007 4.89349C430.765 4.41527 431.65 4.17616 432.663 4.17616C433.279 4.17616 433.876 4.27796 434.453 4.48156C435.031 4.68515 435.549 5.00476 436.009 5.44036C436.468 5.87597 436.83 6.44178 437.095 7.13781C437.36 7.82909 437.493 8.66953 437.493 9.65911V10.412H428.821V8.82104H435.412C435.412 8.26233 435.298 7.76754 435.071 7.33667C434.844 6.90106 434.524 6.55779 434.112 6.30684C433.705 6.05589 433.227 5.93042 432.678 5.93042C432.081 5.93042 431.56 6.0772 431.115 6.37076C430.675 6.65959 430.334 7.03837 430.092 7.50712C429.856 7.97114 429.737 8.4754 429.737 9.01991V10.2628C429.737 10.992 429.865 11.6122 430.121 12.1236C430.381 12.635 430.743 13.0256 431.207 13.2955C431.672 13.5606 432.214 13.6932 432.834 13.6932C433.236 13.6932 433.603 13.6364 433.935 13.5227C434.266 13.4044 434.553 13.2292 434.794 12.9972C435.036 12.7652 435.22 12.4787 435.348 12.1378L437.358 12.5C437.197 13.0919 436.908 13.6103 436.492 14.0554C436.08 14.4958 435.561 14.839 434.936 15.0852C434.316 15.3267 433.608 15.4475 432.813 15.4475ZM441.973 0.68184V15.2273H439.849V0.68184H441.973ZM449.425 15.4475C448.402 15.4475 447.51 15.2131 446.747 14.7443C445.985 14.2756 445.393 13.6198 444.972 12.777C444.55 11.9342 444.34 10.9494 444.34 9.82246C444.34 8.69084 444.55 7.70125 444.972 6.85371C445.393 6.00618 445.985 5.34803 446.747 4.87928C447.51 4.41053 448.402 4.17616 449.425 4.17616C450.448 4.17616 451.34 4.41053 452.102 4.87928C452.865 5.34803 453.457 6.00618 453.878 6.85371C454.299 7.70125 454.51 8.69084 454.51 9.82246C454.51 10.9494 454.299 11.9342 453.878 12.777C453.457 13.6198 452.865 14.2756 452.102 14.7443C451.34 15.2131 450.448 15.4475 449.425 15.4475ZM449.432 13.6648C450.095 13.6648 450.644 13.4896 451.08 13.1392C451.515 12.7888 451.837 12.3225 452.046 11.7401C452.259 11.1577 452.365 10.5161 452.365 9.81536C452.365 9.11934 452.259 8.48014 452.046 7.89775C451.837 7.31063 451.515 6.83951 451.08 6.4844C450.644 6.12928 450.095 5.95173 449.432 5.95173C448.764 5.95173 448.21 6.12928 447.77 6.4844C447.334 6.83951 447.01 7.31063 446.797 7.89775C446.589 8.48014 446.484 9.11934 446.484 9.81536C446.484 10.5161 446.589 11.1577 446.797 11.7401C447.01 12.3225 447.334 12.7888 447.77 13.1392C448.21 13.4896 448.764 13.6648 449.432 13.6648ZM458.913 15.2273L455.703 4.3182H457.898L460.036 12.3296H460.142L462.287 4.3182H464.482L466.612 12.2941H466.719L468.842 4.3182H471.037L467.834 15.2273H465.668L463.452 7.35087H463.288L461.073 15.2273H458.913ZM472.967 15.3622C472.579 15.3622 472.245 15.2249 471.966 14.9503C471.686 14.671 471.547 14.3348 471.547 13.9418C471.547 13.5535 471.686 13.2221 471.966 12.9475C472.245 12.6681 472.579 12.5284 472.967 12.5284C473.355 12.5284 473.689 12.6681 473.969 12.9475C474.248 13.2221 474.388 13.5535 474.388 13.9418C474.388 14.2022 474.321 14.4413 474.189 14.6591C474.061 14.8722 473.89 15.0426 473.677 15.1705C473.464 15.2983 473.228 15.3622 472.967 15.3622Z" fill="#2C2738"/>
</svg>
