<svg width="432" height="42" viewBox="0 0 432 42" fill="none" xmlns="http://www.w3.org/2000/svg">
<path d="M-2.22325e-05 40.7273V2.09808e-05H16.0682C19.1439 2.09808e-05 21.7689 0.55021 23.9432 1.65059C26.1307 2.73771 27.7945 4.28222 28.9346 6.28411C30.088 8.27275 30.6648 10.6127 30.6648 13.304C30.6648 16.0085 30.0814 18.3352 28.9148 20.2841C27.7481 22.2197 26.0577 23.7046 23.8437 24.7387C21.643 25.7727 18.9782 26.2898 15.8494 26.2898H5.09089V19.3693H14.4574C16.1013 19.3693 17.4668 19.144 18.554 18.6932C19.6411 18.2424 20.4498 17.5663 20.9801 16.6648C21.5237 15.7633 21.7954 14.643 21.7954 13.304C21.7954 11.9517 21.5237 10.8116 20.9801 9.88354C20.4498 8.95551 19.6344 8.25286 18.5341 7.77559C17.4469 7.28506 16.0748 7.03979 14.4176 7.03979H8.61077V40.7273H-2.22325e-05ZM21.9943 22.1932L32.1165 40.7273H22.6108L12.7074 22.1932H21.9943ZM50.0192 41.3239C46.8771 41.3239 44.1726 40.6875 41.9055 39.4148C39.6517 38.1288 37.915 36.3125 36.6953 33.9659C35.4756 31.6061 34.8657 28.8154 34.8657 25.5938C34.8657 22.4517 35.4756 19.6942 36.6953 17.321C37.915 14.9479 39.6318 13.0985 41.8459 11.7727C44.0731 10.447 46.6849 9.78411 49.6811 9.78411C51.6962 9.78411 53.5722 10.1089 55.3089 10.7585C57.0589 11.3949 58.5835 12.3561 59.8828 13.6421C61.1953 14.9281 62.2161 16.5455 62.9453 18.4943C63.6745 20.4299 64.039 22.697 64.039 25.2955V27.6222H38.2464V22.3722H56.0646C56.0646 21.1525 55.7995 20.072 55.2692 19.1307C54.7389 18.1894 54.0031 17.4536 53.0618 16.9233C52.1337 16.3798 51.0532 16.108 49.8203 16.108C48.5343 16.108 47.3942 16.4063 46.3998 17.0029C45.4188 17.5862 44.6498 18.375 44.093 19.3693C43.5362 20.3504 43.2512 21.4441 43.2379 22.6506V27.6421C43.2379 29.1534 43.5163 30.4593 44.0731 31.5597C44.6432 32.6601 45.4453 33.5085 46.4794 34.1051C47.5135 34.7017 48.7398 35 50.1584 35C51.0996 35 51.9614 34.8674 52.7436 34.6023C53.5258 34.3371 54.1953 33.9394 54.7521 33.4091C55.3089 32.8788 55.7332 32.2292 56.0248 31.4602L63.8601 31.9773C63.4623 33.8599 62.647 35.5038 61.414 36.9091C60.1943 38.3012 58.6167 39.3883 56.6811 40.1705C54.7587 40.9394 52.5381 41.3239 50.0192 41.3239ZM94.9822 18.8921L87.2265 19.3693C87.094 18.7065 86.8089 18.1099 86.3714 17.5796C85.9339 17.036 85.3572 16.6051 84.6413 16.287C83.9387 15.9555 83.0968 15.7898 82.1157 15.7898C80.8032 15.7898 79.6962 16.0682 78.7947 16.625C77.8932 17.1686 77.4424 17.8977 77.4424 18.8125C77.4424 19.5417 77.7341 20.1582 78.3174 20.662C78.9008 21.1657 79.9017 21.5701 81.3203 21.875L86.8487 22.9887C89.8184 23.5985 92.0324 24.5796 93.4907 25.9318C94.9491 27.2841 95.6782 29.0606 95.6782 31.2614C95.6782 33.2633 95.0883 35.0199 93.9084 36.5313C92.7417 38.0426 91.1375 39.2226 89.0959 40.071C87.0675 40.9063 84.7275 41.3239 82.076 41.3239C78.0324 41.3239 74.8108 40.482 72.4112 38.7983C70.0248 37.1013 68.6262 34.7945 68.2152 31.8779L76.5476 31.4404C76.7995 32.6733 77.4093 33.6146 78.3771 34.2642C79.3449 34.9006 80.5845 35.2188 82.0959 35.2188C83.5807 35.2188 84.7739 34.9337 85.6754 34.3637C86.5902 33.7803 87.0542 33.0313 87.0675 32.1165C87.0542 31.3476 86.7294 30.7178 86.093 30.2273C85.4567 29.7235 84.4756 29.339 83.1498 29.0739L77.8601 28.0199C74.8771 27.4233 72.6565 26.3892 71.1981 24.9176C69.7531 23.446 69.0305 21.5701 69.0305 19.2898C69.0305 17.3277 69.5608 15.6373 70.6214 14.2188C71.6953 12.8002 73.2 11.7065 75.1356 10.9375C77.0845 10.1686 79.3648 9.78411 81.9765 9.78411C85.8345 9.78411 88.8705 10.5995 91.0845 12.2301C93.3118 13.8608 94.611 16.0815 94.9822 18.8921ZM114.933 41.3239C111.791 41.3239 109.087 40.6875 106.82 39.4148C104.566 38.1288 102.829 36.3125 101.609 33.9659C100.39 31.6061 99.7798 28.8154 99.7798 25.5938C99.7798 22.4517 100.39 19.6942 101.609 17.321C102.829 14.9479 104.546 13.0985 106.76 11.7727C108.987 10.447 111.599 9.78411 114.595 9.78411C116.61 9.78411 118.486 10.1089 120.223 10.7585C121.973 11.3949 123.498 12.3561 124.797 13.6421C126.109 14.9281 127.13 16.5455 127.859 18.4943C128.589 20.4299 128.953 22.697 128.953 25.2955V27.6222H103.16V22.3722H120.979C120.979 21.1525 120.714 20.072 120.183 19.1307C119.653 18.1894 118.917 17.4536 117.976 16.9233C117.048 16.3798 115.967 16.108 114.734 16.108C113.448 16.108 112.308 16.4063 111.314 17.0029C110.333 17.5862 109.564 18.375 109.007 19.3693C108.45 20.3504 108.165 21.4441 108.152 22.6506V27.6421C108.152 29.1534 108.43 30.4593 108.987 31.5597C109.557 32.6601 110.359 33.5085 111.393 34.1051C112.428 34.7017 113.654 35 115.072 35C116.014 35 116.875 34.8674 117.658 34.6023C118.44 34.3371 119.109 33.9394 119.666 33.4091C120.223 32.8788 120.647 32.2292 120.939 31.4602L128.774 31.9773C128.376 33.8599 127.561 35.5038 126.328 36.9091C125.108 38.3012 123.531 39.3883 121.595 40.1705C119.673 40.9394 117.452 41.3239 114.933 41.3239ZM150.729 10.1818V16.5455H132.334V10.1818H150.729ZM136.51 2.86366H144.982V31.3409C144.982 32.1231 145.101 32.733 145.339 33.1705C145.578 33.5947 145.91 33.893 146.334 34.0654C146.771 34.2377 147.275 34.3239 147.845 34.3239C148.243 34.3239 148.641 34.2907 149.038 34.2245C149.436 34.1449 149.741 34.0852 149.953 34.0455L151.285 40.3495C150.861 40.482 150.265 40.6345 149.496 40.8068C148.727 40.9924 147.792 41.1051 146.692 41.1449C144.65 41.2245 142.86 40.9527 141.322 40.3296C139.798 39.7065 138.611 38.7387 137.763 37.4262C136.914 36.1137 136.497 34.4565 136.51 32.4546V2.86366ZM169.367 40.7273V2.09808e-05H185.435C188.524 2.09808e-05 191.156 0.589983 193.33 1.76991C195.504 2.93657 197.162 4.56063 198.302 6.64207C199.455 8.71025 200.032 11.0966 200.032 13.8012C200.032 16.5057 199.449 18.8921 198.282 20.9602C197.115 23.0284 195.425 24.6392 193.211 25.7926C191.01 26.946 188.345 27.5227 185.217 27.5227H174.975V20.6222H183.825C185.482 20.6222 186.847 20.3371 187.921 19.7671C189.008 19.1837 189.817 18.3817 190.347 17.3608C190.891 16.3267 191.163 15.1402 191.163 13.8012C191.163 12.4489 190.891 11.269 190.347 10.2614C189.817 9.24055 189.008 8.45173 187.921 7.89491C186.834 7.32483 185.455 7.03979 183.785 7.03979H177.978V40.7273H169.367ZM213.356 41.304C211.407 41.304 209.67 40.9659 208.146 40.2898C206.621 39.6004 205.415 38.5862 204.526 37.2472C203.651 35.8949 203.214 34.2112 203.214 32.196C203.214 30.4991 203.525 29.0739 204.148 27.9205C204.772 26.7671 205.62 25.839 206.694 25.1364C207.768 24.4337 208.987 23.9034 210.353 23.5455C211.732 23.1875 213.177 22.9356 214.688 22.7898C216.465 22.6042 217.897 22.4318 218.984 22.2727C220.071 22.1004 220.86 21.8485 221.35 21.5171C221.841 21.1856 222.086 20.6951 222.086 20.0455V19.9262C222.086 18.6667 221.688 17.6923 220.893 17.0029C220.111 16.3135 218.997 15.9688 217.552 15.9688C216.027 15.9688 214.814 16.3068 213.913 16.983C213.011 17.6459 212.415 18.4811 212.123 19.4887L204.288 18.8523C204.685 16.9962 205.468 15.3921 206.634 14.0398C207.801 12.6743 209.306 11.6269 211.148 10.8977C213.004 10.1553 215.152 9.78411 217.592 9.78411C219.289 9.78411 220.913 9.98298 222.464 10.3807C224.028 10.7784 225.414 11.3949 226.62 12.2301C227.84 13.0654 228.801 14.1392 229.504 15.4517C230.206 16.751 230.558 18.3087 230.558 20.125V40.7273H222.523V36.4915H222.285C221.794 37.446 221.138 38.2879 220.316 39.0171C219.494 39.733 218.506 40.2964 217.353 40.7074C216.2 41.1051 214.867 41.304 213.356 41.304ZM215.782 35.4574C217.028 35.4574 218.129 35.2121 219.083 34.7216C220.038 34.2178 220.787 33.5417 221.33 32.6932C221.874 31.8447 222.146 30.8835 222.146 29.8097V26.5682C221.88 26.7406 221.516 26.8996 221.052 27.0455C220.601 27.1781 220.091 27.304 219.521 27.4233C218.95 27.5294 218.38 27.6288 217.81 27.7216C217.24 27.8012 216.723 27.8741 216.259 27.9404C215.265 28.0862 214.397 28.3182 213.654 28.6364C212.912 28.9546 212.335 29.3854 211.924 29.929C211.513 30.4593 211.308 31.1222 211.308 31.9176C211.308 33.071 211.725 33.9527 212.56 34.5625C213.409 35.1591 214.483 35.4574 215.782 35.4574ZM262.545 18.8921L254.789 19.3693C254.656 18.7065 254.371 18.1099 253.934 17.5796C253.496 17.036 252.92 16.6051 252.204 16.287C251.501 15.9555 250.659 15.7898 249.678 15.7898C248.366 15.7898 247.259 16.0682 246.357 16.625C245.456 17.1686 245.005 17.8977 245.005 18.8125C245.005 19.5417 245.297 20.1582 245.88 20.662C246.463 21.1657 247.464 21.5701 248.883 21.875L254.411 22.9887C257.381 23.5985 259.595 24.5796 261.053 25.9318C262.512 27.2841 263.241 29.0606 263.241 31.2614C263.241 33.2633 262.651 35.0199 261.471 36.5313C260.304 38.0426 258.7 39.2226 256.658 40.071C254.63 40.9063 252.29 41.3239 249.638 41.3239C245.595 41.3239 242.373 40.482 239.974 38.7983C237.587 37.1013 236.189 34.7945 235.778 31.8779L244.11 31.4404C244.362 32.6733 244.972 33.6146 245.94 34.2642C246.907 34.9006 248.147 35.2188 249.658 35.2188C251.143 35.2188 252.336 34.9337 253.238 34.3637C254.153 33.7803 254.617 33.0313 254.63 32.1165C254.617 31.3476 254.292 30.7178 253.656 30.2273C253.019 29.7235 252.038 29.339 250.712 29.0739L245.423 28.0199C242.44 27.4233 240.219 26.3892 238.761 24.9176C237.316 23.446 236.593 21.5701 236.593 19.2898C236.593 17.3277 237.123 15.6373 238.184 14.2188C239.258 12.8002 240.763 11.7065 242.698 10.9375C244.647 10.1686 246.927 9.78411 249.539 9.78411C253.397 9.78411 256.433 10.5995 258.647 12.2301C260.874 13.8608 262.174 16.0815 262.545 18.8921ZM293.99 18.8921L286.234 19.3693C286.102 18.7065 285.817 18.1099 285.379 17.5796C284.942 17.036 284.365 16.6051 283.649 16.287C282.946 15.9555 282.105 15.7898 281.124 15.7898C279.811 15.7898 278.704 16.0682 277.803 16.625C276.901 17.1686 276.45 17.8977 276.45 18.8125C276.45 19.5417 276.742 20.1582 277.325 20.662C277.909 21.1657 278.91 21.5701 280.328 21.875L285.857 22.9887C288.826 23.5985 291.04 24.5796 292.499 25.9318C293.957 27.2841 294.686 29.0606 294.686 31.2614C294.686 33.2633 294.096 35.0199 292.916 36.5313C291.75 38.0426 290.145 39.2226 288.104 40.071C286.075 40.9063 283.735 41.3239 281.084 41.3239C277.04 41.3239 273.819 40.482 271.419 38.7983C269.033 37.1013 267.634 34.7945 267.223 31.8779L275.555 31.4404C275.807 32.6733 276.417 33.6146 277.385 34.2642C278.353 34.9006 279.592 35.2188 281.104 35.2188C282.589 35.2188 283.782 34.9337 284.683 34.3637C285.598 33.7803 286.062 33.0313 286.075 32.1165C286.062 31.3476 285.737 30.7178 285.101 30.2273C284.464 29.7235 283.483 29.339 282.158 29.0739L276.868 28.0199C273.885 27.4233 271.664 26.3892 270.206 24.9176C268.761 23.446 268.038 21.5701 268.038 19.2898C268.038 17.3277 268.569 15.6373 269.629 14.2188C270.703 12.8002 272.208 11.7065 274.143 10.9375C276.092 10.1686 278.373 9.78411 280.984 9.78411C284.842 9.78411 287.878 10.5995 290.092 12.2301C292.32 13.8608 293.619 16.0815 293.99 18.8921ZM306.046 40.7273L297.734 10.1818H306.305L311.038 30.7046H311.316L316.248 10.1818H324.66L329.671 30.5852H329.93L334.583 10.1818H343.134L334.842 40.7273H325.873L320.623 21.5171H320.245L314.995 40.7273H306.046ZM360.689 41.3239C357.6 41.3239 354.928 40.6676 352.675 39.3551C350.434 38.0294 348.704 36.1866 347.484 33.8267C346.265 31.4536 345.655 28.7027 345.655 25.5739C345.655 22.4186 346.265 19.661 347.484 17.3012C348.704 14.9281 350.434 13.0852 352.675 11.7727C354.928 10.447 357.6 9.78411 360.689 9.78411C363.778 9.78411 366.443 10.447 368.683 11.7727C370.937 13.0852 372.674 14.9281 373.893 17.3012C375.113 19.661 375.723 22.4186 375.723 25.5739C375.723 28.7027 375.113 31.4536 373.893 33.8267C372.674 36.1866 370.937 38.0294 368.683 39.3551C366.443 40.6676 363.778 41.3239 360.689 41.3239ZM360.729 34.7614C362.134 34.7614 363.307 34.3637 364.249 33.5682C365.19 32.7595 365.899 31.6591 366.376 30.2671C366.867 28.875 367.112 27.2907 367.112 25.5142C367.112 23.7377 366.867 22.1534 366.376 20.7614C365.899 19.3693 365.19 18.269 364.249 17.4602C363.307 16.6515 362.134 16.2472 360.729 16.2472C359.31 16.2472 358.117 16.6515 357.149 17.4602C356.195 18.269 355.472 19.3693 354.982 20.7614C354.504 22.1534 354.266 23.7377 354.266 25.5142C354.266 27.2907 354.504 28.875 354.982 30.2671C355.472 31.6591 356.195 32.7595 357.149 33.5682C358.117 34.3637 359.31 34.7614 360.729 34.7614ZM381.232 40.7273V10.1818H389.445V15.5114H389.763C390.32 13.6156 391.254 12.1837 392.567 11.2159C393.879 10.2349 395.391 9.74434 397.101 9.74434C397.525 9.74434 397.982 9.77085 398.473 9.82388C398.964 9.87692 399.394 9.94983 399.766 10.0426V17.5597C399.368 17.4404 398.818 17.3343 398.115 17.2415C397.412 17.1487 396.769 17.1023 396.186 17.1023C394.94 17.1023 393.826 17.3741 392.845 17.9176C391.877 18.4479 391.108 19.1904 390.538 20.1449C389.982 21.0995 389.703 22.1998 389.703 23.446V40.7273H381.232ZM413.979 41.2245C411.659 41.2245 409.558 40.6279 407.675 39.4347C405.806 38.2282 404.321 36.4584 403.221 34.125C402.134 31.7784 401.59 28.9015 401.59 25.4943C401.59 21.9943 402.154 19.0843 403.281 16.7642C404.407 14.4309 405.906 12.6875 407.775 11.5341C409.657 10.3674 411.719 9.78411 413.959 9.78411C415.67 9.78411 417.095 10.0758 418.235 10.6591C419.388 11.2292 420.317 11.9451 421.019 12.8068C421.735 13.6553 422.279 14.4906 422.65 15.3125H422.908V2.09808e-05H431.36V40.7273H423.008V35.8352H422.65C422.252 36.6837 421.689 37.5256 420.959 38.3608C420.244 39.1828 419.309 39.8656 418.156 40.4091C417.015 40.9527 415.623 41.2245 413.979 41.2245ZM416.664 34.483C418.03 34.483 419.183 34.1118 420.124 33.3693C421.079 32.6137 421.808 31.5597 422.312 30.2074C422.829 28.8551 423.087 27.2709 423.087 25.4546C423.087 23.6383 422.835 22.0606 422.332 20.7216C421.828 19.3826 421.099 18.3485 420.144 17.6193C419.19 16.8902 418.03 16.5256 416.664 16.5256C415.272 16.5256 414.099 16.9034 413.144 17.6591C412.19 18.4148 411.467 19.4621 410.977 20.8012C410.486 22.1402 410.241 23.6913 410.241 25.4546C410.241 27.2311 410.486 28.8021 410.977 30.1676C411.48 31.5199 412.203 32.5805 413.144 33.3495C414.099 34.1051 415.272 34.483 416.664 34.483Z" fill="#2C2738"/>
</svg>
