<svg width="2198" height="28" viewBox="0 0 2198 28" fill="none" xmlns="http://www.w3.org/2000/svg">
<path d="M9.60405 20.9159C3.83605 20.9159 5.0813e-05 16.7719 5.0813e-05 10.4999C5.0813e-05 4.25591 3.94805 0.0279098 9.74405 0.0279098C14.3081 0.0279098 17.8081 2.74391 18.5641 6.88791H15.6241C14.8681 4.25591 12.6001 2.65991 9.66005 2.65991C5.57205 2.65991 2.88405 5.73991 2.88405 10.4719C2.88405 15.2039 5.57205 18.2839 9.66005 18.2839C12.6281 18.2839 14.9801 16.6879 15.7361 14.1959H18.6481C17.7801 18.2279 14.1681 20.9159 9.60405 20.9159ZM20.6686 13.7479C20.6686 9.51991 23.6926 6.55191 27.8086 6.55191C31.8966 6.55191 34.9206 9.51991 34.9206 13.7479C34.9206 17.9759 31.8966 20.9439 27.8086 20.9439C23.6926 20.9439 20.6686 17.9759 20.6686 13.7479ZM23.3286 13.7479C23.3286 16.6039 25.1486 18.5919 27.8086 18.5919C30.4406 18.5919 32.2886 16.6039 32.2886 13.7479C32.2886 10.8919 30.4406 8.90391 27.8086 8.90391C25.1486 8.90391 23.3286 10.8919 23.3286 13.7479ZM40.4662 20.6079H37.8342V6.91591H40.1862L40.4382 8.70791C41.1382 7.41991 42.5942 6.52391 44.5262 6.52391C46.6542 6.52391 48.1662 7.58791 48.8662 9.29591C49.5102 7.58791 51.1622 6.52391 53.2902 6.52391C56.4262 6.52391 58.3302 8.48391 58.3302 11.6479V20.6079H55.7542V12.2919C55.7542 10.1359 54.5502 8.90391 52.7022 8.90391C50.7142 8.90391 49.3982 10.3039 49.3982 12.4879V20.6079H46.7942V12.2639C46.7942 10.1079 45.6182 8.93191 43.7702 8.93191C41.7822 8.93191 40.4662 10.3039 40.4662 12.4879V20.6079ZM64.6107 20.6079H61.9787V6.91591H64.3307L64.5827 8.70791C65.2827 7.41991 66.7387 6.52391 68.6707 6.52391C70.7987 6.52391 72.3107 7.58791 73.0107 9.29591C73.6547 7.58791 75.3067 6.52391 77.4347 6.52391C80.5707 6.52391 82.4747 8.48391 82.4747 11.6479V20.6079H79.8987V12.2919C79.8987 10.1359 78.6947 8.90391 76.8467 8.90391C74.8587 8.90391 73.5427 10.3039 73.5427 12.4879V20.6079H70.9387V12.2639C70.9387 10.1079 69.7627 8.93191 67.9147 8.93191C65.9267 8.93191 64.6107 10.3039 64.6107 12.4879V20.6079ZM95.5872 6.91591H98.1912V20.6079H95.8392L95.5592 18.5359C94.7752 19.9639 92.9552 20.9439 90.9392 20.9439C87.7472 20.9439 85.9552 18.7879 85.9552 15.4279V6.91591H88.5872V14.5599C88.5872 17.4999 89.8472 18.6199 91.8632 18.6199C94.2712 18.6199 95.5872 17.0799 95.5872 14.1399V6.91591ZM104.642 20.6079H102.01V6.91591H104.39L104.67 9.01591C105.538 7.44791 107.274 6.52391 109.206 6.52391C112.818 6.52391 114.47 8.73591 114.47 12.2359V20.6079H111.838V12.8239C111.838 10.0519 110.55 8.93191 108.534 8.93191C106.07 8.93191 104.642 10.6959 104.642 13.3559V20.6079ZM119.403 3.66791C118.451 3.66791 117.667 2.88391 117.667 1.93191C117.667 0.95191 118.451 0.195909 119.403 0.195909C120.355 0.195909 121.139 0.95191 121.139 1.93191C121.139 2.88391 120.355 3.66791 119.403 3.66791ZM118.115 20.6079V6.91591H120.747V20.6079H118.115ZM123.673 13.7759C123.673 9.49191 126.389 6.52391 130.393 6.52391C133.837 6.52391 136.245 8.48391 136.721 11.5359H134.089C133.641 9.79991 132.241 8.87591 130.477 8.87591C127.985 8.87591 126.277 10.7799 126.277 13.7479C126.277 16.6879 127.873 18.5919 130.365 18.5919C132.241 18.5919 133.641 17.6119 134.117 15.9879H136.749C136.217 18.9559 133.669 20.9439 130.365 20.9439C126.333 20.9439 123.673 18.0879 123.673 13.7759ZM143.53 20.9439C140.59 20.9439 138.854 19.2919 138.854 16.7999C138.854 14.2799 140.73 12.7119 143.95 12.4599L148.262 12.1239V11.7319C148.262 9.43591 146.89 8.62391 145.042 8.62391C142.83 8.62391 141.57 9.60391 141.57 11.2559H139.274C139.274 8.39991 141.626 6.52391 145.154 6.52391C148.542 6.52391 150.838 8.31591 150.838 12.0119V20.6079H148.598L148.318 18.3959C147.618 19.9639 145.742 20.9439 143.53 20.9439ZM144.286 18.8999C146.778 18.8999 148.29 17.2759 148.29 14.6999V13.9719L144.79 14.2519C142.466 14.4759 141.514 15.3719 141.514 16.7159C141.514 18.1719 142.578 18.8999 144.286 18.8999ZM158.128 20.6079H155.496V9.12791H152.808V6.91591H155.496V2.63191H158.128V6.91591H160.816V9.12791H158.128V20.6079ZM164.466 3.66791C163.514 3.66791 162.73 2.88391 162.73 1.93191C162.73 0.95191 163.514 0.195909 164.466 0.195909C165.418 0.195909 166.202 0.95191 166.202 1.93191C166.202 2.88391 165.418 3.66791 164.466 3.66791ZM163.178 20.6079V6.91591H165.81V20.6079H163.178ZM168.735 13.7479C168.735 9.51991 171.759 6.55191 175.875 6.55191C179.963 6.55191 182.987 9.51991 182.987 13.7479C182.987 17.9759 179.963 20.9439 175.875 20.9439C171.759 20.9439 168.735 17.9759 168.735 13.7479ZM171.395 13.7479C171.395 16.6039 173.215 18.5919 175.875 18.5919C178.507 18.5919 180.355 16.6039 180.355 13.7479C180.355 10.8919 178.507 8.90391 175.875 8.90391C173.215 8.90391 171.395 10.8919 171.395 13.7479ZM188.533 20.6079H185.901V6.91591H188.281L188.561 9.01591C189.429 7.44791 191.165 6.52391 193.097 6.52391C196.709 6.52391 198.361 8.73591 198.361 12.2359V20.6079H195.729V12.8239C195.729 10.0519 194.441 8.93191 192.425 8.93191C189.961 8.93191 188.533 10.6959 188.533 13.3559V20.6079ZM210.95 3.66791C209.998 3.66791 209.214 2.88391 209.214 1.93191C209.214 0.95191 209.998 0.195909 210.95 0.195909C211.902 0.195909 212.686 0.95191 212.686 1.93191C212.686 2.88391 211.902 3.66791 210.95 3.66791ZM209.662 20.6079V6.91591H212.294V20.6079H209.662ZM215.219 13.7759C215.219 9.49191 217.935 6.52391 221.939 6.52391C225.383 6.52391 227.791 8.48391 228.267 11.5359H225.635C225.187 9.79991 223.787 8.87591 222.023 8.87591C219.531 8.87591 217.823 10.7799 217.823 13.7479C217.823 16.6879 219.419 18.5919 221.911 18.5919C223.787 18.5919 225.187 17.6119 225.663 15.9879H228.295C227.763 18.9559 225.215 20.9439 221.911 20.9439C217.879 20.9439 215.219 18.0879 215.219 13.7759ZM230.176 13.7479C230.176 9.51991 233.2 6.55191 237.316 6.55191C241.404 6.55191 244.428 9.51991 244.428 13.7479C244.428 17.9759 241.404 20.9439 237.316 20.9439C233.2 20.9439 230.176 17.9759 230.176 13.7479ZM232.836 13.7479C232.836 16.6039 234.656 18.5919 237.316 18.5919C239.948 18.5919 241.796 16.6039 241.796 13.7479C241.796 10.8919 239.948 8.90391 237.316 8.90391C234.656 8.90391 232.836 10.8919 232.836 13.7479ZM249.974 20.6079H247.342V6.91591H249.722L250.002 9.01591C250.87 7.44791 252.606 6.52391 254.538 6.52391C258.15 6.52391 259.802 8.73591 259.802 12.2359V20.6079H257.17V12.8239C257.17 10.0519 255.882 8.93191 253.866 8.93191C251.402 8.93191 249.974 10.6959 249.974 13.3559V20.6079ZM262.163 16.6319H264.683C264.683 18.0319 265.747 18.8719 267.483 18.8719C269.331 18.8719 270.395 18.1159 270.395 16.8559C270.395 15.9319 269.947 15.3719 268.519 15.0079L266.111 14.4479C263.675 13.8599 262.527 12.6559 262.527 10.6399C262.527 8.11991 264.655 6.52391 267.679 6.52391C270.675 6.52391 272.635 8.20391 272.691 10.8079H270.171C270.115 9.43591 269.191 8.56791 267.595 8.56791C265.943 8.56791 265.019 9.29591 265.019 10.5559C265.019 11.4799 265.691 12.0959 267.035 12.4319L269.443 13.0199C271.767 13.5799 272.915 14.6439 272.915 16.6879C272.915 19.2919 270.675 20.9439 267.427 20.9439C264.207 20.9439 262.163 19.2359 262.163 16.6319ZM282.034 6.91591H284.05V4.73191C284.05 1.37191 285.898 -9.15527e-05 288.39 -9.15527e-05C288.894 -9.15527e-05 289.482 0.0279098 290.014 0.111909V2.37991H288.838C287.13 2.37991 286.682 3.24791 286.682 4.73191V6.91591H289.93V9.12791H286.682V20.6079H284.05V9.12791H282.034V6.91591ZM291.071 13.7479C291.071 9.51991 294.095 6.55191 298.211 6.55191C302.299 6.55191 305.323 9.51991 305.323 13.7479C305.323 17.9759 302.299 20.9439 298.211 20.9439C294.095 20.9439 291.071 17.9759 291.071 13.7479ZM293.731 13.7479C293.731 16.6039 295.551 18.5919 298.211 18.5919C300.843 18.5919 302.691 16.6039 302.691 13.7479C302.691 10.8919 300.843 8.90391 298.211 8.90391C295.551 8.90391 293.731 10.8919 293.731 13.7479ZM316.077 6.80391V9.21191H314.901C312.409 9.21191 310.869 10.7239 310.869 13.3559V20.6079H308.237V6.94391H310.701L310.869 9.01591C311.429 7.58791 312.801 6.63591 314.677 6.63591C315.153 6.63591 315.545 6.69191 316.077 6.80391ZM327.489 3.66791C326.537 3.66791 325.753 2.88391 325.753 1.93191C325.753 0.95191 326.537 0.195909 327.489 0.195909C328.441 0.195909 329.225 0.95191 329.225 1.93191C329.225 2.88391 328.441 3.66791 327.489 3.66791ZM326.201 20.6079V6.91591H328.833V20.6079H326.201ZM335.286 20.6079H332.654V6.91591H335.034L335.314 9.01591C336.182 7.44791 337.918 6.52391 339.85 6.52391C343.462 6.52391 345.114 8.73591 345.114 12.2359V20.6079H342.482V12.8239C342.482 10.0519 341.194 8.93191 339.178 8.93191C336.714 8.93191 335.286 10.6959 335.286 13.3559V20.6079ZM351.14 20.6079H348.76V-9.15527e-05H351.392V9.26791C352.288 7.47591 354.136 6.52391 356.376 6.52391C360.296 6.52391 362.648 9.60391 362.648 13.8319C362.648 17.9759 360.184 20.9439 356.208 20.9439C354.052 20.9439 352.232 19.9919 351.336 18.1159L351.14 20.6079ZM351.42 13.7199C351.42 16.5759 353.044 18.5639 355.732 18.5639C358.42 18.5639 360.016 16.5479 360.016 13.7199C360.016 10.9199 358.42 8.90391 355.732 8.90391C353.044 8.90391 351.42 10.9199 351.42 13.7199ZM364.653 13.7479C364.653 9.51991 367.677 6.55191 371.793 6.55191C375.881 6.55191 378.905 9.51991 378.905 13.7479C378.905 17.9759 375.881 20.9439 371.793 20.9439C367.677 20.9439 364.653 17.9759 364.653 13.7479ZM367.313 13.7479C367.313 16.6039 369.133 18.5919 371.793 18.5919C374.425 18.5919 376.273 16.6039 376.273 13.7479C376.273 10.8919 374.425 8.90391 371.793 8.90391C369.133 8.90391 367.313 10.8919 367.313 13.7479ZM382.699 20.6079H379.675L384.463 13.8319L379.703 6.91591H382.755L386.227 12.0119L389.615 6.91591H392.611L387.851 13.8319L392.527 20.6079H389.475L386.059 15.5959L382.699 20.6079ZM400.195 20.9439C396.163 20.9439 393.391 18.0319 393.391 13.7759C393.391 9.49191 396.107 6.52391 400.083 6.52391C403.975 6.52391 406.523 9.21191 406.523 13.2719V14.2519L395.939 14.2799C396.135 17.1639 397.647 18.7599 400.251 18.7599C402.295 18.7599 403.639 17.9199 404.087 16.3519H406.551C405.879 19.2919 403.583 20.9439 400.195 20.9439ZM400.083 8.73591C397.787 8.73591 396.331 10.1079 395.995 12.5159H403.891C403.891 10.2479 402.407 8.73591 400.083 8.73591ZM408.343 16.6319H410.863C410.863 18.0319 411.927 18.8719 413.663 18.8719C415.511 18.8719 416.575 18.1159 416.575 16.8559C416.575 15.9319 416.127 15.3719 414.699 15.0079L412.291 14.4479C409.855 13.8599 408.707 12.6559 408.707 10.6399C408.707 8.11991 410.835 6.52391 413.859 6.52391C416.855 6.52391 418.815 8.20391 418.871 10.8079H416.351C416.295 9.43591 415.371 8.56791 413.775 8.56791C412.123 8.56791 411.199 9.29591 411.199 10.5559C411.199 11.4799 411.871 12.0959 413.215 12.4319L415.623 13.0199C417.947 13.5799 419.095 14.6439 419.095 16.6879C419.095 19.2919 416.855 20.9439 413.607 20.9439C410.387 20.9439 408.343 19.2359 408.343 16.6319ZM425.798 19.5159C425.798 21.5319 424.286 23.2119 422.298 23.4639V22.2879C423.446 22.0919 424.258 21.3359 424.258 20.4679C424.062 20.5799 423.838 20.6359 423.502 20.6359C422.578 20.6359 421.794 19.9639 421.794 18.9279C421.794 17.8079 422.55 16.9959 423.67 16.9959C424.846 16.9959 425.798 17.9759 425.798 19.5159ZM436.348 13.7759C436.348 9.49191 439.064 6.52391 443.068 6.52391C446.512 6.52391 448.92 8.48391 449.396 11.5359H446.764C446.316 9.79991 444.916 8.87591 443.152 8.87591C440.66 8.87591 438.952 10.7799 438.952 13.7479C438.952 16.6879 440.548 18.5919 443.04 18.5919C444.916 18.5919 446.316 17.6119 446.792 15.9879H449.424C448.892 18.9559 446.344 20.9439 443.04 20.9439C439.008 20.9439 436.348 18.0879 436.348 13.7759ZM454.833 20.5799H452.201V-9.15527e-05H454.833V9.01591C455.701 7.53191 457.353 6.52391 459.481 6.52391C462.981 6.52391 464.661 8.73591 464.661 12.2359V20.6079H462.029V12.8239C462.029 10.0519 460.713 8.93191 458.753 8.93191C456.205 8.93191 454.833 10.7799 454.833 13.1319V20.5799ZM472.311 20.9439C469.371 20.9439 467.635 19.2919 467.635 16.7999C467.635 14.2799 469.511 12.7119 472.731 12.4599L477.043 12.1239V11.7319C477.043 9.43591 475.671 8.62391 473.823 8.62391C471.611 8.62391 470.351 9.60391 470.351 11.2559H468.055C468.055 8.39991 470.407 6.52391 473.935 6.52391C477.323 6.52391 479.619 8.31591 479.619 12.0119V20.6079H477.379L477.099 18.3959C476.399 19.9639 474.523 20.9439 472.311 20.9439ZM473.067 18.8999C475.559 18.8999 477.071 17.2759 477.071 14.6999V13.9719L473.571 14.2519C471.247 14.4759 470.295 15.3719 470.295 16.7159C470.295 18.1719 471.359 18.8999 473.067 18.8999ZM486.909 20.6079H484.277V9.12791H481.589V6.91591H484.277V2.63191H486.909V6.91591H489.597V9.12791H486.909V20.6079ZM490.839 16.6319H493.359C493.359 18.0319 494.423 18.8719 496.159 18.8719C498.007 18.8719 499.071 18.1159 499.071 16.8559C499.071 15.9319 498.623 15.3719 497.195 15.0079L494.787 14.4479C492.351 13.8599 491.203 12.6559 491.203 10.6399C491.203 8.11991 493.331 6.52391 496.355 6.52391C499.351 6.52391 501.311 8.20391 501.367 10.8079H498.847C498.791 9.43591 497.867 8.56791 496.271 8.56791C494.619 8.56791 493.695 9.29591 493.695 10.5559C493.695 11.4799 494.367 12.0959 495.711 12.4319L498.119 13.0199C500.443 13.5799 501.591 14.6439 501.591 16.6879C501.591 19.2919 499.351 20.9439 496.103 20.9439C492.883 20.9439 490.839 19.2359 490.839 16.6319ZM508.294 19.5159C508.294 21.5319 506.782 23.2119 504.794 23.4639V22.2879C505.942 22.0919 506.754 21.3359 506.754 20.4679C506.558 20.5799 506.334 20.6359 505.998 20.6359C505.074 20.6359 504.29 19.9639 504.29 18.9279C504.29 17.8079 505.046 16.9959 506.166 16.9959C507.342 16.9959 508.294 17.9759 508.294 19.5159ZM522.372 20.6079H519.74V6.91591H522.12L522.4 9.01591C523.268 7.44791 525.004 6.52391 526.936 6.52391C530.548 6.52391 532.2 8.73591 532.2 12.2359V20.6079H529.568V12.8239C529.568 10.0519 528.28 8.93191 526.264 8.93191C523.8 8.93191 522.372 10.6959 522.372 13.3559V20.6079ZM534.95 13.7479C534.95 9.51991 537.974 6.55191 542.09 6.55191C546.178 6.55191 549.202 9.51991 549.202 13.7479C549.202 17.9759 546.178 20.9439 542.09 20.9439C537.974 20.9439 534.95 17.9759 534.95 13.7479ZM537.61 13.7479C537.61 16.6039 539.43 18.5919 542.09 18.5919C544.722 18.5919 546.57 16.6039 546.57 13.7479C546.57 10.8919 544.722 8.90391 542.09 8.90391C539.43 8.90391 537.61 10.8919 537.61 13.7479ZM555.843 20.6079H553.211V9.12791H550.523V6.91591H553.211V2.63191H555.843V6.91591H558.531V9.12791H555.843V20.6079ZM562.181 3.66791C561.229 3.66791 560.445 2.88391 560.445 1.93191C560.445 0.95191 561.229 0.195909 562.181 0.195909C563.133 0.195909 563.917 0.95191 563.917 1.93191C563.917 2.88391 563.133 3.66791 562.181 3.66791ZM560.893 20.6079V6.91591H563.525V20.6079H560.893ZM576.614 20.6079V9.12791H570.538V20.6079H567.906V9.12791H565.89V6.91591H567.906V4.73191C567.906 1.37191 569.726 -9.15527e-05 572.106 -9.15527e-05C572.61 -9.15527e-05 573.226 0.0279098 573.73 0.111909V2.37991H572.554C570.958 2.37991 570.538 3.24791 570.538 4.73191V6.91591H579.246V20.6079H576.614ZM577.93 3.55591C576.978 3.55591 576.25 2.82791 576.25 1.87591C576.25 0.92391 576.978 0.195909 577.93 0.195909C578.854 0.195909 579.582 0.92391 579.582 1.87591C579.582 2.82791 578.854 3.55591 577.93 3.55591ZM582.091 13.7759C582.091 9.49191 584.807 6.52391 588.811 6.52391C592.255 6.52391 594.663 8.48391 595.139 11.5359H592.507C592.059 9.79991 590.659 8.87591 588.895 8.87591C586.403 8.87591 584.695 10.7799 584.695 13.7479C584.695 16.6879 586.291 18.5919 588.783 18.5919C590.659 18.5919 592.059 17.6119 592.535 15.9879H595.167C594.635 18.9559 592.087 20.9439 588.783 20.9439C584.751 20.9439 582.091 18.0879 582.091 13.7759ZM601.948 20.9439C599.008 20.9439 597.272 19.2919 597.272 16.7999C597.272 14.2799 599.148 12.7119 602.368 12.4599L606.68 12.1239V11.7319C606.68 9.43591 605.308 8.62391 603.46 8.62391C601.248 8.62391 599.988 9.60391 599.988 11.2559H597.692C597.692 8.39991 600.044 6.52391 603.572 6.52391C606.96 6.52391 609.256 8.31591 609.256 12.0119V20.6079H607.016L606.736 18.3959C606.036 19.9639 604.16 20.9439 601.948 20.9439ZM602.704 18.8999C605.196 18.8999 606.708 17.2759 606.708 14.6999V13.9719L603.208 14.2519C600.884 14.4759 599.932 15.3719 599.932 16.7159C599.932 18.1719 600.996 18.8999 602.704 18.8999ZM616.546 20.6079H613.914V9.12791H611.226V6.91591H613.914V2.63191H616.546V6.91591H619.234V9.12791H616.546V20.6079ZM622.884 3.66791C621.932 3.66791 621.148 2.88391 621.148 1.93191C621.148 0.95191 621.932 0.195909 622.884 0.195909C623.836 0.195909 624.62 0.95191 624.62 1.93191C624.62 2.88391 623.836 3.66791 622.884 3.66791ZM621.596 20.6079V6.91591H624.228V20.6079H621.596ZM627.153 13.7479C627.153 9.51991 630.177 6.55191 634.293 6.55191C638.381 6.55191 641.405 9.51991 641.405 13.7479C641.405 17.9759 638.381 20.9439 634.293 20.9439C630.177 20.9439 627.153 17.9759 627.153 13.7479ZM629.813 13.7479C629.813 16.6039 631.633 18.5919 634.293 18.5919C636.925 18.5919 638.773 16.6039 638.773 13.7479C638.773 10.8919 636.925 8.90391 634.293 8.90391C631.633 8.90391 629.813 10.8919 629.813 13.7479ZM646.951 20.6079H644.319V6.91591H646.699L646.979 9.01591C647.847 7.44791 649.583 6.52391 651.515 6.52391C655.127 6.52391 656.779 8.73591 656.779 12.2359V20.6079H654.147V12.8239C654.147 10.0519 652.859 8.93191 650.843 8.93191C648.379 8.93191 646.951 10.6959 646.951 13.3559V20.6079ZM659.14 16.6319H661.66C661.66 18.0319 662.724 18.8719 664.46 18.8719C666.308 18.8719 667.372 18.1159 667.372 16.8559C667.372 15.9319 666.924 15.3719 665.496 15.0079L663.088 14.4479C660.652 13.8599 659.504 12.6559 659.504 10.6399C659.504 8.11991 661.632 6.52391 664.656 6.52391C667.652 6.52391 669.612 8.20391 669.668 10.8079H667.148C667.092 9.43591 666.168 8.56791 664.572 8.56791C662.92 8.56791 661.996 9.29591 661.996 10.5559C661.996 11.4799 662.668 12.0959 664.012 12.4319L666.42 13.0199C668.744 13.5799 669.892 14.6439 669.892 16.6879C669.892 19.2919 667.652 20.9439 664.404 20.9439C661.184 20.9439 659.14 19.2359 659.14 16.6319ZM676.595 19.5159C676.595 21.5319 675.083 23.2119 673.095 23.4639V22.2879C674.243 22.0919 675.055 21.3359 675.055 20.4679C674.859 20.5799 674.635 20.6359 674.299 20.6359C673.375 20.6359 672.591 19.9639 672.591 18.9279C672.591 17.8079 673.347 16.9959 674.467 16.9959C675.643 16.9959 676.595 17.9759 676.595 19.5159ZM690.673 20.6079H688.041V6.91591H690.393L690.645 8.70791C691.345 7.41991 692.801 6.52391 694.733 6.52391C696.861 6.52391 698.373 7.58791 699.073 9.29591C699.717 7.58791 701.369 6.52391 703.497 6.52391C706.633 6.52391 708.537 8.48391 708.537 11.6479V20.6079H705.961V12.2919C705.961 10.1359 704.757 8.90391 702.909 8.90391C700.921 8.90391 699.605 10.3039 699.605 12.4879V20.6079H697.001V12.2639C697.001 10.1079 695.825 8.93191 693.977 8.93191C691.989 8.93191 690.673 10.3039 690.673 12.4879V20.6079ZM718.094 20.9439C714.062 20.9439 711.29 18.0319 711.29 13.7759C711.29 9.49191 714.006 6.52391 717.982 6.52391C721.874 6.52391 724.422 9.21191 724.422 13.2719V14.2519L713.838 14.2799C714.034 17.1639 715.546 18.7599 718.15 18.7599C720.194 18.7599 721.538 17.9199 721.986 16.3519H724.45C723.778 19.2919 721.482 20.9439 718.094 20.9439ZM717.982 8.73591C715.686 8.73591 714.23 10.1079 713.894 12.5159H721.79C721.79 10.2479 720.306 8.73591 717.982 8.73591ZM726.242 16.6319H728.762C728.762 18.0319 729.826 18.8719 731.562 18.8719C733.41 18.8719 734.474 18.1159 734.474 16.8559C734.474 15.9319 734.026 15.3719 732.598 15.0079L730.19 14.4479C727.754 13.8599 726.606 12.6559 726.606 10.6399C726.606 8.11991 728.734 6.52391 731.758 6.52391C734.754 6.52391 736.714 8.20391 736.77 10.8079H734.25C734.194 9.43591 733.27 8.56791 731.674 8.56791C730.022 8.56791 729.098 9.29591 729.098 10.5559C729.098 11.4799 729.77 12.0959 731.114 12.4319L733.522 13.0199C735.846 13.5799 736.994 14.6439 736.994 16.6879C736.994 19.2919 734.754 20.9439 731.506 20.9439C728.286 20.9439 726.242 19.2359 726.242 16.6319ZM738.792 16.6319H741.312C741.312 18.0319 742.376 18.8719 744.112 18.8719C745.96 18.8719 747.024 18.1159 747.024 16.8559C747.024 15.9319 746.576 15.3719 745.148 15.0079L742.74 14.4479C740.304 13.8599 739.156 12.6559 739.156 10.6399C739.156 8.11991 741.284 6.52391 744.308 6.52391C747.304 6.52391 749.264 8.20391 749.32 10.8079H746.8C746.744 9.43591 745.82 8.56791 744.224 8.56791C742.572 8.56791 741.648 9.29591 741.648 10.5559C741.648 11.4799 742.32 12.0959 743.664 12.4319L746.072 13.0199C748.396 13.5799 749.544 14.6439 749.544 16.6879C749.544 19.2919 747.304 20.9439 744.056 20.9439C740.836 20.9439 738.792 19.2359 738.792 16.6319ZM756.467 20.9439C753.527 20.9439 751.791 19.2919 751.791 16.7999C751.791 14.2799 753.667 12.7119 756.887 12.4599L761.199 12.1239V11.7319C761.199 9.43591 759.827 8.62391 757.979 8.62391C755.767 8.62391 754.507 9.60391 754.507 11.2559H752.211C752.211 8.39991 754.563 6.52391 758.091 6.52391C761.479 6.52391 763.775 8.31591 763.775 12.0119V20.6079H761.535L761.255 18.3959C760.555 19.9639 758.679 20.9439 756.467 20.9439ZM757.223 18.8999C759.715 18.8999 761.227 17.2759 761.227 14.6999V13.9719L757.727 14.2519C755.403 14.4759 754.451 15.3719 754.451 16.7159C754.451 18.1719 755.515 18.8999 757.223 18.8999ZM766.552 13.4119C766.552 9.54791 769.044 6.52391 773.02 6.52391C775.232 6.52391 776.94 7.53191 777.808 9.23991L778.004 6.91591H780.356V20.0479C780.356 24.3599 777.696 27.1039 773.496 27.1039C769.772 27.1039 767.224 25.0039 766.72 21.5319H769.352C769.688 23.5479 771.2 24.7239 773.496 24.7239C776.072 24.7239 777.752 23.0439 777.752 20.4399V17.6959C776.856 19.2919 775.064 20.2439 772.908 20.2439C769.016 20.2439 766.552 17.2479 766.552 13.4119ZM769.184 13.3559C769.184 15.9319 770.78 17.9479 773.356 17.9479C776.016 17.9479 777.64 16.0439 777.64 13.3559C777.64 10.7239 776.072 8.81991 773.384 8.81991C770.752 8.81991 769.184 10.8359 769.184 13.3559ZM790.062 20.9439C786.03 20.9439 783.258 18.0319 783.258 13.7759C783.258 9.49191 785.974 6.52391 789.95 6.52391C793.842 6.52391 796.39 9.21191 796.39 13.2719V14.2519L785.806 14.2799C786.002 17.1639 787.514 18.7599 790.118 18.7599C792.162 18.7599 793.506 17.9199 793.954 16.3519H796.418C795.746 19.2919 793.45 20.9439 790.062 20.9439ZM789.95 8.73591C787.654 8.73591 786.198 10.1079 785.862 12.5159H793.758C793.758 10.2479 792.274 8.73591 789.95 8.73591ZM805.867 16.6319H808.387C808.387 18.0319 809.451 18.8719 811.187 18.8719C813.035 18.8719 814.099 18.1159 814.099 16.8559C814.099 15.9319 813.651 15.3719 812.223 15.0079L809.815 14.4479C807.379 13.8599 806.231 12.6559 806.231 10.6399C806.231 8.11991 808.359 6.52391 811.383 6.52391C814.379 6.52391 816.339 8.20391 816.395 10.8079H813.875C813.819 9.43591 812.895 8.56791 811.299 8.56791C809.647 8.56791 808.723 9.29591 808.723 10.5559C808.723 11.4799 809.395 12.0959 810.739 12.4319L813.147 13.0199C815.471 13.5799 816.619 14.6439 816.619 16.6879C816.619 19.2919 814.379 20.9439 811.131 20.9439C807.911 20.9439 805.867 19.2359 805.867 16.6319ZM823.401 20.6079H820.769V9.12791H818.081V6.91591H820.769V2.63191H823.401V6.91591H826.089V9.12791H823.401V20.6079ZM832.291 20.9439C829.351 20.9439 827.615 19.2919 827.615 16.7999C827.615 14.2799 829.491 12.7119 832.711 12.4599L837.023 12.1239V11.7319C837.023 9.43591 835.651 8.62391 833.803 8.62391C831.591 8.62391 830.331 9.60391 830.331 11.2559H828.035C828.035 8.39991 830.387 6.52391 833.915 6.52391C837.303 6.52391 839.599 8.31591 839.599 12.0119V20.6079H837.359L837.079 18.3959C836.379 19.9639 834.503 20.9439 832.291 20.9439ZM833.047 18.8999C835.539 18.8999 837.051 17.2759 837.051 14.6999V13.9719L833.551 14.2519C831.227 14.4759 830.275 15.3719 830.275 16.7159C830.275 18.1719 831.339 18.8999 833.047 18.8999ZM846.89 20.6079H844.258V9.12791H841.57V6.91591H844.258V2.63191H846.89V6.91591H849.578V9.12791H846.89V20.6079ZM857.711 20.9439C853.679 20.9439 850.907 18.0319 850.907 13.7759C850.907 9.49191 853.623 6.52391 857.599 6.52391C861.491 6.52391 864.039 9.21191 864.039 13.2719V14.2519L853.455 14.2799C853.651 17.1639 855.163 18.7599 857.767 18.7599C859.811 18.7599 861.155 17.9199 861.603 16.3519H864.067C863.395 19.2919 861.099 20.9439 857.711 20.9439ZM857.599 8.73591C855.303 8.73591 853.847 10.1079 853.511 12.5159H861.407C861.407 10.2479 859.923 8.73591 857.599 8.73591ZM865.859 16.6319H868.379C868.379 18.0319 869.443 18.8719 871.179 18.8719C873.027 18.8719 874.091 18.1159 874.091 16.8559C874.091 15.9319 873.643 15.3719 872.215 15.0079L869.807 14.4479C867.371 13.8599 866.223 12.6559 866.223 10.6399C866.223 8.11991 868.351 6.52391 871.375 6.52391C874.371 6.52391 876.331 8.20391 876.387 10.8079H873.867C873.811 9.43591 872.887 8.56791 871.291 8.56791C869.639 8.56791 868.715 9.29591 868.715 10.5559C868.715 11.4799 869.387 12.0959 870.731 12.4319L873.139 13.0199C875.463 13.5799 876.611 14.6439 876.611 16.6879C876.611 19.2919 874.371 20.9439 871.123 20.9439C867.903 20.9439 865.859 19.2359 865.859 16.6319ZM883.313 19.5159C883.313 21.5319 881.801 23.2119 879.813 23.4639V22.2879C880.961 22.0919 881.773 21.3359 881.773 20.4679C881.577 20.5799 881.353 20.6359 881.017 20.6359C880.093 20.6359 879.309 19.9639 879.309 18.9279C879.309 17.8079 880.065 16.9959 881.185 16.9959C882.361 16.9959 883.313 17.9759 883.313 19.5159ZM898.764 20.9439C895.824 20.9439 894.088 19.2919 894.088 16.7999C894.088 14.2799 895.964 12.7119 899.184 12.4599L903.496 12.1239V11.7319C903.496 9.43591 902.124 8.62391 900.276 8.62391C898.064 8.62391 896.804 9.60391 896.804 11.2559H894.508C894.508 8.39991 896.86 6.52391 900.388 6.52391C903.776 6.52391 906.072 8.31591 906.072 12.0119V20.6079H903.832L903.552 18.3959C902.852 19.9639 900.976 20.9439 898.764 20.9439ZM899.52 18.8999C902.012 18.8999 903.524 17.2759 903.524 14.6999V13.9719L900.024 14.2519C897.7 14.4759 896.748 15.3719 896.748 16.7159C896.748 18.1719 897.812 18.8999 899.52 18.8999ZM912.349 20.6079H909.717V6.91591H912.097L912.377 9.01591C913.245 7.44791 914.981 6.52391 916.913 6.52391C920.525 6.52391 922.177 8.73591 922.177 12.2359V20.6079H919.545V12.8239C919.545 10.0519 918.257 8.93191 916.241 8.93191C913.777 8.93191 912.349 10.6959 912.349 13.3559V20.6079ZM931.31 20.9439C927.334 20.9439 924.926 17.9759 924.926 13.8039C924.926 9.60391 927.362 6.52391 931.422 6.52391C933.522 6.52391 935.286 7.44791 936.21 9.12791V-9.15527e-05H938.814V20.6079H936.462L936.238 18.1159C935.342 19.9919 933.494 20.9439 931.31 20.9439ZM931.842 18.5639C934.53 18.5639 936.182 16.5759 936.182 13.7199C936.182 10.9199 934.53 8.90391 931.842 8.90391C929.154 8.90391 927.586 10.9199 927.586 13.7199C927.586 16.5479 929.154 18.5639 931.842 18.5639ZM949.148 16.6319H951.668C951.668 18.0319 952.732 18.8719 954.468 18.8719C956.316 18.8719 957.38 18.1159 957.38 16.8559C957.38 15.9319 956.932 15.3719 955.504 15.0079L953.096 14.4479C950.66 13.8599 949.512 12.6559 949.512 10.6399C949.512 8.11991 951.64 6.52391 954.664 6.52391C957.66 6.52391 959.62 8.20391 959.676 10.8079H957.156C957.1 9.43591 956.176 8.56791 954.58 8.56791C952.928 8.56791 952.004 9.29591 952.004 10.5559C952.004 11.4799 952.676 12.0959 954.02 12.4319L956.428 13.0199C958.752 13.5799 959.9 14.6439 959.9 16.6879C959.9 19.2919 957.66 20.9439 954.412 20.9439C951.192 20.9439 949.148 19.2359 949.148 16.6319ZM968.727 20.9439C964.695 20.9439 961.923 18.0319 961.923 13.7759C961.923 9.49191 964.639 6.52391 968.615 6.52391C972.507 6.52391 975.055 9.21191 975.055 13.2719V14.2519L964.471 14.2799C964.667 17.1639 966.179 18.7599 968.783 18.7599C970.827 18.7599 972.171 17.9199 972.619 16.3519H975.083C974.411 19.2919 972.115 20.9439 968.727 20.9439ZM968.615 8.73591C966.319 8.73591 964.863 10.1079 964.527 12.5159H972.423C972.423 10.2479 970.939 8.73591 968.615 8.73591ZM980.626 20.6079H977.994V6.91591H980.374L980.654 9.01591C981.522 7.44791 983.258 6.52391 985.19 6.52391C988.802 6.52391 990.454 8.73591 990.454 12.2359V20.6079H987.822V12.8239C987.822 10.0519 986.534 8.93191 984.518 8.93191C982.054 8.93191 980.626 10.6959 980.626 13.3559V20.6079ZM999.588 20.9439C995.612 20.9439 993.204 17.9759 993.204 13.8039C993.204 9.60391 995.64 6.52391 999.7 6.52391C1001.8 6.52391 1003.56 7.44791 1004.49 9.12791V-9.15527e-05H1007.09V20.6079H1004.74L1004.52 18.1159C1003.62 19.9919 1001.77 20.9439 999.588 20.9439ZM1000.12 18.5639C1002.81 18.5639 1004.46 16.5759 1004.46 13.7199C1004.46 10.9199 1002.81 8.90391 1000.12 8.90391C997.432 8.90391 995.864 10.9199 995.864 13.7199C995.864 16.5479 997.432 18.5639 1000.12 18.5639ZM1012.18 3.66791C1011.22 3.66791 1010.44 2.88391 1010.44 1.93191C1010.44 0.95191 1011.22 0.195909 1012.18 0.195909C1013.13 0.195909 1013.91 0.95191 1013.91 1.93191C1013.91 2.88391 1013.13 3.66791 1012.18 3.66791ZM1010.89 20.6079V6.91591H1013.52V20.6079H1010.89ZM1019.97 20.6079H1017.34V6.91591H1019.72L1020 9.01591C1020.87 7.44791 1022.61 6.52391 1024.54 6.52391C1028.15 6.52391 1029.8 8.73591 1029.8 12.2359V20.6079H1027.17V12.8239C1027.17 10.0519 1025.88 8.93191 1023.87 8.93191C1021.4 8.93191 1019.97 10.6959 1019.97 13.3559V20.6079ZM1032.58 13.4119C1032.58 9.54791 1035.07 6.52391 1039.05 6.52391C1041.26 6.52391 1042.97 7.53191 1043.84 9.23991L1044.03 6.91591H1046.38V20.0479C1046.38 24.3599 1043.72 27.1039 1039.52 27.1039C1035.8 27.1039 1033.25 25.0039 1032.75 21.5319H1035.38C1035.72 23.5479 1037.23 24.7239 1039.52 24.7239C1042.1 24.7239 1043.78 23.0439 1043.78 20.4399V17.6959C1042.88 19.2919 1041.09 20.2439 1038.94 20.2439C1035.04 20.2439 1032.58 17.2479 1032.58 13.4119ZM1035.21 13.3559C1035.21 15.9319 1036.81 17.9479 1039.38 17.9479C1042.04 17.9479 1043.67 16.0439 1043.67 13.3559C1043.67 10.7239 1042.1 8.81991 1039.41 8.81991C1036.78 8.81991 1035.21 10.8359 1035.21 13.3559ZM1056.94 13.7479C1056.94 9.51991 1059.97 6.55191 1064.08 6.55191C1068.17 6.55191 1071.19 9.51991 1071.19 13.7479C1071.19 17.9759 1068.17 20.9439 1064.08 20.9439C1059.97 20.9439 1056.94 17.9759 1056.94 13.7479ZM1059.6 13.7479C1059.6 16.6039 1061.42 18.5919 1064.08 18.5919C1066.71 18.5919 1068.56 16.6039 1068.56 13.7479C1068.56 10.8919 1066.71 8.90391 1064.08 8.90391C1061.42 8.90391 1059.6 10.8919 1059.6 13.7479ZM1081.95 6.80391V9.21191H1080.77C1078.28 9.21191 1076.74 10.7239 1076.74 13.3559V20.6079H1074.11V6.94391H1076.57L1076.74 9.01591C1077.3 7.58791 1078.67 6.63591 1080.55 6.63591C1081.02 6.63591 1081.42 6.69191 1081.95 6.80391ZM1099.91 6.80391V9.21191H1098.74C1096.24 9.21191 1094.7 10.7239 1094.7 13.3559V20.6079H1092.07V6.94391H1094.54L1094.7 9.01591C1095.26 7.58791 1096.64 6.63591 1098.51 6.63591C1098.99 6.63591 1099.38 6.69191 1099.91 6.80391ZM1107.8 20.9439C1103.76 20.9439 1100.99 18.0319 1100.99 13.7759C1100.99 9.49191 1103.71 6.52391 1107.68 6.52391C1111.58 6.52391 1114.12 9.21191 1114.12 13.2719V14.2519L1103.54 14.2799C1103.74 17.1639 1105.25 18.7599 1107.85 18.7599C1109.9 18.7599 1111.24 17.9199 1111.69 16.3519H1114.15C1113.48 19.2919 1111.18 20.9439 1107.8 20.9439ZM1107.68 8.73591C1105.39 8.73591 1103.93 10.1079 1103.6 12.5159H1111.49C1111.49 10.2479 1110.01 8.73591 1107.68 8.73591ZM1116.17 13.7759C1116.17 9.49191 1118.88 6.52391 1122.89 6.52391C1126.33 6.52391 1128.74 8.48391 1129.22 11.5359H1126.58C1126.14 9.79991 1124.74 8.87591 1122.97 8.87591C1120.48 8.87591 1118.77 10.7799 1118.77 13.7479C1118.77 16.6879 1120.37 18.5919 1122.86 18.5919C1124.74 18.5919 1126.14 17.6119 1126.61 15.9879H1129.24C1128.71 18.9559 1126.16 20.9439 1122.86 20.9439C1118.83 20.9439 1116.17 18.0879 1116.17 13.7759ZM1137.93 20.9439C1133.9 20.9439 1131.13 18.0319 1131.13 13.7759C1131.13 9.49191 1133.84 6.52391 1137.82 6.52391C1141.71 6.52391 1144.26 9.21191 1144.26 13.2719V14.2519L1133.67 14.2799C1133.87 17.1639 1135.38 18.7599 1137.99 18.7599C1140.03 18.7599 1141.37 17.9199 1141.82 16.3519H1144.29C1143.61 19.2919 1141.32 20.9439 1137.93 20.9439ZM1137.82 8.73591C1135.52 8.73591 1134.07 10.1079 1133.73 12.5159H1141.63C1141.63 10.2479 1140.14 8.73591 1137.82 8.73591ZM1148.49 3.66791C1147.53 3.66791 1146.75 2.88391 1146.75 1.93191C1146.75 0.95191 1147.53 0.195909 1148.49 0.195909C1149.44 0.195909 1150.22 0.95191 1150.22 1.93191C1150.22 2.88391 1149.44 3.66791 1148.49 3.66791ZM1147.2 20.6079V6.91591H1149.83V20.6079H1147.2ZM1157.49 20.6079L1151.97 6.91591H1154.77L1157.77 14.5599C1158.24 15.8479 1158.63 16.9959 1158.86 17.8359C1159.08 16.9399 1159.53 15.7639 1160.01 14.5599L1163.06 6.91591H1165.8L1160.09 20.6079H1157.49ZM1169.18 3.66791C1168.23 3.66791 1167.45 2.88391 1167.45 1.93191C1167.45 0.95191 1168.23 0.195909 1169.18 0.195909C1170.14 0.195909 1170.92 0.95191 1170.92 1.93191C1170.92 2.88391 1170.14 3.66791 1169.18 3.66791ZM1167.9 20.6079V6.91591H1170.53V20.6079H1167.9ZM1176.98 20.6079H1174.35V6.91591H1176.73L1177.01 9.01591C1177.88 7.44791 1179.61 6.52391 1181.55 6.52391C1185.16 6.52391 1186.81 8.73591 1186.81 12.2359V20.6079H1184.18V12.8239C1184.18 10.0519 1182.89 8.93191 1180.87 8.93191C1178.41 8.93191 1176.98 10.6959 1176.98 13.3559V20.6079ZM1189.59 13.4119C1189.59 9.54791 1192.08 6.52391 1196.06 6.52391C1198.27 6.52391 1199.98 7.53191 1200.84 9.23991L1201.04 6.91591H1203.39V20.0479C1203.39 24.3599 1200.73 27.1039 1196.53 27.1039C1192.81 27.1039 1190.26 25.0039 1189.76 21.5319H1192.39C1192.72 23.5479 1194.24 24.7239 1196.53 24.7239C1199.11 24.7239 1200.79 23.0439 1200.79 20.4399V17.6959C1199.89 19.2919 1198.1 20.2439 1195.94 20.2439C1192.05 20.2439 1189.59 17.2479 1189.59 13.4119ZM1192.22 13.3559C1192.22 15.9319 1193.82 17.9479 1196.39 17.9479C1199.05 17.9479 1200.68 16.0439 1200.68 13.3559C1200.68 10.7239 1199.11 8.81991 1196.42 8.81991C1193.79 8.81991 1192.22 10.8359 1192.22 13.3559ZM1218.85 20.9439C1215.91 20.9439 1214.17 19.2919 1214.17 16.7999C1214.17 14.2799 1216.05 12.7119 1219.27 12.4599L1223.58 12.1239V11.7319C1223.58 9.43591 1222.21 8.62391 1220.36 8.62391C1218.15 8.62391 1216.89 9.60391 1216.89 11.2559H1214.59C1214.59 8.39991 1216.95 6.52391 1220.47 6.52391C1223.86 6.52391 1226.16 8.31591 1226.16 12.0119V20.6079H1223.92L1223.64 18.3959C1222.94 19.9639 1221.06 20.9439 1218.85 20.9439ZM1219.61 18.8999C1222.1 18.8999 1223.61 17.2759 1223.61 14.6999V13.9719L1220.11 14.2519C1217.79 14.4759 1216.83 15.3719 1216.83 16.7159C1216.83 18.1719 1217.9 18.8999 1219.61 18.8999ZM1228.91 13.7759C1228.91 9.49191 1231.62 6.52391 1235.63 6.52391C1239.07 6.52391 1241.48 8.48391 1241.95 11.5359H1239.32C1238.87 9.79991 1237.47 8.87591 1235.71 8.87591C1233.22 8.87591 1231.51 10.7799 1231.51 13.7479C1231.51 16.6879 1233.11 18.5919 1235.6 18.5919C1237.47 18.5919 1238.87 17.6119 1239.35 15.9879H1241.98C1241.45 18.9559 1238.9 20.9439 1235.6 20.9439C1231.57 20.9439 1228.91 18.0879 1228.91 13.7759ZM1248.62 20.6079H1245.99V9.12791H1243.3V6.91591H1245.99V2.63191H1248.62V6.91591H1251.31V9.12791H1248.62V20.6079ZM1254.96 3.66791C1254.01 3.66791 1253.23 2.88391 1253.23 1.93191C1253.23 0.95191 1254.01 0.195909 1254.96 0.195909C1255.91 0.195909 1256.7 0.95191 1256.7 1.93191C1256.7 2.88391 1255.91 3.66791 1254.96 3.66791ZM1253.67 20.6079V6.91591H1256.31V20.6079H1253.67ZM1259.23 13.7479C1259.23 9.51991 1262.26 6.55191 1266.37 6.55191C1270.46 6.55191 1273.48 9.51991 1273.48 13.7479C1273.48 17.9759 1270.46 20.9439 1266.37 20.9439C1262.26 20.9439 1259.23 17.9759 1259.23 13.7479ZM1261.89 13.7479C1261.89 16.6039 1263.71 18.5919 1266.37 18.5919C1269 18.5919 1270.85 16.6039 1270.85 13.7479C1270.85 10.8919 1269 8.90391 1266.37 8.90391C1263.71 8.90391 1261.89 10.8919 1261.89 13.7479ZM1279.03 20.6079H1276.4V6.91591H1278.78L1279.06 9.01591C1279.92 7.44791 1281.66 6.52391 1283.59 6.52391C1287.2 6.52391 1288.86 8.73591 1288.86 12.2359V20.6079H1286.22V12.8239C1286.22 10.0519 1284.94 8.93191 1282.92 8.93191C1280.46 8.93191 1279.03 10.6959 1279.03 13.3559V20.6079ZM1291.22 16.6319H1293.74C1293.74 18.0319 1294.8 18.8719 1296.54 18.8719C1298.39 18.8719 1299.45 18.1159 1299.45 16.8559C1299.45 15.9319 1299 15.3719 1297.57 15.0079L1295.17 14.4479C1292.73 13.8599 1291.58 12.6559 1291.58 10.6399C1291.58 8.11991 1293.71 6.52391 1296.73 6.52391C1299.73 6.52391 1301.69 8.20391 1301.75 10.8079H1299.23C1299.17 9.43591 1298.25 8.56791 1296.65 8.56791C1295 8.56791 1294.07 9.29591 1294.07 10.5559C1294.07 11.4799 1294.75 12.0959 1296.09 12.4319L1298.5 13.0199C1300.82 13.5799 1301.97 14.6439 1301.97 16.6879C1301.97 19.2919 1299.73 20.9439 1296.48 20.9439C1293.26 20.9439 1291.22 19.2359 1291.22 16.6319ZM1322.01 6.91591H1324.61V20.6079H1322.26L1321.98 18.5359C1321.2 19.9639 1319.38 20.9439 1317.36 20.9439C1314.17 20.9439 1312.38 18.7879 1312.38 15.4279V6.91591H1315.01V14.5599C1315.01 17.4999 1316.27 18.6199 1318.29 18.6199C1320.69 18.6199 1322.01 17.0799 1322.01 14.1399V6.91591ZM1327.04 16.6319H1329.56C1329.56 18.0319 1330.62 18.8719 1332.36 18.8719C1334.21 18.8719 1335.27 18.1159 1335.27 16.8559C1335.27 15.9319 1334.82 15.3719 1333.39 15.0079L1330.99 14.4479C1328.55 13.8599 1327.4 12.6559 1327.4 10.6399C1327.4 8.11991 1329.53 6.52391 1332.55 6.52391C1335.55 6.52391 1337.51 8.20391 1337.57 10.8079H1335.05C1334.99 9.43591 1334.07 8.56791 1332.47 8.56791C1330.82 8.56791 1329.89 9.29591 1329.89 10.5559C1329.89 11.4799 1330.57 12.0959 1331.91 12.4319L1334.32 13.0199C1336.64 13.5799 1337.79 14.6439 1337.79 16.6879C1337.79 19.2919 1335.55 20.9439 1332.3 20.9439C1329.08 20.9439 1327.04 19.2359 1327.04 16.6319ZM1346.62 20.9439C1342.59 20.9439 1339.81 18.0319 1339.81 13.7759C1339.81 9.49191 1342.53 6.52391 1346.51 6.52391C1350.4 6.52391 1352.95 9.21191 1352.95 13.2719V14.2519L1342.36 14.2799C1342.56 17.1639 1344.07 18.7599 1346.67 18.7599C1348.72 18.7599 1350.06 17.9199 1350.51 16.3519H1352.97C1352.3 19.2919 1350.01 20.9439 1346.62 20.9439ZM1346.51 8.73591C1344.21 8.73591 1342.75 10.1079 1342.42 12.5159H1350.31C1350.31 10.2479 1348.83 8.73591 1346.51 8.73591ZM1361.37 20.9439C1357.4 20.9439 1354.99 17.9759 1354.99 13.8039C1354.99 9.60391 1357.42 6.52391 1361.48 6.52391C1363.58 6.52391 1365.35 7.44791 1366.27 9.12791V-9.15527e-05H1368.88V20.6079H1366.52L1366.3 18.1159C1365.4 19.9919 1363.56 20.9439 1361.37 20.9439ZM1361.9 18.5639C1364.59 18.5639 1366.24 16.5759 1366.24 13.7199C1366.24 10.9199 1364.59 8.90391 1361.9 8.90391C1359.22 8.90391 1357.65 10.9199 1357.65 13.7199C1357.65 16.5479 1359.22 18.5639 1361.9 18.5639ZM1384.33 20.9439C1381.39 20.9439 1379.66 19.2919 1379.66 16.7999C1379.66 14.2799 1381.53 12.7119 1384.75 12.4599L1389.07 12.1239V11.7319C1389.07 9.43591 1387.69 8.62391 1385.85 8.62391C1383.63 8.62391 1382.37 9.60391 1382.37 11.2559H1380.08C1380.08 8.39991 1382.43 6.52391 1385.96 6.52391C1389.35 6.52391 1391.64 8.31591 1391.64 12.0119V20.6079H1389.4L1389.12 18.3959C1388.42 19.9639 1386.55 20.9439 1384.33 20.9439ZM1385.09 18.8999C1387.58 18.8999 1389.09 17.2759 1389.09 14.6999V13.9719L1385.59 14.2519C1383.27 14.4759 1382.32 15.3719 1382.32 16.7159C1382.32 18.1719 1383.38 18.8999 1385.09 18.8999ZM1394.39 13.7759C1394.39 9.49191 1397.11 6.52391 1401.11 6.52391C1404.56 6.52391 1406.96 8.48391 1407.44 11.5359H1404.81C1404.36 9.79991 1402.96 8.87591 1401.2 8.87591C1398.7 8.87591 1397 10.7799 1397 13.7479C1397 16.6879 1398.59 18.5919 1401.08 18.5919C1402.96 18.5919 1404.36 17.6119 1404.84 15.9879H1407.47C1406.94 18.9559 1404.39 20.9439 1401.08 20.9439C1397.05 20.9439 1394.39 18.0879 1394.39 13.7759ZM1418.08 6.80391V9.21191H1416.91C1414.42 9.21191 1412.88 10.7239 1412.88 13.3559V20.6079H1410.24V6.94391H1412.71L1412.88 9.01591C1413.44 7.58791 1414.81 6.63591 1416.68 6.63591C1417.16 6.63591 1417.55 6.69191 1418.08 6.80391ZM1419.16 13.7479C1419.16 9.51991 1422.19 6.55191 1426.3 6.55191C1430.39 6.55191 1433.42 9.51991 1433.42 13.7479C1433.42 17.9759 1430.39 20.9439 1426.3 20.9439C1422.19 20.9439 1419.16 17.9759 1419.16 13.7479ZM1421.82 13.7479C1421.82 16.6039 1423.64 18.5919 1426.3 18.5919C1428.94 18.5919 1430.78 16.6039 1430.78 13.7479C1430.78 10.8919 1428.94 8.90391 1426.3 8.90391C1423.64 8.90391 1421.82 10.8919 1421.82 13.7479ZM1435.21 16.6319H1437.73C1437.73 18.0319 1438.79 18.8719 1440.53 18.8719C1442.38 18.8719 1443.44 18.1159 1443.44 16.8559C1443.44 15.9319 1442.99 15.3719 1441.57 15.0079L1439.16 14.4479C1436.72 13.8599 1435.57 12.6559 1435.57 10.6399C1435.57 8.11991 1437.7 6.52391 1440.73 6.52391C1443.72 6.52391 1445.68 8.20391 1445.74 10.8079H1443.22C1443.16 9.43591 1442.24 8.56791 1440.64 8.56791C1438.99 8.56791 1438.07 9.29591 1438.07 10.5559C1438.07 11.4799 1438.74 12.0959 1440.08 12.4319L1442.49 13.0199C1444.81 13.5799 1445.96 14.6439 1445.96 16.6879C1445.96 19.2919 1443.72 20.9439 1440.47 20.9439C1437.25 20.9439 1435.21 19.2359 1435.21 16.6319ZM1447.76 16.6319H1450.28C1450.28 18.0319 1451.35 18.8719 1453.08 18.8719C1454.93 18.8719 1455.99 18.1159 1455.99 16.8559C1455.99 15.9319 1455.55 15.3719 1454.12 15.0079L1451.71 14.4479C1449.27 13.8599 1448.13 12.6559 1448.13 10.6399C1448.13 8.11991 1450.25 6.52391 1453.28 6.52391C1456.27 6.52391 1458.23 8.20391 1458.29 10.8079H1455.77C1455.71 9.43591 1454.79 8.56791 1453.19 8.56791C1451.54 8.56791 1450.62 9.29591 1450.62 10.5559C1450.62 11.4799 1451.29 12.0959 1452.63 12.4319L1455.04 13.0199C1457.37 13.5799 1458.51 14.6439 1458.51 16.6879C1458.51 19.2919 1456.27 20.9439 1453.03 20.9439C1449.81 20.9439 1447.76 19.2359 1447.76 16.6319ZM1471.72 20.6079H1469.09V6.91591H1471.44L1471.69 8.70791C1472.39 7.41991 1473.85 6.52391 1475.78 6.52391C1477.91 6.52391 1479.42 7.58791 1480.12 9.29591C1480.76 7.58791 1482.42 6.52391 1484.54 6.52391C1487.68 6.52391 1489.58 8.48391 1489.58 11.6479V20.6079H1487.01V12.2919C1487.01 10.1359 1485.8 8.90391 1483.96 8.90391C1481.97 8.90391 1480.65 10.3039 1480.65 12.4879V20.6079H1478.05V12.2639C1478.05 10.1079 1476.87 8.93191 1475.02 8.93191C1473.04 8.93191 1471.72 10.3039 1471.72 12.4879V20.6079ZM1499.14 20.9439C1495.11 20.9439 1492.34 18.0319 1492.34 13.7759C1492.34 9.49191 1495.05 6.52391 1499.03 6.52391C1502.92 6.52391 1505.47 9.21191 1505.47 13.2719V14.2519L1494.88 14.2799C1495.08 17.1639 1496.59 18.7599 1499.2 18.7599C1501.24 18.7599 1502.58 17.9199 1503.03 16.3519H1505.5C1504.82 19.2919 1502.53 20.9439 1499.14 20.9439ZM1499.03 8.73591C1496.73 8.73591 1495.28 10.1079 1494.94 12.5159H1502.84C1502.84 10.2479 1501.35 8.73591 1499.03 8.73591ZM1507.29 16.6319H1509.81C1509.81 18.0319 1510.87 18.8719 1512.61 18.8719C1514.46 18.8719 1515.52 18.1159 1515.52 16.8559C1515.52 15.9319 1515.07 15.3719 1513.64 15.0079L1511.24 14.4479C1508.8 13.8599 1507.65 12.6559 1507.65 10.6399C1507.65 8.11991 1509.78 6.52391 1512.8 6.52391C1515.8 6.52391 1517.76 8.20391 1517.82 10.8079H1515.3C1515.24 9.43591 1514.32 8.56791 1512.72 8.56791C1511.07 8.56791 1510.14 9.29591 1510.14 10.5559C1510.14 11.4799 1510.82 12.0959 1512.16 12.4319L1514.57 13.0199C1516.89 13.5799 1518.04 14.6439 1518.04 16.6879C1518.04 19.2919 1515.8 20.9439 1512.55 20.9439C1509.33 20.9439 1507.29 19.2359 1507.29 16.6319ZM1519.84 16.6319H1522.36C1522.36 18.0319 1523.42 18.8719 1525.16 18.8719C1527.01 18.8719 1528.07 18.1159 1528.07 16.8559C1528.07 15.9319 1527.62 15.3719 1526.2 15.0079L1523.79 14.4479C1521.35 13.8599 1520.2 12.6559 1520.2 10.6399C1520.2 8.11991 1522.33 6.52391 1525.36 6.52391C1528.35 6.52391 1530.31 8.20391 1530.37 10.8079H1527.85C1527.79 9.43591 1526.87 8.56791 1525.27 8.56791C1523.62 8.56791 1522.7 9.29591 1522.7 10.5559C1522.7 11.4799 1523.37 12.0959 1524.71 12.4319L1527.12 13.0199C1529.44 13.5799 1530.59 14.6439 1530.59 16.6879C1530.59 19.2919 1528.35 20.9439 1525.1 20.9439C1521.88 20.9439 1519.84 19.2359 1519.84 16.6319ZM1537.51 20.9439C1534.57 20.9439 1532.84 19.2919 1532.84 16.7999C1532.84 14.2799 1534.71 12.7119 1537.93 12.4599L1542.25 12.1239V11.7319C1542.25 9.43591 1540.87 8.62391 1539.03 8.62391C1536.81 8.62391 1535.55 9.60391 1535.55 11.2559H1533.26C1533.26 8.39991 1535.61 6.52391 1539.14 6.52391C1542.53 6.52391 1544.82 8.31591 1544.82 12.0119V20.6079H1542.58L1542.3 18.3959C1541.6 19.9639 1539.73 20.9439 1537.51 20.9439ZM1538.27 18.8999C1540.76 18.8999 1542.27 17.2759 1542.27 14.6999V13.9719L1538.77 14.2519C1536.45 14.4759 1535.5 15.3719 1535.5 16.7159C1535.5 18.1719 1536.56 18.8999 1538.27 18.8999ZM1547.6 13.4119C1547.6 9.54791 1550.09 6.52391 1554.07 6.52391C1556.28 6.52391 1557.99 7.53191 1558.85 9.23991L1559.05 6.91591H1561.4V20.0479C1561.4 24.3599 1558.74 27.1039 1554.54 27.1039C1550.82 27.1039 1548.27 25.0039 1547.77 21.5319H1550.4C1550.73 23.5479 1552.25 24.7239 1554.54 24.7239C1557.12 24.7239 1558.8 23.0439 1558.8 20.4399V17.6959C1557.9 19.2919 1556.11 20.2439 1553.95 20.2439C1550.06 20.2439 1547.6 17.2479 1547.6 13.4119ZM1550.23 13.3559C1550.23 15.9319 1551.83 17.9479 1554.4 17.9479C1557.06 17.9479 1558.69 16.0439 1558.69 13.3559C1558.69 10.7239 1557.12 8.81991 1554.43 8.81991C1551.8 8.81991 1550.23 10.8359 1550.23 13.3559ZM1566.49 3.66791C1565.54 3.66791 1564.75 2.88391 1564.75 1.93191C1564.75 0.95191 1565.54 0.195909 1566.49 0.195909C1567.44 0.195909 1568.23 0.95191 1568.23 1.93191C1568.23 2.88391 1567.44 3.66791 1566.49 3.66791ZM1565.2 20.6079V6.91591H1567.83V20.6079H1565.2ZM1574.29 20.6079H1571.65V6.91591H1574.03L1574.31 9.01591C1575.18 7.44791 1576.92 6.52391 1578.85 6.52391C1582.46 6.52391 1584.11 8.73591 1584.11 12.2359V20.6079H1581.48V12.8239C1581.48 10.0519 1580.19 8.93191 1578.18 8.93191C1575.71 8.93191 1574.29 10.6959 1574.29 13.3559V20.6079ZM1586.89 13.4119C1586.89 9.54791 1589.38 6.52391 1593.36 6.52391C1595.57 6.52391 1597.28 7.53191 1598.15 9.23991L1598.34 6.91591H1600.7V20.0479C1600.7 24.3599 1598.04 27.1039 1593.84 27.1039C1590.11 27.1039 1587.56 25.0039 1587.06 21.5319H1589.69C1590.03 23.5479 1591.54 24.7239 1593.84 24.7239C1596.41 24.7239 1598.09 23.0439 1598.09 20.4399V17.6959C1597.2 19.2919 1595.4 20.2439 1593.25 20.2439C1589.36 20.2439 1586.89 17.2479 1586.89 13.4119ZM1589.52 13.3559C1589.52 15.9319 1591.12 17.9479 1593.7 17.9479C1596.36 17.9479 1597.98 16.0439 1597.98 13.3559C1597.98 10.7239 1596.41 8.81991 1593.72 8.81991C1591.09 8.81991 1589.52 10.8359 1589.52 13.3559ZM1612.15 26.7399V6.91591H1614.53L1614.73 9.37991C1615.65 7.50391 1617.5 6.52391 1619.68 6.52391C1623.6 6.52391 1626.04 9.46391 1626.04 13.6639C1626.04 17.8359 1623.74 20.9719 1619.68 20.9719C1617.5 20.9719 1615.68 20.0479 1614.78 18.3679V26.7399H1612.15ZM1614.81 13.7759C1614.81 16.5759 1616.43 18.5919 1619.12 18.5919C1621.81 18.5919 1623.41 16.5759 1623.41 13.7759C1623.41 10.9479 1621.81 8.93191 1619.12 8.93191C1616.43 8.93191 1614.81 10.9199 1614.81 13.7759ZM1631.63 20.6079H1629V-9.15527e-05H1631.63V20.6079ZM1639.51 20.9439C1636.57 20.9439 1634.83 19.2919 1634.83 16.7999C1634.83 14.2799 1636.71 12.7119 1639.93 12.4599L1644.24 12.1239V11.7319C1644.24 9.43591 1642.87 8.62391 1641.02 8.62391C1638.81 8.62391 1637.55 9.60391 1637.55 11.2559H1635.25C1635.25 8.39991 1637.6 6.52391 1641.13 6.52391C1644.52 6.52391 1646.81 8.31591 1646.81 12.0119V20.6079H1644.57L1644.29 18.3959C1643.59 19.9639 1641.72 20.9439 1639.51 20.9439ZM1640.26 18.8999C1642.75 18.8999 1644.27 17.2759 1644.27 14.6999V13.9719L1640.77 14.2519C1638.44 14.4759 1637.49 15.3719 1637.49 16.7159C1637.49 18.1719 1638.55 18.8999 1640.26 18.8999ZM1654.1 20.6079H1651.47V9.12791H1648.78V6.91591H1651.47V2.63191H1654.1V6.91591H1656.79V9.12791H1654.1V20.6079ZM1657.94 6.91591H1659.96V4.73191C1659.96 1.37191 1661.81 -9.15527e-05 1664.3 -9.15527e-05C1664.8 -9.15527e-05 1665.39 0.0279098 1665.92 0.111909V2.37991H1664.75C1663.04 2.37991 1662.59 3.24791 1662.59 4.73191V6.91591H1665.84V9.12791H1662.59V20.6079H1659.96V9.12791H1657.94V6.91591ZM1666.98 13.7479C1666.98 9.51991 1670.01 6.55191 1674.12 6.55191C1678.21 6.55191 1681.23 9.51991 1681.23 13.7479C1681.23 17.9759 1678.21 20.9439 1674.12 20.9439C1670.01 20.9439 1666.98 17.9759 1666.98 13.7479ZM1669.64 13.7479C1669.64 16.6039 1671.46 18.5919 1674.12 18.5919C1676.75 18.5919 1678.6 16.6039 1678.6 13.7479C1678.6 10.8919 1676.75 8.90391 1674.12 8.90391C1671.46 8.90391 1669.64 10.8919 1669.64 13.7479ZM1691.99 6.80391V9.21191H1690.81C1688.32 9.21191 1686.78 10.7239 1686.78 13.3559V20.6079H1684.15V6.94391H1686.61L1686.78 9.01591C1687.34 7.58791 1688.71 6.63591 1690.59 6.63591C1691.06 6.63591 1691.45 6.69191 1691.99 6.80391ZM1697.09 20.6079H1694.46V6.91591H1696.81L1697.06 8.70791C1697.76 7.41991 1699.22 6.52391 1701.15 6.52391C1703.28 6.52391 1704.79 7.58791 1705.49 9.29591C1706.13 7.58791 1707.78 6.52391 1709.91 6.52391C1713.05 6.52391 1714.95 8.48391 1714.95 11.6479V20.6079H1712.38V12.2919C1712.38 10.1359 1711.17 8.90391 1709.32 8.90391C1707.34 8.90391 1706.02 10.3039 1706.02 12.4879V20.6079H1703.42V12.2639C1703.42 10.1079 1702.24 8.93191 1700.39 8.93191C1698.4 8.93191 1697.09 10.3039 1697.09 12.4879V20.6079ZM1717.32 16.6319H1719.84C1719.84 18.0319 1720.9 18.8719 1722.64 18.8719C1724.48 18.8719 1725.55 18.1159 1725.55 16.8559C1725.55 15.9319 1725.1 15.3719 1723.67 15.0079L1721.26 14.4479C1718.83 13.8599 1717.68 12.6559 1717.68 10.6399C1717.68 8.11991 1719.81 6.52391 1722.83 6.52391C1725.83 6.52391 1727.79 8.20391 1727.84 10.8079H1725.32C1725.27 9.43591 1724.34 8.56791 1722.75 8.56791C1721.1 8.56791 1720.17 9.29591 1720.17 10.5559C1720.17 11.4799 1720.84 12.0959 1722.19 12.4319L1724.6 13.0199C1726.92 13.5799 1728.07 14.6439 1728.07 16.6879C1728.07 19.2919 1725.83 20.9439 1722.58 20.9439C1719.36 20.9439 1717.32 19.2359 1717.32 16.6319ZM1734.77 19.5159C1734.77 21.5319 1733.26 23.2119 1731.27 23.4639V22.2879C1732.42 22.0919 1733.23 21.3359 1733.23 20.4679C1733.03 20.5799 1732.81 20.6359 1732.47 20.6359C1731.55 20.6359 1730.77 19.9639 1730.77 18.9279C1730.77 17.8079 1731.52 16.9959 1732.64 16.9959C1733.82 16.9959 1734.77 17.9759 1734.77 19.5159ZM1751.7 20.9439C1747.73 20.9439 1745.32 17.9759 1745.32 13.8039C1745.32 9.60391 1747.76 6.52391 1751.82 6.52391C1753.92 6.52391 1755.68 7.44791 1756.6 9.12791V-9.15527e-05H1759.21V20.6079H1756.86L1756.63 18.1159C1755.74 19.9919 1753.89 20.9439 1751.7 20.9439ZM1752.24 18.5639C1754.92 18.5639 1756.58 16.5759 1756.58 13.7199C1756.58 10.9199 1754.92 8.90391 1752.24 8.90391C1749.55 8.90391 1747.98 10.9199 1747.98 13.7199C1747.98 16.5479 1749.55 18.5639 1752.24 18.5639ZM1767.01 20.9439C1764.07 20.9439 1762.33 19.2919 1762.33 16.7999C1762.33 14.2799 1764.21 12.7119 1767.43 12.4599L1771.74 12.1239V11.7319C1771.74 9.43591 1770.37 8.62391 1768.52 8.62391C1766.31 8.62391 1765.05 9.60391 1765.05 11.2559H1762.75C1762.75 8.39991 1765.11 6.52391 1768.63 6.52391C1772.02 6.52391 1774.32 8.31591 1774.32 12.0119V20.6079H1772.08L1771.8 18.3959C1771.1 19.9639 1769.22 20.9439 1767.01 20.9439ZM1767.77 18.8999C1770.26 18.8999 1771.77 17.2759 1771.77 14.6999V13.9719L1768.27 14.2519C1765.95 14.4759 1764.99 15.3719 1764.99 16.7159C1764.99 18.1719 1766.06 18.8999 1767.77 18.8999ZM1776.84 16.6319H1779.36C1779.36 18.0319 1780.43 18.8719 1782.16 18.8719C1784.01 18.8719 1785.08 18.1159 1785.08 16.8559C1785.08 15.9319 1784.63 15.3719 1783.2 15.0079L1780.79 14.4479C1778.36 13.8599 1777.21 12.6559 1777.21 10.6399C1777.21 8.11991 1779.34 6.52391 1782.36 6.52391C1785.36 6.52391 1787.32 8.20391 1787.37 10.8079H1784.85C1784.8 9.43591 1783.87 8.56791 1782.28 8.56791C1780.62 8.56791 1779.7 9.29591 1779.7 10.5559C1779.7 11.4799 1780.37 12.0959 1781.72 12.4319L1784.12 13.0199C1786.45 13.5799 1787.6 14.6439 1787.6 16.6879C1787.6 19.2919 1785.36 20.9439 1782.11 20.9439C1778.89 20.9439 1776.84 19.2359 1776.84 16.6319ZM1793.15 20.5799H1790.51V-9.15527e-05H1793.15V9.01591C1794.01 7.53191 1795.67 6.52391 1797.79 6.52391C1801.29 6.52391 1802.97 8.73591 1802.97 12.2359V20.6079H1800.34V12.8239C1800.34 10.0519 1799.03 8.93191 1797.07 8.93191C1794.52 8.93191 1793.15 10.7799 1793.15 13.1319V20.5799ZM1809 20.6079H1806.62V-9.15527e-05H1809.25V9.26791C1810.15 7.47591 1812 6.52391 1814.24 6.52391C1818.16 6.52391 1820.51 9.60391 1820.51 13.8319C1820.51 17.9759 1818.04 20.9439 1814.07 20.9439C1811.91 20.9439 1810.09 19.9919 1809.2 18.1159L1809 20.6079ZM1809.28 13.7199C1809.28 16.5759 1810.9 18.5639 1813.59 18.5639C1816.28 18.5639 1817.88 16.5479 1817.88 13.7199C1817.88 10.9199 1816.28 8.90391 1813.59 8.90391C1810.9 8.90391 1809.28 10.9199 1809.28 13.7199ZM1822.51 13.7479C1822.51 9.51991 1825.54 6.55191 1829.65 6.55191C1833.74 6.55191 1836.76 9.51991 1836.76 13.7479C1836.76 17.9759 1833.74 20.9439 1829.65 20.9439C1825.54 20.9439 1822.51 17.9759 1822.51 13.7479ZM1825.17 13.7479C1825.17 16.6039 1826.99 18.5919 1829.65 18.5919C1832.28 18.5919 1834.13 16.6039 1834.13 13.7479C1834.13 10.8919 1832.28 8.90391 1829.65 8.90391C1826.99 8.90391 1825.17 10.8919 1825.17 13.7479ZM1843.68 20.9439C1840.74 20.9439 1839.01 19.2919 1839.01 16.7999C1839.01 14.2799 1840.88 12.7119 1844.1 12.4599L1848.41 12.1239V11.7319C1848.41 9.43591 1847.04 8.62391 1845.19 8.62391C1842.98 8.62391 1841.72 9.60391 1841.72 11.2559H1839.43C1839.43 8.39991 1841.78 6.52391 1845.31 6.52391C1848.69 6.52391 1850.99 8.31591 1850.99 12.0119V20.6079H1848.75L1848.47 18.3959C1847.77 19.9639 1845.89 20.9439 1843.68 20.9439ZM1844.44 18.8999C1846.93 18.8999 1848.44 17.2759 1848.44 14.6999V13.9719L1844.94 14.2519C1842.62 14.4759 1841.67 15.3719 1841.67 16.7159C1841.67 18.1719 1842.73 18.8999 1844.44 18.8999ZM1862.47 6.80391V9.21191H1861.3C1858.81 9.21191 1857.27 10.7239 1857.27 13.3559V20.6079H1854.63V6.94391H1857.1L1857.27 9.01591C1857.83 7.58791 1859.2 6.63591 1861.07 6.63591C1861.55 6.63591 1861.94 6.69191 1862.47 6.80391ZM1869.94 20.9439C1865.96 20.9439 1863.56 17.9759 1863.56 13.8039C1863.56 9.60391 1865.99 6.52391 1870.05 6.52391C1872.15 6.52391 1873.92 7.44791 1874.84 9.12791V-9.15527e-05H1877.44V20.6079H1875.09L1874.87 18.1159C1873.97 19.9919 1872.12 20.9439 1869.94 20.9439ZM1870.47 18.5639C1873.16 18.5639 1874.81 16.5759 1874.81 13.7199C1874.81 10.9199 1873.16 8.90391 1870.47 8.90391C1867.78 8.90391 1866.22 10.9199 1866.22 13.7199C1866.22 16.5479 1867.78 18.5639 1870.47 18.5639ZM1880.12 16.6319H1882.64C1882.64 18.0319 1883.7 18.8719 1885.44 18.8719C1887.29 18.8719 1888.35 18.1159 1888.35 16.8559C1888.35 15.9319 1887.9 15.3719 1886.48 15.0079L1884.07 14.4479C1881.63 13.8599 1880.48 12.6559 1880.48 10.6399C1880.48 8.11991 1882.61 6.52391 1885.64 6.52391C1888.63 6.52391 1890.59 8.20391 1890.65 10.8079H1888.13C1888.07 9.43591 1887.15 8.56791 1885.55 8.56791C1883.9 8.56791 1882.98 9.29591 1882.98 10.5559C1882.98 11.4799 1883.65 12.0959 1884.99 12.4319L1887.4 13.0199C1889.72 13.5799 1890.87 14.6439 1890.87 16.6879C1890.87 19.2919 1888.63 20.9439 1885.38 20.9439C1882.16 20.9439 1880.12 19.2359 1880.12 16.6319ZM1897.58 19.5159C1897.58 21.5319 1896.06 23.2119 1894.08 23.4639V22.2879C1895.22 22.0919 1896.04 21.3359 1896.04 20.4679C1895.84 20.5799 1895.62 20.6359 1895.28 20.6359C1894.36 20.6359 1893.57 19.9639 1893.57 18.9279C1893.57 17.8079 1894.33 16.9959 1895.45 16.9959C1896.62 16.9959 1897.58 17.9759 1897.58 19.5159ZM1913.03 20.9439C1910.09 20.9439 1908.35 19.2919 1908.35 16.7999C1908.35 14.2799 1910.23 12.7119 1913.45 12.4599L1917.76 12.1239V11.7319C1917.76 9.43591 1916.39 8.62391 1914.54 8.62391C1912.33 8.62391 1911.07 9.60391 1911.07 11.2559H1908.77C1908.77 8.39991 1911.12 6.52391 1914.65 6.52391C1918.04 6.52391 1920.33 8.31591 1920.33 12.0119V20.6079H1918.09L1917.81 18.3959C1917.11 19.9639 1915.24 20.9439 1913.03 20.9439ZM1913.78 18.8999C1916.27 18.8999 1917.79 17.2759 1917.79 14.6999V13.9719L1914.29 14.2519C1911.96 14.4759 1911.01 15.3719 1911.01 16.7159C1911.01 18.1719 1912.07 18.8999 1913.78 18.8999ZM1926.61 20.6079H1923.98V6.91591H1926.36L1926.64 9.01591C1927.51 7.44791 1929.24 6.52391 1931.17 6.52391C1934.79 6.52391 1936.44 8.73591 1936.44 12.2359V20.6079H1933.81V12.8239C1933.81 10.0519 1932.52 8.93191 1930.5 8.93191C1928.04 8.93191 1926.61 10.6959 1926.61 13.3559V20.6079ZM1945.57 20.9439C1941.6 20.9439 1939.19 17.9759 1939.19 13.8039C1939.19 9.60391 1941.62 6.52391 1945.68 6.52391C1947.78 6.52391 1949.55 7.44791 1950.47 9.12791V-9.15527e-05H1953.08V20.6079H1950.72L1950.5 18.1159C1949.6 19.9919 1947.76 20.9439 1945.57 20.9439ZM1946.1 18.5639C1948.79 18.5639 1950.44 16.5759 1950.44 13.7199C1950.44 10.9199 1948.79 8.90391 1946.1 8.90391C1943.42 8.90391 1941.85 10.9199 1941.85 13.7199C1941.85 16.5479 1943.42 18.5639 1946.1 18.5639ZM1963.41 16.6319H1965.93C1965.93 18.0319 1966.99 18.8719 1968.73 18.8719C1970.58 18.8719 1971.64 18.1159 1971.64 16.8559C1971.64 15.9319 1971.19 15.3719 1969.77 15.0079L1967.36 14.4479C1964.92 13.8599 1963.77 12.6559 1963.77 10.6399C1963.77 8.11991 1965.9 6.52391 1968.93 6.52391C1971.92 6.52391 1973.88 8.20391 1973.94 10.8079H1971.42C1971.36 9.43591 1970.44 8.56791 1968.84 8.56791C1967.19 8.56791 1966.27 9.29591 1966.27 10.5559C1966.27 11.4799 1966.94 12.0959 1968.28 12.4319L1970.69 13.0199C1973.01 13.5799 1974.16 14.6439 1974.16 16.6879C1974.16 19.2919 1971.92 20.9439 1968.67 20.9439C1965.45 20.9439 1963.41 19.2359 1963.41 16.6319ZM1986.54 6.91591H1989.15V20.6079H1986.8L1986.52 18.5359C1985.73 19.9639 1983.91 20.9439 1981.9 20.9439C1978.7 20.9439 1976.91 18.7879 1976.91 15.4279V6.91591H1979.54V14.5599C1979.54 17.4999 1980.8 18.6199 1982.82 18.6199C1985.23 18.6199 1986.54 17.0799 1986.54 14.1399V6.91591ZM1992.97 26.7399V6.91591H1995.35L1995.54 9.37991C1996.47 7.50391 1998.31 6.52391 2000.5 6.52391C2004.42 6.52391 2006.85 9.46391 2006.85 13.6639C2006.85 17.8359 2004.56 20.9719 2000.5 20.9719C1998.31 20.9719 1996.49 20.0479 1995.6 18.3679V26.7399H1992.97ZM1995.63 13.7759C1995.63 16.5759 1997.25 18.5919 1999.94 18.5919C2002.63 18.5919 2004.22 16.5759 2004.22 13.7759C2004.22 10.9479 2002.63 8.93191 1999.94 8.93191C1997.25 8.93191 1995.63 10.9199 1995.63 13.7759ZM2009.76 26.7399V6.91591H2012.14L2012.33 9.37991C2013.26 7.50391 2015.1 6.52391 2017.29 6.52391C2021.21 6.52391 2023.64 9.46391 2023.64 13.6639C2023.64 17.8359 2021.35 20.9719 2017.29 20.9719C2015.1 20.9719 2013.28 20.0479 2012.39 18.3679V26.7399H2009.76ZM2012.42 13.7759C2012.42 16.5759 2014.04 18.5919 2016.73 18.5919C2019.42 18.5919 2021.01 16.5759 2021.01 13.7759C2021.01 10.9479 2019.42 8.93191 2016.73 8.93191C2014.04 8.93191 2012.42 10.9199 2012.42 13.7759ZM2025.65 13.7479C2025.65 9.51991 2028.67 6.55191 2032.79 6.55191C2036.88 6.55191 2039.9 9.51991 2039.9 13.7479C2039.9 17.9759 2036.88 20.9439 2032.79 20.9439C2028.67 20.9439 2025.65 17.9759 2025.65 13.7479ZM2028.31 13.7479C2028.31 16.6039 2030.13 18.5919 2032.79 18.5919C2035.42 18.5919 2037.27 16.6039 2037.27 13.7479C2037.27 10.8919 2035.42 8.90391 2032.79 8.90391C2030.13 8.90391 2028.31 10.8919 2028.31 13.7479ZM2050.65 6.80391V9.21191H2049.48C2046.99 9.21191 2045.45 10.7239 2045.45 13.3559V20.6079H2042.81V6.94391H2045.28L2045.45 9.01591C2046.01 7.58791 2047.38 6.63591 2049.25 6.63591C2049.73 6.63591 2050.12 6.69191 2050.65 6.80391ZM2057.53 20.6079H2054.9V9.12791H2052.21V6.91591H2054.9V2.63191H2057.53V6.91591H2060.22V9.12791H2057.53V20.6079ZM2071.53 3.66791C2070.58 3.66791 2069.79 2.88391 2069.79 1.93191C2069.79 0.95191 2070.58 0.195909 2071.53 0.195909C2072.48 0.195909 2073.26 0.95191 2073.26 1.93191C2073.26 2.88391 2072.48 3.66791 2071.53 3.66791ZM2070.24 20.6079V6.91591H2072.87V20.6079H2070.24ZM2079.33 20.6079H2076.69V6.91591H2079.07L2079.35 9.01591C2080.22 7.44791 2081.96 6.52391 2083.89 6.52391C2087.5 6.52391 2089.15 8.73591 2089.15 12.2359V20.6079H2086.52V12.8239C2086.52 10.0519 2085.23 8.93191 2083.22 8.93191C2080.75 8.93191 2079.33 10.6959 2079.33 13.3559V20.6079ZM2096.66 20.6079H2094.03V9.12791H2091.34V6.91591H2094.03V2.63191H2096.66V6.91591H2099.35V9.12791H2096.66V20.6079ZM2107.48 20.9439C2103.45 20.9439 2100.68 18.0319 2100.68 13.7759C2100.68 9.49191 2103.4 6.52391 2107.37 6.52391C2111.26 6.52391 2113.81 9.21191 2113.81 13.2719V14.2519L2103.23 14.2799C2103.42 17.1639 2104.94 18.7599 2107.54 18.7599C2109.58 18.7599 2110.93 17.9199 2111.38 16.3519H2113.84C2113.17 19.2919 2110.87 20.9439 2107.48 20.9439ZM2107.37 8.73591C2105.08 8.73591 2103.62 10.1079 2103.28 12.5159H2111.18C2111.18 10.2479 2109.7 8.73591 2107.37 8.73591ZM2124.59 6.80391V9.21191H2123.42C2120.92 9.21191 2119.38 10.7239 2119.38 13.3559V20.6079H2116.75V6.94391H2119.22L2119.38 9.01591C2119.94 7.58791 2121.32 6.63591 2123.19 6.63591C2123.67 6.63591 2124.06 6.69191 2124.59 6.80391ZM2126.15 6.91591H2128.17V4.73191C2128.17 1.37191 2130.02 -9.15527e-05 2132.51 -9.15527e-05C2133.01 -9.15527e-05 2133.6 0.0279098 2134.13 0.111909V2.37991H2132.96C2131.25 2.37991 2130.8 3.24791 2130.8 4.73191V6.91591H2134.05V9.12791H2130.8V20.6079H2128.17V9.12791H2126.15V6.91591ZM2140.06 20.9439C2137.12 20.9439 2135.38 19.2919 2135.38 16.7999C2135.38 14.2799 2137.26 12.7119 2140.48 12.4599L2144.79 12.1239V11.7319C2144.79 9.43591 2143.42 8.62391 2141.57 8.62391C2139.36 8.62391 2138.1 9.60391 2138.1 11.2559H2135.8C2135.8 8.39991 2138.16 6.52391 2141.68 6.52391C2145.07 6.52391 2147.37 8.31591 2147.37 12.0119V20.6079H2145.13L2144.85 18.3959C2144.15 19.9639 2142.27 20.9439 2140.06 20.9439ZM2140.82 18.8999C2143.31 18.8999 2144.82 17.2759 2144.82 14.6999V13.9719L2141.32 14.2519C2139 14.4759 2138.04 15.3719 2138.04 16.7159C2138.04 18.1719 2139.11 18.8999 2140.82 18.8999ZM2150.12 13.7759C2150.12 9.49191 2152.83 6.52391 2156.84 6.52391C2160.28 6.52391 2162.69 8.48391 2163.17 11.5359H2160.53C2160.09 9.79991 2158.69 8.87591 2156.92 8.87591C2154.43 8.87591 2152.72 10.7799 2152.72 13.7479C2152.72 16.6879 2154.32 18.5919 2156.81 18.5919C2158.69 18.5919 2160.09 17.6119 2160.56 15.9879H2163.19C2162.66 18.9559 2160.11 20.9439 2156.81 20.9439C2152.78 20.9439 2150.12 18.0879 2150.12 13.7759ZM2171.88 20.9439C2167.85 20.9439 2165.07 18.0319 2165.07 13.7759C2165.07 9.49191 2167.79 6.52391 2171.77 6.52391C2175.66 6.52391 2178.21 9.21191 2178.21 13.2719V14.2519L2167.62 14.2799C2167.82 17.1639 2169.33 18.7599 2171.93 18.7599C2173.98 18.7599 2175.32 17.9199 2175.77 16.3519H2178.23C2177.56 19.2919 2175.27 20.9439 2171.88 20.9439ZM2171.77 8.73591C2169.47 8.73591 2168.01 10.1079 2167.68 12.5159H2175.57C2175.57 10.2479 2174.09 8.73591 2171.77 8.73591ZM2180.03 16.6319H2182.55C2182.55 18.0319 2183.61 18.8719 2185.35 18.8719C2187.19 18.8719 2188.26 18.1159 2188.26 16.8559C2188.26 15.9319 2187.81 15.3719 2186.38 15.0079L2183.97 14.4479C2181.54 13.8599 2180.39 12.6559 2180.39 10.6399C2180.39 8.11991 2182.52 6.52391 2185.54 6.52391C2188.54 6.52391 2190.5 8.20391 2190.55 10.8079H2188.03C2187.98 9.43591 2187.05 8.56791 2185.46 8.56791C2183.81 8.56791 2182.88 9.29591 2182.88 10.5559C2182.88 11.4799 2183.55 12.0959 2184.9 12.4319L2187.31 13.0199C2189.63 13.5799 2190.78 14.6439 2190.78 16.6879C2190.78 19.2919 2188.54 20.9439 2185.29 20.9439C2182.07 20.9439 2180.03 19.2359 2180.03 16.6319ZM2195.49 20.9439C2194.4 20.9439 2193.48 20.0479 2193.48 18.9839C2193.48 17.8919 2194.4 16.9959 2195.49 16.9959C2196.56 16.9959 2197.48 17.8919 2197.48 18.9839C2197.48 20.0479 2196.56 20.9439 2195.49 20.9439Z" fill="black"/>
</svg>
