<svg width="1820" height="69" viewBox="0 0 1820 69" fill="none" xmlns="http://www.w3.org/2000/svg">
<path d="M9.744 20.916C3.976 20.916 0.140004 16.772 0.140004 10.5C0.140004 4.256 4.088 0.0280013 9.88401 0.0280013C14.448 0.0280013 17.948 2.744 18.704 6.888H15.764C15.008 4.256 12.74 2.66 9.8 2.66C5.712 2.66 3.024 5.74 3.024 10.472C3.024 15.204 5.712 18.284 9.8 18.284C12.768 18.284 15.12 16.688 15.876 14.196H18.788C17.92 18.228 14.308 20.916 9.744 20.916ZM20.8086 13.748C20.8086 9.52 23.8326 6.552 27.9486 6.552C32.0366 6.552 35.0606 9.52 35.0606 13.748C35.0606 17.976 32.0366 20.944 27.9486 20.944C23.8326 20.944 20.8086 17.976 20.8086 13.748ZM23.4686 13.748C23.4686 16.604 25.2886 18.592 27.9486 18.592C30.5806 18.592 32.4286 16.604 32.4286 13.748C32.4286 10.892 30.5806 8.904 27.9486 8.904C25.2886 8.904 23.4686 10.892 23.4686 13.748ZM45.8141 6.804V9.212H44.6381C42.1461 9.212 40.6061 10.724 40.6061 13.356V20.608H37.9741V6.944H40.4381L40.6061 9.016C41.1661 7.588 42.5381 6.636 44.4141 6.636C44.8901 6.636 45.2821 6.692 45.8141 6.804ZM53.6985 20.944C49.6665 20.944 46.8945 18.032 46.8945 13.776C46.8945 9.492 49.6105 6.524 53.5865 6.524C57.4785 6.524 60.0265 9.212 60.0265 13.272V14.252L49.4425 14.28C49.6385 17.164 51.1505 18.76 53.7545 18.76C55.7985 18.76 57.1425 17.92 57.5905 16.352H60.0545C59.3825 19.292 57.0865 20.944 53.6985 20.944ZM53.5865 8.736C51.2905 8.736 49.8345 10.108 49.4985 12.516H57.3945C57.3945 10.248 55.9105 8.736 53.5865 8.736ZM70.9306 13.412V0.364H73.6746V13.244C73.6746 16.492 75.4666 18.284 78.6866 18.284C81.8786 18.284 83.6426 16.464 83.6426 13.244V0.364H86.4146V13.412C86.4146 18.06 83.4466 20.944 78.6866 20.944C73.8986 20.944 70.9306 18.088 70.9306 13.412ZM93.7208 0.364V20.608H90.9768V0.364H93.7208ZM106.938 3.668C105.986 3.668 105.202 2.884 105.202 1.932C105.202 0.952001 105.986 0.196001 106.938 0.196001C107.89 0.196001 108.674 0.952001 108.674 1.932C108.674 2.884 107.89 3.668 106.938 3.668ZM105.65 20.608V6.916H108.282V20.608H105.65ZM111.207 13.776C111.207 9.492 113.923 6.524 117.927 6.524C121.371 6.524 123.779 8.484 124.255 11.536H121.623C121.175 9.8 119.775 8.876 118.011 8.876C115.519 8.876 113.811 10.78 113.811 13.748C113.811 16.688 115.407 18.592 117.899 18.592C119.775 18.592 121.175 17.612 121.651 15.988H124.283C123.751 18.956 121.203 20.944 117.899 20.944C113.867 20.944 111.207 18.088 111.207 13.776ZM126.164 13.748C126.164 9.52 129.188 6.552 133.304 6.552C137.392 6.552 140.416 9.52 140.416 13.748C140.416 17.976 137.392 20.944 133.304 20.944C129.188 20.944 126.164 17.976 126.164 13.748ZM128.824 13.748C128.824 16.604 130.644 18.592 133.304 18.592C135.936 18.592 137.784 16.604 137.784 13.748C137.784 10.892 135.936 8.904 133.304 8.904C130.644 8.904 128.824 10.892 128.824 13.748ZM145.962 20.608H143.33V6.916H145.71L145.99 9.016C146.858 7.448 148.594 6.524 150.526 6.524C154.138 6.524 155.79 8.736 155.79 12.236V20.608H153.158V12.824C153.158 10.052 151.87 8.932 149.854 8.932C147.39 8.932 145.962 10.696 145.962 13.356V20.608ZM158.151 16.632H160.671C160.671 18.032 161.735 18.872 163.471 18.872C165.319 18.872 166.383 18.116 166.383 16.856C166.383 15.932 165.935 15.372 164.507 15.008L162.099 14.448C159.663 13.86 158.515 12.656 158.515 10.64C158.515 8.12 160.643 6.524 163.667 6.524C166.663 6.524 168.623 8.204 168.679 10.808H166.159C166.103 9.436 165.179 8.568 163.583 8.568C161.931 8.568 161.007 9.296 161.007 10.556C161.007 11.48 161.679 12.096 163.023 12.432L165.431 13.02C167.755 13.58 168.903 14.644 168.903 16.688C168.903 19.292 166.663 20.944 163.415 20.944C160.195 20.944 158.151 19.236 158.151 16.632ZM178.582 13.776C178.582 9.492 181.298 6.524 185.302 6.524C188.746 6.524 191.154 8.484 191.63 11.536H188.998C188.55 9.8 187.15 8.876 185.386 8.876C182.894 8.876 181.186 10.78 181.186 13.748C181.186 16.688 182.782 18.592 185.274 18.592C187.15 18.592 188.55 17.612 189.026 15.988H191.658C191.126 18.956 188.578 20.944 185.274 20.944C181.242 20.944 178.582 18.088 178.582 13.776ZM193.539 13.748C193.539 9.52 196.563 6.552 200.679 6.552C204.767 6.552 207.791 9.52 207.791 13.748C207.791 17.976 204.767 20.944 200.679 20.944C196.563 20.944 193.539 17.976 193.539 13.748ZM196.199 13.748C196.199 16.604 198.019 18.592 200.679 18.592C203.311 18.592 205.159 16.604 205.159 13.748C205.159 10.892 203.311 8.904 200.679 8.904C198.019 8.904 196.199 10.892 196.199 13.748ZM213.912 20.608L208.396 6.916H211.196L214.192 14.56C214.668 15.848 215.06 16.996 215.284 17.836C215.508 16.94 215.956 15.764 216.432 14.56L219.484 6.916H222.228L216.516 20.608H213.912ZM229.601 20.944C225.569 20.944 222.797 18.032 222.797 13.776C222.797 9.492 225.513 6.524 229.489 6.524C233.381 6.524 235.929 9.212 235.929 13.272V14.252L225.345 14.28C225.541 17.164 227.053 18.76 229.657 18.76C231.701 18.76 233.045 17.92 233.493 16.352H235.957C235.285 19.292 232.989 20.944 229.601 20.944ZM229.489 8.736C227.193 8.736 225.737 10.108 225.401 12.516H233.297C233.297 10.248 231.813 8.736 229.489 8.736ZM246.709 6.804V9.212H245.533C243.041 9.212 241.501 10.724 241.501 13.356V20.608H238.869V6.944H241.333L241.501 9.016C242.061 7.588 243.433 6.636 245.309 6.636C245.785 6.636 246.177 6.692 246.709 6.804ZM250.465 3.668C249.513 3.668 248.729 2.884 248.729 1.932C248.729 0.952001 249.513 0.196001 250.465 0.196001C251.417 0.196001 252.201 0.952001 252.201 1.932C252.201 2.884 251.417 3.668 250.465 3.668ZM249.177 20.608V6.916H251.809V20.608H249.177ZM258.262 20.608H255.63V6.916H258.01L258.29 9.016C259.158 7.448 260.894 6.524 262.826 6.524C266.438 6.524 268.09 8.736 268.09 12.236V20.608H265.458V12.824C265.458 10.052 264.17 8.932 262.154 8.932C259.69 8.932 258.262 10.696 258.262 13.356V20.608ZM270.868 13.412C270.868 9.548 273.36 6.524 277.336 6.524C279.548 6.524 281.256 7.532 282.124 9.24L282.32 6.916H284.672V20.048C284.672 24.36 282.012 27.104 277.812 27.104C274.088 27.104 271.54 25.004 271.036 21.532H273.668C274.004 23.548 275.516 24.724 277.812 24.724C280.388 24.724 282.068 23.044 282.068 20.44V17.696C281.172 19.292 279.38 20.244 277.224 20.244C273.332 20.244 270.868 17.248 270.868 13.412ZM273.5 13.356C273.5 15.932 275.096 17.948 277.672 17.948C280.332 17.948 281.956 16.044 281.956 13.356C281.956 10.724 280.388 8.82 277.7 8.82C275.068 8.82 273.5 10.836 273.5 13.356ZM295.23 13.776C295.23 9.492 297.946 6.524 301.95 6.524C305.394 6.524 307.802 8.484 308.278 11.536H305.646C305.198 9.8 303.798 8.876 302.034 8.876C299.542 8.876 297.834 10.78 297.834 13.748C297.834 16.688 299.43 18.592 301.922 18.592C303.798 18.592 305.198 17.612 305.674 15.988H308.306C307.774 18.956 305.226 20.944 301.922 20.944C297.89 20.944 295.23 18.088 295.23 13.776ZM310.188 13.748C310.188 9.52 313.212 6.552 317.328 6.552C321.416 6.552 324.44 9.52 324.44 13.748C324.44 17.976 321.416 20.944 317.328 20.944C313.212 20.944 310.188 17.976 310.188 13.748ZM312.848 13.748C312.848 16.604 314.668 18.592 317.328 18.592C319.96 18.592 321.808 16.604 321.808 13.748C321.808 10.892 319.96 8.904 317.328 8.904C314.668 8.904 312.848 10.892 312.848 13.748ZM329.985 20.608H327.353V6.916H329.705L329.957 8.708C330.657 7.42 332.113 6.524 334.045 6.524C336.173 6.524 337.685 7.588 338.385 9.296C339.029 7.588 340.681 6.524 342.809 6.524C345.945 6.524 347.849 8.484 347.849 11.648V20.608H345.273V12.292C345.273 10.136 344.069 8.904 342.221 8.904C340.233 8.904 338.917 10.304 338.917 12.488V20.608H336.313V12.264C336.313 10.108 335.137 8.932 333.289 8.932C331.301 8.932 329.985 10.304 329.985 12.488V20.608ZM354.13 20.608H351.498V6.916H353.85L354.102 8.708C354.802 7.42 356.258 6.524 358.19 6.524C360.318 6.524 361.83 7.588 362.53 9.296C363.174 7.588 364.826 6.524 366.954 6.524C370.09 6.524 371.994 8.484 371.994 11.648V20.608H369.418V12.292C369.418 10.136 368.214 8.904 366.366 8.904C364.378 8.904 363.062 10.304 363.062 12.488V20.608H360.458V12.264C360.458 10.108 359.282 8.932 357.434 8.932C355.446 8.932 354.13 10.304 354.13 12.488V20.608ZM374.746 13.748C374.746 9.52 377.77 6.552 381.886 6.552C385.974 6.552 388.998 9.52 388.998 13.748C388.998 17.976 385.974 20.944 381.886 20.944C377.77 20.944 374.746 17.976 374.746 13.748ZM377.406 13.748C377.406 16.604 379.226 18.592 381.886 18.592C384.518 18.592 386.366 16.604 386.366 13.748C386.366 10.892 384.518 8.904 381.886 8.904C379.226 8.904 377.406 10.892 377.406 13.748ZM394.544 20.608H391.912V6.916H394.292L394.572 9.016C395.44 7.448 397.176 6.524 399.108 6.524C402.72 6.524 404.372 8.736 404.372 12.236V20.608H401.74V12.824C401.74 10.052 400.452 8.932 398.436 8.932C395.972 8.932 394.544 10.696 394.544 13.356V20.608ZM419.677 20.944C416.737 20.944 415.001 19.292 415.001 16.8C415.001 14.28 416.877 12.712 420.097 12.46L424.409 12.124V11.732C424.409 9.436 423.037 8.624 421.189 8.624C418.977 8.624 417.717 9.604 417.717 11.256H415.421C415.421 8.4 417.773 6.524 421.301 6.524C424.689 6.524 426.985 8.316 426.985 12.012V20.608H424.745L424.465 18.396C423.765 19.964 421.889 20.944 419.677 20.944ZM420.433 18.9C422.925 18.9 424.437 17.276 424.437 14.7V13.972L420.937 14.252C418.613 14.476 417.661 15.372 417.661 16.716C417.661 18.172 418.725 18.9 420.433 18.9ZM429.734 13.776C429.734 9.492 432.45 6.524 436.454 6.524C439.898 6.524 442.306 8.484 442.782 11.536H440.15C439.702 9.8 438.302 8.876 436.538 8.876C434.046 8.876 432.338 10.78 432.338 13.748C432.338 16.688 433.934 18.592 436.426 18.592C438.302 18.592 439.702 17.612 440.178 15.988H442.81C442.278 18.956 439.73 20.944 436.426 20.944C432.394 20.944 429.734 18.088 429.734 13.776ZM449.451 20.608H446.819V9.128H444.131V6.916H446.819V2.632H449.451V6.916H452.139V9.128H449.451V20.608ZM455.789 3.668C454.837 3.668 454.053 2.884 454.053 1.932C454.053 0.952001 454.837 0.196001 455.789 0.196001C456.741 0.196001 457.525 0.952001 457.525 1.932C457.525 2.884 456.741 3.668 455.789 3.668ZM454.501 20.608V6.916H457.133V20.608H454.501ZM460.059 13.748C460.059 9.52 463.083 6.552 467.199 6.552C471.287 6.552 474.311 9.52 474.311 13.748C474.311 17.976 471.287 20.944 467.199 20.944C463.083 20.944 460.059 17.976 460.059 13.748ZM462.719 13.748C462.719 16.604 464.539 18.592 467.199 18.592C469.831 18.592 471.679 16.604 471.679 13.748C471.679 10.892 469.831 8.904 467.199 8.904C464.539 8.904 462.719 10.892 462.719 13.748ZM479.856 20.608H477.224V6.916H479.604L479.884 9.016C480.752 7.448 482.488 6.524 484.42 6.524C488.032 6.524 489.684 8.736 489.684 12.236V20.608H487.052V12.824C487.052 10.052 485.764 8.932 483.748 8.932C481.284 8.932 479.856 10.696 479.856 13.356V20.608ZM492.046 16.632H494.566C494.566 18.032 495.63 18.872 497.366 18.872C499.214 18.872 500.278 18.116 500.278 16.856C500.278 15.932 499.83 15.372 498.402 15.008L495.994 14.448C493.558 13.86 492.41 12.656 492.41 10.64C492.41 8.12 494.538 6.524 497.562 6.524C500.558 6.524 502.518 8.204 502.574 10.808H500.054C499.998 9.436 499.074 8.568 497.478 8.568C495.826 8.568 494.902 9.296 494.902 10.556C494.902 11.48 495.574 12.096 496.918 12.432L499.326 13.02C501.65 13.58 502.798 14.644 502.798 16.688C502.798 19.292 500.558 20.944 497.31 20.944C494.09 20.944 492.046 19.236 492.046 16.632ZM517.377 20.944C514.437 20.944 512.701 19.292 512.701 16.8C512.701 14.28 514.577 12.712 517.797 12.46L522.109 12.124V11.732C522.109 9.436 520.737 8.624 518.889 8.624C516.677 8.624 515.417 9.604 515.417 11.256H513.121C513.121 8.4 515.473 6.524 519.001 6.524C522.389 6.524 524.685 8.316 524.685 12.012V20.608H522.445L522.165 18.396C521.465 19.964 519.589 20.944 517.377 20.944ZM518.133 18.9C520.625 18.9 522.137 17.276 522.137 14.7V13.972L518.637 14.252C516.313 14.476 515.361 15.372 515.361 16.716C515.361 18.172 516.425 18.9 518.133 18.9ZM530.962 20.608H528.33V6.916H530.71L530.99 9.016C531.858 7.448 533.594 6.524 535.526 6.524C539.138 6.524 540.79 8.736 540.79 12.236V20.608H538.158V12.824C538.158 10.052 536.87 8.932 534.854 8.932C532.39 8.932 530.962 10.696 530.962 13.356V20.608ZM549.923 20.944C545.947 20.944 543.539 17.976 543.539 13.804C543.539 9.604 545.975 6.524 550.035 6.524C552.135 6.524 553.899 7.448 554.823 9.128V0H557.427V20.608H555.075L554.851 18.116C553.955 19.992 552.107 20.944 549.923 20.944ZM550.455 18.564C553.143 18.564 554.795 16.576 554.795 13.72C554.795 10.92 553.143 8.904 550.455 8.904C547.767 8.904 546.199 10.92 546.199 13.72C546.199 16.548 547.767 18.564 550.455 18.564ZM567.76 16.632H570.28C570.28 18.032 571.344 18.872 573.08 18.872C574.928 18.872 575.992 18.116 575.992 16.856C575.992 15.932 575.544 15.372 574.116 15.008L571.708 14.448C569.272 13.86 568.124 12.656 568.124 10.64C568.124 8.12 570.252 6.524 573.276 6.524C576.272 6.524 578.232 8.204 578.288 10.808H575.768C575.712 9.436 574.788 8.568 573.192 8.568C571.54 8.568 570.616 9.296 570.616 10.556C570.616 11.48 571.288 12.096 572.632 12.432L575.04 13.02C577.364 13.58 578.512 14.644 578.512 16.688C578.512 19.292 576.272 20.944 573.024 20.944C569.804 20.944 567.76 19.236 567.76 16.632ZM585.295 20.608H582.663V9.128H579.975V6.916H582.663V2.632H585.295V6.916H587.983V9.128H585.295V20.608ZM594.185 20.944C591.245 20.944 589.509 19.292 589.509 16.8C589.509 14.28 591.385 12.712 594.605 12.46L598.917 12.124V11.732C598.917 9.436 597.545 8.624 595.697 8.624C593.485 8.624 592.225 9.604 592.225 11.256H589.929C589.929 8.4 592.281 6.524 595.809 6.524C599.197 6.524 601.493 8.316 601.493 12.012V20.608H599.253L598.973 18.396C598.273 19.964 596.397 20.944 594.185 20.944ZM594.941 18.9C597.433 18.9 598.945 17.276 598.945 14.7V13.972L595.445 14.252C593.121 14.476 592.169 15.372 592.169 16.716C592.169 18.172 593.233 18.9 594.941 18.9ZM608.783 20.608H606.151V9.128H603.463V6.916H606.151V2.632H608.783V6.916H611.471V9.128H608.783V20.608ZM619.605 20.944C615.573 20.944 612.801 18.032 612.801 13.776C612.801 9.492 615.517 6.524 619.493 6.524C623.385 6.524 625.933 9.212 625.933 13.272V14.252L615.349 14.28C615.545 17.164 617.057 18.76 619.661 18.76C621.705 18.76 623.049 17.92 623.497 16.352H625.961C625.289 19.292 622.993 20.944 619.605 20.944ZM619.493 8.736C617.197 8.736 615.741 10.108 615.405 12.516H623.301C623.301 10.248 621.817 8.736 619.493 8.736ZM627.753 16.632H630.273C630.273 18.032 631.337 18.872 633.073 18.872C634.921 18.872 635.985 18.116 635.985 16.856C635.985 15.932 635.537 15.372 634.109 15.008L631.701 14.448C629.265 13.86 628.117 12.656 628.117 10.64C628.117 8.12 630.245 6.524 633.269 6.524C636.265 6.524 638.225 8.204 638.281 10.808H635.761C635.705 9.436 634.781 8.568 633.185 8.568C631.533 8.568 630.609 9.296 630.609 10.556C630.609 11.48 631.281 12.096 632.625 12.432L635.033 13.02C637.357 13.58 638.505 14.644 638.505 16.688C638.505 19.292 636.265 20.944 633.017 20.944C629.797 20.944 627.753 19.236 627.753 16.632ZM645.207 19.516C645.207 21.532 643.695 23.212 641.707 23.464V22.288C642.855 22.092 643.667 21.336 643.667 20.468C643.471 20.58 643.247 20.636 642.911 20.636C641.987 20.636 641.203 19.964 641.203 18.928C641.203 17.808 641.959 16.996 643.079 16.996C644.255 16.996 645.207 17.976 645.207 19.516ZM662.142 20.944C658.166 20.944 655.758 17.976 655.758 13.804C655.758 9.604 658.194 6.524 662.254 6.524C664.354 6.524 666.118 7.448 667.042 9.128V0H669.646V20.608H667.294L667.07 18.116C666.174 19.992 664.326 20.944 662.142 20.944ZM662.674 18.564C665.362 18.564 667.014 16.576 667.014 13.72C667.014 10.92 665.362 8.904 662.674 8.904C659.986 8.904 658.418 10.92 658.418 13.72C658.418 16.548 659.986 18.564 662.674 18.564ZM679.351 20.944C675.319 20.944 672.547 18.032 672.547 13.776C672.547 9.492 675.263 6.524 679.239 6.524C683.131 6.524 685.679 9.212 685.679 13.272V14.252L675.095 14.28C675.291 17.164 676.803 18.76 679.407 18.76C681.451 18.76 682.795 17.92 683.243 16.352H685.707C685.035 19.292 682.739 20.944 679.351 20.944ZM679.239 8.736C676.943 8.736 675.487 10.108 675.151 12.516H683.047C683.047 10.248 681.563 8.736 679.239 8.736ZM687.499 16.632H690.019C690.019 18.032 691.083 18.872 692.819 18.872C694.667 18.872 695.731 18.116 695.731 16.856C695.731 15.932 695.283 15.372 693.855 15.008L691.447 14.448C689.011 13.86 687.863 12.656 687.863 10.64C687.863 8.12 689.991 6.524 693.015 6.524C696.011 6.524 697.971 8.204 698.027 10.808H695.507C695.451 9.436 694.527 8.568 692.931 8.568C691.279 8.568 690.355 9.296 690.355 10.556C690.355 11.48 691.027 12.096 692.371 12.432L694.779 13.02C697.103 13.58 698.251 14.644 698.251 16.688C698.251 19.292 696.011 20.944 692.763 20.944C689.543 20.944 687.499 19.236 687.499 16.632ZM702.457 3.668C701.505 3.668 700.721 2.884 700.721 1.932C700.721 0.952001 701.505 0.196001 702.457 0.196001C703.409 0.196001 704.193 0.952001 704.193 1.932C704.193 2.884 703.409 3.668 702.457 3.668ZM701.169 20.608V6.916H703.801V20.608H701.169ZM706.755 13.412C706.755 9.548 709.247 6.524 713.223 6.524C715.435 6.524 717.143 7.532 718.011 9.24L718.207 6.916H720.559V20.048C720.559 24.36 717.899 27.104 713.699 27.104C709.975 27.104 707.427 25.004 706.923 21.532H709.555C709.891 23.548 711.403 24.724 713.699 24.724C716.275 24.724 717.955 23.044 717.955 20.44V17.696C717.059 19.292 715.267 20.244 713.111 20.244C709.219 20.244 706.755 17.248 706.755 13.412ZM709.387 13.356C709.387 15.932 710.983 17.948 713.559 17.948C716.219 17.948 717.843 16.044 717.843 13.356C717.843 10.724 716.275 8.82 713.587 8.82C710.955 8.82 709.387 10.836 709.387 13.356ZM726.989 20.608H724.357V6.916H726.737L727.017 9.016C727.885 7.448 729.621 6.524 731.553 6.524C735.165 6.524 736.817 8.736 736.817 12.236V20.608H734.185V12.824C734.185 10.052 732.897 8.932 730.881 8.932C728.417 8.932 726.989 10.696 726.989 13.356V20.608ZM746.37 20.944C742.338 20.944 739.566 18.032 739.566 13.776C739.566 9.492 742.282 6.524 746.258 6.524C750.15 6.524 752.698 9.212 752.698 13.272V14.252L742.114 14.28C742.31 17.164 743.822 18.76 746.426 18.76C748.47 18.76 749.814 17.92 750.262 16.352H752.726C752.054 19.292 749.758 20.944 746.37 20.944ZM746.258 8.736C743.962 8.736 742.506 10.108 742.17 12.516H750.066C750.066 10.248 748.582 8.736 746.258 8.736ZM761.126 20.944C757.15 20.944 754.742 17.976 754.742 13.804C754.742 9.604 757.178 6.524 761.238 6.524C763.338 6.524 765.102 7.448 766.026 9.128V0H768.63V20.608H766.278L766.054 18.116C765.158 19.992 763.31 20.944 761.126 20.944ZM761.658 18.564C764.346 18.564 765.998 16.576 765.998 13.72C765.998 10.92 764.346 8.904 761.658 8.904C758.97 8.904 757.402 10.92 757.402 13.72C757.402 16.548 758.97 18.564 761.658 18.564ZM778.628 6.916H780.644V4.732C780.644 1.372 782.492 0 784.984 0C785.488 0 786.076 0.0280013 786.608 0.112V2.38H785.432C783.724 2.38 783.276 3.248 783.276 4.732V6.916H786.524V9.128H783.276V20.608H780.644V9.128H778.628V6.916ZM787.664 13.748C787.664 9.52 790.688 6.552 794.804 6.552C798.892 6.552 801.916 9.52 801.916 13.748C801.916 17.976 798.892 20.944 794.804 20.944C790.688 20.944 787.664 17.976 787.664 13.748ZM790.324 13.748C790.324 16.604 792.144 18.592 794.804 18.592C797.436 18.592 799.284 16.604 799.284 13.748C799.284 10.892 797.436 8.904 794.804 8.904C792.144 8.904 790.324 10.892 790.324 13.748ZM812.67 6.804V9.212H811.494C809.002 9.212 807.462 10.724 807.462 13.356V20.608H804.83V6.944H807.294L807.462 9.016C808.022 7.588 809.394 6.636 811.27 6.636C811.746 6.636 812.138 6.692 812.67 6.804ZM828.282 20.944C824.306 20.944 821.898 17.976 821.898 13.804C821.898 9.604 824.334 6.524 828.394 6.524C830.494 6.524 832.258 7.448 833.182 9.128V0H835.786V20.608H833.434L833.21 18.116C832.314 19.992 830.466 20.944 828.282 20.944ZM828.814 18.564C831.502 18.564 833.154 16.576 833.154 13.72C833.154 10.92 831.502 8.904 828.814 8.904C826.126 8.904 824.558 10.92 824.558 13.72C824.558 16.548 826.126 18.564 828.814 18.564ZM843.588 20.944C840.648 20.944 838.912 19.292 838.912 16.8C838.912 14.28 840.788 12.712 844.008 12.46L848.32 12.124V11.732C848.32 9.436 846.948 8.624 845.1 8.624C842.888 8.624 841.628 9.604 841.628 11.256H839.332C839.332 8.4 841.684 6.524 845.212 6.524C848.6 6.524 850.896 8.316 850.896 12.012V20.608H848.656L848.376 18.396C847.676 19.964 845.8 20.944 843.588 20.944ZM844.344 18.9C846.836 18.9 848.348 17.276 848.348 14.7V13.972L844.848 14.252C842.524 14.476 841.572 15.372 841.572 16.716C841.572 18.172 842.636 18.9 844.344 18.9ZM853.421 16.632H855.941C855.941 18.032 857.005 18.872 858.741 18.872C860.589 18.872 861.653 18.116 861.653 16.856C861.653 15.932 861.205 15.372 859.777 15.008L857.369 14.448C854.933 13.86 853.785 12.656 853.785 10.64C853.785 8.12 855.913 6.524 858.937 6.524C861.933 6.524 863.893 8.204 863.949 10.808H861.429C861.373 9.436 860.449 8.568 858.853 8.568C857.201 8.568 856.277 9.296 856.277 10.556C856.277 11.48 856.949 12.096 858.293 12.432L860.701 13.02C863.025 13.58 864.173 14.644 864.173 16.688C864.173 19.292 861.933 20.944 858.685 20.944C855.465 20.944 853.421 19.236 853.421 16.632ZM869.723 20.58H867.091V0H869.723V9.016C870.591 7.532 872.243 6.524 874.371 6.524C877.871 6.524 879.551 8.736 879.551 12.236V20.608H876.919V12.824C876.919 10.052 875.603 8.932 873.643 8.932C871.095 8.932 869.723 10.78 869.723 13.132V20.58ZM885.577 20.608H883.197V0H885.829V9.268C886.725 7.476 888.573 6.524 890.813 6.524C894.733 6.524 897.085 9.604 897.085 13.832C897.085 17.976 894.621 20.944 890.645 20.944C888.489 20.944 886.669 19.992 885.773 18.116L885.577 20.608ZM885.857 13.72C885.857 16.576 887.481 18.564 890.169 18.564C892.857 18.564 894.453 16.548 894.453 13.72C894.453 10.92 892.857 8.904 890.169 8.904C887.481 8.904 885.857 10.92 885.857 13.72ZM899.09 13.748C899.09 9.52 902.114 6.552 906.23 6.552C910.318 6.552 913.342 9.52 913.342 13.748C913.342 17.976 910.318 20.944 906.23 20.944C902.114 20.944 899.09 17.976 899.09 13.748ZM901.75 13.748C901.75 16.604 903.57 18.592 906.23 18.592C908.862 18.592 910.71 16.604 910.71 13.748C910.71 10.892 908.862 8.904 906.23 8.904C903.57 8.904 901.75 10.892 901.75 13.748ZM920.259 20.944C917.319 20.944 915.583 19.292 915.583 16.8C915.583 14.28 917.459 12.712 920.679 12.46L924.991 12.124V11.732C924.991 9.436 923.619 8.624 921.771 8.624C919.559 8.624 918.299 9.604 918.299 11.256H916.003C916.003 8.4 918.355 6.524 921.883 6.524C925.271 6.524 927.567 8.316 927.567 12.012V20.608H925.327L925.047 18.396C924.347 19.964 922.471 20.944 920.259 20.944ZM921.015 18.9C923.507 18.9 925.019 17.276 925.019 14.7V13.972L921.519 14.252C919.195 14.476 918.243 15.372 918.243 16.716C918.243 18.172 919.307 18.9 921.015 18.9ZM939.052 6.804V9.212H937.876C935.384 9.212 933.844 10.724 933.844 13.356V20.608H931.212V6.944H933.676L933.844 9.016C934.404 7.588 935.776 6.636 937.652 6.636C938.128 6.636 938.52 6.692 939.052 6.804ZM946.517 20.944C942.541 20.944 940.133 17.976 940.133 13.804C940.133 9.604 942.569 6.524 946.629 6.524C948.729 6.524 950.493 7.448 951.417 9.128V0H954.021V20.608H951.669L951.445 18.116C950.549 19.992 948.701 20.944 946.517 20.944ZM947.049 18.564C949.737 18.564 951.389 16.576 951.389 13.72C951.389 10.92 949.737 8.904 947.049 8.904C944.361 8.904 942.793 10.92 942.793 13.72C942.793 16.548 944.361 18.564 947.049 18.564ZM956.698 16.632H959.218C959.218 18.032 960.282 18.872 962.018 18.872C963.866 18.872 964.93 18.116 964.93 16.856C964.93 15.932 964.482 15.372 963.054 15.008L960.646 14.448C958.21 13.86 957.062 12.656 957.062 10.64C957.062 8.12 959.19 6.524 962.214 6.524C965.21 6.524 967.17 8.204 967.226 10.808H964.706C964.65 9.436 963.726 8.568 962.13 8.568C960.478 8.568 959.554 9.296 959.554 10.556C959.554 11.48 960.226 12.096 961.57 12.432L963.978 13.02C966.302 13.58 967.45 14.644 967.45 16.688C967.45 19.292 965.21 20.944 961.962 20.944C958.742 20.944 956.698 19.236 956.698 16.632ZM974.153 19.516C974.153 21.532 972.641 23.212 970.653 23.464V22.288C971.801 22.092 972.613 21.336 972.613 20.468C972.417 20.58 972.193 20.636 971.857 20.636C970.933 20.636 970.149 19.964 970.149 18.928C970.149 17.808 970.905 16.996 972.025 16.996C973.201 16.996 974.153 17.976 974.153 19.516ZM989.603 20.944C986.663 20.944 984.927 19.292 984.927 16.8C984.927 14.28 986.803 12.712 990.023 12.46L994.335 12.124V11.732C994.335 9.436 992.963 8.624 991.115 8.624C988.903 8.624 987.643 9.604 987.643 11.256H985.347C985.347 8.4 987.699 6.524 991.227 6.524C994.615 6.524 996.911 8.316 996.911 12.012V20.608H994.671L994.391 18.396C993.691 19.964 991.815 20.944 989.603 20.944ZM990.359 18.9C992.851 18.9 994.363 17.276 994.363 14.7V13.972L990.863 14.252C988.539 14.476 987.587 15.372 987.587 16.716C987.587 18.172 988.651 18.9 990.359 18.9ZM1000.56 26.74V6.916H1002.94L1003.13 9.38C1004.06 7.504 1005.9 6.524 1008.09 6.524C1012.01 6.524 1014.44 9.464 1014.44 13.664C1014.44 17.836 1012.15 20.972 1008.09 20.972C1005.9 20.972 1004.08 20.048 1003.19 18.368V26.74H1000.56ZM1003.22 13.776C1003.22 16.576 1004.84 18.592 1007.53 18.592C1010.22 18.592 1011.81 16.576 1011.81 13.776C1011.81 10.948 1010.22 8.932 1007.53 8.932C1004.84 8.932 1003.22 10.92 1003.22 13.776ZM1017.35 26.74V6.916H1019.73L1019.92 9.38C1020.85 7.504 1022.69 6.524 1024.88 6.524C1028.8 6.524 1031.23 9.464 1031.23 13.664C1031.23 17.836 1028.94 20.972 1024.88 20.972C1022.69 20.972 1020.87 20.048 1019.98 18.368V26.74H1017.35ZM1020.01 13.776C1020.01 16.576 1021.63 18.592 1024.32 18.592C1027.01 18.592 1028.6 16.576 1028.6 13.776C1028.6 10.948 1027.01 8.932 1024.32 8.932C1021.63 8.932 1020.01 10.92 1020.01 13.776ZM1033.01 16.632H1035.53C1035.53 18.032 1036.6 18.872 1038.33 18.872C1040.18 18.872 1041.25 18.116 1041.25 16.856C1041.25 15.932 1040.8 15.372 1039.37 15.008L1036.96 14.448C1034.53 13.86 1033.38 12.656 1033.38 10.64C1033.38 8.12 1035.51 6.524 1038.53 6.524C1041.53 6.524 1043.49 8.204 1043.54 10.808H1041.02C1040.97 9.436 1040.04 8.568 1038.45 8.568C1036.79 8.568 1035.87 9.296 1035.87 10.556C1035.87 11.48 1036.54 12.096 1037.89 12.432L1040.29 13.02C1042.62 13.58 1043.77 14.644 1043.77 16.688C1043.77 19.292 1041.53 20.944 1038.28 20.944C1035.06 20.944 1033.01 19.236 1033.01 16.632ZM1050.47 19.516C1050.47 21.532 1048.96 23.212 1046.97 23.464V22.288C1048.12 22.092 1048.93 21.336 1048.93 20.468C1048.73 20.58 1048.51 20.636 1048.17 20.636C1047.25 20.636 1046.47 19.964 1046.47 18.928C1046.47 17.808 1047.22 16.996 1048.34 16.996C1049.52 16.996 1050.47 17.976 1050.47 19.516ZM1065.92 20.944C1062.98 20.944 1061.24 19.292 1061.24 16.8C1061.24 14.28 1063.12 12.712 1066.34 12.46L1070.65 12.124V11.732C1070.65 9.436 1069.28 8.624 1067.43 8.624C1065.22 8.624 1063.96 9.604 1063.96 11.256H1061.66C1061.66 8.4 1064.02 6.524 1067.54 6.524C1070.93 6.524 1073.23 8.316 1073.23 12.012V20.608H1070.99L1070.71 18.396C1070.01 19.964 1068.13 20.944 1065.92 20.944ZM1066.68 18.9C1069.17 18.9 1070.68 17.276 1070.68 14.7V13.972L1067.18 14.252C1064.86 14.476 1063.9 15.372 1063.9 16.716C1063.9 18.172 1064.97 18.9 1066.68 18.9ZM1079.5 20.608H1076.87V6.916H1079.25L1079.53 9.016C1080.4 7.448 1082.14 6.524 1084.07 6.524C1087.68 6.524 1089.33 8.736 1089.33 12.236V20.608H1086.7V12.824C1086.7 10.052 1085.41 8.932 1083.4 8.932C1080.93 8.932 1079.5 10.696 1079.5 13.356V20.608ZM1098.47 20.944C1094.49 20.944 1092.08 17.976 1092.08 13.804C1092.08 9.604 1094.52 6.524 1098.58 6.524C1100.68 6.524 1102.44 7.448 1103.37 9.128V0H1105.97V20.608H1103.62L1103.39 18.116C1102.5 19.992 1100.65 20.944 1098.47 20.944ZM1099 18.564C1101.69 18.564 1103.34 16.576 1103.34 13.72C1103.34 10.92 1101.69 8.904 1099 8.904C1096.31 8.904 1094.74 10.92 1094.74 13.72C1094.74 16.548 1096.31 18.564 1099 18.564ZM1116.56 13.412C1116.56 9.548 1119.05 6.524 1123.02 6.524C1125.24 6.524 1126.94 7.532 1127.81 9.24L1128.01 6.916H1130.36V20.048C1130.36 24.36 1127.7 27.104 1123.5 27.104C1119.78 27.104 1117.23 25.004 1116.72 21.532H1119.36C1119.69 23.548 1121.2 24.724 1123.5 24.724C1126.08 24.724 1127.76 23.044 1127.76 20.44V17.696C1126.86 19.292 1125.07 20.244 1122.91 20.244C1119.02 20.244 1116.56 17.248 1116.56 13.412ZM1119.19 13.356C1119.19 15.932 1120.78 17.948 1123.36 17.948C1126.02 17.948 1127.64 16.044 1127.64 13.356C1127.64 10.724 1126.08 8.82 1123.39 8.82C1120.76 8.82 1119.19 10.836 1119.19 13.356ZM1140.07 20.944C1136.03 20.944 1133.26 18.032 1133.26 13.776C1133.26 9.492 1135.98 6.524 1139.95 6.524C1143.85 6.524 1146.39 9.212 1146.39 13.272V14.252L1135.81 14.28C1136.01 17.164 1137.52 18.76 1140.12 18.76C1142.17 18.76 1143.51 17.92 1143.96 16.352H1146.42C1145.75 19.292 1143.45 20.944 1140.07 20.944ZM1139.95 8.736C1137.66 8.736 1136.2 10.108 1135.87 12.516H1143.76C1143.76 10.248 1142.28 8.736 1139.95 8.736ZM1151.97 20.608H1149.33V6.916H1151.71L1151.99 9.016C1152.86 7.448 1154.6 6.524 1156.53 6.524C1160.14 6.524 1161.79 8.736 1161.79 12.236V20.608H1159.16V12.824C1159.16 10.052 1157.87 8.932 1155.86 8.932C1153.39 8.932 1151.97 10.696 1151.97 13.356V20.608ZM1171.35 20.944C1167.31 20.944 1164.54 18.032 1164.54 13.776C1164.54 9.492 1167.26 6.524 1171.23 6.524C1175.13 6.524 1177.67 9.212 1177.67 13.272V14.252L1167.09 14.28C1167.29 17.164 1168.8 18.76 1171.4 18.76C1173.45 18.76 1174.79 17.92 1175.24 16.352H1177.7C1177.03 19.292 1174.73 20.944 1171.35 20.944ZM1171.23 8.736C1168.94 8.736 1167.48 10.108 1167.15 12.516H1175.04C1175.04 10.248 1173.56 8.736 1171.23 8.736ZM1188.45 6.804V9.212H1187.28C1184.79 9.212 1183.25 10.724 1183.25 13.356V20.608H1180.61V6.944H1183.08L1183.25 9.016C1183.81 7.588 1185.18 6.636 1187.05 6.636C1187.53 6.636 1187.92 6.692 1188.45 6.804ZM1194.38 20.944C1191.44 20.944 1189.7 19.292 1189.7 16.8C1189.7 14.28 1191.58 12.712 1194.8 12.46L1199.11 12.124V11.732C1199.11 9.436 1197.74 8.624 1195.89 8.624C1193.68 8.624 1192.42 9.604 1192.42 11.256H1190.12C1190.12 8.4 1192.48 6.524 1196 6.524C1199.39 6.524 1201.69 8.316 1201.69 12.012V20.608H1199.45L1199.17 18.396C1198.47 19.964 1196.59 20.944 1194.38 20.944ZM1195.14 18.9C1197.63 18.9 1199.14 17.276 1199.14 14.7V13.972L1195.64 14.252C1193.32 14.476 1192.36 15.372 1192.36 16.716C1192.36 18.172 1193.43 18.9 1195.14 18.9ZM1208.02 20.608H1205.39V0H1208.02V20.608ZM1220.84 3.668C1219.89 3.668 1219.1 2.884 1219.1 1.932C1219.1 0.952001 1219.89 0.196001 1220.84 0.196001C1221.79 0.196001 1222.58 0.952001 1222.58 1.932C1222.58 2.884 1221.79 3.668 1220.84 3.668ZM1219.55 20.608V6.916H1222.18V20.608H1219.55ZM1228.64 20.608H1226.01V6.916H1228.39L1228.67 9.016C1229.53 7.448 1231.27 6.524 1233.2 6.524C1236.81 6.524 1238.47 8.736 1238.47 12.236V20.608H1235.83V12.824C1235.83 10.052 1234.55 8.932 1232.53 8.932C1230.07 8.932 1228.64 10.696 1228.64 13.356V20.608ZM1245.97 20.608H1243.34V9.128H1240.65V6.916H1243.34V2.632H1245.97V6.916H1248.66V9.128H1245.97V20.608ZM1256.8 20.944C1252.76 20.944 1249.99 18.032 1249.99 13.776C1249.99 9.492 1252.71 6.524 1256.68 6.524C1260.58 6.524 1263.12 9.212 1263.12 13.272V14.252L1252.54 14.28C1252.74 17.164 1254.25 18.76 1256.85 18.76C1258.9 18.76 1260.24 17.92 1260.69 16.352H1263.15C1262.48 19.292 1260.18 20.944 1256.8 20.944ZM1256.68 8.736C1254.39 8.736 1252.93 10.108 1252.6 12.516H1260.49C1260.49 10.248 1259.01 8.736 1256.68 8.736ZM1273.9 6.804V9.212H1272.73C1270.24 9.212 1268.7 10.724 1268.7 13.356V20.608H1266.06V6.944H1268.53L1268.7 9.016C1269.26 7.588 1270.63 6.636 1272.5 6.636C1272.98 6.636 1273.37 6.692 1273.9 6.804ZM1275.46 6.916H1277.48V4.732C1277.48 1.372 1279.33 0 1281.82 0C1282.32 0 1282.91 0.0280013 1283.44 0.112V2.38H1282.27C1280.56 2.38 1280.11 3.248 1280.11 4.732V6.916H1283.36V9.128H1280.11V20.608H1277.48V9.128H1275.46V6.916ZM1289.37 20.944C1286.43 20.944 1284.7 19.292 1284.7 16.8C1284.7 14.28 1286.57 12.712 1289.79 12.46L1294.1 12.124V11.732C1294.1 9.436 1292.73 8.624 1290.88 8.624C1288.67 8.624 1287.41 9.604 1287.41 11.256H1285.12C1285.12 8.4 1287.47 6.524 1291 6.524C1294.38 6.524 1296.68 8.316 1296.68 12.012V20.608H1294.44L1294.16 18.396C1293.46 19.964 1291.58 20.944 1289.37 20.944ZM1290.13 18.9C1292.62 18.9 1294.13 17.276 1294.13 14.7V13.972L1290.63 14.252C1288.31 14.476 1287.36 15.372 1287.36 16.716C1287.36 18.172 1288.42 18.9 1290.13 18.9ZM1299.43 13.776C1299.43 9.492 1302.15 6.524 1306.15 6.524C1309.59 6.524 1312 8.484 1312.48 11.536H1309.85C1309.4 9.8 1308 8.876 1306.23 8.876C1303.74 8.876 1302.03 10.78 1302.03 13.748C1302.03 16.688 1303.63 18.592 1306.12 18.592C1308 18.592 1309.4 17.612 1309.87 15.988H1312.51C1311.97 18.956 1309.43 20.944 1306.12 20.944C1302.09 20.944 1299.43 18.088 1299.43 13.776ZM1321.19 20.944C1317.16 20.944 1314.39 18.032 1314.39 13.776C1314.39 9.492 1317.1 6.524 1321.08 6.524C1324.97 6.524 1327.52 9.212 1327.52 13.272V14.252L1316.93 14.28C1317.13 17.164 1318.64 18.76 1321.25 18.76C1323.29 18.76 1324.63 17.92 1325.08 16.352H1327.55C1326.87 19.292 1324.58 20.944 1321.19 20.944ZM1321.08 8.736C1318.78 8.736 1317.33 10.108 1316.99 12.516H1324.89C1324.89 10.248 1323.4 8.736 1321.08 8.736ZM1338.11 26.74V6.916H1340.49L1340.69 9.38C1341.61 7.504 1343.46 6.524 1345.65 6.524C1349.57 6.524 1352 9.464 1352 13.664C1352 17.836 1349.71 20.972 1345.65 20.972C1343.46 20.972 1341.64 20.048 1340.75 18.368V26.74H1338.11ZM1340.77 13.776C1340.77 16.576 1342.4 18.592 1345.09 18.592C1347.77 18.592 1349.37 16.576 1349.37 13.776C1349.37 10.948 1347.77 8.932 1345.09 8.932C1342.4 8.932 1340.77 10.92 1340.77 13.776ZM1358.91 20.944C1355.97 20.944 1354.23 19.292 1354.23 16.8C1354.23 14.28 1356.11 12.712 1359.33 12.46L1363.64 12.124V11.732C1363.64 9.436 1362.27 8.624 1360.42 8.624C1358.21 8.624 1356.95 9.604 1356.95 11.256H1354.65C1354.65 8.4 1357 6.524 1360.53 6.524C1363.92 6.524 1366.22 8.316 1366.22 12.012V20.608H1363.98L1363.7 18.396C1363 19.964 1361.12 20.944 1358.91 20.944ZM1359.66 18.9C1362.16 18.9 1363.67 17.276 1363.67 14.7V13.972L1360.17 14.252C1357.84 14.476 1356.89 15.372 1356.89 16.716C1356.89 18.172 1357.96 18.9 1359.66 18.9ZM1373.51 20.608H1370.87V9.128H1368.19V6.916H1370.87V2.632H1373.51V6.916H1376.19V9.128H1373.51V20.608ZM1382.67 20.608H1380.03V9.128H1377.35V6.916H1380.03V2.632H1382.67V6.916H1385.35V9.128H1382.67V20.608ZM1393.49 20.944C1389.46 20.944 1386.68 18.032 1386.68 13.776C1386.68 9.492 1389.4 6.524 1393.38 6.524C1397.27 6.524 1399.82 9.212 1399.82 13.272V14.252L1389.23 14.28C1389.43 17.164 1390.94 18.76 1393.54 18.76C1395.59 18.76 1396.93 17.92 1397.38 16.352H1399.84C1399.17 19.292 1396.88 20.944 1393.49 20.944ZM1393.38 8.736C1391.08 8.736 1389.62 10.108 1389.29 12.516H1397.18C1397.18 10.248 1395.7 8.736 1393.38 8.736ZM1410.6 6.804V9.212H1409.42C1406.93 9.212 1405.39 10.724 1405.39 13.356V20.608H1402.76V6.944H1405.22L1405.39 9.016C1405.95 7.588 1407.32 6.636 1409.2 6.636C1409.67 6.636 1410.06 6.692 1410.6 6.804ZM1415.7 20.608H1413.06V6.916H1415.44L1415.72 9.016C1416.59 7.448 1418.33 6.524 1420.26 6.524C1423.87 6.524 1425.52 8.736 1425.52 12.236V20.608H1422.89V12.824C1422.89 10.052 1421.6 8.932 1419.59 8.932C1417.12 8.932 1415.7 10.696 1415.7 13.356V20.608ZM1427.89 16.632H1430.41C1430.41 18.032 1431.47 18.872 1433.21 18.872C1435.05 18.872 1436.12 18.116 1436.12 16.856C1436.12 15.932 1435.67 15.372 1434.24 15.008L1431.83 14.448C1429.4 13.86 1428.25 12.656 1428.25 10.64C1428.25 8.12 1430.38 6.524 1433.4 6.524C1436.4 6.524 1438.36 8.204 1438.41 10.808H1435.89C1435.84 9.436 1434.91 8.568 1433.32 8.568C1431.67 8.568 1430.74 9.296 1430.74 10.556C1430.74 11.48 1431.41 12.096 1432.76 12.432L1435.17 13.02C1437.49 13.58 1438.64 14.644 1438.64 16.688C1438.64 19.292 1436.4 20.944 1433.15 20.944C1429.93 20.944 1427.89 19.236 1427.89 16.632ZM1457.05 6.804V9.212H1455.88C1453.38 9.212 1451.84 10.724 1451.84 13.356V20.608H1449.21V6.944H1451.68L1451.84 9.016C1452.4 7.588 1453.78 6.636 1455.65 6.636C1456.13 6.636 1456.52 6.692 1457.05 6.804ZM1464.94 20.944C1460.9 20.944 1458.13 18.032 1458.13 13.776C1458.13 9.492 1460.85 6.524 1464.82 6.524C1468.72 6.524 1471.26 9.212 1471.26 13.272V14.252L1460.68 14.28C1460.88 17.164 1462.39 18.76 1464.99 18.76C1467.04 18.76 1468.38 17.92 1468.83 16.352H1471.29C1470.62 19.292 1468.32 20.944 1464.94 20.944ZM1464.82 8.736C1462.53 8.736 1461.07 10.108 1460.74 12.516H1468.63C1468.63 10.248 1467.15 8.736 1464.82 8.736ZM1473.31 13.664C1473.31 9.464 1475.77 6.524 1479.69 6.524C1481.85 6.524 1483.72 7.504 1484.62 9.38L1484.84 6.916H1487.2V26.74H1484.59V18.368C1483.67 20.048 1481.85 20.972 1479.66 20.972C1475.63 20.972 1473.31 17.836 1473.31 13.664ZM1475.97 13.776C1475.97 16.576 1477.54 18.592 1480.22 18.592C1482.91 18.592 1484.56 16.576 1484.56 13.776C1484.56 10.92 1482.91 8.932 1480.22 8.932C1477.54 8.932 1475.97 10.948 1475.97 13.776ZM1500.46 6.916H1503.06V20.608H1500.71L1500.43 18.536C1499.65 19.964 1497.83 20.944 1495.81 20.944C1492.62 20.944 1490.83 18.788 1490.83 15.428V6.916H1493.46V14.56C1493.46 17.5 1494.72 18.62 1496.73 18.62C1499.14 18.62 1500.46 17.08 1500.46 14.14V6.916ZM1508.17 3.668C1507.22 3.668 1506.43 2.884 1506.43 1.932C1506.43 0.952001 1507.22 0.196001 1508.17 0.196001C1509.12 0.196001 1509.9 0.952001 1509.9 1.932C1509.9 2.884 1509.12 3.668 1508.17 3.668ZM1506.88 20.608V6.916H1509.51V20.608H1506.88ZM1521.17 6.804V9.212H1520C1517.51 9.212 1515.97 10.724 1515.97 13.356V20.608H1513.33V6.944H1515.8L1515.97 9.016C1516.53 7.588 1517.9 6.636 1519.77 6.636C1520.25 6.636 1520.64 6.692 1521.17 6.804ZM1524.93 3.668C1523.98 3.668 1523.19 2.884 1523.19 1.932C1523.19 0.952001 1523.98 0.196001 1524.93 0.196001C1525.88 0.196001 1526.67 0.952001 1526.67 1.932C1526.67 2.884 1525.88 3.668 1524.93 3.668ZM1523.64 20.608V6.916H1526.27V20.608H1523.64ZM1532.73 20.608H1530.1V6.916H1532.48L1532.76 9.016C1533.62 7.448 1535.36 6.524 1537.29 6.524C1540.9 6.524 1542.56 8.736 1542.56 12.236V20.608H1539.92V12.824C1539.92 10.052 1538.64 8.932 1536.62 8.932C1534.16 8.932 1532.73 10.696 1532.73 13.356V20.608ZM1545.33 13.412C1545.33 9.548 1547.82 6.524 1551.8 6.524C1554.01 6.524 1555.72 7.532 1556.59 9.24L1556.78 6.916H1559.14V20.048C1559.14 24.36 1556.48 27.104 1552.28 27.104C1548.55 27.104 1546 25.004 1545.5 21.532H1548.13C1548.47 23.548 1549.98 24.724 1552.28 24.724C1554.85 24.724 1556.53 23.044 1556.53 20.44V17.696C1555.64 19.292 1553.84 20.244 1551.69 20.244C1547.8 20.244 1545.33 17.248 1545.33 13.412ZM1547.96 13.356C1547.96 15.932 1549.56 17.948 1552.14 17.948C1554.8 17.948 1556.42 16.044 1556.42 13.356C1556.42 10.724 1554.85 8.82 1552.16 8.82C1549.53 8.82 1547.96 10.836 1547.96 13.356ZM1569.7 13.776C1569.7 9.492 1572.41 6.524 1576.42 6.524C1579.86 6.524 1582.27 8.484 1582.74 11.536H1580.11C1579.66 9.8 1578.26 8.876 1576.5 8.876C1574.01 8.876 1572.3 10.78 1572.3 13.748C1572.3 16.688 1573.9 18.592 1576.39 18.592C1578.26 18.592 1579.66 17.612 1580.14 15.988H1582.77C1582.24 18.956 1579.69 20.944 1576.39 20.944C1572.36 20.944 1569.7 18.088 1569.7 13.776ZM1588.24 20.608H1585.6V0H1588.24V20.608ZM1596.11 20.944C1593.17 20.944 1591.44 19.292 1591.44 16.8C1591.44 14.28 1593.31 12.712 1596.53 12.46L1600.85 12.124V11.732C1600.85 9.436 1599.47 8.624 1597.63 8.624C1595.41 8.624 1594.15 9.604 1594.15 11.256H1591.86C1591.86 8.4 1594.21 6.524 1597.74 6.524C1601.13 6.524 1603.42 8.316 1603.42 12.012V20.608H1601.18L1600.9 18.396C1600.2 19.964 1598.33 20.944 1596.11 20.944ZM1596.87 18.9C1599.36 18.9 1600.87 17.276 1600.87 14.7V13.972L1597.37 14.252C1595.05 14.476 1594.1 15.372 1594.1 16.716C1594.1 18.172 1595.16 18.9 1596.87 18.9ZM1614.91 6.804V9.212H1613.73C1611.24 9.212 1609.7 10.724 1609.7 13.356V20.608H1607.07V6.944H1609.53L1609.7 9.016C1610.26 7.588 1611.63 6.636 1613.51 6.636C1613.98 6.636 1614.38 6.692 1614.91 6.804ZM1618.66 3.668C1617.71 3.668 1616.93 2.884 1616.93 1.932C1616.93 0.952001 1617.71 0.196001 1618.66 0.196001C1619.62 0.196001 1620.4 0.952001 1620.4 1.932C1620.4 2.884 1619.62 3.668 1618.66 3.668ZM1617.38 20.608V6.916H1620.01V20.608H1617.38ZM1627.69 20.608H1625.06V9.128H1622.37V6.916H1625.06V2.632H1627.69V6.916H1630.38V9.128H1627.69V20.608ZM1631.43 26.74V24.584H1633.19C1634.45 24.584 1635.46 24.388 1636.1 22.652L1636.58 21.336L1631.06 6.916H1633.84L1637.81 17.948L1641.87 6.916H1644.59L1638.12 23.688C1637.2 26.04 1635.82 27.02 1633.72 27.02C1632.86 27.02 1632.13 26.908 1631.43 26.74ZM1648.31 19.516C1648.31 21.532 1646.8 23.212 1644.81 23.464V22.288C1645.96 22.092 1646.77 21.336 1646.77 20.468C1646.58 20.58 1646.35 20.636 1646.02 20.636C1645.09 20.636 1644.31 19.964 1644.31 18.928C1644.31 17.808 1645.06 16.996 1646.18 16.996C1647.36 16.996 1648.31 17.976 1648.31 19.516ZM1669.22 6.916H1671.83V20.608H1669.48L1669.2 18.536C1668.41 19.964 1666.59 20.944 1664.58 20.944C1661.38 20.944 1659.59 18.788 1659.59 15.428V6.916H1662.22V14.56C1662.22 17.5 1663.48 18.62 1665.5 18.62C1667.91 18.62 1669.22 17.08 1669.22 14.14V6.916ZM1674.25 16.632H1676.77C1676.77 18.032 1677.84 18.872 1679.57 18.872C1681.42 18.872 1682.48 18.116 1682.48 16.856C1682.48 15.932 1682.04 15.372 1680.61 15.008L1678.2 14.448C1675.76 13.86 1674.62 12.656 1674.62 10.64C1674.62 8.12 1676.74 6.524 1679.77 6.524C1682.76 6.524 1684.72 8.204 1684.78 10.808H1682.26C1682.2 9.436 1681.28 8.568 1679.68 8.568C1678.03 8.568 1677.11 9.296 1677.11 10.556C1677.11 11.48 1677.78 12.096 1679.12 12.432L1681.53 13.02C1683.86 13.58 1685 14.644 1685 16.688C1685 19.292 1682.76 20.944 1679.52 20.944C1676.3 20.944 1674.25 19.236 1674.25 16.632ZM1691.93 20.944C1688.99 20.944 1687.25 19.292 1687.25 16.8C1687.25 14.28 1689.13 12.712 1692.35 12.46L1696.66 12.124V11.732C1696.66 9.436 1695.29 8.624 1693.44 8.624C1691.23 8.624 1689.97 9.604 1689.97 11.256H1687.67C1687.67 8.4 1690.02 6.524 1693.55 6.524C1696.94 6.524 1699.24 8.316 1699.24 12.012V20.608H1697L1696.72 18.396C1696.02 19.964 1694.14 20.944 1691.93 20.944ZM1692.68 18.9C1695.18 18.9 1696.69 17.276 1696.69 14.7V13.972L1693.19 14.252C1690.86 14.476 1689.91 15.372 1689.91 16.716C1689.91 18.172 1690.98 18.9 1692.68 18.9ZM1705.26 20.608H1702.88V0H1705.51V9.268C1706.41 7.476 1708.26 6.524 1710.5 6.524C1714.42 6.524 1716.77 9.604 1716.77 13.832C1716.77 17.976 1714.3 20.944 1710.33 20.944C1708.17 20.944 1706.35 19.992 1705.46 18.116L1705.26 20.608ZM1705.54 13.72C1705.54 16.576 1707.16 18.564 1709.85 18.564C1712.54 18.564 1714.14 16.548 1714.14 13.72C1714.14 10.92 1712.54 8.904 1709.85 8.904C1707.16 8.904 1705.54 10.92 1705.54 13.72ZM1720.96 3.668C1720.01 3.668 1719.22 2.884 1719.22 1.932C1719.22 0.952001 1720.01 0.196001 1720.96 0.196001C1721.91 0.196001 1722.69 0.952001 1722.69 1.932C1722.69 2.884 1721.91 3.668 1720.96 3.668ZM1719.67 20.608V6.916H1722.3V20.608H1719.67ZM1728.81 20.608H1726.18V0H1728.81V20.608ZM1733.97 3.668C1733.02 3.668 1732.24 2.884 1732.24 1.932C1732.24 0.952001 1733.02 0.196001 1733.97 0.196001C1734.93 0.196001 1735.71 0.952001 1735.71 1.932C1735.71 2.884 1734.93 3.668 1733.97 3.668ZM1732.69 20.608V6.916H1735.32V20.608H1732.69ZM1743 20.608H1740.37V9.128H1737.68V6.916H1740.37V2.632H1743V6.916H1745.69V9.128H1743V20.608ZM1746.74 26.74V24.584H1748.5C1749.76 24.584 1750.77 24.388 1751.41 22.652L1751.89 21.336L1746.37 6.916H1749.14L1753.12 17.948L1757.18 6.916H1759.9L1753.43 23.688C1752.5 26.04 1751.13 27.02 1749.03 27.02C1748.16 27.02 1747.44 26.908 1746.74 26.74ZM1763.62 19.516C1763.62 21.532 1762.11 23.212 1760.12 23.464V22.288C1761.27 22.092 1762.08 21.336 1762.08 20.468C1761.89 20.58 1761.66 20.636 1761.33 20.636C1760.4 20.636 1759.62 19.964 1759.62 18.928C1759.62 17.808 1760.37 16.996 1761.49 16.996C1762.67 16.996 1763.62 17.976 1763.62 19.516ZM1779.07 20.944C1776.13 20.944 1774.4 19.292 1774.4 16.8C1774.4 14.28 1776.27 12.712 1779.49 12.46L1783.8 12.124V11.732C1783.8 9.436 1782.43 8.624 1780.58 8.624C1778.37 8.624 1777.11 9.604 1777.11 11.256H1774.82C1774.82 8.4 1777.17 6.524 1780.7 6.524C1784.08 6.524 1786.38 8.316 1786.38 12.012V20.608H1784.14L1783.86 18.396C1783.16 19.964 1781.28 20.944 1779.07 20.944ZM1779.83 18.9C1782.32 18.9 1783.83 17.276 1783.83 14.7V13.972L1780.33 14.252C1778.01 14.476 1777.06 15.372 1777.06 16.716C1777.06 18.172 1778.12 18.9 1779.83 18.9ZM1792.66 20.608H1790.02V6.916H1792.4L1792.68 9.016C1793.55 7.448 1795.29 6.524 1797.22 6.524C1800.83 6.524 1802.48 8.736 1802.48 12.236V20.608H1799.85V12.824C1799.85 10.052 1798.56 8.932 1796.55 8.932C1794.08 8.932 1792.66 10.696 1792.66 13.356V20.608ZM1811.62 20.944C1807.64 20.944 1805.23 17.976 1805.23 13.804C1805.23 9.604 1807.67 6.524 1811.73 6.524C1813.83 6.524 1815.59 7.448 1816.52 9.128V0H1819.12V20.608H1816.77L1816.55 18.116C1815.65 19.992 1813.8 20.944 1811.62 20.944ZM1812.15 18.564C1814.84 18.564 1816.49 16.576 1816.49 13.72C1816.49 10.92 1814.84 8.904 1812.15 8.904C1809.46 8.904 1807.89 10.92 1807.89 13.72C1807.89 16.548 1809.46 18.564 1812.15 18.564ZM4.45545e-06 61.776C4.45545e-06 57.492 2.716 54.524 6.72001 54.524C10.164 54.524 12.572 56.484 13.048 59.536H10.416C9.968 57.8 8.568 56.876 6.804 56.876C4.312 56.876 2.604 58.78 2.604 61.748C2.604 64.688 4.2 66.592 6.692 66.592C8.568 66.592 9.968 65.612 10.444 63.988H13.076C12.544 66.956 9.996 68.944 6.692 68.944C2.66 68.944 4.45545e-06 66.088 4.45545e-06 61.776ZM14.957 61.748C14.957 57.52 17.981 54.552 22.097 54.552C26.185 54.552 29.209 57.52 29.209 61.748C29.209 65.976 26.185 68.944 22.097 68.944C17.981 68.944 14.957 65.976 14.957 61.748ZM17.617 61.748C17.617 64.604 19.437 66.592 22.097 66.592C24.729 66.592 26.577 64.604 26.577 61.748C26.577 58.892 24.729 56.904 22.097 56.904C19.437 56.904 17.617 58.892 17.617 61.748ZM34.7546 68.608H32.1226V54.916H34.5026L34.7826 57.016C35.6506 55.448 37.3866 54.524 39.3186 54.524C42.9306 54.524 44.5826 56.736 44.5826 60.236V68.608H41.9506V60.824C41.9506 58.052 40.6626 56.932 38.6466 56.932C36.1826 56.932 34.7546 58.696 34.7546 61.356V68.608ZM46.944 64.632H49.464C49.464 66.032 50.528 66.872 52.264 66.872C54.112 66.872 55.176 66.116 55.176 64.856C55.176 63.932 54.728 63.372 53.3 63.008L50.892 62.448C48.456 61.86 47.308 60.656 47.308 58.64C47.308 56.12 49.436 54.524 52.46 54.524C55.456 54.524 57.416 56.204 57.472 58.808H54.952C54.896 57.436 53.972 56.568 52.376 56.568C50.724 56.568 49.8 57.296 49.8 58.556C49.8 59.48 50.472 60.096 51.816 60.432L54.224 61.02C56.548 61.58 57.696 62.644 57.696 64.688C57.696 67.292 55.456 68.944 52.208 68.944C48.988 68.944 46.944 67.236 46.944 64.632ZM61.9028 51.668C60.9508 51.668 60.1668 50.884 60.1668 49.932C60.1668 48.952 60.9508 48.196 61.9028 48.196C62.8548 48.196 63.6388 48.952 63.6388 49.932C63.6388 50.884 62.8548 51.668 61.9028 51.668ZM60.6148 68.608V54.916H63.2468V68.608H60.6148ZM65.9479 64.632H68.4679C68.4679 66.032 69.5319 66.872 71.2679 66.872C73.1159 66.872 74.1799 66.116 74.1799 64.856C74.1799 63.932 73.7319 63.372 72.3039 63.008L69.8959 62.448C67.4599 61.86 66.3119 60.656 66.3119 58.64C66.3119 56.12 68.4399 54.524 71.4639 54.524C74.4599 54.524 76.4199 56.204 76.4759 58.808H73.9559C73.8999 57.436 72.9759 56.568 71.3799 56.568C69.7279 56.568 68.8039 57.296 68.8039 58.556C68.8039 59.48 69.4759 60.096 70.8199 60.432L73.2279 61.02C75.5519 61.58 76.6999 62.644 76.6999 64.688C76.6999 67.292 74.4599 68.944 71.2119 68.944C67.9919 68.944 65.9479 67.236 65.9479 64.632ZM83.4827 68.608H80.8507V57.128H78.1627V54.916H80.8507V50.632H83.4827V54.916H86.1707V57.128H83.4827V68.608ZM94.304 68.944C90.272 68.944 87.5 66.032 87.5 61.776C87.5 57.492 90.216 54.524 94.192 54.524C98.084 54.524 100.632 57.212 100.632 61.272V62.252L90.048 62.28C90.244 65.164 91.756 66.76 94.36 66.76C96.404 66.76 97.748 65.92 98.196 64.352H100.66C99.988 67.292 97.692 68.944 94.304 68.944ZM94.192 56.736C91.896 56.736 90.44 58.108 90.104 60.516H98C98 58.248 96.516 56.736 94.192 56.736ZM106.204 68.608H103.572V54.916H105.952L106.232 57.016C107.1 55.448 108.836 54.524 110.768 54.524C114.38 54.524 116.032 56.736 116.032 60.236V68.608H113.4V60.824C113.4 58.052 112.112 56.932 110.096 56.932C107.632 56.932 106.204 58.696 106.204 61.356V68.608ZM123.541 68.608H120.909V57.128H118.221V54.916H120.909V50.632H123.541V54.916H126.229V57.128H123.541V68.608ZM137.536 51.668C136.584 51.668 135.8 50.884 135.8 49.932C135.8 48.952 136.584 48.196 137.536 48.196C138.488 48.196 139.272 48.952 139.272 49.932C139.272 50.884 138.488 51.668 137.536 51.668ZM136.248 68.608V54.916H138.88V68.608H136.248ZM145.333 68.608H142.701V54.916H145.081L145.361 57.016C146.229 55.448 147.965 54.524 149.897 54.524C153.509 54.524 155.161 56.736 155.161 60.236V68.608H152.529V60.824C152.529 58.052 151.241 56.932 149.225 56.932C146.761 56.932 145.333 58.696 145.333 61.356V68.608ZM162.67 68.608H160.038V57.128H157.35V54.916H160.038V50.632H162.67V54.916H165.358V57.128H162.67V68.608ZM173.492 68.944C169.46 68.944 166.688 66.032 166.688 61.776C166.688 57.492 169.404 54.524 173.38 54.524C177.272 54.524 179.82 57.212 179.82 61.272V62.252L169.236 62.28C169.432 65.164 170.944 66.76 173.548 66.76C175.592 66.76 176.936 65.92 177.384 64.352H179.848C179.176 67.292 176.88 68.944 173.492 68.944ZM173.38 56.736C171.084 56.736 169.628 58.108 169.292 60.516H177.188C177.188 58.248 175.704 56.736 173.38 56.736ZM190.599 54.804V57.212H189.423C186.931 57.212 185.391 58.724 185.391 61.356V68.608H182.759V54.944H185.223L185.391 57.016C185.951 55.588 187.323 54.636 189.199 54.636C189.675 54.636 190.067 54.692 190.599 54.804ZM196.525 68.944C193.585 68.944 191.849 67.292 191.849 64.8C191.849 62.28 193.725 60.712 196.945 60.46L201.257 60.124V59.732C201.257 57.436 199.885 56.624 198.037 56.624C195.825 56.624 194.565 57.604 194.565 59.256H192.269C192.269 56.4 194.621 54.524 198.149 54.524C201.537 54.524 203.833 56.316 203.833 60.012V68.608H201.593L201.313 66.396C200.613 67.964 198.737 68.944 196.525 68.944ZM197.281 66.9C199.773 66.9 201.285 65.276 201.285 62.7V61.972L197.785 62.252C195.461 62.476 194.509 63.372 194.509 64.716C194.509 66.172 195.573 66.9 197.281 66.9ZM206.582 61.776C206.582 57.492 209.298 54.524 213.302 54.524C216.746 54.524 219.154 56.484 219.63 59.536H216.998C216.55 57.8 215.15 56.876 213.386 56.876C210.894 56.876 209.186 58.78 209.186 61.748C209.186 64.688 210.782 66.592 213.274 66.592C215.15 66.592 216.55 65.612 217.026 63.988H219.658C219.126 66.956 216.578 68.944 213.274 68.944C209.242 68.944 206.582 66.088 206.582 61.776ZM226.299 68.608H223.667V57.128H220.979V54.916H223.667V50.632H226.299V54.916H228.987V57.128H226.299V68.608ZM232.637 51.668C231.685 51.668 230.901 50.884 230.901 49.932C230.901 48.952 231.685 48.196 232.637 48.196C233.589 48.196 234.373 48.952 234.373 49.932C234.373 50.884 233.589 51.668 232.637 51.668ZM231.349 68.608V54.916H233.981V68.608H231.349ZM236.906 61.748C236.906 57.52 239.93 54.552 244.046 54.552C248.134 54.552 251.158 57.52 251.158 61.748C251.158 65.976 248.134 68.944 244.046 68.944C239.93 68.944 236.906 65.976 236.906 61.748ZM239.566 61.748C239.566 64.604 241.386 66.592 244.046 66.592C246.678 66.592 248.526 64.604 248.526 61.748C248.526 58.892 246.678 56.904 244.046 56.904C241.386 56.904 239.566 58.892 239.566 61.748ZM256.704 68.608H254.072V54.916H256.452L256.732 57.016C257.6 55.448 259.336 54.524 261.268 54.524C264.88 54.524 266.532 56.736 266.532 60.236V68.608H263.9V60.824C263.9 58.052 262.612 56.932 260.596 56.932C258.132 56.932 256.704 58.696 256.704 61.356V68.608ZM283.742 68.944C279.71 68.944 276.938 66.032 276.938 61.776C276.938 57.492 279.654 54.524 283.63 54.524C287.522 54.524 290.07 57.212 290.07 61.272V62.252L279.486 62.28C279.682 65.164 281.194 66.76 283.798 66.76C285.842 66.76 287.186 65.92 287.634 64.352H290.098C289.426 67.292 287.13 68.944 283.742 68.944ZM283.63 56.736C281.334 56.736 279.878 58.108 279.542 60.516H287.438C287.438 58.248 285.954 56.736 283.63 56.736ZM295.697 68.608H293.065V48H295.697V68.608ZM305.48 68.944C301.448 68.944 298.676 66.032 298.676 61.776C298.676 57.492 301.392 54.524 305.368 54.524C309.26 54.524 311.808 57.212 311.808 61.272V62.252L301.224 62.28C301.42 65.164 302.932 66.76 305.536 66.76C307.58 66.76 308.924 65.92 309.372 64.352H311.836C311.164 67.292 308.868 68.944 305.48 68.944ZM305.368 56.736C303.072 56.736 301.616 58.108 301.28 60.516H309.176C309.176 58.248 307.692 56.736 305.368 56.736ZM317.38 68.608H314.748V54.916H317.1L317.352 56.708C318.052 55.42 319.508 54.524 321.44 54.524C323.568 54.524 325.08 55.588 325.78 57.296C326.424 55.588 328.076 54.524 330.204 54.524C333.34 54.524 335.244 56.484 335.244 59.648V68.608H332.668V60.292C332.668 58.136 331.464 56.904 329.616 56.904C327.628 56.904 326.312 58.304 326.312 60.488V68.608H323.708V60.264C323.708 58.108 322.532 56.932 320.684 56.932C318.696 56.932 317.38 58.304 317.38 60.488V68.608ZM344.8 68.944C340.768 68.944 337.996 66.032 337.996 61.776C337.996 57.492 340.712 54.524 344.688 54.524C348.58 54.524 351.128 57.212 351.128 61.272V62.252L340.544 62.28C340.74 65.164 342.252 66.76 344.856 66.76C346.9 66.76 348.244 65.92 348.692 64.352H351.156C350.484 67.292 348.188 68.944 344.8 68.944ZM344.688 56.736C342.392 56.736 340.936 58.108 340.6 60.516H348.496C348.496 58.248 347.012 56.736 344.688 56.736ZM356.7 68.608H354.068V54.916H356.448L356.728 57.016C357.596 55.448 359.332 54.524 361.264 54.524C364.876 54.524 366.528 56.736 366.528 60.236V68.608H363.896V60.824C363.896 58.052 362.608 56.932 360.592 56.932C358.128 56.932 356.7 58.696 356.7 61.356V68.608ZM374.037 68.608H371.405V57.128H368.717V54.916H371.405V50.632H374.037V54.916H376.725V57.128H374.037V68.608ZM377.967 64.632H380.487C380.487 66.032 381.551 66.872 383.287 66.872C385.135 66.872 386.199 66.116 386.199 64.856C386.199 63.932 385.751 63.372 384.323 63.008L381.915 62.448C379.479 61.86 378.331 60.656 378.331 58.64C378.331 56.12 380.459 54.524 383.483 54.524C386.479 54.524 388.439 56.204 388.495 58.808H385.975C385.919 57.436 384.995 56.568 383.399 56.568C381.747 56.568 380.823 57.296 380.823 58.556C380.823 59.48 381.495 60.096 382.839 60.432L385.247 61.02C387.571 61.58 388.719 62.644 388.719 64.688C388.719 67.292 386.479 68.944 383.231 68.944C380.011 68.944 377.967 67.236 377.967 64.632ZM393.434 68.944C392.342 68.944 391.418 68.048 391.418 66.984C391.418 65.892 392.342 64.996 393.434 64.996C394.498 64.996 395.422 65.892 395.422 66.984C395.422 68.048 394.498 68.944 393.434 68.944Z" fill="black"/>
</svg>
