<svg width="388" height="65" viewBox="0 0 388 65" fill="none" xmlns="http://www.w3.org/2000/svg">
<path d="M18.5603 48.2561H0.000266075V0.896103H17.9203C31.8083 0.896103 41.4723 10.6241 41.4723 24.7041C41.4723 38.5281 32.0643 48.2561 18.5603 48.2561ZM16.8963 10.4961H10.3683V38.6561H17.5363C25.7283 38.6561 30.5283 33.4721 30.5283 24.7041C30.5283 15.7441 25.4723 10.4961 16.8963 10.4961ZM62.6398 49.0881C52.9758 49.0881 46.0638 42.0481 46.0638 32.1921C46.0638 22.2081 52.7838 15.2321 62.4478 15.2321C72.4958 15.2321 78.7678 21.8241 78.7678 32.2561V34.7521L55.5358 34.8801C56.1118 39.1041 58.4798 41.0881 62.8318 41.0881C66.5438 41.0881 69.1678 39.7441 69.8718 37.4401H78.8958C77.7438 44.5441 71.4078 49.0881 62.6398 49.0881ZM62.5118 23.2321C58.6078 23.2321 56.4318 24.9601 55.6638 28.8001H68.9758C68.9758 25.4081 66.4798 23.2321 62.5118 23.2321ZM82.6203 38.1441H91.9643C92.0923 40.3841 93.7563 41.7281 96.7643 41.7281C99.8363 41.7281 101.244 40.6401 101.244 38.9761C101.244 38.0161 100.732 36.9921 98.3643 36.4801L92.4763 35.2001C86.5883 33.9201 83.7083 31.3601 83.7083 25.7281C83.7083 19.0721 89.4043 15.2321 97.0843 15.2321C104.508 15.2321 109.692 19.5841 109.692 26.0481H100.348C100.348 23.8721 99.0043 22.4001 96.6363 22.4001C94.3963 22.4001 92.9883 23.5521 92.9883 25.2801C92.9883 26.7521 94.2043 27.5841 96.4443 28.0961L102.396 29.3761C107.644 30.5281 110.524 32.9601 110.524 38.0801C110.524 44.9281 104.7 49.0881 96.3803 49.0881C87.9323 49.0881 82.6203 44.6081 82.6203 38.1441ZM120.858 11.2641C117.722 11.2641 115.226 8.7681 115.226 5.6321C115.226 2.4961 117.722 0.0641022 120.858 0.0641022C123.93 0.0641022 126.426 2.4961 126.426 5.6321C126.426 8.7681 123.93 11.2641 120.858 11.2641ZM115.994 48.2561V16.2561H125.85V48.2561H115.994ZM131.964 31.6801C131.964 21.9521 138.3 15.1681 147.324 15.1681C151.676 15.1681 155.132 16.8321 156.86 19.4561L157.372 16.2561H166.652V46.2081C166.652 57.6641 160.06 64.5761 149.116 64.5761C139.324 64.5761 132.732 59.0081 131.836 49.9201H141.82C142.012 53.5041 144.7 55.6161 149.052 55.6161C153.788 55.6161 156.796 52.8001 156.796 48.2561V44.0961C154.876 46.4001 151.292 47.8721 147.132 47.8721C138.172 47.8721 131.964 41.2801 131.964 31.6801ZM141.884 31.4241C141.884 36.0321 144.956 39.2961 149.308 39.2961C153.788 39.2961 156.796 36.1601 156.796 31.4241C156.796 26.7521 153.788 23.7441 149.244 23.7441C144.892 23.7441 141.884 26.8801 141.884 31.4241ZM184.24 48.2561H174.384V16.2561H183.664L184.304 19.5841C186.288 16.8321 189.936 15.2321 194.096 15.2321C201.712 15.2321 206.128 20.0961 206.128 28.4801V48.2561H196.272V30.8481C196.272 26.8161 194.032 24.1921 190.64 24.1921C186.736 24.1921 184.24 26.7521 184.24 30.7201V48.2561ZM228.342 10.4961V0.896103H265.59V10.4961H252.15V48.2561H241.782V10.4961H228.342ZM263.429 32.1921C263.429 22.0801 270.853 15.2961 281.093 15.2961C291.269 15.2961 298.693 22.0801 298.693 32.1921C298.693 42.3041 291.269 49.0241 281.093 49.0241C270.853 49.0241 263.429 42.3041 263.429 32.1921ZM273.349 32.1281C273.349 36.9921 276.485 40.1921 281.093 40.1921C285.637 40.1921 288.773 36.9921 288.773 32.1281C288.773 27.3281 285.637 24.1281 281.093 24.1281C276.485 24.1281 273.349 27.3281 273.349 32.1281ZM302.999 32.1921C302.999 22.0801 310.423 15.2961 320.663 15.2961C330.839 15.2961 338.263 22.0801 338.263 32.1921C338.263 42.3041 330.839 49.0241 320.663 49.0241C310.423 49.0241 302.999 42.3041 302.999 32.1921ZM312.919 32.1281C312.919 36.9921 316.055 40.1921 320.663 40.1921C325.207 40.1921 328.343 36.9921 328.343 32.1281C328.343 27.3281 325.207 24.1281 320.663 24.1281C316.055 24.1281 312.919 27.3281 312.919 32.1281ZM354.153 48.2561H344.297V0.000102997H354.153V48.2561ZM359.563 38.1441H368.907C369.035 40.3841 370.699 41.7281 373.707 41.7281C376.779 41.7281 378.187 40.6401 378.187 38.9761C378.187 38.0161 377.675 36.9921 375.307 36.4801L369.419 35.2001C363.531 33.9201 360.651 31.3601 360.651 25.7281C360.651 19.0721 366.347 15.2321 374.027 15.2321C381.451 15.2321 386.635 19.5841 386.635 26.0481H377.291C377.291 23.8721 375.947 22.4001 373.579 22.4001C371.339 22.4001 369.931 23.5521 369.931 25.2801C369.931 26.7521 371.147 27.5841 373.387 28.0961L379.339 29.3761C384.587 30.5281 387.467 32.9601 387.467 38.0801C387.467 44.9281 381.643 49.0881 373.323 49.0881C364.875 49.0881 359.563 44.6081 359.563 38.1441Z" fill="black"/>
</svg>
