<svg width="106" height="24" viewBox="0 0 106 24" fill="none" xmlns="http://www.w3.org/2000/svg">
<path d="M17.9998 16.75C17.8398 16.75 17.6898 16.7 17.5498 16.6C17.2198 16.35 17.1498 15.88 17.3998 15.55C18.9698 13.46 18.9698 10.54 17.3998 8.45003C17.1498 8.12003 17.2198 7.65003 17.5498 7.40003C17.8798 7.15003 18.3498 7.22003 18.5998 7.55003C20.5598 10.17 20.5598 13.83 18.5998 16.45C18.4498 16.65 18.2298 16.75 17.9998 16.75Z" fill="#1A1A1A"/>
<path d="M19.8299 19.25C19.6699 19.25 19.5199 19.2 19.3799 19.1C19.0499 18.85 18.9799 18.38 19.2299 18.05C21.8999 14.49 21.8999 9.51003 19.2299 5.95003C18.9799 5.62003 19.0499 5.15003 19.3799 4.90003C19.7099 4.65003 20.1799 4.72003 20.4299 5.05003C23.4999 9.14003 23.4999 14.86 20.4299 18.95C20.2899 19.15 20.0599 19.25 19.8299 19.25Z" fill="#1A1A1A"/>
<path opacity="0.4" d="M15.75 7.41003V16.59C15.75 18.31 15.13 19.6 14.02 20.22C13.57 20.47 13.07 20.59 12.55 20.59C11.75 20.59 10.89 20.32 10.01 19.77L7.09 17.94C6.89 17.82 6.66 17.75 6.43 17.75H5.5V6.25003H6.43C6.66 6.25003 6.89 6.18003 7.09 6.06003L10.01 4.23003C11.47 3.32003 12.9 3.16003 14.02 3.78003C15.13 4.40003 15.75 5.69003 15.75 7.41003Z" fill="#1A1A1A"/>
<path d="M5.5 6.25V17.75H5C2.58 17.75 1.25 16.42 1.25 14V10C1.25 7.58 2.58 6.25 5 6.25H5.5Z" fill="#1A1A1A"/>
<path d="M37.432 17L34.12 8.228H35.752L37.672 13.28C37.864 13.808 38.032 14.324 38.224 15.032C38.44 14.264 38.62 13.724 38.788 13.28L40.684 8.228H42.28L39.016 17H37.432ZM41.8025 14.024C41.8025 12.176 43.1345 10.904 44.9705 10.904C46.8065 10.904 48.1385 12.176 48.1385 14.024C48.1385 15.872 46.8065 17.144 44.9705 17.144C43.1345 17.144 41.8025 15.872 41.8025 14.024ZM43.2665 14.024C43.2665 15.104 43.9625 15.836 44.9705 15.836C45.9785 15.836 46.6745 15.104 46.6745 14.024C46.6745 12.944 45.9785 12.212 44.9705 12.212C43.9625 12.212 43.2665 12.944 43.2665 14.024ZM50.775 17H49.323V8.072H50.775V17ZM56.3307 11.072H57.7947V17H56.4387L56.3307 16.208C55.9707 16.772 55.2027 17.156 54.4107 17.156C53.0427 17.156 52.2387 16.232 52.2387 14.78V11.072H53.7027V14.264C53.7027 15.392 54.1467 15.848 54.9627 15.848C55.8867 15.848 56.3307 15.308 56.3307 14.18V11.072ZM60.7708 17H59.3068V11.072H60.6508L60.7708 11.768C61.0708 11.276 61.6708 10.892 62.5228 10.892C63.4228 10.892 64.0468 11.336 64.3588 12.02C64.6588 11.336 65.3548 10.892 66.2548 10.892C67.6948 10.892 68.4868 11.756 68.4868 13.124V17H67.0348V13.508C67.0348 12.656 66.5788 12.212 65.8828 12.212C65.1748 12.212 64.6348 12.668 64.6348 13.64V17H63.1708V13.496C63.1708 12.668 62.7268 12.224 62.0308 12.224C61.3348 12.224 60.7708 12.68 60.7708 13.64V17ZM72.576 17.156C70.812 17.156 69.576 15.872 69.576 14.036C69.576 12.176 70.788 10.892 72.528 10.892C74.304 10.892 75.432 12.08 75.432 13.928V14.372L70.968 14.384C71.076 15.428 71.628 15.956 72.6 15.956C73.404 15.956 73.932 15.644 74.1 15.08H75.456C75.204 16.376 74.124 17.156 72.576 17.156ZM72.54 12.092C71.676 12.092 71.148 12.56 71.004 13.448H73.98C73.98 12.632 73.416 12.092 72.54 12.092ZM76.5917 14.444V13.148H80.4557V14.444H76.5917ZM83.4114 17H81.9474V8.072H83.4234V11.84C83.7954 11.264 84.4914 10.892 85.3434 10.892C86.8074 10.892 87.5754 11.816 87.5754 13.352V17H86.1114V13.7C86.1114 12.704 85.6194 12.224 84.8754 12.224C83.9514 12.224 83.4114 12.872 83.4114 13.76V17ZM89.7458 9.884C89.2418 9.884 88.8458 9.488 88.8458 8.996C88.8458 8.504 89.2418 8.12 89.7458 8.12C90.2258 8.12 90.6218 8.504 90.6218 8.996C90.6218 9.488 90.2258 9.884 89.7458 9.884ZM89.0138 17V11.072H90.4778V17H89.0138ZM91.6544 13.904C91.6544 12.176 92.7824 10.88 94.4744 10.88C95.3624 10.88 96.0584 11.252 96.4064 11.888L96.4904 11.072H97.8464V16.7C97.8464 18.68 96.6584 19.916 94.7384 19.916C93.0344 19.916 91.8704 18.944 91.6904 17.36H93.1544C93.2504 18.128 93.8384 18.584 94.7384 18.584C95.7464 18.584 96.3944 17.948 96.3944 16.964V15.98C96.0224 16.532 95.2904 16.88 94.4384 16.88C92.7584 16.88 91.6544 15.62 91.6544 13.904ZM93.1304 13.868C93.1304 14.864 93.7664 15.608 94.7264 15.608C95.7344 15.608 96.3584 14.9 96.3584 13.868C96.3584 12.86 95.7464 12.164 94.7264 12.164C93.7544 12.164 93.1304 12.896 93.1304 13.868ZM100.825 17H99.3615V8.072H100.837V11.84C101.209 11.264 101.905 10.892 102.757 10.892C104.221 10.892 104.989 11.816 104.989 13.352V17H103.525V13.7C103.525 12.704 103.033 12.224 102.289 12.224C101.365 12.224 100.825 12.872 100.825 13.76V17Z" fill="black"/>
</svg>
