<svg width="136" height="24" viewBox="0 0 136 24" fill="none" xmlns="http://www.w3.org/2000/svg">
<path opacity="0.4" d="M16.24 3.6499H7.76004C5.29004 3.6499 3.29004 5.6599 3.29004 8.1199V17.5299C3.29004 19.9899 5.30004 21.9999 7.76004 21.9999H16.23C18.7 21.9999 20.7 19.9899 20.7 17.5299V8.1199C20.71 5.6499 18.7 3.6499 16.24 3.6499Z" fill="#1A1A1A"/>
<path d="M14.3498 2H9.64977C8.60977 2 7.75977 2.84 7.75977 3.88V4.82C7.75977 5.86 8.59977 6.7 9.63977 6.7H14.3498C15.3898 6.7 16.2298 5.86 16.2298 4.82V3.88C16.2398 2.84 15.3898 2 14.3498 2Z" fill="#1A1A1A"/>
<path d="M15.53 16.47L10.81 11.75H12C12.41 11.75 12.75 11.41 12.75 11C12.75 10.59 12.41 10.25 12 10.25H9C8.59 10.25 8.25 10.59 8.25 11V14C8.25 14.41 8.59 14.75 9 14.75C9.41 14.75 9.75 14.41 9.75 14V12.81L14.47 17.53C14.62 17.68 14.81 17.75 15 17.75C15.19 17.75 15.38 17.68 15.53 17.53C15.82 17.24 15.82 16.76 15.53 16.47Z" fill="#1A1A1A"/>
<path d="M38.68 17.144C36.124 17.144 34.468 15.368 34.468 12.62C34.468 9.896 36.184 8.084 38.752 8.084C40.828 8.084 42.376 9.296 42.676 11.18H41.056C40.756 10.16 39.88 9.56 38.716 9.56C37.096 9.56 36.076 10.736 36.076 12.608C36.076 14.468 37.108 15.668 38.716 15.668C39.904 15.668 40.816 15.044 41.104 14.072H42.7C42.364 15.92 40.756 17.144 38.68 17.144ZM45.2789 17H43.8269V8.072H45.2789V17ZM47.5466 9.884C47.0426 9.884 46.6466 9.488 46.6466 8.996C46.6466 8.504 47.0426 8.12 47.5466 8.12C48.0266 8.12 48.4226 8.504 48.4226 8.996C48.4226 9.488 48.0266 9.884 47.5466 9.884ZM46.8146 17V11.072H48.2786V17H46.8146ZM49.7912 19.748V11.072H51.1472L51.2432 11.972C51.6032 11.288 52.3832 10.892 53.2832 10.892C54.9512 10.892 56.0552 12.104 56.0552 13.964C56.0552 15.812 55.0472 17.156 53.2832 17.156C52.3952 17.156 51.6272 16.808 51.2552 16.208V19.748H49.7912ZM51.2672 14.036C51.2672 15.104 51.9272 15.836 52.9352 15.836C53.9672 15.836 54.5792 15.092 54.5792 14.036C54.5792 12.98 53.9672 12.224 52.9352 12.224C51.9272 12.224 51.2672 12.968 51.2672 14.036ZM58.5768 17H57.2208V8.072H58.6848V11.936C59.0688 11.276 59.8608 10.88 60.7608 10.88C62.4528 10.88 63.4848 12.2 63.4848 14.072C63.4848 15.896 62.3688 17.156 60.6648 17.156C59.7768 17.156 59.0208 16.76 58.6728 16.076L58.5768 17ZM58.6968 14.012C58.6968 15.08 59.3568 15.812 60.3648 15.812C61.3968 15.812 62.0088 15.068 62.0088 14.012C62.0088 12.956 61.3968 12.2 60.3648 12.2C59.3568 12.2 58.6968 12.944 58.6968 14.012ZM64.3025 14.024C64.3025 12.176 65.6345 10.904 67.4705 10.904C69.3065 10.904 70.6385 12.176 70.6385 14.024C70.6385 15.872 69.3065 17.144 67.4705 17.144C65.6345 17.144 64.3025 15.872 64.3025 14.024ZM65.7665 14.024C65.7665 15.104 66.4625 15.836 67.4705 15.836C68.4785 15.836 69.1745 15.104 69.1745 14.024C69.1745 12.944 68.4785 12.212 67.4705 12.212C66.4625 12.212 65.7665 12.944 65.7665 14.024ZM73.563 17.156C72.303 17.156 71.535 16.424 71.535 15.308C71.535 14.216 72.327 13.532 73.731 13.424L75.507 13.292V13.16C75.507 12.356 75.027 12.032 74.283 12.032C73.419 12.032 72.939 12.392 72.939 13.016H71.691C71.691 11.732 72.747 10.892 74.355 10.892C75.951 10.892 76.935 11.756 76.935 13.4V17H75.651L75.543 16.124C75.291 16.736 74.487 17.156 73.563 17.156ZM74.043 16.052C74.943 16.052 75.519 15.512 75.519 14.6V14.288L74.283 14.384C73.371 14.468 73.023 14.768 73.023 15.248C73.023 15.788 73.383 16.052 74.043 16.052ZM82.0932 11.048V12.404H81.5532C80.4972 12.404 79.8372 12.968 79.8372 14.12V17H78.3732V11.084H79.7532L79.8372 11.948C80.0892 11.36 80.6532 10.964 81.4452 10.964C81.6492 10.964 81.8532 10.988 82.0932 11.048ZM85.3209 17.156C83.6049 17.156 82.5369 15.896 82.5369 14.06C82.5369 12.212 83.6169 10.892 85.4049 10.892C86.2329 10.892 86.9649 11.24 87.3369 11.828V8.072H88.7889V17H87.4449L87.3489 16.076C86.9889 16.76 86.2209 17.156 85.3209 17.156ZM85.6449 15.812C86.6649 15.812 87.3249 15.08 87.3249 14.012C87.3249 12.944 86.6649 12.2 85.6449 12.2C84.6249 12.2 84.0009 12.956 84.0009 14.012C84.0009 15.068 84.6249 15.812 85.6449 15.812ZM90.3026 14.444V13.148H94.1666V14.444H90.3026ZM98.3103 17.156C96.5463 17.156 95.3103 15.872 95.3103 14.036C95.3103 12.176 96.5223 10.892 98.2623 10.892C100.038 10.892 101.166 12.08 101.166 13.928V14.372L96.7023 14.384C96.8103 15.428 97.3623 15.956 98.3343 15.956C99.1383 15.956 99.6663 15.644 99.8343 15.08H101.19C100.938 16.376 99.8583 17.156 98.3103 17.156ZM98.2743 12.092C97.4103 12.092 96.8823 12.56 96.7383 13.448H99.7143C99.7143 12.632 99.1503 12.092 98.2743 12.092ZM103.101 17H101.433L103.473 14.096L101.433 11.072H103.137L104.445 13.088L105.705 11.072H107.349L105.333 14.072L107.289 17H105.609L104.349 15.044L103.101 17ZM108.221 19.748V11.072H109.577L109.673 11.972C110.033 11.288 110.813 10.892 111.713 10.892C113.381 10.892 114.485 12.104 114.485 13.964C114.485 15.812 113.477 17.156 111.713 17.156C110.825 17.156 110.057 16.808 109.685 16.208V19.748H108.221ZM109.697 14.036C109.697 15.104 110.357 15.836 111.365 15.836C112.397 15.836 113.009 15.092 113.009 14.036C113.009 12.98 112.397 12.224 111.365 12.224C110.357 12.224 109.697 12.968 109.697 14.036ZM115.303 14.024C115.303 12.176 116.635 10.904 118.471 10.904C120.307 10.904 121.639 12.176 121.639 14.024C121.639 15.872 120.307 17.144 118.471 17.144C116.635 17.144 115.303 15.872 115.303 14.024ZM116.767 14.024C116.767 15.104 117.463 15.836 118.471 15.836C119.479 15.836 120.175 15.104 120.175 14.024C120.175 12.944 119.479 12.212 118.471 12.212C117.463 12.212 116.767 12.944 116.767 14.024ZM126.519 11.048V12.404H125.979C124.923 12.404 124.263 12.968 124.263 14.12V17H122.799V11.084H124.179L124.263 11.948C124.515 11.36 125.079 10.964 125.871 10.964C126.075 10.964 126.279 10.988 126.519 11.048ZM129.76 17H128.296V12.296H127.156V11.072H128.296V9.224H129.76V11.072H130.912V12.296H129.76V17Z" fill="black"/>
</svg>
