<svg width="101" height="24" viewBox="0 0 101 24" fill="none" xmlns="http://www.w3.org/2000/svg">
<path fill-rule="evenodd" clip-rule="evenodd" d="M8 1.25C8.41421 1.25 8.75 1.58579 8.75 2V5C8.75 5.41421 8.41421 5.75 8 5.75C7.58579 5.75 7.25 5.41421 7.25 5V2C7.25 1.58579 7.58579 1.25 8 1.25Z" fill="#1A1A1A"/>
<path fill-rule="evenodd" clip-rule="evenodd" d="M16 1.25C16.4142 1.25 16.75 1.58579 16.75 2V5C16.75 5.41421 16.4142 5.75 16 5.75C15.5858 5.75 15.25 5.41421 15.25 5V2C15.25 1.58579 15.5858 1.25 16 1.25Z" fill="#1A1A1A"/>
<path opacity="0.4" d="M21.5 8.37V17.13C21.5 17.29 21.49 17.45 21.48 17.6H2.52C2.51 17.45 2.5 17.29 2.5 17.13V8.37C2.5 5.68 4.68 3.5 7.37 3.5H16.63C19.32 3.5 21.5 5.68 21.5 8.37Z" fill="#1A1A1A"/>
<path d="M21.4795 17.5996C21.2395 20.0696 19.1595 21.9996 16.6295 21.9996H7.36953C4.83953 21.9996 2.75953 20.0696 2.51953 17.5996H21.4795Z" fill="#1A1A1A"/>
<path d="M13.53 11.6198C13.98 11.3098 14.26 10.8498 14.26 10.2298C14.26 8.92976 13.22 8.25977 12 8.25977C10.78 8.25977 9.73 8.92976 9.73 10.2298C9.73 10.8498 10.02 11.3198 10.46 11.6198C9.85 11.9798 9.5 12.5598 9.5 13.2398C9.5 14.4798 10.45 15.2498 12 15.2498C13.54 15.2498 14.5 14.4798 14.5 13.2398C14.5 12.5598 14.15 11.9698 13.53 11.6198ZM12 9.49977C12.52 9.49977 12.9 9.78977 12.9 10.2898C12.9 10.7798 12.52 11.0898 12 11.0898C11.48 11.0898 11.1 10.7798 11.1 10.2898C11.1 9.78977 11.48 9.49977 12 9.49977ZM12 13.9998C11.34 13.9998 10.86 13.6698 10.86 13.0698C10.86 12.4698 11.34 12.1498 12 12.1498C12.66 12.1498 13.14 12.4798 13.14 13.0698C13.14 13.6698 12.66 13.9998 12 13.9998Z" fill="#1A1A1A"/>
<path d="M38.68 16.144C36.124 16.144 34.468 14.368 34.468 11.62C34.468 8.896 36.184 7.084 38.752 7.084C40.828 7.084 42.376 8.296 42.676 10.18H41.056C40.756 9.16 39.88 8.56 38.716 8.56C37.096 8.56 36.076 9.736 36.076 11.608C36.076 13.468 37.108 14.668 38.716 14.668C39.904 14.668 40.816 14.044 41.104 13.072H42.7C42.364 14.92 40.756 16.144 38.68 16.144ZM45.5083 16.156C44.2483 16.156 43.4803 15.424 43.4803 14.308C43.4803 13.216 44.2723 12.532 45.6763 12.424L47.4523 12.292V12.16C47.4523 11.356 46.9723 11.032 46.2283 11.032C45.3643 11.032 44.8843 11.392 44.8843 12.016H43.6363C43.6363 10.732 44.6923 9.892 46.3003 9.892C47.8963 9.892 48.8803 10.756 48.8803 12.4V16H47.5963L47.4883 15.124C47.2363 15.736 46.4323 16.156 45.5083 16.156ZM45.9883 15.052C46.8883 15.052 47.4643 14.512 47.4643 13.6V13.288L46.2283 13.384C45.3163 13.468 44.9683 13.768 44.9683 14.248C44.9683 14.788 45.3283 15.052 45.9883 15.052ZM51.7945 16H50.3425V7.072H51.7945V16ZM55.9822 16.156C54.2182 16.156 52.9822 14.872 52.9822 13.036C52.9822 11.176 54.1942 9.892 55.9342 9.892C57.7102 9.892 58.8382 11.08 58.8382 12.928V13.372L54.3742 13.384C54.4822 14.428 55.0342 14.956 56.0062 14.956C56.8102 14.956 57.3382 14.644 57.5062 14.08H58.8622C58.6102 15.376 57.5302 16.156 55.9822 16.156ZM55.9462 11.092C55.0822 11.092 54.5542 11.56 54.4102 12.448H57.3862C57.3862 11.632 56.8222 11.092 55.9462 11.092ZM61.4739 16H60.0099V10.072H61.3659L61.4859 10.84C61.8579 10.24 62.5779 9.892 63.3819 9.892C64.8699 9.892 65.6379 10.816 65.6379 12.352V16H64.1739V12.7C64.1739 11.704 63.6819 11.224 62.9259 11.224C62.0259 11.224 61.4739 11.848 61.4739 12.808V16ZM69.5123 16.156C67.7963 16.156 66.7283 14.896 66.7283 13.06C66.7283 11.212 67.8083 9.892 69.5963 9.892C70.4243 9.892 71.1563 10.24 71.5283 10.828V7.072H72.9803V16H71.6363L71.5403 15.076C71.1803 15.76 70.4123 16.156 69.5123 16.156ZM69.8363 14.812C70.8563 14.812 71.5163 14.08 71.5163 13.012C71.5163 11.944 70.8563 11.2 69.8363 11.2C68.8163 11.2 68.1923 11.956 68.1923 13.012C68.1923 14.068 68.8163 14.812 69.8363 14.812ZM76.27 16.156C75.01 16.156 74.242 15.424 74.242 14.308C74.242 13.216 75.034 12.532 76.438 12.424L78.214 12.292V12.16C78.214 11.356 77.734 11.032 76.99 11.032C76.126 11.032 75.646 11.392 75.646 12.016H74.398C74.398 10.732 75.454 9.892 77.062 9.892C78.658 9.892 79.642 10.756 79.642 12.4V16H78.358L78.25 15.124C77.998 15.736 77.194 16.156 76.27 16.156ZM76.75 15.052C77.65 15.052 78.226 14.512 78.226 13.6V13.288L76.99 13.384C76.078 13.468 75.73 13.768 75.73 14.248C75.73 14.788 76.09 15.052 76.75 15.052ZM84.8002 10.048V11.404H84.2602C83.2042 11.404 82.5442 11.968 82.5442 13.12V16H81.0802V10.084H82.4602L82.5442 10.948C82.7962 10.36 83.3602 9.964 84.1522 9.964C84.3562 9.964 84.5602 9.988 84.8002 10.048ZM85.3456 13.444V12.148H89.2096V13.444H85.3456ZM93.1353 11.656H92.0673V10.66L94.3233 8.584H90.6753V7.228H96.2433V8.452L94.1073 10.42C95.4513 10.684 96.4953 11.668 96.4953 13.216C96.4953 15.016 95.0913 16.156 93.3153 16.156C91.5993 16.156 90.2673 15.1 90.2673 13.204H91.7793C91.7793 14.212 92.4033 14.788 93.3393 14.788C94.2993 14.788 94.9353 14.164 94.9353 13.192C94.9353 12.304 94.3593 11.656 93.1353 11.656Z" fill="black"/>
</svg>
