<svg width="101" height="24" viewBox="0 0 101 24" fill="none" xmlns="http://www.w3.org/2000/svg">
<path opacity="0.4" d="M21.7502 17.9799C21.7502 17.9599 21.7402 17.9399 21.7402 17.9199C21.7302 17.8399 21.7202 17.7599 21.6902 17.6899C21.6502 17.5999 21.6002 17.5299 21.5402 17.4599C21.5402 17.4599 21.5402 17.4499 21.5302 17.4499C21.4602 17.3799 21.3802 17.3299 21.2902 17.2899C21.2002 17.2499 21.1002 17.2299 21.0002 17.2299L16.3302 17.2499C16.3302 17.2499 16.3302 17.2499 16.3202 17.2499C15.7202 17.2499 15.1402 16.9699 14.7802 16.4899L13.5602 14.9199C13.3102 14.5899 12.8402 14.5299 12.5102 14.7899C12.1802 15.0499 12.1202 15.5099 12.3802 15.8399L13.6002 17.4099C14.2502 18.2499 15.2702 18.7499 16.3302 18.7499H16.3402L19.1902 18.7399L18.4802 19.4499C18.1902 19.7399 18.1902 20.2199 18.4802 20.5099C18.6302 20.6599 18.8202 20.7299 19.0102 20.7299C19.2002 20.7299 19.3902 20.6599 19.5402 20.5099L21.5402 18.5099C21.6102 18.4399 21.6602 18.3599 21.7002 18.2699C21.7302 18.1699 21.7502 18.0699 21.7502 17.9799Z" fill="#1A1A1A"/>
<path opacity="0.4" d="M8.42026 6.69C7.77026 5.79 6.73024 5.26001 5.62024 5.26001C5.61024 5.26001 5.61025 5.26001 5.60025 5.26001L2.99023 5.27002C2.58023 5.27002 2.24023 5.61002 2.24023 6.02002C2.24023 6.43002 2.58023 6.77002 2.99023 6.77002L5.60025 6.76001H5.61023C6.24023 6.76001 6.83025 7.06001 7.19025 7.57001L8.27023 9.07001C8.42023 9.27001 8.65025 9.38 8.88025 9.38C9.03025 9.38 9.19025 9.32999 9.32025 9.23999C9.66025 8.99999 9.73023 8.53 9.49023 8.19L8.42026 6.69Z" fill="#1A1A1A"/>
<path d="M21.7402 6.07999C21.7402 6.05999 21.7502 6.04 21.7502 6.03C21.7502 5.93 21.7302 5.82996 21.6902 5.73996C21.6502 5.64996 21.6002 5.56997 21.5302 5.49997L19.5302 3.49997C19.2402 3.20997 18.7602 3.20997 18.4702 3.49997C18.1802 3.78997 18.1802 4.26997 18.4702 4.55997L19.1802 5.26999L16.4503 5.25998C16.4403 5.25998 16.4402 5.25998 16.4302 5.25998C15.2802 5.25998 14.2002 5.82996 13.5602 6.79996L7.17026 16.38C6.81026 16.92 6.20023 17.25 5.55023 17.25H5.54025L2.99023 17.24C2.58023 17.24 2.24023 17.57 2.24023 17.99C2.24023 18.4 2.57023 18.74 2.99023 18.74L5.54025 18.75C5.55025 18.75 5.55024 18.75 5.56024 18.75C6.72024 18.75 7.79024 18.18 8.43024 17.21L14.8203 7.62998C15.1803 7.08998 15.7902 6.75998 16.4402 6.75998H16.4503L21.0002 6.78C21.1002 6.78 21.1903 6.75994 21.2903 6.71994C21.3803 6.67994 21.4602 6.62997 21.5302 6.55997C21.5302 6.55997 21.5303 6.54996 21.5403 6.54996C21.6003 6.47996 21.6602 6.40998 21.6902 6.31998C21.7202 6.23998 21.7302 6.15999 21.7402 6.07999Z" fill="#1A1A1A"/>
<path d="M38.812 8.524C37.072 8.524 36.076 9.784 36.076 11.68C36.076 13.636 37.204 14.704 38.824 14.704C40.348 14.704 41.272 13.864 41.272 12.46V12.424H38.62V11.068H42.7V16H41.404L41.308 14.992C40.828 15.664 39.832 16.132 38.644 16.132C36.184 16.132 34.468 14.344 34.468 11.644C34.468 8.98 36.208 7.084 38.848 7.084C40.852 7.084 42.4 8.248 42.652 10.036H41.032C40.756 9.004 39.868 8.524 38.812 8.524ZM47.8627 10.048V11.404H47.3227C46.2667 11.404 45.6067 11.968 45.6067 13.12V16H44.1427V10.084H45.5227L45.6067 10.948C45.8587 10.36 46.4227 9.964 47.2147 9.964C47.4187 9.964 47.6227 9.988 47.8627 10.048ZM48.3064 13.024C48.3064 11.176 49.6384 9.904 51.4744 9.904C53.3104 9.904 54.6424 11.176 54.6424 13.024C54.6424 14.872 53.3104 16.144 51.4744 16.144C49.6384 16.144 48.3064 14.872 48.3064 13.024ZM49.7704 13.024C49.7704 14.104 50.4664 14.836 51.4744 14.836C52.4824 14.836 53.1784 14.104 53.1784 13.024C53.1784 11.944 52.4824 11.212 51.4744 11.212C50.4664 11.212 49.7704 11.944 49.7704 13.024ZM59.6823 10.072H61.1463V16H59.7903L59.6823 15.208C59.3223 15.772 58.5543 16.156 57.7623 16.156C56.3943 16.156 55.5903 15.232 55.5903 13.78V10.072H57.0543V13.264C57.0543 14.392 57.4983 14.848 58.3143 14.848C59.2383 14.848 59.6823 14.308 59.6823 13.18V10.072ZM62.6583 18.748V10.072H64.0143L64.1103 10.972C64.4703 10.288 65.2503 9.892 66.1503 9.892C67.8183 9.892 68.9223 11.104 68.9223 12.964C68.9223 14.812 67.9143 16.156 66.1503 16.156C65.2623 16.156 64.4943 15.808 64.1223 15.208V18.748H62.6583ZM64.1343 13.036C64.1343 14.104 64.7943 14.836 65.8023 14.836C66.8343 14.836 67.4463 14.092 67.4463 13.036C67.4463 11.98 66.8343 11.224 65.8023 11.224C64.7943 11.224 64.1343 11.968 64.1343 13.036Z" fill="black"/>
</svg>
