<svg width="112" height="24" viewBox="0 0 112 24" fill="none" xmlns="http://www.w3.org/2000/svg">
<path d="M5 1C4.06 1 3.19 1.33 2.5 1.88C1.58 2.61 1 3.74 1 5C1 5.75 1.21002 6.46 1.58002 7.06C2.27002 8.22 3.54 9 5 9C6.01 9 6.93001 8.63 7.63 8C7.94 7.74 8.20998 7.42 8.41998 7.06C8.78998 6.46 9 5.75 9 5C9 2.79 7.21 1 5 1ZM6.59998 6.58002C6.44998 6.73002 6.26001 6.79999 6.07001 6.79999C5.88001 6.79999 5.68998 6.73002 5.53998 6.58002L5.01001 6.04999L4.46002 6.59998C4.31002 6.74998 4.11999 6.82001 3.92999 6.82001C3.73999 6.82001 3.55002 6.74998 3.40002 6.59998C3.11002 6.30998 3.11002 5.82998 3.40002 5.53998L3.95001 4.98999L3.41998 4.46002C3.12998 4.17002 3.12998 3.69002 3.41998 3.40002C3.70998 3.11002 4.18998 3.11002 4.47998 3.40002L5.01001 3.92999L5.51001 3.42999C5.80001 3.13999 6.28001 3.13999 6.57001 3.42999C6.86001 3.71999 6.86001 4.19999 6.57001 4.48999L6.07001 4.98999L6.59998 5.52002C6.88998 5.81002 6.88998 6.28002 6.59998 6.58002Z" fill="#1A1A1A"/>
<path opacity="0.4" d="M15 3V12C15 13.1 14.1 14 13 14H2V7.62C2.73 8.49 3.85003 9.03 5.09003 9C6.10003 8.98 7.01 8.59 7.69 7.94C8 7.68 8.26002 7.34999 8.46002 6.98999C8.82002 6.37999 9.02 5.65997 9 4.90997C8.97 3.73997 8.45001 2.71 7.64001 2H14C14.55 2 15 2.45 15 3Z" fill="#1A1A1A"/>
<path d="M22 14V17C22 18.66 20.66 20 19 20H18C18 18.9 17.1 18 16 18C14.9 18 14 18.9 14 20H10C10 18.9 9.1 18 8 18C6.9 18 6 18.9 6 20H5C3.34 20 2 18.66 2 17V14H13C14.1 14 15 13.1 15 12V5H16.84C17.56 5 18.22 5.39001 18.58 6.01001L20.29 9H19C18.45 9 18 9.45 18 10V13C18 13.55 18.45 14 19 14H22Z" fill="#1A1A1A"/>
<path opacity="0.4" d="M8 22C9.10457 22 10 21.1046 10 20C10 18.8954 9.10457 18 8 18C6.89543 18 6 18.8954 6 20C6 21.1046 6.89543 22 8 22Z" fill="#1A1A1A"/>
<path opacity="0.4" d="M16 22C17.1046 22 18 21.1046 18 20C18 18.8954 17.1046 18 16 18C14.8954 18 14 18.8954 14 20C14 21.1046 14.8954 22 16 22Z" fill="#1A1A1A"/>
<path opacity="0.4" d="M22 12.53V14H19C18.45 14 18 13.55 18 13V10C18 9.45 18.45 9 19 9H20.29L21.74 11.54C21.91 11.84 22 12.18 22 12.53Z" fill="#1A1A1A"/>
<path d="M34.204 9.644V8.228H40.876V9.644H38.308V17H36.772V9.644H34.204ZM44.8393 11.048V12.404H44.2993C43.2433 12.404 42.5833 12.968 42.5833 14.12V17H41.1193V11.084H42.4993L42.5833 11.948C42.8353 11.36 43.3993 10.964 44.1913 10.964C44.3953 10.964 44.5993 10.988 44.8393 11.048ZM49.8502 11.072H51.3142V17H49.9582L49.8502 16.208C49.4902 16.772 48.7222 17.156 47.9302 17.156C46.5622 17.156 45.7582 16.232 45.7582 14.78V11.072H47.2222V14.264C47.2222 15.392 47.6662 15.848 48.4822 15.848C49.4062 15.848 49.8502 15.308 49.8502 14.18V11.072ZM52.3611 14.024C52.3611 12.188 53.5731 10.892 55.3251 10.892C56.9451 10.892 58.0491 11.792 58.2051 13.22H56.7411C56.5731 12.548 56.0811 12.2 55.3851 12.2C54.4491 12.2 53.8251 12.908 53.8251 14.024C53.8251 15.14 54.4011 15.836 55.3371 15.836C56.0691 15.836 56.5851 15.476 56.7411 14.828H58.2171C58.0371 16.208 56.8851 17.156 55.3371 17.156C53.5371 17.156 52.3611 15.908 52.3611 14.024ZM60.7828 17H59.3308V8.072H60.7828V13.556L63.0868 11.072H64.9228L62.6668 13.424L64.8748 17H63.1948L61.6468 14.504L60.7828 15.404V17ZM64.9784 14.444V13.148H68.8424V14.444H64.9784ZM74.0541 11.048V12.404H73.5141C72.4581 12.404 71.7981 12.968 71.7981 14.12V17H70.3341V11.084H71.7141L71.7981 11.948C72.0501 11.36 72.6141 10.964 73.4061 10.964C73.6101 10.964 73.8141 10.988 74.0541 11.048ZM77.4978 17.156C75.7338 17.156 74.4978 15.872 74.4978 14.036C74.4978 12.176 75.7098 10.892 77.4498 10.892C79.2258 10.892 80.3538 12.08 80.3538 13.928V14.372L75.8898 14.384C75.9978 15.428 76.5498 15.956 77.5218 15.956C78.3258 15.956 78.8538 15.644 79.0218 15.08H80.3778C80.1258 16.376 79.0458 17.156 77.4978 17.156ZM77.4618 12.092C76.5978 12.092 76.0698 12.56 75.9258 13.448H78.9018C78.9018 12.632 78.3378 12.092 77.4618 12.092ZM82.9895 17H81.5255V11.072H82.8695L82.9895 11.768C83.2895 11.276 83.8895 10.892 84.7415 10.892C85.6415 10.892 86.2655 11.336 86.5775 12.02C86.8775 11.336 87.5735 10.892 88.4735 10.892C89.9135 10.892 90.7055 11.756 90.7055 13.124V17H89.2535V13.508C89.2535 12.656 88.7975 12.212 88.1015 12.212C87.3935 12.212 86.8535 12.668 86.8535 13.64V17H85.3895V13.496C85.3895 12.668 84.9455 12.224 84.2495 12.224C83.5535 12.224 82.9895 12.68 82.9895 13.64V17ZM91.7947 14.024C91.7947 12.176 93.1267 10.904 94.9627 10.904C96.7987 10.904 98.1307 12.176 98.1307 14.024C98.1307 15.872 96.7987 17.144 94.9627 17.144C93.1267 17.144 91.7947 15.872 91.7947 14.024ZM93.2587 14.024C93.2587 15.104 93.9547 15.836 94.9627 15.836C95.9707 15.836 96.6667 15.104 96.6667 14.024C96.6667 12.944 95.9707 12.212 94.9627 12.212C93.9547 12.212 93.2587 12.944 93.2587 14.024ZM100.678 17L98.3262 11.072H99.8862L100.918 13.796C101.17 14.504 101.374 15.116 101.446 15.44C101.53 15.068 101.746 14.444 101.998 13.796L103.078 11.072H104.59L102.118 17H100.678ZM107.791 17.156C106.027 17.156 104.791 15.872 104.791 14.036C104.791 12.176 106.003 10.892 107.743 10.892C109.519 10.892 110.647 12.08 110.647 13.928V14.372L106.183 14.384C106.291 15.428 106.843 15.956 107.815 15.956C108.619 15.956 109.147 15.644 109.315 15.08H110.671C110.419 16.376 109.339 17.156 107.791 17.156ZM107.755 12.092C106.891 12.092 106.363 12.56 106.219 13.448H109.195C109.195 12.632 108.631 12.092 107.755 12.092Z" fill="black"/>
</svg>
