<svg width="101" height="24" viewBox="0 0 101 24" fill="none" xmlns="http://www.w3.org/2000/svg">
<path d="M15.7199 9.69002C13.6699 7.63002 10.3299 7.63002 8.27986 9.69002C6.21986 11.75 6.21986 15.08 8.27986 17.13C10.3399 19.19 13.6699 19.19 15.7199 17.13C17.7799 15.07 17.7799 11.74 15.7199 9.69002ZM12.5299 13.94L10.9399 15.53C10.7899 15.68 10.5999 15.75 10.4099 15.75C10.2199 15.75 10.0199 15.68 9.87987 15.53C9.58987 15.24 9.58987 14.76 9.87987 14.46L11.4699 12.87C11.7599 12.58 12.2399 12.58 12.5399 12.87C12.8299 13.17 12.8299 13.65 12.5299 13.94Z" fill="#1A1A1A"/>
<path opacity="0.4" d="M19.6001 5.81C19.3801 5.59 19.1001 5.46997 18.7901 5.46997C18.4801 5.46997 18.2001 5.58999 17.9801 5.79999C17.5301 6.24999 17.5301 6.96998 17.9801 7.41998C18.2001 7.63998 18.4801 7.76001 18.7901 7.76001C19.1001 7.76001 19.3801 7.63999 19.6001 7.42999C19.8201 7.20999 19.9401 6.93 19.9401 6.62C19.9401 6.31 19.8201 6.02 19.6001 5.81Z" fill="#1A1A1A"/>
<path opacity="0.4" d="M6.02005 19.3901C5.80005 19.1701 5.52005 19.05 5.21005 19.05C4.90005 19.05 4.62005 19.1701 4.40005 19.3801C4.18005 19.6001 4.06006 19.8801 4.06006 20.1901C4.06006 20.5001 4.18005 20.7801 4.40005 21.0001C4.62005 21.2201 4.92005 21.3301 5.21005 21.3301C5.50005 21.3301 5.80005 21.2201 6.02005 20.9901C6.46005 20.5601 6.46005 19.8301 6.02005 19.3901Z" fill="#1A1A1A"/>
<path opacity="0.4" d="M22.4101 12.6C22.2001 12.38 21.9101 12.27 21.6001 12.26C21.2901 12.26 21.0101 12.38 20.7901 12.6C20.3401 13.05 20.3401 13.77 20.7901 14.22C21.0101 14.44 21.3101 14.55 21.6001 14.55C21.8901 14.55 22.1901 14.44 22.4101 14.22C22.8601 13.77 22.8601 13.04 22.4101 12.6Z" fill="#1A1A1A"/>
<path opacity="0.4" d="M3.20994 12.6C2.76994 12.16 2.03994 12.15 1.58994 12.6C1.13994 13.05 1.13994 13.77 1.58994 14.22C1.80994 14.44 2.10994 14.55 2.39994 14.55C2.68994 14.55 2.98994 14.44 3.20994 14.22C3.64994 13.77 3.64994 13.04 3.20994 12.6Z" fill="#1A1A1A"/>
<path opacity="0.4" d="M19.6001 19.39C19.1501 18.94 18.4301 18.94 17.9801 19.39C17.5301 19.84 17.5301 20.56 17.9801 21.01C18.2001 21.23 18.5001 21.34 18.7901 21.34C19.0801 21.34 19.3801 21.23 19.6001 21.01C19.8201 20.79 19.9401 20.5 19.9401 20.2C19.9401 19.89 19.8201 19.6 19.6001 19.39Z" fill="#1A1A1A"/>
<path opacity="0.4" d="M6.02005 5.81C5.80005 5.59 5.52005 5.46997 5.21005 5.46997C4.90005 5.46997 4.62005 5.58999 4.40005 5.79999C4.18005 6.01999 4.06006 6.29999 4.06006 6.60999C4.06006 6.91999 4.18008 7.19998 4.39008 7.41998C4.61008 7.63998 4.89007 7.76001 5.20007 7.76001C5.51007 7.76001 5.79007 7.63998 6.01007 7.41998C6.46007 6.97998 6.46005 6.25 6.02005 5.81Z" fill="#1A1A1A"/>
<path opacity="0.4" d="M12.8101 2.99998C12.8101 2.98998 12.8101 2.98998 12.8101 2.99998C12.3601 2.54998 11.6401 2.54998 11.1901 2.99998C10.9701 3.21998 10.8501 3.50997 10.8501 3.80997C10.8501 4.11997 10.9701 4.39997 11.1801 4.61997C11.4001 4.83997 11.6801 4.96 11.9901 4.96C12.3001 4.96 12.5801 4.83997 12.8001 4.61997C13.2601 4.16997 13.2601 3.43998 12.8101 2.99998Z" fill="#1A1A1A"/>
<path d="M38.128 16H34.972V7.228H38.044C40.636 7.228 42.424 9.016 42.424 11.632C42.424 14.212 40.672 16 38.128 16ZM37.9 8.644H36.508V14.584H37.984C39.736 14.584 40.804 13.456 40.804 11.632C40.804 9.772 39.712 8.644 37.9 8.644ZM46.2908 16.156C44.5268 16.156 43.2908 14.872 43.2908 13.036C43.2908 11.176 44.5028 9.892 46.2428 9.892C48.0188 9.892 49.1468 11.08 49.1468 12.928V13.372L44.6828 13.384C44.7908 14.428 45.3428 14.956 46.3148 14.956C47.1188 14.956 47.6468 14.644 47.8148 14.08H49.1708C48.9188 15.376 47.8388 16.156 46.2908 16.156ZM46.2548 11.092C45.3908 11.092 44.8628 11.56 44.7188 12.448H47.6948C47.6948 11.632 47.1308 11.092 46.2548 11.092ZM51.7407 16L49.3887 10.072H50.9487L51.9807 12.796C52.2327 13.504 52.4367 14.116 52.5087 14.44C52.5927 14.068 52.8087 13.444 53.0607 12.796L54.1407 10.072H55.6527L53.1807 16H51.7407ZM57.2263 8.884C56.7223 8.884 56.3263 8.488 56.3263 7.996C56.3263 7.504 56.7223 7.12 57.2263 7.12C57.7063 7.12 58.1023 7.504 58.1023 7.996C58.1023 8.488 57.7063 8.884 57.2263 8.884ZM56.4943 16V10.072H57.9583V16H56.4943ZM59.1228 13.024C59.1228 11.188 60.3348 9.892 62.0868 9.892C63.7068 9.892 64.8108 10.792 64.9668 12.22H63.5028C63.3348 11.548 62.8428 11.2 62.1468 11.2C61.2108 11.2 60.5868 11.908 60.5868 13.024C60.5868 14.14 61.1628 14.836 62.0988 14.836C62.8308 14.836 63.3468 14.476 63.5028 13.828H64.9788C64.7988 15.208 63.6468 16.156 62.0988 16.156C60.2988 16.156 59.1228 14.908 59.1228 13.024ZM68.7205 16.156C66.9565 16.156 65.7205 14.872 65.7205 13.036C65.7205 11.176 66.9325 9.892 68.6725 9.892C70.4485 9.892 71.5765 11.08 71.5765 12.928V13.372L67.1125 13.384C67.2205 14.428 67.7725 14.956 68.7445 14.956C69.5485 14.956 70.0765 14.644 70.2445 14.08H71.6005C71.3485 15.376 70.2685 16.156 68.7205 16.156ZM68.6845 11.092C67.8205 11.092 67.2925 11.56 67.1485 12.448H70.1245C70.1245 11.632 69.5605 11.092 68.6845 11.092ZM72.2922 14.2H73.6842C73.6962 14.716 74.0802 15.04 74.7522 15.04C75.4362 15.04 75.8082 14.764 75.8082 14.332C75.8082 14.032 75.6522 13.816 75.1242 13.696L74.0562 13.444C72.9882 13.204 72.4722 12.7 72.4722 11.752C72.4722 10.588 73.4562 9.892 74.8242 9.892C76.1562 9.892 77.0562 10.66 77.0682 11.812H75.6762C75.6642 11.308 75.3282 10.984 74.7642 10.984C74.1882 10.984 73.8522 11.248 73.8522 11.692C73.8522 12.028 74.1162 12.244 74.6202 12.364L75.6882 12.616C76.6842 12.844 77.1882 13.3 77.1882 14.212C77.1882 15.412 76.1682 16.156 74.7042 16.156C73.2282 16.156 72.2922 15.364 72.2922 14.2Z" fill="black"/>
</svg>
