<svg width="101" height="24" viewBox="0 0 101 24" fill="none" xmlns="http://www.w3.org/2000/svg">
<path opacity="0.4" d="M21.6602 10.4395L20.6802 14.6195C19.8402 18.2295 18.1802 19.6895 15.0602 19.3895C14.5602 19.3495 14.0202 19.2595 13.4402 19.1195L11.7602 18.7195C7.59018 17.7295 6.30018 15.6695 7.28018 11.4895L8.26018 7.29952C8.46018 6.44952 8.70018 5.70952 9.00018 5.09952C10.1702 2.67952 12.1602 2.02952 15.5002 2.81952L17.1702 3.20952C21.3602 4.18952 22.6402 6.25952 21.6602 10.4395Z" fill="#1A1A1A"/>
<path d="M15.0603 19.3896C14.4403 19.8096 13.6603 20.1596 12.7103 20.4696L11.1303 20.9896C7.16034 22.2696 5.07034 21.1996 3.78034 17.2296L2.50034 13.2796C1.22034 9.30961 2.28034 7.20961 6.25034 5.92961L7.83034 5.40961C8.24034 5.27961 8.63034 5.16961 9.00034 5.09961C8.70034 5.70961 8.46034 6.44961 8.26034 7.29961L7.28034 11.4896C6.30034 15.6696 7.59034 17.7296 11.7603 18.7196L13.4403 19.1196C14.0203 19.2596 14.5603 19.3496 15.0603 19.3896Z" fill="#1A1A1A"/>
<path d="M36.484 16H34.972V7.228H36.496L40.612 13.444V7.228H42.124V16H40.612L36.484 9.784V16ZM43.5018 13.024C43.5018 11.176 44.8338 9.904 46.6698 9.904C48.5058 9.904 49.8378 11.176 49.8378 13.024C49.8378 14.872 48.5058 16.144 46.6698 16.144C44.8338 16.144 43.5018 14.872 43.5018 13.024ZM44.9658 13.024C44.9658 14.104 45.6618 14.836 46.6698 14.836C47.6778 14.836 48.3738 14.104 48.3738 13.024C48.3738 11.944 47.6778 11.212 46.6698 11.212C45.6618 11.212 44.9658 11.944 44.9658 13.024ZM52.9556 16H51.4916V11.296H50.3516V10.072H51.4916V8.224H52.9556V10.072H54.1076V11.296H52.9556V16ZM57.6111 16.156C55.8471 16.156 54.6111 14.872 54.6111 13.036C54.6111 11.176 55.8231 9.892 57.5631 9.892C59.3391 9.892 60.4671 11.08 60.4671 12.928V13.372L56.0031 13.384C56.1111 14.428 56.6631 14.956 57.6351 14.956C58.4391 14.956 58.9671 14.644 59.1351 14.08H60.4911C60.2391 15.376 59.1591 16.156 57.6111 16.156ZM57.5751 11.092C56.7111 11.092 56.1831 11.56 56.0391 12.448H59.0151C59.0151 11.632 58.4511 11.092 57.5751 11.092Z" fill="black"/>
</svg>
