<svg width="122" height="24" viewBox="0 0 122 24" fill="none" xmlns="http://www.w3.org/2000/svg">
<path opacity="0.4" d="M14.79 6H9.21004C4.79004 6 4.79004 8.35 4.79004 10.42V12.21C4.79004 12.43 4.89004 12.63 5.06004 12.76C5.23004 12.89 5.46004 12.94 5.67004 12.88C6.12004 12.76 6.68004 12.7 7.35004 12.7C8.02004 12.7 8.16004 12.78 8.56004 13.08L9.47004 14.04C10.12 14.74 11.05 15.14 12.01 15.14C12.97 15.14 13.89 14.74 14.55 14.04L15.46 13.08C15.86 12.78 16 12.7 16.67 12.7C17.34 12.7 17.9 12.76 18.35 12.88C18.56 12.94 18.78 12.89 18.96 12.76C19.13 12.63 19.23 12.42 19.23 12.21V10.42C19.21 8.35 19.21 6 14.79 6Z" fill="#1A1A1A"/>
<path d="M14.2804 4.95C14.0204 5.21 13.5904 5.21 13.3304 4.95L12.6804 4.3V9.07C12.6804 9.44 12.3804 9.75 12.0004 9.75C11.6204 9.75 11.3204 9.45 11.3204 9.07V4.3L10.6704 4.95C10.4104 5.21 9.98039 5.21 9.72039 4.95C9.46039 4.69 9.46039 4.26 9.72039 4L11.5204 2.2C11.5304 2.19 11.5304 2.19 11.5404 2.19C11.6004 2.14 11.6604 2.09 11.7404 2.06C11.8304 2.02 11.9104 2 12.0004 2C12.0904 2 12.1704 2.02 12.2604 2.05C12.3404 2.08 12.4204 2.13 12.4804 2.2L14.2804 4C14.5404 4.26 14.5404 4.69 14.2804 4.95Z" fill="#1A1A1A"/>
<path d="M18.6897 11.53C18.1197 11.38 17.4497 11.3 16.6497 11.3C15.5397 11.3 15.1297 11.57 14.5597 12C14.5297 12.02 14.4997 12.05 14.4697 12.08L13.5197 13.09C12.7197 13.93 11.2797 13.94 10.4797 13.08L9.52969 12.08C9.49969 12.05 9.46969 12.02 9.43969 12C8.86969 11.57 8.45969 11.3 7.34969 11.3C6.54969 11.3 5.87969 11.38 5.30969 11.53C2.92969 12.17 2.92969 14.06 2.92969 15.72V16.65C2.92969 19.16 2.92969 22 8.27969 22H15.7197C19.2697 22 21.0697 20.2 21.0697 16.65V15.72C21.0697 14.06 21.0697 12.17 18.6897 11.53ZM14.3297 18.4H9.66969C9.28969 18.4 8.97969 18.09 8.97969 17.7C8.97969 17.31 9.28969 17 9.66969 17H14.3297C14.7097 17 15.0197 17.31 15.0197 17.7C15.0197 18.09 14.7097 18.4 14.3297 18.4Z" fill="#1A1A1A"/>
<path opacity="0.4" d="M15.0205 17.7C15.0205 18.09 14.7105 18.4 14.3305 18.4H9.67047C9.29047 18.4 8.98047 18.09 8.98047 17.7C8.98047 17.31 9.29047 17 9.67047 17H14.3305C14.7105 17 15.0205 17.31 15.0205 17.7Z" fill="#1A1A1A"/>
<path d="M38.128 17H34.972V8.228H38.044C40.636 8.228 42.424 10.016 42.424 12.632C42.424 15.212 40.672 17 38.128 17ZM37.9 9.644H36.508V15.584H37.984C39.736 15.584 40.804 14.456 40.804 12.632C40.804 10.772 39.712 9.644 37.9 9.644ZM44.3708 9.884C43.8668 9.884 43.4708 9.488 43.4708 8.996C43.4708 8.504 43.8668 8.12 44.3708 8.12C44.8508 8.12 45.2468 8.504 45.2468 8.996C45.2468 9.488 44.8508 9.884 44.3708 9.884ZM43.6388 17V11.072H45.1028V17H43.6388ZM50.3354 11.048V12.404H49.7954C48.7394 12.404 48.0794 12.968 48.0794 14.12V17H46.6154V11.084H47.9954L48.0794 11.948C48.3314 11.36 48.8954 10.964 49.6874 10.964C49.8914 10.964 50.0954 10.988 50.3354 11.048ZM53.7791 17.156C52.0151 17.156 50.7791 15.872 50.7791 14.036C50.7791 12.176 51.9911 10.892 53.7311 10.892C55.5071 10.892 56.6351 12.08 56.6351 13.928V14.372L52.1711 14.384C52.2791 15.428 52.8311 15.956 53.8031 15.956C54.6071 15.956 55.1351 15.644 55.3031 15.08H56.6591C56.4071 16.376 55.3271 17.156 53.7791 17.156ZM53.7431 12.092C52.8791 12.092 52.3511 12.56 52.2071 13.448H55.1831C55.1831 12.632 54.6191 12.092 53.7431 12.092ZM57.4588 14.024C57.4588 12.188 58.6708 10.892 60.4228 10.892C62.0428 10.892 63.1468 11.792 63.3028 13.22H61.8388C61.6708 12.548 61.1788 12.2 60.4828 12.2C59.5468 12.2 58.9228 12.908 58.9228 14.024C58.9228 15.14 59.4988 15.836 60.4348 15.836C61.1668 15.836 61.6828 15.476 61.8388 14.828H63.3148C63.1348 16.208 61.9828 17.156 60.4348 17.156C58.6348 17.156 57.4588 15.908 57.4588 14.024ZM66.4204 17H64.9564V12.296H63.8164V11.072H64.9564V9.224H66.4204V11.072H67.5724V12.296H66.4204V17ZM69.8386 17H68.4826V8.072H69.9466V11.936C70.3306 11.276 71.1226 10.88 72.0226 10.88C73.7146 10.88 74.7466 12.2 74.7466 14.072C74.7466 15.896 73.6306 17.156 71.9266 17.156C71.0386 17.156 70.2826 16.76 69.9346 16.076L69.8386 17ZM69.9586 14.012C69.9586 15.08 70.6186 15.812 71.6266 15.812C72.6586 15.812 73.2706 15.068 73.2706 14.012C73.2706 12.956 72.6586 12.2 71.6266 12.2C70.6186 12.2 69.9586 12.944 69.9586 14.012ZM75.5643 14.024C75.5643 12.176 76.8963 10.904 78.7323 10.904C80.5683 10.904 81.9003 12.176 81.9003 14.024C81.9003 15.872 80.5683 17.144 78.7323 17.144C76.8963 17.144 75.5643 15.872 75.5643 14.024ZM77.0283 14.024C77.0283 15.104 77.7243 15.836 78.7323 15.836C79.7403 15.836 80.4363 15.104 80.4363 14.024C80.4363 12.944 79.7403 12.212 78.7323 12.212C77.7243 12.212 77.0283 12.944 77.0283 14.024ZM83.8232 17H82.1552L84.1952 14.096L82.1552 11.072H83.8592L85.1672 13.088L86.4272 11.072H88.0712L86.0552 14.072L88.0112 17H86.3312L85.0712 15.044L83.8232 17ZM88.4042 14.444V13.148H92.2682V14.444H88.4042ZM93.2219 15.2H94.6139C94.6259 15.716 95.0099 16.04 95.6819 16.04C96.3659 16.04 96.7379 15.764 96.7379 15.332C96.7379 15.032 96.5819 14.816 96.0539 14.696L94.9859 14.444C93.9179 14.204 93.4019 13.7 93.4019 12.752C93.4019 11.588 94.3859 10.892 95.7539 10.892C97.0859 10.892 97.9859 11.66 97.9979 12.812H96.6059C96.5939 12.308 96.2579 11.984 95.6939 11.984C95.1179 11.984 94.7819 12.248 94.7819 12.692C94.7819 13.028 95.0459 13.244 95.5499 13.364L96.6179 13.616C97.6139 13.844 98.1179 14.3 98.1179 15.212C98.1179 16.412 97.0979 17.156 95.6339 17.156C94.1579 17.156 93.2219 16.364 93.2219 15.2ZM101.885 17.156C100.121 17.156 98.8846 15.872 98.8846 14.036C98.8846 12.176 100.097 10.892 101.837 10.892C103.613 10.892 104.741 12.08 104.741 13.928V14.372L100.277 14.384C100.385 15.428 100.937 15.956 101.909 15.956C102.713 15.956 103.241 15.644 103.409 15.08H104.765C104.513 16.376 103.433 17.156 101.885 17.156ZM101.849 12.092C100.985 12.092 100.457 12.56 100.313 13.448H103.289C103.289 12.632 102.725 12.092 101.849 12.092ZM107.376 17H105.912V11.072H107.268L107.388 11.84C107.76 11.24 108.48 10.892 109.284 10.892C110.772 10.892 111.54 11.816 111.54 13.352V17H110.076V13.7C110.076 12.704 109.584 12.224 108.828 12.224C107.928 12.224 107.376 12.848 107.376 13.808V17ZM115.415 17.156C113.699 17.156 112.631 15.896 112.631 14.06C112.631 12.212 113.711 10.892 115.499 10.892C116.327 10.892 117.059 11.24 117.431 11.828V8.072H118.883V17H117.539L117.443 16.076C117.083 16.76 116.315 17.156 115.415 17.156ZM115.739 15.812C116.759 15.812 117.419 15.08 117.419 14.012C117.419 12.944 116.759 12.2 115.739 12.2C114.719 12.2 114.095 12.956 114.095 14.012C114.095 15.068 114.719 15.812 115.739 15.812Z" fill="black"/>
</svg>
