<svg width="113" height="24" viewBox="0 0 113 24" fill="none" xmlns="http://www.w3.org/2000/svg">
<path opacity="0.4" d="M17.0998 2H12.8998C9.44976 2 8.04977 3.37 8.00977 6.75H11.0998C15.2998 6.75 17.2498 8.7 17.2498 12.9V15.99C20.6298 15.95 21.9998 14.55 21.9998 11.1V6.9C21.9998 3.4 20.5998 2 17.0998 2Z" fill="#1A1A1A"/>
<path d="M11.1 8H6.9C3.4 8 2 9.4 2 12.9V17.1C2 20.6 3.4 22 6.9 22H11.1C14.6 22 16 20.6 16 17.1V12.9C16 9.4 14.6 8 11.1 8ZM12.29 13.65L8.58 17.36C8.44 17.5 8.26 17.57 8.07 17.57C7.88 17.57 7.7 17.5 7.56 17.36L5.7 15.5C5.42 15.22 5.42 14.77 5.7 14.49C5.98 14.21 6.43 14.21 6.71 14.49L8.06 15.84L11.27 12.63C11.55 12.35 12 12.35 12.28 12.63C12.56 12.91 12.57 13.37 12.29 13.65Z" fill="#1A1A1A"/>
<path d="M38.68 17.144C36.124 17.144 34.468 15.368 34.468 12.62C34.468 9.896 36.184 8.084 38.752 8.084C40.828 8.084 42.376 9.296 42.676 11.18H41.056C40.756 10.16 39.88 9.56 38.716 9.56C37.096 9.56 36.076 10.736 36.076 12.608C36.076 14.468 37.108 15.668 38.716 15.668C39.904 15.668 40.816 15.044 41.104 14.072H42.7C42.364 15.92 40.756 17.144 38.68 17.144ZM43.5135 14.024C43.5135 12.176 44.8455 10.904 46.6815 10.904C48.5175 10.904 49.8495 12.176 49.8495 14.024C49.8495 15.872 48.5175 17.144 46.6815 17.144C44.8455 17.144 43.5135 15.872 43.5135 14.024ZM44.9775 14.024C44.9775 15.104 45.6735 15.836 46.6815 15.836C47.6895 15.836 48.3855 15.104 48.3855 14.024C48.3855 12.944 47.6895 12.212 46.6815 12.212C45.6735 12.212 44.9775 12.944 44.9775 14.024ZM51.0099 19.748V11.072H52.3659L52.4619 11.972C52.8219 11.288 53.6019 10.892 54.5019 10.892C56.1699 10.892 57.2739 12.104 57.2739 13.964C57.2739 15.812 56.2659 17.156 54.5019 17.156C53.6139 17.156 52.8459 16.808 52.4739 16.208V19.748H51.0099ZM52.4859 14.036C52.4859 15.104 53.1459 15.836 54.1539 15.836C55.1859 15.836 55.7979 15.092 55.7979 14.036C55.7979 12.98 55.1859 12.224 54.1539 12.224C53.1459 12.224 52.4859 12.968 52.4859 14.036ZM57.7009 19.748V18.524H58.5769C59.1529 18.524 59.5129 18.392 59.7649 17.696L59.9329 17.252L57.5449 11.072H59.0929L60.6169 15.392L62.2249 11.072H63.7369L60.8329 18.32C60.3889 19.424 59.7649 19.88 58.7929 19.88C58.3849 19.88 58.0249 19.832 57.7009 19.748ZM64.1463 14.444V13.148H68.0103V14.444H64.1463ZM68.9641 15.2H70.3561C70.3681 15.716 70.7521 16.04 71.4241 16.04C72.1081 16.04 72.4801 15.764 72.4801 15.332C72.4801 15.032 72.3241 14.816 71.7961 14.696L70.7281 14.444C69.6601 14.204 69.1441 13.7 69.1441 12.752C69.1441 11.588 70.1281 10.892 71.4961 10.892C72.8281 10.892 73.7281 11.66 73.7401 12.812H72.3481C72.3361 12.308 72.0001 11.984 71.4361 11.984C70.8601 11.984 70.5241 12.248 70.5241 12.692C70.5241 13.028 70.7881 13.244 71.2921 13.364L72.3601 13.616C73.3561 13.844 73.8601 14.3 73.8601 15.212C73.8601 16.412 72.8401 17.156 71.3761 17.156C69.9001 17.156 68.9641 16.364 68.9641 15.2ZM78.9948 11.072H80.4588V17H79.1028L78.9948 16.208C78.6348 16.772 77.8668 17.156 77.0748 17.156C75.7068 17.156 74.9028 16.232 74.9028 14.78V11.072H76.3668V14.264C76.3668 15.392 76.8108 15.848 77.6268 15.848C78.5508 15.848 78.9948 15.308 78.9948 14.18V11.072ZM81.5057 14.024C81.5057 12.188 82.7177 10.892 84.4697 10.892C86.0897 10.892 87.1937 11.792 87.3497 13.22H85.8857C85.7177 12.548 85.2257 12.2 84.5297 12.2C83.5937 12.2 82.9697 12.908 82.9697 14.024C82.9697 15.14 83.5457 15.836 84.4817 15.836C85.2137 15.836 85.7297 15.476 85.8857 14.828H87.3617C87.1817 16.208 86.0297 17.156 84.4817 17.156C82.6817 17.156 81.5057 15.908 81.5057 14.024ZM88.1033 14.024C88.1033 12.188 89.3153 10.892 91.0673 10.892C92.6873 10.892 93.7913 11.792 93.9473 13.22H92.4833C92.3153 12.548 91.8233 12.2 91.1273 12.2C90.1913 12.2 89.5673 12.908 89.5673 14.024C89.5673 15.14 90.1433 15.836 91.0793 15.836C91.8113 15.836 92.3273 15.476 92.4833 14.828H93.9593C93.7793 16.208 92.6273 17.156 91.0793 17.156C89.2793 17.156 88.1033 15.908 88.1033 14.024ZM97.701 17.156C95.937 17.156 94.701 15.872 94.701 14.036C94.701 12.176 95.913 10.892 97.653 10.892C99.429 10.892 100.557 12.08 100.557 13.928V14.372L96.093 14.384C96.201 15.428 96.753 15.956 97.725 15.956C98.529 15.956 99.057 15.644 99.225 15.08H100.581C100.329 16.376 99.249 17.156 97.701 17.156ZM97.665 12.092C96.801 12.092 96.273 12.56 96.129 13.448H99.105C99.105 12.632 98.541 12.092 97.665 12.092ZM101.273 15.2H102.665C102.677 15.716 103.061 16.04 103.733 16.04C104.417 16.04 104.789 15.764 104.789 15.332C104.789 15.032 104.633 14.816 104.105 14.696L103.037 14.444C101.969 14.204 101.453 13.7 101.453 12.752C101.453 11.588 102.437 10.892 103.805 10.892C105.137 10.892 106.037 11.66 106.049 12.812H104.657C104.645 12.308 104.309 11.984 103.745 11.984C103.169 11.984 102.833 12.248 102.833 12.692C102.833 13.028 103.097 13.244 103.601 13.364L104.669 13.616C105.665 13.844 106.169 14.3 106.169 15.212C106.169 16.412 105.149 17.156 103.685 17.156C102.209 17.156 101.273 16.364 101.273 15.2ZM106.827 15.2H108.219C108.231 15.716 108.615 16.04 109.287 16.04C109.971 16.04 110.343 15.764 110.343 15.332C110.343 15.032 110.187 14.816 109.659 14.696L108.591 14.444C107.523 14.204 107.007 13.7 107.007 12.752C107.007 11.588 107.991 10.892 109.359 10.892C110.691 10.892 111.591 11.66 111.603 12.812H110.211C110.199 12.308 109.863 11.984 109.299 11.984C108.723 11.984 108.387 12.248 108.387 12.692C108.387 13.028 108.651 13.244 109.155 13.364L110.223 13.616C111.219 13.844 111.723 14.3 111.723 15.212C111.723 16.412 110.703 17.156 109.239 17.156C107.763 17.156 106.827 16.364 106.827 15.2Z" fill="black"/>
</svg>
