<svg width="101" height="24" viewBox="0 0 101 24" fill="none" xmlns="http://www.w3.org/2000/svg">
<path opacity="0.4" d="M17.9496 7.70961L17.8096 7.62961L16.4196 6.82961L13.5496 5.16961C12.6696 4.65961 11.3296 4.65961 10.4496 5.16961L7.57961 6.82961L6.18961 7.63961L6.00961 7.73961C4.21961 8.93961 4.09961 9.15961 4.09961 11.0896V15.6996C4.09961 17.6296 4.21961 17.8496 6.04961 19.0796L10.4496 21.6196C10.8896 21.8796 11.4396 21.9996 11.9996 21.9996C12.5496 21.9996 13.1096 21.8796 13.5496 21.6196L17.9896 19.0496C19.7796 17.8496 19.8996 17.6296 19.8996 15.6996V11.0896C19.8996 9.15961 19.7796 8.93961 17.9496 7.70961Z" fill="#1A1A1A"/>
<path d="M6.19043 7.64L7.58043 6.83L10.3204 5.25L10.4504 5.17C11.3304 4.66 12.6704 4.66 13.5504 5.17L13.6804 5.25L16.4204 6.83L17.8104 7.63V5.49C17.8104 3.24 16.5704 2 14.3204 2H9.67043C7.42043 2 6.19043 3.24 6.19043 5.49V7.64Z" fill="#1A1A1A"/>
<path d="M14.8397 13.3393L14.2197 14.0993C14.1197 14.2093 14.0497 14.4293 14.0597 14.5793L14.1197 15.5593C14.1597 16.1593 13.7297 16.4693 13.1697 16.2493L12.2597 15.8893C12.1197 15.8393 11.8797 15.8393 11.7397 15.8893L10.8297 16.2493C10.2697 16.4693 9.83975 16.1593 9.87975 15.5593L9.93975 14.5793C9.94975 14.4293 9.87975 14.2093 9.77975 14.0993L9.15975 13.3393C8.76975 12.8793 8.93975 12.3693 9.51975 12.2193L10.4697 11.9793C10.6197 11.9393 10.7997 11.7993 10.8797 11.6693L11.4097 10.8493C11.7397 10.3393 12.2597 10.3393 12.5897 10.8493L13.1197 11.6693C13.1997 11.7993 13.3797 11.9393 13.5297 11.9793L14.4797 12.2193C15.0597 12.3693 15.2297 12.8793 14.8397 13.3393Z" fill="#1A1A1A"/>
<path d="M35.728 16H34.132L37.3 7.228H38.872L42.04 16H40.42L39.712 13.972H36.436L35.728 16ZM37.888 9.844L36.892 12.676H39.268L38.26 9.844C38.188 9.616 38.104 9.352 38.08 9.172C38.044 9.34 37.972 9.604 37.888 9.844ZM43.9038 16L41.9838 10.072H43.5078L44.2878 12.616C44.4198 13.084 44.5398 13.6 44.6478 14.152C44.7558 13.576 44.8638 13.204 45.0558 12.616L45.8718 10.072H47.3598L48.1518 12.616C48.2238 12.856 48.4638 13.744 48.5358 14.14C48.6318 13.696 48.8238 12.988 48.9318 12.616L49.7238 10.072H51.2718L49.2198 16H47.8518L47.0358 13.432C46.7958 12.652 46.6638 12.088 46.6158 11.788C46.5558 12.064 46.4478 12.484 46.1478 13.456L45.3318 16H43.9038ZM53.6294 16.156C52.3694 16.156 51.6014 15.424 51.6014 14.308C51.6014 13.216 52.3934 12.532 53.7974 12.424L55.5734 12.292V12.16C55.5734 11.356 55.0934 11.032 54.3494 11.032C53.4854 11.032 53.0054 11.392 53.0054 12.016H51.7574C51.7574 10.732 52.8134 9.892 54.4214 9.892C56.0174 9.892 57.0014 10.756 57.0014 12.4V16H55.7174L55.6094 15.124C55.3574 15.736 54.5534 16.156 53.6294 16.156ZM54.1094 15.052C55.0094 15.052 55.5854 14.512 55.5854 13.6V13.288L54.3494 13.384C53.4374 13.468 53.0894 13.768 53.0894 14.248C53.0894 14.788 53.4494 15.052 54.1094 15.052ZM62.1596 10.048V11.404H61.6196C60.5636 11.404 59.9036 11.968 59.9036 13.12V16H58.4396V10.084H59.8196L59.9036 10.948C60.1556 10.36 60.7196 9.964 61.5116 9.964C61.7156 9.964 61.9196 9.988 62.1596 10.048ZM65.3873 16.156C63.6713 16.156 62.6033 14.896 62.6033 13.06C62.6033 11.212 63.6833 9.892 65.4713 9.892C66.2993 9.892 67.0313 10.24 67.4033 10.828V7.072H68.8553V16H67.5113L67.4153 15.076C67.0553 15.76 66.2873 16.156 65.3873 16.156ZM65.7113 14.812C66.7313 14.812 67.3913 14.08 67.3913 13.012C67.3913 11.944 66.7313 11.2 65.7113 11.2C64.6913 11.2 64.0673 11.956 64.0673 13.012C64.0673 14.068 64.6913 14.812 65.7113 14.812Z" fill="black"/>
</svg>
