<svg width="101" height="24" viewBox="0 0 101 24" fill="none" xmlns="http://www.w3.org/2000/svg">
<path fill-rule="evenodd" clip-rule="evenodd" d="M15.8797 20.9201C15.9097 21.0801 15.8197 21.2501 15.6697 21.3101C14.5297 21.7601 13.2997 22.0001 12.0097 22.0001C9.80974 22.0001 7.75974 21.2901 6.10974 20.0701C5.96974 19.9701 5.92974 19.7701 6.01974 19.6201C6.56974 18.6401 8.71974 15.4901 13.4697 13.7301C13.6497 13.6601 13.8497 13.7501 13.9097 13.9301C15.1097 17.1201 15.6697 19.8201 15.8797 20.9201Z" fill="#1A1A1A"/>
<path fill-rule="evenodd" clip-rule="evenodd" d="M21.8196 13.89C21.3596 16.35 19.9796 18.49 18.0496 19.95C17.8396 20.11 17.5396 19.99 17.4896 19.74C17.2796 18.66 16.7696 16.33 15.7896 13.56C15.7196 13.35 15.8596 13.12 16.0796 13.09C18.5696 12.79 20.7496 13.27 21.5696 13.49C21.7396 13.55 21.8496 13.72 21.8196 13.89Z" fill="#1A1A1A"/>
<path opacity="0.4" fill-rule="evenodd" clip-rule="evenodd" d="M21.5902 11.82C20.5702 11.64 17.9702 11.26 15.3102 11.55C15.1502 11.57 15.0102 11.48 14.9402 11.33C14.9002 11.24 14.8702 11.15 14.8302 11.06C14.6702 10.69 14.5002 10.31 14.3302 9.94002C14.2402 9.76002 14.3302 9.54002 14.5102 9.46002C17.3102 8.25002 18.8702 6.69002 19.4802 5.99002C19.6302 5.82002 19.8902 5.83002 20.0302 6.01002C21.1802 7.54002 21.8902 9.41002 22.0002 11.43C22.0102 11.68 21.8102 11.86 21.5902 11.82Z" fill="#1A1A1A"/>
<path fill-rule="evenodd" clip-rule="evenodd" d="M18.4397 4.79C17.9197 5.42 16.4597 6.92 13.6897 8.02C13.5297 8.09 13.3397 8.02 13.2497 7.86C11.9697 5.54 10.6097 3.59 9.97967 2.71C9.82967 2.49 9.94967 2.2 10.2097 2.15C10.7897 2.05 11.3897 2 12.0097 2C14.4297 2 16.6597 2.86 18.3897 4.3C18.5397 4.42 18.5597 4.64 18.4397 4.79Z" fill="#1A1A1A"/>
<path fill-rule="evenodd" clip-rule="evenodd" d="M11.0198 8.84004C7.22976 9.79004 3.87976 9.92004 2.65976 9.94004C2.42976 9.94004 2.25976 9.72004 2.31976 9.50004C3.03976 6.70004 4.95976 4.36004 7.48976 3.07004C7.63976 2.99004 7.82976 3.04004 7.92976 3.18004C8.44976 3.90004 9.85976 5.93004 11.2398 8.32004C11.3498 8.52004 11.2498 8.78004 11.0198 8.84004Z" fill="#1A1A1A"/>
<path opacity="0.4" fill-rule="evenodd" clip-rule="evenodd" d="M12.92 11.6C13.01 11.79 12.9 12.02 12.7 12.09C8.27 13.52 5.62 17.07 4.82 18.29C4.69 18.49 4.41 18.5 4.26 18.32C2.85 16.6 2 14.63 2 12.23V12.05C2 11.85 2.16 11.69 2.36 11.7C3.62 11.75 7.73 11.58 12 10.35C12.16 10.3 12.34 10.38 12.41 10.53C12.59 10.89 12.76 11.24 12.92 11.6Z" fill="#1A1A1A"/>
<path d="M38.128 16H34.972V7.228H38.044C40.636 7.228 42.424 9.016 42.424 11.632C42.424 14.212 40.672 16 38.128 16ZM37.9 8.644H36.508V14.584H37.984C39.736 14.584 40.804 13.456 40.804 11.632C40.804 9.772 39.712 8.644 37.9 8.644ZM47.3588 10.048V11.404H46.8188C45.7628 11.404 45.1028 11.968 45.1028 13.12V16H43.6388V10.084H45.0188L45.1028 10.948C45.3548 10.36 45.9188 9.964 46.7108 9.964C46.9148 9.964 47.1188 9.988 47.3588 10.048ZM49.0818 8.884C48.5778 8.884 48.1818 8.488 48.1818 7.996C48.1818 7.504 48.5778 7.12 49.0818 7.12C49.5618 7.12 49.9578 7.504 49.9578 7.996C49.9578 8.488 49.5618 8.884 49.0818 8.884ZM48.3498 16V10.072H49.8138V16H48.3498ZM52.6823 16H51.3263V7.072H52.7903V10.936C53.1743 10.276 53.9663 9.88 54.8663 9.88C56.5583 9.88 57.5903 11.2 57.5903 13.072C57.5903 14.896 56.4743 16.156 54.7703 16.156C53.8823 16.156 53.1263 15.76 52.7783 15.076L52.6823 16ZM52.8023 13.012C52.8023 14.08 53.4623 14.812 54.4703 14.812C55.5023 14.812 56.1143 14.068 56.1143 13.012C56.1143 11.956 55.5023 11.2 54.4703 11.2C53.4623 11.2 52.8023 11.944 52.8023 13.012ZM60.112 16H58.756V7.072H60.22V10.936C60.604 10.276 61.396 9.88 62.296 9.88C63.988 9.88 65.02 11.2 65.02 13.072C65.02 14.896 63.904 16.156 62.2 16.156C61.312 16.156 60.556 15.76 60.208 15.076L60.112 16ZM60.232 13.012C60.232 14.08 60.892 14.812 61.9 14.812C62.932 14.812 63.544 14.068 63.544 13.012C63.544 11.956 62.932 11.2 61.9 11.2C60.892 11.2 60.232 11.944 60.232 13.012ZM67.5417 16H66.1857V7.072H67.6497V10.936C68.0337 10.276 68.8257 9.88 69.7257 9.88C71.4177 9.88 72.4497 11.2 72.4497 13.072C72.4497 14.896 71.3337 16.156 69.6297 16.156C68.7417 16.156 67.9857 15.76 67.6377 15.076L67.5417 16ZM67.6617 13.012C67.6617 14.08 68.3217 14.812 69.3297 14.812C70.3617 14.812 70.9737 14.068 70.9737 13.012C70.9737 11.956 70.3617 11.2 69.3297 11.2C68.3217 11.2 67.6617 11.944 67.6617 13.012ZM75.0914 16H73.6394V7.072H75.0914V16ZM79.2791 16.156C77.5151 16.156 76.2791 14.872 76.2791 13.036C76.2791 11.176 77.4911 9.892 79.2311 9.892C81.0071 9.892 82.1351 11.08 82.1351 12.928V13.372L77.6711 13.384C77.7791 14.428 78.3311 14.956 79.3031 14.956C80.1071 14.956 80.6351 14.644 80.8031 14.08H82.1591C81.9071 15.376 80.8271 16.156 79.2791 16.156ZM79.2431 11.092C78.3791 11.092 77.8511 11.56 77.7071 12.448H80.6831C80.6831 11.632 80.1191 11.092 79.2431 11.092Z" fill="black"/>
</svg>
