<svg width="117" height="24" viewBox="0 0 117 24" fill="none" xmlns="http://www.w3.org/2000/svg">
<path opacity="0.4" d="M12 22C17.5228 22 22 17.5228 22 12C22 6.47715 17.5228 2 12 2C6.47715 2 2 6.47715 2 12C2 17.5228 6.47715 22 12 22Z" fill="#1A1A1A"/>
<path d="M16.6901 15.7L12.6901 6.70004C12.4501 6.16004 11.5601 6.16004 11.3201 6.70004L9.30007 11.25H8.00008C7.59008 11.25 7.25008 11.59 7.25008 12C7.25008 12.41 7.59008 12.75 8.00008 12.75H8.62008L7.31008 15.7C7.14008 16.08 7.31009 16.52 7.69009 16.69C8.07009 16.86 8.51008 16.69 8.68008 16.31L10.2601 12.76H12.0001C12.4101 12.76 12.7501 12.42 12.7501 12.01C12.7501 11.6 12.4101 11.26 12.0001 11.26H10.9301L12.0001 8.86004L15.3101 16.32C15.4301 16.6 15.7101 16.77 16.0001 16.77C16.1001 16.77 16.2101 16.75 16.3001 16.71C16.6801 16.52 16.8501 16.07 16.6901 15.7Z" fill="#1A1A1A"/>
<path d="M35.728 16H34.132L37.3 7.228H38.872L42.04 16H40.42L39.712 13.972H36.436L35.728 16ZM37.888 9.844L36.892 12.676H39.268L38.26 9.844C38.188 9.616 38.104 9.352 38.08 9.172C38.044 9.34 37.972 9.604 37.888 9.844ZM44.6059 16.156C43.3459 16.156 42.5779 15.424 42.5779 14.308C42.5779 13.216 43.3699 12.532 44.7739 12.424L46.5499 12.292V12.16C46.5499 11.356 46.0699 11.032 45.3259 11.032C44.4619 11.032 43.9819 11.392 43.9819 12.016H42.7339C42.7339 10.732 43.7899 9.892 45.3979 9.892C46.9939 9.892 47.9779 10.756 47.9779 12.4V16H46.6939L46.5859 15.124C46.3339 15.736 45.5299 16.156 44.6059 16.156ZM45.0859 15.052C45.9859 15.052 46.5619 14.512 46.5619 13.6V13.288L45.3259 13.384C44.4139 13.468 44.0659 13.768 44.0659 14.248C44.0659 14.788 44.4259 15.052 45.0859 15.052ZM50.8618 16L48.5098 10.072H50.0698L51.1018 12.796C51.3538 13.504 51.5578 14.116 51.6298 14.44C51.7138 14.068 51.9298 13.444 52.1818 12.796L53.2618 10.072H54.7738L52.3018 16H50.8618ZM57.9744 16.156C56.2104 16.156 54.9744 14.872 54.9744 13.036C54.9744 11.176 56.1864 9.892 57.9264 9.892C59.7024 9.892 60.8304 11.08 60.8304 12.928V13.372L56.3664 13.384C56.4744 14.428 57.0264 14.956 57.9984 14.956C58.8024 14.956 59.3304 14.644 59.4984 14.08H60.8544C60.6024 15.376 59.5224 16.156 57.9744 16.156ZM57.9384 11.092C57.0744 11.092 56.5464 11.56 56.4024 12.448H59.3784C59.3784 11.632 58.8144 11.092 57.9384 11.092ZM61.9901 13.444V12.148H65.8541V13.444H61.9901ZM70.2858 18.292H69.1218C67.9218 16.924 67.1298 14.776 67.1298 12.472C67.1298 10.372 67.8018 8.164 69.1218 6.664H70.2858C69.2898 8.02 68.6058 10.144 68.6058 12.472C68.6058 14.596 69.1938 16.804 70.2858 18.292ZM72.8013 16.156C71.5413 16.156 70.7733 15.424 70.7733 14.308C70.7733 13.216 71.5653 12.532 72.9693 12.424L74.7453 12.292V12.16C74.7453 11.356 74.2653 11.032 73.5213 11.032C72.6573 11.032 72.1773 11.392 72.1773 12.016H70.9293C70.9293 10.732 71.9853 9.892 73.5933 9.892C75.1893 9.892 76.1733 10.756 76.1733 12.4V16H74.8893L74.7813 15.124C74.5293 15.736 73.7253 16.156 72.8013 16.156ZM73.2812 15.052C74.1813 15.052 74.7573 14.512 74.7573 13.6V13.288L73.5213 13.384C72.6093 13.468 72.2613 13.768 72.2613 14.248C72.2613 14.788 72.6213 15.052 73.2812 15.052ZM79.3755 16.156C78.1155 16.156 77.3475 15.424 77.3475 14.308C77.3475 13.216 78.1395 12.532 79.5435 12.424L81.3195 12.292V12.16C81.3195 11.356 80.8395 11.032 80.0955 11.032C79.2315 11.032 78.7515 11.392 78.7515 12.016H77.5035C77.5035 10.732 78.5595 9.892 80.1675 9.892C81.7635 9.892 82.7475 10.756 82.7475 12.4V16H81.4635L81.3555 15.124C81.1035 15.736 80.2995 16.156 79.3755 16.156ZM79.8555 15.052C80.7555 15.052 81.3315 14.512 81.3315 13.6V13.288L80.0955 13.384C79.1835 13.468 78.8355 13.768 78.8355 14.248C78.8355 14.788 79.1955 15.052 79.8555 15.052ZM85.6313 16L83.2793 10.072H84.8393L85.8713 12.796C86.1233 13.504 86.3273 14.116 86.3993 14.44C86.4833 14.068 86.6993 13.444 86.9513 12.796L88.0313 10.072H89.5433L87.0713 16H85.6313ZM92.7439 16.156C90.9799 16.156 89.7439 14.872 89.7439 13.036C89.7439 11.176 90.9559 9.892 92.6959 9.892C94.4719 9.892 95.5999 11.08 95.5999 12.928V13.372L91.1359 13.384C91.2439 14.428 91.7959 14.956 92.7679 14.956C93.5719 14.956 94.0999 14.644 94.2679 14.08H95.6239C95.3719 15.376 94.2919 16.156 92.7439 16.156ZM92.7079 11.092C91.8439 11.092 91.3159 11.56 91.1719 12.448H94.1479C94.1479 11.632 93.5839 11.092 92.7079 11.092ZM97.1796 18.292H96.0156C97.1196 16.804 97.6956 14.596 97.6956 12.472C97.6956 10.144 97.0116 8.02 96.0156 6.664H97.1796C98.4996 8.164 99.1836 10.372 99.1836 12.472C99.1836 14.776 98.3796 16.924 97.1796 18.292Z" fill="black"/>
</svg>
