<svg width="121" height="24" viewBox="0 0 121 24" fill="none" xmlns="http://www.w3.org/2000/svg">
<path opacity="0.4" fill-rule="evenodd" clip-rule="evenodd" d="M23 15.2197C23.4142 15.2197 23.75 15.5555 23.75 15.9697C23.75 20.2539 20.2842 23.7197 16 23.7197C15.7298 23.7197 15.4805 23.5744 15.3474 23.3393C15.2142 23.1041 15.2179 22.8156 15.3569 22.5839L16.4069 20.8339C16.62 20.4787 17.0807 20.3635 17.4359 20.5766C17.7911 20.7897 17.9062 21.2504 17.6931 21.6056L17.4218 22.0578C20.1909 21.4154 22.25 18.9363 22.25 15.9697C22.25 15.5555 22.5858 15.2197 23 15.2197Z" fill="#1A1A1A"/>
<path opacity="0.4" fill-rule="evenodd" clip-rule="evenodd" d="M6.5782 1.88166C3.8091 2.5241 1.75 5.00315 1.75 7.96973C1.75 8.38394 1.41421 8.71973 1 8.71973C0.585786 8.71973 0.25 8.38394 0.25 7.96973C0.25 3.68551 3.71579 0.219727 8 0.219727C8.2702 0.219727 8.51952 0.365071 8.65265 0.600202C8.78578 0.835334 8.78214 1.1239 8.64312 1.3556L7.59312 3.1056C7.38001 3.46078 6.91931 3.57596 6.56413 3.36285C6.20894 3.14974 6.09377 2.68904 6.30688 2.33385L6.5782 1.88166Z" fill="#1A1A1A"/>
<path opacity="0.4" d="M14.8498 15.3302C14.8498 18.7402 12.0898 21.5002 8.67977 21.5002C5.26977 21.5002 2.50977 18.7402 2.50977 15.3302C2.50977 11.9202 5.26977 9.16016 8.67977 9.16016C8.83977 9.16016 8.98977 9.17018 9.15977 9.18018C12.1898 9.41018 14.6098 11.8302 14.8398 14.8602C14.8398 15.0102 14.8498 15.1602 14.8498 15.3302Z" fill="#1A1A1A"/>
<path d="M21.5002 8.66998C21.5002 12.08 18.7402 14.84 15.3302 14.84H14.8402C14.6102 11.81 12.1902 9.38997 9.16016 9.15997V8.66998C9.16016 5.25998 11.9202 2.5 15.3302 2.5C18.7402 2.5 21.5002 5.25998 21.5002 8.66998Z" fill="#1A1A1A"/>
<path d="M11.1201 15.0104C11.2401 14.7604 11.3101 14.4904 11.3101 14.2004C11.3101 13.2004 10.4301 12.3204 9.43012 12.3204H9.17012V11.9404C9.17012 11.5304 8.83012 11.1904 8.42012 11.1904C8.01012 11.1904 7.67012 11.5304 7.67012 11.9404V12.3204H6.62012C6.21012 12.3204 5.87012 12.6604 5.87012 13.0704V15.3204V17.5704C5.87012 17.9804 6.21012 18.3204 6.62012 18.3204H7.67012V18.7004C7.67012 19.1104 8.01012 19.4504 8.42012 19.4504C8.83012 19.4504 9.17012 19.1104 9.17012 18.7004V18.3204H9.83012C10.9501 18.3204 11.8701 17.4804 11.8701 16.4404C11.8701 15.8704 11.5701 15.3504 11.1201 15.0104ZM7.37012 13.8204H9.43012C9.64012 13.8204 9.81012 14.0504 9.81012 14.2004C9.81012 14.4104 9.64012 14.5804 9.43012 14.5804H7.37012V13.8204ZM9.83012 16.8304H7.36012V16.0804H9.42012H9.82012C10.1401 16.0804 10.3601 16.2804 10.3601 16.4604C10.3601 16.6404 10.1501 16.8304 9.83012 16.8304Z" fill="#1A1A1A"/>
<path d="M34.972 17V8.228H38.464C40.192 8.228 41.248 9.128 41.248 10.592C41.248 11.564 40.816 12.26 39.988 12.608C40.912 12.908 41.38 13.604 41.38 14.624C41.38 16.124 40.336 17 38.524 17H34.972ZM38.332 9.584H36.508V11.972H38.368C39.208 11.972 39.676 11.528 39.676 10.748C39.676 9.992 39.196 9.584 38.332 9.584ZM38.464 13.268H36.508V15.644H38.464C39.328 15.644 39.808 15.224 39.808 14.432C39.808 13.688 39.316 13.268 38.464 13.268ZM43.3044 9.884C42.8004 9.884 42.4044 9.488 42.4044 8.996C42.4044 8.504 42.8004 8.12 43.3044 8.12C43.7844 8.12 44.1804 8.504 44.1804 8.996C44.1804 9.488 43.7844 9.884 43.3044 9.884ZM42.5724 17V11.072H44.0364V17H42.5724ZM47.565 17H46.101V12.296H44.961V11.072H46.101V9.224H47.565V11.072H48.717V12.296H47.565V17ZM49.2205 14.024C49.2205 12.188 50.4325 10.892 52.1845 10.892C53.8045 10.892 54.9085 11.792 55.0645 13.22H53.6005C53.4325 12.548 52.9405 12.2 52.2445 12.2C51.3085 12.2 50.6845 12.908 50.6845 14.024C50.6845 15.14 51.2605 15.836 52.1965 15.836C52.9285 15.836 53.4445 15.476 53.6005 14.828H55.0765C54.8965 16.208 53.7445 17.156 52.1965 17.156C50.3965 17.156 49.2205 15.908 49.2205 14.024ZM55.8182 14.024C55.8182 12.176 57.1502 10.904 58.9862 10.904C60.8222 10.904 62.1542 12.176 62.1542 14.024C62.1542 15.872 60.8222 17.144 58.9862 17.144C57.1502 17.144 55.8182 15.872 55.8182 14.024ZM57.2822 14.024C57.2822 15.104 57.9782 15.836 58.9862 15.836C59.9942 15.836 60.6902 15.104 60.6902 14.024C60.6902 12.944 59.9942 12.212 58.9862 12.212C57.9782 12.212 57.2822 12.944 57.2822 14.024ZM64.0466 9.884C63.5426 9.884 63.1466 9.488 63.1466 8.996C63.1466 8.504 63.5426 8.12 64.0466 8.12C64.5266 8.12 64.9226 8.504 64.9226 8.996C64.9226 9.488 64.5266 9.884 64.0466 9.884ZM63.3146 17V11.072H64.7786V17H63.3146ZM67.7552 17H66.2912V11.072H67.6472L67.7672 11.84C68.1392 11.24 68.8592 10.892 69.6632 10.892C71.1512 10.892 71.9192 11.816 71.9192 13.352V17H70.4552V13.7C70.4552 12.704 69.9632 12.224 69.2072 12.224C68.3072 12.224 67.7552 12.848 67.7552 13.808V17ZM73.3456 14.444V13.148H77.2096V14.444H73.3456ZM78.3533 14.024C78.3533 12.188 79.5653 10.892 81.3173 10.892C82.9373 10.892 84.0413 11.792 84.1973 13.22H82.7333C82.5653 12.548 82.0733 12.2 81.3773 12.2C80.4413 12.2 79.8173 12.908 79.8173 14.024C79.8173 15.14 80.3933 15.836 81.3293 15.836C82.0613 15.836 82.5773 15.476 82.7333 14.828H84.2093C84.0293 16.208 82.8773 17.156 81.3293 17.156C79.5293 17.156 78.3533 15.908 78.3533 14.024ZM84.951 14.024C84.951 12.176 86.283 10.904 88.119 10.904C89.955 10.904 91.287 12.176 91.287 14.024C91.287 15.872 89.955 17.144 88.119 17.144C86.283 17.144 84.951 15.872 84.951 14.024ZM86.415 14.024C86.415 15.104 87.111 15.836 88.119 15.836C89.127 15.836 89.823 15.104 89.823 14.024C89.823 12.944 89.127 12.212 88.119 12.212C87.111 12.212 86.415 12.944 86.415 14.024ZM93.9114 17H92.4474V11.072H93.8034L93.9234 11.84C94.2954 11.24 95.0154 10.892 95.8194 10.892C97.3074 10.892 98.0754 11.816 98.0754 13.352V17H96.6114V13.7C96.6114 12.704 96.1194 12.224 95.3634 12.224C94.4634 12.224 93.9114 12.848 93.9114 13.808V17ZM101.077 17L98.7246 11.072H100.285L101.317 13.796C101.569 14.504 101.773 15.116 101.845 15.44C101.929 15.068 102.145 14.444 102.397 13.796L103.477 11.072H104.989L102.517 17H101.077ZM108.189 17.156C106.425 17.156 105.189 15.872 105.189 14.036C105.189 12.176 106.401 10.892 108.141 10.892C109.917 10.892 111.045 12.08 111.045 13.928V14.372L106.581 14.384C106.689 15.428 107.241 15.956 108.213 15.956C109.017 15.956 109.545 15.644 109.713 15.08H111.069C110.817 16.376 109.737 17.156 108.189 17.156ZM108.153 12.092C107.289 12.092 106.761 12.56 106.617 13.448H109.593C109.593 12.632 109.029 12.092 108.153 12.092ZM115.937 11.048V12.404H115.397C114.341 12.404 113.681 12.968 113.681 14.12V17H112.217V11.084H113.597L113.681 11.948C113.933 11.36 114.497 10.964 115.289 10.964C115.493 10.964 115.697 10.988 115.937 11.048ZM119.178 17H117.714V12.296H116.574V11.072H117.714V9.224H119.178V11.072H120.33V12.296H119.178V17Z" fill="black"/>
</svg>
