<svg width="119" height="24" viewBox="0 0 119 24" fill="none" xmlns="http://www.w3.org/2000/svg">
<path opacity="0.4" d="M19.3 7.91998V13.07C19.3 16.15 17.54 17.47 14.9 17.47H6.10995C5.65995 17.47 5.22996 17.43 4.82996 17.34C4.57996 17.3 4.33996 17.23 4.11996 17.15C2.61996 16.59 1.70996 15.29 1.70996 13.07V7.91998C1.70996 4.83998 3.46995 3.52002 6.10995 3.52002H14.9C17.14 3.52002 18.75 4.47001 19.18 6.64001C19.25 7.04001 19.3 7.44998 19.3 7.91998Z" fill="#1A1A1A"/>
<path d="M22.3001 10.92V16.07C22.3001 19.15 20.5401 20.47 17.9001 20.47H9.11008C8.37008 20.47 7.70009 20.37 7.12009 20.15C5.93009 19.71 5.12008 18.8 4.83008 17.34C5.23008 17.43 5.66008 17.47 6.11008 17.47H14.9001C17.5401 17.47 19.3001 16.15 19.3001 13.07V7.91998C19.3001 7.44998 19.2601 7.03001 19.1801 6.64001C21.0801 7.04001 22.3001 8.37998 22.3001 10.92Z" fill="#1A1A1A"/>
<path d="M10.5004 13.14C11.9584 13.14 13.1404 11.958 13.1404 10.5C13.1404 9.04197 11.9584 7.85999 10.5004 7.85999C9.04233 7.85999 7.86035 9.04197 7.86035 10.5C7.86035 11.958 9.04233 13.14 10.5004 13.14Z" fill="#1A1A1A"/>
<path d="M4.78027 8.25C4.37027 8.25 4.03027 8.59 4.03027 9V12C4.03027 12.41 4.37027 12.75 4.78027 12.75C5.19027 12.75 5.53027 12.41 5.53027 12V9C5.53027 8.59 5.20027 8.25 4.78027 8.25Z" fill="#1A1A1A"/>
<path d="M16.21 8.25C15.8 8.25 15.46 8.59 15.46 9V12C15.46 12.41 15.8 12.75 16.21 12.75C16.62 12.75 16.96 12.41 16.96 12V9C16.96 8.59 16.63 8.25 16.21 8.25Z" fill="#1A1A1A"/>
<path d="M36.46 16H34.972V7.228H36.46L39.292 14.212L42.124 7.228H43.636V16H42.148V13.3C42.148 11.536 42.148 11.02 42.232 10.396L40 16H38.584L36.364 10.408C36.448 10.936 36.46 11.764 36.46 12.856V16ZM45.0135 13.024C45.0135 11.176 46.3455 9.904 48.1815 9.904C50.0175 9.904 51.3495 11.176 51.3495 13.024C51.3495 14.872 50.0175 16.144 48.1815 16.144C46.3455 16.144 45.0135 14.872 45.0135 13.024ZM46.4775 13.024C46.4775 14.104 47.1735 14.836 48.1815 14.836C49.1895 14.836 49.8855 14.104 49.8855 13.024C49.8855 11.944 49.1895 11.212 48.1815 11.212C47.1735 11.212 46.4775 11.944 46.4775 13.024ZM53.9739 16H52.5099V10.072H53.8659L53.9859 10.84C54.3579 10.24 55.0779 9.892 55.8819 9.892C57.3699 9.892 58.1379 10.816 58.1379 12.352V16H56.6739V12.7C56.6739 11.704 56.1819 11.224 55.4259 11.224C54.5259 11.224 53.9739 11.848 53.9739 12.808V16ZM62.2283 16.156C60.4643 16.156 59.2283 14.872 59.2283 13.036C59.2283 11.176 60.4403 9.892 62.1803 9.892C63.9563 9.892 65.0843 11.08 65.0843 12.928V13.372L60.6203 13.384C60.7283 14.428 61.2803 14.956 62.2523 14.956C63.0563 14.956 63.5843 14.644 63.7523 14.08H65.1083C64.8563 15.376 63.7763 16.156 62.2283 16.156ZM62.1923 11.092C61.3283 11.092 60.8003 11.56 60.6563 12.448H63.6323C63.6323 11.632 63.0683 11.092 62.1923 11.092ZM65.5408 18.748V17.524H66.4168C66.9928 17.524 67.3528 17.392 67.6048 16.696L67.7728 16.252L65.3848 10.072H66.9328L68.4568 14.392L70.0648 10.072H71.5768L68.6728 17.32C68.2288 18.424 67.6048 18.88 66.6328 18.88C66.2248 18.88 65.8648 18.832 65.5408 18.748ZM71.8234 14.2H73.2154C73.2274 14.716 73.6114 15.04 74.2834 15.04C74.9674 15.04 75.3394 14.764 75.3394 14.332C75.3394 14.032 75.1834 13.816 74.6554 13.696L73.5874 13.444C72.5194 13.204 72.0034 12.7 72.0034 11.752C72.0034 10.588 72.9874 9.892 74.3554 9.892C75.6874 9.892 76.5874 10.66 76.5994 11.812H75.2074C75.1954 11.308 74.8594 10.984 74.2954 10.984C73.7194 10.984 73.3834 11.248 73.3834 11.692C73.3834 12.028 73.6474 12.244 74.1514 12.364L75.2194 12.616C76.2154 12.844 76.7194 13.3 76.7194 14.212C76.7194 15.412 75.6994 16.156 74.2354 16.156C72.7594 16.156 71.8234 15.364 71.8234 14.2Z" fill="black"/>
</svg>
