<svg width="121" height="24" viewBox="0 0 121 24" fill="none" xmlns="http://www.w3.org/2000/svg">
<path opacity="0.4" d="M6.73026 19.7C7.55026 18.82 8.80023 18.89 9.52023 19.85L10.5302 21.2C11.3402 22.27 12.6502 22.27 13.4602 21.2L14.4702 19.85C15.1902 18.89 16.4403 18.82 17.2603 19.7C19.0403 21.6 20.4902 20.97 20.4902 18.31V7.04999C20.4902 3.01999 19.5502 2.01001 15.7702 2.01001H8.21024C4.43024 2.01001 3.49023 3.01999 3.49023 7.04999V18.31C3.50023 20.97 4.96026 21.59 6.73026 19.7Z" fill="#1A1A1A"/>
<path d="M14.8399 9.98993L14.3399 10.4999H14.3299L11.2999 13.5299C11.1699 13.6599 10.8999 13.7999 10.7099 13.8199L9.35993 14.0199C8.86993 14.0899 8.52995 13.7399 8.59995 13.2599L8.78996 11.8999C8.81996 11.7099 8.94993 11.4499 9.07993 11.3099L12.1199 8.27994L12.6199 7.76993C12.9499 7.43993 13.3199 7.19995 13.7199 7.19995C14.0599 7.19995 14.4299 7.35993 14.8399 7.76993C15.7399 8.66993 15.4499 9.37993 14.8399 9.98993Z" fill="#1A1A1A"/>
<path d="M36.508 17H34.972V8.228H38.32C40.312 8.228 41.476 9.236 41.476 10.964C41.476 12.14 40.924 12.98 39.892 13.4L41.56 17H39.88L38.392 13.724H36.508V17ZM36.508 9.596V12.368H38.32C39.292 12.368 39.868 11.852 39.868 10.964C39.868 10.088 39.292 9.596 38.32 9.596H36.508ZM45.0252 17.156C43.2612 17.156 42.0252 15.872 42.0252 14.036C42.0252 12.176 43.2372 10.892 44.9772 10.892C46.7532 10.892 47.8812 12.08 47.8812 13.928V14.372L43.4172 14.384C43.5252 15.428 44.0772 15.956 45.0492 15.956C45.8532 15.956 46.3812 15.644 46.5492 15.08H47.9052C47.6532 16.376 46.5732 17.156 45.0252 17.156ZM44.9892 12.092C44.1252 12.092 43.5972 12.56 43.4532 13.448H46.4292C46.4292 12.632 45.8652 12.092 44.9892 12.092ZM48.7049 14.024C48.7049 12.188 49.9169 10.892 51.6689 10.892C53.2889 10.892 54.3929 11.792 54.5489 13.22H53.0849C52.9169 12.548 52.4249 12.2 51.7289 12.2C50.7929 12.2 50.1689 12.908 50.1689 14.024C50.1689 15.14 50.7449 15.836 51.6809 15.836C52.4129 15.836 52.9289 15.476 53.0849 14.828H54.5609C54.3809 16.208 53.2289 17.156 51.6809 17.156C49.8809 17.156 48.7049 15.908 48.7049 14.024ZM58.3025 17.156C56.5385 17.156 55.3025 15.872 55.3025 14.036C55.3025 12.176 56.5145 10.892 58.2545 10.892C60.0305 10.892 61.1585 12.08 61.1585 13.928V14.372L56.6945 14.384C56.8025 15.428 57.3545 15.956 58.3265 15.956C59.1305 15.956 59.6585 15.644 59.8265 15.08H61.1825C60.9305 16.376 59.8505 17.156 58.3025 17.156ZM58.2665 12.092C57.4025 12.092 56.8745 12.56 56.7305 13.448H59.7065C59.7065 12.632 59.1425 12.092 58.2665 12.092ZM63.0622 9.884C62.5582 9.884 62.1622 9.488 62.1622 8.996C62.1622 8.504 62.5582 8.12 63.0622 8.12C63.5422 8.12 63.9382 8.504 63.9382 8.996C63.9382 9.488 63.5422 9.884 63.0622 9.884ZM62.3302 17V11.072H63.7942V17H62.3302ZM65.3068 19.748V11.072H66.6628L66.7588 11.972C67.1188 11.288 67.8988 10.892 68.7988 10.892C70.4668 10.892 71.5708 12.104 71.5708 13.964C71.5708 15.812 70.5628 17.156 68.7988 17.156C67.9108 17.156 67.1428 16.808 66.7708 16.208V19.748H65.3068ZM66.7828 14.036C66.7828 15.104 67.4428 15.836 68.4508 15.836C69.4828 15.836 70.0948 15.092 70.0948 14.036C70.0948 12.98 69.4828 12.224 68.4508 12.224C67.4428 12.224 66.7828 12.968 66.7828 14.036ZM74.6939 17H73.2299V12.296H72.0899V11.072H73.2299V9.224H74.6939V11.072H75.8459V12.296H74.6939V17ZM76.5096 14.444V13.148H80.3736V14.444H76.5096ZM84.5174 17.156C82.7534 17.156 81.5174 15.872 81.5174 14.036C81.5174 12.176 82.7294 10.892 84.4694 10.892C86.2454 10.892 87.3734 12.08 87.3734 13.928V14.372L82.9094 14.384C83.0174 15.428 83.5694 15.956 84.5414 15.956C85.3454 15.956 85.8734 15.644 86.0414 15.08H87.3974C87.1454 16.376 86.0654 17.156 84.5174 17.156ZM84.4814 12.092C83.6174 12.092 83.0894 12.56 82.9454 13.448H85.9214C85.9214 12.632 85.3574 12.092 84.4814 12.092ZM90.9811 17.156C89.2651 17.156 88.1971 15.896 88.1971 14.06C88.1971 12.212 89.2771 10.892 91.0651 10.892C91.8931 10.892 92.6251 11.24 92.9971 11.828V8.072H94.4491V17H93.1051L93.0091 16.076C92.6491 16.76 91.8811 17.156 90.9811 17.156ZM91.3051 15.812C92.3251 15.812 92.9851 15.08 92.9851 14.012C92.9851 12.944 92.3251 12.2 91.3051 12.2C90.2851 12.2 89.6611 12.956 89.6611 14.012C89.6611 15.068 90.2851 15.812 91.3051 15.812ZM96.7068 9.884C96.2028 9.884 95.8068 9.488 95.8068 8.996C95.8068 8.504 96.2028 8.12 96.7068 8.12C97.1868 8.12 97.5828 8.504 97.5828 8.996C97.5828 9.488 97.1868 9.884 96.7068 9.884ZM95.9748 17V11.072H97.4388V17H95.9748ZM100.967 17H99.5033V12.296H98.3633V11.072H99.5033V9.224H100.967V11.072H102.119V12.296H100.967V17Z" fill="black"/>
</svg>
