<svg width="200" height="24" viewBox="0 0 200 24" fill="none" xmlns="http://www.w3.org/2000/svg">
<path opacity="0.4" d="M22 12C22 17.47 17.61 21.91 12.16 22H12C11.39 22 10.79 21.94 10.21 21.84C5.54 20.99 2 16.91 2 12C2 10.29 2.43 8.68 3.19 7.27C3.5 6.7 3.86 6.15 4.27 5.65C6.11 3.42 8.89 2 12 2C15.56 2 18.68 3.86 20.45 6.66C20.8 7.21 21.1 7.8 21.34 8.42C21.77 9.53 22 10.74 22 12Z" fill="#1A1A1A"/>
<path d="M15.1 8.02002C17.18 7.85002 19.27 7.98002 21.34 8.42002C21.1 7.80002 20.8 7.21002 20.45 6.66002C17.58 6.19002 14.68 6.28002 11.82 6.90002C9.39 6.98002 7.41 8.78002 7.04 11.13C5.88 9.45002 4.94 7.62002 4.27 5.65002C3.86 6.15002 3.5 6.70002 3.19 7.27002C4.25 9.96002 5.74 12.36 7.65 14.47C7.67 14.49 7.7 14.5 7.72 14.52C8.63 15.99 10.24 16.9 11.97 16.9C12.58 16.9 13.17 16.78 13.72 16.57C12.81 18.48 11.65 20.25 10.21 21.84C10.79 21.94 11.39 22 12 22H12.16C14.01 19.74 15.41 17.18 16.35 14.3C16.76 13.56 16.98 12.73 16.98 11.89C16.98 10.32 16.24 8.94002 15.1 8.02002ZM14.93 13.61C14.33 14.66 13.19 15.32 11.97 15.32C10.75 15.32 9.62 14.66 9.01 13.61C8.7 13.07 8.55 12.5 8.55 11.89C8.55 10 10.08 8.47002 11.97 8.47002C13.86 8.47002 15.4 10 15.4 11.89C15.4 12.5 15.24 13.07 14.93 13.61Z" fill="#1A1A1A"/>
<path d="M38.68 16.144C36.124 16.144 34.468 14.368 34.468 11.62C34.468 8.896 36.184 7.084 38.752 7.084C40.828 7.084 42.376 8.296 42.676 10.18H41.056C40.756 9.16 39.88 8.56 38.716 8.56C37.096 8.56 36.076 9.736 36.076 11.608C36.076 13.468 37.108 14.668 38.716 14.668C39.904 14.668 40.816 14.044 41.104 13.072H42.7C42.364 14.92 40.756 16.144 38.68 16.144ZM45.2669 16H43.8029V7.072H45.2789V10.84C45.6509 10.264 46.3469 9.892 47.1989 9.892C48.6629 9.892 49.4309 10.816 49.4309 12.352V16H47.9669V12.7C47.9669 11.704 47.4749 11.224 46.7309 11.224C45.8069 11.224 45.2669 11.872 45.2669 12.76V16ZM54.5893 10.048V11.404H54.0493C52.9933 11.404 52.3333 11.968 52.3333 13.12V16H50.8693V10.084H52.2493L52.3333 10.948C52.5853 10.36 53.1493 9.964 53.9413 9.964C54.1453 9.964 54.3493 9.988 54.5893 10.048ZM55.033 13.024C55.033 11.176 56.365 9.904 58.201 9.904C60.037 9.904 61.369 11.176 61.369 13.024C61.369 14.872 60.037 16.144 58.201 16.144C56.365 16.144 55.033 14.872 55.033 13.024ZM56.497 13.024C56.497 14.104 57.193 14.836 58.201 14.836C59.209 14.836 59.905 14.104 59.905 13.024C59.905 11.944 59.209 11.212 58.201 11.212C57.193 11.212 56.497 11.944 56.497 13.024ZM63.9934 16H62.5294V10.072H63.8734L63.9934 10.768C64.2934 10.276 64.8934 9.892 65.7454 9.892C66.6454 9.892 67.2694 10.336 67.5814 11.02C67.8814 10.336 68.5774 9.892 69.4774 9.892C70.9174 9.892 71.7094 10.756 71.7094 12.124V16H70.2574V12.508C70.2574 11.656 69.8014 11.212 69.1054 11.212C68.3974 11.212 67.8574 11.668 67.8574 12.64V16H66.3934V12.496C66.3934 11.668 65.9494 11.224 65.2534 11.224C64.5574 11.224 63.9934 11.68 63.9934 12.64V16ZM75.7986 16.156C74.0346 16.156 72.7986 14.872 72.7986 13.036C72.7986 11.176 74.0106 9.892 75.7506 9.892C77.5266 9.892 78.6546 11.08 78.6546 12.928V13.372L74.1906 13.384C74.2986 14.428 74.8506 14.956 75.8226 14.956C76.6266 14.956 77.1546 14.644 77.3226 14.08H78.6786C78.4266 15.376 77.3466 16.156 75.7986 16.156ZM75.7626 11.092C74.8986 11.092 74.3706 11.56 74.2266 12.448H77.2026C77.2026 11.632 76.6386 11.092 75.7626 11.092Z" fill="black"/>
</svg>
