<svg width="132" height="24" viewBox="0 0 132 24" fill="none" xmlns="http://www.w3.org/2000/svg">
<path opacity="0.4" d="M12 22C17.5228 22 22 17.5228 22 12C22 6.47715 17.5228 2 12 2C6.47715 2 2 6.47715 2 12C2 17.5228 6.47715 22 12 22Z" fill="#1A1A1A"/>
<path d="M8.31976 16.02C8.12976 16.02 7.93977 15.95 7.78977 15.8C7.49977 15.51 7.49977 15.03 7.78977 14.74L14.3398 8.19003C14.6298 7.90003 15.1098 7.90003 15.3998 8.19003C15.6898 8.48003 15.6898 8.96003 15.3998 9.25003L8.84976 15.8C8.69976 15.95 8.50976 16.02 8.31976 16.02Z" fill="#1A1A1A"/>
<path d="M8.73001 7.66003C7.92001 7.66003 7.25 8.32005 7.25 9.14005C7.25 9.95005 7.91001 10.62 8.73001 10.62C9.54001 10.62 10.21 9.96005 10.21 9.14005C10.2 8.32005 9.54001 7.66003 8.73001 7.66003Z" fill="#1A1A1A"/>
<path d="M15.27 13.39C14.46 13.39 13.79 14.05 13.79 14.87C13.79 15.68 14.45 16.35 15.27 16.35C16.08 16.35 16.75 15.69 16.75 14.87C16.75 14.05 16.09 13.39 15.27 13.39Z" fill="#1A1A1A"/>
<path d="M38.812 8.524C37.072 8.524 36.076 9.784 36.076 11.68C36.076 13.636 37.204 14.704 38.824 14.704C40.348 14.704 41.272 13.864 41.272 12.46V12.424H38.62V11.068H42.7V16H41.404L41.308 14.992C40.828 15.664 39.832 16.132 38.644 16.132C36.184 16.132 34.468 14.344 34.468 11.644C34.468 8.98 36.208 7.084 38.848 7.084C40.852 7.084 42.4 8.248 42.652 10.036H41.032C40.756 9.004 39.868 8.524 38.812 8.524ZM47.8627 10.048V11.404H47.3227C46.2667 11.404 45.6067 11.968 45.6067 13.12V16H44.1427V10.084H45.5227L45.6067 10.948C45.8587 10.36 46.4227 9.964 47.2147 9.964C47.4187 9.964 47.6227 9.988 47.8627 10.048ZM48.3064 13.024C48.3064 11.176 49.6384 9.904 51.4744 9.904C53.3104 9.904 54.6424 11.176 54.6424 13.024C54.6424 14.872 53.3104 16.144 51.4744 16.144C49.6384 16.144 48.3064 14.872 48.3064 13.024ZM49.7704 13.024C49.7704 14.104 50.4664 14.836 51.4744 14.836C52.4824 14.836 53.1784 14.104 53.1784 13.024C53.1784 11.944 52.4824 11.212 51.4744 11.212C50.4664 11.212 49.7704 11.944 49.7704 13.024ZM59.6823 10.072H61.1463V16H59.7903L59.6823 15.208C59.3223 15.772 58.5543 16.156 57.7623 16.156C56.3943 16.156 55.5903 15.232 55.5903 13.78V10.072H57.0543V13.264C57.0543 14.392 57.4983 14.848 58.3143 14.848C59.2383 14.848 59.6823 14.308 59.6823 13.18V10.072ZM62.6583 18.748V10.072H64.0143L64.1103 10.972C64.4703 10.288 65.2503 9.892 66.1503 9.892C67.8183 9.892 68.9223 11.104 68.9223 12.964C68.9223 14.812 67.9143 16.156 66.1503 16.156C65.2623 16.156 64.4943 15.808 64.1223 15.208V18.748H62.6583ZM64.1343 13.036C64.1343 14.104 64.7943 14.836 65.8023 14.836C66.8343 14.836 67.4463 14.092 67.4463 13.036C67.4463 11.98 66.8343 11.224 65.8023 11.224C64.7943 11.224 64.1343 11.968 64.1343 13.036Z" fill="black"/>
</svg>
