<svg width="200" height="24" viewBox="0 0 200 24" fill="none" xmlns="http://www.w3.org/2000/svg">
<path d="M20.54 19.04C20.39 19.19 20.2 19.26 20.01 19.26C19.82 19.26 19.63 19.19 19.48 19.04L14.53 14.09L15.06 13.56L15.59 13.03L20.54 17.98C20.83 18.27 20.83 18.75 20.54 19.04Z" fill="#1A1A1A"/>
<path opacity="0.4" d="M6.46999 9.27997L12.27 15.08C12.66 15.47 12.66 16.1 12.27 16.49L11.37 17.4C10.56 18.2 9.27998 18.2 8.47998 17.4L4.13999 13.06C3.34999 12.27 3.34999 10.98 4.13999 10.18L5.04999 9.26997C5.43999 8.88997 6.07999 8.88997 6.46999 9.27997Z" fill="#1A1A1A"/>
<path d="M18.59 10.1899L14.78 13.9899C14.38 14.3899 13.74 14.3899 13.34 13.9899L7.57002 8.21994C7.17002 7.81994 7.17002 7.17994 7.57002 6.77994L11.38 2.96994C12.17 2.17994 13.46 2.17994 14.26 2.96994L18.6 7.30994C19.38 8.09994 19.38 9.37994 18.59 10.1899Z" fill="#1A1A1A"/>
<path d="M8 21.75H2C1.59 21.75 1.25 21.41 1.25 21C1.25 20.59 1.59 20.25 2 20.25H8C8.41 20.25 8.75 20.59 8.75 21C8.75 21.41 8.41 21.75 8 21.75Z" fill="#1A1A1A"/>
<path d="M34.24 13.528V13.012H35.716V13.528C35.716 14.2 36.088 14.728 36.952 14.728C37.816 14.728 38.176 14.236 38.176 13.468V7.228H39.712V13.552C39.712 15.1 38.632 16.156 36.964 16.156C35.164 16.156 34.24 15.04 34.24 13.528ZM45.3971 10.072H46.8611V16H45.5051L45.3971 15.208C45.0371 15.772 44.2691 16.156 43.4771 16.156C42.1091 16.156 41.3051 15.232 41.3051 13.78V10.072H42.7691V13.264C42.7691 14.392 43.2131 14.848 44.0291 14.848C44.9531 14.848 45.3971 14.308 45.3971 13.18V10.072ZM50.692 16.156C48.976 16.156 47.908 14.896 47.908 13.06C47.908 11.212 48.988 9.892 50.776 9.892C51.604 9.892 52.336 10.24 52.708 10.828V7.072H54.16V16H52.816L52.72 15.076C52.36 15.76 51.592 16.156 50.692 16.156ZM51.016 14.812C52.036 14.812 52.696 14.08 52.696 13.012C52.696 11.944 52.036 11.2 51.016 11.2C49.996 11.2 49.372 11.956 49.372 13.012C49.372 14.068 49.996 14.812 51.016 14.812ZM55.3497 12.904C55.3497 11.176 56.4777 9.88 58.1697 9.88C59.0577 9.88 59.7537 10.252 60.1017 10.888L60.1857 10.072H61.5417V15.7C61.5417 17.68 60.3537 18.916 58.4337 18.916C56.7297 18.916 55.5657 17.944 55.3857 16.36H56.8497C56.9457 17.128 57.5337 17.584 58.4337 17.584C59.4417 17.584 60.0897 16.948 60.0897 15.964V14.98C59.7177 15.532 58.9857 15.88 58.1337 15.88C56.4537 15.88 55.3497 14.62 55.3497 12.904ZM56.8257 12.868C56.8257 13.864 57.4617 14.608 58.4217 14.608C59.4297 14.608 60.0537 13.9 60.0537 12.868C60.0537 11.86 59.4417 11.164 58.4217 11.164C57.4497 11.164 56.8257 11.896 56.8257 12.868ZM65.7088 16.156C63.9448 16.156 62.7088 14.872 62.7088 13.036C62.7088 11.176 63.9208 9.892 65.6608 9.892C67.4368 9.892 68.5648 11.08 68.5648 12.928V13.372L64.1008 13.384C64.2088 14.428 64.7608 14.956 65.7328 14.956C66.5368 14.956 67.0648 14.644 67.2328 14.08H68.5888C68.3368 15.376 67.2568 16.156 65.7088 16.156ZM65.6728 11.092C64.8088 11.092 64.2808 11.56 64.1368 12.448H67.1128C67.1128 11.632 66.5488 11.092 65.6728 11.092Z" fill="black"/>
</svg>
