<svg width="100" height="24" viewBox="0 0 100 24" fill="none" xmlns="http://www.w3.org/2000/svg">
<path d="M19.38 15.98V17.02C19.38 18.61 18.78 19.25 17.26 19.25H5.38V13.75H17.26C18.78 13.75 19.38 14.39 19.38 15.98Z" fill="#1A1A1A"/>
<path opacity="0.4" d="M14.38 7.48V8.52C14.38 10.11 13.77 10.75 12.26 10.75H5.38V5.25H12.26C13.77 5.25 14.38 5.89 14.38 7.48Z" fill="#1A1A1A"/>
<path d="M5.37998 22C4.96998 22 4.62998 21.66 4.62998 21.25V2.75C4.61998 2.33 4.95998 2 5.37998 2C5.79998 2 6.12998 2.34 6.12998 2.75V21.25C6.11998 21.66 5.78998 22 5.37998 22Z" fill="#1A1A1A"/>
<path d="M34.728 16H33.132L36.3 7.228H37.872L41.04 16H39.42L38.712 13.972H35.436L34.728 16ZM36.888 9.844L35.892 12.676H38.268L37.26 9.844C37.188 9.616 37.104 9.352 37.08 9.172C37.044 9.34 36.972 9.604 36.888 9.844ZM43.4 16H41.948V7.072H43.4V16ZM45.6677 8.884C45.1637 8.884 44.7677 8.488 44.7677 7.996C44.7677 7.504 45.1637 7.12 45.6677 7.12C46.1477 7.12 46.5437 7.504 46.5437 7.996C46.5437 8.488 46.1477 8.884 45.6677 8.884ZM44.9357 16V10.072H46.3997V16H44.9357ZM47.5763 12.904C47.5763 11.176 48.7043 9.88 50.3963 9.88C51.2843 9.88 51.9803 10.252 52.3283 10.888L52.4123 10.072H53.7682V15.7C53.7682 17.68 52.5803 18.916 50.6603 18.916C48.9563 18.916 47.7923 17.944 47.6123 16.36H49.0763C49.1723 17.128 49.7603 17.584 50.6603 17.584C51.6683 17.584 52.3163 16.948 52.3163 15.964V14.98C51.9443 15.532 51.2123 15.88 50.3603 15.88C48.6803 15.88 47.5763 14.62 47.5763 12.904ZM49.0523 12.868C49.0523 13.864 49.6883 14.608 50.6483 14.608C51.6563 14.608 52.2803 13.9 52.2803 12.868C52.2803 11.86 51.6683 11.164 50.6483 11.164C49.6763 11.164 49.0523 11.896 49.0523 12.868ZM56.7473 16H55.2833V10.072H56.6393L56.7593 10.84C57.1313 10.24 57.8513 9.892 58.6553 9.892C60.1433 9.892 60.9113 10.816 60.9113 12.352V16H59.4473V12.7C59.4473 11.704 58.9553 11.224 58.1993 11.224C57.2993 11.224 56.7473 11.848 56.7473 12.808V16ZM62.3378 13.444V12.148H66.2018V13.444H62.3378ZM69.1695 16H67.7175V7.072H69.1695V16ZM73.3572 16.156C71.5932 16.156 70.3572 14.872 70.3572 13.036C70.3572 11.176 71.5692 9.892 73.3092 9.892C75.0852 9.892 76.2132 11.08 76.2132 12.928V13.372L71.7492 13.384C71.8572 14.428 72.4092 14.956 73.3812 14.956C74.1852 14.956 74.7132 14.644 74.8812 14.08H76.2372C75.9852 15.376 74.9052 16.156 73.3572 16.156ZM73.3212 11.092C72.4572 11.092 71.9292 11.56 71.7852 12.448H74.7612C74.7612 11.632 74.1972 11.092 73.3212 11.092ZM76.7969 10.072H77.6489V9.352C77.6489 7.744 78.4889 7.072 79.6889 7.072C79.9169 7.072 80.1929 7.084 80.4449 7.132V8.38H79.9289C79.2689 8.38 79.1009 8.764 79.1009 9.352V10.072H81.5969V8.224H83.0609V10.072H84.2129V11.296H83.0609V16H81.5969V11.296H79.1009V16H77.6489V11.296H76.7969V10.072Z" fill="black"/>
</svg>
