<svg width="130" height="24" viewBox="0 0 130 24" fill="none" xmlns="http://www.w3.org/2000/svg">
<path opacity="0.4" d="M22 7.42993V13.4299C22 14.9299 21.5 16.1799 20.62 17.0599C19.75 17.9299 18.5 18.4299 17 18.4299V20.5599C17 21.3599 16.11 21.84 15.45 21.4L11 18.4299H8.88C8.96 18.1299 9 17.8199 9 17.4999C9 16.4799 8.61 15.54 7.97 14.83C7.25 14.01 6.18 13.4999 5 13.4999C3.88 13.4999 2.86 13.96 2.13 14.71C2.04 14.31 2 13.8799 2 13.4299V7.42993C2 4.42993 4 2.42993 7 2.42993H17C20 2.42993 22 4.42993 22 7.42993Z" fill="#1A1A1A"/>
<path d="M15.5 11.25H8.5C8.09 11.25 7.75 10.91 7.75 10.5C7.75 10.09 8.09 9.75 8.5 9.75H15.5C15.91 9.75 16.25 10.09 16.25 10.5C16.25 10.91 15.91 11.25 15.5 11.25Z" fill="#1A1A1A"/>
<path d="M7.97 14.83C7.25 14.01 6.18 13.5 5 13.5C2.79 13.5 1 15.29 1 17.5C1 18.25 1.20999 18.96 1.57999 19.56C1.77999 19.9 2.04 20.21 2.34 20.47C3.04 21.11 3.97 21.5 5 21.5C6.46 21.5 7.73001 20.72 8.42001 19.56C8.79001 18.96 9 18.25 9 17.5C9 16.48 8.61 15.54 7.97 14.83ZM6.60001 19.08C6.45001 19.23 6.26001 19.3 6.07001 19.3C5.88001 19.3 5.69001 19.23 5.54001 19.08L5.01001 18.55L4.45999 19.1C4.30999 19.25 4.11999 19.32 3.92999 19.32C3.73999 19.32 3.54999 19.25 3.39999 19.1C3.10999 18.81 3.10999 18.33 3.39999 18.04L3.95001 17.49L3.42001 16.96C3.13001 16.67 3.13001 16.19 3.42001 15.9C3.71001 15.61 4.19001 15.61 4.48001 15.9L5.01001 16.43L5.51001 15.93C5.80001 15.64 6.28001 15.64 6.57001 15.93C6.86001 16.22 6.86001 16.7 6.57001 16.99L6.07001 17.49L6.60001 18.02C6.89001 18.31 6.89001 18.78 6.60001 19.08Z" fill="#1A1A1A"/>
<path d="M36.46 17H34.972V8.228H36.46L39.292 15.212L42.124 8.228H43.636V17H42.148V14.3C42.148 12.536 42.148 12.02 42.232 11.396L40 17H38.584L36.364 11.408C36.448 11.936 36.46 12.764 36.46 13.856V17ZM48.0135 17.156C46.2495 17.156 45.0135 15.872 45.0135 14.036C45.0135 12.176 46.2255 10.892 47.9655 10.892C49.7415 10.892 50.8695 12.08 50.8695 13.928V14.372L46.4055 14.384C46.5135 15.428 47.0655 15.956 48.0375 15.956C48.8415 15.956 49.3695 15.644 49.5375 15.08H50.8935C50.6415 16.376 49.5615 17.156 48.0135 17.156ZM47.9775 12.092C47.1135 12.092 46.5855 12.56 46.4415 13.448H49.4175C49.4175 12.632 48.8535 12.092 47.9775 12.092ZM51.5852 15.2H52.9772C52.9892 15.716 53.3732 16.04 54.0452 16.04C54.7292 16.04 55.1012 15.764 55.1012 15.332C55.1012 15.032 54.9452 14.816 54.4172 14.696L53.3492 14.444C52.2812 14.204 51.7652 13.7 51.7652 12.752C51.7652 11.588 52.7492 10.892 54.1172 10.892C55.4492 10.892 56.3492 11.66 56.3612 12.812H54.9692C54.9572 12.308 54.6212 11.984 54.0572 11.984C53.4812 11.984 53.1452 12.248 53.1452 12.692C53.1452 13.028 53.4092 13.244 53.9132 13.364L54.9812 13.616C55.9772 13.844 56.4812 14.3 56.4812 15.212C56.4812 16.412 55.4612 17.156 53.9972 17.156C52.5212 17.156 51.5852 16.364 51.5852 15.2ZM57.1398 15.2H58.5318C58.5438 15.716 58.9278 16.04 59.5998 16.04C60.2838 16.04 60.6558 15.764 60.6558 15.332C60.6558 15.032 60.4998 14.816 59.9718 14.696L58.9038 14.444C57.8358 14.204 57.3198 13.7 57.3198 12.752C57.3198 11.588 58.3038 10.892 59.6718 10.892C61.0038 10.892 61.9038 11.66 61.9158 12.812H60.5238C60.5118 12.308 60.1758 11.984 59.6118 11.984C59.0358 11.984 58.6998 12.248 58.6998 12.692C58.6998 13.028 58.9638 13.244 59.4678 13.364L60.5358 13.616C61.5318 13.844 62.0358 14.3 62.0358 15.212C62.0358 16.412 61.0158 17.156 59.5518 17.156C58.0758 17.156 57.1398 16.364 57.1398 15.2ZM64.9145 17.156C63.6545 17.156 62.8865 16.424 62.8865 15.308C62.8865 14.216 63.6785 13.532 65.0825 13.424L66.8585 13.292V13.16C66.8585 12.356 66.3785 12.032 65.6345 12.032C64.7705 12.032 64.2905 12.392 64.2905 13.016H63.0425C63.0425 11.732 64.0985 10.892 65.7065 10.892C67.3025 10.892 68.2865 11.756 68.2865 13.4V17H67.0025L66.8945 16.124C66.6425 16.736 65.8385 17.156 64.9145 17.156ZM65.3945 16.052C66.2945 16.052 66.8705 15.512 66.8705 14.6V14.288L65.6345 14.384C64.7225 14.468 64.3745 14.768 64.3745 15.248C64.3745 15.788 64.7345 16.052 65.3945 16.052ZM69.3888 13.904C69.3888 12.176 70.5168 10.88 72.2088 10.88C73.0968 10.88 73.7928 11.252 74.1408 11.888L74.2248 11.072H75.5807V16.7C75.5807 18.68 74.3928 19.916 72.4728 19.916C70.7688 19.916 69.6048 18.944 69.4248 17.36H70.8888C70.9848 18.128 71.5728 18.584 72.4728 18.584C73.4808 18.584 74.1288 17.948 74.1288 16.964V15.98C73.7568 16.532 73.0248 16.88 72.1728 16.88C70.4928 16.88 69.3888 15.62 69.3888 13.904ZM70.8648 13.868C70.8648 14.864 71.5008 15.608 72.4608 15.608C73.4688 15.608 74.0928 14.9 74.0928 13.868C74.0928 12.86 73.4808 12.164 72.4608 12.164C71.4888 12.164 70.8648 12.896 70.8648 13.868ZM79.7478 17.156C77.9838 17.156 76.7478 15.872 76.7478 14.036C76.7478 12.176 77.9598 10.892 79.6998 10.892C81.4758 10.892 82.6038 12.08 82.6038 13.928V14.372L78.1398 14.384C78.2478 15.428 78.7998 15.956 79.7718 15.956C80.5758 15.956 81.1038 15.644 81.2718 15.08H82.6278C82.3758 16.376 81.2958 17.156 79.7478 17.156ZM79.7118 12.092C78.8478 12.092 78.3198 12.56 78.1758 13.448H81.1518C81.1518 12.632 80.5878 12.092 79.7118 12.092ZM83.7635 14.444V13.148H87.6275V14.444H83.7635ZM92.8393 11.048V12.404H92.2993C91.2433 12.404 90.5833 12.968 90.5833 14.12V17H89.1193V11.084H90.4993L90.5833 11.948C90.8353 11.36 91.3993 10.964 92.1913 10.964C92.3953 10.964 92.5993 10.988 92.8393 11.048ZM96.283 17.156C94.519 17.156 93.283 15.872 93.283 14.036C93.283 12.176 94.495 10.892 96.235 10.892C98.011 10.892 99.139 12.08 99.139 13.928V14.372L94.675 14.384C94.783 15.428 95.335 15.956 96.307 15.956C97.111 15.956 97.639 15.644 97.807 15.08H99.163C98.911 16.376 97.831 17.156 96.283 17.156ZM96.247 12.092C95.383 12.092 94.855 12.56 94.711 13.448H97.687C97.687 12.632 97.123 12.092 96.247 12.092ZM101.775 17H100.311V11.072H101.655L101.775 11.768C102.075 11.276 102.675 10.892 103.527 10.892C104.427 10.892 105.051 11.336 105.363 12.02C105.663 11.336 106.359 10.892 107.259 10.892C108.699 10.892 109.491 11.756 109.491 13.124V17H108.039V13.508C108.039 12.656 107.583 12.212 106.887 12.212C106.179 12.212 105.639 12.668 105.639 13.64V17H104.175V13.496C104.175 12.668 103.731 12.224 103.035 12.224C102.339 12.224 101.775 12.68 101.775 13.64V17ZM110.58 14.024C110.58 12.176 111.912 10.904 113.748 10.904C115.584 10.904 116.916 12.176 116.916 14.024C116.916 15.872 115.584 17.144 113.748 17.144C111.912 17.144 110.58 15.872 110.58 14.024ZM112.044 14.024C112.044 15.104 112.74 15.836 113.748 15.836C114.756 15.836 115.452 15.104 115.452 14.024C115.452 12.944 114.756 12.212 113.748 12.212C112.74 12.212 112.044 12.944 112.044 14.024ZM119.463 17L117.111 11.072H118.671L119.703 13.796C119.955 14.504 120.159 15.116 120.231 15.44C120.315 15.068 120.531 14.444 120.783 13.796L121.863 11.072H123.375L120.903 17H119.463ZM126.576 17.156C124.812 17.156 123.576 15.872 123.576 14.036C123.576 12.176 124.788 10.892 126.528 10.892C128.304 10.892 129.432 12.08 129.432 13.928V14.372L124.968 14.384C125.076 15.428 125.628 15.956 126.6 15.956C127.404 15.956 127.932 15.644 128.1 15.08H129.456C129.204 16.376 128.124 17.156 126.576 17.156ZM126.54 12.092C125.676 12.092 125.148 12.56 125.004 13.448H127.98C127.98 12.632 127.416 12.092 126.54 12.092Z" fill="black"/>
</svg>
