<svg width="143" height="24" viewBox="0 0 143 24" fill="none" xmlns="http://www.w3.org/2000/svg">
<path opacity="0.4" d="M12 22C17.5228 22 22 17.5228 22 12C22 6.47715 17.5228 2 12 2C6.47715 2 2 6.47715 2 12C2 17.5228 6.47715 22 12 22Z" fill="#1A1A1A"/>
<path d="M15.8109 7.21997H14.3209C13.2309 7.21997 12.3809 8.06997 12.3809 9.15997V10.65C12.3809 11.74 13.2309 12.59 14.3209 12.59H16.2309C16.1509 14.4 15.7309 14.67 14.5209 15.38C14.1609 15.59 14.0508 16.05 14.2608 16.41C14.4008 16.65 14.6509 16.78 14.9109 16.78C15.0409 16.78 15.1708 16.75 15.2908 16.68C17.0808 15.62 17.7509 14.93 17.7509 11.85V9.17999C17.7509 8.08999 16.8809 7.21997 15.8109 7.21997Z" fill="#1A1A1A"/>
<path d="M9.67999 7.21997H8.19C7.1 7.21997 6.25 8.06997 6.25 9.15997V10.65C6.25 11.74 7.1 12.59 8.19 12.59H10.1C10.02 14.4 9.6 14.67 8.39 15.38C8.03 15.59 7.92 16.05 8.13 16.41C8.27 16.65 8.52 16.78 8.78 16.78C8.91 16.78 9.04 16.75 9.16 16.68C10.95 15.62 11.62 14.93 11.62 11.85V9.17999C11.61 8.08999 10.74 7.21997 9.67999 7.21997Z" fill="#1A1A1A"/>
<path d="M41.86 17.66L40.9 16.58C40.276 16.94 39.532 17.144 38.704 17.144C36.196 17.144 34.468 15.284 34.468 12.608C34.468 9.944 36.208 8.072 38.716 8.072C41.224 8.072 42.976 9.932 42.976 12.608C42.976 13.868 42.592 14.948 41.908 15.74L42.844 16.784L41.86 17.66ZM41.356 12.608C41.356 10.736 40.324 9.548 38.716 9.548C37.108 9.548 36.076 10.736 36.076 12.608C36.076 14.48 37.108 15.668 38.716 15.668C39.148 15.668 39.532 15.584 39.88 15.416L38.716 14.108L39.688 13.232L40.852 14.54C41.176 14.036 41.356 13.376 41.356 12.608ZM48.2096 11.072H49.6736V17H48.3176L48.2096 16.208C47.8496 16.772 47.0816 17.156 46.2896 17.156C44.9216 17.156 44.1176 16.232 44.1176 14.78V11.072H45.5816V14.264C45.5816 15.392 46.0256 15.848 46.8416 15.848C47.7656 15.848 48.2096 15.308 48.2096 14.18V11.072ZM50.7205 14.024C50.7205 12.176 52.0525 10.904 53.8885 10.904C55.7245 10.904 57.0565 12.176 57.0565 14.024C57.0565 15.872 55.7245 17.144 53.8885 17.144C52.0525 17.144 50.7205 15.872 50.7205 14.024ZM52.1845 14.024C52.1845 15.104 52.8805 15.836 53.8885 15.836C54.8965 15.836 55.5925 15.104 55.5925 14.024C55.5925 12.944 54.8965 12.212 53.8885 12.212C52.8805 12.212 52.1845 12.944 52.1845 14.024ZM60.1743 17H58.7103V12.296H57.5703V11.072H58.7103V9.224H60.1743V11.072H61.3263V12.296H60.1743V17ZM64.8299 17.156C63.0659 17.156 61.8299 15.872 61.8299 14.036C61.8299 12.176 63.0419 10.892 64.7819 10.892C66.5579 10.892 67.6859 12.08 67.6859 13.928V14.372L63.2219 14.384C63.3299 15.428 63.8819 15.956 64.8539 15.956C65.6579 15.956 66.1859 15.644 66.3539 15.08H67.7099C67.4579 16.376 66.3779 17.156 64.8299 17.156ZM64.7939 12.092C63.9299 12.092 63.4019 12.56 63.2579 13.448H66.2339C66.2339 12.632 65.6699 12.092 64.7939 12.092ZM68.8456 14.444V13.148H72.7096V14.444H68.8456ZM78.2213 11.072H79.6853V17H78.3293L78.2213 16.208C77.8613 16.772 77.0933 17.156 76.3013 17.156C74.9333 17.156 74.1293 16.232 74.1293 14.78V11.072H75.5933V14.264C75.5933 15.392 76.0373 15.848 76.8533 15.848C77.7773 15.848 78.2213 15.308 78.2213 14.18V11.072ZM81.1974 19.748V11.072H82.5534L82.6494 11.972C83.0094 11.288 83.7894 10.892 84.6894 10.892C86.3574 10.892 87.4614 12.104 87.4614 13.964C87.4614 15.812 86.4534 17.156 84.6894 17.156C83.8014 17.156 83.0334 16.808 82.6614 16.208V19.748H81.1974ZM82.6734 14.036C82.6734 15.104 83.3334 15.836 84.3414 15.836C85.3734 15.836 85.9854 15.092 85.9854 14.036C85.9854 12.98 85.3734 12.224 84.3414 12.224C83.3334 12.224 82.6734 12.968 82.6734 14.036ZM88.6151 14.444V13.148H92.4791V14.444H88.6151ZM93.6228 14.024C93.6228 12.188 94.8348 10.892 96.5868 10.892C98.2068 10.892 99.3108 11.792 99.4668 13.22H98.0028C97.8348 12.548 97.3428 12.2 96.6468 12.2C95.7108 12.2 95.0868 12.908 95.0868 14.024C95.0868 15.14 95.6628 15.836 96.5988 15.836C97.3308 15.836 97.8468 15.476 98.0028 14.828H99.4788C99.2988 16.208 98.1468 17.156 96.5988 17.156C94.7988 17.156 93.6228 15.908 93.6228 14.024ZM101.301 9.884C100.797 9.884 100.401 9.488 100.401 8.996C100.401 8.504 100.797 8.12 101.301 8.12C101.781 8.12 102.177 8.504 102.177 8.996C102.177 9.488 101.781 9.884 101.301 9.884ZM100.569 17V11.072H102.033V17H100.569ZM107.265 11.048V12.404H106.725C105.669 12.404 105.009 12.968 105.009 14.12V17H103.545V11.084H104.925L105.009 11.948C105.261 11.36 105.825 10.964 106.617 10.964C106.821 10.964 107.025 10.988 107.265 11.048ZM107.709 14.024C107.709 12.188 108.921 10.892 110.673 10.892C112.293 10.892 113.397 11.792 113.553 13.22H112.089C111.921 12.548 111.429 12.2 110.733 12.2C109.797 12.2 109.173 12.908 109.173 14.024C109.173 15.14 109.749 15.836 110.685 15.836C111.417 15.836 111.933 15.476 112.089 14.828H113.565C113.385 16.208 112.233 17.156 110.685 17.156C108.885 17.156 107.709 15.908 107.709 14.024ZM116.13 17H114.678V8.072H116.13V17ZM120.318 17.156C118.554 17.156 117.318 15.872 117.318 14.036C117.318 12.176 118.53 10.892 120.27 10.892C122.046 10.892 123.174 12.08 123.174 13.928V14.372L118.71 14.384C118.818 15.428 119.37 15.956 120.342 15.956C121.146 15.956 121.674 15.644 121.842 15.08H123.198C122.946 16.376 121.866 17.156 120.318 17.156ZM120.282 12.092C119.418 12.092 118.89 12.56 118.746 13.448H121.722C121.722 12.632 121.158 12.092 120.282 12.092Z" fill="black"/>
</svg>
