<svg width="101" height="24" viewBox="0 0 101 24" fill="none" xmlns="http://www.w3.org/2000/svg">
<path opacity="0.4" d="M12 22C17.5228 22 22 17.5228 22 12C22 6.47715 17.5228 2 12 2C6.47715 2 2 6.47715 2 12C2 17.5228 6.47715 22 12 22Z" fill="#1A1A1A"/>
<path d="M12 6H10C8.9 6 8 6.9 8 8C8 9.1 8.9 10 10 10H12V6Z" fill="#1A1A1A"/>
<path opacity="0.4" d="M12 10H10C8.9 10 8 10.9 8 12C8 13.1 8.9 14 10 14H12V10Z" fill="#1A1A1A"/>
<path d="M12 14H10C8.9 14 8 14.9 8 16C8 17.1 8.9 18 10 18C11.1 18 12 17.1 12 16V14Z" fill="#1A1A1A"/>
<path opacity="0.4" d="M12 6H14C15.1 6 16 6.9 16 8C16 9.1 15.1 10 14 10H12V6Z" fill="#1A1A1A"/>
<path d="M14 10C15.1 10 16 10.9 16 12C16 13.1 15.1 14 14 14C12.9 14 12 13.1 12 12C12 10.9 12.9 10 14 10Z" fill="#1A1A1A"/>
<path d="M39.772 12.412H36.508V16H34.972V7.228H40.396V8.644H36.508V11.032H39.772V12.412ZM42.2966 8.884C41.7926 8.884 41.3966 8.488 41.3966 7.996C41.3966 7.504 41.7926 7.12 42.2966 7.12C42.7766 7.12 43.1726 7.504 43.1726 7.996C43.1726 8.488 42.7766 8.884 42.2966 8.884ZM41.5646 16V10.072H43.0286V16H41.5646ZM44.2052 12.904C44.2052 11.176 45.3332 9.88 47.0252 9.88C47.9132 9.88 48.6092 10.252 48.9572 10.888L49.0412 10.072H50.3972V15.7C50.3972 17.68 49.2092 18.916 47.2892 18.916C45.5852 18.916 44.4212 17.944 44.2412 16.36H45.7052C45.8012 17.128 46.3892 17.584 47.2892 17.584C48.2972 17.584 48.9452 16.948 48.9452 15.964V14.98C48.5732 15.532 47.8412 15.88 46.9892 15.88C45.3092 15.88 44.2052 14.62 44.2052 12.904ZM45.6812 12.868C45.6812 13.864 46.3172 14.608 47.2772 14.608C48.2852 14.608 48.9092 13.9 48.9092 12.868C48.9092 11.86 48.2972 11.164 47.2772 11.164C46.3052 11.164 45.6812 11.896 45.6812 12.868ZM53.3763 16H51.9123V10.072H53.2563L53.3763 10.768C53.6763 10.276 54.2763 9.892 55.1283 9.892C56.0283 9.892 56.6523 10.336 56.9643 11.02C57.2643 10.336 57.9603 9.892 58.8603 9.892C60.3003 9.892 61.0923 10.756 61.0923 12.124V16H59.6403V12.508C59.6403 11.656 59.1843 11.212 58.4883 11.212C57.7803 11.212 57.2403 11.668 57.2403 12.64V16H55.7763V12.496C55.7763 11.668 55.3323 11.224 54.6363 11.224C53.9403 11.224 53.3763 11.68 53.3763 12.64V16ZM64.2934 16.156C63.0334 16.156 62.2654 15.424 62.2654 14.308C62.2654 13.216 63.0574 12.532 64.4614 12.424L66.2374 12.292V12.16C66.2374 11.356 65.7574 11.032 65.0134 11.032C64.1494 11.032 63.6694 11.392 63.6694 12.016H62.4214C62.4214 10.732 63.4774 9.892 65.0854 9.892C66.6814 9.892 67.6654 10.756 67.6654 12.4V16H66.3814L66.2734 15.124C66.0214 15.736 65.2174 16.156 64.2934 16.156ZM64.7734 15.052C65.6734 15.052 66.2494 14.512 66.2494 13.6V13.288L65.0134 13.384C64.1014 13.468 63.7534 13.768 63.7534 14.248C63.7534 14.788 64.1134 15.052 64.7734 15.052ZM69.0917 13.444V12.148H72.9557V13.444H69.0917ZM79.554 15.988L73.47 16V14.848L76.338 12.424C77.526 11.416 77.922 10.84 77.922 10C77.922 9.004 77.382 8.44 76.458 8.44C75.498 8.44 74.898 9.112 74.886 10.24H73.362C73.374 8.32 74.598 7.072 76.458 7.072C78.33 7.072 79.494 8.14 79.494 9.916C79.494 11.14 78.822 12.064 77.49 13.204L75.906 14.56H79.554V15.988Z" fill="black"/>
</svg>
