<svg width="101" height="24" viewBox="0 0 101 24" fill="none" xmlns="http://www.w3.org/2000/svg">
<path d="M12 18.75C11.59 18.75 11.25 18.41 11.25 18V17C11.25 16.59 11.59 16.25 12 16.25C12.41 16.25 12.75 16.59 12.75 17V18C12.75 18.41 12.41 18.75 12 18.75Z" fill="#1A1A1A"/>
<path d="M12 22.75C11.59 22.75 11.25 22.41 11.25 22V21C11.25 20.59 11.59 20.25 12 20.25C12.41 20.25 12.75 20.59 12.75 21V22C12.75 22.41 12.41 22.75 12 22.75Z" fill="#1A1A1A"/>
<path d="M2.00009 22.7501C1.94009 22.7501 1.8801 22.7401 1.8201 22.7301C1.4201 22.6301 1.1701 22.2201 1.2701 21.8201L2.2701 17.8201C2.3701 17.4201 2.77009 17.1701 3.18009 17.2701C3.58009 17.3701 3.83009 17.7801 3.73009 18.1801L2.73009 22.1801C2.64009 22.5201 2.34009 22.7501 2.00009 22.7501Z" fill="#1A1A1A"/>
<path d="M21.9997 22.7502C21.6597 22.7502 21.3597 22.5202 21.2697 22.1802L20.2697 18.1802C20.1697 17.7802 20.4097 17.3702 20.8197 17.2702C21.2197 17.1702 21.6297 17.4102 21.7297 17.8202L22.7297 21.8202C22.8297 22.2202 22.5897 22.6302 22.1797 22.7302C22.1197 22.7402 22.0597 22.7502 21.9997 22.7502Z" fill="#1A1A1A"/>
<path opacity="0.4" d="M19.2602 9.51984C19.1502 8.33984 18.8402 7.08984 16.5502 7.08984H7.45024C5.16024 7.08984 4.85024 8.34984 4.74024 9.51984L4.34024 13.8598C4.29024 14.3998 4.47024 14.9398 4.84024 15.3498C5.22024 15.7598 5.76025 15.9998 6.32025 15.9998H7.66024C8.81024 15.9998 9.03023 15.3398 9.18023 14.8998L9.32025 14.4698C9.48025 13.9798 9.52024 13.8598 10.1702 13.8598H13.8202C14.4602 13.8598 14.4802 13.9298 14.6702 14.4698L14.8102 14.8998C14.9602 15.3398 15.1802 15.9998 16.3302 15.9998H17.6702C18.2302 15.9998 18.7702 15.7598 19.1502 15.3498C19.5202 14.9498 19.7002 14.3998 19.6502 13.8598L19.2602 9.51984Z" fill="#1A1A1A"/>
<path d="M18.4198 4.94H17.7098C17.6998 4.94 17.6998 4.94 17.6998 4.94L17.4298 3.65002C17.1698 2.40002 16.6398 1.25 14.5098 1.25H12.5398H11.4698H9.4998C7.3698 1.25 6.8398 2.40002 6.5798 3.65002L6.3098 4.94C6.2998 4.94 6.2998 4.94 6.2998 4.94H5.5898C5.2898 4.94 5.0498 5.17998 5.0498 5.47998C5.0498 5.77998 5.2898 6.02002 5.5898 6.02002H6.09981L5.7998 7.45001C6.1898 7.23001 6.71981 7.09003 7.45981 7.09003H16.5598C17.2998 7.09003 17.8398 7.23001 18.2198 7.45001L17.9198 6.02002H18.4298C18.7298 6.02002 18.9698 5.77998 18.9698 5.47998C18.9598 5.17998 18.7198 4.94 18.4198 4.94Z" fill="#1A1A1A"/>
<path d="M9.86067 11.0102H7.72067C7.42067 11.0102 7.18066 10.7702 7.18066 10.4702C7.18066 10.1702 7.42067 9.93018 7.72067 9.93018H9.86067C10.1607 9.93018 10.4007 10.1702 10.4007 10.4702C10.3907 10.7702 10.1507 11.0102 9.86067 11.0102Z" fill="#1A1A1A"/>
<path d="M16.2806 11.0102H14.1406C13.8406 11.0102 13.6006 10.7702 13.6006 10.4702C13.6006 10.1702 13.8406 9.93018 14.1406 9.93018H16.2806C16.5806 9.93018 16.8206 10.1702 16.8206 10.4702C16.8206 10.7702 16.5806 11.0102 16.2806 11.0102Z" fill="#1A1A1A"/>
<path d="M38.128 16H34.972V7.228H38.044C40.636 7.228 42.424 9.016 42.424 11.632C42.424 14.212 40.672 16 38.128 16ZM37.9 8.644H36.508V14.584H37.984C39.736 14.584 40.804 13.456 40.804 11.632C40.804 9.772 39.712 8.644 37.9 8.644ZM47.3588 10.048V11.404H46.8188C45.7628 11.404 45.1028 11.968 45.1028 13.12V16H43.6388V10.084H45.0188L45.1028 10.948C45.3548 10.36 45.9188 9.964 46.7108 9.964C46.9148 9.964 47.1188 9.988 47.3588 10.048ZM49.0818 8.884C48.5778 8.884 48.1818 8.488 48.1818 7.996C48.1818 7.504 48.5778 7.12 49.0818 7.12C49.5618 7.12 49.9578 7.504 49.9578 7.996C49.9578 8.488 49.5618 8.884 49.0818 8.884ZM48.3498 16V10.072H49.8138V16H48.3498ZM53.0063 16L50.6543 10.072H52.2143L53.2463 12.796C53.4983 13.504 53.7023 14.116 53.7743 14.44C53.8583 14.068 54.0743 13.444 54.3263 12.796L55.4063 10.072H56.9183L54.4463 16H53.0063ZM58.4919 8.884C57.9879 8.884 57.5919 8.488 57.5919 7.996C57.5919 7.504 57.9879 7.12 58.4919 7.12C58.9719 7.12 59.3679 7.504 59.3679 7.996C59.3679 8.488 58.9719 8.884 58.4919 8.884ZM57.7599 16V10.072H59.2239V16H57.7599ZM62.2005 16H60.7365V10.072H62.0925L62.2125 10.84C62.5845 10.24 63.3045 9.892 64.1085 9.892C65.5965 9.892 66.3645 10.816 66.3645 12.352V16H64.9005V12.7C64.9005 11.704 64.4085 11.224 63.6525 11.224C62.7525 11.224 62.2005 11.848 62.2005 12.808V16ZM67.4669 12.904C67.4669 11.176 68.5949 9.88 70.2869 9.88C71.1749 9.88 71.8709 10.252 72.2189 10.888L72.3029 10.072H73.6589V15.7C73.6589 17.68 72.4709 18.916 70.5509 18.916C68.8469 18.916 67.6829 17.944 67.5029 16.36H68.9669C69.0629 17.128 69.6509 17.584 70.5509 17.584C71.5589 17.584 72.2069 16.948 72.2069 15.964V14.98C71.8349 15.532 71.1029 15.88 70.2509 15.88C68.5709 15.88 67.4669 14.62 67.4669 12.904ZM68.9429 12.868C68.9429 13.864 69.5789 14.608 70.5389 14.608C71.5469 14.608 72.1709 13.9 72.1709 12.868C72.1709 11.86 71.5589 11.164 70.5389 11.164C69.5669 11.164 68.9429 11.896 68.9429 12.868Z" fill="black"/>
</svg>
