<svg width="147" height="24" viewBox="0 0 147 24" fill="none" xmlns="http://www.w3.org/2000/svg">
<path opacity="0.4" d="M16.19 2H7.82002C4.18002 2 2.01001 4.17 2.01001 7.81V16.18C2.01001 19.82 4.18002 21.99 7.82002 21.99H16.19C19.83 21.99 22 19.82 22 16.18V7.81C22 4.17 19.83 2 16.19 2Z" fill="#1A1A1A"/>
<path d="M9.17009 14.0899C9.36009 14.0899 9.55009 14.0199 9.70009 13.8699L14.0801 9.48992V11.9199C14.0801 12.3299 14.4201 12.6699 14.8301 12.6699C15.2401 12.6699 15.5801 12.3299 15.5801 11.9199V7.67992C15.5801 7.57992 15.5601 7.48992 15.5201 7.38992C15.4401 7.20992 15.3001 7.05993 15.1101 6.97993C15.0201 6.93993 14.9201 6.91992 14.8201 6.91992H10.5801C10.1701 6.91992 9.83009 7.25992 9.83009 7.66992C9.83009 8.07992 10.1701 8.41992 10.5801 8.41992H13.0101L8.6301 12.7999C8.3401 13.0899 8.3401 13.5699 8.6301 13.8599C8.7901 14.0199 8.98009 14.0899 9.17009 14.0899Z" fill="#1A1A1A"/>
<path d="M18.7101 16.28C18.5801 15.89 18.1601 15.68 17.7601 15.81C14.0401 17.05 9.95005 17.05 6.23005 15.81C5.84005 15.68 5.41006 15.89 5.28006 16.28C5.15006 16.67 5.36006 17.1 5.75006 17.23C7.76006 17.9 9.87006 18.24 11.9901 18.24C14.1101 18.24 16.2201 17.9 18.2301 17.23C18.6301 17.09 18.8401 16.67 18.7101 16.28Z" fill="#1A1A1A"/>
<path d="M34.468 10.676C34.468 9.14 35.74 8.072 37.588 8.072C39.364 8.072 40.492 9.056 40.54 10.64H39.004C38.968 9.884 38.428 9.44 37.564 9.44C36.616 9.44 36.004 9.896 36.004 10.628C36.004 11.252 36.34 11.6 37.072 11.768L38.452 12.068C39.952 12.392 40.684 13.16 40.684 14.468C40.684 16.1 39.412 17.156 37.48 17.156C35.608 17.156 34.384 16.16 34.348 14.588H35.884C35.896 15.332 36.496 15.776 37.48 15.776C38.5 15.776 39.148 15.332 39.148 14.6C39.148 14.012 38.848 13.664 38.128 13.508L36.736 13.196C35.248 12.872 34.468 12.02 34.468 10.676ZM44.5096 17.156C42.7456 17.156 41.5096 15.872 41.5096 14.036C41.5096 12.176 42.7216 10.892 44.4616 10.892C46.2376 10.892 47.3656 12.08 47.3656 13.928V14.372L42.9016 14.384C43.0096 15.428 43.5616 15.956 44.5336 15.956C45.3376 15.956 45.8656 15.644 46.0336 15.08H47.3896C47.1376 16.376 46.0576 17.156 44.5096 17.156ZM44.4736 12.092C43.6096 12.092 43.0816 12.56 42.9376 13.448H45.9136C45.9136 12.632 45.3496 12.092 44.4736 12.092ZM50.0013 17H48.5373V11.072H49.8933L50.0133 11.84C50.3853 11.24 51.1053 10.892 51.9093 10.892C53.3973 10.892 54.1653 11.816 54.1653 13.352V17H52.7013V13.7C52.7013 12.704 52.2093 12.224 51.4533 12.224C50.5533 12.224 50.0013 12.848 50.0013 13.808V17ZM58.0397 17.156C56.3237 17.156 55.2557 15.896 55.2557 14.06C55.2557 12.212 56.3357 10.892 58.1237 10.892C58.9517 10.892 59.6837 11.24 60.0557 11.828V8.072H61.5077V17H60.1637L60.0677 16.076C59.7077 16.76 58.9397 17.156 58.0397 17.156ZM58.3637 15.812C59.3837 15.812 60.0437 15.08 60.0437 14.012C60.0437 12.944 59.3837 12.2 58.3637 12.2C57.3437 12.2 56.7197 12.956 56.7197 14.012C56.7197 15.068 57.3437 15.812 58.3637 15.812ZM63.0213 14.444V13.148H66.8853V14.444H63.0213ZM67.8391 15.2H69.2311C69.2431 15.716 69.6271 16.04 70.2991 16.04C70.9831 16.04 71.3551 15.764 71.3551 15.332C71.3551 15.032 71.1991 14.816 70.6711 14.696L69.6031 14.444C68.5351 14.204 68.0191 13.7 68.0191 12.752C68.0191 11.588 69.0031 10.892 70.3711 10.892C71.7031 10.892 72.6031 11.66 72.6151 12.812H71.2231C71.2111 12.308 70.8751 11.984 70.3111 11.984C69.7351 11.984 69.3991 12.248 69.3991 12.692C69.3991 13.028 69.6631 13.244 70.1671 13.364L71.2351 13.616C72.2311 13.844 72.7351 14.3 72.7351 15.212C72.7351 16.412 71.7151 17.156 70.2511 17.156C68.7751 17.156 67.8391 16.364 67.8391 15.2ZM73.5018 13.964C73.5018 12.104 74.6058 10.892 76.2738 10.892C77.1738 10.892 77.9538 11.288 78.3138 11.972L78.4098 11.072H79.7538V19.748H78.3018V16.208C77.9298 16.808 77.1498 17.156 76.2738 17.156C74.5098 17.156 73.5018 15.812 73.5018 13.964ZM74.9658 14.036C74.9658 15.092 75.5898 15.836 76.6098 15.836C77.6298 15.836 78.2898 15.104 78.2898 14.036C78.2898 12.968 77.6298 12.224 76.6098 12.224C75.5898 12.224 74.9658 12.98 74.9658 14.036ZM83.0434 17.156C81.7834 17.156 81.0154 16.424 81.0154 15.308C81.0154 14.216 81.8074 13.532 83.2114 13.424L84.9874 13.292V13.16C84.9874 12.356 84.5074 12.032 83.7634 12.032C82.8994 12.032 82.4194 12.392 82.4194 13.016H81.1714C81.1714 11.732 82.2274 10.892 83.8354 10.892C85.4314 10.892 86.4154 11.756 86.4154 13.4V17H85.1314L85.0234 16.124C84.7714 16.736 83.9674 17.156 83.0434 17.156ZM83.5234 16.052C84.4234 16.052 84.9994 15.512 84.9994 14.6V14.288L83.7634 14.384C82.8514 14.468 82.5034 14.768 82.5034 15.248C82.5034 15.788 82.8634 16.052 83.5234 16.052ZM91.8737 11.072H93.3377V17H91.9817L91.8737 16.208C91.5137 16.772 90.7457 17.156 89.9537 17.156C88.5857 17.156 87.7817 16.232 87.7817 14.78V11.072H89.2457V14.264C89.2457 15.392 89.6897 15.848 90.5057 15.848C91.4297 15.848 91.8737 15.308 91.8737 14.18V11.072ZM98.5698 11.048V12.404H98.0298C96.9738 12.404 96.3138 12.968 96.3138 14.12V17H94.8498V11.084H96.2298L96.3138 11.948C96.5658 11.36 97.1298 10.964 97.9218 10.964C98.1258 10.964 98.3298 10.988 98.5698 11.048ZM102.013 17.156C100.249 17.156 99.0135 15.872 99.0135 14.036C99.0135 12.176 100.225 10.892 101.965 10.892C103.741 10.892 104.869 12.08 104.869 13.928V14.372L100.405 14.384C100.513 15.428 101.065 15.956 102.037 15.956C102.841 15.956 103.369 15.644 103.537 15.08H104.893C104.641 16.376 103.561 17.156 102.013 17.156ZM101.977 12.092C101.113 12.092 100.585 12.56 100.441 13.448H103.417C103.417 12.632 102.853 12.092 101.977 12.092ZM106.029 14.444V13.148H109.893V14.444H106.029ZM116.491 16.988L110.407 17V15.848L113.275 13.424C114.463 12.416 114.859 11.84 114.859 11C114.859 10.004 114.319 9.44 113.395 9.44C112.435 9.44 111.835 10.112 111.823 11.24H110.299C110.311 9.32 111.535 8.072 113.395 8.072C115.267 8.072 116.431 9.14 116.431 10.916C116.431 12.14 115.759 13.064 114.427 14.204L112.843 15.56H116.491V16.988Z" fill="black"/>
</svg>
