<svg width="101" height="24" viewBox="0 0 101 24" fill="none" xmlns="http://www.w3.org/2000/svg">
<path d="M9.32006 13.2805H12.4101V20.4805C12.4101 21.5405 13.7301 22.0405 14.4301 21.2405L22.0001 12.6405C22.6601 11.8905 22.1301 10.7205 21.1301 10.7205H18.0401V3.52046C18.0401 2.46046 16.7201 1.96046 16.0201 2.76046L8.45006 11.3605C7.80006 12.1105 8.33006 13.2805 9.32006 13.2805Z" fill="#1A1A1A"/>
<path opacity="0.4" d="M8.5 4.75H1.5C1.09 4.75 0.75 4.41 0.75 4C0.75 3.59 1.09 3.25 1.5 3.25H8.5C8.91 3.25 9.25 3.59 9.25 4C9.25 4.41 8.91 4.75 8.5 4.75Z" fill="#1A1A1A"/>
<path opacity="0.4" d="M7.5 20.75H1.5C1.09 20.75 0.75 20.41 0.75 20C0.75 19.59 1.09 19.25 1.5 19.25H7.5C7.91 19.25 8.25 19.59 8.25 20C8.25 20.41 7.91 20.75 7.5 20.75Z" fill="#1A1A1A"/>
<path opacity="0.4" d="M4.5 12.75H1.5C1.09 12.75 0.75 12.41 0.75 12C0.75 11.59 1.09 11.25 1.5 11.25H4.5C4.91 11.25 5.25 11.59 5.25 12C5.25 12.41 4.91 12.75 4.5 12.75Z" fill="#1A1A1A"/>
<path d="M39.772 12.412H36.508V16H34.972V7.228H40.396V8.644H36.508V11.032H39.772V12.412ZM43.0406 16H41.5886V7.072H43.0406V16ZM46.3403 16.156C45.0803 16.156 44.3123 15.424 44.3123 14.308C44.3123 13.216 45.1043 12.532 46.5083 12.424L48.2843 12.292V12.16C48.2843 11.356 47.8043 11.032 47.0603 11.032C46.1963 11.032 45.7163 11.392 45.7163 12.016H44.4683C44.4683 10.732 45.5243 9.892 47.1323 9.892C48.7283 9.892 49.7123 10.756 49.7123 12.4V16H48.4283L48.3203 15.124C48.0683 15.736 47.2643 16.156 46.3403 16.156ZM46.8203 15.052C47.7203 15.052 48.2963 14.512 48.2963 13.6V13.288L47.0603 13.384C46.1483 13.468 45.8003 13.768 45.8003 14.248C45.8003 14.788 46.1603 15.052 46.8203 15.052ZM50.6945 14.2H52.0865C52.0985 14.716 52.4825 15.04 53.1545 15.04C53.8385 15.04 54.2105 14.764 54.2105 14.332C54.2105 14.032 54.0545 13.816 53.5265 13.696L52.4585 13.444C51.3905 13.204 50.8745 12.7 50.8745 11.752C50.8745 10.588 51.8585 9.892 53.2265 9.892C54.5585 9.892 55.4585 10.66 55.4705 11.812H54.0785C54.0665 11.308 53.7305 10.984 53.1665 10.984C52.5905 10.984 52.2545 11.248 52.2545 11.692C52.2545 12.028 52.5185 12.244 53.0225 12.364L54.0905 12.616C55.0865 12.844 55.5905 13.3 55.5905 14.212C55.5905 15.412 54.5705 16.156 53.1065 16.156C51.6305 16.156 50.6945 15.364 50.6945 14.2ZM58.1692 16H56.7052V7.072H58.1812V10.84C58.5532 10.264 59.2492 9.892 60.1012 9.892C61.5652 9.892 62.3332 10.816 62.3332 12.352V16H60.8692V12.7C60.8692 11.704 60.3772 11.224 59.6332 11.224C58.7092 11.224 58.1692 11.872 58.1692 12.76V16Z" fill="black"/>
</svg>
