<svg width="116" height="24" viewBox="0 0 116 24" fill="none" xmlns="http://www.w3.org/2000/svg">
<path opacity="0.4" d="M16.19 2H7.81C4.17 2 2 4.17 2 7.81V16.18C2 19.83 4.17 22 7.81 22H16.18C19.82 22 21.99 19.83 21.99 16.19V7.81C22 4.17 19.83 2 16.19 2Z" fill="#1A1A1A"/>
<path d="M17.3403 8.21002C14.0003 6.54002 10.0103 6.54002 6.67026 8.21002C6.29026 8.40002 6.14026 8.85002 6.33026 9.22002C6.46026 9.48002 6.73026 9.63002 7.00026 9.63002C7.11026 9.63002 7.23026 9.60002 7.34026 9.55002C8.57026 8.94002 9.90026 8.60002 11.2503 8.50002V16.29C11.2503 16.7 11.5903 17.04 12.0003 17.04C12.4103 17.04 12.7503 16.7 12.7503 16.29V8.50002C14.1003 8.60002 15.4303 8.94002 16.6603 9.55002C17.0303 9.73002 17.4803 9.59002 17.6703 9.21002C17.8603 8.85002 17.7103 8.40002 17.3403 8.21002Z" fill="#1A1A1A"/>
<path d="M34.204 8.644V7.228H40.876V8.644H38.308V16H36.772V8.644H34.204ZM43.4783 16.156C41.7143 16.156 40.4783 14.872 40.4783 13.036C40.4783 11.176 41.6903 9.892 43.4303 9.892C45.2063 9.892 46.3343 11.08 46.3343 12.928V13.372L41.8703 13.384C41.9783 14.428 42.5303 14.956 43.5023 14.956C44.3063 14.956 44.8343 14.644 45.0023 14.08H46.3583C46.1063 15.376 45.0263 16.156 43.4783 16.156ZM43.4423 11.092C42.5783 11.092 42.0503 11.56 41.9063 12.448H44.8823C44.8823 11.632 44.3183 11.092 43.4423 11.092ZM48.2685 16H46.6005L48.6405 13.096L46.6005 10.072H48.3045L49.6125 12.088L50.8725 10.072H52.5165L50.5005 13.072L52.4565 16H50.7765L49.5165 14.044L48.2685 16ZM55.6392 16H54.1752V11.296H53.0352V10.072H54.1752V8.224H55.6392V10.072H56.7912V11.296H55.6392V16ZM57.4549 13.444V12.148H61.3189V13.444H57.4549ZM64.1667 16H62.8107V7.072H64.2747V10.936C64.6587 10.276 65.4507 9.88 66.3507 9.88C68.0427 9.88 69.0747 11.2 69.0747 13.072C69.0747 14.896 67.9587 16.156 66.2547 16.156C65.3667 16.156 64.6107 15.76 64.2627 15.076L64.1667 16ZM64.2867 13.012C64.2867 14.08 64.9467 14.812 65.9547 14.812C66.9867 14.812 67.5987 14.068 67.5987 13.012C67.5987 11.956 66.9867 11.2 65.9547 11.2C64.9467 11.2 64.2867 11.944 64.2867 13.012ZM71.7164 16H70.2644V7.072H71.7164V16ZM72.9041 13.024C72.9041 11.176 74.2361 9.904 76.0721 9.904C77.9081 9.904 79.2401 11.176 79.2401 13.024C79.2401 14.872 77.9081 16.144 76.0721 16.144C74.2361 16.144 72.9041 14.872 72.9041 13.024ZM74.3681 13.024C74.3681 14.104 75.0641 14.836 76.0721 14.836C77.0801 14.836 77.7761 14.104 77.7761 13.024C77.7761 11.944 77.0801 11.212 76.0721 11.212C75.0641 11.212 74.3681 11.944 74.3681 13.024ZM80.0525 13.024C80.0525 11.188 81.2645 9.892 83.0165 9.892C84.6365 9.892 85.7405 10.792 85.8965 12.22H84.4325C84.2645 11.548 83.7725 11.2 83.0765 11.2C82.1405 11.2 81.5165 11.908 81.5165 13.024C81.5165 14.14 82.0925 14.836 83.0285 14.836C83.7605 14.836 84.2765 14.476 84.4325 13.828H85.9085C85.7285 15.208 84.5765 16.156 83.0285 16.156C81.2285 16.156 80.0525 14.908 80.0525 13.024ZM88.4742 16H87.0222V7.072H88.4742V12.556L90.7782 10.072H92.6142L90.3582 12.424L92.5662 16H90.8862L89.3382 13.504L88.4742 14.404V16Z" fill="black"/>
</svg>
