<svg width="101" height="24" viewBox="0 0 101 24" fill="none" xmlns="http://www.w3.org/2000/svg">
<path opacity="0.4" d="M8.55998 3.33984V17.6698C8.21998 17.6798 7.87998 17.7598 7.62998 17.9098L5.27998 19.2498C3.63998 20.1898 2.28998 19.4098 2.28998 17.5098V7.77984C2.28998 7.14984 2.73998 6.36984 3.29998 6.04984L7.62998 3.56984C7.87998 3.42984 8.21998 3.34984 8.55998 3.33984Z" fill="#1A1A1A"/>
<path d="M15.73 6.32994V20.6599C15.38 20.6699 15.04 20.6099 14.77 20.4799L9.52 17.8499C9.25 17.7199 8.91 17.6599 8.56 17.6699V3.33994C8.91 3.32994 9.25 3.38994 9.52 3.51994L14.77 6.14994C15.04 6.27994 15.38 6.33994 15.73 6.32994Z" fill="#1A1A1A"/>
<path opacity="0.4" d="M22 6.49006V16.2201C22 16.8501 21.55 17.6301 20.99 17.9501L16.66 20.4301C16.41 20.5701 16.07 20.6501 15.73 20.6601V6.33006C16.07 6.32006 16.41 6.24006 16.66 6.09006L19.01 4.75006C20.65 3.81006 22 4.59006 22 6.49006Z" fill="#1A1A1A"/>
<path d="M36.46 16H34.972V7.228H36.46L39.292 14.212L42.124 7.228H43.636V16H42.148V13.3C42.148 11.536 42.148 11.02 42.232 10.396L40 16H38.584L36.364 10.408C36.448 10.936 36.46 11.764 36.46 12.856V16ZM47.1255 16.156C45.8655 16.156 45.0975 15.424 45.0975 14.308C45.0975 13.216 45.8895 12.532 47.2935 12.424L49.0695 12.292V12.16C49.0695 11.356 48.5895 11.032 47.8455 11.032C46.9815 11.032 46.5015 11.392 46.5015 12.016H45.2535C45.2535 10.732 46.3095 9.892 47.9175 9.892C49.5135 9.892 50.4975 10.756 50.4975 12.4V16H49.2135L49.1055 15.124C48.8535 15.736 48.0495 16.156 47.1255 16.156ZM47.6055 15.052C48.5055 15.052 49.0815 14.512 49.0815 13.6V13.288L47.8455 13.384C46.9335 13.468 46.5855 13.768 46.5855 14.248C46.5855 14.788 46.9455 15.052 47.6055 15.052ZM51.9357 18.748V10.072H53.2917L53.3877 10.972C53.7477 10.288 54.5277 9.892 55.4277 9.892C57.0957 9.892 58.1997 11.104 58.1997 12.964C58.1997 14.812 57.1917 16.156 55.4277 16.156C54.5397 16.156 53.7717 15.808 53.3997 15.208V18.748H51.9357ZM53.4117 13.036C53.4117 14.104 54.0717 14.836 55.0797 14.836C56.1117 14.836 56.7237 14.092 56.7237 13.036C56.7237 11.98 56.1117 11.224 55.0797 11.224C54.0717 11.224 53.4117 11.968 53.4117 13.036ZM59.3534 13.444V12.148H63.2174V13.444H59.3534ZM69.8157 15.988L63.7317 16V14.848L66.5997 12.424C67.7877 11.416 68.1837 10.84 68.1837 10C68.1837 9.004 67.6437 8.44 66.7197 8.44C65.7597 8.44 65.1597 9.112 65.1477 10.24H63.6237C63.6357 8.32 64.8597 7.072 66.7197 7.072C68.5917 7.072 69.7557 8.14 69.7557 9.916C69.7557 11.14 69.0837 12.064 67.7517 13.204L66.1677 14.56H69.8157V15.988Z" fill="black"/>
</svg>
