<svg width="101" height="24" viewBox="0 0 101 24" fill="none" xmlns="http://www.w3.org/2000/svg">
<path d="M16.7502 3.56V2C16.7502 1.59 16.4102 1.25 16.0002 1.25C15.5902 1.25 15.2502 1.59 15.2502 2V3.5H8.75023V2C8.75023 1.59 8.41023 1.25 8.00023 1.25C7.59023 1.25 7.25023 1.59 7.25023 2V3.56C4.55023 3.81 3.24023 5.42 3.04023 7.81C3.02023 8.1 3.26023 8.34 3.54023 8.34H20.4602C20.7502 8.34 20.9902 8.09 20.9602 7.81C20.7602 5.42 19.4502 3.81 16.7502 3.56Z" fill="#1A1A1A"/>
<path opacity="0.4" d="M20 9.83984C20.55 9.83984 21 10.2898 21 10.8398V16.9998C21 19.9998 19.5 21.9998 16 21.9998H8C4.5 21.9998 3 19.9998 3 16.9998V10.8398C3 10.2898 3.45 9.83984 4 9.83984H20Z" fill="#1A1A1A"/>
<path d="M8.5 14.9999C8.24 14.9999 7.98 14.8899 7.79 14.7099C7.61 14.5199 7.5 14.2599 7.5 13.9999C7.5 13.7399 7.61 13.4799 7.79 13.2899C8.07 13.0099 8.51 12.9199 8.88 13.0799C9.01 13.1299 9.12 13.1999 9.21 13.2899C9.39 13.4799 9.5 13.7399 9.5 13.9999C9.5 14.2599 9.39 14.5199 9.21 14.7099C9.02 14.8899 8.76 14.9999 8.5 14.9999Z" fill="#1A1A1A"/>
<path d="M12 14.9999C11.74 14.9999 11.48 14.8899 11.29 14.7099C11.11 14.5199 11 14.2599 11 13.9999C11 13.7399 11.11 13.4799 11.29 13.2899C11.38 13.1999 11.49 13.1299 11.62 13.0799C11.99 12.9199 12.43 13.0099 12.71 13.2899C12.89 13.4799 13 13.7399 13 13.9999C13 14.2599 12.89 14.5199 12.71 14.7099C12.66 14.7499 12.61 14.7899 12.56 14.8299C12.5 14.8699 12.44 14.8999 12.38 14.9199C12.32 14.9499 12.26 14.9699 12.2 14.9799C12.13 14.9899 12.07 14.9999 12 14.9999Z" fill="#1A1A1A"/>
<path d="M15.5 15C15.24 15 14.98 14.89 14.79 14.71C14.61 14.52 14.5 14.26 14.5 14C14.5 13.74 14.61 13.48 14.79 13.29C14.89 13.2 14.99 13.13 15.12 13.08C15.3 13 15.5 12.98 15.7 13.02C15.76 13.03 15.82 13.05 15.88 13.08C15.94 13.1 16 13.13 16.06 13.17C16.11 13.21 16.16 13.25 16.21 13.29C16.39 13.48 16.5 13.74 16.5 14C16.5 14.26 16.39 14.52 16.21 14.71C16.16 14.75 16.11 14.79 16.06 14.83C16 14.87 15.94 14.9 15.88 14.92C15.82 14.95 15.76 14.97 15.7 14.98C15.63 14.99 15.56 15 15.5 15Z" fill="#1A1A1A"/>
<path d="M8.5 18.5C8.37 18.5 8.24 18.47 8.12 18.42C7.99 18.37 7.89 18.3 7.79 18.21C7.61 18.02 7.5 17.76 7.5 17.5C7.5 17.24 7.61 16.98 7.79 16.79C7.89 16.7 7.99 16.63 8.12 16.58C8.3 16.5 8.5 16.48 8.7 16.52C8.76 16.53 8.82 16.55 8.88 16.58C8.94 16.6 9 16.63 9.06 16.67C9.11 16.71 9.16 16.75 9.21 16.79C9.39 16.98 9.5 17.24 9.5 17.5C9.5 17.76 9.39 18.02 9.21 18.21C9.16 18.25 9.11 18.3 9.06 18.33C9 18.37 8.94 18.4 8.88 18.42C8.82 18.45 8.76 18.47 8.7 18.48C8.63 18.49 8.57 18.5 8.5 18.5Z" fill="#1A1A1A"/>
<path d="M12 18.5002C11.74 18.5002 11.48 18.3902 11.29 18.2102C11.11 18.0202 11 17.7602 11 17.5002C11 17.2402 11.11 16.9802 11.29 16.7902C11.66 16.4202 12.34 16.4202 12.71 16.7902C12.89 16.9802 13 17.2402 13 17.5002C13 17.7602 12.89 18.0202 12.71 18.2102C12.52 18.3902 12.26 18.5002 12 18.5002Z" fill="#1A1A1A"/>
<path d="M15.5 18.5002C15.24 18.5002 14.98 18.3902 14.79 18.2102C14.61 18.0202 14.5 17.7602 14.5 17.5002C14.5 17.2402 14.61 16.9802 14.79 16.7902C15.16 16.4202 15.84 16.4202 16.21 16.7902C16.39 16.9802 16.5 17.2402 16.5 17.5002C16.5 17.7602 16.39 18.0202 16.21 18.2102C16.02 18.3902 15.76 18.5002 15.5 18.5002Z" fill="#1A1A1A"/>
<path d="M38.68 16.144C36.124 16.144 34.468 14.368 34.468 11.62C34.468 8.896 36.184 7.084 38.752 7.084C40.828 7.084 42.376 8.296 42.676 10.18H41.056C40.756 9.16 39.88 8.56 38.716 8.56C37.096 8.56 36.076 9.736 36.076 11.608C36.076 13.468 37.108 14.668 38.716 14.668C39.904 14.668 40.816 14.044 41.104 13.072H42.7C42.364 14.92 40.756 16.144 38.68 16.144ZM45.5083 16.156C44.2483 16.156 43.4803 15.424 43.4803 14.308C43.4803 13.216 44.2723 12.532 45.6763 12.424L47.4523 12.292V12.16C47.4523 11.356 46.9723 11.032 46.2283 11.032C45.3643 11.032 44.8843 11.392 44.8843 12.016H43.6363C43.6363 10.732 44.6923 9.892 46.3003 9.892C47.8963 9.892 48.8803 10.756 48.8803 12.4V16H47.5963L47.4883 15.124C47.2363 15.736 46.4323 16.156 45.5083 16.156ZM45.9883 15.052C46.8883 15.052 47.4643 14.512 47.4643 13.6V13.288L46.2283 13.384C45.3163 13.468 44.9683 13.768 44.9683 14.248C44.9683 14.788 45.3283 15.052 45.9883 15.052ZM51.7945 16H50.3425V7.072H51.7945V16ZM55.9822 16.156C54.2182 16.156 52.9822 14.872 52.9822 13.036C52.9822 11.176 54.1942 9.892 55.9342 9.892C57.7102 9.892 58.8382 11.08 58.8382 12.928V13.372L54.3742 13.384C54.4822 14.428 55.0342 14.956 56.0062 14.956C56.8102 14.956 57.3382 14.644 57.5062 14.08H58.8622C58.6102 15.376 57.5302 16.156 55.9822 16.156ZM55.9462 11.092C55.0822 11.092 54.5542 11.56 54.4102 12.448H57.3862C57.3862 11.632 56.8222 11.092 55.9462 11.092ZM61.4739 16H60.0099V10.072H61.3659L61.4859 10.84C61.8579 10.24 62.5779 9.892 63.3819 9.892C64.8699 9.892 65.6379 10.816 65.6379 12.352V16H64.1739V12.7C64.1739 11.704 63.6819 11.224 62.9259 11.224C62.0259 11.224 61.4739 11.848 61.4739 12.808V16ZM69.5123 16.156C67.7963 16.156 66.7283 14.896 66.7283 13.06C66.7283 11.212 67.8083 9.892 69.5963 9.892C70.4243 9.892 71.1563 10.24 71.5283 10.828V7.072H72.9803V16H71.6363L71.5403 15.076C71.1803 15.76 70.4123 16.156 69.5123 16.156ZM69.8363 14.812C70.8563 14.812 71.5163 14.08 71.5163 13.012C71.5163 11.944 70.8563 11.2 69.8363 11.2C68.8163 11.2 68.1923 11.956 68.1923 13.012C68.1923 14.068 68.8163 14.812 69.8363 14.812ZM76.27 16.156C75.01 16.156 74.242 15.424 74.242 14.308C74.242 13.216 75.034 12.532 76.438 12.424L78.214 12.292V12.16C78.214 11.356 77.734 11.032 76.99 11.032C76.126 11.032 75.646 11.392 75.646 12.016H74.398C74.398 10.732 75.454 9.892 77.062 9.892C78.658 9.892 79.642 10.756 79.642 12.4V16H78.358L78.25 15.124C77.998 15.736 77.194 16.156 76.27 16.156ZM76.75 15.052C77.65 15.052 78.226 14.512 78.226 13.6V13.288L76.99 13.384C76.078 13.468 75.73 13.768 75.73 14.248C75.73 14.788 76.09 15.052 76.75 15.052ZM84.8002 10.048V11.404H84.2602C83.2042 11.404 82.5442 11.968 82.5442 13.12V16H81.0802V10.084H82.4602L82.5442 10.948C82.7962 10.36 83.3602 9.964 84.1522 9.964C84.3562 9.964 84.5602 9.988 84.8002 10.048Z" fill="black"/>
</svg>
