<svg width="101" height="24" viewBox="0 0 101 24" fill="none" xmlns="http://www.w3.org/2000/svg">
<path opacity="0.4" d="M19.88 20.9396C18.93 21.6396 17.68 21.9996 16.19 21.9996H7.80997C7.56997 21.9996 7.32998 21.9896 7.09998 21.9596L14 15.0596L19.88 20.9396Z" fill="#1A1A1A"/>
<path opacity="0.4" d="M22.0001 7.80961V16.1896C22.0001 17.6796 21.6401 18.9296 20.9401 19.8796L15.0601 13.9996L21.9601 7.09961C21.9901 7.32961 22.0001 7.56961 22.0001 7.80961Z" fill="#1A1A1A"/>
<path opacity="0.4" d="M15.06 14L20.94 19.88C20.65 20.3 20.3 20.65 19.88 20.94L14 15.06L7.10001 21.96C6.46001 21.92 5.88001 21.79 5.35001 21.59C3.21001 20.81 2 18.91 2 16.19V7.81C2 4.17 4.17 2 7.81 2H16.19C18.91 2 20.81 3.21 21.59 5.35C21.79 5.88 21.92 6.46 21.96 7.1L15.06 14Z" fill="#1A1A1A"/>
<path d="M15.06 13.9996L20.94 19.8796C20.65 20.2996 20.3 20.6496 19.88 20.9396L14 15.0596L7.09998 21.9596C6.45998 21.9196 5.87998 21.7896 5.34998 21.5896L5.73996 21.1996L21.59 5.34961C21.79 5.87961 21.92 6.45961 21.96 7.09961L15.06 13.9996Z" fill="#1A1A1A"/>
<path d="M12.24 7.93027C11.86 6.28027 10.4001 5.54027 9.12005 5.53027C7.84005 5.53027 6.38006 6.27027 6.00006 7.92027C5.58006 9.75027 6.70005 11.2803 7.71005 12.2403C8.11005 12.6203 8.61005 12.8003 9.12005 12.8003C9.63005 12.8003 10.1301 12.6103 10.5301 12.2403C11.5401 11.2803 12.66 9.75028 12.24 7.93027ZM9.15005 9.49027C8.60005 9.49027 8.15005 9.04027 8.15005 8.49027C8.15005 7.94027 8.59005 7.49027 9.15005 7.49027H9.16006C9.71006 7.49027 10.1601 7.94027 10.1601 8.49027C10.1601 9.04027 9.70005 9.49027 9.15005 9.49027Z" fill="#1A1A1A"/>
<path d="M36.46 16H34.972V7.228H36.46L39.292 14.212L42.124 7.228H43.636V16H42.148V13.3C42.148 11.536 42.148 11.02 42.232 10.396L40 16H38.584L36.364 10.408C36.448 10.936 36.46 11.764 36.46 12.856V16ZM47.1255 16.156C45.8655 16.156 45.0975 15.424 45.0975 14.308C45.0975 13.216 45.8895 12.532 47.2935 12.424L49.0695 12.292V12.16C49.0695 11.356 48.5895 11.032 47.8455 11.032C46.9815 11.032 46.5015 11.392 46.5015 12.016H45.2535C45.2535 10.732 46.3095 9.892 47.9175 9.892C49.5135 9.892 50.4975 10.756 50.4975 12.4V16H49.2135L49.1055 15.124C48.8535 15.736 48.0495 16.156 47.1255 16.156ZM47.6055 15.052C48.5055 15.052 49.0815 14.512 49.0815 13.6V13.288L47.8455 13.384C46.9335 13.468 46.5855 13.768 46.5855 14.248C46.5855 14.788 46.9455 15.052 47.6055 15.052ZM51.9357 18.748V10.072H53.2917L53.3877 10.972C53.7477 10.288 54.5277 9.892 55.4277 9.892C57.0957 9.892 58.1997 11.104 58.1997 12.964C58.1997 14.812 57.1917 16.156 55.4277 16.156C54.5397 16.156 53.7717 15.808 53.3997 15.208V18.748H51.9357ZM53.4117 13.036C53.4117 14.104 54.0717 14.836 55.0797 14.836C56.1117 14.836 56.7237 14.092 56.7237 13.036C56.7237 11.98 56.1117 11.224 55.0797 11.224C54.0717 11.224 53.4117 11.968 53.4117 13.036Z" fill="black"/>
</svg>
