<svg width="101" height="24" viewBox="0 0 101 24" fill="none" xmlns="http://www.w3.org/2000/svg">
<path opacity="0.4" d="M12 22C17.5228 22 22 17.5228 22 12C22 6.47715 17.5228 2 12 2C6.47715 2 2 6.47715 2 12C2 17.5228 6.47715 22 12 22Z" fill="#1A1A1A"/>
<path d="M15.7096 15.9298C15.5796 15.9298 15.4496 15.8998 15.3296 15.8198L12.2296 13.9698C11.4596 13.5098 10.8896 12.4998 10.8896 11.6098V7.50977C10.8896 7.09977 11.2296 6.75977 11.6396 6.75977C12.0496 6.75977 12.3896 7.09977 12.3896 7.50977V11.6098C12.3896 11.9698 12.6896 12.4998 12.9996 12.6798L16.0996 14.5298C16.4596 14.7398 16.5696 15.1998 16.3596 15.5598C16.2096 15.7998 15.9596 15.9298 15.7096 15.9298Z" fill="#1A1A1A"/>
<path d="M38.68 16.144C36.124 16.144 34.468 14.368 34.468 11.62C34.468 8.896 36.184 7.084 38.752 7.084C40.828 7.084 42.376 8.296 42.676 10.18H41.056C40.756 9.16 39.88 8.56 38.716 8.56C37.096 8.56 36.076 9.736 36.076 11.608C36.076 13.468 37.108 14.668 38.716 14.668C39.904 14.668 40.816 14.044 41.104 13.072H42.7C42.364 14.92 40.756 16.144 38.68 16.144ZM45.2789 16H43.8269V7.072H45.2789V16ZM46.4666 13.024C46.4666 11.176 47.7986 9.904 49.6346 9.904C51.4706 9.904 52.8026 11.176 52.8026 13.024C52.8026 14.872 51.4706 16.144 49.6346 16.144C47.7986 16.144 46.4666 14.872 46.4666 13.024ZM47.9306 13.024C47.9306 14.104 48.6266 14.836 49.6346 14.836C50.6426 14.836 51.3386 14.104 51.3386 13.024C51.3386 11.944 50.6426 11.212 49.6346 11.212C48.6266 11.212 47.9306 11.944 47.9306 13.024ZM53.615 13.024C53.615 11.188 54.827 9.892 56.579 9.892C58.199 9.892 59.303 10.792 59.459 12.22H57.995C57.827 11.548 57.335 11.2 56.639 11.2C55.703 11.2 55.079 11.908 55.079 13.024C55.079 14.14 55.655 14.836 56.591 14.836C57.323 14.836 57.839 14.476 57.995 13.828H59.471C59.291 15.208 58.139 16.156 56.591 16.156C54.791 16.156 53.615 14.908 53.615 13.024ZM62.0367 16H60.5847V7.072H62.0367V12.556L64.3407 10.072H66.1767L63.9207 12.424L66.1287 16H64.4487L62.9007 13.504L62.0367 14.404V16Z" fill="black"/>
</svg>
