<svg width="105" height="24" viewBox="0 0 105 24" fill="none" xmlns="http://www.w3.org/2000/svg">
<path opacity="0.4" d="M16.1898 2H7.81976C4.17976 2 2.00977 4.17 2.00977 7.81V16.18C2.00977 19.82 4.17976 21.99 7.81976 21.99H16.1898C19.8298 21.99 21.9998 19.82 21.9998 16.18V7.81C21.9998 4.17 19.8298 2 16.1898 2Z" fill="#1A1A1A"/>
<path d="M12.0796 18.9999C11.8496 18.9999 11.6696 18.9399 11.5696 18.8899C11.3396 18.7799 10.7996 18.4299 10.7996 17.4499V14.0599L7.8996 16.7099C7.5996 16.9899 7.1196 16.9699 6.8396 16.6599C6.5596 16.3499 6.57962 15.8799 6.88962 15.5999L10.7996 12.0199V11.9399L6.88962 8.39992C6.57962 8.11992 6.5596 7.64992 6.8396 7.33992C7.1196 7.02992 7.5896 7.00992 7.8996 7.28992L10.7996 9.93992V6.54993C10.7996 5.56993 11.3396 5.20992 11.5696 5.10992C11.7996 4.99992 12.4196 4.81992 13.1696 5.44992L15.5796 7.45993C15.9096 7.72993 16.0996 8.11992 16.1096 8.52992C16.1196 8.93992 15.9496 9.33993 15.6396 9.62993L13.0496 11.9999L15.6396 14.3699C15.9496 14.6599 16.1296 15.0599 16.1196 15.4699C16.1096 15.8799 15.9196 16.2699 15.5896 16.5399L13.1796 18.5499C12.7496 18.8999 12.3696 18.9999 12.0796 18.9999ZM12.2996 13.2999V17.3199L14.6096 15.3899L12.2996 13.2999ZM12.2996 6.67991V10.6399L14.6096 8.51993L12.2996 6.67991Z" fill="#1A1A1A"/>
<path d="M6.62024 13.3801C5.86024 13.3801 5.24023 12.7601 5.24023 12.0001C5.24023 11.2401 5.86024 10.6201 6.62024 10.6201C7.38024 10.6201 8.00024 11.2401 8.00024 12.0001C8.00024 12.7601 7.38024 13.3801 6.62024 13.3801ZM6.62024 11.8801C6.55024 11.8801 6.50024 11.9401 6.50024 12.0001C6.50024 12.1401 6.75024 12.1401 6.75024 12.0001C6.75024 11.9301 6.69024 11.8801 6.62024 11.8801Z" fill="#1A1A1A"/>
<path d="M17.38 13.3801C16.62 13.3801 16 12.7601 16 12.0001C16 11.2401 16.62 10.6201 17.38 10.6201C18.14 10.6201 18.76 11.2401 18.76 12.0001C18.76 12.7601 18.13 13.3801 17.38 13.3801ZM17.38 11.8801C17.31 11.8801 17.26 11.9401 17.26 12.0001C17.26 12.1401 17.51 12.1401 17.51 12.0001C17.5 11.9301 17.44 11.8801 17.38 11.8801Z" fill="#1A1A1A"/>
<path d="M34.972 16V7.228H38.464C40.192 7.228 41.248 8.128 41.248 9.592C41.248 10.564 40.816 11.26 39.988 11.608C40.912 11.908 41.38 12.604 41.38 13.624C41.38 15.124 40.336 16 38.524 16H34.972ZM38.332 8.584H36.508V10.972H38.368C39.208 10.972 39.676 10.528 39.676 9.748C39.676 8.992 39.196 8.584 38.332 8.584ZM38.464 12.268H36.508V14.644H38.464C39.328 14.644 39.808 14.224 39.808 13.432C39.808 12.688 39.316 12.268 38.464 12.268ZM44.0484 16H42.5964V7.072H44.0484V16ZM49.6041 10.072H51.0681V16H49.7121L49.6041 15.208C49.2441 15.772 48.4761 16.156 47.6841 16.156C46.3161 16.156 45.5121 15.232 45.5121 13.78V10.072H46.9761V13.264C46.9761 14.392 47.4201 14.848 48.2361 14.848C49.1601 14.848 49.6041 14.308 49.6041 13.18V10.072ZM55.115 16.156C53.351 16.156 52.115 14.872 52.115 13.036C52.115 11.176 53.327 9.892 55.067 9.892C56.843 9.892 57.971 11.08 57.971 12.928V13.372L53.507 13.384C53.615 14.428 54.167 14.956 55.139 14.956C55.943 14.956 56.471 14.644 56.639 14.08H57.995C57.743 15.376 56.663 16.156 55.115 16.156ZM55.079 11.092C54.215 11.092 53.687 11.56 53.543 12.448H56.519C56.519 11.632 55.955 11.092 55.079 11.092ZM61.1001 16H59.6361V11.296H58.4961V10.072H59.6361V8.224H61.1001V10.072H62.2521V11.296H61.1001V16ZM62.7557 13.024C62.7557 11.176 64.0877 9.904 65.9237 9.904C67.7597 9.904 69.0917 11.176 69.0917 13.024C69.0917 14.872 67.7597 16.144 65.9237 16.144C64.0877 16.144 62.7557 14.872 62.7557 13.024ZM64.2197 13.024C64.2197 14.104 64.9157 14.836 65.9237 14.836C66.9317 14.836 67.6277 14.104 67.6277 13.024C67.6277 11.944 66.9317 11.212 65.9237 11.212C64.9157 11.212 64.2197 11.944 64.2197 13.024ZM69.9041 13.024C69.9041 11.176 71.2361 9.904 73.0721 9.904C74.9081 9.904 76.2401 11.176 76.2401 13.024C76.2401 14.872 74.9081 16.144 73.0721 16.144C71.2361 16.144 69.9041 14.872 69.9041 13.024ZM71.3681 13.024C71.3681 14.104 72.0641 14.836 73.0721 14.836C74.0801 14.836 74.7761 14.104 74.7761 13.024C74.7761 11.944 74.0801 11.212 73.0721 11.212C72.0641 11.212 71.3681 11.944 71.3681 13.024ZM79.3579 16H77.8939V11.296H76.7539V10.072H77.8939V8.224H79.3579V10.072H80.5099V11.296H79.3579V16ZM82.8841 16H81.4201V7.072H82.8961V10.84C83.2681 10.264 83.9641 9.892 84.8161 9.892C86.2801 9.892 87.0481 10.816 87.0481 12.352V16H85.5841V12.7C85.5841 11.704 85.0921 11.224 84.3481 11.224C83.4241 11.224 82.8841 11.872 82.8841 12.76V16ZM88.4745 13.444V12.148H92.3385V13.444H88.4745ZM98.9368 15.988L92.8528 16V14.848L95.7208 12.424C96.9088 11.416 97.3048 10.84 97.3048 10C97.3048 9.004 96.7648 8.44 95.8408 8.44C94.8808 8.44 94.2808 9.112 94.2688 10.24H92.7448C92.7568 8.32 93.9808 7.072 95.8408 7.072C97.7128 7.072 98.8768 8.14 98.8768 9.916C98.8768 11.14 98.2048 12.064 96.8728 13.204L95.2888 14.56H98.9368V15.988Z" fill="black"/>
</svg>
