<svg width="101" height="24" viewBox="0 0 101 24" fill="none" xmlns="http://www.w3.org/2000/svg">
<path opacity="0.4" d="M3.75977 7.22005V16.7901C3.75977 18.7501 5.88975 19.98 7.58975 19L11.7397 16.61L15.8898 14.21C17.5898 13.23 17.5898 10.78 15.8898 9.80004L11.7397 7.40004L7.58975 5.01006C5.88975 4.03006 3.75977 5.25005 3.75977 7.22005Z" fill="#1A1A1A"/>
<path d="M20.2402 18.9301C19.8302 18.9301 19.4902 18.5901 19.4902 18.1801V5.82007C19.4902 5.41007 19.8302 5.07007 20.2402 5.07007C20.6502 5.07007 20.9902 5.41007 20.9902 5.82007V18.1801C20.9902 18.5901 20.6602 18.9301 20.2402 18.9301Z" fill="#1A1A1A"/>
<path d="M36.484 16H34.972V7.228H36.496L40.612 13.444V7.228H42.124V16H40.612L36.484 9.784V16ZM46.5018 16.156C44.7378 16.156 43.5018 14.872 43.5018 13.036C43.5018 11.176 44.7138 9.892 46.4538 9.892C48.2298 9.892 49.3578 11.08 49.3578 12.928V13.372L44.8938 13.384C45.0018 14.428 45.5538 14.956 46.5258 14.956C47.3298 14.956 47.8578 14.644 48.0258 14.08H49.3818C49.1298 15.376 48.0498 16.156 46.5018 16.156ZM46.4658 11.092C45.6018 11.092 45.0738 11.56 44.9298 12.448H47.9058C47.9058 11.632 47.3418 11.092 46.4658 11.092ZM51.2919 16H49.6239L51.6639 13.096L49.6239 10.072H51.3279L52.6359 12.088L53.8959 10.072H55.5399L53.5239 13.072L55.4799 16H53.7999L52.5399 14.044L51.2919 16ZM58.6626 16H57.1986V11.296H56.0586V10.072H57.1986V8.224H58.6626V10.072H59.8146V11.296H58.6626V16Z" fill="black"/>
</svg>
