<svg width="136" height="24" viewBox="0 0 136 24" fill="none" xmlns="http://www.w3.org/2000/svg">
<path opacity="0.4" d="M19.1988 14.7799C18.3388 15.5699 17.1988 16.0099 16.0288 15.9999H6.36875C2.29875 15.7099 2.28875 9.79993 6.36875 9.50993H6.40876C3.61876 1.74993 15.4088 -1.34009 16.7588 6.79991C20.5288 7.27991 22.0588 12.2899 19.1988 14.7799Z" fill="#1A1A1A"/>
<path d="M18.75 21C18.75 21.41 18.41 21.75 18 21.75H14C13.95 21.75 13.91 21.75 13.86 21.73C13.57 22.47 12.84 23 12 23C11.16 23 10.43 22.47 10.14 21.73C10.09 21.75 10.05 21.75 10 21.75H6C5.59 21.75 5.25 21.41 5.25 21C5.25 20.59 5.59 20.25 6 20.25H10C10.05 20.25 10.09 20.25 10.14 20.27C10.34 19.75 10.75 19.34 11.27 19.14C11.25 19.09 11.25 19.05 11.25 19V16H12.75V19C12.75 19.05 12.75 19.09 12.73 19.14C13.25 19.34 13.66 19.75 13.86 20.27C13.91 20.25 13.95 20.25 14 20.25H18C18.41 20.25 18.75 20.59 18.75 21Z" fill="#1A1A1A"/>
<path d="M38.68 17.144C36.124 17.144 34.468 15.368 34.468 12.62C34.468 9.896 36.184 8.084 38.752 8.084C40.828 8.084 42.376 9.296 42.676 11.18H41.056C40.756 10.16 39.88 9.56 38.716 9.56C37.096 9.56 36.076 10.736 36.076 12.608C36.076 14.468 37.108 15.668 38.716 15.668C39.904 15.668 40.816 15.044 41.104 14.072H42.7C42.364 15.92 40.756 17.144 38.68 17.144ZM45.2789 17H43.8269V8.072H45.2789V17ZM46.4666 14.024C46.4666 12.176 47.7986 10.904 49.6346 10.904C51.4706 10.904 52.8026 12.176 52.8026 14.024C52.8026 15.872 51.4706 17.144 49.6346 17.144C47.7986 17.144 46.4666 15.872 46.4666 14.024ZM47.9306 14.024C47.9306 15.104 48.6266 15.836 49.6346 15.836C50.6426 15.836 51.3386 15.104 51.3386 14.024C51.3386 12.944 50.6426 12.212 49.6346 12.212C48.6266 12.212 47.9306 12.944 47.9306 14.024ZM57.8424 11.072H59.3064V17H57.9504L57.8424 16.208C57.4824 16.772 56.7144 17.156 55.9224 17.156C54.5544 17.156 53.7504 16.232 53.7504 14.78V11.072H55.2144V14.264C55.2144 15.392 55.6584 15.848 56.4744 15.848C57.3984 15.848 57.8424 15.308 57.8424 14.18V11.072ZM63.1373 17.156C61.4213 17.156 60.3533 15.896 60.3533 14.06C60.3533 12.212 61.4333 10.892 63.2213 10.892C64.0493 10.892 64.7813 11.24 65.1533 11.828V8.072H66.6053V17H65.2613L65.1653 16.076C64.8053 16.76 64.0373 17.156 63.1373 17.156ZM63.4613 15.812C64.4813 15.812 65.1413 15.08 65.1413 14.012C65.1413 12.944 64.4813 12.2 63.4613 12.2C62.4413 12.2 61.8173 12.956 61.8173 14.012C61.8173 15.068 62.4413 15.812 63.4613 15.812ZM68.119 14.444V13.148H71.983V14.444H68.119ZM73.1268 14.024C73.1268 12.188 74.3388 10.892 76.0908 10.892C77.7108 10.892 78.8148 11.792 78.9708 13.22H77.5068C77.3388 12.548 76.8468 12.2 76.1508 12.2C75.2148 12.2 74.5908 12.908 74.5908 14.024C74.5908 15.14 75.1668 15.836 76.1028 15.836C76.8348 15.836 77.3508 15.476 77.5068 14.828H78.9828C78.8028 16.208 77.6508 17.156 76.1028 17.156C74.3027 17.156 73.1268 15.908 73.1268 14.024ZM79.7244 14.024C79.7244 12.176 81.0564 10.904 82.8924 10.904C84.7284 10.904 86.0604 12.176 86.0604 14.024C86.0604 15.872 84.7284 17.144 82.8924 17.144C81.0564 17.144 79.7244 15.872 79.7244 14.024ZM81.1884 14.024C81.1884 15.104 81.8844 15.836 82.8924 15.836C83.9004 15.836 84.5964 15.104 84.5964 14.024C84.5964 12.944 83.9004 12.212 82.8924 12.212C81.8844 12.212 81.1884 12.944 81.1884 14.024ZM88.6848 17H87.2208V11.072H88.5768L88.6968 11.84C89.0688 11.24 89.7888 10.892 90.5928 10.892C92.0808 10.892 92.8488 11.816 92.8488 13.352V17H91.3848V13.7C91.3848 12.704 90.8928 12.224 90.1368 12.224C89.2368 12.224 88.6848 12.848 88.6848 13.808V17ZM95.7513 17H94.2873V11.072H95.6433L95.7633 11.84C96.1353 11.24 96.8553 10.892 97.6593 10.892C99.1473 10.892 99.9153 11.816 99.9153 13.352V17H98.4513V13.7C98.4513 12.704 97.9593 12.224 97.2033 12.224C96.3033 12.224 95.7513 12.848 95.7513 13.808V17ZM104.006 17.156C102.242 17.156 101.006 15.872 101.006 14.036C101.006 12.176 102.218 10.892 103.958 10.892C105.734 10.892 106.862 12.08 106.862 13.928V14.372L102.398 14.384C102.506 15.428 103.058 15.956 104.03 15.956C104.834 15.956 105.362 15.644 105.53 15.08H106.886C106.634 16.376 105.554 17.156 104.006 17.156ZM103.97 12.092C103.106 12.092 102.578 12.56 102.434 13.448H105.41C105.41 12.632 104.846 12.092 103.97 12.092ZM107.685 14.024C107.685 12.188 108.897 10.892 110.649 10.892C112.269 10.892 113.373 11.792 113.529 13.22H112.065C111.897 12.548 111.405 12.2 110.709 12.2C109.773 12.2 109.149 12.908 109.149 14.024C109.149 15.14 109.725 15.836 110.661 15.836C111.393 15.836 111.909 15.476 112.065 14.828H113.541C113.361 16.208 112.209 17.156 110.661 17.156C108.861 17.156 107.685 15.908 107.685 14.024ZM116.647 17H115.183V12.296H114.043V11.072H115.183V9.224H116.647V11.072H117.799V12.296H116.647V17ZM119.441 9.884C118.937 9.884 118.541 9.488 118.541 8.996C118.541 8.504 118.937 8.12 119.441 8.12C119.921 8.12 120.317 8.504 120.317 8.996C120.317 9.488 119.921 9.884 119.441 9.884ZM118.709 17V11.072H120.173V17H118.709ZM121.338 14.024C121.338 12.176 122.67 10.904 124.506 10.904C126.342 10.904 127.674 12.176 127.674 14.024C127.674 15.872 126.342 17.144 124.506 17.144C122.67 17.144 121.338 15.872 121.338 14.024ZM122.802 14.024C122.802 15.104 123.498 15.836 124.506 15.836C125.514 15.836 126.21 15.104 126.21 14.024C126.21 12.944 125.514 12.212 124.506 12.212C123.498 12.212 122.802 12.944 122.802 14.024ZM130.298 17H128.834V11.072H130.19L130.31 11.84C130.682 11.24 131.402 10.892 132.206 10.892C133.694 10.892 134.462 11.816 134.462 13.352V17H132.998V13.7C132.998 12.704 132.506 12.224 131.75 12.224C130.85 12.224 130.298 12.848 130.298 13.808V17Z" fill="black"/>
</svg>
