<svg width="140" height="24" viewBox="0 0 140 24" fill="none" xmlns="http://www.w3.org/2000/svg">
<path opacity="0.4" d="M16.19 2H7.82002C4.18002 2 2.01001 4.17 2.01001 7.81V16.18C2.01001 19.82 4.18002 21.99 7.82002 21.99H16.19C19.83 21.99 22 19.82 22 16.18V7.81C22 4.17 19.83 2 16.19 2Z" fill="#1A1A1A"/>
<path fill-rule="evenodd" clip-rule="evenodd" d="M11.4697 5.97968C11.7626 5.68679 12.2374 5.68679 12.5303 5.97968L15.5303 8.97968C15.8232 9.27257 15.8232 9.74745 15.5303 10.0403C15.2374 10.3332 14.7626 10.3332 14.4697 10.0403L12 7.57067L9.53033 10.0403C9.23744 10.3332 8.76256 10.3332 8.46967 10.0403C8.17678 9.74745 8.17678 9.27257 8.46967 8.97968L11.4697 5.97968Z" fill="#1A1A1A"/>
<path fill-rule="evenodd" clip-rule="evenodd" d="M12 5.76001C12.4142 5.76001 12.75 6.0958 12.75 6.51001V14.51C12.75 14.9242 12.4142 15.26 12 15.26C11.5858 15.26 11.25 14.9242 11.25 14.51V6.51001C11.25 6.0958 11.5858 5.76001 12 5.76001Z" fill="#1A1A1A"/>
<path fill-rule="evenodd" clip-rule="evenodd" d="M5.28863 16.2722C5.41992 15.8794 5.84482 15.6674 6.23768 15.7986C9.97339 17.0471 14.0265 17.0471 17.7622 15.7986C18.1551 15.6674 18.58 15.8794 18.7113 16.2722C18.8426 16.6651 18.6305 17.09 18.2377 17.2213C14.1934 18.5729 9.80653 18.5729 5.76224 17.2213C5.36938 17.09 5.15734 16.6651 5.28863 16.2722Z" fill="#1A1A1A"/>
<path d="M34.468 10.676C34.468 9.14 35.74 8.072 37.588 8.072C39.364 8.072 40.492 9.056 40.54 10.64H39.004C38.968 9.884 38.428 9.44 37.564 9.44C36.616 9.44 36.004 9.896 36.004 10.628C36.004 11.252 36.34 11.6 37.072 11.768L38.452 12.068C39.952 12.392 40.684 13.16 40.684 14.468C40.684 16.1 39.412 17.156 37.48 17.156C35.608 17.156 34.384 16.16 34.348 14.588H35.884C35.896 15.332 36.496 15.776 37.48 15.776C38.5 15.776 39.148 15.332 39.148 14.6C39.148 14.012 38.848 13.664 38.128 13.508L36.736 13.196C35.248 12.872 34.468 12.02 34.468 10.676ZM44.5096 17.156C42.7456 17.156 41.5096 15.872 41.5096 14.036C41.5096 12.176 42.7216 10.892 44.4616 10.892C46.2376 10.892 47.3656 12.08 47.3656 13.928V14.372L42.9016 14.384C43.0096 15.428 43.5616 15.956 44.5336 15.956C45.3376 15.956 45.8656 15.644 46.0336 15.08H47.3896C47.1376 16.376 46.0576 17.156 44.5096 17.156ZM44.4736 12.092C43.6096 12.092 43.0816 12.56 42.9376 13.448H45.9136C45.9136 12.632 45.3496 12.092 44.4736 12.092ZM50.0013 17H48.5373V11.072H49.8933L50.0133 11.84C50.3853 11.24 51.1053 10.892 51.9093 10.892C53.3973 10.892 54.1653 11.816 54.1653 13.352V17H52.7013V13.7C52.7013 12.704 52.2093 12.224 51.4533 12.224C50.5533 12.224 50.0013 12.848 50.0013 13.808V17ZM58.0397 17.156C56.3237 17.156 55.2557 15.896 55.2557 14.06C55.2557 12.212 56.3357 10.892 58.1237 10.892C58.9517 10.892 59.6837 11.24 60.0557 11.828V8.072H61.5077V17H60.1637L60.0677 16.076C59.7077 16.76 58.9397 17.156 58.0397 17.156ZM58.3637 15.812C59.3837 15.812 60.0437 15.08 60.0437 14.012C60.0437 12.944 59.3837 12.2 58.3637 12.2C57.3437 12.2 56.7197 12.956 56.7197 14.012C56.7197 15.068 57.3437 15.812 58.3637 15.812ZM63.0213 14.444V13.148H66.8853V14.444H63.0213ZM67.8391 15.2H69.2311C69.2431 15.716 69.6271 16.04 70.2991 16.04C70.9831 16.04 71.3551 15.764 71.3551 15.332C71.3551 15.032 71.1991 14.816 70.6711 14.696L69.6031 14.444C68.5351 14.204 68.0191 13.7 68.0191 12.752C68.0191 11.588 69.0031 10.892 70.3711 10.892C71.7031 10.892 72.6031 11.66 72.6151 12.812H71.2231C71.2111 12.308 70.8751 11.984 70.3111 11.984C69.7351 11.984 69.3991 12.248 69.3991 12.692C69.3991 13.028 69.6631 13.244 70.1671 13.364L71.2351 13.616C72.2311 13.844 72.7351 14.3 72.7351 15.212C72.7351 16.412 71.7151 17.156 70.2511 17.156C68.7751 17.156 67.8391 16.364 67.8391 15.2ZM73.5018 13.964C73.5018 12.104 74.6058 10.892 76.2738 10.892C77.1738 10.892 77.9538 11.288 78.3138 11.972L78.4098 11.072H79.7538V19.748H78.3018V16.208C77.9298 16.808 77.1498 17.156 76.2738 17.156C74.5098 17.156 73.5018 15.812 73.5018 13.964ZM74.9658 14.036C74.9658 15.092 75.5898 15.836 76.6098 15.836C77.6298 15.836 78.2898 15.104 78.2898 14.036C78.2898 12.968 77.6298 12.224 76.6098 12.224C75.5898 12.224 74.9658 12.98 74.9658 14.036ZM85.2994 11.072H86.7634V17H85.4074L85.2994 16.208C84.9394 16.772 84.1714 17.156 83.3794 17.156C82.0114 17.156 81.2074 16.232 81.2074 14.78V11.072H82.6714V14.264C82.6714 15.392 83.1154 15.848 83.9314 15.848C84.8554 15.848 85.2994 15.308 85.2994 14.18V11.072ZM90.0395 17.156C88.7795 17.156 88.0115 16.424 88.0115 15.308C88.0115 14.216 88.8035 13.532 90.2075 13.424L91.9835 13.292V13.16C91.9835 12.356 91.5035 12.032 90.7595 12.032C89.8955 12.032 89.4155 12.392 89.4155 13.016H88.1675C88.1675 11.732 89.2235 10.892 90.8315 10.892C92.4275 10.892 93.4115 11.756 93.4115 13.4V17H92.1275L92.0195 16.124C91.7675 16.736 90.9635 17.156 90.0395 17.156ZM90.5195 16.052C91.4195 16.052 91.9955 15.512 91.9955 14.6V14.288L90.7595 14.384C89.8475 14.468 89.4995 14.768 89.4995 15.248C89.4995 15.788 89.8595 16.052 90.5195 16.052ZM98.5698 11.048V12.404H98.0298C96.9738 12.404 96.3138 12.968 96.3138 14.12V17H94.8498V11.084H96.2298L96.3138 11.948C96.5658 11.36 97.1298 10.964 97.9218 10.964C98.1258 10.964 98.3298 10.988 98.5698 11.048ZM102.013 17.156C100.249 17.156 99.0135 15.872 99.0135 14.036C99.0135 12.176 100.225 10.892 101.965 10.892C103.741 10.892 104.869 12.08 104.869 13.928V14.372L100.405 14.384C100.513 15.428 101.065 15.956 102.037 15.956C102.841 15.956 103.369 15.644 103.537 15.08H104.893C104.641 16.376 103.561 17.156 102.013 17.156ZM101.977 12.092C101.113 12.092 100.585 12.56 100.441 13.448H103.417C103.417 12.632 102.853 12.092 101.977 12.092Z" fill="black"/>
</svg>
