<svg width="101" height="24" viewBox="0 0 101 24" fill="none" xmlns="http://www.w3.org/2000/svg">
<path opacity="0.4" d="M22 7.81V14H17.92C17.25 14 16.46 13.52 16.15 12.93L15.11 10.96C14.83 10.43 14.43 10.46 14.21 11.01L11.91 16.82C11.66 17.47 11.24 17.47 10.98 16.82L9.84 13.94C9.57 13.24 8.73 12.67 7.98 12.67L2 12.7V7.81C2 4.17 4.17 2 7.81 2H16.19C19.83 2 22 4.17 22 7.81Z" fill="#1A1A1A"/>
<path d="M22 16.1897V13.9997H17.92C17.25 13.9997 16.46 13.5197 16.15 12.9297L15.11 10.9597C14.83 10.4297 14.43 10.4597 14.21 11.0097L11.91 16.8197C11.66 17.4697 11.24 17.4697 10.98 16.8197L9.84 13.9397C9.57 13.2397 8.73 12.6697 7.98 12.6697L2 12.6997V16.1897C2 19.7697 4.1 21.9297 7.63 21.9897C7.74 21.9997 7.86 21.9997 7.97 21.9997H15.97C16.12 21.9997 16.27 21.9997 16.41 21.9897C19.92 21.9097 22 19.7597 22 16.1897Z" fill="#1A1A1A"/>
<path d="M1.99973 12.7002V16.0102C1.97973 15.6902 1.96973 15.3502 1.96973 15.0002V12.7002H1.99973Z" fill="#1A1A1A"/>
<path d="M36.508 16H34.972V7.228H36.508V10.852H40.396V7.228H41.932V16H40.396V12.28H36.508V16ZM46.3143 16.156C44.5503 16.156 43.3143 14.872 43.3143 13.036C43.3143 11.176 44.5263 9.892 46.2663 9.892C48.0423 9.892 49.1703 11.08 49.1703 12.928V13.372L44.7063 13.384C44.8143 14.428 45.3663 14.956 46.3383 14.956C47.1423 14.956 47.6703 14.644 47.8383 14.08H49.1943C48.9423 15.376 47.8623 16.156 46.3143 16.156ZM46.2783 11.092C45.4143 11.092 44.8863 11.56 44.7423 12.448H47.7183C47.7183 11.632 47.1543 11.092 46.2783 11.092ZM52.0473 16.156C50.7873 16.156 50.0193 15.424 50.0193 14.308C50.0193 13.216 50.8113 12.532 52.2153 12.424L53.9913 12.292V12.16C53.9913 11.356 53.5113 11.032 52.7673 11.032C51.9033 11.032 51.4233 11.392 51.4233 12.016H50.1753C50.1753 10.732 51.2313 9.892 52.8393 9.892C54.4353 9.892 55.4193 10.756 55.4193 12.4V16H54.1353L54.0273 15.124C53.7753 15.736 52.9713 16.156 52.0473 16.156ZM52.5273 15.052C53.4273 15.052 54.0033 14.512 54.0033 13.6V13.288L52.7673 13.384C51.8553 13.468 51.5073 13.768 51.5073 14.248C51.5073 14.788 51.8673 15.052 52.5273 15.052ZM58.3336 16H56.8816V7.072H58.3336V16ZM61.8853 16H60.4213V11.296H59.2813V10.072H60.4213V8.224H61.8853V10.072H63.0373V11.296H61.8853V16ZM65.4114 16H63.9474V7.072H65.4234V10.84C65.7954 10.264 66.4914 9.892 67.3434 9.892C68.8074 9.892 69.5754 10.816 69.5754 12.352V16H68.1114V12.7C68.1114 11.704 67.6194 11.224 66.8754 11.224C65.9514 11.224 65.4114 11.872 65.4114 12.76V16Z" fill="black"/>
</svg>
