<svg width="200" height="24" viewBox="0 0 200 24" fill="none" xmlns="http://www.w3.org/2000/svg">
<path opacity="0.4" d="M16.77 18.98H7.23C6.81 18.98 6.43 18.71 6.29 18.32L2.13 6.67004C1.8 5.74004 2.86 4.95004 3.65 5.52004L7.65 8.38004C8.18 8.76004 8.94 8.53004 9.17 7.92004L11.06 2.88004C11.38 2.01004 12.61 2.01004 12.93 2.88004L14.82 7.92004C15.05 8.54004 15.8 8.76004 16.34 8.38004L20.34 5.52004C21.14 4.95004 22.19 5.75004 21.86 6.67004L17.7 18.32C17.57 18.71 17.19 18.98 16.77 18.98Z" fill="#1A1A1A"/>
<path d="M17 22H7C6.59 22 6.25 21.66 6.25 21.25C6.25 20.84 6.59 20.5 7 20.5H17C17.41 20.5 17.75 20.84 17.75 21.25C17.75 21.66 17.41 22 17 22Z" fill="#1A1A1A"/>
<path d="M14.5 14.75H9.5C9.09 14.75 8.75 14.41 8.75 14C8.75 13.59 9.09 13.25 9.5 13.25H14.5C14.91 13.25 15.25 13.59 15.25 14C15.25 14.41 14.91 14.75 14.5 14.75Z" fill="#1A1A1A"/>
<path d="M38.68 16.144C36.124 16.144 34.468 14.368 34.468 11.62C34.468 8.896 36.184 7.084 38.752 7.084C40.828 7.084 42.376 8.296 42.676 10.18H41.056C40.756 9.16 39.88 8.56 38.716 8.56C37.096 8.56 36.076 9.736 36.076 11.608C36.076 13.468 37.108 14.668 38.716 14.668C39.904 14.668 40.816 14.044 41.104 13.072H42.7C42.364 14.92 40.756 16.144 38.68 16.144ZM47.5815 10.048V11.404H47.0415C45.9855 11.404 45.3255 11.968 45.3255 13.12V16H43.8615V10.084H45.2415L45.3255 10.948C45.5775 10.36 46.1415 9.964 46.9335 9.964C47.1375 9.964 47.3415 9.988 47.5815 10.048ZM48.0252 13.024C48.0252 11.176 49.3572 9.904 51.1932 9.904C53.0292 9.904 54.3612 11.176 54.3612 13.024C54.3612 14.872 53.0292 16.144 51.1932 16.144C49.3572 16.144 48.0252 14.872 48.0252 13.024ZM49.4892 13.024C49.4892 14.104 50.1852 14.836 51.1932 14.836C52.2012 14.836 52.8972 14.104 52.8972 13.024C52.8972 11.944 52.2012 11.212 51.1932 11.212C50.1852 11.212 49.4892 11.944 49.4892 13.024ZM56.5367 16L54.6167 10.072H56.1407L56.9207 12.616C57.0527 13.084 57.1727 13.6 57.2807 14.152C57.3887 13.576 57.4967 13.204 57.6887 12.616L58.5047 10.072H59.9927L60.7847 12.616C60.8567 12.856 61.0967 13.744 61.1687 14.14C61.2647 13.696 61.4567 12.988 61.5647 12.616L62.3567 10.072H63.9047L61.8527 16H60.4847L59.6687 13.432C59.4287 12.652 59.2967 12.088 59.2487 11.788C59.1887 12.064 59.0807 12.484 58.7807 13.456L57.9647 16H56.5367ZM66.2552 16H64.7912V10.072H66.1472L66.2672 10.84C66.6392 10.24 67.3592 9.892 68.1632 9.892C69.6512 9.892 70.4192 10.816 70.4192 12.352V16H68.9552V12.7C68.9552 11.704 68.4632 11.224 67.7072 11.224C66.8072 11.224 66.2552 11.848 66.2552 12.808V16Z" fill="black"/>
</svg>
