<svg width="101" height="24" viewBox="0 0 101 24" fill="none" xmlns="http://www.w3.org/2000/svg">
<path d="M22 12.75H18C17.59 12.75 17.25 12.41 17.25 12C17.25 11.59 17.59 11.25 18 11.25H22C22.41 11.25 22.75 11.59 22.75 12C22.75 12.41 22.41 12.75 22 12.75Z" fill="#1A1A1A"/>
<path opacity="0.4" d="M15.75 7.41003V16.59C15.75 18.31 15.13 19.6 14.02 20.22C13.57 20.47 13.07 20.59 12.55 20.59C11.75 20.59 10.89 20.32 10.01 19.77L7.09 17.94C6.89 17.82 6.66 17.75 6.43 17.75H5.5V6.25003H6.43C6.66 6.25003 6.89 6.18003 7.09 6.06003L10.01 4.23003C11.47 3.32003 12.9 3.16003 14.02 3.78003C15.13 4.40003 15.75 5.69003 15.75 7.41003Z" fill="#1A1A1A"/>
<path d="M5.5 6.25V17.75H5C2.58 17.75 1.25 16.42 1.25 14V10C1.25 7.58 2.58 6.25 5 6.25H5.5Z" fill="#1A1A1A"/>
<path d="M37.432 16L34.12 7.228H35.752L37.672 12.28C37.864 12.808 38.032 13.324 38.224 14.032C38.44 13.264 38.62 12.724 38.788 12.28L40.684 7.228H42.28L39.016 16H37.432ZM41.8025 13.024C41.8025 11.176 43.1345 9.904 44.9705 9.904C46.8065 9.904 48.1385 11.176 48.1385 13.024C48.1385 14.872 46.8065 16.144 44.9705 16.144C43.1345 16.144 41.8025 14.872 41.8025 13.024ZM43.2665 13.024C43.2665 14.104 43.9625 14.836 44.9705 14.836C45.9785 14.836 46.6745 14.104 46.6745 13.024C46.6745 11.944 45.9785 11.212 44.9705 11.212C43.9625 11.212 43.2665 11.944 43.2665 13.024ZM50.775 16H49.323V7.072H50.775V16ZM56.3307 10.072H57.7947V16H56.4387L56.3307 15.208C55.9707 15.772 55.2027 16.156 54.4107 16.156C53.0427 16.156 52.2387 15.232 52.2387 13.78V10.072H53.7027V13.264C53.7027 14.392 54.1467 14.848 54.9627 14.848C55.8867 14.848 56.3307 14.308 56.3307 13.18V10.072ZM60.7708 16H59.3068V10.072H60.6508L60.7708 10.768C61.0708 10.276 61.6708 9.892 62.5228 9.892C63.4228 9.892 64.0468 10.336 64.3588 11.02C64.6588 10.336 65.3548 9.892 66.2548 9.892C67.6948 9.892 68.4868 10.756 68.4868 12.124V16H67.0348V12.508C67.0348 11.656 66.5788 11.212 65.8828 11.212C65.1748 11.212 64.6348 11.668 64.6348 12.64V16H63.1708V12.496C63.1708 11.668 62.7268 11.224 62.0308 11.224C61.3348 11.224 60.7708 11.68 60.7708 12.64V16ZM72.576 16.156C70.812 16.156 69.576 14.872 69.576 13.036C69.576 11.176 70.788 9.892 72.528 9.892C74.304 9.892 75.432 11.08 75.432 12.928V13.372L70.968 13.384C71.076 14.428 71.628 14.956 72.6 14.956C73.404 14.956 73.932 14.644 74.1 14.08H75.456C75.204 15.376 74.124 16.156 72.576 16.156ZM72.54 11.092C71.676 11.092 71.148 11.56 71.004 12.448H73.98C73.98 11.632 73.416 11.092 72.54 11.092ZM76.5917 13.444V12.148H80.4557V13.444H76.5917ZM83.4234 16H81.9714V7.072H83.4234V16ZM84.6111 13.024C84.6111 11.176 85.9431 9.904 87.7791 9.904C89.6151 9.904 90.9471 11.176 90.9471 13.024C90.9471 14.872 89.6151 16.144 87.7791 16.144C85.9431 16.144 84.6111 14.872 84.6111 13.024ZM86.0751 13.024C86.0751 14.104 86.7711 14.836 87.7791 14.836C88.7871 14.836 89.4831 14.104 89.4831 13.024C89.4831 11.944 88.7871 11.212 87.7791 11.212C86.7711 11.212 86.0751 11.944 86.0751 13.024ZM93.1226 16L91.2026 10.072H92.7266L93.5066 12.616C93.6386 13.084 93.7586 13.6 93.8666 14.152C93.9746 13.576 94.0826 13.204 94.2746 12.616L95.0906 10.072H96.5786L97.3706 12.616C97.4426 12.856 97.6826 13.744 97.7546 14.14C97.8506 13.696 98.0426 12.988 98.1506 12.616L98.9426 10.072H100.491L98.4386 16H97.0706L96.2546 13.432C96.0146 12.652 95.8826 12.088 95.8346 11.788C95.7746 12.064 95.6666 12.484 95.3666 13.456L94.5506 16H93.1226Z" fill="black"/>
</svg>
