<svg width="101" height="24" viewBox="0 0 101 24" fill="none" xmlns="http://www.w3.org/2000/svg">
<path opacity="0.4" d="M19.54 6.54L16.47 3.47C15.53 2.53 14.26 2 12.93 2H8C5 2 3 4 3 7V17C3 20 5 22 8 22H16C19 22 21 20 21 17V10.07C21 8.74 20.47 7.47 19.54 6.54Z" fill="#1A1A1A"/>
<path d="M11.5 13.25V9.5H10C8.35 9.5 7 10.85 7 12.5V13.5H11.25C11.39 13.5 11.5 13.39 11.5 13.25Z" fill="#1A1A1A"/>
<path d="M12.75 13.5H17V12.5C17 10.85 15.65 9.5 14 9.5H12.5V13.25C12.5 13.39 12.61 13.5 12.75 13.5Z" fill="#1A1A1A"/>
<path d="M11.25 14.5H7V15.5C7 17.15 8.35 18.5 10 18.5H11.5V14.75C11.5 14.61 11.39 14.5 11.25 14.5Z" fill="#1A1A1A"/>
<path d="M12.5 14.75V18.5H14C15.65 18.5 17 17.15 17 15.5V14.5H12.75C12.61 14.5 12.5 14.61 12.5 14.75Z" fill="#1A1A1A"/>
<path d="M34.468 9.676C34.468 8.14 35.74 7.072 37.588 7.072C39.364 7.072 40.492 8.056 40.54 9.64H39.004C38.968 8.884 38.428 8.44 37.564 8.44C36.616 8.44 36.004 8.896 36.004 9.628C36.004 10.252 36.34 10.6 37.072 10.768L38.452 11.068C39.952 11.392 40.684 12.16 40.684 13.468C40.684 15.1 39.412 16.156 37.48 16.156C35.608 16.156 34.384 15.16 34.348 13.588H35.884C35.896 14.332 36.496 14.776 37.48 14.776C38.5 14.776 39.148 14.332 39.148 13.6C39.148 13.012 38.848 12.664 38.128 12.508L36.736 12.196C35.248 11.872 34.468 11.02 34.468 9.676ZM42.5896 8.884C42.0856 8.884 41.6896 8.488 41.6896 7.996C41.6896 7.504 42.0856 7.12 42.5896 7.12C43.0696 7.12 43.4656 7.504 43.4656 7.996C43.4656 8.488 43.0696 8.884 42.5896 8.884ZM41.8576 16V10.072H43.3216V16H41.8576ZM46.2981 16H44.8341V10.072H46.1781L46.2981 10.768C46.5981 10.276 47.1981 9.892 48.0501 9.892C48.9501 9.892 49.5741 10.336 49.8861 11.02C50.1861 10.336 50.8821 9.892 51.7821 9.892C53.2221 9.892 54.0141 10.756 54.0141 12.124V16H52.5621V12.508C52.5621 11.656 52.1061 11.212 51.4101 11.212C50.7021 11.212 50.1621 11.668 50.1621 12.64V16H48.6981V12.496C48.6981 11.668 48.2541 11.224 47.5581 11.224C46.8621 11.224 46.2981 11.68 46.2981 12.64V16ZM55.1033 13.024C55.1033 11.188 56.3153 9.892 58.0673 9.892C59.6873 9.892 60.7913 10.792 60.9473 12.22H59.4833C59.3153 11.548 58.8233 11.2 58.1273 11.2C57.1913 11.2 56.5673 11.908 56.5673 13.024C56.5673 14.14 57.1433 14.836 58.0793 14.836C58.8113 14.836 59.3273 14.476 59.4833 13.828H60.9593C60.7793 15.208 59.6273 16.156 58.0793 16.156C56.2793 16.156 55.1033 14.908 55.1033 13.024ZM63.813 16.156C62.553 16.156 61.785 15.424 61.785 14.308C61.785 13.216 62.577 12.532 63.981 12.424L65.757 12.292V12.16C65.757 11.356 65.277 11.032 64.533 11.032C63.669 11.032 63.189 11.392 63.189 12.016H61.941C61.941 10.732 62.997 9.892 64.605 9.892C66.201 9.892 67.185 10.756 67.185 12.4V16H65.901L65.793 15.124C65.541 15.736 64.737 16.156 63.813 16.156ZM64.293 15.052C65.193 15.052 65.769 14.512 65.769 13.6V13.288L64.533 13.384C63.621 13.468 63.273 13.768 63.273 14.248C63.273 14.788 63.633 15.052 64.293 15.052ZM72.3432 10.048V11.404H71.8032C70.7472 11.404 70.0872 11.968 70.0872 13.12V16H68.6232V10.084H70.0032L70.0872 10.948C70.3392 10.36 70.9032 9.964 71.6952 9.964C71.8992 9.964 72.1032 9.988 72.3432 10.048ZM75.5709 16.156C73.8549 16.156 72.7869 14.896 72.7869 13.06C72.7869 11.212 73.8669 9.892 75.6549 9.892C76.4829 9.892 77.2149 10.24 77.5869 10.828V7.072H79.0389V16H77.6949L77.5989 15.076C77.2389 15.76 76.4709 16.156 75.5709 16.156ZM75.8949 14.812C76.9149 14.812 77.5749 14.08 77.5749 13.012C77.5749 11.944 76.9149 11.2 75.8949 11.2C74.8749 11.2 74.2509 11.956 74.2509 13.012C74.2509 14.068 74.8749 14.812 75.8949 14.812Z" fill="black"/>
</svg>
