<svg width="137" height="24" viewBox="0 0 137 24" fill="none" xmlns="http://www.w3.org/2000/svg">
<path d="M3.22998 1H11.36C12.04 1 12.59 1.56 12.59 2.25V3.62C12.59 4.12 12.28 4.73999 11.97 5.04999L9.32001 7.42001C8.95001 7.73001 8.70001 8.36001 8.70001 8.85001V11.53C8.70001 11.9 8.45002 12.4 8.15002 12.59L7.28998 13.15C6.48998 13.65 5.38 13.09 5.38 12.09V8.78C5.38 8.34 5.13001 7.78 4.89001 7.47L2.54999 4.97C2.23999 4.66 2 4.1 2 3.72V2.29001C2 1.56001 2.54998 1 3.22998 1Z" fill="#1A1A1A"/>
<path opacity="0.4" d="M17 2H14.6C14.32 2 14.1 2.22 14.1 2.5C14.1 2.98 14.1 3.62 14.1 3.62C14.1 4.61 13.57 5.57999 13.05 6.10999L10.33 8.54001C10.3 8.61001 10.25 8.71001 10.22 8.79001V11.54C10.22 12.45 9.68 13.44 8.94 13.89L8.12 14.42C7.66 14.71 7.15001 14.85 6.64001 14.85C6.18001 14.85 5.71999 14.73 5.29999 14.5C4.64999 14.14 4.2 13.55 4 12.87V10.21C4 10.08 3.94998 9.94999 3.84998 9.85999L2.84998 8.85999C2.52998 8.54999 2 8.76999 2 9.20999V17C2 19.76 4.24 22 7 22H17C19.76 22 22 19.76 22 17V7C22 4.24 19.76 2 17 2Z" fill="#1A1A1A"/>
<path d="M18 13.75H13C12.59 13.75 12.25 13.41 12.25 13C12.25 12.59 12.59 12.25 13 12.25H18C18.41 12.25 18.75 12.59 18.75 13C18.75 13.41 18.41 13.75 18 13.75Z" fill="#1A1A1A"/>
<path d="M18 17.75H11C10.59 17.75 10.25 17.41 10.25 17C10.25 16.59 10.59 16.25 11 16.25H18C18.41 16.25 18.75 16.59 18.75 17C18.75 17.41 18.41 17.75 18 17.75Z" fill="#1A1A1A"/>
<path d="M38.128 17H34.972V8.228H38.044C40.636 8.228 42.424 10.016 42.424 12.632C42.424 15.212 40.672 17 38.128 17ZM37.9 9.644H36.508V15.584H37.984C39.736 15.584 40.804 14.456 40.804 12.632C40.804 10.772 39.712 9.644 37.9 9.644ZM43.2908 14.024C43.2908 12.176 44.6228 10.904 46.4588 10.904C48.2948 10.904 49.6268 12.176 49.6268 14.024C49.6268 15.872 48.2948 17.144 46.4588 17.144C44.6228 17.144 43.2908 15.872 43.2908 14.024ZM44.7548 14.024C44.7548 15.104 45.4508 15.836 46.4588 15.836C47.4668 15.836 48.1628 15.104 48.1628 14.024C48.1628 12.944 47.4668 12.212 46.4588 12.212C45.4508 12.212 44.7548 12.944 44.7548 14.024ZM50.4393 14.024C50.4393 12.188 51.6513 10.892 53.4033 10.892C55.0233 10.892 56.1273 11.792 56.2833 13.22H54.8193C54.6513 12.548 54.1593 12.2 53.4633 12.2C52.5273 12.2 51.9033 12.908 51.9033 14.024C51.9033 15.14 52.4793 15.836 53.4153 15.836C54.1473 15.836 54.6633 15.476 54.8193 14.828H56.2953C56.1153 16.208 54.9633 17.156 53.4153 17.156C51.6152 17.156 50.4393 15.908 50.4393 14.024ZM61.4049 11.072H62.8689V17H61.5129L61.4049 16.208C61.0449 16.772 60.2769 17.156 59.4849 17.156C58.1169 17.156 57.3129 16.232 57.3129 14.78V11.072H58.7769V14.264C58.7769 15.392 59.2209 15.848 60.0369 15.848C60.9609 15.848 61.4049 15.308 61.4049 14.18V11.072ZM65.845 17H64.381V11.072H65.725L65.845 11.768C66.145 11.276 66.745 10.892 67.597 10.892C68.497 10.892 69.121 11.336 69.433 12.02C69.733 11.336 70.429 10.892 71.329 10.892C72.769 10.892 73.561 11.756 73.561 13.124V17H72.109V13.508C72.109 12.656 71.653 12.212 70.957 12.212C70.249 12.212 69.709 12.668 69.709 13.64V17H68.245V13.496C68.245 12.668 67.801 12.224 67.105 12.224C66.409 12.224 65.845 12.68 65.845 13.64V17ZM77.6502 17.156C75.8862 17.156 74.6502 15.872 74.6502 14.036C74.6502 12.176 75.8622 10.892 77.6022 10.892C79.3782 10.892 80.5062 12.08 80.5062 13.928V14.372L76.0422 14.384C76.1502 15.428 76.7022 15.956 77.6742 15.956C78.4782 15.956 79.0062 15.644 79.1742 15.08H80.5302C80.2782 16.376 79.1982 17.156 77.6502 17.156ZM77.6142 12.092C76.7502 12.092 76.2222 12.56 76.0782 13.448H79.0542C79.0542 12.632 78.4902 12.092 77.6142 12.092ZM83.1419 17H81.6779V11.072H83.0339L83.1539 11.84C83.5259 11.24 84.2459 10.892 85.0499 10.892C86.5379 10.892 87.3059 11.816 87.3059 13.352V17H85.8419V13.7C85.8419 12.704 85.3499 12.224 84.5939 12.224C83.6939 12.224 83.1419 12.848 83.1419 13.808V17ZM90.7603 17H89.2963V12.296H88.1563V11.072H89.2963V9.224H90.7603V11.072H91.9123V12.296H90.7603V17ZM92.576 14.444V13.148H96.44V14.444H92.576ZM101.837 17V12.296H99.4134V17H97.9614V12.296H97.1094V11.072H97.9614V10.352C97.9614 8.744 98.8014 8.072 100.001 8.072C100.229 8.072 100.505 8.084 100.757 8.132V9.38H100.241C99.5814 9.38 99.4134 9.764 99.4134 10.352V11.072H103.301V17H101.837ZM102.569 9.86C102.077 9.86 101.693 9.476 101.693 8.984C101.693 8.504 102.077 8.12 102.569 8.12C103.049 8.12 103.433 8.504 103.433 8.984C103.433 9.476 103.049 9.86 102.569 9.86ZM106.287 17H104.835V8.072H106.287V17ZM109.838 17H108.374V12.296H107.234V11.072H108.374V9.224H109.838V11.072H110.99V12.296H109.838V17ZM114.494 17.156C112.73 17.156 111.494 15.872 111.494 14.036C111.494 12.176 112.706 10.892 114.446 10.892C116.222 10.892 117.35 12.08 117.35 13.928V14.372L112.886 14.384C112.994 15.428 113.546 15.956 114.518 15.956C115.322 15.956 115.85 15.644 116.018 15.08H117.374C117.122 16.376 116.042 17.156 114.494 17.156ZM114.458 12.092C113.594 12.092 113.066 12.56 112.922 13.448H115.898C115.898 12.632 115.334 12.092 114.458 12.092ZM122.242 11.048V12.404H121.702C120.646 12.404 119.986 12.968 119.986 14.12V17H118.522V11.084H119.902L119.986 11.948C120.238 11.36 120.802 10.964 121.594 10.964C121.798 10.964 122.002 10.988 122.242 11.048Z" fill="black"/>
</svg>
