<svg width="105" height="24" viewBox="0 0 105 24" fill="none" xmlns="http://www.w3.org/2000/svg">
<path opacity="0.4" d="M8 22H16C19 22 21 20 21 17V7C21 4 19 2 16 2H8C5 2 3 4 3 7V17C3 20 5 22 8 22Z" fill="#1A1A1A"/>
<path d="M17.5 7.99997C14.37 5.20997 9.63998 5.20997 6.49998 7.99997C6.35998 8.12997 6.32998 8.32997 6.42998 8.47997L8.60998 11.98C8.66998 12.07 8.76998 12.14 8.86998 12.15C8.97998 12.17 9.08998 12.13 9.16998 12.06C10.78 10.63 13.2 10.63 14.81 12.06C14.88 12.12 14.97 12.15 15.06 12.15C15.08 12.15 15.1 12.15 15.11 12.15C15.22 12.13 15.32 12.07 15.37 11.98L17.55 8.47997C17.67 8.32997 17.64 8.12997 17.5 7.99997Z" fill="#1A1A1A"/>
<path d="M36.796 16L34.18 7.228H35.776L37.168 11.86C37.3 12.34 37.432 12.832 37.564 13.6C37.708 12.82 37.84 12.364 37.996 11.86L39.376 7.228H41.068L42.424 11.86C42.568 12.352 42.7 12.856 42.844 13.6C43.012 12.784 43.132 12.316 43.264 11.872L44.68 7.228H46.24L43.576 16H42.088L40.216 9.616L38.308 16H36.796ZM48.9744 16.156C47.2104 16.156 45.9744 14.872 45.9744 13.036C45.9744 11.176 47.1864 9.892 48.9264 9.892C50.7024 9.892 51.8304 11.08 51.8304 12.928V13.372L47.3664 13.384C47.4744 14.428 48.0264 14.956 48.9984 14.956C49.8024 14.956 50.3304 14.644 50.4984 14.08H51.8544C51.6024 15.376 50.5224 16.156 48.9744 16.156ZM48.9384 11.092C48.0744 11.092 47.5464 11.56 47.4024 12.448H50.3784C50.3784 11.632 49.8144 11.092 48.9384 11.092ZM53.7341 8.884C53.2301 8.884 52.8341 8.488 52.8341 7.996C52.8341 7.504 53.2301 7.12 53.7341 7.12C54.2141 7.12 54.6101 7.504 54.6101 7.996C54.6101 8.488 54.2141 8.884 53.7341 8.884ZM53.0021 16V10.072H54.4661V16H53.0021ZM55.6427 12.904C55.6427 11.176 56.7707 9.88 58.4627 9.88C59.3507 9.88 60.0467 10.252 60.3947 10.888L60.4787 10.072H61.8347V15.7C61.8347 17.68 60.6467 18.916 58.7267 18.916C57.0227 18.916 55.8587 17.944 55.6787 16.36H57.1427C57.2387 17.128 57.8267 17.584 58.7267 17.584C59.7347 17.584 60.3827 16.948 60.3827 15.964V14.98C60.0107 15.532 59.2787 15.88 58.4267 15.88C56.7467 15.88 55.6427 14.62 55.6427 12.904ZM57.1187 12.868C57.1187 13.864 57.7547 14.608 58.7147 14.608C59.7227 14.608 60.3467 13.9 60.3467 12.868C60.3467 11.86 59.7347 11.164 58.7147 11.164C57.7427 11.164 57.1187 11.896 57.1187 12.868ZM64.8138 16H63.3498V7.072H64.8258V10.84C65.1978 10.264 65.8938 9.892 66.7458 9.892C68.2098 9.892 68.9778 10.816 68.9778 12.352V16H67.5138V12.7C67.5138 11.704 67.0218 11.224 66.2778 11.224C65.3538 11.224 64.8138 11.872 64.8138 12.76V16ZM72.4322 16H70.9682V11.296H69.8282V10.072H70.9682V8.224H72.4322V10.072H73.5842V11.296H72.4322V16Z" fill="black"/>
</svg>
