<svg width="101" height="24" viewBox="0 0 101 24" fill="none" xmlns="http://www.w3.org/2000/svg">
<path d="M22 19V22H2V19C2 18.45 2.45 18 3 18H21C21.55 18 22 18.45 22 19Z" fill="#1A1A1A" stroke="#1A1A1A" stroke-width="1.5" stroke-miterlimit="10" stroke-linecap="round" stroke-linejoin="round"/>
<path opacity="0.6" d="M8 11H4V18H8V11Z" fill="#1A1A1A"/>
<path opacity="0.4" d="M12 11H8V18H12V11Z" fill="#1A1A1A"/>
<path opacity="0.6" d="M16 11H12V18H16V11Z" fill="#1A1A1A"/>
<path opacity="0.4" d="M20 11H16V18H20V11Z" fill="#1A1A1A"/>
<path d="M23 22.75H1C0.59 22.75 0.25 22.41 0.25 22C0.25 21.59 0.59 21.25 1 21.25H23C23.41 21.25 23.75 21.59 23.75 22C23.75 22.41 23.41 22.75 23 22.75Z" fill="#1A1A1A"/>
<path d="M21.37 5.74982L12.37 2.14984C12.17 2.06984 11.83 2.06984 11.63 2.14984L2.63 5.74982C2.28 5.88982 2 6.29981 2 6.67981V9.99982C2 10.5498 2.45 10.9998 3 10.9998H21C21.55 10.9998 22 10.5498 22 9.99982V6.67981C22 6.29981 21.72 5.88982 21.37 5.74982ZM12 8.49982C11.17 8.49982 10.5 7.82982 10.5 6.99982C10.5 6.16982 11.17 5.49982 12 5.49982C12.83 5.49982 13.5 6.16982 13.5 6.99982C13.5 7.82982 12.83 8.49982 12 8.49982Z" fill="#1A1A1A"/>
<path d="M34.972 16V7.228H38.464C40.192 7.228 41.248 8.128 41.248 9.592C41.248 10.564 40.816 11.26 39.988 11.608C40.912 11.908 41.38 12.604 41.38 13.624C41.38 15.124 40.336 16 38.524 16H34.972ZM38.332 8.584H36.508V10.972H38.368C39.208 10.972 39.676 10.528 39.676 9.748C39.676 8.992 39.196 8.584 38.332 8.584ZM38.464 12.268H36.508V14.644H38.464C39.328 14.644 39.808 14.224 39.808 13.432C39.808 12.688 39.316 12.268 38.464 12.268ZM44.3364 16.156C43.0764 16.156 42.3084 15.424 42.3084 14.308C42.3084 13.216 43.1004 12.532 44.5044 12.424L46.2804 12.292V12.16C46.2804 11.356 45.8004 11.032 45.0564 11.032C44.1924 11.032 43.7124 11.392 43.7124 12.016H42.4644C42.4644 10.732 43.5204 9.892 45.1284 9.892C46.7244 9.892 47.7084 10.756 47.7084 12.4V16H46.4244L46.3164 15.124C46.0644 15.736 45.2604 16.156 44.3364 16.156ZM44.8164 15.052C45.7164 15.052 46.2924 14.512 46.2924 13.6V13.288L45.0564 13.384C44.1444 13.468 43.7964 13.768 43.7964 14.248C43.7964 14.788 44.1564 15.052 44.8164 15.052ZM50.6106 16H49.1466V10.072H50.5026L50.6226 10.84C50.9946 10.24 51.7146 9.892 52.5186 9.892C54.0066 9.892 54.7746 10.816 54.7746 12.352V16H53.3106V12.7C53.3106 11.704 52.8186 11.224 52.0626 11.224C51.1626 11.224 50.6106 11.848 50.6106 12.808V16ZM57.689 16H56.237V7.072H57.689V12.556L59.993 10.072H61.829L59.573 12.424L61.781 16H60.101L58.553 13.504L57.689 14.404V16Z" fill="black"/>
</svg>
