<svg width="120" height="24" viewBox="0 0 120 24" fill="none" xmlns="http://www.w3.org/2000/svg">
<path opacity="0.4" d="M23.5302 12.0502C23.2402 11.7602 22.7602 11.7602 22.4702 12.0502L22.0102 12.5103V12.0002C22.0102 6.48024 17.5202 1.99023 12.0002 1.99023C8.95024 1.99023 6.10025 3.36023 4.19025 5.74023C3.93025 6.06023 3.98024 6.54022 4.31024 6.79022C4.63024 7.05022 5.11025 7.00023 5.36025 6.67023C6.99025 4.64023 9.41024 3.48022 12.0002 3.48022C16.6902 3.48022 20.5102 7.30023 20.5102 11.9902V12.4902L20.0502 12.0303C19.7602 11.7403 19.2802 11.7403 18.9902 12.0303C18.7002 12.3203 18.7002 12.8003 18.9902 13.0903L20.7302 14.8303C20.8002 14.9003 20.8802 14.9502 20.9702 14.9902C21.0602 15.0302 21.1602 15.0502 21.2602 15.0502C21.3602 15.0502 21.4502 15.0302 21.5502 14.9902C21.6402 14.9502 21.7202 14.9003 21.7902 14.8303L23.5302 13.0903C23.8202 12.8203 23.8202 12.3402 23.5302 12.0502Z" fill="#1A1A1A"/>
<path opacity="0.4" d="M19.6902 17.2004C19.3702 16.9404 18.8902 16.9904 18.6402 17.3204C17.0102 19.3504 14.5902 20.5104 12.0002 20.5104C7.31019 20.5104 3.49019 16.6904 3.49019 12.0004V11.5004L3.95019 11.9605C4.10019 12.1105 4.2902 12.1804 4.4802 12.1804C4.6702 12.1804 4.86019 12.1105 5.01019 11.9605C5.30019 11.6705 5.30019 11.1905 5.01019 10.9005L3.27019 9.1604C3.20019 9.0904 3.12019 9.04043 3.03019 9.00043C2.85019 8.92043 2.64019 8.92043 2.46019 9.00043C2.37019 9.04043 2.29019 9.0904 2.22019 9.1604L0.480195 10.9005C0.190195 11.1905 0.190195 11.6705 0.480195 11.9605C0.770195 12.2505 1.25019 12.2505 1.54019 11.9605L2.00019 11.5004V12.0004C2.00019 17.5204 6.49019 22.0104 12.0102 22.0104C15.0602 22.0104 17.9102 20.6404 19.8202 18.2604C20.0702 17.9404 20.0202 17.4604 19.6902 17.2004Z" fill="#1A1A1A"/>
<path d="M15.45 11.64C15.72 11.24 15.87 10.77 15.87 10.25C15.87 8.92 14.7 7.75 13.37 7.75H12.55V6.75C12.55 6.34 12.21 6 11.8 6C11.39 6 11.05 6.34 11.05 6.75V7.75H9C8.59 7.75 8.25 8.09 8.25 8.5V12V15.5C8.25 15.91 8.59 16.25 9 16.25H11.05V17.25C11.05 17.66 11.39 18 11.8 18C12.21 18 12.55 17.66 12.55 17.25V16.25H14C15.52 16.25 16.75 15.13 16.75 13.75C16.75 12.86 16.23 12.08 15.45 11.64ZM9.75 9.25H13.37C13.92 9.25 14.37 9.8 14.37 10.25C14.37 10.8 13.92 11.25 13.37 11.25H9.75V9.25ZM14 14.75H9.75V12.75H13.37H14C14.69 12.75 15.25 13.2 15.25 13.75C15.25 14.3 14.69 14.75 14 14.75Z" fill="#1A1A1A"/>
<path d="M34.972 17V8.228H38.464C40.192 8.228 41.248 9.128 41.248 10.592C41.248 11.564 40.816 12.26 39.988 12.608C40.912 12.908 41.38 13.604 41.38 14.624C41.38 16.124 40.336 17 38.524 17H34.972ZM38.332 9.584H36.508V11.972H38.368C39.208 11.972 39.676 11.528 39.676 10.748C39.676 9.992 39.196 9.584 38.332 9.584ZM38.464 13.268H36.508V15.644H38.464C39.328 15.644 39.808 15.224 39.808 14.432C39.808 13.688 39.316 13.268 38.464 13.268ZM43.3044 9.884C42.8004 9.884 42.4044 9.488 42.4044 8.996C42.4044 8.504 42.8004 8.12 43.3044 8.12C43.7844 8.12 44.1804 8.504 44.1804 8.996C44.1804 9.488 43.7844 9.884 43.3044 9.884ZM42.5724 17V11.072H44.0364V17H42.5724ZM47.565 17H46.101V12.296H44.961V11.072H46.101V9.224H47.565V11.072H48.717V12.296H47.565V17ZM49.2205 14.024C49.2205 12.188 50.4325 10.892 52.1845 10.892C53.8045 10.892 54.9085 11.792 55.0645 13.22H53.6005C53.4325 12.548 52.9405 12.2 52.2445 12.2C51.3085 12.2 50.6845 12.908 50.6845 14.024C50.6845 15.14 51.2605 15.836 52.1965 15.836C52.9285 15.836 53.4445 15.476 53.6005 14.828H55.0765C54.8965 16.208 53.7445 17.156 52.1965 17.156C50.3965 17.156 49.2205 15.908 49.2205 14.024ZM55.8182 14.024C55.8182 12.176 57.1502 10.904 58.9862 10.904C60.8222 10.904 62.1542 12.176 62.1542 14.024C62.1542 15.872 60.8222 17.144 58.9862 17.144C57.1502 17.144 55.8182 15.872 55.8182 14.024ZM57.2822 14.024C57.2822 15.104 57.9782 15.836 58.9862 15.836C59.9942 15.836 60.6902 15.104 60.6902 14.024C60.6902 12.944 59.9942 12.212 58.9862 12.212C57.9782 12.212 57.2822 12.944 57.2822 14.024ZM64.0466 9.884C63.5426 9.884 63.1466 9.488 63.1466 8.996C63.1466 8.504 63.5426 8.12 64.0466 8.12C64.5266 8.12 64.9226 8.504 64.9226 8.996C64.9226 9.488 64.5266 9.884 64.0466 9.884ZM63.3146 17V11.072H64.7786V17H63.3146ZM67.7552 17H66.2912V11.072H67.6472L67.7672 11.84C68.1392 11.24 68.8592 10.892 69.6632 10.892C71.1512 10.892 71.9192 11.816 71.9192 13.352V17H70.4552V13.7C70.4552 12.704 69.9632 12.224 69.2072 12.224C68.3072 12.224 67.7552 12.848 67.7552 13.808V17ZM73.3456 14.444V13.148H77.2096V14.444H73.3456ZM82.4213 11.048V12.404H81.8813C80.8253 12.404 80.1653 12.968 80.1653 14.12V17H78.7013V11.084H80.0813L80.1653 11.948C80.4173 11.36 80.9813 10.964 81.7733 10.964C81.9773 10.964 82.1813 10.988 82.4213 11.048ZM85.865 17.156C84.101 17.156 82.865 15.872 82.865 14.036C82.865 12.176 84.077 10.892 85.817 10.892C87.593 10.892 88.721 12.08 88.721 13.928V14.372L84.257 14.384C84.365 15.428 84.917 15.956 85.889 15.956C86.693 15.956 87.221 15.644 87.389 15.08H88.745C88.493 16.376 87.413 17.156 85.865 17.156ZM85.829 12.092C84.965 12.092 84.437 12.56 84.293 13.448H87.269C87.269 12.632 86.705 12.092 85.829 12.092ZM89.3047 11.072H90.1567V10.352C90.1567 8.744 91.0087 8.072 92.2927 8.072C92.5207 8.072 92.7967 8.084 93.0487 8.132V9.38H92.5327C91.7887 9.38 91.6087 9.764 91.6087 10.352V11.072H93.0247V12.296H91.6087V17H90.1567V12.296H89.3047V11.072ZM97.6791 11.048V12.404H97.1391C96.0831 12.404 95.4231 12.968 95.4231 14.12V17H93.9591V11.084H95.3391L95.4231 11.948C95.6751 11.36 96.2391 10.964 97.0311 10.964C97.2351 10.964 97.4391 10.988 97.6791 11.048ZM101.123 17.156C99.3588 17.156 98.1228 15.872 98.1228 14.036C98.1228 12.176 99.3348 10.892 101.075 10.892C102.851 10.892 103.979 12.08 103.979 13.928V14.372L99.5148 14.384C99.6228 15.428 100.175 15.956 101.147 15.956C101.951 15.956 102.479 15.644 102.647 15.08H104.003C103.751 16.376 102.671 17.156 101.123 17.156ZM101.087 12.092C100.223 12.092 99.6948 12.56 99.5508 13.448H102.527C102.527 12.632 101.963 12.092 101.087 12.092ZM104.695 15.2H106.087C106.099 15.716 106.483 16.04 107.155 16.04C107.839 16.04 108.211 15.764 108.211 15.332C108.211 15.032 108.055 14.816 107.527 14.696L106.459 14.444C105.391 14.204 104.875 13.7 104.875 12.752C104.875 11.588 105.859 10.892 107.227 10.892C108.559 10.892 109.459 11.66 109.471 12.812H108.079C108.067 12.308 107.731 11.984 107.167 11.984C106.591 11.984 106.255 12.248 106.255 12.692C106.255 13.028 106.519 13.244 107.023 13.364L108.091 13.616C109.087 13.844 109.591 14.3 109.591 15.212C109.591 16.412 108.571 17.156 107.107 17.156C105.631 17.156 104.695 16.364 104.695 15.2ZM112.169 17H110.705V8.072H112.181V11.84C112.553 11.264 113.249 10.892 114.101 10.892C115.565 10.892 116.333 11.816 116.333 13.352V17H114.869V13.7C114.869 12.704 114.377 12.224 113.633 12.224C112.709 12.224 112.169 12.872 112.169 13.76V17Z" fill="black"/>
</svg>
