<svg width="129" height="24" viewBox="0 0 129 24" fill="none" xmlns="http://www.w3.org/2000/svg">
<path opacity="0.4" d="M16.19 2H7.81C4.17 2 2 4.17 2 7.81V16.19C2 19.83 4.17 22 7.81 22H16.19C19.83 22 22 19.83 22 16.19V7.81C22 4.17 19.83 2 16.19 2Z" fill="#1A1A1A"/>
<path d="M18.3101 8.87012C18.3101 9.28012 17.9801 9.62012 17.5601 9.62012H12.3101C11.9001 9.62012 11.5601 9.28012 11.5601 8.87012C11.5601 8.46012 11.9001 8.12012 12.3101 8.12012H17.5601C17.9801 8.12012 18.3101 8.46012 18.3101 8.87012Z" fill="#1A1A1A"/>
<path d="M9.97006 7.90006L7.72006 10.1501C7.57006 10.3001 7.38006 10.3701 7.19006 10.3701C7.00006 10.3701 6.80006 10.3001 6.66006 10.1501L5.91006 9.40006C5.61006 9.11006 5.61006 8.63006 5.91006 8.34006C6.20006 8.05006 6.67006 8.05006 6.97006 8.34006L7.19006 8.56006L8.91006 6.84006C9.20006 6.55006 9.67006 6.55006 9.97006 6.84006C10.2601 7.13006 10.2601 7.61006 9.97006 7.90006Z" fill="#1A1A1A"/>
<path d="M18.3101 15.8701C18.3101 16.2801 17.9801 16.6201 17.5601 16.6201H12.3101C11.9001 16.6201 11.5601 16.2801 11.5601 15.8701C11.5601 15.4601 11.9001 15.1201 12.3101 15.1201H17.5601C17.9801 15.1201 18.3101 15.4601 18.3101 15.8701Z" fill="#1A1A1A"/>
<path d="M9.97006 14.9001L7.72006 17.1501C7.57006 17.3001 7.38006 17.3701 7.19006 17.3701C7.00006 17.3701 6.80006 17.3001 6.66006 17.1501L5.91006 16.4001C5.61006 16.1101 5.61006 15.6301 5.91006 15.3401C6.20006 15.0501 6.67006 15.0501 6.97006 15.3401L7.19006 15.5601L8.91006 13.8401C9.20006 13.5501 9.67006 13.5501 9.97006 13.8401C10.2601 14.1301 10.2601 14.6101 9.97006 14.9001Z" fill="#1A1A1A"/>
<path d="M34.204 8.644V7.228H40.876V8.644H38.308V16H36.772V8.644H34.204ZM42.5903 16.156C41.3303 16.156 40.5623 15.424 40.5623 14.308C40.5623 13.216 41.3543 12.532 42.7583 12.424L44.5343 12.292V12.16C44.5343 11.356 44.0543 11.032 43.3103 11.032C42.4463 11.032 41.9663 11.392 41.9663 12.016H40.7183C40.7183 10.732 41.7743 9.892 43.3823 9.892C44.9783 9.892 45.9623 10.756 45.9623 12.4V16H44.6783L44.5703 15.124C44.3183 15.736 43.5143 16.156 42.5903 16.156ZM43.0703 15.052C43.9703 15.052 44.5463 14.512 44.5463 13.6V13.288L43.3103 13.384C42.3983 13.468 42.0503 13.768 42.0503 14.248C42.0503 14.788 42.4103 15.052 43.0703 15.052ZM46.9445 14.2H48.3365C48.3485 14.716 48.7325 15.04 49.4045 15.04C50.0885 15.04 50.4605 14.764 50.4605 14.332C50.4605 14.032 50.3045 13.816 49.7765 13.696L48.7085 13.444C47.6405 13.204 47.1245 12.7 47.1245 11.752C47.1245 10.588 48.1085 9.892 49.4765 9.892C50.8085 9.892 51.7085 10.66 51.7205 11.812H50.3285C50.3165 11.308 49.9805 10.984 49.4165 10.984C48.8405 10.984 48.5045 11.248 48.5045 11.692C48.5045 12.028 48.7685 12.244 49.2725 12.364L50.3405 12.616C51.3365 12.844 51.8405 13.3 51.8405 14.212C51.8405 15.412 50.8205 16.156 49.3565 16.156C47.8805 16.156 46.9445 15.364 46.9445 14.2ZM54.4312 16H52.9792V7.072H54.4312V12.556L56.7352 10.072H58.5712L56.3152 12.424L58.5232 16H56.8432L55.2952 13.504L54.4312 14.404V16ZM58.6268 13.444V12.148H62.4908V13.444H58.6268ZM63.4445 14.2H64.8365C64.8485 14.716 65.2325 15.04 65.9045 15.04C66.5885 15.04 66.9605 14.764 66.9605 14.332C66.9605 14.032 66.8045 13.816 66.2765 13.696L65.2085 13.444C64.1405 13.204 63.6245 12.7 63.6245 11.752C63.6245 10.588 64.6085 9.892 65.9765 9.892C67.3085 9.892 68.2085 10.66 68.2205 11.812H66.8285C66.8165 11.308 66.4805 10.984 65.9165 10.984C65.3405 10.984 65.0045 11.248 65.0045 11.692C65.0045 12.028 65.2685 12.244 65.7725 12.364L66.8405 12.616C67.8365 12.844 68.3405 13.3 68.3405 14.212C68.3405 15.412 67.3205 16.156 65.8565 16.156C64.3805 16.156 63.4445 15.364 63.4445 14.2ZM69.1072 12.964C69.1072 11.104 70.2112 9.892 71.8792 9.892C72.7792 9.892 73.5592 10.288 73.9192 10.972L74.0152 10.072H75.3592V18.748H73.9072V15.208C73.5352 15.808 72.7552 16.156 71.8792 16.156C70.1152 16.156 69.1072 14.812 69.1072 12.964ZM70.5712 13.036C70.5712 14.092 71.1952 14.836 72.2152 14.836C73.2352 14.836 73.8952 14.104 73.8952 13.036C73.8952 11.968 73.2352 11.224 72.2152 11.224C71.1952 11.224 70.5712 11.98 70.5712 13.036ZM80.9049 10.072H82.3689V16H81.0129L80.9049 15.208C80.5449 15.772 79.7769 16.156 78.9849 16.156C77.6169 16.156 76.8129 15.232 76.8129 13.78V10.072H78.2769V13.264C78.2769 14.392 78.7209 14.848 79.5369 14.848C80.4609 14.848 80.9049 14.308 80.9049 13.18V10.072ZM85.645 16.156C84.385 16.156 83.617 15.424 83.617 14.308C83.617 13.216 84.409 12.532 85.813 12.424L87.589 12.292V12.16C87.589 11.356 87.109 11.032 86.365 11.032C85.501 11.032 85.021 11.392 85.021 12.016H83.773C83.773 10.732 84.829 9.892 86.437 9.892C88.033 9.892 89.017 10.756 89.017 12.4V16H87.733L87.625 15.124C87.373 15.736 86.569 16.156 85.645 16.156ZM86.125 15.052C87.025 15.052 87.601 14.512 87.601 13.6V13.288L86.365 13.384C85.453 13.468 85.105 13.768 85.105 14.248C85.105 14.788 85.465 15.052 86.125 15.052ZM94.1752 10.048V11.404H93.6352C92.5792 11.404 91.9192 11.968 91.9192 13.12V16H90.4552V10.084H91.8352L91.9192 10.948C92.1712 10.36 92.7352 9.964 93.5272 9.964C93.7312 9.964 93.9352 9.988 94.1752 10.048ZM97.6189 16.156C95.8549 16.156 94.6189 14.872 94.6189 13.036C94.6189 11.176 95.8309 9.892 97.5709 9.892C99.3469 9.892 100.475 11.08 100.475 12.928V13.372L96.0109 13.384C96.1189 14.428 96.6709 14.956 97.6429 14.956C98.4469 14.956 98.9749 14.644 99.1429 14.08H100.499C100.247 15.376 99.1669 16.156 97.6189 16.156ZM97.5829 11.092C96.7189 11.092 96.1909 11.56 96.0469 12.448H99.0229C99.0229 11.632 98.4589 11.092 97.5829 11.092Z" fill="black"/>
</svg>
