<svg width="130" height="24" viewBox="0 0 130 24" fill="none" xmlns="http://www.w3.org/2000/svg">
<path d="M14.3001 10.1301C14.5801 11.2301 14.0901 12.2501 13.2501 12.7701V14.7501C13.2501 15.4401 12.6901 16.0001 12.0001 16.0001C11.3101 16.0001 10.7501 15.4401 10.7501 14.7501V12.7701C10.0701 12.3501 9.62012 11.6001 9.62012 10.7501C9.62012 9.23006 11.0601 8.05006 12.6401 8.47006C13.4401 8.68006 14.0901 9.33006 14.3001 10.1301Z" fill="#1A1A1A"/>
<path opacity="0.4" d="M12 22.75C6.07 22.75 1.25 17.93 1.25 12C1.25 6.07 6.07 1.25 12 1.25C16.74 1.25 20.86 4.29 22.27 8.8C22.39 9.2 22.17 9.62 21.78 9.74C21.38 9.86 20.96 9.64 20.84 9.25C19.63 5.36 16.08 2.75 12.01 2.75C6.90999 2.75 2.75999 6.9 2.75999 12C2.75999 17.1 6.90999 21.25 12.01 21.25C16.07 21.25 19.62 18.65 20.83 14.78C20.95 14.38 21.37 14.17 21.77 14.29C22.17 14.41 22.38 14.84 22.26 15.23C20.84 19.73 16.72 22.75 12 22.75Z" fill="#1A1A1A"/>
<path d="M38.68 16.144C36.124 16.144 34.468 14.368 34.468 11.62C34.468 8.896 36.184 7.084 38.752 7.084C40.828 7.084 42.376 8.296 42.676 10.18H41.056C40.756 9.16 39.88 8.56 38.716 8.56C37.096 8.56 36.076 9.736 36.076 11.608C36.076 13.468 37.108 14.668 38.716 14.668C39.904 14.668 40.816 14.044 41.104 13.072H42.7C42.364 14.92 40.756 16.144 38.68 16.144ZM44.5935 8.884C44.0895 8.884 43.6935 8.488 43.6935 7.996C43.6935 7.504 44.0895 7.12 44.5935 7.12C45.0735 7.12 45.4695 7.504 45.4695 7.996C45.4695 8.488 45.0735 8.884 44.5935 8.884ZM43.8615 16V10.072H45.3255V16H43.8615ZM48.518 16L46.166 10.072H47.726L48.758 12.796C49.01 13.504 49.214 14.116 49.286 14.44C49.37 14.068 49.586 13.444 49.838 12.796L50.918 10.072H52.43L49.958 16H48.518ZM54.0036 8.884C53.4996 8.884 53.1036 8.488 53.1036 7.996C53.1036 7.504 53.4996 7.12 54.0036 7.12C54.4836 7.12 54.8796 7.504 54.8796 7.996C54.8796 8.488 54.4836 8.884 54.0036 8.884ZM53.2716 16V10.072H54.7356V16H53.2716ZM55.9002 13.024C55.9002 11.188 57.1122 9.892 58.8642 9.892C60.4842 9.892 61.5882 10.792 61.7442 12.22H60.2802C60.1122 11.548 59.6202 11.2 58.9242 11.2C57.9882 11.2 57.3642 11.908 57.3642 13.024C57.3642 14.14 57.9402 14.836 58.8762 14.836C59.6082 14.836 60.1242 14.476 60.2802 13.828H61.7562C61.5762 15.208 60.4242 16.156 58.8762 16.156C57.0762 16.156 55.9002 14.908 55.9002 13.024ZM62.7635 13.444V12.148H66.6275V13.444H62.7635ZM71.0593 18.292H69.8953C68.6953 16.924 67.9033 14.776 67.9033 12.472C67.9033 10.372 68.5753 8.164 69.8953 6.664H71.0593C70.0633 8.02 69.3793 10.144 69.3793 12.472C69.3793 14.596 69.9673 16.804 71.0593 18.292ZM71.4627 13.024C71.4627 11.188 72.6747 9.892 74.4267 9.892C76.0467 9.892 77.1507 10.792 77.3067 12.22H75.8427C75.6747 11.548 75.1827 11.2 74.4867 11.2C73.5507 11.2 72.9267 11.908 72.9267 13.024C72.9267 14.14 73.5027 14.836 74.4387 14.836C75.1707 14.836 75.6867 14.476 75.8427 13.828H77.3187C77.1387 15.208 75.9867 16.156 74.4387 16.156C72.6387 16.156 71.4627 14.908 71.4627 13.024ZM79.9594 16L77.6074 10.072H79.1674L80.1994 12.796C80.4514 13.504 80.6554 14.116 80.7274 14.44C80.8114 14.068 81.0274 13.444 81.2794 12.796L82.3594 10.072H83.8714L81.3994 16H79.9594ZM84.0721 13.024C84.0721 11.188 85.2841 9.892 87.0361 9.892C88.6561 9.892 89.7601 10.792 89.9161 12.22H88.4521C88.2841 11.548 87.7921 11.2 87.0961 11.2C86.1601 11.2 85.5361 11.908 85.5361 13.024C85.5361 14.14 86.1121 14.836 87.0481 14.836C87.7801 14.836 88.2961 14.476 88.4521 13.828H89.9281C89.7481 15.208 88.5961 16.156 87.0481 16.156C85.2481 16.156 84.0721 14.908 84.0721 13.024ZM91.4257 18.292H90.2617C91.3657 16.804 91.9417 14.596 91.9417 12.472C91.9417 10.144 91.2577 8.02 90.2617 6.664H91.4257C92.7457 8.164 93.4297 10.372 93.4297 12.472C93.4297 14.776 92.6257 16.924 91.4257 18.292Z" fill="black"/>
</svg>
