<svg width="110" height="24" viewBox="0 0 110 24" fill="none" xmlns="http://www.w3.org/2000/svg">
<path d="M7.92999 16.28C7.82999 16.17 7.71998 16.06 7.59998 15.97C6.89998 15.36 6 15 5 15C4.29 15 3.61998 15.19 3.03998 15.52C2.84998 15.62 2.67 15.74 2.5 15.88C1.58 16.61 1 17.74 1 19C1 19.75 1.21002 20.46 1.58002 21.06C1.67002 21.22 1.78002 21.37 1.90002 21.51C1.92002 21.54 1.94997 21.56 1.96997 21.59C2.68997 22.45 3.78 23 5 23C6.01 23 6.93001 22.63 7.63 22C7.67 21.97 7.69998 21.94 7.72998 21.9C7.99998 21.67 8.22998 21.38 8.41998 21.06C8.78998 20.46 9 19.75 9 19C9 17.95 8.58999 17 7.92999 16.28ZM6.5 19.73H3.51001C3.10001 19.73 2.76001 19.39 2.76001 18.98C2.76001 18.57 3.10001 18.23 3.51001 18.23H6.5C6.91 18.23 7.25 18.57 7.25 18.98C7.25 19.39 6.91 19.73 6.5 19.73Z" fill="#1A1A1A"/>
<path opacity="0.4" d="M21.05 11.7097V17.6997C21.05 20.4597 18.81 22.6997 16.05 22.6997H7.31006C7.08006 22.6997 6.85007 22.6797 6.63007 22.6497C7.00007 22.4897 7.33007 22.2697 7.63007 21.9997C7.67007 21.9697 7.70004 21.9397 7.73004 21.8997C8.00004 21.6697 8.23004 21.3797 8.42004 21.0597C8.79004 20.4597 9.00006 19.7497 9.00006 18.9997C9.00006 17.9497 8.59005 16.9997 7.93005 16.2797C7.83005 16.1697 7.72004 16.0597 7.60004 15.9697C6.90004 15.3597 6.00006 14.9997 5.00006 14.9997C4.29006 14.9997 3.62004 15.1897 3.04004 15.5197C2.85004 15.6197 2.67006 15.7397 2.50006 15.8797C2.43006 15.9297 2.37006 15.9897 2.31006 16.0497V11.7797C3.07006 12.5997 4.15007 13.0697 5.32007 13.0697C6.58007 13.0697 7.79005 12.4397 8.55005 11.4297C9.23005 12.4397 10.3901 13.0697 11.6801 13.0697C12.9601 13.0697 14.1 12.4697 14.79 11.4697C15.56 12.4597 16.7501 13.0697 17.9901 13.0697C19.2001 13.0697 20.3 12.5797 21.05 11.7097Z" fill="#1A1A1A"/>
<path d="M14.67 1.57031H8.67002L7.93003 8.9303C7.87003 9.6103 7.97001 10.2503 8.22001 10.8303C8.80001 12.1903 10.16 13.0703 11.68 13.0703C13.22 13.0703 14.5501 12.2103 15.1501 10.8403C15.3301 10.4103 15.44 9.91033 15.45 9.40033V9.21033L14.67 1.57031Z" fill="#1A1A1A"/>
<path opacity="0.6" d="M22.0402 8.5896L21.7602 5.80957C21.3402 2.78957 19.9702 1.55957 17.0402 1.55957H13.2002L13.9402 9.05957C13.9502 9.15957 13.9602 9.26959 13.9602 9.45959C14.0202 9.9796 14.1802 10.4596 14.4202 10.8896C15.1402 12.2096 16.5402 13.0596 18.0002 13.0596C19.3302 13.0596 20.5302 12.4696 21.2802 11.4296C21.8702 10.6396 22.1402 9.6296 22.0402 8.5896Z" fill="#1A1A1A"/>
<path opacity="0.6" d="M6.26983 1.57031C3.32983 1.57031 1.96978 2.80028 1.53978 5.85028L1.26983 8.60028C1.16983 9.67028 1.45983 10.7103 2.08983 11.5203C2.84983 12.5103 4.01981 13.0703 5.31981 13.0703C6.77981 13.0703 8.17982 12.2203 8.88982 10.9203C9.14982 10.4703 9.3198 9.95028 9.3698 9.41028L10.1498 1.58032H6.26983V1.57031Z" fill="#1A1A1A"/>
<path d="M34.468 10.676C34.468 9.14 35.74 8.072 37.588 8.072C39.364 8.072 40.492 9.056 40.54 10.64H39.004C38.968 9.884 38.428 9.44 37.564 9.44C36.616 9.44 36.004 9.896 36.004 10.628C36.004 11.252 36.34 11.6 37.072 11.768L38.452 12.068C39.952 12.392 40.684 13.16 40.684 14.468C40.684 16.1 39.412 17.156 37.48 17.156C35.608 17.156 34.384 16.16 34.348 14.588H35.884C35.896 15.332 36.496 15.776 37.48 15.776C38.5 15.776 39.148 15.332 39.148 14.6C39.148 14.012 38.848 13.664 38.128 13.508L36.736 13.196C35.248 12.872 34.468 12.02 34.468 10.676ZM43.3216 17H41.8576V8.072H43.3336V11.84C43.7056 11.264 44.4016 10.892 45.2536 10.892C46.7176 10.892 47.4856 11.816 47.4856 13.352V17H46.0216V13.7C46.0216 12.704 45.5296 12.224 44.7856 12.224C43.8616 12.224 43.3216 12.872 43.3216 13.76V17ZM48.576 14.024C48.576 12.176 49.908 10.904 51.744 10.904C53.58 10.904 54.912 12.176 54.912 14.024C54.912 15.872 53.58 17.144 51.744 17.144C49.908 17.144 48.576 15.872 48.576 14.024ZM50.04 14.024C50.04 15.104 50.736 15.836 51.744 15.836C52.752 15.836 53.448 15.104 53.448 14.024C53.448 12.944 52.752 12.212 51.744 12.212C50.736 12.212 50.04 12.944 50.04 14.024ZM56.0724 19.748V11.072H57.4284L57.5244 11.972C57.8844 11.288 58.6644 10.892 59.5644 10.892C61.2324 10.892 62.3364 12.104 62.3364 13.964C62.3364 15.812 61.3284 17.156 59.5644 17.156C58.6764 17.156 57.9084 16.808 57.5364 16.208V19.748H56.0724ZM57.5484 14.036C57.5484 15.104 58.2084 15.836 59.2164 15.836C60.2484 15.836 60.8604 15.092 60.8604 14.036C60.8604 12.98 60.2484 12.224 59.2164 12.224C58.2084 12.224 57.5484 12.968 57.5484 14.036ZM63.4901 14.444V13.148H67.3541V14.444H63.4901ZM72.5658 11.048V12.404H72.0258C70.9698 12.404 70.3098 12.968 70.3098 14.12V17H68.8458V11.084H70.2258L70.3098 11.948C70.5618 11.36 71.1258 10.964 71.9178 10.964C72.1218 10.964 72.3258 10.988 72.5658 11.048ZM76.0096 17.156C74.2456 17.156 73.0096 15.872 73.0096 14.036C73.0096 12.176 74.2216 10.892 75.9616 10.892C77.7376 10.892 78.8656 12.08 78.8656 13.928V14.372L74.4016 14.384C74.5096 15.428 75.0616 15.956 76.0336 15.956C76.8376 15.956 77.3656 15.644 77.5336 15.08H78.8896C78.6376 16.376 77.5576 17.156 76.0096 17.156ZM75.9736 12.092C75.1096 12.092 74.5816 12.56 74.4376 13.448H77.4136C77.4136 12.632 76.8496 12.092 75.9736 12.092ZM81.5013 17H80.0373V11.072H81.3813L81.5013 11.768C81.8013 11.276 82.4013 10.892 83.2533 10.892C84.1533 10.892 84.7773 11.336 85.0893 12.02C85.3893 11.336 86.0853 10.892 86.9853 10.892C88.4253 10.892 89.2173 11.756 89.2173 13.124V17H87.7653V13.508C87.7653 12.656 87.3093 12.212 86.6133 12.212C85.9053 12.212 85.3653 12.668 85.3653 13.64V17H83.9013V13.496C83.9013 12.668 83.4573 12.224 82.7613 12.224C82.0653 12.224 81.5013 12.68 81.5013 13.64V17ZM90.3064 14.024C90.3064 12.176 91.6384 10.904 93.4744 10.904C95.3104 10.904 96.6424 12.176 96.6424 14.024C96.6424 15.872 95.3104 17.144 93.4744 17.144C91.6384 17.144 90.3064 15.872 90.3064 14.024ZM91.7704 14.024C91.7704 15.104 92.4664 15.836 93.4744 15.836C94.4824 15.836 95.1784 15.104 95.1784 14.024C95.1784 12.944 94.4824 12.212 93.4744 12.212C92.4664 12.212 91.7704 12.944 91.7704 14.024ZM99.1899 17L96.8379 11.072H98.3979L99.4299 13.796C99.6819 14.504 99.8859 15.116 99.9579 15.44C100.042 15.068 100.258 14.444 100.51 13.796L101.59 11.072H103.102L100.63 17H99.1899ZM106.303 17.156C104.539 17.156 103.303 15.872 103.303 14.036C103.303 12.176 104.515 10.892 106.255 10.892C108.031 10.892 109.159 12.08 109.159 13.928V14.372L104.695 14.384C104.803 15.428 105.355 15.956 106.327 15.956C107.131 15.956 107.659 15.644 107.827 15.08H109.183C108.931 16.376 107.851 17.156 106.303 17.156ZM106.267 12.092C105.403 12.092 104.875 12.56 104.731 13.448H107.707C107.707 12.632 107.143 12.092 106.267 12.092Z" fill="black"/>
</svg>
