<svg width="125" height="24" viewBox="0 0 125 24" fill="none" xmlns="http://www.w3.org/2000/svg">
<path opacity="0.4" d="M22 12C22 14.76 19.76 17 17 17C17 14.24 14.76 12 12 12C14.76 12 17 9.76 17 7C19.76 7 22 9.24 22 12Z" fill="#1A1A1A"/>
<path d="M17 17C14.24 17 12 14.76 12 12C14.76 12 17 14.24 17 17Z" fill="#1A1A1A"/>
<path opacity="0.4" d="M17 17C17 19.76 14.76 22 12 22C9.24 22 7 19.76 7 17C9.76 17 12 14.76 12 12C12 14.76 14.24 17 17 17Z" fill="#1A1A1A"/>
<path d="M17 7C17 9.76 14.76 12 12 12C12 9.24 14.24 7 17 7Z" fill="#1A1A1A"/>
<path opacity="0.4" d="M17 7C14.24 7 12 9.24 12 12C12 9.24 9.76 7 7 7C7 4.24 9.24 2 12 2C14.76 2 17 4.24 17 7Z" fill="#1A1A1A"/>
<path d="M12 12C12 14.76 9.76 17 7 17C7 14.24 9.24 12 12 12Z" fill="#1A1A1A"/>
<path d="M12 12C9.24 12 7 9.76 7 7C9.76 7 12 9.24 12 12Z" fill="#1A1A1A"/>
<path opacity="0.4" d="M12 12C9.24 12 7 14.24 7 17C4.24 17 2 14.76 2 12C2 9.24 4.24 7 7 7C7 9.76 9.24 12 12 12Z" fill="#1A1A1A"/>
<path d="M42.976 11.608C42.976 14.272 41.224 16.144 38.704 16.144C36.196 16.144 34.468 14.284 34.468 11.608C34.468 8.944 36.208 7.072 38.716 7.072C41.224 7.072 42.976 8.932 42.976 11.608ZM41.356 11.608C41.356 9.736 40.324 8.548 38.716 8.548C37.108 8.548 36.076 9.736 36.076 11.608C36.076 13.48 37.108 14.668 38.716 14.668C40.324 14.668 41.356 13.456 41.356 11.608ZM45.6656 16H44.2136V7.072H45.6656V12.556L47.9696 10.072H49.8056L47.5496 12.424L49.7576 16H48.0776L46.5296 13.504L45.6656 14.404V16ZM52.0026 16H50.6466V7.072H52.1106V10.936C52.4946 10.276 53.2866 9.88 54.1866 9.88C55.8786 9.88 56.9106 11.2 56.9106 13.072C56.9106 14.896 55.7946 16.156 54.0906 16.156C53.2026 16.156 52.4466 15.76 52.0986 15.076L52.0026 16ZM52.1226 13.012C52.1226 14.08 52.7826 14.812 53.7906 14.812C54.8226 14.812 55.4346 14.068 55.4346 13.012C55.4346 11.956 54.8226 11.2 53.7906 11.2C52.7826 11.2 52.1226 11.944 52.1226 13.012ZM58.0643 13.444V12.148H61.9283V13.444H58.0643ZM66.3601 18.292H65.1961C63.9961 16.924 63.2041 14.776 63.2041 12.472C63.2041 10.372 63.8761 8.164 65.1961 6.664H66.3601C65.3641 8.02 64.6801 10.144 64.6801 12.472C64.6801 14.596 65.2681 16.804 66.3601 18.292ZM66.7635 13.024C66.7635 11.176 68.0955 9.904 69.9315 9.904C71.7675 9.904 73.0995 11.176 73.0995 13.024C73.0995 14.872 71.7675 16.144 69.9315 16.144C68.0955 16.144 66.7635 14.872 66.7635 13.024ZM68.2275 13.024C68.2275 14.104 68.9235 14.836 69.9315 14.836C70.9395 14.836 71.6355 14.104 71.6355 13.024C71.6355 11.944 70.9395 11.212 69.9315 11.212C68.9235 11.212 68.2275 11.944 68.2275 13.024ZM75.7359 16H74.2839V7.072H75.7359V12.556L78.0399 10.072H79.8759L77.6199 12.424L79.8279 16H78.1479L76.5999 13.504L75.7359 14.404V16ZM82.0729 16H80.7169V7.072H82.1809V10.936C82.5649 10.276 83.3569 9.88 84.2569 9.88C85.9489 9.88 86.9809 11.2 86.9809 13.072C86.9809 14.896 85.8649 16.156 84.1609 16.156C83.2729 16.156 82.5169 15.76 82.1689 15.076L82.0729 16ZM82.1929 13.012C82.1929 14.08 82.8529 14.812 83.8609 14.812C84.8929 14.812 85.5049 14.068 85.5049 13.012C85.5049 11.956 84.8929 11.2 83.8609 11.2C82.8529 11.2 82.1929 11.944 82.1929 13.012ZM88.5546 18.292H87.3906C88.4946 16.804 89.0706 14.596 89.0706 12.472C89.0706 10.144 88.3866 8.02 87.3906 6.664H88.5546C89.8746 8.164 90.5586 10.372 90.5586 12.472C90.5586 14.776 89.7546 16.924 88.5546 18.292Z" fill="black"/>
</svg>
