<svg width="101" height="24" viewBox="0 0 101 24" fill="none" xmlns="http://www.w3.org/2000/svg">
<path opacity="0.4" d="M12.0001 22.0002C16.7884 22.0002 20.6701 18.1185 20.6701 13.3302C20.6701 8.54185 16.7884 4.66016 12.0001 4.66016C7.21177 4.66016 3.33008 8.54185 3.33008 13.3302C3.33008 18.1185 7.21177 22.0002 12.0001 22.0002Z" fill="#1A1A1A"/>
<path d="M12 13.75C11.59 13.75 11.25 13.41 11.25 13V8C11.25 7.59 11.59 7.25 12 7.25C12.41 7.25 12.75 7.59 12.75 8V13C12.75 13.41 12.41 13.75 12 13.75Z" fill="#1A1A1A"/>
<path d="M14.8896 3.45H9.10965C8.70965 3.45 8.38965 3.13 8.38965 2.73C8.38965 2.33 8.70965 2 9.10965 2H14.8896C15.2896 2 15.6096 2.32 15.6096 2.72C15.6096 3.12 15.2896 3.45 14.8896 3.45Z" fill="#1A1A1A"/>
<path d="M34.204 8.644V7.228H40.876V8.644H38.308V16H36.772V8.644H34.204ZM42.5661 8.884C42.0621 8.884 41.6661 8.488 41.6661 7.996C41.6661 7.504 42.0621 7.12 42.5661 7.12C43.0461 7.12 43.4421 7.504 43.4421 7.996C43.4421 8.488 43.0461 8.884 42.5661 8.884ZM41.8341 16V10.072H43.2981V16H41.8341ZM46.2747 16H44.8107V10.072H46.1547L46.2747 10.768C46.5747 10.276 47.1747 9.892 48.0267 9.892C48.9267 9.892 49.5507 10.336 49.8627 11.02C50.1627 10.336 50.8587 9.892 51.7587 9.892C53.1987 9.892 53.9907 10.756 53.9907 12.124V16H52.5387V12.508C52.5387 11.656 52.0827 11.212 51.3867 11.212C50.6787 11.212 50.1387 11.668 50.1387 12.64V16H48.6747V12.496C48.6747 11.668 48.2307 11.224 47.5347 11.224C46.8387 11.224 46.2747 11.68 46.2747 12.64V16ZM58.0799 16.156C56.3159 16.156 55.0799 14.872 55.0799 13.036C55.0799 11.176 56.2919 9.892 58.0319 9.892C59.8079 9.892 60.9359 11.08 60.9359 12.928V13.372L56.4719 13.384C56.5799 14.428 57.1319 14.956 58.1039 14.956C58.9079 14.956 59.4359 14.644 59.6039 14.08H60.9599C60.7079 15.376 59.6279 16.156 58.0799 16.156ZM58.0439 11.092C57.1799 11.092 56.6519 11.56 56.5079 12.448H59.4839C59.4839 11.632 58.9199 11.092 58.0439 11.092ZM65.8276 10.048V11.404H65.2876C64.2316 11.404 63.5716 11.968 63.5716 13.12V16H62.1076V10.084H63.4876L63.5716 10.948C63.8236 10.36 64.3876 9.964 65.1796 9.964C65.3836 9.964 65.5876 9.988 65.8276 10.048Z" fill="black"/>
</svg>
