<svg width="100" height="24" viewBox="0 0 100 24" fill="none" xmlns="http://www.w3.org/2000/svg">
<path d="M16 8H8V16H16V8Z" fill="#1A1A1A"/>
<path opacity="0.4" d="M5 22C6.65 22 8 20.65 8 19V16H5C3.35 16 2 17.35 2 19C2 20.65 3.35 22 5 22Z" fill="#1A1A1A"/>
<path opacity="0.4" d="M5 8H8V5C8 3.35 6.65 2 5 2C3.35 2 2 3.35 2 5C2 6.65 3.35 8 5 8Z" fill="#1A1A1A"/>
<path opacity="0.4" d="M16 8H19C20.65 8 22 6.65 22 5C22 3.35 20.65 2 19 2C17.35 2 16 3.35 16 5V8Z" fill="#1A1A1A"/>
<path opacity="0.4" d="M19 22C20.65 22 22 20.65 22 19C22 17.35 20.65 16 19 16H16V19C16 20.65 17.35 22 19 22Z" fill="#1A1A1A"/>
<path d="M38.68 16.144C36.124 16.144 34.468 14.368 34.468 11.62C34.468 8.896 36.184 7.084 38.752 7.084C40.828 7.084 42.376 8.296 42.676 10.18H41.056C40.756 9.16 39.88 8.56 38.716 8.56C37.096 8.56 36.076 9.736 36.076 11.608C36.076 13.468 37.108 14.668 38.716 14.668C39.904 14.668 40.816 14.044 41.104 13.072H42.7C42.364 14.92 40.756 16.144 38.68 16.144ZM43.5135 13.024C43.5135 11.176 44.8455 9.904 46.6815 9.904C48.5175 9.904 49.8495 11.176 49.8495 13.024C49.8495 14.872 48.5175 16.144 46.6815 16.144C44.8455 16.144 43.5135 14.872 43.5135 13.024ZM44.9775 13.024C44.9775 14.104 45.6735 14.836 46.6815 14.836C47.6895 14.836 48.3855 14.104 48.3855 13.024C48.3855 11.944 47.6895 11.212 46.6815 11.212C45.6735 11.212 44.9775 11.944 44.9775 13.024ZM52.4739 16H51.0099V10.072H52.3539L52.4739 10.768C52.7739 10.276 53.3739 9.892 54.2259 9.892C55.1259 9.892 55.7499 10.336 56.0619 11.02C56.3619 10.336 57.0579 9.892 57.9579 9.892C59.3979 9.892 60.1899 10.756 60.1899 12.124V16H58.7379V12.508C58.7379 11.656 58.2819 11.212 57.5859 11.212C56.8779 11.212 56.3379 11.668 56.3379 12.64V16H54.8739V12.496C54.8739 11.668 54.4299 11.224 53.7339 11.224C53.0379 11.224 52.4739 11.68 52.4739 12.64V16ZM63.0911 16H61.6271V10.072H62.9711L63.0911 10.768C63.3911 10.276 63.9911 9.892 64.8431 9.892C65.7431 9.892 66.3671 10.336 66.6791 11.02C66.9791 10.336 67.6751 9.892 68.5751 9.892C70.0151 9.892 70.8071 10.756 70.8071 12.124V16H69.3551V12.508C69.3551 11.656 68.8991 11.212 68.2031 11.212C67.4951 11.212 66.9551 11.668 66.9551 12.64V16H65.4911V12.496C65.4911 11.668 65.0471 11.224 64.3511 11.224C63.6551 11.224 63.0911 11.68 63.0911 12.64V16ZM74.0083 16.156C72.7483 16.156 71.9803 15.424 71.9803 14.308C71.9803 13.216 72.7723 12.532 74.1763 12.424L75.9523 12.292V12.16C75.9523 11.356 75.4723 11.032 74.7283 11.032C73.8643 11.032 73.3843 11.392 73.3843 12.016H72.1363C72.1363 10.732 73.1923 9.892 74.8003 9.892C76.3963 9.892 77.3803 10.756 77.3803 12.4V16H76.0963L75.9883 15.124C75.7363 15.736 74.9323 16.156 74.0083 16.156ZM74.4883 15.052C75.3883 15.052 75.9643 14.512 75.9643 13.6V13.288L74.7283 13.384C73.8163 13.468 73.4683 13.768 73.4683 14.248C73.4683 14.788 73.8283 15.052 74.4883 15.052ZM80.2825 16H78.8185V10.072H80.1745L80.2945 10.84C80.6665 10.24 81.3865 9.892 82.1905 9.892C83.6785 9.892 84.4465 10.816 84.4465 12.352V16H82.9825V12.7C82.9825 11.704 82.4905 11.224 81.7345 11.224C80.8345 11.224 80.2825 11.848 80.2825 12.808V16ZM88.3209 16.156C86.6049 16.156 85.5369 14.896 85.5369 13.06C85.5369 11.212 86.6169 9.892 88.4049 9.892C89.2329 9.892 89.9649 10.24 90.3369 10.828V7.072H91.7889V16H90.4449L90.3489 15.076C89.9889 15.76 89.2209 16.156 88.3209 16.156ZM88.6449 14.812C89.6649 14.812 90.3249 14.08 90.3249 13.012C90.3249 11.944 89.6649 11.2 88.6449 11.2C87.6249 11.2 87.0009 11.956 87.0009 13.012C87.0009 14.068 87.6249 14.812 88.6449 14.812Z" fill="black"/>
</svg>
