<svg width="101" height="24" viewBox="0 0 101 24" fill="none" xmlns="http://www.w3.org/2000/svg">
<path opacity="0.4" d="M16.8203 2H7.18031C5.05031 2 3.32031 3.74 3.32031 5.86V19.95C3.32031 21.75 4.61031 22.51 6.19031 21.64L11.0703 18.93C11.5903 18.64 12.4303 18.64 12.9403 18.93L17.8203 21.64C19.4003 22.52 20.6903 21.76 20.6903 19.95V5.86C20.6803 3.74 18.9503 2 16.8203 2Z" fill="#1A1A1A"/>
<path d="M11.9998 10.2796C10.9798 10.2796 9.95976 10.0996 8.98976 9.74956C8.59976 9.60956 8.39976 9.17956 8.53976 8.78956C8.68976 8.39956 9.11976 8.19956 9.50976 8.33956C11.1198 8.91956 12.8898 8.91956 14.4998 8.33956C14.8898 8.19956 15.3198 8.39956 15.4598 8.78956C15.5998 9.17956 15.3998 9.60956 15.0098 9.74956C14.0398 10.0996 13.0198 10.2796 11.9998 10.2796Z" fill="#1A1A1A"/>
<path d="M39.772 12.412H36.508V16H34.972V7.228H40.396V8.644H36.508V11.032H39.772V12.412ZM44.9213 10.048V11.404H44.3813C43.3253 11.404 42.6653 11.968 42.6653 13.12V16H41.2013V10.084H42.5813L42.6653 10.948C42.9173 10.36 43.4813 9.964 44.2733 9.964C44.4773 9.964 44.6813 9.988 44.9213 10.048ZM47.4419 16.156C46.1819 16.156 45.4139 15.424 45.4139 14.308C45.4139 13.216 46.2059 12.532 47.6099 12.424L49.3859 12.292V12.16C49.3859 11.356 48.9059 11.032 48.1619 11.032C47.2979 11.032 46.8179 11.392 46.8179 12.016H45.5699C45.5699 10.732 46.6259 9.892 48.2339 9.892C49.8299 9.892 50.8139 10.756 50.8139 12.4V16H49.5299L49.4219 15.124C49.1699 15.736 48.3659 16.156 47.4419 16.156ZM47.9219 15.052C48.8219 15.052 49.3979 14.512 49.3979 13.6V13.288L48.1619 13.384C47.2499 13.468 46.9019 13.768 46.9019 14.248C46.9019 14.788 47.2619 15.052 47.9219 15.052ZM53.7161 16H52.2521V10.072H53.5961L53.7161 10.768C54.0161 10.276 54.6161 9.892 55.4681 9.892C56.3681 9.892 56.9921 10.336 57.3041 11.02C57.6041 10.336 58.3001 9.892 59.2001 9.892C60.6401 9.892 61.4321 10.756 61.4321 12.124V16H59.9801V12.508C59.9801 11.656 59.5241 11.212 58.8281 11.212C58.1201 11.212 57.5801 11.668 57.5801 12.64V16H56.1161V12.496C56.1161 11.668 55.6721 11.224 54.9761 11.224C54.2801 11.224 53.7161 11.68 53.7161 12.64V16ZM65.5213 16.156C63.7573 16.156 62.5213 14.872 62.5213 13.036C62.5213 11.176 63.7333 9.892 65.4733 9.892C67.2493 9.892 68.3773 11.08 68.3773 12.928V13.372L63.9133 13.384C64.0213 14.428 64.5733 14.956 65.5453 14.956C66.3493 14.956 66.8773 14.644 67.0453 14.08H68.4013C68.1493 15.376 67.0693 16.156 65.5213 16.156ZM65.4853 11.092C64.6213 11.092 64.0933 11.56 63.9493 12.448H66.9253C66.9253 11.632 66.3613 11.092 65.4853 11.092Z" fill="black"/>
</svg>
