<svg width="200" height="24" viewBox="0 0 200 24" fill="none" xmlns="http://www.w3.org/2000/svg">
<path opacity="0.4" d="M12.93 4.78998H7.35C3.25 4.78998 2 6.03998 2 10.14V13.86C2 17.96 3.25 19.21 7.35 19.21H12.93C17.03 19.21 18.28 17.96 18.28 13.86V10.14C18.28 6.03998 17.03 4.78998 12.93 4.78998Z" fill="#1A1A1A"/>
<path d="M20.42 8.99998C20.28 8.98998 20.1 8.97998 19.9 8.97998C19.51 8.97998 19.2 9.28998 19.2 9.67998V14.33C19.2 14.72 19.51 15.03 19.9 15.03C20.1 15.03 20.27 15.02 20.44 15.01C22 14.83 22 13.73 22 12.93V11.07C22 10.27 22 9.16998 20.42 8.99998Z" fill="#1A1A1A"/>
<path d="M6.37995 14.75C6.31995 14.75 6.25995 14.74 6.19995 14.73C5.79995 14.63 5.54995 14.22 5.64995 13.82C5.94995 12.63 5.94995 11.37 5.64995 10.18C5.54995 9.77998 5.78995 9.36998 6.19995 9.26998C6.59995 9.16998 6.99995 9.41997 7.09995 9.81997C7.45995 11.25 7.45995 12.76 7.09995 14.18C7.01995 14.52 6.70995 14.75 6.37995 14.75Z" fill="#1A1A1A"/>
<path d="M9.87995 14.75C9.81995 14.75 9.75995 14.74 9.69995 14.73C9.29995 14.63 9.04995 14.22 9.14995 13.82C9.44995 12.63 9.44995 11.37 9.14995 10.18C9.04995 9.78001 9.28995 9.37001 9.69995 9.27001C10.1 9.17001 10.51 9.41001 10.61 9.82001C10.97 11.25 10.97 12.76 10.61 14.18C10.52 14.52 10.21 14.75 9.87995 14.75Z" fill="#1A1A1A"/>
<path d="M34.972 17V8.228H38.464C40.192 8.228 41.248 9.128 41.248 10.592C41.248 11.564 40.816 12.26 39.988 12.608C40.912 12.908 41.38 13.604 41.38 14.624C41.38 16.124 40.336 17 38.524 17H34.972ZM38.332 9.584H36.508V11.972H38.368C39.208 11.972 39.676 11.528 39.676 10.748C39.676 9.992 39.196 9.584 38.332 9.584ZM38.464 13.268H36.508V15.644H38.464C39.328 15.644 39.808 15.224 39.808 14.432C39.808 13.688 39.316 13.268 38.464 13.268ZM44.3364 17.156C43.0764 17.156 42.3084 16.424 42.3084 15.308C42.3084 14.216 43.1004 13.532 44.5044 13.424L46.2804 13.292V13.16C46.2804 12.356 45.8004 12.032 45.0564 12.032C44.1924 12.032 43.7124 12.392 43.7124 13.016H42.4644C42.4644 11.732 43.5204 10.892 45.1284 10.892C46.7244 10.892 47.7084 11.756 47.7084 13.4V17H46.4244L46.3164 16.124C46.0644 16.736 45.2604 17.156 44.3364 17.156ZM44.8164 16.052C45.7164 16.052 46.2924 15.512 46.2924 14.6V14.288L45.0564 14.384C44.1444 14.468 43.7964 14.768 43.7964 15.248C43.7964 15.788 44.1564 16.052 44.8164 16.052ZM51.0806 17H49.6166V12.296H48.4766V11.072H49.6166V9.224H51.0806V11.072H52.2326V12.296H51.0806V17ZM55.3228 17H53.8588V12.296H52.7188V11.072H53.8588V9.224H55.3228V11.072H56.4748V12.296H55.3228V17ZM59.9783 17.156C58.2143 17.156 56.9783 15.872 56.9783 14.036C56.9783 12.176 58.1903 10.892 59.9303 10.892C61.7063 10.892 62.8343 12.08 62.8343 13.928V14.372L58.3703 14.384C58.4783 15.428 59.0303 15.956 60.0023 15.956C60.8063 15.956 61.3343 15.644 61.5023 15.08H62.8583C62.6063 16.376 61.5263 17.156 59.9783 17.156ZM59.9423 12.092C59.0783 12.092 58.5503 12.56 58.4063 13.448H61.3823C61.3823 12.632 60.8183 12.092 59.9423 12.092ZM67.726 11.048V12.404H67.186C66.13 12.404 65.47 12.968 65.47 14.12V17H64.006V11.084H65.386L65.47 11.948C65.722 11.36 66.286 10.964 67.078 10.964C67.282 10.964 67.486 10.988 67.726 11.048ZM68.3767 19.748V18.524H69.2527C69.8287 18.524 70.1887 18.392 70.4407 17.696L70.6087 17.252L68.2207 11.072H69.7687L71.2927 15.392L72.9007 11.072H74.4127L71.5087 18.32C71.0647 19.424 70.4407 19.88 69.4687 19.88C69.0607 19.88 68.7007 19.832 68.3767 19.748ZM74.8221 14.444V13.148H78.6861V14.444H74.8221ZM85.2844 16.988L79.2004 17V15.848L82.0684 13.424C83.2564 12.416 83.6524 11.84 83.6524 11C83.6524 10.004 83.1124 9.44 82.1884 9.44C81.2284 9.44 80.6284 10.112 80.6164 11.24H79.0924C79.1044 9.32 80.3284 8.072 82.1884 8.072C84.0604 8.072 85.2244 9.14 85.2244 10.916C85.2244 12.14 84.5524 13.064 83.2204 14.204L81.6364 15.56H85.2844V16.988ZM87.4012 17H85.9492L89.3692 8.24H90.8332L87.4012 17ZM93.9439 12.656H92.8759V11.66L95.1319 9.584H91.4839V8.228H97.0519V9.452L94.9159 11.42C96.2599 11.684 97.3039 12.668 97.3039 14.216C97.3039 16.016 95.8999 17.156 94.1239 17.156C92.4079 17.156 91.0759 16.1 91.0759 14.204H92.5879C92.5879 15.212 93.2119 15.788 94.1479 15.788C95.1079 15.788 95.7439 15.164 95.7439 14.192C95.7439 13.304 95.1679 12.656 93.9439 12.656ZM97.836 11.072H98.688V10.352C98.688 8.744 99.54 8.072 100.824 8.072C101.052 8.072 101.328 8.084 101.58 8.132V9.38H101.064C100.32 9.38 100.14 9.764 100.14 10.352V11.072H101.556V12.296H100.14V17H98.688V12.296H97.836V11.072ZM106.51 11.072H107.974V17H106.618L106.51 16.208C106.15 16.772 105.382 17.156 104.59 17.156C103.222 17.156 102.418 16.232 102.418 14.78V11.072H103.882V14.264C103.882 15.392 104.326 15.848 105.142 15.848C106.066 15.848 106.51 15.308 106.51 14.18V11.072ZM110.962 17H109.51V8.072H110.962V17ZM113.974 17H112.522V8.072H113.974V17Z" fill="black"/>
</svg>
