<svg width="130" height="24" viewBox="0 0 130 24" fill="none" xmlns="http://www.w3.org/2000/svg">
<path opacity="0.4" d="M16.1898 2H7.81976C4.17976 2 2.00977 4.17 2.00977 7.81V16.18C2.00977 19.82 4.17976 21.99 7.81976 21.99H16.1898C19.8298 21.99 21.9998 19.82 21.9998 16.18V7.81C21.9998 4.17 19.8298 2 16.1898 2Z" fill="#1A1A1A"/>
<path d="M13.9205 9.27995L13.9705 12.23L16.6005 12.19C16.7905 12.19 16.9305 12.36 16.9005 12.54L16.5504 14.45C16.5204 14.59 16.4005 14.69 16.2605 14.7L14.0105 14.74L14.1305 21.99L11.1305 22.04L11.0105 14.79L9.31046 14.82C9.14046 14.82 9.01047 14.69 9.01047 14.52L8.98047 12.62C8.98047 12.45 9.11046 12.32 9.28046 12.32L10.9805 12.29L10.9305 9.03996C10.9005 7.37996 12.2205 6.01995 13.8805 5.98995L16.5804 5.94995C16.7504 5.94995 16.8805 6.07995 16.8805 6.24995L16.9205 8.64996C16.9205 8.81996 16.7905 8.94995 16.6205 8.94995L14.2205 8.98995C14.0505 8.97995 13.9205 9.11995 13.9205 9.27995Z" fill="#1A1A1A"/>
<path d="M39.772 12.412H36.508V16H34.972V7.228H40.396V8.644H36.508V11.032H39.772V12.412ZM42.8481 16.156C41.5881 16.156 40.8201 15.424 40.8201 14.308C40.8201 13.216 41.6121 12.532 43.0161 12.424L44.7921 12.292V12.16C44.7921 11.356 44.3121 11.032 43.5681 11.032C42.7041 11.032 42.2241 11.392 42.2241 12.016H40.9761C40.9761 10.732 42.0321 9.892 43.6401 9.892C45.2361 9.892 46.2201 10.756 46.2201 12.4V16H44.9361L44.8281 15.124C44.5761 15.736 43.7721 16.156 42.8481 16.156ZM43.3281 15.052C44.2281 15.052 44.8041 14.512 44.8041 13.6V13.288L43.5681 13.384C42.6561 13.468 42.3081 13.768 42.3081 14.248C42.3081 14.788 42.6681 15.052 43.3281 15.052ZM47.3103 13.024C47.3103 11.188 48.5223 9.892 50.2743 9.892C51.8943 9.892 52.9983 10.792 53.1543 12.22H51.6903C51.5223 11.548 51.0303 11.2 50.3343 11.2C49.3983 11.2 48.7743 11.908 48.7743 13.024C48.7743 14.14 49.3503 14.836 50.2863 14.836C51.0183 14.836 51.5343 14.476 51.6903 13.828H53.1663C52.9863 15.208 51.8343 16.156 50.2863 16.156C48.4863 16.156 47.3103 14.908 47.3103 13.024ZM56.908 16.156C55.144 16.156 53.908 14.872 53.908 13.036C53.908 11.176 55.12 9.892 56.86 9.892C58.636 9.892 59.764 11.08 59.764 12.928V13.372L55.3 13.384C55.408 14.428 55.96 14.956 56.932 14.956C57.736 14.956 58.264 14.644 58.432 14.08H59.788C59.536 15.376 58.456 16.156 56.908 16.156ZM56.872 11.092C56.008 11.092 55.48 11.56 55.336 12.448H58.312C58.312 11.632 57.748 11.092 56.872 11.092ZM62.2917 16H60.9357V7.072H62.3997V10.936C62.7837 10.276 63.5757 9.88 64.4757 9.88C66.1677 9.88 67.1997 11.2 67.1997 13.072C67.1997 14.896 66.0837 16.156 64.3797 16.156C63.4917 16.156 62.7357 15.76 62.3877 15.076L62.2917 16ZM62.4117 13.012C62.4117 14.08 63.0717 14.812 64.0797 14.812C65.1117 14.812 65.7237 14.068 65.7237 13.012C65.7237 11.956 65.1117 11.2 64.0797 11.2C63.0717 11.2 62.4117 11.944 62.4117 13.012ZM68.0174 13.024C68.0174 11.176 69.3494 9.904 71.1854 9.904C73.0214 9.904 74.3534 11.176 74.3534 13.024C74.3534 14.872 73.0214 16.144 71.1854 16.144C69.3494 16.144 68.0174 14.872 68.0174 13.024ZM69.4814 13.024C69.4814 14.104 70.1774 14.836 71.1854 14.836C72.1934 14.836 72.8894 14.104 72.8894 13.024C72.8894 11.944 72.1934 11.212 71.1854 11.212C70.1774 11.212 69.4814 11.944 69.4814 13.024ZM75.1658 13.024C75.1658 11.176 76.4978 9.904 78.3338 9.904C80.1698 9.904 81.5018 11.176 81.5018 13.024C81.5018 14.872 80.1698 16.144 78.3338 16.144C76.4978 16.144 75.1658 14.872 75.1658 13.024ZM76.6298 13.024C76.6298 14.104 77.3258 14.836 78.3338 14.836C79.3418 14.836 80.0378 14.104 80.0378 13.024C80.0378 11.944 79.3418 11.212 78.3338 11.212C77.3258 11.212 76.6298 11.944 76.6298 13.024ZM84.1383 16H82.6863V7.072H84.1383V12.556L86.4423 10.072H88.2783L86.0223 12.424L88.2303 16H86.5503L85.0023 13.504L84.1383 14.404V16Z" fill="black"/>
</svg>
