<svg width="200" height="24" viewBox="0 0 200 24" fill="none" xmlns="http://www.w3.org/2000/svg">
<path d="M3 16.5C2.59 16.5 2.25 16.16 2.25 15.75V8.25C2.25 7.84 2.59 7.5 3 7.5C3.41 7.5 3.75 7.84 3.75 8.25V15.75C3.75 16.16 3.41 16.5 3 16.5Z" fill="#1A1A1A"/>
<path opacity="0.4" d="M7.5 19C7.09 19 6.75 18.66 6.75 18.25V5.75C6.75 5.34 7.09 5 7.5 5C7.91 5 8.25 5.34 8.25 5.75V18.25C8.25 18.66 7.91 19 7.5 19Z" fill="#1A1A1A"/>
<path d="M12 21.5C11.59 21.5 11.25 21.16 11.25 20.75V3.25C11.25 2.84 11.59 2.5 12 2.5C12.41 2.5 12.75 2.84 12.75 3.25V20.75C12.75 21.16 12.41 21.5 12 21.5Z" fill="#1A1A1A"/>
<path opacity="0.4" d="M16.5 19C16.09 19 15.75 18.66 15.75 18.25V5.75C15.75 5.34 16.09 5 16.5 5C16.91 5 17.25 5.34 17.25 5.75V18.25C17.25 18.66 16.91 19 16.5 19Z" fill="#1A1A1A"/>
<path d="M21 16.5C20.59 16.5 20.25 16.16 20.25 15.75V8.25C20.25 7.84 20.59 7.5 21 7.5C21.41 7.5 21.75 7.84 21.75 8.25V15.75C21.75 16.16 21.41 16.5 21 16.5Z" fill="#1A1A1A"/>
<path d="M34.468 9.676C34.468 8.14 35.74 7.072 37.588 7.072C39.364 7.072 40.492 8.056 40.54 9.64H39.004C38.968 8.884 38.428 8.44 37.564 8.44C36.616 8.44 36.004 8.896 36.004 9.628C36.004 10.252 36.34 10.6 37.072 10.768L38.452 11.068C39.952 11.392 40.684 12.16 40.684 13.468C40.684 15.1 39.412 16.156 37.48 16.156C35.608 16.156 34.384 15.16 34.348 13.588H35.884C35.896 14.332 36.496 14.776 37.48 14.776C38.5 14.776 39.148 14.332 39.148 13.6C39.148 13.012 38.848 12.664 38.128 12.508L36.736 12.196C35.248 11.872 34.468 11.02 34.468 9.676ZM41.5096 13.024C41.5096 11.176 42.8416 9.904 44.6776 9.904C46.5136 9.904 47.8456 11.176 47.8456 13.024C47.8456 14.872 46.5136 16.144 44.6776 16.144C42.8416 16.144 41.5096 14.872 41.5096 13.024ZM42.9736 13.024C42.9736 14.104 43.6696 14.836 44.6776 14.836C45.6856 14.836 46.3816 14.104 46.3816 13.024C46.3816 11.944 45.6856 11.212 44.6776 11.212C43.6696 11.212 42.9736 11.944 42.9736 13.024ZM52.8854 10.072H54.3494V16H52.9934L52.8854 15.208C52.5254 15.772 51.7574 16.156 50.9654 16.156C49.5974 16.156 48.7934 15.232 48.7934 13.78V10.072H50.2574V13.264C50.2574 14.392 50.7014 14.848 51.5174 14.848C52.4414 14.848 52.8854 14.308 52.8854 13.18V10.072ZM57.3255 16H55.8615V10.072H57.2175L57.3375 10.84C57.7095 10.24 58.4295 9.892 59.2335 9.892C60.7215 9.892 61.4895 10.816 61.4895 12.352V16H60.0255V12.7C60.0255 11.704 59.5335 11.224 58.7775 11.224C57.8775 11.224 57.3255 11.848 57.3255 12.808V16ZM65.3639 16.156C63.6479 16.156 62.5799 14.896 62.5799 13.06C62.5799 11.212 63.6599 9.892 65.4479 9.892C66.2759 9.892 67.0079 10.24 67.3799 10.828V7.072H68.8319V16H67.4879L67.3919 15.076C67.0319 15.76 66.2639 16.156 65.3639 16.156ZM65.6879 14.812C66.7079 14.812 67.3679 14.08 67.3679 13.012C67.3679 11.944 66.7079 11.2 65.6879 11.2C64.6679 11.2 64.0439 11.956 64.0439 13.012C64.0439 14.068 64.6679 14.812 65.6879 14.812Z" fill="black"/>
</svg>
