<svg width="200" height="24" viewBox="0 0 200 24" fill="none" xmlns="http://www.w3.org/2000/svg">
<path opacity="0.4" d="M10.75 2.44995C11.45 1.85995 12.58 1.85995 13.26 2.44995L14.84 3.79995C15.14 4.04995 15.71 4.25995 16.11 4.25995H17.81C18.87 4.25995 19.74 5.12995 19.74 6.18995V7.88995C19.74 8.28995 19.95 8.84995 20.2 9.14995L21.55 10.7299C22.14 11.4299 22.14 12.5599 21.55 13.2399L20.2 14.8199C19.95 15.1199 19.74 15.6799 19.74 16.0799V17.7799C19.74 18.8399 18.87 19.7099 17.81 19.7099H16.11C15.71 19.7099 15.15 19.9199 14.85 20.1699L13.27 21.5199C12.57 22.1099 11.44 22.1099 10.76 21.5199L9.18001 20.1699C8.88 19.9199 8.31 19.7099 7.92 19.7099H6.17C5.11 19.7099 4.24 18.8399 4.24 17.7799V16.0699C4.24 15.6799 4.04 15.1099 3.79 14.8199L2.44 13.2299C1.86 12.5399 1.86 11.4199 2.44 10.7299L3.79 9.13995C4.04 8.83995 4.24 8.27995 4.24 7.88995V6.19995C4.24 5.13995 5.11 4.26995 6.17 4.26995H7.9C8.3 4.26995 8.86 4.05995 9.16 3.80995L10.75 2.44995Z" fill="#1A1A1A"/>
<path d="M14.81 16.24L12 9.91001L9.19 16.24L7.81 15.63L11.31 7.76001H12.69L16.19 15.63L14.81 16.24Z" fill="#1A1A1A"/>
<path d="M13.75 14.0601H10.25C9.84 14.0601 9.5 13.7201 9.5 13.3101C9.5 12.9001 9.84 12.5601 10.25 12.5601H13.75C14.16 12.5601 14.5 12.9001 14.5 13.3101C14.5 13.7201 14.16 14.0601 13.75 14.0601Z" fill="#1A1A1A"/>
<path d="M35.728 17H34.132L37.3 8.228H38.872L42.04 17H40.42L39.712 14.972H36.436L35.728 17ZM37.888 10.844L36.892 13.676H39.268L38.26 10.844C38.188 10.616 38.104 10.352 38.08 10.172C38.044 10.34 37.972 10.604 37.888 10.844ZM46.7213 11.072H48.1853V17H46.8293L46.7213 16.208C46.3613 16.772 45.5933 17.156 44.8013 17.156C43.4333 17.156 42.6293 16.232 42.6293 14.78V11.072H44.0933V14.264C44.0933 15.392 44.5373 15.848 45.3533 15.848C46.2773 15.848 46.7213 15.308 46.7213 14.18V11.072ZM51.7134 17H50.2494V12.296H49.1094V11.072H50.2494V9.224H51.7134V11.072H52.8654V12.296H51.7134V17ZM53.3689 14.024C53.3689 12.176 54.7009 10.904 56.5369 10.904C58.3729 10.904 59.7049 12.176 59.7049 14.024C59.7049 15.872 58.3729 17.144 56.5369 17.144C54.7009 17.144 53.3689 15.872 53.3689 14.024ZM54.8329 14.024C54.8329 15.104 55.5289 15.836 56.5369 15.836C57.5449 15.836 58.2409 15.104 58.2409 14.024C58.2409 12.944 57.5449 12.212 56.5369 12.212C55.5289 12.212 54.8329 12.944 54.8329 14.024ZM62.2214 17H60.8654V8.072H62.3294V11.936C62.7134 11.276 63.5054 10.88 64.4054 10.88C66.0974 10.88 67.1294 12.2 67.1294 14.072C67.1294 15.896 66.0134 17.156 64.3094 17.156C63.4214 17.156 62.6654 16.76 62.3174 16.076L62.2214 17ZM62.3414 14.012C62.3414 15.08 63.0014 15.812 64.0094 15.812C65.0414 15.812 65.6534 15.068 65.6534 14.012C65.6534 12.956 65.0414 12.2 64.0094 12.2C63.0014 12.2 62.3414 12.944 62.3414 14.012ZM72.0151 11.048V12.404H71.4751C70.4191 12.404 69.7591 12.968 69.7591 14.12V17H68.2951V11.084H69.6751L69.7591 11.948C70.0111 11.36 70.5751 10.964 71.3671 10.964C71.5711 10.964 71.7751 10.988 72.0151 11.048ZM73.738 9.884C73.234 9.884 72.838 9.488 72.838 8.996C72.838 8.504 73.234 8.12 73.738 8.12C74.218 8.12 74.614 8.504 74.614 8.996C74.614 9.488 74.218 9.884 73.738 9.884ZM73.006 17V11.072H74.47V17H73.006ZM75.6466 13.904C75.6466 12.176 76.7746 10.88 78.4666 10.88C79.3546 10.88 80.0506 11.252 80.3986 11.888L80.4826 11.072H81.8386V16.7C81.8386 18.68 80.6506 19.916 78.7306 19.916C77.0266 19.916 75.8626 18.944 75.6826 17.36H77.1466C77.2426 18.128 77.8306 18.584 78.7306 18.584C79.7386 18.584 80.3866 17.948 80.3866 16.964V15.98C80.0146 16.532 79.2826 16.88 78.4306 16.88C76.7506 16.88 75.6466 15.62 75.6466 13.904ZM77.1226 13.868C77.1226 14.864 77.7586 15.608 78.7186 15.608C79.7266 15.608 80.3506 14.9 80.3506 13.868C80.3506 12.86 79.7386 12.164 78.7186 12.164C77.7466 12.164 77.1226 12.896 77.1226 13.868ZM84.8177 17H83.3537V8.072H84.8297V11.84C85.2017 11.264 85.8977 10.892 86.7497 10.892C88.2137 10.892 88.9817 11.816 88.9817 13.352V17H87.5177V13.7C87.5177 12.704 87.0257 12.224 86.2817 12.224C85.3577 12.224 84.8177 12.872 84.8177 13.76V17ZM92.4361 17H90.9721V12.296H89.8321V11.072H90.9721V9.224H92.4361V11.072H93.5881V12.296H92.4361V17ZM95.9622 17H94.4982V11.072H95.8542L95.9742 11.84C96.3462 11.24 97.0662 10.892 97.8702 10.892C99.3582 10.892 100.126 11.816 100.126 13.352V17H98.6622V13.7C98.6622 12.704 98.1702 12.224 97.4142 12.224C96.5142 12.224 95.9622 12.848 95.9622 13.808V17ZM104.217 17.156C102.453 17.156 101.217 15.872 101.217 14.036C101.217 12.176 102.429 10.892 104.169 10.892C105.945 10.892 107.073 12.08 107.073 13.928V14.372L102.609 14.384C102.717 15.428 103.269 15.956 104.241 15.956C105.045 15.956 105.573 15.644 105.741 15.08H107.097C106.845 16.376 105.765 17.156 104.217 17.156ZM104.181 12.092C103.317 12.092 102.789 12.56 102.645 13.448H105.621C105.621 12.632 105.057 12.092 104.181 12.092ZM107.788 15.2H109.18C109.192 15.716 109.576 16.04 110.248 16.04C110.932 16.04 111.304 15.764 111.304 15.332C111.304 15.032 111.148 14.816 110.62 14.696L109.552 14.444C108.484 14.204 107.968 13.7 107.968 12.752C107.968 11.588 108.952 10.892 110.32 10.892C111.652 10.892 112.552 11.66 112.564 12.812H111.172C111.16 12.308 110.824 11.984 110.26 11.984C109.684 11.984 109.348 12.248 109.348 12.692C109.348 13.028 109.612 13.244 110.116 13.364L111.184 13.616C112.18 13.844 112.684 14.3 112.684 15.212C112.684 16.412 111.664 17.156 110.2 17.156C108.724 17.156 107.788 16.364 107.788 15.2ZM113.343 15.2H114.735C114.747 15.716 115.131 16.04 115.803 16.04C116.487 16.04 116.859 15.764 116.859 15.332C116.859 15.032 116.703 14.816 116.175 14.696L115.107 14.444C114.039 14.204 113.523 13.7 113.523 12.752C113.523 11.588 114.507 10.892 115.875 10.892C117.207 10.892 118.107 11.66 118.119 12.812H116.727C116.715 12.308 116.379 11.984 115.815 11.984C115.239 11.984 114.903 12.248 114.903 12.692C114.903 13.028 115.167 13.244 115.671 13.364L116.739 13.616C117.735 13.844 118.239 14.3 118.239 15.212C118.239 16.412 117.219 17.156 115.755 17.156C114.279 17.156 113.343 16.364 113.343 15.2Z" fill="black"/>
</svg>
