<svg width="132" height="24" viewBox="0 0 132 24" fill="none" xmlns="http://www.w3.org/2000/svg">
<path d="M19.5 8C20.8807 8 22 6.88071 22 5.5C22 4.11929 20.8807 3 19.5 3C18.1193 3 17 4.11929 17 5.5C17 6.88071 18.1193 8 19.5 8Z" fill="#1A1A1A"/>
<path d="M19.5 8C20.8807 8 22 6.88071 22 5.5C22 4.11929 20.8807 3 19.5 3C18.1193 3 17 4.11929 17 5.5C17 6.88071 18.1193 8 19.5 8Z" fill="#1A1A1A"/>
<path opacity="0.4" d="M20.72 9.31001C21.35 9.11001 22 9.60002 22 10.27V15.51C22 19.01 20 20.51 17 20.51H7C4 20.51 2 19.01 2 15.51V8.51001C2 5.01001 4 3.51001 7 3.51001H14.61C15.26 3.51001 15.7 4.11002 15.58 4.74002C15.46 5.33002 15.48 5.96002 15.66 6.61002C16.03 7.95002 17.12 9.02001 18.46 9.37001C19.25 9.57001 20.02 9.53001 20.72 9.31001Z" fill="#1A1A1A"/>
<path d="M11.9998 12.87C11.1598 12.87 10.3098 12.61 9.65978 12.08L6.52978 9.58002C6.20978 9.32002 6.14978 8.85002 6.40978 8.53002C6.66978 8.21002 7.13977 8.15003 7.45977 8.41003L10.5898 10.91C11.3498 11.52 12.6398 11.52 13.3998 10.91L14.5798 9.97002C14.8998 9.71002 15.3798 9.76002 15.6298 10.09C15.8898 10.41 15.8398 10.89 15.5098 11.14L14.3298 12.08C13.6898 12.61 12.8398 12.87 11.9998 12.87Z" fill="#1A1A1A"/>
<path d="M34.468 10.676C34.468 9.14 35.74 8.072 37.588 8.072C39.364 8.072 40.492 9.056 40.54 10.64H39.004C38.968 9.884 38.428 9.44 37.564 9.44C36.616 9.44 36.004 9.896 36.004 10.628C36.004 11.252 36.34 11.6 37.072 11.768L38.452 12.068C39.952 12.392 40.684 13.16 40.684 14.468C40.684 16.1 39.412 17.156 37.48 17.156C35.608 17.156 34.384 16.16 34.348 14.588H35.884C35.896 15.332 36.496 15.776 37.48 15.776C38.5 15.776 39.148 15.332 39.148 14.6C39.148 14.012 38.848 13.664 38.128 13.508L36.736 13.196C35.248 12.872 34.468 12.02 34.468 10.676ZM43.3216 17H41.8576V11.072H43.2016L43.3216 11.768C43.6216 11.276 44.2216 10.892 45.0736 10.892C45.9736 10.892 46.5976 11.336 46.9096 12.02C47.2096 11.336 47.9056 10.892 48.8056 10.892C50.2456 10.892 51.0376 11.756 51.0376 13.124V17H49.5856V13.508C49.5856 12.656 49.1296 12.212 48.4336 12.212C47.7256 12.212 47.1856 12.668 47.1856 13.64V17H45.7216V13.496C45.7216 12.668 45.2776 12.224 44.5816 12.224C43.8856 12.224 43.3216 12.68 43.3216 13.64V17ZM51.9484 15.2H53.3404C53.3524 15.716 53.7364 16.04 54.4084 16.04C55.0924 16.04 55.4644 15.764 55.4644 15.332C55.4644 15.032 55.3084 14.816 54.7804 14.696L53.7124 14.444C52.6444 14.204 52.1284 13.7 52.1284 12.752C52.1284 11.588 53.1124 10.892 54.4804 10.892C55.8124 10.892 56.7124 11.66 56.7244 12.812H55.3324C55.3204 12.308 54.9844 11.984 54.4204 11.984C53.8444 11.984 53.5084 12.248 53.5084 12.692C53.5084 13.028 53.7724 13.244 54.2764 13.364L55.3444 13.616C56.3404 13.844 56.8444 14.3 56.8444 15.212C56.8444 16.412 55.8244 17.156 54.3604 17.156C52.8844 17.156 51.9484 16.364 51.9484 15.2ZM57.7948 14.444V13.148H61.6588V14.444H57.7948ZM64.6145 17H63.1505V11.072H64.5065L64.6265 11.84C64.9985 11.24 65.7185 10.892 66.5225 10.892C68.0105 10.892 68.7785 11.816 68.7785 13.352V17H67.3145V13.7C67.3145 12.704 66.8225 12.224 66.0665 12.224C65.1665 12.224 64.6145 12.848 64.6145 13.808V17ZM69.8689 14.024C69.8689 12.176 71.2009 10.904 73.0369 10.904C74.8729 10.904 76.2049 12.176 76.2049 14.024C76.2049 15.872 74.8729 17.144 73.0369 17.144C71.2009 17.144 69.8689 15.872 69.8689 14.024ZM71.3329 14.024C71.3329 15.104 72.0289 15.836 73.0369 15.836C74.0449 15.836 74.7409 15.104 74.7409 14.024C74.7409 12.944 74.0449 12.212 73.0369 12.212C72.0289 12.212 71.3329 12.944 71.3329 14.024ZM79.3228 17H77.8588V12.296H76.7188V11.072H77.8588V9.224H79.3228V11.072H80.4748V12.296H79.3228V17ZM82.1169 9.884C81.6129 9.884 81.2169 9.488 81.2169 8.996C81.2169 8.504 81.6129 8.12 82.1169 8.12C82.5969 8.12 82.9929 8.504 82.9929 8.996C82.9929 9.488 82.5969 9.884 82.1169 9.884ZM81.3849 17V11.072H82.8489V17H81.3849ZM88.5015 17V12.296H86.0775V17H84.6255V12.296H83.7735V11.072H84.6255V10.352C84.6255 8.744 85.4655 8.072 86.6655 8.072C86.8935 8.072 87.1695 8.084 87.4215 8.132V9.38H86.9055C86.2455 9.38 86.0775 9.764 86.0775 10.352V11.072H89.9655V17H88.5015ZM89.2335 9.86C88.7415 9.86 88.3575 9.476 88.3575 8.984C88.3575 8.504 88.7415 8.12 89.2335 8.12C89.7135 8.12 90.0975 8.504 90.0975 8.984C90.0975 9.476 89.7135 9.86 89.2335 9.86ZM91.1268 14.024C91.1268 12.188 92.3388 10.892 94.0908 10.892C95.7108 10.892 96.8148 11.792 96.9708 13.22H95.5068C95.3388 12.548 94.8468 12.2 94.1508 12.2C93.2148 12.2 92.5908 12.908 92.5908 14.024C92.5908 15.14 93.1668 15.836 94.1028 15.836C94.8348 15.836 95.3508 15.476 95.5068 14.828H96.9828C96.8028 16.208 95.6508 17.156 94.1028 17.156C92.3027 17.156 91.1268 15.908 91.1268 14.024ZM99.8364 17.156C98.5764 17.156 97.8084 16.424 97.8084 15.308C97.8084 14.216 98.6004 13.532 100.004 13.424L101.78 13.292V13.16C101.78 12.356 101.3 12.032 100.556 12.032C99.6924 12.032 99.2124 12.392 99.2124 13.016H97.9644C97.9644 11.732 99.0204 10.892 100.628 10.892C102.224 10.892 103.208 11.756 103.208 13.4V17H101.924L101.816 16.124C101.564 16.736 100.76 17.156 99.8364 17.156ZM100.316 16.052C101.216 16.052 101.792 15.512 101.792 14.6V14.288L100.556 14.384C99.6444 14.468 99.2964 14.768 99.2964 15.248C99.2964 15.788 99.6564 16.052 100.316 16.052ZM106.581 17H105.117V12.296H103.977V11.072H105.117V9.224H106.581V11.072H107.733V12.296H106.581V17ZM109.375 9.884C108.871 9.884 108.475 9.488 108.475 8.996C108.475 8.504 108.871 8.12 109.375 8.12C109.855 8.12 110.251 8.504 110.251 8.996C110.251 9.488 109.855 9.884 109.375 9.884ZM108.643 17V11.072H110.107V17H108.643ZM111.271 14.024C111.271 12.176 112.603 10.904 114.439 10.904C116.275 10.904 117.607 12.176 117.607 14.024C117.607 15.872 116.275 17.144 114.439 17.144C112.603 17.144 111.271 15.872 111.271 14.024ZM112.735 14.024C112.735 15.104 113.431 15.836 114.439 15.836C115.447 15.836 116.143 15.104 116.143 14.024C116.143 12.944 115.447 12.212 114.439 12.212C113.431 12.212 112.735 12.944 112.735 14.024ZM120.232 17H118.768V11.072H120.124L120.244 11.84C120.616 11.24 121.336 10.892 122.14 10.892C123.628 10.892 124.396 11.816 124.396 13.352V17H122.932V13.7C122.932 12.704 122.44 12.224 121.684 12.224C120.784 12.224 120.232 12.848 120.232 13.808V17Z" fill="black"/>
</svg>
