<svg width="109" height="24" viewBox="0 0 109 24" fill="none" xmlns="http://www.w3.org/2000/svg">
<path d="M17.0004 8.71992C16.8104 8.71992 16.6204 8.64992 16.4704 8.49992L14.4704 6.49992C14.1804 6.20992 14.1804 5.72992 14.4704 5.43992C14.7604 5.14992 15.2404 5.14992 15.5304 5.43992L17.0004 6.90992L20.4704 3.44992C20.7604 3.15992 21.2404 3.15992 21.5304 3.44992C21.8204 3.73992 21.8204 4.21992 21.5304 4.50992L17.5304 8.50992C17.3804 8.63992 17.1904 8.71992 17.0004 8.71992Z" fill="#1A1A1A"/>
<path opacity="0.4" d="M11.79 14.21L8.52 17.48C8.16 17.16 7.81 16.83 7.47 16.49C6.44 15.45 5.51 14.36 4.68 13.22C3.86 12.08 3.2 10.94 2.72 9.81C2.24 8.67 2 7.58 2 6.54C2 5.86 2.12 5.21 2.36 4.61C2.6 4 2.98 3.44 3.51 2.94C4.15 2.31 4.85 2 5.59 2C5.87 2 6.15 2.06 6.4 2.18C6.66 2.3 6.89 2.48 7.07 2.74L9.39 6.01C9.57 6.26 9.7 6.49 9.79 6.71C9.88 6.92 9.93 7.13 9.93 7.32C9.93 7.56 9.86 7.8 9.72 8.03C9.59 8.26 9.4 8.5 9.16 8.74L8.4 9.53C8.29 9.64 8.24 9.77 8.24 9.93C8.24 10.01 8.25 10.08 8.27 10.16C8.3 10.24 8.33 10.3 8.35 10.36C8.53 10.69 8.84 11.12 9.28 11.64C9.73 12.16 10.21 12.69 10.73 13.22C11.09 13.57 11.44 13.91 11.79 14.21Z" fill="#1A1A1A"/>
<path d="M21.9696 18.33C21.9696 18.61 21.9196 18.9 21.8196 19.18C21.7896 19.26 21.7596 19.34 21.7196 19.42C21.5496 19.78 21.3296 20.12 21.0396 20.44C20.5496 20.98 20.0096 21.37 19.3996 21.62C19.3896 21.62 19.3796 21.63 19.3696 21.63C18.7796 21.87 18.1396 22 17.4496 22C16.4296 22 15.3396 21.76 14.1896 21.27C13.0396 20.78 11.8896 20.12 10.7496 19.29C10.3596 19 9.96961 18.71 9.59961 18.4L12.8696 15.13C13.1496 15.34 13.3996 15.5 13.6096 15.61C13.6596 15.63 13.7196 15.66 13.7896 15.69C13.8696 15.72 13.9496 15.73 14.0396 15.73C14.2096 15.73 14.3396 15.67 14.4496 15.56L15.2096 14.81C15.4596 14.56 15.6996 14.37 15.9296 14.25C16.1596 14.11 16.3896 14.04 16.6396 14.04C16.8296 14.04 17.0296 14.08 17.2496 14.17C17.4696 14.26 17.6996 14.39 17.9496 14.56L21.2596 16.91C21.5196 17.09 21.6996 17.3 21.8096 17.55C21.9096 17.8 21.9696 18.05 21.9696 18.33Z" fill="#1A1A1A"/>
<path d="M38.68 17.144C36.124 17.144 34.468 15.368 34.468 12.62C34.468 9.896 36.184 8.084 38.752 8.084C40.828 8.084 42.376 9.296 42.676 11.18H41.056C40.756 10.16 39.88 9.56 38.716 9.56C37.096 9.56 36.076 10.736 36.076 12.608C36.076 14.468 37.108 15.668 38.716 15.668C39.904 15.668 40.816 15.044 41.104 14.072H42.7C42.364 15.92 40.756 17.144 38.68 17.144ZM45.5083 17.156C44.2483 17.156 43.4803 16.424 43.4803 15.308C43.4803 14.216 44.2723 13.532 45.6763 13.424L47.4523 13.292V13.16C47.4523 12.356 46.9723 12.032 46.2283 12.032C45.3643 12.032 44.8843 12.392 44.8843 13.016H43.6363C43.6363 11.732 44.6923 10.892 46.3003 10.892C47.8963 10.892 48.8803 11.756 48.8803 13.4V17H47.5963L47.4883 16.124C47.2363 16.736 46.4323 17.156 45.5083 17.156ZM45.9883 16.052C46.8883 16.052 47.4643 15.512 47.4643 14.6V14.288L46.2283 14.384C45.3163 14.468 44.9683 14.768 44.9683 15.248C44.9683 15.788 45.3283 16.052 45.9883 16.052ZM51.7945 17H50.3425V8.072H51.7945V17ZM54.8062 17H53.3542V8.072H54.8062V17ZM56.3299 14.444V13.148H60.1939V14.444H56.3299ZM65.4057 11.048V12.404H64.8657C63.8097 12.404 63.1497 12.968 63.1497 14.12V17H61.6857V11.084H63.0657L63.1497 11.948C63.4017 11.36 63.9657 10.964 64.7577 10.964C64.9617 10.964 65.1657 10.988 65.4057 11.048ZM68.8494 17.156C67.0854 17.156 65.8494 15.872 65.8494 14.036C65.8494 12.176 67.0614 10.892 68.8014 10.892C70.5774 10.892 71.7054 12.08 71.7054 13.928V14.372L67.2414 14.384C67.3494 15.428 67.9014 15.956 68.8734 15.956C69.6774 15.956 70.2054 15.644 70.3734 15.08H71.7294C71.4774 16.376 70.3974 17.156 68.8494 17.156ZM68.8134 12.092C67.9494 12.092 67.4214 12.56 67.2774 13.448H70.2534C70.2534 12.632 69.6894 12.092 68.8134 12.092ZM72.5291 14.024C72.5291 12.188 73.7411 10.892 75.4931 10.892C77.1131 10.892 78.2171 11.792 78.3731 13.22H76.9091C76.7411 12.548 76.2491 12.2 75.5531 12.2C74.6171 12.2 73.9931 12.908 73.9931 14.024C73.9931 15.14 74.5691 15.836 75.5051 15.836C76.2371 15.836 76.7531 15.476 76.9091 14.828H78.3851C78.2051 16.208 77.0531 17.156 75.5051 17.156C73.7051 17.156 72.5291 15.908 72.5291 14.024ZM82.1268 17.156C80.3628 17.156 79.1268 15.872 79.1268 14.036C79.1268 12.176 80.3388 10.892 82.0788 10.892C83.8548 10.892 84.9828 12.08 84.9828 13.928V14.372L80.5188 14.384C80.6268 15.428 81.1788 15.956 82.1508 15.956C82.9548 15.956 83.4828 15.644 83.6508 15.08H85.0068C84.7548 16.376 83.6748 17.156 82.1268 17.156ZM82.0908 12.092C81.2268 12.092 80.6988 12.56 80.5548 13.448H83.5308C83.5308 12.632 82.9668 12.092 82.0908 12.092ZM86.8864 9.884C86.3824 9.884 85.9864 9.488 85.9864 8.996C85.9864 8.504 86.3824 8.12 86.8864 8.12C87.3664 8.12 87.7624 8.504 87.7624 8.996C87.7624 9.488 87.3664 9.884 86.8864 9.884ZM86.1544 17V11.072H87.6184V17H86.1544ZM90.811 17L88.459 11.072H90.019L91.051 13.796C91.303 14.504 91.507 15.116 91.579 15.44C91.663 15.068 91.879 14.444 92.131 13.796L93.211 11.072H94.723L92.251 17H90.811ZM97.9236 17.156C96.1596 17.156 94.9236 15.872 94.9236 14.036C94.9236 12.176 96.1356 10.892 97.8756 10.892C99.6516 10.892 100.78 12.08 100.78 13.928V14.372L96.3156 14.384C96.4236 15.428 96.9756 15.956 97.9476 15.956C98.7516 15.956 99.2796 15.644 99.4476 15.08H100.804C100.552 16.376 99.4716 17.156 97.9236 17.156ZM97.8876 12.092C97.0236 12.092 96.4956 12.56 96.3516 13.448H99.3276C99.3276 12.632 98.7636 12.092 97.8876 12.092ZM104.387 17.156C102.671 17.156 101.603 15.896 101.603 14.06C101.603 12.212 102.683 10.892 104.471 10.892C105.299 10.892 106.031 11.24 106.403 11.828V8.072H107.855V17H106.511L106.415 16.076C106.055 16.76 105.287 17.156 104.387 17.156ZM104.711 15.812C105.731 15.812 106.391 15.08 106.391 14.012C106.391 12.944 105.731 12.2 104.711 12.2C103.691 12.2 103.067 12.956 103.067 14.012C103.067 15.068 103.691 15.812 104.711 15.812Z" fill="black"/>
</svg>
