<svg width="110" height="24" viewBox="0 0 110 24" fill="none" xmlns="http://www.w3.org/2000/svg">
<path opacity="0.4" d="M11.9702 22C17.4931 22 21.9702 17.5228 21.9702 12C21.9702 6.47715 17.4931 2 11.9702 2C6.44737 2 1.97021 6.47715 1.97021 12C1.97021 17.5228 6.44737 22 11.9702 22Z" fill="#1A1A1A"/>
<path d="M12 16.23C14.3362 16.23 16.23 14.3362 16.23 12C16.23 9.66386 14.3362 7.77002 12 7.77002C9.66386 7.77002 7.77002 9.66386 7.77002 12C7.77002 14.3362 9.66386 16.23 12 16.23Z" fill="#1A1A1A"/>
<path d="M36.508 17H34.972V8.228H38.32C40.312 8.228 41.476 9.236 41.476 10.964C41.476 12.14 40.924 12.98 39.892 13.4L41.56 17H39.88L38.392 13.724H36.508V17ZM36.508 9.596V12.368H38.32C39.292 12.368 39.868 11.852 39.868 10.964C39.868 10.088 39.292 9.596 38.32 9.596H36.508ZM45.0252 17.156C43.2612 17.156 42.0252 15.872 42.0252 14.036C42.0252 12.176 43.2372 10.892 44.9772 10.892C46.7532 10.892 47.8812 12.08 47.8812 13.928V14.372L43.4172 14.384C43.5252 15.428 44.0772 15.956 45.0492 15.956C45.8532 15.956 46.3812 15.644 46.5492 15.08H47.9052C47.6532 16.376 46.5732 17.156 45.0252 17.156ZM44.9892 12.092C44.1252 12.092 43.5972 12.56 43.4532 13.448H46.4292C46.4292 12.632 45.8652 12.092 44.9892 12.092ZM48.7049 14.024C48.7049 12.188 49.9169 10.892 51.6689 10.892C53.2889 10.892 54.3929 11.792 54.5489 13.22H53.0849C52.9169 12.548 52.4249 12.2 51.7289 12.2C50.7929 12.2 50.1689 12.908 50.1689 14.024C50.1689 15.14 50.7449 15.836 51.6809 15.836C52.4129 15.836 52.9289 15.476 53.0849 14.828H54.5609C54.3809 16.208 53.2289 17.156 51.6809 17.156C49.8809 17.156 48.7049 15.908 48.7049 14.024ZM55.3025 14.024C55.3025 12.176 56.6345 10.904 58.4705 10.904C60.3065 10.904 61.6385 12.176 61.6385 14.024C61.6385 15.872 60.3065 17.144 58.4705 17.144C56.6345 17.144 55.3025 15.872 55.3025 14.024ZM56.7665 14.024C56.7665 15.104 57.4625 15.836 58.4705 15.836C59.4785 15.836 60.1745 15.104 60.1745 14.024C60.1745 12.944 59.4785 12.212 58.4705 12.212C57.4625 12.212 56.7665 12.944 56.7665 14.024ZM66.519 11.048V12.404H65.979C64.923 12.404 64.263 12.968 64.263 14.12V17H62.799V11.084H64.179L64.263 11.948C64.515 11.36 65.079 10.964 65.871 10.964C66.075 10.964 66.279 10.988 66.519 11.048ZM69.7467 17.156C68.0307 17.156 66.9627 15.896 66.9627 14.06C66.9627 12.212 68.0427 10.892 69.8307 10.892C70.6587 10.892 71.3907 11.24 71.7627 11.828V8.072H73.2147V17H71.8707L71.7747 16.076C71.4147 16.76 70.6467 17.156 69.7467 17.156ZM70.0707 15.812C71.0907 15.812 71.7507 15.08 71.7507 14.012C71.7507 12.944 71.0907 12.2 70.0707 12.2C69.0507 12.2 68.4267 12.956 68.4267 14.012C68.4267 15.068 69.0507 15.812 70.0707 15.812ZM74.7284 14.444V13.148H78.5924V14.444H74.7284ZM79.7361 14.024C79.7361 12.188 80.9481 10.892 82.7001 10.892C84.3201 10.892 85.4241 11.792 85.5801 13.22H84.1161C83.9481 12.548 83.4561 12.2 82.7601 12.2C81.8241 12.2 81.2001 12.908 81.2001 14.024C81.2001 15.14 81.7761 15.836 82.7121 15.836C83.4441 15.836 83.9601 15.476 84.1161 14.828H85.5921C85.4121 16.208 84.2601 17.156 82.7121 17.156C80.9121 17.156 79.7361 15.908 79.7361 14.024ZM87.4138 9.884C86.9098 9.884 86.5138 9.488 86.5138 8.996C86.5138 8.504 86.9098 8.12 87.4138 8.12C87.8938 8.12 88.2898 8.504 88.2898 8.996C88.2898 9.488 87.8938 9.884 87.4138 9.884ZM86.6818 17V11.072H88.1458V17H86.6818ZM93.3783 11.048V12.404H92.8383C91.7823 12.404 91.1223 12.968 91.1223 14.12V17H89.6583V11.084H91.0383L91.1223 11.948C91.3743 11.36 91.9383 10.964 92.7303 10.964C92.9343 10.964 93.1383 10.988 93.3783 11.048ZM93.8221 14.024C93.8221 12.188 95.0341 10.892 96.7861 10.892C98.4061 10.892 99.5101 11.792 99.6661 13.22H98.2021C98.0341 12.548 97.5421 12.2 96.8461 12.2C95.9101 12.2 95.2861 12.908 95.2861 14.024C95.2861 15.14 95.8621 15.836 96.7981 15.836C97.5301 15.836 98.0461 15.476 98.2021 14.828H99.6781C99.4981 16.208 98.3461 17.156 96.7981 17.156C94.9981 17.156 93.8221 15.908 93.8221 14.024ZM102.244 17H100.792V8.072H102.244V17ZM106.431 17.156C104.667 17.156 103.431 15.872 103.431 14.036C103.431 12.176 104.643 10.892 106.383 10.892C108.159 10.892 109.287 12.08 109.287 13.928V14.372L104.823 14.384C104.931 15.428 105.483 15.956 106.455 15.956C107.259 15.956 107.787 15.644 107.955 15.08H109.311C109.059 16.376 107.979 17.156 106.431 17.156ZM106.395 12.092C105.531 12.092 105.003 12.56 104.859 13.448H107.835C107.835 12.632 107.271 12.092 106.395 12.092Z" fill="black"/>
</svg>
