<svg width="101" height="24" viewBox="0 0 101 24" fill="none" xmlns="http://www.w3.org/2000/svg">
<path d="M14.5302 3.46999L12.5302 1.46999C12.5202 1.45999 12.5102 1.45999 12.5102 1.44999C12.4502 1.38999 12.3702 1.33999 12.2902 1.29999C12.2802 1.29999 12.2802 1.29999 12.2702 1.28999C12.1902 1.25999 12.1102 1.24999 12.0302 1.23999C12.0002 1.23999 11.9802 1.23999 11.9502 1.23999C11.8902 1.23999 11.8302 1.25999 11.7702 1.27999C11.7402 1.28999 11.7202 1.29999 11.7002 1.30999C11.6202 1.34999 11.5402 1.38999 11.4802 1.45999L9.4802 3.45999C9.1902 3.74999 9.1902 4.22999 9.4802 4.51999C9.7702 4.80999 10.2502 4.80999 10.5402 4.51999L11.2602 3.79999V8.99999C11.2602 9.40999 11.6002 9.74999 12.0102 9.74999C12.4202 9.74999 12.7502 9.40999 12.7502 8.99999V3.80999L13.4702 4.52999C13.6202 4.67999 13.8102 4.74999 14.0002 4.74999C14.1902 4.74999 14.3802 4.67999 14.5302 4.52999C14.8202 4.23999 14.8202 3.75999 14.5302 3.46999Z" fill="#1A1A1A"/>
<path opacity="0.4" d="M16.19 6H7.81C4.17 6 2 8.17 2 11.81V16.18C2 19.83 4.17 22 7.81 22H16.18C19.82 22 21.99 19.83 21.99 16.19V11.82C22 8.17 19.83 6 16.19 6Z" fill="#1A1A1A"/>
<path d="M21.3 12.23H17.82C16.84 12.23 15.97 12.77 15.53 13.65L14.69 15.31C14.49 15.71 14.09 15.96 13.65 15.96H10.37C10.06 15.96 9.62 15.89 9.33 15.31L8.49 13.66C8.05 12.79 7.17 12.24 6.2 12.24H2.7C2.31 12.24 2 12.55 2 12.94V16.2C2 19.83 4.18 22 7.82 22H16.2C19.63 22 21.74 20.12 22 16.78V12.93C22 12.55 21.69 12.23 21.3 12.23Z" fill="#1A1A1A"/>
<path d="M38.128 16H34.972V7.228H38.044C40.636 7.228 42.424 9.016 42.424 11.632C42.424 14.212 40.672 16 38.128 16ZM37.9 8.644H36.508V14.584H37.984C39.736 14.584 40.804 13.456 40.804 11.632C40.804 9.772 39.712 8.644 37.9 8.644ZM44.3708 8.884C43.8668 8.884 43.4708 8.488 43.4708 7.996C43.4708 7.504 43.8668 7.12 44.3708 7.12C44.8508 7.12 45.2468 7.504 45.2468 7.996C45.2468 8.488 44.8508 8.884 44.3708 8.884ZM43.6388 16V10.072H45.1028V16H43.6388ZM50.3354 10.048V11.404H49.7954C48.7394 11.404 48.0794 11.968 48.0794 13.12V16H46.6154V10.084H47.9954L48.0794 10.948C48.3314 10.36 48.8954 9.964 49.6874 9.964C49.8914 9.964 50.0954 9.988 50.3354 10.048ZM53.7791 16.156C52.0151 16.156 50.7791 14.872 50.7791 13.036C50.7791 11.176 51.9911 9.892 53.7311 9.892C55.5071 9.892 56.6351 11.08 56.6351 12.928V13.372L52.1711 13.384C52.2791 14.428 52.8311 14.956 53.8031 14.956C54.6071 14.956 55.1351 14.644 55.3031 14.08H56.6591C56.4071 15.376 55.3271 16.156 53.7791 16.156ZM53.7431 11.092C52.8791 11.092 52.3511 11.56 52.2071 12.448H55.1831C55.1831 11.632 54.6191 11.092 53.7431 11.092ZM57.4588 13.024C57.4588 11.188 58.6708 9.892 60.4228 9.892C62.0428 9.892 63.1468 10.792 63.3028 12.22H61.8388C61.6708 11.548 61.1788 11.2 60.4828 11.2C59.5468 11.2 58.9228 11.908 58.9228 13.024C58.9228 14.14 59.4988 14.836 60.4348 14.836C61.1668 14.836 61.6828 14.476 61.8388 13.828H63.3148C63.1348 15.208 61.9828 16.156 60.4348 16.156C58.6348 16.156 57.4588 14.908 57.4588 13.024ZM66.4204 16H64.9564V11.296H63.8164V10.072H64.9564V8.224H66.4204V10.072H67.5724V11.296H66.4204V16ZM68.2362 13.444V12.148H72.1002V13.444H68.2362ZM73.0539 14.2H74.4459C74.4579 14.716 74.8419 15.04 75.5139 15.04C76.1979 15.04 76.5699 14.764 76.5699 14.332C76.5699 14.032 76.4139 13.816 75.8859 13.696L74.8179 13.444C73.7499 13.204 73.2339 12.7 73.2339 11.752C73.2339 10.588 74.2179 9.892 75.5859 9.892C76.9179 9.892 77.8179 10.66 77.8299 11.812H76.4379C76.4259 11.308 76.0899 10.984 75.5259 10.984C74.9499 10.984 74.6139 11.248 74.6139 11.692C74.6139 12.028 74.8779 12.244 75.3819 12.364L76.4499 12.616C77.4459 12.844 77.9499 13.3 77.9499 14.212C77.9499 15.412 76.9299 16.156 75.4659 16.156C73.9899 16.156 73.0539 15.364 73.0539 14.2ZM81.7166 16.156C79.9526 16.156 78.7166 14.872 78.7166 13.036C78.7166 11.176 79.9286 9.892 81.6686 9.892C83.4446 9.892 84.5726 11.08 84.5726 12.928V13.372L80.1086 13.384C80.2166 14.428 80.7686 14.956 81.7406 14.956C82.5446 14.956 83.0726 14.644 83.2406 14.08H84.5966C84.3446 15.376 83.2646 16.156 81.7166 16.156ZM81.6806 11.092C80.8166 11.092 80.2886 11.56 80.1446 12.448H83.1206C83.1206 11.632 82.5566 11.092 81.6806 11.092ZM87.2083 16H85.7443V10.072H87.1003L87.2203 10.84C87.5923 10.24 88.3123 9.892 89.1163 9.892C90.6043 9.892 91.3723 10.816 91.3723 12.352V16H89.9083V12.7C89.9083 11.704 89.4163 11.224 88.6603 11.224C87.7603 11.224 87.2083 11.848 87.2083 12.808V16ZM95.2467 16.156C93.5307 16.156 92.4627 14.896 92.4627 13.06C92.4627 11.212 93.5427 9.892 95.3307 9.892C96.1587 9.892 96.8907 10.24 97.2627 10.828V7.072H98.7147V16H97.3707L97.2747 15.076C96.9147 15.76 96.1467 16.156 95.2467 16.156ZM95.5707 14.812C96.5907 14.812 97.2507 14.08 97.2507 13.012C97.2507 11.944 96.5907 11.2 95.5707 11.2C94.5507 11.2 93.9267 11.956 93.9267 13.012C93.9267 14.068 94.5507 14.812 95.5707 14.812Z" fill="black"/>
</svg>
