<svg width="131" height="24" viewBox="0 0 131 24" fill="none" xmlns="http://www.w3.org/2000/svg">
<path opacity="0.4" d="M12 22C17.5228 22 22 17.5228 22 12C22 6.47715 17.5228 2 12 2C6.47715 2 2 6.47715 2 12C2 17.5228 6.47715 22 12 22Z" fill="#1A1A1A"/>
<path d="M17.39 9.25998L14.35 6.22C14.28 6.15 14.2 6.1 14.11 6.06C13.93 5.98 13.72 5.98 13.54 6.06C13.36 6.14 13.21 6.28 13.13 6.47C13.09 6.56 13.07 6.65998 13.07 6.75998V17.07C13.07 17.48 13.41 17.82 13.82 17.82C14.23 17.82 14.57 17.48 14.57 17.07V8.57001L16.33 10.33C16.48 10.48 16.67 10.55 16.86 10.55C17.05 10.55 17.24 10.48 17.39 10.33C17.68 10.02 17.68 9.54998 17.39 9.25998Z" fill="#1A1A1A"/>
<path d="M10.93 6.75C10.93 6.34 10.59 6 10.18 6C9.76999 6 9.42999 6.34 9.42999 6.75V15.25L7.67001 13.49C7.38001 13.2 6.89999 13.2 6.60999 13.49C6.31999 13.78 6.31999 14.26 6.60999 14.55L9.65 17.59C9.72 17.66 9.80002 17.71 9.89002 17.75C9.98002 17.79 10.08 17.81 10.18 17.81C10.28 17.81 10.37 17.79 10.47 17.75C10.65 17.67 10.8 17.53 10.88 17.34C10.92 17.25 10.94 17.15 10.94 17.05V6.75H10.93Z" fill="#1A1A1A"/>
<path d="M36.484 16H34.972V7.228H36.496L40.612 13.444V7.228H42.124V16H40.612L36.484 9.784V16ZM45.6138 16.156C44.3538 16.156 43.5858 15.424 43.5858 14.308C43.5858 13.216 44.3778 12.532 45.7818 12.424L47.5578 12.292V12.16C47.5578 11.356 47.0778 11.032 46.3338 11.032C45.4698 11.032 44.9898 11.392 44.9898 12.016H43.7418C43.7418 10.732 44.7978 9.892 46.4058 9.892C48.0018 9.892 48.9858 10.756 48.9858 12.4V16H47.7018L47.5938 15.124C47.3418 15.736 46.5378 16.156 45.6138 16.156ZM46.0938 15.052C46.9938 15.052 47.5698 14.512 47.5698 13.6V13.288L46.3338 13.384C45.4218 13.468 45.0738 13.768 45.0738 14.248C45.0738 14.788 45.4338 15.052 46.0938 15.052ZM51.888 16H50.424V10.072H51.768L51.888 10.768C52.188 10.276 52.788 9.892 53.64 9.892C54.54 9.892 55.164 10.336 55.476 11.02C55.776 10.336 56.472 9.892 57.372 9.892C58.812 9.892 59.604 10.756 59.604 12.124V16H58.152V12.508C58.152 11.656 57.696 11.212 57 11.212C56.292 11.212 55.752 11.668 55.752 12.64V16H54.288V12.496C54.288 11.668 53.844 11.224 53.148 11.224C52.452 11.224 51.888 11.68 51.888 12.64V16ZM63.6932 16.156C61.9292 16.156 60.6932 14.872 60.6932 13.036C60.6932 11.176 61.9052 9.892 63.6452 9.892C65.4212 9.892 66.5492 11.08 66.5492 12.928V13.372L62.0852 13.384C62.1932 14.428 62.7452 14.956 63.7172 14.956C64.5212 14.956 65.0492 14.644 65.2172 14.08H66.5732C66.3212 15.376 65.2412 16.156 63.6932 16.156ZM63.6572 11.092C62.7932 11.092 62.2652 11.56 62.1212 12.448H65.0972C65.0972 11.632 64.5332 11.092 63.6572 11.092ZM71.6872 8.884C71.1832 8.884 70.7872 8.488 70.7872 7.996C70.7872 7.504 71.1832 7.12 71.6872 7.12C72.1672 7.12 72.5632 7.504 72.5632 7.996C72.5632 8.488 72.1672 8.884 71.6872 8.884ZM70.9552 16V10.072H72.4192V16H70.9552ZM73.5838 13.024C73.5838 11.188 74.7958 9.892 76.5478 9.892C78.1678 9.892 79.2718 10.792 79.4278 12.22H77.9638C77.7958 11.548 77.3038 11.2 76.6078 11.2C75.6718 11.2 75.0478 11.908 75.0478 13.024C75.0478 14.14 75.6238 14.836 76.5598 14.836C77.2918 14.836 77.8078 14.476 77.9638 13.828H79.4398C79.2598 15.208 78.1078 16.156 76.5598 16.156C74.7598 16.156 73.5838 14.908 73.5838 13.024ZM80.1814 13.024C80.1814 11.176 81.5134 9.904 83.3494 9.904C85.1854 9.904 86.5174 11.176 86.5174 13.024C86.5174 14.872 85.1854 16.144 83.3494 16.144C81.5134 16.144 80.1814 14.872 80.1814 13.024ZM81.6454 13.024C81.6454 14.104 82.3414 14.836 83.3494 14.836C84.3574 14.836 85.0534 14.104 85.0534 13.024C85.0534 11.944 84.3574 11.212 83.3494 11.212C82.3414 11.212 81.6454 11.944 81.6454 13.024ZM89.1419 16H87.6779V10.072H89.0339L89.1539 10.84C89.5259 10.24 90.2459 9.892 91.0499 9.892C92.5379 9.892 93.3059 10.816 93.3059 12.352V16H91.8419V12.7C91.8419 11.704 91.3499 11.224 90.5939 11.224C89.6939 11.224 89.1419 11.848 89.1419 12.808V16Z" fill="black"/>
</svg>
