<svg width="117" height="24" viewBox="0 0 117 24" fill="none" xmlns="http://www.w3.org/2000/svg">
<path opacity="0.4" d="M7.7002 15.71L4.59021 21L1.41016 15.71H7.7002Z" fill="#1A1A1A"/>
<path d="M12.0002 8.41L7.7002 15.71H1.41016L8.82019 3L12.0002 8.41Z" fill="#1A1A1A"/>
<path opacity="0.4" d="M15.1803 3L12.0003 8.41L8.82031 3H15.1803Z" fill="#1A1A1A"/>
<path d="M22.59 15.63C22.59 15.63 22.57 15.66 22.53 15.71H16.3L12 8.41L15.18 3C15.18 3 22.54 15.63 22.59 15.63Z" fill="#1A1A1A"/>
<path opacity="0.4" d="M22.5298 15.71C22.1098 16.37 19.4098 21 19.4098 21L16.2998 15.71H22.5298Z" fill="#1A1A1A"/>
<path d="M19.4098 21H4.58984L7.69983 15.71H16.2998L19.4098 21Z" fill="#1A1A1A"/>
<path opacity="0.4" d="M16.3002 15.71H7.7002L12.0002 8.41003L16.3002 15.71Z" fill="#1A1A1A"/>
<path d="M38.812 8.524C37.072 8.524 36.076 9.784 36.076 11.68C36.076 13.636 37.204 14.704 38.824 14.704C40.348 14.704 41.272 13.864 41.272 12.46V12.424H38.62V11.068H42.7V16H41.404L41.308 14.992C40.828 15.664 39.832 16.132 38.644 16.132C36.184 16.132 34.468 14.344 34.468 11.644C34.468 8.98 36.208 7.084 38.848 7.084C40.852 7.084 42.4 8.248 42.652 10.036H41.032C40.756 9.004 39.868 8.524 38.812 8.524ZM43.7947 13.024C43.7947 11.176 45.1267 9.904 46.9627 9.904C48.7987 9.904 50.1307 11.176 50.1307 13.024C50.1307 14.872 48.7987 16.144 46.9627 16.144C45.1267 16.144 43.7947 14.872 43.7947 13.024ZM45.2587 13.024C45.2587 14.104 45.9547 14.836 46.9627 14.836C47.9707 14.836 48.6667 14.104 48.6667 13.024C48.6667 11.944 47.9707 11.212 46.9627 11.212C45.9547 11.212 45.2587 11.944 45.2587 13.024ZM50.9432 13.024C50.9432 11.176 52.2752 9.904 54.1112 9.904C55.9472 9.904 57.2792 11.176 57.2792 13.024C57.2792 14.872 55.9472 16.144 54.1112 16.144C52.2752 16.144 50.9432 14.872 50.9432 13.024ZM52.4072 13.024C52.4072 14.104 53.1032 14.836 54.1112 14.836C55.1192 14.836 55.8152 14.104 55.8152 13.024C55.8152 11.944 55.1192 11.212 54.1112 11.212C53.1032 11.212 52.4072 11.944 52.4072 13.024ZM58.1036 12.904C58.1036 11.176 59.2316 9.88 60.9236 9.88C61.8116 9.88 62.5076 10.252 62.8556 10.888L62.9396 10.072H64.2956V15.7C64.2956 17.68 63.1076 18.916 61.1876 18.916C59.4836 18.916 58.3196 17.944 58.1396 16.36H59.6036C59.6996 17.128 60.2876 17.584 61.1876 17.584C62.1956 17.584 62.8436 16.948 62.8436 15.964V14.98C62.4716 15.532 61.7396 15.88 60.8876 15.88C59.2076 15.88 58.1036 14.62 58.1036 12.904ZM59.5796 12.868C59.5796 13.864 60.2156 14.608 61.1756 14.608C62.1836 14.608 62.8076 13.9 62.8076 12.868C62.8076 11.86 62.1956 11.164 61.1756 11.164C60.2036 11.164 59.5796 11.896 59.5796 12.868ZM67.2867 16H65.8347V7.072H67.2867V16ZM71.4744 16.156C69.7104 16.156 68.4744 14.872 68.4744 13.036C68.4744 11.176 69.6864 9.892 71.4264 9.892C73.2024 9.892 74.3304 11.08 74.3304 12.928V13.372L69.8664 13.384C69.9744 14.428 70.5264 14.956 71.4984 14.956C72.3024 14.956 72.8304 14.644 72.9984 14.08H74.3544C74.1024 15.376 73.0224 16.156 71.4744 16.156ZM71.4384 11.092C70.5744 11.092 70.0464 11.56 69.9024 12.448H72.8784C72.8784 11.632 72.3144 11.092 71.4384 11.092Z" fill="black"/>
</svg>
