<svg width="101" height="24" viewBox="0 0 101 24" fill="none" xmlns="http://www.w3.org/2000/svg">
<path opacity="0.6" d="M21 7V12L17 14.78V9.23L21 7Z" fill="#1A1A1A"/>
<path opacity="0.6" d="M12 17.56V22L3 17L7 14.77V14.78L12 17.56Z" fill="#1A1A1A"/>
<path d="M7 9.23V14.77L3 17V7L7 9.23Z" fill="#1A1A1A"/>
<path opacity="0.6" d="M12 2V6.44L7 9.22V9.23L3 7L12 2Z" fill="#1A1A1A"/>
<path d="M17 9.23V9.22L12 6.44V2L21 7L17 9.23Z" fill="#1A1A1A"/>
<path d="M17 14.78V19.5L12 22V17.56L17 14.78Z" fill="#1A1A1A"/>
<path opacity="0.4" d="M21 17V22L17 19.5V14.78L21 17Z" fill="#1A1A1A"/>
<path opacity="0.4" d="M17 9.21994V14.7799L12 17.5599L7 14.7799V9.21994L12 6.43994L17 9.21994Z" fill="#1A1A1A"/>
<path d="M41.86 16.66L40.9 15.58C40.276 15.94 39.532 16.144 38.704 16.144C36.196 16.144 34.468 14.284 34.468 11.608C34.468 8.944 36.208 7.072 38.716 7.072C41.224 7.072 42.976 8.932 42.976 11.608C42.976 12.868 42.592 13.948 41.908 14.74L42.844 15.784L41.86 16.66ZM41.356 11.608C41.356 9.736 40.324 8.548 38.716 8.548C37.108 8.548 36.076 9.736 36.076 11.608C36.076 13.48 37.108 14.668 38.716 14.668C39.148 14.668 39.532 14.584 39.88 14.416L38.716 13.108L39.688 12.232L40.852 13.54C41.176 13.036 41.356 12.376 41.356 11.608ZM48.2096 10.072H49.6736V16H48.3176L48.2096 15.208C47.8496 15.772 47.0816 16.156 46.2896 16.156C44.9216 16.156 44.1176 15.232 44.1176 13.78V10.072H45.5816V13.264C45.5816 14.392 46.0256 14.848 46.8416 14.848C47.7656 14.848 48.2096 14.308 48.2096 13.18V10.072ZM52.9497 16.156C51.6897 16.156 50.9217 15.424 50.9217 14.308C50.9217 13.216 51.7137 12.532 53.1177 12.424L54.8937 12.292V12.16C54.8937 11.356 54.4137 11.032 53.6697 11.032C52.8057 11.032 52.3257 11.392 52.3257 12.016H51.0777C51.0777 10.732 52.1337 9.892 53.7417 9.892C55.3377 9.892 56.3217 10.756 56.3217 12.4V16H55.0377L54.9297 15.124C54.6777 15.736 53.8737 16.156 52.9497 16.156ZM53.4297 15.052C54.3297 15.052 54.9057 14.512 54.9057 13.6V13.288L53.6697 13.384C52.7577 13.468 52.4097 13.768 52.4097 14.248C52.4097 14.788 52.7697 15.052 53.4297 15.052ZM59.2239 16H57.7599V10.072H59.1159L59.2359 10.84C59.6079 10.24 60.3279 9.892 61.1319 9.892C62.6199 9.892 63.3879 10.816 63.3879 12.352V16H61.9239V12.7C61.9239 11.704 61.4319 11.224 60.6759 11.224C59.7759 11.224 59.2239 11.848 59.2239 12.808V16ZM66.8423 16H65.3783V11.296H64.2383V10.072H65.3783V8.224H66.8423V10.072H67.9943V11.296H66.8423V16ZM68.6581 13.444V12.148H72.5221V13.444H68.6581ZM76.9538 18.292H75.7898C74.5898 16.924 73.7978 14.776 73.7978 12.472C73.7978 10.372 74.4698 8.164 75.7898 6.664H76.9538C75.9578 8.02 75.2738 10.144 75.2738 12.472C75.2738 14.596 75.8618 16.804 76.9538 18.292ZM77.3572 12.964C77.3572 11.104 78.4612 9.892 80.1292 9.892C81.0292 9.892 81.8092 10.288 82.1692 10.972L82.2652 10.072H83.6092V18.748H82.1572V15.208C81.7852 15.808 81.0052 16.156 80.1292 16.156C78.3652 16.156 77.3572 14.812 77.3572 12.964ZM78.8212 13.036C78.8212 14.092 79.4452 14.836 80.4652 14.836C81.4852 14.836 82.1452 14.104 82.1452 13.036C82.1452 11.968 81.4852 11.224 80.4652 11.224C79.4452 11.224 78.8212 11.98 78.8212 13.036ZM86.5989 16H85.1349V10.072H86.4909L86.6109 10.84C86.9829 10.24 87.7029 9.892 88.5069 9.892C89.9949 9.892 90.7629 10.816 90.7629 12.352V16H89.2989V12.7C89.2989 11.704 88.8069 11.224 88.0509 11.224C87.1509 11.224 86.5989 11.848 86.5989 12.808V16ZM94.2173 16H92.7533V11.296H91.6133V10.072H92.7533V8.224H94.2173V10.072H95.3693V11.296H94.2173V16ZM96.6874 18.292H95.5234C96.6274 16.804 97.2034 14.596 97.2034 12.472C97.2034 10.144 96.5194 8.02 95.5234 6.664H96.6874C98.0074 8.164 98.6914 10.372 98.6914 12.472C98.6914 14.776 97.8874 16.924 96.6874 18.292Z" fill="black"/>
</svg>
