<svg width="101" height="24" viewBox="0 0 101 24" fill="none" xmlns="http://www.w3.org/2000/svg">
<path opacity="0.4" d="M13.1502 15.3699C12.9302 15.0499 12.5401 14.8699 12.0901 14.8699H9.76015C9.61015 14.8699 9.46016 14.8099 9.37016 14.6899C9.27016 14.5699 9.23015 14.4199 9.25015 14.2499L9.54015 12.3899C9.66015 11.8399 9.29015 11.2099 8.74015 11.0199C8.22015 10.8299 7.62016 11.0899 7.37016 11.4599L4.98016 15.0099L4.91016 15.1299V20.1499L5.00015 20.2398L6.80016 21.6299C7.04016 21.8699 7.58015 21.9999 7.96015 21.9999H10.1702C10.9302 21.9999 11.6902 21.4298 11.8702 20.7298L13.2701 16.4798C13.4101 16.0698 13.3702 15.6799 13.1502 15.3699Z" fill="#1A1A1A"/>
<path d="M3.82 13.2998H3.24C2.36 13.2998 2 13.6398 2 14.4798V20.1898C2 21.0298 2.36 21.3698 3.24 21.3698H3.82C4.7 21.3698 5.06 21.0298 5.06 20.1898V14.4798C5.06 13.6398 4.7 13.2998 3.82 13.2998Z" fill="#1A1A1A"/>
<path opacity="0.4" d="M11.1997 8.59973C11.4197 8.91973 11.8097 9.09973 12.2597 9.09973H14.5897C14.7397 9.09973 14.8897 9.15979 14.9797 9.27979C15.0797 9.39979 15.1197 9.54973 15.0997 9.71973L14.8097 11.5798C14.6897 12.1298 15.0597 12.7598 15.6097 12.9498C16.1297 13.1398 16.7297 12.8798 16.9797 12.5098L19.3697 8.95978L19.4397 8.83978V3.81976L19.3497 3.72974L17.5497 2.33978C17.3097 2.09978 16.7697 1.96973 16.3897 1.96973H14.1797C13.4197 1.96973 12.6597 2.53975 12.4797 3.23975L11.0797 7.48975C10.9397 7.88975 10.9797 8.28973 11.1997 8.59973Z" fill="#1A1A1A"/>
<path d="M20.5295 10.6696H21.1096C21.9896 10.6696 22.3495 10.3296 22.3495 9.48962V3.77966C22.3495 2.93966 21.9896 2.59961 21.1096 2.59961H20.5295C19.6495 2.59961 19.2896 2.93966 19.2896 3.77966V9.48962C19.2896 10.3296 19.6495 10.6696 20.5295 10.6696Z" fill="#1A1A1A"/>
<path d="M36.508 7.228V14.584H40.18V16H34.972V7.228H36.508ZM41.945 8.884C41.441 8.884 41.045 8.488 41.045 7.996C41.045 7.504 41.441 7.12 41.945 7.12C42.425 7.12 42.821 7.504 42.821 7.996C42.821 8.488 42.425 8.884 41.945 8.884ZM41.213 16V10.072H42.677V16H41.213ZM45.6656 16H44.2136V7.072H45.6656V12.556L47.9696 10.072H49.8056L47.5496 12.424L49.7576 16H48.0776L46.5296 13.504L45.6656 14.404V16ZM53.0291 16.156C51.2651 16.156 50.0291 14.872 50.0291 13.036C50.0291 11.176 51.2411 9.892 52.9811 9.892C54.7571 9.892 55.8851 11.08 55.8851 12.928V13.372L51.4211 13.384C51.5291 14.428 52.0811 14.956 53.0531 14.956C53.8571 14.956 54.3851 14.644 54.5531 14.08H55.9091C55.6571 15.376 54.5771 16.156 53.0291 16.156ZM52.9931 11.092C52.1291 11.092 51.6011 11.56 51.4571 12.448H54.4331C54.4331 11.632 53.8691 11.092 52.9931 11.092ZM57.0448 13.444V12.148H60.9088V13.444H57.0448ZM64.8365 16.156C63.1205 16.156 62.0525 14.896 62.0525 13.06C62.0525 11.212 63.1325 9.892 64.9205 9.892C65.7485 9.892 66.4805 10.24 66.8525 10.828V7.072H68.3045V16H66.9605L66.8645 15.076C66.5045 15.76 65.7365 16.156 64.8365 16.156ZM65.1605 14.812C66.1805 14.812 66.8405 14.08 66.8405 13.012C66.8405 11.944 66.1805 11.2 65.1605 11.2C64.1405 11.2 63.5165 11.956 63.5165 13.012C63.5165 14.068 64.1405 14.812 65.1605 14.812ZM70.5622 8.884C70.0582 8.884 69.6622 8.488 69.6622 7.996C69.6622 7.504 70.0582 7.12 70.5622 7.12C71.0422 7.12 71.4382 7.504 71.4382 7.996C71.4382 8.488 71.0422 8.884 70.5622 8.884ZM69.8302 16V10.072H71.2942V16H69.8302ZM72.3508 14.2H73.7428C73.7548 14.716 74.1388 15.04 74.8108 15.04C75.4948 15.04 75.8668 14.764 75.8668 14.332C75.8668 14.032 75.7108 13.816 75.1828 13.696L74.1148 13.444C73.0468 13.204 72.5308 12.7 72.5308 11.752C72.5308 10.588 73.5148 9.892 74.8828 9.892C76.2148 9.892 77.1148 10.66 77.1268 11.812H75.7348C75.7228 11.308 75.3868 10.984 74.8228 10.984C74.2468 10.984 73.9108 11.248 73.9108 11.692C73.9108 12.028 74.1748 12.244 74.6788 12.364L75.7468 12.616C76.7428 12.844 77.2468 13.3 77.2468 14.212C77.2468 15.412 76.2268 16.156 74.7628 16.156C73.2868 16.156 72.3508 15.364 72.3508 14.2ZM79.8375 16H78.3855V7.072H79.8375V16ZM82.1052 8.884C81.6012 8.884 81.2052 8.488 81.2052 7.996C81.2052 7.504 81.6012 7.12 82.1052 7.12C82.5852 7.12 82.9812 7.504 82.9812 7.996C82.9812 8.488 82.5852 8.884 82.1052 8.884ZM81.3732 16V10.072H82.8372V16H81.3732ZM85.8258 16H84.3738V7.072H85.8258V12.556L88.1298 10.072H89.9658L87.7098 12.424L89.9178 16H88.2378L86.6898 13.504L85.8258 14.404V16ZM93.1893 16.156C91.4253 16.156 90.1893 14.872 90.1893 13.036C90.1893 11.176 91.4013 9.892 93.1413 9.892C94.9173 9.892 96.0453 11.08 96.0453 12.928V13.372L91.5813 13.384C91.6893 14.428 92.2413 14.956 93.2133 14.956C94.0173 14.956 94.5453 14.644 94.7133 14.08H96.0693C95.8173 15.376 94.7373 16.156 93.1893 16.156ZM93.1533 11.092C92.2893 11.092 91.7613 11.56 91.6173 12.448H94.5933C94.5933 11.632 94.0293 11.092 93.1533 11.092Z" fill="black"/>
</svg>
