<svg width="120" height="24" viewBox="0 0 120 24" fill="none" xmlns="http://www.w3.org/2000/svg">
<path opacity="0.4" d="M12 22C17.5228 22 22 17.5228 22 12C22 6.47715 17.5228 2 12 2C6.47715 2 2 6.47715 2 12C2 17.5228 6.47715 22 12 22Z" fill="#1A1A1A"/>
<path d="M15.75 12.75C16.16 12.75 16.5 12.41 16.5 12C16.5 11.59 16.16 11.25 15.75 11.25H8.5V11C8.5 9.76 9.51 8.75 10.75 8.75H15.75C16.16 8.75 16.5 8.41 16.5 8C16.5 7.59 16.16 7.25 15.75 7.25H10.75C8.68 7.25 7 8.93 7 11V13C7 15.07 8.68 16.75 10.75 16.75H15.75C16.16 16.75 16.5 16.41 16.5 16C16.5 15.59 16.16 15.25 15.75 15.25H10.75C9.51 15.25 8.5 14.24 8.5 13V12.75H15.75Z" fill="#1A1A1A"/>
<path d="M40.42 17H34.972V8.228H40.42V9.644H36.508V11.9H40.012V13.256H36.508V15.584H40.42V17ZM43.3333 17H41.8693V11.072H43.2253L43.3453 11.84C43.7173 11.24 44.4373 10.892 45.2413 10.892C46.7293 10.892 47.4973 11.816 47.4973 13.352V17H46.0333V13.7C46.0333 12.704 45.5413 12.224 44.7853 12.224C43.8853 12.224 43.3333 12.848 43.3333 13.808V17ZM49.6677 9.884C49.1757 9.884 48.7797 9.488 48.7797 8.996C48.7797 8.504 49.1757 8.12 49.6677 8.12C50.1477 8.12 50.5557 8.504 50.5557 8.996C50.5557 9.488 50.1477 9.884 49.6677 9.884ZM47.5197 19.784L47.7597 18.488C47.9637 18.548 48.0837 18.56 48.2637 18.56C48.7677 18.56 48.9357 18.272 48.9357 17.672V11.072H50.3997V17.84C50.3997 19.1 49.6797 19.916 48.3957 19.916C48.1197 19.916 47.9037 19.892 47.5197 19.784ZM52.6443 9.884C52.1403 9.884 51.7443 9.488 51.7443 8.996C51.7443 8.504 52.1403 8.12 52.6443 8.12C53.1243 8.12 53.5203 8.504 53.5203 8.996C53.5203 9.488 53.1243 9.884 52.6443 9.884ZM51.9123 17V11.072H53.3763V17H51.9123ZM56.3528 17H54.8888V11.072H56.2448L56.3648 11.84C56.7368 11.24 57.4568 10.892 58.2608 10.892C59.7488 10.892 60.5168 11.816 60.5168 13.352V17H59.0528V13.7C59.0528 12.704 58.5608 12.224 57.8048 12.224C56.9048 12.224 56.3528 12.848 56.3528 13.808V17ZM61.9432 14.444V13.148H65.8072V14.444H61.9432ZM66.951 14.024C66.951 12.188 68.163 10.892 69.915 10.892C71.535 10.892 72.639 11.792 72.795 13.22H71.331C71.163 12.548 70.671 12.2 69.975 12.2C69.039 12.2 68.415 12.908 68.415 14.024C68.415 15.14 68.991 15.836 69.927 15.836C70.659 15.836 71.175 15.476 71.331 14.828H72.807C72.627 16.208 71.475 17.156 69.927 17.156C68.127 17.156 66.951 15.908 66.951 14.024ZM73.5486 14.024C73.5486 12.176 74.8806 10.904 76.7166 10.904C78.5526 10.904 79.8846 12.176 79.8846 14.024C79.8846 15.872 78.5526 17.144 76.7166 17.144C74.8806 17.144 73.5486 15.872 73.5486 14.024ZM75.0126 14.024C75.0126 15.104 75.7086 15.836 76.7166 15.836C77.7246 15.836 78.4206 15.104 78.4206 14.024C78.4206 12.944 77.7246 12.212 76.7166 12.212C75.7086 12.212 75.0126 12.944 75.0126 14.024ZM81.7771 9.884C81.2731 9.884 80.8771 9.488 80.8771 8.996C80.8771 8.504 81.2731 8.12 81.7771 8.12C82.2571 8.12 82.6531 8.504 82.6531 8.996C82.6531 9.488 82.2571 9.884 81.7771 9.884ZM81.0451 17V11.072H82.5091V17H81.0451ZM85.4856 17H84.0216V11.072H85.3776L85.4976 11.84C85.8696 11.24 86.5896 10.892 87.3936 10.892C88.8816 10.892 89.6496 11.816 89.6496 13.352V17H88.1856V13.7C88.1856 12.704 87.6936 12.224 86.9376 12.224C86.0376 12.224 85.4856 12.848 85.4856 13.808V17ZM91.076 14.444V13.148H94.94V14.444H91.076ZM99.3718 19.292H98.2078C97.0078 17.924 96.2158 15.776 96.2158 13.472C96.2158 11.372 96.8878 9.164 98.2078 7.664H99.3718C98.3758 9.02 97.6918 11.144 97.6918 13.472C97.6918 15.596 98.2798 17.804 99.3718 19.292ZM102.775 17.156C101.011 17.156 99.7752 15.872 99.7752 14.036C99.7752 12.176 100.987 10.892 102.727 10.892C104.503 10.892 105.631 12.08 105.631 13.928V14.372L101.167 14.384C101.275 15.428 101.827 15.956 102.799 15.956C103.603 15.956 104.131 15.644 104.299 15.08H105.655C105.403 16.376 104.323 17.156 102.775 17.156ZM102.739 12.092C101.875 12.092 101.347 12.56 101.203 13.448H104.179C104.179 12.632 103.615 12.092 102.739 12.092ZM108.267 17H106.803V11.072H108.159L108.279 11.84C108.651 11.24 109.371 10.892 110.175 10.892C111.663 10.892 112.431 11.816 112.431 13.352V17H110.967V13.7C110.967 12.704 110.475 12.224 109.719 12.224C108.819 12.224 108.267 12.848 108.267 13.808V17ZM114.601 9.884C114.109 9.884 113.713 9.488 113.713 8.996C113.713 8.504 114.109 8.12 114.601 8.12C115.081 8.12 115.489 8.504 115.489 8.996C115.489 9.488 115.081 9.884 114.601 9.884ZM112.453 19.784L112.693 18.488C112.897 18.548 113.017 18.56 113.197 18.56C113.701 18.56 113.869 18.272 113.869 17.672V11.072H115.333V17.84C115.333 19.1 114.613 19.916 113.329 19.916C113.053 19.916 112.837 19.892 112.453 19.784ZM117.418 19.292H116.254C117.358 17.804 117.934 15.596 117.934 13.472C117.934 11.144 117.25 9.02 116.254 7.664H117.418C118.738 9.164 119.422 11.372 119.422 13.472C119.422 15.776 118.618 17.924 117.418 19.292Z" fill="black"/>
</svg>
