<svg width="126" height="24" viewBox="0 0 126 24" fill="none" xmlns="http://www.w3.org/2000/svg">
<path opacity="0.4" d="M12 22C17.5228 22 22 17.5228 22 12C22 6.47715 17.5228 2 12 2C6.47715 2 2 6.47715 2 12C2 17.5228 6.47715 22 12 22Z" fill="#1A1A1A"/>
<path d="M16.4998 9.16V12.99C16.4998 13.77 15.6498 14.25 14.9898 13.85L12.5198 12.37C12.1998 12.18 11.8098 12.18 11.4898 12.37L9.01978 13.85C8.34978 14.25 7.50977 13.77 7.50977 12.99V9.16C7.50977 8.82 7.68977 8.5 7.96977 8.32L11.4698 6.1C11.7998 5.89 12.2098 5.89 12.5398 6.1L16.0398 8.32C16.3198 8.5 16.4998 8.82 16.4998 9.16Z" fill="#1A1A1A"/>
<path d="M11.9995 18.06C11.8495 18.06 11.7095 18.02 11.5795 17.93L9.32946 16.43C8.98946 16.2 8.88945 15.73 9.11945 15.39C9.34945 15.04 9.81946 14.95 10.1595 15.18L11.9895 16.4L13.8195 15.18C14.1595 14.95 14.6295 15.04 14.8595 15.39C15.0895 15.73 14.9995 16.2 14.6495 16.43L12.3995 17.93C12.2895 18.02 12.1495 18.06 11.9995 18.06Z" fill="#1A1A1A"/>
<path d="M36.796 17L34.18 8.228H35.776L37.168 12.86C37.3 13.34 37.432 13.832 37.564 14.6C37.708 13.82 37.84 13.364 37.996 12.86L39.376 8.228H41.068L42.424 12.86C42.568 13.352 42.7 13.856 42.844 14.6C43.012 13.784 43.132 13.316 43.264 12.872L44.68 8.228H46.24L43.576 17H42.088L40.216 10.616L38.308 17H36.796ZM48.0513 17.156C46.7913 17.156 46.0233 16.424 46.0233 15.308C46.0233 14.216 46.8153 13.532 48.2193 13.424L49.9953 13.292V13.16C49.9953 12.356 49.5153 12.032 48.7713 12.032C47.9073 12.032 47.4273 12.392 47.4273 13.016H46.1793C46.1793 11.732 47.2353 10.892 48.8433 10.892C50.4393 10.892 51.4233 11.756 51.4233 13.4V17H50.1393L50.0313 16.124C49.7793 16.736 48.9753 17.156 48.0513 17.156ZM48.5312 16.052C49.4313 16.052 50.0073 15.512 50.0073 14.6V14.288L48.7713 14.384C47.8593 14.468 47.5113 14.768 47.5113 15.248C47.5113 15.788 47.8713 16.052 48.5312 16.052ZM54.3255 17H52.8615V11.072H54.2175L54.3375 11.84C54.7095 11.24 55.4295 10.892 56.2335 10.892C57.7215 10.892 58.4895 11.816 58.4895 13.352V17H57.0255V13.7C57.0255 12.704 56.5335 12.224 55.7775 12.224C54.8775 12.224 54.3255 12.848 54.3255 13.808V17ZM59.5799 14.024C59.5799 12.188 60.7919 10.892 62.5439 10.892C64.1639 10.892 65.2679 11.792 65.4239 13.22H63.9599C63.7919 12.548 63.2999 12.2 62.6039 12.2C61.6679 12.2 61.0439 12.908 61.0439 14.024C61.0439 15.14 61.6199 15.836 62.5559 15.836C63.2879 15.836 63.8039 15.476 63.9599 14.828H65.4359C65.2559 16.208 64.1039 17.156 62.5559 17.156C60.7559 17.156 59.5799 15.908 59.5799 14.024ZM67.9895 17H66.5255V8.072H68.0015V11.84C68.3735 11.264 69.0695 10.892 69.9215 10.892C71.3855 10.892 72.1535 11.816 72.1535 13.352V17H70.6895V13.7C70.6895 12.704 70.1975 12.224 69.4535 12.224C68.5295 12.224 67.9895 12.872 67.9895 13.76V17ZM75.3559 17.156C74.0959 17.156 73.3279 16.424 73.3279 15.308C73.3279 14.216 74.1199 13.532 75.5239 13.424L77.2999 13.292V13.16C77.2999 12.356 76.8199 12.032 76.0759 12.032C75.2119 12.032 74.7319 12.392 74.7319 13.016H73.4839C73.4839 11.732 74.5399 10.892 76.1479 10.892C77.7439 10.892 78.7279 11.756 78.7279 13.4V17H77.4439L77.3359 16.124C77.0839 16.736 76.2799 17.156 75.3559 17.156ZM75.8359 16.052C76.7359 16.052 77.3119 15.512 77.3119 14.6V14.288L76.0759 14.384C75.1639 14.468 74.8159 14.768 74.8159 15.248C74.8159 15.788 75.1759 16.052 75.8359 16.052ZM80.8982 9.884C80.3942 9.884 79.9982 9.488 79.9982 8.996C79.9982 8.504 80.3942 8.12 80.8982 8.12C81.3782 8.12 81.7742 8.504 81.7742 8.996C81.7742 9.488 81.3782 9.884 80.8982 9.884ZM80.1662 17V11.072H81.6302V17H80.1662ZM84.6067 17H83.1427V11.072H84.4987L84.6187 11.84C84.9907 11.24 85.7107 10.892 86.5147 10.892C88.0027 10.892 88.7707 11.816 88.7707 13.352V17H87.3067V13.7C87.3067 12.704 86.8147 12.224 86.0587 12.224C85.1587 12.224 84.6067 12.848 84.6067 13.808V17ZM90.1971 14.444V13.148H94.0611V14.444H90.1971ZM98.4929 19.292H97.3289C96.1289 17.924 95.3369 15.776 95.3369 13.472C95.3369 11.372 96.0089 9.164 97.3289 7.664H98.4929C97.4969 9.02 96.8129 11.144 96.8129 13.472C96.8129 15.596 97.4009 17.804 98.4929 19.292ZM100.552 17L98.6323 11.072H100.156L100.936 13.616C101.068 14.084 101.188 14.6 101.296 15.152C101.404 14.576 101.512 14.204 101.704 13.616L102.52 11.072H104.008L104.8 13.616C104.872 13.856 105.112 14.744 105.184 15.14C105.28 14.696 105.472 13.988 105.58 13.616L106.372 11.072H107.92L105.868 17H104.5L103.684 14.432C103.444 13.652 103.312 13.088 103.264 12.788C103.204 13.064 103.096 13.484 102.796 14.456L101.98 17H100.552ZM110.278 17.156C109.018 17.156 108.25 16.424 108.25 15.308C108.25 14.216 109.042 13.532 110.446 13.424L112.222 13.292V13.16C112.222 12.356 111.742 12.032 110.998 12.032C110.134 12.032 109.654 12.392 109.654 13.016H108.406C108.406 11.732 109.462 10.892 111.07 10.892C112.666 10.892 113.65 11.756 113.65 13.4V17H112.366L112.258 16.124C112.006 16.736 111.202 17.156 110.278 17.156ZM110.758 16.052C111.658 16.052 112.234 15.512 112.234 14.6V14.288L110.998 14.384C110.086 14.468 109.738 14.768 109.738 15.248C109.738 15.788 110.098 16.052 110.758 16.052ZM116.552 17H115.088V11.072H116.444L116.564 11.84C116.936 11.24 117.656 10.892 118.46 10.892C119.948 10.892 120.716 11.816 120.716 13.352V17H119.252V13.7C119.252 12.704 118.76 12.224 118.004 12.224C117.104 12.224 116.552 12.848 116.552 13.808V17ZM122.562 19.292H121.398C122.502 17.804 123.078 15.596 123.078 13.472C123.078 11.144 122.394 9.02 121.398 7.664H122.562C123.882 9.164 124.566 11.372 124.566 13.472C124.566 15.776 123.762 17.924 122.562 19.292Z" fill="black"/>
</svg>
