<svg width="101" height="24" viewBox="0 0 101 24" fill="none" xmlns="http://www.w3.org/2000/svg">
<path opacity="0.4" d="M16.19 2H7.82C4.17 2 2 4.17 2 7.81V16.18C2 19.82 4.17 21.99 7.81 21.99H16.18C19.82 21.99 21.99 19.82 21.99 16.18V7.81C22 4.17 19.83 2 16.19 2Z" fill="#1A1A1A"/>
<path d="M16.1904 2C16.2103 2 16.2302 2.00085 16.25 2.00098V12.4199C16.25 13.0598 16.0604 13.5404 15.7305 13.7305C15.3905 13.9305 14.85 13.8297 14.25 13.4697L12.9297 12.6797C12.4198 12.37 11.5802 12.37 11.0703 12.6797L9.75 13.4697C9.15 13.8297 8.60953 13.9205 8.26953 13.7305C7.93962 13.5404 7.75 13.0598 7.75 12.4199V2.00098C7.77327 2.0008 7.79692 2 7.82031 2H16.1904Z" fill="#1A1A1A"/>
<path d="M34.972 16V7.228H38.464C40.192 7.228 41.248 8.128 41.248 9.592C41.248 10.564 40.816 11.26 39.988 11.608C40.912 11.908 41.38 12.604 41.38 13.624C41.38 15.124 40.336 16 38.524 16H34.972ZM38.332 8.584H36.508V10.972H38.368C39.208 10.972 39.676 10.528 39.676 9.748C39.676 8.992 39.196 8.584 38.332 8.584ZM38.464 12.268H36.508V14.644H38.464C39.328 14.644 39.808 14.224 39.808 13.432C39.808 12.688 39.316 12.268 38.464 12.268ZM42.2244 13.024C42.2244 11.176 43.5564 9.904 45.3924 9.904C47.2284 9.904 48.5604 11.176 48.5604 13.024C48.5604 14.872 47.2284 16.144 45.3924 16.144C43.5564 16.144 42.2244 14.872 42.2244 13.024ZM43.6884 13.024C43.6884 14.104 44.3844 14.836 45.3924 14.836C46.4004 14.836 47.0964 14.104 47.0964 13.024C47.0964 11.944 46.4004 11.212 45.3924 11.212C44.3844 11.212 43.6884 11.944 43.6884 13.024ZM49.3728 13.024C49.3728 11.176 50.7048 9.904 52.5408 9.904C54.3768 9.904 55.7088 11.176 55.7088 13.024C55.7088 14.872 54.3768 16.144 52.5408 16.144C50.7048 16.144 49.3728 14.872 49.3728 13.024ZM50.8368 13.024C50.8368 14.104 51.5328 14.836 52.5408 14.836C53.5488 14.836 54.2448 14.104 54.2448 13.024C54.2448 11.944 53.5488 11.212 52.5408 11.212C51.5328 11.212 50.8368 11.944 50.8368 13.024ZM58.3453 16H56.8933V7.072H58.3453V12.556L60.6493 10.072H62.4853L60.2293 12.424L62.4373 16H60.7573L59.2093 13.504L58.3453 14.404V16ZM64.7903 16H63.3263V10.072H64.6703L64.7903 10.768C65.0903 10.276 65.6903 9.892 66.5423 9.892C67.4423 9.892 68.0663 10.336 68.3783 11.02C68.6783 10.336 69.3743 9.892 70.2743 9.892C71.7143 9.892 72.5063 10.756 72.5063 12.124V16H71.0543V12.508C71.0543 11.656 70.5983 11.212 69.9023 11.212C69.1943 11.212 68.6543 11.668 68.6543 12.64V16H67.1903V12.496C67.1903 11.668 66.7463 11.224 66.0503 11.224C65.3543 11.224 64.7903 11.68 64.7903 12.64V16ZM75.7075 16.156C74.4475 16.156 73.6795 15.424 73.6795 14.308C73.6795 13.216 74.4715 12.532 75.8755 12.424L77.6515 12.292V12.16C77.6515 11.356 77.1715 11.032 76.4275 11.032C75.5635 11.032 75.0835 11.392 75.0835 12.016H73.8355C73.8355 10.732 74.8915 9.892 76.4995 9.892C78.0955 9.892 79.0795 10.756 79.0795 12.4V16H77.7955L77.6875 15.124C77.4355 15.736 76.6315 16.156 75.7075 16.156ZM76.1875 15.052C77.0875 15.052 77.6635 14.512 77.6635 13.6V13.288L76.4275 13.384C75.5155 13.468 75.1675 13.768 75.1675 14.248C75.1675 14.788 75.5275 15.052 76.1875 15.052ZM84.2377 10.048V11.404H83.6977C82.6417 11.404 81.9817 11.968 81.9817 13.12V16H80.5177V10.084H81.8977L81.9817 10.948C82.2337 10.36 82.7977 9.964 83.5897 9.964C83.7937 9.964 83.9977 9.988 84.2377 10.048ZM86.7047 16H85.2527V7.072H86.7047V12.556L89.0087 10.072H90.8447L88.5887 12.424L90.7967 16H89.1167L87.5687 13.504L86.7047 14.404V16Z" fill="black"/>
</svg>
