<svg width="134" height="24" viewBox="0 0 134 24" fill="none" xmlns="http://www.w3.org/2000/svg">
<path opacity="0.4" d="M14.79 4H9.21004C4.79004 4 4.79004 6.35 4.79004 8.42V12.21C4.79004 12.43 4.89004 12.63 5.06004 12.76C5.23004 12.89 5.46004 12.94 5.67004 12.88C6.12004 12.76 6.68004 12.7 7.35004 12.7C8.02004 12.7 8.16004 12.78 8.56004 13.08L9.47004 14.04C10.12 14.74 11.05 15.14 12.01 15.14C12.97 15.14 13.89 14.74 14.55 14.04L15.46 13.08C15.86 12.78 16 12.7 16.67 12.7C17.34 12.7 17.9 12.76 18.35 12.88C18.56 12.94 18.78 12.89 18.96 12.76C19.13 12.63 19.23 12.42 19.23 12.21V8.42C19.21 6.35 19.21 4 14.79 4Z" fill="#1A1A1A"/>
<path d="M14.2748 6.8C14.0148 6.54 13.5848 6.54 13.3248 6.8L12.6748 7.45V2.67C12.6748 2.3 12.3648 2 11.9948 2C11.6248 2 11.3148 2.3 11.3148 2.67V7.44L10.6748 6.8C10.4148 6.54 9.98479 6.54 9.72479 6.8C9.46479 7.06 9.46479 7.49 9.72479 7.75L11.5248 9.55C11.5348 9.56 11.5348 9.56 11.5448 9.56C11.6048 9.61 11.6648 9.66 11.7448 9.69C11.8248 9.72 11.9148 9.74 12.0048 9.74C12.0948 9.74 12.1748 9.72 12.2648 9.69C12.3448 9.66 12.4248 9.61 12.4848 9.54L14.2848 7.74C14.5348 7.49 14.5348 7.06 14.2748 6.8Z" fill="#1A1A1A"/>
<path d="M18.6902 11.53C18.1202 11.38 17.4502 11.3 16.6502 11.3C15.5402 11.3 15.1302 11.57 14.5602 12C14.5302 12.02 14.5002 12.05 14.4702 12.08L13.5202 13.09C12.7202 13.93 11.2802 13.94 10.4802 13.08L9.53018 12.08C9.50017 12.05 9.47018 12.02 9.44018 12C8.87017 11.57 8.46018 11.3 7.35018 11.3C6.55018 11.3 5.88018 11.38 5.31018 11.53C2.93018 12.17 2.93018 14.06 2.93018 15.72V16.65C2.93018 19.16 2.93018 22 8.28018 22H15.7202C19.2702 22 21.0702 20.2 21.0702 16.65V15.72C21.0702 14.06 21.0702 12.17 18.6902 11.53ZM14.3302 18.4H9.67018C9.29018 18.4 8.98018 18.09 8.98018 17.7C8.98018 17.31 9.29018 17 9.67018 17H14.3302C14.7102 17 15.0202 17.31 15.0202 17.7C15.0202 18.09 14.7102 18.4 14.3302 18.4Z" fill="#1A1A1A"/>
<path opacity="0.4" d="M15.02 17.7C15.02 18.09 14.71 18.4 14.33 18.4H9.66998C9.28998 18.4 8.97998 18.09 8.97998 17.7C8.97998 17.31 9.28998 17 9.66998 17H14.33C14.71 17 15.02 17.31 15.02 17.7Z" fill="#1A1A1A"/>
<path d="M38.128 17H34.972V8.228H38.044C40.636 8.228 42.424 10.016 42.424 12.632C42.424 15.212 40.672 17 38.128 17ZM37.9 9.644H36.508V15.584H37.984C39.736 15.584 40.804 14.456 40.804 12.632C40.804 10.772 39.712 9.644 37.9 9.644ZM44.3708 9.884C43.8668 9.884 43.4708 9.488 43.4708 8.996C43.4708 8.504 43.8668 8.12 44.3708 8.12C44.8508 8.12 45.2468 8.504 45.2468 8.996C45.2468 9.488 44.8508 9.884 44.3708 9.884ZM43.6388 17V11.072H45.1028V17H43.6388ZM50.3354 11.048V12.404H49.7954C48.7394 12.404 48.0794 12.968 48.0794 14.12V17H46.6154V11.084H47.9954L48.0794 11.948C48.3314 11.36 48.8954 10.964 49.6874 10.964C49.8914 10.964 50.0954 10.988 50.3354 11.048ZM53.7791 17.156C52.0151 17.156 50.7791 15.872 50.7791 14.036C50.7791 12.176 51.9911 10.892 53.7311 10.892C55.5071 10.892 56.6351 12.08 56.6351 13.928V14.372L52.1711 14.384C52.2791 15.428 52.8311 15.956 53.8031 15.956C54.6071 15.956 55.1351 15.644 55.3031 15.08H56.6591C56.4071 16.376 55.3271 17.156 53.7791 17.156ZM53.7431 12.092C52.8791 12.092 52.3511 12.56 52.2071 13.448H55.1831C55.1831 12.632 54.6191 12.092 53.7431 12.092ZM57.4588 14.024C57.4588 12.188 58.6708 10.892 60.4228 10.892C62.0428 10.892 63.1468 11.792 63.3028 13.22H61.8388C61.6708 12.548 61.1788 12.2 60.4828 12.2C59.5468 12.2 58.9228 12.908 58.9228 14.024C58.9228 15.14 59.4988 15.836 60.4348 15.836C61.1668 15.836 61.6828 15.476 61.8388 14.828H63.3148C63.1348 16.208 61.9828 17.156 60.4348 17.156C58.6348 17.156 57.4588 15.908 57.4588 14.024ZM66.4204 17H64.9564V12.296H63.8164V11.072H64.9564V9.224H66.4204V11.072H67.5724V12.296H66.4204V17ZM69.8386 17H68.4826V8.072H69.9466V11.936C70.3306 11.276 71.1226 10.88 72.0226 10.88C73.7146 10.88 74.7466 12.2 74.7466 14.072C74.7466 15.896 73.6306 17.156 71.9266 17.156C71.0386 17.156 70.2826 16.76 69.9346 16.076L69.8386 17ZM69.9586 14.012C69.9586 15.08 70.6186 15.812 71.6266 15.812C72.6586 15.812 73.2706 15.068 73.2706 14.012C73.2706 12.956 72.6586 12.2 71.6266 12.2C70.6186 12.2 69.9586 12.944 69.9586 14.012ZM75.5643 14.024C75.5643 12.176 76.8963 10.904 78.7323 10.904C80.5683 10.904 81.9003 12.176 81.9003 14.024C81.9003 15.872 80.5683 17.144 78.7323 17.144C76.8963 17.144 75.5643 15.872 75.5643 14.024ZM77.0283 14.024C77.0283 15.104 77.7243 15.836 78.7323 15.836C79.7403 15.836 80.4363 15.104 80.4363 14.024C80.4363 12.944 79.7403 12.212 78.7323 12.212C77.7243 12.212 77.0283 12.944 77.0283 14.024ZM83.8232 17H82.1552L84.1952 14.096L82.1552 11.072H83.8592L85.1672 13.088L86.4272 11.072H88.0712L86.0552 14.072L88.0112 17H86.3312L85.0712 15.044L83.8232 17ZM88.4042 14.444V13.148H92.2682V14.444H88.4042ZM97.4799 11.048V12.404H96.9399C95.8839 12.404 95.2239 12.968 95.2239 14.12V17H93.7599V11.084H95.1399L95.2239 11.948C95.4759 11.36 96.0399 10.964 96.8319 10.964C97.0359 10.964 97.2399 10.988 97.4799 11.048ZM100.924 17.156C99.1596 17.156 97.9236 15.872 97.9236 14.036C97.9236 12.176 99.1356 10.892 100.876 10.892C102.652 10.892 103.78 12.08 103.78 13.928V14.372L99.3156 14.384C99.4236 15.428 99.9756 15.956 100.948 15.956C101.752 15.956 102.28 15.644 102.448 15.08H103.804C103.552 16.376 102.472 17.156 100.924 17.156ZM100.888 12.092C100.024 12.092 99.4956 12.56 99.3516 13.448H102.328C102.328 12.632 101.764 12.092 100.888 12.092ZM104.603 14.024C104.603 12.188 105.815 10.892 107.567 10.892C109.187 10.892 110.291 11.792 110.447 13.22H108.983C108.815 12.548 108.323 12.2 107.627 12.2C106.691 12.2 106.067 12.908 106.067 14.024C106.067 15.14 106.643 15.836 107.579 15.836C108.311 15.836 108.827 15.476 108.983 14.828H110.459C110.279 16.208 109.127 17.156 107.579 17.156C105.779 17.156 104.603 15.908 104.603 14.024ZM114.201 17.156C112.437 17.156 111.201 15.872 111.201 14.036C111.201 12.176 112.413 10.892 114.153 10.892C115.929 10.892 117.057 12.08 117.057 13.928V14.372L112.593 14.384C112.701 15.428 113.253 15.956 114.225 15.956C115.029 15.956 115.557 15.644 115.725 15.08H117.081C116.829 16.376 115.749 17.156 114.201 17.156ZM114.165 12.092C113.301 12.092 112.773 12.56 112.629 13.448H115.605C115.605 12.632 115.041 12.092 114.165 12.092ZM118.961 9.884C118.457 9.884 118.061 9.488 118.061 8.996C118.061 8.504 118.457 8.12 118.961 8.12C119.441 8.12 119.837 8.504 119.837 8.996C119.837 9.488 119.441 9.884 118.961 9.884ZM118.229 17V11.072H119.693V17H118.229ZM122.885 17L120.533 11.072H122.093L123.125 13.796C123.377 14.504 123.581 15.116 123.653 15.44C123.737 15.068 123.953 14.444 124.205 13.796L125.285 11.072H126.797L124.325 17H122.885ZM129.998 17.156C128.234 17.156 126.998 15.872 126.998 14.036C126.998 12.176 128.21 10.892 129.95 10.892C131.726 10.892 132.854 12.08 132.854 13.928V14.372L128.39 14.384C128.498 15.428 129.05 15.956 130.022 15.956C130.826 15.956 131.354 15.644 131.522 15.08H132.878C132.626 16.376 131.546 17.156 129.998 17.156ZM129.962 12.092C129.098 12.092 128.57 12.56 128.426 13.448H131.402C131.402 12.632 130.838 12.092 129.962 12.092Z" fill="black"/>
</svg>
