<svg width="101" height="24" viewBox="0 0 101 24" fill="none" xmlns="http://www.w3.org/2000/svg">
<path d="M20.5 6.75H15.5C15.09 6.75 14.75 6.41 14.75 6C14.75 5.59 15.09 5.25 15.5 5.25H20.5C20.91 5.25 21.25 5.59 21.25 6C21.25 6.41 20.91 6.75 20.5 6.75Z" fill="#1A1A1A"/>
<path opacity="0.4" d="M11.79 14.21L8.52 17.48C8.16 17.16 7.81 16.83 7.47 16.49C6.44 15.45 5.51 14.36 4.68 13.22C3.86 12.08 3.2 10.94 2.72 9.81C2.24 8.67 2 7.58 2 6.54C2 5.86 2.12 5.21 2.36 4.61C2.6 4 2.98 3.44 3.51 2.94C4.15 2.31 4.85 2 5.59 2C5.87 2 6.15 2.06 6.4 2.18C6.66 2.3 6.89 2.48 7.07 2.74L9.39 6.01C9.57 6.26 9.7 6.49 9.79 6.71C9.88 6.92 9.93 7.13 9.93 7.32C9.93 7.56 9.86 7.8 9.72 8.03C9.59 8.26 9.4 8.5 9.16 8.74L8.4 9.53C8.29 9.64 8.24 9.77 8.24 9.93C8.24 10.01 8.25 10.08 8.27 10.16C8.3 10.24 8.33 10.3 8.35 10.36C8.53 10.69 8.84 11.12 9.28 11.64C9.73 12.16 10.21 12.69 10.73 13.22C11.09 13.57 11.44 13.91 11.79 14.21Z" fill="#1A1A1A"/>
<path d="M21.9696 18.33C21.9696 18.61 21.9196 18.9 21.8196 19.18C21.7896 19.26 21.7596 19.34 21.7196 19.42C21.5496 19.78 21.3296 20.12 21.0396 20.44C20.5496 20.98 20.0096 21.37 19.3996 21.62C19.3896 21.62 19.3796 21.63 19.3696 21.63C18.7796 21.87 18.1396 22 17.4496 22C16.4296 22 15.3396 21.76 14.1896 21.27C13.0396 20.78 11.8896 20.12 10.7496 19.29C10.3596 19 9.96961 18.71 9.59961 18.4L12.8696 15.13C13.1496 15.34 13.3996 15.5 13.6096 15.61C13.6596 15.63 13.7196 15.66 13.7896 15.69C13.8696 15.72 13.9496 15.73 14.0396 15.73C14.2096 15.73 14.3396 15.67 14.4496 15.56L15.2096 14.81C15.4596 14.56 15.6996 14.37 15.9296 14.25C16.1596 14.11 16.3896 14.04 16.6396 14.04C16.8296 14.04 17.0296 14.08 17.2496 14.17C17.4696 14.26 17.6996 14.39 17.9496 14.56L21.2596 16.91C21.5196 17.09 21.6996 17.3 21.8096 17.55C21.9096 17.8 21.9696 18.05 21.9696 18.33Z" fill="#1A1A1A"/>
<path d="M38.68 16.144C36.124 16.144 34.468 14.368 34.468 11.62C34.468 8.896 36.184 7.084 38.752 7.084C40.828 7.084 42.376 8.296 42.676 10.18H41.056C40.756 9.16 39.88 8.56 38.716 8.56C37.096 8.56 36.076 9.736 36.076 11.608C36.076 13.468 37.108 14.668 38.716 14.668C39.904 14.668 40.816 14.044 41.104 13.072H42.7C42.364 14.92 40.756 16.144 38.68 16.144ZM45.5083 16.156C44.2483 16.156 43.4803 15.424 43.4803 14.308C43.4803 13.216 44.2723 12.532 45.6763 12.424L47.4523 12.292V12.16C47.4523 11.356 46.9723 11.032 46.2283 11.032C45.3643 11.032 44.8843 11.392 44.8843 12.016H43.6363C43.6363 10.732 44.6923 9.892 46.3003 9.892C47.8963 9.892 48.8803 10.756 48.8803 12.4V16H47.5963L47.4883 15.124C47.2363 15.736 46.4323 16.156 45.5083 16.156ZM45.9883 15.052C46.8883 15.052 47.4643 14.512 47.4643 13.6V13.288L46.2283 13.384C45.3163 13.468 44.9683 13.768 44.9683 14.248C44.9683 14.788 45.3283 15.052 45.9883 15.052ZM51.7945 16H50.3425V7.072H51.7945V16ZM54.8062 16H53.3542V7.072H54.8062V16ZM56.3299 13.444V12.148H60.1939V13.444H56.3299ZM63.1497 16H61.6857V10.072H63.0297L63.1497 10.768C63.4497 10.276 64.0497 9.892 64.9017 9.892C65.8017 9.892 66.4257 10.336 66.7377 11.02C67.0377 10.336 67.7337 9.892 68.6337 9.892C70.0737 9.892 70.8657 10.756 70.8657 12.124V16H69.4137V12.508C69.4137 11.656 68.9577 11.212 68.2617 11.212C67.5537 11.212 67.0137 11.668 67.0137 12.64V16H65.5497V12.496C65.5497 11.668 65.1057 11.224 64.4097 11.224C63.7137 11.224 63.1497 11.68 63.1497 12.64V16ZM73.0349 8.884C72.5309 8.884 72.1349 8.488 72.1349 7.996C72.1349 7.504 72.5309 7.12 73.0349 7.12C73.5149 7.12 73.9109 7.504 73.9109 7.996C73.9109 8.488 73.5149 8.884 73.0349 8.884ZM72.3029 16V10.072H73.7669V16H72.3029ZM76.7434 16H75.2794V10.072H76.6354L76.7554 10.84C77.1274 10.24 77.8474 9.892 78.6514 9.892C80.1394 9.892 80.9074 10.816 80.9074 12.352V16H79.4434V12.7C79.4434 11.704 78.9514 11.224 78.1954 11.224C77.2954 11.224 76.7434 11.848 76.7434 12.808V16ZM86.3658 10.072H87.8298V16H86.4738L86.3658 15.208C86.0058 15.772 85.2378 16.156 84.4458 16.156C83.0778 16.156 82.2738 15.232 82.2738 13.78V10.072H83.7378V13.264C83.7378 14.392 84.1818 14.848 84.9978 14.848C85.9218 14.848 86.3658 14.308 86.3658 13.18V10.072ZM88.7688 14.2H90.1608C90.1728 14.716 90.5568 15.04 91.2288 15.04C91.9128 15.04 92.2848 14.764 92.2848 14.332C92.2848 14.032 92.1288 13.816 91.6008 13.696L90.5328 13.444C89.4648 13.204 88.9488 12.7 88.9488 11.752C88.9488 10.588 89.9328 9.892 91.3008 9.892C92.6328 9.892 93.5328 10.66 93.5448 11.812H92.1528C92.1408 11.308 91.8048 10.984 91.2408 10.984C90.6648 10.984 90.3288 11.248 90.3288 11.692C90.3288 12.028 90.5928 12.244 91.0968 12.364L92.1648 12.616C93.1608 12.844 93.6648 13.3 93.6648 14.212C93.6648 15.412 92.6448 16.156 91.1808 16.156C89.7048 16.156 88.7688 15.364 88.7688 14.2Z" fill="black"/>
</svg>
