<svg width="140" height="24" viewBox="0 0 140 24" fill="none" xmlns="http://www.w3.org/2000/svg">
<path opacity="0.4" d="M12 22C17.5228 22 22 17.5228 22 12C22 6.47715 17.5228 2 12 2C6.47715 2 2 6.47715 2 12C2 17.5228 6.47715 22 12 22Z" fill="#1A1A1A"/>
<path d="M11.9999 15.0099C11.8099 15.0099 11.6199 14.9399 11.4699 14.7899L7.93991 11.2599C7.64991 10.9699 7.64991 10.4899 7.93991 10.1999C8.22991 9.90992 8.70991 9.90992 8.99991 10.1999L11.9999 13.1999L14.9999 10.1999C15.2899 9.90992 15.7699 9.90992 16.0599 10.1999C16.3499 10.4899 16.3499 10.9699 16.0599 11.2599L12.5299 14.7899C12.3799 14.9399 12.1899 15.0099 11.9999 15.0099Z" fill="#1A1A1A"/>
<path d="M35.728 17H34.132L37.3 8.228H38.872L42.04 17H40.42L39.712 14.972H36.436L35.728 17ZM37.888 10.844L36.892 13.676H39.268L38.26 10.844C38.188 10.616 38.104 10.352 38.08 10.172C38.044 10.34 37.972 10.604 37.888 10.844ZM46.644 11.048V12.404H46.104C45.048 12.404 44.388 12.968 44.388 14.12V17H42.924V11.084H44.304L44.388 11.948C44.64 11.36 45.204 10.964 45.996 10.964C46.2 10.964 46.404 10.988 46.644 11.048ZM51.3549 11.048V12.404H50.8149C49.7589 12.404 49.0989 12.968 49.0989 14.12V17H47.6349V11.084H49.0149L49.0989 11.948C49.3509 11.36 49.9149 10.964 50.7069 10.964C50.9109 10.964 51.1149 10.988 51.3549 11.048ZM51.7986 14.024C51.7986 12.176 53.1306 10.904 54.9666 10.904C56.8026 10.904 58.1346 12.176 58.1346 14.024C58.1346 15.872 56.8026 17.144 54.9666 17.144C53.1306 17.144 51.7986 15.872 51.7986 14.024ZM53.2626 14.024C53.2626 15.104 53.9586 15.836 54.9666 15.836C55.9746 15.836 56.6706 15.104 56.6706 14.024C56.6706 12.944 55.9746 12.212 54.9666 12.212C53.9586 12.212 53.2626 12.944 53.2626 14.024ZM60.3101 17L58.3901 11.072H59.9141L60.6941 13.616C60.8261 14.084 60.9461 14.6 61.0541 15.152C61.1621 14.576 61.2701 14.204 61.4621 13.616L62.2781 11.072H63.7661L64.5581 13.616C64.6301 13.856 64.8701 14.744 64.9421 15.14C65.0381 14.696 65.2301 13.988 65.3381 13.616L66.1301 11.072H67.6781L65.6261 17H64.2581L63.4421 14.432C63.2021 13.652 63.0701 13.088 63.0221 12.788C62.9621 13.064 62.8541 13.484 62.5541 14.456L61.7381 17H60.3101ZM68.1424 14.444V13.148H72.0064V14.444H68.1424ZM73.1502 14.024C73.1502 12.188 74.3622 10.892 76.1142 10.892C77.7342 10.892 78.8382 11.792 78.9942 13.22H77.5302C77.3622 12.548 76.8702 12.2 76.1742 12.2C75.2382 12.2 74.6142 12.908 74.6142 14.024C74.6142 15.14 75.1902 15.836 76.1262 15.836C76.8582 15.836 77.3742 15.476 77.5302 14.828H79.0062C78.8262 16.208 77.6742 17.156 76.1262 17.156C74.3262 17.156 73.1502 15.908 73.1502 14.024ZM80.8278 9.884C80.3238 9.884 79.9278 9.488 79.9278 8.996C79.9278 8.504 80.3238 8.12 80.8278 8.12C81.3078 8.12 81.7038 8.504 81.7038 8.996C81.7038 9.488 81.3078 9.884 80.8278 9.884ZM80.0958 17V11.072H81.5598V17H80.0958ZM86.7924 11.048V12.404H86.2524C85.1964 12.404 84.5364 12.968 84.5364 14.12V17H83.0724V11.084H84.4524L84.5364 11.948C84.7884 11.36 85.3524 10.964 86.1444 10.964C86.3484 10.964 86.5524 10.988 86.7924 11.048ZM87.2361 14.024C87.2361 12.188 88.4481 10.892 90.2001 10.892C91.8201 10.892 92.9241 11.792 93.0801 13.22H91.6161C91.4481 12.548 90.9561 12.2 90.2601 12.2C89.3241 12.2 88.7001 12.908 88.7001 14.024C88.7001 15.14 89.2761 15.836 90.2121 15.836C90.9441 15.836 91.4601 15.476 91.6161 14.828H93.0921C92.9121 16.208 91.7601 17.156 90.2121 17.156C88.4121 17.156 87.2361 15.908 87.2361 14.024ZM95.6578 17H94.2058V8.072H95.6578V17ZM99.8455 17.156C98.0815 17.156 96.8455 15.872 96.8455 14.036C96.8455 12.176 98.0575 10.892 99.7975 10.892C101.574 10.892 102.702 12.08 102.702 13.928V14.372L98.2375 14.384C98.3455 15.428 98.8975 15.956 99.8695 15.956C100.674 15.956 101.202 15.644 101.37 15.08H102.726C102.474 16.376 101.394 17.156 99.8455 17.156ZM99.8095 12.092C98.9455 12.092 98.4175 12.56 98.2735 13.448H101.25C101.25 12.632 100.686 12.092 99.8095 12.092ZM103.861 14.444V13.148H107.725V14.444H103.861ZM111.653 17.156C109.937 17.156 108.869 15.896 108.869 14.06C108.869 12.212 109.949 10.892 111.737 10.892C112.565 10.892 113.297 11.24 113.669 11.828V8.072H115.121V17H113.777L113.681 16.076C113.321 16.76 112.553 17.156 111.653 17.156ZM111.977 15.812C112.997 15.812 113.657 15.08 113.657 14.012C113.657 12.944 112.997 12.2 111.977 12.2C110.957 12.2 110.333 12.956 110.333 14.012C110.333 15.068 110.957 15.812 111.977 15.812ZM116.299 14.024C116.299 12.176 117.631 10.904 119.467 10.904C121.303 10.904 122.635 12.176 122.635 14.024C122.635 15.872 121.303 17.144 119.467 17.144C117.631 17.144 116.299 15.872 116.299 14.024ZM117.763 14.024C117.763 15.104 118.459 15.836 119.467 15.836C120.475 15.836 121.171 15.104 121.171 14.024C121.171 12.944 120.475 12.212 119.467 12.212C118.459 12.212 117.763 12.944 117.763 14.024ZM124.81 17L122.89 11.072H124.414L125.194 13.616C125.326 14.084 125.446 14.6 125.554 15.152C125.662 14.576 125.77 14.204 125.962 13.616L126.778 11.072H128.266L129.058 13.616C129.13 13.856 129.37 14.744 129.442 15.14C129.538 14.696 129.73 13.988 129.838 13.616L130.63 11.072H132.178L130.126 17H128.758L127.942 14.432C127.702 13.652 127.57 13.088 127.522 12.788C127.462 13.064 127.354 13.484 127.054 14.456L126.238 17H124.81ZM134.529 17H133.065V11.072H134.421L134.541 11.84C134.913 11.24 135.633 10.892 136.437 10.892C137.925 10.892 138.693 11.816 138.693 13.352V17H137.229V13.7C137.229 12.704 136.737 12.224 135.981 12.224C135.081 12.224 134.529 12.848 134.529 13.808V17Z" fill="black"/>
</svg>
