<svg width="101" height="24" viewBox="0 0 101 24" fill="none" xmlns="http://www.w3.org/2000/svg">
<path opacity="0.4" d="M12 5.2997V21.3297C11.83 21.3297 11.65 21.2997 11.51 21.2197L11.47 21.1997C9.55 20.1497 6.2 19.0497 4.03 18.7597L3.74 18.7197C2.78 18.5997 2 17.6997 2 16.7397V4.6597C2 3.4697 2.97 2.5697 4.16 2.6697C6.26 2.8397 9.44 3.8997 11.22 5.0097L11.47 5.1597C11.62 5.2497 11.81 5.2997 12 5.2997Z" fill="#1A1A1A"/>
<path d="M22 4.66954V16.7395C22 17.6995 21.22 18.5995 20.26 18.7195L19.93 18.7595C17.75 19.0495 14.39 20.1595 12.47 21.2195C12.34 21.2995 12.18 21.3295 12 21.3295V5.29954C12.19 5.29954 12.38 5.24954 12.53 5.15954L12.7 5.04954C14.48 3.92954 17.67 2.85954 19.77 2.67954H19.83C21.02 2.57954 22 3.46954 22 4.66954Z" fill="#1A1A1A"/>
<path d="M7.75 9.24023H5.5C5.09 9.24023 4.75 8.90023 4.75 8.49023C4.75 8.08023 5.09 7.74023 5.5 7.74023H7.75C8.16 7.74023 8.5 8.08023 8.5 8.49023C8.5 8.90023 8.16 9.24023 7.75 9.24023Z" fill="#1A1A1A"/>
<path d="M8.5 12.2402H5.5C5.09 12.2402 4.75 11.9002 4.75 11.4902C4.75 11.0802 5.09 10.7402 5.5 10.7402H8.5C8.91 10.7402 9.25 11.0802 9.25 11.4902C9.25 11.9002 8.91 12.2402 8.5 12.2402Z" fill="#1A1A1A"/>
<path d="M34.972 16V7.228H38.464C40.192 7.228 41.248 8.128 41.248 9.592C41.248 10.564 40.816 11.26 39.988 11.608C40.912 11.908 41.38 12.604 41.38 13.624C41.38 15.124 40.336 16 38.524 16H34.972ZM38.332 8.584H36.508V10.972H38.368C39.208 10.972 39.676 10.528 39.676 9.748C39.676 8.992 39.196 8.584 38.332 8.584ZM38.464 12.268H36.508V14.644H38.464C39.328 14.644 39.808 14.224 39.808 13.432C39.808 12.688 39.316 12.268 38.464 12.268ZM42.2244 13.024C42.2244 11.176 43.5564 9.904 45.3924 9.904C47.2284 9.904 48.5604 11.176 48.5604 13.024C48.5604 14.872 47.2284 16.144 45.3924 16.144C43.5564 16.144 42.2244 14.872 42.2244 13.024ZM43.6884 13.024C43.6884 14.104 44.3844 14.836 45.3924 14.836C46.4004 14.836 47.0964 14.104 47.0964 13.024C47.0964 11.944 46.4004 11.212 45.3924 11.212C44.3844 11.212 43.6884 11.944 43.6884 13.024ZM49.3728 13.024C49.3728 11.176 50.7048 9.904 52.5408 9.904C54.3768 9.904 55.7088 11.176 55.7088 13.024C55.7088 14.872 54.3768 16.144 52.5408 16.144C50.7048 16.144 49.3728 14.872 49.3728 13.024ZM50.8368 13.024C50.8368 14.104 51.5328 14.836 52.5408 14.836C53.5488 14.836 54.2448 14.104 54.2448 13.024C54.2448 11.944 53.5488 11.212 52.5408 11.212C51.5328 11.212 50.8368 11.944 50.8368 13.024ZM58.3453 16H56.8933V7.072H58.3453V12.556L60.6493 10.072H62.4853L60.2293 12.424L62.4373 16H60.7573L59.2093 13.504L58.3453 14.404V16ZM62.5409 13.444V12.148H66.4049V13.444H62.5409ZM73.0032 15.988L66.9192 16V14.848L69.7872 12.424C70.9752 11.416 71.3712 10.84 71.3712 10C71.3712 9.004 70.8312 8.44 69.9072 8.44C68.9472 8.44 68.3472 9.112 68.3352 10.24H66.8112C66.8232 8.32 68.0472 7.072 69.9072 7.072C71.7792 7.072 72.9432 8.14 72.9432 9.916C72.9432 11.14 72.2712 12.064 70.9392 13.204L69.3552 14.56H73.0032V15.988Z" fill="black"/>
</svg>
