<svg width="101" height="24" viewBox="0 0 101 24" fill="none" xmlns="http://www.w3.org/2000/svg">
<path opacity="0.4" d="M16.1899 8.86039C15.7999 8.86039 15.4899 8.55039 15.4899 8.16039V6.88039C15.4899 5.90039 15.0699 4.96039 14.3499 4.30039C13.6099 3.63039 12.6599 3.32039 11.6599 3.41039C9.97986 3.57039 8.50986 5.28039 8.50986 7.06039V7.96039C8.50986 8.35039 8.19986 8.66039 7.80986 8.66039C7.41986 8.66039 7.10986 8.35039 7.10986 7.96039V7.06039C7.10986 4.56039 9.12986 2.25039 11.5199 2.02039C12.9099 1.89039 14.2499 2.33039 15.2799 3.27039C16.2999 4.19039 16.8799 5.51039 16.8799 6.88039V8.16039C16.8799 8.55039 16.5699 8.86039 16.1899 8.86039Z" fill="#1A1A1A"/>
<path d="M19.9602 8.96008C19.1202 8.03008 17.7402 7.58008 15.7202 7.58008H8.28023C6.26023 7.58008 4.88023 8.03008 4.04023 8.96008C3.07023 10.0401 3.10023 11.4801 3.21023 12.4801L3.91023 18.0501C4.12023 20.0001 4.91023 22.0001 9.21023 22.0001H14.7902C19.0902 22.0001 19.8802 20.0001 20.0902 18.0601L20.7902 12.4701C20.9002 11.4801 20.9302 10.0401 19.9602 8.96008ZM12.0002 18.5801C9.91023 18.5801 8.21023 16.8801 8.21023 14.7901C8.21023 12.7001 9.91023 11.0001 12.0002 11.0001C14.0902 11.0001 15.7902 12.7001 15.7902 14.7901C15.7902 16.8801 14.0902 18.5801 12.0002 18.5801Z" fill="#1A1A1A"/>
<path opacity="0.4" d="M12 18.58C14.0931 18.58 15.79 16.8832 15.79 14.79C15.79 12.6968 14.0931 11 12 11C9.9068 11 8.20996 12.6968 8.20996 14.79C8.20996 16.8832 9.9068 18.58 12 18.58Z" fill="#1A1A1A"/>
<path d="M13.6001 15.3102L13.0701 14.7802L13.5701 14.2802C13.8601 13.9902 13.8601 13.5102 13.5701 13.2202C13.2801 12.9302 12.8001 12.9302 12.5101 13.2202L12.0101 13.7202L11.4801 13.1902C11.1901 12.9002 10.7101 12.9002 10.4201 13.1902C10.1301 13.4802 10.1301 13.9602 10.4201 14.2502L10.9501 14.7802L10.4001 15.3302C10.1101 15.6202 10.1101 16.1002 10.4001 16.3902C10.5501 16.5402 10.7401 16.6102 10.9301 16.6102C11.1201 16.6102 11.3101 16.5402 11.4601 16.3902L12.0101 15.8402L12.5401 16.3702C12.6901 16.5202 12.8801 16.5902 13.0701 16.5902C13.2601 16.5902 13.4501 16.5202 13.6001 16.3702C13.8901 16.0802 13.8901 15.6102 13.6001 15.3102Z" fill="#1A1A1A"/>
<path d="M34.972 16V7.228H38.464C40.192 7.228 41.248 8.128 41.248 9.592C41.248 10.564 40.816 11.26 39.988 11.608C40.912 11.908 41.38 12.604 41.38 13.624C41.38 15.124 40.336 16 38.524 16H34.972ZM38.332 8.584H36.508V10.972H38.368C39.208 10.972 39.676 10.528 39.676 9.748C39.676 8.992 39.196 8.584 38.332 8.584ZM38.464 12.268H36.508V14.644H38.464C39.328 14.644 39.808 14.224 39.808 13.432C39.808 12.688 39.316 12.268 38.464 12.268ZM44.3364 16.156C43.0764 16.156 42.3084 15.424 42.3084 14.308C42.3084 13.216 43.1004 12.532 44.5044 12.424L46.2804 12.292V12.16C46.2804 11.356 45.8004 11.032 45.0564 11.032C44.1924 11.032 43.7124 11.392 43.7124 12.016H42.4644C42.4644 10.732 43.5204 9.892 45.1284 9.892C46.7244 9.892 47.7084 10.756 47.7084 12.4V16H46.4244L46.3164 15.124C46.0644 15.736 45.2604 16.156 44.3364 16.156ZM44.8164 15.052C45.7164 15.052 46.2924 14.512 46.2924 13.6V13.288L45.0564 13.384C44.1444 13.468 43.7964 13.768 43.7964 14.248C43.7964 14.788 44.1564 15.052 44.8164 15.052ZM48.8106 12.904C48.8106 11.176 49.9386 9.88 51.6306 9.88C52.5186 9.88 53.2146 10.252 53.5626 10.888L53.6466 10.072H55.0026V15.7C55.0026 17.68 53.8146 18.916 51.8946 18.916C50.1906 18.916 49.0266 17.944 48.8466 16.36H50.3106C50.4066 17.128 50.9946 17.584 51.8946 17.584C52.9026 17.584 53.5506 16.948 53.5506 15.964V14.98C53.1786 15.532 52.4466 15.88 51.5946 15.88C49.9146 15.88 48.8106 14.62 48.8106 12.904ZM50.2866 12.868C50.2866 13.864 50.9226 14.608 51.8826 14.608C52.8906 14.608 53.5146 13.9 53.5146 12.868C53.5146 11.86 52.9026 11.164 51.8826 11.164C50.9106 11.164 50.2866 11.896 50.2866 12.868ZM56.5057 13.444V12.148H60.3697V13.444H56.5057ZM61.5135 13.024C61.5135 11.188 62.7255 9.892 64.4775 9.892C66.0975 9.892 67.2015 10.792 67.3575 12.22H65.8935C65.7255 11.548 65.2335 11.2 64.5375 11.2C63.6015 11.2 62.9775 11.908 62.9775 13.024C62.9775 14.14 63.5535 14.836 64.4895 14.836C65.2215 14.836 65.7375 14.476 65.8935 13.828H67.3695C67.1895 15.208 66.0375 16.156 64.4895 16.156C62.6895 16.156 61.5135 14.908 61.5135 13.024ZM72.1791 10.048V11.404H71.6391C70.5831 11.404 69.9231 11.968 69.9231 13.12V16H68.4591V10.084H69.8391L69.9231 10.948C70.1751 10.36 70.7391 9.964 71.5311 9.964C71.7351 9.964 71.9391 9.988 72.1791 10.048ZM72.6228 13.024C72.6228 11.176 73.9548 9.904 75.7908 9.904C77.6268 9.904 78.9588 11.176 78.9588 13.024C78.9588 14.872 77.6268 16.144 75.7908 16.144C73.9548 16.144 72.6228 14.872 72.6228 13.024ZM74.0868 13.024C74.0868 14.104 74.7828 14.836 75.7908 14.836C76.7988 14.836 77.4948 14.104 77.4948 13.024C77.4948 11.944 76.7988 11.212 75.7908 11.212C74.7828 11.212 74.0868 11.944 74.0868 13.024ZM79.6633 14.2H81.0553C81.0673 14.716 81.4513 15.04 82.1233 15.04C82.8073 15.04 83.1793 14.764 83.1793 14.332C83.1793 14.032 83.0233 13.816 82.4953 13.696L81.4273 13.444C80.3593 13.204 79.8433 12.7 79.8433 11.752C79.8433 10.588 80.8273 9.892 82.1953 9.892C83.5273 9.892 84.4273 10.66 84.4393 11.812H83.0473C83.0353 11.308 82.6993 10.984 82.1353 10.984C81.5593 10.984 81.2233 11.248 81.2233 11.692C81.2233 12.028 81.4873 12.244 81.9913 12.364L83.0593 12.616C84.0553 12.844 84.5593 13.3 84.5593 14.212C84.5593 15.412 83.5393 16.156 82.0753 16.156C80.5993 16.156 79.6633 15.364 79.6633 14.2ZM85.218 14.2H86.61C86.622 14.716 87.006 15.04 87.678 15.04C88.362 15.04 88.734 14.764 88.734 14.332C88.734 14.032 88.578 13.816 88.05 13.696L86.982 13.444C85.914 13.204 85.398 12.7 85.398 11.752C85.398 10.588 86.382 9.892 87.75 9.892C89.082 9.892 89.982 10.66 89.994 11.812H88.602C88.59 11.308 88.254 10.984 87.69 10.984C87.114 10.984 86.778 11.248 86.778 11.692C86.778 12.028 87.042 12.244 87.546 12.364L88.614 12.616C89.61 12.844 90.114 13.3 90.114 14.212C90.114 15.412 89.094 16.156 87.63 16.156C86.154 16.156 85.218 15.364 85.218 14.2Z" fill="black"/>
</svg>
