<svg width="101" height="24" viewBox="0 0 101 24" fill="none" xmlns="http://www.w3.org/2000/svg">
<path d="M12.0001 14.3801C13.3146 14.3801 14.3801 13.3146 14.3801 12.0001C14.3801 10.6857 13.3146 9.62012 12.0001 9.62012C10.6857 9.62012 9.62012 10.6857 9.62012 12.0001C9.62012 13.3146 10.6857 14.3801 12.0001 14.3801Z" fill="#1A1A1A"/>
<path opacity="0.4" d="M20.0003 18.7503C19.8403 18.7503 19.6903 18.7003 19.5503 18.6003C19.2203 18.3503 19.1503 17.8803 19.4003 17.5503C20.6103 15.9403 21.2503 14.0203 21.2503 12.0003C21.2503 9.98028 20.6103 8.06029 19.4003 6.45029C19.1503 6.12029 19.2203 5.65028 19.5503 5.40028C19.8803 5.15028 20.3503 5.22027 20.6003 5.55027C22.0103 7.42027 22.7503 9.65028 22.7503 12.0003C22.7503 14.3503 22.0103 16.5803 20.6003 18.4503C20.4503 18.6503 20.2303 18.7503 20.0003 18.7503Z" fill="#1A1A1A"/>
<path opacity="0.4" d="M4 18.7503C3.77 18.7503 3.54999 18.6503 3.39999 18.4503C1.98999 16.5803 1.25 14.3503 1.25 12.0003C1.25 9.65028 1.98999 7.42027 3.39999 5.55027C3.64999 5.22027 4.12001 5.15028 4.45001 5.40028C4.78001 5.65028 4.85001 6.12029 4.60001 6.45029C3.39001 8.06029 2.75 9.98028 2.75 12.0003C2.75 14.0203 3.39001 15.9403 4.60001 17.5503C4.85001 17.8803 4.78001 18.3503 4.45001 18.6003C4.32001 18.7003 4.16 18.7503 4 18.7503Z" fill="#1A1A1A"/>
<path opacity="0.4" d="M16.8001 16.3497C16.6401 16.3497 16.4901 16.2997 16.3501 16.1997C16.0201 15.9497 15.9501 15.4797 16.2001 15.1497C16.8901 14.2397 17.2501 13.1497 17.2501 11.9997C17.2501 10.8497 16.8901 9.7597 16.2001 8.8497C15.9501 8.5197 16.0201 8.04968 16.3501 7.79968C16.6801 7.54968 17.1501 7.6197 17.4001 7.9497C18.2801 9.1297 18.7501 10.5297 18.7501 11.9997C18.7501 13.4697 18.2801 14.8797 17.4001 16.0497C17.2501 16.2497 17.0301 16.3497 16.8001 16.3497Z" fill="#1A1A1A"/>
<path opacity="0.4" d="M7.20001 16.3497C6.97001 16.3497 6.75001 16.2497 6.60001 16.0497C5.72001 14.8697 5.25 13.4697 5.25 11.9997C5.25 10.5297 5.72001 9.1197 6.60001 7.9497C6.85001 7.6197 7.31999 7.54968 7.64999 7.79968C7.97999 8.04968 8.04999 8.5197 7.79999 8.8497C7.10999 9.7597 6.75 10.8497 6.75 11.9997C6.75 13.1497 7.10999 14.2397 7.79999 15.1497C8.04999 15.4797 7.97999 15.9497 7.64999 16.1997C7.51999 16.2997 7.36001 16.3497 7.20001 16.3497Z" fill="#1A1A1A"/>
<path d="M36.508 16H34.972V7.228H38.32C40.312 7.228 41.476 8.236 41.476 9.964C41.476 11.14 40.924 11.98 39.892 12.4L41.56 16H39.88L38.392 12.724H36.508V16ZM36.508 8.596V11.368H38.32C39.292 11.368 39.868 10.852 39.868 9.964C39.868 9.088 39.292 8.596 38.32 8.596H36.508ZM44.3247 16.156C43.0647 16.156 42.2967 15.424 42.2967 14.308C42.2967 13.216 43.0887 12.532 44.4927 12.424L46.2687 12.292V12.16C46.2687 11.356 45.7887 11.032 45.0447 11.032C44.1807 11.032 43.7007 11.392 43.7007 12.016H42.4527C42.4527 10.732 43.5087 9.892 45.1167 9.892C46.7127 9.892 47.6967 10.756 47.6967 12.4V16H46.4127L46.3047 15.124C46.0527 15.736 45.2487 16.156 44.3247 16.156ZM44.8047 15.052C45.7047 15.052 46.2807 14.512 46.2807 13.6V13.288L45.0447 13.384C44.1327 13.468 43.7847 13.768 43.7847 14.248C43.7847 14.788 44.1447 15.052 44.8047 15.052ZM51.5709 16.156C49.8549 16.156 48.7869 14.896 48.7869 13.06C48.7869 11.212 49.8669 9.892 51.6549 9.892C52.4829 9.892 53.2149 10.24 53.5869 10.828V7.072H55.0389V16H53.6949L53.5989 15.076C53.2389 15.76 52.4709 16.156 51.5709 16.156ZM51.8949 14.812C52.9149 14.812 53.5749 14.08 53.5749 13.012C53.5749 11.944 52.9149 11.2 51.8949 11.2C50.8749 11.2 50.2509 11.956 50.2509 13.012C50.2509 14.068 50.8749 14.812 51.8949 14.812ZM58.3286 16.156C57.0686 16.156 56.3006 15.424 56.3006 14.308C56.3006 13.216 57.0926 12.532 58.4966 12.424L60.2726 12.292V12.16C60.2726 11.356 59.7926 11.032 59.0486 11.032C58.1846 11.032 57.7046 11.392 57.7046 12.016H56.4566C56.4566 10.732 57.5126 9.892 59.1206 9.892C60.7166 9.892 61.7006 10.756 61.7006 12.4V16H60.4166L60.3086 15.124C60.0566 15.736 59.2526 16.156 58.3286 16.156ZM58.8086 15.052C59.7086 15.052 60.2846 14.512 60.2846 13.6V13.288L59.0486 13.384C58.1366 13.468 57.7886 13.768 57.7886 14.248C57.7886 14.788 58.1486 15.052 58.8086 15.052ZM66.8588 10.048V11.404H66.3188C65.2628 11.404 64.6028 11.968 64.6028 13.12V16H63.1388V10.084H64.5188L64.6028 10.948C64.8548 10.36 65.4188 9.964 66.2108 9.964C66.4148 9.964 66.6188 9.988 66.8588 10.048Z" fill="black"/>
</svg>
