<svg width="130" height="24" viewBox="0 0 130 24" fill="none" xmlns="http://www.w3.org/2000/svg">
<path opacity="0.4" fill-rule="evenodd" clip-rule="evenodd" d="M5.03976 2H20.4998C21.0498 2 21.4998 2.45 21.4998 3V13.59C21.4998 13.86 21.3898 14.11 21.2098 14.3L16.7998 18.71C16.6098 18.9 16.3598 19 16.0898 19H12.0398C11.7098 19 11.3898 19.17 11.2098 19.45L9.79977 21.56C9.60977 21.84 9.29977 22.01 8.96977 22.01H7.50977C6.95977 22.01 6.50977 21.56 6.50977 21.01V20.01C6.50977 19.46 6.05977 19.01 5.50977 19.01H3.50977C2.95977 19.01 2.50977 18.56 2.50977 18.01V5.31C2.50977 5.11 2.56976 4.91999 2.67976 4.75999L4.21977 2.46001C4.38977 2.17001 4.69976 2 5.03976 2Z" fill="#1A1A1A"/>
<path fill-rule="evenodd" clip-rule="evenodd" d="M8.5 7.14006V12.8501C8.5 13.1701 8.76001 13.4201 9.07001 13.4201H10.21C10.53 13.4201 10.78 13.1601 10.78 12.8501V7.14006C10.78 6.82006 10.52 6.57007 10.21 6.57007H9.07001C8.76001 6.57007 8.5 6.83006 8.5 7.14006Z" fill="#1A1A1A"/>
<path fill-rule="evenodd" clip-rule="evenodd" d="M14.21 7.14006V12.8501C14.21 13.1701 14.47 13.4201 14.78 13.4201H15.92C16.24 13.4201 16.49 13.1601 16.49 12.8501V7.14006C16.49 6.82006 16.23 6.57007 15.92 6.57007H14.78C14.47 6.57007 14.21 6.83006 14.21 7.14006Z" fill="#1A1A1A"/>
<path d="M34.204 8.644V7.228H40.876V8.644H38.308V16H36.772V8.644H34.204ZM42.6148 16L40.6948 10.072H42.2188L42.9988 12.616C43.1308 13.084 43.2508 13.6 43.3588 14.152C43.4668 13.576 43.5748 13.204 43.7668 12.616L44.5828 10.072H46.0708L46.8628 12.616C46.9348 12.856 47.1748 13.744 47.2468 14.14C47.3428 13.696 47.5348 12.988 47.6428 12.616L48.4348 10.072H49.9828L47.9308 16H46.5628L45.7468 13.432C45.5068 12.652 45.3748 12.088 45.3268 11.788C45.2668 12.064 45.1588 12.484 44.8588 13.456L44.0428 16H42.6148ZM51.6013 8.884C51.0973 8.884 50.7013 8.488 50.7013 7.996C50.7013 7.504 51.0973 7.12 51.6013 7.12C52.0813 7.12 52.4773 7.504 52.4773 7.996C52.4773 8.488 52.0813 8.884 51.6013 8.884ZM50.8693 16V10.072H52.3333V16H50.8693ZM55.8618 16H54.3978V11.296H53.2578V10.072H54.3978V8.224H55.8618V10.072H57.0138V11.296H55.8618V16ZM57.5174 13.024C57.5174 11.188 58.7294 9.892 60.4814 9.892C62.1014 9.892 63.2054 10.792 63.3614 12.22H61.8974C61.7294 11.548 61.2374 11.2 60.5414 11.2C59.6054 11.2 58.9814 11.908 58.9814 13.024C58.9814 14.14 59.5574 14.836 60.4934 14.836C61.2254 14.836 61.7414 14.476 61.8974 13.828H63.3734C63.1934 15.208 62.0414 16.156 60.4934 16.156C58.6934 16.156 57.5174 14.908 57.5174 13.024ZM65.927 16H64.463V7.072H65.939V10.84C66.311 10.264 67.007 9.892 67.859 9.892C69.323 9.892 70.091 10.816 70.091 12.352V16H68.627V12.7C68.627 11.704 68.135 11.224 67.391 11.224C66.467 11.224 65.927 11.872 65.927 12.76V16Z" fill="black"/>
</svg>
