<svg width="101" height="24" viewBox="0 0 101 24" fill="none" xmlns="http://www.w3.org/2000/svg">
<path opacity="0.4" d="M10.5 4.83002V17.11C10.5 17.93 9.98 18.62 9.25 18.88C9.05 18.96 8.82999 19 8.60999 19C8.29999 19 8 18.92 7.75 18.78C7.14 18.47 6.72 17.84 6.72 17.11V9.56H5.78C3.7 9.56 2 7.86003 2 5.78003C2 4.74003 2.41999 3.79999 3.10999 3.10999C3.79999 2.41999 4.74 2 5.78 2H7.67001C9.22001 2 10.5 3.28002 10.5 4.83002Z" fill="#1A1A1A"/>
<path d="M5.77985 7.47003C4.84985 7.47003 4.08984 6.71008 4.08984 5.77008C4.08984 4.83008 4.84985 4.08008 5.77985 4.08008C6.18985 4.08008 6.52985 4.42008 6.52985 4.83008C6.52985 5.24008 6.18985 5.58008 5.77985 5.58008C5.66985 5.58008 5.58984 5.67008 5.58984 5.77008C5.58984 5.87008 5.67985 5.97003 5.77985 5.97003C6.18985 5.97003 6.52985 6.31003 6.52985 6.72003C6.52985 7.13003 6.18985 7.47003 5.77985 7.47003Z" fill="#1A1A1A"/>
<path opacity="0.4" d="M22 5.78003C22 7.86003 20.3 9.56 18.22 9.56H17.28V17.11C17.28 17.84 16.86 18.47 16.25 18.78C16 18.92 15.7 19 15.39 19C15.17 19 14.95 18.96 14.75 18.88C14.02 18.62 13.5 17.93 13.5 17.11V4.83002C13.5 3.28002 14.77 2 16.33 2H18.22C19.26 2 20.2 2.41999 20.89 3.10999C21.58 3.79999 22 4.74003 22 5.78003Z" fill="#1A1A1A"/>
<path d="M18.2197 7.47003C17.8097 7.47003 17.4697 7.13003 17.4697 6.72003C17.4697 6.31003 17.8097 5.97003 18.2197 5.97003C18.3297 5.97003 18.4097 5.88008 18.4097 5.77008C18.4097 5.66008 18.3197 5.58008 18.2197 5.58008C17.8097 5.58008 17.4697 5.24008 17.4697 4.83008C17.4697 4.42008 17.8097 4.08008 18.2197 4.08008C19.1497 4.08008 19.9097 4.84008 19.9097 5.77008C19.9097 6.70008 19.1597 7.47003 18.2197 7.47003Z" fill="#1A1A1A"/>
<path d="M9.25 18.88V22C9.25 22.41 8.91 22.75 8.5 22.75C8.09 22.75 7.75 22.41 7.75 22V18.78C8 18.92 8.29999 19 8.60999 19C8.82999 19 9.05 18.96 9.25 18.88Z" fill="#1A1A1A"/>
<path d="M16.25 18.78V22C16.25 22.41 15.91 22.75 15.5 22.75C15.09 22.75 14.75 22.41 14.75 22V18.88C14.95 18.96 15.17 19 15.39 19C15.7 19 16 18.92 16.25 18.78Z" fill="#1A1A1A"/>
<path d="M35.728 16H34.132L37.3 7.228H38.872L42.04 16H40.42L39.712 13.972H36.436L35.728 16ZM37.888 9.844L36.892 12.676H39.268L38.26 9.844C38.188 9.616 38.104 9.352 38.08 9.172C38.044 9.34 37.972 9.604 37.888 9.844ZM43.656 8.884C43.152 8.884 42.756 8.488 42.756 7.996C42.756 7.504 43.152 7.12 43.656 7.12C44.136 7.12 44.532 7.504 44.532 7.996C44.532 8.488 44.136 8.884 43.656 8.884ZM42.924 16V10.072H44.388V16H42.924ZM49.6205 10.048V11.404H49.0805C48.0245 11.404 47.3645 11.968 47.3645 13.12V16H45.9005V10.084H47.2805L47.3645 10.948C47.6165 10.36 48.1805 9.964 48.9725 9.964C49.1765 9.964 49.3805 9.988 49.6205 10.048ZM50.6115 18.748V10.072H51.9675L52.0635 10.972C52.4235 10.288 53.2035 9.892 54.1035 9.892C55.7715 9.892 56.8755 11.104 56.8755 12.964C56.8755 14.812 55.8675 16.156 54.1035 16.156C53.2155 16.156 52.4475 15.808 52.0755 15.208V18.748H50.6115ZM52.0875 13.036C52.0875 14.104 52.7475 14.836 53.7555 14.836C54.7875 14.836 55.3995 14.092 55.3995 13.036C55.3995 11.98 54.7875 11.224 53.7555 11.224C52.7475 11.224 52.0875 11.968 52.0875 13.036ZM57.6932 13.024C57.6932 11.176 59.0252 9.904 60.8612 9.904C62.6972 9.904 64.0292 11.176 64.0292 13.024C64.0292 14.872 62.6972 16.144 60.8612 16.144C59.0252 16.144 57.6932 14.872 57.6932 13.024ZM59.1572 13.024C59.1572 14.104 59.8532 14.836 60.8612 14.836C61.8692 14.836 62.5652 14.104 62.5652 13.024C62.5652 11.944 61.8692 11.212 60.8612 11.212C59.8532 11.212 59.1572 11.944 59.1572 13.024ZM67.6256 16.156C65.9096 16.156 64.8416 14.896 64.8416 13.06C64.8416 11.212 65.9216 9.892 67.7096 9.892C68.5376 9.892 69.2696 10.24 69.6416 10.828V7.072H71.0936V16H69.7496L69.6536 15.076C69.2936 15.76 68.5256 16.156 67.6256 16.156ZM67.9496 14.812C68.9696 14.812 69.6296 14.08 69.6296 13.012C69.6296 11.944 68.9696 11.2 67.9496 11.2C66.9296 11.2 66.3056 11.956 66.3056 13.012C66.3056 14.068 66.9296 14.812 67.9496 14.812ZM72.1633 14.2H73.5553C73.5673 14.716 73.9513 15.04 74.6233 15.04C75.3073 15.04 75.6793 14.764 75.6793 14.332C75.6793 14.032 75.5233 13.816 74.9953 13.696L73.9273 13.444C72.8593 13.204 72.3433 12.7 72.3433 11.752C72.3433 10.588 73.3273 9.892 74.6953 9.892C76.0273 9.892 76.9273 10.66 76.9393 11.812H75.5473C75.5353 11.308 75.1993 10.984 74.6353 10.984C74.0593 10.984 73.7233 11.248 73.7233 11.692C73.7233 12.028 73.9873 12.244 74.4913 12.364L75.5593 12.616C76.5553 12.844 77.0593 13.3 77.0593 14.212C77.0593 15.412 76.0393 16.156 74.5753 16.156C73.0993 16.156 72.1633 15.364 72.1633 14.2Z" fill="black"/>
</svg>
