<svg width="101" height="24" viewBox="0 0 101 24" fill="none" xmlns="http://www.w3.org/2000/svg">
<path opacity="0.4" d="M19 9C19 10.45 18.57 11.78 17.83 12.89C16.75 14.49 15.04 15.62 13.05 15.91C12.71 15.97 12.36 16 12 16C11.64 16 11.29 15.97 10.95 15.91C8.96 15.62 7.25 14.49 6.17 12.89C5.43 11.78 5 10.45 5 9C5 5.13 8.13 2 12 2C15.87 2 19 5.13 19 9Z" fill="#1A1A1A"/>
<path d="M21.2501 18.4704L19.6001 18.8604C19.2301 18.9504 18.9401 19.2304 18.8601 19.6004L18.5101 21.0704C18.3201 21.8704 17.3001 22.1104 16.7701 21.4804L12.0001 16.0004L7.23008 21.4904C6.70008 22.1204 5.68008 21.8804 5.49008 21.0804L5.14008 19.6104C5.05008 19.2404 4.76008 18.9504 4.40008 18.8704L2.75008 18.4804C1.99008 18.3004 1.72008 17.3504 2.27008 16.8004L6.17008 12.9004C7.25008 14.5004 8.96008 15.6304 10.9501 15.9204C11.2901 15.9804 11.6401 16.0104 12.0001 16.0104C12.3601 16.0104 12.7101 15.9804 13.0501 15.9204C15.0401 15.6304 16.7501 14.5004 17.8301 12.9004L21.7301 16.8004C22.2801 17.3404 22.0101 18.2904 21.2501 18.4704Z" fill="#1A1A1A"/>
<path d="M12.58 5.98L13.17 7.15999C13.25 7.31999 13.46 7.48 13.65 7.51L14.72 7.68999C15.4 7.79999 15.56 8.3 15.07 8.79L14.24 9.61998C14.1 9.75998 14.02 10.03 14.07 10.23L14.31 11.26C14.5 12.07 14.07 12.39 13.35 11.96L12.35 11.37C12.17 11.26 11.87 11.26 11.69 11.37L10.69 11.96C9.96997 12.38 9.53997 12.07 9.72997 11.26L9.96997 10.23C10.01 10.04 9.93997 9.75998 9.79997 9.61998L8.96997 8.79C8.47997 8.3 8.63997 7.80999 9.31997 7.68999L10.39 7.51C10.57 7.48 10.78 7.31999 10.86 7.15999L11.45 5.98C11.74 5.34 12.26 5.34 12.58 5.98Z" fill="#1A1A1A"/>
<path d="M36.46 16H34.972V7.228H36.46L39.292 14.212L42.124 7.228H43.636V16H42.148V13.3C42.148 11.536 42.148 11.02 42.232 10.396L40 16H38.584L36.364 10.408C36.448 10.936 36.46 11.764 36.46 12.856V16ZM48.0135 16.156C46.2495 16.156 45.0135 14.872 45.0135 13.036C45.0135 11.176 46.2255 9.892 47.9655 9.892C49.7415 9.892 50.8695 11.08 50.8695 12.928V13.372L46.4055 13.384C46.5135 14.428 47.0655 14.956 48.0375 14.956C48.8415 14.956 49.3695 14.644 49.5375 14.08H50.8935C50.6415 15.376 49.5615 16.156 48.0135 16.156ZM47.9775 11.092C47.1135 11.092 46.5855 11.56 46.4415 12.448H49.4175C49.4175 11.632 48.8535 11.092 47.9775 11.092ZM54.4772 16.156C52.7612 16.156 51.6932 14.896 51.6932 13.06C51.6932 11.212 52.7732 9.892 54.5612 9.892C55.3892 9.892 56.1212 10.24 56.4932 10.828V7.072H57.9452V16H56.6012L56.5052 15.076C56.1452 15.76 55.3772 16.156 54.4772 16.156ZM54.8012 14.812C55.8212 14.812 56.4812 14.08 56.4812 13.012C56.4812 11.944 55.8212 11.2 54.8012 11.2C53.7812 11.2 53.1572 11.956 53.1572 13.012C53.1572 14.068 53.7812 14.812 54.8012 14.812ZM61.2348 16.156C59.9748 16.156 59.2068 15.424 59.2068 14.308C59.2068 13.216 59.9988 12.532 61.4028 12.424L63.1788 12.292V12.16C63.1788 11.356 62.6988 11.032 61.9548 11.032C61.0908 11.032 60.6108 11.392 60.6108 12.016H59.3628C59.3628 10.732 60.4188 9.892 62.0268 9.892C63.6228 9.892 64.6068 10.756 64.6068 12.4V16H63.3228L63.2148 15.124C62.9628 15.736 62.1588 16.156 61.2348 16.156ZM61.7148 15.052C62.6148 15.052 63.1908 14.512 63.1908 13.6V13.288L61.9548 13.384C61.0428 13.468 60.6948 13.768 60.6948 14.248C60.6948 14.788 61.0548 15.052 61.7148 15.052ZM67.5211 16H66.0691V7.072H67.5211V16ZM69.0448 13.444V12.148H72.9088V13.444H69.0448ZM73.8625 14.2H75.2545C75.2665 14.716 75.6505 15.04 76.3225 15.04C77.0065 15.04 77.3785 14.764 77.3785 14.332C77.3785 14.032 77.2225 13.816 76.6945 13.696L75.6265 13.444C74.5585 13.204 74.0425 12.7 74.0425 11.752C74.0425 10.588 75.0265 9.892 76.3945 9.892C77.7265 9.892 78.6265 10.66 78.6385 11.812H77.2465C77.2345 11.308 76.8985 10.984 76.3345 10.984C75.7585 10.984 75.4225 11.248 75.4225 11.692C75.4225 12.028 75.6865 12.244 76.1905 12.364L77.2585 12.616C78.2545 12.844 78.7585 13.3 78.7585 14.212C78.7585 15.412 77.7385 16.156 76.2745 16.156C74.7985 16.156 73.8625 15.364 73.8625 14.2ZM81.8892 16H80.4252V11.296H79.2852V10.072H80.4252V8.224H81.8892V10.072H83.0412V11.296H81.8892V16ZM85.6802 16.156C84.4202 16.156 83.6522 15.424 83.6522 14.308C83.6522 13.216 84.4442 12.532 85.8482 12.424L87.6242 12.292V12.16C87.6242 11.356 87.1442 11.032 86.4002 11.032C85.5362 11.032 85.0562 11.392 85.0562 12.016H83.8082C83.8082 10.732 84.8642 9.892 86.4722 9.892C88.0682 9.892 89.0522 10.756 89.0522 12.4V16H87.7682L87.6602 15.124C87.4082 15.736 86.6042 16.156 85.6802 16.156ZM86.1602 15.052C87.0602 15.052 87.6362 14.512 87.6362 13.6V13.288L86.4002 13.384C85.4882 13.468 85.1402 13.768 85.1402 14.248C85.1402 14.788 85.5002 15.052 86.1602 15.052ZM94.2104 10.048V11.404H93.6704C92.6144 11.404 91.9544 11.968 91.9544 13.12V16H90.4904V10.084H91.8704L91.9544 10.948C92.2064 10.36 92.7704 9.964 93.5624 9.964C93.7664 9.964 93.9704 9.988 94.2104 10.048Z" fill="black"/>
</svg>
