<svg width="101" height="24" viewBox="0 0 101 24" fill="none" xmlns="http://www.w3.org/2000/svg">
<path opacity="0.4" d="M21.3699 11.3904V17.3804C21.3699 20.1404 19.1299 22.3804 16.3699 22.3804H7.62988C4.86988 22.3804 2.62988 20.1404 2.62988 17.3804V11.4604C3.38988 12.2804 4.46988 12.7504 5.63988 12.7504C6.89988 12.7504 8.10988 12.1204 8.86988 11.1104C9.54988 12.1204 10.7099 12.7504 11.9999 12.7504C13.2799 12.7504 14.4199 12.1504 15.1099 11.1504C15.8799 12.1404 17.0699 12.7504 18.3099 12.7504C19.5199 12.7504 20.6199 12.2604 21.3699 11.3904Z" fill="#1A1A1A"/>
<path d="M14.9899 1.25H8.98985L8.24985 8.61C8.18985 9.29 8.28985 9.93 8.53985 10.51C9.11985 11.87 10.4799 12.75 11.9999 12.75C13.5399 12.75 14.8699 11.89 15.4699 10.52C15.6499 10.09 15.7599 9.59 15.7699 9.08V8.89L14.9899 1.25Z" fill="#1A1A1A"/>
<path opacity="0.6" d="M22.3598 8.27L22.0698 5.5C21.6498 2.48 20.2798 1.25 17.3498 1.25H13.5098L14.2498 8.75C14.2598 8.85 14.2698 8.96 14.2698 9.15C14.3298 9.67 14.4898 10.15 14.7298 10.58C15.4498 11.9 16.8498 12.75 18.3098 12.75C19.6398 12.75 20.8398 12.16 21.5898 11.12C22.1898 10.32 22.4598 9.31 22.3598 8.27Z" fill="#1A1A1A"/>
<path opacity="0.6" d="M6.59014 1.25C3.65014 1.25 2.29014 2.48 1.86014 5.53L1.59014 8.28C1.49014 9.35 1.78014 10.39 2.41014 11.2C3.17014 12.19 4.34014 12.75 5.64014 12.75C7.10014 12.75 8.50014 11.9 9.21014 10.6C9.47014 10.15 9.64014 9.63 9.69014 9.09L10.4701 1.26H6.59014V1.25Z" fill="#1A1A1A"/>
<path d="M11.3501 16.6602C10.0801 16.7902 9.12012 17.8702 9.12012 19.1502V22.3802H14.8701V19.5002C14.8801 17.4102 13.6501 16.4202 11.3501 16.6602Z" fill="#1A1A1A"/>
<path d="M34.468 9.676C34.468 8.14 35.74 7.072 37.588 7.072C39.364 7.072 40.492 8.056 40.54 9.64H39.004C38.968 8.884 38.428 8.44 37.564 8.44C36.616 8.44 36.004 8.896 36.004 9.628C36.004 10.252 36.34 10.6 37.072 10.768L38.452 11.068C39.952 11.392 40.684 12.16 40.684 13.468C40.684 15.1 39.412 16.156 37.48 16.156C35.608 16.156 34.384 15.16 34.348 13.588H35.884C35.896 14.332 36.496 14.776 37.48 14.776C38.5 14.776 39.148 14.332 39.148 13.6C39.148 13.012 38.848 12.664 38.128 12.508L36.736 12.196C35.248 11.872 34.468 11.02 34.468 9.676ZM43.3216 16H41.8576V7.072H43.3336V10.84C43.7056 10.264 44.4016 9.892 45.2536 9.892C46.7176 9.892 47.4856 10.816 47.4856 12.352V16H46.0216V12.7C46.0216 11.704 45.5296 11.224 44.7856 11.224C43.8616 11.224 43.3216 11.872 43.3216 12.76V16ZM48.576 13.024C48.576 11.176 49.908 9.904 51.744 9.904C53.58 9.904 54.912 11.176 54.912 13.024C54.912 14.872 53.58 16.144 51.744 16.144C49.908 16.144 48.576 14.872 48.576 13.024ZM50.04 13.024C50.04 14.104 50.736 14.836 51.744 14.836C52.752 14.836 53.448 14.104 53.448 13.024C53.448 11.944 52.752 11.212 51.744 11.212C50.736 11.212 50.04 11.944 50.04 13.024ZM56.0724 18.748V10.072H57.4284L57.5244 10.972C57.8844 10.288 58.6644 9.892 59.5644 9.892C61.2324 9.892 62.3364 11.104 62.3364 12.964C62.3364 14.812 61.3284 16.156 59.5644 16.156C58.6764 16.156 57.9084 15.808 57.5364 15.208V18.748H56.0724ZM57.5484 13.036C57.5484 14.104 58.2084 14.836 59.2164 14.836C60.2484 14.836 60.8604 14.092 60.8604 13.036C60.8604 11.98 60.2484 11.224 59.2164 11.224C58.2084 11.224 57.5484 11.968 57.5484 13.036Z" fill="black"/>
</svg>
