<svg width="106" height="24" viewBox="0 0 106 24" fill="none" xmlns="http://www.w3.org/2000/svg">
<path opacity="0.4" d="M7.25 22H11.75C15.5 22 17 20.5 17 16.75V12.25C17 8.5 15.5 7 11.75 7H7.25C3.5 7 2 8.5 2 12.25V16.75C2 20.5 3.5 22 7.25 22Z" fill="#1A1A1A"/>
<path d="M21.2504 10.5C20.8404 10.5 20.5004 10.16 20.5004 9.75C20.5004 6.79 18.4404 4.31 15.6704 3.66L15.9404 4.11C16.1504 4.47 16.0404 4.93 15.6804 5.14C15.3204 5.35 14.8604 5.24 14.6504 4.88L13.6004 3.13C13.4604 2.9 13.4604 2.61 13.5904 2.38C13.7304 2.15 13.9804 2 14.2504 2C18.5204 2 22.0004 5.48 22.0004 9.75C22.0004 10.16 21.6604 10.5 21.2504 10.5Z" fill="#1A1A1A"/>
<path d="M39.508 16H37.972V7.228H41.32C43.312 7.228 44.476 8.236 44.476 9.964C44.476 11.14 43.924 11.98 42.892 12.4L44.56 16H42.88L41.392 12.724H39.508V16ZM39.508 8.596V11.368H41.32C42.292 11.368 42.868 10.852 42.868 9.964C42.868 9.088 42.292 8.596 41.32 8.596H39.508ZM45.0252 13.024C45.0252 11.176 46.3572 9.904 48.1932 9.904C50.0292 9.904 51.3612 11.176 51.3612 13.024C51.3612 14.872 50.0292 16.144 48.1932 16.144C46.3572 16.144 45.0252 14.872 45.0252 13.024ZM46.4892 13.024C46.4892 14.104 47.1852 14.836 48.1932 14.836C49.2012 14.836 49.8972 14.104 49.8972 13.024C49.8972 11.944 49.2012 11.212 48.1932 11.212C47.1852 11.212 46.4892 11.944 46.4892 13.024ZM54.479 16H53.015V11.296H51.875V10.072H53.015V8.224H54.479V10.072H55.631V11.296H54.479V16ZM58.27 16.156C57.01 16.156 56.242 15.424 56.242 14.308C56.242 13.216 57.034 12.532 58.438 12.424L60.214 12.292V12.16C60.214 11.356 59.734 11.032 58.99 11.032C58.126 11.032 57.646 11.392 57.646 12.016H56.398C56.398 10.732 57.454 9.892 59.062 9.892C60.658 9.892 61.642 10.756 61.642 12.4V16H60.358L60.25 15.124C59.998 15.736 59.194 16.156 58.27 16.156ZM58.75 15.052C59.65 15.052 60.226 14.512 60.226 13.6V13.288L58.99 13.384C58.078 13.468 57.73 13.768 57.73 14.248C57.73 14.788 58.09 15.052 58.75 15.052ZM65.0142 16H63.5502V11.296H62.4102V10.072H63.5502V8.224H65.0142V10.072H66.1662V11.296H65.0142V16ZM69.6697 16.156C67.9057 16.156 66.6697 14.872 66.6697 13.036C66.6697 11.176 67.8817 9.892 69.6217 9.892C71.3977 9.892 72.5257 11.08 72.5257 12.928V13.372L68.0617 13.384C68.1697 14.428 68.7217 14.956 69.6937 14.956C70.4977 14.956 71.0257 14.644 71.1937 14.08H72.5497C72.2977 15.376 71.2177 16.156 69.6697 16.156ZM69.6337 11.092C68.7697 11.092 68.2417 11.56 68.0977 12.448H71.0737C71.0737 11.632 70.5097 11.092 69.6337 11.092ZM73.6854 13.444V12.148H77.5494V13.444H73.6854ZM80.5172 16H79.0652V7.072H80.5172V16ZM84.7049 16.156C82.9409 16.156 81.7049 14.872 81.7049 13.036C81.7049 11.176 82.9169 9.892 84.6569 9.892C86.4329 9.892 87.5609 11.08 87.5609 12.928V13.372L83.0969 13.384C83.2049 14.428 83.7569 14.956 84.7289 14.956C85.5329 14.956 86.0609 14.644 86.2289 14.08H87.5849C87.3329 15.376 86.2529 16.156 84.7049 16.156ZM84.6689 11.092C83.8049 11.092 83.2769 11.56 83.1329 12.448H86.1089C86.1089 11.632 85.5449 11.092 84.6689 11.092ZM88.1446 10.072H88.9966V9.352C88.9966 7.744 89.8366 7.072 91.0366 7.072C91.2646 7.072 91.5406 7.084 91.7926 7.132V8.38H91.2766C90.6166 8.38 90.4486 8.764 90.4486 9.352V10.072H92.9446V8.224H94.4086V10.072H95.5606V11.296H94.4086V16H92.9446V11.296H90.4486V16H88.9966V11.296H88.1446V10.072Z" fill="black"/>
</svg>
