<svg width="106" height="24" viewBox="0 0 106 24" fill="none" xmlns="http://www.w3.org/2000/svg">
<path opacity="0.4" d="M13.94 4.83008H6.83002C5.73002 4.83008 4.83002 5.73008 4.83002 6.83008V13.9401C4.83002 16.8301 7.17002 19.1701 10.06 19.1701H17.17C18.27 19.1701 19.17 18.2701 19.17 17.1701V10.0601C19.17 7.17008 16.83 4.83008 13.94 4.83008Z" fill="#1A1A1A"/>
<path d="M5.53 2C5.11 2 4.78 2.34 4.78 2.75V4.78H2.75C2.34 4.78 2 5.11 2 5.53C2 5.95 2.34 6.28 2.75 6.28H5.53C5.94 6.28 6.28 5.94 6.28 5.53V2.75C6.28 2.34 5.94 2 5.53 2Z" fill="#1A1A1A"/>
<path d="M21.2497 17.7197H18.4697C18.0597 17.7197 17.7197 18.0597 17.7197 18.4697V21.2497C17.7197 21.6597 18.0597 21.9997 18.4697 21.9997C18.8797 21.9997 19.2197 21.6597 19.2197 21.2497V19.2197H21.2497C21.6597 19.2197 21.9997 18.8797 21.9997 18.4697C21.9997 18.0597 21.6597 17.7197 21.2497 17.7197Z" fill="#1A1A1A"/>
<path d="M41.68 16.144C39.124 16.144 37.468 14.368 37.468 11.62C37.468 8.896 39.184 7.084 41.752 7.084C43.828 7.084 45.376 8.296 45.676 10.18H44.056C43.756 9.16 42.88 8.56 41.716 8.56C40.096 8.56 39.076 9.736 39.076 11.608C39.076 13.468 40.108 14.668 41.716 14.668C42.904 14.668 43.816 14.044 44.104 13.072H45.7C45.364 14.92 43.756 16.144 41.68 16.144ZM50.5815 10.048V11.404H50.0415C48.9855 11.404 48.3255 11.968 48.3255 13.12V16H46.8615V10.084H48.2415L48.3255 10.948C48.5775 10.36 49.1415 9.964 49.9335 9.964C50.1375 9.964 50.3415 9.988 50.5815 10.048ZM51.0252 13.024C51.0252 11.176 52.3572 9.904 54.1932 9.904C56.0292 9.904 57.3612 11.176 57.3612 13.024C57.3612 14.872 56.0292 16.144 54.1932 16.144C52.3572 16.144 51.0252 14.872 51.0252 13.024ZM52.4892 13.024C52.4892 14.104 53.1852 14.836 54.1932 14.836C55.2012 14.836 55.8972 14.104 55.8972 13.024C55.8972 11.944 55.2012 11.212 54.1932 11.212C53.1852 11.212 52.4892 11.944 52.4892 13.024ZM58.5216 18.748V10.072H59.8776L59.9736 10.972C60.3336 10.288 61.1136 9.892 62.0136 9.892C63.6816 9.892 64.7856 11.104 64.7856 12.964C64.7856 14.812 63.7776 16.156 62.0136 16.156C61.1256 16.156 60.3576 15.808 59.9856 15.208V18.748H58.5216ZM59.9976 13.036C59.9976 14.104 60.6576 14.836 61.6656 14.836C62.6976 14.836 63.3096 14.092 63.3096 13.036C63.3096 11.98 62.6976 11.224 61.6656 11.224C60.6576 11.224 59.9976 11.968 59.9976 13.036Z" fill="black"/>
</svg>
