<svg width="115" height="24" viewBox="0 0 115 24" fill="none" xmlns="http://www.w3.org/2000/svg">
<path opacity="0.4" d="M16.1898 2H7.81976C4.17976 2 2.00977 4.17 2.00977 7.81V16.18C2.00977 19.82 4.17976 21.99 7.81976 21.99H16.1898C19.8298 21.99 21.9998 19.82 21.9998 16.18V7.81C21.9998 4.17 19.8298 2 16.1898 2Z" fill="#1A1A1A"/>
<path d="M15.6605 11.93C15.6505 11.79 15.5905 11.64 15.4905 11.54L10.7905 6.84001L10.2405 6.28996C10.0505 6.09996 9.75046 6.09996 9.56046 6.28996C9.37046 6.47996 9.37046 6.77995 9.56046 6.96995L10.1104 7.52L6.51047 11.12C6.10047 11.53 5.88046 11.95 5.87046 12.36C5.86046 12.8 6.07047 13.24 6.51047 13.69L9.08045 16.26C9.94045 17.11 10.8005 17.11 11.6505 16.26L15.5005 12.41C15.6105 12.27 15.6705 12.09 15.6605 11.93Z" fill="#1A1A1A"/>
<path d="M16.9608 14.1899C16.8008 14.0099 16.4909 14.0099 16.3209 14.1899C16.1209 14.3999 15.1309 15.5199 15.1309 16.3599C15.1309 17.1899 15.8009 17.8599 16.6309 17.8599C17.4609 17.8599 18.1309 17.1899 18.1309 16.3599C18.1409 15.5199 17.1608 14.4099 16.9608 14.1899Z" fill="#1A1A1A"/>
<path d="M34.972 17V8.228H38.464C40.192 8.228 41.248 9.128 41.248 10.592C41.248 11.564 40.816 12.26 39.988 12.608C40.912 12.908 41.38 13.604 41.38 14.624C41.38 16.124 40.336 17 38.524 17H34.972ZM38.332 9.584H36.508V11.972H38.368C39.208 11.972 39.676 11.528 39.676 10.748C39.676 9.992 39.196 9.584 38.332 9.584ZM38.464 13.268H36.508V15.644H38.464C39.328 15.644 39.808 15.224 39.808 14.432C39.808 13.688 39.316 13.268 38.464 13.268ZM46.5924 11.072H48.0564V17H46.7004L46.5924 16.208C46.2324 16.772 45.4644 17.156 44.6724 17.156C43.3044 17.156 42.5004 16.232 42.5004 14.78V11.072H43.9644V14.264C43.9644 15.392 44.4084 15.848 45.2244 15.848C46.1484 15.848 46.5924 15.308 46.5924 14.18V11.072ZM49.1033 14.024C49.1033 12.188 50.3153 10.892 52.0673 10.892C53.6873 10.892 54.7913 11.792 54.9473 13.22H53.4833C53.3153 12.548 52.8233 12.2 52.1273 12.2C51.1913 12.2 50.5673 12.908 50.5673 14.024C50.5673 15.14 51.1433 15.836 52.0793 15.836C52.8113 15.836 53.3273 15.476 53.4833 14.828H54.9593C54.7793 16.208 53.6273 17.156 52.0793 17.156C50.2793 17.156 49.1033 15.908 49.1033 14.024ZM57.525 17H56.073V8.072H57.525V13.556L59.829 11.072H61.665L59.409 13.424L61.617 17H59.937L58.389 14.504L57.525 15.404V17ZM64.8885 17.156C63.1245 17.156 61.8885 15.872 61.8885 14.036C61.8885 12.176 63.1005 10.892 64.8405 10.892C66.6165 10.892 67.7445 12.08 67.7445 13.928V14.372L63.2805 14.384C63.3885 15.428 63.9405 15.956 64.9125 15.956C65.7165 15.956 66.2445 15.644 66.4125 15.08H67.7685C67.5165 16.376 66.4365 17.156 64.8885 17.156ZM64.8525 12.092C63.9885 12.092 63.4605 12.56 63.3165 13.448H66.2925C66.2925 12.632 65.7285 12.092 64.8525 12.092ZM70.8736 17H69.4096V12.296H68.2696V11.072H69.4096V9.224H70.8736V11.072H72.0256V12.296H70.8736V17ZM72.6893 14.444V13.148H76.5533V14.444H72.6893ZM77.507 15.2H78.899C78.911 15.716 79.295 16.04 79.967 16.04C80.651 16.04 81.023 15.764 81.023 15.332C81.023 15.032 80.867 14.816 80.339 14.696L79.271 14.444C78.203 14.204 77.687 13.7 77.687 12.752C77.687 11.588 78.671 10.892 80.039 10.892C81.371 10.892 82.271 11.66 82.283 12.812H80.891C80.879 12.308 80.543 11.984 79.979 11.984C79.403 11.984 79.067 12.248 79.067 12.692C79.067 13.028 79.331 13.244 79.835 13.364L80.903 13.616C81.899 13.844 82.403 14.3 82.403 15.212C82.403 16.412 81.383 17.156 79.919 17.156C78.443 17.156 77.507 16.364 77.507 15.2ZM83.1697 13.964C83.1697 12.104 84.2737 10.892 85.9417 10.892C86.8417 10.892 87.6217 11.288 87.9817 11.972L88.0777 11.072H89.4217V19.748H87.9697V16.208C87.5977 16.808 86.8177 17.156 85.9417 17.156C84.1777 17.156 83.1697 15.812 83.1697 13.964ZM84.6337 14.036C84.6337 15.092 85.2577 15.836 86.2777 15.836C87.2977 15.836 87.9577 15.104 87.9577 14.036C87.9577 12.968 87.2977 12.224 86.2777 12.224C85.2577 12.224 84.6337 12.98 84.6337 14.036ZM94.9674 11.072H96.4314V17H95.0754L94.9674 16.208C94.6074 16.772 93.8394 17.156 93.0474 17.156C91.6794 17.156 90.8754 16.232 90.8754 14.78V11.072H92.3394V14.264C92.3394 15.392 92.7834 15.848 93.5994 15.848C94.5234 15.848 94.9674 15.308 94.9674 14.18V11.072ZM99.7075 17.156C98.4475 17.156 97.6795 16.424 97.6795 15.308C97.6795 14.216 98.4715 13.532 99.8755 13.424L101.652 13.292V13.16C101.652 12.356 101.172 12.032 100.428 12.032C99.5635 12.032 99.0835 12.392 99.0835 13.016H97.8355C97.8355 11.732 98.8915 10.892 100.5 10.892C102.096 10.892 103.08 11.756 103.08 13.4V17H101.796L101.688 16.124C101.436 16.736 100.632 17.156 99.7075 17.156ZM100.188 16.052C101.088 16.052 101.664 15.512 101.664 14.6V14.288L100.428 14.384C99.5155 14.468 99.1675 14.768 99.1675 15.248C99.1675 15.788 99.5275 16.052 100.188 16.052ZM108.238 11.048V12.404H107.698C106.642 12.404 105.982 12.968 105.982 14.12V17H104.518V11.084H105.898L105.982 11.948C106.234 11.36 106.798 10.964 107.59 10.964C107.794 10.964 107.998 10.988 108.238 11.048ZM111.681 17.156C109.917 17.156 108.681 15.872 108.681 14.036C108.681 12.176 109.893 10.892 111.633 10.892C113.409 10.892 114.537 12.08 114.537 13.928V14.372L110.073 14.384C110.181 15.428 110.733 15.956 111.705 15.956C112.509 15.956 113.037 15.644 113.205 15.08H114.561C114.309 16.376 113.229 17.156 111.681 17.156ZM111.645 12.092C110.781 12.092 110.253 12.56 110.109 13.448H113.085C113.085 12.632 112.521 12.092 111.645 12.092Z" fill="black"/>
</svg>
