<svg width="140" height="24" viewBox="0 0 140 24" fill="none" xmlns="http://www.w3.org/2000/svg">
<path opacity="0.4" d="M7.81 2H16.18C19.83 2 22 4.17 22 7.81V16.18C22 19.82 19.83 21.99 16.19 21.99H7.81C4.17 22 2 19.83 2 16.19V7.81C2 4.17 4.17 2 7.81 2Z" fill="#1A1A1A"/>
<path d="M12 18.5799C8.83 18.5799 6.25 15.9999 6.25 12.8299C6.25 11.6899 6.58 10.5799 7.22 9.6399C7.45 9.2999 7.92 9.1999 8.26 9.4299C8.6 9.6599 8.7 10.1299 8.47 10.4699C8 11.1699 7.76 11.9899 7.76 12.8299C7.76 15.1699 9.67 17.0799 12.01 17.0799C14.35 17.0799 16.26 15.1699 16.26 12.8299C16.26 10.5899 14.52 8.7499 12.32 8.5899L12.73 8.8899C13.06 9.1299 13.14 9.5999 12.89 9.9399C12.65 10.2699 12.18 10.3499 11.84 10.0999L9.9 8.6899C9.83 8.6399 9.77 8.5799 9.72 8.5099C9.71 8.4999 9.7 8.4899 9.69 8.4699C9.65 8.3999 9.62 8.3199 9.6 8.2399C9.58 8.1399 9.58 8.0499 9.59 7.9499C9.6 7.9099 9.61 7.8699 9.62 7.8299C9.64 7.7599 9.68 7.6999 9.72 7.6299C9.74 7.6199 9.76 7.5999 9.78 7.5799L11.44 5.6799C11.71 5.3699 12.19 5.3399 12.5 5.6099C12.81 5.8799 12.84 6.3599 12.57 6.6699L12.2 7.0999C15.28 7.1999 17.76 9.7399 17.76 12.8499C17.75 15.9999 15.17 18.5799 12 18.5799Z" fill="#1A1A1A"/>
<path d="M36.508 16H34.972V7.228H38.32C40.312 7.228 41.476 8.236 41.476 9.964C41.476 11.14 40.924 11.98 39.892 12.4L41.56 16H39.88L38.392 12.724H36.508V16ZM36.508 8.596V11.368H38.32C39.292 11.368 39.868 10.852 39.868 9.964C39.868 9.088 39.292 8.596 38.32 8.596H36.508ZM42.0252 13.024C42.0252 11.176 43.3572 9.904 45.1932 9.904C47.0292 9.904 48.3612 11.176 48.3612 13.024C48.3612 14.872 47.0292 16.144 45.1932 16.144C43.3572 16.144 42.0252 14.872 42.0252 13.024ZM43.4892 13.024C43.4892 14.104 44.1852 14.836 45.1932 14.836C46.2012 14.836 46.8972 14.104 46.8972 13.024C46.8972 11.944 46.2012 11.212 45.1932 11.212C44.1852 11.212 43.4892 11.944 43.4892 13.024ZM51.479 16H50.015V11.296H48.875V10.072H50.015V8.224H51.479V10.072H52.631V11.296H51.479V16ZM55.27 16.156C54.01 16.156 53.242 15.424 53.242 14.308C53.242 13.216 54.034 12.532 55.438 12.424L57.214 12.292V12.16C57.214 11.356 56.734 11.032 55.99 11.032C55.126 11.032 54.646 11.392 54.646 12.016H53.398C53.398 10.732 54.454 9.892 56.062 9.892C57.658 9.892 58.642 10.756 58.642 12.4V16H57.358L57.25 15.124C56.998 15.736 56.194 16.156 55.27 16.156ZM55.75 15.052C56.65 15.052 57.226 14.512 57.226 13.6V13.288L55.99 13.384C55.078 13.468 54.73 13.768 54.73 14.248C54.73 14.788 55.09 15.052 55.75 15.052ZM62.0142 16H60.5502V11.296H59.4102V10.072H60.5502V8.224H62.0142V10.072H63.1662V11.296H62.0142V16ZM66.6697 16.156C64.9057 16.156 63.6697 14.872 63.6697 13.036C63.6697 11.176 64.8817 9.892 66.6217 9.892C68.3977 9.892 69.5257 11.08 69.5257 12.928V13.372L65.0617 13.384C65.1697 14.428 65.7217 14.956 66.6937 14.956C67.4977 14.956 68.0257 14.644 68.1937 14.08H69.5497C69.2977 15.376 68.2177 16.156 66.6697 16.156ZM66.6337 11.092C65.7697 11.092 65.2417 11.56 65.0977 12.448H68.0737C68.0737 11.632 67.5097 11.092 66.6337 11.092ZM70.6854 13.444V12.148H74.5494V13.444H70.6854ZM77.5172 16H76.0652V7.072H77.5172V16ZM81.7049 16.156C79.9409 16.156 78.7049 14.872 78.7049 13.036C78.7049 11.176 79.9169 9.892 81.6569 9.892C83.4329 9.892 84.5609 11.08 84.5609 12.928V13.372L80.0969 13.384C80.2049 14.428 80.7569 14.956 81.7289 14.956C82.5329 14.956 83.0609 14.644 83.2289 14.08H84.5849C84.3329 15.376 83.2529 16.156 81.7049 16.156ZM81.6689 11.092C80.8049 11.092 80.2769 11.56 80.1329 12.448H83.1089C83.1089 11.632 82.5449 11.092 81.6689 11.092ZM85.1446 10.072H85.9966V9.352C85.9966 7.744 86.8366 7.072 88.0366 7.072C88.2646 7.072 88.5406 7.084 88.7926 7.132V8.38H88.2766C87.6166 8.38 87.4486 8.764 87.4486 9.352V10.072H89.9446V8.224H91.4086V10.072H92.5606V11.296H91.4086V16H89.9446V11.296H87.4486V16H85.9966V11.296H85.1446V10.072Z" fill="black"/>
</svg>
