<svg width="129" height="24" viewBox="0 0 129 24" fill="none" xmlns="http://www.w3.org/2000/svg">
<path opacity="0.4" d="M16.19 2H7.81C4.17 2 2 4.17 2 7.81V16.18C2 19.83 4.17 22 7.81 22H16.18C19.82 22 21.99 19.83 21.99 16.19V7.81C22 4.17 19.83 2 16.19 2Z" fill="#1A1A1A"/>
<path d="M14.2602 12L12.7502 11.47V8.08H13.1102C13.9202 8.08 14.5802 8.79 14.5802 9.66C14.5802 10.07 14.9202 10.41 15.3302 10.41C15.7402 10.41 16.0802 10.07 16.0802 9.66C16.0802 7.96 14.7502 6.58 13.1102 6.58H12.7502V6C12.7502 5.59 12.4102 5.25 12.0002 5.25C11.5902 5.25 11.2502 5.59 11.2502 6V6.58H10.6002C9.12016 6.58 7.91016 7.83 7.91016 9.36C7.91016 11.15 8.95016 11.72 9.74016 12L11.2502 12.53V15.91H10.8902C10.0802 15.91 9.42016 15.2 9.42016 14.33C9.42016 13.92 9.08016 13.58 8.67016 13.58C8.26016 13.58 7.92016 13.92 7.92016 14.33C7.92016 16.03 9.25016 17.41 10.8902 17.41H11.2502V18C11.2502 18.41 11.5902 18.75 12.0002 18.75C12.4102 18.75 12.7502 18.41 12.7502 18V17.42H13.4002C14.8802 17.42 16.0902 16.17 16.0902 14.64C16.0802 12.84 15.0402 12.27 14.2602 12ZM10.2402 10.59C9.73016 10.41 9.42016 10.24 9.42016 9.37C9.42016 8.66 9.95016 8.09 10.6102 8.09H11.2602V10.95L10.2402 10.59ZM13.4002 15.92H12.7502V13.06L13.7602 13.41C14.2702 13.59 14.5802 13.76 14.5802 14.63C14.5802 15.34 14.0502 15.92 13.4002 15.92Z" fill="#1A1A1A"/>
<path d="M38.128 17H34.972V8.228H38.044C40.636 8.228 42.424 10.016 42.424 12.632C42.424 15.212 40.672 17 38.128 17ZM37.9 9.644H36.508V15.584H37.984C39.736 15.584 40.804 14.456 40.804 12.632C40.804 10.772 39.712 9.644 37.9 9.644ZM43.2908 14.024C43.2908 12.176 44.6228 10.904 46.4588 10.904C48.2948 10.904 49.6268 12.176 49.6268 14.024C49.6268 15.872 48.2948 17.144 46.4588 17.144C44.6228 17.144 43.2908 15.872 43.2908 14.024ZM44.7548 14.024C44.7548 15.104 45.4508 15.836 46.4588 15.836C47.4668 15.836 48.1628 15.104 48.1628 14.024C48.1628 12.944 47.4668 12.212 46.4588 12.212C45.4508 12.212 44.7548 12.944 44.7548 14.024ZM52.2633 17H50.8113V8.072H52.2633V17ZM55.275 17H53.823V8.072H55.275V17ZM58.5747 17.156C57.3147 17.156 56.5467 16.424 56.5467 15.308C56.5467 14.216 57.3387 13.532 58.7427 13.424L60.5187 13.292V13.16C60.5187 12.356 60.0387 12.032 59.2947 12.032C58.4307 12.032 57.9507 12.392 57.9507 13.016H56.7027C56.7027 11.732 57.7587 10.892 59.3667 10.892C60.9627 10.892 61.9467 11.756 61.9467 13.4V17H60.6627L60.5547 16.124C60.3027 16.736 59.4987 17.156 58.5747 17.156ZM59.0547 16.052C59.9547 16.052 60.5307 15.512 60.5307 14.6V14.288L59.2947 14.384C58.3827 14.468 58.0347 14.768 58.0347 15.248C58.0347 15.788 58.3947 16.052 59.0547 16.052ZM67.1049 11.048V12.404H66.5649C65.5089 12.404 64.8489 12.968 64.8489 14.12V17H63.3849V11.084H64.7649L64.8489 11.948C65.1009 11.36 65.6649 10.964 66.4569 10.964C66.6609 10.964 66.8649 10.988 67.1049 11.048ZM67.6503 14.444V13.148H71.5143V14.444H67.6503ZM72.468 15.2H73.86C73.872 15.716 74.256 16.04 74.928 16.04C75.612 16.04 75.984 15.764 75.984 15.332C75.984 15.032 75.828 14.816 75.3 14.696L74.232 14.444C73.164 14.204 72.648 13.7 72.648 12.752C72.648 11.588 73.632 10.892 75 10.892C76.332 10.892 77.232 11.66 77.244 12.812H75.852C75.84 12.308 75.504 11.984 74.94 11.984C74.364 11.984 74.028 12.248 74.028 12.692C74.028 13.028 74.292 13.244 74.796 13.364L75.864 13.616C76.86 13.844 77.364 14.3 77.364 15.212C77.364 16.412 76.344 17.156 74.88 17.156C73.404 17.156 72.468 16.364 72.468 15.2ZM78.1307 13.964C78.1307 12.104 79.2347 10.892 80.9027 10.892C81.8027 10.892 82.5827 11.288 82.9427 11.972L83.0387 11.072H84.3827V19.748H82.9307V16.208C82.5587 16.808 81.7787 17.156 80.9027 17.156C79.1387 17.156 78.1307 15.812 78.1307 13.964ZM79.5947 14.036C79.5947 15.092 80.2187 15.836 81.2387 15.836C82.2587 15.836 82.9187 15.104 82.9187 14.036C82.9187 12.968 82.2587 12.224 81.2387 12.224C80.2187 12.224 79.5947 12.98 79.5947 14.036ZM89.9283 11.072H91.3923V17H90.0363L89.9283 16.208C89.5683 16.772 88.8003 17.156 88.0083 17.156C86.6403 17.156 85.8363 16.232 85.8363 14.78V11.072H87.3003V14.264C87.3003 15.392 87.7443 15.848 88.5603 15.848C89.4843 15.848 89.9283 15.308 89.9283 14.18V11.072ZM94.6684 17.156C93.4084 17.156 92.6404 16.424 92.6404 15.308C92.6404 14.216 93.4324 13.532 94.8364 13.424L96.6124 13.292V13.16C96.6124 12.356 96.1324 12.032 95.3884 12.032C94.5244 12.032 94.0444 12.392 94.0444 13.016H92.7964C92.7964 11.732 93.8524 10.892 95.4604 10.892C97.0564 10.892 98.0404 11.756 98.0404 13.4V17H96.7564L96.6484 16.124C96.3964 16.736 95.5924 17.156 94.6684 17.156ZM95.1484 16.052C96.0484 16.052 96.6244 15.512 96.6244 14.6V14.288L95.3884 14.384C94.4764 14.468 94.1284 14.768 94.1284 15.248C94.1284 15.788 94.4884 16.052 95.1484 16.052ZM103.199 11.048V12.404H102.659C101.603 12.404 100.943 12.968 100.943 14.12V17H99.4787V11.084H100.859L100.943 11.948C101.195 11.36 101.759 10.964 102.551 10.964C102.755 10.964 102.959 10.988 103.199 11.048ZM106.642 17.156C104.878 17.156 103.642 15.872 103.642 14.036C103.642 12.176 104.854 10.892 106.594 10.892C108.37 10.892 109.498 12.08 109.498 13.928V14.372L105.034 14.384C105.142 15.428 105.694 15.956 106.666 15.956C107.47 15.956 107.998 15.644 108.166 15.08H109.522C109.27 16.376 108.19 17.156 106.642 17.156ZM106.606 12.092C105.742 12.092 105.214 12.56 105.07 13.448H108.046C108.046 12.632 107.482 12.092 106.606 12.092Z" fill="black"/>
</svg>
