<svg width="117" height="24" viewBox="0 0 117 24" fill="none" xmlns="http://www.w3.org/2000/svg">
<path d="M22.0001 13.9V16.19C22.0001 19.83 19.8301 22 16.1901 22H7.81006C5.26006 22 3.42006 20.93 2.56006 19.03L2.67006 18.95L7.59006 15.65C8.39006 15.11 9.52006 15.17 10.2301 15.79L10.5701 16.07C11.3501 16.74 12.6101 16.74 13.3901 16.07L17.5501 12.5C18.3301 11.83 19.5901 11.83 20.3701 12.5L22.0001 13.9Z" fill="#1A1A1A"/>
<path opacity="0.4" d="M20.97 8H18.03C16.76 8 16 7.24 16 5.97V3.03C16 2.63 16.08 2.29 16.22 2C16.21 2 16.2 2 16.19 2H7.81C4.17 2 2 4.17 2 7.81V16.19C2 17.28 2.19 18.23 2.56 19.03L2.67 18.95L7.59 15.65C8.39 15.11 9.52 15.17 10.23 15.79L10.57 16.07C11.35 16.74 12.61 16.74 13.39 16.07L17.55 12.5C18.33 11.83 19.59 11.83 20.37 12.5L22 13.9V7.81C22 7.8 22 7.79 22 7.78C21.71 7.92 21.37 8 20.97 8Z" fill="#1A1A1A"/>
<path d="M9.00012 10.38C10.3146 10.38 11.3801 9.31443 11.3801 8C11.3801 6.68556 10.3146 5.62 9.00012 5.62C7.68568 5.62 6.62012 6.68556 6.62012 8C6.62012 9.31443 7.68568 10.38 9.00012 10.38Z" fill="#1A1A1A"/>
<path d="M20.97 8H18.03C16.76 8 16 7.24 16 5.97V3.03C16 1.76 16.76 1 18.03 1H20.97C22.24 1 23 1.76 23 3.03V5.97C23 7.24 22.24 8 20.97 8ZM21.19 4.69C21.07 4.57 20.91 4.51 20.75 4.51C20.59 4.51 20.43 4.57 20.31 4.69L20.13 4.87V2.63C20.13 2.28 19.85 2 19.5 2C19.15 2 18.87 2.28 18.87 2.63V4.87L18.69 4.69C18.45 4.45 18.05 4.45 17.81 4.69C17.57 4.93 17.57 5.33 17.81 5.57L19.06 6.82C19.11 6.87 19.18 6.91 19.25 6.94C19.27 6.95 19.29 6.95 19.31 6.96C19.36 6.98 19.41 6.99 19.47 6.99C19.49 6.99 19.51 6.99 19.53 6.99C19.6 6.99 19.66 6.98 19.73 6.95C19.74 6.95 19.74 6.95 19.75 6.95C19.82 6.92 19.88 6.88 19.93 6.83C19.94 6.82 19.94 6.82 19.95 6.82L21.2 5.57C21.44 5.33 21.44 4.93 21.19 4.69Z" fill="#1A1A1A"/>
<path d="M38.812 9.524C37.072 9.524 36.076 10.784 36.076 12.68C36.076 14.636 37.204 15.704 38.824 15.704C40.348 15.704 41.272 14.864 41.272 13.46V13.424H38.62V12.068H42.7V17H41.404L41.308 15.992C40.828 16.664 39.832 17.132 38.644 17.132C36.184 17.132 34.468 15.344 34.468 12.644C34.468 9.98 36.208 8.084 38.848 8.084C40.852 8.084 42.4 9.248 42.652 11.036H41.032C40.756 10.004 39.868 9.524 38.812 9.524ZM45.9067 17.156C44.6467 17.156 43.8787 16.424 43.8787 15.308C43.8787 14.216 44.6707 13.532 46.0747 13.424L47.8507 13.292V13.16C47.8507 12.356 47.3707 12.032 46.6267 12.032C45.7627 12.032 45.2827 12.392 45.2827 13.016H44.0347C44.0347 11.732 45.0907 10.892 46.6987 10.892C48.2947 10.892 49.2787 11.756 49.2787 13.4V17H47.9947L47.8867 16.124C47.6347 16.736 46.8307 17.156 45.9067 17.156ZM46.3867 16.052C47.2867 16.052 47.8627 15.512 47.8627 14.6V14.288L46.6267 14.384C45.7147 14.468 45.3667 14.768 45.3667 15.248C45.3667 15.788 45.7267 16.052 46.3867 16.052ZM52.1929 17H50.7409V8.072H52.1929V17ZM55.2047 17H53.7527V8.072H55.2047V17ZM59.3924 17.156C57.6284 17.156 56.3924 15.872 56.3924 14.036C56.3924 12.176 57.6044 10.892 59.3444 10.892C61.1204 10.892 62.2484 12.08 62.2484 13.928V14.372L57.7844 14.384C57.8924 15.428 58.4444 15.956 59.4164 15.956C60.2204 15.956 60.7484 15.644 60.9164 15.08H62.2724C62.0204 16.376 60.9404 17.156 59.3924 17.156ZM59.3564 12.092C58.4924 12.092 57.9644 12.56 57.8204 13.448H60.7964C60.7964 12.632 60.2324 12.092 59.3564 12.092ZM67.1401 11.048V12.404H66.6001C65.5441 12.404 64.8841 12.968 64.8841 14.12V17H63.4201V11.084H64.8001L64.8841 11.948C65.1361 11.36 65.7001 10.964 66.4921 10.964C66.6961 10.964 66.9001 10.988 67.1401 11.048ZM67.7908 19.748V18.524H68.6668C69.2428 18.524 69.6028 18.392 69.8548 17.696L70.0228 17.252L67.6348 11.072H69.1828L70.7068 15.392L72.3148 11.072H73.8268L70.9228 18.32C70.4788 19.424 69.8548 19.88 68.8828 19.88C68.4748 19.88 68.1148 19.832 67.7908 19.748ZM74.2362 14.444V13.148H78.1002V14.444H74.2362ZM80.3239 9.884C79.8199 9.884 79.4239 9.488 79.4239 8.996C79.4239 8.504 79.8199 8.12 80.3239 8.12C80.8039 8.12 81.1999 8.504 81.1999 8.996C81.1999 9.488 80.8039 9.884 80.3239 9.884ZM79.5919 17V11.072H81.0559V17H79.5919ZM84.0325 17H82.5685V11.072H83.9125L84.0325 11.768C84.3325 11.276 84.9325 10.892 85.7845 10.892C86.6845 10.892 87.3085 11.336 87.6205 12.02C87.9205 11.336 88.6165 10.892 89.5165 10.892C90.9565 10.892 91.7485 11.756 91.7485 13.124V17H90.2965V13.508C90.2965 12.656 89.8405 12.212 89.1445 12.212C88.4365 12.212 87.8965 12.668 87.8965 13.64V17H86.4325V13.496C86.4325 12.668 85.9885 12.224 85.2925 12.224C84.5965 12.224 84.0325 12.68 84.0325 13.64V17ZM93.1857 19.748V11.072H94.5417L94.6377 11.972C94.9977 11.288 95.7777 10.892 96.6777 10.892C98.3457 10.892 99.4497 12.104 99.4497 13.964C99.4497 15.812 98.4417 17.156 96.6777 17.156C95.7897 17.156 95.0217 16.808 94.6497 16.208V19.748H93.1857ZM94.6617 14.036C94.6617 15.104 95.3217 15.836 96.3297 15.836C97.3617 15.836 97.9737 15.092 97.9737 14.036C97.9737 12.98 97.3617 12.224 96.3297 12.224C95.3217 12.224 94.6617 12.968 94.6617 14.036ZM100.267 14.024C100.267 12.176 101.599 10.904 103.435 10.904C105.271 10.904 106.603 12.176 106.603 14.024C106.603 15.872 105.271 17.144 103.435 17.144C101.599 17.144 100.267 15.872 100.267 14.024ZM101.731 14.024C101.731 15.104 102.427 15.836 103.435 15.836C104.443 15.836 105.139 15.104 105.139 14.024C105.139 12.944 104.443 12.212 103.435 12.212C102.427 12.212 101.731 12.944 101.731 14.024ZM111.484 11.048V12.404H110.944C109.888 12.404 109.228 12.968 109.228 14.12V17H107.764V11.084H109.144L109.228 11.948C109.48 11.36 110.044 10.964 110.836 10.964C111.04 10.964 111.244 10.988 111.484 11.048ZM114.725 17H113.261V12.296H112.121V11.072H113.261V9.224H114.725V11.072H115.877V12.296H114.725V17Z" fill="black"/>
</svg>
