<svg width="106" height="24" viewBox="0 0 106 24" fill="none" xmlns="http://www.w3.org/2000/svg">
<path opacity="0.4" d="M10 3.75H11.25V8.5C11.25 8.91 11.59 9.25 12 9.25C12.41 9.25 12.75 8.91 12.75 8.5V3.75H14C14.41 3.75 14.75 3.41 14.75 3C14.75 2.59 14.41 2.25 14 2.25H10C9.59 2.25 9.25 2.59 9.25 3C9.25 3.41 9.59 3.75 10 3.75Z" fill="#1A1A1A"/>
<path opacity="0.4" d="M14 20.25H12.75V15.5C12.75 15.09 12.41 14.75 12 14.75C11.59 14.75 11.25 15.09 11.25 15.5V20.25H10C9.59 20.25 9.25 20.59 9.25 21C9.25 21.41 9.59 21.75 10 21.75H14C14.41 21.75 14.75 21.41 14.75 21C14.75 20.59 14.41 20.25 14 20.25Z" fill="#1A1A1A"/>
<path opacity="0.4" d="M2.83038 9.87994C2.95038 9.94994 3.08038 9.97994 3.20038 9.97994C3.46038 9.97994 3.71038 9.84993 3.85038 9.59993L4.48038 8.51994L8.60038 10.8999C8.71038 10.9699 8.84038 10.9999 8.97038 10.9999C9.23038 10.9999 9.48038 10.8699 9.62038 10.6199C9.83038 10.2599 9.70038 9.79993 9.35038 9.59993L5.24038 7.21994L5.86038 6.13994C6.07038 5.77994 5.94038 5.31993 5.59038 5.11993C5.23038 4.90993 4.77038 5.02994 4.57038 5.38994L2.57038 8.84993C2.35038 9.21993 2.47038 9.66994 2.83038 9.87994Z" fill="#1A1A1A"/>
<path opacity="0.4" d="M21.1703 14.1202C20.8103 13.9102 20.3503 14.0302 20.1503 14.3902L19.5203 15.4702L15.4003 13.1002C15.0403 12.8902 14.5803 13.0202 14.3803 13.3702C14.1703 13.7302 14.3003 14.1902 14.6503 14.3902L18.7603 16.7702L18.1403 17.8502C17.9303 18.2102 18.0603 18.6702 18.4103 18.8702C18.5303 18.9402 18.6603 18.9702 18.7803 18.9702C19.0403 18.9702 19.2903 18.8402 19.4303 18.5902L21.4303 15.1302C21.6503 14.7802 21.5303 14.3302 21.1703 14.1202Z" fill="#1A1A1A"/>
<path opacity="0.4" d="M18.7703 7.2197L14.6603 9.5997C14.3003 9.8097 14.1803 10.2697 14.3903 10.6197C14.5303 10.8597 14.7803 10.9997 15.0403 10.9997C15.1703 10.9997 15.3003 10.9697 15.4103 10.8997L19.5203 8.5197L20.1503 9.5997C20.2903 9.8397 20.5403 9.9797 20.8003 9.9797C20.9303 9.9797 21.0603 9.9497 21.1703 9.8797C21.5303 9.6697 21.6503 9.2097 21.4403 8.8597L19.4403 5.3997C19.2303 5.0397 18.7703 4.9197 18.4203 5.1297C18.0603 5.3397 17.9403 5.7997 18.1503 6.1497L18.7703 7.2197Z" fill="#1A1A1A"/>
<path opacity="0.4" d="M5.23036 16.7802L9.34036 14.4002C9.70037 14.1902 9.82036 13.7302 9.61036 13.3802C9.40036 13.0202 8.94036 12.9002 8.59036 13.1102L4.48036 15.4902L3.85036 14.4102C3.64036 14.0502 3.18036 13.9302 2.83036 14.1402C2.47036 14.3502 2.35036 14.8102 2.56036 15.1602L4.56036 18.6202C4.70036 18.8602 4.95036 19.0002 5.21036 19.0002C5.34036 19.0002 5.47036 18.9702 5.58036 18.9002C5.94036 18.6902 6.06036 18.2302 5.85036 17.8802L5.23036 16.7802Z" fill="#1A1A1A"/>
<path d="M15.5 12C15.5 12.64 15.33 13.23 15.03 13.75C14.42 14.8 13.29 15.5 12 15.5C10.71 15.5 9.58 14.8 8.97 13.75C8.67 13.23 8.5 12.64 8.5 12C8.5 11.36 8.67 10.77 8.97 10.25C9.58 9.2 10.71 8.5 12 8.5C13.29 8.5 14.42 9.2 15.03 10.25C15.33 10.77 15.5 11.36 15.5 12Z" fill="#1A1A1A"/>
<path d="M34.468 9.676C34.468 8.14 35.74 7.072 37.588 7.072C39.364 7.072 40.492 8.056 40.54 9.64H39.004C38.968 8.884 38.428 8.44 37.564 8.44C36.616 8.44 36.004 8.896 36.004 9.628C36.004 10.252 36.34 10.6 37.072 10.768L38.452 11.068C39.952 11.392 40.684 12.16 40.684 13.468C40.684 15.1 39.412 16.156 37.48 16.156C35.608 16.156 34.384 15.16 34.348 13.588H35.884C35.896 14.332 36.496 14.776 37.48 14.776C38.5 14.776 39.148 14.332 39.148 13.6C39.148 13.012 38.848 12.664 38.128 12.508L36.736 12.196C35.248 11.872 34.468 11.02 34.468 9.676ZM45.8776 10.072H47.3416V16H45.9856L45.8776 15.208C45.5176 15.772 44.7496 16.156 43.9576 16.156C42.5896 16.156 41.7856 15.232 41.7856 13.78V10.072H43.2496V13.264C43.2496 14.392 43.6936 14.848 44.5096 14.848C45.4336 14.848 45.8776 14.308 45.8776 13.18V10.072ZM50.3177 16H48.8537V10.072H50.2097L50.3297 10.84C50.7017 10.24 51.4217 9.892 52.2257 9.892C53.7137 9.892 54.4817 10.816 54.4817 12.352V16H53.0177V12.7C53.0177 11.704 52.5257 11.224 51.7697 11.224C50.8697 11.224 50.3177 11.848 50.3177 12.808V16Z" fill="black"/>
</svg>
