<svg width="113" height="24" viewBox="0 0 113 24" fill="none" xmlns="http://www.w3.org/2000/svg">
<path opacity="0.4" d="M22 7.81V15.16C21.71 15.02 21.39 14.92 21.03 14.86L20.72 14.81L20.46 14.27C19.91 13.15 19.01 12.5 18 12.5C16.99 12.5 16.09 13.15 15.54 14.27L15.27 14.81L14.97 14.86C13.78 15.06 12.92 15.72 12.61 16.66C12.31 17.61 12.62 18.65 13.47 19.51L13.78 19.82L13.75 19.94C13.55 20.83 13.63 21.51 13.82 22H7.81C4.17 22 2 19.83 2 16.19V7.81C2 4.17 4.17 2 7.81 2H16.19C19.83 2 22 4.17 22 7.81Z" fill="#1A1A1A"/>
<path d="M19.1199 14.9404L19.4399 15.5904C19.5999 15.9104 20.0099 16.2104 20.3499 16.2704L20.7799 16.3404C22.0899 16.5604 22.3899 17.5204 21.4599 18.4604L21.0599 18.8604C20.7899 19.1304 20.6499 19.6504 20.7299 20.0304L20.7799 20.2704C21.1399 21.8504 20.2999 22.4604 18.9299 21.6304L18.6399 21.4504C18.2899 21.2404 17.7099 21.2404 17.3599 21.4504L17.0699 21.6304C15.6899 22.4604 14.8599 21.8504 15.2199 20.2704L15.2699 20.0304C15.3499 19.6604 15.2099 19.1304 14.9399 18.8604L14.5399 18.4604C13.6099 17.5104 13.9099 16.5604 15.2199 16.3404L15.6499 16.2704C15.9999 16.2104 16.3999 15.9104 16.5599 15.5904L16.8799 14.9404C17.4999 13.6904 18.4999 13.6904 19.1199 14.9404Z" fill="#1A1A1A"/>
<path fill-rule="evenodd" clip-rule="evenodd" d="M16.1296 7.91704C16.457 8.17081 16.5167 8.64192 16.2629 8.9693L13.9485 11.955C13.3536 12.7073 12.2567 12.8445 11.4916 12.2533L11.4863 12.2492L9.65976 10.8119C9.54691 10.7262 9.38952 10.7475 9.30382 10.8581C9.30374 10.8582 9.3039 10.858 9.30382 10.8581L6.9243 13.9475C6.67154 14.2756 6.20062 14.3367 5.87246 14.084C5.5443 13.8312 5.48318 13.3603 5.73593 13.0321L8.11666 9.94122C8.71057 9.17263 9.81178 9.03371 10.5787 9.62634L10.5839 9.63038L12.4105 11.0677C12.5245 11.1543 12.6852 11.132 12.7703 11.0265L15.0774 8.05031C15.3312 7.72293 15.8023 7.66327 16.1296 7.91704Z" fill="#1A1A1A"/>
<path d="M39.772 13.412H36.508V17H34.972V8.228H40.396V9.644H36.508V12.032H39.772V13.412ZM42.8481 17.156C41.5881 17.156 40.8201 16.424 40.8201 15.308C40.8201 14.216 41.6121 13.532 43.0161 13.424L44.7921 13.292V13.16C44.7921 12.356 44.3121 12.032 43.5681 12.032C42.7041 12.032 42.2241 12.392 42.2241 13.016H40.9761C40.9761 11.732 42.0321 10.892 43.6401 10.892C45.2361 10.892 46.2201 11.756 46.2201 13.4V17H44.9361L44.8281 16.124C44.5761 16.736 43.7721 17.156 42.8481 17.156ZM43.3281 16.052C44.2281 16.052 44.8041 15.512 44.8041 14.6V14.288L43.5681 14.384C42.6561 14.468 42.3081 14.768 42.3081 15.248C42.3081 15.788 42.6681 16.052 43.3281 16.052ZM49.104 17L46.752 11.072H48.312L49.344 13.796C49.596 14.504 49.8 15.116 49.872 15.44C49.956 15.068 50.172 14.444 50.424 13.796L51.504 11.072H53.016L50.544 17H49.104ZM53.2166 14.024C53.2166 12.176 54.5486 10.904 56.3846 10.904C58.2206 10.904 59.5526 12.176 59.5526 14.024C59.5526 15.872 58.2206 17.144 56.3846 17.144C54.5486 17.144 53.2166 15.872 53.2166 14.024ZM54.6806 14.024C54.6806 15.104 55.3766 15.836 56.3846 15.836C57.3926 15.836 58.0886 15.104 58.0886 14.024C58.0886 12.944 57.3926 12.212 56.3846 12.212C55.3766 12.212 54.6806 12.944 54.6806 14.024ZM64.433 11.048V12.404H63.893C62.837 12.404 62.177 12.968 62.177 14.12V17H60.713V11.084H62.093L62.177 11.948C62.429 11.36 62.993 10.964 63.785 10.964C63.989 10.964 64.193 10.988 64.433 11.048ZM66.156 9.884C65.652 9.884 65.256 9.488 65.256 8.996C65.256 8.504 65.652 8.12 66.156 8.12C66.636 8.12 67.032 8.504 67.032 8.996C67.032 9.488 66.636 9.884 66.156 9.884ZM65.424 17V11.072H66.888V17H65.424ZM70.4165 17H68.9525V12.296H67.8125V11.072H68.9525V9.224H70.4165V11.072H71.5685V12.296H70.4165V17ZM75.0721 17.156C73.3081 17.156 72.0721 15.872 72.0721 14.036C72.0721 12.176 73.2841 10.892 75.0241 10.892C76.8001 10.892 77.9281 12.08 77.9281 13.928V14.372L73.4641 14.384C73.5721 15.428 74.1241 15.956 75.0961 15.956C75.9001 15.956 76.4281 15.644 76.5961 15.08H77.9521C77.7001 16.376 76.6201 17.156 75.0721 17.156ZM75.0361 12.092C74.1721 12.092 73.6441 12.56 73.5001 13.448H76.4761C76.4761 12.632 75.9121 12.092 75.0361 12.092ZM79.0878 14.444V13.148H82.9518V14.444H79.0878ZM84.0955 14.024C84.0955 12.188 85.3075 10.892 87.0595 10.892C88.6795 10.892 89.7835 11.792 89.9395 13.22H88.4755C88.3075 12.548 87.8155 12.2 87.1195 12.2C86.1835 12.2 85.5595 12.908 85.5595 14.024C85.5595 15.14 86.1355 15.836 87.0715 15.836C87.8035 15.836 88.3195 15.476 88.4755 14.828H89.9515C89.7715 16.208 88.6195 17.156 87.0715 17.156C85.2715 17.156 84.0955 15.908 84.0955 14.024ZM92.5052 17H91.0412V8.072H92.5172V11.84C92.8892 11.264 93.5852 10.892 94.4372 10.892C95.9012 10.892 96.6692 11.816 96.6692 13.352V17H95.2052V13.7C95.2052 12.704 94.7132 12.224 93.9692 12.224C93.0452 12.224 92.5052 12.872 92.5052 13.76V17ZM99.8716 17.156C98.6116 17.156 97.8436 16.424 97.8436 15.308C97.8436 14.216 98.6356 13.532 100.04 13.424L101.816 13.292V13.16C101.816 12.356 101.336 12.032 100.592 12.032C99.7276 12.032 99.2476 12.392 99.2476 13.016H97.9996C97.9996 11.732 99.0556 10.892 100.664 10.892C102.26 10.892 103.244 11.756 103.244 13.4V17H101.96L101.852 16.124C101.6 16.736 100.796 17.156 99.8716 17.156ZM100.352 16.052C101.252 16.052 101.828 15.512 101.828 14.6V14.288L100.592 14.384C99.6796 14.468 99.3316 14.768 99.3316 15.248C99.3316 15.788 99.6916 16.052 100.352 16.052ZM108.402 11.048V12.404H107.862C106.806 12.404 106.146 12.968 106.146 14.12V17H104.682V11.084H106.062L106.146 11.948C106.398 11.36 106.962 10.964 107.754 10.964C107.958 10.964 108.162 10.988 108.402 11.048ZM111.643 17H110.179V12.296H109.039V11.072H110.179V9.224H111.643V11.072H112.795V12.296H111.643V17Z" fill="black"/>
</svg>
