<svg width="101" height="24" viewBox="0 0 101 24" fill="none" xmlns="http://www.w3.org/2000/svg">
<path opacity="0.4" d="M17 3H7C5.34 3 4 4.34 4 6V6.84C4 7.61 3.88 8.37 3.63 9.1C3.25 10.23 2.19 11 1 11V13C2.19 13 3.25 13.76 3.63 14.9C3.87 15.63 4 16.4 4 17.16V18C4 19.66 5.34 21 7 21H17C18.66 21 20 19.66 20 18V17.16C20 16.39 20.12 15.63 20.37 14.9C20.75 13.77 21.81 13 23 13V11C21.81 11 20.75 10.24 20.37 9.1C20.13 8.37 20 7.6 20 6.84V6C20 4.34 18.66 3 17 3Z" fill="#1A1A1A"/>
<path d="M12.67 16.92H9.75C9.34 16.92 9 16.58 9 16.17V7.83997C9 7.42997 9.34 7.08997 9.75 7.08997H12.67C14.23 7.08997 15.5 8.35997 15.5 9.91997C15.5 10.74 15.15 11.49 14.58 12C15.14 12.52 15.5 13.26 15.5 14.08C15.5 15.65 14.23 16.92 12.67 16.92ZM10.5 15.42H12.67C13.41 15.42 14 14.82 14 14.09C14 13.36 13.4 12.76 12.67 12.76H10.5V15.42ZM10.5 11.25H12.67C13.41 11.25 14 10.65 14 9.91997C14 9.18997 13.4 8.58997 12.67 8.58997H10.5V11.25Z" fill="#1A1A1A"/>
<path d="M34.972 16V7.228H38.464C40.192 7.228 41.248 8.128 41.248 9.592C41.248 10.564 40.816 11.26 39.988 11.608C40.912 11.908 41.38 12.604 41.38 13.624C41.38 15.124 40.336 16 38.524 16H34.972ZM38.332 8.584H36.508V10.972H38.368C39.208 10.972 39.676 10.528 39.676 9.748C39.676 8.992 39.196 8.584 38.332 8.584ZM38.464 12.268H36.508V14.644H38.464C39.328 14.644 39.808 14.224 39.808 13.432C39.808 12.688 39.316 12.268 38.464 12.268ZM42.2244 13.024C42.2244 11.176 43.5564 9.904 45.3924 9.904C47.2284 9.904 48.5604 11.176 48.5604 13.024C48.5604 14.872 47.2284 16.144 45.3924 16.144C43.5564 16.144 42.2244 14.872 42.2244 13.024ZM43.6884 13.024C43.6884 14.104 44.3844 14.836 45.3924 14.836C46.4004 14.836 47.0964 14.104 47.0964 13.024C47.0964 11.944 46.4004 11.212 45.3924 11.212C44.3844 11.212 43.6884 11.944 43.6884 13.024ZM49.3728 13.024C49.3728 11.176 50.7048 9.904 52.5408 9.904C54.3768 9.904 55.7088 11.176 55.7088 13.024C55.7088 14.872 54.3768 16.144 52.5408 16.144C50.7048 16.144 49.3728 14.872 49.3728 13.024ZM50.8368 13.024C50.8368 14.104 51.5328 14.836 52.5408 14.836C53.5488 14.836 54.2448 14.104 54.2448 13.024C54.2448 11.944 53.5488 11.212 52.5408 11.212C51.5328 11.212 50.8368 11.944 50.8368 13.024ZM58.8267 16H57.3627V11.296H56.2227V10.072H57.3627V8.224H58.8267V10.072H59.9787V11.296H58.8267V16ZM60.4328 14.2H61.8248C61.8368 14.716 62.2208 15.04 62.8928 15.04C63.5768 15.04 63.9488 14.764 63.9488 14.332C63.9488 14.032 63.7928 13.816 63.2648 13.696L62.1968 13.444C61.1288 13.204 60.6128 12.7 60.6128 11.752C60.6128 10.588 61.5968 9.892 62.9648 9.892C64.2968 9.892 65.1968 10.66 65.2088 11.812H63.8168C63.8048 11.308 63.4688 10.984 62.9048 10.984C62.3288 10.984 61.9928 11.248 61.9928 11.692C61.9928 12.028 62.2568 12.244 62.7608 12.364L63.8288 12.616C64.8248 12.844 65.3288 13.3 65.3288 14.212C65.3288 15.412 64.3088 16.156 62.8448 16.156C61.3688 16.156 60.4328 15.364 60.4328 14.2ZM70.1635 10.048V11.404H69.6235C68.5675 11.404 67.9075 11.968 67.9075 13.12V16H66.4435V10.084H67.8235L67.9075 10.948C68.1595 10.36 68.7235 9.964 69.5155 9.964C69.7195 9.964 69.9235 9.988 70.1635 10.048ZM72.6841 16.156C71.4241 16.156 70.6561 15.424 70.6561 14.308C70.6561 13.216 71.4481 12.532 72.8521 12.424L74.6281 12.292V12.16C74.6281 11.356 74.1481 11.032 73.4041 11.032C72.5401 11.032 72.0601 11.392 72.0601 12.016H70.8121C70.8121 10.732 71.8681 9.892 73.4761 9.892C75.0721 9.892 76.0561 10.756 76.0561 12.4V16H74.7721L74.6641 15.124C74.4121 15.736 73.6081 16.156 72.6841 16.156ZM73.1641 15.052C74.0641 15.052 74.6401 14.512 74.6401 13.6V13.288L73.4041 13.384C72.4921 13.468 72.1441 13.768 72.1441 14.248C72.1441 14.788 72.5041 15.052 73.1641 15.052ZM77.4943 18.748V10.072H78.8503L78.9463 10.972C79.3063 10.288 80.0863 9.892 80.9863 9.892C82.6543 9.892 83.7583 11.104 83.7583 12.964C83.7583 14.812 82.7503 16.156 80.9863 16.156C80.0983 16.156 79.3303 15.808 78.9583 15.208V18.748H77.4943ZM78.9703 13.036C78.9703 14.104 79.6303 14.836 80.6383 14.836C81.6703 14.836 82.2823 14.092 82.2823 13.036C82.2823 11.98 81.6703 11.224 80.6383 11.224C79.6303 11.224 78.9703 11.968 78.9703 13.036Z" fill="black"/>
</svg>
