<svg width="100" height="24" viewBox="0 0 100 24" fill="none" xmlns="http://www.w3.org/2000/svg">
<path opacity="0.4" d="M8 22H16C18.76 22 21 19.76 21 17V7C21 4.24 18.76 2 16 2H8C5.24 2 3 4.24 3 7V17C3 19.76 5.24 22 8 22Z" fill="#1A1A1A"/>
<path d="M15.0001 5.70996H9.00012C7.97012 5.70996 7.12012 6.54996 7.12012 7.58996V8.58996C7.12012 9.61996 7.96012 10.47 9.00012 10.47H15.0001C16.0301 10.47 16.8801 9.62996 16.8801 8.58996V7.58996C16.8801 6.54996 16.0401 5.70996 15.0001 5.70996Z" fill="#1A1A1A"/>
<path d="M8.16039 14.9198C8.02039 14.9198 7.89039 14.8898 7.77039 14.8398C7.65039 14.7898 7.54039 14.7198 7.45039 14.6298C7.26039 14.4398 7.15039 14.1898 7.15039 13.9198C7.15039 13.7898 7.18039 13.6598 7.23039 13.5398C7.28039 13.4098 7.35039 13.3098 7.45039 13.2098C7.68039 12.9798 8.03039 12.8698 8.35039 12.9398C8.41039 12.9498 8.48039 12.9698 8.54039 12.9998C8.60039 13.0198 8.66039 13.0498 8.71039 13.0898C8.77039 13.1198 8.82039 13.1698 8.86039 13.2098C8.95039 13.3098 9.03039 13.4098 9.08039 13.5398C9.13039 13.6598 9.15039 13.7898 9.15039 13.9198C9.15039 14.1898 9.05039 14.4398 8.86039 14.6298C8.67039 14.8198 8.42039 14.9198 8.16039 14.9198Z" fill="#1A1A1A"/>
<path d="M12.1504 14.9201C11.8904 14.9201 11.6404 14.8201 11.4504 14.6301C11.2604 14.4401 11.1504 14.1901 11.1504 13.9201C11.1504 13.6601 11.2604 13.4001 11.4504 13.2101C11.8204 12.8401 12.4904 12.8401 12.8604 13.2101C12.9504 13.3101 13.0304 13.4101 13.0804 13.5401C13.1304 13.6601 13.1504 13.7901 13.1504 13.9201C13.1504 14.1901 13.0504 14.4401 12.8604 14.6301C12.6704 14.8201 12.4204 14.9201 12.1504 14.9201Z" fill="#1A1A1A"/>
<path d="M16.1504 14.9201C15.8904 14.9201 15.6404 14.8201 15.4504 14.6301C15.2604 14.4401 15.1504 14.1901 15.1504 13.9201C15.1504 13.6601 15.2604 13.4001 15.4504 13.2101C15.8204 12.8401 16.4904 12.8401 16.8604 13.2101C17.0504 13.4001 17.1604 13.6601 17.1604 13.9201C17.1604 14.0501 17.1304 14.1801 17.0804 14.3001C17.0304 14.4201 16.9604 14.5301 16.8604 14.6301C16.6704 14.8201 16.4204 14.9201 16.1504 14.9201Z" fill="#1A1A1A"/>
<path d="M8.16039 18.9198C7.89039 18.9198 7.64039 18.8198 7.45039 18.6298C7.26039 18.4398 7.15039 18.1898 7.15039 17.9198C7.15039 17.6598 7.26039 17.3998 7.45039 17.2098C7.54039 17.1198 7.65039 17.0498 7.77039 16.9998C8.02039 16.8998 8.29039 16.8998 8.54039 16.9998C8.60039 17.0198 8.66039 17.0498 8.71039 17.0898C8.77039 17.1198 8.82039 17.1698 8.86039 17.2098C9.05039 17.3998 9.16039 17.6598 9.16039 17.9198C9.16039 18.1898 9.05039 18.4398 8.86039 18.6298C8.67039 18.8198 8.42039 18.9198 8.16039 18.9198Z" fill="#1A1A1A"/>
<path d="M12.1504 18.9202C11.8904 18.9202 11.6404 18.8202 11.4504 18.6302C11.2604 18.4402 11.1504 18.1902 11.1504 17.9202C11.1504 17.8502 11.1604 17.7902 11.1704 17.7202C11.1904 17.6602 11.2104 17.6002 11.2304 17.5402C11.2604 17.4802 11.2904 17.4202 11.3204 17.3602C11.3604 17.3102 11.4004 17.2602 11.4504 17.2102C11.5404 17.1202 11.6504 17.0502 11.7704 17.0002C12.1404 16.8502 12.5804 16.9302 12.8604 17.2102C13.0504 17.4002 13.1504 17.6602 13.1504 17.9202C13.1504 18.1902 13.0504 18.4402 12.8604 18.6302C12.7704 18.7202 12.6604 18.7902 12.5404 18.8402C12.4204 18.8902 12.2904 18.9202 12.1504 18.9202Z" fill="#1A1A1A"/>
<path d="M16.1502 18.9202C16.0202 18.9202 15.8902 18.8902 15.7702 18.8402C15.6502 18.7902 15.5402 18.7202 15.4502 18.6302C15.2602 18.4402 15.1602 18.1902 15.1602 17.9202C15.1602 17.6602 15.2602 17.4002 15.4502 17.2102C15.7202 16.9302 16.1702 16.8502 16.5402 17.0002C16.6602 17.0502 16.7702 17.1202 16.8602 17.2102C17.0502 17.4002 17.1502 17.6602 17.1502 17.9202C17.1502 18.1902 17.0502 18.4402 16.8602 18.6302C16.6702 18.8202 16.4202 18.9202 16.1502 18.9202Z" fill="#1A1A1A"/>
<path d="M38.68 16.144C36.124 16.144 34.468 14.368 34.468 11.62C34.468 8.896 36.184 7.084 38.752 7.084C40.828 7.084 42.376 8.296 42.676 10.18H41.056C40.756 9.16 39.88 8.56 38.716 8.56C37.096 8.56 36.076 9.736 36.076 11.608C36.076 13.468 37.108 14.668 38.716 14.668C39.904 14.668 40.816 14.044 41.104 13.072H42.7C42.364 14.92 40.756 16.144 38.68 16.144ZM45.5083 16.156C44.2483 16.156 43.4803 15.424 43.4803 14.308C43.4803 13.216 44.2723 12.532 45.6763 12.424L47.4523 12.292V12.16C47.4523 11.356 46.9723 11.032 46.2283 11.032C45.3643 11.032 44.8843 11.392 44.8843 12.016H43.6363C43.6363 10.732 44.6923 9.892 46.3003 9.892C47.8963 9.892 48.8803 10.756 48.8803 12.4V16H47.5963L47.4883 15.124C47.2363 15.736 46.4323 16.156 45.5083 16.156ZM45.9883 15.052C46.8883 15.052 47.4643 14.512 47.4643 13.6V13.288L46.2283 13.384C45.3163 13.468 44.9683 13.768 44.9683 14.248C44.9683 14.788 45.3283 15.052 45.9883 15.052ZM51.7945 16H50.3425V7.072H51.7945V16ZM52.9822 13.024C52.9822 11.188 54.1942 9.892 55.9462 9.892C57.5662 9.892 58.6702 10.792 58.8262 12.22H57.3622C57.1942 11.548 56.7022 11.2 56.0062 11.2C55.0702 11.2 54.4462 11.908 54.4462 13.024C54.4462 14.14 55.0222 14.836 55.9582 14.836C56.6902 14.836 57.2062 14.476 57.3622 13.828H58.8382C58.6582 15.208 57.5062 16.156 55.9582 16.156C54.1582 16.156 52.9822 14.908 52.9822 13.024ZM63.9479 10.072H65.4119V16H64.0559L63.9479 15.208C63.5879 15.772 62.8199 16.156 62.0279 16.156C60.6599 16.156 59.8559 15.232 59.8559 13.78V10.072H61.3199V13.264C61.3199 14.392 61.7639 14.848 62.5799 14.848C63.5039 14.848 63.9479 14.308 63.9479 13.18V10.072ZM68.4 16H66.948V7.072H68.4V16ZM71.6997 16.156C70.4397 16.156 69.6717 15.424 69.6717 14.308C69.6717 13.216 70.4637 12.532 71.8677 12.424L73.6437 12.292V12.16C73.6437 11.356 73.1637 11.032 72.4197 11.032C71.5557 11.032 71.0757 11.392 71.0757 12.016H69.8277C69.8277 10.732 70.8837 9.892 72.4917 9.892C74.0877 9.892 75.0717 10.756 75.0717 12.4V16H73.7877L73.6797 15.124C73.4277 15.736 72.6237 16.156 71.6997 16.156ZM72.1797 15.052C73.0797 15.052 73.6557 14.512 73.6557 13.6V13.288L72.4197 13.384C71.5077 13.468 71.1597 13.768 71.1597 14.248C71.1597 14.788 71.5197 15.052 72.1797 15.052ZM78.4439 16H76.9799V11.296H75.8399V10.072H76.9799V8.224H78.4439V10.072H79.5959V11.296H78.4439V16ZM80.0994 13.024C80.0994 11.176 81.4314 9.904 83.2674 9.904C85.1034 9.904 86.4354 11.176 86.4354 13.024C86.4354 14.872 85.1034 16.144 83.2674 16.144C81.4314 16.144 80.0994 14.872 80.0994 13.024ZM81.5634 13.024C81.5634 14.104 82.2594 14.836 83.2674 14.836C84.2754 14.836 84.9714 14.104 84.9714 13.024C84.9714 11.944 84.2754 11.212 83.2674 11.212C82.2594 11.212 81.5634 11.944 81.5634 13.024ZM91.3158 10.048V11.404H90.7758C89.7198 11.404 89.0598 11.968 89.0598 13.12V16H87.5958V10.084H88.9758L89.0598 10.948C89.3118 10.36 89.8758 9.964 90.6678 9.964C90.8718 9.964 91.0758 9.988 91.3158 10.048Z" fill="black"/>
</svg>
