<svg width="1897" height="28" viewBox="0 0 1897 28" fill="none" xmlns="http://www.w3.org/2000/svg">
<path d="M2.74395 0.364397V20.6084H-5.06043e-05V0.364397H2.74395ZM6.12079 13.7764C6.12079 9.4924 8.83679 6.5244 12.8408 6.5244C16.2848 6.5244 18.6928 8.4844 19.1688 11.5364H16.5368C16.0888 9.8004 14.6888 8.8764 12.9248 8.8764C10.4328 8.8764 8.72479 10.7804 8.72479 13.7484C8.72479 16.6884 10.3208 18.5924 12.8128 18.5924C14.6888 18.5924 16.0888 17.6124 16.5648 15.9884H19.1968C18.6648 18.9564 16.1168 20.9444 12.8128 20.9444C8.78079 20.9444 6.12079 18.0884 6.12079 13.7764ZM21.0778 13.7484C21.0778 9.5204 24.1018 6.5524 28.2178 6.5524C32.3058 6.5524 35.3298 9.5204 35.3298 13.7484C35.3298 17.9764 32.3058 20.9444 28.2178 20.9444C24.1018 20.9444 21.0778 17.9764 21.0778 13.7484ZM23.7378 13.7484C23.7378 16.6044 25.5578 18.5924 28.2178 18.5924C30.8498 18.5924 32.6978 16.6044 32.6978 13.7484C32.6978 10.8924 30.8498 8.9044 28.2178 8.9044C25.5578 8.9044 23.7378 10.8924 23.7378 13.7484ZM40.8754 20.6084H38.2434V6.9164H40.6234L40.9034 9.0164C41.7714 7.4484 43.5074 6.5244 45.4394 6.5244C49.0514 6.5244 50.7034 8.7364 50.7034 12.2364V20.6084H48.0714V12.8244C48.0714 10.0524 46.7834 8.9324 44.7674 8.9324C42.3034 8.9324 40.8754 10.6964 40.8754 13.3564V20.6084ZM53.0648 16.6324H55.5848C55.5848 18.0324 56.6488 18.8724 58.3848 18.8724C60.2328 18.8724 61.2968 18.1164 61.2968 16.8564C61.2968 15.9324 60.8488 15.3724 59.4208 15.0084L57.0128 14.4484C54.5768 13.8604 53.4288 12.6564 53.4288 10.6404C53.4288 8.1204 55.5568 6.5244 58.5808 6.5244C61.5768 6.5244 63.5368 8.2044 63.5928 10.8084H61.0728C61.0168 9.4364 60.0928 8.5684 58.4968 8.5684C56.8448 8.5684 55.9208 9.2964 55.9208 10.5564C55.9208 11.4804 56.5928 12.0964 57.9368 12.4324L60.3448 13.0204C62.6688 13.5804 63.8168 14.6444 63.8168 16.6884C63.8168 19.2924 61.5768 20.9444 58.3288 20.9444C55.1088 20.9444 53.0648 19.2364 53.0648 16.6324ZM72.9358 6.9164H74.9518V4.7324C74.9518 1.3724 76.7998 0.000396729 79.2918 0.000396729C79.7958 0.000396729 80.3838 0.028398 80.9158 0.112397V2.3804H79.7398C78.0318 2.3804 77.5838 3.2484 77.5838 4.7324V6.9164H80.8318V9.1284H77.5838V20.6084H74.9518V9.1284H72.9358V6.9164ZM81.9724 13.7484C81.9724 9.5204 84.9964 6.5524 89.1124 6.5524C93.2004 6.5524 96.2244 9.5204 96.2244 13.7484C96.2244 17.9764 93.2004 20.9444 89.1124 20.9444C84.9964 20.9444 81.9724 17.9764 81.9724 13.7484ZM84.6324 13.7484C84.6324 16.6044 86.4524 18.5924 89.1124 18.5924C91.7444 18.5924 93.5924 16.6044 93.5924 13.7484C93.5924 10.8924 91.7444 8.9044 89.1124 8.9044C86.4524 8.9044 84.6324 10.8924 84.6324 13.7484ZM106.978 6.8044V9.2124H105.802C103.31 9.2124 101.77 10.7244 101.77 13.3564V20.6084H99.1379V6.9444H101.602L101.77 9.0164C102.33 7.5884 103.702 6.6364 105.578 6.6364C106.054 6.6364 106.446 6.6924 106.978 6.8044ZM117.103 26.7404V6.9164H119.483L119.679 9.3804C120.603 7.5044 122.451 6.5244 124.635 6.5244C128.555 6.5244 130.991 9.4644 130.991 13.6644C130.991 17.8364 128.695 20.9724 124.635 20.9724C122.451 20.9724 120.631 20.0484 119.735 18.3684V26.7404H117.103ZM119.763 13.7764C119.763 16.5764 121.387 18.5924 124.075 18.5924C126.763 18.5924 128.359 16.5764 128.359 13.7764C128.359 10.9484 126.763 8.9324 124.075 8.9324C121.387 8.9324 119.763 10.9204 119.763 13.7764ZM141.732 6.8044V9.2124H140.556C138.064 9.2124 136.524 10.7244 136.524 13.3564V20.6084H133.892V6.9444H136.356L136.524 9.0164C137.084 7.5884 138.456 6.6364 140.332 6.6364C140.808 6.6364 141.2 6.6924 141.732 6.8044ZM145.488 3.6684C144.536 3.6684 143.752 2.8844 143.752 1.9324C143.752 0.952398 144.536 0.196398 145.488 0.196398C146.44 0.196398 147.224 0.952398 147.224 1.9324C147.224 2.8844 146.44 3.6684 145.488 3.6684ZM144.2 20.6084V6.9164H146.832V20.6084H144.2ZM154.49 20.6084L148.974 6.9164H151.774L154.77 14.5604C155.246 15.8484 155.638 16.9964 155.862 17.8364C156.086 16.9404 156.534 15.7644 157.01 14.5604L160.062 6.9164H162.806L157.094 20.6084H154.49ZM168.275 20.9444C165.335 20.9444 163.599 19.2924 163.599 16.8004C163.599 14.2804 165.475 12.7124 168.695 12.4604L173.007 12.1244V11.7324C173.007 9.4364 171.635 8.6244 169.787 8.6244C167.575 8.6244 166.315 9.6044 166.315 11.2564H164.019C164.019 8.4004 166.371 6.5244 169.899 6.5244C173.287 6.5244 175.583 8.3164 175.583 12.0124V20.6084H173.343L173.063 18.3964C172.363 19.9644 170.487 20.9444 168.275 20.9444ZM169.031 18.9004C171.523 18.9004 173.035 17.2764 173.035 14.7004V13.9724L169.535 14.2524C167.211 14.4764 166.259 15.3724 166.259 16.7164C166.259 18.1724 167.323 18.9004 169.031 18.9004ZM178.332 13.7764C178.332 9.4924 181.048 6.5244 185.052 6.5244C188.496 6.5244 190.904 8.4844 191.38 11.5364H188.748C188.3 9.8004 186.9 8.8764 185.136 8.8764C182.644 8.8764 180.936 10.7804 180.936 13.7484C180.936 16.6884 182.532 18.5924 185.024 18.5924C186.9 18.5924 188.3 17.6124 188.776 15.9884H191.408C190.876 18.9564 188.328 20.9444 185.024 20.9444C180.992 20.9444 178.332 18.0884 178.332 13.7764ZM192.595 26.7404V24.5844H194.359C195.619 24.5844 196.627 24.3884 197.271 22.6524L197.747 21.3364L192.231 6.9164H195.003L198.979 17.9484L203.039 6.9164H205.755L199.287 23.6884C198.363 26.0404 196.991 27.0204 194.891 27.0204C194.023 27.0204 193.295 26.9084 192.595 26.7404ZM209.48 19.5164C209.48 21.5324 207.968 23.2124 205.98 23.4644V22.2884C207.128 22.0924 207.94 21.3364 207.94 20.4684C207.744 20.5804 207.52 20.6364 207.184 20.6364C206.26 20.6364 205.476 19.9644 205.476 18.9284C205.476 17.8084 206.232 16.9964 207.352 16.9964C208.528 16.9964 209.48 17.9764 209.48 19.5164ZM220.927 26.7404V6.9164H223.307L223.503 9.3804C224.427 7.5044 226.275 6.5244 228.459 6.5244C232.379 6.5244 234.815 9.4644 234.815 13.6644C234.815 17.8364 232.519 20.9724 228.459 20.9724C226.275 20.9724 224.455 20.0484 223.559 18.3684V26.7404H220.927ZM223.587 13.7764C223.587 16.5764 225.211 18.5924 227.899 18.5924C230.587 18.5924 232.183 16.5764 232.183 13.7764C232.183 10.9484 230.587 8.9324 227.899 8.9324C225.211 8.9324 223.587 10.9204 223.587 13.7764ZM245.556 6.8044V9.2124H244.38C241.888 9.2124 240.348 10.7244 240.348 13.3564V20.6084H237.716V6.9444H240.18L240.348 9.0164C240.908 7.5884 242.28 6.6364 244.156 6.6364C244.632 6.6364 245.024 6.6924 245.556 6.8044ZM246.636 13.7484C246.636 9.5204 249.66 6.5524 253.776 6.5524C257.864 6.5524 260.888 9.5204 260.888 13.7484C260.888 17.9764 257.864 20.9444 253.776 20.9444C249.66 20.9444 246.636 17.9764 246.636 13.7484ZM249.296 13.7484C249.296 16.6044 251.116 18.5924 253.776 18.5924C256.408 18.5924 258.256 16.6044 258.256 13.7484C258.256 10.8924 256.408 8.9044 253.776 8.9044C251.116 8.9044 249.296 10.8924 249.296 13.7484ZM267.529 20.6084H264.897V9.1284H262.209V6.9164H264.897V2.6324H267.529V6.9164H270.217V9.1284H267.529V20.6084ZM278.351 20.9444C274.319 20.9444 271.547 18.0324 271.547 13.7764C271.547 9.4924 274.263 6.5244 278.239 6.5244C282.131 6.5244 284.679 9.2124 284.679 13.2724V14.2524L274.095 14.2804C274.291 17.1644 275.803 18.7604 278.407 18.7604C280.451 18.7604 281.795 17.9204 282.243 16.3524H284.707C284.035 19.2924 281.739 20.9444 278.351 20.9444ZM278.239 8.7364C275.943 8.7364 274.487 10.1084 274.151 12.5164H282.047C282.047 10.2484 280.563 8.7364 278.239 8.7364ZM286.722 13.7764C286.722 9.4924 289.438 6.5244 293.442 6.5244C296.886 6.5244 299.294 8.4844 299.77 11.5364H297.138C296.69 9.8004 295.29 8.8764 293.526 8.8764C291.034 8.8764 289.326 10.7804 289.326 13.7484C289.326 16.6884 290.922 18.5924 293.414 18.5924C295.29 18.5924 296.69 17.6124 297.166 15.9884H299.798C299.266 18.9564 296.718 20.9444 293.414 20.9444C289.382 20.9444 286.722 18.0884 286.722 13.7764ZM306.439 20.6084H303.807V9.1284H301.119V6.9164H303.807V2.6324H306.439V6.9164H309.127V9.1284H306.439V20.6084ZM312.777 3.6684C311.825 3.6684 311.041 2.8844 311.041 1.9324C311.041 0.952398 311.825 0.196398 312.777 0.196398C313.729 0.196398 314.513 0.952398 314.513 1.9324C314.513 2.8844 313.729 3.6684 312.777 3.6684ZM311.489 20.6084V6.9164H314.121V20.6084H311.489ZM317.047 13.7484C317.047 9.5204 320.071 6.5524 324.187 6.5524C328.275 6.5524 331.299 9.5204 331.299 13.7484C331.299 17.9764 328.275 20.9444 324.187 20.9444C320.071 20.9444 317.047 17.9764 317.047 13.7484ZM319.707 13.7484C319.707 16.6044 321.527 18.5924 324.187 18.5924C326.819 18.5924 328.667 16.6044 328.667 13.7484C328.667 10.8924 326.819 8.9044 324.187 8.9044C321.527 8.9044 319.707 10.8924 319.707 13.7484ZM336.844 20.6084H334.212V6.9164H336.592L336.872 9.0164C337.74 7.4484 339.476 6.5244 341.408 6.5244C345.02 6.5244 346.672 8.7364 346.672 12.2364V20.6084H344.04V12.8244C344.04 10.0524 342.752 8.9324 340.736 8.9324C338.272 8.9324 336.844 10.6964 336.844 13.3564V20.6084ZM354.266 19.5164C354.266 21.5324 352.754 23.2124 350.766 23.4644V22.2884C351.914 22.0924 352.726 21.3364 352.726 20.4684C352.53 20.5804 352.306 20.6364 351.97 20.6364C351.046 20.6364 350.262 19.9644 350.262 18.9284C350.262 17.8084 351.018 16.9964 352.138 16.9964C353.314 16.9964 354.266 17.9764 354.266 19.5164ZM369.716 20.9444C366.776 20.9444 365.04 19.2924 365.04 16.8004C365.04 14.2804 366.916 12.7124 370.136 12.4604L374.448 12.1244V11.7324C374.448 9.4364 373.076 8.6244 371.228 8.6244C369.016 8.6244 367.756 9.6044 367.756 11.2564H365.46C365.46 8.4004 367.812 6.5244 371.34 6.5244C374.728 6.5244 377.024 8.3164 377.024 12.0124V20.6084H374.784L374.504 18.3964C373.804 19.9644 371.928 20.9444 369.716 20.9444ZM370.472 18.9004C372.964 18.9004 374.476 17.2764 374.476 14.7004V13.9724L370.976 14.2524C368.652 14.4764 367.7 15.3724 367.7 16.7164C367.7 18.1724 368.764 18.9004 370.472 18.9004ZM390.133 6.9164H392.737V20.6084H390.385L390.105 18.5364C389.321 19.9644 387.501 20.9444 385.485 20.9444C382.293 20.9444 380.501 18.7884 380.501 15.4284V6.9164H383.133V14.5604C383.133 17.5004 384.393 18.6204 386.409 18.6204C388.817 18.6204 390.133 17.0804 390.133 14.1404V6.9164ZM400.42 20.6084H397.788V9.1284H395.1V6.9164H397.788V2.6324H400.42V6.9164H403.108V9.1284H400.42V20.6084ZM408.102 20.5804H405.47V0.000396729H408.102V9.0164C408.97 7.5324 410.622 6.5244 412.75 6.5244C416.25 6.5244 417.93 8.7364 417.93 12.2364V20.6084H415.298V12.8244C415.298 10.0524 413.982 8.9324 412.022 8.9324C409.474 8.9324 408.102 10.7804 408.102 13.1324V20.5804ZM427.483 20.9444C423.451 20.9444 420.679 18.0324 420.679 13.7764C420.679 9.4924 423.395 6.5244 427.371 6.5244C431.263 6.5244 433.811 9.2124 433.811 13.2724V14.2524L423.227 14.2804C423.423 17.1644 424.935 18.7604 427.539 18.7604C429.583 18.7604 430.927 17.9204 431.375 16.3524H433.839C433.167 19.2924 430.871 20.9444 427.483 20.9444ZM427.371 8.7364C425.075 8.7364 423.619 10.1084 423.283 12.5164H431.179C431.179 10.2484 429.695 8.7364 427.371 8.7364ZM439.383 20.6084H436.751V6.9164H439.131L439.411 9.0164C440.279 7.4484 442.015 6.5244 443.947 6.5244C447.559 6.5244 449.211 8.7364 449.211 12.2364V20.6084H446.579V12.8244C446.579 10.0524 445.291 8.9324 443.275 8.9324C440.811 8.9324 439.383 10.6964 439.383 13.3564V20.6084ZM456.721 20.6084H454.089V9.1284H451.401V6.9164H454.089V2.6324H456.721V6.9164H459.409V9.1284H456.721V20.6084ZM463.059 3.6684C462.107 3.6684 461.323 2.8844 461.323 1.9324C461.323 0.952398 462.107 0.196398 463.059 0.196398C464.011 0.196398 464.795 0.952398 464.795 1.9324C464.795 2.8844 464.011 3.6684 463.059 3.6684ZM461.771 20.6084V6.9164H464.403V20.6084H461.771ZM467.328 13.7764C467.328 9.4924 470.044 6.5244 474.048 6.5244C477.492 6.5244 479.9 8.4844 480.376 11.5364H477.744C477.296 9.8004 475.896 8.8764 474.132 8.8764C471.64 8.8764 469.932 10.7804 469.932 13.7484C469.932 16.6884 471.528 18.5924 474.02 18.5924C475.896 18.5924 477.296 17.6124 477.772 15.9884H480.404C479.872 18.9564 477.324 20.9444 474.02 20.9444C469.988 20.9444 467.328 18.0884 467.328 13.7764ZM487.185 20.9444C484.245 20.9444 482.509 19.2924 482.509 16.8004C482.509 14.2804 484.385 12.7124 487.605 12.4604L491.917 12.1244V11.7324C491.917 9.4364 490.545 8.6244 488.697 8.6244C486.485 8.6244 485.225 9.6044 485.225 11.2564H482.929C482.929 8.4004 485.281 6.5244 488.809 6.5244C492.197 6.5244 494.493 8.3164 494.493 12.0124V20.6084H492.253L491.973 18.3964C491.273 19.9644 489.397 20.9444 487.185 20.9444ZM487.941 18.9004C490.433 18.9004 491.945 17.2764 491.945 14.7004V13.9724L488.445 14.2524C486.121 14.4764 485.169 15.3724 485.169 16.7164C485.169 18.1724 486.233 18.9004 487.941 18.9004ZM501.783 20.6084H499.151V9.1284H496.463V6.9164H499.151V2.6324H501.783V6.9164H504.471V9.1284H501.783V20.6084ZM508.121 3.6684C507.169 3.6684 506.385 2.8844 506.385 1.9324C506.385 0.952398 507.169 0.196398 508.121 0.196398C509.073 0.196398 509.857 0.952398 509.857 1.9324C509.857 2.8844 509.073 3.6684 508.121 3.6684ZM506.833 20.6084V6.9164H509.465V20.6084H506.833ZM512.39 13.7484C512.39 9.5204 515.414 6.5524 519.53 6.5524C523.618 6.5524 526.642 9.5204 526.642 13.7484C526.642 17.9764 523.618 20.9444 519.53 20.9444C515.414 20.9444 512.39 17.9764 512.39 13.7484ZM515.05 13.7484C515.05 16.6044 516.87 18.5924 519.53 18.5924C522.162 18.5924 524.01 16.6044 524.01 13.7484C524.01 10.8924 522.162 8.9044 519.53 8.9044C516.87 8.9044 515.05 10.8924 515.05 13.7484ZM532.188 20.6084H529.556V6.9164H531.936L532.216 9.0164C533.084 7.4484 534.82 6.5244 536.752 6.5244C540.364 6.5244 542.016 8.7364 542.016 12.2364V20.6084H539.384V12.8244C539.384 10.0524 538.096 8.9324 536.08 8.9324C533.616 8.9324 532.188 10.6964 532.188 13.3564V20.6084ZM549.609 19.5164C549.609 21.5324 548.097 23.2124 546.109 23.4644V22.2884C547.257 22.0924 548.069 21.3364 548.069 20.4684C547.873 20.5804 547.649 20.6364 547.313 20.6364C546.389 20.6364 545.605 19.9644 545.605 18.9284C545.605 17.8084 546.361 16.9964 547.481 16.9964C548.657 16.9964 549.609 17.9764 549.609 19.5164ZM566.964 20.9444C562.932 20.9444 560.16 18.0324 560.16 13.7764C560.16 9.4924 562.876 6.5244 566.852 6.5244C570.744 6.5244 573.292 9.2124 573.292 13.2724V14.2524L562.708 14.2804C562.904 17.1644 564.416 18.7604 567.02 18.7604C569.064 18.7604 570.408 17.9204 570.856 16.3524H573.32C572.648 19.2924 570.352 20.9444 566.964 20.9444ZM566.852 8.7364C564.556 8.7364 563.1 10.1084 562.764 12.5164H570.66C570.66 10.2484 569.176 8.7364 566.852 8.7364ZM578.864 20.6084H576.232V6.9164H578.612L578.892 9.0164C579.76 7.4484 581.496 6.5244 583.428 6.5244C587.04 6.5244 588.692 8.7364 588.692 12.2364V20.6084H586.06V12.8244C586.06 10.0524 584.772 8.9324 582.756 8.9324C580.292 8.9324 578.864 10.6964 578.864 13.3564V20.6084ZM591.441 13.7764C591.441 9.4924 594.157 6.5244 598.161 6.5244C601.605 6.5244 604.013 8.4844 604.489 11.5364H601.857C601.409 9.8004 600.009 8.8764 598.245 8.8764C595.753 8.8764 594.045 10.7804 594.045 13.7484C594.045 16.6884 595.641 18.5924 598.133 18.5924C600.009 18.5924 601.409 17.6124 601.885 15.9884H604.517C603.985 18.9564 601.437 20.9444 598.133 20.9444C594.101 20.9444 591.441 18.0884 591.441 13.7764ZM615.134 6.8044V9.2124H613.958C611.466 9.2124 609.926 10.7244 609.926 13.3564V20.6084H607.294V6.9444H609.758L609.926 9.0164C610.486 7.5884 611.858 6.6364 613.734 6.6364C614.21 6.6364 614.602 6.6924 615.134 6.8044ZM616.697 26.7404V24.5844H618.461C619.721 24.5844 620.729 24.3884 621.373 22.6524L621.849 21.3364L616.333 6.9164H619.105L623.081 17.9484L627.141 6.9164H629.857L623.389 23.6884C622.465 26.0404 621.093 27.0204 618.993 27.0204C618.125 27.0204 617.397 26.9084 616.697 26.7404ZM631.958 26.7404V6.9164H634.338L634.534 9.3804C635.458 7.5044 637.306 6.5244 639.49 6.5244C643.41 6.5244 645.846 9.4644 645.846 13.6644C645.846 17.8364 643.55 20.9724 639.49 20.9724C637.306 20.9724 635.486 20.0484 634.59 18.3684V26.7404H631.958ZM634.618 13.7764C634.618 16.5764 636.242 18.5924 638.93 18.5924C641.618 18.5924 643.214 16.5764 643.214 13.7764C643.214 10.9484 641.618 8.9324 638.93 8.9324C636.242 8.9324 634.618 10.9204 634.618 13.7764ZM652.475 20.6084H649.843V9.1284H647.155V6.9164H649.843V2.6324H652.475V6.9164H655.163V9.1284H652.475V20.6084ZM658.813 3.6684C657.861 3.6684 657.077 2.8844 657.077 1.9324C657.077 0.952398 657.861 0.196398 658.813 0.196398C659.765 0.196398 660.549 0.952398 660.549 1.9324C660.549 2.8844 659.765 3.6684 658.813 3.6684ZM657.525 20.6084V6.9164H660.157V20.6084H657.525ZM663.082 13.7484C663.082 9.5204 666.106 6.5524 670.222 6.5524C674.31 6.5524 677.334 9.5204 677.334 13.7484C677.334 17.9764 674.31 20.9444 670.222 20.9444C666.106 20.9444 663.082 17.9764 663.082 13.7484ZM665.742 13.7484C665.742 16.6044 667.562 18.5924 670.222 18.5924C672.854 18.5924 674.702 16.6044 674.702 13.7484C674.702 10.8924 672.854 8.9044 670.222 8.9044C667.562 8.9044 665.742 10.8924 665.742 13.7484ZM682.879 20.6084H680.247V6.9164H682.627L682.907 9.0164C683.775 7.4484 685.511 6.5244 687.443 6.5244C691.055 6.5244 692.707 8.7364 692.707 12.2364V20.6084H690.075V12.8244C690.075 10.0524 688.787 8.9324 686.771 8.9324C684.307 8.9324 682.879 10.6964 682.879 13.3564V20.6084ZM700.301 19.5164C700.301 21.5324 698.789 23.2124 696.801 23.4644V22.2884C697.949 22.0924 698.761 21.3364 698.761 20.4684C698.565 20.5804 698.341 20.6364 698.005 20.6364C697.081 20.6364 696.297 19.9644 696.297 18.9284C696.297 17.8084 697.053 16.9964 698.173 16.9964C699.349 16.9964 700.301 17.9764 700.301 19.5164ZM714.435 20.6084H711.803V0.000396729H714.435V20.6084ZM717.414 13.7484C717.414 9.5204 720.438 6.5524 724.554 6.5524C728.642 6.5524 731.666 9.5204 731.666 13.7484C731.666 17.9764 728.642 20.9444 724.554 20.9444C720.438 20.9444 717.414 17.9764 717.414 13.7484ZM720.074 13.7484C720.074 16.6044 721.894 18.5924 724.554 18.5924C727.186 18.5924 729.034 16.6044 729.034 13.7484C729.034 10.8924 727.186 8.9044 724.554 8.9044C721.894 8.9044 720.074 10.8924 720.074 13.7484ZM733.683 13.7764C733.683 9.4924 736.399 6.5244 740.403 6.5244C743.847 6.5244 746.255 8.4844 746.731 11.5364H744.099C743.651 9.8004 742.251 8.8764 740.487 8.8764C737.995 8.8764 736.287 10.7804 736.287 13.7484C736.287 16.6884 737.883 18.5924 740.375 18.5924C742.251 18.5924 743.651 17.6124 744.127 15.9884H746.759C746.227 18.9564 743.679 20.9444 740.375 20.9444C736.343 20.9444 733.683 18.0884 733.683 13.7764ZM752.224 20.6084H749.592V0.000396729H752.224V13.3564L758.3 6.9164H761.604L756.368 12.3764L761.576 20.6084H758.552L754.548 14.2804L752.224 16.7164V20.6084ZM770.291 16.6324H772.811C772.811 18.0324 773.875 18.8724 775.611 18.8724C777.459 18.8724 778.523 18.1164 778.523 16.8564C778.523 15.9324 778.075 15.3724 776.647 15.0084L774.239 14.4484C771.803 13.8604 770.655 12.6564 770.655 10.6404C770.655 8.1204 772.783 6.5244 775.807 6.5244C778.803 6.5244 780.763 8.2044 780.819 10.8084H778.299C778.243 9.4364 777.319 8.5684 775.723 8.5684C774.071 8.5684 773.147 9.2964 773.147 10.5564C773.147 11.4804 773.819 12.0964 775.163 12.4324L777.571 13.0204C779.895 13.5804 781.043 14.6444 781.043 16.6884C781.043 19.2924 778.803 20.9444 775.555 20.9444C772.335 20.9444 770.291 19.2364 770.291 16.6324ZM787.826 20.6084H785.194V9.1284H782.506V6.9164H785.194V2.6324H787.826V6.9164H790.514V9.1284H787.826V20.6084ZM796.716 20.9444C793.776 20.9444 792.04 19.2924 792.04 16.8004C792.04 14.2804 793.916 12.7124 797.136 12.4604L801.448 12.1244V11.7324C801.448 9.4364 800.076 8.6244 798.228 8.6244C796.016 8.6244 794.756 9.6044 794.756 11.2564H792.46C792.46 8.4004 794.812 6.5244 798.34 6.5244C801.728 6.5244 804.024 8.3164 804.024 12.0124V20.6084H801.784L801.504 18.3964C800.804 19.9644 798.928 20.9444 796.716 20.9444ZM797.472 18.9004C799.964 18.9004 801.476 17.2764 801.476 14.7004V13.9724L797.976 14.2524C795.652 14.4764 794.7 15.3724 794.7 16.7164C794.7 18.1724 795.764 18.9004 797.472 18.9004ZM811.314 20.6084H808.682V9.1284H805.994V6.9164H808.682V2.6324H811.314V6.9164H814.002V9.1284H811.314V20.6084ZM822.136 20.9444C818.104 20.9444 815.332 18.0324 815.332 13.7764C815.332 9.4924 818.048 6.5244 822.024 6.5244C825.916 6.5244 828.464 9.2124 828.464 13.2724V14.2524L817.88 14.2804C818.076 17.1644 819.588 18.7604 822.192 18.7604C824.236 18.7604 825.58 17.9204 826.028 16.3524H828.492C827.82 19.2924 825.524 20.9444 822.136 20.9444ZM822.024 8.7364C819.728 8.7364 818.272 10.1084 817.936 12.5164H825.832C825.832 10.2484 824.348 8.7364 822.024 8.7364ZM830.284 16.6324H832.804C832.804 18.0324 833.868 18.8724 835.604 18.8724C837.452 18.8724 838.516 18.1164 838.516 16.8564C838.516 15.9324 838.068 15.3724 836.64 15.0084L834.232 14.4484C831.796 13.8604 830.648 12.6564 830.648 10.6404C830.648 8.1204 832.776 6.5244 835.8 6.5244C838.796 6.5244 840.756 8.2044 840.812 10.8084H838.292C838.236 9.4364 837.312 8.5684 835.716 8.5684C834.064 8.5684 833.14 9.2964 833.14 10.5564C833.14 11.4804 833.812 12.0964 835.156 12.4324L837.564 13.0204C839.888 13.5804 841.036 14.6444 841.036 16.6884C841.036 19.2924 838.796 20.9444 835.548 20.9444C832.328 20.9444 830.284 19.2364 830.284 16.6324ZM847.738 19.5164C847.738 21.5324 846.226 23.2124 844.238 23.4644V22.2884C845.386 22.0924 846.198 21.3364 846.198 20.4684C846.002 20.5804 845.778 20.6364 845.442 20.6364C844.518 20.6364 843.734 19.9644 843.734 18.9284C843.734 17.8084 844.49 16.9964 845.61 16.9964C846.786 16.9964 847.738 17.9764 847.738 19.5164ZM863.189 20.9444C860.249 20.9444 858.513 19.2924 858.513 16.8004C858.513 14.2804 860.389 12.7124 863.609 12.4604L867.921 12.1244V11.7324C867.921 9.4364 866.549 8.6244 864.701 8.6244C862.489 8.6244 861.229 9.6044 861.229 11.2564H858.933C858.933 8.4004 861.285 6.5244 864.813 6.5244C868.201 6.5244 870.497 8.3164 870.497 12.0124V20.6084H868.257L867.977 18.3964C867.277 19.9644 865.401 20.9444 863.189 20.9444ZM863.945 18.9004C866.437 18.9004 867.949 17.2764 867.949 14.7004V13.9724L864.449 14.2524C862.125 14.4764 861.173 15.3724 861.173 16.7164C861.173 18.1724 862.237 18.9004 863.945 18.9004ZM876.774 20.6084H874.142V6.9164H876.522L876.802 9.0164C877.67 7.4484 879.406 6.5244 881.338 6.5244C884.95 6.5244 886.602 8.7364 886.602 12.2364V20.6084H883.97V12.8244C883.97 10.0524 882.682 8.9324 880.666 8.9324C878.202 8.9324 876.774 10.6964 876.774 13.3564V20.6084ZM895.735 20.9444C891.759 20.9444 889.351 17.9764 889.351 13.8044C889.351 9.6044 891.787 6.5244 895.847 6.5244C897.947 6.5244 899.711 7.4484 900.635 9.1284V0.000396729H903.239V20.6084H900.887L900.663 18.1164C899.767 19.9924 897.919 20.9444 895.735 20.9444ZM896.267 18.5644C898.955 18.5644 900.607 16.5764 900.607 13.7204C900.607 10.9204 898.955 8.9044 896.267 8.9044C893.579 8.9044 892.011 10.9204 892.011 13.7204C892.011 16.5484 893.579 18.5644 896.267 18.5644ZM913.573 16.6324H916.093C916.093 18.0324 917.157 18.8724 918.893 18.8724C920.741 18.8724 921.805 18.1164 921.805 16.8564C921.805 15.9324 921.357 15.3724 919.929 15.0084L917.521 14.4484C915.085 13.8604 913.937 12.6564 913.937 10.6404C913.937 8.1204 916.065 6.5244 919.089 6.5244C922.085 6.5244 924.045 8.2044 924.101 10.8084H921.581C921.525 9.4364 920.601 8.5684 919.005 8.5684C917.353 8.5684 916.429 9.2964 916.429 10.5564C916.429 11.4804 917.101 12.0964 918.445 12.4324L920.853 13.0204C923.177 13.5804 924.325 14.6444 924.325 16.6884C924.325 19.2924 922.085 20.9444 918.837 20.9444C915.617 20.9444 913.573 19.2364 913.573 16.6324ZM933.151 20.9444C929.119 20.9444 926.347 18.0324 926.347 13.7764C926.347 9.4924 929.063 6.5244 933.039 6.5244C936.931 6.5244 939.479 9.2124 939.479 13.2724V14.2524L928.895 14.2804C929.091 17.1644 930.603 18.7604 933.207 18.7604C935.251 18.7604 936.595 17.9204 937.043 16.3524H939.507C938.835 19.2924 936.539 20.9444 933.151 20.9444ZM933.039 8.7364C930.743 8.7364 929.287 10.1084 928.951 12.5164H936.847C936.847 10.2484 935.363 8.7364 933.039 8.7364ZM941.523 13.7764C941.523 9.4924 944.239 6.5244 948.243 6.5244C951.687 6.5244 954.095 8.4844 954.571 11.5364H951.939C951.491 9.8004 950.091 8.8764 948.327 8.8764C945.835 8.8764 944.127 10.7804 944.127 13.7484C944.127 16.6884 945.723 18.5924 948.215 18.5924C950.091 18.5924 951.491 17.6124 951.967 15.9884H954.599C954.067 18.9564 951.519 20.9444 948.215 20.9444C944.183 20.9444 941.523 18.0884 941.523 13.7764ZM966.84 6.9164H969.444V20.6084H967.092L966.812 18.5364C966.028 19.9644 964.208 20.9444 962.192 20.9444C959 20.9444 957.208 18.7884 957.208 15.4284V6.9164H959.84V14.5604C959.84 17.5004 961.1 18.6204 963.116 18.6204C965.524 18.6204 966.84 17.0804 966.84 14.1404V6.9164ZM981.103 6.8044V9.2124H979.927C977.435 9.2124 975.895 10.7244 975.895 13.3564V20.6084H973.263V6.9444H975.727L975.895 9.0164C976.455 7.5884 977.827 6.6364 979.703 6.6364C980.179 6.6364 980.571 6.6924 981.103 6.8044ZM984.859 3.6684C983.907 3.6684 983.123 2.8844 983.123 1.9324C983.123 0.952398 983.907 0.196398 984.859 0.196398C985.811 0.196398 986.595 0.952398 986.595 1.9324C986.595 2.8844 985.811 3.6684 984.859 3.6684ZM983.571 20.6084V6.9164H986.203V20.6084H983.571ZM993.889 20.6084H991.257V9.1284H988.569V6.9164H991.257V2.6324H993.889V6.9164H996.577V9.1284H993.889V20.6084ZM997.623 26.7404V24.5844H999.387C1000.65 24.5844 1001.65 24.3884 1002.3 22.6524L1002.77 21.3364L997.259 6.9164H1000.03L1004.01 17.9484L1008.07 6.9164H1010.78L1004.31 23.6884C1003.39 26.0404 1002.02 27.0204 999.919 27.0204C999.051 27.0204 998.323 26.9084 997.623 26.7404ZM1023.48 20.6084L1019 6.9164H1021.72L1023.98 14.0284C1024.29 15.0364 1024.57 16.0724 1024.82 17.2764C1025.05 16.0724 1025.41 14.9244 1025.72 14.0284L1028.02 6.9164H1030.7L1032.97 14.0284C1033.2 14.7004 1033.64 16.2964 1033.87 17.2764C1034.09 16.1844 1034.34 15.2324 1034.74 14.0284L1037.03 6.9164H1039.78L1035.1 20.6084H1032.61L1030.23 13.2724C1029.78 11.9004 1029.5 10.8364 1029.36 10.0804C1029.22 10.7524 1028.97 11.6484 1028.46 13.3004L1026.08 20.6084H1023.48ZM1040.51 13.7484C1040.51 9.5204 1043.53 6.5524 1047.65 6.5524C1051.74 6.5524 1054.76 9.5204 1054.76 13.7484C1054.76 17.9764 1051.74 20.9444 1047.65 20.9444C1043.53 20.9444 1040.51 17.9764 1040.51 13.7484ZM1043.17 13.7484C1043.17 16.6044 1044.99 18.5924 1047.65 18.5924C1050.28 18.5924 1052.13 16.6044 1052.13 13.7484C1052.13 10.8924 1050.28 8.9044 1047.65 8.9044C1044.99 8.9044 1043.17 10.8924 1043.17 13.7484ZM1065.51 6.8044V9.2124H1064.34C1061.85 9.2124 1060.31 10.7244 1060.31 13.3564V20.6084H1057.67V6.9444H1060.14L1060.31 9.0164C1060.87 7.5884 1062.24 6.6364 1064.11 6.6364C1064.59 6.6364 1064.98 6.6924 1065.51 6.8044ZM1070.67 20.6084H1068.04V0.000396729H1070.67V13.3564L1076.75 6.9164H1080.05L1074.81 12.3764L1080.02 20.6084H1077L1072.99 14.2804L1070.67 16.7164V20.6084ZM1093.85 20.6084H1091.24V9.1284H1085.39V20.6084H1082.76V9.1284H1080.74V6.9164H1082.76V4.7324C1082.76 1.3724 1084.55 0.000396729 1086.93 0.000396729C1087.44 0.000396729 1088.02 0.028398 1088.56 0.112397V2.3804H1087.38C1085.78 2.3804 1085.39 3.2484 1085.39 4.7324V6.9164H1091.24V0.000396729H1093.85V20.6084ZM1096.81 13.7484C1096.81 9.5204 1099.83 6.5524 1103.95 6.5524C1108.04 6.5524 1111.06 9.5204 1111.06 13.7484C1111.06 17.9764 1108.04 20.9444 1103.95 20.9444C1099.83 20.9444 1096.81 17.9764 1096.81 13.7484ZM1099.47 13.7484C1099.47 16.6044 1101.29 18.5924 1103.95 18.5924C1106.58 18.5924 1108.43 16.6044 1108.43 13.7484C1108.43 10.8924 1106.58 8.9044 1103.95 8.9044C1101.29 8.9044 1099.47 10.8924 1099.47 13.7484ZM1116.28 20.6084L1111.8 6.9164H1114.52L1116.79 14.0284C1117.1 15.0364 1117.38 16.0724 1117.63 17.2764C1117.85 16.0724 1118.22 14.9244 1118.52 14.0284L1120.82 6.9164H1123.51L1125.78 14.0284C1126 14.7004 1126.45 16.2964 1126.67 17.2764C1126.9 16.1844 1127.15 15.2324 1127.54 14.0284L1129.84 6.9164H1132.58L1127.9 20.6084H1125.41L1123.03 13.2724C1122.58 11.9004 1122.3 10.8364 1122.16 10.0804C1122.02 10.7524 1121.77 11.6484 1121.27 13.3004L1118.89 20.6084H1116.28ZM1133.53 16.6324H1136.05C1136.05 18.0324 1137.11 18.8724 1138.85 18.8724C1140.69 18.8724 1141.76 18.1164 1141.76 16.8564C1141.76 15.9324 1141.31 15.3724 1139.88 15.0084L1137.47 14.4484C1135.04 13.8604 1133.89 12.6564 1133.89 10.6404C1133.89 8.1204 1136.02 6.5244 1139.04 6.5244C1142.04 6.5244 1144 8.2044 1144.05 10.8084H1141.53C1141.48 9.4364 1140.55 8.5684 1138.96 8.5684C1137.31 8.5684 1136.38 9.2964 1136.38 10.5564C1136.38 11.4804 1137.05 12.0964 1138.4 12.4324L1140.81 13.0204C1143.13 13.5804 1144.28 14.6444 1144.28 16.6884C1144.28 19.2924 1142.04 20.9444 1138.79 20.9444C1135.57 20.9444 1133.53 19.2364 1133.53 16.6324ZM1164.32 6.9164H1166.92V20.6084H1164.57L1164.29 18.5364C1163.5 19.9644 1161.68 20.9444 1159.67 20.9444C1156.48 20.9444 1154.68 18.7884 1154.68 15.4284V6.9164H1157.32V14.5604C1157.32 17.5004 1158.58 18.6204 1160.59 18.6204C1163 18.6204 1164.32 17.0804 1164.32 14.1404V6.9164ZM1169.35 16.6324H1171.87C1171.87 18.0324 1172.93 18.8724 1174.67 18.8724C1176.51 18.8724 1177.58 18.1164 1177.58 16.8564C1177.58 15.9324 1177.13 15.3724 1175.7 15.0084L1173.29 14.4484C1170.86 13.8604 1169.71 12.6564 1169.71 10.6404C1169.71 8.1204 1171.84 6.5244 1174.86 6.5244C1177.86 6.5244 1179.82 8.2044 1179.87 10.8084H1177.35C1177.3 9.4364 1176.37 8.5684 1174.78 8.5684C1173.13 8.5684 1172.2 9.2964 1172.2 10.5564C1172.2 11.4804 1172.87 12.0964 1174.22 12.4324L1176.63 13.0204C1178.95 13.5804 1180.1 14.6444 1180.1 16.6884C1180.1 19.2924 1177.86 20.9444 1174.61 20.9444C1171.39 20.9444 1169.35 19.2364 1169.35 16.6324ZM1188.92 20.9444C1184.89 20.9444 1182.12 18.0324 1182.12 13.7764C1182.12 9.4924 1184.84 6.5244 1188.81 6.5244C1192.7 6.5244 1195.25 9.2124 1195.25 13.2724V14.2524L1184.67 14.2804C1184.86 17.1644 1186.38 18.7604 1188.98 18.7604C1191.02 18.7604 1192.37 17.9204 1192.82 16.3524H1195.28C1194.61 19.2924 1192.31 20.9444 1188.92 20.9444ZM1188.81 8.7364C1186.52 8.7364 1185.06 10.1084 1184.72 12.5164H1192.62C1192.62 10.2484 1191.14 8.7364 1188.81 8.7364ZM1203.68 20.9444C1199.7 20.9444 1197.3 17.9764 1197.3 13.8044C1197.3 9.6044 1199.73 6.5244 1203.79 6.5244C1205.89 6.5244 1207.66 7.4484 1208.58 9.1284V0.000396729H1211.18V20.6084H1208.83L1208.61 18.1164C1207.71 19.9924 1205.86 20.9444 1203.68 20.9444ZM1204.21 18.5644C1206.9 18.5644 1208.55 16.5764 1208.55 13.7204C1208.55 10.9204 1206.9 8.9044 1204.21 8.9044C1201.52 8.9044 1199.96 10.9204 1199.96 13.7204C1199.96 16.5484 1201.52 18.5644 1204.21 18.5644ZM1226.64 20.9444C1223.7 20.9444 1221.97 19.2924 1221.97 16.8004C1221.97 14.2804 1223.84 12.7124 1227.06 12.4604L1231.37 12.1244V11.7324C1231.37 9.4364 1230 8.6244 1228.15 8.6244C1225.94 8.6244 1224.68 9.6044 1224.68 11.2564H1222.39C1222.39 8.4004 1224.74 6.5244 1228.27 6.5244C1231.65 6.5244 1233.95 8.3164 1233.95 12.0124V20.6084H1231.71L1231.43 18.3964C1230.73 19.9644 1228.85 20.9444 1226.64 20.9444ZM1227.4 18.9004C1229.89 18.9004 1231.4 17.2764 1231.4 14.7004V13.9724L1227.9 14.2524C1225.58 14.4764 1224.63 15.3724 1224.63 16.7164C1224.63 18.1724 1225.69 18.9004 1227.4 18.9004ZM1236.7 13.7764C1236.7 9.4924 1239.41 6.5244 1243.42 6.5244C1246.86 6.5244 1249.27 8.4844 1249.75 11.5364H1247.11C1246.67 9.8004 1245.27 8.8764 1243.5 8.8764C1241.01 8.8764 1239.3 10.7804 1239.3 13.7484C1239.3 16.6884 1240.9 18.5924 1243.39 18.5924C1245.27 18.5924 1246.67 17.6124 1247.14 15.9884H1249.77C1249.24 18.9564 1246.69 20.9444 1243.39 20.9444C1239.36 20.9444 1236.7 18.0884 1236.7 13.7764ZM1260.39 6.8044V9.2124H1259.22C1256.72 9.2124 1255.18 10.7244 1255.18 13.3564V20.6084H1252.55V6.9444H1255.02L1255.18 9.0164C1255.74 7.5884 1257.12 6.6364 1258.99 6.6364C1259.47 6.6364 1259.86 6.6924 1260.39 6.8044ZM1261.47 13.7484C1261.47 9.5204 1264.5 6.5524 1268.61 6.5524C1272.7 6.5524 1275.72 9.5204 1275.72 13.7484C1275.72 17.9764 1272.7 20.9444 1268.61 20.9444C1264.5 20.9444 1261.47 17.9764 1261.47 13.7484ZM1264.13 13.7484C1264.13 16.6044 1265.95 18.5924 1268.61 18.5924C1271.24 18.5924 1273.09 16.6044 1273.09 13.7484C1273.09 10.8924 1271.24 8.9044 1268.61 8.9044C1265.95 8.9044 1264.13 10.8924 1264.13 13.7484ZM1277.52 16.6324H1280.04C1280.04 18.0324 1281.1 18.8724 1282.84 18.8724C1284.69 18.8724 1285.75 18.1164 1285.75 16.8564C1285.75 15.9324 1285.3 15.3724 1283.87 15.0084L1281.47 14.4484C1279.03 13.8604 1277.88 12.6564 1277.88 10.6404C1277.88 8.1204 1280.01 6.5244 1283.03 6.5244C1286.03 6.5244 1287.99 8.2044 1288.05 10.8084H1285.53C1285.47 9.4364 1284.55 8.5684 1282.95 8.5684C1281.3 8.5684 1280.37 9.2964 1280.37 10.5564C1280.37 11.4804 1281.05 12.0964 1282.39 12.4324L1284.8 13.0204C1287.12 13.5804 1288.27 14.6444 1288.27 16.6884C1288.27 19.2924 1286.03 20.9444 1282.78 20.9444C1279.56 20.9444 1277.52 19.2364 1277.52 16.6324ZM1290.07 16.6324H1292.59C1292.59 18.0324 1293.65 18.8724 1295.39 18.8724C1297.24 18.8724 1298.3 18.1164 1298.3 16.8564C1298.3 15.9324 1297.85 15.3724 1296.42 15.0084L1294.02 14.4484C1291.58 13.8604 1290.43 12.6564 1290.43 10.6404C1290.43 8.1204 1292.56 6.5244 1295.58 6.5244C1298.58 6.5244 1300.54 8.2044 1300.6 10.8084H1298.08C1298.02 9.4364 1297.1 8.5684 1295.5 8.5684C1293.85 8.5684 1292.92 9.2964 1292.92 10.5564C1292.92 11.4804 1293.6 12.0964 1294.94 12.4324L1297.35 13.0204C1299.67 13.5804 1300.82 14.6444 1300.82 16.6884C1300.82 19.2924 1298.58 20.9444 1295.33 20.9444C1292.11 20.9444 1290.07 19.2364 1290.07 16.6324ZM1315.4 20.9444C1312.46 20.9444 1310.72 19.2924 1310.72 16.8004C1310.72 14.2804 1312.6 12.7124 1315.82 12.4604L1320.13 12.1244V11.7324C1320.13 9.4364 1318.76 8.6244 1316.91 8.6244C1314.7 8.6244 1313.44 9.6044 1313.44 11.2564H1311.14C1311.14 8.4004 1313.5 6.5244 1317.02 6.5244C1320.41 6.5244 1322.71 8.3164 1322.71 12.0124V20.6084H1320.47L1320.19 18.3964C1319.49 19.9644 1317.61 20.9444 1315.4 20.9444ZM1316.16 18.9004C1318.65 18.9004 1320.16 17.2764 1320.16 14.7004V13.9724L1316.66 14.2524C1314.34 14.4764 1313.38 15.3724 1313.38 16.7164C1313.38 18.1724 1314.45 18.9004 1316.16 18.9004ZM1326.35 26.7404V6.9164H1328.73L1328.93 9.3804C1329.85 7.5044 1331.7 6.5244 1333.88 6.5244C1337.8 6.5244 1340.24 9.4644 1340.24 13.6644C1340.24 17.8364 1337.94 20.9724 1333.88 20.9724C1331.7 20.9724 1329.88 20.0484 1328.98 18.3684V26.7404H1326.35ZM1329.01 13.7764C1329.01 16.5764 1330.64 18.5924 1333.32 18.5924C1336.01 18.5924 1337.61 16.5764 1337.61 13.7764C1337.61 10.9484 1336.01 8.9324 1333.32 8.9324C1330.64 8.9324 1329.01 10.9204 1329.01 13.7764ZM1343.14 26.7404V6.9164H1345.52L1345.72 9.3804C1346.64 7.5044 1348.49 6.5244 1350.67 6.5244C1354.59 6.5244 1357.03 9.4644 1357.03 13.6644C1357.03 17.8364 1354.73 20.9724 1350.67 20.9724C1348.49 20.9724 1346.67 20.0484 1345.77 18.3684V26.7404H1343.14ZM1345.8 13.7764C1345.8 16.5764 1347.43 18.5924 1350.11 18.5924C1352.8 18.5924 1354.4 16.5764 1354.4 13.7764C1354.4 10.9484 1352.8 8.9324 1350.11 8.9324C1347.43 8.9324 1345.8 10.9204 1345.8 13.7764ZM1358.81 16.6324H1361.33C1361.33 18.0324 1362.39 18.8724 1364.13 18.8724C1365.98 18.8724 1367.04 18.1164 1367.04 16.8564C1367.04 15.9324 1366.59 15.3724 1365.17 15.0084L1362.76 14.4484C1360.32 13.8604 1359.17 12.6564 1359.17 10.6404C1359.17 8.1204 1361.3 6.5244 1364.33 6.5244C1367.32 6.5244 1369.28 8.2044 1369.34 10.8084H1366.82C1366.76 9.4364 1365.84 8.5684 1364.24 8.5684C1362.59 8.5684 1361.67 9.2964 1361.67 10.5564C1361.67 11.4804 1362.34 12.0964 1363.68 12.4324L1366.09 13.0204C1368.41 13.5804 1369.56 14.6444 1369.56 16.6884C1369.56 19.2924 1367.32 20.9444 1364.07 20.9444C1360.85 20.9444 1358.81 19.2364 1358.81 16.6324ZM1376.27 19.5164C1376.27 21.5324 1374.75 23.2124 1372.77 23.4644V22.2884C1373.91 22.0924 1374.73 21.3364 1374.73 20.4684C1374.53 20.5804 1374.31 20.6364 1373.97 20.6364C1373.05 20.6364 1372.26 19.9644 1372.26 18.9284C1372.26 17.8084 1373.02 16.9964 1374.14 16.9964C1375.31 16.9964 1376.27 17.9764 1376.27 19.5164ZM1393.2 20.9444C1389.22 20.9444 1386.82 17.9764 1386.82 13.8044C1386.82 9.6044 1389.25 6.5244 1393.31 6.5244C1395.41 6.5244 1397.18 7.4484 1398.1 9.1284V0.000396729H1400.7V20.6084H1398.35L1398.13 18.1164C1397.23 19.9924 1395.38 20.9444 1393.2 20.9444ZM1393.73 18.5644C1396.42 18.5644 1398.07 16.5764 1398.07 13.7204C1398.07 10.9204 1396.42 8.9044 1393.73 8.9044C1391.04 8.9044 1389.48 10.9204 1389.48 13.7204C1389.48 16.5484 1391.04 18.5644 1393.73 18.5644ZM1408.51 20.9444C1405.57 20.9444 1403.83 19.2924 1403.83 16.8004C1403.83 14.2804 1405.71 12.7124 1408.93 12.4604L1413.24 12.1244V11.7324C1413.24 9.4364 1411.87 8.6244 1410.02 8.6244C1407.81 8.6244 1406.55 9.6044 1406.55 11.2564H1404.25C1404.25 8.4004 1406.6 6.5244 1410.13 6.5244C1413.52 6.5244 1415.81 8.3164 1415.81 12.0124V20.6084H1413.57L1413.29 18.3964C1412.59 19.9644 1410.72 20.9444 1408.51 20.9444ZM1409.26 18.9004C1411.75 18.9004 1413.27 17.2764 1413.27 14.7004V13.9724L1409.77 14.2524C1407.44 14.4764 1406.49 15.3724 1406.49 16.7164C1406.49 18.1724 1407.55 18.9004 1409.26 18.9004ZM1418.34 16.6324H1420.86C1420.86 18.0324 1421.92 18.8724 1423.66 18.8724C1425.51 18.8724 1426.57 18.1164 1426.57 16.8564C1426.57 15.9324 1426.12 15.3724 1424.69 15.0084L1422.29 14.4484C1419.85 13.8604 1418.7 12.6564 1418.7 10.6404C1418.7 8.1204 1420.83 6.5244 1423.85 6.5244C1426.85 6.5244 1428.81 8.2044 1428.87 10.8084H1426.35C1426.29 9.4364 1425.37 8.5684 1423.77 8.5684C1422.12 8.5684 1421.19 9.2964 1421.19 10.5564C1421.19 11.4804 1421.87 12.0964 1423.21 12.4324L1425.62 13.0204C1427.94 13.5804 1429.09 14.6444 1429.09 16.6884C1429.09 19.2924 1426.85 20.9444 1423.6 20.9444C1420.38 20.9444 1418.34 19.2364 1418.34 16.6324ZM1434.64 20.5804H1432.01V0.000396729H1434.64V9.0164C1435.51 7.5324 1437.16 6.5244 1439.29 6.5244C1442.79 6.5244 1444.47 8.7364 1444.47 12.2364V20.6084H1441.84V12.8244C1441.84 10.0524 1440.52 8.9324 1438.56 8.9324C1436.01 8.9324 1434.64 10.7804 1434.64 13.1324V20.5804ZM1450.49 20.6084H1448.11V0.000396729H1450.75V9.2684C1451.64 7.4764 1453.49 6.5244 1455.73 6.5244C1459.65 6.5244 1462 9.6044 1462 13.8324C1462 17.9764 1459.54 20.9444 1455.56 20.9444C1453.41 20.9444 1451.59 19.9924 1450.69 18.1164L1450.49 20.6084ZM1450.77 13.7204C1450.77 16.5764 1452.4 18.5644 1455.09 18.5644C1457.77 18.5644 1459.37 16.5484 1459.37 13.7204C1459.37 10.9204 1457.77 8.9044 1455.09 8.9044C1452.4 8.9044 1450.77 10.9204 1450.77 13.7204ZM1464.01 13.7484C1464.01 9.5204 1467.03 6.5524 1471.15 6.5524C1475.24 6.5524 1478.26 9.5204 1478.26 13.7484C1478.26 17.9764 1475.24 20.9444 1471.15 20.9444C1467.03 20.9444 1464.01 17.9764 1464.01 13.7484ZM1466.67 13.7484C1466.67 16.6044 1468.49 18.5924 1471.15 18.5924C1473.78 18.5924 1475.63 16.6044 1475.63 13.7484C1475.63 10.8924 1473.78 8.9044 1471.15 8.9044C1468.49 8.9044 1466.67 10.8924 1466.67 13.7484ZM1485.18 20.9444C1482.24 20.9444 1480.5 19.2924 1480.5 16.8004C1480.5 14.2804 1482.38 12.7124 1485.6 12.4604L1489.91 12.1244V11.7324C1489.91 9.4364 1488.54 8.6244 1486.69 8.6244C1484.48 8.6244 1483.22 9.6044 1483.22 11.2564H1480.92C1480.92 8.4004 1483.27 6.5244 1486.8 6.5244C1490.19 6.5244 1492.49 8.3164 1492.49 12.0124V20.6084H1490.25L1489.97 18.3964C1489.27 19.9644 1487.39 20.9444 1485.18 20.9444ZM1485.93 18.9004C1488.43 18.9004 1489.94 17.2764 1489.94 14.7004V13.9724L1486.44 14.2524C1484.11 14.4764 1483.16 15.3724 1483.16 16.7164C1483.16 18.1724 1484.23 18.9004 1485.93 18.9004ZM1503.97 6.8044V9.2124H1502.79C1500.3 9.2124 1498.76 10.7244 1498.76 13.3564V20.6084H1496.13V6.9444H1498.59L1498.76 9.0164C1499.32 7.5884 1500.69 6.6364 1502.57 6.6364C1503.05 6.6364 1503.44 6.6924 1503.97 6.8044ZM1511.43 20.9444C1507.46 20.9444 1505.05 17.9764 1505.05 13.8044C1505.05 9.6044 1507.49 6.5244 1511.55 6.5244C1513.65 6.5244 1515.41 7.4484 1516.33 9.1284V0.000396729H1518.94V20.6084H1516.59L1516.36 18.1164C1515.47 19.9924 1513.62 20.9444 1511.43 20.9444ZM1511.97 18.5644C1514.65 18.5644 1516.31 16.5764 1516.31 13.7204C1516.31 10.9204 1514.65 8.9044 1511.97 8.9044C1509.28 8.9044 1507.71 10.9204 1507.71 13.7204C1507.71 16.5484 1509.28 18.5644 1511.97 18.5644ZM1521.62 16.6324H1524.14C1524.14 18.0324 1525.2 18.8724 1526.94 18.8724C1528.78 18.8724 1529.85 18.1164 1529.85 16.8564C1529.85 15.9324 1529.4 15.3724 1527.97 15.0084L1525.56 14.4484C1523.13 13.8604 1521.98 12.6564 1521.98 10.6404C1521.98 8.1204 1524.11 6.5244 1527.13 6.5244C1530.13 6.5244 1532.09 8.2044 1532.14 10.8084H1529.62C1529.57 9.4364 1528.64 8.5684 1527.05 8.5684C1525.4 8.5684 1524.47 9.2964 1524.47 10.5564C1524.47 11.4804 1525.14 12.0964 1526.49 12.4324L1528.9 13.0204C1531.22 13.5804 1532.37 14.6444 1532.37 16.6884C1532.37 19.2924 1530.13 20.9444 1526.88 20.9444C1523.66 20.9444 1521.62 19.2364 1521.62 16.6324ZM1539.07 19.5164C1539.07 21.5324 1537.56 23.2124 1535.57 23.4644V22.2884C1536.72 22.0924 1537.53 21.3364 1537.53 20.4684C1537.33 20.5804 1537.11 20.6364 1536.77 20.6364C1535.85 20.6364 1535.07 19.9644 1535.07 18.9284C1535.07 17.8084 1535.82 16.9964 1536.94 16.9964C1538.12 16.9964 1539.07 17.9764 1539.07 19.5164ZM1554.52 20.9444C1551.58 20.9444 1549.84 19.2924 1549.84 16.8004C1549.84 14.2804 1551.72 12.7124 1554.94 12.4604L1559.25 12.1244V11.7324C1559.25 9.4364 1557.88 8.6244 1556.03 8.6244C1553.82 8.6244 1552.56 9.6044 1552.56 11.2564H1550.26C1550.26 8.4004 1552.62 6.5244 1556.14 6.5244C1559.53 6.5244 1561.83 8.3164 1561.83 12.0124V20.6084H1559.59L1559.31 18.3964C1558.61 19.9644 1556.73 20.9444 1554.52 20.9444ZM1555.28 18.9004C1557.77 18.9004 1559.28 17.2764 1559.28 14.7004V13.9724L1555.78 14.2524C1553.46 14.4764 1552.5 15.3724 1552.5 16.7164C1552.5 18.1724 1553.57 18.9004 1555.28 18.9004ZM1568.11 20.6084H1565.47V6.9164H1567.85L1568.13 9.0164C1569 7.4484 1570.74 6.5244 1572.67 6.5244C1576.28 6.5244 1577.93 8.7364 1577.93 12.2364V20.6084H1575.3V12.8244C1575.3 10.0524 1574.01 8.9324 1572 8.9324C1569.53 8.9324 1568.11 10.6964 1568.11 13.3564V20.6084ZM1587.07 20.9444C1583.09 20.9444 1580.68 17.9764 1580.68 13.8044C1580.68 9.6044 1583.12 6.5244 1587.18 6.5244C1589.28 6.5244 1591.04 7.4484 1591.97 9.1284V0.000396729H1594.57V20.6084H1592.22L1592 18.1164C1591.1 19.9924 1589.25 20.9444 1587.07 20.9444ZM1587.6 18.5644C1590.29 18.5644 1591.94 16.5764 1591.94 13.7204C1591.94 10.9204 1590.29 8.9044 1587.6 8.9044C1584.91 8.9044 1583.34 10.9204 1583.34 13.7204C1583.34 16.5484 1584.91 18.5644 1587.6 18.5644ZM1604.9 16.6324H1607.42C1607.42 18.0324 1608.49 18.8724 1610.22 18.8724C1612.07 18.8724 1613.14 18.1164 1613.14 16.8564C1613.14 15.9324 1612.69 15.3724 1611.26 15.0084L1608.85 14.4484C1606.42 13.8604 1605.27 12.6564 1605.27 10.6404C1605.27 8.1204 1607.4 6.5244 1610.42 6.5244C1613.42 6.5244 1615.38 8.2044 1615.43 10.8084H1612.91C1612.86 9.4364 1611.93 8.5684 1610.34 8.5684C1608.68 8.5684 1607.76 9.2964 1607.76 10.5564C1607.76 11.4804 1608.43 12.0964 1609.78 12.4324L1612.18 13.0204C1614.51 13.5804 1615.66 14.6444 1615.66 16.6884C1615.66 19.2924 1613.42 20.9444 1610.17 20.9444C1606.95 20.9444 1604.9 19.2364 1604.9 16.6324ZM1616.99 26.7404V24.5844H1618.75C1620.01 24.5844 1621.02 24.3884 1621.66 22.6524L1622.14 21.3364L1616.62 6.9164H1619.39L1623.37 17.9484L1627.43 6.9164H1630.15L1623.68 23.6884C1622.75 26.0404 1621.38 27.0204 1619.28 27.0204C1618.41 27.0204 1617.69 26.9084 1616.99 26.7404ZM1630.94 16.6324H1633.46C1633.46 18.0324 1634.52 18.8724 1636.26 18.8724C1638.1 18.8724 1639.17 18.1164 1639.17 16.8564C1639.17 15.9324 1638.72 15.3724 1637.29 15.0084L1634.88 14.4484C1632.45 13.8604 1631.3 12.6564 1631.3 10.6404C1631.3 8.1204 1633.43 6.5244 1636.45 6.5244C1639.45 6.5244 1641.41 8.2044 1641.46 10.8084H1638.94C1638.89 9.4364 1637.96 8.5684 1636.37 8.5684C1634.72 8.5684 1633.79 9.2964 1633.79 10.5564C1633.79 11.4804 1634.46 12.0964 1635.81 12.4324L1638.22 13.0204C1640.54 13.5804 1641.69 14.6444 1641.69 16.6884C1641.69 19.2924 1639.45 20.9444 1636.2 20.9444C1632.98 20.9444 1630.94 19.2364 1630.94 16.6324ZM1648.47 20.6084H1645.84V9.1284H1643.15V6.9164H1645.84V2.6324H1648.47V6.9164H1651.16V9.1284H1648.47V20.6084ZM1659.29 20.9444C1655.26 20.9444 1652.49 18.0324 1652.49 13.7764C1652.49 9.4924 1655.2 6.5244 1659.18 6.5244C1663.07 6.5244 1665.62 9.2124 1665.62 13.2724V14.2524L1655.04 14.2804C1655.23 17.1644 1656.74 18.7604 1659.35 18.7604C1661.39 18.7604 1662.74 17.9204 1663.18 16.3524H1665.65C1664.98 19.2924 1662.68 20.9444 1659.29 20.9444ZM1659.18 8.7364C1656.88 8.7364 1655.43 10.1084 1655.09 12.5164H1662.99C1662.99 10.2484 1661.5 8.7364 1659.18 8.7364ZM1671.19 20.6084H1668.56V6.9164H1670.91L1671.16 8.7084C1671.86 7.4204 1673.32 6.5244 1675.25 6.5244C1677.38 6.5244 1678.89 7.5884 1679.59 9.2964C1680.24 7.5884 1681.89 6.5244 1684.02 6.5244C1687.15 6.5244 1689.06 8.4844 1689.06 11.6484V20.6084H1686.48V12.2924C1686.48 10.1364 1685.28 8.9044 1683.43 8.9044C1681.44 8.9044 1680.12 10.3044 1680.12 12.4884V20.6084H1677.52V12.2644C1677.52 10.1084 1676.34 8.9324 1674.5 8.9324C1672.51 8.9324 1671.19 10.3044 1671.19 12.4884V20.6084ZM1692.56 14.3644V12.0124H1701.1V14.3644H1692.56ZM1707.45 20.6084H1704.82V0.000396729H1707.45V20.6084ZM1717.23 20.9444C1713.2 20.9444 1710.43 18.0324 1710.43 13.7764C1710.43 9.4924 1713.15 6.5244 1717.12 6.5244C1721.01 6.5244 1723.56 9.2124 1723.56 13.2724V14.2524L1712.98 14.2804C1713.17 17.1644 1714.69 18.7604 1717.29 18.7604C1719.33 18.7604 1720.68 17.9204 1721.13 16.3524H1723.59C1722.92 19.2924 1720.62 20.9444 1717.23 20.9444ZM1717.12 8.7364C1714.83 8.7364 1713.37 10.1084 1713.03 12.5164H1720.93C1720.93 10.2484 1719.45 8.7364 1717.12 8.7364ZM1729.87 20.6084L1724.36 6.9164H1727.16L1730.15 14.5604C1730.63 15.8484 1731.02 16.9964 1731.24 17.8364C1731.47 16.9404 1731.92 15.7644 1732.39 14.5604L1735.44 6.9164H1738.19L1732.48 20.6084H1729.87ZM1745.56 20.9444C1741.53 20.9444 1738.76 18.0324 1738.76 13.7764C1738.76 9.4924 1741.47 6.5244 1745.45 6.5244C1749.34 6.5244 1751.89 9.2124 1751.89 13.2724V14.2524L1741.31 14.2804C1741.5 17.1644 1743.01 18.7604 1745.62 18.7604C1747.66 18.7604 1749.01 17.9204 1749.45 16.3524H1751.92C1751.25 19.2924 1748.95 20.9444 1745.56 20.9444ZM1745.45 8.7364C1743.15 8.7364 1741.7 10.1084 1741.36 12.5164H1749.26C1749.26 10.2484 1747.77 8.7364 1745.45 8.7364ZM1757.52 20.6084H1754.89V0.000396729H1757.52V20.6084ZM1770.34 3.6684C1769.38 3.6684 1768.6 2.8844 1768.6 1.9324C1768.6 0.952398 1769.38 0.196398 1770.34 0.196398C1771.29 0.196398 1772.07 0.952398 1772.07 1.9324C1772.07 2.8844 1771.29 3.6684 1770.34 3.6684ZM1769.05 20.6084V6.9164H1771.68V20.6084H1769.05ZM1778.13 20.6084H1775.5V6.9164H1777.88L1778.16 9.0164C1779.03 7.4484 1780.77 6.5244 1782.7 6.5244C1786.31 6.5244 1787.96 8.7364 1787.96 12.2364V20.6084H1785.33V12.8244C1785.33 10.0524 1784.04 8.9324 1782.03 8.9324C1779.56 8.9324 1778.13 10.6964 1778.13 13.3564V20.6084ZM1795.47 20.6084H1792.84V9.1284H1790.15V6.9164H1792.84V2.6324H1795.47V6.9164H1798.16V9.1284H1795.47V20.6084ZM1806.29 20.9444C1802.26 20.9444 1799.49 18.0324 1799.49 13.7764C1799.49 9.4924 1802.2 6.5244 1806.18 6.5244C1810.07 6.5244 1812.62 9.2124 1812.62 13.2724V14.2524L1802.04 14.2804C1802.23 17.1644 1803.74 18.7604 1806.35 18.7604C1808.39 18.7604 1809.74 17.9204 1810.18 16.3524H1812.65C1811.98 19.2924 1809.68 20.9444 1806.29 20.9444ZM1806.18 8.7364C1803.88 8.7364 1802.43 10.1084 1802.09 12.5164H1809.99C1809.99 10.2484 1808.5 8.7364 1806.18 8.7364ZM1823.4 6.8044V9.2124H1822.22C1819.73 9.2124 1818.19 10.7244 1818.19 13.3564V20.6084H1815.56V6.9444H1818.02L1818.19 9.0164C1818.75 7.5884 1820.12 6.6364 1822 6.6364C1822.48 6.6364 1822.87 6.6924 1823.4 6.8044ZM1824.96 6.9164H1826.98V4.7324C1826.98 1.3724 1828.82 0.000396729 1831.32 0.000396729C1831.82 0.000396729 1832.41 0.028398 1832.94 0.112397V2.3804H1831.76C1830.06 2.3804 1829.61 3.2484 1829.61 4.7324V6.9164H1832.86V9.1284H1829.61V20.6084H1826.98V9.1284H1824.96V6.9164ZM1838.87 20.9444C1835.93 20.9444 1834.19 19.2924 1834.19 16.8004C1834.19 14.2804 1836.07 12.7124 1839.29 12.4604L1843.6 12.1244V11.7324C1843.6 9.4364 1842.23 8.6244 1840.38 8.6244C1838.17 8.6244 1836.91 9.6044 1836.91 11.2564H1834.61C1834.61 8.4004 1836.96 6.5244 1840.49 6.5244C1843.88 6.5244 1846.18 8.3164 1846.18 12.0124V20.6084H1843.94L1843.66 18.3964C1842.96 19.9644 1841.08 20.9444 1838.87 20.9444ZM1839.62 18.9004C1842.12 18.9004 1843.63 17.2764 1843.63 14.7004V13.9724L1840.13 14.2524C1837.8 14.4764 1836.85 15.3724 1836.85 16.7164C1836.85 18.1724 1837.92 18.9004 1839.62 18.9004ZM1848.93 13.7764C1848.93 9.4924 1851.64 6.5244 1855.65 6.5244C1859.09 6.5244 1861.5 8.4844 1861.97 11.5364H1859.34C1858.89 9.8004 1857.49 8.8764 1855.73 8.8764C1853.24 8.8764 1851.53 10.7804 1851.53 13.7484C1851.53 16.6884 1853.13 18.5924 1855.62 18.5924C1857.49 18.5924 1858.89 17.6124 1859.37 15.9884H1862C1861.47 18.9564 1858.92 20.9444 1855.62 20.9444C1851.59 20.9444 1848.93 18.0884 1848.93 13.7764ZM1870.69 20.9444C1866.65 20.9444 1863.88 18.0324 1863.88 13.7764C1863.88 9.4924 1866.6 6.5244 1870.57 6.5244C1874.47 6.5244 1877.01 9.2124 1877.01 13.2724V14.2524L1866.43 14.2804C1866.63 17.1644 1868.14 18.7604 1870.74 18.7604C1872.79 18.7604 1874.13 17.9204 1874.58 16.3524H1877.04C1876.37 19.2924 1874.07 20.9444 1870.69 20.9444ZM1870.57 8.7364C1868.28 8.7364 1866.82 10.1084 1866.49 12.5164H1874.38C1874.38 10.2484 1872.9 8.7364 1870.57 8.7364ZM1878.83 16.6324H1881.35C1881.35 18.0324 1882.42 18.8724 1884.15 18.8724C1886 18.8724 1887.07 18.1164 1887.07 16.8564C1887.07 15.9324 1886.62 15.3724 1885.19 15.0084L1882.78 14.4484C1880.35 13.8604 1879.2 12.6564 1879.2 10.6404C1879.2 8.1204 1881.33 6.5244 1884.35 6.5244C1887.35 6.5244 1889.31 8.2044 1889.36 10.8084H1886.84C1886.79 9.4364 1885.86 8.5684 1884.27 8.5684C1882.61 8.5684 1881.69 9.2964 1881.69 10.5564C1881.69 11.4804 1882.36 12.0964 1883.71 12.4324L1886.11 13.0204C1888.44 13.5804 1889.59 14.6444 1889.59 16.6884C1889.59 19.2924 1887.35 20.9444 1884.1 20.9444C1880.88 20.9444 1878.83 19.2364 1878.83 16.6324ZM1894.3 20.9444C1893.21 20.9444 1892.29 20.0484 1892.29 18.9844C1892.29 17.8924 1893.21 16.9964 1894.3 16.9964C1895.37 16.9964 1896.29 17.8924 1896.29 18.9844C1896.29 20.0484 1895.37 20.9444 1894.3 20.9444Z" fill="black"/>
</svg>
