<svg width="205" height="64" viewBox="0 0 205 64" fill="none" xmlns="http://www.w3.org/2000/svg">
<path d="M10.0483 47.36H0.000266075V-1.52588e-05H10.0483L24.1283 35.328L38.2723 -1.52588e-05H48.4483V47.36H38.4003V37.44C38.4003 27.2 38.4003 24.96 38.9123 21.44L28.8643 47.36H19.3923L9.40827 21.44C9.98427 24.96 10.0483 28.928 10.0483 34.112V47.36ZM55.6888 31.296C55.6888 21.184 63.1128 14.4 73.3528 14.4C83.5288 14.4 90.9528 21.184 90.9528 31.296C90.9528 41.408 83.5288 48.128 73.3528 48.128C63.1128 48.128 55.6888 41.408 55.6888 31.296ZM65.6088 31.232C65.6088 36.096 68.7448 39.296 73.3528 39.296C77.8968 39.296 81.0328 36.096 81.0328 31.232C81.0328 26.432 77.8968 23.232 73.3528 23.232C68.7448 23.232 65.6088 26.432 65.6088 31.232ZM106.843 47.36H96.9868V15.36H106.267L106.907 18.688C108.891 15.936 112.539 14.336 116.699 14.336C124.315 14.336 128.731 19.2 128.731 27.584V47.36H118.875V29.952C118.875 25.92 116.635 23.296 113.243 23.296C109.339 23.296 106.843 25.856 106.843 29.824V47.36ZM150.967 48.192C141.303 48.192 134.391 41.152 134.391 31.296C134.391 21.312 141.111 14.336 150.775 14.336C160.823 14.336 167.095 20.928 167.095 31.36V33.856L143.863 33.984C144.439 38.208 146.807 40.192 151.159 40.192C154.871 40.192 157.495 38.848 158.199 36.544H167.223C166.071 43.648 159.735 48.192 150.967 48.192ZM150.839 22.336C146.935 22.336 144.759 24.064 143.991 27.904H157.303C157.303 24.512 154.807 22.336 150.839 22.336ZM169.442 62.72V54.464H174.882C178.21 54.464 179.618 53.44 180.898 49.984L181.474 48.448L168.61 15.36H179.17L186.146 35.904L193.89 15.36H204.13L187.874 54.336C185.186 60.864 181.602 63.616 175.97 63.616C173.602 63.616 171.362 63.296 169.442 62.72Z" fill="black"/>
</svg>
