<svg width="359" height="65" viewBox="0 0 359 65" fill="none" xmlns="http://www.w3.org/2000/svg">
<path d="M19.2 32.4479H10.368V48.1919H2.19345e-05V0.831894H19.2C28.864 0.831894 35.328 7.16789 35.328 16.6399C35.328 26.1119 28.864 32.4479 19.2 32.4479ZM16.896 10.0479H10.368V23.2319H16.896C21.888 23.2319 24.384 21.0559 24.384 16.6399C24.384 12.2239 21.888 10.0479 16.896 10.0479ZM62.995 16.1919V25.4719H59.859C54.227 25.4719 50.835 27.9679 50.835 34.3039V48.1919H40.979V16.2559H50.259L50.771 20.9919C52.115 17.8559 54.931 15.7439 59.219 15.7439C60.371 15.7439 61.651 15.8719 62.995 16.1919ZM65.6335 32.1279C65.6335 22.0159 73.0575 15.2319 83.2975 15.2319C93.4735 15.2319 100.898 22.0159 100.898 32.1279C100.898 42.2399 93.4735 48.9599 83.2975 48.9599C73.0575 48.9599 65.6335 42.2399 65.6335 32.1279ZM75.5535 32.0639C75.5535 36.9279 78.6895 40.1279 83.2975 40.1279C87.8415 40.1279 90.9775 36.9279 90.9775 32.0639C90.9775 27.2639 87.8415 24.0639 83.2975 24.0639C78.6895 24.0639 75.5535 27.2639 75.5535 32.0639ZM105.332 31.6159C105.332 21.8879 111.668 15.1039 120.692 15.1039C125.044 15.1039 128.5 16.7679 130.228 19.3919L130.74 16.1919H140.02V46.1439C140.02 57.5999 133.428 64.5119 122.484 64.5119C112.692 64.5119 106.1 58.9439 105.204 49.8559H115.188C115.38 53.4399 118.068 55.5519 122.42 55.5519C127.156 55.5519 130.164 52.7359 130.164 48.1919V44.0319C128.244 46.3359 124.66 47.8079 120.5 47.8079C111.54 47.8079 105.332 41.2159 105.332 31.6159ZM115.252 31.3599C115.252 35.9679 118.324 39.2319 122.676 39.2319C127.156 39.2319 130.164 36.0959 130.164 31.3599C130.164 26.6879 127.156 23.6799 122.612 23.6799C118.26 23.6799 115.252 26.8159 115.252 31.3599ZM169.768 16.1919V25.4719H166.632C161 25.4719 157.608 27.9679 157.608 34.3039V48.1919H147.752V16.2559H157.032L157.544 20.9919C158.888 17.8559 161.704 15.7439 165.992 15.7439C167.144 15.7439 168.424 15.8719 169.768 16.1919ZM183.486 49.0239C176.702 49.0239 172.478 45.0559 172.478 38.7839C172.478 32.8959 176.638 29.2479 184.318 28.6719L193.278 27.9679V27.4559C193.278 24.3199 191.358 22.6559 187.838 22.6559C183.678 22.6559 181.438 24.2559 181.438 27.1359H173.246C173.246 19.9039 179.198 15.1679 188.35 15.1679C197.63 15.1679 202.878 20.3519 202.878 29.5039V48.1919H194.174L193.534 43.9679C192.51 46.9119 188.286 49.0239 183.486 49.0239ZM186.942 41.7279C190.718 41.7279 193.342 39.8719 193.342 36.2239V34.4959L188.35 34.9439C184.062 35.3279 182.526 36.2879 182.526 38.3359C182.526 40.6399 183.934 41.7279 186.942 41.7279ZM220.123 48.1919H210.267V16.1919H219.483L220.123 19.5199C221.723 17.2799 224.859 15.1679 229.467 15.1679C234.267 15.1679 237.339 17.4079 239.195 20.7999C240.859 17.4079 244.635 15.1679 249.243 15.1679C257.499 15.1679 261.595 19.9679 261.595 27.2639V48.1919H251.739V30.0159C251.739 25.9839 249.627 24.0639 246.491 24.0639C243.675 24.0639 240.859 25.5999 240.859 31.0399V48.1919H231.003V30.0159C231.003 26.0479 228.955 24.1279 225.819 24.1279C223.003 24.1279 220.123 25.6639 220.123 31.0399V48.1919ZM273.826 11.1999C270.69 11.1999 268.194 8.70389 268.194 5.56789C268.194 2.43189 270.69 -0.000106812 273.826 -0.000106812C276.898 -0.000106812 279.394 2.43189 279.394 5.56789C279.394 8.70389 276.898 11.1999 273.826 11.1999ZM268.962 48.1919V16.1919H278.818V48.1919H268.962ZM296.388 48.1919H286.532V16.1919H295.812L296.452 19.5199C298.436 16.7679 302.084 15.1679 306.244 15.1679C313.86 15.1679 318.276 20.0319 318.276 28.4159V48.1919H308.42V30.7839C308.42 26.7519 306.18 24.1279 302.788 24.1279C298.884 24.1279 296.388 26.6879 296.388 30.6559V48.1919ZM324.064 31.6159C324.064 21.8879 330.4 15.1039 339.424 15.1039C343.776 15.1039 347.232 16.7679 348.96 19.3919L349.472 16.1919H358.752V46.1439C358.752 57.5999 352.16 64.5119 341.216 64.5119C331.424 64.5119 324.832 58.9439 323.936 49.8559H333.92C334.112 53.4399 336.8 55.5519 341.152 55.5519C345.888 55.5519 348.896 52.7359 348.896 48.1919V44.0319C346.976 46.3359 343.392 47.8079 339.232 47.8079C330.272 47.8079 324.064 41.2159 324.064 31.6159ZM333.984 31.3599C333.984 35.9679 337.056 39.2319 341.408 39.2319C345.888 39.2319 348.896 36.0959 348.896 31.3599C348.896 26.6879 345.888 23.6799 341.344 23.6799C336.992 23.6799 333.984 26.8159 333.984 31.3599Z" fill="black"/>
</svg>
