<svg width="156" height="64" viewBox="0 0 156 64" fill="none" xmlns="http://www.w3.org/2000/svg">
<path d="M0.703902 14.6559C0.703902 6.07986 7.9359 -0.000141144 18.1119 -0.000141144C28.2879 -0.000141144 34.6879 5.63186 34.6879 14.5919H24.3839C24.3839 11.2639 21.8879 9.21586 17.9839 9.21586C13.7599 9.21586 11.0719 11.1359 11.0719 14.2719C11.0719 17.1519 12.5439 18.5599 15.8719 19.2639L22.9759 20.7359C31.4239 22.4639 35.4559 26.4959 35.4559 33.9839C35.4559 43.1359 28.2879 49.0879 17.4079 49.0879C6.8479 49.0879 -9.76324e-05 43.3919 -9.76324e-05 34.4959H10.3039C10.3039 37.9519 12.8639 39.8719 17.4719 39.8719C22.1439 39.8719 25.0879 38.0159 25.0879 35.0079C25.0879 32.3839 23.8719 31.0399 20.7359 30.3999L13.5039 28.9279C5.0559 27.1999 0.703902 22.3999 0.703902 14.6559ZM51.2879 48.2559H41.4319V-0.000141144H51.3519V19.5839C53.3359 16.8319 56.9839 15.2319 61.1439 15.2319C68.7599 15.2319 73.1759 20.0959 73.1759 28.4799V48.2559H63.3199V30.8479C63.3199 26.8159 61.0799 24.1919 57.6879 24.1919C53.7839 24.1919 51.2879 26.7519 51.2879 30.7199V48.2559ZM78.8364 32.1919C78.8364 22.0799 86.2604 15.2959 96.5004 15.2959C106.676 15.2959 114.1 22.0799 114.1 32.1919C114.1 42.3039 106.676 49.0239 96.5004 49.0239C86.2604 49.0239 78.8364 42.3039 78.8364 32.1919ZM88.7564 32.1279C88.7564 36.9919 91.8924 40.1919 96.5004 40.1919C101.044 40.1919 104.18 36.9919 104.18 32.1279C104.18 27.3279 101.044 24.1279 96.5004 24.1279C91.8924 24.1279 88.7564 27.3279 88.7564 32.1279ZM120.134 63.6159V16.2559H129.414L129.926 20.1599C131.718 17.2159 135.75 15.2319 140.294 15.2319C149.19 15.2319 155.398 21.4399 155.398 31.7439C155.398 41.8559 149.894 49.1519 140.358 49.1519C135.942 49.1519 131.846 47.4879 129.99 45.0559V63.6159H120.134ZM130.054 32.2559C130.054 37.0559 133.254 40.2559 137.862 40.2559C142.534 40.2559 145.478 36.9919 145.478 32.2559C145.478 27.5199 142.534 24.2559 137.862 24.2559C133.254 24.2559 130.054 27.4559 130.054 32.2559Z" fill="black"/>
</svg>
