<svg width="262" height="50" viewBox="0 0 262 50" fill="none" xmlns="http://www.w3.org/2000/svg">
<path d="M14.208 48.2559L-6.67572e-06 0.895859H10.816L17.024 21.4399C17.856 24.2559 18.624 27.0719 19.392 31.7439C20.16 27.0719 20.928 24.3839 21.76 21.4399L27.584 0.895859H39.168L44.736 21.4399C45.504 24.3199 46.272 27.1999 47.104 31.7439C48.064 26.9439 48.768 24.3199 49.6 21.5679L55.936 0.895859H66.496L52.032 48.2559H41.92L33.28 17.1519L24.384 48.2559H14.208ZM81.2325 49.0879C71.5685 49.0879 64.6565 42.0479 64.6565 32.1919C64.6565 22.2079 71.3765 15.2319 81.0405 15.2319C91.0885 15.2319 97.3605 21.8239 97.3605 32.2559V34.7519L74.1285 34.8799C74.7045 39.1039 77.0725 41.0879 81.4245 41.0879C85.1365 41.0879 87.7605 39.7439 88.4645 37.4399H97.4885C96.3365 44.5439 90.0005 49.0879 81.2325 49.0879ZM81.1045 23.2319C77.2005 23.2319 75.0245 24.9599 74.2565 28.7999H87.5685C87.5685 25.4079 85.0725 23.2319 81.1045 23.2319ZM112.868 49.0879C106.084 49.0879 101.86 45.1199 101.86 38.8479C101.86 32.9599 106.02 29.3119 113.7 28.7359L122.66 28.0319V27.5199C122.66 24.3839 120.74 22.7199 117.22 22.7199C113.06 22.7199 110.82 24.3199 110.82 27.1999H102.628C102.628 19.9679 108.58 15.2319 117.732 15.2319C127.012 15.2319 132.26 20.4159 132.26 29.5679V48.2559H123.556L122.916 44.0319C121.892 46.9759 117.668 49.0879 112.868 49.0879ZM116.324 41.7919C120.1 41.7919 122.724 39.9359 122.724 36.2879V34.5599L117.732 35.0079C113.444 35.3919 111.908 36.3519 111.908 38.3999C111.908 40.7039 113.316 41.7919 116.324 41.7919ZM152.265 48.2559H142.409V24.4479H136.329V16.2559H142.409V6.33586H152.265V16.2559H158.345V24.4479H152.265V48.2559ZM172.95 48.2559H163.094V-0.000141144H173.014V19.5839C174.998 16.8319 178.646 15.2319 182.806 15.2319C190.422 15.2319 194.838 20.0959 194.838 28.4799V48.2559H184.982V30.8479C184.982 26.8159 182.742 24.1919 179.35 24.1919C175.446 24.1919 172.95 26.7519 172.95 30.7199V48.2559ZM217.075 49.0879C207.411 49.0879 200.499 42.0479 200.499 32.1919C200.499 22.2079 207.219 15.2319 216.883 15.2319C226.931 15.2319 233.203 21.8239 233.203 32.2559V34.7519L209.971 34.8799C210.547 39.1039 212.915 41.0879 217.267 41.0879C220.979 41.0879 223.603 39.7439 224.307 37.4399H233.331C232.179 44.5439 225.843 49.0879 217.075 49.0879ZM216.947 23.2319C213.043 23.2319 210.867 24.9599 210.099 28.7999H223.411C223.411 25.4079 220.915 23.2319 216.947 23.2319ZM261.375 16.2559V25.5359H258.239C252.607 25.5359 249.215 28.0319 249.215 34.3679V48.2559H239.359V16.3199H248.639L249.151 21.0559C250.495 17.9199 253.311 15.8079 257.599 15.8079C258.751 15.8079 260.031 15.9359 261.375 16.2559Z" fill="black"/>
</svg>
