<svg width="581" height="35" viewBox="0 0 581 35" fill="none" xmlns="http://www.w3.org/2000/svg">
<path opacity="0.5" d="M13.2476 26.7843C5.75957 26.7843 -0.000429586 20.9523 -0.000429586 13.3923C-0.000429586 5.86827 5.79557 0.0362723 13.2476 0.0362723C20.7356 0.0362723 26.5316 5.86827 26.5316 13.3923C26.5316 20.9523 20.7716 26.7843 13.2476 26.7843ZM13.2476 25.0203C19.7636 25.0203 24.6236 20.0163 24.6236 13.3923C24.6236 6.76827 19.7276 1.80027 13.2476 1.80027C6.80357 1.80027 1.90757 6.80427 1.90757 13.3923C1.90757 20.0163 6.76757 25.0203 13.2476 25.0203ZM6.65957 13.4643C6.65957 9.14427 9.46757 6.15627 13.5356 6.15627C16.6676 6.15627 19.0076 7.99227 19.5836 10.8363H17.3876C16.8836 9.03627 15.5516 8.10027 13.5716 8.10027C10.7276 8.10027 8.78357 10.2963 8.78357 13.4283C8.78357 16.5963 10.6556 18.7203 13.3916 18.7203C15.4436 18.7203 16.8836 17.7483 17.4596 16.0203H19.6196C18.9716 18.8283 16.4876 20.6643 13.3916 20.6643C9.43157 20.6643 6.65957 17.7123 6.65957 13.4643ZM56.5817 26.2803H39.5897V24.2283L47.8337 17.0283C52.5857 12.8883 53.8097 11.0883 53.8097 8.02827C53.8097 4.53627 51.7217 2.41227 48.3017 2.41227C44.7377 2.41227 42.3977 5.00427 42.2897 9.00027H39.6977C39.8417 3.60027 43.2617 0.0362723 48.3377 0.0362723C53.1977 0.0362723 56.4377 3.16827 56.4377 7.88427C56.4377 11.6283 54.7457 14.1123 49.5977 18.6123L43.5857 23.8683H56.5817V26.2803ZM60.1646 13.3923C60.1646 5.40027 64.0886 0.000272751 70.4966 0.000272751C76.8686 0.000272751 80.7926 5.40027 80.7926 13.3923C80.7926 21.4203 76.9406 26.7483 70.4966 26.7483C64.0166 26.7483 60.1646 21.4203 60.1646 13.3923ZM62.7206 13.3923C62.7206 20.0883 65.5646 24.4083 70.4966 24.4083C75.4286 24.4083 78.2726 20.0883 78.2726 13.3923C78.2726 6.66027 75.4286 2.37627 70.4966 2.37627C65.5646 2.37627 62.7206 6.66027 62.7206 13.3923ZM101.371 26.2803H84.3788V24.2283L92.6228 17.0283C97.3748 12.8883 98.5988 11.0883 98.5988 8.02827C98.5988 4.53627 96.5108 2.41227 93.0908 2.41227C89.5268 2.41227 87.1868 5.00427 87.0788 9.00027H84.4868C84.6308 3.60027 88.0508 0.0362723 93.1268 0.0362723C97.9868 0.0362723 101.227 3.16827 101.227 7.88427C101.227 11.6283 99.5348 14.1123 94.3868 18.6123L88.3748 23.8683H101.371V26.2803ZM113.203 26.7123C108.019 26.7123 104.707 23.4723 104.707 18.3963H107.299C107.299 22.1043 109.567 24.3363 113.239 24.3363C117.127 24.3363 119.647 21.7443 119.647 17.9283C119.647 14.3283 117.307 11.4843 113.239 11.4843C110.863 11.4843 108.703 12.5643 107.299 14.1123L105.247 13.4643L108.343 0.504273H120.799V2.88027H110.215L108.271 10.9803C109.711 9.82827 111.583 9.18027 113.599 9.18027C118.963 9.18027 122.275 13.0323 122.275 17.8563C122.275 23.0403 118.603 26.7123 113.203 26.7123ZM136.687 17.3163V0.504273H139.279V17.2083C139.279 21.7443 141.763 24.1923 146.263 24.1923C150.655 24.1923 153.139 21.6723 153.139 17.2083V0.504273H155.731V17.3163C155.731 23.1483 152.131 26.7123 146.263 26.7123C140.287 26.7123 136.687 23.1843 136.687 17.3163ZM161.972 26.2803H159.056L165.284 17.5683L159.092 8.85627H162.008L166.94 15.8403L171.836 8.85627H174.716L168.524 17.6043L174.68 26.2803H171.728L166.832 19.2963L161.972 26.2803ZM176.663 7.20027C176.663 2.88027 180.119 0.0362723 185.303 0.0362723C189.947 0.0362723 193.007 2.62827 193.403 6.94827H190.775C190.487 4.03227 188.507 2.37627 185.267 2.37627C181.631 2.37627 179.255 4.24827 179.255 7.16427C179.255 9.43227 180.587 10.8723 183.287 11.5563L187.715 12.6363C191.747 13.6083 193.835 15.9123 193.835 19.4043C193.835 23.8683 190.379 26.7123 185.051 26.7123C180.047 26.7123 176.663 24.0843 176.339 19.8723H179.003C179.147 22.5723 181.523 24.3363 185.051 24.3363C188.831 24.3363 191.243 22.5003 191.243 19.5483C191.243 17.2443 189.947 15.7323 187.175 15.0843L182.819 14.0043C178.787 13.0323 176.663 10.7283 176.663 7.20027ZM196.732 17.6043C196.732 12.1323 200.08 8.38827 205.156 8.38827C209.188 8.38827 212.14 10.7283 212.824 14.3283H210.34C209.692 11.9163 207.604 10.5843 205.192 10.5843C201.664 10.5843 199.18 13.2843 199.18 17.5683C199.18 21.7083 201.484 24.4803 205.012 24.4803C207.604 24.4803 209.692 23.0403 210.376 20.8083H212.896C212.068 24.3723 208.972 26.7123 205.012 26.7123C200.08 26.7123 196.732 23.0763 196.732 17.6043ZM228.899 8.85627H231.383V26.2803H229.223L228.899 23.3283C227.927 25.3443 225.515 26.7123 222.779 26.7123C218.675 26.7123 216.443 23.9043 216.443 19.6563V8.82027H218.963V18.8643C218.963 23.0043 220.799 24.4803 223.571 24.4803C226.919 24.4803 228.899 22.2483 228.899 18.1083V8.85627ZM239.15 26.2803H236.666V0.0362723H239.15V26.2803ZM244.433 33.8763V8.85627H246.593L246.845 12.3843C248.069 9.68427 250.517 8.38827 253.433 8.38827C258.473 8.38827 261.497 12.2403 261.497 17.4963C261.497 22.7523 258.581 26.7123 253.433 26.7123C250.481 26.7123 248.141 25.4523 246.917 22.9323V33.8763H244.433ZM246.953 17.5683C246.953 21.5643 249.185 24.4803 253.001 24.4803C256.781 24.4803 258.977 21.5643 258.977 17.5683C258.977 13.5363 256.781 10.6563 253.001 10.6563C249.185 10.6563 246.953 13.5363 246.953 17.5683ZM269.276 26.2803H266.828V10.9443H263.336V8.85627H266.828V3.34827H269.276V8.85627H272.768V10.9443H269.276V26.2803ZM277.037 26.6763C275.813 26.6763 274.769 25.6683 274.769 24.4803C274.769 23.2563 275.813 22.2123 277.037 22.2123C278.261 22.2123 279.305 23.2563 279.305 24.4803C279.305 25.6683 278.261 26.6763 277.037 26.6763ZM294.86 26.2803H292.232L301.7 0.504273H304.904L314.48 26.2803H311.78L309.26 19.4403H297.38L294.86 26.2803ZM302.96 4.14027L298.172 17.1723H308.432L303.608 4.14027C303.5 3.78027 303.32 3.34827 303.284 3.09627C303.248 3.31227 303.104 3.78027 302.96 4.14027ZM320.115 26.2803H317.631V0.0362723H320.115V26.2803ZM327.99 26.2803H325.506V0.0362723H327.99V26.2803ZM352.365 8.64027V10.8723H350.997C347.793 10.8723 345.741 13.0323 345.741 16.3443V26.2803H343.257V8.85627H345.597L345.777 11.5563C346.461 9.68427 348.297 8.46027 350.745 8.46027C351.285 8.46027 351.753 8.49627 352.365 8.64027ZM356.891 4.06827C355.883 4.06827 355.055 3.24027 355.055 2.23227C355.055 1.22427 355.883 0.360272 356.891 0.360272C357.899 0.360272 358.763 1.22427 358.763 2.23227C358.763 3.24027 357.899 4.06827 356.891 4.06827ZM355.667 26.2803V8.85627H358.151V26.2803H355.667ZM362.143 17.0643C362.143 12.3123 365.203 8.38827 370.315 8.38827C373.339 8.38827 375.643 9.79227 376.759 12.3483L377.011 8.85627H379.171V25.7403C379.171 30.9243 375.859 34.3083 370.747 34.3083C366.283 34.3083 363.151 31.7883 362.467 27.5763H364.951C365.491 30.3843 367.651 32.0403 370.783 32.0403C374.347 32.0403 376.723 29.6283 376.723 25.9923V21.8523C375.535 24.3003 373.123 25.7403 370.135 25.7403C365.167 25.7403 362.143 21.8163 362.143 17.0643ZM364.627 17.0283C364.627 20.5923 366.823 23.5083 370.495 23.5083C374.275 23.5083 376.507 20.7723 376.507 17.0283C376.507 13.3203 374.347 10.5843 370.531 10.5843C366.787 10.5843 364.627 13.5003 364.627 17.0283ZM386.839 26.2443H384.355V0.0362723H386.839V11.8803C387.955 9.79227 390.079 8.38827 392.995 8.38827C397.567 8.38827 399.619 11.2323 399.619 15.6243V26.2803H397.135V16.1643C397.135 12.0963 395.227 10.6563 392.527 10.6563C388.783 10.6563 386.839 13.4283 386.839 16.7763V26.2443ZM408.566 26.2803H406.118V10.9443H402.626V8.85627H406.118V3.34827H408.566V8.85627H412.058V10.9443H408.566V26.2803ZM413.816 21.3843H416.192C416.192 23.4003 417.704 24.6603 420.152 24.6603C422.852 24.6603 424.436 23.5083 424.436 21.6363C424.436 20.1963 423.716 19.3683 421.664 18.8643L418.676 18.1083C415.652 17.3523 414.176 15.7683 414.176 13.3923C414.176 10.3323 416.732 8.38827 420.476 8.38827C424.148 8.38827 426.524 10.4043 426.632 13.6443H424.22C424.148 11.6283 422.744 10.4403 420.404 10.4403C417.956 10.4403 416.588 11.4843 416.588 13.3563C416.588 14.6883 417.524 15.6243 419.432 16.0923L422.42 16.8483C425.444 17.6043 426.812 19.0083 426.812 21.5283C426.812 24.6603 424.148 26.7123 420.188 26.7123C416.264 26.7123 413.816 24.6243 413.816 21.3843ZM449.994 8.64027V10.8723H448.626C445.422 10.8723 443.37 13.0323 443.37 16.3443V26.2803H440.886V8.85627H443.226L443.406 11.5563C444.09 9.68427 445.926 8.46027 448.374 8.46027C448.914 8.46027 449.382 8.49627 449.994 8.64027ZM459.936 26.7123C454.824 26.7123 451.404 23.0403 451.404 17.5683C451.404 12.1323 454.788 8.38827 459.756 8.38827C464.472 8.38827 467.676 11.7363 467.676 16.6683V17.8923H453.816C453.996 22.1403 456.228 24.5883 459.972 24.5883C462.816 24.5883 464.652 23.3643 465.3 21.0603H467.676C466.74 24.7323 464.04 26.7123 459.936 26.7123ZM459.756 10.5123C456.48 10.5123 454.32 12.6723 453.888 16.0923H465.192C465.192 12.7443 463.032 10.5123 459.756 10.5123ZM470.172 21.3843H472.548C472.548 23.4003 474.06 24.6603 476.508 24.6603C479.208 24.6603 480.792 23.5083 480.792 21.6363C480.792 20.1963 480.072 19.3683 478.02 18.8643L475.032 18.1083C472.008 17.3523 470.532 15.7683 470.532 13.3923C470.532 10.3323 473.088 8.38827 476.832 8.38827C480.504 8.38827 482.88 10.4043 482.988 13.6443H480.576C480.504 11.6283 479.1 10.4403 476.76 10.4403C474.312 10.4403 472.944 11.4843 472.944 13.3563C472.944 14.6883 473.88 15.6243 475.788 16.0923L478.776 16.8483C481.8 17.6043 483.168 19.0083 483.168 21.5283C483.168 24.6603 480.504 26.7123 476.544 26.7123C472.62 26.7123 470.172 24.6243 470.172 21.3843ZM494.565 26.7123C489.453 26.7123 486.033 23.0403 486.033 17.5683C486.033 12.1323 489.417 8.38827 494.385 8.38827C499.101 8.38827 502.305 11.7363 502.305 16.6683V17.8923H488.445C488.625 22.1403 490.857 24.5883 494.601 24.5883C497.445 24.5883 499.281 23.3643 499.929 21.0603H502.305C501.369 24.7323 498.669 26.7123 494.565 26.7123ZM494.385 10.5123C491.109 10.5123 488.949 12.6723 488.517 16.0923H499.821C499.821 12.7443 497.661 10.5123 494.385 10.5123ZM515.385 8.64027V10.8723H514.017C510.813 10.8723 508.761 13.0323 508.761 16.3443V26.2803H506.277V8.85627H508.617L508.797 11.5563C509.481 9.68427 511.317 8.46027 513.765 8.46027C514.305 8.46027 514.773 8.49627 515.385 8.64027ZM524.074 26.2803L516.946 8.85627H519.61L524.11 20.0883C524.578 21.3483 525.046 22.5363 525.37 23.6883C525.694 22.5003 526.162 21.3483 526.666 20.0883L531.238 8.85627H533.794L526.558 26.2803H524.074ZM543.256 26.7123C538.144 26.7123 534.724 23.0403 534.724 17.5683C534.724 12.1323 538.108 8.38827 543.076 8.38827C547.792 8.38827 550.996 11.7363 550.996 16.6683V17.8923H537.136C537.316 22.1403 539.548 24.5883 543.292 24.5883C546.136 24.5883 547.972 23.3643 548.62 21.0603H550.996C550.06 24.7323 547.36 26.7123 543.256 26.7123ZM543.076 10.5123C539.8 10.5123 537.64 12.6723 537.208 16.0923H548.512C548.512 12.7443 546.352 10.5123 543.076 10.5123ZM561.808 26.7123C556.732 26.7123 553.744 22.8243 553.744 17.6043C553.744 12.3483 556.732 8.38827 561.916 8.38827C564.796 8.38827 567.1 9.64827 568.324 12.1683V0.0362723H570.808V26.2803H568.648L568.396 22.7163C567.172 25.4163 564.724 26.7123 561.808 26.7123ZM562.24 24.4443C566.056 24.4443 568.288 21.5643 568.288 17.5323C568.288 13.5363 566.056 10.6203 562.24 10.6203C558.46 10.6203 556.264 13.5363 556.264 17.5323C556.264 21.5643 558.46 24.4443 562.24 24.4443ZM578.115 26.6763C576.891 26.6763 575.847 25.6683 575.847 24.4803C575.847 23.2563 576.891 22.2123 578.115 22.2123C579.339 22.2123 580.383 23.2563 580.383 24.4803C580.383 25.6683 579.339 26.6763 578.115 26.6763Z" fill="black"/>
</svg>
