<svg width="581" height="35" viewBox="0 0 581 35" fill="none" xmlns="http://www.w3.org/2000/svg">
<path opacity="0.5" d="M13.2481 26.7843C5.76006 26.7843 5.86957e-05 20.9523 5.86957e-05 13.3923C5.86957e-05 5.86827 5.79606 0.0362723 13.2481 0.0362723C20.7361 0.0362723 26.5321 5.86827 26.5321 13.3923C26.5321 20.9523 20.7721 26.7843 13.2481 26.7843ZM13.2481 25.0203C19.7641 25.0203 24.6241 20.0163 24.6241 13.3923C24.6241 6.76827 19.7281 1.80027 13.2481 1.80027C6.80406 1.80027 1.90806 6.80427 1.90806 13.3923C1.90806 20.0163 6.76806 25.0203 13.2481 25.0203ZM6.66006 13.4643C6.66006 9.14427 9.46806 6.15627 13.5361 6.15627C16.6681 6.15627 19.0081 7.99227 19.5841 10.8363H17.3881C16.8841 9.03627 15.5521 8.10027 13.5721 8.10027C10.7281 8.10027 8.78406 10.2963 8.78406 13.4283C8.78406 16.5963 10.6561 18.7203 13.3921 18.7203C15.4441 18.7203 16.8841 17.7483 17.4601 16.0203H19.6201C18.9721 18.8283 16.4881 20.6643 13.3921 20.6643C9.43206 20.6643 6.66006 17.7123 6.66006 13.4643ZM56.5822 26.2803H39.5902V24.2283L47.8342 17.0283C52.5862 12.8883 53.8102 11.0883 53.8102 8.02827C53.8102 4.53627 51.7222 2.41227 48.3022 2.41227C44.7382 2.41227 42.3982 5.00427 42.2902 9.00027H39.6982C39.8422 3.60027 43.2622 0.0362723 48.3382 0.0362723C53.1982 0.0362723 56.4382 3.16827 56.4382 7.88427C56.4382 11.6283 54.7462 14.1123 49.5982 18.6123L43.5862 23.8683H56.5822V26.2803ZM60.1651 13.3923C60.1651 5.40027 64.0891 0.000272751 70.4971 0.000272751C76.8691 0.000272751 80.7931 5.40027 80.7931 13.3923C80.7931 21.4203 76.9411 26.7483 70.4971 26.7483C64.0171 26.7483 60.1651 21.4203 60.1651 13.3923ZM62.7211 13.3923C62.7211 20.0883 65.5651 24.4083 70.4971 24.4083C75.4291 24.4083 78.2731 20.0883 78.2731 13.3923C78.2731 6.66027 75.4291 2.37627 70.4971 2.37627C65.5651 2.37627 62.7211 6.66027 62.7211 13.3923ZM101.371 26.2803H84.3793V24.2283L92.6233 17.0283C97.3753 12.8883 98.5993 11.0883 98.5993 8.02827C98.5993 4.53627 96.5113 2.41227 93.0913 2.41227C89.5273 2.41227 87.1873 5.00427 87.0793 9.00027H84.4873C84.6313 3.60027 88.0513 0.0362723 93.1273 0.0362723C97.9873 0.0362723 101.227 3.16827 101.227 7.88427C101.227 11.6283 99.5353 14.1123 94.3873 18.6123L88.3753 23.8683H101.371V26.2803ZM113.203 26.7123C108.019 26.7123 104.707 23.4723 104.707 18.3963H107.299C107.299 22.1043 109.567 24.3363 113.239 24.3363C117.127 24.3363 119.647 21.7443 119.647 17.9283C119.647 14.3283 117.307 11.4843 113.239 11.4843C110.863 11.4843 108.703 12.5643 107.299 14.1123L105.247 13.4643L108.343 0.504273H120.799V2.88027H110.215L108.271 10.9803C109.711 9.82827 111.583 9.18027 113.599 9.18027C118.963 9.18027 122.275 13.0323 122.275 17.8563C122.275 23.0403 118.603 26.7123 113.203 26.7123ZM136.688 17.3163V0.504273H139.28V17.2083C139.28 21.7443 141.764 24.1923 146.264 24.1923C150.656 24.1923 153.14 21.6723 153.14 17.2083V0.504273H155.732V17.3163C155.732 23.1483 152.132 26.7123 146.264 26.7123C140.288 26.7123 136.688 23.1843 136.688 17.3163ZM161.973 26.2803H159.057L165.285 17.5683L159.093 8.85627H162.009L166.941 15.8403L171.837 8.85627H174.717L168.525 17.6043L174.681 26.2803H171.729L166.833 19.2963L161.973 26.2803ZM176.664 7.20027C176.664 2.88027 180.12 0.0362723 185.304 0.0362723C189.948 0.0362723 193.008 2.62827 193.404 6.94827H190.776C190.488 4.03227 188.508 2.37627 185.268 2.37627C181.632 2.37627 179.256 4.24827 179.256 7.16427C179.256 9.43227 180.588 10.8723 183.288 11.5563L187.716 12.6363C191.748 13.6083 193.836 15.9123 193.836 19.4043C193.836 23.8683 190.38 26.7123 185.052 26.7123C180.048 26.7123 176.664 24.0843 176.34 19.8723H179.004C179.148 22.5723 181.524 24.3363 185.052 24.3363C188.832 24.3363 191.244 22.5003 191.244 19.5483C191.244 17.2443 189.948 15.7323 187.176 15.0843L182.82 14.0043C178.788 13.0323 176.664 10.7283 176.664 7.20027ZM196.733 17.6043C196.733 12.1323 200.081 8.38827 205.157 8.38827C209.189 8.38827 212.141 10.7283 212.825 14.3283H210.341C209.693 11.9163 207.605 10.5843 205.193 10.5843C201.665 10.5843 199.181 13.2843 199.181 17.5683C199.181 21.7083 201.485 24.4803 205.013 24.4803C207.605 24.4803 209.693 23.0403 210.377 20.8083H212.897C212.069 24.3723 208.973 26.7123 205.013 26.7123C200.081 26.7123 196.733 23.0763 196.733 17.6043ZM228.9 8.85627H231.384V26.2803H229.224L228.9 23.3283C227.928 25.3443 225.516 26.7123 222.78 26.7123C218.676 26.7123 216.444 23.9043 216.444 19.6563V8.82027H218.964V18.8643C218.964 23.0043 220.8 24.4803 223.572 24.4803C226.92 24.4803 228.9 22.2483 228.9 18.1083V8.85627ZM239.15 26.2803H236.666V0.0362723H239.15V26.2803ZM244.433 33.8763V8.85627H246.593L246.845 12.3843C248.069 9.68427 250.517 8.38827 253.433 8.38827C258.473 8.38827 261.497 12.2403 261.497 17.4963C261.497 22.7523 258.581 26.7123 253.433 26.7123C250.481 26.7123 248.141 25.4523 246.917 22.9323V33.8763H244.433ZM246.953 17.5683C246.953 21.5643 249.185 24.4803 253.001 24.4803C256.781 24.4803 258.977 21.5643 258.977 17.5683C258.977 13.5363 256.781 10.6563 253.001 10.6563C249.185 10.6563 246.953 13.5363 246.953 17.5683ZM269.277 26.2803H266.829V10.9443H263.337V8.85627H266.829V3.34827H269.277V8.85627H272.769V10.9443H269.277V26.2803ZM277.038 26.6763C275.814 26.6763 274.77 25.6683 274.77 24.4803C274.77 23.2563 275.814 22.2123 277.038 22.2123C278.262 22.2123 279.306 23.2563 279.306 24.4803C279.306 25.6683 278.262 26.6763 277.038 26.6763ZM294.86 26.2803H292.232L301.7 0.504273H304.904L314.48 26.2803H311.78L309.26 19.4403H297.38L294.86 26.2803ZM302.96 4.14027L298.172 17.1723H308.432L303.608 4.14027C303.5 3.78027 303.32 3.34827 303.284 3.09627C303.248 3.31227 303.104 3.78027 302.96 4.14027ZM320.115 26.2803H317.631V0.0362723H320.115V26.2803ZM327.99 26.2803H325.506V0.0362723H327.99V26.2803ZM352.366 8.64027V10.8723H350.998C347.794 10.8723 345.742 13.0323 345.742 16.3443V26.2803H343.258V8.85627H345.598L345.778 11.5563C346.462 9.68427 348.298 8.46027 350.746 8.46027C351.286 8.46027 351.754 8.49627 352.366 8.64027ZM356.892 4.06827C355.884 4.06827 355.056 3.24027 355.056 2.23227C355.056 1.22427 355.884 0.360272 356.892 0.360272C357.9 0.360272 358.764 1.22427 358.764 2.23227C358.764 3.24027 357.9 4.06827 356.892 4.06827ZM355.668 26.2803V8.85627H358.152V26.2803H355.668ZM362.144 17.0643C362.144 12.3123 365.204 8.38827 370.316 8.38827C373.34 8.38827 375.644 9.79227 376.76 12.3483L377.012 8.85627H379.172V25.7403C379.172 30.9243 375.86 34.3083 370.748 34.3083C366.284 34.3083 363.152 31.7883 362.468 27.5763H364.952C365.492 30.3843 367.652 32.0403 370.784 32.0403C374.348 32.0403 376.724 29.6283 376.724 25.9923V21.8523C375.536 24.3003 373.124 25.7403 370.136 25.7403C365.168 25.7403 362.144 21.8163 362.144 17.0643ZM364.628 17.0283C364.628 20.5923 366.824 23.5083 370.496 23.5083C374.276 23.5083 376.508 20.7723 376.508 17.0283C376.508 13.3203 374.348 10.5843 370.532 10.5843C366.788 10.5843 364.628 13.5003 364.628 17.0283ZM386.839 26.2443H384.355V0.0362723H386.839V11.8803C387.955 9.79227 390.079 8.38827 392.995 8.38827C397.567 8.38827 399.619 11.2323 399.619 15.6243V26.2803H397.135V16.1643C397.135 12.0963 395.227 10.6563 392.527 10.6563C388.783 10.6563 386.839 13.4283 386.839 16.7763V26.2443ZM408.566 26.2803H406.118V10.9443H402.626V8.85627H406.118V3.34827H408.566V8.85627H412.058V10.9443H408.566V26.2803ZM413.817 21.3843H416.193C416.193 23.4003 417.705 24.6603 420.153 24.6603C422.853 24.6603 424.437 23.5083 424.437 21.6363C424.437 20.1963 423.717 19.3683 421.665 18.8643L418.677 18.1083C415.653 17.3523 414.177 15.7683 414.177 13.3923C414.177 10.3323 416.733 8.38827 420.477 8.38827C424.149 8.38827 426.525 10.4043 426.633 13.6443H424.221C424.149 11.6283 422.745 10.4403 420.405 10.4403C417.957 10.4403 416.589 11.4843 416.589 13.3563C416.589 14.6883 417.525 15.6243 419.433 16.0923L422.421 16.8483C425.445 17.6043 426.813 19.0083 426.813 21.5283C426.813 24.6603 424.149 26.7123 420.189 26.7123C416.265 26.7123 413.817 24.6243 413.817 21.3843ZM449.994 8.64027V10.8723H448.626C445.422 10.8723 443.37 13.0323 443.37 16.3443V26.2803H440.886V8.85627H443.226L443.406 11.5563C444.09 9.68427 445.926 8.46027 448.374 8.46027C448.914 8.46027 449.382 8.49627 449.994 8.64027ZM459.937 26.7123C454.825 26.7123 451.405 23.0403 451.405 17.5683C451.405 12.1323 454.789 8.38827 459.757 8.38827C464.473 8.38827 467.677 11.7363 467.677 16.6683V17.8923H453.817C453.997 22.1403 456.229 24.5883 459.973 24.5883C462.817 24.5883 464.653 23.3643 465.301 21.0603H467.677C466.741 24.7323 464.041 26.7123 459.937 26.7123ZM459.757 10.5123C456.481 10.5123 454.321 12.6723 453.889 16.0923H465.193C465.193 12.7443 463.033 10.5123 459.757 10.5123ZM470.172 21.3843H472.548C472.548 23.4003 474.06 24.6603 476.508 24.6603C479.208 24.6603 480.792 23.5083 480.792 21.6363C480.792 20.1963 480.072 19.3683 478.02 18.8643L475.032 18.1083C472.008 17.3523 470.532 15.7683 470.532 13.3923C470.532 10.3323 473.088 8.38827 476.832 8.38827C480.504 8.38827 482.88 10.4043 482.988 13.6443H480.576C480.504 11.6283 479.1 10.4403 476.76 10.4403C474.312 10.4403 472.944 11.4843 472.944 13.3563C472.944 14.6883 473.88 15.6243 475.788 16.0923L478.776 16.8483C481.8 17.6043 483.168 19.0083 483.168 21.5283C483.168 24.6603 480.504 26.7123 476.544 26.7123C472.62 26.7123 470.172 24.6243 470.172 21.3843ZM494.566 26.7123C489.454 26.7123 486.034 23.0403 486.034 17.5683C486.034 12.1323 489.418 8.38827 494.386 8.38827C499.102 8.38827 502.306 11.7363 502.306 16.6683V17.8923H488.446C488.626 22.1403 490.858 24.5883 494.602 24.5883C497.446 24.5883 499.282 23.3643 499.93 21.0603H502.306C501.37 24.7323 498.67 26.7123 494.566 26.7123ZM494.386 10.5123C491.11 10.5123 488.95 12.6723 488.518 16.0923H499.822C499.822 12.7443 497.662 10.5123 494.386 10.5123ZM515.385 8.64027V10.8723H514.017C510.813 10.8723 508.761 13.0323 508.761 16.3443V26.2803H506.277V8.85627H508.617L508.797 11.5563C509.481 9.68427 511.317 8.46027 513.765 8.46027C514.305 8.46027 514.773 8.49627 515.385 8.64027ZM524.075 26.2803L516.947 8.85627H519.611L524.111 20.0883C524.579 21.3483 525.047 22.5363 525.371 23.6883C525.695 22.5003 526.163 21.3483 526.667 20.0883L531.239 8.85627H533.795L526.559 26.2803H524.075ZM543.257 26.7123C538.145 26.7123 534.725 23.0403 534.725 17.5683C534.725 12.1323 538.109 8.38827 543.077 8.38827C547.793 8.38827 550.997 11.7363 550.997 16.6683V17.8923H537.137C537.317 22.1403 539.549 24.5883 543.293 24.5883C546.137 24.5883 547.973 23.3643 548.621 21.0603H550.997C550.061 24.7323 547.361 26.7123 543.257 26.7123ZM543.077 10.5123C539.801 10.5123 537.641 12.6723 537.209 16.0923H548.513C548.513 12.7443 546.353 10.5123 543.077 10.5123ZM561.808 26.7123C556.732 26.7123 553.744 22.8243 553.744 17.6043C553.744 12.3483 556.732 8.38827 561.916 8.38827C564.796 8.38827 567.1 9.64827 568.324 12.1683V0.0362723H570.808V26.2803H568.648L568.396 22.7163C567.172 25.4163 564.724 26.7123 561.808 26.7123ZM562.24 24.4443C566.056 24.4443 568.288 21.5643 568.288 17.5323C568.288 13.5363 566.056 10.6203 562.24 10.6203C558.46 10.6203 556.264 13.5363 556.264 17.5323C556.264 21.5643 558.46 24.4443 562.24 24.4443ZM578.116 26.6763C576.892 26.6763 575.848 25.6683 575.848 24.4803C575.848 23.2563 576.892 22.2123 578.116 22.2123C579.34 22.2123 580.384 23.2563 580.384 24.4803C580.384 25.6683 579.34 26.6763 578.116 26.6763Z" fill="black"/>
</svg>
