<svg width="53" height="53" viewBox="0 0 53 53" fill="none" xmlns="http://www.w3.org/2000/svg">
<path d="M37.3081 19.3404C40.5654 21.6772 44.5559 23.0521 48.8658 23.0521V14.729C48.0502 14.7292 47.2366 14.6439 46.4386 14.4742V21.0256C42.129 21.0256 38.1391 19.6507 34.8808 17.3141V34.2991C34.8808 42.7958 28.0174 49.6833 19.5513 49.6833C16.3924 49.6833 13.4564 48.7249 11.0174 47.0812C13.8011 49.9376 17.6832 51.7096 21.978 51.7096C30.4446 51.7096 37.3084 44.8221 37.3084 36.325V19.3404H37.3081ZM40.3023 10.9434C38.6376 9.11826 37.5446 6.75956 37.3081 4.15192V3.08139H35.0079C35.5869 6.39571 37.5617 9.22726 40.3023 10.9434ZM16.3722 40.5611C15.4421 39.3372 14.9395 37.8401 14.9417 36.3007C14.9417 32.4146 18.081 29.2637 21.9541 29.2637C22.6759 29.2635 23.3934 29.3745 24.0813 29.5935V21.0844C23.2774 20.9738 22.4661 20.9269 21.6551 20.9441V27.5672C20.9667 27.3481 20.2489 27.2369 19.5269 27.2376C15.6538 27.2376 12.5147 30.3881 12.5147 34.2747C12.5147 37.0229 14.0838 39.4021 16.3722 40.5611Z" fill="white"/>
<path d="M34.8807 17.3139C38.139 19.6505 42.1289 21.0255 46.4385 21.0255V14.474C44.0329 13.9598 41.9034 12.6982 40.3022 10.9434C37.5614 9.22709 35.5868 6.39553 35.0078 3.08139H28.966V36.3247C28.9524 40.2002 25.8184 43.3382 21.9537 43.3382C19.6762 43.3382 17.6529 42.2487 16.3716 40.5611C14.0834 39.4021 12.5142 37.0227 12.5142 34.2749C12.5142 30.3887 15.6534 27.2377 19.5265 27.2377C20.2685 27.2377 20.9837 27.3537 21.6547 27.5674V20.9443C13.3373 21.1167 6.64819 27.9369 6.64819 36.3249C6.64819 40.5121 8.31394 44.3079 11.0175 47.0814C13.4565 48.7249 16.3925 49.6835 19.5514 49.6835C28.0176 49.6835 34.8809 42.7957 34.8809 34.2991V17.3139H34.8807Z" fill="white"/>
<path d="M46.4385 14.4741V12.7026C44.2693 12.7059 42.1427 12.0962 40.3022 10.9433C41.9314 12.7334 44.0768 13.9677 46.4385 14.4741ZM35.0079 3.08144C34.9526 2.7647 34.9102 2.44587 34.8808 2.12582V1.0553H26.5387V34.299C26.5254 38.1739 23.3916 41.312 19.5265 41.312C18.3917 41.312 17.3204 41.0416 16.3716 40.5613C17.653 42.2488 19.6763 43.3381 21.9537 43.3381C25.8181 43.3381 28.9526 40.2004 28.9661 36.3249V3.08144H35.0079ZM21.655 20.9443V19.0585C20.958 18.9629 20.2552 18.9149 19.5516 18.9152C11.0847 18.9151 4.22119 25.8029 4.22119 34.299C4.22119 39.6255 6.91866 44.3198 11.0177 47.0811C8.31415 44.3078 6.6484 40.5118 6.6484 36.3247C6.6484 27.937 13.3374 21.1168 21.655 20.9443Z" fill="white"/>
</svg>
