<svg width="53" height="53" viewBox="0 0 53 53" fill="none" xmlns="http://www.w3.org/2000/svg">
<path d="M42.9003 0.9313C38.4532 -0.749958 32.879 -0.243213 29.3697 3.17614C26.0735 6.35869 25.0553 11.2083 25.4057 15.6364C25.7562 22.0773 29.1661 28.5324 35.0102 31.5634C32.628 36.2567 29.6349 40.6706 25.9125 44.4072C21.7827 39.4676 18.5623 33.7845 16.4122 27.7178C14.1152 21.3479 12.8602 14.6608 12.0172 7.95943C9.01464 7.93575 6.00732 7.95943 3 7.94996V8.30989C4.34974 17.8149 6.45723 27.32 10.4923 36.0767C12.9928 41.4425 16.1754 46.6331 20.6698 50.5639C22.1048 51.7479 23.7292 53.055 25.6946 52.9982C27.8874 52.8751 29.5118 51.227 31.051 49.8488C35.9669 45.1129 40.1203 39.5481 43.1276 33.4104C45.5176 33.3419 47.9519 33.075 50.2828 32.4674C50.712 32.3556 51.0036 31.9631 51.0036 31.5196V27.2872C51.0036 26.6028 50.3306 26.12 49.6664 26.2849C48.4895 26.5772 47.2802 26.7424 46.0639 26.7706C42.7487 26.9221 39.301 25.7571 37.0277 23.2897C34.3046 20.3771 33.4284 16.1384 33.8783 12.2691C34.0962 10.6921 34.7071 8.89715 36.2842 8.21991C37.7334 7.55688 39.5283 8.31463 40.1487 9.75909C41.5079 12.8327 40.7075 16.2852 39.9403 19.4015C41.3706 22.0062 44.9225 22.5651 47.622 21.9636C49.4264 17.6065 50.0042 12.6528 48.8676 8.04942C48.1051 4.92843 45.9455 2.10108 42.9003 0.9313Z" fill="white"/>
</svg>
