<svg width="58" height="40" viewBox="0 0 58 40" fill="none" xmlns="http://www.w3.org/2000/svg">
<rect x="0.5" y="0.5" width="57" height="39" rx="5.5" fill="white"/>
<rect x="0.5" y="0.5" width="57" height="39" rx="5.5" stroke="#F2F4F7"/>
<path d="M9.03775 15.0195C9.72044 15.0195 10.6119 15.2101 11.1481 15.7529C11.7776 16.3725 11.7734 17.184 11.7692 18.0703C11.7688 18.1434 11.7682 18.217 11.7682 18.291V20.5859C11.7682 21.2041 11.9866 21.512 12.2165 21.8359C12.2437 21.8743 12.2713 21.9128 12.2985 21.9521C12.3879 22.0826 12.4077 22.2459 12.2985 22.3438C12.0119 22.5955 11.5036 23.0599 11.2243 23.3223L11.2126 23.3203C11.1204 23.4042 10.9878 23.4182 10.8815 23.3555C10.4843 23.0081 10.3642 22.8196 10.1803 22.5312C10.1488 22.4818 10.1148 22.4297 10.0778 22.373C9.30717 23.1974 8.76186 23.4443 7.76529 23.4443C6.58501 23.4442 5.66666 22.6773 5.66666 21.1455C5.66682 19.9493 6.28728 19.1366 7.15591 18.7373C7.79751 18.4413 8.65409 18.349 9.3942 18.2695C9.5317 18.2548 9.66526 18.2407 9.79263 18.2256V18.0352C9.79263 17.9988 9.79333 17.9614 9.79361 17.9238C9.79606 17.5991 9.79844 17.2373 9.62271 16.9648C9.45139 16.6935 9.126 16.583 8.8356 16.583C8.30062 16.583 7.82435 16.8714 7.70767 17.4678C7.69281 17.6068 7.59023 17.7183 7.45865 17.7393L6.11099 17.584C6.04373 17.5739 5.98341 17.5348 5.944 17.4766C5.90463 17.4184 5.89007 17.3455 5.90298 17.2754C6.21469 15.5429 7.70354 15.0196 9.03775 15.0195ZM27.4157 15.0146C28.0971 15.0146 28.9886 15.2052 29.526 15.748C30.1568 16.3644 30.153 17.169 30.1481 18.0508C30.1477 18.1285 30.1471 18.2073 30.1471 18.2861V20.582C30.1471 21.1987 30.3647 21.5064 30.5944 21.8301C30.6217 21.8686 30.6491 21.9078 30.6764 21.9473C30.7708 22.083 30.791 22.242 30.6706 22.332C30.3838 22.5839 29.8746 23.0496 29.5954 23.3105C29.5025 23.3935 29.3706 23.4073 29.2643 23.3447C28.8655 22.9959 28.7477 22.8106 28.5612 22.5186C28.53 22.4698 28.4962 22.4183 28.4596 22.3623C27.6903 23.1867 27.1418 23.4335 26.1491 23.4336C24.9686 23.4336 24.0495 22.6673 24.0495 21.1367C24.0495 19.9389 24.6668 19.1258 25.5456 18.7266C26.1885 18.4295 27.0494 18.3386 27.7917 18.2598C27.9263 18.2455 28.0574 18.2314 28.1823 18.2168V17.9199C28.1847 17.595 28.1874 17.2325 28.0104 16.9609C27.844 16.6898 27.5124 16.5771 27.2233 16.5771C26.6886 16.5773 26.2143 16.866 26.0963 17.4619C26.0811 17.6008 25.9797 17.712 25.8483 17.7334L24.4889 17.5801C24.4213 17.5703 24.3606 17.5311 24.321 17.4727C24.2813 17.4141 24.2657 17.341 24.279 17.2705C24.5917 15.5365 26.0814 15.0148 27.4157 15.0146ZM40.9655 15.0107C43.0471 15.0107 44.1735 16.8894 44.1735 19.2773C44.1735 21.5857 42.9316 23.416 40.9655 23.416C38.9239 23.4159 37.8113 21.5376 37.8112 19.1982C37.8112 16.8587 38.9374 15.0109 40.9655 15.0107ZM20.5397 15.0371C21.2787 14.9168 22.0228 15.2247 22.485 15.8428C22.9305 16.4795 22.8386 17.4086 22.8385 18.2148V22.9902C22.8371 23.064 22.8072 23.1345 22.7565 23.1855C22.7058 23.2364 22.6381 23.2643 22.568 23.2627H21.1667C21.0288 23.2551 20.9195 23.1363 20.9176 22.9912V18.9795C20.9177 18.6609 20.9443 17.8651 20.8786 17.5625C20.7743 17.0539 20.4601 16.9102 20.0544 16.9102C19.6823 16.9221 19.3528 17.1662 19.2165 17.5303C19.1085 17.8181 19.0879 18.2475 19.0846 18.626V22.9902C19.0832 23.0638 19.054 23.1335 19.0036 23.1846C18.9531 23.2357 18.8852 23.264 18.8151 23.2627H17.4098C17.2725 23.2542 17.1642 23.1358 17.1618 22.9912V18.9795C17.1618 18.1352 17.2855 16.8916 16.2926 16.8916C15.3003 16.892 15.3249 18.1015 15.3249 18.9795V22.9902C15.3234 23.064 15.2945 23.1345 15.2438 23.1855C15.193 23.2367 15.1247 23.2644 15.0544 23.2627H13.652C13.5221 23.2555 13.4159 23.1497 13.403 23.0137V15.4453C13.4077 15.2937 13.5272 15.1733 13.6715 15.1748H14.9782C15.112 15.1826 15.2197 15.2949 15.2272 15.4355V16.4238H15.2526C15.5926 15.4675 16.2346 15.0226 17.0983 15.0225C17.9622 15.0225 18.5251 15.4674 18.9186 16.4238C19.1813 15.6878 19.8008 15.1575 20.5397 15.0371ZM48.9967 15C49.6248 15 50.2375 15.2392 50.6335 15.8916C50.9996 16.4971 50.9997 17.5161 50.9997 18.248V23.0098C50.979 23.1483 50.8645 23.2497 50.7311 23.2471H49.321C49.1946 23.2413 49.0894 23.1414 49.0719 23.0098V18.2324C49.0523 17.543 48.9217 16.8625 48.195 16.8623C47.835 16.8798 47.5171 17.1164 47.3825 17.4678C47.1865 17.9296 47.1608 18.3919 47.1608 18.9033V22.9756C47.1553 23.1291 47.0335 23.25 46.8874 23.2471H45.4889C45.3511 23.2395 45.2427 23.1206 45.2409 22.9756V15.4072C45.2557 15.2637 45.3722 15.1559 45.5094 15.1592H46.8112C46.9293 15.1634 47.0308 15.2495 47.0592 15.3701V16.5283H47.0866C47.4788 15.4936 48.0285 15 48.9967 15ZM36.734 15.1465C36.8041 15.144 36.8724 15.1712 36.9225 15.2227C36.9727 15.2742 37.0004 15.3452 36.9997 15.4189V16.3467C36.9996 16.5019 36.876 16.7056 36.654 17.0264L34.2653 20.6094C35.1515 20.5872 36.0887 20.7269 36.8942 21.2031C37.043 21.2865 37.1375 21.4478 37.1422 21.625V22.7832C37.1422 22.9424 36.9774 23.1265 36.8024 23.0312C35.2736 22.2053 33.4592 22.2093 31.9333 23.041C31.7731 23.1311 31.6051 22.9492 31.6051 22.79V21.6875C31.5905 21.4276 31.6507 21.1693 31.777 20.9453L34.5436 16.7695H32.1305C32.0602 16.7724 31.9915 16.7449 31.9411 16.6934C31.8907 16.6419 31.8633 16.5709 31.8639 16.4971V15.4189C31.8606 15.3452 31.8872 15.2737 31.9372 15.2217C31.9871 15.1697 32.0555 15.1423 32.1256 15.1465H36.734ZM9.79849 19.4092C8.78454 19.4092 7.71367 19.6376 7.71353 20.8926C7.71353 21.532 8.02763 21.9629 8.56509 21.9629C8.95977 21.9628 9.31337 21.7069 9.53677 21.292C9.79959 20.8007 9.79899 20.3405 9.79849 19.7979V19.4092ZM28.1842 19.4023C27.1702 19.4024 26.0993 19.6302 26.0993 20.8867C26.0994 21.5246 26.4135 21.9551 26.9508 21.9551C27.3442 21.955 27.6994 21.6987 27.9215 21.2852C28.1851 20.7912 28.1846 20.3287 28.1842 19.7793V19.4023ZM40.9792 16.5557C39.9453 16.5558 39.8795 18.0352 39.8795 18.959C39.8795 18.969 39.8795 18.9791 39.8795 18.9893C39.8794 19.9253 39.8791 21.8553 40.9655 21.8555C42.064 21.8555 42.1051 20.2638 42.1051 19.293C42.1051 18.6562 42.0789 17.8912 41.8952 17.2871C41.7375 16.7654 41.4234 16.5557 40.9792 16.5557Z" fill="black"/>
<path fill-rule="evenodd" clip-rule="evenodd" d="M34.1685 28.0749C34.4875 27.241 35.1975 25.3725 34.8599 24.9197H34.8624C34.5262 24.4659 32.6395 24.704 31.7908 24.8111L31.789 24.8114C31.5308 24.844 31.4911 24.6078 31.7232 24.4369C33.2301 23.3238 35.699 23.6422 35.9857 24.018C36.2724 24.3938 35.9075 26.9957 34.4962 28.238C34.279 28.4285 34.0717 28.3267 34.1685 28.0749ZM24.0286 29.3615C27.3105 29.3615 31.1324 28.2719 33.7651 26.2298V26.2337C34.2008 25.8892 33.8271 25.3829 33.3828 25.5813C30.5091 26.8555 27.4243 27.5207 24.3054 27.5386C19.9784 27.5386 15.7928 26.2911 12.4067 24.2203C12.11 24.0389 11.8891 24.3586 12.1373 24.5922C15.3972 27.6841 19.638 29.385 24.0286 29.3615Z" fill="#FF9900"/>
</svg>
