<svg width="58" height="40" viewBox="0 0 58 40" fill="none" xmlns="http://www.w3.org/2000/svg">
<rect x="0.5" y="0.5" width="57" height="39" rx="5.5" fill="white"/>
<rect x="0.5" y="0.5" width="57" height="39" rx="5.5" stroke="#F2F4F7"/>
<path d="M36.4331 14.9009C38.44 14.9009 40.3327 16.7612 40.3443 20.1763C40.3443 23.9095 38.4742 25.606 36.4214 25.606C35.4125 25.6059 34.8049 25.1699 34.3921 24.8638L34.3804 28.1968L31.5132 28.8208V15.0894H34.0367L34.1851 15.8188C34.5865 15.442 35.3093 14.9009 36.4331 14.9009ZM11.9712 14.9009C12.9231 14.9009 13.8641 15.0542 14.8159 15.4429V18.2095C13.9444 17.7266 12.8428 17.4565 11.9712 17.4565C11.3636 17.4566 10.9966 17.6331 10.9966 18.0923C10.9969 19.4111 15.366 18.7871 15.3775 22.2964C15.3775 24.4044 13.7375 25.6177 11.3521 25.6177C10.3658 25.6177 9.28773 25.4169 8.22122 24.9458V22.1431C9.18452 22.6848 10.4002 23.0854 11.3521 23.0854C11.9943 23.0854 12.4536 22.9084 12.4536 22.3667C12.4528 20.9658 8.09561 21.4835 8.09525 18.2339C8.09525 16.1495 9.6433 14.901 11.9712 14.9009ZM18.7378 15.1011H20.9165V17.6089H18.7378V21.7896C18.7378 23.5323 20.5492 22.9916 20.9165 22.8384V25.229C20.5381 25.4409 19.85 25.6177 18.9097 25.6177C17.2125 25.6177 15.9392 24.334 15.939 22.5913L15.9507 13.1577L18.7495 12.5454L18.7378 15.1011ZM45.2408 14.9009C47.9587 14.9009 49.3814 17.2796 49.3814 20.2944C49.3814 20.577 49.358 21.1888 49.3579 21.3423H43.7495C43.8757 22.7319 44.8627 23.1323 45.9751 23.1323C47.1103 23.1323 48.0049 22.8852 48.7847 22.4849V24.8403C48.0049 25.2878 46.9726 25.6059 45.6079 25.606C42.8097 25.606 40.86 23.8157 40.8599 20.271C40.8599 17.2798 42.5114 14.9009 45.2408 14.9009ZM24.4829 15.9722C25.1595 14.7003 26.5016 14.9597 26.8687 15.1011V17.8091C26.5129 17.6796 25.3664 17.5158 24.69 18.4224V25.4058H21.8228V15.1011H24.3003L24.4829 15.9722ZM30.4468 25.4058H27.5679V15.1011H30.4468V25.4058ZM35.7447 17.5151C35.0912 17.5152 34.6785 17.7508 34.3804 18.0923L34.3921 22.4614C34.6673 22.7674 35.0684 23.0151 35.7447 23.0151C36.7997 23.0151 37.5112 21.8372 37.5113 20.2593C37.5113 18.7165 36.7883 17.5151 35.7447 17.5151ZM45.229 17.2915C44.5067 17.2917 43.7155 17.8449 43.7154 19.1753H46.6743C46.6742 17.8447 45.9285 17.2915 45.229 17.2915ZM30.4468 13.5698L27.5679 14.2056V11.8032L30.4468 11.1792V13.5698Z" fill="#6461FC"/>
</svg>
