<svg width="300" height="65" viewBox="0 0 300 65" fill="none" xmlns="http://www.w3.org/2000/svg">
<path d="M10.8161 48.2559H7.23004e-05L16.8961 0.895859H27.0081L43.8401 48.2559H32.8321L29.5041 38.2719H14.2081L10.8161 48.2559ZM20.6081 19.4559L17.2161 29.5679H26.5601L23.1681 19.4559C22.6561 17.8559 22.0801 15.9999 21.8881 14.8479C21.6961 15.9359 21.1841 17.7279 20.6081 19.4559ZM46.1521 38.1439H55.4961C55.6241 40.3839 57.2881 41.7279 60.2961 41.7279C63.3681 41.7279 64.7761 40.6399 64.7761 38.9759C64.7761 38.0159 64.2641 36.9919 61.8961 36.4799L56.0081 35.1999C50.1201 33.9199 47.2401 31.3599 47.2401 25.7279C47.2401 19.0719 52.9361 15.2319 60.6161 15.2319C68.0401 15.2319 73.2241 19.5839 73.2241 26.0479H63.8801C63.8801 23.8719 62.5361 22.3999 60.1681 22.3999C57.9281 22.3999 56.5201 23.5519 56.5201 25.2799C56.5201 26.7519 57.7361 27.5839 59.9761 28.0959L65.9281 29.3759C71.1761 30.5279 74.0561 32.9599 74.0561 38.0799C74.0561 44.9279 68.2321 49.0879 59.9121 49.0879C51.4641 49.0879 46.1521 44.6079 46.1521 38.1439ZM92.4541 48.2559H82.5981V24.4479H76.5181V16.2559H82.5981V6.33586H92.4541V16.2559H98.5341V24.4479H92.4541V48.2559ZM125.3 16.2559V25.5359H122.164C116.532 25.5359 113.14 28.0319 113.14 34.3679V48.2559H103.284V16.3199H112.564L113.076 21.0559C114.42 17.9199 117.236 15.8079 121.524 15.8079C122.676 15.8079 123.956 15.9359 125.3 16.2559ZM127.938 32.1919C127.938 22.0799 135.362 15.2959 145.602 15.2959C155.778 15.2959 163.202 22.0799 163.202 32.1919C163.202 42.3039 155.778 49.0239 145.602 49.0239C135.362 49.0239 127.938 42.3039 127.938 32.1919ZM137.858 32.1279C137.858 36.9919 140.994 40.1919 145.602 40.1919C150.146 40.1919 153.282 36.9919 153.282 32.1279C153.282 27.3279 150.146 24.1279 145.602 24.1279C140.994 24.1279 137.858 27.3279 137.858 32.1279ZM179.092 48.2559H169.236V-0.000141144H179.092V48.2559ZM185.078 32.1919C185.078 22.0799 192.502 15.2959 202.742 15.2959C212.918 15.2959 220.342 22.0799 220.342 32.1919C220.342 42.3039 212.918 49.0239 202.742 49.0239C192.502 49.0239 185.078 42.3039 185.078 32.1919ZM194.998 32.1279C194.998 36.9919 198.134 40.1919 202.742 40.1919C207.286 40.1919 210.422 36.9919 210.422 32.1279C210.422 27.3279 207.286 24.1279 202.742 24.1279C198.134 24.1279 194.998 27.3279 194.998 32.1279ZM224.776 31.6799C224.776 21.9519 231.112 15.1679 240.136 15.1679C244.488 15.1679 247.944 16.8319 249.672 19.4559L250.184 16.2559H259.464V46.2079C259.464 57.6639 252.872 64.5759 241.928 64.5759C232.136 64.5759 225.544 59.0079 224.648 49.9199H234.632C234.824 53.5039 237.512 55.6159 241.864 55.6159C246.6 55.6159 249.608 52.7999 249.608 48.2559V44.0959C247.688 46.3999 244.104 47.8719 239.944 47.8719C230.984 47.8719 224.776 41.2799 224.776 31.6799ZM234.696 31.4239C234.696 36.0319 237.768 39.2959 242.12 39.2959C246.6 39.2959 249.608 36.1599 249.608 31.4239C249.608 26.7519 246.6 23.7439 242.056 23.7439C237.704 23.7439 234.696 26.8799 234.696 31.4239ZM264.636 63.6159V55.3599H270.076C273.404 55.3599 274.812 54.3359 276.092 50.8799L276.668 49.3439L263.804 16.2559H274.364L281.34 36.7999L289.084 16.2559H299.324L283.068 55.2319C280.38 61.7599 276.796 64.5119 271.164 64.5119C268.796 64.5119 266.556 64.1919 264.636 63.6159Z" fill="black"/>
</svg>
