<svg width="253" height="65" viewBox="0 0 253 65" fill="none" xmlns="http://www.w3.org/2000/svg">
<path d="M18.5603 48.2559H0.000266075V0.895859H17.9203C31.8083 0.895859 41.4723 10.6239 41.4723 24.7039C41.4723 38.5279 32.0643 48.2559 18.5603 48.2559ZM16.8963 10.4959H10.3683V38.6559H17.5363C25.7283 38.6559 30.5283 33.4719 30.5283 24.7039C30.5283 15.7439 25.4723 10.4959 16.8963 10.4959ZM62.6398 49.0879C52.9758 49.0879 46.0638 42.0479 46.0638 32.1919C46.0638 22.2079 52.7838 15.2319 62.4478 15.2319C72.4958 15.2319 78.7678 21.8239 78.7678 32.2559V34.7519L55.5358 34.8799C56.1118 39.1039 58.4798 41.0879 62.8318 41.0879C66.5438 41.0879 69.1678 39.7439 69.8718 37.4399H78.8958C77.7438 44.5439 71.4078 49.0879 62.6398 49.0879ZM62.5118 23.2319C58.6078 23.2319 56.4318 24.9599 55.6638 28.7999H68.9758C68.9758 25.4079 66.4798 23.2319 62.5118 23.2319ZM94.7803 48.2559H84.9243V-0.000141144H94.7803V48.2559ZM107.358 11.2639C104.222 11.2639 101.726 8.76786 101.726 5.63186C101.726 2.49586 104.222 0.063858 107.358 0.063858C110.43 0.063858 112.926 2.49586 112.926 5.63186C112.926 8.76786 110.43 11.2639 107.358 11.2639ZM102.494 48.2559V16.2559H112.35V48.2559H102.494ZM129.152 48.2559L116.672 16.2559H127.296L131.2 27.4559C132.8 32.1279 134.08 36.1599 134.336 37.6319C134.72 35.7759 136.128 31.6159 137.728 27.4559L142.016 16.2559H152.256L138.88 48.2559H129.152ZM169.857 49.0879C160.193 49.0879 153.281 42.0479 153.281 32.1919C153.281 22.2079 160.001 15.2319 169.665 15.2319C179.713 15.2319 185.985 21.8239 185.985 32.2559V34.7519L162.753 34.8799C163.329 39.1039 165.697 41.0879 170.049 41.0879C173.761 41.0879 176.385 39.7439 177.089 37.4399H186.113C184.961 44.5439 178.625 49.0879 169.857 49.0879ZM169.729 23.2319C165.825 23.2319 163.649 24.9599 162.881 28.7999H176.193C176.193 25.4079 173.697 23.2319 169.729 23.2319ZM214.158 16.2559V25.5359H211.022C205.39 25.5359 201.998 28.0319 201.998 34.3679V48.2559H192.142V16.3199H201.422L201.934 21.0559C203.278 17.9199 206.094 15.8079 210.382 15.8079C211.534 15.8079 212.814 15.9359 214.158 16.2559ZM217.839 63.6159V55.3599H223.279C226.607 55.3599 228.015 54.3359 229.295 50.8799L229.871 49.3439L217.007 16.2559H227.567L234.543 36.7999L242.287 16.2559H252.527L236.271 55.2319C233.583 61.7599 229.999 64.5119 224.367 64.5119C221.999 64.5119 219.759 64.1919 217.839 63.6159Z" fill="black"/>
</svg>
