<svg width="200" height="24" viewBox="0 0 200 24" fill="none" xmlns="http://www.w3.org/2000/svg">
<path d="M20.9499 4.13L4.12988 20.95C5.07988 21.64 6.31988 22 7.80988 22H16.1899C19.8299 22 21.9999 19.83 21.9999 16.19V7.81C21.9999 6.32 21.6399 5.08 20.9499 4.13ZM18.4999 16.25H16.8099V18C16.8099 18.41 16.4699 18.75 16.0599 18.75C15.6499 18.75 15.3099 18.41 15.3099 18V16.25H13.4999C13.0899 16.25 12.7499 15.91 12.7499 15.5C12.7499 15.09 13.0899 14.75 13.4999 14.75H15.3099V13C15.3099 12.59 15.6499 12.25 16.0599 12.25C16.4699 12.25 16.8099 12.59 16.8099 13V14.75H18.4999C18.9099 14.75 19.2499 15.09 19.2499 15.5C19.2499 15.91 18.9099 16.25 18.4999 16.25Z" fill="#1A1A1A"/>
<path d="M16.19 2H7.81C4.17 2 2 4.17 2 7.81V16.19C2 17.68 2.36 18.92 3.05 19.87L19.87 3.05C18.92 2.36 17.68 2 16.19 2ZM10.5 8.25H5.5C5.09 8.25 4.75 7.91 4.75 7.5C4.75 7.09 5.09 6.75 5.5 6.75H10.5C10.91 6.75 11.25 7.09 11.25 7.5C11.25 7.91 10.91 8.25 10.5 8.25Z" fill="#1A1A1A"/>
<path d="M38.68 16.144C36.124 16.144 34.468 14.368 34.468 11.62C34.468 8.896 36.184 7.084 38.752 7.084C40.828 7.084 42.376 8.296 42.676 10.18H41.056C40.756 9.16 39.88 8.56 38.716 8.56C37.096 8.56 36.076 9.736 36.076 11.608C36.076 13.468 37.108 14.668 38.716 14.668C39.904 14.668 40.816 14.044 41.104 13.072H42.7C42.364 14.92 40.756 16.144 38.68 16.144ZM43.5135 13.024C43.5135 11.176 44.8455 9.904 46.6815 9.904C48.5175 9.904 49.8495 11.176 49.8495 13.024C49.8495 14.872 48.5175 16.144 46.6815 16.144C44.8455 16.144 43.5135 14.872 43.5135 13.024ZM44.9775 13.024C44.9775 14.104 45.6735 14.836 46.6815 14.836C47.6895 14.836 48.3855 14.104 48.3855 13.024C48.3855 11.944 47.6895 11.212 46.6815 11.212C45.6735 11.212 44.9775 11.944 44.9775 13.024ZM52.4739 16H51.0099V10.072H52.3539L52.4739 10.768C52.7739 10.276 53.3739 9.892 54.2259 9.892C55.1259 9.892 55.7499 10.336 56.0619 11.02C56.3619 10.336 57.0579 9.892 57.9579 9.892C59.3979 9.892 60.1899 10.756 60.1899 12.124V16H58.7379V12.508C58.7379 11.656 58.2819 11.212 57.5859 11.212C56.8779 11.212 56.3379 11.668 56.3379 12.64V16H54.8739V12.496C54.8739 11.668 54.4299 11.224 53.7339 11.224C53.0379 11.224 52.4739 11.68 52.4739 12.64V16ZM61.6271 18.748V10.072H62.9831L63.0791 10.972C63.4391 10.288 64.2191 9.892 65.1191 9.892C66.7871 9.892 67.8911 11.104 67.8911 12.964C67.8911 14.812 66.8831 16.156 65.1191 16.156C64.2311 16.156 63.4631 15.808 63.0911 15.208V18.748H61.6271ZM63.1031 13.036C63.1031 14.104 63.7631 14.836 64.7711 14.836C65.8031 14.836 66.4151 14.092 66.4151 13.036C66.4151 11.98 65.8031 11.224 64.7711 11.224C63.7631 11.224 63.1031 11.968 63.1031 13.036ZM72.9362 10.072H74.4002V16H73.0442L72.9362 15.208C72.5762 15.772 71.8082 16.156 71.0162 16.156C69.6482 16.156 68.8442 15.232 68.8442 13.78V10.072H70.3082V13.264C70.3082 14.392 70.7522 14.848 71.5682 14.848C72.4922 14.848 72.9362 14.308 72.9362 13.18V10.072ZM77.9283 16H76.4643V11.296H75.3243V10.072H76.4643V8.224H77.9283V10.072H79.0803V11.296H77.9283V16ZM80.7224 8.884C80.2184 8.884 79.8224 8.488 79.8224 7.996C79.8224 7.504 80.2184 7.12 80.7224 7.12C81.2024 7.12 81.5984 7.504 81.5984 7.996C81.5984 8.488 81.2024 8.884 80.7224 8.884ZM79.9904 16V10.072H81.4544V16H79.9904ZM84.4309 16H82.9669V10.072H84.3229L84.4429 10.84C84.8149 10.24 85.5349 9.892 86.3389 9.892C87.8269 9.892 88.5949 10.816 88.5949 12.352V16H87.1309V12.7C87.1309 11.704 86.6389 11.224 85.8829 11.224C84.9829 11.224 84.4309 11.848 84.4309 12.808V16ZM89.6973 12.904C89.6973 11.176 90.8253 9.88 92.5173 9.88C93.4053 9.88 94.1013 10.252 94.4493 10.888L94.5333 10.072H95.8893V15.7C95.8893 17.68 94.7013 18.916 92.7813 18.916C91.0773 18.916 89.9133 17.944 89.7333 16.36H91.1973C91.2933 17.128 91.8813 17.584 92.7813 17.584C93.7893 17.584 94.4373 16.948 94.4373 15.964V14.98C94.0653 15.532 93.3333 15.88 92.4813 15.88C90.8013 15.88 89.6973 14.62 89.6973 12.904ZM91.1733 12.868C91.1733 13.864 91.8093 14.608 92.7693 14.608C93.7773 14.608 94.4013 13.9 94.4013 12.868C94.4013 11.86 93.7893 11.164 92.7693 11.164C91.7973 11.164 91.1733 11.896 91.1733 12.868Z" fill="black"/>
</svg>
