<svg width="101" height="24" viewBox="0 0 101 24" fill="none" xmlns="http://www.w3.org/2000/svg">
<path d="M12.0001 17.3498C12.9003 17.3498 13.6301 16.6201 13.6301 15.7198C13.6301 14.8196 12.9003 14.0898 12.0001 14.0898C11.0999 14.0898 10.3701 14.8196 10.3701 15.7198C10.3701 16.6201 11.0999 17.3498 12.0001 17.3498Z" fill="#1A1A1A"/>
<path d="M18.28 9.53V8.28C18.28 5.58 17.63 2 12 2C6.37 2 5.72 5.58 5.72 8.28V9.53C2.92 9.88 2 11.3 2 14.79V16.65C2 20.75 3.25 22 7.35 22H16.65C20.75 22 22 20.75 22 16.65V14.79C22 11.3 21.08 9.88 18.28 9.53ZM12 18.74C10.33 18.74 8.98 17.38 8.98 15.72C8.98 14.05 10.34 12.7 12 12.7C13.66 12.7 15.02 14.06 15.02 15.72C15.02 17.39 13.67 18.74 12 18.74ZM7.35 9.44C7.27 9.44 7.2 9.44 7.12 9.44V8.28C7.12 5.35 7.95 3.4 12 3.4C16.05 3.4 16.88 5.35 16.88 8.28V9.45C16.8 9.45 16.73 9.45 16.65 9.45H7.35V9.44Z" fill="#1A1A1A"/>
<path d="M36.508 7.228V14.584H40.18V16H34.972V7.228H36.508ZM40.7478 13.024C40.7478 11.176 42.0798 9.904 43.9158 9.904C45.7518 9.904 47.0838 11.176 47.0838 13.024C47.0838 14.872 45.7518 16.144 43.9158 16.144C42.0798 16.144 40.7478 14.872 40.7478 13.024ZM42.2118 13.024C42.2118 14.104 42.9078 14.836 43.9158 14.836C44.9238 14.836 45.6198 14.104 45.6198 13.024C45.6198 11.944 44.9238 11.212 43.9158 11.212C42.9078 11.212 42.2118 11.944 42.2118 13.024ZM47.8963 13.024C47.8963 11.188 49.1083 9.892 50.8603 9.892C52.4803 9.892 53.5843 10.792 53.7403 12.22H52.2763C52.1083 11.548 51.6163 11.2 50.9203 11.2C49.9843 11.2 49.3603 11.908 49.3603 13.024C49.3603 14.14 49.9363 14.836 50.8723 14.836C51.6043 14.836 52.1203 14.476 52.2763 13.828H53.7523C53.5723 15.208 52.4203 16.156 50.8723 16.156C49.0723 16.156 47.8963 14.908 47.8963 13.024ZM56.3179 16H54.8659V7.072H56.3179V12.556L58.6219 10.072H60.4579L58.2019 12.424L60.4099 16H58.7299L57.1819 13.504L56.3179 14.404V16Z" fill="black"/>
</svg>
