<svg width="149" height="24" viewBox="0 0 149 24" fill="none" xmlns="http://www.w3.org/2000/svg">
<path opacity="0.93" d="M12 2C6.48 2 2 6.48 2 12C2 17.52 6.48 22 12 22C17.52 22 22 17.52 22 12C22 6.48 17.52 2 12 2ZM16.37 14.35L14.15 16.57C13.61 17.11 12.91 17.37 12.21 17.37C11.51 17.37 10.8 17.1 10.27 16.57C9.75 16.05 9.46 15.36 9.46 14.63C9.46 13.9 9.75 13.2 10.27 12.69L11.68 11.28C11.97 10.99 12.45 10.99 12.74 11.28C13.03 11.57 13.03 12.05 12.74 12.34L11.33 13.75C11.09 13.99 10.96 14.3 10.96 14.63C10.96 14.96 11.09 15.28 11.33 15.51C11.82 16 12.61 16 13.1 15.51L15.32 13.29C16.59 12.02 16.59 9.96 15.32 8.69C14.05 7.42 11.99 7.42 10.72 8.69L8.3 11.11C7.79 11.62 7.51 12.29 7.51 13C7.51 13.71 7.79 14.39 8.3 14.89C8.59 15.18 8.59 15.66 8.3 15.95C8.01 16.24 7.53 16.24 7.24 15.95C6.44 15.18 6 14.13 6 13.01C6 11.89 6.43 10.84 7.22 10.05L9.64 7.63C11.49 5.78 14.51 5.78 16.36 7.63C18.22 9.48 18.22 12.5 16.37 14.35Z" fill="#1A1A1A"/>
<path d="M35.728 17H34.132L37.3 8.228H38.872L42.04 17H40.42L39.712 14.972H36.436L35.728 17ZM37.888 10.844L36.892 13.676H39.268L38.26 10.844C38.188 10.616 38.104 10.352 38.08 10.172C38.044 10.34 37.972 10.604 37.888 10.844ZM44.7759 17H43.3119V12.296H42.1719V11.072H43.3119V9.224H44.7759V11.072H45.9279V12.296H44.7759V17ZM49.0181 17H47.5541V12.296H46.4141V11.072H47.5541V9.224H49.0181V11.072H50.1701V12.296H49.0181V17ZM52.8091 17.156C51.5491 17.156 50.7811 16.424 50.7811 15.308C50.7811 14.216 51.5731 13.532 52.9771 13.424L54.7531 13.292V13.16C54.7531 12.356 54.2731 12.032 53.5291 12.032C52.6651 12.032 52.1851 12.392 52.1851 13.016H50.9371C50.9371 11.732 51.9931 10.892 53.6011 10.892C55.1971 10.892 56.1811 11.756 56.1811 13.4V17H54.8971L54.7891 16.124C54.5371 16.736 53.7331 17.156 52.8091 17.156ZM53.2891 16.052C54.1891 16.052 54.7651 15.512 54.7651 14.6V14.288L53.5291 14.384C52.6171 14.468 52.2691 14.768 52.2691 15.248C52.2691 15.788 52.6291 16.052 53.2891 16.052ZM57.2713 14.024C57.2713 12.188 58.4833 10.892 60.2353 10.892C61.8553 10.892 62.9593 11.792 63.1153 13.22H61.6513C61.4833 12.548 60.9913 12.2 60.2953 12.2C59.3593 12.2 58.7353 12.908 58.7353 14.024C58.7353 15.14 59.3113 15.836 60.2473 15.836C60.9793 15.836 61.4953 15.476 61.6513 14.828H63.1273C62.9473 16.208 61.7953 17.156 60.2473 17.156C58.4473 17.156 57.2713 15.908 57.2713 14.024ZM65.6809 17H64.2169V8.072H65.6929V11.84C66.0649 11.264 66.7609 10.892 67.6129 10.892C69.0769 10.892 69.8449 11.816 69.8449 13.352V17H68.3809V13.7C68.3809 12.704 67.8889 12.224 67.1449 12.224C66.2209 12.224 65.6809 12.872 65.6809 13.76V17ZM71.2713 14.444V13.148H75.1353V14.444H71.2713ZM76.2791 14.024C76.2791 12.188 77.4911 10.892 79.2431 10.892C80.8631 10.892 81.9671 11.792 82.1231 13.22H80.6591C80.4911 12.548 79.9991 12.2 79.3031 12.2C78.3671 12.2 77.7431 12.908 77.7431 14.024C77.7431 15.14 78.3191 15.836 79.2551 15.836C79.9871 15.836 80.5031 15.476 80.6591 14.828H82.1351C81.9551 16.208 80.8031 17.156 79.2551 17.156C77.4551 17.156 76.2791 15.908 76.2791 14.024ZM83.9568 9.884C83.4528 9.884 83.0568 9.488 83.0568 8.996C83.0568 8.504 83.4528 8.12 83.9568 8.12C84.4368 8.12 84.8328 8.504 84.8328 8.996C84.8328 9.488 84.4368 9.884 83.9568 9.884ZM83.2248 17V11.072H84.6888V17H83.2248ZM89.9213 11.048V12.404H89.3813C88.3253 12.404 87.6653 12.968 87.6653 14.12V17H86.2013V11.084H87.5813L87.6653 11.948C87.9173 11.36 88.4813 10.964 89.2733 10.964C89.4773 10.964 89.6813 10.988 89.9213 11.048ZM90.365 14.024C90.365 12.188 91.577 10.892 93.329 10.892C94.949 10.892 96.053 11.792 96.209 13.22H94.745C94.577 12.548 94.085 12.2 93.389 12.2C92.453 12.2 91.829 12.908 91.829 14.024C91.829 15.14 92.405 15.836 93.341 15.836C94.073 15.836 94.589 15.476 94.745 14.828H96.221C96.041 16.208 94.889 17.156 93.341 17.156C91.541 17.156 90.365 15.908 90.365 14.024ZM98.7867 17H97.3347V8.072H98.7867V17ZM102.974 17.156C101.21 17.156 99.9744 15.872 99.9744 14.036C99.9744 12.176 101.186 10.892 102.926 10.892C104.702 10.892 105.83 12.08 105.83 13.928V14.372L101.366 14.384C101.474 15.428 102.026 15.956 102.998 15.956C103.802 15.956 104.33 15.644 104.498 15.08H105.854C105.602 16.376 104.522 17.156 102.974 17.156ZM102.938 12.092C102.074 12.092 101.546 12.56 101.402 13.448H104.378C104.378 12.632 103.814 12.092 102.938 12.092Z" fill="black"/>
</svg>
