<svg width="101" height="24" viewBox="0 0 101 24" fill="none" xmlns="http://www.w3.org/2000/svg">
<path d="M4 13.5V18.9C4 20.6 5.39 22 7.1 22H16.9C18.6 22 20 20.61 20 18.9V13.5C20 13.22 19.78 13 19.5 13H4.5C4.22 13 4 13.22 4 13.5ZM8.88 18.38C8.65 18.62 8.33 18.75 8 18.75C7.92 18.75 7.84 18.74 7.76 18.73C7.68 18.71 7.6 18.69 7.52 18.65C7.45 18.62 7.37 18.58 7.31 18.54C7.24 18.49 7.17 18.44 7.12 18.38C6.88 18.15 6.75 17.83 6.75 17.5C6.75 17.17 6.88 16.85 7.12 16.62C7.17 16.56 7.24 16.51 7.31 16.46C7.37 16.42 7.45 16.38 7.52 16.35C7.6 16.31 7.68 16.29 7.76 16.27C8.16 16.19 8.59 16.33 8.88 16.62C9.12 16.85 9.25 17.17 9.25 17.5C9.25 17.83 9.12 18.15 8.88 18.38ZM16.88 18.38C16.83 18.44 16.76 18.49 16.69 18.54C16.63 18.58 16.55 18.62 16.48 18.65C16.4 18.69 16.32 18.71 16.25 18.73C16.16 18.74 16.08 18.75 16 18.75C15.92 18.75 15.84 18.74 15.76 18.73C15.68 18.71 15.6 18.69 15.52 18.65C15.45 18.62 15.37 18.58 15.31 18.54C15.24 18.49 15.17 18.44 15.12 18.38C14.88 18.15 14.75 17.83 14.75 17.5C14.75 17.17 14.88 16.85 15.12 16.62C15.17 16.56 15.24 16.51 15.31 16.46C15.37 16.42 15.45 16.38 15.52 16.35C15.6 16.31 15.68 16.29 15.76 16.27C15.92 16.24 16.08 16.24 16.25 16.27C16.32 16.29 16.4 16.31 16.48 16.35C16.55 16.38 16.63 16.42 16.69 16.46C16.76 16.51 16.83 16.56 16.88 16.62C17.12 16.85 17.25 17.17 17.25 17.5C17.25 17.83 17.12 18.15 16.88 18.38Z" fill="#1A1A1A"/>
<path d="M16.9 2H7.1C5.39 2 4 3.39 4 5.1V7.5C4 7.78 4.22 8 4.5 8H19.5C19.78 8 20 7.78 20 7.5V5.1C20 3.39 18.61 2 16.9 2ZM14.5 5.75H9.5C9.09 5.75 8.75 5.41 8.75 5C8.75 4.59 9.09 4.25 9.5 4.25H14.5C14.91 4.25 15.25 4.59 15.25 5C15.25 5.41 14.91 5.75 14.5 5.75Z" fill="#1A1A1A"/>
<path d="M19.5 12H4.5C4.22 12 4 11.78 4 11.5V9.5C4 9.22 4.22 9 4.5 9H19.5C19.78 9 20 9.22 20 9.5V11.5C20 11.78 19.78 12 19.5 12Z" fill="#1A1A1A"/>
<path d="M34.972 16V7.228H38.464C40.192 7.228 41.248 8.128 41.248 9.592C41.248 10.564 40.816 11.26 39.988 11.608C40.912 11.908 41.38 12.604 41.38 13.624C41.38 15.124 40.336 16 38.524 16H34.972ZM38.332 8.584H36.508V10.972H38.368C39.208 10.972 39.676 10.528 39.676 9.748C39.676 8.992 39.196 8.584 38.332 8.584ZM38.464 12.268H36.508V14.644H38.464C39.328 14.644 39.808 14.224 39.808 13.432C39.808 12.688 39.316 12.268 38.464 12.268ZM46.5924 10.072H48.0564V16H46.7004L46.5924 15.208C46.2324 15.772 45.4644 16.156 44.6724 16.156C43.3044 16.156 42.5004 15.232 42.5004 13.78V10.072H43.9644V13.264C43.9644 14.392 44.4084 14.848 45.2244 14.848C46.1484 14.848 46.5924 14.308 46.5924 13.18V10.072ZM48.9953 14.2H50.3873C50.3993 14.716 50.7833 15.04 51.4553 15.04C52.1393 15.04 52.5113 14.764 52.5113 14.332C52.5113 14.032 52.3553 13.816 51.8273 13.696L50.7593 13.444C49.6913 13.204 49.1753 12.7 49.1753 11.752C49.1753 10.588 50.1593 9.892 51.5273 9.892C52.8593 9.892 53.7593 10.66 53.7713 11.812H52.3793C52.3673 11.308 52.0313 10.984 51.4673 10.984C50.8913 10.984 50.5553 11.248 50.5553 11.692C50.5553 12.028 50.8193 12.244 51.3233 12.364L52.3913 12.616C53.3873 12.844 53.8913 13.3 53.8913 14.212C53.8913 15.412 52.8713 16.156 51.4073 16.156C49.9313 16.156 48.9953 15.364 48.9953 14.2Z" fill="black"/>
</svg>
