<svg width="101" height="24" viewBox="0 0 101 24" fill="none" xmlns="http://www.w3.org/2000/svg">
<path d="M11 18V21C11 21.55 10.55 22 10 22C9.45 22 9 21.55 9 21V18H11Z" fill="#1A1A1A"/>
<path d="M15 18V21C15 21.55 14.55 22 14 22C13.45 22 13 21.55 13 21V18H15Z" fill="#1A1A1A"/>
<path d="M17 11V16C17 17.1 16.1 18 15 18H9C7.9 18 7 17.1 7 16V11C7 9.9 7.9 9 9 9H15C16.1 9 17 9.9 17 11Z" fill="#1A1A1A"/>
<path d="M5 11V15C5 15.55 4.55 16 4 16C3.45 16 3 15.55 3 15V11C3 10.45 3.45 10 4 10C4.55 10 5 10.45 5 11Z" fill="#1A1A1A"/>
<path d="M21 11V15C21 15.55 20.55 16 20 16C19.45 16 19 15.55 19 15V11C19 10.45 19.45 10 20 10C20.55 10 21 10.45 21 11Z" fill="#1A1A1A"/>
<path d="M9.59998 7.60001H14.4C15.28 7.60001 16 6.88 16 6C16 3.79 14.21 2 12 2C9.79 2 8 3.79 8 6C8 6.88 8.71998 7.60001 9.59998 7.60001Z" fill="#1A1A1A"/>
<path d="M35.728 16H34.132L37.3 7.228H38.872L42.04 16H40.42L39.712 13.972H36.436L35.728 16ZM37.888 9.844L36.892 12.676H39.268L38.26 9.844C38.188 9.616 38.104 9.352 38.08 9.172C38.044 9.34 37.972 9.604 37.888 9.844ZM44.388 16H42.924V10.072H44.28L44.4 10.84C44.772 10.24 45.492 9.892 46.296 9.892C47.784 9.892 48.552 10.816 48.552 12.352V16H47.088V12.7C47.088 11.704 46.596 11.224 45.84 11.224C44.94 11.224 44.388 11.848 44.388 12.808V16ZM52.4264 16.156C50.7104 16.156 49.6424 14.896 49.6424 13.06C49.6424 11.212 50.7224 9.892 52.5104 9.892C53.3384 9.892 54.0704 10.24 54.4424 10.828V7.072H55.8944V16H54.5504L54.4544 15.076C54.0944 15.76 53.3264 16.156 52.4264 16.156ZM52.7504 14.812C53.7704 14.812 54.4304 14.08 54.4304 13.012C54.4304 11.944 53.7704 11.2 52.7504 11.2C51.7304 11.2 51.1064 11.956 51.1064 13.012C51.1064 14.068 51.7304 14.812 52.7504 14.812ZM61.1401 10.048V11.404H60.6001C59.5441 11.404 58.8841 11.968 58.8841 13.12V16H57.4201V10.084H58.8001L58.8841 10.948C59.1361 10.36 59.7001 9.964 60.4921 9.964C60.6961 9.964 60.9001 9.988 61.1401 10.048ZM61.5838 13.024C61.5838 11.176 62.9158 9.904 64.7518 9.904C66.5878 9.904 67.9198 11.176 67.9198 13.024C67.9198 14.872 66.5878 16.144 64.7518 16.144C62.9158 16.144 61.5838 14.872 61.5838 13.024ZM63.0478 13.024C63.0478 14.104 63.7438 14.836 64.7518 14.836C65.7598 14.836 66.4558 14.104 66.4558 13.024C66.4558 11.944 65.7598 11.212 64.7518 11.212C63.7438 11.212 63.0478 11.944 63.0478 13.024ZM69.8122 8.884C69.3082 8.884 68.9122 8.488 68.9122 7.996C68.9122 7.504 69.3082 7.12 69.8122 7.12C70.2922 7.12 70.6882 7.504 70.6882 7.996C70.6882 8.488 70.2922 8.884 69.8122 8.884ZM69.0802 16V10.072H70.5442V16H69.0802ZM74.4928 16.156C72.7768 16.156 71.7088 14.896 71.7088 13.06C71.7088 11.212 72.7888 9.892 74.5768 9.892C75.4048 9.892 76.1368 10.24 76.5088 10.828V7.072H77.9608V16H76.6168L76.5208 15.076C76.1608 15.76 75.3928 16.156 74.4928 16.156ZM74.8168 14.812C75.8368 14.812 76.4968 14.08 76.4968 13.012C76.4968 11.944 75.8368 11.2 74.8168 11.2C73.7968 11.2 73.1728 11.956 73.1728 13.012C73.1728 14.068 73.7968 14.812 74.8168 14.812Z" fill="black"/>
</svg>
