<svg width="107" height="24" viewBox="0 0 107 24" fill="none" xmlns="http://www.w3.org/2000/svg">
<path d="M12.5 14.75H10C9.59 14.75 9.25 14.41 9.25 14C9.25 13.59 9.59 13.25 10 13.25H12.5C15.12 13.25 17.25 11.12 17.25 8.5C17.25 5.88 15.12 3.75 12.5 3.75H7.5C4.88 3.75 2.75 5.88 2.75 8.5C2.75 9.6 3.14 10.67 3.84 11.52C4.1 11.84 4.06 12.31 3.74 12.58C3.42 12.84 2.95 12.8 2.68 12.48C1.76 11.36 1.25 9.95 1.25 8.5C1.25 5.05 4.05 2.25 7.5 2.25H12.5C15.95 2.25 18.75 5.05 18.75 8.5C18.75 11.95 15.95 14.75 12.5 14.75Z" fill="#1A1A1A"/>
<path d="M16.5 21.75H11.5C8.05 21.75 5.25 18.95 5.25 15.5C5.25 12.05 8.05 9.25 11.5 9.25H14C14.41 9.25 14.75 9.59 14.75 10C14.75 10.41 14.41 10.75 14 10.75H11.5C8.88 10.75 6.75 12.88 6.75 15.5C6.75 18.12 8.88 20.25 11.5 20.25H16.5C19.12 20.25 21.25 18.12 21.25 15.5C21.25 14.4 20.86 13.33 20.16 12.48C19.9 12.16 19.94 11.69 20.26 11.42C20.58 11.15 21.05 11.2 21.32 11.52C22.25 12.64 22.76 14.05 22.76 15.5C22.75 18.95 19.95 21.75 16.5 21.75Z" fill="#1A1A1A"/>
<path d="M36.508 7.228V14.584H40.18V16H34.972V7.228H36.508ZM41.945 8.884C41.441 8.884 41.045 8.488 41.045 7.996C41.045 7.504 41.441 7.12 41.945 7.12C42.425 7.12 42.821 7.504 42.821 7.996C42.821 8.488 42.425 8.884 41.945 8.884ZM41.213 16V10.072H42.677V16H41.213ZM45.6536 16H44.1896V10.072H45.5456L45.6656 10.84C46.0376 10.24 46.7576 9.892 47.5616 9.892C49.0496 9.892 49.8176 10.816 49.8176 12.352V16H48.3536V12.7C48.3536 11.704 47.8616 11.224 47.1056 11.224C46.2056 11.224 45.6536 11.848 45.6536 12.808V16ZM52.732 16H51.28V7.072H52.732V12.556L55.036 10.072H56.872L54.616 12.424L56.824 16H55.144L53.596 13.504L52.732 14.404V16ZM56.9276 13.444V12.148H60.7916V13.444H56.9276ZM68.8353 14.332H67.7673V16H66.3153V14.332H61.8633V12.988L65.8353 7.228H67.7673V12.988H68.8353V14.332ZM63.4953 12.988H66.3153V8.884L63.4953 12.988Z" fill="black"/>
</svg>
