<svg width="101" height="24" viewBox="0 0 101 24" fill="none" xmlns="http://www.w3.org/2000/svg">
<path d="M21.98 15.65C21.16 14.64 19.91 14 18.5 14C17.44 14 16.46 14.37 15.69 14.99C14.65 15.81 14 17.08 14 18.5C14 19.91 14.64 21.16 15.65 21.98C16.42 22.62 17.42 23 18.5 23C19.64 23 20.67 22.57 21.47 21.88C22.4 21.05 23 19.85 23 18.5C23 17.42 22.62 16.42 21.98 15.65ZM19.53 18.78C19.53 19.04 19.39 19.29 19.17 19.42L17.76 20.26C17.64 20.33 17.51 20.37 17.37 20.37C17.12 20.37 16.87 20.24 16.73 20.01C16.52 19.65 16.63 19.19 16.99 18.98L18.03 18.36V17.1C18.03 16.69 18.37 16.35 18.78 16.35C19.19 16.35 19.53 16.69 19.53 17.1V18.78Z" fill="#1A1A1A"/>
<path d="M14.73 5.86V2.5C14.73 2.22 14.51 2 14.23 2H9.77002C9.49002 2 9.27002 2.22 9.27002 2.5V5.86C9.27002 6.14 9.49002 6.36 9.77002 6.36H14.23C14.51 6.36 14.73 6.14 14.73 5.86Z" fill="#1A1A1A"/>
<path d="M7.24998 2.01997C4.68998 2.17997 2.93998 3.49997 2.28998 5.69997C2.18998 6.02997 2.42998 6.35997 2.76998 6.35997H7.26998C7.54998 6.35997 7.76998 6.13997 7.76998 5.85997V2.51997C7.76998 2.23997 7.52998 1.99997 7.24998 2.01997Z" fill="#1A1A1A"/>
<path d="M16.75 2.00996C19.31 2.16996 21.06 3.48996 21.71 5.68996C21.81 6.01996 21.57 6.34996 21.23 6.34996H16.73C16.45 6.34996 16.23 6.12996 16.23 5.84996V2.50996C16.23 2.22996 16.47 1.98996 16.75 2.00996Z" fill="#1A1A1A"/>
<path d="M22 8.35998V12.74C22 13.11 21.61 13.35 21.28 13.18C20.44 12.74 19.48 12.5 18.5 12.5C16.89 12.5 15.32 13.16 14.2 14.31C13.1 15.43 12.5 16.92 12.5 18.5C12.5 19.31 12.82 20.35 13.22 21.22C13.38 21.57 13.14 22 12.75 22H7.81C4.6 22 2 19.4 2 16.19V8.35998C2 8.07998 2.22 7.85999 2.5 7.85999H21.5C21.78 7.85999 22 8.07998 22 8.35998Z" fill="#1A1A1A"/>
<path d="M37.432 16L34.12 7.228H35.752L37.672 12.28C37.864 12.808 38.032 13.324 38.224 14.032C38.44 13.264 38.62 12.724 38.788 12.28L40.684 7.228H42.28L39.016 16H37.432ZM43.8903 8.884C43.3863 8.884 42.9903 8.488 42.9903 7.996C42.9903 7.504 43.3863 7.12 43.8903 7.12C44.3703 7.12 44.7663 7.504 44.7663 7.996C44.7663 8.488 44.3703 8.884 43.8903 8.884ZM43.1583 16V10.072H44.6223V16H43.1583ZM48.5709 16.156C46.8549 16.156 45.7869 14.896 45.7869 13.06C45.7869 11.212 46.8669 9.892 48.6549 9.892C49.4829 9.892 50.2149 10.24 50.5869 10.828V7.072H52.0389V16H50.6949L50.5989 15.076C50.2389 15.76 49.4709 16.156 48.5709 16.156ZM48.8949 14.812C49.9149 14.812 50.5749 14.08 50.5749 13.012C50.5749 11.944 49.9149 11.2 48.8949 11.2C47.8749 11.2 47.2509 11.956 47.2509 13.012C47.2509 14.068 47.8749 14.812 48.8949 14.812ZM56.2166 16.156C54.4526 16.156 53.2166 14.872 53.2166 13.036C53.2166 11.176 54.4286 9.892 56.1686 9.892C57.9446 9.892 59.0726 11.08 59.0726 12.928V13.372L54.6086 13.384C54.7166 14.428 55.2686 14.956 56.2406 14.956C57.0446 14.956 57.5726 14.644 57.7406 14.08H59.0966C58.8446 15.376 57.7646 16.156 56.2166 16.156ZM56.1806 11.092C55.3166 11.092 54.7886 11.56 54.6446 12.448H57.6206C57.6206 11.632 57.0566 11.092 56.1806 11.092ZM59.8963 13.024C59.8963 11.176 61.2283 9.904 63.0643 9.904C64.9003 9.904 66.2323 11.176 66.2323 13.024C66.2323 14.872 64.9003 16.144 63.0643 16.144C61.2283 16.144 59.8963 14.872 59.8963 13.024ZM61.3603 13.024C61.3603 14.104 62.0563 14.836 63.0643 14.836C64.0723 14.836 64.7683 14.104 64.7683 13.024C64.7683 11.944 64.0723 11.212 63.0643 11.212C62.0563 11.212 61.3603 11.944 61.3603 13.024ZM67.3807 13.444V12.148H71.2447V13.444H67.3807ZM74.5181 16H73.0541V11.296H71.9141V10.072H73.0541V8.224H74.5181V10.072H75.6701V11.296H74.5181V16ZM77.3122 8.884C76.8082 8.884 76.4122 8.488 76.4122 7.996C76.4122 7.504 76.8082 7.12 77.3122 7.12C77.7922 7.12 78.1882 7.504 78.1882 7.996C78.1882 8.488 77.7922 8.884 77.3122 8.884ZM76.5802 16V10.072H78.0442V16H76.5802ZM81.0208 16H79.5568V10.072H80.9008L81.0208 10.768C81.3208 10.276 81.9208 9.892 82.7728 9.892C83.6728 9.892 84.2968 10.336 84.6088 11.02C84.9088 10.336 85.6048 9.892 86.5048 9.892C87.9448 9.892 88.7368 10.756 88.7368 12.124V16H87.2848V12.508C87.2848 11.656 86.8288 11.212 86.1328 11.212C85.4248 11.212 84.8848 11.668 84.8848 12.64V16H83.4208V12.496C83.4208 11.668 82.9768 11.224 82.2808 11.224C81.5848 11.224 81.0208 11.68 81.0208 12.64V16ZM92.826 16.156C91.062 16.156 89.826 14.872 89.826 13.036C89.826 11.176 91.038 9.892 92.778 9.892C94.554 9.892 95.682 11.08 95.682 12.928V13.372L91.218 13.384C91.326 14.428 91.878 14.956 92.85 14.956C93.654 14.956 94.182 14.644 94.35 14.08H95.706C95.454 15.376 94.374 16.156 92.826 16.156ZM92.79 11.092C91.926 11.092 91.398 11.56 91.254 12.448H94.23C94.23 11.632 93.666 11.092 92.79 11.092Z" fill="black"/>
</svg>
