<svg width="101" height="24" viewBox="0 0 101 24" fill="none" xmlns="http://www.w3.org/2000/svg">
<path d="M18 2H6C4.34 2 3 3.33 3 4.97V15.88C3 17.52 4.34 18.85 6 18.85H6.76C7.56 18.85 8.32 19.16 8.88 19.72L10.59 21.41C11.37 22.18 12.64 22.18 13.42 21.41L15.13 19.72C15.69 19.16 16.46 18.85 17.25 18.85H18C19.66 18.85 21 17.52 21 15.88V4.97C21 3.33 19.66 2 18 2ZM12.28 14.96C12.13 15.01 11.88 15.01 11.72 14.96C10.42 14.51 7.5 12.66 7.5 9.51C7.51 8.12 8.62 7 10 7C10.82 7 11.54 7.39 12 8C12.46 7.39 13.18 7 14 7C15.38 7 16.5 8.12 16.5 9.51C16.49 12.66 13.58 14.51 12.28 14.96Z" fill="#1A1A1A"/>
<path d="M36.508 7.228V14.584H40.18V16H34.972V7.228H36.508ZM41.945 8.884C41.441 8.884 41.045 8.488 41.045 7.996C41.045 7.504 41.441 7.12 41.945 7.12C42.425 7.12 42.821 7.504 42.821 7.996C42.821 8.488 42.425 8.884 41.945 8.884ZM41.213 16V10.072H42.677V16H41.213ZM45.6656 16H44.2136V7.072H45.6656V12.556L47.9696 10.072H49.8056L47.5496 12.424L49.7576 16H48.0776L46.5296 13.504L45.6656 14.404V16ZM53.0291 16.156C51.2651 16.156 50.0291 14.872 50.0291 13.036C50.0291 11.176 51.2411 9.892 52.9811 9.892C54.7571 9.892 55.8851 11.08 55.8851 12.928V13.372L51.4211 13.384C51.5291 14.428 52.0811 14.956 53.0531 14.956C53.8571 14.956 54.3851 14.644 54.5531 14.08H55.9091C55.6571 15.376 54.5771 16.156 53.0291 16.156ZM52.9931 11.092C52.1291 11.092 51.6011 11.56 51.4571 12.448H54.4331C54.4331 11.632 53.8691 11.092 52.9931 11.092Z" fill="black"/>
</svg>
