<svg width="131" height="24" viewBox="0 0 131 24" fill="none" xmlns="http://www.w3.org/2000/svg">
<path d="M16.19 2H7.81C4.17 2 2 4.17 2 7.81V16.18C2 19.83 4.17 22 7.81 22H16.18C19.82 22 21.99 19.83 21.99 16.19V7.81C22 4.17 19.83 2 16.19 2ZM5.25 11.89C5.28 10.13 5.98 8.47 7.22 7.23C8.5 5.95 10.2 5.25 12 5.25C13.8 5.25 15.5 5.95 16.77 7.23C16.8 7.26 16.83 7.3 16.86 7.34V6.48C16.86 6.07 17.2 5.73 17.61 5.73C18.02 5.73 18.36 6.07 18.36 6.48V9.13C18.36 9.54 18.02 9.88 17.61 9.88H14.96C14.55 9.88 14.21 9.54 14.21 9.13C14.21 8.72 14.55 8.38 14.96 8.38H15.79C15.76 8.35 15.74 8.32 15.71 8.29C14.72 7.3 13.4 6.75 12 6.75C10.6 6.75 9.28 7.3 8.29 8.29C7.32 9.26 6.78 10.55 6.76 11.92C6.75 12.32 6.41 12.65 6 12.65H5.99C5.58 12.65 5.25 12.3 5.25 11.89ZM16.77 16.77C15.5 18.04 13.8 18.75 12 18.75C10.2 18.75 8.5 18.05 7.23 16.77C7.2 16.74 7.17 16.7 7.14 16.66V17.51C7.14 17.92 6.8 18.26 6.39 18.26C5.98 18.26 5.64 17.92 5.64 17.51V14.86C5.64 14.45 5.98 14.11 6.39 14.11H9.04C9.45 14.11 9.79 14.45 9.79 14.86C9.79 15.27 9.45 15.61 9.04 15.61H8.21C8.24 15.64 8.26 15.67 8.29 15.7C9.28 16.69 10.6 17.24 12 17.24C13.4 17.24 14.72 16.69 15.71 15.7C16.69 14.72 17.24 13.41 17.24 12.01C17.24 11.6 17.58 11.26 17.99 11.26C18.4 11.26 18.74 11.6 18.74 12.01C18.74 13.82 18.04 15.51 16.77 16.77Z" fill="#1A1A1A"/>
<path d="M36.508 17H34.972V8.228H38.32C40.312 8.228 41.476 9.236 41.476 10.964C41.476 12.14 40.924 12.98 39.892 13.4L41.56 17H39.88L38.392 13.724H36.508V17ZM36.508 9.596V12.368H38.32C39.292 12.368 39.868 11.852 39.868 10.964C39.868 10.088 39.292 9.596 38.32 9.596H36.508ZM45.0252 17.156C43.2612 17.156 42.0252 15.872 42.0252 14.036C42.0252 12.176 43.2372 10.892 44.9772 10.892C46.7532 10.892 47.8812 12.08 47.8812 13.928V14.372L43.4172 14.384C43.5252 15.428 44.0772 15.956 45.0492 15.956C45.8532 15.956 46.3812 15.644 46.5492 15.08H47.9052C47.6532 16.376 46.5732 17.156 45.0252 17.156ZM44.9892 12.092C44.1252 12.092 43.5972 12.56 43.4532 13.448H46.4292C46.4292 12.632 45.8652 12.092 44.9892 12.092ZM48.4649 11.072H49.3169V10.352C49.3169 8.744 50.1689 8.072 51.4529 8.072C51.6809 8.072 51.9569 8.084 52.2089 8.132V9.38H51.6929C50.9489 9.38 50.7689 9.764 50.7689 10.352V11.072H52.1849V12.296H50.7689V17H49.3169V12.296H48.4649V11.072ZM56.8393 11.048V12.404H56.2993C55.2433 12.404 54.5833 12.968 54.5833 14.12V17H53.1193V11.084H54.4993L54.5833 11.948C54.8353 11.36 55.3993 10.964 56.1913 10.964C56.3953 10.964 56.5993 10.988 56.8393 11.048ZM60.283 17.156C58.519 17.156 57.283 15.872 57.283 14.036C57.283 12.176 58.495 10.892 60.235 10.892C62.011 10.892 63.139 12.08 63.139 13.928V14.372L58.675 14.384C58.783 15.428 59.335 15.956 60.307 15.956C61.111 15.956 61.639 15.644 61.807 15.08H63.163C62.911 16.376 61.831 17.156 60.283 17.156ZM60.247 12.092C59.383 12.092 58.855 12.56 58.711 13.448H61.687C61.687 12.632 61.123 12.092 60.247 12.092ZM63.8547 15.2H65.2467C65.2587 15.716 65.6427 16.04 66.3147 16.04C66.9987 16.04 67.3707 15.764 67.3707 15.332C67.3707 15.032 67.2147 14.816 66.6867 14.696L65.6187 14.444C64.5507 14.204 64.0347 13.7 64.0347 12.752C64.0347 11.588 65.0187 10.892 66.3867 10.892C67.7187 10.892 68.6187 11.66 68.6307 12.812H67.2387C67.2267 12.308 66.8907 11.984 66.3267 11.984C65.7507 11.984 65.4147 12.248 65.4147 12.692C65.4147 13.028 65.6787 13.244 66.1827 13.364L67.2507 13.616C68.2467 13.844 68.7507 14.3 68.7507 15.212C68.7507 16.412 67.7307 17.156 66.2667 17.156C64.7907 17.156 63.8547 16.364 63.8547 15.2ZM71.3294 17H69.8654V8.072H71.3414V11.84C71.7134 11.264 72.4094 10.892 73.2614 10.892C74.7254 10.892 75.4934 11.816 75.4934 13.352V17H74.0294V13.7C74.0294 12.704 73.5374 12.224 72.7934 12.224C71.8694 12.224 71.3294 12.872 71.3294 13.76V17ZM76.9198 14.444V13.148H80.7838V14.444H76.9198ZM81.7375 15.2H83.1295C83.1415 15.716 83.5255 16.04 84.1975 16.04C84.8815 16.04 85.2535 15.764 85.2535 15.332C85.2535 15.032 85.0975 14.816 84.5695 14.696L83.5015 14.444C82.4335 14.204 81.9175 13.7 81.9175 12.752C81.9175 11.588 82.9015 10.892 84.2695 10.892C85.6015 10.892 86.5015 11.66 86.5135 12.812H85.1215C85.1095 12.308 84.7735 11.984 84.2095 11.984C83.6335 11.984 83.2975 12.248 83.2975 12.692C83.2975 13.028 83.5615 13.244 84.0655 13.364L85.1335 13.616C86.1295 13.844 86.6335 14.3 86.6335 15.212C86.6335 16.412 85.6135 17.156 84.1495 17.156C82.6735 17.156 81.7375 16.364 81.7375 15.2ZM87.4002 13.964C87.4002 12.104 88.5042 10.892 90.1722 10.892C91.0722 10.892 91.8522 11.288 92.2122 11.972L92.3082 11.072H93.6522V19.748H92.2002V16.208C91.8282 16.808 91.0482 17.156 90.1722 17.156C88.4082 17.156 87.4002 15.812 87.4002 13.964ZM88.8642 14.036C88.8642 15.092 89.4882 15.836 90.5082 15.836C91.5282 15.836 92.1882 15.104 92.1882 14.036C92.1882 12.968 91.5282 12.224 90.5082 12.224C89.4882 12.224 88.8642 12.98 88.8642 14.036ZM99.1979 11.072H100.662V17H99.3059L99.1979 16.208C98.8379 16.772 98.0699 17.156 97.2779 17.156C95.9099 17.156 95.1059 16.232 95.1059 14.78V11.072H96.5699V14.264C96.5699 15.392 97.0139 15.848 97.8299 15.848C98.7539 15.848 99.1979 15.308 99.1979 14.18V11.072ZM103.938 17.156C102.678 17.156 101.91 16.424 101.91 15.308C101.91 14.216 102.702 13.532 104.106 13.424L105.882 13.292V13.16C105.882 12.356 105.402 12.032 104.658 12.032C103.794 12.032 103.314 12.392 103.314 13.016H102.066C102.066 11.732 103.122 10.892 104.73 10.892C106.326 10.892 107.31 11.756 107.31 13.4V17H106.026L105.918 16.124C105.666 16.736 104.862 17.156 103.938 17.156ZM104.418 16.052C105.318 16.052 105.894 15.512 105.894 14.6V14.288L104.658 14.384C103.746 14.468 103.398 14.768 103.398 15.248C103.398 15.788 103.758 16.052 104.418 16.052ZM112.468 11.048V12.404H111.928C110.872 12.404 110.212 12.968 110.212 14.12V17H108.748V11.084H110.128L110.212 11.948C110.464 11.36 111.028 10.964 111.82 10.964C112.024 10.964 112.228 10.988 112.468 11.048ZM115.912 17.156C114.148 17.156 112.912 15.872 112.912 14.036C112.912 12.176 114.124 10.892 115.864 10.892C117.64 10.892 118.768 12.08 118.768 13.928V14.372L114.304 14.384C114.412 15.428 114.964 15.956 115.936 15.956C116.74 15.956 117.268 15.644 117.436 15.08H118.792C118.54 16.376 117.46 17.156 115.912 17.156ZM115.876 12.092C115.012 12.092 114.484 12.56 114.34 13.448H117.316C117.316 12.632 116.752 12.092 115.876 12.092ZM119.928 14.444V13.148H123.792V14.444H119.928ZM130.39 16.988L124.306 17V15.848L127.174 13.424C128.362 12.416 128.758 11.84 128.758 11C128.758 10.004 128.218 9.44 127.294 9.44C126.334 9.44 125.734 10.112 125.722 11.24H124.198C124.21 9.32 125.434 8.072 127.294 8.072C129.166 8.072 130.33 9.14 130.33 10.916C130.33 12.14 129.658 13.064 128.326 14.204L126.742 15.56H130.39V16.988Z" fill="black"/>
</svg>
