<svg width="108" height="24" viewBox="0 0 108 24" fill="none" xmlns="http://www.w3.org/2000/svg">
<path d="M18.9396 3.5H5.05957C4.64957 3.5 4.30957 3.16 4.30957 2.75C4.30957 2.34 4.64957 2 5.05957 2H18.9396C19.3496 2 19.6896 2.34 19.6896 2.75C19.6896 3.16 19.3496 3.5 18.9396 3.5Z" fill="#1A1A1A"/>
<path d="M18.9396 22H5.05957C4.64957 22 4.30957 21.66 4.30957 21.25C4.30957 20.84 4.64957 20.5 5.05957 20.5H18.9396C19.3496 20.5 19.6896 20.84 19.6896 21.25C19.6896 21.66 19.3496 22 18.9396 22Z" fill="#1A1A1A"/>
<path d="M2.75 8V16C2.75 17.66 4.09 19 5.75 19H18.25C19.91 19 21.25 17.66 21.25 16V8C21.25 6.34 19.91 5 18.25 5H5.75C4.09 5 2.75 6.34 2.75 8Z" fill="#1A1A1A"/>
<path d="M31.468 10.676C31.468 9.14 32.74 8.072 34.588 8.072C36.364 8.072 37.492 9.056 37.54 10.64H36.004C35.968 9.884 35.428 9.44 34.564 9.44C33.616 9.44 33.004 9.896 33.004 10.628C33.004 11.252 33.34 11.6 34.072 11.768L35.452 12.068C36.952 12.392 37.684 13.16 37.684 14.468C37.684 16.1 36.412 17.156 34.48 17.156C32.608 17.156 31.384 16.16 31.348 14.588H32.884C32.896 15.332 33.496 15.776 34.48 15.776C35.5 15.776 36.148 15.332 36.148 14.6C36.148 14.012 35.848 13.664 35.128 13.508L33.736 13.196C32.248 12.872 31.468 12.02 31.468 10.676ZM40.3336 17H38.8816V8.072H40.3336V17ZM42.6013 9.884C42.0973 9.884 41.7013 9.488 41.7013 8.996C41.7013 8.504 42.0973 8.12 42.6013 8.12C43.0813 8.12 43.4773 8.504 43.4773 8.996C43.4773 9.488 43.0813 9.884 42.6013 9.884ZM41.8693 17V11.072H43.3333V17H41.8693ZM47.2818 17.156C45.5658 17.156 44.4978 15.896 44.4978 14.06C44.4978 12.212 45.5778 10.892 47.3658 10.892C48.1938 10.892 48.9258 11.24 49.2978 11.828V8.072H50.7498V17H49.4058L49.3098 16.076C48.9498 16.76 48.1818 17.156 47.2818 17.156ZM47.6058 15.812C48.6258 15.812 49.2858 15.08 49.2858 14.012C49.2858 12.944 48.6258 12.2 47.6058 12.2C46.5858 12.2 45.9618 12.956 45.9618 14.012C45.9618 15.068 46.5858 15.812 47.6058 15.812ZM54.9275 17.156C53.1635 17.156 51.9275 15.872 51.9275 14.036C51.9275 12.176 53.1395 10.892 54.8795 10.892C56.6555 10.892 57.7835 12.08 57.7835 13.928V14.372L53.3195 14.384C53.4275 15.428 53.9795 15.956 54.9515 15.956C55.7555 15.956 56.2835 15.644 56.4515 15.08H57.8075C57.5555 16.376 56.4755 17.156 54.9275 17.156ZM54.8915 12.092C54.0275 12.092 53.4995 12.56 53.3555 13.448H56.3315C56.3315 12.632 55.7675 12.092 54.8915 12.092ZM62.6752 11.048V12.404H62.1352C61.0792 12.404 60.4192 12.968 60.4192 14.12V17H58.9552V11.084H60.3352L60.4192 11.948C60.6712 11.36 61.2352 10.964 62.0272 10.964C62.2312 10.964 62.4352 10.988 62.6752 11.048ZM63.2206 14.444V13.148H67.0846V14.444H63.2206ZM69.811 17L67.459 11.072H69.019L70.051 13.796C70.303 14.504 70.507 15.116 70.579 15.44C70.663 15.068 70.879 14.444 71.131 13.796L72.211 11.072H73.723L71.251 17H69.811ZM76.9236 17.156C75.1596 17.156 73.9236 15.872 73.9236 14.036C73.9236 12.176 75.1356 10.892 76.8756 10.892C78.6516 10.892 79.7796 12.08 79.7796 13.928V14.372L75.3156 14.384C75.4236 15.428 75.9756 15.956 76.9476 15.956C77.7516 15.956 78.2796 15.644 78.4476 15.08H79.8036C79.5516 16.376 78.4716 17.156 76.9236 17.156ZM76.8876 12.092C76.0236 12.092 75.4956 12.56 75.3516 13.448H78.3276C78.3276 12.632 77.7636 12.092 76.8876 12.092ZM84.6713 11.048V12.404H84.1313C83.0753 12.404 82.4153 12.968 82.4153 14.12V17H80.9513V11.084H82.3313L82.4153 11.948C82.6673 11.36 83.2313 10.964 84.0233 10.964C84.2273 10.964 84.4313 10.988 84.6713 11.048ZM87.9126 17H86.4486V12.296H85.3086V11.072H86.4486V9.224H87.9126V11.072H89.0646V12.296H87.9126V17ZM90.7068 9.884C90.2028 9.884 89.8068 9.488 89.8068 8.996C89.8068 8.504 90.2028 8.12 90.7068 8.12C91.1868 8.12 91.5828 8.504 91.5828 8.996C91.5828 9.488 91.1868 9.884 90.7068 9.884ZM89.9748 17V11.072H91.4388V17H89.9748ZM92.6033 14.024C92.6033 12.188 93.8153 10.892 95.5673 10.892C97.1873 10.892 98.2913 11.792 98.4473 13.22H96.9833C96.8153 12.548 96.3233 12.2 95.6273 12.2C94.6913 12.2 94.0673 12.908 94.0673 14.024C94.0673 15.14 94.6433 15.836 95.5793 15.836C96.3113 15.836 96.8273 15.476 96.9833 14.828H98.4593C98.2793 16.208 97.1273 17.156 95.5793 17.156C93.7793 17.156 92.6033 15.908 92.6033 14.024ZM101.313 17.156C100.053 17.156 99.285 16.424 99.285 15.308C99.285 14.216 100.077 13.532 101.481 13.424L103.257 13.292V13.16C103.257 12.356 102.777 12.032 102.033 12.032C101.169 12.032 100.689 12.392 100.689 13.016H99.441C99.441 11.732 100.497 10.892 102.105 10.892C103.701 10.892 104.685 11.756 104.685 13.4V17H103.401L103.293 16.124C103.041 16.736 102.237 17.156 101.313 17.156ZM101.793 16.052C102.693 16.052 103.269 15.512 103.269 14.6V14.288L102.033 14.384C101.121 14.468 100.773 14.768 100.773 15.248C100.773 15.788 101.133 16.052 101.793 16.052ZM107.599 17H106.147V8.072H107.599V17Z" fill="black"/>
</svg>
