<svg width="200" height="24" viewBox="0 0 200 24" fill="none" xmlns="http://www.w3.org/2000/svg">
<path d="M20.89 13V14H20.02C19.28 14 18.68 14.6 18.68 15.35V15.65C18.68 16.4 18.08 17 17.33 17C16.59 17 15.99 16.4 15.99 15.65V15.35C15.99 14.6 15.38 14 14.64 14C13.9 14 13.3 14.6 13.3 15.35V15.65C13.3 16.4 12.69 17 11.95 17C11.21 17 10.6 16.4 10.6 15.65V15.35C10.6 14.6 9.99999 14 9.25999 14C8.51999 14 7.90999 14.6 7.90999 15.35V15.65C7.90999 16.4 7.30999 17 6.56999 17C5.81999 17 5.21999 16.4 5.21999 15.65V15.33C5.21999 14.59 4.62999 13.99 3.89999 13.98H3.10999V13C3.10999 11.62 4.14999 10.45 5.55999 10.11C5.83999 10.04 6.12999 10 6.43999 10H17.56C17.87 10 18.16 10.04 18.44 10.11C19.85 10.45 20.89 11.62 20.89 13Z" fill="#1A1A1A"/>
<path d="M18.44 7.17V8.58C18.15 8.52 17.86 8.5 17.56 8.5H6.44C6.14 8.5 5.85 8.53 5.56 8.59V7.17C5.56 5.97 6.64 5 7.98 5H16.02C17.36 5 18.44 5.97 18.44 7.17Z" fill="#1A1A1A"/>
<path d="M8.75 3.55002V5.01002H7.98C7.72 5.01002 7.48 5.04002 7.25 5.10002V3.55002C7.25 3.20002 7.59 2.90002 8 2.90002C8.41 2.90002 8.75 3.20002 8.75 3.55002Z" fill="#1A1A1A"/>
<path d="M16.75 3.32996V5.09996C16.52 5.02996 16.28 4.99996 16.02 4.99996H15.25V3.32996C15.25 2.91996 15.59 2.57996 16 2.57996C16.41 2.57996 16.75 2.91996 16.75 3.32996Z" fill="#1A1A1A"/>
<path d="M12.75 2.82V5H11.25V2.82C11.25 2.37 11.59 2 12 2C12.41 2 12.75 2.37 12.75 2.82Z" fill="#1A1A1A"/>
<path d="M22 21.25C22 21.66 21.66 22 21.25 22H2.75C2.34 22 2 21.66 2 21.25C2 20.84 2.34 20.5 2.75 20.5H3.11V15.48H3.72V15.55C3.72 16.89 4.6 18.13 5.91 18.42C6.93 18.66 7.9 18.33 8.56 17.68C8.94 17.3 9.56 17.29 9.94 17.67C10.46 18.18 11.17 18.5 11.95 18.5C12.73 18.5 13.44 18.19 13.96 17.67C14.34 17.3 14.95 17.3 15.34 17.68C15.99 18.33 16.96 18.66 17.99 18.42C19.3 18.13 20.18 16.89 20.18 15.55V15.5H20.89V20.5H21.25C21.66 20.5 22 20.84 22 21.25Z" fill="#1A1A1A"/>
<path d="M38.68 16.144C36.124 16.144 34.468 14.368 34.468 11.62C34.468 8.896 36.184 7.084 38.752 7.084C40.828 7.084 42.376 8.296 42.676 10.18H41.056C40.756 9.16 39.88 8.56 38.716 8.56C37.096 8.56 36.076 9.736 36.076 11.608C36.076 13.468 37.108 14.668 38.716 14.668C39.904 14.668 40.816 14.044 41.104 13.072H42.7C42.364 14.92 40.756 16.144 38.68 16.144ZM45.5083 16.156C44.2483 16.156 43.4803 15.424 43.4803 14.308C43.4803 13.216 44.2723 12.532 45.6763 12.424L47.4523 12.292V12.16C47.4523 11.356 46.9723 11.032 46.2283 11.032C45.3643 11.032 44.8843 11.392 44.8843 12.016H43.6363C43.6363 10.732 44.6923 9.892 46.3003 9.892C47.8963 9.892 48.8803 10.756 48.8803 12.4V16H47.5963L47.4883 15.124C47.2363 15.736 46.4323 16.156 45.5083 16.156ZM45.9883 15.052C46.8883 15.052 47.4643 14.512 47.4643 13.6V13.288L46.2283 13.384C45.3163 13.468 44.9683 13.768 44.9683 14.248C44.9683 14.788 45.3283 15.052 45.9883 15.052ZM51.7945 16H50.3425V7.072H51.7945V12.556L54.0985 10.072H55.9345L53.6785 12.424L55.8865 16H54.2065L52.6585 13.504L51.7945 14.404V16ZM59.158 16.156C57.394 16.156 56.158 14.872 56.158 13.036C56.158 11.176 57.37 9.892 59.11 9.892C60.886 9.892 62.014 11.08 62.014 12.928V13.372L57.55 13.384C57.658 14.428 58.21 14.956 59.182 14.956C59.986 14.956 60.514 14.644 60.682 14.08H62.038C61.786 15.376 60.706 16.156 59.158 16.156ZM59.122 11.092C58.258 11.092 57.73 11.56 57.586 12.448H60.562C60.562 11.632 59.998 11.092 59.122 11.092Z" fill="black"/>
</svg>
