<svg width="117" height="24" viewBox="0 0 117 24" fill="none" xmlns="http://www.w3.org/2000/svg">
<path fill-rule="evenodd" clip-rule="evenodd" d="M12 2C6.48 2 2 6.48 2 12C2 17.52 6.48 22 12 22C17.52 22 22 17.52 22 12C22 6.48 17.52 2 12 2ZM17.31 15.31C17.02 15.47 16.78 15.54 16.58 15.59C16.41 15.63 16.27 15.67 16.15 15.75C16.02 15.83 16.01 15.96 15.99 16.08C15.97 16.19 15.96 16.28 15.88 16.34C15.79 16.4 15.62 16.41 15.39 16.42C15.09 16.44 14.71 16.45 14.25 16.59C14.03 16.67 13.83 16.79 13.63 16.91C13.23 17.16 12.78 17.43 11.99 17.43C11.21 17.43 10.76 17.16 10.36 16.91C10.16 16.78 9.96001 16.66 9.73001 16.58C9.28001 16.44 8.89 16.42 8.59 16.41C8.36 16.4 8.20001 16.39 8.10001 16.33C8.02001 16.28 8.00999 16.18 7.98999 16.07C7.96999 15.95 7.95999 15.82 7.82999 15.74C7.70999 15.66 7.55999 15.62 7.39999 15.57C7.19999 15.52 6.96001 15.46 6.67001 15.3C6.33001 15.11 6.53001 15 6.64001 14.94C8.57001 14.01 8.87 12.57 8.88 12.46C8.88 12.45 8.88 12.45 8.88 12.44C8.9 12.32 8.90999 12.22 8.76999 12.09C8.67999 12 8.37 11.8 8.12 11.64C8.00999 11.56 7.91001 11.5 7.85001 11.47C7.57001 11.27 7.45001 11.08 7.54001 10.83C7.60001 10.66 7.76001 10.6 7.92001 10.6C7.97001 10.6 8.03001 10.61 8.07001 10.62C8.25001 10.66 8.43 10.73 8.59 10.79C8.7 10.84 8.78999 10.87 8.85999 10.89C8.87999 10.9 8.91001 10.9 8.92001 10.9C9.02001 10.9 9.05001 10.85 9.04001 10.75C9.04001 10.72 9.04 10.69 9.03 10.66C9.01 10.31 8.97999 9.70001 9.01999 9.14001C9.09999 8.30001 9.37 7.87001 9.69 7.51001C9.85 7.33001 10.58 6.56 11.97 6.56C13.37 6.56 14.09 7.33 14.25 7.5C14.57 7.87 14.84 8.29001 14.92 9.14001C14.97 9.73001 14.93 10.36 14.9 10.71V10.74C14.89 10.85 14.92 10.89 15.02 10.89C15.04 10.89 15.06 10.89 15.08 10.88C15.15 10.86 15.24 10.83 15.35 10.79C15.5 10.73 15.68 10.66 15.87 10.62C15.92 10.6 15.97 10.6 16.02 10.6C16.19 10.6 16.34 10.67 16.4 10.84C16.49 11.08 16.37 11.27 16.09 11.47C16.04 11.51 15.94 11.58 15.82 11.64C15.58 11.8 15.26 12 15.17 12.09C15.03 12.22 15.04 12.32 15.06 12.44C15.06 12.45 15.06 12.46 15.06 12.46C15.08 12.57 15.38 14.01 17.3 14.94C17.45 15 17.65 15.12 17.31 15.31Z" fill="#1A1A1A"/>
<path d="M34.468 9.676C34.468 8.14 35.74 7.072 37.588 7.072C39.364 7.072 40.492 8.056 40.54 9.64H39.004C38.968 8.884 38.428 8.44 37.564 8.44C36.616 8.44 36.004 8.896 36.004 9.628C36.004 10.252 36.34 10.6 37.072 10.768L38.452 11.068C39.952 11.392 40.684 12.16 40.684 13.468C40.684 15.1 39.412 16.156 37.48 16.156C35.608 16.156 34.384 15.16 34.348 13.588H35.884C35.896 14.332 36.496 14.776 37.48 14.776C38.5 14.776 39.148 14.332 39.148 13.6C39.148 13.012 38.848 12.664 38.128 12.508L36.736 12.196C35.248 11.872 34.468 11.02 34.468 9.676ZM43.3216 16H41.8576V10.072H43.2136L43.3336 10.84C43.7056 10.24 44.4256 9.892 45.2296 9.892C46.7176 9.892 47.4856 10.816 47.4856 12.352V16H46.0216V12.7C46.0216 11.704 45.5296 11.224 44.7736 11.224C43.8736 11.224 43.3216 11.848 43.3216 12.808V16ZM50.688 16.156C49.428 16.156 48.66 15.424 48.66 14.308C48.66 13.216 49.452 12.532 50.856 12.424L52.632 12.292V12.16C52.632 11.356 52.152 11.032 51.408 11.032C50.544 11.032 50.064 11.392 50.064 12.016H48.816C48.816 10.732 49.872 9.892 51.48 9.892C53.076 9.892 54.06 10.756 54.06 12.4V16H52.776L52.668 15.124C52.416 15.736 51.612 16.156 50.688 16.156ZM51.168 15.052C52.068 15.052 52.644 14.512 52.644 13.6V13.288L51.408 13.384C50.496 13.468 50.148 13.768 50.148 14.248C50.148 14.788 50.508 15.052 51.168 15.052ZM55.4982 18.748V10.072H56.8542L56.9502 10.972C57.3102 10.288 58.0902 9.892 58.9902 9.892C60.6582 9.892 61.7622 11.104 61.7622 12.964C61.7622 14.812 60.7542 16.156 58.9902 16.156C58.1022 16.156 57.3342 15.808 56.9622 15.208V18.748H55.4982ZM56.9742 13.036C56.9742 14.104 57.6342 14.836 58.6422 14.836C59.6742 14.836 60.2862 14.092 60.2862 13.036C60.2862 11.98 59.6742 11.224 58.6422 11.224C57.6342 11.224 56.9742 11.968 56.9742 13.036ZM62.5799 13.024C62.5799 11.188 63.7919 9.892 65.5439 9.892C67.1639 9.892 68.2679 10.792 68.4239 12.22H66.9599C66.7919 11.548 66.2999 11.2 65.6039 11.2C64.6679 11.2 64.0439 11.908 64.0439 13.024C64.0439 14.14 64.6199 14.836 65.5559 14.836C66.2879 14.836 66.8039 14.476 66.9599 13.828H68.4359C68.2559 15.208 67.1039 16.156 65.5559 16.156C63.7559 16.156 62.5799 14.908 62.5799 13.024ZM70.9895 16H69.5255V7.072H71.0015V10.84C71.3735 10.264 72.0695 9.892 72.9215 9.892C74.3855 9.892 75.1535 10.816 75.1535 12.352V16H73.6895V12.7C73.6895 11.704 73.1975 11.224 72.4535 11.224C71.5295 11.224 70.9895 11.872 70.9895 12.76V16ZM78.3559 16.156C77.0959 16.156 76.3279 15.424 76.3279 14.308C76.3279 13.216 77.1199 12.532 78.5239 12.424L80.2999 12.292V12.16C80.2999 11.356 79.8199 11.032 79.0759 11.032C78.2119 11.032 77.7319 11.392 77.7319 12.016H76.4839C76.4839 10.732 77.5399 9.892 79.1479 9.892C80.7439 9.892 81.7279 10.756 81.7279 12.4V16H80.4439L80.3359 15.124C80.0839 15.736 79.2799 16.156 78.3559 16.156ZM78.8359 15.052C79.7359 15.052 80.3119 14.512 80.3119 13.6V13.288L79.0759 13.384C78.1639 13.468 77.8159 13.768 77.8159 14.248C77.8159 14.788 78.1759 15.052 78.8359 15.052ZM85.1001 16H83.6361V11.296H82.4961V10.072H83.6361V8.224H85.1001V10.072H86.2521V11.296H85.1001V16Z" fill="black"/>
</svg>
