<svg width="153" height="24" viewBox="0 0 153 24" fill="none" xmlns="http://www.w3.org/2000/svg">
<path d="M7.75 3.5V2C7.75 1.59 7.41 1.25 7 1.25C6.59 1.25 6.25 1.59 6.25 2V3.56C6.5 3.53 6.73 3.5 7 3.5H7.75Z" fill="#1A1A1A"/>
<path d="M15.75 3.56V2C15.75 1.59 15.41 1.25 15 1.25C14.59 1.25 14.25 1.59 14.25 2V3.5H15C15.27 3.5 15.5 3.53 15.75 3.56Z" fill="#1A1A1A"/>
<path d="M21.29 14.97C20.52 14.36 19.55 14 18.5 14C17.45 14 16.46 14.37 15.69 14.99C14.65 15.81 14 17.09 14 18.5C14 19.34 14.24 20.15 14.65 20.81C14.97 21.33 15.38 21.79 15.87 22.14C16.61 22.68 17.51 23 18.5 23C19.64 23 20.67 22.58 21.46 21.88C21.81 21.59 22.11 21.23 22.35 20.82C22.76 20.15 23 19.34 23 18.5C23 17.07 22.33 15.79 21.29 14.97ZM18.5 20.64C18.5 19.46 17.54 18.5 16.36 18.5C17.54 18.5 18.5 17.54 18.5 16.36C18.5 17.54 19.46 18.5 20.64 18.5C19.46 18.5 18.5 19.46 18.5 20.64Z" fill="#1A1A1A"/>
<path d="M15.75 3.56V5C15.75 5.41 15.41 5.75 15 5.75C14.59 5.75 14.25 5.41 14.25 5V3.5H7.75V5C7.75 5.41 7.41 5.75 7 5.75C6.59 5.75 6.25 5.41 6.25 5V3.56C3.3 3.83 2 5.73 2 8.5V17C2 20 3.5 22 7 22H11.13C11.89 22 12.4 21.15 12.21 20.41C12.07 19.87 12 19.31 12 18.75C12 16.67 12.93 14.75 14.54 13.48C15.71 12.53 17.21 12 18.75 12H18.79C19.42 12 20 11.54 20 10.91V8.5C20 5.73 18.7 3.83 15.75 3.56ZM9 16.75H7C6.59 16.75 6.25 16.41 6.25 16C6.25 15.59 6.59 15.25 7 15.25H9C9.41 15.25 9.75 15.59 9.75 16C9.75 16.41 9.41 16.75 9 16.75ZM12 11.75H7C6.59 11.75 6.25 11.41 6.25 11C6.25 10.59 6.59 10.25 7 10.25H12C12.41 10.25 12.75 10.59 12.75 11C12.75 11.41 12.41 11.75 12 11.75Z" fill="#1A1A1A"/>
<path d="M36.484 17H34.972V8.228H36.496L40.612 14.444V8.228H42.124V17H40.612L36.484 10.784V17ZM43.5018 14.024C43.5018 12.176 44.8338 10.904 46.6698 10.904C48.5058 10.904 49.8378 12.176 49.8378 14.024C49.8378 15.872 48.5058 17.144 46.6698 17.144C44.8338 17.144 43.5018 15.872 43.5018 14.024ZM44.9658 14.024C44.9658 15.104 45.6618 15.836 46.6698 15.836C47.6778 15.836 48.3738 15.104 48.3738 14.024C48.3738 12.944 47.6778 12.212 46.6698 12.212C45.6618 12.212 44.9658 12.944 44.9658 14.024ZM52.9556 17H51.4916V12.296H50.3516V11.072H51.4916V9.224H52.9556V11.072H54.1076V12.296H52.9556V17ZM57.6111 17.156C55.8471 17.156 54.6111 15.872 54.6111 14.036C54.6111 12.176 55.8231 10.892 57.5631 10.892C59.3391 10.892 60.4671 12.08 60.4671 13.928V14.372L56.0031 14.384C56.1111 15.428 56.6631 15.956 57.6351 15.956C58.4391 15.956 58.9671 15.644 59.1351 15.08H60.4911C60.2391 16.376 59.1591 17.156 57.6111 17.156ZM57.5751 12.092C56.7111 12.092 56.1831 12.56 56.0391 13.448H59.0151C59.0151 12.632 58.4511 12.092 57.5751 12.092ZM61.6268 14.444V13.148H65.4908V14.444H61.6268ZM66.1602 11.072H67.0122V10.352C67.0122 8.744 67.8642 8.072 69.1482 8.072C69.3762 8.072 69.6522 8.084 69.9042 8.132V9.38H69.3882C68.6442 9.38 68.4642 9.764 68.4642 10.352V11.072H69.8802V12.296H68.4642V17H67.0122V12.296H66.1602V11.072ZM72.4263 17.156C71.1663 17.156 70.3983 16.424 70.3983 15.308C70.3983 14.216 71.1903 13.532 72.5943 13.424L74.3703 13.292V13.16C74.3703 12.356 73.8903 12.032 73.1463 12.032C72.2823 12.032 71.8023 12.392 71.8023 13.016H70.5543C70.5543 11.732 71.6103 10.892 73.2183 10.892C74.8143 10.892 75.7983 11.756 75.7983 13.4V17H74.5143L74.4063 16.124C74.1543 16.736 73.3503 17.156 72.4263 17.156ZM72.9062 16.052C73.8063 16.052 74.3823 15.512 74.3823 14.6V14.288L73.1463 14.384C72.2343 14.468 71.8863 14.768 71.8863 15.248C71.8863 15.788 72.2463 16.052 72.9062 16.052ZM78.6821 17L76.3301 11.072H77.8901L78.9221 13.796C79.1741 14.504 79.3781 15.116 79.4501 15.44C79.5341 15.068 79.7501 14.444 80.0021 13.796L81.0821 11.072H82.5941L80.1221 17H78.6821ZM82.7947 14.024C82.7947 12.176 84.1267 10.904 85.9627 10.904C87.7987 10.904 89.1307 12.176 89.1307 14.024C89.1307 15.872 87.7987 17.144 85.9627 17.144C84.1267 17.144 82.7947 15.872 82.7947 14.024ZM84.2587 14.024C84.2587 15.104 84.9547 15.836 85.9627 15.836C86.9707 15.836 87.6667 15.104 87.6667 14.024C87.6667 12.944 86.9707 12.212 85.9627 12.212C84.9547 12.212 84.2587 12.944 84.2587 14.024ZM94.0112 11.048V12.404H93.4712C92.4152 12.404 91.7552 12.968 91.7552 14.12V17H90.2912V11.084H91.6712L91.7552 11.948C92.0072 11.36 92.5712 10.964 93.3632 10.964C93.5672 10.964 93.7712 10.988 94.0112 11.048ZM95.7341 9.884C95.2301 9.884 94.8341 9.488 94.8341 8.996C94.8341 8.504 95.2301 8.12 95.7341 8.12C96.2141 8.12 96.6101 8.504 96.6101 8.996C96.6101 9.488 96.2141 9.884 95.7341 9.884ZM95.0021 17V11.072H96.4661V17H95.0021ZM99.9947 17H98.5307V12.296H97.3907V11.072H98.5307V9.224H99.9947V11.072H101.147V12.296H99.9947V17ZM104.65 17.156C102.886 17.156 101.65 15.872 101.65 14.036C101.65 12.176 102.862 10.892 104.602 10.892C106.378 10.892 107.506 12.08 107.506 13.928V14.372L103.042 14.384C103.15 15.428 103.702 15.956 104.674 15.956C105.478 15.956 106.006 15.644 106.174 15.08H107.53C107.278 16.376 106.198 17.156 104.65 17.156ZM104.614 12.092C103.75 12.092 103.222 12.56 103.078 13.448H106.054C106.054 12.632 105.49 12.092 104.614 12.092Z" fill="black"/>
</svg>
