<svg width="101" height="24" viewBox="0 0 101 24" fill="none" xmlns="http://www.w3.org/2000/svg">
<path d="M21.5 15.5C21.78 15.5 22 15.72 22 16V17C22 18.66 20.66 20 19 20C19 18.35 17.65 17 16 17C14.35 17 13 18.35 13 20H11C11 18.35 9.65 17 8 17C6.35 17 5 18.35 5 20C3.34 20 2 18.66 2 17V15C2 14.45 2.45 14 3 14H12.5C13.88 14 15 12.88 15 11.5V6C15 5.45 15.45 5 16 5H16.84C17.56 5 18.22 5.39 18.58 6.01L19.22 7.13C19.31 7.29 19.19 7.5 19 7.5C17.62 7.5 16.5 8.62 16.5 10V13C16.5 14.38 17.62 15.5 19 15.5H21.5Z" fill="#1A1A1A"/>
<path d="M8 22C9.10457 22 10 21.1046 10 20C10 18.8954 9.10457 18 8 18C6.89543 18 6 18.8954 6 20C6 21.1046 6.89543 22 8 22Z" fill="#1A1A1A"/>
<path d="M16 22C17.1046 22 18 21.1046 18 20C18 18.8954 17.1046 18 16 18C14.8954 18 14 18.8954 14 20C14 21.1046 14.8954 22 16 22Z" fill="#1A1A1A"/>
<path d="M22 12.53V14H19C18.45 14 18 13.55 18 13V10C18 9.45 18.45 9 19 9H20.29L21.74 11.54C21.91 11.84 22 12.18 22 12.53Z" fill="#1A1A1A"/>
<path d="M13.08 2H5.69C3.9 2 2.4 3.28 2.07 4.98H6.44C6.82 4.98 7.12 5.29 7.12 5.67C7.12 6.05 6.82 6.35 6.44 6.35H2V7.73H4.6C4.98 7.73 5.29 8.04 5.29 8.42C5.29 8.8 4.98 9.1 4.6 9.1H2V10.48H2.77C3.15 10.48 3.46 10.79 3.46 11.17C3.46 11.55 3.15 11.85 2.77 11.85H2V12.08C2 12.63 2.45 13.08 3 13.08H12.15C13.17 13.08 14 12.25 14 11.23V2.92C14 2.41 13.59 2 13.08 2Z" fill="#1A1A1A"/>
<path d="M2.07 4.98047H1.92H0.94C0.56 4.98047 0.25 5.29047 0.25 5.67047C0.25 6.05047 0.56 6.35047 0.94 6.35047H1.85H2V5.69047C2 5.45047 2.03 5.21047 2.07 4.98047Z" fill="#1A1A1A"/>
<path d="M1.85 7.73047H0.94C0.56 7.73047 0.25 8.04047 0.25 8.42047C0.25 8.80047 0.56 9.10047 0.94 9.10047H1.85H2V7.73047H1.85Z" fill="#1A1A1A"/>
<path d="M1.85 10.4805H0.94C0.56 10.4805 0.25 10.7905 0.25 11.1705C0.25 11.5505 0.56 11.8505 0.94 11.8505H1.85H2V10.4805H1.85Z" fill="#1A1A1A"/>
<path d="M38.812 8.524C37.072 8.524 36.076 9.784 36.076 11.68C36.076 13.636 37.204 14.704 38.824 14.704C40.348 14.704 41.272 13.864 41.272 12.46V12.424H38.62V11.068H42.7V16H41.404L41.308 14.992C40.828 15.664 39.832 16.132 38.644 16.132C36.184 16.132 34.468 14.344 34.468 11.644C34.468 8.98 36.208 7.084 38.848 7.084C40.852 7.084 42.4 8.248 42.652 10.036H41.032C40.756 9.004 39.868 8.524 38.812 8.524ZM47.8627 10.048V11.404H47.3227C46.2667 11.404 45.6067 11.968 45.6067 13.12V16H44.1427V10.084H45.5227L45.6067 10.948C45.8587 10.36 46.4227 9.964 47.2147 9.964C47.4187 9.964 47.6227 9.988 47.8627 10.048ZM48.3064 13.024C48.3064 11.176 49.6384 9.904 51.4744 9.904C53.3104 9.904 54.6424 11.176 54.6424 13.024C54.6424 14.872 53.3104 16.144 51.4744 16.144C49.6384 16.144 48.3064 14.872 48.3064 13.024ZM49.7704 13.024C49.7704 14.104 50.4664 14.836 51.4744 14.836C52.4824 14.836 53.1784 14.104 53.1784 13.024C53.1784 11.944 52.4824 11.212 51.4744 11.212C50.4664 11.212 49.7704 11.944 49.7704 13.024ZM59.6823 10.072H61.1463V16H59.7903L59.6823 15.208C59.3223 15.772 58.5543 16.156 57.7623 16.156C56.3943 16.156 55.5903 15.232 55.5903 13.78V10.072H57.0543V13.264C57.0543 14.392 57.4983 14.848 58.3143 14.848C59.2383 14.848 59.6823 14.308 59.6823 13.18V10.072ZM62.6583 18.748V10.072H64.0143L64.1103 10.972C64.4703 10.288 65.2503 9.892 66.1503 9.892C67.8183 9.892 68.9223 11.104 68.9223 12.964C68.9223 14.812 67.9143 16.156 66.1503 16.156C65.2623 16.156 64.4943 15.808 64.1223 15.208V18.748H62.6583ZM64.1343 13.036C64.1343 14.104 64.7943 14.836 65.8023 14.836C66.8343 14.836 67.4463 14.092 67.4463 13.036C67.4463 11.98 66.8343 11.224 65.8023 11.224C64.7943 11.224 64.1343 11.968 64.1343 13.036ZM70.076 13.444V12.148H73.94V13.444H70.076ZM80.5383 15.988L74.4543 16V14.848L77.3223 12.424C78.5103 11.416 78.9063 10.84 78.9063 10C78.9063 9.004 78.3663 8.44 77.4423 8.44C76.4823 8.44 75.8823 9.112 75.8703 10.24H74.3463C74.3583 8.32 75.5823 7.072 77.4423 7.072C79.3143 7.072 80.4783 8.14 80.4783 9.916C80.4783 11.14 79.8063 12.064 78.4743 13.204L76.8903 14.56H80.5383V15.988Z" fill="black"/>
</svg>
