<svg width="101" height="24" viewBox="0 0 101 24" fill="none" xmlns="http://www.w3.org/2000/svg">
<path d="M16.19 2H7.81C4.17 2 2 4.17 2 7.81V16.18C2 19.83 4.17 22 7.81 22H16.18C19.82 22 21.99 19.83 21.99 16.19V7.81C22 4.17 19.83 2 16.19 2ZM9.91 16.19C9.91 16.83 9.39 17.35 8.74 17.35C8.1 17.35 7.58 16.83 7.58 16.19V12.93C7.58 12.29 8.1 11.77 8.74 11.77C9.39 11.77 9.91 12.29 9.91 12.93V16.19ZM16.42 16.19C16.42 16.83 15.9 17.35 15.26 17.35C14.61 17.35 14.09 16.83 14.09 16.19V7.81C14.09 7.17 14.61 6.65 15.26 6.65C15.9 6.65 16.42 7.17 16.42 7.81V16.19Z" fill="#1A1A1A"/>
<path d="M38.68 16.144C36.124 16.144 34.468 14.368 34.468 11.62C34.468 8.896 36.184 7.084 38.752 7.084C40.828 7.084 42.376 8.296 42.676 10.18H41.056C40.756 9.16 39.88 8.56 38.716 8.56C37.096 8.56 36.076 9.736 36.076 11.608C36.076 13.468 37.108 14.668 38.716 14.668C39.904 14.668 40.816 14.044 41.104 13.072H42.7C42.364 14.92 40.756 16.144 38.68 16.144ZM45.2669 16H43.8029V7.072H45.2789V10.84C45.6509 10.264 46.3469 9.892 47.1989 9.892C48.6629 9.892 49.4309 10.816 49.4309 12.352V16H47.9669V12.7C47.9669 11.704 47.4749 11.224 46.7309 11.224C45.8069 11.224 45.2669 11.872 45.2669 12.76V16ZM52.6333 16.156C51.3733 16.156 50.6053 15.424 50.6053 14.308C50.6053 13.216 51.3973 12.532 52.8013 12.424L54.5773 12.292V12.16C54.5773 11.356 54.0973 11.032 53.3533 11.032C52.4893 11.032 52.0093 11.392 52.0093 12.016H50.7613C50.7613 10.732 51.8173 9.892 53.4253 9.892C55.0213 9.892 56.0053 10.756 56.0053 12.4V16H54.7213L54.6133 15.124C54.3613 15.736 53.5573 16.156 52.6333 16.156ZM53.1133 15.052C54.0133 15.052 54.5893 14.512 54.5893 13.6V13.288L53.3533 13.384C52.4413 13.468 52.0933 13.768 52.0933 14.248C52.0933 14.788 52.4533 15.052 53.1133 15.052ZM61.1635 10.048V11.404H60.6235C59.5675 11.404 58.9075 11.968 58.9075 13.12V16H57.4435V10.084H58.8235L58.9075 10.948C59.1595 10.36 59.7235 9.964 60.5155 9.964C60.7195 9.964 60.9235 9.988 61.1635 10.048ZM64.4048 16H62.9408V11.296H61.8008V10.072H62.9408V8.224H64.4048V10.072H65.5568V11.296H64.4048V16ZM66.2206 13.444V12.148H70.0846V13.444H66.2206ZM76.6829 15.988L70.5989 16V14.848L73.4669 12.424C74.6549 11.416 75.0509 10.84 75.0509 10C75.0509 9.004 74.5109 8.44 73.5869 8.44C72.6269 8.44 72.0269 9.112 72.0149 10.24H70.4909C70.5029 8.32 71.7269 7.072 73.5869 7.072C75.4589 7.072 76.6229 8.14 76.6229 9.916C76.6229 11.14 75.9509 12.064 74.6189 13.204L73.0349 14.56H76.6829V15.988Z" fill="black"/>
</svg>
