<svg width="200" height="24" viewBox="0 0 200 24" fill="none" xmlns="http://www.w3.org/2000/svg">
<path d="M17.88 6.11998L3.92 20.08C3.49 20.51 2.77 20.47 2.42 19.98C1.92 19.29 1.82 18.33 2.34 17.5L5.1 13.07C5.47 12.48 5.47 11.52 5.1 10.93L2.34 6.49998C1.41 5.01998 2.48 3.09998 4.22 3.09998H15.67C16.35 3.09998 17.19 3.56998 17.55 4.13998L18.02 4.87998C18.26 5.27998 18.21 5.78998 17.88 6.11998Z" fill="#1A1A1A"/>
<path d="M21.63 13.11L16.45 20.01C16.09 20.5 15.29 20.9 14.67 20.9H7.51C6.62 20.9 6.17 19.82 6.8 19.19L18.32 7.67999C18.77 7.22999 19.54 7.30999 19.88 7.85999L21.73 10.83C22.13 11.47 22.09 12.5 21.63 13.11Z" fill="#1A1A1A"/>
<path d="M34.204 8.644V7.228H40.876V8.644H38.308V16H36.772V8.644H34.204ZM42.5903 16.156C41.3303 16.156 40.5623 15.424 40.5623 14.308C40.5623 13.216 41.3543 12.532 42.7583 12.424L44.5343 12.292V12.16C44.5343 11.356 44.0543 11.032 43.3103 11.032C42.4463 11.032 41.9663 11.392 41.9663 12.016H40.7183C40.7183 10.732 41.7743 9.892 43.3823 9.892C44.9783 9.892 45.9623 10.756 45.9623 12.4V16H44.6783L44.5703 15.124C44.3183 15.736 43.5143 16.156 42.5903 16.156ZM43.0703 15.052C43.9703 15.052 44.5463 14.512 44.5463 13.6V13.288L43.3103 13.384C42.3983 13.468 42.0503 13.768 42.0503 14.248C42.0503 14.788 42.4103 15.052 43.0703 15.052ZM47.0645 12.904C47.0645 11.176 48.1925 9.88 49.8845 9.88C50.7725 9.88 51.4685 10.252 51.8165 10.888L51.9005 10.072H53.2565V15.7C53.2565 17.68 52.0685 18.916 50.1485 18.916C48.4445 18.916 47.2805 17.944 47.1005 16.36H48.5645C48.6605 17.128 49.2485 17.584 50.1485 17.584C51.1565 17.584 51.8045 16.948 51.8045 15.964V14.98C51.4325 15.532 50.7005 15.88 49.8485 15.88C48.1685 15.88 47.0645 14.62 47.0645 12.904ZM48.5405 12.868C48.5405 13.864 49.1765 14.608 50.1365 14.608C51.1445 14.608 51.7685 13.9 51.7685 12.868C51.7685 11.86 51.1565 11.164 50.1365 11.164C49.1645 11.164 48.5405 11.896 48.5405 12.868ZM54.7596 13.444V12.148H58.6236V13.444H54.7596ZM63.8354 10.048V11.404H63.2954C62.2394 11.404 61.5794 11.968 61.5794 13.12V16H60.1154V10.084H61.4954L61.5794 10.948C61.8314 10.36 62.3954 9.964 63.1874 9.964C63.3914 9.964 63.5954 9.988 63.8354 10.048ZM65.5583 8.884C65.0543 8.884 64.6583 8.488 64.6583 7.996C64.6583 7.504 65.0543 7.12 65.5583 7.12C66.0383 7.12 66.4343 7.504 66.4343 7.996C66.4343 8.488 66.0383 8.884 65.5583 8.884ZM64.8263 16V10.072H66.2903V16H64.8263ZM67.4669 12.904C67.4669 11.176 68.5949 9.88 70.2869 9.88C71.1749 9.88 71.8709 10.252 72.2189 10.888L72.3029 10.072H73.6589V15.7C73.6589 17.68 72.4709 18.916 70.5509 18.916C68.8469 18.916 67.6829 17.944 67.5029 16.36H68.9669C69.0629 17.128 69.6509 17.584 70.5509 17.584C71.5589 17.584 72.2069 16.948 72.2069 15.964V14.98C71.8349 15.532 71.1029 15.88 70.2509 15.88C68.5709 15.88 67.4669 14.62 67.4669 12.904ZM68.9429 12.868C68.9429 13.864 69.5789 14.608 70.5389 14.608C71.5469 14.608 72.1709 13.9 72.1709 12.868C72.1709 11.86 71.5589 11.164 70.5389 11.164C69.5669 11.164 68.9429 11.896 68.9429 12.868ZM76.638 16H75.174V7.072H76.65V10.84C77.022 10.264 77.718 9.892 78.57 9.892C80.034 9.892 80.802 10.816 80.802 12.352V16H79.338V12.7C79.338 11.704 78.846 11.224 78.102 11.224C77.178 11.224 76.638 11.872 76.638 12.76V16ZM84.2564 16H82.7924V11.296H81.6524V10.072H82.7924V8.224H84.2564V10.072H85.4084V11.296H84.2564V16Z" fill="black"/>
</svg>
