<svg width="101" height="24" viewBox="0 0 101 24" fill="none" xmlns="http://www.w3.org/2000/svg">
<path d="M12 2C6.48 2 2 6.48 2 12C2 17.52 6.48 22 12 22C17.52 22 22 17.52 22 12C22 6.48 17.52 2 12 2ZM18.5 14.02C18.5 14.2 18.4 14.36 18.25 14.45L16.25 15.6C16.1 15.69 15.91 15.69 15.75 15.6L13.75 14.45C13.59 14.36 13.5 14.2 13.5 14.02V13.19L12.25 13.91C12.1 14 11.91 14 11.75 13.91L10.5 13.19V14.02C10.5 14.2 10.4 14.36 10.25 14.45L8.25 15.6C8.1 15.69 7.91 15.69 7.75 15.6L5.75 14.45C5.59 14.36 5.5 14.2 5.5 14.02V11.74C5.5 11.56 5.6 11.4 5.75 11.31L7.75 10.16C7.9 10.07 8.1 10.07 8.25 10.16L9.25 10.74V9.61C9.25 9.43 9.35 9.26999 9.5 9.17999L11.75 7.89C11.9 7.8 12.09 7.8 12.25 7.89L14.5 9.17999C14.66 9.26999 14.75 9.43 14.75 9.61V10.74L15.75 10.16C15.9 10.07 16.09 10.07 16.25 10.16L18.25 11.31C18.41 11.4 18.5 11.56 18.5 11.74V14.02Z" fill="#1A1A1A"/>
<path d="M40.684 16H34.372V14.572L38.704 8.644H34.468V7.228H40.612V8.596L36.244 14.584H40.684V16ZM44.3455 16.156C42.5815 16.156 41.3455 14.872 41.3455 13.036C41.3455 11.176 42.5575 9.892 44.2975 9.892C46.0735 9.892 47.2015 11.08 47.2015 12.928V13.372L42.7375 13.384C42.8455 14.428 43.3975 14.956 44.3695 14.956C45.1735 14.956 45.7015 14.644 45.8695 14.08H47.2255C46.9735 15.376 45.8935 16.156 44.3455 16.156ZM44.3095 11.092C43.4455 11.092 42.9175 11.56 42.7735 12.448H45.7495C45.7495 11.632 45.1855 11.092 44.3095 11.092ZM49.8492 16H48.3972V7.072H49.8492V16ZM51.3729 13.444V12.148H55.2369V13.444H51.3729ZM59.6687 18.292H58.5047C57.3047 16.924 56.5127 14.776 56.5127 12.472C56.5127 10.372 57.1847 8.164 58.5047 6.664H59.6687C58.6727 8.02 57.9887 10.144 57.9887 12.472C57.9887 14.596 58.5767 16.804 59.6687 18.292ZM64.8961 16H60.1081V14.8L63.0601 11.296H60.1081V10.072H64.8961V11.284L61.8961 14.776H64.8961V16ZM68.6736 16.156C66.9096 16.156 65.6736 14.872 65.6736 13.036C65.6736 11.176 66.8856 9.892 68.6256 9.892C70.4016 9.892 71.5296 11.08 71.5296 12.928V13.372L67.0656 13.384C67.1736 14.428 67.7256 14.956 68.6976 14.956C69.5016 14.956 70.0296 14.644 70.1976 14.08H71.5536C71.3016 15.376 70.2216 16.156 68.6736 16.156ZM68.6376 11.092C67.7736 11.092 67.2456 11.56 67.1016 12.448H70.0776C70.0776 11.632 69.5136 11.092 68.6376 11.092ZM74.1773 16H72.7253V7.072H74.1773V16ZM76.121 18.292H74.957C76.061 16.804 76.637 14.596 76.637 12.472C76.637 10.144 75.953 8.02 74.957 6.664H76.121C77.441 8.164 78.125 10.372 78.125 12.472C78.125 14.776 77.321 16.924 76.121 18.292Z" fill="black"/>
</svg>
