<svg width="141" height="24" viewBox="0 0 141 24" fill="none" xmlns="http://www.w3.org/2000/svg">
<path d="M19.8305 8.70005L15.3005 4.17005C14.3505 3.22005 13.0405 2.71005 11.7005 2.78005L6.70046 3.02005C4.70046 3.11005 3.11046 4.70005 3.01046 6.69005L2.77046 11.69C2.71046 13.03 3.21046 14.34 4.16046 15.29L8.69046 19.82C10.5505 21.68 13.5705 21.68 15.4405 19.82L19.8305 15.43C21.7005 13.58 21.7005 10.56 19.8305 8.70005ZM9.50046 12.38C7.91046 12.38 6.62046 11.09 6.62046 9.50005C6.62046 7.91005 7.91046 6.62005 9.50046 6.62005C11.0905 6.62005 12.3805 7.91005 12.3805 9.50005C12.3805 11.09 11.0905 12.38 9.50046 12.38Z" fill="#1A1A1A"/>
<path d="M34.204 8.644V7.228H40.876V8.644H38.308V16H36.772V8.644H34.204ZM42.5903 16.156C41.3303 16.156 40.5623 15.424 40.5623 14.308C40.5623 13.216 41.3543 12.532 42.7583 12.424L44.5343 12.292V12.16C44.5343 11.356 44.0543 11.032 43.3103 11.032C42.4463 11.032 41.9663 11.392 41.9663 12.016H40.7183C40.7183 10.732 41.7743 9.892 43.3823 9.892C44.9783 9.892 45.9623 10.756 45.9623 12.4V16H44.6783L44.5703 15.124C44.3183 15.736 43.5143 16.156 42.5903 16.156ZM43.0703 15.052C43.9703 15.052 44.5463 14.512 44.5463 13.6V13.288L43.3103 13.384C42.3983 13.468 42.0503 13.768 42.0503 14.248C42.0503 14.788 42.4103 15.052 43.0703 15.052ZM47.0645 12.904C47.0645 11.176 48.1925 9.88 49.8845 9.88C50.7725 9.88 51.4685 10.252 51.8165 10.888L51.9005 10.072H53.2565V15.7C53.2565 17.68 52.0685 18.916 50.1485 18.916C48.4445 18.916 47.2805 17.944 47.1005 16.36H48.5645C48.6605 17.128 49.2485 17.584 50.1485 17.584C51.1565 17.584 51.8045 16.948 51.8045 15.964V14.98C51.4325 15.532 50.7005 15.88 49.8485 15.88C48.1685 15.88 47.0645 14.62 47.0645 12.904ZM48.5405 12.868C48.5405 13.864 49.1765 14.608 50.1365 14.608C51.1445 14.608 51.7685 13.9 51.7685 12.868C51.7685 11.86 51.1565 11.164 50.1365 11.164C49.1645 11.164 48.5405 11.896 48.5405 12.868Z" fill="black"/>
</svg>
