<svg width="142" height="24" viewBox="0 0 142 24" fill="none" xmlns="http://www.w3.org/2000/svg">
<path d="M16.19 2H7.81C4.17 2 2 4.17 2 7.81V16.18C2 19.83 4.17 22 7.81 22H16.18C19.82 22 21.99 19.83 21.99 16.19V7.81C22 4.17 19.83 2 16.19 2ZM12 18.01C8.83 18.01 6.25 15.43 6.25 12.26C6.25 11.12 6.58 10.01 7.22 9.07C7.45 8.72 7.92 8.63 8.26 8.86C8.6 9.09 8.7 9.56 8.46 9.9C8 10.6 7.75 11.42 7.75 12.26C7.75 14.6 9.66 16.51 12 16.51C14.34 16.51 16.25 14.6 16.25 12.26C16.25 9.92 14.34 8.01 12 8.01C11.81 8.01 11.63 8.03 11.44 8.05L12 8.46C12.33 8.7 12.41 9.17 12.16 9.51C12.01 9.71 11.78 9.82 11.55 9.82C11.4 9.82 11.24 9.77 11.11 9.68L9.17 8.25C9.17 8.25 9.16 8.24 9.15 8.23C9.14 8.22 9.13 8.22 9.12 8.21C9.09 8.19 9.08 8.15 9.05 8.12C9.02 8.08 8.99 8.05 8.96 8C8.94 7.96 8.93 7.91 8.91 7.87C8.9 7.82 8.88 7.78 8.88 7.73C8.88 7.68 8.88 7.64 8.89 7.59C8.89 7.54 8.89 7.5 8.91 7.45C8.91 7.4 8.94 7.36 8.96 7.31C8.98 7.28 8.98 7.24 9.01 7.2C9.02 7.2 9.03 7.19 9.04 7.18C9.05 7.17 9.05 7.16 9.06 7.15L10.73 5.24C11 4.93 11.48 4.89 11.79 5.17C12.1 5.44 12.13 5.92 11.86 6.23L11.58 6.55C11.72 6.54 11.86 6.52 12.01 6.52C15.18 6.52 17.76 9.1 17.76 12.27C17.76 15.44 15.17 18.01 12 18.01Z" fill="#1A1A1A"/>
<path d="M36.508 17H34.972V8.228H38.32C40.312 8.228 41.476 9.236 41.476 10.964C41.476 12.14 40.924 12.98 39.892 13.4L41.56 17H39.88L38.392 13.724H36.508V17ZM36.508 9.596V12.368H38.32C39.292 12.368 39.868 11.852 39.868 10.964C39.868 10.088 39.292 9.596 38.32 9.596H36.508ZM45.0252 17.156C43.2612 17.156 42.0252 15.872 42.0252 14.036C42.0252 12.176 43.2372 10.892 44.9772 10.892C46.7532 10.892 47.8812 12.08 47.8812 13.928V14.372L43.4172 14.384C43.5252 15.428 44.0772 15.956 45.0492 15.956C45.8532 15.956 46.3812 15.644 46.5492 15.08H47.9052C47.6532 16.376 46.5732 17.156 45.0252 17.156ZM44.9892 12.092C44.1252 12.092 43.5972 12.56 43.4532 13.448H46.4292C46.4292 12.632 45.8652 12.092 44.9892 12.092ZM48.4649 11.072H49.3169V10.352C49.3169 8.744 50.1689 8.072 51.4529 8.072C51.6809 8.072 51.9569 8.084 52.2089 8.132V9.38H51.6929C50.9489 9.38 50.7689 9.764 50.7689 10.352V11.072H52.1849V12.296H50.7689V17H49.3169V12.296H48.4649V11.072ZM56.8393 11.048V12.404H56.2993C55.2433 12.404 54.5833 12.968 54.5833 14.12V17H53.1193V11.084H54.4993L54.5833 11.948C54.8353 11.36 55.3993 10.964 56.1913 10.964C56.3953 10.964 56.5993 10.988 56.8393 11.048ZM60.283 17.156C58.519 17.156 57.283 15.872 57.283 14.036C57.283 12.176 58.495 10.892 60.235 10.892C62.011 10.892 63.139 12.08 63.139 13.928V14.372L58.675 14.384C58.783 15.428 59.335 15.956 60.307 15.956C61.111 15.956 61.639 15.644 61.807 15.08H63.163C62.911 16.376 61.831 17.156 60.283 17.156ZM60.247 12.092C59.383 12.092 58.855 12.56 58.711 13.448H61.687C61.687 12.632 61.123 12.092 60.247 12.092ZM63.8547 15.2H65.2467C65.2587 15.716 65.6427 16.04 66.3147 16.04C66.9987 16.04 67.3707 15.764 67.3707 15.332C67.3707 15.032 67.2147 14.816 66.6867 14.696L65.6187 14.444C64.5507 14.204 64.0347 13.7 64.0347 12.752C64.0347 11.588 65.0187 10.892 66.3867 10.892C67.7187 10.892 68.6187 11.66 68.6307 12.812H67.2387C67.2267 12.308 66.8907 11.984 66.3267 11.984C65.7507 11.984 65.4147 12.248 65.4147 12.692C65.4147 13.028 65.6787 13.244 66.1827 13.364L67.2507 13.616C68.2467 13.844 68.7507 14.3 68.7507 15.212C68.7507 16.412 67.7307 17.156 66.2667 17.156C64.7907 17.156 63.8547 16.364 63.8547 15.2ZM71.3294 17H69.8654V8.072H71.3414V11.84C71.7134 11.264 72.4094 10.892 73.2614 10.892C74.7254 10.892 75.4934 11.816 75.4934 13.352V17H74.0294V13.7C74.0294 12.704 73.5374 12.224 72.7934 12.224C71.8694 12.224 71.3294 12.872 71.3294 13.76V17ZM76.9198 14.444V13.148H80.7838V14.444H76.9198ZM83.7515 17H82.2995V8.072H83.7515V17ZM87.9393 17.156C86.1753 17.156 84.9393 15.872 84.9393 14.036C84.9393 12.176 86.1513 10.892 87.8913 10.892C89.6673 10.892 90.7953 12.08 90.7953 13.928V14.372L86.3313 14.384C86.4393 15.428 86.9913 15.956 87.9633 15.956C88.7673 15.956 89.2953 15.644 89.4633 15.08H90.8193C90.5673 16.376 89.4873 17.156 87.9393 17.156ZM87.9033 12.092C87.0393 12.092 86.5113 12.56 86.3673 13.448H89.3433C89.3433 12.632 88.7793 12.092 87.9033 12.092ZM91.3789 11.072H92.2309V10.352C92.2309 8.744 93.0709 8.072 94.2709 8.072C94.4989 8.072 94.7749 8.084 95.0269 8.132V9.38H94.5109C93.8509 9.38 93.6829 9.764 93.6829 10.352V11.072H96.1789V9.224H97.6429V11.072H98.7949V12.296H97.6429V17H96.1789V12.296H93.6829V17H92.2309V12.296H91.3789V11.072ZM99.4549 14.444V13.148H103.319V14.444H99.4549ZM104.273 15.2H105.665C105.677 15.716 106.061 16.04 106.733 16.04C107.417 16.04 107.789 15.764 107.789 15.332C107.789 15.032 107.633 14.816 107.105 14.696L106.037 14.444C104.969 14.204 104.453 13.7 104.453 12.752C104.453 11.588 105.437 10.892 106.805 10.892C108.137 10.892 109.037 11.66 109.049 12.812H107.657C107.645 12.308 107.309 11.984 106.745 11.984C106.169 11.984 105.833 12.248 105.833 12.692C105.833 13.028 106.097 13.244 106.601 13.364L107.669 13.616C108.665 13.844 109.169 14.3 109.169 15.212C109.169 16.412 108.149 17.156 106.685 17.156C105.209 17.156 104.273 16.364 104.273 15.2ZM109.935 13.964C109.935 12.104 111.039 10.892 112.707 10.892C113.607 10.892 114.387 11.288 114.747 11.972L114.843 11.072H116.187V19.748H114.735V16.208C114.363 16.808 113.583 17.156 112.707 17.156C110.943 17.156 109.935 15.812 109.935 13.964ZM111.399 14.036C111.399 15.092 112.023 15.836 113.043 15.836C114.063 15.836 114.723 15.104 114.723 14.036C114.723 12.968 114.063 12.224 113.043 12.224C112.023 12.224 111.399 12.98 111.399 14.036ZM121.733 11.072H123.197V17H121.841L121.733 16.208C121.373 16.772 120.605 17.156 119.813 17.156C118.445 17.156 117.641 16.232 117.641 14.78V11.072H119.105V14.264C119.105 15.392 119.549 15.848 120.365 15.848C121.289 15.848 121.733 15.308 121.733 14.18V11.072ZM126.473 17.156C125.213 17.156 124.445 16.424 124.445 15.308C124.445 14.216 125.237 13.532 126.641 13.424L128.417 13.292V13.16C128.417 12.356 127.937 12.032 127.193 12.032C126.329 12.032 125.849 12.392 125.849 13.016H124.601C124.601 11.732 125.657 10.892 127.265 10.892C128.861 10.892 129.845 11.756 129.845 13.4V17H128.561L128.453 16.124C128.201 16.736 127.397 17.156 126.473 17.156ZM126.953 16.052C127.853 16.052 128.429 15.512 128.429 14.6V14.288L127.193 14.384C126.281 14.468 125.933 14.768 125.933 15.248C125.933 15.788 126.293 16.052 126.953 16.052ZM135.003 11.048V12.404H134.463C133.407 12.404 132.747 12.968 132.747 14.12V17H131.283V11.084H132.663L132.747 11.948C132.999 11.36 133.563 10.964 134.355 10.964C134.559 10.964 134.763 10.988 135.003 11.048ZM138.447 17.156C136.683 17.156 135.447 15.872 135.447 14.036C135.447 12.176 136.659 10.892 138.399 10.892C140.175 10.892 141.303 12.08 141.303 13.928V14.372L136.839 14.384C136.947 15.428 137.499 15.956 138.471 15.956C139.275 15.956 139.803 15.644 139.971 15.08H141.327C141.075 16.376 139.995 17.156 138.447 17.156ZM138.411 12.092C137.547 12.092 137.019 12.56 136.875 13.448H139.851C139.851 12.632 139.287 12.092 138.411 12.092Z" fill="black"/>
</svg>
