<svg width="200" height="24" viewBox="0 0 200 24" fill="none" xmlns="http://www.w3.org/2000/svg">
<path d="M21.5599 10.7401L20.1999 9.16006C19.9399 8.86006 19.7299 8.30006 19.7299 7.90006V6.20006C19.7299 5.14006 18.8599 4.27006 17.7999 4.27006H16.0999C15.7099 4.27006 15.1399 4.06006 14.8399 3.80006L13.2599 2.44006C12.5699 1.85006 11.4399 1.85006 10.7399 2.44006L9.16988 3.81006C8.86988 4.06006 8.29988 4.27006 7.90988 4.27006H6.17988C5.11988 4.27006 4.24988 5.14006 4.24988 6.20006V7.91006C4.24988 8.30006 4.03988 8.86006 3.78988 9.16006L2.43988 10.7501C1.85988 11.4401 1.85988 12.5601 2.43988 13.2501L3.78988 14.8401C4.03988 15.1401 4.24988 15.7001 4.24988 16.0901V17.8001C4.24988 18.8601 5.11988 19.7301 6.17988 19.7301H7.90988C8.29988 19.7301 8.86988 19.9401 9.16988 20.2001L10.7499 21.5601C11.4399 22.1501 12.5699 22.1501 13.2699 21.5601L14.8499 20.2001C15.1499 19.9401 15.7099 19.7301 16.1099 19.7301H17.8099C18.8699 19.7301 19.7399 18.8601 19.7399 17.8001V16.1001C19.7399 15.7101 19.9499 15.1401 20.2099 14.8401L21.5699 13.2601C22.1499 12.5701 22.1499 11.4301 21.5599 10.7401ZM16.1599 10.1101L11.3299 14.9401C11.1899 15.0801 10.9999 15.1601 10.7999 15.1601C10.5999 15.1601 10.4099 15.0801 10.2699 14.9401L7.84988 12.5201C7.55988 12.2301 7.55988 11.7501 7.84988 11.4601C8.13988 11.1701 8.61988 11.1701 8.90988 11.4601L10.7999 13.3501L15.0999 9.05006C15.3899 8.76006 15.8699 8.76006 16.1599 9.05006C16.4499 9.34006 16.4499 9.82006 16.1599 10.1101Z" fill="#1A1A1A"/>
<path d="M37.432 16L34.12 7.228H35.752L37.672 12.28C37.864 12.808 38.032 13.324 38.224 14.032C38.44 13.264 38.62 12.724 38.788 12.28L40.684 7.228H42.28L39.016 16H37.432ZM44.8025 16.156C43.0385 16.156 41.8025 14.872 41.8025 13.036C41.8025 11.176 43.0145 9.892 44.7545 9.892C46.5305 9.892 47.6585 11.08 47.6585 12.928V13.372L43.1945 13.384C43.3025 14.428 43.8545 14.956 44.8265 14.956C45.6305 14.956 46.1585 14.644 46.3265 14.08H47.6825C47.4305 15.376 46.3505 16.156 44.8025 16.156ZM44.7665 11.092C43.9025 11.092 43.3745 11.56 43.2305 12.448H46.2065C46.2065 11.632 45.6425 11.092 44.7665 11.092ZM52.5502 10.048V11.404H52.0102C50.9542 11.404 50.2942 11.968 50.2942 13.12V16H48.8302V10.084H50.2102L50.2942 10.948C50.5462 10.36 51.1102 9.964 51.9022 9.964C52.1062 9.964 52.3102 9.988 52.5502 10.048ZM54.2732 8.884C53.7692 8.884 53.3732 8.488 53.3732 7.996C53.3732 7.504 53.7692 7.12 54.2732 7.12C54.7532 7.12 55.1492 7.504 55.1492 7.996C55.1492 8.488 54.7532 8.884 54.2732 8.884ZM53.5412 16V10.072H55.0052V16H53.5412ZM55.9297 10.072H56.7817V9.352C56.7817 7.744 57.6337 7.072 58.9177 7.072C59.1457 7.072 59.4217 7.084 59.6737 7.132V8.38H59.1577C58.4137 8.38 58.2337 8.764 58.2337 9.352V10.072H59.6497V11.296H58.2337V16H56.7817V11.296H55.9297V10.072ZM60.0681 18.748V17.524H60.9441C61.5201 17.524 61.8801 17.392 62.1321 16.696L62.3001 16.252L59.9121 10.072H61.4601L62.9841 14.392L64.5921 10.072H66.1041L63.2001 17.32C62.7561 18.424 62.1321 18.88 61.1601 18.88C60.7521 18.88 60.3921 18.832 60.0681 18.748Z" fill="black"/>
</svg>
