<svg width="104" height="24" viewBox="0 0 104 24" fill="none" xmlns="http://www.w3.org/2000/svg">
<path d="M17 4H7C4 4 2 6 2 9V15C2 18 4 20 7 20H17C20 20 22 18 22 15V9C22 6 20 4 17 4ZM13.89 13.03L11.42 14.51C10.42 15.11 9.59998 14.65 9.59998 13.48V10.51C9.59998 9.34001 10.42 8.88001 11.42 9.48001L13.89 10.96C14.84 11.54 14.84 12.46 13.89 13.03Z" fill="#1A1A1A"/>
<path d="M37.084 12.544L34.12 7.228H35.836L37.564 10.42C37.696 10.66 37.78 10.852 37.876 11.068C37.984 10.852 38.032 10.708 38.188 10.42L39.904 7.228H41.572L38.62 12.544V16H37.084V12.544ZM40.8533 13.024C40.8533 11.176 42.1853 9.904 44.0213 9.904C45.8573 9.904 47.1893 11.176 47.1893 13.024C47.1893 14.872 45.8573 16.144 44.0213 16.144C42.1853 16.144 40.8533 14.872 40.8533 13.024ZM42.3173 13.024C42.3173 14.104 43.0133 14.836 44.0213 14.836C45.0293 14.836 45.7253 14.104 45.7253 13.024C45.7253 11.944 45.0293 11.212 44.0213 11.212C43.0133 11.212 42.3173 11.944 42.3173 13.024ZM52.2291 10.072H53.6931V16H52.3371L52.2291 15.208C51.8691 15.772 51.1011 16.156 50.3091 16.156C48.9411 16.156 48.1371 15.232 48.1371 13.78V10.072H49.6011V13.264C49.6011 14.392 50.0451 14.848 50.8611 14.848C51.7851 14.848 52.2291 14.308 52.2291 13.18V10.072ZM57.2212 16H55.7572V11.296H54.6172V10.072H55.7572V8.224H57.2212V10.072H58.3732V11.296H57.2212V16ZM63.3033 10.072H64.7673V16H63.4113L63.3033 15.208C62.9433 15.772 62.1753 16.156 61.3833 16.156C60.0153 16.156 59.2113 15.232 59.2113 13.78V10.072H60.6753V13.264C60.6753 14.392 61.1193 14.848 61.9353 14.848C62.8593 14.848 63.3033 14.308 63.3033 13.18V10.072ZM67.6354 16H66.2794V7.072H67.7434V10.936C68.1274 10.276 68.9194 9.88 69.8194 9.88C71.5114 9.88 72.5434 11.2 72.5434 13.072C72.5434 14.896 71.4274 16.156 69.7234 16.156C68.8354 16.156 68.0794 15.76 67.7314 15.076L67.6354 16ZM67.7554 13.012C67.7554 14.08 68.4154 14.812 69.4234 14.812C70.4554 14.812 71.0674 14.068 71.0674 13.012C71.0674 11.956 70.4554 11.2 69.4234 11.2C68.4154 11.2 67.7554 11.944 67.7554 13.012ZM76.3611 16.156C74.5971 16.156 73.3611 14.872 73.3611 13.036C73.3611 11.176 74.5731 9.892 76.3131 9.892C78.0891 9.892 79.2171 11.08 79.2171 12.928V13.372L74.7531 13.384C74.8611 14.428 75.4131 14.956 76.3851 14.956C77.1891 14.956 77.7171 14.644 77.8851 14.08H79.2411C78.9891 15.376 77.9091 16.156 76.3611 16.156ZM76.3251 11.092C75.4611 11.092 74.9331 11.56 74.7891 12.448H77.7651C77.7651 11.632 77.2011 11.092 76.3251 11.092Z" fill="black"/>
</svg>
