<svg width="200" height="24" viewBox="0 0 200 24" fill="none" xmlns="http://www.w3.org/2000/svg">
<path d="M18 16.01C18.55 16.01 19 16.46 19 17.01V18C19 20.2 17.5 22 15 22H9C6.5 22 5 20.2 5 18V17.01C5 16.46 5.45 16.01 6 16.01H18Z" fill="#1A1A1A"/>
<path d="M19 6V13.5C19 14.05 18.55 14.5 18 14.5H6C5.45 14.5 5 14.05 5 13.5V6C5 3.8 6.5 2 9 2H15C17.5 2 19 3.8 19 6Z" fill="#1A1A1A"/>
<path d="M3 20.75C2.59 20.75 2.25 20.41 2.25 20V4C2.25 3.59 2.59 3.25 3 3.25C3.41 3.25 3.75 3.59 3.75 4V20C3.75 20.41 3.41 20.75 3 20.75Z" fill="#1A1A1A"/>
<path d="M21 20.75C20.59 20.75 20.25 20.41 20.25 20V4C20.25 3.59 20.59 3.25 21 3.25C21.41 3.25 21.75 3.59 21.75 4V20C21.75 20.41 21.41 20.75 21 20.75Z" fill="#1A1A1A"/>
<path d="M34.468 9.676C34.468 8.14 35.74 7.072 37.588 7.072C39.364 7.072 40.492 8.056 40.54 9.64H39.004C38.968 8.884 38.428 8.44 37.564 8.44C36.616 8.44 36.004 8.896 36.004 9.628C36.004 10.252 36.34 10.6 37.072 10.768L38.452 11.068C39.952 11.392 40.684 12.16 40.684 13.468C40.684 15.1 39.412 16.156 37.48 16.156C35.608 16.156 34.384 15.16 34.348 13.588H35.884C35.896 14.332 36.496 14.776 37.48 14.776C38.5 14.776 39.148 14.332 39.148 13.6C39.148 13.012 38.848 12.664 38.128 12.508L36.736 12.196C35.248 11.872 34.468 11.02 34.468 9.676ZM43.3335 16H41.8815V7.072H43.3335V16ZM45.6013 8.884C45.0973 8.884 44.7013 8.488 44.7013 7.996C44.7013 7.504 45.0973 7.12 45.6013 7.12C46.0813 7.12 46.4773 7.504 46.4773 7.996C46.4773 8.488 46.0813 8.884 45.6013 8.884ZM44.8693 16V10.072H46.3333V16H44.8693ZM50.2818 16.156C48.5658 16.156 47.4978 14.896 47.4978 13.06C47.4978 11.212 48.5778 9.892 50.3658 9.892C51.1938 9.892 51.9258 10.24 52.2978 10.828V7.072H53.7498V16H52.4058L52.3098 15.076C51.9498 15.76 51.1818 16.156 50.2818 16.156ZM50.6058 14.812C51.6258 14.812 52.2858 14.08 52.2858 13.012C52.2858 11.944 51.6258 11.2 50.6058 11.2C49.5858 11.2 48.9618 11.956 48.9618 13.012C48.9618 14.068 49.5858 14.812 50.6058 14.812ZM57.9275 16.156C56.1635 16.156 54.9275 14.872 54.9275 13.036C54.9275 11.176 56.1395 9.892 57.8795 9.892C59.6555 9.892 60.7835 11.08 60.7835 12.928V13.372L56.3195 13.384C56.4275 14.428 56.9795 14.956 57.9515 14.956C58.7555 14.956 59.2835 14.644 59.4515 14.08H60.8075C60.5555 15.376 59.4755 16.156 57.9275 16.156ZM57.8915 11.092C57.0275 11.092 56.4995 11.56 56.3555 12.448H59.3315C59.3315 11.632 58.7675 11.092 57.8915 11.092ZM65.6752 10.048V11.404H65.1352C64.0792 11.404 63.4192 11.968 63.4192 13.12V16H61.9552V10.084H63.3352L63.4192 10.948C63.6712 10.36 64.2352 9.964 65.0272 9.964C65.2312 9.964 65.4352 9.988 65.6752 10.048Z" fill="black"/>
</svg>
