<svg width="145" height="24" viewBox="0 0 145 24" fill="none" xmlns="http://www.w3.org/2000/svg">
<path d="M8.29004 6.29C7.87004 6.29 7.54004 5.95 7.54004 5.54V2.75C7.54004 2.34 7.87004 2 8.29004 2C8.71004 2 9.04004 2.34 9.04004 2.75V5.53C9.04004 5.95 8.71004 6.29 8.29004 6.29Z" fill="#1A1A1A"/>
<path d="M15.71 6.29C15.29 6.29 14.96 5.95 14.96 5.54V2.75C14.96 2.33 15.3 2 15.71 2C16.13 2 16.46 2.34 16.46 2.75V5.53C16.46 5.95 16.13 6.29 15.71 6.29Z" fill="#1A1A1A"/>
<path d="M19.57 4.5C18.91 4.01 17.96 4.48 17.96 5.31V5.41C17.96 6.58 17.12 7.66 15.95 7.78C14.6 7.92 13.46 6.86 13.46 5.54V4.5C13.46 3.95 13.01 3.5 12.46 3.5H11.54C10.99 3.5 10.54 3.95 10.54 4.5V5.54C10.54 6.33 10.13 7.03 9.51 7.42C9.42 7.48 9.32 7.53 9.22 7.58C9.13 7.63 9.03 7.67 8.92 7.7C8.8 7.74 8.67 7.77 8.53 7.78C8.37 7.8 8.21 7.8 8.05 7.78C7.91 7.77 7.78 7.74 7.66 7.7C7.56 7.67 7.46 7.63 7.36 7.58C7.26 7.53 7.16 7.48 7.07 7.42C6.44 6.98 6.04 6.22 6.04 5.41V5.31C6.04 4.54 5.22 4.08 4.57 4.41C4.56 4.42 4.55 4.42 4.54 4.43C4.5 4.45 4.47 4.47 4.43 4.5C4.4 4.53 4.36 4.55 4.33 4.58C4.05 4.8 3.8 5.05 3.59 5.32C3.48 5.44 3.39 5.57 3.31 5.7C3.3 5.71 3.29 5.72 3.28 5.74C3.19 5.87 3.11 6.02 3.04 6.16C3.02 6.18 3.01 6.19 3.01 6.21C2.95 6.33 2.89 6.45 2.85 6.58C2.82 6.63 2.81 6.67 2.79 6.72C2.73 6.87 2.69 7.02 2.65 7.17C2.61 7.31 2.58 7.46 2.56 7.61C2.54 7.72 2.53 7.83 2.52 7.95C2.51 8.09 2.5 8.23 2.5 8.37V17.13C2.5 19.82 4.68 22 7.37 22H16.63C19.32 22 21.5 19.82 21.5 17.13V8.37C21.5 6.78 20.74 5.39 19.57 4.5ZM12 16.25H10.31V18C10.31 18.41 9.97 18.75 9.56 18.75C9.14 18.75 8.81 18.41 8.81 18V16.25H7C6.59 16.25 6.25 15.91 6.25 15.5C6.25 15.09 6.59 14.75 7 14.75H8.81V13C8.81 12.59 9.14 12.25 9.56 12.25C9.97 12.25 10.31 12.59 10.31 13V14.75H12C12.41 14.75 12.75 15.09 12.75 15.5C12.75 15.91 12.41 16.25 12 16.25Z" fill="#1A1A1A"/>
<path d="M36.484 16H34.972V7.228H36.496L40.612 13.444V7.228H42.124V16H40.612L36.484 9.784V16ZM43.5018 13.024C43.5018 11.176 44.8338 9.904 46.6698 9.904C48.5058 9.904 49.8378 11.176 49.8378 13.024C49.8378 14.872 48.5058 16.144 46.6698 16.144C44.8338 16.144 43.5018 14.872 43.5018 13.024ZM44.9658 13.024C44.9658 14.104 45.6618 14.836 46.6698 14.836C47.6778 14.836 48.3738 14.104 48.3738 13.024C48.3738 11.944 47.6778 11.212 46.6698 11.212C45.6618 11.212 44.9658 11.944 44.9658 13.024ZM52.9556 16H51.4916V11.296H50.3516V10.072H51.4916V8.224H52.9556V10.072H54.1076V11.296H52.9556V16ZM57.6111 16.156C55.8471 16.156 54.6111 14.872 54.6111 13.036C54.6111 11.176 55.8231 9.892 57.5631 9.892C59.3391 9.892 60.4671 11.08 60.4671 12.928V13.372L56.0031 13.384C56.1111 14.428 56.6631 14.956 57.6351 14.956C58.4391 14.956 58.9671 14.644 59.1351 14.08H60.4911C60.2391 15.376 59.1591 16.156 57.6111 16.156ZM57.5751 11.092C56.7111 11.092 56.1831 11.56 56.0391 12.448H59.0151C59.0151 11.632 58.4511 11.092 57.5751 11.092ZM61.6268 13.444V12.148H65.4908V13.444H61.6268ZM68.5473 16.156C67.2873 16.156 66.5193 15.424 66.5193 14.308C66.5193 13.216 67.3113 12.532 68.7153 12.424L70.4913 12.292V12.16C70.4913 11.356 70.0113 11.032 69.2673 11.032C68.4033 11.032 67.9233 11.392 67.9233 12.016H66.6753C66.6753 10.732 67.7313 9.892 69.3393 9.892C70.9353 9.892 71.9193 10.756 71.9193 12.4V16H70.6353L70.5273 15.124C70.2753 15.736 69.4713 16.156 68.5473 16.156ZM69.0273 15.052C69.9273 15.052 70.5033 14.512 70.5033 13.6V13.288L69.2673 13.384C68.3553 13.468 68.0073 13.768 68.0073 14.248C68.0073 14.788 68.3673 15.052 69.0273 15.052ZM75.7936 16.156C74.0776 16.156 73.0096 14.896 73.0096 13.06C73.0096 11.212 74.0896 9.892 75.8776 9.892C76.7056 9.892 77.4376 10.24 77.8096 10.828V7.072H79.2616V16H77.9176L77.8216 15.076C77.4616 15.76 76.6936 16.156 75.7936 16.156ZM76.1176 14.812C77.1376 14.812 77.7976 14.08 77.7976 13.012C77.7976 11.944 77.1376 11.2 76.1176 11.2C75.0976 11.2 74.4736 11.956 74.4736 13.012C74.4736 14.068 75.0976 14.812 76.1176 14.812ZM83.2233 16.156C81.5073 16.156 80.4393 14.896 80.4393 13.06C80.4393 11.212 81.5193 9.892 83.3073 9.892C84.1353 9.892 84.8673 10.24 85.2393 10.828V7.072H86.6913V16H85.3473L85.2513 15.076C84.8913 15.76 84.1233 16.156 83.2233 16.156ZM83.5473 14.812C84.5673 14.812 85.2273 14.08 85.2273 13.012C85.2273 11.944 84.5673 11.2 83.5473 11.2C82.5273 11.2 81.9033 11.956 81.9033 13.012C81.9033 14.068 82.5273 14.812 83.5473 14.812Z" fill="black"/>
</svg>
