<svg width="101" height="24" viewBox="0 0 101 24" fill="none" xmlns="http://www.w3.org/2000/svg">
<path d="M16.19 2H7.81C4.17 2 2 4.17 2 7.81V16.18C2 19.83 4.17 22 7.81 22H16.18C19.82 22 21.99 19.83 21.99 16.19V7.81C22 4.17 19.83 2 16.19 2ZM7.63 18.15C7.63 18.56 7.29 18.9 6.88 18.9C6.47 18.9 6.13 18.56 6.13 18.15V16.08C6.13 15.67 6.47 15.33 6.88 15.33C7.29 15.33 7.63 15.67 7.63 16.08V18.15ZM12.75 18.15C12.75 18.56 12.41 18.9 12 18.9C11.59 18.9 11.25 18.56 11.25 18.15V14C11.25 13.59 11.59 13.25 12 13.25C12.41 13.25 12.75 13.59 12.75 14V18.15ZM17.87 18.15C17.87 18.56 17.53 18.9 17.12 18.9C16.71 18.9 16.37 18.56 16.37 18.15V11.93C16.37 11.52 16.71 11.18 17.12 11.18C17.53 11.18 17.87 11.52 17.87 11.93V18.15ZM17.87 8.77C17.87 9.18 17.53 9.52 17.12 9.52C16.71 9.52 16.37 9.18 16.37 8.77V7.8C13.82 10.42 10.63 12.27 7.06 13.16C7 13.18 6.94 13.18 6.88 13.18C6.54 13.18 6.24 12.95 6.15 12.61C6.05 12.21 6.29 11.8 6.7 11.7C10.07 10.86 13.07 9.09 15.45 6.59H14.2C13.79 6.59 13.45 6.25 13.45 5.84C13.45 5.43 13.79 5.09 14.2 5.09H17.13C17.17 5.09 17.2 5.11 17.24 5.11C17.29 5.12 17.34 5.12 17.39 5.14C17.44 5.16 17.48 5.19 17.53 5.22C17.56 5.24 17.59 5.25 17.62 5.27C17.63 5.28 17.63 5.29 17.64 5.29C17.68 5.33 17.71 5.37 17.74 5.41C17.77 5.45 17.8 5.48 17.81 5.52C17.83 5.56 17.83 5.6 17.84 5.65C17.85 5.7 17.87 5.75 17.87 5.81C17.87 5.82 17.88 5.83 17.88 5.84V8.77H17.87Z" fill="#1A1A1A"/>
<path d="M34.468 9.676C34.468 8.14 35.74 7.072 37.588 7.072C39.364 7.072 40.492 8.056 40.54 9.64H39.004C38.968 8.884 38.428 8.44 37.564 8.44C36.616 8.44 36.004 8.896 36.004 9.628C36.004 10.252 36.34 10.6 37.072 10.768L38.452 11.068C39.952 11.392 40.684 12.16 40.684 13.468C40.684 15.1 39.412 16.156 37.48 16.156C35.608 16.156 34.384 15.16 34.348 13.588H35.884C35.896 14.332 36.496 14.776 37.48 14.776C38.5 14.776 39.148 14.332 39.148 13.6C39.148 13.012 38.848 12.664 38.128 12.508L36.736 12.196C35.248 11.872 34.468 11.02 34.468 9.676ZM43.8736 16H42.4096V11.296H41.2696V10.072H42.4096V8.224H43.8736V10.072H45.0256V11.296H43.8736V16ZM47.6645 16.156C46.4045 16.156 45.6365 15.424 45.6365 14.308C45.6365 13.216 46.4285 12.532 47.8325 12.424L49.6085 12.292V12.16C49.6085 11.356 49.1285 11.032 48.3845 11.032C47.5205 11.032 47.0405 11.392 47.0405 12.016H45.7925C45.7925 10.732 46.8485 9.892 48.4565 9.892C50.0525 9.892 51.0365 10.756 51.0365 12.4V16H49.7525L49.6445 15.124C49.3925 15.736 48.5885 16.156 47.6645 16.156ZM48.1445 15.052C49.0445 15.052 49.6205 14.512 49.6205 13.6V13.288L48.3845 13.384C47.4725 13.468 47.1245 13.768 47.1245 14.248C47.1245 14.788 47.4845 15.052 48.1445 15.052ZM54.4087 16H52.9447V11.296H51.8047V10.072H52.9447V8.224H54.4087V10.072H55.5607V11.296H54.4087V16ZM60.4908 10.072H61.9548V16H60.5988L60.4908 15.208C60.1308 15.772 59.3628 16.156 58.5708 16.156C57.2028 16.156 56.3988 15.232 56.3988 13.78V10.072H57.8628V13.264C57.8628 14.392 58.3068 14.848 59.1228 14.848C60.0468 14.848 60.4908 14.308 60.4908 13.18V10.072ZM62.8938 14.2H64.2858C64.2978 14.716 64.6818 15.04 65.3538 15.04C66.0378 15.04 66.4098 14.764 66.4098 14.332C66.4098 14.032 66.2538 13.816 65.7258 13.696L64.6578 13.444C63.5898 13.204 63.0738 12.7 63.0738 11.752C63.0738 10.588 64.0578 9.892 65.4258 9.892C66.7578 9.892 67.6578 10.66 67.6698 11.812H66.2778C66.2658 11.308 65.9298 10.984 65.3658 10.984C64.7898 10.984 64.4538 11.248 64.4538 11.692C64.4538 12.028 64.7178 12.244 65.2218 12.364L66.2898 12.616C67.2858 12.844 67.7898 13.3 67.7898 14.212C67.7898 15.412 66.7698 16.156 65.3058 16.156C63.8298 16.156 62.8938 15.364 62.8938 14.2ZM68.7401 13.444V12.148H72.6041V13.444H68.7401ZM78.1158 10.072H79.5798V16H78.2238L78.1158 15.208C77.7558 15.772 76.9878 16.156 76.1958 16.156C74.8278 16.156 74.0238 15.232 74.0238 13.78V10.072H75.4878V13.264C75.4878 14.392 75.9318 14.848 76.7478 14.848C77.6718 14.848 78.1158 14.308 78.1158 13.18V10.072ZM81.0919 18.748V10.072H82.4479L82.5439 10.972C82.9039 10.288 83.6839 9.892 84.5839 9.892C86.2519 9.892 87.3559 11.104 87.3559 12.964C87.3559 14.812 86.3479 16.156 84.5839 16.156C83.6959 16.156 82.9279 15.808 82.5559 15.208V18.748H81.0919ZM82.5679 13.036C82.5679 14.104 83.2279 14.836 84.2359 14.836C85.2679 14.836 85.8799 14.092 85.8799 13.036C85.8799 11.98 85.2679 11.224 84.2359 11.224C83.2279 11.224 82.5679 11.968 82.5679 13.036Z" fill="black"/>
</svg>
