<svg width="101" height="24" viewBox="0 0 101 24" fill="none" xmlns="http://www.w3.org/2000/svg">
<path d="M19.14 7.72C19.43 8.47 20.15 9 21 9C22.1 9 23 8.1 23 7C23 5.9 22.1 5 21 5C20.15 5 19.43 5.53 19.14 6.28C19.09 6.27 19.05 6.25 19 6.25H15V5.5C15 4.68 14.32 4 13.5 4H10.5C9.68 4 9 4.68 9 5.5V6.25H5C4.95 6.25 4.91 6.27 4.86 6.28C4.57 5.53 3.85 5 3 5C1.9 5 1 5.9 1 7C1 8.1 1.9 9 3 9C3.85 9 4.57 8.47 4.86 7.72C4.91 7.73 4.95 7.75 5 7.75H7.57C5.52 9.27 4.25 11.79 4.25 14.5C4.25 14.67 4.26 14.83 4.28 15H4C3.17 15 2.5 15.67 2.5 16.5V18.5C2.5 19.33 3.17 20 4 20H6C6.22 20 6.42 19.95 6.61 19.86C7.13 19.64 7.5 19.11 7.5 18.5V16.5C7.5 15.67 6.83 15 6 15H5.77C5.77 14.97 5.78 14.94 5.78 14.91C5.76 14.77 5.76 14.64 5.76 14.5C5.76 12.03 7.03 9.77 9.02 8.6C9.06 9.37 9.71 10 10.5 10H13.5C14.29 10 14.94 9.37 14.99 8.6C16.98 9.77 18.25 12.04 18.25 14.5C18.25 14.64 18.24 14.77 18.23 14.91C18.23 14.94 18.24 14.97 18.24 15H18C17.17 15 16.5 15.67 16.5 16.5V18.5C16.5 19.11 16.87 19.64 17.39 19.86C17.58 19.95 17.78 20 18 20H20C20.83 20 21.5 19.33 21.5 18.5V16.5C21.5 15.67 20.83 15 20 15H19.72C19.74 14.83 19.75 14.67 19.75 14.5C19.75 11.79 18.48 9.27 16.43 7.75H19C19.05 7.75 19.09 7.73 19.14 7.72Z" fill="#1A1A1A"/>
<path d="M34.972 16V7.228H38.464C40.192 7.228 41.248 8.128 41.248 9.592C41.248 10.564 40.816 11.26 39.988 11.608C40.912 11.908 41.38 12.604 41.38 13.624C41.38 15.124 40.336 16 38.524 16H34.972ZM38.332 8.584H36.508V10.972H38.368C39.208 10.972 39.676 10.528 39.676 9.748C39.676 8.992 39.196 8.584 38.332 8.584ZM38.464 12.268H36.508V14.644H38.464C39.328 14.644 39.808 14.224 39.808 13.432C39.808 12.688 39.316 12.268 38.464 12.268ZM45.2244 16.156C43.4604 16.156 42.2244 14.872 42.2244 13.036C42.2244 11.176 43.4364 9.892 45.1764 9.892C46.9524 9.892 48.0804 11.08 48.0804 12.928V13.372L43.6164 13.384C43.7244 14.428 44.2764 14.956 45.2484 14.956C46.0524 14.956 46.5804 14.644 46.7484 14.08H48.1044C47.8524 15.376 46.7724 16.156 45.2244 16.156ZM45.1884 11.092C44.3244 11.092 43.7964 11.56 43.6524 12.448H46.6284C46.6284 11.632 46.0644 11.092 45.1884 11.092ZM53.6109 16H48.8229V14.8L51.7749 11.296H48.8229V10.072H53.6109V11.284L50.6109 14.776H53.6109V16ZM55.5388 8.884C55.0348 8.884 54.6388 8.488 54.6388 7.996C54.6388 7.504 55.0348 7.12 55.5388 7.12C56.0188 7.12 56.4148 7.504 56.4148 7.996C56.4148 8.488 56.0188 8.884 55.5388 8.884ZM54.8068 16V10.072H56.2708V16H54.8068ZM60.4353 16.156C58.6713 16.156 57.4353 14.872 57.4353 13.036C57.4353 11.176 58.6473 9.892 60.3873 9.892C62.1633 9.892 63.2913 11.08 63.2913 12.928V13.372L58.8273 13.384C58.9353 14.428 59.4873 14.956 60.4593 14.956C61.2633 14.956 61.7913 14.644 61.9593 14.08H63.3153C63.0633 15.376 61.9833 16.156 60.4353 16.156ZM60.3993 11.092C59.5353 11.092 59.0073 11.56 58.8633 12.448H61.8393C61.8393 11.632 61.2753 11.092 60.3993 11.092ZM68.183 10.048V11.404H67.643C66.587 11.404 65.927 11.968 65.927 13.12V16H64.463V10.084H65.843L65.927 10.948C66.179 10.36 66.743 9.964 67.535 9.964C67.739 9.964 67.943 9.988 68.183 10.048Z" fill="black"/>
</svg>
