<svg width="101" height="24" viewBox="0 0 101 24" fill="none" xmlns="http://www.w3.org/2000/svg">
<path d="M18.5 22.75C16.16 22.75 14.25 20.84 14.25 18.5V18C14.25 17.59 14.59 17.25 15 17.25C15.41 17.25 15.75 17.59 15.75 18V18.5C15.75 20.02 16.98 21.25 18.5 21.25C20.02 21.25 21.25 20.02 21.25 18.5C21.25 16.98 20.02 15.75 18.5 15.75H2C1.59 15.75 1.25 15.41 1.25 15C1.25 14.59 1.59 14.25 2 14.25H18.5C20.84 14.25 22.75 16.16 22.75 18.5C22.75 20.84 20.84 22.75 18.5 22.75Z" fill="#1A1A1A"/>
<path d="M18.5 12.75H2C1.59 12.75 1.25 12.41 1.25 12C1.25 11.59 1.59 11.25 2 11.25H18.5C20.02 11.25 21.25 10.02 21.25 8.5C21.25 6.98 20.02 5.75 18.5 5.75C16.98 5.75 15.75 6.98 15.75 8.5V9C15.75 9.41 15.41 9.75 15 9.75C14.59 9.75 14.25 9.41 14.25 9V8.5C14.25 6.16 16.16 4.25 18.5 4.25C20.84 4.25 22.75 6.16 22.75 8.5C22.75 10.84 20.84 12.75 18.5 12.75Z" fill="#1A1A1A"/>
<path d="M9.31 9.75012H2C1.59 9.75012 1.25 9.41012 1.25 9.00012C1.25 8.59012 1.59 8.25012 2 8.25012H9.31C10.38 8.25012 11.25 7.38012 11.25 6.31012C11.25 5.24012 10.38 4.37012 9.31 4.37012C8.24 4.37012 7.37 5.24012 7.37 6.31012V6.69012C7.37 7.10012 7.03 7.44012 6.62 7.44012C6.21 7.44012 5.87 7.11012 5.87 6.69012V6.31012C5.87 4.41012 7.41 2.87012 9.31 2.87012C11.21 2.87012 12.75 4.41012 12.75 6.31012C12.75 8.21012 11.21 9.75012 9.31 9.75012Z" fill="#1A1A1A"/>
<path d="M36.796 16L34.18 7.228H35.776L37.168 11.86C37.3 12.34 37.432 12.832 37.564 13.6C37.708 12.82 37.84 12.364 37.996 11.86L39.376 7.228H41.068L42.424 11.86C42.568 12.352 42.7 12.856 42.844 13.6C43.012 12.784 43.132 12.316 43.264 11.872L44.68 7.228H46.24L43.576 16H42.088L40.216 9.616L38.308 16H36.796ZM47.9099 8.884C47.4059 8.884 47.0099 8.488 47.0099 7.996C47.0099 7.504 47.4059 7.12 47.9099 7.12C48.3899 7.12 48.7859 7.504 48.7859 7.996C48.7859 8.488 48.3899 8.884 47.9099 8.884ZM47.1779 16V10.072H48.6419V16H47.1779ZM51.6184 16H50.1544V10.072H51.5104L51.6304 10.84C52.0024 10.24 52.7224 9.892 53.5264 9.892C55.0144 9.892 55.7824 10.816 55.7824 12.352V16H54.3184V12.7C54.3184 11.704 53.8264 11.224 53.0704 11.224C52.1704 11.224 51.6184 11.848 51.6184 12.808V16ZM59.6568 16.156C57.9408 16.156 56.8728 14.896 56.8728 13.06C56.8728 11.212 57.9528 9.892 59.7408 9.892C60.5688 9.892 61.3008 10.24 61.6728 10.828V7.072H63.1248V16H61.7808L61.6848 15.076C61.3248 15.76 60.5568 16.156 59.6568 16.156ZM59.9808 14.812C61.0008 14.812 61.6608 14.08 61.6608 13.012C61.6608 11.944 61.0008 11.2 59.9808 11.2C58.9608 11.2 58.3368 11.956 58.3368 13.012C58.3368 14.068 58.9608 14.812 59.9808 14.812Z" fill="black"/>
</svg>
