<svg width="129" height="24" viewBox="0 0 129 24" fill="none" xmlns="http://www.w3.org/2000/svg">
<path d="M17 3H7C4.24 3 2 5.24 2 8V9V16C2 18.76 4.24 21 7 21H16H17C19.76 21 22 18.76 22 16V8C22 5.24 19.76 3 17 3ZM10.49 16.81C10.46 16.81 10.43 16.82 10.39 16.82C10.02 16.82 9.7 16.54 9.65 16.17C9.52 15.15 8.78 14.41 7.76 14.28C7.35 14.23 7.06 13.85 7.11 13.44C7.16 13.03 7.54 12.74 7.95 12.79C9.64 13.01 10.92 14.29 11.14 15.98C11.19 16.38 10.9 16.76 10.49 16.81ZM13.54 16.3C13.51 16.3 13.48 16.31 13.44 16.31C13.07 16.31 12.75 16.03 12.7 15.66C12.39 13.28 10.66 11.54 8.27 11.23C7.86 11.18 7.57 10.8 7.62 10.39C7.67 9.98 8.05 9.69 8.46 9.74C11.54 10.14 13.79 12.38 14.19 15.47C14.24 15.87 13.95 16.24 13.54 16.3ZM16.24 15.43C16.21 15.43 16.18 15.44 16.14 15.44C15.77 15.44 15.45 15.16 15.4 14.79C14.97 11.41 12.51 8.95 9.13 8.52C8.72 8.47 8.43 8.09 8.48 7.68C8.53 7.27 8.91 6.98 9.32 7.03C13.39 7.55 16.36 10.52 16.89 14.6C16.94 15.01 16.65 15.38 16.24 15.43Z" fill="#1A1A1A"/>
<path d="M36.46 17H34.972V8.228H36.46L39.292 15.212L42.124 8.228H43.636V17H42.148V14.3C42.148 12.536 42.148 12.02 42.232 11.396L40 17H38.584L36.364 11.408C36.448 11.936 36.46 12.764 36.46 13.856V17ZM46.0935 9.884C45.5895 9.884 45.1935 9.488 45.1935 8.996C45.1935 8.504 45.5895 8.12 46.0935 8.12C46.5735 8.12 46.9695 8.504 46.9695 8.996C46.9695 9.488 46.5735 9.884 46.0935 9.884ZM45.3615 17V11.072H46.8255V17H45.3615ZM52.058 11.048V12.404H51.518C50.462 12.404 49.802 12.968 49.802 14.12V17H48.338V11.084H49.718L49.802 11.948C50.054 11.36 50.618 10.964 51.41 10.964C51.614 10.964 51.818 10.988 52.058 11.048ZM56.769 11.048V12.404H56.229C55.173 12.404 54.513 12.968 54.513 14.12V17H53.049V11.084H54.429L54.513 11.948C54.765 11.36 55.329 10.964 56.121 10.964C56.325 10.964 56.529 10.988 56.769 11.048ZM57.2127 14.024C57.2127 12.176 58.5447 10.904 60.3807 10.904C62.2167 10.904 63.5487 12.176 63.5487 14.024C63.5487 15.872 62.2167 17.144 60.3807 17.144C58.5447 17.144 57.2127 15.872 57.2127 14.024ZM58.6767 14.024C58.6767 15.104 59.3727 15.836 60.3807 15.836C61.3887 15.836 62.0847 15.104 62.0847 14.024C62.0847 12.944 61.3887 12.212 60.3807 12.212C59.3727 12.212 58.6767 12.944 58.6767 14.024ZM68.4291 11.048V12.404H67.8891C66.8331 12.404 66.1731 12.968 66.1731 14.12V17H64.7091V11.084H66.0891L66.1731 11.948C66.4251 11.36 66.9891 10.964 67.7811 10.964C67.9851 10.964 68.1891 10.988 68.4291 11.048ZM70.1521 9.884C69.6481 9.884 69.2521 9.488 69.2521 8.996C69.2521 8.504 69.6481 8.12 70.1521 8.12C70.6321 8.12 71.0281 8.504 71.0281 8.996C71.0281 9.488 70.6321 9.884 70.1521 9.884ZM69.4201 17V11.072H70.8841V17H69.4201ZM73.8606 17H72.3966V11.072H73.7526L73.8726 11.84C74.2446 11.24 74.9646 10.892 75.7686 10.892C77.2566 10.892 78.0246 11.816 78.0246 13.352V17H76.5606V13.7C76.5606 12.704 76.0686 12.224 75.3126 12.224C74.4126 12.224 73.8606 12.848 73.8606 13.808V17ZM79.127 13.904C79.127 12.176 80.255 10.88 81.947 10.88C82.835 10.88 83.531 11.252 83.879 11.888L83.963 11.072H85.319V16.7C85.319 18.68 84.131 19.916 82.211 19.916C80.507 19.916 79.343 18.944 79.163 17.36H80.627C80.723 18.128 81.311 18.584 82.211 18.584C83.219 18.584 83.867 17.948 83.867 16.964V15.98C83.495 16.532 82.763 16.88 81.911 16.88C80.231 16.88 79.127 15.62 79.127 13.904ZM80.603 13.868C80.603 14.864 81.239 15.608 82.199 15.608C83.207 15.608 83.831 14.9 83.831 13.868C83.831 12.86 83.219 12.164 82.199 12.164C81.227 12.164 80.603 12.896 80.603 13.868ZM86.8221 14.444V13.148H90.6861V14.444H86.8221ZM91.6398 15.2H93.0318C93.0438 15.716 93.4278 16.04 94.0998 16.04C94.7838 16.04 95.1558 15.764 95.1558 15.332C95.1558 15.032 94.9998 14.816 94.4718 14.696L93.4038 14.444C92.3358 14.204 91.8198 13.7 91.8198 12.752C91.8198 11.588 92.8038 10.892 94.1718 10.892C95.5038 10.892 96.4038 11.66 96.4158 12.812H95.0238C95.0118 12.308 94.6758 11.984 94.1118 11.984C93.5358 11.984 93.1998 12.248 93.1998 12.692C93.1998 13.028 93.4638 13.244 93.9678 13.364L95.0358 13.616C96.0318 13.844 96.5358 14.3 96.5358 15.212C96.5358 16.412 95.5158 17.156 94.0518 17.156C92.5758 17.156 91.6398 16.364 91.6398 15.2ZM97.3025 14.024C97.3025 12.188 98.5145 10.892 100.267 10.892C101.887 10.892 102.991 11.792 103.147 13.22H101.683C101.515 12.548 101.023 12.2 100.327 12.2C99.3905 12.2 98.7665 12.908 98.7665 14.024C98.7665 15.14 99.3425 15.836 100.279 15.836C101.011 15.836 101.527 15.476 101.683 14.828H103.159C102.979 16.208 101.827 17.156 100.279 17.156C98.4785 17.156 97.3025 15.908 97.3025 14.024ZM107.968 11.048V12.404H107.428C106.372 12.404 105.712 12.968 105.712 14.12V17H104.248V11.084H105.628L105.712 11.948C105.964 11.36 106.528 10.964 107.32 10.964C107.524 10.964 107.728 10.988 107.968 11.048ZM111.412 17.156C109.648 17.156 108.412 15.872 108.412 14.036C108.412 12.176 109.624 10.892 111.364 10.892C113.14 10.892 114.268 12.08 114.268 13.928V14.372L109.804 14.384C109.912 15.428 110.464 15.956 111.436 15.956C112.24 15.956 112.768 15.644 112.936 15.08H114.292C114.04 16.376 112.96 17.156 111.412 17.156ZM111.376 12.092C110.512 12.092 109.984 12.56 109.84 13.448H112.816C112.816 12.632 112.252 12.092 111.376 12.092ZM118.092 17.156C116.328 17.156 115.092 15.872 115.092 14.036C115.092 12.176 116.304 10.892 118.044 10.892C119.82 10.892 120.948 12.08 120.948 13.928V14.372L116.484 14.384C116.592 15.428 117.144 15.956 118.116 15.956C118.92 15.956 119.448 15.644 119.616 15.08H120.972C120.72 16.376 119.64 17.156 118.092 17.156ZM118.056 12.092C117.192 12.092 116.664 12.56 116.52 13.448H119.496C119.496 12.632 118.932 12.092 118.056 12.092ZM123.583 17H122.119V11.072H123.475L123.595 11.84C123.967 11.24 124.687 10.892 125.491 10.892C126.979 10.892 127.747 11.816 127.747 13.352V17H126.283V13.7C126.283 12.704 125.791 12.224 125.035 12.224C124.135 12.224 123.583 12.848 123.583 13.808V17Z" fill="black"/>
</svg>
