<svg width="101" height="24" viewBox="0 0 101 24" fill="none" xmlns="http://www.w3.org/2000/svg">
<path d="M19.75 9C19.75 4.73 16.27 1.25 12 1.25C7.73 1.25 4.25 4.73 4.25 9C4.25 9.41 4.59 9.75 5 9.75C5.41 9.75 5.75 9.41 5.75 9C5.75 5.55 8.55 2.75 12 2.75C15.45 2.75 18.25 5.55 18.25 9C18.25 12.45 15.45 15.25 12 15.25C11.59 15.25 11.25 15.59 11.25 16V22C11.25 22.41 11.59 22.75 12 22.75C12.41 22.75 12.75 22.41 12.75 22V16.71C16.67 16.33 19.75 13.02 19.75 9Z" fill="#1A1A1A"/>
<path d="M15 19.75H9C8.59 19.75 8.25 19.41 8.25 19C8.25 18.59 8.59 18.25 9 18.25H15C15.41 18.25 15.75 18.59 15.75 19C15.75 19.41 15.41 19.75 15 19.75Z" fill="#1A1A1A"/>
<path d="M35.728 16H34.132L37.3 7.228H38.872L42.04 16H40.42L39.712 13.972H36.436L35.728 16ZM37.888 9.844L36.892 12.676H39.268L38.26 9.844C38.188 9.616 38.104 9.352 38.08 9.172C38.044 9.34 37.972 9.604 37.888 9.844ZM42.3064 12.964C42.3064 11.104 43.4104 9.892 45.0784 9.892C45.9784 9.892 46.7584 10.288 47.1184 10.972L47.2144 10.072H48.5584V18.748H47.1064V15.208C46.7344 15.808 45.9544 16.156 45.0784 16.156C43.3144 16.156 42.3064 14.812 42.3064 12.964ZM43.7704 13.036C43.7704 14.092 44.3944 14.836 45.4144 14.836C46.4344 14.836 47.0944 14.104 47.0944 13.036C47.0944 11.968 46.4344 11.224 45.4144 11.224C44.3944 11.224 43.7704 11.98 43.7704 13.036ZM54.1041 10.072H55.5681V16H54.2121L54.1041 15.208C53.7441 15.772 52.9761 16.156 52.1841 16.156C50.8161 16.156 50.0121 15.232 50.0121 13.78V10.072H51.4761V13.264C51.4761 14.392 51.9201 14.848 52.7361 14.848C53.6601 14.848 54.1041 14.308 54.1041 13.18V10.072ZM58.8442 16.156C57.5842 16.156 56.8162 15.424 56.8162 14.308C56.8162 13.216 57.6082 12.532 59.0122 12.424L60.7882 12.292V12.16C60.7882 11.356 60.3082 11.032 59.5642 11.032C58.7002 11.032 58.2202 11.392 58.2202 12.016H56.9722C56.9722 10.732 58.0282 9.892 59.6362 9.892C61.2322 9.892 62.2162 10.756 62.2162 12.4V16H60.9322L60.8242 15.124C60.5722 15.736 59.7682 16.156 58.8442 16.156ZM59.3242 15.052C60.2242 15.052 60.8002 14.512 60.8002 13.6V13.288L59.5642 13.384C58.6522 13.468 58.3042 13.768 58.3042 14.248C58.3042 14.788 58.6642 15.052 59.3242 15.052ZM67.3744 10.048V11.404H66.8344C65.7784 11.404 65.1184 11.968 65.1184 13.12V16H63.6544V10.084H65.0344L65.1184 10.948C65.3704 10.36 65.9344 9.964 66.7264 9.964C66.9304 9.964 67.1344 9.988 67.3744 10.048ZM69.0974 8.884C68.5934 8.884 68.1974 8.488 68.1974 7.996C68.1974 7.504 68.5934 7.12 69.0974 7.12C69.5774 7.12 69.9734 7.504 69.9734 7.996C69.9734 8.488 69.5774 8.884 69.0974 8.884ZM68.3654 16V10.072H69.8294V16H68.3654ZM74.9987 10.072H76.4627V16H75.1067L74.9987 15.208C74.6387 15.772 73.8707 16.156 73.0787 16.156C71.7107 16.156 70.9067 15.232 70.9067 13.78V10.072H72.3707V13.264C72.3707 14.392 72.8147 14.848 73.6307 14.848C74.5547 14.848 74.9987 14.308 74.9987 13.18V10.072ZM77.4016 14.2H78.7936C78.8056 14.716 79.1896 15.04 79.8616 15.04C80.5456 15.04 80.9176 14.764 80.9176 14.332C80.9176 14.032 80.7616 13.816 80.2336 13.696L79.1656 13.444C78.0976 13.204 77.5816 12.7 77.5816 11.752C77.5816 10.588 78.5656 9.892 79.9336 9.892C81.2656 9.892 82.1656 10.66 82.1776 11.812H80.7856C80.7736 11.308 80.4376 10.984 79.8736 10.984C79.2976 10.984 78.9616 11.248 78.9616 11.692C78.9616 12.028 79.2256 12.244 79.7296 12.364L80.7976 12.616C81.7936 12.844 82.2976 13.3 82.2976 14.212C82.2976 15.412 81.2776 16.156 79.8136 16.156C78.3376 16.156 77.4016 15.364 77.4016 14.2Z" fill="black"/>
</svg>
