<svg width="140" height="24" viewBox="0 0 140 24" fill="none" xmlns="http://www.w3.org/2000/svg">
<path d="M16.19 2H7.81C4.17 2 2 4.17 2 7.81V16.18C2 19.83 4.17 22 7.81 22H16.18C19.82 22 21.99 19.83 21.99 16.19V7.81C22 4.17 19.83 2 16.19 2ZM13.92 16.13H9C8.59 16.13 8.25 15.79 8.25 15.38C8.25 14.97 8.59 14.63 9 14.63H13.92C15.2 14.63 16.25 13.59 16.25 12.3C16.25 11.01 15.21 9.97 13.92 9.97H8.85L9.11 10.23C9.4 10.53 9.4 11 9.1 11.3C8.95 11.45 8.76 11.52 8.57 11.52C8.38 11.52 8.19 11.45 8.04 11.3L6.47 9.72C6.18 9.43 6.18 8.95 6.47 8.66L8.04 7.09C8.33 6.8 8.81 6.8 9.1 7.09C9.39 7.38 9.39 7.86 9.1 8.15L8.77 8.48H13.92C16.03 8.48 17.75 10.2 17.75 12.31C17.75 14.42 16.03 16.13 13.92 16.13Z" fill="#1A1A1A"/>
<path d="M34.972 17V8.228H38.464C40.192 8.228 41.248 9.128 41.248 10.592C41.248 11.564 40.816 12.26 39.988 12.608C40.912 12.908 41.38 13.604 41.38 14.624C41.38 16.124 40.336 17 38.524 17H34.972ZM38.332 9.584H36.508V11.972H38.368C39.208 11.972 39.676 11.528 39.676 10.748C39.676 9.992 39.196 9.584 38.332 9.584ZM38.464 13.268H36.508V15.644H38.464C39.328 15.644 39.808 15.224 39.808 14.432C39.808 13.688 39.316 13.268 38.464 13.268ZM44.3364 17.156C43.0764 17.156 42.3084 16.424 42.3084 15.308C42.3084 14.216 43.1004 13.532 44.5044 13.424L46.2804 13.292V13.16C46.2804 12.356 45.8004 12.032 45.0564 12.032C44.1924 12.032 43.7124 12.392 43.7124 13.016H42.4644C42.4644 11.732 43.5204 10.892 45.1284 10.892C46.7244 10.892 47.7084 11.756 47.7084 13.4V17H46.4244L46.3164 16.124C46.0644 16.736 45.2604 17.156 44.3364 17.156ZM44.8164 16.052C45.7164 16.052 46.2924 15.512 46.2924 14.6V14.288L45.0564 14.384C44.1444 14.468 43.7964 14.768 43.7964 15.248C43.7964 15.788 44.1564 16.052 44.8164 16.052ZM48.7986 14.024C48.7986 12.188 50.0106 10.892 51.7626 10.892C53.3826 10.892 54.4866 11.792 54.6426 13.22H53.1786C53.0106 12.548 52.5186 12.2 51.8226 12.2C50.8866 12.2 50.2626 12.908 50.2626 14.024C50.2626 15.14 50.8386 15.836 51.7746 15.836C52.5066 15.836 53.0226 15.476 53.1786 14.828H54.6546C54.4746 16.208 53.3226 17.156 51.7746 17.156C49.9746 17.156 48.7986 15.908 48.7986 14.024ZM57.2203 17H55.7683V8.072H57.2203V13.556L59.5243 11.072H61.3603L59.1043 13.424L61.3123 17H59.6323L58.0843 14.504L57.2203 15.404V17ZM61.4159 14.444V13.148H65.2799V14.444H61.4159ZM66.2336 15.2H67.6256C67.6376 15.716 68.0216 16.04 68.6936 16.04C69.3776 16.04 69.7496 15.764 69.7496 15.332C69.7496 15.032 69.5936 14.816 69.0656 14.696L67.9976 14.444C66.9296 14.204 66.4136 13.7 66.4136 12.752C66.4136 11.588 67.3976 10.892 68.7656 10.892C70.0976 10.892 70.9976 11.66 71.0096 12.812H69.6176C69.6056 12.308 69.2696 11.984 68.7056 11.984C68.1296 11.984 67.7936 12.248 67.7936 12.692C67.7936 13.028 68.0576 13.244 68.5616 13.364L69.6296 13.616C70.6256 13.844 71.1296 14.3 71.1296 15.212C71.1296 16.412 70.1096 17.156 68.6456 17.156C67.1696 17.156 66.2336 16.364 66.2336 15.2ZM71.8963 13.964C71.8963 12.104 73.0003 10.892 74.6683 10.892C75.5683 10.892 76.3483 11.288 76.7083 11.972L76.8043 11.072H78.1483V19.748H76.6963V16.208C76.3243 16.808 75.5443 17.156 74.6683 17.156C72.9043 17.156 71.8963 15.812 71.8963 13.964ZM73.3603 14.036C73.3603 15.092 73.9843 15.836 75.0043 15.836C76.0243 15.836 76.6843 15.104 76.6843 14.036C76.6843 12.968 76.0243 12.224 75.0043 12.224C73.9843 12.224 73.3603 12.98 73.3603 14.036ZM83.694 11.072H85.158V17H83.802L83.694 16.208C83.334 16.772 82.566 17.156 81.774 17.156C80.406 17.156 79.602 16.232 79.602 14.78V11.072H81.066V14.264C81.066 15.392 81.51 15.848 82.326 15.848C83.25 15.848 83.694 15.308 83.694 14.18V11.072ZM88.4341 17.156C87.1741 17.156 86.4061 16.424 86.4061 15.308C86.4061 14.216 87.1981 13.532 88.6021 13.424L90.3781 13.292V13.16C90.3781 12.356 89.8981 12.032 89.1541 12.032C88.2901 12.032 87.8101 12.392 87.8101 13.016H86.5621C86.5621 11.732 87.6181 10.892 89.2261 10.892C90.8221 10.892 91.8061 11.756 91.8061 13.4V17H90.5221L90.4141 16.124C90.1621 16.736 89.3581 17.156 88.4341 17.156ZM88.9141 16.052C89.8141 16.052 90.3901 15.512 90.3901 14.6V14.288L89.1541 14.384C88.2421 14.468 87.8941 14.768 87.8941 15.248C87.8941 15.788 88.2541 16.052 88.9141 16.052ZM96.9643 11.048V12.404H96.4243C95.3683 12.404 94.7083 12.968 94.7083 14.12V17H93.2443V11.084H94.6243L94.7083 11.948C94.9603 11.36 95.5243 10.964 96.3163 10.964C96.5203 10.964 96.7243 10.988 96.9643 11.048ZM100.408 17.156C98.644 17.156 97.408 15.872 97.408 14.036C97.408 12.176 98.62 10.892 100.36 10.892C102.136 10.892 103.264 12.08 103.264 13.928V14.372L98.8 14.384C98.908 15.428 99.46 15.956 100.432 15.956C101.236 15.956 101.764 15.644 101.932 15.08H103.288C103.036 16.376 101.956 17.156 100.408 17.156ZM100.372 12.092C99.508 12.092 98.98 12.56 98.836 13.448H101.812C101.812 12.632 101.248 12.092 100.372 12.092Z" fill="black"/>
</svg>
