<svg width="113" height="24" viewBox="0 0 113 24" fill="none" xmlns="http://www.w3.org/2000/svg">
<path d="M7 5C7 3.34 8.34 2 10 2H14C15.66 2 17 3.34 17 5C17 5.55 16.55 6 16 6H8C7.45 6 7 5.55 7 5Z" fill="#1A1A1A"/>
<path d="M17.75 15C17.75 15.41 17.41 15.75 17 15.75H16V19C16 20.66 14.66 22 13 22H11C9.34 22 8 20.66 8 19V15.75H7C6.59 15.75 6.25 15.41 6.25 15C6.25 14.59 6.59 14.25 7 14.25H17C17.41 14.25 17.75 14.59 17.75 15Z" fill="#1A1A1A"/>
<path d="M18 7H6C4 7 3 8 3 10V15C3 17 4 18 6 18H6.375C6.72018 18 7 17.7202 7 17.375C7 17.0298 6.71131 16.7604 6.38841 16.6384C5.72619 16.3882 5.25 15.7453 5.25 15C5.25 14.04 6.04 13.25 7 13.25H17C17.96 13.25 18.75 14.04 18.75 15C18.75 15.7453 18.2738 16.3882 17.6116 16.6384C17.2887 16.7604 17 17.0298 17 17.375C17 17.7202 17.2798 18 17.625 18H18C20 18 21 17 21 15V10C21 8 20 7 18 7ZM10 11.75H7C6.59 11.75 6.25 11.41 6.25 11C6.25 10.59 6.59 10.25 7 10.25H10C10.41 10.25 10.75 10.59 10.75 11C10.75 11.41 10.41 11.75 10 11.75Z" fill="#1A1A1A"/>
<path d="M38.44 12.976H36.508V16H34.972V7.228H38.44C40.204 7.228 41.344 8.38 41.344 10.096C41.344 11.788 40.192 12.976 38.44 12.976ZM38.14 8.596H36.508V11.608H38.116C39.172 11.608 39.736 11.044 39.736 10.084C39.736 9.124 39.16 8.596 38.14 8.596ZM46.1401 10.048V11.404H45.6001C44.5441 11.404 43.8841 11.968 43.8841 13.12V16H42.4201V10.084H43.8001L43.8841 10.948C44.1361 10.36 44.7001 9.964 45.4921 9.964C45.6961 9.964 45.9001 9.988 46.1401 10.048ZM47.863 8.884C47.359 8.884 46.963 8.488 46.963 7.996C46.963 7.504 47.359 7.12 47.863 7.12C48.343 7.12 48.739 7.504 48.739 7.996C48.739 8.488 48.343 8.884 47.863 8.884ZM47.131 16V10.072H48.595V16H47.131ZM51.5716 16H50.1076V10.072H51.4636L51.5836 10.84C51.9556 10.24 52.6756 9.892 53.4796 9.892C54.9676 9.892 55.7356 10.816 55.7356 12.352V16H54.2716V12.7C54.2716 11.704 53.7796 11.224 53.0236 11.224C52.1236 11.224 51.5716 11.848 51.5716 12.808V16ZM59.19 16H57.726V11.296H56.586V10.072H57.726V8.224H59.19V10.072H60.342V11.296H59.19V16ZM63.8455 16.156C62.0815 16.156 60.8455 14.872 60.8455 13.036C60.8455 11.176 62.0575 9.892 63.7975 9.892C65.5735 9.892 66.7015 11.08 66.7015 12.928V13.372L62.2375 13.384C62.3455 14.428 62.8975 14.956 63.8695 14.956C64.6735 14.956 65.2015 14.644 65.3695 14.08H66.7255C66.4735 15.376 65.3935 16.156 63.8455 16.156ZM63.8095 11.092C62.9455 11.092 62.4175 11.56 62.2735 12.448H65.2495C65.2495 11.632 64.6855 11.092 63.8095 11.092ZM71.5932 10.048V11.404H71.0532C69.9972 11.404 69.3372 11.968 69.3372 13.12V16H67.8732V10.084H69.2532L69.3372 10.948C69.5892 10.36 70.1532 9.964 70.9452 9.964C71.1492 9.964 71.3532 9.988 71.5932 10.048Z" fill="black"/>
</svg>
