<svg width="137" height="24" viewBox="0 0 137 24" fill="none" xmlns="http://www.w3.org/2000/svg">
<path d="M17 2.42969H7C4 2.42969 2 4.42969 2 7.42969V13.4297C2 16.4297 4 18.4297 7 18.4297V20.5597C7 21.3597 7.89 21.8397 8.55 21.3897L13 18.4297H17C20 18.4297 22 16.4297 22 13.4297V7.42969C22 4.42969 20 2.42969 17 2.42969ZM12 14.5997C11.58 14.5997 11.25 14.2597 11.25 13.8497C11.25 13.4397 11.58 13.0997 12 13.0997C12.42 13.0997 12.75 13.4397 12.75 13.8497C12.75 14.2597 12.42 14.5997 12 14.5997ZM13.26 10.4497C12.87 10.7097 12.75 10.8797 12.75 11.1597V11.3697C12.75 11.7797 12.41 12.1197 12 12.1197C11.59 12.1197 11.25 11.7797 11.25 11.3697V11.1597C11.25 9.99969 12.1 9.42969 12.42 9.20969C12.79 8.95969 12.91 8.78969 12.91 8.52969C12.91 8.02969 12.5 7.61969 12 7.61969C11.5 7.61969 11.09 8.02969 11.09 8.52969C11.09 8.93969 10.75 9.27969 10.34 9.27969C9.93 9.27969 9.59 8.93969 9.59 8.52969C9.59 7.19969 10.67 6.11969 12 6.11969C13.33 6.11969 14.41 7.19969 14.41 8.52969C14.41 9.66969 13.57 10.2397 13.26 10.4497Z" fill="#1A1A1A"/>
<path d="M36.46 17H34.972V8.228H36.46L39.292 15.212L42.124 8.228H43.636V17H42.148V14.3C42.148 12.536 42.148 12.02 42.232 11.396L40 17H38.584L36.364 11.408C36.448 11.936 36.46 12.764 36.46 13.856V17ZM48.0135 17.156C46.2495 17.156 45.0135 15.872 45.0135 14.036C45.0135 12.176 46.2255 10.892 47.9655 10.892C49.7415 10.892 50.8695 12.08 50.8695 13.928V14.372L46.4055 14.384C46.5135 15.428 47.0655 15.956 48.0375 15.956C48.8415 15.956 49.3695 15.644 49.5375 15.08H50.8935C50.6415 16.376 49.5615 17.156 48.0135 17.156ZM47.9775 12.092C47.1135 12.092 46.5855 12.56 46.4415 13.448H49.4175C49.4175 12.632 48.8535 12.092 47.9775 12.092ZM51.5852 15.2H52.9772C52.9892 15.716 53.3732 16.04 54.0452 16.04C54.7292 16.04 55.1012 15.764 55.1012 15.332C55.1012 15.032 54.9452 14.816 54.4172 14.696L53.3492 14.444C52.2812 14.204 51.7652 13.7 51.7652 12.752C51.7652 11.588 52.7492 10.892 54.1172 10.892C55.4492 10.892 56.3492 11.66 56.3612 12.812H54.9692C54.9572 12.308 54.6212 11.984 54.0572 11.984C53.4812 11.984 53.1452 12.248 53.1452 12.692C53.1452 13.028 53.4092 13.244 53.9132 13.364L54.9812 13.616C55.9772 13.844 56.4812 14.3 56.4812 15.212C56.4812 16.412 55.4612 17.156 53.9972 17.156C52.5212 17.156 51.5852 16.364 51.5852 15.2ZM57.1398 15.2H58.5318C58.5438 15.716 58.9278 16.04 59.5998 16.04C60.2838 16.04 60.6558 15.764 60.6558 15.332C60.6558 15.032 60.4998 14.816 59.9718 14.696L58.9038 14.444C57.8358 14.204 57.3198 13.7 57.3198 12.752C57.3198 11.588 58.3038 10.892 59.6718 10.892C61.0038 10.892 61.9038 11.66 61.9158 12.812H60.5238C60.5118 12.308 60.1758 11.984 59.6118 11.984C59.0358 11.984 58.6998 12.248 58.6998 12.692C58.6998 13.028 58.9638 13.244 59.4678 13.364L60.5358 13.616C61.5318 13.844 62.0358 14.3 62.0358 15.212C62.0358 16.412 61.0158 17.156 59.5518 17.156C58.0758 17.156 57.1398 16.364 57.1398 15.2ZM64.9145 17.156C63.6545 17.156 62.8865 16.424 62.8865 15.308C62.8865 14.216 63.6785 13.532 65.0825 13.424L66.8585 13.292V13.16C66.8585 12.356 66.3785 12.032 65.6345 12.032C64.7705 12.032 64.2905 12.392 64.2905 13.016H63.0425C63.0425 11.732 64.0985 10.892 65.7065 10.892C67.3025 10.892 68.2865 11.756 68.2865 13.4V17H67.0025L66.8945 16.124C66.6425 16.736 65.8385 17.156 64.9145 17.156ZM65.3945 16.052C66.2945 16.052 66.8705 15.512 66.8705 14.6V14.288L65.6345 14.384C64.7225 14.468 64.3745 14.768 64.3745 15.248C64.3745 15.788 64.7345 16.052 65.3945 16.052ZM69.3888 13.904C69.3888 12.176 70.5168 10.88 72.2088 10.88C73.0968 10.88 73.7928 11.252 74.1408 11.888L74.2248 11.072H75.5807V16.7C75.5807 18.68 74.3928 19.916 72.4728 19.916C70.7688 19.916 69.6048 18.944 69.4248 17.36H70.8888C70.9848 18.128 71.5728 18.584 72.4728 18.584C73.4808 18.584 74.1288 17.948 74.1288 16.964V15.98C73.7568 16.532 73.0248 16.88 72.1728 16.88C70.4928 16.88 69.3888 15.62 69.3888 13.904ZM70.8648 13.868C70.8648 14.864 71.5008 15.608 72.4608 15.608C73.4688 15.608 74.0928 14.9 74.0928 13.868C74.0928 12.86 73.4808 12.164 72.4608 12.164C71.4888 12.164 70.8648 12.896 70.8648 13.868ZM79.7478 17.156C77.9838 17.156 76.7478 15.872 76.7478 14.036C76.7478 12.176 77.9598 10.892 79.6998 10.892C81.4758 10.892 82.6038 12.08 82.6038 13.928V14.372L78.1398 14.384C78.2478 15.428 78.7998 15.956 79.7718 15.956C80.5758 15.956 81.1038 15.644 81.2718 15.08H82.6278C82.3758 16.376 81.2958 17.156 79.7478 17.156ZM79.7118 12.092C78.8478 12.092 78.3198 12.56 78.1758 13.448H81.1518C81.1518 12.632 80.5878 12.092 79.7118 12.092ZM83.7635 14.444V13.148H87.6275V14.444H83.7635ZM88.7713 13.964C88.7713 12.104 89.8753 10.892 91.5433 10.892C92.4433 10.892 93.2233 11.288 93.5833 11.972L93.6793 11.072H95.0233V19.748H93.5713V16.208C93.1993 16.808 92.4193 17.156 91.5433 17.156C89.7793 17.156 88.7713 15.812 88.7713 13.964ZM90.2353 14.036C90.2353 15.092 90.8593 15.836 91.8793 15.836C92.8993 15.836 93.5593 15.104 93.5593 14.036C93.5593 12.968 92.8993 12.224 91.8793 12.224C90.8593 12.224 90.2353 12.98 90.2353 14.036ZM100.569 11.072H102.033V17H100.677L100.569 16.208C100.209 16.772 99.441 17.156 98.649 17.156C97.281 17.156 96.477 16.232 96.477 14.78V11.072H97.941V14.264C97.941 15.392 98.385 15.848 99.201 15.848C100.125 15.848 100.569 15.308 100.569 14.18V11.072ZM106.08 17.156C104.316 17.156 103.08 15.872 103.08 14.036C103.08 12.176 104.292 10.892 106.032 10.892C107.808 10.892 108.936 12.08 108.936 13.928V14.372L104.472 14.384C104.58 15.428 105.132 15.956 106.104 15.956C106.908 15.956 107.436 15.644 107.604 15.08H108.96C108.708 16.376 107.628 17.156 106.08 17.156ZM106.044 12.092C105.18 12.092 104.652 12.56 104.508 13.448H107.484C107.484 12.632 106.92 12.092 106.044 12.092ZM109.652 15.2H111.044C111.056 15.716 111.44 16.04 112.112 16.04C112.796 16.04 113.168 15.764 113.168 15.332C113.168 15.032 113.012 14.816 112.484 14.696L111.416 14.444C110.348 14.204 109.832 13.7 109.832 12.752C109.832 11.588 110.816 10.892 112.184 10.892C113.516 10.892 114.416 11.66 114.428 12.812H113.036C113.024 12.308 112.688 11.984 112.124 11.984C111.548 11.984 111.212 12.248 111.212 12.692C111.212 13.028 111.476 13.244 111.98 13.364L113.048 13.616C114.044 13.844 114.548 14.3 114.548 15.212C114.548 16.412 113.528 17.156 112.064 17.156C110.588 17.156 109.652 16.364 109.652 15.2ZM117.678 17H116.214V12.296H115.074V11.072H116.214V9.224H117.678V11.072H118.83V12.296H117.678V17ZM120.472 9.884C119.968 9.884 119.572 9.488 119.572 8.996C119.572 8.504 119.968 8.12 120.472 8.12C120.952 8.12 121.348 8.504 121.348 8.996C121.348 9.488 120.952 9.884 120.472 9.884ZM119.74 17V11.072H121.204V17H119.74ZM122.369 14.024C122.369 12.176 123.701 10.904 125.537 10.904C127.373 10.904 128.705 12.176 128.705 14.024C128.705 15.872 127.373 17.144 125.537 17.144C123.701 17.144 122.369 15.872 122.369 14.024ZM123.833 14.024C123.833 15.104 124.529 15.836 125.537 15.836C126.545 15.836 127.241 15.104 127.241 14.024C127.241 12.944 126.545 12.212 125.537 12.212C124.529 12.212 123.833 12.944 123.833 14.024ZM131.329 17H129.865V11.072H131.221L131.341 11.84C131.713 11.24 132.433 10.892 133.237 10.892C134.725 10.892 135.493 11.816 135.493 13.352V17H134.029V13.7C134.029 12.704 133.537 12.224 132.781 12.224C131.881 12.224 131.329 12.848 131.329 13.808V17Z" fill="black"/>
</svg>
