<svg width="164" height="24" viewBox="0 0 164 24" fill="none" xmlns="http://www.w3.org/2000/svg">
<path d="M16 1.97021H8C4 1.97021 2 3.97021 2 7.97021V12.9702C2 17.9702 4 18.9702 8 18.9702H8.5C8.78 18.9702 9.14 19.1502 9.3 19.3702L10.8 21.3702C11.46 22.2502 12.54 22.2502 13.2 21.3702L14.7 19.3702C14.89 19.1202 15.19 18.9702 15.5 18.9702H16C20 18.9702 22 16.9702 22 12.9702V7.97021C22 3.97021 20 1.97021 16 1.97021ZM8.53 12.1702C8.82 12.4602 8.82 12.9402 8.53 13.2302C8.38 13.3802 8.19 13.4502 8 13.4502C7.81 13.4502 7.62 13.3802 7.47 13.2302L5.47 11.2302C5.18 10.9402 5.18 10.4602 5.47 10.1702L7.47 8.17021C7.76 7.88021 8.24 7.88021 8.53 8.17021C8.82 8.46021 8.82 8.94021 8.53 9.23021L7.06 10.7002L8.53 12.1702ZM13.69 8.66021L11.69 13.3302C11.57 13.6102 11.29 13.7802 11 13.7802C10.9 13.7802 10.8 13.7602 10.7 13.7202C10.32 13.5602 10.14 13.1202 10.31 12.7302L12.31 8.06021C12.47 7.68021 12.91 7.50021 13.3 7.67021C13.68 7.84021 13.85 8.28021 13.69 8.66021ZM18.53 11.2302L16.53 13.2302C16.38 13.3802 16.19 13.4502 16 13.4502C15.81 13.4502 15.62 13.3802 15.47 13.2302C15.18 12.9402 15.18 12.4602 15.47 12.1702L16.94 10.7002L15.47 9.23021C15.18 8.94021 15.18 8.46021 15.47 8.17021C15.76 7.88021 16.24 7.88021 16.53 8.17021L18.53 10.1702C18.82 10.4602 18.82 10.9402 18.53 11.2302Z" fill="#1A1A1A"/>
<path d="M36.46 17H34.972V8.228H36.46L39.292 15.212L42.124 8.228H43.636V17H42.148V14.3C42.148 12.536 42.148 12.02 42.232 11.396L40 17H38.584L36.364 11.408C36.448 11.936 36.46 12.764 36.46 13.856V17ZM48.0135 17.156C46.2495 17.156 45.0135 15.872 45.0135 14.036C45.0135 12.176 46.2255 10.892 47.9655 10.892C49.7415 10.892 50.8695 12.08 50.8695 13.928V14.372L46.4055 14.384C46.5135 15.428 47.0655 15.956 48.0375 15.956C48.8415 15.956 49.3695 15.644 49.5375 15.08H50.8935C50.6415 16.376 49.5615 17.156 48.0135 17.156ZM47.9775 12.092C47.1135 12.092 46.5855 12.56 46.4415 13.448H49.4175C49.4175 12.632 48.8535 12.092 47.9775 12.092ZM51.5852 15.2H52.9772C52.9892 15.716 53.3732 16.04 54.0452 16.04C54.7292 16.04 55.1012 15.764 55.1012 15.332C55.1012 15.032 54.9452 14.816 54.4172 14.696L53.3492 14.444C52.2812 14.204 51.7652 13.7 51.7652 12.752C51.7652 11.588 52.7492 10.892 54.1172 10.892C55.4492 10.892 56.3492 11.66 56.3612 12.812H54.9692C54.9572 12.308 54.6212 11.984 54.0572 11.984C53.4812 11.984 53.1452 12.248 53.1452 12.692C53.1452 13.028 53.4092 13.244 53.9132 13.364L54.9812 13.616C55.9772 13.844 56.4812 14.3 56.4812 15.212C56.4812 16.412 55.4612 17.156 53.9972 17.156C52.5212 17.156 51.5852 16.364 51.5852 15.2ZM57.1398 15.2H58.5318C58.5438 15.716 58.9278 16.04 59.5998 16.04C60.2838 16.04 60.6558 15.764 60.6558 15.332C60.6558 15.032 60.4998 14.816 59.9718 14.696L58.9038 14.444C57.8358 14.204 57.3198 13.7 57.3198 12.752C57.3198 11.588 58.3038 10.892 59.6718 10.892C61.0038 10.892 61.9038 11.66 61.9158 12.812H60.5238C60.5118 12.308 60.1758 11.984 59.6118 11.984C59.0358 11.984 58.6998 12.248 58.6998 12.692C58.6998 13.028 58.9638 13.244 59.4678 13.364L60.5358 13.616C61.5318 13.844 62.0358 14.3 62.0358 15.212C62.0358 16.412 61.0158 17.156 59.5518 17.156C58.0758 17.156 57.1398 16.364 57.1398 15.2ZM64.9145 17.156C63.6545 17.156 62.8865 16.424 62.8865 15.308C62.8865 14.216 63.6785 13.532 65.0825 13.424L66.8585 13.292V13.16C66.8585 12.356 66.3785 12.032 65.6345 12.032C64.7705 12.032 64.2905 12.392 64.2905 13.016H63.0425C63.0425 11.732 64.0985 10.892 65.7065 10.892C67.3025 10.892 68.2865 11.756 68.2865 13.4V17H67.0025L66.8945 16.124C66.6425 16.736 65.8385 17.156 64.9145 17.156ZM65.3945 16.052C66.2945 16.052 66.8705 15.512 66.8705 14.6V14.288L65.6345 14.384C64.7225 14.468 64.3745 14.768 64.3745 15.248C64.3745 15.788 64.7345 16.052 65.3945 16.052ZM69.3888 13.904C69.3888 12.176 70.5168 10.88 72.2088 10.88C73.0968 10.88 73.7928 11.252 74.1408 11.888L74.2248 11.072H75.5807V16.7C75.5807 18.68 74.3928 19.916 72.4728 19.916C70.7688 19.916 69.6048 18.944 69.4248 17.36H70.8888C70.9848 18.128 71.5728 18.584 72.4728 18.584C73.4808 18.584 74.1288 17.948 74.1288 16.964V15.98C73.7568 16.532 73.0248 16.88 72.1728 16.88C70.4928 16.88 69.3888 15.62 69.3888 13.904ZM70.8648 13.868C70.8648 14.864 71.5008 15.608 72.4608 15.608C73.4688 15.608 74.0928 14.9 74.0928 13.868C74.0928 12.86 73.4808 12.164 72.4608 12.164C71.4888 12.164 70.8648 12.896 70.8648 13.868ZM79.7478 17.156C77.9838 17.156 76.7478 15.872 76.7478 14.036C76.7478 12.176 77.9598 10.892 79.6998 10.892C81.4758 10.892 82.6038 12.08 82.6038 13.928V14.372L78.1398 14.384C78.2478 15.428 78.7998 15.956 79.7718 15.956C80.5758 15.956 81.1038 15.644 81.2718 15.08H82.6278C82.3758 16.376 81.2958 17.156 79.7478 17.156ZM79.7118 12.092C78.8478 12.092 78.3198 12.56 78.1758 13.448H81.1518C81.1518 12.632 80.5878 12.092 79.7118 12.092ZM83.7635 14.444V13.148H87.6275V14.444H83.7635ZM89.1193 19.748V11.072H90.4753L90.5713 11.972C90.9313 11.288 91.7113 10.892 92.6113 10.892C94.2793 10.892 95.3833 12.104 95.3833 13.964C95.3833 15.812 94.3753 17.156 92.6113 17.156C91.7233 17.156 90.9553 16.808 90.5833 16.208V19.748H89.1193ZM90.5953 14.036C90.5953 15.104 91.2553 15.836 92.2633 15.836C93.2953 15.836 93.9073 15.092 93.9073 14.036C93.9073 12.98 93.2953 12.224 92.2633 12.224C91.2553 12.224 90.5953 12.968 90.5953 14.036ZM100.269 11.048V12.404H99.729C98.673 12.404 98.013 12.968 98.013 14.12V17H96.549V11.084H97.929L98.013 11.948C98.265 11.36 98.829 10.964 99.621 10.964C99.825 10.964 100.029 10.988 100.269 11.048ZM100.713 14.024C100.713 12.176 102.045 10.904 103.881 10.904C105.717 10.904 107.049 12.176 107.049 14.024C107.049 15.872 105.717 17.144 103.881 17.144C102.045 17.144 100.713 15.872 100.713 14.024ZM102.177 14.024C102.177 15.104 102.873 15.836 103.881 15.836C104.889 15.836 105.585 15.104 105.585 14.024C105.585 12.944 104.889 12.212 103.881 12.212C102.873 12.212 102.177 12.944 102.177 14.024ZM107.873 13.904C107.873 12.176 109.001 10.88 110.693 10.88C111.581 10.88 112.277 11.252 112.625 11.888L112.709 11.072H114.065V16.7C114.065 18.68 112.877 19.916 110.957 19.916C109.253 19.916 108.089 18.944 107.909 17.36H109.373C109.469 18.128 110.057 18.584 110.957 18.584C111.965 18.584 112.613 17.948 112.613 16.964V15.98C112.241 16.532 111.509 16.88 110.657 16.88C108.977 16.88 107.873 15.62 107.873 13.904ZM109.349 13.868C109.349 14.864 109.985 15.608 110.945 15.608C111.953 15.608 112.577 14.9 112.577 13.868C112.577 12.86 111.965 12.164 110.945 12.164C109.973 12.164 109.349 12.896 109.349 13.868ZM119.3 11.048V12.404H118.76C117.704 12.404 117.044 12.968 117.044 14.12V17H115.58V11.084H116.96L117.044 11.948C117.296 11.36 117.86 10.964 118.652 10.964C118.856 10.964 119.06 10.988 119.3 11.048ZM121.821 17.156C120.561 17.156 119.793 16.424 119.793 15.308C119.793 14.216 120.585 13.532 121.989 13.424L123.765 13.292V13.16C123.765 12.356 123.285 12.032 122.541 12.032C121.677 12.032 121.197 12.392 121.197 13.016H119.949C119.949 11.732 121.005 10.892 122.613 10.892C124.209 10.892 125.193 11.756 125.193 13.4V17H123.909L123.801 16.124C123.549 16.736 122.745 17.156 121.821 17.156ZM122.301 16.052C123.201 16.052 123.777 15.512 123.777 14.6V14.288L122.541 14.384C121.629 14.468 121.281 14.768 121.281 15.248C121.281 15.788 121.641 16.052 122.301 16.052ZM128.095 17H126.631V11.072H127.975L128.095 11.768C128.395 11.276 128.995 10.892 129.847 10.892C130.747 10.892 131.371 11.336 131.683 12.02C131.983 11.336 132.679 10.892 133.579 10.892C135.019 10.892 135.811 11.756 135.811 13.124V17H134.359V13.508C134.359 12.656 133.903 12.212 133.207 12.212C132.499 12.212 131.959 12.668 131.959 13.64V17H130.495V13.496C130.495 12.668 130.051 12.224 129.355 12.224C128.659 12.224 128.095 12.68 128.095 13.64V17ZM138.712 17H137.248V11.072H138.592L138.712 11.768C139.012 11.276 139.612 10.892 140.464 10.892C141.364 10.892 141.988 11.336 142.3 12.02C142.6 11.336 143.296 10.892 144.196 10.892C145.636 10.892 146.428 11.756 146.428 13.124V17H144.976V13.508C144.976 12.656 144.52 12.212 143.824 12.212C143.116 12.212 142.576 12.668 142.576 13.64V17H141.112V13.496C141.112 12.668 140.668 12.224 139.972 12.224C139.276 12.224 138.712 12.68 138.712 13.64V17ZM148.597 9.884C148.093 9.884 147.697 9.488 147.697 8.996C147.697 8.504 148.093 8.12 148.597 8.12C149.077 8.12 149.473 8.504 149.473 8.996C149.473 9.488 149.077 9.884 148.597 9.884ZM147.865 17V11.072H149.329V17H147.865ZM152.306 17H150.842V11.072H152.198L152.318 11.84C152.69 11.24 153.41 10.892 154.214 10.892C155.702 10.892 156.47 11.816 156.47 13.352V17H155.006V13.7C155.006 12.704 154.514 12.224 153.758 12.224C152.858 12.224 152.306 12.848 152.306 13.808V17ZM157.572 13.904C157.572 12.176 158.7 10.88 160.392 10.88C161.28 10.88 161.976 11.252 162.324 11.888L162.408 11.072H163.764V16.7C163.764 18.68 162.576 19.916 160.656 19.916C158.952 19.916 157.788 18.944 157.608 17.36H159.072C159.168 18.128 159.756 18.584 160.656 18.584C161.664 18.584 162.312 17.948 162.312 16.964V15.98C161.94 16.532 161.208 16.88 160.356 16.88C158.676 16.88 157.572 15.62 157.572 13.904ZM159.048 13.868C159.048 14.864 159.684 15.608 160.644 15.608C161.652 15.608 162.276 14.9 162.276 13.868C162.276 12.86 161.664 12.164 160.644 12.164C159.672 12.164 159.048 12.896 159.048 13.868Z" fill="black"/>
</svg>
