<svg width="109" height="24" viewBox="0 0 109 24" fill="none" xmlns="http://www.w3.org/2000/svg">
<path d="M20.17 17.5699C19.64 18.0599 19.03 18.4299 18.37 18.6799C17.71 18.9299 17 18.4499 17 17.7399V16.4199C17 14.4699 15.42 12.8899 13.47 12.8899H10.53C8.58 12.8899 7 14.4699 7 16.4199V17.9999C7 18.5499 6.55 18.9999 6 18.9999H5.55C3.1 18.6299 2 16.6399 2 14.8599C2 13.1799 2.98 11.3199 5.11 10.7999C4.52 8.46994 5.02 6.27994 6.54 4.68994C8.27 2.87994 11.03 2.15994 13.41 2.89994C15.6 3.56994 17.14 5.36994 17.69 7.86994C19.6 8.29994 21.13 9.73994 21.74 11.7399C22.4 13.9099 21.8 16.1399 20.17 17.5699Z" fill="#1A1A1A"/>
<path d="M13.47 14.3901H10.53C9.26 14.3901 8.5 15.1501 8.5 16.4201V19.3601C8.5 20.6301 9.26 21.3901 10.53 21.3901H13.47C14.74 21.3901 15.5 20.6301 15.5 19.3601V16.4201C15.5 15.1501 14.74 14.3901 13.47 14.3901ZM11.71 18.8401L10.47 20.0701C10.38 20.1601 10.26 20.2101 10.15 20.2101C10.02 20.2101 9.91 20.1601 9.82 20.0701C9.64 19.8901 9.64 19.6001 9.82 19.4201L11.05 18.1801C11.24 18.0001 11.53 18.0001 11.71 18.1801C11.89 18.3601 11.89 18.6601 11.71 18.8401ZM11.71 16.3601L10.47 17.6001C10.38 17.6901 10.26 17.7401 10.15 17.7401C10.02 17.7401 9.91 17.6901 9.82 17.6001C9.64 17.4201 9.64 17.1201 9.82 16.9401L11.05 15.7101C11.24 15.5301 11.53 15.5301 11.71 15.7101C11.89 15.8901 11.89 16.1801 11.71 16.3601ZM14.18 18.8401L12.95 20.0701C12.85 20.1601 12.74 20.2101 12.62 20.2101C12.5 20.2101 12.38 20.1601 12.29 20.0701C12.11 19.8901 12.11 19.6001 12.29 19.4201L13.53 18.1801C13.71 18.0001 14 18.0001 14.18 18.1801C14.36 18.3601 14.36 18.6601 14.18 18.8401ZM14.18 16.3601L12.95 17.6001C12.85 17.6901 12.74 17.7401 12.62 17.7401C12.5 17.7401 12.38 17.6901 12.29 17.6001C12.11 17.4201 12.11 17.1201 12.29 16.9401L13.53 15.7101C13.71 15.5301 14 15.5301 14.18 15.7101C14.36 15.8901 14.36 16.1801 14.18 16.3601Z" fill="#1A1A1A"/>
<path d="M38.68 17.144C36.124 17.144 34.468 15.368 34.468 12.62C34.468 9.896 36.184 8.084 38.752 8.084C40.828 8.084 42.376 9.296 42.676 11.18H41.056C40.756 10.16 39.88 9.56 38.716 9.56C37.096 9.56 36.076 10.736 36.076 12.608C36.076 14.468 37.108 15.668 38.716 15.668C39.904 15.668 40.816 15.044 41.104 14.072H42.7C42.364 15.92 40.756 17.144 38.68 17.144ZM45.2789 17H43.8269V8.072H45.2789V17ZM46.4666 14.024C46.4666 12.176 47.7986 10.904 49.6346 10.904C51.4706 10.904 52.8026 12.176 52.8026 14.024C52.8026 15.872 51.4706 17.144 49.6346 17.144C47.7986 17.144 46.4666 15.872 46.4666 14.024ZM47.9306 14.024C47.9306 15.104 48.6266 15.836 49.6346 15.836C50.6426 15.836 51.3386 15.104 51.3386 14.024C51.3386 12.944 50.6426 12.212 49.6346 12.212C48.6266 12.212 47.9306 12.944 47.9306 14.024ZM57.8424 11.072H59.3064V17H57.9504L57.8424 16.208C57.4824 16.772 56.7144 17.156 55.9224 17.156C54.5544 17.156 53.7504 16.232 53.7504 14.78V11.072H55.2144V14.264C55.2144 15.392 55.6584 15.848 56.4744 15.848C57.3984 15.848 57.8424 15.308 57.8424 14.18V11.072ZM63.1373 17.156C61.4213 17.156 60.3533 15.896 60.3533 14.06C60.3533 12.212 61.4333 10.892 63.2213 10.892C64.0493 10.892 64.7813 11.24 65.1533 11.828V8.072H66.6053V17H65.2613L65.1653 16.076C64.8053 16.76 64.0373 17.156 63.1373 17.156ZM63.4613 15.812C64.4813 15.812 65.1413 15.08 65.1413 14.012C65.1413 12.944 64.4813 12.2 63.4613 12.2C62.4413 12.2 61.8173 12.956 61.8173 14.012C61.8173 15.068 62.4413 15.812 63.4613 15.812ZM68.119 14.444V13.148H71.983V14.444H68.119ZM75.9108 17.156C74.1948 17.156 73.1268 15.896 73.1268 14.06C73.1268 12.212 74.2068 10.892 75.9948 10.892C76.8228 10.892 77.5548 11.24 77.9268 11.828V8.072H79.3788V17H78.0348L77.9388 16.076C77.5788 16.76 76.8108 17.156 75.9108 17.156ZM76.2348 15.812C77.2548 15.812 77.9148 15.08 77.9148 14.012C77.9148 12.944 77.2548 12.2 76.2348 12.2C75.2148 12.2 74.5908 12.956 74.5908 14.012C74.5908 15.068 75.2148 15.812 76.2348 15.812ZM84.6244 11.048V12.404H84.0844C83.0284 12.404 82.3684 12.968 82.3684 14.12V17H80.9044V11.084H82.2844L82.3684 11.948C82.6204 11.36 83.1844 10.964 83.9764 10.964C84.1804 10.964 84.3844 10.988 84.6244 11.048ZM86.3474 9.884C85.8434 9.884 85.4474 9.488 85.4474 8.996C85.4474 8.504 85.8434 8.12 86.3474 8.12C86.8274 8.12 87.2234 8.504 87.2234 8.996C87.2234 9.488 86.8274 9.884 86.3474 9.884ZM85.6154 17V11.072H87.0794V17H85.6154ZM93.0679 17H88.2799V15.8L91.2319 12.296H88.2799V11.072H93.0679V12.284L90.0679 15.776H93.0679V17ZM98.7398 17H93.9518V15.8L96.9038 12.296H93.9518V11.072H98.7398V12.284L95.7398 15.776H98.7398V17ZM101.412 17H99.9597V8.072H101.412V17ZM105.599 17.156C103.835 17.156 102.599 15.872 102.599 14.036C102.599 12.176 103.811 10.892 105.551 10.892C107.327 10.892 108.455 12.08 108.455 13.928V14.372L103.991 14.384C104.099 15.428 104.651 15.956 105.623 15.956C106.427 15.956 106.955 15.644 107.123 15.08H108.479C108.227 16.376 107.147 17.156 105.599 17.156ZM105.563 12.092C104.699 12.092 104.171 12.56 104.027 13.448H107.003C107.003 12.632 106.439 12.092 105.563 12.092Z" fill="black"/>
</svg>
