<svg width="200" height="24" viewBox="0 0 200 24" fill="none" xmlns="http://www.w3.org/2000/svg">
<path d="M16.19 2H7.81C4.17 2 2 4.17 2 7.81V16.18C2 19.83 4.17 22 7.81 22H16.18C19.82 22 21.99 19.83 21.99 16.19V7.81C22 4.17 19.83 2 16.19 2ZM8.5 6.38C9.53 6.38 10.38 7.22 10.38 8.26C10.38 9.3 9.54 10.14 8.5 10.14C7.46 10.14 6.62 9.28 6.62 8.25C6.62 7.22 7.47 6.38 8.5 6.38ZM12 19.08C9.31 19.08 7.12 16.89 7.12 14.2C7.12 13.5 7.69 12.92 8.39 12.92H15.59C16.29 12.92 16.86 13.49 16.86 14.2C16.88 16.89 14.69 19.08 12 19.08ZM15.5 10.12C14.47 10.12 13.62 9.28 13.62 8.24C13.62 7.2 14.46 6.36 15.5 6.36C16.54 6.36 17.38 7.2 17.38 8.24C17.38 9.28 16.53 10.12 15.5 10.12Z" fill="#1A1A1A"/>
<path d="M40.42 17H34.972V8.228H40.42V9.644H36.508V11.9H40.012V13.256H36.508V15.584H40.42V17ZM43.3333 17H41.8693V11.072H43.2133L43.3333 11.768C43.6333 11.276 44.2333 10.892 45.0853 10.892C45.9853 10.892 46.6093 11.336 46.9213 12.02C47.2213 11.336 47.9173 10.892 48.8173 10.892C50.2573 10.892 51.0493 11.756 51.0493 13.124V17H49.5973V13.508C49.5973 12.656 49.1413 12.212 48.4453 12.212C47.7373 12.212 47.1973 12.668 47.1973 13.64V17H45.7333V13.496C45.7333 12.668 45.2893 12.224 44.5933 12.224C43.8973 12.224 43.3333 12.68 43.3333 13.64V17ZM52.1385 14.024C52.1385 12.176 53.4705 10.904 55.3065 10.904C57.1425 10.904 58.4745 12.176 58.4745 14.024C58.4745 15.872 57.1425 17.144 55.3065 17.144C53.4705 17.144 52.1385 15.872 52.1385 14.024ZM53.6025 14.024C53.6025 15.104 54.2985 15.836 55.3065 15.836C56.3145 15.836 57.0105 15.104 57.0105 14.024C57.0105 12.944 56.3145 12.212 55.3065 12.212C54.2985 12.212 53.6025 12.944 53.6025 14.024ZM60.3669 9.884C59.8749 9.884 59.4789 9.488 59.4789 8.996C59.4789 8.504 59.8749 8.12 60.3669 8.12C60.8469 8.12 61.2549 8.504 61.2549 8.996C61.2549 9.488 60.8469 9.884 60.3669 9.884ZM58.2189 19.784L58.4589 18.488C58.6629 18.548 58.7829 18.56 58.9629 18.56C59.4669 18.56 59.6349 18.272 59.6349 17.672V11.072H61.0989V17.84C61.0989 19.1 60.3789 19.916 59.0949 19.916C58.8189 19.916 58.6029 19.892 58.2189 19.784ZM63.3435 9.884C62.8395 9.884 62.4435 9.488 62.4435 8.996C62.4435 8.504 62.8395 8.12 63.3435 8.12C63.8235 8.12 64.2195 8.504 64.2195 8.996C64.2195 9.488 63.8235 9.884 63.3435 9.884ZM62.6115 17V11.072H64.0755V17H62.6115ZM65.576 14.444V13.148H69.44V14.444H65.576ZM72.3958 17H70.9318V8.072H72.4078V11.84C72.7798 11.264 73.4758 10.892 74.3278 10.892C75.7918 10.892 76.5598 11.816 76.5598 13.352V17H75.0958V13.7C75.0958 12.704 74.6038 12.224 73.8598 12.224C72.9358 12.224 72.3958 12.872 72.3958 13.76V17ZM79.7622 17.156C78.5022 17.156 77.7342 16.424 77.7342 15.308C77.7342 14.216 78.5262 13.532 79.9302 13.424L81.7062 13.292V13.16C81.7062 12.356 81.2262 12.032 80.4822 12.032C79.6182 12.032 79.1382 12.392 79.1382 13.016H77.8902C77.8902 11.732 78.9462 10.892 80.5542 10.892C82.1502 10.892 83.1342 11.756 83.1342 13.4V17H81.8502L81.7422 16.124C81.4902 16.736 80.6862 17.156 79.7622 17.156ZM80.2422 16.052C81.1422 16.052 81.7182 15.512 81.7182 14.6V14.288L80.4822 14.384C79.5702 14.468 79.2222 14.768 79.2222 15.248C79.2222 15.788 79.5822 16.052 80.2422 16.052ZM84.5724 19.748V11.072H85.9284L86.0244 11.972C86.3844 11.288 87.1644 10.892 88.0644 10.892C89.7324 10.892 90.8364 12.104 90.8364 13.964C90.8364 15.812 89.8284 17.156 88.0644 17.156C87.1764 17.156 86.4084 16.808 86.0364 16.208V19.748H84.5724ZM86.0484 14.036C86.0484 15.104 86.7084 15.836 87.7164 15.836C88.7484 15.836 89.3604 15.092 89.3604 14.036C89.3604 12.98 88.7484 12.224 87.7164 12.224C86.7084 12.224 86.0484 12.968 86.0484 14.036ZM92.0021 19.748V11.072H93.3581L93.4541 11.972C93.8141 11.288 94.5941 10.892 95.4941 10.892C97.1621 10.892 98.2661 12.104 98.2661 13.964C98.2661 15.812 97.2581 17.156 95.4941 17.156C94.6061 17.156 93.8381 16.808 93.4661 16.208V19.748H92.0021ZM93.4781 14.036C93.4781 15.104 94.1381 15.836 95.1461 15.836C96.1781 15.836 96.7901 15.092 96.7901 14.036C96.7901 12.98 96.1781 12.224 95.1461 12.224C94.1381 12.224 93.4781 12.968 93.4781 14.036ZM98.6931 19.748V18.524H99.5691C100.145 18.524 100.505 18.392 100.757 17.696L100.925 17.252L98.5371 11.072H100.085L101.609 15.392L103.217 11.072H104.729L101.825 18.32C101.381 19.424 100.757 19.88 99.7851 19.88C99.3771 19.88 99.0171 19.832 98.6931 19.748Z" fill="black"/>
</svg>
