<svg width="113" height="24" viewBox="0 0 113 24" fill="none" xmlns="http://www.w3.org/2000/svg">
<g clip-path="url(#clip0_4083_23101)">
<path d="M21.79 20.76L21.07 20.04C21.44 19.48 21.66 18.8 21.66 18.08C21.66 16.1 20.06 14.5 18.08 14.5C16.1 14.5 14.5 16.1 14.5 18.08C14.5 20.06 16.1 21.66 18.08 21.66C18.81 21.66 19.48 21.44 20.04 21.07L20.76 21.79C20.9 21.93 21.09 22 21.27 22C21.46 22 21.64 21.93 21.78 21.79C22.07 21.5 22.07 21.04 21.79 20.76Z" fill="#1A1A1A"/>
<path d="M2.03001 14.6299C2.03001 14.6599 2.01001 14.6999 2.01001 14.7299C2.93001 16.5699 4.43001 18.0799 6.27001 18.9899C6.30001 18.9899 6.34001 18.9699 6.37001 18.9699C6.03001 17.8099 5.77001 16.6199 5.58001 15.4299C4.38001 15.2299 3.19001 14.9699 2.03001 14.6299Z" fill="#1A1A1A"/>
<path d="M19.07 6.43043C18.13 4.46043 16.54 2.87043 14.58 1.94043C14.94 3.13043 15.24 4.35043 15.44 5.57043C16.66 5.77043 17.88 6.06043 19.07 6.43043Z" fill="#1A1A1A"/>
<path d="M1.93005 6.42953C3.13005 6.06953 4.35005 5.76953 5.57005 5.56953C5.77005 4.37953 6.02005 3.19953 6.36005 2.03953C6.33005 2.03953 6.29005 2.01953 6.26005 2.01953C4.38005 2.94953 2.85005 4.51953 1.93005 6.42953Z" fill="#1A1A1A"/>
<path d="M13.8201 5.36C13.5801 4.06 13.2801 2.76 12.8501 1.5C12.8301 1.43 12.8301 1.37 12.8201 1.29C12.0801 1.11 11.3001 1 10.5001 1C9.69005 1 8.92005 1.11 8.17005 1.3C8.16005 1.37 8.17005 1.43 8.15005 1.51C7.73005 2.77 7.42005 4.06 7.18005 5.36C9.39005 5.12 11.6101 5.12 13.8201 5.36Z" fill="#1A1A1A"/>
<path d="M5.36 7.17969C4.05 7.41969 2.77 7.72969 1.5 8.14969C1.43 8.16969 1.37 8.16969 1.3 8.17969C1.11 8.91969 1 9.69969 1 10.4997C1 11.3097 1.11 12.0797 1.3 12.8297C1.37 12.8397 1.43 12.8297 1.51 12.8497C2.77 13.2697 4.06 13.5797 5.37 13.8197C5.12 11.6097 5.12 9.38969 5.36 7.17969Z" fill="#1A1A1A"/>
<path d="M19.7 8.17969C19.63 8.17969 19.57 8.16969 19.49 8.14969C18.23 7.72969 16.93 7.41969 15.63 7.17969C15.88 9.38969 15.88 11.6097 15.63 13.8097C16.93 13.5697 18.23 13.2697 19.49 12.8397C19.56 12.8197 19.62 12.8297 19.7 12.8197C19.88 12.0697 20 11.2997 20 10.4897C20 9.69969 19.89 8.92969 19.7 8.17969Z" fill="#1A1A1A"/>
<path d="M7.18005 15.6399C7.42005 16.9499 7.72005 18.2399 8.15005 19.4999C8.17005 19.5699 8.16005 19.6299 8.17005 19.7099C8.92005 19.8899 9.69005 19.9999 10.5001 19.9999C11.3001 19.9999 12.0801 19.8899 12.8201 19.6999C12.8301 19.6299 12.8301 19.5699 12.8501 19.4899C13.2701 18.2299 13.5801 16.9399 13.8201 15.6299C12.7201 15.7499 11.6101 15.8399 10.5001 15.8399C9.39005 15.8399 8.28005 15.7599 7.18005 15.6399Z" fill="#1A1A1A"/>
<path d="M6.94998 6.94961C6.64998 9.30961 6.64998 11.6896 6.94998 14.0596C9.30998 14.3596 11.69 14.3596 14.06 14.0596C14.36 11.6996 14.36 9.31961 14.06 6.94961C11.69 6.64961 9.30998 6.64961 6.94998 6.94961Z" fill="#1A1A1A"/>
</g>
<path d="M38.812 9.524C37.072 9.524 36.076 10.784 36.076 12.68C36.076 14.636 37.204 15.704 38.824 15.704C40.348 15.704 41.272 14.864 41.272 13.46V13.424H38.62V12.068H42.7V17H41.404L41.308 15.992C40.828 16.664 39.832 17.132 38.644 17.132C36.184 17.132 34.468 15.344 34.468 12.644C34.468 9.98 36.208 8.084 38.848 8.084C40.852 8.084 42.4 9.248 42.652 11.036H41.032C40.756 10.004 39.868 9.524 38.812 9.524ZM45.6187 17H44.1667V8.072H45.6187V17ZM46.8064 14.024C46.8064 12.176 48.1384 10.904 49.9744 10.904C51.8104 10.904 53.1424 12.176 53.1424 14.024C53.1424 15.872 51.8104 17.144 49.9744 17.144C48.1384 17.144 46.8064 15.872 46.8064 14.024ZM48.2704 14.024C48.2704 15.104 48.9664 15.836 49.9744 15.836C50.9824 15.836 51.6784 15.104 51.6784 14.024C51.6784 12.944 50.9824 12.212 49.9744 12.212C48.9664 12.212 48.2704 12.944 48.2704 14.024ZM55.6589 17H54.3029V8.072H55.7669V11.936C56.1509 11.276 56.9429 10.88 57.8429 10.88C59.5349 10.88 60.5669 12.2 60.5669 14.072C60.5669 15.896 59.4509 17.156 57.7469 17.156C56.8589 17.156 56.1029 16.76 55.7549 16.076L55.6589 17ZM55.7789 14.012C55.7789 15.08 56.4389 15.812 57.4469 15.812C58.4789 15.812 59.0909 15.068 59.0909 14.012C59.0909 12.956 58.4789 12.2 57.4469 12.2C56.4389 12.2 55.7789 12.944 55.7789 14.012ZM63.4966 17.156C62.2366 17.156 61.4686 16.424 61.4686 15.308C61.4686 14.216 62.2606 13.532 63.6646 13.424L65.4406 13.292V13.16C65.4406 12.356 64.9606 12.032 64.2166 12.032C63.3526 12.032 62.8726 12.392 62.8726 13.016H61.6246C61.6246 11.732 62.6806 10.892 64.2886 10.892C65.8846 10.892 66.8686 11.756 66.8686 13.4V17H65.5846L65.4766 16.124C65.2246 16.736 64.4206 17.156 63.4966 17.156ZM63.9766 16.052C64.8766 16.052 65.4526 15.512 65.4526 14.6V14.288L64.2166 14.384C63.3046 14.468 62.9566 14.768 62.9566 15.248C62.9566 15.788 63.3166 16.052 63.9766 16.052ZM69.7828 17H68.3308V8.072H69.7828V17ZM71.3065 14.444V13.148H75.1705V14.444H71.3065ZM76.1242 15.2H77.5162C77.5282 15.716 77.9122 16.04 78.5842 16.04C79.2682 16.04 79.6402 15.764 79.6402 15.332C79.6402 15.032 79.4842 14.816 78.9562 14.696L77.8882 14.444C76.8202 14.204 76.3042 13.7 76.3042 12.752C76.3042 11.588 77.2882 10.892 78.6562 10.892C79.9882 10.892 80.8882 11.66 80.9002 12.812H79.5082C79.4962 12.308 79.1602 11.984 78.5962 11.984C78.0202 11.984 77.6842 12.248 77.6842 12.692C77.6842 13.028 77.9482 13.244 78.4522 13.364L79.5202 13.616C80.5162 13.844 81.0202 14.3 81.0202 15.212C81.0202 16.412 80.0002 17.156 78.5362 17.156C77.0602 17.156 76.1242 16.364 76.1242 15.2ZM84.7869 17.156C83.0229 17.156 81.7869 15.872 81.7869 14.036C81.7869 12.176 82.9989 10.892 84.7389 10.892C86.5149 10.892 87.6429 12.08 87.6429 13.928V14.372L83.1789 14.384C83.2869 15.428 83.8389 15.956 84.8109 15.956C85.6149 15.956 86.1429 15.644 86.3109 15.08H87.6669C87.4149 16.376 86.3349 17.156 84.7869 17.156ZM84.7509 12.092C83.8869 12.092 83.3589 12.56 83.2149 13.448H86.1909C86.1909 12.632 85.6269 12.092 84.7509 12.092ZM90.52 17.156C89.26 17.156 88.492 16.424 88.492 15.308C88.492 14.216 89.284 13.532 90.688 13.424L92.464 13.292V13.16C92.464 12.356 91.984 12.032 91.24 12.032C90.376 12.032 89.896 12.392 89.896 13.016H88.648C88.648 11.732 89.704 10.892 91.312 10.892C92.908 10.892 93.892 11.756 93.892 13.4V17H92.608L92.5 16.124C92.248 16.736 91.444 17.156 90.52 17.156ZM91 16.052C91.9 16.052 92.476 15.512 92.476 14.6V14.288L91.24 14.384C90.328 14.468 89.98 14.768 89.98 15.248C89.98 15.788 90.34 16.052 91 16.052ZM99.0502 11.048V12.404H98.5102C97.4542 12.404 96.7942 12.968 96.7942 14.12V17H95.3302V11.084H96.7102L96.7942 11.948C97.0462 11.36 97.6102 10.964 98.4022 10.964C98.6062 10.964 98.8102 10.988 99.0502 11.048ZM99.4939 14.024C99.4939 12.188 100.706 10.892 102.458 10.892C104.078 10.892 105.182 11.792 105.338 13.22H103.874C103.706 12.548 103.214 12.2 102.518 12.2C101.582 12.2 100.958 12.908 100.958 14.024C100.958 15.14 101.534 15.836 102.47 15.836C103.202 15.836 103.718 15.476 103.874 14.828H105.35C105.17 16.208 104.018 17.156 102.47 17.156C100.67 17.156 99.4939 15.908 99.4939 14.024ZM107.904 17H106.44V8.072H107.916V11.84C108.288 11.264 108.984 10.892 109.836 10.892C111.3 10.892 112.068 11.816 112.068 13.352V17H110.604V13.7C110.604 12.704 110.112 12.224 109.368 12.224C108.444 12.224 107.904 12.872 107.904 13.76V17Z" fill="black"/>
<defs>
<clipPath id="clip0_4083_23101">
<rect width="24" height="24" fill="white"/>
</clipPath>
</defs>
</svg>
