<svg width="102" height="24" viewBox="0 0 102 24" fill="none" xmlns="http://www.w3.org/2000/svg">
<path d="M17 4.96V12.08C17 14.07 15.59 14.84 13.86 13.8L12.54 13C12.24 12.82 11.76 12.82 11.46 13L10.14 13.8C8.41 14.84 7 14.07 7 12.08V4.99C7.01 3 8.01 2 10 2H14C15.98 2 16.98 2.99 17 4.96Z" fill="#1A1A1A"/>
<path d="M22 11.8999V14.9299C22 19.9799 20 21.9999 15 21.9999H9C4 21.9999 2 19.9799 2 14.9299V11.8999C2 9.20986 2.57 7.37986 3.85 6.25986C4.5 5.70986 5.5 6.18986 5.5 7.03986V12.0799C5.5 13.5699 6.11 14.7699 7.17 15.3699C8.24 15.9799 9.6 15.8699 10.92 15.0799L12 14.4299L13.09 15.0799C13.83 15.5299 14.6 15.7599 15.32 15.7599C15.86 15.7599 16.37 15.6299 16.83 15.3699C17.89 14.7699 18.5 13.5699 18.5 12.0799V7.02986C18.5 6.17986 19.51 5.69986 20.15 6.25986C21.43 7.37986 22 9.20986 22 11.8999Z" fill="#1A1A1A"/>
<path d="M34.972 17V8.228H38.464C40.192 8.228 41.248 9.128 41.248 10.592C41.248 11.564 40.816 12.26 39.988 12.608C40.912 12.908 41.38 13.604 41.38 14.624C41.38 16.124 40.336 17 38.524 17H34.972ZM38.332 9.584H36.508V11.972H38.368C39.208 11.972 39.676 11.528 39.676 10.748C39.676 9.992 39.196 9.584 38.332 9.584ZM38.464 13.268H36.508V15.644H38.464C39.328 15.644 39.808 15.224 39.808 14.432C39.808 13.688 39.316 13.268 38.464 13.268ZM42.2244 14.024C42.2244 12.176 43.5564 10.904 45.3924 10.904C47.2284 10.904 48.5604 12.176 48.5604 14.024C48.5604 15.872 47.2284 17.144 45.3924 17.144C43.5564 17.144 42.2244 15.872 42.2244 14.024ZM43.6884 14.024C43.6884 15.104 44.3844 15.836 45.3924 15.836C46.4004 15.836 47.0964 15.104 47.0964 14.024C47.0964 12.944 46.4004 12.212 45.3924 12.212C44.3844 12.212 43.6884 12.944 43.6884 14.024ZM49.3728 14.024C49.3728 12.176 50.7048 10.904 52.5408 10.904C54.3768 10.904 55.7088 12.176 55.7088 14.024C55.7088 15.872 54.3768 17.144 52.5408 17.144C50.7048 17.144 49.3728 15.872 49.3728 14.024ZM50.8368 14.024C50.8368 15.104 51.5328 15.836 52.5408 15.836C53.5488 15.836 54.2448 15.104 54.2448 14.024C54.2448 12.944 53.5488 12.212 52.5408 12.212C51.5328 12.212 50.8368 12.944 50.8368 14.024ZM58.3453 17H56.8933V8.072H58.3453V13.556L60.6493 11.072H62.4853L60.2293 13.424L62.4373 17H60.7573L59.2093 14.504L58.3453 15.404V17ZM64.7903 17H63.3263V11.072H64.6703L64.7903 11.768C65.0903 11.276 65.6903 10.892 66.5423 10.892C67.4423 10.892 68.0663 11.336 68.3783 12.02C68.6783 11.336 69.3743 10.892 70.2743 10.892C71.7143 10.892 72.5063 11.756 72.5063 13.124V17H71.0543V13.508C71.0543 12.656 70.5983 12.212 69.9023 12.212C69.1943 12.212 68.6543 12.668 68.6543 13.64V17H67.1903V13.496C67.1903 12.668 66.7463 12.224 66.0503 12.224C65.3543 12.224 64.7903 12.68 64.7903 13.64V17ZM75.7075 17.156C74.4475 17.156 73.6795 16.424 73.6795 15.308C73.6795 14.216 74.4715 13.532 75.8755 13.424L77.6515 13.292V13.16C77.6515 12.356 77.1715 12.032 76.4275 12.032C75.5635 12.032 75.0835 12.392 75.0835 13.016H73.8355C73.8355 11.732 74.8915 10.892 76.4995 10.892C78.0955 10.892 79.0795 11.756 79.0795 13.4V17H77.7955L77.6875 16.124C77.4355 16.736 76.6315 17.156 75.7075 17.156ZM76.1875 16.052C77.0875 16.052 77.6635 15.512 77.6635 14.6V14.288L76.4275 14.384C75.5155 14.468 75.1675 14.768 75.1675 15.248C75.1675 15.788 75.5275 16.052 76.1875 16.052ZM84.2377 11.048V12.404H83.6977C82.6417 12.404 81.9817 12.968 81.9817 14.12V17H80.5177V11.084H81.8977L81.9817 11.948C82.2337 11.36 82.7977 10.964 83.5897 10.964C83.7937 10.964 83.9977 10.988 84.2377 11.048ZM86.7047 17H85.2527V8.072H86.7047V13.556L89.0087 11.072H90.8447L88.5887 13.424L90.7967 17H89.1167L87.5687 14.504L86.7047 15.404V17ZM90.9003 14.444V13.148H94.7643V14.444H90.9003ZM101.363 16.988L95.2786 17V15.848L98.1466 13.424C99.3346 12.416 99.7306 11.84 99.7306 11C99.7306 10.004 99.1906 9.44 98.2666 9.44C97.3066 9.44 96.7066 10.112 96.6946 11.24H95.1706C95.1826 9.32 96.4066 8.072 98.2666 8.072C100.139 8.072 101.303 9.14 101.303 10.916C101.303 12.14 100.631 13.064 99.2986 14.204L97.7146 15.56H101.363V16.988Z" fill="black"/>
</svg>
