<svg width="112" height="24" viewBox="0 0 112 24" fill="none" xmlns="http://www.w3.org/2000/svg">
<path d="M12 22.75C8 22.75 4.75 19.88 4.75 16.35V12.65C4.75 12.24 5.09 11.9 5.5 11.9C5.91 11.9 6.25 12.24 6.25 12.65C6.25 15.27 8.72 17.25 12 17.25C15.28 17.25 17.75 15.27 17.75 12.65C17.75 12.24 18.09 11.9 18.5 11.9C18.91 11.9 19.25 12.24 19.25 12.65V16.35C19.25 19.88 16 22.75 12 22.75ZM6.25 16.46C6.32 19.11 8.87 21.25 12 21.25C15.13 21.25 17.68 19.11 17.75 16.46C16.45 17.87 14.39 18.75 12 18.75C9.61 18.75 7.56 17.87 6.25 16.46Z" fill="#1A1A1A"/>
<path d="M12 13.75C9.24 13.75 6.75999 12.51 5.54999 10.51C5.02999 9.66 4.75 8.67 4.75 7.65C4.75 5.93 5.52 4.31 6.91 3.09C8.27 1.9 10.08 1.25 12 1.25C13.92 1.25 15.72 1.9 17.09 3.08C18.48 4.31 19.25 5.93 19.25 7.65C19.25 8.67 18.97 9.65 18.45 10.51C17.24 12.51 14.76 13.75 12 13.75ZM12 2.75C10.44 2.75 8.98001 3.27 7.89001 4.23C6.83001 5.15 6.25 6.37 6.25 7.65C6.25 8.4 6.44999 9.1 6.82999 9.73C7.77999 11.29 9.76 12.25 12 12.25C14.24 12.25 16.22 11.28 17.17 9.73C17.56 9.1 17.75 8.4 17.75 7.65C17.75 6.37 17.17 5.15 16.1 4.21C15.01 3.27 13.56 2.75 12 2.75Z" fill="#1A1A1A"/>
<path d="M12 18.75C7.87 18.75 4.75 16.13 4.75 12.65V7.65C4.75 4.12 8 1.25 12 1.25C13.92 1.25 15.72 1.9 17.09 3.08C18.48 4.31 19.25 5.93 19.25 7.65V12.65C19.25 16.13 16.13 18.75 12 18.75ZM12 2.75C8.83 2.75 6.25 4.95 6.25 7.65V8.65C6.25 11.27 8.72 13.25 12 13.25C15.28 13.25 17.75 11.27 17.75 8.65V7.65C17.75 6.37 17.17 5.15 16.1 4.21C15.01 3.27 13.56 2.75 12 2.75Z" fill="#1A1A1A"/>
<path d="M38.68 16.144C36.124 16.144 34.468 14.368 34.468 11.62C34.468 8.896 36.184 7.084 38.752 7.084C40.828 7.084 42.376 8.296 42.676 10.18H41.056C40.756 9.16 39.88 8.56 38.716 8.56C37.096 8.56 36.076 9.736 36.076 11.608C36.076 13.468 37.108 14.668 38.716 14.668C39.904 14.668 40.816 14.044 41.104 13.072H42.7C42.364 14.92 40.756 16.144 38.68 16.144ZM43.5135 13.024C43.5135 11.176 44.8455 9.904 46.6815 9.904C48.5175 9.904 49.8495 11.176 49.8495 13.024C49.8495 14.872 48.5175 16.144 46.6815 16.144C44.8455 16.144 43.5135 14.872 43.5135 13.024ZM44.9775 13.024C44.9775 14.104 45.6735 14.836 46.6815 14.836C47.6895 14.836 48.3855 14.104 48.3855 13.024C48.3855 11.944 47.6895 11.212 46.6815 11.212C45.6735 11.212 44.9775 11.944 44.9775 13.024ZM51.7419 8.884C51.2379 8.884 50.8419 8.488 50.8419 7.996C50.8419 7.504 51.2379 7.12 51.7419 7.12C52.2219 7.12 52.6179 7.504 52.6179 7.996C52.6179 8.488 52.2219 8.884 51.7419 8.884ZM51.0099 16V10.072H52.4739V16H51.0099ZM55.4505 16H53.9865V10.072H55.3425L55.4625 10.84C55.8345 10.24 56.5545 9.892 57.3585 9.892C58.8465 9.892 59.6145 10.816 59.6145 12.352V16H58.1505V12.7C58.1505 11.704 57.6585 11.224 56.9025 11.224C56.0025 11.224 55.4505 11.848 55.4505 12.808V16Z" fill="black"/>
</svg>
