<svg width="112" height="24" viewBox="0 0 112 24" fill="none" xmlns="http://www.w3.org/2000/svg">
<path d="M13.25 12.58V14.56C13.25 15.25 12.69 15.81 12 15.81C11.31 15.81 10.75 15.25 10.75 14.56V12.58C10.39 12.36 10.11 12.04 9.91 11.66H3C2.45 11.66 2 12.11 2 12.66V16.19C2 19.4 4.6 22 7.81 22H16.18C19.4 22 22 19.4 22 16.19V12.66C22 12.11 21.55 11.66 21 11.66H14.09C13.89 12.04 13.61 12.36 13.25 12.58Z" fill="#1A1A1A"/>
<path d="M16.19 2H7.81C4.6 2 2 4.6 2 7.81V9.16C2 9.71 2.45 10.16 3 10.16H9.67C9.9 8.84 11.21 7.9 12.64 8.28C13.44 8.49 14.09 9.14 14.3 9.94C14.32 10.01 14.32 10.09 14.33 10.16H21C21.55 10.16 22 9.71 22 9.16V7.81C22 4.6 19.4 2 16.19 2Z" fill="#1A1A1A"/>
<path d="M34.468 9.676C34.468 8.14 35.74 7.072 37.588 7.072C39.364 7.072 40.492 8.056 40.54 9.64H39.004C38.968 8.884 38.428 8.44 37.564 8.44C36.616 8.44 36.004 8.896 36.004 9.628C36.004 10.252 36.34 10.6 37.072 10.768L38.452 11.068C39.952 11.392 40.684 12.16 40.684 13.468C40.684 15.1 39.412 16.156 37.48 16.156C35.608 16.156 34.384 15.16 34.348 13.588H35.884C35.896 14.332 36.496 14.776 37.48 14.776C38.5 14.776 39.148 14.332 39.148 13.6C39.148 13.012 38.848 12.664 38.128 12.508L36.736 12.196C35.248 11.872 34.468 11.02 34.468 9.676ZM43.8736 16H42.4096V11.296H41.2696V10.072H42.4096V8.224H43.8736V10.072H45.0256V11.296H43.8736V16ZM49.6557 10.048V11.404H49.1157C48.0597 11.404 47.3997 11.968 47.3997 13.12V16H45.9357V10.084H47.3157L47.3997 10.948C47.6517 10.36 48.2157 9.964 49.0077 9.964C49.2117 9.964 49.4157 9.988 49.6557 10.048ZM50.0994 13.024C50.0994 11.176 51.4314 9.904 53.2674 9.904C55.1034 9.904 56.4354 11.176 56.4354 13.024C56.4354 14.872 55.1034 16.144 53.2674 16.144C51.4314 16.144 50.0994 14.872 50.0994 13.024ZM51.5634 13.024C51.5634 14.104 52.2594 14.836 53.2674 14.836C54.2754 14.836 54.9714 14.104 54.9714 13.024C54.9714 11.944 54.2754 11.212 53.2674 11.212C52.2594 11.212 51.5634 11.944 51.5634 13.024ZM59.0598 16H57.5958V10.072H58.9518L59.0718 10.84C59.4438 10.24 60.1638 9.892 60.9678 9.892C62.4558 9.892 63.2238 10.816 63.2238 12.352V16H61.7598V12.7C61.7598 11.704 61.2678 11.224 60.5118 11.224C59.6118 11.224 59.0598 11.848 59.0598 12.808V16ZM64.3263 12.904C64.3263 11.176 65.4543 9.88 67.1463 9.88C68.0343 9.88 68.7303 10.252 69.0783 10.888L69.1623 10.072H70.5182V15.7C70.5182 17.68 69.3303 18.916 67.4103 18.916C65.7063 18.916 64.5423 17.944 64.3623 16.36H65.8263C65.9223 17.128 66.5103 17.584 67.4103 17.584C68.4183 17.584 69.0663 16.948 69.0663 15.964V14.98C68.6943 15.532 67.9623 15.88 67.1103 15.88C65.4303 15.88 64.3263 14.62 64.3263 12.904ZM65.8023 12.868C65.8023 13.864 66.4383 14.608 67.3983 14.608C68.4063 14.608 69.0303 13.9 69.0303 12.868C69.0303 11.86 68.4183 11.164 67.3983 11.164C66.4263 11.164 65.8023 11.896 65.8023 12.868ZM73.3893 16H72.0333V7.072H73.4973V10.936C73.8813 10.276 74.6733 9.88 75.5733 9.88C77.2653 9.88 78.2973 11.2 78.2973 13.072C78.2973 14.896 77.1813 16.156 75.4773 16.156C74.5893 16.156 73.8333 15.76 73.4853 15.076L73.3893 16ZM73.5093 13.012C73.5093 14.08 74.1693 14.812 75.1773 14.812C76.2093 14.812 76.8213 14.068 76.8213 13.012C76.8213 11.956 76.2093 11.2 75.1773 11.2C74.1693 11.2 73.5093 11.944 73.5093 13.012ZM79.115 13.024C79.115 11.176 80.447 9.904 82.283 9.904C84.119 9.904 85.451 11.176 85.451 13.024C85.451 14.872 84.119 16.144 82.283 16.144C80.447 16.144 79.115 14.872 79.115 13.024ZM80.579 13.024C80.579 14.104 81.275 14.836 82.283 14.836C83.291 14.836 83.987 14.104 83.987 13.024C83.987 11.944 83.291 11.212 82.283 11.212C81.275 11.212 80.579 11.944 80.579 13.024ZM87.3739 16H85.7059L87.7459 13.096L85.7059 10.072H87.4099L88.7179 12.088L89.9779 10.072H91.6219L89.6059 13.072L91.5619 16H89.8819L88.6219 14.044L87.3739 16Z" fill="black"/>
</svg>
