<svg width="96" height="24" viewBox="0 0 96 24" fill="none" xmlns="http://www.w3.org/2000/svg">
<path d="M20 14.25C21.2426 14.25 22.25 13.2426 22.25 12C22.25 10.7574 21.2426 9.75 20 9.75C18.7574 9.75 17.75 10.7574 17.75 12C17.75 13.2426 18.7574 14.25 20 14.25Z" fill="#1A1A1A"/>
<path d="M20 6.25C21.2426 6.25 22.25 5.24264 22.25 4C22.25 2.75736 21.2426 1.75 20 1.75C18.7574 1.75 17.75 2.75736 17.75 4C17.75 5.24264 18.7574 6.25 20 6.25Z" fill="#1A1A1A"/>
<path d="M20 22.25C21.2426 22.25 22.25 21.2426 22.25 20C22.25 18.7574 21.2426 17.75 20 17.75C18.7574 17.75 17.75 18.7574 17.75 20C17.75 21.2426 18.7574 22.25 20 22.25Z" fill="#1A1A1A"/>
<path d="M4 14.25C5.24264 14.25 6.25 13.2426 6.25 12C6.25 10.7574 5.24264 9.75 4 9.75C2.75736 9.75 1.75 10.7574 1.75 12C1.75 13.2426 2.75736 14.25 4 14.25Z" fill="#1A1A1A"/>
<path d="M19 12.75C19.41 12.75 19.75 12.41 19.75 12C19.75 11.59 19.41 11.25 19 11.25H11.75V7C11.75 5.42 12.42 4.75 14 4.75H19C19.41 4.75 19.75 4.41 19.75 4C19.75 3.59 19.41 3.25 19 3.25H14C11.58 3.25 10.25 4.58 10.25 7V11.25H5C4.59 11.25 4.25 11.59 4.25 12C4.25 12.41 4.59 12.75 5 12.75H10.25V17C10.25 19.42 11.58 20.75 14 20.75H19C19.41 20.75 19.75 20.41 19.75 20C19.75 19.59 19.41 19.25 19 19.25H14C12.42 19.25 11.75 18.58 11.75 17V12.75H19Z" fill="#1A1A1A"/>
<path d="M38.128 16H34.972V7.228H38.044C40.636 7.228 42.424 9.016 42.424 11.632C42.424 14.212 40.672 16 38.128 16ZM37.9 8.644H36.508V14.584H37.984C39.736 14.584 40.804 13.456 40.804 11.632C40.804 9.772 39.712 8.644 37.9 8.644ZM45.4028 16.156C44.1428 16.156 43.3748 15.424 43.3748 14.308C43.3748 13.216 44.1668 12.532 45.5708 12.424L47.3468 12.292V12.16C47.3468 11.356 46.8668 11.032 46.1228 11.032C45.2588 11.032 44.7788 11.392 44.7788 12.016H43.5308C43.5308 10.732 44.5868 9.892 46.1948 9.892C47.7908 9.892 48.7748 10.756 48.7748 12.4V16H47.4908L47.3828 15.124C47.1308 15.736 46.3268 16.156 45.4028 16.156ZM45.8828 15.052C46.7828 15.052 47.3588 14.512 47.3588 13.6V13.288L46.1228 13.384C45.2108 13.468 44.8628 13.768 44.8628 14.248C44.8628 14.788 45.2228 15.052 45.8828 15.052ZM52.147 16H50.683V11.296H49.543V10.072H50.683V8.224H52.147V10.072H53.299V11.296H52.147V16ZM55.938 16.156C54.678 16.156 53.91 15.424 53.91 14.308C53.91 13.216 54.702 12.532 56.106 12.424L57.882 12.292V12.16C57.882 11.356 57.402 11.032 56.658 11.032C55.794 11.032 55.314 11.392 55.314 12.016H54.066C54.066 10.732 55.122 9.892 56.73 9.892C58.326 9.892 59.31 10.756 59.31 12.4V16H58.026L57.918 15.124C57.666 15.736 56.862 16.156 55.938 16.156ZM56.418 15.052C57.318 15.052 57.894 14.512 57.894 13.6V13.288L56.658 13.384C55.746 13.468 55.398 13.768 55.398 14.248C55.398 14.788 55.758 15.052 56.418 15.052Z" fill="black"/>
</svg>
