<svg width="101" height="24" viewBox="0 0 101 24" fill="none" xmlns="http://www.w3.org/2000/svg">
<path d="M8.0498 10.1398V11.2998H11.3098V8.0498H10.1498C8.9898 8.0498 8.0498 8.9898 8.0498 10.1398Z" fill="#1A1A1A"/>
<path d="M8.0498 13.8602C8.0498 15.0102 8.9898 15.9502 10.1398 15.9502H11.2998V12.7002H8.0498V13.8602Z" fill="#1A1A1A"/>
<path d="M12.7002 15.9502H13.8602C15.0102 15.9502 15.9502 15.0102 15.9502 13.8602V12.7002H12.7002V15.9502Z" fill="#1A1A1A"/>
<path d="M16.19 2H7.81C4.17 2 2 4.17 2 7.81V16.18C2 19.83 4.17 22 7.81 22H16.18C19.82 22 21.99 19.83 21.99 16.19V7.81C22 4.17 19.83 2 16.19 2ZM17.35 13.86C17.35 15.78 15.78 17.35 13.86 17.35H10.14C8.22 17.35 6.65 15.79 6.65 13.86V10.14C6.65 8.22 8.22 6.65 10.14 6.65H13.86C15.78 6.65 17.35 8.21 17.35 10.14V13.86Z" fill="#1A1A1A"/>
<path d="M13.8602 8.0498H12.7002V11.3098H15.9602V10.1498C15.9502 8.9898 15.0102 8.0498 13.8602 8.0498Z" fill="#1A1A1A"/>
<path d="M36.508 16H34.972V7.228H36.508V10.852H40.396V7.228H41.932V16H40.396V12.28H36.508V16ZM45.4263 16.156C44.1663 16.156 43.3983 15.424 43.3983 14.308C43.3983 13.216 44.1903 12.532 45.5943 12.424L47.3703 12.292V12.16C47.3703 11.356 46.8903 11.032 46.1463 11.032C45.2823 11.032 44.8023 11.392 44.8023 12.016H43.5543C43.5543 10.732 44.6103 9.892 46.2183 9.892C47.8143 9.892 48.7983 10.756 48.7983 12.4V16H47.5143L47.4063 15.124C47.1543 15.736 46.3503 16.156 45.4263 16.156ZM45.9062 15.052C46.8063 15.052 47.3823 14.512 47.3823 13.6V13.288L46.1463 13.384C45.2343 13.468 44.8863 13.768 44.8863 14.248C44.8863 14.788 45.2463 15.052 45.9062 15.052ZM49.7805 14.2H51.1725C51.1845 14.716 51.5685 15.04 52.2405 15.04C52.9245 15.04 53.2965 14.764 53.2965 14.332C53.2965 14.032 53.1405 13.816 52.6125 13.696L51.5445 13.444C50.4765 13.204 49.9605 12.7 49.9605 11.752C49.9605 10.588 50.9445 9.892 52.3125 9.892C53.6445 9.892 54.5445 10.66 54.5565 11.812H53.1645C53.1525 11.308 52.8165 10.984 52.2525 10.984C51.6765 10.984 51.3405 11.248 51.3405 11.692C51.3405 12.028 51.6045 12.244 52.1085 12.364L53.1765 12.616C54.1725 12.844 54.6765 13.3 54.6765 14.212C54.6765 15.412 53.6565 16.156 52.1925 16.156C50.7165 16.156 49.7805 15.364 49.7805 14.2ZM57.2552 16H55.7912V7.072H57.2672V10.84C57.6392 10.264 58.3352 9.892 59.1872 9.892C60.6512 9.892 61.4192 10.816 61.4192 12.352V16H59.9552V12.7C59.9552 11.704 59.4632 11.224 58.7192 11.224C57.7952 11.224 57.2552 11.872 57.2552 12.76V16ZM64.8736 16H63.4096V11.296H62.2696V10.072H63.4096V8.224H64.8736V10.072H66.0256V11.296H64.8736V16ZM68.6645 16.156C67.4045 16.156 66.6365 15.424 66.6365 14.308C66.6365 13.216 67.4285 12.532 68.8325 12.424L70.6085 12.292V12.16C70.6085 11.356 70.1285 11.032 69.3845 11.032C68.5205 11.032 68.0405 11.392 68.0405 12.016H66.7925C66.7925 10.732 67.8485 9.892 69.4565 9.892C71.0525 9.892 72.0365 10.756 72.0365 12.4V16H70.7525L70.6445 15.124C70.3925 15.736 69.5885 16.156 68.6645 16.156ZM69.1445 15.052C70.0445 15.052 70.6205 14.512 70.6205 13.6V13.288L69.3845 13.384C68.4725 13.468 68.1245 13.768 68.1245 14.248C68.1245 14.788 68.4845 15.052 69.1445 15.052ZM73.1388 12.904C73.1388 11.176 74.2668 9.88 75.9588 9.88C76.8468 9.88 77.5428 10.252 77.8908 10.888L77.9748 10.072H79.3307V15.7C79.3307 17.68 78.1428 18.916 76.2228 18.916C74.5188 18.916 73.3548 17.944 73.1748 16.36H74.6388C74.7348 17.128 75.3228 17.584 76.2228 17.584C77.2308 17.584 77.8788 16.948 77.8788 15.964V14.98C77.5068 15.532 76.7748 15.88 75.9228 15.88C74.2428 15.88 73.1388 14.62 73.1388 12.904ZM74.6148 12.868C74.6148 13.864 75.2508 14.608 76.2108 14.608C77.2188 14.608 77.8428 13.9 77.8428 12.868C77.8428 11.86 77.2308 11.164 76.2108 11.164C75.2388 11.164 74.6148 11.896 74.6148 12.868Z" fill="black"/>
</svg>
