<svg width="101" height="24" viewBox="0 0 101 24" fill="none" xmlns="http://www.w3.org/2000/svg">
<path d="M17.6005 5.31027L11.9505 2.27027C11.3505 1.95027 10.6405 1.95027 10.0405 2.27027L4.40047 5.31027C3.99047 5.54027 3.73047 5.98027 3.73047 6.46027C3.73047 6.95027 3.98047 7.39027 4.40047 7.61027L10.0505 10.6503C10.3505 10.8103 10.6805 10.8903 11.0005 10.8903C11.3205 10.8903 11.6605 10.8103 11.9505 10.6503L17.6005 7.61027C18.0105 7.39027 18.2705 6.95027 18.2705 6.46027C18.2705 5.98027 18.0105 5.54027 17.6005 5.31027Z" fill="#1A1A1A"/>
<path d="M9.12 11.7106L3.87 9.09058C3.46 8.88058 3 8.91058 2.61 9.14058C2.23 9.38058 2 9.79058 2 10.2406V15.2006C2 16.0606 2.48 16.8306 3.25 17.2206L8.5 19.8406C8.68 19.9306 8.88 19.9806 9.08 19.9806C9.31 19.9806 9.55 19.9106 9.76 19.7906C10.14 19.5506 10.37 19.1406 10.37 18.6906V13.7306C10.36 12.8706 9.88 12.1006 9.12 11.7106Z" fill="#1A1A1A"/>
<path d="M19.9996 10.2406V12.7006C19.5196 12.5606 19.0096 12.5006 18.4996 12.5006C17.1396 12.5006 15.8096 12.9706 14.7596 13.8106C13.3196 14.9406 12.4996 16.6506 12.4996 18.5006C12.4996 18.9906 12.5596 19.4806 12.6896 19.9506C12.5396 19.9306 12.3896 19.8706 12.2496 19.7806C11.8696 19.5506 11.6396 19.1406 11.6396 18.6906V13.7306C11.6396 12.8706 12.1196 12.1006 12.8796 11.7106L18.1296 9.09058C18.5396 8.88058 18.9996 8.91058 19.3896 9.14058C19.7696 9.38058 19.9996 9.79058 19.9996 10.2406Z" fill="#1A1A1A"/>
<path d="M21.98 15.6695C21.16 14.6595 19.91 14.0195 18.5 14.0195C17.44 14.0195 16.46 14.3895 15.69 15.0095C14.65 15.8295 14 17.0995 14 18.5195C14 19.3595 14.24 20.1595 14.65 20.8395C14.92 21.2895 15.26 21.6795 15.66 21.9995H15.67C16.44 22.6395 17.43 23.0195 18.5 23.0195C19.64 23.0195 20.67 22.5995 21.46 21.8995C21.81 21.5995 22.11 21.2395 22.35 20.8395C22.76 20.1595 23 19.3595 23 18.5195C23 17.4395 22.62 16.4395 21.98 15.6695ZM20.76 17.9595L18.36 20.1795C18.22 20.3095 18.03 20.3795 17.85 20.3795C17.66 20.3795 17.47 20.3095 17.32 20.1595L16.21 19.0495C15.92 18.7595 15.92 18.2795 16.21 17.9895C16.5 17.6995 16.98 17.6995 17.27 17.9895L17.87 18.5895L19.74 16.8595C20.04 16.5795 20.52 16.5995 20.8 16.8995C21.09 17.2095 21.07 17.6795 20.76 17.9595Z" fill="#1A1A1A"/>
<path d="M34.972 16V7.228H38.464C40.192 7.228 41.248 8.128 41.248 9.592C41.248 10.564 40.816 11.26 39.988 11.608C40.912 11.908 41.38 12.604 41.38 13.624C41.38 15.124 40.336 16 38.524 16H34.972ZM38.332 8.584H36.508V10.972H38.368C39.208 10.972 39.676 10.528 39.676 9.748C39.676 8.992 39.196 8.584 38.332 8.584ZM38.464 12.268H36.508V14.644H38.464C39.328 14.644 39.808 14.224 39.808 13.432C39.808 12.688 39.316 12.268 38.464 12.268ZM42.2244 13.024C42.2244 11.176 43.5564 9.904 45.3924 9.904C47.2284 9.904 48.5604 11.176 48.5604 13.024C48.5604 14.872 47.2284 16.144 45.3924 16.144C43.5564 16.144 42.2244 14.872 42.2244 13.024ZM43.6884 13.024C43.6884 14.104 44.3844 14.836 45.3924 14.836C46.4004 14.836 47.0964 14.104 47.0964 13.024C47.0964 11.944 46.4004 11.212 45.3924 11.212C44.3844 11.212 43.6884 11.944 43.6884 13.024ZM50.4833 16H48.8153L50.8553 13.096L48.8153 10.072H50.5193L51.8273 12.088L53.0873 10.072H54.7313L52.7153 13.072L54.6713 16H52.9913L51.7313 14.044L50.4833 16ZM55.0643 13.444V12.148H58.9283V13.444H55.0643ZM62.2017 16H60.7377V11.296H59.5977V10.072H60.7377V8.224H62.2017V10.072H63.3537V11.296H62.2017V16ZM64.9958 8.884C64.4918 8.884 64.0958 8.488 64.0958 7.996C64.0958 7.504 64.4918 7.12 64.9958 7.12C65.4758 7.12 65.8718 7.504 65.8718 7.996C65.8718 8.488 65.4758 8.884 64.9958 8.884ZM64.2638 16V10.072H65.7278V16H64.2638ZM66.8924 13.024C66.8924 11.188 68.1044 9.892 69.8564 9.892C71.4764 9.892 72.5804 10.792 72.7364 12.22H71.2724C71.1044 11.548 70.6124 11.2 69.9164 11.2C68.9804 11.2 68.3564 11.908 68.3564 13.024C68.3564 14.14 68.9324 14.836 69.8684 14.836C70.6004 14.836 71.1164 14.476 71.2724 13.828H72.7484C72.5684 15.208 71.4164 16.156 69.8684 16.156C68.0684 16.156 66.8924 14.908 66.8924 13.024ZM75.314 16H73.862V7.072H75.314V12.556L77.618 10.072H79.454L77.198 12.424L79.406 16H77.726L76.178 13.504L75.314 14.404V16Z" fill="black"/>
</svg>
