<svg width="154" height="24" viewBox="0 0 154 24" fill="none" xmlns="http://www.w3.org/2000/svg">
<path d="M5 15C4.06 15 3.19 15.33 2.5 15.88C1.58 16.61 1 17.74 1 19C1 21.21 2.79 23 5 23C6.01 23 6.93 22.62 7.64 22C8.47 21.27 9 20.2 9 19C9 16.79 7.21 15 5 15ZM6 19.25C6 19.51 5.86 19.76 5.64 19.89L4.39 20.64C4.27 20.72 4.13 20.75 4 20.75C3.75 20.75 3.5 20.62 3.36 20.39C3.15 20.03 3.26 19.57 3.62 19.36L4.51 18.83V17.75C4.5 17.34 4.84 17 5.25 17C5.66 17 6 17.34 6 17.75V19.25Z" fill="#1A1A1A"/>
<path d="M14.85 3.94999V7.74999H13.35V3.94999C13.35 3.67999 13.11 3.54999 12.95 3.54999C12.9 3.54999 12.85 3.55999 12.8 3.57999L4.87 6.56999C4.34 6.76999 4 7.26999 4 7.83999V8.50999C3.09 9.18999 2.5 10.28 2.5 11.51V7.83999C2.5 6.64999 3.23 5.58999 4.34 5.16999L12.28 2.16999C12.5 2.08999 12.73 2.04999 12.95 2.04999C13.95 2.04999 14.85 2.85999 14.85 3.94999Z" fill="#1A1A1A"/>
<path d="M21.4997 14.5V15.5C21.4997 15.77 21.2897 15.99 21.0097 16H19.5497C19.0197 16 18.5397 15.61 18.4997 15.09C18.4697 14.78 18.5897 14.49 18.7897 14.29C18.9697 14.1 19.2197 14 19.4897 14H20.9997C21.2897 14.01 21.4997 14.23 21.4997 14.5Z" fill="#1A1A1A"/>
<path d="M19.48 12.95H20.5C21.05 12.95 21.5 12.5 21.5 11.95V11.51C21.5 9.44 19.81 7.75 17.74 7.75H6.26C5.41 7.75 4.63 8.03 4 8.51C3.09 9.19 2.5 10.28 2.5 11.51V13.29C2.5 13.67 2.9 13.91 3.26 13.79C3.82 13.6 4.41 13.5 5 13.5C8.03 13.5 10.5 15.97 10.5 19C10.5 19.72 10.31 20.51 10.01 21.21C9.85 21.57 10.1 22 10.49 22H17.74C19.81 22 21.5 20.31 21.5 18.24V18.05C21.5 17.5 21.05 17.05 20.5 17.05H19.63C18.67 17.05 17.75 16.46 17.5 15.53C17.3 14.77 17.54 14.03 18.04 13.55C18.41 13.17 18.92 12.95 19.48 12.95ZM14 12.75H9C8.59 12.75 8.25 12.41 8.25 12C8.25 11.59 8.59 11.25 9 11.25H14C14.41 11.25 14.75 11.59 14.75 12C14.75 12.41 14.41 12.75 14 12.75Z" fill="#1A1A1A"/>
<path d="M40.42 17H34.972V8.228H40.42V9.644H36.508V11.9H40.012V13.256H36.508V15.584H40.42V17ZM43.3333 17H41.8693V11.072H43.2133L43.3333 11.768C43.6333 11.276 44.2333 10.892 45.0853 10.892C45.9853 10.892 46.6093 11.336 46.9213 12.02C47.2213 11.336 47.9173 10.892 48.8173 10.892C50.2573 10.892 51.0493 11.756 51.0493 13.124V17H49.5973V13.508C49.5973 12.656 49.1413 12.212 48.4453 12.212C47.7373 12.212 47.1973 12.668 47.1973 13.64V17H45.7333V13.496C45.7333 12.668 45.2893 12.224 44.5933 12.224C43.8973 12.224 43.3333 12.68 43.3333 13.64V17ZM52.4865 19.748V11.072H53.8425L53.9385 11.972C54.2985 11.288 55.0785 10.892 55.9785 10.892C57.6465 10.892 58.7505 12.104 58.7505 13.964C58.7505 15.812 57.7425 17.156 55.9785 17.156C55.0905 17.156 54.3225 16.808 53.9505 16.208V19.748H52.4865ZM53.9625 14.036C53.9625 15.104 54.6225 15.836 55.6305 15.836C56.6625 15.836 57.2745 15.092 57.2745 14.036C57.2745 12.98 56.6625 12.224 55.6305 12.224C54.6225 12.224 53.9625 12.968 53.9625 14.036ZM61.8736 17H60.4096V12.296H59.2696V11.072H60.4096V9.224H61.8736V11.072H63.0256V12.296H61.8736V17ZM63.4197 19.748V18.524H64.2957C64.8717 18.524 65.2317 18.392 65.4837 17.696L65.6517 17.252L63.2637 11.072H64.8117L66.3357 15.392L67.9437 11.072H69.4557L66.5517 18.32C66.1077 19.424 65.4837 19.88 64.5117 19.88C64.1037 19.88 63.7437 19.832 63.4197 19.748ZM69.8651 14.444V13.148H73.7291V14.444H69.8651ZM76.1187 17L74.1987 11.072H75.7227L76.5027 13.616C76.6347 14.084 76.7547 14.6 76.8627 15.152C76.9707 14.576 77.0787 14.204 77.2707 13.616L78.0867 11.072H79.5747L80.3667 13.616C80.4387 13.856 80.6787 14.744 80.7507 15.14C80.8467 14.696 81.0387 13.988 81.1467 13.616L81.9387 11.072H83.4867L81.4347 17H80.0667L79.2507 14.432C79.0107 13.652 78.8787 13.088 78.8307 12.788C78.7707 13.064 78.6627 13.484 78.3627 14.456L77.5467 17H76.1187ZM85.8442 17.156C84.5842 17.156 83.8162 16.424 83.8162 15.308C83.8162 14.216 84.6082 13.532 86.0122 13.424L87.7882 13.292V13.16C87.7882 12.356 87.3082 12.032 86.5642 12.032C85.7002 12.032 85.2202 12.392 85.2202 13.016H83.9722C83.9722 11.732 85.0282 10.892 86.6362 10.892C88.2322 10.892 89.2162 11.756 89.2162 13.4V17H87.9322L87.8242 16.124C87.5722 16.736 86.7682 17.156 85.8442 17.156ZM86.3242 16.052C87.2242 16.052 87.8002 15.512 87.8002 14.6V14.288L86.5642 14.384C85.6522 14.468 85.3042 14.768 85.3042 15.248C85.3042 15.788 85.6642 16.052 86.3242 16.052ZM92.1304 17H90.6784V8.072H92.1304V17ZM95.1422 17H93.6902V8.072H95.1422V17ZM99.3299 17.156C97.5659 17.156 96.3299 15.872 96.3299 14.036C96.3299 12.176 97.5419 10.892 99.2819 10.892C101.058 10.892 102.186 12.08 102.186 13.928V14.372L97.7219 14.384C97.8299 15.428 98.3819 15.956 99.3539 15.956C100.158 15.956 100.686 15.644 100.854 15.08H102.21C101.958 16.376 100.878 17.156 99.3299 17.156ZM99.2939 12.092C98.4299 12.092 97.9019 12.56 97.7579 13.448H100.734C100.734 12.632 100.17 12.092 99.2939 12.092ZM105.315 17H103.851V12.296H102.711V11.072H103.851V9.224H105.315V11.072H106.467V12.296H105.315V17ZM107.131 14.444V13.148H110.995V14.444H107.131ZM114.268 17H112.804V12.296H111.664V11.072H112.804V9.224H114.268V11.072H115.42V12.296H114.268V17ZM117.062 9.884C116.558 9.884 116.162 9.488 116.162 8.996C116.162 8.504 116.558 8.12 117.062 8.12C117.542 8.12 117.938 8.504 117.938 8.996C117.938 9.488 117.542 9.884 117.062 9.884ZM116.33 17V11.072H117.794V17H116.33ZM120.771 17H119.307V11.072H120.651L120.771 11.768C121.071 11.276 121.671 10.892 122.523 10.892C123.423 10.892 124.047 11.336 124.359 12.02C124.659 11.336 125.355 10.892 126.255 10.892C127.695 10.892 128.487 11.756 128.487 13.124V17H127.035V13.508C127.035 12.656 126.579 12.212 125.883 12.212C125.175 12.212 124.635 12.668 124.635 13.64V17H123.171V13.496C123.171 12.668 122.727 12.224 122.031 12.224C121.335 12.224 120.771 12.68 120.771 13.64V17ZM132.576 17.156C130.812 17.156 129.576 15.872 129.576 14.036C129.576 12.176 130.788 10.892 132.528 10.892C134.304 10.892 135.432 12.08 135.432 13.928V14.372L130.968 14.384C131.076 15.428 131.628 15.956 132.6 15.956C133.404 15.956 133.932 15.644 134.1 15.08H135.456C135.204 16.376 134.124 17.156 132.576 17.156ZM132.54 12.092C131.676 12.092 131.148 12.56 131.004 13.448H133.98C133.98 12.632 133.416 12.092 132.54 12.092Z" fill="black"/>
</svg>
