<svg width="107" height="24" viewBox="0 0 107 24" fill="none" xmlns="http://www.w3.org/2000/svg">
<path d="M15.98 19.3799H17.02C18.61 19.3799 19.25 18.7799 19.25 17.2599V5.37988H13.75V17.2599C13.76 18.7799 14.4 19.3799 15.98 19.3799Z" fill="#1A1A1A"/>
<path d="M7.48 14.3799H8.52C10.11 14.3799 10.75 13.7699 10.75 12.2599V5.37988H5.25V12.2599C5.26 13.7699 5.9 14.3799 7.48 14.3799Z" fill="#1A1A1A"/>
<path d="M21.25 6.11988H2.75C2.34 6.11988 2 5.78988 2 5.37988C2 4.96988 2.34 4.62988 2.75 4.62988H21.25C21.66 4.62988 22 4.96988 22 5.37988C22 5.78988 21.66 6.11988 21.25 6.11988Z" fill="#1A1A1A"/>
<path d="M34.728 17H33.132L36.3 8.228H37.872L41.04 17H39.42L38.712 14.972H35.436L34.728 17ZM36.888 10.844L35.892 13.676H38.268L37.26 10.844C37.188 10.616 37.104 10.352 37.08 10.172C37.044 10.34 36.972 10.604 36.888 10.844ZM43.4 17H41.948V8.072H43.4V17ZM45.6677 9.884C45.1637 9.884 44.7677 9.488 44.7677 8.996C44.7677 8.504 45.1637 8.12 45.6677 8.12C46.1477 8.12 46.5437 8.504 46.5437 8.996C46.5437 9.488 46.1477 9.884 45.6677 9.884ZM44.9357 17V11.072H46.3997V17H44.9357ZM47.5763 13.904C47.5763 12.176 48.7043 10.88 50.3963 10.88C51.2843 10.88 51.9803 11.252 52.3283 11.888L52.4123 11.072H53.7682V16.7C53.7682 18.68 52.5803 19.916 50.6603 19.916C48.9563 19.916 47.7923 18.944 47.6123 17.36H49.0763C49.1723 18.128 49.7603 18.584 50.6603 18.584C51.6683 18.584 52.3163 17.948 52.3163 16.964V15.98C51.9443 16.532 51.2123 16.88 50.3603 16.88C48.6803 16.88 47.5763 15.62 47.5763 13.904ZM49.0523 13.868C49.0523 14.864 49.6883 15.608 50.6483 15.608C51.6563 15.608 52.2803 14.9 52.2803 13.868C52.2803 12.86 51.6683 12.164 50.6483 12.164C49.6763 12.164 49.0523 12.896 49.0523 13.868ZM56.7473 17H55.2833V11.072H56.6393L56.7593 11.84C57.1313 11.24 57.8513 10.892 58.6553 10.892C60.1433 10.892 60.9113 11.816 60.9113 13.352V17H59.4473V13.7C59.4473 12.704 58.9553 12.224 58.1993 12.224C57.2993 12.224 56.7473 12.848 56.7473 13.808V17ZM62.3378 14.444V13.148H66.2018V14.444H62.3378ZM69.0495 17H67.6935V8.072H69.1575V11.936C69.5415 11.276 70.3335 10.88 71.2335 10.88C72.9255 10.88 73.9575 12.2 73.9575 14.072C73.9575 15.896 72.8415 17.156 71.1375 17.156C70.2495 17.156 69.4935 16.76 69.1455 16.076L69.0495 17ZM69.1695 14.012C69.1695 15.08 69.8295 15.812 70.8375 15.812C71.8695 15.812 72.4815 15.068 72.4815 14.012C72.4815 12.956 71.8695 12.2 70.8375 12.2C69.8295 12.2 69.1695 12.944 69.1695 14.012ZM74.7752 14.024C74.7752 12.176 76.1072 10.904 77.9432 10.904C79.7792 10.904 81.1112 12.176 81.1112 14.024C81.1112 15.872 79.7792 17.144 77.9432 17.144C76.1072 17.144 74.7752 15.872 74.7752 14.024ZM76.2392 14.024C76.2392 15.104 76.9352 15.836 77.9432 15.836C78.9512 15.836 79.6472 15.104 79.6472 14.024C79.6472 12.944 78.9512 12.212 77.9432 12.212C76.9352 12.212 76.2392 12.944 76.2392 14.024ZM84.229 17H82.765V12.296H81.625V11.072H82.765V9.224H84.229V11.072H85.381V12.296H84.229V17ZM88.4712 17H87.0072V12.296H85.8672V11.072H87.0072V9.224H88.4712V11.072H89.6232V12.296H88.4712V17ZM90.1268 14.024C90.1268 12.176 91.4588 10.904 93.2948 10.904C95.1308 10.904 96.4628 12.176 96.4628 14.024C96.4628 15.872 95.1308 17.144 93.2948 17.144C91.4588 17.144 90.1268 15.872 90.1268 14.024ZM91.5908 14.024C91.5908 15.104 92.2868 15.836 93.2948 15.836C94.3028 15.836 94.9988 15.104 94.9988 14.024C94.9988 12.944 94.3028 12.212 93.2948 12.212C92.2868 12.212 91.5908 12.944 91.5908 14.024ZM99.0872 17H97.6232V11.072H98.9672L99.0872 11.768C99.3872 11.276 99.9872 10.892 100.839 10.892C101.739 10.892 102.363 11.336 102.675 12.02C102.975 11.336 103.671 10.892 104.571 10.892C106.011 10.892 106.803 11.756 106.803 13.124V17H105.351V13.508C105.351 12.656 104.895 12.212 104.199 12.212C103.491 12.212 102.951 12.668 102.951 13.64V17H101.487V13.496C101.487 12.668 101.043 12.224 100.347 12.224C99.6512 12.224 99.0872 12.68 99.0872 13.64V17Z" fill="black"/>
</svg>
