<svg width="160" height="24" viewBox="0 0 160 24" fill="none" xmlns="http://www.w3.org/2000/svg">
<path d="M16.19 2H7.81C4.17 2 2 4.17 2 7.81V16.18C2 19.83 4.17 22 7.81 22H16.18C19.82 22 21.99 19.83 21.99 16.19V7.81C22 4.17 19.83 2 16.19 2ZM9.85 16.45C9.85 17.58 8.93 18.5 7.8 18.5C6.67 18.5 5.75 17.58 5.75 16.45C5.75 15.58 6.29 14.85 7.05 14.55V10.26C6.21 9.95 5.6 9.15 5.6 8.2C5.6 6.99 6.59 6 7.8 6C9.01 6 10 6.99 10 8.2C10 9.15 9.39 9.95 8.55 10.26V14.55C9.31 14.85 9.85 15.59 9.85 16.45ZM16.75 18.5C15.62 18.5 14.7 17.58 14.7 16.45C14.7 15.58 15.24 14.85 16 14.55V8.75C16 8.61 15.89 8.5 15.75 8.5H14.62L14.83 8.67C15.15 8.94 15.19 9.41 14.93 9.73C14.78 9.91 14.56 10 14.35 10C14.18 10 14.01 9.94 13.87 9.83L12.07 8.33C11.9 8.18 11.8 7.97 11.8 7.75C11.8 7.53 11.9 7.32 12.07 7.17L13.87 5.67C14.19 5.41 14.66 5.45 14.93 5.77C15.2 6.09 15.15 6.56 14.83 6.83L14.62 7H15.75C16.71 7 17.5 7.79 17.5 8.75V14.55C18.26 14.85 18.8 15.59 18.8 16.45C18.8 17.58 17.88 18.5 16.75 18.5Z" fill="#1A1A1A"/>
<path d="M36.508 17H34.972V8.228H36.508V11.852H40.396V8.228H41.932V17H40.396V13.28H36.508V17ZM44.3943 9.884C43.8903 9.884 43.4943 9.488 43.4943 8.996C43.4943 8.504 43.8903 8.12 44.3943 8.12C44.8743 8.12 45.2703 8.504 45.2703 8.996C45.2703 9.488 44.8743 9.884 44.3943 9.884ZM43.6623 17V11.072H45.1263V17H43.6623ZM49.2908 17.156C47.5268 17.156 46.2908 15.872 46.2908 14.036C46.2908 12.176 47.5028 10.892 49.2428 10.892C51.0188 10.892 52.1468 12.08 52.1468 13.928V14.372L47.6828 14.384C47.7908 15.428 48.3428 15.956 49.3148 15.956C50.1188 15.956 50.6468 15.644 50.8148 15.08H52.1708C51.9188 16.376 50.8388 17.156 49.2908 17.156ZM49.2548 12.092C48.3908 12.092 47.8628 12.56 47.7188 13.448H50.6948C50.6948 12.632 50.1308 12.092 49.2548 12.092ZM57.0385 11.048V12.404H56.4985C55.4425 12.404 54.7825 12.968 54.7825 14.12V17H53.3185V11.084H54.6985L54.7825 11.948C55.0345 11.36 55.5985 10.964 56.3905 10.964C56.5945 10.964 56.7985 10.988 57.0385 11.048ZM59.5591 17.156C58.2991 17.156 57.5311 16.424 57.5311 15.308C57.5311 14.216 58.3231 13.532 59.7271 13.424L61.5031 13.292V13.16C61.5031 12.356 61.0231 12.032 60.2791 12.032C59.4151 12.032 58.9351 12.392 58.9351 13.016H57.6871C57.6871 11.732 58.7431 10.892 60.3511 10.892C61.9471 10.892 62.9311 11.756 62.9311 13.4V17H61.6471L61.5391 16.124C61.2871 16.736 60.4831 17.156 59.5591 17.156ZM60.0391 16.052C60.9391 16.052 61.5151 15.512 61.5151 14.6V14.288L60.2791 14.384C59.3671 14.468 59.0191 14.768 59.0191 15.248C59.0191 15.788 59.3791 16.052 60.0391 16.052ZM68.0893 11.048V12.404H67.5493C66.4933 12.404 65.8333 12.968 65.8333 14.12V17H64.3693V11.084H65.7493L65.8333 11.948C66.0853 11.36 66.6493 10.964 67.4413 10.964C67.6453 10.964 67.8493 10.988 68.0893 11.048ZM68.533 14.024C68.533 12.188 69.745 10.892 71.497 10.892C73.117 10.892 74.221 11.792 74.377 13.22H72.913C72.745 12.548 72.253 12.2 71.557 12.2C70.621 12.2 69.997 12.908 69.997 14.024C69.997 15.14 70.573 15.836 71.509 15.836C72.241 15.836 72.757 15.476 72.913 14.828H74.389C74.209 16.208 73.057 17.156 71.509 17.156C69.709 17.156 68.533 15.908 68.533 14.024ZM76.9427 17H75.4787V8.072H76.9547V11.84C77.3267 11.264 78.0227 10.892 78.8747 10.892C80.3387 10.892 81.1067 11.816 81.1067 13.352V17H79.6427V13.7C79.6427 12.704 79.1507 12.224 78.4067 12.224C77.4827 12.224 76.9427 12.872 76.9427 13.76V17ZM81.9119 19.748V18.524H82.7879C83.3639 18.524 83.7239 18.392 83.9759 17.696L84.1439 17.252L81.7559 11.072H83.3039L84.8279 15.392L86.4359 11.072H87.9479L85.0439 18.32C84.5999 19.424 83.9759 19.88 83.0039 19.88C82.5959 19.88 82.2359 19.832 81.9119 19.748ZM88.3573 14.444V13.148H92.2213V14.444H88.3573ZM93.175 15.2H94.567C94.579 15.716 94.963 16.04 95.635 16.04C96.319 16.04 96.691 15.764 96.691 15.332C96.691 15.032 96.535 14.816 96.007 14.696L94.939 14.444C93.871 14.204 93.355 13.7 93.355 12.752C93.355 11.588 94.339 10.892 95.707 10.892C97.039 10.892 97.939 11.66 97.951 12.812H96.559C96.547 12.308 96.211 11.984 95.647 11.984C95.071 11.984 94.735 12.248 94.735 12.692C94.735 13.028 94.999 13.244 95.503 13.364L96.571 13.616C97.567 13.844 98.071 14.3 98.071 15.212C98.071 16.412 97.051 17.156 95.587 17.156C94.111 17.156 93.175 16.364 93.175 15.2ZM98.8377 13.964C98.8377 12.104 99.9417 10.892 101.61 10.892C102.51 10.892 103.29 11.288 103.65 11.972L103.746 11.072H105.09V19.748H103.638V16.208C103.266 16.808 102.486 17.156 101.61 17.156C99.8457 17.156 98.8377 15.812 98.8377 13.964ZM100.302 14.036C100.302 15.092 100.926 15.836 101.946 15.836C102.966 15.836 103.626 15.104 103.626 14.036C103.626 12.968 102.966 12.224 101.946 12.224C100.926 12.224 100.302 12.98 100.302 14.036ZM110.635 11.072H112.099V17H110.743L110.635 16.208C110.275 16.772 109.507 17.156 108.715 17.156C107.347 17.156 106.543 16.232 106.543 14.78V11.072H108.007V14.264C108.007 15.392 108.451 15.848 109.267 15.848C110.191 15.848 110.635 15.308 110.635 14.18V11.072ZM115.375 17.156C114.115 17.156 113.347 16.424 113.347 15.308C113.347 14.216 114.139 13.532 115.543 13.424L117.319 13.292V13.16C117.319 12.356 116.839 12.032 116.095 12.032C115.231 12.032 114.751 12.392 114.751 13.016H113.503C113.503 11.732 114.559 10.892 116.167 10.892C117.763 10.892 118.747 11.756 118.747 13.4V17H117.463L117.355 16.124C117.103 16.736 116.299 17.156 115.375 17.156ZM115.855 16.052C116.755 16.052 117.331 15.512 117.331 14.6V14.288L116.095 14.384C115.183 14.468 114.835 14.768 114.835 15.248C114.835 15.788 115.195 16.052 115.855 16.052ZM123.906 11.048V12.404H123.366C122.31 12.404 121.65 12.968 121.65 14.12V17H120.186V11.084H121.566L121.65 11.948C121.902 11.36 122.466 10.964 123.258 10.964C123.462 10.964 123.666 10.988 123.906 11.048ZM127.349 17.156C125.585 17.156 124.349 15.872 124.349 14.036C124.349 12.176 125.561 10.892 127.301 10.892C129.077 10.892 130.205 12.08 130.205 13.928V14.372L125.741 14.384C125.849 15.428 126.401 15.956 127.373 15.956C128.177 15.956 128.705 15.644 128.873 15.08H130.229C129.977 16.376 128.897 17.156 127.349 17.156ZM127.313 12.092C126.449 12.092 125.921 12.56 125.777 13.448H128.753C128.753 12.632 128.189 12.092 127.313 12.092Z" fill="black"/>
</svg>
