<svg width="154" height="24" viewBox="0 0 154 24" fill="none" xmlns="http://www.w3.org/2000/svg">
<path d="M16 9.75H8C7.31 9.75 6.75 10.31 6.75 11V12.05C6.78 12.04 6.8 12.03 6.83 12.02C6.95 11.96 7.08 11.92 7.21 11.88C7.27 11.86 7.33 11.84 7.4 11.82C7.6 11.78 7.8 11.75 8.01 11.75H16.01C16.22 11.75 16.42 11.78 16.62 11.82C16.68 11.83 16.74 11.86 16.81 11.88C16.94 11.92 17.07 11.96 17.19 12.02C17.22 12.03 17.25 12.04 17.27 12.05V11C17.25 10.31 16.69 9.75 16 9.75Z" fill="#1A1A1A"/>
<path d="M16 13.25H8C7.31 13.25 6.75 13.81 6.75 14.5V15H9.5C9.91 15 10.25 15.34 10.25 15.75C10.25 16.71 11.04 17.5 12 17.5C12.96 17.5 13.75 16.71 13.75 15.75C13.75 15.34 14.09 15 14.5 15H17.25V14.5C17.25 13.81 16.69 13.25 16 13.25Z" fill="#1A1A1A"/>
<path d="M16 6.5H8C7.31 6.5 6.75 7.06 6.75 7.75V8.56C7.13 8.37 7.55 8.25 8 8.25H16C16.45 8.25 16.87 8.37 17.25 8.56V7.75C17.25 7.06 16.69 6.5 16 6.5Z" fill="#1A1A1A"/>
<path d="M16.19 2H7.81C4.17 2 2 4.17 2 7.81V16.18C2 19.83 4.17 22 7.81 22H16.18C19.82 22 21.99 19.83 21.99 16.19V7.81C22 4.17 19.83 2 16.19 2ZM19 16.5H18H15.16C14.82 17.93 13.53 19 12 19C10.47 19 9.18 17.93 8.84 16.5H6H5C4.59 16.5 4.25 16.16 4.25 15.75C4.25 15.34 4.59 15 5 15H5.25V14.5V14V11V7.75C5.25 6.23 6.48 5 8 5H16C17.52 5 18.75 6.23 18.75 7.75V11V14V14.5V15H19C19.41 15 19.75 15.34 19.75 15.75C19.75 16.16 19.41 16.5 19 16.5Z" fill="#1A1A1A"/>
<path d="M35.728 16H34.132L37.3 7.228H38.872L42.04 16H40.42L39.712 13.972H36.436L35.728 16ZM37.888 9.844L36.892 12.676H39.268L38.26 9.844C38.188 9.616 38.104 9.352 38.08 9.172C38.044 9.34 37.972 9.604 37.888 9.844ZM46.644 10.048V11.404H46.104C45.048 11.404 44.388 11.968 44.388 13.12V16H42.924V10.084H44.304L44.388 10.948C44.64 10.36 45.204 9.964 45.996 9.964C46.2 9.964 46.404 9.988 46.644 10.048ZM47.0877 13.024C47.0877 11.188 48.2997 9.892 50.0517 9.892C51.6717 9.892 52.7757 10.792 52.9317 12.22H51.4677C51.2997 11.548 50.8077 11.2 50.1117 11.2C49.1757 11.2 48.5517 11.908 48.5517 13.024C48.5517 14.14 49.1277 14.836 50.0637 14.836C50.7957 14.836 51.3117 14.476 51.4677 13.828H52.9437C52.7637 15.208 51.6117 16.156 50.0637 16.156C48.2637 16.156 47.0877 14.908 47.0877 13.024ZM55.4973 16H54.0333V7.072H55.5093V10.84C55.8813 10.264 56.5773 9.892 57.4293 9.892C58.8933 9.892 59.6613 10.816 59.6613 12.352V16H58.1973V12.7C58.1973 11.704 57.7053 11.224 56.9613 11.224C56.0373 11.224 55.4973 11.872 55.4973 12.76V16ZM61.8318 8.884C61.3278 8.884 60.9318 8.488 60.9318 7.996C60.9318 7.504 61.3278 7.12 61.8318 7.12C62.3118 7.12 62.7078 7.504 62.7078 7.996C62.7078 8.488 62.3118 8.884 61.8318 8.884ZM61.0998 16V10.072H62.5638V16H61.0998ZM65.7563 16L63.4043 10.072H64.9643L65.9963 12.796C66.2483 13.504 66.4523 14.116 66.5243 14.44C66.6083 14.068 66.8243 13.444 67.0763 12.796L68.1563 10.072H69.6683L67.1963 16H65.7563ZM72.8689 16.156C71.1049 16.156 69.8689 14.872 69.8689 13.036C69.8689 11.176 71.0809 9.892 72.8209 9.892C74.5969 9.892 75.7249 11.08 75.7249 12.928V13.372L71.2609 13.384C71.3689 14.428 71.9209 14.956 72.8929 14.956C73.6969 14.956 74.2249 14.644 74.3929 14.08H75.7489C75.4969 15.376 74.4169 16.156 72.8689 16.156ZM72.8329 11.092C71.9689 11.092 71.4409 11.56 71.2969 12.448H74.2729C74.2729 11.632 73.7089 11.092 72.8329 11.092Z" fill="black"/>
</svg>
