<svg width="146" height="24" viewBox="0 0 146 24" fill="none" xmlns="http://www.w3.org/2000/svg">
<path d="M20.97 10.37V13.56C20.97 15.88 19.09 17.76 16.77 17.76H13.21C12.66 17.76 12.21 18.2 12.21 18.76V19.58C12.21 20.13 12.66 20.58 13.21 20.58H15.47C15.86 20.58 16.18 20.89 16.18 21.29C16.18 21.68 15.86 22 15.47 22H7.53C7.14 22 6.82 21.68 6.82 21.29C6.82 20.89 7.14 20.58 7.53 20.58H9.79C10.34 20.58 10.79 20.13 10.79 19.58V18.76C10.79 18.2 10.34 17.76 9.79 17.76H6.19C3.88 17.76 2 15.88 2 13.56V7.19C2 4.88 3.88 3 6.19 3H10.5C11.05 3 11.5 3.45 11.5 4V6.15C11.5 8.08 12.79 9.37 14.71 9.37H19.97C20.52 9.37 20.97 9.82 20.97 10.37Z" fill="#1A1A1A"/>
<path d="M21.99 2.36011L20.86 3.15011V2.73011C20.86 1.78011 20.09 1.02011 19.15 1.02011H14.87C13.84 1.01011 13 1.85011 13 2.88011V6.16011C13 7.02011 13.43 7.87011 14.71 7.87011H19.14C20.09 7.87011 20.85 7.10011 20.85 6.16011V5.73011L21.98 6.52011C22.55 6.91011 23 6.67011 23 5.99011V2.89011C23 2.21011 22.55 1.98011 21.99 2.36011Z" fill="#1A1A1A"/>
<path d="M36.46 17H34.972V8.228H36.46L39.292 15.212L42.124 8.228H43.636V17H42.148V14.3C42.148 12.536 42.148 12.02 42.232 11.396L40 17H38.584L36.364 11.408C36.448 11.936 36.46 12.764 36.46 13.856V17ZM45.0135 14.024C45.0135 12.176 46.3455 10.904 48.1815 10.904C50.0175 10.904 51.3495 12.176 51.3495 14.024C51.3495 15.872 50.0175 17.144 48.1815 17.144C46.3455 17.144 45.0135 15.872 45.0135 14.024ZM46.4775 14.024C46.4775 15.104 47.1735 15.836 48.1815 15.836C49.1895 15.836 49.8855 15.104 49.8855 14.024C49.8855 12.944 49.1895 12.212 48.1815 12.212C47.1735 12.212 46.4775 12.944 46.4775 14.024ZM53.9739 17H52.5099V11.072H53.8659L53.9859 11.84C54.3579 11.24 55.0779 10.892 55.8819 10.892C57.3699 10.892 58.1379 11.816 58.1379 13.352V17H56.6739V13.7C56.6739 12.704 56.1819 12.224 55.4259 12.224C54.5259 12.224 53.9739 12.848 53.9739 13.808V17ZM60.3083 9.884C59.8043 9.884 59.4083 9.488 59.4083 8.996C59.4083 8.504 59.8043 8.12 60.3083 8.12C60.7883 8.12 61.1843 8.504 61.1843 8.996C61.1843 9.488 60.7883 9.884 60.3083 9.884ZM59.5763 17V11.072H61.0403V17H59.5763ZM64.5689 17H63.1049V12.296H61.9649V11.072H63.1049V9.224H64.5689V11.072H65.7209V12.296H64.5689V17ZM66.2244 14.024C66.2244 12.176 67.5564 10.904 69.3924 10.904C71.2284 10.904 72.5604 12.176 72.5604 14.024C72.5604 15.872 71.2284 17.144 69.3924 17.144C67.5564 17.144 66.2244 15.872 66.2244 14.024ZM67.6884 14.024C67.6884 15.104 68.3844 15.836 69.3924 15.836C70.4004 15.836 71.0964 15.104 71.0964 14.024C71.0964 12.944 70.4004 12.212 69.3924 12.212C68.3844 12.212 67.6884 12.944 67.6884 14.024ZM77.4408 11.048V12.404H76.9008C75.8448 12.404 75.1848 12.968 75.1848 14.12V17H73.7208V11.084H75.1008L75.1848 11.948C75.4368 11.36 76.0008 10.964 76.7928 10.964C76.9968 10.964 77.2008 10.988 77.4408 11.048ZM77.9862 14.444V13.148H81.8502V14.444H77.9862ZM87.0619 11.048V12.404H86.5219C85.4659 12.404 84.8059 12.968 84.8059 14.12V17H83.3419V11.084H84.7219L84.8059 11.948C85.0579 11.36 85.6219 10.964 86.4139 10.964C86.6179 10.964 86.8219 10.988 87.0619 11.048ZM90.5057 17.156C88.7417 17.156 87.5057 15.872 87.5057 14.036C87.5057 12.176 88.7177 10.892 90.4577 10.892C92.2337 10.892 93.3617 12.08 93.3617 13.928V14.372L88.8977 14.384C89.0057 15.428 89.5577 15.956 90.5297 15.956C91.3337 15.956 91.8617 15.644 92.0297 15.08H93.3857C93.1337 16.376 92.0537 17.156 90.5057 17.156ZM90.4697 12.092C89.6057 12.092 89.0777 12.56 88.9337 13.448H91.9097C91.9097 12.632 91.3457 12.092 90.4697 12.092ZM94.1853 14.024C94.1853 12.188 95.3973 10.892 97.1493 10.892C98.7693 10.892 99.8733 11.792 100.029 13.22H98.5653C98.3973 12.548 97.9053 12.2 97.2093 12.2C96.2733 12.2 95.6493 12.908 95.6493 14.024C95.6493 15.14 96.2253 15.836 97.1613 15.836C97.8933 15.836 98.4093 15.476 98.5653 14.828H100.041C99.8613 16.208 98.7093 17.156 97.1613 17.156C95.3613 17.156 94.1853 15.908 94.1853 14.024ZM100.783 14.024C100.783 12.176 102.115 10.904 103.951 10.904C105.787 10.904 107.119 12.176 107.119 14.024C107.119 15.872 105.787 17.144 103.951 17.144C102.115 17.144 100.783 15.872 100.783 14.024ZM102.247 14.024C102.247 15.104 102.943 15.836 103.951 15.836C104.959 15.836 105.655 15.104 105.655 14.024C105.655 12.944 104.959 12.212 103.951 12.212C102.943 12.212 102.247 12.944 102.247 14.024ZM111.999 11.048V12.404H111.459C110.403 12.404 109.743 12.968 109.743 14.12V17H108.279V11.084H109.659L109.743 11.948C109.995 11.36 110.559 10.964 111.351 10.964C111.555 10.964 111.759 10.988 111.999 11.048ZM115.227 17.156C113.511 17.156 112.443 15.896 112.443 14.06C112.443 12.212 113.523 10.892 115.311 10.892C116.139 10.892 116.871 11.24 117.243 11.828V8.072H118.695V17H117.351L117.255 16.076C116.895 16.76 116.127 17.156 115.227 17.156ZM115.551 15.812C116.571 15.812 117.231 15.08 117.231 14.012C117.231 12.944 116.571 12.2 115.551 12.2C114.531 12.2 113.907 12.956 113.907 14.012C113.907 15.068 114.531 15.812 115.551 15.812ZM122.873 17.156C121.109 17.156 119.873 15.872 119.873 14.036C119.873 12.176 121.085 10.892 122.825 10.892C124.601 10.892 125.729 12.08 125.729 13.928V14.372L121.265 14.384C121.373 15.428 121.925 15.956 122.897 15.956C123.701 15.956 124.229 15.644 124.397 15.08H125.753C125.501 16.376 124.421 17.156 122.873 17.156ZM122.837 12.092C121.973 12.092 121.445 12.56 121.301 13.448H124.277C124.277 12.632 123.713 12.092 122.837 12.092ZM130.621 11.048V12.404H130.081C129.025 12.404 128.365 12.968 128.365 14.12V17H126.901V11.084H128.281L128.365 11.948C128.617 11.36 129.181 10.964 129.973 10.964C130.177 10.964 130.381 10.988 130.621 11.048Z" fill="black"/>
</svg>
