<svg width="101" height="24" viewBox="0 0 101 24" fill="none" xmlns="http://www.w3.org/2000/svg">
<path d="M16.8301 15.6402C17.5001 15.2002 18.3801 15.6802 18.3801 16.4802V17.7702C18.3801 19.0402 17.3901 20.4002 16.2001 20.8002L13.0101 21.8602C12.4501 22.0502 11.5401 22.0502 10.9901 21.8602L7.80012 20.8002C6.60012 20.4002 5.62012 19.0402 5.62012 17.7702V16.4702C5.62012 15.6802 6.50012 15.2002 7.16012 15.6302L9.22012 16.9702C10.0101 17.5002 11.0101 17.7602 12.0101 17.7602C13.0101 17.7602 14.0101 17.5002 14.8001 16.9702L16.8301 15.6402Z" fill="#1A1A1A"/>
<path d="M19.9795 6.46055L13.9895 2.53055C12.9095 1.82055 11.1295 1.82055 10.0495 2.53055L4.02953 6.46055C2.09953 7.71055 2.09953 10.5405 4.02953 11.8005L5.62953 12.8405L10.0495 15.7205C11.1295 16.4305 12.9095 16.4305 13.9895 15.7205L18.3795 12.8405L19.7495 11.9405V15.0005C19.7495 15.4105 20.0895 15.7505 20.4995 15.7505C20.9095 15.7505 21.2495 15.4105 21.2495 15.0005V10.0805C21.6495 8.79055 21.2395 7.29055 19.9795 6.46055Z" fill="#1A1A1A"/>
<path d="M34.204 8.644V7.228H40.876V8.644H38.308V16H36.772V8.644H34.204ZM43.4783 16.156C41.7143 16.156 40.4783 14.872 40.4783 13.036C40.4783 11.176 41.6903 9.892 43.4303 9.892C45.2063 9.892 46.3343 11.08 46.3343 12.928V13.372L41.8703 13.384C41.9783 14.428 42.5303 14.956 43.5023 14.956C44.3063 14.956 44.8343 14.644 45.0023 14.08H46.3583C46.1063 15.376 45.0263 16.156 43.4783 16.156ZM43.4423 11.092C42.5783 11.092 42.0503 11.56 41.9063 12.448H44.8823C44.8823 11.632 44.3183 11.092 43.4423 11.092ZM49.2114 16.156C47.9514 16.156 47.1834 15.424 47.1834 14.308C47.1834 13.216 47.9754 12.532 49.3794 12.424L51.1554 12.292V12.16C51.1554 11.356 50.6754 11.032 49.9314 11.032C49.0674 11.032 48.5874 11.392 48.5874 12.016H47.3394C47.3394 10.732 48.3954 9.892 50.0034 9.892C51.5994 9.892 52.5834 10.756 52.5834 12.4V16H51.2994L51.1914 15.124C50.9394 15.736 50.1354 16.156 49.2114 16.156ZM49.6914 15.052C50.5914 15.052 51.1674 14.512 51.1674 13.6V13.288L49.9314 13.384C49.0194 13.468 48.6714 13.768 48.6714 14.248C48.6714 14.788 49.0314 15.052 49.6914 15.052ZM53.6736 13.024C53.6736 11.188 54.8856 9.892 56.6376 9.892C58.2576 9.892 59.3616 10.792 59.5176 12.22H58.0536C57.8856 11.548 57.3936 11.2 56.6976 11.2C55.7616 11.2 55.1376 11.908 55.1376 13.024C55.1376 14.14 55.7136 14.836 56.6496 14.836C57.3816 14.836 57.8976 14.476 58.0536 13.828H59.5296C59.3496 15.208 58.1976 16.156 56.6496 16.156C54.8496 16.156 53.6736 14.908 53.6736 13.024ZM62.0833 16H60.6193V7.072H62.0953V10.84C62.4673 10.264 63.1633 9.892 64.0153 9.892C65.4793 9.892 66.2473 10.816 66.2473 12.352V16H64.7833V12.7C64.7833 11.704 64.2913 11.224 63.5473 11.224C62.6233 11.224 62.0833 11.872 62.0833 12.76V16ZM70.3377 16.156C68.5737 16.156 67.3377 14.872 67.3377 13.036C67.3377 11.176 68.5497 9.892 70.2897 9.892C72.0657 9.892 73.1937 11.08 73.1937 12.928V13.372L68.7297 13.384C68.8377 14.428 69.3897 14.956 70.3617 14.956C71.1657 14.956 71.6937 14.644 71.8617 14.08H73.2177C72.9657 15.376 71.8857 16.156 70.3377 16.156ZM70.3017 11.092C69.4377 11.092 68.9097 11.56 68.7657 12.448H71.7417C71.7417 11.632 71.1777 11.092 70.3017 11.092ZM78.0854 10.048V11.404H77.5454C76.4894 11.404 75.8294 11.968 75.8294 13.12V16H74.3654V10.084H75.7454L75.8294 10.948C76.0814 10.36 76.6454 9.964 77.4374 9.964C77.6414 9.964 77.8454 9.988 78.0854 10.048Z" fill="black"/>
</svg>
