<svg width="130" height="24" viewBox="0 0 130 24" fill="none" xmlns="http://www.w3.org/2000/svg">
<path d="M12 2C6.48 2 2 6.48 2 12C2 17.52 6.48 22 12 22C17.52 22 22 17.52 22 12C22 6.48 17.52 2 12 2ZM15.38 12.43L16.84 13.27C17.47 13.63 17.68 14.44 17.32 15.07C16.96 15.7 16.15 15.91 15.52 15.55L14.06 14.71C13.73 14.52 13.31 14.76 13.31 15.14V16.82C13.31 17.54 12.72 18.14 11.99 18.14C11.26 18.14 10.67 17.55 10.67 16.82V15.14C10.67 14.76 10.25 14.51 9.92 14.71L8.46 15.55C7.83 15.91 7.02 15.7 6.66 15.07C6.3 14.44 6.51 13.63 7.14 13.27L8.6 12.43C8.93 12.24 8.93 11.76 8.6 11.56L7.14 10.72C6.51 10.36 6.3 9.55 6.66 8.92C7.02 8.29 7.83 8.08 8.46 8.44L9.92 9.28C10.25 9.47 10.67 9.23001 10.67 8.85001V7.17C10.67 6.45 11.26 5.85001 11.99 5.85001C12.72 5.85001 13.31 6.44 13.31 7.17V8.85001C13.31 9.23001 13.73 9.48 14.06 9.28L15.52 8.44C16.15 8.08 16.96 8.29 17.32 8.92C17.68 9.55 17.47 10.36 16.84 10.72L15.38 11.56C15.05 11.76 15.05 12.24 15.38 12.43Z" fill="#1A1A1A"/>
<path d="M38.128 16H34.972V7.228H38.044C40.636 7.228 42.424 9.016 42.424 11.632C42.424 14.212 40.672 16 38.128 16ZM37.9 8.644H36.508V14.584H37.984C39.736 14.584 40.804 13.456 40.804 11.632C40.804 9.772 39.712 8.644 37.9 8.644ZM46.2908 16.156C44.5268 16.156 43.2908 14.872 43.2908 13.036C43.2908 11.176 44.5028 9.892 46.2428 9.892C48.0188 9.892 49.1468 11.08 49.1468 12.928V13.372L44.6828 13.384C44.7908 14.428 45.3428 14.956 46.3148 14.956C47.1188 14.956 47.6468 14.644 47.8148 14.08H49.1708C48.9188 15.376 47.8388 16.156 46.2908 16.156ZM46.2548 11.092C45.3908 11.092 44.8628 11.56 44.7188 12.448H47.6948C47.6948 11.632 47.1308 11.092 46.2548 11.092ZM51.7825 16H50.3185V10.072H51.6745L51.7945 10.84C52.1665 10.24 52.8865 9.892 53.6905 9.892C55.1785 9.892 55.9465 10.816 55.9465 12.352V16H54.4825V12.7C54.4825 11.704 53.9905 11.224 53.2345 11.224C52.3345 11.224 51.7825 11.848 51.7825 12.808V16ZM59.4009 16H57.9369V11.296H56.7969V10.072H57.9369V8.224H59.4009V10.072H60.5529V11.296H59.4009V16ZM61.2167 13.444V12.148H65.0807V13.444H61.2167ZM69.5124 18.292H68.3484C67.1484 16.924 66.3564 14.776 66.3564 12.472C66.3564 10.372 67.0284 8.164 68.3484 6.664H69.5124C68.5164 8.02 67.8324 10.144 67.8324 12.472C67.8324 14.596 68.4204 16.804 69.5124 18.292ZM72.6998 16.156C70.9838 16.156 69.9158 14.896 69.9158 13.06C69.9158 11.212 70.9958 9.892 72.7838 9.892C73.6118 9.892 74.3438 10.24 74.7158 10.828V7.072H76.1678V16H74.8238L74.7278 15.076C74.3678 15.76 73.5998 16.156 72.6998 16.156ZM73.0238 14.812C74.0438 14.812 74.7038 14.08 74.7038 13.012C74.7038 11.944 74.0438 11.2 73.0238 11.2C72.0038 11.2 71.3798 11.956 71.3798 13.012C71.3798 14.068 72.0038 14.812 73.0238 14.812ZM80.3455 16.156C78.5815 16.156 77.3455 14.872 77.3455 13.036C77.3455 11.176 78.5575 9.892 80.2975 9.892C82.0735 9.892 83.2015 11.08 83.2015 12.928V13.372L78.7375 13.384C78.8455 14.428 79.3975 14.956 80.3695 14.956C81.1735 14.956 81.7015 14.644 81.8695 14.08H83.2255C82.9735 15.376 81.8935 16.156 80.3455 16.156ZM80.3095 11.092C79.4455 11.092 78.9175 11.56 78.7735 12.448H81.7495C81.7495 11.632 81.1855 11.092 80.3095 11.092ZM85.8372 16H84.3732V10.072H85.7292L85.8492 10.84C86.2212 10.24 86.9412 9.892 87.7452 9.892C89.2332 9.892 90.0012 10.816 90.0012 12.352V16H88.5372V12.7C88.5372 11.704 88.0452 11.224 87.2892 11.224C86.3892 11.224 85.8372 11.848 85.8372 12.808V16ZM93.4556 16H91.9916V11.296H90.8516V10.072H91.9916V8.224H93.4556V10.072H94.6076V11.296H93.4556V16ZM95.9257 18.292H94.7617C95.8657 16.804 96.4417 14.596 96.4417 12.472C96.4417 10.144 95.7577 8.02 94.7617 6.664H95.9257C97.2457 8.164 97.9297 10.372 97.9297 12.472C97.9297 14.776 97.1257 16.924 95.9257 18.292Z" fill="black"/>
</svg>
