<svg width="101" height="24" viewBox="0 0 101 24" fill="none" xmlns="http://www.w3.org/2000/svg">
<path d="M15.0002 22.7502C14.7302 22.7502 14.4802 22.6002 14.3502 22.3702C14.2202 22.1302 14.2202 21.8502 14.3602 21.6102L15.4102 19.8602C15.6202 19.5102 16.0802 19.3902 16.4402 19.6002C16.8002 19.8102 16.9102 20.2702 16.7002 20.6302L16.4302 21.0802C19.1902 20.4302 21.2602 17.9502 21.2602 14.9902C21.2602 14.5802 21.6002 14.2402 22.0102 14.2402C22.4202 14.2402 22.7602 14.5802 22.7602 14.9902C22.7502 19.2702 19.2702 22.7502 15.0002 22.7502Z" fill="#1A1A1A"/>
<path d="M2 9.75C1.59 9.75 1.25 9.41 1.25 9C1.25 4.73 4.73 1.25 9 1.25C9.27 1.25 9.52 1.4 9.65 1.63C9.78 1.87 9.78 2.15 9.64 2.39L8.59 4.14C8.38 4.49 7.92 4.61 7.56 4.39C7.21 4.18 7.09 3.72 7.31 3.36L7.58 2.91C4.81 3.56 2.75 6.04 2.75 9C2.75 9.41 2.41 9.75 2 9.75Z" fill="#1A1A1A"/>
<path d="M16.4002 8.20996L12.6402 6.17996C12.2402 5.96996 11.7702 5.96996 11.3702 6.17996L7.60016 8.20996C7.33016 8.35996 7.16016 8.64996 7.16016 8.96996C7.16016 9.29996 7.33016 9.58996 7.60016 9.73996L11.3602 11.77C11.5602 11.88 11.7802 11.93 12.0002 11.93C12.2202 11.93 12.4402 11.88 12.6402 11.77L16.4002 9.73996C16.6702 9.58996 16.8402 9.29996 16.8402 8.96996C16.8402 8.64996 16.6702 8.35996 16.4002 8.20996Z" fill="#1A1A1A"/>
<path d="M10.74 12.4704L7.24 10.7204C6.97 10.5904 6.66 10.6004 6.4 10.7604C6.15 10.9204 6 11.1904 6 11.4904V14.8004C6 15.3704 6.32 15.8904 6.83 16.1404L10.33 17.8904C10.45 17.9504 10.58 17.9804 10.72 17.9804C10.88 17.9804 11.03 17.9404 11.17 17.8504C11.43 17.6904 11.58 17.4204 11.58 17.1204V13.8104C11.57 13.2404 11.26 12.7304 10.74 12.4704Z" fill="#1A1A1A"/>
<path d="M17.5899 10.7604C17.3299 10.6004 17.0199 10.5904 16.7499 10.7204L13.2499 12.4704C12.7399 12.7304 12.4199 13.2404 12.4199 13.8104V17.1204C12.4199 17.4204 12.5699 17.6904 12.8299 17.8504C12.9699 17.9404 13.1199 17.9804 13.2799 17.9804C13.4099 17.9804 13.5399 17.9504 13.6699 17.8904L17.1699 16.1404C17.6799 15.8804 17.9999 15.3704 17.9999 14.8004V11.4904C17.9999 11.1904 17.8499 10.9204 17.5899 10.7604Z" fill="#1A1A1A"/>
<path d="M37.108 11.656H36.04V10.66L38.296 8.584H34.648V7.228H40.216V8.452L38.08 10.42C39.424 10.684 40.468 11.668 40.468 13.216C40.468 15.016 39.064 16.156 37.288 16.156C35.572 16.156 34.24 15.1 34.24 13.204H35.752C35.752 14.212 36.376 14.788 37.312 14.788C38.272 14.788 38.908 14.164 38.908 13.192C38.908 12.304 38.332 11.656 37.108 11.656ZM44.96 16H41.804V7.228H44.876C47.468 7.228 49.256 9.016 49.256 11.632C49.256 14.212 47.504 16 44.96 16ZM44.732 8.644H43.34V14.584H44.816C46.568 14.584 47.636 13.456 47.636 11.632C47.636 9.772 46.544 8.644 44.732 8.644ZM50.4588 13.444V12.148H54.3228V13.444H50.4588ZM59.5346 10.048V11.404H58.9946C57.9386 11.404 57.2786 11.968 57.2786 13.12V16H55.8146V10.084H57.1946L57.2786 10.948C57.5306 10.36 58.0946 9.964 58.8866 9.964C59.0906 9.964 59.2946 9.988 59.5346 10.048ZM59.9783 13.024C59.9783 11.176 61.3103 9.904 63.1463 9.904C64.9823 9.904 66.3143 11.176 66.3143 13.024C66.3143 14.872 64.9823 16.144 63.1463 16.144C61.3103 16.144 59.9783 14.872 59.9783 13.024ZM61.4423 13.024C61.4423 14.104 62.1383 14.836 63.1463 14.836C64.1543 14.836 64.8503 14.104 64.8503 13.024C64.8503 11.944 64.1543 11.212 63.1463 11.212C62.1383 11.212 61.4423 11.944 61.4423 13.024ZM69.4322 16H67.9682V11.296H66.8282V10.072H67.9682V8.224H69.4322V10.072H70.5842V11.296H69.4322V16ZM73.2231 16.156C71.9631 16.156 71.1951 15.424 71.1951 14.308C71.1951 13.216 71.9871 12.532 73.3911 12.424L75.1671 12.292V12.16C75.1671 11.356 74.6871 11.032 73.9431 11.032C73.0791 11.032 72.5991 11.392 72.5991 12.016H71.3511C71.3511 10.732 72.4071 9.892 74.0151 9.892C75.6111 9.892 76.5951 10.756 76.5951 12.4V16H75.3111L75.2031 15.124C74.9511 15.736 74.1471 16.156 73.2231 16.156ZM73.7031 15.052C74.6031 15.052 75.1791 14.512 75.1791 13.6V13.288L73.9431 13.384C73.0311 13.468 72.6831 13.768 72.6831 14.248C72.6831 14.788 73.0431 15.052 73.7031 15.052ZM79.9673 16H78.5033V11.296H77.3633V10.072H78.5033V8.224H79.9673V10.072H81.1193V11.296H79.9673V16ZM84.6228 16.156C82.8588 16.156 81.6228 14.872 81.6228 13.036C81.6228 11.176 82.8348 9.892 84.5748 9.892C86.3508 9.892 87.4788 11.08 87.4788 12.928V13.372L83.0148 13.384C83.1228 14.428 83.6748 14.956 84.6468 14.956C85.4508 14.956 85.9788 14.644 86.1468 14.08H87.5028C87.2508 15.376 86.1708 16.156 84.6228 16.156ZM84.5868 11.092C83.7228 11.092 83.1948 11.56 83.0508 12.448H86.0268C86.0268 11.632 85.4628 11.092 84.5868 11.092Z" fill="black"/>
</svg>
