<svg width="101" height="24" viewBox="0 0 101 24" fill="none" xmlns="http://www.w3.org/2000/svg">
<path d="M20.1004 6.94C20.1004 7.48 19.8104 7.97 19.3504 8.22L17.6104 9.16L16.1304 9.95L13.0604 11.61C12.7304 11.79 12.3704 11.88 12.0004 11.88C11.6304 11.88 11.2704 11.79 10.9404 11.61L4.65039 8.22C4.19039 7.97 3.90039 7.48 3.90039 6.94C3.90039 6.4 4.19039 5.91 4.65039 5.66L6.62039 4.6L8.19039 3.75L10.9404 2.27C11.6004 1.91 12.4004 1.91 13.0604 2.27L19.3504 5.66C19.8104 5.91 20.1004 6.4 20.1004 6.94Z" fill="#1A1A1A"/>
<path d="M9.89973 12.7901L4.04973 9.87014C3.59973 9.64014 3.07973 9.67014 2.64973 9.93014C2.21973 10.1901 1.96973 10.6501 1.96973 11.1501V16.6801C1.96973 17.6401 2.49973 18.5001 3.35973 18.9301L9.20973 21.8501C9.40973 21.9501 9.62973 22.0001 9.84973 22.0001C10.1097 22.0001 10.3697 21.9301 10.5997 21.7801C11.0297 21.5201 11.2797 21.0601 11.2797 20.5601V15.0301C11.2897 14.0801 10.7597 13.2201 9.89973 12.7901Z" fill="#1A1A1A"/>
<path d="M22.03 11.1496V16.6796C22.03 17.6296 21.5 18.4896 20.64 18.9196L14.79 21.8496C14.59 21.9496 14.37 21.9996 14.15 21.9996C13.89 21.9996 13.63 21.9296 13.39 21.7796C12.97 21.5196 12.71 21.0596 12.71 20.5596V15.0396C12.71 14.0796 13.24 13.2196 14.1 12.7896L16.25 11.7196L17.75 10.9696L19.95 9.86964C20.4 9.63964 20.92 9.65964 21.35 9.92964C21.77 10.1896 22.03 10.6496 22.03 11.1496Z" fill="#1A1A1A"/>
<path d="M17.6101 9.16L16.1301 9.95L6.62012 4.6L8.19012 3.75L17.3701 8.93C17.4701 8.99 17.5501 9.07 17.6101 9.16Z" fill="#1A1A1A"/>
<path d="M17.75 10.9697V13.2397C17.75 13.6497 17.41 13.9897 17 13.9897C16.59 13.9897 16.25 13.6497 16.25 13.2397V11.7197L17.75 10.9697Z" fill="#1A1A1A"/>
<path d="M34.972 16V7.228H38.464C40.192 7.228 41.248 8.128 41.248 9.592C41.248 10.564 40.816 11.26 39.988 11.608C40.912 11.908 41.38 12.604 41.38 13.624C41.38 15.124 40.336 16 38.524 16H34.972ZM38.332 8.584H36.508V10.972H38.368C39.208 10.972 39.676 10.528 39.676 9.748C39.676 8.992 39.196 8.584 38.332 8.584ZM38.464 12.268H36.508V14.644H38.464C39.328 14.644 39.808 14.224 39.808 13.432C39.808 12.688 39.316 12.268 38.464 12.268ZM42.2244 13.024C42.2244 11.176 43.5564 9.904 45.3924 9.904C47.2284 9.904 48.5604 11.176 48.5604 13.024C48.5604 14.872 47.2284 16.144 45.3924 16.144C43.5564 16.144 42.2244 14.872 42.2244 13.024ZM43.6884 13.024C43.6884 14.104 44.3844 14.836 45.3924 14.836C46.4004 14.836 47.0964 14.104 47.0964 13.024C47.0964 11.944 46.4004 11.212 45.3924 11.212C44.3844 11.212 43.6884 11.944 43.6884 13.024ZM50.4833 16H48.8153L50.8553 13.096L48.8153 10.072H50.5193L51.8273 12.088L53.0873 10.072H54.7313L52.7153 13.072L54.6713 16H52.9913L51.7313 14.044L50.4833 16ZM55.0643 13.444V12.148H58.9283V13.444H55.0643ZM62.8541 11.656H61.7861V10.66L64.0421 8.584H60.3941V7.228H65.9621V8.452L63.8261 10.42C65.1701 10.684 66.2141 11.668 66.2141 13.216C66.2141 15.016 64.8101 16.156 63.0341 16.156C61.3181 16.156 59.9861 15.1 59.9861 13.204H61.4981C61.4981 14.212 62.1221 14.788 63.0581 14.788C64.0181 14.788 64.6541 14.164 64.6541 13.192C64.6541 12.304 64.0781 11.656 62.8541 11.656Z" fill="black"/>
</svg>
