<svg width="101" height="24" viewBox="0 0 101 24" fill="none" xmlns="http://www.w3.org/2000/svg">
<g clip-path="url(#clip0_4083_23089)">
<path d="M20.62 8.45C19.57 3.83 15.54 1.75 12 1.75C12 1.75 12 1.75 11.99 1.75C8.45997 1.75 4.41997 3.82 3.36997 8.44C2.19997 13.6 5.35997 17.97 8.21997 20.72C9.27997 21.74 10.64 22.25 12 22.25C13.36 22.25 14.72 21.74 15.77 20.72C18.63 17.97 21.79 13.61 20.62 8.45ZM12 13.46C10.26 13.46 8.84997 12.05 8.84997 10.31C8.84997 8.57 10.26 7.16 12 7.16C13.74 7.16 15.15 8.57 15.15 10.31C15.15 12.05 13.74 13.46 12 13.46Z" fill="#1A1A1A"/>
</g>
<path d="M36.508 7.228V14.584H40.18V16H34.972V7.228H36.508ZM40.7478 13.024C40.7478 11.176 42.0798 9.904 43.9158 9.904C45.7518 9.904 47.0838 11.176 47.0838 13.024C47.0838 14.872 45.7518 16.144 43.9158 16.144C42.0798 16.144 40.7478 14.872 40.7478 13.024ZM42.2118 13.024C42.2118 14.104 42.9078 14.836 43.9158 14.836C44.9238 14.836 45.6198 14.104 45.6198 13.024C45.6198 11.944 44.9238 11.212 43.9158 11.212C42.9078 11.212 42.2118 11.944 42.2118 13.024ZM47.8963 13.024C47.8963 11.188 49.1083 9.892 50.8603 9.892C52.4803 9.892 53.5843 10.792 53.7403 12.22H52.2763C52.1083 11.548 51.6163 11.2 50.9203 11.2C49.9843 11.2 49.3603 11.908 49.3603 13.024C49.3603 14.14 49.9363 14.836 50.8723 14.836C51.6043 14.836 52.1203 14.476 52.2763 13.828H53.7523C53.5723 15.208 52.4203 16.156 50.8723 16.156C49.0723 16.156 47.8963 14.908 47.8963 13.024ZM56.6059 16.156C55.3459 16.156 54.5779 15.424 54.5779 14.308C54.5779 13.216 55.3699 12.532 56.7739 12.424L58.5499 12.292V12.16C58.5499 11.356 58.0699 11.032 57.3259 11.032C56.4619 11.032 55.9819 11.392 55.9819 12.016H54.7339C54.7339 10.732 55.7899 9.892 57.3979 9.892C58.9939 9.892 59.9779 10.756 59.9779 12.4V16H58.6939L58.5859 15.124C58.3339 15.736 57.5299 16.156 56.6059 16.156ZM57.0859 15.052C57.9859 15.052 58.5619 14.512 58.5619 13.6V13.288L57.3259 13.384C56.4139 13.468 56.0659 13.768 56.0659 14.248C56.0659 14.788 56.4259 15.052 57.0859 15.052ZM63.3501 16H61.8861V11.296H60.7461V10.072H61.8861V8.224H63.3501V10.072H64.5021V11.296H63.3501V16ZM66.1443 8.884C65.6403 8.884 65.2443 8.488 65.2443 7.996C65.2443 7.504 65.6403 7.12 66.1443 7.12C66.6243 7.12 67.0203 7.504 67.0203 7.996C67.0203 8.488 66.6243 8.884 66.1443 8.884ZM65.4123 16V10.072H66.8763V16H65.4123ZM68.0408 13.024C68.0408 11.176 69.3728 9.904 71.2088 9.904C73.0448 9.904 74.3768 11.176 74.3768 13.024C74.3768 14.872 73.0448 16.144 71.2088 16.144C69.3728 16.144 68.0408 14.872 68.0408 13.024ZM69.5048 13.024C69.5048 14.104 70.2008 14.836 71.2088 14.836C72.2168 14.836 72.9128 14.104 72.9128 13.024C72.9128 11.944 72.2168 11.212 71.2088 11.212C70.2008 11.212 69.5048 11.944 69.5048 13.024ZM77.0013 16H75.5373V10.072H76.8933L77.0133 10.84C77.3853 10.24 78.1053 9.892 78.9093 9.892C80.3973 9.892 81.1653 10.816 81.1653 12.352V16H79.7013V12.7C79.7013 11.704 79.2093 11.224 78.4533 11.224C77.5533 11.224 77.0013 11.848 77.0013 12.808V16Z" fill="black"/>
<defs>
<clipPath id="clip0_4083_23089">
<rect width="24" height="24" fill="white"/>
</clipPath>
</defs>
</svg>
