<svg width="113" height="24" viewBox="0 0 113 24" fill="none" xmlns="http://www.w3.org/2000/svg">
<path d="M19.1202 9.11999C18.7302 9.11999 18.4202 9.42999 18.4202 9.81999V11.4C18.4202 14.94 15.5402 17.82 12.0002 17.82C8.46018 17.82 5.58018 14.94 5.58018 11.4V9.80999C5.58018 9.41999 5.27018 9.10999 4.88018 9.10999C4.49018 9.10999 4.18018 9.41999 4.18018 9.80999V11.39C4.18018 15.46 7.31018 18.81 11.3002 19.17V21.3C11.3002 21.69 11.6102 22 12.0002 22C12.3902 22 12.7002 21.69 12.7002 21.3V19.17C16.6802 18.82 19.8202 15.46 19.8202 11.39V9.80999C19.8102 9.42999 19.5002 9.11999 19.1202 9.11999Z" fill="#1A1A1A"/>
<path d="M12.0001 2C9.56008 2 7.58008 3.98 7.58008 6.42V11.54C7.58008 13.98 9.56008 15.96 12.0001 15.96C14.4401 15.96 16.4201 13.98 16.4201 11.54V6.42C16.4201 3.98 14.4401 2 12.0001 2ZM13.3101 8.95C13.2401 9.21 13.0101 9.38 12.7501 9.38C12.7001 9.38 12.6501 9.37 12.6001 9.36C12.2101 9.25 11.8001 9.25 11.4101 9.36C11.0901 9.45 10.7801 9.26 10.7001 8.95C10.6101 8.64 10.8001 8.32 11.1101 8.24C11.7001 8.08 12.3201 8.08 12.9101 8.24C13.2101 8.32 13.3901 8.64 13.3101 8.95ZM13.8401 7.01C13.7501 7.25 13.5301 7.39 13.2901 7.39C13.2201 7.39 13.1601 7.38 13.0901 7.36C12.3901 7.1 11.6101 7.1 10.9101 7.36C10.6101 7.47 10.2701 7.31 10.1601 7.01C10.0501 6.71 10.2101 6.37 10.5101 6.27C11.4701 5.92 12.5301 5.92 13.4901 6.27C13.7901 6.38 13.9501 6.71 13.8401 7.01Z" fill="#1A1A1A"/>
<path d="M36.46 17H34.972V8.228H36.46L39.292 15.212L42.124 8.228H43.636V17H42.148V14.3C42.148 12.536 42.148 12.02 42.232 11.396L40 17H38.584L36.364 11.408C36.448 11.936 36.46 12.764 36.46 13.856V17ZM46.0935 9.884C45.5895 9.884 45.1935 9.488 45.1935 8.996C45.1935 8.504 45.5895 8.12 46.0935 8.12C46.5735 8.12 46.9695 8.504 46.9695 8.996C46.9695 9.488 46.5735 9.884 46.0935 9.884ZM45.3615 17V11.072H46.8255V17H45.3615ZM47.99 14.024C47.99 12.188 49.202 10.892 50.954 10.892C52.574 10.892 53.678 11.792 53.834 13.22H52.37C52.202 12.548 51.71 12.2 51.014 12.2C50.078 12.2 49.454 12.908 49.454 14.024C49.454 15.14 50.03 15.836 50.966 15.836C51.698 15.836 52.214 15.476 52.37 14.828H53.846C53.666 16.208 52.514 17.156 50.966 17.156C49.166 17.156 47.99 15.908 47.99 14.024ZM58.6557 11.048V12.404H58.1157C57.0597 12.404 56.3997 12.968 56.3997 14.12V17H54.9357V11.084H56.3157L56.3997 11.948C56.6517 11.36 57.2157 10.964 58.0077 10.964C58.2117 10.964 58.4157 10.988 58.6557 11.048ZM59.0994 14.024C59.0994 12.176 60.4314 10.904 62.2674 10.904C64.1034 10.904 65.4354 12.176 65.4354 14.024C65.4354 15.872 64.1034 17.144 62.2674 17.144C60.4314 17.144 59.0994 15.872 59.0994 14.024ZM60.5634 14.024C60.5634 15.104 61.2594 15.836 62.2674 15.836C63.2754 15.836 63.9714 15.104 63.9714 14.024C63.9714 12.944 63.2754 12.212 62.2674 12.212C61.2594 12.212 60.5634 12.944 60.5634 14.024ZM66.5958 19.748V11.072H67.9518L68.0478 11.972C68.4078 11.288 69.1878 10.892 70.0878 10.892C71.7558 10.892 72.8598 12.104 72.8598 13.964C72.8598 15.812 71.8518 17.156 70.0878 17.156C69.1998 17.156 68.4318 16.808 68.0598 16.208V19.748H66.5958ZM68.0718 14.036C68.0718 15.104 68.7318 15.836 69.7398 15.836C70.7718 15.836 71.3838 15.092 71.3838 14.036C71.3838 12.98 70.7718 12.224 69.7398 12.224C68.7318 12.224 68.0718 12.968 68.0718 14.036ZM75.4895 17H74.0255V8.072H75.5015V11.84C75.8735 11.264 76.5695 10.892 77.4215 10.892C78.8855 10.892 79.6535 11.816 79.6535 13.352V17H78.1895V13.7C78.1895 12.704 77.6975 12.224 76.9535 12.224C76.0295 12.224 75.4895 12.872 75.4895 13.76V17ZM80.7439 14.024C80.7439 12.176 82.0759 10.904 83.9119 10.904C85.7479 10.904 87.0799 12.176 87.0799 14.024C87.0799 15.872 85.7479 17.144 83.9119 17.144C82.0759 17.144 80.7439 15.872 80.7439 14.024ZM82.2079 14.024C82.2079 15.104 82.9039 15.836 83.9119 15.836C84.9199 15.836 85.6159 15.104 85.6159 14.024C85.6159 12.944 84.9199 12.212 83.9119 12.212C82.9039 12.212 82.2079 12.944 82.2079 14.024ZM89.7044 17H88.2404V11.072H89.5964L89.7164 11.84C90.0884 11.24 90.8084 10.892 91.6124 10.892C93.1004 10.892 93.8684 11.816 93.8684 13.352V17H92.4044V13.7C92.4044 12.704 91.9124 12.224 91.1564 12.224C90.2564 12.224 89.7044 12.848 89.7044 13.808V17ZM97.9588 17.156C96.1948 17.156 94.9588 15.872 94.9588 14.036C94.9588 12.176 96.1708 10.892 97.9108 10.892C99.6868 10.892 100.815 12.08 100.815 13.928V14.372L96.3508 14.384C96.4588 15.428 97.0108 15.956 97.9828 15.956C98.7868 15.956 99.3148 15.644 99.4828 15.08H100.839C100.587 16.376 99.5068 17.156 97.9588 17.156ZM97.9228 12.092C97.0588 12.092 96.5308 12.56 96.3868 13.448H99.3628C99.3628 12.632 98.7988 12.092 97.9228 12.092ZM101.974 14.444V13.148H105.838V14.444H101.974ZM112.437 16.988L106.353 17V15.848L109.221 13.424C110.409 12.416 110.805 11.84 110.805 11C110.805 10.004 110.265 9.44 109.341 9.44C108.381 9.44 107.781 10.112 107.769 11.24H106.245C106.257 9.32 107.481 8.072 109.341 8.072C111.213 8.072 112.377 9.14 112.377 10.916C112.377 12.14 111.705 13.064 110.373 14.204L108.789 15.56H112.437V16.988Z" fill="black"/>
</svg>
