<svg width="200" height="24" viewBox="0 0 200 24" fill="none" xmlns="http://www.w3.org/2000/svg">
<path d="M12 2C6.49 2 2 6.49 2 12C2 17.51 6.49 22 12 22C17.51 22 22 17.51 22 12C22 6.49 17.51 2 12 2ZM16 12.75H12.75V16C12.75 16.41 12.41 16.75 12 16.75C11.59 16.75 11.25 16.41 11.25 16V12.75H8C7.59 12.75 7.25 12.41 7.25 12C7.25 11.59 7.59 11.25 8 11.25H11.25V8C11.25 7.59 11.59 7.25 12 7.25C12.41 7.25 12.75 7.59 12.75 8V11.25H16C16.41 11.25 16.75 11.59 16.75 12C16.75 12.41 16.41 12.75 16 12.75Z" fill="#1A1A1A"/>
<path d="M35.728 16H34.132L37.3 7.228H38.872L42.04 16H40.42L39.712 13.972H36.436L35.728 16ZM37.888 9.844L36.892 12.676H39.268L38.26 9.844C38.188 9.616 38.104 9.352 38.08 9.172C38.044 9.34 37.972 9.604 37.888 9.844ZM45.0904 16.156C43.3744 16.156 42.3064 14.896 42.3064 13.06C42.3064 11.212 43.3864 9.892 45.1744 9.892C46.0024 9.892 46.7344 10.24 47.1064 10.828V7.072H48.5584V16H47.2144L47.1184 15.076C46.7584 15.76 45.9904 16.156 45.0904 16.156ZM45.4144 14.812C46.4344 14.812 47.0944 14.08 47.0944 13.012C47.0944 11.944 46.4344 11.2 45.4144 11.2C44.3944 11.2 43.7704 11.956 43.7704 13.012C43.7704 14.068 44.3944 14.812 45.4144 14.812ZM52.5201 16.156C50.8041 16.156 49.7361 14.896 49.7361 13.06C49.7361 11.212 50.8161 9.892 52.6041 9.892C53.4321 9.892 54.1641 10.24 54.5361 10.828V7.072H55.9881V16H54.6441L54.5481 15.076C54.1881 15.76 53.4201 16.156 52.5201 16.156ZM52.8441 14.812C53.8641 14.812 54.5241 14.08 54.5241 13.012C54.5241 11.944 53.8641 11.2 52.8441 11.2C51.8241 11.2 51.2001 11.956 51.2001 13.012C51.2001 14.068 51.8241 14.812 52.8441 14.812ZM57.5018 13.444V12.148H61.3658V13.444H57.5018ZM62.5095 13.024C62.5095 11.188 63.7215 9.892 65.4735 9.892C67.0935 9.892 68.1975 10.792 68.3535 12.22H66.8895C66.7215 11.548 66.2295 11.2 65.5335 11.2C64.5975 11.2 63.9735 11.908 63.9735 13.024C63.9735 14.14 64.5495 14.836 65.4855 14.836C66.2175 14.836 66.7335 14.476 66.8895 13.828H68.3655C68.1855 15.208 67.0335 16.156 65.4855 16.156C63.6855 16.156 62.5095 14.908 62.5095 13.024ZM70.1872 8.884C69.6832 8.884 69.2872 8.488 69.2872 7.996C69.2872 7.504 69.6832 7.12 70.1872 7.12C70.6672 7.12 71.0632 7.504 71.0632 7.996C71.0632 8.488 70.6672 8.884 70.1872 8.884ZM69.4552 16V10.072H70.9192V16H69.4552ZM76.1518 10.048V11.404H75.6118C74.5558 11.404 73.8958 11.968 73.8958 13.12V16H72.4318V10.084H73.8118L73.8958 10.948C74.1478 10.36 74.7118 9.964 75.5038 9.964C75.7078 9.964 75.9118 9.988 76.1518 10.048ZM76.5955 13.024C76.5955 11.188 77.8075 9.892 79.5595 9.892C81.1795 9.892 82.2835 10.792 82.4395 12.22H80.9755C80.8075 11.548 80.3155 11.2 79.6195 11.2C78.6835 11.2 78.0595 11.908 78.0595 13.024C78.0595 14.14 78.6355 14.836 79.5715 14.836C80.3035 14.836 80.8195 14.476 80.9755 13.828H82.4515C82.2715 15.208 81.1195 16.156 79.5715 16.156C77.7715 16.156 76.5955 14.908 76.5955 13.024ZM85.0171 16H83.5651V7.072H85.0171V16ZM89.2048 16.156C87.4408 16.156 86.2048 14.872 86.2048 13.036C86.2048 11.176 87.4168 9.892 89.1568 9.892C90.9328 9.892 92.0608 11.08 92.0608 12.928V13.372L87.5968 13.384C87.7048 14.428 88.2568 14.956 89.2288 14.956C90.0328 14.956 90.5608 14.644 90.7288 14.08H92.0848C91.8328 15.376 90.7528 16.156 89.2048 16.156ZM89.1688 11.092C88.3048 11.092 87.7768 11.56 87.6328 12.448H90.6088C90.6088 11.632 90.0448 11.092 89.1688 11.092Z" fill="black"/>
</svg>
