<svg width="101" height="24" viewBox="0 0 101 24" fill="none" xmlns="http://www.w3.org/2000/svg">
<path d="M19.8801 2H4.1201C3.5201 2 3.0601 2.51999 3.1301 3.10999L4.9301 19.33C4.9701 19.73 5.2601 20.07 5.6501 20.18L11.7301 21.92C11.9101 21.97 12.1001 21.97 12.2801 21.92L18.3601 20.18C18.7501 20.07 19.0301 19.73 19.0801 19.33L20.8801 3.10999C20.9401 2.51999 20.4801 2 19.8801 2ZM16.2501 16.08C16.2201 16.38 16.0001 16.63 15.7101 16.72L12.2101 17.72C12.1401 17.74 12.0701 17.75 12.0001 17.75C11.9301 17.75 11.8601 17.74 11.7901 17.72L8.2901 16.72C8.0301 16.65 7.8301 16.44 7.7701 16.18L7.2701 14.18C7.1701 13.78 7.4101 13.37 7.8201 13.27C8.2201 13.17 8.6301 13.41 8.7301 13.82L9.1301 15.4L12.0101 16.22L14.8201 15.42L15.2301 11.75H8.0001C7.5901 11.75 7.2501 11.41 7.2501 11C7.2501 10.59 7.5901 10.25 8.0001 10.25H15.3801L15.6601 7.75L7.5001 7.73001C7.0901 7.73001 6.7501 7.39001 6.7501 6.98001C6.7501 6.57001 7.0901 6.23001 7.5001 6.23001L16.5001 6.25C16.7101 6.25 16.9201 6.34 17.0601 6.5C17.2001 6.66 17.2701 6.86999 17.2501 7.07999L16.2501 16.08Z" fill="#1A1A1A"/>
<path d="M36.508 16H34.972V7.228H36.508V10.852H40.396V7.228H41.932V16H40.396V12.28H36.508V16ZM45.6783 16H44.2143V11.296H43.0743V10.072H44.2143V8.224H45.6783V10.072H46.8303V11.296H45.6783V16ZM49.2044 16H47.7404V10.072H49.0844L49.2044 10.768C49.5044 10.276 50.1044 9.892 50.9564 9.892C51.8564 9.892 52.4804 10.336 52.7924 11.02C53.0924 10.336 53.7884 9.892 54.6884 9.892C56.1284 9.892 56.9204 10.756 56.9204 12.124V16H55.4684V12.508C55.4684 11.656 55.0124 11.212 54.3164 11.212C53.6084 11.212 53.0684 11.668 53.0684 12.64V16H51.6044V12.496C51.6044 11.668 51.1604 11.224 50.4644 11.224C49.7684 11.224 49.2044 11.68 49.2044 12.64V16ZM59.8336 16H58.3816V7.072H59.8336V16ZM61.3573 13.444V12.148H65.2213V13.444H61.3573ZM69.1471 11.656H68.0791V10.66L70.3351 8.584H66.6871V7.228H72.2551V8.452L70.1191 10.42C71.4631 10.684 72.5071 11.668 72.5071 13.216C72.5071 15.016 71.1031 16.156 69.3271 16.156C67.6111 16.156 66.2791 15.1 66.2791 13.204H67.7911C67.7911 14.212 68.4151 14.788 69.3511 14.788C70.3111 14.788 70.9471 14.164 70.9471 13.192C70.9471 12.304 70.3711 11.656 69.1471 11.656Z" fill="black"/>
</svg>
