<svg width="101" height="24" viewBox="0 0 101 24" fill="none" xmlns="http://www.w3.org/2000/svg">
<path d="M12 2C6.48 2 2 6.48 2 12C2 17.52 6.48 22 12 22C17.52 22 22 17.52 22 12C22 6.48 17.52 2 12 2ZM17.79 12.71L15.95 14.55C15.56 14.94 14.93 14.94 14.54 14.55L12 12L9.45999 14.54C9.06999 14.93 8.43999 14.93 8.04999 14.54L6.20999 12.7C5.81999 12.31 5.81999 11.68 6.20999 11.29L8.04999 9.45C8.43999 9.06 9.06999 9.06 9.45999 9.45L12 12L14.54 9.46001C14.93 9.07001 15.56 9.07001 15.95 9.46001L17.79 11.3C18.18 11.68 18.18 12.32 17.79 12.71Z" fill="#1A1A1A"/>
<path d="M34.204 8.644V7.228H40.876V8.644H38.308V16H36.772V8.644H34.204ZM43.4783 16.156C41.7143 16.156 40.4783 14.872 40.4783 13.036C40.4783 11.176 41.6903 9.892 43.4303 9.892C45.2063 9.892 46.3343 11.08 46.3343 12.928V13.372L41.8703 13.384C41.9783 14.428 42.5303 14.956 43.5023 14.956C44.3063 14.956 44.8343 14.644 45.0023 14.08H46.3583C46.1063 15.376 45.0263 16.156 43.4783 16.156ZM43.4423 11.092C42.5783 11.092 42.0503 11.56 41.9063 12.448H44.8823C44.8823 11.632 44.3183 11.092 43.4423 11.092ZM48.97 16H47.506V10.072H48.862L48.982 10.84C49.354 10.24 50.074 9.892 50.878 9.892C52.366 9.892 53.134 10.816 53.134 12.352V16H51.67V12.7C51.67 11.704 51.178 11.224 50.422 11.224C49.522 11.224 48.97 11.848 48.97 12.808V16ZM55.6044 16H53.9364L55.9764 13.096L53.9364 10.072H55.6404L56.9484 12.088L58.2084 10.072H59.8524L57.8364 13.072L59.7924 16H58.1124L56.8524 14.044L55.6044 16ZM60.1854 13.444V12.148H64.0494V13.444H60.1854ZM68.4812 18.292H67.3172C66.1172 16.924 65.3252 14.776 65.3252 12.472C65.3252 10.372 65.9972 8.164 67.3172 6.664H68.4812C67.4852 8.02 66.8012 10.144 66.8012 12.472C66.8012 14.596 67.3892 16.804 68.4812 18.292ZM69.2326 18.748V10.072H70.5886L70.6846 10.972C71.0446 10.288 71.8246 9.892 72.7246 9.892C74.3926 9.892 75.4966 11.104 75.4966 12.964C75.4966 14.812 74.4886 16.156 72.7246 16.156C71.8366 16.156 71.0686 15.808 70.6966 15.208V18.748H69.2326ZM70.7086 13.036C70.7086 14.104 71.3686 14.836 72.3766 14.836C73.4086 14.836 74.0206 14.092 74.0206 13.036C74.0206 11.98 73.4086 11.224 72.3766 11.224C71.3686 11.224 70.7086 11.968 70.7086 13.036ZM78.4263 16.156C77.1663 16.156 76.3983 15.424 76.3983 14.308C76.3983 13.216 77.1903 12.532 78.5943 12.424L80.3703 12.292V12.16C80.3703 11.356 79.8903 11.032 79.1463 11.032C78.2823 11.032 77.8023 11.392 77.8023 12.016H76.5543C76.5543 10.732 77.6103 9.892 79.2183 9.892C80.8143 9.892 81.7983 10.756 81.7983 12.4V16H80.5143L80.4063 15.124C80.1543 15.736 79.3503 16.156 78.4263 16.156ZM78.9062 15.052C79.8063 15.052 80.3823 14.512 80.3823 13.6V13.288L79.1463 13.384C78.2343 13.468 77.8863 13.768 77.8863 14.248C77.8863 14.788 78.2463 15.052 78.9062 15.052ZM82.5564 18.748V17.524H83.4324C84.0084 17.524 84.3684 17.392 84.6204 16.696L84.7884 16.252L82.4004 10.072H83.9484L85.4724 14.392L87.0804 10.072H88.5924L85.6884 17.32C85.2444 18.424 84.6204 18.88 83.6484 18.88C83.2404 18.88 82.8804 18.832 82.5564 18.748ZM89.832 18.292H88.668C89.772 16.804 90.348 14.596 90.348 12.472C90.348 10.144 89.664 8.02 88.668 6.664H89.832C91.152 8.164 91.836 10.372 91.836 12.472C91.836 14.776 91.032 16.924 89.832 18.292Z" fill="black"/>
</svg>
