<svg width="101" height="24" viewBox="0 0 101 24" fill="none" xmlns="http://www.w3.org/2000/svg">
<path d="M16.19 2.33008H7.81C4.17 2.33008 2 4.51008 2 8.15008V16.5201C2 20.1601 4.17 22.3301 7.81 22.3301H16.18C19.82 22.3301 21.99 20.1601 21.99 16.5201V8.15008C22 4.51008 19.83 2.33008 16.19 2.33008ZM11.57 17.1201C11.57 17.4201 11.42 17.6901 11.16 17.8501C11.02 17.9401 10.87 17.9801 10.71 17.9801C10.58 17.9801 10.45 17.9501 10.32 17.8901L6.82 16.1401C6.32 15.8801 6 15.3701 6 14.8001V11.4901C6 11.1901 6.15 10.9201 6.41 10.7601C6.67 10.6001 6.98 10.5901 7.25 10.7201L10.75 12.4701C11.26 12.7301 11.58 13.2401 11.58 13.8101V17.1201H11.57ZM11.36 11.7701L7.6 9.74008C7.33 9.59008 7.16 9.30008 7.16 8.97008C7.16 8.65008 7.33 8.35008 7.6 8.20008L11.36 6.17008C11.76 5.96008 12.23 5.96008 12.63 6.17008L16.39 8.20008C16.66 8.35008 16.83 8.64008 16.83 8.97008C16.83 9.30008 16.66 9.59008 16.39 9.74008L12.63 11.7701C12.43 11.8801 12.21 11.9301 11.99 11.9301C11.77 11.9301 11.56 11.8801 11.36 11.7701ZM18 14.8001C18 15.3701 17.68 15.8901 17.17 16.1401L13.67 17.8901C13.55 17.9501 13.42 17.9801 13.28 17.9801C13.12 17.9801 12.97 17.9401 12.83 17.8501C12.57 17.6901 12.42 17.4201 12.42 17.1201V13.8101C12.42 13.2401 12.74 12.7201 13.25 12.4701L16.75 10.7201C17.02 10.5901 17.33 10.6001 17.59 10.7601C17.85 10.9201 18 11.1901 18 11.4901V14.8001Z" fill="#1A1A1A"/>
<path d="M37.108 11.656H36.04V10.66L38.296 8.584H34.648V7.228H40.216V8.452L38.08 10.42C39.424 10.684 40.468 11.668 40.468 13.216C40.468 15.016 39.064 16.156 37.288 16.156C35.572 16.156 34.24 15.1 34.24 13.204H35.752C35.752 14.212 36.376 14.788 37.312 14.788C38.272 14.788 38.908 14.164 38.908 13.192C38.908 12.304 38.332 11.656 37.108 11.656ZM44.96 16H41.804V7.228H44.876C47.468 7.228 49.256 9.016 49.256 11.632C49.256 14.212 47.504 16 44.96 16ZM44.732 8.644H43.34V14.584H44.816C46.568 14.584 47.636 13.456 47.636 11.632C47.636 9.772 46.544 8.644 44.732 8.644ZM50.4588 13.444V12.148H54.3228V13.444H50.4588ZM55.2766 14.2H56.6686C56.6806 14.716 57.0646 15.04 57.7366 15.04C58.4206 15.04 58.7926 14.764 58.7926 14.332C58.7926 14.032 58.6366 13.816 58.1086 13.696L57.0406 13.444C55.9726 13.204 55.4566 12.7 55.4566 11.752C55.4566 10.588 56.4406 9.892 57.8086 9.892C59.1406 9.892 60.0406 10.66 60.0526 11.812H58.6606C58.6486 11.308 58.3126 10.984 57.7486 10.984C57.1726 10.984 56.8366 11.248 56.8366 11.692C56.8366 12.028 57.1006 12.244 57.6046 12.364L58.6726 12.616C59.6686 12.844 60.1726 13.3 60.1726 14.212C60.1726 15.412 59.1526 16.156 57.6886 16.156C56.2126 16.156 55.2766 15.364 55.2766 14.2ZM60.9393 12.964C60.9393 11.104 62.0433 9.892 63.7113 9.892C64.6113 9.892 65.3913 10.288 65.7513 10.972L65.8473 10.072H67.1913V18.748H65.7393V15.208C65.3673 15.808 64.5873 16.156 63.7113 16.156C61.9473 16.156 60.9393 14.812 60.9393 12.964ZM62.4033 13.036C62.4033 14.092 63.0273 14.836 64.0473 14.836C65.0673 14.836 65.7273 14.104 65.7273 13.036C65.7273 11.968 65.0673 11.224 64.0473 11.224C63.0273 11.224 62.4033 11.98 62.4033 13.036ZM72.7369 10.072H74.2009V16H72.8449L72.7369 15.208C72.3769 15.772 71.6089 16.156 70.8169 16.156C69.4489 16.156 68.6449 15.232 68.6449 13.78V10.072H70.1089V13.264C70.1089 14.392 70.5529 14.848 71.3689 14.848C72.2929 14.848 72.7369 14.308 72.7369 13.18V10.072ZM77.477 16.156C76.217 16.156 75.449 15.424 75.449 14.308C75.449 13.216 76.241 12.532 77.645 12.424L79.421 12.292V12.16C79.421 11.356 78.941 11.032 78.197 11.032C77.333 11.032 76.853 11.392 76.853 12.016H75.605C75.605 10.732 76.661 9.892 78.269 9.892C79.865 9.892 80.849 10.756 80.849 12.4V16H79.565L79.457 15.124C79.205 15.736 78.401 16.156 77.477 16.156ZM77.957 15.052C78.857 15.052 79.433 14.512 79.433 13.6V13.288L78.197 13.384C77.285 13.468 76.937 13.768 76.937 14.248C76.937 14.788 77.297 15.052 77.957 15.052ZM86.0073 10.048V11.404H85.4673C84.4113 11.404 83.7513 11.968 83.7513 13.12V16H82.2873V10.084H83.6673L83.7513 10.948C84.0033 10.36 84.5673 9.964 85.3593 9.964C85.5633 9.964 85.7673 9.988 86.0073 10.048ZM89.451 16.156C87.687 16.156 86.451 14.872 86.451 13.036C86.451 11.176 87.663 9.892 89.403 9.892C91.179 9.892 92.307 11.08 92.307 12.928V13.372L87.843 13.384C87.951 14.428 88.503 14.956 89.475 14.956C90.279 14.956 90.807 14.644 90.975 14.08H92.331C92.079 15.376 90.999 16.156 89.451 16.156ZM89.415 11.092C88.551 11.092 88.023 11.56 87.879 12.448H90.855C90.855 11.632 90.291 11.092 89.415 11.092Z" fill="black"/>
</svg>
