<svg width="129" height="24" viewBox="0 0 129 24" fill="none" xmlns="http://www.w3.org/2000/svg">
<path d="M17.56 2H6.41C3.98 2 2 3.98 2 6.41V12.91V13.11C2 15.55 3.98 17.52 6.41 17.52H10.25C10.8 17.52 11.25 17.97 11.25 18.52V19.49C11.25 20.04 10.8 20.49 10.25 20.49H7.83C7.42 20.49 7.08 20.83 7.08 21.24C7.08 21.65 7.41 22 7.83 22H16.18C16.59 22 16.93 21.66 16.93 21.25C16.93 20.84 16.59 20.5 16.18 20.5H13.76C13.21 20.5 12.76 20.05 12.76 19.5V18.53C12.76 17.98 13.21 17.53 13.76 17.53H17.57C20.01 17.53 21.98 15.55 21.98 13.12V12.92V6.42C21.97 3.98 19.99 2 17.56 2Z" fill="#1A1A1A"/>
<path d="M36.46 16H34.972V7.228H36.46L39.292 14.212L42.124 7.228H43.636V16H42.148V13.3C42.148 11.536 42.148 11.02 42.232 10.396L40 16H38.584L36.364 10.408C36.448 10.936 36.46 11.764 36.46 12.856V16ZM45.0135 13.024C45.0135 11.176 46.3455 9.904 48.1815 9.904C50.0175 9.904 51.3495 11.176 51.3495 13.024C51.3495 14.872 50.0175 16.144 48.1815 16.144C46.3455 16.144 45.0135 14.872 45.0135 13.024ZM46.4775 13.024C46.4775 14.104 47.1735 14.836 48.1815 14.836C49.1895 14.836 49.8855 14.104 49.8855 13.024C49.8855 11.944 49.1895 11.212 48.1815 11.212C47.1735 11.212 46.4775 11.944 46.4775 13.024ZM53.9739 16H52.5099V10.072H53.8659L53.9859 10.84C54.3579 10.24 55.0779 9.892 55.8819 9.892C57.3699 9.892 58.1379 10.816 58.1379 12.352V16H56.6739V12.7C56.6739 11.704 56.1819 11.224 55.4259 11.224C54.5259 11.224 53.9739 11.848 53.9739 12.808V16ZM60.3083 8.884C59.8043 8.884 59.4083 8.488 59.4083 7.996C59.4083 7.504 59.8043 7.12 60.3083 7.12C60.7883 7.12 61.1843 7.504 61.1843 7.996C61.1843 8.488 60.7883 8.884 60.3083 8.884ZM59.5763 16V10.072H61.0403V16H59.5763ZM64.5689 16H63.1049V11.296H61.9649V10.072H63.1049V8.224H64.5689V10.072H65.7209V11.296H64.5689V16ZM66.2244 13.024C66.2244 11.176 67.5564 9.904 69.3924 9.904C71.2284 9.904 72.5604 11.176 72.5604 13.024C72.5604 14.872 71.2284 16.144 69.3924 16.144C67.5564 16.144 66.2244 14.872 66.2244 13.024ZM67.6884 13.024C67.6884 14.104 68.3844 14.836 69.3924 14.836C70.4004 14.836 71.0964 14.104 71.0964 13.024C71.0964 11.944 70.4004 11.212 69.3924 11.212C68.3844 11.212 67.6884 11.944 67.6884 13.024ZM77.4408 10.048V11.404H76.9008C75.8448 11.404 75.1848 11.968 75.1848 13.12V16H73.7208V10.084H75.1008L75.1848 10.948C75.4368 10.36 76.0008 9.964 76.7928 9.964C76.9968 9.964 77.2008 9.988 77.4408 10.048Z" fill="black"/>
</svg>
