<svg width="101" height="24" viewBox="0 0 101 24" fill="none" xmlns="http://www.w3.org/2000/svg">
<path d="M7.75 2V5H7C6.74 5 6.49 5.01 6.25 5.05V2C6.25 1.59 6.59 1.25 7 1.25C7.41 1.25 7.75 1.59 7.75 2Z" fill="#1A1A1A"/>
<path d="M17 5H7C6.74 5 6.49 5.01 6.25 5.05C3.67 5.35 2 7.26 2 10V17C2 20 4 22 7 22H17C20 22 22 20 22 17V10C22 7 20 5 17 5ZM7.88 16C6.5 16 5.38 14.88 5.38 13.5C5.38 12.12 6.5 11 7.88 11C9.26 11 10.38 12.12 10.38 13.5C10.38 14.88 9.26 16 7.88 16ZM14.38 16.25H13.88C13.47 16.25 13.13 15.91 13.13 15.5C13.13 15.09 13.47 14.75 13.88 14.75H14.38C14.79 14.75 15.13 15.09 15.13 15.5C15.13 15.91 14.79 16.25 14.38 16.25ZM17.88 16.25H17.38C16.97 16.25 16.63 15.91 16.63 15.5C16.63 15.09 16.97 14.75 17.38 14.75H17.88C18.29 14.75 18.63 15.09 18.63 15.5C18.63 15.91 18.29 16.25 17.88 16.25ZM17.88 12.25H13.88C13.47 12.25 13.13 11.91 13.13 11.5C13.13 11.09 13.47 10.75 13.88 10.75H17.88C18.29 10.75 18.63 11.09 18.63 11.5C18.63 11.91 18.29 12.25 17.88 12.25Z" fill="#1A1A1A"/>
<path d="M36.508 16H34.972V7.228H38.32C40.312 7.228 41.476 8.236 41.476 9.964C41.476 11.14 40.924 11.98 39.892 12.4L41.56 16H39.88L38.392 12.724H36.508V16ZM36.508 8.596V11.368H38.32C39.292 11.368 39.868 10.852 39.868 9.964C39.868 9.088 39.292 8.596 38.32 8.596H36.508ZM44.3247 16.156C43.0647 16.156 42.2967 15.424 42.2967 14.308C42.2967 13.216 43.0887 12.532 44.4927 12.424L46.2687 12.292V12.16C46.2687 11.356 45.7887 11.032 45.0447 11.032C44.1807 11.032 43.7007 11.392 43.7007 12.016H42.4527C42.4527 10.732 43.5087 9.892 45.1167 9.892C46.7127 9.892 47.6967 10.756 47.6967 12.4V16H46.4127L46.3047 15.124C46.0527 15.736 45.2487 16.156 44.3247 16.156ZM44.8047 15.052C45.7047 15.052 46.2807 14.512 46.2807 13.6V13.288L45.0447 13.384C44.1327 13.468 43.7847 13.768 43.7847 14.248C43.7847 14.788 44.1447 15.052 44.8047 15.052ZM51.5709 16.156C49.8549 16.156 48.7869 14.896 48.7869 13.06C48.7869 11.212 49.8669 9.892 51.6549 9.892C52.4829 9.892 53.2149 10.24 53.5869 10.828V7.072H55.0389V16H53.6949L53.5989 15.076C53.2389 15.76 52.4709 16.156 51.5709 16.156ZM51.8949 14.812C52.9149 14.812 53.5749 14.08 53.5749 13.012C53.5749 11.944 52.9149 11.2 51.8949 11.2C50.8749 11.2 50.2509 11.956 50.2509 13.012C50.2509 14.068 50.8749 14.812 51.8949 14.812ZM57.2966 8.884C56.7926 8.884 56.3966 8.488 56.3966 7.996C56.3966 7.504 56.7926 7.12 57.2966 7.12C57.7766 7.12 58.1726 7.504 58.1726 7.996C58.1726 8.488 57.7766 8.884 57.2966 8.884ZM56.5646 16V10.072H58.0286V16H56.5646ZM59.1932 13.024C59.1932 11.176 60.5252 9.904 62.3612 9.904C64.1972 9.904 65.5292 11.176 65.5292 13.024C65.5292 14.872 64.1972 16.144 62.3612 16.144C60.5252 16.144 59.1932 14.872 59.1932 13.024ZM60.6572 13.024C60.6572 14.104 61.3532 14.836 62.3612 14.836C63.3692 14.836 64.0652 14.104 64.0652 13.024C64.0652 11.944 63.3692 11.212 62.3612 11.212C61.3532 11.212 60.6572 11.944 60.6572 13.024Z" fill="black"/>
</svg>
