<svg width="102" height="24" viewBox="0 0 102 24" fill="none" xmlns="http://www.w3.org/2000/svg">
<path d="M15 15.5C15 19.09 12.09 22 8.5 22C4.91 22 2 19.09 2 15.5C2 11.91 4.91 9 8.5 9C8.67 9 8.85 9.01 9.02 9.02C12.19 9.27 14.73 11.81 14.98 14.98C14.99 15.15 15 15.33 15 15.5Z" fill="#1A1A1A"/>
<path d="M22.0001 8.5C22.0001 11.76 19.6001 14.45 16.4801 14.92V14.86C16.1701 10.98 13.0201 7.83 9.11008 7.52H9.08008C9.55008 4.4 12.2401 2 15.5001 2C19.0901 2 22.0001 4.91 22.0001 8.5Z" fill="#1A1A1A"/>
<path d="M5.59 2H3C2.45 2 2 2.45 2 3V5.59C2 6.48 3.08 6.93 3.71 6.3L6.3 3.71C6.92 3.08 6.48 2 5.59 2Z" fill="#1A1A1A"/>
<path d="M18.4097 21.9998H20.9997C21.5497 21.9998 21.9997 21.5498 21.9997 20.9998V18.4098C21.9997 17.5198 20.9197 17.0698 20.2897 17.6998L17.6997 20.2898C17.0797 20.9198 17.5197 21.9998 18.4097 21.9998Z" fill="#1A1A1A"/>
<path d="M34.204 8.644V7.228H40.876V8.644H38.308V16H36.772V8.644H34.204ZM44.8393 10.048V11.404H44.2993C43.2433 11.404 42.5833 11.968 42.5833 13.12V16H41.1193V10.084H42.4993L42.5833 10.948C42.8353 10.36 43.3993 9.964 44.1913 9.964C44.3953 9.964 44.5993 9.988 44.8393 10.048ZM47.3598 16.156C46.0998 16.156 45.3318 15.424 45.3318 14.308C45.3318 13.216 46.1238 12.532 47.5278 12.424L49.3038 12.292V12.16C49.3038 11.356 48.8238 11.032 48.0798 11.032C47.2158 11.032 46.7358 11.392 46.7358 12.016H45.4878C45.4878 10.732 46.5438 9.892 48.1518 9.892C49.7478 9.892 50.7318 10.756 50.7318 12.4V16H49.4478L49.3398 15.124C49.0878 15.736 48.2838 16.156 47.3598 16.156ZM47.8398 15.052C48.7398 15.052 49.3158 14.512 49.3158 13.6V13.288L48.0798 13.384C47.1678 13.468 46.8198 13.768 46.8198 14.248C46.8198 14.788 47.1798 15.052 47.8398 15.052ZM54.6061 16.156C52.8901 16.156 51.8221 14.896 51.8221 13.06C51.8221 11.212 52.9021 9.892 54.6901 9.892C55.5181 9.892 56.2501 10.24 56.6221 10.828V7.072H58.0741V16H56.7301L56.6341 15.076C56.2741 15.76 55.5061 16.156 54.6061 16.156ZM54.9301 14.812C55.9501 14.812 56.6101 14.08 56.6101 13.012C56.6101 11.944 55.9501 11.2 54.9301 11.2C53.9101 11.2 53.2861 11.956 53.2861 13.012C53.2861 14.068 53.9101 14.812 54.9301 14.812ZM62.2518 16.156C60.4878 16.156 59.2518 14.872 59.2518 13.036C59.2518 11.176 60.4638 9.892 62.2038 9.892C63.9798 9.892 65.1078 11.08 65.1078 12.928V13.372L60.6438 13.384C60.7518 14.428 61.3038 14.956 62.2758 14.956C63.0798 14.956 63.6078 14.644 63.7758 14.08H65.1318C64.8798 15.376 63.7998 16.156 62.2518 16.156ZM62.2158 11.092C61.3518 11.092 60.8238 11.56 60.6798 12.448H63.6558C63.6558 11.632 63.0918 11.092 62.2158 11.092Z" fill="black"/>
</svg>
