<svg width="126" height="24" viewBox="0 0 126 24" fill="none" xmlns="http://www.w3.org/2000/svg">
<path d="M21.3802 11.45L16.8802 8.84999C16.6502 8.71999 16.3602 8.71999 16.1302 8.84999L11.6302 11.45C11.6302 11.45 11.6302 11.46 11.6202 11.46L7.50023 13.84L3.75023 11.67V7.33999L7.50023 5.16999L11.2502 7.33999V8.47999C11.2502 8.88999 11.5902 9.22999 12.0002 9.22999C12.4102 9.22999 12.7502 8.88999 12.7502 8.47999V6.89999C12.7502 6.62999 12.6102 6.37999 12.3702 6.24999L7.87022 3.64999C7.64022 3.51999 7.35022 3.51999 7.12022 3.64999L2.62022 6.24999C2.39022 6.37999 2.24023 6.62999 2.24023 6.89999V12.1C2.24023 12.37 2.38022 12.62 2.62022 12.75L7.12022 15.35C7.24022 15.42 7.37023 15.45 7.50023 15.45C7.63023 15.45 7.76023 15.42 7.88023 15.35L12.3802 12.75C12.3802 12.75 12.3802 12.74 12.3902 12.74L16.5102 10.36L20.2602 12.53V16.86L16.5102 19.03L12.7602 16.86V15.64C12.7602 15.23 12.4202 14.89 12.0102 14.89C11.6002 14.89 11.2602 15.23 11.2602 15.64V17.29C11.2602 17.56 11.4002 17.81 11.6402 17.94L16.1402 20.54C16.2602 20.61 16.3902 20.64 16.5202 20.64C16.6502 20.64 16.7802 20.61 16.9002 20.54L21.4002 17.94C21.6302 17.81 21.7802 17.56 21.7802 17.29V12.09C21.7502 11.83 21.6102 11.58 21.3802 11.45Z" fill="#1A1A1A"/>
<path d="M4.5 8.35V10.66C4.5 11.02 4.69 11.35 5 11.53L7 12.68C7.31 12.86 7.69 12.86 8 12.68L10 11.53C10.31 11.35 10.5 11.02 10.5 10.66V8.35C10.5 7.99 10.31 7.66001 10 7.48001L8 6.33001C7.69 6.15001 7.31 6.15001 7 6.33001L5 7.48001C4.69 7.66001 4.5 7.99 4.5 8.35Z" fill="#1A1A1A"/>
<path d="M13.5 13.55V15.86C13.5 16.22 13.69 16.55 14 16.73L16 17.88C16.31 18.06 16.69 18.06 17 17.88L19 16.73C19.31 16.55 19.5 16.22 19.5 15.86V13.55C19.5 13.19 19.31 12.86 19 12.68L17 11.53C16.69 11.35 16.31 11.35 16 11.53L14 12.68C13.69 12.86 13.5 13.19 13.5 13.55Z" fill="#1A1A1A"/>
<path d="M38.44 13.976H36.508V17H34.972V8.228H38.44C40.204 8.228 41.344 9.38 41.344 11.096C41.344 12.788 40.192 13.976 38.44 13.976ZM38.14 9.596H36.508V12.608H38.116C39.172 12.608 39.736 12.044 39.736 11.084C39.736 10.124 39.16 9.596 38.14 9.596ZM41.7791 14.024C41.7791 12.176 43.1111 10.904 44.9471 10.904C46.7831 10.904 48.1151 12.176 48.1151 14.024C48.1151 15.872 46.7831 17.144 44.9471 17.144C43.1111 17.144 41.7791 15.872 41.7791 14.024ZM43.2431 14.024C43.2431 15.104 43.9391 15.836 44.9471 15.836C45.9551 15.836 46.6511 15.104 46.6511 14.024C46.6511 12.944 45.9551 12.212 44.9471 12.212C43.9391 12.212 43.2431 12.944 43.2431 14.024ZM50.7515 17H49.2995V8.072H50.7515V17ZM51.7713 19.748V18.524H52.6473C53.2233 18.524 53.5833 18.392 53.8353 17.696L54.0033 17.252L51.6153 11.072H53.1633L54.6873 15.392L56.2953 11.072H57.8073L54.9033 18.32C54.4593 19.424 53.8353 19.88 52.8633 19.88C52.4553 19.88 52.0953 19.832 51.7713 19.748ZM58.0098 13.904C58.0098 12.176 59.1378 10.88 60.8298 10.88C61.7178 10.88 62.4138 11.252 62.7618 11.888L62.8458 11.072H64.2018V16.7C64.2018 18.68 63.0138 19.916 61.0938 19.916C59.3898 19.916 58.2258 18.944 58.0458 17.36H59.5098C59.6058 18.128 60.1938 18.584 61.0938 18.584C62.1018 18.584 62.7498 17.948 62.7498 16.964V15.98C62.3778 16.532 61.6458 16.88 60.7938 16.88C59.1138 16.88 58.0098 15.62 58.0098 13.904ZM59.4858 13.868C59.4858 14.864 60.1218 15.608 61.0818 15.608C62.0898 15.608 62.7138 14.9 62.7138 13.868C62.7138 12.86 62.1018 12.164 61.0818 12.164C60.1098 12.164 59.4858 12.896 59.4858 13.868ZM65.3689 14.024C65.3689 12.176 66.7009 10.904 68.5369 10.904C70.3729 10.904 71.7049 12.176 71.7049 14.024C71.7049 15.872 70.3729 17.144 68.5369 17.144C66.7009 17.144 65.3689 15.872 65.3689 14.024ZM66.8329 14.024C66.8329 15.104 67.5289 15.836 68.5369 15.836C69.5449 15.836 70.2409 15.104 70.2409 14.024C70.2409 12.944 69.5449 12.212 68.5369 12.212C67.5289 12.212 66.8329 12.944 66.8329 14.024ZM74.3294 17H72.8654V11.072H74.2214L74.3414 11.84C74.7134 11.24 75.4334 10.892 76.2374 10.892C77.7254 10.892 78.4934 11.816 78.4934 13.352V17H77.0294V13.7C77.0294 12.704 76.5374 12.224 75.7814 12.224C74.8814 12.224 74.3294 12.848 74.3294 13.808V17ZM79.9198 14.444V13.148H83.7838V14.444H79.9198ZM88.2155 19.292H87.0515C85.8515 17.924 85.0595 15.776 85.0595 13.472C85.0595 11.372 85.7315 9.164 87.0515 7.664H88.2155C87.2195 9.02 86.5355 11.144 86.5355 13.472C86.5355 15.596 87.1235 17.804 88.2155 19.292ZM90.4309 17H88.9669V11.072H90.3109L90.4309 11.768C90.7309 11.276 91.3309 10.892 92.1829 10.892C93.0829 10.892 93.7069 11.336 94.0189 12.02C94.3189 11.336 95.0149 10.892 95.9149 10.892C97.3549 10.892 98.1469 11.756 98.1469 13.124V17H96.6949V13.508C96.6949 12.656 96.2389 12.212 95.5429 12.212C94.8349 12.212 94.2949 12.668 94.2949 13.64V17H92.8309V13.496C92.8309 12.668 92.3869 12.224 91.6909 12.224C90.9949 12.224 90.4309 12.68 90.4309 13.64V17ZM101.348 17.156C100.088 17.156 99.3201 16.424 99.3201 15.308C99.3201 14.216 100.112 13.532 101.516 13.424L103.292 13.292V13.16C103.292 12.356 102.812 12.032 102.068 12.032C101.204 12.032 100.724 12.392 100.724 13.016H99.4761C99.4761 11.732 100.532 10.892 102.14 10.892C103.736 10.892 104.72 11.756 104.72 13.4V17H103.436L103.328 16.124C103.076 16.736 102.272 17.156 101.348 17.156ZM101.828 16.052C102.728 16.052 103.304 15.512 103.304 14.6V14.288L102.068 14.384C101.156 14.468 100.808 14.768 100.808 15.248C100.808 15.788 101.168 16.052 101.828 16.052ZM108.092 17H106.628V12.296H105.488V11.072H106.628V9.224H108.092V11.072H109.244V12.296H108.092V17ZM110.886 9.884C110.382 9.884 109.986 9.488 109.986 8.996C109.986 8.504 110.382 8.12 110.886 8.12C111.366 8.12 111.762 8.504 111.762 8.996C111.762 9.488 111.366 9.884 110.886 9.884ZM110.154 17V11.072H111.618V17H110.154ZM112.783 14.024C112.783 12.188 113.995 10.892 115.747 10.892C117.367 10.892 118.471 11.792 118.627 13.22H117.163C116.995 12.548 116.503 12.2 115.807 12.2C114.871 12.2 114.247 12.908 114.247 14.024C114.247 15.14 114.823 15.836 115.759 15.836C116.491 15.836 117.007 15.476 117.163 14.828H118.639C118.459 16.208 117.307 17.156 115.759 17.156C113.959 17.156 112.783 15.908 112.783 14.024ZM120.137 19.292H118.973C120.077 17.804 120.653 15.596 120.653 13.472C120.653 11.144 119.969 9.02 118.973 7.664H120.137C121.457 9.164 122.141 11.372 122.141 13.472C122.141 15.776 121.337 17.924 120.137 19.292Z" fill="black"/>
</svg>
