<svg width="110" height="24" viewBox="0 0 110 24" fill="none" xmlns="http://www.w3.org/2000/svg">
<path d="M21.3 12.23H17.82C16.84 12.23 15.97 12.77 15.53 13.65L14.69 15.31C14.49 15.71 14.09 15.96 13.65 15.96H10.37C10.06 15.96 9.62 15.89 9.33 15.31L8.49 13.66C8.05 12.79 7.17 12.24 6.2 12.24H2.7C2.31 12.24 2 12.55 2 12.94V16.2C2 19.83 4.18 22 7.82 22H16.2C19.63 22 21.74 20.12 22 16.78V12.93C22 12.55 21.69 12.23 21.3 12.23Z" fill="#1A1A1A"/>
<path d="M16.19 2H7.81C4.17 2 2 4.17 2 7.81V10.85C2.22 10.77 2.46 10.73 2.7 10.73H6.2C7.75 10.73 9.14 11.59 9.83 12.98L10.58 14.45H13.44L14.19 12.97C14.88 11.59 16.27 10.73 17.82 10.73H21.3C21.54 10.73 21.78 10.77 22 10.85V7.81C22 4.17 19.83 2 16.19 2ZM10.45 5.41H13.55C13.93 5.41 14.25 5.72 14.25 6.1C14.25 6.49 13.93 6.8 13.55 6.8H10.45C10.07 6.8 9.75 6.49 9.75 6.1C9.75 5.72 10.07 5.41 10.45 5.41ZM14.33 9.59H9.67C9.29 9.59 8.98 9.28 8.98 8.9C8.98 8.51 9.29 8.2 9.67 8.2H14.33C14.71 8.2 15.02 8.51 15.02 8.9C15.02 9.28 14.71 9.59 14.33 9.59Z" fill="#1A1A1A"/>
<path d="M38.128 16H34.972V7.228H38.044C40.636 7.228 42.424 9.016 42.424 11.632C42.424 14.212 40.672 16 38.128 16ZM37.9 8.644H36.508V14.584H37.984C39.736 14.584 40.804 13.456 40.804 11.632C40.804 9.772 39.712 8.644 37.9 8.644ZM44.3708 8.884C43.8668 8.884 43.4708 8.488 43.4708 7.996C43.4708 7.504 43.8668 7.12 44.3708 7.12C44.8508 7.12 45.2468 7.504 45.2468 7.996C45.2468 8.488 44.8508 8.884 44.3708 8.884ZM43.6388 16V10.072H45.1028V16H43.6388ZM50.3354 10.048V11.404H49.7954C48.7394 11.404 48.0794 11.968 48.0794 13.12V16H46.6154V10.084H47.9954L48.0794 10.948C48.3314 10.36 48.8954 9.964 49.6874 9.964C49.8914 9.964 50.0954 9.988 50.3354 10.048ZM53.7791 16.156C52.0151 16.156 50.7791 14.872 50.7791 13.036C50.7791 11.176 51.9911 9.892 53.7311 9.892C55.5071 9.892 56.6351 11.08 56.6351 12.928V13.372L52.1711 13.384C52.2791 14.428 52.8311 14.956 53.8031 14.956C54.6071 14.956 55.1351 14.644 55.3031 14.08H56.6591C56.4071 15.376 55.3271 16.156 53.7791 16.156ZM53.7431 11.092C52.8791 11.092 52.3511 11.56 52.2071 12.448H55.1831C55.1831 11.632 54.6191 11.092 53.7431 11.092ZM57.4588 13.024C57.4588 11.188 58.6708 9.892 60.4228 9.892C62.0428 9.892 63.1468 10.792 63.3028 12.22H61.8388C61.6708 11.548 61.1788 11.2 60.4828 11.2C59.5468 11.2 58.9228 11.908 58.9228 13.024C58.9228 14.14 59.4988 14.836 60.4348 14.836C61.1668 14.836 61.6828 14.476 61.8388 13.828H63.3148C63.1348 15.208 61.9828 16.156 60.4348 16.156C58.6348 16.156 57.4588 14.908 57.4588 13.024ZM66.4204 16H64.9564V11.296H63.8164V10.072H64.9564V8.224H66.4204V10.072H67.5724V11.296H66.4204V16Z" fill="black"/>
</svg>
