<svg width="137" height="24" viewBox="0 0 137 24" fill="none" xmlns="http://www.w3.org/2000/svg">
<path d="M15.78 2H8.22C4.44 2 3.5 3.01 3.5 7.04V18.3C3.5 20.96 4.96 21.59 6.73 19.69L6.74 19.68C7.56 18.81 8.81 18.88 9.52 19.83L10.53 21.18C11.34 22.25 12.65 22.25 13.46 21.18L14.47 19.83C15.19 18.87 16.44 18.8 17.26 19.68C19.04 21.58 20.49 20.95 20.49 18.29V7.04C20.5 3.01 19.56 2 15.78 2ZM15.66 14.53C15.51 14.68 15.32 14.75 15.13 14.75C14.94 14.75 14.75 14.68 14.6 14.53L13.86 13.79C13.28 14.17 12.58 14.4 11.83 14.4C9.79 14.4 8.13 12.74 8.13 10.7C8.13 8.66 9.78 7 11.83 7C13.88 7 15.53 8.66 15.53 10.7C15.53 11.45 15.3 12.15 14.92 12.73L15.66 13.47C15.95 13.76 15.95 14.24 15.66 14.53Z" fill="#1A1A1A"/>
<path d="M36.508 17H34.972V8.228H38.32C40.312 8.228 41.476 9.236 41.476 10.964C41.476 12.14 40.924 12.98 39.892 13.4L41.56 17H39.88L38.392 13.724H36.508V17ZM36.508 9.596V12.368H38.32C39.292 12.368 39.868 11.852 39.868 10.964C39.868 10.088 39.292 9.596 38.32 9.596H36.508ZM45.0252 17.156C43.2612 17.156 42.0252 15.872 42.0252 14.036C42.0252 12.176 43.2372 10.892 44.9772 10.892C46.7532 10.892 47.8812 12.08 47.8812 13.928V14.372L43.4172 14.384C43.5252 15.428 44.0772 15.956 45.0492 15.956C45.8532 15.956 46.3812 15.644 46.5492 15.08H47.9052C47.6532 16.376 46.5732 17.156 45.0252 17.156ZM44.9892 12.092C44.1252 12.092 43.5972 12.56 43.4532 13.448H46.4292C46.4292 12.632 45.8652 12.092 44.9892 12.092ZM48.7049 14.024C48.7049 12.188 49.9169 10.892 51.6689 10.892C53.2889 10.892 54.3929 11.792 54.5489 13.22H53.0849C52.9169 12.548 52.4249 12.2 51.7289 12.2C50.7929 12.2 50.1689 12.908 50.1689 14.024C50.1689 15.14 50.7449 15.836 51.6809 15.836C52.4129 15.836 52.9289 15.476 53.0849 14.828H54.5609C54.3809 16.208 53.2289 17.156 51.6809 17.156C49.8809 17.156 48.7049 15.908 48.7049 14.024ZM58.3025 17.156C56.5385 17.156 55.3025 15.872 55.3025 14.036C55.3025 12.176 56.5145 10.892 58.2545 10.892C60.0305 10.892 61.1585 12.08 61.1585 13.928V14.372L56.6945 14.384C56.8025 15.428 57.3545 15.956 58.3265 15.956C59.1305 15.956 59.6585 15.644 59.8265 15.08H61.1825C60.9305 16.376 59.8505 17.156 58.3025 17.156ZM58.2665 12.092C57.4025 12.092 56.8745 12.56 56.7305 13.448H59.7065C59.7065 12.632 59.1425 12.092 58.2665 12.092ZM63.0622 9.884C62.5582 9.884 62.1622 9.488 62.1622 8.996C62.1622 8.504 62.5582 8.12 63.0622 8.12C63.5422 8.12 63.9382 8.504 63.9382 8.996C63.9382 9.488 63.5422 9.884 63.0622 9.884ZM62.3302 17V11.072H63.7942V17H62.3302ZM65.3068 19.748V11.072H66.6628L66.7588 11.972C67.1188 11.288 67.8988 10.892 68.7988 10.892C70.4668 10.892 71.5708 12.104 71.5708 13.964C71.5708 15.812 70.5628 17.156 68.7988 17.156C67.9108 17.156 67.1428 16.808 66.7708 16.208V19.748H65.3068ZM66.7828 14.036C66.7828 15.104 67.4428 15.836 68.4508 15.836C69.4828 15.836 70.0948 15.092 70.0948 14.036C70.0948 12.98 69.4828 12.224 68.4508 12.224C67.4428 12.224 66.7828 12.968 66.7828 14.036ZM74.6939 17H73.2299V12.296H72.0899V11.072H73.2299V9.224H74.6939V11.072H75.8459V12.296H74.6939V17ZM76.5096 14.444V13.148H80.3736V14.444H76.5096ZM81.3273 15.2H82.7193C82.7313 15.716 83.1153 16.04 83.7873 16.04C84.4713 16.04 84.8433 15.764 84.8433 15.332C84.8433 15.032 84.6873 14.816 84.1593 14.696L83.0913 14.444C82.0233 14.204 81.5073 13.7 81.5073 12.752C81.5073 11.588 82.4913 10.892 83.8593 10.892C85.1913 10.892 86.0913 11.66 86.1033 12.812H84.7113C84.6993 12.308 84.3633 11.984 83.7993 11.984C83.2233 11.984 82.8873 12.248 82.8873 12.692C82.8873 13.028 83.1513 13.244 83.6553 13.364L84.7233 13.616C85.7193 13.844 86.2233 14.3 86.2233 15.212C86.2233 16.412 85.2033 17.156 83.7393 17.156C82.2633 17.156 81.3273 16.364 81.3273 15.2ZM89.99 17.156C88.226 17.156 86.99 15.872 86.99 14.036C86.99 12.176 88.202 10.892 89.942 10.892C91.718 10.892 92.846 12.08 92.846 13.928V14.372L88.382 14.384C88.49 15.428 89.042 15.956 90.014 15.956C90.818 15.956 91.346 15.644 91.514 15.08H92.87C92.618 16.376 91.538 17.156 89.99 17.156ZM89.954 12.092C89.09 12.092 88.562 12.56 88.418 13.448H91.394C91.394 12.632 90.83 12.092 89.954 12.092ZM95.7231 17.156C94.4631 17.156 93.6951 16.424 93.6951 15.308C93.6951 14.216 94.4871 13.532 95.8911 13.424L97.6671 13.292V13.16C97.6671 12.356 97.1871 12.032 96.4431 12.032C95.5791 12.032 95.0991 12.392 95.0991 13.016H93.8511C93.8511 11.732 94.9071 10.892 96.5151 10.892C98.1111 10.892 99.0951 11.756 99.0951 13.4V17H97.8111L97.7031 16.124C97.4511 16.736 96.6471 17.156 95.7231 17.156ZM96.2031 16.052C97.1031 16.052 97.6791 15.512 97.6791 14.6V14.288L96.4431 14.384C95.5311 14.468 95.1831 14.768 95.1831 15.248C95.1831 15.788 95.5431 16.052 96.2031 16.052ZM104.253 11.048V12.404H103.713C102.657 12.404 101.997 12.968 101.997 14.12V17H100.533V11.084H101.913L101.997 11.948C102.249 11.36 102.813 10.964 103.605 10.964C103.809 10.964 104.013 10.988 104.253 11.048ZM104.697 14.024C104.697 12.188 105.909 10.892 107.661 10.892C109.281 10.892 110.385 11.792 110.541 13.22H109.077C108.909 12.548 108.417 12.2 107.721 12.2C106.785 12.2 106.161 12.908 106.161 14.024C106.161 15.14 106.737 15.836 107.673 15.836C108.405 15.836 108.921 15.476 109.077 14.828H110.553C110.373 16.208 109.221 17.156 107.673 17.156C105.873 17.156 104.697 15.908 104.697 14.024ZM113.107 17H111.643V8.072H113.119V11.84C113.491 11.264 114.187 10.892 115.039 10.892C116.503 10.892 117.271 11.816 117.271 13.352V17H115.807V13.7C115.807 12.704 115.315 12.224 114.571 12.224C113.647 12.224 113.107 12.872 113.107 13.76V17Z" fill="black"/>
</svg>
