<svg width="153" height="24" viewBox="0 0 153 24" fill="none" xmlns="http://www.w3.org/2000/svg">
<path d="M20.5 10.19H17.61C15.24 10.19 13.31 8.26 13.31 5.89V3C13.31 2.45 12.86 2 12.31 2H8.07C4.99 2 2.5 4 2.5 7.57V16.43C2.5 20 4.99 22 8.07 22H15.93C19.01 22 21.5 20 21.5 16.43V11.19C21.5 10.64 21.05 10.19 20.5 10.19ZM12.28 15.78L10.28 17.78C10.21 17.85 10.12 17.91 10.03 17.94C9.94 17.98 9.85 18 9.75 18C9.65 18 9.56 17.98 9.47 17.94C9.39 17.91 9.31 17.85 9.25 17.79C9.24 17.78 9.23 17.78 9.23 17.77L7.23 15.77C6.94 15.48 6.94 15 7.23 14.71C7.52 14.42 8 14.42 8.29 14.71L9 15.44V11.25C9 10.84 9.34 10.5 9.75 10.5C10.16 10.5 10.5 10.84 10.5 11.25V15.44L11.22 14.72C11.51 14.43 11.99 14.43 12.28 14.72C12.57 15.01 12.57 15.49 12.28 15.78Z" fill="#1A1A1A"/>
<path d="M17.4302 8.80999C18.3802 8.81999 19.7002 8.81999 20.8302 8.81999C21.4002 8.81999 21.7002 8.14999 21.3002 7.74999C19.8602 6.29999 17.2802 3.68999 15.8002 2.20999C15.3902 1.79999 14.6802 2.07999 14.6802 2.64999V6.13999C14.6802 7.59999 15.9202 8.80999 17.4302 8.80999Z" fill="#1A1A1A"/>
<path d="M38.128 17H34.972V8.228H38.044C40.636 8.228 42.424 10.016 42.424 12.632C42.424 15.212 40.672 17 38.128 17ZM37.9 9.644H36.508V15.584H37.984C39.736 15.584 40.804 14.456 40.804 12.632C40.804 10.772 39.712 9.644 37.9 9.644ZM43.2908 14.024C43.2908 12.176 44.6228 10.904 46.4588 10.904C48.2948 10.904 49.6268 12.176 49.6268 14.024C49.6268 15.872 48.2948 17.144 46.4588 17.144C44.6228 17.144 43.2908 15.872 43.2908 14.024ZM44.7548 14.024C44.7548 15.104 45.4508 15.836 46.4588 15.836C47.4668 15.836 48.1628 15.104 48.1628 14.024C48.1628 12.944 47.4668 12.212 46.4588 12.212C45.4508 12.212 44.7548 12.944 44.7548 14.024ZM50.4393 14.024C50.4393 12.188 51.6513 10.892 53.4033 10.892C55.0233 10.892 56.1273 11.792 56.2833 13.22H54.8193C54.6513 12.548 54.1593 12.2 53.4633 12.2C52.5273 12.2 51.9033 12.908 51.9033 14.024C51.9033 15.14 52.4793 15.836 53.4153 15.836C54.1473 15.836 54.6633 15.476 54.8193 14.828H56.2953C56.1153 16.208 54.9633 17.156 53.4153 17.156C51.6152 17.156 50.4393 15.908 50.4393 14.024ZM61.4049 11.072H62.8689V17H61.5129L61.4049 16.208C61.0449 16.772 60.2769 17.156 59.4849 17.156C58.1169 17.156 57.3129 16.232 57.3129 14.78V11.072H58.7769V14.264C58.7769 15.392 59.2209 15.848 60.0369 15.848C60.9609 15.848 61.4049 15.308 61.4049 14.18V11.072ZM65.845 17H64.381V11.072H65.725L65.845 11.768C66.145 11.276 66.745 10.892 67.597 10.892C68.497 10.892 69.121 11.336 69.433 12.02C69.733 11.336 70.429 10.892 71.329 10.892C72.769 10.892 73.561 11.756 73.561 13.124V17H72.109V13.508C72.109 12.656 71.653 12.212 70.957 12.212C70.249 12.212 69.709 12.668 69.709 13.64V17H68.245V13.496C68.245 12.668 67.801 12.224 67.105 12.224C66.409 12.224 65.845 12.68 65.845 13.64V17ZM77.6502 17.156C75.8862 17.156 74.6502 15.872 74.6502 14.036C74.6502 12.176 75.8622 10.892 77.6022 10.892C79.3782 10.892 80.5062 12.08 80.5062 13.928V14.372L76.0422 14.384C76.1502 15.428 76.7022 15.956 77.6742 15.956C78.4782 15.956 79.0062 15.644 79.1742 15.08H80.5302C80.2782 16.376 79.1982 17.156 77.6502 17.156ZM77.6142 12.092C76.7502 12.092 76.2222 12.56 76.0782 13.448H79.0542C79.0542 12.632 78.4902 12.092 77.6142 12.092ZM83.1419 17H81.6779V11.072H83.0339L83.1539 11.84C83.5259 11.24 84.2459 10.892 85.0499 10.892C86.5379 10.892 87.3059 11.816 87.3059 13.352V17H85.8419V13.7C85.8419 12.704 85.3499 12.224 84.5939 12.224C83.6939 12.224 83.1419 12.848 83.1419 13.808V17ZM90.7603 17H89.2963V12.296H88.1563V11.072H89.2963V9.224H90.7603V11.072H91.9123V12.296H90.7603V17ZM92.576 14.444V13.148H96.44V14.444H92.576ZM100.368 17.156C98.6518 17.156 97.5838 15.896 97.5838 14.06C97.5838 12.212 98.6638 10.892 100.452 10.892C101.28 10.892 102.012 11.24 102.384 11.828V8.072H103.836V17H102.492L102.396 16.076C102.036 16.76 101.268 17.156 100.368 17.156ZM100.692 15.812C101.712 15.812 102.372 15.08 102.372 14.012C102.372 12.944 101.712 12.2 100.692 12.2C99.6718 12.2 99.0478 12.956 99.0478 14.012C99.0478 15.068 99.6718 15.812 100.692 15.812ZM105.013 14.024C105.013 12.176 106.345 10.904 108.181 10.904C110.017 10.904 111.349 12.176 111.349 14.024C111.349 15.872 110.017 17.144 108.181 17.144C106.345 17.144 105.013 15.872 105.013 14.024ZM106.477 14.024C106.477 15.104 107.173 15.836 108.181 15.836C109.189 15.836 109.885 15.104 109.885 14.024C109.885 12.944 109.189 12.212 108.181 12.212C107.173 12.212 106.477 12.944 106.477 14.024ZM113.525 17L111.605 11.072H113.129L113.909 13.616C114.041 14.084 114.161 14.6 114.269 15.152C114.377 14.576 114.485 14.204 114.677 13.616L115.493 11.072H116.981L117.773 13.616C117.845 13.856 118.085 14.744 118.157 15.14C118.253 14.696 118.445 13.988 118.553 13.616L119.345 11.072H120.893L118.841 17H117.473L116.657 14.432C116.417 13.652 116.285 13.088 116.237 12.788C116.177 13.064 116.069 13.484 115.769 14.456L114.953 17H113.525ZM123.243 17H121.779V11.072H123.135L123.255 11.84C123.627 11.24 124.347 10.892 125.151 10.892C126.639 10.892 127.407 11.816 127.407 13.352V17H125.943V13.7C125.943 12.704 125.451 12.224 124.695 12.224C123.795 12.224 123.243 12.848 123.243 13.808V17ZM130.322 17H128.87V8.072H130.322V17ZM131.51 14.024C131.51 12.176 132.842 10.904 134.678 10.904C136.514 10.904 137.846 12.176 137.846 14.024C137.846 15.872 136.514 17.144 134.678 17.144C132.842 17.144 131.51 15.872 131.51 14.024ZM132.974 14.024C132.974 15.104 133.67 15.836 134.678 15.836C135.686 15.836 136.382 15.104 136.382 14.024C136.382 12.944 135.686 12.212 134.678 12.212C133.67 12.212 132.974 12.944 132.974 14.024ZM140.77 17.156C139.51 17.156 138.742 16.424 138.742 15.308C138.742 14.216 139.534 13.532 140.938 13.424L142.714 13.292V13.16C142.714 12.356 142.234 12.032 141.49 12.032C140.626 12.032 140.146 12.392 140.146 13.016H138.898C138.898 11.732 139.954 10.892 141.562 10.892C143.158 10.892 144.142 11.756 144.142 13.4V17H142.858L142.75 16.124C142.498 16.736 141.694 17.156 140.77 17.156ZM141.25 16.052C142.15 16.052 142.726 15.512 142.726 14.6V14.288L141.49 14.384C140.578 14.468 140.23 14.768 140.23 15.248C140.23 15.788 140.59 16.052 141.25 16.052ZM148.016 17.156C146.3 17.156 145.232 15.896 145.232 14.06C145.232 12.212 146.312 10.892 148.1 10.892C148.928 10.892 149.66 11.24 150.032 11.828V8.072H151.484V17H150.14L150.044 16.076C149.684 16.76 148.916 17.156 148.016 17.156ZM148.34 15.812C149.36 15.812 150.02 15.08 150.02 14.012C150.02 12.944 149.36 12.2 148.34 12.2C147.32 12.2 146.696 12.956 146.696 14.012C146.696 15.068 147.32 15.812 148.34 15.812Z" fill="black"/>
</svg>
