<svg width="125" height="24" viewBox="0 0 125 24" fill="none" xmlns="http://www.w3.org/2000/svg">
<path d="M16.19 2H7.81C4.17 2 2 4.17 2 7.81V16.18C2 19.83 4.17 22 7.81 22H16.18C19.82 22 21.99 19.83 21.99 16.19V7.81C22 4.17 19.83 2 16.19 2ZM10.95 17.51C10.66 17.8 10.11 18.08 9.71 18.14L7.25 18.49C7.16 18.5 7.07 18.51 6.98 18.51C6.57 18.51 6.19 18.37 5.92 18.1C5.59 17.77 5.45 17.29 5.53 16.76L5.88 14.3C5.94 13.89 6.21 13.35 6.51 13.06L10.97 8.6C11.05 8.81 11.13 9.02 11.24 9.26C11.34 9.47 11.45 9.69 11.57 9.89C11.67 10.06 11.78 10.22 11.87 10.34C11.98 10.51 12.11 10.67 12.19 10.76C12.24 10.83 12.28 10.88 12.3 10.9C12.55 11.2 12.84 11.48 13.09 11.69C13.16 11.76 13.2 11.8 13.22 11.81C13.37 11.93 13.52 12.05 13.65 12.14C13.81 12.26 13.97 12.37 14.14 12.46C14.34 12.58 14.56 12.69 14.78 12.8C15.01 12.9 15.22 12.99 15.43 13.06L10.95 17.51ZM17.37 11.09L16.45 12.02C16.39 12.08 16.31 12.11 16.23 12.11C16.2 12.11 16.16 12.11 16.14 12.1C14.11 11.52 12.49 9.9 11.91 7.87C11.88 7.76 11.91 7.64 11.99 7.57L12.92 6.64C14.44 5.12 15.89 5.15 17.38 6.64C18.14 7.4 18.51 8.13 18.51 8.89C18.5 9.61 18.13 10.33 17.37 11.09Z" fill="#1A1A1A"/>
<path d="M40.42 16H34.972V7.228H40.42V8.644H36.508V10.9H40.012V12.256H36.508V14.584H40.42V16ZM44.3053 16.156C42.5893 16.156 41.5213 14.896 41.5213 13.06C41.5213 11.212 42.6013 9.892 44.3893 9.892C45.2173 9.892 45.9493 10.24 46.3213 10.828V7.072H47.7733V16H46.4293L46.3333 15.076C45.9733 15.76 45.2053 16.156 44.3053 16.156ZM44.6293 14.812C45.6493 14.812 46.3093 14.08 46.3093 13.012C46.3093 11.944 45.6493 11.2 44.6293 11.2C43.6093 11.2 42.9853 11.956 42.9853 13.012C42.9853 14.068 43.6093 14.812 44.6293 14.812ZM50.031 8.884C49.527 8.884 49.131 8.488 49.131 7.996C49.131 7.504 49.527 7.12 50.031 7.12C50.511 7.12 50.907 7.504 50.907 7.996C50.907 8.488 50.511 8.884 50.031 8.884ZM49.299 16V10.072H50.763V16H49.299ZM54.2915 16H52.8275V11.296H51.6875V10.072H52.8275V8.224H54.2915V10.072H55.4435V11.296H54.2915V16Z" fill="black"/>
</svg>
