<svg width="112" height="24" viewBox="0 0 112 24" fill="none" xmlns="http://www.w3.org/2000/svg">
<path d="M21.1 7.87C21.68 7.23 22 6.4 22 5.53C22 3.58 20.42 2 18.47 2C17.6 2 16.78 2.32 16.14 2.9C14.85 2.3 13.46 2 12 2C10.57 2 9.15 2.31 7.87 2.9C7.23 2.32 6.4 2 5.53 2C3.58 2 2 3.58 2 5.53C2 6.4 2.32 7.23 2.9 7.87C2.31 9.15 2 10.57 2 12C2 13.46 2.3 14.85 2.9 16.14C2.32 16.78 2 17.6 2 18.47C2 20.42 3.58 22 5.53 22C6.4 22 7.23 21.68 7.87 21.1C9.15 21.69 10.57 22 12 22C13.46 22 14.85 21.7 16.14 21.1C16.78 21.68 17.6 22 18.47 22C20.42 22 22 20.42 22 18.47C22 17.6 21.68 16.78 21.1 16.14C21.7 14.85 22 13.46 22 12C22 10.57 21.69 9.15 21.1 7.87ZM19.68 15.17C19.57 15.13 19.46 15.09 19.35 15.06C19.18 15.02 19 14.99 18.83 14.97C18.71 14.96 18.59 14.95 18.47 14.95C16.53 14.95 14.95 16.53 14.95 18.47C14.95 18.59 14.96 18.71 14.97 18.83C14.99 19 15.02 19.18 15.06 19.35C15.09 19.46 15.13 19.57 15.17 19.68C15.17 19.71 15.18 19.74 15.2 19.77C15.21 19.8 15.22 19.83 15.23 19.86C13.22 20.7 10.82 20.71 8.77 19.86C8.78 19.83 8.79 19.8 8.8 19.77C8.82 19.74 8.83 19.71 8.83 19.68C8.87 19.57 8.91 19.46 8.94 19.35C8.98 19.18 9.01 19 9.03 18.83C9.04 18.71 9.05 18.59 9.05 18.47C9.05 16.53 7.47 14.95 5.53 14.95C5.41 14.95 5.29 14.96 5.17 14.97C5 14.99 4.82 15.02 4.65 15.06C4.54 15.09 4.43 15.13 4.32 15.17C4.29 15.17 4.26 15.18 4.23 15.2C4.2 15.21 4.17 15.22 4.14 15.23C3.71 14.22 3.5 13.13 3.5 12C3.5 10.89 3.72 9.78 4.14 8.77C4.15 8.77 4.17 8.78 4.18 8.78C4.06 8.73 3.93 8.67 3.82 8.61C3.66 8.52 3.5 8.42 3.35 8.3C3.65 8.53 3.97 8.71 4.32 8.83C4.44 8.88 4.57 8.92 4.69 8.95C4.77 8.97 4.84 8.98 4.91 8.99C5 9.01 5.08 9.02 5.17 9.03C5.29 9.04 5.41 9.05 5.53 9.05C7.47 9.05 9.05 7.47 9.05 5.53C9.05 5.41 9.04 5.29 9.03 5.17C9.02 5.08 9.01 5 8.99 4.91C8.98 4.84 8.97 4.77 8.95 4.69C8.92 4.57 8.88 4.44 8.83 4.32C8.71 3.97 8.53 3.65 8.3 3.35C8.42 3.5 8.52 3.66 8.61 3.82C8.67 3.93 8.73 4.06 8.78 4.18C8.78 4.17 8.77 4.15 8.77 4.14C10.81 3.29 13.22 3.3 15.23 4.14C15.22 4.17 15.21 4.2 15.2 4.23C15.18 4.26 15.17 4.29 15.17 4.32C15.13 4.43 15.09 4.54 15.06 4.65C15.02 4.82 14.99 5 14.97 5.17C14.96 5.29 14.95 5.41 14.95 5.53C14.95 7.47 16.53 9.05 18.47 9.05C18.59 9.05 18.71 9.04 18.83 9.03C19 9.01 19.18 8.98 19.35 8.94C19.46 8.91 19.57 8.87 19.68 8.83C19.71 8.83 19.74 8.82 19.77 8.8C19.8 8.79 19.83 8.78 19.86 8.77C20.28 9.78 20.5 10.89 20.5 12C20.5 13.13 20.29 14.22 19.86 15.23C19.83 15.22 19.8 15.21 19.77 15.2C19.74 15.18 19.71 15.17 19.68 15.17Z" fill="#1A1A1A"/>
<path d="M42.772 13.412H39.508V17H37.972V8.228H43.396V9.644H39.508V12.032H42.772V13.412ZM43.7596 14.024C43.7596 12.176 45.0916 10.904 46.9276 10.904C48.7636 10.904 50.0956 12.176 50.0956 14.024C50.0956 15.872 48.7636 17.144 46.9276 17.144C45.0916 17.144 43.7596 15.872 43.7596 14.024ZM45.2236 14.024C45.2236 15.104 45.9196 15.836 46.9276 15.836C47.9356 15.836 48.6316 15.104 48.6316 14.024C48.6316 12.944 47.9356 12.212 46.9276 12.212C45.9196 12.212 45.2236 12.944 45.2236 14.024ZM54.976 11.048V12.404H54.436C53.38 12.404 52.72 12.968 52.72 14.12V17H51.256V11.084H52.636L52.72 11.948C52.972 11.36 53.536 10.964 54.328 10.964C54.532 10.964 54.736 10.988 54.976 11.048ZM57.4309 17H55.9669V11.072H57.3109L57.4309 11.768C57.7309 11.276 58.3309 10.892 59.1829 10.892C60.0829 10.892 60.7069 11.336 61.0189 12.02C61.3189 11.336 62.0149 10.892 62.9149 10.892C64.3549 10.892 65.1469 11.756 65.1469 13.124V17H63.6949V13.508C63.6949 12.656 63.2389 12.212 62.5429 12.212C61.8349 12.212 61.2949 12.668 61.2949 13.64V17H59.8309V13.496C59.8309 12.668 59.3869 12.224 58.6909 12.224C57.9949 12.224 57.4309 12.68 57.4309 13.64V17ZM68.3481 17.156C67.0881 17.156 66.3201 16.424 66.3201 15.308C66.3201 14.216 67.1121 13.532 68.5161 13.424L70.2921 13.292V13.16C70.2921 12.356 69.8121 12.032 69.0681 12.032C68.2041 12.032 67.7241 12.392 67.7241 13.016H66.4761C66.4761 11.732 67.5321 10.892 69.1401 10.892C70.7361 10.892 71.7201 11.756 71.7201 13.4V17H70.4361L70.3281 16.124C70.0761 16.736 69.2721 17.156 68.3481 17.156ZM68.8281 16.052C69.7281 16.052 70.3041 15.512 70.3041 14.6V14.288L69.0681 14.384C68.1561 14.468 67.8081 14.768 67.8081 15.248C67.8081 15.788 68.1681 16.052 68.8281 16.052ZM75.0923 17H73.6283V12.296H72.4883V11.072H73.6283V9.224H75.0923V11.072H76.2443V12.296H75.0923V17ZM76.9081 14.444V13.148H80.7721V14.444H76.9081ZM81.9158 14.024C81.9158 12.188 83.1278 10.892 84.8798 10.892C86.4998 10.892 87.6038 11.792 87.7598 13.22H86.2958C86.1278 12.548 85.6358 12.2 84.9398 12.2C84.0038 12.2 83.3798 12.908 83.3798 14.024C83.3798 15.14 83.9558 15.836 84.8918 15.836C85.6238 15.836 86.1398 15.476 86.2958 14.828H87.7718C87.5918 16.208 86.4398 17.156 84.8918 17.156C83.0918 17.156 81.9158 15.908 81.9158 14.024ZM89.5935 9.884C89.0895 9.884 88.6935 9.488 88.6935 8.996C88.6935 8.504 89.0895 8.12 89.5935 8.12C90.0735 8.12 90.4695 8.504 90.4695 8.996C90.4695 9.488 90.0735 9.884 89.5935 9.884ZM88.8615 17V11.072H90.3255V17H88.8615ZM95.558 11.048V12.404H95.018C93.962 12.404 93.302 12.968 93.302 14.12V17H91.838V11.084H93.218L93.302 11.948C93.554 11.36 94.118 10.964 94.91 10.964C95.114 10.964 95.318 10.988 95.558 11.048ZM96.0018 14.024C96.0018 12.188 97.2138 10.892 98.9658 10.892C100.586 10.892 101.69 11.792 101.846 13.22H100.382C100.214 12.548 99.7218 12.2 99.0258 12.2C98.0898 12.2 97.4658 12.908 97.4658 14.024C97.4658 15.14 98.0418 15.836 98.9778 15.836C99.7098 15.836 100.226 15.476 100.382 14.828H101.858C101.678 16.208 100.526 17.156 98.9778 17.156C97.1777 17.156 96.0018 15.908 96.0018 14.024ZM104.423 17H102.971V8.072H104.423V17ZM108.611 17.156C106.847 17.156 105.611 15.872 105.611 14.036C105.611 12.176 106.823 10.892 108.563 10.892C110.339 10.892 111.467 12.08 111.467 13.928V14.372L107.003 14.384C107.111 15.428 107.663 15.956 108.635 15.956C109.439 15.956 109.967 15.644 110.135 15.08H111.491C111.239 16.376 110.159 17.156 108.611 17.156ZM108.575 12.092C107.711 12.092 107.183 12.56 107.039 13.448H110.015C110.015 12.632 109.451 12.092 108.575 12.092Z" fill="black"/>
</svg>
