<svg width="141" height="24" viewBox="0 0 141 24" fill="none" xmlns="http://www.w3.org/2000/svg">
<path d="M20.5 10.19H17.61C15.24 10.19 13.31 8.26 13.31 5.89V3C13.31 2.45 12.86 2 12.31 2H8.07C4.99 2 2.5 4 2.5 7.57V16.43C2.5 20 4.99 22 8.07 22H15.93C19.01 22 21.5 20 21.5 16.43V11.19C21.5 10.64 21.05 10.19 20.5 10.19ZM12.48 15.7C11.96 17.37 10.13 18.27 9.5 18.27C8.86 18.27 7.07 17.4 6.52 15.7C6.16 14.59 6.57 13.14 7.84 12.73C8.42 12.54 9.04 12.65 9.49 13C9.94 12.65 10.56 12.54 11.15 12.73C12.43 13.14 12.83 14.59 12.48 15.7Z" fill="#1A1A1A"/>
<path d="M17.4299 8.80999C18.3799 8.81999 19.6999 8.81999 20.8299 8.81999C21.3999 8.81999 21.6999 8.14999 21.2999 7.74999C19.8599 6.29999 17.2799 3.68999 15.7999 2.20999C15.3899 1.79999 14.6799 2.07999 14.6799 2.64999V6.13999C14.6799 7.59999 15.9199 8.80999 17.4299 8.80999Z" fill="#1A1A1A"/>
<path d="M38.1278 17H34.9718V8.228H38.0438C40.6358 8.228 42.4238 10.016 42.4238 12.632C42.4238 15.212 40.6718 17 38.1278 17ZM37.8998 9.644H36.5078V15.584H37.9838C39.7358 15.584 40.8038 14.456 40.8038 12.632C40.8038 10.772 39.7118 9.644 37.8998 9.644ZM43.2906 14.024C43.2906 12.176 44.6226 10.904 46.4586 10.904C48.2946 10.904 49.6266 12.176 49.6266 14.024C49.6266 15.872 48.2946 17.144 46.4586 17.144C44.6226 17.144 43.2906 15.872 43.2906 14.024ZM44.7546 14.024C44.7546 15.104 45.4506 15.836 46.4586 15.836C47.4666 15.836 48.1626 15.104 48.1626 14.024C48.1626 12.944 47.4666 12.212 46.4586 12.212C45.4506 12.212 44.7546 12.944 44.7546 14.024ZM50.439 14.024C50.439 12.188 51.651 10.892 53.403 10.892C55.023 10.892 56.127 11.792 56.283 13.22H54.819C54.651 12.548 54.159 12.2 53.463 12.2C52.527 12.2 51.903 12.908 51.903 14.024C51.903 15.14 52.479 15.836 53.415 15.836C54.147 15.836 54.663 15.476 54.819 14.828H56.295C56.115 16.208 54.963 17.156 53.415 17.156C51.615 17.156 50.439 15.908 50.439 14.024ZM61.4047 11.072H62.8687V17H61.5127L61.4047 16.208C61.0447 16.772 60.2767 17.156 59.4847 17.156C58.1167 17.156 57.3127 16.232 57.3127 14.78V11.072H58.7767V14.264C58.7767 15.392 59.2207 15.848 60.0367 15.848C60.9607 15.848 61.4047 15.308 61.4047 14.18V11.072ZM65.8448 17H64.3808V11.072H65.7248L65.8448 11.768C66.1448 11.276 66.7448 10.892 67.5968 10.892C68.4968 10.892 69.1208 11.336 69.4328 12.02C69.7328 11.336 70.4288 10.892 71.3288 10.892C72.7688 10.892 73.5608 11.756 73.5608 13.124V17H72.1088V13.508C72.1088 12.656 71.6528 12.212 70.9568 12.212C70.2488 12.212 69.7088 12.668 69.7088 13.64V17H68.2448V13.496C68.2448 12.668 67.8008 12.224 67.1048 12.224C66.4088 12.224 65.8448 12.68 65.8448 13.64V17ZM77.6499 17.156C75.8859 17.156 74.6499 15.872 74.6499 14.036C74.6499 12.176 75.8619 10.892 77.6019 10.892C79.3779 10.892 80.5059 12.08 80.5059 13.928V14.372L76.0419 14.384C76.1499 15.428 76.7019 15.956 77.6739 15.956C78.4779 15.956 79.0059 15.644 79.1739 15.08H80.5299C80.2779 16.376 79.1979 17.156 77.6499 17.156ZM77.6139 12.092C76.7499 12.092 76.2219 12.56 76.0779 13.448H79.0539C79.0539 12.632 78.4899 12.092 77.6139 12.092ZM83.1416 17H81.6776V11.072H83.0336L83.1536 11.84C83.5256 11.24 84.2456 10.892 85.0496 10.892C86.5376 10.892 87.3056 11.816 87.3056 13.352V17H85.8416V13.7C85.8416 12.704 85.3496 12.224 84.5936 12.224C83.6936 12.224 83.1416 12.848 83.1416 13.808V17ZM90.76 17H89.296V12.296H88.156V11.072H89.296V9.224H90.76V11.072H91.912V12.296H90.76V17ZM92.5758 14.444V13.148H96.4398V14.444H92.5758ZM97.1092 11.072H97.9612V10.352C97.9612 8.744 98.8132 8.072 100.097 8.072C100.325 8.072 100.601 8.084 100.853 8.132V9.38H100.337C99.5932 9.38 99.4132 9.764 99.4132 10.352V11.072H100.829V12.296H99.4132V17H97.9612V12.296H97.1092V11.072ZM103.375 17.156C102.115 17.156 101.347 16.424 101.347 15.308C101.347 14.216 102.139 13.532 103.543 13.424L105.319 13.292V13.16C105.319 12.356 104.839 12.032 104.095 12.032C103.231 12.032 102.751 12.392 102.751 13.016H101.503C101.503 11.732 102.559 10.892 104.167 10.892C105.763 10.892 106.747 11.756 106.747 13.4V17H105.463L105.355 16.124C105.103 16.736 104.299 17.156 103.375 17.156ZM103.855 16.052C104.755 16.052 105.331 15.512 105.331 14.6V14.288L104.095 14.384C103.183 14.468 102.835 14.768 102.835 15.248C102.835 15.788 103.195 16.052 103.855 16.052ZM109.631 17L107.279 11.072H108.839L109.871 13.796C110.123 14.504 110.327 15.116 110.399 15.44C110.483 15.068 110.699 14.444 110.951 13.796L112.031 11.072H113.543L111.071 17H109.631ZM113.744 14.024C113.744 12.176 115.076 10.904 116.912 10.904C118.748 10.904 120.08 12.176 120.08 14.024C120.08 15.872 118.748 17.144 116.912 17.144C115.076 17.144 113.744 15.872 113.744 14.024ZM115.208 14.024C115.208 15.104 115.904 15.836 116.912 15.836C117.92 15.836 118.616 15.104 118.616 14.024C118.616 12.944 117.92 12.212 116.912 12.212C115.904 12.212 115.208 12.944 115.208 14.024ZM124.96 11.048V12.404H124.42C123.364 12.404 122.704 12.968 122.704 14.12V17H121.24V11.084H122.62L122.704 11.948C122.956 11.36 123.52 10.964 124.312 10.964C124.516 10.964 124.72 10.988 124.96 11.048ZM126.683 9.884C126.179 9.884 125.783 9.488 125.783 8.996C125.783 8.504 126.179 8.12 126.683 8.12C127.163 8.12 127.559 8.504 127.559 8.996C127.559 9.488 127.163 9.884 126.683 9.884ZM125.951 17V11.072H127.415V17H125.951ZM130.944 17H129.48V12.296H128.34V11.072H129.48V9.224H130.944V11.072H132.096V12.296H130.944V17ZM135.599 17.156C133.835 17.156 132.599 15.872 132.599 14.036C132.599 12.176 133.811 10.892 135.551 10.892C137.327 10.892 138.455 12.08 138.455 13.928V14.372L133.991 14.384C134.099 15.428 134.651 15.956 135.623 15.956C136.427 15.956 136.955 15.644 137.123 15.08H138.479C138.227 16.376 137.147 17.156 135.599 17.156ZM135.563 12.092C134.699 12.092 134.171 12.56 134.027 13.448H137.003C137.003 12.632 136.439 12.092 135.563 12.092Z" fill="black"/>
</svg>
