<svg width="101" height="24" viewBox="0 0 101 24" fill="none" xmlns="http://www.w3.org/2000/svg">
<g clip-path="url(#clip0_4083_23131)">
<path d="M22.7499 11.9997C22.7499 12.4097 22.4099 12.7497 21.9999 12.7497H19.9599C19.6099 16.5597 16.5599 19.6097 12.7499 19.9597V21.9997C12.7499 22.4097 12.4099 22.7497 11.9999 22.7497C11.5899 22.7497 11.2499 22.4097 11.2499 21.9997V19.9597C10.6399 19.9097 10.0399 19.7797 9.46994 19.5897C8.75994 19.3497 8.53994 18.4497 9.06994 17.9197L11.8799 15.1097C11.9199 15.1197 11.9499 15.1197 11.9899 15.1197C13.7199 15.1197 15.1099 13.7297 15.1099 11.9997C15.1099 11.9597 15.1099 11.9297 15.0999 11.8897L17.9099 9.07971C18.4399 8.54971 19.3399 8.76971 19.5799 9.47971C19.7699 10.0497 19.8999 10.6397 19.9499 11.2597H21.9999C22.4099 11.2497 22.7499 11.5897 22.7499 11.9997Z" fill="#1A1A1A"/>
<path d="M21.77 2.23C21.47 1.93 20.98 1.93 20.68 2.23L17.07 5.84C15.87 4.85 14.37 4.2 12.74 4.05V2C12.74 1.59 12.4 1.25 11.99 1.25C11.58 1.25 11.24 1.59 11.24 2V4.04C7.43 4.4 4.38 7.44 4.03 11.25H2C1.59 11.25 1.25 11.59 1.25 12C1.25 12.41 1.59 12.75 2 12.75H4.04C4.19 14.38 4.84 15.88 5.83 17.08L2.22 20.69C1.92 20.99 1.92 21.48 2.22 21.78C2.38 21.92 2.57 22 2.77 22C2.97 22 3.16 21.92 3.31 21.77L21.77 3.31C22.08 3.01 22.08 2.53 21.77 2.23ZM8.88 12C8.88 10.28 10.28 8.88 12 8.88C12.58 8.88 13.12 9.05 13.58 9.33L9.33 13.58C9.05 13.12 8.88 12.58 8.88 12Z" fill="#1A1A1A"/>
</g>
<path d="M38.812 8.524C37.072 8.524 36.076 9.784 36.076 11.68C36.076 13.636 37.204 14.704 38.824 14.704C40.348 14.704 41.272 13.864 41.272 12.46V12.424H38.62V11.068H42.7V16H41.404L41.308 14.992C40.828 15.664 39.832 16.132 38.644 16.132C36.184 16.132 34.468 14.344 34.468 11.644C34.468 8.98 36.208 7.084 38.848 7.084C40.852 7.084 42.4 8.248 42.652 10.036H41.032C40.756 9.004 39.868 8.524 38.812 8.524ZM44.1427 18.748V10.072H45.4987L45.5947 10.972C45.9547 10.288 46.7347 9.892 47.6347 9.892C49.3027 9.892 50.4067 11.104 50.4067 12.964C50.4067 14.812 49.3987 16.156 47.6347 16.156C46.7467 16.156 45.9787 15.808 45.6067 15.208V18.748H44.1427ZM45.6187 13.036C45.6187 14.104 46.2787 14.836 47.2867 14.836C48.3187 14.836 48.9307 14.092 48.9307 13.036C48.9307 11.98 48.3187 11.224 47.2867 11.224C46.2787 11.224 45.6187 11.968 45.6187 13.036ZM51.1164 14.2H52.5084C52.5204 14.716 52.9044 15.04 53.5764 15.04C54.2604 15.04 54.6324 14.764 54.6324 14.332C54.6324 14.032 54.4764 13.816 53.9484 13.696L52.8804 13.444C51.8124 13.204 51.2964 12.7 51.2964 11.752C51.2964 10.588 52.2804 9.892 53.6484 9.892C54.9804 9.892 55.8804 10.66 55.8924 11.812H54.5004C54.4884 11.308 54.1524 10.984 53.5884 10.984C53.0124 10.984 52.6764 11.248 52.6764 11.692C52.6764 12.028 52.9404 12.244 53.4444 12.364L54.5124 12.616C55.5084 12.844 56.0124 13.3 56.0124 14.212C56.0124 15.412 54.9924 16.156 53.5284 16.156C52.0524 16.156 51.1164 15.364 51.1164 14.2ZM56.9628 13.444V12.148H60.8268V13.444H56.9628ZM61.7805 14.2H63.1725C63.1845 14.716 63.5685 15.04 64.2405 15.04C64.9245 15.04 65.2965 14.764 65.2965 14.332C65.2965 14.032 65.1405 13.816 64.6125 13.696L63.5445 13.444C62.4765 13.204 61.9605 12.7 61.9605 11.752C61.9605 10.588 62.9445 9.892 64.3125 9.892C65.6445 9.892 66.5445 10.66 66.5565 11.812H65.1645C65.1525 11.308 64.8165 10.984 64.2525 10.984C63.6765 10.984 63.3405 11.248 63.3405 11.692C63.3405 12.028 63.6045 12.244 64.1085 12.364L65.1765 12.616C66.1725 12.844 66.6765 13.3 66.6765 14.212C66.6765 15.412 65.6565 16.156 64.1925 16.156C62.7165 16.156 61.7805 15.364 61.7805 14.2ZM69.2672 16H67.8152V7.072H69.2672V16ZM72.5669 16.156C71.3069 16.156 70.5389 15.424 70.5389 14.308C70.5389 13.216 71.3309 12.532 72.7349 12.424L74.5109 12.292V12.16C74.5109 11.356 74.0309 11.032 73.2869 11.032C72.4229 11.032 71.9429 11.392 71.9429 12.016H70.6949C70.6949 10.732 71.7509 9.892 73.3589 9.892C74.9549 9.892 75.9389 10.756 75.9389 12.4V16H74.6549L74.5469 15.124C74.2949 15.736 73.4909 16.156 72.5669 16.156ZM73.0469 15.052C73.9469 15.052 74.5229 14.512 74.5229 13.6V13.288L73.2869 13.384C72.3749 13.468 72.0269 13.768 72.0269 14.248C72.0269 14.788 72.3869 15.052 73.0469 15.052ZM76.9211 14.2H78.3131C78.3251 14.716 78.7091 15.04 79.3811 15.04C80.0651 15.04 80.4371 14.764 80.4371 14.332C80.4371 14.032 80.2811 13.816 79.7531 13.696L78.6851 13.444C77.6171 13.204 77.1011 12.7 77.1011 11.752C77.1011 10.588 78.0851 9.892 79.4531 9.892C80.7851 9.892 81.6851 10.66 81.6971 11.812H80.3051C80.2931 11.308 79.9571 10.984 79.3931 10.984C78.8171 10.984 78.4811 11.248 78.4811 11.692C78.4811 12.028 78.7451 12.244 79.2491 12.364L80.3171 12.616C81.3131 12.844 81.8171 13.3 81.8171 14.212C81.8171 15.412 80.7971 16.156 79.3331 16.156C77.8571 16.156 76.9211 15.364 76.9211 14.2ZM84.3958 16H82.9318V7.072H84.4078V10.84C84.7798 10.264 85.4758 9.892 86.3278 9.892C87.7918 9.892 88.5598 10.816 88.5598 12.352V16H87.0958V12.7C87.0958 11.704 86.6038 11.224 85.8598 11.224C84.9358 11.224 84.3958 11.872 84.3958 12.76V16Z" fill="black"/>
<defs>
<clipPath id="clip0_4083_23131">
<rect width="24" height="24" fill="white"/>
</clipPath>
</defs>
</svg>
