<svg width="101" height="24" viewBox="0 0 101 24" fill="none" xmlns="http://www.w3.org/2000/svg">
<path d="M5 10C3.9 10 3 10.9 3 12C3 13.1 3.9 14 5 14C6.1 14 7 13.1 7 12C7 10.9 6.1 10 5 10Z" stroke="#1A1A1A" stroke-width="1.5"/>
<path d="M19 10C17.9 10 17 10.9 17 12C17 13.1 17.9 14 19 14C20.1 14 21 13.1 21 12C21 10.9 20.1 10 19 10Z" stroke="#1A1A1A" stroke-width="1.5"/>
<path d="M12 10C10.9 10 10 10.9 10 12C10 13.1 10.9 14 12 14C13.1 14 14 13.1 14 12C14 10.9 13.1 10 12 10Z" stroke="#1A1A1A" stroke-width="1.5"/>
<path d="M36.46 16H34.972V7.228H36.46L39.292 14.212L42.124 7.228H43.636V16H42.148V13.3C42.148 11.536 42.148 11.02 42.232 10.396L40 16H38.584L36.364 10.408C36.448 10.936 36.46 11.764 36.46 12.856V16ZM45.0135 13.024C45.0135 11.176 46.3455 9.904 48.1815 9.904C50.0175 9.904 51.3495 11.176 51.3495 13.024C51.3495 14.872 50.0175 16.144 48.1815 16.144C46.3455 16.144 45.0135 14.872 45.0135 13.024ZM46.4775 13.024C46.4775 14.104 47.1735 14.836 48.1815 14.836C49.1895 14.836 49.8855 14.104 49.8855 13.024C49.8855 11.944 49.1895 11.212 48.1815 11.212C47.1735 11.212 46.4775 11.944 46.4775 13.024ZM56.2299 10.048V11.404H55.6899C54.6339 11.404 53.9739 11.968 53.9739 13.12V16H52.5099V10.084H53.8899L53.9739 10.948C54.2259 10.36 54.7899 9.964 55.5819 9.964C55.7859 9.964 55.9899 9.988 56.2299 10.048ZM59.6736 16.156C57.9096 16.156 56.6736 14.872 56.6736 13.036C56.6736 11.176 57.8856 9.892 59.6256 9.892C61.4016 9.892 62.5296 11.08 62.5296 12.928V13.372L58.0656 13.384C58.1736 14.428 58.7256 14.956 59.6976 14.956C60.5016 14.956 61.0296 14.644 61.1976 14.08H62.5536C62.3016 15.376 61.2216 16.156 59.6736 16.156ZM59.6376 11.092C58.7736 11.092 58.2456 11.56 58.1016 12.448H61.0776C61.0776 11.632 60.5136 11.092 59.6376 11.092Z" fill="black"/>
</svg>
