<svg width="156" height="24" viewBox="0 0 156 24" fill="none" xmlns="http://www.w3.org/2000/svg">
<path d="M18.6902 11.53C18.1202 11.38 17.4502 11.3 16.6502 11.3C15.5402 11.3 15.1302 11.57 14.5602 12C14.5302 12.02 14.5002 12.05 14.4702 12.08L13.5202 13.09C12.7302 13.94 11.2802 13.94 10.4802 13.09L9.53018 12.09C9.50017 12.05 9.47018 12.02 9.44018 12C8.86018 11.57 8.45018 11.3 7.35018 11.3C6.55018 11.3 5.88018 11.37 5.31018 11.53C2.93018 12.17 2.93018 14.06 2.93018 15.72V16.65C2.93018 19.16 2.93018 22 8.28018 22H15.7202C19.2702 22 21.0702 20.2 21.0702 16.65V15.72C21.0702 14.06 21.0702 12.17 18.6902 11.53Z" fill="#1A1A1A"/>
<path d="M14.79 2H9.21004C4.79004 2 4.79004 4.35 4.79004 6.42V10.12C4.83004 10.1 4.88004 10.09 4.92004 10.08C5.62004 9.89 6.41004 9.8 7.35004 9.8C8.89004 9.8 9.62004 10.25 10.34 10.8C10.44 10.87 10.54 10.96 10.63 11.06L11.57 12.05C11.67 12.16 11.83 12.22 12 12.22C12.17 12.22 12.33 12.16 12.42 12.06L13.38 11.05C13.46 10.97 13.55 10.88 13.65 10.81C14.39 10.25 15.11 9.8 16.65 9.8C17.59 9.8 18.38 9.89 19.08 10.08C19.12 10.09 19.17 10.1 19.21 10.12V6.42C19.21 4.35 19.21 2 14.79 2ZM13.55 8.5H10.45C10.07 8.5 9.75004 8.18 9.75004 7.8C9.75004 7.41 10.07 7.1 10.45 7.1H13.55C13.93 7.1 14.25 7.41 14.25 7.8C14.25 8.18 13.93 8.5 13.55 8.5ZM14.33 5.71H9.67004C9.29004 5.71 8.98004 5.39 8.98004 5.01C8.98004 4.62 9.29004 4.31 9.67004 4.31H14.33C14.71 4.31 15.02 4.62 15.02 5.01C15.02 5.39 14.71 5.71 14.33 5.71Z" fill="#1A1A1A"/>
<path d="M38.128 17H34.972V8.228H38.044C40.636 8.228 42.424 10.016 42.424 12.632C42.424 15.212 40.672 17 38.128 17ZM37.9 9.644H36.508V15.584H37.984C39.736 15.584 40.804 14.456 40.804 12.632C40.804 10.772 39.712 9.644 37.9 9.644ZM44.3708 9.884C43.8668 9.884 43.4708 9.488 43.4708 8.996C43.4708 8.504 43.8668 8.12 44.3708 8.12C44.8508 8.12 45.2468 8.504 45.2468 8.996C45.2468 9.488 44.8508 9.884 44.3708 9.884ZM43.6388 17V11.072H45.1028V17H43.6388ZM50.3354 11.048V12.404H49.7954C48.7394 12.404 48.0794 12.968 48.0794 14.12V17H46.6154V11.084H47.9954L48.0794 11.948C48.3314 11.36 48.8954 10.964 49.6874 10.964C49.8914 10.964 50.0954 10.988 50.3354 11.048ZM53.7791 17.156C52.0151 17.156 50.7791 15.872 50.7791 14.036C50.7791 12.176 51.9911 10.892 53.7311 10.892C55.5071 10.892 56.6351 12.08 56.6351 13.928V14.372L52.1711 14.384C52.2791 15.428 52.8311 15.956 53.8031 15.956C54.6071 15.956 55.1351 15.644 55.3031 15.08H56.6591C56.4071 16.376 55.3271 17.156 53.7791 17.156ZM53.7431 12.092C52.8791 12.092 52.3511 12.56 52.2071 13.448H55.1831C55.1831 12.632 54.6191 12.092 53.7431 12.092ZM57.4588 14.024C57.4588 12.188 58.6708 10.892 60.4228 10.892C62.0428 10.892 63.1468 11.792 63.3028 13.22H61.8388C61.6708 12.548 61.1788 12.2 60.4828 12.2C59.5468 12.2 58.9228 12.908 58.9228 14.024C58.9228 15.14 59.4988 15.836 60.4348 15.836C61.1668 15.836 61.6828 15.476 61.8388 14.828H63.3148C63.1348 16.208 61.9828 17.156 60.4348 17.156C58.6348 17.156 57.4588 15.908 57.4588 14.024ZM66.4204 17H64.9564V12.296H63.8164V11.072H64.9564V9.224H66.4204V11.072H67.5724V12.296H66.4204V17ZM69.8386 17H68.4826V8.072H69.9466V11.936C70.3306 11.276 71.1226 10.88 72.0226 10.88C73.7146 10.88 74.7466 12.2 74.7466 14.072C74.7466 15.896 73.6306 17.156 71.9266 17.156C71.0386 17.156 70.2826 16.76 69.9346 16.076L69.8386 17ZM69.9586 14.012C69.9586 15.08 70.6186 15.812 71.6266 15.812C72.6586 15.812 73.2706 15.068 73.2706 14.012C73.2706 12.956 72.6586 12.2 71.6266 12.2C70.6186 12.2 69.9586 12.944 69.9586 14.012ZM75.5643 14.024C75.5643 12.176 76.8963 10.904 78.7323 10.904C80.5683 10.904 81.9003 12.176 81.9003 14.024C81.9003 15.872 80.5683 17.144 78.7323 17.144C76.8963 17.144 75.5643 15.872 75.5643 14.024ZM77.0283 14.024C77.0283 15.104 77.7243 15.836 78.7323 15.836C79.7403 15.836 80.4363 15.104 80.4363 14.024C80.4363 12.944 79.7403 12.212 78.7323 12.212C77.7243 12.212 77.0283 12.944 77.0283 14.024ZM83.8232 17H82.1552L84.1952 14.096L82.1552 11.072H83.8592L85.1672 13.088L86.4272 11.072H88.0712L86.0552 14.072L88.0112 17H86.3312L85.0712 15.044L83.8232 17ZM88.4042 14.444V13.148H92.2682V14.444H88.4042ZM95.2239 17H93.7599V11.072H95.1159L95.2359 11.84C95.6079 11.24 96.3279 10.892 97.1319 10.892C98.6199 10.892 99.3879 11.816 99.3879 13.352V17H97.9239V13.7C97.9239 12.704 97.4319 12.224 96.6759 12.224C95.7759 12.224 95.2239 12.848 95.2239 13.808V17ZM100.478 14.024C100.478 12.176 101.81 10.904 103.646 10.904C105.482 10.904 106.814 12.176 106.814 14.024C106.814 15.872 105.482 17.144 103.646 17.144C101.81 17.144 100.478 15.872 100.478 14.024ZM101.942 14.024C101.942 15.104 102.638 15.836 103.646 15.836C104.654 15.836 105.35 15.104 105.35 14.024C105.35 12.944 104.654 12.212 103.646 12.212C102.638 12.212 101.942 12.944 101.942 14.024ZM109.932 17H108.468V12.296H107.328V11.072H108.468V9.224H109.932V11.072H111.084V12.296H109.932V17ZM112.726 9.884C112.222 9.884 111.826 9.488 111.826 8.996C111.826 8.504 112.222 8.12 112.726 8.12C113.206 8.12 113.602 8.504 113.602 8.996C113.602 9.488 113.206 9.884 112.726 9.884ZM111.994 17V11.072H113.458V17H111.994ZM119.111 17V12.296H116.687V17H115.235V12.296H114.383V11.072H115.235V10.352C115.235 8.744 116.075 8.072 117.275 8.072C117.503 8.072 117.779 8.084 118.031 8.132V9.38H117.515C116.855 9.38 116.687 9.764 116.687 10.352V11.072H120.575V17H119.111ZM119.843 9.86C119.351 9.86 118.967 9.476 118.967 8.984C118.967 8.504 119.351 8.12 119.843 8.12C120.323 8.12 120.707 8.504 120.707 8.984C120.707 9.476 120.323 9.86 119.843 9.86ZM121.736 14.024C121.736 12.188 122.948 10.892 124.7 10.892C126.32 10.892 127.424 11.792 127.58 13.22H126.116C125.948 12.548 125.456 12.2 124.76 12.2C123.824 12.2 123.2 12.908 123.2 14.024C123.2 15.14 123.776 15.836 124.712 15.836C125.444 15.836 125.96 15.476 126.116 14.828H127.592C127.412 16.208 126.26 17.156 124.712 17.156C122.912 17.156 121.736 15.908 121.736 14.024ZM130.446 17.156C129.186 17.156 128.418 16.424 128.418 15.308C128.418 14.216 129.21 13.532 130.614 13.424L132.39 13.292V13.16C132.39 12.356 131.91 12.032 131.166 12.032C130.302 12.032 129.822 12.392 129.822 13.016H128.574C128.574 11.732 129.63 10.892 131.238 10.892C132.834 10.892 133.818 11.756 133.818 13.4V17H132.534L132.426 16.124C132.174 16.736 131.37 17.156 130.446 17.156ZM130.926 16.052C131.826 16.052 132.402 15.512 132.402 14.6V14.288L131.166 14.384C130.254 14.468 129.906 14.768 129.906 15.248C129.906 15.788 130.266 16.052 130.926 16.052ZM137.19 17H135.726V12.296H134.586V11.072H135.726V9.224H137.19V11.072H138.342V12.296H137.19V17ZM139.984 9.884C139.48 9.884 139.084 9.488 139.084 8.996C139.084 8.504 139.48 8.12 139.984 8.12C140.464 8.12 140.86 8.504 140.86 8.996C140.86 9.488 140.464 9.884 139.984 9.884ZM139.252 17V11.072H140.716V17H139.252ZM141.881 14.024C141.881 12.176 143.213 10.904 145.049 10.904C146.885 10.904 148.217 12.176 148.217 14.024C148.217 15.872 146.885 17.144 145.049 17.144C143.213 17.144 141.881 15.872 141.881 14.024ZM143.345 14.024C143.345 15.104 144.041 15.836 145.049 15.836C146.057 15.836 146.753 15.104 146.753 14.024C146.753 12.944 146.057 12.212 145.049 12.212C144.041 12.212 143.345 12.944 143.345 14.024ZM150.841 17H149.377V11.072H150.733L150.853 11.84C151.225 11.24 151.945 10.892 152.749 10.892C154.237 10.892 155.005 11.816 155.005 13.352V17H153.541V13.7C153.541 12.704 153.049 12.224 152.293 12.224C151.393 12.224 150.841 12.848 150.841 13.808V17Z" fill="black"/>
</svg>
