<svg width="113" height="24" viewBox="0 0 113 24" fill="none" xmlns="http://www.w3.org/2000/svg">
<path d="M21.8098 3.94009C20.4998 7.21009 17.5098 11.4801 14.6598 14.2701C14.2498 11.6901 12.1898 9.67009 9.58984 9.31009C12.3898 6.45009 16.6898 3.42009 19.9698 2.10009C20.5498 1.88009 21.1298 2.05009 21.4898 2.41009C21.8698 2.79009 22.0498 3.36009 21.8098 3.94009Z" fill="#1A1A1A"/>
<path d="M13.7801 15.09C13.5801 15.26 13.3801 15.43 13.1801 15.59L11.3901 17.02C11.3901 16.99 11.3801 16.95 11.3801 16.91C11.2401 15.84 10.7401 14.85 9.93012 14.04C9.11012 13.22 8.09012 12.72 6.97012 12.58C6.94012 12.58 6.90012 12.57 6.87012 12.57L8.32012 10.74C8.46012 10.56 8.61012 10.39 8.77012 10.21L9.45012 10.3C11.6001 10.6 13.3301 12.29 13.6701 14.43L13.7801 15.09Z" fill="#1A1A1A"/>
<path d="M10.4298 17.6201C10.4298 18.7201 10.0098 19.7701 9.20976 20.5601C8.59976 21.1801 7.77977 21.6001 6.77977 21.7201L4.32976 21.9901C2.98976 22.1401 1.83976 20.9901 1.98976 19.6401L2.25976 17.1801C2.49976 14.9901 4.32976 13.5901 6.26976 13.5501C6.45976 13.5401 6.66976 13.5501 6.86976 13.5701C7.71976 13.6801 8.53976 14.0701 9.22976 14.7501C9.89976 15.4201 10.2798 16.2101 10.3898 17.0401C10.4098 17.2401 10.4298 17.4301 10.4298 17.6201Z" fill="#1A1A1A"/>
<path d="M34.972 16V7.228H38.464C40.192 7.228 41.248 8.128 41.248 9.592C41.248 10.564 40.816 11.26 39.988 11.608C40.912 11.908 41.38 12.604 41.38 13.624C41.38 15.124 40.336 16 38.524 16H34.972ZM38.332 8.584H36.508V10.972H38.368C39.208 10.972 39.676 10.528 39.676 9.748C39.676 8.992 39.196 8.584 38.332 8.584ZM38.464 12.268H36.508V14.644H38.464C39.328 14.644 39.808 14.224 39.808 13.432C39.808 12.688 39.316 12.268 38.464 12.268ZM46.2924 10.048V11.404H45.7524C44.6964 11.404 44.0364 11.968 44.0364 13.12V16H42.5724V10.084H43.9524L44.0364 10.948C44.2884 10.36 44.8524 9.964 45.6444 9.964C45.8484 9.964 46.0524 9.988 46.2924 10.048ZM51.3033 10.072H52.7673V16H51.4113L51.3033 15.208C50.9433 15.772 50.1753 16.156 49.3833 16.156C48.0153 16.156 47.2113 15.232 47.2113 13.78V10.072H48.6753V13.264C48.6753 14.392 49.1193 14.848 49.9353 14.848C50.8593 14.848 51.3033 14.308 51.3033 13.18V10.072ZM53.7063 14.2H55.0983C55.1103 14.716 55.4943 15.04 56.1663 15.04C56.8503 15.04 57.2223 14.764 57.2223 14.332C57.2223 14.032 57.0663 13.816 56.5383 13.696L55.4703 13.444C54.4023 13.204 53.8863 12.7 53.8863 11.752C53.8863 10.588 54.8703 9.892 56.2383 9.892C57.5703 9.892 58.4703 10.66 58.4823 11.812H57.0903C57.0783 11.308 56.7423 10.984 56.1783 10.984C55.6023 10.984 55.2663 11.248 55.2663 11.692C55.2663 12.028 55.5303 12.244 56.0343 12.364L57.1023 12.616C58.0983 12.844 58.6023 13.3 58.6023 14.212C58.6023 15.412 57.5823 16.156 56.1183 16.156C54.6423 16.156 53.7063 15.364 53.7063 14.2ZM59.5526 13.444V12.148H63.4166V13.444H59.5526ZM70.0149 15.988L63.9309 16V14.848L66.7989 12.424C67.9869 11.416 68.3829 10.84 68.3829 10C68.3829 9.004 67.8429 8.44 66.9189 8.44C65.9589 8.44 65.3589 9.112 65.3469 10.24H63.8229C63.8349 8.32 65.0589 7.072 66.9189 7.072C68.7909 7.072 69.9549 8.14 69.9549 9.916C69.9549 11.14 69.2829 12.064 67.9509 13.204L66.3669 14.56H70.0149V15.988Z" fill="black"/>
</svg>
