<svg width="126" height="24" viewBox="0 0 126 24" fill="none" xmlns="http://www.w3.org/2000/svg">
<path d="M17.92 8.17993H11.69H6.07999C5.11999 8.17993 4.63999 9.33993 5.31999 10.0199L10.5 15.1999C11.33 16.0299 12.68 16.0299 13.51 15.1999L15.48 13.2299L18.69 10.0199C19.36 9.33993 18.88 8.17993 17.92 8.17993Z" fill="#1A1A1A"/>
<path d="M35.728 17H34.132L37.3 8.228H38.872L42.04 17H40.42L39.712 14.972H36.436L35.728 17ZM37.888 10.844L36.892 13.676H39.268L38.26 10.844C38.188 10.616 38.104 10.352 38.08 10.172C38.044 10.34 37.972 10.604 37.888 10.844ZM46.644 11.048V12.404H46.104C45.048 12.404 44.388 12.968 44.388 14.12V17H42.924V11.084H44.304L44.388 11.948C44.64 11.36 45.204 10.964 45.996 10.964C46.2 10.964 46.404 10.988 46.644 11.048ZM51.3549 11.048V12.404H50.8149C49.7589 12.404 49.0989 12.968 49.0989 14.12V17H47.6349V11.084H49.0149L49.0989 11.948C49.3509 11.36 49.9149 10.964 50.7069 10.964C50.9109 10.964 51.1149 10.988 51.3549 11.048ZM51.7986 14.024C51.7986 12.176 53.1306 10.904 54.9666 10.904C56.8026 10.904 58.1346 12.176 58.1346 14.024C58.1346 15.872 56.8026 17.144 54.9666 17.144C53.1306 17.144 51.7986 15.872 51.7986 14.024ZM53.2626 14.024C53.2626 15.104 53.9586 15.836 54.9666 15.836C55.9746 15.836 56.6706 15.104 56.6706 14.024C56.6706 12.944 55.9746 12.212 54.9666 12.212C53.9586 12.212 53.2626 12.944 53.2626 14.024ZM60.3101 17L58.3901 11.072H59.9141L60.6941 13.616C60.8261 14.084 60.9461 14.6 61.0541 15.152C61.1621 14.576 61.2701 14.204 61.4621 13.616L62.2781 11.072H63.7661L64.5581 13.616C64.6301 13.856 64.8701 14.744 64.9421 15.14C65.0381 14.696 65.2301 13.988 65.3381 13.616L66.1301 11.072H67.6781L65.6261 17H64.2581L63.4421 14.432C63.2021 13.652 63.0701 13.088 63.0221 12.788C62.9621 13.064 62.8541 13.484 62.5541 14.456L61.7381 17H60.3101ZM68.1424 14.444V13.148H72.0064V14.444H68.1424ZM75.9342 17.156C74.2182 17.156 73.1502 15.896 73.1502 14.06C73.1502 12.212 74.2302 10.892 76.0182 10.892C76.8462 10.892 77.5782 11.24 77.9502 11.828V8.072H79.4022V17H78.0582L77.9622 16.076C77.6022 16.76 76.8342 17.156 75.9342 17.156ZM76.2582 15.812C77.2782 15.812 77.9382 15.08 77.9382 14.012C77.9382 12.944 77.2782 12.2 76.2582 12.2C75.2382 12.2 74.6142 12.956 74.6142 14.012C74.6142 15.068 75.2382 15.812 76.2582 15.812ZM80.5799 14.024C80.5799 12.176 81.9119 10.904 83.7479 10.904C85.5839 10.904 86.9159 12.176 86.9159 14.024C86.9159 15.872 85.5839 17.144 83.7479 17.144C81.9119 17.144 80.5799 15.872 80.5799 14.024ZM82.0439 14.024C82.0439 15.104 82.7399 15.836 83.7479 15.836C84.7559 15.836 85.4519 15.104 85.4519 14.024C85.4519 12.944 84.7559 12.212 83.7479 12.212C82.7399 12.212 82.0439 12.944 82.0439 14.024ZM89.0913 17L87.1713 11.072H88.6953L89.4753 13.616C89.6073 14.084 89.7273 14.6 89.8353 15.152C89.9433 14.576 90.0513 14.204 90.2433 13.616L91.0593 11.072H92.5473L93.3393 13.616C93.4113 13.856 93.6513 14.744 93.7233 15.14C93.8193 14.696 94.0113 13.988 94.1193 13.616L94.9113 11.072H96.4593L94.4073 17H93.0393L92.2233 14.432C91.9833 13.652 91.8513 13.088 91.8033 12.788C91.7433 13.064 91.6353 13.484 91.3353 14.456L90.5193 17H89.0913ZM98.8098 17H97.3458V11.072H98.7018L98.8218 11.84C99.1938 11.24 99.9138 10.892 100.718 10.892C102.206 10.892 102.974 11.816 102.974 13.352V17H101.51V13.7C101.51 12.704 101.018 12.224 100.262 12.224C99.3618 12.224 98.8098 12.848 98.8098 13.808V17Z" fill="black"/>
</svg>
