<svg width="103" height="24" viewBox="0 0 103 24" fill="none" xmlns="http://www.w3.org/2000/svg">
<path d="M18 2H6C4.34 2 3 3.33 3 4.97V15.88C3 17.52 4.34 18.86 6 18.86H6.76C7.55 18.86 8.32 19.17 8.88 19.73L10.59 21.42C11.37 22.19 12.63 22.19 13.41 21.42L15.12 19.73C15.68 19.17 16.45 18.86 17.24 18.86H18C19.66 18.86 21 17.52 21 15.88V4.97C21 3.33 19.66 2 18 2ZM12 5.55C13.08 5.55 13.95 6.43 13.95 7.5C13.95 8.56 13.11 9.41 12.07 9.45C12.03 9.45 11.97 9.45 11.92 9.45C10.87 9.41 10.04 8.56 10.04 7.5C10.05 6.43 10.92 5.55 12 5.55ZM14.75 14.69C13.24 15.7 10.76 15.7 9.25 14.69C7.92 13.81 7.92 12.35 9.25 11.46C10.77 10.45 13.25 10.45 14.75 11.46C16.08 12.35 16.08 13.8 14.75 14.69Z" fill="#1A1A1A"/>
<path d="M34.204 8.644V7.228H40.876V8.644H38.308V16H36.772V8.644H34.204ZM42.5903 16.156C41.3303 16.156 40.5623 15.424 40.5623 14.308C40.5623 13.216 41.3543 12.532 42.7583 12.424L44.5343 12.292V12.16C44.5343 11.356 44.0543 11.032 43.3103 11.032C42.4463 11.032 41.9663 11.392 41.9663 12.016H40.7183C40.7183 10.732 41.7743 9.892 43.3823 9.892C44.9783 9.892 45.9623 10.756 45.9623 12.4V16H44.6783L44.5703 15.124C44.3183 15.736 43.5143 16.156 42.5903 16.156ZM43.0703 15.052C43.9703 15.052 44.5463 14.512 44.5463 13.6V13.288L43.3103 13.384C42.3983 13.468 42.0503 13.768 42.0503 14.248C42.0503 14.788 42.4103 15.052 43.0703 15.052ZM47.0645 12.904C47.0645 11.176 48.1925 9.88 49.8845 9.88C50.7725 9.88 51.4685 10.252 51.8165 10.888L51.9005 10.072H53.2565V15.7C53.2565 17.68 52.0685 18.916 50.1485 18.916C48.4445 18.916 47.2805 17.944 47.1005 16.36H48.5645C48.6605 17.128 49.2485 17.584 50.1485 17.584C51.1565 17.584 51.8045 16.948 51.8045 15.964V14.98C51.4325 15.532 50.7005 15.88 49.8485 15.88C48.1685 15.88 47.0645 14.62 47.0645 12.904ZM48.5405 12.868C48.5405 13.864 49.1765 14.608 50.1365 14.608C51.1445 14.608 51.7685 13.9 51.7685 12.868C51.7685 11.86 51.1565 11.164 50.1365 11.164C49.1645 11.164 48.5405 11.896 48.5405 12.868ZM54.7596 13.444V12.148H58.6236V13.444H54.7596ZM64.1354 10.072H65.5994V16H64.2434L64.1354 15.208C63.7754 15.772 63.0074 16.156 62.2154 16.156C60.8474 16.156 60.0434 15.232 60.0434 13.78V10.072H61.5074V13.264C61.5074 14.392 61.9514 14.848 62.7674 14.848C63.6914 14.848 64.1354 14.308 64.1354 13.18V10.072ZM66.5383 14.2H67.9303C67.9423 14.716 68.3263 15.04 68.9983 15.04C69.6823 15.04 70.0543 14.764 70.0543 14.332C70.0543 14.032 69.8983 13.816 69.3703 13.696L68.3023 13.444C67.2343 13.204 66.7183 12.7 66.7183 11.752C66.7183 10.588 67.7023 9.892 69.0703 9.892C70.4023 9.892 71.3023 10.66 71.3143 11.812H69.9223C69.9103 11.308 69.5743 10.984 69.0103 10.984C68.4343 10.984 68.0983 11.248 68.0983 11.692C68.0983 12.028 68.3623 12.244 68.8663 12.364L69.9343 12.616C70.9303 12.844 71.4343 13.3 71.4343 14.212C71.4343 15.412 70.4143 16.156 68.9503 16.156C67.4743 16.156 66.5383 15.364 66.5383 14.2ZM75.201 16.156C73.437 16.156 72.201 14.872 72.201 13.036C72.201 11.176 73.413 9.892 75.153 9.892C76.929 9.892 78.057 11.08 78.057 12.928V13.372L73.593 13.384C73.701 14.428 74.253 14.956 75.225 14.956C76.029 14.956 76.557 14.644 76.725 14.08H78.081C77.829 15.376 76.749 16.156 75.201 16.156ZM75.165 11.092C74.301 11.092 73.773 11.56 73.629 12.448H76.605C76.605 11.632 76.041 11.092 75.165 11.092ZM82.9487 10.048V11.404H82.4087C81.3527 11.404 80.6927 11.968 80.6927 13.12V16H79.2287V10.084H80.6087L80.6927 10.948C80.9447 10.36 81.5087 9.964 82.3007 9.964C82.5047 9.964 82.7087 9.988 82.9487 10.048Z" fill="black"/>
</svg>
