<svg width="101" height="24" viewBox="0 0 101 24" fill="none" xmlns="http://www.w3.org/2000/svg">
<path d="M16.19 2H7.81C4.17 2 2 4.17 2 7.81V16.18C2 19.83 4.17 22 7.81 22H16.18C19.82 22 21.99 19.83 21.99 16.19V7.81C22 4.17 19.83 2 16.19 2ZM16.88 14.33C16.88 14.42 16.86 14.51 16.83 14.6C16.76 14.77 16.62 14.91 16.45 14.98C16.36 15.02 16.27 15.03 16.18 15.03H14.32C13.93 15.03 13.62 14.72 13.62 14.33C13.62 13.94 13.93 13.63 14.32 13.63H14.5L12.39 11.52L11.37 13.04C11.25 13.21 11.07 13.33 10.86 13.35C10.65 13.37 10.45 13.3 10.3 13.15L7.32 10.17C7.05 9.9 7.05 9.46 7.32 9.18C7.59 8.9 8.03 8.91 8.31 9.18L10.69 11.56L11.71 10.04C11.83 9.87 12.01 9.75 12.22 9.73C12.44 9.71 12.63 9.78 12.78 9.93L15.5 12.65V12.47C15.5 12.08 15.81 11.77 16.2 11.77C16.59 11.77 16.9 12.08 16.9 12.47V14.33H16.88Z" fill="#1A1A1A"/>
<path d="M36.772 16H35.308V11.296H34.168V10.072H35.308V8.224H36.772V10.072H37.924V11.296H36.772V16ZM42.5541 10.048V11.404H42.0141C40.9581 11.404 40.2981 11.968 40.2981 13.12V16H38.8341V10.084H40.2141L40.2981 10.948C40.5501 10.36 41.1141 9.964 41.9061 9.964C42.1101 9.964 42.3141 9.988 42.5541 10.048ZM45.9978 16.156C44.2338 16.156 42.9978 14.872 42.9978 13.036C42.9978 11.176 44.2098 9.892 45.9498 9.892C47.7258 9.892 48.8538 11.08 48.8538 12.928V13.372L44.3898 13.384C44.4978 14.428 45.0498 14.956 46.0218 14.956C46.8258 14.956 47.3538 14.644 47.5218 14.08H48.8778C48.6258 15.376 47.5458 16.156 45.9978 16.156ZM45.9618 11.092C45.0978 11.092 44.5698 11.56 44.4258 12.448H47.4018C47.4018 11.632 46.8378 11.092 45.9618 11.092ZM51.4895 16H50.0255V10.072H51.3815L51.5015 10.84C51.8735 10.24 52.5935 9.892 53.3975 9.892C54.8855 9.892 55.6535 10.816 55.6535 12.352V16H54.1895V12.7C54.1895 11.704 53.6975 11.224 52.9415 11.224C52.0415 11.224 51.4895 11.848 51.4895 12.808V16ZM59.5279 16.156C57.8119 16.156 56.7439 14.896 56.7439 13.06C56.7439 11.212 57.8239 9.892 59.6119 9.892C60.4399 9.892 61.1719 10.24 61.5439 10.828V7.072H62.9959V16H61.6519L61.5559 15.076C61.1959 15.76 60.4279 16.156 59.5279 16.156ZM59.8519 14.812C60.8719 14.812 61.5319 14.08 61.5319 13.012C61.5319 11.944 60.8719 11.2 59.8519 11.2C58.8319 11.2 58.2079 11.956 58.2079 13.012C58.2079 14.068 58.8319 14.812 59.8519 14.812ZM64.5096 13.444V12.148H68.3736V13.444H64.5096ZM72.3014 16.156C70.5854 16.156 69.5174 14.896 69.5174 13.06C69.5174 11.212 70.5974 9.892 72.3854 9.892C73.2134 9.892 73.9454 10.24 74.3174 10.828V7.072H75.7694V16H74.4254L74.3294 15.076C73.9694 15.76 73.2014 16.156 72.3014 16.156ZM72.6254 14.812C73.6454 14.812 74.3054 14.08 74.3054 13.012C74.3054 11.944 73.6454 11.2 72.6254 11.2C71.6054 11.2 70.9814 11.956 70.9814 13.012C70.9814 14.068 71.6054 14.812 72.6254 14.812ZM76.9471 13.024C76.9471 11.176 78.2791 9.904 80.1151 9.904C81.9511 9.904 83.2831 11.176 83.2831 13.024C83.2831 14.872 81.9511 16.144 80.1151 16.144C78.2791 16.144 76.9471 14.872 76.9471 13.024ZM78.4111 13.024C78.4111 14.104 79.1071 14.836 80.1151 14.836C81.1231 14.836 81.8191 14.104 81.8191 13.024C81.8191 11.944 81.1231 11.212 80.1151 11.212C79.1071 11.212 78.4111 11.944 78.4111 13.024ZM85.4585 16L83.5385 10.072H85.0625L85.8425 12.616C85.9745 13.084 86.0945 13.6 86.2025 14.152C86.3105 13.576 86.4185 13.204 86.6105 12.616L87.4265 10.072H88.9145L89.7065 12.616C89.7785 12.856 90.0185 13.744 90.0905 14.14C90.1865 13.696 90.3785 12.988 90.4865 12.616L91.2785 10.072H92.8265L90.7745 16H89.4065L88.5905 13.432C88.3505 12.652 88.2185 12.088 88.1705 11.788C88.1105 12.064 88.0025 12.484 87.7025 13.456L86.8865 16H85.4585ZM95.177 16H93.713V10.072H95.069L95.189 10.84C95.561 10.24 96.281 9.892 97.085 9.892C98.573 9.892 99.341 10.816 99.341 12.352V16H97.877V12.7C97.877 11.704 97.385 11.224 96.629 11.224C95.729 11.224 95.177 11.848 95.177 12.808V16Z" fill="black"/>
</svg>
