<svg width="100" height="24" viewBox="0 0 100 24" fill="none" xmlns="http://www.w3.org/2000/svg">
<path d="M5 8C6.65685 8 8 6.65685 8 5C8 3.34315 6.65685 2 5 2C3.34315 2 2 3.34315 2 5C2 6.65685 3.34315 8 5 8Z" fill="#1A1A1A"/>
<path d="M19 15C20.6569 15 22 13.6569 22 12C22 10.3431 20.6569 9 19 9C17.3431 9 16 10.3431 16 12C16 13.6569 17.3431 15 19 15Z" fill="#1A1A1A"/>
<path d="M5 22C6.65685 22 8 20.6569 8 19C8 17.3431 6.65685 16 5 16C3.34315 16 2 17.3431 2 19C2 20.6569 3.34315 22 5 22Z" fill="#1A1A1A"/>
<path d="M5 16.75C4.59 16.75 4.25 16.41 4.25 16V8C4.25 7.59 4.59 7.25 5 7.25C5.41 7.25 5.75 7.59 5.75 8C5.75 10.19 6.81 11.25 9 11.25H16C16.41 11.25 16.75 11.59 16.75 12C16.75 12.41 16.41 12.75 16 12.75H9C7.64 12.75 6.55 12.4 5.75 11.74V16C5.75 16.41 5.41 16.75 5 16.75Z" fill="#1A1A1A"/>
<path d="M36.508 16H34.972V7.228H36.508V10.852H40.396V7.228H41.932V16H40.396V12.28H36.508V16ZM44.3943 8.884C43.8903 8.884 43.4943 8.488 43.4943 7.996C43.4943 7.504 43.8903 7.12 44.3943 7.12C44.8743 7.12 45.2703 7.504 45.2703 7.996C45.2703 8.488 44.8743 8.884 44.3943 8.884ZM43.6623 16V10.072H45.1263V16H43.6623ZM49.2908 16.156C47.5268 16.156 46.2908 14.872 46.2908 13.036C46.2908 11.176 47.5028 9.892 49.2428 9.892C51.0188 9.892 52.1468 11.08 52.1468 12.928V13.372L47.6828 13.384C47.7908 14.428 48.3428 14.956 49.3148 14.956C50.1188 14.956 50.6468 14.644 50.8148 14.08H52.1708C51.9188 15.376 50.8388 16.156 49.2908 16.156ZM49.2548 11.092C48.3908 11.092 47.8628 11.56 47.7188 12.448H50.6948C50.6948 11.632 50.1308 11.092 49.2548 11.092ZM57.0385 10.048V11.404H56.4985C55.4425 11.404 54.7825 11.968 54.7825 13.12V16H53.3185V10.084H54.6985L54.7825 10.948C55.0345 10.36 55.5985 9.964 56.3905 9.964C56.5945 9.964 56.7985 9.988 57.0385 10.048ZM59.5591 16.156C58.2991 16.156 57.5311 15.424 57.5311 14.308C57.5311 13.216 58.3231 12.532 59.7271 12.424L61.5031 12.292V12.16C61.5031 11.356 61.0231 11.032 60.2791 11.032C59.4151 11.032 58.9351 11.392 58.9351 12.016H57.6871C57.6871 10.732 58.7431 9.892 60.3511 9.892C61.9471 9.892 62.9311 10.756 62.9311 12.4V16H61.6471L61.5391 15.124C61.2871 15.736 60.4831 16.156 59.5591 16.156ZM60.0391 15.052C60.9391 15.052 61.5151 14.512 61.5151 13.6V13.288L60.2791 13.384C59.3671 13.468 59.0191 13.768 59.0191 14.248C59.0191 14.788 59.3791 15.052 60.0391 15.052ZM68.0893 10.048V11.404H67.5493C66.4933 11.404 65.8333 11.968 65.8333 13.12V16H64.3693V10.084H65.7493L65.8333 10.948C66.0853 10.36 66.6493 9.964 67.4413 9.964C67.6453 9.964 67.8493 9.988 68.0893 10.048ZM68.533 13.024C68.533 11.188 69.745 9.892 71.497 9.892C73.117 9.892 74.221 10.792 74.377 12.22H72.913C72.745 11.548 72.253 11.2 71.557 11.2C70.621 11.2 69.997 11.908 69.997 13.024C69.997 14.14 70.573 14.836 71.509 14.836C72.241 14.836 72.757 14.476 72.913 13.828H74.389C74.209 15.208 73.057 16.156 71.509 16.156C69.709 16.156 68.533 14.908 68.533 13.024ZM76.9427 16H75.4787V7.072H76.9547V10.84C77.3267 10.264 78.0227 9.892 78.8747 9.892C80.3387 9.892 81.1067 10.816 81.1067 12.352V16H79.6427V12.7C79.6427 11.704 79.1507 11.224 78.4067 11.224C77.4827 11.224 76.9427 11.872 76.9427 12.76V16ZM81.9119 18.748V17.524H82.7879C83.3639 17.524 83.7239 17.392 83.9759 16.696L84.1439 16.252L81.7559 10.072H83.3039L84.8279 14.392L86.4359 10.072H87.9479L85.0439 17.32C84.5999 18.424 83.9759 18.88 83.0039 18.88C82.5959 18.88 82.2359 18.832 81.9119 18.748ZM88.3573 13.444V12.148H92.2213V13.444H88.3573ZM96.1471 11.656H95.0791V10.66L97.3351 8.584H93.6871V7.228H99.2551V8.452L97.1191 10.42C98.4631 10.684 99.5071 11.668 99.5071 13.216C99.5071 15.016 98.1031 16.156 96.3271 16.156C94.6111 16.156 93.2791 15.1 93.2791 13.204H94.7911C94.7911 14.212 95.4151 14.788 96.3511 14.788C97.3111 14.788 97.9471 14.164 97.9471 13.192C97.9471 12.304 97.3711 11.656 96.1471 11.656Z" fill="black"/>
</svg>
