<svg width="101" height="24" viewBox="0 0 101 24" fill="none" xmlns="http://www.w3.org/2000/svg">
<path d="M15.08 11.3399H8.92C8.28 11.3399 7.65 11.0799 7.2 10.6199C7.06 10.4799 6.94 10.3299 6.84 10.1599C6.66 9.85992 6.34 9.66992 5.99 9.66992H3.5C2.95 9.66992 2.5 10.1199 2.5 10.6699V17.4999C2.5 19.9899 4.51 21.9999 7 21.9999H17C19.49 21.9999 21.5 19.9899 21.5 17.4999V10.6699C21.5 10.1199 21.05 9.66992 20.5 9.66992H18C17.64 9.66992 17.32 9.86992 17.14 10.1799C16.72 10.8699 15.95 11.3399 15.08 11.3399Z" fill="#1A1A1A"/>
<path d="M17 2H7C4.51 2 2.5 4.01 2.5 6.5V7.17C2.5 7.72 2.95 8.17 3.5 8.17H6C6.36 8.17 6.68 7.97 6.86 7.66C7.28 6.97 8.05 6.5 8.92 6.5H14.91C15.52 6.5 16.4 6.82 16.82 7.25C16.95 7.38 17.05 7.52 17.15 7.67C17.33 7.97 17.65 8.17 18.01 8.17H20.51C21.06 8.17 21.51 7.72 21.51 7.17V6.5C21.5 4.01 19.49 2 17 2Z" fill="#1A1A1A"/>
<path d="M35.728 16H34.132L37.3 7.228H38.872L42.04 16H40.42L39.712 13.972H36.436L35.728 16ZM37.888 9.844L36.892 12.676H39.268L38.26 9.844C38.188 9.616 38.104 9.352 38.08 9.172C38.044 9.34 37.972 9.604 37.888 9.844ZM43.656 8.884C43.152 8.884 42.756 8.488 42.756 7.996C42.756 7.504 43.152 7.12 43.656 7.12C44.136 7.12 44.532 7.504 44.532 7.996C44.532 8.488 44.136 8.884 43.656 8.884ZM42.924 16V10.072H44.388V16H42.924ZM49.6205 10.048V11.404H49.0805C48.0245 11.404 47.3645 11.968 47.3645 13.12V16H45.9005V10.084H47.2805L47.3645 10.948C47.6165 10.36 48.1805 9.964 48.9725 9.964C49.1765 9.964 49.3805 9.988 49.6205 10.048ZM50.6115 18.748V10.072H51.9675L52.0635 10.972C52.4235 10.288 53.2035 9.892 54.1035 9.892C55.7715 9.892 56.8755 11.104 56.8755 12.964C56.8755 14.812 55.8675 16.156 54.1035 16.156C53.2155 16.156 52.4475 15.808 52.0755 15.208V18.748H50.6115ZM52.0875 13.036C52.0875 14.104 52.7475 14.836 53.7555 14.836C54.7875 14.836 55.3995 14.092 55.3995 13.036C55.3995 11.98 54.7875 11.224 53.7555 11.224C52.7475 11.224 52.0875 11.968 52.0875 13.036ZM57.6932 13.024C57.6932 11.176 59.0252 9.904 60.8612 9.904C62.6972 9.904 64.0292 11.176 64.0292 13.024C64.0292 14.872 62.6972 16.144 60.8612 16.144C59.0252 16.144 57.6932 14.872 57.6932 13.024ZM59.1572 13.024C59.1572 14.104 59.8532 14.836 60.8612 14.836C61.8692 14.836 62.5652 14.104 62.5652 13.024C62.5652 11.944 61.8692 11.212 60.8612 11.212C59.8532 11.212 59.1572 11.944 59.1572 13.024ZM67.6256 16.156C65.9096 16.156 64.8416 14.896 64.8416 13.06C64.8416 11.212 65.9216 9.892 67.7096 9.892C68.5376 9.892 69.2696 10.24 69.6416 10.828V7.072H71.0936V16H69.7496L69.6536 15.076C69.2936 15.76 68.5256 16.156 67.6256 16.156ZM67.9496 14.812C68.9696 14.812 69.6296 14.08 69.6296 13.012C69.6296 11.944 68.9696 11.2 67.9496 11.2C66.9296 11.2 66.3056 11.956 66.3056 13.012C66.3056 14.068 66.9296 14.812 67.9496 14.812Z" fill="black"/>
</svg>
