<svg width="121" height="24" viewBox="0 0 121 24" fill="none" xmlns="http://www.w3.org/2000/svg">
<path d="M11.9402 2.20995L9.5302 7.81995H7.1202C6.7202 7.81995 6.3302 7.84995 5.9502 7.92995L6.9502 5.52995L6.9902 5.43995L7.0502 5.27995C7.0802 5.20995 7.1002 5.14995 7.1302 5.09995C8.2902 2.40995 9.5902 1.56995 11.9402 2.20995Z" fill="#1A1A1A"/>
<path d="M18.7301 8.09002L18.7101 8.08002C18.1101 7.91002 17.5001 7.82002 16.8801 7.82002H10.6201L12.8701 2.59002L12.9001 2.52002C13.0401 2.57002 13.1901 2.64002 13.3401 2.69002L15.5501 3.62002C16.7801 4.13002 17.6401 4.66002 18.1701 5.30002C18.2601 5.42002 18.3401 5.53002 18.4201 5.66002C18.5101 5.80002 18.5801 5.94002 18.6201 6.09002C18.6601 6.18002 18.6901 6.26002 18.7101 6.35002C18.8601 6.86002 18.8701 7.44002 18.7301 8.09002Z" fill="#1A1A1A"/>
<path d="M18.2902 9.51995C17.8402 9.38995 17.3702 9.31995 16.8802 9.31995H7.12023C6.44023 9.31995 5.80023 9.44995 5.20023 9.70995C3.46023 10.4599 2.24023 12.1899 2.24023 14.1999V16.1499C2.24023 16.3899 2.26023 16.6199 2.29023 16.8599C2.51023 20.0399 4.21023 21.7399 7.39023 21.9499C7.62023 21.9799 7.85023 21.9999 8.10023 21.9999H15.9002C19.6002 21.9999 21.5502 20.2399 21.7402 16.7399C21.7502 16.5499 21.7602 16.3499 21.7602 16.1499V14.1999C21.7602 11.9899 20.2902 10.1299 18.2902 9.51995ZM14.5002 16.1899H12.7502V17.9999C12.7502 18.4099 12.4102 18.7499 12.0002 18.7499C11.5902 18.7499 11.2502 18.4099 11.2502 17.9999V16.1899H9.50023C9.09023 16.1899 8.75023 15.8599 8.75023 15.4399C8.75023 15.0299 9.09023 14.6899 9.50023 14.6899H11.2502V12.9999C11.2502 12.5899 11.5902 12.2499 12.0002 12.2499C12.4102 12.2499 12.7502 12.5899 12.7502 12.9999V14.6899H14.5002C14.9102 14.6899 15.2502 15.0299 15.2502 15.4399C15.2502 15.8599 14.9102 16.1899 14.5002 16.1899Z" fill="#1A1A1A"/>
<path d="M36.796 17L34.18 8.228H35.776L37.168 12.86C37.3 13.34 37.432 13.832 37.564 14.6C37.708 13.82 37.84 13.364 37.996 12.86L39.376 8.228H41.068L42.424 12.86C42.568 13.352 42.7 13.856 42.844 14.6C43.012 13.784 43.132 13.316 43.264 12.872L44.68 8.228H46.24L43.576 17H42.088L40.216 10.616L38.308 17H36.796ZM48.0513 17.156C46.7913 17.156 46.0233 16.424 46.0233 15.308C46.0233 14.216 46.8153 13.532 48.2193 13.424L49.9953 13.292V13.16C49.9953 12.356 49.5153 12.032 48.7713 12.032C47.9073 12.032 47.4273 12.392 47.4273 13.016H46.1793C46.1793 11.732 47.2353 10.892 48.8433 10.892C50.4393 10.892 51.4233 11.756 51.4233 13.4V17H50.1393L50.0313 16.124C49.7793 16.736 48.9753 17.156 48.0513 17.156ZM48.5312 16.052C49.4313 16.052 50.0073 15.512 50.0073 14.6V14.288L48.7713 14.384C47.8593 14.468 47.5113 14.768 47.5113 15.248C47.5113 15.788 47.8713 16.052 48.5312 16.052ZM54.3375 17H52.8855V8.072H54.3375V17ZM57.3492 17H55.8972V8.072H57.3492V17ZM61.5369 17.156C59.7729 17.156 58.5369 15.872 58.5369 14.036C58.5369 12.176 59.7489 10.892 61.4889 10.892C63.2649 10.892 64.3929 12.08 64.3929 13.928V14.372L59.9289 14.384C60.0369 15.428 60.5889 15.956 61.5609 15.956C62.3649 15.956 62.8929 15.644 63.0609 15.08H64.4169C64.1649 16.376 63.0849 17.156 61.5369 17.156ZM61.5009 12.092C60.6369 12.092 60.1089 12.56 59.9649 13.448H62.9409C62.9409 12.632 62.3769 12.092 61.5009 12.092ZM67.522 17H66.058V12.296H64.918V11.072H66.058V9.224H67.522V11.072H68.674V12.296H67.522V17ZM69.3378 14.444V13.148H73.2018V14.444H69.3378ZM76.2583 17.156C74.9983 17.156 74.2303 16.424 74.2303 15.308C74.2303 14.216 75.0223 13.532 76.4263 13.424L78.2023 13.292V13.16C78.2023 12.356 77.7223 12.032 76.9783 12.032C76.1143 12.032 75.6343 12.392 75.6343 13.016H74.3863C74.3863 11.732 75.4423 10.892 77.0503 10.892C78.6463 10.892 79.6303 11.756 79.6303 13.4V17H78.3463L78.2383 16.124C77.9863 16.736 77.1823 17.156 76.2583 17.156ZM76.7383 16.052C77.6383 16.052 78.2143 15.512 78.2143 14.6V14.288L76.9783 14.384C76.0663 14.468 75.7183 14.768 75.7183 15.248C75.7183 15.788 76.0783 16.052 76.7383 16.052ZM83.5045 17.156C81.7885 17.156 80.7205 15.896 80.7205 14.06C80.7205 12.212 81.8005 10.892 83.5885 10.892C84.4165 10.892 85.1485 11.24 85.5205 11.828V8.072H86.9725V17H85.6285L85.5325 16.076C85.1725 16.76 84.4045 17.156 83.5045 17.156ZM83.8285 15.812C84.8485 15.812 85.5085 15.08 85.5085 14.012C85.5085 12.944 84.8485 12.2 83.8285 12.2C82.8085 12.2 82.1845 12.956 82.1845 14.012C82.1845 15.068 82.8085 15.812 83.8285 15.812ZM90.9342 17.156C89.2182 17.156 88.1502 15.896 88.1502 14.06C88.1502 12.212 89.2302 10.892 91.0182 10.892C91.8462 10.892 92.5782 11.24 92.9502 11.828V8.072H94.4022V17H93.0582L92.9622 16.076C92.6022 16.76 91.8342 17.156 90.9342 17.156ZM91.2582 15.812C92.2782 15.812 92.9382 15.08 92.9382 14.012C92.9382 12.944 92.2782 12.2 91.2582 12.2C90.2382 12.2 89.6142 12.956 89.6142 14.012C89.6142 15.068 90.2382 15.812 91.2582 15.812ZM95.9159 14.444V13.148H99.7799V14.444H95.9159ZM106.378 16.988L100.294 17V15.848L103.162 13.424C104.35 12.416 104.746 11.84 104.746 11C104.746 10.004 104.206 9.44 103.282 9.44C102.322 9.44 101.722 10.112 101.71 11.24H100.186C100.198 9.32 101.422 8.072 103.282 8.072C105.154 8.072 106.318 9.14 106.318 10.916C106.318 12.14 105.646 13.064 104.314 14.204L102.73 15.56H106.378V16.988Z" fill="black"/>
</svg>
