<svg width="109" height="24" viewBox="0 0 109 24" fill="none" xmlns="http://www.w3.org/2000/svg">
<path d="M19.97 1.75H17.03C15.76 1.75 15 2.51 15 3.78V6.72C15 7.99 15.76 8.75 17.03 8.75H19.97C21.24 8.75 22 7.99 22 6.72V3.78C22 2.51 21.24 1.75 19.97 1.75ZM20.19 5.06C20.07 5.18 19.91 5.24 19.75 5.24C19.59 5.24 19.43 5.18 19.31 5.06L19.13 4.88V7.12C19.13 7.47 18.85 7.75 18.5 7.75C18.15 7.75 17.87 7.47 17.87 7.12V4.88L17.69 5.06C17.45 5.3 17.05 5.3 16.81 5.06C16.57 4.82 16.57 4.42 16.81 4.18L18.06 2.93C18.11 2.88 18.18 2.84 18.25 2.81C18.27 2.8 18.29 2.8 18.31 2.79C18.36 2.77 18.41 2.76 18.47 2.76C18.49 2.76 18.51 2.76 18.53 2.76C18.6 2.76 18.66 2.77 18.73 2.8C18.74 2.8 18.74 2.8 18.75 2.8C18.82 2.83 18.88 2.87 18.93 2.92C18.94 2.93 18.94 2.93 18.95 2.93L20.2 4.18C20.44 4.42 20.44 4.82 20.19 5.06Z" fill="#1A1A1A"/>
<path d="M2 11.46V16.46C2 18.75 3.85 20.6 6.14 20.6H17.85C20.14 20.6 22 18.74 22 16.45V11.46C22 10.79 21.46 10.25 20.79 10.25H3.21C2.54 10.25 2 10.79 2 11.46ZM8 17.25H6C5.59 17.25 5.25 16.91 5.25 16.5C5.25 16.09 5.59 15.75 6 15.75H8C8.41 15.75 8.75 16.09 8.75 16.5C8.75 16.91 8.41 17.25 8 17.25ZM14.5 17.25H10.5C10.09 17.25 9.75 16.91 9.75 16.5C9.75 16.09 10.09 15.75 10.5 15.75H14.5C14.91 15.75 15.25 16.09 15.25 16.5C15.25 16.91 14.91 17.25 14.5 17.25Z" fill="#1A1A1A"/>
<path d="M13.5 4.61002V7.54002C13.5 8.21002 12.96 8.75002 12.29 8.75002H3.21C2.53 8.75002 2 8.19002 2 7.52002C2.01 6.39002 2.46 5.36002 3.21 4.61002C3.96 3.86002 5 3.40002 6.14 3.40002H12.29C12.96 3.40002 13.5 3.94002 13.5 4.61002Z" fill="#1A1A1A"/>
<path d="M34.408 13.024C34.408 11.188 35.62 9.892 37.372 9.892C38.992 9.892 40.096 10.792 40.252 12.22H38.788C38.62 11.548 38.128 11.2 37.432 11.2C36.496 11.2 35.872 11.908 35.872 13.024C35.872 14.14 36.448 14.836 37.384 14.836C38.116 14.836 38.632 14.476 38.788 13.828H40.264C40.084 15.208 38.932 16.156 37.384 16.156C35.584 16.156 34.408 14.908 34.408 13.024ZM43.1177 16.156C41.8577 16.156 41.0897 15.424 41.0897 14.308C41.0897 13.216 41.8817 12.532 43.2857 12.424L45.0617 12.292V12.16C45.0617 11.356 44.5817 11.032 43.8377 11.032C42.9737 11.032 42.4937 11.392 42.4937 12.016H41.2457C41.2457 10.732 42.3017 9.892 43.9097 9.892C45.5057 9.892 46.4897 10.756 46.4897 12.4V16H45.2057L45.0977 15.124C44.8457 15.736 44.0417 16.156 43.1177 16.156ZM43.5977 15.052C44.4977 15.052 45.0737 14.512 45.0737 13.6V13.288L43.8377 13.384C42.9257 13.468 42.5777 13.768 42.5777 14.248C42.5777 14.788 42.9377 15.052 43.5977 15.052ZM51.6479 10.048V11.404H51.1079C50.0519 11.404 49.3919 11.968 49.3919 13.12V16H47.9279V10.084H49.3079L49.3919 10.948C49.6439 10.36 50.2079 9.964 50.9999 9.964C51.2039 9.964 51.4079 9.988 51.6479 10.048ZM54.8756 16.156C53.1596 16.156 52.0916 14.896 52.0916 13.06C52.0916 11.212 53.1716 9.892 54.9596 9.892C55.7876 9.892 56.5196 10.24 56.8916 10.828V7.072H58.3436V16H56.9996L56.9036 15.076C56.5436 15.76 55.7756 16.156 54.8756 16.156ZM55.1996 14.812C56.2196 14.812 56.8796 14.08 56.8796 13.012C56.8796 11.944 56.2196 11.2 55.1996 11.2C54.1796 11.2 53.5556 11.956 53.5556 13.012C53.5556 14.068 54.1796 14.812 55.1996 14.812ZM59.8573 13.444V12.148H63.7213V13.444H59.8573ZM64.675 14.2H66.067C66.079 14.716 66.463 15.04 67.135 15.04C67.819 15.04 68.191 14.764 68.191 14.332C68.191 14.032 68.035 13.816 67.507 13.696L66.439 13.444C65.371 13.204 64.855 12.7 64.855 11.752C64.855 10.588 65.839 9.892 67.207 9.892C68.539 9.892 69.439 10.66 69.451 11.812H68.059C68.047 11.308 67.711 10.984 67.147 10.984C66.571 10.984 66.235 11.248 66.235 11.692C66.235 12.028 66.499 12.244 67.003 12.364L68.071 12.616C69.067 12.844 69.571 13.3 69.571 14.212C69.571 15.412 68.551 16.156 67.087 16.156C65.611 16.156 64.675 15.364 64.675 14.2ZM73.3377 16.156C71.5737 16.156 70.3377 14.872 70.3377 13.036C70.3377 11.176 71.5497 9.892 73.2897 9.892C75.0657 9.892 76.1937 11.08 76.1937 12.928V13.372L71.7297 13.384C71.8377 14.428 72.3897 14.956 73.3617 14.956C74.1657 14.956 74.6937 14.644 74.8617 14.08H76.2177C75.9657 15.376 74.8857 16.156 73.3377 16.156ZM73.3017 11.092C72.4377 11.092 71.9097 11.56 71.7657 12.448H74.7417C74.7417 11.632 74.1777 11.092 73.3017 11.092ZM78.8294 16H77.3654V10.072H78.7214L78.8414 10.84C79.2134 10.24 79.9334 9.892 80.7374 9.892C82.2254 9.892 82.9934 10.816 82.9934 12.352V16H81.5294V12.7C81.5294 11.704 81.0374 11.224 80.2814 11.224C79.3814 11.224 78.8294 11.848 78.8294 12.808V16ZM86.8678 16.156C85.1518 16.156 84.0838 14.896 84.0838 13.06C84.0838 11.212 85.1638 9.892 86.9518 9.892C87.7798 9.892 88.5118 10.24 88.8838 10.828V7.072H90.3358V16H88.9918L88.8958 15.076C88.5358 15.76 87.7678 16.156 86.8678 16.156ZM87.1918 14.812C88.2118 14.812 88.8718 14.08 88.8718 13.012C88.8718 11.944 88.2118 11.2 87.1918 11.2C86.1718 11.2 85.5478 11.956 85.5478 13.012C85.5478 14.068 86.1718 14.812 87.1918 14.812Z" fill="black"/>
</svg>
