<svg width="2166" height="28" viewBox="0 0 2166 28" fill="none" xmlns="http://www.w3.org/2000/svg">
<path d="M2.74395 0.363909V20.6079H-5.06043e-05V0.363909H2.74395ZM6.12079 13.7759C6.12079 9.49191 8.83679 6.52391 12.8408 6.52391C16.2848 6.52391 18.6928 8.48391 19.1688 11.5359H16.5368C16.0888 9.79991 14.6888 8.87591 12.9248 8.87591C10.4328 8.87591 8.72479 10.7799 8.72479 13.7479C8.72479 16.6879 10.3208 18.5919 12.8128 18.5919C14.6888 18.5919 16.0888 17.6119 16.5648 15.9879H19.1968C18.6648 18.9559 16.1168 20.9439 12.8128 20.9439C8.78079 20.9439 6.12079 18.0879 6.12079 13.7759ZM21.0778 13.7479C21.0778 9.51991 24.1018 6.55191 28.2178 6.55191C32.3058 6.55191 35.3298 9.51991 35.3298 13.7479C35.3298 17.9759 32.3058 20.9439 28.2178 20.9439C24.1018 20.9439 21.0778 17.9759 21.0778 13.7479ZM23.7378 13.7479C23.7378 16.6039 25.5578 18.5919 28.2178 18.5919C30.8498 18.5919 32.6978 16.6039 32.6978 13.7479C32.6978 10.8919 30.8498 8.90391 28.2178 8.90391C25.5578 8.90391 23.7378 10.8919 23.7378 13.7479ZM40.8754 20.6079H38.2434V6.91591H40.6234L40.9034 9.01591C41.7714 7.44791 43.5074 6.52391 45.4394 6.52391C49.0514 6.52391 50.7034 8.73591 50.7034 12.2359V20.6079H48.0714V12.8239C48.0714 10.0519 46.7834 8.93191 44.7674 8.93191C42.3034 8.93191 40.8754 10.6959 40.8754 13.3559V20.6079ZM53.0648 16.6319H55.5848C55.5848 18.0319 56.6488 18.8719 58.3848 18.8719C60.2328 18.8719 61.2968 18.1159 61.2968 16.8559C61.2968 15.9319 60.8488 15.3719 59.4208 15.0079L57.0128 14.4479C54.5768 13.8599 53.4288 12.6559 53.4288 10.6399C53.4288 8.11991 55.5568 6.52391 58.5808 6.52391C61.5768 6.52391 63.5368 8.20391 63.5928 10.8079H61.0728C61.0168 9.43591 60.0928 8.56791 58.4968 8.56791C56.8448 8.56791 55.9208 9.29591 55.9208 10.5559C55.9208 11.4799 56.5928 12.0959 57.9368 12.4319L60.3448 13.0199C62.6688 13.5799 63.8168 14.6439 63.8168 16.6879C63.8168 19.2919 61.5768 20.9439 58.3288 20.9439C55.1088 20.9439 53.0648 19.2359 53.0648 16.6319ZM72.9358 6.91591H74.9518V4.73191C74.9518 1.37191 76.7998 -9.15527e-05 79.2918 -9.15527e-05C79.7958 -9.15527e-05 80.3838 0.0279098 80.9158 0.111909V2.37991H79.7398C78.0318 2.37991 77.5838 3.24791 77.5838 4.73191V6.91591H80.8318V9.12791H77.5838V20.6079H74.9518V9.12791H72.9358V6.91591ZM81.9724 13.7479C81.9724 9.51991 84.9964 6.55191 89.1124 6.55191C93.2004 6.55191 96.2244 9.51991 96.2244 13.7479C96.2244 17.9759 93.2004 20.9439 89.1124 20.9439C84.9964 20.9439 81.9724 17.9759 81.9724 13.7479ZM84.6324 13.7479C84.6324 16.6039 86.4524 18.5919 89.1124 18.5919C91.7444 18.5919 93.5924 16.6039 93.5924 13.7479C93.5924 10.8919 91.7444 8.90391 89.1124 8.90391C86.4524 8.90391 84.6324 10.8919 84.6324 13.7479ZM106.978 6.80391V9.21191H105.802C103.31 9.21191 101.77 10.7239 101.77 13.3559V20.6079H99.1379V6.94391H101.602L101.77 9.01591C102.33 7.58791 103.702 6.63591 105.578 6.63591C106.054 6.63591 106.446 6.69191 106.978 6.80391ZM116.207 13.7759C116.207 9.49191 118.923 6.52391 122.927 6.52391C126.371 6.52391 128.779 8.48391 129.255 11.5359H126.623C126.175 9.79991 124.775 8.87591 123.011 8.87591C120.519 8.87591 118.811 10.7799 118.811 13.7479C118.811 16.6879 120.407 18.5919 122.899 18.5919C124.775 18.5919 126.175 17.6119 126.651 15.9879H129.283C128.751 18.9559 126.203 20.9439 122.899 20.9439C118.867 20.9439 116.207 18.0879 116.207 13.7759ZM139.9 6.80391V9.21191H138.724C136.232 9.21191 134.692 10.7239 134.692 13.3559V20.6079H132.06V6.94391H134.524L134.692 9.01591C135.252 7.58791 136.624 6.63591 138.5 6.63591C138.976 6.63591 139.368 6.69191 139.9 6.80391ZM147.784 20.9439C143.752 20.9439 140.98 18.0319 140.98 13.7759C140.98 9.49191 143.696 6.52391 147.672 6.52391C151.564 6.52391 154.112 9.21191 154.112 13.2719V14.2519L143.528 14.2799C143.724 17.1639 145.236 18.7599 147.84 18.7599C149.884 18.7599 151.228 17.9199 151.676 16.3519H154.14C153.468 19.2919 151.172 20.9439 147.784 20.9439ZM147.672 8.73591C145.376 8.73591 143.92 10.1079 143.584 12.5159H151.48C151.48 10.2479 149.996 8.73591 147.672 8.73591ZM160.919 20.9439C157.979 20.9439 156.243 19.2919 156.243 16.7999C156.243 14.2799 158.119 12.7119 161.339 12.4599L165.651 12.1239V11.7319C165.651 9.43591 164.279 8.62391 162.431 8.62391C160.219 8.62391 158.959 9.60391 158.959 11.2559H156.663C156.663 8.39991 159.015 6.52391 162.543 6.52391C165.931 6.52391 168.227 8.31591 168.227 12.0119V20.6079H165.987L165.707 18.3959C165.007 19.9639 163.131 20.9439 160.919 20.9439ZM161.675 18.8999C164.167 18.8999 165.679 17.2759 165.679 14.6999V13.9719L162.179 14.2519C159.855 14.4759 158.903 15.3719 158.903 16.7159C158.903 18.1719 159.967 18.8999 161.675 18.8999ZM175.518 20.6079H172.886V9.12791H170.198V6.91591H172.886V2.63191H175.518V6.91591H178.206V9.12791H175.518V20.6079ZM181.856 3.66791C180.904 3.66791 180.12 2.88391 180.12 1.93191C180.12 0.95191 180.904 0.195909 181.856 0.195909C182.808 0.195909 183.592 0.95191 183.592 1.93191C183.592 2.88391 182.808 3.66791 181.856 3.66791ZM180.568 20.6079V6.91591H183.2V20.6079H180.568ZM189.653 20.6079H187.021V6.91591H189.401L189.681 9.01591C190.549 7.44791 192.285 6.52391 194.217 6.52391C197.829 6.52391 199.481 8.73591 199.481 12.2359V20.6079H196.849V12.8239C196.849 10.0519 195.561 8.93191 193.545 8.93191C191.081 8.93191 189.653 10.6959 189.653 13.3559V20.6079ZM202.258 13.4119C202.258 9.54791 204.75 6.52391 208.726 6.52391C210.938 6.52391 212.646 7.53191 213.514 9.23991L213.71 6.91591H216.062V20.0479C216.062 24.3599 213.402 27.1039 209.202 27.1039C205.478 27.1039 202.93 25.0039 202.426 21.5319H205.058C205.394 23.5479 206.906 24.7239 209.202 24.7239C211.778 24.7239 213.458 23.0439 213.458 20.4399V17.6959C212.562 19.2919 210.77 20.2439 208.614 20.2439C204.722 20.2439 202.258 17.2479 202.258 13.4119ZM204.89 13.3559C204.89 15.9319 206.486 17.9479 209.062 17.9479C211.722 17.9479 213.346 16.0439 213.346 13.3559C213.346 10.7239 211.778 8.81991 209.09 8.81991C206.458 8.81991 204.89 10.8359 204.89 13.3559ZM223.809 19.5159C223.809 21.5319 222.297 23.2119 220.309 23.4639V22.2879C221.457 22.0919 222.269 21.3359 222.269 20.4679C222.073 20.5799 221.849 20.6359 221.513 20.6359C220.589 20.6359 219.805 19.9639 219.805 18.9279C219.805 17.8079 220.561 16.9959 221.681 16.9959C222.857 16.9959 223.809 17.9759 223.809 19.5159ZM241.163 20.9439C237.131 20.9439 234.359 18.0319 234.359 13.7759C234.359 9.49191 237.075 6.52391 241.051 6.52391C244.943 6.52391 247.491 9.21191 247.491 13.2719V14.2519L236.907 14.2799C237.103 17.1639 238.615 18.7599 241.219 18.7599C243.263 18.7599 244.607 17.9199 245.055 16.3519H247.519C246.847 19.2919 244.551 20.9439 241.163 20.9439ZM241.051 8.73591C238.755 8.73591 237.299 10.1079 236.963 12.5159H244.859C244.859 10.2479 243.375 8.73591 241.051 8.73591ZM255.919 20.9439C251.943 20.9439 249.535 17.9759 249.535 13.8039C249.535 9.60391 251.971 6.52391 256.031 6.52391C258.131 6.52391 259.895 7.44791 260.819 9.12791V-9.15527e-05H263.423V20.6079H261.071L260.847 18.1159C259.951 19.9919 258.103 20.9439 255.919 20.9439ZM256.451 18.5639C259.139 18.5639 260.791 16.5759 260.791 13.7199C260.791 10.9199 259.139 8.90391 256.451 8.90391C253.763 8.90391 252.195 10.9199 252.195 13.7199C252.195 16.5479 253.763 18.5639 256.451 18.5639ZM268.508 3.66791C267.556 3.66791 266.772 2.88391 266.772 1.93191C266.772 0.95191 267.556 0.195909 268.508 0.195909C269.46 0.195909 270.244 0.95191 270.244 1.93191C270.244 2.88391 269.46 3.66791 268.508 3.66791ZM267.22 20.6079V6.91591H269.852V20.6079H267.22ZM277.537 20.6079H274.905V9.12791H272.217V6.91591H274.905V2.63191H277.537V6.91591H280.225V9.12791H277.537V20.6079ZM283.875 3.66791C282.923 3.66791 282.139 2.88391 282.139 1.93191C282.139 0.95191 282.923 0.195909 283.875 0.195909C284.827 0.195909 285.611 0.95191 285.611 1.93191C285.611 2.88391 284.827 3.66791 283.875 3.66791ZM282.587 20.6079V6.91591H285.219V20.6079H282.587ZM291.672 20.6079H289.04V6.91591H291.42L291.7 9.01591C292.568 7.44791 294.304 6.52391 296.236 6.52391C299.848 6.52391 301.5 8.73591 301.5 12.2359V20.6079H298.868V12.8239C298.868 10.0519 297.58 8.93191 295.564 8.93191C293.1 8.93191 291.672 10.6959 291.672 13.3559V20.6079ZM304.278 13.4119C304.278 9.54791 306.77 6.52391 310.746 6.52391C312.958 6.52391 314.666 7.53191 315.534 9.23991L315.73 6.91591H318.082V20.0479C318.082 24.3599 315.422 27.1039 311.222 27.1039C307.498 27.1039 304.95 25.0039 304.446 21.5319H307.078C307.414 23.5479 308.926 24.7239 311.222 24.7239C313.798 24.7239 315.478 23.0439 315.478 20.4399V17.6959C314.582 19.2919 312.79 20.2439 310.634 20.2439C306.742 20.2439 304.278 17.2479 304.278 13.4119ZM306.91 13.3559C306.91 15.9319 308.506 17.9479 311.082 17.9479C313.742 17.9479 315.366 16.0439 315.366 13.3559C315.366 10.7239 313.798 8.81991 311.11 8.81991C308.478 8.81991 306.91 10.8359 306.91 13.3559ZM325.828 19.5159C325.828 21.5319 324.316 23.2119 322.328 23.4639V22.2879C323.476 22.0919 324.288 21.3359 324.288 20.4679C324.092 20.5799 323.868 20.6359 323.532 20.6359C322.608 20.6359 321.824 19.9639 321.824 18.9279C321.824 17.8079 322.58 16.9959 323.7 16.9959C324.876 16.9959 325.828 17.9759 325.828 19.5159ZM339.907 20.6079H337.275V6.91591H339.627L339.879 8.70791C340.579 7.41991 342.035 6.52391 343.967 6.52391C346.095 6.52391 347.607 7.58791 348.307 9.29591C348.951 7.58791 350.603 6.52391 352.731 6.52391C355.867 6.52391 357.771 8.48391 357.771 11.6479V20.6079H355.195V12.2919C355.195 10.1359 353.991 8.90391 352.143 8.90391C350.155 8.90391 348.839 10.3039 348.839 12.4879V20.6079H346.235V12.2639C346.235 10.1079 345.059 8.93191 343.211 8.93191C341.223 8.93191 339.907 10.3039 339.907 12.4879V20.6079ZM360.523 13.7479C360.523 9.51991 363.547 6.55191 367.663 6.55191C371.751 6.55191 374.775 9.51991 374.775 13.7479C374.775 17.9759 371.751 20.9439 367.663 20.9439C363.547 20.9439 360.523 17.9759 360.523 13.7479ZM363.183 13.7479C363.183 16.6039 365.003 18.5919 367.663 18.5919C370.295 18.5919 372.143 16.6039 372.143 13.7479C372.143 10.8919 370.295 8.90391 367.663 8.90391C365.003 8.90391 363.183 10.8919 363.183 13.7479ZM383.177 20.9439C379.201 20.9439 376.793 17.9759 376.793 13.8039C376.793 9.60391 379.229 6.52391 383.289 6.52391C385.389 6.52391 387.153 7.44791 388.077 9.12791V-9.15527e-05H390.681V20.6079H388.329L388.105 18.1159C387.209 19.9919 385.361 20.9439 383.177 20.9439ZM383.709 18.5639C386.397 18.5639 388.049 16.5759 388.049 13.7199C388.049 10.9199 386.397 8.90391 383.709 8.90391C381.021 8.90391 379.453 10.9199 379.453 13.7199C379.453 16.5479 381.021 18.5639 383.709 18.5639ZM395.766 3.66791C394.814 3.66791 394.03 2.88391 394.03 1.93191C394.03 0.95191 394.814 0.195909 395.766 0.195909C396.718 0.195909 397.502 0.95191 397.502 1.93191C397.502 2.88391 396.718 3.66791 395.766 3.66791ZM394.478 20.6079V6.91591H397.11V20.6079H394.478ZM399.475 6.91591H401.491V4.73191C401.491 1.37191 403.339 -9.15527e-05 405.831 -9.15527e-05C406.335 -9.15527e-05 406.923 0.0279098 407.455 0.111909V2.37991H406.279C404.571 2.37991 404.123 3.24791 404.123 4.73191V6.91591H407.371V9.12791H404.123V20.6079H401.491V9.12791H399.475V6.91591ZM408.502 26.7399V24.5839H410.266C411.526 24.5839 412.534 24.3879 413.178 22.6519L413.654 21.3359L408.138 6.91591H410.91L414.886 17.9479L418.946 6.91591H421.662L415.194 23.6879C414.27 26.0399 412.898 27.0199 410.798 27.0199C409.93 27.0199 409.202 26.9079 408.502 26.7399ZM425.051 3.66791C424.099 3.66791 423.315 2.88391 423.315 1.93191C423.315 0.95191 424.099 0.195909 425.051 0.195909C426.003 0.195909 426.787 0.95191 426.787 1.93191C426.787 2.88391 426.003 3.66791 425.051 3.66791ZM423.763 20.6079V6.91591H426.395V20.6079H423.763ZM432.848 20.6079H430.216V6.91591H432.596L432.876 9.01591C433.744 7.44791 435.48 6.52391 437.412 6.52391C441.024 6.52391 442.676 8.73591 442.676 12.2359V20.6079H440.044V12.8239C440.044 10.0519 438.756 8.93191 436.74 8.93191C434.276 8.93191 432.848 10.6959 432.848 13.3559V20.6079ZM445.453 13.4119C445.453 9.54791 447.945 6.52391 451.921 6.52391C454.133 6.52391 455.841 7.53191 456.709 9.23991L456.905 6.91591H459.257V20.0479C459.257 24.3599 456.597 27.1039 452.397 27.1039C448.673 27.1039 446.125 25.0039 445.621 21.5319H448.253C448.589 23.5479 450.101 24.7239 452.397 24.7239C454.973 24.7239 456.653 23.0439 456.653 20.4399V17.6959C455.757 19.2919 453.965 20.2439 451.809 20.2439C447.917 20.2439 445.453 17.2479 445.453 13.4119ZM448.085 13.3559C448.085 15.9319 449.681 17.9479 452.257 17.9479C454.917 17.9479 456.541 16.0439 456.541 13.3559C456.541 10.7239 454.973 8.81991 452.285 8.81991C449.653 8.81991 448.085 10.8359 448.085 13.3559ZM467.004 19.5159C467.004 21.5319 465.492 23.2119 463.504 23.4639V22.2879C464.652 22.0919 465.464 21.3359 465.464 20.4679C465.268 20.5799 465.044 20.6359 464.708 20.6359C463.784 20.6359 463 19.9639 463 18.9279C463 17.8079 463.756 16.9959 464.876 16.9959C466.052 16.9959 467.004 17.9759 467.004 19.5159ZM477.33 16.6319H479.85C479.85 18.0319 480.914 18.8719 482.65 18.8719C484.498 18.8719 485.562 18.1159 485.562 16.8559C485.562 15.9319 485.114 15.3719 483.686 15.0079L481.278 14.4479C478.842 13.8599 477.694 12.6559 477.694 10.6399C477.694 8.11991 479.822 6.52391 482.846 6.52391C485.842 6.52391 487.802 8.20391 487.858 10.8079H485.338C485.282 9.43591 484.358 8.56791 482.762 8.56791C481.11 8.56791 480.186 9.29591 480.186 10.5559C480.186 11.4799 480.858 12.0959 482.202 12.4319L484.61 13.0199C486.934 13.5799 488.082 14.6439 488.082 16.6879C488.082 19.2919 485.842 20.9439 482.594 20.9439C479.374 20.9439 477.33 19.2359 477.33 16.6319ZM495.005 20.9439C492.065 20.9439 490.329 19.2919 490.329 16.7999C490.329 14.2799 492.205 12.7119 495.425 12.4599L499.737 12.1239V11.7319C499.737 9.43591 498.365 8.62391 496.517 8.62391C494.305 8.62391 493.045 9.60391 493.045 11.2559H490.749C490.749 8.39991 493.101 6.52391 496.629 6.52391C500.017 6.52391 502.313 8.31591 502.313 12.0119V20.6079H500.073L499.793 18.3959C499.093 19.9639 497.217 20.9439 495.005 20.9439ZM495.761 18.8999C498.253 18.8999 499.765 17.2759 499.765 14.6999V13.9719L496.265 14.2519C493.941 14.4759 492.989 15.3719 492.989 16.7159C492.989 18.1719 494.053 18.8999 495.761 18.8999ZM509.247 20.6079L503.731 6.91591H506.531L509.527 14.5599C510.003 15.8479 510.395 16.9959 510.619 17.8359C510.843 16.9399 511.291 15.7639 511.767 14.5599L514.819 6.91591H517.563L511.851 20.6079H509.247ZM520.945 3.66791C519.993 3.66791 519.209 2.88391 519.209 1.93191C519.209 0.95191 519.993 0.195909 520.945 0.195909C521.897 0.195909 522.681 0.95191 522.681 1.93191C522.681 2.88391 521.897 3.66791 520.945 3.66791ZM519.657 20.6079V6.91591H522.289V20.6079H519.657ZM528.743 20.6079H526.111V6.91591H528.491L528.771 9.01591C529.639 7.44791 531.375 6.52391 533.307 6.52391C536.919 6.52391 538.571 8.73591 538.571 12.2359V20.6079H535.939V12.8239C535.939 10.0519 534.651 8.93191 532.635 8.93191C530.171 8.93191 528.743 10.6959 528.743 13.3559V20.6079ZM541.348 13.4119C541.348 9.54791 543.84 6.52391 547.816 6.52391C550.028 6.52391 551.736 7.53191 552.604 9.23991L552.8 6.91591H555.152V20.0479C555.152 24.3599 552.492 27.1039 548.292 27.1039C544.568 27.1039 542.02 25.0039 541.516 21.5319H544.148C544.484 23.5479 545.996 24.7239 548.292 24.7239C550.868 24.7239 552.548 23.0439 552.548 20.4399V17.6959C551.652 19.2919 549.86 20.2439 547.704 20.2439C543.812 20.2439 541.348 17.2479 541.348 13.4119ZM543.98 13.3559C543.98 15.9319 545.576 17.9479 548.152 17.9479C550.812 17.9479 552.436 16.0439 552.436 13.3559C552.436 10.7239 550.868 8.81991 548.18 8.81991C545.548 8.81991 543.98 10.8359 543.98 13.3559ZM562.898 19.5159C562.898 21.5319 561.386 23.2119 559.398 23.4639V22.2879C560.546 22.0919 561.358 21.3359 561.358 20.4679C561.162 20.5799 560.938 20.6359 560.602 20.6359C559.678 20.6359 558.894 19.9639 558.894 18.9279C558.894 17.8079 559.65 16.9959 560.77 16.9959C561.946 16.9959 562.898 17.9759 562.898 19.5159ZM578.349 20.9439C575.409 20.9439 573.673 19.2919 573.673 16.7999C573.673 14.2799 575.549 12.7119 578.769 12.4599L583.081 12.1239V11.7319C583.081 9.43591 581.709 8.62391 579.861 8.62391C577.649 8.62391 576.389 9.60391 576.389 11.2559H574.093C574.093 8.39991 576.445 6.52391 579.973 6.52391C583.361 6.52391 585.657 8.31591 585.657 12.0119V20.6079H583.417L583.137 18.3959C582.437 19.9639 580.561 20.9439 578.349 20.9439ZM579.105 18.8999C581.597 18.8999 583.109 17.2759 583.109 14.6999V13.9719L579.609 14.2519C577.285 14.4759 576.333 15.3719 576.333 16.7159C576.333 18.1719 577.397 18.8999 579.105 18.8999ZM591.934 20.6079H589.302V6.91591H591.682L591.962 9.01591C592.83 7.44791 594.566 6.52391 596.498 6.52391C600.11 6.52391 601.762 8.73591 601.762 12.2359V20.6079H599.13V12.8239C599.13 10.0519 597.842 8.93191 595.826 8.93191C593.362 8.93191 591.934 10.6959 591.934 13.3559V20.6079ZM610.895 20.9439C606.919 20.9439 604.511 17.9759 604.511 13.8039C604.511 9.60391 606.947 6.52391 611.007 6.52391C613.107 6.52391 614.871 7.44791 615.795 9.12791V-9.15527e-05H618.399V20.6079H616.047L615.823 18.1159C614.927 19.9919 613.079 20.9439 610.895 20.9439ZM611.427 18.5639C614.115 18.5639 615.767 16.5759 615.767 13.7199C615.767 10.9199 614.115 8.90391 611.427 8.90391C608.739 8.90391 607.171 10.9199 607.171 13.7199C607.171 16.5479 608.739 18.5639 611.427 18.5639ZM632.485 20.6079H629.853V6.91591H632.205L632.457 8.70791C633.157 7.41991 634.613 6.52391 636.545 6.52391C638.673 6.52391 640.185 7.58791 640.885 9.29591C641.529 7.58791 643.181 6.52391 645.309 6.52391C648.445 6.52391 650.349 8.48391 650.349 11.6479V20.6079H647.773V12.2919C647.773 10.1359 646.569 8.90391 644.721 8.90391C642.733 8.90391 641.417 10.3039 641.417 12.4879V20.6079H638.813V12.2639C638.813 10.1079 637.637 8.93191 635.789 8.93191C633.801 8.93191 632.485 10.3039 632.485 12.4879V20.6079ZM658.001 20.9439C655.061 20.9439 653.325 19.2919 653.325 16.7999C653.325 14.2799 655.201 12.7119 658.421 12.4599L662.733 12.1239V11.7319C662.733 9.43591 661.361 8.62391 659.513 8.62391C657.301 8.62391 656.041 9.60391 656.041 11.2559H653.745C653.745 8.39991 656.097 6.52391 659.625 6.52391C663.013 6.52391 665.309 8.31591 665.309 12.0119V20.6079H663.069L662.789 18.3959C662.089 19.9639 660.213 20.9439 658.001 20.9439ZM658.757 18.8999C661.249 18.8999 662.761 17.2759 662.761 14.6999V13.9719L659.261 14.2519C656.937 14.4759 655.985 15.3719 655.985 16.7159C655.985 18.1719 657.049 18.8999 658.757 18.8999ZM671.586 20.6079H668.954V6.91591H671.334L671.614 9.01591C672.482 7.44791 674.218 6.52391 676.15 6.52391C679.762 6.52391 681.414 8.73591 681.414 12.2359V20.6079H678.782V12.8239C678.782 10.0519 677.494 8.93191 675.478 8.93191C673.014 8.93191 671.586 10.6959 671.586 13.3559V20.6079ZM689.064 20.9439C686.124 20.9439 684.388 19.2919 684.388 16.7999C684.388 14.2799 686.264 12.7119 689.484 12.4599L693.796 12.1239V11.7319C693.796 9.43591 692.424 8.62391 690.576 8.62391C688.364 8.62391 687.104 9.60391 687.104 11.2559H684.808C684.808 8.39991 687.16 6.52391 690.688 6.52391C694.076 6.52391 696.372 8.31591 696.372 12.0119V20.6079H694.132L693.852 18.3959C693.152 19.9639 691.276 20.9439 689.064 20.9439ZM689.82 18.8999C692.312 18.8999 693.824 17.2759 693.824 14.6999V13.9719L690.324 14.2519C688 14.4759 687.048 15.3719 687.048 16.7159C687.048 18.1719 688.112 18.8999 689.82 18.8999ZM699.149 13.4119C699.149 9.54791 701.641 6.52391 705.617 6.52391C707.829 6.52391 709.537 7.53191 710.405 9.23991L710.601 6.91591H712.953V20.0479C712.953 24.3599 710.293 27.1039 706.093 27.1039C702.369 27.1039 699.821 25.0039 699.317 21.5319H701.949C702.285 23.5479 703.797 24.7239 706.093 24.7239C708.669 24.7239 710.349 23.0439 710.349 20.4399V17.6959C709.453 19.2919 707.661 20.2439 705.505 20.2439C701.613 20.2439 699.149 17.2479 699.149 13.4119ZM701.781 13.3559C701.781 15.9319 703.377 17.9479 705.953 17.9479C708.613 17.9479 710.237 16.0439 710.237 13.3559C710.237 10.7239 708.669 8.81991 705.981 8.81991C703.349 8.81991 701.781 10.8359 701.781 13.3559ZM718.039 3.66791C717.087 3.66791 716.303 2.88391 716.303 1.93191C716.303 0.95191 717.087 0.195909 718.039 0.195909C718.991 0.195909 719.775 0.95191 719.775 1.93191C719.775 2.88391 718.991 3.66791 718.039 3.66791ZM716.751 20.6079V6.91591H719.383V20.6079H716.751ZM725.836 20.6079H723.204V6.91591H725.584L725.864 9.01591C726.732 7.44791 728.468 6.52391 730.4 6.52391C734.012 6.52391 735.664 8.73591 735.664 12.2359V20.6079H733.032V12.8239C733.032 10.0519 731.744 8.93191 729.728 8.93191C727.264 8.93191 725.836 10.6959 725.836 13.3559V20.6079ZM738.442 13.4119C738.442 9.54791 740.934 6.52391 744.91 6.52391C747.122 6.52391 748.83 7.53191 749.698 9.23991L749.894 6.91591H752.246V20.0479C752.246 24.3599 749.586 27.1039 745.386 27.1039C741.662 27.1039 739.114 25.0039 738.61 21.5319H741.242C741.578 23.5479 743.09 24.7239 745.386 24.7239C747.962 24.7239 749.642 23.0439 749.642 20.4399V17.6959C748.746 19.2919 746.954 20.2439 744.798 20.2439C740.906 20.2439 738.442 17.2479 738.442 13.4119ZM741.074 13.3559C741.074 15.9319 742.67 17.9479 745.246 17.9479C747.906 17.9479 749.53 16.0439 749.53 13.3559C749.53 10.7239 747.962 8.81991 745.274 8.81991C742.642 8.81991 741.074 10.8359 741.074 13.3559ZM762.804 13.7759C762.804 9.49191 765.52 6.52391 769.524 6.52391C772.968 6.52391 775.376 8.48391 775.852 11.5359H773.22C772.772 9.79991 771.372 8.87591 769.608 8.87591C767.116 8.87591 765.408 10.7799 765.408 13.7479C765.408 16.6879 767.004 18.5919 769.496 18.5919C771.372 18.5919 772.772 17.6119 773.248 15.9879H775.88C775.348 18.9559 772.8 20.9439 769.496 20.9439C765.464 20.9439 762.804 18.0879 762.804 13.7759ZM777.761 13.7479C777.761 9.51991 780.785 6.55191 784.901 6.55191C788.989 6.55191 792.013 9.51991 792.013 13.7479C792.013 17.9759 788.989 20.9439 784.901 20.9439C780.785 20.9439 777.761 17.9759 777.761 13.7479ZM780.421 13.7479C780.421 16.6039 782.241 18.5919 784.901 18.5919C787.533 18.5919 789.381 16.6039 789.381 13.7479C789.381 10.8919 787.533 8.90391 784.901 8.90391C782.241 8.90391 780.421 10.8919 780.421 13.7479ZM797.559 20.6079H794.927V6.91591H797.307L797.587 9.01591C798.455 7.44791 800.191 6.52391 802.123 6.52391C805.735 6.52391 807.387 8.73591 807.387 12.2359V20.6079H804.755V12.8239C804.755 10.0519 803.467 8.93191 801.451 8.93191C798.987 8.93191 797.559 10.6959 797.559 13.3559V20.6079ZM814.896 20.6079H812.264V9.12791H809.576V6.91591H812.264V2.63191H814.896V6.91591H817.584V9.12791H814.896V20.6079ZM825.718 20.9439C821.686 20.9439 818.914 18.0319 818.914 13.7759C818.914 9.49191 821.63 6.52391 825.606 6.52391C829.498 6.52391 832.046 9.21191 832.046 13.2719V14.2519L821.462 14.2799C821.658 17.1639 823.17 18.7599 825.774 18.7599C827.818 18.7599 829.162 17.9199 829.61 16.3519H832.074C831.402 19.2919 829.106 20.9439 825.718 20.9439ZM825.606 8.73591C823.31 8.73591 821.854 10.1079 821.518 12.5159H829.414C829.414 10.2479 827.93 8.73591 825.606 8.73591ZM837.618 20.6079H834.986V6.91591H837.366L837.646 9.01591C838.514 7.44791 840.25 6.52391 842.182 6.52391C845.794 6.52391 847.446 8.73591 847.446 12.2359V20.6079H844.814V12.8239C844.814 10.0519 843.526 8.93191 841.51 8.93191C839.046 8.93191 837.618 10.6959 837.618 13.3559V20.6079ZM854.955 20.6079H852.323V9.12791H849.635V6.91591H852.323V2.63191H854.955V6.91591H857.643V9.12791H854.955V20.6079ZM870.601 20.6079L866.121 6.91591H868.837L871.105 14.0279C871.413 15.0359 871.693 16.0719 871.945 17.2759C872.169 16.0719 872.533 14.9239 872.841 14.0279L875.137 6.91591H877.825L880.093 14.0279C880.317 14.6999 880.765 16.2959 880.989 17.2759C881.213 16.1839 881.465 15.2319 881.857 14.0279L884.153 6.91591H886.897L882.221 20.6079H879.729L877.349 13.2719C876.901 11.8999 876.621 10.8359 876.481 10.0799C876.341 10.7519 876.089 11.6479 875.585 13.2999L873.205 20.6079H870.601ZM890.442 3.66791C889.49 3.66791 888.706 2.88391 888.706 1.93191C888.706 0.95191 889.49 0.195909 890.442 0.195909C891.394 0.195909 892.178 0.95191 892.178 1.93191C892.178 2.88391 891.394 3.66791 890.442 3.66791ZM889.154 20.6079V6.91591H891.786V20.6079H889.154ZM899.471 20.6079H896.839V9.12791H894.151V6.91591H896.839V2.63191H899.471V6.91591H902.159V9.12791H899.471V20.6079ZM907.153 20.5799H904.521V-9.15527e-05H907.153V9.01591C908.021 7.53191 909.673 6.52391 911.801 6.52391C915.301 6.52391 916.981 8.73591 916.981 12.2359V20.6079H914.349V12.8239C914.349 10.0519 913.033 8.93191 911.073 8.93191C908.525 8.93191 907.153 10.7799 907.153 13.1319V20.5799ZM921.914 3.66791C920.962 3.66791 920.178 2.88391 920.178 1.93191C920.178 0.95191 920.962 0.195909 921.914 0.195909C922.866 0.195909 923.65 0.95191 923.65 1.93191C923.65 2.88391 922.866 3.66791 921.914 3.66791ZM920.626 20.6079V6.91591H923.258V20.6079H920.626ZM929.711 20.6079H927.079V6.91591H929.459L929.739 9.01591C930.607 7.44791 932.343 6.52391 934.275 6.52391C937.887 6.52391 939.539 8.73591 939.539 12.2359V20.6079H936.907V12.8239C936.907 10.0519 935.619 8.93191 933.603 8.93191C931.139 8.93191 929.711 10.6959 929.711 13.3559V20.6079ZM956.329 20.9439C952.353 20.9439 949.945 17.9759 949.945 13.8039C949.945 9.60391 952.381 6.52391 956.441 6.52391C958.541 6.52391 960.305 7.44791 961.229 9.12791V-9.15527e-05H963.833V20.6079H961.481L961.257 18.1159C960.361 19.9919 958.513 20.9439 956.329 20.9439ZM956.861 18.5639C959.549 18.5639 961.201 16.5759 961.201 13.7199C961.201 10.9199 959.549 8.90391 956.861 8.90391C954.173 8.90391 952.605 10.9199 952.605 13.7199C952.605 16.5479 954.173 18.5639 956.861 18.5639ZM971.634 20.9439C968.694 20.9439 966.958 19.2919 966.958 16.7999C966.958 14.2799 968.834 12.7119 972.054 12.4599L976.366 12.1239V11.7319C976.366 9.43591 974.994 8.62391 973.146 8.62391C970.934 8.62391 969.674 9.60391 969.674 11.2559H967.378C967.378 8.39991 969.73 6.52391 973.258 6.52391C976.646 6.52391 978.942 8.31591 978.942 12.0119V20.6079H976.702L976.422 18.3959C975.722 19.9639 973.846 20.9439 971.634 20.9439ZM972.39 18.8999C974.882 18.8999 976.394 17.2759 976.394 14.6999V13.9719L972.894 14.2519C970.57 14.4759 969.618 15.3719 969.618 16.7159C969.618 18.1719 970.682 18.8999 972.39 18.8999ZM981.467 16.6319H983.987C983.987 18.0319 985.051 18.8719 986.787 18.8719C988.635 18.8719 989.699 18.1159 989.699 16.8559C989.699 15.9319 989.251 15.3719 987.823 15.0079L985.415 14.4479C982.979 13.8599 981.831 12.6559 981.831 10.6399C981.831 8.11991 983.959 6.52391 986.983 6.52391C989.979 6.52391 991.939 8.20391 991.995 10.8079H989.475C989.419 9.43591 988.495 8.56791 986.899 8.56791C985.247 8.56791 984.323 9.29591 984.323 10.5559C984.323 11.4799 984.995 12.0959 986.339 12.4319L988.747 13.0199C991.071 13.5799 992.219 14.6439 992.219 16.6879C992.219 19.2919 989.979 20.9439 986.731 20.9439C983.511 20.9439 981.467 19.2359 981.467 16.6319ZM997.77 20.5799H995.138V-9.15527e-05H997.77V9.01591C998.638 7.53191 1000.29 6.52391 1002.42 6.52391C1005.92 6.52391 1007.6 8.73591 1007.6 12.2359V20.6079H1004.97V12.8239C1004.97 10.0519 1003.65 8.93191 1001.69 8.93191C999.142 8.93191 997.77 10.7799 997.77 13.1319V20.5799ZM1013.62 20.6079H1011.24V-9.15527e-05H1013.88V9.26791C1014.77 7.47591 1016.62 6.52391 1018.86 6.52391C1022.78 6.52391 1025.13 9.60391 1025.13 13.8319C1025.13 17.9759 1022.67 20.9439 1018.69 20.9439C1016.54 20.9439 1014.72 19.9919 1013.82 18.1159L1013.62 20.6079ZM1013.9 13.7199C1013.9 16.5759 1015.53 18.5639 1018.22 18.5639C1020.9 18.5639 1022.5 16.5479 1022.5 13.7199C1022.5 10.9199 1020.9 8.90391 1018.22 8.90391C1015.53 8.90391 1013.9 10.9199 1013.9 13.7199ZM1027.14 13.7479C1027.14 9.51991 1030.16 6.55191 1034.28 6.55191C1038.36 6.55191 1041.39 9.51991 1041.39 13.7479C1041.39 17.9759 1038.36 20.9439 1034.28 20.9439C1030.16 20.9439 1027.14 17.9759 1027.14 13.7479ZM1029.8 13.7479C1029.8 16.6039 1031.62 18.5919 1034.28 18.5919C1036.91 18.5919 1038.76 16.6039 1038.76 13.7479C1038.76 10.8919 1036.91 8.90391 1034.28 8.90391C1031.62 8.90391 1029.8 10.8919 1029.8 13.7479ZM1048.31 20.9439C1045.37 20.9439 1043.63 19.2919 1043.63 16.7999C1043.63 14.2799 1045.51 12.7119 1048.73 12.4599L1053.04 12.1239V11.7319C1053.04 9.43591 1051.67 8.62391 1049.82 8.62391C1047.61 8.62391 1046.35 9.60391 1046.35 11.2559H1044.05C1044.05 8.39991 1046.4 6.52391 1049.93 6.52391C1053.32 6.52391 1055.61 8.31591 1055.61 12.0119V20.6079H1053.37L1053.09 18.3959C1052.39 19.9639 1050.52 20.9439 1048.31 20.9439ZM1049.06 18.8999C1051.55 18.8999 1053.07 17.2759 1053.07 14.6999V13.9719L1049.57 14.2519C1047.24 14.4759 1046.29 15.3719 1046.29 16.7159C1046.29 18.1719 1047.35 18.8999 1049.06 18.8999ZM1067.1 6.80391V9.21191H1065.92C1063.43 9.21191 1061.89 10.7239 1061.89 13.3559V20.6079H1059.26V6.94391H1061.72L1061.89 9.01591C1062.45 7.58791 1063.82 6.63591 1065.7 6.63591C1066.17 6.63591 1066.57 6.69191 1067.1 6.80391ZM1074.56 20.9439C1070.59 20.9439 1068.18 17.9759 1068.18 13.8039C1068.18 9.60391 1070.62 6.52391 1074.68 6.52391C1076.78 6.52391 1078.54 7.44791 1079.46 9.12791V-9.15527e-05H1082.07V20.6079H1079.72L1079.49 18.1159C1078.6 19.9919 1076.75 20.9439 1074.56 20.9439ZM1075.1 18.5639C1077.78 18.5639 1079.44 16.5759 1079.44 13.7199C1079.44 10.9199 1077.78 8.90391 1075.1 8.90391C1072.41 8.90391 1070.84 10.9199 1070.84 13.7199C1070.84 16.5479 1072.41 18.5639 1075.1 18.5639ZM1084.74 16.6319H1087.26C1087.26 18.0319 1088.33 18.8719 1090.06 18.8719C1091.91 18.8719 1092.98 18.1159 1092.98 16.8559C1092.98 15.9319 1092.53 15.3719 1091.1 15.0079L1088.69 14.4479C1086.26 13.8599 1085.11 12.6559 1085.11 10.6399C1085.11 8.11991 1087.24 6.52391 1090.26 6.52391C1093.26 6.52391 1095.22 8.20391 1095.27 10.8079H1092.75C1092.7 9.43591 1091.77 8.56791 1090.18 8.56791C1088.52 8.56791 1087.6 9.29591 1087.6 10.5559C1087.6 11.4799 1088.27 12.0959 1089.62 12.4319L1092.02 13.0199C1094.35 13.5799 1095.5 14.6439 1095.5 16.6879C1095.5 19.2919 1093.26 20.9439 1090.01 20.9439C1086.79 20.9439 1084.74 19.2359 1084.74 16.6319ZM1102.2 19.5159C1102.2 21.5319 1100.69 23.2119 1098.7 23.4639V22.2879C1099.85 22.0919 1100.66 21.3359 1100.66 20.4679C1100.46 20.5799 1100.24 20.6359 1099.9 20.6359C1098.98 20.6359 1098.2 19.9639 1098.2 18.9279C1098.2 17.8079 1098.95 16.9959 1100.07 16.9959C1101.25 16.9959 1102.2 17.9759 1102.2 19.5159ZM1112.75 13.7759C1112.75 9.49191 1115.47 6.52391 1119.47 6.52391C1122.91 6.52391 1125.32 8.48391 1125.8 11.5359H1123.17C1122.72 9.79991 1121.32 8.87591 1119.55 8.87591C1117.06 8.87591 1115.35 10.7799 1115.35 13.7479C1115.35 16.6879 1116.95 18.5919 1119.44 18.5919C1121.32 18.5919 1122.72 17.6119 1123.19 15.9879H1125.83C1125.29 18.9559 1122.75 20.9439 1119.44 20.9439C1115.41 20.9439 1112.75 18.0879 1112.75 13.7759ZM1136.44 6.80391V9.21191H1135.27C1132.77 9.21191 1131.23 10.7239 1131.23 13.3559V20.6079H1128.6V6.94391H1131.07L1131.23 9.01591C1131.79 7.58791 1133.17 6.63591 1135.04 6.63591C1135.52 6.63591 1135.91 6.69191 1136.44 6.80391ZM1144.33 20.9439C1140.3 20.9439 1137.52 18.0319 1137.52 13.7759C1137.52 9.49191 1140.24 6.52391 1144.22 6.52391C1148.11 6.52391 1150.66 9.21191 1150.66 13.2719V14.2519L1140.07 14.2799C1140.27 17.1639 1141.78 18.7599 1144.38 18.7599C1146.43 18.7599 1147.77 17.9199 1148.22 16.3519H1150.68C1150.01 19.2919 1147.72 20.9439 1144.33 20.9439ZM1144.22 8.73591C1141.92 8.73591 1140.46 10.1079 1140.13 12.5159H1148.02C1148.02 10.2479 1146.54 8.73591 1144.22 8.73591ZM1157.46 20.9439C1154.52 20.9439 1152.79 19.2919 1152.79 16.7999C1152.79 14.2799 1154.66 12.7119 1157.88 12.4599L1162.19 12.1239V11.7319C1162.19 9.43591 1160.82 8.62391 1158.97 8.62391C1156.76 8.62391 1155.5 9.60391 1155.5 11.2559H1153.21C1153.21 8.39991 1155.56 6.52391 1159.09 6.52391C1162.47 6.52391 1164.77 8.31591 1164.77 12.0119V20.6079H1162.53L1162.25 18.3959C1161.55 19.9639 1159.67 20.9439 1157.46 20.9439ZM1158.22 18.8999C1160.71 18.8999 1162.22 17.2759 1162.22 14.6999V13.9719L1158.72 14.2519C1156.4 14.4759 1155.45 15.3719 1155.45 16.7159C1155.45 18.1719 1156.51 18.8999 1158.22 18.8999ZM1172.06 20.6079H1169.43V9.12791H1166.74V6.91591H1169.43V2.63191H1172.06V6.91591H1174.75V9.12791H1172.06V20.6079ZM1178.4 3.66791C1177.45 3.66791 1176.66 2.88391 1176.66 1.93191C1176.66 0.95191 1177.45 0.195909 1178.4 0.195909C1179.35 0.195909 1180.13 0.95191 1180.13 1.93191C1180.13 2.88391 1179.35 3.66791 1178.4 3.66791ZM1177.11 20.6079V6.91591H1179.74V20.6079H1177.11ZM1187.4 20.6079L1181.88 6.91591H1184.68L1187.68 14.5599C1188.16 15.8479 1188.55 16.9959 1188.77 17.8359C1189 16.9399 1189.44 15.7639 1189.92 14.5599L1192.97 6.91591H1195.72L1190 20.6079H1187.4ZM1203.09 20.9439C1199.06 20.9439 1196.28 18.0319 1196.28 13.7759C1196.28 9.49191 1199 6.52391 1202.98 6.52391C1206.87 6.52391 1209.42 9.21191 1209.42 13.2719V14.2519L1198.83 14.2799C1199.03 17.1639 1200.54 18.7599 1203.14 18.7599C1205.19 18.7599 1206.53 17.9199 1206.98 16.3519H1209.44C1208.77 19.2919 1206.48 20.9439 1203.09 20.9439ZM1202.98 8.73591C1200.68 8.73591 1199.22 10.1079 1198.89 12.5159H1206.78C1206.78 10.2479 1205.3 8.73591 1202.98 8.73591ZM1223.88 20.6079H1221.24V9.12791H1218.56V6.91591H1221.24V2.63191H1223.88V6.91591H1226.56V9.12791H1223.88V20.6079ZM1227.89 13.7479C1227.89 9.51991 1230.92 6.55191 1235.03 6.55191C1239.12 6.55191 1242.15 9.51991 1242.15 13.7479C1242.15 17.9759 1239.12 20.9439 1235.03 20.9439C1230.92 20.9439 1227.89 17.9759 1227.89 13.7479ZM1230.55 13.7479C1230.55 16.6039 1232.37 18.5919 1235.03 18.5919C1237.67 18.5919 1239.51 16.6039 1239.51 13.7479C1239.51 10.8919 1237.67 8.90391 1235.03 8.90391C1232.37 8.90391 1230.55 10.8919 1230.55 13.7479ZM1244.16 13.7479C1244.16 9.51991 1247.19 6.55191 1251.3 6.55191C1255.39 6.55191 1258.42 9.51991 1258.42 13.7479C1258.42 17.9759 1255.39 20.9439 1251.3 20.9439C1247.19 20.9439 1244.16 17.9759 1244.16 13.7479ZM1246.82 13.7479C1246.82 16.6039 1248.64 18.5919 1251.3 18.5919C1253.94 18.5919 1255.78 16.6039 1255.78 13.7479C1255.78 10.8919 1253.94 8.90391 1251.3 8.90391C1248.64 8.90391 1246.82 10.8919 1246.82 13.7479ZM1264.02 20.6079H1261.39V-9.15527e-05H1264.02V20.6079ZM1266.77 16.6319H1269.29C1269.29 18.0319 1270.36 18.8719 1272.09 18.8719C1273.94 18.8719 1275 18.1159 1275 16.8559C1275 15.9319 1274.56 15.3719 1273.13 15.0079L1270.72 14.4479C1268.28 13.8599 1267.14 12.6559 1267.14 10.6399C1267.14 8.11991 1269.26 6.52391 1272.29 6.52391C1275.28 6.52391 1277.24 8.20391 1277.3 10.8079H1274.78C1274.72 9.43591 1273.8 8.56791 1272.2 8.56791C1270.55 8.56791 1269.63 9.29591 1269.63 10.5559C1269.63 11.4799 1270.3 12.0959 1271.64 12.4319L1274.05 13.0199C1276.38 13.5799 1277.52 14.6439 1277.52 16.6879C1277.52 19.2919 1275.28 20.9439 1272.04 20.9439C1268.82 20.9439 1266.77 19.2359 1266.77 16.6319ZM1284.23 19.5159C1284.23 21.5319 1282.71 23.2119 1280.73 23.4639V22.2879C1281.87 22.0919 1282.69 21.3359 1282.69 20.4679C1282.49 20.5799 1282.27 20.6359 1281.93 20.6359C1281.01 20.6359 1280.22 19.9639 1280.22 18.9279C1280.22 17.8079 1280.98 16.9959 1282.1 16.9959C1283.27 16.9959 1284.23 17.9759 1284.23 19.5159ZM1295.67 26.7399V6.91591H1298.05L1298.25 9.37991C1299.17 7.50391 1301.02 6.52391 1303.21 6.52391C1307.13 6.52391 1309.56 9.46391 1309.56 13.6639C1309.56 17.8359 1307.27 20.9719 1303.21 20.9719C1301.02 20.9719 1299.2 20.0479 1298.31 18.3679V26.7399H1295.67ZM1298.33 13.7759C1298.33 16.5759 1299.96 18.5919 1302.65 18.5919C1305.33 18.5919 1306.93 16.5759 1306.93 13.7759C1306.93 10.9479 1305.33 8.93191 1302.65 8.93191C1299.96 8.93191 1298.33 10.9199 1298.33 13.7759ZM1320.3 6.80391V9.21191H1319.13C1316.63 9.21191 1315.09 10.7239 1315.09 13.3559V20.6079H1312.46V6.94391H1314.93L1315.09 9.01591C1315.65 7.58791 1317.03 6.63591 1318.9 6.63591C1319.38 6.63591 1319.77 6.69191 1320.3 6.80391ZM1321.38 13.7479C1321.38 9.51991 1324.41 6.55191 1328.52 6.55191C1332.61 6.55191 1335.63 9.51991 1335.63 13.7479C1335.63 17.9759 1332.61 20.9439 1328.52 20.9439C1324.41 20.9439 1321.38 17.9759 1321.38 13.7479ZM1324.04 13.7479C1324.04 16.6039 1325.86 18.5919 1328.52 18.5919C1331.15 18.5919 1333 16.6039 1333 13.7479C1333 10.8919 1331.15 8.90391 1328.52 8.90391C1325.86 8.90391 1324.04 10.8919 1324.04 13.7479ZM1344.04 20.9439C1340.06 20.9439 1337.65 17.9759 1337.65 13.8039C1337.65 9.60391 1340.09 6.52391 1344.15 6.52391C1346.25 6.52391 1348.01 7.44791 1348.94 9.12791V-9.15527e-05H1351.54V20.6079H1349.19L1348.96 18.1159C1348.07 19.9919 1346.22 20.9439 1344.04 20.9439ZM1344.57 18.5639C1347.26 18.5639 1348.91 16.5759 1348.91 13.7199C1348.91 10.9199 1347.26 8.90391 1344.57 8.90391C1341.88 8.90391 1340.31 10.9199 1340.31 13.7199C1340.31 16.5479 1341.88 18.5639 1344.57 18.5639ZM1364.8 6.91591H1367.41V20.6079H1365.05L1364.77 18.5359C1363.99 19.9639 1362.17 20.9439 1360.15 20.9439C1356.96 20.9439 1355.17 18.7879 1355.17 15.4279V6.91591H1357.8V14.5599C1357.8 17.4999 1359.06 18.6199 1361.08 18.6199C1363.49 18.6199 1364.8 17.0799 1364.8 14.1399V6.91591ZM1370.05 13.7759C1370.05 9.49191 1372.77 6.52391 1376.77 6.52391C1380.22 6.52391 1382.63 8.48391 1383.1 11.5359H1380.47C1380.02 9.79991 1378.62 8.87591 1376.86 8.87591C1374.37 8.87591 1372.66 10.7799 1372.66 13.7479C1372.66 16.6879 1374.25 18.5919 1376.75 18.5919C1378.62 18.5919 1380.02 17.6119 1380.5 15.9879H1383.13C1382.6 18.9559 1380.05 20.9439 1376.75 20.9439C1372.71 20.9439 1370.05 18.0879 1370.05 13.7759ZM1389.77 20.6079H1387.14V9.12791H1384.45V6.91591H1387.14V2.63191H1389.77V6.91591H1392.46V9.12791H1389.77V20.6079ZM1396.11 3.66791C1395.16 3.66791 1394.37 2.88391 1394.37 1.93191C1394.37 0.95191 1395.16 0.195909 1396.11 0.195909C1397.06 0.195909 1397.85 0.95191 1397.85 1.93191C1397.85 2.88391 1397.06 3.66791 1396.11 3.66791ZM1394.82 20.6079V6.91591H1397.45V20.6079H1394.82ZM1405.11 20.6079L1399.59 6.91591H1402.39L1405.39 14.5599C1405.87 15.8479 1406.26 16.9959 1406.48 17.8359C1406.71 16.9399 1407.15 15.7639 1407.63 14.5599L1410.68 6.91591H1413.43L1407.71 20.6079H1405.11ZM1416.81 3.66791C1415.86 3.66791 1415.07 2.88391 1415.07 1.93191C1415.07 0.95191 1415.86 0.195909 1416.81 0.195909C1417.76 0.195909 1418.54 0.95191 1418.54 1.93191C1418.54 2.88391 1417.76 3.66791 1416.81 3.66791ZM1415.52 20.6079V6.91591H1418.15V20.6079H1415.52ZM1425.84 20.6079H1423.21V9.12791H1420.52V6.91591H1423.21V2.63191H1425.84V6.91591H1428.53V9.12791H1425.84V20.6079ZM1429.57 26.7399V24.5839H1431.34C1432.6 24.5839 1433.6 24.3879 1434.25 22.6519L1434.72 21.3359L1429.21 6.91591H1431.98L1435.96 17.9479L1440.02 6.91591H1442.73L1436.26 23.6879C1435.34 26.0399 1433.97 27.0199 1431.87 27.0199C1431 27.0199 1430.27 26.9079 1429.57 26.7399ZM1456.49 20.9439C1453.55 20.9439 1451.82 19.2919 1451.82 16.7999C1451.82 14.2799 1453.69 12.7119 1456.91 12.4599L1461.23 12.1239V11.7319C1461.23 9.43591 1459.85 8.62391 1458.01 8.62391C1455.79 8.62391 1454.53 9.60391 1454.53 11.2559H1452.24C1452.24 8.39991 1454.59 6.52391 1458.12 6.52391C1461.51 6.52391 1463.8 8.31591 1463.8 12.0119V20.6079H1461.56L1461.28 18.3959C1460.58 19.9639 1458.71 20.9439 1456.49 20.9439ZM1457.25 18.8999C1459.74 18.8999 1461.25 17.2759 1461.25 14.6999V13.9719L1457.75 14.2519C1455.43 14.4759 1454.48 15.3719 1454.48 16.7159C1454.48 18.1719 1455.54 18.8999 1457.25 18.8999ZM1467.45 26.7399V6.91591H1469.83L1470.02 9.37991C1470.95 7.50391 1472.79 6.52391 1474.98 6.52391C1478.9 6.52391 1481.33 9.46391 1481.33 13.6639C1481.33 17.8359 1479.04 20.9719 1474.98 20.9719C1472.79 20.9719 1470.97 20.0479 1470.08 18.3679V26.7399H1467.45ZM1470.11 13.7759C1470.11 16.5759 1471.73 18.5919 1474.42 18.5919C1477.11 18.5919 1478.7 16.5759 1478.7 13.7759C1478.7 10.9479 1477.11 8.93191 1474.42 8.93191C1471.73 8.93191 1470.11 10.9199 1470.11 13.7759ZM1484.24 26.7399V6.91591H1486.62L1486.81 9.37991C1487.74 7.50391 1489.58 6.52391 1491.77 6.52391C1495.69 6.52391 1498.12 9.46391 1498.12 13.6639C1498.12 17.8359 1495.83 20.9719 1491.77 20.9719C1489.58 20.9719 1487.76 20.0479 1486.87 18.3679V26.7399H1484.24ZM1486.9 13.7759C1486.9 16.5759 1488.52 18.5919 1491.21 18.5919C1493.9 18.5919 1495.49 16.5759 1495.49 13.7759C1495.49 10.9479 1493.9 8.93191 1491.21 8.93191C1488.52 8.93191 1486.9 10.9199 1486.9 13.7759ZM1503.71 20.6079H1501.08V-9.15527e-05H1503.71V20.6079ZM1508.88 3.66791C1507.92 3.66791 1507.14 2.88391 1507.14 1.93191C1507.14 0.95191 1507.92 0.195909 1508.88 0.195909C1509.83 0.195909 1510.61 0.95191 1510.61 1.93191C1510.61 2.88391 1509.83 3.66791 1508.88 3.66791ZM1507.59 20.6079V6.91591H1510.22V20.6079H1507.59ZM1513.14 13.7759C1513.14 9.49191 1515.86 6.52391 1519.86 6.52391C1523.31 6.52391 1525.72 8.48391 1526.19 11.5359H1523.56C1523.11 9.79991 1521.71 8.87591 1519.95 8.87591C1517.46 8.87591 1515.75 10.7799 1515.75 13.7479C1515.75 16.6879 1517.34 18.5919 1519.84 18.5919C1521.71 18.5919 1523.11 17.6119 1523.59 15.9879H1526.22C1525.69 18.9559 1523.14 20.9439 1519.84 20.9439C1515.8 20.9439 1513.14 18.0879 1513.14 13.7759ZM1533 20.9439C1530.06 20.9439 1528.33 19.2919 1528.33 16.7999C1528.33 14.2799 1530.2 12.7119 1533.42 12.4599L1537.73 12.1239V11.7319C1537.73 9.43591 1536.36 8.62391 1534.51 8.62391C1532.3 8.62391 1531.04 9.60391 1531.04 11.2559H1528.75C1528.75 8.39991 1531.1 6.52391 1534.63 6.52391C1538.01 6.52391 1540.31 8.31591 1540.31 12.0119V20.6079H1538.07L1537.79 18.3959C1537.09 19.9639 1535.21 20.9439 1533 20.9439ZM1533.76 18.8999C1536.25 18.8999 1537.76 17.2759 1537.76 14.6999V13.9719L1534.26 14.2519C1531.94 14.4759 1530.99 15.3719 1530.99 16.7159C1530.99 18.1719 1532.05 18.8999 1533.76 18.8999ZM1547.6 20.6079H1544.97V9.12791H1542.28V6.91591H1544.97V2.63191H1547.6V6.91591H1550.29V9.12791H1547.6V20.6079ZM1553.94 3.66791C1552.99 3.66791 1552.2 2.88391 1552.2 1.93191C1552.2 0.95191 1552.99 0.195909 1553.94 0.195909C1554.89 0.195909 1555.67 0.95191 1555.67 1.93191C1555.67 2.88391 1554.89 3.66791 1553.94 3.66791ZM1552.65 20.6079V6.91591H1555.28V20.6079H1552.65ZM1558.21 13.7479C1558.21 9.51991 1561.23 6.55191 1565.35 6.55191C1569.43 6.55191 1572.46 9.51991 1572.46 13.7479C1572.46 17.9759 1569.43 20.9439 1565.35 20.9439C1561.23 20.9439 1558.21 17.9759 1558.21 13.7479ZM1560.87 13.7479C1560.87 16.6039 1562.69 18.5919 1565.35 18.5919C1567.98 18.5919 1569.83 16.6039 1569.83 13.7479C1569.83 10.8919 1567.98 8.90391 1565.35 8.90391C1562.69 8.90391 1560.87 10.8919 1560.87 13.7479ZM1578 20.6079H1575.37V6.91591H1577.75L1578.03 9.01591C1578.9 7.44791 1580.64 6.52391 1582.57 6.52391C1586.18 6.52391 1587.83 8.73591 1587.83 12.2359V20.6079H1585.2V12.8239C1585.2 10.0519 1583.91 8.93191 1581.9 8.93191C1579.43 8.93191 1578 10.6959 1578 13.3559V20.6079ZM1590.19 16.6319H1592.71C1592.71 18.0319 1593.78 18.8719 1595.51 18.8719C1597.36 18.8719 1598.43 18.1159 1598.43 16.8559C1598.43 15.9319 1597.98 15.3719 1596.55 15.0079L1594.14 14.4479C1591.71 13.8599 1590.56 12.6559 1590.56 10.6399C1590.56 8.11991 1592.69 6.52391 1595.71 6.52391C1598.71 6.52391 1600.67 8.20391 1600.72 10.8079H1598.2C1598.15 9.43591 1597.22 8.56791 1595.63 8.56791C1593.97 8.56791 1593.05 9.29591 1593.05 10.5559C1593.05 11.4799 1593.72 12.0959 1595.07 12.4319L1597.47 13.0199C1599.8 13.5799 1600.95 14.6439 1600.95 16.6879C1600.95 19.2919 1598.71 20.9439 1595.46 20.9439C1592.24 20.9439 1590.19 19.2359 1590.19 16.6319ZM1607.65 19.5159C1607.65 21.5319 1606.14 23.2119 1604.15 23.4639V22.2879C1605.3 22.0919 1606.11 21.3359 1606.11 20.4679C1605.91 20.5799 1605.69 20.6359 1605.35 20.6359C1604.43 20.6359 1603.64 19.9639 1603.64 18.9279C1603.64 17.8079 1604.4 16.9959 1605.52 16.9959C1606.7 16.9959 1607.65 17.9759 1607.65 19.5159ZM1623.1 20.9439C1620.16 20.9439 1618.42 19.2919 1618.42 16.7999C1618.42 14.2799 1620.3 12.7119 1623.52 12.4599L1627.83 12.1239V11.7319C1627.83 9.43591 1626.46 8.62391 1624.61 8.62391C1622.4 8.62391 1621.14 9.60391 1621.14 11.2559H1618.84C1618.84 8.39991 1621.19 6.52391 1624.72 6.52391C1628.11 6.52391 1630.41 8.31591 1630.41 12.0119V20.6079H1628.17L1627.89 18.3959C1627.19 19.9639 1625.31 20.9439 1623.1 20.9439ZM1623.85 18.8999C1626.35 18.8999 1627.86 17.2759 1627.86 14.6999V13.9719L1624.36 14.2519C1622.03 14.4759 1621.08 15.3719 1621.08 16.7159C1621.08 18.1719 1622.15 18.8999 1623.85 18.8999ZM1636.68 20.6079H1634.05V6.91591H1636.43L1636.71 9.01591C1637.58 7.44791 1639.32 6.52391 1641.25 6.52391C1644.86 6.52391 1646.51 8.73591 1646.51 12.2359V20.6079H1643.88V12.8239C1643.88 10.0519 1642.59 8.93191 1640.58 8.93191C1638.11 8.93191 1636.68 10.6959 1636.68 13.3559V20.6079ZM1655.65 20.9439C1651.67 20.9439 1649.26 17.9759 1649.26 13.8039C1649.26 9.60391 1651.7 6.52391 1655.76 6.52391C1657.86 6.52391 1659.62 7.44791 1660.55 9.12791V-9.15527e-05H1663.15V20.6079H1660.8L1660.57 18.1159C1659.68 19.9919 1657.83 20.9439 1655.65 20.9439ZM1656.18 18.5639C1658.87 18.5639 1660.52 16.5759 1660.52 13.7199C1660.52 10.9199 1658.87 8.90391 1656.18 8.90391C1653.49 8.90391 1651.92 10.9199 1651.92 13.7199C1651.92 16.5479 1653.49 18.5639 1656.18 18.5639ZM1678.44 20.6079L1672.92 6.91591H1675.72L1678.72 14.5599C1679.19 15.8479 1679.59 16.9959 1679.81 17.8359C1680.03 16.9399 1680.48 15.7639 1680.96 14.5599L1684.01 6.91591H1686.75L1681.04 20.6079H1678.44ZM1692.22 20.9439C1689.28 20.9439 1687.55 19.2919 1687.55 16.7999C1687.55 14.2799 1689.42 12.7119 1692.64 12.4599L1696.96 12.1239V11.7319C1696.96 9.43591 1695.58 8.62391 1693.74 8.62391C1691.52 8.62391 1690.26 9.60391 1690.26 11.2559H1687.97C1687.97 8.39991 1690.32 6.52391 1693.85 6.52391C1697.24 6.52391 1699.53 8.31591 1699.53 12.0119V20.6079H1697.29L1697.01 18.3959C1696.31 19.9639 1694.44 20.9439 1692.22 20.9439ZM1692.98 18.8999C1695.47 18.8999 1696.98 17.2759 1696.98 14.6999V13.9719L1693.48 14.2519C1691.16 14.4759 1690.21 15.3719 1690.21 16.7159C1690.21 18.1719 1691.27 18.8999 1692.98 18.8999ZM1711.02 6.80391V9.21191H1709.84C1707.35 9.21191 1705.81 10.7239 1705.81 13.3559V20.6079H1703.18V6.94391H1705.64L1705.81 9.01591C1706.37 7.58791 1707.74 6.63591 1709.62 6.63591C1710.09 6.63591 1710.48 6.69191 1711.02 6.80391ZM1714.77 3.66791C1713.82 3.66791 1713.04 2.88391 1713.04 1.93191C1713.04 0.95191 1713.82 0.195909 1714.77 0.195909C1715.73 0.195909 1716.51 0.95191 1716.51 1.93191C1716.51 2.88391 1715.73 3.66791 1714.77 3.66791ZM1713.49 20.6079V6.91591H1716.12V20.6079H1713.49ZM1719.04 13.7479C1719.04 9.51991 1722.07 6.55191 1726.18 6.55191C1730.27 6.55191 1733.29 9.51991 1733.29 13.7479C1733.29 17.9759 1730.27 20.9439 1726.18 20.9439C1722.07 20.9439 1719.04 17.9759 1719.04 13.7479ZM1721.7 13.7479C1721.7 16.6039 1723.52 18.5919 1726.18 18.5919C1728.81 18.5919 1730.66 16.6039 1730.66 13.7479C1730.66 10.8919 1728.81 8.90391 1726.18 8.90391C1723.52 8.90391 1721.7 10.8919 1721.7 13.7479ZM1745.34 6.91591H1747.95V20.6079H1745.6L1745.32 18.5359C1744.53 19.9639 1742.71 20.9439 1740.7 20.9439C1737.5 20.9439 1735.71 18.7879 1735.71 15.4279V6.91591H1738.34V14.5599C1738.34 17.4999 1739.6 18.6199 1741.62 18.6199C1744.03 18.6199 1745.34 17.0799 1745.34 14.1399V6.91591ZM1750.37 16.6319H1752.89C1752.89 18.0319 1753.96 18.8719 1755.69 18.8719C1757.54 18.8719 1758.61 18.1159 1758.61 16.8559C1758.61 15.9319 1758.16 15.3719 1756.73 15.0079L1754.32 14.4479C1751.89 13.8599 1750.74 12.6559 1750.74 10.6399C1750.74 8.11991 1752.87 6.52391 1755.89 6.52391C1758.89 6.52391 1760.85 8.20391 1760.9 10.8079H1758.38C1758.33 9.43591 1757.4 8.56791 1755.81 8.56791C1754.15 8.56791 1753.23 9.29591 1753.23 10.5559C1753.23 11.4799 1753.9 12.0959 1755.25 12.4319L1757.65 13.0199C1759.98 13.5799 1761.13 14.6439 1761.13 16.6879C1761.13 19.2919 1758.89 20.9439 1755.64 20.9439C1752.42 20.9439 1750.37 19.2359 1750.37 16.6319ZM1770.8 13.7759C1770.8 9.49191 1773.52 6.52391 1777.52 6.52391C1780.97 6.52391 1783.38 8.48391 1783.85 11.5359H1781.22C1780.77 9.79991 1779.37 8.87591 1777.61 8.87591C1775.12 8.87591 1773.41 10.7799 1773.41 13.7479C1773.41 16.6879 1775 18.5919 1777.5 18.5919C1779.37 18.5919 1780.77 17.6119 1781.25 15.9879H1783.88C1783.35 18.9559 1780.8 20.9439 1777.5 20.9439C1773.46 20.9439 1770.8 18.0879 1770.8 13.7759ZM1785.76 13.7479C1785.76 9.51991 1788.79 6.55191 1792.9 6.55191C1796.99 6.55191 1800.01 9.51991 1800.01 13.7479C1800.01 17.9759 1796.99 20.9439 1792.9 20.9439C1788.79 20.9439 1785.76 17.9759 1785.76 13.7479ZM1788.42 13.7479C1788.42 16.6039 1790.24 18.5919 1792.9 18.5919C1795.53 18.5919 1797.38 16.6039 1797.38 13.7479C1797.38 10.8919 1795.53 8.90391 1792.9 8.90391C1790.24 8.90391 1788.42 10.8919 1788.42 13.7479ZM1805.56 20.6079H1802.93V6.91591H1805.31L1805.59 9.01591C1806.45 7.44791 1808.19 6.52391 1810.12 6.52391C1813.73 6.52391 1815.39 8.73591 1815.39 12.2359V20.6079H1812.75V12.8239C1812.75 10.0519 1811.47 8.93191 1809.45 8.93191C1806.99 8.93191 1805.56 10.6959 1805.56 13.3559V20.6079ZM1822.9 20.6079H1820.26V9.12791H1817.58V6.91591H1820.26V2.63191H1822.9V6.91591H1825.58V9.12791H1822.9V20.6079ZM1833.72 20.9439C1829.69 20.9439 1826.91 18.0319 1826.91 13.7759C1826.91 9.49191 1829.63 6.52391 1833.61 6.52391C1837.5 6.52391 1840.05 9.21191 1840.05 13.2719V14.2519L1829.46 14.2799C1829.66 17.1639 1831.17 18.7599 1833.77 18.7599C1835.82 18.7599 1837.16 17.9199 1837.61 16.3519H1840.07C1839.4 19.2919 1837.11 20.9439 1833.72 20.9439ZM1833.61 8.73591C1831.31 8.73591 1829.85 10.1079 1829.52 12.5159H1837.41C1837.41 10.2479 1835.93 8.73591 1833.61 8.73591ZM1845.62 20.6079H1842.99V6.91591H1845.37L1845.65 9.01591C1846.51 7.44791 1848.25 6.52391 1850.18 6.52391C1853.79 6.52391 1855.45 8.73591 1855.45 12.2359V20.6079H1852.81V12.8239C1852.81 10.0519 1851.53 8.93191 1849.51 8.93191C1847.05 8.93191 1845.62 10.6959 1845.62 13.3559V20.6079ZM1862.96 20.6079H1860.32V9.12791H1857.64V6.91591H1860.32V2.63191H1862.96V6.91591H1865.64V9.12791H1862.96V20.6079ZM1867.32 14.3639V12.0119H1875.86V14.3639H1867.32ZM1885 20.9439C1881.03 20.9439 1878.62 17.9759 1878.62 13.8039C1878.62 9.60391 1881.06 6.52391 1885.12 6.52391C1887.22 6.52391 1888.98 7.44791 1889.9 9.12791V-9.15527e-05H1892.51V20.6079H1890.16L1889.93 18.1159C1889.04 19.9919 1887.19 20.9439 1885 20.9439ZM1885.54 18.5639C1888.22 18.5639 1889.88 16.5759 1889.88 13.7199C1889.88 10.9199 1888.22 8.90391 1885.54 8.90391C1882.85 8.90391 1881.28 10.9199 1881.28 13.7199C1881.28 16.5479 1882.85 18.5639 1885.54 18.5639ZM1904.15 6.80391V9.21191H1902.97C1900.48 9.21191 1898.94 10.7239 1898.94 13.3559V20.6079H1896.31V6.94391H1898.77L1898.94 9.01591C1899.5 7.58791 1900.87 6.63591 1902.75 6.63591C1903.22 6.63591 1903.61 6.69191 1904.15 6.80391ZM1907.9 3.66791C1906.95 3.66791 1906.17 2.88391 1906.17 1.93191C1906.17 0.95191 1906.95 0.195909 1907.9 0.195909C1908.85 0.195909 1909.64 0.95191 1909.64 1.93191C1909.64 2.88391 1908.85 3.66791 1907.9 3.66791ZM1906.61 20.6079V6.91591H1909.25V20.6079H1906.61ZM1916.9 20.6079L1911.39 6.91591H1914.19L1917.18 14.5599C1917.66 15.8479 1918.05 16.9959 1918.28 17.8359C1918.5 16.9399 1918.95 15.7639 1919.42 14.5599L1922.48 6.91591H1925.22L1919.51 20.6079H1916.9ZM1932.59 20.9439C1928.56 20.9439 1925.79 18.0319 1925.79 13.7759C1925.79 9.49191 1928.5 6.52391 1932.48 6.52391C1936.37 6.52391 1938.92 9.21191 1938.92 13.2719V14.2519L1928.34 14.2799C1928.53 17.1639 1930.04 18.7599 1932.65 18.7599C1934.69 18.7599 1936.04 17.9199 1936.48 16.3519H1938.95C1938.28 19.2919 1935.98 20.9439 1932.59 20.9439ZM1932.48 8.73591C1930.18 8.73591 1928.73 10.1079 1928.39 12.5159H1936.29C1936.29 10.2479 1934.8 8.73591 1932.48 8.73591ZM1944.49 20.6079H1941.86V6.91591H1944.24L1944.52 9.01591C1945.39 7.44791 1947.12 6.52391 1949.06 6.52391C1952.67 6.52391 1954.32 8.73591 1954.32 12.2359V20.6079H1951.69V12.8239C1951.69 10.0519 1950.4 8.93191 1948.38 8.93191C1945.92 8.93191 1944.49 10.6959 1944.49 13.3559V20.6079ZM1971.11 20.9439C1967.13 20.9439 1964.73 17.9759 1964.73 13.8039C1964.73 9.60391 1967.16 6.52391 1971.22 6.52391C1973.32 6.52391 1975.09 7.44791 1976.01 9.12791V-9.15527e-05H1978.61V20.6079H1976.26L1976.04 18.1159C1975.14 19.9919 1973.29 20.9439 1971.11 20.9439ZM1971.64 18.5639C1974.33 18.5639 1975.98 16.5759 1975.98 13.7199C1975.98 10.9199 1974.33 8.90391 1971.64 8.90391C1968.95 8.90391 1967.39 10.9199 1967.39 13.7199C1967.39 16.5479 1968.95 18.5639 1971.64 18.5639ZM1983.7 3.66791C1982.75 3.66791 1981.96 2.88391 1981.96 1.93191C1981.96 0.95191 1982.75 0.195909 1983.7 0.195909C1984.65 0.195909 1985.44 0.95191 1985.44 1.93191C1985.44 2.88391 1984.65 3.66791 1983.7 3.66791ZM1982.41 20.6079V6.91591H1985.04V20.6079H1982.41ZM1988 13.4119C1988 9.54791 1990.49 6.52391 1994.46 6.52391C1996.68 6.52391 1998.38 7.53191 1999.25 9.23991L1999.45 6.91591H2001.8V20.0479C2001.8 24.3599 1999.14 27.1039 1994.94 27.1039C1991.22 27.1039 1988.67 25.0039 1988.16 21.5319H1990.8C1991.13 23.5479 1992.64 24.7239 1994.94 24.7239C1997.52 24.7239 1999.2 23.0439 1999.2 20.4399V17.6959C1998.3 19.2919 1996.51 20.2439 1994.35 20.2439C1990.46 20.2439 1988 17.2479 1988 13.4119ZM1990.63 13.3559C1990.63 15.9319 1992.22 17.9479 1994.8 17.9479C1997.46 17.9479 1999.08 16.0439 1999.08 13.3559C1999.08 10.7239 1997.52 8.81991 1994.83 8.81991C1992.2 8.81991 1990.63 10.8359 1990.63 13.3559ZM2006.89 3.66791C2005.93 3.66791 2005.15 2.88391 2005.15 1.93191C2005.15 0.95191 2005.93 0.195909 2006.89 0.195909C2007.84 0.195909 2008.62 0.95191 2008.62 1.93191C2008.62 2.88391 2007.84 3.66791 2006.89 3.66791ZM2005.6 20.6079V6.91591H2008.23V20.6079H2005.6ZM2015.92 20.6079H2013.28V9.12791H2010.6V6.91591H2013.28V2.63191H2015.92V6.91591H2018.6V9.12791H2015.92V20.6079ZM2024.81 20.9439C2021.87 20.9439 2020.13 19.2919 2020.13 16.7999C2020.13 14.2799 2022.01 12.7119 2025.23 12.4599L2029.54 12.1239V11.7319C2029.54 9.43591 2028.17 8.62391 2026.32 8.62391C2024.11 8.62391 2022.85 9.60391 2022.85 11.2559H2020.55C2020.55 8.39991 2022.9 6.52391 2026.43 6.52391C2029.82 6.52391 2032.11 8.31591 2032.11 12.0119V20.6079H2029.87L2029.59 18.3959C2028.89 19.9639 2027.02 20.9439 2024.81 20.9439ZM2025.56 18.8999C2028.05 18.8999 2029.57 17.2759 2029.57 14.6999V13.9719L2026.07 14.2519C2023.74 14.4759 2022.79 15.3719 2022.79 16.7159C2022.79 18.1719 2023.85 18.8999 2025.56 18.8999ZM2038.45 20.6079H2035.81V-9.15527e-05H2038.45V20.6079ZM2049.98 26.7399V6.91591H2052.36L2052.55 9.37991C2053.48 7.50391 2055.33 6.52391 2057.51 6.52391C2061.43 6.52391 2063.87 9.46391 2063.87 13.6639C2063.87 17.8359 2061.57 20.9719 2057.51 20.9719C2055.33 20.9719 2053.51 20.0479 2052.61 18.3679V26.7399H2049.98ZM2052.64 13.7759C2052.64 16.5759 2054.26 18.5919 2056.95 18.5919C2059.64 18.5919 2061.23 16.5759 2061.23 13.7759C2061.23 10.9479 2059.64 8.93191 2056.95 8.93191C2054.26 8.93191 2052.64 10.9199 2052.64 13.7759ZM2074.61 6.80391V9.21191H2073.43C2070.94 9.21191 2069.4 10.7239 2069.4 13.3559V20.6079H2066.77V6.94391H2069.23L2069.4 9.01591C2069.96 7.58791 2071.33 6.63591 2073.21 6.63591C2073.68 6.63591 2074.07 6.69191 2074.61 6.80391ZM2075.69 13.7479C2075.69 9.51991 2078.71 6.55191 2082.83 6.55191C2086.92 6.55191 2089.94 9.51991 2089.94 13.7479C2089.94 17.9759 2086.92 20.9439 2082.83 20.9439C2078.71 20.9439 2075.69 17.9759 2075.69 13.7479ZM2078.35 13.7479C2078.35 16.6039 2080.17 18.5919 2082.83 18.5919C2085.46 18.5919 2087.31 16.6039 2087.31 13.7479C2087.31 10.8919 2085.46 8.90391 2082.83 8.90391C2080.17 8.90391 2078.35 10.8919 2078.35 13.7479ZM2098.34 20.9439C2094.36 20.9439 2091.96 17.9759 2091.96 13.8039C2091.96 9.60391 2094.39 6.52391 2098.45 6.52391C2100.55 6.52391 2102.32 7.44791 2103.24 9.12791V-9.15527e-05H2105.84V20.6079H2103.49L2103.27 18.1159C2102.37 19.9919 2100.52 20.9439 2098.34 20.9439ZM2098.87 18.5639C2101.56 18.5639 2103.21 16.5759 2103.21 13.7199C2103.21 10.9199 2101.56 8.90391 2098.87 8.90391C2096.18 8.90391 2094.62 10.9199 2094.62 13.7199C2094.62 16.5479 2096.18 18.5639 2098.87 18.5639ZM2119.11 6.91591H2121.71V20.6079H2119.36L2119.08 18.5359C2118.29 19.9639 2116.47 20.9439 2114.46 20.9439C2111.27 20.9439 2109.47 18.7879 2109.47 15.4279V6.91591H2112.11V14.5599C2112.11 17.4999 2113.37 18.6199 2115.38 18.6199C2117.79 18.6199 2119.11 17.0799 2119.11 14.1399V6.91591ZM2124.36 13.7759C2124.36 9.49191 2127.08 6.52391 2131.08 6.52391C2134.52 6.52391 2136.93 8.48391 2137.41 11.5359H2134.78C2134.33 9.79991 2132.93 8.87591 2131.16 8.87591C2128.67 8.87591 2126.96 10.7799 2126.96 13.7479C2126.96 16.6879 2128.56 18.5919 2131.05 18.5919C2132.93 18.5919 2134.33 17.6119 2134.8 15.9879H2137.44C2136.9 18.9559 2134.36 20.9439 2131.05 20.9439C2127.02 20.9439 2124.36 18.0879 2124.36 13.7759ZM2144.08 20.6079H2141.44V9.12791H2138.76V6.91591H2141.44V2.63191H2144.08V6.91591H2146.76V9.12791H2144.08V20.6079ZM2148.01 16.6319H2150.53C2150.53 18.0319 2151.59 18.8719 2153.33 18.8719C2155.17 18.8719 2156.24 18.1159 2156.24 16.8559C2156.24 15.9319 2155.79 15.3719 2154.36 15.0079L2151.95 14.4479C2149.52 13.8599 2148.37 12.6559 2148.37 10.6399C2148.37 8.11991 2150.5 6.52391 2153.52 6.52391C2156.52 6.52391 2158.48 8.20391 2158.53 10.8079H2156.01C2155.96 9.43591 2155.03 8.56791 2153.44 8.56791C2151.79 8.56791 2150.86 9.29591 2150.86 10.5559C2150.86 11.4799 2151.53 12.0959 2152.88 12.4319L2155.29 13.0199C2157.61 13.5799 2158.76 14.6439 2158.76 16.6879C2158.76 19.2919 2156.52 20.9439 2153.27 20.9439C2150.05 20.9439 2148.01 19.2359 2148.01 16.6319ZM2163.47 20.9439C2162.38 20.9439 2161.46 20.0479 2161.46 18.9839C2161.46 17.8919 2162.38 16.9959 2163.47 16.9959C2164.54 16.9959 2165.46 17.8919 2165.46 18.9839C2165.46 20.0479 2164.54 20.9439 2163.47 20.9439Z" fill="black"/>
</svg>
