<svg width="1029" height="28" viewBox="0 0 1029 28" fill="none" xmlns="http://www.w3.org/2000/svg">
<path d="M2.74444 0.364397V20.6084H0.000437677V0.364397H2.74444ZM6.12128 13.7764C6.12128 9.4924 8.83728 6.5244 12.8413 6.5244C16.2853 6.5244 18.6933 8.4844 19.1693 11.5364H16.5373C16.0893 9.8004 14.6893 8.8764 12.9253 8.8764C10.4333 8.8764 8.72528 10.7804 8.72528 13.7484C8.72528 16.6884 10.3213 18.5924 12.8133 18.5924C14.6893 18.5924 16.0893 17.6124 16.5653 15.9884H19.1973C18.6653 18.9564 16.1173 20.9444 12.8133 20.9444C8.78128 20.9444 6.12128 18.0884 6.12128 13.7764ZM21.0783 13.7484C21.0783 9.5204 24.1023 6.5524 28.2183 6.5524C32.3063 6.5524 35.3303 9.5204 35.3303 13.7484C35.3303 17.9764 32.3063 20.9444 28.2183 20.9444C24.1023 20.9444 21.0783 17.9764 21.0783 13.7484ZM23.7383 13.7484C23.7383 16.6044 25.5583 18.5924 28.2183 18.5924C30.8503 18.5924 32.6983 16.6044 32.6983 13.7484C32.6983 10.8924 30.8503 8.9044 28.2183 8.9044C25.5583 8.9044 23.7383 10.8924 23.7383 13.7484ZM40.8758 20.6084H38.2438V6.9164H40.6238L40.9038 9.0164C41.7718 7.4484 43.5078 6.5244 45.4398 6.5244C49.0518 6.5244 50.7038 8.7364 50.7038 12.2364V20.6084H48.0718V12.8244C48.0718 10.0524 46.7838 8.9324 44.7678 8.9324C42.3038 8.9324 40.8758 10.6964 40.8758 13.3564V20.6084ZM53.0653 16.6324H55.5853C55.5853 18.0324 56.6493 18.8724 58.3853 18.8724C60.2333 18.8724 61.2973 18.1164 61.2973 16.8564C61.2973 15.9324 60.8493 15.3724 59.4213 15.0084L57.0133 14.4484C54.5773 13.8604 53.4293 12.6564 53.4293 10.6404C53.4293 8.1204 55.5573 6.5244 58.5813 6.5244C61.5773 6.5244 63.5373 8.2044 63.5933 10.8084H61.0733C61.0173 9.4364 60.0933 8.5684 58.4973 8.5684C56.8453 8.5684 55.9213 9.2964 55.9213 10.5564C55.9213 11.4804 56.5933 12.0964 57.9373 12.4324L60.3453 13.0204C62.6693 13.5804 63.8173 14.6444 63.8173 16.6884C63.8173 19.2924 61.5773 20.9444 58.3293 20.9444C55.1093 20.9444 53.0653 19.2364 53.0653 16.6324ZM82.2323 6.8044V9.2124H81.0563C78.5643 9.2124 77.0243 10.7244 77.0243 13.3564V20.6084H74.3923V6.9444H76.8563L77.0243 9.0164C77.5843 7.5884 78.9563 6.6364 80.8323 6.6364C81.3083 6.6364 81.7003 6.6924 82.2323 6.8044ZM90.1167 20.9444C86.0847 20.9444 83.3127 18.0324 83.3127 13.7764C83.3127 9.4924 86.0287 6.5244 90.0047 6.5244C93.8967 6.5244 96.4447 9.2124 96.4447 13.2724V14.2524L85.8607 14.2804C86.0567 17.1644 87.5687 18.7604 90.1727 18.7604C92.2167 18.7604 93.5607 17.9204 94.0087 16.3524H96.4727C95.8007 19.2924 93.5047 20.9444 90.1167 20.9444ZM90.0047 8.7364C87.7087 8.7364 86.2527 10.1084 85.9167 12.5164H93.8127C93.8127 10.2484 92.3287 8.7364 90.0047 8.7364ZM99.3845 26.7404V6.9164H101.764L101.96 9.3804C102.884 7.5044 104.732 6.5244 106.916 6.5244C110.836 6.5244 113.272 9.4644 113.272 13.6644C113.272 17.8364 110.976 20.9724 106.916 20.9724C104.732 20.9724 102.912 20.0484 102.016 18.3684V26.7404H99.3845ZM102.044 13.7764C102.044 16.5764 103.668 18.5924 106.356 18.5924C109.044 18.5924 110.64 16.5764 110.64 13.7764C110.64 10.9484 109.044 8.9324 106.356 8.9324C103.668 8.9324 102.044 10.9204 102.044 13.7764ZM124.014 6.8044V9.2124H122.838C120.346 9.2124 118.806 10.7244 118.806 13.3564V20.6084H116.174V6.9444H118.638L118.806 9.0164C119.366 7.5884 120.738 6.6364 122.614 6.6364C123.09 6.6364 123.482 6.6924 124.014 6.8044ZM131.898 20.9444C127.866 20.9444 125.094 18.0324 125.094 13.7764C125.094 9.4924 127.81 6.5244 131.786 6.5244C135.678 6.5244 138.226 9.2124 138.226 13.2724V14.2524L127.642 14.2804C127.838 17.1644 129.35 18.7604 131.954 18.7604C133.998 18.7604 135.342 17.9204 135.79 16.3524H138.254C137.582 19.2924 135.286 20.9444 131.898 20.9444ZM131.786 8.7364C129.49 8.7364 128.034 10.1084 127.698 12.5164H135.594C135.594 10.2484 134.11 8.7364 131.786 8.7364ZM140.046 16.6324H142.566C142.566 18.0324 143.63 18.8724 145.366 18.8724C147.214 18.8724 148.278 18.1164 148.278 16.8564C148.278 15.9324 147.83 15.3724 146.402 15.0084L143.994 14.4484C141.558 13.8604 140.41 12.6564 140.41 10.6404C140.41 8.1204 142.538 6.5244 145.562 6.5244C148.558 6.5244 150.518 8.2044 150.574 10.8084H148.054C147.998 9.4364 147.074 8.5684 145.478 8.5684C143.826 8.5684 142.902 9.2964 142.902 10.5564C142.902 11.4804 143.574 12.0964 144.918 12.4324L147.326 13.0204C149.65 13.5804 150.798 14.6444 150.798 16.6884C150.798 19.2924 148.558 20.9444 145.31 20.9444C142.09 20.9444 140.046 19.2364 140.046 16.6324ZM159.625 20.9444C155.593 20.9444 152.821 18.0324 152.821 13.7764C152.821 9.4924 155.537 6.5244 159.513 6.5244C163.405 6.5244 165.952 9.2124 165.952 13.2724V14.2524L155.369 14.2804C155.565 17.1644 157.077 18.7604 159.681 18.7604C161.725 18.7604 163.069 17.9204 163.517 16.3524H165.981C165.309 19.2924 163.013 20.9444 159.625 20.9444ZM159.513 8.7364C157.217 8.7364 155.761 10.1084 155.425 12.5164H163.321C163.321 10.2484 161.837 8.7364 159.513 8.7364ZM171.524 20.6084H168.892V6.9164H171.272L171.552 9.0164C172.42 7.4484 174.156 6.5244 176.088 6.5244C179.7 6.5244 181.352 8.7364 181.352 12.2364V20.6084H178.72V12.8244C178.72 10.0524 177.432 8.9324 175.416 8.9324C172.952 8.9324 171.524 10.6964 171.524 13.3564V20.6084ZM188.862 20.6084H186.23V9.1284H183.542V6.9164H186.23V2.6324H188.862V6.9164H191.55V9.1284H188.862V20.6084ZM195.2 3.6684C194.248 3.6684 193.464 2.8844 193.464 1.9324C193.464 0.952398 194.248 0.196398 195.2 0.196398C196.152 0.196398 196.936 0.952398 196.936 1.9324C196.936 2.8844 196.152 3.6684 195.2 3.6684ZM193.912 20.6084V6.9164H196.544V20.6084H193.912ZM202.997 20.6084H200.365V6.9164H202.745L203.025 9.0164C203.893 7.4484 205.629 6.5244 207.561 6.5244C211.173 6.5244 212.825 8.7364 212.825 12.2364V20.6084H210.193V12.8244C210.193 10.0524 208.905 8.9324 206.889 8.9324C204.425 8.9324 202.997 10.6964 202.997 13.3564V20.6084ZM215.602 13.4124C215.602 9.5484 218.094 6.5244 222.07 6.5244C224.282 6.5244 225.99 7.5324 226.858 9.2404L227.054 6.9164H229.406V20.0484C229.406 24.3604 226.746 27.1044 222.546 27.1044C218.822 27.1044 216.274 25.0044 215.77 21.5324H218.402C218.738 23.5484 220.25 24.7244 222.546 24.7244C225.122 24.7244 226.802 23.0444 226.802 20.4404V17.6964C225.906 19.2924 224.114 20.2444 221.958 20.2444C218.066 20.2444 215.602 17.2484 215.602 13.4124ZM218.234 13.3564C218.234 15.9324 219.83 17.9484 222.406 17.9484C225.066 17.9484 226.69 16.0444 226.69 13.3564C226.69 10.7244 225.122 8.8204 222.434 8.8204C219.802 8.8204 218.234 10.8364 218.234 13.3564ZM239.741 16.6324H242.261C242.261 18.0324 243.325 18.8724 245.061 18.8724C246.909 18.8724 247.973 18.1164 247.973 16.8564C247.973 15.9324 247.525 15.3724 246.097 15.0084L243.689 14.4484C241.253 13.8604 240.105 12.6564 240.105 10.6404C240.105 8.1204 242.233 6.5244 245.257 6.5244C248.253 6.5244 250.213 8.2044 250.269 10.8084H247.749C247.693 9.4364 246.769 8.5684 245.173 8.5684C243.521 8.5684 242.597 9.2964 242.597 10.5564C242.597 11.4804 243.269 12.0964 244.613 12.4324L247.021 13.0204C249.345 13.5804 250.493 14.6444 250.493 16.6884C250.493 19.2924 248.253 20.9444 245.005 20.9444C241.785 20.9444 239.741 19.2364 239.741 16.6324ZM257.276 20.6084H254.644V9.1284H251.956V6.9164H254.644V2.6324H257.276V6.9164H259.964V9.1284H257.276V20.6084ZM261.293 13.7484C261.293 9.5204 264.317 6.5524 268.433 6.5524C272.521 6.5524 275.545 9.5204 275.545 13.7484C275.545 17.9764 272.521 20.9444 268.433 20.9444C264.317 20.9444 261.293 17.9764 261.293 13.7484ZM263.953 13.7484C263.953 16.6044 265.773 18.5924 268.433 18.5924C271.065 18.5924 272.913 16.6044 272.913 13.7484C272.913 10.8924 271.065 8.9044 268.433 8.9044C265.773 8.9044 263.953 10.8924 263.953 13.7484ZM286.299 6.8044V9.2124H285.123C282.631 9.2124 281.091 10.7244 281.091 13.3564V20.6084H278.459V6.9444H280.923L281.091 9.0164C281.651 7.5884 283.023 6.6364 284.899 6.6364C285.375 6.6364 285.767 6.6924 286.299 6.8044ZM290.055 3.6684C289.103 3.6684 288.319 2.8844 288.319 1.9324C288.319 0.952398 289.103 0.196398 290.055 0.196398C291.007 0.196398 291.791 0.952398 291.791 1.9324C291.791 2.8844 291.007 3.6684 290.055 3.6684ZM288.767 20.6084V6.9164H291.399V20.6084H288.767ZM297.852 20.6084H295.22V6.9164H297.6L297.88 9.0164C298.748 7.4484 300.484 6.5244 302.416 6.5244C306.028 6.5244 307.68 8.7364 307.68 12.2364V20.6084H305.048V12.8244C305.048 10.0524 303.76 8.9324 301.744 8.9324C299.28 8.9324 297.852 10.6964 297.852 13.3564V20.6084ZM310.458 13.4124C310.458 9.5484 312.95 6.5244 316.926 6.5244C319.138 6.5244 320.846 7.5324 321.714 9.2404L321.91 6.9164H324.262V20.0484C324.262 24.3604 321.602 27.1044 317.402 27.1044C313.678 27.1044 311.13 25.0044 310.626 21.5324H313.258C313.594 23.5484 315.106 24.7244 317.402 24.7244C319.978 24.7244 321.658 23.0444 321.658 20.4404V17.6964C320.762 19.2924 318.97 20.2444 316.814 20.2444C312.922 20.2444 310.458 17.2484 310.458 13.4124ZM313.09 13.3564C313.09 15.9324 314.686 17.9484 317.262 17.9484C319.922 17.9484 321.546 16.0444 321.546 13.3564C321.546 10.7244 319.978 8.8204 317.29 8.8204C314.658 8.8204 313.09 10.8364 313.09 13.3564ZM332.008 19.5164C332.008 21.5324 330.496 23.2124 328.508 23.4644V22.2884C329.656 22.0924 330.468 21.3364 330.468 20.4684C330.272 20.5804 330.048 20.6364 329.712 20.6364C328.788 20.6364 328.004 19.9644 328.004 18.9284C328.004 17.8084 328.76 16.9964 329.88 16.9964C331.056 16.9964 332.008 17.9764 332.008 19.5164ZM352.723 20.6084V9.1284H346.647V20.6084H344.015V9.1284H341.999V6.9164H344.015V4.7324C344.015 1.3724 345.835 0.000396729 348.215 0.000396729C348.719 0.000396729 349.335 0.028398 349.839 0.112397V2.3804H348.663C347.067 2.3804 346.647 3.2484 346.647 4.7324V6.9164H355.355V20.6084H352.723ZM354.039 3.5564C353.087 3.5564 352.359 2.8284 352.359 1.8764C352.359 0.924398 353.087 0.196398 354.039 0.196398C354.963 0.196398 355.691 0.924398 355.691 1.8764C355.691 2.8284 354.963 3.5564 354.039 3.5564ZM361.783 20.6084H359.151V0.000396729H361.783V20.6084ZM366.946 3.6684C365.994 3.6684 365.21 2.8844 365.21 1.9324C365.21 0.952398 365.994 0.196398 366.946 0.196398C367.898 0.196398 368.682 0.952398 368.682 1.9324C368.682 2.8844 367.898 3.6684 366.946 3.6684ZM365.658 20.6084V6.9164H368.29V20.6084H365.658ZM374.743 20.6084H372.111V6.9164H374.491L374.771 9.0164C375.639 7.4484 377.375 6.5244 379.307 6.5244C382.919 6.5244 384.571 8.7364 384.571 12.2364V20.6084H381.939V12.8244C381.939 10.0524 380.651 8.9324 378.635 8.9324C376.171 8.9324 374.743 10.6964 374.743 13.3564V20.6084ZM387.349 13.4124C387.349 9.5484 389.841 6.5244 393.817 6.5244C396.029 6.5244 397.737 7.5324 398.605 9.2404L398.801 6.9164H401.153V20.0484C401.153 24.3604 398.493 27.1044 394.293 27.1044C390.569 27.1044 388.021 25.0044 387.517 21.5324H390.149C390.485 23.5484 391.997 24.7244 394.293 24.7244C396.869 24.7244 398.549 23.0444 398.549 20.4404V17.6964C397.653 19.2924 395.861 20.2444 393.704 20.2444C389.812 20.2444 387.349 17.2484 387.349 13.4124ZM389.981 13.3564C389.981 15.9324 391.577 17.9484 394.153 17.9484C396.813 17.9484 398.437 16.0444 398.437 13.3564C398.437 10.7244 396.869 8.8204 394.181 8.8204C391.549 8.8204 389.981 10.8364 389.981 13.3564ZM408.899 19.5164C408.899 21.5324 407.387 23.2124 405.399 23.4644V22.2884C406.547 22.0924 407.359 21.3364 407.359 20.4684C407.163 20.5804 406.939 20.6364 406.603 20.6364C405.679 20.6364 404.895 19.9644 404.895 18.9284C404.895 17.8084 405.651 16.9964 406.771 16.9964C407.947 16.9964 408.899 17.9764 408.899 19.5164ZM422.725 20.6084H420.345V0.000396729H422.977V9.2684C423.873 7.4764 425.721 6.5244 427.961 6.5244C431.881 6.5244 434.233 9.6044 434.233 13.8324C434.233 17.9764 431.769 20.9444 427.793 20.9444C425.637 20.9444 423.817 19.9924 422.921 18.1164L422.725 20.6084ZM423.005 13.7204C423.005 16.5764 424.629 18.5644 427.317 18.5644C430.005 18.5644 431.601 16.5484 431.601 13.7204C431.601 10.9204 430.005 8.9044 427.317 8.9044C424.629 8.9044 423.005 10.9204 423.005 13.7204ZM436.238 13.7484C436.238 9.5204 439.262 6.5524 443.378 6.5524C447.466 6.5524 450.49 9.5204 450.49 13.7484C450.49 17.9764 447.466 20.9444 443.378 20.9444C439.262 20.9444 436.238 17.9764 436.238 13.7484ZM438.898 13.7484C438.898 16.6044 440.718 18.5924 443.378 18.5924C446.01 18.5924 447.858 16.6044 447.858 13.7484C447.858 10.8924 446.01 8.9044 443.378 8.9044C440.718 8.9044 438.898 10.8924 438.898 13.7484ZM452.508 13.7484C452.508 9.5204 455.532 6.5524 459.648 6.5524C463.736 6.5524 466.76 9.5204 466.76 13.7484C466.76 17.9764 463.736 20.9444 459.648 20.9444C455.532 20.9444 452.508 17.9764 452.508 13.7484ZM455.168 13.7484C455.168 16.6044 456.988 18.5924 459.648 18.5924C462.28 18.5924 464.128 16.6044 464.128 13.7484C464.128 10.8924 462.28 8.9044 459.648 8.9044C456.988 8.9044 455.168 10.8924 455.168 13.7484ZM472.362 20.6084H469.73V0.000396729H472.362V13.3564L478.438 6.9164H481.742L476.506 12.3764L481.714 20.6084H478.69L474.686 14.2804L472.362 16.7164V20.6084ZM486.524 20.6084H483.892V6.9164H486.244L486.496 8.7084C487.196 7.4204 488.652 6.5244 490.584 6.5244C492.712 6.5244 494.224 7.5884 494.924 9.2964C495.568 7.5884 497.22 6.5244 499.348 6.5244C502.484 6.5244 504.388 8.4844 504.388 11.6484V20.6084H501.812V12.2924C501.812 10.1364 500.608 8.9044 498.76 8.9044C496.772 8.9044 495.456 10.3044 495.456 12.4884V20.6084H492.852V12.2644C492.852 10.1084 491.676 8.9324 489.828 8.9324C487.84 8.9324 486.524 10.3044 486.524 12.4884V20.6084ZM512.041 20.9444C509.101 20.9444 507.365 19.2924 507.365 16.8004C507.365 14.2804 509.241 12.7124 512.461 12.4604L516.773 12.1244V11.7324C516.773 9.4364 515.401 8.6244 513.553 8.6244C511.341 8.6244 510.081 9.6044 510.081 11.2564H507.785C507.785 8.4004 510.137 6.5244 513.665 6.5244C517.053 6.5244 519.349 8.3164 519.349 12.0124V20.6084H517.109L516.829 18.3964C516.129 19.9644 514.253 20.9444 512.041 20.9444ZM512.797 18.9004C515.289 18.9004 516.801 17.2764 516.801 14.7004V13.9724L513.301 14.2524C510.977 14.4764 510.025 15.3724 510.025 16.7164C510.025 18.1724 511.089 18.9004 512.797 18.9004ZM530.834 6.8044V9.2124H529.658C527.166 9.2124 525.626 10.7244 525.626 13.3564V20.6084H522.994V6.9444H525.458L525.626 9.0164C526.186 7.5884 527.558 6.6364 529.434 6.6364C529.91 6.6364 530.302 6.6924 530.834 6.8044ZM535.99 20.6084H533.358V0.000396729H535.99V13.3564L542.066 6.9164H545.37L540.134 12.3764L545.342 20.6084H542.318L538.314 14.2804L535.99 16.7164V20.6084ZM548.809 3.6684C547.857 3.6684 547.073 2.8844 547.073 1.9324C547.073 0.952398 547.857 0.196398 548.809 0.196398C549.761 0.196398 550.545 0.952398 550.545 1.9324C550.545 2.8844 549.761 3.6684 548.809 3.6684ZM547.521 20.6084V6.9164H550.153V20.6084H547.521ZM556.606 20.6084H553.974V6.9164H556.354L556.634 9.0164C557.502 7.4484 559.238 6.5244 561.17 6.5244C564.782 6.5244 566.434 8.7364 566.434 12.2364V20.6084H563.802V12.8244C563.802 10.0524 562.514 8.9324 560.498 8.9324C558.034 8.9324 556.606 10.6964 556.606 13.3564V20.6084ZM569.212 13.4124C569.212 9.5484 571.704 6.5244 575.68 6.5244C577.892 6.5244 579.6 7.5324 580.468 9.2404L580.664 6.9164H583.016V20.0484C583.016 24.3604 580.356 27.1044 576.156 27.1044C572.432 27.1044 569.884 25.0044 569.38 21.5324H572.012C572.348 23.5484 573.86 24.7244 576.156 24.7244C578.732 24.7244 580.412 23.0444 580.412 20.4404V17.6964C579.516 19.2924 577.724 20.2444 575.568 20.2444C571.676 20.2444 569.212 17.2484 569.212 13.4124ZM571.844 13.3564C571.844 15.9324 573.44 17.9484 576.016 17.9484C578.676 17.9484 580.3 16.0444 580.3 13.3564C580.3 10.7244 578.732 8.8204 576.044 8.8204C573.412 8.8204 571.844 10.8364 571.844 13.3564ZM590.762 19.5164C590.762 21.5324 589.25 23.2124 587.262 23.4644V22.2884C588.41 22.0924 589.222 21.3364 589.222 20.4684C589.026 20.5804 588.802 20.6364 588.466 20.6364C587.542 20.6364 586.758 19.9644 586.758 18.9284C586.758 17.8084 587.514 16.9964 588.634 16.9964C589.81 16.9964 590.762 17.9764 590.762 19.5164ZM601.313 13.7484C601.313 9.5204 604.337 6.5524 608.453 6.5524C612.541 6.5524 615.565 9.5204 615.565 13.7484C615.565 17.9764 612.541 20.9444 608.453 20.9444C604.337 20.9444 601.313 17.9764 601.313 13.7484ZM603.973 13.7484C603.973 16.6044 605.793 18.5924 608.453 18.5924C611.085 18.5924 612.933 16.6044 612.933 13.7484C612.933 10.8924 611.085 8.9044 608.453 8.9044C605.793 8.9044 603.973 10.8924 603.973 13.7484ZM626.318 6.8044V9.2124H625.142C622.65 9.2124 621.11 10.7244 621.11 13.3564V20.6084H618.478V6.9444H620.942L621.11 9.0164C621.67 7.5884 623.042 6.6364 624.918 6.6364C625.394 6.6364 625.786 6.6924 626.318 6.8044ZM627.618 13.4124C627.618 9.5484 630.11 6.5244 634.086 6.5244C636.298 6.5244 638.006 7.5324 638.874 9.2404L639.07 6.9164H641.422V20.0484C641.422 24.3604 638.762 27.1044 634.562 27.1044C630.838 27.1044 628.29 25.0044 627.786 21.5324H630.418C630.754 23.5484 632.266 24.7244 634.562 24.7244C637.138 24.7244 638.818 23.0444 638.818 20.4404V17.6964C637.922 19.2924 636.13 20.2444 633.974 20.2444C630.082 20.2444 627.618 17.2484 627.618 13.4124ZM630.25 13.3564C630.25 15.9324 631.846 17.9484 634.422 17.9484C637.082 17.9484 638.706 16.0444 638.706 13.3564C638.706 10.7244 637.138 8.8204 634.45 8.8204C631.818 8.8204 630.25 10.8364 630.25 13.3564ZM649.224 20.9444C646.284 20.9444 644.548 19.2924 644.548 16.8004C644.548 14.2804 646.424 12.7124 649.644 12.4604L653.956 12.1244V11.7324C653.956 9.4364 652.584 8.6244 650.736 8.6244C648.524 8.6244 647.264 9.6044 647.264 11.2564H644.968C644.968 8.4004 647.32 6.5244 650.848 6.5244C654.236 6.5244 656.532 8.3164 656.532 12.0124V20.6084H654.292L654.012 18.3964C653.312 19.9644 651.436 20.9444 649.224 20.9444ZM649.98 18.9004C652.472 18.9004 653.984 17.2764 653.984 14.7004V13.9724L650.484 14.2524C648.16 14.4764 647.208 15.3724 647.208 16.7164C647.208 18.1724 648.272 18.9004 649.98 18.9004ZM662.809 20.6084H660.177V6.9164H662.557L662.837 9.0164C663.705 7.4484 665.441 6.5244 667.373 6.5244C670.985 6.5244 672.637 8.7364 672.637 12.2364V20.6084H670.005V12.8244C670.005 10.0524 668.717 8.9324 666.701 8.9324C664.237 8.9324 662.809 10.6964 662.809 13.3564V20.6084ZM677.571 3.6684C676.619 3.6684 675.835 2.8844 675.835 1.9324C675.835 0.952398 676.619 0.196398 677.571 0.196398C678.523 0.196398 679.307 0.952398 679.307 1.9324C679.307 2.8844 678.523 3.6684 677.571 3.6684ZM676.283 20.6084V6.9164H678.915V20.6084H676.283ZM692.564 20.6084H681.896V18.4804L689.288 9.1284H681.896V6.9164H692.564V9.0724L685.116 18.3964H692.564V20.6084ZM696.821 3.6684C695.869 3.6684 695.085 2.8844 695.085 1.9324C695.085 0.952398 695.869 0.196398 696.821 0.196398C697.773 0.196398 698.557 0.952398 698.557 1.9324C698.557 2.8844 697.773 3.6684 696.821 3.6684ZM695.533 20.6084V6.9164H698.165V20.6084H695.533ZM704.618 20.6084H701.986V6.9164H704.366L704.646 9.0164C705.514 7.4484 707.25 6.5244 709.182 6.5244C712.794 6.5244 714.446 8.7364 714.446 12.2364V20.6084H711.814V12.8244C711.814 10.0524 710.526 8.9324 708.51 8.9324C706.046 8.9324 704.618 10.6964 704.618 13.3564V20.6084ZM717.224 13.4124C717.224 9.5484 719.716 6.5244 723.692 6.5244C725.904 6.5244 727.612 7.5324 728.48 9.2404L728.676 6.9164H731.028V20.0484C731.028 24.3604 728.368 27.1044 724.168 27.1044C720.444 27.1044 717.896 25.0044 717.392 21.5324H720.024C720.36 23.5484 721.872 24.7244 724.168 24.7244C726.744 24.7244 728.424 23.0444 728.424 20.4404V17.6964C727.528 19.2924 725.736 20.2444 723.579 20.2444C719.688 20.2444 717.224 17.2484 717.224 13.4124ZM719.856 13.3564C719.856 15.9324 721.452 17.9484 724.028 17.9484C726.688 17.9484 728.312 16.0444 728.312 13.3564C728.312 10.7244 726.744 8.8204 724.056 8.8204C721.424 8.8204 719.856 10.8364 719.856 13.3564ZM738.774 19.5164C738.774 21.5324 737.262 23.2124 735.274 23.4644V22.2884C736.422 22.0924 737.234 21.3364 737.234 20.4684C737.038 20.5804 736.814 20.6364 736.478 20.6364C735.554 20.6364 734.77 19.9644 734.77 18.9284C734.77 17.8084 735.526 16.9964 736.646 16.9964C737.822 16.9964 738.774 17.9764 738.774 19.5164ZM754.224 20.9444C751.284 20.9444 749.548 19.2924 749.548 16.8004C749.548 14.2804 751.424 12.7124 754.644 12.4604L758.956 12.1244V11.7324C758.956 9.4364 757.584 8.6244 755.736 8.6244C753.524 8.6244 752.264 9.6044 752.264 11.2564H749.968C749.968 8.4004 752.32 6.5244 755.848 6.5244C759.236 6.5244 761.532 8.3164 761.532 12.0124V20.6084H759.292L759.012 18.3964C758.312 19.9644 756.436 20.9444 754.224 20.9444ZM754.98 18.9004C757.472 18.9004 758.984 17.2764 758.984 14.7004V13.9724L755.484 14.2524C753.16 14.4764 752.208 15.3724 752.208 16.7164C752.208 18.1724 753.272 18.9004 754.98 18.9004ZM767.809 20.6084H765.177V6.9164H767.557L767.837 9.0164C768.705 7.4484 770.441 6.5244 772.373 6.5244C775.985 6.5244 777.637 8.7364 777.637 12.2364V20.6084H775.005V12.8244C775.005 10.0524 773.717 8.9324 771.701 8.9324C769.237 8.9324 767.809 10.6964 767.809 13.3564V20.6084ZM786.771 20.9444C782.795 20.9444 780.387 17.9764 780.387 13.8044C780.387 9.6044 782.823 6.5244 786.883 6.5244C788.983 6.5244 790.747 7.4484 791.671 9.1284V0.000396729H794.275V20.6084H791.923L791.699 18.1164C790.803 19.9924 788.955 20.9444 786.771 20.9444ZM787.303 18.5644C789.991 18.5644 791.643 16.5764 791.643 13.7204C791.643 10.9204 789.991 8.9044 787.303 8.9044C784.615 8.9044 783.047 10.9204 783.047 13.7204C783.047 16.5484 784.615 18.5644 787.303 18.5644ZM809.732 20.9444C806.792 20.9444 805.056 19.2924 805.056 16.8004C805.056 14.2804 806.932 12.7124 810.152 12.4604L814.464 12.1244V11.7324C814.464 9.4364 813.092 8.6244 811.244 8.6244C809.032 8.6244 807.772 9.6044 807.772 11.2564H805.476C805.476 8.4004 807.828 6.5244 811.356 6.5244C814.744 6.5244 817.04 8.3164 817.04 12.0124V20.6084H814.8L814.52 18.3964C813.82 19.9644 811.944 20.9444 809.732 20.9444ZM810.488 18.9004C812.98 18.9004 814.492 17.2764 814.492 14.7004V13.9724L810.992 14.2524C808.668 14.4764 807.716 15.3724 807.716 16.7164C807.716 18.1724 808.78 18.9004 810.488 18.9004ZM828.525 6.8044V9.2124H827.349C824.857 9.2124 823.317 10.7244 823.317 13.3564V20.6084H820.685V6.9444H823.149L823.317 9.0164C823.877 7.5884 825.249 6.6364 827.125 6.6364C827.601 6.6364 827.993 6.6924 828.525 6.8044ZM829.606 13.7764C829.606 9.4924 832.322 6.5244 836.326 6.5244C839.77 6.5244 842.178 8.4844 842.654 11.5364H840.022C839.574 9.8004 838.174 8.8764 836.41 8.8764C833.918 8.8764 832.21 10.7804 832.21 13.7484C832.21 16.6884 833.806 18.5924 836.298 18.5924C838.174 18.5924 839.574 17.6124 840.05 15.9884H842.682C842.15 18.9564 839.602 20.9444 836.298 20.9444C832.266 20.9444 829.606 18.0884 829.606 13.7764ZM848.091 20.5804H845.459V0.000396729H848.091V9.0164C848.959 7.5324 850.611 6.5244 852.739 6.5244C856.239 6.5244 857.919 8.7364 857.919 12.2364V20.6084H855.287V12.8244C855.287 10.0524 853.971 8.9324 852.011 8.9324C849.463 8.9324 848.091 10.7804 848.091 13.1324V20.5804ZM862.852 3.6684C861.9 3.6684 861.116 2.8844 861.116 1.9324C861.116 0.952398 861.9 0.196398 862.852 0.196398C863.804 0.196398 864.588 0.952398 864.588 1.9324C864.588 2.8844 863.804 3.6684 862.852 3.6684ZM861.564 20.6084V6.9164H864.196V20.6084H861.564ZM871.853 20.6084L866.337 6.9164H869.137L872.133 14.5604C872.609 15.8484 873.001 16.9964 873.225 17.8364C873.449 16.9404 873.897 15.7644 874.373 14.5604L877.425 6.9164H880.169L874.457 20.6084H871.853ZM883.551 3.6684C882.599 3.6684 881.815 2.8844 881.815 1.9324C881.815 0.952398 882.599 0.196398 883.551 0.196398C884.503 0.196398 885.287 0.952398 885.287 1.9324C885.287 2.8844 884.503 3.6684 883.551 3.6684ZM882.263 20.6084V6.9164H884.895V20.6084H882.263ZM891.349 20.6084H888.717V6.9164H891.097L891.377 9.0164C892.245 7.4484 893.981 6.5244 895.913 6.5244C899.525 6.5244 901.177 8.7364 901.177 12.2364V20.6084H898.545V12.8244C898.545 10.0524 897.257 8.9324 895.241 8.9324C892.777 8.9324 891.349 10.6964 891.349 13.3564V20.6084ZM903.954 13.4124C903.954 9.5484 906.446 6.5244 910.422 6.5244C912.634 6.5244 914.342 7.5324 915.21 9.2404L915.406 6.9164H917.758V20.0484C917.758 24.3604 915.098 27.1044 910.898 27.1044C907.174 27.1044 904.626 25.0044 904.122 21.5324H906.754C907.09 23.5484 908.602 24.7244 910.898 24.7244C913.474 24.7244 915.154 23.0444 915.154 20.4404V17.6964C914.258 19.2924 912.466 20.2444 910.31 20.2444C906.418 20.2444 903.954 17.2484 903.954 13.4124ZM906.586 13.3564C906.586 15.9324 908.182 17.9484 910.758 17.9484C913.418 17.9484 915.042 16.0444 915.042 13.3564C915.042 10.7244 913.474 8.8204 910.786 8.8204C908.154 8.8204 906.586 10.8364 906.586 13.3564ZM928.317 13.7764C928.317 9.4924 931.033 6.5244 935.037 6.5244C938.481 6.5244 940.889 8.4844 941.365 11.5364H938.733C938.285 9.8004 936.885 8.8764 935.121 8.8764C932.629 8.8764 930.921 10.7804 930.921 13.7484C930.921 16.6884 932.517 18.5924 935.009 18.5924C936.885 18.5924 938.285 17.6124 938.761 15.9884H941.393C940.861 18.9564 938.313 20.9444 935.009 20.9444C930.977 20.9444 928.317 18.0884 928.317 13.7764ZM943.274 13.7484C943.274 9.5204 946.298 6.5524 950.414 6.5524C954.502 6.5524 957.526 9.5204 957.526 13.7484C957.526 17.9764 954.502 20.9444 950.414 20.9444C946.298 20.9444 943.274 17.9764 943.274 13.7484ZM945.934 13.7484C945.934 16.6044 947.754 18.5924 950.414 18.5924C953.046 18.5924 954.894 16.6044 954.894 13.7484C954.894 10.8924 953.046 8.9044 950.414 8.9044C947.754 8.9044 945.934 10.8924 945.934 13.7484ZM963.071 20.6084H960.439V6.9164H962.819L963.099 9.0164C963.967 7.4484 965.703 6.5244 967.635 6.5244C971.247 6.5244 972.899 8.7364 972.899 12.2364V20.6084H970.267V12.8244C970.267 10.0524 968.979 8.9324 966.963 8.9324C964.499 8.9324 963.071 10.6964 963.071 13.3564V20.6084ZM980.409 20.6084H977.777V9.1284H975.089V6.9164H977.777V2.6324H980.409V6.9164H983.097V9.1284H980.409V20.6084ZM991.23 20.9444C987.198 20.9444 984.426 18.0324 984.426 13.7764C984.426 9.4924 987.142 6.5244 991.118 6.5244C995.01 6.5244 997.558 9.2124 997.558 13.2724V14.2524L986.974 14.2804C987.17 17.1644 988.682 18.7604 991.286 18.7604C993.33 18.7604 994.674 17.9204 995.122 16.3524H997.586C996.914 19.2924 994.618 20.9444 991.23 20.9444ZM991.118 8.7364C988.822 8.7364 987.366 10.1084 987.03 12.5164H994.926C994.926 10.2484 993.442 8.7364 991.118 8.7364ZM1003.13 20.6084H1000.5V6.9164H1002.88L1003.16 9.0164C1004.03 7.4484 1005.76 6.5244 1007.69 6.5244C1011.31 6.5244 1012.96 8.7364 1012.96 12.2364V20.6084H1010.33V12.8244C1010.33 10.0524 1009.04 8.9324 1007.02 8.9324C1004.56 8.9324 1003.13 10.6964 1003.13 13.3564V20.6084ZM1020.47 20.6084H1017.84V9.1284H1015.15V6.9164H1017.84V2.6324H1020.47V6.9164H1023.16V9.1284H1020.47V20.6084ZM1026.63 20.9444C1025.54 20.9444 1024.61 20.0484 1024.61 18.9844C1024.61 17.8924 1025.54 16.9964 1026.63 16.9964C1027.69 16.9964 1028.62 17.8924 1028.62 18.9844C1028.62 20.0484 1027.69 20.9444 1026.63 20.9444Z" fill="black"/>
</svg>
