<svg width="738" height="47" viewBox="0 0 738 47" fill="none" xmlns="http://www.w3.org/2000/svg">
<path d="M-2.38419e-06 22.8959V0.623914H6.144V22.5119C6.144 27.5519 8.88 30.3359 13.872 30.3359C18.864 30.3359 21.648 27.5039 21.648 22.5119V0.623914H27.792V22.8959C27.792 31.1039 22.416 36.2879 13.872 36.2879C5.376 36.2879 -2.38419e-06 31.1519 -2.38419e-06 22.8959ZM38.6134 35.7119H31.9414L40.1014 24.0959L31.9414 11.9999H38.7574L43.9894 20.0639L49.0294 11.9999H55.6054L47.5414 23.9999L55.3654 35.7119H48.6454L43.6054 27.8879L38.6134 35.7119ZM57.9427 10.4159C57.9427 4.27191 63.0307 -8.67844e-05 70.4227 -8.67844e-05C77.5267 -8.67844e-05 82.0387 3.93591 82.2307 10.2719H76.0867C75.9427 7.24791 73.7827 5.47191 70.3267 5.47191C66.5347 5.47191 64.0867 7.29591 64.0867 10.2239C64.0867 12.7199 65.4307 14.1119 68.3587 14.7839L73.8787 15.9839C79.8787 17.2799 82.8067 20.3519 82.8067 25.5839C82.8067 32.1119 77.7187 36.3359 69.9907 36.3359C62.5027 36.3359 57.6067 32.3519 57.4627 26.0639H63.6067C63.6547 29.0399 66.0547 30.8159 69.9907 30.8159C74.0707 30.8159 76.6627 29.0399 76.6627 26.1119C76.6627 23.7599 75.4627 22.3679 72.5827 21.7439L67.0147 20.4959C61.0627 19.1999 57.9427 15.7919 57.9427 10.4159ZM86.109 23.8079C86.109 16.4639 90.957 11.2799 97.965 11.2799C104.445 11.2799 108.861 14.8799 109.485 20.5919H103.629C102.957 17.9039 100.989 16.5119 98.205 16.5119C94.461 16.5119 91.965 19.3439 91.965 23.8079C91.965 28.2719 94.269 31.0559 98.013 31.0559C100.941 31.0559 103.005 29.6159 103.629 27.0239H109.533C108.813 32.5439 104.205 36.3359 98.013 36.3359C90.813 36.3359 86.109 31.3439 86.109 23.8079ZM129.972 11.9999H135.828V35.7119H130.404L129.972 32.5439C128.532 34.7999 125.46 36.3359 122.292 36.3359C116.82 36.3359 113.604 32.6399 113.604 26.8319V11.9999H119.46V24.7679C119.46 29.2799 121.236 31.1039 124.5 31.1039C128.196 31.1039 129.972 28.9439 129.972 24.4319V11.9999ZM147.78 35.7119H141.972V-8.67844e-05H147.78V35.7119ZM153.923 46.7039V11.9999H159.347L159.731 15.5999C161.171 12.8639 164.291 11.2799 167.891 11.2799C174.563 11.2799 178.979 16.1279 178.979 23.5679C178.979 30.9599 174.947 36.3359 167.891 36.3359C164.339 36.3359 161.267 34.9439 159.779 32.5439V46.7039H153.923ZM159.827 23.8559C159.827 28.1279 162.467 31.0559 166.499 31.0559C170.627 31.0559 173.075 28.0799 173.075 23.8559C173.075 19.6319 170.627 16.6079 166.499 16.6079C162.467 16.6079 159.827 19.5839 159.827 23.8559ZM191.471 35.7119H185.615V16.8959H181.055V11.9999H185.615V4.60791H191.471V11.9999H196.079V16.8959H191.471V35.7119ZM213.281 22.8959V0.623914H219.425V22.5119C219.425 27.5519 222.161 30.3359 227.153 30.3359C232.145 30.3359 234.929 27.5039 234.929 22.5119V0.623914H241.073V22.8959C241.073 31.1039 235.697 36.2879 227.153 36.2879C218.657 36.2879 213.281 31.1519 213.281 22.8959ZM254.775 0.623914V35.7119H248.631V0.623914H254.775ZM281.634 0.623914V35.7119H275.49V0.623914H281.634ZM287.156 23.8079C287.156 16.4639 292.004 11.2799 299.012 11.2799C305.492 11.2799 309.908 14.8799 310.532 20.5919H304.676C304.004 17.9039 302.036 16.5119 299.252 16.5119C295.508 16.5119 293.012 19.3439 293.012 23.8079C293.012 28.2719 295.316 31.0559 299.06 31.0559C301.988 31.0559 304.052 29.6159 304.676 27.0239H310.58C309.86 32.5439 305.252 36.3359 299.06 36.3359C291.86 36.3359 287.156 31.3439 287.156 23.8079ZM313.546 23.8079C313.546 16.4159 318.874 11.3279 326.218 11.3279C333.562 11.3279 338.89 16.4159 338.89 23.8079C338.89 31.1999 333.562 36.2879 326.218 36.2879C318.874 36.2879 313.546 31.1999 313.546 23.8079ZM319.402 23.8079C319.402 28.1279 322.186 31.0559 326.218 31.0559C330.25 31.0559 333.034 28.1279 333.034 23.8079C333.034 19.4879 330.25 16.5599 326.218 16.5599C322.186 16.5599 319.402 19.4879 319.402 23.8079ZM349.388 35.7119H343.532V11.9999H348.956L349.436 15.0719C350.924 12.6719 353.804 11.2799 357.02 11.2799C362.972 11.2799 366.044 14.9759 366.044 21.1199V35.7119H360.188V22.5119C360.188 18.5279 358.22 16.6079 355.196 16.6079C351.596 16.6079 349.388 19.1039 349.388 22.9439V35.7119ZM369.693 28.5119H375.261C375.309 30.5759 376.845 31.8719 379.533 31.8719C382.269 31.8719 383.757 30.7679 383.757 29.0399C383.757 27.8399 383.133 26.9759 381.021 26.4959L376.749 25.4879C372.477 24.5279 370.413 22.5119 370.413 18.7199C370.413 14.0639 374.349 11.2799 379.821 11.2799C385.149 11.2799 388.749 14.3519 388.797 18.9599H383.229C383.181 16.9439 381.837 15.6479 379.581 15.6479C377.277 15.6479 375.933 16.7039 375.933 18.4799C375.933 19.8239 376.989 20.6879 379.005 21.1679L383.277 22.1759C387.261 23.0879 389.277 24.9119 389.277 28.5599C389.277 33.3599 385.197 36.3359 379.341 36.3359C373.437 36.3359 369.693 33.1679 369.693 28.5119ZM406.961 25.5359V20.3519H458.513V25.5359H406.961ZM497.799 21.3599H484.743V35.7119H478.599V0.623914H500.295V6.28791H484.743V15.8399H497.799V21.3599ZM518.397 11.9039V17.3279H516.237C512.013 17.3279 509.373 19.5839 509.373 24.1919V35.7119H503.517V12.0479H509.037L509.373 15.5039C510.381 13.1519 512.637 11.5679 515.805 11.5679C516.621 11.5679 517.437 11.6639 518.397 11.9039ZM532.171 36.3359C525.115 36.3359 520.171 31.1999 520.171 23.8559C520.171 16.4159 525.019 11.2799 531.979 11.2799C539.083 11.2799 543.595 16.0319 543.595 23.4239V25.1999L525.739 25.2479C526.171 29.4239 528.379 31.5359 532.267 31.5359C535.483 31.5359 537.595 30.2879 538.267 28.0319H543.691C542.683 33.2159 538.363 36.3359 532.171 36.3359ZM532.027 16.0799C528.571 16.0799 526.459 17.9519 525.883 21.5039H537.787C537.787 18.2399 535.531 16.0799 532.027 16.0799ZM558.89 36.3359C551.834 36.3359 546.89 31.1999 546.89 23.8559C546.89 16.4159 551.738 11.2799 558.698 11.2799C565.802 11.2799 570.314 16.0319 570.314 23.4239V25.1999L552.458 25.2479C552.89 29.4239 555.098 31.5359 558.986 31.5359C562.202 31.5359 564.314 30.2879 564.986 28.0319H570.41C569.402 33.2159 565.082 36.3359 558.89 36.3359ZM558.746 16.0799C555.29 16.0799 553.178 17.9519 552.602 21.5039H564.506C564.506 18.2399 562.25 16.0799 558.746 16.0799ZM610.594 35.7119H588.802V0.623914H610.594V6.28791H594.946V15.3119H608.962V20.7359H594.946V30.0479H610.594V35.7119ZM626.136 36.3359C619.272 36.3359 615 31.2959 615 23.9519C615 16.5599 619.32 11.2799 626.472 11.2799C629.784 11.2799 632.712 12.6719 634.2 15.0239V-8.67844e-05H640.008V35.7119H634.632L634.248 32.0159C632.808 34.7519 629.736 36.3359 626.136 36.3359ZM627.432 30.9599C631.512 30.9599 634.152 28.0319 634.152 23.7599C634.152 19.4879 631.512 16.5119 627.432 16.5119C623.352 16.5119 620.856 19.5359 620.856 23.7599C620.856 27.9839 623.352 30.9599 627.432 30.9599ZM649.038 7.24791C647.022 7.24791 645.438 5.66391 645.438 3.69591C645.438 1.72791 647.022 0.191914 649.038 0.191914C650.958 0.191914 652.542 1.72791 652.542 3.69591C652.542 5.66391 650.958 7.24791 649.038 7.24791ZM646.11 35.7119V11.9999H651.966V35.7119H646.11ZM666.081 35.7119H660.225V16.8959H655.665V11.9999H660.225V4.60791H666.081V11.9999H670.689V16.8959H666.081V35.7119ZM677.257 7.24791C675.241 7.24791 673.657 5.66391 673.657 3.69591C673.657 1.72791 675.241 0.191914 677.257 0.191914C679.177 0.191914 680.761 1.72791 680.761 3.69591C680.761 5.66391 679.177 7.24791 677.257 7.24791ZM674.329 35.7119V11.9999H680.185V35.7119H674.329ZM684.843 23.8079C684.843 16.4159 690.171 11.3279 697.515 11.3279C704.859 11.3279 710.187 16.4159 710.187 23.8079C710.187 31.1999 704.859 36.2879 697.515 36.2879C690.171 36.2879 684.843 31.1999 684.843 23.8079ZM690.699 23.8079C690.699 28.1279 693.483 31.0559 697.515 31.0559C701.547 31.0559 704.331 28.1279 704.331 23.8079C704.331 19.4879 701.547 16.5599 697.515 16.5599C693.483 16.5599 690.699 19.4879 690.699 23.8079ZM720.685 35.7119H714.829V11.9999H720.253L720.733 15.0719C722.221 12.6719 725.101 11.2799 728.317 11.2799C734.269 11.2799 737.341 14.9759 737.341 21.1199V35.7119H731.485V22.5119C731.485 18.5279 729.517 16.6079 726.493 16.6079C722.893 16.6079 720.685 19.1039 720.685 22.9439V35.7119Z" fill="black"/>
</svg>
