<svg width="442" height="250" viewBox="0 0 442 250" fill="none" xmlns="http://www.w3.org/2000/svg">
<rect width="442" height="250" rx="10" fill="#1D1D1D"/>
<path d="M17.902 25L15.228 21.08C15.1533 21.0893 15.074 21.094 14.99 21.094C14.9153 21.094 14.836 21.094 14.752 21.094H13.548V25H12.288V15.284H14.752C15.4333 15.284 16.0073 15.3353 16.474 15.438C16.95 15.5313 17.3327 15.69 17.622 15.914C17.9207 16.138 18.1353 16.4367 18.266 16.81C18.3967 17.174 18.462 17.622 18.462 18.154C18.462 18.994 18.2987 19.6333 17.972 20.072C17.6453 20.5013 17.146 20.7907 16.474 20.94L19.386 25H17.902ZM14.64 20.044C15.088 20.044 15.4707 20.0253 15.788 19.988C16.1147 19.9413 16.3807 19.8527 16.586 19.722C16.7913 19.5913 16.9407 19.4 17.034 19.148C17.1367 18.896 17.188 18.5647 17.188 18.154C17.188 17.79 17.1367 17.4913 17.034 17.258C16.9407 17.0247 16.7913 16.8427 16.586 16.712C16.3807 16.5813 16.1147 16.4927 15.788 16.446C15.4707 16.3993 15.088 16.376 14.64 16.376H13.548V20.044H14.64ZM23.8696 17.3C24.4669 17.3 24.9569 17.3607 25.3396 17.482C25.7316 17.594 26.0396 17.7527 26.2636 17.958C26.4969 18.1633 26.6556 18.4107 26.7396 18.7C26.8329 18.9893 26.8796 19.302 26.8796 19.638V25H25.8576L25.6756 23.852C25.5636 24.0573 25.4143 24.2393 25.2276 24.398C25.0409 24.5567 24.8263 24.692 24.5836 24.804C24.3503 24.916 24.0936 25 23.8136 25.056C23.5336 25.112 23.2536 25.14 22.9736 25.14C22.0683 25.14 21.4056 24.944 20.9856 24.552C20.5749 24.16 20.3696 23.6047 20.3696 22.886C20.3696 22.438 20.4396 22.06 20.5796 21.752C20.7289 21.444 20.9343 21.1967 21.1956 21.01C21.4569 20.8233 21.7696 20.688 22.1336 20.604C22.5069 20.52 22.9176 20.478 23.3656 20.478H25.6756V19.848C25.6756 19.624 25.6476 19.4187 25.5916 19.232C25.5449 19.036 25.4516 18.8727 25.3116 18.742C25.1809 18.602 24.9943 18.4947 24.7516 18.42C24.5089 18.3453 24.1963 18.308 23.8136 18.308C23.5616 18.308 23.2863 18.322 22.9876 18.35C22.6983 18.378 22.4183 18.42 22.1476 18.476V17.412C22.4276 17.3747 22.7169 17.3467 23.0156 17.328C23.3143 17.3093 23.5989 17.3 23.8696 17.3ZM23.0856 24.132C23.7203 24.132 24.2616 24.006 24.7096 23.754C25.1576 23.4927 25.4796 23.138 25.6756 22.69V21.444H23.4496C23.1416 21.444 22.8709 21.4627 22.6376 21.5C22.4043 21.5373 22.2129 21.612 22.0636 21.724C21.9143 21.8267 21.8023 21.9713 21.7276 22.158C21.6529 22.3447 21.6156 22.5827 21.6156 22.872C21.6156 23.292 21.7276 23.6093 21.9516 23.824C22.1756 24.0293 22.5536 24.132 23.0856 24.132ZM33.0719 17.3C33.5665 17.3 33.9772 17.3607 34.3039 17.482C34.6305 17.6033 34.8872 17.776 35.0739 18C35.2699 18.2147 35.4052 18.4713 35.4799 18.77C35.5639 19.0687 35.6059 19.4 35.6059 19.764V25H34.3879V20.212C34.3879 19.9227 34.3692 19.666 34.3319 19.442C34.2945 19.2087 34.2199 19.0173 34.1079 18.868C34.0052 18.7093 33.8605 18.588 33.6739 18.504C33.4872 18.42 33.2445 18.378 32.9459 18.378C32.7032 18.378 32.4652 18.3967 32.2319 18.434C32.0079 18.462 31.7932 18.532 31.5879 18.644C31.3919 18.7467 31.2099 18.896 31.0419 19.092C30.8832 19.288 30.7525 19.554 30.6499 19.89V25H29.4459V17.44H30.6499V18.518C30.7619 18.2753 30.9065 18.0747 31.0839 17.916C31.2705 17.7573 31.4712 17.636 31.6859 17.552C31.9005 17.4587 32.1245 17.3933 32.3579 17.356C32.6005 17.3187 32.8385 17.3 33.0719 17.3ZM44.0222 25H42.4682L39.7102 21.472H39.3042V25H38.1002V14.36H39.3042V20.534H39.7382L42.3562 17.44H43.8542L40.6762 20.954L44.0222 25ZM45.9623 16.054C45.6916 16.054 45.5003 16.012 45.3883 15.928C45.2856 15.844 45.2343 15.648 45.2343 15.34C45.2343 15.0227 45.2856 14.8267 45.3883 14.752C45.5003 14.668 45.6916 14.626 45.9623 14.626C46.2143 14.626 46.3963 14.668 46.5083 14.752C46.6203 14.8267 46.6763 15.0227 46.6763 15.34C46.6763 15.648 46.6203 15.844 46.5083 15.928C46.3963 16.012 46.2143 16.054 45.9623 16.054ZM45.3463 17.44H46.5503V25H45.3463V17.44ZM52.7184 17.3C53.213 17.3 53.6237 17.3607 53.9504 17.482C54.277 17.6033 54.5337 17.776 54.7204 18C54.9164 18.2147 55.0517 18.4713 55.1264 18.77C55.2104 19.0687 55.2524 19.4 55.2524 19.764V25H54.0344V20.212C54.0344 19.9227 54.0157 19.666 53.9784 19.442C53.941 19.2087 53.8664 19.0173 53.7544 18.868C53.6517 18.7093 53.507 18.588 53.3204 18.504C53.1337 18.42 52.891 18.378 52.5924 18.378C52.3497 18.378 52.1117 18.3967 51.8784 18.434C51.6544 18.462 51.4397 18.532 51.2344 18.644C51.0384 18.7467 50.8564 18.896 50.6884 19.092C50.5297 19.288 50.399 19.554 50.2964 19.89V25H49.0924V17.44H50.2964V18.518C50.4084 18.2753 50.553 18.0747 50.7304 17.916C50.917 17.7573 51.1177 17.636 51.3324 17.552C51.547 17.4587 51.771 17.3933 52.0044 17.356C52.247 17.3187 52.485 17.3 52.7184 17.3ZM64.1027 17.44V24.468C64.1027 25.5133 63.804 26.33 63.2067 26.918C62.6187 27.506 61.6853 27.8 60.4067 27.8C60.08 27.8 59.7533 27.7813 59.4267 27.744C59.1 27.7067 58.8153 27.6647 58.5727 27.618V26.596C59.142 26.708 59.758 26.764 60.4207 26.764C61.2607 26.764 61.8813 26.5773 62.2827 26.204C62.6933 25.8307 62.8987 25.21 62.8987 24.342V23.586C62.74 24.034 62.474 24.384 62.1007 24.636C61.7273 24.8787 61.1767 25 60.4487 25C59.814 25 59.296 24.9067 58.8947 24.72C58.4933 24.5333 58.1713 24.272 57.9287 23.936C57.6953 23.6 57.532 23.1987 57.4387 22.732C57.3547 22.256 57.3127 21.7287 57.3127 21.15C57.3127 20.6273 57.3547 20.1327 57.4387 19.666C57.532 19.1993 57.6953 18.7933 57.9287 18.448C58.1713 18.0933 58.4933 17.8133 58.8947 17.608C59.296 17.4027 59.814 17.3 60.4487 17.3C60.8313 17.3 61.158 17.342 61.4287 17.426C61.7087 17.5007 61.942 17.608 62.1287 17.748C62.3247 17.8787 62.4833 18.042 62.6047 18.238C62.726 18.4247 62.824 18.63 62.8987 18.854V17.44H64.1027ZM60.6167 23.992C61.074 23.992 61.452 23.9313 61.7507 23.81C62.0493 23.6793 62.2873 23.4927 62.4647 23.25C62.642 23.0073 62.7633 22.7087 62.8287 22.354C62.9033 21.9993 62.9407 21.598 62.9407 21.15C62.9407 20.7207 62.9033 20.3287 62.8287 19.974C62.7633 19.6193 62.642 19.3207 62.4647 19.078C62.2873 18.8353 62.0493 18.6487 61.7507 18.518C61.452 18.378 61.074 18.308 60.6167 18.308C60.1593 18.308 59.7953 18.3873 59.5247 18.546C59.2633 18.7047 59.0627 18.9147 58.9227 19.176C58.7827 19.4373 58.694 19.7407 58.6567 20.086C58.6193 20.4313 58.6007 20.786 58.6007 21.15C58.6007 21.542 58.6193 21.9107 58.6567 22.256C58.7033 22.6013 58.7967 22.9047 58.9367 23.166C59.0767 23.418 59.2773 23.6187 59.5387 23.768C59.8093 23.9173 60.1687 23.992 60.6167 23.992Z" fill="white" fill-opacity="0.9"/>
<rect width="4.00002" height="402" transform="translate(422 79) rotate(90)" fill="white" fill-opacity="0.05"/>
<rect x="20" y="79" width="372" height="4" fill="url(#paint0_linear_943_6590)"/>
<rect x="20" y="51.5926" width="24" height="17" rx="4" fill="#4064FF"/>
<path d="M31.8248 57.2486L29.7608 57.6446V56.7686L32.1968 56.2646H32.9048V64.5926H31.8248V57.2486Z" fill="white"/>
<path d="M57.796 63.6206V64.5926H53.104V56.2646H54.184V63.6206H57.796ZM64.322 60.7046C64.322 60.7926 64.314 60.9046 64.298 61.0406C64.29 61.1686 64.278 61.3086 64.262 61.4606L59.87 61.7366C59.87 62.0886 59.906 62.3966 59.978 62.6606C60.05 62.9166 60.166 63.1286 60.326 63.2966C60.486 63.4646 60.698 63.5926 60.962 63.6806C61.226 63.7606 61.554 63.8006 61.946 63.8006C62.306 63.8006 62.67 63.7606 63.038 63.6806C63.414 63.6006 63.726 63.5006 63.974 63.3806V64.3286C63.878 64.3766 63.754 64.4246 63.602 64.4726C63.45 64.5206 63.278 64.5606 63.086 64.5926C62.894 64.6326 62.686 64.6606 62.462 64.6766C62.246 64.7006 62.022 64.7126 61.79 64.7126C61.31 64.7126 60.882 64.6606 60.506 64.5566C60.138 64.4446 59.826 64.2606 59.57 64.0046C59.314 63.7406 59.118 63.3966 58.982 62.9726C58.854 62.5406 58.79 62.0006 58.79 61.3526C58.79 60.7046 58.854 60.1686 58.982 59.7446C59.118 59.3126 59.31 58.9686 59.558 58.7126C59.814 58.4486 60.122 58.2646 60.482 58.1606C60.85 58.0486 61.266 57.9926 61.73 57.9926C62.282 57.9926 62.726 58.0766 63.062 58.2446C63.406 58.4046 63.67 58.6166 63.854 58.8806C64.038 59.1366 64.162 59.4286 64.226 59.7566C64.29 60.0766 64.322 60.3926 64.322 60.7046ZM63.302 60.7166C63.302 60.4686 63.286 60.2326 63.254 60.0086C63.222 59.7766 63.15 59.5766 63.038 59.4086C62.934 59.2326 62.778 59.0966 62.57 59.0006C62.362 58.8966 62.082 58.8446 61.73 58.8446C61.354 58.8446 61.046 58.8926 60.806 58.9886C60.574 59.0846 60.39 59.2246 60.254 59.4086C60.118 59.5926 60.022 59.8166 59.966 60.0806C59.91 60.3446 59.878 60.6406 59.87 60.9686L63.302 60.7166ZM71.5595 58.1126V64.1366C71.5595 65.0326 71.3035 65.7326 70.7915 66.2366C70.2875 66.7406 69.4875 66.9926 68.3915 66.9926C68.1115 66.9926 67.8315 66.9766 67.5515 66.9446C67.2715 66.9126 67.0275 66.8766 66.8195 66.8366V65.9606C67.3075 66.0566 67.8355 66.1046 68.4035 66.1046C69.1235 66.1046 69.6555 65.9446 69.9995 65.6246C70.3515 65.3046 70.5275 64.7726 70.5275 64.0286V63.3806C70.3915 63.7646 70.1635 64.0646 69.8435 64.2806C69.5235 64.4886 69.0515 64.5926 68.4275 64.5926C67.8835 64.5926 67.4395 64.5126 67.0955 64.3526C66.7515 64.1926 66.4755 63.9686 66.2675 63.6806C66.0675 63.3926 65.9275 63.0486 65.8475 62.6486C65.7755 62.2406 65.7395 61.7886 65.7395 61.2926C65.7395 60.8446 65.7755 60.4206 65.8475 60.0206C65.9275 59.6206 66.0675 59.2726 66.2675 58.9766C66.4755 58.6726 66.7515 58.4326 67.0955 58.2566C67.4395 58.0806 67.8835 57.9926 68.4275 57.9926C68.7555 57.9926 69.0355 58.0286 69.2675 58.1006C69.5075 58.1646 69.7075 58.2566 69.8675 58.3766C70.0355 58.4886 70.1715 58.6286 70.2755 58.7966C70.3795 58.9566 70.4635 59.1326 70.5275 59.3246V58.1126H71.5595ZM68.5715 63.7286C68.9635 63.7286 69.2875 63.6766 69.5435 63.5726C69.7995 63.4606 70.0035 63.3006 70.1555 63.0926C70.3075 62.8846 70.4115 62.6286 70.4675 62.3246C70.5315 62.0206 70.5635 61.6766 70.5635 61.2926C70.5635 60.9246 70.5315 60.5886 70.4675 60.2846C70.4115 59.9806 70.3075 59.7246 70.1555 59.5166C70.0035 59.3086 69.7995 59.1486 69.5435 59.0366C69.2875 58.9166 68.9635 58.8566 68.5715 58.8566C68.1795 58.8566 67.8675 58.9246 67.6355 59.0606C67.4115 59.1966 67.2395 59.3766 67.1195 59.6006C66.9995 59.8246 66.9235 60.0846 66.8915 60.3806C66.8595 60.6766 66.8435 60.9806 66.8435 61.2926C66.8435 61.6286 66.8595 61.9446 66.8915 62.2406C66.9315 62.5366 67.0115 62.7966 67.1315 63.0206C67.2515 63.2366 67.4235 63.4086 67.6475 63.5366C67.8795 63.6646 68.1875 63.7286 68.5715 63.7286ZM78.8884 60.7046C78.8884 60.7926 78.8804 60.9046 78.8644 61.0406C78.8564 61.1686 78.8444 61.3086 78.8284 61.4606L74.4364 61.7366C74.4364 62.0886 74.4724 62.3966 74.5444 62.6606C74.6164 62.9166 74.7324 63.1286 74.8924 63.2966C75.0524 63.4646 75.2644 63.5926 75.5284 63.6806C75.7924 63.7606 76.1204 63.8006 76.5124 63.8006C76.8724 63.8006 77.2364 63.7606 77.6044 63.6806C77.9804 63.6006 78.2924 63.5006 78.5404 63.3806V64.3286C78.4444 64.3766 78.3204 64.4246 78.1684 64.4726C78.0164 64.5206 77.8444 64.5606 77.6524 64.5926C77.4604 64.6326 77.2524 64.6606 77.0284 64.6766C76.8124 64.7006 76.5884 64.7126 76.3564 64.7126C75.8764 64.7126 75.4484 64.6606 75.0724 64.5566C74.7044 64.4446 74.3924 64.2606 74.1364 64.0046C73.8804 63.7406 73.6844 63.3966 73.5484 62.9726C73.4204 62.5406 73.3564 62.0006 73.3564 61.3526C73.3564 60.7046 73.4204 60.1686 73.5484 59.7446C73.6844 59.3126 73.8764 58.9686 74.1244 58.7126C74.3804 58.4486 74.6884 58.2646 75.0484 58.1606C75.4164 58.0486 75.8324 57.9926 76.2964 57.9926C76.8484 57.9926 77.2924 58.0766 77.6284 58.2446C77.9724 58.4046 78.2364 58.6166 78.4204 58.8806C78.6044 59.1366 78.7284 59.4286 78.7924 59.7566C78.8564 60.0766 78.8884 60.3926 78.8884 60.7046ZM77.8684 60.7166C77.8684 60.4686 77.8524 60.2326 77.8204 60.0086C77.7884 59.7766 77.7164 59.5766 77.6044 59.4086C77.5004 59.2326 77.3444 59.0966 77.1364 59.0006C76.9284 58.8966 76.6484 58.8446 76.2964 58.8446C75.9204 58.8446 75.6124 58.8926 75.3724 58.9886C75.1404 59.0846 74.9564 59.2246 74.8204 59.4086C74.6844 59.5926 74.5884 59.8166 74.5324 60.0806C74.4764 60.3446 74.4444 60.6406 74.4364 60.9686L77.8684 60.7166ZM83.7859 57.9926C84.2099 57.9926 84.5619 58.0446 84.8419 58.1486C85.1219 58.2526 85.3419 58.4006 85.5019 58.5926C85.6699 58.7766 85.7859 58.9966 85.8499 59.2526C85.9219 59.5086 85.9579 59.7926 85.9579 60.1046V64.5926H84.9139V60.4886C84.9139 60.2406 84.8979 60.0206 84.8659 59.8286C84.8339 59.6286 84.7699 59.4646 84.6739 59.3366C84.5859 59.2006 84.4619 59.0966 84.3019 59.0246C84.1419 58.9526 83.9339 58.9166 83.6779 58.9166C83.4699 58.9166 83.2659 58.9326 83.0659 58.9646C82.8739 58.9886 82.6899 59.0486 82.5139 59.1446C82.3459 59.2326 82.1899 59.3606 82.0459 59.5286C81.9099 59.6966 81.7979 59.9246 81.7099 60.2126V64.5926H80.6779V58.1126H81.7099V59.0366C81.8059 58.8286 81.9299 58.6566 82.0819 58.5206C82.2419 58.3846 82.4139 58.2806 82.5979 58.2086C82.7819 58.1286 82.9739 58.0726 83.1739 58.0406C83.3819 58.0086 83.5859 57.9926 83.7859 57.9926ZM93.5439 55.4726V64.5926H92.6679L92.5119 63.5246C92.3839 63.8686 92.1479 64.1526 91.8039 64.3766C91.4599 64.6006 90.9919 64.7126 90.3999 64.7126C89.8639 64.7126 89.4199 64.6326 89.0679 64.4726C88.7239 64.3046 88.4519 64.0726 88.2519 63.7766C88.0519 63.4806 87.9119 63.1286 87.8319 62.7206C87.7599 62.3046 87.7239 61.8486 87.7239 61.3526C87.7239 60.9126 87.7599 60.4886 87.8319 60.0806C87.9119 59.6726 88.0519 59.3166 88.2519 59.0126C88.4519 58.7006 88.7239 58.4526 89.0679 58.2686C89.4199 58.0846 89.8639 57.9926 90.3999 57.9926C90.7199 57.9926 90.9959 58.0246 91.2279 58.0886C91.4599 58.1446 91.6599 58.2286 91.8279 58.3406C91.9959 58.4446 92.1359 58.5726 92.2479 58.7246C92.3599 58.8766 92.4479 59.0486 92.5119 59.2406V55.4726H93.5439ZM90.5559 63.8366C90.9479 63.8366 91.2719 63.7806 91.5279 63.6686C91.7839 63.5566 91.9879 63.3926 92.1399 63.1766C92.2919 62.9606 92.3959 62.7006 92.4519 62.3966C92.5159 62.0846 92.5479 61.7366 92.5479 61.3526C92.5479 60.9846 92.5159 60.6486 92.4519 60.3446C92.3959 60.0326 92.2919 59.7686 92.1399 59.5526C91.9879 59.3286 91.7839 59.1566 91.5279 59.0366C91.2719 58.9166 90.9479 58.8566 90.5559 58.8566C90.1639 58.8566 89.8519 58.9286 89.6199 59.0726C89.3959 59.2086 89.2239 59.3966 89.1039 59.6366C88.9839 59.8686 88.9079 60.1366 88.8759 60.4406C88.8439 60.7366 88.8279 61.0406 88.8279 61.3526C88.8279 61.6886 88.8439 62.0086 88.8759 62.3126C88.9159 62.6166 88.9959 62.8806 89.1159 63.1046C89.2359 63.3286 89.4079 63.5086 89.6319 63.6446C89.8639 63.7726 90.1719 63.8366 90.5559 63.8366ZM100.979 57.2486L98.9151 57.6446V56.7686L101.351 56.2646H102.059V64.5926H100.979V57.2486Z" fill="white" fill-opacity="0.9"/>
<path d="M381.334 55.432L378.926 55.894V54.872L381.768 54.284H382.594V64H381.334V55.432ZM389.582 64.14C389.097 64.14 388.654 64.07 388.252 63.93C387.851 63.7807 387.506 63.5193 387.216 63.146C386.927 62.7727 386.703 62.264 386.544 61.62C386.386 60.9667 386.306 60.1407 386.306 59.142C386.306 58.1433 386.386 57.322 386.544 56.678C386.703 56.034 386.927 55.5253 387.216 55.152C387.506 54.7693 387.851 54.508 388.252 54.368C388.654 54.2187 389.097 54.144 389.582 54.144C390.068 54.144 390.511 54.2187 390.912 54.368C391.323 54.508 391.673 54.7693 391.962 55.152C392.252 55.5253 392.476 56.034 392.634 56.678C392.793 57.322 392.872 58.1433 392.872 59.142C392.872 60.1407 392.793 60.9667 392.634 61.62C392.476 62.264 392.252 62.7727 391.962 63.146C391.673 63.5193 391.323 63.7807 390.912 63.93C390.511 64.07 390.068 64.14 389.582 64.14ZM389.582 63.09C389.928 63.09 390.226 63.034 390.478 62.922C390.73 62.8007 390.94 62.5907 391.108 62.292C391.276 61.9933 391.398 61.592 391.472 61.088C391.556 60.5747 391.598 59.926 391.598 59.142C391.598 58.3673 391.556 57.728 391.472 57.224C391.398 56.7107 391.276 56.3047 391.108 56.006C390.94 55.7073 390.73 55.502 390.478 55.39C390.226 55.2687 389.928 55.208 389.582 55.208C389.246 55.208 388.952 55.2687 388.7 55.39C388.448 55.502 388.238 55.7073 388.07 56.006C387.912 56.3047 387.79 56.7107 387.706 57.224C387.632 57.728 387.594 58.3673 387.594 59.142C387.594 59.926 387.632 60.5747 387.706 61.088C387.79 61.592 387.912 61.9933 388.07 62.292C388.238 62.5907 388.448 62.8007 388.7 62.922C388.952 63.034 389.246 63.09 389.582 63.09ZM394.149 65.904C394.336 65.6147 394.509 65.3067 394.667 64.98C394.835 64.6627 394.975 64.3407 395.087 64.014C395.209 63.6967 395.302 63.384 395.367 63.076C395.433 62.768 395.465 62.4833 395.465 62.222H396.627C396.627 62.5207 396.581 62.8427 396.487 63.188C396.394 63.524 396.277 63.8553 396.137 64.182C395.997 64.5087 395.839 64.8213 395.661 65.12C395.484 65.4187 395.311 65.68 395.143 65.904H394.149ZM401.86 64.14C401.374 64.14 400.931 64.07 400.53 63.93C400.128 63.7807 399.783 63.5193 399.494 63.146C399.204 62.7727 398.98 62.264 398.822 61.62C398.663 60.9667 398.584 60.1407 398.584 59.142C398.584 58.1433 398.663 57.322 398.822 56.678C398.98 56.034 399.204 55.5253 399.494 55.152C399.783 54.7693 400.128 54.508 400.53 54.368C400.931 54.2187 401.374 54.144 401.86 54.144C402.345 54.144 402.788 54.2187 403.19 54.368C403.6 54.508 403.95 54.7693 404.24 55.152C404.529 55.5253 404.753 56.034 404.912 56.678C405.07 57.322 405.15 58.1433 405.15 59.142C405.15 60.1407 405.07 60.9667 404.912 61.62C404.753 62.264 404.529 62.7727 404.24 63.146C403.95 63.5193 403.6 63.7807 403.19 63.93C402.788 64.07 402.345 64.14 401.86 64.14ZM401.86 63.09C402.205 63.09 402.504 63.034 402.756 62.922C403.008 62.8007 403.218 62.5907 403.386 62.292C403.554 61.9933 403.675 61.592 403.75 61.088C403.834 60.5747 403.876 59.926 403.876 59.142C403.876 58.3673 403.834 57.728 403.75 57.224C403.675 56.7107 403.554 56.3047 403.386 56.006C403.218 55.7073 403.008 55.502 402.756 55.39C402.504 55.2687 402.205 55.208 401.86 55.208C401.524 55.208 401.23 55.2687 400.978 55.39C400.726 55.502 400.516 55.7073 400.348 56.006C400.189 56.3047 400.068 56.7107 399.984 57.224C399.909 57.728 399.872 58.3673 399.872 59.142C399.872 59.926 399.909 60.5747 399.984 61.088C400.068 61.592 400.189 61.9933 400.348 62.292C400.516 62.5907 400.726 62.8007 400.978 62.922C401.23 63.034 401.524 63.09 401.86 63.09ZM409.913 64.14C409.427 64.14 408.984 64.07 408.583 63.93C408.181 63.7807 407.836 63.5193 407.547 63.146C407.257 62.7727 407.033 62.264 406.875 61.62C406.716 60.9667 406.637 60.1407 406.637 59.142C406.637 58.1433 406.716 57.322 406.875 56.678C407.033 56.034 407.257 55.5253 407.547 55.152C407.836 54.7693 408.181 54.508 408.583 54.368C408.984 54.2187 409.427 54.144 409.913 54.144C410.398 54.144 410.841 54.2187 411.243 54.368C411.653 54.508 412.003 54.7693 412.293 55.152C412.582 55.5253 412.806 56.034 412.965 56.678C413.123 57.322 413.203 58.1433 413.203 59.142C413.203 60.1407 413.123 60.9667 412.965 61.62C412.806 62.264 412.582 62.7727 412.293 63.146C412.003 63.5193 411.653 63.7807 411.243 63.93C410.841 64.07 410.398 64.14 409.913 64.14ZM409.913 63.09C410.258 63.09 410.557 63.034 410.809 62.922C411.061 62.8007 411.271 62.5907 411.439 62.292C411.607 61.9933 411.728 61.592 411.803 61.088C411.887 60.5747 411.929 59.926 411.929 59.142C411.929 58.3673 411.887 57.728 411.803 57.224C411.728 56.7107 411.607 56.3047 411.439 56.006C411.271 55.7073 411.061 55.502 410.809 55.39C410.557 55.2687 410.258 55.208 409.913 55.208C409.577 55.208 409.283 55.2687 409.031 55.39C408.779 55.502 408.569 55.7073 408.401 56.006C408.242 56.3047 408.121 56.7107 408.037 57.224C407.962 57.728 407.925 58.3673 407.925 59.142C407.925 59.926 407.962 60.5747 408.037 61.088C408.121 61.592 408.242 61.9933 408.401 62.292C408.569 62.5907 408.779 62.8007 409.031 62.922C409.283 63.034 409.577 63.09 409.913 63.09ZM417.965 64.14C417.48 64.14 417.037 64.07 416.635 63.93C416.234 63.7807 415.889 63.5193 415.599 63.146C415.31 62.7727 415.086 62.264 414.927 61.62C414.769 60.9667 414.689 60.1407 414.689 59.142C414.689 58.1433 414.769 57.322 414.927 56.678C415.086 56.034 415.31 55.5253 415.599 55.152C415.889 54.7693 416.234 54.508 416.635 54.368C417.037 54.2187 417.48 54.144 417.965 54.144C418.451 54.144 418.894 54.2187 419.295 54.368C419.706 54.508 420.056 54.7693 420.345 55.152C420.635 55.5253 420.859 56.034 421.017 56.678C421.176 57.322 421.255 58.1433 421.255 59.142C421.255 60.1407 421.176 60.9667 421.017 61.62C420.859 62.264 420.635 62.7727 420.345 63.146C420.056 63.5193 419.706 63.7807 419.295 63.93C418.894 64.07 418.451 64.14 417.965 64.14ZM417.965 63.09C418.311 63.09 418.609 63.034 418.861 62.922C419.113 62.8007 419.323 62.5907 419.491 62.292C419.659 61.9933 419.781 61.592 419.855 61.088C419.939 60.5747 419.981 59.926 419.981 59.142C419.981 58.3673 419.939 57.728 419.855 57.224C419.781 56.7107 419.659 56.3047 419.491 56.006C419.323 55.7073 419.113 55.502 418.861 55.39C418.609 55.2687 418.311 55.208 417.965 55.208C417.629 55.208 417.335 55.2687 417.083 55.39C416.831 55.502 416.621 55.7073 416.453 56.006C416.295 56.3047 416.173 56.7107 416.089 57.224C416.015 57.728 415.977 58.3673 415.977 59.142C415.977 59.926 416.015 60.5747 416.089 61.088C416.173 61.592 416.295 61.9933 416.453 62.292C416.621 62.5907 416.831 62.8007 417.083 62.922C417.335 63.034 417.629 63.09 417.965 63.09Z" fill="white" fill-opacity="0.9"/>
<rect width="4.00002" height="402" transform="translate(422 124) rotate(90)" fill="white" fill-opacity="0.05"/>
<rect x="20" y="124" width="297.6" height="4" fill="url(#paint1_linear_943_6590)"/>
<rect x="20" y="96.5926" width="24" height="17" rx="4" fill="#4064FF"/>
<path d="M29.2328 108.453C30.1208 107.757 30.8328 107.165 31.3688 106.677C31.9048 106.189 32.3208 105.761 32.6168 105.393C32.9128 105.025 33.1088 104.697 33.2048 104.409C33.3008 104.113 33.3488 103.817 33.3488 103.521C33.3488 103.225 33.2928 102.981 33.1808 102.789C33.0768 102.597 32.9408 102.445 32.7728 102.333C32.6048 102.221 32.4128 102.145 32.1968 102.105C31.9888 102.065 31.7848 102.045 31.5848 102.045C31.3208 102.045 31.0408 102.061 30.7448 102.093C30.4488 102.117 30.1368 102.173 29.8088 102.261V101.337C30.0888 101.273 30.3848 101.225 30.6968 101.193C31.0168 101.161 31.3528 101.145 31.7048 101.145C32.1128 101.145 32.4808 101.189 32.8088 101.277C33.1368 101.365 33.4168 101.505 33.6488 101.697C33.8888 101.889 34.0688 102.137 34.1888 102.441C34.3168 102.745 34.3808 103.109 34.3808 103.533C34.3808 103.909 34.3248 104.265 34.2128 104.601C34.1008 104.929 33.9128 105.273 33.6488 105.633C33.3848 105.985 33.0288 106.369 32.5808 106.785C32.1328 107.193 31.5728 107.665 30.9008 108.201L30.4208 108.573V108.681H34.7168V109.593H29.2328V108.453Z" fill="white"/>
<path d="M57.796 108.621V109.593H53.104V101.265H54.184V108.621H57.796ZM64.322 105.705C64.322 105.793 64.314 105.905 64.298 106.041C64.29 106.169 64.278 106.309 64.262 106.461L59.87 106.737C59.87 107.089 59.906 107.397 59.978 107.661C60.05 107.917 60.166 108.129 60.326 108.297C60.486 108.465 60.698 108.593 60.962 108.681C61.226 108.761 61.554 108.801 61.946 108.801C62.306 108.801 62.67 108.761 63.038 108.681C63.414 108.601 63.726 108.501 63.974 108.381V109.329C63.878 109.377 63.754 109.425 63.602 109.473C63.45 109.521 63.278 109.561 63.086 109.593C62.894 109.633 62.686 109.661 62.462 109.677C62.246 109.701 62.022 109.713 61.79 109.713C61.31 109.713 60.882 109.661 60.506 109.557C60.138 109.445 59.826 109.261 59.57 109.005C59.314 108.741 59.118 108.397 58.982 107.973C58.854 107.541 58.79 107.001 58.79 106.353C58.79 105.705 58.854 105.169 58.982 104.745C59.118 104.313 59.31 103.969 59.558 103.713C59.814 103.449 60.122 103.265 60.482 103.161C60.85 103.049 61.266 102.993 61.73 102.993C62.282 102.993 62.726 103.077 63.062 103.245C63.406 103.405 63.67 103.617 63.854 103.881C64.038 104.137 64.162 104.429 64.226 104.757C64.29 105.077 64.322 105.393 64.322 105.705ZM63.302 105.717C63.302 105.469 63.286 105.233 63.254 105.009C63.222 104.777 63.15 104.577 63.038 104.409C62.934 104.233 62.778 104.097 62.57 104.001C62.362 103.897 62.082 103.845 61.73 103.845C61.354 103.845 61.046 103.893 60.806 103.989C60.574 104.085 60.39 104.225 60.254 104.409C60.118 104.593 60.022 104.817 59.966 105.081C59.91 105.345 59.878 105.641 59.87 105.969L63.302 105.717ZM71.5595 103.113V109.137C71.5595 110.033 71.3035 110.733 70.7915 111.237C70.2875 111.741 69.4875 111.993 68.3915 111.993C68.1115 111.993 67.8315 111.977 67.5515 111.945C67.2715 111.913 67.0275 111.877 66.8195 111.837V110.961C67.3075 111.057 67.8355 111.105 68.4035 111.105C69.1235 111.105 69.6555 110.945 69.9995 110.625C70.3515 110.305 70.5275 109.773 70.5275 109.029V108.381C70.3915 108.765 70.1635 109.065 69.8435 109.281C69.5235 109.489 69.0515 109.593 68.4275 109.593C67.8835 109.593 67.4395 109.513 67.0955 109.353C66.7515 109.193 66.4755 108.969 66.2675 108.681C66.0675 108.393 65.9275 108.049 65.8475 107.649C65.7755 107.241 65.7395 106.789 65.7395 106.293C65.7395 105.845 65.7755 105.421 65.8475 105.021C65.9275 104.621 66.0675 104.273 66.2675 103.977C66.4755 103.673 66.7515 103.433 67.0955 103.257C67.4395 103.081 67.8835 102.993 68.4275 102.993C68.7555 102.993 69.0355 103.029 69.2675 103.101C69.5075 103.165 69.7075 103.257 69.8675 103.377C70.0355 103.489 70.1715 103.629 70.2755 103.797C70.3795 103.957 70.4635 104.133 70.5275 104.325V103.113H71.5595ZM68.5715 108.729C68.9635 108.729 69.2875 108.677 69.5435 108.573C69.7995 108.461 70.0035 108.301 70.1555 108.093C70.3075 107.885 70.4115 107.629 70.4675 107.325C70.5315 107.021 70.5635 106.677 70.5635 106.293C70.5635 105.925 70.5315 105.589 70.4675 105.285C70.4115 104.981 70.3075 104.725 70.1555 104.517C70.0035 104.309 69.7995 104.149 69.5435 104.037C69.2875 103.917 68.9635 103.857 68.5715 103.857C68.1795 103.857 67.8675 103.925 67.6355 104.061C67.4115 104.197 67.2395 104.377 67.1195 104.601C66.9995 104.825 66.9235 105.085 66.8915 105.381C66.8595 105.677 66.8435 105.981 66.8435 106.293C66.8435 106.629 66.8595 106.945 66.8915 107.241C66.9315 107.537 67.0115 107.797 67.1315 108.021C67.2515 108.237 67.4235 108.409 67.6475 108.537C67.8795 108.665 68.1875 108.729 68.5715 108.729ZM78.8884 105.705C78.8884 105.793 78.8804 105.905 78.8644 106.041C78.8564 106.169 78.8444 106.309 78.8284 106.461L74.4364 106.737C74.4364 107.089 74.4724 107.397 74.5444 107.661C74.6164 107.917 74.7324 108.129 74.8924 108.297C75.0524 108.465 75.2644 108.593 75.5284 108.681C75.7924 108.761 76.1204 108.801 76.5124 108.801C76.8724 108.801 77.2364 108.761 77.6044 108.681C77.9804 108.601 78.2924 108.501 78.5404 108.381V109.329C78.4444 109.377 78.3204 109.425 78.1684 109.473C78.0164 109.521 77.8444 109.561 77.6524 109.593C77.4604 109.633 77.2524 109.661 77.0284 109.677C76.8124 109.701 76.5884 109.713 76.3564 109.713C75.8764 109.713 75.4484 109.661 75.0724 109.557C74.7044 109.445 74.3924 109.261 74.1364 109.005C73.8804 108.741 73.6844 108.397 73.5484 107.973C73.4204 107.541 73.3564 107.001 73.3564 106.353C73.3564 105.705 73.4204 105.169 73.5484 104.745C73.6844 104.313 73.8764 103.969 74.1244 103.713C74.3804 103.449 74.6884 103.265 75.0484 103.161C75.4164 103.049 75.8324 102.993 76.2964 102.993C76.8484 102.993 77.2924 103.077 77.6284 103.245C77.9724 103.405 78.2364 103.617 78.4204 103.881C78.6044 104.137 78.7284 104.429 78.7924 104.757C78.8564 105.077 78.8884 105.393 78.8884 105.705ZM77.8684 105.717C77.8684 105.469 77.8524 105.233 77.8204 105.009C77.7884 104.777 77.7164 104.577 77.6044 104.409C77.5004 104.233 77.3444 104.097 77.1364 104.001C76.9284 103.897 76.6484 103.845 76.2964 103.845C75.9204 103.845 75.6124 103.893 75.3724 103.989C75.1404 104.085 74.9564 104.225 74.8204 104.409C74.6844 104.593 74.5884 104.817 74.5324 105.081C74.4764 105.345 74.4444 105.641 74.4364 105.969L77.8684 105.717ZM83.7859 102.993C84.2099 102.993 84.5619 103.045 84.8419 103.149C85.1219 103.253 85.3419 103.401 85.5019 103.593C85.6699 103.777 85.7859 103.997 85.8499 104.253C85.9219 104.509 85.9579 104.793 85.9579 105.105V109.593H84.9139V105.489C84.9139 105.241 84.8979 105.021 84.8659 104.829C84.8339 104.629 84.7699 104.465 84.6739 104.337C84.5859 104.201 84.4619 104.097 84.3019 104.025C84.1419 103.953 83.9339 103.917 83.6779 103.917C83.4699 103.917 83.2659 103.933 83.0659 103.965C82.8739 103.989 82.6899 104.049 82.5139 104.145C82.3459 104.233 82.1899 104.361 82.0459 104.529C81.9099 104.697 81.7979 104.925 81.7099 105.213V109.593H80.6779V103.113H81.7099V104.037C81.8059 103.829 81.9299 103.657 82.0819 103.521C82.2419 103.385 82.4139 103.281 82.5979 103.209C82.7819 103.129 82.9739 103.073 83.1739 103.041C83.3819 103.009 83.5859 102.993 83.7859 102.993ZM93.5439 100.473V109.593H92.6679L92.5119 108.525C92.3839 108.869 92.1479 109.153 91.8039 109.377C91.4599 109.601 90.9919 109.713 90.3999 109.713C89.8639 109.713 89.4199 109.633 89.0679 109.473C88.7239 109.305 88.4519 109.073 88.2519 108.777C88.0519 108.481 87.9119 108.129 87.8319 107.721C87.7599 107.305 87.7239 106.849 87.7239 106.353C87.7239 105.913 87.7599 105.489 87.8319 105.081C87.9119 104.673 88.0519 104.317 88.2519 104.013C88.4519 103.701 88.7239 103.453 89.0679 103.269C89.4199 103.085 89.8639 102.993 90.3999 102.993C90.7199 102.993 90.9959 103.025 91.2279 103.089C91.4599 103.145 91.6599 103.229 91.8279 103.341C91.9959 103.445 92.1359 103.573 92.2479 103.725C92.3599 103.877 92.4479 104.049 92.5119 104.241V100.473H93.5439ZM90.5559 108.837C90.9479 108.837 91.2719 108.781 91.5279 108.669C91.7839 108.557 91.9879 108.393 92.1399 108.177C92.2919 107.961 92.3959 107.701 92.4519 107.397C92.5159 107.085 92.5479 106.737 92.5479 106.353C92.5479 105.985 92.5159 105.649 92.4519 105.345C92.3959 105.033 92.2919 104.769 92.1399 104.553C91.9879 104.329 91.7839 104.157 91.5279 104.037C91.2719 103.917 90.9479 103.857 90.5559 103.857C90.1639 103.857 89.8519 103.929 89.6199 104.073C89.3959 104.209 89.2239 104.397 89.1039 104.637C88.9839 104.869 88.9079 105.137 88.8759 105.441C88.8439 105.737 88.8279 106.041 88.8279 106.353C88.8279 106.689 88.8439 107.009 88.8759 107.313C88.9159 107.617 88.9959 107.881 89.1159 108.105C89.2359 108.329 89.4079 108.509 89.6319 108.645C89.8639 108.773 90.1719 108.837 90.5559 108.837ZM98.3871 108.453C99.2751 107.757 99.9871 107.165 100.523 106.677C101.059 106.189 101.475 105.761 101.771 105.393C102.067 105.025 102.263 104.697 102.359 104.409C102.455 104.113 102.503 103.817 102.503 103.521C102.503 103.225 102.447 102.981 102.335 102.789C102.231 102.597 102.095 102.445 101.927 102.333C101.759 102.221 101.567 102.145 101.351 102.105C101.143 102.065 100.939 102.045 100.739 102.045C100.475 102.045 100.195 102.061 99.8991 102.093C99.6031 102.117 99.2911 102.173 98.9631 102.261V101.337C99.2431 101.273 99.5391 101.225 99.8511 101.193C100.171 101.161 100.507 101.145 100.859 101.145C101.267 101.145 101.635 101.189 101.963 101.277C102.291 101.365 102.571 101.505 102.803 101.697C103.043 101.889 103.223 102.137 103.343 102.441C103.471 102.745 103.535 103.109 103.535 103.533C103.535 103.909 103.479 104.265 103.367 104.601C103.255 104.929 103.067 105.273 102.803 105.633C102.539 105.985 102.183 106.369 101.735 106.785C101.287 107.193 100.727 107.665 100.055 108.201L99.5751 108.573V108.681H103.871V109.593H98.3871V108.453Z" fill="white" fill-opacity="0.9"/>
<path d="M389.582 109.14C388.537 109.14 387.72 108.921 387.132 108.482C386.554 108.043 386.264 107.357 386.264 106.424C386.264 106.051 386.316 105.729 386.418 105.458C386.521 105.178 386.652 104.945 386.81 104.758C386.978 104.562 387.165 104.408 387.37 104.296C387.576 104.175 387.781 104.077 387.986 104.002V103.946C387.576 103.759 387.24 103.498 386.978 103.162C386.717 102.817 386.586 102.341 386.586 101.734C386.586 101.351 386.642 101.001 386.754 100.684C386.876 100.367 387.058 100.096 387.3 99.872C387.543 99.6387 387.851 99.4613 388.224 99.34C388.607 99.2093 389.06 99.144 389.582 99.144C390.105 99.144 390.553 99.2093 390.926 99.34C391.309 99.4613 391.622 99.6387 391.864 99.872C392.107 100.096 392.284 100.367 392.396 100.684C392.518 101.001 392.578 101.351 392.578 101.734C392.578 102.322 392.462 102.793 392.228 103.148C392.004 103.493 391.654 103.759 391.178 103.946V104.002C391.412 104.077 391.631 104.175 391.836 104.296C392.051 104.408 392.238 104.562 392.396 104.758C392.555 104.954 392.676 105.192 392.76 105.472C392.854 105.743 392.9 106.065 392.9 106.438C392.9 107.371 392.611 108.057 392.032 108.496C391.454 108.925 390.637 109.14 389.582 109.14ZM389.582 103.54C389.928 103.54 390.217 103.498 390.45 103.414C390.693 103.321 390.884 103.195 391.024 103.036C391.174 102.877 391.281 102.695 391.346 102.49C391.412 102.285 391.444 102.061 391.444 101.818C391.444 101.286 391.29 100.875 390.982 100.586C390.674 100.297 390.208 100.152 389.582 100.152C388.341 100.152 387.72 100.707 387.72 101.818C387.72 102.061 387.748 102.285 387.804 102.49C387.86 102.695 387.958 102.877 388.098 103.036C388.248 103.195 388.439 103.321 388.672 103.414C388.915 103.498 389.218 103.54 389.582 103.54ZM389.582 108.118C390.348 108.118 390.898 107.964 391.234 107.656C391.57 107.339 391.738 106.914 391.738 106.382C391.738 105.719 391.561 105.234 391.206 104.926C390.852 104.618 390.31 104.464 389.582 104.464C388.854 104.464 388.313 104.618 387.958 104.926C387.613 105.234 387.44 105.719 387.44 106.382C387.44 106.914 387.604 107.339 387.93 107.656C388.266 107.964 388.817 108.118 389.582 108.118ZM394.149 110.904C394.336 110.615 394.509 110.307 394.667 109.98C394.835 109.663 394.975 109.341 395.087 109.014C395.209 108.697 395.302 108.384 395.367 108.076C395.433 107.768 395.465 107.483 395.465 107.222H396.627C396.627 107.521 396.581 107.843 396.487 108.188C396.394 108.524 396.277 108.855 396.137 109.182C395.997 109.509 395.839 109.821 395.661 110.12C395.484 110.419 395.311 110.68 395.143 110.904H394.149ZM401.86 109.14C401.374 109.14 400.931 109.07 400.53 108.93C400.128 108.781 399.783 108.519 399.494 108.146C399.204 107.773 398.98 107.264 398.822 106.62C398.663 105.967 398.584 105.141 398.584 104.142C398.584 103.143 398.663 102.322 398.822 101.678C398.98 101.034 399.204 100.525 399.494 100.152C399.783 99.7693 400.128 99.508 400.53 99.368C400.931 99.2187 401.374 99.144 401.86 99.144C402.345 99.144 402.788 99.2187 403.19 99.368C403.6 99.508 403.95 99.7693 404.24 100.152C404.529 100.525 404.753 101.034 404.912 101.678C405.07 102.322 405.15 103.143 405.15 104.142C405.15 105.141 405.07 105.967 404.912 106.62C404.753 107.264 404.529 107.773 404.24 108.146C403.95 108.519 403.6 108.781 403.19 108.93C402.788 109.07 402.345 109.14 401.86 109.14ZM401.86 108.09C402.205 108.09 402.504 108.034 402.756 107.922C403.008 107.801 403.218 107.591 403.386 107.292C403.554 106.993 403.675 106.592 403.75 106.088C403.834 105.575 403.876 104.926 403.876 104.142C403.876 103.367 403.834 102.728 403.75 102.224C403.675 101.711 403.554 101.305 403.386 101.006C403.218 100.707 403.008 100.502 402.756 100.39C402.504 100.269 402.205 100.208 401.86 100.208C401.524 100.208 401.23 100.269 400.978 100.39C400.726 100.502 400.516 100.707 400.348 101.006C400.189 101.305 400.068 101.711 399.984 102.224C399.909 102.728 399.872 103.367 399.872 104.142C399.872 104.926 399.909 105.575 399.984 106.088C400.068 106.592 400.189 106.993 400.348 107.292C400.516 107.591 400.726 107.801 400.978 107.922C401.23 108.034 401.524 108.09 401.86 108.09ZM409.913 109.14C409.427 109.14 408.984 109.07 408.583 108.93C408.181 108.781 407.836 108.519 407.547 108.146C407.257 107.773 407.033 107.264 406.875 106.62C406.716 105.967 406.637 105.141 406.637 104.142C406.637 103.143 406.716 102.322 406.875 101.678C407.033 101.034 407.257 100.525 407.547 100.152C407.836 99.7693 408.181 99.508 408.583 99.368C408.984 99.2187 409.427 99.144 409.913 99.144C410.398 99.144 410.841 99.2187 411.243 99.368C411.653 99.508 412.003 99.7693 412.293 100.152C412.582 100.525 412.806 101.034 412.965 101.678C413.123 102.322 413.203 103.143 413.203 104.142C413.203 105.141 413.123 105.967 412.965 106.62C412.806 107.264 412.582 107.773 412.293 108.146C412.003 108.519 411.653 108.781 411.243 108.93C410.841 109.07 410.398 109.14 409.913 109.14ZM409.913 108.09C410.258 108.09 410.557 108.034 410.809 107.922C411.061 107.801 411.271 107.591 411.439 107.292C411.607 106.993 411.728 106.592 411.803 106.088C411.887 105.575 411.929 104.926 411.929 104.142C411.929 103.367 411.887 102.728 411.803 102.224C411.728 101.711 411.607 101.305 411.439 101.006C411.271 100.707 411.061 100.502 410.809 100.39C410.557 100.269 410.258 100.208 409.913 100.208C409.577 100.208 409.283 100.269 409.031 100.39C408.779 100.502 408.569 100.707 408.401 101.006C408.242 101.305 408.121 101.711 408.037 102.224C407.962 102.728 407.925 103.367 407.925 104.142C407.925 104.926 407.962 105.575 408.037 106.088C408.121 106.592 408.242 106.993 408.401 107.292C408.569 107.591 408.779 107.801 409.031 107.922C409.283 108.034 409.577 108.09 409.913 108.09ZM417.965 109.14C417.48 109.14 417.037 109.07 416.635 108.93C416.234 108.781 415.889 108.519 415.599 108.146C415.31 107.773 415.086 107.264 414.927 106.62C414.769 105.967 414.689 105.141 414.689 104.142C414.689 103.143 414.769 102.322 414.927 101.678C415.086 101.034 415.31 100.525 415.599 100.152C415.889 99.7693 416.234 99.508 416.635 99.368C417.037 99.2187 417.48 99.144 417.965 99.144C418.451 99.144 418.894 99.2187 419.295 99.368C419.706 99.508 420.056 99.7693 420.345 100.152C420.635 100.525 420.859 101.034 421.017 101.678C421.176 102.322 421.255 103.143 421.255 104.142C421.255 105.141 421.176 105.967 421.017 106.62C420.859 107.264 420.635 107.773 420.345 108.146C420.056 108.519 419.706 108.781 419.295 108.93C418.894 109.07 418.451 109.14 417.965 109.14ZM417.965 108.09C418.311 108.09 418.609 108.034 418.861 107.922C419.113 107.801 419.323 107.591 419.491 107.292C419.659 106.993 419.781 106.592 419.855 106.088C419.939 105.575 419.981 104.926 419.981 104.142C419.981 103.367 419.939 102.728 419.855 102.224C419.781 101.711 419.659 101.305 419.491 101.006C419.323 100.707 419.113 100.502 418.861 100.39C418.609 100.269 418.311 100.208 417.965 100.208C417.629 100.208 417.335 100.269 417.083 100.39C416.831 100.502 416.621 100.707 416.453 101.006C416.295 101.305 416.173 101.711 416.089 102.224C416.015 102.728 415.977 103.367 415.977 104.142C415.977 104.926 416.015 105.575 416.089 106.088C416.173 106.592 416.295 106.993 416.453 107.292C416.621 107.591 416.831 107.801 417.083 107.922C417.335 108.034 417.629 108.09 417.965 108.09Z" fill="white" fill-opacity="0.9"/>
<rect width="4.00002" height="402" transform="translate(422 169) rotate(90)" fill="white" fill-opacity="0.05"/>
<rect x="20" y="169" width="223.2" height="4" fill="url(#paint2_linear_943_6590)"/>
<rect x="20" y="141.593" width="24" height="17" rx="4" fill="#4064FF"/>
<path d="M31.2608 154.713C30.9248 154.713 30.5968 154.701 30.2768 154.677C29.9648 154.653 29.6688 154.613 29.3888 154.557V153.609C29.7088 153.689 30.0168 153.745 30.3128 153.777C30.6168 153.801 30.9288 153.813 31.2488 153.813C31.5608 153.813 31.8488 153.789 32.1128 153.741C32.3848 153.693 32.6168 153.609 32.8088 153.489C33.0008 153.369 33.1528 153.213 33.2648 153.021C33.3768 152.821 33.4328 152.577 33.4328 152.289C33.4328 151.697 33.2328 151.285 32.8328 151.053C32.4328 150.821 31.8368 150.705 31.0448 150.705H30.3848V149.877H31.0328C31.7608 149.877 32.3128 149.745 32.6888 149.481C33.0648 149.209 33.2528 148.845 33.2528 148.389C33.2528 147.901 33.1048 147.553 32.8088 147.345C32.5208 147.137 32.0768 147.033 31.4768 147.033C31.2368 147.033 30.9608 147.053 30.6488 147.093C30.3368 147.133 30.0488 147.193 29.7848 147.273V146.385C29.9928 146.321 30.2528 146.265 30.5648 146.217C30.8848 146.169 31.2048 146.145 31.5248 146.145C32.4208 146.145 33.0968 146.317 33.5528 146.661C34.0168 147.005 34.2488 147.561 34.2488 148.329C34.2488 148.873 34.1168 149.293 33.8528 149.589C33.5888 149.877 33.2288 150.089 32.7728 150.225V150.297C33.3648 150.401 33.7928 150.625 34.0568 150.969C34.3288 151.305 34.4648 151.749 34.4648 152.301C34.4648 153.069 34.2048 153.665 33.6848 154.089C33.1728 154.505 32.3648 154.713 31.2608 154.713Z" fill="white"/>
<path d="M57.796 153.621V154.593H53.104V146.265H54.184V153.621H57.796ZM64.322 150.705C64.322 150.793 64.314 150.905 64.298 151.041C64.29 151.169 64.278 151.309 64.262 151.461L59.87 151.737C59.87 152.089 59.906 152.397 59.978 152.661C60.05 152.917 60.166 153.129 60.326 153.297C60.486 153.465 60.698 153.593 60.962 153.681C61.226 153.761 61.554 153.801 61.946 153.801C62.306 153.801 62.67 153.761 63.038 153.681C63.414 153.601 63.726 153.501 63.974 153.381V154.329C63.878 154.377 63.754 154.425 63.602 154.473C63.45 154.521 63.278 154.561 63.086 154.593C62.894 154.633 62.686 154.661 62.462 154.677C62.246 154.701 62.022 154.713 61.79 154.713C61.31 154.713 60.882 154.661 60.506 154.557C60.138 154.445 59.826 154.261 59.57 154.005C59.314 153.741 59.118 153.397 58.982 152.973C58.854 152.541 58.79 152.001 58.79 151.353C58.79 150.705 58.854 150.169 58.982 149.745C59.118 149.313 59.31 148.969 59.558 148.713C59.814 148.449 60.122 148.265 60.482 148.161C60.85 148.049 61.266 147.993 61.73 147.993C62.282 147.993 62.726 148.077 63.062 148.245C63.406 148.405 63.67 148.617 63.854 148.881C64.038 149.137 64.162 149.429 64.226 149.757C64.29 150.077 64.322 150.393 64.322 150.705ZM63.302 150.717C63.302 150.469 63.286 150.233 63.254 150.009C63.222 149.777 63.15 149.577 63.038 149.409C62.934 149.233 62.778 149.097 62.57 149.001C62.362 148.897 62.082 148.845 61.73 148.845C61.354 148.845 61.046 148.893 60.806 148.989C60.574 149.085 60.39 149.225 60.254 149.409C60.118 149.593 60.022 149.817 59.966 150.081C59.91 150.345 59.878 150.641 59.87 150.969L63.302 150.717ZM71.5595 148.113V154.137C71.5595 155.033 71.3035 155.733 70.7915 156.237C70.2875 156.741 69.4875 156.993 68.3915 156.993C68.1115 156.993 67.8315 156.977 67.5515 156.945C67.2715 156.913 67.0275 156.877 66.8195 156.837V155.961C67.3075 156.057 67.8355 156.105 68.4035 156.105C69.1235 156.105 69.6555 155.945 69.9995 155.625C70.3515 155.305 70.5275 154.773 70.5275 154.029V153.381C70.3915 153.765 70.1635 154.065 69.8435 154.281C69.5235 154.489 69.0515 154.593 68.4275 154.593C67.8835 154.593 67.4395 154.513 67.0955 154.353C66.7515 154.193 66.4755 153.969 66.2675 153.681C66.0675 153.393 65.9275 153.049 65.8475 152.649C65.7755 152.241 65.7395 151.789 65.7395 151.293C65.7395 150.845 65.7755 150.421 65.8475 150.021C65.9275 149.621 66.0675 149.273 66.2675 148.977C66.4755 148.673 66.7515 148.433 67.0955 148.257C67.4395 148.081 67.8835 147.993 68.4275 147.993C68.7555 147.993 69.0355 148.029 69.2675 148.101C69.5075 148.165 69.7075 148.257 69.8675 148.377C70.0355 148.489 70.1715 148.629 70.2755 148.797C70.3795 148.957 70.4635 149.133 70.5275 149.325V148.113H71.5595ZM68.5715 153.729C68.9635 153.729 69.2875 153.677 69.5435 153.573C69.7995 153.461 70.0035 153.301 70.1555 153.093C70.3075 152.885 70.4115 152.629 70.4675 152.325C70.5315 152.021 70.5635 151.677 70.5635 151.293C70.5635 150.925 70.5315 150.589 70.4675 150.285C70.4115 149.981 70.3075 149.725 70.1555 149.517C70.0035 149.309 69.7995 149.149 69.5435 149.037C69.2875 148.917 68.9635 148.857 68.5715 148.857C68.1795 148.857 67.8675 148.925 67.6355 149.061C67.4115 149.197 67.2395 149.377 67.1195 149.601C66.9995 149.825 66.9235 150.085 66.8915 150.381C66.8595 150.677 66.8435 150.981 66.8435 151.293C66.8435 151.629 66.8595 151.945 66.8915 152.241C66.9315 152.537 67.0115 152.797 67.1315 153.021C67.2515 153.237 67.4235 153.409 67.6475 153.537C67.8795 153.665 68.1875 153.729 68.5715 153.729ZM78.8884 150.705C78.8884 150.793 78.8804 150.905 78.8644 151.041C78.8564 151.169 78.8444 151.309 78.8284 151.461L74.4364 151.737C74.4364 152.089 74.4724 152.397 74.5444 152.661C74.6164 152.917 74.7324 153.129 74.8924 153.297C75.0524 153.465 75.2644 153.593 75.5284 153.681C75.7924 153.761 76.1204 153.801 76.5124 153.801C76.8724 153.801 77.2364 153.761 77.6044 153.681C77.9804 153.601 78.2924 153.501 78.5404 153.381V154.329C78.4444 154.377 78.3204 154.425 78.1684 154.473C78.0164 154.521 77.8444 154.561 77.6524 154.593C77.4604 154.633 77.2524 154.661 77.0284 154.677C76.8124 154.701 76.5884 154.713 76.3564 154.713C75.8764 154.713 75.4484 154.661 75.0724 154.557C74.7044 154.445 74.3924 154.261 74.1364 154.005C73.8804 153.741 73.6844 153.397 73.5484 152.973C73.4204 152.541 73.3564 152.001 73.3564 151.353C73.3564 150.705 73.4204 150.169 73.5484 149.745C73.6844 149.313 73.8764 148.969 74.1244 148.713C74.3804 148.449 74.6884 148.265 75.0484 148.161C75.4164 148.049 75.8324 147.993 76.2964 147.993C76.8484 147.993 77.2924 148.077 77.6284 148.245C77.9724 148.405 78.2364 148.617 78.4204 148.881C78.6044 149.137 78.7284 149.429 78.7924 149.757C78.8564 150.077 78.8884 150.393 78.8884 150.705ZM77.8684 150.717C77.8684 150.469 77.8524 150.233 77.8204 150.009C77.7884 149.777 77.7164 149.577 77.6044 149.409C77.5004 149.233 77.3444 149.097 77.1364 149.001C76.9284 148.897 76.6484 148.845 76.2964 148.845C75.9204 148.845 75.6124 148.893 75.3724 148.989C75.1404 149.085 74.9564 149.225 74.8204 149.409C74.6844 149.593 74.5884 149.817 74.5324 150.081C74.4764 150.345 74.4444 150.641 74.4364 150.969L77.8684 150.717ZM83.7859 147.993C84.2099 147.993 84.5619 148.045 84.8419 148.149C85.1219 148.253 85.3419 148.401 85.5019 148.593C85.6699 148.777 85.7859 148.997 85.8499 149.253C85.9219 149.509 85.9579 149.793 85.9579 150.105V154.593H84.9139V150.489C84.9139 150.241 84.8979 150.021 84.8659 149.829C84.8339 149.629 84.7699 149.465 84.6739 149.337C84.5859 149.201 84.4619 149.097 84.3019 149.025C84.1419 148.953 83.9339 148.917 83.6779 148.917C83.4699 148.917 83.2659 148.933 83.0659 148.965C82.8739 148.989 82.6899 149.049 82.5139 149.145C82.3459 149.233 82.1899 149.361 82.0459 149.529C81.9099 149.697 81.7979 149.925 81.7099 150.213V154.593H80.6779V148.113H81.7099V149.037C81.8059 148.829 81.9299 148.657 82.0819 148.521C82.2419 148.385 82.4139 148.281 82.5979 148.209C82.7819 148.129 82.9739 148.073 83.1739 148.041C83.3819 148.009 83.5859 147.993 83.7859 147.993ZM93.5439 145.473V154.593H92.6679L92.5119 153.525C92.3839 153.869 92.1479 154.153 91.8039 154.377C91.4599 154.601 90.9919 154.713 90.3999 154.713C89.8639 154.713 89.4199 154.633 89.0679 154.473C88.7239 154.305 88.4519 154.073 88.2519 153.777C88.0519 153.481 87.9119 153.129 87.8319 152.721C87.7599 152.305 87.7239 151.849 87.7239 151.353C87.7239 150.913 87.7599 150.489 87.8319 150.081C87.9119 149.673 88.0519 149.317 88.2519 149.013C88.4519 148.701 88.7239 148.453 89.0679 148.269C89.4199 148.085 89.8639 147.993 90.3999 147.993C90.7199 147.993 90.9959 148.025 91.2279 148.089C91.4599 148.145 91.6599 148.229 91.8279 148.341C91.9959 148.445 92.1359 148.573 92.2479 148.725C92.3599 148.877 92.4479 149.049 92.5119 149.241V145.473H93.5439ZM90.5559 153.837C90.9479 153.837 91.2719 153.781 91.5279 153.669C91.7839 153.557 91.9879 153.393 92.1399 153.177C92.2919 152.961 92.3959 152.701 92.4519 152.397C92.5159 152.085 92.5479 151.737 92.5479 151.353C92.5479 150.985 92.5159 150.649 92.4519 150.345C92.3959 150.033 92.2919 149.769 92.1399 149.553C91.9879 149.329 91.7839 149.157 91.5279 149.037C91.2719 148.917 90.9479 148.857 90.5559 148.857C90.1639 148.857 89.8519 148.929 89.6199 149.073C89.3959 149.209 89.2239 149.397 89.1039 149.637C88.9839 149.869 88.9079 150.137 88.8759 150.441C88.8439 150.737 88.8279 151.041 88.8279 151.353C88.8279 151.689 88.8439 152.009 88.8759 152.313C88.9159 152.617 88.9959 152.881 89.1159 153.105C89.2359 153.329 89.4079 153.509 89.6319 153.645C89.8639 153.773 90.1719 153.837 90.5559 153.837ZM100.415 154.713C100.079 154.713 99.7511 154.701 99.4311 154.677C99.1191 154.653 98.8231 154.613 98.5431 154.557V153.609C98.8631 153.689 99.1711 153.745 99.4671 153.777C99.7711 153.801 100.083 153.813 100.403 153.813C100.715 153.813 101.003 153.789 101.267 153.741C101.539 153.693 101.771 153.609 101.963 153.489C102.155 153.369 102.307 153.213 102.419 153.021C102.531 152.821 102.587 152.577 102.587 152.289C102.587 151.697 102.387 151.285 101.987 151.053C101.587 150.821 100.991 150.705 100.199 150.705H99.5391V149.877H100.187C100.915 149.877 101.467 149.745 101.843 149.481C102.219 149.209 102.407 148.845 102.407 148.389C102.407 147.901 102.259 147.553 101.963 147.345C101.675 147.137 101.231 147.033 100.631 147.033C100.391 147.033 100.115 147.053 99.8031 147.093C99.4911 147.133 99.2031 147.193 98.9391 147.273V146.385C99.1471 146.321 99.4071 146.265 99.7191 146.217C100.039 146.169 100.359 146.145 100.679 146.145C101.575 146.145 102.251 146.317 102.707 146.661C103.171 147.005 103.403 147.561 103.403 148.329C103.403 148.873 103.271 149.293 103.007 149.589C102.743 149.877 102.383 150.089 101.927 150.225V150.297C102.519 150.401 102.947 150.625 103.211 150.969C103.483 151.305 103.619 151.749 103.619 152.301C103.619 153.069 103.359 153.665 102.839 154.089C102.327 154.505 101.519 154.713 100.415 154.713Z" fill="white" fill-opacity="0.9"/>
<path d="M389.582 154.14C389.134 154.14 388.714 154.079 388.322 153.958C387.94 153.827 387.599 153.613 387.3 153.314C387.011 153.015 386.782 152.619 386.614 152.124C386.446 151.62 386.362 150.99 386.362 150.234C386.362 149.329 386.46 148.503 386.656 147.756C386.862 147.009 387.174 146.37 387.594 145.838C388.014 145.297 388.551 144.881 389.204 144.592C389.867 144.293 390.656 144.144 391.57 144.144L391.556 145.208C390.959 145.208 390.427 145.292 389.96 145.46C389.494 145.628 389.097 145.861 388.77 146.16C388.444 146.449 388.187 146.795 388 147.196C387.814 147.588 387.702 148.013 387.664 148.47H387.706C387.893 148.283 388.168 148.106 388.532 147.938C388.896 147.761 389.316 147.672 389.792 147.672C390.698 147.672 391.416 147.929 391.948 148.442C392.48 148.955 392.746 149.744 392.746 150.808C392.746 151.284 392.681 151.727 392.55 152.138C392.429 152.539 392.238 152.889 391.976 153.188C391.724 153.487 391.398 153.72 390.996 153.888C390.595 154.056 390.124 154.14 389.582 154.14ZM389.568 153.09C390.231 153.09 390.735 152.903 391.08 152.53C391.426 152.147 391.598 151.573 391.598 150.808C391.598 150.08 391.426 149.539 391.08 149.184C390.735 148.82 390.287 148.638 389.736 148.638C388.98 148.638 388.43 148.82 388.084 149.184C387.739 149.539 387.566 150.005 387.566 150.584C387.566 152.255 388.234 153.09 389.568 153.09ZM394.149 155.904C394.336 155.615 394.509 155.307 394.667 154.98C394.835 154.663 394.975 154.341 395.087 154.014C395.209 153.697 395.302 153.384 395.367 153.076C395.433 152.768 395.465 152.483 395.465 152.222H396.627C396.627 152.521 396.581 152.843 396.487 153.188C396.394 153.524 396.277 153.855 396.137 154.182C395.997 154.509 395.839 154.821 395.661 155.12C395.484 155.419 395.311 155.68 395.143 155.904H394.149ZM401.86 154.14C401.374 154.14 400.931 154.07 400.53 153.93C400.128 153.781 399.783 153.519 399.494 153.146C399.204 152.773 398.98 152.264 398.822 151.62C398.663 150.967 398.584 150.141 398.584 149.142C398.584 148.143 398.663 147.322 398.822 146.678C398.98 146.034 399.204 145.525 399.494 145.152C399.783 144.769 400.128 144.508 400.53 144.368C400.931 144.219 401.374 144.144 401.86 144.144C402.345 144.144 402.788 144.219 403.19 144.368C403.6 144.508 403.95 144.769 404.24 145.152C404.529 145.525 404.753 146.034 404.912 146.678C405.07 147.322 405.15 148.143 405.15 149.142C405.15 150.141 405.07 150.967 404.912 151.62C404.753 152.264 404.529 152.773 404.24 153.146C403.95 153.519 403.6 153.781 403.19 153.93C402.788 154.07 402.345 154.14 401.86 154.14ZM401.86 153.09C402.205 153.09 402.504 153.034 402.756 152.922C403.008 152.801 403.218 152.591 403.386 152.292C403.554 151.993 403.675 151.592 403.75 151.088C403.834 150.575 403.876 149.926 403.876 149.142C403.876 148.367 403.834 147.728 403.75 147.224C403.675 146.711 403.554 146.305 403.386 146.006C403.218 145.707 403.008 145.502 402.756 145.39C402.504 145.269 402.205 145.208 401.86 145.208C401.524 145.208 401.23 145.269 400.978 145.39C400.726 145.502 400.516 145.707 400.348 146.006C400.189 146.305 400.068 146.711 399.984 147.224C399.909 147.728 399.872 148.367 399.872 149.142C399.872 149.926 399.909 150.575 399.984 151.088C400.068 151.592 400.189 151.993 400.348 152.292C400.516 152.591 400.726 152.801 400.978 152.922C401.23 153.034 401.524 153.09 401.86 153.09ZM409.913 154.14C409.427 154.14 408.984 154.07 408.583 153.93C408.181 153.781 407.836 153.519 407.547 153.146C407.257 152.773 407.033 152.264 406.875 151.62C406.716 150.967 406.637 150.141 406.637 149.142C406.637 148.143 406.716 147.322 406.875 146.678C407.033 146.034 407.257 145.525 407.547 145.152C407.836 144.769 408.181 144.508 408.583 144.368C408.984 144.219 409.427 144.144 409.913 144.144C410.398 144.144 410.841 144.219 411.243 144.368C411.653 144.508 412.003 144.769 412.293 145.152C412.582 145.525 412.806 146.034 412.965 146.678C413.123 147.322 413.203 148.143 413.203 149.142C413.203 150.141 413.123 150.967 412.965 151.62C412.806 152.264 412.582 152.773 412.293 153.146C412.003 153.519 411.653 153.781 411.243 153.93C410.841 154.07 410.398 154.14 409.913 154.14ZM409.913 153.09C410.258 153.09 410.557 153.034 410.809 152.922C411.061 152.801 411.271 152.591 411.439 152.292C411.607 151.993 411.728 151.592 411.803 151.088C411.887 150.575 411.929 149.926 411.929 149.142C411.929 148.367 411.887 147.728 411.803 147.224C411.728 146.711 411.607 146.305 411.439 146.006C411.271 145.707 411.061 145.502 410.809 145.39C410.557 145.269 410.258 145.208 409.913 145.208C409.577 145.208 409.283 145.269 409.031 145.39C408.779 145.502 408.569 145.707 408.401 146.006C408.242 146.305 408.121 146.711 408.037 147.224C407.962 147.728 407.925 148.367 407.925 149.142C407.925 149.926 407.962 150.575 408.037 151.088C408.121 151.592 408.242 151.993 408.401 152.292C408.569 152.591 408.779 152.801 409.031 152.922C409.283 153.034 409.577 153.09 409.913 153.09ZM417.965 154.14C417.48 154.14 417.037 154.07 416.635 153.93C416.234 153.781 415.889 153.519 415.599 153.146C415.31 152.773 415.086 152.264 414.927 151.62C414.769 150.967 414.689 150.141 414.689 149.142C414.689 148.143 414.769 147.322 414.927 146.678C415.086 146.034 415.31 145.525 415.599 145.152C415.889 144.769 416.234 144.508 416.635 144.368C417.037 144.219 417.48 144.144 417.965 144.144C418.451 144.144 418.894 144.219 419.295 144.368C419.706 144.508 420.056 144.769 420.345 145.152C420.635 145.525 420.859 146.034 421.017 146.678C421.176 147.322 421.255 148.143 421.255 149.142C421.255 150.141 421.176 150.967 421.017 151.62C420.859 152.264 420.635 152.773 420.345 153.146C420.056 153.519 419.706 153.781 419.295 153.93C418.894 154.07 418.451 154.14 417.965 154.14ZM417.965 153.09C418.311 153.09 418.609 153.034 418.861 152.922C419.113 152.801 419.323 152.591 419.491 152.292C419.659 151.993 419.781 151.592 419.855 151.088C419.939 150.575 419.981 149.926 419.981 149.142C419.981 148.367 419.939 147.728 419.855 147.224C419.781 146.711 419.659 146.305 419.491 146.006C419.323 145.707 419.113 145.502 418.861 145.39C418.609 145.269 418.311 145.208 417.965 145.208C417.629 145.208 417.335 145.269 417.083 145.39C416.831 145.502 416.621 145.707 416.453 146.006C416.295 146.305 416.173 146.711 416.089 147.224C416.015 147.728 415.977 148.367 415.977 149.142C415.977 149.926 416.015 150.575 416.089 151.088C416.173 151.592 416.295 151.993 416.453 152.292C416.621 152.591 416.831 152.801 417.083 152.922C417.335 153.034 417.629 153.09 417.965 153.09Z" fill="white" fill-opacity="0.9"/>
<rect width="4.00002" height="402" transform="translate(422 214) rotate(90)" fill="white" fill-opacity="0.05"/>
<rect x="20" y="214" width="148.8" height="4" fill="url(#paint3_linear_943_6590)"/>
<rect x="20" y="186.593" width="24" height="17" rx="4" fill="#4064FF"/>
<path d="M34.8968 197.541H33.9128V199.593H32.9048V197.541H28.9688V196.377L32.6168 191.265H33.9128V196.629H34.8968V197.541ZM32.9048 196.629V192.369H32.8328L29.8808 196.557V196.629H32.9048Z" fill="white"/>
<path d="M57.796 198.621V199.593H53.104V191.265H54.184V198.621H57.796ZM64.322 195.705C64.322 195.793 64.314 195.905 64.298 196.041C64.29 196.169 64.278 196.309 64.262 196.461L59.87 196.737C59.87 197.089 59.906 197.397 59.978 197.661C60.05 197.917 60.166 198.129 60.326 198.297C60.486 198.465 60.698 198.593 60.962 198.681C61.226 198.761 61.554 198.801 61.946 198.801C62.306 198.801 62.67 198.761 63.038 198.681C63.414 198.601 63.726 198.501 63.974 198.381V199.329C63.878 199.377 63.754 199.425 63.602 199.473C63.45 199.521 63.278 199.561 63.086 199.593C62.894 199.633 62.686 199.661 62.462 199.677C62.246 199.701 62.022 199.713 61.79 199.713C61.31 199.713 60.882 199.661 60.506 199.557C60.138 199.445 59.826 199.261 59.57 199.005C59.314 198.741 59.118 198.397 58.982 197.973C58.854 197.541 58.79 197.001 58.79 196.353C58.79 195.705 58.854 195.169 58.982 194.745C59.118 194.313 59.31 193.969 59.558 193.713C59.814 193.449 60.122 193.265 60.482 193.161C60.85 193.049 61.266 192.993 61.73 192.993C62.282 192.993 62.726 193.077 63.062 193.245C63.406 193.405 63.67 193.617 63.854 193.881C64.038 194.137 64.162 194.429 64.226 194.757C64.29 195.077 64.322 195.393 64.322 195.705ZM63.302 195.717C63.302 195.469 63.286 195.233 63.254 195.009C63.222 194.777 63.15 194.577 63.038 194.409C62.934 194.233 62.778 194.097 62.57 194.001C62.362 193.897 62.082 193.845 61.73 193.845C61.354 193.845 61.046 193.893 60.806 193.989C60.574 194.085 60.39 194.225 60.254 194.409C60.118 194.593 60.022 194.817 59.966 195.081C59.91 195.345 59.878 195.641 59.87 195.969L63.302 195.717ZM71.5595 193.113V199.137C71.5595 200.033 71.3035 200.733 70.7915 201.237C70.2875 201.741 69.4875 201.993 68.3915 201.993C68.1115 201.993 67.8315 201.977 67.5515 201.945C67.2715 201.913 67.0275 201.877 66.8195 201.837V200.961C67.3075 201.057 67.8355 201.105 68.4035 201.105C69.1235 201.105 69.6555 200.945 69.9995 200.625C70.3515 200.305 70.5275 199.773 70.5275 199.029V198.381C70.3915 198.765 70.1635 199.065 69.8435 199.281C69.5235 199.489 69.0515 199.593 68.4275 199.593C67.8835 199.593 67.4395 199.513 67.0955 199.353C66.7515 199.193 66.4755 198.969 66.2675 198.681C66.0675 198.393 65.9275 198.049 65.8475 197.649C65.7755 197.241 65.7395 196.789 65.7395 196.293C65.7395 195.845 65.7755 195.421 65.8475 195.021C65.9275 194.621 66.0675 194.273 66.2675 193.977C66.4755 193.673 66.7515 193.433 67.0955 193.257C67.4395 193.081 67.8835 192.993 68.4275 192.993C68.7555 192.993 69.0355 193.029 69.2675 193.101C69.5075 193.165 69.7075 193.257 69.8675 193.377C70.0355 193.489 70.1715 193.629 70.2755 193.797C70.3795 193.957 70.4635 194.133 70.5275 194.325V193.113H71.5595ZM68.5715 198.729C68.9635 198.729 69.2875 198.677 69.5435 198.573C69.7995 198.461 70.0035 198.301 70.1555 198.093C70.3075 197.885 70.4115 197.629 70.4675 197.325C70.5315 197.021 70.5635 196.677 70.5635 196.293C70.5635 195.925 70.5315 195.589 70.4675 195.285C70.4115 194.981 70.3075 194.725 70.1555 194.517C70.0035 194.309 69.7995 194.149 69.5435 194.037C69.2875 193.917 68.9635 193.857 68.5715 193.857C68.1795 193.857 67.8675 193.925 67.6355 194.061C67.4115 194.197 67.2395 194.377 67.1195 194.601C66.9995 194.825 66.9235 195.085 66.8915 195.381C66.8595 195.677 66.8435 195.981 66.8435 196.293C66.8435 196.629 66.8595 196.945 66.8915 197.241C66.9315 197.537 67.0115 197.797 67.1315 198.021C67.2515 198.237 67.4235 198.409 67.6475 198.537C67.8795 198.665 68.1875 198.729 68.5715 198.729ZM78.8884 195.705C78.8884 195.793 78.8804 195.905 78.8644 196.041C78.8564 196.169 78.8444 196.309 78.8284 196.461L74.4364 196.737C74.4364 197.089 74.4724 197.397 74.5444 197.661C74.6164 197.917 74.7324 198.129 74.8924 198.297C75.0524 198.465 75.2644 198.593 75.5284 198.681C75.7924 198.761 76.1204 198.801 76.5124 198.801C76.8724 198.801 77.2364 198.761 77.6044 198.681C77.9804 198.601 78.2924 198.501 78.5404 198.381V199.329C78.4444 199.377 78.3204 199.425 78.1684 199.473C78.0164 199.521 77.8444 199.561 77.6524 199.593C77.4604 199.633 77.2524 199.661 77.0284 199.677C76.8124 199.701 76.5884 199.713 76.3564 199.713C75.8764 199.713 75.4484 199.661 75.0724 199.557C74.7044 199.445 74.3924 199.261 74.1364 199.005C73.8804 198.741 73.6844 198.397 73.5484 197.973C73.4204 197.541 73.3564 197.001 73.3564 196.353C73.3564 195.705 73.4204 195.169 73.5484 194.745C73.6844 194.313 73.8764 193.969 74.1244 193.713C74.3804 193.449 74.6884 193.265 75.0484 193.161C75.4164 193.049 75.8324 192.993 76.2964 192.993C76.8484 192.993 77.2924 193.077 77.6284 193.245C77.9724 193.405 78.2364 193.617 78.4204 193.881C78.6044 194.137 78.7284 194.429 78.7924 194.757C78.8564 195.077 78.8884 195.393 78.8884 195.705ZM77.8684 195.717C77.8684 195.469 77.8524 195.233 77.8204 195.009C77.7884 194.777 77.7164 194.577 77.6044 194.409C77.5004 194.233 77.3444 194.097 77.1364 194.001C76.9284 193.897 76.6484 193.845 76.2964 193.845C75.9204 193.845 75.6124 193.893 75.3724 193.989C75.1404 194.085 74.9564 194.225 74.8204 194.409C74.6844 194.593 74.5884 194.817 74.5324 195.081C74.4764 195.345 74.4444 195.641 74.4364 195.969L77.8684 195.717ZM83.7859 192.993C84.2099 192.993 84.5619 193.045 84.8419 193.149C85.1219 193.253 85.3419 193.401 85.5019 193.593C85.6699 193.777 85.7859 193.997 85.8499 194.253C85.9219 194.509 85.9579 194.793 85.9579 195.105V199.593H84.9139V195.489C84.9139 195.241 84.8979 195.021 84.8659 194.829C84.8339 194.629 84.7699 194.465 84.6739 194.337C84.5859 194.201 84.4619 194.097 84.3019 194.025C84.1419 193.953 83.9339 193.917 83.6779 193.917C83.4699 193.917 83.2659 193.933 83.0659 193.965C82.8739 193.989 82.6899 194.049 82.5139 194.145C82.3459 194.233 82.1899 194.361 82.0459 194.529C81.9099 194.697 81.7979 194.925 81.7099 195.213V199.593H80.6779V193.113H81.7099V194.037C81.8059 193.829 81.9299 193.657 82.0819 193.521C82.2419 193.385 82.4139 193.281 82.5979 193.209C82.7819 193.129 82.9739 193.073 83.1739 193.041C83.3819 193.009 83.5859 192.993 83.7859 192.993ZM93.5439 190.473V199.593H92.6679L92.5119 198.525C92.3839 198.869 92.1479 199.153 91.8039 199.377C91.4599 199.601 90.9919 199.713 90.3999 199.713C89.8639 199.713 89.4199 199.633 89.0679 199.473C88.7239 199.305 88.4519 199.073 88.2519 198.777C88.0519 198.481 87.9119 198.129 87.8319 197.721C87.7599 197.305 87.7239 196.849 87.7239 196.353C87.7239 195.913 87.7599 195.489 87.8319 195.081C87.9119 194.673 88.0519 194.317 88.2519 194.013C88.4519 193.701 88.7239 193.453 89.0679 193.269C89.4199 193.085 89.8639 192.993 90.3999 192.993C90.7199 192.993 90.9959 193.025 91.2279 193.089C91.4599 193.145 91.6599 193.229 91.8279 193.341C91.9959 193.445 92.1359 193.573 92.2479 193.725C92.3599 193.877 92.4479 194.049 92.5119 194.241V190.473H93.5439ZM90.5559 198.837C90.9479 198.837 91.2719 198.781 91.5279 198.669C91.7839 198.557 91.9879 198.393 92.1399 198.177C92.2919 197.961 92.3959 197.701 92.4519 197.397C92.5159 197.085 92.5479 196.737 92.5479 196.353C92.5479 195.985 92.5159 195.649 92.4519 195.345C92.3959 195.033 92.2919 194.769 92.1399 194.553C91.9879 194.329 91.7839 194.157 91.5279 194.037C91.2719 193.917 90.9479 193.857 90.5559 193.857C90.1639 193.857 89.8519 193.929 89.6199 194.073C89.3959 194.209 89.2239 194.397 89.1039 194.637C88.9839 194.869 88.9079 195.137 88.8759 195.441C88.8439 195.737 88.8279 196.041 88.8279 196.353C88.8279 196.689 88.8439 197.009 88.8759 197.313C88.9159 197.617 88.9959 197.881 89.1159 198.105C89.2359 198.329 89.4079 198.509 89.6319 198.645C89.8639 198.773 90.1719 198.837 90.5559 198.837ZM104.051 197.541H103.067V199.593H102.059V197.541H98.1231V196.377L101.771 191.265H103.067V196.629H104.051V197.541ZM102.059 196.629V192.369H101.987L99.0351 196.557V196.629H102.059Z" fill="white" fill-opacity="0.9"/>
<path d="M392.97 196.606H391.822V199H390.646V196.606H386.054V195.248L390.31 189.284H391.822V195.542H392.97V196.606ZM390.646 195.542V190.572H390.562L387.118 195.458V195.542H390.646ZM394.149 200.904C394.336 200.615 394.509 200.307 394.667 199.98C394.835 199.663 394.975 199.341 395.087 199.014C395.209 198.697 395.302 198.384 395.367 198.076C395.433 197.768 395.465 197.483 395.465 197.222H396.627C396.627 197.521 396.581 197.843 396.487 198.188C396.394 198.524 396.277 198.855 396.137 199.182C395.997 199.509 395.839 199.821 395.661 200.12C395.484 200.419 395.311 200.68 395.143 200.904H394.149ZM401.86 199.14C401.374 199.14 400.931 199.07 400.53 198.93C400.128 198.781 399.783 198.519 399.494 198.146C399.204 197.773 398.98 197.264 398.822 196.62C398.663 195.967 398.584 195.141 398.584 194.142C398.584 193.143 398.663 192.322 398.822 191.678C398.98 191.034 399.204 190.525 399.494 190.152C399.783 189.769 400.128 189.508 400.53 189.368C400.931 189.219 401.374 189.144 401.86 189.144C402.345 189.144 402.788 189.219 403.19 189.368C403.6 189.508 403.95 189.769 404.24 190.152C404.529 190.525 404.753 191.034 404.912 191.678C405.07 192.322 405.15 193.143 405.15 194.142C405.15 195.141 405.07 195.967 404.912 196.62C404.753 197.264 404.529 197.773 404.24 198.146C403.95 198.519 403.6 198.781 403.19 198.93C402.788 199.07 402.345 199.14 401.86 199.14ZM401.86 198.09C402.205 198.09 402.504 198.034 402.756 197.922C403.008 197.801 403.218 197.591 403.386 197.292C403.554 196.993 403.675 196.592 403.75 196.088C403.834 195.575 403.876 194.926 403.876 194.142C403.876 193.367 403.834 192.728 403.75 192.224C403.675 191.711 403.554 191.305 403.386 191.006C403.218 190.707 403.008 190.502 402.756 190.39C402.504 190.269 402.205 190.208 401.86 190.208C401.524 190.208 401.23 190.269 400.978 190.39C400.726 190.502 400.516 190.707 400.348 191.006C400.189 191.305 400.068 191.711 399.984 192.224C399.909 192.728 399.872 193.367 399.872 194.142C399.872 194.926 399.909 195.575 399.984 196.088C400.068 196.592 400.189 196.993 400.348 197.292C400.516 197.591 400.726 197.801 400.978 197.922C401.23 198.034 401.524 198.09 401.86 198.09ZM409.913 199.14C409.427 199.14 408.984 199.07 408.583 198.93C408.181 198.781 407.836 198.519 407.547 198.146C407.257 197.773 407.033 197.264 406.875 196.62C406.716 195.967 406.637 195.141 406.637 194.142C406.637 193.143 406.716 192.322 406.875 191.678C407.033 191.034 407.257 190.525 407.547 190.152C407.836 189.769 408.181 189.508 408.583 189.368C408.984 189.219 409.427 189.144 409.913 189.144C410.398 189.144 410.841 189.219 411.243 189.368C411.653 189.508 412.003 189.769 412.293 190.152C412.582 190.525 412.806 191.034 412.965 191.678C413.123 192.322 413.203 193.143 413.203 194.142C413.203 195.141 413.123 195.967 412.965 196.62C412.806 197.264 412.582 197.773 412.293 198.146C412.003 198.519 411.653 198.781 411.243 198.93C410.841 199.07 410.398 199.14 409.913 199.14ZM409.913 198.09C410.258 198.09 410.557 198.034 410.809 197.922C411.061 197.801 411.271 197.591 411.439 197.292C411.607 196.993 411.728 196.592 411.803 196.088C411.887 195.575 411.929 194.926 411.929 194.142C411.929 193.367 411.887 192.728 411.803 192.224C411.728 191.711 411.607 191.305 411.439 191.006C411.271 190.707 411.061 190.502 410.809 190.39C410.557 190.269 410.258 190.208 409.913 190.208C409.577 190.208 409.283 190.269 409.031 190.39C408.779 190.502 408.569 190.707 408.401 191.006C408.242 191.305 408.121 191.711 408.037 192.224C407.962 192.728 407.925 193.367 407.925 194.142C407.925 194.926 407.962 195.575 408.037 196.088C408.121 196.592 408.242 196.993 408.401 197.292C408.569 197.591 408.779 197.801 409.031 197.922C409.283 198.034 409.577 198.09 409.913 198.09ZM417.965 199.14C417.48 199.14 417.037 199.07 416.635 198.93C416.234 198.781 415.889 198.519 415.599 198.146C415.31 197.773 415.086 197.264 414.927 196.62C414.769 195.967 414.689 195.141 414.689 194.142C414.689 193.143 414.769 192.322 414.927 191.678C415.086 191.034 415.31 190.525 415.599 190.152C415.889 189.769 416.234 189.508 416.635 189.368C417.037 189.219 417.48 189.144 417.965 189.144C418.451 189.144 418.894 189.219 419.295 189.368C419.706 189.508 420.056 189.769 420.345 190.152C420.635 190.525 420.859 191.034 421.017 191.678C421.176 192.322 421.255 193.143 421.255 194.142C421.255 195.141 421.176 195.967 421.017 196.62C420.859 197.264 420.635 197.773 420.345 198.146C420.056 198.519 419.706 198.781 419.295 198.93C418.894 199.07 418.451 199.14 417.965 199.14ZM417.965 198.09C418.311 198.09 418.609 198.034 418.861 197.922C419.113 197.801 419.323 197.591 419.491 197.292C419.659 196.993 419.781 196.592 419.855 196.088C419.939 195.575 419.981 194.926 419.981 194.142C419.981 193.367 419.939 192.728 419.855 192.224C419.781 191.711 419.659 191.305 419.491 191.006C419.323 190.707 419.113 190.502 418.861 190.39C418.609 190.269 418.311 190.208 417.965 190.208C417.629 190.208 417.335 190.269 417.083 190.39C416.831 190.502 416.621 190.707 416.453 191.006C416.295 191.305 416.173 191.711 416.089 192.224C416.015 192.728 415.977 193.367 415.977 194.142C415.977 194.926 416.015 195.575 416.089 196.088C416.173 196.592 416.295 196.993 416.453 197.292C416.621 197.591 416.831 197.801 417.083 197.922C417.335 198.034 417.629 198.09 417.965 198.09Z" fill="white" fill-opacity="0.9"/>
<defs>
<linearGradient id="paint0_linear_943_6590" x1="392" y1="79" x2="-21.3333" y2="79" gradientUnits="userSpaceOnUse">
<stop stop-color="#4064FF"/>
<stop offset="1" stop-color="#4064FF" stop-opacity="0"/>
</linearGradient>
<linearGradient id="paint1_linear_943_6590" x1="317.6" y1="124" x2="-13.0667" y2="124" gradientUnits="userSpaceOnUse">
<stop stop-color="#4064FF"/>
<stop offset="1" stop-color="#4064FF" stop-opacity="0"/>
</linearGradient>
<linearGradient id="paint2_linear_943_6590" x1="243.2" y1="169" x2="-4.80001" y2="169" gradientUnits="userSpaceOnUse">
<stop stop-color="#4064FF"/>
<stop offset="1" stop-color="#4064FF" stop-opacity="0"/>
</linearGradient>
<linearGradient id="paint3_linear_943_6590" x1="168.8" y1="214" x2="3.46666" y2="214" gradientUnits="userSpaceOnUse">
<stop stop-color="#4064FF"/>
<stop offset="1" stop-color="#4064FF" stop-opacity="0"/>
</linearGradient>
</defs>
</svg>
