<svg width="320" height="380" viewBox="0 0 320 380" fill="none" xmlns="http://www.w3.org/2000/svg">
<rect width="320" height="380" rx="12" fill="#1E293B"/>
<path d="M29.4453 36.9453H26.5469V35.1172H29.4453C29.8932 35.1172 30.2578 35.0443 30.5391 34.8984C30.8203 34.7474 31.026 34.5391 31.1562 34.2734C31.2865 34.0078 31.3516 33.7083 31.3516 33.375C31.3516 33.0365 31.2865 32.7214 31.1562 32.4297C31.026 32.138 30.8203 31.9036 30.5391 31.7266C30.2578 31.5495 29.8932 31.4609 29.4453 31.4609H27.3594V41H25.0156V29.625H29.4453C30.3359 29.625 31.099 29.7865 31.7344 30.1094C32.375 30.4271 32.8646 30.8672 33.2031 31.4297C33.5417 31.9922 33.7109 32.6354 33.7109 33.3594C33.7109 34.0938 33.5417 34.7292 33.2031 35.2656C32.8646 35.8021 32.375 36.2161 31.7344 36.5078C31.099 36.7995 30.3359 36.9453 29.4453 36.9453ZM37.5625 32.5469V41H35.3047V32.5469H37.5625ZM35.1641 30.3438C35.1641 30.0156 35.2786 29.7448 35.5078 29.5312C35.737 29.3177 36.0443 29.2109 36.4297 29.2109C36.8099 29.2109 37.1146 29.3177 37.3438 29.5312C37.5781 29.7448 37.6953 30.0156 37.6953 30.3438C37.6953 30.6719 37.5781 30.9427 37.3438 31.1562C37.1146 31.3698 36.8099 31.4766 36.4297 31.4766C36.0443 31.4766 35.737 31.3698 35.5078 31.1562C35.2786 30.9427 35.1641 30.6719 35.1641 30.3438ZM43.3125 41.1562C42.6562 41.1562 42.0677 41.0521 41.5469 40.8438C41.026 40.6302 40.5833 40.3359 40.2188 39.9609C39.8594 39.5859 39.5833 39.151 39.3906 38.6562C39.1979 38.1562 39.1016 37.625 39.1016 37.0625V36.75C39.1016 36.1094 39.1927 35.5234 39.375 34.9922C39.5573 34.4609 39.8177 34 40.1562 33.6094C40.5 33.2188 40.9167 32.9193 41.4062 32.7109C41.8958 32.4974 42.4479 32.3906 43.0625 32.3906C43.6615 32.3906 44.1927 32.4896 44.6562 32.6875C45.1198 32.8854 45.5078 33.1667 45.8203 33.5312C46.138 33.8958 46.3776 34.3333 46.5391 34.8438C46.7005 35.349 46.7812 35.9115 46.7812 36.5312V37.4688H40.0625V35.9688H44.5703V35.7969C44.5703 35.4844 44.513 35.2057 44.3984 34.9609C44.2891 34.7109 44.1224 34.513 43.8984 34.3672C43.6745 34.2214 43.388 34.1484 43.0391 34.1484C42.7422 34.1484 42.487 34.2135 42.2734 34.3438C42.0599 34.474 41.8854 34.6562 41.75 34.8906C41.6198 35.125 41.5208 35.401 41.4531 35.7188C41.3906 36.0312 41.3594 36.375 41.3594 36.75V37.0625C41.3594 37.401 41.4062 37.7135 41.5 38C41.599 38.2865 41.737 38.5339 41.9141 38.7422C42.0964 38.9505 42.3151 39.112 42.5703 39.2266C42.8307 39.3411 43.125 39.3984 43.4531 39.3984C43.8594 39.3984 44.237 39.3203 44.5859 39.1641C44.9401 39.0026 45.2448 38.7604 45.5 38.4375L46.5938 39.625C46.4167 39.8802 46.1745 40.125 45.8672 40.3594C45.5651 40.5938 45.2005 40.7865 44.7734 40.9375C44.3464 41.0833 43.8594 41.1562 43.3125 41.1562ZM58.7812 37.2266H61.1172C61.0703 37.9922 60.8594 38.6719 60.4844 39.2656C60.1146 39.8594 59.5964 40.3229 58.9297 40.6562C58.2682 40.9896 57.4714 41.1562 56.5391 41.1562C55.8099 41.1562 55.1562 41.0312 54.5781 40.7812C54 40.526 53.5052 40.1615 53.0938 39.6875C52.6875 39.2135 52.3776 38.6406 52.1641 37.9688C51.9505 37.2969 51.8438 36.5443 51.8438 35.7109V34.9219C51.8438 34.0885 51.9531 33.3359 52.1719 32.6641C52.3958 31.987 52.7135 31.4115 53.125 30.9375C53.5417 30.4635 54.0391 30.099 54.6172 29.8438C55.1953 29.5885 55.8411 29.4609 56.5547 29.4609C57.5026 29.4609 58.3021 29.6328 58.9531 29.9766C59.6094 30.3203 60.1172 30.7943 60.4766 31.3984C60.8411 32.0026 61.0599 32.6901 61.1328 33.4609H58.7891C58.763 33.0026 58.6719 32.6146 58.5156 32.2969C58.3594 31.974 58.1224 31.7318 57.8047 31.5703C57.4922 31.4036 57.0755 31.3203 56.5547 31.3203C56.1641 31.3203 55.8229 31.3932 55.5312 31.5391C55.2396 31.6849 54.9948 31.9062 54.7969 32.2031C54.599 32.5 54.4505 32.875 54.3516 33.3281C54.2578 33.776 54.2109 34.3021 54.2109 34.9062V35.7109C54.2109 36.2995 54.2552 36.8177 54.3438 37.2656C54.4323 37.7083 54.5677 38.0833 54.75 38.3906C54.9375 38.6927 55.1771 38.9219 55.4688 39.0781C55.7656 39.2292 56.1224 39.3047 56.5391 39.3047C57.0286 39.3047 57.4323 39.2266 57.75 39.0703C58.0677 38.9141 58.3099 38.6823 58.4766 38.375C58.6484 38.0677 58.75 37.6849 58.7812 37.2266ZM64.7109 29V41H62.4609V29H64.7109ZM64.3906 36.4766H63.7734C63.7786 35.888 63.8568 35.3464 64.0078 34.8516C64.1589 34.3516 64.375 33.9193 64.6562 33.5547C64.9375 33.1849 65.2734 32.8984 65.6641 32.6953C66.0599 32.4922 66.4974 32.3906 66.9766 32.3906C67.3932 32.3906 67.7708 32.4505 68.1094 32.5703C68.4531 32.6849 68.7474 32.8724 68.9922 33.1328C69.2422 33.388 69.4349 33.724 69.5703 34.1406C69.7057 34.5573 69.7734 35.0625 69.7734 35.6562V41H67.5078V35.6406C67.5078 35.2656 67.4531 34.9714 67.3438 34.7578C67.2396 34.5391 67.0859 34.3854 66.8828 34.2969C66.6849 34.2031 66.4401 34.1562 66.1484 34.1562C65.8255 34.1562 65.5495 34.2161 65.3203 34.3359C65.0964 34.4557 64.9167 34.6224 64.7812 34.8359C64.6458 35.0443 64.5469 35.2891 64.4844 35.5703C64.4219 35.8516 64.3906 36.1536 64.3906 36.4766ZM76.0469 39.0938V35.3281C76.0469 35.0573 76.0026 34.8255 75.9141 34.6328C75.8255 34.4349 75.6875 34.2812 75.5 34.1719C75.3177 34.0625 75.0807 34.0078 74.7891 34.0078C74.5391 34.0078 74.3229 34.0521 74.1406 34.1406C73.9583 34.224 73.8177 34.3464 73.7188 34.5078C73.6198 34.6641 73.5703 34.849 73.5703 35.0625H71.3203C71.3203 34.7031 71.4036 34.362 71.5703 34.0391C71.737 33.7161 71.9792 33.4323 72.2969 33.1875C72.6146 32.9375 72.9922 32.7422 73.4297 32.6016C73.8724 32.4609 74.3672 32.3906 74.9141 32.3906C75.5703 32.3906 76.1536 32.5 76.6641 32.7188C77.1745 32.9375 77.5755 33.2656 77.8672 33.7031C78.1641 34.1406 78.3125 34.6875 78.3125 35.3438V38.9609C78.3125 39.4245 78.3411 39.8047 78.3984 40.1016C78.4557 40.3932 78.5391 40.6484 78.6484 40.8672V41H76.375C76.2656 40.7708 76.1823 40.4844 76.125 40.1406C76.0729 39.7917 76.0469 39.4427 76.0469 39.0938ZM76.3438 35.8516L76.3594 37.125H75.1016C74.8047 37.125 74.5469 37.1589 74.3281 37.2266C74.1094 37.2943 73.9297 37.3906 73.7891 37.5156C73.6484 37.6354 73.5443 37.776 73.4766 37.9375C73.4141 38.099 73.3828 38.276 73.3828 38.4688C73.3828 38.6615 73.4271 38.8359 73.5156 38.9922C73.6042 39.1432 73.7318 39.263 73.8984 39.3516C74.0651 39.4349 74.2604 39.4766 74.4844 39.4766C74.8229 39.4766 75.1172 39.4089 75.3672 39.2734C75.6172 39.138 75.8099 38.9714 75.9453 38.7734C76.0859 38.5755 76.1589 38.388 76.1641 38.2109L76.7578 39.1641C76.6745 39.3776 76.5599 39.599 76.4141 39.8281C76.2734 40.0573 76.0938 40.2734 75.875 40.4766C75.6562 40.6745 75.3932 40.8385 75.0859 40.9688C74.7786 41.0938 74.4141 41.1562 73.9922 41.1562C73.4557 41.1562 72.9688 41.0495 72.5312 40.8359C72.099 40.6172 71.7552 40.3177 71.5 39.9375C71.25 39.5521 71.125 39.1146 71.125 38.625C71.125 38.1823 71.2083 37.7891 71.375 37.4453C71.5417 37.1016 71.7865 36.8125 72.1094 36.5781C72.4375 36.3385 72.8464 36.1589 73.3359 36.0391C73.8255 35.9141 74.3932 35.8516 75.0391 35.8516H76.3438ZM82.2969 34.3906V41H80.0469V32.5469H82.1641L82.2969 34.3906ZM84.8438 32.4922L84.8047 34.5781C84.6953 34.5625 84.5625 34.5495 84.4062 34.5391C84.2552 34.5234 84.1172 34.5156 83.9922 34.5156C83.6745 34.5156 83.3984 34.5573 83.1641 34.6406C82.9349 34.7188 82.7422 34.8359 82.5859 34.9922C82.4349 35.1484 82.3203 35.3385 82.2422 35.5625C82.1693 35.7865 82.1276 36.0417 82.1172 36.3281L81.6641 36.1875C81.6641 35.6406 81.7188 35.138 81.8281 34.6797C81.9375 34.2161 82.0964 33.8125 82.3047 33.4688C82.5182 33.125 82.7786 32.8594 83.0859 32.6719C83.3932 32.4844 83.7448 32.3906 84.1406 32.3906C84.2656 32.3906 84.3932 32.401 84.5234 32.4219C84.6536 32.4375 84.7604 32.4609 84.8438 32.4922ZM90.4375 32.5469V34.1406H85.5156V32.5469H90.4375ZM86.7344 30.4609H88.9844V38.4531C88.9844 38.6979 89.0156 38.8854 89.0781 39.0156C89.1458 39.1458 89.2448 39.237 89.375 39.2891C89.5052 39.3359 89.6693 39.3594 89.8672 39.3594C90.0078 39.3594 90.1328 39.3542 90.2422 39.3438C90.3568 39.3281 90.4531 39.3125 90.5312 39.2969L90.5391 40.9531C90.3464 41.0156 90.138 41.0651 89.9141 41.1016C89.6901 41.138 89.4427 41.1562 89.1719 41.1562C88.6771 41.1562 88.2448 41.0755 87.875 40.9141C87.5104 40.7474 87.2292 40.4818 87.0312 40.1172C86.8333 39.7526 86.7344 39.2734 86.7344 38.6797V30.4609ZM103.477 39.1719V41H97.4219V39.1719H103.477ZM98.1875 29.625V41H95.8438V29.625H98.1875ZM102.688 34.2578V36.0391H97.4219V34.2578H102.688ZM103.469 29.625V31.4609H97.4219V29.625H103.469ZM106.516 32.5469L107.914 35.1172L109.352 32.5469H111.75L109.359 36.6797L111.859 41H109.453L107.93 38.2812L106.406 41H104L106.5 36.6797L104.109 32.5469H106.516ZM117.406 39.0938V35.3281C117.406 35.0573 117.362 34.8255 117.273 34.6328C117.185 34.4349 117.047 34.2812 116.859 34.1719C116.677 34.0625 116.44 34.0078 116.148 34.0078C115.898 34.0078 115.682 34.0521 115.5 34.1406C115.318 34.224 115.177 34.3464 115.078 34.5078C114.979 34.6641 114.93 34.849 114.93 35.0625H112.68C112.68 34.7031 112.763 34.362 112.93 34.0391C113.096 33.7161 113.339 33.4323 113.656 33.1875C113.974 32.9375 114.352 32.7422 114.789 32.6016C115.232 32.4609 115.727 32.3906 116.273 32.3906C116.93 32.3906 117.513 32.5 118.023 32.7188C118.534 32.9375 118.935 33.2656 119.227 33.7031C119.523 34.1406 119.672 34.6875 119.672 35.3438V38.9609C119.672 39.4245 119.701 39.8047 119.758 40.1016C119.815 40.3932 119.898 40.6484 120.008 40.8672V41H117.734C117.625 40.7708 117.542 40.4844 117.484 40.1406C117.432 39.7917 117.406 39.4427 117.406 39.0938ZM117.703 35.8516L117.719 37.125H116.461C116.164 37.125 115.906 37.1589 115.688 37.2266C115.469 37.2943 115.289 37.3906 115.148 37.5156C115.008 37.6354 114.904 37.776 114.836 37.9375C114.773 38.099 114.742 38.276 114.742 38.4688C114.742 38.6615 114.786 38.8359 114.875 38.9922C114.964 39.1432 115.091 39.263 115.258 39.3516C115.424 39.4349 115.62 39.4766 115.844 39.4766C116.182 39.4766 116.477 39.4089 116.727 39.2734C116.977 39.138 117.169 38.9714 117.305 38.7734C117.445 38.5755 117.518 38.388 117.523 38.2109L118.117 39.1641C118.034 39.3776 117.919 39.599 117.773 39.8281C117.633 40.0573 117.453 40.2734 117.234 40.4766C117.016 40.6745 116.753 40.8385 116.445 40.9688C116.138 41.0938 115.773 41.1562 115.352 41.1562C114.815 41.1562 114.328 41.0495 113.891 40.8359C113.458 40.6172 113.115 40.3177 112.859 39.9375C112.609 39.5521 112.484 39.1146 112.484 38.625C112.484 38.1823 112.568 37.7891 112.734 37.4453C112.901 37.1016 113.146 36.8125 113.469 36.5781C113.797 36.3385 114.206 36.1589 114.695 36.0391C115.185 35.9141 115.753 35.8516 116.398 35.8516H117.703ZM123.656 34.2969V41H121.398V32.5469H123.516L123.656 34.2969ZM123.344 36.4766H122.719C122.719 35.888 122.789 35.3464 122.93 34.8516C123.076 34.3516 123.286 33.9193 123.562 33.5547C123.844 33.1849 124.19 32.8984 124.602 32.6953C125.013 32.4922 125.49 32.3906 126.031 32.3906C126.406 32.3906 126.75 32.4479 127.062 32.5625C127.375 32.6719 127.643 32.8464 127.867 33.0859C128.096 33.3203 128.273 33.6276 128.398 34.0078C128.523 34.3828 128.586 34.8333 128.586 35.3594V41H126.336V35.6094C126.336 35.224 126.284 34.9271 126.18 34.7188C126.076 34.5104 125.927 34.3646 125.734 34.2812C125.547 34.1979 125.32 34.1562 125.055 34.1562C124.763 34.1562 124.508 34.2161 124.289 34.3359C124.076 34.4557 123.898 34.6224 123.758 34.8359C123.617 35.0443 123.513 35.2891 123.445 35.5703C123.378 35.8516 123.344 36.1536 123.344 36.4766ZM128.375 36.2188L127.57 36.3203C127.57 35.7682 127.638 35.2552 127.773 34.7812C127.914 34.3073 128.12 33.8906 128.391 33.5312C128.667 33.1719 129.008 32.8932 129.414 32.6953C129.82 32.4922 130.289 32.3906 130.82 32.3906C131.227 32.3906 131.596 32.4505 131.93 32.5703C132.263 32.6849 132.547 32.8698 132.781 33.125C133.021 33.375 133.203 33.7031 133.328 34.1094C133.458 34.5156 133.523 35.013 133.523 35.6016V41H131.266V35.6016C131.266 35.2109 131.214 34.9141 131.109 34.7109C131.01 34.5026 130.865 34.3594 130.672 34.2812C130.484 34.1979 130.26 34.1562 130 34.1562C129.729 34.1562 129.492 34.2109 129.289 34.3203C129.086 34.4245 128.917 34.5703 128.781 34.7578C128.646 34.9453 128.544 35.1641 128.477 35.4141C128.409 35.6589 128.375 35.9271 128.375 36.2188ZM137.516 34.1719V44.25H135.266V32.5469H137.352L137.516 34.1719ZM142.867 36.6797V36.8438C142.867 37.4583 142.794 38.0286 142.648 38.5547C142.508 39.0807 142.299 39.5391 142.023 39.9297C141.747 40.3151 141.404 40.6172 140.992 40.8359C140.586 41.0495 140.117 41.1562 139.586 41.1562C139.07 41.1562 138.622 41.0521 138.242 40.8438C137.862 40.6354 137.542 40.3438 137.281 39.9688C137.026 39.5885 136.82 39.1484 136.664 38.6484C136.508 38.1484 136.388 37.612 136.305 37.0391V36.6094C136.388 35.9948 136.508 35.4323 136.664 34.9219C136.82 34.4062 137.026 33.9609 137.281 33.5859C137.542 33.2057 137.859 32.9115 138.234 32.7031C138.615 32.4948 139.06 32.3906 139.57 32.3906C140.107 32.3906 140.578 32.4922 140.984 32.6953C141.396 32.8984 141.74 33.1901 142.016 33.5703C142.297 33.9505 142.508 34.4036 142.648 34.9297C142.794 35.4557 142.867 36.0391 142.867 36.6797ZM140.609 36.8438V36.6797C140.609 36.3203 140.578 35.9896 140.516 35.6875C140.458 35.3802 140.365 35.112 140.234 34.8828C140.109 34.6536 139.943 34.4766 139.734 34.3516C139.531 34.2214 139.284 34.1562 138.992 34.1562C138.685 34.1562 138.422 34.2057 138.203 34.3047C137.99 34.4036 137.815 34.5469 137.68 34.7344C137.544 34.9219 137.443 35.1458 137.375 35.4062C137.307 35.6667 137.266 35.9609 137.25 36.2891V37.375C137.276 37.7604 137.349 38.1068 137.469 38.4141C137.589 38.7161 137.773 38.9557 138.023 39.1328C138.273 39.3099 138.602 39.3984 139.008 39.3984C139.305 39.3984 139.555 39.3333 139.758 39.2031C139.961 39.0677 140.125 38.8828 140.25 38.6484C140.38 38.4141 140.471 38.1432 140.523 37.8359C140.581 37.5286 140.609 37.1979 140.609 36.8438ZM146.641 29V41H144.383V29H146.641ZM152.391 41.1562C151.734 41.1562 151.146 41.0521 150.625 40.8438C150.104 40.6302 149.661 40.3359 149.297 39.9609C148.938 39.5859 148.661 39.151 148.469 38.6562C148.276 38.1562 148.18 37.625 148.18 37.0625V36.75C148.18 36.1094 148.271 35.5234 148.453 34.9922C148.635 34.4609 148.896 34 149.234 33.6094C149.578 33.2188 149.995 32.9193 150.484 32.7109C150.974 32.4974 151.526 32.3906 152.141 32.3906C152.74 32.3906 153.271 32.4896 153.734 32.6875C154.198 32.8854 154.586 33.1667 154.898 33.5312C155.216 33.8958 155.456 34.3333 155.617 34.8438C155.779 35.349 155.859 35.9115 155.859 36.5312V37.4688H149.141V35.9688H153.648V35.7969C153.648 35.4844 153.591 35.2057 153.477 34.9609C153.367 34.7109 153.201 34.513 152.977 34.3672C152.753 34.2214 152.466 34.1484 152.117 34.1484C151.82 34.1484 151.565 34.2135 151.352 34.3438C151.138 34.474 150.964 34.6562 150.828 34.8906C150.698 35.125 150.599 35.401 150.531 35.7188C150.469 36.0312 150.438 36.375 150.438 36.75V37.0625C150.438 37.401 150.484 37.7135 150.578 38C150.677 38.2865 150.815 38.5339 150.992 38.7422C151.174 38.9505 151.393 39.112 151.648 39.2266C151.909 39.3411 152.203 39.3984 152.531 39.3984C152.938 39.3984 153.315 39.3203 153.664 39.1641C154.018 39.0026 154.323 38.7604 154.578 38.4375L155.672 39.625C155.495 39.8802 155.253 40.125 154.945 40.3594C154.643 40.5938 154.279 40.7865 153.852 40.9375C153.424 41.0833 152.938 41.1562 152.391 41.1562Z" fill="#F5F5F5"/>
<path d="M203.368 39.4893L206.301 31.0469H207.729L204.045 41H203.026L203.368 39.4893ZM200.627 31.0469L203.532 39.4893L203.895 41H202.876L199.198 31.0469H200.627ZM210.252 33.6035V41H208.98V33.6035H210.252ZM208.885 31.6416C208.885 31.4365 208.946 31.2633 209.069 31.1221C209.197 30.9808 209.384 30.9102 209.63 30.9102C209.871 30.9102 210.056 30.9808 210.184 31.1221C210.316 31.2633 210.382 31.4365 210.382 31.6416C210.382 31.8376 210.316 32.0062 210.184 32.1475C210.056 32.2842 209.871 32.3525 209.63 32.3525C209.384 32.3525 209.197 32.2842 209.069 32.1475C208.946 32.0062 208.885 31.8376 208.885 31.6416ZM215.352 41.1367C214.837 41.1367 214.369 41.0501 213.95 40.877C213.535 40.6992 213.178 40.4508 212.877 40.1318C212.581 39.8128 212.353 39.4346 212.193 38.9971C212.034 38.5596 211.954 38.0811 211.954 37.5615V37.2744C211.954 36.6729 212.043 36.1374 212.221 35.668C212.398 35.194 212.64 34.793 212.945 34.4648C213.251 34.1367 213.597 33.8883 213.984 33.7197C214.372 33.5511 214.773 33.4668 215.188 33.4668C215.716 33.4668 216.172 33.5579 216.555 33.7402C216.942 33.9225 217.259 34.1777 217.505 34.5059C217.751 34.8294 217.933 35.2122 218.052 35.6543C218.17 36.0918 218.229 36.5703 218.229 37.0898V37.6572H212.706V36.625H216.965V36.5293C216.947 36.2012 216.878 35.8822 216.76 35.5723C216.646 35.2624 216.464 35.0072 216.213 34.8066C215.962 34.6061 215.62 34.5059 215.188 34.5059C214.9 34.5059 214.636 34.5674 214.395 34.6904C214.153 34.8089 213.946 34.9867 213.772 35.2236C213.599 35.4606 213.465 35.75 213.369 36.0918C213.273 36.4336 213.226 36.8278 213.226 37.2744V37.5615C213.226 37.9124 213.273 38.2428 213.369 38.5527C213.469 38.8581 213.613 39.127 213.8 39.3594C213.991 39.5918 214.221 39.7741 214.49 39.9062C214.764 40.0384 215.074 40.1045 215.42 40.1045C215.867 40.1045 216.245 40.0133 216.555 39.8311C216.865 39.6488 217.136 39.4049 217.368 39.0996L218.134 39.708C217.974 39.9495 217.771 40.1797 217.525 40.3984C217.279 40.6172 216.976 40.7949 216.616 40.9316C216.261 41.0684 215.839 41.1367 215.352 41.1367ZM221.579 39.6875L223.479 33.6035H224.313L224.149 34.8135L222.215 41H221.401L221.579 39.6875ZM220.301 33.6035L221.921 39.7559L222.037 41H221.183L219.036 33.6035H220.301ZM226.132 39.708L227.677 33.6035H228.935L226.788 41H225.94L226.132 39.708ZM224.498 33.6035L226.357 39.585L226.569 41H225.763L223.773 34.7998L223.609 33.6035H224.498ZM236.591 41H234.513L234.526 39.9268H236.591C237.302 39.9268 237.894 39.7786 238.368 39.4824C238.842 39.1816 239.198 38.7624 239.435 38.2246C239.676 37.6823 239.797 37.0488 239.797 36.3242V35.7158C239.797 35.1462 239.729 34.6403 239.592 34.1982C239.455 33.7516 239.255 33.3757 238.99 33.0703C238.726 32.7604 238.402 32.5257 238.02 32.3662C237.641 32.2067 237.206 32.127 236.714 32.127H234.472V31.0469H236.714C237.366 31.0469 237.96 31.1562 238.498 31.375C239.036 31.5892 239.498 31.9014 239.886 32.3115C240.278 32.7171 240.578 33.2093 240.788 33.7881C240.998 34.3623 241.103 35.0094 241.103 35.7295V36.3242C241.103 37.0443 240.998 37.6937 240.788 38.2725C240.578 38.8467 240.275 39.3366 239.879 39.7422C239.487 40.1478 239.013 40.46 238.457 40.6787C237.906 40.8929 237.284 41 236.591 41ZM235.217 31.0469V41H233.897V31.0469H235.217ZM245.963 41.1367C245.448 41.1367 244.981 41.0501 244.562 40.877C244.147 40.6992 243.789 40.4508 243.488 40.1318C243.192 39.8128 242.964 39.4346 242.805 38.9971C242.645 38.5596 242.565 38.0811 242.565 37.5615V37.2744C242.565 36.6729 242.654 36.1374 242.832 35.668C243.01 35.194 243.251 34.793 243.557 34.4648C243.862 34.1367 244.208 33.8883 244.596 33.7197C244.983 33.5511 245.384 33.4668 245.799 33.4668C246.327 33.4668 246.783 33.5579 247.166 33.7402C247.553 33.9225 247.87 34.1777 248.116 34.5059C248.362 34.8294 248.545 35.2122 248.663 35.6543C248.782 36.0918 248.841 36.5703 248.841 37.0898V37.6572H243.317V36.625H247.576V36.5293C247.558 36.2012 247.49 35.8822 247.371 35.5723C247.257 35.2624 247.075 35.0072 246.824 34.8066C246.574 34.6061 246.232 34.5059 245.799 34.5059C245.512 34.5059 245.247 34.5674 245.006 34.6904C244.764 34.8089 244.557 34.9867 244.384 35.2236C244.211 35.4606 244.076 35.75 243.98 36.0918C243.885 36.4336 243.837 36.8278 243.837 37.2744V37.5615C243.837 37.9124 243.885 38.2428 243.98 38.5527C244.081 38.8581 244.224 39.127 244.411 39.3594C244.603 39.5918 244.833 39.7741 245.102 39.9062C245.375 40.0384 245.685 40.1045 246.031 40.1045C246.478 40.1045 246.856 40.0133 247.166 39.8311C247.476 39.6488 247.747 39.4049 247.979 39.0996L248.745 39.708C248.586 39.9495 248.383 40.1797 248.137 40.3984C247.891 40.6172 247.588 40.7949 247.228 40.9316C246.872 41.0684 246.451 41.1367 245.963 41.1367ZM253.414 33.6035V34.5742H249.415V33.6035H253.414ZM250.769 31.8057H252.033V39.168C252.033 39.4186 252.072 39.6077 252.149 39.7354C252.227 39.863 252.327 39.9473 252.45 39.9883C252.573 40.0293 252.705 40.0498 252.847 40.0498C252.951 40.0498 253.061 40.0407 253.175 40.0225C253.293 39.9997 253.382 39.9814 253.441 39.9678L253.448 41C253.348 41.0319 253.216 41.0615 253.052 41.0889C252.892 41.1208 252.699 41.1367 252.471 41.1367C252.161 41.1367 251.876 41.0752 251.616 40.9521C251.356 40.8291 251.149 40.624 250.994 40.3369C250.844 40.0452 250.769 39.6533 250.769 39.1611V31.8057ZM259.259 39.7354V35.9277C259.259 35.6361 259.2 35.3831 259.081 35.1689C258.967 34.9502 258.794 34.7816 258.562 34.6631C258.329 34.5446 258.042 34.4854 257.7 34.4854C257.381 34.4854 257.101 34.54 256.859 34.6494C256.622 34.7588 256.436 34.9023 256.299 35.0801C256.167 35.2578 256.101 35.4492 256.101 35.6543H254.836C254.836 35.39 254.904 35.1279 255.041 34.8682C255.178 34.6084 255.374 34.3737 255.629 34.1641C255.889 33.9499 256.199 33.7812 256.559 33.6582C256.923 33.5306 257.329 33.4668 257.775 33.4668C258.313 33.4668 258.787 33.5579 259.197 33.7402C259.612 33.9225 259.936 34.1982 260.168 34.5674C260.405 34.932 260.523 35.39 260.523 35.9414V39.3867C260.523 39.6328 260.544 39.8949 260.585 40.1729C260.631 40.4508 260.697 40.6901 260.783 40.8906V41H259.464C259.4 40.8542 259.35 40.6605 259.313 40.4189C259.277 40.1729 259.259 39.945 259.259 39.7354ZM259.478 36.5156L259.491 37.4043H258.213C257.853 37.4043 257.532 37.4339 257.249 37.4932C256.966 37.5479 256.729 37.6322 256.538 37.7461C256.347 37.86 256.201 38.0036 256.101 38.1768C256 38.3454 255.95 38.5436 255.95 38.7715C255.95 39.0039 256.003 39.2158 256.107 39.4072C256.212 39.5986 256.369 39.7513 256.579 39.8652C256.793 39.9746 257.055 40.0293 257.365 40.0293C257.753 40.0293 258.094 39.9473 258.391 39.7832C258.687 39.6191 258.922 39.4186 259.095 39.1816C259.272 38.9447 259.368 38.7145 259.382 38.4912L259.922 39.0996C259.89 39.291 259.803 39.5029 259.662 39.7354C259.521 39.9678 259.332 40.1911 259.095 40.4053C258.862 40.6149 258.584 40.7904 258.261 40.9316C257.942 41.0684 257.582 41.1367 257.181 41.1367C256.679 41.1367 256.24 41.0387 255.861 40.8428C255.488 40.6468 255.196 40.3848 254.986 40.0566C254.781 39.724 254.679 39.3525 254.679 38.9424C254.679 38.5459 254.756 38.1973 254.911 37.8965C255.066 37.5911 255.289 37.3382 255.581 37.1377C255.873 36.9326 256.224 36.7777 256.634 36.6729C257.044 36.568 257.502 36.5156 258.008 36.5156H259.478ZM263.887 33.6035V41H262.615V33.6035H263.887ZM262.52 31.6416C262.52 31.4365 262.581 31.2633 262.704 31.1221C262.832 30.9808 263.019 30.9102 263.265 30.9102C263.506 30.9102 263.691 30.9808 263.818 31.1221C263.951 31.2633 264.017 31.4365 264.017 31.6416C264.017 31.8376 263.951 32.0062 263.818 32.1475C263.691 32.2842 263.506 32.3525 263.265 32.3525C263.019 32.3525 262.832 32.2842 262.704 32.1475C262.581 32.0062 262.52 31.8376 262.52 31.6416ZM267.291 30.5V41H266.02V30.5H267.291ZM273.628 39.0381C273.628 38.8558 273.587 38.6872 273.505 38.5322C273.427 38.3727 273.266 38.2292 273.02 38.1016C272.778 37.9694 272.413 37.8555 271.926 37.7598C271.516 37.6732 271.144 37.5706 270.812 37.4521C270.483 37.3337 270.203 37.1901 269.971 37.0215C269.743 36.8529 269.567 36.6546 269.444 36.4268C269.321 36.1989 269.26 35.9323 269.26 35.627C269.26 35.3353 269.324 35.0596 269.451 34.7998C269.583 34.54 269.768 34.3099 270.005 34.1094C270.246 33.9089 270.536 33.7516 270.873 33.6377C271.21 33.5238 271.586 33.4668 272.001 33.4668C272.593 33.4668 273.099 33.5716 273.519 33.7812C273.938 33.9909 274.259 34.2712 274.482 34.6221C274.706 34.9684 274.817 35.3535 274.817 35.7773H273.553C273.553 35.5723 273.491 35.374 273.368 35.1826C273.25 34.9867 273.074 34.8249 272.842 34.6973C272.614 34.5697 272.334 34.5059 272.001 34.5059C271.65 34.5059 271.365 34.5605 271.146 34.6699C270.932 34.7747 270.775 34.9092 270.675 35.0732C270.579 35.2373 270.531 35.4105 270.531 35.5928C270.531 35.7295 270.554 35.8525 270.6 35.9619C270.65 36.0667 270.736 36.1647 270.859 36.2559C270.982 36.3424 271.156 36.4245 271.379 36.502C271.602 36.5794 271.887 36.6569 272.233 36.7344C272.84 36.8711 273.339 37.0352 273.73 37.2266C274.122 37.418 274.414 37.6527 274.605 37.9307C274.797 38.2087 274.893 38.5459 274.893 38.9424C274.893 39.266 274.824 39.5622 274.688 39.8311C274.555 40.0999 274.362 40.3324 274.106 40.5283C273.856 40.7197 273.555 40.8701 273.204 40.9795C272.858 41.0843 272.468 41.1367 272.035 41.1367C271.383 41.1367 270.832 41.0205 270.381 40.7881C269.93 40.5557 269.588 40.2549 269.355 39.8857C269.123 39.5166 269.007 39.127 269.007 38.7168H270.278C270.297 39.0632 270.397 39.3389 270.579 39.5439C270.761 39.7445 270.985 39.888 271.249 39.9746C271.513 40.0566 271.775 40.0977 272.035 40.0977C272.382 40.0977 272.671 40.0521 272.903 39.9609C273.14 39.8698 273.32 39.7445 273.443 39.585C273.566 39.4255 273.628 39.2432 273.628 39.0381Z" fill="#3B82F6"/>
<path d="M283 42C282.733 42 282.5 41.9 282.3 41.7C282.1 41.5 282 41.2667 282 41V31C282 30.7333 282.1 30.5 282.3 30.3C282.5 30.1 282.733 30 283 30H287.15C287.292 30 287.41 30.0482 287.506 30.1446C287.602 30.241 287.65 30.3604 287.65 30.5029C287.65 30.6454 287.602 30.7639 287.506 30.8583C287.41 30.9528 287.292 31 287.15 31H283V41H293V36.85C293 36.7083 293.048 36.5896 293.145 36.4938C293.241 36.3979 293.36 36.35 293.503 36.35C293.645 36.35 293.764 36.3979 293.858 36.4938C293.953 36.5896 294 36.7083 294 36.85V41C294 41.2667 293.9 41.5 293.7 41.7C293.5 41.9 293.267 42 293 42H283ZM286.019 37.9768C285.929 37.8812 285.881 37.7667 285.875 37.6333C285.869 37.5 285.917 37.3833 286.017 37.2833L292.3 31H289.15C289.008 31 288.89 30.9518 288.794 30.8554C288.698 30.759 288.65 30.6396 288.65 30.4971C288.65 30.3546 288.698 30.2361 288.794 30.1417C288.89 30.0472 289.008 30 289.15 30H293.5C293.642 30 293.76 30.0479 293.856 30.1438C293.952 30.2396 294 30.3583 294 30.5V34.85C294 34.9917 293.952 35.1104 293.855 35.2063C293.759 35.3021 293.64 35.35 293.497 35.35C293.355 35.35 293.236 35.3021 293.142 35.2063C293.047 35.1104 293 34.9917 293 34.85V31.7167L286.717 38C286.623 38.0889 286.508 38.1333 286.371 38.1333C286.235 38.1333 286.117 38.0812 286.019 37.9768Z" fill="#3B82F6"/>
<path d="M48 192C48 162.296 59.8 133.808 80.804 112.804C101.808 91.8 130.296 80 160 80V192L48 192Z" fill="#FACC15" stroke="#1E293B" stroke-width="2"/>
<path d="M160 80C182.152 80 203.806 86.5687 222.224 98.8754C240.642 111.182 254.997 128.674 263.475 149.139C271.952 169.605 274.169 192.124 269.848 213.85C265.526 235.576 254.859 255.532 239.196 271.196C223.532 286.859 203.576 297.526 181.85 301.848C160.124 306.169 137.605 303.952 117.139 295.475C96.6741 286.997 79.1821 272.642 66.8754 254.224C54.5687 235.806 48 214.152 48 192H160V80Z" fill="#14B8A6" stroke="#1E293B" stroke-width="2"/>
<circle cx="88" cy="346" r="6" fill="#14B8A6"/>
<path d="M109.191 349.927V351H104.215V349.927H109.191ZM104.475 341.047V351H103.155V341.047H104.475ZM114.872 349.735V345.928C114.872 345.636 114.813 345.383 114.694 345.169C114.58 344.95 114.407 344.782 114.175 344.663C113.942 344.545 113.655 344.485 113.313 344.485C112.994 344.485 112.714 344.54 112.473 344.649C112.236 344.759 112.049 344.902 111.912 345.08C111.78 345.258 111.714 345.449 111.714 345.654H110.449C110.449 345.39 110.518 345.128 110.654 344.868C110.791 344.608 110.987 344.374 111.242 344.164C111.502 343.95 111.812 343.781 112.172 343.658C112.536 343.531 112.942 343.467 113.389 343.467C113.926 343.467 114.4 343.558 114.811 343.74C115.225 343.923 115.549 344.198 115.781 344.567C116.018 344.932 116.137 345.39 116.137 345.941V349.387C116.137 349.633 116.157 349.895 116.198 350.173C116.244 350.451 116.31 350.69 116.396 350.891V351H115.077C115.013 350.854 114.963 350.66 114.927 350.419C114.89 350.173 114.872 349.945 114.872 349.735ZM115.091 346.516L115.104 347.404H113.826C113.466 347.404 113.145 347.434 112.862 347.493C112.58 347.548 112.343 347.632 112.151 347.746C111.96 347.86 111.814 348.004 111.714 348.177C111.614 348.345 111.563 348.544 111.563 348.771C111.563 349.004 111.616 349.216 111.721 349.407C111.826 349.599 111.983 349.751 112.192 349.865C112.407 349.975 112.669 350.029 112.979 350.029C113.366 350.029 113.708 349.947 114.004 349.783C114.3 349.619 114.535 349.419 114.708 349.182C114.886 348.945 114.981 348.715 114.995 348.491L115.535 349.1C115.503 349.291 115.417 349.503 115.275 349.735C115.134 349.968 114.945 350.191 114.708 350.405C114.476 350.615 114.198 350.79 113.874 350.932C113.555 351.068 113.195 351.137 112.794 351.137C112.293 351.137 111.853 351.039 111.475 350.843C111.101 350.647 110.809 350.385 110.6 350.057C110.395 349.724 110.292 349.353 110.292 348.942C110.292 348.546 110.369 348.197 110.524 347.896C110.679 347.591 110.903 347.338 111.194 347.138C111.486 346.933 111.837 346.778 112.247 346.673C112.657 346.568 113.115 346.516 113.621 346.516H115.091ZM118.119 340.5H119.391V349.564L119.281 351H118.119V340.5ZM124.388 347.24V347.384C124.388 347.922 124.324 348.421 124.196 348.881C124.069 349.337 123.882 349.733 123.636 350.07C123.39 350.408 123.089 350.67 122.733 350.856C122.378 351.043 121.97 351.137 121.51 351.137C121.04 351.137 120.628 351.057 120.272 350.897C119.922 350.733 119.625 350.499 119.384 350.193C119.142 349.888 118.949 349.519 118.803 349.086C118.661 348.653 118.563 348.165 118.509 347.623V346.994C118.563 346.447 118.661 345.957 118.803 345.524C118.949 345.091 119.142 344.722 119.384 344.417C119.625 344.107 119.922 343.872 120.272 343.713C120.623 343.549 121.031 343.467 121.496 343.467C121.961 343.467 122.373 343.558 122.733 343.74C123.093 343.918 123.394 344.173 123.636 344.506C123.882 344.839 124.069 345.237 124.196 345.702C124.324 346.162 124.388 346.675 124.388 347.24ZM123.116 347.384V347.24C123.116 346.871 123.082 346.525 123.014 346.201C122.945 345.873 122.836 345.586 122.686 345.34C122.535 345.089 122.337 344.893 122.091 344.752C121.845 344.606 121.542 344.533 121.182 344.533C120.863 344.533 120.585 344.588 120.348 344.697C120.115 344.807 119.917 344.955 119.753 345.142C119.589 345.324 119.454 345.534 119.35 345.771C119.249 346.003 119.174 346.244 119.124 346.495V348.143C119.197 348.462 119.315 348.769 119.479 349.065C119.648 349.357 119.871 349.596 120.149 349.783C120.432 349.97 120.781 350.063 121.195 350.063C121.537 350.063 121.829 349.995 122.07 349.858C122.316 349.717 122.515 349.523 122.665 349.277C122.82 349.031 122.934 348.746 123.007 348.423C123.08 348.099 123.116 347.753 123.116 347.384ZM129.057 351.137C128.542 351.137 128.075 351.05 127.655 350.877C127.241 350.699 126.883 350.451 126.582 350.132C126.286 349.813 126.058 349.435 125.898 348.997C125.739 348.56 125.659 348.081 125.659 347.562V347.274C125.659 346.673 125.748 346.137 125.926 345.668C126.104 345.194 126.345 344.793 126.65 344.465C126.956 344.137 127.302 343.888 127.689 343.72C128.077 343.551 128.478 343.467 128.893 343.467C129.421 343.467 129.877 343.558 130.26 343.74C130.647 343.923 130.964 344.178 131.21 344.506C131.456 344.829 131.638 345.212 131.757 345.654C131.875 346.092 131.935 346.57 131.935 347.09V347.657H126.411V346.625H130.67V346.529C130.652 346.201 130.583 345.882 130.465 345.572C130.351 345.262 130.169 345.007 129.918 344.807C129.667 344.606 129.326 344.506 128.893 344.506C128.605 344.506 128.341 344.567 128.1 344.69C127.858 344.809 127.651 344.987 127.478 345.224C127.304 345.461 127.17 345.75 127.074 346.092C126.979 346.434 126.931 346.828 126.931 347.274V347.562C126.931 347.912 126.979 348.243 127.074 348.553C127.174 348.858 127.318 349.127 127.505 349.359C127.696 349.592 127.926 349.774 128.195 349.906C128.469 350.038 128.779 350.104 129.125 350.104C129.572 350.104 129.95 350.013 130.26 349.831C130.57 349.649 130.841 349.405 131.073 349.1L131.839 349.708C131.679 349.95 131.477 350.18 131.23 350.398C130.984 350.617 130.681 350.795 130.321 350.932C129.966 351.068 129.544 351.137 129.057 351.137ZM134.785 340.5V351H133.514V340.5H134.785ZM144.308 340.992V351H143.043V342.571L140.493 343.501V342.359L144.109 340.992H144.308Z" fill="#E2E8F0"/>
<circle cx="178" cy="346" r="6" fill="#FACC15"/>
<path d="M199.191 349.927V351H194.215V349.927H199.191ZM194.475 341.047V351H193.155V341.047H194.475ZM204.872 349.735V345.928C204.872 345.636 204.813 345.383 204.694 345.169C204.58 344.95 204.407 344.782 204.175 344.663C203.942 344.545 203.655 344.485 203.313 344.485C202.994 344.485 202.714 344.54 202.473 344.649C202.236 344.759 202.049 344.902 201.912 345.08C201.78 345.258 201.714 345.449 201.714 345.654H200.449C200.449 345.39 200.518 345.128 200.654 344.868C200.791 344.608 200.987 344.374 201.242 344.164C201.502 343.95 201.812 343.781 202.172 343.658C202.536 343.531 202.942 343.467 203.389 343.467C203.926 343.467 204.4 343.558 204.811 343.74C205.225 343.923 205.549 344.198 205.781 344.567C206.018 344.932 206.137 345.39 206.137 345.941V349.387C206.137 349.633 206.157 349.895 206.198 350.173C206.244 350.451 206.31 350.69 206.396 350.891V351H205.077C205.013 350.854 204.963 350.66 204.927 350.419C204.89 350.173 204.872 349.945 204.872 349.735ZM205.091 346.516L205.104 347.404H203.826C203.466 347.404 203.145 347.434 202.862 347.493C202.58 347.548 202.343 347.632 202.151 347.746C201.96 347.86 201.814 348.004 201.714 348.177C201.614 348.345 201.563 348.544 201.563 348.771C201.563 349.004 201.616 349.216 201.721 349.407C201.826 349.599 201.983 349.751 202.192 349.865C202.407 349.975 202.669 350.029 202.979 350.029C203.366 350.029 203.708 349.947 204.004 349.783C204.3 349.619 204.535 349.419 204.708 349.182C204.886 348.945 204.981 348.715 204.995 348.491L205.535 349.1C205.503 349.291 205.417 349.503 205.275 349.735C205.134 349.968 204.945 350.191 204.708 350.405C204.476 350.615 204.198 350.79 203.874 350.932C203.555 351.068 203.195 351.137 202.794 351.137C202.293 351.137 201.853 351.039 201.475 350.843C201.101 350.647 200.809 350.385 200.6 350.057C200.395 349.724 200.292 349.353 200.292 348.942C200.292 348.546 200.369 348.197 200.524 347.896C200.679 347.591 200.903 347.338 201.194 347.138C201.486 346.933 201.837 346.778 202.247 346.673C202.657 346.568 203.115 346.516 203.621 346.516H205.091ZM208.119 340.5H209.391V349.564L209.281 351H208.119V340.5ZM214.388 347.24V347.384C214.388 347.922 214.324 348.421 214.196 348.881C214.069 349.337 213.882 349.733 213.636 350.07C213.39 350.408 213.089 350.67 212.733 350.856C212.378 351.043 211.97 351.137 211.51 351.137C211.04 351.137 210.628 351.057 210.272 350.897C209.922 350.733 209.625 350.499 209.384 350.193C209.142 349.888 208.949 349.519 208.803 349.086C208.661 348.653 208.563 348.165 208.509 347.623V346.994C208.563 346.447 208.661 345.957 208.803 345.524C208.949 345.091 209.142 344.722 209.384 344.417C209.625 344.107 209.922 343.872 210.272 343.713C210.623 343.549 211.031 343.467 211.496 343.467C211.961 343.467 212.373 343.558 212.733 343.74C213.093 343.918 213.394 344.173 213.636 344.506C213.882 344.839 214.069 345.237 214.196 345.702C214.324 346.162 214.388 346.675 214.388 347.24ZM213.116 347.384V347.24C213.116 346.871 213.082 346.525 213.014 346.201C212.945 345.873 212.836 345.586 212.686 345.34C212.535 345.089 212.337 344.893 212.091 344.752C211.845 344.606 211.542 344.533 211.182 344.533C210.863 344.533 210.585 344.588 210.348 344.697C210.115 344.807 209.917 344.955 209.753 345.142C209.589 345.324 209.454 345.534 209.35 345.771C209.249 346.003 209.174 346.244 209.124 346.495V348.143C209.197 348.462 209.315 348.769 209.479 349.065C209.648 349.357 209.871 349.596 210.149 349.783C210.432 349.97 210.781 350.063 211.195 350.063C211.537 350.063 211.829 349.995 212.07 349.858C212.316 349.717 212.515 349.523 212.665 349.277C212.82 349.031 212.934 348.746 213.007 348.423C213.08 348.099 213.116 347.753 213.116 347.384ZM219.057 351.137C218.542 351.137 218.075 351.05 217.655 350.877C217.241 350.699 216.883 350.451 216.582 350.132C216.286 349.813 216.058 349.435 215.898 348.997C215.739 348.56 215.659 348.081 215.659 347.562V347.274C215.659 346.673 215.748 346.137 215.926 345.668C216.104 345.194 216.345 344.793 216.65 344.465C216.956 344.137 217.302 343.888 217.689 343.72C218.077 343.551 218.478 343.467 218.893 343.467C219.421 343.467 219.877 343.558 220.26 343.74C220.647 343.923 220.964 344.178 221.21 344.506C221.456 344.829 221.638 345.212 221.757 345.654C221.875 346.092 221.935 346.57 221.935 347.09V347.657H216.411V346.625H220.67V346.529C220.652 346.201 220.583 345.882 220.465 345.572C220.351 345.262 220.169 345.007 219.918 344.807C219.667 344.606 219.326 344.506 218.893 344.506C218.605 344.506 218.341 344.567 218.1 344.69C217.858 344.809 217.651 344.987 217.478 345.224C217.304 345.461 217.17 345.75 217.074 346.092C216.979 346.434 216.931 346.828 216.931 347.274V347.562C216.931 347.912 216.979 348.243 217.074 348.553C217.174 348.858 217.318 349.127 217.505 349.359C217.696 349.592 217.926 349.774 218.195 349.906C218.469 350.038 218.779 350.104 219.125 350.104C219.572 350.104 219.95 350.013 220.26 349.831C220.57 349.649 220.841 349.405 221.073 349.1L221.839 349.708C221.679 349.95 221.477 350.18 221.23 350.398C220.984 350.617 220.681 350.795 220.321 350.932C219.966 351.068 219.544 351.137 219.057 351.137ZM224.785 340.5V351H223.514V340.5H224.785ZM236.673 349.961V351H230.158V350.091L233.419 346.461C233.82 346.014 234.13 345.636 234.349 345.326C234.572 345.012 234.727 344.731 234.813 344.485C234.905 344.235 234.95 343.979 234.95 343.72C234.95 343.392 234.882 343.095 234.745 342.831C234.613 342.562 234.417 342.348 234.157 342.188C233.897 342.029 233.583 341.949 233.214 341.949C232.772 341.949 232.403 342.036 232.106 342.209C231.815 342.378 231.596 342.615 231.45 342.92C231.304 343.225 231.231 343.576 231.231 343.973H229.967C229.967 343.412 230.09 342.899 230.336 342.435C230.582 341.97 230.947 341.601 231.43 341.327C231.913 341.049 232.507 340.91 233.214 340.91C233.843 340.91 234.381 341.022 234.827 341.245C235.274 341.464 235.616 341.774 235.853 342.175C236.094 342.571 236.215 343.036 236.215 343.569C236.215 343.861 236.165 344.157 236.064 344.458C235.969 344.754 235.834 345.05 235.661 345.347C235.493 345.643 235.294 345.935 235.066 346.222C234.843 346.509 234.604 346.791 234.349 347.069L231.683 349.961H236.673Z" fill="#E2E8F0"/>
</svg>
