<svg width="327" height="158" viewBox="0 0 327 158" fill="none" xmlns="http://www.w3.org/2000/svg">
<g filter="url(#filter0_dddddddi_5_74)">
<path d="M31 66C31 49.1984 31 40.7976 34.2698 34.3803C37.146 28.7354 41.7354 24.146 47.3803 21.2698C53.7976 18 62.1984 18 79 18H248C264.802 18 273.202 18 279.62 21.2698C285.265 24.146 289.854 28.7354 292.73 34.3803C296 40.7976 296 49.1984 296 66C296 82.8016 296 91.2024 292.73 97.6197C289.854 103.265 285.265 107.854 279.62 110.73C273.202 114 264.802 114 248 114H79C62.1984 114 53.7976 114 47.3803 110.73C41.7354 107.854 37.146 103.265 34.2698 97.6197C31 91.2024 31 82.8016 31 66Z" fill="#F9F9FA"/>
<path d="M55 66C55 56.6444 55 51.9667 57.1459 48.5516C58.2648 46.7707 59.7707 45.2648 61.5516 44.1459C64.9667 42 69.6444 42 79 42H127C136.356 42 141.033 42 144.448 44.1459C146.229 45.2648 147.735 46.7707 148.854 48.5516C151 51.9667 151 56.6444 151 66C151 75.3556 151 80.0333 148.854 83.4484C147.735 85.2293 146.229 86.7352 144.448 87.8541C141.033 90 136.356 90 127 90H79C69.6444 90 64.9667 90 61.5516 87.8541C59.7707 86.7352 58.2648 85.2293 57.1459 83.4484C55 80.0333 55 75.3556 55 66Z" fill="#77EA7E"/>
<g filter="url(#filter1_d_5_74)">
<path d="M169.741 58.6816C169.892 61.4854 172.212 63.2578 175.649 63.2578C179.323 63.2578 181.633 61.4424 181.633 58.542C181.633 56.2754 180.312 54.9971 177.132 54.2451L175.424 53.8262C173.426 53.332 172.609 52.6875 172.609 51.5918C172.609 50.2168 173.888 49.2715 175.757 49.2715C177.626 49.2715 178.904 50.2061 179.044 51.7529H181.386C181.311 49.0781 179.065 47.2412 175.789 47.2412C172.48 47.2412 170.149 49.0781 170.149 51.7529C170.149 53.9121 171.471 55.2441 174.317 55.9316L176.326 56.415C178.335 56.9092 179.184 57.6289 179.184 58.832C179.184 60.2178 177.776 61.2275 175.821 61.2275C173.78 61.2275 172.287 60.2178 172.115 58.6816H169.741ZM189.571 51.2158C187.949 51.2158 186.51 52.0107 185.854 53.2676H185.801V51.334H183.556V66.8672H185.887V61.0879H185.93C186.628 62.377 187.949 63.1182 189.625 63.1182C192.558 63.1182 194.502 60.7764 194.502 57.167C194.502 53.5469 192.547 51.2158 189.571 51.2158ZM188.98 61.1416C187.122 61.1416 185.876 59.5518 185.865 57.167C185.876 54.793 187.133 53.1924 188.98 53.1924C190.871 53.1924 192.117 54.7607 192.117 57.167C192.117 59.584 190.871 61.1416 188.98 61.1416ZM201.216 53.085C202.913 53.085 204.062 54.2881 204.116 56.1035H198.197C198.326 54.3096 199.54 53.085 201.216 53.085ZM204.105 59.584C203.783 60.6045 202.72 61.249 201.366 61.249C199.454 61.249 198.187 59.917 198.187 57.8975V57.7578H206.447V56.9414C206.447 53.4072 204.428 51.1836 201.227 51.1836C197.961 51.1836 195.834 53.5576 195.834 57.21C195.834 60.8623 197.939 63.1396 201.323 63.1396C203.944 63.1396 205.996 61.6787 206.329 59.584H204.105ZM212.377 61.2598C211.034 61.2598 210.164 60.6152 210.164 59.6162C210.164 58.585 210.991 57.9941 212.581 57.8975L215.417 57.7041V58.6172C215.417 60.1533 214.106 61.2598 212.377 61.2598ZM211.754 63.1182C213.344 63.1182 214.794 62.3232 215.438 61.0557H215.492V63H217.716V54.9971C217.716 52.6875 215.879 51.1836 213.032 51.1836C210.411 51.1836 208.456 52.709 208.392 54.7715H210.572C210.776 53.7617 211.7 53.1064 212.968 53.1064C214.525 53.1064 215.417 53.8369 215.417 55.1689V56.0713L212.27 56.2539C209.391 56.4365 207.812 57.6182 207.812 59.6592C207.812 61.7432 209.423 63.1182 211.754 63.1182ZM220.058 63H222.389V56.0391C222.389 54.3955 223.355 53.332 224.892 53.332C225.354 53.332 225.762 53.3965 225.955 53.4717V51.291C225.772 51.248 225.482 51.2158 225.139 51.2158C223.764 51.2158 222.689 52 222.324 53.2998H222.281V51.334H220.058V63ZM227.448 63H229.779V55.8457C229.779 54.3203 230.811 53.2031 232.25 53.2031C233.614 53.2031 234.484 54.0625 234.484 55.416V63H236.772V55.7598C236.772 54.2666 237.782 53.2031 239.211 53.2031C240.661 53.2031 241.488 54.084 241.488 55.6094V63H243.809V55.0508C243.809 52.7197 242.305 51.2051 240.006 51.2051C238.341 51.2051 236.966 52.0645 236.354 53.4717H236.3C235.827 52.0215 234.656 51.2051 233.034 51.2051C231.509 51.2051 230.252 52 229.715 53.3105H229.672V51.334H227.448V63ZM246.226 63H248.557V51.334H246.226V63ZM247.396 49.6689C248.148 49.6689 248.761 49.0674 248.761 48.3262C248.761 47.5635 248.148 46.9834 247.396 46.9834C246.645 46.9834 246.032 47.5635 246.032 48.3262C246.032 49.0674 246.645 49.6689 247.396 49.6689ZM251.038 63H253.369V56.2646C253.369 54.4277 254.422 53.2031 256.184 53.2031C257.892 53.2031 258.708 54.1914 258.708 55.9639V63H261.039V55.5234C261.039 52.8379 259.567 51.2051 256.989 51.2051C255.185 51.2051 254.014 51.9248 253.305 53.2998H253.262V51.334H251.038V63ZM264.068 48.7129V51.334H262.457V53.1709H264.068V59.9277C264.068 62.1836 264.971 63.0752 267.302 63.0752C267.807 63.0752 268.354 63.0215 268.612 62.957V61.1201C268.462 61.1416 268.064 61.1738 267.817 61.1738C266.84 61.1738 266.389 60.7012 266.389 59.6914V53.1709H268.623V51.334H266.389V48.7129H264.068Z" fill="#3D3D3D"/>
<path d="M178.102 78.9766L178.336 77.8281H176.695L177.32 74.7266H176.203L175.578 77.8281H173.273L173.891 74.7266H172.773L172.156 77.8281H170.516L170.289 78.9766H171.93L171.414 81.625H169.773L169.531 82.7891H171.172L170.531 86H171.648L172.281 82.7891H174.594L173.953 86H175.07L175.711 82.7891H177.352L177.578 81.625H175.938L176.461 78.9766H178.102ZM173.023 78.9531H175.367L174.836 81.6562H172.5L173.023 78.9531ZM181.133 86H182.602L187.656 76V74.7266H180.133V75.9609H186.25V76.0625L181.133 86ZM191.023 86H192.492L197.547 76V74.7266H190.023V75.9609H196.141V76.0625L191.023 86ZM207.125 84.7344H201.852V80.8594H206.836V79.6484H201.852V75.9922H207.125V74.7266H200.469V86H207.125V84.7344ZM216.422 86H217.875L214.242 74.7266H212.773L209.141 86H210.539L211.523 82.7656H215.445L216.422 86ZM213.469 76.3828H213.508L215.086 81.5859H211.883L213.469 76.3828ZM220.695 86H222.164L227.219 76V74.7266H219.695V75.9609H225.812V76.0625L220.695 86ZM236.797 84.7344H231.523V80.8594H236.508V79.6484H231.523V75.9922H236.797V74.7266H230.141V86H236.797V84.7344Z" fill="#727272"/>
</g>
</g>
<defs>
<filter id="filter0_dddddddi_5_74" x="0" y="0" width="327" height="158" filterUnits="userSpaceOnUse" color-interpolation-filters="sRGB">
<feFlood flood-opacity="0" result="BackgroundImageFix"/>
<feColorMatrix in="SourceAlpha" type="matrix" values="0 0 0 0 0 0 0 0 0 0 0 0 0 0 0 0 0 0 127 0" result="hardAlpha"/>
<feOffset dy="0.56875"/>
<feGaussianBlur stdDeviation="0.896094"/>
<feColorMatrix type="matrix" values="0 0 0 0 0.0470588 0 0 0 0 0.0784314 0 0 0 0 0.129412 0 0 0 0.013 0"/>
<feBlend mode="normal" in2="BackgroundImageFix" result="effect1_dropShadow_5_74"/>
<feColorMatrix in="SourceAlpha" type="matrix" values="0 0 0 0 0 0 0 0 0 0 0 0 0 0 0 0 0 0 127 0" result="hardAlpha"/>
<feOffset dy="1.37109"/>
<feGaussianBlur stdDeviation="1.49854"/>
<feColorMatrix type="matrix" values="0 0 0 0 0.0470588 0 0 0 0 0.0784314 0 0 0 0 0.129412 0 0 0 0.016875 0"/>
<feBlend mode="normal" in2="effect1_dropShadow_5_74" result="effect2_dropShadow_5_74"/>
<feColorMatrix in="SourceAlpha" type="matrix" values="0 0 0 0 0 0 0 0 0 0 0 0 0 0 0 0 0 0 127 0" result="hardAlpha"/>
<feOffset dy="2.6"/>
<feGaussianBlur stdDeviation="2.51875"/>
<feColorMatrix type="matrix" values="0 0 0 0 0.0470588 0 0 0 0 0.0784314 0 0 0 0 0.129412 0 0 0 0.02 0"/>
<feBlend mode="normal" in2="effect2_dropShadow_5_74" result="effect3_dropShadow_5_74"/>
<feColorMatrix in="SourceAlpha" type="matrix" values="0 0 0 0 0 0 0 0 0 0 0 0 0 0 0 0 0 0 127 0" result="hardAlpha"/>
<feOffset dy="4.31641"/>
<feGaussianBlur stdDeviation="4.19287"/>
<feColorMatrix type="matrix" values="0 0 0 0 0.0470588 0 0 0 0 0.0784314 0 0 0 0 0.129412 0 0 0 0.023125 0"/>
<feBlend mode="normal" in2="effect3_dropShadow_5_74" result="effect4_dropShadow_5_74"/>
<feColorMatrix in="SourceAlpha" type="matrix" values="0 0 0 0 0 0 0 0 0 0 0 0 0 0 0 0 0 0 127 0" result="hardAlpha"/>
<feOffset dy="6.58125"/>
<feGaussianBlur stdDeviation="6.75703"/>
<feColorMatrix type="matrix" values="0 0 0 0 0.0470588 0 0 0 0 0.0784314 0 0 0 0 0.129412 0 0 0 0.027 0"/>
<feBlend mode="normal" in2="effect4_dropShadow_5_74" result="effect5_dropShadow_5_74"/>
<feColorMatrix in="SourceAlpha" type="matrix" values="0 0 0 0 0 0 0 0 0 0 0 0 0 0 0 0 0 0 127 0" result="hardAlpha"/>
<feOffset dy="9.45547"/>
<feGaussianBlur stdDeviation="10.4474"/>
<feColorMatrix type="matrix" values="0 0 0 0 0.0470588 0 0 0 0 0.0784314 0 0 0 0 0.129412 0 0 0 0.032375 0"/>
<feBlend mode="normal" in2="effect5_dropShadow_5_74" result="effect6_dropShadow_5_74"/>
<feColorMatrix in="SourceAlpha" type="matrix" values="0 0 0 0 0 0 0 0 0 0 0 0 0 0 0 0 0 0 127 0" result="hardAlpha"/>
<feOffset dy="13"/>
<feGaussianBlur stdDeviation="15.5"/>
<feColorMatrix type="matrix" values="0 0 0 0 0.0468229 0 0 0 0 0.0797604 0 0 0 0 0.129167 0 0 0 0.04 0"/>
<feBlend mode="normal" in2="effect6_dropShadow_5_74" result="effect7_dropShadow_5_74"/>
<feBlend mode="normal" in="SourceGraphic" in2="effect7_dropShadow_5_74" result="shape"/>
<feColorMatrix in="SourceAlpha" type="matrix" values="0 0 0 0 0 0 0 0 0 0 0 0 0 0 0 0 0 0 127 0" result="hardAlpha"/>
<feOffset dy="2"/>
<feGaussianBlur stdDeviation="0.5"/>
<feComposite in2="hardAlpha" operator="arithmetic" k2="-1" k3="1"/>
<feColorMatrix type="matrix" values="0 0 0 0 1 0 0 0 0 1 0 0 0 0 1 0 0 0 1 0"/>
<feBlend mode="normal" in2="shape" result="effect8_innerShadow_5_74"/>
</filter>
<filter id="filter1_d_5_74" x="164" y="39" width="111" height="54" filterUnits="userSpaceOnUse" color-interpolation-filters="sRGB">
<feFlood flood-opacity="0" result="BackgroundImageFix"/>
<feColorMatrix in="SourceAlpha" type="matrix" values="0 0 0 0 0 0 0 0 0 0 0 0 0 0 0 0 0 0 127 0" result="hardAlpha"/>
<feOffset/>
<feGaussianBlur stdDeviation="1.5"/>
<feColorMatrix type="matrix" values="0 0 0 0 1 0 0 0 0 1 0 0 0 0 1 0 0 0 1 0"/>
<feBlend mode="normal" in2="BackgroundImageFix" result="effect1_dropShadow_5_74"/>
<feBlend mode="normal" in="SourceGraphic" in2="effect1_dropShadow_5_74" result="shape"/>
</filter>
</defs>
</svg>
