<svg width="353" height="158" viewBox="0 0 353 158" fill="none" xmlns="http://www.w3.org/2000/svg">
<g filter="url(#filter0_dddddddi_5_86)">
<path d="M31 66C31 49.1984 31 40.7976 34.2698 34.3803C37.146 28.7354 41.7354 24.146 47.3803 21.2698C53.7976 18 62.1984 18 79 18H274C290.802 18 299.202 18 305.62 21.2698C311.265 24.146 315.854 28.7354 318.73 34.3803C322 40.7976 322 49.1984 322 66C322 82.8016 322 91.2024 318.73 97.6197C315.854 103.265 311.265 107.854 305.62 110.73C299.202 114 290.802 114 274 114H79C62.1984 114 53.7976 114 47.3803 110.73C41.7354 107.854 37.146 103.265 34.2698 97.6197C31 91.2024 31 82.8016 31 66Z" fill="#F9F9FA"/>
<path d="M55 66C55 56.6444 55 51.9667 57.1459 48.5516C58.2648 46.7707 59.7707 45.2648 61.5516 44.1459C64.9667 42 69.6444 42 79 42H127C136.356 42 141.033 42 144.448 44.1459C146.229 45.2648 147.735 46.7707 148.854 48.5516C151 51.9667 151 56.6444 151 66C151 75.3556 151 80.0333 148.854 83.4484C147.735 85.2293 146.229 86.7352 144.448 87.8541C141.033 90 136.356 90 127 90H79C69.6444 90 64.9667 90 61.5516 87.8541C59.7707 86.7352 58.2648 85.2293 57.1459 83.4484C55 80.0333 55 75.3556 55 66Z" fill="#FD820B"/>
<g filter="url(#filter1_d_5_86)">
<path d="M180.054 60.916H172.835V47.499H170.429V63H180.054V60.916ZM181.966 63H184.297V51.334H181.966V63ZM183.137 49.6689C183.889 49.6689 184.501 49.0674 184.501 48.3262C184.501 47.5635 183.889 46.9834 183.137 46.9834C182.385 46.9834 181.772 47.5635 181.772 48.3262C181.772 49.0674 182.385 49.6689 183.137 49.6689ZM191.73 61.0342C189.851 61.0342 188.637 59.5195 188.637 57.1348C188.637 54.7393 189.851 53.1924 191.73 53.1924C193.621 53.1924 194.878 54.7715 194.878 57.1348C194.878 59.4873 193.621 61.0342 191.73 61.0342ZM191.741 67.2002C195.104 67.2002 197.198 65.4814 197.198 62.6992V51.334H194.942V53.2676H194.899C194.18 51.9785 192.826 51.2158 191.172 51.2158C188.186 51.2158 186.252 53.5254 186.252 57.124C186.252 60.6797 188.207 62.9678 191.118 62.9678C192.772 62.9678 194.147 62.2158 194.824 60.959H194.878V62.8818C194.878 64.4072 193.686 65.374 191.838 65.374C190.409 65.374 189.324 64.8047 189.066 63.9023H186.714C186.939 65.9004 188.938 67.2002 191.741 67.2002ZM199.68 63H202.011V56.3184C202.011 54.4492 203.106 53.2031 204.922 53.2031C206.63 53.2031 207.5 54.2559 207.5 55.9961V63H209.831V55.5449C209.831 52.9131 208.295 51.2051 205.728 51.2051C203.944 51.2051 202.741 51.9248 202.043 53.2998H201.989V46.8008H199.68V63ZM212.871 48.7129V51.334H211.26V53.1709H212.871V59.9277C212.871 62.1836 213.773 63.0752 216.104 63.0752C216.609 63.0752 217.157 63.0215 217.415 62.957V61.1201C217.265 61.1416 216.867 61.1738 216.62 61.1738C215.643 61.1738 215.191 60.7012 215.191 59.6914V53.1709H217.426V51.334H215.191V48.7129H212.871ZM231.401 47.2412C226.933 47.2412 224.14 50.3242 224.14 55.2549C224.14 60.1855 226.933 63.2578 231.401 63.2578C235.859 63.2578 238.663 60.1855 238.663 55.2549C238.663 50.3242 235.859 47.2412 231.401 47.2412ZM231.401 49.3574C234.345 49.3574 236.192 51.6348 236.192 55.2549C236.192 58.8643 234.345 61.1416 231.401 61.1416C228.458 61.1416 226.6 58.8643 226.6 55.2549C226.6 51.6348 228.458 49.3574 231.401 49.3574ZM240.726 63H243.057V56.0391C243.057 54.3955 244.023 53.332 245.56 53.332C246.021 53.332 246.43 53.3965 246.623 53.4717V51.291C246.44 51.248 246.15 51.2158 245.807 51.2158C244.432 51.2158 243.357 52 242.992 53.2998H242.949V51.334H240.726V63ZM251.93 61.2598C250.587 61.2598 249.717 60.6152 249.717 59.6162C249.717 58.585 250.544 57.9941 252.134 57.8975L254.97 57.7041V58.6172C254.97 60.1533 253.659 61.2598 251.93 61.2598ZM251.307 63.1182C252.896 63.1182 254.347 62.3232 254.991 61.0557H255.045V63H257.269V54.9971C257.269 52.6875 255.432 51.1836 252.585 51.1836C249.964 51.1836 248.009 52.709 247.944 54.7715H250.125C250.329 53.7617 251.253 53.1064 252.521 53.1064C254.078 53.1064 254.97 53.8369 254.97 55.1689V56.0713L251.822 56.2539C248.943 56.4365 247.364 57.6182 247.364 59.6592C247.364 61.7432 248.976 63.1182 251.307 63.1182ZM259.61 63H261.941V56.2646C261.941 54.4277 262.994 53.2031 264.756 53.2031C266.464 53.2031 267.28 54.1914 267.28 55.9639V63H269.611V55.5234C269.611 52.8379 268.14 51.2051 265.562 51.2051C263.757 51.2051 262.586 51.9248 261.877 53.2998H261.834V51.334H259.61V63ZM276.895 61.0342C275.015 61.0342 273.801 59.5195 273.801 57.1348C273.801 54.7393 275.015 53.1924 276.895 53.1924C278.785 53.1924 280.042 54.7715 280.042 57.1348C280.042 59.4873 278.785 61.0342 276.895 61.0342ZM276.905 67.2002C280.268 67.2002 282.362 65.4814 282.362 62.6992V51.334H280.106V53.2676H280.063C279.344 51.9785 277.99 51.2158 276.336 51.2158C273.35 51.2158 271.416 53.5254 271.416 57.124C271.416 60.6797 273.371 62.9678 276.282 62.9678C277.937 62.9678 279.312 62.2158 279.988 60.959H280.042V62.8818C280.042 64.4072 278.85 65.374 277.002 65.374C275.573 65.374 274.488 64.8047 274.23 63.9023H271.878C272.104 65.9004 274.102 67.2002 276.905 67.2002ZM289.603 53.085C291.3 53.085 292.449 54.2881 292.503 56.1035H286.584C286.713 54.3096 287.927 53.085 289.603 53.085ZM292.492 59.584C292.17 60.6045 291.106 61.249 289.753 61.249C287.841 61.249 286.573 59.917 286.573 57.8975V57.7578H294.834V56.9414C294.834 53.4072 292.814 51.1836 289.613 51.1836C286.348 51.1836 284.221 53.5576 284.221 57.21C284.221 60.8623 286.326 63.1396 289.71 63.1396C292.331 63.1396 294.383 61.6787 294.716 59.584H292.492Z" fill="#3D3D3D"/>
<path d="M178.102 78.9766L178.336 77.8281H176.695L177.32 74.7266H176.203L175.578 77.8281H173.273L173.891 74.7266H172.773L172.156 77.8281H170.516L170.289 78.9766H171.93L171.414 81.625H169.773L169.531 82.7891H171.172L170.531 86H171.648L172.281 82.7891H174.594L173.953 86H175.07L175.711 82.7891H177.352L177.578 81.625H175.938L176.461 78.9766H178.102ZM173.023 78.9531H175.367L174.836 81.6562H172.5L173.023 78.9531ZM182.258 86V81.0859H187.07V79.8594H182.258V75.9922H187.523V74.7266H180.875V86H182.258ZM190.031 74.7266V86H193.188C196.383 86 197.992 84.1094 197.992 80.3438C197.992 76.6094 196.383 74.7266 193.188 74.7266H190.031ZM191.414 75.9922H193.062C195.445 75.9922 196.586 77.3984 196.586 80.3516C196.586 83.3359 195.453 84.7344 193.062 84.7344H191.414V75.9922ZM203.656 86.25C206 86.25 207.625 84.9062 207.625 82.9844C207.625 81.5625 206.695 80.3984 205.328 80.1094V79.9844C206.477 79.6641 207.172 78.7031 207.172 77.4766C207.172 75.7188 205.711 74.4766 203.656 74.4766C201.602 74.4766 200.133 75.7188 200.133 77.4766C200.133 78.7031 200.844 79.6719 201.977 79.9844V80.1094C200.586 80.4453 199.68 81.5859 199.68 82.9844C199.68 84.9062 201.312 86.25 203.656 86.25ZM203.656 79.5156C202.352 79.5156 201.484 78.75 201.484 77.5938C201.484 76.4453 202.352 75.6797 203.656 75.6797C204.961 75.6797 205.82 76.4453 205.82 77.5938C205.82 78.75 204.961 79.5156 203.656 79.5156ZM203.656 85.0547C202.125 85.0547 201.07 84.1641 201.07 82.875C201.07 81.5859 202.125 80.6953 203.656 80.6953C205.188 80.6953 206.242 81.5859 206.242 82.875C206.242 84.1641 205.188 85.0547 203.656 85.0547ZM209.914 77.8984V77.9453H211.242V77.8984C211.242 76.5703 212.102 75.7031 213.398 75.7031C214.711 75.7031 215.562 76.5 215.562 77.7109C215.562 78.6016 215.219 79.2031 213.789 80.8047L209.977 85.0469V86H217.109V84.75H211.945V84.6172L214.602 81.7266C216.398 79.7656 216.93 78.8281 216.93 77.6562C216.93 75.7734 215.508 74.4922 213.438 74.4922C211.383 74.4922 209.914 75.9141 209.914 77.8984ZM223.406 86.2578C225.852 86.2578 227.211 84.1641 227.211 80.3672C227.211 76.5703 225.852 74.4766 223.406 74.4766C220.953 74.4766 219.602 76.5703 219.602 80.3672C219.602 84.1641 220.953 86.2578 223.406 86.2578ZM220.969 80.3672C220.969 77.3047 221.812 75.6953 223.406 75.6953C224.469 75.6953 225.203 76.4141 225.57 77.8125L221.023 81.6094C220.992 81.2266 220.969 80.8125 220.969 80.3672ZM223.406 85.0391C222.344 85.0391 221.617 84.3203 221.25 82.9375L225.781 79.1094C225.82 79.5 225.836 79.9141 225.836 80.3672C225.836 83.4219 225 85.0391 223.406 85.0391ZM233.5 86C235.922 86 237.359 84.8281 237.359 82.8516C237.359 81.3438 236.367 80.2422 234.852 80.0938V79.9766C235.984 79.7812 236.789 78.7578 236.789 77.5156C236.789 75.7656 235.539 74.7266 233.461 74.7266H229.812V86H233.5ZM231.18 75.9141H233.148C234.586 75.9141 235.398 76.5781 235.398 77.7578C235.398 78.9453 234.539 79.5938 232.938 79.5938H231.18V75.9141ZM231.18 84.8047V80.7422H233.156C234.984 80.7422 235.93 81.4297 235.93 82.7578C235.93 84.1016 234.992 84.8047 233.203 84.8047H231.18Z" fill="#727272"/>
</g>
</g>
<defs>
<filter id="filter0_dddddddi_5_86" x="0" y="0" width="353" height="158" filterUnits="userSpaceOnUse" color-interpolation-filters="sRGB">
<feFlood flood-opacity="0" result="BackgroundImageFix"/>
<feColorMatrix in="SourceAlpha" type="matrix" values="0 0 0 0 0 0 0 0 0 0 0 0 0 0 0 0 0 0 127 0" result="hardAlpha"/>
<feOffset dy="0.56875"/>
<feGaussianBlur stdDeviation="0.896094"/>
<feColorMatrix type="matrix" values="0 0 0 0 0.0470588 0 0 0 0 0.0784314 0 0 0 0 0.129412 0 0 0 0.013 0"/>
<feBlend mode="normal" in2="BackgroundImageFix" result="effect1_dropShadow_5_86"/>
<feColorMatrix in="SourceAlpha" type="matrix" values="0 0 0 0 0 0 0 0 0 0 0 0 0 0 0 0 0 0 127 0" result="hardAlpha"/>
<feOffset dy="1.37109"/>
<feGaussianBlur stdDeviation="1.49854"/>
<feColorMatrix type="matrix" values="0 0 0 0 0.0470588 0 0 0 0 0.0784314 0 0 0 0 0.129412 0 0 0 0.016875 0"/>
<feBlend mode="normal" in2="effect1_dropShadow_5_86" result="effect2_dropShadow_5_86"/>
<feColorMatrix in="SourceAlpha" type="matrix" values="0 0 0 0 0 0 0 0 0 0 0 0 0 0 0 0 0 0 127 0" result="hardAlpha"/>
<feOffset dy="2.6"/>
<feGaussianBlur stdDeviation="2.51875"/>
<feColorMatrix type="matrix" values="0 0 0 0 0.0470588 0 0 0 0 0.0784314 0 0 0 0 0.129412 0 0 0 0.02 0"/>
<feBlend mode="normal" in2="effect2_dropShadow_5_86" result="effect3_dropShadow_5_86"/>
<feColorMatrix in="SourceAlpha" type="matrix" values="0 0 0 0 0 0 0 0 0 0 0 0 0 0 0 0 0 0 127 0" result="hardAlpha"/>
<feOffset dy="4.31641"/>
<feGaussianBlur stdDeviation="4.19287"/>
<feColorMatrix type="matrix" values="0 0 0 0 0.0470588 0 0 0 0 0.0784314 0 0 0 0 0.129412 0 0 0 0.023125 0"/>
<feBlend mode="normal" in2="effect3_dropShadow_5_86" result="effect4_dropShadow_5_86"/>
<feColorMatrix in="SourceAlpha" type="matrix" values="0 0 0 0 0 0 0 0 0 0 0 0 0 0 0 0 0 0 127 0" result="hardAlpha"/>
<feOffset dy="6.58125"/>
<feGaussianBlur stdDeviation="6.75703"/>
<feColorMatrix type="matrix" values="0 0 0 0 0.0470588 0 0 0 0 0.0784314 0 0 0 0 0.129412 0 0 0 0.027 0"/>
<feBlend mode="normal" in2="effect4_dropShadow_5_86" result="effect5_dropShadow_5_86"/>
<feColorMatrix in="SourceAlpha" type="matrix" values="0 0 0 0 0 0 0 0 0 0 0 0 0 0 0 0 0 0 127 0" result="hardAlpha"/>
<feOffset dy="9.45547"/>
<feGaussianBlur stdDeviation="10.4474"/>
<feColorMatrix type="matrix" values="0 0 0 0 0.0470588 0 0 0 0 0.0784314 0 0 0 0 0.129412 0 0 0 0.032375 0"/>
<feBlend mode="normal" in2="effect5_dropShadow_5_86" result="effect6_dropShadow_5_86"/>
<feColorMatrix in="SourceAlpha" type="matrix" values="0 0 0 0 0 0 0 0 0 0 0 0 0 0 0 0 0 0 127 0" result="hardAlpha"/>
<feOffset dy="13"/>
<feGaussianBlur stdDeviation="15.5"/>
<feColorMatrix type="matrix" values="0 0 0 0 0.0468229 0 0 0 0 0.0797604 0 0 0 0 0.129167 0 0 0 0.04 0"/>
<feBlend mode="normal" in2="effect6_dropShadow_5_86" result="effect7_dropShadow_5_86"/>
<feBlend mode="normal" in="SourceGraphic" in2="effect7_dropShadow_5_86" result="shape"/>
<feColorMatrix in="SourceAlpha" type="matrix" values="0 0 0 0 0 0 0 0 0 0 0 0 0 0 0 0 0 0 127 0" result="hardAlpha"/>
<feOffset dy="2"/>
<feGaussianBlur stdDeviation="0.5"/>
<feComposite in2="hardAlpha" operator="arithmetic" k2="-1" k3="1"/>
<feColorMatrix type="matrix" values="0 0 0 0 1 0 0 0 0 1 0 0 0 0 1 0 0 0 1 0"/>
<feBlend mode="normal" in2="shape" result="effect8_innerShadow_5_86"/>
</filter>
<filter id="filter1_d_5_86" x="164" y="39" width="137" height="54" filterUnits="userSpaceOnUse" color-interpolation-filters="sRGB">
<feFlood flood-opacity="0" result="BackgroundImageFix"/>
<feColorMatrix in="SourceAlpha" type="matrix" values="0 0 0 0 0 0 0 0 0 0 0 0 0 0 0 0 0 0 127 0" result="hardAlpha"/>
<feOffset/>
<feGaussianBlur stdDeviation="1.5"/>
<feColorMatrix type="matrix" values="0 0 0 0 1 0 0 0 0 1 0 0 0 0 1 0 0 0 1 0"/>
<feBlend mode="normal" in2="BackgroundImageFix" result="effect1_dropShadow_5_86"/>
<feBlend mode="normal" in="SourceGraphic" in2="effect1_dropShadow_5_86" result="shape"/>
</filter>
</defs>
</svg>
