<svg width="354" height="169" viewBox="0 0 354 169" fill="none" xmlns="http://www.w3.org/2000/svg">
<g filter="url(#filter0_dddddddi_28_1268)">
<path d="M31 71.1765C31 49.4646 31 38.6087 36.355 30.8938C38.3977 27.9509 40.9509 25.3977 43.8938 23.355C51.6087 18 62.4646 18 84.1765 18H269.763C291.475 18 302.331 18 310.046 23.355C312.989 25.3977 315.542 27.9509 317.585 30.8938C322.94 38.6087 322.94 49.4646 322.94 71.1765C322.94 92.8883 322.94 103.744 317.585 111.459C315.542 114.402 312.989 116.955 310.046 118.998C302.331 124.353 291.475 124.353 269.763 124.353H84.1765C62.4646 124.353 51.6087 124.353 43.8938 118.998C40.9509 116.955 38.3977 114.402 36.355 111.459C31 103.744 31 92.8883 31 71.1765Z" fill="#F9F9FA"/>
<path d="M55 71.1765C55 61.821 55 57.1432 57.1459 53.7281C58.2648 51.9472 59.7707 50.4414 61.5516 49.3224C64.9667 47.1765 69.6444 47.1765 79 47.1765H127C136.356 47.1765 141.033 47.1765 144.448 49.3224C146.229 50.4414 147.735 51.9472 148.854 53.7281C151 57.1432 151 61.821 151 71.1765C151 80.5321 151 85.2098 148.854 88.625C147.735 90.4058 146.229 91.9117 144.448 93.0307C141.033 95.1765 136.356 95.1765 127 95.1765H79C69.6444 95.1765 64.9667 95.1765 61.5516 93.0307C59.7707 91.9117 58.2648 90.4058 57.1459 88.625C55 85.2098 55 80.5321 55 71.1765Z" fill="#525C73"/>
<g filter="url(#filter1_d_28_1268)">
<path d="M180.526 68.1765H183.072L177.476 52.6755H174.876L169.279 68.1765H171.782L173.2 63.9871H179.108L180.526 68.1765ZM176.122 55.2537H176.187L178.496 62.0535H173.812L176.122 55.2537ZM184.641 68.1765H186.972V51.9773H184.641V68.1765ZM193.514 66.4363C192.171 66.4363 191.301 65.7917 191.301 64.7927C191.301 63.7615 192.128 63.1707 193.718 63.074L196.554 62.8806V63.7937C196.554 65.3298 195.243 66.4363 193.514 66.4363ZM192.891 68.2947C194.48 68.2947 195.931 67.4998 196.575 66.2322H196.629V68.1765H198.853V60.1736C198.853 57.864 197.016 56.3601 194.169 56.3601C191.548 56.3601 189.593 57.8855 189.528 59.948H191.709C191.913 58.9382 192.837 58.283 194.104 58.283C195.662 58.283 196.554 59.0134 196.554 60.3455V61.2478L193.406 61.4304C190.527 61.613 188.948 62.7947 188.948 64.8357C188.948 66.9197 190.56 68.2947 192.891 68.2947ZM201.001 59.8298C201.001 61.4412 202.043 62.5154 204.148 63.031L206.232 63.5466C207.457 63.8582 207.919 64.2449 207.919 64.9861C207.919 65.9314 207.006 66.533 205.556 66.533C204.073 66.533 203.171 65.9207 202.988 64.8035H200.689C200.861 66.9089 202.72 68.3162 205.438 68.3162C208.263 68.3162 210.239 66.8767 210.239 64.7927C210.239 63.074 209.369 62.2253 207.017 61.656L205.083 61.1941C203.848 60.8933 203.268 60.4099 203.268 59.7009C203.268 58.7771 204.148 58.1648 205.47 58.1648C206.802 58.1648 207.693 58.8093 207.79 59.8406H209.981C209.928 57.8103 208.08 56.3708 205.523 56.3708C202.838 56.3708 201.001 57.7781 201.001 59.8298ZM214.568 61.5486H214.558V51.9773H212.227V68.1765H214.558V63.9441L215.567 62.9558L219.596 68.1765H222.281L217.232 61.5378L222.109 56.5105H219.37L214.568 61.5486ZM227.588 66.4363C226.245 66.4363 225.375 65.7917 225.375 64.7927C225.375 63.7615 226.202 63.1707 227.792 63.074L230.628 62.8806V63.7937C230.628 65.3298 229.317 66.4363 227.588 66.4363ZM226.965 68.2947C228.555 68.2947 230.005 67.4998 230.649 66.2322H230.703V68.1765H232.927V60.1736C232.927 57.864 231.09 56.3601 228.243 56.3601C225.622 56.3601 223.667 57.8855 223.603 59.948H225.783C225.987 58.9382 226.911 58.283 228.179 58.283C229.736 58.283 230.628 59.0134 230.628 60.3455V61.2478L227.48 61.4304C224.602 61.613 223.022 62.7947 223.022 64.8357C223.022 66.9197 224.634 68.2947 226.965 68.2947ZM235.269 68.1765H237.6V61.4412C237.6 59.6042 238.652 58.3796 240.414 58.3796C242.122 58.3796 242.938 59.3679 242.938 61.1404V68.1765H245.27V60.7C245.27 58.0144 243.798 56.3816 241.22 56.3816C239.415 56.3816 238.244 57.1013 237.535 58.4763H237.492V56.5105H235.269V68.1765ZM259.277 68.1765C262.586 68.1765 264.573 66.5222 264.573 63.7937C264.573 61.7312 263.145 60.238 261.05 60.0017V59.9158C262.597 59.658 263.8 58.1863 263.8 56.5427C263.8 54.2009 261.995 52.6755 259.256 52.6755H252.907V68.1765H259.277ZM255.313 54.6414H258.665C260.416 54.6414 261.404 55.4363 261.404 56.8757C261.404 58.4119 260.255 59.2712 258.16 59.2712H255.313V54.6414ZM255.313 66.2107V61.1082H258.654C260.921 61.1082 262.113 61.9675 262.113 63.6433C262.113 65.3191 260.964 66.2107 258.794 66.2107H255.313ZM266.518 68.1765H268.849V51.9773H266.518V68.1765ZM281.288 56.5105H278.957V63.2351C278.957 65.0828 277.894 66.2966 276.153 66.2966C274.467 66.2966 273.618 65.3406 273.618 63.5466V56.5105H271.287V63.9871C271.287 66.6619 272.834 68.3054 275.38 68.3054C277.163 68.3054 278.345 67.5642 279.021 66.1785H279.064V68.1765H281.288V56.5105ZM288.528 58.2615C290.226 58.2615 291.375 59.4646 291.429 61.28H285.51C285.639 59.4861 286.853 58.2615 288.528 58.2615ZM291.418 64.7605C291.096 65.781 290.032 66.4255 288.679 66.4255C286.767 66.4255 285.499 65.0935 285.499 63.074V62.9343H293.76V62.1179C293.76 58.5837 291.74 56.3601 288.539 56.3601C285.273 56.3601 283.146 58.7341 283.146 62.3865C283.146 66.0388 285.252 68.3162 288.636 68.3162C291.257 68.3162 293.309 66.8552 293.642 64.7605H291.418Z" fill="#3D3D3D"/>
<path d="M178.102 84.1531L178.336 83.0046H176.695L177.32 79.9031H176.203L175.578 83.0046H173.273L173.891 79.9031H172.773L172.156 83.0046H170.516L170.289 84.1531H171.93L171.414 86.8015H169.773L169.531 87.9656H171.172L170.531 91.1765H171.648L172.281 87.9656H174.594L173.953 91.1765H175.07L175.711 87.9656H177.352L177.578 86.8015H175.938L176.461 84.1531H178.102ZM173.023 84.1296H175.367L174.836 86.8328H172.5L173.023 84.1296ZM183.742 91.4031C186.031 91.4031 187.586 89.8562 187.586 87.575C187.586 85.3562 186.133 83.8015 184.047 83.8015C183.055 83.8015 182.25 84.1531 181.695 84.825H181.57L181.883 81.1453H186.961V79.9031H180.797L180.227 86.2703H181.531C181.977 85.4734 182.812 85.0125 183.82 85.0125C185.266 85.0125 186.242 86.0593 186.242 87.6062C186.242 89.1375 185.273 90.1609 183.82 90.1609C182.5 90.1609 181.492 89.3484 181.367 88.1687H180.039C180.156 90.1062 181.641 91.4031 183.742 91.4031ZM190.133 83.075V83.1218H191.461V83.075C191.461 81.7468 192.32 80.8796 193.617 80.8796C194.93 80.8796 195.781 81.6765 195.781 82.8875C195.781 83.7781 195.438 84.3796 194.008 85.9812L190.195 90.2234V91.1765H197.328V89.9265H192.164V89.7937L194.82 86.9031C196.617 84.9421 197.148 84.0046 197.148 82.8328C197.148 80.95 195.727 79.6687 193.656 79.6687C191.602 79.6687 190.133 81.0906 190.133 83.075ZM203.523 91.4031C205.812 91.4031 207.367 89.8562 207.367 87.575C207.367 85.3562 205.914 83.8015 203.828 83.8015C202.836 83.8015 202.031 84.1531 201.477 84.825H201.352L201.664 81.1453H206.742V79.9031H200.578L200.008 86.2703H201.312C201.758 85.4734 202.594 85.0125 203.602 85.0125C205.047 85.0125 206.023 86.0593 206.023 87.6062C206.023 89.1375 205.055 90.1609 203.602 90.1609C202.281 90.1609 201.273 89.3484 201.148 88.1687H199.82C199.938 90.1062 201.422 91.4031 203.523 91.4031ZM213.766 90.1062C211.938 90.1062 210.984 88.8796 210.984 86.5437V84.5359C210.984 82.2 211.938 80.9734 213.758 80.9734C215.203 80.9734 216.211 81.9968 216.258 83.5203H217.656C217.609 81.114 216.141 79.6687 213.766 79.6687C211.117 79.6687 209.578 81.4578 209.578 84.5359V86.5437C209.578 89.6218 211.117 91.4109 213.766 91.4109C216.07 91.4109 217.648 89.9343 217.648 87.7546H216.258C216.219 89.2078 215.266 90.1062 213.766 90.1062ZM220.695 91.1765H222.164L227.219 81.1765V79.9031H219.695V81.1375H225.812V81.239L220.695 91.1765ZM231.914 85.95H233.203C234.766 85.95 235.758 86.7859 235.758 88.0984C235.758 89.3718 234.797 90.1687 233.25 90.1687C231.844 90.1687 230.844 89.3875 230.719 88.1843H229.414C229.516 90.1296 231.062 91.4109 233.289 91.4109C235.539 91.4109 237.148 90.0437 237.148 88.1296C237.148 86.5906 236.258 85.5359 234.758 85.3406V85.2156C235.969 84.9187 236.68 83.95 236.68 82.5906C236.68 80.8796 235.242 79.6687 233.227 79.6687C231.141 79.6687 229.766 80.8796 229.633 82.8328H230.953C231.062 81.6218 231.906 80.8796 233.172 80.8796C234.445 80.8796 235.289 81.6375 235.289 82.7859C235.289 83.9656 234.406 84.7937 233.141 84.7937H231.914V85.95Z" fill="#727272"/>
</g>
</g>
<defs>
<filter id="filter0_dddddddi_28_1268" x="0" y="0" width="353.94" height="168.353" filterUnits="userSpaceOnUse" color-interpolation-filters="sRGB">
<feFlood flood-opacity="0" result="BackgroundImageFix"/>
<feColorMatrix in="SourceAlpha" type="matrix" values="0 0 0 0 0 0 0 0 0 0 0 0 0 0 0 0 0 0 127 0" result="hardAlpha"/>
<feOffset dy="0.56875"/>
<feGaussianBlur stdDeviation="0.896094"/>
<feColorMatrix type="matrix" values="0 0 0 0 0.0470588 0 0 0 0 0.0784314 0 0 0 0 0.129412 0 0 0 0.013 0"/>
<feBlend mode="normal" in2="BackgroundImageFix" result="effect1_dropShadow_28_1268"/>
<feColorMatrix in="SourceAlpha" type="matrix" values="0 0 0 0 0 0 0 0 0 0 0 0 0 0 0 0 0 0 127 0" result="hardAlpha"/>
<feOffset dy="1.37109"/>
<feGaussianBlur stdDeviation="1.49854"/>
<feColorMatrix type="matrix" values="0 0 0 0 0.0470588 0 0 0 0 0.0784314 0 0 0 0 0.129412 0 0 0 0.016875 0"/>
<feBlend mode="normal" in2="effect1_dropShadow_28_1268" result="effect2_dropShadow_28_1268"/>
<feColorMatrix in="SourceAlpha" type="matrix" values="0 0 0 0 0 0 0 0 0 0 0 0 0 0 0 0 0 0 127 0" result="hardAlpha"/>
<feOffset dy="2.6"/>
<feGaussianBlur stdDeviation="2.51875"/>
<feColorMatrix type="matrix" values="0 0 0 0 0.0470588 0 0 0 0 0.0784314 0 0 0 0 0.129412 0 0 0 0.02 0"/>
<feBlend mode="normal" in2="effect2_dropShadow_28_1268" result="effect3_dropShadow_28_1268"/>
<feColorMatrix in="SourceAlpha" type="matrix" values="0 0 0 0 0 0 0 0 0 0 0 0 0 0 0 0 0 0 127 0" result="hardAlpha"/>
<feOffset dy="4.31641"/>
<feGaussianBlur stdDeviation="4.19287"/>
<feColorMatrix type="matrix" values="0 0 0 0 0.0470588 0 0 0 0 0.0784314 0 0 0 0 0.129412 0 0 0 0.023125 0"/>
<feBlend mode="normal" in2="effect3_dropShadow_28_1268" result="effect4_dropShadow_28_1268"/>
<feColorMatrix in="SourceAlpha" type="matrix" values="0 0 0 0 0 0 0 0 0 0 0 0 0 0 0 0 0 0 127 0" result="hardAlpha"/>
<feOffset dy="6.58125"/>
<feGaussianBlur stdDeviation="6.75703"/>
<feColorMatrix type="matrix" values="0 0 0 0 0.0470588 0 0 0 0 0.0784314 0 0 0 0 0.129412 0 0 0 0.027 0"/>
<feBlend mode="normal" in2="effect4_dropShadow_28_1268" result="effect5_dropShadow_28_1268"/>
<feColorMatrix in="SourceAlpha" type="matrix" values="0 0 0 0 0 0 0 0 0 0 0 0 0 0 0 0 0 0 127 0" result="hardAlpha"/>
<feOffset dy="9.45547"/>
<feGaussianBlur stdDeviation="10.4474"/>
<feColorMatrix type="matrix" values="0 0 0 0 0.0470588 0 0 0 0 0.0784314 0 0 0 0 0.129412 0 0 0 0.032375 0"/>
<feBlend mode="normal" in2="effect5_dropShadow_28_1268" result="effect6_dropShadow_28_1268"/>
<feColorMatrix in="SourceAlpha" type="matrix" values="0 0 0 0 0 0 0 0 0 0 0 0 0 0 0 0 0 0 127 0" result="hardAlpha"/>
<feOffset dy="13"/>
<feGaussianBlur stdDeviation="15.5"/>
<feColorMatrix type="matrix" values="0 0 0 0 0.0468229 0 0 0 0 0.0797604 0 0 0 0 0.129167 0 0 0 0.04 0"/>
<feBlend mode="normal" in2="effect6_dropShadow_28_1268" result="effect7_dropShadow_28_1268"/>
<feBlend mode="normal" in="SourceGraphic" in2="effect7_dropShadow_28_1268" result="shape"/>
<feColorMatrix in="SourceAlpha" type="matrix" values="0 0 0 0 0 0 0 0 0 0 0 0 0 0 0 0 0 0 127 0" result="hardAlpha"/>
<feOffset dy="2"/>
<feGaussianBlur stdDeviation="0.5"/>
<feComposite in2="hardAlpha" operator="arithmetic" k2="-1" k3="1"/>
<feColorMatrix type="matrix" values="0 0 0 0 1 0 0 0 0 1 0 0 0 0 1 0 0 0 1 0"/>
<feBlend mode="normal" in2="shape" result="effect8_innerShadow_28_1268"/>
</filter>
<filter id="filter1_d_28_1268" x="164" y="44.1765" width="136" height="54" filterUnits="userSpaceOnUse" color-interpolation-filters="sRGB">
<feFlood flood-opacity="0" result="BackgroundImageFix"/>
<feColorMatrix in="SourceAlpha" type="matrix" values="0 0 0 0 0 0 0 0 0 0 0 0 0 0 0 0 0 0 127 0" result="hardAlpha"/>
<feOffset/>
<feGaussianBlur stdDeviation="1.5"/>
<feColorMatrix type="matrix" values="0 0 0 0 1 0 0 0 0 1 0 0 0 0 1 0 0 0 1 0"/>
<feBlend mode="normal" in2="BackgroundImageFix" result="effect1_dropShadow_28_1268"/>
<feBlend mode="normal" in="SourceGraphic" in2="effect1_dropShadow_28_1268" result="shape"/>
</filter>
</defs>
</svg>
