<svg width="336" height="158" viewBox="0 0 336 158" fill="none" xmlns="http://www.w3.org/2000/svg">
<g filter="url(#filter0_dddddddi_5_8)">
<path d="M31 66C31 49.1984 31 40.7976 34.2698 34.3803C37.146 28.7354 41.7354 24.146 47.3803 21.2698C53.7976 18 62.1984 18 79 18H257C273.802 18 282.202 18 288.62 21.2698C294.265 24.146 298.854 28.7354 301.73 34.3803C305 40.7976 305 49.1984 305 66C305 82.8016 305 91.2024 301.73 97.6197C298.854 103.265 294.265 107.854 288.62 110.73C282.202 114 273.802 114 257 114H79C62.1984 114 53.7976 114 47.3803 110.73C41.7354 107.854 37.146 103.265 34.2698 97.6197C31 91.2024 31 82.8016 31 66Z" fill="#F9F9FA"/>
<path d="M55 66C55 56.6444 55 51.9667 57.1459 48.5516C58.2648 46.7707 59.7707 45.2648 61.5516 44.1459C64.9667 42 69.6444 42 79 42H127C136.356 42 141.033 42 144.448 44.1459C146.229 45.2648 147.735 46.7707 148.854 48.5516C151 51.9667 151 56.6444 151 66C151 75.3556 151 80.0333 148.854 83.4484C147.735 85.2293 146.229 86.7352 144.448 87.8541C141.033 90 136.356 90 127 90H79C69.6444 90 64.9667 90 61.5516 87.8541C59.7707 86.7352 58.2648 85.2293 57.1459 83.4484C55 80.0333 55 75.3556 55 66Z" fill="#578887"/>
<g filter="url(#filter1_d_5_8)">
<path d="M169.741 58.6816C169.892 61.4854 172.212 63.2578 175.649 63.2578C179.323 63.2578 181.633 61.4424 181.633 58.542C181.633 56.2754 180.312 54.9971 177.132 54.2451L175.424 53.8262C173.426 53.332 172.609 52.6875 172.609 51.5918C172.609 50.2168 173.888 49.2715 175.757 49.2715C177.626 49.2715 178.904 50.2061 179.044 51.7529H181.386C181.311 49.0781 179.065 47.2412 175.789 47.2412C172.48 47.2412 170.149 49.0781 170.149 51.7529C170.149 53.9121 171.471 55.2441 174.317 55.9316L176.326 56.415C178.335 56.9092 179.184 57.6289 179.184 58.832C179.184 60.2178 177.776 61.2275 175.821 61.2275C173.78 61.2275 172.287 60.2178 172.115 58.6816H169.741ZM184.254 48.7129V51.334H182.643V53.1709H184.254V59.9277C184.254 62.1836 185.156 63.0752 187.487 63.0752C187.992 63.0752 188.54 63.0215 188.798 62.957V61.1201C188.647 61.1416 188.25 61.1738 188.003 61.1738C187.025 61.1738 186.574 60.7012 186.574 59.6914V53.1709H188.809V51.334H186.574V48.7129H184.254ZM195.49 63.1396C198.863 63.1396 201.001 60.8408 201.001 57.167C201.001 53.4932 198.853 51.1836 195.49 51.1836C192.128 51.1836 189.969 53.5039 189.969 57.167C189.969 60.8408 192.117 63.1396 195.49 63.1396ZM195.49 61.2061C193.514 61.2061 192.332 59.7129 192.332 57.167C192.332 54.6318 193.514 53.1172 195.49 53.1172C197.467 53.1172 198.638 54.6211 198.638 57.167C198.638 59.7129 197.467 61.2061 195.49 61.2061ZM202.87 63H205.201V56.0391C205.201 54.3955 206.168 53.332 207.704 53.332C208.166 53.332 208.574 53.3965 208.768 53.4717V51.291C208.585 51.248 208.295 51.2158 207.951 51.2158C206.576 51.2158 205.502 52 205.137 53.2998H205.094V51.334H202.87V63ZM210.261 63H212.592V55.8457C212.592 54.3203 213.623 53.2031 215.062 53.2031C216.427 53.2031 217.297 54.0625 217.297 55.416V63H219.585V55.7598C219.585 54.2666 220.595 53.2031 222.023 53.2031C223.474 53.2031 224.301 54.084 224.301 55.6094V63H226.621V55.0508C226.621 52.7197 225.117 51.2051 222.818 51.2051C221.153 51.2051 219.778 52.0645 219.166 53.4717H219.112C218.64 52.0215 217.469 51.2051 215.847 51.2051C214.321 51.2051 213.064 52 212.527 53.3105H212.484V51.334H210.261V63ZM247.611 56.5547V54.9756H241.23V56.9199H245.237V57.1885C245.205 59.541 243.465 61.1523 240.951 61.1523C237.997 61.1523 236.16 58.8643 236.16 55.1582C236.16 51.5166 237.943 49.3467 240.908 49.3467C242.928 49.3467 244.442 50.4531 245.022 52.376H247.493C246.956 49.2822 244.346 47.2412 240.897 47.2412C236.482 47.2412 233.7 50.292 233.7 55.1797C233.7 60.1533 236.493 63.2578 240.93 63.2578C245.13 63.2578 247.611 60.7549 247.611 56.5547ZM249.728 63H252.059V56.0391C252.059 54.3955 253.025 53.332 254.562 53.332C255.023 53.332 255.432 53.3965 255.625 53.4717V51.291C255.442 51.248 255.152 51.2158 254.809 51.2158C253.434 51.2158 252.359 52 251.994 53.2998H251.951V51.334H249.728V63ZM260.932 61.2598C259.589 61.2598 258.719 60.6152 258.719 59.6162C258.719 58.585 259.546 57.9941 261.136 57.8975L263.972 57.7041V58.6172C263.972 60.1533 262.661 61.2598 260.932 61.2598ZM260.309 63.1182C261.898 63.1182 263.349 62.3232 263.993 61.0557H264.047V63H266.271V54.9971C266.271 52.6875 264.434 51.1836 261.587 51.1836C258.966 51.1836 257.011 52.709 256.946 54.7715H259.127C259.331 53.7617 260.255 53.1064 261.522 53.1064C263.08 53.1064 263.972 53.8369 263.972 55.1689V56.0713L260.824 56.2539C257.945 56.4365 256.366 57.6182 256.366 59.6592C256.366 61.7432 257.978 63.1182 260.309 63.1182ZM269.783 67.2432C272.168 67.2432 273.274 66.3408 274.273 63.5371L278.646 51.334H276.196L273.199 60.873H273.146L270.148 51.334H267.646L271.878 63.0322L271.695 63.6338C271.298 64.8691 270.686 65.3418 269.579 65.3418C269.375 65.3418 269.01 65.3311 268.838 65.2881V67.1787C269.021 67.2109 269.59 67.2432 269.783 67.2432Z" fill="#3D3D3D"/>
<path d="M178.102 78.9766L178.336 77.8281H176.695L177.32 74.7266H176.203L175.578 77.8281H173.273L173.891 74.7266H172.773L172.156 77.8281H170.516L170.289 78.9766H171.93L171.414 81.625H169.773L169.531 82.7891H171.172L170.531 86H171.648L172.281 82.7891H174.594L173.953 86H175.07L175.711 82.7891H177.352L177.578 81.625H175.938L176.461 78.9766H178.102ZM173.023 78.9531H175.367L174.836 81.6562H172.5L173.023 78.9531ZM183.742 86.2266C186.031 86.2266 187.586 84.6797 187.586 82.3984C187.586 80.1797 186.133 78.625 184.047 78.625C183.055 78.625 182.25 78.9766 181.695 79.6484H181.57L181.883 75.9688H186.961V74.7266H180.797L180.227 81.0938H181.531C181.977 80.2969 182.812 79.8359 183.82 79.8359C185.266 79.8359 186.242 80.8828 186.242 82.4297C186.242 83.9609 185.273 84.9844 183.82 84.9844C182.5 84.9844 181.492 84.1719 181.367 82.9922H180.039C180.156 84.9297 181.641 86.2266 183.742 86.2266ZM191.023 86H192.492L197.547 76V74.7266H190.023V75.9609H196.141V76.0625L191.023 86ZM203.656 86.25C206 86.25 207.625 84.9062 207.625 82.9844C207.625 81.5625 206.695 80.3984 205.328 80.1094V79.9844C206.477 79.6641 207.172 78.7031 207.172 77.4766C207.172 75.7188 205.711 74.4766 203.656 74.4766C201.602 74.4766 200.133 75.7188 200.133 77.4766C200.133 78.7031 200.844 79.6719 201.977 79.9844V80.1094C200.586 80.4453 199.68 81.5859 199.68 82.9844C199.68 84.9062 201.312 86.25 203.656 86.25ZM203.656 79.5156C202.352 79.5156 201.484 78.75 201.484 77.5938C201.484 76.4453 202.352 75.6797 203.656 75.6797C204.961 75.6797 205.82 76.4453 205.82 77.5938C205.82 78.75 204.961 79.5156 203.656 79.5156ZM203.656 85.0547C202.125 85.0547 201.07 84.1641 201.07 82.875C201.07 81.5859 202.125 80.6953 203.656 80.6953C205.188 80.6953 206.242 81.5859 206.242 82.875C206.242 84.1641 205.188 85.0547 203.656 85.0547ZM213.547 86.25C215.891 86.25 217.516 84.9062 217.516 82.9844C217.516 81.5625 216.586 80.3984 215.219 80.1094V79.9844C216.367 79.6641 217.062 78.7031 217.062 77.4766C217.062 75.7188 215.602 74.4766 213.547 74.4766C211.492 74.4766 210.023 75.7188 210.023 77.4766C210.023 78.7031 210.734 79.6719 211.867 79.9844V80.1094C210.477 80.4453 209.57 81.5859 209.57 82.9844C209.57 84.9062 211.203 86.25 213.547 86.25ZM213.547 79.5156C212.242 79.5156 211.375 78.75 211.375 77.5938C211.375 76.4453 212.242 75.6797 213.547 75.6797C214.852 75.6797 215.711 76.4453 215.711 77.5938C215.711 78.75 214.852 79.5156 213.547 79.5156ZM213.547 85.0547C212.016 85.0547 210.961 84.1641 210.961 82.875C210.961 81.5859 212.016 80.6953 213.547 80.6953C215.078 80.6953 216.133 81.5859 216.133 82.875C216.133 84.1641 215.078 85.0547 213.547 85.0547ZM223.438 86.25C225.781 86.25 227.406 84.9062 227.406 82.9844C227.406 81.5625 226.477 80.3984 225.109 80.1094V79.9844C226.258 79.6641 226.953 78.7031 226.953 77.4766C226.953 75.7188 225.492 74.4766 223.438 74.4766C221.383 74.4766 219.914 75.7188 219.914 77.4766C219.914 78.7031 220.625 79.6719 221.758 79.9844V80.1094C220.367 80.4453 219.461 81.5859 219.461 82.9844C219.461 84.9062 221.094 86.25 223.438 86.25ZM223.438 79.5156C222.133 79.5156 221.266 78.75 221.266 77.5938C221.266 76.4453 222.133 75.6797 223.438 75.6797C224.742 75.6797 225.602 76.4453 225.602 77.5938C225.602 78.75 224.742 79.5156 223.438 79.5156ZM223.438 85.0547C221.906 85.0547 220.852 84.1641 220.852 82.875C220.852 81.5859 221.906 80.6953 223.438 80.6953C224.969 80.6953 226.023 81.5859 226.023 82.875C226.023 84.1641 224.969 85.0547 223.438 85.0547ZM230.586 86H232.055L237.109 76V74.7266H229.586V75.9609H235.703V76.0625L230.586 86Z" fill="#727272"/>
</g>
</g>
<defs>
<filter id="filter0_dddddddi_5_8" x="0" y="0" width="336" height="158" filterUnits="userSpaceOnUse" color-interpolation-filters="sRGB">
<feFlood flood-opacity="0" result="BackgroundImageFix"/>
<feColorMatrix in="SourceAlpha" type="matrix" values="0 0 0 0 0 0 0 0 0 0 0 0 0 0 0 0 0 0 127 0" result="hardAlpha"/>
<feOffset dy="0.56875"/>
<feGaussianBlur stdDeviation="0.896094"/>
<feColorMatrix type="matrix" values="0 0 0 0 0.0470588 0 0 0 0 0.0784314 0 0 0 0 0.129412 0 0 0 0.013 0"/>
<feBlend mode="normal" in2="BackgroundImageFix" result="effect1_dropShadow_5_8"/>
<feColorMatrix in="SourceAlpha" type="matrix" values="0 0 0 0 0 0 0 0 0 0 0 0 0 0 0 0 0 0 127 0" result="hardAlpha"/>
<feOffset dy="1.37109"/>
<feGaussianBlur stdDeviation="1.49854"/>
<feColorMatrix type="matrix" values="0 0 0 0 0.0470588 0 0 0 0 0.0784314 0 0 0 0 0.129412 0 0 0 0.016875 0"/>
<feBlend mode="normal" in2="effect1_dropShadow_5_8" result="effect2_dropShadow_5_8"/>
<feColorMatrix in="SourceAlpha" type="matrix" values="0 0 0 0 0 0 0 0 0 0 0 0 0 0 0 0 0 0 127 0" result="hardAlpha"/>
<feOffset dy="2.6"/>
<feGaussianBlur stdDeviation="2.51875"/>
<feColorMatrix type="matrix" values="0 0 0 0 0.0470588 0 0 0 0 0.0784314 0 0 0 0 0.129412 0 0 0 0.02 0"/>
<feBlend mode="normal" in2="effect2_dropShadow_5_8" result="effect3_dropShadow_5_8"/>
<feColorMatrix in="SourceAlpha" type="matrix" values="0 0 0 0 0 0 0 0 0 0 0 0 0 0 0 0 0 0 127 0" result="hardAlpha"/>
<feOffset dy="4.31641"/>
<feGaussianBlur stdDeviation="4.19287"/>
<feColorMatrix type="matrix" values="0 0 0 0 0.0470588 0 0 0 0 0.0784314 0 0 0 0 0.129412 0 0 0 0.023125 0"/>
<feBlend mode="normal" in2="effect3_dropShadow_5_8" result="effect4_dropShadow_5_8"/>
<feColorMatrix in="SourceAlpha" type="matrix" values="0 0 0 0 0 0 0 0 0 0 0 0 0 0 0 0 0 0 127 0" result="hardAlpha"/>
<feOffset dy="6.58125"/>
<feGaussianBlur stdDeviation="6.75703"/>
<feColorMatrix type="matrix" values="0 0 0 0 0.0470588 0 0 0 0 0.0784314 0 0 0 0 0.129412 0 0 0 0.027 0"/>
<feBlend mode="normal" in2="effect4_dropShadow_5_8" result="effect5_dropShadow_5_8"/>
<feColorMatrix in="SourceAlpha" type="matrix" values="0 0 0 0 0 0 0 0 0 0 0 0 0 0 0 0 0 0 127 0" result="hardAlpha"/>
<feOffset dy="9.45547"/>
<feGaussianBlur stdDeviation="10.4474"/>
<feColorMatrix type="matrix" values="0 0 0 0 0.0470588 0 0 0 0 0.0784314 0 0 0 0 0.129412 0 0 0 0.032375 0"/>
<feBlend mode="normal" in2="effect5_dropShadow_5_8" result="effect6_dropShadow_5_8"/>
<feColorMatrix in="SourceAlpha" type="matrix" values="0 0 0 0 0 0 0 0 0 0 0 0 0 0 0 0 0 0 127 0" result="hardAlpha"/>
<feOffset dy="13"/>
<feGaussianBlur stdDeviation="15.5"/>
<feColorMatrix type="matrix" values="0 0 0 0 0.0468229 0 0 0 0 0.0797604 0 0 0 0 0.129167 0 0 0 0.04 0"/>
<feBlend mode="normal" in2="effect6_dropShadow_5_8" result="effect7_dropShadow_5_8"/>
<feBlend mode="normal" in="SourceGraphic" in2="effect7_dropShadow_5_8" result="shape"/>
<feColorMatrix in="SourceAlpha" type="matrix" values="0 0 0 0 0 0 0 0 0 0 0 0 0 0 0 0 0 0 127 0" result="hardAlpha"/>
<feOffset dy="2"/>
<feGaussianBlur stdDeviation="0.5"/>
<feComposite in2="hardAlpha" operator="arithmetic" k2="-1" k3="1"/>
<feColorMatrix type="matrix" values="0 0 0 0 1 0 0 0 0 1 0 0 0 0 1 0 0 0 1 0"/>
<feBlend mode="normal" in2="shape" result="effect8_innerShadow_5_8"/>
</filter>
<filter id="filter1_d_5_8" x="164" y="39" width="120" height="54" filterUnits="userSpaceOnUse" color-interpolation-filters="sRGB">
<feFlood flood-opacity="0" result="BackgroundImageFix"/>
<feColorMatrix in="SourceAlpha" type="matrix" values="0 0 0 0 0 0 0 0 0 0 0 0 0 0 0 0 0 0 127 0" result="hardAlpha"/>
<feOffset/>
<feGaussianBlur stdDeviation="1.5"/>
<feColorMatrix type="matrix" values="0 0 0 0 1 0 0 0 0 1 0 0 0 0 1 0 0 0 1 0"/>
<feBlend mode="normal" in2="BackgroundImageFix" result="effect1_dropShadow_5_8"/>
<feBlend mode="normal" in="SourceGraphic" in2="effect1_dropShadow_5_8" result="shape"/>
</filter>
</defs>
</svg>
