<svg width="296" height="158" viewBox="0 0 296 158" fill="none" xmlns="http://www.w3.org/2000/svg">
<g filter="url(#filter0_dddddddi_5_32)">
<path d="M31 66C31 49.1984 31 40.7976 34.2698 34.3803C37.146 28.7354 41.7354 24.146 47.3803 21.2698C53.7976 18 62.1984 18 79 18H217C233.802 18 242.202 18 248.62 21.2698C254.265 24.146 258.854 28.7354 261.73 34.3803C265 40.7976 265 49.1984 265 66C265 82.8016 265 91.2024 261.73 97.6197C258.854 103.265 254.265 107.854 248.62 110.73C242.202 114 233.802 114 217 114H79C62.1984 114 53.7976 114 47.3803 110.73C41.7354 107.854 37.146 103.265 34.2698 97.6197C31 91.2024 31 82.8016 31 66Z" fill="#F9F9FA"/>
<path d="M55 66C55 56.6444 55 51.9667 57.1459 48.5516C58.2648 46.7707 59.7707 45.2648 61.5516 44.1459C64.9667 42 69.6444 42 79 42H127C136.356 42 141.033 42 144.448 44.1459C146.229 45.2648 147.735 46.7707 148.854 48.5516C151 51.9667 151 56.6444 151 66C151 75.3556 151 80.0333 148.854 83.4484C147.735 85.2293 146.229 86.7352 144.448 87.8541C141.033 90 136.356 90 127 90H79C69.6444 90 64.9667 90 61.5516 87.8541C59.7707 86.7352 58.2648 85.2293 57.1459 83.4484C55 80.0333 55 75.3556 55 66Z" fill="#FD4154"/>
<g filter="url(#filter1_d_5_32)">
<path d="M170.429 47.499V63H172.835V57.7041H176.423C179.463 57.7041 181.611 55.6201 181.611 52.5908C181.611 49.5723 179.506 47.499 176.498 47.499H170.429ZM172.835 49.5293H175.864C177.959 49.5293 179.151 50.6465 179.151 52.6016C179.151 54.5566 177.948 55.6846 175.864 55.6846H172.835V49.5293ZM183.577 63H185.908V51.334H183.577V63ZM184.748 49.6689C185.5 49.6689 186.112 49.0674 186.112 48.3262C186.112 47.5635 185.5 46.9834 184.748 46.9834C183.996 46.9834 183.384 47.5635 183.384 48.3262C183.384 49.0674 183.996 49.6689 184.748 49.6689ZM188.39 63H190.721V56.2646C190.721 54.4277 191.773 53.2031 193.535 53.2031C195.243 53.2031 196.06 54.1914 196.06 55.9639V63H198.391V55.5234C198.391 52.8379 196.919 51.2051 194.341 51.2051C192.536 51.2051 191.365 51.9248 190.656 53.2998H190.613V51.334H188.39V63ZM203.16 56.3721H203.149V46.8008H200.818V63H203.149V58.7676L204.159 57.7793L208.188 63H210.873L205.824 56.3613L210.701 51.334H207.962L203.16 56.3721Z" fill="#3D3D3D"/>
<path d="M178.102 78.9766L178.336 77.8281H176.695L177.32 74.7266H176.203L175.578 77.8281H173.273L173.891 74.7266H172.773L172.156 77.8281H170.516L170.289 78.9766H171.93L171.414 81.625H169.773L169.531 82.7891H171.172L170.531 86H171.648L172.281 82.7891H174.594L173.953 86H175.07L175.711 82.7891H177.352L177.578 81.625H175.938L176.461 78.9766H178.102ZM173.023 78.9531H175.367L174.836 81.6562H172.5L173.023 78.9531ZM182.258 86V81.0859H187.07V79.8594H182.258V75.9922H187.523V74.7266H180.875V86H182.258ZM190.031 74.7266V86H193.188C196.383 86 197.992 84.1094 197.992 80.3438C197.992 76.6094 196.383 74.7266 193.188 74.7266H190.031ZM191.414 75.9922H193.062C195.445 75.9922 196.586 77.3984 196.586 80.3516C196.586 83.3359 195.453 84.7344 193.062 84.7344H191.414V75.9922ZM204.938 86H206.195V83.6172H207.922V82.4062H206.203V79.2031H204.953V82.4219H201.258V82.3203L205.031 74.7266H203.625L199.797 82.5V83.6172H204.938V86ZM217.766 86V84.7891H214.594V74.7266H213.242L209.883 76.9062V78.375L213.109 76.2891H213.234V84.7891H209.906V86H217.766ZM223.305 86.2266C225.594 86.2266 227.148 84.6797 227.148 82.3984C227.148 80.1797 225.695 78.625 223.609 78.625C222.617 78.625 221.812 78.9766 221.258 79.6484H221.133L221.445 75.9688H226.523V74.7266H220.359L219.789 81.0938H221.094C221.539 80.2969 222.375 79.8359 223.383 79.8359C224.828 79.8359 225.805 80.8828 225.805 82.4297C225.805 83.9609 224.836 84.9844 223.383 84.9844C222.062 84.9844 221.055 84.1719 220.93 82.9922H219.602C219.719 84.9297 221.203 86.2266 223.305 86.2266ZM234.609 86H235.867V83.6172H237.594V82.4062H235.875V79.2031H234.625V82.4219H230.93V82.3203L234.703 74.7266H233.297L229.469 82.5V83.6172H234.609V86Z" fill="#727272"/>
</g>
</g>
<defs>
<filter id="filter0_dddddddi_5_32" x="0" y="0" width="296" height="158" filterUnits="userSpaceOnUse" color-interpolation-filters="sRGB">
<feFlood flood-opacity="0" result="BackgroundImageFix"/>
<feColorMatrix in="SourceAlpha" type="matrix" values="0 0 0 0 0 0 0 0 0 0 0 0 0 0 0 0 0 0 127 0" result="hardAlpha"/>
<feOffset dy="0.56875"/>
<feGaussianBlur stdDeviation="0.896094"/>
<feColorMatrix type="matrix" values="0 0 0 0 0.0470588 0 0 0 0 0.0784314 0 0 0 0 0.129412 0 0 0 0.013 0"/>
<feBlend mode="normal" in2="BackgroundImageFix" result="effect1_dropShadow_5_32"/>
<feColorMatrix in="SourceAlpha" type="matrix" values="0 0 0 0 0 0 0 0 0 0 0 0 0 0 0 0 0 0 127 0" result="hardAlpha"/>
<feOffset dy="1.37109"/>
<feGaussianBlur stdDeviation="1.49854"/>
<feColorMatrix type="matrix" values="0 0 0 0 0.0470588 0 0 0 0 0.0784314 0 0 0 0 0.129412 0 0 0 0.016875 0"/>
<feBlend mode="normal" in2="effect1_dropShadow_5_32" result="effect2_dropShadow_5_32"/>
<feColorMatrix in="SourceAlpha" type="matrix" values="0 0 0 0 0 0 0 0 0 0 0 0 0 0 0 0 0 0 127 0" result="hardAlpha"/>
<feOffset dy="2.6"/>
<feGaussianBlur stdDeviation="2.51875"/>
<feColorMatrix type="matrix" values="0 0 0 0 0.0470588 0 0 0 0 0.0784314 0 0 0 0 0.129412 0 0 0 0.02 0"/>
<feBlend mode="normal" in2="effect2_dropShadow_5_32" result="effect3_dropShadow_5_32"/>
<feColorMatrix in="SourceAlpha" type="matrix" values="0 0 0 0 0 0 0 0 0 0 0 0 0 0 0 0 0 0 127 0" result="hardAlpha"/>
<feOffset dy="4.31641"/>
<feGaussianBlur stdDeviation="4.19287"/>
<feColorMatrix type="matrix" values="0 0 0 0 0.0470588 0 0 0 0 0.0784314 0 0 0 0 0.129412 0 0 0 0.023125 0"/>
<feBlend mode="normal" in2="effect3_dropShadow_5_32" result="effect4_dropShadow_5_32"/>
<feColorMatrix in="SourceAlpha" type="matrix" values="0 0 0 0 0 0 0 0 0 0 0 0 0 0 0 0 0 0 127 0" result="hardAlpha"/>
<feOffset dy="6.58125"/>
<feGaussianBlur stdDeviation="6.75703"/>
<feColorMatrix type="matrix" values="0 0 0 0 0.0470588 0 0 0 0 0.0784314 0 0 0 0 0.129412 0 0 0 0.027 0"/>
<feBlend mode="normal" in2="effect4_dropShadow_5_32" result="effect5_dropShadow_5_32"/>
<feColorMatrix in="SourceAlpha" type="matrix" values="0 0 0 0 0 0 0 0 0 0 0 0 0 0 0 0 0 0 127 0" result="hardAlpha"/>
<feOffset dy="9.45547"/>
<feGaussianBlur stdDeviation="10.4474"/>
<feColorMatrix type="matrix" values="0 0 0 0 0.0470588 0 0 0 0 0.0784314 0 0 0 0 0.129412 0 0 0 0.032375 0"/>
<feBlend mode="normal" in2="effect5_dropShadow_5_32" result="effect6_dropShadow_5_32"/>
<feColorMatrix in="SourceAlpha" type="matrix" values="0 0 0 0 0 0 0 0 0 0 0 0 0 0 0 0 0 0 127 0" result="hardAlpha"/>
<feOffset dy="13"/>
<feGaussianBlur stdDeviation="15.5"/>
<feColorMatrix type="matrix" values="0 0 0 0 0.0468229 0 0 0 0 0.0797604 0 0 0 0 0.129167 0 0 0 0.04 0"/>
<feBlend mode="normal" in2="effect6_dropShadow_5_32" result="effect7_dropShadow_5_32"/>
<feBlend mode="normal" in="SourceGraphic" in2="effect7_dropShadow_5_32" result="shape"/>
<feColorMatrix in="SourceAlpha" type="matrix" values="0 0 0 0 0 0 0 0 0 0 0 0 0 0 0 0 0 0 127 0" result="hardAlpha"/>
<feOffset dy="2"/>
<feGaussianBlur stdDeviation="0.5"/>
<feComposite in2="hardAlpha" operator="arithmetic" k2="-1" k3="1"/>
<feColorMatrix type="matrix" values="0 0 0 0 1 0 0 0 0 1 0 0 0 0 1 0 0 0 1 0"/>
<feBlend mode="normal" in2="shape" result="effect8_innerShadow_5_32"/>
</filter>
<filter id="filter1_d_5_32" x="164" y="39" width="80" height="54" filterUnits="userSpaceOnUse" color-interpolation-filters="sRGB">
<feFlood flood-opacity="0" result="BackgroundImageFix"/>
<feColorMatrix in="SourceAlpha" type="matrix" values="0 0 0 0 0 0 0 0 0 0 0 0 0 0 0 0 0 0 127 0" result="hardAlpha"/>
<feOffset/>
<feGaussianBlur stdDeviation="1.5"/>
<feColorMatrix type="matrix" values="0 0 0 0 1 0 0 0 0 1 0 0 0 0 1 0 0 0 1 0"/>
<feBlend mode="normal" in2="BackgroundImageFix" result="effect1_dropShadow_5_32"/>
<feBlend mode="normal" in="SourceGraphic" in2="effect1_dropShadow_5_32" result="shape"/>
</filter>
</defs>
</svg>
