<svg width="316" height="158" viewBox="0 0 316 158" fill="none" xmlns="http://www.w3.org/2000/svg">
<g filter="url(#filter0_dddddddi_5_15)">
<path d="M31 66C31 49.1984 31 40.7976 34.2698 34.3803C37.146 28.7354 41.7354 24.146 47.3803 21.2698C53.7976 18 62.1984 18 79 18H237C253.802 18 262.202 18 268.62 21.2698C274.265 24.146 278.854 28.7354 281.73 34.3803C285 40.7976 285 49.1984 285 66C285 82.8016 285 91.2024 281.73 97.6197C278.854 103.265 274.265 107.854 268.62 110.73C262.202 114 253.802 114 237 114H79C62.1984 114 53.7976 114 47.3803 110.73C41.7354 107.854 37.146 103.265 34.2698 97.6197C31 91.2024 31 82.8016 31 66Z" fill="#F9F9FA"/>
<rect x="55" y="42" width="96" height="48" rx="14" fill="#A7AB99"/>
<g filter="url(#filter1_d_5_15)">
<path d="M186.112 47.499H183.319L178.313 59.7344H178.228L173.211 47.499H170.429V63H172.62V51.5918H172.695L177.379 62.8818H179.162L183.835 51.5918H183.91V63H186.112V47.499ZM188.819 63H191.15V51.334H188.819V63ZM189.99 49.6689C190.742 49.6689 191.354 49.0674 191.354 48.3262C191.354 47.5635 190.742 46.9834 189.99 46.9834C189.238 46.9834 188.626 47.5635 188.626 48.3262C188.626 49.0674 189.238 49.6689 189.99 49.6689ZM193.438 54.6533C193.438 56.2646 194.48 57.3389 196.586 57.8545L198.67 58.3701C199.895 58.6816 200.356 59.0684 200.356 59.8096C200.356 60.7549 199.443 61.3564 197.993 61.3564C196.511 61.3564 195.608 60.7441 195.426 59.627H193.127C193.299 61.7324 195.157 63.1396 197.875 63.1396C200.7 63.1396 202.677 61.7002 202.677 59.6162C202.677 57.8975 201.807 57.0488 199.454 56.4795L197.521 56.0176C196.285 55.7168 195.705 55.2334 195.705 54.5244C195.705 53.6006 196.586 52.9883 197.907 52.9883C199.239 52.9883 200.131 53.6328 200.228 54.6641H202.419C202.365 52.6338 200.518 51.1943 197.961 51.1943C195.275 51.1943 193.438 52.6016 193.438 54.6533ZM205.266 48.7129V51.334H203.654V53.1709H205.266V59.9277C205.266 62.1836 206.168 63.0752 208.499 63.0752C209.004 63.0752 209.552 63.0215 209.81 62.957V61.1201C209.659 61.1416 209.262 61.1738 209.015 61.1738C208.037 61.1738 207.586 60.7012 207.586 59.6914V53.1709H209.82V51.334H207.586V48.7129H205.266ZM223.463 63C226.771 63 228.759 61.3457 228.759 58.6172C228.759 56.5547 227.33 55.0615 225.235 54.8252V54.7393C226.782 54.4814 227.985 53.0098 227.985 51.3662C227.985 49.0244 226.181 47.499 223.441 47.499H217.093V63H223.463ZM219.499 49.4648H222.851C224.602 49.4648 225.59 50.2598 225.59 51.6992C225.59 53.2354 224.44 54.0947 222.346 54.0947H219.499V49.4648ZM219.499 61.0342V55.9316H222.84C225.106 55.9316 226.299 56.791 226.299 58.4668C226.299 60.1426 225.149 61.0342 222.979 61.0342H219.499ZM230.703 63H233.034V46.8008H230.703V63ZM245.474 51.334H243.143V58.0586C243.143 59.9062 242.079 61.1201 240.339 61.1201C238.652 61.1201 237.804 60.1641 237.804 58.3701V51.334H235.473V58.8105C235.473 61.4854 237.02 63.1289 239.565 63.1289C241.349 63.1289 242.53 62.3877 243.207 61.002H243.25V63H245.474V51.334ZM252.714 53.085C254.411 53.085 255.561 54.2881 255.614 56.1035H249.695C249.824 54.3096 251.038 53.085 252.714 53.085ZM255.604 59.584C255.281 60.6045 254.218 61.249 252.864 61.249C250.952 61.249 249.685 59.917 249.685 57.8975V57.7578H257.945V56.9414C257.945 53.4072 255.926 51.1836 252.725 51.1836C249.459 51.1836 247.332 53.5576 247.332 57.21C247.332 60.8623 249.438 63.1396 252.821 63.1396C255.442 63.1396 257.494 61.6787 257.827 59.584H255.604Z" fill="#3D3D3D"/>
<path d="M178.102 78.9766L178.336 77.8281H176.695L177.32 74.7266H176.203L175.578 77.8281H173.273L173.891 74.7266H172.773L172.156 77.8281H170.516L170.289 78.9766H171.93L171.414 81.625H169.773L169.531 82.7891H171.172L170.531 86H171.648L172.281 82.7891H174.594L173.953 86H175.07L175.711 82.7891H177.352L177.578 81.625H175.938L176.461 78.9766H178.102ZM173.023 78.9531H175.367L174.836 81.6562H172.5L173.023 78.9531ZM186.75 86H188.203L184.57 74.7266H183.102L179.469 86H180.867L181.852 82.7656H185.773L186.75 86ZM183.797 76.3828H183.836L185.414 81.5859H182.211L183.797 76.3828ZM191.023 86H192.492L197.547 76V74.7266H190.023V75.9609H196.141V76.0625L191.023 86ZM206.531 86H207.984L204.352 74.7266H202.883L199.25 86H200.648L201.633 82.7656H205.555L206.531 86ZM203.578 76.3828H203.617L205.195 81.5859H201.992L203.578 76.3828ZM213.719 86C216.141 86 217.578 84.8281 217.578 82.8516C217.578 81.3438 216.586 80.2422 215.07 80.0938V79.9766C216.203 79.7812 217.008 78.7578 217.008 77.5156C217.008 75.7656 215.758 74.7266 213.68 74.7266H210.031V86H213.719ZM211.398 75.9141H213.367C214.805 75.9141 215.617 76.5781 215.617 77.7578C215.617 78.9453 214.758 79.5938 213.156 79.5938H211.398V75.9141ZM211.398 84.8047V80.7422H213.375C215.203 80.7422 216.148 81.4297 216.148 82.7578C216.148 84.1016 215.211 84.8047 213.422 84.8047H211.398ZM219.547 78.3438C219.547 80.4062 221.023 81.9219 223.039 81.9219C223.75 81.9219 224.547 81.5859 224.883 81.1328L225 81.1953C224.93 81.3203 224.875 81.4219 224.617 81.7734L221.547 86H223.125C223.211 85.8828 225.547 82.6016 225.648 82.4297C226.758 80.8203 227.211 79.625 227.211 78.3438C227.211 76.0938 225.609 74.4922 223.383 74.4922C221.156 74.4922 219.547 76.1094 219.547 78.3438ZM223.375 75.7188C224.797 75.7188 225.875 76.8281 225.875 78.2734C225.875 79.7266 224.797 80.8359 223.375 80.8359C221.961 80.8359 220.883 79.7266 220.883 78.2734C220.883 76.8281 221.961 75.7188 223.375 75.7188ZM229.438 78.3438C229.438 80.4062 230.914 81.9219 232.93 81.9219C233.641 81.9219 234.438 81.5859 234.773 81.1328L234.891 81.1953C234.82 81.3203 234.766 81.4219 234.508 81.7734L231.438 86H233.016C233.102 85.8828 235.438 82.6016 235.539 82.4297C236.648 80.8203 237.102 79.625 237.102 78.3438C237.102 76.0938 235.5 74.4922 233.273 74.4922C231.047 74.4922 229.438 76.1094 229.438 78.3438ZM233.266 75.7188C234.688 75.7188 235.766 76.8281 235.766 78.2734C235.766 79.7266 234.688 80.8359 233.266 80.8359C231.852 80.8359 230.773 79.7266 230.773 78.2734C230.773 76.8281 231.852 75.7188 233.266 75.7188Z" fill="#727272"/>
</g>
</g>
<defs>
<filter id="filter0_dddddddi_5_15" x="0" y="0" width="316" height="158" filterUnits="userSpaceOnUse" color-interpolation-filters="sRGB">
<feFlood flood-opacity="0" result="BackgroundImageFix"/>
<feColorMatrix in="SourceAlpha" type="matrix" values="0 0 0 0 0 0 0 0 0 0 0 0 0 0 0 0 0 0 127 0" result="hardAlpha"/>
<feOffset dy="0.56875"/>
<feGaussianBlur stdDeviation="0.896094"/>
<feColorMatrix type="matrix" values="0 0 0 0 0.0470588 0 0 0 0 0.0784314 0 0 0 0 0.129412 0 0 0 0.013 0"/>
<feBlend mode="normal" in2="BackgroundImageFix" result="effect1_dropShadow_5_15"/>
<feColorMatrix in="SourceAlpha" type="matrix" values="0 0 0 0 0 0 0 0 0 0 0 0 0 0 0 0 0 0 127 0" result="hardAlpha"/>
<feOffset dy="1.37109"/>
<feGaussianBlur stdDeviation="1.49854"/>
<feColorMatrix type="matrix" values="0 0 0 0 0.0470588 0 0 0 0 0.0784314 0 0 0 0 0.129412 0 0 0 0.016875 0"/>
<feBlend mode="normal" in2="effect1_dropShadow_5_15" result="effect2_dropShadow_5_15"/>
<feColorMatrix in="SourceAlpha" type="matrix" values="0 0 0 0 0 0 0 0 0 0 0 0 0 0 0 0 0 0 127 0" result="hardAlpha"/>
<feOffset dy="2.6"/>
<feGaussianBlur stdDeviation="2.51875"/>
<feColorMatrix type="matrix" values="0 0 0 0 0.0470588 0 0 0 0 0.0784314 0 0 0 0 0.129412 0 0 0 0.02 0"/>
<feBlend mode="normal" in2="effect2_dropShadow_5_15" result="effect3_dropShadow_5_15"/>
<feColorMatrix in="SourceAlpha" type="matrix" values="0 0 0 0 0 0 0 0 0 0 0 0 0 0 0 0 0 0 127 0" result="hardAlpha"/>
<feOffset dy="4.31641"/>
<feGaussianBlur stdDeviation="4.19287"/>
<feColorMatrix type="matrix" values="0 0 0 0 0.0470588 0 0 0 0 0.0784314 0 0 0 0 0.129412 0 0 0 0.023125 0"/>
<feBlend mode="normal" in2="effect3_dropShadow_5_15" result="effect4_dropShadow_5_15"/>
<feColorMatrix in="SourceAlpha" type="matrix" values="0 0 0 0 0 0 0 0 0 0 0 0 0 0 0 0 0 0 127 0" result="hardAlpha"/>
<feOffset dy="6.58125"/>
<feGaussianBlur stdDeviation="6.75703"/>
<feColorMatrix type="matrix" values="0 0 0 0 0.0470588 0 0 0 0 0.0784314 0 0 0 0 0.129412 0 0 0 0.027 0"/>
<feBlend mode="normal" in2="effect4_dropShadow_5_15" result="effect5_dropShadow_5_15"/>
<feColorMatrix in="SourceAlpha" type="matrix" values="0 0 0 0 0 0 0 0 0 0 0 0 0 0 0 0 0 0 127 0" result="hardAlpha"/>
<feOffset dy="9.45547"/>
<feGaussianBlur stdDeviation="10.4474"/>
<feColorMatrix type="matrix" values="0 0 0 0 0.0470588 0 0 0 0 0.0784314 0 0 0 0 0.129412 0 0 0 0.032375 0"/>
<feBlend mode="normal" in2="effect5_dropShadow_5_15" result="effect6_dropShadow_5_15"/>
<feColorMatrix in="SourceAlpha" type="matrix" values="0 0 0 0 0 0 0 0 0 0 0 0 0 0 0 0 0 0 127 0" result="hardAlpha"/>
<feOffset dy="13"/>
<feGaussianBlur stdDeviation="15.5"/>
<feColorMatrix type="matrix" values="0 0 0 0 0.0468229 0 0 0 0 0.0797604 0 0 0 0 0.129167 0 0 0 0.04 0"/>
<feBlend mode="normal" in2="effect6_dropShadow_5_15" result="effect7_dropShadow_5_15"/>
<feBlend mode="normal" in="SourceGraphic" in2="effect7_dropShadow_5_15" result="shape"/>
<feColorMatrix in="SourceAlpha" type="matrix" values="0 0 0 0 0 0 0 0 0 0 0 0 0 0 0 0 0 0 127 0" result="hardAlpha"/>
<feOffset dy="2"/>
<feGaussianBlur stdDeviation="0.5"/>
<feComposite in2="hardAlpha" operator="arithmetic" k2="-1" k3="1"/>
<feColorMatrix type="matrix" values="0 0 0 0 1 0 0 0 0 1 0 0 0 0 1 0 0 0 1 0"/>
<feBlend mode="normal" in2="shape" result="effect8_innerShadow_5_15"/>
</filter>
<filter id="filter1_d_5_15" x="164" y="39" width="100" height="54" filterUnits="userSpaceOnUse" color-interpolation-filters="sRGB">
<feFlood flood-opacity="0" result="BackgroundImageFix"/>
<feColorMatrix in="SourceAlpha" type="matrix" values="0 0 0 0 0 0 0 0 0 0 0 0 0 0 0 0 0 0 127 0" result="hardAlpha"/>
<feOffset/>
<feGaussianBlur stdDeviation="1.5"/>
<feColorMatrix type="matrix" values="0 0 0 0 1 0 0 0 0 1 0 0 0 0 1 0 0 0 1 0"/>
<feBlend mode="normal" in2="BackgroundImageFix" result="effect1_dropShadow_5_15"/>
<feBlend mode="normal" in="SourceGraphic" in2="effect1_dropShadow_5_15" result="shape"/>
</filter>
</defs>
</svg>
