<svg width="296" height="158" viewBox="0 0 296 158" fill="none" xmlns="http://www.w3.org/2000/svg">
<g filter="url(#filter0_dddddddi_28_1273)">
<path d="M31 66C31 49.1984 31 40.7976 34.2698 34.3803C37.146 28.7354 41.7354 24.146 47.3803 21.2698C53.7976 18 62.1984 18 79 18H217C233.802 18 242.202 18 248.62 21.2698C254.265 24.146 258.854 28.7354 261.73 34.3803C265 40.7976 265 49.1984 265 66C265 82.8016 265 91.2024 261.73 97.6197C258.854 103.265 254.265 107.854 248.62 110.73C242.202 114 233.802 114 217 114H79C62.1984 114 53.7976 114 47.3803 110.73C41.7354 107.854 37.146 103.265 34.2698 97.6197C31 91.2024 31 82.8016 31 66Z" fill="#F9F9FA"/>
<path d="M55 66C55 56.6444 55 51.9667 57.1459 48.5516C58.2648 46.7707 59.7707 45.2648 61.5516 44.1459C64.9667 42 69.6444 42 79 42H127C136.356 42 141.033 42 144.448 44.1459C146.229 45.2648 147.735 46.7707 148.854 48.5516C151 51.9667 151 56.6444 151 66C151 75.3556 151 80.0333 148.854 83.4484C147.735 85.2293 146.229 86.7352 144.448 87.8541C141.033 90 136.356 90 127 90H79C69.6444 90 64.9667 90 61.5516 87.8541C59.7707 86.7352 58.2648 85.2293 57.1459 83.4484C55 80.0333 55 75.3556 55 66Z" fill="#8B7D7D"/>
<g filter="url(#filter1_d_28_1273)">
<path d="M176.971 63.2578C180.537 63.2578 182.965 61.3779 183.556 58.1768H181.16C180.677 60.0459 179.141 61.1523 176.981 61.1523C174.135 61.1523 172.33 58.8643 172.33 55.2441C172.33 51.6562 174.156 49.3467 176.971 49.3467C179.076 49.3467 180.73 50.6465 181.16 52.6338H183.545C183.137 49.4004 180.483 47.2412 176.971 47.2412C172.642 47.2412 169.87 50.335 169.87 55.2441C169.87 60.1855 172.62 63.2578 176.971 63.2578ZM190.484 63.1396C193.857 63.1396 195.995 60.8408 195.995 57.167C195.995 53.4932 193.847 51.1836 190.484 51.1836C187.122 51.1836 184.963 53.5039 184.963 57.167C184.963 60.8408 187.111 63.1396 190.484 63.1396ZM190.484 61.2061C188.508 61.2061 187.326 59.7129 187.326 57.167C187.326 54.6318 188.508 53.1172 190.484 53.1172C192.461 53.1172 193.632 54.6211 193.632 57.167C193.632 59.7129 192.461 61.2061 190.484 61.2061ZM207.833 55.3193C207.629 53.0742 205.781 51.1836 202.806 51.1836C199.508 51.1836 197.338 53.5361 197.338 57.167C197.338 60.8623 199.519 63.1396 202.827 63.1396C205.631 63.1396 207.586 61.5176 207.854 59.0791H205.631C205.352 60.4434 204.353 61.1846 202.838 61.1846C200.969 61.1846 199.701 59.6807 199.701 57.167C199.701 54.7178 200.947 53.1494 202.827 53.1494C204.428 53.1494 205.395 54.084 205.609 55.3193H207.833ZM214.568 63.1396C217.941 63.1396 220.079 60.8408 220.079 57.167C220.079 53.4932 217.931 51.1836 214.568 51.1836C211.206 51.1836 209.047 53.5039 209.047 57.167C209.047 60.8408 211.195 63.1396 214.568 63.1396ZM214.568 61.2061C212.592 61.2061 211.41 59.7129 211.41 57.167C211.41 54.6318 212.592 53.1172 214.568 53.1172C216.545 53.1172 217.716 54.6211 217.716 57.167C217.716 59.7129 216.545 61.2061 214.568 61.2061ZM225.998 61.2598C224.655 61.2598 223.785 60.6152 223.785 59.6162C223.785 58.585 224.612 57.9941 226.202 57.8975L229.038 57.7041V58.6172C229.038 60.1533 227.728 61.2598 225.998 61.2598ZM225.375 63.1182C226.965 63.1182 228.415 62.3232 229.06 61.0557H229.113V63H231.337V54.9971C231.337 52.6875 229.5 51.1836 226.653 51.1836C224.032 51.1836 222.077 52.709 222.013 54.7715H224.193C224.397 53.7617 225.321 53.1064 226.589 53.1064C228.146 53.1064 229.038 53.8369 229.038 55.1689V56.0713L225.891 56.2539C223.012 56.4365 221.433 57.6182 221.433 59.6592C221.433 61.7432 223.044 63.1182 225.375 63.1182Z" fill="#3D3D3D"/>
<path d="M178.102 78.9766L178.336 77.8281H176.695L177.32 74.7266H176.203L175.578 77.8281H173.273L173.891 74.7266H172.773L172.156 77.8281H170.516L170.289 78.9766H171.93L171.414 81.625H169.773L169.531 82.7891H171.172L170.531 86H171.648L172.281 82.7891H174.594L173.953 86H175.07L175.711 82.7891H177.352L177.578 81.625H175.938L176.461 78.9766H178.102ZM173.023 78.9531H175.367L174.836 81.6562H172.5L173.023 78.9531ZM183.875 86.25C186.219 86.25 187.844 84.9062 187.844 82.9844C187.844 81.5625 186.914 80.3984 185.547 80.1094V79.9844C186.695 79.6641 187.391 78.7031 187.391 77.4766C187.391 75.7188 185.93 74.4766 183.875 74.4766C181.82 74.4766 180.352 75.7188 180.352 77.4766C180.352 78.7031 181.062 79.6719 182.195 79.9844V80.1094C180.805 80.4453 179.898 81.5859 179.898 82.9844C179.898 84.9062 181.531 86.25 183.875 86.25ZM183.875 79.5156C182.57 79.5156 181.703 78.75 181.703 77.5938C181.703 76.4453 182.57 75.6797 183.875 75.6797C185.18 75.6797 186.039 76.4453 186.039 77.5938C186.039 78.75 185.18 79.5156 183.875 79.5156ZM183.875 85.0547C182.344 85.0547 181.289 84.1641 181.289 82.875C181.289 81.5859 182.344 80.6953 183.875 80.6953C185.406 80.6953 186.461 81.5859 186.461 82.875C186.461 84.1641 185.406 85.0547 183.875 85.0547ZM193.938 86C196.359 86 197.797 84.8281 197.797 82.8516C197.797 81.3438 196.805 80.2422 195.289 80.0938V79.9766C196.422 79.7812 197.227 78.7578 197.227 77.5156C197.227 75.7656 195.977 74.7266 193.898 74.7266H190.25V86H193.938ZM191.617 75.9141H193.586C195.023 75.9141 195.836 76.5781 195.836 77.7578C195.836 78.9453 194.977 79.5938 193.375 79.5938H191.617V75.9141ZM191.617 84.8047V80.7422H193.594C195.422 80.7422 196.367 81.4297 196.367 82.7578C196.367 84.1016 195.43 84.8047 193.641 84.8047H191.617ZM200.914 86H202.383L207.438 76V74.7266H199.914V75.9609H206.031V76.0625L200.914 86ZM209.812 74.7266V86H212.969C216.164 86 217.773 84.1094 217.773 80.3438C217.773 76.6094 216.164 74.7266 212.969 74.7266H209.812ZM211.195 75.9922H212.844C215.227 75.9922 216.367 77.3984 216.367 80.3516C216.367 83.3359 215.234 84.7344 212.844 84.7344H211.195V75.9922ZM220.695 86H222.164L227.219 76V74.7266H219.695V75.9609H225.812V76.0625L220.695 86ZM229.594 74.7266V86H232.75C235.945 86 237.555 84.1094 237.555 80.3438C237.555 76.6094 235.945 74.7266 232.75 74.7266H229.594ZM230.977 75.9922H232.625C235.008 75.9922 236.148 77.3984 236.148 80.3516C236.148 83.3359 235.016 84.7344 232.625 84.7344H230.977V75.9922Z" fill="#727272"/>
</g>
</g>
<defs>
<filter id="filter0_dddddddi_28_1273" x="0" y="0" width="296" height="158" filterUnits="userSpaceOnUse" color-interpolation-filters="sRGB">
<feFlood flood-opacity="0" result="BackgroundImageFix"/>
<feColorMatrix in="SourceAlpha" type="matrix" values="0 0 0 0 0 0 0 0 0 0 0 0 0 0 0 0 0 0 127 0" result="hardAlpha"/>
<feOffset dy="0.56875"/>
<feGaussianBlur stdDeviation="0.896094"/>
<feColorMatrix type="matrix" values="0 0 0 0 0.0470588 0 0 0 0 0.0784314 0 0 0 0 0.129412 0 0 0 0.013 0"/>
<feBlend mode="normal" in2="BackgroundImageFix" result="effect1_dropShadow_28_1273"/>
<feColorMatrix in="SourceAlpha" type="matrix" values="0 0 0 0 0 0 0 0 0 0 0 0 0 0 0 0 0 0 127 0" result="hardAlpha"/>
<feOffset dy="1.37109"/>
<feGaussianBlur stdDeviation="1.49854"/>
<feColorMatrix type="matrix" values="0 0 0 0 0.0470588 0 0 0 0 0.0784314 0 0 0 0 0.129412 0 0 0 0.016875 0"/>
<feBlend mode="normal" in2="effect1_dropShadow_28_1273" result="effect2_dropShadow_28_1273"/>
<feColorMatrix in="SourceAlpha" type="matrix" values="0 0 0 0 0 0 0 0 0 0 0 0 0 0 0 0 0 0 127 0" result="hardAlpha"/>
<feOffset dy="2.6"/>
<feGaussianBlur stdDeviation="2.51875"/>
<feColorMatrix type="matrix" values="0 0 0 0 0.0470588 0 0 0 0 0.0784314 0 0 0 0 0.129412 0 0 0 0.02 0"/>
<feBlend mode="normal" in2="effect2_dropShadow_28_1273" result="effect3_dropShadow_28_1273"/>
<feColorMatrix in="SourceAlpha" type="matrix" values="0 0 0 0 0 0 0 0 0 0 0 0 0 0 0 0 0 0 127 0" result="hardAlpha"/>
<feOffset dy="4.31641"/>
<feGaussianBlur stdDeviation="4.19287"/>
<feColorMatrix type="matrix" values="0 0 0 0 0.0470588 0 0 0 0 0.0784314 0 0 0 0 0.129412 0 0 0 0.023125 0"/>
<feBlend mode="normal" in2="effect3_dropShadow_28_1273" result="effect4_dropShadow_28_1273"/>
<feColorMatrix in="SourceAlpha" type="matrix" values="0 0 0 0 0 0 0 0 0 0 0 0 0 0 0 0 0 0 127 0" result="hardAlpha"/>
<feOffset dy="6.58125"/>
<feGaussianBlur stdDeviation="6.75703"/>
<feColorMatrix type="matrix" values="0 0 0 0 0.0470588 0 0 0 0 0.0784314 0 0 0 0 0.129412 0 0 0 0.027 0"/>
<feBlend mode="normal" in2="effect4_dropShadow_28_1273" result="effect5_dropShadow_28_1273"/>
<feColorMatrix in="SourceAlpha" type="matrix" values="0 0 0 0 0 0 0 0 0 0 0 0 0 0 0 0 0 0 127 0" result="hardAlpha"/>
<feOffset dy="9.45547"/>
<feGaussianBlur stdDeviation="10.4474"/>
<feColorMatrix type="matrix" values="0 0 0 0 0.0470588 0 0 0 0 0.0784314 0 0 0 0 0.129412 0 0 0 0.032375 0"/>
<feBlend mode="normal" in2="effect5_dropShadow_28_1273" result="effect6_dropShadow_28_1273"/>
<feColorMatrix in="SourceAlpha" type="matrix" values="0 0 0 0 0 0 0 0 0 0 0 0 0 0 0 0 0 0 127 0" result="hardAlpha"/>
<feOffset dy="13"/>
<feGaussianBlur stdDeviation="15.5"/>
<feColorMatrix type="matrix" values="0 0 0 0 0.0468229 0 0 0 0 0.0797604 0 0 0 0 0.129167 0 0 0 0.04 0"/>
<feBlend mode="normal" in2="effect6_dropShadow_28_1273" result="effect7_dropShadow_28_1273"/>
<feBlend mode="normal" in="SourceGraphic" in2="effect7_dropShadow_28_1273" result="shape"/>
<feColorMatrix in="SourceAlpha" type="matrix" values="0 0 0 0 0 0 0 0 0 0 0 0 0 0 0 0 0 0 127 0" result="hardAlpha"/>
<feOffset dy="2"/>
<feGaussianBlur stdDeviation="0.5"/>
<feComposite in2="hardAlpha" operator="arithmetic" k2="-1" k3="1"/>
<feColorMatrix type="matrix" values="0 0 0 0 1 0 0 0 0 1 0 0 0 0 1 0 0 0 1 0"/>
<feBlend mode="normal" in2="shape" result="effect8_innerShadow_28_1273"/>
</filter>
<filter id="filter1_d_28_1273" x="164" y="39" width="80" height="54" filterUnits="userSpaceOnUse" color-interpolation-filters="sRGB">
<feFlood flood-opacity="0" result="BackgroundImageFix"/>
<feColorMatrix in="SourceAlpha" type="matrix" values="0 0 0 0 0 0 0 0 0 0 0 0 0 0 0 0 0 0 127 0" result="hardAlpha"/>
<feOffset/>
<feGaussianBlur stdDeviation="1.5"/>
<feColorMatrix type="matrix" values="0 0 0 0 1 0 0 0 0 1 0 0 0 0 1 0 0 0 1 0"/>
<feBlend mode="normal" in2="BackgroundImageFix" result="effect1_dropShadow_28_1273"/>
<feBlend mode="normal" in="SourceGraphic" in2="effect1_dropShadow_28_1273" result="shape"/>
</filter>
</defs>
</svg>
