<svg width="316" height="158" viewBox="0 0 316 158" fill="none" xmlns="http://www.w3.org/2000/svg">
<g filter="url(#filter0_dddddddi_5_46)">
<path d="M31 66C31 49.1984 31 40.7976 34.2698 34.3803C37.146 28.7354 41.7354 24.146 47.3803 21.2698C53.7976 18 62.1984 18 79 18H237C253.802 18 262.202 18 268.62 21.2698C274.265 24.146 278.854 28.7354 281.73 34.3803C285 40.7976 285 49.1984 285 66C285 82.8016 285 91.2024 281.73 97.6197C278.854 103.265 274.265 107.854 268.62 110.73C262.202 114 253.802 114 237 114H79C62.1984 114 53.7976 114 47.3803 110.73C41.7354 107.854 37.146 103.265 34.2698 97.6197C31 91.2024 31 82.8016 31 66Z" fill="#F9F9FA"/>
<path d="M55 66C55 56.6444 55 51.9667 57.1459 48.5516C58.2648 46.7707 59.7707 45.2648 61.5516 44.1459C64.9667 42 69.6444 42 79 42H127C136.356 42 141.033 42 144.448 44.1459C146.229 45.2648 147.735 46.7707 148.854 48.5516C151 51.9667 151 56.6444 151 66C151 75.3556 151 80.0333 148.854 83.4484C147.735 85.2293 146.229 86.7352 144.448 87.8541C141.033 90 136.356 90 127 90H79C69.6444 90 64.9667 90 61.5516 87.8541C59.7707 86.7352 58.2648 85.2293 57.1459 83.4484C55 80.0333 55 75.3556 55 66Z" fill="#CA6F59"/>
<g filter="url(#filter1_d_5_46)">
<path d="M172.835 63V56.5117H179.495V54.4814H172.835V49.5723H180.107V47.499H170.429V63H172.835ZM182.062 63H184.394V46.8008H182.062V63ZM190.936 61.2598C189.593 61.2598 188.723 60.6152 188.723 59.6162C188.723 58.585 189.55 57.9941 191.14 57.8975L193.976 57.7041V58.6172C193.976 60.1533 192.665 61.2598 190.936 61.2598ZM190.312 63.1182C191.902 63.1182 193.353 62.3232 193.997 61.0557H194.051V63H196.274V54.9971C196.274 52.6875 194.438 51.1836 191.591 51.1836C188.97 51.1836 187.015 52.709 186.95 54.7715H189.131C189.335 53.7617 190.259 53.1064 191.526 53.1064C193.084 53.1064 193.976 53.8369 193.976 55.1689V56.0713L190.828 56.2539C187.949 56.4365 186.37 57.6182 186.37 59.6592C186.37 61.7432 187.981 63.1182 190.312 63.1182ZM198.616 63H200.947V55.8457C200.947 54.3203 201.979 53.2031 203.418 53.2031C204.782 53.2031 205.652 54.0625 205.652 55.416V63H207.94V55.7598C207.94 54.2666 208.95 53.2031 210.379 53.2031C211.829 53.2031 212.656 54.084 212.656 55.6094V63H214.977V55.0508C214.977 52.7197 213.473 51.2051 211.174 51.2051C209.509 51.2051 208.134 52.0645 207.521 53.4717H207.468C206.995 52.0215 205.824 51.2051 204.202 51.2051C202.677 51.2051 201.42 52 200.883 53.3105H200.84V51.334H198.616V63ZM217.394 63H219.725V51.334H217.394V63ZM218.564 49.6689C219.316 49.6689 219.929 49.0674 219.929 48.3262C219.929 47.5635 219.316 46.9834 218.564 46.9834C217.812 46.9834 217.2 47.5635 217.2 48.3262C217.2 49.0674 217.812 49.6689 218.564 49.6689ZM222.206 63H224.537V56.2646C224.537 54.4277 225.59 53.2031 227.352 53.2031C229.06 53.2031 229.876 54.1914 229.876 55.9639V63H232.207V55.5234C232.207 52.8379 230.735 51.2051 228.157 51.2051C226.353 51.2051 225.182 51.9248 224.473 53.2998H224.43V51.334H222.206V63ZM239.49 61.0342C237.61 61.0342 236.396 59.5195 236.396 57.1348C236.396 54.7393 237.61 53.1924 239.49 53.1924C241.381 53.1924 242.638 54.7715 242.638 57.1348C242.638 59.4873 241.381 61.0342 239.49 61.0342ZM239.501 67.2002C242.863 67.2002 244.958 65.4814 244.958 62.6992V51.334H242.702V53.2676H242.659C241.939 51.9785 240.586 51.2158 238.932 51.2158C235.945 51.2158 234.012 53.5254 234.012 57.124C234.012 60.6797 235.967 62.9678 238.878 62.9678C240.532 62.9678 241.907 62.2158 242.584 60.959H242.638V62.8818C242.638 64.4072 241.445 65.374 239.598 65.374C238.169 65.374 237.084 64.8047 236.826 63.9023H234.474C234.699 65.9004 236.697 67.2002 239.501 67.2002ZM252.338 63.1396C255.711 63.1396 257.849 60.8408 257.849 57.167C257.849 53.4932 255.7 51.1836 252.338 51.1836C248.976 51.1836 246.816 53.5039 246.816 57.167C246.816 60.8408 248.965 63.1396 252.338 63.1396ZM252.338 61.2061C250.361 61.2061 249.18 59.7129 249.18 57.167C249.18 54.6318 250.361 53.1172 252.338 53.1172C254.314 53.1172 255.485 54.6211 255.485 57.167C255.485 59.7129 254.314 61.2061 252.338 61.2061Z" fill="#3D3D3D"/>
<path d="M178.102 78.9766L178.336 77.8281H176.695L177.32 74.7266H176.203L175.578 77.8281H173.273L173.891 74.7266H172.773L172.156 77.8281H170.516L170.289 78.9766H171.93L171.414 81.625H169.773L169.531 82.7891H171.172L170.531 86H171.648L172.281 82.7891H174.594L173.953 86H175.07L175.711 82.7891H177.352L177.578 81.625H175.938L176.461 78.9766H178.102ZM173.023 78.9531H175.367L174.836 81.6562H172.5L173.023 78.9531ZM184.094 84.9297C182.266 84.9297 181.312 83.7031 181.312 81.3672V79.3594C181.312 77.0234 182.266 75.7969 184.086 75.7969C185.531 75.7969 186.539 76.8203 186.586 78.3438H187.984C187.938 75.9375 186.469 74.4922 184.094 74.4922C181.445 74.4922 179.906 76.2812 179.906 79.3594V81.3672C179.906 84.4453 181.445 86.2344 184.094 86.2344C186.398 86.2344 187.977 84.7578 187.977 82.5781H186.586C186.547 84.0312 185.594 84.9297 184.094 84.9297ZM196.641 86H198.094L194.461 74.7266H192.992L189.359 86H190.758L191.742 82.7656H195.664L196.641 86ZM193.688 76.3828H193.727L195.305 81.5859H192.102L193.688 76.3828ZM207.484 82.3828C207.484 80.3281 206 78.8047 203.992 78.8047C203.273 78.8047 202.461 79.1406 202.125 79.5938L202.008 79.5312C202.062 79.4062 202.031 79.4375 202.375 78.9531L205.453 74.7266H203.867C203.789 74.8438 201.445 78.125 201.344 78.2969C200.266 79.8672 199.82 81.0625 199.82 82.3828C199.82 84.625 201.422 86.2344 203.641 86.2344C205.875 86.2344 207.484 84.6172 207.484 82.3828ZM203.648 85.0078C202.234 85.0078 201.156 83.8984 201.156 82.4531C201.156 81 202.234 79.8906 203.648 79.8906C205.07 79.8906 206.148 81 206.148 82.4531C206.148 83.8984 205.07 85.0078 203.648 85.0078ZM211.93 86V81.0859H216.742V79.8594H211.93V75.9922H217.195V74.7266H210.547V86H211.93ZM223.305 86.2266C225.594 86.2266 227.148 84.6797 227.148 82.3984C227.148 80.1797 225.695 78.625 223.609 78.625C222.617 78.625 221.812 78.9766 221.258 79.6484H221.133L221.445 75.9688H226.523V74.7266H220.359L219.789 81.0938H221.094C221.539 80.2969 222.375 79.8359 223.383 79.8359C224.828 79.8359 225.805 80.8828 225.805 82.4297C225.805 83.9609 224.836 84.9844 223.383 84.9844C222.062 84.9844 221.055 84.1719 220.93 82.9922H219.602C219.719 84.9297 221.203 86.2266 223.305 86.2266ZM229.438 78.3438C229.438 80.4062 230.914 81.9219 232.93 81.9219C233.641 81.9219 234.438 81.5859 234.773 81.1328L234.891 81.1953C234.82 81.3203 234.766 81.4219 234.508 81.7734L231.438 86H233.016C233.102 85.8828 235.438 82.6016 235.539 82.4297C236.648 80.8203 237.102 79.625 237.102 78.3438C237.102 76.0938 235.5 74.4922 233.273 74.4922C231.047 74.4922 229.438 76.1094 229.438 78.3438ZM233.266 75.7188C234.688 75.7188 235.766 76.8281 235.766 78.2734C235.766 79.7266 234.688 80.8359 233.266 80.8359C231.852 80.8359 230.773 79.7266 230.773 78.2734C230.773 76.8281 231.852 75.7188 233.266 75.7188Z" fill="#727272"/>
</g>
</g>
<defs>
<filter id="filter0_dddddddi_5_46" x="0" y="0" width="316" height="158" filterUnits="userSpaceOnUse" color-interpolation-filters="sRGB">
<feFlood flood-opacity="0" result="BackgroundImageFix"/>
<feColorMatrix in="SourceAlpha" type="matrix" values="0 0 0 0 0 0 0 0 0 0 0 0 0 0 0 0 0 0 127 0" result="hardAlpha"/>
<feOffset dy="0.56875"/>
<feGaussianBlur stdDeviation="0.896094"/>
<feColorMatrix type="matrix" values="0 0 0 0 0.0470588 0 0 0 0 0.0784314 0 0 0 0 0.129412 0 0 0 0.013 0"/>
<feBlend mode="normal" in2="BackgroundImageFix" result="effect1_dropShadow_5_46"/>
<feColorMatrix in="SourceAlpha" type="matrix" values="0 0 0 0 0 0 0 0 0 0 0 0 0 0 0 0 0 0 127 0" result="hardAlpha"/>
<feOffset dy="1.37109"/>
<feGaussianBlur stdDeviation="1.49854"/>
<feColorMatrix type="matrix" values="0 0 0 0 0.0470588 0 0 0 0 0.0784314 0 0 0 0 0.129412 0 0 0 0.016875 0"/>
<feBlend mode="normal" in2="effect1_dropShadow_5_46" result="effect2_dropShadow_5_46"/>
<feColorMatrix in="SourceAlpha" type="matrix" values="0 0 0 0 0 0 0 0 0 0 0 0 0 0 0 0 0 0 127 0" result="hardAlpha"/>
<feOffset dy="2.6"/>
<feGaussianBlur stdDeviation="2.51875"/>
<feColorMatrix type="matrix" values="0 0 0 0 0.0470588 0 0 0 0 0.0784314 0 0 0 0 0.129412 0 0 0 0.02 0"/>
<feBlend mode="normal" in2="effect2_dropShadow_5_46" result="effect3_dropShadow_5_46"/>
<feColorMatrix in="SourceAlpha" type="matrix" values="0 0 0 0 0 0 0 0 0 0 0 0 0 0 0 0 0 0 127 0" result="hardAlpha"/>
<feOffset dy="4.31641"/>
<feGaussianBlur stdDeviation="4.19287"/>
<feColorMatrix type="matrix" values="0 0 0 0 0.0470588 0 0 0 0 0.0784314 0 0 0 0 0.129412 0 0 0 0.023125 0"/>
<feBlend mode="normal" in2="effect3_dropShadow_5_46" result="effect4_dropShadow_5_46"/>
<feColorMatrix in="SourceAlpha" type="matrix" values="0 0 0 0 0 0 0 0 0 0 0 0 0 0 0 0 0 0 127 0" result="hardAlpha"/>
<feOffset dy="6.58125"/>
<feGaussianBlur stdDeviation="6.75703"/>
<feColorMatrix type="matrix" values="0 0 0 0 0.0470588 0 0 0 0 0.0784314 0 0 0 0 0.129412 0 0 0 0.027 0"/>
<feBlend mode="normal" in2="effect4_dropShadow_5_46" result="effect5_dropShadow_5_46"/>
<feColorMatrix in="SourceAlpha" type="matrix" values="0 0 0 0 0 0 0 0 0 0 0 0 0 0 0 0 0 0 127 0" result="hardAlpha"/>
<feOffset dy="9.45547"/>
<feGaussianBlur stdDeviation="10.4474"/>
<feColorMatrix type="matrix" values="0 0 0 0 0.0470588 0 0 0 0 0.0784314 0 0 0 0 0.129412 0 0 0 0.032375 0"/>
<feBlend mode="normal" in2="effect5_dropShadow_5_46" result="effect6_dropShadow_5_46"/>
<feColorMatrix in="SourceAlpha" type="matrix" values="0 0 0 0 0 0 0 0 0 0 0 0 0 0 0 0 0 0 127 0" result="hardAlpha"/>
<feOffset dy="13"/>
<feGaussianBlur stdDeviation="15.5"/>
<feColorMatrix type="matrix" values="0 0 0 0 0.0468229 0 0 0 0 0.0797604 0 0 0 0 0.129167 0 0 0 0.04 0"/>
<feBlend mode="normal" in2="effect6_dropShadow_5_46" result="effect7_dropShadow_5_46"/>
<feBlend mode="normal" in="SourceGraphic" in2="effect7_dropShadow_5_46" result="shape"/>
<feColorMatrix in="SourceAlpha" type="matrix" values="0 0 0 0 0 0 0 0 0 0 0 0 0 0 0 0 0 0 127 0" result="hardAlpha"/>
<feOffset dy="2"/>
<feGaussianBlur stdDeviation="0.5"/>
<feComposite in2="hardAlpha" operator="arithmetic" k2="-1" k3="1"/>
<feColorMatrix type="matrix" values="0 0 0 0 1 0 0 0 0 1 0 0 0 0 1 0 0 0 1 0"/>
<feBlend mode="normal" in2="shape" result="effect8_innerShadow_5_46"/>
</filter>
<filter id="filter1_d_5_46" x="164" y="39" width="100" height="54" filterUnits="userSpaceOnUse" color-interpolation-filters="sRGB">
<feFlood flood-opacity="0" result="BackgroundImageFix"/>
<feColorMatrix in="SourceAlpha" type="matrix" values="0 0 0 0 0 0 0 0 0 0 0 0 0 0 0 0 0 0 127 0" result="hardAlpha"/>
<feOffset/>
<feGaussianBlur stdDeviation="1.5"/>
<feColorMatrix type="matrix" values="0 0 0 0 1 0 0 0 0 1 0 0 0 0 1 0 0 0 1 0"/>
<feBlend mode="normal" in2="BackgroundImageFix" result="effect1_dropShadow_5_46"/>
<feBlend mode="normal" in="SourceGraphic" in2="effect1_dropShadow_5_46" result="shape"/>
</filter>
</defs>
</svg>
