<svg width="311" height="158" viewBox="0 0 311 158" fill="none" xmlns="http://www.w3.org/2000/svg">
<g filter="url(#filter0_dddddddi_5_38)">
<path d="M31 66C31 49.1984 31 40.7976 34.2698 34.3803C37.146 28.7354 41.7354 24.146 47.3803 21.2698C53.7976 18 62.1984 18 79 18H232C248.802 18 257.202 18 263.62 21.2698C269.265 24.146 273.854 28.7354 276.73 34.3803C280 40.7976 280 49.1984 280 66C280 82.8016 280 91.2024 276.73 97.6197C273.854 103.265 269.265 107.854 263.62 110.73C257.202 114 248.802 114 232 114H79C62.1984 114 53.7976 114 47.3803 110.73C41.7354 107.854 37.146 103.265 34.2698 97.6197C31 91.2024 31 82.8016 31 66Z" fill="#F9F9FA"/>
<path d="M55 66C55 56.6444 55 51.9667 57.1459 48.5516C58.2648 46.7707 59.7707 45.2648 61.5516 44.1459C64.9667 42 69.6444 42 79 42H127C136.356 42 141.033 42 144.448 44.1459C146.229 45.2648 147.735 46.7707 148.854 48.5516C151 51.9667 151 56.6444 151 66C151 75.3556 151 80.0333 148.854 83.4484C147.735 85.2293 146.229 86.7352 144.448 87.8541C141.033 90 136.356 90 127 90H79C69.6444 90 64.9667 90 61.5516 87.8541C59.7707 86.7352 58.2648 85.2293 57.1459 83.4484C55 80.0333 55 75.3556 55 66Z" fill="#FB0049"/>
<g filter="url(#filter1_d_5_38)">
<path d="M183.201 63V47.499H180.795V54.0518H172.835V47.499H170.429V63H172.835V56.1357H180.795V63H183.201ZM185.897 63H188.229V51.334H185.897V63ZM187.068 49.6689C187.82 49.6689 188.433 49.0674 188.433 48.3262C188.433 47.5635 187.82 46.9834 187.068 46.9834C186.316 46.9834 185.704 47.5635 185.704 48.3262C185.704 49.0674 186.316 49.6689 187.068 49.6689ZM196.854 63.1182C199.819 63.1182 201.753 60.7871 201.753 57.167C201.753 53.5469 199.819 51.2158 196.876 51.2158C195.222 51.2158 193.89 51.957 193.181 53.2676H193.138V46.8008H190.807V63H193.052V61.0234H193.105C193.825 62.3662 195.157 63.1182 196.854 63.1182ZM196.264 53.1924C198.144 53.1924 199.368 54.75 199.368 57.167C199.368 59.584 198.144 61.1416 196.264 61.1416C194.384 61.1416 193.127 59.541 193.127 57.167C193.127 54.8037 194.384 53.1924 196.264 53.1924ZM203.708 63H206.039V51.334H203.708V63ZM204.879 49.6689C205.631 49.6689 206.243 49.0674 206.243 48.3262C206.243 47.5635 205.631 46.9834 204.879 46.9834C204.127 46.9834 203.515 47.5635 203.515 48.3262C203.515 49.0674 204.127 49.6689 204.879 49.6689ZM208.327 54.6533C208.327 56.2646 209.369 57.3389 211.475 57.8545L213.559 58.3701C214.783 58.6816 215.245 59.0684 215.245 59.8096C215.245 60.7549 214.332 61.3564 212.882 61.3564C211.399 61.3564 210.497 60.7441 210.314 59.627H208.016C208.188 61.7324 210.046 63.1396 212.764 63.1396C215.589 63.1396 217.565 61.7002 217.565 59.6162C217.565 57.8975 216.695 57.0488 214.343 56.4795L212.409 56.0176C211.174 55.7168 210.594 55.2334 210.594 54.5244C210.594 53.6006 211.475 52.9883 212.796 52.9883C214.128 52.9883 215.02 53.6328 215.116 54.6641H217.308C217.254 52.6338 215.406 51.1943 212.85 51.1943C210.164 51.1943 208.327 52.6016 208.327 54.6533ZM229.425 55.3193C229.221 53.0742 227.373 51.1836 224.397 51.1836C221.1 51.1836 218.93 53.5361 218.93 57.167C218.93 60.8623 221.11 63.1396 224.419 63.1396C227.223 63.1396 229.178 61.5176 229.446 59.0791H227.223C226.943 60.4434 225.944 61.1846 224.43 61.1846C222.561 61.1846 221.293 59.6807 221.293 57.167C221.293 54.7178 222.539 53.1494 224.419 53.1494C226.02 53.1494 226.986 54.084 227.201 55.3193H229.425ZM241.112 51.334H238.781V58.0586C238.781 59.9062 237.718 61.1201 235.978 61.1201C234.291 61.1201 233.442 60.1641 233.442 58.3701V51.334H231.111V58.8105C231.111 61.4854 232.658 63.1289 235.204 63.1289C236.987 63.1289 238.169 62.3877 238.846 61.002H238.889V63H241.112V51.334ZM243.304 54.6533C243.304 56.2646 244.346 57.3389 246.451 57.8545L248.535 58.3701C249.76 58.6816 250.222 59.0684 250.222 59.8096C250.222 60.7549 249.309 61.3564 247.858 61.3564C246.376 61.3564 245.474 60.7441 245.291 59.627H242.992C243.164 61.7324 245.022 63.1396 247.74 63.1396C250.565 63.1396 252.542 61.7002 252.542 59.6162C252.542 57.8975 251.672 57.0488 249.319 56.4795L247.386 56.0176C246.15 55.7168 245.57 55.2334 245.57 54.5244C245.57 53.6006 246.451 52.9883 247.772 52.9883C249.104 52.9883 249.996 53.6328 250.093 54.6641H252.284C252.23 52.6338 250.383 51.1943 247.826 51.1943C245.141 51.1943 243.304 52.6016 243.304 54.6533Z" fill="#3D3D3D"/>
<path d="M178.102 78.9766L178.336 77.8281H176.695L177.32 74.7266H176.203L175.578 77.8281H173.273L173.891 74.7266H172.773L172.156 77.8281H170.516L170.289 78.9766H171.93L171.414 81.625H169.773L169.531 82.7891H171.172L170.531 86H171.648L172.281 82.7891H174.594L173.953 86H175.07L175.711 82.7891H177.352L177.578 81.625H175.938L176.461 78.9766H178.102ZM173.023 78.9531H175.367L174.836 81.6562H172.5L173.023 78.9531ZM182.258 86V81.0859H187.07V79.8594H182.258V75.9922H187.523V74.7266H180.875V86H182.258ZM193.938 86C196.359 86 197.797 84.8281 197.797 82.8516C197.797 81.3438 196.805 80.2422 195.289 80.0938V79.9766C196.422 79.7812 197.227 78.7578 197.227 77.5156C197.227 75.7656 195.977 74.7266 193.898 74.7266H190.25V86H193.938ZM191.617 75.9141H193.586C195.023 75.9141 195.836 76.5781 195.836 77.7578C195.836 78.9453 194.977 79.5938 193.375 79.5938H191.617V75.9141ZM191.617 84.8047V80.7422H193.594C195.422 80.7422 196.367 81.4297 196.367 82.7578C196.367 84.1016 195.43 84.8047 193.641 84.8047H191.617ZM203.625 86.2578C206.07 86.2578 207.43 84.1641 207.43 80.3672C207.43 76.5703 206.07 74.4766 203.625 74.4766C201.172 74.4766 199.82 76.5703 199.82 80.3672C199.82 84.1641 201.172 86.2578 203.625 86.2578ZM201.188 80.3672C201.188 77.3047 202.031 75.6953 203.625 75.6953C204.688 75.6953 205.422 76.4141 205.789 77.8125L201.242 81.6094C201.211 81.2266 201.188 80.8125 201.188 80.3672ZM203.625 85.0391C202.562 85.0391 201.836 84.3203 201.469 82.9375L206 79.1094C206.039 79.5 206.055 79.9141 206.055 80.3672C206.055 83.4219 205.219 85.0391 203.625 85.0391ZM213.516 86.2578C215.961 86.2578 217.32 84.1641 217.32 80.3672C217.32 76.5703 215.961 74.4766 213.516 74.4766C211.062 74.4766 209.711 76.5703 209.711 80.3672C209.711 84.1641 211.062 86.2578 213.516 86.2578ZM211.078 80.3672C211.078 77.3047 211.922 75.6953 213.516 75.6953C214.578 75.6953 215.312 76.4141 215.68 77.8125L211.133 81.6094C211.102 81.2266 211.078 80.8125 211.078 80.3672ZM213.516 85.0391C212.453 85.0391 211.727 84.3203 211.359 82.9375L215.891 79.1094C215.93 79.5 215.945 79.9141 215.945 80.3672C215.945 83.4219 215.109 85.0391 213.516 85.0391ZM224.719 86H225.977V83.6172H227.703V82.4062H225.984V79.2031H224.734V82.4219H221.039V82.3203L224.812 74.7266H223.406L219.578 82.5V83.6172H224.719V86ZM229.438 78.3438C229.438 80.4062 230.914 81.9219 232.93 81.9219C233.641 81.9219 234.438 81.5859 234.773 81.1328L234.891 81.1953C234.82 81.3203 234.766 81.4219 234.508 81.7734L231.438 86H233.016C233.102 85.8828 235.438 82.6016 235.539 82.4297C236.648 80.8203 237.102 79.625 237.102 78.3438C237.102 76.0938 235.5 74.4922 233.273 74.4922C231.047 74.4922 229.438 76.1094 229.438 78.3438ZM233.266 75.7188C234.688 75.7188 235.766 76.8281 235.766 78.2734C235.766 79.7266 234.688 80.8359 233.266 80.8359C231.852 80.8359 230.773 79.7266 230.773 78.2734C230.773 76.8281 231.852 75.7188 233.266 75.7188Z" fill="#727272"/>
</g>
</g>
<defs>
<filter id="filter0_dddddddi_5_38" x="0" y="0" width="311" height="158" filterUnits="userSpaceOnUse" color-interpolation-filters="sRGB">
<feFlood flood-opacity="0" result="BackgroundImageFix"/>
<feColorMatrix in="SourceAlpha" type="matrix" values="0 0 0 0 0 0 0 0 0 0 0 0 0 0 0 0 0 0 127 0" result="hardAlpha"/>
<feOffset dy="0.56875"/>
<feGaussianBlur stdDeviation="0.896094"/>
<feColorMatrix type="matrix" values="0 0 0 0 0.0470588 0 0 0 0 0.0784314 0 0 0 0 0.129412 0 0 0 0.013 0"/>
<feBlend mode="normal" in2="BackgroundImageFix" result="effect1_dropShadow_5_38"/>
<feColorMatrix in="SourceAlpha" type="matrix" values="0 0 0 0 0 0 0 0 0 0 0 0 0 0 0 0 0 0 127 0" result="hardAlpha"/>
<feOffset dy="1.37109"/>
<feGaussianBlur stdDeviation="1.49854"/>
<feColorMatrix type="matrix" values="0 0 0 0 0.0470588 0 0 0 0 0.0784314 0 0 0 0 0.129412 0 0 0 0.016875 0"/>
<feBlend mode="normal" in2="effect1_dropShadow_5_38" result="effect2_dropShadow_5_38"/>
<feColorMatrix in="SourceAlpha" type="matrix" values="0 0 0 0 0 0 0 0 0 0 0 0 0 0 0 0 0 0 127 0" result="hardAlpha"/>
<feOffset dy="2.6"/>
<feGaussianBlur stdDeviation="2.51875"/>
<feColorMatrix type="matrix" values="0 0 0 0 0.0470588 0 0 0 0 0.0784314 0 0 0 0 0.129412 0 0 0 0.02 0"/>
<feBlend mode="normal" in2="effect2_dropShadow_5_38" result="effect3_dropShadow_5_38"/>
<feColorMatrix in="SourceAlpha" type="matrix" values="0 0 0 0 0 0 0 0 0 0 0 0 0 0 0 0 0 0 127 0" result="hardAlpha"/>
<feOffset dy="4.31641"/>
<feGaussianBlur stdDeviation="4.19287"/>
<feColorMatrix type="matrix" values="0 0 0 0 0.0470588 0 0 0 0 0.0784314 0 0 0 0 0.129412 0 0 0 0.023125 0"/>
<feBlend mode="normal" in2="effect3_dropShadow_5_38" result="effect4_dropShadow_5_38"/>
<feColorMatrix in="SourceAlpha" type="matrix" values="0 0 0 0 0 0 0 0 0 0 0 0 0 0 0 0 0 0 127 0" result="hardAlpha"/>
<feOffset dy="6.58125"/>
<feGaussianBlur stdDeviation="6.75703"/>
<feColorMatrix type="matrix" values="0 0 0 0 0.0470588 0 0 0 0 0.0784314 0 0 0 0 0.129412 0 0 0 0.027 0"/>
<feBlend mode="normal" in2="effect4_dropShadow_5_38" result="effect5_dropShadow_5_38"/>
<feColorMatrix in="SourceAlpha" type="matrix" values="0 0 0 0 0 0 0 0 0 0 0 0 0 0 0 0 0 0 127 0" result="hardAlpha"/>
<feOffset dy="9.45547"/>
<feGaussianBlur stdDeviation="10.4474"/>
<feColorMatrix type="matrix" values="0 0 0 0 0.0470588 0 0 0 0 0.0784314 0 0 0 0 0.129412 0 0 0 0.032375 0"/>
<feBlend mode="normal" in2="effect5_dropShadow_5_38" result="effect6_dropShadow_5_38"/>
<feColorMatrix in="SourceAlpha" type="matrix" values="0 0 0 0 0 0 0 0 0 0 0 0 0 0 0 0 0 0 127 0" result="hardAlpha"/>
<feOffset dy="13"/>
<feGaussianBlur stdDeviation="15.5"/>
<feColorMatrix type="matrix" values="0 0 0 0 0.0468229 0 0 0 0 0.0797604 0 0 0 0 0.129167 0 0 0 0.04 0"/>
<feBlend mode="normal" in2="effect6_dropShadow_5_38" result="effect7_dropShadow_5_38"/>
<feBlend mode="normal" in="SourceGraphic" in2="effect7_dropShadow_5_38" result="shape"/>
<feColorMatrix in="SourceAlpha" type="matrix" values="0 0 0 0 0 0 0 0 0 0 0 0 0 0 0 0 0 0 127 0" result="hardAlpha"/>
<feOffset dy="2"/>
<feGaussianBlur stdDeviation="0.5"/>
<feComposite in2="hardAlpha" operator="arithmetic" k2="-1" k3="1"/>
<feColorMatrix type="matrix" values="0 0 0 0 1 0 0 0 0 1 0 0 0 0 1 0 0 0 1 0"/>
<feBlend mode="normal" in2="shape" result="effect8_innerShadow_5_38"/>
</filter>
<filter id="filter1_d_5_38" x="164" y="39" width="95" height="54" filterUnits="userSpaceOnUse" color-interpolation-filters="sRGB">
<feFlood flood-opacity="0" result="BackgroundImageFix"/>
<feColorMatrix in="SourceAlpha" type="matrix" values="0 0 0 0 0 0 0 0 0 0 0 0 0 0 0 0 0 0 127 0" result="hardAlpha"/>
<feOffset/>
<feGaussianBlur stdDeviation="1.5"/>
<feColorMatrix type="matrix" values="0 0 0 0 1 0 0 0 0 1 0 0 0 0 1 0 0 0 1 0"/>
<feBlend mode="normal" in2="BackgroundImageFix" result="effect1_dropShadow_5_38"/>
<feBlend mode="normal" in="SourceGraphic" in2="effect1_dropShadow_5_38" result="shape"/>
</filter>
</defs>
</svg>
