<svg width="315" height="158" viewBox="0 0 315 158" fill="none" xmlns="http://www.w3.org/2000/svg">
<g filter="url(#filter0_dddddddi_5_82)">
<path d="M31 66C31 49.1984 31 40.7976 34.2698 34.3803C37.146 28.7354 41.7354 24.146 47.3803 21.2698C53.7976 18 62.1984 18 79 18H236C252.802 18 261.202 18 267.62 21.2698C273.265 24.146 277.854 28.7354 280.73 34.3803C284 40.7976 284 49.1984 284 66C284 82.8016 284 91.2024 280.73 97.6197C277.854 103.265 273.265 107.854 267.62 110.73C261.202 114 252.802 114 236 114H79C62.1984 114 53.7976 114 47.3803 110.73C41.7354 107.854 37.146 103.265 34.2698 97.6197C31 91.2024 31 82.8016 31 66Z" fill="#F9F9FA"/>
<path d="M55 66C55 56.6444 55 51.9667 57.1459 48.5516C58.2648 46.7707 59.7707 45.2648 61.5516 44.1459C64.9667 42 69.6444 42 79 42H127C136.356 42 141.033 42 144.448 44.1459C146.229 45.2648 147.735 46.7707 148.854 48.5516C151 51.9667 151 56.6444 151 66C151 75.3556 151 80.0333 148.854 83.4484C147.735 85.2293 146.229 86.7352 144.448 87.8541C141.033 90 136.356 90 127 90H79C69.6444 90 64.9667 90 61.5516 87.8541C59.7707 86.7352 58.2648 85.2293 57.1459 83.4484C55 80.0333 55 75.3556 55 66Z" fill="#FD7441"/>
<g filter="url(#filter1_d_5_82)">
<path d="M172.835 63V57.833L174.425 56.0176L179.796 63H182.782L176.122 54.3633L182.267 47.499H179.409L172.932 54.8789H172.835V47.499H170.429V63H172.835ZM193.976 51.334H191.645V58.0586C191.645 59.9062 190.581 61.1201 188.841 61.1201C187.154 61.1201 186.306 60.1641 186.306 58.3701V51.334H183.975V58.8105C183.975 61.4854 185.521 63.1289 188.067 63.1289C189.851 63.1289 191.032 62.3877 191.709 61.002H191.752V63H193.976V51.334ZM196.36 63H198.691V55.8457C198.691 54.3203 199.723 53.2031 201.162 53.2031C202.526 53.2031 203.396 54.0625 203.396 55.416V63H205.685V55.7598C205.685 54.2666 206.694 53.2031 208.123 53.2031C209.573 53.2031 210.4 54.084 210.4 55.6094V63H212.721V55.0508C212.721 52.7197 211.217 51.2051 208.918 51.2051C207.253 51.2051 205.878 52.0645 205.266 53.4717H205.212C204.739 52.0215 203.568 51.2051 201.946 51.2051C200.421 51.2051 199.164 52 198.627 53.3105H198.584V51.334H196.36V63ZM219.445 51.2158C216.48 51.2158 214.525 53.5576 214.525 57.1562C214.525 60.7656 216.47 63.1182 219.392 63.1182C221.057 63.1182 222.421 62.3555 223.098 61.0879H223.151V66.8672H225.472V51.334H223.216V53.2676H223.173C222.485 51.9678 221.132 51.2158 219.445 51.2158ZM220.004 61.1416C218.124 61.1416 216.91 59.5947 216.91 57.167C216.91 54.75 218.124 53.1924 220.004 53.1924C221.884 53.1924 223.151 54.8037 223.151 57.167C223.151 59.541 221.884 61.1416 220.004 61.1416ZM237.804 51.334H235.473V58.0586C235.473 59.9062 234.409 61.1201 232.669 61.1201C230.982 61.1201 230.134 60.1641 230.134 58.3701V51.334H227.803V58.8105C227.803 61.4854 229.35 63.1289 231.896 63.1289C233.679 63.1289 234.86 62.3877 235.537 61.002H235.58V63H237.804V51.334ZM244.238 61.2598C242.896 61.2598 242.025 60.6152 242.025 59.6162C242.025 58.585 242.853 57.9941 244.442 57.8975L247.278 57.7041V58.6172C247.278 60.1533 245.968 61.2598 244.238 61.2598ZM243.615 63.1182C245.205 63.1182 246.655 62.3232 247.3 61.0557H247.354V63H249.577V54.9971C249.577 52.6875 247.74 51.1836 244.894 51.1836C242.272 51.1836 240.317 52.709 240.253 54.7715H242.434C242.638 53.7617 243.562 53.1064 244.829 53.1064C246.387 53.1064 247.278 53.8369 247.278 55.1689V56.0713L244.131 56.2539C241.252 56.4365 239.673 57.6182 239.673 59.6592C239.673 61.7432 241.284 63.1182 243.615 63.1182ZM252.617 48.7129V51.334H251.006V53.1709H252.617V59.9277C252.617 62.1836 253.52 63.0752 255.851 63.0752C256.355 63.0752 256.903 63.0215 257.161 62.957V61.1201C257.011 61.1416 256.613 61.1738 256.366 61.1738C255.389 61.1738 254.938 60.7012 254.938 59.6914V53.1709H257.172V51.334H254.938V48.7129H252.617Z" fill="#3D3D3D"/>
<path d="M178.102 78.9766L178.336 77.8281H176.695L177.32 74.7266H176.203L175.578 77.8281H173.273L173.891 74.7266H172.773L172.156 77.8281H170.516L170.289 78.9766H171.93L171.414 81.625H169.773L169.531 82.7891H171.172L170.531 86H171.648L172.281 82.7891H174.594L173.953 86H175.07L175.711 82.7891H177.352L177.578 81.625H175.938L176.461 78.9766H178.102ZM173.023 78.9531H175.367L174.836 81.6562H172.5L173.023 78.9531ZM182.258 86V81.0859H187.07V79.8594H182.258V75.9922H187.523V74.7266H180.875V86H182.258ZM190.031 74.7266V86H193.188C196.383 86 197.992 84.1094 197.992 80.3438C197.992 76.6094 196.383 74.7266 193.188 74.7266H190.031ZM191.414 75.9922H193.062C195.445 75.9922 196.586 77.3984 196.586 80.3516C196.586 83.3359 195.453 84.7344 193.062 84.7344H191.414V75.9922ZM200.914 86H202.383L207.438 76V74.7266H199.914V75.9609H206.031V76.0625L200.914 86ZM214.828 86H216.086V83.6172H217.812V82.4062H216.094V79.2031H214.844V82.4219H211.148V82.3203L214.922 74.7266H213.516L209.688 82.5V83.6172H214.828V86ZM224.719 86H225.977V83.6172H227.703V82.4062H225.984V79.2031H224.734V82.4219H221.039V82.3203L224.812 74.7266H223.406L219.578 82.5V83.6172H224.719V86ZM237.547 86V84.7891H234.375V74.7266H233.023L229.664 76.9062V78.375L232.891 76.2891H233.016V84.7891H229.688V86H237.547Z" fill="#727272"/>
</g>
</g>
<defs>
<filter id="filter0_dddddddi_5_82" x="0" y="0" width="315" height="158" filterUnits="userSpaceOnUse" color-interpolation-filters="sRGB">
<feFlood flood-opacity="0" result="BackgroundImageFix"/>
<feColorMatrix in="SourceAlpha" type="matrix" values="0 0 0 0 0 0 0 0 0 0 0 0 0 0 0 0 0 0 127 0" result="hardAlpha"/>
<feOffset dy="0.56875"/>
<feGaussianBlur stdDeviation="0.896094"/>
<feColorMatrix type="matrix" values="0 0 0 0 0.0470588 0 0 0 0 0.0784314 0 0 0 0 0.129412 0 0 0 0.013 0"/>
<feBlend mode="normal" in2="BackgroundImageFix" result="effect1_dropShadow_5_82"/>
<feColorMatrix in="SourceAlpha" type="matrix" values="0 0 0 0 0 0 0 0 0 0 0 0 0 0 0 0 0 0 127 0" result="hardAlpha"/>
<feOffset dy="1.37109"/>
<feGaussianBlur stdDeviation="1.49854"/>
<feColorMatrix type="matrix" values="0 0 0 0 0.0470588 0 0 0 0 0.0784314 0 0 0 0 0.129412 0 0 0 0.016875 0"/>
<feBlend mode="normal" in2="effect1_dropShadow_5_82" result="effect2_dropShadow_5_82"/>
<feColorMatrix in="SourceAlpha" type="matrix" values="0 0 0 0 0 0 0 0 0 0 0 0 0 0 0 0 0 0 127 0" result="hardAlpha"/>
<feOffset dy="2.6"/>
<feGaussianBlur stdDeviation="2.51875"/>
<feColorMatrix type="matrix" values="0 0 0 0 0.0470588 0 0 0 0 0.0784314 0 0 0 0 0.129412 0 0 0 0.02 0"/>
<feBlend mode="normal" in2="effect2_dropShadow_5_82" result="effect3_dropShadow_5_82"/>
<feColorMatrix in="SourceAlpha" type="matrix" values="0 0 0 0 0 0 0 0 0 0 0 0 0 0 0 0 0 0 127 0" result="hardAlpha"/>
<feOffset dy="4.31641"/>
<feGaussianBlur stdDeviation="4.19287"/>
<feColorMatrix type="matrix" values="0 0 0 0 0.0470588 0 0 0 0 0.0784314 0 0 0 0 0.129412 0 0 0 0.023125 0"/>
<feBlend mode="normal" in2="effect3_dropShadow_5_82" result="effect4_dropShadow_5_82"/>
<feColorMatrix in="SourceAlpha" type="matrix" values="0 0 0 0 0 0 0 0 0 0 0 0 0 0 0 0 0 0 127 0" result="hardAlpha"/>
<feOffset dy="6.58125"/>
<feGaussianBlur stdDeviation="6.75703"/>
<feColorMatrix type="matrix" values="0 0 0 0 0.0470588 0 0 0 0 0.0784314 0 0 0 0 0.129412 0 0 0 0.027 0"/>
<feBlend mode="normal" in2="effect4_dropShadow_5_82" result="effect5_dropShadow_5_82"/>
<feColorMatrix in="SourceAlpha" type="matrix" values="0 0 0 0 0 0 0 0 0 0 0 0 0 0 0 0 0 0 127 0" result="hardAlpha"/>
<feOffset dy="9.45547"/>
<feGaussianBlur stdDeviation="10.4474"/>
<feColorMatrix type="matrix" values="0 0 0 0 0.0470588 0 0 0 0 0.0784314 0 0 0 0 0.129412 0 0 0 0.032375 0"/>
<feBlend mode="normal" in2="effect5_dropShadow_5_82" result="effect6_dropShadow_5_82"/>
<feColorMatrix in="SourceAlpha" type="matrix" values="0 0 0 0 0 0 0 0 0 0 0 0 0 0 0 0 0 0 127 0" result="hardAlpha"/>
<feOffset dy="13"/>
<feGaussianBlur stdDeviation="15.5"/>
<feColorMatrix type="matrix" values="0 0 0 0 0.0468229 0 0 0 0 0.0797604 0 0 0 0 0.129167 0 0 0 0.04 0"/>
<feBlend mode="normal" in2="effect6_dropShadow_5_82" result="effect7_dropShadow_5_82"/>
<feBlend mode="normal" in="SourceGraphic" in2="effect7_dropShadow_5_82" result="shape"/>
<feColorMatrix in="SourceAlpha" type="matrix" values="0 0 0 0 0 0 0 0 0 0 0 0 0 0 0 0 0 0 127 0" result="hardAlpha"/>
<feOffset dy="2"/>
<feGaussianBlur stdDeviation="0.5"/>
<feComposite in2="hardAlpha" operator="arithmetic" k2="-1" k3="1"/>
<feColorMatrix type="matrix" values="0 0 0 0 1 0 0 0 0 1 0 0 0 0 1 0 0 0 1 0"/>
<feBlend mode="normal" in2="shape" result="effect8_innerShadow_5_82"/>
</filter>
<filter id="filter1_d_5_82" x="164" y="39" width="99" height="54" filterUnits="userSpaceOnUse" color-interpolation-filters="sRGB">
<feFlood flood-opacity="0" result="BackgroundImageFix"/>
<feColorMatrix in="SourceAlpha" type="matrix" values="0 0 0 0 0 0 0 0 0 0 0 0 0 0 0 0 0 0 127 0" result="hardAlpha"/>
<feOffset/>
<feGaussianBlur stdDeviation="1.5"/>
<feColorMatrix type="matrix" values="0 0 0 0 1 0 0 0 0 1 0 0 0 0 1 0 0 0 1 0"/>
<feBlend mode="normal" in2="BackgroundImageFix" result="effect1_dropShadow_5_82"/>
<feBlend mode="normal" in="SourceGraphic" in2="effect1_dropShadow_5_82" result="shape"/>
</filter>
</defs>
</svg>
