<svg width="296" height="158" viewBox="0 0 296 158" fill="none" xmlns="http://www.w3.org/2000/svg">
<g filter="url(#filter0_dddddddi_5_55)">
<path d="M31 66C31 49.1984 31 40.7976 34.2698 34.3803C37.146 28.7354 41.7354 24.146 47.3803 21.2698C53.7976 18 62.1984 18 79 18H217C233.802 18 242.202 18 248.62 21.2698C254.265 24.146 258.854 28.7354 261.73 34.3803C265 40.7976 265 49.1984 265 66C265 82.8016 265 91.2024 261.73 97.6197C258.854 103.265 254.265 107.854 248.62 110.73C242.202 114 233.802 114 217 114H79C62.1984 114 53.7976 114 47.3803 110.73C41.7354 107.854 37.146 103.265 34.2698 97.6197C31 91.2024 31 82.8016 31 66Z" fill="#F9F9FA"/>
<rect x="55" y="42" width="96" height="48" rx="14" fill="#A97D4F"/>
<g filter="url(#filter1_d_5_55)">
<path d="M176.971 63.2578C180.537 63.2578 182.965 61.3779 183.556 58.1768H181.16C180.677 60.0459 179.141 61.1523 176.981 61.1523C174.135 61.1523 172.33 58.8643 172.33 55.2441C172.33 51.6562 174.156 49.3467 176.971 49.3467C179.076 49.3467 180.73 50.6465 181.16 52.6338H183.545C183.137 49.4004 180.483 47.2412 176.971 47.2412C172.642 47.2412 169.87 50.335 169.87 55.2441C169.87 60.1855 172.62 63.2578 176.971 63.2578ZM189.539 61.2598C188.196 61.2598 187.326 60.6152 187.326 59.6162C187.326 58.585 188.153 57.9941 189.743 57.8975L192.579 57.7041V58.6172C192.579 60.1533 191.269 61.2598 189.539 61.2598ZM188.916 63.1182C190.506 63.1182 191.956 62.3232 192.601 61.0557H192.654V63H194.878V54.9971C194.878 52.6875 193.041 51.1836 190.194 51.1836C187.573 51.1836 185.618 52.709 185.554 54.7715H187.734C187.938 53.7617 188.862 53.1064 190.13 53.1064C191.688 53.1064 192.579 53.8369 192.579 55.1689V56.0713L189.432 56.2539C186.553 56.4365 184.974 57.6182 184.974 59.6592C184.974 61.7432 186.585 63.1182 188.916 63.1182ZM197.22 63H199.551V55.8457C199.551 54.3203 200.582 53.2031 202.021 53.2031C203.386 53.2031 204.256 54.0625 204.256 55.416V63H206.544V55.7598C206.544 54.2666 207.554 53.2031 208.982 53.2031C210.433 53.2031 211.26 54.084 211.26 55.6094V63H213.58V55.0508C213.58 52.7197 212.076 51.2051 209.777 51.2051C208.112 51.2051 206.737 52.0645 206.125 53.4717H206.071C205.599 52.0215 204.428 51.2051 202.806 51.2051C201.28 51.2051 200.023 52 199.486 53.3105H199.443V51.334H197.22V63ZM220.767 53.085C222.464 53.085 223.613 54.2881 223.667 56.1035H217.748C217.877 54.3096 219.091 53.085 220.767 53.085ZM223.656 59.584C223.334 60.6045 222.271 61.249 220.917 61.249C219.005 61.249 217.737 59.917 217.737 57.8975V57.7578H225.998V56.9414C225.998 53.4072 223.979 51.1836 220.777 51.1836C217.512 51.1836 215.385 53.5576 215.385 57.21C215.385 60.8623 217.49 63.1396 220.874 63.1396C223.495 63.1396 225.547 61.6787 225.88 59.584H223.656ZM227.975 63H230.306V46.8008H227.975V63Z" fill="#3D3D3D"/>
<path d="M178.102 78.9766L178.336 77.8281H176.695L177.32 74.7266H176.203L175.578 77.8281H173.273L173.891 74.7266H172.773L172.156 77.8281H170.516L170.289 78.9766H171.93L171.414 81.625H169.773L169.531 82.7891H171.172L170.531 86H171.648L172.281 82.7891H174.594L173.953 86H175.07L175.711 82.7891H177.352L177.578 81.625H175.938L176.461 78.9766H178.102ZM173.023 78.9531H175.367L174.836 81.6562H172.5L173.023 78.9531ZM186.75 86H188.203L184.57 74.7266H183.102L179.469 86H180.867L181.852 82.7656H185.773L186.75 86ZM183.797 76.3828H183.836L185.414 81.5859H182.211L183.797 76.3828ZM189.875 78.3438C189.875 80.4062 191.352 81.9219 193.367 81.9219C194.078 81.9219 194.875 81.5859 195.211 81.1328L195.328 81.1953C195.258 81.3203 195.203 81.4219 194.945 81.7734L191.875 86H193.453C193.539 85.8828 195.875 82.6016 195.977 82.4297C197.086 80.8203 197.539 79.625 197.539 78.3438C197.539 76.0938 195.938 74.4922 193.711 74.4922C191.484 74.4922 189.875 76.1094 189.875 78.3438ZM193.703 75.7188C195.125 75.7188 196.203 76.8281 196.203 78.2734C196.203 79.7266 195.125 80.8359 193.703 80.8359C192.289 80.8359 191.211 79.7266 191.211 78.2734C191.211 76.8281 192.289 75.7188 193.703 75.7188ZM200.914 86H202.383L207.438 76V74.7266H199.914V75.9609H206.031V76.0625L200.914 86ZM209.812 74.7266V86H212.969C216.164 86 217.773 84.1094 217.773 80.3438C217.773 76.6094 216.164 74.7266 212.969 74.7266H209.812ZM211.195 75.9922H212.844C215.227 75.9922 216.367 77.3984 216.367 80.3516C216.367 83.3359 215.234 84.7344 212.844 84.7344H211.195V75.9922ZM224.719 86H225.977V83.6172H227.703V82.4062H225.984V79.2031H224.734V82.4219H221.039V82.3203L224.812 74.7266H223.406L219.578 82.5V83.6172H224.719V86ZM231.711 86V81.0859H236.523V79.8594H231.711V75.9922H236.977V74.7266H230.328V86H231.711Z" fill="#727272"/>
</g>
</g>
<defs>
<filter id="filter0_dddddddi_5_55" x="0" y="0" width="296" height="158" filterUnits="userSpaceOnUse" color-interpolation-filters="sRGB">
<feFlood flood-opacity="0" result="BackgroundImageFix"/>
<feColorMatrix in="SourceAlpha" type="matrix" values="0 0 0 0 0 0 0 0 0 0 0 0 0 0 0 0 0 0 127 0" result="hardAlpha"/>
<feOffset dy="0.56875"/>
<feGaussianBlur stdDeviation="0.896094"/>
<feColorMatrix type="matrix" values="0 0 0 0 0.0470588 0 0 0 0 0.0784314 0 0 0 0 0.129412 0 0 0 0.013 0"/>
<feBlend mode="normal" in2="BackgroundImageFix" result="effect1_dropShadow_5_55"/>
<feColorMatrix in="SourceAlpha" type="matrix" values="0 0 0 0 0 0 0 0 0 0 0 0 0 0 0 0 0 0 127 0" result="hardAlpha"/>
<feOffset dy="1.37109"/>
<feGaussianBlur stdDeviation="1.49854"/>
<feColorMatrix type="matrix" values="0 0 0 0 0.0470588 0 0 0 0 0.0784314 0 0 0 0 0.129412 0 0 0 0.016875 0"/>
<feBlend mode="normal" in2="effect1_dropShadow_5_55" result="effect2_dropShadow_5_55"/>
<feColorMatrix in="SourceAlpha" type="matrix" values="0 0 0 0 0 0 0 0 0 0 0 0 0 0 0 0 0 0 127 0" result="hardAlpha"/>
<feOffset dy="2.6"/>
<feGaussianBlur stdDeviation="2.51875"/>
<feColorMatrix type="matrix" values="0 0 0 0 0.0470588 0 0 0 0 0.0784314 0 0 0 0 0.129412 0 0 0 0.02 0"/>
<feBlend mode="normal" in2="effect2_dropShadow_5_55" result="effect3_dropShadow_5_55"/>
<feColorMatrix in="SourceAlpha" type="matrix" values="0 0 0 0 0 0 0 0 0 0 0 0 0 0 0 0 0 0 127 0" result="hardAlpha"/>
<feOffset dy="4.31641"/>
<feGaussianBlur stdDeviation="4.19287"/>
<feColorMatrix type="matrix" values="0 0 0 0 0.0470588 0 0 0 0 0.0784314 0 0 0 0 0.129412 0 0 0 0.023125 0"/>
<feBlend mode="normal" in2="effect3_dropShadow_5_55" result="effect4_dropShadow_5_55"/>
<feColorMatrix in="SourceAlpha" type="matrix" values="0 0 0 0 0 0 0 0 0 0 0 0 0 0 0 0 0 0 127 0" result="hardAlpha"/>
<feOffset dy="6.58125"/>
<feGaussianBlur stdDeviation="6.75703"/>
<feColorMatrix type="matrix" values="0 0 0 0 0.0470588 0 0 0 0 0.0784314 0 0 0 0 0.129412 0 0 0 0.027 0"/>
<feBlend mode="normal" in2="effect4_dropShadow_5_55" result="effect5_dropShadow_5_55"/>
<feColorMatrix in="SourceAlpha" type="matrix" values="0 0 0 0 0 0 0 0 0 0 0 0 0 0 0 0 0 0 127 0" result="hardAlpha"/>
<feOffset dy="9.45547"/>
<feGaussianBlur stdDeviation="10.4474"/>
<feColorMatrix type="matrix" values="0 0 0 0 0.0470588 0 0 0 0 0.0784314 0 0 0 0 0.129412 0 0 0 0.032375 0"/>
<feBlend mode="normal" in2="effect5_dropShadow_5_55" result="effect6_dropShadow_5_55"/>
<feColorMatrix in="SourceAlpha" type="matrix" values="0 0 0 0 0 0 0 0 0 0 0 0 0 0 0 0 0 0 127 0" result="hardAlpha"/>
<feOffset dy="13"/>
<feGaussianBlur stdDeviation="15.5"/>
<feColorMatrix type="matrix" values="0 0 0 0 0.0468229 0 0 0 0 0.0797604 0 0 0 0 0.129167 0 0 0 0.04 0"/>
<feBlend mode="normal" in2="effect6_dropShadow_5_55" result="effect7_dropShadow_5_55"/>
<feBlend mode="normal" in="SourceGraphic" in2="effect7_dropShadow_5_55" result="shape"/>
<feColorMatrix in="SourceAlpha" type="matrix" values="0 0 0 0 0 0 0 0 0 0 0 0 0 0 0 0 0 0 127 0" result="hardAlpha"/>
<feOffset dy="2"/>
<feGaussianBlur stdDeviation="0.5"/>
<feComposite in2="hardAlpha" operator="arithmetic" k2="-1" k3="1"/>
<feColorMatrix type="matrix" values="0 0 0 0 1 0 0 0 0 1 0 0 0 0 1 0 0 0 1 0"/>
<feBlend mode="normal" in2="shape" result="effect8_innerShadow_5_55"/>
</filter>
<filter id="filter1_d_5_55" x="164" y="39" width="80" height="54" filterUnits="userSpaceOnUse" color-interpolation-filters="sRGB">
<feFlood flood-opacity="0" result="BackgroundImageFix"/>
<feColorMatrix in="SourceAlpha" type="matrix" values="0 0 0 0 0 0 0 0 0 0 0 0 0 0 0 0 0 0 127 0" result="hardAlpha"/>
<feOffset/>
<feGaussianBlur stdDeviation="1.5"/>
<feColorMatrix type="matrix" values="0 0 0 0 1 0 0 0 0 1 0 0 0 0 1 0 0 0 1 0"/>
<feBlend mode="normal" in2="BackgroundImageFix" result="effect1_dropShadow_5_55"/>
<feBlend mode="normal" in="SourceGraphic" in2="effect1_dropShadow_5_55" result="shape"/>
</filter>
</defs>
</svg>
